<?xml version="1.0" encoding="UTF-8"?>
<svg id="_レイヤー_2" data-name="レイヤー 2" xmlns="http://www.w3.org/2000/svg" viewBox="0 0 20.55 37.41">
  <defs>
    <style>
      .cls-1 {
        fill: #fff;
        stroke-width: 0px;
      }
    </style>
  </defs>
  <g id="pc">
    <g>
      <path class="cls-1" d="m11.38,4.32l6.98,6.9c.25.25.58.37.91.37s.66-.13.92-.38c.5-.51.5-1.32-.01-1.82L11.04.37c-.51-.5-1.32-.5-1.82.01L.37,9.34c-.5.51-.5,1.32.01,1.82.51.5,1.32.5,1.82-.01l6.6-6.67v23.36c0,.71.58,1.29,1.29,1.29s1.29-.58,1.29-1.29V4.32Z"/>
      <path class="cls-1" d="m10.09,32.19c-.71,0-1.29.58-1.29,1.29v2.64c0,.71.58,1.29,1.29,1.29s1.29-.58,1.29-1.29v-2.64c0-.71-.58-1.29-1.29-1.29Z"/>
    </g>
  </g>
</svg>