<?xml version="1.0" encoding="UTF-8"?>
<svg id="_レイヤー_2" data-name="レイヤー 2" xmlns="http://www.w3.org/2000/svg" viewBox="0 0 117.31 114.88">
  <defs>
    <style>
      .cls-1 {
        fill: #fff;
        stroke-width: 0px;
      }
    </style>
  </defs>
  <g id="pc">
    <g>
      <path class="cls-1" d="m61.69,112.98c0-1.05-.85-1.9-1.9-1.9h-17.16v-30.85h33.59v31.25c-.46.35-.75.89-.75,1.51,0,1.05.85,1.9,1.9,1.9h28.68s.03,0,.05,0,.03,0,.05,0h9.27c1.05,0,1.9-.85,1.9-1.9s-.85-1.9-1.9-1.9h-7.42V2.04c0-1.05-.85-1.9-1.9-1.9H31.67c-1.05,0-1.9.85-1.9,1.9s.85,1.9,1.9,1.9h72.53v107.14h-24.17v-32.75c0-1.05-.85-1.9-1.9-1.9h-37.39c-1.05,0-1.9.85-1.9,1.9v32.75H13.28V3.88h7.35c1.05,0,1.9-.85,1.9-1.9s-.85-1.9-1.9-1.9h-8.67s-.03,0-.05,0c-.17-.05-.34-.08-.53-.08-1.05,0-1.9.85-1.9,1.9v109.17H1.9c-1.05,0-1.9.85-1.9,1.9s.85,1.9,1.9,1.9h57.89c1.05,0,1.9-.85,1.9-1.9Z"/>
      <path class="cls-1" d="m67.39,28.12v-14.17c0-.28-.23-.51-.51-.51h-18.49c-.28,0-.51.23-.51.51v14.17c0,.28-.23.51-.51.51h-14.17c-.28,0-.51.23-.51.51v18.49c0,.28.23.51.51.51h14.17c.28,0,.51.23.51.51v14.17c0,.28.23.51.51.51h18.49c.28,0,.51-.23.51-.51v-14.17c0-.28.23-.51.51-.51h14.17c.28,0,.51-.23.51-.51v-18.49c0-.28-.23-.51-.51-.51h-14.17c-.28,0-.51-.23-.51-.51Z"/>
    </g>
  </g>
</svg>