<?xml version="1.0" encoding="UTF-8"?>
<svg id="_レイヤー_2" data-name="レイヤー 2" xmlns="http://www.w3.org/2000/svg" viewBox="0 0 36.88 30.59">
  <defs>
    <style>
      .cls-1 {
        fill: #fff;
        stroke-width: 0px;
      }
    </style>
  </defs>
  <g id="_01" data-name="01">
    <path class="cls-1" d="m13.04,0l-2.25,4.5H3.15c-1.74,0-3.15,1.4-3.15,3.15v19.79c0,1.74,1.4,3.15,3.15,3.15h30.59c1.74,0,3.15-1.4,3.15-3.15V7.65c0-1.74-1.4-3.15-3.15-3.15h-7.65l-2.25-4.5h-10.8Zm5.4,7.65c5.44,0,9.9,4.45,9.9,9.9s-4.45,9.9-9.9,9.9-9.9-4.45-9.9-9.9,4.45-9.9,9.9-9.9h0Zm0,3.6c-3.5,0-6.3,2.8-6.3,6.3s2.8,6.3,6.3,6.3,6.3-2.8,6.3-6.3-2.8-6.3-6.3-6.3Z"/>
  </g>
</svg>