<?xml version="1.0" encoding="UTF-8"?>
<svg id="_レイヤー_2" data-name="レイヤー 2" xmlns="http://www.w3.org/2000/svg" viewBox="0 0 40.1 27.28">
  <defs>
    <style>
      .cls-1 {
        fill: #fff;
        stroke-width: 0px;
      }
    </style>
  </defs>
  <g id="pc">
    <g>
      <path class="cls-1" d="m.31,9.33l-.31-1.09c3.36-.96,5.28-.69,7.14-.43,1.82.26,3.54.5,6.67-.4,3.13-.9,4.46-2.01,5.88-3.19,1.44-1.2,2.93-2.45,6.29-3.41,3.36-.96,5.28-.69,7.14-.43,1.82.26,3.54.5,6.67-.4l.31,1.09c-3.36.96-5.28.69-7.14.43-1.82-.26-3.54-.5-6.67.4-3.13.9-4.46,2.01-5.88,3.19-1.44,1.2-2.93,2.45-6.29,3.41-3.36.96-5.28.69-7.14.43-1.82-.26-3.54-.5-6.67.4Z"/>
      <path class="cls-1" d="m.31,18.31l-.31-1.09c3.36-.96,5.28-.69,7.14-.43,1.82.26,3.54.5,6.67-.4,3.13-.9,4.46-2.01,5.88-3.19,1.44-1.2,2.93-2.45,6.29-3.41,3.36-.96,5.28-.69,7.14-.43,1.82.26,3.54.5,6.67-.4l.31,1.09c-3.36.96-5.28.69-7.14.43-1.82-.26-3.54-.5-6.67.4-3.13.9-4.46,2.01-5.88,3.19-1.44,1.2-2.93,2.45-6.29,3.41-3.36.96-5.28.69-7.14.43-1.82-.26-3.54-.5-6.67.4Z"/>
      <path class="cls-1" d="m.31,27.28l-.31-1.09c3.36-.96,5.28-.69,7.14-.43,1.82.26,3.54.5,6.67-.4,3.13-.9,4.46-2.01,5.88-3.19,1.44-1.2,2.93-2.45,6.29-3.41,3.36-.96,5.28-.69,7.14-.43,1.82.26,3.54.5,6.67-.4l.31,1.09c-3.36.96-5.29.69-7.14.43-1.82-.26-3.54-.5-6.67.4-3.13.9-4.46,2.01-5.88,3.19-1.44,1.2-2.93,2.45-6.29,3.41-3.36.96-5.28.69-7.14.43-1.82-.26-3.54-.5-6.67.4Z"/>
    </g>
  </g>
</svg>