<?xml version="1.0" encoding="UTF-8"?>
<svg id="_レイヤー_2" data-name="レイヤー 2" xmlns="http://www.w3.org/2000/svg" viewBox="0 0 117.31 110.77">
  <defs>
    <style>
      .cls-1 {
        fill: #fff;
        stroke-width: 0px;
      }
    </style>
  </defs>
  <g id="pc">
    <g>
      <path class="cls-1" d="m107.83,82.65l9.4-30.33c.2-.66.03-1.37-.46-1.86-.2-.2-2.11-2-5.28-1.85-3.24.13-6.53,2.15-9.79,5.99-6.1,7.19-7.52,12.98-7.86,15.35l-5.86,3.23c-.12-.14-.25-.28-.39-.41-3.19-3.07-8.58-2.89-8.74-2.89h-13.88c-12-8.21-21.08-8.31-21.47-8.31-1.02,0-1.85.83-1.85,1.85,0,1.02.82,1.85,1.84,1.86.09,0,8.63.15,19.83,7.98.31.22.68.33,1.06.33h14.53c1.14-.04,4.41.22,6.11,1.86.77.74,1.14,1.71,1.14,2.96,0,4.46-1.95,6.12-7.2,6.12h-30.05c-1.02,0-1.86.83-1.86,1.86s.83,1.86,1.86,1.86h30.05c2.7,0,10.91,0,10.91-9.83,0-.68-.08-1.32-.21-1.93l6.82-3.76c.58-.32.95-.94.96-1.61,0-.06.18-5.99,7.08-14.12,2.49-2.93,4.92-4.55,7.03-4.68.71-.04,1.29.09,1.72.26l-8.77,28.32-34.19,21.49c-24.32-.12-50.73-8.42-51-8.51-.51-.16-1.07-.1-1.53.19l-5.74,3.52c-.12-6.21.03-17.64.25-27.81h6.14c.28,0,.55-.06.8-.18.08-.04.25-.14.51-.3,5.57-3.5,10.76-4.24,14.12-4.24,1.02,0,1.86-.83,1.86-1.86s-.83-1.86-1.86-1.86c-3.82,0-9.68.82-15.95,4.72h-5.54c.04-1.86.09-3.65.13-5.32v-6.16c0-1.02-.83-1.86-1.86-1.86H1.86c-1.02,0-1.86.83-1.86,1.86s.83,1.86,1.86,1.86h6.93v4.25c0,.1-.28,10.35-.42,20.61-.22,16.19,0,20.46.42,21.9v3.85H1.86c-1.02,0-1.86.83-1.86,1.86s.83,1.86,1.86,1.86h8.78c1.02,0,1.86-.83,1.86-1.86v-6.16c0-.33-.09-.64-.24-.91,0,0,0-.02,0-.03l6.75-4.14c4.74,1.43,29.22,8.43,51.84,8.43.35,0,.69-.1.99-.28l35.23-22.14c.38-.24.65-.6.79-1.02Z"/>
      <path class="cls-1" d="m71.09,15.12V.52c0-.29-.23-.52-.52-.52h-19.03c-.29,0-.52.23-.52.52v14.6c0,.29-.23.52-.52.52h-14.6c-.29,0-.52.23-.52.52v19.03c0,.29.23.52.52.52h14.6c.29,0,.52.23.52.52v14.6c0,.29.23.52.52.52h19.03c.29,0,.52-.23.52-.52v-14.6c0-.29.23-.52.52-.52h14.6c.29,0,.52-.23.52-.52v-19.03c0-.29-.23-.52-.52-.52h-14.6c-.29,0-.52-.23-.52-.52Z"/>
    </g>
  </g>
</svg>