<?xml version="1.0" encoding="UTF-8"?>
<svg id="_レイヤー_2" data-name="レイヤー 2" xmlns="http://www.w3.org/2000/svg" viewBox="0 0 30 30">
  <defs>
    <style>
      .cls-1 {
        fill: #fff;
        stroke-width: 0px;
      }
    </style>
  </defs>
  <g id="pc">
    <g>
      <path class="cls-1" d="m9.43,16.14c.25,7.79,3.05,13.12,5.57,13.12s5.32-5.33,5.57-13.12h-11.14Z"/>
      <path class="cls-1" d="m15,.74c-2.52,0-5.32,5.33-5.57,13.12h11.14c-.25-7.79-3.05-13.12-5.57-13.12Z"/>
      <path class="cls-1" d="m22.8,13.86h7.2c-.49-6.79-5.27-12.36-11.59-13.86,2.5,2.44,4.21,7.57,4.39,13.86Z"/>
      <path class="cls-1" d="m22.8,16.14c-.18,6.29-1.89,11.42-4.39,13.86,6.31-1.5,11.1-7.07,11.59-13.86h-7.2Z"/>
      <path class="cls-1" d="m7.2,16.14H0c.49,6.79,5.27,12.36,11.59,13.86-2.5-2.44-4.21-7.57-4.39-13.86Z"/>
      <path class="cls-1" d="m7.2,13.86c.18-6.29,1.89-11.42,4.39-13.86C5.27,1.5.49,7.07,0,13.86h7.2Z"/>
    </g>
  </g>
</svg>