<?xml version="1.0" encoding="UTF-8"?>
<svg id="_レイヤー_2" data-name="レイヤー 2" xmlns="http://www.w3.org/2000/svg" viewBox="0 0 81.41 76.87">
  <defs>
    <style>
      .cls-1 {
        fill: #fff;
      }

      .cls-1, .cls-2 {
        stroke-width: 0px;
      }

      .cls-2 {
        fill: #e67800;
      }
    </style>
  </defs>
  <g id="pc">
    <g>
      <path class="cls-1" d="m74.83,57.36l6.52-21.05c.14-.46.02-.95-.32-1.29-.14-.14-1.46-1.38-3.67-1.29-2.25.09-4.53,1.49-6.8,4.16-4.23,4.99-5.22,9.01-5.45,10.65l-4.06,2.24c-.09-.1-.17-.19-.27-.28-2.21-2.13-5.95-2.01-6.06-2h-9.63c-8.33-5.7-14.63-5.77-14.9-5.77-.71,0-1.28.57-1.29,1.28s.57,1.29,1.28,1.29c.06,0,5.99.11,13.76,5.53.22.15.47.23.74.23h10.08c.79-.03,3.06.15,4.24,1.29.53.52.79,1.19.79,2.05,0,3.1-1.35,4.25-4.99,4.25h-20.85c-.71,0-1.29.58-1.29,1.29s.58,1.29,1.29,1.29h20.85c1.87,0,7.57,0,7.57-6.82,0-.47-.05-.91-.15-1.34l4.73-2.61c.4-.22.66-.66.67-1.12,0-.04.12-4.16,4.91-9.8,1.73-2.04,3.41-3.16,4.88-3.25.49-.03.89.06,1.19.18l-6.09,19.65-23.73,14.91c-16.88-.08-35.21-5.84-35.39-5.9-.36-.11-.74-.07-1.06.13l-3.98,2.44c-.09-4.31.02-12.24.17-19.3h4.26c.19,0,.38-.04.55-.12.05-.03.18-.09.36-.21,3.87-2.43,7.46-2.94,9.8-2.94.71,0,1.29-.58,1.29-1.29s-.58-1.29-1.29-1.29c-2.65,0-6.72.57-11.07,3.27h-3.84c.03-1.29.06-2.53.09-3.69v-4.27c0-.71-.58-1.29-1.29-1.29H1.29c-.71,0-1.29.58-1.29,1.29s.58,1.29,1.29,1.29h4.81v2.95c0,.07-.19,7.19-.29,14.3-.16,11.24,0,14.2.29,15.2v2.67H1.29c-.71,0-1.29.58-1.29,1.29s.58,1.29,1.29,1.29h6.1c.71,0,1.29-.58,1.29-1.29v-4.27c0-.23-.06-.45-.17-.63,0,0,0-.02,0-.02l4.68-2.87c3.29.99,20.28,5.85,35.97,5.85.24,0,.48-.07.69-.2l24.45-15.37c.26-.16.45-.42.54-.71Z"/>
      <path class="cls-2" d="m49.33,10.49V.36c0-.2-.16-.36-.36-.36h-13.21c-.2,0-.36.16-.36.36v10.13c0,.2-.16.36-.36.36h-10.13c-.2,0-.36.16-.36.36v13.21c0,.2.16.36.36.36h10.13c.2,0,.36.16.36.36v10.13c0,.2.16.36.36.36h13.21c.2,0,.36-.16.36-.36v-10.13c0-.2.16-.36.36-.36h10.13c.2,0,.36-.16.36-.36v-13.21c0-.2-.16-.36-.36-.36h-10.13c-.2,0-.36-.16-.36-.36Z"/>
    </g>
  </g>
</svg>