<?xml version="1.0" encoding="UTF-8"?>
<svg id="_レイヤー_2" data-name="レイヤー 2" xmlns="http://www.w3.org/2000/svg" viewBox="0 0 69.95 65">
  <defs>
    <style>
      .cls-1 {
        fill: #333;
        stroke-width: 0px;
      }
    </style>
  </defs>
  <g id="pc">
    <g>
      <path class="cls-1" d="m37.45,0C19.66,0,5.17,14.36,4.95,32.1H0l6.04,8.44,6.04-8.44h-4.94c.21-16.53,13.73-29.91,30.3-29.91s30.31,13.6,30.31,30.31-13.6,30.31-30.31,30.31c-9.66,0-18.82-4.67-24.52-12.49l-1.77,1.29c6.1,8.38,15.93,13.39,26.29,13.39,17.92,0,32.5-14.58,32.5-32.5S55.37,0,37.45,0Z"/>
      <polygon class="cls-1" points="36.35 11.86 36.35 32.95 49.2 45.8 50.75 44.26 38.54 32.05 38.54 11.86 36.35 11.86"/>
    </g>
  </g>
</svg>