<?xml version="1.0" encoding="UTF-8"?>
<svg id="_レイヤー_2" data-name="レイヤー 2" xmlns="http://www.w3.org/2000/svg" viewBox="0 0 93.73 65">
  <defs>
    <style>
      .cls-1 {
        fill: #333;
        stroke-width: 0px;
      }
    </style>
  </defs>
  <g id="pc">
    <path class="cls-1" d="m91.69,35.21l-5.55,2.54-14.82-32.36,5.78-2.65c.72-.33,1.04-1.18.71-1.9-.33-.72-1.18-1.04-1.9-.71l-7.09,3.24c-.35.16-.62.45-.75.81-.13.36-.12.75.04,1.1l1.91,4.17-4.36,1.68h-25.08c-.38,0-.75.15-1.02.42l-1.09,1.09c-.08-.03-.16-.06-.24-.08l-14.01-3.17,1.39-3.04c.16-.35.17-.74.04-1.1-.13-.36-.4-.65-.75-.81l-7.09-3.24c-.72-.33-1.57-.01-1.9.71-.33.72-.01,1.57.71,1.9l5.78,2.65L7.59,38.83l-5.55-2.54c-.72-.33-1.57-.01-1.9.71-.33.72-.01,1.57.71,1.9l6.86,3.14c.19.09.4.13.6.13.54,0,1.07-.31,1.31-.84l1.19-2.59s.07.06.11.08c3.1,1.7,7.73,4.32,9.89,5.72-.43.93-.58,1.87-.43,2.81.31,1.92,1.75,3.04,2.03,3.24,1.14.85,2.23,1.18,3.21,1.18.21,0,.42-.02.62-.05,0,.01,0,.03,0,.04.31,1.92,1.75,3.04,2.03,3.24,1.14.85,2.23,1.18,3.21,1.18.21,0,.42-.02.62-.05,0,.01,0,.03,0,.04.31,1.92,1.75,3.04,2.03,3.24,1.14.85,2.23,1.18,3.21,1.18.21,0,.42-.02.62-.05,0,.01,0,.03,0,.04.31,1.92,1.76,3.04,2.03,3.24,1.14.85,2.23,1.18,3.21,1.18,1.57,0,2.84-.84,3.5-1.73l1-1.33,1.12,1.36c.67.88,1.94,1.71,3.5,1.71.97,0,2.05-.32,3.17-1.16.17-.12,1.68-1.22,2.04-3.17.23.04.47.07.73.07.91,0,2-.29,3.19-1.19.28-.2,1.72-1.32,2.03-3.24,0,0,0-.01,0-.02.25.05.51.08.78.08.98,0,2.07-.33,3.21-1.18.28-.2,1.7-1.31,2.02-3.21.27.05.55.09.84.09.97,0,2.05-.32,3.17-1.16.18-.12,1.74-1.25,2.06-3.26.22-1.35-.17-2.7-1.15-4.03l-.96-1.55c1.4-.84,5.44-2.99,9.25-4.94l1.43,3.13c.16.35.45.62.81.75.16.06.33.09.5.09.2,0,.41-.04.6-.13l6.86-3.14c.72-.33,1.04-1.18.71-1.9-.33-.72-1.18-1.04-1.9-.71Zm-64.87,13.07c-.31.38-1.19,1.14-2.72-.01,0,0-.03-.02-.03-.02,0,0-.75-.56-.88-1.39-.08-.56.14-1.19.65-1.88l4.23-5.63c.38-.42,1.36-1.23,2.71-.21.56.42,1.23,1.06,1.25,1.68.01.34-.16.74-.53,1.23l-4.69,6.23Zm5.86,4.41c-.31.38-1.19,1.14-2.72-.01,0,0-.03-.02-.03-.02,0,0-.75-.56-.88-1.39-.08-.56.14-1.19.65-1.88l4.23-5.63c.38-.42,1.36-1.23,2.71-.21.56.42,1.23,1.06,1.25,1.68.01.34-.16.74-.53,1.23l-4.69,6.23Zm5.85,4.43c-.16.21-1.05,1.22-2.71-.03,0,0-.03-.02-.03-.02,0,0-.75-.56-.88-1.39-.08-.56.14-1.19.65-1.88l4.24-5.64c.23-.27,1.25-1.29,2.7-.2.56.42,1.23,1.06,1.25,1.68.01.34-.16.74-.53,1.23l-4.7,6.24Zm5.87,4.39c-.31.38-1.19,1.14-2.72-.01,0,0-.03-.02-.03-.02,0,0-.75-.56-.88-1.39-.08-.56.14-1.19.65-1.88l4.24-5.64c.23-.27,1.25-1.29,2.7-.2.56.42,1.23,1.06,1.25,1.68.01.34-.16.74-.53,1.23l-4.69,6.23Zm28.31-14.35c-.12.83-.87,1.38-.91,1.41-1.53,1.15-2.41.4-2.72.02-.16-.21-.37-.36-.6-.45-.07-.1-.13-.2-.21-.3l-2.69-3.44c-.49-.62-1.39-.74-2.02-.25-.63.49-.74,1.39-.25,2.02l2.67,3.42c.52.69.74,1.32.65,1.88-.12.83-.86,1.38-.86,1.38,0,0,0,0,0,0-.02.01-.03.02-.05.03-1.53,1.15-2.41.4-2.72.02-.16-.21-.37-.35-.59-.44-.05-.07-.09-.14-.14-.21l-2.15-2.98c-.46-.64-1.36-.79-2.01-.32-.64.46-.79,1.36-.32,2.01l2.16,3c.52.69.74,1.32.65,1.88-.12.83-.86,1.38-.86,1.38h0s-.03.02-.05.03c-1.53,1.15-2.41.4-2.72.02-.1-.13-.22-.23-.35-.32-.1-.15-.2-.3-.31-.45-.48-.63-1.38-.76-2.01-.28-.63.48-.76,1.38-.28,2.01.52.69.74,1.32.65,1.88-.12.83-.87,1.38-.91,1.41-1.53,1.15-2.41.39-2.71.03-.01-.02-.03-.03-.04-.05l-1.58-1.91,1.92-2.56c.78-1.04,1.14-2.04,1.11-3.06-.05-1.41-.85-2.72-2.4-3.88-1.22-.92-2.44-1.16-3.51-1.03-.2-1.22-.99-2.36-2.35-3.38-1.22-.92-2.44-1.16-3.51-1.03-.2-1.22-.99-2.36-2.35-3.38-1.22-.92-2.44-1.16-3.51-1.03-.2-1.22-.99-2.36-2.35-3.38-2.76-2.07-5.49-.72-6.66.69-.01.02-.03.03-.04.05l-3.43,4.56c-2.96-1.92-9.27-5.4-10.1-5.85-.1-.06-.21-.1-.32-.12l11.04-24.12s.06.02.09.03l13,2.94-8.39,8.39c-.49.49-.56,1.25-.17,1.82.08.12,2.1,3.04,5.67,3.63.42.07.83.1,1.26.1,2.04,0,4.12-.8,6.2-2.39,3.01-2.3,4.85-3.67,5.98-4.48l18.69,12.23s.02,0,.02.01l1.38,2.3,5.26,8.54s.05.07.08.11c.52.69.74,1.32.65,1.88Zm-.77-7.54l-2.76-4.49-1.6-2.66c-.18-.3-.46-.51-.77-.61l-17.87-11.7c.13-.37.12-.79-.08-1.16-.37-.7-1.24-.97-1.94-.6-.06.03-.23.13-.64.41-.41.05-.79.26-1.04.63-.03.05-.05.1-.08.15-1.17.84-3.09,2.26-6.25,4.68-1.84,1.41-3.6,1.99-5.22,1.74-1.32-.21-2.35-.94-3-1.54l10.49-10.49h24.75c.18,0,.35-.03.52-.1l4.77-1.84,10.28,22.44c-5.77,2.96-8.35,4.39-9.55,5.12Z"/>
  </g>
</svg>