<?xml version="1.0" encoding="UTF-8"?>
<svg id="_レイヤー_2" data-name="レイヤー 2" xmlns="http://www.w3.org/2000/svg" viewBox="0 0 81.69 80">
  <defs>
    <style>
      .cls-1, .cls-2 {
        stroke-width: 0px;
      }

      .cls-2 {
        fill: #63b5a3;
      }
    </style>
  </defs>
  <g id="pc">
    <g>
      <path class="cls-1" d="m42.96,78.67c0-.73-.59-1.32-1.32-1.32h-11.95v-21.49h23.39v21.76c-.32.24-.53.62-.53,1.05,0,.73.59,1.32,1.32,1.32h19.97s.02,0,.03,0,.02,0,.03,0h6.46c.73,0,1.32-.59,1.32-1.32s-.59-1.32-1.32-1.32h-5.17V1.42c0-.73-.59-1.32-1.32-1.32H22.05c-.73,0-1.32.59-1.32,1.32s.59,1.32,1.32,1.32h50.5v74.61h-16.83v-22.81c0-.73-.59-1.32-1.32-1.32h-26.04c-.73,0-1.32.59-1.32,1.32v22.81H9.25V2.7h5.12c.73,0,1.32-.59,1.32-1.32S15.1.05,14.37.05h-6.04s-.02,0-.03,0c-.12-.03-.24-.06-.37-.06-.73,0-1.32.59-1.32,1.32v76.03H1.32c-.73,0-1.32.59-1.32,1.32s.59,1.32,1.32,1.32h40.31c.73,0,1.32-.59,1.32-1.32Z"/>
      <path class="cls-2" d="m46.93,19.58v-9.87c0-.19-.16-.35-.35-.35h-12.87c-.2,0-.35.16-.35.35v9.87c0,.2-.16.35-.35.35h-9.87c-.2,0-.35.16-.35.35v12.87c0,.2.16.35.35.35h9.87c.2,0,.35.16.35.35v9.87c0,.2.16.35.35.35h12.87c.2,0,.35-.16.35-.35v-9.87c0-.19.16-.35.35-.35h9.87c.19,0,.35-.16.35-.35v-12.87c0-.2-.16-.35-.35-.35h-9.87c-.2,0-.35-.16-.35-.35Z"/>
    </g>
  </g>
</svg>