<?xml version="1.0" encoding="UTF-8"?>
<svg id="_レイヤー_2" data-name="レイヤー 2" xmlns="http://www.w3.org/2000/svg" viewBox="0 0 29.78 24.69">
  <defs>
    <style>
      .cls-1 {
        stroke-width: 0px;
      }
    </style>
  </defs>
  <g id="_01" data-name="01">
    <path class="cls-1" d="m10.53,0l-1.82,3.63H2.54c-1.41,0-2.54,1.13-2.54,2.54v15.98c0,1.41,1.13,2.54,2.54,2.54h24.69c1.41,0,2.54-1.13,2.54-2.54V6.17c0-1.41-1.13-2.54-2.54-2.54h-6.17l-1.82-3.63h-8.72Zm4.36,6.17c4.4,0,7.99,3.59,7.99,7.99s-3.59,7.99-7.99,7.99-7.99-3.59-7.99-7.99,3.59-7.99,7.99-7.99h0Zm0,2.91c-2.82,0-5.08,2.26-5.08,5.08s2.26,5.08,5.08,5.08,5.08-2.26,5.08-5.08-2.26-5.08-5.08-5.08Z"/>
  </g>
</svg>