<?xml version="1.0" encoding="UTF-8"?>
<svg id="_レイヤー_2" data-name="レイヤー 2" xmlns="http://www.w3.org/2000/svg" viewBox="0 0 83.83 82.09">
  <defs>
    <style>
      .cls-1 {
        fill: #63b5a3;
      }

      .cls-1, .cls-2 {
        stroke-width: 0px;
      }

      .cls-2 {
        fill: #fff;
      }
    </style>
  </defs>
  <g id="pc">
    <g>
      <path class="cls-2" d="m44.08,80.73c0-.75-.61-1.36-1.36-1.36h-12.26v-22.05h24v22.33c-.33.25-.54.64-.54,1.08,0,.75.61,1.36,1.36,1.36h20.49s.02,0,.03,0,.02,0,.03,0h6.63c.75,0,1.36-.61,1.36-1.36s-.61-1.36-1.36-1.36h-5.3V1.46c0-.75-.61-1.36-1.36-1.36H22.63c-.75,0-1.36.61-1.36,1.36s.61,1.36,1.36,1.36h51.82v76.56h-17.27v-23.4c0-.75-.61-1.36-1.36-1.36h-26.72c-.75,0-1.36.61-1.36,1.36v23.4H9.49V2.77h5.25c.75,0,1.36-.61,1.36-1.36S15.49.06,14.74.06h-6.2s-.02,0-.03,0c-.12-.03-.25-.06-.38-.06-.75,0-1.36.61-1.36,1.36v78.01H1.36c-.75,0-1.36.61-1.36,1.36s.61,1.36,1.36,1.36h41.37c.75,0,1.36-.61,1.36-1.36Z"/>
      <path class="cls-1" d="m48.16,20.09v-10.13c0-.2-.16-.36-.36-.36h-13.21c-.2,0-.36.16-.36.36v10.13c0,.2-.16.36-.36.36h-10.13c-.2,0-.36.16-.36.36v13.21c0,.2.16.36.36.36h10.13c.2,0,.36.16.36.36v10.13c0,.2.16.36.36.36h13.21c.2,0,.36-.16.36-.36v-10.13c0-.2.16-.36.36-.36h10.13c.2,0,.36-.16.36-.36v-13.21c0-.2-.16-.36-.36-.36h-10.13c-.2,0-.36-.16-.36-.36Z"/>
    </g>
  </g>
</svg>