<?xml version="1.0" encoding="UTF-8"?>
<svg id="_レイヤー_2" data-name="レイヤー 2" xmlns="http://www.w3.org/2000/svg" viewBox="0 0 53.41 65">
  <defs>
    <style>
      .cls-1 {
        fill: #fff;
        stroke-width: 0px;
      }
    </style>
  </defs>
  <g id="pc">
    <g>
      <path class="cls-1" d="m53.4,54.24c0-.05.01-.1.01-.16V7.05c0-.63-.51-1.14-1.14-1.14h-4.93V1.14c0-.63-.51-1.14-1.14-1.14H1.14C.51,0,0,.51,0,1.14v56.81c0,.63.51,1.14,1.14,1.14h4.93v4.78c0,.63.51,1.14,1.14,1.14h36.42c.28,0,.53-.1.73-.26.08,0,.17-.01.25-.03,7.49-1.77,8.74-10.11,8.79-10.46ZM6.07,7.05v49.76h-3.79V2.27h42.8v3.64H7.21c-.63,0-1.14.51-1.14,1.14Zm37.56,46.17c-.63,0-1.14.51-1.14,1.14v8.37H8.34V8.19h42.8v45.03h-7.51Zm1.14,9.08v-6.81h6c-.64,2.06-2.26,5.58-6,6.81Z"/>
      <path class="cls-1" d="m22.46,36.11h19.85c.63,0,1.14-.51,1.14-1.14s-.51-1.14-1.14-1.14h-19.85c-.63,0-1.14.51-1.14,1.14s.51,1.14,1.14,1.14Z"/>
      <path class="cls-1" d="m22.46,44.4h19.85c.63,0,1.14-.51,1.14-1.14s-.51-1.14-1.14-1.14h-19.85c-.63,0-1.14.51-1.14,1.14s.51,1.14,1.14,1.14Z"/>
      <path class="cls-1" d="m22.46,28.19h19.85c.63,0,1.14-.51,1.14-1.14s-.51-1.14-1.14-1.14h-19.85c-.63,0-1.14.51-1.14,1.14s.51,1.14,1.14,1.14Z"/>
      <g>
        <path class="cls-1" d="m18.23,21.49c-.4-.23-.9-.09-1.13.3l-2.2,3.83-.6-1.07c-.22-.4-.73-.54-1.12-.31-.4.22-.54.73-.31,1.12l1.32,2.34c.15.26.42.42.72.42h0c.3,0,.57-.16.72-.41l2.92-5.09c.23-.4.09-.9-.3-1.13Z"/>
        <path class="cls-1" d="m18.23,30.86c-.4-.23-.9-.09-1.13.3l-2.2,3.83-.6-1.07c-.22-.4-.73-.54-1.12-.31-.4.22-.54.73-.31,1.12l1.32,2.34c.15.26.42.42.72.42h0c.3,0,.57-.16.72-.41l2.92-5.09c.23-.4.09-.9-.3-1.13Z"/>
        <path class="cls-1" d="m18.23,40.09c-.4-.23-.9-.09-1.13.3l-2.2,3.83-.6-1.07c-.22-.4-.73-.54-1.12-.31-.4.22-.54.73-.31,1.12l1.32,2.34c.15.26.42.42.72.42h0c.3,0,.57-.16.72-.41l2.92-5.09c.23-.4.09-.9-.3-1.13Z"/>
        <path class="cls-1" d="m47,14.66h-2.77c-.05,0-.1-.04-.1-.1v-2.77c0-.05-.04-.1-.1-.1h-3.61c-.05,0-.1.04-.1.1v2.77c0,.05-.04.1-.1.1h-2.77c-.05,0-.1.04-.1.1v3.61c0,.05.04.1.1.1h2.77c.05,0,.1.04.1.1v2.77c0,.05.04.1.1.1h3.61c.05,0,.1-.04.1-.1v-2.77c0-.05.04-.1.1-.1h2.77c.05,0,.1-.04.1-.1v-3.61c0-.05-.04-.1-.1-.1Z"/>
      </g>
    </g>
  </g>
</svg>