<?xml version="1.0" encoding="utf-8"?>
<!-- Generator: Adobe Illustrator 27.8.1, SVG Export Plug-In . SVG Version: 6.00 Build 0)  -->
<svg version="1.1" id="レイヤー_1" xmlns="http://www.w3.org/2000/svg" xmlns:xlink="http://www.w3.org/1999/xlink" x="0px"
	 y="0px" viewBox="0 0 1100 254" style="enable-background:new 0 0 1100 254;" xml:space="preserve">
<style type="text/css">
	.st0{opacity:0.7;enable-background:new    ;}
	.st1{fill:#CCCCCC;}
	.st2{opacity:0.7;fill:#CCCCCC;enable-background:new    ;}
	.st3{opacity:0.7;}
</style>
<g>
	<g class="st0">
		<path class="st1" d="M948.8,114.1c1.6-4,0.7-8.1-2.1-9.2c-2.8-1.1-6.3,1.2-8,5.2c-1.6,4,2.1,9.2,2.1,9.2S947.2,118.1,948.8,114.1z
			"/>
		<path class="st1" d="M979.7,114.6c1.6-4,0.7-8.1-2.1-9.2c-2.8-1.1-6.3,1.2-8,5.2c-1.6,4,2.1,9.2,2.1,9.2S978.1,118.6,979.7,114.6z
			"/>
		<path class="st1" d="M996.8,139.8c-2.8-1.1-6.3,1.2-8,5.2c-1.6,4,2.1,9.2,2.1,9.2s6.3-1.2,8-5.2
			C1000.5,145,999.5,140.9,996.8,139.8z"/>
		<path class="st1" d="M1022,171.3c-2.8-1.1-6.3,1.2-8,5.2c-1.6,4,2.1,9.2,2.1,9.2s6.3-1.2,8-5.2
			C1025.7,176.5,1024.8,172.4,1022,171.3z"/>
		<path class="st1" d="M1049.7,152.8c-2.8-1.1-6.3,1.2-8,5.2c-1.6,4,2.1,9.2,2.1,9.2s6.3-1.2,8-5.2
			C1053.4,158,1052.4,153.9,1049.7,152.8z"/>
		<path class="st1" d="M1029.5,132.8c-2.8-1.1-6.3,1.2-8,5.2c-1.6,4,2.1,9.2,2.1,9.2s6.3-1.2,8-5.2
			C1033.2,138.1,1032.3,134,1029.5,132.8z"/>
		<path class="st1" d="M988.5,181.8c1.6-4,0.7-8.1-2.1-9.2c-2.8-1.1-6.3,1.2-8,5.2c-1.6,4,2.1,9.2,2.1,9.2S986.9,185.8,988.5,181.8z
			"/>
		<path class="st1" d="M992.6,200.8c-2.8-1.1-6.3,1.2-8,5.2c-1.6,4,2.1,9.2,2.1,9.2s6.3-1.2,8-5.2
			C996.3,206,995.3,201.9,992.6,200.8z"/>
		<path class="st1" d="M1007.2,107.1c-2.8-1.1-6.3,1.2-8,5.2c-1.6,4,2.1,9.2,2.1,9.2s6.3-1.2,8-5.2
			C1010.9,112.3,1010,108.2,1007.2,107.1z"/>
		<path class="st1" d="M961.7,144.8c1.6-4,0.7-8.1-2.1-9.2c-2.8-1.1-6.3,1.2-8,5.2c-1.6,4,2.1,9.2,2.1,9.2S960,148.8,961.7,144.8z"
			/>
		<path class="st1" d="M965.2,203.2c-2.8-1.1-6.3,1.2-8,5.2c-1.6,4,2.1,9.2,2.1,9.2s6.3-1.2,8-5.2
			C968.9,208.5,967.9,204.3,965.2,203.2z"/>
		<path class="st1" d="M955.1,170.8c-2.8-1.1-6.3,1.2-8,5.2c-1.6,4,2.1,9.2,2.1,9.2s6.3-1.2,8-5.2
			C958.8,176.1,957.9,171.9,955.1,170.8z"/>
		<path class="st1" d="M1079.6,103.1c4.8,17.3,8,38.2-8.4,60.5c-3.8,5.2-8.6,10-14.3,14.2l-50.5,37.4c-3.3,2.4-6.5,5.3-9.6,8.4
			c-6.4,6.5-19.9,16.4-37.6,9.3c-17.7-7.1-20.5-23.4-20.6-32.5c0-4.6-0.4-8.7-1.1-12.7l-10.2-61.8c-1.1-6.9-1.3-13.6-0.4-20.1
			c3.7-27.3,31.1-44.6,34.9-48c5.6-5-0.7-10.8-6.5-6.1c-6.6,5.3-32.6,24.2-36.5,53c-1,7.3-0.8,14.9,0.4,22.6l10.2,61.8
			c0.6,3.5,0.9,7.3,1,11.4c0.1,9,2.8,30.9,25.8,40.1c5.4,2.2,10.5,3.1,15.3,3.1c15.3,0,26.4-9.3,31.3-14.2c2.8-2.8,5.7-5.4,8.6-7.6
			l50.5-37.4c6.3-4.7,11.7-10.1,16-15.9c18.3-24.7,16.6-45.2,10.4-68C1086.1,92.5,1077.2,94.4,1079.6,103.1z"/>
		<path class="st1" d="M1060.5,129.6c-1.8,0-3.4-1.1-4-2.7c-0.4-1-3-6.2-16.9-13.3c-14.1-7.2-18.1-22.9-19.2-32.1
			c-5.8,2.7-16,7.1-22.7,7.5c-2,0.1-4.7,0.3-7.6,0.4c-6.1,0.3-13.1,0.7-16.1,1.1c-0.2,0-0.4,0-0.6,0c-1.8,0-3.3-1.1-3.9-2.7
			c-0.7-1.9,0-3.9,1.7-5c3.5-2.3,7.9-10,9.3-12.7c4.1-6.3,9.1-10.9,15.3-14c-0.5-0.2-0.9-0.4-1.3-0.6l-8.3-4.2
			c-8.5-5.1-15.4-11.5-17.6-14.4c-1.1-1.5-1.1-3.4-0.1-4.9c0.8-1.2,2.1-1.8,3.5-1.8c0.4,0,0.7,0,1.1,0.1c1.8,0.5,4.6,0.7,8.3,0.7
			c5.5,0,11.5-0.6,14.2-0.9c1.6-0.1,3.1-0.1,4.5-0.1c20.4,0,30.3,6.2,35,11.6c6.2-10.6,12.9-16.9,19.8-18.6c0.3-0.1,0.6-0.1,1-0.1
			c1.8,0,3.4,1.2,3.8,3c0.3,1,0.1,2.1-0.4,3c-0.5,0.9-1.4,1.5-2.4,1.8c-5.4,1.4-10.4,7.7-13.8,13c0.4,0,0.8,0,1.3,0
			c3.1,0,6.5,0.5,10.2,1.3c10.1,2.4,19.7,7.7,27.6,15.2c3,2.8,6.3,6.2,9.2,9.2c3.2,3.2,6.2,6.2,7.3,7.1c1.4,1.1,1.9,3,1.3,4.7
			c-0.6,1.7-2.3,2.8-4.4,2.9c-9.6,0-18.1-0.7-25.4-2.1l-8.1-2.2c7,16.1,4.5,32.2,3.2,40.9c-0.3,1.8-0.6,4-0.6,4.6
			c0.1,1.9-1.1,3.7-3,4.2C1061.1,129.6,1060.8,129.6,1060.5,129.6z M1023.5,71.7c0.6,0,1.2,0.1,1.8,0.4c1.6,0.9,2.4,2.2,2.4,3.8
			c0,2.4,0.8,23.4,15.4,30.8c6.2,3.2,11.2,6.4,14.8,9.7c1.8-12.7,2.1-27.3-7.2-41c-1.1-1.6-1-3.8,0.3-5.3c0.8-0.9,1.9-1.4,3.1-1.4
			c0.7,0,1.3,0.2,1.9,0.5c3.5,1.8,11.5,5.9,30.7,6.9l-1.5-1.5c-2.9-2.9-5.9-6-8.7-8.6c-6.9-6.6-15.2-11.1-24-13.2
			c-3.3-0.8-6.2-1.2-8.6-1.2c-2.6,0-4.7,0.5-6.2,1.3c-1.2,2.8-2.4,5.6-3.1,7.6c-0.5,1.6-2,2.6-3.7,2.6c-0.5,0-0.9-0.1-1.3-0.2
			c-2-0.7-3.1-3-2.4-5c0-0.1,1.4-3.8,3.7-8.7c-1.4-2.3-7.6-11.2-31-11.2c-1.3,0-2.6,0-4,0.1c0,0-7.2,0.9-14.4,0.9
			c6,4.8,16.9,12.2,28.7,12.6c2.2,0.1,4,1.8,4.1,4c0.1,2.2-1.5,4.1-3.7,4.4c-6.8,0.9-16.6,3.3-23.5,14c-0.7,1.3-2.5,4.7-4.9,8.1
			c2.2-0.1,4.6-0.2,6.8-0.4c3.2-0.2,6-0.3,8.1-0.4c7-0.5,21.3-7.3,24.3-9C1022.1,71.8,1022.8,71.7,1023.5,71.7z"/>
	</g>
	<path class="st2" d="M431.4,164.9c-0.2-31.4-24.4-57.3-55-60.4c0.2-0.2,0.5-0.4,0.7-0.6c5.7-4.9,10.1-10.9,13.3-17.7
		c3.6-7.8,5.4-16.9,5.4-26.9c0-4.6-0.4-9.3-1-13.8c-0.1-1-0.7-1.9-1.5-2.5s-1.8-0.8-2.8-0.7c-1,0.1-1.9,0.7-2.5,1.5
		c-0.6,0.8-0.9,1.8-0.7,2.8c0.6,4.2,0.9,8.5,1,12.7c0,11.6-2.7,21.6-8,29.7c-3.4,5.1-7.7,9.4-12.8,12.8c-7.4,5.1-15.4,7.6-20.8,8.9
		c-0.6,0.1-1.2,0.3-1.7,0.4c-5.4-5.1-12.8-7.9-20.5-7.4c0-0.5,0-0.9,0-1.4c0-7.2-2.8-14-7.9-19.2c-5.1-5.1-11.9-7.9-19.1-7.9
		s-14,2.8-19.1,7.9c-2.3,2.3-4.1,4.9-5.4,7.7c-6.2-6.6-15.7-10-25.2-7.9c-14.6,3.1-24,17.4-21,32.1c0.5,2.2,1.2,4.2,2.1,6.1
		c-3.8,1.3-7.3,3.4-10.3,6.5l0,0c-5.1,5.1-7.9,11.9-7.9,19.2c0,5.5,1.7,10.8,4.7,15.2c-9.1,5.8-14.2,16.7-12.1,27.9
		c0.9,4.9,3.2,9.4,6.5,13.1c-2.3,1.2-4.5,2.8-6.4,4.8c-5.1,5.1-7.9,11.9-7.9,19.2c0,7.2,2.8,14,7.9,19.2c5.3,5.3,12.2,7.9,19.1,7.9
		c6.9,0,13.9-2.6,19.1-7.9c1.5-1.5,2.7-3,3.8-4.7c4.3,3.9,9.8,6.3,15.7,6.8c0.8,0.1,1.6,0.1,2.3,0.1c10.9,0,20.6-6.7,24.8-16.4
		c4,2.3,8.5,3.5,13.2,3.5c7.2,0,14-2.8,19.1-7.9c2.6-2.6,4.5-5.5,5.9-8.8c0,0,0.1,0,0.1,0.1c4.5,3.1,9.8,4.7,15.2,4.7
		c1.7,0,3.4-0.2,5.1-0.5c7.1-1.3,13.2-5.4,17.3-11.4c4.1-6,5.6-13.2,4.2-20.3l0-0.2c-0.7-3.8-2.3-7.4-4.5-10.5
		c1.3-0.9,2.5-1.9,3.7-3.1c5.1-5.1,7.9-11.9,7.9-19.2c0-7.2-2.8-14-7.9-19.2c-3.9-3.9-8.7-6.4-14-7.4c0.1-2-0.1-4-0.4-6.1l0-0.1
		c-0.6-2.9-1.6-5.6-2.9-8l0,0c4.7-1.2,10.2-3.1,15.7-6l0,3.9h0c0.7,33,27.9,59.7,61,59.7l4.6,0L431.4,164.9L431.4,164.9z
		 M326.5,110.7c9.4,0,17.9,6.7,19.7,16.3l0,0.2c2,10.8-5.2,21.3-16,23.4c-1.3,0.2-2.6,0.4-3.8,0.3c-3.8-5.1-9.4-8.9-16.1-10.4
		c-0.5-0.1-1-0.2-1.4-0.3c-1-1.8-1.6-3.7-2-5.7c-2.1-10.9,5.1-21.4,16-23.5C324,110.9,325.3,110.7,326.5,110.7L326.5,110.7z
		 M285.7,160.6c2.8-8.2,10.5-13.6,19-13.6c1.4,0,2.7,0.1,4.1,0.4c10.8,2.3,17.8,13,15.5,23.8c-2.3,10.8-12.9,17.8-23.8,15.5
		c-3.3-0.7-6.3-2.2-8.8-4.4C293,174.4,290.6,166.5,285.7,160.6L285.7,160.6z M283.4,88.2L283.4,88.2c3.8-3.8,8.8-5.9,14.2-5.9
		c5.4,0,10.4,2.1,14.2,5.9c3.8,3.8,5.9,8.8,5.9,14.2c0,1-0.1,1.9-0.2,2.9c-8,2.8-14,9.2-16.6,16.9c-0.1,0-0.3,0.1-0.4,0.1
		c-4.4-5.3-10.5-8.7-17.4-9.6c-0.9-0.1-1.9-0.2-2.8-0.2c-1.8-3-2.7-6.5-2.7-10.1C277.5,97.1,279.6,92,283.4,88.2L283.4,88.2z
		 M279.6,119.5c0.9,0,1.7,0.1,2.6,0.2c10.4,1.3,17.9,10.4,17.5,20.8c-8.4,1.6-15.8,7.2-19.5,15.2c-2-1.4-4.3-2.5-6.8-3.3
		c-3.4-1.1-6.9-1.5-10.2-1.3c-2.8-4.1-4-9-3.4-13.9c0.7-5.3,3.4-10.1,7.6-13.4C270.9,121,275.2,119.5,279.6,119.5L279.6,119.5z
		 M284.1,184.3c-1.7,5.1-5.2,9.3-10,11.7c-4.8,2.4-10.2,2.8-15.3,1.2c-5.1-1.7-9.2-5.2-11.7-10c-2.4-4.8-2.9-10.2-1.2-15.3
		c3.4-10.5,14.8-16.3,25.3-12.9C281.7,162.4,287.5,173.7,284.1,184.3L284.1,184.3z M236.6,98.5c2.9-4.5,7.4-7.6,12.7-8.7
		c8.7-1.8,17.2,2.3,21.4,9.6c-0.1,1-0.2,2-0.2,3c0,3.8,0.8,7.5,2.3,10.9c-3.5,0.9-6.8,2.5-9.7,4.8c-3.9,3-6.8,6.9-8.6,11.4
		c-9.7,0.6-18.7-6.1-20.8-15.9C232.7,108.4,233.7,103,236.6,98.5L236.6,98.5z M223.6,132.6c2.7-2.7,6-4.4,9.4-5.3
		c4.9,5.7,12.1,9.1,19.8,9.3c-0.6,5.6,0.5,11.1,3.1,15.9c-4.8,1.7-9.1,4.8-12.3,9c-5.6-3.3-12.2-4.5-18.7-3.3c-1,0.2-2,0.4-2.9,0.7
		c-2.7-3.5-4.2-7.7-4.2-12.2C217.7,141.4,219.8,136.4,223.6,132.6L223.6,132.6z M236.6,241.1c-7.8,7.8-20.5,7.8-28.4,0
		c-3.8-3.8-5.9-8.8-5.9-14.2c0-5.4,2.1-10.4,5.9-14.2l0,0c3.8-3.8,8.8-5.9,14.2-5.9s10.4,2.1,14.2,5.9
		C244.4,220.5,244.4,233.3,236.6,241.1z M236.6,203.8c-4.2-2.6-9.1-4-14.1-4c-1.8,0-3.6,0.2-5.4,0.5c-3.6-3-6-7.1-6.9-11.7
		c-2.1-10.9,5.1-21.4,16-23.5c1.3-0.2,2.5-0.4,3.8-0.4c3.6,0,7,1,10.1,2.8c-0.3,0.7-0.5,1.3-0.8,2l0,0c-3.2,10-0.4,20.4,6.5,27.4
		C243.5,200.1,240.3,202.5,236.6,203.8L236.6,203.8z M261.6,241.2c-5.2-0.4-9.8-2.8-13.2-6.7c2.1-7.3,1.1-15.4-3.1-22.1
		c2-4.1,5.3-7.4,9.4-9.4c0.6,0.3,1.2,0.5,1.9,0.7c2.8,0.9,5.6,1.3,8.4,1.3s5.7-0.5,8.4-1.3c0.4,0.3,0.9,0.5,1.3,0.8
		c-0.2,1.2-0.3,2.4-0.3,3.7c0,7.2,2.8,14,7.9,19.2c0,0,0.1,0.1,0.1,0.1C279.5,236.1,271.1,242,261.6,241.2L261.6,241.2z
		 M315.6,222.5c-3.8,3.8-8.8,5.9-14.2,5.9c-5.4,0-10.4-2.1-14.2-5.9c-3.8-3.8-5.9-8.8-5.9-14.2s2.1-10.4,5.9-14.2
		c1.3-1.3,2.8-2.4,4.3-3.3c2.3,1.3,4.9,2.2,7.5,2.8c1.9,0.4,3.7,0.6,5.6,0.6c3.2,0,6.3-0.6,9.2-1.6c0.3,0.3,0.7,0.6,1,0.9
		c-0.3,2.6-0.2,5.3,0.3,8c0.9,4.5,2.8,8.6,5.6,12.1C319.9,216.8,318.1,219.9,315.6,222.5L315.6,222.5z M358.3,207.7
		c-3,4.4-7.6,7.4-12.8,8.4c-5.3,1-10.6-0.1-15-3.1s-7.4-7.6-8.4-12.9c-1.6-8.4,2.3-16.5,9.1-20.7c5,4.1,11.1,6.2,17.2,6.2
		c3.1,0,6.2-0.5,9.1-1.6c2,2.5,3.3,5.4,3.9,8.6v0.1C362.4,197.9,361.3,203.2,358.3,207.7L358.3,207.7z M362.6,144.3
		c3.8,3.8,5.9,8.8,5.9,14.2s-2.1,10.4-5.9,14.2c-7.8,7.8-20.5,7.8-28.4,0c-1-1-1.9-2.1-2.6-3.2c0.4-4.1-0.2-8.1-1.6-11.8
		c0.5-0.1,1-0.1,1.5-0.2c10.2-1.9,18-9.4,20.8-18.7C356.2,139.5,359.7,141.4,362.6,144.3L362.6,144.3z M349,115.9
		C349,115.9,349.1,115.9,349,115.9C349.1,115.9,349,115.9,349,115.9z M373.3,114.5v-1h0v-1.8c28,1.5,50.5,24.8,50.7,53.2l0,2.7
		C395.9,166.2,373.5,142.9,373.3,114.5L373.3,114.5z"/>
	<path class="st2" d="M181.4,117.8c-6.7-29.2-28.7-60.4-70.3-60.9l0.7-9.4c0.6-7.6,1.1-15,1.7-22.4c0.3-4.4,0.3-6.6-0.9-8
		c-1.3-1.4-3.5-1.6-8.1-1.7c-0.9,0-1.8,0-2.7-0.1c-3.8,0-8.1-0.1-10.4-2C72.4-2.5,48.6-0.2,29.2,19.2c-1.9,1.9-2.7,3.6-2.6,5.3
		c0.2,1.8,1.4,3.4,4,5.2c22.1,15.4,41.5,16.4,61,3.1l1,21.9c-16.3-3.8-31.4-1.5-46.1,6.9c-35.1,20-52.9,60-44.4,99.6
		c4.4,20.6,15,38.4,30.5,51.4c15.5,13,34.9,20.3,56,21.1c1.4,0.1,2.9,0.1,4.3,0.1c37,0,68.5-19.3,82.8-51
		C184.8,162.6,186.7,140.8,181.4,117.8L181.4,117.8z M102.5,25.5c0.1,0.1,0.2,0.2,0.4,0.3c0.4,0.4,1,1,1,1.2
		c-0.4,6.1-0.9,12.3-1.4,18.3l-0.4,4.6h-0.2c-0.1-1.6-0.2-3.2-0.3-4.8c-0.3-5.8-0.7-11.8-0.8-17.7c0-0.4,0.7-1,1.2-1.5
		C102.2,25.8,102.3,25.6,102.5,25.5L102.5,25.5z M121.1,90.1l0.7,0.5l0.3-0.8c0.2-0.7,0.6-1.4,0.9-2.1c0.8-1.7,1.7-3.4,1.2-4.8
		c-1.6-4.2-3.6-8.2-5.7-12.4c-0.6-1.3-1.3-2.5-1.9-3.8c13.7,0.8,25.7,6.2,34.6,15.6c23.8,24.9,29.9,55.1,18.4,89.7
		c-10.2,30.4-33.4,48.2-67.3,51.4c-45.1,4.3-81.6-21.6-90.9-64.4c-7.7-35.7,8.4-71.7,40.3-89.5c8.6-4.8,17.4-7.2,26.1-7.2
		c5.5,0,10.9,0.9,16.4,2.8c11.6,4,18.4,10.6,21.5,20.5c0.4,1.4,2.1,2.4,3.7,3.3C119.9,89.3,120.6,89.7,121.1,90.1L121.1,90.1z
		 M86.9,23.2c-12.2,12.4-32,12.6-47.6,0.4c6.4-7.1,14.6-11.1,23.2-11.2C71.3,12.2,79.9,16,86.9,23.2L86.9,23.2z"/>
	<g class="st3">
		<path class="st1" d="M804.6,30.4V9.2h29.5c2.5,0,4.6-2.1,4.6-4.6S836.6,0,834.1,0h-69.3c-2.5,0-4.6,2.1-4.6,4.6s2.1,4.6,4.6,4.6
			h30.6v21.2c-54.1,2.4-97.4,47.3-97.4,102.1s45.8,102.2,102,102.2c56.3,0,102-45.9,102-102.2S858.7,32.8,804.6,30.4L804.6,30.4z
			 M800,225.5c-51.2,0-92.8-41.7-92.8-93s41.6-93,92.8-93c51.2,0,92.8,41.7,92.8,93S851.2,225.5,800,225.5z"/>
		<path class="st1" d="M870.4,142.7l-9-9l9-9c1.8-1.8,1.8-4.7,0-6.5c-1.8-1.8-4.7-1.8-6.5,0l-9,9l-20.3-20.4l18.7-18.7
			c1.8-1.8,1.8-4.7,0-6.5c-1.8-1.8-4.7-1.8-6.5,0l-18.7,18.7l-19.7-19.7l9-9c1.8-1.8,1.8-4.7,0-6.5c-1.8-1.8-4.7-1.8-6.5,0l-9,9
			l-9-9c-1.8-1.8-4.7-1.8-6.5,0c-1.8,1.8-1.8,4.7,0,6.5l9,9l-20,20l-19.3-19.3c-1.8-1.8-4.7-1.8-6.5,0c-1.8,1.8-1.8,4.7,0,6.5
			l19.2,19.3l-20,20l-9-9c-1.8-1.8-4.7-1.8-6.5,0c-1.8,1.8-1.8,4.7,0,6.5l9,9l-9,9c-1.8,1.8-1.8,4.7,0,6.5c0.9,0.9,2.1,1.4,3.3,1.4
			c1.2,0,2.4-0.5,3.3-1.4l9-9l19.7,19.7l-17.4,17.4c-1.2,0.8-1.9,2.2-1.9,3.8c0,2.5,2.1,4.6,4.7,4.6c1.2,0,2.4-0.5,3.3-1.4l17.9-18
			l20.3,20.4l-9,9c-1.8,1.8-1.8,4.7,0,6.5c0.9,0.9,2.1,1.4,3.3,1.4c1.2,0,2.4-0.5,3.3-1.4l9-9l9,9c0.9,0.9,2.1,1.4,3.3,1.4
			c1.2,0,2.4-0.5,3.3-1.4c1.8-1.8,1.8-4.7,0-6.5l-9-9l20-20l17.3,17.3c0.9,0.9,2.1,1.4,3.3,1.4c1.2,0,2.4-0.5,3.3-1.4
			c1.8-1.8,1.8-4.7,0-6.5L835,160.3l20-20l9,9c0.9,0.9,2.1,1.4,3.3,1.4c1.2,0,2.4-0.5,3.3-1.4C872.3,147.4,872.3,144.5,870.4,142.7
			L870.4,142.7z M802,87.2l19.7,19.7l-20,20L782,107.2L802,87.2z M755.5,133.7l20-20l19.7,19.7l-20,20L755.5,133.7L755.5,133.7z
			 M802,180.3L781.6,160l20-20l20.3,20.3L802,180.3z M828.5,153.8l-20.3-20.3l20-20l20.3,20.4L828.5,153.8L828.5,153.8z"/>
	</g>
	<g class="st3">
		<path class="st1" d="M658.2,108.6c-10.3-15.9-24.2-26-39.4-28.6c-7.1-1.2-14-0.9-20.3,0.8c-2.3,0.6-3.7,3-3,5.3
			c0.6,2.3,3,3.6,5.3,3c5.2-1.4,10.7-1.6,16.6-0.6c12.5,2.1,24.8,11.2,33.6,24.8c12.4,19.2,16.4,44.2,10.6,66.9
			c-6.5,25.4-23.1,48.3-41.3,57c-10.1,4.8-19.9,5.1-29.2,0.9c-8.9-4-19.1-4.1-28,0c-9.3,4.2-19.1,3.9-29.2-0.9
			c-18.2-8.7-34.7-31.6-41.3-57c-5.8-22.6-1.9-47.6,10.6-66.9c8.8-13.6,21.1-22.6,33.6-24.8c6.2-1,12.1-0.8,17.5,0.9
			c2.3,0.7,4.7-0.6,5.4-2.9c0.7-2.3-0.6-4.7-2.9-5.4c-6.7-2-13.9-2.4-21.4-1.1c-15.1,2.6-29.1,12.7-39.4,28.6
			c-13.7,21.2-18.1,48.8-11.7,73.7c7.2,28.2,25.3,52.7,45.9,62.6c12.3,5.9,24.9,6.2,36.5,1c6.6-3,14.2-3,20.8,0
			c5.5,2.5,11.1,3.7,16.9,3.7c6.5,0,13.1-1.6,19.6-4.7c20.7-9.9,38.7-34.5,45.9-62.6C676.3,157.4,671.9,129.8,658.2,108.6
			L658.2,108.6z"/>
		<path class="st1" d="M556.5,102.6c-1.6-1.8-4.3-2-6.1-0.4c-1.8,1.6-2,4.3-0.4,6.1c0.2,0.2,10.6,11.9,26.5,11.9
			c7.9,0,17.2-2.9,27.3-11.4c1.8-1.5,2.1-4.3,0.5-6.1c-1.5-1.8-4.3-2-6.1-0.5c-6.6,5.6-12.7,8.2-18.1,9c0-0.3,0.1-0.7,0-1.1
			c0-0.2-2.2-22,10.8-37.7c1.5-1.8,1.3-4.6-0.6-6.1c-1.8-1.5-4.6-1.3-6.1,0.6c-15.2,18.4-12.9,42.5-12.8,44.1
			C562.4,109.2,556.9,103,556.5,102.6L556.5,102.6z"/>
		<path class="st1" d="M522.5,126.8v3.4c0,2.4,1.9,4.3,4.3,4.3s4.3-1.9,4.3-4.3v-3.4c0-2.4-1.9-4.3-4.3-4.3S522.5,124.4,522.5,126.8
			z"/>
		<path class="st1" d="M547.8,156.5v-3.4c0-2.4-1.9-4.3-4.3-4.3c-2.4,0-4.3,1.9-4.3,4.3v3.4c0,2.4,1.9,4.3,4.3,4.3
			C545.9,160.9,547.8,158.9,547.8,156.5z"/>
		<path class="st1" d="M570.9,144.2v3.4c0,2.4,1.9,4.3,4.3,4.3c2.4,0,4.3-1.9,4.3-4.3v-3.4c0-2.4-1.9-4.3-4.3-4.3
			C572.8,139.9,570.9,141.8,570.9,144.2z"/>
		<path class="st1" d="M596.7,179.5v3.4c0,2.4,1.9,4.3,4.3,4.3c2.4,0,4.3-1.9,4.3-4.3v-3.4c0-2.4-1.9-4.3-4.3-4.3
			C598.6,175.2,596.7,177.1,596.7,179.5z"/>
		<path class="st1" d="M536.6,188c-2.4,0-4.3,1.9-4.3,4.3v3.4c0,2.4,1.9,4.3,4.3,4.3c2.4,0,4.3-1.9,4.3-4.3v-3.4
			C540.9,189.9,539,188,536.6,188z"/>
		<path class="st1" d="M622.5,134.9v-2.6c0-2.4-1.9-4.3-4.3-4.3s-4.3,1.9-4.3,4.3v2.6c0,2.4,1.9,4.3,4.3,4.3
			S622.5,137.3,622.5,134.9z"/>
	</g>
</g>
</svg>
