<?xml version="1.0" encoding="utf-8"?>
<!-- Generator: Adobe Illustrator 27.8.1, SVG Export Plug-In . SVG Version: 6.00 Build 0)  -->
<svg version="1.1" id="レイヤー_1" xmlns="http://www.w3.org/2000/svg" xmlns:xlink="http://www.w3.org/1999/xlink" x="0px"
	 y="0px" viewBox="0 0 1100 263" style="enable-background:new 0 0 1100 263;" xml:space="preserve">
<style type="text/css">
	.st0{opacity:0.7;}
	.st1{fill:#CCCCCC;}
</style>
<g>
	<g class="st0">
		<path class="st1" d="M655.5,61.7c-1.9-1.5-4.6-1.2-6.1,0.7c-1.5,1.9-1.2,4.6,0.7,6.1c15.5,12.5,23.4,30,23.4,51.9
			c0,39.1-10.6,75.3-87.6,75.3c-61.4,0-87.6-22.5-87.6-75.3c0-22.6,8.3-40.4,24.8-53c1.9-1.5,2.3-4.2,0.8-6.1
			c-1.5-1.9-4.2-2.3-6.1-0.8c-18.4,14.1-28.2,34.8-28.2,59.9c0,57.3,30.6,84,96.3,84s96.3-25.1,96.3-84
			C682.1,96.1,672.9,75.8,655.5,61.7L655.5,61.7z"/>
		<path class="st1" d="M533.6,98.2c0.7,0.9,1.7,1.6,2.9,1.7c3.8,0.6,7.3,0.8,10.7,0.8c19.9,0,32.8-8.9,38.5-13.8
			c5.7,5,18.6,13.8,38.5,13.8c3.4,0,6.9-0.3,10.7-0.8c1.2-0.2,2.2-0.8,2.9-1.7c0.7-0.9,1-2.1,0.8-3.3c-0.1-0.7-2.7-16.2-10.2-27.5
			c4.6-4.9,12.3-14.7,9.6-22.5c-0.5-1.6-1.9-2.7-3.6-2.9c-1.2-0.1-29-3.4-48.7,3.2C566,38.6,538.2,41.9,537,42
			c-1.7,0.2-3,1.3-3.6,2.9c-2.7,7.8,5,17.6,9.6,22.5c-7.4,11.4-10,26.8-10.2,27.5C532.7,96.1,533,97.3,533.6,98.2L533.6,98.2z
			 M552.1,69.7c1.4-1.8,1.3-4.3-0.4-5.9c-4.4-4.1-8.6-9.8-9.9-13.5c8.3-0.7,28.4-1.5,42.4,3.6c0.4,0.2,0.8,0.2,1.3,0.2
			c0.1,0,0.2,0,0.3,0c0.1,0,0.3,0,0.4,0c0.4,0,0.8-0.1,1.2-0.2c13.9-5.1,34-4.2,42.3-3.6c-1.2,3.7-5.5,9.4-9.9,13.5
			c-1.7,1.6-1.8,4.1-0.4,5.9c5.3,6.5,8.3,16.5,9.7,22.2c-26,2.1-39.4-13.1-40-13.8c-0.1-0.2-0.3-0.3-0.5-0.5c0,0,0,0,0,0l0,0
			c-0.2-0.2-0.5-0.3-0.7-0.5c0,0,0,0,0,0c-0.2-0.1-0.5-0.2-0.8-0.3c0,0,0,0,0,0c-0.3-0.1-0.5-0.1-0.8-0.2c0,0,0,0,0,0
			c-0.3,0-0.5,0-0.8,0c0,0,0,0-0.1,0c-0.2,0-0.5,0.1-0.7,0.1c0,0-0.1,0-0.1,0c-0.2,0.1-0.4,0.1-0.6,0.2c-0.1,0-0.2,0.1-0.2,0.1
			c-0.2,0.1-0.3,0.2-0.4,0.3c-0.1,0.1-0.2,0.1-0.3,0.2c0,0-0.1,0-0.1,0.1c-0.1,0.1-0.2,0.2-0.3,0.3c-0.1,0.1-0.2,0.1-0.2,0.2
			c-0.6,0.7-14.1,15.9-40,13.8C543.8,86.2,546.8,76.3,552.1,69.7L552.1,69.7z"/>
		<path class="st1" d="M580.5,68.7h10.3c2.4,0,4.4-2,4.4-4.3c0-2.4-2-4.3-4.4-4.3h-10.3c-2.4,0-4.3,2-4.3,4.3
			C576.2,66.7,578.1,68.7,580.5,68.7z"/>
	</g>
	<g class="st0">
		<path class="st1" d="M185,113.3c-9.4-14.7-24.7-24.5-43.2-27.7c-7.5-1.3-14.7-1-21.4,0.9c-2.4,0.7-3.7,3.1-3.1,5.4
			c0.7,2.3,3.1,3.7,5.4,3.1c5.5-1.5,11.4-1.7,17.6-0.7c15.9,2.7,29.2,11.1,37.2,23.7c10.7,16.8,12.4,40.4,4.9,68.4
			c-7.3,27.2-29.4,55.8-50.3,64.9c-5.3,2.3-13,4.4-19.4,1c-9.9-5.2-21.5-5.1-30.1,0.1c-5,3-11.8,1.3-16.6-0.7
			c-19.3-7.9-45-35.1-52.9-65.4c-7.3-28-5.4-51.8,5.6-68.7c8-12.5,21-20.8,36.5-23.4c6.6-1.1,12.8-0.8,18.5,0.9
			c2.4,0.7,4.8-0.6,5.5-2.9c0.7-2.3-0.6-4.8-2.9-5.5c-7.1-2.1-14.6-2.6-22.6-1.2c-18,3.1-33.1,12.8-42.5,27.3
			C-1,132-3.3,158.2,4.6,188.7c8.6,33,36.8,62.7,58.1,71.4c4.8,2,9.3,2.9,13.4,2.9c4.1,0,7.8-1,11-2.9c6-3.7,14.3-3.6,21.5,0.1
			c7.6,3.9,16.9,3.7,27-0.8c23.4-10.3,47.2-40.7,55.3-70.7C199.2,158.3,197.1,132.2,185,113.3L185,113.3z"/>
		<path class="st1" d="M75.9,109.4c-1.6-1.8-4.4-2-6.2-0.4c-1.8,1.6-2.1,4.4-0.5,6.2c0.2,0.2,11.1,12.5,27.9,12.5
			c8.3,0,18.1-3,28.7-12c1.9-1.6,2.1-4.4,0.5-6.2c-1.6-1.9-4.4-2.1-6.2-0.5c-7,5.9-13.4,8.7-19.1,9.5c0.1-0.5,0.1-1.1,0-1.7
			c-0.3-1.5-7.3-37.5,24.4-57.8c2.1-1.3,2.7-4.1,1.3-6.1c-1.3-2.1-4.1-2.7-6.1-1.3c-35.4,22.7-28.9,63.3-28.3,66.8
			C82.5,116.6,76.4,109.9,75.9,109.4z"/>
	</g>
	<g class="st0">
		<path class="st1" d="M764.8,185.1c-2.4,0.4-4,2.7-3.6,5.1c0.4,2.3-4.4,7-9,9.7c-2.1,1.2-2.8,3.9-1.6,6c0.8,1.4,2.3,2.2,3.8,2.2
			c0.8,0,1.5-0.2,2.2-0.6c2.5-1.4,15-9.1,13.3-18.8C769.4,186.3,767.2,184.7,764.8,185.1L764.8,185.1z"/>
		<path class="st1" d="M771.6,138.2c-2.6,3.1-11.1,14-8.9,21.9c0.5,2,2.3,3.2,4.2,3.2c0.4,0,0.8-0.1,1.2-0.2
			c2.3-0.6,3.7-3.1,3.1-5.4c-0.6-2.3,3.3-9.2,7.2-13.9c1.6-1.9,1.3-4.6-0.5-6.2C776,136.2,773.2,136.4,771.6,138.2L771.6,138.2z"/>
		<path class="st1" d="M855.8,79.3c-4.6-1.3-11.8,2.3-14.7,3.8c-2.1,1.2-2.9,3.8-1.8,6c0.8,1.5,2.3,2.3,3.9,2.3
			c0.7,0,1.4-0.2,2.1-0.5c3.1-1.7,7.2-3.3,8.2-3.1c2.3,0.6,4.8-0.8,5.4-3.1C859.6,82.4,858.2,79.9,855.8,79.3L855.8,79.3z"/>
		<path class="st1" d="M822.4,127.8c-4.5,1.7-8.3,8.7-9.7,11.7c-1.1,2.2-0.1,4.8,2.1,5.9c0.6,0.3,1.3,0.4,1.9,0.4
			c1.6,0,3.2-0.9,4-2.5c1.6-3.2,3.9-6.7,4.8-7.3c2.3-0.8,3.4-3.4,2.6-5.7C827.3,128.1,824.7,126.9,822.4,127.8L822.4,127.8z"/>
		<path class="st1" d="M895,49.6c-4.4-2.6-10.7-0.5-20.7,3.1c-3.6,1.3-7.7,2.8-9.4,2.9c-45.1,2.5-99.1,61.7-134.7,100.9
			c-8.7,9.6-16.3,17.9-21.9,23.2c-22.7,21.8-23,34.2-23.3,44.2c-0.1,1.8-0.1,3.5-0.3,5.2c-0.4,3.9-5.3,13.9-8.2,19.3
			c-0.7,1.3-0.7,2.8,0,4.1c0.6,1.1,3.8,6.8,9.1,8.2c0.8,0.2,1.6,0.3,2.5,0.3c1.8,0,3.6-0.5,5.3-1.6c7.1-4.5,14.1-5.1,22.2-5.8
			c12.3-1,26.3-2.2,44.2-16.6c25.9-20.9,132.4-130.2,134.9-152.8c0.8-7.3,3-12.2,4.8-16.1C902.1,62.2,905.1,55.6,895,49.6L895,49.6z
			 M891.4,64.4c-1.9,4.3-4.6,10.1-5.5,18.8c-1.8,16.5-98.4,120.1-131.7,146.9c-15.8,12.7-27.8,13.7-39.4,14.7
			c-8.5,0.7-17.3,1.5-26.2,7.2c-0.5,0.3-0.6,0.3-0.7,0.2c-0.7-0.2-1.6-1.1-2.4-2c2.4-4.7,7.4-14.7,8-20.2c0.2-2,0.3-3.9,0.3-5.9
			c0.3-9.2,0.6-18.8,20.6-38.1c5.8-5.6,13.4-13.9,22.3-23.6c32.6-35.8,87.2-95.7,128.7-98c3-0.2,7.1-1.7,11.9-3.4
			c4-1.5,11.5-4.2,13.2-3.8C892.7,58.5,893,60.9,891.4,64.4L891.4,64.4z"/>
	</g>
	<g class="st0">
		<path class="st1" d="M440.3,99.4c-5.8-7.4-25.4-6.1-47.7,3.1c-7.2,3-14.3,5.4-21.3,7.8c-22.1,7.6-42.9,14.7-64.8,37
			c-18.3,18.6-24.2,33.9-28.4,45c-2.4,6.1-4,10.6-7,13.4c-5.5,5.3-3.6,9.7-2.6,11.3c2.6,4,9,5.4,15.5,5.4c4.9,0,9.8-0.9,12.9-2.2
			c5.2-2.2,10.2-2,17.9-1.8c3.9,0.1,8.3,0.2,13.5,0.1c26.9-0.9,55.6-23.6,76.5-40.2l5.4-4.3c15.1-11.8,20.5-32.7,24.4-48
			c1.8-6.8,3.4-13.2,5.2-15.7C442.5,106.6,442.7,102.5,440.3,99.4L440.3,99.4z M432.8,105.2c-2.8,3.8-4.5,10.4-6.6,18.7
			c-3.6,14.1-8.6,33.3-21.3,43.3l-5.5,4.3c-20,15.8-47.3,37.5-71.3,38.3c-5,0.2-9.2,0.1-13-0.1c-8.1-0.2-14.5-0.4-21.5,2.5
			c-5,2.1-14,1.8-17,0.4c0.2-0.2,0.4-0.4,0.6-0.7c4.3-4.2,6.5-9.9,9-16.6c4-10.4,9.4-24.8,26.5-42c20.5-20.8,40.4-27.6,61.5-34.9
			c7-2.4,14.3-4.9,21.7-8c22-9.1,35.8-7.8,37.4-6.3C433.3,104.2,433.3,104.5,432.8,105.2L432.8,105.2z"/>
		<path class="st1" d="M347.8,174.1c-1.9-1.5-4.6-1.2-6.1,0.7c-1.8,2.2-10.7,3.3-17.4,2.8c-2.5-0.1-4.5,1.6-4.7,4
			c-0.2,2.4,1.6,4.5,4,4.7c0.8,0.1,2.4,0.2,4.4,0.2c6.1,0,16.3-0.9,20.5-6.2C350,178.3,349.7,175.6,347.8,174.1L347.8,174.1z"/>
		<path class="st1" d="M394.4,133.4c-4.1-3-12.7-2.4-16.2-1.9c-2.4,0.3-4.1,2.5-3.8,4.8c0.3,2.4,2.4,4.1,4.8,3.8
			c4.1-0.5,8.9-0.4,10,0.2c0.8,0.6,1.7,0.9,2.6,0.9c1.3,0,2.6-0.6,3.5-1.8C396.7,137.6,396.3,134.9,394.4,133.4L394.4,133.4z"/>
		<path class="st1" d="M285.9,104.6c-1.9-1.5-4.6-1.2-6.1,0.7c-1.8,2.2-10.7,3.3-17.4,2.8c-2.4-0.1-4.5,1.6-4.7,4
			c-0.2,2.4,1.6,4.5,4,4.7c0.8,0.1,2.4,0.2,4.4,0.2c6.1,0,16.3-0.9,20.5-6.2C288.1,108.8,287.8,106.1,285.9,104.6L285.9,104.6z"/>
		<path class="st1" d="M313.7,38.8c-5.1-0.8-12.2,4.1-15.1,6.2c-1.9,1.4-2.4,4.1-1,6.1c0.9,1.2,2.2,1.8,3.5,1.8
			c0.9,0,1.8-0.3,2.6-0.8c3.3-2.4,7.6-4.6,8.8-4.6c2.3,0.3,4.6-1.3,4.9-3.7C317.7,41.3,316.1,39.1,313.7,38.8L313.7,38.8z"/>
		<path class="st1" d="M307.4,119.7c34.3-36.1,49.4-61.3,49-81.7c-0.2-8.2,1.5-13.9,2.9-18.5c2.1-6.9,4.2-14-7.2-18.9
			c-5.7-2.4-15.5,1.8-30.4,10l-2.5,1.4c-0.8,0.4-2.5,1.1-4.8,2c-15,5.8-54.9,21.2-71,52c-18.5,35.3-18.4,43.1-18.1,56.3
			c0.1,4.4-3.8,16.1-6.2,22.4c-0.5,1.4-0.3,2.9,0.5,4.1c0.5,0.7,4.8,6.7,10.8,7.5c0.4,0.1,0.9,0.1,1.3,0.1c2.4,0,4.6-0.9,6.6-2.5
			c7.2-6,14.8-7.7,23.6-9.7C275,141.2,290,137.9,307.4,119.7L307.4,119.7z M260,135.7c-9.5,2.1-18.6,4.1-27.4,11.5
			c-0.6,0.5-1,0.5-1.2,0.5c-1-0.1-2.3-1.1-3.4-2.2c1.9-5.3,6-17.3,5.9-23.5c-0.3-11.9-0.4-18.5,17.1-51.8
			c14.6-27.9,52.3-42.4,66.5-47.9c2.8-1.1,4.8-1.9,5.8-2.4l2.6-1.4c15.9-8.7,21.3-10,22.8-9.6c2.8,1.2,3.6,4,2.3,8.4
			c-1.5,4.9-3.5,11.6-3.3,21.2c0.5,23.3-26.3,54.2-46.6,75.5C285.6,130,272.6,132.9,260,135.7L260,135.7z"/>
	</g>
	<g class="st0">
		<path class="st1" d="M1040.2,111.3c-10.7,0-21.6-2.6-32.5-7.7c-1.1-0.5-1.8-1.5-2-2.7c-0.1-1.2,0.3-2.4,1.3-3.1
			c0.4-0.3,9.4-7.5,23.7-12.6c19-6.8,38.4-6.6,56,0.7c1.1,0.4,1.9,1.4,2.1,2.5c0.2,1.1-0.1,2.3-1,3.1c-9.7,9.4-21.5,15.8-34.1,18.4
			C1049.2,110.9,1044.7,111.3,1040.2,111.3z M1016.2,99.8c29.8,11.4,51.6-0.5,62.6-9.5c-14.6-4.7-29.9-4.3-45.6,1.3
			C1025.9,94.2,1020,97.4,1016.2,99.8z"/>
		<path class="st1" d="M1007.4,98.5c-1-1.8-5.9-5.4-10.9-5.4c-6.7,0-11.9,4.1-11.9,9.4c0,7.3,9.1,7.9,11.9,7.9c2.5,0,9.7,0,11.4-4.8
			C1008.5,103.9,1009,101.4,1007.4,98.5z M996.5,104.6c-2.3,0-6.2-0.4-6.2-2.1c0-1.7,2.5-3.7,6.2-3.7c3.6,0,6.2,1.9,6.2,3.7
			C1002.7,104.2,998.8,104.6,996.5,104.6z"/>
		<path class="st1" d="M1078.7,110.6c-6.1-5.9-11.9,1.3-5.6,6.6c6.8,5.7,18.3,24.1,18.3,45.1c0,21.1-9.4,39.2-27.3,52.3
			c-17.2,12.6-41.2,19.6-67.6,19.6s-50.3-7-67.6-19.6c-17.8-13.1-27.3-31.2-27.3-52.3c0-21.2,9.4-39.6,27.3-53
			c17.4-13.1,41.1-22.1,73.7-19.2c9.9,0.9,9.9-8.1,2.5-8.7c-39.5-3.4-62.6,6.8-81.4,21c-19.8,14.9-30.8,36.2-30.8,59.9
			c0,24,10.7,44.5,30.8,59.3c18.7,13.7,44.5,21.3,72.7,21.3s54-7.6,72.7-21.3c20.1-14.8,30.8-35.3,30.8-59.3
			C1100,140,1088.2,119.8,1078.7,110.6z"/>
		<path class="st1" d="M1055.6,178.1c2.4,0,4.3-1.9,4.3-4.3c0-2.4-1.9-4.3-4.3-4.3c-2.4,0-4.3,1.9-4.3,4.3
			C1051.3,176.2,1053.2,178.1,1055.6,178.1z"/>
		<circle class="st1" cx="1049.5" cy="191.9" r="4.3"/>
		<path class="st1" d="M1082.7,162.3c0-2.4-1.9-4.3-4.3-4.3c-2.4,0-4.3,1.9-4.3,4.3c0,2.4,1.9,4.3,4.3,4.3
			C1080.8,166.6,1082.7,164.7,1082.7,162.3z"/>
		<path class="st1" d="M1042.7,214.3c2.4,0,4.3-1.9,4.3-4.3c0-2.4-1.9-4.3-4.3-4.3c-2.4,0-4.3,1.9-4.3,4.3
			C1038.4,212.3,1040.3,214.3,1042.7,214.3z"/>
		<path class="st1" d="M1013.1,223.7c2.4,0,4.3-1.9,4.3-4.3c0-2.4-1.9-4.3-4.3-4.3c-2.4,0-4.3,1.9-4.3,4.3
			C1008.8,221.8,1010.7,223.7,1013.1,223.7z"/>
		<path class="st1" d="M1027.6,189.9c2.4,0,4.3-1.9,4.3-4.3c0-2.4-1.9-4.3-4.3-4.3c-2.4,0-4.3,1.9-4.3,4.3
			C1023.4,187.9,1025.3,189.9,1027.6,189.9z"/>
		<path class="st1" d="M1028.3,201.4c-2.4,0-4.3,1.9-4.3,4.3c0,2.4,1.9,4.3,4.3,4.3c2.4,0,4.3-1.9,4.3-4.3
			C1032.6,203.3,1030.7,201.4,1028.3,201.4z"/>
		<path class="st1" d="M1065.6,186.8c0,2.4,1.9,4.3,4.3,4.3c2.4,0,4.3-1.9,4.3-4.3c0-2.4-1.9-4.3-4.3-4.3
			C1067.5,182.5,1065.6,184.4,1065.6,186.8z"/>
		<path class="st1" d="M1063.7,158.1c2.4,0,4.3-1.9,4.3-4.3c0-2.4-1.9-4.3-4.3-4.3c-2.4,0-4.3,1.9-4.3,4.3
			C1059.4,156.1,1061.4,158.1,1063.7,158.1z"/>
		<path class="st1" d="M1069.2,142.1c2.4,0,4.3-1.9,4.3-4.3c0-2.4-1.9-4.3-4.3-4.3c-2.4,0-4.3,1.9-4.3,4.3
			C1064.9,140.2,1066.9,142.1,1069.2,142.1z"/>
		<path class="st1" d="M987.9,215.1c-2.4,0-4.3,1.9-4.3,4.3c0,2.4,1.9,4.3,4.3,4.3c2.4,0,4.3-1.9,4.3-4.3
			C992.2,217,990.3,215.1,987.9,215.1z"/>
	</g>
</g>
</svg>
