<?xml version="1.0" encoding="UTF-8"?>
<svg id="_レイヤー_2" data-name="レイヤー 2" xmlns="http://www.w3.org/2000/svg" viewBox="0 0 375.01 268.01">
  <defs>
    <style>
      .cls-1 {
        fill: none;
      }

      .cls-2 {
        fill: #c2a26b;
      }

      .cls-3 {
        fill: #e6e6e6;
        opacity: .7;
      }
    </style>
  </defs>
  <g id="m">
    <g>
      <g>
        <path class="cls-1" d="m354.48,103.33c-.2.11-.47.26-.76.42.29-.16.56-.31.77-.42,0,0,0,0,0,0Z"/>
        <path class="cls-1" d="m352.53,103.54c-.69,0-1.42-.05-1.85.42-.3.73-1.1.64-1.42-.11,0,2.7,2.98.54,4.43-.1-.24.16-.53-.22-1.17-.22Z"/>
        <path class="cls-1" d="m338.39,95.32c.63,1.64,3.06-1.11,4.19-1.33,0,.75-.34.9-.54,1.33h.97c.37,1.22,1.53.28,2.2.11,1.17,0,1.75.69,2.78.69v.64c-2.22.03-4.6.1-5.31,2.56.49-.31.69-.75,1.17-.75-.83,1.18-1.22,3.9-1.22,5.29.67,2.28,2.33.46,2.1-1.22.12-.98-.34-3.59.53-4.04,1.78-.12.96-1.41,1.76-1.41,2,.55,2.64,1.56,1.66,3.58.58,0,.49-.21.98-.37.19.85.2,1.23.68,1.65h0c.68,0,1.12-2.56,1.32-3.42,1.85,2.26,2.64-.47.54-1.49h-1.27c-1.66-1.01-4.3-.75-4.24-3.42-.3-.35-2.22-2.29-2.83-2.03,0,.1.05.53-.05.75-.88-1.26-1.03-1.82-1.95-.05-1.92.31-3.1.8-5.07,3.31.58.12,1.12-.24,1.61-.38Z"/>
        <path class="cls-1" d="m353.99,102.05c1.55-.26,5,.72,5.12-1.55.01,0,.05-.04.1-.09-.05.05-.09.09-.1.09-.83.12-6.08.65-4.96,1.89-.05-.13-.11-.25-.16-.34Z"/>
        <path class="cls-1" d="m304.34,25.19c.31.06.59.11.75.12-.26-.06-.51-.09-.75-.12Z"/>
        <path class="cls-1" d="m280.67,73.26c-.13-.43-.45-.56-.58-.74.9.59.73,2.29,1.78,2.92-.72-.47-.96-1.51-1.2-2.18Z"/>
        <path class="cls-1" d="m278.97,70.88c-.72-.96-1.39-1.58-2.39-2.69,1,1.1,1.67,1.73,2.39,2.69Z"/>
        <path class="cls-1" d="m282.67,75.75c-.23-.18-.54-.19-.79-.3.25.11.56.12.79.3Z"/>
        <path class="cls-1" d="m274.29,69.8c-.41,0-.83-.25-1.21-.59.9.9,1.7.69,2.17-.44-.32.41-.45,1.04-.96,1.04Z"/>
        <path class="cls-1" d="m89.47,155.79c-.06.16-.13.33-.21.51h0c.08-.18.14-.35.2-.51Z"/>
        <path class="cls-1" d="m89.61,155.43c.18-.5.35-.98.63-1.64-.28.65-.45,1.13-.63,1.64Z"/>
        <path class="cls-1" d="m21.6,106.48c-.78.42-.78,1.7-1.36,2.56-.78-.32-1.07,0-.05.8.39.64-.04,1.07.24,1.71.24.59.87.27,1.41.37,1.18,1.82,3.51,1.39,5.36.96v-.96c-1.21-1.34,1.14-3.73-1.85-4.59.15-1.65,1.37-1.32,2.43-1.34,0-.8-.77-1.23-.83-2.03-.34.06-1.27.59-1.66.8-.03-2.75-2.4-3.78-3.36-6.14.15.06,2.09-1.33,3.41-1.33.88,0,1.85.59,2.58-.05-1.72-4.57-6.17-2.86-9.55-1.28-.25.32-1.17,2.3-1.17,2.56,1.21,2.44,2,6.45,4.39,7.96Z"/>
        <path class="cls-1" d="m.87,125.19s0-.04,0-.06l-.03-.06s.02.08.02.13Z"/>
        <path class="cls-1" d="m90.5,153.48c.31-.4.01-.76-.13-1.54.14.79.44,1.14.13,1.54Z"/>
        <path class="cls-3" d="m119.1,186.04c-1.69-.32-1.98.93-.15.91-.13.64.66,1.03.88.32,0-.64-.73-.48-.73-1.23Z"/>
        <path class="cls-3" d="m116.32,184.54c0,.16-.05.27-.05.43-2.85-1.02-1.71,1.84.4.16.19.16.58.26.82.21-.1-.1,0-.37,0-.8h-1.17Z"/>
        <path class="cls-3" d="m123.51,155.25c-.23.04-.47,1.2-.47,1.34-1.01.09.33,1.44.56,1.5.55-.19.07-.38.05-.84.05-.64,1.22-2.03-.14-2Z"/>
        <path class="cls-3" d="m120.83,153.07c.79-.6.13-1.5-.82-1.79h-.44s1,1.78,1.26,1.79Z"/>
        <path class="cls-3" d="m125.88,186.15c.78,0,2.39-.43,2.88-1.23-.66-.33-3.08-.16-3.32.91-.73.26-1.66.26-1.66,1.44.12,1.16,1.68-.14,1.95-.42.15-.16-.1-.69.15-.69Z"/>
        <path class="cls-3" d="m119.69,136.97c1.12,0,2.19-4.7.98-4.7-.96,0-2.87,4.45-.98,4.7Z"/>
        <path class="cls-3" d="m125.99,152.98c-.49-.04-.92-.39-1.38-.03.28.38,2.02,1.81.24,1.63-.07.33.22.81.66.9v.28c-.33.54.16.73.6.66v-.28c-.17-.09-.34-.56-.38-.93h.66c.05-.18.14-.31.19-.59-.05,0-.35-.43-.35-.43,0,0,.05-.46,0-.74-.09,0-.18,0-.27,0,.05-.14,0-.32,0-.46Z"/>
        <path class="cls-3" d="m120.71,171.19c1.87-.66,4.71,1.35,5.03-1.55.15,0,.19-.27.24-.43h-.29c-.59.43-1.27.91-1.56,1.23-2.68-.23-5.58-1.95-5.65,2.4-.43,1.26-2.55,4.11-.34,4.38.17.68-.53,3.29.77,3.26.54,0,.74-1.87.74-2.13-.16-.98-1.06-2.58.68-2.4l-.2,1.12c.08.8,1.04,1.23.78,2.13h.63c0-.59,1.08-.53,1.08-1.12-.3-.14-.97-.92-.49-1.28-.29-.16-1.22-2.08-1.22-2.24,1.36,0,1.46-1.17,2.58-1.55v-.43c-.29-.06-2.88.8-2.93.95l.1-.21c-1.31,2.06-2.77-3.03.04-2.14Z"/>
        <path class="cls-3" d="m121.59,185.4c.63-.21,1.07-.37,1.41-1.06-1.19,1.37-3.41-.66-4.24.53.19,1,2.14.36,2.83.53Z"/>
        <path class="cls-3" d="m123.93,157.07h.22c.02-.7.6-.92.61-1.75-.14,0-.27,0-.4,0-.02.84-.29,1.21-.42,1.76Z"/>
        <path class="cls-3" d="m116.08,158.59h.31c.54-.35,1.39-.94,1.59-2,.36,0,.67-.08.76-.49.22,0,.27-.14.45-.27-.18-.19-.39-.29-.39-.75-.33,1.46-2.11,1.91-2.72,3.52Z"/>
        <path class="cls-3" d="m125.31,156.49c-.14.18-.35.09-.57-.01-1.12,1.1.57,1.3.57.01Z"/>
        <path class="cls-3" d="m122.17,153.89c-.92-.52-.19,1.39-.32,2.17,1.05-.48,2.37-1.68.32-2.17Z"/>
        <path class="cls-3" d="m124.38,153.92c.01-.6-.57-.75-.7-1.17h-.4c0,.18,0,.36-.01.69.22,0,.4-.03.62.01,0,.23.48.71.48.47Z"/>
        <path class="cls-3" d="m121.3,151.58c.09.09.35.06.44.01-.09-.09-.35-.06-.44-.01Z"/>
        <path class="cls-3" d="m127.3,176.75c.14.93,1.14,1.4,1.36.33,0-.53-1.36-.96-1.36-.33Z"/>
        <path class="cls-3" d="m113.84,184.49h-.44c-.23.74.65,1.38.88.37-.19-.1-.19-.37-.44-.37Z"/>
        <path class="cls-3" d="m170.58,182.41h.44c-.25-.4-.53-.36-.93-.58,0,.05-.2.05-.24.05l.73.53Z"/>
        <path class="cls-3" d="m162.25,226.09c.7-2.33,3.07-3.61,2.59-6.3,1.3-2.06.67-6.9-.54-8.92l.05-.16c-.93-1.02-2.78-1.93-2.78-4.06-2.13.37-1.48-1.99-2.49-3.1-2.93-1.61-3.67-2.9-4.53-6.14-.3-1.89-.29-3.29-2.44-3.58-.56-1.75-.98-3.44-1.56-5.56-.83.48-.59,1.18-1.37,1.82.05,2.41.37,12.75-3.9,7.74-1.39-.82-3.21-.63-3.75-2.4-.29-.21-.98-.11-.98-.53l.59-2.67c1.25-.39,1.52-1.65.14-2.03-2.05,1.01-3.77-.11-5.75-1.06.1.59.58.74.88,1.23-.78.6-3.51.42-3.66,1.6,0,.75-.73,1.13-.73,1.87,0,.48.15.85-.14,1.33-.45-.53-1.41-.55-1.8.16-.64-3.4-1.93-1.48-4.05-.96-.1,1.23-1.07,1.44-1.07,2.94-.4,0-.64-.21-1.02-.43-.25.59,0,1.39-.54,1.76-.2-.37-.49-.59-.74-1.06-.78.4-.62,1.5-.63,2.24-.61,3.34-6.66,3.23-9.02,4.54-.53.58-1.66,1.92-2.58,2.03,0-.16,0-.38-.05-.54-.98.05-.39,3.19-.54,3.74.03,1.65.83,2.25.59,3.47-.15-.16-.35-.43-.44-.69-.82,1.13.17,1.55.68,2.57.72,3.05,1.64,5.17,2.34,8.54,0,1.23-1.12,1.6-1.12,2.4,0,.75,2.34,1.87,3.17,1.87,2.19,0,2.92-1.76,4.63-1.76,1.28-.18,2.9,0,4.29-.38.39-2.72,3.46-1.76,5.94-2.67,1.89-1.71,6.73-1.47,8.44.38.39.59,1.47,3.2,1.8,3.2.18,2.95,2.72-1.81,3.51-2.78.04.8-.2,3.58-1.42,3.85.43,1.39,1.35-.28,1.71-.64,0-.16.1-.37.1-.53.61.31.55,1.74.14,2.24.55.04,1.11-.08,1.56-.37.57,3.15,2.01,6.01,5.76,5.98,1.22,0,.84-1.06,1.95-1.17.05.33,2.05,1.55,2.44,1.61.39-2.57,4.39-1.44,4.93-3.9v.1c0-1.87,1.02-3.52,1.41-4.81Z"/>
        <path class="cls-3" d="m168.49,182.04c.97-.33-.57-1.54-.98-1.97-.09.54.1,1.07.68,1.17,0,.25-.05.77.29.8Z"/>
        <path class="cls-3" d="m153.08,238c0,1.13,1.61,5.07,3.07,5.07,1.52-.42,2.97-4.01,1.75-5.6-.69.21-1.51.53-2.15.53-.05,0-2.68-.85-2.68,0Z"/>
        <path class="cls-3" d="m141.87,229.08c.44.48,1.17.38,1.71,0-.69-.38-.78-.48-1.71,0Z"/>
        <path class="cls-3" d="m169.85,181.67c.09.07.17.12.24.16,0,0,0,0,0,0l-.24-.16Z"/>
        <path class="cls-3" d="m176.14,187.21c.05,0,.2-.1.25-.1-.35-.54-.83-.74-1.61-.74,0,.64.78.85,1.36.85Z"/>
        <path class="cls-3" d="m172.14,183.16h-.1c.09.7,1.38,1.22,1.9.91-.29-.48-1.27-.8-1.71-1.07l-.09.16Z"/>
        <path class="cls-3" d="m87.76,170.18h.05c.61,1.63,1.68,1.3.19-.1l-.24.1Z"/>
        <path class="cls-3" d="m89.51,173.33c-.1.47.56,1.39.88,1.5.04-.53-.19-.84-.49-1.23v-.26h-.39Z"/>
        <path class="cls-3" d="m103.55,170.56c0,.26.49,2.18.73,2.24.35.04.76.17.58.59.61,1.69.09,3.66,2.69,2.67,0,1.7.92.86,1.7.48.83,0,1.37.63,2.15.86.19,1.49,1.28.31,2.15-.11,0-.59.58-1.38.58-1.82-.42-.67-.17-1.66.83-1.97.05-.9.48-1.85.88-2.94.62-.34,1.39.39,1.56-.64-.79-.02-2.92-3.25-1.85-3.85-.05-.16-.15-.32-.19-.48,0,0,1.32-.58,1.41-.75-.09,0-.19-.16-.19-.27,0-.48,1.08-.16,1.08-.64,0-1.07-2.05-.43-2.05-1.55.07-3.19-2.57.12-2.98,1.55-.37.45-1.76.19-2.05,1.07-.23.24-.92.49-.82,1.02-.43,1.22-1.62,1.01-2.49,1.6-.68.75-.49,2.41-1.99,2.41-.68,0-1.71-.38-1.71.53Z"/>
        <path class="cls-3" d="m105.7,140.55c-.63,0-2.29,1.33-2.69,1.33-.25.51.04,2.05,1.08,1.87.94-.08,3.21-2.55,1.61-3.2Z"/>
        <path class="cls-3" d="m100.34,183.1c1.28.38,3.22.53,4.63.64,1.79,1.31,4.48.39,6.39,1.5-.34-1.48,1.08.72,1.56-.75-.34-.16-.34-.32-.78-.49-.44-.16-.83.28-1.17-.1-.36-.93-1.94-.24-2.44-1.17.1.05,1.75-.11,1.81-.37-.23-.04-1.59.17-1.86.21-.88,0-1.22-.96-2.2-.96-.58,0-.73.8-1.46.8-1.61,0-2.24-1.71-3.7-1.71-.45.12-.74.51-1.17.1-.29,0-1.17.96-1.22,1.12.73,0,1.13.64,1.61,1.17Z"/>
        <path class="cls-3" d="m102.28,176.59c.3,0,.49-.32.54-.64-.25-.22-.59-.32-.93-.27-.05.26.01.91.39.91Z"/>
        <path class="cls-3" d="m91.12,172.27c1.45,2.69,2.72,5.09,5.41,6.99.05.05.93,1.44,1.17,1.44.34,0,1.32-.16,1.32-.75,0-.54-.24-1.28.25-1.49v-2.3c-.52-1.21-2.17-1.29-2.1-3.04-.81.11-1.13-.7-.73-1.39-.15-.44-.44-.54-.82-.48.38-.91-.68-1.33-1.47-1.6-2.08-.58-2.64-2.64-4.39-3.63-1.09-.3-.9-2.01-2.34-2.29,0,0-1.61,0-1.61,0-.43-.3-.7-.56-1.27-.48-.11.72.84,2.33,1.32,2.57,1.29-.08,1.36,1.18,1.85,2.08.34.75,1.46.54,1.81,1.76.1.43.44,1.7.68,1.87.14.11.73.16.78.27.1.16,0,.48.15.48Z"/>
        <path class="cls-3" d="m118.55,148.79c.13.39,1.05,1.28,1.28.53h.26s0,.47,0,.47c-.78.76.32,1.49,1.1.91.62,0,.65,1.03,1.27,1.05-.13-.38-.26-.57-.03-.89.26.42,1.32.86,1.58,1.43.14.72.5.17.4-.27-.3,0-.57-.19-.57-.57-.6.19-.13-.27-.04-.56-.33-.25-.42.11-.67.22-.27,0-.39-1.07-.92-1.08-.4,0-.53.29-.5.59-.49-.24-1.09-1.41-1.08-2.11,0-.97.81-1.05.83-2.07-.13-1.03-.55-1.8-.71-2.66-.18.09-.32.45-.58.45-2.12-2.72-.58,2.02-1.34,2.95-.44-.1-.28.88-.29,1.62Z"/>
        <path class="cls-3" d="m99.36,175.21c.16.68.61,1.12,1.32,1.06-.05-.16-.05-.36-.05-.53-.68,0-.98-1.01-1.22-1.81-.34.05-1.02.42-1.02.69,0,.43.78.16.97.59Z"/>
        <path class="cls-3" d="m151.28,81.54c-.19-.69-.59-1.39-.59-2.45h-.34c.04.53,0,1.32-.2,1.81-1.51.69-.97,3.32-.29,4.65.04,1.27.01,3.55-.25,4.81.61,1.59-.13,3.8.1,5.44.73-.17.62-1.49,1.66-1.18.07.29.37.7.64.48-.39-.91-1.42-1.5-1.42-2.72-.25-1.86,1.01-4.36,2.49-2.4-.36-1.77-1.51-3.22-1.66-5.13-.01-1.1-.12-2.26-.15-3.31Z"/>
        <path class="cls-3" d="m281.5,81.28c-.16.76-1.2,1.01-.34.05-.44-.05-.68-.38-1.12-.38v.43c.4.89.69,1.08,1.37,1.65-.34.38-.16,1.59.48,1.6.49,0-.39-.8-.39-1.01.31-.49.22-.68,0-1.17,0-.53.1-.86,0-1.18Z"/>
        <path class="cls-3" d="m275.85,71.82c-1.28.16-.19,2.18.73,2.14,0,.85.19,1.49.78,2.14.49-.54,0-1.28.1-2.03-1.07.27-.4-1.07-.49-2.24-.68.43-.24,0-1.12,0Z"/>
        <path class="cls-3" d="m278.92,77.16c.59-.43.29-.16,1.07,0-.49.56.93,3.35,1.37,1.7,0-1.17-1.32-1.33-1.17-2.77-1.02-.22-1.27-.22-1.27,1.07Z"/>
        <path class="cls-3" d="m289.06,90.35c.93.65,2.7,2.19,4.05,1.97v-.48c-1.17-1.3-4.57-4.56-6.53-3.9.24-.03.5.12.93.22-.05.16-.25.37-.49.48.19.64,1.56,1.18,2.53,1.18-.15.16-.39.16-.49.53Z"/>
        <path class="cls-3" d="m14.88,212.1c4.07,0,6.22-11.67,6.48-15.58.09,0,.58.16.83.26-.24-1.6-.26-5.47-2-5.87-.04,2.07-2.15,3.85-3.7,5.18-3.4,1.21-3.71,2.74-2.43,6.14,0,.1-.97,2.4-.97,2.4-1.15.52-1.31,2.42-.39,3.21-.38,1.49.35,4.28,2.19,4.27Z"/>
        <path class="cls-3" d="m362.62,244.09h.44c-.03-.54-.01-1.69.2-2.2-.49-2.63-2.01,1.87-.63,2.2Z"/>
        <path class="cls-3" d="m1.23,210.39c1.96-4.14-3.21-6.81.49-8.27.39-3.56,8.85-3.59,6.58-8.28.2-2.44-.16-3.56.49-5.5,0-1.01-1.81-1.92-1.81-3.73-.37-3.35-.86-4.34,1.22-7.21,1.22-4.76,4.68-5.61,7.9-8.39,2.86-3.81,7.91-9.76,6.97-15.22-2.38.76-4.76,1.77-7.31,1.6-1.87,1.93-2.29.16-3.56-1.34.49-.64.02-.77.02-1.68-1.6,0-2.02-2.21-2.8-2.86-2.78-1.3-2.43-2.57-3.41-5.23-2.2-1.94-2.39-2.25-2.2-5.34-.73-.63-2.19-2.99-1.95-4.11L0,131.23v79.48c.4-.04.99.03,1.22-.32Z"/>
        <path class="cls-3" d="m235.05,68.19c.06-.85-1.08-1.37-1.47-.54h-.73c.1.21.39.38.58.54h1.61Z"/>
        <path class="cls-3" d="m253.18,72.89c-1.09-.14-1.94.42-2.93.8v.64c.34.27.59.32,1.02.7.73-.65,1.03-1.02,1.9-1.5v-.64Z"/>
        <path class="cls-3" d="m356.04,133.6c-.13.53.37,1.5.73.75.04-.44-.32-.85-.73-.75Z"/>
        <path class="cls-3" d="m355.99,130.56c-.24,0-.58.21-.68.43.29,0,.78.05,1.27,0-.1-.16-.25-.43-.59-.43Z"/>
        <path class="cls-3" d="m357.5,131.21c-.05.16.09.48.24.42l-.24-.42Z"/>
        <path class="cls-3" d="m349.65,138.58v.37c-.66.15-.54.73.24.48.1-.27.05-.53,0-.8-.06-.02-.18-.06-.24-.05Z"/>
        <path class="cls-3" d="m361.69,141.34c-.44-.41-.98-1.32-1.85-1.12-.05-.1,0-.26,0-.38-1.72.09-2.62-1.19-3.85-1.97-2.61-.77-7.24-2.79-8.77,1.02h.44c.62-.61,2.4-1.73,3.41-1.12-.15.16-.19.37.1.59h1.41c.68,0,1.02.79,1.71.79.39,0,.63-.16,1.02.06.19.11.14.48.54.48.14.8.93.75,1.66,1.12-.05.26-.25.48-.49.48v.32c1.34-.04,3.55,1.09,4.68-.27Z"/>
        <path class="cls-3" d="m363.4,139.69v-.48c-.2.32-.59.59-.97.48-.15.61.7.27.97,0Z"/>
        <path class="cls-3" d="m361.79,143.96c0,.32.29.81.58.86,0-.16.05-.26.05-.43.71.15,2.13-.28,2.78.17.24.16.14.69.58.69.54,0,.49-.96,1.12-.96.46.4.85.27,1.37-.16h1.8c-.34-.53-.83-.75-1.31-1.18l.24.22c-1-.97-2.43-1.76-4.19-1.17-.44,0-.73-.37-1.17-.37-.68.12-.31.99.24.96,0,.42.05.8.34,1.12-.58.32-1.07.05-2.19.05-.05.06-.14.22-.24.22Z"/>
        <path class="cls-3" d="m356.48,144.29c.16,1.29,1.57.65,2.39.48-.05-.21-.15-.38-.44-.48l.1.11c-.31-.08-1.77-.87-2.05-.11Z"/>
        <path class="cls-3" d="m156.2,180.7c-1.17-.64-1.12-2.08-2.68-2.62-.24-.05-.63-.11-.63-.53-1.33-.91-3.53-.85-4.77-1.87v-.06c-.09-.01-.18-.09-.24-.16l.11.12c-.25-.07-.64-.22-.84-.44h-1.32c-.29-.17-.67-.8-1.26-1.01-.15-.06-.53,0-.58-.27-.58.11-1.17,1.07-1.61,1.23-.68.22-.78.27-1.17.69-.57,1.21-1.4,1-1.85-.16-1.23.15-.58-1.81-.73-2.4-2.11-1.08-2.2-1.5-4.14-.16-.29,0-.68.16-.68.47,0,.75,1.17.43,1.51,1.18.38,1.15,1.84.42,2.73.43-.34.64-1.8.53-2.48.91.1.43.63.21.88.64.24.43,0,.65.24,1.18.53.51,1.08-.16,1.22-.8v.48c.78-.27,1.08,1.12,1.8,1.12.78,0,2.09.27,2.63.53,2.65.97,1.64,1.88,2.68,3.79-1.95.78-1.41,1.77.58,1.49,1.32-1.31,2.27,1.38,3.6,1.34,0,0,1.86,0,1.86,0,0-.38.44-.59.24-1.29,1.88-3.04,4.19-.06,5.75,1.66.14,1.04,2.13,1.48,3.12,1.33.26.23.88.75,1.21.64,0-.38.34-.64.64-.86-.14-.05-.88.05-.97-.21-.1-.21-.2-.54-.49-.64-.67.24-.62-.51-.98-.69-1.3-.02-1.22-1.35-1.85-2.08-.1-.1-.93-1.01-.93-1.28,0-.48.93-.26.93-.85,0-1.18-1.02-.59-1.51-.85Z"/>
        <path class="cls-3" d="m164.34,177.23c-.54-.59-.97-1.23-1.9-1.55.15.43.49.37.88.64.63.42.54,1.02,1.17,1.33-.1.53-.1.91.49,1.02.09.1.19,0,.29,0,.13-.85-.36-1.03-.92-1.45Z"/>
        <path class="cls-3" d="m158.64,180.23c.15.68,1.03.55,1.42,1.06l-.09-.1c1.09.92,2.04-.2,3.06-.44,0-.82,1.97-1.73.59-2.67-.69,0-.39,1.17-1.08,1.55-.97.23-2.71.72-3.9.59Z"/>
        <path class="cls-3" d="m175.02,184.28c.05.42.92,1.7,1.41,1.7-.25-.79-.73-1.28-1.41-1.7Z"/>
        <path class="cls-3" d="m.21,115.18c-.06.01-.14.04-.2.05v.31c.09-.04.16-.13.2-.36Z"/>
        <path class="cls-3" d="m155.52,98.84l.08.07s.05-.02.07-.02l-.15-.05Z"/>
        <path class="cls-3" d="m62.85,161.37c.96,3.85,5.1-.41.68-4.32,0,1.6-.68,2.77-.68,4.32Z"/>
        <path class="cls-3" d="m129.64,168.26c-.93.62-.15,1.82-.05,2.56.02.53-.14,1.6.63,1.71-.24-.37-.34-.59-.53-.9v-.38c.39,0,.92-.06,1.12-.11-.5-1.09-.51-.61.1-1.49-.83-.21-1.17-.64-1.27-1.39Z"/>
        <path class="cls-3" d="m129.83,176.75c.33.2,1.55.26,2,.22,1.04.17,2.84,1.4,1.41-.53-.29.07-.77.23-.88-.16h-2.2c-.09.11-.34.22-.34.48Z"/>
        <path class="cls-3" d="m26.82,153.47c.39,0,.78-.43.88-.64-.63,0-.97.1-1.41.27.05.26.39.37.54.37Z"/>
        <path class="cls-3" d="m139.34,180.81c0-.37-.1-.15-.2-.58-.34.05-.29.53-.29.91,0,.31-.49.37-.49.9.28.97.76.1.59-.7.24,0,.39-.2.39-.53Z"/>
        <path class="cls-3" d="m134.22,189.94h.48v-.8c-.73-.05-1.07.06-1.95.27.2.22.88.53,1.46.53Z"/>
        <path class="cls-3" d="m126.47,156.75c.08,1.89-.67.74-1.1,1.84-.27.04-.4.27-.41.6-.63.17-.36-.68-1.05-.76-.8-.02-.6,1.01-1.53.99-.15.6-.43,1.1-.11,1.66,0,.19-.37,1.07-.02,1.07.49,0,.43-1.52.88-1.98,0,0,.31.38.44.43.04-.05.14-.23.14-.23.08.09.18.24.44.24-.04-.14,0-.28,0-.42l.62.02c.04.14.13.32.17.47-.74.86.36,2.61,1.34,2.17.03.68.78.3.72-.27-.2-.8-.92-.94-.1-1.63.09.14.21.24.25.38l-.02-.11c.08.26.39,1.05.54,1.1.02-.79.55-1.06.56-1.57-.19-.78-.55-3.88-1.77-3.98Z"/>
        <path class="cls-3" d="m310.12,16.02c-.63,0-3.56,1.17-3.56,1.87.99-.64,1.15-.32,2.19,0,.9,0,2.74.17,3.41-.53-.19-.69-1.02-1.34-2.05-1.34Z"/>
        <path class="cls-3" d="m324.25,15.33c-1.36,1.17-.8-.57-2.19-.8-2.09,1.27-1.45-1.53-4.38-.1,0,.64.14.8.83.8-.05.21-.19.43-.34.53.39.32.63,0,1.71,0-.1.16-.1.48,0,.64-.58.21-1.02.16-1.46.64.6.98,2.45-.13,2.93.64.88-.11,1.41.21,2.29.21,1.12,0,1.02,1.34,2.19,1.34,1.77-.15.38-1.62-.49-2.14.1-.16.29-.38.39-.53-.24-.27-.78-1.23-1.46-1.23Z"/>
        <path class="cls-3" d="m334.1,19.33c-.92,0-2.68.11-3.17.64.72-.03,4.43,1.6,3.8-.64-.49.11-.1,0-.64,0Z"/>
        <path class="cls-3" d="m310.7,18.16c-7.88-.34-1.82,5.6.15,1.17h-1.37c.73,0,1.56-.16,2.09-.64-.14-.21-.34-.53-.88-.53Z"/>
        <path class="cls-3" d="m333.37,11.75c-.43,0-1.22-.33-1.46-.53h-.73c.14,1.54,1.17,1.7,2.82,1.7-.29.43-.64.48-1.12.7,0,.94.83.42,1.42.11.32,1.27,1.22.36,2.14.27.73,0,1.27.21,2,.43-2.56-.12-6.13,1.32-1.51,2.4-.15.16-.3.32-.63.37.26,1.16,3.31,1.6,3.12-.26.44.32,1.32,1.02,1.76.96v-.69h.88c-.15-.43-.34-.53-.63-1.07.25-.27.35-.54.59-.8.46,2.59,1.75-.31,3.07-.64.83.02,1.39-.1,1.17-1.07-.64-.06-1.9-.7-2.39-.7-.1,0-.83.48-.83,0,.58-1.08.31-.73-.24-1.6.14-.93-.38-.95-1.12-.91l.24.38v.69h-.59c-.66-2.07-1.05-1.39-2.83-1.6-1.44-2.28-1.32-2.73-4.63-2.88.05.75.88.8,1.46,1.12-.98-.03-1.99-.19-2.68.48.45,1.35.96.45,2,.85-.45,1-.89.22-1.85.16-2.47.05-.27,1.55,1.02,1.71,0,0-.24.43-.44.43Z"/>
        <path class="cls-3" d="m302.66,24.72c.16.11.33.19.51.25-.4-.05-.41-.09-1.1-.04v.8c.17.07.35.15.54.23-.69-.26-1.14.24-1.76.47.13.48-.2,1.6.73,1.6,1.1.42,2.37.39,3.75,0,0-.32.24-.64.54-.7.1.53.54.8.83,1.23-1.73-.38-1.75,1.35,0,1.44,2.02-.13,4.58-1.27,6.43-1.71,0-.16,2.88.22,3.17.1,1-.48,2.65-3.52.49-3.84-.63,0-.88.64-1.31.64-1.28-.13-2.04-1.46-1.85-2.67-.34,0-.64-.16-.93-.38-1.16.6-2.91,2.08-.54,2.51v.7c-.15,0-.44.11-.49.21.19.1.44.16.97.16-1.85,2.44-4.7-2.22-6.82-1.33-.47-1.26-1.15-.79-2.44-.8,0,.26.15.43.37.54-.43-.07-.89.23-1.1.58Zm2.43.59c-.16-.02-.44-.07-.75-.12.24.03.49.06.75.12Z"/>
        <path class="cls-3" d="m291.84,38.18c.33.77.79,1.25,1.46,1.6.39,0,3.75-1.33,3.75-1.76,0-1.23,2.15-3.47,3.66-4.01,4.81-.58,3.12-2.82-.34-3.47-.63,0-1.22.64-1.66.16-1.59-.39-2.95-1.7-4.58-.69-1.17,0-1.7-.54-2.92,0,2.04,2.76-1.37,4.61-1.71,7.1,0,.64,1.95.48,2.34,1.07Z"/>
        <path class="cls-3" d="m305.24,22.96h1.07v-.69h-1.7c0,.48.39.69.63.69Z"/>
        <path class="cls-3" d="m304.37,19.07c.13.69,1.35,1.21,1.66.16-.29-.16-1.66-1.5-1.66-.16Z"/>
        <path class="cls-3" d="m300.37,20.67c-1.73-.63-2.38.99-3.41,1.87-1.08.81-4.29,1.14-2.93,2.83.98-.75,1.17-.07,2.2-.43.36,1.17,1.72.89,1.85-.37.83.11,1.56-.74,1.66-1.66.44.27.39,1.5,1.22,1.5l2.1-1.71c0-.43-.34-.53-.39-1.07,2.31-1.81-1.93-1.23-2.29-.96Z"/>
        <path class="cls-3" d="m318.75,21.47c.34,0,.63-.27.68-.64-1.02-.38-1.12-1.5-2.39-1.5,0,.69,1.17,2.14,1.71,2.14Z"/>
        <path class="cls-3" d="m298.42,26.17c.53,1.56,2.22-.06,2.29-1.23-.48-.05-2.29.38-2.29,1.23Z"/>
        <path class="cls-3" d="m326.3,11.75c0,.64.59.74.88,1.07h.83v-1.07c-.34,0-1.08-.06-1.71,0Z"/>
        <path class="cls-3" d="m330.84,16.13c-.54,0-1.56-.37-1.71-.8-2.24.29-.52,2.2.49,2.83-1.56,1.14,1.01,1.11,2.93.53.23-3.43-1.19-.75-1.71-2.56Z"/>
        <path class="cls-3" d="m326.69,23.5c-1.21-.06-1.94-.85-3.07-.48.2.75.88.75,1.71.75v1.17c-1.22,0-1.61-1.17-2.68-1.17v.64c.19.26.58.64.97.91-1.71.43-2.4-2.76-4.24-2.25,0,.27.07.47.17.63l-.07-.1v.96c.39.32.73.69,1.22.54l.15.53h.73c.59,1.73,3.56-.57,4.73.27-.56.38-1.53.45-1.22,1.33-1.33,1.35,2.11.82,3.17.53-.18-1.82,1.63-5.88-1.56-4.27Z"/>
        <path class="cls-3" d="m323.67,18.96c-.44-.16-.59-.43-1.12-.43-.19,0-1.32.8-.44.8.73,0,1.32,0,1.56-.37Z"/>
        <path class="cls-3" d="m318.5,27.98c1.08.15,2.35.03,1.37-1.44-.68.27-1.17.54-1.37,1.44Z"/>
        <path class="cls-3" d="m373.25,246.97c2.94-.08,1.18-6.15,1.76-7.76v-82.23c-.48.1-1.42.16-1.46-.52-.77-.19-3.38.63-3.22-.96-.73-.17-1.83-.47-2.02-1.32h-.85c0,.63.73.36.92,1h-1.17c-1.89.54-1.03,1.32-.63,2.67-.26,1.69-1.37.39-1.27-.75,0-.48.29-1.39.44-2.18.53.02.68-1.06.05-1.28-1.32,1.02-2.92,1.59-4.58,2.08-1.31.08-1.24,1.75-1.76,2.57-.29.21-.78.37-.78.91-.28.03-.32.36-.29.58-.34.11-.19.11-.58,0-.07.13-.21.24-.36.36.17-.2.3-.37.32-.41-2.15-2.62-3.09-1.48-5.81-.64-.83,0-.83-1.01-1.37-1.28-.78-.42-1.8-.9-1.8-2.08-.18-1.86.38-4.63.34-6.41-2.37-2.55-7.48.6-7.56-1.66,1.26-.44.82-2.65.88-3.63h.39v.38c.3-.54.59-.91.59-1.76.06-1.25,1.01-2.14.83-3.21-6.33-1.11-3.78,1.77-6.73,4.81-3.11-1.31-2.78,2.99-6.58-2.51-1.8-1.66-1.75-4.57-1.71-6.89.25-.99.76-2.01.26-3.12.04,0,.09.01.13.02-.71-1.46.38-3.62,1.46-4,.48-.22.92.16,1.32-.27.59-.64,1.27-1.98,2.68-1.98.94.23,1.18.9,2.1.11.98,0,2.15,1.82,3.51,1.07-.59-.43-.15-.9-.1-1.71-.29.16-.2.16-.68,0,.83-.32,1.85-.21,2.63-.43.29.97.74-.02,1.56,0,1.17,0,1.71,1.23,2.59,1.23,2.8-2.39,2.71,2.2,3.41,4.27.39.85.88,1.12,1.46,1.97.29.48.24,1.33.97,1.33,4.63-3.2-7.01-9.59,4.33-14.85l-.13-.1c.5-.92,2.04-.95,2.62-1.92l-.57-.37v-.43c.44,0,.66.05.76-.54-.25-.05-.48-.09-.67-.46.53.05.73-.7.64-1.19h-.34c-.3-.32,0-.27,0-.8-.02-1.01-.4-1.63-.2-2.57.1.54.54,1.39.54,1.77.02.21-.09.84.2.91.54-.62,1.57-2.3.68-3.21l.24-.26c.49,1.38,1.5-1.4,1.71-1.87-1.52-1.55,1.38-.67,2.15-1.23-.46-.3-1.15.11-1.71,0,.98-.7,2.63-.38,3.61-1.18.19.21,1.02,0,1.61-.16v-.37c-.57.68-.99.16-1.02-.59-.9-1.88,1.52-3.2,2.24-3.95.91-.2,2.15.28,2.68-.91-.14-.2-.27-.44-.24-.69,1.8.07,2.07.41,3.36-1.12v-2.02c-.63-.74.07-1.34,0-2.16-.28-.04-.68-.14-1.02-.14.14-.2.58-.36,1.02-.59v-1.97c-2.41-.56-4.44,1.34-6.09,1.86.63-1.44,1.66-.96,2.73-2.14.57-1.6,1.84-2.01,3.36-1.97v-21.21s-.04-.04-.05-.05c-1.48.85-1.42,4.07-3.9,4.27-.88,0-1.02-1.17-1.61-1.17-.83,0-1.17-2.62-1.31-3.74-.2-1.5-2.83-.43-2.83-2.41-1.36-.21-1.66-2.03-3.02-2.03-1.68,1.19-3.26-.24-5.02-.38-3.6.76.84,2.46-1.32,3.74-.62.43.89,1.61.98,2.41.17,1.58-1.21,1.98-1.84,2.25,2.77,3.51,4.83,7.32-1.08,9.87,1.69.94,1.02,3.85,1.71,4.75-.2.32-.83.69-.88,1.28-.59,0-1.01,1.05-1.46.64-1.21-1.06-2.92-2.72-2.92-4.27,0-1.7.29-3.04-1.07-4h-3.17c-2.51-1.87-5.31-2.97-8.19-4.27-.73,0-1.07.8-1.81.8-.12-1.91-.95-5.55-3.07-3.74,0-1.91-.11-5.73,1.71-7.05.39-.43,1.22-2.5,1.61-2.67.83-.32,2.29.21,2.29-1.07,0-.8-1.87-.86-2.55-1.29.44.16-1.04-.93,2.92.4,1.03.35.4-1.14.99-1.14,1.65.37,2.69-.88,3.66-1.97v-.81c-1.66-.42-3.31-.15-4.05-1.76h.88c1.27,1.6,3.77,1.49,4.39-.54,0-.21-.73-1.17-.35-1.17,2.32.64,1.01,1.52,3.75.64-.24-.32-.01-1.27.59-.27.32.54,2.83-1.82,2.83-2.51-.58-1.11-2.5-1.94-.24-3.37.19-.48,0-.42,0-1.33-1.56,0-1.17-1.34-3.17-1.34-2.21-.98-3.08.39-1.7,2.14,0,.53-1.13.53-1.37,1.07-.39.91-.26,1.62-.96,2.61-1.1,1.53-2.54-.95-2.54-1.54,0-.69.83-.53.83-1.33-3.14-4.6-2.03.43-3.75.43,0-.91-.1-1.55-1.12-2.08.15-.27.24-.43.49-.64-.78-.54-1.85,0-2.44-.8,2.58-1.44.5-1.76-.24-3.05.59-1.83-4.15-4.41-3.51-1.6-1.8.1-1.37.84-.97,2.14,0,.54-.63.48-.63,1.23.51,2.25,4.65.24,2.92,4.11.34-.21.63-.32,1.03-.53.63,2.19-2.59,1.12-2.59,3.74-1.6.47-.34-1.28-.73-1.87-.84-.68-3.74-1.32-3.41,1.07-2.12,0-9.8.45-10.48-3.2-4.47.02-5.43,3.61-.53,1.23.19,1.76-2.3.32-2.3,2.14,0,.37.54,1.6.3,1.6-1.14-.15-1.47-1.88-2.73-2.14-1.76-.1-4.07.06-5.8.48-1.93.1-1.93-.68-1.93-.84,0-.48,1.49-.28,1.79-.6-1.36-2.07-1.11-1.73-3.9-1.49-2.96.25-4.44-2.41-7.41-2.41-1.61.37-2.62,1.5-3.27-.75-.93.22-.93,1.39-1.9,1.39-.93,0-2.24-2.4-2.53-2.4-1.02.1-1.24,2.96-2.54.8-2.04.15-3.86,1.75-5.65,1.76-1.28-1.31-1.06.36-1.52.37-3.17.13-.98,1.39-1.41,1.39-1.22.01-4.64-.44-6.09-2.3-.34.22-.1.11-.58,0v.06c-3.07-2.19-7.93.59-10.87-2.03-1.41,0-4.3.33-5.22-1.07-.97.02-2.74.13-3.56-.53-.24.43-.73.8-1.22.69.15-.26.2-.37.44-.69-1.78-1.51-2.11-.42-3.61.69-3.38-.13-6.24,2.64-8.04,5.18h-2.68c-1.44,2.34-.06,1.65,1.85,2.67.49.32,1.07,1.92,1.46,2.13,1.42.75,2.44.86,2.92,2.57-1.19-.11-3.36.76-3.17-1.23h-.87c-1.17.85-3.17,1.55-4.39,2.35.24.53.68.85,1.46.85-.48.85.37,1,.48,2.03,1.5-.06,3.13-.03,4.63.38,1.31-.15,1.53-1.22,2.83-.91v.8c-.34-.21-.24-.27-.73.05,3.24,3.49-6.7,2.69-6.58,6.35,0,.86,1.56,1.12,1.95,2.3-.24,0-.49.16-.73.16.34.48,2.63,2.45,3.27,2.45.39-.41,1.39-1.71,1.37-.11,0,.6-.1,2.19.48,2.4.31-.21.83-.56,1.32-.43,0-.22-.05-.48.04-.8.83.69,1.17,1.01,2.34,1.5.05-.38.19-.54.34-.97,1.41,1.06,2.4-.29,3.85-.26-1.17.8-1.17,2.4-2.29,3.2-1.17.86-3.07,1.76-3.9,2.94-.59.8-1.51.27-2.34.8-.53.32-.97,1.39-1.56,1.76-.83.54-1.76.11-2.34,1.12,2.05.64,3.02-1.6,4.78-1.92,1.41-.21,3.17-.8,3.9-1.6,1.56-1.02,3.13-2.37,4.39-3.74,1.12-.48,2.19-.91,2.19-2.13-.41-2.34,3.12-5.79,4.98-5.5,0,.16-.05.38-.05.53-1.64.56-2.43,1.8-2.1,3.21-1.62,2.38,4.88-1.23,4.97-2.19-.24-.21-.34-.38-.49-.75.44-.27,1.41-.53,2-.8,1.35,2.52,4.79,2.74,7.26,2.67,1.46.91,3.12.85,4.38,1.87.65.71,2.4,3.42,3.02,1.07.39.43.73.79,1.47.79.19-.37.63.11.88.38-.53.37-.69,1.75.24,1.92.63,0,.39-.64,1.32-.7v.7c0,.43-.73.48-.73.91,0,.32.2.8.88.8,1.4-.16,1.57.52,1.46,1.6.05.76,1.57,1.87,2.54,1.55,1.12-1.05.63-2.12-.46-2.82,1.1.71,1.58,1.77.46,2.82.6.78-.15,2.67.78,3.1,1.71.1.88,1.15,1.56,2.03,1.97.56,1.1,3.69,3.42,3.68.24,1.07,1.95.37,2.34,1.76.36.59,1.72.92,2.39,1.5.79.9.73,1.83-.05,2.67-.2-.67-1.69-1.41-2.15-.54,0,1.17,1.22,1.65,1.22,2.83-.76,3.55-1.13,7.18-.34,10.47-1.6.91,1.91,5.21,2.44,5.12-.16,2.4,1.69,3.74,2.19,5.87,1.75.74,4.24,1.87,4.97,3.47h-.1c.03,1.3.81,1.9,1.22,2.88.29.64.26,2.13.84,2.53.51.4,4.01,3.81,1.41,3.34,1.26.93,2.76,1.52,3.66,3.1v1.39c.74.54,1.31,1.93,2.37,2.12,1.33,3.01,1.58-1.14.16-.57-.87-.64-1.17-2.03-1.56-3.31-1.1-1.61-1.63-3.43-2.68-5.12-1.5-.92-2.66-2.88-2.25-4.75.64.69,1.42.64,2.24,1.07.79,1.88,1.32,4.12,3.12,5.6.14-.16.1-.11.53,0,0,1.28,1.51,1.39,1.95,2.35.25.59-.1,1.12.29,1.55,2.09,1.48,4.06,3.21,5.07,5.93,1.34,1.23-1.07,3.13.73,3.79.36.8,2,1.34,2.78,2.08,1.34.21,2.13,1.05,3.12,1.76,1.45-.35,2.85,1.36,4.15,1.65.39,0,.73-.1,1.12.11,1.49,1.58,2.3-1.69,3.9-.16,1.57.27,1.71,1.98,3.31,2.73.98.53,1.66.27,2.58.74,1.08.84,1.87,1.04,3.27.64.35,1.74,1.87,2.03,2.53,3.53.24.8-.24,1.55.49,2.08h.49c-.1-.11-.1-.32,0-.48.05,0,1.7,1.12,1.85,1.44.19.43.19.96.88,1.13.16.75,1.25-.18,1.71.37.43.73,1.98,2.46,2.39.64-1.17-.48.82-1.73,1.32-1.87.54,0,.68.69,1.22.96-.1.21-.29.32-.29.53.04.13.53.49.67.36-.42,1.11.82,1.08.8,2.26-.33.92-.13,1.86.05,2.83-.26.38-.21.73.29.96-.29,1.44-1.56,1.07-2.1,2.24-.39.86-.73,2.3-2.05,2.3.21,2.35-1.02,2.14-1.02,3.36,0,.74.1,1.81.78,1.81.34,0,.29-.26.73.05-.19.86-1.07,1.07-1.51,1.87-1.18,1.41-.12,3.99,1.42,4.64.19.86.39,1.44,1.22,1.87,1.02,3.47,3.47,6.49,3.9,10.03,1.1,1.72,3.04,1.83,4.48,3.26.54.59,1.07.48,1.8.85,4.08,2.16,1.91,10.34,1.71,14.09.16,2.03-1.1,3.47-1.12,5.66-.43,1.6-.19,4.84-.19,6.56.06,3.71-3.66,6.56-2.49,10.36.18.09.6.96-.2.9-.31,1.17-.97,3.47.2,4.22.42-.05.59-.82,1.17-.59.27.13-1.56,8.28-1.61,8.71-.73,0-.39-.97-1.27-.97-.24,0-.44.27-.44.59h-.05c-.16.78.64,1.81.68,2.4,0,.85-1.13,1.23-1.13,2.19.06,1.17.9,3.29.73,4.7.13,1.15,2.15,1.62.98,3.1.15.11.25.21.39.27-.05.48-.92.43-.92.9.75.87,1.24,1.96,2.83,1.98-.03.81.9.73,1.46.7,0,.96,1.07.96,1.8,1.22.78.27.39,1.71,1.51,1.71h1.36c.28-.15.69-.28,1.02-.22.75-.31,2.09-1.06,3.12-1.12v-.07c-4.35-1.78-3.37-2.56-5.12-6.02-.3-.05-.73-.69-.73-1.23,0-1.01.25-1.76.83-2.4.44-.48,1.22-.16,1.56-.91.03-2.56,2.15-1.96,2.44-4.21,0-1.66-2.19-.92-2.19-3,0-.91.68-1.66,1.46-1.87Zm-18.72-145.46c1.07-.37,3.36-1.01,4.58-1.01.01,0,.05-.04.1-.09-.05.05-.09.09-.1.09-.12,2.27-3.56,1.29-5.12,1.55.05.09.1.21.16.34-.49-.43-.1-.79.38-.88Zm-.05,1.82s0,0,0,0c-.2.11-.47.26-.77.42.3-.16.56-.31.76-.42Zm-.78.43c-1.46.64-4.43,2.8-4.43.1.31.75,1.12.83,1.42.11.62-.78,2.38-.26,3.02-.21Zm-13.27-11.15c2.36.55,1.55-3.14,3.37-.18.1-.21.05-.64.05-.75.6-.26,2.53,1.68,2.83,2.03-.06,2.67,2.58,2.41,4.24,3.42h1.27c2.1,1.03,1.31,3.75-.54,1.49-.2.86-.63,3.42-1.32,3.42h0c-.49-.43-.49-.8-.68-1.65-.49.16-.39.37-.98.37.98-2.01.34-3.03-1.66-3.58-.8,0,.01,1.29-1.76,1.41-.87.45-.41,3.06-.53,4.04.23,1.68-1.43,3.51-2.1,1.22,0-1.38.39-4.11,1.22-5.29-.49,0-.68.44-1.17.75.72-2.47,3.08-2.53,5.31-2.56v-.64c-1.02,0-1.61-.69-2.78-.69-.66.17-1.82,1.11-2.2-.11h-.97c.2-.43.54-.59.54-1.33-1.13.23-3.56,2.97-4.19,1.33-.49.14-1.03.5-1.61.38,1.12-1.55,3.21-3.08,3.65-3.08Zm-66.15-22.82c-.41,0-.83-.25-1.21-.6.9.9,1.7.69,2.17-.44-.32.41-.45,1.04-.96,1.04Zm2.29-1.6c1,1.1,1.67,1.73,2.39,2.69-.72-.96-1.39-1.58-2.39-2.69Zm5.07,7.1c-.81-.78-.73-2.2-1.56-2.77.9.59.73,2.28,1.78,2.92-.08-.04-.16-.08-.22-.15Zm.23.16c.25.11.56.12.79.3-.23-.18-.54-.19-.79-.3Z"/>
        <path class="cls-3" d="m360.43,48.86c0-1.76-3.02-2.14-3.02,0-.06,1.69,2.8,1.34,3.02,0Z"/>
        <path class="cls-3" d="m352.38,83.52c.85-.21-.68-1.1-1.42-.91.05.1.05.27,0,.37.29.32.98.54,1.42.54Z"/>
        <path class="cls-3" d="m355.8,59.76c.49.43.63.43,1.12,0-.59-.32-.64-.7-1.12,0Z"/>
        <path class="cls-3" d="m362.52,48.49c-.26-.6-1.18-1.28-1.61-.32.17.66.96.44,1.61.32Z"/>
        <path class="cls-3" d="m374.71,61.14c.37-.46.3-2.26.29-2.83-.67-.62-.45-.37-.44-1.6h-.83c-.18-1.21-1.9.45-2.44-2.67h-.63v-.8c.2.16.44.11.73,0v-.64c-.44.11-.53.16-.97-.11,2.02-1.94,3.22,1.55,4.58,2.62v-5.31c-.33-.33-.47-.97-.54-1.64-1.02-.11-2.34-.64-2.44-1.87-.63,0-.93-.16-1.37-.43.44-.8.83-.8,1.61-1.23-.62-.86-1.06-.3-2.19-.59.39-.64,1.02-.59,1.71-.75-.37-1.19-1.18-1.39-2.2-1.28v-.91c-1.36-.16-2.1-1.02-3.41-1.49.02-1.42-1.96-.99-2.83-1.07-2.93-.74-1.81-3.7-6.68-3.47-1.6.48-1.06,2.09-3.07.8-1.07.45-1.21,1-.97-.54.5-4.52-6.83-3.41-7.17-.37,0,.53.49.91.49,1.44-.81,1.91-1.81,1.07-1.46-.8-1.49-1.21,1.33-2.35,1.7-3.31-2.51-1.29-5.56.29-5.85,2.94-1.17.44-1.22,3.05-.24,3.84,0,0,2.24.21,2.68.54v.69c-.83-.11-1.56-.43-2.19-.16.1.75.83.85,1.07,1.6h2.34c1.82,2.25,6.92.44,8.87,1.07-.29,3.19,2-.64,2.68-.8.54,0,3.17,2.46,3.61,2.94-.69-.04-1.73.72-.78,1.33.63,0,.93-.64,1.56-.64,2.41.7,5.93,3.98,2.68,6.41-1.52.28-1.6,1-.34,1.92-1.83,1.53-5.3-.29-6.24,2.19,0,.74,1.56,1.5,2.1,1.5.59,0,.88-.8,1.47-.8.75.45,1.29.53,1.8-.43,1.41.91,2.19,1.92,3.8,2.67-1.19,1.86,5.49,2.82,6.82,3.63.15.06.24.64.49.64,1.89-1.42-2.33-3.25-3.07-4.38h.73c.53.75,3.66,2.02,4.54,2.14Z"/>
        <path class="cls-3" d="m371.84,144.18c-.02.69,1.65.85,2,.27-.42-.41-1.77-.96-2-.27Z"/>
        <path class="cls-3" d="m334.59,27.77c0-.69-1.17-1.76-2.05-1.76-1.12,0-.92,1.22-1.46,1.22-.1,0-.64.27-.64.81.97.35,4.43,2.97,4.15-.27Z"/>
        <path class="cls-3" d="m375,100.69v-2.47c-.95.35-1.9,1.03-1.9,1.9.32,1.19,1,1.86,1.9.57Z"/>
        <path class="cls-3" d="m334.1,30.71c-1.34.15-1.4.77-1.32,1.33h-1.12c.09,1.26-.02,2.47.78,3.48-.05.26-.05.91-.05,1.6h.97c.59-.64.98-.8,1.13-1.76h-.64c.29-1.07.29-.37,1.37-.37,1.46,0,2.15-1.17,2.78-2.13.46-.29,1.04-.83.88-1.5-1.76,0-3.12-.64-4.78-.64Z"/>
        <path class="cls-3" d="m351.16,57.67c-.28-2.16-2.55-1.57-3.8-3.1-.15.1-.29.21-.44.43-.25-.53-.49-.69-.73-1.5-1.69.35-1.6,2.79-1.61,4-.14.96-1.04.49-1.22,1.76.39-.05,1.32-.22,2.1,0-.36.8.33,1.6.73.64.68.32,2.29-.8,2.29-1.98.29.11,1.85,1.34,1.85,1.34.97.01,2.13.11,2.93-.58-.44-.65-1.32-.37-2.1-1.02Z"/>
        <path class="cls-3" d="m322.55,43.36c.88,0,1.07.21,1.95-.43-.93-.8-5.02-1.98-5.02-3.68-.3-2.51-2.42-3.49-.24-6.3.04-1.66-3.79-1.54-3.12.27-.78.43-.49,0-1.37,0-1.9.12-.09,3.24.24,4.38-2.04,2.01-.31-3.66-4.14-3.05.1.32.2.48.24.96-.54.16-.93.27-1.46.38-.29-1.72-2.78-2.12-3.71-.64.05-5.73-12.76,4.13-3.85,3.79-.54.37-1.95-.05-1.95,1.12.7,2.46,5.9-.17,7.56,1.5-2.11.17-4.98,0-6.34,1.33.91,2.42,3.16,1.49,4.97,2.14.58.48.05,1.34.88,1.34h4.38c1.03-.8,2.25-.38,3.51-1.07.73-.37.39-.96,1.27-.96,1.65.41,5.21,3.16,6.78.64-.19-.16-.44-.32-.49-.75-.76.2-1.08-1-.1-.96Z"/>
        <path class="cls-3" d="m355.7,44.54c-.58,0-1.7,1.23-1.12,1.23s.98-.59,1.12-1.23Z"/>
        <path class="cls-3" d="m176.92,187.22c-.05.32.29,1.12.78,1.12.07-.59-.21-.81-.78-1.12Z"/>
        <path class="cls-3" d="m329.57,35.25c.57-1.49-.6-1.08-1.66-.85,2.07-1.58,2.36-2.83-.87-2.51-1.72-.57-5.24,1.53-1.71,1.76v1.44c-1.02.2-2.12-.53-2.92-.64v.91c1.41,1.55,2.92,1.33,4.29,2.83.29.32.39.91,1.07.91.44,0,.53-.64.97-.8,1.56-.64,1.72.14,1.95-2.78-.29-.11-.93-.21-1.12-.27Z"/>
        <path class="cls-3" d="m353.6,63.81c.49,0,.59-.75.88-1.17-.49-.64-1.61-.59-1.61.37,0,0,.63.8.73.8Z"/>
        <path class="cls-3" d="m349.46,60.72c-.05.31-.69.8-1.08,1.33v.69c.78-.11,2-1.17,2.44-1.81-.59-.27-.39-.27-1.36-.21Z"/>
        <path class="cls-3" d="m348.63,54.09c-.34-.48-.34-1.17-.97-.85-.05.37.34.8.97.85Z"/>
        <path class="cls-3" d="m327.52,44.97c-3.28-.12,2.36,1.76,3.17,1.86.54,0,.73-.53,1.22-.85-.29-.75-2.29-2.73-3.02-2.73-.98,0-.78,1.5-1.37,1.72Z"/>
        <path class="cls-3" d="m34.62,9.72c0,.27,2.39.16,2.68,0l-.24-.64c.44,0,.93.21,1.22-.27,0-.21.05-.32,0-.8-.44.1-1.27.06-1.56,0,.1,0,.39-.16.49-.43h-1.61c0,.1-.05.27,0,.69-.58.22-.97.64-.97,1.44Z"/>
        <path class="cls-3" d="m31.89,40.37c.04.09.13.14.2.21l-.2-.21Z"/>
        <path class="cls-3" d="m21.95,9.72c-.12.1-.23.17-.34.21v.21l.34-.43Z"/>
        <path class="cls-3" d="m29.75,10.68c.11.54,1.21.56,1.22-.16,1.57,1.13,1.03.04,2.58-.27-.58-1.06-3.41-.7-3.8.43Z"/>
        <path class="cls-3" d="m27.56,8.17c.1.05,2.09,1.01,2.44,1.01,1.2-.53,2.33-.53,3.41-.85-1.07-.48-1.41-.59-2.78-.8.49-.53,1.47-.86,2.24-1.39,0-.27.24-.53.44-.69.11-1.13-.93-.5-.97.26-1.42,0-1.46,1.07-2.92,1.07v.7c.48-.32.29-.11.82.1h-2.04c-.25.21-.34.32-.63.59Z"/>
        <path class="cls-3" d="m37.45,27.76c.58,0,.78-1.07,1.07-1.23,1.75-.8,14.24-2.96,7.55-5.45-2.9-.02-5.79,4.54-8.78,2.4-.93,0-.93.64-1.56.64-1.8,0-3.17,2.56-4.39,2.56-1.32.37-3.11-.02-2.1,1.87-.35,2.33-3.85,2.18-1.81,4.38-1.25.26-2.71.84-2.34,2.3-.26,1.11-2.83,1.92-.58,3.2,3.6-.63.62,2.58,3.41,1.87.07.63,3.74.3,4.15.37-5.73-3.11-1.15-10.09,3.02-11.48.88-.27,1.12-1.45,2.34-1.45Z"/>
        <path class="cls-3" d="m33.4,41.65c.02.77,1.77,1.92,2.34,1.07,0-1.07-2.34-2.13-2.34-1.07Z"/>
        <path class="cls-3" d="m22.1,9.62c.58-.48,1.21,0,1.31-.97-1.25-.94-2-.28-3.26.16-1.69-.53-5.2-1.32-6.59.32,1.61.79,3-1.23,4.39,0-.24.21-.49.32-.73.48.2.05.44.1.87.1-.39.1-.63.21-1.02.43.15.48.63.64,1.36.64h-.05c.66,1.22.94-.05,1.51-.64.66-.41,1.08.06,1.7-.21v-.32c.15.05.34.05.49,0Z"/>
        <path class="cls-3" d="m42.57,7.69l-.68-1.7c-4.26.78-3.08,3.66.68,1.7Z"/>
        <path class="cls-3" d="m194.03,239.28c-.19-.11-.29-.38-.29-.8-.15,0-.29-.05-.34-.21-.46.4-1.24.87-1.07-.27-.15,0-.34-.16-.34-.53-.58.23-1.24,1.23-1.22,2.08-.56-.03-1.03.61-.93,1.12-.69,1.1-2.14,2.78-3.66,3.05-.34,0-.59.32-.78.69-.32.68-2.64,2.07-1.71,3.15,4.01,2.9,5.31.43,6.63-3.68.39,0,1.56-.27,1.8-.27.1-.64-.14-.85,0-1.66.79,0,1.76-1.98,1.91-2.67Z"/>
        <path class="cls-3" d="m200.32,198.06c.49,0,.63-.53,1.21-.69v-.48c-.49-.13-2.22.45-1.21,1.17Z"/>
        <path class="cls-3" d="m198.71,234.9s.09-.16.14-.16l.2.27c.48-.81.29-1.93.97-2.67-.7-1.12-3.49,2.16-3.85-1.98-.36-.04-.73.05-.73.53h-.29c-.31-.49-1.15-1.61-.63-2.08-.53-1.12-1.57-1.23-2.44-2.34.29,1.28.97,3.04,2.1,3.26-.38.64.09.98.39,1.55v-.03c.32.97.3,2.37-.39,3.13-.25.27-.69.32-.69.86.85,1.71,2.71-.07,1.22,3.15.87,2.25,2.71-1.24,3.21-2.24-.39-.67-.06-1.1.78-1.23Z"/>
        <path class="cls-3" d="m340.83,28.84h.58c-.09,1.67,5.18.48,6.34.8.44-.32.54-.58,1.22-.69.75,1.67,5.11.81,5.02-1.07,0,0-.29.06-.63-.05.05-.21.14-.37.24-.5.14-.01.31-.05.39-.09-3.16-4.14-9.11,1.65-13.36-.8-.39.52-1.28-.14-.44-.54-.68-.59-1.9.21-2.19-1.23h1.95c-.44-.69-2.68-.38-2.29-1.61h-.88c-1.89,1.62-2.82-1.54-5.22-1.44-.58,0-1.46,0-1.46.8.45.65,3.68,2.73,4.48,1.34.83.91,1.07,1.76,1.95,2.72-2.17,1.61,3.27,4.62,4.29,2.35Z"/>
        <path class="cls-3" d="m108.48,28.57c-1.27-.07-1.47,1.57,0,1.44,1.37.12,1.53-1.59,0-1.44Z"/>
        <path class="cls-3" d="m0,99.04c.96-.3,2.52-1.1,2.83-1.53-5.11-.51.18-2.4,2.68-3.41,0,0-.63.8-.88.91.09.32,1.37,1.77-1.46,2.56,1.22,3.15,6.83,2.61,6.83,6.83.04,0,.22-.03.25-.05-1.33,1.27-3.48,1.37-5.22,1.23-.54-.05-2.44-.42-2.44-1.06-1.11,0-1.25-.93-2.59-.8v9.76c.14-.14.28-.28.45-.41.45.6,1.32.46,1.9-.05v.53c-.78.64.01,1.74-.1,2.83,0,1.23-.97,1.49-1.27,2.56-.39,1.06-.32,2.05-.98,3.06,0,.17-.04.93.08,1.06-.03-.06-.05-.12-.08-.18v5.3c.21-.63.62-1.73.8-2.38-.85,2.79,2.04,4.37,2.86,6.93,0,2.24.84.93,1.9,2.4,1.26,1.91.17,5.62,2.94,6.06.02,2.79,3.06,3.57,3.05,6.01-.1.48-.48,1.49.05,1.54-.21,1.15,1.01,2.46.92,3.33.13.07,1.38.74,1.52.74l.3-.2c1.02,0,1.15-.44,1.99-1.08,1.6.48,3.44-1.48,4.68-1.98,1.17-.32,2.68-.69,3.8-1.28-.98-1.6,2.72-2.19,4.1-2.51,0-.64.92-1.54,1.36-1.54.73,0,.68-1.55,1.42-1.55.98-.29.35-2.74,2.14-2.4.08-1.6,2.71-2.64.49-3.79v.05c-1.35-2.71-4.48-1.02-3.95-5.55-1.75,1.44-2,3.63-5.26,3.63-2.83-.09-1.62-1.65-1.71-3.42-.49.11-.39.8-.97.96-.05-.48-.34-.64-.34-1.23-1.84-.62-4.39-5.6-1.91-6.78,1.78.11,2.82,2.24,3.22,3.79.54.59,1.32.26,1.9.91.84,1.6,2.51,1.62,4.1,1.5,1.29-2.02,2.01.22,2.53,1.33,1.7.57,4.81.96,6.34,1.12l1.71-.11c.1-.11.24-.27.43-.37l1.27.37c4.85-2.21,2.49,3.95,7.95,3.74-.32,1.04-1.05.69-1.85,1.01,1.75,2.77,3.4,3.68,4.77-.05h.39c-.67,1.43.65,2.75-.04,4.46l-.04-.04c.22,3.18,2.05,6.44,2.95,9.31.27,1.39.69,2.51,1.61,3.89.56,1.16.77,2.99,1.7,4.01.34,1.07,1.26.42,1.37-.53.25-.53.34-.33.93-.64.51-.67.2-1.72,1.42-2.02l.24-.06c-.57-1.65.21-2.75.34-4.59-.29-1.77-.92-3.58,1.56-3.95,2.32-2.1,4.15-4.85,7.12-6.41.44-.48.39-1.07.58-1.82.15-.47,1.17-.53,1.51-1.33,1.04,1.08,3.9.57,3.8-1.39,2.01.17,1.7,1.95,2.24,3.37,1.12,1.44,2.52,2.52,3.02,4.54.55.8.08,1.35.05,2.3.14,3.03,2.67.21,3.32-1.12.29.32.15.53.43.85,1.52-.07.21,2.7.93,2.67,0,1.72,1.27,3.1,1.27,5.45,0,.58-.39,1.8,0,2.03h-.24c-.15.8-.3,1.61-.24,2.35.44.32.15,0,.63,0,1.71,1.28,1.79,4.36,2.54,6.57.81,2.33,2.92,4.69,5.22,4.11-.18-1.36-1.01-2.06-1.36-3.47,1.39-4-4.46-3.86-4.58-7.16h.09c0-1.55-1.66-.91-1.66-2.57,0-1.44,1.42-1.86,1.42-3.47.04-.44-.61-1.44.1-1.6,1.01-.13,1.24.62,1.51,1.38,3.07.51,1.85,2.34,3.27,2.51,0,.81.98,1.07,1.7,1.07.05.28.15.7.34.81-.4.18-.15,1.72.2,1.82.46-.08,1.42-1.19,1.17-1.92.15,1.31.72-.35,1.22-.7,1.27-.69,1.41-1.27,2.98-1.7,2.24-5.5-2.33-7.83-4.64-11.9,0-2.29,2.39-2.67,3.36-4.33.83.43,1.42.11,2.35.59-.26,1.45.39,1.96.88.22,1.15-.9,3.14-.86,4.14-1.65,1-2.59,1.5,1.69,5.95-2.94.39-.21.64-.42.73-.96,1.17,0,1.5-1.98,1.95-2.99.29-.65,1.61-2.77,2.34-2.94,1.2-3.17.69-6.44-1.22-9.03l.05-.05h-.1s-.05-.86-.05-1.02c-1.77-.69-1.56-1.4-.29-2.67.44-1.44,2.53-1.44,3.51-2.51-.39-.59-1.12,0-1.81-.48-.34-.21-.53-.64-1.08-.64-.39,0-.39,1.18-.68,1.18-1.33.39-1.59-.67-2.24-1.55-2.29-1.11-.35-1.74,1.07-2.19,1.18-.61,1.8-2.05,2.88-2.67,1.9.68.18,1.98,0,3.2,1.98-.31,3.35-2.49,5.61-1.02-.24.54,0,.54,0,1.18,0,.53-.54.48-.54,1.12,0,.27.15.91.49.91,1.04-1,3.13,1.11,1.22,1.5v.54c.1.1.2.32.49.37,0,.32.24.59.24.91-.03.28-.85,1.49-.19,1.76-.05.27-.29.43-.29.7h.73c.29-.32.39-.32.97-.49.96-1.04,2.71-.18,2.49-2.67.32-3.2-2.28-3.8-2.63-6.35,2.79-.58,3.14-3.86,5.07-5.45,5.44,2.71,7.8-4.17,10.77-8.03.78-.85,1.86-2.59,2.15-3.98-.15-2.75.87-4.11,1.38-6.96,0-1.44-2.11-4.25-3.09-3.45-2.89,2.39-4.39-1.28-4.39-1.6,0-1.5,2.63-3.15,3.65-4.27,1.52-1.66,3.51-4.43,5.61-5.07,1.85-.53,7.66-1.07,9.26-1.07,2.95.45,4.15,1.44,6.82,1.07.92-5.01,3.9-6.15,8.54-5.61-.83.69-1.18,5.32,4.14-1.87.54-.11,3.09,1.04-.74,3.74-1.33.94-2.53.48-3.41,1.87-1.02,1.61-1.95,3.63-3.41,4.54-4.64,1.67-2.82,10.89-.98,13.88.98-1.61,1.66-4.54,3.66-5.08-.24-1.49,1.95-1.81,1.95-2.93,0-1.76,1.7-2.25,1.7-3.21,0-.64-.47-1.29,0-2.4,3.94-9.23,7.55-4.27,9.02-4.27,4.34,0,7.41-6.06,11.21-6.14,7.24-.16,1.47-3.15,1.47-4,0-2.3,2.83-1.93,3.41-3.2.26-5.68,6.82,3.23,8.53,2.67,2.13-1.28.55-3.49,4.63-4.11-1.75-2.57-7.46-4.01-10.24-5.76-3.6-2.13-12.84-7.51-17.06-4.01,1.51,5.19-2.25-.05-3.18,0l-11.21-.26c-.58-5.64-8.03-2.53-11.21-4.01-2.43-4.21-7.53-4.14-12.43-4.54-3.8,0-4.34,2.19-4.63,4.27h-7.8c-1.37,0-1.56-1.23-3.17-1.34-.55,5.06-4.47.85-4.14-1.87,0-.38,3.93-3.09-6.1-4.01-1.26-.12-1.95.48-1.95,2.13-4.32.12-12.91-.45-16.48-3.47-6.4,5.72-4.97,2.14-4.97,2.14,1.51-2.08,16.24-6.43,4.15-9.61h-5.12c-1.53-4.87-6.49-2.73-8.53.27-.97.8-7.27,3.58-6.73,1.07-1.61.54-8.47,1.05-12.04,4.54-.75.73-.98,2.94-2.1,2.94-2.69-.18-9.93-.43-6.92,4.54-1.07.74-1.46,0-4.87,0-2.89,4.24-2.63-.64-3.31-1.6-.25,1.71-1.26,2.45-2.53,3.2.39,1.5,2.47,3.05.97,4.81-1.02,1.21,1.99,5.18.4,5.18-2.05,0-2.59-8.07-2.59-9.72,0-1.82,2.71-2.56-1.46-3.47-2.1-.46-6.09,3.31-6.09,5.34,0,2.46,1.02,4.06,2.2,5.34,2.71,4.65-3.77-.54-6.19-1.22-6.68-1.9-4.52.59-4.54.96-.22,4.11-1.81.8-2.69.8-1.51,0-4.6,2.25-6.82,1.07-1.56-3.97-10.2,7.16-11.45,2.94.75-2.16-.34-6.83-2.44.27,2.03,3.4-.52,2.37-3.17,2.67-1.37.48-.7,5.58-6.34,2.94v2.14c-2.78-.27-2.44-3.53-3.41-5.08,2.1,0,3.24-.07,5.27.51,2.71.78,8.16-2.94-.15-5.85-1.24-.43-3.25-1.42-5.12-2.28v54.59Zm.86,26.15s-.01-.08-.02-.13l.03.06s0,.04,0,.06Zm89.77,28.02c0,.11-.06.2-.14.28.31-.4,0-.76-.13-1.54.15.58.27,1.09.27,1.27Zm-.39.58c-.28.65-.45,1.14-.63,1.64.18-.5.35-.98.63-1.64Zm-.77,2c-.06.16-.13.33-.2.51h0c.08-.18.14-.35.21-.51ZM18.39,95.96c3.38-1.58,7.84-3.28,9.55,1.28-.74.64-1.7.05-2.58.05-1.32,0-3.26,1.39-3.41,1.33.96,2.36,3.33,3.39,3.36,6.14.39-.21,1.32-.74,1.66-.8.05.8.83,1.23.83,2.03-1.06.02-2.28-.32-2.43,1.34,3,.87.63,3.24,1.85,4.59v.96c-1.86.43-4.18.86-5.36-.96-.54-.11-1.17.21-1.41-.37-.29-.64.15-1.07-.24-1.71-1.02-.8-.73-1.12.05-.8.58-.86.58-2.14,1.36-2.56-2.39-1.52-3.18-5.52-4.39-7.96,0-.26.92-2.24,1.17-2.56Z"/>
        <path class="cls-3" d="m109.6,29.64c-.16.08-.27.27-.39.38l.39-.38Z"/>
        <path class="cls-3" d="m19.42,43.9c-1.86,2.29.96,2.21,2.29.96v-.7c-.93-.26-1.56-1.37-2.29-.26Z"/>
        <path class="cls-3" d="m199.78,199.55v-.63c-.24-.05-.44-.22-.58-.48-2.04.53-.86,1.95.58,1.11Z"/>
        <path class="cls-3" d="m186.96,42.83c.7-.08.46-.86.15-1.17h-1.61c.29.64.78,1.17,1.47,1.17Z"/>
        <path class="cls-3" d="m49.39,33.11c-.45,1.18,1.77.05,1.95-.05-.64-1.06-1.82-1.53-1.95.05Z"/>
        <path class="cls-3" d="m200.27,38.98c0,.27.19.53.49.53,9.09.08,1.13-4.73-.49-.53Z"/>
        <path class="cls-3" d="m150.15,32.57h1.46c-.13-2.61-3.67-2.73-4.63-.54l.25-.26c.93.37,2.05.26,2.92.8Z"/>
        <path class="cls-3" d="m354.73,34.98c.83,0,1.26-.53,1.8-.53.82.15,2.02.89,2.34-.48-1.49-1.3-3.68-1.89-5.75-2.08-1.28.06-.86,1.64.15,1.92-.34.9.49,1.17,1.46,1.17Z"/>
        <path class="cls-3" d="m375,.76c-.06-.04-.12-.07-.2-.11l-3.9,1.23c.39-.11.54-.21.88-.59-2.43-1.67-6.58-.34-9.16-1.28-.68,0-.88.91-1.56.91-.73.04-1.76-1.29-2.44-.27-.96.26-6.35-.68-6.73.69-.64.59-.15.11-.98.11-1.41,0-2,1.12-2.44,2.4-.44-.16-2.34-1.17-3.27-1.17-1.02,0-.39,1.17-1.95,1.17,0,.22-.2.43-.39.43-1.7-.08-5.39.29-5.95,1.97h1.07c.35-.44,1.67-.39,2.19-.38-.58.22-.88.38-1.36.91,1.41,1.3,2.16-1.2,3.8-.42-1.27.42-2.49.27-3.02,1.65.39-.05,1.37,0,2.29,0-.63.06-.97.32-1.32.59.57.68,2.81,1.73,3.75.59h.63c-.28,1.11,2.18,1.32,2.92.53,1.52.73,4.19.43,5.36-.8h.73c-.97,1.43-3.19,1.63-4.78,1.49-1.1.72,1.06,1.66,1.46,2.19-2.96-.67-1.67-2.58-6.34-1.92.1.42.19.64.73.64-.49,0-1.22-.1-1.22.43,0,.96,3.31.96,3.31,2.67-.14,2.2-4.34.3-4.14,3.84h.73c.22-.39.82-.4,1.22-.37,0,1.28,1.51,1.92,2.19,2.67h-.88c-1.51-2.03-7.02-2.12-2.63.64-1.02.8-3.56,0-3.56,2.14.05.59.88.51,1.07-.11,2.1.71,4.24,1.63,6.09.53,0,0,3.66,0,3.66,0,.98,0,.49.8,1.61.8,2.1.1,6.34-2.62,1.95-2.3.02-1.85,3.13-1.13,1.7-3.31h2.44c.83-.64,1.17-1.92,2.2-2.45-.29-.75-.83-.97-1.41-1.29.92.11,1.51.21,1.41-.96h-1.37c1.48-1.31,3.88-.96,5.61-1.34,2.42-3.62,6.57-4.39,9.94-6.44v-.18c-1.22,0-3,.34-3.46-.16,1.2-.64,2.37-.78,3.46-.9V.76Z"/>
        <path class="cls-3" d="m148.2,29.74c0-.75-1.31-.86-1.31,0-.2.99,1.3.87,1.31,0Z"/>
        <path class="cls-3" d="m373.01,14.69c-1.07.69-2.83-.11-4.15.37-.93.32-1.46.91-2.34,1.23-6.56.67.12,3.4,2.1,3.74.51-.11,2.11.35,2.2-.53h1.95c-.15.59-.15.8-.63,1.17h-2.78c-.83,1.11-3.06-.39-3.56,1.49.93.38.63,0,1.71,0,.58,0,1.17.59,1.95.91-.19.48-.53.54-.97.86.69.84,2.78,1.67,3.8,1.12-.14-.05-.34-.27-.49-.43.96-.73,2.39.78,3.22-.13V8.25c-3.11,1.84-7.56,3.08-.68,3.61,0,1.33-.54,2.29-1.32,2.83Z"/>
        <path class="cls-3" d="m155.76,25.48l.49.42c-.45,2.27,7.57,2.59,5.27.64-.19,0-5.31-.69-5.75-1.06Z"/>
        <path class="cls-3" d="m78.98,6.78h-1.8c.29.7,1.22.53,1.95.42l-.15-.42Z"/>
        <path class="cls-3" d="m84.98,21.73c.58,0,.88-.32.98-1.07h-.73c-.2.16-.44.37-.73.53.05.27.25.53.49.53Z"/>
        <path class="cls-3" d="m153.47,25.21c-1.57-.18-5.7-3.11-5.6,0-1.32,0-1.42-1.71-2.93-1.71-4.09.11-1.4,6.77,1.31,3.74.77,1.22,2.02-.12,2.93-.27,1.13.85,1.06.46,2.1,0,0,0,1.32,0,1.32,0,0-.42.68-1.01.88-1.76Z"/>
        <path class="cls-3" d="m90.93,18.26c1.11-.35,3.07-1,4.29-1.07.88.16,3.42-.05,3.42-1.33-.3-1.07-2.58-2.91-3.56-1.6.4-.43.15-.43.15-1.18-2.27-.37-2.96,1.75-4.14,3.2-.67.15-1.53,1.95-.15,1.98Z"/>
        <path class="cls-3" d="m79.37,12.39c.58,0,2.19-.11,2.29-1.07-1.71-1.13-4.93-1.11-2.29,1.07Z"/>
        <path class="cls-3" d="m140.95,25.1l-.39-.43c-.99.84.25,2,.47.52h.01s-.01,0-.01,0c0-.03.01-.06.01-.09h-.1Z"/>
        <path class="cls-3" d="m90.44,14.69c0-.37-.39-.54-.73-.65,1.45-.13.56-1.06,1.37-1.76-.66-1.09-1.42-1.14-2.59-1.07-.89-.19-1.47-.84-2.48-.54.98-.58,1.01-.87.93-2.03.19.05.09.16.59-.05-3.25-4.36-4.86-.68-8.05,1.07,1.85,1.18,3.47,1.16,5.6,1.23-1.56.53-2.04,1.12-3.65,1.71.73.43,2,1.92,2.58,1.92,1.67-.35,5.18,2.29,6.43.16Z"/>
        <path class="cls-3" d="m100.19,17.25c.21.7,1.56.96,1.61-.16-.44.22-.58-.05-1.61.16Z"/>
      </g>
      <g>
        <path class="cls-2" d="m132.26,119.3c0,.26.25.59.49.59.15,0,.34-.22.59-.22-.1-.16,0-.32,0-.48.05.27.1.59.39.7l-.19.74s-.49.75-.49.86c0,.21.29.85.68.85v-.32c0,.16,0,.48.15.48.69,0,1.07-1.65,1.22-2.61.14.1.29,0,.44,0-.09-.16,0-.37,0-.54l-.44-.43c-.15,0-.05-.38-.05-.54-.58,0-.88-.43-1.27-.43-.14,0-1.51,1.02-1.51,1.34Z"/>
        <path class="cls-2" d="m136.75,119.72c.63,0,.73-.85,1.17-1.33.15.05.34.38.73.38.49,0,1.08-1.87,0-1.87-.68,0-.82.91-1.66.64,0,.06-.92.81-.92.81,0,.26.09.37.39.58-.05.27.05.8.3.8Z"/>
        <path class="cls-2" d="m142.01,113.21c-.44,0-.73,1.65-1.56,1.65h-3.02c-1.27,0-1.71,1.34-2.73,2.09-.19.11-.63.21-.63.38,0,.21.34.21.68.21,1.02,0,1.9-.42,2.53-.74.39-.22.68.05,1.07-.16.14-.06.2-.43.49-.43.59,0,.88.32,1.46.48,0,.21-.15.59-.15.91,0,.16-.15.43,0,.43.34,0,.29.42.68.53.25-.53.83-1.39,1.17-1.39.15,0,.34,0,.49-.05-.05,0-.49-.64-.49-.86,0-.16.15-.43.3-.43.44,0,.39.91,1.41.91.39,0,.68-.33.98-.64h.49c0,.11.15.26.24.26.2-.75.64-.8,1.32-1.28-.05.37-.24.42-.05.85.58-.21.58-.74,1.17-1.07-.1-.32-.25-.53-.25-1.01,0-.69.54-1.01.54-1.49,0-.59-.15-2.24.34-2.4.15-.05.3.05.45-.11v-.32c0-.69.68-.8.68-1.66,0-.75-.68-1.12-.68-1.87,0-.37.05-.69-.1-1.07-.05-.16-.24-.27-.59-.27-.15,0-.05.48.1.48.05,0,.1.05.14.05-.58.53-.53-.16-.63-.16-.64,0-1.13,1.33-1.13,1.97,0,.27.19.27.19.64,0,1.71-1.65,3.95-2.68,4.33-.58.22-.68.74-1.42.74-.09,0-.24-.15-.24-.27,0-.21.1-.42.24-.59-.14.06-.78,1.34-.83,1.34Z"/>
        <path class="cls-2" d="m147.52,101.3c-.1.37-.88.75-.88,1.34,0,.21.25.32.25.53v1.22h.28c.39-.43.79-.21,1.17-.8-.19-.21-.92-.21-.92-.75,0-.91.83-.37,1.46-.37,0-.16.2-.38.34-.43.84.59,1.32.69,2.1,1.23.39-.64.74-1.87,1.76-1.87.73,0,1.07-.16,1.51-.48-.19-.05-.59-.37-.59-.69,0-.27.2-.37.29-.65-.29-.21-.64.11-1.02.11-1.9,0-2.49-1.71-3.8-2.67-.1.16-.3.32-.3.69,0,.21.25.31.25.53,0,.69-.34,2.78-1.17,2.78-.14,0-.34.05-.49,0l.1.11c-.15-.11-.25-.16-.34-.26v.42Z"/>
        <path class="cls-2" d="m154.55,99.7c-.1.16-.14.48,0,.48.44,0,1.02-.79,1.21-1.12l-.16-.14c-.38.05-.87.48-1.05.78Z"/>
        <path class="cls-2" d="m158.25,96.92c-.58,0-1.08,1.18-1.08,1.18,0,.05-.04.27,0,.27.68,0,.68-1.07,1.81-1.07v-.37c-.2.06-.44,0-.73,0Z"/>
        <path class="cls-2" d="m160.54,96.44c.39,0,.78-.75.83-1.07-.1,0-.68,0-.78.32-.05.16.1.43-.05.43-.1,0-.1.32,0,.32Z"/>
      </g>
    </g>
  </g>
</svg>