<?xml version="1.0" encoding="UTF-8"?>
<svg xmlns="http://www.w3.org/2000/svg" viewBox="0 0 977.06 503.36">
  <defs>
    <style>

      .cls-2 {
        fill: none;
        isolation: isolate;
      }

      .cls-3 {
        fill: #c2a26b;
      }
    </style>
  </defs>
  <g class="cls-2">
    <g id="_レイヤー_2" data-name="レイヤー 2">
      <g id="_01" data-name="01">
        <g>
          <g>
            <path class="cls-3" d="m390.38,226.41c0,.49.46,1.09.91,1.09.28,0,.63-.41,1.09-.41-.18-.29,0-.59,0-.89.09.5.18,1.1.72,1.3l-.36,1.38s-.91,1.4-.91,1.61c0,.39.54,1.58,1.26,1.58v-.59c0,.3,0,.89.27.89,1.28,0,2-3.08,2.27-4.86.27.19.54,0,.81,0-.18-.31,0-.7,0-1l-.81-.79c-.27,0-.09-.71-.09-1-1.09,0-1.64-.79-2.36-.79-.27,0-2.81,1.89-2.81,2.49Z"/>
            <path class="cls-3" d="m398.74,227.19c1.18,0,1.36-1.59,2.17-2.48.27.1.64.7,1.36.7.91,0,2.01-3.48,0-3.48-1.26,0-1.54,1.69-3.08,1.18,0,.11-1.72,1.5-1.72,1.5,0,.49.17.69.72,1.08-.09.5.09,1.49.55,1.49Z"/>
            <path class="cls-3" d="m408.54,215.06c-.82,0-1.36,3.07-2.9,3.07h-5.63c-2.37,0-3.18,2.5-5.09,3.88-.35.2-1.18.4-1.18.7,0,.39.64.39,1.27.39,1.91,0,3.54-.79,4.72-1.38.72-.41,1.27.09,2-.3.26-.11.36-.79.91-.79,1.09,0,1.63.59,2.73.89,0,.4-.28,1.09-.28,1.69,0,.3-.28.8,0,.8.64,0,.55.78,1.27.98.46-.98,1.55-2.58,2.18-2.58.27,0,.63,0,.91-.09-.09,0-.91-1.2-.91-1.6,0-.29.27-.79.55-.79.82,0,.73,1.69,2.63,1.69.73,0,1.27-.61,1.82-1.19h.91c0,.2.28.49.45.49.36-1.39,1.18-1.49,2.45-2.38-.09.69-.45.79-.09,1.59,1.08-.39,1.08-1.39,2.18-1.99-.2-.59-.46-.98-.46-1.89,0-1.28,1-1.88,1-2.78,0-1.09-.28-4.17.63-4.47.27-.1.55.1.83-.2v-.59c0-1.29,1.26-1.5,1.26-3.09,0-1.4-1.26-2.08-1.26-3.48,0-.69.08-1.29-.19-1.99-.09-.3-.45-.5-1.09-.5-.27,0-.1.9.18.9.1,0,.19.09.27.09-1.09.99-.99-.3-1.17-.3-1.19,0-2.1,2.48-2.1,3.67,0,.5.36.5.36,1.19,0,3.18-3.08,7.36-4.99,8.06-1.08.4-1.27,1.38-2.64,1.38-.18,0-.45-.29-.45-.5,0-.4.2-.79.45-1.09-.26.11-1.45,2.49-1.54,2.49Z"/>
            <path class="cls-3" d="m418.8,192.89c-.18.7-1.63,1.4-1.63,2.49,0,.39.46.6.46.99v2.28h.53c.73-.79,1.47-.39,2.18-1.49-.35-.39-1.71-.39-1.71-1.39,0-1.69,1.54-.69,2.72-.69,0-.31.37-.7.63-.8,1.56,1.09,2.46,1.29,3.9,2.29.73-1.19,1.37-3.47,3.28-3.47,1.36,0,2-.3,2.82-.9-.36-.1-1.1-.69-1.1-1.29,0-.5.37-.69.55-1.2-.55-.39-1.19.2-1.91.2-3.54,0-4.63-3.18-7.08-4.97-.18.3-.55.6-.55,1.29,0,.39.47.59.47.99,0,1.29-.64,5.17-2.19,5.17-.27,0-.64.09-.91,0l.19.2c-.28-.2-.46-.3-.64-.49v.79Z"/>
            <path class="cls-3" d="m431.87,189.91c-.19.3-.27.89,0,.89.81,0,1.91-1.48,2.26-2.09l-.31-.26c-.71.09-1.61.9-1.96,1.46Z"/>
            <path class="cls-3" d="m438.77,184.73c-1.09,0-2,2.19-2,2.19,0,.1-.08.5,0,.5,1.27,0,1.27-1.99,3.36-1.99v-.7c-.37.1-.82,0-1.36,0Z"/>
            <path class="cls-3" d="m443.03,183.85c.72,0,1.46-1.39,1.54-1.99-.19,0-1.27,0-1.45.6-.09.29.18.79-.09.79-.18,0-.18.6,0,.6Z"/>
          </g>
        </g>
      </g>
    </g>
  </g>
</svg>