<?xml version="1.0" encoding="UTF-8"?>
<svg xmlns="http://www.w3.org/2000/svg" viewBox="0 0 977.06 503.36">
  <defs>
    <style>
      .cls-1 {
        fill: #3264c2;
        mix-blend-mode: screen;
        opacity: .7;
      }

      .cls-2 {
        fill: none;
        isolation: isolate;
      }
    </style>
  </defs>
  <g class="cls-2">
    <g id="_レイヤー_2" data-name="レイヤー 2">
      <g id="_01" data-name="01">
        <g>
          <path class="cls-1" d="m185.44,369.17v1.49c-.46-.2-1.37-.49-1.55-.49,0,7.24-2.08,12.23-4.09,17.89-1.63,4.48-2.45,11.13-7.98,11.13-3.42.01-4.8-5.12-4.09-7.94-1.7-1.46-1.4-5.01.73-5.97,0,0,1.81-4.28,1.81-4.47-2.3-6.67-2.03-8.89,4.53-11.43,2.89-2.47,6.82-5.78,6.9-9.64,3.09.4,2.82,6.86,3.73,9.44Zm75.7-64.43c1.13,6.69,9.94.22,1.27-8.05,0,2.98-1.27,5.17-1.27,8.05Zm67.34,34.61c0-1-.45-2.38.47-2.78v-4.28c-.96-2.25-4.04-2.41-3.92-5.66-1.51.2-2.11-1.31-1.36-2.58-.28-.81-.82-1-1.54-.9.71-1.69-1.27-2.48-2.73-2.98-3.88-1.08-4.92-4.91-8.17-6.76-2-.49-1.64-3.72-4.36-4.27,0,0-2.99,0-2.99,0-.8-.56-1.31-1.05-2.37-.9-.2,1.32,1.57,4.34,2.45,4.78.82.19,1.72,0,2.08.89,1.73,5.31,2.96,2.8,4.73,6.27.49,1.98.69,3.68,2.72,3.98.12,1.04,1.41,2.05,1.81,3.37,1.43,4.62,4.96,7.38,8.53,10.54.1.09,1.73,2.69,2.18,2.69.64,0,2.45-.3,2.45-1.39Zm8.45-17.5c0,.49.91,4.07,1.36,4.17.66.07,1.42.31,1.09,1.1,1.2,3.21.02,6.76,5,4.97.03,1.08.04,1.61.9,1.98,1.09,0,1.54-1.09,2.27-1.09,1.55,0,2.55,1.18,4,1.59.39,2.87,2.36.54,4-.21,0-1.1,1.09-2.57,1.09-3.38-.78-1.26-.31-3.09,1.54-3.67.1-1.68.9-3.44,1.63-5.47,1.16-.64,2.59.73,2.91-1.19-1.46-.04-5.44-6.06-3.45-7.16-.09-.3-.28-.6-.36-.9,0,0,2.46-1.09,2.63-1.39-.18,0-.36-.29-.36-.5,0-.89,2-.3,2-1.19,0-1.99-3.82-.79-3.82-2.88.14-5.94-4.78.23-5.55,2.88-.76.9-3.15.23-3.82,2-.41.43-1.75.95-1.53,1.89-1.1,2.6-2.83,1.7-4.64,2.97-1.26,1.4-.91,4.49-3.71,4.49-1.27,0-3.18-.7-3.18.99Zm31.94,1.19c4.13-1.37,8.45,2.76,9.36-2.88.28,0,.36-.49.45-.8h-.54c-1.1.8-2.36,1.69-2.9,2.29-5.17-.32-10.17-3.88-10.52,4.47-.75,2.26-4.79,7.81-.64,8.15.31,1.26-.99,6.13,1.44,6.06,1.01,0,1.37-3.48,1.37-3.97-.24-1.88-2.11-4.75,1.27-4.48-1.25,3.52,1.36,3.27,1.09,6.06h1.17c0-1.1,2-.98,2-2.08-.54-.25-1.81-1.69-.91-2.39-.53-.3-2.26-3.87-2.26-4.17,2.53,0,2.72-2.19,4.81-2.88v-.8c-.55-.1-5.36,1.49-5.45,1.78l.19-.39c-2.17,3.88-5.4-5.46.07-3.98Zm-17.42,25.15c1.49.24,1.93,1.52,2.9-.39-.63-.29-.63-.6-1.44-.91-.81-.29-1.54.52-2.17-.19-.18-.19-.18-.89-.74-.89-1.63,0-2.8-.22-3.8-1.29.18.09,3.27-.2,3.36-.7-.44-.08-2.96.32-3.45.39-1.64,0-2.27-1.79-4.09-1.79-1.08,0-1.35,1.49-2.72,1.49-3.41,0-5.07-4.72-8.35-2.58-.95-1.18-2.6,1.12-3,1.69,3.76.91,1.05,2.94,6.62,2.69,1.83.58,3.28.69,5,.69.9,0,1.19,1.29,2.27,1.29,3.54,0,6.63.2,9.62,1.5-.09-.31-.27-1,0-1Zm19.07,1.3c1.17-.39,1.98-.69,2.63-1.98-2.48,2.56-6.68-1.28-7.9.99.2,1.79,4.08.71,5.28.99Zm-9.81-1.6c0,.3-.09.51-.09.8-5.36-1.89-3.25,3.41.74.3.36.29,1.08.48,1.53.39-.18-.19,0-.69,0-1.49h-2.18Zm5.18,2.79c-3.39-.52-3.66,1.67-.27,1.7-.21,1.23,1.19,1.91,1.63.59,0-1.19-1.36-.9-1.36-2.29Zm-9.81-2.88h-.82c-.39,1.42,1.17,2.59,1.65.7-.36-.19-.36-.7-.83-.7Zm22.43,3.09c1.45,0,4.44-.8,5.36-2.29-1.24-.61-5.74-.3-6.18,1.7-1.36.49-3.08.49-3.08,2.68.21,2.16,3.13-.26,3.63-.79.28-.3-.18-1.29.28-1.29Zm25.05-9.95c0-.69-.18-.29-.36-1.08-.63.09-.54.99-.54,1.7,0,.58-.91.68-.91,1.68.53,1.81,1.42.18,1.09-1.3.45,0,.72-.37.72-.99Zm-22.41-7.56c.32,1.74,2.05,2.65,2.54.61,0-.99-2.54-1.8-2.54-.61Zm4.71,0c.61.37,2.88.48,3.73.41,1.67.12,5.47,2.85,2.63-1-.55.13-1.43.44-1.63-.31h-4.09c-.17.21-.63.41-.63.89Zm-.36-15.8c-1.72,1.15-.27,3.38-.09,4.77.04,1-.27,2.98,1.18,3.19-.45-.69-.64-1.09-1-1.68v-.7c.72,0,1.72-.1,2.09-.2-.09-.8-.73-.99-.73-1.5,0-.58.91-.68.91-1.28-1.55-.4-2.18-1.19-2.36-2.59Zm54.01,22.28c.27,1.27,1.91,1.03,2.64,1.98l-.17-.18c2.02,1.71,3.8-.37,5.71-.81,0-1.8,1.91-1.39,1.91-3.49,0-.59-.27-1.48-.81-1.48-1.28,0-.73,2.19-2,2.88-1.06.33-3.06.58-4.54,1.1,0,0-2.72,0-2.72,0Zm-4.54.89c-2.18-1.19-2.09-3.88-4.99-4.87-.45-.1-1.18-.2-1.18-.99-2.55-1.73-6.53-1.56-8.89-3.48v-.11c-.17-.02-.34-.17-.45-.3l.2.22c-.46-.13-1.19-.4-1.57-.81h-2.46c-.53-.31-1.26-1.5-2.35-1.89-.27-.11-.99,0-1.08-.51-1.09.2-2.19,1.99-3,2.29-1.27.4-1.45.5-2.17,1.29-1.23,2.33-2.45,1.91-3.45-.31-2.29.27-1.08-3.36-1.36-4.46-4.39-2.08-3.59-2.91-7.71-.3-.55,0-1.27.3-1.27.88,0,1.4,2.18.8,2.82,2.2.72,2.15,3.44.78,5.08.79-.64,1.19-3.36.99-4.63,1.69.18.8,1.18.39,1.63,1.18.45.8,0,1.2.45,2.2.99.95,2.01-.29,2.27-1.49v.89c1.44-.5,2,2.09,3.36,2.09,3.21.17,6.9,1.15,8.7,3.78.46,1.49-.08,2.89,1.2,4.28-3.67,1.55-2.72,3.24,1.09,2.78,2.46-2.45,4.24,2.57,6.7,2.49,0,0,3.46,0,3.46,0,0-.71.81-1.1.45-2.4,3.98-5.76,7.47-.16,10.71,3.09.26,1.94,3.96,2.76,5.82,2.48.49.42,1.63,1.4,2.26,1.2,0-.7.64-1.2,1.19-1.6-2.23.12-1.38-.56-2.72-1.59-1.42.41-1.05-.91-1.82-1.29-2.42-.04-2.27-2.51-3.45-3.88-.18-.19-1.73-1.88-1.73-2.39,0-.89,1.73-.49,1.73-1.59,0-2.19-1.91-1.09-2.82-1.59Zm15.16-6.47c-1-1.09-1.81-2.29-3.54-2.88.27.8.91.69,1.63,1.2,1.17.78,1,1.9,2.18,2.48-.19.99-.19,1.7.91,1.89.17.19.36,0,.54,0,.24-1.59-.66-1.92-1.72-2.69Zm5.9,5.28c-.18,1,.19,2,1.27,2.19-.27,1.11.73,2.29,1.18.69,0-.3-1.9-2.49-2.46-2.88Zm17.52,13.32c-.08.59.54,2.08,1.46,2.08.13-1.1-.38-1.51-1.46-2.08Zm-3.99-1.58c-.01,1.26,1.95,1.89,3,1.39-.64-1-1.55-1.39-3-1.39Zm.46-3.88c.09.78,1.72,3.16,2.63,3.16-.46-1.48-1.37-2.38-2.63-3.16Zm-5.36-2.09h-.18c.16,1.3,2.57,2.28,3.54,1.69-.54-.89-2.36-1.49-3.18-1.99l-.18.3Zm-4.27-2.78l.46.3c0,.09-.37.09-.46.09l1.36.99h.82c-.55-.89-1.18-.59-2.18-1.38Zm-26.23,104.88c-.08,0-4.98-1.59-4.98,0,0,2.1,3,9.44,5.71,9.44,2.84-.78,5.54-7.46,3.27-10.42-1.28.39-2.81.98-3.99.98ZM.91,445.43c.09-.49.27-.69.27-1.68-.27.1-.73.1-1.18,0,0,.79.08,1.39.91,1.68Zm407.37-14.61c.82.9,2.18.7,3.18,0-1.28-.7-1.45-.89-3.18,0Zm-14.25-72.88h.9v-1.48c-1.35-.09-1.99.1-3.63.5.37.4,1.64.99,2.73.99Zm56.1,38.68c-1.72-1.89-5.17-3.59-5.17-7.55-3.97.69-2.75-3.7-4.64-5.77-6.23-3.75-6.25-4.46-8.44-11.43-.68-3.72-.32-5.93-4.54-6.66-1-.8-.54-2.59-.91-3.97-.55-1.9-1.73-3.69-1.99-6.38-1.55.9-1.1,2.19-2.54,3.38.06,4.4.72,23.88-7.26,14.42-2.26-.99-3.63-1.49-6.08-2.48-.36-.1-.36-1.6-.9-1.99-.53-.4-1.82-.2-1.82-.99,0,0,1.1-4.98,1.1-4.98,2.41-.9,2.89-2.88.27-3.79-3.81,1.88-7.02-.21-10.71-1.98.19,1.09,1.08,1.38,1.63,2.29-1.49,1.12-6.54.78-6.81,2.98,0,1.4-1.36,2.1-1.36,3.49,0,.9.27,1.59-.27,2.48-.85-1-2.63-1.01-3.36.3-.19-1.79-1.1-3.77-2.73-3.77-1.91,0-2.36,1.99-4.81,1.99-.19,2.29-2,2.68-2,5.47-.74,0-1.18-.4-1.91-.79-.46,1.1,0,2.58-1,3.28-.37-.69-.9-1.09-1.37-1.98-1.45.75-1.15,2.79-1.18,4.17-1.13,6.22-12.41,6.02-16.79,8.46-.99,1.08-3.09,3.57-4.8,3.78,0-.3,0-.7-.1-1-1.82.1-.72,5.94-1,6.96.05,3.08,1.54,4.19,1.1,6.46-.28-.3-.65-.79-.82-1.29-1.52,2.11.31,2.88,1.26,4.78,1.34,5.68,3.05,9.62,4.36,15.91,0,2.29-2.08,2.98-2.08,4.47,0,1.39,4.36,3.47,5.9,3.47,4.08,0,5.44-3.27,8.62-3.27,1.09,0,1.09-.8,2.54,0,1.99,0,3.54-.51,5.44-.71.72-5.06,6.44-3.28,11.07-4.97,3.52-3.19,12.53-2.74,15.71.7.72,1.1,2.73,5.97,3.36,5.97.18,5.67,5.14-3.49,6.54-5.18.08,1.49-.37,6.67-2.65,7.17.85,2.65,2.48-.54,3.19-1.2,0-.31.18-.69.18-.99,1.13.58,1.03,3.23.26,4.17,1.02.07,2.06-.15,2.9-.69,1.51,6.45,3.01,10.7,10.72,11.13,2.28,0,1.56-1.98,3.63-2.19.09.61,3.81,2.88,4.53,2.99.73-4.78,8.17-2.68,9.18-7.26v.19c.82-6.62,3.26-10.94,6.81-15.91.64-1.22.69-3.39.63-4.77,2.42-3.84,1.24-12.85-1.01-16.61l.1-.29Zm54.1,51.31c-.86.75-2.3,1.62-2-.51-.28,0-.63-.3-.63-.98-1.08.43-2.31,2.28-2.27,3.87-1.05-.06-1.92,1.14-1.73,2.09-1.25,2.03-4.05,5.21-6.81,5.67-.63,0-1.09.6-1.45,1.29-.6,1.27-4.91,3.86-3.18,5.86,7.8,5.39,9.69.91,12.35-6.86.72,0,2.91-.5,3.34-.5.19-1.2-.26-1.58,0-3.08,1.47,0,3.27-3.68,3.55-4.97-.36-.2-.54-.7-.54-1.5-.28,0-.55-.09-.64-.39Zm11.62-11.63c-3.01,1.37-6.39,1.69-6.45-3.09-.67-.07-1.36.08-1.35.99h-.54c-.58-.92-2.14-3-1.18-3.88-1.09-2.21-2.88-2.22-4.55-4.36.55,2.38,1.81,5.66,3.9,6.06-.7,1.19.16,1.83.72,2.88v-.06c.59,1.81.55,4.42-.72,5.83-.46.5-1.28.6-1.28,1.6,0,1.79,3.36.99,3.36,2.98,0,1.2-1.08,1.69-1.08,2.88.99,3.3,4.1-.22,4.71-2.2.18-.29,1.27-1.28,1.27-1.98-1.02-1.98.46-1.67,1.72-2.59l.38.5c.9-1.5.53-3.59,1.81-4.97-.18-.31-.46-.6-.73-.6Zm.27-60.46v-1.18c-.45-.09-.83-.4-1.09-.89-1.84.3-3.4,2.59-.17,2.48.72,0,.72.18,1.26-.41Zm.46-3.67c.4,2.03,1.62-.03,2.81-.4v-.89c-.55,0-2.81.1-2.81,1.29Zm-136.97-76.02c.09,3.72-1.32,1.32-2.04,3.42-.5.07-.75.51-.77,1.12-1.18.32-.66-1.26-1.96-1.42-1.49-.04-1.11,1.89-2.85,1.84-.28,1.12-.82,2.03-.21,3.1,0,.35-.69,1.99-.03,2,.92.01.8-2.83,1.64-3.69,0,0,.57.7.82.8.08-.09.26-.43.26-.43.16.18.33.44.82.44-.07-.26.01-.52.02-.77l1.15.03c.08.25.24.6.32.87-1.37,1.6.65,4.86,2.5,4.03.06,1.27,1.45.56,1.33-.5-.35-1.56-1.76-1.65-.19-3.04.16.26.4.44.48.7l-.04-.21c.14.48.73,1.96,1.01,2.04.03-1.47,1.03-1.96,1.05-2.92-.36-1.46-1.02-7.23-3.29-7.41Zm-19.34,3.43l.57.02c1.01-.68,2.59-1.77,2.96-3.75.66,0,1.24-.15,1.42-.92.41,0,.5-.26.83-.51-.33-.36-.73-.54-.72-1.4-.63,2.74-3.94,3.56-5.07,6.55Zm4.59-18.24c.24.74,1.95,2.37,2.39.99h.49s-.01.87-.01.87c-.89.52-.42,2.07.71,2.18.5.01.84-.5,1.33-.49,1.16.02,1.21,1.92,2.37,1.95-.23-.7-.48-1.06-.06-1.65.48.78,2.46,1.6,2.94,2.66.32,1.4.91.32.75-.51-.57-.01-1.07-.36-1.06-1.06-1.11.35-.24-.5-.07-1.04-.68-.47-.73.19-1.24.4-.51,0-.72-1.99-1.71-2.02-.75,0-.99.54-.93,1.1-.9-.45-2.02-2.63-2-3.93.02-1.81,1.51-1.95,1.55-3.86-.23-1.92-1.03-3.35-1.33-4.95-.33.16-.6.85-1.09.84-.74-.02-.56-1.57-1.47-1.59-2.11,1.17.52,5.19-1.02,7.08-.82-.19-.52,1.63-.54,3.02Zm13.87,7.79c-.91-.07-1.71-.73-2.56-.06.47.76,3.88,3.31.44,3.04-.12.62.41,1.52,1.23,1.67l-.02.52c-.59,1,.32,1.37,1.14,1.23v-.52c-.32-.18-.64-1.05-.7-1.74h1.24c.08-.33.25-.58.35-1.1-.09,0-.64-.8-.64-.8,0,0,.09-.86.01-1.37-.17-.01-.33-.01-.5-.01.09-.26.01-.6.01-.86Zm-7.12,1.69c-1.67-1.13-.37,2.68-.59,4.04,1.96-.98,4.5-3.01.59-4.04Zm2.5,2.54c-.42.08-.87,2.24-.88,2.49-1.89.16.61,2.68,1.05,2.8,1.03-.36.13-.71.1-1.56.09-1.19,2.28-3.78-.26-3.73Zm.78,3.39h.4c.03-1.3,1.11-1.71,1.14-3.26-.26,0-.51,0-.75,0-.03,1.56-.53,2.24-.79,3.27Zm2.57-1.08c-.25.34-.66.16-1.06-.02-2.09,2.05,1.05,2.41,1.06.02Zm-1.74-4.79c.02-1.11-1.06-1.4-1.3-2.18l-.74-.02c-.01.36-.01.69-.02,1.3.41.01.74-.06,1.16.02-.01.43.89,1.32.9.88Zm-6.6-1.59c1.51-1.39.32-2.6-1.52-3.33h-.83s1.85,3.31,2.35,3.33Zm.87-2.76c.16.18.65.1.83.02-.16-.17-.65-.1-.83-.02Zm-1.18-35.96c-1.78,0-5.34,8.29-1.82,8.75,2.09,0,4.08-8.75,1.82-8.75Zm-26.79,16.9c-.45-3.67-4.86,1.02-6.08,1-.91,6.12,5.41,2.9,6.08-1Zm-12.89,63.05c.29,1.27,1.13,2.08,2.45,1.98-.09-.29-.09-.68-.09-.99-1.27,0-1.82-1.88-2.27-3.38-.64.09-1.91.79-1.91,1.29,0,.8,1.45.3,1.81,1.1Zm5.45,2.58c.55,0,.91-.59,1.01-1.19-.47-.43-1.11-.59-1.73-.5-.09.48.02,1.69.72,1.69Zm-23.04-6.07h-.73c-.19.87,1.05,2.59,1.64,2.79.07-.99-.35-1.57-.9-2.3v-.49Zm-3.55-6.05l-.44.19h.08c1.17,3.08,3.15,2.46.36-.19Zm117.82-164.86c-.36-1.29-1.09-2.58-1.09-4.57h-.63c.07.99-.01,2.46-.37,3.38-1.35.3-1.91,2.98-1.91,5.07,0,1.49,1.38,2.09,1.38,3.58.07,2.37.03,6.62-.46,8.95,1.13,2.95-.24,7.06.18,10.14,1.43-.33,1.01-2.73,3.08-2.19.13.54.69,1.3,1.19.9-4.68-4.39-2.38-14.41,2-9.54-.67-3.29-2.82-6.01-3.09-9.55-.02-2.04-.22-4.2-.27-6.17Zm-235.99-80.23c6.91-1.08,1.02,4.8,6.35,3.48.28,0,.45.6.63.7h7.09c-1.75-2.48-5.33-3.04-5.26-6.96,0-6.36,6.26-13.02,10.89-14.41,1.63-.5,2.08-2.69,4.36-2.69,1.09,0,1.45-1.99,2-2.28,3.37-1.77,17.39-3.23,17.7-7.66-5.18-8.21-13.51,7.14-19.97,1.99-1.73,0-1.73,1.19-2.9,1.19-3.36,0-5.9,4.77-8.17,4.77-1.23.38-4.45.25-4.53,1.7,2.66,3.42-3.8,5.78-4.09,7.75,0,.8,1.27,1,1.36,2.19-2.39.54-4.99,1.47-4.36,4.28-.37,2.13-5.37,3.26-1.08,5.97Zm13.7,3.58c.08.17.25.26.36.4l-.36-.4Zm343.19,22.57c-8.22,1.53-4.48,5.36-8.62,7.66-3.01,1.1-15.64-15.61-15.88-4.97-1.09,2.38-6.35,1.68-6.35,5.97,0,1.59,10.75,7.16-2.73,7.45-7.07.15-12.79,11.43-20.87,11.43-2.74,0-9.46-9.24-16.8,7.96-.88,2.06,0,3.27,0,4.47,0,1.78-3.17,2.68-3.17,5.97,0,2.09-4.09,2.68-3.63,5.46-3.72,1-4.99,6.46-6.81,9.45-2.54-2.19-3.63-14.22-3.63-17.9,0-4.28,3.18-6.56,5.45-7.95,2.72-1.69,4.45-5.47,6.36-8.46,1.63-2.58,3.87-1.72,6.34-3.47,7.12-5.02,2.37-7.17,1.37-6.96-9.9,13.38-9.26,4.77-7.71,3.48-8.62-1.01-14.18,1.11-15.9,10.44h-4.99c-2.26,0-3.99-1.99-7.71-1.99-2.99,0-13.8.99-17.25,1.99-3.91,1.2-7.62,6.36-10.44,9.45-1.9,2.09-6.8,5.17-6.8,7.96,0,.6,2.79,7.42,8.17,2.97,1.81-1.49,5.75,3.75,5.75,6.43,0,2.19-1.06,4.44-1.59,5.47-1.6,5.71-.08,9.96-5,14.91-6.06,7.46-9.04,19.76-20.04,14.95-3.59,2.95-4.25,9.07-9.44,10.15.66,4.76,5.5,5.89,4.9,11.83.19,5.12-2.89,2.84-4.64,4.96-1.08.31-1.25.31-1.8.91h-1.36c0-.5.45-.8.55-1.3-1.24-.51.3-2.77.35-3.28,0-.6-.45-1.09-.45-1.69-.54-.1-.72-.5-.91-.69v-1c3.56-.73-.33-4.64-2.27-2.79-.63,0-.9-1.19-.9-1.69,0-1.19,1-1.09,1-2.08,0-1.19-.45-1.19,0-2.19-4.89-2.78-6.29,1.3-10.44,1.9.3-2.33,3.61-4.61,0-5.96-.9,0-1.27.99-1.45,1.29-.73,1.29-2.82,2.77-3.91,3.68-1.27.99-3.9.29-3.9,2.38,0,.99,1.55,1.38,1.91,1.69,1.37,1.73,1.42,3.57,4.17,2.89.54,0,.54-2.19,1.27-2.19,1.01,0,1.37.8,2,1.19,1.27.9,2.63-.2,3.36.9-1.82,2-5.71,2-6.53,4.67-.37,1.19-1.91,1.29-1.91,2.48,0,1.4,1.72,2.39,2.46,2.49,0,.29.09,1.89.09,1.89h.19l-.1.09c3.82,5.9,4.51,9.83,2.27,16.81-4.27,1.65-4.79,10.79-7.99,11.04-.17,1-.64,1.4-1.36,1.79-9.02,8.99-9.01.34-11.08,5.47-1.86,1.49-5.58,1.4-7.71,3.08-.73.79-.19,2.09-1.18,2.09-.82,0-.54-1.98-.45-2.49-1.73-.89-2.81-.3-4.37-1.1-1.81,3.08-6.26,3.79-6.26,8.06,4.53,8.33,12.62,10.83,8.63,22.17-2.91.8-3.18,1.88-5.54,3.17-.91.6-2.03,3.82-2.27,1.3.46,1.37-1.31,3.44-2.17,3.58-.64-.19-1.11-3.04-.37-3.38-.36-.2-.54-.99-.63-1.5-1.35,0-3.17-.48-3.17-1.98-2.66-.16-.1-3.56-6.08-4.67-.6-1.52-.78-2.74-2.81-2.57-1.32.29-.1,2.15-.18,2.98,0,2.99-2.64,3.77-2.64,6.45,0,3.09,3.09,1.89,3.09,4.78h-.17c.25,6.24,11.08,5.76,8.53,13.33,0,1.78,1.35,2.39,1.73,3.57.37,1.3.37,1.79.81,2.89-1.06.12-1.14,0-1.82.49-3.43-1.43-6.67-3.99-7.89-8.15-1.3-3.87-1.69-10.18-4.72-12.23-.9,0-.35.6-1.18,0-.11-1.39.18-2.88.45-4.37h.45c-.72-.42,0-2.69,0-3.78,0-4.39-2.36-6.95-2.36-10.15-1.33.06,1.11-5.09-1.72-4.97-.53-.6-.26-1-.81-1.59-1.54,1.68-2.18,4.57-4.73,4.57-1.36,0-1.45-1.2-1.45-2.49.07-1.76.94-2.79-.09-4.28-.94-3.75-3.55-5.78-5.63-8.45-1.01-2.63-.43-5.96-4.18-6.27.19,3.64-5.15,4.6-7.08,2.59-.64,1.49-2.54,1.6-2.82,2.48-.35,1.39-.27,2.49-1.08,3.39-5.64,2.99-8.84,7.94-13.26,11.93-4.73.83-3.4,3.94-2.9,7.36-.24,3.42-1.7,5.48-.64,8.55l-.45.11c-2.58.85-1.5,2.33-2.64,3.77-1.08.59-1.26.21-1.72,1.2-.25,1.79-1.85,3.02-2.54.99-1.74-1.9-2.13-5.31-3.17-7.47-.37-1.37-1.63-2.38-2-3.17-.72-1.59-.28-2.89-1-4.07-1.69-5.35-5.09-11.41-5.5-17.33l.07.07c.03-1.33.44-1.59.44-2.83-.1-2.2-1.55-3.55-.36-5.47h-.72c-2.81,7.12-5.41,5.28-8.89.09,1.65-.73,2.64.28,3.45-1.89-10.88,0-5.35-11.02-14.81-6.96,0,0-2.36-.7-2.36-.7-.36.2-.63.5-.81.7l-3.18.2c-2.84-.3-8.67-1.04-11.81-2.09-1.04-2.09-2.17-6.27-4.71-2.48-3.41.09-5.63.46-7.64-2.79-1.08-1.2-2.54-.6-3.54-1.69-.75-2.89-2.68-6.85-5.99-7.06-4.63,2.21.11,11.47,3.55,12.62,0,1.09.54,1.39.63,2.29,1.09-.3.9-1.59,1.81-1.79.27,3.44-2.37,5.99,3.18,6.36,6.08,0,6.54-4.08,9.8-6.76-.68,4.45,1.48,6.97,5.63,7.95,1,.29,1.09,1.98,1.72,2.38v-.1c4.27,2.42-.82,3.91-.9,7.06-3.55-.49-2.07,3.92-3.99,4.48-1.37,0-1.27,2.88-2.64,2.88-.81,0-2.53,1.69-2.53,2.87-2.57.59-9.47,1.69-7.63,4.68-2.08,1.09-4.89,1.79-7.08,2.38-2.57,1.02-5.38,4.5-8.71,3.69-1.55,1.2-1.79,2.01-3.7,2.01l-.57.37c-.28,0-2.59-1.24-2.84-1.37.17-1.63-2.1-4.06-1.71-6.2-.99-.09-.29-1.98-.1-2.87.4-3.96-5.65-6.06-5.68-11.2-5.18-.86-3.1-7.64-5.47-11.28-2.18-3-3.39.06-3.54-4.47-1.59-3.5-3.98-6.59-5.8-9.75,0-.68.29-1.94.47-3.15-.38,1.43-1.36,3.98-1.65,4.95-1.91-.31-3.46-4.78-5-6.47-1.48-.04,8.55,17.94,8.63,18.39-.45,2.08,2.26,6.47,3.62,7.65-.23,6.29-.26,5.92,4.09,9.95,2.21,5.49.5,6.65,6.36,9.74,1.45,1.2,2.23,5.32,5.21,5.32,0,1.7.86,1.95-.04,3.13,2.49,2.83,2.95,6.12,6.62,2.49,4.74.31,9.19-1.57,13.62-2.99,2.45,8.12-8.36,22.78-12.98,28.34-5.98,5.18-12.43,6.76-14.7,15.62-4.21,6.23-2.85,6.32-2.28,13.42,0,3.38,3.37,5.06,3.37,6.95,0,.61-.55,1.3-.65,1.5.09,3.1-.21,4.81-.27,8.75,4.22,8.74-11.52,8.77-12.25,15.41-7.06,3.12,2.7,6.52-.91,15.4-3.26,1.08-5.75,1.59-7.26,5.38,3.61,2.18-.92,6.97-2.26,8.25-2.01,2.17-2.19,4.48-3.63,6.46-2.27,3.17-3.27,5.96-6.99,7.95-1.54.8-3.81,0-4.09,1.79-1.17.1-1.9.68-2.72.68-4.95-3.86-11.38,6.01-14.98,0-.54.1-.72.4-.91.51,0-1.99-.9-4.17-1.63-4.97,5.08-3.86-11.22-15.99-9.26-31.52-2.68-5.98-7.22-10.31-7.08-18.2,0-6.96,5.72-8.65,5.72-13.93-1.21-7.33-3.11-13.59-4.99-19.87-3.19-3.96-11.2-10.2-5.45-15.42-.11-1.96-.19-4.92.91-6.46-1.14-3.9-5.78-4.58-9.53-4.18-2.73,0-3.36-5.75-7.09-5.75-5.89.19-9.99,3.19-14.52,5.27-6.79-2.83-7.64-.51-14.07.49-4.63-.97-9.36-5.74-12.44-9.44-1.72-2.88-2.27-5.27-4.53-7.25-.64-.51-5.45-5.17-5.45-5.57-.45-.59-.73-.78-1.18-1.38h.28c-.34-2.93-.34-4.1-1.82-6.46,9.35-9.71-2.48-16.73,4.54-24.86,6.79-19.79,9.03-9.77,15.43-19.59.1-8.81,4.61-11.01,9.26-17.2h-.19c.73-.99.91-1.89,1.82-2.68,2.84,2.33,8.35,3.84,11.08.7,3.54-1.89,10.25-4.67,14.34-4.67,4.66,1.56,2.76.78,6.99-.5,4.49,1.43,2.81.22,6.35-.79,2.24.28,1.41,2.97,4.08,1.19-.09,1.49-1.37,1.29-1.37,2.58,0,.9,1.18,1.29,1.18,2.19,0,1.49-1.18,2.28-1.18,3.78,0,2.48,2.36,4.67,4.09,4.67,7.54-1.67,9.72,7.56,17.24,7.96,4.66-1.53-1.96-5.94,6.82-7.65l.27.19h1.99c0,1.39,1.01,1.69,1.37,2.28.82,1.2,2.91.4,4.36,1,2.9,1.2,6.99,2.68,10.17,2.68,2.9,0,3.81-1.48,6.63-1.48,2.35.38,4.79,2.21,7.26.49.09.25.2.47.31.71-.52-1.26-.74-1.49.23-2.4.64-2.19.91-3.28,1.45-5.28.55-1.99,2.36-2.48,2.36-4.77.21-2.03-1.27-4.08.18-5.26v-1c-1.07.96-2.71,1.22-3.54.1-1.45,1.19-1.9,2.48-4.54,2.48-1.91,0-2.63-2.48-4.54-2.48s-1.54,2.28-3.17,2.28c-2.71-.6-1.86-2.49-5.36-1.79.27-.09.64-.39.72-.59-.55-.59-3.17-2.09-2.27-3.08-.82-1.3-1.81-1.19-3.07-1.89,1.73-1.29,1.98-1.49,1.9-3.88-.64,0-1.54.1-1.54-.51,0-3.07,6.54-2.48,8.16-3.37-1.56-1.92-.16-1.86,1.46-1.7,0,0,2.81,0,2.81,0,2.9-.94,5.33-3.5,8.99-2.88,2.45,0,2.36,1.5,4.45,1.5,1.28,2.63,7.25,1.84,9.71,1.98,1.87,0,2.94-1.55,4.55-2.29-.06.04-.39.08-.47.1,0-7.85-10.43-6.86-12.71-12.72,5.28-1.48,2.9-4.18,2.73-4.77.46-.2,1.63-1.69,1.63-1.69-4.68,1.89-14.49,5.4-4.99,6.36-8.9,7.11-7.34-.53-13.43-4.37-2,0-2.19,2.58-4.18,3.18.1.5,0,.99.1,1.49-.91.2-1.88.68-1.88,1.68-.35,1.62-.3.81-.57,1.4v2.59c-3.65,3.57-2.87,5.85.46,8.64-1.04.81-2.29.24-3.45.7-4.84,5.19-3.72-3.01-9.44,1.19.19.8.19,1.39,0,2.19-1.69-.14-2.43-3.06-3.35-.39l1.71,2.19c-.08.59-.36.89-.36,1.19s2.46,2.79,3.19,2.79c0,.3.18.69.36.9-.46.3-1.36-.09-1.55.6-1.03-.04-2.07-.99-2.53-1.49-.18.99.56,1.44.54,2.49,0,.59-.91,1.79,0,2.28-2.67.66-5.62-2.8-2.81-4.77-.95-.01-2.13.29-2.09-1.1-.66-3.3-4.24-3.86-4.44-7.35.45-2.61-.75-5.48-3.27-6.77-1.27-.7-2.72-.8-2.72-2.19-2.82.63-5.41-2.73-5.53-5.67-3.34-.09-3.17.79-3.91-2.69-1.09.67-4.18,1.07-2.54,2.38-1.95,4.26,3.46,3.98,3.9,7.36.59,3.42,2.51,4.19,5.35,3.57-1.3,3.47,6.49,2.72,5.91,6.66-1.21-.87-4.39-2.87-4.91.11-.07,1.27,3.46,3.2.45,3.37-.81.9-.64,2.98-1.9,2.98-.63,0-1-.29-1-.69,2.32-.31,1.43-4.31.63-5.46-.26,0-2.44-2.37-2.53-2.97-.36,0-1.73-.42-1.73-1.02-3.52-.83-4.81-3.24-7.18-5.07-1.63-3.25-4.45-9.43-8.16-4.67-1.73.89-2.9,2.68-4.9,2.68-2.79-.22-7.2-2.89-7.89,1.4,1.51,2.99-1.08,4.85-3.91,5.37-1.62.41-6.13,6.35-3.36,7.95-1.18,1.98-1.73,3.18-3.63,4.17-1.09.59-1.27,3.08-3.09,2.49v.09c-3.28-.62-5.41,1.67-8.17,2.19-1.36,0-1.45-3.67-3.54-3.67-5.59,1.12-4.57,1.16-4.62-4.09-2.56-.32-.95-2.7-.46-3.67.25-3.57,1.49-8.16-.18-11.44,0-.59,3.09-2.68,3.63-2.68.8.64,4.42.35,5.45.4.9,1.02,4.73.48,5.9.6,1.09-.3,1.64.39,2.54.39.63,0,2-.49,2.28-.49.49-2.69,1.61-4.34,1.08-7.22l-.18.15c.18-.39.37-1.09.37-1.49,0-.9-.55-.7-.55-1.5-1.81,0-2.36-1.78-2.36-3.37-1.47-1.33-6.22-1.49-6.53-3.49-.65-1.25,2.36-1.82,3.36-2.18.79,1.28,3.48,1.05,4.54.5v-.69c-.78-.56-.32-2.07-.46-2.79h.91c1.1,1.36,3.76,2.08,4.27-.19,2.73,0,3.45-2.19,4-4.58,1.38.04,4.71-1.68,5.8-2.38.73-.8.46-2,.46-3.19,1.42-1.81,3.03-3.96,5.54-4.08,1.18,0,.64.3,1.27,0,.27.3.55-.49.73-.69.64-.7,1.45-.1,2.27-.1,2.58-.49,1.97-2.53,1.37-4.18-2.81-7.25-2.68-8.64,3.99-12.12.18,1.72-1.93,5.08,1.18,4.87.2.98-.35,1.35-1.09,1.79-1.3.9-3.21,4.46-1.01,5.46,0,.6.1.8,0,1.09,1.01,0,1.37.4,2.18.4,1.07,3.32,4.94-1.57,6.9-.8-.09.5-.54.8-.54,1.1,0,.2,1.54,1.39,1.54,1.39.99,0,1.08-.69,1.54-.89,1.54-.8,2.73-.5,4.08-1.21,1.54-1.48,4.56-2.51,6.45-1.48-.18.39-.36.9-.36,1.09,1.1,0,2.21-.11,3.27-.23.18-3.48,3.08-2.95,3.08-6.83,0-2.39,2.01-6.96,3.64-6.96s1.82,2.49,3.63,2.49c1.1,0,3.5-1.81-1.08-6.5-1.39-1.42,3.17-3.44,5.17-3.44,3.72.75,6.43,1.01,9.52-1.49-.63-1.88-1.54-2.39-2.27-3.48-.91,1.99-5.08,2.29-6.81,1.99-2.25.55-6.66,3.12-7.44.19-3.09.18-5.28-3.65-2.64-5.66-1.71-1.02-1.7-4-1.73-5.77,3.81,0,5.81-5.47,8.17-6.96,10.88-4.69-7.26-9.75-7.26-1.99,1.43,6.33-7.51,6.74-10.16,10.94-.73,1.39.18,3.28-1.17,3.98v2c.45.39.71,1.08.71,1.78,5.26,1.29,4.97,6.33.46,7.96-2.11-.26-3.92,6.14-1.17,6.66-.28,2.69-2.46,2.88-2.73,4.77-4.97-.73-3.08,2.34-6.81,3.19-1.02-.54-2.33-4.62-1.82-5.67-1.54-1.69-1.36-3.09-2-5.28-.69-1.64-2.73-3.08-1.36-5.09-.99-.59-1.22-1.42-1.82-2.36-1.9,2.99-4.81,6.76-8.62,6.76-1.56-.77-6.33-2.9-2.54-4.28v-1.49q-1.27,0-2.36.49c0-.69,1-1.88,1.45-2.58-1.37-1.79-1.54-4.28-1.54-7.06,0-1.49,1.44-1.39,1.99-2.29,1.09-1.69,2.09-2.89,4.09-3.48,1.64-.49,1.99-2.89,5.26-2.49-1-.3-1.36-.49-2.18-.7,3.99-1.1,5.54-4.57,8.26-6.96,1.09-.89.91-3.98,1.63-3.98,1.18-6.02,8.77-6.8,10.07-12.73-2.27.5-3.17,1.8-5.36,1.8.46-.7,1.46-1.2,1.82-1.4-.45,0-1.36-.3-1.36-.3.23-1.4,1.08-1.91,2.09-1.29.27-.59.54-.99.82-1.29.46.59.54,1.09.28,1.78,3.5.87,2.7,2.09,4.63-1.49-.64-.2-.64-.3-1.45-.2.77-1.89,2.39-1.32,3.9-1.79-.45-.5-.36-.39-.71-.8.91-.99,2.53-.89,3.9-1.18v1.18c1.18-.3,1.46-2.58,3.36-2.68v1.69c1.18-2.39,2.72-1.79,4.36-2.79-2.73-1.06-.68-1.56.54-2.68,1.57,3.7,5.88-1.29,6.72.3,0,1.38-1.54,1.79-1.91,3.18,1.81.2,2.35-2.08,3.9-2.99.36.7.36,1.19.46,1.79,1.28-1.39,1.99-1.79,3.44-2.78.09,1.29-.09,2.19.91,2.29.65-2.77,2.85-.76,4.54.1-.82,2.39-1.54,1.59-3.63,2.39.91.8,1.54.89,1.54,1.48,1.51.41,5.08.22,5.45.5,2.99,0,12.81,5.41,17.24,6.96,15.48,5.42,5.32,12.34.28,10.89-3.78-1.08-5.91-.95-9.81-.95,1.82,2.88,1.18,8.95,6.35,9.45v-3.98c10.5,4.92,9.25-4.58,11.8-5.48,2.54-.89,7.26,1.5,7.26-1.99,0-1.78-1.61-2.13-1.36-2.98,3.91-13.22,5.95-4.51,4.54-.5,2.08,7.92,18.54-12.86,21.32-5.47,4.14,2.19,9.9-1.99,12.71-1.99,1.64,0,4.6,6.17,5-1.49.03-.69-3.98-5.31,8.45-1.78,4.5,1.28,16.56,10.93,11.52,2.28-2.19-2.38-4.09-5.37-4.09-9.94,0-3.78,7.44-10.79,11.35-9.94,7.77,1.69,2.72,3.08,2.72,6.46,0,3.08,1.02,18.1,4.83,18.1,2.96,0-2.65-7.39-.74-9.65,2.79-3.27-1.08-6.16-1.81-8.95,2.36-1.39,4.25-2.78,4.72-5.96,1.27,1.78.79,10.88,6.17,2.98,6.36,0,7.08,1.39,9.07,0-5.59-9.27,7.88-8.77,12.89-8.45,2.09,0,2.51-4.11,3.91-5.47,6.64-6.51,19.42-7.46,22.41-8.46-1.02,4.68,10.72-.49,12.53-1.98,3.99-5.62,12.81-9.65,15.88-.5h9.54c22.53,5.92-4.91,14.03-7.72,17.9,0,0-2.65,6.67,9.26-3.98,1.99,3.58,17.71,5.57,20.69,6.46h9.98c0-3.08,1.29-4.19,3.64-3.97,18.68,1.7,11.35,6.76,11.35,7.46,0,2.78,1.63,7.95,5.44,7.95,1.45,0,1.99-3.08,2.27-4.48,3,.2,3.35,2.49,5.9,2.49h14.52c.55-3.88,1.54-7.95,8.63-7.95,9.13.73,18.63.61,23.15,8.45,6.26,3.07,18.98-3.64,20.87,7.46,0,0,20.87.49,20.87.49,1.73-.1,8.72,9.65,5.92,0,5.1-6.82,27.1,4.04,31.76,7.46,5.18,3.27,15.8,5.96,19.06,10.73ZM145.74,237.25l-.05-.12c.02.08.04.15.04.24,0-.04,0-.08,0-.12Zm34.77-29.92c-.35.6.75.67,1.2,1.47.73,1.18-.08,1.99.46,3.18.45,1.09,1.63.49,2.63.7.82.2,1,1.2,1.54,1.79,2.04,1.27,6.33.48,8.43,0v-1.78c-1.29-1.44-.77-2.45-.26-4.38,0-1.88-1.27-3.88-3.18-4.17.28-3.08,2.56-2.46,4.53-2.49,0-1.49-1.44-2.29-1.54-3.79-.63.11-2.36,1.1-3.09,1.5,0-3.88-2.45-5.18-4.17-8.46-.55-1.09-2-.99-2.09-2.98,7.8-4.62,6.38-.85,11.17-2.58-3.61-8.71-11.16-5.3-17.79-2.39-.46.6-2.18,4.28-2.18,4.76,0,1.49,2,2.99,2,3.98,0,3.39,3.72,9.35,6.16,10.84-1.45.79-1.45,3.17-2.53,4.77,0,0-.95-.57-1.3.02Zm130.2,87.02c-.12.3-.24.61-.38.95h0c.14-.34.27-.64.38-.95Zm1.43-3.73c-.53,1.22-.83,2.11-1.17,3.05.34-.93.65-1.83,1.17-3.05Zm.73-1.09c0-.32-.21-1.29-.5-2.36.27,1.47.82,2.13.25,2.87.13-.15.25-.31.25-.52Zm205.05-211.68c4.59.17,13.86-2,3.36-4.27-1.74-.16-6.2,3.18-3.36,4.27Zm-25.69,6.17c1.31-.15.86-1.6.27-2.18h-3c.54,1.2,1.45,2.18,2.73,2.18Zm-86.41-31.52c.65,0,.79-.73.88-1.31l.03.02-.02-.03c0-.05.02-.11.02-.16h-.18l-.73-.8c-.62.59-1.26,2.25,0,2.29Zm-59.72,4.97c-2.37-.13-2.74,2.93,0,2.69,2.55.23,2.84-2.96,0-2.69Zm2.09,1.98c-.3.14-.5.5-.73.7l.73-.7Zm-36.13-22.67c-.41,3.2,4.99.03,6.17,0,0,0,2.82-.5,3.17-.5,7.52.8,8.45-4.24,1.37-6.45-.63,0-1,.79-1.64.99.74-.8.27-.8.27-2.19-4.22-.68-5.51,3.25-7.71,5.97-.55.6-1.63.6-1.63,2.19Zm-21.96-11.93c0,.89,1.27,2.49,1.81,2.49,1.09,0,4.08-.2,4.26-1.99-1.72-.63-4.95-2.79-6.07-.5Zm12.43-.3c-2.9.99-3.81,2.09-6.8,3.18,1.36.8,3.72,3.58,4.81,3.58,2.97-.65,9.89,4.26,11.98.3,0-.7-.72-1-1.36-1.2,2.86-.37.94-1.93,2.54-3.27-1.23-2.03-2.64-2.13-4.81-1.98-1.65-.35-2.74-1.56-4.62-1,1.83-1.07,1.87-1.61,1.73-3.79.36.1.17.3,1.09-.1-6.55-8.26-8.74-1.26-14.99,1.99,3.44,2.19,6.46,2.16,10.43,2.29Zm-.18,20.18c1.09,0,1.63-.59,1.82-1.99h-1.37c-.37.3-.82.69-1.36.99.1.49.46.99.91.99Zm-10.89-27.05l-.28-.79h-3.36c.54,1.3,2.27.99,3.63.79Zm41.03,19.89c.63,0,1.09-.79,1.18-1.49-.82.4-1.08-.1-3,.3.27.5.73,1.19,1.82,1.19Zm-147.5-15.21c-.22.19-.43.31-.64.4v.4l.64-.8Zm-9.53-1.99c.82,0,1.27.6,2.08.9-.45.4-.91.59-1.36.9.37.09.82.19,1.63.19-.72.19-1.18.4-1.9.8.27.89,1.18,1.2,2.54,1.2h-.09c1.34,2.34,1.68-.11,2.81-1.2,1.24-.77,2.02.12,3.17-.4v-.59c.28.09.64.09.92,0,1.08-.9,2.26,0,2.44-1.8-2.69-1.82-3.45-.53-6.07.3-3.14-.99-9.69-2.46-12.26.6,2,1.04,4.42-.52,6.08-.9Zm43.12-.49c.63,0,4.17-.8,4.81-1.3l-1.27-3.17c-2.11-.23-7.94,3.56-3.54,4.47Zm-5,2.48l-.45-1.19c.81,0,1.72.4,2.27-.5,0-.4.09-.59,0-1.49-.82.19-2.36.1-2.9,0,.18,0,.72-.3.9-.8h-3c0,.19-.09.5,0,1.29-1.09.4-1.81,1.19-1.81,2.68,0,.49,4.45.3,4.98,0Zm-9.53-.19c-7.5.47-3.52,4.71-2.27,1.69,3.25,2.19,1.77.03,4.81-.5-.45-.7-1.36-1.19-2.54-1.19Zm-.45-1.99c1,0,2,.19,2.72-.4-1.99-.89-2.63-1.1-5.18-1.49.91-.99,2.73-1.6,4.18-2.59,0-.49.45-.99.82-1.28.2-2.12-1.74-.91-1.81.49-2.64,0-2.73,1.99-5.45,1.99v1.3c.9-.6.54-.21,1.54.19h-3.81c-.46.39-.64.6-1.18,1.1,3.74,1.84,4.02,2.37,8.16.69Zm-118.45,10.94c.27,0,.45.29.72.39-.36,1.59,1,2.39,2.54,3.28-.28,0-.45.1-.72.21.45.99,1.44,1.58,2.9,1.58,1.91,0,1.91-2.18,2.72-2.68h.73c.93,1.11,2.52.91,3.71.89-.99.89-3.45,2.09-4.62,2.48-.46.1-2.54.1-2.54.99,0,2.39,2.36,1.29,3.46,1.29.63,0,3.54.1,4.07.5-1.09.29-2.08,0-2.99.8,0,0-2.09-.3-3.36-.1,0,3.38,4.9,4.67,7.08,6.26,1.56-2.19,1.1-5.11,4.01-6.26.9-2.59,1.9-6.96,4.98-6.96,0,0,.73,1.29,2.18,1.5-.45,0-.81.09-1.27.19.36.79,1.18,2.59,1.81,2.78-.17,1.49-1.17,1-1.35,2.79,1.18.1,3.08,0,4.17.19-.27.51-.27,1-.09,1.8,2.27-.8,3.27-2.48,5.72-3.38-.81-1.29-3.45-.5-3.45-3.58h-2.9c.27-.4.18-.99,0-1.49-.64.1-.91.2-1.63,0,.27,0,.63,0,.9-.1-1.32-1.53-6.07-4.43-8.17-4.27.59-2.4-1.08-3.24-2.72-1.09.87-2.48-.71-3.75-3.37-3.97-3.31-.34-1.3,4.24-.72,5.86-2.27-.9-1.64-4.38-4.1-4.38-1.41-.07-2.1,2.3-.9,2.98-.63-.69-1.53-.69-2.45-1.49.27-.5.64-.8,1.09-1.39-3.33-.76-5.88-.64-7.71,1.98.63.7,1.63,2.39,2.27,2.39Zm17.97-5.37c-.19,2.29,1.64,1.09,3.18,1.09.18,0,3.9.3,4.26.3-1.13.31-2.51.49-4.09.59-.26,2.61,5.08,1.3,6.35,1.6,2.84,4.76,9.46-1.23,12.53-3.28-1.37-3.39-7.22-3.24-9.8-1.69-.19-.7,0-1.19,0-2.49h-1.09c-1.78,3.34-3.11,2.32-5.91.3h-2.53l.45,1h-1.53v.49c-.55.3-1.28.1-1.82-.3h-1.36c.09,1,.64,1.8,1.36,2.39Zm-17.16,10.83c-.62-2.12-1.83-2.57-2.98-4.13-1.35.93,1.24,3.66,2.98,4.13Zm-2.81-4.27c-.07.03-.1.09-.16.13l.16.17v-.3Zm-.27,0c.04.05.07.09.11.14,0,0,0,0,.01,0l-.12-.13ZM30.13,161.57c.06,2.02,2.47,2.85,3.99,1.9.73-.5,1.81-2.19,3.28-2.19.9,0,1.81.1,2.36-.5.72-.8.09-2,.09-2.79v-3.38c0-.79,1.64-.69,1.64-1.49,0-1.7-1-4.08-3.09-4.08-1.77-.33-5.63,1.02-3.72,3.18-1.2,1.51-3.71.32-3.63,2.19,0,1,.82,1.59,1.73,2.09-.36,2.39-2.63,2.58-2.63,5.07Zm8.16-22.87c1.01,0,1.73-1.19,1.73-2.28-1.49-.07-3.13,1.23-1.73,2.28Zm2.91,2.89c.27,1.3-1.89,2.41.72,2.88v.89c-.62.33-.28,1.75-.36,2.29h.73c-.18-.4-.45-.7,0-1.5.28.2.82.5,1.54.5-.27.79,0,1,0,1.89,0,.79-.91,1.3-.91,2.09.43,1.9,2.99-.15,4.35.39-1.28,1.27-.42,2.84,1.55,2.48.52,2.25-1.74,3.26-4.09,3.38,1.78,5.37-.16,2.59-1.81,5.97.34,1.04.74.12,1.36,0,1.32.4,2.98,2.27,4.17.2.83,1.95-1.31,1.65-2.9,1.99-.42.4-3.51,3.4-3.18,4.28h.64c.48-.88,1.66-.83,2.55-.79.11-2.07,1.71-1.76,3.09-1.1,1.36,0,3.81-.89,4.72-.89,1.93-.09,4.92.58,6.17-1.5v-.69c-.54,0-.9-.11-1.82-.4.73-1.29,2.92-2.19,2.92-3.98.07-1.43-1.96-2.59-3.09-1.49l.45-.39c-.36.19-.45.49-1.09.69v-.69c1.29-.77-.53-1.86-.54-2.79,0-2.38-2.36-3.08-3.81-4.67-1.54-2.46-.86-4.63-4.64-4.28.1-.39.38-.69.74-.79,0-2.1,2.81-3.28,2.45-6.07h-5.36c-1.21-1.84,2.06-1.88,2-3.37-.12-1.3-2.72-.82-3.53-.9-1.48.29-1.59,1.61-1.82,2.98-.87-.12-1.84,1.19-.82,1.79-.06.88-.92.69-.99-.29h-1.45c0,1.29.73,1.58,2.08,1.89Zm3.09,11.23c-.54.3-.64.7-.64,1.19h1c0-.5.09-.9.09-1.19h-.45ZM414.44,56.48c.9,0,1.36-.9,1.99-1.5,1.43,2.27,3.77-.23,5.45-.5,2.34,1.65,1.77.87,3.9,0,0,0,2.45,0,2.45,0,0-.79,1.27-1.89,1.63-3.28-2.92-.34-10.61-5.78-10.43,0-2.46,0-2.64-3.18-5.46-3.18-5.54.05-5.01,8.55.45,8.46ZM94.95,210.93c-1.37-.3-1.91.66-3.09.66-1.27,0-2.09-1.3-4-.31-.24,1,.64,1.14,1.27,1.2,1.46.5,2.64,2.19,4.18,2.59.18.66,1.31.46,1.27-.29,0-.79-.46-.89-.46-1.6.24-.94.67-1.43.83-2.24Zm-15.35-11.08c.27-.6.54-2.78.82-3.97-.28-.11-.37-.6-.37-1.1-.56.38-1.25,1.15-2.08,1.2.46.79.73,3.68,1.63,3.88Zm-1.36,4.08c-2.34,8.27,5.17,2.29,2.18-2.79-1.52-1.29-1.58-.12-3.08.7.09.78.9,1.28.9,2.09Zm-13.61,2.18c0-.3-.46-.9-.46-1.09-.54.09-.9.39-1.45.7.26.41,1.6,1.48,1.91.4Zm19.24-56.27c0-1.01-.63-.8-.63-1.99h-1.73c-.22,1.43.38,2.4,2.09,2.29v.79c.09-.5.28-.3.28-1.09Zm1.08.99l-.17-.4c-.1.1-.37.3-.46.5,2.87,2.46,2.48-2.65,4.09-3.39-1.01-6.33-6.87.94-2.18,2,0,.5-.63,1.19-1.27,1.29Zm19.52-13.14c-2.17.41-2.28,2.52-2.08,3.78,1.28-1.14,1.15-2.54,2.08-3.78Zm8.17-.48c1.27-.28,1.73-1,1.54-2.19.18-.1.64-.79.73-1.3-.36-.2-.54-.4-1-.99-.82.33-1.06,1.46-.18,2.18-.73.1-1.28.7-1.99.79,0,.6.09,1.5.91,1.5Zm10.44,83.31c-1.54-.5-3.72-.99-5.72-.59,1,.59,2.72.79,3.45.79.64,0,1.09.5,2.27-.2Zm21.42-1.78c-1.54.29-3.9,1.29-5.26,1.98,0,.2.27.5.45.5.41,1.19,3.12-.02,3.46-.59.08-.31-.1-.89.18-1,.54-.3,1,.1,1.18-.89Zm49.56,71.28c.72,0,1.45-.8,1.63-1.19-1.17,0-1.81.19-2.63.49.1.49.73.7,1,.7Zm-13.79-204.02c-3.47,4.42,1.72,4.06,4.26,1.79v-1.3c-1.9-.44-2.65-2.67-4.26-.49Zm26.04-4.18c0,1.2,2,2.49,3.18,2.49,3.98-.18-3.25-5.41-3.18-2.49Zm33.4-16.01c-1.93-3.03-3.96-2.03-3.62,1.09,1.08,0,3.18-.69,3.62-1.09Zm183.99-.9h2.73c-.23-4.87-6.83-5.09-8.63-1l.46-.49c1.73.7,3.81.49,5.44,1.49Zm17.97-8.75c1.92.24,5.96-1.22,3.18-2.48-.35,0-9.89-1.29-10.71-1.98l.91.79c0,2.48,4.27,3.67,6.63,3.67Zm-21.6,3.48c0-1.39-2.44-1.59-2.44,0-.38,1.84,2.42,1.62,2.44,0Zm554.09,47.62l.18-.2c.23-2.69-5.09-2.92-2.82-5.86-1.28.14-3.71,1.46-3.81-.79-.36.3-.36.2-1,0-.18.4-.36.7-.36,1.49-.82-.9-1.91.3-3.09.3-.82,0-1.54-.3-2.91-.3,0,.3-.09.7,0,.99-.36-.19-.55-.49-1.27-.69-1.09.26-2.67,1.16-3.36-.3-.27.4-.18.6,0,1.29-2.62,1.73-2.84-.94-3.54-2.88-1.24-.33-1.42.87-2.36,1.1v.79c-.55-.3-1.01-.49-1.82-.2.18,1.09,3.53,2.19,4.62,2.19,0,.3.1.59.37.8-1,.4-3.36.89-4.72.89.91,1,2.46,0,3.91.4-.18,1.09-.46,1.7-.46,2.98-.27,0-.54.29-.81.49,4.57,1.41,6.76,3.75,12.16,3.59,4.69-.78,8.31-2.41,11.08-6.07Zm-156.58,160.17c-.97-.84-1.58-2.39-3.45-2.08-.09-.19,0-.49,0-.7-3.21.17-4.88-2.22-7.17-3.67-5.2-1.38-13.01-5.4-16.34,1.89h.82c1.15-1.14,4.46-3.22,6.35-2.08-.27.3-.36.69.18,1.1h2.63c1.27,0,1.91,1.48,3.18,1.48.72,0,1.18-.3,1.91.1.36.2.27.89,1,.89.27,1.5,1.72,1.39,3.09,2.09-.09.49-.46.89-.91.89v.6c2.49-.07,6.61,2.04,8.71-.51Zm-22.42-5.16v.68c-1.19.31-1.14,1.34.45.9.19-.5.09-.99,0-1.49-.11-.04-.34-.11-.45-.09Zm12.71,10.63c.3,2.4,2.93,1.2,4.45.9-.09-.4-.27-.71-.82-.9l.18.2c-.58-.15-3.29-1.62-3.82-.2Zm28.59-.2c-.05,1.28,3.06,1.59,3.72.49-.79-.77-3.29-1.78-3.72-.49Zm-18.7-.41c0,.6.55,1.5,1.09,1.59,0-.29.09-.49.09-.8,1.31.28,3.97-.53,5.17.31.45.29.27,1.28,1.09,1.28,1,0,.91-1.78,2.09-1.78.94.77,1.51.5,2.54-.3h3.36c-.64-.99-1.54-1.39-2.44-2.19l.45.4c-2.2-1.94-4.14-3.23-7.8-2.19-.82,0-1.36-.69-2.19-.69-1.27.23-.58,1.84.46,1.79,0,.78.09,1.49.63,2.09-1.09.6-1.99.09-4.08.09-.09.11-.27.4-.45.4Zm32.76,24.76c.9.57,2.17-.98,1.91-1.99-1.16-.21-1.84.46-1.91,1.99Zm30.05,28.04c-5.56,1.88,3.24,9.05,4.36,1.99-.31-2.13-1.77.63-2.09-1.09-.72,0-1.36-.5-1.9-.9,0,.09-.27,0-.36,0Zm-61.27,133.63h.81c-.06-1.01-.02-3.14.36-4.09-.92-5.01-3.71,3.52-1.18,4.09Zm-127.99-285.25h0s0,0,0,0h0Zm229.01,171.21c.11,7.37-6.32,14.02-10.43,18.09-1.35,1.49-.02,4.7-.02,7.09,0,1.79-.62,3.45-.62,4.74-.15,1.37-1.53,2.05-1.63,3.48.07,3.8-1.96,5.84-3.63,8.65-.55,5.83-5.04,4.08-8.9,5.36-1.9,3.25-5.11,1.99-6.99,4.87-.73,1.31-1.91,1.31-2.63,2.1-1.85,2.08-.69,6.6-1,9.25-1.82.99-2.73,2.68-3.63,4.77v-.1c-.81,4.16-4,5.74-6.27,8.83-2.62,5.67-3.96,9.99-10.8,6.87-1.32.17-3.49-2.22-4.53-.69,0,.9,1.36,1.38,1.63,1.68.73.8.73,1.89,1.09,3.08.27,1.1,1.72,1.1,1.72,2.18.02,4.92-4.14,7.09-8.44,7.68-7.92-.27-5.22.33-6.18,6.95-1.57,2.61-4.16.02-6.17-.2-2.19.5.1,5.19.99,5.17.46,0,1-.61,1.28-.69,1.26.63.73,1.95-.1,2.28-1.08,0-1.45-.9-2.36-.9,0,1.1.54,1.3.99,1.5-2.51,1.83-.61,7.44-4.63,7.35-1.45.4-2.72,1.78-2.72,3.48,0,3.88,4.08,2.49,4.08,5.58-.51,4.35-4.27,2.59-4.53,7.84-.63,1.39-2.09.79-2.91,1.69-1.09,1.19-1.55,2.58-1.55,4.47,0,1,.82,2.19,1.36,2.29,3.79,7.02.37,7.03,9.62,11.25-.36.58-.91.29-1.45.29-1.36,0-3.63,1.88-4.45,1.88-.64-.11-1.37.12-1.91.41-5.38.33-2.8-.78-5.36-3.19-1.36-.49-3.36-.49-3.36-2.28-1.05.05-2.78.2-2.72-1.3-2.95-.03-3.85-2.05-5.26-3.68,0-.88,1.63-.79,1.72-1.68-.27-.1-.45-.3-.72-.5,2.21-3.02-1.61-3.5-1.82-5.77.31-2.63-1.25-6.57-1.36-8.75,0-1.78,2.1-2.48,2.1-4.07-.09-1.1-1.58-3.03-1.27-4.48h.09c0-.6.36-1.09.81-1.09,1.64,0,1,1.8,2.36,1.8.04-.37,3.54-16.59,2.99-16.22-1.08-.43-1.4,1-2.17,1.1-2.16-1.41-.93-5.66-.36-7.86,1.48.11.69-1.52.36-1.68-1.78-4.03,1.43-8.72,2.63-12.24,2.01-1.71,1.12-4.57,2-7.06,0-3.27-.45-9.23.36-12.22.04-4.08,2.4-6.77,2.09-10.55.41-1.79.82-5.82.63-7.84.86-5.44,2.16-15.36-3.82-18.4-1.36-.69-2.35-.5-3.36-1.59-2.69-2.66-6.29-2.87-8.34-6.08-.73-.79-.37-1.89-.37-3.08-2.08-5.25-5.27-10.27-6.89-15.6-.27-.59-.9-.41-1.18-.69-.64-.71-.82-2.09-1.09-2.79-2.85-1.18-4.85-6.07-2.64-8.65.82-1.49,2.45-1.88,2.81-3.49-.81-.58-.72-.1-1.36-.1-1.27,0-1.46-1.99-1.46-3.37,0-2.28,2.29-1.88,1.91-6.26,2.45,0,3.09-2.68,3.82-4.28,1-2.18,3.36-1.49,3.9-4.17-.94-.43-1.03-1.08-.54-1.79.15-.98-.49-1.74-.55-2.69,0-1.19.46-1.58.46-2.57.03-2.2-2.27-2.16-1.49-4.21-.26.25-1.17-.42-1.24-.67,0-.4.36-.6.55-.99-.99-.51-1.27-1.8-2.26-1.8-.94.26-4.62,2.58-2.45,3.48-.76,3.4-3.65.18-4.45-1.18-.85-1.04-2.87.71-3.18-.7-1.27-.31-1.27-1.3-1.63-2.1-.28-.59-3.36-2.67-3.45-2.67-.18.3-.18.7,0,.89h-.91c-1.37-.99-.46-2.39-.91-3.87-1.23-2.79-4.07-3.34-4.72-6.57-3.17.73-3.52.54-6.09-1.19-1.72-.89-2.99-.39-4.81-1.38-2.99-1.39-3.25-4.57-6.17-5.08-3.41-2.91-4.1,3.32-7.27.3-.72-.4-1.36-.21-2.08-.21-2.42-.56-5.02-3.73-7.72-3.08-1.27-.39-1.55-1.58-2.81-2.28-1.18-.59-1.82-.4-3-.99-1.46-1.38-4.51-2.39-5.17-3.88-2.37-.57-.84-3.28-.45-4.77,0-1.3-.73-1.6-.91-2.29-1.89-5.08-5.56-8.28-9.44-11.04-.72-.79-.09-1.78-.54-2.88-.81-1.78-3.63-1.99-3.63-4.38-.82-.2-.73-.29-.99,0-2.3-2.2-3.56-4.13-4.45-6.95-.82-.89-.64-3.09-1.36-3.48-1.54-.8-3-.69-4.18-1.99-.76,3.52,1.39,7.14,4.18,8.85,1.27,1.39,1.45,2.39,1.9,4.07.64,2.29,2.45,3.38,3.09,5.47.72,2.39,1.27,4.97,2.9,6.17,2.45-1.31,2.31,6.68-.3,1.06-1.63,0-2.51-2.36-3.5-3.05-.54-.4-.64-.4-.91-.89v-2.59c-.99-1.1-1.72-2.19-2.63-3.18-1.27-1.4-3.26-1.1-4.17-2.58,4.95.98-1.74-5.54-2.62-6.22-1.08-.75-1.01-3.53-1.56-4.72-.76-1.82-2.21-2.95-2.27-5.37h.18c-1.36-2.98-5.99-5.08-9.26-6.46-.73-.29-.45-1.4-.73-2.19-1.27-3.48-3.81-4.68-3.35-8.75-.76.53-7.7-8.33-4.54-9.54-1-2.18-.03-5.85-.91-8.36-.84-2.42,1.54-8.06,1.54-11.14,0-2.18-2.27-3.08-2.27-5.26.85-1.62,3.63-.25,4,1,1.48-1.68,1.59-3.18.09-4.97h0c-1.24-1.08-3.78-1.7-4.45-2.8-.72-2.58-3.9-1.28-4.35-3.28-4.57-.13-2.23-5.31-6.36-6.86-1.35-1.67.46-3.47-2.9-3.78-1.73-.8-.33-4.33-1.45-5.77,2.13-2.17,1.23-3.75-.86-5.24,2.1,1.5,2.99,3.07.86,5.24-1.79.6-4.64-1.47-4.72-2.88.19-2.02-.11-3.29-2.73-2.98-1.27,0-1.63-.89-1.63-1.49.61-1.45,1.68-.61,1.36-2.98-1.72.1-1.27,1.3-2.45,1.3-1.84-.51-1.43-2.7-.45-3.58-.45-.49-1.27-1.39-1.63-.7-1.37,0-2-.69-2.73-1.48-1.16,4.39-4.42-.66-5.63-1.99-2.35-1.9-5.44-1.8-8.16-3.49-4.61.13-11.01-.28-13.52-4.97-1.1.5-2.91.99-3.72,1.49.27.7.45,1,.9,1.4-1.33,1.77-8.2,7.27-9.98,4.87,0-.59.54-.7.72-.8-.62-2.63.85-4.93,3.91-5.97,0-.29.09-.69.09-.99-3.45-.55-10.03,5.89-9.26,10.25,0,2.29-2,3.08-4.08,3.98-1.18.5-1.54,1.49-2.27,2.48-1.37,1.89-4.45,2.88-5.9,4.48-1.37,1.48-4.63,2.58-7.26,2.98-3.27.6-5.08,4.77-8.89,3.58,3.04-3.21,2.89.61,7.26-5.37,1.54-1,3.27,0,4.36-1.49,1.54-2.18,5.08-3.87,7.26-5.47,2.08-1.49,2.08-4.48,4.27-5.96-2.98-.1-4.05,2.53-7.17.49-.27.8-.54,1.09-.63,1.8-2.18-.9-2.81-1.49-4.36-2.79-.17.59-.08,1.08-.08,1.49h-1.09c-.55,0-1,.79-1.37.79-1.09-.4-.88-3.37-.9-4.48-.03-3.05-1.76-.57-2.54.2-1.18,0-5.44-3.68-6.09-4.57.46,0,.91-.3,1.36-.3-.72-2.19-3.63-2.68-3.63-4.28,0-2.98,4.9-5.46,6.8-5.46.82,0,6.99-2.69,6.99-3.98,0-.7-1.45-2.09-1.54-2.39.91-.6.73-.5,1.36-.1v-1.5c-2.41-.57-2.82,1.42-5.26,1.69-2.79-.76-5.87-.81-8.63-.7-.22-1.92-1.8-2.19-.9-3.78-1.46,0-2.28-.6-2.73-1.59,2.27-1.49,5.99-2.78,8.17-4.37h1.63c0,3.18,1.46,2.28,3.36,2.28,1.27,0,1.46.3,2.54,0-.9-3.19-2.81-3.38-5.44-4.78-.73-.39-1.82-3.37-2.72-3.96-1.09-.71-4.81-1.5-4.81-2.19,0,0,1.26-2.49,1.36-2.79h4.99c3.35-4.73,8.68-9.9,14.97-9.65,3.03-2.12,3.07-4.16,6.72-1.29-.45.6-.54.79-.81,1.29.91.2,1.81-.49,2.27-1.29,1.55,1.23,4.81,1.03,6.63.99,2.47,2.92,6.47,1.81,9.72,1.98,3.39,2.91,10.25,2.73,14.52,1.79,2.63,0,3.46,1.2,5.72,1.99v-.1c.91.21.45.41,1.08,0,2.71,3.46,9.07,4.3,11.35,4.28.82,0-3.27-2.35,2.63-2.59.86-.03.44-3.13,2.82-.69.79.81,3.17-1.1,4.17-1.3,2.54-1.08,3.54-1.29,6.34-1.98.27.79.91,1.38,1.64,1.38,1.91,0,1.27-2.87,3.09-2.87.55,0,2.99,4.47,4.72,4.47,1.82,0,1.82-2.18,3.54-2.59,1.35,4.29,2.97,2.05,6.08,1.39,5.53,0,8.28,4.95,13.79,4.48,5.19-.44,4.74-1.07,7.27,2.78-.55.6-3.32.23-3.32,1.12,0,.3,0,1.75,3.6,1.56,3.19-.77,7.53-1.09,10.8-.89,2.44.54,2.95,3.72,5.09,3.98.45,0-.55-2.29-.55-2.97,0-3.38,4.63-.7,4.27-3.98-8.4,4.34-8.32-1.86,1-2.28,1.27,6.8,15.59,5.98,19.52,5.97-.61-4.45,4.79-3.26,6.35-2,.72,1.09-1.61,4.36,1.36,3.48,0-4.87,5.99-2.87,4.82-6.96-.73.4-1.27.6-1.91.99,3.14-7.5-4.55-3.32-5.44-7.65,0-1.39,1.18-1.29,1.18-2.29-.71-2.48-1.63-3.73,1.81-3.98-1.5-5.01,7.47-.86,6.53,2.98.04,1.47,2.73,1.4,2.73,3.29,0,1.29-1.64,1.98-2.27,2.39,1.09,1.5,3.09.5,4.54,1.5-.46.39-.64.69-.91,1.19,1.91.99,2.09,2.19,2.09,3.88,2.81,0,.99-4.28,3.63-4.28.73,0,3.36,2.79,3.36,3.49,0,1.48-1.54,1.19-1.54,2.48,0,1.09,2.69,5.72,4.74,2.87,1.31-1.84,1.07-3.16,1.79-4.86.45-.99,2.55-.99,2.55-1.99,0-.89-1.36-1.39-1.36-2.68.22-2.49,2.91-2.08,4.53-1.3,3.72,0,3,2.5,5.91,2.5,0,1.69.36,1.58,0,2.48-2.86,1.5-1.63,3.09-1.63,3.78,0,.6,2.09,1.6,2.09,2.49,0,1.29-4.67,5.67-5.26,4.67-1.11-1.86-1.55-.1-1.09.5-1.63,0-2.18.8-2.99.8-1.27,0-2-1.99-4-1.99-.72,0,.64,1.8.64,2.18-1.49,3.91-5.44,4.04-8.17,1h-1.64c1.37,2.99,4.45,2.49,7.53,3.28v1.5c-1.96,2.12-3.51,4.3-6.81,3.67-1.09,0,.07,2.77-1.84,2.12-7.38-2.48-4.63-.44-5.44-.75,1.27.8,4.74.91,4.74,2.4,0,2.39-2.72,1.4-4.26,1.99-.73.3-2.27,4.17-3,4.97-3.37,2.45-3.17,9.6-3.18,13.13,3.94-3.38,5.49,3.41,5.71,6.96,1.37,0,2-1.49,3.36-1.49,5.37,2.43,10.58,4.48,15.25,7.96h5.9c2.54,1.78,2,4.28,2,7.45,0,2.89,3.2,5.98,5.44,7.96.85.75,1.64-1.19,2.73-1.19.09-1.09,1.27-1.78,1.64-2.38-1.27-1.69-.02-7.1-3.18-8.85,11.23-5.17,7.15-11.53,2.02-18.38,7.59-3.08.43-6.33,1.61-8.66,2.93-2.03-.27-3.47-.27-4.47,0-1.78,1.36-2.48,2.72-2.48,3.46.24,5.97,2.96,9.35.7,2.54,0,3.09,3.38,5.63,3.77,0,3.68,4.9,1.69,5.27,4.48.27,2.08.9,6.96,2.44,6.96,1.09,0,1.37,2.18,3,2.18,2.27,0,5.17-3.68,5.17-5.17,0-1.39,1.45-2.28,2.09-2.78.37.4,1.27,1.3,1.54,1.3.27,2.68,4.13,3.21,3.18,5.47-.77,1.82,2.18,3.88,2.99,4.18.07,1.69,1.59,3.77-.72,4.57,1.18,1,2.36,2.39,4.35,2.39-.29,3.54,4.53,4.81,6.81,4.48,2.84,2.79-4.86,3.59-6.63,4.87,2.35,1.25,7.13-1.38,9.53-2.59v1.2c1.05.52,0,1.49.73,1.49,5.01,7.72-2.8,7.13-7.08,10.24-2.69,3.82-5.17,2.19-9.71,2.19-4.17.02-9.44-1.51-11.16,3.47-2,2.19-3.9,1.3-5.08,3.98,2.72-.4,4.54-3.47,8.53-3.47,7.18-.52,5.12,2.89.91,4.77.82,0,1.82.29,2.27.29-2.72,3.82,2.14,7.37,5.9,7.67.54,0,2.91.1,2.91,1.18,0,.8-6.22,3.41-6.67,3.5-1.81.6-3.5,3.27-4.22,3.27-4.21-2.27,0-6.34,3.55-6.46-1.45,0-1.36-.1-1.36-1.49-1.37.1-1.37,1.39-2.18,1.98-1.34.67-3.43.1-4.54.19-.06.48.2.92.45,1.29-1.14,2.31-3.22,1.29-4.99,1.69-1.33,1.4-5.85,3.87-4.17,7.36.12,1.44.77,2.38,1.91,1.1v.68c-1.09.3-2.63.69-2.99.3-1.82,1.49-4.9.89-6.72,2.19,1.04.2,2.33-.56,3.18,0-1.42,1.03-6.84-.6-4,2.28-.39.89-2.27,6.06-3.18,3.49l-.45.48c.19.8.82,1.1.82,1.9,0,.59-1.82,4.07-2.09,4.07-.53-.13-.33-1.29-.36-1.69,0-.7-.81-2.29-1-3.29-.37,1.75.34,2.91.37,4.78,0,.99-.55.89,0,1.48h.63c.16.91-.21,2.3-1.2,2.22.36.69.79.77,1.25.86-.18,1.09-.59,1-1.41,1v.8l1.07.69c-1.08,1.82-3.95,1.87-4.87,3.58l.25.19c-4.25,2.62-9.69,4.51-9.69,11.74,0,3.28,2.54,4.27,2.54,7.46-.02,1.53,1.13,2.43,1.09,4.48,0,2.08-.46,3.97-1.99,3.97-1.36,0-1.28-1.59-1.81-2.48-1.09-1.59-2-2.09-2.72-3.67-1.4-3.85-.99-12.44-6.35-7.95-1.64,0-2.63-2.3-4.81-2.3-1.52-.04-2.36,1.8-2.9,0-1.45.41-3.36.21-4.9.8.9.29.72.29,1.27,0-.09,1.5-.91,2.39.19,3.18-2.54,1.39-4.72-1.99-6.54-1.99-2.03,1.57-1.93.2-3.9-.2-2.63,0-3.9,2.49-4.99,3.68-.73.79-1.55.09-2.45.5-2.02.71-4.04,4.73-2.73,7.45-.07,0-.16-.02-.24-.04.94,2.07-.02,3.96-.49,5.81.18,1.48-.53,6.51.72,7.56-.04,2.09.89,3.8,2.46,5.27,1.63,1.79,1.63,3.48,3.99,4.28,2.45,3.18,5.32-1.83,8.26.39.72,0,1.18-1.18,1.27-1.58.36-1.2,1.91-2.49,1.91-3.99.31-4.75,6.11-3.85,9.35-3.38.33,1.98-1.44,3.64-1.54,5.97,0,1.59-.54,2.28-1.09,3.29v-.7h-.72c-.18,2.09.83,5.61-1.64,6.75-.23,4.22,9.06-1.75,14.07,3.08.09,3.3-.98,8.48-.63,11.93,0,2.19,1.91,3.09,3.36,3.88.99.5.99,2.39,2.54,2.39,5.42-1.53,6.35-3.89,10.83,1.2-.04.08-.29.4-.6.77.28-.23.54-.44.67-.68.73.21.46.21,1.09,0-.05-.41.02-1.03.55-1.09,0-.99.91-1.29,1.45-1.69,1.02-1.57.74-4.55,3.27-4.78,2.18-.79,3.63-1.19,5.91-1.99,1.18-.4,1.45-1.88,2.62-1.88,1.17.43.9,2.42-.08,2.39-.27,1.48-.82,3.17-.82,4.06-.12,2.11,1.79,4.66,2.36,1.4-.69-2.69-2.51-3.77,1.18-4.98h2.17c-.36-1.19-1.72-.69-1.72-1.88l1.59.03c.36,1.6,2.4,2.15,3.76,2.47-.26,2.9,4.54,1.46,5.99,1.78.41,1.88,4.13,1.17,4.63-.3.09-.3,1.99-.3,2.27-.5.9,0,2.54.31,2.54.31-.36.3-1.08.4-1.36.2.18,3.89,5.29.89,5.17,6.17h2.54c1.73,1.89,2.54,1.59,3.63,4.06.18.4.91.61,1.36.61.99,3.3,6.33,2.78,9.26,2.99.63.29,2.08,1.09,3,1.09v.19c1.91-.42,3.64,3.15,5.44,3.69,0,1.18,1.18,4.36,1.64,5.46.46.99,1.63.99,1.63,1.99-1.45,1.99-4.08,2.99-4.08,5.97,0,1,.81.89,1.27,1.09.9.5,1.36,1.3,1.54,2.29h2.18c.45,3.76,3.06-4.64,4.91-3.78,1.63,0,4.9,1.89,6.08,2.68,2.02.45,2.01,1.87,1.9,3.57h.64c2.43-2.46,3.68.18,6.08.52,2.59-.82,5.78-.15,7.71,1.09,4.95,8.63,10.48,1.08,10.71,9.74Zm-117.27-150.64c0,.34.33.53.48.83-.1-.24-.21-.47-.29-.63,2.89-.48,9.3,1.34,9.53-2.89.02-.01.1-.08.19-.17-.09.09-.17.16-.19.17-2.77.32-7.74.94-9.71,2.68Zm-.33,3.37c.55-.3,1.05-.58,1.42-.78,0,0,0,0,0,0-.38.2-.87.48-1.42.78Zm-2.21-.38c-3.84-.88-4.07,3.86-6.09.59,0,5.03,5.55,1,8.26-.18-.45.29-.99-.41-2.17-.41Zm-22.53-20.35c-.81,0-4.7,2.85-6.79,5.73,1.07.23,2.08-.44,2.99-.7.87,2.39,3.05-.05,3.82-.3,1,0,2.63-1.89,3.99-2.18,0,1.39-.63,1.68-1,2.48h1.81c.69,2.27,2.85.53,4.09.2,2.18,0,3.27,1.29,5.17,1.29v1.19c-1.36.5-3.36,0-4.08,0-1.99,0-5.62,2.78-5.81,4.77.91-.58,1.27-1.4,2.18-1.4-1.55,2.19-2.27,7.27-2.27,9.84,1.43,4.28,4.21.97,3.9-2.28.22-1.82-.64-6.68.98-7.51,3.31-.22,1.79-2.63,3.28-2.63,3.88,1.22,4.89,2.67,3.09,6.66,1.09,0,.91-.39,1.82-.69.36,1.59.37,2.29,1.27,3.08h0c1.27,0,2.09-4.77,2.45-6.37,3.6,4.24,4.9-.79,1-2.78h-2.36c-3.09-1.87-8-1.39-7.89-6.37-.56-.65-4.14-4.26-5.26-3.77,0,.19.09.99-.1,1.39-3.75-5.61-1.38,1.21-6.27.34Zm-121.37-44.42c-.88,2.12-2.37,2.5-4.04.83,1.67,1.68,3.16,1.29,4.04-.83Zm6.93,3.95c-1.35-1.78-2.59-2.95-4.46-5h0c1.87,2.05,3.11,3.22,4.46,5Zm4.98,8.22c.12.13.26.21.41.29-1.95-1.19-1.64-4.34-3.32-5.44,1.54,1.06,1.4,3.7,2.9,5.15Zm.43.29c.46.2,1.04.23,1.47.56-.43-.33-1.01-.36-1.47-.56Zm138.09,108.28c-.24.98.68,2.79,1.37,1.39.07-.81-.59-1.58-1.37-1.39Zm-.09-5.67c-.45,0-1.08.4-1.26.8.54,0,1.45.1,2.36,0-.19-.3-.46-.8-1.1-.8Zm2.82,1.2c-.08.29.18.89.45.79l-.45-.79Zm10.98,15.8v-.89c-.36.6-1.09,1.09-1.81.89v.6c.51.1,1.36-.12,1.81-.6Zm-153.49-112.25c2.6-1.7-2.03-3.54-1.45-6.16-1.91-.4-2.36-.4-2.36,1.99,1.09-.8.54-.3,1.99,0-.36,1.27.12,3.46,1.82,4.17Zm-6.53-9.94c-1.93.64-.77-2.08-.91-4.18-1.27.8-.45,0-2.09,0-2.38.31-.36,4.05,1.37,3.98,0,1.59.36,2.78,1.45,3.98.91-1,0-2.39.18-3.78Zm83.96-57.17c1.63,0,1.99.39,3.64-.79-1.73-1.5-9.35-3.69-9.35-6.86,0-2.59-2.45-4.88-2.45-8.46,0-.9,1.99-1.79,1.99-3.28.08-3.09-7.07-2.86-5.8.49-1.46.8-.91,0-2.55,0-3.53.22-.17,6.02.46,8.16-2.22,2.5-2.37-1.16-2.72-2.88-.71-1.86-2.94-3.2-4.99-2.79.18.6.36.89.45,1.79-1,.3-1.72.49-2.72.7-.69-3.24-5.02-4-6.9-1.2-.36-.59-.27-3.47-1.55-3.47-5.4-.62-19.42,10.51-5.62,10.54-1,.69-3.63-.1-3.63,2.09.78,4.42,11.24-.21,14.07,2.78-3.93.32-9.26.01-11.8,2.48,2.19,4.9,5.58,2.58,9.25,3.98,1.09.9.09,2.49,1.64,2.49h8.16c1.91-1.49,4.18-.7,6.54-1.99,1.36-.69.73-1.78,2.36-1.78,2.63,0,3.91,2.98,7.45,2.98,2.27,0,4.36.1,5.17-1.79-.36-.3-.82-.6-.91-1.39-1.48.32-2.02-1.81-.18-1.79Zm-57.18-9.64c.27.5.91,1.99,1.36,1.99s.72.99,1.36.99c.72,0,6.99-2.48,6.99-3.28,0-2.29,4-6.46,6.81-7.46.9-.3,5.71-1.09,5.71-2.18,0-2.3-4.45-4.29-6.35-4.29-1.17,0-2.27,1.2-3.09.3-3.39-.75-4.89-3.22-8.53-1.29-2.17,0-3.17-1-5.44,0,3.81,5.83-2.54,8.15-3.18,13.22,0,1.2,3.63.9,4.36,1.99Zm21.51-27.15c2.15-.07,3.98-.67,4.54,1.5h2.08c2.47-.34,7.82,6.77,10.62,2.48-1,0-1.45-.1-1.81-.29.09-.2.64-.4.91-.4v-1.3c-4.43-.8-1.15-3.57,1-4.68.54.4,1.09.7,1.73.7-.35,2.24,1.07,4.72,3.45,4.97.81,0,1.27-1.19,2.45-1.19,4.01.59.97,6.27-.91,7.15-.55.21-5.9-.49-5.9-.2-3.47.83-8.21,2.95-11.98,3.19-3.28-.25-3.35-3.32,0-2.69-.54-.8-1.36-1.3-1.54-2.29-.55.1-1,.7-1,1.3-2.55.72-4.93.78-6.99,0-1.9-.18-1.03-2-1.36-2.98,1.15-.43,2-1.37,3.27-.88-.35-.14-.68-.28-1.01-.42v-1.49c1.27-.09,1.3-.02,2.04.07-.33-.11-.65-.26-.95-.47.39-.65,1.24-1.2,2.04-1.07-.4-.2-.68-.52-.68-1.01Zm1.78,2.95c.57.11,1.09.2,1.4.23-.48-.11-.95-.18-1.4-.23Zm-11.03,1.82c.98,2.9,4.13-.11,4.26-2.29-.9-.09-4.26.7-4.26,2.29Zm12.71-5.97h2v-1.29h-3.17c0,.9.72,1.29,1.18,1.29Zm-19.34,3.68c.91,0,1.45.6,2.55,0,.68,2.18,3.2,1.66,3.44-.7,1.54.2,2.9-1.39,3.09-3.08.81.49.72,2.79,2.26,2.79l3.9-3.19c0-.79-.63-.99-.72-1.99,4.27-3.41-3.56-2.28-4.27-1.79-.81-.1-.91-.2-1.64-.2-2.54,0-3,2.58-4.72,3.68-2.15,1.28-4.97,1.72-6.35,3.77,0,.3.73.8.9,1.49.73-.1,1-.79,1.54-.79Zm25.87-13.13c1.68-.02,5.1.32,6.35-.99-1.08-4.41-9.07-1.67-10.43.99,2.3-1.32,1.8-.6,4.08,0Zm3.63.5c-15.24-.32-2.74,10.22.28,2.18h-2.54c1.36,0,2.9-.3,3.9-1.19-.27-.39-.63-.99-1.63-.99Zm-9.99,3.18c.64,0,.91-.59,1.27-1.19-3.28-3.19-4.45.33-1.27,1.19Zm45.11,28.64c1.04-2.87-1.08-1.98-3.09-1.59,3.87-3.12,4.59-5.17-1.63-4.68-3.23-.98-9.93,2.8-3.18,3.29v2.69c-1.89.37-3.95-.98-5.45-1.19v1.69c2.63,2.88,5.45,2.49,7.99,5.27.55.6.73,1.69,1.99,1.69,3.69-3.63,5.07.08,5.45-6.66-.55-.2-1.73-.4-2.09-.49Zm-17.88-22.68h-1.09c0,.5.13.87.31,1.18l-.13-.18v1.79c.72.6,1.37,1.29,2.27,1l.27.98h1.37c1.09,3.23,6.64-1.06,8.8.51-1.05.71-2.86.83-2.27,2.48-2.64,2.46,4.02,1.53,5.9.99-.44-3.33,3.19-11.08-2.9-7.95-2.25-.11-3.61-1.58-5.72-.9.37,1.4,1.64,1.4,3.18,1.4v2.18c-2.27,0-2.99-2.18-4.99-2.18v1.2c.36.49,1.09,1.19,1.81,1.69-2.81.89-4.17-4.18-6.81-4.18Zm14.07,40.78c-6.1-.22,4.39,3.28,5.9,3.47,1,0,1.36-.99,2.27-1.59-.54-1.39-4.27-5.08-5.63-5.08-1.82,0-1.45,2.79-2.55,3.19Zm12.25-26.55c-2.5.29-2.61,1.44-2.45,2.48h-2.08c.17,2.34-.03,4.6,1.45,6.47-.08.49-.08,1.69-.08,2.98h1.8c1.1-1.19,1.82-1.49,2.1-3.28h-1.18c.55-1.99.55-.7,2.54-.7,2.73,0,3.99-2.18,5.17-3.97.98-.75,1.86-1.28,1.64-2.79-3.28,0-5.82-1.19-8.9-1.19Zm-28.59-17.21c.63,0,1.18-.49,1.26-1.19-1.9-.7-2.08-2.79-4.45-2.79,0,1.29,2.18,3.98,3.18,3.98Zm-.46,12.13c2.1.26,4.34.11,2.54-2.69-1.27.51-2.18,1-2.54,2.69Zm0-23.77c-.09.4-.36.8-.64.99.72.6,1.18,0,3.18,0-.18.3-.18.89,0,1.2-1.09.4-1.91.3-2.72,1.2,1.11,1.82,4.55-.24,5.45,1.19,7.71,0,4.38,1.66,8.34,2.88,3.4-.38.67-2.95-.91-3.98.18-.3.54-.7.73-.99-.98-1.28-2.16-3.26-4.08-1.49-1,0-.91-2.29-2.73-2.29-4.12,2.44-2.29-2.86-8.16-.19,0,1.19.27,1.49,1.54,1.49Zm7.54,6.17c-4,1.98,1.55,1.84,2.09.8-.82-.3-1.09-.8-2.09-.8Zm34.04,19.19h1.08c-.18,1.69,2.63,1.98,4.54,1.49h7.26c.82-.6,1-1.09,2.27-1.29.95,3.17,9.81,1.32,9.35-2,0,0-.54.11-1.18-.09.1-.4.27-.68.45-.92.26-.03.58-.1.73-.18-5.88-7.71-16.95,3.07-24.87-1.48-.86.96-2.36-.24-.81-1-1.27-1.09-3.54.4-4.09-2.28h3.63c-.82-1.29-4.99-.7-4.27-2.99h-1.63c-3.51,3.02-5.25-2.87-9.72-2.68-1.08,0-2.72,0-2.72,1.49.83,1.22,6.85,5.09,8.35,2.49,1.54,1.69,1.99,3.28,3.63,5.07-4.18,2.8,6.03,8.63,7.99,4.38Zm-11.62-1.99c0-1.29-2.18-3.27-3.81-3.27-2.09,0-1.72,2.28-2.72,2.28-.18,0-1.18.5-1.18,1.5,1.94.66,8.06,5.57,7.72-.51Zm.27-14.41v-1.29c-1.96.06-5.81-.08-7.08,1.19.77-.14,6.92,2.34,7.08.1Zm-9.53-3.48c-2.91,2.12,1.89,2.07,5.45.99-.27-1.09,0-1.79,0-2.48,0-2.09-3.18.1-3.18-2.29-1,0-2.9-.7-3.18-1.49-4.16.54-.97,4.09.91,5.27Zm-4.54-9.94h1.55v-1.99c-.64,0-2-.11-3.19,0,0,1.19,1.09,1.39,1.64,1.99Zm11.52-1.98c-.81,0-2.27-.61-2.72-1h-1.36c.26,2.88,2.18,3.17,5.26,3.17-.54.8-1.18.9-2.09,1.3,0,1.75,1.55.79,2.64.2.93,3.11,3.3-1,7.71,1.29-1.27.29-6.9.1-6.9,1.98,0,1.49,2.54,2.49,4.09,2.49-.27.3-.55.6-1.18.69.48,2.15,6.16,2.98,5.81-.49.82.6,2.45,1.89,3.27,1.78v-1.29h1.63c-.27-.79-.64-.99-1.18-1.98.46-.5.65-1,1.09-1.49.85,4.83,3.25-.57,5.71-1.19,1.54.03,2.59-.19,2.18-1.99-1.19-.1-3.54-1.3-4.45-1.3-.19,0-1.55.9-1.55,0,1.16-2.38.59-1.14-.45-2.98.26-1.74-.71-1.78-2.08-1.7l.45.7v1.29h-1.09c-1.52-4.19-1.67-2.44-5.26-2.98-3.2-4.63-1.48-4.73-8.62-5.37.09,1.39,1.64,1.49,2.72,2.08-1.82-.06-3.71-.35-4.99.9,1,2.67,1.71.75,3.72,1.59-.83,1.87-1.66.4-3.45.31-4.67.13-.5,2.84,1.91,3.18,0,0-.45.8-.82.8Zm33.14,85.5c-.52-4.02-4.76-2.93-7.08-5.77-.28.19-.54.4-.81.8-.46-.99-.91-1.29-1.37-2.79-3.14.66-2.99,5.2-3,7.45-.25,1.79-1.93.92-2.27,3.28.72-.09,2.45-.4,3.9,0-.67,1.48.61,2.99,1.36,1.19,1.27.59,4.27-1.49,4.27-3.69.54.2,3.44,2.49,3.44,2.49,1.81.02,3.96.2,5.45-1.09-.81-1.2-2.45-.7-3.91-1.89Zm17.25-16.4c0-3.28-5.62-3.98-5.62,0-.11,3.15,5.21,2.5,5.62,0Zm-20.42,22.07c-.09.58-1.28,1.49-2,2.48v1.29c1.46-.2,3.72-2.18,4.54-3.38-1.1-.5-.73-.5-2.54-.39Zm9.8-47.92c1.54,0,2.35-.99,3.35-.99,1.52.28,3.76,1.66,4.36-.9-2.77-2.43-6.86-3.52-10.71-3.87-2.38.12-1.61,3.05.27,3.58-.64,1.68.91,2.19,2.72,2.19Zm-2.09,53.68c.91,0,1.09-1.39,1.64-2.19-.91-1.19-3-1.09-3,.7,0,0,1.18,1.49,1.36,1.49Zm16.61-28.54c-.56-1.13-2.1-2.41-3-.59.31,1.23,1.79.82,3,.59Zm-12.71-7.36c-1.09,0-3.17,2.28-2.09,2.28s1.82-1.09,2.09-2.28Zm19.51-9.14c.03-2.64-3.65-1.85-5.26-1.99-5.58-1.26-2.74-6.68-12.44-6.46-1.63,0-2.08,2.48-3.63,2.48-.82,0-1.09-.99-2.09-.99-2.04.78-2.24,2.05-1.81-1,0-2.19-1.27-5.67-3.63-5.67-4.93-.11-12.14,2.21-8.81,7.65,0,.8-1.27,1.99-1.81,1.99-1.42,0-.9-2.09-.91-3.48-2.78-2.25,2.48-4.38,3.17-6.16-3.73-2.02-7.87-.22-10.26,2.68-.36.4.09,2.19-.64,2.79-2.16.96-2.34,5.56-.45,7.16,0,0,4.17.4,4.99,1v1.29c-1.54-.2-2.91-.8-4.09-.3.18,1.39,1.54,1.58,2,2.98h4.35c2.93,4.09,13.11.89,16.52,2-.09.69-.46,2.28.72,2.28,1.63,0,3.09-3.78,4.27-3.78,1,0,5.9,4.57,6.71,5.47-1.32-.03-3.23,1.24-1.45,2.48,1.18,0,1.73-1.19,2.9-1.19,1.91,0,7.72,4.88,7.72,7.46,0,1.39-1.91,3.58-2.72,4.47-.64.7-2.27-.2-2.27,1.5,0,.79,1.18,1.79,1.63,2.08-3.4,2.85-9.86-.55-11.62,4.08,0,1.39,2.9,2.79,3.9,2.79,1.09,0,1.64-1.5,2.73-1.5,1.62.86,2.18,1.1,3.36-.8,2.63,1.69,4.09,3.58,7.08,4.98-1.54,3.18,3.9,3.08,6.08,4.47,2.27,1.49,3.99.9,6.62,2.28.54,1.08,1.34,2.01,1.82,0,0-2.77-5.08-4.87-6.63-6.95h1.36c1,1.4,6.81,3.77,8.44,3.98,3.34-6.89-.82-3.27-.27-8.25h-1.54c-.22-2.37-3.34,1.14-4.54-4.98h-1.18v-1.49c.37.3.82.2,1.36,0v-1.2c-.82.2-.99.3-1.81-.2,4.95-4.34,6.14,5.92,10.88,5.67,1,0,1.18-1.69,1.18-2.79,2.52-.32,1.94-.81,2-2.49,3.3.48,3.77-4.2.27-3.97-.45,0-1.18,0-1.63-.49-1.04-2.88-4.64,2.63-5.17-3.98-1.91-.2-4.35-1.19-4.54-3.48-1.18,0-1.72-.3-2.54-.79.82-1.49,1.54-1.49,2.99-2.29-1.15-1.6-1.97-.57-4.08-1.09.73-1.2,1.91-1.1,3.18-1.39-.68-2.21-2.19-2.59-4.09-2.39v-1.69c-2.54-.3-3.9-1.89-6.36-2.78Zm-19.33,37.48c.91.79,1.18.79,2.09,0-1.09-.6-1.18-1.3-2.09,0Zm-15.16-12.13c-.09.7.63,1.49,1.81,1.59-.63-.89-.63-2.18-1.81-1.59Zm-16.61-88.19h2.72c-1.09.41-1.63.7-2.54,1.69,3.01,2.48,3.54-2.22,7.08-.79-2.36.79-4.63.5-5.63,3.08.73-.1,2.54,0,4.27,0-1.18.1-1.81.6-2.45,1.09,1.05,1.27,5.23,3.23,6.99,1.09h1.18c-.54,1.29,1.82,1.99,3.63,1.99.73,0,1.08-.99,1.81-.99,2.83,1.37,7.8.81,9.99-1.49h1.36c-1.8,2.66-5.94,3.03-8.89,2.78-2.04,1.33,1.97,3.09,2.72,4.07-5.57-1-2.27-4.71-11.8-3.57.19.79.36,1.19,1.36,1.19-.91,0-2.26-.2-2.26.8,0,1.78,6.17,1.78,6.17,4.97-.12,4.16-7.84.27-7.72,7.15h1.36c.41-.72,1.53-.75,2.27-.69,0,2.38,2.81,3.58,4.08,4.97h-1.63c-1.73-1.09-2.73-2.78-5.63-2.78-.91,0-2.27-.4-2.27,1,0,1.78,1.91,2.08,3,2.98-1.91,1.49-6.63,0-6.63,3.98.09,1.1,1.64.94,2-.2,3.91,1.31,7.9,3.03,11.34.99,0,0,6.81,0,6.81,0,1.82,0,.91,1.49,2.99,1.49,3.87.15,11.95-4.85,3.64-4.28,0-3.53,5.8-1.88,3.17-6.17h4.54c1.54-1.19,2.18-3.58,4.09-4.56-.55-1.4-1.54-1.8-2.63-2.39,1.72.2,2.82.4,2.63-1.79h-2.55c1.46-1.3,3.72-1.5,5.73-2.19,1.45-.49,3.45.69,4.72-.3,6.81-8.97,11.5-7.01,18.88-12.32-2.28-.1-5.9.69-6.81-.31,4.81-2.57,9.26-.79,12.89-3.78.64-.49,2.27-.19,2.27-1.48,0-1.79-4.81-1.29-5.89-2.49-.58-1.41-1.84-1.75-3.18-2.48l-7.26,2.28c.73-.2,1-.4,1.64-1.09-4.52-3.11-12.25-.64-17.06-2.39-1.27,0-1.63,1.7-2.91,1.7-1.37.07-3.28-2.4-4.54-.5-1.76.45-11.87-1.21-12.52,1.29-1.19,1.09-.27.2-1.82.2-2.63,0-3.72,2.09-4.53,4.48-.82-.3-4.36-2.18-6.09-2.18-1.9,0-.73,2.18-3.63,2.18,0,.4-.37.8-.73.8-3.17-.15-10.04.54-11.07,3.67h2c.27-.2.81-.5,1.36-.7Zm177.27,67.41c-1.91-.69-9.99-.29-9.99-3.28,3.14-.71,1.62-1.28,1.09-3.78,5.1-.85,3.68,4.65,8.44,4.97.99,0,2.45-.1,2.45-1.19,0-5.68-5.81-7.36-9.08-10.93v-1.5c.19,0,.45.1,1.18,0,.86,2.89,6.6,7.29,6.36,1.69,0-2.69-4.08-1.79-4.99-4.47h1.36c.73,1.1,1.72,1.59,2.72,2.29.73-2.09,4.36-.8,4.99-3.78-.45-.2-.91-.8-.91-1.5,1.73-.2,3.54-1.09,4.08-2.68-3.41-.12-5.9-3.32-.72-3.29-.46-.59,0-1.39,0-2.18,0-1.49-1.36-2.09-1.36-4.27-2.62.62-4.43-2.63-1.1-3.19,1.64,0,6.36.89,6.36-1.49s-3.54-1.89-3.91-3.47c.54,0,1.18-.31,1.63-.61-2.04-2.32-3.76-1.54-6.35-1.88.53-6.36,5.75-4.51,5.17-9.94,1.72-.5,4.08-.9,4.08-2.49,0-.99.64.1,0-1.29,1.64-.4,4.08-.4,4.08-3.18-.72.59-.81.59-1.9,0,4.08,0,5.99-2.88,8.98-3.97.54-.21,2.27-1.09,2.27-2.3-.44-1.64-6.47-5.5-7.26-2.19-4.31-.16-4.11-.15-7.72,1.99-1.6-.29-6.51-.36-8.16-.29-1.46,1.2-6.05,7.75-8.4,8.45.27-.99,6.13-7.75,6.13-8.64-.76-8.02-10.17,2.85-12.94,2.69-.73,0,3.23-4.19,3.41-4.98-1.62-.69-16.85,1.29-18.39,0,5.09-1.07,27.26.68,29.01-5.17-8.48.97-13.32-6.12-21.51-6.76,0,0-13.17,0-13.17,0-5.83.48-10.37,3.52-16.15,2.79v1.19c-5.02-.62-10.61-1.54-15.16,1.29.46.7,1.19.8,1.82,1.49-7.26-.13-1.92,3.95,1.54,5.17h-4.09c-1.57-1.53-12.93-7.15-9.7,0-2.17-.11-4.55-.5-5.72-2.48l-.91.99c0,.7.45,1.29.45,1.99-1.73,0-2.18-2.98-3.81-2.98-5.15,1.38-9.65,2.98-15.25,3.77-3.25.67-.06,7.5-5.99,4.18-2.89,4.21-20.11,7.77-3.99,8.95-.05,7.09-5.3,5.32-10.17,5.96-1.72.6-2.72,1.69-4.36,2.29-1.99.7-5.17-.4-5.17,2.68,0,1.6,8.71,4.28,9.08,4.28.95-.21,3.93.66,4.09-.99h3.63c-.27,1.09-.27,1.49-1.18,2.18h-5.18c-1.5,2.06-5.7-.72-6.63,2.78,1.73.7,1.18,0,3.18,0,1.09,0,2.18,1.1,3.63,1.69-.36.89-.99,1-1.81,1.6,1.28,1.57,5.18,3.11,7.08,2.09-.27-.1-.63-.5-.91-.81,4.05-1.45,2.54,1.98,7.44-.89,11.29-1.31,20.6,8.4,21.78,18.7.82.1,2.27.2,2.27,1.69,0,2.28-1.99,2.08-1.99,4.27,0,1.49.81,1.69,2.45,1.69,1.18,0,1.45-1.69,2.27-1.69,3,0,3.81,4.67,6.62,5.66-.13,3.95-5.88-1.27-7.99,0,.37,2.79,6.99,3.29,9.8,4.28-.81,2.79-2.18,3.78-2.72,6.76-1.28-.59-1.28-.49-2.54.2v.2c-1.82,1.59-2.36,3.57-3.63,5.46v2.3c.54-.51,1.18-.41,1.81,0-2.43,3.2.94,5.82,2.09,8.15.27.99.54,2.88.91,3.28,1.54.89,1.99-1.59,3.35.3-3.95,2.44,2.06,8.97,3.9,10.84.27.2.09,1.59.63,1.98,1.46,1.19,2.37.5,3,2.78,1.09-.1,2.54-1.29,3.81-1.29,3.13.56,1.77,6.32,6.18,3.78.18.6.45,1,1.09,1,2.44,0,1.36-5.17,3.44-6.27-.19-1.09,0-3.68,0-5.46.34-3.46,6.83-2.18,3.18-7.46,0-.5.36-.8.63-1.2-1.32-4.14,4.48-3.29,6.63-5.46.82-.89.45-1.9,1.82-2.49v1.99h1.36c11.16-3.51,4.76-4.06,12.25-9.75,0-.79.9-1.09,1.81-1.68,4.71.26,9.28-1.53,13.62-2.49,2.63-.9,3.54-3.68,6.53-4.78,1.64-.59,2.55-.7,3.9-1.89Zm-82.6,4.38c1.86-.07,5.28.46,5.63-1.99-2.36-.79-3.09-3.48-5.45-3.48-2.96-.3-1.98,4.95-.18,5.47Zm-3.81,77.75c-2.45-4.52-5.38,9.67-8.26,10.14.09.3.45.51.72.51.39,1.14-3.21,2.5-.72,3.48,3.72-1.51,4.35.98,7.35-.39.46.99,1.64.39,2.55.39-2.89,3.2,1.45,1.28,2.18-1.1.85,1.36-.02,2.92,1.63,2.89.17,2.3,2.53.78,2.27-1.19,0-.99-.63-.9-.63-2.09-.55.39-.28.59-1.18.59,0-.69-.64-1.09-.64-1.59,0-.4.82-.6.91-1.5-.36,0-.82.1-1,.3,0-1.49.09-2.39.09-3.28-.45.31-1.63.31-2.63,0l-1.09.4v-.49h-1.63v-.9l.46-.49c-.97-.96-1.83-.38-2.81.29-.25-2.36,2.51-3.44,2.45-5.96Zm-65.45-4.96c.09,0,.45.09.45,0,0-1.4-1.54-1.69-3.09-1.69.1.19.1.49,0,.69.54.6,1.82,1,2.64,1Zm-117.91,12.73c1.74,1.21,5.03,4.07,7.53,3.68v-.9c-1.28-1.85-9.77-9.08-12.16-7.26.44-.06.93.22,1.73.4-.1.3-.46.7-.91.89.36,1.19,2.9,2.19,4.72,2.19-.27.3-.72.3-.91,1Zm-13.62-13.52c-.64-1.01-.29-2.51-.45-3.38-.31,1.41-2.25,1.93-.64.1-.81-.1-1.27-.7-2.09-.7v.8c.37.6.73,1.78,1.09,1.78.55,0,.73,1.1,1.46,1.3-.63.71-.3,2.95.9,2.98.91,0-.73-1.49-.73-1.89s.45-.59.45-.99Zm-58.64-17.51v1.19c.64.5,1.1.6,1.91,1.3,1.36-1.2,1.91-1.9,3.54-2.8v-1.19c-2.03-.26-3.6.78-5.45,1.49Zm239.63,31.31c-1.9-1.19-3.63-3.08-6.44-2.37,1.39.97,4.91,4.35,6.44,2.37Zm-5.63,8.36c-1.59,1.15,2.9,3.12,3.64,3.28.48,0,1.33-.96,1.09-1.7-1.58-.03-4.03.41-4.72-1.59Zm10.44,3.28v-.7c-2.6,0,.39-1.12-1.36-2.48-.82.29-2.09,2.78-2.09,3.38-.03,1.68,3.51,1.17,3.45-.2Zm-274.12-54.88c-.73,0-1.01-.2-1.36.69h-1.36c.18.39.72.7,1.09,1h3c-.19-1-.27-1.69-1.36-1.69Z"/>
        </g>
      </g>
    </g>
  </g>
</svg>