<?xml version="1.0" encoding="UTF-8"?>
<svg id="_レイヤー_2" data-name="レイヤー 2" xmlns="http://www.w3.org/2000/svg" viewBox="0 0 61.53 55.03">
  <defs>
    <style>
      .cls-1 {
        fill: #e66e1e;
      }
    </style>
  </defs>
  <g id="pc">
    <path class="cls-1" d="m61.52,31.87c-.06-8.36-6.62-15.14-14.86-15.61.24-.18.48-.36.71-.56,1.45-1.25,2.62-2.8,3.42-4.55.87-1.9,1.4-4.19,1.4-6.95,0-1.2-.09-2.4-.27-3.58-.06-.4-.43-.67-.82-.62s-.67.43-.62.82c.17,1.12.25,2.24.25,3.37,0,3.43-.86,5.97-2.14,7.91-.9,1.36-2.06,2.53-3.42,3.43-1.89,1.29-3.95,2-5.54,2.38-.16.04-.33.07-.49.1-.31-.3-.64-.58-1-.83-1.36-.93-2.97-1.33-4.58-1.17.01-.18.03-.36.03-.54,0-1.85-.72-3.59-2.03-4.9-2.7-2.7-7.1-2.7-9.8,0-.66.66-1.13,1.42-1.47,2.23-1.59-1.83-4.1-2.79-6.64-2.26-3.74.78-6.15,4.46-5.37,8.2.13.62.36,1.19.64,1.73-1.06.33-2.05.9-2.86,1.71-2.43,2.43-2.67,6.23-.72,8.94-2.43,1.45-3.82,4.3-3.27,7.23.26,1.37.92,2.56,1.83,3.5-.67.33-1.3.76-1.86,1.32-1.31,1.31-2.03,3.05-2.03,4.9s.72,3.59,2.03,4.9,3.13,2.03,4.9,2.03,3.55-.68,4.9-2.03c.42-.42.77-.89,1.06-1.38,1.14,1.09,2.59,1.75,4.18,1.89.2.02.41.03.61.03,1.63,0,3.19-.57,4.45-1.63.89-.75,1.55-1.7,1.96-2.75,1.09.66,2.33.99,3.56.99,1.77,0,3.55-.68,4.9-2.03.72-.72,1.24-1.57,1.58-2.47,1.17.86,2.59,1.38,4.1,1.38.42,0,.86-.04,1.29-.12,3.73-.71,6.2-4.3,5.54-8.03v-.07c-.21-1.05-.65-2.01-1.28-2.84.39-.25.76-.55,1.1-.89,2.7-2.7,2.7-7.1,0-9.8-1.06-1.06-2.37-1.67-3.74-1.9.03-.54.01-1.09-.09-1.65l-.03-.18c-.17-.8-.47-1.56-.89-2.24,1.36-.34,3-.89,4.66-1.82v1.19c.07,8.66,7.11,15.65,15.77,15.65h.96s-.02-2.45-.02-2.45Zm-27.27-14.37c1.08,0,2.13.32,3.05.94,1.2.82,2.01,2.05,2.28,3.48v.02c.55,2.93-1.39,5.77-4.33,6.32-.38.07-.76.1-1.13.09-.97-1.34-2.42-2.35-4.17-2.72-.14-.03-.29-.05-.43-.07-.28-.5-.5-1.04-.61-1.63-.55-2.94,1.38-5.79,4.32-6.34.34-.07.68-.1,1.02-.1Zm-10.91,13.27c.84-2.62,3.55-4.24,6.29-3.66,2.93.62,4.81,3.5,4.2,6.43-.62,2.93-3.5,4.81-6.43,4.2-.95-.2-1.79-.64-2.47-1.25.37-2.09-.25-4.18-1.58-5.72Zm-5.23-.91c.56,0,1.12.09,1.68.27,2.85.93,4.41,4,3.48,6.85-.93,2.85-4,4.41-6.85,3.48-2.85-.93-4.41-4-3.48-6.85.75-2.29,2.88-3.75,5.17-3.75Zm-1.55-5.31c.38-2.97,3.1-5.08,6.07-4.71,2.86.36,4.92,2.91,4.73,5.75-2.28.39-4.26,1.92-5.2,4.09-.57-.41-1.21-.74-1.91-.97-.9-.29-1.82-.39-2.71-.32-.8-1.12-1.16-2.47-.99-3.84Zm6.25-12.9c2.12-2.12,5.57-2.12,7.68,0,1.03,1.03,1.59,2.39,1.59,3.84,0,.3-.03.6-.08.89-2.11.72-3.71,2.4-4.36,4.45-.11.02-.22.02-.32.04-1.09-1.33-2.66-2.28-4.5-2.51-.26-.03-.52-.05-.78-.05-1.27-2.09-1.03-4.84.78-6.65Zm-8.87.38c2.37-.5,4.7.64,5.84,2.65-.15,1.25.06,2.53.59,3.7,0,.04-.01.08-.02.11-2.21.52-4.06,2.12-4.88,4.27-2.68.21-5.18-1.6-5.74-4.3-.61-2.93,1.28-5.82,4.21-6.43Zm-6.83,11.24c.74-.74,1.67-1.22,2.67-1.44,1.3,1.52,3.21,2.45,5.27,2.45.01,0,.02,0,.03,0,0,.03-.01.05-.01.08-.19,1.53.13,3.04.89,4.35-1.37.45-2.58,1.31-3.45,2.49-1.48-.91-3.21-1.24-4.93-.92-.29.05-.56.13-.84.22-1.72-2.13-1.62-5.26.36-7.24Zm3.66,28.67c-2.12,2.12-5.56,2.12-7.68,0-1.03-1.03-1.59-2.39-1.59-3.84s.57-2.81,1.59-3.84c1.06-1.06,2.45-1.59,3.84-1.59s2.78.53,3.84,1.59c2.12,2.12,2.12,5.56,0,7.68Zm-.18-9.72c-1.54-.96-3.38-1.26-5.1-.89-.98-.78-1.7-1.9-1.95-3.23-.55-2.94,1.38-5.79,4.32-6.34.34-.07.68-.1,1.02-.1,1.01,0,2,.29,2.87.84-.09.21-.17.42-.24.64-.85,2.59-.07,5.32,1.76,7.11-.67.93-1.6,1.61-2.68,1.96Zm10.58,8.54c-1.11.93-2.52,1.38-3.96,1.25-1.43-.12-2.72-.79-3.65-1.88.59-1.92.32-4.05-.8-5.79.54-1.18,1.49-2.12,2.66-2.66.17.07.35.14.53.2.71.23,1.43.34,2.14.34.76,0,1.5-.13,2.21-.37.18.1.35.21.51.33-.05.34-.08.68-.08,1.03,0,1.85.72,3.59,2.03,4.9.03.03.06.05.08.08-.3.99-.86,1.88-1.68,2.56Zm10.33-3.7c-2.12,2.12-5.56,2.12-7.68,0-1.03-1.03-1.59-2.39-1.59-3.84s.57-2.82,1.59-3.84c.39-.39.83-.69,1.29-.93.6.34,1.26.61,1.97.76.48.1.96.15,1.43.15.84,0,1.66-.16,2.42-.45.15.11.3.23.44.36-.08.69-.08,1.39.06,2.11.23,1.19.76,2.25,1.48,3.13-.22.94-.68,1.82-1.41,2.55Zm7.75-1.63c-2.94.56-5.79-1.39-6.34-4.33-.43-2.3.67-4.54,2.58-5.67,1.29,1.11,2.89,1.67,4.5,1.67.83,0,1.65-.15,2.43-.45.57.68.97,1.48,1.15,2.37v.07c.57,2.94-1.37,5.79-4.31,6.34Zm4.57-19.1c2.12,2.12,2.12,5.56,0,7.68-2.12,2.12-5.56,2.12-7.68,0-.28-.28-.52-.6-.73-.93.11-1.14-.07-2.25-.48-3.26.2-.02.39-.05.59-.08,2.65-.5,4.66-2.47,5.37-4.9,1.08.18,2.11.66,2.94,1.48Zm2.44-7.66v-.96c7.62.27,13.74,6.49,13.8,14.18v.96c-7.62-.27-13.74-6.49-13.8-14.18Z"/>
  </g>
</svg>