<?xml version="1.0" encoding="UTF-8"?>
<svg id="_レイヤー_2" data-name="レイヤー 2" xmlns="http://www.w3.org/2000/svg" viewBox="0 0 52.98 44.9">
  <defs>
    <style>
      .cls-1 {
        fill: #fff;
      }
    </style>
  </defs>
  <g id="pc">
    <g>
      <path class="cls-1" d="m45.67,5.67c-.51-.41-1.26-.34-1.68.18-.42.51-.34,1.27.18,1.68,4.26,3.45,6.43,8.25,6.43,14.27,0,10.75-2.92,20.7-24.1,20.7-16.89,0-24.1-6.19-24.1-20.7,0-6.22,2.29-11.12,6.82-14.58.52-.4.62-1.15.22-1.67-.4-.52-1.15-.63-1.67-.22C2.68,9.21,0,14.91,0,21.81c0,15.76,8.42,23.09,26.49,23.09s26.49-6.91,26.49-23.09c0-6.69-2.53-12.27-7.32-16.13Z"/>
      <path class="cls-1" d="m11.96,14.8c-.05.32.02.64.21.9s.47.43.79.48c1.04.16,2.02.23,2.95.23,5.48,0,9.03-2.44,10.59-3.81,1.56,1.37,5.11,3.81,10.59,3.81.93,0,1.91-.07,2.95-.23.32-.05.6-.22.79-.48s.27-.58.21-.9c-.03-.2-.75-4.45-2.8-7.57,1.27-1.36,3.4-4.05,2.65-6.19-.15-.43-.53-.74-.99-.8-.33-.04-7.98-.92-13.41.89C21.06-.67,13.41.21,13.08.25c-.45.06-.84.36-.99.8-.74,2.13,1.39,4.83,2.65,6.19-2.04,3.12-2.76,7.38-2.79,7.57Zm2.46-12.28c2.29-.18,7.81-.42,11.65.98.08.03.17.03.25.04.06,0,.11.02.17.03.06,0,.12-.02.19-.03.08-.01.16,0,.24-.04,3.82-1.4,9.36-1.16,11.65-.98-.34,1.01-1.52,2.59-2.71,3.72-.45.43-.5,1.13-.11,1.62,1.45,1.8,2.28,4.53,2.66,6.1-7.16.57-10.83-3.61-11-3.8-.03-.03-.06-.04-.09-.07-.02-.02-.03-.05-.05-.07-.03-.03-.07-.04-.11-.06-.08-.05-.15-.1-.24-.13-.06-.02-.12-.04-.19-.05-.08-.02-.17-.03-.25-.03-.07,0-.13.01-.2.02-.08.01-.16.03-.24.07-.07.03-.13.07-.2.11-.04.03-.09.04-.13.07-.03.02-.04.05-.06.08-.02.02-.05.03-.08.06-.16.19-3.87,4.37-11,3.8.38-1.57,1.21-4.3,2.66-6.1.39-.49.34-1.19-.11-1.62-1.2-1.12-2.38-2.71-2.71-3.72Z"/>
      <path class="cls-1" d="m25.06,7.58h2.83c.66,0,1.2-.54,1.2-1.2s-.54-1.2-1.2-1.2h-2.83c-.66,0-1.2.54-1.2,1.2s.54,1.2,1.2,1.2Z"/>
    </g>
  </g>
</svg>