<?xml version="1.0" encoding="UTF-8"?>
<svg id="_レイヤー_2" data-name="レイヤー 2" xmlns="http://www.w3.org/2000/svg" viewBox="0 0 46.34 58.04">
  <defs>
    <style>
      .cls-1 {
        fill: #e66e1e;
      }
    </style>
  </defs>
  <g id="pc">
    <path class="cls-1" d="m27.79,13.69c10.43.03,16.08,7.78,17.81,15.26,1.29,5.57.96,11.03-1.41,16.28-3.77,8.34-12.08,13.17-21.9,12.78-10.84-.43-19.48-7.66-21.76-18.2C-1.61,29.91,2.89,19.83,11.69,14.82c3.62-2.06,7.46-2.72,11.76-1.67-.09-2.03-.18-3.93-.27-6.05-5.53,3.94-10.57,2.82-15.49-.61-1.03-.72-1.32-1.41-.33-2.4C11.68-.22,17.59-1.77,22.85,2.63c.77.64,2.26.51,3.43.55,2.17.09,2.28.14,2.13,2.29-.2,2.7-.41,5.41-.62,8.22Zm1.3,2.11c.72,1.48,1.5,2.86,2.05,4.33.16.42-.34,1.09-.54,1.64-.46-.34-1.21-.6-1.35-1.05-.86-2.83-2.89-4.38-5.53-5.3-3.8-1.32-7.42-.82-10.89,1.13C4.76,21.08.6,30.31,2.56,39.36c2.35,10.86,11.58,17.52,23.19,16.4,8.34-.8,14.47-5.03,17.18-13.11,2.8-8.38,1.6-16.25-4.69-22.84-2.44-2.56-5.61-3.85-9.14-4Zm-7.02-10.82c-3.73-3.94-9.01-3.85-12.5.11,4.06,3.27,9.32,3.25,12.5-.11Zm3.42,6.94c.11,0,.23.01.34.02.16-1.99.34-3.97.46-5.96.01-.2-.33-.43-.51-.64-.21.25-.6.5-.59.74.05,1.95.18,3.9.29,5.84Z"/>
  </g>
</svg>