<?xml version="1.0" encoding="UTF-8"?>
<svg id="_レイヤー_2" data-name="レイヤー 2" xmlns="http://www.w3.org/2000/svg" viewBox="0 0 52.97 50.93">
  <defs>
    <style>
      .cls-1 {
        fill: #e66e1e;
      }
    </style>
  </defs>
  <g id="pc">
    <g>
      <path class="cls-1" d="m48.93,11.96c-2.84-4.38-6.71-7.19-10.9-7.9-1.97-.34-3.87-.26-5.63.23-.64.17-1.01.83-.84,1.47s.83,1.01,1.47.84c1.43-.4,2.98-.45,4.6-.18,3.47.59,6.86,3.09,9.3,6.85,3.45,5.32,4.54,12.22,2.93,18.47-1.8,7.01-6.39,13.34-11.42,15.75-2.78,1.33-5.5,1.41-8.07.24-2.46-1.12-5.29-1.12-7.75,0-2.58,1.17-5.29,1.09-8.07-.24-5.03-2.4-9.62-8.73-11.42-15.75-1.61-6.25-.51-13.16,2.93-18.47,2.44-3.76,5.83-6.26,9.3-6.85,1.71-.29,3.34-.21,4.84.25.63.2,1.3-.16,1.49-.8.19-.63-.16-1.3-.8-1.49-1.85-.56-3.85-.67-5.93-.31-4.19.71-8.06,3.52-10.9,7.9C.24,17.83-.97,25.44.8,32.33c2,7.78,6.99,14.57,12.71,17.31,3.4,1.63,6.89,1.72,10.09.27,1.83-.84,3.94-.84,5.77,0,1.51.69,3.08,1.03,4.68,1.03,1.79,0,3.62-.43,5.41-1.29,5.72-2.73,10.7-9.53,12.71-17.31,1.77-6.89.56-14.5-3.24-20.37Z"/>
      <path class="cls-1" d="m20.78,10.29c-.44-.5-1.19-.55-1.68-.12-.5.43-.55,1.19-.12,1.69.04.05,2.92,3.29,7.35,3.29,2.19,0,4.76-.8,7.55-3.16.5-.43.57-1.18.14-1.68-.42-.51-1.18-.56-1.68-.14-1.84,1.56-3.54,2.28-5.03,2.5.01-.1.04-.19.03-.29,0-.06-.61-6.07,3-10.41.42-.51.35-1.26-.15-1.68-.51-.42-1.26-.35-1.68.15-4.23,5.09-3.58,11.78-3.54,12.18-2.51-.48-4.05-2.19-4.16-2.32Z"/>
      <path class="cls-1" d="m11.36,16.99v.93c0,.66.54,1.2,1.2,1.2s1.2-.54,1.2-1.2v-.93c0-.66-.54-1.2-1.2-1.2s-1.2.54-1.2,1.2Z"/>
      <path class="cls-1" d="m18.39,25.2v-.93c0-.66-.54-1.2-1.2-1.2s-1.2.54-1.2,1.2v.93c0,.66.54,1.2,1.2,1.2s1.2-.54,1.2-1.2Z"/>
      <path class="cls-1" d="m24.77,21.79v.93c0,.66.54,1.2,1.2,1.2s1.2-.54,1.2-1.2v-.93c0-.66-.54-1.2-1.2-1.2s-1.2.54-1.2,1.2Z"/>
      <path class="cls-1" d="m31.9,31.55v.93c0,.66.54,1.2,1.2,1.2s1.2-.54,1.2-1.2v-.93c0-.66-.54-1.2-1.2-1.2s-1.2.54-1.2,1.2Z"/>
      <path class="cls-1" d="m15.26,33.89c-.66,0-1.2.54-1.2,1.2v.93c0,.66.54,1.2,1.2,1.2s1.2-.54,1.2-1.2v-.93c0-.66-.54-1.2-1.2-1.2Z"/>
      <path class="cls-1" d="m39.05,19.24v-.71c0-.66-.54-1.2-1.2-1.2s-1.2.54-1.2,1.2v.71c0,.66.54,1.2,1.2,1.2s1.2-.54,1.2-1.2Z"/>
    </g>
  </g>
</svg>