<?xml version="1.0" encoding="UTF-8"?>
<svg id="_レイヤー_2" data-name="レイヤー 2" xmlns="http://www.w3.org/2000/svg" viewBox="0 0 61.41 57.74">
  <defs>
    <style>
      .cls-1 {
        fill: #fff;
      }
    </style>
  </defs>
  <g id="pc">
    <g>
      <path class="cls-1" d="m24.13,37.11c-.65.11-1.09.73-.97,1.38.11.63-1.21,1.91-2.45,2.63-.57.33-.77,1.06-.44,1.63.22.38.62.6,1.04.6.2,0,.41-.05.59-.16.68-.39,4.07-2.48,3.62-5.11-.11-.65-.73-1.08-1.38-.97Z"/>
      <path class="cls-1" d="m25.99,24.38c-.72.85-3.02,3.8-2.43,5.94.15.53.63.88,1.15.88.1,0,.21-.01.32-.04.64-.17,1.01-.83.84-1.47-.17-.63.89-2.51,1.95-3.77.42-.51.36-1.26-.14-1.68-.5-.42-1.25-.36-1.68.14Z"/>
      <path class="cls-1" d="m48.87,8.38c-1.24-.34-3.21.61-3.99,1.04-.58.32-.79,1.04-.48,1.62.22.4.63.62,1.05.62.19,0,.39-.05.57-.15.85-.46,1.96-.89,2.22-.83.64.17,1.29-.2,1.47-.84.17-.64-.2-1.29-.84-1.47Z"/>
      <path class="cls-1" d="m39.8,21.55c-1.22.45-2.25,2.37-2.63,3.18-.29.59-.04,1.31.56,1.59.17.08.34.12.52.12.44,0,.87-.25,1.08-.68.42-.88,1.06-1.82,1.31-1.97.62-.23.93-.92.7-1.54-.23-.62-.91-.93-1.54-.7Z"/>
      <path class="cls-1" d="m59.52.31c-1.19-.7-2.92-.15-5.63.84-.98.36-2.09.76-2.54.79-12.26.69-26.91,16.76-36.6,27.4-2.37,2.6-4.42,4.85-5.94,6.31-6.16,5.91-6.26,9.28-6.34,11.99-.01.48-.03.94-.08,1.41-.12,1.06-1.43,3.77-2.23,5.24-.19.35-.19.77-.01,1.12.16.3,1.02,1.85,2.48,2.24.22.06.45.09.67.09.5,0,.99-.15,1.44-.44,1.92-1.23,3.83-1.39,6.04-1.58,3.35-.28,7.14-.61,12-4.52,7.05-5.68,35.97-35.36,36.65-41.5.22-1.99.82-3.32,1.31-4.38.72-1.59,1.53-3.39-1.2-5.01Zm-.98,4.02c-.52,1.16-1.24,2.74-1.5,5.11-.5,4.49-26.74,32.63-35.77,39.9-4.29,3.45-7.55,3.73-10.7,4-2.31.2-4.7.4-7.12,1.94-.12.08-.17.07-.2.06-.2-.05-.44-.29-.65-.55.66-1.27,2-4,2.17-5.48.06-.53.08-1.06.09-1.6.08-2.51.15-5.1,5.61-10.34,1.57-1.51,3.65-3.79,6.05-6.42C25.36,21.23,40.19,4.96,51.48,4.33c.81-.05,1.93-.46,3.23-.93,1.09-.4,3.13-1.14,3.59-1.03q.89.53.24,1.97Z"/>
    </g>
  </g>
</svg>