<?xml version="1.0" encoding="UTF-8"?>
<svg id="_レイヤー_2" data-name="レイヤー 2" xmlns="http://www.w3.org/2000/svg" viewBox="0 0 63.1 49.57">
  <defs>
    <style>
      .cls-1 {
        fill: #e66e1e;
        stroke-width: 0px;
      }
    </style>
  </defs>
  <g id="_01" data-name="01">
    <g>
      <path class="cls-1" d="m44.86,9.48c-3.26,0-6.59-.79-9.93-2.35-.33-.15-.55-.47-.6-.83-.04-.36.1-.72.38-.94.12-.09,2.87-2.29,7.24-3.85,5.81-2.08,11.71-2,17.08.21.33.13.57.43.63.77.07.35-.05.71-.3.95-2.96,2.88-6.56,4.82-10.41,5.62-1.35.28-2.72.42-4.1.42Zm-7.31-3.52c9.09,3.49,15.73-.16,19.08-2.89-4.45-1.43-9.11-1.3-13.9.39-2.22.79-4.01,1.77-5.18,2.5Z"/>
      <path class="cls-1" d="m34.87,5.58c-.3-.55-1.79-1.65-3.32-1.65-2.04,0-3.63,1.26-3.63,2.87,0,2.22,2.78,2.4,3.63,2.4.76,0,2.96,0,3.47-1.45.19-.54.32-1.3-.15-2.16Zm-3.32,1.86c-.7,0-1.88-.14-1.88-.64s.77-1.12,1.88-1.12,1.88.59,1.88,1.12-1.18.64-1.88.64Z"/>
      <path class="cls-1" d="m56.6,9.25c-1.87-1.81-3.62.39-1.7,2.01,2.07,1.75,5.57,7.35,5.57,13.74s-2.88,11.96-8.32,15.95c-5.26,3.86-12.57,5.98-20.6,5.98s-15.35-2.12-20.6-5.98c-5.44-3.99-8.32-9.51-8.32-15.95s2.88-12.07,8.33-16.17c5.29-3.99,12.53-6.75,22.47-5.86,3.01.27,3.01-2.47.77-2.66C22.16-.72,15.13,2.4,9.38,6.73,3.33,11.29,0,17.78,0,25s3.25,13.56,9.39,18.07c5.7,4.19,13.57,6.49,22.16,6.49s16.46-2.31,22.16-6.49c6.14-4.51,9.39-10.76,9.39-18.07,0-6.78-3.59-12.93-6.5-15.76Z"/>
      <path class="cls-1" d="m49.55,29.84c.72,0,1.31-.59,1.31-1.31s-.59-1.31-1.31-1.31-1.31.59-1.31,1.31.59,1.31,1.31,1.31Z"/>
      <circle class="cls-1" cx="47.7" cy="34.05" r="1.31"/>
      <path class="cls-1" d="m57.83,25.03c0-.72-.59-1.31-1.31-1.31s-1.31.59-1.31,1.31.59,1.31,1.31,1.31,1.31-.59,1.31-1.31Z"/>
      <path class="cls-1" d="m45.63,40.87c.72,0,1.31-.59,1.31-1.31s-.59-1.31-1.31-1.31-1.31.59-1.31,1.31.59,1.31,1.31,1.31Z"/>
      <path class="cls-1" d="m36.59,43.75c.72,0,1.31-.59,1.31-1.31s-.59-1.31-1.31-1.31-1.31.59-1.31,1.31.59,1.31,1.31,1.31Z"/>
      <path class="cls-1" d="m41.03,33.43c.72,0,1.31-.59,1.31-1.31s-.59-1.31-1.31-1.31-1.31.59-1.31,1.31.59,1.31,1.31,1.31Z"/>
      <path class="cls-1" d="m41.25,36.95c-.72,0-1.31.59-1.31,1.31s.59,1.31,1.31,1.31,1.31-.59,1.31-1.31-.59-1.31-1.31-1.31Z"/>
      <path class="cls-1" d="m52.6,32.49c0,.72.59,1.31,1.31,1.31s1.31-.59,1.31-1.31-.59-1.31-1.31-1.31-1.31.59-1.31,1.31Z"/>
      <path class="cls-1" d="m52.04,23.74c.72,0,1.31-.59,1.31-1.31s-.59-1.31-1.31-1.31-1.31.59-1.31,1.31.59,1.31,1.31,1.31Z"/>
      <path class="cls-1" d="m53.72,18.87c.72,0,1.31-.59,1.31-1.31s-.59-1.31-1.31-1.31-1.31.59-1.31,1.31.59,1.31,1.31,1.31Z"/>
      <path class="cls-1" d="m28.93,41.13c-.72,0-1.31.59-1.31,1.31s.59,1.31,1.31,1.31,1.31-.59,1.31-1.31-.59-1.31-1.31-1.31Z"/>
    </g>
  </g>
</svg>