<?xml version="1.0" encoding="UTF-8"?>
<svg id="_レイヤー_2" data-name="レイヤー 2" xmlns="http://www.w3.org/2000/svg" viewBox="0 0 52.98 57.35">
  <defs>
    <style>
      .cls-1 {
        fill: #fff;
      }
    </style>
  </defs>
  <g id="pc">
    <g>
      <path class="cls-1" d="m50.02,16.88c-2.55-3.98-6.69-6.64-11.67-7.48-2.03-.35-3.98-.27-5.8.23-.64.18-1.01.83-.84,1.47.18.63.83,1,1.47.84,1.49-.41,3.09-.47,4.76-.18,4.31.73,7.88,3.01,10.06,6.42,2.91,4.54,3.36,10.93,1.33,18.48-1.99,7.36-7.96,15.07-13.6,17.55-1.43.63-3.5,1.19-5.25.28-2.68-1.39-5.8-1.38-8.14.04-1.35.81-3.18.35-4.48-.17-5.22-2.12-12.17-9.49-14.3-17.69-1.97-7.58-1.45-14,1.5-18.58,2.18-3.37,5.68-5.61,9.88-6.33,1.77-.3,3.46-.22,5,.25.64.2,1.3-.16,1.49-.8.19-.63-.16-1.3-.8-1.49-1.91-.58-3.96-.69-6.1-.32-4.86.83-8.94,3.45-11.49,7.38C-.27,21.93-.9,29.01,1.25,37.26c2.32,8.91,9.96,16.96,15.71,19.3,1.3.53,2.52.79,3.63.79s2.11-.26,2.98-.79c1.64-.99,3.86-.97,5.81.04,2.05,1.06,4.57.99,7.31-.21,6.33-2.78,12.76-11,14.95-19.12,2.22-8.22,1.66-15.27-1.62-20.39Z"/>
      <path class="cls-1" d="m20.53,15.81c-.43-.5-1.19-.55-1.68-.12-.5.43-.55,1.19-.12,1.69.04.05,3,3.38,7.55,3.38,2.25,0,4.89-.82,7.76-3.25.5-.43.57-1.18.14-1.68-.42-.51-1.18-.56-1.68-.14-1.89,1.6-3.63,2.34-5.17,2.58.03-.14.03-.29,0-.44-.09-.41-1.97-10.13,6.58-15.62.56-.36.72-1.1.36-1.65-.36-.56-1.1-.72-1.65-.36-9.59,6.14-7.82,17.13-7.65,18.05-2.67-.47-4.33-2.29-4.45-2.43Z"/>
    </g>
  </g>
</svg>