<?xml version="1.0" encoding="UTF-8"?>
<svg id="_レイヤー_2" data-name="レイヤー 2" xmlns="http://www.w3.org/2000/svg" viewBox="0 0 43.4 52.62">
  <defs>
    <style>
      .cls-1 {
        fill: #fff;
        stroke-width: 0px;
      }
    </style>
  </defs>
  <g id="_モバイル" data-name="モバイル">
    <g>
      <path class="cls-1" d="m7.35,21.75c.39-.95.16-1.94-.5-2.2-.66-.26-1.51.29-1.9,1.24-.39.95.5,2.2.5,2.2,0,0,1.51-.29,1.9-1.24Z"/>
      <path class="cls-1" d="m14.72,21.87c.39-.95.16-1.94-.5-2.2-.66-.26-1.51.29-1.9,1.24s.5,2.2.5,2.2c0,0,1.51-.29,1.9-1.24Z"/>
      <path class="cls-1" d="m18.78,27.87c-.66-.26-1.51.29-1.9,1.24-.39.95.5,2.2.5,2.2,0,0,1.51-.29,1.9-1.25.39-.95.16-1.94-.5-2.2Z"/>
      <path class="cls-1" d="m24.81,35.38c-.66-.26-1.51.29-1.9,1.24-.39.95.5,2.2.5,2.2,0,0,1.51-.29,1.9-1.25.39-.95.16-1.94-.5-2.2Z"/>
      <path class="cls-1" d="m31.4,30.97c-.66-.26-1.51.29-1.9,1.24-.39.95.5,2.2.5,2.2,0,0,1.51-.29,1.9-1.24.39-.95.17-1.94-.5-2.2Z"/>
      <path class="cls-1" d="m26.59,26.21c-.66-.26-1.51.29-1.9,1.25-.39.95.5,2.2.5,2.2,0,0,1.51-.29,1.9-1.25.39-.95.16-1.94-.5-2.2Z"/>
      <path class="cls-1" d="m16.82,37.88c.39-.95.16-1.94-.5-2.2-.66-.26-1.51.29-1.9,1.24-.39.95.5,2.2.5,2.2,0,0,1.51-.29,1.9-1.24Z"/>
      <path class="cls-1" d="m17.78,42.41c-.66-.26-1.51.29-1.9,1.24-.39.95.5,2.2.5,2.2,0,0,1.51-.29,1.9-1.24s.17-1.94-.5-2.2Z"/>
      <path class="cls-1" d="m21.27,20.07c-.66-.26-1.51.29-1.9,1.25-.39.95.5,2.2.5,2.2,0,0,1.51-.29,1.9-1.24.39-.95.16-1.94-.5-2.2Z"/>
      <path class="cls-1" d="m10.41,29.06c.39-.95.16-1.94-.5-2.2-.66-.26-1.51.29-1.9,1.24-.39.95.5,2.2.5,2.2,0,0,1.51-.29,1.9-1.24Z"/>
      <path class="cls-1" d="m11.24,42.99c-.66-.26-1.51.29-1.9,1.25s.5,2.2.5,2.2c0,0,1.51-.29,1.9-1.24s.16-1.94-.5-2.2Z"/>
      <path class="cls-1" d="m8.85,35.27c-.66-.26-1.51.29-1.9,1.25-.39.95.5,2.2.5,2.2,0,0,1.51-.29,1.9-1.25.39-.95.16-1.94-.5-2.2Z"/>
      <path class="cls-1" d="m38.54,19.12c1.14,4.11,1.91,9.11-2.01,14.42-.91,1.24-2.06,2.38-3.42,3.39l-12.05,8.93c-.78.58-1.55,1.25-2.29,2-1.54,1.56-4.74,3.91-8.98,2.21-4.23-1.69-4.9-5.59-4.92-7.76-.01-1.09-.09-2.08-.25-3.02l-2.43-14.73c-.27-1.64-.31-3.25-.1-4.8.89-6.52,7.41-10.64,8.32-11.45,1.34-1.19-.16-2.57-1.56-1.45C7.27,8.11,1.09,12.63.15,19.48c-.24,1.74-.2,3.55.11,5.39l2.43,14.73c.14.84.22,1.73.23,2.72.02,2.14.66,7.37,6.15,9.57,1.29.52,2.51.73,3.64.73,3.64,0,6.31-2.21,7.46-3.38.66-.67,1.36-1.28,2.06-1.8l12.05-8.93c1.51-1.13,2.8-2.4,3.83-3.8,4.36-5.9,3.95-10.77,2.49-16.22-.51-1.9-2.63-1.45-2.05.63Z"/>
      <path class="cls-1" d="m33.97,25.45c-.42,0-.8-.26-.95-.64-.09-.23-.71-1.49-4.04-3.18-3.37-1.72-4.32-5.47-4.59-7.65-1.38.65-3.81,1.69-5.41,1.79-.47.03-1.12.06-1.82.1-1.47.07-3.13.16-3.85.25-.05,0-.09,0-.14,0-.42,0-.79-.26-.94-.65-.17-.44,0-.93.39-1.2.84-.56,1.88-2.38,2.22-3.03.97-1.51,2.16-2.6,3.66-3.33-.11-.04-.21-.09-.32-.13l-1.97-1c-2.03-1.21-3.67-2.74-4.19-3.45-.25-.35-.26-.82-.03-1.17.19-.28.5-.44.83-.44.09,0,.17.01.25.03.44.11,1.1.17,1.97.17,1.31,0,2.75-.13,3.39-.21.38-.02.73-.02,1.07-.02,4.88,0,7.22,1.48,8.34,2.76C29.36,1.94,30.95.44,32.6.03c.08-.02.15-.03.23-.03.43,0,.8.29.9.71.06.24.02.5-.1.71-.13.21-.33.36-.57.42-1.29.33-2.49,1.84-3.29,3.11.1,0,.2,0,.3,0,.73,0,1.55.11,2.44.32,2.41.58,4.69,1.83,6.57,3.62.71.67,1.5,1.47,2.21,2.18.75.76,1.47,1.48,1.74,1.7.33.26.46.71.32,1.11-.14.41-.55.68-1.04.68-2.28,0-4.31-.17-6.05-.5l-1.92-.52c1.66,3.84,1.07,7.68.75,9.76-.06.43-.14.95-.13,1.09.03.46-.26.88-.71,1.01-.1.03-.18.04-.27.04Zm-8.81-13.83c.15,0,.29.03.42.1.37.21.58.52.58.89,0,.56.19,5.57,3.66,7.35,1.48.75,2.66,1.53,3.52,2.31.42-3.02.51-6.52-1.73-9.78-.27-.39-.24-.91.07-1.25.19-.22.46-.34.75-.34.16,0,.32.04.46.11.83.42,2.75,1.4,7.32,1.64l-.35-.36c-.68-.69-1.41-1.43-2.07-2.05-1.65-1.57-3.63-2.66-5.72-3.16-.78-.19-1.47-.28-2.06-.28-.63,0-1.12.11-1.47.32-.29.68-.56,1.34-.73,1.82-.13.37-.48.62-.88.62-.11,0-.21-.02-.31-.05-.48-.17-.74-.71-.56-1.19,0-.02.33-.91.88-2.07-.33-.56-1.82-2.66-7.38-2.66-.3,0-.62,0-.95.02,0,0-1.71.21-3.43.22,1.43,1.15,4.03,2.9,6.83,3.01.53.02.95.43.97.96.03.53-.35.98-.88,1.05-1.62.21-3.96.79-5.62,3.33-.16.32-.6,1.13-1.17,1.94.53-.03,1.09-.06,1.63-.08.77-.04,1.44-.07,1.92-.11,1.68-.11,5.09-1.75,5.81-2.15.16-.09.32-.13.49-.13Z"/>
    </g>
  </g>
</svg>