<?xml version="1.0" encoding="UTF-8"?>
<svg id="_レイヤー_2" data-name="レイヤー 2" xmlns="http://www.w3.org/2000/svg" viewBox="0 0 39.7 50.93">
  <defs>
    <style>
      .cls-1, .cls-2 {
        fill: #e66e1e;
      }
      .cls-2 {
        font-family: AvenirNext-Bold, 'Avenir Next',sans-serif;
        font-size: 20px;
        font-weight: 700;
      }
    </style>
  </defs>
  <g id="pc">
    <g>
      <path class="cls-1" d="m16.81,43.28l.05.05c.07.08.14.13.22.2.05.04.09.08.14.11.08.06.18.11.27.16.05.03.08.06.13.08.11.05.23.08.36.11.04,0,.07.03.1.03.16.04.32.06.49.06s.33-.02.49-.06c.04,0,.07-.02.1-.03.12-.03.24-.07.36-.11.05-.02.09-.05.13-.08.09-.05.19-.1.27-.16.05-.04.09-.08.14-.11.08-.07.15-.12.22-.2.02-.02.04-.03.05-.05l8.29-9.34c.86-.97.77-2.45-.2-3.32s-2.45-.77-3.32.2l-4.19,4.71v-10.77c0-1.3-1.05-2.35-2.35-2.35s-2.35,1.05-2.35,2.35v10.77l-4.19-4.71c-.86-.97-2.35-1.06-3.32-.2-.97.86-1.06,2.35-.2,3.32l8.29,9.34h0Z"/>
      <path class="cls-1" d="m26.86,46.23H10.27c-1.3,0-2.35,1.05-2.35,2.35s1.05,2.35,2.35,2.35h16.59c1.3,0,2.35-1.05,2.35-2.35s-1.05-2.35-2.35-2.35Z"/>
      <text class="cls-2" text-anchor="middle" x="20" y="15">PDF</text>
    </g>
  </g>
</svg>