<?xml version="1.0" encoding="UTF-8"?>
<svg id="_レイヤー_2" data-name="レイヤー 2" xmlns="http://www.w3.org/2000/svg" viewBox="0 0 52.98 60.83">
  <defs>
    <style>
      .cls-1 {
        fill: #e66e1e;
      }
    </style>
  </defs>
  <g id="pc">
    <g>
      <path class="cls-1" d="m27.69,7.88V2.39h7.66c.66,0,1.2-.54,1.2-1.2s-.54-1.2-1.2-1.2h-18.01c-.66,0-1.2.54-1.2,1.2s.54,1.2,1.2,1.2h7.95v5.48C11.24,8.5,0,20.13,0,34.34s11.88,26.49,26.49,26.49,26.49-11.88,26.49-26.49S41.74,8.5,27.69,7.88Zm-1.2,50.56c-13.29,0-24.1-10.81-24.1-24.1S13.2,10.24,26.49,10.24s24.1,10.81,24.1,24.1-10.81,24.1-24.1,24.1Z"/>
      <path class="cls-1" d="m44.79,37l-2.33-2.33,2.33-2.33c.47-.47.47-1.22,0-1.69-.46-.47-1.22-.47-1.69,0l-2.33,2.33-5.28-5.28,4.85-4.85c.47-.47.47-1.22,0-1.69-.46-.47-1.22-.47-1.69,0l-4.85,4.85-5.1-5.1,2.33-2.33c.47-.47.47-1.22,0-1.69-.47-.47-1.22-.47-1.69,0l-2.33,2.33-2.33-2.33c-.46-.47-1.22-.47-1.69,0-.47.47-.47,1.22,0,1.69l2.33,2.33-5.2,5.2-5-5c-.46-.46-1.22-.46-1.69,0-.46.47-.46,1.22,0,1.69l5,4.99-5.18,5.18-2.33-2.33c-.47-.47-1.23-.47-1.69,0-.47.47-.47,1.22,0,1.69l2.33,2.33-2.33,2.33c-.47.47-.47,1.22,0,1.69.23.23.54.35.84.35s.61-.12.84-.35l2.33-2.33,5.1,5.1-4.52,4.52c-.3.22-.5.57-.5.98,0,.66.55,1.2,1.21,1.2.32,0,.62-.13.84-.35l4.66-4.66,5.28,5.28-2.33,2.33c-.47.47-.47,1.22,0,1.69.23.23.54.35.84.35s.61-.12.84-.35l2.33-2.33,2.33,2.33c.23.23.54.35.84.35s.61-.12.84-.35c.47-.47.47-1.22,0-1.69l-2.33-2.33,5.19-5.19,4.49,4.49c.23.23.54.35.84.35s.61-.12.84-.35c.47-.47.47-1.22,0-1.69l-4.49-4.49,5.19-5.19,2.33,2.33c.23.23.54.35.84.35s.61-.12.84-.35c.47-.47.47-1.22,0-1.69Zm-17.78-14.4l5.1,5.1-5.19,5.19-5.11-5.1,5.2-5.2Zm-12.07,12.07l5.18-5.19,5.11,5.1-5.19,5.19-5.1-5.1Zm12.07,12.07l-5.28-5.28,5.19-5.19,5.28,5.27-5.19,5.19Zm6.88-6.88l-5.28-5.27,5.19-5.19,5.28,5.28-5.19,5.19Z"/>
    </g>
  </g>
</svg>