<?xml version="1.0" encoding="UTF-8"?>
<svg id="_レイヤー_2" data-name="レイヤー 2" xmlns="http://www.w3.org/2000/svg" viewBox="0 0 40 40">
  <defs>
    <style>
      .cls-1 {
        fill: #fff;
      }
    </style>
  </defs>
  <g id="pc">
    <path class="cls-1" d="m20.85,0h-1.9s-.01,0-.02,0C8.31.58,0,9.34,0,20s8.31,19.43,18.93,19.99h1.92c10.75-.45,19.15-9.21,19.15-19.99S31.6.46,20.85,0Zm13.18,8.01c-1.43,1.08-2.98,1.99-4.61,2.7-1.38-3.39-3.55-6.45-6.33-8.92,4.26.72,8.1,2.9,10.93,6.22ZM20.77,1.88c3.22,2.48,5.71,5.72,7.21,9.41-2.32.83-4.74,1.28-7.21,1.33V1.88Zm0,12.29c2.65-.05,5.25-.53,7.74-1.43.76,2.3,1.15,4.69,1.16,7.13h-8.9s0-5.71,0-5.71Zm0,7.26h8.86c-.14,2.39-.65,4.72-1.5,6.92-2.37-.79-4.84-1.22-7.36-1.26v-5.66ZM16.64,1.84c-2.66,2.39-4.77,5.33-6.15,8.57-1.52-.72-2.96-1.62-4.29-2.66,2.74-3.09,6.41-5.17,10.44-5.91Zm-11.41,7.11c1.46,1.15,3.04,2.13,4.7,2.91-.89,2.57-1.35,5.26-1.37,8.02H1.55c.02-3.98,1.29-7.75,3.68-10.93Zm.58,22.84c-2.46-2.96-3.91-6.53-4.2-10.35h7.01c.15,2.68.73,5.28,1.71,7.74-1.6.71-3.12,1.59-4.51,2.62Zm1.04,1.15c1.27-.92,2.64-1.71,4.09-2.35,1.38,2.88,3.29,5.42,5.69,7.57-3.69-.69-7.13-2.51-9.78-5.22Zm12.37,5.34c-2.93-2.2-5.28-5.05-6.84-8.27,2.19-.8,4.49-1.26,6.84-1.36v9.64Zm0-11.18c-2.57.11-5.08.61-7.47,1.49-.91-2.27-1.45-4.68-1.6-7.16h9.07s0,5.67,0,5.67Zm0-7.22h-9.12c.01-2.54.43-5.03,1.25-7.4,2.51.99,5.16,1.55,7.87,1.67v5.73Zm0-7.28c-2.52-.12-4.98-.64-7.31-1.57,1.55-3.66,4.07-6.87,7.31-9.32v10.88Zm1.55,25.52v-9.49c2.31.05,4.58.43,6.75,1.15-1.52,3.24-3.85,6.11-6.75,8.35Zm2.33.09c2.52-2.24,4.49-4.89,5.89-7.9,1.56.63,3.04,1.44,4.4,2.39-2.76,2.91-6.37,4.84-10.29,5.51Zm11.31-6.68c-1.49-1.06-3.12-1.95-4.83-2.65.92-2.37,1.45-4.88,1.6-7.46h7.22c-.28,3.71-1.66,7.2-3.99,10.11Zm4.04-11.66h-7.23c-.01-2.63-.44-5.22-1.27-7.7,1.78-.77,3.47-1.76,5.03-2.94,2.24,3.12,3.44,6.79,3.47,10.64Z"/>
  </g>
</svg>