<?xml version="1.0" encoding="UTF-8"?>
<svg id="_レイヤー_2" data-name="レイヤー 2" xmlns="http://www.w3.org/2000/svg" viewBox="0 0 42.16 55.41">
  <defs>
    <style>
      .cls-1 {
        fill: #e66e1e;
        stroke-width: 0px;
      }
    </style>
  </defs>
  <g id="_01" data-name="01">
    <path class="cls-1" d="m21.08,55.41C9.46,55.41,0,45.96,0,34.33,0,23.61,8.03,14.7,18.53,13.43c-2.06-.14-4.96-.72-6.96-2.72-3.37-3.37-2.72-9.33-2.69-9.59.07-.55.5-.98,1.05-1.05.11-.01.67-.07,1.51-.07,1.99,0,5.68.36,8.08,2.76.12.12.24.25.35.38v-1.94c0-.66.54-1.2,1.2-1.2s1.2.54,1.2,1.2v12.11c11.16.63,19.88,9.85,19.88,21.02s-9.46,21.08-21.08,21.08Zm0-39.75c-10.3,0-18.67,8.38-18.67,18.67s8.38,18.67,18.67,18.67,18.67-8.38,18.67-18.67S31.38,15.66,21.08,15.66ZM11.23,2.41c-.03,1.72.22,4.76,2.05,6.6,1.79,1.79,4.79,2.05,6.42,2.05h.17c.03-1.72-.22-4.76-2.05-6.6-1.79-1.79-4.74-2.05-6.33-2.05h-.26Z"/>
  </g>
</svg>