<?xml version="1.0" encoding="UTF-8"?>
<svg id="_レイヤー_2" data-name="レイヤー 2" xmlns="http://www.w3.org/2000/svg" viewBox="0 0 67.81 50">
  <defs>
    <style>
      .cls-1 {
        fill: #fff;
      }
    </style>
  </defs>
  <g id="pc">
    <path class="cls-1" d="m66.39.02L.94,13.45c-.45.09-.81.44-.91.89s.06.92.43,1.2l12.93,10.04c-.17.18-.3.41-.33.67l-1.97,15.31c-.06.44.14.87.5,1.12.2.14.44.21.67.21.19,0,.38-.05.55-.14l9.96-5.25c.11.15.22.3.33.45,8.91,11.91,9.29,11.95,9.97,12.03.05,0,.09,0,.14,0,.28,0,.57-.1.79-.28,4.2-3.52,32.42-46.07,33.62-47.88.26-.4.26-.92,0-1.31-.27-.4-.75-.59-1.22-.5ZM13.72,39.61l1.57-12.19c1.12,1.53,3.46,4.71,6.04,8.18l-7.61,4.01Zm19.48,7.56c-2.47-2.86-10.53-13.68-15.99-21.13l24.5-10.84c.6-.26.87-.96.6-1.56-.26-.6-.96-.87-1.56-.6l-25.27,11.18L3.93,15.25,64.06,2.92c-8.51,12.79-26.21,39.01-30.86,44.25Z"/>
  </g>
</svg>