<?xml version="1.0" encoding="UTF-8"?>
<svg id="_レイヤー_2" data-name="レイヤー 2" xmlns="http://www.w3.org/2000/svg" viewBox="0 0 61.41 61.16">
  <defs>
    <style>
      .cls-1 {
        fill: #e66e1e;
      }
    </style>
  </defs>
  <g id="pc">
    <g>
      <path class="cls-1" d="m60.95,27.34c-1.59-2.03-6.99-1.68-13.12.84-1.98.82-3.94,1.49-5.84,2.14-6.07,2.08-11.79,4.05-17.83,10.17-5.04,5.11-6.65,9.31-7.82,12.38-.65,1.69-1.11,2.91-1.91,3.68-1.52,1.47-1,2.66-.7,3.11.71,1.09,2.49,1.5,4.25,1.5,1.35,0,2.69-.24,3.55-.6,1.43-.6,2.82-.56,4.92-.5,1.07.03,2.28.06,3.71.01,7.4-.23,15.28-6.48,21.03-11.04l1.49-1.18c4.15-3.25,5.63-9,6.71-13.2.48-1.87.93-3.63,1.44-4.31.76-1.03.81-2.16.15-3.01Zm-2.07,1.6c-.77,1.06-1.24,2.85-1.82,5.13-.99,3.87-2.36,9.16-5.87,11.91l-1.5,1.18c-5.49,4.35-13.01,10.32-19.62,10.53-1.38.04-2.54.01-3.57-.02-2.24-.06-4-.11-5.9.69-1.39.58-3.85.48-4.69.1.04-.05.1-.11.17-.18,1.18-1.14,1.79-2.72,2.49-4.55,1.1-2.87,2.6-6.81,7.29-11.56,5.65-5.71,11.12-7.6,16.91-9.59,1.94-.66,3.93-1.35,5.98-2.19,6.06-2.5,9.84-2.15,10.28-1.73,0,0-.02.09-.15.27Z"/>
      <path class="cls-1" d="m33.82,48.05c-.49.62-2.93.9-4.8.76-.69-.02-1.23.45-1.28,1.1-.05.66.45,1.23,1.11,1.28.22.01.65.04,1.2.04,1.68,0,4.47-.24,5.64-1.69.41-.52.33-1.27-.18-1.68-.51-.41-1.27-.33-1.68.18Z"/>
      <path class="cls-1" d="m43.87,36.16c-.65.08-1.12.68-1.04,1.33.08.66.66,1.13,1.33,1.04,1.13-.14,2.44-.1,2.74.07.21.16.46.24.71.24.37,0,.72-.17.96-.48.4-.53.29-1.28-.24-1.67-1.12-.84-3.5-.65-4.47-.52Z"/>
      <path class="cls-1" d="m16.81,28.94c-.5.62-2.93.9-4.8.76-.67-.03-1.23.45-1.28,1.11-.05.66.45,1.23,1.11,1.28.22.01.65.04,1.2.04,1.68,0,4.47-.24,5.64-1.69.41-.52.33-1.27-.18-1.68-.51-.41-1.27-.33-1.68.18Z"/>
      <path class="cls-1" d="m26.13,10.67c-1.41-.21-3.37,1.13-4.16,1.71-.53.39-.65,1.14-.26,1.67.23.32.6.49.97.49.24,0,.49-.08.7-.23.9-.66,2.09-1.27,2.43-1.27.64.09,1.26-.37,1.35-1.02.09-.65-.37-1.26-1.02-1.35Z"/>
      <path class="cls-1" d="m24.39,32.92c9.43-9.91,13.59-16.84,13.47-22.46-.05-2.25.42-3.82.8-5.08.57-1.9,1.16-3.85-1.98-5.19-1.56-.67-4.25.5-8.36,2.75l-.69.38c-.22.12-.68.29-1.33.54-4.13,1.59-15.09,5.82-19.54,14.29C1.67,27.85,1.71,30,1.79,33.62c.02,1.2-1.03,4.43-1.71,6.17-.14.37-.09.79.14,1.11.13.19,1.33,1.84,2.98,2.05.12.02.24.02.36.02.65,0,1.27-.24,1.81-.69,1.97-1.66,4.07-2.13,6.5-2.66,3.64-.8,7.76-1.71,12.53-6.72Zm-13.04,4.38c-2.63.58-5.11,1.12-7.53,3.17-.17.15-.27.13-.32.12-.28-.03-.64-.31-.94-.61.53-1.45,1.65-4.75,1.62-6.47-.07-3.28-.11-5.09,4.7-14.25,4.03-7.68,14.38-11.67,18.28-13.17.78-.3,1.33-.52,1.59-.66l.72-.39c4.37-2.39,5.85-2.75,6.27-2.65q1.17.5.63,2.31c-.41,1.35-.96,3.19-.9,5.82.14,6.39-7.25,14.91-12.81,20.76-4.26,4.48-7.84,5.27-11.31,6.03Z"/>
    </g>
  </g>
</svg>