<?xml version="1.0" encoding="utf-8"?>
<!-- Generator: Adobe Illustrator 21.1.0, SVG Export Plug-In . SVG Version: 6.00 Build 0)  -->
<svg version="1.1" id="レイヤー_1" xmlns="http://www.w3.org/2000/svg" xmlns:xlink="http://www.w3.org/1999/xlink" x="0px"
	 y="0px" width="442px" height="100px" viewBox="0 0 442 100" style="enable-background:new 0 0 442 100;" xml:space="preserve">
<style type="text/css">
	.st0{fill:#082967;}
	.st1{fill:#E50012;}
	.st2{fill:#FFFFFF;}
</style>
<g>
	<g>
		<path class="st0" d="M149.1,68.5l-0.5,0c-0.5,0-0.9,0.1-1.3,0.3c-0.3,0.1-0.6,0.2-0.9,0.2c-0.7,0.1-1.3,0.2-1.8,0.2
			c-5.7,0.6-10.7-0.9-14.3-4.3c-3.5-3.3-5.3-8.4-5.3-15.2c0-3.2,0.5-6,1.4-8.4c0.9-2.2,2-4.1,3.8-5.8c1.5-1.5,3.2-2.5,5.7-3.4
			c2.1-0.8,4.4-1.2,7-1.2c2.2,0,4.3,0.3,6.2,0.9c1.9,0.6,3.7,1.3,5.1,2.2l0.8,0.4c1,0.5,2.1,1.1,3.1,1.9c0.7,0.5,1.3,0.9,1.9,1.3
			c0.4,0.2,0.7,0.5,1,0.7h0.6V25.6c-3.1-1.5-6.1-2.7-9-3.5c-3-0.9-6.9-1.3-11.7-1.3c-9.2,0-16.5,2.7-21.8,8
			c-5.3,5.3-7.9,12.4-7.9,21.2c0,9.3,2.7,16.7,7.9,21.7c5.3,5.1,12.5,7.6,21.4,7.6c3.9,0,7.9-0.5,11.9-1.4c3.8-0.9,7-1.9,9.5-2.8
			V45.7h-23.6v10.5h11V68.5z"/>
		<polygon class="st0" points="206.3,45.8 184.9,45.8 184.9,32.6 209.2,32.6 209.2,21.9 171.5,21.9 171.5,78.1 184.9,78.1 
			184.9,56.5 206.3,56.5 		"/>
		<path class="st0" d="M253.7,25.5c-1.9-1.3-4.1-2.2-6.4-2.8c-2.4-0.6-5.2-0.9-8.5-0.9h-21.9v56.2h13.5V57.1h8.2
			c2,0,3.9-0.2,5.5-0.5c1.6-0.3,3.2-0.8,4.5-1.4c1.4-0.6,2.7-1.3,3.8-2.1c1.1-0.8,2.2-1.7,3.2-2.7c1.7-1.7,2.8-3.4,3.6-5.6
			c0.8-2.2,1.3-4.1,1.3-6.8c0-3.2-0.6-4.9-1.7-7.2C257.5,28.7,256,27,253.7,25.5z M245.9,41.4c-0.3,0.6-1.1,1.7-2.2,2.6
			c-0.6,0.4-1.2,0.8-2.1,1.2c-0.9,0.4-1.8,0.5-2.6,0.7c-0.8,0.1-1.6,0.1-2.6,0.2l-0.7,0c-0.1,0-0.3,0-0.4,0c-0.5,0-1.1,0-1.7,0
			c-0.6,0-1.2,0-1.8,0h-1.5V32.4l4.1,0c1.4,0,2.6,0,3.6,0c1.2,0,2.6,0.2,4.1,0.7c1,0.4,2.1,0.9,3,1.9c0.4,0.5,1.3,2,1.3,3.3
			C246.5,40.1,246.1,40.9,245.9,41.4z"/>
	</g>
	<g>
		<path class="st0" d="M276.1,35.9c0,0.6,0,1.2,0,1.8h13.6c2.3,0,3.2,0,3.3,0c0.2,0,0.3,0,0.3,0.3v1.4c0,0.3,0,0.3-0.3,0.3
			c-0.1,0-1-0.1-3.3-0.1h-0.4c0.6,0.2,1.4,0.5,1.9,0.7c0.1,0,0.2,0.1,0.2,0.2c0,0.2,0,0.2-0.2,0.3c-0.2,0-0.3,0.2-0.6,0.4
			c-0.3,0.3-0.7,0.6-1.2,0.9c1.4,0.5,3.1,0.7,5,0.9c-0.4,0.4-0.7,1-1,1.7c-0.2,0.6-0.3,0.6-1,0.5c-3.1-0.5-5.8-1.5-7.7-3.3
			c-0.1,0.4-0.1,0.8-0.2,1.2c0,0.8,0,0.8-0.8,1c-1.9,0.5-4,0.8-5.8,1.1c-0.4,0.1-0.7,0.1-0.9,0.2c-0.1,0.1-0.2,0.1-0.4,0.1
			c-0.1,0-0.2-0.1-0.3-0.4c-0.2-0.7-0.3-1.4-0.5-2.2c0.8,0,1.3,0,2.2-0.1c0.1,0,0.2,0,0.4,0v-3.2h-2.4l-0.2,0.9
			c-0.4,1.5-1,3-1.8,4.3c-0.2,0.3-0.3,0.5-0.5,0.5c-0.1,0-0.2-0.1-0.4-0.4c-0.5-0.7-1-1.2-1.4-1.5c0.9-1.1,1.5-2.3,1.8-3.5
			c0.3-1.3,0.4-2.3,0.4-4.5c0-1.9,0-2.7,0-2.9c0-0.3,0-0.3,0.3-0.3c0.1,0,0.9,0,3.2,0h12.1c2.3,0,3,0,3.2,0c0.2,0,0.3,0,0.3,0.3v1.4
			c0,0.3,0,0.3-0.3,0.3c-0.1,0-0.9,0-3.2,0h-13.2V35.9z M288,24.1c2.3,0,3.2,0,3.3,0c0.2,0,0.3,0,0.3,0.3c0,0.2,0,0.7,0,2V29
			c0,1.3,0,1.9,0,2c0,0.3,0,0.3-0.3,0.3c-0.1,0-1,0-3.3,0h-9.8c-2.3,0-3.2,0-3.3,0c-0.2,0-0.3,0-0.3-0.3c0-0.2,0-0.7,0-2v-2.7
			c0-1.3,0-1.9,0-2c0-0.3,0-0.3,0.3-0.3c0.1,0,1,0,3.3,0h1.5c0-0.8,0-1.2-0.1-1.8c0.9,0,1.6,0.1,2.2,0.2c0.2,0,0.3,0.1,0.3,0.2
			c0,0.1-0.1,0.3-0.1,0.4c-0.1,0.2-0.1,0.4-0.1,1h2.4c0-0.8,0-1.2-0.1-1.8c0.9,0,1.5,0.1,2.2,0.2c0.2,0,0.3,0.1,0.3,0.2
			c0,0.1,0,0.3-0.1,0.4c-0.1,0.2-0.1,0.4-0.1,1H288z M279.6,26.9v-1.2H277v1.2H279.6z M279.6,29.6v-1.3H277v1.3H279.6z M281.2,36.7
			c-2.3,0-3,0.1-3.2,0.1c-0.2,0-0.3,0-0.3-0.3v-1.2c0-0.3,0-0.3,0.3-0.3c0.1,0,0.9,0,3.2,0h6.2c2.2,0,3,0,3.1,0c0.3,0,0.3,0,0.3,0.3
			v1.2c0,0.3,0,0.3-0.3,0.3c-0.1,0-0.9-0.1-3.1-0.1H281.2z M280.6,42.4c1.3-0.2,2.6-0.4,3.8-0.7c-0.6-0.6-1.2-1.4-1.7-2.2h-2.1V42.4
			z M281.8,26.9h2.4v-1.2h-2.4V26.9z M284.2,29.6v-1.3h-2.4v1.3H284.2z M285.3,39.6c0.5,0.7,1.3,1.3,2.1,1.8c0.4-0.3,0.7-0.7,1.1-1
			c0.2-0.2,0.4-0.5,0.6-0.8H285.3z M286.4,25.7v1.2h2.8v-1.2H286.4z M289.1,28.4h-2.8v1.3h2.8V28.4z"/>
		<path class="st0" d="M300.4,25.9c0-1.6,0-2.4-0.2-3.6c0.9,0,1.8,0.1,2.5,0.2c0.2,0,0.4,0.1,0.4,0.3c0,0.2-0.1,0.4-0.1,0.6
			c-0.1,0.3-0.2,0.7-0.2,2.5v1.7h0.1c1.9,0,2.5-0.1,2.7-0.1c0.2,0,0.3,0,0.3,0.3v1.9c0,0.3,0,0.3-0.3,0.3c-0.1,0-0.7,0-2.5,0
			c0.7,1.7,1.9,3.2,3.2,4.6c-0.3,0.5-0.7,1.2-1,1.8c-0.1,0.3-0.2,0.4-0.3,0.4s-0.2-0.1-0.4-0.4c-0.7-1.1-1.4-2.4-1.9-3.6
			c0,6.7,0.2,11.9,0.2,12.5c0,0.3,0,0.3-0.3,0.3h-2c-0.2,0-0.3,0-0.3-0.3c0-0.5,0.1-5.7,0.2-11.9c-0.7,2.5-1.9,4.9-3.3,7
			c-0.1,0.3-0.3,0.4-0.4,0.4c-0.1,0-0.2-0.1-0.3-0.4c-0.2-0.8-0.5-1.5-0.9-2.1c1.7-2.2,3.2-4.9,4.3-8.2h-0.7c-1.9,0-2.5,0-2.7,0
			c-0.2,0-0.3,0-0.3-0.3v-1.9c0-0.2,0-0.3,0.3-0.3c0.1,0,0.8,0.1,2.7,0.1h1.1V25.9z M310.2,25.9c0-1.6,0-2.4-0.2-3.6
			c0.9,0,1.7,0.1,2.5,0.2c0.2,0,0.4,0.1,0.4,0.3c0,0.2-0.1,0.4-0.2,0.6c-0.1,0.3-0.1,0.8-0.1,2.5v1.7h1.7c2.1,0,2.8-0.1,2.9-0.1
			c0.2,0,0.3,0,0.3,0.3v1.9c0,0.3,0,0.3-0.3,0.3c-0.1,0-0.8,0-2.9,0H313c1.3,3.5,3.2,6.4,5.3,8.6c-0.4,0.6-0.8,1.2-1.1,2.1
			c-0.1,0.3-0.2,0.4-0.3,0.4c-0.1,0-0.2-0.1-0.4-0.4c-1.6-2.1-3-4.5-4-7.4c0,6.4,0.2,11.4,0.2,11.9c0,0.3,0,0.3-0.3,0.3h-2
			c-0.2,0-0.3,0-0.3-0.3c0-0.5,0.1-5.5,0.2-11.6c-1,2.8-2.4,5.3-4.3,7.6c-0.2,0.2-0.3,0.4-0.4,0.4c-0.1,0-0.2-0.1-0.4-0.5
			c-0.3-0.6-0.7-1.1-1.1-1.6c2.4-2.4,4.5-5.8,5.8-9.6c-2,0-2.7,0-2.8,0c-0.2,0-0.3,0-0.3-0.3v-1.9c0-0.2,0-0.3,0.3-0.3
			c0.1,0,0.8,0.1,2.9,0.1h0.4V25.9z"/>
		<path class="st0" d="M326.2,29c0.3,0,0.4,0,0.6-0.1c0.1,0,0.2-0.1,0.3-0.1c0.2,0,0.5,0.2,1,0.8c0.6,0.7,0.8,0.9,0.8,1.1
			c0,0.2-0.1,0.3-0.2,0.5c-0.2,0.2-0.3,0.3-0.5,0.9c-1.2,3.7-3.2,7.2-6.4,10c-0.3,0.2-0.4,0.4-0.5,0.4c-0.1,0-0.3-0.2-0.5-0.5
			c-0.4-0.7-0.9-1.2-1.3-1.5c3.2-2.5,5.1-5.3,6.3-9H323c-1.8,0-2.3,0-2.5,0c-0.2,0-0.3,0-0.3-0.3v-2c0-0.2,0-0.3,0.3-0.3
			c0.1,0,0.7,0.1,2.5,0.1H326.2z M331.8,26.5c0.4,1.8,1,3.6,1.9,5.2c1.3-1.2,2.3-2.2,3.3-3.6c0.4-0.5,0.6-0.8,0.8-1.3
			c0.8,0.5,1.5,1,2,1.5c0.3,0.2,0.3,0.3,0.3,0.5c0,0.2-0.1,0.3-0.3,0.4c-0.3,0.2-0.7,0.5-1.3,1.1c-0.9,1-2.1,2.2-3.7,3.5
			c1.8,2.7,4.2,4.9,6.7,6.2c-0.5,0.5-1,1.1-1.3,1.8c-0.2,0.4-0.3,0.5-0.4,0.5c-0.1,0-0.3-0.1-0.6-0.3c-3.3-2.4-6.2-6.2-7.6-10.2
			c0,3.7,0.2,7.8,0.2,10.2c0,1.1-0.2,1.8-1,2.3c-0.6,0.4-1.6,0.6-3.5,0.6c-0.7,0-0.7,0-0.9-0.8c-0.2-0.8-0.5-1.5-0.8-1.9
			c0.7,0.1,1.6,0.1,2.4,0.1c0.8,0,1.2-0.2,1.2-0.8V25.4c0-1.3,0-2-0.2-2.9c0.9,0,1.8,0.1,2.6,0.2c0.2,0,0.4,0.2,0.4,0.3
			c0,0.2-0.1,0.5-0.2,0.7c-0.1,0.3-0.1,0.8-0.1,1.8V26.5z"/>
		<path class="st0" d="M349.9,44.7c-2.3,0-3.1,0-3.3,0c-0.3,0-0.3,0-0.3-0.3v-1.7c0-0.3,0-0.3,0.3-0.3c0.1,0,0.9,0,3.3,0h4v-2.2
			h-1.3c-2.2,0-2.9,0-3.1,0c-0.2,0-0.3,0-0.3-0.3v-1.7c0-0.3,0-0.3,0.3-0.3c0.1,0,0.9,0,3.1,0h1.3v-1.9H350c-0.5,0.9-1,1.7-1.6,2.5
			c-0.2,0.3-0.3,0.4-0.4,0.4c-0.1,0-0.2-0.1-0.4-0.4c-0.4-0.6-0.8-1-1.2-1.2l-0.2,1.6c-0.3,1.8-0.8,3.7-1.7,5.5
			c-0.2,0.3-0.3,0.5-0.4,0.5c-0.1,0-0.2-0.1-0.4-0.3c-0.5-0.7-1.1-1.3-1.6-1.5c0.9-1.4,1.5-3.2,1.7-4.9c0.3-1.7,0.4-3.5,0.4-5.7
			c0-2.3,0-3.3,0-3.5c0-0.3,0-0.3,0.3-0.3c0.1,0,0.9,0,3.2,0h1.8c-0.3-0.9-0.7-1.6-1.1-2.2h-0.7c-2.3,0-3.1,0.1-3.2,0.1
			c-0.3,0-0.3,0-0.3-0.3v-1.7c0-0.3,0-0.3,0.3-0.3c0.1,0,0.9,0.1,3.2,0.1h4.7v-0.2c0-1,0-1.6-0.2-2.2c0.9,0,1.7,0,2.5,0.1
			c0.2,0,0.4,0.1,0.4,0.3c0,0.2-0.1,0.3-0.1,0.5c-0.1,0.2-0.1,0.5-0.1,1.3v0.3h4.8c2.3,0,3.1-0.1,3.2-0.1c0.2,0,0.3,0,0.3,0.3v1.7
			c0,0.3,0,0.3-0.3,0.3c-0.1,0-1-0.1-3.3-0.1h-0.4c-0.1,0.1-0.2,0.3-0.2,0.4c-0.3,0.6-0.6,1.2-1,1.8h2.5c2.3,0,3,0,3.2,0
			c0.2,0,0.2,0,0.2,0.3V31c0,0.3,0,0.3-0.2,0.3c-0.1,0-0.9,0-3.2,0h-13.8l0,1.6c0,1.6-0.1,3.2-0.3,4.7c1.3-1.4,2.1-2.7,2.8-4.4
			c0.1-0.4,0.2-0.8,0.3-1.3c0.7,0.2,1.6,0.3,2.1,0.5c0.3,0.1,0.3,0.2,0.3,0.3c0,0.1-0.1,0.2-0.2,0.3c-0.1,0.2-0.3,0.5-0.5,0.9
			l-0.1,0.4h2.8v-0.3c0-1,0-1.4-0.2-2.2c0.9,0,1.7,0.1,2.5,0.2c0.2,0,0.4,0.1,0.4,0.2c0,0.2-0.1,0.3-0.1,0.5
			c-0.1,0.2-0.1,0.5-0.1,1.3v0.3h2.6c2.2,0,3,0,3.1,0c0.2,0,0.3,0,0.3,0.3v1.7c0,0.3,0,0.3-0.3,0.3c-0.1,0-0.9,0-3.1,0h-2.6v1.9h1.7
			c2.2,0,2.9,0,3.1,0c0.2,0,0.3,0,0.3,0.3v1.7c0,0.3,0,0.3-0.3,0.3c-0.1,0-0.9,0-3.1,0h-1.7v2.2h3.9c2.3,0,3.1,0,3.3,0
			c0.2,0,0.3,0,0.3,0.3v1.7c0,0.3,0,0.3-0.3,0.3c-0.1,0-1,0-3.3,0H349.9z M350.9,26.8c0.3,0.7,0.6,1.4,0.9,2.2h3.6
			c0.4-0.8,0.7-1.5,1-2.2H350.9z"/>
		<path class="st0" d="M368.4,29.9c-0.1,1-0.3,2.1-0.5,2.9c-0.1,0.4-0.2,0.6-0.3,0.6c-0.1,0-0.3-0.1-0.5-0.3c-0.4-0.2-1-0.4-1.4-0.5
			c0.7-2.3,0.9-4.6,1-6.6c0-0.5,0-1,0-1.6c0.6,0.1,1.4,0.2,2,0.3c0.3,0,0.4,0.2,0.4,0.3c0,0.2,0,0.2-0.1,0.4
			c-0.1,0.2-0.1,0.5-0.1,0.9c0,0.4,0,0.8-0.1,1.2h1.2v-1.4c0-1.8,0-2.5-0.2-3.8c0.9,0,1.7,0.1,2.5,0.2c0.2,0,0.4,0.1,0.4,0.2
			c0,0.2-0.1,0.3-0.1,0.5c-0.1,0.3-0.1,0.9-0.1,2.8v1.4c1.3,0,1.8-0.1,1.9-0.1c0.2,0,0.3,0,0.3,0.3v1.7c1.3-1.6,2.1-3.2,2.7-5.1
			c0.2-0.7,0.3-1.3,0.4-2c0.6,0.1,1.6,0.3,2.3,0.4c0.3,0.1,0.4,0.2,0.4,0.4c0,0.2-0.1,0.3-0.2,0.5c-0.2,0.2-0.3,0.5-0.5,1.2
			c-0.2,0.7-0.5,1.4-0.8,2.1h5.6c1.8,0,2.4-0.1,2.5-0.1c0.3,0,0.3,0.1,0.3,0.3c0,0.7,0,1.4,0,2c0,6-0.2,9.2-0.7,12.1
			c-0.4,2.7-1.4,4-3.6,4c-0.4,0-1.1,0-1.7,0c-0.7-0.1-0.7-0.1-0.9-0.9c-0.1-0.8-0.3-1.4-0.6-1.9c1.1,0.2,1.9,0.3,2.8,0.3
			c1.1,0,1.4-0.8,1.6-2.1c0.4-2.7,0.6-5.5,0.7-10.9c-1.7,6.3-4.1,10.8-8.2,14.2c-0.3,0.2-0.5,0.4-0.6,0.4c-0.2,0-0.3-0.2-0.5-0.5
			c-0.4-0.6-0.9-1.1-1.3-1.4c4.5-3.2,7-7.5,8.5-13.2H381c-1.1,3.9-2.9,6.8-5.3,9.2c-0.3,0.3-0.4,0.4-0.6,0.4c-0.1,0-0.3-0.1-0.5-0.4
			c-0.4-0.5-0.9-1-1.3-1.3c2.5-1.9,4.3-4.5,5.4-7.8h-1.3c-0.5,0.9-1.1,1.7-1.8,2.5c-0.3,0.3-0.4,0.4-0.5,0.4c-0.1,0-0.3-0.1-0.5-0.4
			c-0.5-0.5-1-0.8-1.4-1.1l0.6-0.7c-0.2,0-0.8,0-1.7-0.1v4c0.7-0.4,1.4-0.7,2.2-1.2c0,0.5,0,1.1,0,1.7c0,0.8,0,0.8-0.6,1.1
			c-0.6,0.3-1.1,0.6-1.7,0.9v4.2c0,2.9,0,4.3,0,4.4c0,0.3,0,0.3-0.3,0.3H370c-0.2,0-0.3,0-0.3-0.3c0-0.2,0-1.6,0-4.4v-3.1
			c-0.6,0.3-1.1,0.5-1.7,0.7c-0.4,0.2-0.6,0.3-0.8,0.5c-0.1,0.2-0.3,0.3-0.4,0.3c-0.2,0-0.3-0.1-0.4-0.3c-0.3-0.7-0.6-1.7-0.8-2.4
			c0.8-0.2,1.5-0.4,2.3-0.7c0.6-0.2,1.2-0.4,1.8-0.7v-5.1H368.4z"/>
		<path class="st0" d="M395,33.8c0,1.2-1,2.3-2.2,2.3c-1.2,0-2.2-1-2.2-2.3c0-1.2,1-2.3,2.2-2.3C394,31.6,395,32.6,395,33.8z"/>
		<path class="st0" d="M401.9,32.9c0-1.2,0-2.1,0-2.7c-0.8,0.4-1.6,0.8-2.5,1.2c-0.3,0.1-0.4,0.2-0.5,0.2c-0.2,0-0.3-0.2-0.5-0.7
			c-0.3-0.7-0.6-1.2-1-1.6c4.1-1.3,7-3.4,9.1-5.8c0.4-0.4,0.7-0.9,1-1.5c0.9,0.1,1.8,0.3,2.5,0.5c0.2,0,0.4,0.2,0.4,0.3
			c0,0.1-0.1,0.2-0.2,0.3l-0.1,0.1c2.1,2.2,5.8,4.6,10.2,5.8c-0.4,0.5-0.7,1.1-0.9,1.8c-0.2,0.5-0.2,0.7-0.4,0.7
			c-0.1,0-0.3-0.1-0.6-0.2c-1-0.4-2-0.8-2.9-1.3c0,0.4,0,1,0,2.1v3.3c0,0.8,0,1.3,0,1.7c0.7,0.4,1.3,0.8,1.8,1.2
			c0.2,0.1,0.3,0.3,0.3,0.4c0,0.2-0.1,0.3-0.4,0.3c-0.2,0.1-0.5,0.2-0.8,0.5c-0.8,0.6-1.6,1.3-2.8,2c1.6,0.7,3.6,1.2,5.9,1.6
			c-0.4,0.5-0.7,1.1-0.9,1.8c-0.3,0.7-0.3,0.8-1,0.6c-3.4-0.9-6-2-8.1-3.8c-0.1,0.4-0.1,0.7-0.1,1.1c0,0.8,0,0.8-0.8,1
			c-2.9,0.6-5.8,1.2-8,1.5c-0.4,0.1-0.8,0.2-0.9,0.3c-0.1,0.1-0.2,0.2-0.4,0.2c-0.1,0-0.2-0.1-0.3-0.4c-0.2-0.7-0.3-1.6-0.5-2.4
			c1-0.1,1.7-0.1,2.6-0.2l0.7,0V32.9z M407.6,29.2V29c0-0.9,0-1.5-0.2-2.4c0.9,0,1.6,0.1,2.4,0.2c0.2,0,0.4,0.2,0.4,0.3
			c0,0.2,0,0.4-0.1,0.5c-0.1,0.2-0.1,0.5-0.1,1.1v0.5h2c1.1,0,1.9,0,2.5,0c-2.3-1.3-4.2-2.9-5.6-4.6c-1.5,1.8-3.3,3.4-5.3,4.7H407.6
			z M404.4,31.2v1.4h8.8v-1.4H404.4z M413.1,34.5h-8.8V36h8.8V34.5z M404.4,42.1c1.6-0.3,3.2-0.6,5-0.9c-0.9-0.9-1.7-1.9-2.4-3.2
			h-2.6V42.1z M409.6,37.9c0.6,0.9,1.3,1.7,2.1,2.3c1.2-0.8,2.2-1.6,2.9-2.3c-0.5,0-1.4,0-2.7,0H409.6z"/>
		<path class="st0" d="M422.2,45.3c-0.2,0-0.3,0-0.3-0.3c0-0.2,0-0.9,0-4.7V38c0-2.4,0-3.1,0-3.3c0-0.3,0-0.3,0.3-0.3
			c0.2,0,0.8,0,2.5,0h3.1c1.8,0,2.4,0,2.6,0c0.2,0,0.3,0,0.3,0.3c0,0.2,0,0.9,0,2.9v2.6c0,3.8,0,4.5,0,4.7c0,0.3,0,0.3-0.3,0.3h-1.9
			c-0.2,0-0.2,0-0.2-0.3v-1h-4V45c0,0.3,0,0.3-0.3,0.3H422.2z M424.4,41.5h4v-4.7h-4V41.5z M435.3,23.3c2.3,0,3,0,3.2,0
			c0.2,0,0.3,0,0.3,0.3c0,0.2,0,0.8,0,2.3v3.6c0,1.5,0,2.2,0,2.3c0,0.3,0,0.3-0.3,0.3c-0.2,0-0.9,0-3.2,0h-6.6c-2.3,0-3,0-3.2,0
			c-0.2,0-0.3,0-0.3-0.3c0-0.2,0-0.8,0-2.3v-3.6c0-1.5,0-2.2,0-2.3c0-0.3,0-0.3,0.3-0.3c0.1,0,0.9,0,3.2,0H435.3z M427.8,29.7h8.5
			v-3.9h-8.5V29.7z M433.2,45.3c-0.2,0-0.2,0-0.2-0.3c0-0.2,0-0.9,0-4.7V38c0-2.4,0-3.1,0-3.3c0-0.3,0-0.3,0.2-0.3
			c0.2,0,0.8,0,2.6,0h3.3c1.8,0,2.5,0,2.6,0c0.2,0,0.3,0,0.3,0.3c0,0.2,0,0.9,0,2.9v2.7c0,3.8,0,4.5,0,4.6c0,0.3,0,0.3-0.3,0.3h-1.9
			c-0.2,0-0.3,0-0.3-0.3v-1.1h-4.3V45c0,0.3,0,0.3-0.3,0.3H433.2z M435.3,41.5h4.3v-4.7h-4.3V41.5z"/>
		<path class="st0" d="M278.4,70.7c1.8,0,2.5,0,2.6,0c0.2,0,0.3,0,0.3,0.3v1.5c0,0.3,0,0.3-0.3,0.3c-0.1,0-0.8-0.1-2.6-0.1h-0.2
			c0,2.3,0,3.7,0,3.8c0,0.2,0,0.3-0.3,0.3h-1.7c-0.2,0-0.3,0-0.3-0.3c0-0.1,0-1.5,0-3.8h-0.7c-1.9,0-2.5,0.1-2.6,0.1
			c-0.2,0-0.3,0-0.3-0.3v-1.5c0-0.3,0-0.3,0.3-0.3c0.1,0,0.7,0,2.6,0h0.7V69h-0.2c-1.6,0-2.2,0.1-2.3,0.1c-0.2,0-0.3,0-0.3-0.3
			c0-0.2,0-0.8,0-2.4v-3.7c0-1.5,0-2.2,0-2.4c0-0.3,0-0.3,0.3-0.3c0.2,0,0.7,0,2.3,0h0.2v-1.6h-0.6c-1.9,0-2.4,0-2.6,0
			c-0.3,0-0.3,0-0.3-0.3v-1.6c0-0.2,0-0.3,0.3-0.3c0.1,0,0.7,0.1,2.6,0.1h0.6c0-1.1,0-1.8-0.2-2.6c0.9,0,1.5,0.1,2.2,0.2
			c0.2,0.1,0.4,0.1,0.4,0.3c0,0.2,0,0.3-0.1,0.5c-0.1,0.2-0.1,0.6-0.1,1.7v0.1h0.4c1.8,0,2.5-0.1,2.6-0.1c0.3,0,0.3,0,0.3,0.3v1.6
			c0,0.3,0,0.3-0.3,0.3c-0.1,0-0.7,0-2.6,0h-0.4v1.6h0.2c1.7,0,2.2,0,2.3,0c0.2,0,0.3,0,0.3,0.3v0.1c2.3-1.5,3.9-3.1,5.2-5.4
			c0.3-0.5,0.5-1,0.5-1.4c0.9,0.1,1.6,0.3,2.3,0.4c0.2,0,0.4,0.2,0.4,0.3c0,0.1-0.1,0.3-0.4,0.5c1.5,2.2,3.3,3.8,6.1,5.1
			c-0.4,0.5-0.7,1.1-0.9,1.7c-0.2,0.4-0.3,0.6-0.4,0.6c-0.1,0-0.3-0.1-0.5-0.3c-0.7-0.5-1.4-1-2-1.5V62c0,0.2,0,0.3-0.3,0.3
			c-0.1,0-0.6-0.1-2-0.1h-2c-1.5,0-1.9,0.1-2,0.1c-0.2,0-0.3,0-0.3-0.3v-1.4c-0.6,0.5-1.2,1-1.8,1.4c-0.3,0.2-0.4,0.3-0.5,0.3
			c-0.1,0-0.3-0.2-0.5-0.6c-0.3-0.4-0.5-0.8-0.8-1.1c0,0.4,0,1,0,1.9v3.7c0,1.5,0,2.2,0,2.4c0,0.2,0,0.3-0.3,0.3
			c-0.2,0-0.7-0.1-2.3-0.1h-0.2v1.7H278.4z M276.2,63.7v-2h-1.1v2H276.2z M276.2,67.3v-2h-1.1v2H276.2z M278,61.7v2h1.1v-2H278z
			 M279.1,65.3H278v2h1.1V65.3z M287.5,70.9c0,1.1,0,2.5,0,3.3c0,0.9,0,1.5-0.4,1.9c-0.3,0.3-0.8,0.5-1.4,0.5c-0.7,0-0.7,0-0.9-0.7
			c-0.1-0.5-0.3-1-0.5-1.4c0.3,0,0.5,0.1,0.8,0.1c0.3,0,0.4-0.1,0.4-0.6v-2h-1.7v1.7c0,1.9,0,2.8,0,2.9c0,0.3,0,0.3-0.3,0.3h-1.5
			c-0.2,0-0.3,0-0.3-0.3c0-0.1,0-1,0-2.9v-6.7c0-1.9,0-2.8,0-3c0-0.2,0-0.3,0.3-0.3c0.2,0,0.5,0,1.7,0h1.6c1.3,0,1.6,0,1.8,0
			c0.2,0,0.3,0,0.3,0.3c0,0.2,0,1.2,0,3.2V70.9z M283.9,65.6V67h1.7v-1.5H283.9z M285.6,70.3v-1.5h-1.7v1.5H285.6z M288.8,60.2
			c1.1,0,1.7,0,1.9,0c-1.2-1-2.1-2.2-3-3.5c-0.7,1.3-1.7,2.5-2.7,3.5c0.3,0,0.8,0,1.8,0H288.8z M288.5,67.2c0-1.9,0-2.5-0.1-3.3
			c0.7,0,1.5,0.1,2,0.1c0.2,0,0.3,0.1,0.3,0.3c0,0.2-0.1,0.4-0.1,0.5c-0.1,0.3-0.1,0.8-0.1,2.4v2.5c0,1.6,0,2.3,0,2.5
			c0,0.3,0,0.3-0.3,0.3h-1.5c-0.2,0-0.3,0-0.3-0.3c0-0.2,0-0.9,0-2.5V67.2z M293.7,70.8c0,1.4,0,2.6,0,3.6c0,1-0.2,1.4-0.7,1.8
			c-0.5,0.3-1,0.4-2,0.4c-0.7,0-0.7,0-0.9-0.8c-0.1-0.6-0.3-1.1-0.5-1.5c0.5,0.1,0.9,0.1,1.2,0.1c0.5,0,0.7-0.2,0.7-0.8v-7.1
			c0-1.5,0-2.4-0.2-3.2c0.7,0,1.5,0.1,2.2,0.2c0.2,0,0.4,0.1,0.4,0.3c0,0.2-0.1,0.3-0.2,0.5c-0.1,0.3-0.1,0.8-0.1,2.3V70.8z"/>
		<path class="st0" d="M314.6,59.8c0-1.4,0-2.2-0.1-3.2c0.9,0,1.7,0.1,2.5,0.2c0.2,0,0.4,0.1,0.4,0.3c0,0.2-0.1,0.4-0.1,0.5
			c-0.1,0.3-0.2,0.8-0.2,2.5v3.5c0,1.5,0,2.2,0,2.4c0,0.3,0,0.3-0.2,0.3h-2c-0.3,0-0.3,0-0.3-0.3V65h-4.9v7.7h5.7v-1.9
			c0-1.5,0-2.2-0.1-3.2c0.9,0,1.7,0.1,2.5,0.2c0.2,0,0.4,0.2,0.4,0.3c0,0.2-0.1,0.4-0.1,0.5c-0.1,0.3-0.2,0.8-0.2,2.5v3
			c0,1.4,0,2.1,0,2.2c0,0.2,0,0.3-0.3,0.3h-2c-0.2,0-0.3,0-0.3-0.3v-1.2h-13.6v1.3c0,0.2,0,0.3-0.3,0.3h-2c-0.3,0-0.3,0-0.3-0.3
			c0-0.2,0-0.8,0-2.2v-3.3c0-1.4,0-2.2-0.1-3.2c0.9,0,1.7,0.1,2.5,0.2c0.2,0,0.4,0.1,0.4,0.3c0,0.2-0.1,0.4-0.1,0.5
			c-0.1,0.3-0.2,0.8-0.2,2.2v1.9h5.4V65h-4.6v1c0,0.3,0,0.3-0.3,0.3h-2c-0.2,0-0.3,0-0.3-0.3c0-0.2,0-0.9,0-2.4v-3.8
			c0-1.5,0-2.2-0.1-3.2c0.9,0,1.7,0.1,2.5,0.2c0.2,0,0.4,0.2,0.4,0.3c0,0.2-0.1,0.3-0.1,0.5c-0.1,0.3-0.1,0.8-0.1,2.2v2.7h4.6v-5.5
			c0-1.5,0-2.3-0.2-3.2c0.9,0,1.8,0.1,2.6,0.2c0.2,0,0.4,0.1,0.4,0.3c0,0.2-0.1,0.3-0.1,0.5c-0.1,0.3-0.1,0.7-0.1,2.3v5.5h4.9V59.8z
			"/>
		<path class="st0" d="M327.3,60.5c-1.6,0-2.9,0.1-3.9,0.1c-0.3,0-0.4-0.2-0.5-0.5c-0.1-0.5-0.2-1.8-0.2-2.5
			c1.1,0.1,2.3,0.2,4.6,0.2h8.5c0.7,0,1,0,1.3-0.3c0.3-0.2,0.5-0.2,0.8,0c0.6,0.5,1.2,1.1,1.6,1.7c0.2,0.4,0.3,0.7,0,1
			c-0.2,0.2-0.3,0.5-0.5,1c-1.2,3-2.6,5.7-4.6,8.2c-2.1,2.5-4.4,4.6-6.8,6c-0.4,0.3-0.9,0.4-1.2,0c-0.6-0.6-1.3-1-2.2-1.4
			c3.5-1.9,5.6-3.6,7.8-6.3c1.9-2.2,3.1-4.4,4-7.2H327.3z M343.9,55.7c0,1.5-1.2,2.7-2.6,2.7c-1.4,0-2.6-1.2-2.6-2.7
			c0-1.6,1.1-2.7,2.6-2.7C342.7,53,343.9,54.2,343.9,55.7z M339.9,55.7c0,0.9,0.6,1.5,1.4,1.5s1.4-0.6,1.4-1.5
			c0-0.9-0.6-1.5-1.4-1.5S339.9,54.9,339.9,55.7z"/>
		<path class="st0" d="M349.4,71.9v1.5c0,0.4-0.1,0.5-0.5,0.5c-0.6,0-1.3,0-1.9,0c-0.4,0-0.5-0.1-0.5-0.4c0-1.3,0.1-3.1,0.1-5v-6.2
			c0-1.4,0-2.7,0-4.2c0-0.3,0.1-0.4,0.3-0.4c1.3,0.1,2.7,0.1,4.3,0.1h5.7c1.6,0,3.4,0,4.5-0.1c0.3,0,0.3,0.1,0.3,0.5
			c0,1.2,0,2.6,0,4.1v6c0,2.2,0.1,3.4,0.1,4.8c0,0.4-0.1,0.4-0.5,0.4c-0.7,0-1.5,0-2.2,0c-0.3,0-0.3,0-0.3-0.4v-1.3H349.4z
			 M358.7,60.6h-9.3v8.7h9.3V60.6z"/>
		<path class="st0" d="M367.5,62c0.1-0.2,0.2-0.3,0.5-0.2c1.8,0.6,3.2,1.4,4.6,2.5c0.3,0.2,0.3,0.4,0.2,0.7
			c-0.3,0.7-0.7,1.3-1.1,1.9c-0.2,0.3-0.3,0.3-0.6,0.1c-1.5-1.2-3.1-2-4.8-2.7C366.8,63.1,367.2,62.4,367.5,62z M371.4,71.3
			c2.3-1.3,4.2-2.4,6.6-4.4c1.9-1.5,4.5-3.9,6.9-7c0.1,1.1,0.3,1.7,0.7,2.8c0.2,0.4,0.2,0.7-0.1,1.1c-2.2,2.5-3.7,3.9-6.1,5.8
			c-2.1,1.7-4.3,3.1-7.2,4.7c-0.6,0.3-1.2,0.6-1.4,0.9c-0.3,0.3-0.6,0.3-0.9-0.1c-0.5-0.5-1.1-1.5-1.8-2.6
			C369.1,72.4,370,72.1,371.4,71.3z M370.4,56.2c0.2-0.3,0.3-0.4,0.6-0.2c1.5,0.7,3.2,1.6,4.5,2.8c0.3,0.2,0.2,0.4,0.1,0.7
			c-0.3,0.6-0.8,1.4-1.2,1.9c-0.2,0.3-0.4,0.2-0.6,0c-1.2-1.1-3.1-2.4-4.6-3.1C369.5,57.6,370,56.9,370.4,56.2z M381.4,55.5
			c0.1-0.1,0.2-0.1,0.4,0.1c0.7,0.6,1.6,1.6,2.3,2.7c0.1,0.2,0.1,0.3-0.1,0.4l-1,0.8c-0.2,0.1-0.3,0.1-0.4-0.1
			c-0.7-1.2-1.5-2.1-2.4-2.9L381.4,55.5z M383.5,53.8c0.1-0.1,0.2-0.1,0.4,0.1c0.9,0.7,1.8,1.7,2.3,2.6c0.1,0.2,0.1,0.3-0.1,0.5
			l-1,0.8c-0.2,0.2-0.3,0.1-0.4-0.1c-0.6-1.1-1.4-2-2.4-2.9L383.5,53.8z"/>
		<path class="st0" d="M398,71.8h2.5c1.2,0,2.6,0,3.9-0.1c0.2,0,0.3,0.2,0.3,0.5c0,0.5,0,1.1,0,1.6c0,0.3-0.1,0.5-0.4,0.5
			c-1.2,0-2.7,0-3.8,0H393c-1.4,0-2.5,0-3.5,0.1c-0.3,0-0.4-0.2-0.5-0.5c-0.1-0.4-0.1-1-0.1-2c1.4,0.1,2.6,0.1,4.1,0.1h2.4v-6.4
			h-1.3c-1,0-1.8,0-2.9,0c-0.2,0-0.3-0.1-0.4-0.5c-0.1-0.4-0.1-1.1-0.1-2c1,0.1,2.3,0.1,3.3,0.1h5.3c1.1,0,2.2,0,3.2,0
			c0.3,0,0.4,0.1,0.4,0.4c0,0.5,0,1.1,0,1.6c0,0.4-0.1,0.5-0.5,0.5c-0.9,0-2.1,0-3.1,0H398V71.8z"/>
		<path class="st0" d="M421.9,58.7c0.6,0,0.9-0.1,1.2-0.3c0.2-0.2,0.5-0.1,0.7,0.1c0.6,0.4,1.2,0.9,1.6,1.4c0.4,0.4,0.4,0.8,0,1.1
			c-0.3,0.3-0.6,0.6-0.8,1.1c-1.6,3.4-3.1,5.9-4.7,7.8c-2.1,2.4-4.9,4.9-7.3,6.3c-0.4,0.3-0.6,0.1-0.9-0.2c-0.6-0.5-1.3-0.9-2.3-1.2
			c3.7-2.2,5.6-3.7,8-6.4c1.9-2.2,3-3.9,4.4-7.1l-5.8,0.2c-2,2.5-3.2,4-4.5,5.2c-0.3,0.3-0.6,0.4-0.9,0.1c-0.6-0.5-1.5-0.9-2.3-1.1
			c3.1-2.7,5-5,6.4-7.5c0.8-1.4,1.1-2.2,1.4-3.4c1.4,0.5,2.3,0.9,2.8,1.3c0.3,0.3,0.3,0.6,0,0.9c-0.2,0.2-0.4,0.4-0.6,0.7
			c-0.3,0.4-0.5,0.8-0.8,1.3L421.9,58.7z"/>
		<path class="st0" d="M433.9,61.9c2.9,1,5.2,1.9,7.6,3.4c0.3,0.2,0.4,0.3,0.3,0.7c-0.3,0.8-0.7,1.6-1,2.2c-0.2,0.3-0.3,0.4-0.6,0.2
			c-2.2-1.5-4.4-2.6-6.3-3.2v5.6c0,1.6,0,3.1,0.1,4.9c0,0.3-0.1,0.4-0.4,0.4c-0.7,0.1-1.4,0.1-2.1,0c-0.3,0-0.5-0.1-0.5-0.4
			c0.1-1.9,0.1-3.3,0.1-5V58.3c0-1.9-0.1-2.7-0.2-3.7c1.1,0.1,2.3,0.2,3,0.4c0.6,0.2,0.5,0.5,0.3,1c-0.2,0.3-0.2,1-0.2,2.4V61.9z"/>
	</g>
	<g>
		<g>
			<path class="st0" d="M3.4,42.5c1,0.1,2.5,0.4,3.5,0.5l0.5,0.1c1,0.2,2.5,0.4,3.5,0.6l0.6,0.1c1,0.2,2.5,0.6,3.4,1l0.5,0.2
				c0.9,0.3,2.4,1,3.3,1.4l0.5,0.2c0.9,0.4,2.2,1.2,3,1.8l0.5,0.3c0.8,0.6,2.1,1.4,2.9,2l0.5,0.3c0.8,0.5,2.1,1.5,2.8,2.1l0.4,0.3
				c0.7,0.6,2.1,0.9,3,0.6l1.2-0.4c0.9-0.3,2.5-0.7,3.4-0.9l1.3-0.3c1-0.2,1.3-1,0.7-1.8l-0.4-0.6c-0.6-0.8-1.5-2.1-2.2-2.8L36,46.7
				c-0.6-0.7-1.7-1.9-2.4-2.6l-0.5-0.5c-0.7-0.7-1.9-1.7-2.7-2.3L29.8,41c-0.8-0.5-2.1-1.5-2.8-2.1l-0.6-0.5c-0.8-0.6-2.1-1.4-3-1.9
				l-0.7-0.3c-0.9-0.4-2.3-1.1-3.2-1.6l-0.6-0.4c-0.9-0.5-2.3-1.1-3.2-1.4L15,32.7c-0.9-0.3-2.5-0.7-3.4-1l-0.7-0.2
				c-0.9-0.3-2.5-0.6-3.5-0.7l-0.7-0.1C6,30.7,4.9,30.6,4,30.6c-1.6,3.7-2.8,7.6-3.4,11.6c0.8,0,1.6,0,2.2,0.1L3.4,42.5z"/>
			<path class="st0" d="M6.9,71.7c0.6-0.7,1.7-1.9,2.4-2.6l0.4-0.3c0.7-0.7,0.5-1.5-0.4-1.9l-1.8-0.8c-0.9-0.4-2.4-0.8-3.4-0.9
				L2.4,65c0,0,0,0,0,0c0.9,2.8,2,5.4,3.4,8c0.3-0.4,0.7-0.8,0.9-1.1L6.9,71.7z"/>
			<path class="st0" d="M2.8,58.4l0.5,0c1,0,2.5,0.2,3.5,0.5L7.3,59c0.9,0.3,2.5,0.7,3.4,0.9l0.5,0.1c0.9,0.2,2.4,0.9,3.2,1.5
				l0.5,0.3c0.8,0.6,2.1,0.6,2.9,0l1-0.7c0.8-0.5,2.2-1.4,3-1.9l1.1-0.7c0.8-0.5,0.9-1.5,0.2-2.1l-0.8-0.7c-0.7-0.7-2-1.6-2.8-2.1
				l-0.7-0.5c-0.8-0.5-2.2-1.2-3.1-1.6l-0.8-0.3c-0.9-0.4-2.4-0.9-3.3-1.2l-0.8-0.3c-0.9-0.3-2.5-0.7-3.4-0.9l-0.8-0.2
				c-1-0.2-2.5-0.4-3.5-0.5l-0.9-0.1c-0.6,0-1.4-0.1-2.1-0.1c0,0.6,0,1.2,0,1.8c0,2.9,0.3,5.7,0.7,8.4C1.5,58.4,2.2,58.4,2.8,58.4z"
				/>
			<path class="st0" d="M60.4,95.2l-0.9-0.6c-0.8-0.6-2.2-1.2-3.2-1.4l-1.2-0.3c-0.9-0.2-2.5-0.6-3.5-0.7L50.4,92
				c-1-0.1-2.5-0.1-3.5,0l-1,0.2c-1,0.2-2.5,0.5-3.4,0.8l-1,0.3c-0.9,0.3-2.3,1-3.1,1.6l-0.9,0.7c-0.6,0.5-0.8,1.2-0.4,1.7
				c3.7,0.9,7.6,1.4,11.6,1.4c4.2,0,8.2-0.5,12.1-1.5C61.3,96.5,61.1,95.7,60.4,95.2z"/>
			<path class="st0" d="M86.9,77.4c-0.6-0.8-1.5-2-2.1-2.8L84.3,74c-0.6-0.8-1.7-1.9-2.4-2.5L81.3,71c-0.8-0.6-2-1.6-2.7-2.2
				L78,68.2c-0.7-0.6-2-1.6-2.9-2.1l-0.6-0.4c-0.8-0.5-2.2-1.3-3.1-1.8l-0.6-0.3c-0.9-0.5-2.2-1.3-3.1-1.7l-0.7-0.4
				c-0.8-0.5-2.3-1.1-3.2-1.4l-0.7-0.2c-0.9-0.3-2.5-0.7-3.4-0.8L59,58.9c-1-0.2-2.5-0.5-3.5-0.7l-0.7-0.2c-1-0.2-2.5-0.4-3.5-0.3
				l-0.8,0c-1,0-2.6,0.1-3.5,0.1l-0.7,0c-1,0.1-2.6,0.2-3.5,0.3L42,58.4c-1,0.1-2.5,0.3-3.5,0.5L37.7,59c-1,0.1-2.5,0.5-3.4,0.8
				L33.5,60c-0.9,0.3-2.4,0.9-3.3,1.3l-0.7,0.3c-0.9,0.4-2.3,1.1-3.2,1.6l-0.7,0.4c-0.9,0.5-2.2,1.3-3,1.9L22.1,66
				c-0.8,0.6-2,1.6-2.7,2.3l-0.6,0.5c-0.7,0.7-1.9,1.7-2.7,2.3l-0.6,0.5c-0.8,0.6-1.9,1.7-2.6,2.4l-0.5,0.6
				c-0.7,0.7-1.7,1.9-2.3,2.7l-0.5,0.7c-0.2,0.2-0.3,0.5-0.3,0.7c1.6,2.2,3.4,4.3,5.3,6.2c0.8,0.4,1.9,0.2,2.5-0.4l0.5-0.5
				c0.7-0.7,1.9-1.7,2.6-2.4l0.4-0.4c0.7-0.6,2-1.6,2.8-2.2l0.5-0.3c0.8-0.6,2.1-1.4,3-1.9l0.5-0.3c0.8-0.5,2.2-1.3,3-1.8l0.5-0.3
				c0.8-0.5,2.3-1.2,3.2-1.5l0.6-0.2c0.9-0.3,2.4-0.8,3.4-1l0.6-0.1c0.9-0.2,2.5-0.5,3.5-0.7l0.6-0.1c1-0.1,2.5-0.3,3.5-0.4l0.6-0.1
				c1-0.1,2.6-0.2,3.5-0.1l0.6,0c1,0,2.6,0.2,3.5,0.4l0.6,0.1c1,0.2,2.5,0.5,3.4,0.8l0.6,0.2c0.9,0.2,2.5,0.7,3.4,1l0.6,0.2
				c0.9,0.3,2.4,1,3.2,1.5l0.5,0.3c0.9,0.5,2.2,1.3,3.1,1.8l0.5,0.3c0.8,0.5,2.2,1.3,3,1.8l0.5,0.3c0.8,0.5,2.1,1.4,2.9,2l0.5,0.4
				c0.8,0.6,1.9,1.7,2.6,2.4l0.6,0.6c0.5,0.6,1.4,0.8,2.2,0.5c1.8-1.7,3.4-3.6,4.9-5.6c-0.1-0.4-0.2-0.8-0.4-1.1L86.9,77.4z"/>
			<path class="st0" d="M76.8,87.9c-0.8-0.6-2-1.6-2.7-2.3l-0.5-0.5c-0.7-0.6-2-1.6-2.9-2.1l-0.6-0.4c-0.8-0.5-2.2-1.3-3-1.8
				l-0.6-0.4c-0.8-0.5-2.3-1.2-3.2-1.6l-0.7-0.3c-0.9-0.4-2.4-0.9-3.3-1.1l-0.7-0.2c-0.9-0.3-2.5-0.6-3.4-0.8l-0.7-0.2
				c-1-0.2-2.5-0.4-3.5-0.4l-0.7,0c-1,0-2.6,0-3.5,0.1L46,76.2c-1,0.1-2.5,0.3-3.5,0.4l-0.7,0.1c-1,0.1-2.5,0.5-3.4,0.8l-0.6,0.2
				c-0.9,0.3-2.4,0.9-3.2,1.4L34,79.4c-0.9,0.5-2.3,1.2-3.1,1.6l-0.6,0.3c-0.9,0.4-2.2,1.3-3,1.8l-0.5,0.4c-0.8,0.6-2.1,1.5-2.8,2.1
				l-0.5,0.4c-0.8,0.6-2,1.6-2.6,2.4l-0.6,0.7c-0.1,0.1-0.1,0.1-0.1,0.2c2.5,1.8,5.2,3.5,8.1,4.8c0.1,0,0.2-0.1,0.3-0.1l0.2-0.1
				c0.8-0.5,2.2-1.4,3-1.8l0.4-0.2c0.9-0.5,2.2-1.2,3.1-1.7l0.4-0.2c0.8-0.5,2.3-1.1,3.2-1.4l0.4-0.1c0.9-0.3,2.5-0.7,3.4-0.9
				l0.4-0.1c1-0.2,2.5-0.5,3.5-0.7l0.4-0.1c1-0.2,2.5-0.3,3.5-0.2l0.7,0c1,0,2.5,0.3,3.5,0.5l0.7,0.2c0.9,0.2,2.5,0.7,3.4,1l0.6,0.2
				c0.9,0.3,2.4,0.9,3.3,1.3l0.6,0.3c0.9,0.4,2.3,1.1,3.2,1.6l0.6,0.3c0.8,0.5,2.2,1.3,3,1.9l0.2,0.1c2.8-1.4,5.5-3,8-4.9
				c-0.1-0.2-0.2-0.3-0.4-0.4L76.8,87.9z"/>
			<path class="st0" d="M93.1,65c-1,0.2-2.5,0.6-3.3,1l-1.5,0.7c-0.9,0.4-1,1.3-0.4,2l0.2,0.2c0.7,0.7,1.8,1.9,2.4,2.6l0.2,0.2
				c0.3,0.3,0.6,0.6,0.9,1c1.4-2.6,2.5-5.3,3.4-8.1c-0.1,0-0.2,0-0.3,0L93.1,65z"/>
			<path class="st0" d="M89.8,30.9c-1,0-2.5,0.2-3.5,0.5l-0.7,0.2c-0.9,0.3-2.5,0.7-3.4,1.1L81.5,33c-0.9,0.3-2.4,0.9-3.3,1.4
				l-0.7,0.3c-0.9,0.4-2.3,1.2-3.1,1.7l-0.6,0.4c-0.8,0.5-2.2,1.3-3.1,1.8l-0.6,0.4c-0.8,0.5-2.1,1.4-2.9,2l-0.6,0.5
				c-0.7,0.6-1.9,1.7-2.5,2.4l-0.5,0.5c-0.7,0.7-1.8,1.9-2.4,2.6l-0.5,0.5c-0.7,0.7-1.7,1.9-2.3,2.7l-0.4,0.5
				c-0.6,0.8-0.3,1.6,0.6,1.9l1.5,0.4c0.9,0.3,2.5,0.7,3.4,1l1.6,0.5c0.9,0.3,2.2-0.1,2.9-0.8l0.4-0.5c0.6-0.7,1.8-1.8,2.6-2.3
				l0.4-0.3c0.8-0.6,2.1-1.5,2.9-2.1l0.4-0.3c0.8-0.6,2.1-1.4,3-1.8l0.5-0.2c0.9-0.4,2.3-1,3.2-1.5l0.5-0.3c0.9-0.4,2.4-0.9,3.3-1.1
				l0.6-0.1c1-0.1,2.5-0.5,3.4-0.8l0.5-0.2c0.9-0.3,2.5-0.5,3.5-0.4l0.6,0c0.7,0,1.6,0.1,2.4,0.1c-0.6-3.9-1.8-7.7-3.3-11.2
				c-0.9,0.1-2.1,0.1-2.8,0.1L89.8,30.9z"/>
			<path class="st0" d="M94.5,48.3l-0.7,0.1c-1,0.1-2.5,0.3-3.5,0.5L89.6,49c-1,0.2-2.5,0.5-3.5,0.7l-0.7,0.2
				c-1,0.2-2.4,0.8-3.2,1.3l-0.6,0.4c-0.8,0.5-2.2,1.4-3,1.9l-0.6,0.4c-0.8,0.5-2.1,1.5-2.8,2.2l-0.4,0.4C74,57,74.1,58,74.9,58.5
				l1,0.6c0.8,0.5,2.2,1.4,3,1.9l0.9,0.6c0.8,0.5,2.2,0.6,3,0.1l0.2-0.1c0.9-0.5,2.3-1.2,3.1-1.6l0.4-0.2c0.9-0.4,2.4-1,3.3-1.2
				l0.4-0.1c0.9-0.3,2.5-0.5,3.5-0.6l0.4,0c0.7-0.1,1.7-0.1,2.5,0c0.4-2.5,0.6-5.2,0.6-7.8c0-0.6,0-1.2,0-1.8
				C96.3,48.1,95.2,48.2,94.5,48.3z"/>
		</g>
		<path class="st1" d="M48.6,1.4c-17.3,0-32.4,9-41,22.6C7.8,24,8,24.1,8.2,24.1l0.7,0.1c1,0.1,2.5,0.5,3.4,0.8l0.8,0.2
			c0.9,0.3,2.4,0.8,3.3,1.2l0.7,0.3c0.9,0.4,2.4,0.9,3.3,1.3l0.7,0.3c0.9,0.4,2.3,1.1,3.2,1.6l0.7,0.4c0.7,0.4,1.8,1,2.6,1.5
			c-0.1-0.2,0-0.4,0.1-0.6l0.2-0.2c0.2-0.2,3.6-3.5,4.2-4.2l0.5-0.6c0.7-0.7,1.7-1.8,2.2-2.6l0.5-0.6c0.4-0.6,1-1.2,1.4-1.9
			c0-0.1,0-0.2,0.1-0.4l0.2-0.3c0.3-0.4,2.2-3.3,2.8-4.1l0.4-0.5c0.6-0.8,2.5-3.7,2.8-4l0.1-0.2c0.3-0.3,0.8-0.6,1.2-0.6l0.1,0
			c0.4,0,3.4-0.1,4.2,0l0.4,0c0.8,0,3.8,0,4.2-0.1l0.2,0c0.4,0,1,0.3,1.2,0.6l0.1,0.2c0.2,0.3,1.7,2.8,2.3,3.6l0.4,0.5
			c0.6,0.7,2.8,4.2,3,4.6l0.2,0.3c0.1,0.1,0.1,0.2,0.1,0.4c0.4,0.6,0.9,1.2,1.4,1.9l0.4,0.6c0.6,0.8,1.9,2.3,2.5,3l0.5,0.5
			c0.7,0.7,3.4,3.4,3.6,3.6l0.1,0.2c0.2,0.2,0.2,0.5,0.1,0.7c0.8-0.5,1.7-1.1,2.4-1.5l0.7-0.4c0.9-0.5,2.3-1.2,3.2-1.5l0.8-0.3
			c0.9-0.4,2.4-0.9,3.3-1.2l0.8-0.2c0.9-0.3,2.5-0.7,3.4-0.9l0.8-0.2c0.9-0.2,2.5-0.5,3.5-0.7l0.8-0.1c0.3,0,0.5-0.1,0.6-0.3
			C81.2,10.4,66,1.4,48.6,1.4z"/>
		<path class="st0" d="M69.4,30.7l-0.1-0.2c-0.2-0.2-3-2.9-3.6-3.6l-0.5-0.5c-0.7-0.7-2-2.2-2.5-3l-0.4-0.6c-0.5-0.7-1-1.2-1.4-1.9
			c0,0.2-0.2,0.4-0.5,0.4l-0.3,0c-0.5,0-3.6,0-4.5,0.1l-0.6,0c-1,0-2.6,0-3.5,0l-0.6,0c-1-0.1-2.6-0.1-3.5-0.2l-0.6,0
			c-1,0-2.6,0-3.5,0.1l-0.6,0c-1,0.1-4.2,0.1-4.7,0.1l-0.4,0c-0.3,0-0.5-0.2-0.5-0.4c-0.4,0.7-1,1.3-1.4,1.9L35,23.5
			c-0.6,0.8-1.6,1.9-2.2,2.6l-0.5,0.6c-0.7,0.7-4,4-4.2,4.2l-0.2,0.2c-0.2,0.2-0.2,0.4-0.1,0.6c0,0.1,0.1,0.2,0.1,0.2l0.2,0.2
			c0.2,0.2,5.7,4,6.5,4.6l0.7,0.6c0.7,0.6,1.9,1.7,2.7,2.3l0.7,0.6c0.7,0.7,1.8,1.8,2.5,2.5l0.6,0.7c0.7,0.7,1.8,1.9,2.5,2.5
			l0.7,0.7c0.7,0.7,1.7,1.9,2.3,2.7l0.6,0.8c0.6,0.8,1.4,0.8,2,0l0.6-0.9c0.5-0.8,1.5-2,2.2-2.7l0.7-0.8c0.7-0.7,1.8-1.8,2.5-2.5
			l0.7-0.7c0.7-0.7,1.8-1.9,2.4-2.6l0.7-0.8c0.6-0.7,2-1.7,2.7-2.3l0.8-0.6c0.8-0.6,6-4.2,6.2-4.5l0.2-0.2c0,0,0.1-0.1,0.1-0.1
			C69.6,31.2,69.6,30.9,69.4,30.7z"/>
		<path class="st2" d="M60.7,20.6l-0.2-0.3c-0.2-0.4-2.4-3.9-3-4.6l-0.4-0.5c-0.6-0.7-2.1-3.2-2.3-3.6l-0.1-0.2
			c-0.2-0.3-0.8-0.6-1.2-0.6l-0.2,0c-0.4,0-3.4,0.1-4.2,0.1l-0.4,0c-0.8,0-3.8,0-4.2,0l-0.1,0c-0.4,0-1,0.3-1.2,0.6L43,11.7
			c-0.3,0.3-2.2,3.3-2.8,4l-0.4,0.5c-0.6,0.8-2.5,3.7-2.8,4.1l-0.2,0.3c-0.1,0.1-0.1,0.2-0.1,0.4c0,0.2,0.2,0.4,0.5,0.4l0.4,0
			c0.5,0,3.7,0,4.7-0.1l0.6,0c1-0.1,2.6-0.1,3.5-0.1l0.6,0c1,0,2.6,0.1,3.5,0.2l0.6,0c1,0.1,2.6,0.1,3.5,0l0.6,0
			c1,0,4.1-0.1,4.5-0.1l0.3,0c0.3,0,0.5-0.2,0.5-0.4C60.8,20.8,60.8,20.7,60.7,20.6z"/>
	</g>
</g>
</svg>
