<?xml version="1.0" encoding="utf-8"?>
<!-- Generator: Adobe Illustrator 26.5.0, SVG Export Plug-In . SVG Version: 6.00 Build 0)  -->
<svg version="1.1" id="_x32_" xmlns="http://www.w3.org/2000/svg" xmlns:xlink="http://www.w3.org/1999/xlink" x="0px" y="0px"
	 viewBox="0 0 512 512" style="enable-background:new 0 0 512 512;" xml:space="preserve">
<style type="text/css">
	.st0{fill:#e6ac00;}
	.st1{fill:#6e9200;}
</style>
<g>
	<path class="st0" d="M372.9,105.5c-4.2-1.8-9-0.9-12.3,2.3L256,209v231.8l116.9-113.1c4.4-4.3,6.9-10.1,6.9-16.3V115.9
		C379.8,111.4,377.1,107.3,372.9,105.5z"/>
	<path class="st1" d="M416.2,3.6C399.4-3.5,380,0.1,367,12.7L256,120.1L145,12.7C132,0.1,112.6-3.5,95.8,3.6
		c-16.7,7.1-27.6,23.5-27.6,41.7v274c0,18.4,7.5,36,20.7,48.8l135.6,131.1c17.6,17,45.4,17,63,0l135.6-131.1
		c13.2-12.8,20.7-30.4,20.7-48.8v-274C443.8,27.1,432.9,10.7,416.2,3.6z M379.8,311.4c0,6.1-2.5,12-6.9,16.3L256,440.8V209
		l104.7-101.2c3.2-3.2,8.1-4.1,12.3-2.3c4.2,1.8,6.9,5.9,6.9,10.4V311.4z"/>
</g>
</svg>
