<?xml version="1.0" encoding="UTF-8"?><svg id="_レイヤー_2" xmlns="http://www.w3.org/2000/svg" viewBox="0 0 484.52 372.56"><defs><style>.cls-1{fill:#2656a0;}</style></defs><g><path d="M469.48,368.13c-1.54,0-1.54-1.44-1.54-2.06,0-1.13,.82-3.91,1.03-4.84l15.55-59.64-.52-.52c-5.36,1.24-10.71,2.16-16.07,2.78v1.65c2.68-.1,7-.1,7,2.58,0,2.16-14.94,55.93-14.94,58.1,0,2.88,.41,6.39,4.94,6.39,6.39,0,8.39-2.13,13.65-10.06l-1.34-.93c-5.05,6.49-5.2,6.56-7.77,6.56Z"/><path d="M449.47,367.2c-.82,0-1.44-.62-1.44-1.34,0-3.19,9.48-38.32,9.79-39.55l-.72-.31-6.28,.72-.31,.31-1.03,4.53h-.21c-.31-2.88-3.71-5.56-8.14-5.56-13.7,0-29.46,19.26-29.46,34.4,0,2.99,.31,12.15,10.61,12.15,6.18,0,11.64-3.09,20.19-15.66l.21,.21c-1.65,6.28-2.16,8.55-2.16,10.92,0,1.75,0,4.43,4.33,4.43s7.93-3.71,14.11-11.33l-1.24-1.03c-4.64,4.53-6.7,7.11-8.24,7.11Zm-22.97,.31c-2.78,0-6.18-1.85-6.18-7.31,0-9.27,9.27-31.93,21.32-31.93,2.99,0,5.87,1.96,5.87,6.9,0,10.09-10.1,32.34-21.01,32.34Z"/><path d="M401.37,367.51c-.21,0-1.65-.21-1.65-1.75,0-3.09,8.24-28.53,8.24-32.96s-2.37-6.8-7.11-6.8c-8.55,0-18.03,14.32-22.87,21.94l-.21-.21,6.59-21.53-.31-.21c-5.56,1.13-11.12,2.16-16.69,3.19v1.65c5.56,0,6.59,1.13,6.59,2.68,0,2.16-6.9,26.27-10.09,37.91h7.73c4.22-14.01,5.56-18.44,10.3-25.55,3.71-5.77,10.2-14.63,15.14-14.63,1.96,0,2.57,1.44,2.57,3.3,0,4.12-7.62,29.25-7.62,31.73,0,2.99,.21,6.08,4.94,6.08,5.56,0,9.17-4.74,14.32-11.64l-1.44-1.34c-3.81,4.84-6.39,8.14-8.45,8.14Z"/><path d="M351.64,326c-15.04,0-30.28,16.58-30.28,31.73,0,8.55,4.64,14.83,15.55,14.83,15.76,0,29.87-18.64,29.87-31.31,0-6.8-3.19-15.24-15.14-15.24Zm-13.39,44.4c-5.15,0-8.24-3.71-8.24-9.58,0-12.15,9.37-32.65,20.91-32.65,4.94,0,7.21,4.53,7.21,9.89,0,11.02-8.14,32.34-19.88,32.34Z"/><path d="M310.02,367.72c-.93,0-1.65-.82-1.65-1.54,0-1.24,1.24-5.36,1.65-6.8l9.06-33.17-.31-.21c-4.02,.72-12.57,2.37-16.48,2.57v1.65c5.66,0,6.49,.51,6.49,2.68,0,2.88-8.14,28.43-8.14,33.27,0,1.85,0,6.39,4.84,6.39,5.77,0,10.3-5.67,14.32-11.74l-1.34-1.13c-4.22,5.97-7.21,8.03-8.45,8.03Z"/><path d="M317.64,304.06c-2.47,0-4.84,1.96-4.84,5.56s2.37,5.36,4.94,5.36c3.4,0,5.05-3.19,5.05-5.25,0-2.27-1.75-5.67-5.15-5.67Z"/><path d="M293.32,316.73c.21-.82,0-1.75-.72-1.54-.93-.21-1.34,.72-1.75,1.24-2.88,3.6-7.83,8.24-11.23,9.99-1.75,.93-4.64,1.65-5.25,2.57-.31,.52-.31,1.03-.21,1.65h7.62l-7.42,28.33c-.41,1.65-2.37,7.93-2.37,9.48,0,3.09,2.88,4.12,4.94,4.12,5.36,0,9.37-4.53,14.63-12.46l-1.34-.72c-2.58,3.3-6.18,8.14-8.24,8.14-1.13,0-1.65-.82-1.65-1.75,0-.31,0-.52,.1-.82l9.07-34.3h8.65l.52-3.3h-8.24l2.88-10.61Z"/><path d="M270.92,360.1c-4.64,4.53-6.7,7.11-8.24,7.11-.82,0-1.44-.62-1.44-1.34,0-3.19,9.48-38.32,9.79-39.55l-.72-.31-6.28,.72-.31,.31-1.03,4.53h-.21c-.31-2.88-3.71-5.56-8.14-5.56-13.7,0-29.46,19.26-29.46,34.4,0,2.99,.31,12.15,10.61,12.15,6.18,0,11.64-3.09,20.19-15.66l.21,.21c-1.65,6.28-2.16,8.55-2.16,10.92,0,1.75,0,4.43,4.33,4.43s7.93-3.71,14.11-11.33l-1.24-1.03Zm-31.21,7.42c-2.78,0-6.18-1.85-6.18-7.31,0-9.27,9.27-31.93,21.32-31.93,2.99,0,5.87,1.96,5.87,6.9,0,10.09-10.09,32.34-21.01,32.34Z"/><path d="M214.98,367.51c-.21,0-1.65-.21-1.65-1.75,0-3.09,8.24-28.53,8.24-32.96s-2.37-6.8-7.11-6.8c-8.55,0-18.03,14.32-22.87,21.94l-.21-.21,6.59-21.53-.31-.21c-5.56,1.13-11.12,2.16-16.69,3.19v1.65c5.56,0,6.59,1.13,6.59,2.68,0,2.16-6.9,26.27-10.1,37.91h7.72c4.22-14.01,5.56-18.44,10.3-25.55,3.71-5.77,10.2-14.63,15.14-14.63,1.96,0,2.57,1.44,2.57,3.3,0,4.12-7.62,29.25-7.62,31.73,0,2.99,.21,6.08,4.94,6.08,5.56,0,9.17-4.74,14.32-11.64l-1.44-1.34c-3.81,4.84-6.39,8.14-8.45,8.14Z"/><path d="M180.04,331.05c0-3.5-2.58-5.05-4.94-5.05-6.49,0-14.32,12.05-17.72,18.85l-.82,2.06-.21-.21,5.05-20.5-.31-.21c-4.64,.72-10.71,2.06-15.97,2.78v1.75c1.13-.21,2.27-.51,3.4-.51,3.19,0,3.71,1.65,3.71,3.09,0,.93-.62,4.43-1.65,8.24l-8.34,30.08h7.83c4.22-13.7,5.67-18.34,9.58-25.75,.82-1.54,7-12.98,10.2-12.98,2.47,0,.93,3.71,5.36,3.71,1.13,0,4.84,0,4.84-5.36Z"/><path d="M116.4,351.85c16.69-2.37,26.37-10.71,26.37-18.85,0-4.53-3.19-7-8.45-7-14.52,0-30.8,17.3-30.8,32.03,0,6.49,3.3,14.52,14.11,14.52s19.67-9.48,20.81-11.12l-1.24-1.24c-5.15,4.22-9.48,7.73-15.04,7.73-4.33,0-9.68-2.37-9.68-9.37,0-2.06,.52-4.12,1.03-6.28l2.88-.41Zm-.41-6.39c3.81-9.17,10.82-17.1,16.38-17.1,2.57,0,3.6,1.96,3.6,4.12,0,.82-.51,13.18-21.73,17.51l1.75-4.53Z"/><path d="M90.34,367.51c-1.13,0-1.65-.82-1.65-1.75,0-.31,0-.52,.1-.82l9.07-34.3h8.65l.52-3.3h-8.24l2.88-10.61c.21-.82,0-1.75-.72-1.54-.93-.21-1.34,.72-1.75,1.24-2.88,3.6-7.83,8.24-11.23,9.99-1.75,.93-4.64,1.65-5.25,2.57-.31,.52-.31,1.03-.21,1.65h7.62l-7.42,28.33c-.41,1.65-2.37,7.93-2.37,9.48,0,3.09,2.88,4.12,4.94,4.12,5.36,0,9.37-4.53,14.63-12.46l-1.34-.72c-2.57,3.3-6.18,8.14-8.24,8.14Z"/><path d="M69.21,367.51c-.21,0-1.65-.21-1.65-1.75,0-3.09,8.24-28.53,8.24-32.96s-2.37-6.8-7.11-6.8c-8.55,0-18.03,14.32-22.87,21.94l-.21-.21,6.59-21.53-.31-.21c-5.56,1.13-11.12,2.16-16.69,3.19v1.65c5.56,0,6.59,1.13,6.59,2.68,0,2.16-6.9,26.27-10.09,37.91h7.73c4.22-14.01,5.56-18.44,10.3-25.55,3.71-5.77,10.2-14.63,15.14-14.63,1.96,0,2.58,1.44,2.58,3.3,0,4.12-7.62,29.25-7.62,31.73,0,2.99,.21,6.08,4.94,6.08,5.56,0,9.17-4.74,14.32-11.64l-1.44-1.34c-3.81,4.84-6.39,8.14-8.45,8.14Z"/><path d="M31.53,315.85c1.75-6.49,3.4-6.7,8.45-7.62v-1.65H14.53v1.65c4.43,.51,7.21,.82,7.21,4.43,0,1.85-.52,4.33-1.13,6.39l-12.27,43.11c-1.75,6.39-3.3,6.7-8.34,7.62v1.65H25.13v-1.65c-4.43-.51-7-.82-7-4.12,0-2.47,.51-4.53,1.13-6.59l12.27-43.22Z"/><path d="M432.44,293.3c15.76,0,32.96-17.82,32.96-34.09,0-7.52-4.64-15.68-11.86-15.68-9.27,0-14.55,5.15-17.95,10.51l-.21-.1c3.5-11.64,6.63-23.15,8.9-31.6l-.51-.51c-5.36,1.03-10.61,1.75-15.76,2.37v1.75c5.97,.1,6.7,.62,6.7,2.99,0,1.44-.93,4.02-1.65,6.9l-14.01,51.61v.41c0,2.27,7.93,5.46,13.39,5.46Zm-4.53-5.77c1.42-18.3,10.29-38.56,21.62-38.56,6.49,0,7.12,8.38,7.12,11.57,0,8.65-9.79,30.39-23.9,30.39-4.84,0-4.9-2.68-4.84-3.4Z"/><path d="M375.58,250.96c4.22,0,6.18,0,6.18,2.99,0,2.78-7.83,28.74-7.83,33.27s1.96,6.08,5.66,6.08c9.27,0,16.89-12.88,23.9-24.52h.31c-2.37,8.45-4.43,17.1-4.43,18.95,0,1.54,.21,5.36,4.84,5.36,5.15,0,7.83-2.68,14.32-12.05l-1.44-.93c-3.6,4.53-6.49,8.14-8.45,8.14-1.13,0-1.24-1.13-1.24-1.65,0-1.55,1.34-6.08,1.96-8.14l8.14-30.8h-7.62c-4.02,11.02-6.28,17.51-11.33,25.13-3.5,5.36-9.99,15.04-14.42,15.04-2.16,0-2.47-2.16-2.16-3.5l9.37-37.39-.31-.21c-5.15,1.24-10.3,2.16-15.45,2.78v1.44Z"/><path d="M366.18,228.81c0,2.16-14.94,55.93-14.94,58.1,0,2.88,.41,6.39,4.94,6.39,6.39,0,10.4-4.94,15.66-12.88l-1.34-.93c-5.05,6.49-7.21,9.37-9.79,9.37-1.54,0-1.54-1.44-1.54-2.06,0-1.13,.82-3.91,1.03-4.84l15.55-59.64-.51-.51c-5.36,1.24-10.71,2.16-16.07,2.78v1.65c2.68-.1,7-.1,7,2.58Z"/><path d="M316.93,294.02c15.04,0,24.21-10.82,28.02-15.35l-1.75-1.44c-4.94,4.84-12.15,12.15-23.79,12.15-12.26,0-17.92-8.55-17.92-22.04,0-15.14,10.51-40.07,31.11-40.07,14.73,0,15.66,13.8,15.86,16.69l1.85,.31,3.81-20.5h-2.16c-.51,1.03-1.13,2.27-4.12,2.27-2.37,0-8.65-2.47-16.07-2.47-23.59,0-41.82,22.76-41.82,42.64s15.04,27.81,26.99,27.81Z"/><path d="M245.88,291.13c-8.34,0-9.99-9.48-10.71-14.01h-1.65l-2.06,16.38h1.65c.62-1.13,1.03-2.16,2.47-2.16,2.99,0,7.11,1.96,10.2,1.96,5.77,0,15.35-2.58,15.35-13.8,0-8.76-12.57-17.92-12.57-24.41,0-5.05,3.3-5.97,5.56-5.97,6.7,0,9.17,5.97,9.68,11.85h1.65l2.06-14.32h-1.44c-.51,.82-1.13,1.85-2.88,1.85-3.09,0-5.15-1.75-9.79-1.75-10.92,0-12.36,8.24-12.36,11.43,0,7.93,12.26,17.82,12.26,24.62,0,3.4-1.65,8.34-7.42,8.34Z"/><path d="M212.02,253.85c0,.93-.62,4.43-1.65,8.24l-8.34,30.08h7.83c4.22-13.7,5.67-18.33,9.58-25.75,.82-1.55,7-12.98,10.2-12.98,2.47,0,.93,3.71,5.36,3.71,1.13,0,4.84,0,4.84-5.36,0-3.5-2.57-5.05-4.94-5.05-6.49,0-14.32,12.05-17.72,18.85l-.82,2.06-.21-.21,5.05-20.5-.31-.21c-4.64,.72-10.71,2.06-15.97,2.78v1.75c1.13-.21,2.27-.52,3.4-.52,3.19,0,3.71,1.65,3.71,3.09Z"/><path d="M177.84,293.3c10.3,0,19.67-9.48,20.81-11.12l-1.24-1.24c-5.15,4.22-9.48,7.73-15.04,7.73-4.33,0-9.68-2.37-9.68-9.37,0-2.06,.52-4.12,1.03-6.28l2.88-.41c16.69-2.37,26.37-10.71,26.37-18.85,0-4.53-3.19-7-8.45-7-14.52,0-30.8,17.3-30.8,32.03,0,6.49,3.3,14.52,14.11,14.52Zm-1.65-27.09c3.81-9.17,10.82-17.1,16.38-17.1,2.57,0,3.6,1.96,3.6,4.12,0,.82-.51,13.18-21.73,17.51l1.75-4.53Z"/><path d="M124.99,254.26c0,2.16-6.9,26.27-10.1,37.91h7.73c4.22-14.01,5.56-18.44,10.3-25.54,3.71-5.77,10.2-14.63,15.14-14.63,1.96,0,2.57,1.44,2.57,3.3,0,4.12-7.62,29.25-7.62,31.73,0,2.99,.21,6.08,4.94,6.08,5.56,0,9.17-4.74,14.32-11.64l-1.44-1.34c-3.81,4.84-6.39,8.14-8.45,8.14-.21,0-1.65-.21-1.65-1.75,0-3.09,8.24-28.53,8.24-32.96s-2.37-6.8-7.11-6.8c-8.55,0-18.03,14.32-22.87,21.94l-.21-.21,6.59-21.53-.31-.21c-5.56,1.13-11.12,2.16-16.69,3.19v1.65c5.56,0,6.59,1.13,6.59,2.68Z"/><path d="M99.56,293.3c5.77,0,10.3-5.66,14.32-11.74l-1.34-1.13c-4.22,5.97-7.21,8.03-8.45,8.03-.93,0-1.65-.82-1.65-1.54,0-1.24,1.24-5.36,1.65-6.8l9.06-33.17-.31-.21c-4.02,.72-12.57,2.37-16.48,2.57v1.65c5.67,0,6.49,.52,6.49,2.68,0,2.88-8.14,28.43-8.14,33.27,0,1.85,0,6.39,4.84,6.39Z"/><path d="M111.81,235.72c3.4,0,5.05-3.19,5.05-5.25,0-2.27-1.75-5.67-5.15-5.67-2.47,0-4.84,1.96-4.84,5.56s2.37,5.36,4.94,5.36Z"/><path d="M91.44,254.31c0-10.82-6.39-27.4-30.08-27.4h-26.62v1.65c5.25,.41,7.93,.93,7.93,4.43,0,2.06-.82,5.25-1.13,6.39l-12.27,43.52c-1.75,6.39-3.3,6.7-8.34,7.62v1.65h26.06c30.28,0,44.45-17.04,44.45-37.85Zm-52.18,30.74c0-1.65,1.34-6.18,2.27-9.58l12.06-42.49c.41-1.44,.82-2.99,6.7-2.99,18.23,0,19.72,12.67,19.72,23.07,0,6.28-.98,36-33.43,36-4.84,0-7.31-.62-7.31-4.02Z"/></g><g><path class="cls-1" d="M302.18,0H173.43c-56.25,0-101.85,45.6-101.85,101.85s45.6,101.85,101.85,101.85h128.75c56.25,0,101.85-45.6,101.85-101.85S358.43,0,302.18,0ZM173.43,201.43c-54.99,0-99.58-44.58-99.58-99.58S118.44,2.28,173.43,2.28s99.58,44.58,99.58,99.58-44.58,99.58-99.58,99.58Z"/><path class="cls-1" d="M112.55,101.85c0,26.63,17.09,49.26,40.91,57.53l-.12-115.02c-23.75,8.3-40.78,30.91-40.78,57.49Z"/><path class="cls-1" d="M193.53,44.36l-.12,115.02c23.81-8.27,40.91-30.9,40.91-57.53s-17.03-49.18-40.78-57.49Z"/></g></svg>