<?xml version="1.0" encoding="UTF-8"?>
<svg id="_レイヤー_2" data-name="レイヤー 2" xmlns="http://www.w3.org/2000/svg" xmlns:xlink="http://www.w3.org/1999/xlink" viewBox="0 0 286 156">
  <defs>
    <style>
      .cls-1 {
        filter: url(#outer-glow-4);
      }

      .cls-1, .cls-2, .cls-3 {
        fill: #fff;
      }

      .cls-2 {
        filter: url(#outer-glow-3);
      }

      .cls-3 {
        filter: url(#outer-glow-5);
      }

      .cls-4 {
        filter: url(#outer-glow-1);
      }

      .cls-4, .cls-5 {
        fill: #fce333;
      }

      .cls-6 {
        fill: #211815;
      }

      .cls-5 {
        filter: url(#outer-glow-2);
        stroke-miterlimit: 10;
        stroke-width: 2.21px;
      }

      .cls-5, .cls-7 {
        stroke: #fff;
      }

      .cls-7 {
        fill: none;
        stroke-linejoin: round;
        stroke-width: 2.83px;
      }
    </style>
    <filter id="outer-glow-1" filterUnits="userSpaceOnUse">
      <feOffset dx="0" dy="0"/>
      <feGaussianBlur result="blur" stdDeviation="5"/>
      <feFlood flood-color="#325fac" flood-opacity=".75"/>
      <feComposite in2="blur" operator="in"/>
      <feComposite in="SourceGraphic"/>
    </filter>
    <filter id="outer-glow-2" filterUnits="userSpaceOnUse">
      <feOffset dx="0" dy="0"/>
      <feGaussianBlur result="blur-2" stdDeviation="5"/>
      <feFlood flood-color="#325fac" flood-opacity=".75"/>
      <feComposite in2="blur-2" operator="in"/>
      <feComposite in="SourceGraphic"/>
    </filter>
    <filter id="outer-glow-3" filterUnits="userSpaceOnUse">
      <feOffset dx="0" dy="0"/>
      <feGaussianBlur result="blur-3" stdDeviation="5"/>
      <feFlood flood-color="#325fac" flood-opacity=".75"/>
      <feComposite in2="blur-3" operator="in"/>
      <feComposite in="SourceGraphic"/>
    </filter>
    <filter id="outer-glow-4" filterUnits="userSpaceOnUse">
      <feOffset dx="0" dy="0"/>
      <feGaussianBlur result="blur-4" stdDeviation="5"/>
      <feFlood flood-color="#325fac" flood-opacity=".75"/>
      <feComposite in2="blur-4" operator="in"/>
      <feComposite in="SourceGraphic"/>
    </filter>
    <filter id="outer-glow-5" filterUnits="userSpaceOnUse">
      <feOffset dx="0" dy="0"/>
      <feGaussianBlur result="blur-5" stdDeviation="5"/>
      <feFlood flood-color="#325fac" flood-opacity=".75"/>
      <feComposite in2="blur-5" operator="in"/>
      <feComposite in="SourceGraphic"/>
    </filter>
  </defs>
  <g id="pc">
    <g>
      <path class="cls-4" d="m247.26,17.77L58.14,51.12c-6.98,1.23-11.64,7.89-10.41,14.87l8.55,48.51c1.23,6.98,7.89,11.64,14.87,10.41l26.19-4.62,16.73,19.93,8.9-24.45,137.3-24.21c6.98-1.23,11.64-7.89,10.41-14.87l-8.55-48.51c-1.23-6.98-7.89-11.64-14.87-10.41Z"/>
      <path class="cls-7" d="m247.26,17.77L58.14,51.12c-6.98,1.23-11.64,7.89-10.41,14.87l8.55,48.51c1.23,6.98,7.89,11.64,14.87,10.41l26.19-4.62,16.73,19.93,8.9-24.45,137.3-24.21c6.98-1.23,11.64-7.89,10.41-14.87l-8.55-48.51c-1.23-6.98-7.89-11.64-14.87-10.41Z"/>
      <g>
        <path class="cls-6" d="m84.06,82.13l-6.69,1.18,2.56-3.39-10.07,1.78-.96-5.45,19.29-3.4.73,4.13-4.85,5.15Zm-10.14,7.4l6.73-1.19c-.8.9-1.43,1.69-1.91,2.37-.48.68-.87,1.41-1.18,2.17-.3.76-.39,1.46-.25,2.1.08.47.28.86.57,1.16.3.3.86.48,1.69.53.83.05,2.09-.06,3.78-.34,1.92-.34,3.55-.69,4.88-1.04,1.33-.36,2.92-.83,4.77-1.43l1.02,5.8c-3.57,1.12-7.05,1.99-10.44,2.61-3.56.63-6.31.45-8.24-.53-1.93-.98-3.1-2.68-3.51-5.11-.2-1.39-.11-2.61.25-3.68.36-1.07.97-2.21,1.83-3.44Z"/>
        <path class="cls-6" d="m110.36,77.49l-6.69,1.18,2.56-3.39-10.07,1.78-.96-5.45,19.29-3.4.73,4.13-4.85,5.15Zm-10.14,7.4l6.73-1.19c-.8.9-1.43,1.69-1.91,2.37-.48.68-.87,1.41-1.18,2.17-.3.76-.39,1.46-.25,2.1.08.47.28.86.57,1.17s.86.48,1.69.53c.83.05,2.09-.06,3.78-.34,1.92-.34,3.55-.69,4.88-1.04,1.33-.36,2.92-.83,4.78-1.43l1.02,5.8c-3.57,1.12-7.05,1.99-10.44,2.61-3.56.63-6.31.45-8.24-.53s-3.1-2.68-3.51-5.11c-.2-1.38-.11-2.61.25-3.68s.97-2.21,1.83-3.44Z"/>
        <path class="cls-6" d="m122.6,77.79l-.99-5.62c1.54-.42,2.91-.78,4.1-1.09-.27-1.69-.59-3.58-.96-5.67l5.45-.96c.39,2.06.68,3.87.88,5.42.24-.04.5-.09.8-.14.3-.05.64-.11,1.03-.18.39-.07.68-.12.87-.15,1.78-.31,3.25.03,4.42,1.02,1.17.99,2.06,2.72,2.69,5.18.48,1.77.88,3.61,1.17,5.52.3,1.91.41,3.7.34,5.39-.07,1.69-.44,3.11-1.1,4.25-.67,1.15-1.73,1.87-3.19,2.18-1.26.2-2.28.28-3.05.26-.77-.02-1.16-.05-1.17-.07l-1-5.7c1.5.2,2.63.22,3.39.06.6-.18.92-.84.95-1.98.03-1.14-.09-2.5-.37-4.06-.28-1.57-.6-3.1-.96-4.6-.16-.9-.43-1.45-.8-1.64-.38-.19-1-.23-1.86-.13-.29.05-.53.11-.72.17-.2.06-.46.12-.79.18.27,3.33.31,6.48.12,9.45-.19,2.97-.56,6-1.11,9.08l-5.73,1.01c.82-3.25,1.33-6.24,1.54-8.97.2-2.73.17-5.82-.09-9.27-1.15.3-2.06.55-2.75.76-.69.21-1.05.31-1.1.32Zm14.58-13.47l-.99-5.62,2.71-.48.99,5.62-2.71.48Zm.1,1.19l5.23-.92c2.77,3.92,4.84,8.09,6.21,12.52l-5.23.92c-1.03-4.2-3.1-8.37-6.21-12.52Zm4.13-1.94l-.99-5.62,2.71-.48.99,5.62-2.71.48Z"/>
        <path class="cls-6" d="m173.09,60.27l1,5.7-9.22,1.62,3.54,20.07-5.3.94-3.54-20.07-9.11,1.61-1-5.7,9.11-1.61-.72-4.06,5.3-.94.72,4.06,9.22-1.62Zm-20.22,11.67l4.73-.83c.68,4.01,1.11,7.12,1.28,9.32.17,2.2.26,4.64.27,7.33l-5.12.9c.01-.05.04-.72.07-1.99.03-1.28-.02-3.17-.14-5.68-.12-2.51-.49-5.52-1.08-9.04Zm13.66-18.04c.68-.98,1.63-1.57,2.84-1.79,1.21-.21,2.31.03,3.3.72.99.69,1.59,1.65,1.81,2.86.21,1.21-.03,2.31-.72,3.28-.7.98-1.65,1.58-2.86,1.79-1.21.21-2.3-.02-3.28-.71-.98-.68-1.57-1.63-1.79-2.84-.21-1.21.02-2.32.7-3.32Zm1.18,15.43l4.77-.84c.62,3.51,1.28,6.47,1.97,8.88s1.3,4.21,1.81,5.39c.51,1.18.79,1.79.82,1.84l-5.13.9c-.91-2.53-1.66-4.86-2.26-6.98-.59-2.12-1.26-5.19-1.99-9.19Zm4.39-13.21c-.1-.57-.37-1-.82-1.31-.45-.3-.94-.4-1.49-.31-.55.1-.97.36-1.27.79s-.4.93-.3,1.5c.1.55.36.97.79,1.27s.92.41,1.47.31c.55-.1.98-.36,1.29-.8.31-.43.42-.92.33-1.47Z"/>
        <path class="cls-6" d="m193.44,53.49l6.41-1.13c-.63,2.24-1.51,4.4-2.62,6.48-1.11,2.08-2.14,3.9-3.09,5.46l3.3,18.72-5.62.99-2.54-14.38c-1.57,1.79-3.12,3.28-4.65,4.45s-2.76,2.02-3.7,2.54c-.94.52-1.42.78-1.44.79l-1.01-5.73s.58-.35,1.69-1.05c1.1-.7,2.47-1.77,4.11-3.22,1.64-1.45,3.28-3.33,4.93-5.64,1.65-2.31,3.06-5.07,4.23-8.29Z"/>
        <path class="cls-6" d="m203.91,58.32l-.98-5.55,11.11-1.96.98,5.55-11.1,1.96Zm18.08-2.75l5.66-1c-.42,4.55-1.39,8.37-2.9,11.45s-3.21,5.55-5.1,7.41c-1.89,1.86-3.74,3.27-5.55,4.23-1.81.96-3.32,1.6-4.53,1.92-1.2.32-1.82.47-1.85.46l-1.02-5.8s.51-.08,1.45-.31c.94-.23,2.11-.69,3.52-1.37,1.41-.69,2.82-1.78,4.25-3.28,1.42-1.5,2.67-3.3,3.73-5.41,1.06-2.11,1.84-4.87,2.34-8.29Z"/>
        <path class="cls-6" d="m253.31,52.14l.99,5.59-14.95,2.64,2.58,14.63-5.62.99-5.26-29.83,5.62-.99,1.69,9.61,14.95-2.64Z"/>
      </g>
      <g>
        <path class="cls-5" d="m70.69,55.51c1.91,10.82-5.32,21.14-16.14,23.05-10.82,1.91-21.14-5.32-23.05-16.14-1.91-10.82,5.32-21.14,16.14-23.05,10.82-1.91,21.14,5.32,23.05,16.14Z"/>
        <path class="cls-6" d="m54.16,61.36l-4.87.86-3.15-13.15,6.49-1.14,1.53,13.43Zm1.81,5.7c.31,1.75-.87,3.47-2.65,3.78-1.78.31-3.47-.9-3.78-2.65-.31-1.75.87-3.47,2.65-3.78,1.78-.31,3.47.9,3.78,2.65Z"/>
      </g>
      <g>
        <polygon class="cls-2" points="28.24 18.7 22.94 22.24 36.59 38.2 37.73 37.43 28.24 18.7"/>
        <polygon class="cls-1" points="18.68 28.7 15.11 33.37 31.79 43.21 32.56 42.21 18.68 28.7"/>
        <polygon class="cls-3" points="35.85 17.25 41.52 15.75 44.21 34.92 42.99 35.25 35.85 17.25"/>
      </g>
    </g>
  </g>
</svg>