<?xml version="1.0" encoding="UTF-8"?>
<svg id="_レイヤー_2" data-name="レイヤー 2" xmlns="http://www.w3.org/2000/svg" viewBox="0 0 77.32 77.32">
  <defs>
    <style>
      .cls-1, .cls-2 {
        fill: #fff;
      }

      .cls-3 {
        fill: #9ac243;
      }

      .cls-2 {
        font-family: 'Noto Sans JP', sans-serif;
        font-weight: 700;
      }
    </style>
  </defs>
  <g id="pc">
    <g>
      <rect class="cls-3" width="77.32" height="77.32"/>
      <g>
        <path class="cls-1" d="m48.07,26.02c-4.7,0-8.53-3.82-8.53-8.53s3.82-8.53,8.53-8.53,8.53,3.82,8.53,8.53-3.82,8.53-8.53,8.53Zm0-15.45c-3.82,0-6.92,3.1-6.92,6.92s3.1,6.92,6.92,6.92,6.92-3.1,6.92-6.92-3.1-6.92-6.92-6.92Z"/>
        <path class="cls-1" d="m51.48,42.2c-.1-.09-2.6-2.34-7.65-4.79-.03-.01-.06-.03-.08-.04-.95-.33-1.88-.61-2.8-.84v-.41h2.12c.44,0,.8-.36.8-.8s-.36-.8-.8-.8h-2.12v-1.89h.75c.44,0,.8-.36.8-.8s-.36-.8-.8-.8h-.75v-2.21c0-.96-.78-1.75-1.75-1.75h-.21c-.96,0-1.74.78-1.74,1.75v.74h-.76c-.44,0-.8.36-.8.8s.36.8.8.8h.76v2.07h-1.44c-.44,0-.8.36-.8.8s.36.8.8.8h1.44v1.03c-2.72-.32-5.29-.24-7.73.1v-2.46h2.3c.98,0,1.78-.8,1.78-1.81s-.8-1.78-1.78-1.78h-2.3v-2.04h1.08c.98,0,1.78-.8,1.78-1.8s-.8-1.78-1.78-1.78h-1.08v-.85c0-1.23-1-2.23-2.23-2.23h-.3c-1.22,0-2.22,1-2.22,2.23v2.36h-1.08c-.98,0-1.78.8-1.78,1.81s.8,1.78,1.78,1.78h1.08v3.11h-2.3c-.98,0-1.78.8-1.78,1.81s.8,1.78,1.78,1.78h2.3v.87c-3.05.83-5.85,1.95-8.44,2.98-.8.32-1.57.63-2.32.91-.41.16-.62.62-.46,1.04.16.41.62.62,1.04.46.76-.29,1.54-.6,2.34-.92,3.54-1.41,7.51-2.99,11.95-3.72h0c3.42-.57,7.12-.63,11.1.27h0c1.04.24,2.11.54,3.19.92,4.8,2.34,7.21,4.49,7.24,4.52.15.14.35.21.54.21.22,0,.44-.09.6-.26.3-.33.27-.83-.06-1.13Zm-25.1-6.91s0-.01,0-.02c0-.44-.36-.8-.8-.8h-3.1c-.1,0-.18-.08-.18-.19,0-.1.08-.18.18-.18h3.1c.44,0,.8-.36.8-.8v-4.71c0-.44-.36-.8-.8-.8h-1.89c-.1,0-.18-.08-.18-.2,0-.1.08-.18.18-.18h1.89c.44,0,.8-.36.8-.8v-3.16c0-.34.28-.62.61-.62h.3c.34,0,.62.28.62.62v1.65c0,.44.36.8.8.8h1.89c.09,0,.18.08.18.19,0,.09-.08.17-.18.17h-1.89c-.44,0-.8.36-.8.8v3.65c0,.44.36.8.8.8h3.1c.09,0,.18.08.18.2,0,.09-.08.18-.18.18h-3.1c-.17,0-.32.05-.45.14-.21.14-.35.39-.35.67v3.52c-.52.1-1.03.21-1.54.32v-1.25Zm12.48-6.48c0-.07.06-.14.13-.14h.21c.07,0,.14.07.14.14v3s0,.01,0,.02,0,.01,0,.02v3.47s0,.01,0,.02,0,.01,0,.02v.85c-.16-.03-.32-.06-.48-.09v-7.28Z"/>
        <path class="cls-1" d="m45.28,35.48c-.3,0-.59-.17-.73-.46-.19-.4-.02-.88.38-1.07,7.79-3.67,15.16-4.15,21.3-1.41.4.18.59.66.41,1.06-.18.4-.66.59-1.06.41-5.79-2.58-12.5-2.11-19.96,1.4-.11.05-.23.08-.34.08Z"/>
      </g>
      <text class="cls-2" transform="translate(38.66 66)" text-anchor="middle" font-size="17"><tspan x="0" y="0">農産物</tspan></text>
    </g>
  </g>
</svg>