<?xml version="1.0" encoding="utf-8"?>
<!-- Generator: Adobe Illustrator 28.0.0, SVG Export Plug-In . SVG Version: 6.00 Build 0)  -->
<svg version="1.1" id="_レイヤー_2" xmlns="http://www.w3.org/2000/svg" xmlns:xlink="http://www.w3.org/1999/xlink" x="0px"
	 y="0px" viewBox="0 0 120 120" style="enable-background:new 0 0 120 120;" xml:space="preserve">
<style type="text/css">
	.st0{fill:#E6E6E6;}
</style>
<path class="st0" d="M117.5,46.1c0-1.5-0.3-3.1,0.4-4.4c0.5-1,1.5-1.6,2.1-2.3c-0.1,0-0.3-0.1-0.4-0.1c-2.9-1.5-2.2-5.2-3-7.7
	c-0.9-2.7-2.4-4.1-2.7-7.1c-0.3-2.4,0.2-5-0.4-7.3c-1.1-4-3.2-1.9-6.1-3.5c-1.5-0.8-2.2-2.6-3.1-4.1c-0.3,0.1-0.6,0.2-0.9,0.3
	c-6.9,1.7-7.7,1.7-12.7,2.6c-5,0.9-9.6,2.8-12.4,5.3c-2.7,2.5-0.8,4.8-0.8,7c0,2.2-0.8,2.3-1.3,6.2c-0.5,3.9-3,4.8-5.6,6.5
	c-2.6,1.7-1.9,3.6-5.3,3.9c-3.4,0.3-6.1-0.3-10.4-0.2c-4.3,0.2-5.3-0.2-10-0.9c-4.7-0.8-6.7-2-9.1-3.6c-2.4-1.5-4.3-3.1-7.5-6.2
	c-2.3-2.2-1.9-3.2-1.9-5.9c0-2.6,1.8-2.8,3.5-4.5c1.8-1.7,0.2-1.9,1.1-4.3c0.7-1.8,1.5-2.8,2-4.3c-1.6-0.4-3.9-0.3-5.4-0.3
	c-0.8,0-1.5-0.1-2.1,0.4c-1,0.8-0.6,1.5-2.3,1.7c-0.8,0.1-1.8-0.3-2.5-0.1c-0.9,0.3-1.8,1.3-2.6,1.8c-1.8,1-3.2,2.2-4.3,3.9
	c-0.9,1.4-1.4,2.9-1.3,4.7c0,1.9-1.2,2.8-1.7,4.6c-0.8,3.4-1.9,6.4-1.7,9.8c0.1,1.8,0,4.1-1.4,5.4c-1.2,1.1-3.6,0.9-4.5,2.3
	c-1,1.7-0.3,4,0.8,5.3c1.2,1.5,1.7,3,1.5,5c-0.2,2.1-2,2.3-3.4,3.7C0.8,61,1.3,62.4,1.6,64c0.6,3.4,2.7,6.2,2.7,9.9
	c0,1.9-2.1,2.5-2.3,4.3c-0.2,1.6,1,3.5,1.1,5.2C3.1,85,3,86.6,2,88C1.4,88.7,0.2,89,0,90c-0.1,0.9,0.8,1.6,1.4,2.2
	c1.4,1.5,3.9,3.3,2.8,5.5c-0.4,0.7-1.3,1.2-1.6,2.1c-0.3,0.8-0.2,1.5-0.6,2.2c-0.8,1.6-1.5,2.8-0.2,4.6c0.5,0.6,1,1.1,1.6,1.6
	c0.5-1.4,2-0.9,3.3-1.9c3.1-2.4,1.6-6.1,6.5-6.6c2.7-0.3,6.6,0.5,8.3,2.4c1.7,1.9,3.5,6.3,1.9,8.6c4.9,0.1,5.4-3.5,7.9-6.5
	c1.1-1.3,2.6-1.6,3.6-3.3c0.8-1.4,0.4-3.3,1.3-4.7c1-1.6,2.6-2.2,4.1-3.2c2-1.4,2.7-3.5,4.6-5c2.8-2.3,4.8-0.8,7.9-0.6
	c3.4,0.2,5.5-2,8.6-2.7c4.7-1,3.4,1.7,3.7,4.7c3.5,0.6,6.7-3.8,9.1-3.2c1.9,0.5,2.1,3.6,4,4.3c2.1,0.9,4.1-0.5,5.9-0.9
	c5.2-1.2,4,3.5,8,5.2c1.7,0.7,3.5,0.5,5.4,0.2c0.5-0.8,1.7-1.3,2.3-1.8c3.1-2.8,5.4-5.9,6.2-10c0.3-1.8,0.5-3.3,1.9-4.5
	c1.2-1,3.9-0.7,4.5-2.6c0.8-2.7-1.9-1.2-2.7-2.6c-0.6-1.2,0.3-3.3,0.9-4.2c1.2-1.7,3.2-1.8,4.8-2.8c2.1-1.3,1.6-1,2.3-3.1
	c1-2.8,1.8-5.5,1.5-8.6C118.8,51.7,117.5,49.2,117.5,46.1z"/>
</svg>
