<?xml version="1.0" encoding="utf-8"?>
<!-- Generator: Adobe Illustrator 28.0.0, SVG Export Plug-In . SVG Version: 6.00 Build 0)  -->
<svg version="1.1" id="_レイヤー_2" xmlns="http://www.w3.org/2000/svg" xmlns:xlink="http://www.w3.org/1999/xlink" x="0px"
	 y="0px" viewBox="0 0 120 120" style="enable-background:new 0 0 120 120;" xml:space="preserve">
<style type="text/css">
	.st0{fill:#E6E6E6;}
</style>
<path class="st0" d="M98.7,33c-1.1-0.1-2.7,0.2-3.8-0.1c-1.4-0.4-0.9-0.7-2-1.5c-2.4-1.7-2.5-1.6-5.4-1.9c-3.2-0.3-6.8-1.1-8.2-4.3
	c-1.6-3.8,2.2-7.5,3-11.3c0.7-3.5-2-5.4-2.5-8.4c-0.3,0.2-0.6,0.5-0.9,0.8c-1.1,1-0.9,1.6-2.5,2C73.6,9,72.1,7,70.3,5.6
	c-5-3.7-7,2.1-12,3.1C56.3,9,54.8,8.8,53,8c-1-0.5-0.8-1.2-2-1.6c-0.8-0.2-1.8,0.1-2.6,0c-2.9-0.2-2.8-0.5-3.9-2.9
	C44.1,2.3,44-0.2,42.2,0c-2.6,0.4-3,7.1-3.5,8.9c-1,3.6-3.2,6.6-4.9,9.8c-1.1,2.1-1,2.3,0.6,3.7c2,1.8,2.4,0.1,1.7,2.9
	c-0.7,3.1-1.2,4.7,0.4,7.7c1.4,2.7,2.6,5.3,1.5,8.6c-0.5,1.5-1.2,2.8-1.8,4.2c-0.6,1.4-0.8,3-1.8,4.3c-0.5,0.7-1.1,1.1-1.6,1.4
	c0.9,1.7,1.4,3.3,1.7,5.6c0.3,2,0.1,6.6,1.5,8.3c0.9,1.1,3,1.1,4.1,2.3c0.9,1,1.6,2.9,1.7,4.2c0.3,4.7-3.8,1.8-6.9,2.5
	c-3.8,0.9-2.9,4.8-4.6,7.3c-0.8,1.1-2.8,1.9-3.8,3.1c-1.1,1.4-1,3.1-1.8,4.3c-0.9,1.4-3,1.4-3.4,2.8c-0.6,2.1,1.4,2.4,2.7,3.3
	c2.8,2,2.5,5.2,5.4,6.5c3.3,1.4,3.7,0.7,4,4.6c0.1,1.4,0.7,2.3-0.3,3.5c-1.2,1.5-3.5,0.7-4.6,2.3c-1.3,1.8-0.2,6.5,1.7,7.6
	c3.4,1.9,4.6-2,6.9-3.2c3.5-1.8,9.7,0.2,13.7-0.2c3-0.3,4.8-0.5,7.5,0.9c0.5,0.2,1,0.5,1.6,0.8c0.4-0.8,0.8-1.7,0.8-2.7
	c3.2-1,3.2-3.2,5.4-4.9c2.7-2.2,5.9-0.9,7-5c0.6-2.3-0.1-4.7,2.8-5.8c2.7-1,4.6,0.6,7-1.7c2.3-2.2,1.3-5.2,1.5-8.3
	c0.1-3.3,0.5-6.7,0.6-10.1c0.1-3.1,1.7-5.8,1.5-8.9c-0.1-1.7-0.8-3.3-0.6-5c0.2-1.6,1-2.4,0.5-3.9c-0.2-0.7-1.6-1.2-1.9-1.9
	c-0.3-0.6-0.2-1.3-0.4-2c-0.5-1.5-1.6-3.3-2-4.9c-1-3.7,1.7-6.1,4.9-7.8c3.6-1.9,7.3,0.7,10-3C98.6,39.3,99.5,36,98.7,33z"/>
</svg>
