<?xml version="1.0" encoding="utf-8"?>
<!-- Generator: Adobe Illustrator 28.0.0, SVG Export Plug-In . SVG Version: 6.00 Build 0)  -->
<svg version="1.1" id="_レイヤー_2" xmlns="http://www.w3.org/2000/svg" xmlns:xlink="http://www.w3.org/1999/xlink" x="0px"
	 y="0px" viewBox="0 0 120 120" style="enable-background:new 0 0 120 120;" xml:space="preserve">
<style type="text/css">
	.st0{fill:#E6E6E6;}
</style>
<path class="st0" d="M106.1,69.3c0.6-0.9,1-2.4,1.4-3.4c0.5-1.5,0.8-3.5,0.5-5.1c-0.3-1.9-1.9-3-2.6-4.7c-1.4,0-2.8,0.3-4.2,0.2
	c-1.7-0.1-2.5-1.3-3.9-1.7c-1.1-0.3-3.1,0.5-4-0.2c-0.6-0.5-1.4-2.9-1.6-3.6c-0.7-1.9-0.2-3.9-1.3-5.5c-0.4-0.5-0.8-0.8-1.2-1.3
	c-0.3-0.4-0.1-1-0.4-1.4c-0.6-0.7-2.3-0.5-3.3-1.1c-1.2-0.8-1.9-1.8-3.3-2.4c-1.5-0.7-3-0.4-3.4-2c-0.7-2.5,2.2-3.8,2.2-6
	c0-1.4-2.8-4.7-3.9-5.4c-1.1-0.7-2-0.3-3-0.7c-1.1-0.4-2.3-1.9-3-2.8c-1.3-1.7-1.7-3.9-2.8-5.7c-1.3-2.3-2.2-3.2-4.9-4.2
	c-0.2-1.7,1.2-3.2,0.2-4.7c-0.8-1.3-3.8-3.4-5.1-4.2c-0.8-0.4-1.7-0.6-2.4-1.2c-0.7-0.5-1.3-2.1-2.1-2.3c-1.1-0.3-3.4,2-4.6,2.7
	c-1.3,0.8-1.6,1.1-3.2,1.1c-0.9,0-2.1-0.3-2.9,0.2c-2,1.1-1.3,3-4.3,2.3c-1.8-0.4-4.2-1.2-5.4-2.6c-0.5-0.6-0.7-1.1-1-1.4
	C31.9,3,31.2,3.9,30,5.4c-2.6,3.2-4.5,1.4-6.9,0.6c-4.7-1.7-9.6,2.9-7.1,4.3c2.5,1.4,1.8,3.7,0.1,5.3c-1.7,1.5,0.3,4.4,2.2,7.3
	c1.8,2.9,2.3,4.2-1.9,12.4c-4.2,8.3,1.9,8.7,4.7,10.2C23.8,47,28,53.3,29,57.1c1,3.9-0.1,9.8-3.1,16c-3,6.2-5.6,5.5-9.7,3.9
	s-5.8,1.3-2.6,3.7c2.5,1.9,3.5,3.7,4.7,7.2c1.1,3.4,1.9,5.8,5.1,6.3c3.2,0.4,11.1,0.3,15.3,0.8c4.2,0.4,6.4-0.1,6.7,4.6
	c0.3,4.7,4.3,4,8.1,3.2c3.8-0.8,4.2-5.1,4.6-7.4c0.4-2.3-2.7-4.3-6.1-5.8c-3.4-1.5-3.1-3-3.4-5c-0.3-2,0.1-2.3-0.8-3.9
	c-0.9-1.6-1.5-3.2-2.3-5.5c-0.9-2.3,2.6-9.7,4.2-11.7c1.6-2-0.5-3.7,1.5-5.9c1.9-2.1,2.9-3.2,3-5.5c0.1-2.3,0.1-3.6,2.6-5
	c2.5-1.5,4.2-1.3,5.9-0.6c1.7,0.7,2.9,1.7,6.8,2.1c3.9,0.5,3.6,5,2.1,6.8c-1.5,1.8-1,3.6-2.1,5.9c-1,2.3-5.8,2.9-7,5.2
	c-1.2,2.3-0.6,4.2,0.9,6.9c1.5,2.6,5.5,7.5,7,11.1c1.5,3.6,0.3,9.8-1.5,11.6c-1.9,1.8-1.7,2.5-0.9,5.6c0.9,3.1-4.9,7.8-7.4,9.4
	c-2.5,1.6-1.3,2.1-0.6,4.1c0.7,2-1.9,5.5-0.3,4.7c2.2-1,5.1-3.9,7.5-5.6c2.4-1.7,3.9-2.9,6.7-3.1c2.7-0.2,6.4-2.6,9.9-4.3
	c3.5-1.7,5.4-4.7,5.7-7.4c0.3-2.7,1.3-2.5,3.9-2.4c2.6,0.1,3.5-1.4,5.7-3.1c2.2-1.7,0.2-2.4-1.2-2.2c-1.3,0.1-2-0.2-1.5-1.2
	c0.5-1,2.1-2.6,1.9-3.6c-0.2-1.3-3-2.1-5.6-2.8c-2.6-0.7-2.2-3.6-1.1-5.7c1-2.1,4.1-4.6,6.6-5.9c1.4-0.7,3-0.6,4.6-0.1
	c0.1-0.4,0.2-0.7,0.5-1.1C104,70.6,105.4,70.2,106.1,69.3z"/>
</svg>
