<?xml version="1.0" encoding="utf-8"?>
<!-- Generator: Adobe Illustrator 28.0.0, SVG Export Plug-In . SVG Version: 6.00 Build 0)  -->
<svg version="1.1" id="_レイヤー_2" xmlns="http://www.w3.org/2000/svg" xmlns:xlink="http://www.w3.org/1999/xlink" x="0px"
	 y="0px" viewBox="0 0 120 120" style="enable-background:new 0 0 120 120;" xml:space="preserve">
<style type="text/css">
	.st0{fill:#E6E6E6;}
</style>
<path class="st0" d="M119.9,61.2c0-2.4-1.3-3.4-1.9-5.5c-0.7-2.4-0.6-4.6-0.3-6.9c-2.8-1.9-6.2-3-9.3-3.6c-1.7-0.3-4.8-1.4-6.2,0
	c-1.4,1.4-0.7,4-3,2.1c-1.5-1.1-2.8-2-4.9-1.9c-1.6,0-4.3-0.1-5.9,0.5c-1.1,0.4-1.3,0.9-1.9,1.8c-0.3,0.4-0.8,2-1.3,2.2
	c-0.6,0.3-0.6-0.5-1-0.5c-1.7,0.4-3.3,1-5,1.7c-0.9,0.4-2.7,1.2-3.6,0.5c-0.8-0.6-0.4-1.6-0.5-2.4c-0.3-3-1.6-3.1-3.8-1.5
	c-1.7,1.3-3.3,1-5.3,1.6c-1.8,0.6-3.3,1.6-5.2,1.9c-2.4,0.3-4.5,0.2-5.8-1.7c-0.6-0.9-1-1.8-2-2.2c-1-0.3-2,0.4-2.8-0.3
	c-0.3-0.2-0.2-1.1-0.5-1.3c-0.4-0.4-0.8-0.4-1.3-0.6c-1.1-0.6-1.4-0.6-2.1-1.8c-1.5-2.5-1.7-3-5.1-3c-2.3,0-4.6-0.1-6.8-0.3
	c-1.1-0.1-2.2,0.2-3.3,0c-1.5-0.3-1.4-1.1-2.6-1.8c-1.2-0.8-3.7-1.9-5.2-2.2c-1-0.2-2.3,0-3.3-0.3c-0.8-0.3-1.7-0.8-2.7-1.2
	c-2-0.7-3.1-2.3-5.3-2.4c-2.4-0.1-4.8,0.4-6.8,1.5c-1.4,0.8-3.5,2.1-4.5,3.5C0.2,38,0,39.1,0,40.3c0.5-0.4,0.9-0.6,2.1,0.4
	c1,0.8,1.8,3.5,2.4,4.6c1.8,3,2.3,6.1,3.7,9c4,8.2,13.5,7.3,19.6,12.7c2,1.8,1.9,1.2,4.4,2c2.3,0.8,2.1,2.4,3.4,3.7
	c2.5,2.5,6.7,1.7,10.1,2.2c3.2,0.4,8.1,1,10.9,2.7c3,1.8,4.5,6.3,6.9,8.8c3.7,3.9,3.2,0.4,4.1-2.8c0.4-1.5,1-2.7,1.2-4.2
	c0.2-1.8-1.3-3.4-1.4-4.5c-0.1-0.1-0.2-0.2-0.3-0.4c1.1-3.3,8.8-4.7,11.3-3.9c4.3,1.4,7,5.4,10.4,8.2c3.7,3.1,6.3,4.7,11.2,5.5
	c2.7,0.4,5.4,1,8.1,1.3c0.3-0.9-1.6-1.9-2.6-2.6c-1.6-1.2-1.2-3.4-1-5.3c0.2-1.7,0.4-0.9,1.7-1.4c0.8-0.3,1.6-1.4,1.8-2.1
	c0.3-1.7-0.9-3.3,1.5-4c2.2-0.6,4.3,0,6,1.3c0.2,0.1,0.5,0.2,0.7,0.3c-0.2-2.2-0.1-4.3,0.3-5.2c0.5-1,3-1.4,3.4-2.1
	C120.2,63.5,119.9,61.9,119.9,61.2z"/>
</svg>
