<?xml version="1.0" encoding="utf-8"?>
<!-- Generator: Adobe Illustrator 28.0.0, SVG Export Plug-In . SVG Version: 6.00 Build 0)  -->
<svg version="1.1" id="_レイヤー_2" xmlns="http://www.w3.org/2000/svg" xmlns:xlink="http://www.w3.org/1999/xlink" x="0px"
	 y="0px" viewBox="0 0 120 120" style="enable-background:new 0 0 120 120;" xml:space="preserve">
<style type="text/css">
	.st0{fill:#E6E6E6;}
</style>
<path class="st0" d="M113.5,88.4c-2.7-0.6-6.2-0.9-8.8-1.8c0.1,0.5-0.3,1.1-0.2,1.4c-2.2,0-4.1,0.4-5.9-1.1c-1.9-1.6-2.2-4-3.3-6
	c-1-1.8-4-2.4-4.6-4.1c-0.7-1.9,1.5-3.9,2.1-5.4c0.1,0.3,0.2,0.6,0.3,0.8c1.3-2.4,2.8-5.4,3.4-7.8c0.6-2.1-0.1-5.8,2.1-7
	c0-2.8,3.6-2.1,2.6-5.6C97.6,51,89.2,52,87.4,48c-0.6-1.3-0.1-5.6,0.5-6.8c1.4-2.9,3.7-1.7,2.6-5.5c-0.2-0.9-0.8-2.3-0.8-3.2
	c0.1-1.6,1.1-1.8,2.1-3c2.6-3.1,0.8-3.2-1.2-5.3c-2.1-2.2,0-4.1,1.9-5.9c0.8-0.8,1.2-1.4,1.3-2c-2.7,0.2-6.2-2-8.5-2.5
	c-2.4-0.6-5.4-0.1-7.6-1.1c-2.6-1.2-1.9-2.5-2.8-4.5c-0.7-1.6-7.7-8.3-9.5-8c-0.2,2.7-1.5,5-3.6,6.9C59.5,9,56.6,6.7,54,8
	c-3.2,1.7,0.4,4.6,0.7,6.9c0.5,3.8-2.2,2.9-5,3.2c-0.1,2.9,0.6,7.3-3,8.3c-3.9,1.1-4.7-1-5.8,3.3c-0.5,1.9-2.2,4.3-4.4,4.7
	c-1.2,0.3-2.2-0.4-3.3-0.4c-1.5,0-1.7,1.1-2.8,1.3c-0.3,0.1-0.7,0.1-0.9,0.1c-1.8,1.7-6.8,2-8.6,2.2c-0.6,3.1-4.5,1.4-6.8,1.9
	c-1.4,0.3-2,0.1-2.4,1.7c-0.4,1.6,1.5,2.5,1.2,3.8c-0.5,2.2-5.1,0.9-6.4,3c-0.7,1.1-0.5,2.1-1.4,3.2c-0.8,1-2.7,1.7-2.9,3.2
	c-0.1,1.2,0.8,2,0.7,3.2c-0.1,1-1,2.4-1.4,3.4c-1,2.2-1.7,4.8-1.2,7.3c0.7,3.4,3.6,1.9,5.9,3.4c1.3,0.9,1.5,2.1,3.1,2
	c0.2,0,0.8-1.1,1.3-1.1c0.7-0.1,1.3,0.1,2,0.2c2,0.1,1.3,0.5,3-0.8c1.3-1,0.3-1.1,2.4-1.4c3-0.3,5.3,0.7,5.7,3.6
	c0.3,2.1,0.1,4.6,0.2,6.7c0,0.9,0.3,3.1-0.2,3.9c-0.9,1.4-1.7,0.6-2.9,1.1c-1.5,0.7-1.2,0.1-1.4,1.8c-0.2,1.1,0.4,2.4,0.8,3.4
	c0.7,2.1,2.5,4.7,1.8,7.1c-0.5,1.8-0.2,0.9-1.9,1.6c-1.1,0.4-2.5-0.3-2.1,1.6c0.3,1.6,2.3,1.1,3.3,2c0.9,0.8,0.7,2.4,1.7,2.9
	c-2.6,0.9-0.3,5,0.2,6.3c0.3,0.9,0,2.4,0.5,3.1c0.4,0.5,2.6,1.7,3.3,2.6c0.5,0.6,1,1.1,1.5,1.6c0.5-0.2,1-0.4,1.4-0.7
	c1.5-0.9,1.8-1.7,2.6-3.2c1.4-2.7,2.2-2.3,5.4-2.3c1.5,0,2.2,0.1,3.3-0.7c1.1-0.8,1.3-2.7,2.3-3.4c2.2-1.6,5.7-0.6,7.9-2.5
	c1.3-1.1,1.7-2,3.3-2.7c1.4-0.7,2.9-1.1,4.3-1.8c3.3-1.7,2.4-3.2,3.3-6.4c0.9-3,3.4-4.9,5.7-7.1c1.4-1.3,1.4-2,3.3-1.9
	c1.3,0.1,3,1.1,4.3,1.6c2.7,1.1,4.8,1.9,7.8,1.9c1.3,0,2.7,0.3,3.9,0.3c1.4,0,2.3-0.5,3.7-0.3c1.2,0.1,2.5,1.2,3.3,1.9
	c1.3,1.1,2.2,1.4,3.5,2.2c2.7,1.7,4.2,3,7.8,2.3c3.4-0.6,3.9-3,7.5-1.7c2.9,1.1,4.3,0.4,6.9-0.2c-0.1-0.2-0.2-0.4-0.3-0.5
	C118.2,92,116.6,89.1,113.5,88.4z"/>
</svg>
