<?xml version="1.0" encoding="utf-8"?>
<!-- Generator: Adobe Illustrator 28.0.0, SVG Export Plug-In . SVG Version: 6.00 Build 0)  -->
<svg version="1.1" id="_レイヤー_2" xmlns="http://www.w3.org/2000/svg" xmlns:xlink="http://www.w3.org/1999/xlink" x="0px"
	 y="0px" viewBox="0 0 120 120" style="enable-background:new 0 0 120 120;" xml:space="preserve">
<style type="text/css">
	.st0{fill:#E6E6E6;}
</style>
<path class="st0" d="M90.1,67.1c1.4-3.6,4.5-5.9,8.1-7.9c1.3-0.7,3-1,4.3-1.9c1.4-0.9,2.6-2.6,3.6-3.9c1.8-2.3,2.8-4.1,5.3-5.9
	c1.9-1.4,4.4-2.3,5.9-4.1c1.8-2.2,1.9-3.6,2.1-6.2c0.1-2.2,1.1-5.1,0.4-7.2c-0.7-2.1-3.1-4.5-5.2-4.7c-1.8-0.2-4.3,0.4-5.8,1.3
	c-2.3,1.4-2.5,5.1-5.4,5.7c-2.6,0.6-3-2.4-4.9-3.5c-4.2-2.4-8.8-4.4-13.2-6.8c-1.2-0.7-2-1.7-3.4-2.3c-1-0.4-2.2-0.4-3.3-0.6
	c-2.8-0.6-5.6-0.4-8.4,0c-5.3,0.6-10.7,0.3-16,0.8c-2.3,0.2-5.2,1.7-7.4,0.2c-1.1-0.7-1.4-1.8-2.5-2.6c-0.4-0.4-0.7-0.6-1-0.8
	c-0.6,1.6-0.3,3.8-1.2,6c-1.4,3.4-5,2.3-8.6,1c-2.4-0.9-3.8-5.3-3.5-9c0.3-3.7,0-5.1-2.3-7.1c-2.3-2-7.9-0.3-12.6,3.1
	c-4.7,3.4-0.6,5.4-2.9,8.2c-2.3,2.8-2.9,2-3.5,8.2c-0.6,6.2,4.1,1.7,7.6,6.8c3.5,5.1-8.2,5.4-12.3,4.2c-0.1,0-0.1,0-0.2,0
	c0.2,3.3-2.9,9.5-3.3,10.6c-0.9,2.7,0,6.1,1.8,8.3c1.9,2.2,4.3,2.2,5.4,5.3c0.9,2.5-0.4,4.1-0.3,6.6c0.2,3.3,3.1,3.2,5.7,4.5
	c3,1.5,5.9,1.7,9.2,2.2c2.7,0.4,4.7,0.8,6.3,3c1.9,2.8,2.5,4.4-0.8,6c-1.5,0.7-2.1,0.5-2,2.4c0.1,1.6,0.7,1.8,1.8,2.6
	c1.9,1.5,3.3,3.5,5.1,4.9c1.2,0.9,3.2,0.9,4.3,1.8c0.8,0.7,1.4,2.5,2.1,3.5c1.8,2.3,5,3.3,7.4,4.8c2.6,1.5,4.4,3.3,7.5,4.1
	c3.2,0.8,6.1,0.9,9.2,2.1c1.8,0.7,3.5,1.5,5.3,2.2c0.6-0.7,1.1-0.7,2.9-1.8c3.1-1.8-0.6-3.8-4.1-7c-3.5-3.2-4.7-8.1-7-12.3
	c-2.3-4.2-3.7-4.7-1.8-8.1c2-3.4,7.4-5.8,10.4-7.9c2.9-2.1,2.9-4.5,7.8-5.3c3.2-0.5,3.5,6.6,6.5,7.4c2.7,0.7,5.8,0,9.1,0.6
	c-0.2-1.6-1-2.3-1.9-3.8C88.7,72.6,89.1,69.7,90.1,67.1z"/>
</svg>
