<?xml version="1.0" encoding="utf-8"?>
<!-- Generator: Adobe Illustrator 28.0.0, SVG Export Plug-In . SVG Version: 6.00 Build 0)  -->
<svg version="1.1" id="_レイヤー_2" xmlns="http://www.w3.org/2000/svg" xmlns:xlink="http://www.w3.org/1999/xlink" x="0px"
	 y="0px" viewBox="0 0 120 120" style="enable-background:new 0 0 120 120;" xml:space="preserve">
<style type="text/css">
	.st0{fill:#E6E6E6;}
</style>
<path class="st0" d="M41.5,110.3c0.8-3-1-5.8-1.4-8.5c-0.2-1.1,0.3-3.4-0.1-4.2c-0.7-1.1-1.9-1.2-2.4-2.5c-0.3-0.8-1.4-3.2-0.8-4
	c1.3-1.7,3.3,1.9,4.1,2.4c2,1.3,2.3,0.4,3.4-1.2c0.9-1.3,2-2.5,3.3-3.3c1.9-1.2,1.4-2.1,1.4-4c0-1.9,1.2-2.3,2.8-2.9
	c2.8-1.1,7.6-1.3,6.8-5.4c-0.4-2.1-2.4-1.4-3.8-2.7c-1.4-1.3-1-3.4-2-4.9c-0.8-1.2-2.2-3.2-0.5-4.3c1.1-0.7,3.1-0.1,4.3,0.1
	c2.8,0.4,8.5,1.6,10.5-1.1c0.8-1,1.6-1.9,2.5-2.8c0.7-0.7,1.6-1.7,1.5-2.7c-0.1-1.1-1.1-1.5-1.4-2.6c-0.4-1.5,0.3-1.6,1.4-2.2
	c1.3-0.8,1.2-0.8,0.9-2.2c-0.6-2.3-0.4-2,1.7-2.7c1.3-0.5,1.4-1.5,1.9-2.7c0.5-1.4,1-1.6,2-2.6c1.6-1.6,1.5-6.1,4.1-7
	c1.9-0.6,3.1,1.3,4.3-0.7c0.8-1.3,0.7-3,3-2.6c0.8,0.2,1.2,0.6,2.1,0.7c1.1,0.1,1.6-0.3,2.4-0.9c1.9-1.2,2.5,0.1,4.4-0.4
	c0.8-0.2,1.2-0.7,2.1-0.9c0.9-0.1,1.9,0,2.8,0c2.4,0,2.6-0.1,4-1.9c1.1-1.4,2.3-1.4,4.1-1.4c1.9,0,3.7,0.1,5.5-0.3
	c0.7-0.2,1.4-0.4,2.1-0.6c0.3-0.7,0.6-1.5,0.6-2.4c-0.1-2.2-0.5-3.4,0.4-5.5c0.5-1.1,1.3-1.4,0.4-2.8c-0.6-1-1.9-1.3-2.8-1.7
	c-1.1-0.5-2.1-0.7-3.1-0.9c-1.1,0.7-2.7,1.6-4.5,3.5c-3.1,3.4-7.7,2.3-10.8,1.1c-3.1-1.1-11,1.3-15.5,3c-4.5,1.7-6.7,2.1-9.2,0.8
	c-2.6-1.3-5.9-10.2-7.1-11.6C65.3,9.5,63,5.5,62,5.5c-1,0-1.6,3.4-2.6,5.3c-1,1.9-9.6,5.5-10.4,6.6c-0.8,1.1-1.4,7.3-4.2,9.2
	c-2.8,1.9-2.6,7.8-2.2,12c0.4,4.2-4.8,8-8.1,9.5c-3.3,1.5-7.4,2.7-10.1,4.9c-2.6,2.1-4,7-10.7,9.3c-5.4,1.8-5,2.9-11.1,4.6
	c-6.1,1.7,0,3.4,5.1,1.1c5.1-2.3,6.1-3,10.4-2.1c4.3,1,3.9,0.9,2,3.2c-2,2.3-1.6,1.5-0.4,4.9c1.2,3.4,0.6,1.1-0.8,3.2
	c-1.4,2.1,2.4,1.5,5.7,1.1c3.3-0.4,4.1-0.8,3.7,0.4c-0.4,1.1-0.8,1.7-0.2,4.6c0.6,2.8,1.6,4-1.4,8c-3,4-1.4,6.1-1.4,9.7
	c0,3.6,4.5,8.7,7.1,11.8c1.8,2.1,3,1.5,5.6,1.5c0.1-0.1,0.2-0.2,0.3-0.4C39.5,112.8,41.1,111.8,41.5,110.3z"/>
</svg>
