<?xml version="1.0" encoding="utf-8"?>
<!-- Generator: Adobe Illustrator 28.0.0, SVG Export Plug-In . SVG Version: 6.00 Build 0)  -->
<svg version="1.1" id="_レイヤー_2" xmlns="http://www.w3.org/2000/svg" xmlns:xlink="http://www.w3.org/1999/xlink" x="0px"
	 y="0px" viewBox="0 0 120 120" style="enable-background:new 0 0 120 120;" xml:space="preserve">
<style type="text/css">
	.st0{fill:#E6E6E6;}
</style>
<path class="st0" d="M117.9,63.9c-3.2-0.3-4.6-4.2-2.3-6.4c2.3-2.2,6.1-2.5,3.2-4.2c-2.9-1.7-3.2-4.7-5.2-7.3
	c-2-2.5-4.3-0.3-7.2-0.8c-2.9-0.6-0.3-15.6,1.4-20.7c1.7-5,2-5.9-0.9-7.8c-2.9-2-6.4-2.5-10.7-2c-3.3,0.4-5.9,1.8-8.3,0.9
	c-0.3,1.3-0.3,2.9-1.3,4.5c-2.1,3.5-4.6,0.2-7.5-0.3c-5.2-1-12.9-0.4-18.1,0.3c-3.3,0.5-5.6,0.4-7,3.3c-1.6,3.3-2.6,4.5-6.6,5
	c-1.8,0.3-2.9,0.1-4.6,1.1c-1.4,0.8-2.2,3-3.6,3.6c-1.1,0.5-3.5,0.1-4.5-0.2c-2-0.6-1.6-1.2-3-2.5c-1.9-1.7-5.1-1.9-8-1.1
	c-2.6,0.7-6.4,1.2-7.3,4.1c-3.7-0.3-8,1.9-9.5,4.7c-1.1,2.2-1.3,2.3-3.5,3.4c-0.3,0.2-0.7,0.4-1,0.7c0.1,0.1,0.1,0.1,0.2,0.2
	c1.3,2.1,0.2,2.5-0.6,4.2c-1.4,3-0.7,4.9-0.6,8.1c0.1,3.4-2.9,5,0,7.8c2.6,2.5,5.5,1.5,8.8,2c2.1,0.4,3.3,1.6,5.5,1.7
	c2.3,0,2.6-1.3,4.8-0.1c1.4,0.8,1.8,2.6,3,3.4c1.1,0.7,3.4,0.8,4.7,0.9c5.3,0.5,2.5-3.1,5.8-4.5c2.1-0.9,7.8,1.5,8.6,3
	c0.5,0.9-0.1,2.9,0.3,3.9c0.5,1.6,1.7,2.6,2,4.3c0.6,3.1-1.3,5.4,1.8,7c2.6,1.3,6.3,0.1,9.1,1.5c1.6,0.8,2.5,1.5,2.7,3.3
	c0.3,2.5-0.7,1.8-2,3.2c-3.1,3.4-0.4,4.5,2,7.4c1.4,1.8,1.2,2.5,3.5,3.1c1.5,0.4,3.1,0,4.6,0.2c2,0.3,3.5,1.4,4.8,2.7
	c1.4-1.8,2.9-3.5,3.9-4.6c2.6-2.8,5.8-7.5,9.8-11.2c4.1-3.6,10.4-5.9,14.5-9.2c4.1-3.3,10.7-8.4,16.2-11.2
	C120.9,66.5,121.1,64.2,117.9,63.9z"/>
</svg>
