<?xml version="1.0" encoding="utf-8"?>
<!-- Generator: Adobe Illustrator 28.0.0, SVG Export Plug-In . SVG Version: 6.00 Build 0)  -->
<svg version="1.1" id="_レイヤー_2" xmlns="http://www.w3.org/2000/svg" xmlns:xlink="http://www.w3.org/1999/xlink" x="0px"
	 y="0px" viewBox="0 0 120 120" style="enable-background:new 0 0 120 120;" xml:space="preserve">
<style type="text/css">
	.st0{fill:#E6E6E6;}
</style>
<path class="st0" d="M120,35.2c-3.4-1.7-7.6-2.8-10.9-3c-2.3-0.1-5.5,0.5-7.8,1.2c-2.1,0.7-3.9,4.2-5.6,2c-0.9-1.1-0.4-2.2-1.5-3.3
	c-0.6-0.6-2.6-1.1-3-1.6c-0.9-1.4-0.1-1.7,0.2-3c0.1-0.5,0.2-1.2,0.3-1.9c-1.9,0.5-3.3,1.5-5.2,3.2c-1.4,1.2-3.7,3.5-5.6,3.3
	c-1-0.1-0.6-1-1.4-1.3c-0.6-0.2-1.7,0.1-2.3-0.3c-0.7-0.5-0.5-1.7-1.1-2c-0.6-0.3-1.2,0-1.8-0.2c-1.5-0.7-1.9-0.6-3.3-1.8
	c-2.3-1.9-5.2-3.5-8.5-1.4c-2.7,1.7-4.2,6.5-7.7,3.4c-1.3-1.1-1.5-2.5-3.2-3.4c-1.1-0.5-3.3-1-4.5-1.3c-3.7-0.9-5.7,0-6-4.4
	c-0.2-3.6-1.5-4.7-4.5-6.9c-1.3-0.9-2.6-1-3.7-1.8c-0.8-0.5,0.7-3.3-2.1-1.8c0.6,4.5-7,4.8-10.1,5.8C19.5,15.4,18.5,16,17,16
	c-1.5,0-2.7-1.1-3.7-1c-2.8,0.2-3.8,3.3-5,5.1c-1.4,2-2.3,4.1-3.7,6.2c-1.7,2.4-3,3.4-3.2,6.3c-0.1,2.1,0.2,4.2,0,6.3
	c-0.2,1.4-0.8,2.5-1.4,3.5c0.2,0,0.3,0,0.5,0.1c2.2,0.7,1.8,1.8,3.5,3.1c1.4,1.1,2.2,0.5,3.3,2c1,1.3,0.8,3.1,1.2,4.5
	c0.3,1,0.9,2.6,1.1,4.1c0.8,0.1,1.5,0.4,2.7,1.1c2.3,1.3,1.4,1.2,2.8-0.5c1.4-1.7,2-0.9,4.6,0.2c2.6,1.1-1.8,4.8-2.9,6.9
	c-1.1,2,0.2,4-0.1,7.6c-0.3,3.6,1.2,3.1,3.5,5.4c2.3,2.3,1,6.6-0.1,8.9c-2.5,5.1,1.3,6.3,4.3,8.5c3,2.2,6.2,3.6,7.7,1.7
	c1.5-1.9-1.6-4.1-3.9-6.3c-2.2-2.2-1.3-5.7-1.1-7.9c0.2-2.2,0.5-6.2,2.8-5.9c2.4,0.3,0.3,4.3,1.1,5.7c0.8,1.5,3,0.9,4.8,2.2
	c1.8,1.3,0.7,4.1,4,3.4c3.3-0.7,7.9-0.1,11.2,0.1c3.3,0.2,3.5-1.9,6.7-3.2c3.2-1.3,7.1-0.9,9.8,2.5c2.7,3.4-0.9,7.1-3.2,9
	c-2.3,1.9-8.6,4.8-11.2,6.3c-2.6,1.5-4.9,2.2-6.7,1.7c-1.8-0.4-2.3-2-4-1.1c-1.7,0.9-2.2,3.1-3.8,5.9c-1.6,2.8-0.6,3.6,2.1,2.7
	c2.7-0.9,0.9-0.5,6.9-0.8c6.1-0.3,10.3-2.2,15.4-4.4c5.1-2.3,14.8-5.2,21.3-5.8c0.4,0,0.9-0.1,1.3-0.1c-0.2-2-0.7-4.1-0.7-6.2
	c0-2.7,0-5.2,0.6-7.7c0.7-2.8,1.5-5.4,4.7-6.7c2.5-1,5.4-0.8,7.6-2.5c1.7-1.4,1.9-3,2.9-4.8c0.7-1.4,2.1-2.2,2.7-3.6
	c0.6-1.2-0.5-2.2,0.7-3.3c1.2-1.1,2.7,0.2,3.7-1.8c0.6-1.2,0-4,0-5.2c0.1-2.5,0.3-2.4,2.2-3.7c1.4-1,3.1-1.6,4.2-3.1
	c1.1-1.4,0.9-3.5,2.1-4.9c1.4-1.8,2.6-1.4,3.2-4c0.4-1.8-0.1-3.8,0.2-5.7C119.8,36.1,119.9,35.6,120,35.2z"/>
</svg>
