<?xml version="1.0" encoding="utf-8"?>
<!-- Generator: Adobe Illustrator 28.0.0, SVG Export Plug-In . SVG Version: 6.00 Build 0)  -->
<svg version="1.1" id="_レイヤー_2" xmlns="http://www.w3.org/2000/svg" xmlns:xlink="http://www.w3.org/1999/xlink" x="0px"
	 y="0px" viewBox="0 0 120 120" style="enable-background:new 0 0 120 120;" xml:space="preserve">
<style type="text/css">
	.st0{fill:#E6E6E6;}
</style>
<path class="st0" d="M116.8,17.5c-2.9,0.4-4,3.7-6.5,4.4c-2.3,0.7-5.3-0.1-7.7,0.4c-2.1,0.4-2.8,0.5-4.1,1.9c-1.1,1.1-1,1.2-2.5,1.4
	c-3.9,0.6-2.4-1.2-3-3.7c-0.3-1.1-1.1-1.9-1.4-3c-0.2-1,0.1-2.2,0-3.2c-0.8-6.4-9.8-6-14.7-6.2c-0.1-1,1-3.9,0.5-4.6
	c-1-1.3-4.8-0.1-5.9,0.4C69,6.6,69.7,9,67.3,10.1c-2.3,1.1-4.5-0.2-5.8,2.4c-0.9,1.8-1.8,4.7-4.6,2.5c-0.9-0.7-1-2-1.6-2.9
	c-0.6-0.8-1.8-2.1-2.6-2.7C49.1,6.5,42,6.2,37.3,6c-2.1-0.1-5.3,0.7-6.1,2.9c-0.7,1.8,0.4,4.3-0.4,6.1c-0.5,1.1-1.6,2-2.8,2.3
	c-0.9,0.3-2.8-0.2-3.4,0.9c-0.6,1.1,1.1,1.9,1.2,2.9c0.2,1.5-0.6,1.4-1.4,2.4c-1.1,1.3-0.8,1.5-2.6,1.7c-1.2,0.2-2.6,0-3.8,0
	c-2.8-0.1-5.4-0.8-4.8,2.5c0.3,1.6,2.2,4.3-0.2,5.4c-1,0.4-2.5-0.4-3.5,0.1c-1.5,0.7-1.2,1.5-3.3,1.7c-3.7,0.2-4,0.8-5.1,3.8
	C0.9,39.4,0.5,40.2,0,41c0.2,0.2,0.5,0.4,0.7,0.6c1.9,2,3.7,5.1,3.2,7.9c-0.5,2.7-1.9,4.4-1.9,7.4c0,3.6,1.3,4.5,3.1,7.4
	c0.7,1.2,1.1,2.5,1.9,3.6c1,1.3,2.6,2.4,3.4,3.8c2.2,3.9-1.6,8.2,0.7,12.5c1.2,2.2,2.1,3.2,2.1,5.9c0,2-1.3,4-0.5,5.9
	c0.9,2.1,3.6,3.8,4.8,5.8c1.4,2.3,2.4,3.5,2.5,6.2c0.1,2.2-0.2,3.8-0.9,5.7c0,0,0,0.1,0,0.1c1.2,0.5,2.4,1.3,3.2,1.6
	c3.3,1.3,2.3-1.6,4.4-2.7c0.8-0.5,1.9-0.2,2.8-0.4c1.4-0.2,2.6-0.7,3.7-1.6c3.9-3.3,4.6-2.1,8.7-3.6c4.2-1.5,7.1,3,9.3,5.9
	c2.2,3,3.5,1.7,4.8-0.3c1.3-2,4.9-0.3,8.3,1.4c3.5,1.7,5.7,0,8.8-2c3.2-2,2.6-5,2.3-7.4c-0.3-2.4,2.1-3.4,4.3-5.7
	c2.8-2.9,7-2,9.4-2.8c2.4-0.8,4.6-1.2,5.7-4.9c1.1-3.6,2.6-3.9,6.8-4.6c3.8-0.6,4.6-1.8,7.1-2.6c-0.3-0.7-0.4-1.4-0.4-2.3
	c0-1.9,0.8-3.4,1.1-5.1c0.2-1.4,0.3-3.8-0.2-5.1c-1-2.5-2.5-1.8-4.6-2.7c-4.7-1.8-0.3-5.9,0-8.9c0.1-0.9,0.2-2.2-0.2-3
	c-0.5-0.9-2.2-1-2.4-1.8c-0.3-1.3,1-3,1.3-4.2c0.4-1.7,0-3.5,0.5-5.2c0.8-2.6,2.8-2,4-3.9c1.1-1.6-0.3-3.8,1.3-5.3
	c1.9-1.7,3-0.5,3.7-3.6c0.2-0.8,0.1-1.9,0.5-2.5c1-1.6,1-0.6,2.5-1.5c1.3-0.7,2,0,2-1.8c0-1.8-1.5-1.3-2.1-2.4
	c-1.6-2.6,0.1-5.5,2.9-6.1c0.5-0.1,1-0.1,1.5,0C119.1,18,118.2,17.3,116.8,17.5z"/>
</svg>
