<?xml version="1.0" encoding="UTF-8"?>
<svg id="_レイヤー_2" data-name="レイヤー 2" xmlns="http://www.w3.org/2000/svg" viewBox="0 0 161.42 161.42">
  <defs>
    <style>
      .cls-1 {
        fill: #2965af;
      }

      .cls-2 {
        fill: #fff;
        stroke: #2965af;
        stroke-miterlimit: 10;
        stroke-width: 1.42px;
      }
    </style>
  </defs>
  <g id="pc">
    <circle class="cls-2" cx="80.71" cy="80.71" r="80"/>
    <g>
      <path class="cls-1" d="m104.58,70.88h-23.22v-2.89c0-.9-.8-1.69-1.69-1.69h-2.09v-2.39h-11.55v2.29h-2.19c-.9,0-1.69.8-1.69,1.69v2.89h-5.08v15.83h37.56l9.96-15.73Z"/>
      <path class="cls-1" d="m32.36,93.79v.5c0,.9.8,1.69,1.69,1.69h12.35v-.1c.9,0,1.69-.8,1.69-1.69v-.5c0-3.39,2.39-6.27,5.68-6.87v-15.83c-11.95.7-21.41,10.66-21.41,22.8Z"/>
      <path class="cls-1" d="m131.35,53.19c-4.62-2.77-10.62-1.27-13.28,3.46l-23.9,43.52c-6.23-.69-12.58,2.19-16.16,7.85-3.23,5.19-3.23,11.54-.58,16.51.46.92,1.73.92,2.19.12l4.85-7.97c1.73-2.77,5.19-4.27,8.31-3,3.93,1.62,5.31,6.23,3.23,9.58l-5.08,8.31c-.46.81.12,1.85,1.15,1.96,5.89.12,11.66-3,14.78-8.54,3.12-5.54,2.66-12.24-.58-17.43l27.82-40.98c3.12-4.5,1.85-10.51-2.77-13.39Z"/>
      <path class="cls-1" d="m69.12,57.08c-.93,1.46-.5,3.39.96,4.31,1.46.93,3.39.5,4.31-.96.65-1.02.65-2.33,0-3.35l-2.64-4.14-2.64,4.14Z"/>
      <path class="cls-1" d="m66.64,61.82c-1.18-1.93-1.15-4.37.07-6.27l3.84-6.04c.42-.66,1.3-.86,1.97-.44.18.11.32.26.44.44l3.84,6.04c1.22,1.91,1.25,4.34.07,6.27,4.12-2.77,5.28-8.32,2.61-12.51l-7.73-12.14-7.72,12.14c-2.3,3.62-1.78,8.36,1.25,11.39.42.41.87.79,1.36,1.12Z"/>
    </g>
  </g>
</svg>