<?xml version="1.0" encoding="UTF-8"?>
<svg xmlns="http://www.w3.org/2000/svg" viewBox="0 0 189.74 189.74">
  <defs>
    <style>
      .cls-1 {
        isolation: isolate;
      }

      .cls-1, .cls-2 {
        fill: none;
      }

      .cls-3 {
        fill: #f9da33;
      }

      .cls-4 {
        fill: #1a1a1a;
      }

      .cls-5 {
        fill: #2965af;
      }

      .cls-6 {
        font-family: 'Noto Sans JP', sans-serif;
        font-size: 36px;
        font-weight: 700;
        letter-spacing: .08em;
      }

      .cls-2 {
        mix-blend-mode: multiply;
      }
    </style>
  </defs>
  <g class="cls-1">
    <g id="_レイヤー_2" data-name="レイヤー 2">
      <g id="pc">
        <circle class="cls-3" cx="94.87" cy="94.87" r="94.87"/>
        <g class="cls-2">
          <path class="cls-3" d="m173.21,108.17l-9.7,4.44-25.9-56.56,10.1-4.63c1.26-.58,1.81-2.07,1.24-3.33-.58-1.26-2.06-1.81-3.33-1.24l-12.38,5.67c-.6.28-1.08.78-1.31,1.41-.23.62-.21,1.31.07,1.92l3.34,7.29-7.61,2.93h-43.83c-.67,0-1.3.26-1.77.74l-1.91,1.91c-.14-.06-.27-.11-.42-.14l-24.49-5.53,2.43-5.32c.28-.61.3-1.3.07-1.92-.23-.62-.7-1.13-1.31-1.41l-12.38-5.67c-1.26-.58-2.75-.02-3.33,1.24-.58,1.26-.02,2.75,1.24,3.33l10.1,4.63-25.9,56.56-9.7-4.44c-1.26-.58-2.75-.02-3.33,1.24-.58,1.26-.02,2.75,1.24,3.33l11.98,5.49c.34.16.69.23,1.04.23.95,0,1.86-.54,2.28-1.47l2.07-4.53c.07.04.13.1.2.14,5.42,2.97,13.51,7.55,17.28,9.99-.75,1.63-1.01,3.27-.74,4.91.54,3.36,3.07,5.31,3.55,5.66,1.98,1.48,3.9,2.06,5.61,2.06.37,0,.73-.03,1.08-.08,0,.02,0,.05,0,.07.54,3.36,3.07,5.31,3.55,5.66,1.98,1.48,3.9,2.06,5.61,2.06.37,0,.73-.03,1.08-.08,0,.02,0,.05,0,.07.54,3.36,3.07,5.31,3.55,5.66,1.98,1.48,3.9,2.06,5.61,2.06.37,0,.73-.03,1.08-.08,0,.02,0,.05,0,.07.54,3.36,3.07,5.31,3.55,5.66,1.98,1.48,3.9,2.06,5.61,2.06,2.74,0,4.96-1.47,6.12-3.02l1.75-2.32,1.95,2.37c1.18,1.53,3.4,2.98,6.11,2.98,1.7,0,3.59-.57,5.53-2.03.3-.21,2.94-2.13,3.56-5.54.4.07.83.12,1.28.12,1.6,0,3.5-.51,5.58-2.07.48-.35,3.01-2.3,3.55-5.66,0-.01,0-.02,0-.03.44.08.89.14,1.37.14,1.71,0,3.62-.57,5.61-2.06.48-.35,2.98-2.28,3.54-5.61.47.09.96.16,1.47.16,1.7,0,3.59-.57,5.53-2.03.31-.21,3.04-2.19,3.6-5.7.38-2.35-.29-4.72-2.01-7.04l-1.67-2.72c2.44-1.46,9.51-5.22,16.16-8.64l2.5,5.47c.28.6.78,1.08,1.41,1.31.28.1.58.16.87.16.36,0,.71-.08,1.05-.23l11.98-5.49c1.26-.58,1.81-2.07,1.24-3.33-.58-1.26-2.06-1.81-3.33-1.24Zm-113.36,22.85c-.54.66-2.08,1.99-4.76-.02,0,0-.05-.03-.06-.04-.01,0-1.32-.97-1.53-2.42-.15-.98.24-2.08,1.14-3.28l7.4-9.83c.66-.74,2.37-2.15,4.73-.37.98.74,2.16,1.85,2.19,2.93.02.59-.29,1.3-.93,2.15l-8.19,10.88Zm10.24,7.71c-.54.66-2.08,1.99-4.76-.02,0,0-.05-.03-.06-.04-.01,0-1.32-.97-1.53-2.42-.15-.98.24-2.08,1.14-3.28l7.4-9.83c.66-.74,2.37-2.15,4.73-.37.98.74,2.16,1.85,2.19,2.93.02.59-.29,1.3-.93,2.15l-8.19,10.88Zm10.22,7.74c-.28.37-1.83,2.13-4.73-.05,0,0-.05-.03-.06-.04-.01,0-1.32-.97-1.53-2.42-.15-.98.24-2.08,1.14-3.28l7.41-9.85c.4-.47,2.19-2.26,4.72-.35.98.74,2.16,1.84,2.19,2.93.02.59-.29,1.3-.93,2.15l-8.21,10.91Zm10.27,7.68c-.54.66-2.08,1.99-4.76-.02,0,0-.05-.03-.06-.04-.01,0-1.32-.97-1.53-2.42-.15-.98.24-2.08,1.14-3.28l7.41-9.85c.4-.47,2.19-2.26,4.72-.35.98.74,2.16,1.85,2.19,2.93.02.59-.29,1.3-.93,2.15l-8.19,10.88Zm49.47-25.07c-.22,1.45-1.52,2.41-1.59,2.46-2.67,2.01-4.21.69-4.75.03-.28-.37-.65-.62-1.05-.78-.12-.17-.23-.35-.36-.52l-4.7-6.01c-.85-1.09-2.43-1.29-3.52-.43-1.09.85-1.29,2.43-.43,3.52l4.67,5.97c.9,1.2,1.29,2.3,1.14,3.28-.21,1.44-1.51,2.4-1.51,2.4,0,0,0,0,0,0-.03.02-.05.04-.08.06-2.67,2.01-4.21.69-4.75.03-.28-.36-.64-.62-1.04-.78-.08-.12-.16-.24-.25-.36l-3.75-5.2c-.81-1.13-2.38-1.38-3.5-.57-1.12.81-1.38,2.38-.57,3.5l3.78,5.24c.9,1.2,1.29,2.3,1.14,3.28-.21,1.44-1.51,2.4-1.51,2.4h0s-.05.04-.08.06c-2.67,2.01-4.21.69-4.75.03-.18-.23-.39-.41-.61-.55-.17-.26-.35-.52-.54-.78-.83-1.11-2.41-1.33-3.51-.5-1.11.83-1.33,2.41-.5,3.52.9,1.2,1.29,2.3,1.14,3.28-.22,1.45-1.52,2.41-1.59,2.46-2.68,2.02-4.22.69-4.73.05-.02-.03-.05-.06-.07-.09l-2.75-3.34,3.36-4.47c1.36-1.81,2-3.56,1.94-5.34-.08-2.47-1.49-4.75-4.19-6.78-2.13-1.6-4.26-2.03-6.14-1.8-.35-2.13-1.72-4.12-4.1-5.91-2.13-1.6-4.26-2.03-6.14-1.8-.35-2.13-1.72-4.12-4.1-5.91-2.13-1.6-4.26-2.03-6.14-1.8-.35-2.13-1.72-4.12-4.1-5.91-4.82-3.62-9.6-1.27-11.64,1.2-.02.03-.05.06-.07.09l-5.99,7.96c-5.18-3.36-16.21-9.43-17.66-10.23-.18-.1-.37-.17-.56-.22l19.3-42.15c.05.02.11.04.16.05l22.72,5.13-14.67,14.67c-.85.85-.98,2.19-.3,3.18.15.22,3.67,5.32,9.92,6.34.73.12,1.46.18,2.19.18,3.57,0,7.2-1.4,10.83-4.17,5.25-4.02,8.48-6.41,10.45-7.83l32.66,21.38s.03.01.04.02l2.41,4.02,9.2,14.93c.04.07.09.13.13.19.9,1.2,1.29,2.3,1.14,3.28Zm-1.35-13.17l-4.83-7.84-2.79-4.65c-.32-.53-.8-.89-1.35-1.07l-31.23-20.44c.23-.64.21-1.37-.14-2.02-.65-1.23-2.17-1.69-3.39-1.04-.1.05-.4.23-1.12.72-.71.08-1.39.46-1.81,1.11-.06.09-.09.18-.14.26-2.05,1.47-5.41,3.95-10.93,8.18-3.22,2.46-6.29,3.48-9.12,3.03-2.31-.36-4.11-1.64-5.24-2.69l18.33-18.33h43.25c.31,0,.61-.06.9-.17l8.34-3.21,17.96,39.22c-10.08,5.18-14.6,7.67-16.69,8.96Z"/>
        </g>
        <text class="cls-6" textLength="160" text-anchor="middle"><tspan class="cls-5"><tspan x="95" y="85">移住</tspan></tspan><tspan class="cls-4"><tspan x="95" y="130">支援</tspan></tspan></text>
      </g>
    </g>
  </g>
</svg>