<?xml version="1.0" encoding="UTF-8"?>
<svg id="_レイヤー_2" data-name="レイヤー 2" xmlns="http://www.w3.org/2000/svg" xmlns:xlink="http://www.w3.org/1999/xlink" viewBox="0 0 100 100">
  <defs>
    <style>
      .cls-1, .cls-2 {
        fill: none;
      }

      .cls-3 {
        fill: #fff;
      }

      .cls-4 {
        fill: #ee9793;
      }

      .cls-5 {
        fill: #99b2ef;
      }

      .cls-6 {
        fill: #923b33;
      }

      .cls-7 {
        fill: #d6615a;
      }

      .cls-8 {
        fill: #dd8d8a;
      }

      .cls-9 {
        fill: #0a0750;
      }

      .cls-2 {
        clip-path: url(#clippath);
      }
    </style>
    <clipPath id="clippath">
      <circle class="cls-1" cx="50" cy="50" r="50"/>
    </clipPath>
  </defs>
  <g id="m">
    <g>
      <circle class="cls-3" cx="50" cy="50" r="50"/>
      <g class="cls-2">
        <g>
          <path class="cls-4" d="m77.66,87.4c-2.35,1.7-23.65,12.82-23.65,12.82l-22.46-16.01s6.82-.99,7-1.05c2.03-.57,1.93-6,2.19-11.79.04-.89.09-1.79.15-2.68l21.99-.8.02.27c.02.28.04.57.06.87l.04.63c.01.22.03.43.05.66.4,5.09,1.25,12.27,2.87,13.11.92.48,7.18.4,11.73,3.97Z"/>
          <path class="cls-6" d="m34.35,58.52s-3.36-6.96-5.43-15.05c-1.48-5.78-.13-27.73,21.94-26.24,0,0,6.39.15,12.65,3.73,4.98,2.85,12.34,9.24,6.11,28.77l-1.51,6.55-33.76,2.24Z"/>
          <path class="cls-4" d="m65.21,67.74c-5.7,5.45-12.77,12.7-28.02-.72-2.98-2.63-2.78-6.66-2.96-12.46-.21-6.86-1.86-11.06-1.09-15.02.91-4.73,4.96-6.87,13.36-7.6,15.42-1.34,23.21,2.14,22.18,9.79-2.31,17.08,2.33,20.47-3.46,26.01Z"/>
          <path class="cls-5" d="m105.96,106.92s-3.9,11.5-19.73,13.61c-.43.06-.87.11-1.32.15H20.46s-.12-.04-.34-.11c-2.5-.79-17.9-6.07-19.52-15.94,0,0,8.1-16.63,14.28-18.69,1.8-.6,4.3-1.06,6.92-1.39,2.68-.34,5.5-.57,7.87-.72,3.26-.2,5.65-.26,5.65-.26,0,0,5.02,10.18,17.24,10.03,12.22-.15,15.05-9.88,15.05-9.88,0,0,3.43.1,7.99.59,2.51.27,5.36.66,8.18,1.22,4.76.95,9.4,2.38,12.06,4.53,7.06,5.74,10.15,16.85,10.15,16.85Z"/>
          <path class="cls-9" d="m90.63,195.9c-.69-3.81-1.71-9.61-2.51-14.71,0-.07,2.39-28.8,3.27-33.65.88-4.86-5.12-31.28-5.12-31.28-1.39-4.04-3.76-5.28-5.58-5.28l3.05-25.44c-2.81-.56-5.66-.95-8.18-1.22l-1.46,26.66-.02.38c-3.34.19-7.51.41-11.39.58-3.88.18-7.47.3-9.69.3-4.5,0-14.82-.52-21.68-.89l-.03-.38-1.66-27.15c-2.37.15-5.19.38-7.87.72l2.91,26.42h0c-1.92,0-4.13,3.41-4.43,5.31l-.3,8.27c-1.45,4.16-4.46,13.41-4.96,19.89-.66,8.58,2.92,38.42,2.95,38.63-.13,3.56-.38,8.1-.87,12.5-2.69,7.3-14.18,41.23-13.01,86.86,1.09,42.6,1.73,115.38,6.75,150.72.82,5.74,1.75,10.48,2.81,13.96.54,1.75,2.05,3.02,3.87,3.27,5.76.8,18.73,2.27,24.31.24,2.68-.98,4.59-15.83,5.95-34.98,1.3-18.36,2.08-40.67,2.51-58.48,0,0,0,0,0,0,.35-14.2.48-25.53.48-29.72,0-9.49,2.24-37.34,2.98-53.72.02-.46.7-.47.73,0h0c1.13,19.45,5.05,48.94,5.12,55.49.15,15.89-.78,118,6.17,121.43,5.31,2.62,17.83.64,23.81-.17,2.16-.29,3.94-1.83,4.55-3.93,7.47-25.69,8.13-114.96,9.39-164.09,1.15-44.99-10-78.61-12.89-86.54Z"/>
          <path class="cls-7" d="m71.71,19.98s-1.7-2.3-4.73-4.89c-.48-.42-1-.83-1.55-1.25-5.59-4.25-14.53-8.4-25.31-3.91-2.92,1.22-5.35,2.87-7.37,4.79-.48.45-.93.92-1.36,1.4-9.35,10.37-8.56,26.64-8.56,26.64l53.95-.58c.18-15.06-5.06-22.21-5.06-22.21Z"/>
          <path class="cls-6" d="m34.13,113.76c-5.52,10.6-21.19,12.58-21.19,12.58,5.08-12.36-5.15-16.26-11.48-28.92-6.33-12.66,4.86-21.04,4.86-21.04-6.92,1.32-8.24,10.6-8.24,10.6-.59-6.18,4.56-16.63,20.9-18.69,11.96-1.51,14.85-5.54,15.54-7.59.27,2.66.91,4.75,2.7,6.32,1.26,1.11,2.47,2.08,3.62,2.92-.03.48-.05.96-.07,1.44-.07,1.63-.11,3.23-.19,4.7-2.14,2.55-2.07,5.26-1.71,6.96.22,1.06.56,1.73.56,1.73,1.71,2.38,2.58,4.72,2.83,7.06.76,7-4,13.99-8.13,21.93Z"/>
          <path class="cls-6" d="m68.56,43.83c4.78-.88,8.22-1.65,8.22-1.65l-7.98.09h0l-1.71.02h0s-5.46.06-5.46.06c-.15-2.27-1.18-20.88,5.36-27.25-.48-.42-.37-.35-.92-.76-6.97,7.32-7.42,25.65-7.39,28.04l-17.24.18c-.51-13.21-7.8-26.37-8.68-27.84-.48.45-.57.54-.99,1.02,1.26,2.23,6.03,14.96,6.48,26.85l-15.4.16s14.37,3.71,25.19,3.58c5.86-.07,13.79-1.28,19.84-2.38.42,1.3.32,2.42.32,2.42l.38-2.54Z"/>
          <path class="cls-8" d="m40.83,69.94c-.03.48-.06.96-.08,1.44,1.49,3.28,4.75,8.49,10.47,8.69,5.99.21,10.03-6.11,11.84-9.74-.01-.18-.03-.36-.04-.53-4.87,4.4-11.14,8.18-22.19.14Z"/>
        </g>
      </g>
    </g>
  </g>
</svg>