<?xml version="1.0" encoding="UTF-8"?>
<svg id="_レイヤー_2" data-name="レイヤー 2" xmlns="http://www.w3.org/2000/svg" viewBox="0 0 46.08 46.08">
  <defs>
    <style>
      .cls-1 {
        fill: #fff;
      }
    </style>
  </defs>
  <g id="m">
    <g>
      <path class="cls-1" d="m23.04,7.97c-.46,0-.83-.37-.83-.83v-3.4c0-.46.37-.83.83-.83s.83.37.83.83v3.4c0,.46-.37.83-.83.83Z"/>
      <path class="cls-1" d="m15.1,10.1c-.29,0-.56-.15-.72-.41l-1.7-2.94c-.23-.4-.09-.9.3-1.13.39-.23.9-.09,1.13.3l1.7,2.94c.23.4.09.9-.3,1.13-.13.08-.27.11-.41.11Z"/>
      <path class="cls-1" d="m9.28,15.92c-.14,0-.28-.04-.41-.11l-2.94-1.7c-.39-.23-.53-.73-.3-1.13.23-.39.73-.53,1.13-.3l2.94,1.7c.39.23.53.73.3,1.13-.15.27-.43.41-.72.41Z"/>
      <path class="cls-1" d="m7.15,23.87h-3.4c-.46,0-.83-.37-.83-.83s.37-.83.83-.83h3.4c.46,0,.83.37.83.83s-.37.83-.83.83Z"/>
      <path class="cls-1" d="m6.34,33.51c-.29,0-.56-.15-.72-.41-.23-.4-.09-.9.3-1.13l2.94-1.7c.39-.23.9-.09,1.13.3.23.39.09.9-.3,1.13l-2.94,1.7c-.13.08-.27.11-.41.11Z"/>
      <path class="cls-1" d="m13.4,40.57c-.14,0-.28-.04-.41-.11-.39-.23-.53-.73-.3-1.13l1.7-2.94c.23-.39.73-.53,1.13-.3.39.23.53.73.3,1.13l-1.7,2.94c-.15.26-.43.41-.72.41Z"/>
      <path class="cls-1" d="m23.04,43.16c-.46,0-.83-.37-.83-.83v-3.4c0-.46.37-.83.82-.83s.83.37.83.83v3.4c0,.46-.37.83-.82.83Z"/>
      <path class="cls-1" d="m32.69,40.57c-.29,0-.56-.15-.72-.41l-1.7-2.94c-.23-.4-.09-.9.3-1.13.39-.23.9-.09,1.13.3l1.7,2.94c.23.39.09.9-.3,1.13-.13.07-.27.11-.41.11Z"/>
      <path class="cls-1" d="m39.75,33.51c-.14,0-.28-.03-.41-.11l-2.94-1.7c-.39-.23-.53-.73-.3-1.13.23-.4.73-.53,1.13-.3l2.94,1.7c.39.23.53.73.3,1.13-.15.26-.43.41-.72.41Z"/>
      <path class="cls-1" d="m38.93,23.87c-.46,0-.83-.37-.83-.82s.37-.83.83-.83h3.4c.46,0,.83.37.83.82s-.37.83-.83.83h-3.4Z"/>
      <path class="cls-1" d="m36.8,15.92c-.29,0-.56-.15-.72-.41-.23-.39-.09-.9.3-1.13l2.94-1.7c.39-.23.9-.09,1.13.3.23.4.09.9-.3,1.13l-2.94,1.7c-.13.08-.27.11-.41.11Z"/>
      <path class="cls-1" d="m30.99,10.1c-.14,0-.28-.04-.41-.11-.4-.23-.53-.73-.3-1.13l1.7-2.94c.23-.4.73-.53,1.13-.3.39.23.53.73.3,1.13l-1.7,2.94c-.15.27-.43.41-.72.41Z"/>
      <path class="cls-1" d="m23.04,46.08C10.34,46.08,0,35.74,0,23.04S10.34,0,23.04,0s23.04,10.34,23.04,23.04-10.34,23.04-23.04,23.04Zm0-44.19C11.38,1.89,1.89,11.38,1.89,23.04s9.49,21.15,21.15,21.15,21.15-9.49,21.15-21.15S34.7,1.89,23.04,1.89Z"/>
      <path class="cls-1" d="m17.88,29.15c-.24,0-.48-.09-.67-.28-.37-.37-.37-.97,0-1.34l4.88-4.88v-10.85c0-.52.42-.95.95-.95s.95.42.95.95v11.24c0,.25-.1.49-.28.67l-5.16,5.16c-.18.18-.43.28-.67.28Z"/>
    </g>
  </g>
</svg>