<?xml version="1.0" encoding="UTF-8"?>
<svg id="_レイヤー_2" data-name="レイヤー 2" xmlns="http://www.w3.org/2000/svg" viewBox="0 0 121.42 121.42">
  <defs>
    <style>
      .cls-1 {
        fill: #2965af;
      }

      .cls-2 {
        fill: #fff;
        stroke: #2965af;
        stroke-miterlimit: 10;
        stroke-width: 1.42px;
      }
    </style>
  </defs>
  <g id="pc">
    <circle class="cls-2" cx="60.71" cy="60.71" r="60"/>
    <g>
      <path class="cls-1" d="m60.72,55.18h8.91l5.86-10.72h-14.76c-1.24-1.81-3.13-3.22-5.28-3.88v-3.79h3.22c1.48,0,2.64-1.15,2.64-2.64,0-1.4-1.15-2.64-2.64-2.64h-11.79c-1.48,0-2.64,1.24-2.64,2.64,0,1.48,1.24,2.64,2.64,2.64h3.22v3.79c-2.14.66-4.04,1.98-5.28,3.88h-1.57c-9.32,0-16.99,6.85-18.31,15.84h-1.9c-.82,0-1.48.66-1.48,1.48v2.39c0,.82.66,1.48,1.48,1.48h14.19c.82,0,1.48-.66,1.48-1.48v-2.39c0-.82-.66-1.48-1.48-1.48h-1.24c1.07-2.97,3.88-5.03,7.18-5.11h1.73c1.73,2.56,4.62,4.29,7.92,4.29s6.19-1.65,7.92-4.29Z"/>
      <path class="cls-1" d="m31.77,72.17c-.25-.49-.82-.82-1.4-.82s-1.15.33-1.4.82c0,0-3.13,6.1-3.88,7.51-.82,1.73-.82,3.55,0,5.28.99,1.98,2.97,3.22,5.2,3.22.91,0,1.81-.25,2.64-.66,1.4-.66,2.39-1.9,2.89-3.38.49-1.48.33-3.13-.33-4.45l-3.71-7.51Z"/>
      <path class="cls-1" d="m96.68,32.5c-3.3-1.98-7.59-.91-9.48,2.47l-17.07,31.09c-4.45-.49-8.99,1.57-11.55,5.61-2.31,3.71-2.31,8.25-.41,11.79.33.66,1.24.66,1.57.08l3.46-5.69c1.24-1.98,3.71-3.05,5.94-2.14,2.8,1.15,3.79,4.45,2.31,6.85l-3.63,5.94c-.33.58.08,1.32.82,1.4,4.21.08,8.33-2.14,10.56-6.1s1.9-8.74-.41-12.45l19.88-29.28c2.23-3.22,1.32-7.51-1.98-9.57Z"/>
    </g>
  </g>
</svg>