<?xml version="1.0" encoding="UTF-8"?>
<svg id="_レイヤー_2" data-name="レイヤー 2" xmlns="http://www.w3.org/2000/svg" viewBox="0 0 326.21 172.49">
  <defs>
    <style>
      .cls-1 {
        fill: #fff;
      }

      .cls-2 {
        fill: #009be0;
      }

      .cls-3 {
        fill: #54a3d9;
      }

      .cls-4 {
        fill: #2f6cb0;
      }

      .cls-5 {
        fill: #3963a9;
      }
    </style>
  </defs>
  <g id="pc">
    <g>
      <path class="cls-2" d="m129.64,69.7c-6.5-2.92-12.75-6.75-17.35-12.2-4.6-5.45-7.41-12.71-6.41-19.78s6.31-13.66,13.3-15.02l3.42-1.19c-8.23-1.67-16.95-2.15-24.91.55-7.96,2.7-15.04,9.03-16.94,17.23-1.8,7.75-.44,17.88,3.77,24.63,9.43,15.11,27.5,22.35,44.8,26.43,17.72,4.18,35.58-3.96,48.89-16.99-16.57,2.84-33.22,3.22-48.57-3.67Z"/>
      <path class="cls-5" d="m173.09,56.17c-3.24-3.42-6.51-6.88-9.82-10.24-21.79,20.88-45.81,35.56-80.08,15.55,15.81,34.63,74.56,42.39,102.31,7.53-4.21-4.17-8.32-8.52-12.41-12.84Z"/>
      <path class="cls-4" d="m196.57,21.92c6.5,2.92,12.75,6.75,17.35,12.2,4.6,5.45,7.41,12.71,6.41,19.78-1,7.07-6.31,13.66-13.3,15.02l-3.42,1.19c8.23,1.67,16.95,2.15,24.91-.55,7.96-2.7,15.04-9.03,16.94-17.23,1.8-7.75.44-17.88-3.77-24.63-9.43-15.11-27.5-22.35-44.8-26.43-17.72-4.18-35.58,3.96-48.89,16.99,16.57-2.84,33.22-3.22,48.57,3.67Z"/>
      <path class="cls-3" d="m153.12,35.44c3.24,3.42,6.51,6.88,9.82,10.24,21.79-20.88,45.81-35.56,80.08-15.55-15.81-34.63-74.56-42.39-102.31-7.53,4.21,4.17,8.32,8.52,12.41,12.84Z"/>
    </g>
    <g>
      <path class="cls-1" d="m45.53,133.04l5.39-2.74c6.16,14.21,7.19,16.43,14.46,30.98,7.27-14.72,8.3-17.03,14.29-30.72l5.22,2.4-19.85,39.28-19.51-39.19Z"/>
      <path class="cls-1" d="m132.3,163.33c-3.51,3.68-5.48,5.31-8.04,6.5-3.08,1.45-6.33,2.22-9.58,2.22-11.13,0-19.94-9.07-19.94-20.45,0-5.39,2.31-11.21,6.08-15.32,3.68-3.94,8.39-6.08,13.69-6.08,10.61,0,19,8.47,19,19.17,0,.68,0,1.11-.09,1.8h-32.86v1.03c0,3.59,2.14,8.22,5.31,11.21,2.57,2.4,5.56,3.59,9.24,3.59,4.96,0,10.01-2.48,13.95-6.76l3.25,3.08Zm-4.36-16.6c-1.2-7.1-6.59-11.81-13.35-11.81s-12.41,4.96-13.35,11.81h26.7Z"/>
      <path class="cls-1" d="m151.64,170.69c0-.6.09-2.05.43-4.28l.09-4.11v-17.8c0-3.68-.26-7.19-.94-11.38l5.56-1.2c.09,1.03.17,1.54.26,2.14,0,.09.09,1.11.17,2.82,2.57-3.85,5.13-5.39,8.9-5.39,1.71,0,3.59.51,5.13,1.45l-1.37,4.96c-1.37-.77-2.91-1.11-4.45-1.11-1.88,0-3.77.77-4.88,2.14-2.4,2.74-3,5.56-3,13.61,0,4.19.26,17.2.34,18.4h-6.25v-.26Z"/>
      <path class="cls-1" d="m183.99,132.95l5.48-2.57c5.82,14.29,6.59,16.35,12.67,30.64l14.38-30.81,13.18,30.81c6.85-14.12,7.79-16.17,13.86-30.04l4.62,2.31.09.68-19,38.51-13.09-29.7-14.38,29.7-17.8-39.54Z"/>
      <path class="cls-1" d="m271.87,117.89c0,2.74-2.14,5.05-4.62,5.05s-4.54-2.22-4.54-4.88,2.14-4.79,4.71-4.79,4.45,1.97,4.45,4.62Zm-7.36,28.75v-.34l-.26-14.38v-.26h6.42c0,3.08,0,4.45-.17,8.22-.09,4.11-.09,5.31-.09,6.76l-.26,24.3h-5.65v-24.3Z"/>
      <path class="cls-1" d="m292.92,170.61c.09-1.63.17-3.59.26-5.9v-21.48c0-2.82-.17-4.54-.77-6.85,6.93-4.11,12.41-5.99,17.63-5.99,6.42,0,12.15,3,14.46,7.36,1.03,1.97,1.45,4.71,1.45,8.56l-.09,11.47v6.33c.17,4.54.17,6.08.34,6.85h-6.68v-.34c.17-1.45.34-3,.43-4.45.17-1.71.26-3.51.26-5.48v-13.86c0-7.45-3.51-11.38-10.1-11.38-3.59,0-7.87,1.2-11.21,3.17v22.76c0,2.48.17,5.73.51,9.58h-6.5v-.34Z"/>
      <g>
        <path class="cls-1" d="m34.74,165.9h-1.97l-2.65.17h-.26l-23.62-.17-.05-11.57h-.04v-14.59l.17-20.65h16.52c3.59,0,7.79.34,9.41.68l1.71-5.65H.09c0,1.11.09,2.22.26,5.82.09,1.63.17,2.91.17,3.94,0,.68,0,1.45-.09,2.05v34.57c0,2.22,0,3.94-.09,5.31-.34,4.62-.34,4.71-.34,5.13h34.06l1.63-5.22c-.43.09-.86.17-.94.17Z"/>
        <path class="cls-1" d="m21.05,144.88c2.57,0,5.31.09,6.33.17l3.85.43h.68l1.8-5.73H11.26v5.19l9.79-.06Z"/>
      </g>
    </g>
  </g>
</svg>