<?xml version="1.0" encoding="utf-8"?>
<!-- Generator: Adobe Illustrator 28.0.0, SVG Export Plug-In . SVG Version: 6.00 Build 0)  -->
<svg version="1.1" id="_レイヤー_2" xmlns="http://www.w3.org/2000/svg" xmlns:xlink="http://www.w3.org/1999/xlink" x="0px"
	 y="0px" viewBox="0 0 120 120" style="enable-background:new 0 0 120 120;" xml:space="preserve">
<style type="text/css">
	.st0{fill:#F0E3D2;}
	.st1{fill:#D7323A;}
</style>
<g>
	<path class="st0" d="M98.7,73.1c-0.2-0.4,0.2-1.4,0.1-1.9c-0.3-1.7-1.6-2.4-2.6-3.6c-0.4-0.5-1.7-1.2-2-1.5
		c-0.3-0.5-0.1-1.3-0.3-1.8c-0.3-0.8-1.6-3.2-0.1-3.7c-0.6-0.3-0.5-1.2-1-1.7c-0.6-0.5-1.8-0.3-2-1.2c-0.2-1.1,0.6-0.7,1.3-0.9
		c1-0.4,0.8,0.1,1.1-0.9c0.4-1.4-0.7-2.9-1.1-4.2c-0.2-0.6-0.5-1.4-0.4-2c0.1-1,0-0.7,0.8-1.1c0.7-0.3,1.2,0.2,1.7-0.7
		c0.3-0.5,0.1-1.8,0.1-2.3c-0.1-1.3,0-2.7-0.1-3.9c-0.2-1.7-1.6-2.3-3.4-2.1c-1.2,0.1-0.7,0.2-1.4,0.8c-1,0.8-0.6,0.6-1.8,0.5
		c-0.4,0-0.8-0.2-1.2-0.1c-0.3,0-0.6,0.7-0.8,0.7c-1,0-1.1-0.7-1.8-1.2c-1.4-0.9-3.1,0-3.5-2c-0.3-1.5,0.1-3,0.7-4.3
		c0.3-0.6,0.8-1.5,0.8-2c0.1-0.7-0.5-1.2-0.4-1.9c0.1-0.9,1.2-1.3,1.7-1.9c0.5-0.7,0.4-1.3,0.8-1.9c0.8-1.2,3.5-0.5,3.8-1.8
		c0.2-0.8-1-1.3-0.7-2.3c0.2-0.9,0.6-0.8,1.4-1c1.4-0.3,3.7,0.7,4-1.1c1.1-0.1,4-0.3,5.1-1.3c-2.3,0-0.2-4.9-0.5-6.1
		c-0.2-0.9-0.6-1.6-1.4-2.3c-0.7-0.6-1.5-0.5-2.1-0.9c-0.3-0.2-0.4-0.8-0.7-1.1c-0.3-0.2-0.7-0.1-0.9-0.3c-1-0.7-0.8-0.4-0.7-1.6
		c0.1-1,0.4-1.5,0-2.6c-0.3-0.8-0.7-1.5-1.1-2.3s-0.4-1.4-1.3-1.5C88,0,87.1,0.5,86.3,0.5c-1.6,0.2-3.3-0.1-4.7,0.6
		C79.8,2,80,3.9,78.9,5.2c-0.9,1.1-3.3,1.1-4,2.4c-0.4,0.8,0.6,4.2-1.2,3.7c0.2-1.5-2.5-1-3.2-0.7c-1.3,0.5-2.3,0.9-3.8,1.1
		c-1,0.1-1.9-0.1-2.6,0.6c-0.5,0.5-0.4,1.7-0.9,2.1c-0.9,0.7-2.9-0.5-4-0.4c0-1.3,0.3-2.5,0.7-3.7c0.6-1.6,1.2-2-0.7-2.6
		C56.9,7,54.5,7,51.9,7c0,1.5,0.4,2.8-0.4,4.2c-0.4,0.6-1.2,1-1.5,1.5c-0.3,0.6-0.5,1.2-0.8,1.8c-0.6,1-1.6,2.7-3.1,2.1
		c-0.3,0.3-0.7,0.6-1,1.1c-0.3,0.6-0.2,1.3-0.2,2c0,1.4,0.6,2.5,0.7,3.9c0.1,1.4-0.2,2.6-0.7,3.9c-0.3,1-0.1,0.8-1,1.4
		c-0.7,0.5-1.6,0.5-2.2,1.3c-0.3,0.4-0.7,1.4-0.4,1.9c0.3,0.6,1.6,0,1.2,1.2c-0.2,0.9-1.5,0.7-2,1.2c-0.7,0.5-0.7,1.3-0.9,2.1
		c-0.4,1.8-1.4,3.3-2.8,4.5c-0.4,0.4-1.6,0.7-1,1.7c0.3,0.5,1.5,0.6,1.9,0.8c0.9,0.5,1.4,1,1.7,2c0.4,1.5,0.2,2.8-0.9,3.8
		c-0.9,0.9-2.4,2.2-3.1,3.3c-1.2,2,1.3,2.4,0.8,3.9c-0.2,0.7-1.5,0.9-1.9,1.5c-0.5,0.7-0.5,1.3-0.2,2c0.5,1.6,2.9,2.1,3.1,3.5
		c0.1,0.9-1.1,3.1-1.7,3.8c-0.5,0.6-1.1,1.1-1.6,1.7c-0.4,0.4-0.7,0.9-1.1,1.4c-0.9,1.2-1.9,2.3-3,3.4c-0.6,0.6-0.4,0.9-1.4,1
		c-1.8,0-4-2-4.9,0.9c-0.2,0.5,0.2,1.4-0.1,1.9c-0.5,0.8-1.5,0.3-2.1,0.9c-1.3,1.6,1.3,2,2.2,2.3c1.4,0.4,2.1,1.4,3.5,2
		c1.4,0.7,2.1,1.4,2.9,2.8c0.7,1.2,1.2,2.3,2.3,3.4c2,1.8,0.7,1.5-0.1,3.5c-0.8,1.9,1.2,2.3,2.7,2.6c0.1,1.8,0.2,2,1.5,3.2
		c0.8,0.8,1.9,1.9,1.7,3.1c-0.2,1.1-1.9,1.3-1.7,2.6c0.2,1.1,2,1.2,2,2.7c0,1.4-1.1,0.9-2.5,1c-0.2,1.1,0.5,2.1,0.4,3.1
		c-0.2,1.4-1.9,1.8-2.3,3.1c-0.2,0.5-0.2,1.3-0.3,1.8c-0.1,0.7-0.6,0.9-0.1,1.6c0.2,0.3,1.3,0.5,1.6,0.8c0.6,0.6,0.3,1.2,0.8,1.7
		c0.9,1.1,1.9-0.7,3-1.1c1.2-0.4,2.9-0.7,4.1-0.6c1.8,0.1,4,0.7,5.8,1.6c0.1-0.4,0.4-0.6,1.1-1.1c0.6-0.4,2.1-0.9,2.3-1.5
		c1.4,0.5,2.8-2.1,3.8-2.8c1.2-0.9,2.6-1.5,3.9-2.2c0.8-0.4,1.7-1,2.5-1.2c1.3-0.4,1.7,0.2,2.5-1.1c0.9-1.2,2.3-2,1.8-3.5
		c-0.2-0.7-1.3-1.3-1.4-2.1c0-0.9,0.4-0.8,1.2-1.3c0.8-0.6,1.1-0.6,1-1.7c-0.1-1-0.5-1.1-0.8-2c-0.4-1.2-0.3-2.8,0.8-3.5
		c1.1-0.7,2.2-0.7,2.7-2.2c0.2-0.5,0-1.1,0.2-1.7c0.1-0.5,0.6-0.9,0.4-1.5c-0.1-0.6-0.8-1-1-1.5c-0.2-0.4-0.3-1.2-0.4-1.7
		c-0.1-1.7,1-1.7,1.9-2.8c1.2-1.6-0.9-1.3-1.6-2.1c-0.1-0.2-0.4-1.2-0.4-1.5c0-0.9,0.6-1.1,1.1-1.7c0.6-0.8,0.5-3.1,1.6-3.4
		c1.3-0.4,2.1,1.6,3.3,0.6c0.5-0.5,0.4-1,0.5-1.6c0.3-0.9,0.5-0.9,1.3-1.4c1-0.8,1.2-2.1,2.3-2.7c0.8-0.4,2.7-0.1,3.5,0.4
		c1.4,0.8,0,1.9,0.6,2.9c0.2,0.3,1.3,0.7,1.7,0.6c0.9-0.1,0.6-0.7,1.1-1.1c0.7-0.6,2.9-0.2,3.8-0.1c0.7,0.1,1.2,0.3,1.7,0.7
		c0.6,0.4,0.7,0.8,1.1,1.3c0.8,0.8,2.1,1.1,3.1,0.4c0.9-0.6,1.6-1.7,2.7-2.1C98.8,73.2,98.8,73.2,98.7,73.1z"/>
	<path class="st1" d="M38.5,118.8L38.5,118.8c-0.4,0-0.7-0.2-1-0.5c-0.3-0.3-0.4-0.7-0.5-1s-0.1-0.5-0.3-0.7
		c-0.1-0.1-0.4-0.2-0.6-0.3c-0.5-0.2-0.9-0.3-1.1-0.6c-0.5-0.7-0.3-1.2-0.1-1.5c0.1-0.1,0.1-0.3,0.1-0.4c0-0.2,0.1-0.4,0.1-0.6
		c0-0.4,0.1-0.9,0.2-1.3c0.2-0.7,0.8-1.2,1.3-1.6s0.9-0.8,1-1.4c0-0.3-0.1-0.8-0.2-1.2c-0.2-0.6-0.3-1.2-0.2-1.9l0.1-0.4h0.4
		c0.4,0,0.7,0,1,0c0.4,0,0.8,0,0.9-0.1c0,0,0.1-0.1,0.1-0.4c0-0.5-0.3-0.8-0.9-1.2c-0.5-0.3-1-0.7-1.1-1.4c-0.2-1,0.5-1.6,1-2
		c0.3-0.3,0.6-0.5,0.7-0.8c0.2-0.9-0.8-1.9-1.6-2.7c-1.3-1.2-1.5-1.6-1.6-3.1c-1.1-0.2-2.2-0.5-2.7-1.4c-0.3-0.5-0.3-1.1,0-1.8
		c0.3-0.7,0.6-1.1,0.8-1.4c0.4-0.5,0.4-0.6-0.6-1.5c-1-1-1.5-1.9-2-2.8c-0.1-0.2-0.3-0.4-0.4-0.7c-0.8-1.4-1.4-2-2.7-2.6
		c-0.7-0.3-1.2-0.6-1.7-1c-0.6-0.4-1.1-0.8-1.8-1c-0.1,0-0.3-0.1-0.5-0.1c-0.9-0.2-2.1-0.6-2.4-1.5c-0.1-0.5,0-1,0.4-1.5
		c0.4-0.4,0.9-0.5,1.3-0.5c0.4-0.1,0.6-0.1,0.7-0.3c0.1-0.1,0-0.5,0-0.7c0-0.4-0.1-0.8,0.1-1.1c0.8-2.5,2.6-1.9,3.9-1.5
		c0.5,0.2,1,0.3,1.5,0.3c0.4,0,0.4-0.1,0.6-0.3c0.1-0.1,0.2-0.3,0.4-0.5c1.2-1.2,2.2-2.3,3-3.3c0.2-0.2,0.3-0.4,0.4-0.5
		c0.2-0.3,0.5-0.6,0.7-0.9s0.5-0.6,0.8-0.8c0.3-0.3,0.5-0.5,0.8-0.8c0.6-0.7,1.7-2.8,1.6-3.4c-0.1-0.5-0.6-0.9-1.2-1.3
		c-0.7-0.5-1.5-1.1-1.8-2.1c-0.4-0.9-0.3-1.6,0.3-2.4c0.2-0.4,0.7-0.6,1.1-0.8c0.3-0.2,0.7-0.4,0.8-0.5c0.1-0.4,0-0.6-0.4-1.1
		c-0.5-0.6-1.2-1.5-0.3-2.9c0.6-0.9,1.6-1.9,2.5-2.7c0.3-0.2,0.5-0.5,0.7-0.7c0.9-0.8,1.2-1.9,0.8-3.3c-0.2-0.8-0.6-1.2-1.5-1.7
		c-0.1,0-0.3-0.1-0.5-0.1c-0.6-0.1-1.3-0.3-1.6-0.8c-0.7-1.2,0.3-1.8,0.8-2.1c0.1-0.1,0.3-0.2,0.3-0.2c1.4-1.2,2.3-2.6,2.7-4.3
		c0-0.2,0.1-0.3,0.1-0.5c0.1-0.7,0.3-1.4,1-1.9c0.2-0.2,0.6-0.3,1-0.5c0.5-0.1,0.7-0.2,0.8-0.4c0-0.1,0.1-0.2,0.1-0.2
		c-0.1,0-0.1,0-0.2,0c-0.3-0.1-0.8-0.1-1-0.6c-0.5-0.8,0.1-2,0.4-2.4c0.5-0.6,1-0.8,1.5-1c0.3-0.1,0.5-0.2,0.8-0.4l0.2-0.1
		c0.4-0.3,0.4-0.3,0.5-0.6c0-0.1,0.1-0.2,0.1-0.4c0.6-1.5,0.8-2.6,0.7-3.7c0-0.6-0.2-1.1-0.3-1.7c-0.2-0.7-0.4-1.4-0.4-2.2
		c0-0.1,0-0.3,0-0.4c0-0.6,0-1.2,0.3-1.8c0.3-0.5,0.6-0.8,0.9-1c0.1-0.1,0.1-0.1,0.2-0.2L48,14l0.3,0.1c1,0.4,1.8-0.7,2.5-1.9
		c0.1-0.3,0.3-0.6,0.4-0.9c0.1-0.3,0.3-0.6,0.4-0.9c0.2-0.4,0.5-0.6,0.8-0.9c0.3-0.2,0.5-0.4,0.7-0.7C53.6,7.9,53.5,7,53.5,6
		c0-0.4-0.1-0.8-0.1-1.2V4.5h0.5c2.6,0,5.1,0,7.4,0.7c0.8,0.2,1.3,0.5,1.5,1s0,1-0.2,1.6c-0.1,0.2-0.2,0.4-0.3,0.7
		c-0.3,0.9-0.6,1.9-0.7,3c0.4,0.1,0.8,0.2,1.2,0.3c0.7,0.2,1.6,0.5,1.9,0.2c0.1-0.1,0.2-0.5,0.3-0.8c0.1-0.4,0.2-1,0.6-1.3
		c0.7-0.7,1.5-0.7,2.2-0.7c0.2,0,0.5,0,0.7,0c1.4-0.2,2.3-0.5,3.5-1l0.1-0.1c0.5-0.2,2.5-0.7,3.4,0c0.2,0.2,0.4,0.4,0.4,0.6
		c0.2-0.3,0.2-1.2,0.1-1.8c0-0.7,0-1.3,0.1-1.6c0.5-0.9,1.4-1.2,2.4-1.6c0.7-0.3,1.3-0.5,1.7-0.9c0.4-0.4,0.6-1,0.8-1.6
		c0.4-1,0.8-2,2.1-2.7c1-0.5,2.2-0.5,3.3-0.6c0.5,0,1.1,0,1.6-0.1c0.4,0,0.7-0.1,1.1-0.2c0.5-0.1,1-0.3,1.6-0.2
		c1,0.1,1.2,0.7,1.5,1.3c0.1,0.1,0.1,0.3,0.2,0.5L92.8,0c0.3,0.6,0.6,1.1,0.8,1.8c0.3,0.9,0.2,1.5,0.1,2.2c0,0.2-0.1,0.4-0.1,0.7
		c0,0.2,0,0.4-0.1,0.5c0,0.1,0,0.2,0,0.3c0,0,0.1,0,0.3,0.1l0.3,0.2c0.1,0,0.2,0.1,0.2,0.1c0.2,0,0.4,0.1,0.7,0.2
		c0.3,0.3,0.4,0.5,0.5,0.8c0.1,0.1,0.1,0.3,0.2,0.4c0.2,0.1,0.4,0.2,0.7,0.3c0.4,0.1,0.9,0.3,1.4,0.7c0.9,0.7,1.3,1.5,1.6,2.6
		c0.1,0.5,0,1.3-0.2,2.3C99,14.3,98.6,16,99,16.5c0.1,0.1,0.2,0.1,0.4,0.1h1.3l-1,0.9c-1.1,1-3.7,1.3-5,1.4
		c-0.4,1.3-1.9,1.2-2.9,1.1c-0.5,0-1-0.1-1.4,0c-0.1,0-0.3,0.1-0.4,0.1c-0.5,0.1-0.5,0.1-0.6,0.5c-0.1,0.3,0,0.5,0.3,0.9
		c0.2,0.4,0.6,0.8,0.4,1.4c-0.2,1-1.3,1.2-2.2,1.3c-0.7,0.1-1.4,0.2-1.7,0.6c-0.1,0.2-0.2,0.4-0.3,0.7c-0.1,0.4-0.2,0.8-0.5,1.2
		c-0.2,0.3-0.5,0.5-0.8,0.7c-0.4,0.3-0.8,0.6-0.8,1c0,0.2,0,0.4,0.2,0.7c0.1,0.3,0.3,0.7,0.2,1.2c0,0.4-0.3,1.1-0.7,1.9l-0.1,0.3
		c-0.7,1.5-0.9,2.8-0.7,4c0.2,0.9,0.6,1,1.5,1.1c0.6,0.1,1.2,0.2,1.8,0.6c0.3,0.2,0.5,0.4,0.7,0.6c0.2,0.3,0.4,0.4,0.7,0.5
		c0,0,0-0.1,0.1-0.1c0.2-0.2,0.4-0.6,0.8-0.6c0.3-0.1,0.6,0,0.9,0c0.1,0,0.3,0.1,0.4,0.1c0.3,0,0.5,0.1,0.7,0.1c0.1,0,0.2,0,0.2,0
		s0.2-0.1,0.3-0.3l0.3-0.2c0.2-0.1,0.2-0.3,0.3-0.3c0.3-0.4,0.5-0.5,1.4-0.6c2.2-0.2,3.7,0.7,3.9,2.5c0.1,0.6,0.1,1.3,0.1,2
		c0,0.6,0,1.3,0,1.9c0,0.2,0,0.3,0,0.5c0.1,0.9,0.1,1.6-0.2,2.1c-0.5,0.8-1,0.8-1.4,0.8c-0.2,0-0.3,0-0.5,0.1s-0.3,0.1-0.4,0.2l0,0
		c0,0.1,0,0.1,0,0.3V48c-0.1,0.5,0.1,1.1,0.3,1.6l0.1,0.2c0.1,0.4,0.3,0.7,0.5,1.2c0.5,1,1,2.2,0.6,3.3v0.2
		c-0.2,0.5-0.2,0.8-0.8,0.9c-0.1,0-0.3,0-0.6,0.2c-0.3,0.1-0.6,0.1-0.8,0.1c-0.1,0-0.2,0-0.3,0c0,0,0,0.1,0,0.2
		c0,0.2,0.2,0.3,0.8,0.4c0.3,0.1,0.7,0.2,1.1,0.5c0.3,0.3,0.5,0.7,0.6,1s0.2,0.5,0.3,0.6l1.1,0.5L96,59.1c-0.2,0.1-0.3,0.2-0.3,0.2
		c-0.2,0.5,0.3,1.8,0.5,2.4c0.1,0.2,0.1,0.3,0.2,0.4c0.1,0.3,0.1,0.6,0.1,1c0,0.3,0,0.5,0.1,0.7c0.1,0.1,0.4,0.3,0.6,0.4
		c0.5,0.3,1.1,0.7,1.4,1.1c0.3,0.3,0.6,0.6,0.9,0.9c0.8,0.8,1.6,1.6,1.8,2.9c0.1,0.3,0,0.7-0.1,1.1c0,0.2-0.1,0.5-0.1,0.7
		c0.2,0.3,0.1,0.5,0,0.9V72l-0.2,0.1c-0.6,0.2-1,0.7-1.5,1.1c-0.3,0.3-0.7,0.7-1.1,0.9c-1.3,0.9-2.8,0.4-3.7-0.5
		c-0.2-0.2-0.3-0.4-0.4-0.5c-0.2-0.3-0.3-0.5-0.6-0.7c-0.5-0.4-0.9-0.5-1.5-0.6l-0.4-0.1c-0.8-0.1-2.5-0.3-3,0
		c-0.1,0.1-0.1,0.2-0.2,0.3c-0.1,0.3-0.3,0.8-1.2,0.9c-0.5,0.1-1.8-0.3-2.2-0.8c-0.4-0.6-0.2-1.2-0.1-1.7c0.1-0.6,0.2-0.8-0.3-1.1
		c-0.7-0.5-2.5-0.7-3-0.4c-0.5,0.3-0.7,0.7-1.1,1.2c-0.3,0.5-0.6,1-1.1,1.4L79,71.9c-0.5,0.3-0.6,0.3-0.8,0.9c0,0.1,0,0.2,0,0.3
		c0,0.5-0.1,1-0.6,1.5c-1,0.8-1.8,0.3-2.4-0.1c-0.5-0.3-0.8-0.5-1.1-0.4c-0.4,0.1-0.6,1-0.8,1.6c-0.1,0.6-0.3,1.2-0.6,1.6
		c-0.2,0.2-0.3,0.4-0.5,0.5c-0.3,0.3-0.5,0.5-0.5,0.9c0,0.2,0.2,1,0.3,1.2c0.2,0.2,0.5,0.3,0.8,0.4c0.5,0.2,1.1,0.4,1.2,0.9
		c0.2,0.5-0.2,1-0.4,1.4c-0.3,0.4-0.7,0.7-1,0.9c-0.6,0.4-0.9,0.7-0.8,1.6l0.1,0.3c0.1,0.4,0.2,0.9,0.3,1.2c0.1,0.2,0.2,0.3,0.4,0.5
		c0.3,0.3,0.6,0.7,0.7,1.1c0.2,0.5-0.1,1-0.2,1.3c-0.1,0.1-0.1,0.3-0.2,0.4c-0.1,0.3-0.1,0.5-0.1,0.8s0,0.7-0.1,1
		c-0.4,1.3-1.2,1.6-2,2c-0.3,0.1-0.6,0.3-0.9,0.4C69,94.6,68.9,96,69.2,97c0.1,0.3,0.2,0.5,0.3,0.7c0.2,0.3,0.4,0.7,0.5,1.4
		c0.1,1.2-0.2,1.5-0.9,1.9c-0.1,0.1-0.2,0.1-0.3,0.2c-0.3,0.2-0.4,0.3-0.6,0.3c-0.4,0.2-0.4,0.2-0.4,0.6c0,0.2,0.3,0.5,0.6,0.8
		c0.3,0.3,0.6,0.7,0.8,1.1c0.5,1.4-0.4,2.3-1.2,3.1c-0.2,0.3-0.5,0.5-0.7,0.8c-0.6,1-1.1,1.1-1.8,1.1c-0.3,0-0.6,0-0.9,0.2
		c-0.5,0.1-1.1,0.5-1.7,0.8c-0.3,0.1-0.5,0.3-0.7,0.4c-0.3,0.2-0.7,0.4-1.1,0.6c-0.9,0.5-1.9,1-2.7,1.6c-0.3,0.2-0.6,0.6-1,1
		c-0.8,0.9-1.8,2-2.9,2c-0.3,0.4-1,0.7-1.5,1c-0.3,0.1-0.5,0.3-0.7,0.4l-0.1,0.1c-0.6,0.4-0.8,0.6-0.8,0.8l-0.2,0.6l-0.6-0.3
		c-1.7-0.9-3.9-1.5-5.6-1.5c-1.2-0.1-2.9,0.2-3.9,0.6c-0.3,0.1-0.6,0.4-0.9,0.6C39.6,118.3,39.1,118.8,38.5,118.8z M38.3,106.3
		c0,0.4,0.1,0.7,0.2,1.1c0.1,0.5,0.3,1,0.2,1.6c-0.1,0.9-0.8,1.5-1.3,2c-0.4,0.4-0.8,0.7-1,1.2c-0.1,0.3-0.2,0.7-0.2,1.1
		c0,0.2-0.1,0.5-0.1,0.7c0,0.3-0.1,0.5-0.2,0.7c-0.1,0.3-0.1,0.3,0,0.5c0.1,0,0.4,0.2,0.6,0.2c0.4,0.1,0.8,0.3,1,0.5
		c0.4,0.4,0.5,0.9,0.6,1.2c0.1,0.3,0.1,0.4,0.2,0.5c0.1,0.1,0.2,0.2,0.3,0.2c0.2,0,0.6-0.3,1-0.6c0.4-0.3,0.8-0.7,1.3-0.8
		c1.2-0.4,3-0.7,4.3-0.6c1.7,0.1,3.8,0.6,5.5,1.4c0.2-0.3,0.5-0.5,0.9-0.8l0.1-0.1c0.2-0.1,0.5-0.3,0.8-0.5c0.4-0.2,1.2-0.6,1.3-0.8
		l0.2-0.5l0.5,0.1c0.6,0.2,1.5-0.8,2.2-1.6c0.4-0.5,0.8-0.9,1.2-1.2c0.9-0.7,1.9-1.2,2.9-1.7c0.4-0.2,0.7-0.4,1.1-0.6
		c0.2-0.1,0.5-0.3,0.7-0.4c0.6-0.3,1.3-0.7,1.9-0.9c0.5-0.1,0.8-0.2,1.1-0.2c0.5,0,0.7,0,1.1-0.7c0.3-0.4,0.5-0.7,0.8-0.9
		c0.8-0.8,1.2-1.3,0.9-2.1c-0.1-0.2-0.3-0.5-0.5-0.7c-0.4-0.4-0.8-0.9-0.9-1.5c0-1,0.4-1.2,0.9-1.5c0.1-0.1,0.3-0.1,0.5-0.3
		c0.1-0.1,0.2-0.2,0.3-0.2c0.5-0.3,0.5-0.4,0.5-1c0-0.5-0.2-0.7-0.3-1c-0.1-0.2-0.3-0.5-0.4-0.9c-0.5-1.4-0.3-3.2,1-4.1
		c0.3-0.2,0.7-0.4,1-0.5c0.7-0.3,1.2-0.6,1.5-1.4c0.1-0.2,0.1-0.4,0.1-0.7c0-0.3,0-0.7,0.1-1c0-0.2,0.1-0.4,0.2-0.6
		c0.2-0.3,0.2-0.4,0.2-0.6c-0.1-0.3-0.2-0.5-0.4-0.7c-0.2-0.2-0.4-0.5-0.5-0.8c-0.2-0.3-0.3-0.9-0.4-1.4L71.2,85
		c-0.1-1.5,0.6-2,1.2-2.5c0.3-0.2,0.6-0.4,0.8-0.7c0.3-0.3,0.2-0.5,0.2-0.5c-0.1-0.1-0.4-0.2-0.6-0.3c-0.4-0.2-0.9-0.3-1.2-0.7
		l-0.1-0.1C71.4,80,71,78.9,71,78.5c0-0.9,0.4-1.3,0.8-1.6c0.1-0.1,0.3-0.2,0.4-0.4c0.2-0.2,0.3-0.7,0.4-1.2c0.2-1,0.5-2.1,1.5-2.4
		c0.8-0.2,1.4,0.2,2,0.5c0.6,0.4,0.8,0.5,1.2,0.2c0.2-0.2,0.2-0.4,0.3-0.8c0-0.1,0-0.3,0.1-0.5c0.3-1,0.6-1.2,1.2-1.6l0.3-0.2
		c0.3-0.3,0.6-0.7,0.9-1.1c0.4-0.6,0.7-1.2,1.5-1.6c1-0.5,3.1-0.2,4,0.4c1.1,0.6,0.9,1.5,0.8,2.2c-0.1,0.4-0.1,0.7,0,0.9
		c0.1,0.1,0.9,0.4,1.2,0.4c0.3,0,0.3-0.1,0.4-0.3c0.1-0.2,0.2-0.5,0.5-0.7c0.7-0.6,2.2-0.5,3.7-0.3l0.4,0.1c0.8,0.1,1.4,0.4,2,0.8
		c0.5,0.3,0.7,0.6,0.9,1c0.1,0.1,0.2,0.3,0.3,0.4c0.6,0.6,1.6,0.9,2.4,0.3c0.3-0.2,0.6-0.5,0.9-0.8c0.5-0.5,1-0.9,1.6-1.2
		c-0.1-0.4-0.1-0.8,0-1.3c0-0.3,0.1-0.6,0.1-0.7c-0.2-1.1-0.8-1.7-1.6-2.4c-0.3-0.3-0.6-0.6-0.9-1c-0.2-0.2-0.8-0.6-1.2-0.9
		c-0.4-0.3-0.6-0.4-0.8-0.6L96.2,64c-0.2-0.4-0.2-0.8-0.3-1.2c0-0.2,0-0.5-0.1-0.6c0-0.1-0.1-0.2-0.2-0.4c-0.4-0.9-1-2.2-0.5-3.2
		c0.1-0.2,0.2-0.3,0.3-0.4c-0.1-0.2-0.2-0.4-0.3-0.6c-0.1-0.3-0.2-0.5-0.3-0.6c-0.1-0.1-0.4-0.2-0.7-0.2c-0.5-0.2-1.3-0.4-1.5-1.2
		c-0.1-0.3-0.1-0.7,0.2-1.1c0.3-0.3,0.7-0.4,1-0.4c0.2,0,0.3,0,0.5-0.1c0.3-0.1,0.5-0.2,0.6-0.2c0-0.1,0-0.1,0.1-0.2v-0.2
		c0.2-0.8-0.2-1.7-0.6-2.7c-0.2-0.4-0.4-0.8-0.5-1.3l-0.1-0.2c-0.2-0.6-0.5-1.4-0.4-2.1v-0.2c0.1-0.6,0.1-0.9,0.7-1.1
		c0.1,0,0.2-0.1,0.4-0.2c0.4-0.2,0.7-0.2,0.9-0.2c0.3,0,0.4,0,0.6-0.3s0.1-1.1,0.1-1.5c0-0.2,0-0.4,0-0.5c0-0.6,0-1.3,0-2
		s0-1.3,0-1.9c-0.2-1.6-1.7-1.8-2.8-1.6c-0.5,0-0.6,0.1-0.6,0.1c-0.1,0.2-0.2,0.4-0.5,0.6L91.4,39c-0.6,0.5-0.7,0.5-1.3,0.5
		c-0.1,0-0.3,0-0.6-0.1c-0.1,0-0.3,0-0.5-0.1c-0.2,0-0.4-0.1-0.5,0l0,0c-0.1,0-0.1,0.2-0.2,0.2c-0.2,0.2-0.4,0.5-0.7,0.5
		c-0.9,0-1.3-0.5-1.6-0.8c-0.1-0.2-0.3-0.3-0.5-0.5c-0.4-0.3-0.9-0.3-1.4-0.4c-0.9-0.1-2-0.3-2.3-1.9c-0.3-1.4,0-2.9,0.7-4.6
		l0.1-0.3c0.2-0.4,0.6-1.2,0.6-1.5s0-0.5-0.2-0.8c-0.1-0.3-0.3-0.7-0.2-1.2c0.1-0.8,0.7-1.3,1.2-1.7c0.2-0.2,0.4-0.3,0.6-0.5
		c0.2-0.3,0.3-0.5,0.4-0.9c0.1-0.3,0.2-0.6,0.4-1c0.5-0.8,1.5-0.9,2.3-1.1c0.8-0.1,1.3-0.2,1.4-0.6c0-0.1-0.1-0.3-0.3-0.6
		c-0.3-0.4-0.7-1-0.4-1.7c0.2-1,0.8-1.1,1.4-1.3c0.1,0,0.2,0,0.4-0.1c0.5-0.1,1.1-0.1,1.7,0c1.4,0.1,1.8,0,2-0.7l0.1-0.4l0.6-0.1
		c0.9-0.1,2.7-0.2,3.8-0.7l-0.1-0.1c-0.7-0.9-0.4-2.6-0.1-4.1c0.1-0.7,0.3-1.6,0.2-1.8c-0.2-0.8-0.5-1.4-1.2-2
		c-0.3-0.3-0.7-0.4-1-0.5s-0.7-0.2-1-0.4s-0.4-0.5-0.5-0.8c-0.1-0.2-0.2-0.3-0.2-0.4c0,0-0.1,0-0.2,0c-0.2,0-0.5-0.1-0.7-0.3
		l-0.2-0.1c-0.6-0.4-0.8-0.6-0.7-1.4c0-0.1,0-0.3,0.1-0.5c0-0.3,0.1-0.5,0.1-0.8c0.1-0.6,0.2-1-0.1-1.6C92.5,1.5,92.2,1,92,0.4
		l-0.3-0.6c-0.1-0.2-0.2-0.4-0.2-0.5c-0.2-0.5-0.3-0.6-0.7-0.7c-0.3,0-0.8,0.1-1.2,0.2C89.1-1.1,88.7-1,88.3-1
		c-0.5,0.1-1.1,0.1-1.6,0.1c-1,0-2,0-2.9,0.5s-1.2,1.2-1.6,2.1c-0.2,0.6-0.5,1.3-1,1.8c-0.5,0.6-1.3,0.9-2.1,1.2
		c-0.8,0.3-1.6,0.6-1.8,1.1c-0.1,0.1,0,0.7,0,1.1c0,1,0.1,2.1-0.6,2.6c-0.2,0.2-0.6,0.3-1.2,0.2l-0.4-0.1l0.1-0.4
		c0-0.2,0-0.3-0.1-0.3c-0.4-0.3-1.9-0.1-2.4,0.1l-0.2,0.1c-1.3,0.5-2.3,0.9-3.8,1.1c-0.3,0-0.5,0-0.8,0c-0.7,0-1.2,0-1.5,0.4
		c-0.1,0.1-0.2,0.5-0.3,0.8c-0.1,0.5-0.2,1-0.6,1.3c-0.7,0.6-1.9,0.3-2.8,0c-0.5-0.2-1.1-0.3-1.4-0.3h-0.5V12c0-1.5,0.4-2.8,0.7-3.9
		c0.1-0.3,0.2-0.5,0.3-0.7C61.9,7.1,62,6.7,62,6.6c0,0-0.1-0.2-0.9-0.4c-2.1-0.6-4.3-0.7-6.6-0.7c0,0.2,0,0.4,0,0.6
		c0.1,1.1,0.2,2.2-0.5,3.4c-0.3,0.4-0.6,0.7-0.9,0.9c-0.2,0.2-0.5,0.4-0.6,0.6c-0.1,0.3-0.2,0.5-0.4,0.8c-0.1,0.3-0.3,0.6-0.4,0.9
		c-0.6,1.1-1.7,2.9-3.4,2.4l0,0c-0.2,0.2-0.5,0.5-0.7,0.8s-0.2,0.8-0.1,1.3c0,0.1,0,0.3,0,0.4c0,0.7,0.2,1.3,0.3,2
		c0.2,0.6,0.3,1.2,0.4,1.9c0.1,1.6-0.3,3-0.7,4.1c0,0.1-0.1,0.3-0.1,0.4c-0.2,0.6-0.3,0.7-0.9,1.2l-0.2,0.1c-0.3,0.2-0.6,0.4-1,0.5
		c-0.4,0.2-0.8,0.3-1.1,0.7c-0.3,0.4-0.5,1.1-0.4,1.3c0,0.1,0.2,0.1,0.3,0.1c0.3,0.1,0.7,0.1,0.9,0.5c0.2,0.3,0.2,0.6,0,1
		c-0.2,0.8-0.9,1-1.5,1.1c-0.2,0.1-0.5,0.1-0.6,0.2c-0.4,0.3-0.5,0.7-0.7,1.3c0,0.2-0.1,0.3-0.1,0.5c-0.4,1.8-1.4,3.4-3,4.8
		c-0.1,0.1-0.3,0.2-0.5,0.3C38,40,38,40.1,38.2,40.3c0.1,0.2,0.7,0.3,1,0.4c0.3,0.1,0.5,0.1,0.7,0.2c0.9,0.5,1.6,1.1,2,2.3
		c0.5,1.8,0.1,3.2-1,4.3c-0.2,0.2-0.4,0.4-0.7,0.7c-0.8,0.8-1.8,1.7-2.3,2.5s-0.2,1.2,0.3,1.8c0.4,0.5,0.9,1.1,0.6,2
		c-0.2,0.6-0.7,0.9-1.2,1.1c-0.3,0.1-0.6,0.3-0.7,0.5c-0.4,0.5-0.4,0.9-0.2,1.5c0.2,0.7,0.9,1.2,1.5,1.6c0.7,0.5,1.5,1.1,1.6,2
		c0.1,1.2-1.2,3.5-1.8,4.2c-0.3,0.3-0.5,0.6-0.8,0.9s-0.5,0.5-0.8,0.8s-0.5,0.5-0.7,0.8c-0.1,0.2-0.3,0.4-0.4,0.6
		c-0.8,1.1-1.8,2.2-3,3.4c-0.2,0.2-0.2,0.3-0.3,0.4c-0.3,0.4-0.5,0.7-1.4,0.7l0,0c-0.6,0-1.3-0.2-1.8-0.4c-1.5-0.5-2.2-0.6-2.6,0.9
		c-0.1,0.2,0,0.4,0,0.7c0,0.4,0.1,0.9-0.1,1.3c-0.4,0.6-1,0.7-1.5,0.8c-0.3,0-0.6,0.1-0.7,0.2c-0.2,0.2-0.2,0.4-0.2,0.5
		c0.1,0.4,1.2,0.7,1.7,0.8c0.2,0.1,0.4,0.1,0.5,0.1c0.8,0.2,1.4,0.7,2,1.1c0.5,0.3,0.9,0.7,1.5,0.9c1.5,0.7,2.3,1.5,3.1,3
		c0.1,0.2,0.3,0.5,0.4,0.7c0.5,0.9,1,1.8,1.8,2.6c1.5,1.3,1.5,1.8,0.7,2.8c-0.2,0.3-0.5,0.7-0.7,1.2c-0.2,0.4-0.2,0.7-0.1,0.9
		c0.3,0.6,1.5,0.8,2.4,1l0.4,0.1v0.4c0.1,1.7,0.1,1.7,1.3,2.9c0.8,0.8,2.1,2.1,1.9,3.5c-0.1,0.7-0.6,1.1-1,1.4
		c-0.5,0.4-0.7,0.6-0.7,1c0,0.3,0.3,0.5,0.7,0.8c0.5,0.4,1.3,0.9,1.3,2c0,0.5-0.1,0.9-0.4,1.1c-0.4,0.4-1,0.4-1.7,0.4
		C38.6,106.3,38.4,106.3,38.3,106.3z M87.4,39.1L87.4,39.1L87.4,39.1z"/>
</g>
</svg>
