<?xml version="1.0" encoding="utf-8"?>
<!-- Generator: Adobe Illustrator 28.0.0, SVG Export Plug-In . SVG Version: 6.00 Build 0)  -->
<svg version="1.1" id="_レイヤー_2" xmlns="http://www.w3.org/2000/svg" xmlns:xlink="http://www.w3.org/1999/xlink" x="0px"
	 y="0px" viewBox="0 0 120 120" style="enable-background:new 0 0 120 120;" xml:space="preserve">
<style type="text/css">
	.st0{fill:#F0E3D2;}
	.st1{fill:#D7323A;}
</style>
<g>
	<path class="st0" d="M58.7,100.7c-0.8-1-0.4-1.7,0.1-2.6c0.2-0.4,0.2-0.8,0.3-1.2c0.2-0.5,0.7-0.8,0.9-1.2c0.6-1.2-0.8-2.3-1.6-3.1
		c-0.3-0.3-0.8-0.7-0.8-1.2c0.1-0.6,0.8-0.7,1.1-1.2c0.6-0.8,0.6-1.7,0.6-2.6c0-1-0.7-2-0.6-2.9c0.1-1,1.3-1.3,1.3-2.4
		c0-2.1-1.2-3.6-1.5-5.6c-0.2-0.9-0.5-1.7,0.3-2.5s1.8-0.9,1.9-2.1c0.1-1.1-0.2-2-0.9-2.8c-0.6-0.8-1-2.1-0.4-3
		c0.5-0.8,1.8-0.7,2.5-1.3c0.8-0.7,0.8-2,0.8-3.1c-0.1-2,0.5-3.6,1-5.6c0.2-1,1-1.5,1-2.6c0-1,0.2-1.8,0.8-2.6
		c0.6-1,1.4-1.6,2.4-2.2c0.5-0.3,1-0.9,1.5-1c0.4-0.1,1,0.1,1.4,0.1c1-0.1,0.7-0.5,1.3-1c0.3-0.3,0.7-0.2,1.2-0.2
		c0.8,0,2.1-0.1,3,0.2c0.1-0.4,0.2-0.7,0.2-1.3c0-1.7,0.2-3.4-0.1-4.5c-0.3-1,0-2,0.2-3.5s0.9-2.2,0.3-3.1c-0.3-0.5-1.7,0.3-2.4,1.1
		c-0.7,0.8-0.6,1.5-1.3,2.9c-0.7,1.4-1.1,0.9-2,0.8c-1-0.2-1.2-0.9-1.6-1.8c-0.4-0.9-1.2-1-2.2-0.7s-1.4,0.7-1.8,0s0.8-1.6,1-2.1
		s0.2-1.7-0.4-1.9s-0.7-0.5-0.9-1.4c-0.2-0.9,0.3-1.2,0.8-1.6c0.7-0.7,0.3-0.7,1.6-1.4c1.4-0.7,0.5-1.4,0.9-2.7
		c0.5-1.3,1.6-0.3,2.2,0.9c0.5,1.2,1.3,1.2,2.4,2.4c1.2,1.1,1.9-0.3,2.4-1.3s0.6-0.8,1.9-1.2c1.3-0.4,0.5-1.1,1.1-1.9s1-2.3,2.1-3.6
		c1.1-1.3,1.3-1.1,2.7-1.1c1.4,0,2.9-0.1,4.8-0.1s1.9-0.9,2.9-2.7s-0.8-2.4-1.4-3.6c-0.5-1.1-0.3-1.7,0.3-2.9
		c0.5-1.1,0.8-2.2,2.1-2.9c1.3-0.7,3.5,0.1,5.3,0s0-1.8-0.5-2.6s0-1.6-0.1-2.8S96.5,1,94.4,0.5S90.6,0.4,89.2,1s-2.3,1.6-5.1,1.7
		c-2.8,0.2-5.3,3-7,3.9c-1.6,1-6.1,3.2-7.4,4c-1.4,0.8-1.8,0.6-3.3,0.2C65,10.4,62.5,11,60.8,12s-5.3,3.5-6.2,4.5S54,19.1,54.9,20
		s-0.4,2.7-1.1,3.1c-0.7,0.4-1.1,0.4-1.1,0.8s-0.3,1.5-1.1,2.4s-0.7,2.4-0.7,4.5s0.5,2.4,1.7,1.7c1.2-0.8,0.9-0.4,1.6,0.6
		c0.7,1,0.1,2.9-0.5,4.5c-0.6,1.7,1.8,4.7,2.3,5.4s1.1,0.9,1.3,2.1c0.2,1.2-0.6,2.4-1.2,3.6c-0.5,1.2,0.5,1.7,1.1,2.8
		c0.5,1.1-0.4,4.5-1.3,7c-0.9,2.3-7.5,13.6-9.5,16.9c-2,3.2-8.5,11.2-11.6,14.6c-2.5,2.7-5.5,5.8-6.9,6.6c-1.4,0.8-3,1.2-3.7,2.4
		c-0.4,0.7-1.2,1.5-2,2.3c0.7,0.6,0.8,1.8,1.7,2.7c1.3,1.2,4.1,1.6,4.3,3.9c0.1,1.4-1.8,3.8,0.5,4.5c2.1,0.6,3.4-1.2,5.3,0.9
		c0.8,0.8,0.2,1.6,1.9,1.8c1.4,0.2,1.5-0.4,2.6-1c1.9-1.1,3.3,0.1,5.5,0.3c1.3,0.1,1.1-0.2,2,0.9c0.7,0.9,0.9,1.5,1.8,2.2
		c1.8,1.4,2.8,3.4,5.4,2.6c0.4-0.1,0.9-0.7,1.4-0.9c0.3-0.1,0.9,0.2,1.2,0c0.9-0.5,0.7-0.8,1-1.9c0.3-0.8,0.7-1.5,0.9-2.3
		s-0.1-2,0.2-2.7c0.3-0.6,1.9-1.6,2.4-2.1c0.7-0.7,1.1-1.2,1.6-2.1c0.3-0.7,0.6-1.5,0.7-2.3c0.1-1.4-0.1-1-1-1.8
		c-0.4-0.4-2-1.2-1.8-2.1v-0.1C59.2,101.3,58.9,101,58.7,100.7z"/>
	<path class="st1" d="M54.1,118.8c-1.5,0-2.5-0.9-3.4-1.9c-0.4-0.3-0.7-0.7-1.2-1c-0.7-0.5-1-1-1.3-1.5c-0.2-0.2-0.3-0.5-0.5-0.8
		c-0.6-0.7-0.6-0.7-1-0.7c-0.2,0-0.4,0-0.7,0c-0.8-0.1-1.5-0.3-2.1-0.4c-1.2-0.3-2-0.6-3.1,0.1c-0.3,0.2-0.5,0.3-0.7,0.5
		c-0.5,0.4-1,0.8-2.2,0.6c-1.3-0.1-1.6-0.7-1.8-1.3c-0.1-0.2-0.2-0.4-0.4-0.7c-1-1.1-1.7-1-2.7-0.8c-0.7,0.1-1.5,0.3-2.4,0
		c-0.6-0.2-1.1-0.5-1.3-1c-0.4-0.8-0.1-1.8,0.1-2.6c0.2-0.5,0.3-1,0.3-1.4c-0.1-1.3-1.2-1.9-2.4-2.5c-0.6-0.3-1.2-0.7-1.7-1.1
		c-0.5-0.5-0.8-1.1-1.1-1.7c-0.2-0.4-0.4-0.8-0.6-1l-0.4-0.4l0.4-0.4c0.8-0.8,1.6-1.6,1.9-2.2c0.6-1,1.7-1.5,2.7-2
		c0.4-0.2,0.8-0.4,1.2-0.6c1.1-0.6,3.3-2.8,6.8-6.5C39.5,84.2,46,76.2,48,73c2.1-3.4,8.6-14.6,9.5-16.8c1.1-3.1,1.7-5.9,1.3-6.6
		c-0.1-0.3-0.3-0.5-0.5-0.8c-0.5-0.6-1-1.3-0.6-2.4c0.1-0.2,0.2-0.4,0.3-0.6c0.5-1,1-1.9,0.8-2.7c-0.1-0.7-0.4-0.9-0.7-1.3
		c-0.2-0.2-0.3-0.4-0.5-0.6L57.4,41c-1.3-1.8-2.8-4-2.2-5.6c0.4-1,1.2-3.2,0.6-4c-0.2-0.3-0.3-0.5-0.4-0.7c0,0,0-0.1-0.1-0.1
		s-0.2,0.1-0.5,0.3c-0.5,0.3-1.2,0.6-1.7,0.3s-0.7-1-0.7-2.4v-0.6c0-1.9,0-3.3,0.8-4.2c0.7-0.8,1-1.8,1-2.1c0-0.6,0.5-0.8,0.8-1
		c0.1-0.1,0.3-0.1,0.5-0.3c0.4-0.2,1.1-1.1,1.1-1.7c0-0.3-0.1-0.5-0.1-0.6c-1-1-1.5-2.9-0.3-4.2c1-1.1,4.7-3.6,6.3-4.6
		c1.7-1,4.4-1.7,6-1.2l0.3,0.1c1.2,0.3,1.5,0.4,2.6-0.2c0.6-0.4,1.9-1,3.3-1.8c1.6-0.8,3.3-1.7,4.1-2.2c0.5-0.3,1.1-0.7,1.8-1.2
		c1.5-1.2,3.4-2.6,5.5-2.7c2-0.1,2.9-0.6,3.9-1.1c0.4-0.2,0.7-0.4,1.1-0.5c1.9-0.8,3.6-1,5.5-0.5c2.1,0.5,2.7,0.8,2.8,2.3
		c0,0.5,0,1-0.1,1.4c-0.1,0.6-0.1,0.9,0.1,1.2c0.1,0.2,0.2,0.3,0.4,0.5c0.6,0.7,1.2,1.5,0.9,2.2c-0.2,0.4-0.6,0.6-1.2,0.6
		c-0.7,0-1.5-0.1-2.2-0.1c-1.2-0.3-2.3-0.4-3-0.1c-1,0.5-1.3,1.3-1.7,2.2c-0.1,0.2-0.1,0.3-0.2,0.5c-0.6,1.2-0.7,1.6-0.3,2.5
		c0.1,0.3,0.4,0.6,0.7,0.9c0.7,0.7,1.6,1.6,0.7,3.2c-0.2,0.3-0.3,0.6-0.5,0.9c-0.6,1.2-1,2-2.9,2c-1,0-1.9,0-2.8,0.1
		c-0.7,0-1.4,0-2,0c-0.2,0-0.3,0-0.5,0c-0.9,0-1,0-1.8,0.9c-0.6,0.7-1,1.5-1.3,2.2c-0.2,0.5-0.5,1-0.7,1.3c-0.1,0.2-0.2,0.4-0.2,0.6
		c0,0.4-0.1,1.1-1.2,1.5c-0.3,0.1-0.5,0.1-0.7,0.2c-0.6,0.2-0.6,0.2-0.9,0.8c-0.4,0.8-0.9,1.8-1.8,2c-0.5,0.1-0.9-0.1-1.4-0.5
		c-0.4-0.5-0.8-0.8-1.2-1c-0.5-0.4-1-0.7-1.4-1.6c-0.4-0.8-0.9-1.2-1.1-1.2c0,0-0.1,0.1-0.2,0.3c0.1,0.3,0.1,0.7,0.1,1
		c0,0.6,0.1,1.4-1.1,2c-0.8,0.4-0.8,0.5-1,0.7c-0.1,0.1-0.2,0.3-0.5,0.6l-0.2,0.1c-0.4,0.3-0.6,0.5-0.5,1c0.2,0.9,0.3,0.9,0.6,1
		c0.2,0.1,0.5,0.2,0.7,0.6c0.3,0.6,0.2,1.4,0,1.9c-0.1,0.2-0.3,0.5-0.5,0.7c-0.2,0.3-0.6,0.8-0.5,1s0.1,0.1,0.1,0.1
		c0.1,0,0.3-0.1,0.5-0.2c0.2-0.1,0.4-0.1,0.6-0.2c1.7-0.5,2.5,0.2,2.8,1l0.1,0.3c0.3,0.8,0.5,1.1,1.1,1.2c0.2,0,0.3,0.1,0.5,0.1
		c0.5,0.1,0.6,0.1,0.9-0.6c0.3-0.6,0.4-1,0.6-1.4c0.2-0.6,0.3-1.1,0.8-1.6c0.5-0.6,1.7-1.5,2.5-1.4c0.3,0,0.5,0.2,0.7,0.4
		c0.5,0.8,0.3,1.4,0.1,2.2c-0.1,0.4-0.2,0.8-0.3,1.3c0,0.4-0.1,0.7-0.1,1c-0.2,1-0.3,1.6-0.1,2.3c0.2,0.9,0.2,2,0.2,3.2
		c0,0.5,0,1,0,1.5c0,0.6-0.1,0.9-0.2,1.3l-0.2,0.7l-0.5-0.2c-0.7-0.2-1.6-0.2-2.3-0.2c-0.3,0-0.6,0-0.8,0c-0.3,0-0.5,0-0.5,0.1
		c-0.2,0.2-0.2,0.3-0.3,0.4c-0.2,0.4-0.5,0.7-1.3,0.7c-0.2,0-0.4,0-0.7-0.1c-0.2,0-0.5-0.1-0.7,0c-0.2,0-0.5,0.3-0.7,0.5
		s-0.4,0.3-0.6,0.5c-1,0.6-1.7,1.1-2.2,2c-0.5,0.7-0.7,1.4-0.7,2.3c0,0.8-0.3,1.3-0.6,1.7c-0.2,0.3-0.4,0.6-0.4,1
		c-0.1,0.4-0.2,0.8-0.3,1.2c-0.4,1.5-0.7,2.7-0.7,4.3c0,1.2,0,2.7-1,3.5c-0.4,0.3-0.9,0.5-1.3,0.6c-0.5,0.1-0.9,0.3-1.1,0.6
		c-0.5,0.7-0.1,1.7,0.4,2.4c0.8,0.9,1.1,1.9,1,3.1c-0.1,1-0.7,1.5-1.3,1.8c-0.3,0.2-0.5,0.3-0.7,0.6c-0.5,0.5-0.4,0.9-0.2,1.8
		l0.1,0.3c0.1,0.8,0.4,1.6,0.7,2.3c0.4,1,0.8,2.1,0.8,3.4c0,0.8-0.4,1.2-0.8,1.6c-0.3,0.3-0.5,0.5-0.5,0.8c0,0.4,0.1,0.8,0.3,1.3
		s0.3,1,0.3,1.6c0,0.9,0,2-0.7,2.9c-0.2,0.3-0.4,0.4-0.6,0.6c-0.2,0.2-0.4,0.3-0.4,0.4s0.3,0.4,0.5,0.6l0.4,0.4
		c0.8,0.8,2.1,2,1.4,3.4c-0.1,0.2-0.3,0.4-0.5,0.6s-0.3,0.4-0.4,0.5c0,0.1,0,0.2,0,0.3c0,0.3-0.1,0.6-0.3,0.9
		c-0.5,1-0.7,1.4-0.2,2.1l0,0c0.2,0.3,0.4,0.5,1,1l0.2,0.1v0.4c-0.1,0.4,0.7,0.9,1.1,1.2c0.2,0.2,0.4,0.3,0.5,0.4
		c0.2,0.2,0.4,0.3,0.5,0.4c0.6,0.4,0.7,0.7,0.6,1.8c-0.1,0.9-0.5,1.8-0.7,2.5c-0.5,0.9-0.9,1.5-1.7,2.3c-0.2,0.2-0.5,0.5-0.9,0.7
		c-0.5,0.4-1.3,0.9-1.4,1.2c-0.1,0.3-0.1,0.7-0.1,1.2s0,1-0.1,1.4c-0.1,0.5-0.4,1-0.6,1.5c-0.1,0.3-0.2,0.5-0.3,0.8
		c-0.1,0.2-0.1,0.4-0.1,0.6c-0.1,0.7-0.3,1.1-1.1,1.6c-0.3,0.2-0.7,0.1-1,0.1c-0.1,0-0.2,0-0.3,0c-0.1,0.1-0.3,0.2-0.5,0.4
		c-0.3,0.2-0.6,0.4-0.9,0.5C54.9,118.7,54.5,118.8,54.1,118.8z M42.1,111.1c0.7,0,1.3,0.2,2,0.4c0.6,0.2,1.2,0.3,1.9,0.4
		c0.3,0,0.5,0,0.6,0c0.8,0,1,0.1,1.7,1.1c0.2,0.3,0.4,0.6,0.6,0.8c0.3,0.5,0.6,0.9,1.1,1.3s0.8,0.7,1.2,1.1c1.2,1.1,2,1.9,3.7,1.4
		c0.1,0,0.4-0.2,0.5-0.3c0.2-0.2,0.5-0.4,0.8-0.5s0.5,0,0.8,0c0.1,0,0.3,0.1,0.4,0c0.5-0.3,0.5-0.4,0.6-0.9c0-0.2,0.1-0.4,0.2-0.7
		c0.1-0.3,0.3-0.6,0.4-0.9c0.2-0.5,0.4-0.9,0.5-1.4c0.1-0.3,0.1-0.7,0.1-1.1c0-0.6,0-1.2,0.2-1.7s0.9-1,1.7-1.6
		c0.3-0.3,0.7-0.5,0.8-0.7c0.7-0.7,1.1-1.2,1.5-2c0.2-0.6,0.5-1.3,0.6-2.1c0-0.5,0-0.7,0-0.7s-0.1-0.1-0.2-0.1
		c-0.2-0.1-0.4-0.2-0.6-0.5c-0.1-0.1-0.3-0.2-0.4-0.3c-0.6-0.5-1.6-1.1-1.6-2c-0.5-0.4-0.8-0.7-1-1c-1-1.2-0.5-2.2,0.1-3.1
		c0.1-0.2,0.1-0.4,0.2-0.7c0-0.1,0-0.3,0.1-0.4c0.2-0.4,0.4-0.7,0.6-0.9c0.1-0.1,0.3-0.3,0.3-0.4c0.3-0.7-0.3-1.4-1.2-2.2L59.9,91
		c-0.3-0.3-0.8-0.8-0.8-1.4c0.1-0.6,0.5-0.9,0.8-1.1c0.2-0.1,0.3-0.2,0.4-0.3c0.5-0.7,0.5-1.5,0.5-2.3c0-0.4-0.1-0.8-0.3-1.3
		s-0.4-1.1-0.3-1.7c0.1-0.6,0.5-1.1,0.8-1.4c0.3-0.4,0.5-0.6,0.5-1c0-1.1-0.4-2-0.7-3c-0.3-0.8-0.6-1.6-0.8-2.5l0-0.5
		c-0.2-0.8-0.4-1.8,0.5-2.7c0.3-0.3,0.6-0.5,0.9-0.7c0.5-0.4,0.8-0.6,0.9-1.1c0.1-1-0.2-1.7-0.8-2.4c-0.7-1-1.2-2.5-0.4-3.6
		c0.4-0.6,1-0.8,1.6-1c0.4-0.1,0.7-0.2,1-0.4c0.6-0.5,0.6-1.7,0.6-2.7c-0.1-1.6,0.3-3.1,0.7-4.5c0.1-0.4,0.2-0.8,0.3-1.2
		c0.1-0.5,0.3-0.9,0.5-1.2c0.2-0.4,0.4-0.7,0.4-1.2c0-1.2,0.3-2.1,0.9-2.9c0.6-1,1.5-1.7,2.5-2.3c0.2-0.1,0.3-0.2,0.5-0.4
		c0.4-0.3,0.7-0.6,1.2-0.7c0.3-0.1,0.7,0,1,0c0.2,0,0.3,0.1,0.4,0.1c0.3,0,0.4-0.1,0.5-0.3s0.2-0.4,0.5-0.6c0.4-0.4,0.8-0.3,1.2-0.3
		c0.1,0,0.2,0,0.3,0h0.5c0.7,0,1.4,0,2.2,0.1c0-0.2,0.1-0.4,0.1-0.7c0-0.5,0-1,0-1.5c0-1.1,0.1-2.2-0.1-2.9c-0.3-0.9-0.1-1.7,0-2.7
		c0-0.3,0.1-0.6,0.1-1c0.1-0.6,0.2-1,0.3-1.4c0.2-0.6,0.3-0.9,0.1-1.3c-0.3,0-1.1,0.5-1.7,1.1c-0.3,0.4-0.4,0.7-0.6,1.3
		c-0.1,0.4-0.3,0.9-0.6,1.5c-0.7,1.4-1.3,1.3-2.1,1.2c-0.1,0-0.3-0.1-0.4-0.1c-1.2-0.2-1.5-1-1.9-1.8L71,35.9
		c-0.2-0.4-0.5-0.8-1.6-0.4c-0.2,0.1-0.4,0.1-0.6,0.2c-0.6,0.2-1.3,0.5-1.8-0.4c-0.4-0.8,0.2-1.6,0.6-2.1c0.1-0.2,0.3-0.4,0.3-0.4
		c0.1-0.2,0.1-0.8,0-1.1c0-0.1-0.1-0.1-0.1-0.1c-0.9-0.3-1-0.9-1.2-1.8c-0.3-1.1,0.4-1.6,0.9-2l0.1-0.1c0.2-0.2,0.3-0.3,0.3-0.4
		c0.2-0.3,0.4-0.5,1.3-1c0.6-0.3,0.6-0.4,0.5-1c0-0.4-0.1-0.8,0.1-1.4c0.3-0.8,0.8-0.9,1.1-1c0.8,0,1.6,0.9,2,1.8
		c0.3,0.6,0.6,0.8,1,1.2c0.4,0.3,0.8,0.6,1.3,1.1c0.1,0.1,0.3,0.3,0.5,0.2c0.4-0.1,0.8-0.9,1.1-1.4c0.5-1,0.8-1.1,1.6-1.3
		c0.2,0,0.4-0.1,0.6-0.2c0.5-0.1,0.5-0.2,0.5-0.6c0-0.3,0-0.7,0.4-1.2c0.2-0.3,0.4-0.7,0.6-1.2c0.3-0.7,0.8-1.6,1.5-2.5
		c1.1-1.3,1.5-1.3,2.6-1.3h0.5c0.6,0,1.3,0,2,0c0.8,0,1.8-0.1,2.8-0.1c1.2,0,1.4-0.3,2-1.5c0.1-0.3,0.3-0.6,0.5-1
		c0.5-0.9,0.2-1.3-0.5-2c-0.3-0.3-0.7-0.7-0.9-1.1c-0.6-1.3-0.3-2,0.3-3.3c0.1-0.1,0.1-0.3,0.2-0.5c0.4-1,0.8-2,2.1-2.7
		c0.9-0.5,2.2-0.4,3.4-0.2c0.7,0.1,1.4,0.2,2.1,0.1c0.3,0,0.3-0.1,0.3-0.1c0-0.2-0.5-0.8-0.8-1.1c-0.2-0.2-0.3-0.4-0.5-0.6
		c-0.4-0.6-0.3-1.3-0.2-1.9c0-0.4,0.1-0.7,0.1-1.2c-0.1-0.9-0.1-1-2-1.5c-1.7-0.4-3.2-0.2-4.9,0.5c-0.3,0.1-0.7,0.3-1,0.5
		C89.1,0.3,88,1,85.8,1c-1.8,0.1-3.5,1.5-4.9,2.5c-0.7,0.5-1.3,1-1.9,1.3c-0.8,0.5-2.5,1.4-4.2,2.3C73.8,8,72.5,8.7,72,9
		c-1.5,0.9-2.1,0.7-3.4,0.3l-0.3-0.1c-1.2-0.3-3.6,0.2-5.2,1.1c-1.7,1-5.2,3.5-6.1,4.4c-0.7,0.8-0.4,2.1,0.3,2.8
		c0.4,0.4,0.5,0.8,0.4,1.4c-0.1,1.1-1.1,2.1-1.6,2.5c-0.2,0.1-0.4,0.2-0.6,0.3c-0.1,0.1-0.2,0.1-0.3,0.1c0,0.5-0.3,1.7-1.2,2.7
		c-0.6,0.7-0.6,1.9-0.6,3.5v0.6c0,1.4,0.2,1.5,0.2,1.5s0.1,0.1,0.7-0.3c0.5-0.4,0.9-0.6,1.3-0.5c0.3,0.1,0.5,0.4,0.7,0.7
		c0.1,0.1,0.2,0.3,0.3,0.6c0.8,1.2,0.3,3.1-0.4,5c-0.5,1.3,1.4,3.8,2.1,4.7l0.2,0.2c0.1,0.2,0.3,0.3,0.4,0.5c0.4,0.4,0.8,0.8,1,1.8
		c0.2,1.2-0.4,2.3-0.9,3.3c-0.1,0.2-0.2,0.4-0.3,0.6c-0.2,0.5,0,0.8,0.5,1.4c0.2,0.3,0.4,0.6,0.6,0.9c0.7,1.6-0.8,6.1-1.3,7.4
		c-0.9,2.4-7.6,13.8-9.5,17c-2,3.3-8.6,11.3-11.7,14.7c-3.6,3.8-5.8,6-7,6.7c-0.4,0.2-0.8,0.4-1.3,0.6c-1,0.5-1.8,0.9-2.2,1.6
		c-0.4,0.7-1,1.4-1.7,2.1c0.2,0.3,0.4,0.6,0.5,1c0.2,0.5,0.4,1,0.8,1.4c0.4,0.3,0.9,0.6,1.5,0.9c1.3,0.7,2.8,1.5,3,3.3
		c0,0.5-0.1,1.1-0.3,1.7c-0.2,0.7-0.4,1.4-0.2,1.9c0.1,0.2,0.3,0.4,0.7,0.5c0.7,0.2,1.3,0.1,1.9,0c1.1-0.2,2.2-0.4,3.6,1.1
		c0.3,0.3,0.5,0.7,0.6,1c0.1,0.4,0.2,0.6,1,0.7s1,0,1.5-0.4c0.2-0.2,0.5-0.4,0.8-0.6C40.9,111.3,41.5,111.1,42.1,111.1z M78.5,32.9
		L78.5,32.9L78.5,32.9z"/>
</g>
</svg>
