<?xml version="1.0" encoding="utf-8"?>
<!-- Generator: Adobe Illustrator 28.0.0, SVG Export Plug-In . SVG Version: 6.00 Build 0)  -->
<svg version="1.1" id="_レイヤー_2" xmlns="http://www.w3.org/2000/svg" xmlns:xlink="http://www.w3.org/1999/xlink" x="0px"
	 y="0px" viewBox="0 0 120 120" style="enable-background:new 0 0 120 120;" xml:space="preserve">
<style type="text/css">
	.st0{fill:#F0E3D2;}
	.st1{fill:#D7323A;}
</style>
<g>
	<path class="st0" d="M98.1,59.4c0.3-3.4-1-2.8-2.4-1.4c-1.4,1.5-1.5-0.8-0.4-5.6c1.1-4.7,0.3-11.1-0.3-12.4
		c-0.7-1.4-2.3-2.7-1.3-4.8s-0.5-4.4-1.4-4.6s-1.4-1.5-3.2-2.9c-1.8-1.3-3.6-5-1.2-6s0.9-2.7-0.8-3.4c-1.7-0.7-3.1-1.5-1.2-2.9
		c1.8-1.4,0.9-3-0.6-5.8C84.4,8,81.4,3.8,78.7,0c-0.2,0-0.4,0.1-0.5,0.1c-1.4,0.2-4.2,0-5.1,1.3c-1,1.4-0.2,3.1-2.2,3.6
		c-1.6,0.5-2.4-0.7-3.7-1.1c-3.2-1.2-4.4,4.4-7.5,1.9c-0.8-0.6-0.4-1-1.8-0.9c-0.6,0-0.9,0.1-1.4,0.3c-1.4,0.5-2.6,1.1-4,1.5
		c-1.1,0.4-1.8,1.2-2.9,1.6c-1.1,0.5-2.3,0.4-3.4,1.1c-1,0.8-0.9,1.5-1.4,2.5c-0.5,0.8-1.5,1.2-2.2,1.7c-1.4,0.9-3.6,2.3-5.3,1.1
		c-0.5-0.3-0.8-0.8-1.1-1.3c-0.2,0.4-0.5,0.9-0.9,1.4C34.5,16,32.4,16,31.7,17c-0.6,0.9,0.3,2.5,0.5,3.3c0.3,1.4-0.3,2.4-1,3.7
		c-1.8,3.1,0,5.3-0.2,8.4c-0.1,1-0.2,1.8,0.3,2.7c0.5,1,0.7,1.1,0.9,2.3s0.3,2.1,0,3.3C31,40.8,30,40,28.9,40c-1.6,0-3.6,1.2-2.8,3
		c0.5,1.2,4.1,0.9,3.6,3.1c-0.1,0.5-0.7,0.4-0.9,0.9c-0.1,0.3-0.1,0.7-0.3,1c-0.2,0.4-0.1,0.7-0.4,1c-0.2,0.3-0.9,0.3-1,0.5
		c-1.2,1.7,1.8,2.2,2.2,3.7c0.5,2-0.5,4-1.4,5.7c-0.6,1.1-1.4,2-2.5,2.7c-0.7,0.4-1.6,0.5-2.1,1.2c-1,1.4-0.2,3.4-0.6,4.9
		c-0.4,1.4-2.3,2.8-2.5,4.5C18.9,73,19.4,75.1,20,76c0.6,0.8,1.4,1.1,1.7,2.1c0.2,0.7,0.2,1.5,0.4,2.2c0.5,1.7,1.5,2.8,2.9,3.9
		c0.7,0.6,1.2,0.3,1.2,1.4c0,0.8-0.6,1.5-1.4,1.4c-0.1,2.2,1.3,0.9,2.3,1.7c1.7,1.2-0.7,1.8-1.3,2.4c-0.9,0.9-0.4,2.1-0.6,3.2
		c-0.3,1.5-0.3,1.5,1.2,2.2c0.9,0.5,1.8,1,1.5,2.4c-0.2,1.1-1.6,1.8-1.9,2.8c-0.3,0.9,0.3,1.8,0.3,2.8c0,0.3,0,0.6,0,0.9
		c0.3,0,0.6,0,0.9,0c0.8,0,1.7-0.1,2.4,0.2c1,0.5,1.2,1.6,2.1,2.1c1.9,1,4.7,0,6.6,1.6c0.4,0.4,0.2,0.9,0.9,1.3c0.4,0.2,1,0,1.5,0.1
		c1,0.1,2,0.3,3,0.4c1.6,0.2,4.6-0.1,3.8,2.5c-0.2,0.8-1.3,1.1-1.4,1.9c-0.1,0.8,0.9,1.7,1.6,2.2c0.7,0.5,1.8,0.8,2.5,1.2
		c0.7,0.4,1.3,1.1,2.3,1.2c2.6,0.3,1.7-3,4-3.7c0.9-0.3,3-0.2,4,0c1.1,0.3,1.5,1.6,2.3,1.8c2,0.5,1.9-3,2.2-4.1
		c0.6-1.9,1.6-3.4,2-5.5c0.5-2.5,0.6-6.2,4.2-5.5c1.4,0.3,2.5,0.7,3.5,1.2c0.1-0.6,0.4-1,0.9-1.1c1.5-0.4,2.2,0.8,2.5,1.8
		c0.5,1.7,0.7,0.9,1.8-0.1c-0.1-0.1-0.1-0.1-0.2-0.1c-0.2,0-0.3,0-0.4-0.2c0.2,0,0.3,0.1,0.4,0.2c0.4-0.1,0.9-0.6,1.2-0.8
		c0.3-0.2,0.6-0.2,0.8-0.4c0.2-0.2,0-0.9,0.1-1.2c0.4-0.8,1-0.6,1.7-1.1c0.6-0.4,1-1.7,1.9-0.8c0.1-0.9,1.1-1,1.2-1.9
		s-0.2-1.8-0.1-2.7c1,0.3,3.3,1.8,4,0.7c0.9-1.5-4.8-2-2.6-3.7c0.1,0,0.2,0.1,0.3,0.2c0-1.4,4.4-0.4,4-2.1c-0.2,0-0.5,0-0.7-0.1
		c-0.7-0.3-1.3-0.2-1.8-1s-0.3-1.1,0.3-1.4c0.8-0.4,1.1,0,1.8-0.6c0.5-0.5,0.5-0.7,0.2-1.5c-0.2-0.4-0.5-0.5-0.7-0.9
		c-0.1-0.2,0-0.5,0-0.7c-0.1-0.8-0.5-2,0-2.7c0.4-0.7,1.5-0.6,1.8-1.4c0.2-0.7-0.5-1.1,0.1-1.8c0.6-0.6,1.2-0.1,1.1-1.2
		c-0.1-0.7-1-1.1-1-2c0-0.8,0.2-1.9,1.1-1.9c0.7-0.1,1,0.5,1.9,0.4c1.3-0.3,2.7-1.1,3-2.5c0.1-0.6,0-1.9-0.4-2.3
		c-0.5-0.6-1.1-0.3-1.7-0.5c0.1-1.9,0.7-2.5,2.4-3.4C102.8,63.4,97.9,61.3,98.1,59.4z"/>
	<path class="st1" d="M54.8,118.6c-0.1,0-0.2,0-0.4,0c-0.8-0.1-1.4-0.5-1.9-0.9c-0.2-0.1-0.4-0.3-0.6-0.4c-0.3-0.2-0.6-0.3-1-0.4
		c-0.5-0.2-1.1-0.5-1.6-0.8c-0.7-0.5-1.9-1.6-1.8-2.7c0.1-0.6,0.5-1,0.9-1.3c0.3-0.2,0.5-0.4,0.6-0.7c0.2-0.5,0.2-0.9,0-1.1
		c-0.4-0.5-1.5-0.6-2.5-0.7c-0.3,0-0.6,0-0.9-0.1c-0.5,0-1-0.1-1.5-0.2s-1-0.1-1.5-0.2c-0.2,0-0.4,0-0.6,0c-0.3,0-0.7,0-1.1-0.1
		c-0.6-0.3-0.7-0.8-0.9-1.1c-0.1-0.2-0.1-0.3-0.2-0.3c-0.9-0.8-2.1-0.8-3.4-0.9c-1-0.1-2.1-0.1-3.1-0.6c-0.5-0.3-0.9-0.8-1.1-1.2
		c-0.3-0.4-0.5-0.7-0.9-0.9c-0.4-0.2-1.1-0.2-1.7-0.2c-0.2,0-0.3,0-0.5,0h-1.4v-1.4c0-0.3-0.1-0.7-0.2-1.1c-0.2-0.6-0.3-1.2-0.1-1.9
		c0.2-0.6,0.6-1,1-1.5c0.4-0.4,0.8-0.8,0.9-1.3c0.2-1-0.3-1.3-1.2-1.9c-1.7-0.8-1.8-1-1.4-2.7c0.1-0.3,0-0.6,0-1
		c0-0.8-0.1-1.7,0.7-2.4c0.2-0.2,0.5-0.4,0.8-0.6c0.2-0.1,0.9-0.5,0.9-0.7c0,0,0-0.1-0.4-0.4c-0.3-0.2-0.6-0.2-0.9-0.2
		c-0.4,0-0.9,0-1.2-0.4c-0.3-0.3-0.4-0.8-0.4-1.5v-0.5l0.5,0.1c0.2,0,0.4-0.1,0.5-0.2c0.2-0.2,0.3-0.4,0.3-0.7c0-0.4,0-0.4-0.3-0.6
		c-0.2-0.1-0.4-0.2-0.7-0.5c-1.2-1-2.5-2.2-3.1-4.1c-0.1-0.4-0.2-0.8-0.2-1.2c0-0.4-0.1-0.7-0.2-1c-0.1-0.5-0.5-0.8-0.8-1.1
		c-0.2-0.2-0.5-0.5-0.8-0.8c-0.5-0.8-0.9-2-0.6-3.1c0.1-0.5,0.4-1,0.8-1.3c0.2-1,0.9-1.9,1.4-2.7c0.5-0.6,0.9-1.2,1-1.7
		s0.1-1.1,0.1-1.8c0-1.1-0.1-2.3,0.6-3.2c0.4-0.6,1-0.8,1.6-1c0.2-0.1,0.5-0.2,0.7-0.3c1-0.6,1.7-1.4,2.3-2.5c1-1.8,1.8-3.6,1.4-5.3
		c-0.1-0.4-0.6-0.8-1.1-1.2c-0.8-0.6-2-1.5-1-2.9c0.1-0.2,0.4-0.3,0.7-0.4c0.1,0,0.3-0.1,0.3-0.1c0.1-0.1,0.1-0.2,0.2-0.4
		c0-0.2,0.1-0.3,0.2-0.6c0.1-0.2,0.1-0.3,0.2-0.5c0-0.1,0.1-0.3,0.1-0.4c0.2-0.4,0.5-0.6,0.7-0.7c0.1,0,0.2-0.1,0.2-0.1
		c0.2-0.8-0.4-1.1-1.7-1.6c-0.8-0.3-1.6-0.6-1.9-1.2c-0.3-0.8-0.3-1.5,0.1-2.2c0.6-0.9,1.9-1.5,3.1-1.5c0.6,0,1.1,0.2,1.7,0.4
		c0.4,0.1,0.8,0.3,1.2,0.3c0.2-1,0.1-1.7-0.1-2.7c-0.1-0.8-0.3-1.1-0.5-1.5c-0.1-0.2-0.2-0.4-0.3-0.6c-0.5-1-0.5-1.9-0.4-2.9
		c0.1-1.1-0.1-2.1-0.3-3.1c-0.3-1.7-0.7-3.5,0.6-5.6l0.1-0.2c0.6-1.2,1.1-2,0.8-3.2c0-0.2-0.1-0.4-0.2-0.6c-0.3-0.9-0.8-2.2-0.2-3
		c0.4-0.6,1.2-0.9,1.9-1.2s1.4-0.5,1.7-1c0.4-0.6,0.7-1,0.9-1.3l0.4-0.8l0.5,0.8c0.3,0.5,0.5,0.9,0.9,1.1c1.5,1,3.5-0.2,4.8-1.1
		c0.2-0.1,0.4-0.3,0.7-0.4c0.5-0.3,1.1-0.7,1.4-1.1c0.1-0.3,0.2-0.5,0.3-0.8c0.2-0.6,0.4-1.2,1.2-1.9c0.7-0.5,1.5-0.6,2.1-0.8
		c0.5-0.2,1-0.3,1.4-0.5c0.5-0.2,0.9-0.5,1.4-0.8s0.9-0.6,1.6-0.9c0.9-0.2,1.6-0.6,2.4-0.9c0.5-0.2,1-0.4,1.6-0.6
		c0.5-0.2,0.9-0.3,1.6-0.3c1-0.1,1.3,0.1,1.7,0.6c0.1,0.1,0.2,0.3,0.4,0.4c1.3,1,2,0.5,3.3-0.6c1-0.9,2.3-2,4.1-1.3
		C70,1.5,70.4,1.8,70.8,2c0.7,0.4,1.3,0.7,2.1,0.5c1-0.2,1.1-0.7,1.2-1.6c0.1-0.6,0.3-1.2,0.7-1.8c0.8-1.2,2.8-1.3,4.3-1.4
		c0.4,0,0.8,0,1.1-0.1h0.1c0.1,0,0.3-0.1,0.5-0.1H81l0.6,0.9c2.6,3.7,5.3,7.5,6.2,9l0.1,0.1c1.4,2.7,2.5,4.7,0.4,6.3
		c-0.5,0.4-0.7,0.7-0.7,0.9c0,0.3,0.6,0.7,1.8,1.2c1.2,0.5,2.4,1.5,2.4,2.5c0,0.5-0.3,1.3-1.6,1.8c-0.5,0.2-0.8,0.6-0.8,1.1
		c-0.2,1.3,1,3.2,2.1,4c0.9,0.7,1.5,1.4,1.9,1.9s0.8,0.9,1.1,0.9c0.6,0.1,1.2,0.8,1.7,1.6c0.6,1.2,0.6,2.5,0.1,3.7
		c-0.6,1.3,0,2.3,0.7,3.3c0.2,0.3,0.5,0.7,0.6,1c0.6,1.4,1.5,7.9,0.3,12.7c-0.9,3.7-0.8,5-0.7,5.4c0.1,0,0.1-0.1,0.2-0.2
		c0.8-0.8,1.7-1.6,2.5-1.2c0.7,0.3,0.9,1.2,0.7,3l0,0c-0.1,0.5,0.5,1.2,1.1,1.8c0.8,0.9,1.6,1.8,1.4,2.9c-0.1,0.6-0.5,1.2-1.3,1.7
		c-1.5,0.8-2,1.2-2.1,2.6h0.1c0.4,0,1,0,1.4,0.6c0.6,0.6,0.6,2.1,0.5,2.7c-0.3,1.4-1.6,2.5-3.4,2.9c-0.7,0.1-1.1-0.1-1.4-0.3
		c-0.2-0.1-0.4-0.2-0.6-0.1c-0.6,0-0.7,1.2-0.7,1.4c0,0.3,0.2,0.6,0.4,0.9c0.2,0.3,0.5,0.6,0.6,1.1c0.1,0.9-0.3,1.2-0.8,1.4
		c-0.2,0.1-0.3,0.1-0.4,0.2c-0.1,0.2-0.1,0.2,0,0.5s0.2,0.6,0.1,1c-0.2,0.7-0.8,0.9-1.2,1.1c-0.3,0.1-0.5,0.2-0.6,0.4
		c-0.3,0.4-0.2,1.2,0,1.8c0,0.2,0.1,0.4,0.1,0.6c0,0.1,0,0.2,0,0.3c0,0.1,0,0.2,0,0.2c0.1,0.1,0.1,0.2,0.2,0.3
		c0.1,0.1,0.3,0.3,0.4,0.6c0.3,0.9,0.4,1.4-0.3,2.1c-0.5,0.5-0.9,0.5-1.3,0.5c-0.2,0-0.4,0-0.7,0.2c-0.3,0.1-0.3,0.2-0.3,0.2
		s0,0.1,0.2,0.5c0.3,0.4,0.5,0.5,0.9,0.6c0.2,0.1,0.4,0.1,0.6,0.2c0.1,0.1,0.4,0.1,0.5,0.1h0.4l0.1,0.4c0.1,0.5,0,0.8-0.2,1
		c-0.4,0.6-1.3,0.7-2.3,0.8c-0.5,0.1-1.5,0.2-1.5,0.4v1.2c0.2,0.1,0.4,0.2,0.5,0.3c0.8,0.4,1.6,0.8,1.8,1.5c0.1,0.2,0.1,0.5-0.1,0.9
		c-0.8,1.2-2.5,0.4-3.7-0.1c-0.1,0-0.2-0.1-0.2-0.1c0,0.2,0,0.4,0.1,0.6c0.1,0.5,0.1,1,0,1.5c-0.1,0.6-0.5,1-0.8,1.3
		c-0.3,0.2-0.4,0.4-0.4,0.6l-0.1,1L86.9,99c-0.1-0.1-0.2-0.2-0.2-0.2l0,0c-0.1,0-0.3,0.3-0.4,0.4c-0.2,0.2-0.4,0.4-0.6,0.6
		c-0.3,0.2-0.6,0.3-0.9,0.4s-0.5,0.2-0.7,0.5c0,0,0,0.2,0,0.3c0,0.4,0,0.8-0.2,1.1c-0.2,0.2-0.4,0.3-0.6,0.3c-0.1,0-0.2,0.1-0.3,0.1
		c-0.1,0.1-0.2,0.1-0.3,0.2c-0.1,0.1-0.2,0.2-0.3,0.2l0,0l-0.4,0.4c-0.2,0.2-0.4,0.4-0.6,0.6c-0.4,0.4-0.7,0.8-1.2,0.6
		c-0.4-0.1-0.6-0.5-0.9-1.3c-0.4-1.2-1-1.7-1.9-1.5c-0.1,0-0.4,0.1-0.5,0.7l-0.1,0.7l-0.6-0.3c-1-0.5-2.1-0.9-3.4-1.2
		c-0.8-0.2-1.4-0.1-1.9,0.3c-1,0.7-1.3,2.4-1.5,3.9c-0.1,0.3-0.1,0.7-0.2,1c-0.2,1.3-0.7,2.4-1.2,3.5c-0.3,0.7-0.6,1.4-0.8,2.1
		c-0.1,0.2-0.1,0.5-0.1,0.9c-0.2,1.2-0.4,2.7-1.3,3.3c-0.4,0.3-0.9,0.3-1.4,0.2c-0.5-0.1-0.9-0.5-1.2-0.9s-0.6-0.7-1.1-0.9
		c-0.9-0.2-2.9-0.3-3.7,0c-0.9,0.3-1.2,0.9-1.5,1.7C56.8,117.5,56.3,118.6,54.8,118.6z M42.3,108.2c0.1,0,0.3,0,0.5,0
		c0.5,0,1,0.1,1.5,0.2s1,0.1,1.5,0.2c0.3,0,0.5,0,0.8,0.1c1.2,0.1,2.6,0.2,3.2,1.1c0.3,0.5,0.4,1.2,0.2,2c-0.1,0.5-0.5,0.9-0.9,1.2
		c-0.3,0.2-0.5,0.4-0.5,0.7c-0.1,0.4,0.5,1.1,1.4,1.7c0.4,0.3,0.9,0.5,1.4,0.7c0.4,0.2,0.8,0.3,1.1,0.5c0.2,0.1,0.4,0.3,0.7,0.4
		c0.5,0.3,0.9,0.6,1.4,0.7c1,0.1,1.3-0.4,1.7-1.4c0.4-0.8,0.8-1.9,2.1-2.3c1-0.3,3.2-0.2,4.2,0c0.8,0.2,1.2,0.8,1.6,1.2
		c0.3,0.3,0.5,0.6,0.7,0.6c0.3,0.1,0.5,0,0.6-0.1c0.5-0.4,0.7-1.7,0.8-2.6c0.1-0.4,0.1-0.8,0.2-1c0.3-0.8,0.6-1.5,0.9-2.2
		c0.5-1,0.9-2,1.1-3.2c0.1-0.3,0.1-0.6,0.2-1c0.3-1.7,0.6-3.6,1.9-4.5c0.7-0.5,1.6-0.6,2.7-0.4c1.2,0.2,2.1,0.6,3.1,1
		c0.2-0.5,0.6-0.8,1.1-0.9c1.4-0.4,2.6,0.4,3.1,2.1c0.1,0.2,0.1,0.4,0.2,0.5c0.1-0.1,0.1-0.1,0.2-0.2c0,0,0,0,0.1-0.1
		c-0.1-0.1-0.1-0.1-0.2-0.2l-0.4-0.7h0.8c0.2,0,0.4,0.1,0.5,0.1c0.2-0.1,0.4-0.3,0.5-0.4s0.3-0.2,0.4-0.3c0.2-0.1,0.4-0.2,0.5-0.2
		s0.1,0,0.2-0.1c0-0.1,0-0.2,0-0.3c0-0.2,0-0.5,0-0.7c0.4-0.7,0.9-0.9,1.3-1.1c0.2-0.1,0.4-0.1,0.6-0.3c0.1-0.1,0.3-0.2,0.4-0.4
		c0.3-0.3,0.6-0.8,1.2-0.8c0.1,0,0.3,0,0.4,0.1c0.2-0.2,0.3-0.4,0.5-0.6c0.3-0.2,0.4-0.4,0.4-0.6c0-0.4,0-0.8,0-1.2
		c-0.1-0.5-0.1-1,0-1.5l0.1-0.6l0.6,0.2c0.3,0.1,0.6,0.2,1,0.4c0.8,0.4,2.1,1,2.4,0.5c-0.1-0.3-0.8-0.7-1.3-0.9
		c-0.9-0.5-1.8-0.9-1.9-1.7c0-0.4,0.2-0.9,0.7-1.2l0.1-0.1h0.2c0,0,0,0,0.1,0c0.4-0.5,1.4-0.6,2.2-0.7c0.4-0.1,1-0.1,1.4-0.3
		c-0.1,0-0.1,0-0.2-0.1c-0.2-0.1-0.3-0.1-0.5-0.2c-0.5-0.1-1.1-0.3-1.5-1c-0.2-0.4-0.5-0.8-0.3-1.3c0.1-0.4,0.5-0.7,0.8-0.8
		c0.4-0.2,0.8-0.2,1-0.3c0.3,0,0.4,0,0.7-0.3c0.3-0.3,0.3-0.3,0.1-0.9c0-0.1-0.1-0.2-0.2-0.3c-0.1-0.1-0.3-0.3-0.4-0.6
		c-0.1-0.3-0.1-0.6-0.1-0.8c0-0.1,0-0.1,0-0.1c0-0.1-0.1-0.3-0.1-0.5c-0.1-0.8-0.3-1.8,0.2-2.5c0.2-0.4,0.7-0.6,1.1-0.8
		c0.4-0.2,0.6-0.3,0.7-0.5c0-0.1,0-0.2-0.1-0.4c-0.1-0.4-0.3-0.9,0.3-1.5c0.3-0.3,0.7-0.4,0.9-0.5h0.1c0,0,0-0.1,0-0.3
		c0-0.2-0.2-0.3-0.3-0.6c-0.3-0.4-0.7-0.8-0.7-1.5c0-1.5,0.6-2.4,1.6-2.4c0.4-0.1,0.8,0.1,1,0.2c0.3,0.1,0.5,0.2,0.8,0.2
		c0.5-0.1,2.2-0.6,2.6-2.1c0.1-0.6-0.1-1.6-0.3-1.8c-0.2-0.2-0.4-0.3-0.7-0.3c-0.2,0-0.5,0-0.8-0.1l-0.4-0.1V67
		c0.1-2.1,0.9-2.9,2.7-3.8c0.5-0.3,0.8-0.7,0.8-1c0.1-0.6-0.6-1.4-1.2-2.1c-0.7-0.8-1.5-1.7-1.4-2.6c0.2-1.7-0.2-2-0.2-2
		s-0.4-0.1-1.4,1c-0.5,0.6-1,0.7-1.4,0.5s-1.2-0.6,0.2-6.6c1.1-4.6,0.3-10.9-0.3-12.1c-0.1-0.3-0.3-0.6-0.6-0.9
		c-0.7-1.1-1.6-2.4-0.7-4.3c0.6-1.2,0.1-2.4-0.1-2.8c-0.3-0.7-0.8-1.1-1-1.1c-0.6-0.1-1.1-0.6-1.6-1.3c-0.4-0.5-1-1.1-1.8-1.7
		c-1.4-1-2.7-3.2-2.5-5c0.1-0.9,0.6-1.6,1.4-1.9c0.4-0.1,0.9-0.5,0.9-0.9c0-0.5-0.8-1.2-1.7-1.6c-1.1-0.5-2.3-1-2.4-2
		c-0.1-0.6,0.3-1.2,1.1-1.8c1.4-1.1,0.9-2.1-0.7-5l-0.1-0.1C86.3,6.4,83.6,2.7,81-1l-0.3-0.4c-0.1,0-0.2,0-0.3,0
		c-0.3,0-0.7,0.1-1.1,0.1c-1.3,0.1-3,0.2-3.6,1c-0.3,0.5-0.4,0.9-0.5,1.5c-0.2,0.9-0.4,2-2,2.3c-1.2,0.4-2.1-0.1-2.9-0.6
		c-0.4-0.2-0.7-0.4-1.1-0.5C67.8,1.9,67,2.7,66,3.5c-1.2,1-2.6,2.3-4.6,0.7c-0.3-0.2-0.5-0.4-0.6-0.6s-0.2-0.2-0.9-0.2
		c-0.5,0-0.8,0.1-1.2,0.3c-0.6,0.2-1.1,0.4-1.6,0.6c-0.8,0.3-1.6,0.7-2.5,0.9c-0.5,0.2-0.9,0.4-1.3,0.7c-0.5,0.3-0.9,0.6-1.6,0.9
		c-0.5,0.2-1,0.3-1.5,0.4c-0.6,0.1-1.2,0.3-1.8,0.6c-0.5,0.4-0.7,0.8-0.8,1.4c-0.1,0.3-0.2,0.6-0.4,0.9c-0.4,0.7-1.1,1.1-1.7,1.5
		c-0.2,0.1-0.4,0.3-0.6,0.4c-1.5,1-3.9,2.5-5.9,1.1c-0.3-0.2-0.6-0.5-0.8-0.7c-0.1,0.2-0.3,0.5-0.5,0.8c-0.5,0.7-1.4,1.1-2.2,1.4
		c-0.6,0.2-1.2,0.5-1.4,0.8c-0.3,0.5,0.1,1.4,0.3,2.1c0.1,0.3,0.2,0.6,0.3,0.8c0.3,1.5-0.3,2.6-0.9,3.9l-0.1,0.2
		c-1.1,1.8-0.8,3.3-0.5,4.9c0.2,1,0.4,2.1,0.3,3.3v0.1c-0.1,0.9-0.2,1.6,0.2,2.3c0.1,0.3,0.2,0.4,0.3,0.6c0.3,0.5,0.5,0.9,0.6,1.9
		c0.2,1.2,0.3,2.2,0,3.5l-0.1,0.3h-0.4c-0.8,0.1-1.4-0.2-2-0.4c-0.5-0.2-0.9-0.3-1.3-0.3c-0.9,0-1.9,0.4-2.3,1.1
		c-0.2,0.4-0.3,0.8-0.1,1.2c0.1,0.3,0.8,0.5,1.3,0.7c1.1,0.4,2.7,1,2.3,2.7c-0.1,0.5-0.5,0.7-0.7,0.8s-0.2,0.1-0.2,0.2
		c0,0.1,0,0.2-0.1,0.3c0,0.2-0.1,0.6-0.3,0.8c0,0.1,0,0.2-0.1,0.3c0,0.2-0.1,0.5-0.4,0.8c-0.1,0.2-0.5,0.3-0.8,0.4
		c-0.1,0-0.1,0-0.2,0.1c-0.3,0.5-0.1,0.8,0.8,1.5c0.6,0.5,1.3,1,1.5,1.7c0.6,2.3-0.6,4.5-1.4,6.1c-0.7,1.2-1.5,2.2-2.7,2.9
		c-0.3,0.2-0.6,0.3-0.8,0.4c-0.5,0.2-0.9,0.3-1.1,0.7C25,62,25,62.9,25.1,63.9c0,0.7,0.1,1.4-0.1,2.1s-0.7,1.4-1.2,2
		c-0.6,0.8-1.2,1.6-1.3,2.4v0.2l-0.2,0.1c-0.3,0.2-0.5,0.4-0.5,0.8c-0.2,0.7,0.1,1.8,0.5,2.3c0.2,0.2,0.4,0.4,0.6,0.7
		c0.4,0.4,0.9,0.8,1.1,1.6c0.1,0.4,0.2,0.8,0.2,1.2c0,0.4,0.1,0.7,0.2,1c0.5,1.6,1.4,2.6,2.7,3.6c0.2,0.2,0.4,0.2,0.5,0.3
		c0.5,0.2,0.9,0.5,0.9,1.5c0,0.6-0.2,1.1-0.6,1.5c-0.2,0.2-0.5,0.3-0.7,0.4c0,0.3,0.1,0.3,0.1,0.4c0.1,0.1,0.3,0.1,0.5,0.1
		c0.4,0,1,0,1.5,0.4s0.8,0.8,0.8,1.2c0,0.7-0.8,1.1-1.4,1.5c-0.2,0.1-0.5,0.3-0.6,0.4c-0.4,0.4-0.4,0.9-0.4,1.7c0,0.4,0,0.8-0.1,1.2
		c-0.2,1.1-0.2,1.1,0.9,1.7c0.9,0.5,2.2,1.2,1.8,3c-0.1,0.7-0.7,1.3-1.1,1.8c-0.4,0.4-0.7,0.7-0.8,1.1c-0.1,0.4,0,0.8,0.1,1.3
		c0.1,0.4,0.2,0.8,0.2,1.3v0.4h0.4c0.2,0,0.3,0,0.5,0c0.7,0,1.5,0,2.1,0.2c0.7,0.3,1,0.8,1.3,1.3c0.3,0.4,0.5,0.7,0.8,0.9
		c0.7,0.4,1.7,0.4,2.6,0.5c1.3,0.1,2.8,0.2,4,1.2c0.3,0.3,0.4,0.5,0.4,0.7c0.1,0.2,0.1,0.4,0.4,0.5c0.1,0,0.3,0,0.5,0
		C42.1,108.2,42.2,108.2,42.3,108.2z M89.9,91.5C89.9,91.6,89.8,91.6,89.9,91.5c-0.1,0.2,0.3,0.5,0.6,0.6L89.9,91.5z M29.5,47.7
		C29.5,47.8,29.5,47.8,29.5,47.7C29.5,47.8,29.5,47.8,29.5,47.7z"/>
</g>
</svg>
