<?xml version="1.0" encoding="utf-8"?>
<!-- Generator: Adobe Illustrator 28.0.0, SVG Export Plug-In . SVG Version: 6.00 Build 0)  -->
<svg version="1.1" id="_レイヤー_2" xmlns="http://www.w3.org/2000/svg" xmlns:xlink="http://www.w3.org/1999/xlink" x="0px"
	 y="0px" viewBox="0 0 120 120" style="enable-background:new 0 0 120 120;" xml:space="preserve">
<style type="text/css">
	.st0{fill:#F0E3D2;}
	.st1{fill:#D7323A;}
</style>
<g>
	<path class="st0" d="M18,85.5c1.9-3.6,7.2-6.3,11.9-5.9c1.2-3.6,5.9-4.2,9.2-5.1c3.7-1,7.7-0.8,10.1,1.3c1.8,1.6,1.3,2.4,3.8,3.1
		c1.3,0.4,4.3,0.9,5.7,0.3c1.8-0.8,2.8-3.5,4.5-4.5c2.1-1.2,3.5-1,5.7-1.4c5.1-0.7,6.4-2.1,8.4-6.3c1.7-3.7,4.6-3.6,8.8-4.2
		c6.5-0.9,16.2-1.7,22.8-0.4c3.7,0.7,6.8,4.9,9.5,0.4c1.2-2,1.2-4,1.6-5.6c-1-0.4-2-1-3-2.2c-4-4.6-6.6-4.6-9.5-5.6
		c-2.9-1.1-9.8-2.8-13.8-4.6s1.8-7,0.7-9.8c-1.1-2.8-8-1.1-9.8,1.4s-3.6,7-5.1,0s-5.1-5.6-9.5-3.5s-13.5-0.4-17.1-2.1
		c-3.6-1.8-7.6-2.1-9.1,0.7s-6.6,5.3-10.9,7.4c-4.4,2.1-13.8,10.9-17.5,13c-3.6,2.1-8,1.8-13.5,0.7s2.2,4.2,2.9,8.8
		C5.6,65.9,5.2,81,4.5,83.5c-0.3,1.1-1.4,1.7-2.9,2.7c2,0.2,3.8,0.6,5.8,1.6c1.5,0.7,3.7,1.4,4.9,2.9c0.5-0.3,0.9-0.6,1.3-0.8
		C16.3,88.3,16.6,88.2,18,85.5z"/>
	<path class="st1" d="M14.2,89.4L13.9,89c-0.9-1.1-2.4-1.8-3.8-2.3c-0.3-0.1-0.7-0.3-1-0.4c-1.7-0.9-3.4-1.3-5.6-1.6l-1.4-0.1
		l1.7-1.1c1.2-0.8,2-1.3,2.2-2.1C6.7,79,7.1,64,6.3,59.5c-0.3-1.9-1.9-4-3.2-5.6c-1.3-1.7-2.1-2.7-1.6-3.4S3,49.9,4,50.1
		c5.4,1.1,9.7,1.4,13.1-0.6c1.6-0.9,4.3-3.1,7.2-5.5c3.8-3.1,7.8-6.3,10.3-7.5c4.1-2,9.2-4.5,10.7-7.2c1.7-3.2,6.1-2.7,9.8-0.9
		c3.8,1.8,12.6,4,16.7,2.1c2.9-1.4,5.2-2.3,7.2-1.4c1.4,0.7,2.4,2.4,3,5.2c0.7,3.1,1.3,3.3,1.4,3.3c0.5,0.1,1.4-1.3,2-2.3
		c0.3-0.4,0.6-0.9,0.8-1.3c1.4-1.9,5.3-3.4,8-3c1.4,0.2,2.3,0.8,2.6,1.7c0.5,1.4-0.2,3-1,4.7c-0.7,1.4-1.3,2.9-1,3.9
		c0.2,0.4,0.5,0.7,1,1c2.4,1.1,6,2.2,9,3.1c1.9,0.6,3.6,1.1,4.7,1.5c0.5,0.2,1,0.3,1.5,0.5c2.4,0.7,4.8,1.4,8.2,5.3
		c1,1.3,2,1.8,2.8,2.1l0.4,0.2l-0.1,0.4c-0.1,0.4-0.2,0.9-0.3,1.4c-0.2,1.3-0.5,2.8-1.4,4.3c-2.1,3.5-4.6,2.2-6.9,1.1
		c-1-0.5-2.1-1-3.1-1.2c-7.3-1.4-18.3-0.2-22.6,0.4c-0.5,0.1-1,0.1-1.5,0.2c-3.4,0.4-5.6,0.7-7,3.7c-2.1,4.4-3.6,5.9-8.8,6.6
		c-0.6,0.1-1.2,0.2-1.7,0.2c-1.3,0.2-2.4,0.3-3.8,1.1c-0.7,0.4-1.3,1.2-1.9,2c-0.8,1-1.5,2-2.6,2.5c-1.6,0.7-4.8,0.1-6.1-0.3
		c-1.8-0.5-2.2-1.1-2.8-1.8c-0.3-0.4-0.6-0.8-1.2-1.4c-2.1-1.8-5.7-2.3-9.6-1.2c-0.5,0.1-1,0.3-1.5,0.4c-3,0.7-6.4,1.6-7.4,4.4
		L32,78.2h-0.4c-4.4-0.4-9.6,2.1-11.4,5.6c-1.4,2.7-1.8,3-4.3,4.4l-0.3,0.2c-0.3,0.1-0.5,0.3-0.7,0.4s-0.4,0.2-0.6,0.4L14.2,89.4z
		 M5,83.9c1.7,0.3,3.2,0.7,4.6,1.5c0.3,0.1,0.6,0.3,0.9,0.4c1.3,0.5,2.8,1.2,3.8,2.3c0.1,0,0.1-0.1,0.2-0.1c0.3-0.2,0.5-0.4,0.8-0.5
		l0.3-0.2c2.4-1.4,2.6-1.6,3.9-4l0,0c2-3.7,7.3-6.4,12-6.2c1.3-3.1,5-4,7.9-4.7c0.5-0.1,1-0.2,1.5-0.4c4.3-1.2,8.2-0.6,10.6,1.4
		c0.7,0.6,1.1,1.1,1.4,1.5c0.5,0.7,0.8,1.1,2.2,1.5c1.5,0.4,4.2,0.8,5.4,0.3c0.8-0.4,1.5-1.2,2.2-2.2c0.7-0.9,1.4-1.8,2.2-2.3
		c1.6-0.9,2.8-1.1,4.2-1.2c0.5-0.1,1-0.1,1.6-0.2c4.8-0.7,6.1-1.9,8-6c1.6-3.5,4.3-3.9,7.7-4.3c0.5-0.1,0.9-0.1,1.4-0.2
		c4.4-0.6,15.5-1.9,23-0.4c1.2,0.2,2.3,0.8,3.4,1.3c2.3,1.2,4,2,5.6-0.7c0.8-1.4,1-2.7,1.3-4c0.1-0.4,0.1-0.7,0.2-1.1
		c-1.1-0.5-2-1.2-2.8-2.2c-3.2-3.7-5.4-4.3-7.7-5c-0.5-0.1-1-0.3-1.6-0.5c-1.1-0.4-2.8-0.9-4.7-1.5c-3.1-0.9-6.7-2-9.2-3.1
		c-0.8-0.4-1.3-0.9-1.6-1.5c-0.5-1.4,0.3-3,1-4.7c0.7-1.4,1.4-2.9,1-3.9c-0.3-0.7-1.2-1-1.8-1.1c-2.4-0.3-6,1-7.1,2.6
		c-0.3,0.4-0.5,0.8-0.8,1.2c-1,1.5-1.9,2.9-3,2.7c-0.9-0.2-1.6-1.4-2.2-4.1c-0.5-2.5-1.3-4-2.5-4.5C76.8,29,74.5,30,72,31.2
		c-4.5,2.2-13.8-0.3-17.5-2.1c-3.2-1.6-7.1-2.1-8.4,0.5c-1.6,3-6.9,5.5-11.1,7.6c-2.4,1.2-6.5,4.5-10.1,7.4
		c-2.9,2.4-5.7,4.6-7.3,5.6c-3.7,2.2-8.2,1.9-13.8,0.8c-0.9-0.2-1.2-0.1-1.4-0.1c0.1,0.4,0.9,1.5,1.5,2.3c1.3,1.8,3,3.9,3.4,6.1
		C8.1,63.8,7.7,78.9,7,81.6C6.7,82.6,6,83.2,5,83.9z"/>
</g>
</svg>
