<?xml version="1.0" encoding="utf-8"?>
<!-- Generator: Adobe Illustrator 28.0.0, SVG Export Plug-In . SVG Version: 6.00 Build 0)  -->
<svg version="1.1" id="_レイヤー_2" xmlns="http://www.w3.org/2000/svg" xmlns:xlink="http://www.w3.org/1999/xlink" x="0px"
	 y="0px" viewBox="0 0 120 120" style="enable-background:new 0 0 120 120;" xml:space="preserve">
<style type="text/css">
	.st0{fill:#F0E3D2;}
	.st1{fill:#D7323A;}
</style>
<g>
	<path class="st0" d="M111,37.7c-5.4-0.8-8.3-2.7-12.4-6.1c-3.8-3.1-6.7-7.5-11.4-9c-2.7-0.9-11.3,0.7-12.5,4.4
		c0.1,0.1,0.2,0.3,0.4,0.4c0,1.3,1.8,3,1.5,5c-0.2,1.7-1,3-1.4,4.7c-0.9,3.6-0.4,7.4-4.5,3.1c-2.6-2.8-4.2-7.7-7.6-9.7
		c-3.1-1.9-8.5-2.5-12-3c-3.7-0.5-8.4,0.4-11.1-2.4c-1.4-1.4-1.1-3.2-3.7-4c-2.7-0.9-2.6-0.2-4.8-2.2c-1.2-1.1-2.5-1.9-3.9-2.6
		c-0.5,0.8-0.8,1.8-0.8,3.1c0,3.6,0.8,6.7-0.2,10.2c-0.6,2.3-0.1,4.6-1.4,6.7c-0.8,1.3-2.1,5.2-3.5,5.9c-2.4,1.3-4.2-0.8-6,2.2
		c-0.8,1.3-0.5,1.8-2.1,2.5c-0.9,0.4-2,0.1-3,0.5c-1.3,0.7-2,1-3.4,1.5c-1.1,0.3-1.9,0.9-3,1.5c-2.7,1.5-4,1.1-4,4.7
		c0,1,0.2,2.2,0,3.3c-0.1,0.4-0.2,0.7-0.3,1c0.6-0.2,1.3-0.4,2-0.5c6.3-1.1,10.1,4.1,9.8,9.7c-0.2,2.6-1.2,5.1-1.8,7.8
		c-0.6,2.7-2.6,4.5-2.8,7.2c-0.5,5.1,1.9,11,6,14.2c1,0.8,2.1,1.4,3.1,2.2c1.7,1.3,1.5,1.3,3.8,1.5c1.8,0.1,3.3,0.7,4.8,1.4
		c1-0.8,2-1.3,3.1-1.4c3.2-0.1,3.4,0.6,2.1-3.4c-1.2-4-2.4-9.6,1.3-12.7c3.8-3.2,11.2-7.3,15.8-8.9s13.6-2.5,17.1-2.8
		s5.5-1.2,8.6-0.4c3.1,0.8,3.6,2.6,7.5,3.3c0.9,0.2,2.3,0.2,3.2,0.5c1.3,0.4,1.3,0.8,1.6,1.9c0.7,2.2,3.1,1.8,3.8,4
		c0.5,1.5,0.7,3.1,1.4,4.6c0.6,1.3,1.6,1.8,2.4,2.7c1.7,1.9,1,4.9,0.6,7.2c-0.3,1.4-0.8,2.7-1,4.1c-0.2,1.5,0.2,1.7,1.6,2
		c1.9,0.4,4.1,0.5,5.9-0.3c1.1-0.5,1.8-1,1.8-2.3s-0.7-1.3-1.3-2.3c-1.6-2.6,0.8-6.2,3.6-7.8c1.1-0.6,1.5-1.7,2.3-2.7
		c0.8-0.9,1.8-1.6,1.6-2.9c-0.3-1.6-5.1-4.7-7.8-6.2c-0.7-0.4-0.9-1.2-1.4-1.8c-0.6-0.6-1.7-1.1-2.1-1.9c-0.7-1.7,1.6-3.1,1.7-4.9
		s-2.5-8.3-1.9-9.8s2.2-1.2,3.4-2c1.2-0.9,2.8-6,4-7.4c1.5-1.8,3-3.9,5.2-5.1c1.9-1,3.4-2.5,5.1-3.7c1.6-1.2,3.4-1.8,5.1-2.6
		c0.6-0.3,0.8-0.5,0.9-0.8C117,38.8,114,38.2,111,37.7z"/>
	<path class="st1" d="M98.6,102.4c-1,0-2-0.1-2.8-0.3c-1.5-0.3-2.2-0.7-2-2.6c0.1-0.9,0.4-1.7,0.6-2.5c0.2-0.5,0.3-1.1,0.4-1.7
		l0.1-0.5c0.4-2.2,0.8-4.7-0.6-6.3c-0.2-0.3-0.5-0.5-0.8-0.8c-0.6-0.5-1.2-1.1-1.7-2.1s-0.7-2-0.9-2.9c-0.2-0.6-0.3-1.2-0.5-1.7
		c-0.3-0.9-0.9-1.3-1.7-1.7c-0.8-0.5-1.7-1-2.1-2.3l-0.1-0.3c-0.2-0.9-0.3-1-1.2-1.3c-0.5-0.2-1.1-0.2-1.8-0.3
		c-0.5-0.1-1-0.1-1.4-0.2c-2.2-0.4-3.4-1.2-4.5-1.9c-0.9-0.6-1.7-1.1-3-1.4c-2-0.5-3.6-0.3-5.5,0c-0.9,0.1-1.8,0.3-2.9,0.4
		c-3.6,0.3-12.4,1.2-17,2.8c-4.7,1.6-12,5.8-15.6,8.8c-3.4,2.8-2.4,8-1.1,12.2v0.1c0.7,2.2,1,2.9,0.6,3.5c-0.3,0.5-0.9,0.5-1.9,0.5
		c-0.3,0-0.7,0-1.2,0c-0.9,0.1-1.8,0.5-2.8,1.3l-0.2,0.2l-0.3-0.1c-1.3-0.6-2.8-1.3-4.6-1.4c-2.2-0.2-2.3-0.2-3.7-1.3L18,98.3
		c-0.5-0.4-1-0.7-1.5-1.1c-0.5-0.3-1.1-0.7-1.6-1.1c-4.2-3.3-6.7-9.3-6.2-14.6c0.1-1.6,0.8-2.9,1.5-4.1c0.5-1,1.1-2,1.3-3.1
		c0.2-1,0.5-1.9,0.7-2.8c0.5-1.7,0.9-3.3,1-4.9c0.2-3-0.9-5.8-2.9-7.5C8.7,57.5,6.5,57,4,57.4c-0.6,0.1-1.2,0.2-1.9,0.5l-0.9,0.3
		l0.3-0.9c0.1-0.3,0.2-0.6,0.3-1c0.1-0.7,0.1-1.4,0-2.1c0-0.4,0-0.7,0-1.1c0-3,0.9-3.5,2.7-4.4c0.4-0.2,1-0.4,1.5-0.7
		c0.3-0.2,0.6-0.3,0.8-0.5c0.7-0.4,1.4-0.8,2.3-1.1c1.3-0.5,2-0.7,3.3-1.5c0.6-0.3,1.2-0.3,1.7-0.3s0.9,0,1.3-0.2
		c1-0.4,1.1-0.7,1.4-1.3c0.1-0.3,0.3-0.6,0.5-1c1.2-2,2.5-2,3.8-2c0.8,0,1.5,0,2.4-0.4c0.8-0.4,1.8-2.4,2.4-3.9
		c0.3-0.7,0.6-1.4,0.9-1.8c0.7-1.2,0.9-2.5,1-3.9c0.1-0.9,0.1-1.8,0.4-2.7c0.7-2.3,0.5-4.5,0.3-6.8c-0.1-1.1-0.2-2.2-0.2-3.3
		c0-1.3,0.3-2.4,0.9-3.4l0.2-0.4l0.4,0.2c1.6,0.8,2.9,1.7,4,2.7c1.4,1.3,1.8,1.4,2.7,1.6c0.5,0.1,1,0.2,1.9,0.5
		c1.9,0.6,2.4,1.7,2.9,2.7c0.3,0.5,0.5,1,1,1.5c1.8,1.9,4.7,2,7.5,2.1c1.1,0,2.2,0.1,3.3,0.2l1,0.1c3.5,0.5,8.3,1.1,11.2,2.9
		c2.2,1.3,3.6,3.6,5,5.9c0.9,1.4,1.7,2.8,2.7,3.9c1.7,1.8,2.3,1.8,2.4,1.7c0.4-0.1,0.6-1.5,0.8-2.5c0.1-0.6,0.2-1.4,0.4-2.1
		c0.2-0.7,0.4-1.4,0.7-2.1c0.3-0.9,0.6-1.7,0.7-2.6c0.2-1-0.3-2-0.8-2.9c-0.3-0.6-0.6-1.2-0.7-1.8c-0.1-0.1-0.2-0.2-0.2-0.3L76.1,25
		v-0.4c0.4-1.2,1.5-2.3,3.2-3.2c3.3-1.7,7.9-2.2,9.9-1.5c3.3,1.1,5.8,3.5,8.1,5.9c1.1,1.1,2.2,2.2,3.4,3.2c4.3,3.5,7,5.2,12.2,6l0,0
		c0.8,0.1,1.5,0.3,2.3,0.4c2.2,0.4,4.5,0.8,6.7,1l0.6,0.1l-0.2,0.6c-0.2,0.5-0.6,0.8-1.2,1.1c-0.5,0.2-0.9,0.4-1.4,0.6
		c-1.2,0.5-2.5,1.1-3.6,1.9c-0.6,0.4-1.2,0.9-1.8,1.4c-1.1,0.8-2.1,1.7-3.4,2.4c-1.8,1-3.1,2.6-4.4,4.2c-0.2,0.3-0.4,0.5-0.7,0.8
		c-0.5,0.6-1.1,2-1.8,3.4c-0.8,1.8-1.6,3.5-2.3,4.1c-0.5,0.4-1.1,0.5-1.6,0.7c-0.9,0.3-1.4,0.4-1.7,1.1c-0.3,0.7,0.5,3.3,1,5.3
		c0.5,1.9,1,3.5,0.9,4.4s-0.5,1.7-1,2.4c-0.6,1-1,1.6-0.7,2.3c0.2,0.4,0.7,0.7,1.1,1c0.3,0.2,0.6,0.4,0.9,0.7
		c0.2,0.3,0.4,0.5,0.5,0.8c0.2,0.4,0.4,0.7,0.8,0.9c0.8,0.4,7.6,4.3,8,6.5c0.2,1.3-0.6,2.1-1.3,2.9c-0.1,0.1-0.3,0.3-0.4,0.5
		c-0.2,0.3-0.4,0.6-0.6,0.9c-0.5,0.7-0.9,1.4-1.8,1.9c-1.8,1-3.3,2.8-3.7,4.5c-0.2,1-0.1,1.8,0.3,2.6c0.2,0.3,0.4,0.5,0.6,0.7
		c0.4,0.4,0.8,0.8,0.8,1.9c0,1.7-1,2.3-2.1,2.8C100.9,102.2,99.7,102.4,98.6,102.4z M72.3,70.5c0.8,0,1.7,0.1,2.6,0.3
		c1.5,0.4,2.4,1,3.3,1.6c1.1,0.7,2.1,1.4,4.2,1.7c0.4,0.1,0.8,0.1,1.3,0.2c0.7,0.1,1.4,0.1,2,0.3c1.4,0.4,1.6,0.9,1.9,2l0.1,0.3
		c0.3,0.9,0.9,1.3,1.7,1.7c0.8,0.5,1.7,1,2.1,2.3c0.2,0.6,0.3,1.2,0.5,1.8c0.2,0.9,0.5,1.9,0.9,2.8c0.4,0.8,0.9,1.2,1.4,1.7
		c0.3,0.3,0.6,0.5,0.9,0.9c1.7,1.9,1.2,4.8,0.8,7.1l-0.1,0.5c-0.1,0.6-0.3,1.2-0.4,1.7c-0.2,0.8-0.4,1.6-0.5,2.3
		c-0.1,1.1-0.1,1.2,1.2,1.4c1.5,0.3,3.8,0.5,5.6-0.3c1-0.5,1.5-0.9,1.5-1.8c0-0.6-0.2-0.8-0.5-1.2c-0.2-0.2-0.5-0.5-0.7-0.9
		c-0.6-1-0.7-2.1-0.4-3.3c0.5-2,2.2-4,4.2-5.2c0.7-0.4,1-0.9,1.5-1.6c0.2-0.3,0.4-0.7,0.7-1c0.2-0.2,0.3-0.3,0.5-0.5
		c0.7-0.7,1.1-1.2,1-2c-0.2-1.1-4-3.9-7.5-5.8c-0.6-0.3-0.9-0.8-1.1-1.3c-0.1-0.2-0.3-0.4-0.4-0.6c-0.2-0.2-0.4-0.3-0.7-0.5
		c-0.5-0.4-1.1-0.8-1.5-1.4c-0.5-1.2,0.2-2.3,0.8-3.2c0.4-0.7,0.8-1.3,0.9-1.9c0-0.7-0.4-2.4-0.9-4.1c-0.8-3-1.3-5-1-5.9
		c0.5-1.2,1.4-1.5,2.3-1.7c0.5-0.1,0.9-0.3,1.3-0.5c0.5-0.4,1.3-2.2,2-3.7s1.3-2.9,1.9-3.6c0.2-0.3,0.4-0.5,0.6-0.8
		c1.3-1.6,2.7-3.3,4.7-4.4c1.2-0.6,2.2-1.5,3.2-2.3c0.6-0.5,1.2-1,1.8-1.4c1.2-0.9,2.5-1.5,3.8-2c0.4-0.2,0.9-0.4,1.3-0.6
		c-1.9-0.2-3.8-0.6-5.7-0.9c-0.7-0.1-1.5-0.3-2.2-0.4c-5.3-0.8-8.3-2.6-12.6-6.2c-1.2-1-2.4-2.1-3.5-3.3c-2.4-2.4-4.7-4.7-7.8-5.7
		c-1.7-0.6-6.1,0-9.1,1.5c-1.4,0.7-2.3,1.5-2.7,2.4c0,0,0,0,0.1,0l0.3,0.1v0.3c0,0.4,0.3,1,0.6,1.6c0.5,1,1.1,2.2,0.9,3.5
		c-0.1,1-0.5,1.9-0.8,2.8c-0.2,0.6-0.5,1.3-0.6,1.9c-0.2,0.7-0.3,1.4-0.4,2c-0.3,1.7-0.5,3-1.5,3.3c-0.8,0.3-1.9-0.4-3.4-2
		c-1.1-1.1-1.9-2.6-2.8-4c-1.3-2.2-2.7-4.4-4.7-5.6c-2.7-1.7-7.4-2.3-10.8-2.8L53,26c-1-0.1-2-0.2-3.2-0.2c-3-0.1-6.1-0.2-8.2-2.4
		c-0.6-0.6-0.9-1.2-1.1-1.7c-0.5-1-0.9-1.7-2.3-2.2c-0.8-0.3-1.4-0.4-1.8-0.5c-1.1-0.2-1.6-0.4-3.2-1.8c-0.9-0.9-2-1.6-3.4-2.3
		c-0.3,0.7-0.5,1.5-0.5,2.4c0,1.1,0.1,2.2,0.2,3.2c0.2,2.4,0.3,4.6-0.4,7.1c-0.2,0.8-0.3,1.7-0.3,2.5c-0.1,1.4-0.2,2.9-1.1,4.3
		c-0.2,0.4-0.5,1-0.8,1.7c-0.8,1.8-1.7,3.8-2.9,4.4c-1.1,0.6-2,0.6-2.9,0.5c-1.2,0-2-0.1-2.9,1.5c-0.2,0.4-0.3,0.6-0.5,0.9
		c-0.3,0.8-0.6,1.3-1.9,1.8c-0.5,0.2-1.1,0.3-1.6,0.3s-1,0-1.4,0.2c-1.3,0.7-2,1-3.4,1.5c-0.8,0.2-1.4,0.6-2.1,1
		c-0.3,0.2-0.5,0.3-0.9,0.5c-0.6,0.3-1.1,0.6-1.6,0.8c-1.6,0.7-2.2,1-2.2,3.5c0,0.3,0,0.6,0,1c0,0.7,0.1,1.6,0,2.4
		c0,0.1,0,0.1,0,0.2c0.4-0.1,0.8-0.2,1.2-0.2c2.8-0.5,5.3,0.2,7.2,1.9c2.2,1.9,3.4,5,3.2,8.3c-0.1,1.7-0.6,3.4-1.1,5.1
		c-0.3,0.9-0.5,1.8-0.7,2.8c-0.3,1.3-0.9,2.4-1.4,3.4c-0.6,1.2-1.3,2.4-1.4,3.7c-0.5,5.1,1.9,10.7,5.8,13.8c0.5,0.4,1,0.7,1.5,1.1
		c0.5,0.3,1.1,0.7,1.6,1.1l0.4,0.3c1.2,0.9,1.2,0.9,3.1,1.1c1.8,0.1,3.4,0.7,4.7,1.3c1.1-0.8,2.1-1.2,3.1-1.3c0.5,0,0.9,0,1.3,0
		c0.5,0,1,0,1.1-0.1c0.1-0.2-0.3-1.3-0.7-2.6v-0.1c-1.3-4.5-2.4-10,1.5-13.2c3.7-3.1,11.2-7.3,16-9c4.7-1.6,13.6-2.5,17.2-2.8
		c1.1-0.1,2-0.2,2.9-0.4C70.1,70.6,71.2,70.5,72.3,70.5z"/>
</g>
</svg>
