<?xml version="1.0" encoding="utf-8"?>
<!-- Generator: Adobe Illustrator 28.0.0, SVG Export Plug-In . SVG Version: 6.00 Build 0)  -->
<svg version="1.1" id="_レイヤー_2" xmlns="http://www.w3.org/2000/svg" xmlns:xlink="http://www.w3.org/1999/xlink" x="0px"
	 y="0px" viewBox="0 0 120 120" style="enable-background:new 0 0 120 120;" xml:space="preserve">
<style type="text/css">
	.st0{fill:#F0E3D2;}
	.st1{fill:#D7323A;}
</style>
<g>
	<path class="st0" d="M101.8,6.7c-0.5-2.4-1-3.6-3-5.1c-1.4-1-3.6-1.6-5.3-0.7c-1.8,0.9-1.6,3.1-3,4.1c-1.3,1-3.3,0.7-4.9,0.7
		c-2.1,0-3.4,0.1-5.3,0.9c-1.5,0.6-3.2,1-4-0.4c-1-1.5-0.2-3.7-2.1-4.9c-1.1-0.6-2.1-0.4-3.2-0.1c-0.9,0.3-1.9,0.6-2.9,0.9
		s-2,1.3-2.8,1.1c-0.6-0.1-1.5-1.9-2.2-2.3c-0.5-0.3-1-0.6-1.5-0.9c-1.5,0.3-3,0.8-3.9,1.4c-2.1,1.5-0.6,5.2-2.9,7.1
		C54,9.2,52.7,9.2,52,10.2c-0.6,0.9-0.2,1.8-0.9,2.7c-1.6,2-4.1,1.5-4,4.6c0.1,2.7,0.7,3-2.2,3.8c-1,0.3-2,0.5-2.7,1.3
		c-0.9,1-0.5,1.5-1.1,2.5c-0.5,0.8-1.6,1.3-1.8,2.3c-0.1,0.4,0.4,1.9,0.6,2.5c0.3,1.7,0.5,3.9,2,5.1c1,0.8,2.1,0.7,2.6,1.9
		c0.3,0.7-0.2,1.7,0.1,2.5c0.8,1.9,2.6,3.1,0.7,5.2c-1.7,1.9-3.9,2-1.8,4.6c1.3,1.7,3.4,2.7,3.2,5.1c-0.3,2.6-2.3,1.6-4.2,1
		c-2.5-0.8-3.7-0.3-5.1,2c-0.7,1.1-0.6,1.9-2.2,1.8c-1.2-0.1-1.5-1-2.6-1.2c-2.2-0.4-3.2,2.2-5.3,2.5c-1.9,0.3-4,0.1-5.9,0.2
		c-1,0-2-0.1-2.9,0c-0.1,0-0.2,0-0.3,0.1c0.7,1.1-0.4,2.4-0.2,3.7c2.1,0.8,2.8,1.5,3.9,3.4c0.8,1.4,1.2,3.2,2.2,4.6
		c0.6,0.8,1.6,1.9,2.4,2.3c0.8,0.3,1.5,0,2.4,0.5c0.9,0.6,3.1,3.2,3.1,4.3c0,1.7-2.3,2.8-1.7,4.8c0.4,1.2,1.5,1,2.7,1.6
		c1.1,0.5,1.6,1.3,2.6,1.9c0.7,0.5,2.1,0.3,2.6,0.9c0.3,0.3,0.1,0.8,0.3,1.1c0.3,0.4,0.7,0.6,0.9,1c0.9,1.3,0.5,2.9,1.1,4.4
		c0.2,0.6,0.8,2.5,1.3,2.9c0.7,0.6,2.3-0.1,3.2,0.2c1.1,0.3,1.8,1.3,3.1,1.3c1.1,0.1,2.2-0.2,3.4-0.1c0.5,1.4,1.8,2.3,2.1,3.8
		c0.2,1.3,0,2.9-0.4,4.1c-0.3,0.8-0.6,2-1.1,2.7s-1.6,1-2.1,1.7c-0.2,0.2-0.3,0.5-0.4,0.8c1.1,0.3,2.2,0.9,3,1.4
		c1.9,1.1,3.2,1.7,3.2,4.1s2.3,2.6,3.4,1.8c1.1-0.9,2.5,0,4.1-1.9s2.6-5.3,2.7-6.3c0.1-1.1,1.3-5,1.7-6.6c0.5-1.6-0.7-2.7,2.2-3.7
		c2.9-1,1.8-3.8,1.8-6s-0.5-3.5,0.8-6.3c1.3-2.7-0.8-4.5-1.6-6.2c-0.7-1.7,1.4-8.6,2.2-11.7c0.8-3.1,5.3-18.2,6.5-21.4
		s5-12.6,6-13.8c1-1.1,2.2-2,1.6-2.8c-0.6-0.9-2.9-1.9,0.4-2.8s2.5-2.5,0.5-4.1c-1.9-1.6,0-4.4,2.9-5.3c2.9-0.9,2.7-3.3,3.3-5.4
		c0.5-2.1,2.7-0.9,4.8-2c2-1,1.7-3.2,2.5-5.7C101.9,7.3,101.8,7,101.8,6.7z"/>
	<path class="st1" d="M59.8,118.8c-0.4,0-0.8-0.1-1.2-0.3c-0.5-0.3-1.3-0.9-1.3-2.4c0-2-0.9-2.5-2.6-3.5l-0.3-0.2
		c-1.1-0.7-2-1.1-2.9-1.4l-0.5-0.1l0.2-0.5c0.1-0.3,0.2-0.7,0.5-1c0.3-0.4,0.7-0.6,1.1-0.9c0.4-0.2,0.7-0.4,0.9-0.7
		c0.3-0.5,0.6-1.2,0.8-1.9c0.1-0.3,0.2-0.5,0.3-0.7c0.4-1.2,0.5-2.7,0.4-3.8c-0.1-0.7-0.6-1.3-1-1.9c-0.3-0.5-0.7-0.9-0.9-1.5
		c-0.5,0-0.9,0-1.4,0.1c-0.6,0.1-1.1,0.1-1.7,0l0,0c-0.9,0-1.5-0.4-2.1-0.8c-0.4-0.2-0.7-0.4-1.1-0.5c-0.3-0.1-0.8,0-1.3,0
		c-0.8,0.1-1.6,0.2-2.1-0.3c-0.5-0.4-0.9-1.5-1.4-3v-0.1c-0.3-0.7-0.4-1.4-0.4-2.1c-0.1-0.8-0.2-1.6-0.6-2.2
		c-0.1-0.2-0.2-0.3-0.4-0.5s-0.3-0.3-0.5-0.5c-0.2-0.3-0.2-0.5-0.2-0.8c0-0.1,0-0.3,0-0.3c-0.2-0.2-0.7-0.3-1.1-0.4
		c-0.5-0.1-1.1-0.2-1.5-0.5s-0.8-0.6-1.2-0.9c-0.4-0.4-0.8-0.7-1.4-1c-0.4-0.2-0.7-0.3-1-0.4c-0.8-0.2-1.6-0.5-1.9-1.5
		c-0.4-1.4,0.3-2.4,0.9-3.2c0.4-0.6,0.8-1.1,0.8-1.7c0-0.8-2-3.3-2.9-3.9c-0.4-0.2-0.7-0.2-1.2-0.3c-0.3,0-0.7,0-1.1-0.2
		c-1.2-0.6-2.4-2.2-2.6-2.5c-0.6-0.9-1-1.8-1.4-2.8c-0.3-0.7-0.5-1.3-0.8-1.9c-1-1.8-1.6-2.4-3.6-3.2l-0.3-0.1v-0.3
		c-0.1-0.7,0.1-1.3,0.2-1.9c0.2-0.7,0.3-1.2,0-1.6l-0.2-0.3l0.3-0.3c0.2-0.2,0.5-0.2,0.7-0.2c0.6-0.1,1.3,0,1.9,0c0.3,0,0.7,0,1,0
		c0.7,0,1.4,0,2.2,0c1.2,0,2.5,0,3.6-0.2c0.8-0.1,1.4-0.6,2.1-1.2c0.9-0.7,1.9-1.6,3.4-1.3c0.6,0.1,1,0.4,1.4,0.7s0.7,0.5,1.2,0.5
		c0.9,0.1,1-0.1,1.3-0.8c0.1-0.2,0.2-0.5,0.4-0.8c1.5-2.5,3-3.1,5.7-2.2c0.2,0.1,0.4,0.1,0.6,0.2c1,0.3,2,0.7,2.4,0.3
		c0.3-0.2,0.4-0.5,0.5-1.1c0.1-1.5-0.8-2.3-1.8-3.3c-0.4-0.4-0.9-0.9-1.3-1.4c-0.7-0.9-1-1.6-1-2.2c0.1-0.8,0.7-1.3,1.4-1.8
		c0.4-0.3,0.9-0.7,1.3-1.2c1.2-1.3,0.7-2,0-3.3c-0.3-0.4-0.5-0.9-0.8-1.4c-0.2-0.5-0.1-1.1-0.1-1.5s0.1-0.7,0-0.9
		c-0.2-0.6-0.6-0.7-1.2-1c-0.4-0.2-0.8-0.4-1.2-0.7c-1.5-1.2-1.8-3.2-2.1-4.8L41.4,28c-0.5-1.6-0.7-2.3-0.6-2.7
		c0.1-0.7,0.7-1.3,1.2-1.7c0.3-0.3,0.5-0.5,0.7-0.7c0.2-0.3,0.3-0.6,0.3-0.9c0.1-0.5,0.2-1,0.8-1.6c0.7-0.8,1.6-1.1,2.6-1.3l0.4-0.1
		c2-0.6,2-0.6,1.9-2.1c0-0.3-0.1-0.7-0.1-1.2c-0.1-2.3,1.1-2.9,2.3-3.5c0.6-0.4,1.3-0.7,1.8-1.4c0.3-0.4,0.3-0.7,0.4-1.2
		c0.1-0.5,0.1-1,0.5-1.5c0.5-0.7,1.2-1,1.8-1.2c0.4-0.2,0.8-0.3,1-0.6c1-0.9,1.2-2.1,1.4-3.5C58,1.3,58.2-0.1,59.4-1
		c0.9-0.6,2.4-1.1,4.1-1.5h0.2l1.7,1c0.4,0.2,0.8,0.7,1.2,1.3c0.3,0.3,0.7,0.9,0.8,1c0.3,0.1,0.8-0.2,1.3-0.5
		C69.1,0,69.5-0.2,70-0.4c1-0.3,2-0.6,2.9-0.9c1.2-0.3,2.3-0.6,3.6,0.1C77.8-0.3,78,1,78.2,2.1c0.1,0.7,0.2,1.3,0.5,1.8
		c0.5,0.9,1.6,1,3.4,0.2c1.9-0.8,3.2-0.9,5.5-0.9c0.3,0,0.6,0,0.9,0c1.3,0,2.7,0.1,3.7-0.6c0.5-0.4,0.8-1,1.1-1.7
		c0.4-0.9,0.8-1.9,2-2.5c1.9-1,4.3-0.4,5.8,0.7c2.1,1.6,2.7,2.9,3.2,5.4v0.2c0,0.3,0,0.7-0.3,1.3c-0.2,0.6-0.3,1.3-0.5,2
		c-0.3,1.6-0.6,3.1-2.3,4c-0.9,0.5-1.9,0.6-2.6,0.6c-1.2,0.1-1.7,0.2-1.9,1c-0.1,0.4-0.2,0.9-0.3,1.3c-0.3,1.7-0.7,3.7-3.3,4.5
		c-1.7,0.5-3,1.7-3.3,2.9c-0.1,0.6,0.1,1.1,0.6,1.5c1.5,1.2,2.1,2.2,1.9,3.1c-0.2,0.8-1,1.5-2.6,1.9c-1.3,0.3-1.4,0.6-1.4,0.6
		c0,0.1,0.4,0.5,0.6,0.7c0.2,0.2,0.5,0.5,0.7,0.7c0.7,1-0.2,2-1.1,2.8c-0.2,0.2-0.4,0.4-0.6,0.6c-0.9,1.1-4.5,10-5.9,13.6
		c-1.2,3.3-5.7,18.3-6.5,21.3c-0.1,0.5-0.3,1.1-0.5,1.8c-0.8,2.9-2.3,8.4-1.7,9.6c0.2,0.4,0.4,0.7,0.7,1.2c0.9,1.4,2,3.1,0.9,5.5
		c-0.9,2-0.9,3.2-0.8,4.7c0,0.4,0.1,0.9,0.1,1.4c0,0.4,0,0.9,0.1,1.4c0.2,1.8,0.4,4.1-2.2,5.1c-1.7,0.6-1.7,1.1-1.7,1.9
		c0,0.4,0,0.9-0.2,1.4c-0.1,0.5-0.3,1.3-0.6,2.1c-0.5,1.6-1,3.7-1.1,4.4c-0.1,1-1.1,4.6-2.8,6.6c-1.1,1.3-2.1,1.4-3,1.6
		c-0.5,0.1-0.9,0.1-1.2,0.4C61,118.6,60.4,118.8,59.8,118.8z M52.3,110.3c0.8,0.3,1.7,0.7,2.6,1.3l0.3,0.2c1.7,1,3.1,1.8,3.1,4.3
		c0,0.8,0.3,1.3,0.8,1.6c0.5,0.3,1.3,0.2,1.8-0.2c0.5-0.4,1.1-0.5,1.7-0.6c0.8-0.1,1.5-0.2,2.3-1.2c1.5-1.8,2.5-5,2.6-6
		c0.1-0.8,0.6-2.8,1.1-4.5c0.2-0.8,0.5-1.6,0.6-2.1c0.1-0.4,0.1-0.8,0.1-1.2c0-1.2,0.2-2.1,2.4-2.9c1.8-0.6,1.8-1.9,1.6-4
		c-0.1-0.5-0.1-1-0.1-1.5s0-0.9,0-1.4c-0.1-1.5-0.2-2.9,0.9-5.2c0.9-1.8,0-3.2-0.8-4.5c-0.3-0.4-0.6-0.9-0.8-1.3
		c-0.6-1.5,0.4-5.5,1.7-10.3c0.2-0.7,0.3-1.3,0.5-1.8c0.8-3,5.3-18.2,6.5-21.5c1.1-2.9,5-12.6,6.1-13.9c0.2-0.2,0.4-0.4,0.6-0.6
		c0.7-0.8,1.2-1.3,1-1.5c-0.1-0.2-0.3-0.4-0.5-0.6c-0.5-0.5-1.1-1-0.9-1.7c0.1-0.6,0.8-1,2.1-1.4c1.1-0.3,1.8-0.7,1.9-1.1
		c0.1-0.3-0.1-0.9-1.5-2.1c-0.8-0.7-1.1-1.5-0.9-2.5c0.3-1.5,1.9-3.1,4-3.7c2-0.6,2.3-2.1,2.7-3.7c0.1-0.4,0.2-0.9,0.3-1.3
		c0.4-1.6,1.7-1.7,2.8-1.8c0.7-0.1,1.5-0.1,2.3-0.5c1.2-0.6,1.4-1.7,1.7-3.3c0.1-0.6,0.3-1.4,0.5-2.1c0.2-0.4,0.2-0.6,0.2-0.8
		c0-0.1,0-0.1,0-0.2c-0.5-2.4-1-3.4-2.8-4.8C99.6-1,97.6-1.6,96-0.8c-0.8,0.4-1.2,1.2-1.5,2s-0.7,1.5-1.4,2.1
		c-1.2,0.9-2.8,0.9-4.3,0.8c-0.3,0-0.6,0-0.9,0c-2.2,0-3.3,0.1-5.1,0.9c-0.9,0.3-3.5,1.4-4.6-0.6c-0.4-0.7-0.6-1.4-0.7-2.2
		c-0.2-1-0.3-1.9-1.2-2.5c-0.9-0.5-1.8-0.3-2.8,0c-0.9,0.3-1.9,0.6-2.8,0.9c-0.4,0.1-0.8,0.3-1.1,0.5c-0.7,0.4-1.3,0.8-2,0.6
		c-0.5-0.1-0.9-0.7-1.4-1.3c-0.3-0.4-0.7-0.9-0.9-1L64-1.4c-2,0.2-3.3,0.7-4,1.2c-0.8,0.6-1,1.7-1.1,3c-0.2,1.4-0.4,3-1.7,4.1
		c-0.4,0.3-0.9,0.5-1.3,0.7c-0.5,0.2-1.1,0.4-1.4,0.9c-0.2,0.3-0.3,0.7-0.3,1.1c-0.1,0.5-0.1,1.1-0.6,1.7c-0.7,0.8-1.4,1.3-2.1,1.6
		c-1.1,0.6-1.8,1-1.8,2.6c0,0.4,0,0.8,0.1,1.1c0.2,2-0.1,2.5-2.6,3.2l-0.4,0.1c-0.8,0.2-1.6,0.4-2.1,1c-0.4,0.5-0.5,0.8-0.6,1.2
		c-0.1,0.3-0.2,0.7-0.5,1.2c-0.2,0.4-0.6,0.7-0.9,1c-0.4,0.4-0.8,0.7-0.9,1.2c0,0.1,0,0.6,0.6,2.2l0.1,0.7c0.3,1.5,0.5,3.3,1.7,4.2
		c0.3,0.3,0.7,0.4,1,0.6c0.6,0.3,1.3,0.6,1.7,1.5c0.2,0.5,0.1,1,0.1,1.5c0,0.4-0.1,0.8,0,1.1c0.2,0.4,0.4,0.8,0.7,1.2
		c0.7,1.2,1.6,2.6-0.1,4.5c-0.5,0.6-1,1-1.5,1.3c-0.6,0.4-1,0.8-1,1.1s0.2,0.8,0.7,1.5c0.4,0.5,0.8,0.9,1.2,1.3
		c1.1,1.1,2.3,2.2,2.1,4.1c-0.1,0.9-0.4,1.5-0.9,1.9c-0.9,0.6-2.1,0.2-3.3-0.2c-0.2-0.1-0.4-0.1-0.6-0.2c-2.3-0.7-3.2-0.3-4.5,1.8
		c-0.2,0.2-0.3,0.5-0.4,0.7c-0.4,0.8-0.7,1.5-2.3,1.4c-0.8-0.1-1.3-0.4-1.7-0.7c-0.3-0.2-0.6-0.4-1-0.5c-1-0.2-1.7,0.4-2.5,1.1
		c-0.7,0.6-1.5,1.3-2.6,1.4c-1.2,0.2-2.5,0.2-3.8,0.2c-0.7,0-1.5,0-2.2,0c-0.4,0-0.7,0-1.1,0c-0.5,0-1,0-1.5,0
		c0.1,0.6,0,1.2-0.2,1.8c-0.1,0.4-0.2,0.8-0.2,1.2c2,0.8,2.8,1.6,3.9,3.5c0.4,0.6,0.6,1.3,0.9,2c0.4,0.9,0.7,1.8,1.3,2.6
		c0.6,0.8,1.5,1.8,2.2,2.1c0.2,0.1,0.5,0.1,0.8,0.1c0.5,0,1,0.1,1.6,0.4c0.9,0.6,3.4,3.4,3.4,4.7c0,0.9-0.5,1.6-1,2.3
		c-0.5,0.8-1,1.5-0.8,2.4c0.2,0.5,0.5,0.6,1.2,0.9c0.4,0.1,0.8,0.2,1.2,0.4c0.7,0.3,1.1,0.7,1.6,1.1c0.3,0.3,0.6,0.6,1,0.8
		c0.3,0.2,0.7,0.3,1.1,0.3c0.6,0.1,1.3,0.2,1.6,0.7c0.3,0.3,0.3,0.7,0.3,0.9c0,0.1,0,0.2,0,0.2c0.1,0.1,0.2,0.2,0.3,0.3
		c0.2,0.2,0.4,0.4,0.6,0.7c0.5,0.8,0.6,1.7,0.7,2.6c0.1,0.6,0.1,1.2,0.4,1.8l0.1,0.2c0.6,2,1,2.4,1.1,2.5c0.2,0.2,0.9,0.1,1.4,0.1
		c0.6-0.1,1.2-0.1,1.7,0s0.9,0.4,1.3,0.7c0.5,0.3,1,0.6,1.6,0.6c0.5,0,1.1,0,1.6,0C52,97,52.6,97,53.2,97h0.3l0.1,0.3
		c0.2,0.6,0.6,1,0.9,1.6c0.5,0.7,1,1.4,1.2,2.3c0.2,1.3,0,3-0.4,4.4c-0.1,0.2-0.2,0.5-0.2,0.7c-0.2,0.7-0.5,1.6-0.9,2.1
		c-0.3,0.4-0.8,0.7-1.2,1c-0.4,0.2-0.7,0.4-0.9,0.7C52.4,110.1,52.3,110.2,52.3,110.3z"/>
</g>
</svg>
