<?xml version="1.0" encoding="utf-8"?>
<!-- Generator: Adobe Illustrator 28.0.0, SVG Export Plug-In . SVG Version: 6.00 Build 0)  -->
<svg version="1.1" id="_レイヤー_2" xmlns="http://www.w3.org/2000/svg" xmlns:xlink="http://www.w3.org/1999/xlink" x="0px"
	 y="0px" viewBox="0 0 120 120" style="enable-background:new 0 0 120 120;" xml:space="preserve">
<style type="text/css">
	.st0{fill:#F0E3D2;}
	.st1{fill:#D7323A;}
</style>
<g>
	<g>
		<polygon class="st0" points="92,25.4 92,26.6 89.6,26.6 89.6,23.2 95.4,17.7 98.2,17.7 98.2,19.9 93.9,24.9 		"/>
		<path class="st1" d="M94.5,25.1h-3.4V21l6.1-5.8h3.5v2.9l-4.5,5.3l-1.7,0.4V25.1z M92.1,24.1h1.4V23l2.1-0.6l4.1-4.7v-1.5h-2.1
			l-5.5,5.2V24.1z"/>
	</g>
	<g>
		<polygon class="st0" points="89.6,29.1 92.2,29.1 93.2,30.8 93.2,33.3 91.9,34.7 90.2,34.7 88.5,32.5 88.5,30.2 		"/>
		<path class="st1" d="M94.1,33.2H92l-2-2.5V28l1.4-1.4h3.1l1.2,2.1v2.8L94.1,33.2z M92.4,32.2h1.2l1-1.1v-2.2l-0.8-1.3h-2.1
			L91,28.4v1.9L92.4,32.2z"/>
	</g>
	<g>
		<polygon class="st0" points="78.2,46.8 82.3,46.8 83.7,48.3 83.7,49.9 82.6,51.1 78.2,51.1 76.4,50.1 76.4,48.2 		"/>
		<path class="st1" d="M84.8,49.6h-4.7l-2.2-1.2V46l2.1-1.7h4.5l1.7,1.8v2L84.8,49.6z M80.3,48.6h4l0.8-0.9v-1.2L84,45.3h-3.7
			l-1.5,1.1v1.4L80.3,48.6z"/>
	</g>
	<g>
		<polygon class="st0" points="38,58.4 40.5,58.4 41.4,59.6 41.4,61.1 39.7,62.5 38,62.5 36.2,61.1 36.2,59.4 		"/>
		<path class="st1" d="M41.9,61h-2.1l-2.1-1.7v-2.2l2.2-1.2h2.9l1.1,1.5v1.9L41.9,61z M40.2,60h1.3l1.4-1.1v-1.1l-0.6-0.9h-2.1
			l-1.4,0.8v1.2L40.2,60z"/>
	</g>
	<g>
		<polygon class="st0" points="48.3,88.2 50.3,88.2 50.3,92.2 49.3,92.8 49.3,94.9 47.7,97.5 46.1,97.5 46.1,91.3 		"/>
		<path class="st1" d="M50,96h-2.4v-6.9l2.4-3.4h2.8v4.8l-1,0.6v2L50,96z M48.6,95h0.8l1.4-2.2v-2.2l1-0.6v-3.2h-1.2l-2,2.8V95z"/>
	</g>
	<g>
		<polygon class="st0" points="0,77.5 4.5,75.1 6,75.1 10.2,79.2 8.4,81 10.2,83.9 8.3,85.2 3.4,81.1 0.8,80.6 		"/>
		<path class="st1" d="M10.3,83.8l-5.1-4.3L2.4,79l-1-3.8l5-2.6h1.8l4.7,4.6L11,79.1l1.8,3L10.3,83.8z M3.2,78.2l2.4,0.5l4.7,3.9
			l1.2-0.8L9.7,79l1.7-1.7l-3.7-3.6H6.6l-4,2.2L3.2,78.2z"/>
	</g>
	<g>
		<polygon class="st0" points="101.8,53.5 101.8,51.4 105.5,48.9 105.5,46.8 112.9,39.4 112.9,36.4 115,35.5 116.3,37.8 118.1,37.8 
			120,43.8 120,48.1 112.9,57.1 107.4,57.1 107.4,59.3 105.5,59.3 106.9,60.9 106.9,63.4 103.9,63.4 101.8,64.6 99.9,64 99.9,66.4 
			96.3,67.3 96.3,69.4 92.4,71.2 92.4,72.5 89.4,72.5 85.7,71.9 84.1,73.5 87,76.3 87,79 90.8,82.3 90.8,83.7 89,85.2 85,82 
			83,83.9 83,85.8 80.9,87.5 80.9,90.7 80,91.5 80,92.8 81.8,91.7 83.7,92.8 83.7,94.9 73.1,102.3 69.9,102.3 69.9,99.2 68.7,97.5 
			68.7,94.6 68.2,92.8 68.2,90.4 70.4,89.2 70.4,87.1 76.4,83.3 73.7,75.1 73.7,71.5 75.4,71.5 76.4,72.2 78,70.8 80,70.8 
			83.7,65.9 87.7,65.9 93.2,61.1 90.8,59.4 87.2,59.4 85.7,56.8 85.7,54.7 87,53.6 85.6,52 85.6,49.7 87.7,49.7 89.6,50.2 
			90.8,49.4 94.1,49.4 97.6,52.9 97,55.8 		"/>
		<path class="st1" d="M75.3,100.8h-3.9v-3.4l-1.2-1.7v-3l-0.5-1.9v-2.7l2.2-1.2v-2.1l5.9-3.7l-2.6-8V69h2.4l0.8,0.6l1.4-1.3h1.9
			l3.7-4.9h4.1l4.9-4.3l-1.8-1.2h-3.7l-1.7-3v-2.5l1.1-0.9l-1.2-1.4v-3h2.7l1.7,0.4l1.1-0.8h3.7l3.8,3.8l-0.4,2.2l3.6-1.7v-2.1
			l3.7-2.5v-2l7.4-7.4v-3.1l2.8-1.2l1.4,2.4h1.9l2,6.5v4.5l-7.4,9.3h-5.2v2.2h-1.3l0.8,0.9v3.2H106l-2.2,1.2l-1.5-0.5v2.1l-3.6,0.9
			v2l-3.9,1.8V71h-3.5l-3.5-0.6l-1.1,1.1l2.7,2.6v2.7l3.8,3.3V82L91,83.8l-4-3.2l-1.5,1.5V84l-2.1,1.7v3.2l-0.9,0.8v0.2l1.3-0.8
			l2.4,1.4v2.6L75.3,100.8z M72.4,99.8h2.5l10.3-7.2V91l-1.4-0.8l-2.3,1.4v-2.4l0.9-0.8v-3.2l2.1-1.7v-1.9l2.5-2.3l4,3.2l1.3-1.1
			v-0.9l-3.8-3.3v-2.7l-3.1-3l2.1-2.1l4,0.6h2.4v-1.1l3.9-1.8v-2.2l3.6-0.9v-2.7l2.3,0.7l2-1.2h2.6V59l-2-2.3h2.5v-2.2h5.8l6.8-8.7
			v-4l-1.8-5.6H118l-1.2-2.2l-1.4,0.6v2.9L108,45v2.2l-3.7,2.5v2.1l-6,2.9l0.8-3.6l-3.2-3.2H93l-1.3,0.8l-2.1-0.5h-1.5v1.6l1.6,1.8
			l-1.5,1.3v1.7l1.3,2.2H93l3,2.2l-6.1,5.3H86l-3.7,4.9h-2.1l-1.8,1.5L77.2,70h-1v3l2.8,8.5l-6.1,3.9v2.1l-2.2,1.2v2l0.5,1.9v2.7
			l1.2,1.7V99.8z"/>
	</g>
	<g>
		<polygon class="st0" points="92.6,80.9 90.4,79 95,74.9 96.5,75.3 96.5,77.9 		"/>
		<path class="st1" d="M94.6,79.5l-3-2.5l5.2-4.7l2.1,0.6v3.2L94.6,79.5z M93.2,77l1.5,1.3l3.4-2.6v-2l-0.9-0.2L93.2,77z"/>
	</g>
</g>
</svg>
