<?xml version="1.0" encoding="utf-8"?>
<!-- Generator: Adobe Illustrator 28.0.0, SVG Export Plug-In . SVG Version: 6.00 Build 0)  -->
<svg version="1.1" id="_レイヤー_2" xmlns="http://www.w3.org/2000/svg" xmlns:xlink="http://www.w3.org/1999/xlink" x="0px"
	 y="0px" viewBox="0 0 120 120" style="enable-background:new 0 0 120 120;" xml:space="preserve">
<style type="text/css">
	.st0{fill:#F0E3D2;}
	.st1{fill:#D7323A;}
</style>
<g>
	<path class="st0" d="M88.2,61.8c-2.5-0.6-3.9-2-5.9-3.2c-1.9-1.1-4.5-1.9-5.9-3.8c-0.6-0.7-1-2.2-1.6-2.7c-0.9-0.7-2.5-0.7-3.4-1.4
		c-1.4-1.1-2.6-2.7-4-3.9c-0.9-0.7-1.3-0.8-1.4-2.1c-0.1-1.5,0.4-1.3,1.6-1.9c2.6-1.3,2.1-2.6,0.6-4.8c-1.2-1.8-2.8-2.1-4.9-2.4
		c-2.6-0.4-4.9-0.5-7.3-1.7c-2-1-4.3-1-4.5-3.6c-0.1-2,0.9-3.3,0.2-5.2c-0.9-2.4-2.7-2.5-4.2-4.2s-2.2-4.4-1.4-6.5
		c0.3-0.9,2.8-5.8,2.6-8.4c-3.4-0.8-7.5,1-11.1,2c-2.9,0.8-3.1-1.8-7-1.8s-2-1.6-6.2-2.1c-4.2-0.4-4.9-0.6-7.7,0.9
		C14,6.5,12.6,7.6,8.1,8.5s-0.8,1-0.9,5.7c-0.2,4.6-1.1,1.6-2.5,5.4c-1.4,3.7,0.3,3.7-3.1,4.8c-3.4,1-0.9,4,3.2,6
		c4.2,1.9,5.9-4.6,7.9-7.9s3.7-9.5,5.7-11.8c2-2.2,4,1.3,6,4.2c2,2.8,0,5.4-2.3,9.1s-1.5,2.2,3.4,3.9c4.9,1.6,3.7,0.1,5.9,1.9
		s0.9,3.1,4.3,6c3.4,2.8,6.6,2.1,6.6,6.1s2.8,1.6,4.9,5.7c2.2,4,2.8,3.3,7,2.4c4.2-0.9,3.6-0.4,8.2,1.3c4.6,1.8,6,5.1,5.9,8.8
		c-0.2,3.7-2.3,4-3.1,7.9c-0.8,3.9,5.3,6.1,7.9,9.1s1.7,3.4-1.9,3s-5.3-3.4-8.2-4.6c-2.9-1.2-4.8,2.2-6.6,4
		c-1.9,1.8-3.4-2.2-5.6-4.9c-2.2-2.7,0.5-6.6,1.5-9.8c1.1-3.3,0.2-4.8-1.5-6.6s-4-2.2-6.2-2.2s-2.5-4-3.4-6.1s-2.9-4.3-5.9-4.9
		c-1.1-0.2,0.5,3.6-0.5,6.9c-0.9,3.4-3,1.1-4.2,7.8s-2.3,3.4-0.7,6.7c1.6,3.4,2.6,2.7,3.9,6.7c1.4,4,4.2,7.2,8.1,10.7
		c3.9,3.6,4.4,0.9,7.4,4.9s4.2,5.8,4.2,9.4s-2.6,11.2-6,14.8c-3.5,3.6,0,3.8,3.9,2s2.8-5.8,5.6-7.4s3.7-2.9,5.8-5.1s3.7-6,4.9-8.5
		c1.2-2.5,1.6-2.5,5.3-2.2c3.7,0.2,3.5,0,5.6-1.8s2.3-2.5,4.9-3.1c2.5-0.7,2.3,0.2,7.7,0c5.3-0.2,4.6-0.9,6.7,2.2s1.2,4.7,0.9,8.1
		c-0.2,3.4-5.3,3.4-7.7,4.9c-2.3,1.6-2.5,4.7-0.9,5.6s2.8,4.3,6,5.8c3.2,1.6,5.8-0.9,7.7-3.8c1.9-2.9,2.1-2.9,6.7-2.7
		c4.6,0.2,4.9-1.8,6.5-5.4s1.9-6,2.5-10.1c0.7-4-1.2-7.2-3.5-11c-2-3.3-3-5.6-7.4-4.7s-6.7,1.8-10.4,4.2c-3.7,2.5-6.5-0.9-9-2.5
		c-2.6-1.6-0.9-4.3,2.8-6c3.7-1.8,4.9-2,6.3-4.5c0.5-0.9,0.8-1.4,1.1-1.7c-1.4-0.6-2.8-1.2-4.2-1.8C93,62.5,90.7,62.4,88.2,61.8z"/>
	<path class="st1" d="M49.4,114.5c-0.7,0-1.3-0.2-1.6-0.6c-0.8-1.1,0.8-2.8,1.4-3.3c3.4-3.6,5.9-11.1,5.9-14.5
		c0-3.5-1.2-5.2-4.1-9.1c-1.5-2-2.3-2.2-3.3-2.5s-2.1-0.6-4.1-2.4c-3.3-3-6.7-6.4-8.2-10.9c-0.7-2.2-1.3-2.9-2-3.7
		c-0.5-0.7-1.2-1.4-1.9-3c-0.2-0.4-0.3-0.6-0.4-0.9c-0.5-0.9-0.6-1.1-0.2-1.8c0.2-0.4,0.7-1.4,1.3-4.4c0.7-4.2,1.9-5,2.8-5.8
		c0.6-0.5,1.1-0.8,1.4-2c0.5-1.7,0.3-3.5,0.2-4.8c-0.1-1.2-0.2-1.9,0.2-2.3c0.2-0.2,0.4-0.2,0.7-0.2c2.8,0.6,5.1,2.5,6.3,5.2
		c0.3,0.6,0.5,1.3,0.7,2.1c0.5,1.8,1,3.7,2.3,3.7c1.9,0,4.6,0.2,6.6,2.4c1.6,1.7,2.8,3.4,1.6,7.1c-0.2,0.8-0.6,1.6-0.9,2.5
		c-1,2.5-2.1,5.1-0.6,6.9c0.6,0.7,1.2,1.6,1.7,2.4c0.9,1.3,1.8,2.7,2.5,2.8c0.1,0,0.3,0,0.7-0.3c0.4-0.4,0.7-0.8,1.1-1.2
		c1.5-1.8,3.4-4,6-2.9c1.2,0.5,2.2,1.3,3.2,2.1c1.5,1.2,2.8,2.2,4.8,2.5c2.4,0.3,2.8,0,2.8,0s0.1-0.4-1.4-2.1
		c-0.8-1-2.1-1.9-3.3-2.7c-2.6-1.9-5.3-3.9-4.7-6.8c0.4-1.9,1.1-3,1.7-4c0.7-1.1,1.3-2,1.4-3.8c0.1-4.1-1.7-6.8-5.6-8.3
		c-1-0.4-1.8-0.7-2.4-1c-2.1-0.9-2.4-1-5.5-0.3c-0.5,0.1-0.9,0.2-1.3,0.3c-3.3,0.8-4.2,0.8-6.3-2.9c-0.9-1.8-1.9-2.2-2.8-2.6
		C45,42.9,44,42.5,44,40.1c0-2.3-1.1-2.8-2.9-3.6c-1.1-0.5-2.3-1.1-3.5-2.1c-2-1.7-2.5-2.9-2.9-3.9c-0.3-0.8-0.6-1.4-1.4-2.1
		c-1.1-0.9-1.2-0.9-1.8-0.9c-0.6,0-1.6-0.1-3.9-0.9c-1.4-0.5-2.4-0.7-3.2-0.9c-1-0.2-1.5-0.3-1.7-0.8c-0.2-0.6,0.1-1.2,1.1-2.7
		l0.7-1.2c2-3.2,3.4-5.3,1.7-7.6l-0.6-0.9c-1.2-1.8-2.5-3.8-3.6-3.8c-0.3,0-0.7,0.1-1,0.5c-1.1,1.2-2.1,3.7-3.1,6.2
		c-0.8,2-1.6,4-2.5,5.5c-0.4,0.7-0.8,1.6-1.3,2.5c-1.6,3.3-3.5,7.3-7.3,5.6c-2.4-1.2-5.2-3.2-5.1-5.1c0.1-0.6,0.4-1.4,1.9-1.8
		c1.9-0.6,1.9-0.7,2.1-1.7c0.1-0.6,0.2-1.5,0.7-2.8c0.7-1.8,1.3-2.2,1.7-2.5c0.4-0.2,0.6-0.4,0.7-2.7c0-1.8-0.6-2.9-0.9-3.6
		c-0.3-0.5-0.5-1-0.3-1.4C7.7,6.6,8.4,6.3,10,6c3.7-0.7,5.2-1.6,7.3-2.8C17.7,3,18,2.8,18.4,2.6c2.7-1.5,3.7-1.4,7.2-1l0.8,0.1
		C28.6,2,29.3,2.6,29.9,3c0.5,0.4,0.9,0.8,2.7,0.8c2.1,0,3.2,0.7,4.1,1.2c0.9,0.5,1.5,0.9,2.8,0.6c0.8-0.2,1.5-0.5,2.3-0.7
		c3-1,6.2-2,9-1.3l0.4,0.1v0.4c0.2,2.2-1.4,5.7-2.2,7.6c-0.2,0.5-0.4,0.8-0.4,1c-0.7,1.8-0.2,4.4,1.3,6c0.5,0.6,1.1,1,1.7,1.4
		c1,0.7,2,1.3,2.6,3c0.5,1.3,0.3,2.3,0.1,3.3c-0.1,0.6-0.3,1.3-0.2,2c0.1,1.5,1,2,2.7,2.5c0.5,0.2,1,0.4,1.6,0.6
		c1.9,0.9,3.7,1.2,5.7,1.4c0.5,0.1,1,0.1,1.5,0.2c1.9,0.3,3.9,0.6,5.2,2.6c0.8,1.2,1.5,2.4,1.3,3.5c-0.2,0.8-0.9,1.4-2,2
		c-0.3,0.1-0.5,0.2-0.7,0.3c-0.7,0.3-0.7,0.3-0.6,1.1c0.1,0.9,0.2,1,0.9,1.5l0.4,0.3c0.7,0.6,1.3,1.2,1.9,1.9c0.7,0.7,1.4,1.5,2.1,2
		c0.4,0.3,0.9,0.4,1.5,0.6c0.7,0.2,1.3,0.4,1.9,0.8c0.4,0.3,0.7,0.9,1,1.6c0.2,0.5,0.4,0.9,0.7,1.2c1,1.3,2.5,2.1,4,2.8
		c0.6,0.3,1.2,0.6,1.7,0.9c0.6,0.3,1.1,0.7,1.6,1.1c1.3,0.9,2.4,1.7,4.1,2.1l0,0c0.9,0.2,1.8,0.4,2.7,0.5c1.5,0.3,3,0.5,4.5,1.1
		l4.9,2.1l-0.5,0.5c-0.3,0.3-0.5,0.7-1,1.6c-1.3,2.2-2.4,2.8-4.9,3.9c-0.5,0.2-1,0.5-1.6,0.8c-2.2,1-3.7,2.4-3.8,3.6
		c0,0.6,0.3,1.1,1,1.5c0.5,0.3,1,0.7,1.5,1.1c2.1,1.6,4.2,3.2,6.9,1.4c3.7-2.4,6.1-3.4,10.6-4.3c4.4-0.9,5.7,1.3,7.5,4.3l0.4,0.7
		c2.2,3.7,4.3,7.1,3.6,11.3L122,90c-0.5,3.7-0.9,6.2-2.5,9.7c-0.2,0.4-0.3,0.7-0.5,1.1c-1.2,2.9-2,4.8-6.5,4.6
		c-4.5-0.2-4.5-0.2-6.3,2.5c-2.7,4.1-5.5,5.4-8.3,4c-2-0.9-3.3-2.6-4.3-3.9c-0.6-0.8-1.2-1.6-1.7-1.9c-0.8-0.4-1.2-1.3-1.3-2.3
		c-0.1-1.6,0.8-3.1,2.2-4.1c0.8-0.5,1.9-0.9,3-1.2c2.2-0.7,4.3-1.3,4.4-3.3c0.1-0.7,0.2-1.4,0.2-2c0.3-2.2,0.5-3.5-1.1-5.8L99.1,87
		c-1.3-1.9-1.3-1.9-3.6-1.8c-0.6,0-1.4,0.1-2.4,0.1c-2.6,0.1-3.9-0.1-4.9-0.2s-1.5-0.2-2.7,0.2c-1.9,0.4-2.4,0.9-3.5,1.9
		c-0.3,0.3-0.7,0.7-1.2,1.1l-0.6,0.5c-1.7,1.5-2,1.6-5.4,1.4c-3.6-0.3-3.8-0.3-4.8,1.9c-0.2,0.4-0.4,0.7-0.5,1.1
		c-1.2,2.5-2.6,5.5-4.5,7.5c-0.4,0.4-0.7,0.8-1.1,1.1c-1.5,1.6-2.5,2.7-4.9,4.1c-1.1,0.6-1.5,1.7-2,3c-0.6,1.6-1.3,3.4-3.6,4.5
		C52.2,114,50.6,114.5,49.4,114.5z M37.4,43.5c0,0.3,0,0.9,0.1,1.3c0.1,1.4,0.3,3.3-0.2,5.2c-0.4,1.5-1.1,2-1.7,2.6
		c-0.8,0.7-1.8,1.4-2.5,5.2C32.5,61,32,62,31.7,62.5c0,0.1-0.1,0.2-0.1,0.2c0,0.1,0.2,0.3,0.3,0.6c0.1,0.2,0.3,0.5,0.4,0.9
		c0.7,1.4,1.2,2.1,1.8,2.7c0.7,0.9,1.4,1.7,2.2,4c1.2,3.5,3.5,6.5,8,10.5c1.8,1.6,2.8,1.9,3.7,2.1c1.1,0.3,2.1,0.6,3.8,2.8
		c3,4,4.3,5.9,4.3,9.7c0,3.9-2.7,11.5-6.1,15.1c-1.3,1.3-1.4,2-1.3,2.1c0.2,0.3,2,0.3,4.6-0.9c2-0.9,2.5-2.4,3.1-3.9
		c0.5-1.3,1-2.7,2.4-3.5c2.2-1.3,3.2-2.3,4.6-3.9c0.3-0.4,0.7-0.7,1.1-1.1c1.7-1.8,3.1-4.8,4.3-7.2c0.2-0.4,0.4-0.8,0.5-1.2
		c1.3-2.8,2-2.8,5.8-2.5c3.1,0.2,3.2,0.1,4.7-1.2l0.6-0.5c0.5-0.4,0.8-0.7,1.1-1c1.2-1.1,1.8-1.7,4-2.2c1.4-0.4,2-0.3,3-0.2
		c0.9,0.1,2.2,0.3,4.7,0.2c1,0,1.8-0.1,2.4-0.1c2.8-0.2,2.9-0.1,4.5,2.2l0.2,0.4c1.8,2.6,1.5,4.2,1.2,6.5c-0.1,0.6-0.2,1.2-0.2,1.9
		c-0.2,2.6-2.8,3.5-5.1,4.2c-1.1,0.3-2.1,0.6-2.8,1.1c-1.3,0.9-1.7,2.3-1.7,3.2c0,0.7,0.3,1.2,0.8,1.5c0.7,0.4,1.3,1.2,2,2.1
		c1,1.3,2.1,2.8,3.9,3.7c2.4,1.2,4.7,0,7.1-3.6c2-3.1,2.4-3.1,7.1-2.9c3.8,0.2,4.3-1.1,5.5-4c0.1-0.3,0.3-0.7,0.5-1.1
		c1.5-3.4,1.8-5.7,2.4-9.4l0.1-0.5c0.7-3.9-1.2-7-3.4-10.7l-0.4-0.7c-1.8-2.9-2.7-4.6-6.5-3.8c-4.4,0.9-6.6,1.8-10.2,4.1
		c-3.3,2.2-5.9,0.2-8.1-1.5c-0.5-0.4-1-0.8-1.5-1c-1.3-0.8-1.5-1.8-1.5-2.4c0.1-1.6,1.7-3.2,4.3-4.4c0.6-0.3,1.1-0.5,1.6-0.8
		c2.4-1.1,3.4-1.6,4.4-3.5c0.3-0.5,0.5-0.9,0.7-1.3l-3.6-1.5c-1.4-0.5-2.8-0.8-4.3-1c-0.9-0.2-1.8-0.3-2.7-0.5l0,0
		c-1.9-0.5-3.1-1.3-4.5-2.2c-0.5-0.3-1-0.7-1.6-1c-0.5-0.3-1.1-0.6-1.7-0.8c-1.5-0.8-3.3-1.6-4.4-3.1c-0.3-0.3-0.5-0.9-0.8-1.4
		c-0.2-0.5-0.5-1-0.7-1.2c-0.4-0.3-0.9-0.4-1.5-0.6c-0.7-0.2-1.3-0.4-1.9-0.8c-0.8-0.6-1.5-1.4-2.2-2.1c-0.6-0.6-1.2-1.3-1.8-1.8
		l-0.3-0.2c-0.8-0.6-1.2-0.9-1.3-2.2c-0.1-1.5,0.4-1.8,1.2-2.1c0.2-0.1,0.4-0.2,0.6-0.3c0.9-0.5,1.4-0.9,1.5-1.4
		c0.2-0.6-0.3-1.5-1.1-2.7c-1.1-1.6-2.4-1.9-4.6-2.2c-0.5-0.1-1-0.1-1.5-0.2c-2-0.3-4-0.5-6-1.5c-0.5-0.2-1-0.4-1.5-0.6
		c-1.5-0.6-3.1-1.1-3.3-3.4c0-0.9,0.1-1.6,0.2-2.3c0.2-0.9,0.4-1.8,0-2.8c-0.5-1.3-1.3-1.9-2.2-2.5c-0.6-0.4-1.3-0.9-1.9-1.6
		c-1.7-1.9-2.3-4.8-1.5-7c0.1-0.2,0.2-0.6,0.4-1.1c0.7-1.6,2.1-4.8,2.1-6.8c-2.5-0.4-5.3,0.5-8.1,1.4c-0.8,0.3-1.6,0.5-2.4,0.7
		c-1.7,0.5-2.6-0.1-3.6-0.7c-0.9-0.5-1.8-1.1-3.6-1.1c-2,0-2.6-0.4-3.3-1c-0.5-0.4-1-0.9-2.9-1.1l-0.8-0.1c-3.5-0.3-4.1-0.4-6.6,0.9
		c-0.4,0.2-0.8,0.4-1.1,0.6c-1.5,1.3-3.1,2.2-7,3C8.8,7.3,8.4,7.4,8.3,7.5c0,0,0.2,0.3,0.3,0.5c0.4,0.8,1.1,2,1.1,4.1
		c-0.1,2.6-0.4,3-1.2,3.5c-0.4,0.2-0.8,0.5-1.4,2.1c-0.5,1.2-0.6,2-0.7,2.6c-0.2,1.4-0.4,1.8-2.8,2.5c-0.6,0.2-1.2,0.5-1.2,1
		c0,1,1.6,2.7,4.6,4.2c2.6,1.2,4.1-1.4,5.9-5.2c0.5-0.9,0.9-1.8,1.3-2.6c0.9-1.4,1.7-3.4,2.5-5.4c1.1-2.6,2.1-5.1,3.3-6.5
		c0.6-0.6,1.2-0.9,1.8-0.9c1.6,0.1,2.9,2.1,4.4,4.3l0.6,0.8c2,2.8,0.4,5.4-1.7,8.7l-0.7,1.2c-0.5,0.9-1,1.6-1,1.8
		c0.1,0,0.6,0.1,1,0.2c0.8,0.2,1.8,0.4,3.3,0.9c2.2,0.7,3.1,0.8,3.7,0.8c0.8,0.1,1.1,0.1,2.3,1.1c1.1,0.9,1.4,1.7,1.7,2.5
		c0.4,1,0.8,2,2.6,3.5c1.2,0.9,2.3,1.5,3.3,2c1.9,0.9,3.5,1.6,3.5,4.5c0,1.8,0.5,2,1.5,2.4s2.3,1,3.3,3.1c1.8,3.2,2.2,3.1,5.2,2.4
		c0.4-0.1,0.8-0.2,1.3-0.3c3.3-0.7,3.8-0.6,6.1,0.4c0.6,0.3,1.4,0.6,2.4,0.9c4.3,1.7,6.3,4.8,6.2,9.3c-0.1,2.1-0.8,3.2-1.5,4.3
		c-0.6,0.9-1.2,1.9-1.6,3.7c-0.5,2.3,1.9,4,4.3,5.8c1.3,0.9,2.6,1.9,3.5,2.9c1.4,1.7,1.9,2.6,1.5,3.2c-0.4,0.8-1.7,0.8-3.8,0.6
		c-2.3-0.3-3.8-1.5-5.3-2.7c-1-0.8-1.9-1.5-3-2c-2-0.8-3.5,0.9-4.9,2.6c-0.4,0.5-0.8,0.9-1.2,1.3c-0.5,0.5-1,0.6-1.5,0.6
		c-1.2-0.1-2.1-1.6-3.2-3.2c-0.5-0.8-1-1.6-1.6-2.3c-1.9-2.3-0.6-5.3,0.5-7.9c0.4-0.8,0.7-1.6,0.9-2.4c1.1-3.2,0.1-4.5-1.4-6.1
		c-1.3-1.4-3.2-2-5.8-2c-2,0-2.6-2.4-3.2-4.4c-0.2-0.7-0.4-1.4-0.6-2C42.4,47.2,40.9,44.3,37.4,43.5z"/>
</g>
</svg>
