<?xml version="1.0" encoding="utf-8"?>
<!-- Generator: Adobe Illustrator 28.0.0, SVG Export Plug-In . SVG Version: 6.00 Build 0)  -->
<svg version="1.1" id="_レイヤー_2" xmlns="http://www.w3.org/2000/svg" xmlns:xlink="http://www.w3.org/1999/xlink" x="0px"
	 y="0px" viewBox="0 0 120 120" style="enable-background:new 0 0 120 120;" xml:space="preserve">
<style type="text/css">
	.st0{fill:#F0E3D2;}
	.st1{fill:#D7323A;}
</style>
<g>
	<path class="st0" d="M119.9,61.2c0-2.4-1.3-3.4-1.9-5.5c-0.7-2.4-0.6-4.6-0.3-6.9c-2.8-1.9-6.2-3-9.3-3.6c-1.7-0.3-4.8-1.4-6.2,0
		c-1.4,1.4-0.7,4-3,2.1c-1.5-1.1-2.8-2-4.9-1.9c-1.6,0-4.3-0.1-5.9,0.5c-1.1,0.4-1.3,0.9-1.9,1.8c-0.3,0.4-0.8,2-1.3,2.2
		c-0.6,0.3-0.6-0.5-1-0.5c-1.7,0.4-3.3,1-5,1.7c-0.9,0.4-2.7,1.2-3.6,0.5c-0.8-0.6-0.4-1.6-0.5-2.4c-0.3-3-1.6-3.1-3.8-1.5
		c-1.7,1.3-3.3,1-5.3,1.6c-1.8,0.6-3.3,1.6-5.2,1.9c-2.4,0.3-4.5,0.2-5.8-1.7c-0.6-0.9-1-1.8-2-2.2c-1-0.3-2,0.4-2.8-0.3
		c-0.3-0.2-0.2-1.1-0.5-1.3c-0.4-0.4-0.8-0.4-1.3-0.6c-1.1-0.6-1.4-0.6-2.1-1.8c-1.5-2.5-1.7-3-5.1-3c-2.3,0-4.6-0.1-6.8-0.3
		c-1.1-0.1-2.2,0.2-3.3,0c-1.5-0.3-1.4-1.1-2.6-1.8c-1.2-0.8-3.7-1.9-5.2-2.2c-1-0.2-2.3,0-3.3-0.3c-0.8-0.3-1.7-0.8-2.7-1.2
		c-2-0.7-3.1-2.3-5.3-2.4c-2.4-0.1-4.8,0.4-6.8,1.5c-1.4,0.8-3.5,2.1-4.5,3.5C0.2,38,0,39.1,0,40.3c0.5-0.4,0.9-0.6,2.1,0.4
		c1,0.8,1.8,3.5,2.4,4.6c1.8,3,2.3,6.1,3.7,9c4,8.2,13.5,7.3,19.6,12.7c2,1.8,1.9,1.2,4.4,2c2.3,0.8,2.1,2.4,3.4,3.7
		c2.5,2.5,6.7,1.7,10.1,2.2c3.2,0.4,8.1,1,10.9,2.7c3,1.8,4.5,6.3,6.9,8.8c3.7,3.9,3.2,0.4,4.1-2.8c0.4-1.5,1-2.7,1.2-4.2
		c0.2-1.8-1.3-3.4-1.4-4.5c-0.1-0.1-0.2-0.2-0.3-0.4c1.1-3.3,8.8-4.7,11.3-3.9c4.3,1.4,7,5.4,10.4,8.2c3.7,3.1,6.3,4.7,11.2,5.5
		c2.7,0.4,5.4,1,8.1,1.3c0.3-0.9-1.6-1.9-2.6-2.6c-1.6-1.2-1.2-3.4-1-5.3c0.2-1.7,0.4-0.9,1.7-1.4c0.8-0.3,1.6-1.4,1.8-2.1
		c0.3-1.7-0.9-3.3,1.5-4c2.2-0.6,4.3,0,6,1.3c0.2,0.1,0.5,0.2,0.7,0.3c-0.2-2.2-0.1-4.3,0.3-5.2c0.5-1,3-1.4,3.4-2.1
		C120.2,63.5,119.9,61.9,119.9,61.2z"/>
	<path class="st1" d="M67.9,86.6c-0.7,0-1.6-0.6-2.8-1.9c-1-1-1.9-2.4-2.7-3.8C61.3,79,60,77,58.3,76c-2.7-1.6-7.5-2.2-10.6-2.6
		c-1-0.1-2-0.2-3.1-0.2c-2.7-0.1-5.5-0.2-7.4-2.1c-0.5-0.5-0.8-1.1-1.1-1.6c-0.5-0.9-0.8-1.5-2.1-2c-0.7-0.2-1.2-0.3-1.6-0.4
		c-1.1-0.2-1.5-0.4-3-1.7C27,63.3,24,62.1,21.1,61c-4.4-1.7-8.9-3.4-11.4-8.5c-0.6-1.2-1-2.5-1.5-3.8C7.6,47,7,45.2,6,43.5
		c-0.2-0.4-0.4-0.9-0.7-1.5c-0.5-1.1-1-2.5-1.6-3c-1-0.8-1.1-0.7-1.5-0.4l-0.8,0.6v-1c0-1.4,0.3-2.5,0.8-3.4
		c0.8-1.2,2.4-2.4,4.7-3.7c2-1.1,4.5-1.7,7.1-1.6c1.5,0.1,2.5,0.7,3.4,1.4c0.6,0.4,1.2,0.8,2,1.1c0.5,0.2,1,0.4,1.5,0.6
		c0.4,0.2,0.9,0.4,1.3,0.6c0.5,0.1,1.1,0.1,1.7,0.2c0.5,0,1.1,0,1.6,0.1c1.6,0.3,4.2,1.5,5.4,2.3c0.5,0.3,0.8,0.7,1.1,0.9
		c0.4,0.4,0.6,0.6,1.3,0.8c0.5,0.1,1.1,0.1,1.7,0c0.5,0,1-0.1,1.5,0c2.2,0.2,4.4,0.3,6.8,0.3c3.5,0,3.9,0.5,5.4,3l0.1,0.2
		c0.5,0.9,0.7,1,1.4,1.4c0.1,0.1,0.3,0.2,0.5,0.2c0.1,0,0.2,0.1,0.3,0.1c0.3,0.1,0.7,0.2,1.1,0.6c0.3,0.2,0.3,0.6,0.4,0.9
		c0,0.1,0.1,0.3,0.1,0.4c0.3,0.2,0.6,0.2,1.2,0.1c0.4-0.1,0.9-0.1,1.5,0c1,0.4,1.5,1.2,2,1.9c0.1,0.2,0.2,0.3,0.3,0.5
		c1.1,1.6,2.9,1.8,5.3,1.5C64,48.4,65,48,66,47.5c0.6-0.3,1.3-0.6,2-0.8s1.4-0.3,2-0.4c1.1-0.2,2.1-0.3,3.1-1.1
		c0.9-0.7,2.2-1.5,3.2-1c0.8,0.3,1.2,1.2,1.4,2.8c0,0.3,0,0.5,0,0.8c0,0.6,0,1,0.3,1.2c0.7,0.5,2.4-0.2,3.1-0.6
		c1.6-0.6,3.3-1.3,5.1-1.7h0.1c0.4,0,0.6,0.3,0.8,0.5l0,0c0.2-0.2,0.5-0.9,0.7-1.2c0.2-0.4,0.3-0.7,0.4-0.8l0.2-0.3
		c0.5-0.7,0.8-1.3,1.9-1.7c1.5-0.6,3.8-0.5,5.5-0.5h0.6c2.3-0.1,3.8,1,5.2,2c0.7,0.6,1,0.6,1,0.6c0.1-0.1,0.3-0.5,0.4-0.8
		c0.2-0.6,0.5-1.3,1-1.9c1.3-1.3,3.8-0.8,5.6-0.4c0.4,0.1,0.7,0.2,1,0.2c3.7,0.7,7,2,9.5,3.7l0.3,0.2v0.3c-0.3,2.1-0.4,4.3,0.3,6.7
		c0.2,0.8,0.5,1.4,0.9,2c0.5,1,1.1,2.1,1.1,3.6c0,0.2,0,0.4,0.1,0.7c0.1,0.8,0.2,1.9-0.1,2.7v0.1c-0.3,0.5-0.9,0.7-1.7,1.1
		c-0.7,0.3-1.5,0.6-1.7,1c-0.3,0.8-0.4,2.8-0.2,4.9l0.1,0.9l-0.8-0.4c-0.1,0-0.2-0.1-0.3-0.1c-0.1-0.1-0.3-0.1-0.4-0.2
		c-1.3-1-3.2-1.9-5.6-1.3c-1.3,0.4-1.2,0.9-1.1,2c0,0.5,0.1,1,0,1.6c-0.3,0.9-1.2,2.1-2.1,2.5c-0.5,0.2-0.9,0.2-1.1,0.2
		c-0.1,0-0.2,0-0.2,0s0,0.1-0.1,0.7l-0.1,0.5c-0.2,1.7-0.4,3.4,0.9,4.4c0.2,0.1,0.4,0.2,0.6,0.4c1.2,0.8,2.6,1.7,2.2,2.8l-0.1,0.4
		h-0.4c-1.6-0.2-3.3-0.5-4.9-0.8c-1.1-0.2-2.1-0.4-3.2-0.5c-5-0.8-7.7-2.5-11.4-5.6C90,76,89,75,88,74c-2.1-2.1-4.3-4.3-7.2-5.2
		c-2.4-0.8-9.4,0.6-10.6,3.4l0.1,0.1l0.1,0.1v0.2c0,0.3,0.3,0.8,0.5,1.3c0.5,0.9,1,2,0.9,3.3c-0.1,1-0.4,1.9-0.7,2.7
		c-0.2,0.5-0.3,1-0.5,1.6s-0.3,1.3-0.4,1.9c-0.3,1.5-0.5,2.7-1.4,2.9C68.2,86.6,68,86.6,67.9,86.6z M2.7,37.5c0.4,0,1,0.2,1.7,0.8
		c0.8,0.6,1.4,2.1,1.9,3.4c0.2,0.5,0.4,1.1,0.6,1.4c1.1,1.8,1.7,3.6,2.3,5.3c0.4,1.3,0.9,2.5,1.4,3.7c2.3,4.7,6.5,6.3,10.9,8
		c3,1.1,6.1,2.3,8.6,4.6c1.3,1.2,1.6,1.2,2.5,1.4c0.4,0.1,0.9,0.2,1.7,0.5c1.7,0.6,2.2,1.6,2.7,2.5c0.3,0.5,0.5,0.9,0.9,1.4
		c1.7,1.7,4.1,1.7,6.7,1.8c1,0,2.1,0.1,3.1,0.2c3.3,0.4,8.2,1,11.1,2.8c1.9,1.1,3.2,3.2,4.4,5.3c0.8,1.4,1.6,2.6,2.6,3.6
		c1.5,1.6,2,1.6,2.1,1.6c0.3-0.1,0.5-1.3,0.7-2.2c0.1-0.6,0.2-1.3,0.4-2c0.2-0.6,0.3-1.1,0.5-1.6c0.3-0.8,0.6-1.6,0.7-2.5
		s-0.4-1.9-0.8-2.7c-0.3-0.5-0.5-1-0.6-1.5c-0.1-0.1-0.2-0.2-0.3-0.4l-0.1-0.2l0.1-0.2c1.2-3.7,9.3-5,11.9-4.2
		c3.1,1,5.4,3.3,7.6,5.5c1,1,2,2,3,2.8c3.6,3,6.2,4.6,11,5.4c1.1,0.2,2.2,0.4,3.2,0.5c1.3,0.2,2.7,0.5,4.1,0.7
		c-0.4-0.4-1.2-0.9-1.6-1.2c-0.2-0.1-0.4-0.3-0.6-0.4c-1.7-1.3-1.5-3.4-1.3-5.3l0.1-0.5c0.1-1.2,0.3-1.6,1.2-1.6
		c0.2,0,0.5,0,0.8-0.2c0.6-0.2,1.3-1.2,1.5-1.8c0.1-0.4,0-0.9,0-1.3c-0.1-1.1-0.2-2.4,1.9-3s4.4-0.1,6.3,1.3c-0.1-1.7,0-3.6,0.4-4.6
		c0.4-0.7,1.3-1.1,2.2-1.5c0.4-0.2,1-0.4,1.2-0.6c0.2-0.6,0.1-1.6,0-2.3c0-0.3-0.1-0.6-0.1-0.8c0-1.4-0.4-2.2-1-3.2
		c-0.3-0.6-0.7-1.3-0.9-2.2c-0.7-2.5-0.6-4.7-0.4-6.8c-2.3-1.5-5.4-2.7-8.9-3.4c-0.3-0.1-0.7-0.1-1.1-0.2c-1.6-0.4-3.7-0.9-4.7,0.1
		c-0.4,0.4-0.6,1-0.8,1.5c-0.2,0.6-0.4,1.2-1,1.4c-0.5,0.1-1-0.1-1.8-0.7c-1.5-1.1-2.7-1.9-4.6-1.8h-0.6c-1.6,0-3.8,0-5.1,0.5
		c-0.8,0.3-1,0.6-1.4,1.3L88.9,46c-0.1,0.1-0.2,0.4-0.3,0.7c-0.4,0.9-0.7,1.5-1.2,1.7c-0.7,0.3-1.1-0.2-1.2-0.4l0,0
		c-1.7,0.4-3.3,1-4.7,1.6c-1,0.5-3,1.3-4.1,0.4c-0.8-0.6-0.7-1.4-0.7-2.1c0-0.2,0-0.4,0-0.7c-0.1-1.2-0.4-1.9-0.8-2
		c-0.3-0.1-0.9-0.1-2.2,0.9c-1.2,0.9-2.4,1.1-3.6,1.3c-0.6,0.1-1.2,0.2-1.9,0.4c-0.6,0.2-1.3,0.5-1.9,0.8c-1,0.5-2.1,0.9-3.4,1.1
		c-2.4,0.3-4.8,0.3-6.3-1.9c-0.1-0.2-0.2-0.3-0.3-0.5c-0.4-0.7-0.8-1.3-1.5-1.5c-0.3-0.1-0.6,0-1,0c-0.6,0.1-1.3,0.2-1.9-0.4
		c-0.3-0.2-0.3-0.6-0.4-0.9c0-0.1-0.1-0.3-0.1-0.4c-0.2-0.2-0.4-0.3-0.7-0.3c-0.1,0-0.3-0.1-0.5-0.2c-0.2-0.1-0.4-0.2-0.5-0.3
		c-0.8-0.4-1.2-0.7-1.8-1.7l-0.1-0.2c-1.4-2.3-1.5-2.5-4.5-2.5c-2.3,0-4.6-0.1-6.8-0.3c-0.4,0-0.9,0-1.4,0c-0.6,0-1.3,0.1-2,0
		c-1.1-0.2-1.5-0.7-1.9-1.1c-0.2-0.3-0.5-0.5-0.9-0.8c-1.1-0.8-3.6-1.8-5-2.1c-0.4-0.1-0.9-0.1-1.4-0.1c-0.7,0-1.4,0-2-0.2
		c-0.5-0.2-0.9-0.4-1.4-0.6c-0.4-0.2-0.9-0.4-1.4-0.6c-0.8-0.3-1.5-0.7-2.2-1.2c-0.9-0.6-1.8-1.1-2.9-1.2C11.6,30.5,9.3,31,7.4,32
		c-2.2,1.3-3.6,2.4-4.3,3.4c-0.3,0.5-0.5,1.3-0.6,2.1C2.6,37.5,2.7,37.5,2.7,37.5z"/>
</g>
</svg>
