<?xml version="1.0" encoding="utf-8"?>
<!-- Generator: Adobe Illustrator 28.0.0, SVG Export Plug-In . SVG Version: 6.00 Build 0)  -->
<svg version="1.1" id="_レイヤー_2" xmlns="http://www.w3.org/2000/svg" xmlns:xlink="http://www.w3.org/1999/xlink" x="0px"
	 y="0px" viewBox="0 0 120 120" style="enable-background:new 0 0 120 120;" xml:space="preserve">
<style type="text/css">
	.st0{fill:#F0E3D2;}
	.st1{fill:#D7323A;}
</style>
<g>
	<path class="st0" d="M36.3,16.1c-1.3-2-0.4-3.1,0.3-4s1.2-2.1,0.6-3.4c-0.4-0.8,0.4-1.2,1-0.5c0.6,0.8,1.6,0.7,2.6,0.1
		C41.7,7.7,42,7.7,42,6.4s1.4-1.4,1.9-0.3c0.4,1.2,4.3,4.6,5.1,5.7c0.8,1.2,13.5,18.5,16.5,20.7c3,2.1,13,10.8,23.6,11.2
		c1.4,4,2.4,4.8,5.5,4.9c3.1,0.1,5.9,0.3,7.8-2.5s4.4-3.7,5.1-4.6c0.7-0.9,2.4-3,3.1-4.2c1,1.8,0.4,3.4-0.2,4.1
		c-0.5,0.8-1.6,1.5-1.6,3.4c-0.4,0.5-2.6,3.6-2.8,4.5c-0.2,0.8-0.3,1.6-0.7,2.3c-0.3,0.5-0.1,1.4,0.3,2c0.7,1,0.9,2.2,2,2.6
		c1.2,0.4,3.2,1,3.3,1.4l-0.2,0.8l-2.2,0.1c0.8,4.6,2.3,6.8,5.2,7.3l3.3-3.1c0.8,0.2,1.3,0.2,1.9-0.1c0.8,0,1.5,0.4,0.9,0.9
		c-0.7,0.5-1.9,0.8-3.1,1l-1.6,1.5l-0.2,1.3l-1,1.1c-1-0.4-2.9-0.2-3.7,0c-0.8,0.2-1.5,0.9-2.4,0.8c-0.9,0-1.6-0.1-1.8,0.8
		c-0.1,0.9-0.7,1.6-1.2,2s-0.3,0.8-0.8,1c-0.5,0.3-2,0.3-2.4,0.2c-0.4-0.1-1.4-0.4-0.9-1.4c0.2-0.4-1.2-0.7-1.7,0
		c-0.5,0.8-1.1,1.6-0.6,1.9s1.5,1.1,0.7,1.1c-0.7,0-2.8-0.7-3.4-0.6s-1.7,0.5-2.5,0.2c-0.8-0.2-2.3-1.4-3.5-1.6
		c-3.3-0.4-9,4.9-11.7,7.2c-2.2,1.8-7.5,9.2-7.7,12.6c0,0.7,0.1,2.7-0.2,3.8c-0.3,1.1-1.7,2.5-1.4,4.1c-1.4-1.4-1.7-2.8-4.1-3.9
		s-10.8-4.4-12.8-6.1c-2-1.6-8.1-5.2-9.7-6.4c-1.6-1.3-6.9-2.3-10.2,0.2c-3.3,2.6-6.7,4.5-7.6,6.7c-1.5-2.3-3.1-4-4.1-5.4
		s-2.5-2.4-3.9-1.8c-1.4,0.5-2-0.9-3-0.1c-1.6,1.3-3.4,5.1-3.5,7c0.2,1.2,0.2,2.3,2.5,2.7c0.9,0.9,1.1,1,1.8,1.7
		c1,1,2.2,1.5,3.1,0.9c1-0.6,2.1-0.4,3,1s1.2,1.6,2,2.1c0.8,0.4,0.6,1.3,1.2,1.9c0.5,0.6,1.4,0.7,2.4,0.9c0.5,0.1,1.1,0.6,1.4,0.8
		c0.4,0.2,0.1,0.6,0.4,0.8c0.3,0.2,0.8,0.9,0,1.1c-0.6,0.1-1,0.1-1.2,0.7s-0.5,1-1.5,1.1s-1.6-0.3-2.5-0.8c-0.9-0.4-2.3-1.1-3.3-0.2
		c-0.4,0.3-0.9,0.1-0.7-0.4c0.3-0.6,0.5-0.9-0.1-1.2c-0.6-0.3-1.4,0-1.4,0.6c-0.1,0.5-0.4,1.3-0.9,1.7c-0.4,0.4-0.9,0.8-1.4,0.8
		s-1.4,0.2-1.4,1c0,0.9,0,2.6,0,2.6s0.2,0.8-0.9,1.1c-1.2,0.3-2.2,0.4-2.6,1.2c-0.4,0.8-0.9,1.8-1.3,1.8c-0.5,0-0.6-1-1.3-0.8
		s-0.6,0.8-1.4-0.3c-0.8-1.1-1.4-2.6-1.4-3.8c0-1.2,0.6-3,1.6-4.3c1-1.4,1.5-3,1.4-4.2c-0.1-1.1-1.1-3.7-2-4.5s-1-0.8-2.1-0.8
		L2,93.6l-1.4-0.4c0,0-1-1.9-0.4-3c0.7-1.2,1.2-0.9,1.3-2.3c0.1-1.4,0.1-2.5-0.4-3.5c-0.5-0.9,0.4-2.1,1-2.6s2.1-0.6,2.9-0.7
		s0.8-0.7,1.2-1.1c0.4-0.4,1-0.3,1.2-0.6c0.3-0.2,0.2-1.5,0.9-1.8c0.7,0.1,0.9,0.7,1,1s0.6,0.7,1.1,0.3c0.5-0.4,0-1,0.4-1.6
		s1.1-1.1,1.3-1.8c0.2-0.7,0.6-0.8,1.5-1.4c1.3-0.8,1.9-1.3,1.2-2.5c-0.8-1.2-1.1-2-1.8-2.6s-2.1-1.5-1.7-2.7s0.5-1.8,0.5-2.2
		c0.7,0,2-0.1,2.1-0.5s0.6-0.9,1-0.4c0.5,0.5,1.9,1.6,2.5,2c0.1,0.5,0.5,0.9,1.1,0.9s1.4,0.5,1.6,0.9s0.6,0.9,1.3,0.5
		c0.7-0.4,1.7-0.7,2.4-1c0.7-0.3,1.3,0,1.2,0.7c-0.1,0.7,0.5,0.9,1,0.9s0.9,0.8,1.7,0.8c0.8,0,1.7-0.6,2.2-1.2s2.2-2.2,2.6-3.1
		c0.4-0.9,0.9-2.3,0.4-3.4c-0.5-1.1-1.7-1.9-1.1-3.1c0.6-1.2,0.3-1.3-0.1-2.2c-0.4-0.9-1-2.2-0.2-3.5s2.1-1.5,3.4-2.2
		c1.4-0.7,2.5-2.1,2.6-4.4c0.1-2.3-0.4-7.3-0.1-7.8c0.3-0.6,1.3-2.3,1.9-3.4c0.6-1.1,0-2.1,0.5-3.4c0.4-1.3,0.6-4.8-0.3-7.4
		C38.6,21.6,37.5,18.1,36.3,16.1z"/>
	<path class="st1" d="M10.4,113.1c-0.5,0-0.7-0.4-0.9-0.6c-0.1-0.1-0.2-0.2-0.2-0.2c-0.2,0-0.2,0.1-0.3,0.2c-0.7,0.5-1.2,0-1.6-0.6
		c-0.9-1.2-1.5-2.9-1.5-4.1c0-1.4,0.7-3.3,1.7-4.6c0.9-1.2,1.4-2.7,1.3-3.9c-0.1-1-1-3.5-1.8-4.2s-0.8-0.7-1.8-0.7H4.9L3.7,92
		l-1.4-0.4l-0.1-0.2C2,91.2,1.1,89.3,1.8,88c0.3-0.5,0.6-0.8,0.8-1C2.8,86.7,3,86.5,3,85.9c0.1-1.4,0.1-2.4-0.3-3.2
		C2,81.5,3,80.1,3.8,79.4c0.6-0.5,1.9-0.7,2.8-0.8H7c0.3,0,0.4-0.2,0.5-0.4c0.1-0.2,0.2-0.4,0.4-0.5c0.3-0.3,0.7-0.4,0.9-0.5
		c0.1,0,0.2-0.1,0.2-0.1L9.1,77c0-0.1,0.1-0.2,0.1-0.3c0.1-0.5,0.3-1.3,1-1.5l0.1-0.1h0.1c1,0.1,1.3,1,1.4,1.3c0,0,0.1,0.1,0.2,0.1
		c0,0,0.1,0,0.2-0.1c0,0,0.1-0.1,0-0.4c0-0.3,0-0.7,0.2-1.1c0.2-0.2,0.4-0.5,0.6-0.7c0.3-0.3,0.6-0.6,0.7-1c0.2-0.7,0.6-1,1.2-1.4
		c0.1-0.1,0.3-0.2,0.5-0.3c1.4-0.9,1.5-1.1,1-1.8c-0.3-0.4-0.5-0.8-0.7-1.1c-0.4-0.6-0.6-1-1-1.4c-0.1-0.1-0.2-0.2-0.3-0.2
		c-0.8-0.6-2-1.6-1.6-3c0.3-1,0.5-1.6,0.5-2v-0.5h0.5c0.8,0,1.5-0.1,1.6-0.2c0.1-0.4,0.5-0.8,0.9-0.9c0.4-0.1,0.7,0.1,1,0.4
		c0.4,0.4,1.8,1.5,2.4,1.9l0.2,0.1V63c0,0.1,0.1,0.5,0.6,0.5c0.8,0,1.7,0.6,2,1.2c0.1,0.2,0.2,0.3,0.3,0.4c0.1,0,0.2,0,0.3-0.1
		c0.5-0.3,1.1-0.5,1.7-0.7c0.3-0.1,0.6-0.2,0.8-0.3c0.5-0.2,1.1-0.2,1.5,0.1c0.3,0.3,0.5,0.7,0.4,1.1c0,0.1,0,0.2,0,0.2
		c0.1,0.1,0.2,0.1,0.5,0.1c0.4,0,0.7,0.2,1,0.4c0.3,0.2,0.5,0.4,0.7,0.4c0.6,0,1.4-0.5,1.8-1c0.1-0.2,0.4-0.4,0.7-0.7
		c0.6-0.7,1.6-1.7,1.9-2.2c0.6-1.3,0.7-2.3,0.4-3c-0.1-0.3-0.3-0.6-0.5-0.9c-0.5-0.7-1.1-1.6-0.6-2.7c0.4-0.8,0.3-0.9,0.1-1.3
		c-0.1-0.1-0.1-0.3-0.2-0.4c-0.4-0.9-1.1-2.5-0.2-4c0.7-1.1,1.6-1.5,2.6-1.9c0.3-0.1,0.7-0.3,1-0.5c1-0.5,2.2-1.6,2.3-4
		c0-1,0-2.5-0.1-4c-0.1-2.9-0.1-3.7,0.1-4c0.2-0.3,0.5-1,1-1.7c0.3-0.6,0.7-1.2,0.9-1.7s0.2-0.9,0.2-1.4c0-0.6,0-1.2,0.2-1.9
		c0.4-1.2,0.6-4.5-0.3-7.1c-0.3-0.6-0.6-1.4-0.9-2.2c-0.7-1.9-1.5-4-2.3-5.3c-1.5-2.3-0.4-3.6,0.3-4.5c0.8-1,1-2,0.6-2.9
		c-0.3-0.6-0.1-1.2,0.3-1.4c0.4-0.3,1-0.2,1.6,0.4c0.5,0.7,1.5,0.3,2,0l0.3-0.2c0.6-0.4,0.7-0.4,0.7-1.3c0-0.8,0.4-1.4,1.1-1.5
		c0.7-0.1,1.4,0.3,1.8,1c0.2,0.7,1.9,2.3,3.1,3.5c0.9,0.9,1.6,1.6,1.9,2.1C52.4,10.9,65,28,67.9,30.2c0.4,0.3,0.9,0.7,1.5,1.1
		c4.1,3.1,12.7,9.6,21.8,10h0.3l0.1,0.3c1.4,3.9,2.3,4.5,5,4.6h0.3c2.9,0.1,5.4,0.2,7-2.3c1.3-1.9,2.8-3,4-3.7
		c0.5-0.4,1-0.7,1.2-0.9l0.4-0.5c0.8-1,2.1-2.7,2.7-3.6l0.4-0.8l0.4,0.8c1.2,2.1,0.4,3.9-0.3,4.7c-0.1,0.2-0.3,0.4-0.4,0.6
		c-0.5,0.6-1,1.2-1,2.5v0l-0.1,0.1c-0.5,0.6-2.5,3.6-2.7,4.3c0,0.2-0.1,0.4-0.1,0.6c-0.1,0.6-0.3,1.3-0.6,1.9
		c-0.2,0.3-0.1,0.9,0.3,1.5c0.2,0.3,0.4,0.7,0.6,1c0.3,0.7,0.6,1.2,1.2,1.4l0.5,0.2c2.3,0.7,3,1.1,3.1,1.6v0.1l-0.3,1.3l-2,0.1
		c0.8,3.9,2.1,5.8,4.4,6.3l3.3-3.1l0.3,0.1c0.7,0.2,1.1,0.2,1.6-0.1l0.1-0.1h0.1c0.6,0,1.4,0.2,1.6,0.8c0.1,0.2,0.1,0.6-0.4,1
		c-0.7,0.5-1.7,0.8-3.2,1.1l-1.4,1.3l-0.2,1.3L116,67l-0.3-0.1c-0.8-0.3-2.6-0.2-3.4,0c-0.2,0.1-0.5,0.2-0.8,0.3
		c-0.5,0.3-1.1,0.6-1.8,0.5h-0.2c-0.9,0-1,0-1.1,0.4c-0.1,1.2-1,2-1.4,2.3c-0.1,0.1-0.2,0.2-0.2,0.3c-0.1,0.2-0.2,0.5-0.7,0.7
		c-0.6,0.4-2.3,0.3-2.7,0.2c-0.3-0.1-1-0.3-1.3-0.9c-0.1-0.2-0.2-0.5,0-0.9c-0.2,0-0.6,0-0.7,0.2l-0.2,0.2c-0.2,0.3-0.5,0.8-0.5,1
		c0.5,0.3,1.3,0.9,1.2,1.5c0,0.1-0.2,0.5-0.8,0.5c-0.4,0-1-0.1-1.7-0.3c-0.6-0.1-1.4-0.3-1.7-0.3c-0.1,0-0.3,0.1-0.4,0.1
		c-0.7,0.2-1.6,0.4-2.3,0.1c-0.3-0.1-0.8-0.4-1.4-0.7c-0.7-0.4-1.4-0.8-2-0.9c-2.8-0.3-7.7,4-10.4,6.3c-0.3,0.3-0.6,0.5-0.9,0.8
		c-2.2,1.8-7.3,9.1-7.5,12.2v0.4c0,0.9,0,2.5-0.2,3.5c-0.1,0.4-0.4,0.9-0.6,1.3c-0.5,0.8-0.9,1.7-0.8,2.5l0.3,1.6l-1.1-1.1
		c-0.5-0.5-0.8-0.9-1.2-1.4c-0.7-0.9-1.3-1.7-2.8-2.4c-0.6-0.3-1.5-0.6-2.5-1.1c-3.5-1.5-8.8-3.7-10.4-5.1c-1.1-0.9-3.6-2.5-5.8-3.8
		c-1.7-1.1-3.2-2-3.9-2.5c-1.4-1.1-6.4-2.2-9.6,0.2c-0.9,0.7-1.8,1.3-2.6,2c-2.3,1.6-4.2,3-4.8,4.5L26.4,90l-0.5-0.8
		c-0.9-1.4-1.9-2.6-2.7-3.6c-0.5-0.6-1-1.2-1.4-1.8c-0.8-1.1-2.1-2.1-3.3-1.6c-0.9,0.3-1.5,0.1-2-0.1s-0.6-0.2-0.9,0
		c-1.5,1.2-3.2,4.8-3.3,6.6v0.2c0.2,1.1,0.3,1.7,2.1,2h0.2l0.1,0.1c0.5,0.5,0.7,0.7,1,0.9c0.2,0.2,0.5,0.4,0.8,0.8
		c0.7,0.7,1.8,1.3,2.5,0.8c1.3-0.8,2.7-0.4,3.7,1.1c0.9,1.3,1.1,1.5,1.8,1.9c0.6,0.3,0.8,0.8,0.9,1.3c0.1,0.3,0.2,0.5,0.4,0.7
		c0.4,0.4,1,0.5,1.8,0.7l0.4,0.1c0.5,0.1,1,0.5,1.4,0.7l0.2,0.1c0.4,0.2,0.4,0.6,0.5,0.8l0,0c0.3,0.2,0.7,0.7,0.6,1.2
		c0,0.2-0.2,0.6-0.8,0.7h-0.2c-0.5,0.1-0.6,0.1-0.6,0.3c-0.2,0.7-0.6,1.3-1.9,1.4c-1.1,0.1-1.8-0.3-2.6-0.7l-0.3-0.2
		c-1-0.5-2-0.8-2.6-0.2c-0.4,0.3-0.9,0.4-1.3,0.1c-0.2-0.2-0.4-0.6-0.2-1l0.1-0.1c0.1-0.1,0.1-0.3,0.2-0.4c0,0-0.1,0-0.1-0.1
		c-0.2-0.1-0.4-0.1-0.6,0c-0.1,0.1-0.1,0.1-0.1,0.1c-0.1,0.7-0.5,1.6-1.1,2.1c-0.4,0.4-1,0.9-1.7,0.9c0,0-0.9,0-0.9,0.5v2.6
		c0.1,0.4-0.1,1.3-1.3,1.6c-0.2,0.1-0.4,0.1-0.6,0.1c-0.9,0.2-1.5,0.4-1.7,0.8C11.5,112.3,11.1,113.1,10.4,113.1z M9.3,111.3
		c0.5,0,0.8,0.4,1,0.6l0.1,0.1c0.2-0.3,0.7-1.1,0.9-1.5c0.4-0.9,1.4-1.1,2.4-1.3c0.2,0,0.4-0.1,0.5-0.1c0.5-0.1,0.6-0.4,0.5-0.5
		v-0.1v-2.6c0-1,1-1.5,1.9-1.5c0.2,0,0.5-0.1,1-0.7c0.4-0.3,0.7-1,0.8-1.4c0-0.3,0.2-0.7,0.6-0.9c0.5-0.3,1.1-0.3,1.5-0.1
		c0.3,0.2,0.5,0.4,0.6,0.6c0.1,0.3,0,0.5-0.1,0.8c1.2-0.7,2.6-0.1,3.4,0.3l0.4,0.2c0.8,0.4,1.2,0.7,2,0.6s0.9-0.3,1.1-0.8
		c0.3-0.8,0.9-0.9,1.4-1h0.1c0-0.1-0.1-0.2-0.2-0.2c-0.3-0.2-0.4-0.6-0.4-0.7c-0.1-0.1-0.2-0.2-0.2-0.2c-0.3-0.2-0.7-0.5-1-0.6
		l-0.4-0.1c-0.9-0.2-1.8-0.3-2.3-1c-0.3-0.3-0.5-0.7-0.6-1c-0.1-0.4-0.2-0.6-0.5-0.7c-0.9-0.6-1.3-0.8-2.2-2.3
		c-0.7-1.1-1.5-1.4-2.3-0.8c-1,0.7-2.4,0.3-3.7-1c-0.3-0.3-0.5-0.5-0.8-0.7c-0.2-0.2-0.5-0.5-0.9-0.9c-2.3-0.5-2.5-1.7-2.7-2.8v-0.3
		v-0.1c0.1-2,1.9-5.9,3.7-7.4c0.7-0.6,1.4-0.3,1.9-0.1c0.4,0.2,0.8,0.3,1.3,0.1c1.4-0.6,3.2,0.1,4.5,2c0.4,0.5,0.8,1.1,1.3,1.7
		c0.7,0.9,1.5,1.9,2.3,3c0.9-1.4,2.7-2.7,4.7-4.2c0.8-0.6,1.7-1.3,2.6-1.9c3.5-2.7,9.1-1.6,10.8-0.2c0.7,0.5,2.2,1.5,3.8,2.5
		c2.2,1.4,4.7,3,5.9,3.9c1.5,1.3,6.9,3.6,10.1,4.9c1.1,0.5,2,0.8,2.6,1.1c1.7,0.8,2.5,1.8,3.2,2.7c0.1,0.1,0.2,0.2,0.3,0.4
		c0.2-0.7,0.5-1.3,0.8-1.9c0.2-0.4,0.4-0.8,0.5-1.1c0.2-0.8,0.2-2.4,0.2-3.2v-0.5c0.2-3.6,5.5-11.1,7.9-13l0.9-0.8
		c3-2.6,8-6.9,11.2-6.5c0.8,0.1,1.6,0.6,2.4,1c0.5,0.3,0.9,0.5,1.2,0.6c0.5,0.2,1.3,0,1.8-0.1c0.2,0,0.4-0.1,0.5-0.1
		c0.4-0.1,1,0.1,2.1,0.3c0.2,0,0.3,0.1,0.5,0.1l0,0c-0.2-0.1-0.4-0.3-0.4-0.5c-0.1-0.5,0.2-1.1,0.7-1.8l0.2-0.3
		c0.6-0.8,1.7-0.8,2.3-0.4c0.4,0.3,0.5,0.6,0.3,0.9c0,0.1-0.1,0.3-0.1,0.4s0.1,0.2,0.6,0.3c0.3,0.1,1.7,0.1,2-0.1
		c0.1-0.1,0.1-0.1,0.2-0.2c0.1-0.2,0.2-0.5,0.5-0.7s0.9-0.8,1-1.7c0.3-1.3,1.3-1.2,2.1-1.2h0.2c0.5,0,0.8-0.1,1.3-0.4
		c0.3-0.2,0.6-0.3,1-0.4c0.7-0.2,2.5-0.4,3.7-0.1l0.7-0.8l0.2-1.3l1.8-1.7h0.1c1.3-0.2,2.2-0.5,2.8-0.8c-0.1,0-0.2-0.1-0.4-0.1
		c-0.6,0.3-1.2,0.3-1.9,0.1l-3.3,3.1h-0.2c-3.1-0.5-4.8-2.8-5.6-7.7l-0.1-0.6l2.4-0.1v-0.2c-0.4-0.3-1.8-0.7-2.4-0.9l-0.5-0.2
		c-1-0.3-1.3-1.1-1.7-1.9c-0.2-0.3-0.3-0.6-0.5-0.9c-0.5-0.7-0.7-1.8-0.3-2.5c0.3-0.5,0.4-1,0.5-1.6c0-0.2,0.1-0.4,0.1-0.6
		c0.2-1,2.3-3.9,2.8-4.6c0-1.5,0.7-2.3,1.3-3c0.2-0.2,0.3-0.4,0.4-0.5c0.4-0.5,0.9-1.5,0.5-2.8c-0.7,1-1.6,2.1-2.2,2.9l-0.4,0.5
		c-0.3,0.4-0.8,0.7-1.4,1.1c-1.1,0.7-2.5,1.7-3.7,3.5c-2,2.9-4.9,2.8-7.9,2.7h-0.3c-3.3-0.1-4.4-1-5.8-4.9c-9.3-0.5-17.9-7-22-10.2
		c-0.6-0.5-1.1-0.8-1.5-1.1c-3.1-2.3-15.7-19.5-16.6-20.8c-0.3-0.4-1-1.1-1.8-1.9c-1.8-1.8-3.1-3.1-3.3-3.9
		c-0.2-0.3-0.4-0.4-0.6-0.4c-0.3,0.1-0.3,0.4-0.3,0.5c0,1.3-0.4,1.6-1.1,2.1l-0.3,0.2c-1.4,0.8-2.6,0.7-3.3-0.2
		c-0.1-0.1-0.2-0.1-0.2-0.2c0,0,0,0.1,0.1,0.1c0.6,1.3,0.4,2.6-0.7,3.9c-0.7,0.9-1.4,1.7-0.3,3.4l0,0c0.9,1.4,1.7,3.6,2.4,5.5
		c0.3,0.8,0.6,1.6,0.9,2.2c0.9,2.7,0.8,6.3,0.3,7.7c-0.2,0.6-0.2,1-0.2,1.5c0,0.6,0,1.3-0.3,1.9c-0.3,0.5-0.6,1.1-0.9,1.7
		c-0.4,0.7-0.8,1.4-0.9,1.7c-0.1,0.3,0,2.1,0.1,3.5c0.1,1.5,0.1,3,0.1,4.1c-0.1,2.2-1.1,3.9-2.9,4.8c-0.4,0.2-0.7,0.4-1.1,0.5
		c-0.9,0.4-1.6,0.7-2.1,1.5c-0.6,1.1-0.2,2.1,0.2,3c0.1,0.2,0.1,0.3,0.2,0.4c0.4,0.7,0.5,1.1-0.1,2.2c-0.3,0.5,0,0.9,0.5,1.6
		c0.2,0.3,0.5,0.6,0.6,1c0.4,1,0.3,2.2-0.4,3.8c-0.3,0.7-1.3,1.7-2,2.5c-0.3,0.3-0.5,0.5-0.6,0.7c-0.6,0.7-1.6,1.4-2.6,1.4
		c-0.6,0-1-0.3-1.4-0.6c-0.1-0.1-0.3-0.2-0.3-0.2l0,0c-0.3,0-0.9-0.1-1.2-0.5c-0.2-0.2-0.3-0.5-0.3-1v-0.2c-0.1,0-0.2-0.1-0.5,0
		c-0.2,0.1-0.5,0.2-0.8,0.3c-0.5,0.2-1.1,0.4-1.5,0.7c-0.5,0.3-0.8,0.2-1.1,0.2c-0.4-0.1-0.7-0.4-0.9-0.9c-0.1-0.2-0.7-0.6-1.2-0.6
		c-0.7,0-1.3-0.4-1.5-1.1c-0.7-0.5-1.9-1.5-2.4-2l-0.1-0.1c0,0-0.1,0.1-0.1,0.2c-0.1,0.5-0.8,0.8-2.1,0.9c-0.1,0.5-0.2,1.1-0.5,1.9
		c-0.2,0.7,0.4,1.3,1.2,1.9c0.1,0.1,0.2,0.2,0.3,0.3c0.5,0.5,0.8,1,1.2,1.6c0.2,0.3,0.4,0.7,0.7,1.1c1,1.7-0.2,2.5-1.4,3.2
		c-0.2,0.1-0.3,0.2-0.5,0.3c-0.6,0.3-0.7,0.4-0.8,0.8c-0.2,0.6-0.5,1-0.9,1.4c-0.2,0.2-0.3,0.4-0.5,0.6c-0.1,0.1-0.1,0.3-0.1,0.5
		c0,0.3,0,0.8-0.4,1.2c-0.3,0.3-0.7,0.3-1.1,0.2c-0.4-0.1-0.7-0.4-0.8-0.8c-0.1-0.3-0.2-0.5-0.4-0.6c-0.1,0.2-0.2,0.5-0.3,0.8
		c-0.4,1.2-0.4,1.5-0.6,1.7C9.6,78,9.3,78.1,9,78.1c-0.2,0.1-0.4,0.1-0.5,0.2s-0.1,0.2-0.2,0.3c-0.2,0.3-0.5,0.8-1.3,0.9H6.6
		c-0.7,0.1-1.9,0.2-2.3,0.5c-0.5,0.4-1.2,1.4-0.9,2C4,83.2,4,84.5,3.9,85.8c-0.1,1-0.3,1.3-0.7,1.7c-0.2,0.2-0.4,0.4-0.6,0.8
		c-0.3,0.6,0.1,1.8,0.3,2.3L4.3,91l1.2,2.2c1,0,1.2,0.1,2.1,0.9c1,0.9,2.1,3.6,2.2,4.8c0.1,1.4-0.5,3.1-1.5,4.5c-1,1.3-1.5,3-1.5,4
		s0.5,2.4,1.3,3.5c0.1,0.2,0.2,0.3,0.3,0.4c0.2-0.1,0.3-0.2,0.6-0.3C9.1,111.3,9.2,111.3,9.3,111.3z"/>
</g>
</svg>
