<?xml version="1.0" encoding="utf-8"?>
<!-- Generator: Adobe Illustrator 28.0.0, SVG Export Plug-In . SVG Version: 6.00 Build 0)  -->
<svg version="1.1" id="_レイヤー_2" xmlns="http://www.w3.org/2000/svg" xmlns:xlink="http://www.w3.org/1999/xlink" x="0px"
	 y="0px" viewBox="0 0 120 120" style="enable-background:new 0 0 120 120;" xml:space="preserve">
<style type="text/css">
	.st0{fill:#F0E3D2;}
	.st1{fill:#D7323A;}
</style>
<g>
	<path class="st0" d="M116.5,116.6c-0.3,0-0.7,0-1,0c0.2-1.9-0.4-3.4-1.2-5.1c-0.6-1.3-1.3-4.2-2.3-5.1c-0.7-0.6-1.7,0-2.5-0.5
		c-0.5-0.3-1.1-1.6-1.6-2.1c-1-0.9-1.3-0.2-2.1-1.5c-0.3-0.4,0-1.8,0-2.2c-1.8-0.4-2.4,1.4-4.2,1.3c-2.3-0.2-2.7-1.8-2.6-3.4
		c0-1.5,1.1-3,0.5-4.5c-0.9-2.3-3.3-2.5-2.8-5.5c-2.5,0.8-2-5.1-1.7-6.5c0.4-1.6,1.4-2.4,1.9-3.8c0.5-1.3,0-2.4-0.2-3.6
		c-0.5-4.3-2.3-9.7-0.9-14c1-3.3,1.6-4.2-1.6-6.6c-1.3-1-2.6-1.4-3.5-2.8c-0.9-1.5,0.1-2.3-2.1-2.8c-1.2-0.3-2.7,0.3-3.9,0.2
		c-1.3-0.1-2.6-0.9-3.7-1.2c-2.6-0.9-5-0.6-7.8-0.9c-3-0.2-5.6-0.9-7.2-3.3c-0.8-1.2-1.1-2.4-2-3.6c-0.9-1.1-2.5-2.1-2.9-3.6
		c-0.3-1.2,0.4-2.7,0-3.9c-0.4-1.5-1.9-2.2-2.1-3.6c-0.5-2.7,2-3.2,4.2-3.7c-0.3-0.1-0.6-0.2-0.9-0.6c-0.8-0.8-0.5-0.5-1.7-1.4
		c-1.3-0.9,0.8-1.4,1.5-1.7c0.8-0.3,0.1-0.7-0.2-1.4c-0.3-0.7-1.7-0.6-2.9-0.1s-1.4,1.7-1.9,2.4c-1.1,1.5-1.4,0.4-3.8,1.8
		c-2.4,1.4-4,1.2-4.7,2.8c-0.7,1.6-1.1,3.3-3.1,2.8s-2.9-1-4.5-1.6c-1.6-0.5-2.2-1-1.6-1.7c0.5-0.7,3.3-0.7,3.4-2.4
		c0.2-1.7-1.4-2.6-3.6-3c-2.2-0.4-1.8-0.9-0.5-1.9s1.3-1.4,1.8-3s1.1-2.4,4.5-3.5c3.4-1,0.2-2.3-0.2-4.2c-0.5-1.6-2.3-3.6-3.6-5
		C40,1.2,40,1.1,38,0.2s-2.5,1.6-5.1,1.9c-2.5,0.3-4.2,0-6.3,1.4c-2.2,1.4-4.9,4.5-8.5,5.2s-4.7,1.9-6.2,4c-1.4,2.1-3.6,1.6-7.8,0.9
		c-0.2,0-0.5-0.1-0.7-0.1c0.3,1.8,0.9,3.4,0.6,5.3c-0.3,1.8-0.8,1.6,0.5,3.1c1,1.2,2.5,1.7,3.1,3.3c0.7,1.8,0.6,5.8,4.1,4.7
		c0.9-0.3,1-1.3,1.5-1.6c0.6-0.3,1.3-0.2,1.9-0.4c1-0.4,2.5-1.2,3.7-0.7c2,0.9,1,4.1,0.9,6.1s2,5.2,1.2,6.9c-0.5,1-2,1.3-2.8,1.9
		c-1.3,0.9-1.4,2.1-3.5,1.6c-2.5-0.6-4.4-4.3-4.8,0.7c-0.1,1.5-0.7,5.6,0,6.9c0.6,1,5.1,3.1,6.5,3.7c1.3,0.6,2.4,0.4,3.6,1.2
		c1,0.7,1.4,2.1,2.1,3c2.9,3.8,2.1-1,5.1-1.9c1.1-0.3,2.5-0.1,3.4,0.6c1.4,1.1,0.5,1.7,1,3c0.4,1.1,1.2,1.3,1.9,2.5
		c0.5,0.7,0.6,2.4,1,3.3c0.6,1.2,0.2,2.1,1.9,2.5c1.9,0.5,1.8-0.7,3.2-1.4c3.2-1.6,4-0.2,4.1,2.7c3.7,0.2,14.8,2.3,10.1,8
		c-1,1.2-2.6,1.7-3.6,2.6c0.3,0,0.6,0.1,0.9,0.2c1.1,0.5,1.7,0.9,2.1,2.1c0.4,1.2,0,1.5,1,2.3c0.8,0.6,1.9,0.6,2.8,0.6
		c1.4,0.1,4.2,0,5.3,0.9c1.5,1.2,1.1,4.2,2,5.7c0.7,1.1,1.2,0.9,2.3,1.5c1.1,0.6,1.1,1.7,1.9,2.3c1.8,1.4,3.6-1,2.8-2.8
		c-0.5-1.1-1.9-0.6-1.6-2.3c0.2-1.5,1.5-1.5,2.9-1.5c4.1-0.1,2,1.8,3.1,4c0.6,1.1,1.9,0.9,2.7,1.6c0.9,0.7,1.1,2.2,1.5,3.1
		c0.8,2,2.2,3.5,3.3,5.3c1.1,1.8,3.2,3,3.7,5.2c0.3,1.4-0.2,2.5-0.5,3.6c0.5,0.6,0.6,1.8,0.9,2.5c0.9,2.1,0.8,2.3,3.2,2.5
		c0.7,0.1,1.5-0.2,2.2,0c1,0.3,0.8,0.9,1.7,1.3c1.4,0.7,2.7,0.8,4.3,0.5c4.2-0.8,5.9-5.6,10-2.5c1.6,1.2,2.8,2.9,5.1,2.3
		c1.3-0.3,1.1-0.8,2-1.6c0.3-0.3,0.5-0.5,0.8-0.7C116.6,117.1,116.5,116.9,116.5,116.6z"/>
	<path class="st1" d="M99,118.4c-1.1,0-2-0.2-3-0.7c-0.5-0.2-0.8-0.5-0.9-0.8c-0.2-0.2-0.3-0.4-0.7-0.5c-0.3-0.1-0.7,0-1,0
		c-0.4,0-0.7,0.1-1.1,0c-2.3-0.2-2.6-0.5-3.4-2.4l-0.2-0.4c-0.1-0.3-0.2-0.6-0.3-1c-0.1-0.5-0.3-1.1-0.5-1.4l-0.2-0.2l0.1-0.3
		c0.1-0.2,0.1-0.4,0.2-0.6c0.3-0.9,0.5-1.7,0.3-2.7c-0.3-1.2-1.1-2.1-2-3.1c-0.6-0.6-1.2-1.2-1.6-2c-0.4-0.6-0.8-1.2-1.2-1.8
		c-0.8-1.1-1.6-2.2-2.1-3.6c-0.1-0.3-0.2-0.6-0.3-0.9c-0.2-0.7-0.5-1.6-1-2c-0.3-0.2-0.6-0.4-1-0.5c-0.6-0.2-1.4-0.5-1.8-1.3
		c-0.4-0.9-0.4-1.7-0.4-2.3c0-0.6,0-0.9-0.2-1.1c-0.3-0.3-0.9-0.4-2-0.3c-1.6,0-2.3,0.1-2.4,1.1c-0.1,0.7,0,0.8,0.5,1
		c0.3,0.2,0.8,0.4,1.1,1c0.5,1.2,0.2,2.7-0.8,3.5c-0.8,0.6-1.8,0.6-2.7-0.1c-0.4-0.3-0.7-0.7-0.9-1.1c-0.2-0.5-0.5-0.8-0.9-1.1
		c-0.3-0.2-0.6-0.3-0.8-0.4c-0.6-0.2-1.1-0.4-1.6-1.3c-0.4-0.7-0.6-1.6-0.7-2.6c-0.2-1.2-0.4-2.4-1.1-3c-0.8-0.6-2.8-0.7-4.1-0.7
		c-0.4,0-0.7,0-1,0c-0.9,0-2.1,0-3.1-0.7c-0.8-0.6-0.9-1-1-1.7c0-0.2-0.1-0.5-0.2-0.9c-0.3-1-0.8-1.3-1.8-1.8
		c-0.2-0.1-0.5-0.2-0.7-0.2h-1.3l1-0.9c0.5-0.4,1-0.7,1.6-1.1c0.7-0.4,1.5-0.9,2-1.5c1-1.2,1.3-2.2,0.8-3.1
		c-1.2-2.7-7.8-3.9-10.6-4.1h-0.5v-0.5c-0.1-1.6-0.3-2.5-0.8-2.8s-1.3-0.1-2.6,0.5c-0.4,0.2-0.7,0.5-0.9,0.7
		c-0.5,0.5-1.1,1.1-2.6,0.7c-1.5-0.3-1.7-1.1-1.9-1.9c-0.1-0.3-0.2-0.6-0.3-0.9c-0.2-0.5-0.3-1-0.5-1.6c-0.1-0.6-0.3-1.3-0.5-1.6
		c-0.3-0.5-0.6-0.8-0.9-1.1c-0.4-0.4-0.8-0.8-1-1.5c-0.2-0.6-0.2-1.1-0.2-1.4c0-0.5,0-0.8-0.6-1.3c-0.7-0.6-2-0.8-3-0.5
		s-1.5,1.2-2,2c-0.4,0.7-0.8,1.3-1.5,1.4c-0.6,0-1.3-0.4-2.2-1.6c-0.3-0.4-0.5-0.8-0.7-1.2c-0.4-0.6-0.7-1.3-1.3-1.7
		c-0.6-0.4-1.1-0.5-1.8-0.6c-0.5-0.1-1.1-0.2-1.7-0.5c0,0-5.9-2.5-6.7-3.9c-0.6-1.1-0.4-3.5-0.2-6.1c0-0.4,0.1-0.8,0.1-1.1
		c0.1-1.8,0.5-2.6,1.1-2.9c0.7-0.3,1.5,0.2,2.3,0.7c0.6,0.4,1.3,0.9,2,1c1.2,0.3,1.5,0,2.1-0.6c0.3-0.3,0.6-0.6,1-0.9
		c0.3-0.2,0.7-0.4,1.1-0.6c0.6-0.3,1.3-0.6,1.5-1.1c0.4-0.8-0.1-2.2-0.5-3.5c-0.4-1.1-0.8-2.3-0.7-3.2c0-0.4,0.1-0.9,0.2-1.5
		c0.3-2.1,0.4-3.6-0.8-4.1c-0.8-0.3-2,0.1-2.9,0.5c-0.2,0.1-0.3,0.1-0.4,0.2c-0.3,0.1-0.6,0.1-0.9,0.2c-0.3,0-0.7,0.1-0.9,0.2
		c-0.1,0-0.2,0.2-0.3,0.4c-0.2,0.4-0.6,1-1.3,1.2c-1,0.3-1.8,0.3-2.5-0.1c-1.2-0.7-1.5-2.2-1.9-3.6c-0.1-0.5-0.2-1-0.4-1.3
		c-0.3-0.9-1-1.4-1.7-1.9c-0.5-0.4-0.9-0.7-1.3-1.2c-1-1.2-1.1-1.5-0.8-2.5c0.1-0.2,0.1-0.6,0.2-1c0.2-1.3,0-2.5-0.3-3.7
		c-0.1-0.5-0.2-0.9-0.3-1.4L4.8,11h0.6c0.1,0,0.3,0,0.4,0.1c0.1,0,0.2,0,0.3,0l0.7,0.1c3.9,0.7,5.6,0.9,6.7-0.8
		C15,8.3,16.2,6.9,20,6.2c2.4-0.5,4.4-2.1,6.2-3.5c0.7-0.6,1.4-1.2,2.1-1.6C30,0,31.5-0.1,33.1-0.3c0.5,0,1.1-0.1,1.7-0.1
		c1-0.1,1.7-0.6,2.3-1.2c0.8-0.7,1.7-1.3,3-0.7c1.9,0.9,2.1,1,3.2,2.3l0.2,0.3c1.6,1.7,3.2,3.6,3.7,5.2c0.2,0.5,0.6,1,1,1.5
		c0.5,0.7,1,1.3,0.8,2c-0.2,0.6-0.7,0.9-1.9,1.3c-3.4,1.1-3.7,1.8-4.2,3.2L42.8,14c-0.4,1.3-0.5,1.8-1.8,2.8
		c-0.4,0.3-0.7,0.6-0.8,0.7c0.1,0.1,0.4,0.2,1.1,0.3c3.6,0.7,4.2,2.3,4,3.6c-0.1,1.4-1.5,1.9-2.5,2.2c-0.3,0.1-0.9,0.3-1,0.4
		c-0.1,0.2-0.1,0.2-0.1,0.2s0.1,0.3,1.5,0.7c0.5,0.2,0.9,0.4,1.3,0.5c1,0.4,1.8,0.7,3.2,1.1c1.3,0.3,1.6-0.4,2.3-1.9
		c0.1-0.2,0.2-0.4,0.2-0.6c0.5-1.2,1.4-1.5,2.6-2c0.7-0.3,1.4-0.5,2.3-1c1.2-0.7,1.9-0.8,2.5-0.9c0.5-0.1,0.7-0.1,1.2-0.8
		c0.1-0.2,0.2-0.4,0.3-0.6c0.3-0.7,0.7-1.5,1.8-1.9c1.4-0.6,3.1-0.7,3.6,0.4c0.1,0.2,0.2,0.3,0.3,0.5c0.2,0.3,0.4,0.6,0.3,1
		c-0.1,0.4-0.5,0.5-0.7,0.6c-0.1,0-0.3,0.1-0.4,0.2c-0.3,0.1-0.9,0.3-1.1,0.5c0,0,0.1,0.1,0.2,0.1c0.3,0.3,0.6,0.4,0.7,0.5
		c0.4,0.3,0.5,0.3,1.1,0.9c0.3,0.3,0.4,0.4,0.7,0.5l1.7,0.6L65.4,23c-2.5,0.6-4,1.1-3.7,3.1c0.1,0.6,0.5,1.1,0.9,1.6
		c0.5,0.5,1,1.1,1.2,2c0.2,0.7,0.1,1.5,0,2.2c-0.1,0.6-0.2,1.2,0,1.7c0.2,0.9,1,1.6,1.7,2.3c0.4,0.3,0.7,0.7,1.1,1.1
		c0.5,0.7,0.9,1.4,1.2,2.1c0.3,0.5,0.5,1.1,0.8,1.6c1.3,1.9,3.3,2.8,6.8,3.1c0.9,0.1,1.8,0.1,2.6,0.2c1.8,0.1,3.5,0.1,5.3,0.8
		c0.4,0.1,0.9,0.3,1.3,0.5c0.7,0.3,1.5,0.6,2.2,0.7c0.5,0,1,0,1.6-0.1c0.8-0.1,1.6-0.3,2.4-0.1c1.6,0.4,1.8,1,2,1.9
		c0.1,0.4,0.1,0.7,0.4,1.2c0.5,0.8,1.3,1.3,2.1,1.8c0.4,0.3,0.9,0.5,1.3,0.9c3.2,2.4,2.8,3.7,2,6.4l-0.2,0.7c-1,3-0.3,6.6,0.3,10.1
		c0.2,1.3,0.5,2.5,0.6,3.7c0,0.2,0.1,0.5,0.2,0.8c0.2,0.9,0.4,1.9,0,3.1c-0.2,0.7-0.6,1.2-0.9,1.7c-0.4,0.6-0.8,1.2-1,2
		c-0.3,1.3-0.5,5,0.4,5.8c0.1,0.1,0.3,0.2,0.6,0.1l0.8-0.2l-0.1,0.8c-0.3,1.6,0.3,2.2,1.2,3.1c0.6,0.6,1.2,1.2,1.6,2.2
		c0.4,1.1,0.1,2.1-0.1,3.1c-0.2,0.6-0.3,1.1-0.3,1.6c-0.1,1.9,0.5,2.8,2.1,2.9c0.7,0,1.1-0.3,1.7-0.6c0.7-0.4,1.4-0.9,2.6-0.7
		l0.4,0.1v0.4c0,0.1,0,0.3-0.1,0.6c0,0.3-0.1,1.1,0,1.3c0.4,0.6,0.5,0.7,0.8,0.8c0.3,0.1,0.7,0.2,1.2,0.7c0.3,0.3,0.5,0.7,0.8,1.1
		c0.2,0.4,0.6,0.9,0.7,1c0.3,0.2,0.6,0.2,1,0.1c0.5,0,1.1,0,1.6,0.4c0.8,0.7,1.3,2.3,1.8,3.7c0.2,0.6,0.4,1.2,0.6,1.5
		c0.7,1.6,1.3,3,1.3,4.8h1v0.5c0,0.1,0,0.2,0,0.2c0,0.2,0.1,0.5-0.2,0.7l-0.1,0.1c-0.3,0.2-0.4,0.3-0.7,0.6
		c-0.3,0.3-0.5,0.5-0.6,0.7c-0.3,0.4-0.6,0.8-1.6,1.1c-2.1,0.5-3.3-0.6-4.6-1.6c-0.3-0.3-0.6-0.5-0.9-0.8c-2.3-1.7-3.6-0.8-5.5,0.5
		c-1.1,0.8-2.4,1.7-4.1,2C100.1,118.3,99.5,118.4,99,118.4z M94,115.3c0.2,0,0.5,0,0.7,0.1c0.7,0.2,1,0.6,1.2,0.8
		c0.2,0.2,0.3,0.4,0.6,0.5c1.3,0.6,2.4,0.8,4,0.5c1.5-0.3,2.6-1.1,3.7-1.9c1.9-1.3,3.8-2.7,6.7-0.5c0.3,0.3,0.7,0.5,1,0.8
		c1.1,1,2.1,1.8,3.7,1.4c0.7-0.2,0.8-0.3,1.1-0.7c0.2-0.2,0.4-0.5,0.7-0.8c0.2-0.2,0.3-0.3,0.4-0.4h-0.9l0.1-0.6
		c0.2-1.8-0.4-3.3-1.2-4.8c-0.2-0.4-0.4-1-0.6-1.6c-0.4-1.2-1-2.8-1.6-3.3c-0.2-0.2-0.5-0.2-0.9-0.2s-1,0-1.5-0.3
		c-0.4-0.2-0.7-0.7-1.1-1.3c-0.2-0.3-0.4-0.7-0.6-0.9c-0.3-0.3-0.5-0.4-0.8-0.4c-0.5-0.1-0.9-0.3-1.4-1.2c-0.3-0.4-0.2-1.1-0.1-2
		l0,0c-0.5,0-0.9,0.3-1.4,0.6c-0.6,0.4-1.3,0.8-2.3,0.8c-1.5-0.1-3.3-0.9-3.1-3.9c0-0.6,0.2-1.3,0.4-1.9c0.2-0.9,0.5-1.7,0.2-2.4
		c-0.3-0.8-0.8-1.3-1.4-1.8c-0.8-0.8-1.6-1.6-1.5-3.3c-0.4,0-0.7-0.2-0.9-0.4c-1.5-1.4-0.9-5.9-0.7-6.8c0.2-1,0.7-1.7,1.1-2.3
		c0.3-0.5,0.6-1,0.8-1.5c0.3-0.9,0.2-1.6,0-2.5c-0.1-0.3-0.1-0.6-0.2-0.9c-0.1-1.2-0.4-2.4-0.6-3.6c-0.6-3.4-1.4-7.3-0.3-10.6
		l0.2-0.7c0.8-2.7,1-3.3-1.6-5.3c-0.4-0.3-0.8-0.6-1.2-0.8c-0.9-0.5-1.7-1.1-2.4-2.1c-0.4-0.6-0.5-1.1-0.5-1.5
		c-0.1-0.6-0.1-0.8-1.3-1.1c-0.6-0.1-1.3,0-2,0.1c-0.6,0.1-1.2,0.2-1.8,0.1c-0.9-0.1-1.8-0.4-2.5-0.8c-0.4-0.2-0.9-0.4-1.2-0.5
		c-1.7-0.6-3.3-0.7-5-0.7c-0.9,0-1.8-0.1-2.7-0.2c-2.5-0.2-5.7-0.7-7.6-3.5c-0.4-0.6-0.7-1.1-0.9-1.7c-0.3-0.7-0.6-1.3-1.1-1.9
		c-0.3-0.3-0.6-0.6-1-1c-0.8-0.8-1.7-1.6-2-2.8c-0.2-0.7-0.1-1.4,0-2c0.1-0.7,0.2-1.3,0-1.8c-0.2-0.6-0.6-1.1-1-1.6
		c-0.5-0.6-1-1.2-1.1-2.1c-0.5-2.6,1.5-3.5,3.5-4c0,0,0-0.1-0.1-0.1c-0.5-0.5-0.5-0.5-0.9-0.8c-0.2-0.1-0.4-0.3-0.7-0.5
		c-0.4-0.3-0.7-0.7-0.6-1.1c0.1-0.7,1.1-1.1,1.8-1.3c0.1-0.1,0.3-0.1,0.4-0.1l-0.1-0.1c-0.1-0.2-0.3-0.4-0.4-0.6
		c-0.1-0.3-1.1-0.3-2.2,0.2c-0.7,0.3-1,0.9-1.3,1.5c-0.1,0.3-0.3,0.5-0.4,0.8c-0.7,0.9-1.1,1-1.8,1.2c-0.5,0.1-1.1,0.2-2.1,0.8
		c-0.9,0.5-1.8,0.9-2.4,1.1c-1.1,0.4-1.7,0.6-2.1,1.4c-0.1,0.2-0.2,0.4-0.2,0.6c-0.6,1.4-1.3,3.1-3.4,2.5c-1.4-0.4-2.3-0.7-3.3-1.1
		c-0.4-0.2-0.8-0.3-1.3-0.5c-1.3-0.4-1.9-0.8-2.1-1.4c-0.1-0.3-0.1-0.6,0.3-1.1c0.2-0.3,0.8-0.5,1.4-0.7c1.1-0.4,1.8-0.7,1.9-1.4
		c0.1-1.2-0.9-2.1-3.2-2.5c-1.1-0.2-1.8-0.4-2-1s0.4-1.1,1.2-1.7c1-0.8,1.1-1.1,1.5-2.3l0.1-0.5c0.6-1.9,1.4-2.7,4.8-3.8
		C48,9.3,48.1,9,48.1,9c0.1-0.2-0.3-0.7-0.6-1c-0.4-0.6-0.9-1.2-1.1-2c-0.5-1.5-2.5-3.7-3.5-4.8l-0.2-0.3c-1-1.1-1-1.2-2.8-2
		c-0.8-0.3-1.2-0.1-2,0.6c-0.7,0.5-1.5,1.2-2.8,1.4C34.5,1,33.9,1,33.4,1c-1.6,0.1-2.9,0.2-4.3,1.2c-0.6,0.4-1.3,1-2,1.5
		c-1.8,1.4-4,3.2-6.6,3.7C17,8.1,16,9.2,14.6,11.2c-1.5,2.2-3.8,1.9-7.6,1.2l-1-0.3c0,0.2,0.1,0.5,0.1,0.7c0.3,1.3,0.6,2.6,0.3,4.1
		c-0.1,0.5-0.2,0.8-0.2,1.1C6,18.7,6,18.7,6.8,19.6C7.1,20,7.6,20.3,8,20.7c0.8,0.6,1.6,1.2,2,2.4c0.2,0.4,0.3,0.9,0.4,1.5
		c0.3,1.2,0.6,2.5,1.4,2.9c0.4,0.2,1,0.2,1.7,0c0.4-0.1,0.5-0.4,0.7-0.8c0.2-0.3,0.4-0.6,0.7-0.8c0.5-0.2,0.9-0.3,1.3-0.3
		c0.3,0,0.5-0.1,0.7-0.1c0.1,0,0.3-0.1,0.4-0.2c1-0.4,2.4-1,3.6-0.5c1.9,0.9,1.6,3.3,1.4,5.2c-0.1,0.5-0.1,1-0.1,1.4
		c0,0.8,0.3,1.8,0.7,2.8c0.5,1.5,1,3.1,0.5,4.3c-0.4,0.8-1.3,1.2-2,1.6c-0.4,0.2-0.7,0.3-0.9,0.5c-0.4,0.2-0.6,0.5-0.8,0.8
		c-0.6,0.7-1.3,1.4-3.1,0.9c-0.9-0.2-1.6-0.7-2.3-1.2c-0.5-0.3-1.1-0.8-1.3-0.7c-0.1,0-0.4,0.3-0.5,2.1c0,0.3-0.1,0.7-0.1,1.1
		c-0.2,1.6-0.4,4.6,0,5.5c0.4,0.7,4,2.5,6.3,3.5c0.5,0.2,1,0.3,1.5,0.4c0.7,0.1,1.4,0.3,2.2,0.8c0.7,0.5,1.2,1.3,1.6,2
		c0.2,0.4,0.4,0.8,0.7,1.1c0.9,1.2,1.3,1.3,1.3,1.3c0.2,0,0.4-0.5,0.6-0.9c0.5-0.9,1.2-2,2.6-2.5c1.3-0.4,2.9-0.1,3.9,0.7
		c1.1,0.8,1,1.5,1,2.2c0,0.3,0,0.7,0.1,1.1c0.2,0.5,0.5,0.8,0.8,1.1s0.7,0.7,1.1,1.3c0.3,0.4,0.5,1.2,0.6,2c0.1,0.5,0.2,1,0.4,1.4
		s0.3,0.7,0.4,1c0.2,0.7,0.3,1,1.2,1.2c1,0.3,1.2,0,1.7-0.4c0.3-0.3,0.6-0.6,1.2-0.9c1.6-0.8,2.7-0.9,3.5-0.4c1,0.6,1.2,1.9,1.3,3.1
		c2.8,0.2,9.6,1.4,11,4.6c0.6,1.3,0.2,2.7-1,4.2c-0.6,0.8-1.5,1.3-2.3,1.7c-0.2,0.1-0.4,0.2-0.6,0.3c1.1,0.5,1.8,1,2.3,2.4
		c0.1,0.4,0.2,0.8,0.2,1c0.1,0.5,0.1,0.6,0.6,1c0.7,0.5,1.6,0.5,2.5,0.5c0.3,0,0.6,0,1,0c1.6,0.1,3.6,0.1,4.7,1
		c1,0.8,1.3,2.2,1.5,3.6c0.1,0.9,0.3,1.7,0.6,2.2c0.4,0.6,0.6,0.7,1.2,0.9c0.3,0.1,0.6,0.2,1,0.4c0.7,0.4,1.1,1,1.3,1.5
		c0.2,0.3,0.3,0.6,0.6,0.8c0.7,0.5,1.2,0.3,1.5,0.1c0.6-0.4,0.9-1.4,0.6-2.3c-0.1-0.3-0.3-0.4-0.6-0.6c-0.5-0.3-1.2-0.7-1-2
		c0.3-1.9,2-1.9,3.4-1.9s2.2,0.2,2.7,0.6c0.5,0.5,0.5,1.2,0.5,1.8c0,0.6,0,1.2,0.3,1.9c0.2,0.4,0.6,0.6,1.3,0.8
		c0.4,0.1,0.9,0.3,1.3,0.7c0.7,0.6,1.1,1.6,1.3,2.4c0.1,0.3,0.2,0.6,0.3,0.8c0.5,1.3,1.2,2.3,2,3.4c0.4,0.6,0.9,1.2,1.2,1.8
		c0.4,0.6,0.9,1.2,1.5,1.8c1,1,1.9,2.1,2.3,3.5c0.3,1.3,0,2.3-0.3,3.2c0,0.1-0.1,0.2-0.1,0.4c0.3,0.4,0.4,1,0.6,1.5
		c0.1,0.3,0.2,0.6,0.3,0.9l0.2,0.4c0.7,1.6,0.7,1.6,2.6,1.8c0.3,0,0.6,0,0.9,0C93.5,115.4,93.8,115.3,94,115.3z"/>
</g>
</svg>
