<?xml version="1.0" encoding="utf-8"?>
<!-- Generator: Adobe Illustrator 28.0.0, SVG Export Plug-In . SVG Version: 6.00 Build 0)  -->
<svg version="1.1" id="_レイヤー_2" xmlns="http://www.w3.org/2000/svg" xmlns:xlink="http://www.w3.org/1999/xlink" x="0px"
	 y="0px" viewBox="0 0 120 120" style="enable-background:new 0 0 120 120;" xml:space="preserve">
<style type="text/css">
	.st0{fill:#F0E3D2;}
	.st1{fill:#D7323A;}
</style>
<g>
	<path class="st0" d="M117.9,63.9c-3.2-0.3-4.6-4.2-2.3-6.4c2.3-2.2,6.1-2.5,3.2-4.2s-3.2-4.7-5.2-7.3c-2-2.5-4.3-0.3-7.2-0.8
		c-2.9-0.6-0.3-15.6,1.4-20.7c1.7-5,2-5.9-0.9-7.8c-2.9-2-6.4-2.5-10.7-2c-3.3,0.4-5.9,1.8-8.3,0.9c-0.3,1.3-0.3,2.9-1.3,4.5
		c-2.1,3.5-4.6,0.2-7.5-0.3c-5.2-1-12.9-0.4-18.1,0.3c-3.3,0.5-5.6,0.4-7,3.3c-1.6,3.3-2.6,4.5-6.6,5c-1.8,0.3-2.9,0.1-4.6,1.1
		c-1.4,0.8-2.2,3-3.6,3.6c-1.1,0.5-3.5,0.1-4.5-0.2c-2-0.6-1.6-1.2-3-2.5c-1.9-1.7-5.1-1.9-8-1.1c-2.6,0.7-6.4,1.2-7.3,4.1
		c-3.7-0.3-8,1.9-9.5,4.7c-1.1,2.2-1.3,2.3-3.5,3.4c-0.3,0.2-0.7,0.4-1,0.7c0.1,0.1,0.1,0.1,0.2,0.2c1.3,2.1,0.2,2.5-0.6,4.2
		c-1.4,3-0.7,4.9-0.6,8.1c0.1,3.4-2.9,5,0,7.8c2.6,2.5,5.5,1.5,8.8,2c2.1,0.4,3.3,1.6,5.5,1.7c2.3,0,2.6-1.3,4.8-0.1
		c1.4,0.8,1.8,2.6,3,3.4c1.1,0.7,3.4,0.8,4.7,0.9c5.3,0.5,2.5-3.1,5.8-4.5c2.1-0.9,7.8,1.5,8.6,3c0.5,0.9-0.1,2.9,0.3,3.9
		c0.5,1.6,1.7,2.6,2,4.3c0.6,3.1-1.3,5.4,1.8,7c2.6,1.3,6.3,0.1,9.1,1.5c1.6,0.8,2.5,1.5,2.7,3.3c0.3,2.5-0.7,1.8-2,3.2
		c-3.1,3.4-0.4,4.5,2,7.4c1.4,1.8,1.2,2.5,3.5,3.1c1.5,0.4,3.1,0,4.6,0.2c2,0.3,3.5,1.4,4.8,2.7c1.4-1.8,2.9-3.5,3.9-4.6
		c2.6-2.8,5.8-7.5,9.8-11.2c4.1-3.6,10.4-5.9,14.5-9.2c4.1-3.3,10.7-8.4,16.2-11.2C120.9,66.5,121.1,64.2,117.9,63.9z"/>
	<path class="st1" d="M73.4,104.3l-0.4-0.4c-1.5-1.5-2.9-2.3-4.5-2.6c-0.6-0.1-1.2-0.1-1.9,0c-0.9,0-1.9,0.1-2.8-0.2
		c-1.9-0.5-2.3-1.1-3-2.1c-0.2-0.3-0.5-0.7-0.8-1.1c-0.5-0.6-0.9-1.1-1.4-1.5c-1.8-1.9-3.3-3.4-0.6-6.5c0.5-0.5,0.9-0.8,1.3-1
		c0.6-0.3,0.8-0.5,0.6-1.8c-0.2-1.5-0.9-2.1-2.4-2.9c-1.3-0.7-2.9-0.7-4.5-0.7s-3.2-0.1-4.6-0.8c-2.3-1.2-2.2-2.8-2-4.6
		c0.1-0.9,0.2-1.8,0-2.8c-0.2-0.9-0.6-1.5-1-2.2c-0.4-0.6-0.8-1.2-1-2c-0.2-0.5-0.2-1.3-0.1-2.1c0-0.7,0.1-1.4-0.1-1.7
		c-0.7-1.3-6.1-3.6-8-2.8c-1.2,0.5-1.4,1.3-1.7,2.2c-0.5,1.5-1.1,2.7-4.3,2.4h-0.4c-1.4-0.1-3.4-0.2-4.5-0.9
		c-0.7-0.4-1.1-1.1-1.5-1.7c-0.4-0.7-0.8-1.3-1.5-1.7c-1.2-0.6-1.6-0.5-2.4-0.2c-0.5,0.2-1.2,0.4-2.1,0.4c-1.4-0.1-2.3-0.5-3.3-0.9
		c-0.7-0.3-1.4-0.6-2.3-0.8c-0.9-0.1-1.9-0.2-2.8-0.2c-2.2,0-4.3-0.1-6.3-2c-2.1-2-1.4-3.6-0.8-5.1C2.7,55.1,3,54.2,3,53
		c0-0.8-0.1-1.5-0.1-2.1c-0.2-2-0.3-3.8,0.8-6.2c0.2-0.4,0.4-0.8,0.6-1.1c0.6-0.9,0.8-1.3,0-2.6l-0.5-0.5L4,39.8
		c0.3-0.3,0.6-0.4,0.8-0.6c0.2,0,0.2-0.1,0.3-0.1c2.2-1.1,2.3-1.2,3.3-3.2c1.6-3,5.8-5.1,9.6-5c1-2.5,4-3.2,6.4-3.8
		c0.4-0.1,0.8-0.2,1.1-0.3c3.4-0.9,6.6-0.5,8.5,1.2c0.5,0.5,0.8,0.9,1.1,1.2c0.4,0.5,0.6,0.8,1.8,1.2c1,0.3,3.2,0.6,4.1,0.2
		c0.6-0.3,1.1-0.9,1.7-1.7c0.6-0.7,1.1-1.5,1.9-1.9c1.3-0.8,2.3-0.9,3.5-1c0.4,0,0.8-0.1,1.3-0.2c3.9-0.5,4.7-1.6,6.2-4.7
		c1.3-2.8,3.5-3,6.1-3.4c0.4-0.1,0.8-0.1,1.2-0.2c3.5-0.5,12.3-1.4,18.3-0.3c1,0.2,1.9,0.6,2.7,1c2,1,3.1,1.4,4.2-0.5
		c0.7-1.1,0.9-2.2,1-3.3c0.1-0.4,0.1-0.8,0.2-1.1l0.1-0.6l0.5,0.2c1.4,0.5,3,0.2,4.8-0.3c1-0.2,2.1-0.5,3.2-0.6
		c4.7-0.5,8.2,0.1,11,2.1c3.2,2.1,2.8,3.3,1.1,8.4c-1.6,4.9-3.7,17.1-2.2,19.7c0.1,0.2,0.2,0.3,0.4,0.3c1,0.2,1.9,0,2.8-0.2
		c1.6-0.3,3.2-0.6,4.6,1.2c0.8,1,1.3,2,1.8,3c0.8,1.7,1.6,3.1,3.3,4.1c0.6,0.4,1.3,0.9,1.3,1.5c0,0.8-0.8,1.2-1.9,1.8
		c-0.8,0.4-1.8,1-2.5,1.7c-0.9,0.9-1.2,2.1-0.8,3.3c0.4,1.2,1.5,2.1,2.8,2.2l0,0c2,0.2,2.4,1.1,2.5,1.6c0.3,1.4-1.3,3-4.5,4.8
		c-4.1,2.1-9.5,5.8-16.1,11.2c-2,1.6-4.4,2.9-6.8,4.3c-2.7,1.5-5.5,3-7.7,4.9c-2.5,2.3-4.7,5-6.6,7.4c-1.1,1.4-2.2,2.7-3.1,3.7
		c-1,1.1-2.5,2.8-3.9,4.6V104.3z M67.6,100.2c0.4,0,0.7,0,1.1,0.1c2.1,0.3,3.6,1.4,4.7,2.5c1.3-1.6,2.6-3.2,3.6-4.2
		c0.9-1,2-2.3,3.1-3.7c2-2.4,4.2-5.2,6.7-7.5c2.2-2,5.1-3.5,7.8-5.1c2.5-1.4,4.8-2.6,6.7-4.2c6.7-5.4,12.1-9.1,16.3-11.3
		c3.3-1.8,4-3.2,3.9-3.7c-0.1-0.4-0.7-0.7-1.7-0.8l0,0c-1.7-0.2-3.1-1.3-3.7-2.9c-0.5-1.6-0.1-3.3,1.1-4.4c0.9-0.8,1.9-1.4,2.7-1.8
		c0.5-0.3,1.3-0.7,1.4-0.9l0,0c0,0-0.1-0.2-0.8-0.7c-2-1.1-2.8-2.9-3.7-4.6c-0.5-1-1-2-1.7-2.9c-1-1.3-2.1-1.1-3.7-0.8
		c-1,0.2-2,0.4-3.2,0.2c-0.4-0.1-0.8-0.4-1.1-0.8c-1.8-3.2,0.6-16.1,2.1-20.5c1.7-5,1.9-5.5-0.7-7.2c-2.7-1.8-5.9-2.4-10.4-1.9
		C97,13.2,96,13.5,95,13.7c-1.7,0.4-3.3,0.8-4.9,0.4c0,0.2-0.1,0.3-0.1,0.5c-0.2,1.1-0.4,2.3-1.2,3.6c-1.7,2.8-3.7,1.8-5.5,0.9
		c-0.8-0.4-1.6-0.8-2.5-1C75,17,66.3,17.9,62.9,18.4c-0.4,0.1-0.8,0.1-1.2,0.2c-2.6,0.3-4.3,0.6-5.4,2.8c-1.6,3.3-2.7,4.7-7,5.3
		C49,27,48.5,27,48.1,27.1c-1.1,0.1-1.9,0.2-3,0.9c-0.6,0.3-1.1,1-1.6,1.7c-0.6,0.8-1.2,1.6-2.1,2c-1.3,0.6-3.8,0.1-4.8-0.2
		c-1.4-0.4-1.8-0.9-2.3-1.5c-0.2-0.3-0.5-0.6-0.9-1.1c-1.6-1.4-4.5-1.8-7.5-1c-0.4,0.1-0.7,0.2-1.1,0.3c-2.4,0.6-5.1,1.2-5.8,3.5
		l-0.1,0.4h-0.4c-3.5-0.3-7.6,1.8-9,4.4C8.3,38.8,8,39,5.8,40.1c0,0-0.1,0.1-0.2,0.1c-0.1,0.1-0.2,0.1-0.3,0.2
		c1,1.8,0.5,2.6-0.1,3.5c-0.2,0.3-0.4,0.6-0.6,1c-1,2.1-0.9,3.7-0.7,5.7C4,51.3,4,52,4,52.8c0,1.4-0.4,2.5-0.8,3.4
		c-0.6,1.5-1,2.5,0.6,4c1.7,1.6,3.5,1.6,5.6,1.7c0.9,0,1.9,0,2.9,0.2s1.8,0.5,2.5,0.9c0.9,0.4,1.8,0.8,2.9,0.8
		c0.8,0,1.3-0.2,1.8-0.3c0.9-0.3,1.7-0.5,3.2,0.3c0.9,0.5,1.4,1.3,1.8,2c0.4,0.6,0.7,1.1,1.2,1.4c0.9,0.6,2.8,0.7,4.1,0.8h0.4
		c2.7,0.3,2.9-0.5,3.3-1.7c0.3-0.9,0.7-2.1,2.3-2.8c2.4-1,8.4,1.6,9.2,3.2c0.3,0.6,0.3,1.4,0.2,2.3c0,0.6-0.1,1.3,0.1,1.7
		c0.2,0.7,0.6,1.2,0.9,1.8c0.5,0.8,0.9,1.5,1.1,2.6c0.2,1.1,0.1,2.1,0,3c-0.2,1.7-0.2,2.7,1.5,3.6c1.2,0.6,2.6,0.6,4.2,0.7
		c1.7,0,3.4,0.1,4.9,0.8c1.5,0.7,2.7,1.5,3,3.7c0.2,1.8-0.2,2.3-1.1,2.8c-0.3,0.2-0.7,0.4-1,0.8c-2.1,2.4-1.2,3.3,0.5,5.1
		c0.5,0.5,1,1,1.5,1.6c0.4,0.5,0.6,0.9,0.9,1.2c0.6,0.9,0.9,1.3,2.4,1.7c0.8,0.2,1.6,0.2,2.5,0.1C66.9,100.3,67.2,100.2,67.6,100.2z
		"/>
</g>
</svg>
