<?xml version="1.0" encoding="utf-8"?>
<!-- Generator: Adobe Illustrator 28.0.0, SVG Export Plug-In . SVG Version: 6.00 Build 0)  -->
<svg version="1.1" id="_レイヤー_2" xmlns="http://www.w3.org/2000/svg" xmlns:xlink="http://www.w3.org/1999/xlink" x="0px"
	 y="0px" viewBox="0 0 120 120" style="enable-background:new 0 0 120 120;" xml:space="preserve">
<style type="text/css">
	.st0{fill:#F0E3D2;}
	.st1{fill:#D7323A;}
</style>
<g>
	<path class="st0" d="M116.8,17.5c-2.9,0.4-4,3.7-6.5,4.4c-2.3,0.7-5.3-0.1-7.7,0.4c-2.1,0.4-2.8,0.5-4.1,1.9
		c-1.1,1.1-1,1.2-2.5,1.4c-3.9,0.6-2.4-1.2-3-3.7c-0.3-1.1-1.1-1.9-1.4-3c-0.2-1,0.1-2.2,0-3.2c-0.8-6.4-9.8-6-14.7-6.2
		c-0.1-1,1-3.9,0.5-4.6c-1-1.3-4.8-0.1-5.9,0.4C69,6.6,69.7,9,67.3,10.1c-2.3,1.1-4.5-0.2-5.8,2.4c-0.9,1.8-1.8,4.7-4.6,2.5
		c-0.9-0.7-1-2-1.6-2.9c-0.6-0.8-1.8-2.1-2.6-2.7C49.1,6.5,42,6.2,37.3,6c-2.1-0.1-5.3,0.7-6.1,2.9c-0.7,1.8,0.4,4.3-0.4,6.1
		c-0.5,1.1-1.6,2-2.8,2.3c-0.9,0.3-2.8-0.2-3.4,0.9s1.1,1.9,1.2,2.9c0.2,1.5-0.6,1.4-1.4,2.4c-1.1,1.3-0.8,1.5-2.6,1.7
		c-1.2,0.2-2.6,0-3.8,0c-2.8-0.1-5.4-0.8-4.8,2.5c0.3,1.6,2.2,4.3-0.2,5.4c-1,0.4-2.5-0.4-3.5,0.1c-1.5,0.7-1.2,1.5-3.3,1.7
		c-3.7,0.2-4,0.8-5.1,3.8C0.9,39.4,0.5,40.2,0,41c0.2,0.2,0.5,0.4,0.7,0.6c1.9,2,3.7,5.1,3.2,7.9C3.4,52.2,2,53.9,2,56.9
		c0,3.6,1.3,4.5,3.1,7.4c0.7,1.2,1.1,2.5,1.9,3.6c1,1.3,2.6,2.4,3.4,3.8c2.2,3.9-1.6,8.2,0.7,12.5c1.2,2.2,2.1,3.2,2.1,5.9
		c0,2-1.3,4-0.5,5.9c0.9,2.1,3.6,3.8,4.8,5.8c1.4,2.3,2.4,3.5,2.5,6.2c0.1,2.2-0.2,3.8-0.9,5.7v0.1c1.2,0.5,2.4,1.3,3.2,1.6
		c3.3,1.3,2.3-1.6,4.4-2.7c0.8-0.5,1.9-0.2,2.8-0.4c1.4-0.2,2.6-0.7,3.7-1.6c3.9-3.3,4.6-2.1,8.7-3.6c4.2-1.5,7.1,3,9.3,5.9
		c2.2,3,3.5,1.7,4.8-0.3s4.9-0.3,8.3,1.4c3.5,1.7,5.7,0,8.8-2c3.2-2,2.6-5,2.3-7.4c-0.3-2.4,2.1-3.4,4.3-5.7c2.8-2.9,7-2,9.4-2.8
		s4.6-1.2,5.7-4.9c1.1-3.6,2.6-3.9,6.8-4.6c3.8-0.6,4.6-1.8,7.1-2.6c-0.3-0.7-0.4-1.4-0.4-2.3c0-1.9,0.8-3.4,1.1-5.1
		c0.2-1.4,0.3-3.8-0.2-5.1c-1-2.5-2.5-1.8-4.6-2.7c-4.7-1.8-0.3-5.9,0-8.9c0.1-0.9,0.2-2.2-0.2-3c-0.5-0.9-2.2-1-2.4-1.8
		c-0.3-1.3,1-3,1.3-4.2c0.4-1.7,0-3.5,0.5-5.2c0.8-2.6,2.8-2,4-3.9c1.1-1.6-0.3-3.8,1.3-5.3c1.9-1.7,3-0.5,3.7-3.6
		c0.2-0.8,0.1-1.9,0.5-2.5c1-1.6,1-0.6,2.5-1.5c1.3-0.7,2,0,2-1.8s-1.5-1.3-2.1-2.4c-1.6-2.6,0.1-5.5,2.9-6.1c0.5-0.1,1-0.1,1.5,0
		C119.1,18,118.2,17.3,116.8,17.5z"/>
	<path class="st1" d="M25.7,114.2c-0.4,0-0.9-0.1-1.6-0.4c-0.4-0.2-0.9-0.4-1.5-0.7c-0.5-0.3-1.2-0.6-1.8-0.9l-0.3-0.1v-0.6
		c0.7-1.9,1-3.5,0.9-5.5c-0.1-2.2-0.8-3.3-1.9-5.1c-0.2-0.3-0.4-0.6-0.5-0.9c-0.5-0.8-1.3-1.6-2.2-2.5c-1.1-1-2.1-2.1-2.7-3.4
		s-0.2-2.6,0.1-3.9c0.2-0.8,0.4-1.5,0.4-2.2c0-2.1-0.6-3.1-1.4-4.6c-0.2-0.3-0.4-0.7-0.6-1.1c-1.3-2.3-0.8-4.6-0.4-6.8
		c0.4-2,0.7-3.9-0.3-5.7c-0.4-0.7-1.1-1.4-1.8-2.1c-0.5-0.5-1.1-1-1.5-1.6c-0.5-0.7-0.9-1.5-1.2-2.2c-0.2-0.5-0.5-1-0.7-1.5
		c-0.4-0.6-0.7-1.1-1.1-1.6c-1.2-1.8-2.1-3.1-2.1-6c0-1.9,0.5-3.3,1-4.6c0.3-0.9,0.7-1.8,0.9-2.8c0.5-2.6-1.3-5.6-3.1-7.5
		c-0.1-0.1-0.2-0.2-0.3-0.3c-0.1-0.1-0.3-0.2-0.4-0.3L1.3,39l0.2-0.3c0.5-0.8,0.9-1.6,1-2.2c1.2-3.2,1.6-3.9,5.6-4.2
		c1.2,0,1.5-0.3,1.9-0.7c0.3-0.3,0.7-0.6,1.3-0.9c0.6-0.3,1.4-0.2,2.1-0.1c0.5,0.1,1.1,0.1,1.4,0c1.3-0.6,1-1.7,0.3-3.4
		c-0.2-0.5-0.4-1-0.4-1.4c-0.2-1.1-0.1-2,0.4-2.5c0.8-0.9,2.2-0.8,3.8-0.7c0.4,0,0.8,0,1.1,0.1l0,0c0.4,0,0.8,0,1.2,0
		c0.8,0,1.7,0.1,2.5,0c1.2-0.1,1.3-0.2,1.7-0.8c0.1-0.2,0.3-0.4,0.6-0.7c0.3-0.3,0.6-0.6,0.8-0.8c0.5-0.4,0.6-0.5,0.5-1.2
		c0-0.3-0.3-0.6-0.5-0.9c-0.5-0.6-1.1-1.3-0.6-2.3s1.7-1,2.7-1c0.4,0,0.8,0,1-0.1c1.1-0.3,2.1-1.1,2.5-2c0.4-0.8,0.3-1.8,0.2-2.9
		c-0.1-1.1-0.2-2.2,0.2-3.2c0.9-2.5,4.4-3.3,6.6-3.2C44.1,3.7,51.3,4,55,7c0.8,0.6,2,1.9,2.7,2.8c0.3,0.4,0.5,0.9,0.6,1.3
		c0.2,0.6,0.5,1.2,0.9,1.5c0.7,0.5,1.3,0.8,1.7,0.7c0.8-0.2,1.3-1.3,1.8-2.4c0.1-0.2,0.2-0.4,0.3-0.6c0.9-1.9,2.3-2,3.7-2.1
		c0.8-0.1,1.6-0.1,2.3-0.5c1-0.5,1.4-1.2,1.8-2.1c0.5-0.9,1-2,2.4-2.7c0.1,0,5.1-2.2,6.5-0.3c0.4,0.6,0.2,1.5-0.1,3.1
		c-0.1,0.5-0.2,1-0.3,1.3c0.3,0,0.6,0,0.9,0c5.2,0.1,13,0.4,13.7,6.6c0,0.5,0,1,0,1.5c0,0.6-0.1,1.2,0,1.7s0.4,0.9,0.6,1.3
		c0.3,0.5,0.6,1,0.8,1.6c0.2,0.8,0.2,1.5,0.2,2c0,0.6,0,1.1,0.2,1.2s0.7,0.3,2,0.1c1.1-0.2,1.2-0.2,1.8-0.9l0.4-0.4
		c1.4-1.5,2.2-1.6,4.2-2h0.2c1.2-0.2,2.5-0.2,3.7-0.1c1.4,0.1,2.8,0.1,3.9-0.2c1-0.3,1.8-1.1,2.7-2c1.1-1.1,2.2-2.2,3.9-2.5l0,0
		c1.5-0.2,2.5,0.5,3.5,1.2l2.1,1.5l-2.3-0.5c-0.4-0.1-0.9-0.1-1.3,0c-1.3,0.3-2.4,1.1-2.9,2.2c-0.4,1-0.3,2.1,0.3,3.1
		c0.2,0.3,0.4,0.4,0.8,0.6c0.6,0.3,1.4,0.7,1.4,2c0,1.4-0.4,1.7-1.3,1.9c-0.3,0.1-0.6,0.1-0.9,0.3c-0.7,0.4-1.1,0.5-1.4,0.5
		s-0.4,0.1-0.9,0.8c-0.2,0.3-0.2,0.8-0.3,1.3c0,0.4-0.1,0.7-0.2,1.1c-0.5,2.1-1.1,2.5-2.2,2.9c-0.5,0.2-1,0.4-1.6,1
		c-0.7,0.7-0.7,1.5-0.7,2.5c0,0.9,0,1.9-0.6,2.7c-0.6,0.9-1.3,1.3-2,1.7c-0.8,0.4-1.5,0.8-1.9,2.1c-0.2,0.8-0.3,1.7-0.3,2.6
		c0,0.8,0,1.7-0.2,2.6c-0.1,0.5-0.4,1-0.6,1.5c-0.4,0.8-0.8,1.8-0.7,2.5c0,0.2,0.5,0.4,0.8,0.5c0.6,0.3,1.2,0.6,1.5,1.1
		c0.5,0.9,0.4,2.2,0.3,3.3c-0.1,1-0.6,2.1-1.1,3.2c-0.7,1.4-1.3,2.8-0.9,3.9c0.2,0.6,0.8,1,1.7,1.4c0.6,0.3,1.2,0.4,1.7,0.5
		c1.2,0.3,2.4,0.5,3.2,2.5c0.6,1.5,0.4,4.1,0.2,5.4c-0.1,0.7-0.3,1.3-0.5,1.9c-0.3,1-0.6,2-0.6,3.1c0,0.9,0.1,1.5,0.4,2.1l0.2,0.5
		l-0.5,0.2c-0.9,0.3-1.6,0.6-2.3,1c-1.2,0.6-2.5,1.2-4.9,1.6c-4,0.7-5.4,0.9-6.4,4.3c-1.1,3.6-3.2,4.3-5.4,5l-0.6,0.2
		c-0.8,0.3-1.8,0.4-2.9,0.5c-2.1,0.2-4.5,0.4-6.3,2.2c-0.6,0.7-1.3,1.2-1.9,1.7c-1.4,1.2-2.5,2.1-2.3,3.6l0.1,0.4
		c0.3,2.3,0.7,5.4-2.6,7.5l-0.6,0.4c-2.8,1.8-5.2,3.4-8.7,1.7c-3.5-1.7-6.6-3.1-7.7-1.6c-0.7,1.1-1.6,2.3-2.8,2.3
		c-0.9,0.1-1.8-0.6-2.8-2l-0.5-0.7c-2.1-2.8-4.7-6.3-8.2-5c-1.4,0.5-2.5,0.7-3.4,0.9c-1.6,0.3-2.7,0.5-5.2,2.6
		c-1.1,0.9-2.4,1.5-4,1.7c-0.4,0.1-0.8,0.1-1.2,0.1c-0.5,0-1.1,0-1.4,0.2c-0.7,0.4-1,1-1.3,1.5C27.3,113.4,26.9,114.2,25.7,114.2z
		 M21.7,111.5c0.5,0.2,1,0.5,1.4,0.7c0.5,0.3,1,0.5,1.3,0.7c1.6,0.6,1.8,0.2,2.3-0.7c0.3-0.6,0.7-1.4,1.7-1.9
		c0.6-0.4,1.3-0.4,1.9-0.4c0.4,0,0.7,0,1-0.1c1.4-0.2,2.5-0.7,3.5-1.5c2.6-2.2,3.9-2.5,5.6-2.8c0.9-0.2,1.8-0.4,3.2-0.9
		c4.2-1.5,7.2,2.5,9.3,5.4l0.5,0.7c0.8,1,1.4,1.6,2,1.6l0,0c0.7,0,1.4-0.9,2-1.8c1.6-2.5,5.7-0.4,8.9,1.2c3,1.5,5,0.2,7.7-1.6
		l0.6-0.4c2.8-1.7,2.4-4.1,2.1-6.5l-0.1-0.4c-0.2-2,1.1-3.1,2.6-4.4c0.6-0.5,1.2-1,1.8-1.7c2-2.1,4.8-2.3,7-2.5
		c1-0.1,1.9-0.2,2.6-0.4l0.6-0.2c2.1-0.7,3.8-1.2,4.8-4.4c1.2-4,3.1-4.3,7.2-5c2.3-0.4,3.4-0.9,4.6-1.5c0.6-0.3,1.2-0.6,1.9-0.9
		c-0.2-0.6-0.3-1.2-0.3-2c0-1.3,0.3-2.3,0.6-3.4c0.2-0.6,0.4-1.2,0.5-1.8c0.2-1.6,0.2-3.8-0.2-4.8c-0.6-1.5-1.3-1.6-2.5-1.9
		c-0.6-0.1-1.2-0.2-1.9-0.5c-1.2-0.5-1.9-1.1-2.3-1.9c-0.6-1.4,0.2-3.1,0.9-4.7c0.5-1,0.9-2,1-2.8c0.1-0.5,0.2-2-0.1-2.7
		c-0.2-0.3-0.6-0.5-1.1-0.7c-0.6-0.3-1.2-0.6-1.4-1.2c-0.2-1,0.3-2.1,0.8-3.1c0.2-0.5,0.4-0.9,0.5-1.3c0.2-0.7,0.2-1.5,0.2-2.3
		c0-0.9,0-1.9,0.3-2.9c0.5-1.7,1.5-2.2,2.4-2.7c0.6-0.3,1.2-0.6,1.7-1.3c0.4-0.6,0.4-1.4,0.4-2.2c0-1.1,0-2.3,1-3.2
		c0.8-0.7,1.4-0.9,1.9-1.2c0.8-0.3,1.2-0.5,1.6-2.2c0.1-0.3,0.1-0.6,0.1-0.9c0.1-0.6,0.1-1.3,0.4-1.7c0.6-1,1-1.2,1.6-1.3
		c0.3,0,0.5-0.1,1.1-0.4c0.5-0.3,0.9-0.4,1.2-0.4c0.5-0.1,0.5-0.1,0.5-0.9s-0.3-0.9-0.8-1.1c-0.4-0.2-0.9-0.4-1.2-1
		c-0.8-1.3-0.9-2.7-0.3-4c0.6-1.4,1.9-2.5,3.5-2.8c-0.5-0.2-1-0.3-1.5-0.2l0,0c-1.4,0.2-2.3,1.2-3.3,2.2c-0.9,0.9-1.8,1.9-3.1,2.2
		c-1.3,0.4-2.8,0.3-4.3,0.3c-1.2,0-2.4-0.1-3.5,0.1h-0.2c-1.9,0.4-2.5,0.5-3.7,1.7l-0.4,0.4c-0.8,0.8-1,1-2.4,1.2
		c-1.5,0.2-2.3,0.1-2.8-0.3c-0.6-0.5-0.6-1.2-0.6-2c0-0.5,0-1.1-0.2-1.8c-0.1-0.5-0.4-0.9-0.6-1.4c-0.3-0.5-0.6-1-0.8-1.6
		c-0.1-0.7-0.1-1.3,0-2c0-0.5,0.1-0.9,0-1.3c-0.7-5.4-8-5.6-12.8-5.7c-0.5,0-1,0-1.5,0h-0.4V7.9c0-0.5,0.1-1.2,0.3-2.1
		c0.2-0.7,0.4-2,0.3-2.3c-0.6-0.8-3.8-0.1-5.3,0.6c-1.1,0.6-1.5,1.4-1.9,2.2c-0.4,0.9-0.9,1.9-2.3,2.6c-0.9,0.4-1.9,0.5-2.7,0.6
		c-1.3,0.1-2.2,0.2-2.9,1.6c-0.1,0.2-0.2,0.4-0.3,0.6c-0.6,1.2-1.2,2.6-2.5,2.9c-0.8,0.2-1.6-0.1-2.6-0.8c-0.7-0.5-1-1.3-1.2-1.9
		c-0.2-0.4-0.3-0.8-0.5-1.1c-0.6-0.8-1.7-2-2.5-2.6C50.9,5,43.9,4.7,39.3,4.5c-1.9-0.1-4.9,0.6-5.6,2.6c-0.3,0.8-0.2,1.7-0.1,2.7
		c0.1,1.2,0.2,2.3-0.3,3.4c-0.6,1.2-1.8,2.2-3.1,2.6c-0.3,0.1-0.8,0.1-1.3,0.1c-0.9,0-1.6,0.1-1.8,0.5c-0.2,0.3,0,0.6,0.5,1.2
		c0.3,0.4,0.7,0.9,0.8,1.4c0.2,1.3-0.4,1.7-0.9,2.1c-0.2,0.2-0.4,0.4-0.6,0.6c-0.2,0.3-0.4,0.5-0.5,0.7c-0.6,0.8-0.9,1-2.4,1.2
		c-0.8,0.1-1.8,0.1-2.7,0c-0.4,0-0.8,0-1.2,0c-0.4,0-0.8,0-1.2-0.1c-1.3-0.1-2.5-0.2-3,0.3c-0.3,0.3-0.3,0.8-0.2,1.6
		c0.1,0.3,0.2,0.8,0.4,1.2c0.5,1.5,1.4,3.7-0.9,4.7c-0.6,0.2-1.3,0.2-1.9,0.1c-0.6-0.1-1.2-0.2-1.5,0c-0.5,0.2-0.8,0.5-1.1,0.7
		c-0.5,0.5-1,0.9-2.4,1c-3.5,0.2-3.6,0.6-4.7,3.5c-0.2,0.6-0.5,1.3-0.9,2l0,0c0.1,0.1,0.3,0.2,0.4,0.3c2,2.1,3.9,5.3,3.3,8.3
		c-0.2,1.1-0.6,2.1-0.9,3c-0.5,1.3-1,2.6-1,4.3c0,2.7,0.7,3.7,1.9,5.5c0.3,0.5,0.7,1,1.1,1.7c0.3,0.5,0.6,1.1,0.8,1.6
		c0.3,0.7,0.6,1.4,1.1,2c0.4,0.5,0.9,1,1.4,1.5c0.7,0.7,1.5,1.5,2,2.3c1.2,2.1,0.8,4.2,0.4,6.3c-0.4,2.1-0.8,4.1,0.3,6.2
		c0.2,0.4,0.4,0.7,0.6,1c0.9,1.6,1.6,2.7,1.6,5.1c0,0.8-0.2,1.6-0.4,2.4c-0.3,1.2-0.6,2.3-0.1,3.3c0.5,1.1,1.5,2.1,2.5,3.1
		c0.9,0.8,1.7,1.7,2.3,2.7c0.2,0.3,0.4,0.6,0.5,0.9c1.1,1.8,1.9,3.1,2,5.6C22.6,108,22.4,109.6,21.7,111.5z"/>
</g>
</svg>
