<?xml version="1.0" encoding="utf-8"?>
<!-- Generator: Adobe Illustrator 28.0.0, SVG Export Plug-In . SVG Version: 6.00 Build 0)  -->
<svg version="1.1" id="_レイヤー_2" xmlns="http://www.w3.org/2000/svg" xmlns:xlink="http://www.w3.org/1999/xlink" x="0px"
	 y="0px" viewBox="0 0 120 120" style="enable-background:new 0 0 120 120;" xml:space="preserve">
<style type="text/css">
	.st0{fill:#F0E3D2;}
	.st1{fill:#D7323A;}
</style>
<g>
	<path class="st0" d="M97,72c0-0.3-0.3-1.2-0.5-1.3s-0.5-0.4-0.6-0.6c-0.1-0.1-1.3-1.4-1.5-1.6s-0.4-0.4-0.6-0.2
		c-0.2,0.1-0.1,0.3-0.5,0.1c-0.4-0.2-0.8-0.3-1-0.4c-0.1,0-0.2-0.1-0.2-0.1c0-0.1,0-0.1,0.1-0.3c0.1-0.3,0.6-1.3,0.7-1.5
		s-0.1-2.8-0.1-2.8s-0.9-0.7-1.3-1s-1-1-1.2-1.1s-1.1-0.8-1.2-1.1s0.1-0.5,0.4-0.7c0.3-0.3,1.1-0.6,1.2-1.1c0-0.4,0.1-2.9,0.1-2.9
		s-0.2-0.5-0.3-0.8c-0.1-0.2-0.1-0.3-0.1-0.4c-0.1-0.4,0.1-0.5,0.5-1c0.3-0.4,0.9-1.2,1.2-2c0.3-0.8,0.4-1.3,0.4-1.9
		c0.1-0.6,0.4-1.9,0.6-2.6c0.3-0.7,0.5-1.1,0.5-1.3s-0.3-0.1-0.5-0.1c-0.3,0-0.5,0.1-0.5-0.4s0.1-1.8,0.1-1.8s0-0.3,0.6-0.3
		s1.1,0,1.4-0.3s1.2-1.5,1.3-1.8c0.1-0.2-0.1-0.6-0.6-1c-0.4-0.4-2.6-2.5-2.8-2.8c-0.2-0.3-0.4-0.6,0.1-0.8c0.4-0.2,0.4-0.4,0.3-0.8
		c-0.1-0.3,0.4-0.9,0.6-1.5c0.3-0.6,0.3-1,0-1.6c-0.3-0.6,0-1.2-0.3-1.5c-0.2-0.4-0.7-0.4-1-0.5c-0.3,0-0.5,0-1.3-1.1
		s-1.2-1.3-0.9-2c0.2-0.8,0.9-2.9,1.3-2.7c0.4,0.2,0.5,0.1,0.4-0.1s-0.4-0.7-0.5-0.9c-0.1-0.2,0-0.6,0.1-0.9s0-0.4-0.5-0.4
		c-0.4,0-1.1,0.1-1.5-1c-0.5-1.1-0.9-2.8-1.2-2.8c-0.3-0.1-0.6,0.1-0.8,0.4c-0.2,0.3-0.5,1.4-0.7,1.8c-0.2,0.3-0.3,0.2-0.5,0.4
		c-0.2,0.2-0.4,0.4-0.6,0.5c-0.1,0-0.1,0-0.2,0c-0.2,0-0.4-0.2-0.5-0.6c-0.2-0.5-0.2-0.9-0.6-1.2c-0.4-0.3-0.7-0.4-0.9,0
		c-0.3,0.4-0.5,0.9-0.6,0.9s-0.2-0.3-0.2-0.6c0-0.3,0.2-1.8,0.3-2.6c0.1-0.7,0.3-2.2,0.3-2.5c0-0.4-0.4-1.5-0.5-1.9
		c-0.2-0.4-0.3-1,0.1-1.3s0.3-0.5,0.1-0.8c-0.2-0.4-0.2-0.7-0.8-0.6c-0.6,0.1-1.3,0.2-1.8,0.2c-0.4,0-0.7,0.1-1.1-0.7
		c-0.5-0.8-0.6-1.4-0.7-1.6c0-0.2,0-0.7-0.2-1c-0.2-0.4-0.2-0.7-0.1-0.9C78.3,6,78,5.8,77.8,5.5s-0.8-1-1.3-1.1
		c-0.4-0.1-1.6-0.5-1.7-0.5s-0.9-0.8-1.4-0.8S72.7,3,72.5,2.9s-0.7-0.1-0.9-0.1c-0.2,0-0.4,0-0.8-0.3c-0.3-0.3-0.5-0.2-0.5-0.2
		s-0.5-0.2-0.7-0.7c-0.2-0.3-1.1-1.2-1.1-1.2S68.4-0.1,68,0s-1,0.2-1.2,0.1c-0.2,0-0.5,0.1-0.4,0.3c0,0.2,0,0.4-0.2,0.3
		s-0.5-0.2-0.7-0.3s-0.7,0-0.9,0.3c-0.2,0.3-0.4,0.8-0.7,1.5s-0.8,1.6-0.9,2c-0.1,0.4-0.1,0.4,0.1,0.5c0.3,0.1,1.1,0.4,1.2,0.7
		c0.1,0.3,0.3,1.4,0.6,2.5c0.3,1.2,0.5,2,0.8,2.5s1.2,2.2,1.4,2.7c0.2,0.5,0.3,0.6,0.2,0.9c-0.1,0.2-0.6,1.7-0.7,2.1s0,1.4,0,1.8
		c0,0.3,0.1,0.3-0.6,0c-0.6-0.3-1.3-0.6-1.4-0.6c-0.1-0.1-0.2,0.1-0.3,0.2c-0.1,0.1-0.2,0-0.4-0.2c-0.2-0.2-0.5-0.2-0.6-0.2
		s-0.9,0-1.4-0.1s-0.7-0.6-0.8-0.8c-0.1-0.2-0.2-0.4-0.3,0.1s-0.4,1.4-0.5,1.8s-0.2,1.9-0.2,2.4C60,21,59.9,21.9,60,22.3
		s0.1,0.8-0.3,0.6l0,0c-0.4-0.2-1.2-0.9-1.7-1.1s-0.7-0.1-0.8,0.1s-0.8,1.3-1,1.5s-0.8-0.1-1.1-0.4c-0.3-0.2-0.6-0.5-0.8-0.6
		s-0.4,0-0.8,0.2c-0.4,0.1-0.7,0.3-1.1,0.3c-0.4,0-0.8,0-0.9,0.1c-0.1,0.1,0,0.2,0,0.3c0,0.1-0.2,0.5-0.3,0.9c-0.2,0.4-0.3,1-0.5,1
		s-0.4,0.1-0.6,0.4c-0.2,0.4-0.3,0.5-0.3,0.8c0,0.2,0,0.7,0,0.7s0,0.2-0.2,0.5s-0.5,0.4-0.8,0.5c-0.2,0-1.4,0.1-1.4,0.1
		s-0.6,0.4-0.7,0.5c-0.2,0.1-0.4-0.3-0.6-0.6c-0.2-0.2-0.9-1.1-0.9-1.1s-0.2-0.2-0.4-0.1c-0.2,0-0.4,0-0.4,0s-0.7-0.5-0.8-0.6
		s-0.1-0.5-0.2-0.8c-0.1-0.4-0.4-1-0.8-1.2c-0.4-0.2-0.4,0-0.4,0.2s-1.1,3.2-1.1,3.2s-0.2,0.4-0.4,0.5s-0.4,0.7-0.5,1
		c-0.1,0.4-0.5,1.8-0.5,1.8s-0.1,0.8-0.2,1.1c-0.1,0.3-0.2,0.7-0.4,1.4s-0.3,0.9-0.2,1.3c0.2,0.4,0.3,0.7,0.4,1.1
		c0.1,0.3,0,0.3-0.3,0.4c-0.2,0.1-0.5,0.2-0.7,0.4c-0.3,0.2-1.2,0.9-1.3,1.1c-0.1,0.2-0.1,0.6-0.1,0.9c0,0.4,0,1-0.2,1.2
		c-0.3,0.2-0.6,0.2-1.2,0.5c-0.6,0.4-1,0.6-1.6,0.4c-0.6-0.1-0.7-0.3-0.8-0.6c0-0.3-0.3-1.3-0.4-1.4c-0.1-0.1-0.6-0.1-0.9-0.1
		c-0.3,0-2.9-0.2-2.9-0.2s-0.3-0.1-0.4,0.3c-0.1,0.4-0.4,2.4-0.5,2.9s-0.4,0.7-0.5,0.7s-0.5-0.1-0.9-0.2c-0.4-0.1-0.7-0.2-0.6,0.1
		s0.1,0.4-0.3,0.7s-0.8,0.8-1,1.1s-1,1.8-1,2c-0.1,0.2-0.4,0.9-0.4,1c0,0.2,0.1,0.2,0.5,0.4s0.9,0.4,1.1,0.4s0.4,0.3,0.5,0.5
		s0.8,1.6,1,1.8s1.4,0.7,1.7,0.9c0.3,0.2,0.3,0.6,0.3,0.8s0.1,0.5,0.2,0.8s0.8,1.6,1,2.1s0.5,1.1,0.7,1.2c0.2,0.1,1,0.3,1,0.2
		s0-0.4,0.2-0.5c0,0,0.5-0.2,0.8-0.4s0.3-0.1,0.6-0.5s0.4-0.4,0.4-0.4c0.1,0.1,0.1,0.3,0.1,0.6c0,0.2-0.1,0.3-0.2,0.5
		c-0.1,0.1-0.2,0.2-0.2,0.4c-0.2,0.3-0.2,0.5-0.1,0.6c0.1,0.1,0.1,0.2,0,0.2c0,0.1-1.2,1.2-1.2,1.2v0.5c0,0-0.2,0.3-0.2,0.4
		c-0.1,0.1,0.1,0.2,0.2,0.3s-0.1,0.4-0.3,0.7c-0.2,0.2-0.5,0.7-0.5,0.9s-0.1,1.6-0.1,1.6s0,0.4,0,0.5c-0.1,0.1-0.6,0.5-0.6,0.6
		s0,0.2,0.1,0.3c0,0.1,0.3,0.8,0.4,1.4s0.6,2.4,0.6,2.8c0.1,0.4,0.3,1.6,0.4,1.9s0.3,0.9,0.8,1.3s0.7,0.5,0.7,0.6s-0.1,0.4-0.2,0.7
		c-0.1,0.2-0.6,1.3-0.7,1.4c-0.1,0.1,0,1.3,0,1.3s0,0.3-0.1,0.6c-0.1,0.3-0.8,2.7-0.8,2.7S31,79.5,31,79.8s-0.1,0.3,0,0.4
		s0.3,0.5,0.3,0.5s0,0.3-0.1,0.4l-0.8,1.8v1.9c0,0,0.1,0.5-0.2,0.5c-0.3,0.1-0.6,0-1.1,0.3s-0.7,0.5-0.7,0.6s0.2,0.2,0.3,0.4
		c0.1,0.2,0.5,0.6,0.7,1.2c0.1,0.5,0.3,1,0.4,1.3s0.4,0.2,0.6,0.2s0.2,0.1,0.3,0.3c0,0.2,0,0.8,0,0.8s0.1,0.4-0.3,0.3
		s-0.9-0.3-1.1-0.3s-0.3,0-0.2,0.2c0.2,0.2,0.3,0.4,0.5,0.5s0.4,0,0.6,0s0.3,0,0.4,0.3c0.1,0.4,0.2,0.7,0,0.9
		c-0.1,0.2,0-0.2-0.2-0.1S30,93,30,93.2s0.1,0.3,0.5,0.3s1.2-0.1,1.4-0.1s0.3,0.2,0.3,0.5c0,0.4,0.3,0.5,0.5,0.5s0.2,0.1,0.2,0.3
		c-0.1,0.2-0.2,1.2-0.2,1.2c0,0.1,0.1,0.4,0.3,0.6c0.2,0.3,0.4,0.8,0.8,1c0.4,0.3,1.1,0.5,1.2,0.9c0.2,0.4,0.2,1,0.3,1.4
		c0,0.5,0,0.8,0,0.8c0,0.1-0.3,0.6-0.6,0.8c-0.3,0.3-0.4,0.4-0.4,1c0,0.5-0.1,1-0.1,1.3s-0.1,0.4-0.4,0.8c-0.3,0.3-0.4,0.6-0.4,0.9
		c0.1,0.3,0.2,0.8,0.8,1.2c0.6,0.4,1.1,0.7,1.5,0.9c0.5,0.3,0.4,0.2,0.4,0.4c0,0.2-0.2,0.5,0.2,0.7s0.9,0.5,1.3,0.4
		c0.4-0.1,1-1.1,1.2-1.4s0.4-0.4,0.9-0.5s0.8-0.1,1.1-0.4c0.4-0.3,0.7-0.4,0.8-0.4c0.2,0,0.3,0.1,0.3,0.4c0,0.1,0.1,0.6,0.2,1.3
		c0.1,1.2,0.4,2.7,0.4,3c0.1,0.5,0.2,0.7,0.7,0.6c0.4-0.1,0.9-0.2,1.1-0.2c0.2,0,1,1,1,1.1s-0.1,0.3-0.1,0.6c0,0.3,0.7,0,1-0.1
		s0.9-0.3,1.5-0.4c0.6-0.2,0.6-0.3,0.9-0.1c0.2,0.2,0.3,0.3,0.2,0.6c-0.1,0.3-0.1,0.7,0.1,1.2c0.2,0.5,0.5,0.7,0.8,0.6
		s0.5-0.2,0.6-0.1c0.2,0.1,1.1,0.8,1.1,1.1c0.1,0.2,0.2,0.4-0.1,0.6c-0.2,0.2-0.8,0.4-1,0.5s-0.4,0.4-0.4,0.6
		c-0.1,0.2-0.1,0.8-0.3,1.1c-0.2,0.3-0.1,0.5,0.1,0.4c0.2-0.1,0.5-0.2,0.4,0.1c0,0.3,0.1,0.3,0.3,0.3c0.2-0.1,0.4-0.1,0.6-0.1
		c0.2,0,0.4,0,0.9-0.4s0.7-0.5,0.8-0.6s0.2-0.1,0.4,0s0.3,0.1,0.5-0.1s0.3-0.3,0.4-0.2c0.1,0.1,0.3,0.3,0.5,0.2
		c0.2-0.1,1.4-0.8,1.7-1c0.4-0.2,0.9-0.2,1.1-0.4c0.2-0.2,0.2-0.2,0.4-0.6s0.2-0.7,0.1-1.1c-0.1-0.4-0.4-0.9-0.5-1.2
		c-0.2-0.3-0.2-0.5,0.1-0.4s0.6,0,0.8-0.2c0.3-0.2,0.6-0.5,0.9-0.9c0.2-0.4,0.4-0.9,0.4-1c0.1-0.1,0.5-0.5,1-0.8s1-0.5,0.8-0.6
		s-0.3-0.4-0.3-0.7c0-0.4,0-0.6-0.5-0.5s-0.7,0.3-1,0.3s-1-0.2-1.5-0.4c-0.5-0.2-1.2-0.4-1.1-0.8c0.1-0.4,0.3-0.4,0.2-0.7
		c-0.1-0.3-0.2-0.8,0-0.8s0.5,0.5,0.8,0.2c0.3-0.2,1.2-1.2,1.4-1.5c0.3-0.3,0.4-0.5,0.6-0.2c0.1,0.3,0.4,1.1,0.8,1.5
		c0.4,0.4,0.9,0.8,1.1,0.8c0.2,0,0.4-0.4,0.6-0.6c0.1-0.1,0.2-0.1,0.5,0.1c0.3,0.3,0.5,0.5,0.7,0.5s0.6-0.4,1-0.5c0.4,0,1.7,0,1.9,0
		c0.2,0,0.4-0.1,0.5,0.1c0.1,0.3,0.1,0.8,0.4,1s1.8,1,4,1.7s3.3,0.8,3.4,0.8c0.2-0.1,0.7-0.2,1.7-1c1-0.7,1.3-1,1.4-1
		s0.4,0.4,0.7,0.4c0.3,0,0.5-0.3,0.7-0.4s1-0.4,1.6-0.7c0.6-0.4,0.6-0.5,0.7-0.9c0.1-0.3,0.5-0.6,1.1-0.6c0.5,0,2.2-0.7,2.7-0.8
		c0.4-0.2,0.6-0.1,0.9-0.4c0.3-0.4,0.4-0.3,0.7-0.5c0.3-0.2,0.3-0.7,0.3-1.1s0.2-1.1,0.5-1.3c0.3-0.2,0.2-0.9,0.2-1.1
		s-0.1-0.6,0.4-1.4s0.8-1.4,1.3-1.4s0.5,0.1,0.9-0.5s1-1.9,1.3-2.4s0.8-0.9,0.8-1.2c0-0.3,0-0.9-0.1-1.2c-0.1-0.3,0-0.3,0.3-0.6
		c0.3-0.3,0.3-0.2,0.2-0.6c-0.1-0.3-0.2-1.3-0.2-1.9c0-0.3-0.1-0.5-0.1-0.5c0-0.2,0.1-0.3,0.3-0.7c0.2-0.4,0.2-0.5,0-0.6
		s-0.4-0.2-0.4-0.6c0-0.3,0.2-1.4,0.2-1.6c0.1-0.3,0.7-0.9,1.1-1.2c0.4-0.4,1-0.8,1.1-1s0.1-0.3,0-0.5c0-0.2-0.3-1.3-0.4-1.4
		c-0.1-0.2,0-0.4,0.2-0.6s0.5-0.4,0.5-0.8s-0.1-2-0.2-2.5s-0.1-0.7,0.2-1c0.3-0.3,0.6-0.6,0.6-0.8c0.1-0.1-0.5-0.4-0.8-0.6
		s-0.5-0.2-0.4-0.7s0.6-1.5,0.7-1.7s0.5-0.4,0.8-0.6C97.1,72.6,97,72.3,97,72z M78,45c0,0.1,0,0.8-0.1,1.5c0,0.8-0.1,1.6-0.2,1.8
		c-0.2,0.4-0.4,0.8-0.7,1.8c-0.3,1-0.8,1.9-1.1,2.7c-0.1,0.3-0.2,0.5-0.3,0.6c-0.1,0.2-0.1,0.2,0,0.4c0.1,0.4-0.1,0.4-0.8,1.1
		c-0.7,0.7-1.9,1.6-2,1.7c-0.1,0.1-1.4,0.8-2,1.7s-1.2,1.1-2.4,1.8c-1.2,0.7-2.3,1.3-2.6,1.7c-0.3,0.3-1,1.1-2.4,1.5
		s-2.6,0.7-2.9,0.8h-0.1c-0.2,0.1-0.3,0.2-0.3,0.4c0,0.2-0.1,0.7-0.2,0.9c-0.1,0.1-0.7,0.5-1.1,0.7c-0.2,0.1-0.4,0.2-0.4,0.2
		c-0.2,0-0.2-0.2-0.4-0.5s-0.3-0.1-0.5,0.2c-0.2,0.3-0.4,0.4-0.3,0.5c0.1,0.1,0.3,0.1,0.6,0.3c0.2,0.2,0.4,0.2,0.3,0.3
		c-0.3,0.2-0.3,0.6-0.5,0.6c-0.1,0-0.5,0-0.7,0s-0.4-0.3-0.7-0.1c-0.3,0.2-1.4,1.6-1.4,1.6s-0.2,2.1-0.2,2.4c0,0.2,0.1,0.4,0.2,0.4
		c0.1,0,0.4,0,0.4,0.2s-0.2,1.1-0.3,1.3c-0.1,0.2-0.5,0.5-1.2,0.5c-0.8,0-2.4-0.6-2.8-0.6c-0.3,0-1,0.6-1,0.8c0,0.1,0,0.2-0.1,0.3
		c0,0.1-0.1,0.3-0.1,0.3s-0.7,0.1-1,0s-1.4-0.9-1.6-1c-0.2-0.1-1.3,1.9-1.3,1.9s-0.1,0.1-0.2,0.3c-0.2,0.3-0.4,0.7-0.5,0.7
		c-0.2,0-1.1-0.3-1.6-0.5C43,76,43,75.8,42.9,75.9s-0.7,0.7-0.8,1s-0.6,2.7-0.5,2.9c0.1,0.2,0.2,0.5,0.3,0.7c0,0.2,0.2,0.6,0.3,0.8
		c0.2,0.2,0.5,0.6,0.7,0.7c0.2,0.2,0.3,0.2,0.1,0.5c-0.2,0.2-0.4,0.5-0.7,0.6c0,0,0,0-0.1,0c-0.3,0.1-0.4-0.1-0.7-0.2
		s-0.5,0-0.4,0.1c0.1,0.2,0.4,0.6,0.5,0.8c0.1,0.2,0.1,0.3-0.1,0.5c-0.2,0.2-0.4,0-0.6,0.1c-0.2,0.1-2,2.6-2.3,2.9s-0.3,0.5-0.2,0.6
		s0.2,0.2,0.3,0.3c0.1,0.1,0.3,0.2,0.2,0.3c-0.1,0.1-0.2,0.2,0,0.4C39.1,89,39,89.8,39,90s0.1,0.5,0.4,0.7c0.3,0.2,0.2,0.4,0.1,0.8
		c-0.1,0.4-0.2,0.7-0.6,1c-0.3,0.2-0.6,0.6-0.7,0.9c0,0.1,0,0.1,0,0.2c0,0.2,0.2,1.4,0.1,1.5c0,0.1-0.4-0.1-0.8-0.5
		c-0.4-0.4-0.5-0.9-0.6-1.2c-0.1-0.3-0.3-0.6-0.3-0.9c0-0.2,0-0.2-0.3-0.3c-0.3-0.1-1.5-0.4-1.8-0.6s-0.9-0.7-1-0.8
		c-0.1-0.1-0.2-0.2-0.1-0.4c0.1-0.2,0.4-0.8,0.5-1.1c0.1-0.4,0.1-0.6,0.2-1.4c0.1-0.7,0.2-1.1,0.5-1.5c0.2-0.4,0.3-0.6,0.5-1
		c0.1-0.3,0.5-1,0.7-1.3s0.4-0.7,0.4-0.8c0-0.2,0-0.4,0.1-0.6s0.5-0.8,0.5-1s0.2-0.4,0.3-0.5s0.4-0.2,0.7-0.5s0.6-1,0.4-1.1
		c-0.2-0.1-0.3-0.3-0.2-0.4s0.5-0.3,0.8-0.3s0.4,0.1,0.5-0.1s0.9-1.6,1-1.8c0.1-0.2,0.4-0.7,0.4-1s-0.4-0.9-0.6-1.3
		c-0.1-0.4-0.1-0.5,0-0.8s0.7-1.2,0.8-1.6c0.2-0.4,0-0.4-0.5-1s-0.5-0.7-0.7-1s-0.4-1.1-0.4-1.3c0-0.2-0.2-0.6-0.1-0.9
		c0.1-0.3,0.8-1.8,0.9-2.1c0.2-0.3,0.3-0.5,0.5-0.5s0.3,0,0.4-0.1c0.2-0.1,0.2-0.3,0.7-0.9c0.4-0.6,0.3-0.6,0.6-0.9
		c0.4-0.3,1.1-0.8,1.5-1c0.3-0.3,0.2-0.4,0.1-0.9c-0.1-0.4-0.1-0.8,0-0.9c0.2-0.1,0.5-0.5,0.9-0.8c0.3-0.3,0.5-0.9,1.2-1.4
		c0.4-0.3,0.8-0.6,1.2-1c0.3-0.3,0.6-0.5,0.9-0.7c0.6-0.4,1-0.5,1.5-0.8s0.2-1.2,0.2-1.9s0.5-1.1,0.7-1.2c0.2-0.1,0.4-0.2,0.8-0.3
		c0.4-0.1,0.7-0.2,0.9-0.1c0.2,0.1,0.4,0.2,0.9-0.4c0.6-0.5,1.5-1.3,2-1.4c0.4-0.1,0.9,0.2,1,0.1c0.1-0.1,0.2-0.4,0.2-0.7
		s0.1-0.5-0.1-0.8c-0.1-0.3-0.6-1.1-0.7-1.4c-0.1-0.3-0.3-1.8-0.3-2c0-0.1-0.7-1-0.7-1s-1.3-1.5-1.5-1.6s-0.8-0.3-0.9-0.5
		c-0.1-0.2-0.4-1-0.4-1.4s0.3-1.8,0.4-2.1c0.1-0.3,0.5-0.2,0.7-0.3c0.1-0.1,0.2-0.4,0.2-0.6c0-0.2,0-1.1,0-1.4s-0.1-0.6-0.2-1
		c-0.1-0.3-0.2-0.8-0.2-0.9c0-0.1,0.4-0.6,1-1.2c0.5-0.6,1-1.1,1.2-1.5c0.3-0.3,1-0.8,1.2-1s0.4-0.2,0.5-0.2
		c0.1,0.1,0.4,0.7,0.5,0.9s0.5,0.9,0.6,0.9c0.2,0,0.7-0.1,0.8-0.1s0.5,0,0.6-0.3c0-0.1,0.2-0.5,0.3-1.1c0.3-1,0.7-2.3,0.8-2.6
		c0.1-0.4,0.3-0.5,0.6-0.8s0.3-0.2,0.4-0.1c0.1,0.1,0.2,0.3,0.4,0.3s0.4-0.2,0.5-0.1s0.2,0.4,0.4,0.6c0.2,0.3-0.1,0.3-0.4,0.2
		c-0.3-0.1-0.4,0.4-0.5,1s-0.1,1.1,0,1.2s0.3,0,0.2,0.2c0,0.2-0.1,0.3,0.2,0.3s0.7-0.1,1-0.2c0.3,0,0.3,0,0.5,0.3
		c0.1,0.3,0,0.7-0.1,1.1s0.2,0.4,0.3,0.5s0.3,0.2,0.4,0.1c0.2-0.1,0.2-0.4,0.6-1c0.4-0.7,0.5-1.2,0.5-1.4c0-0.2-0.3-0.1-0.5-0.2
		c-0.2,0-0.4-0.8-0.5-1.1C64,29.5,64,29.3,64.3,29s1.1-1.1,1.1-1.3c0-0.2-0.1-0.4-0.2-0.7c0-0.3,0.2-0.7,0.4-0.9
		c0.2-0.3,0.2-0.3,0-0.6c-0.2-0.3-0.2-0.8-0.2-1.2c0.1-0.4,0.3,0,0.3,0s0.3,0.8,0.7,1.3c0.4,0.6,0.4,0.6,0.5,0.5
		c0.2-0.1,0.3-0.3,0.6-0.5c0.3-0.2,0.6,0.5,0.8,0.9c0.2,0.4,0.2,0.6,0.2,0.6s0,1.4,0.1,1.9c0,0.5,0.4,1.9,0.4,1.9s0.3,1.2,0.3,1.4
		s-0.3,0.2-0.7,0.5c-0.4,0.2-0.4,0.3-0.4,0.5s0.1,0.2,0.3,0.7c0.3,0.5,0.9,2.2,1.2,2.9c0.3,0.7,0.6,1,1,1.3s0.4,0.8,0.4,0.8
		s0,1.2,0.1,1.6c0,0.4,0.3,0.3,0.5,0.3s1.9,0.2,2.3,0.3c0.5,0,0.7,0.1,0.9,0.2c0.2,0.1,1,1.1,1,1.1s0.3,0.4,0.5,0.4
		c0.1,0,0.2,0,0.3,0.1c0.1,0.1,0.5,0.5,0.9,0.8C78,44.7,78.1,44.9,78,45z"/>
	<path class="st1" d="M52.5,118L52.5,118c-0.5,0-0.7-0.1-0.8-0.4c-0.2,0-0.4,0-0.5-0.2c-0.2-0.2-0.3-0.6,0-1
		c0.1-0.1,0.1-0.4,0.1-0.5c0-0.2,0-0.3,0.1-0.4c0.1-0.4,0.3-0.8,0.7-0.9c0.1,0,0.2-0.1,0.3-0.1c0.2-0.1,0.5-0.2,0.6-0.3l0,0l0,0
		l-0.1-0.2c-0.1-0.2-0.6-0.6-0.8-0.7H52l-0.2,0.1c-0.5,0.2-1.1,0-1.4-0.9c-0.3-0.7-0.2-1.2-0.1-1.5l0,0h-0.1c-0.1,0-0.2,0.1-0.4,0.1
		c-0.6,0.1-1.2,0.3-1.5,0.4l-0.1,0.1c-0.4,0.2-0.9,0.3-1.3,0.1c-0.2-0.1-0.3-0.3-0.3-0.5s0-0.4,0.1-0.5c-0.1-0.2-0.4-0.5-0.6-0.7
		c-0.2,0-0.5,0.1-0.9,0.2c-0.2,0-0.6,0.1-1-0.2c-0.2-0.2-0.3-0.5-0.3-0.8c0-0.2-0.1-0.6-0.1-0.9c-0.1-0.6-0.2-1.4-0.3-2.1
		c0-0.3-0.1-0.6-0.1-0.8c0-0.1,0-0.2,0-0.3c-0.1,0-0.2,0.1-0.3,0.2c-0.3,0.3-0.7,0.4-1.1,0.4h-0.2c-0.5,0.1-0.5,0.2-0.6,0.3
		l-0.1,0.1c-0.5,0.9-1,1.4-1.4,1.5c-0.5,0.1-1.1-0.1-1.5-0.4l-0.1-0.1c-0.6-0.3-0.5-0.8-0.5-1l-0.1-0.1c-0.4-0.2-0.9-0.5-1.5-0.9
		c-0.7-0.5-0.9-1-1-1.4l-0.1-0.2c0-0.5,0.2-0.9,0.5-1.3v-0.1c0.2-0.3,0.2-0.3,0.2-0.4s0-0.3,0-0.5s0.1-0.5,0.1-0.8
		c0-0.7,0.2-1,0.5-1.4c0.2-0.1,0.4-0.4,0.5-0.5v-0.7c0-0.1-0.1-0.3-0.1-0.5c0-0.3-0.1-0.6-0.2-0.8v-0.1c0-0.1-0.3-0.2-0.5-0.3
		c-0.2-0.1-0.4-0.2-0.5-0.3c-0.4-0.2-0.6-0.6-0.8-0.9c0-0.1-0.1-0.1-0.1-0.2c-0.2-0.2-0.4-0.6-0.4-0.9c0-0.5,0.1-0.8,0.1-1.1
		c-0.4-0.1-0.6-0.4-0.6-0.9c-0.1,0-0.2,0-0.2,0c-0.3,0-0.7,0.1-1,0.1c-0.9,0-1-0.5-1-0.8c0-0.2,0.2-1.2,0.7-1.4v-0.1l0,0
		c0,0,0,0-0.1,0c-0.2,0-0.4,0.1-0.7-0.1c-0.2-0.1-0.4-0.3-0.5-0.4c0-0.1-0.1-0.1-0.2-0.2l-0.1-0.1c-0.1-0.2-0.1-0.5,0-0.6
		c0.2-0.3,0.5-0.3,0.7-0.3s0.4,0.1,0.8,0.2h0.1v-0.3c-0.5,0-0.8-0.2-0.9-0.6l0-0.2c-0.1-0.3-0.3-0.7-0.3-1.1
		c-0.1-0.3-0.3-0.6-0.5-0.8c-0.1-0.1-0.2-0.2-0.2-0.3l-0.1-0.1c-0.1-0.1-0.3-0.3-0.3-0.5c0-0.3,0.3-0.6,0.9-1c0.4-0.3,0.7-0.3,1-0.3
		h0.1v-2.1l0.9-2c-0.1-0.1-0.1-0.2-0.2-0.3c-0.2-0.2-0.2-0.5-0.2-0.6v-0.1c0-0.3,0.3-1.1,0.4-1.6c0,0,0.7-2.4,0.8-2.7
		c0.1-0.2,0.1-0.4,0.1-0.4c-0.1-1.4,0-1.5,0.1-1.6c0-0.1,0.3-0.7,0.5-1l0.1-0.3c0-0.1,0.1-0.2,0.1-0.3c0,0,0,0-0.1,0
		c-0.1-0.1-0.2-0.2-0.4-0.3c-0.6-0.5-0.8-1.2-1-1.5c-0.1-0.2-0.1-0.6-0.3-1.1c-0.1-0.3-0.1-0.6-0.2-0.8v-0.1c0-0.2-0.2-1-0.3-1.5
		c-0.1-0.5-0.2-0.9-0.3-1.2c-0.1-0.3-0.2-0.7-0.3-1c0-0.1-0.1-0.2-0.1-0.3c-0.1-0.2-0.1-0.4-0.1-0.5c0-0.3,0.2-0.5,0.6-0.8v-0.3
		c0,0,0.1-1.4,0.1-1.6c0-0.4,0.5-1.1,0.6-1.3c0,0,0.1-0.1,0.1-0.2c-0.1-0.1-0.2-0.2-0.2-0.4v-0.2l0.1-0.1c0-0.1,0.1-0.2,0.2-0.3
		v-0.6l0.2-0.1c0.4-0.3,0.8-0.8,1-1c-0.1-0.2-0.1-0.5,0.1-0.8c-0.2,0.1-0.5,0.3-0.7,0.3c0,0,0,0,0,0.1v0.3l-0.2,0.2
		c-0.4,0.3-1.5-0.2-1.5-0.2c-0.1-0.1-0.4-0.2-0.9-1.5c-0.1-0.2-0.3-0.7-0.5-1.1c-0.3-0.5-0.4-0.9-0.5-1c-0.1-0.3-0.2-0.7-0.2-1
		c0-0.1,0-0.3-0.1-0.4c-0.1-0.1-0.4-0.2-0.7-0.3c-0.7-0.3-1-0.5-1.1-0.6s-0.3-0.3-1.1-1.9c-0.1-0.1-0.1-0.2-0.2-0.2
		c-0.4,0-1-0.3-1.2-0.4L25,46.1c-0.3-0.1-0.6-0.3-0.6-0.8c0-0.3,0.3-1,0.4-1.2c0.2-0.6,1-2.1,1.1-2.1c0.2-0.4,0.7-0.9,1.1-1.2
		c0.1,0,0.1-0.1,0.1-0.1l0,0c-0.1-0.3,0-0.6,0.1-0.7c0.3-0.3,0.6-0.2,1-0.1v0.5l0.1-0.5c0.2,0.1,0.5,0.1,0.7,0.2
		c0,0,0.1-0.1,0.1-0.3s0.1-0.7,0.2-1.2c0.1-0.9,0.2-1.5,0.3-1.7c0.1-0.3,0.3-0.5,0.4-0.6c0.6-0.3,0.8-0.3,1-0.3
		c1,0.1,2.6,0.2,2.8,0.2c0.7,0,1,0,1.3,0.2c0.2,0.2,0.5,1.2,0.5,1.7c0,0.1,0.1,0.2,0.4,0.2c0.4,0.1,0.6,0.1,1.2-0.3
		c0.4-0.2,0.6-0.3,0.8-0.3c0.1,0,0.2-0.1,0.3-0.1c0.1-0.2,0.1-0.6,0.1-0.8c0-0.4,0-0.8,0.2-1.1c0.2-0.4,1.5-1.3,1.5-1.3
		c0.1-0.2,0.4-0.3,0.6-0.4l0.1-0.1c-0.1-0.3-0.2-0.5-0.3-0.8V33c-0.1-0.5,0-0.8,0.1-1.3l0.3-1c0.1-0.3,0.2-0.6,0.2-0.8
		c0.1-0.2,0.1-0.7,0.2-1c0-0.1,0.4-1.5,0.5-1.9c0.2-0.7,0.4-1.2,0.8-1.3c0,0,0.1-0.2,0.2-0.3c0.5-1.3,1-2.8,1.1-3
		c0-0.1,0-0.4,0.3-0.6s0.7,0,0.8,0c0.6,0.3,1,1.1,1.1,1.5c0,0.1,0.1,0.3,0.1,0.5c0,0.1,0,0.1,0,0.2c0.1,0.1,0.4,0.3,0.6,0.4H47
		c0.3-0.1,0.6,0,0.8,0.2c0.3,0.4,0.8,1,0.9,1.1l0.2,0.2c0,0,0,0.1,0.1,0.1c0.1-0.1,0.3-0.2,0.4-0.3l0.1-0.1h0.1c0,0,1-0.1,1.4-0.1
		c0.2-0.1,0.4-0.1,0.5-0.3c0.1-0.2,0.1-0.3,0.1-0.3v-0.7c0-0.4,0.1-0.6,0.2-0.8l0.1-0.2c0.2-0.4,0.5-0.6,0.8-0.6
		c0-0.1,0.1-0.2,0.1-0.2c0.1-0.2,0.1-0.3,0.2-0.5c0.1-0.2,0.1-0.4,0.2-0.6v-0.1c-0.1-0.3,0-0.5,0.2-0.6c0.2-0.2,0.6-0.2,1.3-0.2
		c0.2,0,0.3-0.1,0.5-0.1c0.1,0,0.3-0.1,0.4-0.1c0.4-0.2,0.8-0.4,1.2-0.2c0.2,0.1,0.3,0.2,0.5,0.4c0.1,0.1,0.2,0.2,0.4,0.3
		c0.2,0.2,0.4,0.3,0.6,0.4c0.2-0.3,0.7-1.1,0.8-1.3c0.1-0.3,0.5-0.7,1.4-0.3c0.3,0.1,0.7,0.4,1.1,0.7c0.1,0,0.1,0.1,0.2,0.1
		c-0.1-0.6,0.1-1.4,0.1-1.8s0.1-1.9,0.2-2.4c0-0.2,0.1-0.4,0.2-0.7c0.1-0.4,0.2-0.8,0.3-1.1c0-0.2,0.1-0.7,0.6-0.7
		c0.4,0,0.6,0.3,0.7,0.5c0.1,0.3,0.3,0.5,0.5,0.5c0.3,0.1,0.9,0.1,1.3,0.1c0.4,0,0.7,0.1,0.9,0.3c0.1-0.1,0.2-0.1,0.3-0.1h0.2
		l0.1,0.1c0.4,0.1,0.9,0.4,1.2,0.5c0-0.6,0-1.1,0-1.4c0.1-0.4,0.6-2,0.7-2.2c0,0-0.1-0.1-0.1-0.2l-0.1-0.3c-0.2-0.5-1.1-2.1-1.4-2.6
		c-0.3-0.6-0.5-1.4-0.9-2.6c-0.2-0.6-0.3-1.2-0.4-1.7c-0.1-0.3-0.1-0.6-0.2-0.7c0,0-0.4-0.2-0.9-0.4c-0.6-0.3-0.5-0.7-0.4-1.1
		C64.8,2,65,1.6,65.2,1.1c0.1-0.3,0.3-0.6,0.4-0.9l0.1-0.3c0.2-0.6,0.4-1,0.6-1.3c0.3-0.5,1.1-0.7,1.5-0.5C67.8-2,67.9-2,67.9-2
		s0,0,0-0.1c0.2-0.3,0.5-0.4,0.8-0.4h0.1L69-2.3c0.1,0,0.4,0,0.9-0.1c0.2-0.1,0.5,0,0.7,0.1c0.2,0.1,0.3,0.4,0.4,0.5
		c0.2,0.2,0.8,0.8,1,1.1v0.1c0.1,0.2,0.2,0.3,0.3,0.4c0.2,0,0.5,0.1,0.8,0.4c0.2,0.2,0.3,0.2,0.4,0.2c0.4,0,0.9,0,1.1,0.2
		c0.2,0.1,0.3,0.1,0.7,0.1c0.5,0,1,0.4,1.4,0.7l0.1,0.1c0.1,0,0.3,0.1,0.8,0.2c0.3,0.1,0.7,0.2,0.9,0.3c0.8,0.2,1.6,1.3,1.6,1.3
		c0.1,0.1,0.1,0.1,0.2,0.2c0.2,0.2,0.5,0.6,0.3,1c0,0,0,0.2,0.1,0.5C80.9,5.2,81,5.6,81,6c0,0.1,0,0.1,0.1,0.2
		c0.1,0.3,0.2,0.7,0.6,1.2c0.2,0.5,0.3,0.5,0.5,0.5h0.1c0.4,0,0.9-0.1,1.7-0.2c0.9-0.1,1.1,0.4,1.3,0.7l0.1,0.2
		c0.1,0.2,0.6,0.8-0.2,1.4c-0.1,0.1-0.1,0.4,0,0.7v0.1c0,0.1,0.1,0.3,0.2,0.5c0.2,0.7,0.4,1.2,0.4,1.5c0,0.4-0.3,2.5-0.3,2.6
		l-0.1,0.5c0,0.3-0.1,0.8-0.2,1.2c0.1-0.1,0.3-0.2,0.4-0.2c0.4-0.1,0.8,0.1,1,0.3c0.4,0.3,0.5,0.7,0.6,1.1c0,0.1,0.1,0.2,0.1,0.4
		c0,0.2,0.1,0.2,0.1,0.3c0.1-0.1,0.3-0.2,0.4-0.3c0.1-0.1,0.3-0.2,0.4-0.2c0.1-0.2,0.2-0.5,0.3-0.8c0.2-0.5,0.3-0.9,0.4-1.1
		c0.3-0.5,0.8-0.7,1.3-0.6s0.7,0.6,1,1.7c0.2,0.5,0.3,1,0.5,1.4c0.3,0.7,0.6,0.7,0.9,0.7h0.1c0.4,0,0.7,0,0.9,0.3
		c0.2,0.3,0.1,0.6,0.1,0.7c-0.1,0.4-0.1,0.6-0.1,0.6c0,0.1,0.1,0.2,0.2,0.4c0.1,0.2,0.2,0.4,0.3,0.5c0.2,0.4,0,0.7-0.1,0.8
		c-0.2,0.2-0.5,0.2-0.7,0.1c-0.3,0.4-0.7,1.5-0.8,2.3c-0.1,0.3-0.1,0.3,0.3,1c0.1,0.2,0.3,0.4,0.5,0.6C94,28,94.1,28,94.2,28h0.2
		c0.1,0,0.1,0,0.2,0c0.3,0.1,0.8,0.2,1.1,0.6c0.2,0.3,0.2,0.6,0.2,0.9c0,0.2,0,0.4,0.1,0.6c0.4,0.7,0.4,1.3,0,2
		c-0.1,0.2-0.2,0.5-0.3,0.7c-0.1,0.2-0.2,0.4-0.2,0.5c0.1,0.3,0.2,0.9-0.5,1.3c0,0,0,0.1,0.1,0.1c0.2,0.2,1.6,1.6,2.2,2.2
		c0.3,0.3,0.5,0.5,0.6,0.6c0.6,0.5,0.9,1.1,0.7,1.6c-0.1,0.4-1.1,1.6-1.4,1.9c-0.4,0.4-1.1,0.4-1.8,0.4h-0.1c0,0.4-0.1,1.1-0.1,1.5
		h0.1c0.2,0,0.5-0.1,0.7,0.1l0.2,0.1v0.3c0,0.3-0.1,0.6-0.4,1.1l-0.2,0.4c-0.2,0.6-0.5,1.9-0.6,2.5c0,0.6-0.1,1.2-0.4,2
		c-0.3,0.9-1,1.7-1.3,2.1c-0.1,0.1-0.2,0.2-0.2,0.3C93,51.9,92.9,52,92.9,52v0.2c0,0.1,0,0.1,0,0.2c0.1,0.4,0.3,0.8,0.3,0.8v0.1v0.1
		c0,0-0.1,2.5-0.1,2.9c-0.1,0.6-0.6,1-1,1.2c-0.1,0.1-0.3,0.2-0.3,0.2c-0.2,0.2-0.3,0.2-0.3,0.2c0.1,0.1,0.8,0.7,1,0.8
		s0.3,0.2,0.7,0.6c0.2,0.2,0.4,0.4,0.6,0.6c0.4,0.3,1.3,1,1.3,1l0.2,0.1v0.2c0.2,2.7,0.1,2.9,0,3.1c-0.2,0.5-0.5,1-0.6,1.3h0.1
		c0.2,0.1,0.4,0.2,0.7,0.3l0,0c0.4-0.3,0.8-0.2,1.3,0.3c0.1,0.1,0.5,0.6,0.9,1c0.3,0.3,0.5,0.6,0.6,0.6l0.1,0.1
		c0.1,0.1,0.3,0.3,0.4,0.4c0.5,0.2,0.8,1.5,0.8,1.7H99l0.5,0.1c0,0.2,0,0.5-0.3,0.7C99,71,98.7,71,98.4,70.9c0,0,0,0-0.1,0
		c-0.1,0.1-0.3,0.2-0.4,0.3c-0.5,1-0.6,1.4-0.6,1.6c0,0,0,0,0,0.1l0,0c0.1,0,0.1,0.1,0.2,0.1s0.2,0.1,0.3,0.2
		c0.4,0.3,0.7,0.4,0.8,0.8v0.2l-0.1,0.1c-0.1,0.3-0.4,0.6-0.7,0.9c-0.1,0.1-0.1,0.1-0.1,0.5c0.1,0.5,0.2,2.2,0.2,2.6
		c0,0.6-0.3,0.9-0.6,1.1l-0.1,0.1l-0.1,0.1c0.2,0.4,0.4,1.1,0.4,1.4c0.1,0.3,0.1,0.6,0,0.9c-0.1,0.2-0.3,0.4-0.6,0.7
		c-0.2,0.1-0.4,0.3-0.5,0.5c-0.4,0.3-0.9,0.8-1,1c0,0.1,0,0.4-0.1,0.6c0,0.3-0.1,0.7-0.1,0.9c0,0.1,0.1,0.1,0.1,0.2
		c0.1,0,0.3,0.2,0.4,0.4c0.1,0.3,0,0.6-0.2,0.9c-0.1,0.1-0.1,0.2-0.2,0.3l-0.1,0.1c0,0.1,0.1,0.3,0.1,0.5c0,0.6,0.1,1.5,0.2,1.7v0.1
		c0.1,0.4,0.1,0.6-0.2,0.9L95,91c0.1,0.4,0.1,0.9,0.1,1.3s-0.2,0.7-0.5,1c-0.1,0.2-0.3,0.3-0.4,0.5s-0.3,0.5-0.5,0.9
		C93.6,95,93.3,95.6,93,96c-0.4,0.6-0.6,0.7-1.1,0.7h-0.2c-0.2,0-0.4,0.5-0.7,0.9l-0.2,0.3c-0.4,0.6-0.3,0.8-0.3,1v0.2
		c0,0.4,0.1,1.1-0.4,1.4c-0.1,0.1-0.3,0.6-0.3,0.9c0,0.5,0,1.2-0.5,1.5c-0.1,0.1-0.2,0.1-0.3,0.2c-0.1,0-0.1,0.1-0.2,0.2
		c-0.3,0.3-0.6,0.4-0.8,0.4c-0.1,0-0.2,0-0.3,0.1h-0.1c-0.2,0-0.6,0.2-0.9,0.3c-0.9,0.3-1.5,0.5-1.9,0.5s-0.6,0.2-0.6,0.3
		c-0.1,0.5-0.3,0.7-0.9,1.2c-0.4,0.2-0.9,0.4-1.3,0.6c-0.2,0.1-0.3,0.1-0.4,0.2l-0.1,0.1c-0.2,0.1-0.4,0.4-0.8,0.4
		c-0.3,0-0.5-0.2-0.7-0.3c0,0,0,0-0.1,0.1c-0.2,0.2-0.5,0.4-1,0.8c-0.8,0.7-1.4,0.9-1.7,1h-0.1l-0.1,0.1h-0.1c0,0-1.1,0-3.6-0.8
		c-2.4-0.7-3.9-1.6-4.1-1.8c-0.4-0.3-0.5-0.7-0.5-1h-0.1h-1.8c-0.1,0-0.3,0.1-0.4,0.2c-0.2,0.1-0.4,0.3-0.7,0.3
		c-0.4,0-0.7-0.2-1-0.6l0,0c-0.2,0.2-0.4,0.6-0.8,0.6c-0.3,0-0.8-0.3-1.5-0.9c-0.3-0.3-0.6-0.8-0.7-1.2c-0.2,0.3-1.1,1.3-1.4,1.5
		c-0.1,0.2-0.3,0.2-0.6,0.2c0.1,0.3-0.1,0.5-0.1,0.6c0,0,0,0.1-0.1,0.1c0.1,0.1,0.4,0.2,0.5,0.2l0.2,0.1c0.5,0.2,1.1,0.4,1.3,0.4
		c0.1,0,0.1,0,0.2-0.1c0.2-0.1,0.4-0.2,0.7-0.2c0.2,0,0.6-0.1,0.8,0.1c0.3,0.2,0.3,0.6,0.3,0.9c0,0.2,0,0.3,0.1,0.3l0.3,0.1v0.3
		c0,0.4-0.3,0.5-0.7,0.8c-0.1,0.1-0.2,0.1-0.4,0.2c-0.3,0.2-0.5,0.4-0.8,0.6c-0.1,0.4-0.4,0.9-0.4,1c-0.4,0.5-0.7,0.9-1.1,1.1
		c-0.1,0.2-0.4,0.3-0.6,0.3c0,0,0,0.1,0.1,0.1c0.1,0.3,0.3,0.6,0.3,0.8c0.1,0.4,0.2,0.9-0.1,1.4c-0.2,0.4-0.2,0.5-0.5,0.7
		c-0.2,0.2-0.5,0.3-0.8,0.3c-0.2,0-0.3,0.1-0.5,0.1c-0.3,0.2-1.5,0.9-1.7,1c-0.3,0.1-0.5,0.1-0.8-0.1c-0.3,0.3-0.6,0.4-1,0.2
		l-0.1,0.1c-0.1,0.1-0.3,0.2-0.6,0.4c-0.6,0.5-0.9,0.5-1.2,0.5c-0.2,0-0.3,0-0.4,0L52.5,118z M52.2,116.5c0.1,0,0.1,0.1,0.2,0.1
		c0.1,0,0.1,0.1,0.2,0.3c0.1,0,0.3,0,0.4,0c0.1,0,0.2,0,0.6-0.3c0.3-0.2,0.5-0.4,0.6-0.5c0.1,0,0.1-0.1,0.1-0.1
		c0.2-0.2,0.6-0.3,0.9-0.1c0.2-0.2,0.7-0.6,1.1-0.2l0,0c0.4-0.2,1.3-0.7,1.5-0.9c0.3-0.1,0.5-0.2,0.7-0.3c0.1,0,0.3-0.1,0.3-0.1
		c0.1-0.1,0.1-0.1,0.3-0.5c0.1-0.3,0.1-0.4,0.1-0.8c0-0.2-0.2-0.4-0.3-0.7c-0.1-0.2-0.1-0.3-0.2-0.4c-0.2-0.4-0.3-0.7-0.1-0.9
		c0.1-0.1,0.3-0.3,0.8-0.2c0.1,0,0.3,0,0.3-0.1c0.3-0.2,0.6-0.5,0.9-0.8c0.1-0.3,0.3-0.7,0.3-0.8V109l0.1-0.1
		c0.4-0.4,0.7-0.7,1.1-0.9c0.1-0.1,0.3-0.2,0.4-0.2c-0.1-0.2-0.1-0.4-0.1-0.6c-0.2,0-0.3,0.1-0.4,0.1c-0.2,0.1-0.4,0.2-0.6,0.2
		c-0.4,0-1.2-0.3-1.7-0.4l-0.2-0.1c-0.5-0.2-1.4-0.5-1.2-1.3c0.1-0.2,0.1-0.4,0.2-0.5c-0.2-0.5-0.2-0.9,0-1.2l0.1-0.2h0.3
		c0.2,0,0.4,0.1,0.5,0.2l0,0c0.4-0.3,1.1-1.1,1.2-1.3l0.2-0.2c0.2-0.2,0.4-0.4,0.7-0.4s0.5,0.3,0.5,0.4l0.1,0.1
		c0.1,0.4,0.4,1,0.7,1.3s0.5,0.5,0.7,0.6c0,0,0-0.1,0.1-0.1c0.1-0.1,0.2-0.2,0.2-0.3c0.4-0.4,0.9-0.1,1.1,0c0.2,0.2,0.3,0.3,0.4,0.4
		l0.1-0.1c0.2-0.1,0.5-0.3,0.7-0.4h0.1h1.9c0.2,0,0.7-0.1,0.9,0.4c0.1,0.2,0.1,0.3,0.1,0.4s0.1,0.3,0.1,0.4c0.3,0.2,1.8,1,3.9,1.6
		c1.9,0.6,2.9,0.7,3.2,0.8l0,0c0.2-0.1,0.7-0.3,1.4-0.9c0.5-0.3,0.8-0.6,1-0.7c0.3-0.3,0.5-0.4,0.7-0.4s0.4,0.1,0.5,0.2
		c0.1,0,0.2,0.1,0.2,0.2l0.1-0.1c0.1-0.1,0.2-0.2,0.3-0.2c0.1,0,0.2-0.1,0.5-0.2s0.8-0.3,1.1-0.5c0.4-0.2,0.4-0.2,0.4-0.5
		c0.2-0.6,0.7-1,1.6-1c0.2,0,1-0.3,1.5-0.5c0.4-0.1,0.8-0.3,1-0.3c0.2-0.1,0.3-0.1,0.4-0.2c0.1,0,0.2,0,0.3-0.1
		c0.2-0.3,0.4-0.4,0.6-0.5c0,0,0.1,0,0.2-0.1s0.1-0.5,0.1-0.7c0-0.5,0.2-1.4,0.7-1.7c0,0,0-0.2,0-0.5v-0.2c0-0.3,0-0.8,0.5-1.7
		l0.2-0.3c0.4-0.7,0.8-1.4,1.6-1.4h0.2c0.1,0,0.1,0,0.1,0s0-0.1,0.2-0.3c0.2-0.3,0.5-0.9,0.8-1.4c0.2-0.4,0.4-0.7,0.5-0.9
		c0.1-0.2,0.3-0.4,0.5-0.6c0.1-0.1,0.3-0.3,0.3-0.4c0-0.2,0-0.8-0.1-1c-0.2-0.5,0-0.7,0.3-1l0.2-0.2C94.1,89,94,88,94,87.4
		c0-0.2-0.1-0.3-0.1-0.3v-0.2c0-0.3,0.1-0.4,0.2-0.7c0-0.1,0.1-0.2,0.1-0.3l0,0c-0.2-0.1-0.5-0.4-0.5-0.9c0-0.2,0-0.5,0.1-1
		c0-0.3,0.1-0.5,0.1-0.6v-0.2c0.2-0.5,0.9-1.2,1.3-1.4c0.1-0.1,0.4-0.3,0.6-0.5c0.2-0.1,0.4-0.3,0.4-0.4l-0.1-0.2
		c0-0.1-0.2-0.9-0.3-1.1v-0.1c-0.1-0.2-0.2-0.7,0.3-1.2l0.1-0.1c0.2-0.2,0.2-0.2,0.2-0.3c0-0.4-0.1-2-0.2-2.4
		c-0.1-0.5-0.1-1,0.3-1.5c0.1-0.1,0.2-0.2,0.3-0.3c-0.1,0-0.1-0.1-0.2-0.1c-0.1-0.1-0.2-0.1-0.3-0.2l-0.1-0.1
		c-0.3-0.2-0.6-0.4-0.5-1.1c0.1-0.4,0.3-1,0.7-1.8c0.1-0.3,0.4-0.5,0.8-0.7l0.4-0.3l0.2,0.1c0,0,0,0,0.1,0c0-0.2-0.2-0.7-0.3-0.8
		c-0.3-0.2-0.6-0.5-0.7-0.7c-0.1-0.1-0.3-0.3-0.6-0.6c-0.4-0.4-0.8-0.8-0.9-1c0,0,0,0-0.1-0.1c-0.3,0.4-0.7,0.1-0.9,0.1
		c-0.2-0.1-0.4-0.2-0.6-0.2c-0.1,0-0.2-0.1-0.3-0.1c-0.2,0-0.4-0.2-0.4-0.2L93,65.8v-0.2c0-0.2,0-0.3,0.2-0.5c0.1-0.2,0.5-1,0.7-1.4
		c0-0.3,0-1.4-0.1-2.4c-0.3-0.2-0.8-0.6-1.1-0.9c-0.2-0.2-0.5-0.4-0.7-0.7c-0.2-0.2-0.3-0.3-0.4-0.4c-0.1-0.1-1.3-0.8-1.4-1.4
		c-0.2-0.7,0.4-1.1,0.6-1.3c0.1-0.1,0.2-0.2,0.4-0.3c0.2-0.1,0.5-0.3,0.6-0.5c0-0.3,0.1-2.2,0.1-2.7c-0.1-0.2-0.2-0.5-0.3-0.7
		c-0.1-0.2-0.1-0.4-0.1-0.5c-0.1-0.5,0.1-0.8,0.4-1.1c0.1-0.1,0.1-0.2,0.2-0.2c0.3-0.4,0.8-1.1,1.1-1.9c0.3-0.7,0.4-1.2,0.4-1.7
		c0.1-0.7,0.4-2,0.6-2.7l0.2-0.5c0-0.1,0.1-0.2,0.1-0.3c-0.2,0-0.4,0-0.6-0.2s-0.2-0.5-0.2-0.7c0-0.5,0.1-1.8,0.1-1.8
		c0-0.2,0.2-0.8,1.1-0.8c0.5,0,0.9,0,1-0.2c0.3-0.3,1-1.3,1.2-1.6c0-0.1-0.2-0.3-0.4-0.5c-0.1-0.1-0.4-0.3-0.6-0.6
		c-1.4-1.4-2.1-2.1-2.3-2.3c-0.2-0.2-0.4-0.6-0.3-1c0.1-0.3,0.3-0.4,0.6-0.6c0,0,0,0,0.1,0c0,0,0-0.1-0.1-0.2
		c-0.1-0.3,0.1-0.7,0.3-1.1c0.1-0.2,0.2-0.4,0.3-0.6c0.3-0.5,0.3-0.8,0-1.2c-0.2-0.4-0.2-0.8-0.2-1.1c0-0.1,0-0.3,0-0.3l-0.1-0.1
		c0-0.1-0.2-0.1-0.4-0.2c-0.1,0-0.1,0-0.2-0.1c-0.5,0-0.9-0.2-1.6-1.3c-0.2-0.2-0.3-0.4-0.5-0.6c-0.5-0.6-0.8-1.1-0.5-1.9
		c0,0,0.6-2.5,1.4-2.9c-0.1-0.1-0.1-0.3-0.2-0.3c-0.1-0.2-0.1-0.6,0-1c-0.5,0-1.4,0-1.9-1.3c-0.2-0.4-0.4-0.9-0.5-1.4
		c-0.1-0.4-0.3-0.8-0.4-1.1c0,0-0.1,0.1-0.2,0.2s-0.2,0.6-0.3,0.9c-0.1,0.3-0.2,0.7-0.3,0.9c-0.2,0.3-0.4,0.4-0.5,0.5
		c-0.3,0.3-0.5,0.5-0.8,0.6l-0.1,0.1h-0.3c-0.4,0-0.8-0.3-1-1c0-0.1-0.1-0.2-0.1-0.4c-0.1-0.3-0.1-0.4-0.3-0.5
		c-0.1-0.1-0.1-0.1-0.2-0.1l0,0c-0.1,0.2-0.2,0.4-0.3,0.5c-0.2,0.3-0.3,0.6-0.7,0.6c-0.5,0-0.7-0.6-0.7-1.1c0-0.3,0.1-1.1,0.2-2.2
		l0.1-0.5c0.1-1,0.3-2.2,0.3-2.4s-0.2-0.9-0.3-1.2C84,11.2,84,11,83.9,10.9c-0.3-0.6-0.3-1.4,0.3-1.9l0,0c0,0,0-0.1-0.1-0.1
		C84,8.8,84,8.7,84,8.6c0,0,0-0.1-0.1-0.1h-0.1c-0.8,0.1-1.4,0.2-1.9,0.2h-0.1c-0.5,0-1-0.1-1.4-1c-0.4-0.6-0.5-1.1-0.6-1.4
		c0-0.1,0-0.1-0.1-0.2l0.3,0c0-0.4,0-0.6-0.1-0.7c-0.3-0.6-0.3-1-0.2-1.2c0,0,0,0-0.1-0.1s-0.2-0.2-0.2-0.3c-0.2-0.4-0.7-0.8-1-0.9
		c-0.2-0.1-0.6-0.2-0.9-0.3c-0.3-0.1-0.6-0.2-0.7-0.2c-0.2,0-0.3-0.1-0.5-0.3c-0.4-0.3-0.7-0.5-0.8-0.5c-0.6,0-0.9-0.1-1.1-0.3
		c0,0-0.2,0-0.7,0c-0.3,0-0.6,0-1.1-0.4l-0.1-0.1h-0.1l-0.2-0.1c-0.1,0-0.7-0.3-1-0.9c-0.2-0.2-0.7-0.8-1-1.1L70-1.4v-0.1
		c-0.5,0.1-0.8,0.1-1.1,0.1c0,0.2-0.1,0.4-0.3,0.5c-0.1,0.1-0.3,0.2-0.6,0c-0.1,0-0.2-0.1-0.3-0.1c-0.1-0.1-0.3-0.1-0.4-0.2
		c0,0-0.2,0.1-0.3,0.1c-0.1,0.2-0.3,0.6-0.5,1.1l-0.1,0.3c-0.1,0.3-0.3,0.6-0.4,0.9c-0.2,0.4-0.4,0.8-0.4,1c1.1,0.4,1.2,0.8,1.3,0.9
		c0,0.1,0.1,0.4,0.2,0.8c0.1,0.5,0.2,1.1,0.4,1.7C67.8,6.7,68,7.5,68.2,8c0.3,0.5,1.2,2.2,1.4,2.8l0.1,0.2c0.1,0.3,0.2,0.6,0.1,1
		c-0.1,0.2-0.6,1.7-0.7,2.1c-0.1,0.2,0,0.8,0,1.2c0,0.2,0,0.4,0,0.5c0,0.2,0,0.5-0.2,0.6c-0.3,0.2-0.5,0.1-0.8-0.1l-0.2-0.1
		c-0.5-0.2-0.9-0.4-1.1-0.5l0,0L66.5,16h-0.3c-0.3,0-0.5-0.2-0.7-0.4c0,0-0.1-0.1-0.2-0.1c-0.3,0-1,0-1.5-0.1
		c-0.3-0.1-0.5-0.2-0.7-0.4c0,0.2-0.1,0.3-0.1,0.5c-0.1,0.2-0.1,0.5-0.2,0.6c-0.1,0.3-0.2,1.8-0.2,2.3c-0.1,0.6-0.2,1.4-0.1,1.7
		c0.1,0.2,0.2,0.8-0.2,1.1c-0.1,0.1-0.4,0.2-0.8,0c-0.2-0.1-0.5-0.3-0.7-0.5c-0.3-0.2-0.7-0.5-0.9-0.6c-0.1,0-0.2-0.1-0.2-0.1
		c-0.2,0.3-0.8,1.3-1.1,1.6c-0.5,0.5-1.4,0-1.8-0.4c-0.1,0-0.2-0.2-0.4-0.3c-0.1-0.1-0.2-0.2-0.3-0.2c0,0-0.2,0.1-0.4,0.2h-0.1
		c-0.1,0-0.2,0.1-0.4,0.1c-0.3,0.1-0.7,0.2-1.3,0.2c0,0.1-0.1,0.2-0.1,0.4c-0.1,0.2-0.1,0.3-0.2,0.5v0.1c-0.1,0.1-0.1,0.3-0.2,0.4
		c-0.1,0.4-0.3,0.9-0.8,0.9c0,0-0.1,0.1-0.2,0.2l-0.1,0.2c-0.1,0.2-0.1,0.2-0.1,0.3v0.7c0,0.1,0,0.4-0.3,0.8s-0.7,0.6-1.1,0.7h-0.2
		c-0.2,0-0.9,0.1-1.2,0.1c-0.2,0.1-0.4,0.3-0.5,0.4L48.8,27c-0.6,0.3-0.9-0.3-1.1-0.6l-0.1-0.1c-0.1-0.1-0.6-0.7-0.8-1h-0.6
		l-0.1-0.1c-0.3-0.2-0.8-0.5-0.9-0.7c-0.1,0-0.2-0.3-0.2-0.5c0-0.1,0-0.2-0.1-0.3c-0.1-0.3-0.2-0.5-0.3-0.7c-0.1,0.4-0.4,1.2-1,2.9
		c-0.1,0.2-0.3,0.6-0.6,0.8c0,0-0.1,0.2-0.2,0.7c-0.1,0.4-0.5,1.8-0.5,1.8c0,0.1-0.1,0.8-0.2,1.1C42,30.5,42,30.7,41.9,31l-0.3,1
		c-0.1,0.4-0.2,0.5-0.1,0.7c0.2,0.4,0.3,0.8,0.4,1.1c0,0.1,0.1,0.3,0,0.6c-0.1,0.2-0.4,0.3-0.5,0.4H41c-0.1,0.1-0.3,0.1-0.4,0.2
		c-0.4,0.3-1.1,0.9-1.2,1c0,0.1,0,0.5,0,0.6c0,0.7,0,1.2-0.3,1.6c-0.3,0.2-0.5,0.3-0.7,0.3c-0.2,0.1-0.4,0.1-0.6,0.3
		c-0.6,0.4-1.2,0.7-2,0.4c-0.7-0.1-1-0.4-1.1-0.9v-0.2c0-0.2-0.2-0.7-0.3-1c-0.2,0-0.4,0-0.5,0c-0.3,0-2.3-0.2-2.8-0.2
		c-0.1,0.3-0.2,1-0.3,1.6c-0.1,0.5-0.2,1-0.2,1.2c-0.1,0.7-0.6,1.1-1,1.1c-0.1,0-0.4-0.1-1-0.2c0,0.2-0.2,0.5-0.5,0.7
		s-0.7,0.7-0.9,1c-0.2,0.3-0.9,1.6-0.9,1.8v0.1c-0.1,0.1-0.2,0.4-0.3,0.7l0.2,0.1c0.4,0.2,0.8,0.3,0.9,0.3l0,0
		c0.5,0,0.8,0.5,0.9,0.8c0.5,1,0.8,1.6,0.9,1.7c0.1,0.1,0.6,0.3,0.8,0.4c0.3,0.2,0.6,0.3,0.8,0.4c0.5,0.3,0.5,1,0.5,1.2
		c0,0.1,0.1,0.4,0.2,0.6c0,0.1,0.3,0.6,0.4,0.9c0.2,0.4,0.5,0.9,0.6,1.2c0.2,0.5,0.4,0.9,0.5,1c0,0,0.2,0.1,0.3,0.1
		c0.1-0.2,0.2-0.3,0.4-0.4c0.2-0.1,0.5-0.2,0.7-0.4c0.1-0.1,0.2-0.1,0.2-0.1c0.1,0,0.1,0,0.2-0.2c0.3-0.4,0.5-0.6,0.8-0.6h0.2
		l0.1,0.1c0.2,0.2,0.2,0.6,0.2,1c0,0.3-0.1,0.5-0.2,0.6l-0.2,0.2V54l-0.1,0.2c0,0,0,0.1-0.1,0.1c0.1,0.2,0.2,0.4,0.1,0.6l-0.1,0.3
		h-0.1c-0.2,0.2-0.5,0.5-1,0.9v0.4L34,56.6c0,0,0,0.1-0.1,0.1c0.4,0.4,0,0.9-0.2,1.3c-0.2,0.2-0.4,0.5-0.4,0.7s-0.1,1.6-0.1,1.6V61
		l-0.1,0.1c0,0-0.1,0.1-0.2,0.2c-0.1,0.1-0.1,0.1-0.2,0.2l0,0v0.2c0,0,0,0,0.1,0.1c0.1,0.3,0.3,0.7,0.3,1.2c0,0.2,0.1,0.7,0.3,1.1
		c0.2,0.8,0.3,1.4,0.4,1.7c0,0.2,0.1,0.5,0.2,0.8c0.1,0.4,0.2,0.9,0.2,1c0.1,0.3,0.3,0.8,0.6,1.1c0.2,0.1,0.3,0.2,0.4,0.3
		c0.3,0.2,0.5,0.4,0.5,0.7c0,0.2-0.1,0.4-0.2,0.8l-0.2,0.4c-0.3,0.7-0.5,1-0.6,1.1c0,0.2,0,0.7,0,1c0,0.1,0,0.4-0.1,0.8
		c-0.1,0.3-0.8,2.7-0.8,2.7c-0.2,0.5-0.4,1.1-0.4,1.3c0,0.1,0,0.2,0,0.2c0.1,0.1,0.2,0.3,0.3,0.5l0.1,0.1v0.1c0,0.2,0,0.4-0.2,0.7
		L32.9,81v1.8c0,0,0.1,0.5-0.2,0.8c-0.1,0.1-0.3,0.2-0.4,0.2s-0.3,0-0.4,0.1c-0.2,0-0.3,0-0.6,0.2c-0.1,0.1-0.2,0.1-0.3,0.2
		c0,0,0.1,0.1,0.1,0.2c0,0,0.1,0.1,0.1,0.2c0.2,0.2,0.4,0.6,0.6,1.1c0.1,0.4,0.2,0.8,0.3,1.1V87l0,0c0.6-0.1,0.8,0.3,0.9,0.5
		l0.1,0.1v0.2v0.8c0,0.2,0,0.5-0.2,0.7l0,0c0,0.1,0.1,0.1,0.1,0.2v0.1c0.1,0.4,0.2,0.8-0.1,1.2l-0.1,0.3h-0.3v0.1
		c0.2,0,0.6,0,0.8-0.1c0.2,0,0.4,0,0.5,0c0.4,0,0.8,0.3,0.8,1c0.3,0,0.7,0.1,0.7,0.8V93l-0.1,0.1c0,0.1-0.1,0.6-0.1,1
		c0,0,0.1,0.1,0.2,0.2c0.1,0.2,0.2,0.2,0.2,0.3c0.1,0.2,0.3,0.5,0.4,0.6c0.2,0.1,0.3,0.2,0.5,0.3c0.4,0.2,0.8,0.4,1,0.9
		c0.1,0.3,0.2,0.7,0.2,1c0,0.2,0,0.3,0.1,0.4v0.1v0.8c0,0.3-0.5,1-0.8,1.2c-0.2,0.2-0.2,0.2-0.2,0.6c0,0.3,0,0.6-0.1,0.9
		c0,0.2,0,0.3,0,0.4c0,0.4-0.2,0.7-0.4,1l-0.1,0.1c-0.2,0.2-0.3,0.4-0.3,0.5l0,0c0.1,0.3,0.2,0.6,0.6,0.8c0.6,0.4,1.1,0.7,1.4,0.9
		l0.2,0.1c0.2,0.1,0.5,0.3,0.4,0.7c0,0.1,0,0.2,0,0.3l0,0l0.1,0.1c0.3,0.1,0.6,0.3,0.8,0.3c0.1,0,0.3-0.3,0.8-1.1l0.1-0.1
		c0.3-0.5,0.6-0.6,1.2-0.7h0.3c0.3-0.1,0.5-0.1,0.6-0.2c0.5-0.4,0.9-0.5,1.2-0.5c0.4,0,0.8,0.2,0.8,0.9c0,0,0,0.2,0.1,0.3
		c0,0.2,0.1,0.5,0.1,0.9c0.1,0.7,0.2,1.5,0.3,2.1s0.1,0.8,0.1,1v0.1c0,0,0,0,0.1,0s0.9-0.2,1.2-0.2c0.5,0,1.5,1.2,1.5,1.6v0.1h0.1
		l0.2-0.1c0.3-0.1,0.9-0.3,1.6-0.4c0.1,0,0.2-0.1,0.2-0.1c0.4-0.1,0.6-0.2,1,0.1l0.1,0.1c0.2,0.2,0.5,0.5,0.3,1.1
		c-0.1,0.2,0,0.5,0.1,0.9c0.1,0.2,0.2,0.3,0.2,0.3h0.1c0.3-0.1,0.6-0.2,0.9,0c0.3,0.2,1.1,0.8,1.3,1.3s0.1,0.9-0.3,1.2
		c-0.1,0.1-0.4,0.3-0.8,0.4c-0.1,0-0.2,0.1-0.2,0.1s-0.1,0.1-0.1,0.2v0.1l-0.1,0.1c0,0,0,0.1,0,0.2
		C52.3,116.2,52.3,116.4,52.2,116.5z M55.1,116.8L55.1,116.8L55.1,116.8z M56.3,115.9L56.3,115.9L56.3,115.9z M53,114.2l0.4,0.2
		L53,114C53,114.1,53,114.1,53,114.2z M51.9,113.2C52,113.2,52,113.2,51.9,113.2L51.9,113.2z M59.6,104.3L59.6,104.3L59.6,104.3z
		 M33.7,91.8L33.7,91.8L33.7,91.8z M32.7,90.6L32.7,90.6L32.7,90.6z M32.3,86.9L32.3,86.9L32.3,86.9z M97.2,79.6L97.2,79.6
		L97.2,79.6z M97.1,79.5C97.1,79.5,97.2,79.5,97.1,79.5C97.2,79.5,97.1,79.5,97.1,79.5L97.1,79.5z M95.1,43L95.1,43L95.1,43z
		 M95.2,41.1L95.2,41.1L95.2,41.1z M97.5,38.5L97.5,38.5L97.5,38.5z M93.8,22L93.8,22L93.8,22z M53.7,21.4L53.7,21.4L53.7,21.4z
		 M72.4,0.8L72.4,0.8L72.4,0.8z M40.3,93.6c-0.4,0-0.8-0.3-1.1-0.7c-0.4-0.4-0.6-0.9-0.7-1.3v-0.1c0-0.1-0.1-0.2-0.1-0.3
		c-0.1-0.2-0.2-0.4-0.2-0.6c-0.1,0-0.2-0.1-0.3-0.1c-0.7-0.2-1.3-0.4-1.5-0.5c-0.3-0.2-0.9-0.7-1.1-0.9c-0.3-0.3-0.4-0.6-0.2-1
		c0.3-0.6,0.4-0.9,0.5-1c0.1-0.2,0.1-0.4,0.1-0.7l0.1-0.6c0.1-0.8,0.2-1.3,0.6-1.7l0.5-0.9c0.1-0.3,0.5-1.1,0.7-1.4s0.3-0.5,0.3-0.6
		s0-0.4,0.1-0.7c0-0.1,0.1-0.2,0.2-0.3c0.1-0.1,0.3-0.5,0.3-0.6c0-0.4,0.3-0.7,0.4-0.8c0.1-0.1,0.2-0.1,0.3-0.2s0.3-0.2,0.4-0.3
		c0.1-0.1,0.2-0.3,0.3-0.5c-0.1-0.1-0.2-0.3-0.3-0.5c0-0.2,0-0.4,0.2-0.6s0.9-0.5,1.3-0.4c0.1-0.2,0.3-0.5,0.4-0.7
		c0.2-0.4,0.4-0.8,0.5-0.9l0.1-0.1c0.1-0.1,0.3-0.5,0.3-0.6s-0.2-0.5-0.3-0.7c-0.1-0.1-0.2-0.3-0.2-0.4v-0.1c-0.1-0.5-0.1-0.7,0-1.1
		c0.1-0.2,0.2-0.4,0.4-0.7c0.2-0.3,0.4-0.7,0.4-0.9V70l-0.1-0.1c-0.1-0.1-0.2-0.2-0.3-0.4c-0.4-0.5-0.5-0.7-0.6-0.8
		c0-0.1-0.1-0.1-0.1-0.2c-0.3-0.4-0.5-1.3-0.5-1.6v-0.1c-0.1-0.2-0.1-0.6,0-0.9c0.1-0.2,0.3-0.6,0.5-1.1c0.2-0.4,0.4-0.9,0.4-1
		l0.1-0.2c0.2-0.3,0.4-0.6,0.8-0.6H43h0.1c0,0,0,0,0-0.1c0.1-0.1,0.2-0.4,0.5-0.7c0.1-0.2,0.2-0.3,0.3-0.4c0.1-0.2,0.2-0.3,0.4-0.5
		c0.3-0.2,1-0.8,1.5-1.1l0,0v-0.1l-0.1-0.2c-0.1-0.3-0.2-1,0.1-1.4l0.1-0.1c0,0,0.2-0.1,0.2-0.2c0.2-0.2,0.4-0.4,0.6-0.5
		c0,0,0.1-0.1,0.2-0.3c0.2-0.3,0.5-0.7,1-1.1c0.4-0.3,0.8-0.6,1.1-0.9c0.3-0.3,0.7-0.6,1-0.8c0.4-0.3,0.7-0.4,1-0.5
		c0.2-0.1,0.4-0.2,0.6-0.3c0.1-0.1,0-0.6,0-0.8s0-0.5,0-0.7c0-0.9,0.6-1.5,1-1.6c0.2-0.1,0.5-0.2,0.9-0.3h0.1c0.4-0.1,0.8-0.2,1.1,0
		c0,0,0.1,0,0.3-0.3l0.3-0.2c0.8-0.7,1.5-1.2,2-1.3c0.3-0.1,0.6,0,0.8,0c0,0,0-0.1,0-0.2c0-0.1,0-0.2,0-0.3c0-0.2,0-0.2,0-0.3
		L58,47.7c0-0.1-0.2-0.4-0.3-0.6c-0.2-0.4-0.3-0.6-0.4-0.8c-0.1-0.3-0.3-1.6-0.3-2c-0.1-0.2-0.4-0.5-0.6-0.8
		c-0.5-0.6-1.2-1.4-1.4-1.5h-0.1c-0.5-0.2-0.8-0.4-1-0.6c-0.1-0.2-0.5-1.1-0.5-1.6s0.3-1.9,0.4-2.3c0.2-0.5,0.6-0.6,0.8-0.6
		c0-0.1,0-0.1,0-0.2v-1.4c0-0.2-0.1-0.4-0.1-0.6l-0.1-0.2c-0.1-0.3-0.2-0.8-0.2-1c0-0.1,0-0.4,1.1-1.6c0.1-0.1,0.3-0.3,0.4-0.5
		c0.3-0.3,0.6-0.7,0.7-0.9l0.1-0.1c0.2-0.2,0.5-0.4,0.8-0.6c0.2-0.2,0.4-0.3,0.4-0.4c0.3-0.3,0.7-0.3,0.9-0.3h0.2l0.1,0.1
		c0.1,0.1,0.2,0.3,0.6,1c0.1,0.1,0.2,0.4,0.4,0.6c0.1,0,0.2,0,0.2,0c0.4-0.1,0.4,0,0.5-0.1c0-0.1,0-0.1,0.1-0.2
		c0.1-0.2,0.2-0.5,0.2-0.8c0.3-1.1,0.7-2.4,0.8-2.7c0.1-0.4,0.3-0.6,0.6-0.8l0.2-0.2c0.2-0.2,0.4-0.4,0.6-0.3c0.3,0,0.4,0.2,0.4,0.2
		l0.1,0.1l0,0c0.2-0.1,0.5-0.2,0.8,0.1c0.1,0.1,0.2,0.2,0.2,0.3c0.1,0.1,0.1,0.2,0.2,0.3l0.1,0.1c0.3,0.4,0.1,0.7,0,0.8
		c-0.1,0.2-0.3,0.3-0.7,0.2c0,0.2-0.1,0.4-0.1,0.5C64,28.6,64,28.9,64,29c0.1,0,0.2,0.1,0.2,0.2v0.1c0.2,0,0.4-0.1,0.5-0.1h0.2
		c0.5,0,0.6,0.1,0.9,0.5l0.1,0.1c0.1,0.4,0,0.8-0.1,1.2c0.1-0.2,0.2-0.4,0.4-0.6c0.2-0.3,0.3-0.6,0.4-0.8c0,0,0,0-0.1,0
		c-0.4-0.1-0.6-0.7-0.8-1.2l-0.1-0.2c-0.1-0.5-0.2-0.9,0.3-1.4c0.6-0.6,0.9-0.9,0.9-1s0-0.1-0.1-0.2l0-0.6c0-0.4,0.2-0.9,0.5-1.2
		l0,0c-0.3-0.4-0.3-1-0.3-1.5v-0.1c0.1-0.4,0.4-0.5,0.5-0.6c0.3,0,0.5,0.1,0.7,0.5c0,0.1,0.3,0.8,0.6,1.2c0,0.1,0.1,0.1,0.1,0.2
		c0.1-0.1,0.2-0.2,0.3-0.3c0.2-0.1,0.4-0.1,0.6-0.1c0.4,0.1,0.7,0.6,0.9,1.1l0.1,0.1C71,24.7,71,25,71,25.1c0,0.4,0,1.4,0.1,1.8
		c0,0.4,0.2,1.3,0.4,1.9c0.1,0.6,0.3,1.3,0.3,1.5c0,0.4-0.4,0.6-0.5,0.7c-0.1,0-0.2,0.1-0.4,0.2c-0.1,0-0.1,0.1-0.2,0.1
		c0.1,0.1,0.1,0.3,0.2,0.5c0.2,0.3,0.5,1.1,0.8,1.9c0.1,0.4,0.3,0.7,0.4,1c0.3,0.6,0.5,0.9,0.8,1.1c0.6,0.4,0.6,1.1,0.6,1.2
		c0,0.4,0,1.1,0.1,1.4l0,0c0.2,0,1.8,0.2,2.4,0.3c0.5,0,0.8,0.1,1.1,0.3c0.1,0,0.3,0.1,1.2,1.2c0.1,0.1,0.1,0.2,0.2,0.2
		s0.4,0,0.6,0.2s0.5,0.5,0.8,0.8l0.1,0.1l0.1,0.3c0.3,0.7,0.5,1.1,0.4,1.4c0,0.3,0,0.9-0.1,1.4c0,0.5-0.1,1.6-0.2,2
		c-0.2,0.4-0.4,0.8-0.7,1.7c-0.2,0.6-0.5,1.3-0.7,1.8c-0.1,0.3-0.3,0.6-0.4,0.9c-0.1,0.3-0.2,0.5-0.3,0.6v0.1
		c0.1,0.6-0.1,0.9-0.5,1.2c-0.1,0.1-0.3,0.2-0.4,0.4c-0.5,0.5-1.3,1.2-1.7,1.5c-0.1,0.1-0.2,0.2-0.3,0.2c0,0-0.1,0.1-0.3,0.2
		c-0.4,0.2-1.2,0.8-1.7,1.4c-0.6,0.8-1.1,1.2-1.9,1.6c-0.2,0.1-0.4,0.2-0.6,0.4l-0.5,0.3c-0.8,0.5-1.8,1-2,1.3l-0.1,0.1
		c-0.4,0.4-1.1,1.1-2.5,1.6c-0.7,0.2-1.4,0.4-2,0.5c-0.4,0.1-0.8,0.2-0.9,0.3h-0.1c0,0.3-0.1,0.8-0.2,1l-0.1,0.1
		c-0.2,0.2-0.8,0.6-1.2,0.8l-0.5,0.2c0,0.1,0.1,0.1,0.1,0.2v0.2l-0.2,0.2c-0.1,0.1-0.2,0.2-0.2,0.2c-0.1,0.2-0.3,0.5-0.7,0.5h-0.7
		c-0.2,0-0.3-0.1-0.4-0.1l0,0c-0.2,0.2-0.7,0.8-1.1,1.3c-0.1,0.7-0.2,1.8-0.2,2.1c0.6,0.1,0.6,0.6,0.6,0.7c0,0.3-0.2,1.2-0.4,1.5
		c-0.2,0.4-0.8,0.8-1.6,0.8c-0.5,0-1.3-0.2-2-0.4c-0.3-0.1-0.7-0.2-0.8-0.2s-0.4,0.3-0.5,0.4c0,0.1,0,0.3-0.1,0.4
		c0,0.1-0.1,0.2-0.1,0.3L52,73.3h-0.3c-0.2,0-0.8,0.1-1.2,0c-0.2-0.1-0.6-0.3-1.2-0.7c-0.1,0-0.1-0.1-0.2-0.1
		c-0.2,0.3-0.6,1-0.9,1.5l-0.1,0.1l0,0c0,0-0.1,0.1-0.1,0.2c-0.1,0.1-0.1,0.2-0.2,0.3c-0.2,0.4-0.4,0.7-0.8,0.7
		c-0.4,0-1.8-0.5-1.8-0.5c-0.1,0-0.2-0.1-0.3-0.2c-0.3,0.3-0.4,0.5-0.4,0.5c-0.1,0.3-0.5,2.2-0.5,2.6c0,0.1,0.1,0.2,0.1,0.3
		c0,0.1,0.1,0.2,0.1,0.3l0.1,0.1v0.1c0,0,0,0.2,0.2,0.5c0.1,0.1,0.1,0.1,0.2,0.2c0.1,0.1,0.3,0.3,0.3,0.4l0.1,0.1
		c0.4,0.4,0.4,0.7,0.2,1.1c-0.1,0.1-0.1,0.2-0.2,0.2c-0.2,0.2-0.4,0.5-0.8,0.6h-0.2c-0.1,0-0.2,0-0.2,0c0.2,0.4,0.1,0.7-0.2,1
		s-0.6,0.2-0.7,0.2c-0.2,0.3-0.8,1-1.1,1.5c-0.5,0.7-0.9,1.2-1,1.3l0,0l0.1,0.1c0.2,0.1,0.4,0.3,0.4,0.6v0.2l-0.1,0.1
		c0.2,0.3,0.1,0.7,0.1,1.2v0.1c0,0,0,0.2,0.2,0.3c0.6,0.4,0.4,0.9,0.3,1.2v0.1c-0.1,0.4-0.3,0.9-0.8,1.3c-0.2,0.1-0.4,0.4-0.5,0.6
		v0.1c0,0.1,0,0.2,0,0.4c0.1,0.6,0.1,1,0.1,1.2v0.2l-0.3,0.2C40.4,93.6,40.3,93.6,40.3,93.6z M35.9,88.5c0.2,0.2,0.6,0.5,0.9,0.7
		c0.2,0.1,0.9,0.3,1.3,0.4c0.2,0.1,0.3,0.1,0.4,0.1c0.4,0.1,0.6,0.3,0.6,0.8c0,0.1,0.1,0.2,0.1,0.4c0.1,0.1,0.1,0.2,0.1,0.3l0.1,0.2
		c0.1,0.2,0.2,0.5,0.3,0.7l0,0c0-0.2,0-0.4,0-0.5v-0.4c0.1-0.4,0.5-0.9,0.9-1.2c0.2-0.2,0.3-0.3,0.4-0.7v-0.1v-0.1
		c-0.4-0.3-0.6-0.8-0.6-1.1c0,0,0-0.1,0-0.2s0-0.4,0-0.6c-0.2-0.2-0.2-0.3-0.2-0.5c0-0.1,0-0.1,0-0.2L40,86.3
		c-0.1-0.1-0.5-0.6,0.2-1.3c0.1-0.1,0.6-0.7,0.9-1.2c1.2-1.5,1.3-1.7,1.5-1.8c0.1-0.1,0.3-0.1,0.4-0.1c0-0.1-0.1-0.1-0.1-0.2
		c-0.1-0.1-0.2-0.3-0.2-0.4l-0.2-0.2l0.2-0.4c0.2-0.3,0.6-0.4,1-0.2c0.1,0,0.3,0.1,0.3,0.2h0.1h0.1c0,0,0.2-0.1,0.3-0.3l0,0
		c-0.1-0.1-0.3-0.3-0.4-0.5c-0.1-0.1-0.1-0.2-0.2-0.2l-0.1-0.1c-0.2-0.4-0.3-0.7-0.3-0.9c0-0.1-0.1-0.2-0.1-0.3
		c0-0.1-0.1-0.2-0.1-0.3c-0.2-0.5,0.5-3.3,0.5-3.3c0.1-0.3,0.4-0.7,0.9-1.2c0.1-0.1,0.4-0.4,0.8,0c0.1,0,0.1,0.1,0.3,0.2
		c0.4,0.2,0.9,0.3,1.2,0.4l0.1-0.1c0.1-0.1,0.1-0.2,0.2-0.3c0.1-0.1,0.1-0.2,0.2-0.3c1.2-2.1,1.5-2.3,1.9-2.1c0.1,0,0.3,0.2,0.6,0.4
		c0.3,0.2,0.8,0.6,1,0.6c0.1,0,0.2,0,0.4,0v-0.1l0.1-0.1c0.1-0.6,1-1.3,1.5-1.3c0.2,0,0.5,0.1,1.1,0.2c0.6,0.2,1.3,0.4,1.7,0.4
		c0.5,0,0.7-0.2,0.8-0.2c0-0.1,0.1-0.5,0.2-0.8c-0.4-0.1-0.6-0.5-0.6-0.9c0-0.3,0.2-2.1,0.2-2.4v-0.1l0.1-0.1
		c0.3-0.4,1.2-1.5,1.5-1.7c0.4-0.3,0.8-0.1,1,0h0.5l0,0c0,0-0.1,0-0.2-0.1c-0.1,0-0.3-0.1-0.4-0.2c-0.1-0.1-0.3-0.5,0.1-0.9
		c0-0.1,0.1-0.1,0.2-0.2c0.2-0.3,0.4-0.6,0.7-0.6l0,0c0.2,0,0.4,0.1,0.6,0.4c0,0.1,0.1,0.1,0.1,0.2h0.1c0.3-0.2,0.7-0.4,0.9-0.6
		c0.1-0.2,0.1-0.5,0.1-0.6c0-0.6,0.4-0.8,0.6-0.8l0.1-0.1h0.1c0.2-0.1,0.5-0.1,0.9-0.2c0.5-0.1,1.2-0.3,2-0.5c1.2-0.3,1.8-1,2.1-1.3
		l0.1-0.1c0.3-0.4,1-0.8,2.2-1.5l0.5-0.3c0.2-0.1,0.4-0.3,0.6-0.4c0.8-0.4,1.2-0.7,1.6-1.3c0.5-0.8,1.5-1.4,1.9-1.7
		c0.1,0,0.1-0.1,0.2-0.1c0,0,0.1-0.1,0.3-0.2c0.4-0.3,1.2-0.9,1.7-1.4c0.2-0.2,0.4-0.3,0.5-0.5c0.1-0.1,0.1-0.1,0.2-0.2
		c-0.1-0.3-0.1-0.4,0-0.7l0.1-0.1c0,0,0.1-0.1,0.2-0.4c0.1-0.3,0.3-0.7,0.4-1c0.2-0.5,0.5-1.1,0.7-1.7c0.3-1,0.5-1.5,0.7-1.9
		c0-0.1,0.1-0.8,0.1-1.6c0.1-0.7,0.1-1.3,0.1-1.5V43c-0.1-0.1-0.2-0.4-0.3-0.6v-0.1c-0.3-0.2-0.6-0.5-0.8-0.7
		c-0.4,0-0.7-0.3-0.9-0.6c-0.3-0.4-0.7-0.9-0.9-1c-0.1-0.1-0.3-0.1-0.6-0.1H76c-0.3-0.1-2-0.3-2.2-0.3s-0.5,0-0.8-0.2
		c-0.1-0.1-0.2-0.3-0.2-0.6c-0.1-0.5-0.1-1.5-0.1-1.7l0,0c0,0,0-0.3-0.2-0.4c-0.5-0.4-0.8-0.7-1.2-1.5c-0.1-0.2-0.2-0.6-0.4-1
		c-0.3-0.7-0.6-1.5-0.8-1.8c-0.1-0.3-0.2-0.4-0.2-0.5c-0.1-0.1-0.2-0.3-0.2-0.5c0-0.5,0.2-0.7,0.7-0.9c0.1-0.1,0.3-0.2,0.4-0.2
		c-0.1-0.3-0.2-0.7-0.3-1.1c-0.1-0.2-0.4-1.5-0.4-2C70,26.6,70,25.3,70,25.1l0,0c0,0,0-0.1-0.1-0.4l-0.1-0.1
		c-0.1-0.1-0.1-0.3-0.2-0.4c0,0,0,0-0.1,0.1s-0.2,0.2-0.3,0.3l-0.1,0.1h-0.3c-0.2,0-0.4-0.1-0.6-0.5c0,0.1-0.1,0.2-0.1,0.2
		c-0.2,0.2-0.3,0.4-0.3,0.6v0.1c0.1,0.2,0.2,0.4,0.2,0.6c0,0.3-0.2,0.6-1.2,1.7c-0.1,0.1-0.1,0.1-0.1,0.4l0.1,0.2
		c0,0.1,0.1,0.5,0.2,0.6c0.7,0.1,0.8,0.5,0.8,0.6c0,0.2,0,0.7-0.6,1.6c-0.2,0.3-0.3,0.5-0.3,0.6c-0.1,0.2-0.2,0.4-0.4,0.5
		c-0.2,0.1-0.4,0.2-0.6,0.1c-0.1,0-0.3-0.1-0.4-0.2c-0.5-0.2-0.5-0.7-0.4-1s0.1-0.6,0.1-0.8c-0.3,0.1-0.7,0.2-1,0.2
		c-0.1,0-0.4,0-0.6-0.2c-0.1-0.1-0.1-0.3-0.1-0.4l0,0c-0.5,0-0.7-0.3-0.5-1.6c0.1-0.5,0.2-0.9,0.3-1.1c-0.2,0-0.3-0.1-0.4-0.2
		c0,0-0.1,0-0.1,0.1c-0.2,0.2-0.2,0.2-0.3,0.4c-0.1,0.3-0.5,1.6-0.8,2.6c-0.1,0.4-0.2,0.7-0.2,0.9c0,0.1,0,0.1,0,0.1
		c-0.1,0.3-0.3,0.7-1.1,0.7c0,0-0.1,0-0.2,0c-0.2,0-0.5,0.1-0.6,0.1c-0.2,0-0.5,0-1-1.2c-0.1-0.2-0.2-0.4-0.3-0.5
		c-0.1,0.1-0.3,0.2-0.5,0.4s-0.5,0.4-0.6,0.5c-0.2,0.3-0.5,0.6-0.8,1c-0.1,0.2-0.3,0.3-0.4,0.5c-0.5,0.5-0.8,0.8-0.9,1
		c0,0.2,0.1,0.5,0.2,0.7l0.1,0.3c0.1,0.3,0.2,0.6,0.2,0.9v1.4c0,0.3-0.1,0.7-0.3,1L55,37.5c-0.1,0.1-0.3,0.1-0.4,0.1c0,0,0,0-0.1,0
		c-0.1,0.4-0.3,1.5-0.3,1.8s0.2,1,0.3,1.2c0,0,0.3,0.1,0.4,0.2c0.1,0,0.2,0.1,0.2,0.1c0.1,0,0.3,0.1,1.7,1.7
		c0.8,1.1,0.8,1.2,0.8,1.3c0,0.2,0.2,1.6,0.3,1.8c0,0.1,0.2,0.4,0.3,0.6c0.2,0.3,0.3,0.5,0.4,0.7c0.2,0.3,0.2,0.6,0.2,0.9
		c0,0.1,0,0.1,0,0.2c0,0.4-0.1,0.8-0.3,1.1c-0.2,0.2-0.6,0.2-0.8,0.1c-0.1,0-0.3-0.1-0.4-0.1c-0.3,0.1-1.1,0.7-1.6,1.1l-0.2,0.2
		c-0.5,0.6-0.9,0.7-1.4,0.5c0,0-0.2,0.1-0.4,0.1h-0.2c-0.3,0.1-0.5,0.2-0.7,0.3c0,0-0.4,0.2-0.4,0.8c0,0.2,0,0.4,0,0.6
		c0.1,0.6,0.2,1.4-0.5,1.8c-0.2,0.1-0.4,0.2-0.7,0.3s-0.5,0.2-0.8,0.5c-0.3,0.2-0.6,0.4-0.8,0.6c-0.4,0.4-0.8,0.7-1.2,1
		s-0.6,0.6-0.8,0.9c-0.1,0.2-0.2,0.3-0.4,0.5s-0.4,0.3-0.5,0.5c-0.1,0.1-0.2,0.2-0.3,0.3c0,0.1,0,0.3,0.1,0.5l0.1,0.2
		c0.1,0.4,0.1,0.7-0.3,1.1L46,61c-0.3,0.2-1,0.6-1.4,1c-0.1,0.1-0.1,0.1-0.2,0.2c-0.1,0.1-0.1,0.3-0.3,0.5c-0.3,0.3-0.4,0.5-0.4,0.6
		c-0.1,0.2-0.2,0.3-0.4,0.4C43.1,64,42.9,64,42.7,64c0,0-0.1,0.1-0.1,0.2v0.1c-0.1,0.2-0.3,0.6-0.4,1c-0.2,0.4-0.4,0.9-0.4,1
		s0,0.3,0.1,0.3c0,0.1,0.1,0.3,0.1,0.4c0,0.2,0.2,0.8,0.3,1c0.1,0.1,0.1,0.2,0.2,0.2c0.1,0.2,0.2,0.3,0.5,0.7
		c0.1,0.1,0.2,0.3,0.3,0.3c0.3,0.3,0.5,0.6,0.3,1.2c-0.1,0.3-0.3,0.7-0.5,1c-0.1,0.2-0.3,0.5-0.3,0.5c-0.1,0.2-0.1,0.2,0,0.5
		c0,0.1,0.1,0.2,0.2,0.3c0.3,0.5,0.5,0.9,0.5,1.2c0,0.3-0.2,0.7-0.4,1.1L43,75.1c-0.1,0.1-0.3,0.5-0.5,0.9s-0.4,0.8-0.5,0.9
		c-0.2,0.5-0.6,0.4-0.8,0.4c-0.1,0-0.1,0-0.3,0c0,0.1,0.1,0.1,0.1,0.2c0.1,0.5-0.3,1.1-0.6,1.4c-0.2,0.2-0.5,0.4-0.6,0.5
		c0,0-0.1,0-0.1,0.1c-0.1,0.1-0.1,0.1-0.1,0.2c0,0.2-0.2,0.5-0.4,1c-0.1,0.1-0.1,0.2-0.1,0.2c0,0.1,0,0.2,0,0.4c0,0.3-0.4,1-0.5,1.1
		c-0.2,0.3-0.6,1-0.6,1.2l-1,1c-0.3,0.4-0.4,0.6-0.5,1.3l-0.1,0.6c0,0.4-0.1,0.6-0.1,0.9C36.3,87.7,36.1,88.2,35.9,88.5z M45.3,74.3
		L45.3,74.3L45.3,74.3z M52.4,72.4L52.4,72.4L52.4,72.4z M46.3,59L46.3,59L46.3,59z M63.3,29.3C63.2,29.3,63.2,29.3,63.3,29.3
		L63.3,29.3z"/>
</g>
</svg>
