<?xml version="1.0" encoding="utf-8"?>
<!-- Generator: Adobe Illustrator 28.0.0, SVG Export Plug-In . SVG Version: 6.00 Build 0)  -->
<svg version="1.1" id="_レイヤー_2" xmlns="http://www.w3.org/2000/svg" xmlns:xlink="http://www.w3.org/1999/xlink" x="0px"
	 y="0px" viewBox="0 0 120 120" style="enable-background:new 0 0 120 120;" xml:space="preserve">
<style type="text/css">
	.st0{fill:#F0E3D2;}
	.st1{fill:#D7323A;}
</style>
<g>
	<path class="st0" d="M28.1,98.3c-1.4-3,1-2.6,3.2-4.3c2.3-1.8,2.4-3.1,2.2-5.8c-0.1-1.2,0.1-2,0.6-3s2-1.6,1.6-3
		c-3.5-0.1-0.4-2.7,1-3.2c2.2-0.8,3.9-1.6,4.6-3.9c0.3-1.2-0.3-1.9,1.1-2.6c0.4-0.2,1.1-0.2,1.5-0.1c1,0.3,0.6,0.9,1.1,1.1
		c1.5,0.7,3-1,5.1-0.7c2.1,0.2,2.8,2.7,4.7,1.1c0.7-0.6,0.6-2.3,2-2.4c0.4,0,1.6,1.1,2.4,1.3c1.3,0.3,4.8,0.1,5.9-0.5
		c1-0.5,1.5-1.6,2.4-2.1c0.8-0.4,2.1-0.9,2.9-1c1.6-0.3,5.7,0.5,5-2.3c-0.4-1.7-5.6-1.8-4.8-3.9c0.3-0.8,4.9-2.5,5.7-2.9
		c2-1.1,3.1-2.7,4.4-4.6c0.5-0.8,0.7-1.7,1.5-2.5c0.9-0.9,2-1.2,2.7-2.1c1.2-1.4,1-4.1,3.9-4c1.3,0.1,1.4,1.3,2.4,1.8
		c0.8,0.4,1.9,0.4,2.9,0.3c1-0.1,1.8-0.6,2.6-0.7c1.6-0.1,1.9,1.1,3.4,1.4c1.6,0.3,3.2-0.6,4.7-1.1c0.4-0.1,0.9-0.2,1.4-0.3
		c-1.7-3.3,6.1-5.4,3.6-9.1c-0.6-1-2-0.8-0.9-2.5c0.6-0.9,1.5-0.9,2.4-1.4c2.1-1.1,3.4-1.3,5.6-1.9c2.6-0.7,1.6-2.7,1.6-4.9
		s1.1-3.4,1.4-5.3c0.9-4.8-4.9-6.4-7.5-9.1c-1.7-1.8-1.5-3.6,0.5-5c1.5-1,3.3-0.9,5.2-0.9c0.1,0,0.2-0.1,0.2-0.1
		c1.7-1.1,1.7-0.3,1-1.2C118.5,6,116,6.3,114,6.4c-2.1,0.1-3.5,0.3-5.7,0.3s-1.5-1.3-3.2-1.8s-2.3,0.8-3.3,1.8s-1.9,2.5-3.2,2.7
		c-1.3,0.1-1.9,0.3-3.1,1.1c-1.2,0.9-2.2,0.9-5.6,1.1c-3.4,0.1-7.7,2.3-9.2,3s-1.9,0.8-2.1,1.8s-3.3,1.5-5.6,1.5
		c-2.3-0.1-4,0.9-2.6,1.9c1.4,0.9,1.2,0.9,2.6,1.8c1.5,0.9,0,4.4-0.4,6.6s-4.2,3.6-6.2,4.5c-2,0.9-4.6,2.7-6.5,4s-4.6,2.7-6.4,5.4
		c-1.8,2.7-3.3,3.9-4.4,5.6c-1,1.7-2.3,3.8-4,4.5s-2.2,0.5-3.7,1.5c-1.5,0.9-5.5,4.2-7,5.6c-1.5,1.4-6.9,6.3-8.2,7.8
		c-1.3,1.5-6.2,6.7-7.9,7.8c-1.7,1.1-3.5,2-4.2,3.8c-0.8,1.8-1.2,2.5-3.5,3.6S5,84,2.2,84c-0.6,0-0.9,0.4-1.2,0.7
		c0.6,0.6,1,1.5,1.2,2.2c0.1,0.6-0.2,1.2,0,1.8c0.3,0.8,1.3,1,1.5,1.9C4,92,1.6,98,0,98.2c-0.2,1,1.2,4.3,1.9,5.1
		c1.1,1.5,3.5,1.2,5.3,2c1.1,0.5,1.5-0.2,1.5,1.4c0,1.2-1.1,1.5-1.4,2.5c-0.8,2.2-0.1,4.9,2.1,5.3c0.8,0.2,1.7,0,2.5,0.2
		c0.9,0.2,2.1,1,3,0.7c1.3-0.4,1-1.8,2.1-2.3c0.4-0.2,2.5-0.1,3,0c1,0.2,1.5,1.3,2.6,0.3c0.6-0.5,0.7-2.1,1.2-2.8
		c0.7-1.1,1.4-1.4,1.5-2.7c0.1-1.1-1-2-0.7-3.1c0.3-1.3,2.4-2.5,3.8-2.6c0.4,0,0.6,0,0.9,0.1C29.1,100.7,28.4,99,28.1,98.3z"/>
	<path class="st1" d="M16.5,114c-0.6,0-1.2-0.2-1.8-0.5c-0.3-0.1-0.6-0.3-0.9-0.3c-0.7-0.2-1.6,0-2.5-0.2s-1.7-0.7-2.2-1.6
		c-0.7-1.2-0.8-2.9-0.2-4.3c0.2-0.5,0.5-0.9,0.8-1.2c0.4-0.4,0.6-0.7,0.6-1.1c0-0.5,0-0.6-0.1-0.7c0,0-0.1,0-0.2,0
		c-0.2,0-0.6-0.1-1-0.3c-0.6-0.3-1.3-0.4-2-0.5c-1.3-0.2-2.6-0.5-3.4-1.6c-0.7-0.8-2.2-4.3-2-5.5l0.1-0.4h0.4c0.1,0,0.4-0.1,1-0.9
		c1.3-1.9,2.4-5.3,2.3-6.1c-0.1-0.3-0.3-0.5-0.6-0.8c-0.3-0.3-0.7-0.6-0.9-1.1S3.8,86,3.8,85.7c0-0.2,0.1-0.5,0-0.7
		c-0.2-0.7-0.6-1.5-1.1-1.9l-0.4-0.4l0.5-0.5c0.3-0.3,0.7-0.7,1.4-0.7c2.9,0,6.1-0.6,8.2-1.7c2.1-1,2.5-1.6,3.3-3.4
		c0.7-1.7,2.2-2.6,3.7-3.6c0.2-0.1,0.5-0.3,0.7-0.5c1.6-1.1,6.5-6.2,7.8-7.7c1.1-1.2,4.7-4.6,6.9-6.6c0.5-0.5,1-0.9,1.3-1.2
		c1.6-1.5,5.6-4.8,7.1-5.7c1-0.7,1.6-0.8,2.3-1c0.4-0.1,0.9-0.2,1.5-0.5c1.5-0.6,2.7-2.5,3.8-4.3c0.5-0.8,1.1-1.5,1.8-2.3
		c0.8-0.9,1.7-1.9,2.6-3.4c1.5-2.3,3.7-3.7,5.4-4.8c0.4-0.2,0.7-0.5,1.1-0.7l0.2-0.2c1.9-1.3,4.4-3,6.4-3.9c0.2-0.1,0.5-0.2,0.7-0.3
		c1.9-0.8,4.9-2.1,5.2-3.8c0.1-0.6,0.3-1.2,0.4-1.8c0.4-1.7,1-3.8,0.2-4.2c-0.7-0.5-1-0.7-1.3-0.9c-0.3-0.2-0.6-0.4-1.3-0.9
		c-0.8-0.6-0.8-1.2-0.7-1.5c0.3-1,2.1-1.4,3.6-1.3c2.8,0,5-0.7,5.1-1.1c0.2-1.2,0.8-1.4,2-2l0.8-0.4c1.9-0.9,5.7-2.7,8.9-2.8h0.6
		c2.8-0.2,3.7-0.2,4.7-1c1.3-0.8,2-1.1,3.4-1.2c0.7-0.1,1.4-0.9,2.1-1.7c0.3-0.3,0.5-0.6,0.8-0.9c0.2-0.2,0.4-0.4,0.5-0.6
		c0.7-0.9,1.6-1.8,3.3-1.3c0.9,0.3,1.3,0.7,1.5,1.1c0.3,0.4,0.5,0.7,1.5,0.7c1.4,0,2.4-0.1,3.5-0.2c0.7,0,1.3-0.1,2.1-0.1h0.8
		c2-0.1,4-0.2,4.9,0.7c0.2,0.2,0.3,0.3,0.3,0.4c0.1,0.1,0.3,0.3,0.2,0.6c-0.1,0.3-0.3,0.4-0.5,0.4c-0.2,0.1-0.5,0.2-1.2,0.6
		c-0.1,0.1-0.3,0.2-0.5,0.2h-0.5c-1.6,0-3.2,0-4.4,0.8c-0.9,0.6-1.3,1.3-1.4,2s0.3,1.5,1,2.3s1.7,1.4,2.8,2.2
		c2.6,1.7,5.5,3.7,4.8,7.4c-0.1,0.8-0.4,1.5-0.7,2.2c-0.4,0.9-0.7,1.8-0.7,3c0,0.5,0,0.9,0.1,1.4c0.2,1.6,0.4,3.3-2.1,4
		c-0.4,0.1-0.8,0.2-1.2,0.3c-1.5,0.4-2.7,0.7-4.3,1.5c-0.3,0.2-0.6,0.3-0.9,0.4c-0.5,0.2-1,0.4-1.3,0.8c-0.5,0.7-0.4,0.8,0,1.1
		c0.3,0.2,0.6,0.4,0.9,0.9c1.5,2.3-0.3,4.1-1.8,5.5c-1.5,1.5-2.4,2.4-1.8,3.6l0.3,0.6l-0.7,0.1c-0.5,0.1-1,0.2-1.4,0.3
		c-0.3,0.1-0.6,0.2-1,0.4c-1.3,0.5-2.5,1-3.9,0.7c-0.8-0.2-1.3-0.5-1.7-0.8c-0.5-0.4-0.9-0.6-1.6-0.6c-0.3,0-0.6,0.2-1,0.3
		c-0.5,0.2-1,0.4-1.6,0.4c-1.4,0.1-2.4,0-3.2-0.4c-0.5-0.3-0.8-0.6-1.1-1c-0.4-0.5-0.6-0.7-1.1-0.8c-1.6-0.1-2,0.9-2.5,2.1
		c-0.2,0.6-0.5,1.2-0.9,1.7s-1,0.9-1.5,1.2c-0.4,0.3-0.8,0.5-1.2,0.9c-0.5,0.5-0.7,1-0.9,1.5c-0.1,0.3-0.3,0.6-0.5,0.9
		c-1.3,1.9-2.5,3.6-4.6,4.8c-0.2,0.1-0.6,0.3-1.2,0.5c-1.1,0.5-4,1.7-4.3,2.2c-0.2,0.6,0.4,1,2.1,1.6c1.2,0.5,2.5,1,2.7,2
		c0.2,0.7,0.1,1.3-0.3,1.8c-0.7,1-2.3,1-3.8,1c-0.5,0-1,0-1.4,0.1c-0.7,0.1-2,0.6-2.8,1c-0.3,0.2-0.6,0.5-1,0.9s-0.8,0.9-1.4,1.2
		c-1.3,0.7-4.9,0.8-6.2,0.5c-0.5-0.1-1.1-0.5-1.6-0.8c-0.3-0.2-0.6-0.4-0.7-0.4c-0.4,0-0.6,0.4-0.9,1.1c-0.2,0.4-0.4,0.9-0.7,1.2
		c-1.4,1.2-2.5,0.5-3.3-0.1c-0.5-0.4-1.1-0.8-1.8-0.8c-0.9-0.1-1.7,0.2-2.5,0.4c-0.9,0.3-1.8,0.7-2.8,0.2c-0.4-0.2-0.5-0.5-0.6-0.7
		s-0.1-0.3-0.5-0.4c-0.3-0.1-0.9-0.1-1.1,0.1c-0.7,0.3-0.7,0.6-0.7,1.2c0,0.3,0,0.7-0.1,1.1c-0.8,2.6-2.7,3.4-4.9,4.2
		c-1,0.4-2.3,1.6-2.3,2c0,0,0.2,0.2,1.1,0.3h0.4l0.1,0.4c0.3,1.2-0.4,2-1,2.6c-0.3,0.3-0.5,0.5-0.7,0.8c-0.5,1-0.6,1.7-0.5,2.7
		c0.2,2.9,0.1,4.3-2.4,6.2c-0.7,0.5-1.4,0.9-2,1.2c-1.4,0.7-1.8,0.9-1.1,2.5l0,0c0.7,1.6,1.1,3,1.2,4.1l0.1,0.8l-0.8-0.2
		c-0.2-0.1-0.4-0.1-0.7-0.1c-1.2,0.1-3.1,1.2-3.3,2.2c-0.1,0.4,0.1,0.9,0.3,1.3c0.2,0.5,0.5,1.1,0.4,1.7c-0.1,1-0.5,1.6-1,2.1
		c-0.2,0.2-0.4,0.5-0.6,0.8s-0.3,0.7-0.5,1.2c-0.2,0.7-0.4,1.4-0.8,1.7c-1,0.9-1.8,0.5-2.3,0.1c-0.2-0.1-0.5-0.3-0.7-0.3
		c-0.5-0.1-2.4-0.2-2.7,0c-0.3,0.2-0.5,0.4-0.7,0.9C17.7,113,17.4,113.7,16.5,114C16.9,113.9,16.7,114,16.5,114z M2.5,96.6
		c0.1,1.1,1.2,3.7,1.8,4.4c0.6,0.8,1.7,1,2.9,1.3c0.8,0.1,1.5,0.3,2.3,0.6c0.3,0.1,0.5,0.2,0.7,0.2c0.8,0.1,1.1,0.5,1.1,1.7
		c0,0.9-0.5,1.4-0.9,1.8c-0.3,0.3-0.5,0.5-0.6,0.8c-0.4,1.2-0.4,2.6,0.2,3.5c0.2,0.4,0.7,1,1.6,1.1c0.8,0.2,1.7,0,2.5,0.2
		c0.3,0.1,0.7,0.2,1,0.4c0.6,0.2,1.3,0.5,1.7,0.4c0.5-0.1,0.6-0.4,0.9-0.9c0.2-0.5,0.5-1,1.2-1.3c0.6-0.3,2.9-0.1,3.3,0
		s0.7,0.3,1,0.4c0.5,0.3,0.7,0.4,1.1,0c0.2-0.2,0.4-0.8,0.5-1.3c0.2-0.5,0.3-1.1,0.6-1.5c0.2-0.4,0.5-0.6,0.7-0.9
		c0.4-0.5,0.7-0.8,0.7-1.6c0-0.4-0.1-0.8-0.3-1.2c-0.3-0.6-0.6-1.2-0.4-2c0.3-1.5,2.6-2.8,4.2-3c0.1,0,0.2,0,0.3,0
		c-0.2-0.9-0.5-2-1.1-3.2c-1.2-2.6,0.2-3.2,1.5-3.9c0.6-0.3,1.2-0.6,1.8-1c2.1-1.6,2.2-2.7,2-5.4c-0.1-1.2,0.1-2.1,0.7-3.3
		c0.2-0.4,0.5-0.7,0.8-1.1c0.5-0.5,0.8-0.8,0.8-1.2c-1-0.1-1.6-0.5-1.7-1.1c-0.2-1.3,2-2.7,2.9-3.1c2.1-0.8,3.6-1.5,4.3-3.6
		c0.1-0.3,0.1-0.6,0.1-0.8c0-0.7,0-1.4,1.3-2.1c0.5-0.3,1.3-0.3,1.8-0.1c0.8,0.2,1,0.6,1.1,1v0.1c0.6,0.3,1.2,0,2.1-0.3
		c0.8-0.3,1.8-0.7,2.9-0.5c1,0.1,1.7,0.6,2.2,1c0.8,0.6,1.2,0.9,2.1,0.2c0.2-0.1,0.3-0.4,0.4-0.8c0.3-0.7,0.7-1.7,1.9-1.7l0,0
		c0.4,0,0.7,0.2,1.3,0.6c0.4,0.3,0.9,0.6,1.3,0.7c1.2,0.3,4.6,0.1,5.5-0.5c0.5-0.2,0.8-0.6,1.2-1c0.4-0.4,0.7-0.8,1.2-1.1
		c0.9-0.5,2.2-1,3.1-1.1c0.4-0.1,0.9-0.1,1.5-0.1c1.1,0,2.5,0,3-0.6c0.2-0.2,0.2-0.5,0.1-1s-1.2-0.9-2.1-1.3
		c-1.5-0.6-3.3-1.3-2.7-2.9c0.3-0.7,1.8-1.4,4.9-2.7c0.5-0.2,0.9-0.4,1.1-0.5c1.9-1,3-2.6,4.2-4.4c0.2-0.2,0.3-0.5,0.4-0.8
		c0.3-0.6,0.6-1.2,1.1-1.8c0.5-0.5,0.9-0.8,1.4-1c0.5-0.3,0.9-0.6,1.3-1c0.3-0.4,0.6-0.9,0.8-1.5c0.5-1.3,1.2-2.8,3.5-2.7
		c1,0.1,1.5,0.7,1.8,1.1c0.2,0.3,0.4,0.6,0.8,0.7c0.6,0.3,1.4,0.4,2.6,0.2c0.5,0,0.9-0.2,1.4-0.4c0.4-0.1,0.8-0.3,1.2-0.3
		c1.1-0.1,1.7,0.4,2.3,0.8c0.4,0.3,0.7,0.5,1.3,0.6c1.1,0.2,2.2-0.2,3.4-0.7c0.4-0.1,0.7-0.3,1.1-0.4c0.3-0.1,0.6-0.1,0.9-0.2
		c-0.4-1.6,1-3,2.2-4.2c1.7-1.7,2.7-2.8,1.7-4.3c-0.2-0.3-0.4-0.4-0.6-0.6c-0.7-0.5-1.2-1-0.3-2.5c0.5-0.7,1.1-1,1.8-1.2
		c0.3-0.1,0.5-0.2,0.8-0.4c1.8-0.9,3-1.2,4.5-1.6c0.4-0.1,0.8-0.2,1.2-0.3c1.5-0.4,1.5-1.2,1.3-2.9c-0.1-0.5-0.1-1-0.1-1.5
		c0-1.4,0.4-2.4,0.8-3.3c0.3-0.7,0.5-1.3,0.6-2c0.6-3.1-1.8-4.7-4.4-6.4c-1.1-0.7-2.2-1.5-3-2.3c-1-1-1.4-2-1.3-3s0.7-1.9,1.8-2.7
		c1.5-1,3.2-1,5-1h0.4l0,0c0.3-0.2,0.6-0.4,0.9-0.5c-0.5-0.6-2.5-0.4-4-0.3h-0.8c-0.8,0-1.4,0.1-2.1,0.1c-1.1,0.1-2.2,0.2-3.6,0.2
		s-1.8-0.5-2.3-1.1c-0.3-0.3-0.5-0.6-1-0.8c-1-0.3-1.5,0.2-2.2,1c-0.2,0.2-0.4,0.4-0.6,0.6c-0.2,0.3-0.5,0.5-0.7,0.8
		c-0.8,0.9-1.6,1.8-2.7,2c-1.3,0.1-1.8,0.3-2.9,1c-1.2,0.9-2.3,1-5.2,1.1H92c-3,0.1-6.7,1.9-8.5,2.7l-0.8,0.4
		c-1.2,0.6-1.3,0.6-1.5,1.3c-0.4,1.9-5.9,1.9-6.1,1.9c-1.5-0.1-2.5,0.4-2.6,0.7c0,0,0,0.2,0.3,0.3c0.7,0.4,1,0.7,1.3,0.9
		c0.3,0.2,0.6,0.4,1.3,0.9c1.4,0.9,0.8,3.2,0.2,5.3c-0.2,0.6-0.3,1.2-0.4,1.8c-0.4,2.2-3.5,3.6-5.8,4.6c-0.3,0.1-0.5,0.2-0.7,0.3
		c-1.9,0.8-4.4,2.6-6.2,3.8l-0.2,0.2c-0.3,0.2-0.7,0.5-1.1,0.7c-1.8,1.1-3.7,2.4-5.2,4.5c-1,1.5-1.9,2.5-2.7,3.5
		c-0.7,0.7-1.2,1.4-1.7,2.1c-1.1,1.9-2.4,4-4.2,4.7c-0.7,0.3-1.2,0.4-1.6,0.5c-0.7,0.2-1.2,0.3-2,0.9c-1.4,0.9-5.4,4.1-6.9,5.5
		c-0.3,0.3-0.8,0.7-1.3,1.2c-2.2,2-5.8,5.4-6.9,6.6c-1.1,1.3-6.2,6.7-8,7.9c-0.2,0.2-0.5,0.3-0.7,0.5c-1.4,0.9-2.7,1.7-3.3,3.1
		c-0.9,2-1.4,2.7-3.8,3.9c-2.3,1.1-5.6,1.7-8.6,1.7c-0.2,0-0.4,0.1-0.5,0.2c0.6,0.8,0.9,1.6,1,2s0,0.7,0,1s-0.1,0.6,0,0.8
		c0,1,0.2,1.2,0.4,1.4c0.4,0.3,0.8,0.7,0.9,1.3c0.3,1.3-1.2,5.1-2.4,6.9C3.3,96,2.9,96.4,2.5,96.6z"/>
</g>
</svg>
