<?xml version="1.0" encoding="utf-8"?>
<!-- Generator: Adobe Illustrator 28.0.0, SVG Export Plug-In . SVG Version: 6.00 Build 0)  -->
<svg version="1.1" id="_レイヤー_2" xmlns="http://www.w3.org/2000/svg" xmlns:xlink="http://www.w3.org/1999/xlink" x="0px"
	 y="0px" viewBox="0 0 120 120" style="enable-background:new 0 0 120 120;" xml:space="preserve">
<style type="text/css">
	.st0{fill:#F0E3D2;}
	.st1{fill:#D7323A;}
</style>
<g>
	<path class="st0" d="M85.5,113.1c-0.1-1-0.7-1.9-0.4-2.8c0.3-1,1.8-1.7,2-2.8c0.3-1.4-0.6-1.9-1.5-2.4c-1.5-0.8-1.5-0.7-1.2-2.3
		c0.2-1.2-0.2-2.4,0.6-3.3c0.6-0.6,3.1-1.2,1.4-2.5c-1-0.8-2.5,0.5-2.4-1.7c0.9,0.1,1.5-0.7,1.5-1.4c0-1.2-0.5-0.9-1.2-1.5
		c-1.5-1.2-2.5-2.3-3-4c-0.2-0.8-0.2-1.6-0.4-2.3c-0.3-1-1.2-1.3-1.8-2.2c-0.7-1-1.1-3.1,0.1-3.9c0.2-1.7,2.2-3.2,2.6-4.6
		c0.5-1.5-0.4-3.6,0.7-5.1c0.5-0.7,1.4-0.8,2.1-1.2c1.1-0.7,2-1.7,2.6-2.8c0.9-1.7,2-3.8,1.5-5.8c-0.4-1.6-3.4-2.1-2.2-3.8
		c0.1-0.2,0.8-0.2,1.1-0.5c0.3-0.4,0.2-0.7,0.4-1.1c0.2-0.3,0.1-0.7,0.3-1c0.2-0.5,0.8-0.4,0.9-0.9c0.5-2.2-3.2-1.9-3.7-3.2
		c-0.8-1.9,1.2-3.1,2.8-3.1c1.2,0,2.2,0.8,3.4,0.6c0.4-1.2,0.2-2.2,0-3.4s-0.4-1.3-0.9-2.3c-0.5-0.9-0.4-1.7-0.3-2.7
		c0.2-3.2-1.7-5.4,0.2-8.6c0.7-1.3,1.3-2.3,1-3.8c-0.2-0.9-1.1-2.5-0.5-3.4c0.7-1,2.8-1,3.7-2.2c0.5-0.6,0.7-1.1,0.9-1.5
		c-0.6-1.3-0.6-2.9-0.3-4.2c0.2-0.6,0.5-1.8,0.8-2.4c0.4-0.7,1.4-1,1.8-1.7c0.6-1.2-0.1-4.1-1.1-5c-1.6-1.5-4.2,0.2-5.6-1
		C90.8,4.8,91,1,91,0c-2.1-0.1-2.5,0.3-3.5,1.8c-0.7,1.2-1.8,2-2.8,2.8s-2.2,0.6-3.4,1c-1.6,0.6-2.2,2-4.2,1.3
		c-1.4-0.5-2-1.5-3.7-0.9c-0.8,0.3-0.5,0.8-1.6,0.8c-0.7,0.1-1.4-0.3-2-0.7c-1.2-0.8-1.8-1.8-3.2-2.4c-1.2-0.5-1.5-0.5-1.5-2
		c-1.3-0.2-3.2-0.6-4.1,0.4c-0.5,0.5-0.2,1.4-0.7,1.9c-0.3,0.3-1.7,0.7-2.1,0.7c-1.7,0.2-3.8,0.5-5.5,0.1c-1-0.2-1.1-0.4-2.1-0.3
		c-0.6,0.1-1.3,0.6-1.9,0.6c-0.8,0.1-1.4,0-2.1-0.3c-0.8-0.4-0.8-1-1.3-1.4c-0.9-0.8-2.9-1.1-3.7,0.4c-0.3,0.6,0.4,1.4-0.4,1.8
		c-0.5,0.2-0.9-0.6-1.4-0.7c-1.4-0.5-2.5-0.2-3.6,0.2c0,0.2,0,0.3,0,0.5c0.2,2.2,2.7,2.7,4.4,4.8c1.7,2,0.9,3.8,0.4,5.5
		s-0.8,3.6-1,5.5c-0.3,1.8-1.1,2.8-1.3,5.4C38.6,29.4,36.4,32,35,35s-4.8,5.1-6.4,5.6c-1.8,0.6-3.3-1-4.6-2.5
		c-1.4-1.6-2.4-0.3-2.2,0.7c0.2,1,0,3.1,0.6,4s1.4,2.2,2.1,3.7c0.7,1.6,1.4,1,3.2,1.3c1.8,0.3,2.7,0,3.6-0.7
		c1.2-0.9,0.8-2.2,1.7-2.4c2.1-0.3,3.3,0.5,5.2,1.8c1.9,1.4,3.2,4.4,4.5,8.1s0.6,7.5,0.9,12.4c0.2,4.9-2.6,14.9-3,17
		c-0.5,2.1-2.1,4.6-4.3,6s-1.3,2.4-1.6,4.2c-0.3,1.8,0,2-0.3,3.9c-0.3,1.8-1.2,2.4-1.6,4.1c1.5,0.2,3,0.4,4.3,0.4
		c1,0,2.4,0.1,3.4-0.1c1.4-0.3,1.4-1.2,2.5-1.9c0.9,0.7,0.8,1.4,1.1,2.3c0.1,0.4-0.2,0.9,0.2,1.3c0.3,0.3,1.6,0,2,0.3
		c0.7,0.4,0.8,1.4,1.7,1.8c1,0.4,1.9,0.6,2.8-0.1c1.7,3.6,5.4,1.8,8.5,2.2c0.1,0.5,0.2,0.9,0.4,1.4c1,0,1.1-0.3,1.9,0.2
		c1,0.5,1.4,1,2.5,1.4c2,0.6,2.9,1.6,3.3,3.6c0.1,0.8-0.2,1.4,0.3,2c0.6,0.7,1.9,0.8,2.7,1c2.1,0.5,3.6,2.2,6.1,1.5
		c0.9-0.3,1.7-1.4,2.6-1.7c1.9-0.5,1.9,0.1,3.1-1.8c1.1-1.8,1.7-2.3,3.6-2.4C85.5,113.7,85.5,113.4,85.5,113.1z"/>
	<path class="st1" d="M77.3,118.2c-1.2,0-2.2-0.5-3.1-0.9c-0.6-0.3-1.2-0.6-1.9-0.8c-0.2,0-0.4-0.1-0.5-0.1c-0.8-0.2-1.8-0.4-2.4-1
		c-0.5-0.6-0.4-1.1-0.4-1.6c0-0.2,0-0.4,0-0.7c-0.4-1.8-1.1-2.6-2.9-3.2c-0.7-0.3-1.2-0.6-1.6-0.8c-0.3-0.2-0.6-0.4-1-0.6
		c-0.4-0.3-0.5-0.3-0.9-0.2c-0.2,0-0.5,0.1-0.8,0.1h-0.3l-0.1-0.3c-0.2-0.4-0.3-0.8-0.3-1.1c-0.8-0.1-1.6,0-2.3,0.1
		c-2.1,0.2-4.5,0.3-5.9-2c-0.9,0.5-1.9,0.2-2.8-0.1c-0.6-0.3-1-0.8-1.2-1.2c-0.2-0.3-0.3-0.5-0.5-0.6c-0.1-0.1-0.6-0.1-0.8-0.1
		c-0.5,0-1,0-1.3-0.3c-0.4-0.4-0.4-0.9-0.3-1.2c0-0.1,0-0.2,0-0.3c-0.1-0.2-0.1-0.5-0.2-0.7c-0.1-0.5-0.2-0.8-0.5-1.1
		c-0.2,0.2-0.4,0.4-0.5,0.6c-0.4,0.5-0.8,1-1.8,1.2c-0.8,0.2-1.8,0.1-2.7,0.1c-0.3,0-0.5,0-0.8,0c-1.3,0-2.9-0.2-4.4-0.4l-0.5-0.1
		l0.1-0.5c0.2-0.9,0.5-1.4,0.8-2s0.6-1.2,0.8-2.1c0.1-0.9,0.1-1.4,0.1-1.9s0-1.1,0.2-2c0.1-0.5,0.1-0.9,0.1-1.3
		c0-1.1-0.1-2.1,1.8-3.3c2.2-1.4,3.6-3.9,4.1-5.7c0.1-0.4,0.3-1.3,0.5-2.4c0.9-3.8,2.6-10.7,2.4-14.5C45,63.4,45,61.9,45,60.4
		c0-2.8,0-5.3-0.8-7.6c-1.3-3.8-2.6-6.6-4.3-7.9c-1.8-1.2-2.9-2-4.8-1.7c-0.1,0-0.2,0.1-0.3,0.6c-0.2,0.5-0.4,1.2-1.1,1.7
		c-1.1,0.9-2.2,1.1-4,0.8c-0.5-0.1-0.9-0.1-1.2-0.1c-0.9,0-1.7-0.1-2.4-1.5c-0.6-1.2-1.2-2.4-2.1-3.6c-0.5-0.7-0.5-1.9-0.6-2.9
		c0-0.5,0-0.9-0.1-1.3c-0.2-0.8,0.2-1.6,0.8-1.9c0.3-0.2,1.2-0.4,2.2,0.8c1.3,1.5,2.6,2.8,4.1,2.4c1.5-0.5,4.8-2.5,6.1-5.3
		c0.5-1,1-2,1.6-2.9c1-1.8,2-3.5,2.1-5.1s0.5-2.7,0.8-3.6c0.2-0.6,0.4-1.2,0.5-1.9c0.2-2.2,0.6-4,1-5.6l0.1-0.5
		c0.5-1.5,0.9-2.9-0.5-4.5C41.5,8,40.7,7.5,40,6.9c-1.2-0.9-2.3-1.7-2.4-3.2V2.8L38,2.6c1.1-0.4,2.4-0.8,3.9-0.2
		c0.3,0,0.5,0.3,0.8,0.5C42.8,3,43,3.1,43,3.1c0.1,0,0.1-0.1,0-0.5c0-0.3,0-0.6,0.2-1c0.4-0.7,1-1.2,1.8-1.3c0.9-0.2,2,0.1,2.7,0.7
		c0.2,0.2,0.4,0.4,0.5,0.7c0.2,0.3,0.3,0.5,0.7,0.7c0.6,0.3,1.1,0.3,1.8,0.3c0.3,0,0.6-0.1,0.9-0.3c0.3-0.1,0.6-0.3,0.9-0.3
		c0.8-0.1,1.1,0,1.6,0.1c0.2,0.1,0.4,0.1,0.7,0.2c1.5,0.4,3.3,0.1,5-0.1h0.4c0.4,0,1.6-0.4,1.8-0.6c0.1-0.1,0.2-0.4,0.2-0.7
		c0.1-0.4,0.1-0.9,0.5-1.2c1-1.1,2.9-0.8,4.2-0.6l0.7,0.1v0.4c0,1.1,0,1.1,0.9,1.4l0.3,0.1c0.9,0.4,1.5,0.9,2.1,1.5
		c0.4,0.3,0.7,0.7,1.2,1c0.5,0.4,1.1,0.7,1.7,0.6c0.5,0,0.6-0.1,0.7-0.2c0.1-0.2,0.4-0.4,0.8-0.5c1.4-0.5,2.2,0,3,0.4
		c0.3,0.2,0.6,0.4,1,0.5c1.1,0.4,1.6,0,2.4-0.5c0.4-0.3,0.9-0.6,1.4-0.8c0.5-0.2,1-0.2,1.4-0.3c0.7-0.1,1.3-0.2,1.8-0.6L86.7,2
		c0.9-0.7,1.8-1.4,2.4-2.4c1.1-1.6,1.6-2.2,4-2h0.5V-2c0,0.2,0,0.4,0,0.7c-0.1,2.5,0,4,0.3,4.3c0.5,0.4,1.3,0.3,2.2,0.3
		C97,3.1,98.3,3,99.3,3.9c1.1,1,1.9,4.1,1.2,5.6c-0.3,0.5-0.7,0.8-1.1,1c-0.3,0.2-0.6,0.4-0.8,0.7c-0.2,0.4-0.4,1.1-0.5,1.6
		c-0.1,0.3-0.1,0.5-0.2,0.7c-0.3,1.3-0.2,2.8,0.3,3.8l0.1,0.2L98.2,18c-0.2,0.4-0.4,0.9-0.9,1.4c-0.5,0.7-1.4,1.1-2.2,1.4
		c-0.6,0.2-1.2,0.5-1.5,0.8c-0.3,0.4,0,1.4,0.3,2.1c0.1,0.3,0.2,0.6,0.3,0.9c0.3,1.6-0.3,2.7-0.9,4l-0.1,0.2
		c-1.1,1.9-0.8,3.4-0.5,5.1c0.2,1,0.4,2.1,0.3,3.3v0.1c-0.1,0.9-0.2,1.6,0.2,2.3c0.1,0.3,0.2,0.4,0.3,0.6c0.3,0.5,0.5,0.9,0.6,1.9
		v0.2c0.2,1.1,0.4,2.2,0,3.5L94,46.1h-0.3c-0.8,0.1-1.5-0.1-2.1-0.3c-0.5-0.2-0.9-0.3-1.4-0.3c-0.9,0-1.9,0.4-2.3,1
		c-0.3,0.4-0.3,0.9-0.1,1.4c0.1,0.3,0.8,0.6,1.4,0.8c1.1,0.4,2.7,1,2.3,2.7c-0.1,0.5-0.5,0.7-0.7,0.8s-0.2,0.1-0.2,0.2v0.1
		c0,0.1-0.1,0.2-0.1,0.3c0,0.2-0.1,0.5-0.2,0.7c0,0.1,0,0.2-0.1,0.3c0,0.2-0.1,0.5-0.3,0.8c-0.3,0.3-0.6,0.4-0.9,0.5
		c-0.1,0-0.1,0-0.2,0.1c-0.3,0.5-0.1,0.8,0.8,1.5c0.6,0.5,1.3,1,1.5,1.8c0.5,2.2-0.6,4.4-1.5,6.2c-0.7,1.2-1.6,2.3-2.8,3
		c-0.3,0.2-0.6,0.3-0.8,0.4c-0.5,0.2-0.9,0.3-1.1,0.7c-0.5,0.7-0.5,1.7-0.5,2.7c0,0.8,0.1,1.5-0.2,2.2C84,74.4,83.5,75,83,75.8
		c-0.6,0.8-1.2,1.6-1.3,2.4v0.2l-0.2,0.1c-0.3,0.2-0.4,0.5-0.5,0.8c-0.2,0.8,0.2,1.8,0.5,2.4c0.2,0.3,0.5,0.6,0.8,0.8
		c0.4,0.4,0.9,0.8,1.1,1.5c0.1,0.4,0.2,0.8,0.2,1.2c0,0.4,0.1,0.7,0.2,1.1c0.5,1.6,1.4,2.6,2.8,3.7c0.2,0.2,0.3,0.2,0.5,0.3
		c0.5,0.2,0.9,0.5,0.9,1.6c0,0.5-0.2,1.1-0.7,1.5c-0.2,0.2-0.5,0.4-0.8,0.4c0,0.2,0.1,0.3,0.1,0.3c0.1,0.1,0.3,0.1,0.6,0.1
		c0.4,0,1,0,1.5,0.4s0.8,0.9,0.8,1.3c-0.1,0.7-0.8,1.2-1.5,1.5c-0.2,0.1-0.5,0.3-0.6,0.4c-0.4,0.4-0.4,1-0.4,1.8
		c0,0.4,0,0.8-0.1,1.3c-0.2,1.2-0.2,1.2,0.7,1.7l0.2,0.1c0.9,0.5,2.1,1.2,1.8,2.9c-0.1,0.7-0.7,1.3-1.2,1.8
		c-0.4,0.4-0.7,0.7-0.8,1.1c-0.1,0.4,0,0.9,0.2,1.4c0.1,0.4,0.2,0.8,0.3,1.2l0,0l3.4-0.2l-3.5,1.2c-0.1,0-0.3,0.1-0.4,0
		c-1.5,0.1-2,0.5-3,2.1c-0.9,1.5-1.3,1.6-2.3,1.8c-0.3,0-0.6,0.1-1.1,0.2c-0.3,0.1-0.7,0.4-1.1,0.8c-0.5,0.4-0.9,0.8-1.5,0.9
		C78.2,118.1,77.7,118.2,77.3,118.2z M62.8,107.2c0.3,0,0.6,0.1,1.1,0.4c0.4,0.2,0.7,0.4,1,0.6c0.4,0.3,0.8,0.5,1.4,0.7
		c2.1,0.6,3.2,1.8,3.6,4c0,0.4,0,0.6,0,0.9c0,0.4,0,0.7,0.2,0.9c0.4,0.4,1.2,0.6,1.8,0.7c0.2,0,0.4,0.1,0.6,0.1
		c0.8,0.2,1.4,0.5,2.1,0.8c1.2,0.6,2.3,1.1,3.7,0.7c0.3-0.1,0.7-0.4,1.1-0.8c0.5-0.4,0.9-0.8,1.5-0.9c0.5-0.1,0.9-0.2,1.2-0.2
		c0.7-0.1,0.8-0.1,1.6-1.3c1-1.6,1.7-2.3,3.2-2.6l0,0c0-0.3-0.1-0.6-0.2-1c-0.2-0.6-0.4-1.3-0.1-2c0.2-0.6,0.6-1,1.1-1.5
		c0.4-0.4,0.8-0.8,0.9-1.3c0.2-1-0.3-1.3-1.3-1.9l-0.2-0.1c-1.4-0.8-1.6-1-1.2-2.7c0.1-0.4,0.1-0.8,0.1-1.1c0-0.8,0-1.7,0.7-2.4
		c0.2-0.2,0.5-0.4,0.9-0.6c0.3-0.2,1-0.5,1-0.7c0-0.1-0.1-0.2-0.4-0.5c-0.2-0.2-0.6-0.2-0.9-0.2c-0.4,0-0.9,0-1.3-0.4
		c-0.3-0.3-0.4-0.8-0.4-1.5v-0.5l0.5,0.1c0.2,0,0.4,0,0.6-0.2S87,92.2,87,92c0-0.5,0-0.5-0.3-0.7c-0.2-0.1-0.4-0.2-0.7-0.4
		c-1.5-1.2-2.6-2.4-3.2-4.2c-0.1-0.4-0.2-0.8-0.2-1.2c0-0.4-0.1-0.7-0.2-1.1s-0.4-0.7-0.8-1.1c-0.3-0.3-0.6-0.6-0.9-1
		c-0.5-0.7-0.9-2-0.7-3.1c0.1-0.6,0.4-1,0.7-1.4c0.2-1,0.9-1.9,1.5-2.7c0.5-0.6,0.9-1.2,1.1-1.7s0.2-1.2,0.1-1.9
		c0-1.1-0.1-2.3,0.7-3.4c0.4-0.6,1-0.8,1.6-1c0.2-0.1,0.5-0.2,0.7-0.3c1-0.6,1.8-1.5,2.4-2.6c0.8-1.6,1.9-3.6,1.5-5.4
		c-0.1-0.5-0.7-0.9-1.2-1.3c-0.8-0.6-1.9-1.5-1-2.9c0.1-0.2,0.4-0.3,0.7-0.4c0.1,0,0.4-0.1,0.4-0.2c0.1-0.1,0.1-0.2,0.1-0.4
		s0.1-0.4,0.2-0.6c0.1-0.1,0.1-0.2,0.1-0.3c0-0.2,0.1-0.4,0.2-0.7c0.2-0.4,0.5-0.5,0.7-0.6c0.1,0,0.2-0.1,0.2-0.1
		c0.2-0.8-0.4-1.1-1.7-1.6c-0.8-0.3-1.7-0.6-2-1.4c-0.4-1-0.1-1.8,0.2-2.3c0.7-1,2-1.5,3.1-1.5c0.6,0,1.2,0.2,1.7,0.3
		s0.9,0.3,1.3,0.3c0.2-0.9,0.1-1.7-0.1-2.7v-0.2c-0.1-0.8-0.3-1.1-0.5-1.5c-0.1-0.2-0.2-0.4-0.3-0.6c-0.5-1-0.5-1.9-0.4-2.9
		c0.1-1.2-0.1-2.2-0.3-3.2c-0.3-1.7-0.7-3.6,0.6-5.8l0.1-0.2c0.6-1.2,1.1-2,0.8-3.3c0-0.2-0.1-0.5-0.2-0.8c-0.3-1-0.8-2.1-0.2-3
		c0.4-0.6,1.2-0.9,1.9-1.2c0.7-0.3,1.4-0.5,1.8-1s0.6-0.9,0.7-1.2c-0.5-1.2-0.6-2.8-0.2-4.3c0.1-0.2,0.1-0.5,0.2-0.7
		c0.2-0.6,0.4-1.3,0.6-1.8c0.3-0.5,0.7-0.8,1.1-1c0.3-0.2,0.6-0.4,0.8-0.7c0.5-0.9-0.1-3.6-1-4.4C98,4,97,4.1,96,4.2
		s-2.1,0.2-2.9-0.5c-0.6-0.5-0.7-2.1-0.6-5c0-0.1,0-0.1,0-0.2c-1.5,0-1.7,0.3-2.6,1.6c-0.7,1.1-1.6,1.9-2.6,2.7L87,3
		c-0.7,0.6-1.5,0.7-2.3,0.8c-0.4,0.1-0.8,0.1-1.2,0.3c-0.4,0.2-0.8,0.4-1.2,0.7C81.4,5.4,80.6,6,79,5.4c-0.5-0.2-0.8-0.4-1.2-0.6
		c-0.7-0.4-1.2-0.7-2.2-0.3c-0.2,0.1-0.3,0.2-0.4,0.3c-0.3,0.3-0.6,0.5-1.4,0.5C73,5.4,72.2,5,71.5,4.5c-0.5-0.3-0.9-0.7-1.3-1.1
		c-0.5-0.5-1.1-1-1.8-1.3L68.2,2c-1.1-0.4-1.5-0.7-1.5-1.9c-1.1-0.2-2.6-0.4-3.2,0.3c-0.1,0.2-0.2,0.4-0.2,0.7
		C63.1,1.5,63,2,62.7,2.4c-0.4,0.4-2,0.8-2.5,0.8h-0.3c-1.7,0.2-3.6,0.4-5.3,0c-0.3-0.1-0.5-0.1-0.7-0.2c-0.5,0-0.7-0.1-1.3,0
		c-0.2,0-0.4,0.1-0.7,0.2c-0.4,0.2-0.8,0.4-1.3,0.4c-0.8,0.1-1.5,0-2.3-0.3c-0.6-0.3-0.9-0.7-1.1-1c0-0.3-0.1-0.4-0.2-0.5
		c-0.4-0.4-1.2-0.7-1.9-0.5C44.6,1.4,44.3,1.6,44,2c0,0.1,0,0.3,0,0.5c0.1,0.4,0.2,1.1-0.6,1.5c-0.6,0.2-1.1-0.1-1.4-0.4
		c-0.1-0.1-0.3-0.2-0.4-0.3c-1.2-0.4-2.1-0.2-3,0.1v0.1c0.1,1.1,0.9,1.7,2,2.5c0.7,0.5,1.6,1.1,2.3,2c1.7,2,1.1,3.9,0.6,5.5l0,0.5
		c-0.4,1.5-0.8,3.2-1,5.4c-0.1,0.8-0.3,1.4-0.6,2.1c-0.3,0.9-0.6,1.8-0.7,3.3c-0.1,1.8-1.1,3.7-2.2,5.6c-0.5,0.9-1.1,1.8-1.5,2.8
		c-1.4,3-4.8,5.3-6.7,5.9c-2.2,0.7-4-1.3-5.1-2.6c-0.4-0.5-0.8-0.7-1-0.5c-0.2,0.1-0.4,0.5-0.3,0.8c0.1,0.4,0.1,0.9,0.1,1.4
		c0,0.9,0.1,1.9,0.4,2.4c0.8,1.3,1.6,2.5,2.1,3.8c0.4,0.9,0.6,0.9,1.5,0.9c0.4,0,0.8,0,1.4,0.1c1.7,0.3,2.4,0,3.2-0.6
		c0.5-0.4,0.7-0.8,0.8-1.3c0.2-0.5,0.4-1.1,1.1-1.2c2.4-0.3,3.7,0.6,5.6,1.9c2,1.5,3.3,4.4,4.7,8.3c0.9,2.5,0.9,5.1,0.9,8
		c0,1.4,0,2.9,0.1,4.6c0.2,3.9-1.5,11-2.5,14.8c-0.3,1.1-0.5,1.9-0.5,2.3c-0.5,2-2.1,4.8-4.5,6.3c-1.3,0.9-1.3,1.4-1.3,2.4
		c0,0.4,0,0.9-0.1,1.5C37,93.1,37,93.6,37,94.1s0,1.1-0.2,2.1s-0.5,1.7-0.9,2.4c-0.2,0.4-0.4,0.8-0.6,1.2c1.3,0.2,2.6,0.3,3.7,0.3
		c0.2,0,0.5,0,0.8,0c0.8,0,1.8,0,2.5-0.1s0.9-0.4,1.3-0.8c0.3-0.3,0.6-0.7,1.1-1L45,98l0.3,0.2c0.8,0.6,1,1.3,1.1,1.9
		c0,0.2,0.1,0.4,0.2,0.6c0.1,0.3,0,0.5,0,0.7c0,0.3,0,0.4,0.1,0.4c0,0,0.4,0,0.6,0c0.5,0,1,0,1.3,0.2c0.4,0.2,0.6,0.6,0.8,0.9
		s0.4,0.7,0.8,0.8c1,0.4,1.6,0.5,2.3,0l0.5-0.4l0.3,0.6c1.1,2.2,3,2.1,5.2,1.9c1-0.1,1.9-0.1,2.9,0h0.4l0.1,0.4
		c0.1,0.4,0.1,0.7,0.3,1c0.1,0,0.2,0,0.3,0C62.5,107.2,62.7,107.2,62.8,107.2z M88.9,54.9C88.9,55,88.9,55,88.9,54.9
		C88.9,55,88.9,55,88.9,54.9z"/>
</g>
</svg>
