<?xml version="1.0" encoding="utf-8"?>
<!-- Generator: Adobe Illustrator 28.0.0, SVG Export Plug-In . SVG Version: 6.00 Build 0)  -->
<svg version="1.1" id="_レイヤー_2" xmlns="http://www.w3.org/2000/svg" xmlns:xlink="http://www.w3.org/1999/xlink" x="0px"
	 y="0px" viewBox="0 0 120 120" style="enable-background:new 0 0 120 120;" xml:space="preserve">
<style type="text/css">
	.st0{fill:#F0E3D2;}
	.st1{fill:#D7323A;}
</style>
<g>
	<g>
		<path class="st0" d="M2.9,83.6c1.7-3.3,3.8-5.2,3.2-7.5c-0.7-2.3,1.6-2.3,2.7-2.6c1.1-0.3,2.1-1.3,3.3-2c1.1-0.7,2.5-1.1,4.9-0.9
			s2.5-0.3,2.8,1.7c0.3,2.1-0.7,3.1,0.7,4.3c1.4,1.2,0.6,1.6,0.6,2.5s1.8,1.5,2.9,0s3.6-2.6,6-4.1s5-1.3,6.7-1s6.8-1,5.9,1.2
			c-0.9,2.2-1.2,2.4-1.8,5.3s-0.6,4.9-0.6,6.2c0,1.3-11.1-1.3-13-1.3s-4.3,0.8-5.7,2.4c-1.4,1.6,1.1,1.1-1.8,3.2s-2.5,1.2-3.4,3.2
			s0.3,3.2-2.6,5.1c-2.9,2-3.1,2.7-4.1,4.4c-1,1.6-0.8,4.1-3.1,2.9S4,105,3.4,102.8s-1.6-1-2-2.3c-0.5-1.3,0.2-2.8,2-3.6
			c1.8-0.8,3.5-1.6,0.6-2.4s-5-2.3-3.5-4.5L2.9,83.6z"/>
		<path class="st1" d="M9.5,105.4c-0.4,0-0.8-0.1-1.3-0.4c-2.4-1.3-2.7-1.8-3.4-4.1c-0.3-1-0.6-1.1-0.9-1.2
			c-0.4-0.1-0.8-0.3-1.1-1.1c-0.6-1.6,0.3-3.3,2.3-4.2c0.5-0.2,1.6-0.7,1.8-1c-0.1-0.1-0.4-0.3-1.2-0.5c-1.6-0.4-3.7-1.3-4.2-2.8
			c-0.3-0.8-0.1-1.6,0.4-2.4l2.4-6.4c0.5-1,1.1-1.9,1.6-2.7c1.1-1.8,1.9-3,1.6-4.4c-0.2-0.7-0.2-1.4,0.1-1.9c0.5-0.8,1.5-1,2.4-1.2
			c0.2,0,0.4-0.1,0.6-0.1c0.6-0.2,1.2-0.6,1.9-1.1c0.4-0.3,0.8-0.6,1.3-0.9c1.3-0.9,2.9-1.2,5.2-1c0.5,0,0.9,0.1,1.2,0.1
			c1.6,0,1.8,0.3,2.1,2.1c0.1,0.8,0,1.5,0,2.1c-0.1,0.9-0.1,1.3,0.5,1.9c1.2,1,1.1,1.7,0.9,2.4c-0.1,0.2-0.1,0.3-0.1,0.5
			c0,0.1,0.2,0.3,0.4,0.4c0.4,0.1,1.1,0,1.6-0.7c0.9-1.2,2.5-2.1,4.2-3.1c0.6-0.4,1.3-0.7,2-1.2c1.9-1.2,4.2-1.6,7.1-1.1
			c0.5,0.1,1.3,0,2.1,0c1.8-0.1,3.5-0.2,4.1,0.6c0.2,0.2,0.3,0.7,0.1,1.3c-0.2,0.5-0.4,0.9-0.6,1.3c-0.5,1.1-0.8,1.7-1.2,3.9
			c-0.6,2.8-0.6,4.8-0.6,6.1c0,0.2-0.1,0.4-0.3,0.6c-0.7,0.6-3.3,0.3-9.1-0.7c-1.8-0.3-3.6-0.6-4.2-0.6c-1.7,0-4,0.7-5.3,2.2
			c-0.4,0.5-0.4,0.6-0.3,0.8c0.3,0.7,0.1,1.3-1.6,2.5c-0.9,0.7-1.5,1-1.9,1.3c-0.8,0.5-0.8,0.5-1.3,1.7c-0.3,0.6-0.3,1.1-0.4,1.6
			c-0.1,1.1-0.3,2.3-2.4,3.7c-2.5,1.7-2.9,2.4-3.7,3.7L12,102c-0.3,0.4-0.4,0.9-0.6,1.4c-0.3,0.9-0.6,1.7-1.3,2
			C9.9,105.4,9.7,105.4,9.5,105.4z M5.4,81.8L3,88.3c-0.4,0.6-0.5,1.1-0.3,1.6c0.3,0.8,1.6,1.6,3.6,2.2c0.9,0.3,1.9,0.6,1.9,1.4
			c0.1,0.9-1.2,1.4-2.5,2c-1.5,0.7-2.2,1.8-1.7,3c0.1,0.3,0.2,0.4,0.5,0.5c0.6,0.2,1.2,0.5,1.6,1.9c0.6,2.1,0.7,2.4,2.8,3.5
			c0.3,0.2,0.7,0.3,1,0.2c0.3-0.1,0.5-0.7,0.8-1.4c0.2-0.5,0.4-1.1,0.7-1.6l0.3-0.5c0.8-1.4,1.3-2.2,4-4.1c1.7-1.1,1.8-1.9,2-3
			c0.1-0.6,0.1-1.2,0.5-1.9c0.7-1.5,0.7-1.5,1.7-2.2c0.4-0.3,1-0.6,1.9-1.2c1.4-1,1.3-1.2,1.2-1.4c-0.2-0.4-0.2-0.9,0.5-1.8
			c1.6-1.8,4.2-2.6,6.1-2.6c0.7,0,2.3,0.3,4.3,0.6c2.5,0.4,7.2,1.3,8.2,1c0-1.3,0-3.3,0.6-6.1c0.5-2.3,0.8-2.9,1.3-4.1
			c0.2-0.4,0.3-0.8,0.6-1.3c0.1-0.2,0.1-0.3,0-0.4c-0.3-0.4-2.2-0.3-3.2-0.2c-0.9,0.1-1.8,0.1-2.4,0c-2.5-0.4-4.6-0.1-6.3,0.9
			c-0.7,0.4-1.3,0.8-2,1.2c-1.6,0.9-3.1,1.8-3.9,2.8c-0.8,1.1-2,1.3-2.7,1C23.4,78.1,23,77.6,23,77c0-0.3,0.1-0.6,0.1-0.8
			c0.1-0.4,0.2-0.7-0.6-1.3c-1.1-0.9-1-1.8-0.9-2.8c0.1-0.5,0.1-1.1,0-1.8c-0.2-1.2-0.2-1.2-1.1-1.2c-0.3,0-0.7,0-1.2-0.1
			c-2.6-0.2-3.8,0.3-4.6,0.8c-0.4,0.3-0.8,0.5-1.2,0.8c-0.7,0.5-1.4,1-2.2,1.2c-0.2,0-0.4,0.1-0.6,0.1C10.1,72,9.2,72.2,9,72.6
			c-0.1,0.2-0.2,0.6,0,1.1c0.5,1.8-0.5,3.3-1.7,5.2C6.4,80,5.9,80.8,5.4,81.8z"/>
	</g>
	<g>
		<path class="st0" d="M70.2,115.7c2.3-0.1,4.9,0.1,7.3-0.2c2.5-0.3,3.8-3.6,6.5-3.1c1.4,0.3,1.7,1.4,3.2,1.5c2,0.1,1.9-0.8,2.8-2.2
			c1.7-2.8,3.2-3.5,6.3-2.5c2.3,0.8,4.8,1.9,5.2-1.3c0.3-3-2.3-4.2-3.9-6.3c-2.5-3.2,0.2-3.4,2.3-5.7c2.4-2.6,0.1-4.1-0.9-6.5
			c-0.4-0.9,0.2-2.2-0.2-3.1c-0.6-1.6-2-1.4-3.2-2.4c-1.8-1.5-2-4.2-2.4-6.3c-0.1-0.7-0.8-2.5-0.7-3.1c0.3-1.3,1.7-1.8,2.3-2.9
			c0.7-1.2,0.2-1.9,1.4-3.1c0.9-1,2.1-1.2,3.4-1.6c3.6-1,2.9-1.4,2.7-4.7c-0.2-3.8,3-3.2,5-5.7c0.9-1.1,0.4-2.3,1.1-3.3
			c0.8-1.3,2.4-1.2,3.4-2.1c2.8-2.4,1-7,3.6-8.8c1.2-0.8,3-1.4,4.8-1.8c-3.6-2.3-6.1-4.2-6.1-9.6c0-4.5-1.4-9.5-4.2-13.2
			c-1-1.3-1.5-1.4-1.6-3.1c-0.1-1.1,0.2-2.1-0.3-3.1c-0.9-2.1-5-6.8-7.5-7.5c-1.5-0.4-3,0.6-4.6,0.9c-1.3,0.2-3.3,0.3-4.6,0.7
			c-3,1.1-2,4.5-0.3,6.3c2.2,2.3,3.2,2.9,2.3,6.1c-0.6,2.1-1.9,4.4-4.7,2.9c-0.8-0.4-1.9-1.9-2.5-2.5c-0.9-0.9-1.8-1.6-2.9-2.3
			c-2.1-1.4-4.5-3.5-6.8-4.3c-1.1-0.4-2.3-0.3-3.4-0.9c-1.2-0.8-1.6-1.7-2.9-2.3c-1.9-0.8-5.2-1.6-7.2-1.2c-0.4,1.9,1.5,2.4-0.3,4.1
			c-1.2,1.1-2.5,0.9-4.1,0.9c-4.1,0-5.4,2.2-8.6,4.1c-1.8,1.1-1.9,1.1-2,3.1c-0.1,1.4,0.5,3.2-0.9,4c-1.1,0.6-3.3,0.5-5.5,0.3
			c0.2,1.1,0.4,2.2,0.5,3.2c0.6,4.3-0.3,2.9,1.9,5.9c2.3,2.9,4.4,1.5,5.2,2.7s0,3.7,1.5,3.7s3.7,1,5,2.7c1.2,1.7,1.7,3.5,1,4.3
			s-0.7,1.4,0.5,3.1c1.1,1.6-0.5,2.4-2.1,4.4c-1.7,2-5.3,4.6-10.6,7.6c-5.3,3.1-0.9,5.1,2.6,3.4c3.5-1.7,5.1-2.4,10.1-2.2
			s0.3,5.1-2.3,7.3s-2.2,4.4-1.8,7.1c0.3,2.7,0.8,4.4-0.1,5.7c-0.9,1.3-4.2,4-5.7,6.7c-1.5,2.6-1.9,4-1.8,7.2c0,1.3-2.1,0.7-3.5,2.4
			c-1.4,1.7-0.5,2.5-2.5,3.7s-3.1,2.3-3.1,4.6c0,1.2-0.1,1.9-0.6,2.8c0.2,0.4,0.5,0.8,1,1.4c1.1,1.4,3.6,2.2,5.3,2.6
			c2.9,0.7,2.3-1.2,4.3-2.3c0.8-0.4,2-0.1,2.9-0.2c1.7-0.1,1.9-0.4,3.2-1.1c1.2-0.7,3.5-2.9,4.5-2.6c0.8,0.2,1.5,1.8,2.1,2.3
			c0.7,0.5,1.7,0.7,2.4,1.2c1.3,0.8,4.2,2.9,5.1,4.1v0.1c0.1,0,0.2-0.1,0.4-0.1C67.7,115.5,69,115.8,70.2,115.7z"/>
		<path class="st1" d="M71.7,114.2c-0.5,0-1,0-1.4-0.1c-0.5,0-1-0.1-1.3,0h-0.1c-0.1,0-0.2,0.1-0.3,0.1H68v-0.4
			c-0.9-1.1-3.6-3.1-4.9-3.8c-0.3-0.2-0.7-0.4-1.1-0.6c-0.4-0.2-0.9-0.4-1.3-0.7c-0.3-0.3-0.6-0.6-0.9-1c-0.3-0.5-0.8-1.1-1.1-1.2
			c-0.5-0.1-1.9,1-2.7,1.6c-0.5,0.4-1,0.8-1.4,1c-0.2,0.1-0.4,0.2-0.6,0.3c-0.8,0.5-1.3,0.7-2.8,0.8c-0.3,0-0.7,0-1.1,0
			c-0.6,0-1.2-0.1-1.6,0.1c-0.6,0.3-1,0.8-1.3,1.2c-0.6,0.8-1.2,1.6-3.4,1.1c-1.9-0.4-4.4-1.3-5.6-2.8c-0.5-0.6-0.8-1-1.1-1.5
			l-0.1-0.2l0.1-0.2c0.5-0.8,0.5-1.5,0.5-2.6c0-2.5,1.2-3.8,3.3-5c1-0.6,1.1-1,1.4-1.7c0.2-0.5,0.4-1.1,1-1.9c0.8-1,1.8-1.3,2.5-1.5
			c0.8-0.3,0.9-0.3,0.9-0.6c-0.1-3.2,0.3-4.7,1.9-7.5c1-1.8,2.7-3.5,4-4.9c0.7-0.8,1.4-1.4,1.7-1.8c0.6-0.9,0.4-2.1,0.2-3.8
			c-0.1-0.5-0.1-1-0.2-1.5v-0.2c-0.4-2.6-0.7-5,2-7.4c2.8-2.4,4.6-4.8,4.3-5.8c-0.2-0.5-1-0.6-1.7-0.6c-5-0.2-6.5,0.5-9.9,2.2
			c-2.2,1.1-4.9,0.8-5.6-0.5c-0.3-0.7-0.5-2,2.5-3.8c5.2-2.9,8.8-5.5,10.5-7.5c0.4-0.5,0.8-0.9,1.2-1.3c1.1-1.2,1.5-1.7,0.9-2.5
			C57.4,46.1,57,45.1,58,44c0.4-0.5,0.2-1.9-1-3.7c-1.2-1.6-3.3-2.5-4.6-2.5c-1.4,0-1.5-1.3-1.6-2.3c0.2-0.5,0.1-1.1-0.1-1.5
			c-0.2-0.3-0.5-0.3-1.1-0.4c-1.1-0.1-2.5-0.3-4-2.3l-0.3-0.4c-1.3-1.7-1.4-1.8-1.4-3.2c0-0.5-0.1-1.3-0.3-2.5
			c-0.1-1-0.3-2.1-0.5-3.2L43,21.4l0.7,0.1c2,0.2,4.2,0.3,5.2-0.2c0.7-0.4,0.7-1.2,0.7-2.4c0-0.4,0-0.8,0-1.2
			c0.1-2.1,0.3-2.3,2.1-3.4l0.2-0.1c0.9-0.5,1.6-1.1,2.4-1.6c1.8-1.4,3.4-2.6,6.5-2.6c0.2,0,0.4,0,0.6,0c1.3,0,2.2,0,3.1-0.8
			c0.8-0.8,0.7-1.1,0.4-1.7c-0.2-0.5-0.5-1.2-0.3-2.1L64.5,5l0.3-0.1c2-0.4,5.4,0.3,7.5,1.2c0.8,0.4,1.3,0.9,1.8,1.4
			c0.3,0.3,0.7,0.7,1.2,1s1.1,0.4,1.8,0.5c0.5,0.1,1,0.2,1.5,0.4c1.7,0.6,3.4,1.8,5.1,3.1c0.6,0.5,1.2,0.9,1.8,1.3
			c1.2,0.7,2.1,1.5,3,2.4c0.2,0.2,0.4,0.5,0.7,0.8c0.5,0.6,1.2,1.4,1.7,1.7c0.8,0.4,1.5,0.5,2.1,0.3c1-0.4,1.6-1.8,1.9-2.9
			c0.7-2.6,0.2-3.2-1.6-5l-0.6-0.6c-1.1-1.2-2.1-3.1-1.7-4.8C91.2,5,91.7,4,93.2,3.4c1-0.3,2.2-0.4,3.3-0.6c0.5-0.1,1-0.1,1.4-0.2
			c0.5-0.1,1-0.3,1.5-0.5c1.1-0.4,2.1-0.7,3.3-0.4c2.7,0.8,6.9,5.7,7.8,7.8c0.4,0.8,0.4,1.5,0.3,2.2c0,0.3,0,0.7,0,1
			c0.1,1.2,0.3,1.4,0.9,2.1c0.2,0.2,0.4,0.5,0.6,0.8c2.7,3.6,4.3,8.6,4.3,13.5c0,5.1,2.2,6.8,5.9,9.2l1,0.6l-1.2,0.3
			c-1.4,0.3-3.3,0.9-4.6,1.7c-1.1,0.8-1.3,2.2-1.5,3.8c-0.2,1.7-0.5,3.7-2.1,5c-0.5,0.4-1.1,0.7-1.6,0.9c-0.7,0.3-1.3,0.5-1.7,1.1
			c-0.3,0.4-0.3,0.8-0.4,1.3c-0.1,0.6-0.2,1.4-0.8,2.1c-0.8,1-1.8,1.5-2.7,2c-1.4,0.8-2.3,1.3-2.2,3.3c0,0.5,0.1,0.9,0.1,1.3
			c0.2,2.5,0,3-3.2,3.9c-0.2,0.1-0.4,0.1-0.6,0.2c-1,0.3-1.9,0.5-2.5,1.3c-0.6,0.6-0.7,1-0.8,1.6c-0.1,0.4-0.2,0.9-0.5,1.4
			s-0.7,0.9-1.1,1.3c-0.5,0.5-1,0.9-1.1,1.5c0,0.2,0.2,1.1,0.4,1.7c0.1,0.5,0.3,0.9,0.3,1.2c0.1,0.3,0.1,0.6,0.2,0.9
			c0.3,1.8,0.7,3.9,2.1,5.1c0.4,0.3,0.8,0.5,1.3,0.7c0.8,0.3,1.6,0.7,2.1,1.9c0.2,0.5,0.2,1.2,0.1,1.8c0,0.5-0.1,1,0.1,1.3
			c0.2,0.6,0.6,1.1,0.9,1.6c1,1.6,2,3.2-0.1,5.4c-0.6,0.6-1.2,1.1-1.8,1.6c-0.7,0.6-1.3,1-1.4,1.6c-0.1,0.5,0.2,1.1,0.9,1.9
			c0.4,0.6,1,1.1,1.5,1.6c1.3,1.3,2.7,2.7,2.5,5.1c-0.1,1.1-0.5,1.9-1.2,2.3c-1.1,0.7-2.7,0.1-4.3-0.4l-0.4-0.1
			c-2.8-0.9-4.1-0.4-5.7,2.3c-0.2,0.3-0.3,0.6-0.5,0.8c-0.5,0.9-0.9,1.7-2.8,1.6c-1-0.1-1.5-0.5-2-0.9c-0.4-0.3-0.7-0.5-1.3-0.7
			c-1.3-0.2-2.2,0.5-3.2,1.4c-0.9,0.8-1.9,1.5-3.1,1.7c-1.5,0.2-3.1,0.2-4.7,0.2c-0.9,0-1.8,0-2.7,0C72,114.2,71.9,114.2,71.7,114.2
			z M69.3,113.1c0.3,0,0.7,0,1.1,0.1c0.6,0.1,1.2,0.1,1.8,0.1l0,0c0.9,0,1.8,0,2.7,0c1.5,0,3.1,0,4.5-0.2c1-0.1,1.8-0.8,2.6-1.5
			c1.1-0.9,2.3-1.9,4.1-1.6c0.8,0.2,1.2,0.5,1.7,0.8s0.8,0.6,1.5,0.7c1.2,0.1,1.4-0.2,1.8-1.1c0.1-0.3,0.3-0.6,0.5-0.9
			c1.8-3,3.6-3.7,6.9-2.7l0.4,0.2c1.3,0.5,2.7,0.9,3.4,0.5c0.4-0.2,0.6-0.7,0.7-1.5c0.2-1.9-0.9-3-2.2-4.2c-0.5-0.5-1.1-1.1-1.6-1.7
			c-0.8-1.1-1.2-1.9-1.1-2.7c0.1-1,0.9-1.5,1.8-2.2c0.5-0.4,1.1-0.9,1.6-1.4c1.5-1.7,0.9-2.7,0-4.2c-0.3-0.5-0.7-1.1-1-1.8
			c-0.2-0.6-0.2-1.2-0.1-1.8c0-0.5,0.1-1-0.1-1.3c-0.3-0.8-0.8-1.1-1.6-1.4c-0.5-0.2-1-0.4-1.5-0.9c-1.7-1.4-2.1-3.7-2.4-5.7
			c-0.1-0.3-0.1-0.6-0.2-0.9c0-0.3-0.2-0.7-0.3-1.1c-0.3-1-0.5-1.7-0.4-2.2c0.2-0.9,0.8-1.5,1.4-2c0.4-0.3,0.7-0.7,0.9-1.1
			c0.3-0.4,0.3-0.8,0.4-1.1c0.1-0.6,0.3-1.2,1.1-2.1c0.8-0.9,1.9-1.2,3-1.5c0.2-0.1,0.4-0.1,0.6-0.2c2.7-0.7,2.7-0.9,2.5-2.9
			c0-0.4-0.1-0.8-0.1-1.3c-0.1-2.7,1.3-3.5,2.7-4.3c0.8-0.4,1.7-0.9,2.4-1.8c0.4-0.5,0.5-1,0.5-1.6c0.1-0.5,0.1-1.1,0.5-1.7
			c0.5-0.9,1.4-1.2,2.2-1.5c0.5-0.2,1-0.4,1.3-0.7c1.3-1.1,1.5-2.8,1.7-4.4c0.2-1.7,0.5-3.4,1.9-4.5c1.1-0.7,2.6-1.2,3.8-1.6
			c-3.3-2.2-5.4-4.3-5.4-9.4c0-4.7-1.5-9.5-4.1-12.9c-0.2-0.3-0.4-0.5-0.6-0.7c-0.6-0.7-1-1.2-1.1-2.7c0-0.4,0-0.8,0-1.1
			c0-0.7,0-1.2-0.2-1.8c-0.9-2.1-4.9-6.6-7.2-7.2c-0.8-0.2-1.7,0.1-2.7,0.4c-0.5,0.2-1.1,0.4-1.7,0.5c-0.4,0.1-0.9,0.1-1.5,0.2
			c-1.1,0.1-2.3,0.2-3.1,0.5c-0.8,0.3-1.3,0.8-1.5,1.6c-0.3,1.3,0.5,3,1.4,3.9l0.6,0.6c1.8,1.9,2.7,2.8,1.8,6
			c-0.5,1.9-1.4,3.1-2.5,3.5c-0.9,0.4-1.9,0.3-3-0.3c-0.6-0.3-1.4-1.2-2-1.9c-0.2-0.3-0.5-0.5-0.6-0.7c-0.8-0.8-1.7-1.5-2.8-2.2
			c-0.6-0.4-1.2-0.9-1.9-1.3c-1.6-1.2-3.2-2.4-4.8-2.9c-0.4-0.2-0.9-0.2-1.3-0.3c-0.7-0.1-1.4-0.2-2.1-0.6c-0.6-0.4-1-0.8-1.3-1.1
			c-0.5-0.5-0.9-0.8-1.5-1.2c-1.9-0.8-4.7-1.4-6.5-1.2c0,0.5,0.1,0.8,0.3,1.2c0.3,0.8,0.6,1.6-0.7,2.9c-1.2,1.1-2.5,1.1-3.8,1
			c-0.2,0-0.4,0-0.6,0c-2.8,0-4.2,1-5.9,2.4c-0.7,0.5-1.5,1.1-2.4,1.7l0-0.1c-1.5,0.9-1.5,0.9-1.6,2.6c0,0.3,0,0.7,0,1.1
			c0.1,1.1,0.1,2.6-1.2,3.3c-1.1,0.6-3.1,0.6-5.1,0.4c0.2,0.9,0.3,1.8,0.4,2.6c0.2,1.2,0.2,2,0.3,2.6c0.1,1.1,0.1,1.1,1.3,2.7
			l0.3,0.4c1.3,1.6,2.4,1.7,3.4,1.9c0.7,0.1,1.4,0.2,1.8,0.8c0.4,0.6,0.5,1.4,0.5,2.1c0.1,1.2,0.2,1.4,0.6,1.4c1.6,0,3.9,1,5.4,2.9
			c1.4,2,1.8,4,1,4.9c-0.4,0.5-0.7,0.8,0.5,2.5c1.1,1.5,0.1,2.6-1,3.7c-0.3,0.4-0.7,0.8-1.1,1.3c-1.8,2.1-5.5,4.7-10.7,7.7
			c-1.9,1.1-2.4,2-2.1,2.4c0.4,0.7,2.4,1,4.3,0.1c3.6-1.8,5.3-2.5,10.3-2.2c1.4,0.1,2.3,0.5,2.6,1.3c0.7,2.1-3.3,5.8-4.6,6.9
			c-2.3,2-2,3.8-1.7,6.4V75c0.1,0.6,0.1,1,0.2,1.5c0.3,1.9,0.5,3.3-0.4,4.5c-0.4,0.5-1,1.2-1.8,2c-1.3,1.3-3,3-3.9,4.7
			c-1.5,2.6-1.8,3.9-1.7,6.9c0,1-0.8,1.3-1.6,1.5c-0.7,0.2-1.4,0.5-2,1.2c-0.5,0.6-0.7,1.1-0.8,1.6c-0.2,0.7-0.5,1.4-1.8,2.2
			c-1.9,1.1-2.9,2.1-2.9,4.2c0,1.1-0.1,1.9-0.5,2.8c0.2,0.3,0.5,0.7,0.8,1.1c0.8,1,2.6,1.9,5,2.4c1.5,0.4,1.8,0,2.3-0.7
			c0.4-0.5,0.8-1.1,1.6-1.5c0.6-0.3,1.4-0.3,2.1-0.3c0.4,0,0.7,0,1,0c1.3-0.1,1.6-0.2,2.4-0.7c0.2-0.1,0.4-0.2,0.6-0.3
			c0.3-0.2,0.8-0.5,1.3-0.9c1.6-1.2,2.7-2,3.6-1.7c0.7,0.2,1.2,0.9,1.6,1.6c0.2,0.3,0.5,0.7,0.6,0.8c0.3,0.2,0.7,0.4,1.1,0.5
			c0.4,0.2,0.9,0.4,1.3,0.7c1.3,0.8,4,2.8,5.1,4c0,0,0.1,0,0.2,0C69,113.1,69.1,113.1,69.3,113.1z"/>
	</g>
</g>
</svg>
