<?xml version="1.0" encoding="utf-8"?>
<!-- Generator: Adobe Illustrator 28.0.0, SVG Export Plug-In . SVG Version: 6.00 Build 0)  -->
<svg version="1.1" id="_レイヤー_2" xmlns="http://www.w3.org/2000/svg" xmlns:xlink="http://www.w3.org/1999/xlink" x="0px"
	 y="0px" viewBox="0 0 120 120" style="enable-background:new 0 0 120 120;" xml:space="preserve">
<style type="text/css">
	.st0{fill:#F0E3D2;}
	.st1{fill:#D7323A;}
</style>
<g>
	<path class="st0" d="M113.5,88.4c-2.7-0.6-6.2-0.9-8.8-1.8c0.1,0.5-0.3,1.1-0.2,1.4c-2.2,0-4.1,0.4-5.9-1.1c-1.9-1.6-2.2-4-3.3-6
		c-1-1.8-4-2.4-4.6-4.1c-0.7-1.9,1.5-3.9,2.1-5.4c0.1,0.3,0.2,0.6,0.3,0.8c1.3-2.4,2.8-5.4,3.4-7.8c0.6-2.1-0.1-5.8,2.1-7
		c0-2.8,3.6-2.1,2.6-5.6C97.6,51,89.2,52,87.4,48c-0.6-1.3-0.1-5.6,0.5-6.8c1.4-2.9,3.7-1.7,2.6-5.5c-0.2-0.9-0.8-2.3-0.8-3.2
		c0.1-1.6,1.1-1.8,2.1-3c2.6-3.1,0.8-3.2-1.2-5.3c-2.1-2.2,0-4.1,1.9-5.9c0.8-0.8,1.2-1.4,1.3-2c-2.7,0.2-6.2-2-8.5-2.5
		c-2.4-0.6-5.4-0.1-7.6-1.1c-2.6-1.2-1.9-2.5-2.8-4.5c-0.7-1.6-7.7-8.3-9.5-8c-0.2,2.7-1.5,5-3.6,6.9C59.5,9,56.6,6.7,54,8
		c-3.2,1.7,0.4,4.6,0.7,6.9c0.5,3.8-2.2,2.9-5,3.2c-0.1,2.9,0.6,7.3-3,8.3c-3.9,1.1-4.7-1-5.8,3.3c-0.5,1.9-2.2,4.3-4.4,4.7
		c-1.2,0.3-2.2-0.4-3.3-0.4c-1.5,0-1.7,1.1-2.8,1.3c-0.3,0.1-0.7,0.1-0.9,0.1c-1.8,1.7-6.8,2-8.6,2.2c-0.6,3.1-4.5,1.4-6.8,1.9
		c-1.4,0.3-2,0.1-2.4,1.7c-0.4,1.6,1.5,2.5,1.2,3.8c-0.5,2.2-5.1,0.9-6.4,3c-0.7,1.1-0.5,2.1-1.4,3.2c-0.8,1-2.7,1.7-2.9,3.2
		c-0.1,1.2,0.8,2,0.7,3.2c-0.1,1-1,2.4-1.4,3.4c-1,2.2-1.7,4.8-1.2,7.3c0.7,3.4,3.6,1.9,5.9,3.4c1.3,0.9,1.5,2.1,3.1,2
		c0.2,0,0.8-1.1,1.3-1.1c0.7-0.1,1.3,0.1,2,0.2c2,0.1,1.3,0.5,3-0.8c1.3-1,0.3-1.1,2.4-1.4c3-0.3,5.3,0.7,5.7,3.6
		c0.3,2.1,0.1,4.6,0.2,6.7c0,0.9,0.3,3.1-0.2,3.9c-0.9,1.4-1.7,0.6-2.9,1.1c-1.5,0.7-1.2,0.1-1.4,1.8c-0.2,1.1,0.4,2.4,0.8,3.4
		c0.7,2.1,2.5,4.7,1.8,7.1c-0.5,1.8-0.2,0.9-1.9,1.6c-1.1,0.4-2.5-0.3-2.1,1.6c0.3,1.6,2.3,1.1,3.3,2c0.9,0.8,0.7,2.4,1.7,2.9
		c-2.6,0.9-0.3,5,0.2,6.3c0.3,0.9,0,2.4,0.5,3.1c0.4,0.5,2.6,1.7,3.3,2.6c0.5,0.6,1,1.1,1.5,1.6c0.5-0.2,1-0.4,1.4-0.7
		c1.5-0.9,1.8-1.7,2.6-3.2c1.4-2.7,2.2-2.3,5.4-2.3c1.5,0,2.2,0.1,3.3-0.7c1.1-0.8,1.3-2.7,2.3-3.4c2.2-1.6,5.7-0.6,7.9-2.5
		c1.3-1.1,1.7-2,3.3-2.7c1.4-0.7,2.9-1.1,4.3-1.8c3.3-1.7,2.4-3.2,3.3-6.4c0.9-3,3.4-4.9,5.7-7.1c1.4-1.3,1.4-2,3.3-1.9
		c1.3,0.1,3,1.1,4.3,1.6c2.7,1.1,4.8,1.9,7.8,1.9c1.3,0,2.7,0.3,3.9,0.3c1.4,0,2.3-0.5,3.7-0.3c1.2,0.1,2.5,1.2,3.3,1.9
		c1.3,1.1,2.2,1.4,3.5,2.2c2.7,1.7,4.2,3,7.8,2.3c3.4-0.6,3.9-3,7.5-1.7c2.9,1.1,4.3,0.4,6.9-0.2c-0.1-0.2-0.2-0.4-0.3-0.5
		C118.2,92,116.6,89.1,113.5,88.4z"/>
	<path class="st1" d="M30.4,118.5l-0.2-0.2c-0.5-0.5-1-1-1.5-1.6c-0.4-0.5-1.3-1.1-2-1.6s-1.1-0.8-1.3-1c-0.4-0.5-0.4-1.3-0.4-2
		c0-0.5,0-0.9-0.1-1.2c-0.1-0.2-0.2-0.4-0.3-0.6c-0.6-1.4-1.6-3.6-1-5.1c0.1-0.3,0.4-0.6,0.6-0.8c-0.3-0.4-0.4-0.8-0.5-1.2
		c-0.2-0.5-0.3-0.9-0.6-1.2c-0.3-0.3-0.8-0.4-1.3-0.5c-0.9-0.2-1.9-0.5-2.2-1.8c-0.1-0.7-0.1-1.2,0.2-1.5c0.3-0.4,0.9-0.5,1.4-0.5
		c0.3,0,0.6,0,0.8-0.1c0.6-0.2,1-0.3,1.2-0.3c0.1,0,0.1,0,0.2,0c0,0,0.1-0.3,0.2-0.7v-0.2c0.5-1.6-0.3-3.3-1-5
		c-0.3-0.6-0.6-1.2-0.7-1.8L21.6,89c-0.4-1-0.9-2.2-0.7-3.4c0-0.2,0-0.4,0.1-0.6c0.1-0.8,0.2-1,0.9-1.3c0.2-0.1,0.4-0.2,0.7-0.3
		c0.6-0.2,1-0.2,1.4-0.2c0.6,0,0.9,0,1.3-0.7c0.3-0.5,0.2-1.9,0.2-2.8c0-0.3,0-0.6,0-0.9c0-0.8,0-1.6,0-2.5c0-1.4,0-2.9-0.2-4.1
		c-0.4-3-3-3.4-5.2-3.2c-1.1,0.2-1.1,0.2-1.3,0.4c-0.1,0.2-0.3,0.5-0.9,0.9l-0.4,0.3c-1,0.8-1.1,0.8-2,0.7c-0.2,0-0.5-0.1-1-0.1
		c-0.2,0-0.4-0.1-0.6-0.1C13.4,71,13,70.9,12.6,71c-0.2,0-0.5,0.4-0.6,0.6c-0.3,0.3-0.5,0.5-0.8,0.5C10,72.3,9.5,71.6,8.9,71
		c-0.3-0.3-0.6-0.6-1-0.9c-0.8-0.5-1.6-0.6-2.5-0.8c-1.5-0.2-3.1-0.5-3.6-3c-0.5-2.3,0-4.8,1.2-7.6c0.1-0.3,0.3-0.7,0.5-1.1
		c0.4-0.7,0.8-1.5,0.8-2.1c0-0.5-0.1-0.9-0.3-1.4c-0.2-0.5-0.4-1.1-0.4-1.8c0.2-1.2,1.1-1.9,2-2.6c0.4-0.3,0.8-0.6,1-0.9
		c0.4-0.5,0.6-1,0.7-1.6c0.1-0.5,0.3-1,0.6-1.6c0.8-1.2,2.3-1.5,3.7-1.7c1.5-0.2,2.4-0.4,2.6-1.2c0.1-0.4-0.1-0.7-0.5-1.3
		s-1-1.5-0.7-2.5c0.4-1.6,1.1-1.8,2.2-2c0.2,0,0.4-0.1,0.6-0.1c0.8-0.2,1.7-0.1,2.6,0c2.1,0.1,3.5,0.2,3.8-1.5l0.1-0.4l1.1-0.1
		c2-0.2,6.1-0.6,7.6-2l0.1-0.1h0.2c0.2,0,0.5,0,0.7-0.1c0.4-0.1,0.6-0.3,0.9-0.5c0.4-0.4,1-0.8,2-0.8c0.5,0,1,0.1,1.4,0.3
		c0.6,0.2,1.1,0.3,1.7,0.2c1.9-0.3,3.5-2.5,4-4.3c0.8-3,1.5-3.3,3.3-3.3c0.7,0,1.6,0,2.8-0.4c2.7-0.7,2.6-3.7,2.6-6.4
		c0-0.5,0-1,0-1.5v-0.4h0.4c0.6-0.1,1.1-0.1,1.7-0.1c1.2,0,2.2,0,2.6-0.6c0.3-0.4,0.4-1,0.3-2c-0.1-0.7-0.5-1.4-0.9-2.2
		c-0.7-1.2-1.3-2.4-1-3.6c0.7-0.5,1.2-1,2-1.4c1.4-0.7,2.7-0.5,4-0.3c1.4,0.2,2.6,0.4,3.7-0.5c2.1-1.9,3.2-4.1,3.4-6.6v-0.4l0.4-0.1
		c2.2-0.4,9.3,6.7,10,8.3c0.3,0.6,0.4,1.2,0.5,1.7c0.3,1.1,0.4,1.8,2,2.5c1.2,0.5,2.6,0.6,4.2,0.7c1.1,0.1,2.3,0.1,3.4,0.4
		c0.9,0.2,1.9,0.6,3,1.1c1.8,0.7,3.8,1.5,5.3,1.4h0.6l-0.1,0.6c-0.1,0.7-0.5,1.4-1.4,2.3l-0.1,0.1c-1.2,1.2-2.5,2.3-2.5,3.5
		c0,0.5,0.2,1,0.7,1.6c0.4,0.4,0.8,0.8,1.2,1.1c1.5,1.3,2.3,2.2,0,4.9c-0.3,0.4-0.7,0.7-1,1c-0.6,0.5-1,0.9-1,1.8
		c0,0.5,0.2,1.2,0.5,1.9c0.1,0.4,0.3,0.8,0.3,1.1c0.7,2.4,0.1,3.1-1,4c-0.5,0.4-1.1,0.9-1.6,1.9c-0.5,1.1-1,5.2-0.5,6.4
		c1.2,2.6,5.8,2.9,9.5,3.1c1.5,0.1,2.9,0.2,4,0.4l0.3,0.1l0.1,0.3c0.6,2.3-0.5,3.1-1.3,3.8c-0.7,0.5-1.2,0.9-1.2,1.9v0.3l-0.3,0.1
		c-1.3,0.7-1.4,2.5-1.5,4.3c-0.1,0.9-0.1,1.7-0.3,2.4c-0.6,2.6-2.3,5.7-3.4,7.9l-0.5,0.8l-0.3-0.7c-0.1,0.2-0.3,0.4-0.4,0.6
		c-0.8,1.2-1.6,2.4-1.2,3.4c0.3,0.7,1.1,1.2,2,1.8c1,0.6,2,1.2,2.5,2.2c0.4,0.7,0.7,1.4,1,2.2c0.5,1.4,1.1,2.7,2.2,3.7
		c1.3,1.1,2.8,1.1,4.4,1c0.2,0,0.5,0,0.7,0c0-0.1,0-0.1,0.1-0.2c0.1-0.2,0.1-0.4,0.1-0.6l-0.2-0.9l0.8,0.3c1.6,0.6,3.6,0.9,5.5,1.2
		c1.1,0.2,2.2,0.4,3.2,0.6l0,0c3.3,0.7,5,3.8,6.5,6.5c0.1,0.1,0.2,0.3,0.3,0.6l0.3,0.6l-0.6,0.1c-0.4,0.1-0.8,0.2-1.1,0.3
		c-1.9,0.5-3.5,0.9-6.1-0.1c-2-0.7-2.9-0.2-4.1,0.5c-0.8,0.5-1.8,1-3.2,1.2c-3.4,0.7-5.1-0.4-7.4-1.9l-0.8-0.5
		c-0.4-0.3-0.8-0.5-1.1-0.7c-0.8-0.4-1.5-0.8-2.4-1.6c-0.6-0.6-1.9-1.7-3-1.8c-0.7-0.1-1.3,0-2,0.1c-0.5,0.1-1,0.2-1.7,0.2
		c-0.6,0-1.3-0.1-1.9-0.1c-0.7-0.1-1.3-0.2-2-0.2c-3,0-5.1-0.8-8-1.9c-0.4-0.2-0.8-0.4-1.3-0.6c-1-0.4-2-0.9-2.8-1
		c-1.2-0.1-1.4,0.2-2.1,0.9c-0.2,0.3-0.5,0.5-0.9,0.9c-0.4,0.3-0.7,0.7-1.1,1c-1.9,1.8-3.7,3.5-4.5,5.8c-0.2,0.8-0.3,1.5-0.4,2.2
		c-0.3,1.8-0.5,3.2-3.1,4.5c-0.7,0.4-1.5,0.6-2.2,0.9s-1.4,0.5-2.1,0.9c-1,0.4-1.5,0.9-2.1,1.6c-0.3,0.3-0.7,0.7-1.1,1.1
		c-1.3,1.1-2.9,1.3-4.4,1.5c-1.3,0.2-2.6,0.3-3.5,1c-0.4,0.3-0.7,0.8-0.9,1.4c-0.3,0.7-0.7,1.5-1.4,2c-1.1,0.8-1.9,0.8-3.2,0.8h-0.4
		c-0.4,0-0.8,0-1.1,0c-2.3,0-2.8,0-3.9,2l-0.2,0.4c-0.7,1.2-1.1,2.1-2.6,3c-0.4,0.3-0.9,0.5-1.5,0.7L30.4,118.5z M22,84.8
		c0,0,0,0.2,0,0.4c0,0.2,0,0.4-0.1,0.6c-0.2,0.9,0.3,2,0.6,2.9l0.1,0.3c0.2,0.6,0.4,1.1,0.7,1.8c0.8,1.7,1.7,3.7,1.1,5.7v0.2
		c-0.3,1.1-0.4,1.3-1.1,1.5c-0.2,0-0.5,0.1-1,0.3c-0.4,0.1-0.8,0.2-1.1,0.2c-0.3,0-0.6,0-0.7,0.1c0,0-0.1,0.2,0,0.7
		c0.1,0.6,0.6,0.8,1.4,1c0.6,0.1,1.2,0.3,1.7,0.7c0.5,0.5,0.7,1.1,0.9,1.7c0.2,0.5,0.3,1,0.7,1.2l1.1,0.5l-1.1,0.4
		c-0.4,0.1-0.6,0.3-0.8,0.6c-0.5,1.1,0.5,3.2,1,4.3c0.1,0.3,0.2,0.5,0.3,0.7c0.2,0.5,0.2,1,0.2,1.5s0,1.2,0.2,1.5
		c0.1,0.1,0.6,0.5,1.1,0.8c0.8,0.6,1.7,1.2,2.2,1.8c0.4,0.5,0.8,0.9,1.2,1.3c0.4-0.2,0.7-0.3,1-0.5c1.3-0.8,1.6-1.4,2.2-2.6L34,114
		c1.4-2.6,2.4-2.6,4.8-2.6c0.3,0,0.7,0,1.1,0h0.4c1.2,0,1.7,0,2.6-0.6c0.5-0.3,0.8-1,1-1.6c0.3-0.7,0.7-1.4,1.3-1.8
		c1.1-0.8,2.6-1,4-1.2c1.5-0.2,2.9-0.4,3.9-1.3c0.4-0.4,0.7-0.7,1.1-1c0.6-0.6,1.2-1.3,2.4-1.8c0.7-0.4,1.4-0.6,2.2-0.9
		c0.7-0.3,1.4-0.5,2.1-0.9c2.2-1.1,2.3-2.1,2.6-3.8c0.1-0.7,0.2-1.4,0.5-2.3c0.8-2.7,2.8-4.5,4.7-6.3c0.4-0.3,0.7-0.7,1.1-1
		c0.3-0.3,0.6-0.6,0.8-0.8c0.7-0.8,1.2-1.3,2.9-1.2c1,0.1,2.1,0.6,3.2,1.1c0.4,0.2,0.9,0.4,1.3,0.5c2.9,1.2,4.8,1.9,7.6,1.9
		c0.7,0,1.4,0.1,2.1,0.2c0.6,0.1,1.3,0.1,1.8,0.1c0.6,0,1-0.1,1.5-0.2c0.7-0.1,1.4-0.2,2.3-0.1c1.2,0.1,2.4,1,3.6,2
		c0.8,0.7,1.5,1.1,2.2,1.5c0.4,0.2,0.8,0.4,1.2,0.7l0.8,0.5c2.3,1.5,3.6,2.3,6.7,1.7c1.2-0.2,2.1-0.7,2.8-1.1
		c1.3-0.7,2.5-1.4,4.9-0.5c2.3,0.9,3.6,0.6,5.5,0.1c0.2,0,0.3-0.1,0.5-0.1c-1.5-2.7-3-5.3-5.8-6c-1-0.2-2-0.4-3.2-0.6
		c-1.7-0.3-3.5-0.6-5.1-1c0,0.1-0.1,0.2-0.1,0.3c0,0.1-0.1,0.3-0.1,0.3l0.2,0.7h-0.7c-0.4,0-0.8,0-1.1,0c-1.8,0.1-3.5,0.1-5.1-1.2
		c-1.4-1.2-2-2.7-2.5-4.1c-0.3-0.7-0.5-1.4-0.9-2c-0.4-0.8-1.3-1.3-2.2-1.9c-1-0.6-2.1-1.3-2.4-2.3c-0.6-1.5,0.5-3.1,1.3-4.3
		c0.3-0.5,0.7-1,0.8-1.4l0.5-1.3l0.3,1c1.5-2.8,2.4-5,2.8-6.7c0.2-0.6,0.2-1.4,0.3-2.2c0.1-1.8,0.3-3.9,1.8-4.9
		c0.1-1.3,0.9-1.9,1.6-2.5c0.8-0.6,1.4-1.1,1.1-2.4c-0.9-0.2-2.2-0.2-3.5-0.3c-4-0.2-8.9-0.5-10.3-3.7c-0.7-1.5-0.2-5.9,0.5-7.2
		c0.6-1.2,1.3-1.8,1.9-2.2c0.8-0.6,1.2-0.9,0.6-2.9c-0.1-0.3-0.2-0.7-0.3-1.1c-0.2-0.8-0.5-1.6-0.5-2.3c0.1-1.3,0.7-1.9,1.4-2.5
		c0.3-0.2,0.6-0.5,0.9-0.9c1.7-2.1,1.4-2.4,0.1-3.5c-0.4-0.3-0.8-0.7-1.2-1.2c-0.7-0.7-1-1.5-1-2.3c0-1.6,1.5-2.9,2.8-4.2l0.1-0.1
		c0.4-0.4,0.7-0.8,0.9-1.1c-1.6-0.1-3.4-0.8-5-1.5c-1-0.4-2-0.8-2.8-1c-1-0.2-2.1-0.3-3.2-0.4c-1.6-0.1-3.2-0.2-4.5-0.8
		c-2-0.9-2.3-2-2.6-3.2c-0.1-0.5-0.2-1-0.5-1.5c-0.7-1.7-6.7-7.1-8.6-7.7c-0.3,2.5-1.6,4.8-3.7,6.7c-1.4,1.2-3,1-4.5,0.8
		c-1.2-0.2-2.4-0.3-3.4,0.2c-0.5,0.3-0.9,0.6-1,1c-0.2,0.8,0.4,1.8,0.9,2.8c0.5,0.8,0.9,1.7,1.1,2.6c0.2,1.3,0,2.2-0.5,2.8
		c-0.7,0.9-2,0.9-3.3,0.9c-0.4,0-0.8,0-1.2,0c0,0.3,0,0.6,0,1c0,2.8,0,6.4-3.4,7.3c-1.3,0.4-2.4,0.4-3.1,0.4c-1.4,0-1.7,0-2.4,2.5
		c-0.6,2.1-2.4,4.6-4.8,5.1c-0.8,0.2-1.5,0-2.2-0.2c-0.4-0.1-0.8-0.2-1.2-0.2c-0.7,0-1,0.3-1.4,0.6c-0.3,0.3-0.7,0.6-1.3,0.7
		c-0.2,0.1-0.6,0.1-0.8,0.1c-1.8,1.5-5.8,1.9-8,2.1h-0.4c-0.6,2.2-2.9,2-4.8,1.9c-0.9-0.1-1.7-0.1-2.3,0c-0.2,0.1-0.5,0.1-0.7,0.1
		c-0.9,0.2-1.1,0.2-1.4,1.2c-0.4,0.5,0,1,0.3,1.5c0.4,0.6,0.8,1.3,0.6,2.1c-0.3,1.5-1.9,1.7-3.4,1.9c-1.2,0.2-2.5,0.4-3,1.2
		c-0.3,0.4-0.4,0.9-0.5,1.3c-0.2,0.6-0.4,1.3-0.9,1.9c-0.3,0.4-0.8,0.7-1.2,1.1c-0.7,0.5-1.5,1.1-1.6,1.9c0,0.5,0.1,0.9,0.3,1.3
		c0.2,0.5,0.4,1.1,0.4,1.8c-0.1,0.8-0.5,1.6-0.9,2.5c-0.2,0.4-0.4,0.7-0.5,1.1c-1.2,2.6-1.6,5-1.2,7c0.4,1.8,1.3,1.9,2.8,2.2
		c0.9,0.1,1.9,0.3,2.9,0.9C9,69.6,9.3,70,9.6,70.3c0.5,0.5,0.8,0.9,1.5,0.9c0-0.1,0.1-0.1,0.2-0.2c0.3-0.4,0.8-0.9,1.3-0.9
		c0.5-0.1,1,0,1.5,0.1c0.2,0,0.3,0.1,0.5,0.1c0.5,0,0.8,0.1,1,0.1c0.5,0.1,0.5,0.1,1.2-0.5l0.4-0.3c0.4-0.3,0.5-0.5,0.7-0.7
		c0.4-0.5,0.7-0.6,2-0.8c3.6-0.4,5.9,1.1,6.3,4c0.2,1.3,0.2,2.8,0.2,4.3c0,0.8,0,1.7,0,2.5c0,0.2,0,0.5,0,0.8
		c0.1,1.4,0.1,2.7-0.3,3.4c-0.7,1.1-1.5,1.1-2.1,1.1c-0.3,0-0.7,0-1,0.2s-0.6,0.3-0.8,0.3C22.1,84.7,22,84.8,22,84.8L22,84.8z
		 M11.3,71.2C11.3,71.2,11.2,71.2,11.3,71.2C11.2,71.2,11.3,71.2,11.3,71.2L11.3,71.2z"/>
</g>
</svg>
