<?xml version="1.0" encoding="utf-8"?>
<!-- Generator: Adobe Illustrator 28.0.0, SVG Export Plug-In . SVG Version: 6.00 Build 0)  -->
<svg version="1.1" id="_レイヤー_2" xmlns="http://www.w3.org/2000/svg" xmlns:xlink="http://www.w3.org/1999/xlink" x="0px"
	 y="0px" viewBox="0 0 120 120" style="enable-background:new 0 0 120 120;" xml:space="preserve">
<style type="text/css">
	.st0{fill:#F0E3D2;}
	.st1{fill:#D7323A;}
</style>
<g>
	<path class="st0" d="M9.4,97.2c0.6,0.2,1,1.1,1.6,0.8c0.9-0.4,0.1-1.3,0.4-2c0.9-1.7,3.2-1.4,4.1-0.5c0.5,0.4,0.5,1.2,1.4,1.6
		c0.8,0.3,1.5,0.4,2.3,0.3c0.6-0.1,1.4-0.6,2.1-0.7c1.1-0.1,1.3,0.1,2.3,0.4c1.9,0.4,4.2,0.1,6.2-0.1c0.4-0.1,2-0.5,2.3-0.8
		c0.5-0.6,0.2-1.5,0.7-2.1c1-1.1,3.2-0.7,4.6-0.5c0,1.7,0.4,1.7,1.7,2.3c1.5,0.6,2.2,1.8,3.5,2.7c0.7,0.4,1.5,0.9,2.3,0.8
		c1.2-0.1,0.8-0.6,1.7-0.9c1.8-0.7,2.6,0.5,4.1,1c2.3,0.8,2.9-0.8,4.7-1.5c1.3-0.5,2.6-0.2,3.8-1.1s2.3-1.8,3.2-3.1
		c1.1-1.7,1.5-2.2,3.8-2c-0.1,1.1-0.3,5.4,0.4,5.9c1.6,1.3,4.5-0.6,6.3,1.1c1,1,1.9,4.2,1.2,5.6c-0.4,0.8-1.5,1-2,1.9
		c-0.4,0.7-0.7,1.9-0.9,2.6c-0.5,2-0.4,4.8,1.5,6.1c2,1.4,4.4-0.2,6-1.3c0.8-0.5,1.9-1,2.5-1.9c0.7-1.1,0.5-2,1.6-2.8
		c1.2-0.9,2.6-0.7,3.8-1.3c1.2-0.5,2.1-1.4,3.3-1.8c1.6-0.5,3-1.2,4.6-1.8c0.6-0.2,1-0.3,1.6-0.3c1.6-0.1,1.2,0.3,2,1
		c3.6,2.9,4.9-3.5,8.6-2.1c1.4,0.5,2.3,1.8,4.2,1.3c2.2-0.6,1.3-2.6,2.5-4.2c1.1-1.4,4.2-1.2,5.8-1.5c0.2,0,0.4-0.1,0.6-0.1
		c-2.7-3.7-5.1-7-5.7-7.7c-0.9-1.1-2-1.6-3.8-1.3c-1.8,0.3-3.7-2.3-4.5-3.6c-6.6-10.9-5.9-32.7-5.5-49.4c0.1-4.3,2.9-14.1,4.3-17.7
		s-0.8-3.9-2-2.4C99.4,20.3,94.4,21,91,20s-6.1-4.6-7.7-6.8s-4.7-3.5-6.4-3.5c-1.6,0.1-3.4-1.1-5.6-3.8s-3-1.6-3,1.1s-0.5,4-2.6,6
		c-3.6,3.4-2.6,6.4-3.3,8.8s-1.5,6-1.7,9s-1.5,3.9-1.6,6.4c-0.2,2.4,2.4,3.1,3.6,2.4c1.1-0.7,1.6-2.2,2.8-2.8
		c1.1-0.5,1.9-0.6,3.1-0.7c1.2-0.1,2.4-0.3,3.6-1.2s2.4-1.3,3.7-0.5c1.4,0.7,2.6,0.8,3.3-0.2c0.7-1,2.4-1.6,3.9-2.5
		c1.4-0.9,0.6-1.4,1.7-3.5s2.7-1,3.6,0s1.8,2.4,3.5,5.7s0.6,4.9-0.4,6.6c-1,1.6-1.1,4-1.4,5.7c-0.2,1.7,0,4.4-0.6,6.6
		c-0.6,2.2-3.5,6.4-5.1,7.8c-1.6,1.4-2.4,0.7-3.8-0.8s-1.2-1.7-2.6-2.2s-2.2-1.2-3.4-1.6c-1.2-0.4-1-1.6-1.2-2.5s-2-1.7-4-3
		s-2.8-0.2-3.4,1s-0.9,2.3-0.1,3.6c0.7,1.3,0.4,2.8-0.4,4.9c-0.9,2.2-2.3,4.4-5.6,4.8s-5.3-2.3-6.2-5.2s-2-12.4-2.3-14.7
		c-0.3-2.3-0.2-4.1-0.1-7.1c0.1-3-0.7-3-1.6-4.1c-0.9-1.1-1.1-1.7-3.3-2.1s-2.5,1.1-3.2,1.8s-1.3,2-3.3,1.6s-3-1.8-4.3-3.6
		c-1.3-1.8-2.5-2.8-3.9-2.2c-1.5,0.6-0.7,2.1-0.6,3.8s0.2,3.4-0.5,4.6c-0.7,1.2-2.2,1.6-3.5,2c-1.2,0.4,0.2,1,1.2,1.4
		c1,0.5,1.7,1.5,2.2,3.4c0.5,1.8-0.6,9-0.9,11.7c-0.3,2.6-2.2,8.7-2.7,9.9c-0.5,1.2-1.9,2.3-3.1,2.6c-1.2,0.4-2.3,0.4-3.4,1.6
		s-2.8,1.9-4,1.7c-1.2-0.2-1.8-1.4-3.2-1.7c-1.3-0.4-2.6,1.2-3.7,2s-1.6,2.6-2,3.9s-1.6,2.2-2.9,3.6s-2.7,1.8-3.8,2.8
		c-1.3,1-0.6,2.6,1.3,2.6c1.8,0,2.3,0.4,2.9,1.4s1.4,3.8,1.3,5.9c-0.1,2-0.8,3.1-0.7,5.1C6.6,96.9,7.8,96.6,9.4,97.2z"/>
	<path class="st1" d="M76.4,114.1c-0.7,0-1.4-0.2-2-0.6c-2.1-1.4-2.2-4.5-1.7-6.6l0.1-0.3c0.2-0.7,0.5-1.7,0.9-2.4
		c0.3-0.6,0.8-0.9,1.2-1.2c0.3-0.2,0.6-0.4,0.8-0.7c0.6-1.2-0.2-4.1-1.1-5c-0.8-0.7-1.9-0.6-3-0.5s-2.3,0.2-3.2-0.5
		c-0.9-0.6-0.7-4.4-0.6-5.8c-1.6-0.1-1.9,0.4-2.8,1.8c-1,1.4-2.2,2.4-3.3,3.2c-0.8,0.6-1.7,0.7-2.5,0.9c-0.5,0.1-1,0.1-1.4,0.3
		c-0.5,0.2-1,0.5-1.4,0.8c-0.9,0.7-1.9,1.3-3.7,0.7c-0.5-0.2-0.9-0.4-1.3-0.6c-0.8-0.5-1.4-0.8-2.4-0.4c-0.3,0.1-0.4,0.2-0.5,0.3
		c-0.3,0.3-0.5,0.5-1.4,0.6s-1.8-0.4-2.5-0.8L44.4,97c-0.6-0.4-1-0.8-1.4-1.2c-0.6-0.6-1.2-1.1-2-1.5l-0.4-0.2
		c-1-0.5-1.6-0.8-1.6-2.2c-1.2-0.2-3-0.4-3.7,0.4c-0.1,0.2-0.2,0.5-0.2,0.8C35,93.5,35,94,34.6,94.4c-0.2,0.2-0.4,0.4-2.6,1
		l-0.6,0.1c-1.9,0.2-4,0.4-5.8,0c-0.3-0.1-0.5-0.1-0.6-0.2c-0.6-0.2-0.8-0.3-1.5-0.2c-0.3,0-0.7,0.2-1,0.3c-0.4,0.2-0.7,0.3-1.1,0.4
		c-0.9,0.1-1.7,0-2.6-0.3c-0.7-0.3-1-0.8-1.2-1.2c-0.1-0.2-0.2-0.4-0.3-0.5c-0.4-0.4-1.2-0.7-2-0.6c-0.4,0.1-1,0.3-1.3,0.9
		c0,0.1,0,0.3,0,0.6c0.1,0.4,0.2,1.3-0.7,1.7c-0.6,0.3-1.2-0.1-1.5-0.4c-0.2-0.1-0.3-0.3-0.5-0.3l0,0C10.1,95.2,9,95.3,7.9,96
		l-0.7,0.4v-0.8c-0.1-1.2,0.1-2.1,0.3-2.9c0.2-0.7,0.3-1.4,0.4-2.2c0.1-2-0.7-4.7-1.2-5.6c-0.5-0.8-0.8-1.2-2.5-1.2
		c-1.2,0-2.1-0.5-2.4-1.4c-0.3-0.7,0-1.5,0.8-2.1c0.5-0.4,1-0.8,1.6-1.1c0.7-0.4,1.5-0.9,2.2-1.6c0.3-0.4,0.7-0.7,1-1
		c0.7-1,1.4-1.7,1.6-2.5l0.1-0.2c0.4-1.4,0.9-3.1,2.1-3.9c0.3-0.2,0.5-0.4,0.8-0.6c1-0.8,2.1-1.8,3.4-1.4c0.8,0.2,1.4,0.6,1.9,1
		c0.4,0.3,0.8,0.6,1.3,0.7c1.1,0.2,2.6-0.5,3.5-1.5s1.9-1.3,2.8-1.5c0.3-0.1,0.5-0.1,0.8-0.2c1.1-0.3,2.4-1.3,2.8-2.3
		c0.5-1.2,2.4-7.3,2.7-9.8c0.1-0.5,0.2-1.3,0.3-2.1c0.4-3,1-8.1,0.7-9.4c-0.4-1.7-1-2.6-1.9-3.1c-1.1-0.4-2-0.8-1.9-1.5
		c0-0.4,0.3-0.6,0.8-0.8l0.2-0.1c1.2-0.4,2.4-0.7,3-1.7c0.6-1.1,0.5-2.7,0.4-4.3c0-0.4-0.1-0.8-0.2-1.2c-0.2-1.2-0.4-2.5,1.1-3.1
		c1.9-0.8,3.3,0.7,4.5,2.4c1.3,1.8,2.2,3,4,3.4c1.4,0.3,1.9-0.4,2.5-1c0.1-0.2,0.3-0.3,0.4-0.4c0.1-0.1,0.3-0.3,0.4-0.5
		c0.5-0.7,1.2-1.8,3.3-1.4c2,0.4,2.5,0.9,3.3,1.9c0.1,0.1,0.2,0.2,0.3,0.4c0.2,0.2,0.3,0.4,0.5,0.5c0.8,0.8,1.3,1.5,1.2,3.9V37
		c-0.1,2.5-0.1,4.2,0.1,6.2l0.2,1.3c0.4,3.5,1.4,10.8,2.1,13.3c0.5,1.6,2,5.3,5.7,4.9c3.1-0.4,4.4-2.5,5.2-4.5
		c0.9-2.2,1-3.5,0.4-4.5c-0.9-1.5-0.5-2.9,0.1-4.1c0.4-0.8,0.9-1.6,1.7-1.8c0.7-0.2,1.5,0,2.4,0.6c0.5,0.3,1,0.6,1.5,0.9
		c1.5,0.9,2.5,1.5,2.7,2.4c0,0.2,0.1,0.5,0.1,0.7c0.1,0.8,0.2,1.2,0.8,1.4c0.6,0.2,1.2,0.5,1.7,0.8s1,0.6,1.7,0.8
		c1.1,0.4,1.3,0.6,2,1.4c0.2,0.2,0.5,0.5,0.8,1c1.5,1.6,1.9,1.8,3.1,0.8c1.6-1.4,4.4-5.5,4.9-7.6c0.4-1.4,0.4-3,0.5-4.4
		c0-0.8,0-1.5,0.1-2.1c0.1-0.4,0.1-0.8,0.2-1.3c0.2-1.6,0.5-3.3,1.3-4.6l0.1-0.2c1-1.6,1.8-3,0.3-5.9c-1.8-3.5-2.6-4.7-3.4-5.6
		c-0.6-0.7-1.3-1.1-1.8-1c-0.4,0-0.7,0.4-1,0.9c-0.4,0.8-0.5,1.4-0.6,1.8c-0.1,0.7-0.3,1.2-1.2,1.9c-0.5,0.3-1,0.5-1.4,0.8
		c-1,0.5-1.9,1-2.3,1.6c-0.6,0.8-1.7,1.5-3.9,0.4c-1-0.6-1.9-0.5-3.2,0.5c-1.4,1-2.7,1.2-3.9,1.3c-1.1,0.1-1.9,0.2-2.9,0.7
		c-0.5,0.3-0.9,0.8-1.3,1.3c-0.9,0-1.3,0.5-1.9,0.9c-0.9,0.5-2.1,0.4-3.1-0.2c-0.9-0.6-1.4-1.5-1.3-2.7c0.1-1.3,0.4-2.2,0.8-3.1
		c0.4-0.9,0.7-1.8,0.8-3.3c0.2-3.1,1-6.7,1.7-9.1c0.2-0.6,0.2-1.3,0.3-2c0.2-2,0.4-4.4,3.1-7c1.9-1.8,2.4-3,2.4-5.6
		c0-1.8,0.4-2.8,1.1-3.1c0.8-0.3,1.6,0.3,2.8,1.7c2.1,2.5,3.8,3.7,5.2,3.6l0,0c1.8,0,5.1,1.3,6.8,3.7c1.3,1.8,4.1,5.6,7.4,6.6
		s8.1,0.2,11.1-3.7c0.8-0.9,1.8-1.3,2.6-0.9c0.4,0.2,1.3,1.1,0.3,3.7c-1.4,3.7-4.2,13.4-4.3,17.5v1.2c-0.4,16.7-0.9,37.4,5.5,47.9
		c1,1.7,2.7,3.6,4,3.4c1.9-0.3,3.2,0.1,4.3,1.5c0.6,0.6,2.6,3.5,5.1,6.8l1.2,1.7h-1c0,0-0.1,0-0.2,0s-0.3,0.1-0.4,0.1
		c-0.4,0.1-0.9,0.1-1.5,0.2c-1.5,0.1-3.3,0.3-3.9,1.1c-0.4,0.5-0.5,1.2-0.7,1.8c-0.2,1-0.5,2.2-2.1,2.6c-1.5,0.4-2.5-0.2-3.4-0.7
		c-0.4-0.2-0.7-0.4-1.1-0.6c-1.5-0.5-2.4,0.3-3.6,1.3c-1.3,1.1-2.9,2.5-5.2,0.7c-0.3-0.3-0.4-0.5-0.6-0.6c-0.2-0.2-0.2-0.3-1.1-0.3
		c-0.6,0-0.9,0.1-1.5,0.3c-0.6,0.2-1.2,0.5-1.8,0.7c-0.9,0.4-1.8,0.8-2.8,1.1c-0.6,0.2-1.1,0.5-1.7,0.9c-0.5,0.3-1,0.7-1.6,0.9
		c-0.5,0.3-1.1,0.4-1.7,0.5c-0.7,0.1-1.4,0.3-2,0.7c-0.6,0.4-0.7,0.8-0.9,1.4c-0.1,0.4-0.3,0.8-0.6,1.3c-0.5,0.8-1.4,1.3-2.2,1.8
		c-0.2,0.1-0.3,0.2-0.5,0.3C79.8,112.9,78.2,114.1,76.4,114.1z M72.7,95.5c0.9,0,1.8,0.2,2.6,0.9c1.1,1.1,2.1,4.5,1.3,6.2
		c-0.3,0.5-0.7,0.8-1.1,1.1c-0.4,0.2-0.7,0.5-0.9,0.8c-0.3,0.6-0.6,1.5-0.8,2.2l-0.1,0.3c-0.5,1.8-0.4,4.4,1.3,5.5
		c1.6,1.1,3.6,0,5.4-1.3c0.2-0.1,0.4-0.2,0.5-0.3c0.7-0.4,1.4-0.8,1.8-1.4c0.2-0.4,0.4-0.7,0.5-1.1c0.2-0.6,0.4-1.3,1.2-1.9
		c0.8-0.6,1.6-0.8,2.4-0.9c0.5-0.1,1-0.2,1.5-0.4c0.5-0.2,1-0.5,1.5-0.8c0.6-0.4,1.2-0.8,1.9-1c1-0.3,1.8-0.7,2.7-1.1
		c0.6-0.3,1.2-0.5,1.8-0.7c0.7-0.2,1.1-0.3,1.8-0.3c1.2-0.1,1.5,0.1,1.9,0.7c0.1,0.1,0.2,0.3,0.4,0.5c1.5,1.2,2.4,0.6,3.9-0.7
		c1.2-1.1,2.6-2.2,4.6-1.5c0.5,0.2,0.9,0.4,1.3,0.7c0.8,0.5,1.5,0.9,2.6,0.6c1-0.3,1.2-0.9,1.4-1.9c0.1-0.7,0.3-1.4,0.8-2.1
		c1-1.2,3-1.4,4.7-1.5c0.5,0,0.9-0.1,1.3-0.1l-0.2-0.2c-2.4-3.3-4.5-6.1-5-6.8c-0.9-1.1-1.8-1.4-3.3-1.1c-2.2,0.4-4.2-2.6-5-3.8
		c-6.5-10.8-6-31.6-5.6-48.4v-1.2c0.1-4.4,2.9-14.2,4.3-17.9c0.7-1.7,0.4-2.4,0.2-2.5c-0.3-0.2-0.8,0-1.3,0.6
		c-3.3,4.3-8.5,5.1-12.1,4.1c-3.7-1.1-6.5-4.9-8-7s-4.5-3.3-6-3.3c-1.8,0.1-3.7-1.2-6-4c-1.2-1.5-1.7-1.4-1.7-1.4s-0.4,0.2-0.4,2.2
		c0,2.9-0.6,4.3-2.8,6.4c-2.5,2.3-2.6,4.4-2.8,6.4c-0.1,0.8-0.1,1.5-0.3,2.2c-0.7,2.3-1.5,5.9-1.7,8.9c-0.1,1.6-0.5,2.7-0.9,3.6
		c-0.4,0.9-0.7,1.6-0.7,2.8c-0.1,1,0.4,1.5,0.8,1.8c0.7,0.4,1.6,0.4,2,0.2c0.4-0.3,0.8-0.7,1.1-1.2c0.5-0.6,1-1.2,1.7-1.6
		c1.2-0.5,2.1-0.6,3.3-0.8c1.3-0.1,2.3-0.3,3.3-1.1c1-0.7,2.5-1.6,4.3-0.5c1.9,1,2.5,0.2,2.6-0.1c0.6-0.8,1.6-1.3,2.7-1.9
		c0.5-0.2,0.9-0.5,1.4-0.7c0.6-0.4,0.7-0.6,0.8-1.2c0.1-0.5,0.2-1.1,0.7-2.1c0.5-0.9,1.1-1.4,1.8-1.5c1.1-0.1,2.1,0.8,2.6,1.3
		c1,1.1,2,2.7,3.6,5.8c1.8,3.4,0.7,5.3-0.3,6.9l-0.1,0.2c-0.7,1.2-0.9,2.8-1.1,4.3c-0.1,0.4-0.1,0.9-0.2,1.3c-0.1,0.5-0.1,1.2-0.1,2
		c0,1.5-0.1,3.2-0.5,4.7c-0.6,2.3-3.5,6.5-5.3,8c-2,1.8-3.2,0.5-4.5-0.8c-0.4-0.4-0.7-0.7-0.9-1c-0.5-0.6-0.6-0.8-1.5-1.1
		c-0.7-0.3-1.3-0.6-1.9-0.9c-0.5-0.3-1-0.5-1.5-0.7c-1.2-0.4-1.4-1.5-1.4-2.3c0-0.2,0-0.4-0.1-0.6c-0.1-0.5-1.1-1.1-2.3-1.7
		c-0.5-0.3-1-0.6-1.5-0.9c-0.6-0.4-1.2-0.6-1.6-0.5c-0.5,0.1-0.8,0.7-1.1,1.3c-0.6,1.2-0.8,2-0.1,3.1c0.8,1.5,0.5,3.2-0.4,5.3
		c-0.9,2.2-2.4,4.7-6,5.1c-3,0.4-5.5-1.7-6.7-5.5c-0.8-2.5-1.7-9.9-2.2-13.5L52.9,43c-0.3-2.1-0.2-3.8-0.1-6.4v-0.8
		c0.1-2.2-0.3-2.6-0.9-3.2c-0.2-0.2-0.4-0.4-0.6-0.6c-0.1-0.1-0.2-0.3-0.3-0.4c-0.6-0.8-0.9-1.2-2.7-1.5c-1.4-0.3-1.8,0.3-2.3,1
		c-0.2,0.2-0.3,0.5-0.5,0.6c-0.1,0.1-0.2,0.2-0.3,0.4c-0.6,0.7-1.5,1.7-3.4,1.4c-2.2-0.4-3.3-2-4.6-3.8c-1.4-1.9-2.3-2.5-3.3-2.1
		c-0.7,0.3-0.7,0.7-0.5,2c0.1,0.4,0.1,0.8,0.2,1.3c0.1,1.7,0.2,3.5-0.6,4.9c-0.8,1.3-2.3,1.8-3.6,2.2h-0.1c0.2,0.1,0.5,0.3,1.1,0.5
		c1.2,0.6,2,1.8,2.5,3.7c0.4,1.4-0.1,5.5-0.6,9.8c-0.1,0.8-0.2,1.5-0.3,2.1c-0.3,2.6-2.2,8.8-2.7,10c-0.5,1.3-2,2.5-3.4,2.9
		c-0.3,0.1-0.5,0.2-0.8,0.2c-0.8,0.2-1.6,0.4-2.3,1.2c-1.2,1.3-3.1,2.1-4.5,1.9c-0.7-0.1-1.2-0.5-1.7-0.9s-0.9-0.7-1.5-0.8
		c-0.8-0.2-1.6,0.5-2.4,1.2c-0.3,0.3-0.6,0.5-0.9,0.7c-0.9,0.8-1.4,2.4-1.8,3.5v0.2c-0.3,1.1-1.1,1.9-2.1,2.8
		c-0.3,0.3-0.6,0.6-0.9,1c-0.8,0.9-1.6,1.4-2.4,1.8c-0.5,0.3-1,0.6-1.5,1c-0.4,0.3-0.6,0.7-0.5,1s0.6,0.7,1.4,0.7
		c2,0,2.6,0.5,3.3,1.6c0.6,1.1,1.5,3.9,1.4,6.2c0,0.9-0.2,1.7-0.4,2.4C8.2,93.3,8,93.9,8,94.6c1.1-0.4,2.2-0.4,3.5,0
		c0.3,0.1,0.6,0.3,0.8,0.5c0.1,0.1,0.3,0.3,0.4,0.3c0.2-0.1,0.2-0.1,0.1-0.6c-0.1-0.3-0.1-0.8,0-1.2c0.4-0.8,1.2-1.4,2.1-1.5
		c1-0.2,2.2,0.2,2.8,0.8c0.2,0.2,0.4,0.5,0.5,0.7c0.2,0.3,0.3,0.6,0.7,0.8c0.7,0.3,1.3,0.4,2,0.3c0.2,0,0.5-0.2,0.8-0.3
		c0.4-0.2,0.8-0.3,1.3-0.4c1-0.1,1.4,0,2,0.2c0.2,0.1,0.3,0.1,0.5,0.2c1.6,0.3,3.6,0.1,5.4-0.1l0.6-0.1c1.7-0.4,2-0.6,2-0.7
		c0.1-0.1,0.2-0.4,0.2-0.8c0.1-0.4,0.1-0.9,0.5-1.3c1.1-1.2,3.3-0.9,4.8-0.7l0.7,0.1v0.4c0,1.2,0.1,1.3,1.1,1.7l0.4,0.2
		c1,0.4,1.7,1,2.3,1.7c0.4,0.4,0.8,0.8,1.3,1.1l0.1,0.1c0.6,0.3,1.3,0.7,1.9,0.7c0.5,0,0.6-0.1,0.7-0.3c0.2-0.2,0.4-0.4,0.9-0.6
		c1.4-0.6,2.4,0,3.3,0.5c0.4,0.2,0.7,0.4,1.1,0.5c1.3,0.5,1.9,0,2.8-0.6c0.4-0.3,0.9-0.7,1.6-0.9c0.6-0.2,1.1-0.3,1.7-0.4
		c0.8-0.1,1.4-0.2,2-0.7c1.1-0.8,2.2-1.7,3.1-3c1.1-1.7,1.7-2.4,4.3-2.2h0.5v0.5c-0.2,1.8-0.2,5,0.2,5.5c0.6,0.5,1.5,0.4,2.5,0.3
		C71.8,95.6,72.2,95.5,72.7,95.5z"/>
</g>
</svg>
