<?xml version="1.0" encoding="utf-8"?>
<!-- Generator: Adobe Illustrator 28.0.0, SVG Export Plug-In . SVG Version: 6.00 Build 0)  -->
<svg version="1.1" id="_レイヤー_2" xmlns="http://www.w3.org/2000/svg" xmlns:xlink="http://www.w3.org/1999/xlink" x="0px"
	 y="0px" viewBox="0 0 120 120" style="enable-background:new 0 0 120 120;" xml:space="preserve">
<style type="text/css">
	.st0{fill:#F0E3D2;}
	.st1{fill:#D7323A;}
</style>
<g>
	<path class="st0" d="M101.4,39c-0.6-2.9-3.6-4.7-5.1-7.1c-1.5-2.5-3.5-4.6-4.6-7.3c-0.6-1.3-0.8-3.3-2-4.3c-1.1-0.9-3-0.6-3.8-2.1
		c-1.5-3,1.3-5.7-4.3-5.5c-1.9,0-3.6,0.1-3.9,2.1c-0.3,2.3,1.5,1.7,2.2,3.2c1.1,2.5-1.5,5.8-3.9,3.8c-1-0.8-1-2.4-2.6-3.2
		c-1.5-0.8-2.2-0.6-3.1-2.1c-1.3-2.1-0.7-6.2-2.8-7.9c-1.5-1.2-5.3-1.1-7.2-1.2c-1.3-0.1-2.8,0-3.9-0.9C55,5.3,55.5,4.8,55,3.2
		c-0.6-1.7-1.4-2.3-2.9-2.9c-0.4-0.2-0.8-0.2-1.3-0.3c-0.9,0.9-1.5,2.1-1.3,4.1c0.2,1.9,1.1,3,1.3,4.8c0.3,2-0.6,3.8-0.3,5.7
		c2.4,1.1,4,2.3,6.6,3c2.3,0.7,5,1,6.3,3.3c-3,1.7-1.9,1.8-2.2,4.6c-0.2,2-1.3,3.3-1.7,5.5c-0.3,1.5-0.3,4.5,0.1,6
		c0.8,2.8,3.5,3.4,4.7,5.7c4.5,8.5-4.1,10.7-9.8,14.5c1.1,1.9,2.1,4.4,3.1,7.5c2.9,8.4-1.5,16.7-4.2,21.8
		c-2.7,5.1-10.6,13.2-13.3,16s-5.2,5.1-13.3,7.8c-3.5,1.2-6.1,2.2-8.2,3.2c0.3,2.1,0,4.5,1.8,5.7c3.1,2.1,7.2-0.6,9.3-2.1
		c3.3-2.5,6.9-3,11-3.9c3.4-0.8,6.3-2.3,9.8-2.6c4.2-0.3,7.4-1.1,11.4-2.3c1.7-0.5,2.8-1.1,4.7-0.9c2.1,0.3,2.7,1.5,4.7,1.9
		c4.2,0.9,6.3-4,9.7-5.4c3.8-1.5,6.4,0.5,9.4-3.2c1.2-1.5,1.4-3.3,2.1-4.9s1.5-3,2.1-4.8c1.3-3.8-0.1-6.7-1.7-9.9
		c-1.8-3.4-1.2-5.3-0.4-8.8c0.8-3.3,0.4-1.3-1.9-3.4c-1.9-1.7-2-1.8-0.7-4.2c2-3.7,4.5-7.1,5.7-11.2c0.6-2.1,1-9.8,4-10.2
		c0.7-0.1,1.1,0.2,1.5,0.5C101.2,42.3,101.8,40.9,101.4,39z"/>
	<path class="st1" d="M25,118.5c-1,0-2-0.2-2.9-0.9c-1.6-1.1-1.7-2.9-1.9-4.7c0-0.5-0.1-0.9-0.1-1.4l-0.1-0.4l0.3-0.2
		c2-1,4.6-2,8.3-3.2c7.8-2.6,10.3-4.7,13.1-7.7l0.3-0.3c2.8-2.9,10.3-10.7,12.9-15.6s7-13.2,4.2-21.4c-1.1-3.3-2-5.6-3.1-7.4
		L55.8,55l0.4-0.3c1.1-0.7,2.3-1.4,3.5-2.1c5.1-2.9,9.5-5.3,6.1-11.8c-0.5-0.9-1.2-1.6-2-2.2c-1.1-0.9-2.2-1.9-2.7-3.6
		c-0.4-1.6-0.4-4.7-0.1-6.2c0.2-1.1,0.6-2,0.9-2.8c0.4-0.9,0.7-1.7,0.8-2.7c0.1-0.7,0.1-1.2,0-1.7c0-1.3,0-1.9,2-3.1
		c-1-1.4-2.7-1.8-4.5-2.3c-0.4-0.1-0.8-0.2-1.3-0.3c-1.8-0.5-3.1-1.2-4.5-1.9c-0.7-0.4-1.4-0.7-2.2-1.1l-0.2,0v-0.3
		c-0.2-1,0-2,0.1-3c0.1-0.9,0.3-1.8,0.2-2.8C52.2,6,52,5.3,51.7,4.6C51.4,4,51.1,3.2,51,2.2c-0.2-1.9,0.3-3.3,1.4-4.5l0.2-0.2
		l0.3,0.1c0.1,0,0.3,0,0.4,0.1c0.3,0,0.7,0.1,1,0.3c1.6,0.6,2.5,1.3,3.1,3.2c0.2,0.6,0.2,1,0.3,1.3c0.1,0.7,0.2,1,1,1.7
		c0.8,0.6,1.9,0.7,2.9,0.7c0.2,0,0.5,0,0.7,0c0.3,0,0.6,0,1,0c2.1,0.1,5.1,0.2,6.5,1.3s1.7,3,2,4.8c0.2,1.2,0.4,2.4,0.9,3.2
		c0.6,0.9,1,1.1,1.7,1.4c0.3,0.1,0.7,0.3,1.2,0.5c1.1,0.5,1.5,1.4,1.9,2.1c0.2,0.5,0.4,0.9,0.8,1.1c1,0.8,1.8,0.4,2.3,0.1
		c0.8-0.6,1.4-2.1,0.9-3.3c-0.2-0.4-0.6-0.6-1-0.9c-0.7-0.4-1.5-0.9-1.3-2.6c0.4-2.5,2.7-2.5,4.4-2.5c1.8-0.1,2.9,0.2,3.6,0.8
		s0.7,1.5,0.7,2.4c0,0.8,0,1.7,0.5,2.6c0.4,0.7,1.1,0.9,1.9,1.1c0.6,0.2,1.2,0.4,1.8,0.8c0.9,0.8,1.3,2,1.7,3.1
		c0.2,0.5,0.3,1,0.5,1.3c0.7,1.7,1.7,3.1,2.7,4.5c0.6,0.9,1.3,1.8,1.8,2.7c0.5,0.9,1.3,1.6,2.1,2.5c1.3,1.4,2.7,2.9,3.1,4.8l0,0
		c0.3,1.4,0.1,2.5-0.1,3.6c-0.1,0.5-0.2,0.9-0.2,1.4l-0.1,0.9l-0.7-0.6c-0.4-0.3-0.6-0.5-1.1-0.4c-2,0.3-2.7,4.9-3.2,7.6
		c-0.2,0.9-0.3,1.7-0.4,2.2c-0.9,3-2.5,5.7-4,8.2c-0.6,1-1.2,2-1.8,3.1c-1.1,2.1-1.1,2.1,0.6,3.6c0.8,0.7,1.3,0.9,1.7,1
		c1,0.4,0.9,0.8,0.5,2.6L94.8,71c-0.7,3.1-1.1,4.8,0.5,7.9c1.5,3.1,3.1,6.2,1.7,10.3c-0.4,1.2-0.9,2.3-1.4,3.3
		c-0.2,0.5-0.5,1-0.7,1.5s-0.4,1.1-0.6,1.6c-0.4,1.1-0.7,2.3-1.6,3.4c-2,2.5-3.9,2.6-5.9,2.7c-1.2,0.1-2.4,0.1-3.7,0.7
		c-1.2,0.5-2.2,1.5-3.3,2.5c-1.9,1.7-3.8,3.6-6.7,2.9c-1-0.2-1.7-0.6-2.4-1c-0.7-0.4-1.3-0.8-2.3-0.9c-1.4-0.1-2.3,0.2-3.4,0.5
		c-0.3,0.1-0.7,0.2-1.1,0.3c-4.1,1.2-7.4,2-11.5,2.3c-2.1,0.2-4,0.8-5.9,1.5c-1.2,0.4-2.5,0.8-3.8,1.1c-0.5,0.1-1,0.2-1.5,0.3
		c-3.5,0.7-6.5,1.4-9.3,3.5C30.7,116.4,27.8,118.5,25,118.5z M21.1,111.8c0,0.4,0.1,0.7,0.1,1.1c0.1,1.6,0.2,3.1,1.4,3.9
		c2.7,1.8,6.3-0.3,8.7-2.1c3-2.2,6.2-2.9,9.7-3.7c0.5-0.1,1-0.2,1.5-0.3c1.3-0.3,2.5-0.7,3.7-1.1c1.9-0.6,4-1.3,6.2-1.5
		c4.1-0.3,7.2-1.1,11.3-2.3c0.4-0.1,0.7-0.2,1-0.3c1.2-0.4,2.3-0.8,3.9-0.6c1.2,0.2,2,0.6,2.7,1c0.6,0.4,1.2,0.7,2.1,0.9
		c2.4,0.5,4-1,5.8-2.7c1.1-1,2.3-2.1,3.6-2.7c1.5-0.6,2.9-0.7,4-0.7c1.9-0.1,3.4-0.2,5.2-2.3c0.7-0.9,1.1-2,1.4-3.1
		c0.2-0.6,0.4-1.2,0.6-1.7s0.5-1.1,0.7-1.6c0.5-1,1-2,1.4-3.2c1.3-3.7-0.2-6.5-1.7-9.5c-1.8-3.4-1.3-5.4-0.6-8.5l0.2-0.9
		c0.2-0.6,0.3-1.1,0.3-1.4h-0.1c-0.4-0.1-1.1-0.4-2-1.2c-2-1.8-2.2-2.2-0.8-4.8c0.6-1.1,1.2-2.1,1.8-3.1c1.5-2.5,3-5.1,3.9-8
		c0.1-0.4,0.3-1.2,0.4-2.1c0.6-3.4,1.3-8.1,4-8.5c0.5-0.1,0.9,0,1.2,0.2c0-0.2,0.1-0.5,0.1-0.7c0.2-1,0.4-2,0.1-3.2l0,0
		c-0.3-1.7-1.6-3-2.9-4.3c-0.8-0.8-1.6-1.7-2.2-2.6c-0.6-0.9-1.2-1.8-1.8-2.6c-1-1.5-2.1-3-2.8-4.7c-0.2-0.4-0.4-0.9-0.5-1.5
		c-0.3-1-0.6-2.1-1.3-2.7c-0.4-0.3-0.9-0.4-1.4-0.6c-0.9-0.3-1.9-0.6-2.5-1.6c-0.6-1.1-0.6-2.2-0.6-3.1c0-0.8,0-1.4-0.4-1.7
		c-0.4-0.4-1.3-0.5-2.9-0.5c-2.2,0-3.2,0.2-3.4,1.7c-0.1,1,0.2,1.2,0.8,1.6c0.5,0.3,1,0.6,1.4,1.3c0.8,1.7,0,3.7-1.2,4.6
		c-1.1,0.8-2.4,0.8-3.5-0.2c-0.5-0.4-0.8-0.9-1-1.4c-0.3-0.7-0.7-1.3-1.5-1.7c-0.4-0.2-0.8-0.4-1.1-0.5c-0.8-0.3-1.5-0.6-2.2-1.8
		c-0.6-1-0.8-2.3-1-3.5c-0.3-1.7-0.6-3.4-1.6-4.2c-1.1-0.9-4-1-5.9-1.1c-0.4,0-0.7,0-1,0c-0.2,0-0.5,0-0.7,0c-1.2-0.1-2.5-0.1-3.5-1
		c-1.1-0.9-1.2-1.6-1.3-2.4c0-0.3-0.1-0.7-0.2-1.2c-0.5-1.5-1.2-2-2.6-2.6c-0.2-0.1-0.5-0.2-0.8-0.2c-0.1,0-0.1,0-0.2,0
		c-0.8,0.9-1.1,2-1,3.5c0.1,0.9,0.4,1.6,0.6,2.4C53,5.2,53.3,6,53.4,6.9c0.2,1.1,0,2.1-0.2,3c-0.1,0.8-0.3,1.6-0.2,2.4
		c0.7,0.3,1.4,0.7,2,1c1.3,0.7,2.6,1.4,4.3,1.8c0.4,0.1,0.8,0.2,1.2,0.3c2,0.5,4.2,1.1,5.4,3.2l0.2,0.4l-0.4,0.2
		c-1.9,1.1-1.9,1.3-1.9,2.4c0,0.5,0,1,0,1.8c-0.1,1.1-0.5,2-0.9,2.9c-0.3,0.8-0.7,1.6-0.8,2.6c-0.3,1.4-0.3,4.3,0.1,5.8
		c0.4,1.4,1.4,2.2,2.4,3.1c0.8,0.7,1.7,1.4,2.3,2.5c3.9,7.3-1.4,10.3-6.5,13.1c-1,0.6-2.1,1.2-3.1,1.8c1,1.8,1.9,4.1,2.9,7.2
		c3,8.6-1.5,17.1-4.2,22.2c-2.6,5-10.2,12.9-13.1,15.8l-0.3,0.3c-2.9,3-5.5,5.3-13.5,7.9C25.5,110,23.1,110.9,21.1,111.8z"/>
</g>
</svg>
