<?xml version="1.0" encoding="utf-8"?>
<!-- Generator: Adobe Illustrator 28.0.0, SVG Export Plug-In . SVG Version: 6.00 Build 0)  -->
<svg version="1.1" id="_レイヤー_2" xmlns="http://www.w3.org/2000/svg" xmlns:xlink="http://www.w3.org/1999/xlink" x="0px"
	 y="0px" viewBox="0 0 120 120" style="enable-background:new 0 0 120 120;" xml:space="preserve">
<style type="text/css">
	.st0{fill:#F0E3D2;}
	.st1{fill:#D7323A;}
</style>
<g>
	<g>
		<path class="st0" d="M101.5,72.8c-0.6-1.2-2.1-1.5-2.5-3c-0.2-0.8-0.2-2.3,0-3.2c0.2-1.2,0.8-1.9,0.9-2.9c0.2-1.5-0.4-1.5,1.2-2.4
			c-0.7-1.2-2.1-1.4-3.3-1.8c-1.4-0.4-2.2-1-3.5-1.6c-0.2-1,0.3-2,0.2-3c-0.1-1-0.6-1.6-0.7-2.5c-0.3-2.7,2-2.6,3.3-4.1
			c3.4-4.1-4.7-5.7-7.3-5.8c-0.1-2.2-0.7-3.1-3-2c-1,0.5-0.9,1.4-2.3,1c-1.3-0.3-1-0.9-1.4-1.8c-0.3-0.7-0.4-1.9-0.7-2.4
			c-0.6-0.9-1.1-1-1.4-1.8c-0.3-1,0.3-1.4-0.7-2.2c-0.7-0.5-1.7-0.7-2.5-0.4c-2.2,0.7-1.6,4.2-3.8,1.4c-0.5-0.6-0.8-1.7-1.5-2.2
			c-0.8-0.6-1.6-0.5-2.6-0.9s-4.4-2-4.8-2.7c-0.5-0.9-0.1-3.9,0-5c0.3-3.7,1.7-1,3.5-0.5c1.5,0.4,1.6-0.5,2.6-1.2
			c0.6-0.4,1.7-0.7,2-1.4c0.6-1.2-1-3.6-0.9-5s0.8-3.8-0.6-4.5c-0.9-0.4-2,0.2-2.7,0.5c-0.4,0.2-0.9,0.1-1.4,0.3
			c-0.4,0.2-0.4,1-1.1,1.2c-2.6,0.8-2.5-2.1-3-3.4C63,8.2,61.9,7.9,61.2,7c-0.9-1.1-0.6-1-0.4-2.3c0.2-1.4-0.3-2.6-0.5-3.9
			c-3-0.5-6.6-1-9-0.8c-2.5,0.3-5.8,0.5-11.1,0.3c-5.3-0.3-6.5,0.9-7.8,2c-1.2,1-3.5,1.7-5.9,2.3c0.8,0.6,1.5,1.2,1.8,1.9
			c0.1,0.4,0,0.9,0.1,1.2c0.2,0.4,0.8,0.9,0.9,1.2c0.8,1.9-0.7,3.1-0.1,5c0.7,2,1.7,3.2,3,4.7c1.5,1.7,0.4,3.1,1.1,5
			c0.3,0.9,1.5,1.3,1.9,2.1c0.5,0.9,0.4,1.8,0.4,2.9c0,2.3-0.3,3.4-1.9,5.1c-0.7,0.7-1.2,1.6-2.3,1.9c-0.8,0.2-1.8-0.2-2.7,0
			c-1.8,0.4-3,2.3-1.9,4c0.5,0.7,1.4,0.4,1.4,1.6c0,1.2-0.5,0.7-1.3,1.2c-1,0.6-1-0.1-1.7,1c-0.3,0.4-0.3,1.2-0.4,1.7
			c-0.4,2.1-1.2,1.2-2.4,2.4c-1.1,1-0.2,2.5-0.9,3.5c-0.8,1.2-2.2,0.8-2.7,2.6c-0.3,1.1-0.1,2.3-0.3,3.4c-0.2,0.8-1.1,2-0.9,2.8
			c0.1,0.5,1.3,0.6,1.6,1.2c0.3,0.5,0.2,1.4,0.1,2c-0.2,2-3.1,4.7,0,5.9c1.4,0.5,2.4,0.1,3.1,1.8c0.3,0.9,0.3,2.5,0.1,3.4
			c-0.2,1.2-0.7,2.2-0.7,3.4c0,0.6,0.1,1.1,0.3,1.5c0.2-0.1,0.4-0.1,0.6-0.2c1.6-0.4-0.3-1.7,1.3-2.9c1.6-1.2,2.5,0.9,4.7,0.4
			c2.2-0.4,1.6-1.8,4.8-2.8c3.3-1,6.2-0.2,11.1-0.4c9.4-0.4,12.8,4.2,15,5.3c2.2,1.1,7.1,4.2,11.7,5.6c4.7,1.4,5.5-0.2,7.5-1
			c2.1-0.8,4.4-1.4,5.4-2.8s4.4-1.7,7.5-2.2c2-0.3,3.2,0.5,4.3,2.4C99.3,78.4,103.9,77.3,101.5,72.8z"/>
		<path class="st1" d="M76.5,83.1c-0.9,0-1.9-0.2-3.3-0.6c-3.5-1.1-7.3-3.1-9.7-4.5c-0.8-0.5-1.5-0.8-2-1.1
			c-0.5-0.3-1.1-0.7-1.7-1.2c-2.3-1.8-5.8-4.4-13.1-4.1c-1.9,0.1-3.4,0-4.8,0c-2.3-0.1-4.2-0.2-6.2,0.4c-1.6,0.5-2.1,1.1-2.6,1.6
			s-1,1-2.2,1.2c-1.2,0.3-2-0.1-2.7-0.4c-0.8-0.4-1.2-0.5-1.8-0.1c-0.6,0.4-0.5,0.8-0.5,1.3s0.2,1.3-1,1.7c-0.1,0.1-0.3,0.1-0.4,0.1
			s-0.1,0-0.2,0.1l-0.4,0.2l-0.2-0.4c-0.2-0.5-0.4-1-0.4-1.7c0-0.8,0.2-1.5,0.4-2.2c0.1-0.4,0.2-0.8,0.3-1.3
			c0.2-0.8,0.2-2.4-0.1-3.2c-0.4-1-0.8-1-1.7-1.2c-0.3-0.1-0.7-0.1-1.1-0.3c-0.8-0.3-1.4-0.8-1.6-1.4c-0.4-1,0.1-2.1,0.6-3.2
			c0.3-0.6,0.6-1.3,0.7-1.8c0.2-1.1,0.1-1.5,0-1.7s-0.4-0.3-0.7-0.4c-0.4-0.2-0.9-0.4-1-0.9c-0.2-0.7,0.2-1.4,0.5-2.1
			c0.2-0.3,0.3-0.6,0.4-0.9c0.1-0.4,0.1-0.9,0.1-1.4c0-0.7,0-1.3,0.2-2c0.4-1.3,1.1-1.7,1.8-2c0.4-0.2,0.8-0.4,1-0.8
			c0.2-0.3,0.2-0.8,0.2-1.3c0-0.7,0-1.6,0.8-2.3c0.5-0.5,1-0.7,1.4-0.8c0.5-0.2,0.7-0.3,0.9-1.3c0-0.1,0-0.3,0.1-0.4
			c0.1-0.5,0.1-1.1,0.4-1.5c0.4-0.7,0.7-0.8,1.2-0.9c0.2,0,0.3,0,0.6-0.2c0.3-0.2,0.6-0.3,0.8-0.3c0.1,0,0.2,0,0.2,0s0-0.1,0-0.4
			c0-0.4-0.1-0.5-0.4-0.6s-0.6-0.3-0.9-0.7c-0.6-0.9-0.7-1.8-0.3-2.7c0.4-1,1.4-1.8,2.5-2c0.5-0.1,1.1-0.1,1.6,0
			c0.4,0,0.8,0.1,1.1,0c0.7-0.2,1.1-0.7,1.5-1.2c0.2-0.2,0.3-0.4,0.5-0.6c1.5-1.6,1.8-2.6,1.8-4.7v-0.5c0-0.9,0-1.5-0.3-2.2
			c-0.1-0.3-0.4-0.5-0.8-0.8c-0.4-0.4-1-0.8-1.2-1.4c-0.3-0.9-0.3-1.6-0.3-2.3c0-0.9,0-1.7-0.7-2.5c-1.4-1.6-2.4-2.8-3.1-4.9
			c-0.3-1.1-0.1-1.9,0.1-2.7s0.4-1.4,0-2.3c0-0.1-0.2-0.3-0.3-0.4c-0.2-0.2-0.4-0.5-0.5-0.7c-0.1-0.3-0.1-0.5-0.1-0.8
			c0-0.2,0-0.4,0-0.5c-0.2-0.5-0.9-1.1-1.6-1.6l-0.8-0.6l1-0.3c2.2-0.5,4.5-1.2,5.7-2.2l0.1-0.1c1.3-1.1,2.7-2.3,8-2
			c5.8,0.2,9.1-0.1,11-0.3c2.6-0.2,6.5,0.4,9.1,0.8l0.4,0.1l0.1,0.4C63-0.5,63-0.1,63.1,0.2c0.2,0.9,0.4,1.9,0.3,2.9
			c0,0.3-0.1,0.5-0.1,0.7C63,4,63,4,63.6,4.7c0.2,0.3,0.5,0.5,0.8,0.8C65,5.9,65.6,6.4,66,7.3c0.1,0.3,0.2,0.7,0.3,1.1
			c0.2,0.8,0.4,1.7,0.9,2c0.3,0.2,0.7,0.2,1.2,0c0.2-0.1,0.3-0.2,0.4-0.5c0.1-0.2,0.3-0.5,0.6-0.7C69.7,9.1,70,9,70.3,9
			c0.2,0,0.4,0,0.5-0.1l0.3-0.1c0.7-0.3,1.8-0.8,2.8-0.4c1.5,0.7,1.2,2.7,1,4.1c0,0.3-0.1,0.6-0.1,0.9c0,0.5,0.2,1.3,0.5,2
			c0.4,1.1,0.8,2.3,0.4,3.2c-0.3,0.6-1,1-1.6,1.3c-0.2,0.1-0.4,0.2-0.6,0.3c-0.2,0.2-0.4,0.4-0.6,0.6c-0.5,0.5-1,1.1-2.4,0.7
			c-0.6-0.2-1.2-0.6-1.7-0.9c-0.3-0.2-0.7-0.5-0.9-0.5l0,0c0,0-0.2,0.2-0.3,1.5l-0.1,0.5c-0.1,1.1-0.4,3.5,0,4.2
			c0.3,0.5,3.2,1.9,4.5,2.5c0.4,0.1,0.7,0.2,1,0.3c0.6,0.1,1.1,0.2,1.7,0.7c0.5,0.4,0.8,1,1.1,1.5c0.2,0.3,0.3,0.6,0.5,0.8
			C77,33,77.2,33,77.2,33c0.1,0,0.3-0.4,0.4-0.6c0.4-0.6,0.9-1.5,2-1.9c0.9-0.3,2.1-0.2,2.9,0.5c0.8,0.6,0.8,1.1,0.8,1.7
			c0,0.2,0,0.5,0.1,0.7c0.1,0.3,0.3,0.5,0.5,0.7s0.5,0.5,0.8,0.9c0.2,0.4,0.3,0.9,0.4,1.4c0.1,0.4,0.2,0.8,0.3,1.1
			c0.1,0.3,0.2,0.5,0.2,0.7c0.1,0.5,0.2,0.6,0.8,0.8c0.6,0.2,0.8,0.1,1.1-0.3c0.2-0.2,0.5-0.5,0.9-0.7c1.2-0.6,2.1-0.7,2.7-0.3
			c0.7,0.4,0.9,1.3,1,2.3c1.9,0.2,6.9,1,7.9,3.4c0.4,1,0.2,2-0.7,3.2c-0.5,0.6-1.1,0.9-1.6,1.2c-1,0.6-1.7,1-1.5,2.5
			c0,0.4,0.2,0.7,0.3,1c0.2,0.4,0.3,0.9,0.4,1.5c0.1,0.5,0,1-0.1,1.5c-0.1,0.4-0.1,0.8-0.1,1.2c0.3,0.2,0.7,0.3,1,0.5
			c0.7,0.4,1.3,0.7,2.2,1c0.2,0.1,0.4,0.1,0.7,0.2c1.1,0.3,2.3,0.7,2.9,1.8l0.3,0.4l-0.4,0.2c-0.9,0.5-0.9,0.5-0.9,1
			c0,0.2,0,0.6,0,1c-0.1,0.6-0.3,1.1-0.5,1.5c-0.2,0.4-0.4,0.9-0.4,1.4c-0.2,0.9-0.2,2.3,0,3s0.6,1.1,1.2,1.5c0.5,0.4,1,0.8,1.3,1.4
			c0.7,1.3,0.9,2.5,0.6,3.5c-0.5,1.8-2.5,2.8-4.4,3.8c-0.6,0.3-1.3,0.7-1.9,1L98,79l-0.3-0.4c-1.1-1.8-2.1-2.4-3.8-2.2
			c-0.4,0.1-0.9,0.1-1.3,0.2c-2.5,0.4-5.1,0.8-5.8,1.8c-0.9,1.3-2.7,1.9-4.5,2.6c-0.4,0.1-0.7,0.3-1.1,0.4c-0.4,0.2-0.8,0.4-1.1,0.6
			C79,82.5,78,83.1,76.5,83.1z M47.7,70.6c6.8,0,10.4,2.7,12.5,4.3c0.6,0.5,1.1,0.8,1.5,1.1c0.5,0.3,1.3,0.7,2.1,1.1
			c2.4,1.4,6.1,3.4,9.5,4.4c3.5,1,4.6,0.4,5.9-0.3c0.4-0.2,0.8-0.4,1.3-0.6c0.4-0.1,0.8-0.3,1.1-0.4c1.7-0.6,3.3-1.2,4-2.2
			c1-1.4,3.7-1.8,6.5-2.2c0.4-0.1,0.9-0.1,1.3-0.2c2-0.3,3.4,0.4,4.5,2.2c0.5-0.3,1-0.5,1.5-0.8c1.8-0.9,3.5-1.8,3.9-3.2
			c0.2-0.8,0.1-1.6-0.5-2.7l0,0c-0.2-0.4-0.6-0.7-1-1.1c-0.6-0.5-1.3-1-1.5-2c-0.2-0.9-0.2-2.5,0-3.4c0.1-0.6,0.3-1.1,0.5-1.6
			c0.2-0.4,0.3-0.8,0.4-1.3c0.1-0.4,0-0.6,0-0.9c0-0.8,0.1-1.1,0.9-1.6c-0.5-0.5-1.3-0.7-2.1-1c-0.2-0.1-0.4-0.1-0.7-0.2
			c-1-0.3-1.7-0.6-2.4-1c-0.4-0.2-0.7-0.4-1.2-0.6l-0.2-0.1v-0.2c-0.1-0.6,0-1.2,0.1-1.8c0.1-0.4,0.2-0.9,0.1-1.2
			c0-0.5-0.2-0.8-0.3-1.2c-0.2-0.4-0.3-0.8-0.4-1.3c-0.2-2.1,1-2.8,2-3.5c0.5-0.3,1-0.6,1.4-1c0.7-0.8,0.9-1.5,0.6-2.1
			c-0.8-1.8-5.2-2.8-7.5-2.9H91v-0.5c0-1.1-0.2-1.7-0.5-1.9s-0.9-0.1-1.7,0.3c-0.3,0.1-0.4,0.3-0.6,0.5c-0.4,0.4-0.8,0.9-2,0.5
			c-1.2-0.3-1.4-0.9-1.5-1.5c0-0.2-0.1-0.4-0.2-0.6c-0.2-0.4-0.3-0.8-0.4-1.3c-0.1-0.4-0.2-0.9-0.3-1.1c-0.2-0.3-0.4-0.5-0.6-0.8
			c-0.3-0.3-0.6-0.6-0.8-1.1c-0.1-0.5-0.1-0.8-0.1-1.1c0-0.4,0-0.5-0.4-0.9c-0.6-0.4-1.4-0.5-2-0.3c-0.7,0.2-1.1,0.9-1.4,1.4
			s-0.6,1-1.2,1.1c-0.5,0-1-0.3-1.8-1.3c-0.2-0.3-0.4-0.6-0.6-0.9c-0.2-0.5-0.5-0.9-0.8-1.2c-0.4-0.3-0.8-0.4-1.3-0.5
			c-0.4-0.1-0.7-0.2-1.2-0.3c0,0-4.5-1.9-5-2.9c-0.5-0.9-0.3-2.8-0.1-4.8l0.1-0.5c0.1-1.4,0.4-2,0.9-2.3c0.6-0.3,1.2,0.1,1.9,0.6
			c0.4,0.3,0.9,0.6,1.4,0.8c0.8,0.2,1,0,1.4-0.4c0.2-0.2,0.4-0.5,0.8-0.7c0.2-0.1,0.5-0.3,0.7-0.4c0.5-0.2,1-0.5,1.1-0.8
			c0.3-0.5-0.1-1.5-0.4-2.4s-0.6-1.7-0.5-2.4c0-0.3,0.1-0.6,0.1-1c0.2-1.2,0.4-2.7-0.4-3.1c-0.6-0.3-1.4,0.1-2,0.4l-0.3,0.1
			C70.9,10,70.6,10,70.4,10s-0.4,0-0.6,0.1c0,0-0.1,0.1-0.1,0.2c-0.2,0.3-0.4,0.8-1,1c-0.8,0.2-1.4,0.2-2-0.1
			c-0.9-0.5-1.2-1.7-1.4-2.7c-0.1-0.4-0.2-0.7-0.2-0.9c-0.3-0.7-0.7-1-1.2-1.4c-0.3-0.3-0.7-0.6-1-0.9c-0.8-0.9-0.8-1.2-0.6-2
			c0-0.2,0.1-0.4,0.1-0.6c0.1-0.9-0.1-1.7-0.3-2.6C62-0.2,62-0.5,61.9-0.7c-2.6-0.4-6.2-0.9-8.5-0.7c-2,0.2-5.3,0.5-11.2,0.3
			c-4.9-0.3-6.1,0.8-7.3,1.8l-0.1,0.1c-1.1,0.9-3.1,1.6-5.1,2.2c0.5,0.5,0.9,0.9,1.2,1.5C31,4.8,31,5.1,31,5.3c0,0.1,0,0.3,0,0.4
			s0.2,0.3,0.4,0.5c0.2,0.3,0.4,0.5,0.5,0.7c0.5,1.1,0.2,2.1,0,2.9c-0.2,0.7-0.4,1.4-0.1,2.1c0.6,1.8,1.5,2.9,2.9,4.5
			c1,1.1,1,2.2,1,3.2c0,0.7,0,1.3,0.2,2c0.1,0.4,0.5,0.6,0.8,0.9c0.4,0.3,0.8,0.6,1,1.1c0.5,0.9,0.5,1.7,0.5,2.7v0.5
			c0,2.3-0.3,3.6-2,5.4c-0.2,0.2-0.3,0.4-0.5,0.5c-0.5,0.6-1.1,1.2-2,1.5c-0.5,0.1-1,0.1-1.5,0c-0.4,0-0.9-0.1-1.2,0
			c-0.8,0.2-1.5,0.7-1.8,1.4c-0.2,0.4-0.3,1.1,0.2,1.8c0.1,0.1,0.3,0.2,0.5,0.3c0.4,0.2,1,0.5,1,1.5s-0.3,1.3-1,1.4
			c-0.2,0-0.3,0.1-0.5,0.2c-0.5,0.3-0.8,0.3-1,0.4c-0.2,0-0.2,0-0.5,0.5c-0.2,0.2-0.2,0.7-0.3,1c0,0.2,0,0.4-0.1,0.5
			c-0.3,1.5-0.8,1.8-1.5,2c-0.3,0.1-0.6,0.2-1,0.6c-0.4,0.4-0.5,0.9-0.5,1.6c0,0.6,0,1.3-0.4,1.8c-0.4,0.6-0.9,0.9-1.4,1.1
			c-0.6,0.3-1,0.5-1.2,1.3c-0.1,0.5-0.2,1.1-0.2,1.8c0,0.5,0,1.1-0.1,1.6c-0.1,0.4-0.3,0.7-0.4,1.1c-0.2,0.5-0.5,1.1-0.5,1.5
			c0,0,0.3,0.2,0.4,0.2c0.4,0.2,0.9,0.4,1.1,0.9c0.3,0.5,0.3,1.2,0.1,2.3c-0.1,0.7-0.4,1.4-0.7,2.1c-0.4,0.9-0.8,1.8-0.6,2.4
			c0.1,0.3,0.5,0.6,1,0.8c0.3,0.1,0.7,0.2,1,0.2c0.9,0.2,1.8,0.3,2.4,1.8c0.3,1,0.3,2.7,0.1,3.7c-0.1,0.5-0.2,0.9-0.3,1.4
			c-0.2,0.7-0.4,1.3-0.4,1.9c0,0.3,0,0.6,0.1,0.9h0.1h0.1c0.3-0.1,0.3-0.1,0.3-0.6c-0.1-0.5-0.2-1.5,0.8-2.2c1.1-0.8,2-0.4,2.8-0.1
			c0.6,0.3,1.3,0.6,2.1,0.4c0.9-0.2,1.2-0.5,1.7-1c0.6-0.6,1.3-1.3,3.1-1.8c2.2-0.7,4.2-0.6,6.5-0.5c1.4,0.1,2.9,0.1,4.7,0
			C47,70.6,47.4,70.6,47.7,70.6z"/>
	</g>
	<g>
		<path class="st0" d="M49.5,116.7c-1.4-1.3-3-2.2-3-3.9c0-1.8,0.1-2.5,2.8-3.2c2.6-0.6,2.2-3.8,3.4-5.1c1.2-1.3,2.5-4.8,3.6-5.9
			c1.1-1,4-1.8,4.5-3.9c0.5-2.2,2-2.3,3.3-3.1c1.3-0.8,3-3.2,3.6-3.9c0.5-0.8,3-1.8,3.8-0.1c0.8,1.7,0,1.9-1.1,3.1
			c-1.1,1.1-1.2,1.9-1.5,3.1c-0.3,1.1-1.3,1.8-2.2,2.9c-0.9,1.1-2.2,2-3,4.1c-0.8,2-0.8,4.5-0.8,5.6s0.5,2.4,1.3,3.7
			c0.8,1.3,4.6,2.9,1.8,4.3c-2.8,1.4-4.4,1.1-6.2,2.7c-1.8,1.5-3.7,3.2-5.9,3.1C51.6,119.9,50.6,117.7,49.5,116.7z"/>
		<path class="st1" d="M56.1,118.7c-0.1,0-0.1,0-0.2,0c-1.9-0.2-3-1.6-3.9-2.7c-0.3-0.4-0.6-0.7-0.9-1l0,0c-0.3-0.3-0.6-0.5-0.9-0.8
			c-1.1-1-2.3-1.9-2.3-3.5c0-2.1,0.3-2.9,3.2-3.7c1.4-0.3,1.8-1.5,2.1-2.8c0.3-0.8,0.5-1.6,1-2.2c0.6-0.6,1.2-1.8,1.8-2.9
			c0.6-1.2,1.3-2.4,1.9-3c0.4-0.4,1-0.7,1.5-1c1.2-0.7,2.5-1.4,2.8-2.7c0.4-1.9,1.6-2.5,2.6-2.9c0.3-0.1,0.6-0.3,0.9-0.5
			c0.9-0.6,2.2-2.2,2.9-3.1c0.2-0.3,0.4-0.5,0.5-0.7c0.4-0.6,1.6-1.3,2.8-1.2c0.8,0,1.5,0.5,1.8,1.2c0.8,1.6,0.3,2.2-0.6,3.1
			c-0.2,0.2-0.4,0.3-0.6,0.6c-0.9,0.9-1.1,1.6-1.3,2.5l-0.1,0.4c-0.2,0.9-0.8,1.5-1.5,2.2c-0.3,0.3-0.5,0.6-0.8,0.9
			c-0.2,0.3-0.5,0.6-0.8,0.9c-0.8,0.8-1.6,1.6-2.1,3.1c-0.8,1.9-0.8,4.4-0.8,5.4c0,0.9,0.4,2.1,1.2,3.4c0.2,0.3,0.7,0.7,1.1,1.1
			c0.9,0.8,1.9,1.5,1.8,2.5c-0.1,0.6-0.5,1-1.3,1.4c-1.2,0.6-2.2,0.9-3.1,1.2c-1.1,0.3-2,0.6-3,1.5l-0.3,0.3
			C60.2,117.1,58.3,118.7,56.1,118.7z M51.8,114.3c0.3,0.3,0.6,0.7,1,1.1c0.8,1,1.7,2.1,3.2,2.3c1.9,0.1,3.6-1.4,5.2-2.7l0.3-0.2
			c1.1-1,2.2-1.3,3.4-1.7c0.8-0.2,1.8-0.5,2.9-1.1c0.4-0.2,0.7-0.5,0.7-0.7c0-0.4-0.8-1.1-1.4-1.6c-0.5-0.5-1.1-0.9-1.3-1.3
			c-0.9-1.5-1.4-2.8-1.4-4c0-1.1,0-3.7,0.8-5.8c0.6-1.6,1.5-2.6,2.3-3.4c0.3-0.3,0.5-0.5,0.8-0.8s0.6-0.7,0.9-1
			c0.6-0.6,1.1-1.1,1.2-1.8l0.1-0.3c0.3-1.1,0.5-1.9,1.5-3c0.2-0.2,0.4-0.4,0.6-0.6c0.7-0.7,0.9-0.9,0.4-1.9c-0.2-0.4-0.5-0.6-1-0.6
			c-0.8,0-1.7,0.4-1.9,0.8c-0.2,0.2-0.3,0.4-0.6,0.7c-0.8,1.1-2.1,2.7-3.2,3.4c-0.3,0.2-0.7,0.4-1,0.5c-1,0.5-1.8,0.8-2.1,2.3
			c-0.4,1.7-2,2.6-3.3,3.3c-0.5,0.3-1,0.6-1.3,0.9c-0.5,0.5-1.1,1.6-1.7,2.7c-0.6,1.2-1.3,2.4-1.9,3.1c-0.4,0.4-0.6,1.1-0.8,1.8
			c-0.4,1.3-0.9,3-2.9,3.5c-2.4,0.6-2.4,1.1-2.4,2.7c0,1.1,0.9,1.8,1.9,2.7C51.2,113.8,51.5,114.1,51.8,114.3z"/>
	</g>
</g>
</svg>
