<?xml version="1.0" encoding="utf-8"?>
<!-- Generator: Adobe Illustrator 28.0.0, SVG Export Plug-In . SVG Version: 6.00 Build 0)  -->
<svg version="1.1" id="_レイヤー_2" xmlns="http://www.w3.org/2000/svg" xmlns:xlink="http://www.w3.org/1999/xlink" x="0px"
	 y="0px" viewBox="0 0 120 120" style="enable-background:new 0 0 120 120;" xml:space="preserve">
<style type="text/css">
	.st0{fill:#F0E3D2;}
	.st1{fill:#D7323A;}
</style>
<g>
	<path class="st0" d="M19.4,85c1.5,0,2.1,1.2,2.8,2.3c0.3,0.5,0.4,1,0.8,1.4c0.3,0.4,0.9,0.8,1.1,1c1.7,1.7,3.9,3.6,5.2,5.7
		c0.8,1.3,1.3,1.9,2.5,3c1.2,1,1.1,1.7,1.9,2.9c1.2,1.7,5.2,3,7.2,3.6c2.3,0.7,5.2,1.2,7.2,2.6c2.8,1.9,2.6,2.7,6,1.6
		c1.3-0.4,2.4-0.2,3.8-0.4c1.5-0.3,2.2-0.9,3.8-1.2c2.6-0.5,3.8-1.3,6.1-2.7c2.4-1.4,4.5-1.4,7.2-1.4c1.3,0,1.7,0,2.7-0.6
		c0.9-0.6,1.8-3.2,2.7-3.5c1.6-0.6,5.3,3.1,6.3,4.4c1.7,2.1,2.3,4.2,4.9,5.2c3.1,1.2,4.3,1.9,5.7,4.8c1.9,3.8,7.4,6.9,11.8,6.3h0.1
		c-0.1-0.1-0.2-0.2-0.3-0.2c-1.2-0.2-2.2-1-3.9-3.1c-8-10.3-17.3-29.2-20.6-45.4c-1.3-6.1,3.6-10,4.7-12.5c1-2.5-0.2-2.3-0.6-6.7
		c-0.5-4.5,4-16.1,6.1-19c2.1-2.8,2.9-4.6,2.9-5.9c-0.2-3.7,2.6-12.9,6.3-16.1c-0.3-1-0.2-2.2,0.1-3.3c-1-0.2-2.1-0.2-3.1-0.4
		C98.5,7,97.1,6,95.1,5.1C93.6,4.5,92,5,90.4,4.6c-2.1-0.5-1.6-1.1-2.5-2.4c-0.5-0.7-2.4-1.6-3.3-1.3c-0.4,2.4,2.8,3.8,1.9,6.2
		c-0.6,1.8-3.1,2.3-4.5,3.5c-1,0.8-1.6,2.2-2.5,3.1c-2.6,2.7-4.3,0.5-6.6-1.4c-1.1-0.9-2.7-0.8-3.6-1.9c-0.8-0.9-0.3-2.3-1-3.1
		c-0.4-0.4-1.2,0-1.6-0.4c-0.6-0.7-0.6-1-1-1.8c-0.8-1.3-0.9-1.6-2.6-2.5c-1.5-0.8-3-0.9-3.9-1.7c-0.4,1-0.7,2.1-0.7,3.1
		c0,1.1-0.2,2.6,0,3.7c0.2,1.2,0.9,1.8,1.3,2.8c0.9,2.6-0.9,4.6-1.1,6.8c-0.3,2.8,3.7,2.5,2.4,5.3c-1,2.3-4.2,0.7-4.7,3.3
		c-0.5,2.3,0.9,5.6,1.2,7.9c0.2,1.6,0.7,2.9,1.1,4.5c0.3,1.1,0.6,3.4,0.3,4.5c-0.4,1.4-2.1,2.2-2.8,3.4c-0.9,1.5-1.5,3.6-1.7,5.3
		c-0.2,1.9-0.6,3.7-3.2,3.1c-1.2-0.3-1.3-1.2-2.8-1.1c-0.8,0-1.8,0.7-2.5,1c-0.9,0.4-1.8,1.3-2.6,1.6c-0.9,0.4-1.8,0-2.7,0.2
		c-2.3,0.4-3.5,2.3-5.5,2.9c-1,0.3-3.4-0.2-4.1,0.8c-0.4,0.7,0.5,1.5,0.3,2.3c-0.5,2.6-2.7,1-4.8,1.2c-1.8,0.2-2.4,0.5-2.8,2
		s-0.2,2.6-0.8,4.1c-1.3,3.1-2,3.1-5.4,3.3c-2.3,0.1-4,0.6-6.2,1.1c-0.4,0.1-0.7,0.2-1.1,0.2c1.1,2,2.2,4.1,2.9,6.3
		c0.8,2.4,1.2,5.2,3.8,6.4c0-0.2,0.1-0.6,0-1c0.1,0.3,0.3,0.6,0.4,0.8C17.9,85.7,18.2,85,19.4,85z"/>
	<path class="st1" d="M109.9,118.6c-4.2,0-9.2-2.9-11.1-6.7c-1.3-2.8-2.4-3.4-5.4-4.6c-2-0.8-2.9-2.1-3.9-3.6
		c-0.4-0.6-0.8-1.2-1.2-1.7c-1.3-1.7-4.6-4.7-5.7-4.2c-0.3,0.1-0.8,1-1.2,1.6c-0.5,0.8-0.9,1.5-1.4,1.9c-1.1,0.7-1.6,0.7-3,0.7
		c-2.7,0-4.7,0-6.9,1.3l-0.4,0.2c-2.1,1.3-3.3,2-5.9,2.5c-0.8,0.1-1.3,0.4-1.9,0.6c-0.6,0.2-1.1,0.5-1.9,0.6
		c-0.6,0.1-1.1,0.1-1.6,0.1c-0.7,0-1.4,0-2.1,0.3c-2.8,0.9-3.4,0.6-5.1-0.7c-0.4-0.3-0.8-0.6-1.4-1c-1.5-1-3.4-1.5-5.3-2
		c-0.6-0.2-1.2-0.3-1.8-0.5c-4.1-1.2-6.5-2.5-7.5-3.8c-0.3-0.5-0.5-0.9-0.7-1.2c-0.3-0.6-0.5-1-1.1-1.6c-1.3-1.1-1.8-1.8-2.6-3.1
		c-1-1.6-2.6-3.1-4-4.5c-0.4-0.4-0.8-0.7-1.1-1.1c-0.1-0.1-0.2-0.1-0.3-0.2c-0.3-0.2-0.6-0.5-0.9-0.8s-0.4-0.6-0.6-0.9
		c-0.1-0.2-0.1-0.3-0.2-0.5l-0.2-0.3c-0.7-1.1-1.2-1.8-2.2-1.8c-0.8,0-1,0.3-1.5,1.3l-0.4,0.9l0,0l-0.1,0.1l-0.1-0.2l-0.5-0.2
		c-2.4-1.1-3.1-3.4-3.7-5.5c-0.1-0.4-0.2-0.8-0.4-1.2c-0.7-2.2-1.8-4.4-2.9-6.2l-0.4-0.7h0.8c0.3,0,0.5-0.1,0.8-0.1l0.2-0.1
		c0.4-0.1,0.8-0.2,1.1-0.3c1.7-0.4,3.2-0.8,5.2-0.8h0.1c3.3-0.2,3.7-0.2,4.8-3c0.3-0.8,0.4-1.5,0.5-2.2c0.1-0.6,0.1-1.2,0.3-1.8
		c0.5-1.8,1.3-2.2,3.2-2.4c0.7-0.1,1.5,0.1,2.1,0.2c1.5,0.3,2,0.3,2.3-1c0.1-0.2-0.1-0.5-0.2-0.8c-0.2-0.5-0.4-1-0.1-1.6
		c0.6-0.9,1.9-0.9,3.1-0.9c0.5,0,1,0,1.3-0.1c0.8-0.2,1.5-0.7,2.2-1.3c1-0.7,1.9-1.4,3.3-1.6c0.4-0.1,0.9-0.1,1.3,0
		c0.5,0,0.9,0.1,1.3-0.1c0.4-0.1,0.8-0.4,1.2-0.7s0.9-0.6,1.4-0.9c0.2-0.1,0.4-0.2,0.6-0.3c0.6-0.3,1.4-0.7,2.1-0.7
		c1-0.1,1.5,0.3,2,0.6c0.3,0.2,0.5,0.4,0.9,0.5c0.8,0.2,1.3,0.1,1.7-0.1c0.6-0.4,0.8-1.5,0.9-2.5c0.2-1.5,0.7-3.8,1.8-5.5
		c0.3-0.6,0.8-1,1.3-1.5c0.6-0.6,1.2-1.1,1.4-1.8c0.3-1,0-3.1-0.3-4.2c-0.1-0.5-0.3-1-0.4-1.5c-0.3-1-0.6-2-0.7-3.1
		c-0.1-0.7-0.3-1.6-0.6-2.5c-0.5-1.9-1-3.9-0.6-5.5c0.3-1.7,1.6-1.9,2.7-2.2c0.9-0.2,1.7-0.4,2.1-1.2c0.5-1.1,0.1-1.4-0.8-2.2
		c-0.8-0.6-1.8-1.4-1.6-3c0.1-0.9,0.4-1.7,0.7-2.5c0.5-1.3,1-2.6,0.4-4.1c-0.1-0.3-0.3-0.6-0.5-0.9c-0.3-0.5-0.7-1.1-0.8-1.9
		C59.9,5,59.9,4,60,3.1c0-0.4,0-0.8,0-1.1c0-1,0.2-2.1,0.7-3.3L61-1.9l0.5,0.5c0.4,0.4,1.1,0.6,1.8,0.8c0.6,0.2,1.3,0.4,2,0.8
		c1.7,0.9,2,1.2,2.7,2.4l0.2,0.2c0.1,0.3,0.2,0.5,0.3,0.7c0.2,0.4,0.3,0.6,0.6,1.1c0,0,0.3,0,0.4,0c0.3,0,0.8,0,1.2,0.3
		c0.5,0.5,0.5,1.2,0.6,1.8c0.1,0.5,0.1,1,0.4,1.4c0.4,0.5,1,0.7,1.7,1c0.6,0.2,1.3,0.4,1.8,0.9c0.3,0.2,0.6,0.5,0.9,0.7
		c2.1,1.8,3.2,2.6,5.1,0.7c0.4-0.4,0.7-0.8,1-1.3c0.4-0.7,0.9-1.3,1.5-1.8c0.5-0.5,1.2-0.8,1.9-1.2C86.7,6.5,87.8,6,88.1,5
		c0.4-1-0.2-1.9-0.8-2.8c-0.6-0.9-1.3-2-1.1-3.3v-0.3l0.3-0.1c1.2-0.4,3.3,0.6,3.9,1.5c0.3,0.4,0.5,0.8,0.6,1.1
		c0.3,0.6,0.4,0.8,1.6,1.1c0.7,0.2,1.3,0.2,2,0.2c0.9,0,1.8,0,2.7,0.4c0.6,0.3,1.1,0.5,1.6,0.8c1.3,0.7,2.4,1.2,4,1.5
		c0.5,0.1,1,0.1,1.5,0.2s1.1,0.1,1.6,0.2l0.5,0.1l-0.1,0.5c-0.3,1.1-0.3,2.2-0.1,3l0.1,0.3l-0.2,0.2c-3.4,3-6.3,12-6.1,15.7
		c0,1.5-1,3.5-3,6.2c-2.1,2.9-6.5,14.4-6,18.6c0.2,1.8,0.5,2.8,0.7,3.6c0.3,1.1,0.5,1.8-0.1,3.4c-0.3,0.7-0.9,1.5-1.5,2.4
		c-1.7,2.3-4.1,5.5-3.1,9.8c3.4,16.7,12.9,35.4,20.5,45.2c1.6,2,2.5,2.7,3.6,2.9c0.3,0,0.4,0.2,0.6,0.3l0.9,0.9h-1.3
		C110.7,118.6,110.3,118.6,109.9,118.6z M82.8,96.7c2.2,0,5.7,3.9,6.3,4.7c0.5,0.6,0.9,1.2,1.3,1.8c0.9,1.4,1.7,2.6,3.4,3.2
		c3.2,1.2,4.5,2,6,5c1.6,3.1,5.6,5.7,9.3,6c-0.7-0.5-1.5-1.3-2.4-2.5C99,105,89.4,86.2,86,69.3c-1-4.7,1.5-8.1,3.3-10.6
		c0.6-0.8,1.1-1.6,1.4-2.2c0.5-1.3,0.4-1.7,0.1-2.7c-0.2-0.8-0.5-1.8-0.7-3.7c-0.5-4.6,4-16.3,6.2-19.3c1.9-2.5,2.8-4.4,2.8-5.6
		c-0.2-3.8,2.6-12.9,6.2-16.3c-0.2-1-0.1-1.9,0-2.7c-0.3,0-0.6-0.1-1-0.1c-0.5-0.1-1.1-0.1-1.6-0.2c-1.7-0.3-3-0.9-4.3-1.6
		c-0.5-0.2-1-0.5-1.5-0.7c-0.7-0.3-1.5-0.3-2.3-0.3c-0.7,0-1.5,0-2.3-0.2c-1.6-0.4-1.9-0.9-2.3-1.7c-0.1-0.3-0.2-0.6-0.5-0.9
		c-0.4-0.5-1.7-1.1-2.4-1.1c0,0.8,0.5,1.5,1,2.2c0.7,1,1.5,2.2,0.9,3.7c-0.4,1.3-1.7,2-2.9,2.7c-0.6,0.3-1.2,0.7-1.7,1
		c-0.5,0.4-0.9,1-1.3,1.6c-0.3,0.5-0.7,1-1.1,1.5c-2.6,2.7-4.5,1-6.4-0.7c-0.3-0.2-0.5-0.5-0.8-0.7c-0.4-0.3-1-0.5-1.5-0.7
		c-0.8-0.3-1.6-0.5-2.2-1.3c-0.5-0.6-0.6-1.3-0.7-1.9c-0.1-0.5-0.1-0.9-0.3-1.2c0,0-0.3,0-0.4,0c-0.3,0-0.8,0-1.2-0.3
		C68,4.7,67.9,4.4,67.7,4c-0.1-0.2-0.2-0.4-0.3-0.6l-0.1-0.2c-0.8-1.2-1-1.4-2.4-2.2c-0.6-0.3-1.2-0.5-1.8-0.7S62-0.1,61.5-0.3
		C61.2,0.5,61,1.3,61,2c0,0.4,0,0.8,0,1.2c0,0.9-0.1,1.7,0,2.4c0.1,0.6,0.4,1.1,0.7,1.6c0.2,0.3,0.4,0.7,0.6,1.1
		c0.6,1.8,0.1,3.4-0.4,4.8c-0.3,0.8-0.6,1.5-0.6,2.2c-0.1,1.1,0.5,1.5,1.2,2.1c0.9,0.7,2,1.5,1.1,3.4c-0.6,1.3-1.8,1.6-2.8,1.8
		c-1.1,0.2-1.7,0.4-1.9,1.4c-0.3,1.4,0.2,3.3,0.6,5.1c0.2,1,0.5,1.9,0.6,2.7c0.1,1,0.4,2,0.7,2.9c0.1,0.5,0.3,1,0.4,1.5
		c0.3,1,0.6,3.5,0.3,4.8c-0.3,0.9-1,1.6-1.7,2.3c-0.5,0.4-0.9,0.8-1.2,1.3c-0.8,1.3-1.4,3.3-1.6,5.1c-0.1,1.2-0.3,2.5-1.3,3.2
		c-0.6,0.4-1.4,0.5-2.5,0.3c-0.6-0.1-1-0.4-1.3-0.6c-0.4-0.3-0.7-0.5-1.4-0.4c-0.5,0-1.1,0.3-1.6,0.6c-0.3,0.1-0.5,0.3-0.7,0.4
		c-0.4,0.2-0.8,0.5-1.2,0.8c-0.5,0.3-0.9,0.7-1.4,0.9c-0.6,0.3-1.2,0.2-1.8,0.2c-0.4,0-0.7,0-1,0c-1.2,0.2-2,0.8-2.9,1.5
		c-0.8,0.6-1.6,1.1-2.5,1.4c-0.4,0.1-1,0.1-1.6,0.1c-0.9,0-2,0-2.3,0.5c-0.1,0.1,0,0.4,0.2,0.7c0.2,0.4,0.3,0.9,0.2,1.4
		c-0.4,2.2-2.1,2-3.4,1.7c-0.6-0.1-1.2-0.2-1.8-0.2c-1.7,0.2-2,0.4-2.4,1.6c-0.2,0.6-0.2,1.1-0.3,1.7c-0.1,0.8-0.2,1.6-0.5,2.5
		c-1.4,3.4-2.4,3.4-5.7,3.6h-0.1c-1.8,0.1-3.3,0.4-5,0.8c-0.4,0.1-0.8,0.2-1.1,0.3h-0.2c-0.1,0-0.2,0-0.2,0.1
		c0.9,1.7,1.9,3.7,2.6,5.8c0.1,0.4,0.3,0.8,0.4,1.2c0.5,1.8,1,3.5,2.5,4.5l0,0l0.8-0.2c0.4-0.7,0.9-1.3,2.1-1.3c1.6,0,2.4,1.2,3,2.2
		l0.2,0.3c0.1,0.2,0.2,0.4,0.3,0.6c0.1,0.3,0.2,0.5,0.4,0.7c0.2,0.3,0.5,0.5,0.8,0.7c0.1,0.1,0.3,0.2,0.3,0.3
		c0.4,0.4,0.7,0.7,1.1,1.1c1.5,1.4,3.1,3,4.2,4.7c0.8,1.3,1.2,1.8,2.4,2.9c0.8,0.7,1.1,1.3,1.4,1.9c0.2,0.3,0.3,0.7,0.6,1.1
		c0.5,0.8,2.2,2,6.9,3.4c0.5,0.2,1.1,0.3,1.7,0.5c1.9,0.5,4,1.1,5.6,2.2c0.6,0.4,1,0.7,1.4,1c1.4,1.1,1.7,1.3,4.1,0.5
		c0.9-0.3,1.6-0.3,2.4-0.3c0.5,0,1,0,1.5-0.1c0.7-0.1,1.2-0.3,1.7-0.5c0.6-0.2,1.2-0.5,2.1-0.6c2.4-0.5,3.5-1.1,5.5-2.4l0.4-0.2
		c2.5-1.5,4.7-1.5,7.5-1.5c1.3,0,1.6,0,2.4-0.5c0.3-0.2,0.7-0.9,1.1-1.5c0.5-0.9,1.1-1.8,1.7-2C82.4,96.8,82.6,96.7,82.8,96.7z"/>
</g>
</svg>
