<?xml version="1.0" encoding="utf-8"?>
<!-- Generator: Adobe Illustrator 28.0.0, SVG Export Plug-In . SVG Version: 6.00 Build 0)  -->
<svg version="1.1" id="_レイヤー_2" xmlns="http://www.w3.org/2000/svg" xmlns:xlink="http://www.w3.org/1999/xlink" x="0px"
	 y="0px" viewBox="0 0 120 120" style="enable-background:new 0 0 120 120;" xml:space="preserve">
<style type="text/css">
	.st0{fill:#F0E3D2;}
	.st1{fill:#D7323A;}
</style>
<g>
	<g>
		<path class="st0" d="M33.6,38.1c-0.4,1-1.7,3.2-2,0.9s0.5-4.5,0.4-5.6c-0.1-1.2,0.9-2.5,1.8-3.4s1.5-2.9,2-3.8s1.1-1.6,2-2
			c0.9-0.5,2.4-2.4,2.9-2.9s0.5-0.3,1.3-0.6c0.8-0.3,0.7-1.1,0.8-2s1.1-1.9,2-2.5c0.8-0.6,1.9-0.7,1.7,0.8c-0.1,1.5-0.3,2.3-0.3,3.2
			c0,0.9,0.3,2.4-0.5,3.5c-0.7,1.1-2.3,2.3-2.6,3.8c-0.3,1.6-1.3,2.8-0.8,4c0.5,1.2,1.1,2.1,2.2,1.9c1.1-0.1,1.6-0.7,2.7-1.2
			c1.1-0.5,2.4-1,2.6,0c0.3,1-0.1,1.8-0.6,2.5s-1.2,2-1.5,2.7s-1.6,2.8-1.6,3.8s-0.1,1.6-1.3,2.4c-1.3,0.8-2.2,1.2-2.6,1.7
			c-0.3,0.5-1.9,1-2.4,1.7s-1.2,1.5-2.4,1.7s-1.5-0.1-2.5,0.6c-0.9,0.7-1,1.1-2.2,1c-1.1-0.1-3-0.5-2.5-1.4c0.5-0.8,1.6-0.8,2.6-1.2
			c1-0.4,1.8-1.2,1.8-2.3s-1-1.2-0.3-2.5c0.7-1.2,1-1.3,2-1.9c1-0.6,1.8-1.2,0.9-2.5c-0.9-1.2-1.3-1.4-1.9-1.6
			C34.9,36.7,33.9,37.2,33.6,38.1z"/>
		<path class="st1" d="M35,48.8c-0.1,0-0.2,0-0.4,0c-0.7-0.1-2.5-0.3-2.9-1.2c-0.2-0.3-0.2-0.7,0-1c0.5-0.7,1.2-0.9,2-1.1
			c0.3-0.1,0.6-0.2,0.9-0.3c0.4-0.2,1.5-0.7,1.5-1.8c0-0.3-0.1-0.5-0.2-0.7c-0.2-0.4-0.6-1,0-2c0.7-1.2,1.1-1.4,1.9-1.9l0.3-0.1
			c0.5-0.3,1-0.6,1-0.9c0-0.2-0.1-0.5-0.3-0.8c-0.9-1.1-1.2-1.3-1.6-1.4c-0.2,0-0.9,0.3-1.1,0.9l0,0c-0.1,0.2-1,2.4-2,2.2
			c-0.8-0.1-0.9-1.1-0.9-1.4c-0.2-1.5,0-2.9,0.2-4c0.1-0.7,0.2-1.2,0.2-1.6c-0.1-1.4,1-2.8,1.9-3.8c0.5-0.5,1-1.6,1.4-2.5
			c0.2-0.5,0.4-0.9,0.5-1.2c0.6-1.1,1.3-1.8,2.2-2.2c0.5-0.3,1.5-1.4,2.1-2.1c0.3-0.3,0.5-0.5,0.6-0.7c0.4-0.4,0.6-0.5,0.9-0.6
			c0.1,0,0.3-0.1,0.5-0.2c0.3-0.1,0.4-0.3,0.4-1.1c0-0.2,0-0.3,0-0.5c0.1-1.1,1.2-2.2,2.2-2.9c0.5-0.4,1.3-0.7,1.9-0.3
			c0.3,0.2,0.7,0.6,0.6,1.6c0,0.7-0.1,1.2-0.2,1.7c-0.1,0.5-0.1,1-0.1,1.4c0,0.2,0,0.4,0,0.6c0.1,0.9,0.1,2.2-0.6,3.2
			c-0.2,0.4-0.6,0.8-1,1.2c-0.7,0.8-1.4,1.5-1.5,2.4c-0.1,0.6-0.3,1.2-0.5,1.7c-0.3,0.8-0.6,1.4-0.3,2c0.6,1.5,1.1,1.7,1.6,1.6
			c0.6-0.1,1-0.3,1.6-0.6c0.3-0.2,0.6-0.4,1-0.6c0.9-0.4,2-0.8,2.7-0.5c0.2,0.1,0.5,0.3,0.6,0.8c0.4,1.2-0.2,2.2-0.7,2.9
			s-1.2,1.9-1.4,2.6c-0.1,0.2-0.2,0.5-0.4,0.8c-0.4,0.8-1.1,2.1-1.1,2.8c0,1.1-0.1,1.9-1.5,2.8c-0.4,0.3-0.8,0.5-1.1,0.7
			c-0.7,0.4-1.2,0.7-1.4,0.9c-0.2,0.3-0.6,0.6-1.2,0.9c-0.4,0.2-1,0.5-1.2,0.8c-0.5,0.8-1.4,1.7-2.7,1.9c-0.4,0.1-0.7,0.1-1,0.1
			c-0.5,0-0.7,0-1.3,0.4c-0.2,0.1-0.3,0.3-0.4,0.4C36.2,48.5,35.9,48.8,35,48.8z M37.1,34.4c0.2,0,0.3,0,0.4,0.1
			c0.7,0.2,1.2,0.5,2.1,1.7c0.4,0.6,0.6,1.1,0.5,1.6c-0.2,0.7-0.8,1.2-1.5,1.6l-0.3,0.2c-0.8,0.5-1,0.6-1.6,1.6
			c-0.3,0.5-0.2,0.7,0,1s0.4,0.7,0.4,1.2c0,1.2-0.8,2.2-2.1,2.8c-0.3,0.1-0.7,0.2-1,0.3c-0.7,0.2-1.1,0.3-1.4,0.7
			c0.1,0.2,0.9,0.5,2.1,0.6c0.7,0.1,0.9-0.1,1.3-0.5c0.1-0.1,0.3-0.3,0.5-0.4c0.8-0.6,1.3-0.6,1.9-0.6c0.2,0,0.5,0,0.9-0.1
			c1-0.2,1.6-0.9,2.1-1.5c0.3-0.5,0.9-0.8,1.5-1.1c0.3-0.2,0.8-0.4,0.8-0.5c0.4-0.5,0.9-0.8,1.7-1.2c0.3-0.2,0.7-0.4,1.1-0.6
			c1-0.7,1.1-1.1,1.1-2c0-0.8,0.6-1.9,1.2-3.2c0.2-0.3,0.3-0.6,0.4-0.8c0.3-0.7,1-2.1,1.6-2.8c0.4-0.6,0.8-1.2,0.5-2.1
			c0-0.2-0.1-0.2-0.1-0.2c-0.2-0.1-0.8,0.1-1.8,0.5c-0.4,0.2-0.7,0.3-0.9,0.5c-0.6,0.3-1.1,0.7-1.9,0.7c-1.7,0.3-2.4-1.5-2.7-2.2
			c-0.4-0.9-0.1-1.8,0.3-2.8c0.2-0.5,0.4-1,0.5-1.5c0.2-1.1,1-2.1,1.8-2.9c0.3-0.4,0.7-0.8,0.9-1.1c0.6-0.8,0.5-1.8,0.4-2.6
			c0-0.2,0-0.4,0-0.6c0-0.5,0.1-1,0.1-1.5c0.1-0.5,0.1-1,0.2-1.7c0.1-0.5,0-0.6-0.1-0.7s-0.5,0-0.8,0.3c-1,0.7-1.7,1.5-1.8,2.2
			c0,0.1,0,0.3,0,0.4c-0.1,0.7-0.1,1.6-1.1,2c-0.3,0.1-0.5,0.2-0.7,0.2c-0.2,0.1-0.2,0.1-0.5,0.3c-0.1,0.1-0.3,0.4-0.6,0.6
			c-0.7,0.8-1.7,2-2.5,2.4c-0.8,0.3-1.3,0.9-1.8,1.8c-0.1,0.3-0.3,0.7-0.5,1.1c-0.4,1-0.9,2.1-1.6,2.8c-1.1,1.1-1.7,2.2-1.7,3
			c0,0.5-0.1,1.1-0.2,1.9C34,34.4,33.8,35.7,34,37c0,0.3,0.1,0.4,0.1,0.5c0.2-0.2,0.7-0.9,0.9-1.5c0.3-0.8,0.9-1.2,1.4-1.4
			C36.7,34.4,36.9,34.4,37.1,34.4z"/>
	</g>
	<g>
		<path class="st0" d="M85.7,101.1c-0.1-1,0.1-1.9,0-3.1c0-1.2-0.9-2-0.8-3.2c0.1-1.3,0.8-2.3,0.7-3.6c-0.2-1.6-0.9-1.6-2.2-2.1
			c-1-0.3-2.1-1.3-2.2-2.4c-0.1-1.3,1.6-2,2.1-3.2c0.3-0.7,0.2-1.2,0.3-1.9c0.1-0.8,0.4-0.7,0.7-1.3c0.2-0.5,0.1-1,0.2-1.5
			c0.2-0.9,0.4-0.9-0.1-1.5c-0.3-0.5-1-0.4-1.2-1.1c-0.1-0.3-0.1-1.3,0-1.6c0.4-0.8,2.6-1.5,3.4-1.7c2.1-0.6,4-0.6,6.3-0.8
			c2-0.2,0.8-1.6,1.2-2.8c0.4-1.1,2.5-0.2,3.6-0.1c1.1,0,2.3-0.3,3.4-0.1c1.3,0.2,2.6,0.9,2.1-1.2c-0.1-0.5-0.4-1-0.5-1.5
			c-0.2-0.9,0-2-0.1-2.9c-0.2-1.2-1-2-0.3-3.3c0.6-1.1,1.9-1.8,2.9-2.5c1.5-0.9,1.2-2.9,2.5-4.1c0.6-0.5,1.3-0.9,1.6-1.6
			c0.3-0.8,0.1-1.1,0.8-1.8c0.4-0.4,0.9-0.6,1.4-0.9c0.1-0.1,0.2-0.1,0.3-0.2c-0.2-0.1-0.5-0.2-0.7-0.4c-0.6-0.5-0.9-1.1-1.6-1.6
			c-0.6-0.4-1.5-0.5-2.1-0.9c-1.6-1-2-2.5-1.5-4.3c0.2-0.8,0.7-1.4,0.8-2.3c0.1-0.8,0-1.6,0-2.4c0,0.1,0.1,0.1,0.1,0
			c0-1.1,0.9-1.4,1.2-2.3c0.3-0.8,0.4-1.8,0.7-2.7c0.6-1.5,0.4-3.3,0.4-4.9c0,0.1,0,0.2,0,0.4c-0.1-0.7,0.1-2.2,0.8-2.7
			c0.5-0.4,1.4-0.1,2.1-0.2c0.8-0.1,2.5-0.3,3.1-0.6c0.9-0.4,0.9-1.1,1.5-1.7c1.2-1.1,2.9-0.8,3.2-2.5c0.3-1.4-0.8-2.9-1.8-3.9
			c-2.2-2.2-6.1-0.7-7.5-4c-1-2.4,1.9-6.6-1.4-7.7c-1.4-0.4-2.9-0.7-4.3-1.1c-1-0.4-2.2-1-3.2-1.7c-0.2,0.5-0.3,1-0.5,1.4
			c-0.6,1.7-1.3,2.7-2.5,4.9c-1.2,2-1.8,3.2-2,4.8c-0.1,1.6-0.4,5.5-0.5,8.1s-1.3,5.4-2.3,7.6s-4.1,4.9-5.7,7
			c-1.6,2.1-6.7,4.1-9,4.8c-2.3,0.6-3.2,0.8-4.2,1.8s-3,2.3-5.6,3.7c-2.5,1.4-3.6,2-5.1,3.6s-2.5,4.6-3,7.2c-0.5,2.6-1.5,5-2.1,6.7
			s-0.7,2.4-2.5,3.7s-2.7,2.6-3.9,3.9c-1.2,1.4-1.5,3.1-2.1,5c-0.6,1.8-1.5,2.4-3.5,3.4s-4.2,2.4-5.6,3.5c-1.4,1.1-3.9,3.7-5.1,5
			c-1.3,1.4-3.2,2.9-4.9,3.5c-1.6,0.6-3,0.6-4.7,0.2C25,90.7,25,90.7,24,91.5s-2,2.2-3,2.7s-2.2,1-3.7,2s-1.1,1.6-3.6,2.2
			s-3.4,1.6-5.3,2c-1.8,0.5-5.3,2.1-8.3,2.9c0.4,0.7,0.7,1.5,1.4,1.8c1.3,0.7,2.2-0.2,2.7,1.5c0.3,1,0.1,2.2,0.2,3.2
			c0.1,1.3,0.8,1.9,1.2,3.1c0.4,1.1,0,2.7,1.3,3.4c1.5,0.8,2.6-1,3.2-2c0.3-0.5,0.5-1.2,0.8-1.7s1.1-0.9,1.5-1.4
			c0.8-1.3,0.4-2.6,0.4-4c2.4-0.1,4.7,0,7,0.6c1.8,0.5,1.2,1,0.7,2.5c-0.4,1.2-0.6,2.3-0.7,3.6c1.1-0.1,3,1.1,3.9,0.4
			c0.5-0.4,0.4-1.5,0.9-2.1c0.7-0.7,1.5-0.5,2.5-0.5c1.5-0.1,2.4-0.6,3.6-1c0.7-0.3,3.3-0.8,3.1,0.7c1.7,0.4,0.7-2.8,1.2-3.6
			c0.7-1.2,3-1.3,3.8-2.3c1.1-1.3,0.9-3.1,2.6-4c1.4-0.7,3-0.5,4.5-0.6c0.8-0.1,1.7-0.5,2.4-0.4c0.9,0.1,0.9,0.7,1.3,1.5
			c0.4,0.7,0.8,1.4,1,2.2c0.4,1,0.1,1.5,0,2.5c-0.1,1.1-0.2,0.8,0.7,1.5c0.2,0.2,0.6,0.1,0.9,0.3c0.3,0.2,0.4,0.8,0.7,1.1
			c0.6,0.4,1.4,0.3,2.1,0.9c0.7,0.6,1.1,1.3,1.3,2.2c0.2,1.2-2.1,6.5,1,5.8c0.6-0.1,0.8-0.7,1.6-0.8c0.7,0,1.2,0.4,1.9,0.2
			c1.3-0.3,2.2-1.6,2.5-2.7c0.6-2.4,1.1-1.2,3.3-1.9c2.1-0.6,1.6-3.1,1.7-4.7c1.6-0.2,3.1,0.3,2.8-1.8c-0.2-1.3-2.2-2.9-0.4-3.9
			c1.5-0.8,3.1,0.6,4.4-0.6c1.2-1.1,1.9-2.4,2-3.9c1-0.1,5,3.6,5.4,4.6c0.5,1.2,0.1,1.9,1.6,2.6c0.3,0.1,0.6,0.2,0.9,0.3
			c0.1-0.5,0.3-1,0.3-1.5C85.5,103.2,85.9,102.1,85.7,101.1z"/>
		<path class="st1" d="M58.8,117.1c-0.4,0-0.8-0.1-1.1-0.4c-0.9-0.9-0.5-2.7-0.1-4.3c0.1-0.6,0.3-1.3,0.2-1.6
			c-0.2-0.8-0.5-1.4-1.1-1.9c-0.3-0.3-0.7-0.4-1-0.5s-0.7-0.2-1-0.4c-0.3-0.3-0.4-0.5-0.5-0.8c-0.1-0.1-0.1-0.3-0.2-0.4
			c-0.1,0-0.2-0.1-0.3-0.1c-0.2,0-0.5-0.1-0.7-0.3c-0.1-0.1-0.2-0.2-0.3-0.2c-0.6-0.4-0.7-0.6-0.6-1.3v-0.3c0-0.3,0.1-0.5,0.1-0.8
			c0.1-0.6,0.2-0.9-0.1-1.5c-0.2-0.8-0.6-1.4-1-2.1c-0.1-0.2-0.2-0.4-0.3-0.6c-0.2-0.5-0.3-0.6-0.7-0.7c-0.4,0-0.8,0.1-1.3,0.2
			c-0.3,0.1-0.7,0.2-1,0.2c-0.4,0-0.8,0-1.2,0c-1.1,0-2.2,0-3.1,0.5c-0.8,0.4-1.1,1.2-1.5,2c-0.2,0.6-0.5,1.3-1,1.8
			c-0.4,0.6-1.2,0.9-2,1.2c-0.7,0.3-1.5,0.6-1.8,1.1c-0.1,0.2-0.1,0.8-0.1,1.2c0,0.9,0,1.9-0.6,2.4c-0.2,0.2-0.6,0.3-1.1,0.2
			l-0.4-0.1l0.1-0.4c0-0.2,0-0.3-0.1-0.3c-0.4-0.3-1.8-0.1-2.3,0.1c-0.3,0.1-0.6,0.2-0.9,0.3c-0.8,0.3-1.7,0.6-2.9,0.7
			c-0.2,0-0.4,0-0.6,0c-0.8,0-1.2,0-1.6,0.4c-0.1,0.2-0.2,0.5-0.3,0.9c-0.1,0.5-0.2,1-0.6,1.3c-0.8,0.6-1.8,0.3-2.8,0
			c-0.5-0.2-1.1-0.3-1.4-0.3l-0.6,0.1v-0.6c0.1-1.4,0.3-2.5,0.7-3.7c0.1-0.3,0.2-0.5,0.3-0.7c0.1-0.3,0.3-0.7,0.2-0.8
			c0,0-0.1-0.2-0.8-0.4c-1.9-0.5-3.8-0.7-6.4-0.6c0,0.2,0,0.4,0,0.5c0.1,1.1,0.2,2.1-0.5,3.3c-0.3,0.3-0.5,0.6-0.8,0.8
			c-0.3,0.2-0.6,0.4-0.7,0.6c-0.1,0.2-0.2,0.5-0.4,0.8c-0.1,0.3-0.3,0.6-0.4,0.9c-0.6,1-1.9,3.2-3.9,2.2c-1.1-0.6-1.2-1.7-1.3-2.6
			c0-0.4-0.1-0.8-0.2-1.1c-0.1-0.4-0.3-0.8-0.5-1.1c-0.3-0.6-0.6-1.2-0.7-2.1c0-0.4,0-0.8,0-1.2c0-0.6,0-1.3-0.2-1.9
			c-0.2-0.7-0.4-0.8-1-0.8c-0.4,0-0.9-0.1-1.5-0.4c-0.7-0.3-1.1-1-1.4-1.6c-0.1-0.1-0.1-0.3-0.2-0.4L1,100.9l0.6-0.2
			c1.7-0.5,3.6-1.2,5.2-1.8C8,98.4,9.1,98,9.9,97.8c0.9-0.2,1.5-0.5,2.2-0.8c0.8-0.4,1.7-0.8,3.1-1.2c1.5-0.4,1.8-0.7,2.3-1.2
			c0.3-0.3,0.6-0.6,1.1-1c1.2-0.8,2.2-1.3,3.1-1.7c0.2-0.1,0.4-0.2,0.7-0.3c0.5-0.3,1.1-0.9,1.7-1.4c0.4-0.4,0.8-0.9,1.2-1.2
			c1.2-1,1.4-0.9,3.3-0.2c1.6,0.4,2.9,0.3,4.3-0.2c1.4-0.5,3.3-1.8,4.7-3.4c1.2-1.4,3.7-3.9,5.2-5.1s3.7-2.6,5.7-3.6
			c1.9-1,2.7-1.5,3.2-3.1c0.1-0.4,0.2-0.7,0.3-1.1c0.4-1.5,0.8-2.9,1.9-4.1c0.3-0.3,0.6-0.7,0.9-1c0.8-1,1.7-2,3.1-3
			c1.5-1.1,1.7-1.6,2.2-3l0.2-0.5c0.1-0.3,0.3-0.7,0.4-1.1c0.6-1.6,1.3-3.5,1.7-5.5c0.3-1.6,1.2-5.4,3.1-7.4
			c1.5-1.6,2.6-2.2,5.1-3.6l0.1-0.1c2.7-1.4,4.6-2.7,5.5-3.6c1.1-1.1,2-1.3,4.1-1.9l0.3-0.1c2.6-0.8,7.3-2.8,8.7-4.6
			c0.6-0.8,1.4-1.6,2.2-2.5c1.4-1.5,2.8-3.1,3.4-4.4c1-2.3,2.2-4.9,2.3-7.4c0.1-1.9,0.3-4.5,0.4-6.4c0-0.7,0.1-1.3,0.1-1.7
			c0.2-1.7,0.8-2.9,2.1-5c0.3-0.6,0.6-1.1,0.9-1.5c0.7-1.2,1.2-2.1,1.6-3.3c0.1-0.3,0.2-0.5,0.3-0.7c0.1-0.2,0.1-0.4,0.2-0.7
			l0.2-0.6l0.5,0.4c0.9,0.6,2,1.2,3.1,1.6c0.6,0.2,1.4,0.4,2.1,0.5c0.7,0.2,1.5,0.4,2.2,0.6c2.4,0.8,2.1,3.1,1.8,4.9
			c-0.2,1.1-0.4,2.2,0,3c0.7,1.6,2.1,1.9,3.7,2.2c1.3,0.3,2.7,0.5,3.7,1.6c1.1,1.1,2.3,2.7,1.9,4.4c-0.2,1.3-1.2,1.7-2,2
			c-0.5,0.2-1,0.4-1.3,0.7c-0.2,0.2-0.3,0.4-0.4,0.6c-0.2,0.4-0.5,0.9-1.2,1.2c-0.6,0.3-1.9,0.5-3.1,0.6h-0.1c-0.3,0-0.6,0-0.9,0
			c-0.4,0-0.8,0-0.9,0.1c-0.4,0.3-0.6,1.2-0.6,1.9l0,0c0,0.3,0,0.6,0,1c0,1.4,0.1,2.8-0.5,4.1c-0.1,0.4-0.2,0.8-0.3,1.2
			c-0.1,0.5-0.2,1-0.4,1.4c-0.1,0.4-0.4,0.8-0.7,1.1c-0.3,0.4-0.5,0.6-0.5,1.1v0.5H109c0,0.1,0,0.2,0,0.3c0,0.5,0,1.1,0,1.7
			c-0.1,0.6-0.3,1.1-0.5,1.5c-0.1,0.3-0.3,0.6-0.3,0.9c-0.5,1.7-0.1,2.9,1.3,3.8c0.3,0.2,0.6,0.3,0.9,0.4c0.4,0.1,0.8,0.3,1.2,0.5
			c0.5,0.3,0.8,0.7,1,1c0.2,0.2,0.4,0.5,0.6,0.6c0.1,0.1,0.3,0.2,0.4,0.3l0.8,0.4l-0.5,0.5c-0.1,0.1-0.2,0.2-0.3,0.2l-0.1,0.1
			c-0.1,0.1-0.3,0.2-0.4,0.2c-0.3,0.2-0.6,0.3-0.9,0.6c-0.4,0.4-0.4,0.5-0.5,0.9c0,0.2-0.1,0.4-0.2,0.7c-0.3,0.7-0.8,1.1-1.3,1.5
			c-0.1,0.1-0.3,0.2-0.4,0.3c-0.5,0.5-0.7,1.1-1,1.8c-0.3,0.9-0.6,1.8-1.6,2.4c-0.2,0.1-0.4,0.2-0.6,0.4c-0.8,0.6-1.7,1.1-2.2,1.9
			c-0.4,0.7-0.2,1.2,0,1.9c0.1,0.3,0.2,0.7,0.3,1.1c0.1,0.4,0,0.9,0,1.3c0,0.5,0,1.1,0.1,1.5c0,0.2,0.1,0.4,0.2,0.7
			c0.1,0.3,0.2,0.5,0.3,0.8c0.1,0.6,0.2,1.3-0.2,1.8c-0.5,0.5-1.2,0.3-1.8,0.2c-0.2,0-0.4-0.1-0.6-0.1c-0.6-0.1-1.3,0-2,0
			c-0.4,0-0.9,0.1-1.3,0.1s-0.7-0.1-1.1-0.2c-0.7-0.2-1.9-0.4-2,0c-0.1,0.3-0.1,0.7,0,1c0.1,0.5,0.1,1.1-0.2,1.5
			c-0.3,0.3-0.7,0.5-1.4,0.6c-0.5,0-1,0.1-1.5,0.1c-1.7,0.1-3.1,0.2-4.7,0.7c-1.3,0.3-2.9,1-3.1,1.4c0,0.1,0,1,0,1.2
			c0.1,0.2,0.1,0.3,0.4,0.4c0.2,0.1,0.5,0.3,0.7,0.6c0.5,0.5,0.4,0.8,0.3,1.4c0,0.1-0.1,0.3-0.1,0.5s0,0.3,0,0.5
			c0,0.3,0,0.7-0.2,1.1c-0.2,0.3-0.3,0.5-0.4,0.6c-0.1,0.2-0.2,0.2-0.2,0.6c0,0.2,0,0.4-0.1,0.6c0,0.4,0,0.9-0.3,1.4
			c-0.2,0.6-0.7,1-1.1,1.5c-0.5,0.5-1,1-0.9,1.5c0.1,0.9,1,1.7,1.8,2c0.2,0.1,0.4,0.1,0.5,0.2c1,0.4,1.8,0.6,2,2.3
			c0.1,0.8-0.2,1.5-0.4,2.2c-0.2,0.5-0.3,1-0.3,1.5s0.1,0.9,0.4,1.4c0.2,0.5,0.4,1.1,0.4,1.7c0.1,0.6,0,1.1,0,1.7c0,0.5,0,0.9,0,1.4
			c0.2,0.8,0,1.6-0.2,2.5c-0.1,0.3-0.1,0.6-0.2,1c0,0.3-0.1,0.7-0.2,1c0,0.2-0.1,0.3-0.1,0.5l-0.1,0.6l-1.4-0.5
			c-1.3-0.6-1.5-1.3-1.7-2c-0.1-0.3-0.1-0.5-0.3-0.9c-0.3-0.9-3.3-3.5-4.5-4.2c-0.2,1.4-0.9,2.6-2.1,3.6c-0.9,0.8-1.8,0.7-2.7,0.6
			c-0.6-0.1-1.2-0.2-1.8,0.1c-0.5,0.3-0.5,0.6-0.5,0.7c0,0.3,0.3,0.8,0.5,1.2c0.3,0.5,0.5,1,0.6,1.5c0.1,0.8,0,1.3-0.3,1.7
			c-0.5,0.5-1.2,0.6-2,0.6c-0.2,0-0.3,0-0.5,0c0,0.2,0,0.3,0,0.5c0,1.5,0,3.6-2,4.2c-0.8,0.3-1.4,0.3-1.8,0.3c-0.7,0-0.8,0-1.1,1.3
			s-1.4,2.7-2.9,3.1c-0.5,0.1-1,0-1.4-0.1c-0.2-0.1-0.4-0.1-0.7-0.1c-0.2,0-0.4,0.2-0.6,0.3c-0.2,0.2-0.5,0.4-0.9,0.5
			C59.2,117,59,117.1,58.8,117.1z M53,105.4c0,0,0.1,0.1,0.2,0.1c0.1,0.1,0.2,0.2,0.4,0.3c0,0,0.1,0,0.2,0.1c0.2,0,0.4,0.1,0.7,0.2
			c0.3,0.2,0.4,0.5,0.5,0.8c0.1,0.2,0.2,0.3,0.2,0.4c0.1,0.1,0.4,0.1,0.6,0.2c0.4,0.1,0.9,0.3,1.4,0.7c0.8,0.7,1.2,1.4,1.5,2.5
			c0.1,0.5-0.1,1.1-0.3,2c-0.2,1.1-0.6,2.9-0.1,3.4c0.2,0.2,0.5,0.1,0.8,0.1c0.2,0,0.3-0.1,0.5-0.3c0.3-0.2,0.6-0.5,1.2-0.5
			c0.4,0,0.7,0.1,1,0.1c0.3,0.1,0.6,0.1,0.8,0.1c1.1-0.3,1.9-1.4,2.2-2.4c0.4-1.8,1-2,2-2c0.4,0,0.9,0,1.6-0.2
			c1.3-0.4,1.3-1.5,1.3-3.2c0-0.4,0-0.7,0-1v-0.4l0.4-0.1c0.3,0,0.7-0.1,1-0.1c0.6,0,1.1,0,1.3-0.2c0.1-0.1,0.2-0.5,0.1-0.9
			c0-0.3-0.3-0.7-0.5-1.1c-0.3-0.5-0.6-1-0.6-1.6c-0.1-0.7,0.3-1.3,1-1.7c0.8-0.4,1.7-0.3,2.4-0.2c0.8,0.1,1.4,0.2,1.9-0.3
			c1.1-1,1.8-2.2,1.8-3.6v-0.4h0.4c1.3-0.2,5.5,3.8,5.9,4.9c0.2,0.4,0.2,0.7,0.3,1c0.1,0.6,0.2,0.9,1,1.3l0.3,0.1
			c0.1-0.3,0.2-0.6,0.2-0.9c0.1-0.4,0.1-0.8,0.2-1.1c0.2-0.8,0.3-1.5,0.2-2.1l0,0c-0.1-0.5,0-1,0-1.5s0.1-1,0-1.6
			c0-0.5-0.2-0.9-0.4-1.4c-0.2-0.5-0.5-1.2-0.4-1.9c0-0.6,0.2-1.2,0.4-1.7c0.2-0.6,0.4-1.2,0.3-1.8c-0.1-1-0.4-1.1-1.4-1.5
			c-0.2-0.1-0.3-0.1-0.5-0.2c-1.1-0.3-2.4-1.5-2.5-2.8c-0.1-1,0.6-1.7,1.2-2.3c0.4-0.4,0.7-0.7,0.9-1.2c0.2-0.4,0.2-0.7,0.2-1.1
			c0-0.2,0-0.4,0.1-0.7c0.1-0.6,0.3-0.8,0.5-1.1c0.1-0.1,0.2-0.2,0.3-0.4c0.1-0.2,0.1-0.4,0.1-0.7c0-0.2,0-0.5,0.1-0.7
			s0.1-0.4,0.1-0.5s0.1-0.2,0.1-0.3c0,0,0-0.1-0.2-0.3c-0.1-0.2-0.2-0.2-0.4-0.3c-0.3-0.1-0.7-0.4-0.9-1c-0.1-0.4-0.1-1.5,0-1.9
			c0.6-1.2,3.4-1.9,3.8-2c1.7-0.5,3.2-0.6,4.9-0.7c0.5,0,1-0.1,1.5-0.1s0.6-0.2,0.7-0.2c0.1-0.1,0.1-0.4,0-0.8
			c0-0.4-0.1-0.9,0.1-1.5c0.5-1.2,2-0.9,3.2-0.6c0.4,0.1,0.7,0.2,1,0.2s0.8,0,1.2-0.1c0.7-0.1,1.5-0.1,2.3,0c0.2,0,0.5,0.1,0.7,0.1
			c0.3,0.1,0.8,0.2,0.9,0.1c0,0,0.1-0.2-0.1-0.8c0-0.2-0.1-0.4-0.2-0.7c-0.1-0.3-0.2-0.5-0.3-0.8c-0.1-0.6-0.1-1.2-0.1-1.8
			c0-0.4,0-0.8,0-1.2c0-0.3-0.2-0.6-0.3-0.9c-0.3-0.7-0.6-1.6,0-2.7c0.5-1,1.6-1.7,2.5-2.3c0.2-0.1,0.4-0.3,0.6-0.4
			c0.7-0.4,0.9-1.1,1.2-1.9c0.3-0.7,0.6-1.6,1.2-2.2c0.2-0.1,0.3-0.2,0.5-0.4c0.4-0.3,0.8-0.6,1-1.1c0.1-0.2,0.1-0.4,0.2-0.6
			c0.1-0.4,0.2-0.8,0.8-1.4c0.3-0.3,0.7-0.5,1.1-0.7c0,0,0,0-0.1-0.1c-0.3-0.2-0.5-0.5-0.7-0.7c-0.3-0.3-0.5-0.6-0.8-0.8
			c-0.2-0.2-0.6-0.3-0.9-0.4c-0.4-0.1-0.8-0.3-1.2-0.5c-1.7-1.1-2.3-2.7-1.7-4.9c0.1-0.4,0.2-0.7,0.4-1c0.2-0.4,0.3-0.8,0.4-1.2
			c0.1-0.5,0-1,0-1.5c0-0.3,0-0.5,0-0.8h0.1c0-0.8,0.4-1.3,0.7-1.7c0.2-0.2,0.4-0.5,0.5-0.7c0.2-0.4,0.2-0.9,0.3-1.3
			c0.1-0.5,0.2-0.9,0.4-1.4c0.5-1.1,0.4-2.5,0.4-3.8c0-0.2,0-0.3,0-0.5c-0.1-0.8,0.1-2.5,1-3.2c0.4-0.4,1.1-0.3,1.6-0.3
			c0.3,0,0.5,0,0.7,0h0.1c0.7-0.1,2.3-0.3,2.8-0.5c0.4-0.2,0.6-0.4,0.8-0.8c0.1-0.2,0.3-0.5,0.6-0.8c0.5-0.5,1.1-0.7,1.7-1
			c0.8-0.3,1.3-0.5,1.4-1.3c0.3-1.3-0.9-2.7-1.7-3.5c-0.8-0.8-2-1.1-3.2-1.3c-1.6-0.3-3.5-0.7-4.4-2.8c-0.4-1.1-0.2-2.4,0-3.6
			c0.3-2,0.5-3.3-1.1-3.8c-0.7-0.2-1.4-0.4-2.1-0.5c-0.7-0.2-1.5-0.4-2.2-0.6c-1-0.4-2-0.9-2.8-1.4l0,0c-0.1,0.3-0.2,0.6-0.3,0.8
			c-0.4,1.2-0.9,2.1-1.7,3.4c-0.3,0.4-0.5,0.9-0.9,1.5c-1.2,2-1.8,3.1-1.9,4.6c0,0.4-0.1,1-0.1,1.7c-0.1,1.9-0.3,4.5-0.4,6.3
			c-0.1,2.7-1.3,5.4-2.3,7.8c-0.7,1.5-2.2,3.1-3.6,4.6c-0.8,0.9-1.6,1.7-2.2,2.5c-1.8,2.3-7.3,4.4-9.3,5L81,38.6
			c-2.1,0.5-2.8,0.7-3.7,1.6C76,41.5,73.5,43,71.6,44l-0.1,0.1c-2.4,1.4-3.4,1.9-4.8,3.4c-1.2,1.3-2.3,3.9-2.9,7
			c-0.4,2.1-1.1,4.1-1.7,5.7c-0.1,0.4-0.3,0.7-0.4,1.1l-0.2,0.5C61,63.2,60.7,64,59,65.3c-1.3,0.9-2.1,1.9-3,2.8
			c-0.3,0.3-0.6,0.7-0.9,1c-0.9,1-1.2,2.3-1.7,3.7c-0.1,0.4-0.2,0.7-0.3,1.1c-0.7,2-1.7,2.7-3.8,3.7c-1.9,0.9-4.1,2.3-5.5,3.4
			s-3.8,3.6-5,4.9s-3.2,3-5.1,3.6c-1.6,0.6-3.1,0.7-5,0.2c-1.6-0.6-1.6-0.6-2.4,0c-0.4,0.3-0.8,0.7-1.2,1.1
			c-0.6,0.6-1.3,1.3-1.9,1.6c-0.2,0.1-0.4,0.2-0.7,0.3c-0.9,0.4-1.8,0.9-3,1.6c-0.5,0.3-0.7,0.6-1,0.8c-0.5,0.5-1,1-2.8,1.4
			c-1.2,0.3-2.1,0.7-2.9,1.1c-0.8,0.4-1.5,0.7-2.4,0.9c-0.7,0.2-1.8,0.6-3,1.1c-1.5,0.6-3.1,1.2-4.7,1.7c0.2,0.5,0.5,0.9,0.9,1
			c0.4,0.2,0.8,0.3,1.1,0.3c0.7,0.1,1.4,0.1,1.8,1.5c0.2,0.7,0.2,1.4,0.2,2.2c0,0.4,0,0.8,0,1.1c0.1,0.7,0.3,1.2,0.6,1.7
			c0.2,0.4,0.4,0.8,0.6,1.3c0.1,0.4,0.2,0.8,0.2,1.3c0.1,0.9,0.2,1.5,0.8,1.8c0.9,0.5,1.7-0.4,2.5-1.8c0.1-0.2,0.2-0.5,0.4-0.8
			c0.1-0.3,0.3-0.6,0.4-0.9c0.2-0.4,0.6-0.6,0.9-0.9c0.2-0.2,0.5-0.4,0.6-0.6c0.5-0.8,0.4-1.6,0.3-2.6c0-0.4-0.1-0.7-0.1-1.1v-0.5
			h0.5c2.9-0.1,5.1,0.1,7.1,0.6c0.9,0.2,1.3,0.5,1.5,0.9c0.2,0.5,0,1-0.2,1.6c-0.1,0.2-0.2,0.4-0.2,0.7c-0.3,1-0.5,1.9-0.6,3
			c0.4,0.1,0.8,0.2,1.2,0.3c0.7,0.2,1.5,0.5,1.9,0.2c0.1-0.1,0.2-0.4,0.3-0.7c0.1-0.4,0.2-0.9,0.5-1.3c0.8-0.8,1.6-0.7,2.4-0.7
			c0.2,0,0.3,0,0.5,0c1-0.1,1.8-0.4,2.5-0.7c0.3-0.1,0.6-0.2,0.9-0.3c0.5-0.2,2.4-0.7,3.3,0c0.2,0.1,0.3,0.3,0.4,0.6
			c0.1-0.3,0.1-1,0.1-1.5c0-0.7,0-1.4,0.2-1.8c0.5-0.8,1.4-1.1,2.3-1.5c0.6-0.2,1.3-0.5,1.6-0.9c0.4-0.5,0.6-1,0.8-1.6
			c0.3-0.9,0.7-1.9,1.9-2.6C44,98,45.2,98,46.4,98c0.4,0,0.7,0,1.1,0c0.3,0,0.6-0.1,0.8-0.2c0.6-0.1,1.1-0.3,1.7-0.2
			c1,0.1,1.2,0.7,1.5,1.3c0.1,0.1,0.1,0.3,0.2,0.5c0.4,0.7,0.8,1.4,1,2.3c0.3,0.8,0.2,1.4,0.1,2c0,0.2-0.1,0.4-0.1,0.7v0.3
			C53,105.2,53,105.4,53,105.4L53,105.4z"/>
	</g>
</g>
</svg>
