<?xml version="1.0" encoding="utf-8"?>
<!-- Generator: Adobe Illustrator 28.0.0, SVG Export Plug-In . SVG Version: 6.00 Build 0)  -->
<svg version="1.1" id="_レイヤー_2" xmlns="http://www.w3.org/2000/svg" xmlns:xlink="http://www.w3.org/1999/xlink" x="0px"
	 y="0px" viewBox="0 0 120 120" style="enable-background:new 0 0 120 120;" xml:space="preserve">
<style type="text/css">
	.st0{fill:#F0E3D2;}
	.st1{fill:#D7323A;}
</style>
<g>
	<path class="st0" d="M119.3,40.2c-0.5-7.5-2.8-14-4.5-16.7c-0.6-1-1.1-2.3-1.4-3.7c-1.1,0-2.1,0.2-2.9,0.8
		c-1.6,1.2-1.1,3.5-2.1,5.2c-1.2,1.9-1.8,3.6-4.1,3.4c-1.8-0.1-4.7-0.4-5.4-2c-0.3-0.7-0.1-1.5-0.4-2.2c-0.4-0.9-1.2-1.5-1.4-2.4
		c-0.4-1.3,0.3-1.5-0.9-2.3c-0.7-0.4-1.7-0.5-2.5-0.9c-2.1-1.2-2.5-0.4-4.6,0.3c-1.2,0.4-4,1-4.9-0.5c-0.4-0.7,0.4-2.1,0-2.7
		c-0.2-0.5-1.7-1-2.2-1.4c-2.2-1.7-2.3-0.4-4.7,0c-1.7,0.3-4.6-1.8-5.9-0.3c-0.7,0.9-0.3,3.9-0.3,5c-0.1,1-0.3,2.4,0,3.4
		c0.2,0.8,0.9,1.5,1.1,2.4c0.3,1.3-0.2,3.9-1.3,5c-1.4,1.4-3.7,0.1-5.6,0.6c-1.1,0.3-1.4,1.2-2.5,1.3c-0.7,0-1.9-0.5-2.5-0.9
		c-0.7-0.5-1.3-1.9-2.1-2.1c-1.1-0.3-1.5,0.7-2.5,1c-2.4,0.8-3.1-0.8-3.9-2.4c-1.1-2.3-1.8-2.3-4.4-2.1c-1.9,0.2-3.7,0.2-5.6,0.2
		c-1.5,0-3.2,0.3-4.6-0.3c-0.1,0.1-0.2,0.2-0.3,0.3c-0.6,0.4-1.2,0.6-1.7,1.1c-0.8,0.8-0.6,1.2-1,2.1s-1.3,1.3-2,2
		c-1.5,1.4-1.1,3.8-3,4.9c-1.3,0.8-2.8,1.7-3.6,3c-0.8,1.5,0.1,2.5,0.3,4c0.2,1.1-0.1,2.4,0.1,3.5c0.1,0.7,0.5,1.2,0.6,1.8
		c0.6,2.5-1,1.7-2.6,1.4c-1.3-0.2-2.7,0.1-4.1,0.1c-1.3,0-3.9-1.2-4.4,0.2c-0.5,1.5,1,3.2-1.5,3.4c-2.7,0.3-5,0.3-7.6,1
		c-0.9,0.3-3.6,1.1-4.1,2.1c-0.2,0.4-0.2,1.6-0.1,2c0.3,0.8,1,0.8,1.5,1.3c0.6,0.8,0.3,0.8,0.1,1.8c-0.1,0.6,0,1.3-0.3,1.9
		c-0.4,0.7-0.7,0.7-0.8,1.6s0,1.5-0.3,2.3C2,69.2-0.2,70,0,71.6c0.2,1.4,1.4,2.6,2.7,3c1.6,0.5,2.5,0.6,2.7,2.5
		c0.2,1.6-0.8,2.9-0.9,4.4s0.9,2.4,1,3.9c0,1.4-0.2,2.5-0.1,3.7c0.2,1.3-0.2,2.5-0.3,3.9c0,0.6-0.2,1.3-0.4,1.9
		C6,95.1,7.5,95,8.8,95.3c2.2,0.5,6.1,3.2,7.8,0.6c0.4-0.6,0.3-1.4,0.7-1.9c0.6-0.7,1.6-0.8,2.4-1.1c3.3-1.3,6.2-2.5,9.2-4.2
		c0.8-0.4,1.8-0.7,2.5-1.1c0.9-0.5,1.8-1.2,2.7-1.7c2-1,4.8-0.4,6.6-2c1.5-1.4,0.6-2.9,2.5-4.1c1.5-0.9,4.1-1.1,5.9-1.3
		c2-0.3,4.1-0.1,5.9,0.6c3.6,1.4,7.3,2.1,9.8,5.3c0.6,0.8,1.2,1.5,1.8,2.2c0.6,0.7,1.7,1.4,2.3,2.2c1.1,1.4,0.4,3,0.6,4.7
		c0.3,2.1,1.9,1.8,3.7,2.7c1.3,0.7,1.4,0.9,2,1.9c0.4,0.6,0.3,0.9,0.8,1.4c0.3,0.3,1,0,1.2,0.3c0.5,0.6,0.1,1.7,0.7,2.4
		c0.7,0.8,2,0.8,2.8,1.5c1.8,1.5,3.1,3.1,5.1,1.1c0.7-0.7,1.2-1.7,1.9-2.4c1.1-0.9,3-1.3,3.5-2.7c0.7-1.9-1.8-3-1.5-4.8
		c0.7-0.2,2.2,0.5,2.5,1c0.8,1,0.3,1.5,2,1.9c1.2,0.3,2.5-0.1,3.6,0.4c1.6,0.7,2.7,1.4,4.4,1.8c0.7,0.1,1.6,0.2,2.4,0.3
		c0.7-2.4,3-4.7,7.5-5.5c4-0.7,4.5-3.8,4.2-6.3c-0.4-2.5,0.4-7.5,1.7-11.6C121,68.9,119.8,47.6,119.3,40.2z"/>
	<path class="st1" d="M86,104.2c-1.1,0-2.1-0.8-3-1.7c-0.2-0.2-0.4-0.3-0.6-0.5c-0.3-0.3-0.7-0.4-1.2-0.6c-0.6-0.2-1.2-0.4-1.7-1
		c-0.4-0.5-0.5-1.1-0.5-1.6c0-0.3-0.1-0.6-0.2-0.8c-0.3,0-0.8,0.1-1.2-0.3c-0.4-0.4-0.5-0.7-0.6-0.9c-0.1-0.2-0.1-0.3-0.3-0.5
		c-0.6-1-0.7-1.1-1.8-1.7c-0.5-0.2-0.9-0.4-1.4-0.5c-1.1-0.4-2.3-0.7-2.6-2.5c-0.1-0.6,0-1.2,0-1.8c0.1-1,0.1-1.9-0.5-2.7
		c-0.3-0.4-0.8-0.8-1.2-1.2c-0.4-0.3-0.8-0.7-1.1-1c-0.6-0.7-1.2-1.4-1.8-2.2c-1.9-2.4-4.6-3.4-7.4-4.3c-0.7-0.3-1.5-0.5-2.2-0.8
		C55,76.9,53,76.7,51.1,77l-0.6,0.1c-1.6,0.2-3.9,0.4-5.2,1.2c-0.9,0.5-1,1.1-1.2,1.9c-0.2,0.7-0.4,1.4-1.2,2.2
		c-1.2,1-2.6,1.2-4,1.4c-1,0.1-1.9,0.3-2.7,0.6c-0.4,0.2-0.9,0.5-1.3,0.8c-0.5,0.3-0.9,0.6-1.4,0.9c-0.4,0.2-0.9,0.4-1.4,0.6
		c-0.4,0.2-0.8,0.3-1.1,0.5c-3.1,1.7-6.1,3-9.2,4.2c-0.2,0.1-0.5,0.2-0.7,0.2c-0.6,0.2-1.1,0.3-1.5,0.7c-0.1,0.2-0.2,0.4-0.2,0.7
		c-0.1,0.4-0.2,0.8-0.4,1.1c-1.5,2.3-4.4,1.1-6.4,0.3c-0.7-0.3-1.4-0.5-1.9-0.7c-0.7-0.2-1.5-0.2-2.3-0.2c-0.6,0-1.2-0.1-1.8-0.2
		l-0.6,0l0.2-0.6c0.2-0.5,0.4-1.2,0.4-1.7s0.1-1,0.2-1.5c0.1-0.8,0.2-1.6,0.1-2.3c-0.1-0.8,0-1.5,0-2.2C7,84.5,7,84,7,83.4
		s-0.3-1.1-0.5-1.6c-0.3-0.7-0.6-1.4-0.5-2.3c0-0.7,0.3-1.4,0.5-2C6.8,76.7,7,76,6.9,75.2c-0.1-1.4-0.6-1.6-2-2l-0.4-0.1
		c-1.6-0.5-2.8-1.9-3-3.4c-0.1-1.1,0.6-1.9,1.3-2.6c0.5-0.5,0.9-0.9,1.1-1.5c0.2-0.5,0.2-0.9,0.2-1.4c0-0.3,0-0.5,0.1-0.8
		c0.1-0.7,0.3-1,0.5-1.3C4.8,62,4.9,61.8,5,61.6c0.1-0.3,0.2-0.7,0.2-1c0-0.2,0-0.5,0.1-0.7c0.1-0.3,0.1-0.5,0.2-0.7
		c0.1-0.4,0.1-0.4-0.2-0.7c-0.1-0.1-0.3-0.2-0.5-0.3C4.5,57.9,4,57.7,3.7,57c-0.1-0.5-0.2-1.8,0.1-2.4c0.5-1,2.3-1.7,4.1-2.3
		l0.3-0.1c1.9-0.5,3.7-0.7,5.5-0.8c0.7-0.1,1.4-0.1,2.2-0.2c0.6-0.1,0.9-0.2,1-0.3c0.1-0.2,0.1-0.6,0.1-1c-0.1-0.5-0.1-1.1,0.1-1.8
		c0.5-1.4,2.3-1,3.5-0.8c0.5,0.1,1,0.2,1.3,0.2c0.5,0,1,0,1.5-0.1c0.9-0.1,1.8-0.1,2.6,0c0.3,0,0.5,0.1,0.8,0.2
		c0.4,0.1,1.2,0.3,1.3,0.1c0,0,0.2-0.2-0.1-1.1c0-0.3-0.1-0.5-0.2-0.7c-0.1-0.3-0.3-0.7-0.4-1.1c-0.1-0.6-0.1-1.2-0.1-1.8
		s0-1.1,0-1.6c-0.1-0.5-0.2-0.9-0.3-1.2c-0.3-0.9-0.6-1.9,0.1-3.1c0.9-1.4,2.4-2.3,3.7-3.1l0.1-0.1c0.9-0.5,1.2-1.4,1.5-2.4
		c0.3-0.9,0.6-1.8,1.4-2.5c0.2-0.2,0.5-0.5,0.8-0.7c0.5-0.4,0.9-0.7,1.1-1.2c0.1-0.3,0.2-0.5,0.2-0.7c0.1-0.5,0.2-0.9,0.9-1.5
		c0.4-0.4,0.8-0.6,1.2-0.8c0.2-0.1,0.4-0.2,0.6-0.4l0.5-0.5l0.3,0.1c0.9,0.4,2.1,0.4,3.2,0.3c2.4-0.1,4.5,0,6.7-0.2
		c2.8-0.2,3.7-0.2,4.9,2.4l0.1,0.2c0.8,1.7,1.4,2.6,3.2,2c0.3-0.1,0.6-0.3,0.8-0.5c0.5-0.3,1.1-0.8,2-0.5c0.6,0.2,1.1,0.8,1.5,1.3
		c0.2,0.3,0.5,0.7,0.7,0.8c0.6,0.4,1.6,0.8,2.2,0.8c0.4,0,0.7-0.3,1-0.5c0.3-0.3,0.7-0.6,1.3-0.8c0.9-0.2,1.7-0.1,2.6,0
		c1.1,0.1,2.1,0.2,2.8-0.4c0.9-0.9,1.4-3.3,1.2-4.5c-0.1-0.4-0.3-0.8-0.5-1.2c-0.2-0.4-0.5-0.8-0.6-1.2c-0.3-1-0.2-2.2,0-3.2v-0.3
		c0-0.2,0-0.5,0-0.9c-0.1-1.9-0.2-3.6,0.4-4.3c1-1.2,2.6-0.7,4-0.3c0.8,0.2,1.6,0.5,2.2,0.4c0.7-0.1,1.2-0.3,1.7-0.5
		c1.1-0.5,1.8-0.7,3.4,0.6c0.2,0.1,0.5,0.3,0.8,0.4c0.7,0.3,1.3,0.7,1.5,1.1c0.3,0.5,0.2,1.1,0.1,1.6c-0.1,0.4-0.2,0.9-0.1,1.1
		c0.7,1.1,3.1,0.7,4.3,0.3c0.5-0.2,0.9-0.3,1.2-0.5c1.2-0.5,2-0.8,3.8,0.2c0.3,0.2,0.7,0.3,1.1,0.4c0.5,0.1,1,0.3,1.4,0.5
		c0.9,0.6,1,1.1,1,1.7c0,0.2,0,0.5,0.1,0.9s0.4,0.8,0.7,1.2c0.3,0.3,0.5,0.7,0.7,1.1s0.2,0.9,0.2,1.3c0,0.3,0,0.7,0.2,0.9
		c0.4,1,2.1,1.5,5,1.7c1.6,0.1,2.2-0.7,3.2-2.3c0.2-0.3,0.3-0.5,0.5-0.8c0.4-0.6,0.5-1.3,0.7-2.1c0.2-1.2,0.5-2.4,1.6-3.2
		c0.8-0.6,1.9-0.9,3.2-0.9h0.4l0.1,0.4c0.3,1.3,0.8,2.6,1.3,3.5c1.9,3,4.1,9.8,4.6,16.9c0.7,10.6,1.5,29.4-1.3,36.9
		c-1.3,4.2-2,9-1.7,11.3c0.5,3.8-1.2,6.3-4.6,6.9c-3.8,0.7-6.3,2.5-7.1,5.1l-0.1,0.4l-1.2-0.1c-0.6-0.1-1.1-0.1-1.6-0.2
		c-1.3-0.3-2.3-0.8-3.3-1.2c-0.4-0.2-0.8-0.4-1.3-0.6s-1.1-0.2-1.8-0.2c-0.6,0-1.1,0-1.7-0.1c-1.3-0.3-1.6-0.7-1.8-1.4
		c-0.1-0.2-0.2-0.4-0.4-0.7c-0.2-0.3-1-0.7-1.6-0.8c0.1,0.5,0.4,0.9,0.7,1.5c0.6,0.8,1.2,1.8,0.8,3c-0.4,1.1-1.5,1.7-2.4,2.2
		c-0.5,0.2-0.9,0.5-1.3,0.8c-0.3,0.3-0.6,0.7-0.9,1.1s-0.6,0.9-1,1.3C87.4,103.9,86.7,104.2,86,104.2z M52.9,75.9
		c1.5,0,3,0.3,4.3,0.8c0.7,0.3,1.4,0.5,2.2,0.8c2.8,1,5.8,2,7.9,4.7c0.6,0.8,1.2,1.5,1.8,2.2c0.2,0.3,0.6,0.6,1,0.9
		c0.5,0.4,1,0.8,1.4,1.3c0.8,1.1,0.8,2.2,0.7,3.4c0,0.5-0.1,1.1,0,1.6c0.2,1.2,0.8,1.4,1.9,1.7c0.5,0.1,1,0.3,1.5,0.6
		c1.4,0.7,1.6,1,2.2,2c0.2,0.3,0.3,0.6,0.4,0.8c0.1,0.2,0.2,0.4,0.4,0.6c0,0,0.2,0,0.3,0c0.3,0,0.7,0,1,0.4s0.4,0.9,0.4,1.3
		s0.1,0.8,0.3,1c0.3,0.3,0.8,0.5,1.3,0.7s1,0.4,1.5,0.8c0.2,0.2,0.4,0.3,0.6,0.5c1.7,1.4,2.4,2,3.8,0.6c0.3-0.3,0.6-0.7,0.9-1.1
		s0.6-0.9,1-1.3c0.5-0.4,1-0.6,1.5-0.9c0.9-0.5,1.7-0.9,1.9-1.6c0.3-0.7-0.1-1.3-0.6-2.1c-0.5-0.7-1.1-1.5-0.9-2.6l0.1-0.3l0.3-0.1
		c0.9-0.3,2.7,0.5,3.1,1.2c0.3,0.3,0.4,0.6,0.5,0.9c0.2,0.4,0.3,0.6,1.2,0.8c0.5,0.1,1,0.1,1.5,0.1c0.7,0,1.5,0,2.2,0.3
		c0.5,0.2,0.9,0.4,1.3,0.6c1,0.5,1.9,0.9,3,1.2c0.4,0.1,1,0.1,1.5,0.2h0.4c1-2.8,3.8-4.7,7.8-5.4c2.9-0.5,4.2-2.4,3.8-5.7
		c-0.4-2.5,0.3-7.4,1.7-11.8c2.9-7.6,1.8-28.1,1.3-36.5l0,0c-0.5-7.7-2.9-14.1-4.4-16.5c-0.6-1-1.1-2.2-1.4-3.5
		c-0.9,0-1.6,0.3-2.2,0.7c-0.8,0.6-1,1.5-1.2,2.6c-0.2,0.8-0.3,1.7-0.8,2.4c-0.2,0.3-0.3,0.6-0.5,0.8c-0.9,1.6-1.8,3-4.1,2.8
		c-2.1-0.1-5-0.5-5.8-2.3c-0.2-0.4-0.2-0.9-0.2-1.3c0-0.3,0-0.7-0.2-0.9c-0.1-0.3-0.4-0.6-0.6-0.9c-0.3-0.5-0.7-0.9-0.8-1.5
		c-0.2-0.5-0.2-0.9-0.2-1.2c0-0.4,0-0.5-0.5-0.8c-0.3-0.2-0.7-0.3-1.1-0.4S96.4,18.2,96,18c-1.4-0.8-1.8-0.6-3-0.2
		c-0.4,0.2-0.8,0.3-1.3,0.5c-0.7,0.2-4.3,1.3-5.5-0.7c-0.3-0.5-0.2-1.2-0.1-1.8c0.1-0.3,0.2-0.8,0.1-0.9v-0.1
		c-0.1-0.2-0.7-0.5-1.1-0.6c-0.4-0.2-0.7-0.4-1-0.6c-1.2-1-1.6-0.8-2.4-0.5c-0.5,0.2-1,0.4-1.9,0.6c-0.8,0.1-1.7-0.1-2.6-0.4
		c-1.4-0.4-2.4-0.7-3-0.1c-0.4,0.5-0.3,2.6-0.2,3.6c0,0.4,0,0.8,0,1v0.4c-0.1,0.9-0.2,2.1,0,2.9c0.1,0.3,0.3,0.7,0.5,1
		c0.2,0.4,0.5,0.9,0.6,1.4c0.3,1.5-0.2,4.2-1.4,5.5c-1,1-2.3,0.9-3.6,0.7c-0.8-0.1-1.5-0.2-2.2,0c-0.4,0.1-0.7,0.3-1,0.6
		C66.5,30.6,66,31,65.3,31l0,0c-0.9,0-2.2-0.6-2.8-1c-0.4-0.3-0.7-0.7-1-1c-0.3-0.4-0.7-0.9-1-1c-0.4-0.1-0.7,0-1.1,0.4
		c-0.3,0.2-0.6,0.5-1.1,0.6c-2.7,0.9-3.7-1-4.4-2.5l-0.1-0.2c-1-2.1-1.4-2-3.9-1.8c-1.9,0.2-3.7,0.2-5.6,0.2c-0.4,0-0.7,0-1.1,0
		c-1.1,0.1-2.3,0.1-3.4-0.3l-0.1,0.1c-0.3,0.2-0.5,0.3-0.8,0.5c-0.4,0.2-0.7,0.4-0.9,0.6c-0.4,0.4-0.5,0.7-0.6,1.1
		c-0.1,0.2-0.1,0.5-0.3,0.9c-0.3,0.7-0.9,1.1-1.4,1.6c-0.2,0.2-0.5,0.4-0.7,0.6c-0.6,0.6-0.9,1.3-1.1,2.1c-0.4,1-0.8,2.2-2,2.9
		l-0.1,0.1c-1.2,0.8-2.6,1.6-3.3,2.8c-0.4,0.8-0.2,1.4,0,2.3c0.1,0.4,0.3,0.9,0.3,1.4c0.1,0.6,0.1,1.2,0.1,1.8s0,1.1,0,1.6
		c0,0.3,0.2,0.6,0.3,0.9c0.1,0.3,0.3,0.6,0.3,0.9c0.1,0.6,0.3,1.5-0.2,2s-1.4,0.3-2.3,0.1c-0.2-0.1-0.5-0.1-0.7-0.2
		c-0.7-0.1-1.5,0-2.4,0c-0.5,0-1.1,0.1-1.6,0.1c-0.4,0-1-0.1-1.5-0.2c-1.2-0.3-2.2-0.4-2.4,0.1c-0.1,0.4-0.1,0.9,0,1.3
		c0.1,0.6,0.1,1.3-0.3,1.8c-0.3,0.4-0.8,0.6-1.6,0.7c-0.8,0.1-1.5,0.1-2.2,0.2c-1.8,0.1-3.5,0.3-5.3,0.8l-0.2,0.1
		c-0.8,0.3-3.2,1-3.5,1.8c-0.1,0.2-0.1,1.3-0.1,1.7c0.1,0.3,0.3,0.4,0.6,0.6C6,57.6,6.3,57.8,6.5,58c0.6,0.8,0.6,1.1,0.4,1.7
		c0,0.1-0.1,0.3-0.1,0.6c0,0.2,0,0.4,0,0.6c0,0.5-0.1,1-0.3,1.5c-0.2,0.3-0.3,0.5-0.4,0.6c-0.2,0.2-0.3,0.4-0.3,0.8
		c0,0.3,0,0.5-0.1,0.8c0,0.5,0,1-0.3,1.7c-0.2,0.7-0.8,1.3-1.3,1.9c-0.6,0.6-1.1,1.1-1,1.8c0.2,1.1,1.1,2.2,2.4,2.6l0.4,0.1
		c0.7,0,1.8,0.3,2,2.3c0.1,1-0.2,1.9-0.5,2.8C7.2,78.4,7,79,7,79.5c0,0.7,0.2,1.2,0.4,1.9c0.2,0.6,0.5,1.2,0.6,2
		c0,0.6,0,1.2-0.1,1.7c0,0.7-0.1,1.3,0,2c0.1,0.9,0,1.8-0.1,2.6c-0.1,0.4-0.1,0.9-0.2,1.4c0,0.5-0.1,1-0.2,1.4
		c0.4,0,0.7,0.1,1.1,0.1c0.8,0,1.6,0.1,2.4,0.3c0.6,0.1,1.3,0.4,2,0.7c2.5,1,4.3,1.6,5.2,0.1c0.1-0.2,0.2-0.5,0.3-0.8
		c0.1-0.4,0.2-0.8,0.5-1.1c0.5-0.6,1.3-0.9,2-1.1c0.2-0.1,0.4-0.1,0.6-0.2c3.1-1.2,6.1-2.4,9.1-4.2c0.4-0.2,0.8-0.4,1.2-0.5
		c0.5-0.2,0.9-0.4,1.3-0.6c0.4-0.2,0.9-0.5,1.3-0.8c0.5-0.3,0.9-0.6,1.4-0.9c0.9-0.5,2-0.6,3-0.8c1.3-0.2,2.6-0.4,3.5-1.2
		c0.6-0.5,0.7-1.1,0.9-1.7c0.2-0.8,0.5-1.7,1.7-2.4c1.5-0.9,3.7-1.1,5.6-1.3L51,76C51.7,75.9,52.3,75.9,52.9,75.9z M78.8,98.1
		L78.8,98.1L78.8,98.1z"/>
</g>
</svg>
