<?xml version="1.0" encoding="utf-8"?>
<!-- Generator: Adobe Illustrator 28.0.0, SVG Export Plug-In . SVG Version: 6.00 Build 0)  -->
<svg version="1.1" id="_レイヤー_2" xmlns="http://www.w3.org/2000/svg" xmlns:xlink="http://www.w3.org/1999/xlink" x="0px"
	 y="0px" viewBox="0 0 120 120" style="enable-background:new 0 0 120 120;" xml:space="preserve">
<style type="text/css">
	.st0{fill:#F0E3D2;}
	.st1{fill:#D7323A;}
</style>
<g>
	<path class="st0" d="M109.4,57.3c-0.8-2.4,0.6-3.4-1.5-5.4c-1.8-1.7-3.2-1.6-2.9-4.5c0.2-1.6,0.6-3.1,0.7-4.7
		c0.1-1.9,0.3-3.1-1.9-3c-1.6,0.1-4.1,1.5-4.5,3.1c-0.3,1.4,1,2.4,0.9,3.7c-0.1,1.6-0.9,2-1.8,3.3c-0.5,0.8-0.7,2.7-1.4,3.3
		c-1.2,1.2-1.8-0.1-3-0.4c-0.6-0.1-3-0.3-3.5,0c-1.3,0.6-1,2.3-2.5,2.8c-1.1,0.4-2.5-0.6-3.6-0.8c-1-0.2-2,0-3-0.2
		c-2.7-0.6-3.5-3.8-2.6-6.4c0.4-1.2,1.7-1.5,1.7-3c0-1.9-0.4-1.1-1.8-1.7c-2.2-0.9-5-0.6-6.3-2.4c-0.8-1-2.5-5-2.2-6.1
		c2-0.1,4.8-7.4,4.4-9c-0.3-1.1-1.4-1.4-1.8-2.3c-0.3-0.6,0.1-1.5,0-2.1c-0.2-0.9-0.7-1.9-1.4-2.6c-0.4,0.4-0.8,0.7-1.6,0.5
		c-0.5-0.1-0.8-0.4-1.3-0.5c-0.6-0.1-1.5-0.2-2.1-0.1c-1.6,0.2-1.9,1.9-2.3,3.1c-0.2,0.6-0.5,1.1-1.1,1.5c-0.3,0.2-2.6,1.2-2.6,1.3
		c0.2,0.7,0.3,1.2,0.1,1.9c-0.3,1-1.1,1.3-1.7,2c-1,1.1-1.2,2.7-2.5,3.5c-1.1,0.7-2.8,0.7-3.7,1.6c-0.8,0.7,0,1.6,0.3,2.4
		c0.6,1.6-0.4,1.9-1.6,2.6c-0.8,0.4-1.3,0.7-1.6,1.4c-0.2,0.6,0,1-0.7,1.4c-0.5,0.4-1.1,0.5-1.5,1c-0.3,0.3-0.5,1.1-0.9,1.3
		c-1.3,0.7-3.1-0.3-3.7,1.3c-0.3,0.8-0.3,1.3-1.3,1.6c-3.4,1.1-6.9,2.1-10.4,2.4c-1.5,0.1-5.5,1.4-6.6-0.4c-0.4-0.8,0-1.8-0.8-2.7
		c-1.2-1.3-2.9-1.6-4.6-1.7c-1.4-0.1-3.4-0.5-4.2,0.8c-0.3,0.5,0.1,1-0.3,1.5c-0.3,0.4-1.4,0.5-1.8,0.7c-2,1-1.8,2-2.3,4
		c-1.8,0-4.4-0.8-6.1-0.1c0.9,2.9-2.1,2.5-3.6,4c-2.4,2.3,0.7,3.6,2.1,5c1.3,1.3,1.7,3.3,2.7,4.8C7,67,6.4,69.5,5,71.4
		c-1,1.4-4.5,2.1-4.8,3.7c-0.2,1.1,1.1,2.2,1.5,3.1C2.1,79,1.9,80,3.2,80.6c0.7,0.4,1.7,0.3,2.2,1c0.6,0.9-0.1,2.9-0.2,3.9
		s-0.4,1.9-0.7,2.8c-0.1,0.5-0.5,1.4-0.1,1.9c0.6,0.6,0.4,0,0.9-0.1c1.8-0.5,3.3,0,4.4-1.6c0.9-1.2,2.3-1.6,2.9-3.1
		c0.6-1.5-0.2-3.4,2.1-3.4c1.4,0,3.1,0.4,4.5,0.9c0.9,0.3,1.6,0.5,2,1.2c0.5,0.8,0.2,1.4,1,1.9s2.5,0.3,3.1,1.1
		c0.2,0.3,0.3,1.5,0.4,1.8c0.4,1.9,1,1.5,2.6,2.1c1.2,0.4,2,1.3,3,2c1.1,0.8,2.1,0.8,3.4,0.8c2.8-0.2,3.8-2,5.9-3.7
		c1-0.8,1.5-1,1.8-2.4c0.2-1.3-0.4-2.9,1.1-3.6c1.6-0.7,2.2,0.3,2.5,1.3c0.6,2,0.2,2.6,2.7,2.1c1-0.2,2.3-0.8,3-1.7
		c0.3-0.3,0.6-1.3,0.9-1.5c0.9-0.6,0.2-0.2,1.2-0.2c2.9-0.2,3.7,3.3,6.7,2.5c2.7-0.8,2.7-3.9,5.6-4.6c2.5-0.6,5.8-2,8.4-1
		c2,0.8,1.4,1.3,0,2.2c-1.3,0.9-2.4,2.1-1,3.5c1.8,1.7,3.9,0.5,6,1c1.7,0.4,0.5,2.5,2.1,3c0.6,0.2,2.1,0.1,2.7,0
		c1.2-0.2,1-0.7,1.4-1.7c0.5-1.1,0.9-1,2-1c1.3,0,2,0,2.8,1.1c0.7,1.1,1,2.3,2,3.2c1.2,1,2.9,2.7,4.5,3.1c1.1,0.3,2.3,0,3.4,0.3
		c3.3,1,5.5,4.8,8.8,5.7c0.3-1.1-0.4-1.8-0.5-2.8c-0.1-1.3,0.2-2.3,0.8-3.3c0.6-0.9,1-1.4,1.3-2.5c0.4-1.9,0.1-1.6,2.1-2.1
		c2-0.4,4.1-2.9,4.9-4.8c0.8-2-0.7-4.3-1.1-6.2c-0.4-1.6-0.2-3.5,0.2-5.1c1-0.1,1.9,0.3,2.9,0.1c0.2-3.2-2.3-6.1-2.3-9.2
		c0-0.1,0-0.2,0-0.4c-1.4-1.5-3.2-1.4-4.5-2.9C112.2,61.1,109.9,58.7,109.4,57.3z"/>
	<path class="st1" d="M111.6,100l-0.5-0.1c-1.8-0.5-3.2-1.7-4.6-3c-1.4-1.2-2.6-2.3-4.2-2.7c-1-0.3-2.2,0-3.4-0.3
		c-1.4-0.4-2.9-1.6-4-2.6c-0.2-0.2-0.5-0.4-0.7-0.6c-0.7-0.7-1.1-1.4-1.5-2.2c-0.2-0.4-0.4-0.8-0.6-1.1c-0.6-0.9-1.1-0.9-2.4-0.9
		h-0.3c-0.9,0-1,0-1.3,0.7c-0.1,0.2-0.1,0.4-0.2,0.6c-0.2,0.7-0.4,1.2-1.6,1.4c-0.5,0.1-2.2,0.2-2.9,0c-1.1-0.3-1.2-1.2-1.3-1.9
		c-0.1-0.7-0.2-1-0.7-1.1c-0.7-0.2-1.4-0.1-2.2-0.1c-1.4,0.1-2.8,0.2-4.1-1c-0.6-0.6-0.9-1.2-0.8-1.8c0.1-1.1,1.1-1.9,1.9-2.4
		c0.3-0.2,1-0.6,1.1-0.8c0,0-0.2-0.2-1-0.5c-1.9-0.7-4.3,0-6.4,0.6c-0.6,0.2-1.1,0.3-1.7,0.5c-1.3,0.3-2,1.2-2.6,2.2
		c-0.7,1-1.5,2-2.9,2.4c-1.8,0.5-3-0.4-4-1.2c-0.8-0.7-1.6-1.3-2.8-1.2c-0.3,0-0.5,0-0.7-0.1c0,0,0,0-0.1,0L54.9,83
		c-0.1,0.1-0.2,0.4-0.3,0.6c-0.2,0.3-0.3,0.7-0.5,0.9c-0.8,1-2.3,1.6-3.3,1.8c-2.2,0.4-2.6,0.1-3-1.6c-0.1-0.3-0.1-0.6-0.2-0.9
		c-0.2-0.6-0.4-1-0.7-1.1s-0.6-0.1-1.1,0.1c-0.7,0.3-0.8,1-0.8,2c0,0.4,0,0.8,0,1.2c-0.3,1.4-0.8,1.8-1.6,2.4L43,88.7
		c-0.5,0.4-1,0.9-1.4,1.3c-1.3,1.2-2.5,2.4-4.8,2.5c-1.3,0-2.5,0-3.7-0.9c-0.3-0.2-0.6-0.5-0.9-0.7c-0.6-0.5-1.2-1-2-1.2
		c-0.4-0.1-0.7-0.2-1-0.3c-1-0.3-1.6-0.5-2-2.2c0-0.1-0.1-0.3-0.1-0.6c0-0.3-0.1-0.9-0.2-1c-0.2-0.3-0.8-0.4-1.4-0.5
		C25,85,24.4,84.9,24,84.6c-0.7-0.4-0.8-0.9-0.9-1.3c-0.1-0.2-0.1-0.5-0.3-0.7c-0.3-0.5-0.7-0.7-1.6-0.9h-0.1
		c-1.6-0.6-3.1-0.9-4.3-0.9c-1.2,0-1.2,0.5-1.3,1.5c-0.1,0.5-0.1,1-0.3,1.5c-0.4,1-1.1,1.6-1.8,2.1c-0.4,0.3-0.8,0.7-1.2,1.1
		c-0.9,1.3-2,1.4-3.2,1.5c-0.5,0.1-1,0.1-1.5,0.3l-0.1,0.1c-0.1,0.1-0.2,0.3-0.5,0.3S6.3,89,6.1,88.8c-0.5-0.6-0.3-1.4-0.1-2
		c0-0.4,0-0.5,0-0.6c0.3-1,0.6-1.8,0.7-2.8c0-0.3,0.1-0.6,0.2-1c0.2-0.9,0.4-2.1,0.1-2.5c-0.2-0.3-0.6-0.4-1-0.5
		c-0.3-0.1-0.7-0.2-1-0.4c-1.1-0.5-1.3-1.3-1.5-2c-0.1-0.2-0.1-0.4-0.2-0.6c-0.1-0.3-0.3-0.6-0.6-0.9c-0.5-0.7-1.1-1.6-1-2.5
		c0.2-1.1,1.5-1.8,2.8-2.5c0.9-0.4,1.7-0.9,2.1-1.4c1.2-1.6,1.9-3.9,0.7-5.8c-0.4-0.6-0.7-1.4-1.1-2.1c-0.4-1-0.9-2-1.6-2.7
		c-0.3-0.3-0.6-0.6-1-0.8c-1-0.8-2.1-1.6-2.1-2.8c0-0.7,0.3-1.4,1-2.1c0.6-0.6,1.3-0.9,2-1.2C5.9,51,6.4,50.7,6,49.3l-0.1-0.4
		l0.4-0.2c1.3-0.5,2.8-0.3,4.3-0.1c0.6,0.1,1.1,0.1,1.6,0.2c0-0.2,0.1-0.4,0.1-0.6c0.3-1.4,0.5-2.4,2.3-3.3c0.2-0.1,0.4-0.2,0.7-0.2
		c0.3-0.1,0.8-0.2,0.9-0.3c0.1-0.1,0.1-0.2,0.1-0.5s0-0.6,0.2-1c0.9-1.4,2.7-1.2,4.1-1.1c0.2,0,0.4,0,0.6,0.1
		c1.7,0.1,3.6,0.4,4.9,1.9c0.6,0.7,0.7,1.4,0.7,1.9c0,0.3,0.1,0.6,0.2,0.9c0.7,1.1,3.1,0.6,4.7,0.3c0.5-0.1,1-0.2,1.4-0.2
		c3.5-0.3,7-1.3,10.3-2.4c0.6-0.2,0.7-0.4,0.9-0.9c0-0.1,0.1-0.2,0.1-0.4c0.5-1.3,1.6-1.3,2.5-1.3c0.5,0,1,0,1.4-0.2
		c0.1-0.1,0.3-0.4,0.4-0.5c0.1-0.2,0.3-0.5,0.4-0.7c0.3-0.3,0.6-0.5,1-0.7c0.2-0.1,0.4-0.2,0.6-0.3c0.4-0.2,0.4-0.3,0.4-0.6
		c0-0.2,0.1-0.4,0.1-0.6c0.4-0.9,1-1.3,1.9-1.7c0.1-0.1,0.3-0.1,0.4-0.2c1-0.6,1.3-0.7,1-1.8c-0.1-0.2-0.2-0.3-0.2-0.5
		c-0.3-0.7-0.8-1.6,0.1-2.4c0.6-0.6,1.4-0.8,2.2-1.1c0.6-0.2,1.1-0.3,1.5-0.6c0.7-0.4,1-1.1,1.4-1.8c0.3-0.6,0.6-1.1,1-1.6
		c0.2-0.3,0.5-0.5,0.7-0.7c0.4-0.4,0.7-0.6,0.9-1.1s0.1-0.9-0.1-1.6v-0.1c0-0.4,0.1-0.4,1.7-1.2c0.4-0.2,1-0.5,1.1-0.5
		c0.4-0.3,0.7-0.7,0.9-1.2c0-0.1,0.1-0.3,0.1-0.5c0.4-1.2,0.8-2.8,2.6-3c0.7-0.1,1.8,0,2.2,0.1c0.3,0.1,0.6,0.2,0.8,0.3
		c0.2,0.1,0.3,0.2,0.5,0.2c0.6,0.1,0.8,0,1.1-0.4l0.4-0.4l0.4,0.4c0.7,0.7,1.3,1.8,1.5,2.8c0.1,0.3,0,0.7,0,1c-0.1,0.4-0.1,0.7,0,1
		s0.4,0.6,0.7,0.8c0.4,0.4,0.9,0.8,1.1,1.6c0.4,1.4-1.3,6-2.9,8.2c-0.5,0.7-1,1.2-1.5,1.3c0.1,1.2,1.4,4.4,2.1,5.4s2.1,1.3,3.5,1.6
		c0.9,0.2,1.7,0.3,2.6,0.7c0.4,0.2,0.7,0.2,0.9,0.2c1,0.1,1.2,0.5,1.2,1.9c0,1.1-0.5,1.6-1,2.2c-0.3,0.3-0.6,0.6-0.7,1
		c-0.5,1.5-0.4,3.1,0.2,4.2c0.4,0.8,1.1,1.3,2,1.5s1.9,0,3,0.2c0.4,0.1,0.9,0.3,1.3,0.4c0.7,0.3,1.5,0.6,2,0.4
		c0.6-0.2,0.8-0.6,1.1-1.2c0.3-0.6,0.6-1.2,1.4-1.6c0.7-0.5,3.8,0,3.8,0c0.5,0.1,0.9,0.4,1.2,0.6c0.6,0.4,0.8,0.5,1.4,0
		c0.3-0.3,0.6-1.1,0.8-1.7c0.2-0.6,0.3-1.1,0.6-1.5c0.3-0.4,0.5-0.7,0.7-1c0.5-0.7,0.9-1.1,1-2.1c0-0.5-0.2-0.9-0.4-1.4
		c-0.3-0.7-0.7-1.4-0.5-2.3c0.5-2,3.3-3.4,5-3.5c0.9,0,1.6,0.1,2,0.5c0.6,0.6,0.5,1.5,0.5,2.7v0.3c-0.1,1-0.2,1.9-0.4,2.8
		c-0.1,0.6-0.2,1.2-0.3,1.9c-0.2,1.8,0.3,2.2,1.4,3c0.4,0.3,0.9,0.6,1.4,1.1c1.4,1.4,1.4,2.4,1.4,3.5c0,0.6,0,1.3,0.2,2.1
		c0.3,0.9,1.6,2.4,2.5,3.5c0.4,0.5,0.8,1,1.1,1.3c0.6,0.6,1.3,1,2,1.3c0.8,0.4,1.7,0.7,2.4,1.6l0.1,0.1v0.6c0,1.4,0.5,2.7,1.1,4.2
		c0.6,1.6,1.3,3.3,1.2,5.1v0.4l-0.4,0.1c-0.6,0.1-1.2,0-1.7,0c-0.3,0-0.6-0.1-0.9-0.1c-0.4,1.7-0.4,3.3-0.1,4.5
		c0.1,0.6,0.3,1.1,0.6,1.8c0.5,1.5,1.1,3.2,0.5,4.7c-0.8,1.8-2.9,4.6-5.3,5.1l-0.6,0.1c-0.9,0.2-0.9,0.2-1,1l-0.1,0.6
		c-0.3,1.1-0.7,1.6-1.2,2.4l-0.2,0.3c-0.6,1-0.8,1.9-0.7,3c0,0.3,0.1,0.6,0.3,0.9c0.2,0.6,0.5,1.2,0.2,2.1L111.6,100z M89.3,85.5
		L89.3,85.5h0.3c1.3,0,2.3,0,3.2,1.3c0.3,0.4,0.5,0.8,0.7,1.2c0.3,0.7,0.7,1.4,1.3,1.9c0.2,0.2,0.4,0.4,0.7,0.6
		c1.1,0.9,2.4,2.1,3.6,2.4c1,0.3,2.2,0,3.4,0.3c1.7,0.5,3.2,1.8,4.5,2.9c1.2,1.1,2.4,2.1,3.7,2.6c0-0.3-0.1-0.6-0.2-0.9
		s-0.3-0.7-0.3-1.2c-0.1-1.3,0.2-2.4,0.9-3.6l0.2-0.3c0.5-0.7,0.8-1.2,1-2l0.1-0.5c0.3-1.3,0.4-1.5,1.8-1.8l0.6-0.1
		c1.7-0.4,3.8-2.6,4.6-4.5c0.5-1.2,0-2.6-0.5-4c-0.2-0.7-0.5-1.3-0.6-1.9c-0.5-2-0.1-4.2,0.2-5.3l0.1-0.3h0.3c0.5-0.1,1,0,1.4,0.1
		c0.4,0,0.7,0.1,1,0.1c0-1.4-0.6-2.8-1.1-4.2c-0.6-1.5-1.2-3-1.2-4.5v-0.2c-0.6-0.6-1.3-0.9-2-1.2c-0.8-0.4-1.7-0.7-2.4-1.6
		c-0.3-0.4-0.6-0.8-1-1.3c-1-1.2-2.3-2.7-2.7-3.8l0,0c-0.3-1-0.3-1.8-0.3-2.5c0-1,0-1.7-1.1-2.7c-0.4-0.4-0.9-0.7-1.3-1
		c-1.1-0.8-2-1.5-1.8-3.9c0.1-0.7,0.2-1.3,0.3-2c0.2-0.9,0.3-1.8,0.4-2.7v-0.3c0-0.9,0.1-1.6-0.2-1.9c-0.2-0.2-0.6-0.3-1.2-0.2
		c-1.5,0.1-3.7,1.4-4,2.7c-0.1,0.6,0.1,1.1,0.4,1.7c0.3,0.6,0.6,1.2,0.5,1.9c-0.1,1.3-0.6,1.9-1.2,2.7c-0.2,0.3-0.4,0.5-0.7,0.9
		c-0.2,0.3-0.3,0.8-0.5,1.2c-0.2,0.8-0.5,1.7-1,2.1c-1.1,1.1-1.9,0.5-2.6,0.1c-0.3-0.2-0.6-0.3-0.9-0.4c-0.7-0.1-2.8-0.2-3.1-0.1
		c-0.5,0.2-0.7,0.6-0.9,1.1C91.4,53,91,53.8,90,54.1c-0.9,0.3-1.9-0.1-2.7-0.4c-0.4-0.2-0.8-0.3-1.1-0.4c-0.9-0.2-1.9,0-3-0.2
		c-1.2-0.3-2.1-1-2.7-2c-0.8-1.4-0.9-3.3-0.3-5c0.2-0.6,0.6-1,0.9-1.4c0.4-0.4,0.8-0.8,0.8-1.5s-0.1-0.9-0.1-0.9s-0.1,0-0.3,0
		c-0.3,0-0.7-0.1-1.2-0.3c-0.7-0.3-1.6-0.5-2.4-0.6c-1.6-0.3-3.2-0.6-4.1-1.9c-0.8-1-2.7-5.1-2.3-6.5l0.1-0.4H72
		c0.1,0,0.5-0.1,1.2-1c1.6-2.2,3-6.4,2.7-7.4c-0.1-0.5-0.4-0.7-0.8-1.1c-0.3-0.3-0.7-0.6-0.9-1.1c-0.2-0.5-0.2-1-0.1-1.5
		c0-0.3,0.1-0.5,0-0.7c-0.2-0.7-0.5-1.4-1-2c-0.4,0.3-0.9,0.5-1.7,0.3c-0.3-0.1-0.5-0.2-0.8-0.3c-0.2-0.1-0.3-0.2-0.5-0.2
		c-0.8-0.1-1.5-0.2-1.9-0.1c-1,0.1-1.4,1-1.8,2.3c-0.1,0.2-0.1,0.3-0.2,0.5c-0.3,0.8-0.7,1.3-1.3,1.8c-0.2,0.1-0.6,0.3-1.2,0.6
		c-0.3,0.2-0.8,0.4-1.1,0.5c0.1,0.6,0.2,1.1,0,1.8c-0.2,0.8-0.8,1.2-1.2,1.6c-0.2,0.2-0.4,0.4-0.6,0.6c-0.4,0.4-0.6,0.9-0.9,1.4
		c-0.4,0.8-0.8,1.6-1.7,2.2c-0.5,0.3-1.2,0.5-1.8,0.7c-0.7,0.2-1.4,0.4-1.8,0.8c-0.3,0.3-0.2,0.5,0.1,1.3c0.1,0.2,0.2,0.4,0.3,0.6
		c0.7,1.8-0.4,2.4-1.4,3l-0.4,0.2c-0.8,0.4-1.2,0.6-1.4,1.2c0,0.1-0.1,0.2-0.1,0.4c0.3,0,0.3,0.5-0.5,0.9c-0.2,0.2-0.4,0.3-0.7,0.4
		c-0.3,0.1-0.5,0.3-0.7,0.5c-0.1,0.1-0.2,0.3-0.3,0.5c-0.2,0.4-0.4,0.8-0.8,1c-0.6,0.3-1.3,0.3-1.9,0.4c-1,0-1.4,0.1-1.6,0.7
		c0,0.1-0.1,0.2-0.1,0.3c-0.2,0.6-0.4,1.2-1.5,1.6c-3.3,1.1-6.9,2.1-10.5,2.4c-0.3,0-0.8,0.1-1.3,0.2c-2,0.4-4.7,0.9-5.8-0.8
		c-0.2-0.4-0.3-0.9-0.3-1.3c0-0.5-0.1-1-0.5-1.4c-1.1-1.2-2.7-1.4-4.3-1.5c-0.2,0-0.4,0-0.6-0.1c-1.2-0.1-2.6-0.2-3.1,0.6
		c-0.1,0.1-0.1,0.2,0,0.4c0,0.3,0,0.7-0.3,1.1c-0.3,0.4-0.9,0.5-1.4,0.7c-0.2,0.1-0.4,0.1-0.5,0.2c-1.4,0.7-1.5,1.3-1.8,2.6
		c-0.1,0.3-0.1,0.7-0.2,1l0,0.4h-0.4c-0.6,0-1.3-0.1-2.1-0.2c-1.2-0.2-2.5-0.3-3.4-0.1c0.4,2-1,2.6-2.2,3.1c-0.6,0.3-1.2,0.5-1.7,1
		s-0.8,0.9-0.7,1.3c0,0.7,0.9,1.4,1.7,2c0.4,0.3,0.8,0.6,1.1,0.9c0.8,0.8,1.3,1.9,1.8,3c0.3,0.7,0.6,1.3,1,1.9
		c1.5,2.4,0.6,5.1-0.7,7c-0.5,0.7-1.5,1.2-2.4,1.7c-1,0.5-2.1,1.1-2.3,1.8c-0.1,0.5,0.4,1.1,0.8,1.8c0.3,0.3,0.5,0.6,0.7,1
		c0.1,0.3,0.2,0.5,0.3,0.8c0.2,0.6,0.3,1,1,1.3c0.2,0.1,0.5,0.2,0.8,0.3c0.6,0.1,1.2,0.3,1.6,0.9c0.6,0.8,0.3,2.2,0.1,3.3
		c-0.1,0.4-0.1,0.7-0.2,0.9c-0.1,1.1-0.4,2-0.7,2.9c0,0.1,0,0.2-0.1,0.3c-0.1,0.3-0.2,0.8-0.1,1c0.1-0.1,0.3-0.2,0.4-0.2
		c0.6-0.2,1.1-0.2,1.6-0.3c1.1-0.1,1.8-0.2,2.5-1.1c0.4-0.6,0.9-0.9,1.4-1.3c0.6-0.5,1.2-0.9,1.5-1.7c0.2-0.4,0.2-0.8,0.3-1.3
		c0.1-1,0.3-2.4,2.3-2.4c1.3,0,3,0.3,4.7,0.9h0.1c0.9,0.3,1.7,0.5,2.1,1.4c0.2,0.4,0.3,0.7,0.4,1c0.1,0.4,0.1,0.5,0.4,0.7
		s0.7,0.2,1.2,0.3c0.8,0.1,1.6,0.3,2.1,0.9c0.2,0.3,0.3,0.7,0.4,1.4c0,0.2,0.1,0.4,0.1,0.5c0.3,1.2,0.5,1.3,1.3,1.5
		c0.3,0.1,0.6,0.2,1,0.3c0.9,0.3,1.6,0.9,2.3,1.4c0.3,0.2,0.6,0.4,0.8,0.7c1,0.7,1.8,0.7,3.1,0.7c1.9-0.1,2.9-1.1,4.1-2.3
		c0.5-0.4,0.9-0.9,1.5-1.3l0.4-0.3c0.7-0.6,1-0.8,1.2-1.8c0-0.3,0-0.6,0-1c0-1,0-2.3,1.3-2.9c0.8-0.3,1.4-0.4,1.9-0.1
		c0.6,0.3,1,0.8,1.2,1.7c0.1,0.4,0.2,0.7,0.2,0.9c0.3,1.1,0.3,1.1,1.9,0.8c0.9-0.2,2.1-0.7,2.7-1.5c0.1-0.1,0.3-0.4,0.4-0.6
		c0.2-0.4,0.4-0.8,0.7-1l0.2-0.1c0.3-0.2,0.6-0.4,0.9-0.2c0.1,0,0.3,0,0.4,0c1.5-0.1,2.6,0.7,3.5,1.5s1.8,1.4,3.1,1.1
		c1.1-0.3,1.7-1.2,2.4-2.1c0.7-1,1.6-2.1,3.2-2.5c0.5-0.1,1.1-0.3,1.6-0.4c2.3-0.7,4.9-1.4,7.1-0.5c0.8,0.3,1.5,0.7,1.6,1.4
		c0.1,0.7-0.7,1.2-1.5,1.7c-0.9,0.6-1.4,1.2-1.4,1.7c0,0.3,0.1,0.7,0.5,1c1,0.9,2,0.8,3.3,0.8c0.8,0,1.6-0.1,2.5,0.1
		c1.2,0.3,1.3,1.2,1.5,1.9c0.1,0.6,0.2,1,0.7,1.1c0.5,0.2,1.8,0.1,2.5,0c0.6-0.1,0.6-0.2,0.8-0.7c0.1-0.2,0.1-0.4,0.2-0.7
		C87.8,85.6,88.4,85.5,89.3,85.5z"/>
</g>
</svg>
