<?xml version="1.0" encoding="utf-8"?>
<!-- Generator: Adobe Illustrator 28.0.0, SVG Export Plug-In . SVG Version: 6.00 Build 0)  -->
<svg version="1.1" id="_レイヤー_2" xmlns="http://www.w3.org/2000/svg" xmlns:xlink="http://www.w3.org/1999/xlink" x="0px"
	 y="0px" viewBox="0 0 120 120" style="enable-background:new 0 0 120 120;" xml:space="preserve">
<style type="text/css">
	.st0{fill:#F0E3D2;}
	.st1{fill:#D7323A;}
</style>
<g>
	<path class="st0" d="M90.1,67.1c1.4-3.6,4.5-5.9,8.1-7.9c1.3-0.7,3-1,4.3-1.9c1.4-0.9,2.6-2.6,3.6-3.9c1.8-2.3,2.8-4.1,5.3-5.9
		c1.9-1.4,4.4-2.3,5.9-4.1c1.8-2.2,1.9-3.6,2.1-6.2c0.1-2.2,1.1-5.1,0.4-7.2s-3.1-4.5-5.2-4.7c-1.8-0.2-4.3,0.4-5.8,1.3
		c-2.3,1.4-2.5,5.1-5.4,5.7c-2.6,0.6-3-2.4-4.9-3.5c-4.2-2.4-8.8-4.4-13.2-6.8c-1.2-0.7-2-1.7-3.4-2.3c-1-0.4-2.2-0.4-3.3-0.6
		c-2.8-0.6-5.6-0.4-8.4,0c-5.3,0.6-10.7,0.3-16,0.8c-2.3,0.2-5.2,1.7-7.4,0.2c-1.1-0.7-1.4-1.8-2.5-2.6c-0.4-0.4-0.7-0.6-1-0.8
		c-0.6,1.6-0.3,3.8-1.2,6c-1.4,3.4-5,2.3-8.6,1c-2.4-0.9-3.8-5.3-3.5-9s0-5.1-2.3-7.1s-7.9-0.3-12.6,3.1s-0.6,5.4-2.9,8.2
		s-2.9,2-3.5,8.2s4.1,1.7,7.6,6.8S8.1,39.3,4,38.1c-0.1,0-0.1,0-0.2,0c0.2,3.3-2.9,9.5-3.3,10.6c-0.9,2.7,0,6.1,1.8,8.3
		c1.9,2.2,4.3,2.2,5.4,5.3c0.9,2.5-0.4,4.1-0.3,6.6c0.2,3.3,3.1,3.2,5.7,4.5c3,1.5,5.9,1.7,9.2,2.2c2.7,0.4,4.7,0.8,6.3,3
		c1.9,2.8,2.5,4.4-0.8,6c-1.5,0.7-2.1,0.5-2,2.4c0.1,1.6,0.7,1.8,1.8,2.6c1.9,1.5,3.3,3.5,5.1,4.9c1.2,0.9,3.2,0.9,4.3,1.8
		c0.8,0.7,1.4,2.5,2.1,3.5c1.8,2.3,5,3.3,7.4,4.8c2.6,1.5,4.4,3.3,7.5,4.1c3.2,0.8,6.1,0.9,9.2,2.1c1.8,0.7,3.5,1.5,5.3,2.2
		c0.6-0.7,1.1-0.7,2.9-1.8c3.1-1.8-0.6-3.8-4.1-7s-4.7-8.1-7-12.3c-2.3-4.2-3.7-4.7-1.8-8.1c2-3.4,7.4-5.8,10.4-7.9
		c2.9-2.1,2.9-4.5,7.8-5.3c3.2-0.5,3.5,6.6,6.5,7.4c2.7,0.7,5.8,0,9.1,0.6c-0.2-1.6-1-2.3-1.9-3.8C88.7,72.6,89.1,69.7,90.1,67.1z"
		/>
	<path class="st1" d="M70.6,111.6l-0.3-0.1c-0.9-0.4-1.8-0.7-2.7-1.1c-0.9-0.4-1.7-0.7-2.6-1.1c-1.9-0.7-3.7-1-5.6-1.4
		c-1.1-0.2-2.3-0.4-3.6-0.7c-2.2-0.6-3.8-1.6-5.4-2.7c-0.7-0.5-1.4-1-2.2-1.4c-0.7-0.5-1.5-0.9-2.4-1.3c-1.9-1-3.9-2-5.2-3.6
		c-0.3-0.5-0.6-1-0.9-1.5c-0.4-0.8-0.8-1.5-1.2-1.9c-0.5-0.4-1.2-0.6-1.9-0.8c-0.8-0.2-1.7-0.5-2.3-1c-0.9-0.7-1.8-1.6-2.6-2.5
		c-0.8-0.8-1.6-1.7-2.5-2.4l-0.4-0.3c-0.9-0.6-1.5-1.1-1.6-2.7c-0.1-1.8,0.5-2.1,1.6-2.6c0.2-0.1,0.4-0.2,0.7-0.3
		c1.2-0.6,1.8-1.2,2-1.8c0.2-0.8-0.4-2-1.4-3.5c-1.4-2-3.2-2.4-6-2.8c-0.5-0.1-1-0.2-1.6-0.2c-2.7-0.4-5.2-0.7-7.8-2
		c-0.6-0.3-1.3-0.6-2-0.8c-1.9-0.7-3.8-1.4-4-4.1c0-1.1,0.1-2,0.3-2.8c0.3-1.2,0.5-2.3,0-3.6c-0.6-1.7-1.7-2.4-2.9-3.2
		c-0.8-0.5-1.7-1.1-2.5-2c-2-2.5-2.8-6.1-1.9-8.8c0.1-0.2,0.2-0.6,0.5-1.1c1-2.2,3-6.7,2.8-9.3v-0.5h0.9c3,0.9,10.5,0.9,12.1-1.2
		c0.2-0.2,0.6-0.9-0.3-2.2c-1.5-2.2-3.1-2.5-4.6-2.7c-1.8-0.3-3.4-0.6-3.1-4.4c0.5-5.1,1-5.7,2.4-7.1c0.3-0.4,0.7-0.8,1.2-1.3
		c0.8-1,0.7-1.8,0.5-2.9c-0.2-1.5-0.5-3.3,2.5-5.4C21.4,5,27.4,2.9,30,5.2c2.5,2.1,2.8,3.8,2.5,7.5c-0.3,3.8,1.2,7.7,3.2,8.5
		c3.8,1.4,6.8,2.2,8-0.7c0.5-1.2,0.6-2.3,0.7-3.4c0.1-0.9,0.2-1.8,0.5-2.6l0.2-0.6l0.5,0.3c0.3,0.2,0.6,0.4,1.1,0.9
		c0.5,0.4,0.9,0.9,1.3,1.3c0.3,0.5,0.7,0.9,1.2,1.2c1.4,0.9,3.2,0.5,4.9,0.1c0.8-0.2,1.5-0.3,2.2-0.4c2.5-0.2,5.1-0.3,7.6-0.4
		c2.8-0.1,5.6-0.1,8.4-0.4c2.5-0.4,5.5-0.6,8.6,0c0.3,0.1,0.7,0.1,1.1,0.1c0.8,0.1,1.6,0.2,2.3,0.5c0.9,0.4,1.5,0.9,2.2,1.4
		c0.4,0.3,0.8,0.7,1.3,0.9c2,1.1,4,2.1,6,3.1c2.4,1.2,4.9,2.4,7.2,3.7c0.8,0.5,1.3,1.2,1.9,1.9c0.9,1.2,1.4,1.9,2.7,1.6
		c1.4-0.3,2.1-1.5,2.9-2.8c0.6-1.1,1.3-2.2,2.4-2.8c1.6-1,4.3-1.6,6.1-1.4c2.4,0.2,4.9,2.8,5.6,5c0.5,1.5,0.2,3.3-0.1,5.1
		c-0.1,0.8-0.3,1.6-0.3,2.3c-0.2,2.6-0.3,4.2-2.2,6.5c-1,1.2-2.4,2-3.8,2.8c-0.8,0.4-1.5,0.9-2.2,1.4c-1.9,1.4-2.9,2.7-4.1,4.3
		c-0.4,0.5-0.7,1-1.1,1.5l-0.3,0.5c-1,1.3-2.1,2.7-3.4,3.6c-0.8,0.5-1.7,0.9-2.6,1.2c-0.6,0.2-1.2,0.4-1.7,0.7
		c-3.1,1.7-6.4,4-7.9,7.6c-1.2,3.1-1.1,5.5,0.2,7.2c0.3,0.4,0.5,0.8,0.7,1.1c0.6,0.9,1.1,1.7,1.3,3l0.1,0.7l-0.7-0.1
		c-1.5-0.3-3.1-0.3-4.5-0.3c-1.6,0-3.2,0-4.6-0.4c-1.6-0.4-2.5-2.3-3.3-4.1c-1-2.1-1.7-3.5-3-3.3c-3.1,0.5-4.1,1.7-5.3,3
		c-0.6,0.7-1.3,1.5-2.3,2.2c-0.8,0.6-1.8,1.2-2.9,1.8c-2.8,1.7-6,3.6-7.4,5.9c-1.3,2.4-0.9,3.1,0.5,5.3c0.4,0.6,0.8,1.4,1.3,2.3
		c0.7,1.3,1.4,2.8,2,4.2c1.3,3,2.6,5.9,4.9,8c0.7,0.6,1.4,1.2,2,1.8c1.9,1.6,3.5,2.9,3.4,4.3c-0.1,0.7-0.5,1.3-1.4,1.8
		c-0.7,0.4-1.3,0.7-1.6,0.9c-0.6,0.3-0.8,0.4-1.1,0.8L70.6,111.6z M6.3,36.7c-0.1,2.8-2,7-2.9,9.1c-0.2,0.5-0.4,0.8-0.4,1
		c-0.8,2.4-0.1,5.6,1.7,7.8c0.7,0.8,1.5,1.3,2.2,1.8c1.2,0.8,2.5,1.6,3.3,3.7c0.6,1.6,0.3,2.9,0,4.2c-0.2,0.8-0.3,1.6-0.3,2.6
		c0.1,2.1,1.5,2.6,3.4,3.2c0.7,0.2,1.4,0.5,2.1,0.8c2.4,1.2,4.8,1.5,7.5,1.9c0.5,0.1,1,0.1,1.6,0.2c2.9,0.4,4.9,0.9,6.6,3.2
		c1,1.5,1.9,3,1.6,4.3c-0.2,0.9-1.1,1.7-2.6,2.4c-0.3,0.1-0.5,0.2-0.8,0.3c-0.9,0.4-1,0.4-0.9,1.6s0.4,1.4,1.2,1.9L30,87
		c1,0.8,1.8,1.7,2.7,2.6c0.8,0.9,1.6,1.7,2.4,2.4c0.5,0.4,1.3,0.6,2,0.8c0.8,0.2,1.7,0.5,2.3,1s1,1.4,1.4,2.2c0.3,0.5,0.5,1,0.8,1.4
		c1.2,1.5,3,2.4,4.8,3.3c0.8,0.4,1.7,0.9,2.4,1.3c0.8,0.5,1.5,1,2.3,1.4c1.6,1.1,3,2.1,5.1,2.6c1.2,0.3,2.4,0.5,3.5,0.7
		c1.9,0.3,3.8,0.7,5.8,1.4c0.9,0.4,1.8,0.7,2.7,1.1c0.8,0.3,1.5,0.7,2.3,1c0.3-0.3,0.7-0.5,1.2-0.8c0.4-0.2,0.9-0.5,1.6-0.9
		c0.6-0.3,0.9-0.7,0.9-1c0.1-0.8-1.4-2.1-3-3.4c-0.7-0.6-1.4-1.2-2.1-1.8c-2.5-2.3-3.8-5.4-5.2-8.4c-0.6-1.4-1.2-2.8-1.9-4.1
		c-0.5-0.9-0.9-1.6-1.3-2.2c-1.5-2.4-2.1-3.4-0.5-6.4c1.5-2.6,4.8-4.6,7.7-6.3c1-0.6,2-1.2,2.8-1.8c0.9-0.7,1.5-1.4,2.1-2.1
		c1.2-1.4,2.4-2.8,5.9-3.3c2.1-0.3,3.1,1.8,4,3.9c0.7,1.6,1.5,3.2,2.7,3.6c1.3,0.3,2.8,0.3,4.4,0.3c1.3,0,2.6,0,4,0.2
		c-0.2-0.7-0.5-1.2-1-1.8c-0.2-0.3-0.5-0.7-0.7-1.1c-1.5-2-1.7-4.7-0.3-8.1l0,0c1.5-4,5.1-6.4,8.3-8.2c0.6-0.3,1.2-0.6,1.9-0.8
		c0.8-0.3,1.7-0.6,2.4-1.1c1.2-0.8,2.2-2.1,3.1-3.3l0.4-0.5c0.4-0.5,0.8-1,1.1-1.5c1.2-1.7,2.3-3.1,4.3-4.5c0.7-0.5,1.5-1,2.3-1.4
		c1.3-0.7,2.6-1.5,3.5-2.6c1.7-2.1,1.8-3.3,2-5.9c0-0.8,0.2-1.6,0.3-2.5c0.3-1.6,0.5-3.3,0.1-4.6c-0.6-1.9-2.8-4.2-4.8-4.4
		c-1.6-0.2-4,0.4-5.5,1.2c-0.9,0.5-1.4,1.5-2,2.5c-0.8,1.4-1.7,2.9-3.5,3.3c-1.9,0.4-2.9-0.8-3.7-1.9c-0.5-0.6-0.9-1.2-1.5-1.6
		c-2.3-1.3-4.7-2.5-7.1-3.7c-2-1-4.1-2-6.1-3.1c-0.5-0.3-1-0.7-1.4-1c-0.6-0.5-1.2-0.9-1.9-1.3c-0.6-0.2-1.3-0.3-2-0.4
		c-0.4,0-0.8-0.1-1.2-0.2c-2.9-0.6-5.8-0.3-8.2,0c-2.8,0.3-5.7,0.4-8.5,0.5c-2.5,0.1-5,0.1-7.5,0.3c-0.6,0.1-1.3,0.2-2.1,0.4
		c-1.8,0.4-3.9,0.9-5.7-0.3c-0.6-0.4-1-0.9-1.4-1.4c-0.3-0.4-0.6-0.8-1.1-1.2c-0.2-0.2-0.3-0.3-0.4-0.4c-0.1,0.5-0.2,1.1-0.2,1.7
		c-0.1,1.1-0.3,2.4-0.8,3.7c-1.7,4-6,2.4-9.2,1.3c-2.8-1-4.1-5.7-3.8-9.5c0.3-3.6,0.1-4.8-2.1-6.7c-1.9-1.7-7.2-0.3-12,3.1
		c-2.5,1.8-2.3,3-2.1,4.5c0.2,1.1,0.4,2.3-0.7,3.7c-0.5,0.6-0.9,1-1.2,1.4c-1.3,1.3-1.7,1.8-2.2,6.5c-0.3,2.9,0.5,3,2.3,3.3
		c1.5,0.3,3.5,0.6,5.3,3.1c1.1,1.6,0.8,2.7,0.3,3.4C17.1,37.6,9.5,37.5,6.3,36.7z"/>
</g>
</svg>
