<?xml version="1.0" encoding="utf-8"?>
<!-- Generator: Adobe Illustrator 28.0.0, SVG Export Plug-In . SVG Version: 6.00 Build 0)  -->
<svg version="1.1" id="_レイヤー_2" xmlns="http://www.w3.org/2000/svg" xmlns:xlink="http://www.w3.org/1999/xlink" x="0px"
	 y="0px" viewBox="0 0 120 120" style="enable-background:new 0 0 120 120;" xml:space="preserve">
<style type="text/css">
	.st0{fill:#F0E3D2;}
	.st1{fill:#D7323A;}
</style>
<g>
	<path class="st0" d="M89.3,63.2c-3.9,0.4-9.9-1.6-13.3,0.2c-2.2,1.1-3.4,4.9-6.7,3.1c-1.9-1-2.9-5.6-1.6-7.4
		c1.1-1.6,3.3-0.8,4.5-2.2c0.9-1.1,0.4-2,0.2-3.4c-0.3-3.8-0.8-3.1-4-4.5c-2.9-1.2-2.6-4.4-5.3-6.3c-1.3-0.9-3.2-1.1-2.6-3.2
		c0.4-1.4,2.5-1.4,3.3-2.8c0.8-1.2,0.7-2.9,1.8-4.2c0.9-1.2,3-2,3.7-3c1.7-2.5,0.8-6.2,4.5-7.1c3-0.7,7.1,2.1,6.8-2.4
		c-0.1-1.3-0.8-3.1-1.7-4.1c-1.1-1.1-3.1-1.2-4-2.2c-1.3-1.6-1.2-6.1-1.4-8.1c-0.3-2.2-0.7-3.8-1.6-5.5c-2,1.2-3.9,0.3-6.5,1.4
		c-2.9,1.2-4.7,5.4-8.3,4.6c-1.7-0.4-2.2-1.4-4-1.6c-1.6-0.2-2.6,0.3-4,0.7c-3.4,1-6.1,1.7-9.7,2c-3,0.2-5.4,1.5-8.4,2.2
		c-3.4,0.8-6.5,1.3-9.3,3.3c-1.8,1.3-5.3,3.5-7.9,1.8c-1.5-1-1.3-3.1-1.5-4.9c-2.3,1.1-3.7,2.2-5,3.5c1,1.6,2.8,3.6,4.6,5.2
		c3.3,2.9,3,5.5,4.5,7.4c1.6,1.9,5.5,3,4.7,5.3s-3.1,1.2-5.7,1.5c-2.5,0.3-3,3.8-4.5,5.7c-1.6,1.9-1.3,3.5,1.4,3.5s2.1,0.4,5.7,2.9
		c3.5,2.5-2.1,3.7-5.4,4.9S8.8,51.8,7.8,54s0.4,4.6-0.8,7.8c-1.3,3.1,1.3,3.4,5.1,2.7c3.8-0.7,4.2,1.2,5.8,3.7
		c1.6,2.5,2.1,3.3,3.8,5.6c1.7,2.3,3.8,3,7.5,5.2s5.1,2.6,10.7,5.9c5.7,3.3,1.8,4.1-1,6.5c-2.8,2.5-1.4,2.5,1.7,3.3
		c3.1,0.8,2.8,1.1,3.4,4.6c0.6,3.5-0.4,3.5,1.8,5.3c2.2,1.7,4.9,2,10.7,5.9c5.8,3.8,14.8,4.8,18.2,5.3s6.2,2.3,8.8,2.3
		c2.5,0,2.4,1,4.8,1.8s3-1.4,3.1-3.8c0.1-2.5,1.6-2.6,4.8-4.8c3.2-2.2,5.8-3.8,8.3-5.9c2.5-2,1.8-4.9,2.1-7c0.3-2,2.4-5,4.5-8.5
		c0.5-0.7,1.1-2.1,1.9-3.8c-0.9,0-1.8,0.1-2.7,0c-4.6-0.6-5.5-4-8.2-7.1c-2.3-2.6-7.2-3.3-7.6-6.3c-0.5-3.2,2.2-5.3,3.6-7.9
		c-0.6-0.3-1.1-0.5-1.6-0.7C94,62.8,92.2,63,89.3,63.2z"/>
	<path class="st1" d="M91.2,118.6c-0.3,0-0.7-0.1-1.1-0.2c-1-0.3-1.6-0.7-2.1-1c-0.7-0.4-1.2-0.7-2.5-0.7c-1.5,0-3-0.5-4.6-1.1
		c-1.4-0.5-2.8-1-4.3-1.2l-0.9-0.1c-3.9-0.5-12.1-1.7-17.5-5.2c-3.3-2.2-5.5-3.2-7.3-4.1c-1.3-0.6-2.4-1.1-3.4-1.9
		c-1.6-1.3-1.7-1.8-1.8-3.2c0-0.6,0-1.3-0.2-2.4c-0.1-0.4-0.1-0.7-0.2-1c-0.4-2.5-0.4-2.6-2.9-3.2L41.6,93c-1.6-0.4-2.5-0.6-2.7-1.4
		c-0.2-0.7,0.5-1.5,1.6-2.5c0.6-0.5,1.3-1,1.8-1.4c1-0.7,2-1.3,1.9-1.9c0-0.4-0.5-1.2-2.7-2.4c-3-1.8-4.8-2.7-6.4-3.6
		c-1.4-0.7-2.6-1.3-4.3-2.4c-0.9-0.6-1.8-1-2.5-1.4c-2.2-1.2-3.8-2.1-5.1-3.9c-1.6-2.2-2.2-3-3.6-5.3l-0.2-0.4
		c-0.2-0.4-0.4-0.7-0.6-1.1c-1.1-1.9-1.7-2.9-4.6-2.4c-3.1,0.6-4.9,0.4-5.6-0.6c-0.5-0.7-0.5-1.6,0-2.8C9.1,58,9,56.7,9,55.4
		c-0.1-1.2-0.1-2.4,0.4-3.6c1-2.3,1.6-3.5,5.1-4.8c0.5-0.2,1.1-0.4,1.6-0.5c1.9-0.6,4.4-1.5,4.6-2.3c0-0.3-0.3-0.7-0.9-1.1
		c-1.1-0.7-1.8-1.3-2.3-1.7c-1.2-1-1.4-1.1-3.1-1.1c-1.8,0-2.5-0.7-2.7-1.2c-0.4-0.8-0.1-1.9,0.9-3.1c0.5-0.6,0.8-1.4,1.2-2.1
		c0.8-1.7,1.7-3.5,3.6-3.7c0.8-0.1,1.6-0.1,2.3,0c1.7,0.1,2.6,0.1,3-1.1c0.4-1.1-0.6-1.8-2.3-2.9c-0.8-0.6-1.7-1.2-2.3-1.9
		c-0.6-0.8-0.9-1.6-1.3-2.5c-0.6-1.4-1.2-3.1-3.2-4.8c-1.9-1.7-3.7-3.7-4.7-5.3L8.7,11L9,10.7c1.6-1.6,3-2.6,5.1-3.6l0.6-0.3
		l0.1,0.7c0,0.4,0.1,0.7,0.1,1.1c0.1,1.4,0.2,2.8,1.2,3.5c1.7,1.1,4.2,0.5,7.3-1.8c2.5-1.8,5.3-2.4,8.2-3.1C32,7.1,32.4,7,32.9,6.9
		c1.1-0.3,2.2-0.6,3.2-1c1.7-0.6,3.4-1.1,5.3-1.3c3.7-0.3,6.4-1,9.6-2c0.3-0.1,0.5-0.2,0.8-0.2c1-0.3,2-0.6,3.4-0.5
		c1.1,0.1,1.7,0.5,2.4,0.9c0.5,0.3,1,0.6,1.7,0.7c2,0.4,3.4-0.9,4.9-2.3c1-0.9,1.9-1.8,3.1-2.3c1.3-0.6,2.5-0.6,3.5-0.7
		c1.1-0.1,2-0.1,2.9-0.7l0.5-0.3l0.2,0.5c1,1.9,1.4,3.6,1.7,5.7c0,0.5,0.1,1,0.1,1.6c0.1,2,0.3,5.1,1.2,6.2c0.3,0.4,1,0.6,1.7,0.9
		c0.8,0.3,1.6,0.6,2.3,1.3c0.9,1.1,1.7,2.9,1.8,4.4c0.1,1.2-0.1,2.1-0.7,2.6c-0.8,0.8-2.1,0.6-3.5,0.4c-1-0.1-2.1-0.3-3-0.1
		c-2.1,0.5-2.5,2-3,3.8c-0.3,1-0.6,2.1-1.2,3.1c-0.4,0.6-1.1,1-1.8,1.5c-0.7,0.5-1.5,1-1.9,1.5c-0.6,0.7-0.8,1.4-1,2.2
		c-0.2,0.7-0.4,1.4-0.8,1.9c-0.4,0.8-1.2,1.2-1.9,1.5c-0.6,0.3-1.2,0.6-1.3,1.1c-0.3,1.1,0.2,1.5,1.3,2.1c0.4,0.2,0.7,0.4,1.1,0.6
		c1.4,1,2,2.2,2.6,3.3c0.7,1.3,1.2,2.3,2.6,2.9c0.6,0.3,1.1,0.5,1.6,0.6c2,0.7,2.5,1,2.8,4.3c0,0.3,0.1,0.5,0.1,0.8
		c0.2,1,0.4,1.9-0.5,3c-0.7,0.8-1.6,1-2.5,1.2c-0.8,0.2-1.6,0.3-2,1c-0.5,0.7-0.7,2.2-0.3,3.7c0.3,1.4,1,2.6,1.7,2.9
		c1.8,1,2.8,0.1,4.2-1.4c0.6-0.7,1.3-1.3,2.1-1.7c2.2-1.2,5.4-0.8,8.5-0.5c1.8,0.2,3.6,0.4,5,0.2h0.4c2.7-0.2,4.6-0.3,7.1,1
		c0.5,0.2,1,0.4,1.6,0.7l0.5,0.2l-0.5,0.8c-0.4,0.8-1,1.5-1.5,2.3c-1.2,1.7-2.4,3.3-2.1,5.3c0.2,1.5,1.9,2.4,3.7,3.4
		c1.4,0.7,2.8,1.5,3.8,2.6c0.7,0.8,1.3,1.7,1.9,2.5c1.6,2.3,2.8,4,6,4.4c0.6,0.1,1.1,0,1.7,0c0.3,0,0.6,0,0.9,0h0.8l-0.8,1.8
		c-0.6,1.3-1,2.3-1.5,2.8c-0.4,0.7-0.9,1.4-1.3,2.1c-1.6,2.5-2.9,4.7-3.1,6.2c-0.1,0.5-0.1,1-0.1,1.6c0,1.8-0.1,4.1-2.2,5.7
		c-1.9,1.6-3.8,2.8-6,4.3c-0.8,0.5-1.5,1-2.4,1.6c-0.8,0.6-1.5,1-2.1,1.3c-1.8,1.1-2.4,1.5-2.5,3.1c-0.1,2.2-0.5,3.5-1.4,4.1
		C92.1,118.4,91.7,118.6,91.2,118.6z M15.5,61.9c2.4,0,3.2,1.4,4.2,3c0.2,0.3,0.4,0.7,0.6,1l0.2,0.4c1.4,2.2,1.9,3,3.6,5.2
		c1.2,1.6,2.6,2.4,4.8,3.6c0.8,0.4,1.6,0.9,2.5,1.4c1.7,1,2.9,1.6,4.2,2.3c1.6,0.8,3.4,1.8,6.5,3.6c2.2,1.2,3.1,2.2,3.2,3.2
		c0,1.1-1.1,1.9-2.4,2.8c-0.6,0.4-1.2,0.8-1.7,1.3c-1.3,1.2-1.3,1.5-1.3,1.6c0.1,0.2,1.1,0.5,2,0.7c0.3,0.1,0.6,0.1,0.9,0.2
		c3,0.8,3.2,1.3,3.6,4c0,0.3,0.1,0.6,0.2,1c0.2,1.2,0.2,1.9,0.2,2.5c0,1.2,0.1,1.4,1.4,2.5c0.9,0.7,1.9,1.1,3.2,1.7
		c1.7,0.8,4.1,1.9,7.5,4.1c5.2,3.4,13.2,4.5,17.1,5.1l0.9,0.1c1.6,0.2,3.1,0.8,4.5,1.3c1.5,0.5,2.9,1,4.2,1c1.6,0,2.3,0.4,3.1,0.9
		c0.5,0.3,1,0.6,1.9,0.9c0.6,0.2,1.1,0.2,1.4-0.1c0.6-0.4,0.9-1.5,1-3.3c0.1-2.1,1.2-2.8,3-3.9c0.6-0.4,1.3-0.8,2.1-1.3
		c0.8-0.6,1.6-1.1,2.4-1.6c2.2-1.5,4.1-2.7,5.9-4.3c1.7-1.4,1.8-3.2,1.8-5c0-0.6,0-1.2,0.1-1.7c0.3-1.7,1.7-4,3.3-6.6
		c0.4-0.7,0.9-1.4,1.3-2.1c0.4-0.5,0.9-1.6,1.4-2.7l0.1-0.3h-0.1c-0.6,0-1.2,0-1.9,0c-3.6-0.5-5.1-2.6-6.7-4.9
		c-0.6-0.8-1.1-1.6-1.8-2.4c-0.9-1-2.2-1.7-3.5-2.4c-1.9-1-3.9-2.1-4.2-4.1c-0.4-2.5,0.9-4.3,2.2-6.1c0.4-0.5,0.8-1.1,1.2-1.7
		c-0.4-0.2-0.7-0.3-1.1-0.5c-2.3-1.2-3.9-1.1-6.6-0.9h-0.4c-1.5,0.2-3.3,0-5.2-0.2c-2.9-0.3-5.9-0.7-7.9,0.4
		c-0.6,0.3-1.2,0.9-1.8,1.5c-1.3,1.3-2.8,3-5.4,1.6c-1-0.5-1.8-1.9-2.2-3.6c-0.3-1.4-0.4-3.4,0.4-4.5c0.7-1,1.7-1.2,2.6-1.4
		c0.8-0.2,1.4-0.3,1.9-0.8c0.5-0.7,0.4-1.2,0.2-2.1C74,52,74,51.7,73.9,51.4c-0.2-2.8-0.4-2.8-2.1-3.5c-0.4-0.2-1-0.4-1.6-0.6
		c-1.7-0.7-2.4-2.1-3.1-3.4c-0.6-1.1-1.1-2.2-2.3-3c-0.3-0.2-0.6-0.4-0.9-0.5c-1.1-0.5-2.4-1.2-1.9-3.2c0.3-0.9,1.1-1.4,1.8-1.8
		c0.6-0.3,1.2-0.6,1.5-1.2c0.3-0.5,0.5-1.1,0.7-1.7c0.2-0.8,0.5-1.8,1.2-2.6c0.5-0.7,1.3-1.2,2.1-1.7c0.7-0.4,1.3-0.8,1.6-1.3
		c0.5-0.8,0.8-1.8,1.1-2.8c0.5-1.9,1-3.9,3.7-4.5c1.1-0.3,2.3-0.1,3.4,0.1s2.2,0.3,2.7-0.1c0.3-0.3,0.4-0.9,0.4-1.8
		c-0.1-1.3-0.8-2.9-1.6-3.8c-0.5-0.5-1.2-0.7-1.9-1c-0.8-0.3-1.6-0.6-2.1-1.2c-1.1-1.4-1.3-4.4-1.4-6.8c0-0.6-0.1-1.2-0.1-1.6
		c-0.3-2.1-0.7-3.5-1.3-4.9c-1,0.4-1.9,0.5-2.9,0.6s-2,0.1-3.2,0.6c-1,0.4-1.9,1.2-2.8,2.1c-1.6,1.5-3.3,3.1-5.8,2.5
		c-0.9-0.2-1.4-0.5-2-0.8s-1.1-0.7-2-0.7c-1.2-0.1-2,0.1-3,0.4c-0.3,0.1-0.5,0.2-0.8,0.3c-3.1,0.9-6,1.7-9.8,2
		c-1.8,0.1-3.4,0.6-5,1.2c-1,0.3-2.1,0.7-3.3,1c-0.4,0.1-0.9,0.2-1.3,0.3c-2.8,0.6-5.5,1.2-7.8,2.9c-3.5,2.6-6.4,3.2-8.5,1.8
		c-1.4-0.9-1.5-2.7-1.6-4.2c0-0.1,0-0.2,0-0.3c-1.9,1-3,1.9-3.9,2.8c1,1.5,2.6,3.2,4.3,4.8c2.2,1.9,2.9,3.7,3.4,5.2
		c0.3,0.9,0.6,1.6,1.1,2.3c0.5,0.6,1.3,1.1,2.1,1.7c1.6,1,3.3,2.2,2.7,4.1c-0.7,2-2.4,1.9-4,1.8c-0.7,0-1.4-0.1-2.1,0
		c-1.4,0.2-2.1,1.6-2.8,3.2c-0.4,0.8-0.8,1.7-1.3,2.3c-0.7,0.8-1,1.6-0.8,2.1c0.2,0.4,0.8,0.6,1.8,0.6c2,0,2.4,0.2,3.8,1.3
		c0.5,0.4,1.2,1,2.2,1.7s1.4,1.4,1.3,2.1c-0.2,1.5-2.7,2.3-5.2,3.1c-0.6,0.2-1.1,0.4-1.6,0.5c-3.1,1.1-3.5,2.1-4.5,4.2
		c-0.4,0.9-0.4,1.9-0.3,3.1c-0.2,1.6-0.1,3.1-0.7,4.9c-0.4,0.9-0.4,1.5-0.1,1.8c0.3,0.4,1.4,0.8,4.7,0.2
		C14.6,61.9,15.1,61.9,15.5,61.9z"/>
</g>
</svg>
