<?xml version="1.0" encoding="utf-8"?>
<!-- Generator: Adobe Illustrator 28.0.0, SVG Export Plug-In . SVG Version: 6.00 Build 0)  -->
<svg version="1.1" id="_レイヤー_2" xmlns="http://www.w3.org/2000/svg" xmlns:xlink="http://www.w3.org/1999/xlink" x="0px"
	 y="0px" viewBox="0 0 120 120" style="enable-background:new 0 0 120 120;" xml:space="preserve">
<style type="text/css">
	.st0{fill:#F0E3D2;}
	.st1{fill:#D7323A;}
</style>
<g>
	<path class="st0" d="M120,75.3c-0.1-2.2-0.9-3.2-2-5c-1-1.7-3.2-3-3.9-4.7c-0.7-1.5,0.4-3.1,0.4-4.8c0-2.2-0.7-3-1.7-4.8
		c-1.9-3.4,1.2-6.9-0.6-10.1c-0.7-1.2-2-2-2.7-3.1c-0.6-0.9-1-2-1.5-2.9c-1.4-2.4-2.5-3.1-2.5-6c0-2.4,1.1-3.8,1.5-6
		c0.4-2.3-1.1-4.8-2.6-6.4c-1.6-1.7-3.4-2.1-5.8-2.4c-1.8-0.2-5.3,0.5-6.7-0.8c-0.4-0.4-0.6-0.7-0.8-1.1c-0.6,0.1-1.1,0.2-1.6,0.4
		c-1.7,0.6-3.6,1.7-5.4,1.3c-1.8-0.4-2.1-1.8-4-1.6c-0.9,0.1-1.9,0.7-3,0.8c-1.1,0.1-2.4,0.1-3.3-0.4c-1.1-0.6-1.2-2-2.7-2.1
		c-3.3-0.2-3.1,2.9-4.5,4.6c-0.9,1-2.2,1.4-3.2,2.4c-0.8,0.9-1.1,2-1.7,2.9c-1.5,2.2-2.7,4.1-5.1,5.3c-0.9,0.5-6.2,2.4-6.6,3.4
		c-0.9,2.5,5.1,2.6,5.6,4.6c0.8,3.3-4,2.4-5.8,2.7c-1,0.2-2.5,0.8-3.4,1.2c-1.1,0.6-1.7,1.8-2.8,2.4c-1.4,0.7-5.4,0.8-6.9,0.5
		c-0.8-0.2-2.3-1.5-2.7-1.5c-1.6,0.1-1.5,2-2.4,2.7c-2.2,1.8-3-1-5.4-1.3c-2.5-0.3-4.2,1.7-6,0.8c-0.5-0.2-0.2-0.9-1.3-1.3
		c-0.4-0.1-1.3-0.1-1.8,0.2c-1.6,0.8-0.9,1.6-1.3,3C15,51,13,51.9,10.5,52.9c-1.7,0.6-5.2,3.7-1.2,3.8c0.5,1.6-1.2,2.3-1.8,3.5
		c-0.7,1.2-0.8,2.1-0.7,3.5c0.1,3.1,0.1,4.6-2.6,6.7c-2.5,2-5.3,1.6-3.7,5c0.4,0.8,1.1,2.8,1.1,4.4c1.1,0.3,1,1.3,0.9,2.8
		c-0.1,1.6-0.5,3.1-0.7,4.6c-0.3,2.7,1.1,2.7,2.8,4.3c2,2,0.7,3,1.5,5.3c0.5,1.4,2.7,3.7,3.7,4.8c1.2,1.4,3,1.4,4.4,2.8
		c0.2-1.7,1.4-1.9,1.9-3.4c0.5-1.3-0.5-3.3,0.5-4.5c0.9-1.1,2.9-0.7,4.1-1.4c1.7-1.1,1.3-3.1,2.9-4.4c1.4-1.2,2.5-1.3,4.2-0.9
		c2.1,0.5,2.2,1.2,4.2,0.6c1.6-0.5,3.3-1.1,5-0.6c2.1,0.7,1.7,1.2,1.4,3c-0.1,1.1,0.4,2.5,1,3.5c0.5,0.8,1,1.4,1.4,2.3
		c0.2,0.4,0.4,1.5,0.7,1.8c0.4,0.4,1.5,0.5,2,0.8c0.6,0.4,1.2,0.8,1.9,1.1c1.6,0.7,3.7,0.1,5.5,0c1.1-0.1,2.1-0.2,3.2-0.4
		c0.8-0.2,2.1-1.2,2.8-1.1c0.2,0.6,0.3,2,1.4,1.5c0.2-0.1,0.6-1.5,0.7-1.7c0.8-1.8,1.7-3,3.8-3.1c2-0.1,3.9-0.9,5.6-2.1
		c1.1-0.8,3.4-3,4.9-2.4c-0.1,0.4-0.1,0.8-0.1,1.2c2.1-0.2,4.1-0.5,6.2-0.4c1.7,0.1,3.8-0.1,5.1,1c1.4,1.2,1.6,3.1,2.6,4.4
		c1.1,1.4,3.3,1.6,5,1.1c2.8-0.8,4.4-2.3,4-5.1c-0.2-1.3-0.3-2.5-0.5-3.7c-0.3-1.5-0.9-2.8-0.2-4.3c0.7-1.5,3.1-2.6,4.8-2.8
		c2.4-0.3,2.4,1.3,3,2.9c0.7,2,2.5,2.5,4.6,2.5c1,0,1.9,0.2,2.6-0.5c0.8-0.7,0.6-1.8,0.9-2.8c0.3-0.9,0.9-2,1.4-2.9
		c0.6-1,0.9-1.1,2-1c0.9,0,1.8,0.1,2.2-0.8c0.3-0.8-0.3-1.5,0.6-1.9c0.5-0.2,1.1-0.1,1.7,0.2V80C119.8,78.3,120.1,77.1,120,75.3z"/>
	<path class="st1" d="M16.6,103.5l-0.7-0.7c-0.6-0.6-1.3-0.9-2.1-1.3c-0.8-0.4-1.7-0.8-2.4-1.6l-0.3-0.4c-1.2-1.3-3-3.2-3.5-4.6
		c-0.3-1-0.3-1.7-0.3-2.4c0-1,0-1.6-1.1-2.7c-0.4-0.4-0.8-0.7-1.2-0.9c-1.1-0.8-2-1.5-1.8-3.8c0.1-0.6,0.2-1.2,0.3-1.8
		c0.2-0.9,0.3-1.8,0.4-2.8v-0.1c0.1-1.6,0.1-2-0.5-2.2L3,78.1v-0.4c0-1.4-0.6-3.3-1-4.2c-1.3-2.8,0.2-3.6,1.7-4.4
		c0.7-0.3,1.4-0.7,2.1-1.3c2.6-2,2.5-3.3,2.4-6.3c-0.1-1.4,0-2.4,0.8-3.8c0.2-0.4,0.6-0.8,0.9-1.2c0.6-0.6,0.9-1,0.9-1.6
		C9.7,55.1,9.1,54.7,9,54c-0.2-1.5,2.3-3.2,3.4-3.5c2.6-1,4.3-1.9,5-4.4c0.1-0.4,0.1-0.7,0.1-1.1c0-0.8,0.1-1.6,1.4-2.3
		c0.6-0.4,1.6-0.4,2.1-0.2c0.9,0.3,1.1,0.8,1.3,1.2c0,0.1,0.1,0.2,0.1,0.2c0.8,0.4,1.6,0.1,2.6-0.2c0.9-0.3,2-0.7,3.3-0.6
		c1.1,0.1,1.8,0.7,2.5,1.2c1,0.7,1.5,1.1,2.5,0.2c0.3-0.2,0.4-0.6,0.6-1c0.3-0.7,0.8-1.8,2.1-1.8l0,0c0.4,0,0.7,0.2,1.4,0.7
		c0.5,0.3,1.1,0.7,1.4,0.8c1.4,0.3,5.3,0.2,6.6-0.5c0.5-0.3,0.9-0.7,1.3-1.1c0.4-0.5,0.9-1,1.5-1.3c1.1-0.5,2.6-1.1,3.5-1.3
		c0.5-0.1,1-0.1,1.7-0.1c1.3,0,3.1,0,3.6-0.8c0.2-0.3,0.3-0.7,0.1-1.2c-0.2-0.6-1.4-1.1-2.5-1.6c-1.7-0.7-3.7-1.5-3.1-3.3
		c0.3-0.8,2-1.6,5.3-3c0.7-0.3,1.3-0.5,1.5-0.7c2.2-1.1,3.3-2.8,4.7-4.8l0.2-0.4c0.2-0.3,0.4-0.7,0.6-1.1c0.3-0.6,0.6-1.3,1.2-1.9
		c0.5-0.5,1.1-0.9,1.7-1.3s1.1-0.7,1.5-1.1c0.4-0.5,0.6-1.1,0.9-1.7c0.6-1.5,1.4-3.2,4-3.1c1.1,0.1,1.7,0.8,2.1,1.3
		c0.3,0.3,0.5,0.6,0.8,0.8c0.6,0.4,1.6,0.5,3,0.3c0.5,0,1.1-0.2,1.6-0.4c0.5-0.2,1-0.3,1.4-0.4c1.3-0.1,2,0.4,2.6,0.8
		c0.5,0.3,0.9,0.6,1.6,0.8c1.2,0.3,2.6-0.3,3.9-0.8c0.4-0.2,0.8-0.3,1.2-0.5c0.6-0.2,1.1-0.3,1.7-0.4l0.4-0.1l0.2,0.3
		c0.2,0.3,0.3,0.6,0.7,1c0.8,0.8,2.8,0.7,4.3,0.6c0.8,0,1.5,0,2.1,0c2.3,0.3,4.3,0.7,6.1,2.6c0.8,0.8,3.3,3.8,2.7,6.8
		c-0.2,0.9-0.5,1.7-0.7,2.5c-0.4,1.1-0.8,2.1-0.8,3.4c0,2,0.5,2.9,1.5,4.2c0.3,0.4,0.6,0.9,1,1.5c0.2,0.4,0.4,0.8,0.6,1.2
		c0.3,0.6,0.6,1.2,0.9,1.7s0.7,0.9,1.2,1.4s1.1,1.1,1.5,1.8c1,1.7,0.7,3.5,0.3,5.2c-0.3,1.7-0.6,3.3,0.3,4.9
		c0.2,0.3,0.3,0.5,0.4,0.8c0.8,1.3,1.3,2.3,1.3,4.3c0,0.7-0.2,1.4-0.3,2.1c-0.2,1-0.5,1.8-0.1,2.5c0.3,0.8,1.1,1.6,1.9,2.4
		c0.7,0.7,1.5,1.4,1.9,2.3l0.4,0.6c0.9,1.5,1.6,2.6,1.7,4.6c0.1,1.8-0.2,3.1-0.8,4.8v0.7l-0.7-0.3c-0.4-0.2-0.9-0.4-1.3-0.2
		c-0.2,0.1-0.2,0.1-0.2,0.6c0,0.3,0,0.7-0.1,1.1c-0.5,1.1-1.6,1.1-2.4,1.1h-0.2c-1-0.1-1.1-0.1-1.6,0.8c-0.5,1-1.1,2-1.4,2.8
		c-0.1,0.3-0.1,0.6-0.2,0.9c-0.1,0.7-0.2,1.5-0.9,2.1c-0.7,0.7-1.6,0.7-2.4,0.6c-0.2,0-0.3,0-0.5,0c-1.8,0-4.2-0.3-5.1-2.8
		c-0.1-0.3-0.2-0.5-0.3-0.8c-0.4-1.3-0.6-2-2.2-1.8c-1.7,0.2-3.8,1.3-4.4,2.5c-0.5,1-0.2,2,0,3.1c0.1,0.3,0.2,0.6,0.2,0.9
		c0.1,0.7,0.2,1.3,0.3,2c0.1,0.6,0.1,1.1,0.2,1.7c0.4,2.9-1,4.7-4.4,5.7c-1.8,0.5-4.3,0.4-5.5-1.3c-0.5-0.6-0.8-1.3-1-1.9
		c-0.4-0.9-0.8-1.8-1.5-2.4c-0.9-0.8-2.4-0.8-3.8-0.8c-0.4,0-0.7,0-1,0c-1.6-0.1-3.2,0.1-4.8,0.3c-0.4,0-0.9,0.1-1.3,0.1l-0.5,0.1
		v-0.5c0-0.3,0-0.5,0-0.8c-1,0-2.5,1.2-3.4,1.9c-0.3,0.2-0.5,0.4-0.7,0.5c-1.9,1.4-3.9,2.1-5.9,2.2c-1.8,0.1-2.6,1.1-3.4,2.8
		c0,0.1-0.1,0.2-0.1,0.4c-0.4,1.1-0.5,1.4-0.8,1.5c-0.4,0.2-0.8,0.2-1.1,0.1c-0.6-0.3-0.7-0.9-0.9-1.5c-0.3,0.1-0.7,0.3-1,0.5
		c-0.5,0.2-0.9,0.5-1.3,0.6c-1.2,0.2-2.2,0.3-3.3,0.4c-0.5,0-1,0.1-1.5,0.2c-1.5,0.2-3,0.4-4.2-0.2c-0.7-0.3-1.4-0.7-2-1.1
		c-0.1-0.1-0.4-0.2-0.7-0.3c-0.5-0.1-1-0.3-1.4-0.6c-0.3-0.3-0.4-0.7-0.6-1.3c-0.1-0.2-0.1-0.5-0.2-0.6c-0.3-0.6-0.6-1.1-0.9-1.5
		c-0.2-0.2-0.3-0.5-0.5-0.7c-0.6-1-1.2-2.5-1.1-3.8c0-0.3,0.1-0.5,0.1-0.6c0.2-1.3,0.3-1.4-1.2-1.8c-1.4-0.4-2.9,0.1-4.4,0.5
		L33.9,89c-1.5,0.5-2.1,0.2-3-0.1c-0.4-0.2-0.8-0.3-1.5-0.5c-1.5-0.4-2.5-0.3-3.8,0.8c-0.7,0.6-0.9,1.2-1.2,2
		c-0.3,0.9-0.7,1.8-1.7,2.5c-0.6,0.4-1.3,0.5-2,0.6c-0.8,0.1-1.6,0.2-2,0.7s-0.4,1.3-0.3,2.2c0.1,0.7,0.1,1.5-0.1,2.2
		s-0.7,1.2-1,1.6c-0.4,0.5-0.8,0.9-0.9,1.7L16.6,103.5z M4.1,77.4c1.1,0.5,1,1.8,0.9,3.1v0.1c-0.1,1-0.2,2-0.4,2.9
		c-0.1,0.6-0.2,1.1-0.3,1.7c-0.2,1.7,0.3,2.1,1.4,2.8c0.4,0.3,0.8,0.6,1.3,1c1.4,1.4,1.4,2.4,1.4,3.4c0,0.6,0,1.2,0.3,2.1
		c0.4,1.2,2.3,3.2,3.3,4.3l0.3,0.4c0.6,0.6,1.3,1,2,1.3c0.6,0.3,1.2,0.5,1.7,0.9c0.2-0.6,0.6-1,0.9-1.4c0.3-0.4,0.6-0.7,0.8-1.3
		c0.2-0.5,0.1-1.1,0.1-1.7c-0.1-1-0.2-2.1,0.5-2.9c0.6-0.8,1.7-0.9,2.6-1.1c0.6-0.1,1.2-0.2,1.6-0.4c0.7-0.5,1-1.2,1.3-2
		s0.7-1.7,1.5-2.4c1.6-1.4,2.9-1.4,4.6-1c0.7,0.2,1.2,0.4,1.6,0.5c0.8,0.3,1.1,0.4,2.3,0.1l0.3-0.1c1.5-0.5,3.3-1,5-0.5
		c2.2,0.7,2.1,1.5,1.9,3c0,0.2-0.1,0.4-0.1,0.6c-0.1,0.8,0.3,2.1,0.9,3.2c0.1,0.2,0.3,0.5,0.4,0.7c0.3,0.5,0.7,1,1,1.7
		c0.1,0.2,0.2,0.4,0.3,0.7c0.1,0.3,0.2,0.8,0.3,0.9s0.6,0.3,0.9,0.4c0.4,0.1,0.7,0.2,1,0.4c0.6,0.4,1.2,0.8,1.8,1.1
		c1,0.5,2.4,0.3,3.7,0.1c0.5-0.1,1.1-0.1,1.6-0.2c1-0.1,2-0.2,3.1-0.4c0.2-0.1,0.6-0.3,1-0.5c0.7-0.4,1.4-0.7,2-0.6h0.3l0.1,0.3
		c0,0.1,0.1,0.2,0.1,0.4c0.1,0.3,0.2,0.8,0.4,0.9c0,0,0.1,0,0.2,0c0.1-0.2,0.3-0.7,0.4-1c0.1-0.2,0.2-0.4,0.2-0.5
		c0.9-1.9,1.9-3.3,4.2-3.4c1.8-0.1,3.6-0.8,5.3-2c0.2-0.1,0.4-0.3,0.6-0.5c1.4-1.1,3.2-2.6,4.7-2l0.4,0.2l-0.1,0.4
		c0,0.2-0.1,0.3-0.1,0.5c0.3,0,0.5-0.1,0.8-0.1c1.7-0.2,3.3-0.3,5-0.3c0.3,0,0.7,0,1,0c1.5,0,3.2,0.1,4.4,1.1
		c0.9,0.8,1.3,1.8,1.8,2.8c0.3,0.6,0.5,1.2,0.9,1.7c1,1.2,3,1.4,4.5,0.9c2.9-0.8,4-2.2,3.6-4.5c-0.1-0.6-0.2-1.2-0.2-1.8
		c-0.1-0.7-0.2-1.3-0.3-1.9C97,89.3,97,89,96.9,88.7c-0.3-1.2-0.6-2.4,0-3.7c0.8-1.8,3.5-2.9,5.2-3.1c2.4-0.3,2.9,1.2,3.3,2.5
		c0.1,0.2,0.2,0.5,0.3,0.8c0.5,1.5,1.8,2.2,4.1,2.2c0.2,0,0.4,0,0.6,0c0.8,0,1.3,0,1.7-0.4c0.4-0.4,0.5-0.9,0.6-1.5
		c0-0.3,0.1-0.7,0.2-1.1c0.3-0.9,0.9-2,1.4-3c0.7-1.2,1.2-1.4,2.5-1.3h0.2c0.9,0,1.3,0,1.5-0.5c0.1-0.2,0.1-0.4,0-0.6
		c0-0.5-0.1-1.1,0.8-1.5c0.5-0.2,1-0.2,1.6,0c0.5-1.5,0.7-2.5,0.6-4.1l0,0c-0.1-1.8-0.7-2.7-1.5-4.1l-0.4-0.6
		c-0.4-0.7-1.1-1.4-1.8-2.1c-0.8-0.8-1.7-1.7-2.1-2.7c-0.5-1.1-0.2-2.1,0.1-3.2c0.2-0.6,0.3-1.2,0.3-1.8c0-1.7-0.4-2.5-1.2-3.8
		c-0.1-0.2-0.3-0.5-0.5-0.8c-1-1.9-0.7-3.7-0.4-5.5c0.3-1.6,0.6-3.1-0.2-4.6c-0.3-0.6-0.8-1-1.3-1.6c-0.5-0.5-1-1-1.3-1.5
		c-0.4-0.6-0.7-1.2-1-1.8c-0.2-0.4-0.4-0.8-0.6-1.1c-0.3-0.6-0.7-1-0.9-1.5c-0.9-1.4-1.6-2.4-1.6-4.8c0-1.5,0.4-2.7,0.8-3.8
		c0.3-0.7,0.5-1.5,0.7-2.3c0.4-2.1-1-4.4-2.5-6s-3.3-2-5.5-2.2c-0.5-0.1-1.2,0-1.9,0c-1.8,0.1-3.9,0.1-5-0.9
		c-0.3-0.3-0.6-0.6-0.7-0.9c-0.4,0.1-0.8,0.2-1.1,0.3c-0.4,0.1-0.8,0.3-1.2,0.5c-1.4,0.6-3,1.2-4.5,0.9c-0.9-0.2-1.4-0.6-1.9-0.9
		c-0.6-0.4-1-0.7-1.9-0.6c-0.4,0-0.8,0.2-1.2,0.3c-0.5,0.2-1.2,0.4-1.8,0.5c-1.6,0.1-2.8,0-3.6-0.5c-0.5-0.3-0.9-0.7-1.2-1.1
		c-0.4-0.5-0.7-0.9-1.3-0.9c-1.9-0.1-2.4,1-3,2.5c-0.3,0.7-0.6,1.4-1.1,2s-1.1,1-1.7,1.3c-0.5,0.3-1,0.6-1.5,1.1
		c-0.4,0.5-0.7,1-1,1.6c-0.2,0.4-0.4,0.8-0.7,1.2l-0.2,0.4c-1.4,2.1-2.7,3.9-5,5.1c-0.3,0.1-0.8,0.4-1.6,0.7
		c-1.3,0.6-4.5,1.9-4.8,2.4c-0.3,0.8,0.5,1.2,2.5,2c1.4,0.6,2.8,1.1,3.1,2.3c0.2,0.9,0.1,1.6-0.3,2.1c-0.9,1.1-2.8,1.1-4.4,1.2
		c-0.6,0-1.1,0-1.5,0.1c-0.9,0.2-2.3,0.7-3.3,1.2c-0.4,0.2-0.8,0.7-1.2,1.1c-0.4,0.5-0.9,1-1.5,1.3c-1.6,0.8-5.8,0.8-7.2,0.6
		c-0.5-0.1-1.2-0.6-1.8-1c-0.3-0.2-0.8-0.5-0.9-0.5c-0.6,0-0.8,0.5-1.2,1.3c-0.2,0.5-0.5,1-0.9,1.3c-1.6,1.3-2.7,0.5-3.7-0.2
		c-0.6-0.4-1.2-0.9-2-1c-1.1-0.1-2,0.2-2.8,0.5c-1.1,0.4-2.2,0.8-3.3,0.2c-0.3-0.1-0.5-0.4-0.6-0.7c-0.1-0.2-0.2-0.4-0.7-0.6
		c-0.3-0.1-1,0-1.4,0.2c-0.9,0.4-0.9,0.7-0.9,1.4c0,0.4,0,0.8-0.2,1.3c-0.9,3.1-3.3,4.1-5.6,5c-1.2,0.4-2.8,1.9-2.7,2.5
		c0,0.1,0.3,0.4,1.4,0.4H12l0.1,0.3c0.4,1.3-0.4,2.2-1,2.9c-0.3,0.3-0.6,0.6-0.8,1c-0.7,1.1-0.7,2-0.6,3.2c0.1,3,0.2,4.8-2.8,7.1
		c-0.8,0.6-1.6,1-2.3,1.4C2.6,71,2,71.2,3,73.2C3.3,73.9,4,75.8,4.1,77.4z"/>
</g>
</svg>
