<?xml version="1.0" encoding="utf-8"?>
<!-- Generator: Adobe Illustrator 28.0.0, SVG Export Plug-In . SVG Version: 6.00 Build 0)  -->
<svg version="1.1" id="_レイヤー_2" xmlns="http://www.w3.org/2000/svg" xmlns:xlink="http://www.w3.org/1999/xlink" x="0px"
	 y="0px" viewBox="0 0 120 120" style="enable-background:new 0 0 120 120;" xml:space="preserve">
<style type="text/css">
	.st0{fill:#F0E3D2;}
	.st1{fill:#D7323A;}
</style>
<g>
	<path class="st0" d="M73.3,92.8c0.4-0.3,2.1,0,2.6,0c1.4,0,2.3-0.4,3.5-0.7c2.9-0.6,2.7-1.2,3.7-3.8c0.9-2.1,2.5-4.2,3.2-6.6
		c0.6-1.8,0.2-3.6,0.1-5.5c-0.1-1.5-0.3-1.5,0.8-2.5c0.3-0.3,1-0.1,1.2-0.5c0.3-0.4,0.1-1,0.3-1.3c0.5-0.7,1.1-1.4,1.4-2.3
		c0.4-1.2-0.3-1.8,0.7-2.8c0.7-0.8,2.1-0.9,2.7-1.8c0.7-1.1,0-2,0.2-3.1c0.3-2,2.9-1.7,2.7-4.4c-0.2-2.7-5.2-1.8-4.3-5.5
		c0.4-1.6,1.3-2.2,0.9-4.1c-0.3-1.7-1.8-2.5-1.7-4.1c0.1-1.7,1-1.6,2.4-1.8c1.9-0.3,2.1-0.2,2.4-2.4c0.1-0.9-0.1-1.9,0-2.8
		c0.1-1.1,0.7-2,1.1-3.1c1-2.8-1.1-2.2-1.9-4.5c-0.3-0.8,0.3-1.9,0.1-2.5c-0.3-0.8-1.9-1.3-2.5-1.8c-1.5-1.3-1.3-2.2-0.9-3.4
		c-0.8-0.4-1.5-0.7-2.4-1c-0.9-0.2-2.5-0.4-3.1-1.2c-0.6-0.7-0.2-1.5-0.4-2.4c-0.5-2.4-1.6-3.6-3.9-4.3c-1.3-0.4-1.7-1-2.9-1.6
		c-1-0.5-1-0.3-2.2-0.2c-0.2-0.6-0.3-1.1-0.4-1.7c-3.7-0.5-8,1.7-10-2.6c-1,0.8-2.2,0.6-3.3,0.1c-1.1-0.5-1.2-1.5-2.1-2.1
		c-0.6-0.4-2,0-2.4-0.4s0-1-0.2-1.5c-0.3-1.1-0.2-1.9-1.3-2.8C56,0.6,56,1.6,54.4,2c-1.1,0.3-2.9,0.2-4,0.1c-1.6,0-3.3-0.2-5.1-0.5
		c0,0.2-0.1,0.3-0.1,0.5c-0.4,2.3,0.1,3.4-0.6,5.6c-0.7,2.2-2.1,4.6-2.8,7.6c-0.6,2.9-2.2,6.5-3.4,11.1s-4,7.4-6.1,9.2
		s-5.3,4.3-6.8,7.7c-1.2,2.5-2.1,5.1-2.9,7.1c1.3,0.9,2.9,1.7,4.2,2.2c1.8,0.6,3.8,0.9,5.6,1.5c4.4,1.4,0.6,6.9,1.8,10.1
		c1.8,4.4,7,2.4,9.8,5.3c1.3,1.3,2.7,3.2,2.3,5.1c-0.4,2.2-2.7,1.9-4.2,3.3c-0.8,0.8-0.8,1.8-2,2.3C39.3,80.6,37,80.9,36,81
		c-1,0.2-2.1-0.2-2.7,0.3c-0.8,0.6-1.1,2.6-1,3.5c0-0.2,0-0.3,0-0.5c0,2.1,0.3,4.4-0.5,6.4c-0.4,1.2-0.5,2.4-1,3.5s-1.6,1.5-1.6,3
		c-0.1,0-0.1,0-0.1-0.1c0,1,0.2,2.2,0,3.2c-0.2,1.1-0.8,1.9-1.1,3c-0.6,2.4-0.1,4.3,2,5.6c0.8,0.5,2,0.7,2.8,1.2
		c0.9,0.5,1.3,1.3,2.1,2c1.6,1.4,3.9,0.9,5.9,0.9s4.1,0,6.1-0.2c2.7-0.2,3.5-0.3,4.7,2.2c0.8,1.7,1.6,3.4,4.2,2.6
		c1-0.3,1.4-1.4,2.6-1c0.9,0.2,1.5,1.8,2.3,2.3c0.6,0.4,1.9,1,2.7,1c1.2-0.1,1.6-1,2.7-1.4c2-0.6,4.5,0.8,6-0.7
		c1.2-1.2,1.7-4.1,1.4-5.4c-0.2-0.9-0.9-1.7-1.2-2.5c-0.3-1.1-0.1-2.5,0-3.6c0.1-1.2-0.4-4.4,0.3-5.4c0.2-0.2,0.4-0.4,0.7-0.5
		C73,97.7,72.1,93.7,73.3,92.8z"/>
	<path class="st1" d="M65.4,118.4c-1,0-2.4-0.6-3-1.1c-0.4-0.3-0.8-0.7-1.1-1.2s-0.7-1-1-1c-0.5-0.2-0.8,0-1.2,0.4
		c-0.3,0.2-0.6,0.5-1.1,0.6c-3,0.9-4-1.2-4.8-2.9c-1-2.2-1.5-2.1-4.1-1.9H49c-2,0.2-4.1,0.2-6.1,0.2c-0.4,0-0.8,0-1.2,0
		c-1.7,0.1-3.6,0.2-5-1.1c-0.3-0.3-0.6-0.6-0.9-0.9c-0.4-0.4-0.7-0.8-1.2-1c-0.4-0.2-0.8-0.4-1.3-0.6s-1.1-0.4-1.5-0.6
		c-2.2-1.3-2.9-3.4-2.2-6.1c0.1-0.5,0.4-1,0.6-1.4c0.2-0.5,0.4-1,0.5-1.5c0.1-0.6,0.1-1.3,0-2.1c0-0.4,0-0.7,0-1.1h0.1
		c0-1.1,0.5-1.7,1-2.2c0.2-0.3,0.5-0.6,0.6-0.9c0.3-0.6,0.4-1.2,0.6-1.9c0.1-0.5,0.2-1,0.4-1.5c0.6-1.5,0.6-3.2,0.5-4.9
		c0-0.3,0-0.5,0-0.8l0,0c-0.1-1,0.2-3.2,1.2-4c0.5-0.4,1.2-0.4,1.8-0.4c0.4,0,0.8,0,1.1,0c1.3-0.1,3.3-0.4,4-0.8
		c0.6-0.3,0.8-0.6,1.1-1.1c0.2-0.3,0.4-0.7,0.8-1.1c0.7-0.6,1.4-0.9,2.1-1.2c1.1-0.5,1.8-0.8,2-1.8c0.4-1.7-1-3.5-2.2-4.7
		c-1.1-1.1-2.6-1.5-4.2-1.8c-2.2-0.5-4.5-0.9-5.7-3.7c-0.5-1.4-0.2-3,0-4.6c0.5-2.8,0.7-4.5-1.5-5.2c-0.9-0.3-1.8-0.5-2.8-0.7
		c-0.9-0.2-1.9-0.5-2.8-0.8c-1.5-0.6-3.1-1.4-4.3-2.3L24,48.6l0.1-0.4c0.2-0.6,0.4-1.1,0.7-1.8c0.6-1.7,1.3-3.5,2.2-5.4
		c1.4-3.2,4.3-5.6,6.3-7.4l0.6-0.5c2.2-1.9,4.8-4.5,5.9-8.9c0.6-2.3,1.3-4.3,1.9-6.1c0.6-1.9,1.2-3.5,1.5-4.9c0.4-1.9,1.1-3.5,1.8-5
		c0.4-0.9,0.8-1.8,1-2.7c0.4-1.2,0.4-2,0.4-3c0-0.7,0-1.5,0.2-2.6c0-0.1,0-0.2,0.1-0.3v-0.5h0.6c2,0.3,3.6,0.5,5,0.5
		c1.7,0.2,3.1,0.1,3.9-0.1c0.8-0.2,1.1-0.5,1.5-1c0.3-0.4,0.7-0.8,1.4-1.2l0.3-0.2l0.3,0.2c1,0.8,1.1,1.6,1.3,2.4
		c0,0.2,0.1,0.4,0.2,0.7c0.1,0.3,0.1,0.6,0.1,0.9s0,0.4,0,0.4c0.1,0.1,0.5,0.1,0.8,0.1c0.6,0,1.1,0,1.6,0.3c0.5,0.3,0.8,0.7,1,1.1
		c0.3,0.4,0.5,0.8,1,1c1.2,0.5,2.1,0.5,2.8,0L69,3.8l0.3,0.6c1.3,2.7,3.5,2.5,6.1,2.3c1.1-0.1,2.3-0.2,3.5,0h0.4L79.2,7
		c0.1,0.5,0.2,0.8,0.3,1.2c0.1,0,0.2,0,0.3,0c0.7-0.1,0.9-0.1,1.8,0.3c0.5,0.3,0.9,0.5,1.2,0.7c0.5,0.3,0.9,0.6,1.6,0.8
		c2.5,0.8,3.7,2.1,4.2,4.7c0.1,0.4,0.1,0.8,0.1,1.1c0,0.5,0,0.8,0.2,1.1c0.4,0.6,1.6,0.8,2.4,0.9c0.2,0,0.3,0.1,0.5,0.1
		c0.9,0.3,1.6,0.6,2.5,1l0.4,0.2l-0.1,0.4c-0.4,1.1-0.5,1.8,0.8,2.9c0.2,0.1,0.5,0.3,0.8,0.5c0.7,0.4,1.6,0.8,1.8,1.5
		c0.1,0.4,0.1,0.9,0,1.3s-0.2,0.9-0.1,1.2c0.3,0.8,0.7,1.2,1.2,1.6c0.9,0.7,1.4,1.4,0.7,3.3c-0.1,0.4-0.3,0.7-0.5,1.1
		c-0.3,0.6-0.6,1.3-0.6,1.9c0,0.4,0,0.9,0,1.3c0,0.5,0.1,1,0,1.5c-0.3,2.3-0.7,2.5-2.5,2.8l-0.8,0.1c-1.1,0.1-1.4,0.2-1.5,1.3
		c0,0.7,0.3,1.2,0.7,1.9c0.4,0.6,0.8,1.2,1,2.1c0.3,1.4-0.1,2.2-0.4,3c-0.2,0.4-0.4,0.8-0.5,1.3c-0.4,1.6,0.4,2.1,1.9,2.7
		c1.1,0.5,2.3,1.1,2.4,2.6c0.1,1.8-0.8,2.5-1.6,3.1c-0.6,0.4-1,0.8-1.1,1.4c-0.1,0.4,0,0.7,0,1.1c0.1,0.6,0.2,1.4-0.3,2.2
		c-0.4,0.6-1.1,0.9-1.6,1.2c-0.4,0.2-0.9,0.4-1.1,0.7c-0.5,0.5-0.5,0.8-0.4,1.2c0,0.4,0,0.8-0.2,1.4c-0.3,0.8-0.8,1.5-1.2,2.1
		l-0.3,0.4c0,0,0,0.2,0,0.3c0,0.3,0,0.7-0.3,1c-0.2,0.4-0.6,0.4-1,0.5c-0.1,0-0.3,0-0.3,0.1c-0.8,0.7-0.8,0.7-0.7,1.5
		c0,0.2,0,0.4,0,0.6c0,0.4,0.1,0.9,0.1,1.3c0.1,1.4,0.3,2.9-0.2,4.4c-0.4,1.5-1.2,2.9-1.9,4.2c-0.5,0.9-0.9,1.7-1.3,2.5
		c-0.1,0.3-0.2,0.6-0.3,0.9c-0.7,2-1.1,2.6-3.7,3.2c-0.3,0.1-0.6,0.2-0.8,0.2c-0.9,0.2-1.7,0.5-2.8,0.5c-0.1,0-0.4,0-0.7-0.1
		c-0.4,0-1.4-0.1-1.6,0c-0.7,0.6-0.3,3.5,0,5.4c0.1,0.6,0.2,1.2,0.2,1.8v0.4L75.5,99c-0.2,0.1-0.3,0.2-0.5,0.4
		c-0.3,0.5-0.2,2.2-0.2,3.4c0,0.7,0.1,1.3,0,1.7v0.5c-0.1,1-0.2,2.1,0,3c0.1,0.2,0.3,0.6,0.5,0.9c0.3,0.5,0.6,1,0.7,1.6
		c0.3,1.4-0.2,4.5-1.5,5.9c-1.1,1.1-2.4,0.9-3.8,0.8c-0.8-0.1-1.7-0.2-2.4,0c-0.4,0.1-0.7,0.4-1,0.6
		C66.8,117.9,66.3,118.3,65.4,118.4L65.4,118.4z M59.9,114c0.2,0,0.4,0,0.7,0.1c0.6,0.1,1.1,0.8,1.6,1.4c0.3,0.4,0.6,0.8,0.8,0.9
		c0.6,0.4,1.8,0.9,2.4,0.9c0.5,0,0.8-0.3,1.3-0.6c0.3-0.3,0.7-0.6,1.3-0.7c0.9-0.3,1.9-0.2,2.8-0.1c1.2,0.1,2.3,0.2,3-0.5
		c1.1-1.1,1.5-3.8,1.3-4.9c-0.1-0.5-0.4-0.9-0.6-1.4c-0.2-0.3-0.4-0.7-0.6-1.1c-0.3-1.1-0.2-2.3-0.1-3.4v-0.4c0-0.3,0-0.9,0-1.5
		c-0.1-1.5-0.2-3.3,0.4-4.1c0.2-0.2,0.4-0.4,0.6-0.5c-0.1-0.4-0.1-0.9-0.2-1.4c-0.4-2.8-0.8-5.4,0.4-6.3l0,0
		c0.4-0.3,1.2-0.3,2.3-0.1c0.2,0,0.5,0,0.6,0c1,0,1.7-0.2,2.5-0.4c0.3-0.1,0.6-0.2,0.9-0.2c2.3-0.5,2.4-0.8,3-2.5
		c0.1-0.3,0.2-0.6,0.4-1c0.4-0.9,0.8-1.7,1.3-2.6c0.7-1.3,1.5-2.6,1.9-4c0.4-1.3,0.3-2.6,0.2-4c0-0.4-0.1-0.9-0.1-1.4
		c0-0.2,0-0.4,0-0.5c-0.1-1.1,0-1.4,1-2.4c0.2-0.2,0.6-0.3,0.8-0.3c0.1,0,0.2,0,0.3-0.1c0.1-0.1,0.1-0.3,0.1-0.5
		c0-0.3,0-0.5,0.2-0.8l0.3-0.4c0.4-0.5,0.8-1.1,1-1.8c0.1-0.4,0.1-0.7,0.1-1c0-0.6,0-1.2,0.7-2c0.4-0.4,0.9-0.7,1.4-0.9
		c0.5-0.2,1-0.4,1.2-0.8c0.3-0.5,0.2-0.9,0.2-1.5c-0.1-0.4-0.1-0.9,0-1.4c0.2-1.1,0.9-1.6,1.5-2.1c0.7-0.5,1.3-1,1.2-2.2
		c-0.1-0.8-0.8-1.2-1.9-1.8c-1.3-0.6-3-1.4-2.4-3.9c0.1-0.6,0.4-1,0.5-1.4c0.3-0.8,0.6-1.3,0.4-2.4c-0.1-0.7-0.5-1.2-0.8-1.8
		c-0.5-0.7-0.9-1.4-0.9-2.5c0.1-1.9,1.2-2.1,2.4-2.2l0.7-0.1c1.4-0.2,1.4-0.2,1.7-1.9c0-0.4,0-0.8,0-1.3s-0.1-1,0-1.5
		c0.1-0.8,0.4-1.5,0.7-2.2c0.1-0.3,0.3-0.7,0.4-1c0.5-1.4,0.2-1.6-0.5-2.2c-0.5-0.4-1.1-0.9-1.4-2c-0.2-0.6-0.1-1.2,0-1.7
		c0.1-0.3,0.1-0.7,0.1-0.8c-0.1-0.3-0.8-0.7-1.4-1c-0.4-0.2-0.7-0.4-1-0.6c-1.5-1.3-1.5-2.4-1.2-3.5c-0.7-0.3-1.3-0.6-2-0.8L91,18.8
		c-1-0.2-2.3-0.5-3-1.3c-0.5-0.6-0.5-1.2-0.4-1.7c0-0.3,0-0.6,0-0.9c-0.5-2.2-1.4-3.3-3.6-3.9c-0.9-0.3-1.3-0.6-1.9-1
		c-0.3-0.2-0.7-0.4-1.1-0.7C80.4,9,80.3,9,79.8,9.1c-0.2,0-0.4,0.1-0.7,0.1h-0.4L78.6,9c-0.2-0.5-0.3-0.9-0.4-1.4
		c-0.9-0.1-1.9,0-2.9,0.1c-2.6,0.2-5.3,0.4-6.9-2.4c-0.9,0.5-2,0.4-3.3-0.2c-0.7-0.3-1.1-0.9-1.4-1.3c-0.2-0.3-0.4-0.6-0.8-0.8
		c-0.2-0.1-0.6-0.1-1-0.1c-0.6,0-1.1,0-1.5-0.3c-0.4-0.4-0.3-0.9-0.3-1.2c0-0.2,0-0.3,0-0.4C60,0.7,60,0.4,59.9,0.2
		c-0.1-0.6-0.2-1.1-0.7-1.6c-0.3,0.2-0.6,0.5-0.8,0.8c-0.5,0.5-0.9,1-2,1.3s-2.9,0.2-4.2,0.1l0,0c-1.3,0-2.8-0.1-4.6-0.4l0,0
		c-0.2,0.9-0.2,1.7-0.2,2.4c0,1,0,1.9-0.4,3.3c-0.3,0.9-0.7,1.8-1.1,2.7c-0.6,1.5-1.3,3-1.7,4.8c-0.3,1.5-0.9,3.1-1.5,5
		c-0.6,1.8-1.3,3.8-1.9,6.1c-1.2,4.7-4,7.5-6.3,9.5L34,34.5c-2,1.7-4.8,4-6.1,7c-0.9,1.8-1.6,3.7-2.2,5.3c-0.2,0.5-0.4,1-0.5,1.4
		c1.1,0.7,2.5,1.4,3.8,1.9c0.9,0.3,1.8,0.5,2.7,0.7c0.9,0.2,1.9,0.5,2.8,0.8c3.1,1,2.6,3.8,2.2,6.4c-0.2,1.4-0.5,2.9-0.1,4
		c0.9,2.2,2.8,2.6,4.9,3.1c1.7,0.3,3.4,0.7,4.8,2.1c1.9,1.9,2.8,3.9,2.4,5.6c-0.3,1.6-1.5,2.1-2.6,2.6c-0.6,0.3-1.3,0.5-1.8,1
		c-0.2,0.2-0.4,0.5-0.6,0.8c-0.3,0.6-0.7,1.2-1.6,1.6c-1,0.5-3.9,0.8-4.2,0.8c-0.4,0.1-0.9,0.1-1.3,0c-0.5,0-0.9,0-1.1,0.1
		c-0.5,0.4-0.8,1.7-0.8,2.6l0,0c0,0.4,0,0.9,0,1.3c0.1,1.8,0.1,3.6-0.6,5.2c-0.1,0.4-0.3,0.9-0.4,1.4c-0.2,0.7-0.3,1.4-0.6,2.1
		c-0.2,0.5-0.5,0.8-0.8,1.1c-0.4,0.5-0.8,0.9-0.8,1.7v0.5h-0.1c0,0.1,0,0.3,0,0.4c0,0.8,0.1,1.6-0.1,2.3c-0.1,0.7-0.4,1.2-0.6,1.8
		c-0.2,0.4-0.4,0.8-0.5,1.3c-0.6,2.3,0,3.9,1.8,5c0.4,0.2,0.8,0.4,1.3,0.6s1.1,0.4,1.5,0.6c0.6,0.3,1,0.8,1.4,1.3
		c0.2,0.3,0.5,0.5,0.8,0.8c1.1,1,2.7,0.9,4.3,0.8c0.4,0,0.9,0,1.3,0c2,0,4.1,0,6.1-0.2h0.1c2.6-0.2,3.7-0.3,5.1,2.5
		c0.9,1.9,1.5,3,3.6,2.3c0.3-0.1,0.5-0.3,0.8-0.5C58.8,114.4,59.3,114,59.9,114z M31.2,95.1h0.4c0-0.2-0.2-0.4-0.4-0.4V95.1z"/>
</g>
</svg>
