<?xml version="1.0" encoding="utf-8"?>
<!-- Generator: Adobe Illustrator 28.0.0, SVG Export Plug-In . SVG Version: 6.00 Build 0)  -->
<svg version="1.1" id="_レイヤー_2" xmlns="http://www.w3.org/2000/svg" xmlns:xlink="http://www.w3.org/1999/xlink" x="0px"
	 y="0px" viewBox="0 0 120 120" style="enable-background:new 0 0 120 120;" xml:space="preserve">
<style type="text/css">
	.st0{fill:#F0E3D2;}
	.st1{fill:#D7323A;}
</style>
<g>
	<path class="st0" d="M24.3,78.6c0.8-1.1,2.5-2.2,3.6-2.8c1.6-0.9,3.6-1.3,5.5-1.2c1.8,0.1,2.7,1.4,4.3,2c0.8,0.3,1.5,0.7,2.2,1
		c0.8,0.2,1.9,0,2.7,0.2c1.2,0.3,3.2,1.1,4.2,1.8c0.9,0.6,0.9,1.3,2.1,1.5c0.9,0.1,1.8-0.1,2.6,0c1.8,0.2,3.6,0.3,5.5,0.3
		c2.7,0,2.9,0.4,4.1,2.4c0.6,0.9,0.8,0.9,1.7,1.4c0.4,0.2,0.7,0.2,1,0.5c0.2,0.2,0.2,0.9,0.4,1.1c0.7,0.6,1.5,0,2.3,0.3
		s1.1,1,1.6,1.8c1.1,1.5,2.7,1.7,4.7,1.4c1.6-0.2,2.8-1.1,4.2-1.6c1.7-0.6,3-0.3,4.3-1.3c1.8-1.4,2.8-1.2,3,1.2
		c0.1,0.7-0.2,1.5,0.4,2c0.7,0.6,2.2-0.1,2.9-0.4c1.4-0.5,2.7-1,4-1.4c0.3-0.1,0.3,0.6,0.8,0.4c0.3-0.2,0.8-1.4,1-1.7
		c0.5-0.8,0.7-1.2,1.6-1.5c1.2-0.5,3.4-0.4,4.7-0.4c1.7,0,2.8,0.7,4,1.6c1.9,1.5,1.3-0.6,2.5-1.7c1.1-1.1,3.6-0.2,5,0
		c2.5,0.5,5.3,1.4,7.5,2.9c0.6-4.8,2.8-9.3-0.2-14.1c0,0.3,0,0.5,0.1,0.8c-1.9-1.5-2.8-4.3-4.1-6.3c-1.4-2-3.4-3.2-3.8-5.8
		c-0.3-1.8,0.5-3.9-0.3-5.6c-1.1-2.2-4.1-3-5-5.5c0.1,0.4,0,0.9,0,1.2c-3.1-1.3-3.7-4.8-4.6-7.6c-0.8-2.6-2.1-5.1-3.4-7.5
		c-2.9,0.4-4.4,1.1-7.4,0c-3.8-1.4-4.3,1.2-7.9,1.8c-3.8,0.7-5.4-0.7-8.3-2.5c-1.4-0.9-2.4-1.2-3.8-2.3c-0.9-0.7-2.2-1.9-3.5-2
		c-1.4-0.2-2.4,0.3-3.9,0.4c-1.3,0-2.8-0.3-4.2-0.3c-3.2,0-5.5-0.9-8.3-2c-1.3-0.5-3.2-1.6-4.5-1.7c-2-0.1-2,0.6-3.5,2
		C39.7,33.7,37,35.7,36,39c-1,3.4-0.1,4.9-3.5,6.8c-1.4,0.8-3,1.3-4.5,1.9c-1.7,0.8-2.1,1.7-3.5,2.9c-2.4,2-6.1,1-8.5,2.7
		c-1.1,0.8-1.3,2.8-2.4,3.7c-1.2,0.9-1.9,0.7-3.5,0.7c-3.4,0-4.2-0.4-5.7,2.4c-0.8,1.6-1.2,2.4-2.8,3.4C1,63.8,0.5,64,0,64.2
		c1.4,1.4,2.7,2.6,3.1,4.8c0.2,1-0.5,2.7-0.2,3.4c0.5,1.3,2.2,1.3,3.6,1.8c3,1.2,4.2,4.5,7.2,5.1c1.6,0.3,2.5,0,3.9,0.7
		c1.7,0.8,2.4,2.3,4.5,2c0.9-0.1,1.3-0.5,1.6-0.8C23.7,80.3,23.8,79.4,24.3,78.6z"/>
	<path class="st1" d="M87.4,89.3c-0.4,0-0.8-0.1-1.1-0.4c-0.6-0.5-0.6-1.2-0.6-1.7c0-0.2,0-0.4,0-0.6c-0.1-1.3-0.4-1.6-0.5-1.6
		c-0.1-0.1-0.6-0.1-1.7,0.7c-0.9,0.7-1.8,0.8-2.7,1c-0.6,0.1-1.1,0.2-1.7,0.4c-0.5,0.2-0.9,0.4-1.4,0.6c-0.9,0.4-1.8,0.9-2.9,1
		C73.1,89,71,89,69.6,87.1l-0.3-0.4c-0.4-0.6-0.6-1-1.1-1.2c-0.2-0.1-0.5-0.1-0.8,0c-0.5,0.1-1.1,0.1-1.7-0.4
		c-0.2-0.2-0.3-0.5-0.4-0.8c0-0.1-0.1-0.3-0.1-0.3c-0.1-0.1-0.2-0.1-0.4-0.2c-0.1,0-0.3-0.1-0.4-0.2L64,83.4c-0.7-0.4-1-0.5-1.5-1.4
		l0.1,0c-1.1-1.9-1.2-2.1-3.6-2.1c-1.9,0-3.7-0.1-5.6-0.3c-0.4,0-0.7,0-1.2,0s-0.9,0.1-1.4,0c-1-0.2-1.3-0.6-1.7-1
		c-0.2-0.2-0.4-0.4-0.6-0.6c-0.9-0.7-2.9-1.4-4-1.7c-0.7-0.2-1.8,0-2.7-0.2c-0.4-0.1-0.7-0.3-1-0.4c-0.4-0.2-0.8-0.4-1.3-0.6
		c-0.7-0.3-1.2-0.6-1.8-1c-0.8-0.5-1.4-0.9-2.4-1c-1.9-0.1-3.8,0.3-5.2,1.1c-1.2,0.7-2.7,1.7-3.4,2.6c-0.5,0.7-0.5,1.6-0.5,2.3v0.2
		l-0.1,0.1c-0.3,0.3-0.8,0.8-1.9,0.9c-1.6,0.2-2.5-0.5-3.4-1.1c-0.4-0.3-0.9-0.7-1.4-0.9C18.6,78,18,78,17.2,78
		c-0.5,0-1-0.1-1.6-0.2c-1.8-0.4-2.9-1.5-4.1-2.7c-0.9-0.9-1.9-1.9-3.2-2.4c-0.3-0.1-0.7-0.2-1.1-0.3c-1.1-0.3-2.3-0.6-2.8-1.8
		c-0.2-0.5-0.1-1.2,0-1.9c0.1-0.6,0.2-1.2,0.1-1.6C4.1,65.2,3,64,1.7,62.8L1.1,62l0.7-0.3c0.5-0.2,1-0.4,1.6-0.7
		c1.4-0.9,1.8-1.6,2.6-3.2c1.5-2.7,2.5-2.7,5-2.7c0.6,0,1.3,0,1.9,0c1.1,0,1.6,0,2.5-0.6c0.4-0.4,0.7-1,1-1.7c0.3-0.8,0.7-1.6,1.4-2
		c1.2-0.9,2.8-1.1,4.2-1.3c1.6-0.2,3.1-0.4,4.2-1.4c0.4-0.4,0.8-0.7,1.1-1.1c0.7-0.7,1.3-1.3,2.5-1.9c0.4-0.2,0.8-0.3,1.3-0.5
		c1.1-0.4,2.2-0.8,3.2-1.4c2.3-1.3,2.4-2.3,2.7-4c0.1-0.7,0.3-1.5,0.5-2.5c0.9-2.9,3-4.8,5-6.7c0.4-0.4,0.8-0.7,1.2-1.1
		c0.4-0.3,0.6-0.6,0.8-0.9c0.8-0.9,1.3-1.4,3-1.3c1,0.1,2.2,0.7,3.3,1.2c0.5,0.2,0.9,0.4,1.3,0.6c2.8,1.1,5,2,8.1,2
		c0.7,0,1.5,0.1,2.2,0.2c0.7,0.1,1.4,0.1,2,0.1c0.5,0,1-0.1,1.5-0.2c0.8-0.2,1.5-0.3,2.5-0.2c1.2,0.1,2.5,1.1,3.3,1.8l0.4,0.3
		c0.8,0.6,1.5,1,2.2,1.4c0.5,0.3,1,0.5,1.6,0.9c0.3,0.2,0.6,0.4,0.9,0.6c2.3,1.5,3.8,2.4,7,1.9c1.3-0.2,2.2-0.7,3-1.2
		c1.3-0.8,2.6-1.5,5.1-0.6c2.2,0.8,3.6,0.6,5.5,0.2c0.5-0.1,1.1-0.2,1.7-0.3h0.3l0.2,0.3c1.3,2.4,2.6,4.9,3.4,7.6
		c0.1,0.4,0.2,0.8,0.4,1.2c0.7,2.3,1.4,4.6,3.3,5.8c0-0.1,0-0.2,0-0.3l1-0.3c0.4,1.2,1.4,2,2.5,2.8c1,0.7,1.9,1.5,2.5,2.6
		c0.5,1.1,0.4,2.4,0.3,3.6c-0.1,0.8-0.1,1.5,0,2.2c0.3,1.6,1.2,2.7,2.2,3.8c0.5,0.5,1,1.1,1.5,1.8c0.4,0.7,0.8,1.5,1.2,2.2
		c0.6,1.1,1.1,2.2,1.9,3.1v-1.2l0.9,1.5c2.4,3.8,1.6,7.5,0.9,11.1c-0.2,1.1-0.5,2.2-0.6,3.4l-0.1,0.8l-0.7-0.5
		c-2.3-1.6-5.3-2.4-7.3-2.8c-0.3,0-0.6-0.1-1-0.2c-1.2-0.3-2.8-0.6-3.5,0.1c-0.4,0.3-0.5,0.8-0.7,1.2c-0.2,0.5-0.4,1-0.9,1.1
		c-0.4,0.1-0.9-0.1-1.6-0.6c-1.1-0.8-2.1-1.5-3.7-1.5h-0.6c-1.3,0-3,0-3.9,0.4c-0.7,0.2-0.9,0.5-1.3,1.2L95.6,86
		c-0.1,0.1-0.2,0.3-0.3,0.5c-0.3,0.7-0.6,1.2-0.9,1.4h-0.1c-0.4,0.2-0.8,0.1-1.1-0.3c-0.9,0.3-1.7,0.6-2.7,0.9l-1.2,0.4
		C89.1,89,88.2,89.3,87.4,89.3z M85.1,84c0.2,0,0.4,0,0.6,0.1c0.9,0.4,1.1,1.6,1.1,2.4c0,0.2,0,0.5,0,0.7c0,0.5,0,0.8,0.2,0.9
		c0.4,0.4,1.8-0.2,2.3-0.4l0.1-0.1l1.1-0.4c1-0.4,2-0.7,2.9-1c0.4-0.1,0.7,0.1,0.8,0.3c0.1-0.2,0.3-0.6,0.4-0.8
		c0.1-0.3,0.2-0.5,0.3-0.6L95,85c0.5-0.7,0.8-1.2,1.8-1.6c1.1-0.5,2.9-0.4,4.3-0.4h0.6c1.9,0,3.1,0.8,4.3,1.7
		c0.5,0.4,0.7,0.4,0.7,0.4l0,0c0,0,0.1-0.3,0.2-0.5c0.2-0.5,0.4-1.1,0.9-1.6c1-1,2.9-0.6,4.4-0.3c0.4,0.1,0.7,0.2,1,0.2
		c2,0.4,4.7,1.1,7,2.6c0.1-0.9,0.3-1.8,0.5-2.7c0.6-3.1,1.2-6-0.1-9l-0.5-0.4c-1.4-1.1-2.2-2.7-3-4.3c-0.4-0.8-0.8-1.5-1.2-2.1
		c-0.4-0.6-0.9-1.1-1.4-1.7c-1.1-1.2-2.2-2.4-2.5-4.3c-0.1-0.8-0.1-1.6,0-2.4c0.1-1.1,0.2-2.2-0.3-3c-0.5-0.9-1.3-1.6-2.2-2.3
		c-0.6-0.5-1.3-1-1.8-1.6v0.2l-0.7-0.3c-2.9-1.2-3.8-4.1-4.5-6.7c-0.1-0.4-0.2-0.8-0.4-1.2c-0.8-2.5-2-4.9-3.2-7.1
		c-0.5,0.1-0.9,0.1-1.3,0.2c-2,0.3-3.5,0.6-6-0.3c-2.1-0.8-3-0.2-4.3,0.5c-0.9,0.5-1.9,1.1-3.4,1.3c-3.6,0.7-5.3-0.5-7.7-2
		c-0.3-0.2-0.6-0.4-0.9-0.6c-0.5-0.4-1-0.6-1.5-0.9c-0.8-0.4-1.5-0.8-2.3-1.5L71.1,33c-0.8-0.7-1.9-1.5-2.8-1.6
		c-0.8-0.1-1.4,0-2.2,0.2c-0.5,0.1-1,0.2-1.6,0.2c-0.7,0-1.4-0.1-2.1-0.1c-0.7-0.1-1.4-0.2-2.1-0.2c-3.3,0-5.7-0.9-8.5-2
		c-0.4-0.2-0.9-0.4-1.4-0.6c-1-0.5-2.2-1-3-1.1c-1.3-0.1-1.5,0.2-2.2,1c-0.2,0.3-0.5,0.6-0.9,0.9c-0.4,0.4-0.8,0.8-1.2,1.1
		c-2,1.9-3.9,3.6-4.7,6.2c-0.3,0.9-0.4,1.7-0.5,2.3c-0.3,1.9-0.5,3.3-3.2,4.8c-1.1,0.6-2.2,1-3.3,1.5c-0.4,0.2-0.8,0.3-1.2,0.5
		c-1,0.5-1.5,1-2.2,1.7c-0.3,0.3-0.7,0.7-1.2,1.1c-1.4,1.1-3.1,1.4-4.7,1.6c-1.4,0.2-2.8,0.4-3.8,1.1c-0.4,0.3-0.7,1-1,1.6
		c-0.3,0.7-0.7,1.5-1.3,2c-1.2,0.9-2,0.9-3.1,0.8c-0.6,0-1.3,0-1.8,0c-2.4,0-3,0-4.1,2.1c-0.8,1.6-1.3,2.5-3,3.6
		c-0.4,0.2-0.7,0.3-1,0.5c1.2,1.2,2.3,2.5,2.7,4.5c0.1,0.6,0,1.3-0.1,1.9c-0.1,0.5-0.2,1.1-0.1,1.4c0.3,0.7,1.1,0.9,2.1,1.2
		c0.4,0.1,0.8,0.2,1.2,0.3c1.5,0.6,2.6,1.7,3.6,2.7c1.1,1.1,2.1,2.1,3.6,2.4c0.5,0.1,1,0.1,1.5,0.2c0.8,0,1.6,0.1,2.6,0.6
		c0.6,0.3,1.1,0.7,1.6,1c0.8,0.6,1.5,1.1,2.7,0.9c0.6-0.1,0.9-0.3,1.2-0.5c0-0.8,0.1-1.8,0.7-2.7l0,0c1-1.4,3.1-2.6,3.8-2.9
		c1.6-0.9,3.7-1.4,5.8-1.3c1.2,0.1,2.1,0.6,2.9,1.2c0.5,0.3,1,0.6,1.6,0.9c0.5,0.2,1,0.4,1.4,0.6c0.3,0.1,0.6,0.3,0.8,0.4
		c0.6,0.1,1.7,0,2.6,0.2c1.3,0.3,3.3,1.1,4.4,1.9c0.4,0.3,0.6,0.5,0.8,0.8c0.3,0.3,0.5,0.6,1.1,0.6c0.4,0,0.8,0,1.2,0s0.9,0,1.3,0
		c1.8,0.2,3.6,0.3,5.4,0.3c2.8,0,3.2,0.5,4.5,2.6l0.1,0.1c0.4,0.6,0.6,0.7,1.1,1l0.4,0.2c0.1,0.1,0.2,0.1,0.3,0.1
		c0.2,0.1,0.5,0.2,0.8,0.5c0.2,0.2,0.3,0.5,0.3,0.8c0,0.1,0.1,0.3,0.1,0.3c0.2,0.1,0.4,0.1,0.8,0.1s0.8-0.1,1.3,0.1
		c0.8,0.3,1.2,1,1.6,1.6l0.2,0.4c0.8,1.1,2.1,1.5,4.2,1.2c1-0.1,1.8-0.5,2.6-0.9c0.5-0.2,1-0.5,1.5-0.7c0.7-0.3,1.4-0.4,1.9-0.4
		c0.9-0.1,1.5-0.2,2.2-0.8C83.6,84.6,84.4,84,85.1,84z M93.8,87.3C93.8,87.3,93.7,87.3,93.8,87.3C93.7,87.3,93.8,87.3,93.8,87.3z"/>
</g>
</svg>
