<?xml version="1.0" encoding="utf-8"?>
<!-- Generator: Adobe Illustrator 28.0.0, SVG Export Plug-In . SVG Version: 6.00 Build 0)  -->
<svg version="1.1" id="_レイヤー_2" xmlns="http://www.w3.org/2000/svg" xmlns:xlink="http://www.w3.org/1999/xlink" x="0px"
	 y="0px" viewBox="0 0 120 120" style="enable-background:new 0 0 120 120;" xml:space="preserve">
<style type="text/css">
	.st0{fill:#F0E3D2;}
	.st1{fill:#D7323A;}
</style>
<g>
	<path class="st0" d="M32.3,104.1c1.1-1.1-0.4-1.7,2-1.7c1.4,0,2.1,1.5,3.1,1.5c1.2,0,1.6-1.9,2.1-2.8c1-2,1.1-3.9,2.1-5.9
		c0.5-1,0.3-2.2,1.7-2.8c2.1-0.9,2,0.7,3.1,1.4c3.4,1.9,2.8-1.9,4.6-2.9c2.6-1.5,4.3,1,5.8-2.3c0.5-1.2,0.3-2,1.7-2.7
		c1.1-0.6,2.7,0.1,3.7-0.6c4.8-3.2-6.4-9.3-0.3-11.5c2.4-0.9,4.3-0.1,6.4,1c1.5,0.8,3,1.1,4.7,1.3c0.7-1.2,1.8-2.1,2.3-3.5
		c0.7-1.8-0.3-3.9,0.2-5.7c0.6-1.9,2.6-2.8,4.6-3c1.6-0.1,2.3,0.3,3.5,1c1.3,0.8,1.3,0.9,2.7,1.3c2.7,0.7,4.5,2,6.2-0.8
		c1.9,0.4,3.3,0,5-0.7c2.9-1.2,5-0.5,7.9-0.7c2.2-0.1,4.6-1.7,7-1.4c1.7,0.2,2,1.5,3.4,0c0.9-1,0.4-2,0.9-3c0.9-1.7,1.5-0.3,2.7-1.3
		c1.3-1.1,0.1-1.5,0-2.7c-0.2-1.6-0.1-1.8-0.9-3.2c-0.6-1-1.3-1.5-2-2.6c-0.8-1.2-0.2-1.7-1.7-2.8c-0.4-0.2-1.2,0.3-1.6-0.1
		c-0.4-0.4,0-0.9-0.2-1.3c-0.2-0.5,0-1.2-0.3-1.7c-0.2-0.4-1.2-0.6-1.4-0.9c-0.5-0.9-0.6-1.9-0.7-2.9c-0.1-1.1-0.3-2.4,0.5-3.3
		c0.9-1.1,2.4-0.4,3-2c-0.3-0.6-0.8-1.2-1.3-1.6c-0.1,0.1-0.3,0.2-0.5,0.4c-0.4,0.2-1.1-0.1-1.5,0c-0.7,0.2-1.2,0.9-1.7,1.1
		c-3.2,0.9-4.6-1.6-6.8-3.4c-1.2-1-1.4-1.7-2.3-2.8c-1.1-1.4-0.9-1-2.5-1.1c-2.8-0.2-4.6-1.7-7-0.4c-1.4,0.8-1.5,1.5-3.3,1.3
		c-2.1-0.3-1.4-1.2-2.4-2.3c-2.4-2.6-3.9-0.4-6.7-1.1c-2.9-0.8-0.5-3.9-0.6-5.7c-0.3-2.9-3.9-3.4-5.5-4.9c-1.2-1.1-1.3-2.6-2.2-3.4
		c-0.8,0.8-1.7,1.6-2.4,2.4c-1.6,1.7-3.9,2.9-6.3,2.9c-1.9,0-1.5,0.6-1.7,3.3s-1.6,3.6-2.6,5.5s-3.2,4.8-4.7,6.2
		c-1.4,1.4-2.3,3.9-2.5,6.2s-1.4,2.4-3.9,4.9c-2.4,2.4-0.3,3.4,1.1,4.8c1.4,1.4,0.8,2.6,0.7,5.4c-0.1,2.7,2.2,3.6,3.3,4.6
		s2.7,2.9,4.7,6.1c1.9,3.1,0.9,5.9,0.6,7.8c-0.3,2-0.3,2.5-1.3,5c-1,2.4-2.1,1-2.8,0.5s-0.5-2.3-0.1-3.3s-0.2-2-0.6-2.8
		c-0.4-0.9-0.2-2.2-1.3-2.6c-1.1-0.5-2.1,0.8-2.9,1.6c-0.8,0.8-1.9,0.9-2.5,1.7c-0.6,0.8,1.3,1.8,1.1,3.4c-0.2,1.7-0.1,2.3,0.8,4.1
		c0.9,1.8,0.7,2.6-0.7,2.4s-1.6,0.4-3.1,1.1s-3.7,0-5-0.6c-9.1-4-6.1-1.8-4.2,1.7c0.9,1.7,0.3,2.3-0.9,2.4c-1.2,0.2-1.8,0-2.4,0.8
		s1.1,1.4,1.9,2.1s-0.7,1.2-1.7,0.9c-1-0.2-1.2-1.4-2.6-1.6s-1.1-0.6-1.6-0.8c-0.5-0.2-0.7-0.7-1.9-0.7c-1.1,0-1.5,0.7-2.1,1.2
		c-0.5,0.5-0.7,1.3-1.4,1.9c-0.6,0.6-1.2,0.6-1.8,0c-0.7-0.5-1.2-0.6-2.1-0.2s-2.2,2.2-3.1,3.3c-0.9,1.1-1.7,0.9-2.7,1.4
		C10,94,9.6,94.1,8,94.1s-1.4-0.6-1.8-1.3c-0.3-0.7,0.2-1.5,0.7-1.9s0-1.5-0.1-2.1c0-0.6-0.9-1-1.8-1c-0.5,0-0.8,0-1.1-0.1
		c-2,0.4-4.3,0.9-3.8,3.4C0.3,92.3,1.6,93,2,94.3c0.3,1.1-0.3,2.5,0,3.5c0.4,1.4,1.9,2.2,2.7,3.3c0.8,1.1,1.1,2.1,1.9,3.2
		c1.4,2.2,3.8,2.8,6.6,3c2.5,0.2,4.7,0,7,0.7c1,0.3,2.2,1,3.4,1.1c1.2,0.1,2.5-0.5,3.6-0.2c0.3,0.1,0.5,0.1,0.6,0.2
		c0.6-1.3,1-2.9,1.7-3.5C30.4,104.8,31.3,105.1,32.3,104.1z"/>
	<path class="st1" d="M30,108l-0.5-0.5c0,0,0,0-0.1,0s-0.2-0.1-0.3-0.1c-0.5-0.1-1.1,0-1.7,0.1s-1.1,0.2-1.7,0.1
		c-0.9-0.1-1.7-0.4-2.4-0.7c-0.4-0.2-0.7-0.3-1.1-0.4c-1.5-0.5-3.1-0.5-4.7-0.6c-0.7,0-1.5,0-2.2-0.1c-2.6-0.2-5.4-0.7-7-3.2
		c-0.4-0.6-0.7-1.1-1-1.6s-0.5-1-0.9-1.5c-0.3-0.4-0.6-0.7-1-1.1C4.7,97.7,3.9,97,3.6,96c-0.2-0.6-0.1-1.3,0-1.9s0.1-1.1,0-1.6
		c-0.2-0.6-0.6-1-1-1.5s-0.9-1.1-1-1.9c-0.3-1.3,0.1-2.3,1.2-3c0.9-0.6,2.1-0.8,3-1h0.1H6c0.2,0.1,0.5,0.1,0.9,0.1
		c1.1,0,2.3,0.5,2.3,1.5c0,0.1,0.1,0.2,0.1,0.4c0.2,0.7,0.4,1.6-0.2,2.1c-0.3,0.3-0.7,0.9-0.6,1.3c0.1,0.1,0.1,0.3,0.2,0.4
		c0.3,0.6,0.4,0.7,1.3,0.7c1.2,0,1.7-0.1,2.3-0.1c0.2,0,0.4,0,0.6-0.1c0.3-0.2,0.7-0.3,1-0.3c0.6-0.2,1-0.3,1.5-0.9
		c0.2-0.2,0.3-0.4,0.5-0.6c0.9-1.1,1.9-2.4,2.8-2.8c1-0.4,1.7-0.4,2.6,0.2c0.5,0.5,0.8,0.5,1.2,0.1c0.4-0.3,0.6-0.7,0.8-1
		c0.2-0.3,0.4-0.6,0.6-0.9c0.2-0.1,0.3-0.2,0.4-0.4c0.5-0.4,1-1,2.1-1c1,0,1.5,0.3,1.8,0.6c0.1,0.1,0.2,0.1,0.3,0.2
		c0.3,0.1,0.4,0.3,0.5,0.4s0.2,0.3,1,0.4c0.9,0.1,1.4,0.6,1.8,1c0.3,0.3,0.5,0.5,0.8,0.6c0.5,0.1,1,0.1,1.2,0
		c-0.2-0.2-0.5-0.4-0.7-0.5c-0.7-0.4-1.3-0.8-1.4-1.4c0-0.2,0-0.5,0.2-0.8c0.6-0.8,1.2-0.8,1.9-0.9c0.2,0,0.5,0,0.8-0.1
		c0.5,0,0.8-0.2,0.9-0.3c0.1-0.1,0.1-0.5-0.3-1.4c-0.4-0.7-0.8-1.3-1.1-1.8c-0.8-1.2-1.3-1.9-0.8-2.5c0.5-0.5,1.2-0.5,6.8,1.9
		c0.7,0.3,3.1,1.3,4.6,0.6c0.4-0.2,0.8-0.4,1.1-0.6c0.7-0.4,1.2-0.7,2.3-0.6c0.5,0.1,0.6,0,0.6,0s0.2-0.3-0.5-1.6
		c-0.9-1.9-1.1-2.6-0.8-4.4c0.1-0.6-0.3-1.2-0.6-1.7c-0.4-0.6-0.9-1.3-0.4-1.9c0.4-0.5,0.9-0.8,1.4-1c0.4-0.2,0.8-0.4,1.1-0.7
		c0.1-0.1,0.2-0.2,0.3-0.3c0.8-0.8,1.9-2,3.1-1.4c1,0.4,1.2,1.3,1.3,2c0.1,0.3,0.1,0.6,0.2,0.8l0.1,0.2c0.4,0.8,1,1.9,0.5,3
		c-0.4,1-0.4,2.4-0.1,2.7c0.1,0.1,0.2,0.2,0.3,0.3c0.3,0.3,0.7,0.6,0.9,0.5c0.1,0,0.4-0.2,0.8-1c0.9-2.2,1-2.8,1.2-4.3l0.1-0.6
		c0-0.3,0.1-0.6,0.2-0.9c0.4-1.8,0.8-4.1-0.7-6.5c-2.3-3.6-3.9-5.3-4.6-6c-0.2-0.2-0.5-0.4-0.8-0.6c-1.2-0.8-2.8-2-2.7-4.4
		c0-0.7,0.1-1.3,0.1-1.8c0.1-1.6,0.2-2.3-0.7-3.2c-0.2-0.2-0.4-0.4-0.7-0.6c-0.8-0.7-1.6-1.4-1.7-2.5c0-0.8,0.4-1.5,1.2-2.4
		c0.8-0.8,1.4-1.3,1.9-1.8c1.2-1,1.7-1.4,1.8-2.8c0.2-2.6,1.2-5.1,2.6-6.5c1.5-1.4,3.6-4.2,4.6-6.1c0.3-0.6,0.7-1.1,1-1.6
		c0.7-1.1,1.4-2,1.5-3.7c0-0.5,0.1-0.9,0.1-1.3c0.1-1.6,0.1-2.5,2.1-2.5c2.1,0,4.3-1,5.9-2.7c0.5-0.5,1-1.1,1.6-1.6
		c0.3-0.3,0.6-0.5,0.8-0.8l0.3-0.3l0.4,0.3c0.5,0.4,0.8,1,1.1,1.6c0.3,0.6,0.6,1.3,1.2,1.8c0.5,0.5,1.2,0.8,1.9,1.2
		c1.6,0.8,3.5,1.8,3.7,4c0,0.7-0.2,1.4-0.4,2.2c-0.3,0.9-0.6,1.9-0.3,2.5c0.2,0.3,0.5,0.5,0.9,0.6c1,0.2,1.8,0.1,2.6-0.1
		c1.3-0.2,2.7-0.5,4.4,1.3c0.4,0.5,0.6,0.9,0.7,1.2c0.2,0.5,0.3,0.8,1.4,0.9s1.4-0.1,2-0.6c0.3-0.2,0.6-0.4,1-0.7
		c1.8-1,3.2-0.6,4.8-0.2c0.8,0.2,1.6,0.4,2.5,0.5c0.3,0,0.6,0,0.8,0c1,0,1.2,0.1,2.1,1.3c0.3,0.4,0.6,0.7,0.8,1.1
		c0.4,0.6,0.7,1.1,1.4,1.7c0.5,0.4,1,0.9,1.4,1.3c1.5,1.5,2.7,2.6,4.9,2c0.1,0,0.3-0.2,0.5-0.4c0.3-0.3,0.7-0.6,1.2-0.7
		c0.3-0.1,0.6,0,0.9,0c0.2,0,0.4,0.1,0.5,0s0.2-0.2,0.3-0.2l0.1-0.1l0.3-0.3l0.3,0.3c0.6,0.5,1.1,1.1,1.4,1.8l0.1,0.2l-0.1,0.2
		c-0.4,1.1-1.3,1.4-1.9,1.6c-0.5,0.1-0.8,0.2-1.1,0.6c-0.6,0.7-0.5,1.7-0.4,2.7v0.3c0.1,1,0.2,1.9,0.6,2.7c0,0,0.2,0.1,0.4,0.2
		c0.4,0.2,0.8,0.4,1,0.8c0.2,0.4,0.2,0.8,0.2,1.2c0,0.2,0,0.4,0.1,0.6c0.1,0.3,0.1,0.6,0.1,0.8s0,0.3,0,0.3c0.1,0,0.3,0,0.5,0
		c0.3-0.1,0.7-0.1,1,0c1.1,0.8,1.3,1.4,1.5,2c0.1,0.3,0.2,0.6,0.4,1c0.3,0.5,0.7,0.9,1,1.3c0.3,0.4,0.7,0.8,1,1.3
		c0.7,1.3,0.8,1.7,0.9,2.7l0.1,0.7c0,0.3,0.2,0.6,0.3,0.9c0.3,0.6,0.7,1.3-0.5,2.3c-0.7,0.6-1.2,0.5-1.7,0.5c-0.4,0-0.6,0-0.9,0.6
		c-0.2,0.3-0.2,0.7-0.2,1.1c-0.1,0.6-0.1,1.3-0.8,2c-1.1,1.2-1.8,1-2.6,0.6c-0.3-0.2-0.7-0.3-1.2-0.4c-1.3-0.2-2.6,0.3-3.9,0.7
		c-1,0.3-2.1,0.7-3.1,0.7c-1,0.1-1.8,0-2.7,0c-1.7-0.1-3.2-0.1-5.1,0.7c-1.8,0.7-3.2,1.1-5,0.8c-1.6,2.3-3.3,1.7-5.2,1.1
		c-0.4-0.1-0.9-0.3-1.3-0.4c-1.2-0.4-1.5-0.5-2.3-1l-0.6-0.4c-1.2-0.7-1.8-1-3.2-0.9c-1,0.1-3.5,0.6-4.2,2.7c-0.2,0.7-0.1,1.6,0,2.5
		c0.1,1.1,0.2,2.2-0.2,3.3c-0.3,0.9-0.9,1.6-1.4,2.3c-0.3,0.4-0.6,0.8-0.9,1.3l-0.2,0.3h-0.3c-1.6-0.2-3.2-0.5-4.9-1.4
		c-2-1.1-3.8-1.8-6-1c-0.8,0.3-1.3,0.7-1.5,1.1c-0.3,0.9,0.6,2.3,1.5,3.6c1.4,2.2,3.2,4.8,0.4,6.7c-0.6,0.4-1.4,0.4-2.2,0.4
		c-0.6,0-1.2,0-1.6,0.2c-0.9,0.4-1,0.8-1.2,1.5c-0.1,0.3-0.2,0.6-0.3,0.9c-1,2.3-2.3,2.2-3.5,2.1c-0.8,0-1.6-0.1-2.5,0.4
		c-0.5,0.3-0.8,0.9-1.1,1.5c-0.4,0.8-0.8,1.6-1.6,1.9c-0.6,0.2-1.4,0-2.4-0.5c-0.5-0.3-0.7-0.6-0.9-1c-0.4-0.6-0.6-0.9-1.7-0.4
		c-0.8,0.3-0.9,0.8-1.1,1.5c-0.1,0.3-0.2,0.7-0.4,1c-0.5,1-0.7,1.9-1,2.9s-0.6,2-1.1,3c-0.1,0.2-0.2,0.5-0.3,0.8
		c-0.4,1-1,2.3-2.2,2.3c-0.6,0-1.1-0.4-1.6-0.8s-0.9-0.7-1.5-0.7c-0.7,0-1,0.1-1,0.1v0.1c0,0.3-0.1,0.8-0.6,1.4l0,0l0,0
		c-0.6,0.6-1.2,0.8-1.7,1c-0.4,0.1-0.7,0.2-1.1,0.5s-0.7,1.2-1,2c-0.2,0.4-0.3,0.9-0.5,1.3L30,108z M5.9,86.2C5,86.4,4,86.6,3.3,87
		s-0.9,1.1-0.7,2c0.1,0.5,0.4,0.9,0.8,1.4s0.8,1,1.1,1.7c0.2,0.7,0.1,1.3,0,2c-0.1,0.6-0.1,1.1,0,1.5c0.2,0.8,0.8,1.4,1.5,2
		c0.4,0.4,0.8,0.8,1.1,1.2c0.4,0.6,0.7,1.1,1,1.7c0.3,0.5,0.5,1,0.9,1.5c1.4,2.2,3.8,2.6,6.2,2.8c0.8,0.1,1.5,0.1,2.2,0.1
		c1.7,0.1,3.3,0.1,4.9,0.6c0.4,0.1,0.7,0.3,1.1,0.4c0.7,0.3,1.4,0.6,2.1,0.7c0.5,0,1,0,1.5-0.1c0.7-0.1,1.5-0.2,2.2,0
		c0.1,0,0.1,0,0.2,0.1c0.1-0.3,0.2-0.6,0.3-0.8c0.4-1,0.7-1.9,1.3-2.4c0.5-0.4,1-0.6,1.4-0.7c0.5-0.2,0.9-0.3,1.3-0.7l0,0
		c0.3-0.3,0.3-0.5,0.3-0.7c0.1-0.9,0.7-1.1,2-1.1c0.9,0,1.6,0.5,2.1,1c0.4,0.3,0.7,0.5,1,0.5c0.6,0,0.9-0.9,1.3-1.7
		c0.1-0.3,0.3-0.6,0.4-0.8c0.5-0.9,0.7-1.9,1-2.8c0.3-1,0.6-2,1.1-3c0.1-0.3,0.2-0.5,0.3-0.8c0.2-0.7,0.5-1.7,1.7-2.2
		c1.8-0.8,2.4,0.1,2.9,0.7c0.2,0.3,0.4,0.5,0.7,0.7c0.7,0.4,1.2,0.5,1.6,0.4c0.4-0.1,0.7-0.7,1-1.3c0.3-0.7,0.7-1.5,1.5-2
		c1.2-0.7,2.2-0.6,3.1-0.6c1.1,0.1,1.8,0.1,2.5-1.5c0.1-0.3,0.2-0.6,0.3-0.8c0.2-0.8,0.4-1.5,1.7-2.1c0.6-0.3,1.4-0.3,2-0.3
		s1.2,0,1.6-0.2c1.8-1.2,1-2.8-0.7-5.3C62,76.5,61,75,61.5,73.6c0.3-0.8,0.9-1.4,2.1-1.8c2.6-1,4.7-0.1,6.8,1c1.3,0.7,2.7,1,4.2,1.2
		c0.3-0.4,0.5-0.7,0.8-1.1c0.5-0.7,1-1.3,1.3-2c0.3-0.9,0.2-1.8,0.1-2.8c-0.1-0.9-0.2-1.9,0.1-2.8c0.6-1.9,2.5-3.1,5-3.4
		c1.8-0.1,2.6,0.4,3.8,1.1l0.6,0.4c0.8,0.5,0.9,0.6,2,0.9c0.5,0.1,0.9,0.3,1.4,0.4c2,0.6,3.1,1,4.3-1l0.2-0.3l0.3,0.1
		c1.7,0.4,3,0,4.7-0.7c2.1-0.9,3.7-0.8,5.5-0.7c0.8,0,1.7,0.1,2.6,0c0.9,0,1.8-0.3,2.8-0.7c1.4-0.4,2.8-0.9,4.3-0.7
		c0.7,0.1,1.1,0.3,1.5,0.5c0.6,0.3,0.8,0.4,1.4-0.3c0.4-0.5,0.4-0.9,0.5-1.5c0-0.4,0.1-0.9,0.3-1.4c0.6-1.2,1.2-1.2,1.9-1.2
		c0.3,0,0.6,0,1-0.3c0.5-0.5,0.5-0.6,0.2-1.1c-0.2-0.3-0.4-0.7-0.4-1.2l-0.1-0.7c-0.1-1-0.1-1.3-0.8-2.3c-0.3-0.5-0.6-0.8-0.9-1.2
		s-0.7-0.8-1.1-1.4c-0.3-0.5-0.5-0.9-0.6-1.3c-0.1-0.5-0.2-0.8-1-1.3c-0.1,0-0.2,0-0.4,0c-0.4,0.1-1,0.2-1.4-0.2s-0.3-0.9-0.3-1.2
		c0-0.1,0-0.2,0-0.3c-0.1-0.3-0.2-0.7-0.2-1s0-0.5-0.1-0.7c-0.1-0.1-0.4-0.3-0.6-0.3c-0.3-0.2-0.7-0.3-0.8-0.5
		c-0.6-1-0.7-2.1-0.8-3.1v-0.3c-0.1-1.1-0.2-2.4,0.6-3.4c0.5-0.6,1.1-0.8,1.6-0.9c0.5-0.1,0.9-0.3,1.2-0.7c-0.2-0.3-0.5-0.7-0.8-1
		l-0.1,0.1l-0.1,0.1c-0.4,0.2-0.8,0.1-1.1,0.1c-0.2,0-0.4-0.1-0.5,0c-0.3,0.1-0.6,0.3-0.8,0.5c-0.3,0.2-0.5,0.4-0.8,0.5
		c-2.8,0.8-4.4-0.8-6-2.2c-0.4-0.4-0.9-0.8-1.3-1.2c-0.8-0.7-1.2-1.3-1.6-1.9c-0.2-0.3-0.4-0.6-0.7-1c-0.7-0.9-0.7-0.9-1.3-0.9
		c-0.2,0-0.5,0-0.9,0c-1-0.1-1.9-0.3-2.7-0.5c-1.5-0.4-2.6-0.7-4,0.1c-0.4,0.2-0.6,0.4-0.9,0.6c-0.7,0.5-1.2,0.9-2.7,0.8
		c-1.6-0.2-1.9-0.8-2.2-1.6c-0.1-0.3-0.2-0.6-0.5-0.9c-1.3-1.4-2.2-1.2-3.4-1c-0.9,0.2-1.8,0.3-3,0c-0.8-0.2-1.3-0.6-1.6-1.1
		c-0.5-0.9-0.2-2.1,0.2-3.3c0.2-0.6,0.4-1.3,0.4-1.8c-0.2-1.6-1.6-2.4-3.2-3.2c-0.8-0.4-1.6-0.8-2.2-1.4c-0.7-0.6-1.1-1.4-1.4-2.1
		c-0.2-0.4-0.3-0.7-0.5-1c-0.1,0.1-0.3,0.3-0.5,0.4c-0.5,0.5-1.1,1-1.5,1.6c-1.8,1.9-4.3,3.1-6.7,3.1c-1.1,0-1.1,0-1.1,1.5
		c0,0.4,0,0.8-0.1,1.3c-0.1,2-0.9,3.1-1.7,4.2c-0.3,0.5-0.7,0.9-1,1.5c-1,1.9-3.3,4.9-4.8,6.3c-1.2,1.2-2.1,3.5-2.3,5.9
		c-0.2,1.8-0.9,2.5-2.2,3.5c-0.5,0.4-1.1,1-1.9,1.7c-0.6,0.6-1,1.2-0.9,1.7c0,0.6,0.7,1.2,1.3,1.8c0.2,0.2,0.5,0.4,0.7,0.7
		c1.2,1.2,1.1,2.4,1,4c0,0.5-0.1,1.1-0.1,1.8c-0.1,1.9,1.2,2.7,2.3,3.5c0.3,0.2,0.6,0.5,0.9,0.7c1,0.9,2.6,2.7,4.8,6.2
		c1.7,2.8,1.2,5.4,0.8,7.2c-0.1,0.3-0.1,0.6-0.2,0.9l-0.1,0.6c-0.2,1.6-0.3,2.2-1.2,4.5c-0.4,1-0.9,1.5-1.5,1.6
		c-0.8,0.2-1.4-0.3-1.8-0.7c-0.1-0.1-0.2-0.2-0.3-0.2c-1.1-0.8-0.6-3-0.3-3.9c0.3-0.7-0.1-1.5-0.5-2.2l-0.1-0.2
		c-0.2-0.4-0.2-0.7-0.3-1.1c-0.1-0.7-0.3-1.1-0.7-1.3c-0.6-0.3-1.3,0.3-2,1.1c-0.1,0.1-0.2,0.2-0.3,0.3c-0.4,0.4-0.9,0.7-1.4,0.9
		c-0.4,0.2-0.8,0.4-1.1,0.7c-0.1,0.1,0.2,0.5,0.4,0.8c0.4,0.6,0.9,1.4,0.8,2.4c-0.2,1.6-0.1,2.1,0.8,3.8c0.7,1.3,0.8,2.1,0.4,2.7
		c-0.3,0.4-0.8,0.6-1.6,0.5s-1.1,0.1-1.7,0.4c-0.3,0.2-0.7,0.4-1.1,0.6c-1.9,0.9-4.4-0.1-5.4-0.6c-2.9-1.3-4.7-2-5.4-2.1
		c0.2,0.3,0.5,0.8,0.7,1.2c0.4,0.6,0.8,1.2,1.2,1.9c0.5,1,0.6,1.7,0.3,2.3c-0.3,0.5-0.8,0.8-1.6,0.8c-0.3,0-0.6,0.1-0.8,0.1
		c-0.7,0.1-0.9,0.1-1.2,0.5c0,0.2,0.6,0.6,0.9,0.8c0.3,0.2,0.6,0.4,0.9,0.6c0.6,0.5,0.4,1,0.3,1.2c-0.4,0.7-1.6,0.9-2.5,0.6
		c-0.6-0.1-0.9-0.5-1.3-0.8c-0.4-0.4-0.7-0.7-1.3-0.8c-1-0.1-1.3-0.4-1.6-0.7c-0.1-0.1-0.1-0.1-0.1-0.1c-0.2-0.1-0.4-0.2-0.5-0.3
		c-0.3-0.2-0.5-0.4-1.2-0.4s-1,0.3-1.4,0.7c-0.1,0.1-0.3,0.3-0.4,0.4s-0.3,0.4-0.4,0.7c-0.2,0.4-0.5,0.9-1,1.2
		c-0.8,0.8-1.7,0.8-2.5,0c-0.5-0.3-0.8-0.4-1.5-0.1c-0.6,0.3-1.6,1.6-2.4,2.5c-0.2,0.2-0.4,0.5-0.5,0.7c-0.7,0.9-1.4,1-2,1.2
		c-0.3,0.1-0.6,0.2-0.9,0.3l-0.2,0.1c-0.3,0-0.5,0-0.7,0.1C11.4,93,10.9,93,9.7,93c-1.5,0-1.8-0.5-2.1-1.2c0-0.1-0.1-0.2-0.2-0.4
		c-0.4-1,0.1-2,0.8-2.5c0.1-0.1,0-0.4-0.1-1.1C8,87.6,8,87.4,8,87.2c0-0.3-0.5-0.6-1.3-0.6C6.5,86.3,6.2,86.3,5.9,86.2z"/>
</g>
</svg>
