<?xml version="1.0" encoding="UTF-8"?><svg id="_レイヤー_2" xmlns="http://www.w3.org/2000/svg" viewBox="0 0 402.08 362.92"><defs><style>.cls-1{fill:#ecbf84;}.cls-2{font-family:ToppanBunkyuGothicPr6N-DB-83pv-RKSJ-H, 'Toppan Bunkyu Gothic';font-size:119.16px;}.cls-2,.cls-3,.cls-4,.cls-5{fill:#211815;}.cls-3{font-size:90.91px;}.cls-3,.cls-5{font-family:YuMin-Extrabold-83pv-RKSJ-H, YuMincho;font-weight:700;}.cls-4{font-family:ToppanBunkyuMidashiGothicStdN-ExtraBold-83pv-RKSJ-H, 'Toppan Bunkyu Midashi Gothic';}.cls-4,.cls-5{font-size:79.44px;}</style></defs><g id="pc"><g><path class="cls-1" d="M333.67,65.62c-.08,1.16-1.05,2.04-2.1,2.39-1.28,.43-2.61-.05-3.9,.17-1.21,.2-2.25,1.12-2.6,2.3-.2,.68-1.39,1.02-1.59,.13-.52-2.27-3.56-1.97-3.68,.33-.03,.6-.74,.75-1.18,.59-2.96-1.02-6.13-1.25-9.22-.85-11.58,1.48-19.65,10.94-24.46,20.88-.48,.99-1.82,.26-1.49-.72,.91-2.75-.23-5.78-2.02-7.91-1.74-2.08-4.13-3.52-6.48-4.8-2.61-1.42-5.29-2.82-8.14-3.68-2.77-.83-5.65-1.06-8.45-.24-2.57,.75-4.9,2.11-7.19,3.46-.57,.33-1.18,.02-1.3-.61-.38-2.16-.96-5.11-3.14-6.19-2.3-1.14-4.64,.89-5.46,2.94-.45,1.12-.51,2.5-.03,3.61,.5,1.17,1.63,1.8,2.7,2.35,2.32,1.17,4.48,2.46,6.36,4.28,.94,.91,1.81,1.91,2.58,2.97,.63,.87,1.27,1.85,1.03,2.98-.5,2.34-3.51,2.45-5.24,1.63-1.19-.56-2.24-1.47-3.56-1.7-1.07-.19-2.22,.02-3.17,.55-1.1,.61-1.69,1.55-2.22,2.66-.5,1.05-1.06,2.14-2.1,2.74-1.77,1.03-4.22,.35-5.34-1.32-1.24-1.85-.75-4.41,.75-5.95,.12-.12,.25-.2,.38-.23,.82-1.52,1.21-3.22,1.05-4.96-.08-.97-.32-1.96-.76-2.84-.49-.97-1.37-1.41-2.2-2.04-1.49-1.15-2.02-2.88-.77-4.42,.3-.37,.65-.68,.73-1.17,.07-.44-.01-.9-.06-1.34-.09-.86-.11-1.7,.32-2.48,.12-.22,.3-.35,.49-.4,.55-1.65,1.93-2.93,3.7-3.19,1.12-.17,2.25,.33,3.35,.02,.82-.23,1.53-.83,2.01-1.53,1.19-1.75,.83-3.89,.55-5.85-.21-1.45-.36-3.22,.59-4.46,1.06-1.38,2.9-1.38,4.31-.57,1.56,.89,2.41,2.7,4,3.5,.9,.45,1.84,.16,2.79,.05,.82-.1,1.63-.05,2.38,.33,.77,.38,1.44,1.22,2.33,1.33,.78,.1,1.51-.51,1.9-1.13,1.12-1.75,.34-4.29,.31-6.22-.04-2.16,.22-4.3,.75-6.39,.18-.71,1.01-.79,1.42-.43,.11-.09,.26-.15,.44-.17,2.3-.21,3.59-2.35,4.3-4.33,.88-2.42,1.51-5,2.08-7.51,.58-2.56,.88-5.14,.89-7.76,0-2.53-.18-5.05-.29-7.57-.08-1.79-.58-4.32,.87-5.69,.61-.57,1.4-.82,2.06-1.3,.8-.57,.87-1.54,1.1-2.42,.36-1.38,1.43-3.06,3.1-2.78,.95,.16,1.52,.95,2.03,1.7,.56,.84,1.1,1.69,1.63,2.55,2.25,3.68,4.13,7.55,5.74,11.55,.84,2.08,1.72,4.1,3.06,5.92,1.26,1.71,2.77,3.22,4.25,4.74,3.24,3.31,6.54,6.54,9.92,9.7,1.43,1.34,3.06,2.84,5.04,3.24,.53,.11,1.05,.12,1.57,0,.43-.1,.81-.33,1.25-.39,.69-.1,1.35,.15,1.75,.73,.44,.64,.38,1.44,.68,2.13,.32,.73,1.08,1.16,1.84,1.29,2.01,.35,4.17-1.13,5.71-2.25,1.51-1.1,2.67-2.51,4.06-3.73,1.2-1.05,2.7-1.9,4.33-1.43,.45,.13,.73,.49,.66,.97-.56,4.23-4.5,7.08-5.25,11.16,1.27,2.25,2.02,4.74,2.14,7.33,.06,1.24-.03,2.6,1.46,2.9,1.07,.22,2.16,.1,3.17,.61,.87,.44,1.51,1.26,1.45,2.27m-1.77,.21c.59-1.02-1.22-1.27-1.86-1.33-1.15-.1-2.34-.2-3.17-1.11-.68-.74-.85-1.75-.91-2.72-.13-2.38-.54-4.58-1.59-6.69-.37-.11-.69-.44-.66-.92,.28-4.31,4.19-7.13,5.19-11.14-1.44,.13-2.64,1.61-3.59,2.58-1.55,1.6-3.34,2.97-5.33,3.98-1.81,.92-3.99,1.47-5.85,.36-.77-.46-1.39-1.15-1.67-2.02-.12-.39-.16-.81-.28-1.2-.17-.53-.32-.34-.79-.17-4,1.39-7.45-2.26-10.07-4.74-3.3-3.13-6.55-6.32-9.7-9.6-1.44-1.5-2.87-3.05-4.02-4.8-1.14-1.75-1.92-3.68-2.7-5.61-1.63-4.05-3.58-7.96-5.91-11.66-.32-.51-.65-1.02-.98-1.52-.23-.34-.51-.96-.88-1.15-.72-.39-1.22,.66-1.4,1.22-.28,.91-.36,1.85-.89,2.66-.48,.73-1.17,1.11-1.91,1.52-1.02,.56-1.33,1.03-1.33,2.24,0,1.05,.06,2.11,.11,3.16,.11,2.21,.26,4.41,.27,6.63,.03,4.7-.93,9.12-2.21,13.62-.98,3.45-2.35,7.85-6.57,8.25-.21,.02-.39-.03-.53-.13-.52,2.26-.69,4.56-.5,6.88,.17,2.09,.45,4.35-.94,6.11-1,1.27-2.67,1.9-4.19,1.19-.81-.38-1.45-1.17-2.34-1.36-.83-.18-1.73,.17-2.57,.21-1.88,.1-3.18-1.02-4.38-2.33-.84-.91-3.15-3.22-4.16-1.26-.73,1.41,.01,3.41,.14,4.88,.17,1.9-.14,3.92-1.34,5.46-1.01,1.3-2.55,2.09-4.21,2-1.05-.06-2.03-.33-3.01,.21-.68,.38-1.2,1.02-1.41,1.77-.09,.31-.31,.51-.55,.59-.44,.82-.06,1.81-.07,2.69,0,.88-.27,1.57-.82,2.26-.32,.39-.78,.75-.67,1.31,.08,.4,.44,.75,.73,1,.72,.61,1.57,1.01,2.18,1.75,1.19,1.45,1.62,3.63,1.59,5.46-.04,1.91-.58,3.78-1.62,5.39-.16,.24-.38,.36-.61,.4-.63,.85-.91,1.95-.54,2.98,.39,1.08,1.58,1.76,2.72,1.58,1.35-.22,1.82-1.67,2.35-2.74,.55-1.1,1.29-2.05,2.34-2.71,1.87-1.18,4.23-1.35,6.23-.4,1.11,.53,2.23,1.56,3.49,1.66,1.05,.08,2.17-.56,1.56-1.68-1.18-2.2-3.31-4.11-5.32-5.53-1.95-1.38-4.56-2.05-6.18-3.84-3.05-3.38-.56-9.4,3.64-10.41,2.02-.49,3.98,.42,5.21,2.04,1.01,1.34,1.5,2.98,1.85,4.62,2.58-1.5,5.24-2.89,8.19-3.44,3.19-.59,6.44,.06,9.44,1.18,3.02,1.12,5.95,2.66,8.71,4.32,2.49,1.51,4.89,3.37,6.34,5.94,.65,1.16,1.1,2.39,1.3,3.65,1.03-1.82,2.16-3.59,3.41-5.26,3.55-4.79,8.14-8.88,13.68-11.2,5.06-2.12,10.72-2.69,15.99-1.16,.44-1.27,1.62-2.28,2.99-2.4,1.1-.1,2.19,.4,2.91,1.21,.94-1.3,2.44-2.08,4.16-2.06,1.02,.01,2.85,.46,3.5-.66"/><path class="cls-1" d="M330.04,64.5c.63,.06,2.45,.3,1.86,1.33-.65,1.11-2.48,.67-3.5,.66-1.72-.02-3.22,.76-4.16,2.06-.72-.81-1.8-1.31-2.91-1.21-1.37,.12-2.55,1.13-2.99,2.4-5.27-1.53-10.93-.96-15.99,1.16-5.53,2.32-10.13,6.41-13.68,11.2-1.25,1.68-2.38,3.44-3.4,5.26-.2-1.26-.65-2.49-1.3-3.65-1.45-2.58-3.86-4.44-6.34-5.94-2.75-1.67-5.69-3.2-8.71-4.33-3-1.12-6.25-1.77-9.45-1.18-2.95,.55-5.61,1.94-8.19,3.44-.34-1.64-.84-3.28-1.85-4.62-1.23-1.62-3.19-2.52-5.21-2.04-4.2,1.01-6.69,7.03-3.64,10.41,1.62,1.79,4.24,2.46,6.18,3.84,2,1.42,4.14,3.33,5.32,5.53,.6,1.13-.51,1.76-1.56,1.69-1.27-.1-2.38-1.13-3.49-1.66-2.01-.95-4.36-.78-6.23,.4-1.05,.66-1.8,1.61-2.35,2.71-.53,1.07-1,2.53-2.35,2.74-1.13,.18-2.33-.5-2.71-1.58-.37-1.03-.09-2.13,.54-2.98,.23-.03,.45-.16,.61-.4,1.04-1.61,1.57-3.48,1.62-5.39,.04-1.83-.4-4.01-1.58-5.46-.61-.74-1.46-1.15-2.18-1.75-.29-.25-.65-.6-.73-.99-.11-.56,.35-.91,.66-1.31,.55-.68,.82-1.38,.82-2.26,0-.88-.37-1.87,.07-2.69,.25-.08,.46-.27,.55-.59,.21-.75,.73-1.39,1.41-1.77,.98-.54,1.95-.27,3.01-.21,1.66,.09,3.2-.7,4.21-2,1.2-1.54,1.51-3.55,1.34-5.46-.13-1.48-.87-3.47-.14-4.88,1.01-1.96,3.32,.35,4.16,1.26,1.2,1.31,2.5,2.43,4.38,2.33,.83-.04,1.73-.39,2.57-.21,.89,.19,1.53,.98,2.35,1.36,1.52,.7,3.19,.08,4.19-1.19,1.39-1.76,1.11-4.02,.94-6.11-.19-2.32-.02-4.62,.5-6.88,.14,.1,.31,.15,.53,.12,4.22-.4,5.59-4.8,6.57-8.25,1.28-4.5,2.24-8.92,2.21-13.62-.01-2.21-.16-4.42-.27-6.63-.05-1.05-.11-2.11-.11-3.16,0-1.21,.31-1.68,1.33-2.24,.74-.41,1.43-.79,1.91-1.52,.53-.81,.61-1.75,.89-2.66,.17-.56,.67-1.61,1.4-1.22,.37,.2,.65,.81,.88,1.16,.33,.5,.66,1.01,.98,1.52,2.33,3.7,4.28,7.61,5.91,11.66,.78,1.93,1.56,3.87,2.7,5.61,1.14,1.75,2.57,3.3,4.02,4.8,3.16,3.28,6.4,6.47,9.7,9.6,2.62,2.48,6.07,6.13,10.07,4.74,.47-.17,.62-.36,.79,.18,.13,.39,.16,.81,.29,1.2,.27,.86,.89,1.56,1.67,2.02,1.86,1.1,4.04,.56,5.85-.36,1.99-1.01,3.78-2.38,5.33-3.98,.95-.98,2.14-2.46,3.58-2.59-1,4.01-4.9,6.83-5.19,11.14-.03,.48,.29,.81,.66,.92,1.06,2.11,1.46,4.31,1.6,6.69,.06,.97,.22,1.98,.91,2.72,.83,.9,2.02,1.01,3.17,1.11"/><path class="cls-1" d="M260.5,144.88c-.75,4.37-2.62,8.33-5.29,11.85-1.4,1.85-2.93,3.6-4.21,5.53-.66,1-1.25,2.06-1.69,3.17-.37,.93-.55,1.89-.83,2.85-.59,2.03-1.88,3.33-4.06,3.37-1.01,.02-2.02-.18-3.03-.06-.93,.11-1.75,.59-2.39,1.26-1.7,1.77-1.95,4.3-2.01,6.63-.07,2.74-.08,5.48-.12,8.21,0,.31-.15,.54-.35,.69,.29,3.54-.62,7.02-2.04,10.26-2.67,6.05-7.03,11.22-9.21,17.51-.97,2.81-1.48,5.88-.89,8.83,.54,2.7,3.03,5.59,1.24,8.28-.18,.28-.72,.38-.99,.2-1.8-1.15-3.75,.31-4.8,1.78-1.24,1.74-2.08,3.68-3.51,5.3-2.73,3.08-6.37,5.14-9.93,7.11-.56,.31-1.18,.03-1.29-.61-.43-2.54-.04-5.17,1.04-7.5,.96-2.07,2.43-3.73,4.25-5.08,.36-.26,1.2-.8,1.17-1.33-.03-.52-.86-.73-1.25-.83-.92-.25-1.89-.35-2.83-.31-1.77,.07-3.9,.67-4.3,2.66-.42,2.08,.43,4.39-1.48,5.93-.38,.31-.87,.1-1.15-.21-1.77-1.98-4.55-2.92-7.16-2.54-.57,.08-1.39,.19-1.85,.57-.56,.46-.34,1.63-.37,2.29-.07,1.63-.31,3.24-.74,4.81-.58,2.14-1.53,4.49-3.67,5.48-1.6,.74-3.87,.24-4.81-1.32-1.14-1.88,.3-3.64,1.65-4.86,.7-.63,1.58-1.32,1.84-2.26,.23-.82-.16-1.67-.71-2.27-1.43-1.58-3.58-1.74-5.37-.71-2.02,1.15-3.32,3.19-4.54,5.09-1.12,1.74-2.6,3.6-4.89,3.45-1.41-.09-2.83-.79-4.15-1.24l-4.3-1.48c-.34-.12-.52-.58-.45-.9,.17-.88-.66-1.55-1.47-1.7-1.35-.25-1.56,1.25-2.29,2.05-1.74,1.9-4.68,1.33-6.84,.64-.13-.04-.24-.11-.33-.19-.99-.16-.67-1.72,.36-1.62,1.08,.11,2.17-.09,3.13-.61,.22-.12,.52-.25,.66-.47,.15-.22,.24-.19-.04-.3-.39-.17-1.02,.03-1.44-.05-1.72-.33-1.58-1.94-1.85-3.27-.17-.85-.98-.83-1.38-.08-.36,.65-.17,1.44-.48,2.11-.69,1.5-2.68,.8-2.77-.69-.06-.92,.53-1.85,.89-2.67,.18-.42,.37-.84,.55-1.26,.1-.22,.61-1.07,.53-1.32-.29-.92-1.7,.66-1.93,1-.44,.65-.75,1.38-1.14,2.06-.43,.75-.95,1.4-1.56,2.01-.52,.51-1.11,1.02-1.46,1.67-.89,1.66,.67,3.06,1.89,3.94,1.31,.94,1.67,2.49,1.3,4.03-.38,1.57-1.42,2.79-2.84,3.52-.24,.12-.64,.03-.82-.15-.9-.92-2.61-.86-3.82-.91-1.32-.05-2.67,.06-3.8,.81-.52,.34-1.05,.77-1.43,1.26-.46,.6-.54,1.34-.81,2.03-.43,1.08-1.22,2-2.19,2.64-.06,.1-.16,.2-.3,.27-2.43,1.34-3.54,4.05-5.45,5.94-2.17,2.14-5.57,2.83-8.03,.67-.99-.87-1.64-2.09-1.84-3.38-.12-.77,.01-1.54,0-2.31-.02-.73-.25-1.32-.67-1.91-.76-1.07-1.78-1.92-2.38-3.1-.62-1.22-.81-2.65-.55-4,.13-.68,.39-1.33,.74-1.92,.17-.29,.43-.6,.47-.94,.04-.33-.13-.63-.27-.93-.54-1.15-.76-2.35,.37-3.25,.51-.41,1.14-.63,1.73-.9,.67-.31,1.31-.68,1.91-1.1,1.17-.83,2.22-1.9,2.88-3.18,.33-.63,.55-1.3,.66-2,.06-.38,.16-.8-.21-1.01-.24-.14-.76-.1-1.03-.09-1.51,.03-2.94,.62-4.36,1.07-1.3,.42-3.01,1.04-4.32,.38-.65-.33-1.03-.95-1.47-1.5-.47-.59-1.04-1.11-1.67-1.53-2.78-1.89-6.37-1.89-9.53-1.17-.35,.08-.75,.15-1.06,.33-.34,.19-.42,.51-.61,.83-.32,.57-.79,.98-1.39,1.25-1.41,.63-2.96,.08-4.38,.53-.23,.07-.43,.05-.6-.03-.27,.16-.63,.2-.95-.02-1.11-.74-2.35-1.29-3.65-1.58-.99-.22-2.31-.56-3.2,.05-.69,.48-1.35,1.12-2.27,.96-1.07-.18-1.24-1.38-2.16-1.67-1.04-.33-2.32,.51-3.27,.82-.94,.31-1.92,.53-2.9,.65-.86,.11-1.99,0-2.73,.52-.58,.41-.87,1.15-1.56,1.43-.82,.34-1.64-.08-2.04-.82-.39-.72-.36-1.54-.41-2.33-.06-1.09-.44-1.72-1.55-1.95-.76-.16-1.58-.15-2.35-.03-1.27,.19-1.61,.94-1.98,2.06-.3,.89-.66,1.75-1.13,2.56-.93,1.6-2.24,3.42-4.19,3.77-.88,.16-1.83-.02-2.53-.6-.72-.6-1.02-1.53-1.68-2.18-1.69-1.67-4.29-1.72-6.51-1.76-.14,0-.26-.03-.37-.09-.18,.06-.38,.07-.6-.02-1.01-.41-2.16,.47-3.08,.8-.79,.28-1.69,.44-2.5,.15-.83-.3-1.35-.98-1.61-1.81-.26-.82-.15-2.13-1.21-2.27-.74-.1-1.69,.15-2.17-.62-.45-.73,.07-1.75,.28-2.48,.32-1.1,.63-2.2,.95-3.3,.2-.71,.39-1.44,.91-1.98,1.22-1.26,3.08-.77,4.48-.18,1.47,.62,3.07,1.05,4.66,.64,1.71-.44,2.34-1.9,3.63-2.92,1.38-1.08,3.39-1.59,5.04-2.09,.91-.28,1.84-.5,2.78-.63,.85-.12,1.68-.17,2.48-.5,1.95-.8,3.8-2.05,5.65-3.07,.15-.08,.31-.12,.45-.11,2.13-1.12,4.27-2.24,6.39-3.38,.9-.49,1.89-1,2.53-1.82,.6-.76,.77-1.76,1.78-2.12,.95-.34,2.13-.21,3.12-.26,1-.05,1.95-.12,2.9,.26,1.09,.43,2.1,.97,3.23,1.29,1.04,.29,2.11,.48,3.17,.66,4.44,.75,8.96,1.73,13.47,1.74,4.24,.01,8.35-1.51,12.59-1.25,2.1,.13,4.14,1.33,6.24,.87,1.8-.39,3.49-1.02,5.17-.1,.31-.01,.6,.15,.69,.55,.41,1.75-.63,3.09-2,4.06-.45,.32-.52,.43-.05,.76,.27,.18,.67,.47,1.02,.43,.57-.06,.94-1.13,1.41-1.46,1.25-.89,2.7-.01,3.42,1.1,.21,.32,.4,.87,.75,1.04,.32,.15,.86,.04,1.21,.02,.84-.04,1.7-.04,2.54-.13,1.58-.16,2.83-1.45,4.21-2.16,.72-.37,1.6-.57,2.28-.99,.7-.43,.32-1.38,.19-2.05-.62-3.11-.03-6.63,2.52-8.74,1.14-.94,2.56-1.38,3.86-2.05,1.29-.66,2.04-1.61,2.68-2.8,.02-.18,.1-.35,.26-.5,.03-.05,.05-.1,.08-.15,.16-.33,.45-.46,.74-.45,1.92-1.44,3.73-3.09,4.91-5.2,1.28-2.28,1.65-4.72,2.02-7.26,.35-2.39,1.48-4.09,3.67-5.14,2.1-1.01,4.52-1.53,6.81-1.9,1.77-.29,4.86-.71,5.06,1.87,.04,.47-.31,.83-.75,.9-.73,.12-2.08,.07-2.64,.62-.52,.52-.63,1.46-1.05,2.07-.95,1.35-2.62,1.45-4.12,1.59-.65,.06-1.39,.15-1.92,.56-.61,.47-.5,.97,.1,1.34,1.27,.79,1.5,1.99,1.14,3.4-.21,.82-.57,1.6,.13,2.28,.55,.53,1.21,.98,1.81,1.46,.17,.13,.75,.75,1.07,.92,.03-.03,.14-.09,.17-.16,.1-.19,.31-.36,.44-.54,.44-.6,.62-1.36,1.07-1.93,.46-.59,1.13-.59,1.82-.57,.79,.02,1.59-.04,2.38-.16,1.82-.27,3.59-.81,5.36-1.31,1.68-.47,3.35-.97,4.98-1.57,.76-.28,1.51-.69,2.34-.63,.48,.04,.92,.23,1.37,.37,2.68-.77,5.16-2.12,7.24-3.98,1.86-1.66,3.32-3.67,4.39-5.92,.52-1.08,1.04-2.19,1.95-3.01,1-.89,2.29-1.13,3.54-1.49,2.33-.68,4.82-1.53,6.58-3.29,2-1.99,2.35-4.89,3.72-7.26,0,0,0,0,0,0,0-.17,.04-.34,.15-.51,1.76-2.6,4.38-4.42,6.24-6.93,.92-1.24,1.5-2.57,1.73-4.09,.24-1.61,.37-3.16,1.05-4.66,.62-1.35,1.5-2.55,2.24-3.84,.76-1.32,1.19-2.67,1.48-4.17,.33-1.7,.64-3.41,.95-5.11,.14-.77,.15-1.12-.67-1.37-.65-.19-1.29-.25-1.89-.58-.51,.04-1.04-.31-.86-.93,.58-2.07,2.62-3.26,3.64-5.1,.54-.98,.96-2.02,1.33-3.08,.32-.91,1.03-2.24,.6-3.19-.07-.15-.09-.3-.07-.42-.14-.27-.16-.6,.05-.91,.54-.79,.21-1.93,.03-2.79-.14-.67-.22-1.33-.16-2.02,.14-1.47,1.05-2.58,2.56-2.73,1.29-.13,2.34-.01,3.48-.76,.96-.62,1.7-1.53,2.15-2.59,.48-1.15,.41-2.23,.11-3.4-.28-1.1-.23-2.28,.79-2.98,1.97-1.36,4.47,.15,4.99,2.24,.33,1.31,.12,2.66-.11,3.97-.21,1.16-.44,2.45,0,3.56,.51-.4,.84-1.32,1.13-1.76,.52-.78,1.28-1.46,2.29-1.32,.58,.08,1.05,.41,1.45,.83,.31,.32,.7,1.07,1.16,1.19,.58,.15,1.48-.82,1.9-1.16,.62-.52,1.25-1.09,1.68-1.78,.61-.96,.83-2.33,.03-3.27-.78-.93-2.2-.38-3.22-.28-1.08,.1-2.21-.12-2.72-1.19-.54-1.13,0-2.47,.51-3.51,.9-1.85,2.82-3.99,5.08-2.83,.99,.5,1.51,1.48,2.27,2.23,1,1,2.1,.18,3.32,.4,1.28,.23,1.8,1.42,1.68,2.61-.15,1.55-.77,3.12-1.17,4.62-.82,3.05-1.88,6.14-2.2,9.3-.15,1.49-.04,3.02,.52,4.43,.54,1.35,1.44,2.52,2.26,3.71,1.37,2,2.54,4.3,2.14,6.7,.05,.06,.09,.13,.12,.21,1.84,4.53,2.33,9.55,1.51,14.37m-6.88,11.21c2.76-3.58,4.66-7.55,5.34-12.04,.62-4.09,.2-8.29-1.21-12.17-.46-.11-.88-.6-.66-1.18,.89-2.36-.74-4.75-2.02-6.6-1.34-1.93-2.52-3.85-2.76-6.24-.24-2.4,.31-4.8,.92-7.1,.7-2.67,1.43-5.33,2.14-7.99,.13-.48,.33-1.01,.34-1.51,.01-.61-.27-.71-.83-.67-.86,.08-1.67,.32-2.52-.03-.74-.3-1.28-.91-1.78-1.51-.42-.51-.89-1.22-1.58-1.37-1.51-.33-2.59,2.09-2.95,3.21-.12,.38-.33,.99,.09,1.26,.29,.19,.81,.07,1.12,.03,.82-.1,1.63-.29,2.46-.19,1.66,.22,2.69,1.74,2.84,3.33,.18,1.92-1.01,3.53-2.37,4.75-1.21,1.09-2.96,2.74-4.6,1.47-.42-.33-1.01-1.48-1.57-1.56-.42-.06-.67,.46-.86,.76-.63,1.01-1.21,2.38-2.57,2.51-.98,.09-1.37-1.06-1.56-1.84-.21-.86-.18-1.75-.07-2.63,.18-1.58,1.11-4.08-.12-5.46-.4-.45-1.19-.64-1.76-.43-.8,.3-.38,1.17-.23,1.78,.8,3.21-1.13,6.62-4.13,7.88-.81,.34-1.65,.46-2.52,.46-1.01,0-1.62,.19-1.73,1.28-.1,.99,.28,1.95,.38,2.93,.09,.85-.01,1.62-.39,2.34,.03,.04,.05,.07,.07,.12,.47,1.05,.13,2.11-.22,3.14-.38,1.16-.77,2.31-1.28,3.42-.49,1.07-1.11,2.1-1.88,3-.56,.65-1.34,1.23-1.81,1.98,1.01,.39,2.2,.35,2.9,1.35,.75,1.07,.13,2.69-.09,3.84-.5,2.67-.8,5.44-2.13,7.85-.63,1.14-1.39,2.19-2.01,3.34-.66,1.24-.97,2.47-1.14,3.86-.17,1.35-.37,2.65-.95,3.89-.53,1.13-1.28,2.16-2.1,3.09-1.7,1.94-3.75,3.56-5.25,5.67,0,.13-.03,.28-.11,.43-.86,1.49-1.31,3.16-2.01,4.72-.6,1.34-1.44,2.5-2.55,3.46-1.92,1.66-4.38,2.55-6.79,3.24-1.35,.39-2.66,.62-3.5,1.85-.73,1.06-1.15,2.32-1.81,3.43-2.46,4.16-6.41,7.36-11,8.86-.15,.27-.45,.48-.84,.45-.52-.05-.96-.25-1.45-.4-.54-.17-.89-.05-1.41,.15-1,.39-2.02,.74-3.04,1.06-2.13,.67-4.28,1.3-6.45,1.8-.94,.22-1.9,.4-2.86,.49-.5,.04-.99,.06-1.49,.05-.45-.01-.63-.12-.82,.32-.5,1.13-1.83,3.57-3.4,2.79-.83-.41-1.57-1.22-2.29-1.8-.63-.5-1.36-.98-1.77-1.7-.43-.74-.38-1.58-.18-2.38,.14-.55,.6-1.55,.18-2.08-.24-.3-.75-.42-1.05-.69-.25-.24-.44-.55-.55-.88-.2-.61-.09-1.3,.21-1.86,.73-1.34,2.4-1.68,3.79-1.79,.75-.06,1.65-.06,2.3-.51,.61-.41,.74-1.2,1.05-1.82,.53-1.06,1.42-1.45,2.42-1.66-1.97-.14-6.05,1.12-6.8,1.36-1.13,.37-2.34,.8-3.21,1.66-1.02,1.01-1.14,2.46-1.31,3.81-.35,2.77-1.11,5.5-2.69,7.84-1.39,2.06-3.28,3.69-5.28,5.15-.82,1.53-1.78,2.77-3.39,3.61-1.6,.83-3.4,1.31-4.53,2.82-1.15,1.53-1.43,3.5-1.22,5.36,.17,1.47,.98,3.4-.51,4.48-.69,.5-1.61,.69-2.37,1.06-.84,.41-1.6,.91-2.37,1.43-1.58,1.07-3.15,1.1-5,1.19-.85,.04-1.84,.23-2.6-.26-.64-.41-.88-1.12-1.32-1.7-.32-.42-.69-.72-1.13-.31-.23,.22-.37,.57-.58,.81-.44,.52-1.02,.81-1.71,.79-1.23-.03-3.3-1.26-3.07-2.69,.23-1.43,2.7-1.87,2.66-3.36-.96-.58-2.23-.15-3.22,.11-1.09,.29-2.14,.47-3.26,.27-1.06-.19-2.06-.61-3.13-.79-1.14-.19-2.3-.18-3.45-.08-1.93,.17-3.82,.58-5.73,.87-2.11,.32-4.21,.39-6.34,.26-4.28-.26-8.57-1.09-12.78-1.85-1.11-.2-2.21-.46-3.28-.83-.94-.32-1.83-.9-2.77-1.16-.98-.27-2.25-.01-3.25,.04-.42,.02-1.07-.07-1.41,.2-.3,.23-.42,.73-.63,1.05-.99,1.56-2.72,2.36-4.3,3.19-2.03,1.07-4.06,2.15-6.09,3.22-.14,.07-.27,.1-.4,.1-1.21,.67-2.42,1.34-3.63,2.01-1.21,.67-2.36,1.16-3.74,1.33-1.33,.17-2.59,.45-3.86,.87-1.13,.38-2.37,.73-3.41,1.31-1.05,.59-1.62,1.72-2.55,2.47-.77,.62-1.71,.99-2.68,1.16-1.03,.19-2.14,.12-3.16-.11-1.14-.26-2.16-.91-3.3-1.14-.57-.12-1.23-.08-1.56,.46-.32,.53-.42,1.27-.59,1.85l-.59,2.04c-.11,.4-.39,.99-.48,1.5,.27,.02,.61-.04,.79-.03,.26,.02,.5,.05,.75,.13,.43,.15,.79,.41,1.06,.77,.63,.84,.51,1.89,.95,2.79,.57,1.14,2.17,.2,2.97-.16,1.05-.46,2.08-.69,3.17-.28,.06-.01,.13-.02,.2-.02,2.51,.05,5.15,.15,7.23,1.73,.4,.31,.77,.67,1.08,1.07,.37,.47,.6,1.18,1.09,1.54,.94,.7,2.12-.08,2.79-.78,.79-.83,1.4-1.84,1.88-2.88,.41-.88,.6-1.87,1.06-2.73,.93-1.73,2.97-1.98,4.75-1.86,1.67,.11,3.29,.85,3.69,2.6,.05,.23,.14,2.68,.32,2.69,.18,0,.61-.68,.74-.81,.28-.29,.59-.53,.96-.7,.86-.4,1.83-.4,2.76-.5,1.09-.12,2.15-.37,3.18-.74,1.76-.63,3.86-1.52,5.3,.25,.35,.43,.42,.82,.96,.46,.28-.19,.53-.42,.82-.6,.79-.5,1.61-.53,2.52-.46,2.13,.16,4.13,.9,5.91,2.03,.05-.03,.11-.06,.18-.08,.9-.29,1.77-.26,2.7-.26,.74,0,1.67-.02,2.14-.69,.47-.67,.66-1.26,1.45-1.63,.74-.35,1.6-.48,2.4-.62,3.4-.61,7.05-.29,9.94,1.73,.63,.44,1.2,.96,1.7,1.54,.51,.6,.83,1.37,1.71,1.37,1.49,0,3.02-.79,4.42-1.21,1.34-.39,2.84-.72,4.23-.4,1.51,.35,1.75,1.73,1.51,3.07-.49,2.79-2.51,5.09-4.86,6.55-.6,.37-1.23,.69-1.87,.98-.48,.21-1.29,.42-1.24,1.05,.05,.61,.57,1.17,.7,1.78,.13,.64-.01,1.24-.33,1.8-.73,1.31-1.23,2.54-.81,4.07,.37,1.34,1.41,2.25,2.25,3.29,.86,1.06,1.34,2.2,1.3,3.58-.04,1.5-.03,2.87,1.11,3.99,1.08,1.07,2.74,1.38,4.15,.83,1.08-.42,1.9-1.29,2.62-2.17,1.45-1.78,2.62-3.86,4.63-5.08,.06-.09,.15-.18,.27-.25,.71-.41,1.3-.96,1.69-1.69,.38-.71,.44-1.55,.85-2.26,.68-1.19,2.01-2.22,3.27-2.74,1.38-.56,2.9-.55,4.36-.45,1.25,.09,2.67,.14,3.72,.88,.75-.53,1.28-1.37,1.45-2.27,.09-.47,.11-1.05-.09-1.5-.24-.54-.86-.8-1.3-1.14-1.52-1.17-2.61-3.16-1.9-5.07,.63-1.71,2.39-2.66,3.27-4.22,.84-1.48,1.56-3.32,3.29-3.96,.86-.32,1.9-.18,2.49,.57,.58,.73,.38,1.57,.05,2.36-.09,.23-.19,.46-.29,.69,.82-.43,1.81-.45,2.57,.31,.53,.52,.68,1.24,.76,1.95,.09,.81-.04,1.45,.96,1.44,.83-.01,1.74,.04,2.25,.81,.45,.69,.27,1.53-.23,2.14-.28,.34-.62,.62-.99,.85,.15-.02,.29-.06,.43-.1,1.53-.45,1.6-2.33,3.01-2.98,1.95-.89,4.5,.64,4.66,2.72,1.53,.53,3.05,1.05,4.58,1.58,1.36,.47,2.91,1.3,4.25,.38,1.02-.7,1.66-1.87,2.31-2.89,.71-1.1,1.47-2.19,2.38-3.14,1.47-1.54,3.5-2.89,5.72-2.77,1.88,.1,3.79,1.21,4.71,2.88,.99,1.8,.43,3.64-.96,5.03-.92,.92-3.86,2.99-1.69,4.22,2.2,1.25,3.85-1.31,4.49-3.07,.49-1.35,.77-2.79,.94-4.21,.1-.82,.13-1.63,.14-2.45,0-.54,.01-1.09,.22-1.6,.47-1.15,1.77-1.52,2.89-1.75,1.11-.23,2.25-.25,3.37-.09,1.95,.29,3.73,1.17,5.16,2.49,.5-.98,.2-2.52,.27-3.5,.08-1.19,.48-2.33,1.35-3.18,1.52-1.47,3.81-1.78,5.84-1.64,1.85,.13,5.51,.94,4.41,3.61-.5,1.2-1.76,1.8-2.69,2.61-.94,.82-1.73,1.82-2.33,2.91-1.04,1.9-1.53,4.01-1.41,6.15,3.52-1.96,7.06-4.12,9.46-7.42,1.34-1.84,2.12-4.13,3.94-5.6,1.27-1.02,3.07-1.56,4.62-1.02,.32-1.35-.85-3.13-1.27-4.28-.53-1.44-.82-2.98-.85-4.51-.15-5.98,2.83-11.53,5.85-16.49,3.38-5.55,7.3-11.68,6.47-18.48-.05-.4,.15-.66,.43-.79,.03-2.8,.01-5.6,.15-8.4,.12-2.44,.58-4.97,2.29-6.83,1.35-1.46,3.04-2.02,4.99-1.93,.93,.04,2.04,.25,2.92-.15,.99-.45,1.24-1.61,1.48-2.56,.52-2.11,1.35-4,2.55-5.81,1.22-1.86,2.66-3.56,4.02-5.32"/><path class="cls-1" d="M258.96,144.05c-.68,4.49-2.57,8.46-5.34,12.04-1.36,1.76-2.8,3.46-4.02,5.32-1.19,1.81-2.03,3.71-2.55,5.81-.23,.95-.49,2.11-1.48,2.56-.88,.4-1.99,.19-2.92,.15-1.95-.09-3.64,.46-4.99,1.93-1.71,1.86-2.18,4.39-2.29,6.83-.13,2.79-.12,5.6-.15,8.4-.28,.13-.47,.39-.43,.79,.83,6.8-3.09,12.92-6.47,18.48-3.02,4.96-6.01,10.51-5.85,16.49,.04,1.53,.32,3.07,.85,4.51,.43,1.15,1.59,2.92,1.27,4.28-1.55-.54-3.35,0-4.61,1.02-1.82,1.46-2.6,3.75-3.94,5.59-2.4,3.3-5.94,5.46-9.45,7.42-.12-2.14,.36-4.25,1.41-6.15,.6-1.09,1.4-2.09,2.33-2.91,.93-.81,2.19-1.41,2.69-2.61,1.1-2.67-2.56-3.49-4.41-3.61-2.03-.14-4.31,.17-5.83,1.64-.88,.84-1.28,1.98-1.36,3.18-.06,.98,.23,2.52-.27,3.5-1.43-1.32-3.21-2.2-5.16-2.49-1.12-.17-2.26-.15-3.37,.09-1.11,.23-2.42,.6-2.89,1.75-.21,.51-.21,1.06-.22,1.6,0,.82-.04,1.63-.14,2.45-.17,1.42-.46,2.87-.94,4.21-.64,1.76-2.29,4.32-4.49,3.07-2.17-1.24,.77-3.3,1.69-4.22,1.39-1.39,1.95-3.24,.96-5.03-.92-1.67-2.82-2.78-4.71-2.88-2.22-.11-4.25,1.23-5.72,2.77-.91,.95-1.67,2.04-2.38,3.14-.65,1.02-1.29,2.19-2.31,2.89-1.34,.92-2.89,.09-4.25-.38-1.53-.53-3.05-1.05-4.58-1.58-.15-2.08-2.71-3.61-4.66-2.72-1.41,.64-1.48,2.52-3.01,2.98-.14,.04-.29,.07-.43,.1,.38-.23,.71-.51,.99-.85,.5-.61,.68-1.45,.23-2.14-.51-.77-1.42-.82-2.25-.81-1,.01-.87-.63-.96-1.44-.07-.71-.23-1.43-.75-1.95-.77-.76-1.76-.74-2.58-.31,.1-.23,.2-.46,.29-.69,.32-.79,.52-1.63-.05-2.36-.59-.75-1.63-.89-2.49-.57-1.73,.64-2.46,2.48-3.29,3.96-.88,1.56-2.64,2.51-3.27,4.22-.71,1.91,.38,3.91,1.9,5.07,.45,.34,1.06,.6,1.3,1.15,.2,.45,.18,1.03,.09,1.5-.17,.9-.7,1.74-1.45,2.27-1.06-.73-2.47-.79-3.72-.88-1.46-.1-2.98-.11-4.36,.45-1.26,.52-2.59,1.54-3.27,2.74-.4,.71-.46,1.54-.85,2.26-.39,.73-.98,1.27-1.69,1.69-.12,.07-.21,.16-.27,.25-2.01,1.21-3.18,3.3-4.63,5.08-.72,.88-1.54,1.75-2.62,2.17-1.41,.55-3.06,.24-4.15-.83-1.14-1.13-1.15-2.5-1.11-3.99,.04-1.38-.43-2.52-1.3-3.58-.85-1.04-1.88-1.96-2.25-3.29-.42-1.53,.08-2.76,.81-4.07,.31-.57,.46-1.16,.33-1.8-.13-.61-.65-1.17-.7-1.78-.05-.63,.77-.84,1.24-1.05,.65-.28,1.28-.61,1.87-.98,2.35-1.46,4.37-3.76,4.86-6.55,.23-1.34,0-2.72-1.52-3.07-1.39-.32-2.89,0-4.23,.4-1.4,.41-2.93,1.2-4.42,1.21-.89,0-1.2-.77-1.71-1.37-.5-.59-1.07-1.1-1.7-1.54-2.89-2.02-6.54-2.34-9.94-1.73-.79,.14-1.66,.27-2.4,.62-.79,.38-.98,.97-1.45,1.63-.46,.67-1.4,.68-2.14,.69-.93,0-1.8-.03-2.7,.26-.07,.02-.12,.05-.18,.08-1.79-1.14-3.78-1.88-5.91-2.04-.91-.07-1.73-.04-2.52,.46-.29,.18-.54,.41-.82,.6-.54,.36-.62-.03-.96-.46-1.43-1.77-3.54-.88-5.3-.25-1.03,.37-2.1,.62-3.18,.74-.93,.1-1.9,.1-2.76,.5-.37,.17-.68,.41-.96,.7-.13,.13-.56,.82-.74,.82-.17,0-.27-2.46-.32-2.69-.4-1.76-2.02-2.5-3.69-2.6-1.78-.11-3.82,.14-4.75,1.86-.46,.85-.65,1.85-1.06,2.73-.48,1.03-1.1,2.04-1.88,2.87-.67,.7-1.85,1.48-2.79,.78-.49-.36-.73-1.07-1.09-1.54-.31-.4-.68-.77-1.08-1.07-2.09-1.57-4.72-1.68-7.23-1.73-.07,0-.14,0-.2,.02-1.08-.41-2.12-.18-3.17,.28-.81,.35-2.4,1.3-2.97,.16-.45-.9-.32-1.95-.96-2.79-.28-.36-.63-.62-1.06-.77-.25-.09-.49-.12-.75-.13-.18,0-.52,.05-.79,.03,.09-.5,.37-1.1,.48-1.5l.59-2.04c.17-.59,.27-1.33,.59-1.85,.33-.54,.99-.57,1.56-.46,1.14,.23,2.16,.88,3.3,1.14,1.02,.23,2.12,.3,3.16,.11,.97-.17,1.9-.54,2.68-1.16,.93-.75,1.49-1.88,2.55-2.47,1.05-.58,2.28-.93,3.41-1.31,1.27-.42,2.54-.7,3.86-.87,1.39-.18,2.53-.66,3.75-1.33,1.21-.67,2.42-1.34,3.63-2.01,.13,0,.27-.03,.4-.1,2.03-1.07,4.06-2.15,6.09-3.22,1.58-.83,3.31-1.63,4.3-3.19,.2-.32,.33-.81,.63-1.05,.34-.27,.99-.18,1.41-.2,1-.05,2.27-.31,3.25-.04,.95,.26,1.84,.84,2.78,1.16,1.07,.37,2.16,.63,3.28,.83,4.21,.77,8.51,1.6,12.78,1.85,2.13,.13,4.23,.06,6.34-.26,1.91-.29,3.8-.71,5.73-.88,1.15-.1,2.31-.11,3.45,.08,1.06,.18,2.07,.6,3.13,.79,1.12,.2,2.17,.01,3.26-.27,.99-.26,2.26-.69,3.22-.11,.04,1.49-2.43,1.93-2.66,3.36-.23,1.44,1.83,2.66,3.07,2.69,.69,.02,1.27-.27,1.71-.79,.21-.24,.34-.59,.58-.81,.44-.41,.81-.11,1.12,.31,.44,.58,.68,1.29,1.32,1.7,.76,.49,1.76,.3,2.61,.26,1.85-.09,3.42-.12,5-1.19,.77-.52,1.53-1.03,2.37-1.43,.76-.37,1.68-.56,2.37-1.06,1.49-1.08,.67-3.01,.51-4.48-.21-1.86,.07-3.83,1.22-5.36,1.14-1.51,2.93-1.99,4.53-2.82,1.61-.84,2.57-2.08,3.39-3.61,1.99-1.45,3.89-3.09,5.28-5.15,1.58-2.34,2.34-5.06,2.69-7.84,.17-1.35,.3-2.8,1.31-3.81,.86-.86,2.07-1.29,3.2-1.66,.75-.24,4.83-1.5,6.8-1.36-1,.21-1.88,.6-2.42,1.66-.31,.62-.44,1.41-1.05,1.82-.64,.44-1.55,.44-2.3,.51-1.39,.11-3.06,.45-3.79,1.79-.3,.56-.41,1.25-.21,1.86,.11,.33,.29,.64,.55,.88,.29,.27,.81,.39,1.05,.69,.42,.53-.05,1.53-.18,2.08-.2,.8-.25,1.64,.18,2.38,.41,.71,1.14,1.19,1.77,1.7,.72,.58,1.47,1.38,2.29,1.8,1.57,.79,2.9-1.66,3.4-2.79,.19-.44,.37-.33,.82-.32,.5,0,.99-.01,1.49-.05,.97-.09,1.92-.27,2.87-.49,2.17-.5,4.33-1.13,6.45-1.8,1.03-.32,2.04-.67,3.04-1.06,.52-.2,.86-.32,1.41-.15,.49,.15,.93,.35,1.45,.4,.39,.04,.68-.17,.84-.45,4.59-1.5,8.54-4.7,11-8.86,.65-1.11,1.08-2.37,1.81-3.43,.85-1.23,2.15-1.47,3.5-1.85,2.4-.69,4.87-1.59,6.79-3.24,1.11-.96,1.95-2.12,2.55-3.46,.7-1.56,1.15-3.23,2.01-4.72,.09-.15,.12-.3,.11-.43,1.5-2.11,3.55-3.72,5.25-5.67,.82-.93,1.57-1.96,2.1-3.09,.58-1.24,.78-2.54,.95-3.89,.17-1.39,.48-2.62,1.14-3.86,.62-1.15,1.38-2.2,2.01-3.34,1.33-2.41,1.64-5.18,2.13-7.85,.21-1.15,.84-2.77,.09-3.84-.7-1-1.89-.96-2.9-1.35,.47-.75,1.25-1.34,1.81-1.98,.77-.89,1.38-1.93,1.88-3,.51-1.11,.9-2.26,1.28-3.42,.34-1.03,.69-2.09,.22-3.14-.02-.04-.04-.08-.07-.12,.38-.72,.48-1.49,.39-2.34-.1-.98-.48-1.94-.38-2.93,.1-1.09,.72-1.29,1.73-1.28,.87,0,1.71-.12,2.52-.45,3-1.26,4.94-4.67,4.13-7.88-.15-.61-.56-1.49,.23-1.78,.57-.21,1.36-.01,1.76,.43,1.24,1.38,.31,3.88,.12,5.46-.1,.88-.13,1.77,.07,2.63,.19,.78,.58,1.93,1.56,1.84,1.36-.12,1.94-1.49,2.57-2.51,.19-.3,.45-.81,.86-.76,.56,.08,1.14,1.23,1.57,1.56,1.64,1.27,3.39-.38,4.6-1.47,1.36-1.22,2.55-2.82,2.37-4.75-.14-1.58-1.18-3.11-2.84-3.32-.83-.11-1.64,.09-2.45,.19-.31,.04-.83,.16-1.12-.03-.42-.27-.22-.87-.09-1.26,.36-1.11,1.44-3.53,2.95-3.21,.69,.15,1.15,.86,1.58,1.37,.5,.6,1.04,1.21,1.78,1.51,.85,.34,1.65,.11,2.52,.03,.56-.05,.84,.06,.83,.67-.01,.5-.21,1.03-.34,1.51-.71,2.66-1.44,5.33-2.14,7.99-.61,2.3-1.16,4.71-.91,7.1,.24,2.39,1.43,4.31,2.76,6.24,1.29,1.85,2.91,4.24,2.02,6.6-.22,.58,.2,1.07,.66,1.18,1.42,3.88,1.83,8.08,1.21,12.17"/><path class="cls-1" d="M102.25,253.73c.09,.44-.34,.86-.75,.9-2.75,.22-5.42,.55-7.29,2.8-1.95,2.36-3.43,5.24-4.76,7.98-.09,.18-.22,.31-.36,.38-.45,.32-1.27,.15-1.37-.57-.24-1.56-.78-3.07-1.63-4.4-.77-1.22-1.93-2.75-3.34-3.24-1.27-.43-2.9-.34-4.24-.34-1.32,0-2.66,.09-3.93,.49-.64,.21-1.27,.47-1.83,.86-.65,.45-.69,1.11-.91,1.82-.4,1.28-1.13,2.42-2.12,3.31-.97,.87-2.22,1.26-3.21,2.08-1.07,.88-1.19,2.41-2.01,3.49-1.75,2.31-4.93,1.75-6.94,.16-.23-.18-.32-.41-.3-.63-.69-.42-.35-1.7,.59-1.52,.44,.09-.09-.64-.2-.72-.35-.27-.76-.31-1.19-.27-.27,.03-.61-.11-.75-.36-.8-1.4-1.64-3.04-1.32-4.7,.16-.81,.63-1.38,1.09-2.03,.22-.31,.56-.72,.31-1.08-.18-.26-.57-.42-.8-.65-.95-.98-.81-2.35-.89-3.6-.09-1.3-1.24-2.63,.25-3.57,2.17-1.37,5.01-1.44,6.91-3.3,1.98-1.93,1.89-5.42,4.78-6.54,1.37-.53,2.84,.01,4.04,.73,.54,.32,1.04,.72,1.35,1.27,.14,.26,.22,.53,.28,.82,.08,.34,.04,.43,.35,.55,.46,.19,1.1,.19,1.59,.27,.37,.06,.74,.13,1.11,.19,.85,.14,1.7,.29,2.55,.43,.82,.14,1.89,.5,2.7,.2,.7-.26,1.29-.91,1.8-1.42,1.99-2.03,3.71-4.59,6.59-5.42,2.87-.83,4.99,.77,7.02,2.59,1.05,.93,2.06,1.66,3.39,2.12,1.19,.41,2.4,.86,3,2.05,.65,1.27,.23,2.66,.03,3.98-.25,1.64,.09,3.3,.4,4.9m-1.81-.67c-.26-1.41-.44-2.83-.26-4.26,.16-1.29,.9-3.05-.52-3.88-1.18-.7-2.55-.89-3.7-1.68-1.14-.79-2.09-1.81-3.19-2.65-.99-.76-2.13-1.25-3.4-1.03-1.31,.23-2.49,1.05-3.44,1.96-1.01,.97-1.87,2.08-2.86,3.08-.89,.91-1.93,1.93-3.25,2.08-1.47,.17-3.12-.36-4.56-.61-.8-.13-1.59-.27-2.39-.41-.63-.11-1.39-.13-1.94-.47-.46-.29-.66-.74-.78-1.25-.16-.68-.4-1.02-1.02-1.38-1.28-.73-2.51-.96-3.56,.23-.89,1.01-1.22,2.37-1.83,3.55-.56,1.09-1.35,2-2.38,2.68-.98,.65-2.08,1.1-3.18,1.5-.57,.21-1.14,.41-1.7,.63-.26,.1-.52,.21-.78,.32-.37,.16-.5,.13-.38,.51,.16,.52,.35,.98,.4,1.53,.05,.53,.03,1.07,.07,1.61,.04,.51,.11,.96,.51,1.31,.44,.39,.91,.63,1.13,1.22,.51,1.4-.65,2.27-1.23,3.36-.61,1.15,.05,2.54,.65,3.63,1.21,.07,2.42,.75,2.75,1.99,.19,.71-.06,1.42-.55,1.86,1.26,.8,3.06,1.15,4.1-.19,.5-.63,.7-1.46,1.05-2.18,.33-.67,.78-1.23,1.36-1.69,1.07-.85,2.41-1.24,3.37-2.25,.53-.56,.94-1.2,1.22-1.91,.25-.66,.3-1.38,.64-2,.59-1.08,1.99-1.7,3.11-2.07,1.27-.42,2.61-.58,3.94-.62,1.42-.03,2.89,0,4.3,.17,1.53,.19,2.71,1.02,3.75,2.12,1.37,1.45,2.37,3.16,2.97,5.03,.54-1.03,1.11-2.05,1.72-3.05,.82-1.36,1.67-2.78,2.75-3.95,1.9-2.04,4.48-2.6,7.12-2.86"/><path class="cls-1" d="M100.18,248.8c-.18,1.44,0,2.85,.26,4.26-2.64,.26-5.21,.82-7.12,2.86-1.09,1.17-1.93,2.59-2.75,3.95-.61,1-1.18,2.02-1.72,3.05-.6-1.87-1.6-3.58-2.97-5.03-1.04-1.1-2.22-1.93-3.75-2.12-1.41-.17-2.88-.21-4.3-.17-1.33,.03-2.68,.19-3.94,.62-1.12,.37-2.51,.99-3.11,2.07-.34,.62-.39,1.34-.64,1.99-.28,.71-.69,1.36-1.22,1.91-.95,1.01-2.3,1.4-3.37,2.25-.59,.46-1.03,1.02-1.36,1.69-.35,.71-.55,1.54-1.05,2.18-1.04,1.33-2.84,.99-4.1,.19,.49-.44,.73-1.15,.55-1.86-.33-1.24-1.53-1.92-2.75-1.99-.6-1.08-1.26-2.47-.65-3.62,.58-1.09,1.74-1.97,1.23-3.36-.22-.59-.69-.83-1.13-1.22-.4-.35-.47-.8-.51-1.31-.04-.54-.02-1.07-.07-1.61-.05-.56-.24-1.01-.4-1.53-.12-.39,.01-.35,.38-.52,.26-.11,.52-.22,.78-.32,.56-.22,1.13-.42,1.7-.63,1.1-.41,2.2-.85,3.18-1.5,1.02-.68,1.81-1.59,2.38-2.68,.61-1.18,.94-2.54,1.83-3.55,1.05-1.19,2.28-.96,3.56-.23,.62,.35,.86,.7,1.02,1.38,.12,.51,.31,.96,.78,1.25,.55,.35,1.31,.37,1.94,.47,.8,.14,1.59,.27,2.39,.41,1.44,.25,3.09,.78,4.56,.61,1.33-.15,2.36-1.17,3.25-2.08,.98-1,1.84-2.11,2.86-3.08,.94-.9,2.13-1.73,3.44-1.96,1.27-.22,2.41,.26,3.4,1.03,1.1,.84,2.04,1.87,3.19,2.65,1.16,.79,2.52,.98,3.7,1.68,1.42,.84,.67,2.59,.52,3.88"/><path class="cls-1" d="M44.76,259.94c.52,2.34-1.78,4.59-3.05,6.3-1.6,2.15-3.24,4.28-5.03,6.28-1.75,1.96-3.78,3.75-4.93,6.16-.07,.14-.16,.25-.26,.32-.71,1.58-.75,3.33-1.15,5-.39,1.64-1.23,2.97-2.1,4.39-1.4,2.28-1.97,5.2-3.96,7.09-.95,.91-1.92,.31-2.21-.85-.19-.74-.28-1.26-1.02-1.64-.7-.36-1.54-.34-2.3-.33-.19,0-1.01-.07-1.11,.14,0,.03,.47,.24,.52,.27,.49,.3,.79,.79,.92,1.34,.28,1.26-.52,2.4-1.45,3.16-2.25,1.85-5.32,1.72-8.03,1.26-.61-.11-.89-.89-.48-1.36,1.16-1.3,2.38-2.67,2.64-4.46,.22-1.5,0-3.11,.89-4.44,.42-.63,1.19-.97,1.58-1.6,.36-.58,.15-1.32-.21-1.84-.43-.64-1.13-1.15-1.78-.54-.6,.56-1.15,1.24-1.66,1.89-.93,1.17-1.72,2.61-1.61,4.16,.09,1.32,1.17,2.39,1.02,3.75-.11,1.01-.91,2.02-1.99,2.02-1.26-.01-1.59-1.16-2-2.11-.46-1.09-1.78-1.04-2.79-1.26-1.12-.23-2.19-.68-2.74-1.75-.47-.91-.83-2.62,.12-3.34,.92-.69,2.09,.05,3.02-.73,.82-.7,1.88-2.24,1.86-3.33-.02-.77-.43-1.51-.67-2.22-.21-.62-.35-1.28-.42-1.93-.15-1.44,.05-2.91,.36-4.31,.27-1.21,.47-2.96,1.34-3.9,.88-.95,2.47-1.07,3.61-1.54,1.39-.58,2.68-1.38,3.93-2.22,.62-.42,1.23-.84,1.83-1.28,.58-.42,1.28-.89,1.58-1.57,.56-1.28-1.03-2.1-1.95-2.57-.79-.4-.42-1.5,.26-1.58,.48-.45,.96-.94,1.34-1.47,.28-.4,.26-.44,.08-.89-.14-.36-.29-.71-.44-1.06-.59-1.45-.94-2.83-1-4.39-.03-.83-.19-1.55-.52-2.31-.22-.51-.55-1.6-1.21-1.59-.7,.02-1.62,.6-1.81,1.28-.21,.74-.04,1.55-.22,2.3-.3,1.27-1.11,2.54-2.28,3.17-1.08,.58-2.24,.27-2.77-.87-.66-1.42-1.08-3.04-1.57-4.54-.21-.65-.41-1.33-.42-2.01,0-.37,.18-1.08,.07-1.56-.11,0-.23-.03-.35-.1-1.37-.72-2.85-1.63-3.26-3.22-.33-1.26,.08-2.73,1.31-3.33,1.24-.6,2.42,.06,3.68-.07,.76-.08,.8-.87,1.19-1.41,.41-.57,1.04-.86,1.74-.85,.68,.01,1.34,.3,1.93,.63,.41,.23,1.04,.71,1.55,.62,.64-.11,.48-1.38,.7-1.9,.22-.5,.59-.97,1.13-1.13,1.25-.39,1.88,.73,2.22,1.71,.29,.8,.72,.99,1.56,1.05,.33,.02,.67,.09,.86-.19,.14-.21,.17-.68,.24-.92,.75-2.61,2.59-5.02,5.52-5.1,2.87-.08,5.22,1.77,6.37,4.31,.59,1.32,.69,2.66,.86,4.07,.19,1.61,1.43,1.88,2.78,2.31,.71,.22,1.33,.5,1.97,.88,.29,.17,.63,.42,.97,.38,.3-.04,.55-.29,.79-.47,1.01-.73,2.22-.79,3.26-.06,1,.7,1.48,1.9,1.21,3.1-.3,1.35-1.31,2.29-2.53,2.83-.57,.25-1.41,.42-1.36,1.19,.04,.65,.59,1.27,1.06,1.66,1.31,1.09,3.14,1.23,4.76,1.4,.55,.06,.8,.72,.6,1.18-.19,.41-.49,.71-.88,.94-.32,.19-.97,.33-1.13,.69-.2,.46,.39,1.09,.63,1.44,.33,.48,.64,.96,.77,1.53m-2.32,2.52c.36-.53,.79-1.23,.75-1.9-.03-.56-.4-.97-.7-1.41-.61-.89-1.09-1.98-.55-3.02,.14-.26,.33-.47,.55-.64-2.48-.52-5.16-1.71-5.2-4.5-.02-1.47,1.19-2.07,2.36-2.58,1.09-.48,2.46-2.15,1-3.09-1.05-.68-1.94,.83-3.04,.88-.68,.03-1.27-.3-1.84-.64-.57-.34-1.14-.58-1.77-.77-1.11-.34-2.26-.66-3.02-1.6-.87-1.07-.73-2.45-.93-3.72-.4-2.58-2.21-5.15-5.03-5.25-1.39-.05-2.59,.64-3.37,1.77-.39,.56-.67,1.22-.87,1.86-.17,.55-.22,1.15-.5,1.66-.63,1.15-2.2,1.07-3.31,.79-1.27-.32-1.75-1.14-2.17-2.29-.01-.03-.09-.34-.15-.38-.06-.03,.04,0,0,.14-.1,.33-.12,.65-.18,1-.1,.59-.33,1.18-.82,1.54-.94,.7-2.2,.34-3.14-.17-.44-.24-1.1-.78-1.65-.69-.54,.09-.69,.99-1,1.39-.67,.85-1.7,.94-2.71,.83-.88-.1-2.41-.58-2.6,.71-.17,1.16,.85,1.92,1.79,2.47,.19-.09,.43-.11,.68,.01,1.41,.67,1.16,2.05,1.17,3.34,0,1.4,.78,2.91,1.22,4.22,.13,.39,.27,.79,.4,1.18,.05,.15,.14,.65,.29,.74,.43,.28,1.12-.62,1.33-.92,.81-1.16,.41-2.44,.81-3.7,.65-2.07,4.04-3.36,5.34-1.22,.62,1.02,1.16,2.2,1.33,3.38,.1,.69,.04,1.39,.12,2.07,.08,.64,.26,1.25,.48,1.86,.36,1.01,1.28,2.31,1.05,3.41-.17,.82-.91,1.62-1.61,2.27,.78,.52,1.46,1.17,1.74,2.09,.49,1.64-.66,3-1.87,3.93-1.34,1.05-2.8,2.01-4.27,2.86-1.47,.84-2.96,1.35-4.55,1.9-.9,.31-.99,.97-1.22,1.81-.19,.72-.38,1.44-.52,2.17-.29,1.5-.43,3.09,.02,4.58,.42,1.41,1.15,2.69,.67,4.18-.39,1.2-1.22,2.49-2.15,3.35-.44,.4-.94,.72-1.52,.86-.54,.14-1.05,0-1.58,.05,0,.05,0,.11,0,.17,.05,.14,.03,.33,.06,.48,.06,.32,.17,.65,.39,.89,.37,.39,.97,.51,1.47,.61,1.13,.23,2.39,.32,3.25,1.18,.43,.43,.63,.97,.83,1.52,.14,.38,.39,.96,.61,.23,.18-.61-.33-1.33-.56-1.86-.26-.62-.43-1.29-.45-1.97-.03-1.51,.53-2.94,1.35-4.19,.76-1.15,1.77-2.53,2.91-3.33,1.14-.79,2.52-.23,3.4,.69,.84,.89,1.33,2.2,1,3.42-.39,1.41-1.97,1.85-2.29,3.28-.32,1.45-.12,2.93-.66,4.35-.38,.99-.99,1.87-1.66,2.7,1.61,.17,3.29,.11,4.7-.76,.63-.38,2.1-1.6,1.07-2.26-.69-.44-1.3-.71-1.21-1.67,.18-1.99,2.87-1.84,4.29-1.67,.93,.11,1.87,.45,2.54,1.13,.3,.3,.54,.66,.69,1.06,.03,.07,.08,.39,.13,.67,.29-.37,.54-.87,.68-1.12,.35-.62,.63-1.28,.91-1.93,.59-1.38,1.25-2.66,2.05-3.94,.88-1.42,1.45-2.77,1.74-4.42,.27-1.57,.47-3.13,1.21-4.56,.07-.14,.16-.24,.26-.31,1.14-2.21,2.93-3.92,4.6-5.74,1.81-1.98,3.46-4.09,5.07-6.24,.79-1.05,1.61-2.1,2.34-3.19"/><path class="cls-1" d="M43.18,260.55c.04,.67-.39,1.37-.75,1.9-.73,1.1-1.56,2.14-2.34,3.19-1.61,2.14-3.27,4.26-5.07,6.24-1.66,1.82-3.45,3.54-4.6,5.74-.1,.07-.19,.17-.26,.31-.74,1.43-.94,3-1.21,4.56-.28,1.65-.85,3.01-1.74,4.42-.8,1.27-1.46,2.56-2.05,3.93-.28,.65-.57,1.31-.91,1.93-.14,.25-.39,.75-.68,1.12-.05-.28-.11-.6-.13-.67-.15-.4-.39-.75-.69-1.06-.67-.68-1.61-1.02-2.54-1.13-1.42-.17-4.1-.32-4.29,1.67-.09,.96,.52,1.23,1.21,1.67,1.03,.66-.45,1.87-1.07,2.26-1.41,.86-3.08,.93-4.7,.75,.67-.82,1.28-1.7,1.66-2.7,.54-1.42,.34-2.89,.66-4.35,.32-1.43,1.9-1.87,2.29-3.28,.34-1.22-.15-2.53-1-3.42-.87-.92-2.26-1.48-3.4-.69-1.15,.79-2.16,2.18-2.91,3.33-.82,1.25-1.37,2.68-1.35,4.19,.01,.68,.18,1.35,.45,1.97,.23,.54,.73,1.26,.56,1.86-.21,.73-.47,.15-.61-.23-.2-.56-.4-1.1-.83-1.52-.86-.85-2.12-.95-3.25-1.18-.51-.1-1.1-.21-1.47-.61-.23-.24-.33-.57-.39-.89-.03-.15-.01-.34-.06-.48,0-.06,0-.11,0-.17,.53-.05,1.04,.09,1.58-.05,.58-.15,1.08-.46,1.53-.87,.93-.85,1.76-2.15,2.15-3.35,.49-1.5-.24-2.78-.67-4.18-.45-1.49-.31-3.08-.02-4.58,.14-.73,.33-1.45,.52-2.17,.23-.85,.32-1.5,1.22-1.81,1.59-.55,3.08-1.06,4.55-1.9,1.48-.85,2.93-1.82,4.27-2.86,1.21-.94,2.36-2.29,1.87-3.93-.27-.91-.96-1.57-1.73-2.09,.69-.65,1.43-1.45,1.61-2.27,.23-1.1-.69-2.4-1.05-3.41-.22-.6-.4-1.22-.48-1.86-.08-.69-.02-1.39-.12-2.08-.18-1.18-.72-2.37-1.34-3.38-1.3-2.14-4.69-.85-5.34,1.22-.4,1.26,0,2.54-.81,3.7-.21,.3-.9,1.21-1.33,.92-.14-.09-.23-.59-.29-.74-.13-.39-.27-.79-.4-1.18-.45-1.31-1.22-2.81-1.22-4.22,0-1.29,.24-2.67-1.17-3.34-.25-.12-.49-.11-.68-.01-.95-.54-1.96-1.31-1.79-2.47,.19-1.29,1.72-.8,2.6-.71,1.01,.11,2.03,.02,2.71-.83,.31-.4,.46-1.3,1-1.39,.54-.09,1.21,.45,1.65,.69,.94,.51,2.2,.87,3.14,.17,.49-.37,.73-.95,.82-1.54,.06-.34,.08-.66,.18-.99,.04-.14-.05-.18,0-.14,.06,.03,.14,.34,.15,.38,.42,1.15,.89,1.98,2.17,2.3,1.11,.27,2.68,.36,3.31-.79,.28-.51,.33-1.11,.5-1.66,.2-.65,.48-1.3,.87-1.86,.78-1.13,1.98-1.82,3.37-1.77,2.81,.1,4.63,2.67,5.03,5.25,.2,1.28,.06,2.66,.93,3.72,.76,.94,1.92,1.26,3.02,1.6,.63,.19,1.2,.44,1.77,.77,.56,.33,1.16,.66,1.84,.63,1.09-.05,1.98-1.56,3.04-.88,1.46,.94,.09,2.61-1,3.09-1.17,.51-2.38,1.11-2.36,2.59,.04,2.8,2.72,3.98,5.2,4.5-.22,.17-.42,.38-.55,.64-.54,1.04-.07,2.13,.55,3.02,.3,.44,.67,.85,.7,1.41"/><text class="cls-2" transform="translate(29.65 232.82) rotate(-10)"><tspan x="0" y="0">日</tspan></text><text class="cls-2" transform="translate(130.57 215.02) rotate(-10)"><tspan x="0" y="0">本</tspan></text><text class="cls-2" transform="translate(238.53 195.99) rotate(-10)"><tspan x="0" y="0">産</tspan></text><text class="cls-3" transform="translate(21.24 325.5) rotate(-10)"><tspan x="0" y="0">さ</tspan></text><text class="cls-3" transform="translate(92.86 312.87) rotate(-10)"><tspan x="0" y="0">つ</tspan></text><text class="cls-3" transform="translate(162.7 300.55) rotate(-10)"><tspan x="0" y="0">ま</tspan></text><text class="cls-3" transform="translate(234.32 287.92) rotate(-10)"><tspan x="0" y="0">い</tspan></text><text class="cls-3" transform="translate(305.95 275.3) rotate(-10)"><tspan x="0" y="0">も</tspan></text><text class="cls-4" transform="translate(27.93 120.16) rotate(-10)"><tspan x="0" y="0">美</tspan></text><text class="cls-4" transform="translate(104.6 106.64) rotate(-10)"><tspan x="0" y="0">味</tspan></text><text class="cls-5" transform="translate(170.32 95.06) rotate(-10)"><tspan x="0" y="0">し</tspan></text><text class="cls-5" transform="translate(240.73 82.64) rotate(-10)"><tspan x="0" y="0">い</tspan></text></g></g></svg>