<svg width="2e3" height="1200" version="1.1" viewBox="0 0 529.16 317.5" xmlns="http://www.w3.org/2000/svg">
	<g>
		<path d="m0.028417 0h529.1c0.0176 0 0.0317 0.01416 0.0317 0.03175v317.44c0 0.0176-0.0142 0.0317-0.0317 0.0317h-529.1c-0.01759 0-0.03175-0.0142-0.03175-0.0317v-317.44c0-0.01759 0.01416-0.03175 0.03175-0.03175z" fill="#ffaacc" style="paint-order:normal"/>
	</g>
	<g>
		<g fill="#1a1a1a">
			<g transform="translate(396.88)" fill="#1a1a1a">
				<path transform="matrix(.26458 0 0 .26458 -396.88 0)" d="m2.5898 0v1199.9c0 0.069 0.05575 0.125 0.125 0.125h0.28516v-37.295l18.646 37.295h6.7051l-21.066-42.133 70.221 42.133h11.664l-78.334-47h162.31l23.502 47h6.707l-24.973-49.945 68.621-127.18v177.12h6.002v-177.11l68.615 127.17-24.973 49.945h6.709l23.5-47h162.31l-78.332 47h11.662l70.209-42.125-21.062 42.125h6.707l18.648-37.299v37.299h6.002v-37.293l18.646 37.293h6.7051l-21.066-42.133 70.221 42.133h11.664l-78.334-47h162.31l23.502 47h6.707l-24.973-49.945 68.621-127.18v177.12h6.002v-177.11l68.615 127.17-24.973 49.945h6.709l23.5-47h162.31l-78.332 47h11.662l70.209-42.125-21.061 42.125h6.707l18.646-37.297v37.297h6.002v-37.293l18.646 37.293h6.7051l-21.066-42.131 70.219 42.131h11.666l-78.334-47h162.31l23.502 47h6.7071l-24.973-49.945 68.621-127.18v177.12h6.002v-177.11l68.615 127.17-24.973 49.945h6.709l23.5-47h162.31l-78.332 47h11.662l70.209-42.125-21.062 42.125h6.709l18.646-37.297v37.297h6.002v-37.293l18.644 37.293h6.7071l-21.066-42.133 70.221 42.133h11.664l-78.334-47h162.31l23.502 47h6.7071l-24.973-49.945 68.621-127.18v177.12h6.002v-177.11l68.615 127.17-24.973 49.945h6.709l23.5-47h162.31l-78.332 47h11.662l70.209-42.125-21.062 42.125h6.709l18.652-37.309v37.309h2.8711c0.069 0 0.125-0.056 0.125-0.125v-1199.8c0-0.06648-0.0527-0.11914-0.1191-0.11914h-2.8809v238.74l-79.541-138.74 57.334-100h-6.9141l-55.615 96.998h-151.43l161.66-96.998h-11.666l-153.55 92.129 46.066-92.129h-6.7071l-43.644 87.291v-87.291h-6.002v87.295l-43.646-87.295h-6.7071l46.061 92.123-153.54-92.123h-11.664l161.66 96.998h-149.45l-56.904-96.998h-6.9551l58.668 100-81.523 138.96v-238.96h-6.002v238.74l-79.541-138.74 57.334-100h-6.9141l-55.615 96.998h-151.43l161.66-96.998h-11.662l-153.55 92.131 46.066-92.131h-6.7071l-43.644 87.291v-87.291h-6.002v87.295l-43.646-87.295h-6.7071l46.061 92.123-153.54-92.123h-11.664l161.66 96.998h-149.45l-56.904-96.998h-6.9551l58.668 100-81.523 138.96v-238.96h-6.002v238.74l-79.541-138.74 57.334-100h-6.9141l-55.615 96.998h-151.43l161.66-96.998h-11.662l-153.55 92.131 46.066-92.131h-6.707l-43.645 87.291v-87.291h-6.002v87.295l-43.646-87.295h-6.707l46.061 92.123-153.54-92.123h-11.664l161.66 96.998h-149.45l-56.904-96.998h-6.9551l58.668 100-81.523 138.96v-238.96h-6.002v238.74l-79.541-138.74 57.334-100h-6.9141l-55.615 96.998h-151.43l161.66-96.998h-11.666l-153.55 92.129 46.066-92.129h-6.707l-43.645 87.291v-87.291h-6.002v87.295l-43.646-87.295h-6.707l46.061 92.123-153.54-92.123h-11.664l161.66 96.998h-149.45l-56.904-96.998h-6.9551l58.668 100-81.523 138.96v-238.96zm87.127 103h149.46l-230.64 138.38zm171.11 0h151.44l79.41 138.51zm328.89 0h149.46l-230.63 138.38zm171.11 0h151.44l79.414 138.51zm328.89 0h149.46l-230.63 138.38zm171.11 0h151.44l79.414 138.51zm328.89 0h149.46l-230.64 138.38zm171.11 0h151.44l79.41 138.51zm-1513.8 2.3008v4.9492l-73.789 136.75h-162.37zm500 0v4.9492l-73.789 136.75h-162.37zm500 0v4.9492l-73.789 136.75h-162.37zm500 0v4.9492l-73.789 136.75h-162.37zm-1494 4e-3 34.684 20.809 201.47 120.88h-162.37l-73.783-136.75zm500 0 34.684 20.809 201.47 120.88h-162.37l-73.783-136.75zm500 0 34.684 20.809 201.47 120.88h-162.37l-73.783-136.75zm500 0 34.684 20.809 201.47 120.88h-162.37l-73.783-136.75zm-1506 17.572v264.42l-68.621-137.24zm500 0v264.42l-68.621-137.24zm500 0v264.42l-68.621-137.24zm500 0v264.42l-68.621-137.24zm-1494 0.01 68.615 127.17-68.615 137.23zm500 0 68.615 127.17-68.615 137.23zm500 0 68.615 127.17-68.615 137.23zm500 0 68.615 127.17-68.615 137.23zm-1742.2 130.11h162.31l69.564 139.12zm316.02 0h162.31l-231.88 139.13zm183.98 0h162.31l69.564 139.12zm316.02 0h162.31l-231.88 139.13zm183.98 0h162.31l69.564 139.12zm316.02 0h162.31l-231.88 139.13zm183.98 0h162.31l69.564 139.12zm316.02 0h162.31l-231.88 139.13zm-1819.6 4.8672 231.88 139.13h-162.32zm1500 0 231.88 139.13h-162.32zm-1e3 2e-3 231.88 139.13h-162.32zm500 0 231.88 139.13h-162.32zm-514.58 6e-3 -69.559 139.12h-162.31zm500 0-69.559 139.12h-162.31zm500 0-69.557 139.12h-162.31zm500 0-69.557 139.12h-162.31zm-1495.7 4.826v274.6l-68.646-137.29zm500 0v274.6l-68.646-137.29zm500 0v274.59l-68.646-137.29zm500 0v274.59l-68.646-137.29zm-1994 0.00391 68.645 137.3-68.645 137.29zm1e3 0 68.644 137.3-68.644 137.29zm500 0 68.644 137.3-68.644 137.29zm-1e3 2e-3 68.645 137.29-68.645 137.29zm-426.15 140.29h162.31l-231.88 139.13zm183.98 0h162.31l69.561 139.12zm316.02 0h162.31l-231.88 139.13zm183.98 0h162.31l69.561 139.12zm316.02 0h162.31l-231.88 139.13zm183.98 0h162.31l69.561 139.12zm316.02 0h162.31l-231.88 139.13zm183.98 0h162.31l69.561 139.12zm-1519.2 5.4922-79.414 138.51h-151.43zm1500 0-79.414 138.51h-151.43zm-1e3 2e-3 -79.412 138.5h-151.43zm500 0-79.412 138.5h-151.43zm-983.14 0.125 230.63 138.38h-149.45zm500 0 230.63 138.38h-149.45zm500 0 230.63 138.38h-149.45zm500 0 230.63 138.38h-149.45zm-1505.5 2.4218 81.523 138.96-81.523 138.96zm500 0 81.523 138.96-81.523 138.96zm500 0 81.523 138.96-81.523 138.96zm500 0 81.523 138.96-81.523 138.96zm-1506 0.22656v277.47l-79.541-138.74zm500 0v277.47l-79.541-138.74zm500 0v277.47l-79.541-138.74zm500 0v277.47l-79.541-138.74zm-1736.2 141.73h151.44l79.414 138.51zm328.89 0h149.46l-230.63 138.38zm171.11 0h151.44l79.41 138.51zm328.89 0h149.46l-230.64 138.38zm171.11 0h151.44l79.41 138.51zm328.89 0h149.46l-230.64 138.38zm171.11 0h151.44l79.414 138.51zm328.89 0h149.46l-230.63 138.38zm-1342.7 2.3008v4.9492l-73.789 136.75h-162.37zm500 0v4.9492l-73.789 136.75h-162.37zm500 0v4.9492l-73.789 136.75h-162.37zm500 0v4.9492l-73.789 136.75h-162.37zm-1994 0.00391 34.684 20.809 201.47 120.88h-162.37l-73.783-136.75zm500 0 34.684 20.809 201.47 120.88h-162.37l-73.783-136.75zm500 0 34.684 20.809 201.47 120.88h-162.37l-73.783-136.75zm500 0 34.684 20.809 201.47 120.88h-162.37l-73.783-136.75zm-1006 17.572v264.42l-68.621-137.24zm500 0v264.42l-68.621-137.24zm500 0v264.42l-68.621-137.24zm500 0v264.42l-68.621-137.24zm-1994 0.00977 68.615 127.17-68.615 137.23zm500 0 68.615 127.17-68.615 137.23zm500 0 68.615 127.17-68.615 137.23zm500 0 68.615 127.17-68.615 137.23zm-1426.1 130.11h162.31l-231.88 139.13zm183.98 0h162.31l69.564 139.12zm316.02 0h162.31l-231.88 139.13zm183.98 0h162.31l69.564 139.12zm316.02 0h162.31l-231.88 139.13zm183.98 0h162.31l69.564 139.12zm316.02 0h162.31l-231.88 139.13zm183.98 0h162.31l69.564 139.12zm-1003.5 4.8672 231.88 139.13h-162.32zm500 0 231.88 139.13h-162.32zm-1e3 2e-3 231.88 139.13h-162.32zm1500 0 231.88 139.13h-162.32zm-1514.6 0.00581-69.557 139.12h-162.31zm500 0-69.557 139.12h-162.31zm500 0-69.557 139.12h-162.31zm500 0-69.557 139.12h-162.31zm-1495.7 4.8262v274.59l-68.646-137.29zm500 0v274.59l-68.646-137.29zm500 0v274.59l-68.646-137.29zm500 0v274.59l-68.646-137.29zm-1494 0.00391 68.645 137.3-68.645 137.29zm500 0 68.645 137.3-68.645 137.29zm500 0 68.644 137.3-68.644 137.29zm500 0 68.644 137.3-68.644 137.29zm-1742.2 140.29h162.31l69.561 139.12zm316.02 0h162.31l-231.88 139.13zm183.98 0h162.31l69.561 139.12zm316.02 0h162.31l-231.88 139.13zm183.98 0h162.31l69.561 139.12zm316.02 0h162.31l-231.88 139.13zm183.98 0h162.31l69.561 139.12zm316.02 0h162.31l-231.88 139.13zm-835.18 5.4922-79.414 138.51h-151.43zm500 0-79.414 138.51h-151.43zm-1e3 2e-3 -79.412 138.5h-151.43zm1500 0-79.412 138.5h-151.43zm-1983.1 0.12495 230.63 138.38h-149.45zm500 0 230.63 138.38h-149.45zm500 0 230.63 138.38h-149.45zm500 0 230.63 138.38h-149.45zm-1505.5 2.4219 81.523 138.96-81.523 138.96zm500 0 81.523 138.96-81.523 138.96zm500 0 81.523 138.96-81.523 138.96zm500 0 81.523 138.96-81.523 138.96zm-1006 0.22656v277.47l-79.541-138.74zm500 0v277.47l-79.541-138.74zm500 0v277.47l-79.541-138.74zm500 0v277.47l-79.541-138.74zm-1907.3 141.73h149.46l-230.64 138.38zm171.11 0h151.44l79.41 138.51zm328.89 0h149.46l-230.64 138.38zm171.11 0h151.44l79.414 138.51zm328.89 0h149.46l-230.63 138.38zm171.11 0h151.44l79.414 138.51zm328.89 0h149.46l-230.64 138.38zm171.11 0h151.44l79.41 138.51zm-1513.8 2.3008v4.9492l-73.789 136.75h-162.37zm6.002 0 34.684 20.809 201.47 120.88h-162.37l-73.783-136.75zm494 0v4.9492l-73.789 136.75h-162.37zm6.002 0 34.684 20.809 201.47 120.88h-162.37l-73.783-136.75zm494 0v4.9512l-73.789 136.75h-162.37zm6.002 0 34.684 20.809 201.47 120.88h-162.37l-73.783-136.75zm494 0v4.9492l-73.789 136.75h-162.37zm6.002 0 34.684 20.809 201.47 120.88h-162.37l-73.783-136.75z" color="#000000" color-rendering="auto" dominant-baseline="auto" fill="#1a1a1a" image-rendering="auto" shape-rendering="auto" solid-color="#000000" stop-color="#000000" style="font-feature-settings:normal;font-variant-alternates:normal;font-variant-caps:normal;font-variant-east-asian:normal;font-variant-ligatures:normal;font-variant-numeric:normal;font-variant-position:normal;font-variation-settings:normal;inline-size:0;isolation:auto;mix-blend-mode:normal;shape-margin:0;shape-padding:0;text-decoration-color:#000000;text-decoration-line:none;text-decoration-style:solid;text-indent:0;text-orientation:mixed;text-transform:none;white-space:normal"/>
			</g>
		</g>
	</g>
</svg>
