<?xml version="1.0" encoding="UTF-8"?>
<svg id="_レイヤー_2" data-name="レイヤー 2" xmlns="http://www.w3.org/2000/svg" viewBox="0 0 97.2 97.2">
  <defs>
    <style>
      .cls-1, .cls-2 {
        fill: #fff;
      }

      .cls-3 {
        fill: #ffe100;
      }

      .cls-4 {
        font-family: 'Noto Sans JP', sans-serif;
        font-size: 22px;
        font-weight: 700;
      }

      .cls-2 {
        opacity: .7;
      }
    </style>
  </defs>
  <g id="pc">
    <g>
      <circle class="cls-3" cx="48.6" cy="48.6" r="48.6"/>
      <g>
        <path class="cls-2" d="m48.6,82.33c-18.6,0-33.73-15.13-33.73-33.73S30,14.87,48.6,14.87s33.73,15.13,33.73,33.73-15.13,33.73-33.73,33.73Zm0-65.26c-17.39,0-31.53,14.15-31.53,31.53s14.15,31.53,31.53,31.53,31.53-14.15,31.53-31.53-14.15-31.53-31.53-31.53Z"/>
        <rect class="cls-2" x="47.76" y="3.84" width="1.69" height="2.43"/>
        <path class="cls-2" d="m47.76,7.28v27.62c.28-.02.56-.03.84-.03s.57,0,.84.03V7.28h-1.69Z"/>
        <path class="cls-2" d="m49.44,90.25v-27.95c-.28.02-.56.03-.84.03s-.57,0-.84-.03v27.95h1.69Z"/>
        <rect class="cls-1" x="47.76" y="91.26" width="1.69" height="2.1"/>
        <rect class="cls-2" x="3.84" y="47.76" width="1.97" height="1.69"/>
        <rect class="cls-2" x="6.83" y="47.76" width="17.01" height="1.69"/>
        <rect class="cls-2" x="24.85" y="47.76" width="1.26" height="1.69"/>
        <path class="cls-2" d="m34.9,47.76h-7.78v1.69h7.78c-.02-.28-.03-.56-.03-.84s0-.57.03-.84Z"/>
        <path class="cls-2" d="m69.28,49.44v-1.69h-6.98c.02.28.03.56.03.84s0,.57-.03.84h6.98Z"/>
        <rect class="cls-2" x="70.29" y="47.76" width="1.35" height="1.69"/>
        <rect class="cls-2" x="72.65" y="47.76" width="17.15" height="1.69"/>
        <rect class="cls-2" x="90.8" y="47.76" width="2.55" height="1.69"/>
        <path class="cls-1" d="m57.69,58.88c-2.23,1.97-5.09,3.23-8.24,3.42-.28.02-.56.03-.84.03s-.57,0-.84-.03c-3.15-.19-6.02-1.45-8.24-3.42l-1.07,1.07c2.5,2.24,5.75,3.67,9.32,3.87.28.02.56.02.84.02s.57,0,.84-.02c3.57-.2,6.82-1.62,9.32-3.87l-1.07-1.07Zm-19.37-19.37l-1.08-1.08c-2.24,2.5-3.67,5.75-3.87,9.32-.02.28-.02.56-.02.84s0,.57.02.84c.19,3.57,1.62,6.82,3.87,9.32l1.08-1.08c-1.97-2.22-3.23-5.09-3.42-8.24-.02-.28-.03-.56-.03-.84s0-.57.03-.84c.19-3.15,1.45-6.02,3.42-8.24Zm25.5,8.24c-.19-3.57-1.62-6.82-3.87-9.32l-1.08,1.08c1.97,2.22,3.23,5.09,3.42,8.24.02.28.03.56.03.84s0,.57-.03.84c-.19,3.15-1.45,6.02-3.42,8.24l1.08,1.08c2.24-2.5,3.67-5.75,3.87-9.32.02-.28.02-.56.02-.84s0-.57-.02-.84Zm-14.38-14.38c-.28-.02-.56-.02-.84-.02s-.57,0-.84.02c-3.57.2-6.82,1.62-9.32,3.87l1.07,1.07c2.23-1.97,5.09-3.23,8.24-3.42.28-.02.56-.03.84-.03s.57,0,.84.03c3.15.19,6.02,1.45,8.24,3.42l1.07-1.07c-2.5-2.24-5.75-3.67-9.32-3.87Z"/>
        <circle class="cls-1" cx="48.6" cy="48.6" r="2.76"/>
      </g>
      <!--text class="cls-4" transform="translate(25.41 45.06)"><tspan x="0" y="0">DNA</tspan><tspan x="-9.68" y="24.3">不一致</tspan></text-->
      <text class="cls-4" textLength="120" text-anchor="middle"><tspan x="49" y="45">DNA</tspan><tspan x="49" y="70">不一致</tspan></text>
    </g>
  </g>
</svg>