<?xml version="1.0" encoding="UTF-8"?>
<svg id="_レイヤー_2" data-name="レイヤー 2" xmlns="http://www.w3.org/2000/svg" viewBox="0 0 44.57 50.01">
  <defs>
    <style>
      .cls-1 {
        fill: #8fc31f;
        stroke: #f0f0f0;
        stroke-miterlimit: 10;
        stroke-width: .28px;
      }
    </style>
  </defs>
  <g id="pc">
    <g>
      <path class="cls-1" d="m13.41,48.31h-.29l-3.93-16.67,2.38-1.84-.18-1.82-3.22,2.48-6.1-2.07,2.84-4.76,6.27,2.24-.17-1.71-6.18-2.21h0c-.35-.13-.74.01-.93.33L.25,28.41c-.12.21-.14.46-.06.68l7.91,20.28h0c.12.3.4.49.72.49h4.81c-.07-.18-.11-.36-.13-.55l-.1-1.01Zm-4.05,0L2.25,30.08l5.41,1.84,3.86,16.39h-2.16Z"/>
      <path class="cls-1" d="m25.01,48.92l.04-.6h-2.58l1.2-33.56,8.89-4.26-1.83,12.12,1.66-.58,1.93-12.76c.03-.22-.03-.45-.17-.62L27.2.42c-.23-.28-.62-.36-.94-.19,0,0-14.8,7.46-14.82,7.46-.27.16-.43.45-.42.77l4.03,40.71h0c.04.4.37.7.77.7h9.31c-.11-.3-.15-.63-.13-.95h0ZM26.4,1.89l5.9,7-9.39,4.5-9.43-4.99L26.4,1.89Zm-5.49,46.42h-4.39l-3.82-38.57,9.4,4.98-1.2,33.59Z"/>
      <path class="cls-1" d="m44.42,28.1c-.02-.1-.05-.2-.11-.29l-3.84-6.32c-.19-.31-.57-.45-.92-.33l-10.73,3.77c-.29.1-.49.37-.52.68l-1.74,23.43h0c-.01.21.06.42.21.58.15.16.35.25.56.25h8.01c.32,0,.6-.19.72-.49,0,0,8.3-20.87,8.31-20.89.05-.12.06-.25.04-.38h0Zm-13.55,20.21h-2.7l1.57-21.17,5.26,3.98-4.13,17.19Zm3.94,0h-2.34l4.07-16.91,5.77-1.92-7.49,18.83Zm1.2-18.37l-5.32-4.02,8.77-3.08,3.01,4.95-6.46,2.15Z"/>
    </g>
  </g>
</svg>