<?xml version="1.0" encoding="UTF-8"?>
<svg id="_レイヤー_2" data-name="レイヤー 2" xmlns="http://www.w3.org/2000/svg" viewBox="0 0 48.27 35.57">
  <defs>
    <style>
      .cls-1 {
        fill: #9ac243;
        stroke: #f0f0f0;
        stroke-miterlimit: 10;
        stroke-width: .28px;
      }
    </style>
  </defs>
  <g id="pc">
    <g>
      <path class="cls-1" d="m14.95,23.88c-3.19,0-5.78-2.59-5.78-5.78s2.59-5.78,5.78-5.78,5.78,2.59,5.78,5.78-2.59,5.78-5.78,5.78Zm0-9.81c-2.22,0-4.03,1.81-4.03,4.03s1.81,4.03,4.03,4.03,4.03-1.81,4.03-4.03-1.81-4.03-4.03-4.03Z"/>
      <path class="cls-1" d="m46.78,19.31s-.05-.06-.05-.1c0-.03.04-.06.07-.08.96-.52,1.45-1.63,1.3-2.98-.14-1.3-.93-2.86-2.32-3.23-1.5-.39-3.03.73-4.14,1.55-.27.2-.64.47-.72.51-.27.05-1.34-.11-2.57-.56C34.36.75,17.97.15,17.81.14c-.13,0-.25.02-.36.07-.47-.04-.96-.07-1.44-.07C6.96.14.14,8.04.14,18.5s6.34,16.76,15.78,16.8c.22.03.98.13,2.25.13,1.54,0,3.83-.14,6.84-.7,4.67-.86,9.83-5.54,11.94-9.37.6-1.09,1.01-2.11,1.29-3.1,2.01-.11,2.15.13,2.3.39.04.07.08.14.13.22.95,1.48,1.93,2.31,3,2.53.2.04.4.06.61.06.65,0,1.32-.22,1.99-.66,1.34-.89,1.7-2.45,1.58-3.62-.05-.46-.24-1.56-1.06-1.89Zm-44.89-.8C1.89,10.45,6.84,1.89,16,1.89c3.71,0,6.96,1.4,9.4,4.05,2.88,3.12,4.3,7.66,3.91,12.44-.83,10.07-5.3,15.17-13.31,15.17-8.44,0-14.11-6.05-14.11-15.05Zm33.52,6.02c-1.93,3.5-6.69,7.75-10.72,8.49-.2.04-.38.07-.58.1,3.99-2.61,6.35-7.53,6.93-14.59.43-5.27-1.16-10.29-4.37-13.77-.41-.44-.83-.85-1.28-1.22,4.49,1.67,9.62,5.04,11.4,11.82.29,2.75.57,5.6-1.39,9.17Zm10.55-6.93s-.04.02-.06.03c-.63.39-.97,1.04-.91,1.74.06.64.44,1.21.99,1.5.08.18.2.67.09,1.24-.07.38-.26.91-.77,1.25-.47.31-.89.43-1.27.35-.58-.12-1.22-.72-1.89-1.77-.03-.05-.06-.1-.09-.15-.54-.93-1.18-1.34-3.43-1.28.21-1.48.16-2.86.05-4.15.98.28,1.99.46,2.61.33.41-.08.81-.37,1.41-.82.74-.54,1.97-1.45,2.65-1.27.47.12.94.91,1.03,1.73.05.48-.03,1.06-.4,1.26Z"/>
    </g>
  </g>
</svg>