<?xml version="1.0" encoding="UTF-8"?>
<svg id="_レイヤー_2" data-name="レイヤー 2" xmlns="http://www.w3.org/2000/svg" viewBox="0 0 66.54 43.38">
  <defs>
    <style>
      .cls-1 {
        fill: #8fc31f;
        stroke: #f0f0f0;
        stroke-miterlimit: 10;
        stroke-width: .28px;
      }
    </style>
  </defs>
  <g id="pc">
    <g>
      <path class="cls-1" d="m43.19,21.37c-5.85,0-10.61-4.76-10.61-10.61S37.34.14,43.19.14s10.61,4.76,10.61,10.61-4.76,10.61-10.61,10.61Zm0-19.23c-4.75,0-8.61,3.86-8.61,8.61s3.86,8.61,8.61,8.61,8.61-3.86,8.61-8.61-3.86-8.61-8.61-8.61Z"/>
      <path class="cls-1" d="m47.43,41.5c-.13-.12-3.24-2.91-9.53-5.96-.03-.02-.07-.03-.1-.04-1.18-.42-2.34-.76-3.49-1.05v-.52h2.64c.55,0,1-.45,1-1s-.45-1-1-1h-2.64v-2.35h.94c.55,0,1-.45,1-1s-.45-1-1-1h-.94v-2.75c0-1.2-.97-2.17-2.17-2.17h-.26c-1.19,0-2.16.97-2.16,2.17v.92h-.94c-.55,0-1,.45-1,1s.45,1,1,1h.94v2.57h-1.79c-.55,0-1,.45-1,1s.45,1,1,1h1.79v1.28c-3.38-.4-6.59-.3-9.62.12v-3.06h2.86c1.22,0,2.22-1,2.22-2.25s-1-2.22-2.22-2.22h-2.86v-2.54h1.35c1.22,0,2.22-.99,2.22-2.24s-.99-2.21-2.22-2.21h-1.35v-1.05c0-1.53-1.24-2.77-2.77-2.77h-.38c-1.52,0-2.76,1.24-2.76,2.77v2.94h-1.35c-1.22,0-2.22.99-2.22,2.25s1,2.21,2.22,2.21h1.35v3.87h-2.86c-1.22,0-2.22,1-2.22,2.25s1,2.21,2.22,2.21h2.86v1.09c-3.79,1.04-7.29,2.43-10.5,3.7-.99.39-1.96.78-2.89,1.14-.52.2-.77.77-.58,1.29.2.52.78.77,1.29.58.94-.36,1.92-.75,2.92-1.15,4.4-1.75,9.35-3.72,14.87-4.64h0c4.26-.71,8.86-.79,13.81.34h0c1.3.3,2.62.67,3.97,1.14,5.97,2.91,8.98,5.59,9.01,5.62.19.17.43.26.67.26.27,0,.54-.11.74-.33.37-.41.34-1.04-.07-1.41Zm-31.25-8.61s0-.02,0-.03c0-.55-.45-1-1-1h-3.86c-.12,0-.22-.1-.22-.24,0-.12.1-.22.22-.22h3.86c.55,0,1-.45,1-1v-5.87c0-.55-.45-1-1-1h-2.35c-.12,0-.22-.1-.22-.24,0-.12.1-.22.22-.22h2.35c.55,0,1-.45,1-1v-3.94c0-.43.34-.77.76-.77h.38c.43,0,.77.35.77.77v2.05c0,.55.45,1,1,1h2.35c.12,0,.22.1.22.24,0,.11-.1.21-.22.21h-2.35c-.55,0-1,.45-1,1v4.54c0,.55.45,1,1,1h3.86c.12,0,.22.1.22.25,0,.12-.1.22-.22.22h-3.86c-.21,0-.4.06-.56.17-.27.18-.44.48-.44.83v4.39c-.65.12-1.29.26-1.92.4v-1.55Zm15.53-8.06c0-.09.08-.17.17-.17h.26c.09,0,.17.08.17.17v3.73s0,.01,0,.02,0,.01,0,.02v4.31s0,.01,0,.02,0,.01,0,.02v1.05c-.2-.04-.4-.08-.6-.11v-9.06Z"/>
      <path class="cls-1" d="m39.71,33.13c-.38,0-.73-.21-.9-.57-.23-.5-.02-1.09.48-1.33,9.7-4.56,18.87-5.17,26.52-1.76.5.22.73.82.51,1.32-.23.5-.82.73-1.32.51-7.2-3.22-15.56-2.63-24.85,1.74-.14.06-.28.1-.42.1Z"/>
    </g>
  </g>
</svg>