<?xml version="1.0" encoding="UTF-8"?>
<svg id="_レイヤー_2" data-name="レイヤー 2" xmlns="http://www.w3.org/2000/svg" viewBox="0 0 89.1 89.1">
  <defs>
    <style>
      .cls-1 {
        fill: #fff;
      }

      .cls-2 {
        fill: #3d62ad;
      }
    </style>
  </defs>
  <g id="pc">
    <circle class="cls-2" cx="44.55" cy="44.55" r="44.55"/>
    <g>
      <g>
        <g>
          <path class="cls-1" d="m29.01,46.13c-1.96,0-3.56-1.6-3.56-3.56s1.6-3.56,3.56-3.56,3.56,1.6,3.56,3.56-1.6,3.56-3.56,3.56Zm0-5.62c-1.13,0-2.06.92-2.06,2.06s.92,2.06,2.06,2.06,2.06-.92,2.06-2.06-.92-2.06-2.06-2.06Z"/>
          <path class="cls-1" d="m35.51,67.6c-1.11,0-2.06-.83-2.21-1.93l-.6-4.42h-4.43c-1.25,0-2.26-1.01-2.26-2.26l-.03-.53v-9.16c0-1.56,1.27-2.83,2.82-2.83,0,0,.06,0,.07,0,.22,0,2.07.11,2.61,1.4l2.45,2.45h3.35c1.06,0,1.93.86,1.93,1.93s-.86,1.95-1.92,1.95h-4.64c-.2,0-.39-.08-.53-.22l-.45-.45v3.23h3.66c.74,0,1.37.55,1.48,1.29l.95,7.02c.16,1.22-.69,2.34-1.91,2.51-.13.02-.23.02-.33.02Zm-6.69-19.62c-.74,0-1.34.59-1.34,1.32v9.12l.03.52s0,.04,0,.06c0,.42.34.76.75.76h5.09c.38,0,.69.28.75.65l.69,5.07c.05.39.42.68.82.62.43-.06.7-.42.65-.82l-.95-7.02h-4.4c-.42.01-.75-.32-.75-.74v-5.8c0-.3.18-.58.46-.7.28-.12.6-.05.82.16l1.51,1.51h4.33c.23,0,.42-.19.42-.42,0-.25-.19-.44-.42-.44h-3.66c-.2,0-.39-.08-.53-.22l-2.79-2.79c-.09-.09-.16-.21-.19-.33-.08-.29-.81-.49-1.28-.51Z"/>
        </g>
        <g>
          <path class="cls-1" d="m60.17,46.13c-1.96,0-3.56-1.6-3.56-3.56s1.6-3.56,3.56-3.56,3.56,1.6,3.56,3.56-1.6,3.56-3.56,3.56Zm0-5.62c-1.13,0-2.06.92-2.06,2.06s.92,2.06,2.06,2.06,2.06-.92,2.06-2.06-.92-2.06-2.06-2.06Z"/>
          <path class="cls-1" d="m53.67,67.6c-.1,0-.2,0-.3-.02-1.25-.17-2.11-1.29-1.94-2.51l.95-7.02c.1-.74.74-1.29,1.48-1.29h3.66v-3.28l-.45.45c-.14.14-.33.22-.53.22h-4.64c-1.06,0-1.92-.86-1.92-1.93s.86-1.95,1.92-1.95h3.35l2.46-2.46c.56-1.28,2.61-1.34,2.63-1.34,1.6,0,2.87,1.27,2.87,2.83v9.12l-.03.61c0,1.22-1.01,2.23-2.26,2.23h-4.43l-.6,4.42c-.15,1.1-1.1,1.93-2.21,1.93Zm.18-9.34l-.93,7c-.05.4.23.76.62.82.06,0,.1.01.13.01.36,0,.67-.27.72-.63l.69-5.07c.05-.37.37-.65.75-.65h5.09c.42,0,.75-.34.75-.76,0-.01,0-.04,0-.06l.03-.56v-9.07c0-.73-.59-1.32-1.32-1.32-.51.01-1.24.25-1.3.45-.03.13-.1.24-.19.33l-2.79,2.79c-.14.14-.33.22-.53.22h-3.67c-.23,0-.42.19-.42.42,0,.26.19.44.42.44h4.33l1.51-1.51c.22-.22.54-.28.82-.16.28.12.46.39.46.7v5.85c0,.42-.34.75-.75.75h-4.42Z"/>
        </g>
        <path class="cls-1" d="m52.23,54.97h-14.79c-.42,0-.75.34-.75.75s.34.75.75.75h6.64v10.37c0,.42.34.75.75.75s.75-.34.75-.75v-10.37h6.64c.42,0,.75-.34.75-.75s-.34-.75-.75-.75Z"/>
        <path class="cls-1" d="m65.29,55.39c-.41-.07-.8.2-.87.61l-.74,4.16c-.42.89-1.32,1.45-2.31,1.45h-4c-.42,0-.75.34-.75.75s.34.75.75.75h2.54v3.73c0,.42.34.75.75.75s.75-.34.75-.75v-3.74c1.6-.02,3.04-.96,3.68-2.43.02-.05.04-.11.05-.17l.76-4.25c.07-.41-.2-.8-.61-.87Z"/>
        <path class="cls-1" d="m31.84,61.61h-4c-.98,0-1.88-.57-2.31-1.45l-.74-4.67c-.07-.41-.45-.69-.86-.63-.41.07-.69.45-.62.86l.76,4.77c.01.06.03.13.05.18.64,1.46,2.08,2.41,3.68,2.43v3.74c0,.42.34.75.75.75s.75-.34.75-.75v-3.73h2.54c.42,0,.75-.34.75-.75s-.34-.75-.75-.75Z"/>
      </g>
      <path class="cls-1" d="m39.07,40.51c-.23,0-.46-.07-.65-.2l-3.53-2.37h-11.07c-1.1,0-2-.9-2-2v-9.47c0-1.1.9-2,2-2h15.99c1.1,0,2,.9,2,2v9.47c0,.95-.67,1.75-1.57,1.95v1.44c0,.65-.53,1.17-1.18,1.17Zm-15.24-14.52c-.27,0-.49.22-.49.49v9.47c0,.27.22.49.49.49h11.29c.15,0,.3.04.42.13l3.2,2.15v-1.52c0-.42.34-.75.75-.75h.32c.27,0,.49-.22.49-.49v-9.47c0-.28-.22-.49-.49-.49h-15.99Z"/>
      <path class="cls-1" d="m50.74,40.51c-.65,0-1.18-.53-1.18-1.17v-1.4c-1.67-.12-2.03-1.13-2.03-1.98v-11.7c0-1.1.9-2,2-2h11.68c1.1,0,2,.9,2,2v11.7c0,1.1-.9,2-2,2h-6.29l-3.53,2.36c-.2.13-.42.2-.65.2Zm-.42-4.07c.42,0,.75.34.75.75v1.52l3.2-2.15c.12-.08.27-.13.42-.13h6.52c.27,0,.49-.22.49-.49v-11.7c0-.27-.22-.49-.49-.49h-11.68c-.27,0-.49.22-.49.49v11.7c0,.32,0,.49.88.49h.39Z"/>
    </g>
  </g>
</svg>