<?xml version="1.0" encoding="UTF-8"?>
<svg id="_レイヤー_2" data-name="レイヤー 2" xmlns="http://www.w3.org/2000/svg" viewBox="0 0 70.82 29.28">
  <defs>
    <style>
      .cls-1 {
        fill: #9ac243;
        stroke: #f0f0f0;
        stroke-miterlimit: 10;
        stroke-width: .28px;
      }
    </style>
  </defs>
  <g id="pc">
    <g>
      <g>
        <path class="cls-1" d="m12.23,29.13C5.23,29.13.14,23.89.14,16.66.14,10.16,5.33.14,12.23.14c3.13,0,6.22,2.1,8.68,5.91,2.11,3.26,3.41,7.33,3.41,10.61,0,7.23-5.09,12.47-12.09,12.47Zm0-27.08C6.71,2.05,2.05,11.02,2.05,16.66c0,6.12,4.28,10.56,10.18,10.56s10.18-4.44,10.18-10.56c0-5.64-4.66-14.61-10.18-14.61Z"/>
        <path class="cls-1" d="m5.16,15.27c-.06,0-.11,0-.17-.02-.52-.09-.86-.59-.77-1.11.54-2.97,2.18-5.99,4.18-7.69.4-.34,1.01-.29,1.35.11.34.4.29,1.01-.11,1.35-1.66,1.41-3.08,4.05-3.54,6.58-.08.46-.49.79-.94.79Z"/>
      </g>
      <g>
        <path class="cls-1" d="m35.61,29.13c-7.01,0-12.09-5.25-12.09-12.47C23.52,10.16,28.71.14,35.61.14c3.13,0,6.22,2.1,8.68,5.91,2.11,3.26,3.41,7.33,3.41,10.61,0,7.23-5.09,12.47-12.09,12.47Zm0-27.08c-5.52,0-10.18,8.97-10.18,14.61,0,6.12,4.28,10.56,10.18,10.56s10.18-4.44,10.18-10.56c0-5.64-4.66-14.61-10.18-14.61Z"/>
        <path class="cls-1" d="m28.53,15.27c-.06,0-.11,0-.17-.02-.52-.09-.86-.59-.77-1.11.54-2.97,2.18-5.99,4.18-7.69.4-.34,1.01-.29,1.35.11.34.4.29,1.01-.11,1.35-1.66,1.41-3.08,4.05-3.54,6.58-.08.46-.49.79-.94.79Z"/>
      </g>
      <g>
        <path class="cls-1" d="m58.59,29.13c-7.01,0-12.09-5.25-12.09-12.47C46.5,10.16,51.69.14,58.59.14c3.13,0,6.22,2.1,8.68,5.91,2.11,3.26,3.41,7.33,3.41,10.61,0,7.23-5.09,12.47-12.09,12.47Zm0-27.08c-5.52,0-10.18,8.97-10.18,14.61,0,6.12,4.28,10.56,10.18,10.56s10.18-4.44,10.18-10.56c0-5.64-4.66-14.61-10.18-14.61Z"/>
        <path class="cls-1" d="m51.52,15.27c-.06,0-.11,0-.17-.02-.52-.09-.86-.59-.77-1.11.54-2.97,2.18-5.99,4.18-7.69.4-.34,1.01-.29,1.35.11.34.4.29,1.01-.11,1.35-1.66,1.41-3.08,4.05-3.54,6.58-.08.46-.49.79-.94.79Z"/>
      </g>
    </g>
  </g>
</svg>