<?xml version="1.0" encoding="UTF-8"?>
<svg id="_レイヤー_2" data-name="レイヤー 2" xmlns="http://www.w3.org/2000/svg" viewBox="0 0 56.85 31.24">
  <defs>
    <style>
      .cls-1 {
        fill: #8fc31f;
        stroke: #f0f0f0;
        stroke-miterlimit: 10;
        stroke-width: .28px;
      }
    </style>
  </defs>
  <g id="pc">
    <g>
      <path class="cls-1" d="m31.13,25.59h-.97c-9.05,0-9.99-7.11-10-7.18l-.13-1.09h11.1v8.27Zm-8.74-6.32c.58,1.49,2.24,4.03,6.79,4.34v-4.34h-6.79Z"/>
      <g>
        <path class="cls-1" d="m10.05,13.37c-1.39,0-2.55,1.16-2.55,2.55s1.17,2.55,2.55,2.55,2.55-1.16,2.55-2.55-1.16-2.55-2.55-2.55Zm0,3.16c-.79,0-.78-1.21,0-1.21s.79,1.21,0,1.21Z"/>
        <path class="cls-1" d="m56.7,8.46c-2.35,0-4.59.27-6.82,1.04-2.36.81-4.57,2-6.62,3.42-.37.26-.74.52-1.1.8-.15.12-.31.23-.46.35-.16-.2-.32-.39-.49-.58-.78-.89-1.62-1.73-2.52-2.5-2.14-1.84-4.62-3.27-7.28-4.2.63-1.76,1.26-3.52,1.89-5.28-1.93-.46-3.86-.86-5.83-1.1-1.38-.17-3.03-.48-4.38-.03-1.27.42-2.32,1.38-3.2,2.37-.8.9-1.49,1.9-2.1,2.93-.1.16-.19.32-.28.49-.47.11-.93.23-1.39.36-1.01.29-2,.65-2.97,1.06-2.2.93-4.25,2.12-6.2,3.59-2.05,1.55-3.94,3.34-5.55,5.34-.31.39-.62.79-.9,1.21-.07.1-.41.51-.36.59.13.2.26.41.4.61.97,1.41,2.14,2.69,3.36,3.88,2.14,2.08,4.69,4.05,7.34,5.33,5.89,2.84,12.6,3.89,18.99,2.04,2.72-.79,5.28-2.1,7.52-3.83.92-.71,1.79-1.48,2.6-2.32.34-.35.67-.71.99-1.08.11-.13.3-.48.45-.36.22.17.45.35.67.52,2.36,1.76,4.99,3.22,7.8,4.12,1.69.54,3.46.88,5.24.9.39,0,.78,0,1.17,0,.04,0,.02-.86.02-.97,0-1.94-.26-3.87-.65-5.77-.14-.68-.3-1.36-.48-2.04-.11-.42-.35-.88-.23-1.3.87-2.96,1.36-6.02,1.36-9.1v-.49ZM24.25,2.12c2.17,0,4.36.37,6.48.8-.39,1.11-.79,2.21-1.18,3.32.03-.07-4.04-.67-4.41-.69-1.69-.11-3.39-.05-5.07.16.87-1.29,2.4-3.59,4.18-3.59ZM2.49,18.3c1.4-1.85,3.07-3.52,4.88-4.98,1.38-1.12,2.86-2.11,4.43-2.95.32-.17.37.2.51.48.15.3.29.6.41.91.36.86.65,1.75.87,2.66.68,3.04.58,6.14-.39,9.1-.24.72-.52,1.43-.85,2.11-.09.18-.18.36-.27.53-.14.26-.27.05-.49-.07-.46-.25-.91-.51-1.35-.79-1.42-.89-2.76-1.9-4.02-3.02-1.36-1.21-2.63-2.55-3.73-4,1.07-1.41,1.07,1.41,0,0Zm20.95,10.87c-3.33,0-6.63-.68-9.68-2,2.96-5.45,2.96-12.29,0-17.74,7.09-3.03,15.65-2.7,22.05,1.79,2.31,1.62,4.31,3.72,5.84,6.09.18.29.36.58.53.87.14.25-.24.66-.38.89-.39.63-.82,1.23-1.27,1.81-.6.76-1.24,1.48-1.93,2.16-4.05,3.99-9.48,6.13-15.17,6.13Zm29.87-10.56c.8,2.41,1.28,5.02,1.41,7.55-3.2-.23-6.26-1.5-8.97-3.16-1-.61-1.96-1.28-2.87-2.01.45-.65.87-1.32,1.23-2.01.07-.14.37-.56.3-.7-.4-.85-.87-1.65-1.4-2.43-.21-.31.06-.37.33-.57.22-.17.44-.33.66-.49.52-.37,1.05-.73,1.6-1.07,2.75-1.71,5.87-3.02,9.12-3.25-.1,1.95-.44,3.89-.92,5.79-.16.65-.71,1.72-.49,2.37Z"/>
      </g>
    </g>
  </g>
</svg>