<?xml version="1.0" encoding="UTF-8"?>
<svg id="_レイヤー_2" data-name="レイヤー 2" xmlns="http://www.w3.org/2000/svg" viewBox="0 0 89.1 89.1">
  <defs>
    <style>
      .cls-1 {
        fill: #fff;
      }

      .cls-2 {
        fill: #3d62ad;
      }
    </style>
  </defs>
  <g id="pc">
    <circle class="cls-2" cx="44.55" cy="44.55" r="44.55"/>
    <g>
      <path class="cls-1" d="m53.67,30.94c.45,0,.82-.37.82-.82,0-.24-.11-.46-.28-.61-.34-.42-.52-1-.52-1.72,0-5.36-2.22-8.73-6.26-9.53l-.58-.98c-.15-.25-.42-.4-.7-.4h-2.77c-.29,0-.56.15-.71.4l-.56.95c-4.63.64-6.28,5.5-6.28,9.56,0,.76-.19,1.36-.58,1.79-.26.3-.28.74-.03,1.05.16.2.4.31.64.31.07,0,.14,0,.2-.03-.23.8-.35,1.63-.35,2.47,0,1.43.32,2.8.96,4.07,1.54,3.07,4.64,4.99,8.08,4.99s6.54-1.91,8.09-4.98c.64-1.27.96-2.64.96-4.07,0-.84-.12-1.67-.35-2.47.07.02.13.03.2.03,0,0,0,0,.01,0Zm-16.21-3.15c0-1.19.22-6.84,4.35-7.84v2c0,.45.37.82.82.82s.82-.37.82-.82v-2.77l.39-.66h1.84l.42.71v2.73c0,.45.37.82.82.82s.82-.37.82-.82v-1.92c2.87.86,4.32,3.46,4.32,7.77,0,.28.02.54.06.78-2.08-.7-4.55-1.05-7.35-1.05s-5.29.36-7.36,1.06c.04-.24.06-.5.06-.79Zm13.92,8.93c-1.27,2.52-3.81,4.08-6.63,4.08s-5.36-1.56-6.62-4.08c-.52-1.04-.79-2.16-.79-3.33s.29-2.3.81-3.33c1.86-.6,4.07-.9,6.61-.9s4.73.3,6.6.9c.52,1.02.81,2.17.81,3.34s-.27,2.29-.79,3.33Z"/>
      <path class="cls-1" d="m54.01,45.8c-1.59-.96-3.16-1.68-4.73-2.15-.12-.1-.26-.16-.42-.18l-.46-.06c-2.41-.58-4.8-.59-7.21-.01l-.55.07c-.17.02-.31.09-.44.2-1.55.47-3.1,1.18-4.66,2.13-4.28,2.6-9.2,7.24-9.2,20.1,0,.45.37.82.82.82s.82-.37.82-.82c0-12.05,4.5-16.33,8.41-18.71,1.37-.83,2.74-1.46,4.09-1.89l2.91,3.85-2.32,9.58c-.06.25,0,.51.16.71l2.9,3.56c.16.19.39.3.63.3h0c.25,0,.48-.12.64-.31l2.9-3.66c.16-.2.21-.46.15-.71l-2.36-9.47,2.92-3.86c1.37.43,2.75,1.06,4.13,1.9,3.92,2.38,8.41,6.66,8.41,18.71,0,.45.37.82.82.82s.82-.37.82-.82c0-12.86-4.92-17.5-9.2-20.1Zm-9.24,15.38l-2-2.45,1.99-8.23,2.03,8.13-2.02,2.55Zm2.49-16.26l-2.5,3.31-2.5-3.31,2.44-.29s.07,0,.11,0l2.46.3Z"/>
    </g>
  </g>
</svg>