<?xml version="1.0" encoding="UTF-8"?>
<svg xmlns="http://www.w3.org/2000/svg" xmlns:xlink="http://www.w3.org/1999/xlink" viewBox="0 0 235.24 254.15">
  <defs>
    <style>
      .cls-1 {
        fill: none;
        isolation: isolate;
      }

      .cls-2 {
        fill: #f3d2ae;
      }

      .cls-3 {
        fill: #030000;
      }

      .cls-4 {
        fill: #ecc0aa;
      }

      .cls-5 {
        fill: #e7aa8d;
      }

      .cls-6 {
        fill: #fff;
      }

      .cls-7 {
        fill: #fcf5ec;
      }

      .cls-8 {
        fill: #84adb5;
      }

      .cls-9 {
        fill: #332d3f;
      }

      .cls-10 {
        fill: #d6635b;
      }

      .cls-11 {
        fill: #da9077;
      }

      .cls-12 {
        fill: #dc9880;
      }

      .cls-13 {
        fill: #e29a7d;
      }

      .cls-14 {
        fill: #433b4d;
      }

      .cls-15 {
        fill: #a2adcc;
      }

      .cls-16 {
        fill: #2d2639;
      }

      .cls-17 {
        fill: #3b3345;
      }

      .cls-18 {
        fill: #3d3f50;
      }

      .cls-19 {
        fill: #bbbedc;
        mix-blend-mode: multiply;
        opacity: .5;
      }

      .cls-20 {
        fill: url(#radial-gradient);
        mix-blend-mode: color-burn;
        opacity: .2;
      }

      .cls-21 {
        fill: url(#linear-gradient);
        mix-blend-mode: screen;
      }
    </style>
    <radialGradient id="radial-gradient" cx="131.33" cy="191.06" fx="131.33" fy="191.06" r="74.62" gradientUnits="userSpaceOnUse">
      <stop offset="0" stop-color="#fff"/>
      <stop offset="1" stop-color="#000"/>
    </radialGradient>
    <linearGradient id="linear-gradient" x1="964.75" y1="-146.06" x2="1073.84" y2="14.66" gradientTransform="translate(-904.28 -52.57) rotate(17.52)" gradientUnits="userSpaceOnUse">
      <stop offset="0" stop-color="#000"/>
      <stop offset="1" stop-color="#fff"/>
    </linearGradient>
  </defs>
  <g class="cls-1">
    <g id="_レイヤー_2" data-name="レイヤー 2">
      <g id="pc">
        <g>
          <g>
            <g>
              <path class="cls-19" d="m56.9,178.17c13.02,7.52,13.02,19.7,0,27.21-13.02,7.52-34.12,7.52-47.14,0-13.02-7.52-13.02-19.7,0-27.21,13.02-7.52,34.12-7.52,47.14,0Z"/>
              <g>
                <g>
                  <path class="cls-6" d="m48.55,31.39c0,3.44-2.79,4.62-6.23,2.63-5.93-2.35-10.13-16.93,0-12.45,3.44,1.99,6.23,6.38,6.23,9.82Z"/>
                  <path class="cls-6" d="m51.89,66.64l-3.37-35.82-12.36-5.64,3.24,41.45,7.41,7.98c.61-.99,5.36-6.77,5.07-7.98Z"/>
                </g>
                <g>
                  <g>
                    <path class="cls-11" d="m46.17,173.21c.93,5.66,16.05,10.05,14.94,15.34-3.64,5.18-13.62-2.06-18.38-3.94-3.65-1.7-8.56-.21-9.29-2.44-.73-2.24,1.35-8.53,1.35-8.53,0,0,11.37-.43,11.38-.42Z"/>
                    <path class="cls-6" d="m61.82,186.67c.1,5.65-9.38,4.98-12.27,2.43-2.27-1.63-12.65-4.45-15.1-6.02-2.44-1.97-.78-7.09.29-8.98-2.04,3.91,4.47,7.77,7.76,5.21,2.78-2.78,5.18-4.18,5.81-3.73.43.31,3.7,2.81,6.19,5.33,1.55,1.57,6.9,4.42,7.31,5.74Z"/>
                    <g>
                      <path class="cls-15" d="m52.4,178.09h0c-.45-.45-1.91-.84-4.96,3.24-.27.37.31.79.58.41,3.11-3.83,3.6-3.5,4.47-2.72.1-.46-.08-.92-.08-.92Z"/>
                      <path class="cls-15" d="m54.43,180.01h0c-.46-.44-1.91-.84-4.96,3.24-.17.22.01.57.29.56,2.99-3.22,3.92-4.03,4.76-2.87.1-.46-.08-.92-.08-.92Z"/>
                      <path class="cls-15" d="m50.26,176.26h0c-.45-.45-1.91-.84-4.97,3.24-.17.22.01.57.29.56,3.02-3.26,3.83-3.97,4.76-2.87.1-.46-.08-.92-.08-.92Z"/>
                    </g>
                    <path class="cls-16" d="m61.82,189.75c-3.6,5.3-15.21.63-19.44-2.89-4.93-3.3-10.69-1.01-9.21-6.35,1.1,2.34,3.04,1.98,6.8,3.13,9.41,2.33,9.81,8.91,20.21,5.81,1.14-.38,1.61-1.7,1.63-2.8.19,1.32,0,3.1,0,3.1Z"/>
                  </g>
                  <path class="cls-11" d="m34.79,173.48h11.38c-.54-.64-1.01-21.17,1.67-35.01,2.96-9.91,1.06-44.59.44-50.89h-23.86s2.34,13.38,7.44,34.51c0,0,2.67,9.9.83,17.14-1.83,5.58,3.59,26.98,2.1,34.26Z"/>
                  <path class="cls-11" d="m44.5,171.16c5.68,4.33-4.96,7.23-8.05,4.65-5.68-4.33,4.96-7.23,8.05-4.65Z"/>
                  <path class="cls-17" d="m48.23,138.45c3.03-10.1.86-45.65.76-52.02l-24.58,1.01s1.69,13.57,6.8,34.7c0,0,2.84,9.84.99,17.07-.48,9.83.41,21.73.59,34.57.39,6.34,15.97,6.11,15.69-.32,0,0-.94-23.09-.26-35.01Z"/>
                </g>
                <g>
                  <path class="cls-13" d="m18.82,185.74c6.57,5.37-9.25,8.2-9.71,2.32.6-3.74,7-3.94,9.71-2.32Z"/>
                  <path class="cls-13" d="m37.23,92.92c.18,1.02-.25,13.45-5.14,15.08-.75.44-1.51,1.25-1.57,2.77-.13,3.08-1.97,30.32-4.87,36.8-3.61,8.07-5.61,13.11-5.17,40.49h-11.38c.74-7.13-3.28-31.41-1.46-37.79,5.32-16.22-.25-48.49,2.41-62.7l27.19,5.35Z"/>
                  <g>
                    <path class="cls-5" d="m20.82,188.06c.74,2.93,12.48,16.29,13.81,18.2-2.64,3.71-15.63,1.84-20.05-5.44-6.64-5.27-7.06-6.47-4.84-12.85l11.08.09Z"/>
                    <path class="cls-6" d="m34.83,206.03c-3.41,6.2-17.98.2-20.56-5-1.75-1.92-6.04-5.62-6.39-7.13.66-2.9.49-6.14,2.5-7.25-1.56,3.68,3.7,8.14,7.01,6.59,1.26-.53,4.84-4.25,6.1-2.31,1.99,3.25,10.15,12.81,11.34,15.1Z"/>
                    <g>
                      <path class="cls-15" d="m19.36,195.74c-1.03-.52.67-.96,1.24-1.56,1.32-1.22,5.35-3.44,4.8-.59-1.38-2.25-4.36,1.66-6.04,2.15Z"/>
                      <path class="cls-15" d="m21.37,198.4c-1.03-.52.67-.96,1.24-1.56,1.32-1.22,5.34-3.44,4.8-.59-1.38-2.25-4.36,1.66-6.05,2.15Z"/>
                      <path class="cls-15" d="m23.38,201.06c-1.03-.52.67-.96,1.24-1.56,1.34-1.2,5.28-3.45,4.82-.61-1.42-2.22-4.37,1.66-6.07,2.16Z"/>
                      <path class="cls-16" d="m34.78,207.84c-3.64,5.78-18.14-.2-20.51-5.24-2.26-2.79-7.09-5.6-6.39-8.7.35,1.5,4.64,5.21,6.39,7.13,1.73,1.86,4.58,5.97,10.62,7.04,6.2,1.01,9.53.04,9.94-2.03.14.49.15,1.07-.05,1.81Z"/>
                    </g>
                  </g>
                  <path class="cls-14" d="m9.34,87.52c-.67,17.15,2.67,48.4-2.16,67.29h0s-.6,21.54-.23,32.86c-.05,1.53,1.23,3.07,3.84,3.99,3.59,1.62,11.58.33,11.87-3.85,0,0,.29-21.89,1.23-33.55,3.04-9.04,7.27-34.82,7-41.41.05-1.23.58-2.09,1.2-2.68,6.04-2.98,6.05-16.5,6.04-19.24l-28.78-3.42Z"/>
                </g>
                <path class="cls-5" d="m48.01,32.6c-2.62-6.95-9.05-11.97-9.05-11.97-10.67-.5-35.21,16.62-37.74,20.1,12.9,1.86,7.35,44.1,8.12,46.93h0c2.45,15.61,37.5,15.61,39.95,0h0c-.18-2.89-.53-8.37-1.53-17.14-.76-18.85,5.86-21,.25-37.93Z"/>
                <path class="cls-6" d="m44.35,135.42c-1.71,1-3.57,1.84-5.55,2.5-.61-10.8-1.48-94.7.84-102.34l-1.34-.84,1.34-.84c-.39-2.97-3.02-9.23-3.02-9.23-.58,2.47-2.1,4.65-2.1,4.65v.5c-.02-2.42-.85-5.24-2.15-7.83,2.15-.65,4.35-1.08,6.6-1.37,7.58,4.78,12.58,18.97,11.09,28.88.03,4.13-3.44,11.2-2.29,21.03,1.76,15.72,2.94,39.78,4.05,54.27.56,3.83-2.13,7.49-7.46,10.62Z"/>
                <path class="cls-15" d="m37.54,51.63s-9.91-9.07-15.35-11.67l.26-1.31-2.15.13s-6.31-5.07-6.75-7.6c1.36-.97,2.85-1.87,4.36-2.76,4.43-2.63,9.23-4.95,14.46-6.44,1.3,2.6,2.13,5.41,2.15,7.83v-.5s1.52-2.18,2.1-4.65c0,0,2.63,6.26,3.02,9.23l-1.34.84,1.34.84s1,8.2-2.1,16.06Z"/>
                <path class="cls-4" d="m12.64,50.75c0,3.44-2.79,4.62-6.23,2.63-5.93-2.35-10.13-16.93,0-12.45,3.44,1.99,6.23,6.38,6.23,9.82Z"/>
                <path class="cls-5" d="m34.52,29.82c-.09,6.54-5.04,6.67-9.51,5.57-5.86-1.63-7.1-6.96-7.1-6.96,1.09-2.17,1.54-4.19,1.68-8.12l4.34.76c.25.24,2.54,2.51,2.71,2.68,1.83-.74,3.72-1.43,5.65-1.94.03.05.08.13.08.18,1.3,2.6,2.13,5.41,2.15,7.83Z"/>
                <path class="cls-3" d="m38.83,10.42s-.13,4.63-.96,5.58c-.82.95-.66-6.78-.66-6.78l1.61,1.2Z"/>
                <path class="cls-12" d="m34.39,31.36c-.07.4-.16.77-.28,1.1-4.14,3.31-12.94-5.04-13.22-8.48,0,0,13.07,4.43,13.55,4.62.11,1.06.08,1.97-.06,2.76Z"/>
                <path class="cls-5" d="m27.08.92s-10.32-1.57-11.99,12.33c4.31,5.99,2.65,7.11,4.65,8.41,0,0,2.82,6.43,5.65,7.75,2.83,1.32,5.91,3.05,6.78,2.46,4.91-2.69,12.95-28.87-5.08-30.95Z"/>
                <path class="cls-3" d="m38.83,10.43c-1.33-.7-2.39.81-3.34,1.52-3.89,2.53-7.85-2.24-12.11-.5-1.61,1.58-.88,6.27-1.39,7.95l-1.65-1-1.41,6.99C2.77-3.7,37.64-6.51,38.83,10.43Z"/>
                <path class="cls-5" d="m21.21,20.01c-.58-1.83.42-4.9-2.66-4.96-2.71.22-.57,6.11.33,6.7.9.59,2.33-1.74,2.33-1.74h0Z"/>
              </g>
            </g>
            <path class="cls-7" d="m22.19,39.96l.26-1.31-2.15.13s-6.31-5.07-6.75-7.6c.47-.48,3.79-4.07,5.05-4.34.8,2.62,2.4,5.52,6.41,8.54h.03c6.12,4.34,11.8,10.41,12.51,16.24,0,0-9.91-9.07-15.35-11.67Z"/>
            <path class="cls-7" d="m37.54,51.63c.96.28-2.25-21.69-3.02-21.63,0,0,0-.68,0-.68,0,0,1.52-2.18,2.1-4.65,0,0,2.63,6.26,3.02,9.23l-1.34.84,1.34.84s1,8.2-2.1,16.06Z"/>
            <path class="cls-6" d="m38.8,137.91c-10.48,4.19-30.75,1.94-31.62-11.09h-.03c0-.27,2.26-41.16,2.23-41.39-.46-10.66,4.07-41.43-8.17-44.71,0,0,5.07-4.7,12.33-9.54.45,2.52,6.75,7.6,6.75,7.6l2.15-.13-.26,1.31c5.44,2.6,15.35,11.67,15.35,11.67l1.26,86.28Z"/>
            <g>
              <path class="cls-7" d="m12.64,50.75c0,3.44-2.79,4.62-6.23,2.63-5.93-2.35-10.13-16.93,0-12.45,3.44,1.99,6.23,6.38,6.23,9.82Z"/>
              <path class="cls-7" d="m18.99,72.14l-7.05-24.67S.17,44.64.29,44.96c.12.32,2.29,21.77,8.92,32.08l25.71,18.82,6.4-8.28-22.33-15.44Z"/>
            </g>
          </g>
          <g>
            <path class="cls-2" d="m120.57,250.05c48.41-21.59,20.7-29.47,42.65-48.6,10.8-7.45,5.79-16.94-2.81-23.14-19.22-14.49-52.81-8.44-73.5,3.82-46.16,25.56-17.56,88.61,33.67,67.92Z"/>
            <path class="cls-7" d="m85.33,249.41c16.7,9.71,50.14-4.75,60.97-18.72,5.95-7.26,3.76-12.81,5.15-17.78,1.64-9.3,18.19-14.09,15.17-24.15-1.75-4.74-8.03-11.39-17.22-14.78-35.2-14.33-104.33,22.08-77.99,63.36,2.94,4.8,6.94,9.07,13.91,12.07Z"/>
            <g>
              <path class="cls-17" d="m137.32,205.21c17.45-12.77-11.44-23.29-24.56-16.09-20.27,9.87,6.43,26.47,24.56,16.09Z"/>
              <path class="cls-14" d="m135.4,201.28c16.57-12.05-18.23-19.49-25.41-8.61-5.32,8.4,13.29,14.62,25.41,8.61Z"/>
            </g>
            <path class="cls-10" d="m93.02,210.91c-4.27-1.44-5.73.55-9.19,1.86-1.53.58-3.26.8-3.8,3.38-.9,5.05,1.96,9.26,8.9,8.53,2.47-.29,5.7-1.65,11.01-2.15,2.29,0,4.15-.94,5.16-3.06,1.89-3.95-2.95-9.9-6.53-8.53-1.92.59-4.91.48-5.55-.02Z"/>
            <path class="cls-20" d="m120.57,250.05c48.41-21.59,20.7-29.47,42.65-48.6,10.8-7.45,5.79-16.94-2.81-23.14-19.22-14.49-52.81-8.44-73.5,3.82-46.16,25.56-17.56,88.61,33.67,67.92Z"/>
            <g>
              <path class="cls-10" d="m89.13,182.18c-3.72-.14-9.28,1.68-12.25,3.91-8.17-25.63-16.36-51.28-24.54-76.91-1.06-1.53,2.92-2.21,6.68-3.51,1.82-.24,5.03-2.07,5.56-.38,8.19,25.63,16.38,51.27,24.55,76.89Z"/>
              <g>
                <g>
                  <path class="cls-10" d="m94.91,214.03c-.39.54-3.84,1.62-4.27,1.33.63-.58,3.67-1.58,4.27-1.33Z"/>
                  <polygon class="cls-8" points="90.63 215.36 90.65 215.39 90.63 215.38 90.63 215.36"/>
                  <path class="cls-10" d="m87.76,181.43c.8-.12,1.32.57,1.37.74,1.91,10.63,3.86,21.23,5.77,31.86-.6-.25-3.64.75-4.27,1.33-4.59-9.77-9.15-19.51-13.74-29.28,2.77-2.48,7.22-3.76,10.87-4.65Z"/>
                  <path class="cls-8" d="m84.96,182.71c.52-.12,1.01-.25,1.46-.35-.46.09-.96.22-1.46.35Z"/>
                  <path class="cls-17" d="m66.83,102.25c.44,1.36-.96,2.35-2.24,3.04-.51-1.32-12.85,2.25-12.24,3.88-3.37,1.21-5.64-3.22-2.41-4.83,3.06-1.21,15.92-7.83,16.9-2.09Z"/>
                  <path class="cls-7" d="m83.99,166.08c-3.74-.17-9.23,1.65-12.27,3.82-6.52-20.43-13.05-40.88-19.57-61.3-.34-.59,3.43-1.97,6.87-2.93,1.95-.46,3.93-1.3,5.38-.98,6.55,20.48,13.06,40.92,19.59,61.39Z"/>
                  <path class="cls-14" d="m51.04,60.09c4.26,13.27,8.49,26.55,12.72,39.84-4.28.57-10.21,2.46-13.82,4.41-4.23-13.28-8.46-26.57-12.72-39.84-.58-1.88.09-4,2.65-5.28,3.24-1.53,9.74-3.81,11.17.87Z"/>
                </g>
                <path class="cls-21" d="m87.44,182.16c-6.39-20.17-17.78-56.26-24.48-77.46-1.01.16-2.45.51-3.94.96,10.52,33.58,24.27,75.57,33.6,108.79l1.3-.37-6.49-31.92Z"/>
              </g>
            </g>
          </g>
          <path class="cls-6" d="m42.03,89.43c-.02,2.24-1.94,5.29-4.3,6.36-4.62,2.09-3.96-3.98-1.81-6.11,1.36-2.2,6.11-4.11,6.11-.25Z"/>
          <path class="cls-5" d="m54.62,94.23c-1.21,3.03-7.41-1.68-7.76.49,0,0,.13.42.13.42l2.49,7.81c-7.91-1.7-10.89-5.58-14.83-11.04,1.27-3.16,3.74-5.54,7.25-3.46v.04c3.72,1.64,11.29,3.7,12.73,5.73Z"/>
          <path class="cls-13" d="m57.77,73.76c-5.94,10.67-9.25-1.75-4.42-6.32l-1.17-3.66s5.23,3.48,5.6,9.98Z"/>
        </g>
        <g>
          <g>
            <path class="cls-19" d="m219.5,226.15c9.9,5.72,9.9,14.99,0,20.71-9.9,5.72-25.96,5.72-35.86,0-9.9-5.72-9.9-14.99,0-20.71,9.9-5.72,25.96-5.72,35.86,0Z"/>
            <g>
              <path class="cls-16" d="m232.44,225.2v-1.47l-30.88-8.79v1.71h.02c1.02,4.56,15.34,7.92,18.94,10.68,4.03,3.22,11.71,3.19,11.92-2.13Z"/>
              <path class="cls-16" d="m194.99,248.19l-27.87-8.07v1.82h0c-.21,5.27,8.28,6.3,13.08,8.25,5.22,3.16,13.32,6.38,14.78-.49h0v-1.52Z"/>
              <path class="cls-13" d="m231.8,214.61s.58,6.33.66,9.11c-1.55,7.54-11.56,3.26-15.45-1.05-7.4-2.1-24.94-7.71-8.8-11.07,2.45.36,11.69,1.43,13.11.96,0,0,10.49,2.04,10.49,2.04Z"/>
              <path class="cls-6" d="m231.8,214.61s.58,6.33.66,9.11c-.46,5.07-7.95,5.07-11.93,1.89-4.6-3.12-30.75-10.41-12.32-14,1.5-.16,13.11.96,13.11.96l10.49,2.04Z"/>
              <g>
                <path class="cls-13" d="m232.63,74.74c0,3.19-2.59,4.28-5.78,2.44-5.5-2.18-9.4-15.7,0-11.55,3.19,1.84,5.78,5.92,5.78,9.11Z"/>
                <path class="cls-13" d="m232.63,74.74s2.39,29.74,2.61,34.19c.22,4.45-10.98,22.47-10.98,22.47l-6.64-.49,7.04-23.37-3.57-39.08,11.54,6.29Z"/>
              </g>
              <g>
                <path class="cls-7" d="m232.63,74.74c0,3.19-2.59,4.28-5.78,2.44-5.5-2.18-9.4-15.7,0-11.55,3.19,1.84,5.78,5.92,5.78,9.11Z"/>
                <path class="cls-7" d="m232.63,74.74s2.39,29.74,2.61,34.19c.22,4.45-10.98,22.47-10.98,22.47l-6.64-.49,7.04-23.37-3.57-39.08,11.54,6.29Z"/>
              </g>
              <path class="cls-13" d="m230.25,212.46c6.1,4.93-8.52,7.59-8.98,2.15.56-3.46,6.47-3.64,8.98-2.15Z"/>
              <path class="cls-13" d="m231.8,214.61s1.03-12.57,1.79-18.96c.76-6.39-.46-13.69-3.5-23.43-3.04-9.74-.68-31.41-.68-31.41l-22.17.91c-1.51,13.54-.78,26.14,8.25,39.19,1.22,3.64,6.27,17.22,5.8,33.71h10.52Z"/>
              <path class="cls-17" d="m234.12,210.48s.54-14.89,0-21.91c-.49-6.42-.99-6.61-4.03-16.35-3.04-9.74-.68-31.41-.68-31.41l-22.17.91c-4.2,38.16,13.34,27.02,11.56,69.14l15.32-.38Z"/>
              <path class="cls-5" d="m194.21,239.54s.71,5.67.78,8.46c-1.46,6.86-9.55,3.65-14.77.49-6.27-1.84-18.82-5.63-10.43-11.98,6.14-.37,21.08,2.79,24.43,3.04Z"/>
              <path class="cls-6" d="m194.21,239.54s.71,5.67.78,8.46c-1.46,6.86-9.55,3.65-14.77.49-4.05-1.53-11.7-3.11-12.74-6.37-1.05-2.54.44-5.99,1.91-6.33,2.61-.59,12.46.94,14.31,1.13,4.17.41,10.52,2.63,10.52,2.63Z"/>
              <path class="cls-5" d="m192.67,237.4c6.1,4.93-8.52,7.59-8.98,2.15.56-3.46,6.47-3.64,8.98-2.15Z"/>
              <ellipse class="cls-5" cx="208.77" cy="133.89" rx="20.23" ry="11.68"/>
              <path class="cls-5" d="m229,133.88c3.91,19.98-12.74,14.39-21.39,25.05,0,0-1.88,9.7-7.24,25.99,0,0-1.79,5.96-1.19,10.53.6,4.57.99,17.49-1.59,26.13-2.58,8.64-3.38,14.4-3.38,17.97h-10.53c.42-2.87-1.19-47.06-.8-56.46-5.23-19.18.67-35.77,5.66-49.68l40.45.47Z"/>
              <path class="cls-14" d="m227.98,147.3c-3.6,4.38-7.56,3.75-11.95,6.18-3.89,2.13-7.01,5.11-7.72,5.82-.32,1.57-2.35,11.06-7.22,25.85-.02.04-1.73,5.84-1.16,10.19.6,4.59,1.02,17.62-1.62,26.45-1.58,5.28-1.22,9.66-1.67,12.72l-15.37-.1c.72-15.13.91-37.62.87-51.26-.76-7.36-3.33-14.9-1.98-23.19,2.93-15.45,8.58-25.35,8.39-34.98l39.82,2.19c.71,6.42,4.38,11.15-.38,20.14Z"/>
              <path class="cls-5" d="m188.55,128.1l40.45.47c-1.25-9.51-3.1-15.17-6.39-24.1-2.59-6.62,5.15-22.23,4.73-21.75,0,0,1.8-11.49.38-15.08-4.84-8.8-19.79,5.1-27.16,7.88-12.28,7.5-18.53,15.6-10.77,24.05,4.04,5.43-1.02,27.64-1.23,28.52Z"/>
              <g>
                <path class="cls-5" d="m200.55,75.53c-.42-.56,16.2-3.84,15.76-7.66,0,0-1.84-2.66-2.09-6.13-.25-3.46-12.6,2.04-12.6,2.04,0,0,1.75,10.25-1.06,11.74Z"/>
                <path class="cls-5" d="m194.01,44.1c-3.17,7.5-1.04,26.73,11.59,25.75l6.32-7.83,3.98-12.53-5.41-4.7c-1.84-.78-7.12-2.97-8.64-4.2h-5.09l-2.76,3.51Z"/>
              </g>
              <path class="cls-15" d="m178.87,242.13c-1.35-3.22,4.4-6.97,4.23-5.76-.05,1.07-3.12,1.01-3.86,5.44-.03.19-.19.32-.37.32Z"/>
              <path class="cls-15" d="m175.45,241.5c-1.36-3.1,4.27-6.8,4.11-5.6-.05,1.07-3.02.97-3.74,5.28-.03.19-.19.32-.37.32Z"/>
              <path class="cls-15" d="m172.41,240.6c-1.39-2.71,3.85-6.25,3.71-5.06-.04,1.05-2.68.85-3.34,4.74-.03.19-.19.32-.37.32Z"/>
              <path class="cls-15" d="m216.6,217.79c-1.31-3.06,4.97-6.71,4.63-5.42-.13,1.06-3.19.77-4.26,5.13-.04.17-.2.29-.37.29Z"/>
              <path class="cls-15" d="m213.01,217.19c-1.35-2.88,4.83-6.58,4.5-5.26-.13,1.06-3.08.74-4.13,4.97-.04.17-.2.29-.37.29Z"/>
              <path class="cls-15" d="m209.79,216.24c-.24,0-.43-.23-.37-.47.75-3.8,5.32-5.61,4.18-3.82-.11.03-2.69.86-3.44,4-.04.17-.2.29-.37.29Z"/>
              <g>
                <path class="cls-9" d="m195.44,236.06c1.52,6.94-6.14,8.42-11.08,5.93-2.37-.94-1.89-3.97-1.9-5.93,3.06.3,6.55-1.06,9.54,0,0,0,3.44,0,3.44,0Z"/>
                <path class="cls-14" d="m194.39,231.23c7.68,5.85-6.7,9.77-10.87,6.28-7.68-5.85,6.7-9.77,10.87-6.28Z"/>
                <path class="cls-14" d="m194.76,237.73c-2.71,3.31-13.62,2.91-11.96-2.88,2.32-4.21,15.11-3.18,11.96,2.88Z"/>
                <path class="cls-14" d="m196.64,234.51c-.1,1.63-2.07,4.17-2.51,2.85l-4.49-.38c-1.99.58-7.5,3.04-8.31-2.09,3.34-.08,11.93-.3,15.32-.38Z"/>
              </g>
              <g>
                <path class="cls-9" d="m232.92,212.03c1.52,6.94-6.14,8.42-11.08,5.93-2.37-.94-1.89-3.97-1.9-5.93,3.06.3,6.55-1.06,9.54,0,0,0,3.44,0,3.44,0Z"/>
                <path class="cls-17" d="m231.87,207.2c3,1.73,3,4.54,0,6.28-4.17,3.49-18.55-.42-10.87-6.28,3-1.73,7.87-1.73,10.87,0Z"/>
                <path class="cls-17" d="m231.02,209.38c6.48,4.94-5.65,8.24-9.17,5.3-6.48-4.94,5.65-8.24,9.17-5.3Z"/>
                <path class="cls-17" d="m231.61,213.33c.34,1.3,2.34-1,2.51-2.85l-15.32.38c.82,5.02,5.99,2.8,8.31,2.09,0,0,4.5.38,4.5.38Z"/>
              </g>
              <path class="cls-5" d="m203.34,91.68c0,3.19-2.59,4.28-5.78,2.44-5.5-2.18-9.4-15.7,0-11.55,3.19,1.84,5.78,5.92,5.78,9.11Z"/>
            </g>
            <path class="cls-6" d="m234.45,167.59c.02-15.5-5.87-49.21-11.3-67.19,1.2-11.95,7.82-21.89,4.76-32.99-5.04-8.65-20.17,5.3-27.62,8.13-12.28,7.5-18.53,15.6-10.77,24.05,4.04,5.43-1.79,25.73-2,26.61h0c-2.24,5.69-9.15,24.11-8.66,48.57h.11c4.71,21.63,56.16,13.95,55.48-7.18Z"/>
            <path class="cls-3" d="m193.8,39.75c-4.69,5.86-2.23,13.03,1.98,18.78,15.07-6.93-11.06,27.87,8.73,25.21,11.74-3.96,23.56-3.91,20.43-17.79-4.89-11.64,1.17-27.13-18.45-30.15-9.72,0-12.69,3.96-12.69,3.96Z"/>
            <path class="cls-3" d="m218.36,42.18c3.04,4.34,4.75,9.62,5.25,14.89,1.81,4.87,4.32,10.16,1.43,15.21,2.72-5.2-.02-10.26-1.95-15.09-.72-5.32-2.45-10.13-5.69-14.5l.96-.52Z"/>
            <path class="cls-3" d="m199.87,55.62c5.85,9.22-8.19,16.99-4.39,25.74-4.27-8.28,9.14-16.52,3.52-25.08l.87-.66Z"/>
          </g>
          <g>
            <polygon class="cls-18" points="184.39 95.82 169.76 104.46 165.88 76.19 180.51 67.54 184.39 95.82"/>
            <polygon class="cls-6" points="167.14 76.8 179.58 69.45 183.13 95.2 170.68 102.56 167.14 76.8"/>
            <path class="cls-5" d="m167.33,86.77c-2.62,1.64-4.42,7.19-3.46,12.24.68,1.53,6.01,5.15,7.83,7.46,2.7-1.5,2.25-4.61,1.47-7.29.54-1.95.34-7.38-.11-8.08-1.39-1.61-2.54,4.74-4.72,2.65-.18-1.24-.87-5.84-1.01-6.99Z"/>
            <path class="cls-7" d="m203.87,91.58c-1.26,9.23-13.44-1.73-12.42-6.84,0-3.42,2.82-4.89,6.24-2.92,3.42,1.97,6.19,6.34,6.19,9.76Z"/>
            <path class="cls-7" d="m187.55,122.48c4.13-.63,15.92-29.07,15.92-29.07l-11.72-10.43-6.21,23.63-10.3-8.65-7.24,7.83s15.42,17.32,19.55,16.69Z"/>
            <path class="cls-7" d="m175.55,99.34c0,2.24-1.82,5.11-4.06,6.4-6.6,2.92-3.86-6.59,0-8.12,2.24-1.29,4.06-.53,4.06,1.71Z"/>
          </g>
        </g>
      </g>
    </g>
  </g>
</svg>