<?xml version="1.0" encoding="UTF-8"?>
<svg id="_レイヤー_2" data-name="レイヤー 2" xmlns="http://www.w3.org/2000/svg" viewBox="0 0 386.5 307.54">
  <defs>
    <style>
      .cls-1 {
        font-size: 8.42px;
      }

      .cls-1, .cls-2, .cls-3 {
        fill: #231815;
      }

      .cls-1, .cls-3 {
        font-family: DNPShueiGoGinStd-B-83pv-RKSJ-H, 'DNP ShueiGoGinStd';
      }

      .cls-2 {
        font-family: DNPShueiGoGinStd-M-83pv-RKSJ-H, 'DNP ShueiGoGinStd';
        font-size: 11.22px;
      }

      .cls-4 {
        fill: #036eb7;
      }

      .cls-4, .cls-5, .cls-6, .cls-7, .cls-8, .cls-9, .cls-10, .cls-11, .cls-12 {
        stroke-miterlimit: 10;
      }

      .cls-4, .cls-5, .cls-8 {
        stroke: #231815;
      }

      .cls-4, .cls-6, .cls-7, .cls-8, .cls-9, .cls-10, .cls-11, .cls-12 {
        stroke-width: .66px;
      }

      .cls-5 {
        stroke-width: .44px;
      }

      .cls-5, .cls-6, .cls-7, .cls-8, .cls-9, .cls-10, .cls-11, .cls-12 {
        fill: none;
      }

      .cls-3 {
        font-size: 9.82px;
      }

      .cls-6 {
        stroke: #fff000;
      }

      .cls-7 {
        stroke: #e73828;
      }

      .cls-9 {
        stroke: #00a199;
      }

      .cls-10 {
        stroke: #036eb7;
      }

      .cls-11 {
        stroke: #5f1985;
      }

      .cls-12 {
        stroke: #a38a77;
      }
    </style>
  </defs>
  <g id="pc">
    <g>
      <polyline class="cls-5" points="34.42 5.34 34.42 275.55 314.48 275.55"/>
      <g>
        <line class="cls-8" x1="26.21" y1="275.55" x2="34.17" y2="275.55"/>
        <line class="cls-8" x1="26.21" y1="208" x2="34.17" y2="208"/>
        <line class="cls-8" x1="26.21" y1="140.45" x2="34.17" y2="140.45"/>
        <line class="cls-8" x1="26.21" y1="72.89" x2="34.17" y2="72.89"/>
        <line class="cls-8" x1="26.21" y1="5.34" x2="34.17" y2="5.34"/>
      </g>
      <g>
        <line class="cls-8" x1="304.64" y1="275.55" x2="304.64" y2="267.59"/>
        <line class="cls-8" x1="237.08" y1="275.55" x2="237.08" y2="267.59"/>
        <line class="cls-8" x1="169.53" y1="275.55" x2="169.53" y2="267.59"/>
        <line class="cls-8" x1="101.97" y1="275.55" x2="101.97" y2="267.59"/>
        <line class="cls-8" x1="34.42" y1="275.55" x2="34.42" y2="267.59"/>
      </g>
      <text class="cls-2" transform="translate(10.75 9.88)"><tspan x="0" y="0">10</tspan><tspan x="7.14" y="67.66">5</tspan><tspan x="7.14" y="135.32">0</tspan><tspan x="1.59" y="202.98">-5</tspan><tspan x="-5.54" y="270.64">-10</tspan></text>
      <text class="cls-2" transform="translate(34.95 288.7)"><tspan x="0" y="0">-10　　　　-5　　　　　0　　　　　5　　　　　10</tspan></text>
      <circle class="cls-6" cx="252.47" cy="155.48" r="1.4"/>
      <circle class="cls-6" cx="277.63" cy="163.2" r="1.4"/>
      <circle class="cls-6" cx="289.34" cy="184.79" r="1.4"/>
      <circle class="cls-7" cx="53.07" cy="79.34" r="1.4"/>
      <circle class="cls-7" cx="66.73" cy="81.53" r="1.4"/>
      <circle class="cls-7" cx="54.44" cy="88.27" r="1.4"/>
      <circle class="cls-7" cx="48.71" cy="103.12" r="1.4"/>
      <circle class="cls-7" cx="73.5" cy="104.53" r="1.4"/>
      <circle class="cls-7" cx="60.38" cy="96.2" r="1.4"/>
      <circle class="cls-7" cx="66.15" cy="91.44" r="1.4"/>
      <circle class="cls-10" cx="191.6" cy="148.93" r="1.4"/>
      <circle class="cls-10" cx="199.93" cy="133.86" r="1.4"/>
      <circle class="cls-10" cx="198.08" cy="124.88" r="1.4"/>
      <circle class="cls-10" cx="187.46" cy="118.58" r="1.4"/>
      <circle class="cls-12" cx="176.09" cy="122.95" r="1.4"/>
      <circle class="cls-12" cx="171.73" cy="130.61" r="1.4"/>
      <circle class="cls-12" cx="168.69" cy="133.91" r="1.4"/>
      <circle class="cls-12" cx="178.47" cy="146.07" r="1.4"/>
      <circle class="cls-12" cx="153.5" cy="135.63" r="1.4"/>
      <circle class="cls-12" cx="149.74" cy="135.77" r="1.4"/>
      <circle class="cls-12" cx="154.96" cy="125.79" r="1.4"/>
      <circle class="cls-12" cx="144.84" cy="129.38" r="1.4"/>
      <circle class="cls-12" cx="128.28" cy="123.81" r="1.4"/>
      <circle class="cls-12" cx="139.57" cy="114.07" r="1.4"/>
      <circle class="cls-12" cx="143.13" cy="114.61" r="1.4"/>
      <circle class="cls-12" cx="144.63" cy="113.04" r="1.4"/>
      <circle class="cls-12" cx="146.45" cy="113.04" r="1.4"/>
      <circle class="cls-12" cx="147.86" cy="110.36" r="1.4"/>
      <circle class="cls-12" cx="143.87" cy="110.47" r="1.4"/>
      <circle class="cls-12" cx="146.6" cy="104.46" r="1.4"/>
      <circle class="cls-12" cx="137.08" cy="103.27" r="1.4"/>
      <circle class="cls-11" cx="88.72" cy="108.29" r="1.4"/>
      <circle class="cls-11" cx="62.97" cy="114.81" r="1.4"/>
      <circle class="cls-11" cx="60.62" cy="152.01" r="1.4"/>
      <circle class="cls-11" cx="67.87" cy="160.19" r="1.4"/>
      <circle class="cls-12" cx="155.98" cy="94.29" r="1.4"/>
      <circle class="cls-10" cx="196.82" cy="110.69" r="1.4"/>
      <circle class="cls-10" cx="200.62" cy="107.7" r="1.4"/>
      <circle class="cls-10" cx="201.96" cy="105.21" r="1.4"/>
      <circle class="cls-10" cx="204.61" cy="103.97" r="1.4"/>
      <circle class="cls-10" cx="218.51" cy="100.57" r="1.4"/>
      <circle class="cls-10" cx="217.58" cy="107.57" r="1.4"/>
      <circle class="cls-10" cx="220.94" cy="108.63" r="1.4"/>
      <circle class="cls-10" cx="221.94" cy="110.84" r="1.4"/>
      <circle class="cls-10" cx="224.21" cy="112.38" r="1.4"/>
      <circle class="cls-10" cx="225.53" cy="114.76" r="1.4"/>
      <circle class="cls-10" cx="225.42" cy="116.83" r="1.4"/>
      <circle class="cls-10" cx="223.06" cy="116.27" r="1.4"/>
      <circle class="cls-10" cx="224.14" cy="117.94" r="1.4"/>
      <circle class="cls-10" cx="224.29" cy="121.09" r="1.4"/>
      <circle class="cls-10" cx="230.38" cy="120.56" r="1.4"/>
      <circle class="cls-10" cx="238.95" cy="108.11" r="1.4"/>
      <circle class="cls-10" cx="244.71" cy="111.28" r="1.4"/>
      <circle class="cls-10" cx="234.31" cy="136.25" r="1.4"/>
      <circle class="cls-10" cx="221.36" cy="131.04" r="1.4"/>
      <circle class="cls-10" cx="220.71" cy="134.41" r="1.4"/>
      <circle class="cls-10" cx="213.84" cy="138.51" r="1.4"/>
      <circle class="cls-10" cx="211.02" cy="135.34" r="1.4"/>
      <circle class="cls-10" cx="210.14" cy="140.19" r="1.4"/>
      <circle class="cls-10" cx="213.14" cy="126.71" r="1.4"/>
      <circle class="cls-10" cx="221.62" cy="124.24" r="1.4"/>
      <circle class="cls-10" cx="219.73" cy="121.53" r="1.4"/>
      <circle class="cls-10" cx="218.39" cy="119.09" r="1.4"/>
      <circle class="cls-10" cx="216.75" cy="120.7" r="1.4"/>
      <circle class="cls-10" cx="215.59" cy="118.07" r="1.4"/>
      <circle class="cls-10" cx="214.26" cy="118.16" r="1.4"/>
      <circle class="cls-10" cx="214" cy="121.07" r="1.4"/>
      <circle class="cls-10" cx="212.31" cy="119.8" r="1.4"/>
      <circle class="cls-10" cx="209.98" cy="120.68" r="1.4"/>
      <circle class="cls-10" cx="207.48" cy="121.24" r="1.4"/>
      <circle class="cls-10" cx="209.35" cy="118.89" r="1.4"/>
      <circle class="cls-10" cx="210.74" cy="117.35" r="1.4"/>
      <circle class="cls-10" cx="208.95" cy="115.14" r="1.4"/>
      <circle class="cls-10" cx="205.86" cy="114.82" r="1.4"/>
      <circle class="cls-10" cx="209.66" cy="112.88" r="1.4"/>
      <circle class="cls-10" cx="210.67" cy="110.58" r="1.4"/>
      <circle class="cls-10" cx="222.43" cy="113" r="1.4"/>
      <circle class="cls-10" cx="220" cy="113.72" r="1.4"/>
      <circle class="cls-10" cx="217.68" cy="113.09" r="1.4"/>
      <circle class="cls-10" cx="220.54" cy="98.32" r="1.4"/>
      <circle class="cls-9" cx="119.01" cy="256.36" r="1.4"/>
      <circle class="cls-9" cx="136.28" cy="237.51" r="1.4"/>
      <circle class="cls-9" cx="146.86" cy="239.77" r="1.4"/>
      <circle class="cls-9" cx="145.98" cy="244" r="1.4"/>
      <circle class="cls-9" cx="152.44" cy="251.14" r="1.4"/>
      <circle class="cls-9" cx="158.7" cy="220.53" r="1.4"/>
      <circle class="cls-9" cx="165.22" cy="222.23" r="1.4"/>
      <circle class="cls-9" cx="133.26" cy="231.26" r="1.4"/>
      <circle class="cls-9" cx="130.43" cy="221.24" r="1.4"/>
      <g>
        <line class="cls-8" x1="80.42" y1="250.62" x2="83.79" y2="253.98"/>
        <line class="cls-8" x1="80.42" y1="253.98" x2="83.79" y2="250.62"/>
      </g>
      <g>
        <line class="cls-8" x1="87.95" y1="243.88" x2="91.32" y2="247.24"/>
        <line class="cls-8" x1="87.95" y1="247.24" x2="91.32" y2="243.88"/>
      </g>
      <g>
        <line class="cls-8" x1="109.36" y1="232.78" x2="112.73" y2="236.14"/>
        <line class="cls-8" x1="109.36" y1="236.14" x2="112.73" y2="232.78"/>
      </g>
      <g>
        <line class="cls-8" x1="114.51" y1="228.02" x2="117.88" y2="231.39"/>
        <line class="cls-8" x1="114.51" y1="231.39" x2="117.88" y2="228.02"/>
      </g>
      <g>
        <line class="cls-8" x1="109.56" y1="219.89" x2="112.93" y2="223.25"/>
        <line class="cls-8" x1="109.56" y1="223.25" x2="112.93" y2="219.89"/>
      </g>
      <rect class="cls-4" x="67.47" y="130.17" width="6.37" height="6.37"/>
      <rect class="cls-4" x="140.14" y="232.56" width="6.37" height="6.37"/>
      <rect class="cls-4" x="149.4" y="117.48" width="6.37" height="6.37"/>
      <rect class="cls-4" x="211.76" y="116.28" width="6.37" height="6.37"/>
      <rect class="cls-4" x="270.17" y="164.64" width="6.37" height="6.37"/>
      <rect class="cls-4" x="56.89" y="88.79" width="6.37" height="6.37"/>
      <text class="cls-3" transform="translate(42.47 73.63)"><tspan x="0" y="0">SE Australia</tspan></text>
      <text class="cls-3" transform="translate(41.94 128.6)"><tspan x="0" y="0">McClaren Vale</tspan></text>
      <text class="cls-3" transform="translate(124.92 232.2)"><tspan x="0" y="0">Barossa Valley</tspan></text>
      <text class="cls-3" transform="translate(151.35 304.62)"><tspan x="0" y="0">Function 1</tspan></text>
      <text class="cls-3" transform="translate(8.64 164.11) rotate(-90)"><tspan x="0" y="0">Function 2</tspan></text>
      <text class="cls-3" transform="translate(128.62 109.57)"><tspan x="0" y="0">Coonawarra</tspan></text>
      <text class="cls-3" transform="translate(245.97 155.56)"><tspan x="0" y="0">Pemberton</tspan></text>
      <text class="cls-3" transform="translate(183.6 132.83)"><tspan x="0" y="0">Margaret River</tspan></text>
    </g>
    <g>
      <circle class="cls-10" cx="272.99" cy="26.45" r="2.8"/>
      <circle class="cls-9" cx="272.99" cy="37.45" r="2.8"/>
      <circle class="cls-12" cx="272.99" cy="48.46" r="2.8"/>
      <circle class="cls-11" cx="272.99" cy="59.46" r="2.8"/>
      <circle class="cls-6" cx="272.99" cy="70.77" r="2.8"/>
      <circle class="cls-7" cx="272.99" cy="82.08" r="2.8"/>
      <g>
        <line class="cls-8" x1="270.19" y1="91.77" x2="275.8" y2="97.38"/>
        <line class="cls-8" x1="270.19" y1="97.38" x2="275.8" y2="91.77"/>
      </g>
      <rect class="cls-4" x="269.92" y="101.79" width="5.61" height="5.61"/>
      <text class="cls-3" transform="translate(270.79 14.53)"><tspan x="0" y="0">Aust.Region</tspan></text>
      <text class="cls-1" transform="translate(278.34 29.36)"><tspan x="0" y="0">Margaret River</tspan><tspan x="0" y="11.22">Barossa Valley</tspan><tspan x="0" y="22.45">Coonawarra</tspan><tspan x="0" y="33.67">McClaren Vale</tspan><tspan x="0" y="44.9">Pemberton</tspan><tspan x="0" y="56.12">SE Australia</tspan><tspan x="0" y="67.35">85% Adulteration(BULK A)</tspan><tspan x="0" y="78.57">Group Centroid</tspan></text>
    </g>
  </g>
</svg>