<?xml version="1.0" encoding="UTF-8"?>
<svg xmlns="http://www.w3.org/2000/svg" xmlns:xlink="http://www.w3.org/1999/xlink" viewBox="0 0 332.82 327.37">
  <defs>
    <style>
      .cls-1 {
        opacity: .1;
      }

      .cls-1, .cls-2 {
        fill: #1c1c1b;
      }

      .cls-3 {
        fill: url(#linear-gradient);
      }

      .cls-4 {
        fill: none;
        isolation: isolate;
      }

      .cls-5 {
        fill: #68604e;
      }

      .cls-6 {
        fill: #f1cba4;
      }

      .cls-7 {
        fill: #f3d5aa;
      }

      .cls-8 {
        fill: #eec89a;
      }

      .cls-9 {
        fill: #e9ab40;
      }

      .cls-10 {
        fill: #fff;
      }

      .cls-11 {
        fill: #ececeb;
      }

      .cls-12 {
        fill: #6b6453;
      }

      .cls-13 {
        fill: #9c9c9b;
      }

      .cls-14 {
        fill: #857d6c;
      }

      .cls-15 {
        fill: #bcc8da;
      }

      .cls-16 {
        fill: #bc9870;
      }

      .cls-17 {
        fill: #c4b8a0;
      }

      .cls-18 {
        fill: #dd9238;
      }

      .cls-19 {
        fill: #d9b38a;
      }

      .cls-20 {
        fill: #d9d9d9;
      }

      .cls-21 {
        fill: #c5c5c5;
      }

      .cls-22 {
        fill: #21556a;
      }

      .cls-23 {
        fill: #211e1f;
      }

      .cls-24 {
        fill: #232322;
      }

      .cls-25 {
        fill: #4080a8;
      }

      .cls-26 {
        fill: #1c160d;
      }

      .cls-27 {
        fill: #356c8e;
      }

      .cls-28 {
        fill: #3d6e90;
      }

      .cls-29 {
        fill: #3e2a1a;
      }

      .cls-30 {
        fill: #1c3c5b;
      }

      .cls-31 {
        fill: #a38260;
      }

      .cls-32 {
        fill: #706f6f;
      }

      .cls-33 {
        fill: #968c7b;
      }

      .cls-34 {
        fill: #959eac;
      }

      .cls-35 {
        fill: #968870;
      }

      .cls-36 {
        fill: #459792;
      }

      .cls-37 {
        fill: #868686;
      }

      .cls-38 {
        fill: #88909e;
      }

      .cls-39 {
        fill: #2b2b2b;
      }

      .cls-40 {
        fill: #565756;
      }

      .cls-41 {
        fill: #2e5874;
      }

      .cls-42 {
        fill: #3b3c3b;
      }

      .cls-43 {
        fill: #2f302f;
      }

      .cls-44 {
        fill: #603e22;
      }

      .cls-45 {
        fill: #467fa5;
      }

      .cls-46 {
        fill: #776f5f;
      }

      .cls-47 {
        fill: #7c7362;
      }

      .cls-48 {
        fill: #757b86;
      }

      .cls-49 {
        fill: #b3a69f;
        mix-blend-mode: multiply;
      }

      .cls-50 {
        fill: url(#linear-gradient-8);
      }

      .cls-51 {
        fill: url(#linear-gradient-9);
      }

      .cls-52 {
        fill: url(#linear-gradient-3);
      }

      .cls-53 {
        fill: url(#linear-gradient-4);
      }

      .cls-54 {
        fill: url(#linear-gradient-2);
      }

      .cls-55 {
        fill: url(#linear-gradient-6);
      }

      .cls-56 {
        fill: url(#linear-gradient-7);
      }

      .cls-57 {
        fill: url(#linear-gradient-5);
      }

      .cls-58 {
        fill: url(#linear-gradient-14);
      }

      .cls-59 {
        fill: url(#linear-gradient-18);
      }

      .cls-60 {
        fill: url(#linear-gradient-22);
      }

      .cls-61 {
        fill: url(#linear-gradient-20);
      }

      .cls-62 {
        fill: url(#linear-gradient-21);
      }

      .cls-63 {
        fill: url(#linear-gradient-23);
      }

      .cls-64 {
        fill: url(#linear-gradient-15);
      }

      .cls-65 {
        fill: url(#linear-gradient-19);
      }

      .cls-66 {
        fill: url(#linear-gradient-16);
      }

      .cls-67 {
        fill: url(#linear-gradient-17);
      }

      .cls-68 {
        fill: url(#linear-gradient-13);
      }

      .cls-69 {
        fill: url(#linear-gradient-12);
      }

      .cls-70 {
        fill: url(#linear-gradient-10);
      }

      .cls-71 {
        fill: url(#linear-gradient-11);
      }

      .cls-72 {
        fill: url(#linear-gradient-27);
      }

      .cls-73 {
        fill: url(#linear-gradient-24);
      }

      .cls-74 {
        fill: url(#linear-gradient-26);
      }

      .cls-75 {
        fill: url(#linear-gradient-25);
      }

      .cls-76 {
        fill: url(#linear-gradient-28);
      }

      .cls-77 {
        fill: url(#linear-gradient-29);
      }

      .cls-2 {
        opacity: .3;
      }
    </style>
    <linearGradient id="linear-gradient" x1="656.01" y1="367.08" x2="679.3" y2="367.08" gradientTransform="translate(1058.07 -98) rotate(-160.72) scale(1 -1)" gradientUnits="userSpaceOnUse">
      <stop offset="0" stop-color="#211e1f"/>
      <stop offset=".09" stop-color="#211e1f"/>
      <stop offset="1" stop-color="#211e1f"/>
    </linearGradient>
    <linearGradient id="linear-gradient-2" x1="5982.68" y1="132.74" x2="5975.83" y2="120.88" gradientTransform="translate(-5840.99)" gradientUnits="userSpaceOnUse">
      <stop offset=".05" stop-color="#595e67"/>
      <stop offset=".11" stop-color="#60656e"/>
      <stop offset=".21" stop-color="#737984"/>
      <stop offset=".21" stop-color="#757b86"/>
      <stop offset=".27" stop-color="#79808b"/>
      <stop offset=".34" stop-color="#878e9c"/>
      <stop offset=".43" stop-color="#9ea7b7"/>
      <stop offset=".45" stop-color="#a7b0c1"/>
      <stop offset=".78" stop-color="#9da6b6"/>
      <stop offset=".87" stop-color="#828b98"/>
    </linearGradient>
    <linearGradient id="linear-gradient-3" x1="5983.85" y1="132.06" x2="5977" y2="120.2" gradientTransform="translate(-5840.99)" gradientUnits="userSpaceOnUse">
      <stop offset=".05" stop-color="#886e3a"/>
      <stop offset=".11" stop-color="#8f743d"/>
      <stop offset=".21" stop-color="#a58547"/>
      <stop offset=".21" stop-color="#a68648"/>
      <stop offset=".27" stop-color="#ab8a4a"/>
      <stop offset=".35" stop-color="#bc9751"/>
      <stop offset=".44" stop-color="#d7ad5d"/>
      <stop offset=".45" stop-color="#ddb260"/>
      <stop offset=".78" stop-color="#d4ab5d"/>
      <stop offset=".87" stop-color="#b6914f"/>
    </linearGradient>
    <linearGradient id="linear-gradient-4" x1="5992.42" y1="138.36" x2="5985.57" y2="126.5" xlink:href="#linear-gradient-2"/>
    <linearGradient id="linear-gradient-5" x1="5993.59" y1="137.69" x2="5986.74" y2="125.83" xlink:href="#linear-gradient-3"/>
    <linearGradient id="linear-gradient-6" x1="6002.16" y1="143.99" x2="5995.31" y2="132.13" xlink:href="#linear-gradient-2"/>
    <linearGradient id="linear-gradient-7" x1="6003.33" y1="143.31" x2="5996.48" y2="131.45" xlink:href="#linear-gradient-3"/>
    <linearGradient id="linear-gradient-8" x1="6011.9" y1="149.61" x2="6005.05" y2="137.75" xlink:href="#linear-gradient-2"/>
    <linearGradient id="linear-gradient-9" x1="6013.07" y1="148.94" x2="6006.22" y2="137.08" xlink:href="#linear-gradient-3"/>
    <linearGradient id="linear-gradient-10" x1="6021.64" y1="155.24" x2="6014.79" y2="143.38" xlink:href="#linear-gradient-2"/>
    <linearGradient id="linear-gradient-11" x1="6022.81" y1="154.56" x2="6015.96" y2="142.7" xlink:href="#linear-gradient-3"/>
    <linearGradient id="linear-gradient-12" x1="6031.38" y1="160.86" x2="6024.53" y2="149" xlink:href="#linear-gradient-2"/>
    <linearGradient id="linear-gradient-13" x1="6032.55" y1="160.18" x2="6025.7" y2="148.32" xlink:href="#linear-gradient-3"/>
    <linearGradient id="linear-gradient-14" x1="6041.12" y1="166.48" x2="6034.27" y2="154.62" xlink:href="#linear-gradient-2"/>
    <linearGradient id="linear-gradient-15" x1="6042.29" y1="165.81" x2="6035.44" y2="153.95" xlink:href="#linear-gradient-3"/>
    <linearGradient id="linear-gradient-16" x1="6050.86" y1="172.11" x2="6044.01" y2="160.25" xlink:href="#linear-gradient-2"/>
    <linearGradient id="linear-gradient-17" x1="6052.03" y1="171.43" x2="6045.18" y2="159.57" xlink:href="#linear-gradient-3"/>
    <linearGradient id="linear-gradient-18" x1="6060.6" y1="177.73" x2="6053.75" y2="165.87" xlink:href="#linear-gradient-2"/>
    <linearGradient id="linear-gradient-19" x1="6061.77" y1="177.06" x2="6054.93" y2="165.2" xlink:href="#linear-gradient-3"/>
    <linearGradient id="linear-gradient-20" x1="6070.34" y1="183.36" x2="6063.5" y2="171.5" xlink:href="#linear-gradient-2"/>
    <linearGradient id="linear-gradient-21" x1="6071.51" y1="182.68" x2="6064.67" y2="170.82" xlink:href="#linear-gradient-3"/>
    <linearGradient id="linear-gradient-22" x1="6080.08" y1="188.98" x2="6073.24" y2="177.12" xlink:href="#linear-gradient-2"/>
    <linearGradient id="linear-gradient-23" x1="6081.25" y1="188.3" x2="6074.41" y2="176.44" xlink:href="#linear-gradient-3"/>
    <linearGradient id="linear-gradient-24" x1="6089.82" y1="194.6" x2="6082.98" y2="182.74" xlink:href="#linear-gradient-2"/>
    <linearGradient id="linear-gradient-25" x1="6091" y1="193.93" x2="6084.15" y2="182.07" xlink:href="#linear-gradient-3"/>
    <linearGradient id="linear-gradient-26" x1="6099.57" y1="200.23" x2="6092.72" y2="188.37" xlink:href="#linear-gradient-2"/>
    <linearGradient id="linear-gradient-27" x1="6100.74" y1="199.55" x2="6093.89" y2="187.69" xlink:href="#linear-gradient-3"/>
    <linearGradient id="linear-gradient-28" x1="6109.31" y1="205.85" x2="6102.46" y2="193.99" xlink:href="#linear-gradient-2"/>
    <linearGradient id="linear-gradient-29" x1="6110.48" y1="205.18" x2="6103.63" y2="193.32" xlink:href="#linear-gradient-3"/>
  </defs>
  <g class="cls-4">
    <g id="_レイヤー_2" data-name="レイヤー 2">
      <g id="pc">
        <g>
          <g>
            <path class="cls-26" d="m297.47,185.19c2.24,3,5.19,11.46-3.53,13.82-2.41-.18-2.68,1.96-4.65,3.49-1.48,1.19-8.46,4.19-13.71.53-1.07-3.28,2.41-5.74,5.7-7.74,3.26-1.53,6.55-7.89,8.98-8.79,0,0,3.24-3.95,7.21-1.3Z"/>
            <path class="cls-26" d="m320.31,197.56c2.25,2.99,5.18,11.46-3.53,13.81-2.4-.18-2.68,1.97-4.65,3.5-1.48,1.18-8.46,4.18-13.71.52-1.05-3.37,2.37-5.69,5.7-7.74,3.25-1.53,6.55-7.89,8.98-8.8,0,0,3.24-3.94,7.22-1.3Z"/>
          </g>
          <path class="cls-30" d="m305.74,101.71c-1.77,13.21-4.26,31.76-6.08,45.07l-17.17-2.29c.39-2.84,5.93-43.51,6.15-45.14l.72.07,16.38,2.29Z"/>
          <path class="cls-30" d="m286.3,181.83c-3.33,1.92-3.33,5.04,0,6.96,4.63,3.87,20.56-.47,12.05-6.96-3.33-1.92-8.72-1.92-12.05,0Z"/>
          <path class="cls-30" d="m300.85,185.31c-.55-19.2,3.85-49.61-11.72-49.36-12.26,2.61-4.67,42.2-5.33,49.36.46,1.79,3.15-.62,4.89,0,0,0,12.15,0,12.15,0Z"/>
          <rect class="cls-30" x="302.21" y="110.62" width="17.28" height="45.52"/>
          <path class="cls-30" d="m309.53,195.19c-3.33,1.92-3.33,5.04,0,6.96,4.63,3.87,20.56-.47,12.05-6.96-3.33-1.92-8.72-1.92-12.05,0Z"/>
          <path class="cls-30" d="m324.07,198.67c-2.07-17.72-.65-42.21-8.69-46.9-4.72-3.77-12.34-2.04-13.18,4.37.51,3.42,2.56,46,7.2,44.65,0,0,14.67-2.12,14.67-2.12Z"/>
          <path class="cls-29" d="m319.26,117.38c-9.68,4.62-24.88-6.12-31.19-13.16-.25-.11.64-4.71.57-4.87l.72.07c7.81,6.93,17.89,14.03,28.83,12.23.36,1.93.72,3.79,1.07,5.72Z"/>
          <path class="cls-25" d="m300.04,60.7c-2.1,13.44-10.82,41.59-13.96,20,2.67-9.42-1.37-36.75,10.1-35.32,3.81.75,5.98,4.55,3.86,15.33Z"/>
          <path class="cls-25" d="m290.68,88.4c-9,4.33-19.64,3.13-24.49,5.31-1.18.53-3.2-5.07-.8-7.17,3.76-3.31,15.87-4.12,24.45-9.91.64,2.13,6.58,9.55.84,11.77Z"/>
          <path class="cls-25" d="m326.39,59.43s-1.91,43.1-1.91,43.1c0,6.38-4.57,11.19-10.08,12.31-5,1.6-11.2-2.86-15.43-5.25-5.51-2.68-11.31-6.75-11.04-13.59.88-11.31,1.46-27.29,2.69-38.53,5.11-20.49,28.02-10.08,35.77,1.95Z"/>
          <path class="cls-1" d="m298.96,109.59c9.17,6.38,17.83,8.31,24.21-1.08,1.09-5.39-1.59-8.78-.5-14.18-.14-9.62-3.53-19.62-4.52-29.27-.29-1.39-1.41,2.82-2.21,4.53-2.63,11.42-.05,39.87-16.97,40Z"/>
          <polygon class="cls-20" points="303.37 78.51 310.21 82.11 310.13 77.24 303.29 73.63 303.37 78.51"/>
          <path class="cls-25" d="m298.29,109.21l-3.24-1.86c-.68-10.49,2.41-32.83,4.24-53.68l3.69,1.36c-1.94,21.05-5.03,43.56-4.68,54.18Z"/>
          <path class="cls-13" d="m299.12,62.51c-.12.88,1.67,2.51,1.81.95.12-.88-1.67-2.51-1.81-.95Z"/>
          <path class="cls-13" d="m297.74,75.99c-.12.88,1.67,2.51,1.81.95.12-.88-1.67-2.51-1.81-.95Z"/>
          <path class="cls-30" d="m296.69,88.72c-.12.88,1.67,2.51,1.81.95.12-.88-1.67-2.51-1.81-.95Z"/>
          <path class="cls-30" d="m295.78,99.87c-.12.88,1.67,2.51,1.81.95.12-.88-1.67-2.51-1.81-.95Z"/>
          <polygon class="cls-24" points="298.96 58.48 301.23 59.65 302.73 54.96 298.97 53.66 298.96 58.48"/>
          <polygon class="cls-42" points="300.93 84.74 301.22 59.65 298.96 58.48 295.71 82.11 297.74 86.86 300.93 84.74"/>
          <path class="cls-27" d="m311.67,46.38c7.66,7.11-2.19,11.21-7.38,15.46-1.37-2.29-2.51-4.73-3.37-7.26-1.33,1.22-2.66,2.44-3.99,3.66-1.62-12.01,4.9-14.02,14.74-11.86Z"/>
          <path class="cls-7" d="m284.86,110.66c.5,6.89,4.2,6.34,7.78,1.84l-7.78-1.84Z"/>
          <path class="cls-8" d="m312.8,38.19c-.37,4.09-.25,7.94.57,12.52,0,2.76-3.01,3.95-4.54,4.74-1.39.72-7.12-1.21-6.8-3.16.27-1.59-.06-3.89.49-5.45.61-1.73,2.23-2.67,2.23-4.47l8.04-4.18Z"/>
          <path class="cls-7" d="m296.15,25.37c-.29,9.42-4.03,29.55,12.7,20.76,3.34-1.12,2.87-5.96,3.95-8.71,1.94-4.97.64-11.98-4.85-14.23-3.42-1.17-10.53-2.55-11.8,2.18h0Z"/>
          <path class="cls-3" d="m313.83,19.39c-3.86-5.11-25.67,1.68-14.97,8.64,4.95,3.2,11.7-2.31,11.81,4.27,1.34,2.11-.37,7.26.58,9.21,5.6-2.87,9.97-14.27,2.58-22.12Z"/>
          <path class="cls-7" d="m313.88,38.12c-1.53,4.28-4.79,2.88-3.62-1.16,1.91-3.85,5.58-3.48,3.62,1.16Z"/>
          <path class="cls-25" d="m331.43,71.66c1.99,15.29,3.87,44.46-9.77,24.96.31-9.98-10.17-36.64,1.13-38.2,3.84-.53,7.13,2.36,8.64,13.24Z"/>
          <path class="cls-25" d="m324.45,106.94c-8.8,4.73-26.16,10.82-27.73,7.74-6.97-9.38,15.6-11.39,24.94-18.07,8.08-3.57,15.39,4.88,2.79,10.32Z"/>
          <polygon class="cls-39" points="248.57 93.74 273.93 108.39 301.89 115.52 276.53 100.88 248.57 93.74"/>
          <polygon class="cls-10" points="254.64 95.81 277.53 108.11 298.77 114.08 276.25 101.16 254.64 95.81"/>
          <g>
            <path class="cls-7" d="m265.77,86.98c-2.94-2.66-2.84,1.84-4.59,3.31-.45.49,3.39,2.92,4.07,2.87,2.29-.78,3.55-4.12.51-6.18Z"/>
            <g>
              <path class="cls-8" d="m261.43,84.69c-6.05-1.31-8.41-.57-12.81,3.85.51,1.97,3.79-.74,4.9-1.08,2.9-.63,5.93,1.19,8.67-.66l-.76-2.12Z"/>
              <g>
                <path class="cls-8" d="m264.45,81.53l-16.44,9.51,16.44-9.51Z"/>
                <path class="cls-23" d="m249.23,92.87c-.53.09-.86-.66-.41-.99.84-.18,14.97-12.39,15.89-11.41,1.05.7-15.12,12.01-15.48,12.4Z"/>
              </g>
              <path class="cls-8" d="m265.82,91.04c.34.93-7.19-4.08-7.32-3.93l-5.09,1.13c-1.35.91-1.9,2.79.35,2.72-.88,1.21-.11,2.27,1.33,1.87-.8,1.89,1.52,1.59,2.56,1.08,1.57-.45,10.5.74,8.18-2.88Z"/>
              <path class="cls-7" d="m266.12,90.6c-.34.86-8.3-2.06-8.13-3.06,2.14-5.98,9.4-2.04,8.13,3.06Z"/>
              <path class="cls-7" d="m257.9,86.08c-.62.5-3.25.79-3.95.81-1.11.03-2.98,1.53-1.31,2.29,1.27.59,2.54-.24,3.75-.46,2.71-.22,3.7,4.67,7.96,2.98,3.74-.89,2.18-3.97-.81-4.44-1.95-.39-3.66-2.72-5.65-1.17Z"/>
            </g>
          </g>
          <path class="cls-7" d="m298.7,110.62c-1.56-1.35-7.48-2.9-8.65-1.94-.49.9-3.41.67-1.87,1.7,1.13,1.4,3.39-.92,3.86,1.26-.07,2.11-4.03,1.62-4.82,3.77-.46.67.61,1.77,1.89,1.36-1.27,1.02,1.61,1.92,2.2,1.05-.99,1.27,1.33,1.77,2.14.8,1.73,3.01,10.34-4.05,5.25-8h0Z"/>
        </g>
        <g>
          <polygon class="cls-42" points="144.34 120.59 144.34 183.89 211.58 145.35 211.58 82.09 144.34 120.59"/>
          <polygon class="cls-45" points="121.43 107.32 234.5 42.56 160.21 0 47.14 64.76 121.43 107.32"/>
          <polygon class="cls-34" points="302.39 230.28 160.05 148.1 160.05 101.75 302.39 183.93 302.39 230.28"/>
          <polygon class="cls-38" points="160.05 148.1 97.37 184.29 97.37 137.94 160.05 101.75 160.05 148.1"/>
          <polygon class="cls-34" points="302.39 183.93 239.71 220.12 97.37 137.94 160.05 101.75 302.39 183.93"/>
          <g>
            <g>
              <path class="cls-54" d="m172.76,112.5c.06-3.79-4.04-10.36-8.3-8.72h0s-62.68,36.19-62.68,36.19l6.88,11.84,62.68-36.19h0c.88-.5,1.42-1.58,1.42-3.12Z"/>
              <path class="cls-48" d="m110.08,148.69c-1.1,8.5-10.55-.85-9.71-5.61,0-3.08,2.17-4.32,4.86-2.77,2.68,1.55,4.86,5.3,4.86,8.38Z"/>
            </g>
            <path class="cls-52" d="m164.93,117.02c.06-3.79-4.04-10.36-8.3-8.72h0s-44.67,25.79-44.67,25.79h0c5.05-1.96,11.12,8.44,6.88,11.84h0s44.67-25.79,44.67-25.79h0c.88-.5,1.42-1.58,1.42-3.12Z"/>
          </g>
          <g>
            <g>
              <path class="cls-53" d="m182.5,118.12c.06-3.79-4.04-10.36-8.3-8.72h0s-62.68,36.19-62.68,36.19l6.88,11.84,62.68-36.19h0c.88-.5,1.42-1.58,1.42-3.12Z"/>
              <path class="cls-48" d="m119.82,154.32c-1.1,8.5-10.55-.85-9.71-5.61,0-3.08,2.17-4.32,4.86-2.77,2.68,1.55,4.86,5.3,4.86,8.38Z"/>
            </g>
            <path class="cls-57" d="m174.67,122.65c.06-3.79-4.04-10.36-8.3-8.72h0s-44.67,25.79-44.67,25.79h0c5.05-1.96,11.12,8.44,6.88,11.84h0s44.67-25.79,44.67-25.79h0c.88-.5,1.42-1.58,1.42-3.12Z"/>
          </g>
          <g>
            <g>
              <path class="cls-55" d="m192.24,123.75c.06-3.79-4.04-10.36-8.3-8.72h0s-62.68,36.19-62.68,36.19l6.88,11.84,62.68-36.19h0c.88-.5,1.42-1.58,1.42-3.12Z"/>
              <path class="cls-48" d="m129.56,159.94c-1.1,8.5-10.55-.85-9.71-5.61,0-3.08,2.17-4.32,4.86-2.77,2.68,1.55,4.86,5.3,4.86,8.38Z"/>
            </g>
            <path class="cls-56" d="m184.41,128.27c.06-3.79-4.04-10.36-8.3-8.72h0s-44.67,25.79-44.67,25.79h0c5.05-1.96,11.12,8.44,6.88,11.84h0s44.67-25.79,44.67-25.79h0c.88-.5,1.42-1.58,1.42-3.12Z"/>
          </g>
          <g>
            <g>
              <path class="cls-50" d="m201.98,129.37c.06-3.79-4.04-10.36-8.3-8.72h0s-62.68,36.19-62.68,36.19l6.88,11.84,62.68-36.19h0c.88-.5,1.42-1.58,1.42-3.12Z"/>
              <path class="cls-48" d="m139.3,165.56c-1.1,8.5-10.55-.85-9.71-5.61,0-3.08,2.17-4.32,4.86-2.77,2.68,1.55,4.86,5.3,4.86,8.38Z"/>
            </g>
            <path class="cls-51" d="m194.15,133.9c.06-3.79-4.04-10.36-8.3-8.72h0s-44.67,25.79-44.67,25.79h0c5.05-1.96,11.12,8.44,6.88,11.84h0s44.67-25.79,44.67-25.79h0c.88-.5,1.42-1.58,1.42-3.12Z"/>
          </g>
          <g>
            <g>
              <path class="cls-70" d="m211.73,135c.06-3.79-4.04-10.36-8.3-8.72h0s-62.68,36.19-62.68,36.19l6.88,11.84,62.68-36.19h0c.88-.5,1.42-1.58,1.42-3.12Z"/>
              <path class="cls-48" d="m149.04,171.19c-1.1,8.5-10.55-.85-9.71-5.61,0-3.08,2.17-4.32,4.86-2.77,2.68,1.55,4.86,5.3,4.86,8.38Z"/>
            </g>
            <path class="cls-71" d="m203.89,139.52c.06-3.79-4.04-10.36-8.3-8.72h0s-44.67,25.79-44.67,25.79h0c5.05-1.96,11.12,8.44,6.88,11.84h0s44.67-25.79,44.67-25.79h0c.88-.5,1.42-1.58,1.42-3.12Z"/>
          </g>
          <g>
            <g>
              <path class="cls-69" d="m221.47,140.62c.06-3.79-4.04-10.36-8.3-8.72h0s-62.68,36.19-62.68,36.19l6.88,11.84,62.68-36.19h0c.88-.5,1.42-1.58,1.42-3.12Z"/>
              <path class="cls-48" d="m158.78,176.81c-1.1,8.5-10.55-.85-9.71-5.61,0-3.08,2.17-4.32,4.86-2.77,2.68,1.55,4.86,5.3,4.86,8.38Z"/>
            </g>
            <path class="cls-68" d="m213.63,145.14c.06-3.79-4.04-10.36-8.3-8.72h0s-44.67,25.79-44.67,25.79h0c5.05-1.96,11.12,8.44,6.88,11.84h0s44.67-25.79,44.67-25.79h0c.88-.5,1.42-1.58,1.42-3.12Z"/>
          </g>
          <g>
            <g>
              <path class="cls-58" d="m231.21,146.24c.06-3.79-4.04-10.36-8.3-8.72h0s-62.68,36.19-62.68,36.19l6.88,11.84,62.68-36.19h0c.88-.5,1.42-1.58,1.42-3.12Z"/>
              <path class="cls-48" d="m168.52,182.43c-1.1,8.5-10.55-.85-9.71-5.61,0-3.08,2.17-4.32,4.86-2.77,2.68,1.55,4.86,5.3,4.86,8.38Z"/>
            </g>
            <path class="cls-64" d="m223.37,150.77c.06-3.79-4.04-10.36-8.3-8.72h0s-44.67,25.79-44.67,25.79h0c5.05-1.96,11.12,8.44,6.88,11.84h0s44.67-25.79,44.67-25.79h0c.88-.5,1.42-1.58,1.42-3.12Z"/>
          </g>
          <g>
            <g>
              <path class="cls-66" d="m240.95,151.87c.06-3.79-4.04-10.36-8.3-8.72h0s-62.68,36.19-62.68,36.19l6.88,11.84,62.68-36.19h0c.88-.5,1.42-1.58,1.42-3.12Z"/>
              <path class="cls-48" d="m178.26,188.06c-1.1,8.5-10.55-.85-9.71-5.61,0-3.08,2.17-4.32,4.86-2.77,2.68,1.55,4.86,5.3,4.86,8.38Z"/>
            </g>
            <path class="cls-67" d="m233.11,156.39c.06-3.79-4.04-10.36-8.3-8.72h0s-44.67,25.79-44.67,25.79h0c5.05-1.96,11.12,8.44,6.88,11.84h0s44.67-25.79,44.67-25.79h0c.88-.5,1.42-1.58,1.42-3.12Z"/>
          </g>
          <g>
            <g>
              <path class="cls-59" d="m250.69,157.49c.06-3.79-4.04-10.36-8.3-8.72h0s-62.68,36.19-62.68,36.19l6.88,11.84,62.68-36.19h0c.88-.5,1.42-1.58,1.42-3.12Z"/>
              <path class="cls-48" d="m188.01,193.68c-1.1,8.5-10.55-.85-9.71-5.61,0-3.08,2.17-4.32,4.86-2.77,2.68,1.55,4.86,5.3,4.86,8.38Z"/>
            </g>
            <path class="cls-65" d="m242.85,162.02c.06-3.79-4.04-10.36-8.3-8.72h0s-44.67,25.79-44.67,25.79h0c5.05-1.96,11.12,8.44,6.88,11.84h0s44.67-25.79,44.67-25.79h0c.88-.5,1.42-1.58,1.42-3.12Z"/>
          </g>
          <g>
            <g>
              <path class="cls-61" d="m260.43,163.12c.06-3.79-4.04-10.36-8.3-8.72h0s-62.68,36.19-62.68,36.19l6.88,11.84,62.68-36.19h0c.88-.5,1.42-1.58,1.42-3.12Z"/>
              <path class="cls-48" d="m197.75,199.31c-1.1,8.5-10.55-.85-9.71-5.61,0-3.08,2.17-4.32,4.86-2.77,2.68,1.55,4.86,5.3,4.86,8.38Z"/>
            </g>
            <path class="cls-62" d="m252.59,167.64c.06-3.79-4.04-10.36-8.3-8.72h0s-44.67,25.79-44.67,25.79h0c5.05-1.96,11.12,8.44,6.88,11.84h0s44.67-25.79,44.67-25.79h0c.88-.5,1.42-1.58,1.42-3.12Z"/>
          </g>
          <g>
            <g>
              <path class="cls-60" d="m270.17,168.74c.06-3.79-4.04-10.36-8.3-8.72h0s-62.68,36.19-62.68,36.19l6.88,11.84,62.68-36.19h0c.88-.5,1.42-1.58,1.42-3.12Z"/>
              <path class="cls-48" d="m207.49,204.93c-1.1,8.5-10.55-.85-9.71-5.61,0-3.08,2.17-4.32,4.86-2.77,2.68,1.55,4.86,5.3,4.86,8.38Z"/>
            </g>
            <path class="cls-63" d="m262.33,173.26c.06-3.79-4.04-10.36-8.3-8.72h0s-44.67,25.79-44.67,25.79h0c5.05-1.96,11.12,8.44,6.88,11.84h0s44.67-25.79,44.67-25.79h0c.88-.5,1.42-1.58,1.42-3.12Z"/>
          </g>
          <g>
            <g>
              <path class="cls-73" d="m279.91,174.36c.06-3.79-4.04-10.36-8.3-8.72h0s-62.68,36.19-62.68,36.19l6.88,11.84,62.68-36.19h0c.88-.5,1.42-1.58,1.42-3.12Z"/>
              <path class="cls-48" d="m217.23,210.55c-1.1,8.5-10.55-.85-9.71-5.61,0-3.08,2.17-4.32,4.86-2.77,2.68,1.55,4.86,5.3,4.86,8.38Z"/>
            </g>
            <path class="cls-75" d="m272.08,178.89c.06-3.79-4.04-10.36-8.3-8.72h0s-44.67,25.79-44.67,25.79h0c5.05-1.96,11.12,8.44,6.88,11.84h0s44.67-25.79,44.67-25.79h0c.88-.5,1.42-1.58,1.42-3.12Z"/>
          </g>
          <g>
            <g>
              <path class="cls-74" d="m289.65,179.99c.06-3.79-4.04-10.36-8.3-8.72h0s-62.68,36.19-62.68,36.19l6.88,11.84,62.68-36.19h0c.88-.5,1.42-1.58,1.42-3.12Z"/>
              <path class="cls-48" d="m226.97,216.18c-1.1,8.5-10.55-.85-9.71-5.61,0-3.08,2.17-4.32,4.86-2.77,2.68,1.55,4.86,5.3,4.86,8.38Z"/>
            </g>
            <path class="cls-72" d="m281.82,184.51c.06-3.79-4.04-10.36-8.3-8.72h0s-44.67,25.79-44.67,25.79h0c5.05-1.96,11.12,8.44,6.88,11.84h0s44.67-25.79,44.67-25.79h0c.88-.5,1.42-1.58,1.42-3.12Z"/>
          </g>
          <g>
            <g>
              <path class="cls-76" d="m299.39,185.61c.06-3.79-4.04-10.36-8.3-8.72h0s-62.68,36.19-62.68,36.19l6.88,11.84,62.68-36.19h0c.88-.5,1.42-1.58,1.42-3.12Z"/>
              <path class="cls-48" d="m236.71,221.8c-1.1,8.5-10.55-.85-9.71-5.61,0-3.08,2.17-4.32,4.86-2.77,2.68,1.55,4.86,5.3,4.86,8.38Z"/>
            </g>
            <path class="cls-77" d="m291.56,190.14c.06-3.79-4.04-10.36-8.3-8.72h0s-44.67,25.79-44.67,25.79h0c5.05-1.96,11.12,8.44,6.88,11.84h0s44.67-25.79,44.67-25.79h0c.88-.5,1.42-1.58,1.42-3.12Z"/>
          </g>
          <polygon class="cls-34" points="239.71 268.99 93 184.29 93 137.94 239.71 222.65 239.71 268.99"/>
          <polygon class="cls-15" points="239.71 220.12 97.37 137.94 95.18 139.21 237.52 221.38 239.71 220.12"/>
          <polygon class="cls-15" points="93 137.94 160.05 99.23 162.24 100.49 95.18 139.21 93 137.94"/>
          <polygon class="cls-15" points="304.57 182.67 162.24 100.49 160.05 101.75 302.39 183.93 304.57 182.67"/>
          <polygon class="cls-38" points="306.76 230.28 239.71 268.99 239.71 222.65 306.76 183.93 306.76 230.28"/>
          <polygon class="cls-15" points="237.52 221.38 304.57 182.67 306.76 183.93 239.71 222.65 237.52 221.38"/>
          <g>
            <polygon class="cls-49" points="285.89 189.26 257.56 205.62 249.59 205.52 257.38 172.8 285.89 189.26"/>
            <polygon class="cls-16" points="221.25 189.16 249.59 205.52 249.59 174.58 221.25 158.22 221.25 189.16"/>
            <polygon class="cls-31" points="278.1 189.06 249.59 205.52 249.59 174.58 278.1 158.12 278.1 189.06"/>
            <polygon class="cls-19" points="221.25 158.22 249.59 174.58 278.1 158.12 249.76 141.76 221.25 158.22"/>
            <polygon class="cls-18" points="233.74 179.01 237.1 180.95 237.1 167.37 233.74 165.43 233.74 179.01"/>
            <polygon class="cls-9" points="233.74 165.43 237.1 167.37 265.61 150.91 262.25 148.97 233.74 165.43"/>
          </g>
          <g>
            <polygon class="cls-49" points="212.88 148.83 184.54 165.19 176.57 165.09 184.36 132.37 212.88 148.83"/>
            <polygon class="cls-16" points="148.24 148.73 176.57 165.09 176.57 134.15 148.24 117.79 148.24 148.73"/>
            <polygon class="cls-31" points="205.08 148.63 176.57 165.09 176.57 134.15 205.08 117.69 205.08 148.63"/>
            <polygon class="cls-19" points="148.24 117.79 176.57 134.15 205.08 117.69 176.75 101.33 148.24 117.79"/>
            <polygon class="cls-18" points="160.72 138.59 164.08 140.53 164.08 126.94 160.72 125 160.72 138.59"/>
            <polygon class="cls-9" points="160.72 125 164.08 126.94 192.6 110.48 189.24 108.54 160.72 125"/>
          </g>
          <path class="cls-28" d="m146.21,93.11c-2.84,1.68-21.5,12.32-24.8,14.21v120.73l22.92-13.11v-94.33c15.64-8.94,51.21-29.31,67.24-38.5v45.79c5.82,3.24,17.43,10.19,22.92,13.88V42.6l-88.28,50.51Z"/>
          <polygon class="cls-17" points="207.38 127.91 194.25 135.48 194.25 91.99 207.38 84.42 207.38 127.91"/>
          <polygon class="cls-17" points="192.19 136.6 179.07 144.17 179.07 100.68 192.19 93.11 192.19 136.6"/>
          <polygon class="cls-17" points="177.01 145.29 163.89 152.86 163.89 109.37 177.01 101.8 177.01 145.29"/>
          <polygon class="cls-17" points="161.83 153.98 148.7 161.55 148.7 118.06 161.83 110.49 161.83 153.98"/>
          <polygon class="cls-41" points="47.14 64.76 121.43 107.32 121.43 228.03 47.14 185.48 47.14 64.76"/>
        </g>
        <g>
          <g>
            <path class="cls-42" d="m62.52,269.79l10.34,3.55c6.51-1.01,10.56,1.44,10.18,5.06h0c.31,2.32-12.13,6.19-13.5,7.26-2.54,1.2-8.45.36-8.34-3.12h-.01s1.34-12.75,1.34-12.75Z"/>
            <path class="cls-30" d="m74.9,274.31c-1.29-17.71,2.97-41.64-5.14-46.61-3.6-1.86-12.46-.83-13.26,3.84-.53,3.07,4.36,41.09,4.92,42.85,1.55,2.22,10.77.12,13.48-.07Z"/>
            <path class="cls-30" d="m61.44,274.45c1.76,4.75,12.38,5.08,13.46-.16-.66-5.39-13.65-5.69-13.46.16Z"/>
          </g>
          <path class="cls-35" d="m74.75,239.36l-9.78,5.97-6.92-.62-30.92,16.87c-2.24-1.3-8.28-18.1-8.28-18.1,13.95,5.98,57.36-37.46,55.9-4.12Z"/>
          <g>
            <path class="cls-43" d="m80.84,283.01l10.34,3.55c6.51-1.01,10.56,1.44,10.18,5.06h0c.31,2.32-12.13,6.19-13.5,7.26-2.54,1.2-8.45.36-8.34-3.12h-.01s1.34-12.75,1.34-12.75Z"/>
            <path class="cls-30" d="m93.22,287.52c-1.29-17.71,2.97-41.64-5.14-46.61-4.55-3.92-12.18-2.49-13.26,3.84-.53,3.07,4.36,41.09,4.92,42.85,1.55,2.22,10.77.12,13.48-.07Z"/>
            <path class="cls-30" d="m79.76,287.66c1.76,4.75,12.38,5.08,13.46-.16-.66-5.39-13.65-5.69-13.46.16Z"/>
          </g>
          <g>
            <g>
              <path class="cls-42" d="m24.4,293.64c.04,2.78-4.33,2.78-4.29,0-.04-2.78,4.33-2.78,4.29,0Z"/>
              <path class="cls-42" d="m19.36,315.32c.04,2.78-4.33,2.78-4.29,0-.04-2.78,4.33-2.78,4.29,0Z"/>
              <path class="cls-42" d="m53.86,325.29c.04,2.78-4.33,2.78-4.29,0-.04-2.78,4.33-2.78,4.29,0Z"/>
              <path class="cls-42" d="m79.75,309.9c.04,2.78-4.33,2.78-4.29,0-.04-2.78,4.33-2.78,4.29,0Z"/>
              <path class="cls-42" d="m63.87,289.05c.04,2.78-4.33,2.78-4.29,0-.04-2.78,4.33-2.78,4.29,0Z"/>
              <g>
                <path class="cls-40" d="m64.01,287.38v-2.95c-3.27.04-16.46,13.65-18.9,15.69-1.84-.84-23.55-11.74-24.79-11.69v2.95l18.29,12.5-24.08,5.67v2.95l2.02,2.29,26.24-6.18,6.76,15.89,4.4-.4c.42-1.86-1.8-14.22-2.08-16.32l28.26,1.2c.56-1.33.84-4.06.7-5.49l-27.52-.95,10.71-15.15Z"/>
                <polygon class="cls-37" points="64.01 284.43 60.04 283.26 45.11 297.16 23.46 286.6 20.31 288.42 38.6 300.92 14.52 309.54 16.54 311.83 42.78 305.65 49.54 321.54 53.94 321.14 51.86 304.82 80.12 306.02 80.82 303.48 53.3 299.58 64.01 284.43"/>
              </g>
              <path class="cls-40" d="m49.22,299.89c5.83,5.27-11.69,5.27-5.85,0,1.62-.93,4.24-.93,5.85,0Z"/>
              <rect class="cls-40" x="42.15" y="274.93" width="8.28" height="26.65"/>
            </g>
            <path class="cls-22" d="m45.98,249.89l-32.73,18.9c-1.51.87-2.73.16-2.73-1.58-.04-4.07,2.8-9,6.31-11.04,0,0,29.15-16.83,29.15-16.83,3.69-2.02,2.58,4,2.73,5.82,0,1.74-1.22,3.86-2.73,4.74Z"/>
            <polygon class="cls-42" points="41.06 286.17 11.06 268.79 47.8 239.1 77.92 256.51 41.06 286.17"/>
            <path class="cls-32" d="m75.83,267.15l-32.73,18.9c-1.51.87-2.73.16-2.73-1.58-.04-4.07,2.8-9,6.31-11.04,0,0,29.15-16.83,29.15-16.83,3.69-2.02,2.58,4,2.73,5.82,0,1.74-1.22,3.86-2.73,4.74Z"/>
          </g>
          <path class="cls-30" d="m92.25,249.79l-9.78,5.97-6.92-.62-33.4,12.44c-2.24-1.3-8.49-20.82-8.49-20.82,12.03,5.61,59.21-28.6,58.59,3.03Z"/>
          <g>
            <g>
              <polygon class="cls-14" points="144.32 286.48 148.11 284.3 148.11 224.96 144.32 227.15 144.32 286.48"/>
              <polygon class="cls-12" points="140.53 284.3 144.32 286.48 144.32 227.15 140.53 224.96 140.53 284.3"/>
            </g>
            <g>
              <polygon class="cls-14" points="28.64 274.84 32.43 272.65 32.43 213.32 28.64 215.5 28.64 274.84"/>
              <polygon class="cls-12" points="24.85 272.65 28.64 274.84 28.64 215.5 24.86 213.32 24.85 272.65"/>
            </g>
            <g>
              <polygon class="cls-5" points="22.4 206.74 96.13 249.52 150.05 218.38 76.32 175.61 22.4 206.74"/>
              <polygon class="cls-33" points="96.13 255.02 150.05 223.89 150.05 218.39 96.13 249.52 96.13 255.02"/>
              <polygon class="cls-47" points="22.4 212.25 96.13 255.02 96.13 249.52 22.4 206.74 22.4 212.25"/>
            </g>
            <polygon class="cls-33" points="96.13 255.02 150.05 223.89 150.05 218.39 96.13 249.52 96.13 255.02"/>
            <rect class="cls-14" x="96.13" y="255.03" width="0" height="9.21"/>
            <polygon class="cls-46" points="142.89 228.03 142.89 281.23 99.92 306.04 99.92 252.84 142.89 228.03"/>
            <polygon class="cls-5" points="29.56 216.39 29.56 225.6 92.34 262.05 92.34 252.84 29.56 216.39"/>
            <path class="cls-14" d="m96.13,255.02l3.79-2.19c0,5.04,0,52.98,0,59.34l-3.79,2.19c0-6.62,0-54.07,0-59.34Z"/>
            <path class="cls-12" d="m92.34,252.84l3.79,2.19c0,5.04,0,52.98,0,59.34l-3.79-2.19c0-10.26,0-49.82,0-59.34Z"/>
          </g>
          <path class="cls-25" d="m63.62,200.3c-.36,3.09-4.87,39.1-6.03,49.66-6.17,8.58-34.27-1.1-33.98-8.12.27-2.34,2.9-45.51,3.39-46.57,5.3-21.52,30.51-9.7,36.62,5.03Z"/>
          <g>
            <path class="cls-6" d="m46.41,170.48c-1.95,7.51,2.23,18.78,11.6,15.77,5.63-5.62,6.52-15.32,6.9-23-1.47-6.99-12.06-7.17-16.33-2.73-.65.53-1.85,6.82-2.17,9.95Z"/>
            <path class="cls-1" d="m54,181.59c-.06,1.6-.95,3.44-.34,4.94,2.62.7,5.51-.14,6.6-2.82-2.77,1.93-3.99-.28-3.5-6.96-.9,3.02-2.26,1.72-2.76,4.84Z"/>
            <rect class="cls-6" x="39.46" y="172.06" width="18.94" height="14.64" transform="translate(-135.9 199.53) rotate(-80.96)"/>
            <path class="cls-44" d="m61.61,167.29c-7.61,3.19-2.26,15.31-9.82,18.6-3.28.87-9.54.38-10.9-3.07-11.69-46.53,40.49-23.28,20.72-15.53Z"/>
            <path class="cls-6" d="m57.04,171.07c2.7,1.07,1.32,7.13-.74,8.29-2.77.18-2.02-8.8.74-8.29Z"/>
          </g>
          <g>
            <path class="cls-40" d="m63.41,207.53c1.08.11,26.91,16.82,27.68,14.78,0,0,16.17-9.34,16.17-9.34.26-.15.39-.34.42-.53h.01c-.09.53.29,1.77-.43,2.05-.27.16-3.61,2.06-3.73,2.2v-.04c-.2.02-13.65,8.19-13.48,7.43-.38,0-.75-.08-1.04-.25-.45-.6-26.09-14.4-26.03-15.39h0v-1.51c0,.22.14.43.43.6Z"/>
            <path class="cls-11" d="m107.68,212.44c.35-.56-4.26-2.71-4.47-2.97l-.19.32-2.62-1.51.19-.32-13.05-7.54-.17.29-2.62-1.51.17-.29c-.5-.35-3.19-1.67-3.47-2.21.1.14.22.26.34.37-1.18-2.03-17.06,9.03-18.37,9.26-.57.33-.57.87,0,1.2,1.03.08,26.95,16.84,27.68,14.78,0,0,16.17-9.34,16.17-9.34.26-.15.39-.34.42-.53Zm-33.67-.28l4.05-2.34,6.98,4.03-4.05,2.34-6.98-4.03Zm-2.75-8.21l2.1-1.21h0c1.37-.79,3.52-2.03,4.9-2.83h0l2.45-1.42,2.51,1.45.35.2h0l2.51,1.45h0l.35.2,2.51,1.45h0l.35.2c.29.17,2.64,1.53,2.86,1.65h0l2.51,1.45h0l.35.2,2.51,1.45h0l.35.2,2.51,1.45h0l.35.2,2.51,1.45v.67l-9.46,5.46-2.86-1.65h0l-2.51-1.45h0c-3.27-1.89-8.22-4.75-11.44-6.61h0l-.35-.2c-1.23-.71-4.11-2.37-5.37-3.1v-.67Z"/>
            <polygon class="cls-40" points="85.04 213.85 80.99 216.19 74.01 212.16 78.06 209.82 85.04 213.85"/>
            <path class="cls-40" d="m71.26,203.95v.67c1.27.73,4.13,2.38,5.37,3.1l.35.2h0c3.21,1.85,8.19,4.73,11.44,6.61h0l2.51,1.45h0l2.86,1.65,9.46-5.46v-.67l-2.1,1.21-2.51-1.45,2.1-1.21-.35-.2-2.1,1.21-2.51-1.45,2.1-1.21-.35-.2-2.1,1.21-2.51-1.45,2.1-1.21-.35-.2-2.1,1.21-2.51-1.45,2.1-1.21-.41-.23.06.03-2.1,1.21-2.51-1.45,2.1-1.21-.35-.2-2.1,1.21-2.51-1.45,2.1-1.21-.35-.2-2.1,1.21-2.51-1.45,2.1-1.21-.35-.2-2.1,1.21-2.51-1.45,2.1-1.21-2.45,1.42,2.51,1.45-2.45,1.42,2.86,1.65-2.1,1.21c-1.46-.84-3.93-2.27-5.37-3.1l.03-.02-.38.22,2.51,1.45-2.1,1.21-2.51-1.45Zm7.47,1.89l-2.1,1.21-2.51-1.45,2.1-1.21,2.51,1.45Zm2.8-1.21l2.51,1.45-2.1,1.21-2.51-1.45,2.1-1.21Zm.76,2.87l2.1-1.21,2.51,1.45-2.1,1.21-2.51-1.45Zm2.86,1.65l2.1-1.21,2.51,1.45-2.1,1.21-2.51-1.45Zm2.86,1.65l2.1-1.21,2.51,1.45-2.1,1.21-2.51-1.45Zm2.86,1.65l2.1-1.21,2.51,1.45-2.1,1.21-2.51-1.45Zm2.86,1.65l2.1-1.21,2.51,1.45-2.1,1.21-2.51-1.45Zm-10.1-11.09l-2.1,1.21-2.51-1.45,2.1-1.21,2.51,1.45Zm2.86,1.65l-2.1,1.21-2.51-1.45,2.1-1.21,2.51,1.45Zm2.86,1.65l-2.1,1.21-2.51-1.45,2.1-1.21,2.51,1.45Zm2.86,1.65l-2.1,1.21-2.51-1.45,2.1-1.21,2.51,1.45Zm2.86,1.65l-2.1,1.21-2.51-1.45,2.1-1.21,2.51,1.45Zm2.86,1.65l-2.1,1.21-2.51-1.45,2.1-1.21,2.51,1.45Zm2.86,1.65l-2.1,1.21-2.51-1.45,2.1-1.21,2.51,1.45Zm-9.52,2.6l2.1-1.21,2.51,1.45-2.1,1.21-2.51-1.45Zm-2.86-1.65l2.1-1.21,2.51,1.45-2.1,1.21-2.51-1.45Zm-11.44-6.61l2.1-1.21c3.53,2.04,7.55,4.36,11.09,6.41l-2.1,1.21c-3.54-2.05-7.56-4.36-11.09-6.41Z"/>
            <polygon class="cls-21" points="101.16 212.72 98.65 211.27 100.75 210.05 100.75 210.05 103.26 211.5 101.16 212.72"/>
            <polygon class="cls-21" points="98.3 211.06 95.79 209.61 97.89 208.4 97.89 208.4 100.4 209.85 100.4 209.85 98.3 211.06"/>
            <polygon class="cls-21" points="95.44 209.41 92.93 207.96 95.03 206.75 95.03 206.75 97.54 208.2 97.54 208.2 95.44 209.41"/>
            <polygon class="cls-21" points="92.58 207.76 90.07 206.31 92.17 205.1 92.17 205.1 94.68 206.55 94.68 206.55 92.58 207.76"/>
            <path class="cls-21" d="m89.71,206.11l-2.51-1.45,2.1-1.21h0c.06.03,2.46,1.42,2.51,1.45l-2.1,1.21Z"/>
            <polygon class="cls-21" points="86.85 204.46 84.34 203.01 86.44 201.79 86.44 201.79 88.96 203.24 88.96 203.24 86.85 204.46"/>
            <polygon class="cls-21" points="83.99 202.8 81.48 201.35 83.58 200.14 83.58 200.14 86.09 201.59 86.09 201.59 83.99 202.8"/>
            <polygon class="cls-21" points="81.13 201.15 78.62 199.7 80.72 198.49 83.23 199.94 81.13 201.15"/>
            <polygon class="cls-21" points="98.71 214.13 96.2 212.68 98.3 211.47 100.81 212.92 98.71 214.13"/>
            <polygon class="cls-21" points="95.85 212.48 93.33 211.03 95.44 209.82 97.95 211.27 95.85 212.48"/>
            <polygon class="cls-21" points="92.98 210.83 90.47 209.38 92.58 208.16 95.09 209.61 92.98 210.83"/>
            <polygon class="cls-21" points="90.12 209.18 87.61 207.73 89.71 206.51 92.23 207.96 90.12 209.18"/>
            <polygon class="cls-21" points="87.26 207.52 84.75 206.07 86.85 204.86 89.36 206.31 87.26 207.52"/>
            <polygon class="cls-21" points="84.4 205.87 81.89 204.42 83.99 203.21 86.5 204.66 84.4 205.87"/>
            <polygon class="cls-21" points="81.54 204.22 79.03 202.77 81.13 201.56 83.64 203.01 81.54 204.22"/>
            <polygon class="cls-21" points="95.85 212.88 98.36 214.33 96.25 215.55 93.74 214.1 95.85 212.88"/>
            <polygon class="cls-21" points="92.98 211.23 95.5 212.68 93.39 213.9 90.88 212.45 92.98 211.23"/>
            <polygon class="cls-21" points="90.12 209.58 92.63 211.03 90.53 212.24 88.02 210.79 90.12 209.58"/>
            <polygon class="cls-21" points="87.26 207.93 89.77 209.38 87.67 210.59 85.16 209.14 87.26 207.93"/>
            <polygon class="cls-21" points="84.4 206.28 86.91 207.73 84.81 208.94 82.3 207.49 84.4 206.28"/>
            <polygon class="cls-21" points="84.05 206.07 81.95 207.29 79.44 205.84 81.54 204.62 84.05 206.07"/>
            <path class="cls-21" d="m80.78,201.35l-2.45,1.42,2.86,1.65-2.1,1.21c-1.46-.84-3.93-2.27-5.37-3.1,1.21-.7,3.33-1.92,4.55-2.63h0l2.51,1.45Z"/>
            <polygon class="cls-21" points="93.39 214.3 95.9 215.75 93.8 216.96 91.29 215.51 93.39 214.3"/>
            <polygon class="cls-21" points="88.43 213.86 90.53 212.65 93.04 214.1 90.94 215.31 88.43 213.86"/>
            <path class="cls-21" d="m79.09,206.04c3.53,2.04,7.55,4.36,11.09,6.41l-2.1,1.21c-3.54-2.05-7.56-4.36-11.09-6.41l2.1-1.21Z"/>
            <polygon class="cls-21" points="76.63 207.05 74.12 205.6 76.23 204.39 78.74 205.84 76.63 207.05"/>
            <polygon class="cls-21" points="73.36 202.74 75.88 204.19 73.77 205.4 71.26 203.95 73.36 202.74 73.36 202.74"/>
            <path class="cls-40" d="m108.67,211.43c-.23-.79.63-20.18-.63-20.14-.41-.52-25.51-14.72-26.01-15.11-.27-.15-.5-.19-.72-.07l1.18-.69h0c1.01.04,27.87,14.86,27.38,16.37.09.32-.02,15.96.02,16.28h0c-.12,1.79.66,3.25-1.51,4.02h0c.18-.12.29-.34.29-.66Z"/>
            <path class="cls-40" d="m81.27,176.12h.02s0,0-.01,0h0Z"/>
            <path class="cls-11" d="m81.01,195.7c.03.17.08.35.16.52-.07-.17-.13-.35-.16-.52Z"/>
            <path class="cls-11" d="m108.03,191.29c.25.26.45.61.55.96-.11-.35-.3-.69-.55-.96Z"/>
            <path class="cls-20" d="m107.47,211.93c.55.4,1.22.27,1.2-.5,0,0,0-18.67,0-18.67,1.47-1.62-26.12-15.77-26.64-16.58-2.22-2.35-.55,19.3-1.04,19.27-.14,1.74,2.85,2.69,3.93,3.47l.16-.28,2.62,1.51-.16.28,13.05,7.54.14-.25,2.62,1.51-.14.25,4.26,2.46Zm-12.26-27.22c-.08.66-.81-.06-.75-.43.08-.66.81.06.75.43Zm12.09,8.53c-.36.02.78,17.73-.59,16.46,0,0-23.75-13.71-23.75-13.71-.33-.19-.59-.65-.59-1.03v-16.12c0-.38.27-.53.59-.34l23.75,13.71c.33.19.59.65.59,1.03Z"/>
            <path class="cls-40" d="m94.83,184.93c-.35-.13-.61-1.12,0-.86.35.13.61,1.12,0,.86Z"/>
            <path class="cls-36" d="m106.7,192.21l-23.75-13.71c-1.37-1.33-.24,16.49-.59,16.46,0,.38.27.84.59,1.03l23.75,13.71c1.37,1.33.24-16.49.59-16.46,0-.38-.27-.84-.59-1.03Z"/>
            <path class="cls-40" d="m100.73,207.71l2.62,1.51c-.08.14-.25.43-.33.57l-2.62-1.51c.08-.14.25-.43.33-.57Z"/>
            <path class="cls-40" d="m85.08,198.63l2.62,1.51c-.08.14-.25.43-.33.57l-2.62-1.51c.08-.14.25-.43.33-.57Z"/>
          </g>
          <g>
            <path class="cls-6" d="m83.41,218.43c3.9,4.2,8.58-1.53,12.61-2.54.82-.25,1.19-.25,1.97-.43.83-.19,1.41-1.63-.06-1.57,2.61-.55,2.03-2.23,1.14-2.16.92-.36.79-2.05-.74-1.87,3.23-4.26-20.22.6-14.91,8.57Z"/>
            <path class="cls-6" d="m90.45,206.32c.54-1,1.85-.71,1.94.44.2,1.21-1.16,2.77-2.06,3.6-1.62,1.59-3.97,1.59-5.89,2.66,2.61-2.23,4.65-4.47,6.01-6.71Z"/>
          </g>
          <g>
            <path class="cls-6" d="m71.62,198.5c2.07-1.22,11.35.48,10.31,3.67-3.02.43-5.99,1.25-8.74,2.83,1.33-.91,4.72-1.37,4.8.77-.56.83-1.56.73-2.43.69-2.26.82-4.71,1.57-7.08.58-5.47-2.34-.73-7.58,3.14-8.55Z"/>
            <path class="cls-6" d="m77.98,205.78c-9.74,5.18-18.74-2.86-5.17-7.71.3,1.07.53,5.69,1.55,6.42,2-.78,4.49.12,3.62,1.29Z"/>
          </g>
          <polygon class="cls-25" points="64.42 203.12 64.73 209.82 69.11 206.93 67.44 202.45 64.42 203.12"/>
          <path class="cls-27" d="m57.65,191.97c-1.06-.97-1.91-1.33-2.87-2.76-4.96-2.46-11.06-1.81-13.95-5.95-.67.8-2.6,2.83-2.18,3.49,3.36,5.12,8.16,5.99,19,5.23Z"/>
          <path class="cls-2" d="m60.07,229.15c-.22,1.81-.44,3.6-.64,5.32-7.81-2.77-7.02-18.12-7.06-30.08l7.71,24.77Z"/>
          <path class="cls-25" d="m83.23,213.66l-23.14,6.73c-3.34,1.3-4.99,5.06-3.68,8.4,1.3,3.34,5.06,4.99,8.4,3.68l22.46-12.31c1.35-3.38-1.36-7.3-4.03-6.51Z"/>
          <path class="cls-25" d="m64.42,203.12c-.53-8.79-14.34-7.36-12.98,1.37,0,0,3.62,19.2,3.62,19.2,1.75,8.34,3.4,9.75,7.57,9.23,8.72-2.47,1.43-23.65,1.79-29.8Z"/>
          <g>
            <path class="cls-42" d="m7.04,265.67L.07,209.79c-.61-3.33,2.83-3.9,4.95-4.83,4.08-3.33,8.19,56.46,9.33,57.05.65,3.03-2.95,4.27-4.74,5.62-1.11.73-2.35-.21-2.57-1.96Z"/>
            <polygon class="cls-42" points="38.67 223.96 6.26 205.08 8.15 267.68 40.71 286.61 38.67 223.96"/>
            <path class="cls-32" d="m39.76,284.7l-6.97-55.88c-.61-3.33,2.83-3.9,4.95-4.83,4.08-3.33,8.19,56.46,9.33,57.05.65,3.03-2.95,4.27-4.74,5.62-1.11.74-2.35-.21-2.57-1.96Z"/>
          </g>
        </g>
      </g>
    </g>
  </g>
</svg>