<?xml version="1.0" encoding="UTF-8"?>
<svg xmlns="http://www.w3.org/2000/svg" viewBox="0 0 314.78 145.43">
  <defs>
    <style>
      .cls-1 {
        fill: none;
        isolation: isolate;
      }

      .cls-2 {
        fill: #f7f7f7;
      }

      .cls-3 {
        fill: #f4c042;
      }

      .cls-4 {
        fill: #eeeeef;
      }

      .cls-5 {
        fill: #eb6868;
      }

      .cls-6, .cls-7 {
        fill: #fff;
      }

      .cls-8 {
        fill: #f5bea7;
      }

      .cls-9 {
        fill: #f2a788;
      }

      .cls-10 {
        fill: #e68c71;
      }

      .cls-11 {
        fill: #e75955;
      }

      .cls-12 {
        fill: #fdf5eb;
      }

      .cls-13 {
        fill: #807152;
      }

      .cls-14 {
        fill: #a0aecf;
      }

      .cls-15 {
        fill: #c30d23;
      }

      .cls-16 {
        fill: #cbd9e2;
      }

      .cls-17 {
        fill: #cab896;
      }

      .cls-18, .cls-19 {
        fill: #cacbcb;
      }

      .cls-20 {
        fill: #d33d31;
      }

      .cls-21 {
        fill: #24212c;
      }

      .cls-22 {
        fill: #231815;
      }

      .cls-23 {
        fill: #443a4e;
      }

      .cls-24 {
        fill: #8797bb;
      }

      .cls-25 {
        fill: #2d2e2c;
      }

      .cls-26 {
        fill: #352d41;
      }

      .cls-27 {
        fill: #2e305a;
      }

      .cls-28 {
        fill: #3d3347;
      }

      .cls-19, .cls-29 {
        mix-blend-mode: multiply;
      }

      .cls-29 {
        fill: #babedf;
      }

      .cls-29, .cls-30 {
        opacity: .5;
      }

      .cls-7 {
        opacity: .56;
      }

      .cls-30 {
        fill: #b6e0f3;
      }

      .cls-31 {
        fill: #2c200f;
        opacity: .29;
      }

      .cls-32 {
        fill: #58482e;
        opacity: .46;
      }
    </style>
  </defs>
  <g class="cls-1">
    <g id="_レイヤー_2" data-name="レイヤー 2">
      <g id="pc">
        <g>
          <path class="cls-19" d="m102.98,106.74c-3.84-.85-7.87-1.49-11.98-1.95,11.29-7.22,3.46-16.61-18.41-21.43-22.81-5.02-52.24-3.16-65.74,4.16-20.9,11.1,11.07,23.39,28.85,24.3-11.29,7.22-3.46,16.61,18.41,21.43,22.81,5.02,52.24,3.16,65.74-4.16,13.5-7.32,5.94-17.32-16.87-22.35Z"/>
          <g>
            <path class="cls-17" d="m57.84,41.55c11.07,5.3,9.47,12.86,13.3,18.82,3.83,5.96,8.72,10.76,10.25,16.82,1.81,7.22-5.21,27.67-33.63,25.32-28.42-2.35-39.66-25.14-37.52-35.34,4.51-16.07,31.28-31.01,47.61-25.62Z"/>
            <path class="cls-13" d="m52.76,40.32v-.08c-2.5-.03-6.63,1.29-9.18,1.31-3.35,1.4-7.65,3.88-11.21,4.72-3.45,1.3-7.63,3.95-10.09,6.71-4.13,2.92-8.66,7.13-11.12,11.59l-.17.03c-1.42,3.72-1.32,6.95.05,11.56,1.33-3.28,3.21-7.77,5.05-10.81,3.84-5.42,8.73-11.16,13.83-15.43,2.88-2.43,7.58-4.43,10.84-6.24,3.55-1.1,8.26-3.01,11.99-3.37Z"/>
            <path class="cls-13" d="m76.11,93.21l-.77-.3c-1.92-4.65-6.01-9.16-7.63-13.95-.93-3.42-2.69-7.94-3.24-11.46,0,0-1.18-3.8-1.18-3.8,0,0-.12-4.01-.12-4.01-1.33-4.84-1.82-10.77-1.39-15.76h.03c-.15-.13-.33-.23-.49-.36-.12,2.04-.76,6.05-1.27,8.03,0,0,.56,4.13.56,4.13-.7,6.51-1.02,13.94.21,20.41,1.2,3.49,1.43,8.5,2.08,12.11,1.9,3.13,3.73,7.78,5.05,11.18,3.42-1.67,6.1-3.84,8.14-6.2Z"/>
            <path class="cls-13" d="m53.66,43.72l2.53-2.82c-.22-.07-.45-.13-.68-.19-4.09,3.03-9.42,5.95-13.75,8.64,0,0-2.57,3.3-2.57,3.3l-3.69,2.03-2.14,3.65s-3.02,2.76-3.02,2.76c-1.23,1.65-4.01,4.67-5.55,6.04,0,0-2.17,3.49-2.17,3.49l-2.2,3.46-1.32,3.92c-.97,1.47-3.32,4.36-4.79,5.34,2.96,4.85,7.48,9.63,13.69,13.23.69-3.54.78-8.46,2.16-11.85,0,0,.6-4.01.6-4.01,0,0,1.79-3.67,1.79-3.67l.54-4.07,2.45-3.37c.62-1.91,2.06-5.68,2.87-7.51,1.15-1.66,3.14-5.18,3.97-7.02,3.07-3.96,6.98-8.67,11.26-11.34Z"/>
            <path class="cls-13" d="m47.75,102.51c2.17.18,4.22.23,6.15.15-.23-2.04-.6-6.12-.73-8.17-.57-2.03-.88-6.04-.63-8.13,0,0-.91-4.07-.91-4.07l.13-4.11c.35-2.04.53-6.14.38-8.21,1.69-6.36,2.74-13.68,3.92-20.16,0,0,1.96-3.69,1.96-3.69l.39-4.3c-.14-.07-.28-.14-.42-.21,0,0-1.47,3.67-1.47,3.67,0,0-2.74,2.93-2.74,2.93l-1.39,3.74-2.31,3.26-1.11,3.82c-1.25,3.28-2.85,7.81-4.28,11.02-.6,3.47-2.25,7.99-2.91,11.45-.86,3.43-2.48,7.97-2.27,11.56-.64,1.9-1.15,5.81-1.01,7.82,2.86.78,5.94,1.34,9.27,1.61Z"/>
            <path class="cls-32" d="m54.91,61.69c5.79.45,13.44-2.18,13.19-8.71-.27-.16-1.78,2.74-1.86,3.24-4.05,3.59-9.72,3.93-14.64,2.41-7.55-2.04-13.59-8.81-10.41-15.3,4.05-2.6,2.7-2.66-.86-.95-1.46,1.94-1.95,5.24-1.68,7.81-.03-.09.24.83.13.44,2.75,6.68,9.26,10.24,16.14,11.05Z"/>
            <path class="cls-32" d="m74.41,91.62c1.14-2.54,2.65-4.13,4.53-6.3.58-2.53,2.29-5.7,2.47-7.65-1.48-4.36-1.99-4.3-.84.23-.91,1.77-2.17,4.55-2.98,6.82-1.71,1.44-3.49,3.54-4.62,5.76-2.01.9-4.36,2.58-6.32,3.88-2.17.34-4.81,1.28-6.85,2.42-3.67.31-7.56,1.62-11.08,1.41-3.65-1.42-7.51-2.03-11.45-2.04-1.38-.97-1.74-1.54-3.52-2.52-2.1-.64-4.92-1.97-6.62-3.27-1.61-1.63-3.91-3.41-5.8-4.61-.66-.58-2.14-1.87-2.78-2.43-2.13-4.51-4.1-9.17-6.18-13.6-.43-3.32.65-8.54,1.81-10.74-2.7,3.17-3.43,6.92-3.18,11.27,1.89,4.67,3.69,9.37,5.76,14.08,1.6,1.89,4.2,3.83,6.39,5.36,2.15,2.18,4.39,3.99,7.28,5.19,2.03.51,3.96,1.9,5.68,3.35.31.11-.66-.24.69.26.26.02.83.03,1.1.05,1.95.01,4.67.33,6.59.72,1.08.37,2.52.85,3.6,1.21-.08-.01.79.12.43.06,4.42.07,8.09-1.09,12.22-1.76,2.04-1.17,4.35-2.04,6.75-2.51.91-.45.28-.15.99-.64,1.55-1.48,4.57-2.92,5.94-4.03Z"/>
            <path class="cls-32" d="m75.95,81.11c.52-.54.39-.57.43-.62.8-2.98,2.47-9.34.68-11.35-.16.03-.11,1.38.13,3.81-.65,1.56-1.61,4.86-2.24,6.97-1.94,1.49-4.03,3.03-6.07,4.47-3.29,1.42-7.13,2.39-10.53,3.75-1.42-.03-2.51-.18-4.1-.1-4.78,1.86-10.53,1.06-15.07-1.04-3.19-1.74-6.99-4.65-10.43-5.82-.77-.7-2.29-1.82-2.99-2.57-1.79-3.52-3.95-6.99-6.27-10.02-.18-.56-.68-2.66-.96-3.67.46-2.1-.09-6.55-.35-8.22.93-1.87,1.45-3.04,1.5-3.4-2.4,1.7-2.81,4.69-2.21,7.62-.48,2.25-.62,5.13.17,7.56.99,2.8,3.57,5.5,4.78,8.32.43.78,1.45,3.05,1.83,3.43.81.71,2.22,1.94,3.03,2.65,1.4.82,2.67,1.26,3.97,1.93,6.68,5.03,15.39,8.66,23.61,5.42.34.15,2.93.07,3.62.13-.09.02.83-.14.45-.08,6.5-2.35,12.04-4.1,17.01-9.18Z"/>
            <path class="cls-32" d="m75.42,74.62c1.1-2.24.76-7.38-.4-8.53.19,3.47.54,7.44-3.33,10.83-7.65,4.75-6.89,4.82-16.03,5.52-.03-.02-1.83.43-1.87.38-.48-.06-1.33-.19-1.82-.25-1.66-.32-4.2-.31-5.93-.3-.96-.2-2.8-.57-3.75-.77-11.53-4.33-22.38-12.66-20.19-26.39,4.93-13.68-15.73,16,19.72,28.71,1.25.2,3.39.82,4.61.81,2.36-.09,4.9.14,7.29.5.53,0,3.48-.71,4.14-.89.96,0,2.93.03,3.89.04,1.29-.18,2.84-1.04,4.25-1.51,3.62-2.43,7.48-4.43,9.43-8.14Z"/>
            <path class="cls-32" d="m57.85,70.79c6.85-1.18,14.25-6.22,11.63-13.81-.29,11.69-13.64,13.08-23.88,10.87-1.94-.94-5.35-2.5-7.73-3.32-.94-.82-2.02-1.44-2.82-2.31-.49-.86-1.2-2.11-1.69-2.97-3.97-3.66-4.03-10.47-2.45-13.29-3.36,2.53-2.93,7.69-1.37,11.25,1.43,1.98,2.73,4.2,3.79,6.39.78.92,1.71,1.47,2.76,2.4.44.54,2.26,1.16,3.03,1.49,5.08,2.99,13.02,4.13,18.72,3.29Z"/>
            <path class="cls-31" d="m81.39,77.2c-1.52-6.06-6.42-10.86-10.25-16.82-2.57-4-2.69-8.71-5.83-12.99,9.14,22.57,4.14,52.92-32.63,51.5,25.69,12.02,52.83-5.31,48.71-21.69Z"/>
            <path class="cls-7" d="m35.61,47.92c-14.51,4.27-5.05,22.04,2.9,11.77,1.05-2.62,1.15-5.65,3.47-8.28,1.95-2.2-2.04-5.27-6.37-3.49Z"/>
          </g>
          <g>
            <path class="cls-17" d="m95.26,56.89c12.97,6.21,11.09,15.07,15.58,22.05,4.48,6.98,10.22,12.61,12,19.71,2.12,8.46-6.11,32.42-39.4,29.66-33.3-2.76-46.47-29.46-43.96-41.41,4.96-18.61,37.01-36.48,55.78-30.01Z"/>
            <path class="cls-13" d="m89.3,55.45v-.1c-2.92-.04-7.76,1.51-10.76,1.54-3.93,1.64-8.96,4.55-13.14,5.53-4.04,1.52-8.94,4.63-11.82,7.86-4.83,3.42-10.15,8.35-13.03,13.58l-.2.03c-1.66,4.36-1.54,8.14.05,13.54,1.56-3.85,3.76-9.1,5.92-12.66,4.5-6.35,10.23-13.07,16.21-18.08,3.38-2.84,8.88-5.19,12.7-7.31,4.15-1.29,9.68-3.52,14.05-3.95Z"/>
            <path class="cls-13" d="m116.66,117.42l-.9-.35c-2.25-5.45-7.05-10.73-8.94-16.35-1.09-4.01-3.15-9.3-3.79-13.43,0,0-1.38-4.46-1.38-4.46l-.14-4.69c-1.56-5.67-2.13-12.62-1.62-18.47h.04c-.17-.15-.38-.27-.58-.42-.14,2.4-.89,7.09-1.48,9.41,0,0,.66,4.84.66,4.84-.82,7.63-1.2,16.33.25,23.91,1.4,4.09,1.68,9.96,2.44,14.18,2.23,3.66,4.37,9.11,5.92,13.09,4.01-1.95,7.14-4.49,9.54-7.26Z"/>
            <path class="cls-13" d="m90.36,59.43l2.96-3.3c-.26-.08-.53-.16-.8-.23-4.79,3.55-11.04,6.98-16.11,10.12,0,0-3.01,3.86-3.01,3.86l-4.32,2.38-2.5,4.27-3.53,3.23c-1.44,1.94-4.7,5.47-6.5,7.08,0,0-2.54,4.08-2.54,4.08l-2.57,4.06-1.55,4.59c-1.14,1.72-3.88,5.1-5.62,6.25,3.47,5.68,8.77,11.28,16.04,15.51.81-4.15.92-9.91,2.53-13.88,0,0,.71-4.7.71-4.7l2.1-4.3.64-4.77,2.88-3.94c.73-2.23,2.42-6.65,3.36-8.8,1.35-1.94,3.67-6.07,4.65-8.22,3.57-4.61,8.22-10.19,13.2-13.29Z"/>
            <path class="cls-13" d="m83.44,128.32c2.54.21,4.94.26,7.2.18-.27-2.39-.7-7.17-.85-9.57-.67-2.39-1.03-7.06-.73-9.53,0,0-1.07-4.77-1.07-4.77l.15-4.81c.41-2.39.62-7.2.44-9.62,1.98-7.45,3.21-16.03,4.59-23.62,0,0,2.29-4.33,2.29-4.33l.45-5.04c-.16-.08-.32-.16-.49-.24l-1.72,4.3-3.21,3.44-1.62,4.38-2.71,3.82s-1.31,4.48-1.31,4.48c-1.47,3.84-3.34,9.15-5.02,12.91-.71,4.07-2.64,9.37-3.42,13.42-1,4.01-2.91,9.34-2.66,13.55-.75,2.23-1.34,6.81-1.18,9.16,3.35.91,6.96,1.57,10.86,1.89Z"/>
            <path class="cls-32" d="m91.82,80.49c3.99.26,7.58-.54,10.79-2.14,2.86-1.99,5-4.93,4.67-8.06-.31-.19-2.09,3.21-2.18,3.8-5.04,4.29-11.12,4.58-17.16,2.83-8.85-2.38-15.92-10.32-12.2-17.93,4.74-3.05,3.16-3.12-1.01-1.11-1.72,2.29-2.28,6.13-1.97,9.15-.03-.11.28.97.15.52,3.3,7.91,10.75,11.95,18.91,12.94Z"/>
            <path class="cls-32" d="m114.67,115.56c1.34-2.97,3.11-4.84,5.31-7.38.83-2.78,2.03-6.04,2.91-8.33,0,0,.03-.07.03-.07.05-.73,0-.24,0-.42l-.05-.14c-1.76-5.15-2.33-5.08-.98.27-1.07,2.07-2.54,5.33-3.49,8-2.01,1.68-4.09,4.16-5.42,6.75-2.36,1.06-5.1,3.02-7.41,4.55-2.54.4-5.63,1.5-8.03,2.83-4.3.36-8.86,1.9-12.98,1.65-4.28-1.66-8.8-2.38-13.42-2.39-1.62-1.13-2.03-1.81-4.13-2.95-2.46-.74-5.76-2.31-7.75-3.84-1.89-1.91-4.58-3.99-6.8-5.4-.77-.68-2.51-2.19-3.26-2.85-2.5-5.28-4.8-10.74-7.24-15.93-.5-3.89.76-10,2.12-12.58-3.16,3.71-4.02,8.11-3.73,13.2,2.21,5.47,4.33,10.98,6.75,16.5,1.89,2.23,4.92,4.49,7.48,6.28,2.52,2.55,5.14,4.68,8.53,6.08,2.4.61,4.62,2.21,6.65,3.93.36.13-.77-.28.81.3.31.02.98.04,1.29.06,2.29.01,5.47.39,7.72.84,1.27.43,2.95,1,4.22,1.42-.1-.01.92.14.5.08,5.18.08,9.48-1.28,14.32-2.06,2.39-1.37,5.1-2.39,7.91-2.94,1.07-.53.33-.18,1.16-.75,1.82-1.74,5.32-3.4,6.96-4.72Z"/>
            <path class="cls-32" d="m116.48,103.24c.61-.64.45-.67.51-.72.94-3.49,2.89-10.95.8-13.3-.19.03-.13,1.62.15,4.47-.76,1.82-1.89,5.69-2.62,8.16-2.27,1.74-4.72,3.54-7.11,5.24-3.86,1.66-8.35,2.8-12.33,4.39-1.67-.03-2.95-.21-4.8-.12-5.59,2.17-12.35,1.24-17.66-1.22-3.73-2.04-8.19-5.45-12.22-6.82-.9-.82-2.68-2.14-3.51-3.02-2.09-4.12-4.63-8.19-7.34-11.74-.21-.66-.79-3.12-1.12-4.3.54-2.46-.1-7.68-.41-9.63,1.09-2.19,1.7-3.57,1.76-3.99-2.81,1.99-3.29,5.49-2.59,8.93-.56,2.64-.73,6.01.2,8.86,1.16,3.28,4.18,6.44,5.6,9.75.5.92,1.7,3.58,2.15,4.02.95.84,2.6,2.27,3.55,3.1,1.64.96,3.13,1.47,4.65,2.26,7.89,5.91,17.97,10.14,27.66,6.35.4.17,3.43.08,4.24.15-.1.02.97-.17.53-.09,7.85-2.88,13.85-4.63,19.93-10.75Z"/>
            <path class="cls-32" d="m115.85,95.64c.37-.71.14-.4.24-.65.19-2.02,1.05-3.67.6-5.54-.66-2.49-1.12-3.85-1.3-3.81.18,4.29.75,8.46-3.91,12.69-9.35,5.73-7.71,5.55-18.78,6.46-.04-.02-2.15.5-2.19.45-.57-.07-1.56-.23-2.13-.29-1.95-.38-4.89-.37-6.94-.35-1.12-.23-3.28-.67-4.4-.9-13.65-5.22-26.12-14.63-23.66-30.92,5.99-16.3-18.66,18.58,23.1,33.64,1.46.24,3.97.97,5.4.94,2.77-.1,5.75.16,8.54.59.62,0,4.07-.83,4.85-1.04,1.13,0,3.43.04,4.56.05,0,0,.14,0,.14,0,1.03-.19.12,0,.59-.13,1.26-.47,3-1.16,4.26-1.65,4.24-2.85,8.76-5.19,11.05-9.54Z"/>
            <path class="cls-32" d="m95.27,91.15c8.09-1.49,16.68-7.15,13.63-16.18-.34,13.7-15.98,15.32-27.97,12.73-2.27-1.1-6.26-2.93-9.05-3.89-1.11-.96-2.36-1.68-3.31-2.7-.57-1-1.41-2.47-1.98-3.48-4.69-4.44-4.72-12.11-2.87-15.56-3.93,2.96-3.43,9.01-1.6,13.18,1.68,2.33,3.21,4.94,4.46,7.51.94,1.06,1.99,1.71,3.22,2.79.52.63,2.65,1.36,3.55,1.75,5.96,3.51,15.25,4.83,21.93,3.85Z"/>
            <path class="cls-31" d="m122.84,98.66c-1.78-7.11-7.52-12.73-12-19.71-3.01-4.68-3.15-10.21-6.83-15.22,10.71,26.44,4.85,62.01-38.23,60.34,30.64,13.88,61.46-5.76,57.07-25.41Z"/>
            <path class="cls-7" d="m69.22,64.36c-17.32,5.35-5.49,25.73,3.39,13.79,1.23-3.07,1.34-6.62,4.07-9.7,2.28-2.58-2.39-6.18-7.46-4.09Z"/>
          </g>
          <path class="cls-18" d="m197.74,106.74c3.84-.85,7.87-1.49,11.98-1.95-11.29-7.22-3.46-16.61,18.41-21.43,22.81-5.02,52.24-3.16,65.74,4.16,20.9,11.1-11.07,23.39-28.85,24.3,11.29,7.22,3.46,16.61-18.41,21.43-22.81,5.02-52.24,3.16-65.74-4.16-13.5-7.32-5.94-17.32,16.87-22.35Z"/>
          <g>
            <path class="cls-17" d="m242.87,41.55c-11.07,5.3-9.47,12.86-13.3,18.82-3.83,5.96-8.72,10.76-10.25,16.82-1.81,7.22,5.21,27.67,33.63,25.32,28.42-2.35,39.66-25.14,37.52-35.34-4.51-16.07-31.28-31.01-47.61-25.62Z"/>
            <path class="cls-13" d="m247.96,40.32v-.08c2.5-.03,6.63,1.29,9.18,1.31,3.35,1.4,7.65,3.88,11.21,4.72,3.45,1.3,7.63,3.95,10.09,6.71,4.13,2.92,8.66,7.13,11.12,11.59l.17.03c1.42,3.72,1.32,6.95-.05,11.56-1.33-3.28-3.21-7.77-5.05-10.81-3.84-5.42-8.73-11.16-13.83-15.43-2.88-2.43-7.58-4.43-10.84-6.24-3.55-1.1-8.26-3.01-11.99-3.37Z"/>
            <path class="cls-13" d="m224.61,93.21l.77-.3c1.92-4.65,6.01-9.16,7.63-13.95.93-3.42,2.69-7.94,3.24-11.46,0,0,1.18-3.8,1.18-3.8l.12-4.01c1.33-4.84,1.82-10.77,1.39-15.76h-.03c.15-.13.33-.23.49-.36.12,2.04.76,6.05,1.27,8.03,0,0-.56,4.13-.56,4.13.7,6.51,1.02,13.94-.21,20.41-1.2,3.49-1.43,8.5-2.08,12.11-1.9,3.13-3.73,7.78-5.05,11.18-3.42-1.67-6.1-3.84-8.14-6.2Z"/>
            <path class="cls-13" d="m247.05,43.72l-2.53-2.82c.22-.07.45-.13.68-.19,4.09,3.03,9.42,5.95,13.75,8.64,0,0,2.57,3.3,2.57,3.3l3.69,2.03,2.14,3.65,3.02,2.76c1.23,1.65,4.01,4.67,5.55,6.04,0,0,2.17,3.49,2.17,3.49l2.2,3.46,1.32,3.92c.97,1.47,3.32,4.36,4.79,5.34-2.96,4.85-7.48,9.63-13.69,13.23-.69-3.54-.78-8.46-2.16-11.85,0,0-.6-4.01-.6-4.01l-1.79-3.67-.54-4.07-2.45-3.37c-.62-1.91-2.06-5.68-2.87-7.51-1.15-1.66-3.14-5.18-3.97-7.02-3.07-3.96-6.98-8.67-11.26-11.34Z"/>
            <path class="cls-13" d="m252.97,102.51c-2.17.18-4.22.23-6.15.15.23-2.04.6-6.12.73-8.17.57-2.03.88-6.04.63-8.13,0,0,.91-4.07.91-4.07l-.13-4.11c-.35-2.04-.53-6.14-.38-8.21-1.69-6.36-2.74-13.68-3.92-20.16,0,0-1.96-3.69-1.96-3.69l-.39-4.3c.14-.07.28-.14.42-.21,0,0,1.47,3.67,1.47,3.67l2.74,2.93s1.39,3.74,1.39,3.74l2.31,3.26,1.11,3.82c1.25,3.28,2.85,7.81,4.28,11.02.6,3.47,2.25,7.99,2.91,11.45.86,3.43,2.48,7.97,2.27,11.56.64,1.9,1.15,5.81,1.01,7.82-2.86.78-5.94,1.34-9.27,1.61Z"/>
            <path class="cls-32" d="m245.81,61.69c-5.79.45-13.44-2.18-13.19-8.71.27-.16,1.78,2.74,1.86,3.24,4.05,3.59,9.72,3.93,14.64,2.41,7.55-2.04,13.59-8.81,10.41-15.3-4.05-2.6-2.7-2.66.86-.95,1.46,1.94,1.95,5.24,1.68,7.81.03-.09-.24.83-.13.44-2.75,6.68-9.26,10.24-16.14,11.05Z"/>
            <path class="cls-32" d="m226.31,91.62c-1.14-2.54-2.65-4.13-4.53-6.3-.58-2.53-2.29-5.7-2.47-7.65,1.48-4.36,1.99-4.3.84.23.91,1.77,2.17,4.55,2.98,6.82,1.71,1.44,3.49,3.54,4.62,5.76,2.01.9,4.36,2.58,6.32,3.88,2.17.34,4.81,1.28,6.85,2.42,3.67.31,7.56,1.62,11.08,1.41,3.65-1.42,7.51-2.03,11.45-2.04,1.38-.97,1.74-1.54,3.52-2.52,2.1-.64,4.92-1.97,6.62-3.27,1.61-1.63,3.91-3.41,5.8-4.61.66-.58,2.14-1.87,2.78-2.43,2.13-4.51,4.1-9.17,6.18-13.6.43-3.32-.65-8.54-1.81-10.74,2.7,3.17,3.43,6.92,3.18,11.27-1.89,4.67-3.69,9.37-5.76,14.08-1.6,1.89-4.2,3.83-6.39,5.36-2.15,2.18-4.39,3.99-7.28,5.19-2.03.51-3.96,1.9-5.68,3.35-.31.11.66-.24-.69.26-.26.02-.83.03-1.1.05-1.95.01-4.67.33-6.59.72-1.08.37-2.52.85-3.6,1.21.08-.01-.79.12-.43.06-4.42.07-8.09-1.09-12.22-1.76-2.04-1.17-4.35-2.04-6.75-2.51-.91-.45-.28-.15-.99-.64-1.55-1.48-4.57-2.92-5.94-4.03Z"/>
            <path class="cls-32" d="m224.76,81.11c-.52-.54-.39-.57-.43-.62-.8-2.98-2.47-9.34-.68-11.35.16.03.11,1.38-.13,3.81.65,1.56,1.61,4.86,2.24,6.97,1.94,1.49,4.03,3.03,6.07,4.47,3.29,1.42,7.13,2.39,10.53,3.75,1.42-.03,2.51-.18,4.1-.1,4.78,1.86,10.53,1.06,15.07-1.04,3.19-1.74,6.99-4.65,10.43-5.82.77-.7,2.29-1.82,2.99-2.57,1.79-3.52,3.95-6.99,6.27-10.02.18-.56.68-2.66.96-3.67-.46-2.1.09-6.55.35-8.22-.93-1.87-1.45-3.04-1.5-3.4,2.4,1.7,2.81,4.69,2.21,7.62.48,2.25.62,5.13-.17,7.56-.99,2.8-3.57,5.5-4.78,8.32-.43.78-1.45,3.05-1.83,3.43-.81.71-2.22,1.94-3.03,2.65-1.4.82-2.67,1.26-3.97,1.93-6.68,5.03-15.39,8.66-23.61,5.42-.34.15-2.93.07-3.62.13.09.02-.83-.14-.45-.08-6.5-2.35-12.04-4.1-17.01-9.18Z"/>
            <path class="cls-32" d="m225.3,74.62c-1.1-2.24-.76-7.38.4-8.53-.19,3.47-.54,7.44,3.33,10.83,7.65,4.75,6.89,4.82,16.03,5.52.03-.02,1.83.43,1.87.38.48-.06,1.33-.19,1.82-.25,1.66-.32,4.2-.31,5.93-.3.96-.2,2.8-.57,3.75-.77,11.53-4.33,22.38-12.66,20.19-26.39-4.93-13.68,15.73,16-19.72,28.71-1.25.2-3.39.82-4.61.81-2.36-.09-4.9.14-7.29.5-.53,0-3.48-.71-4.14-.89-.96,0-2.93.03-3.89.04-1.29-.18-2.84-1.04-4.25-1.51-3.62-2.43-7.48-4.43-9.43-8.14Z"/>
            <path class="cls-32" d="m242.87,70.79c-6.85-1.18-14.25-6.22-11.63-13.81.29,11.69,13.64,13.08,23.88,10.87,1.94-.94,5.35-2.5,7.73-3.32.94-.82,2.02-1.44,2.82-2.31.49-.86,1.2-2.11,1.69-2.97,3.97-3.66,4.03-10.47,2.45-13.29,3.36,2.53,2.93,7.69,1.37,11.25-1.43,1.98-2.73,4.2-3.79,6.39-.78.92-1.71,1.47-2.76,2.4-.44.54-2.26,1.16-3.03,1.49-5.08,2.99-13.02,4.13-18.72,3.29Z"/>
            <path class="cls-31" d="m219.33,77.2c1.52-6.06,6.42-10.86,10.25-16.82,2.57-4,2.69-8.71,5.83-12.99-9.14,22.57-4.14,52.92,32.63,51.5-25.69,12.02-52.83-5.31-48.71-21.69Z"/>
            <path class="cls-7" d="m265.11,47.92c14.51,4.27,5.05,22.04-2.9,11.77-1.05-2.62-1.15-5.65-3.47-8.28-1.95-2.2,2.04-5.27,6.37-3.49Z"/>
          </g>
          <g>
            <path class="cls-17" d="m205.46,56.89c-12.97,6.21-11.09,15.07-15.58,22.05-4.48,6.98-10.22,12.61-12,19.71-2.12,8.46,6.11,32.42,39.4,29.66,33.3-2.76,46.47-29.46,43.96-41.41-4.96-18.61-37.01-36.48-55.78-30.01Z"/>
            <path class="cls-13" d="m211.42,55.45v-.1c2.92-.04,7.76,1.51,10.76,1.54,3.93,1.64,8.96,4.55,13.14,5.53,4.04,1.52,8.94,4.63,11.82,7.86,4.83,3.42,10.15,8.35,13.03,13.58l.2.03c1.66,4.36,1.54,8.14-.05,13.54-1.56-3.85-3.76-9.1-5.92-12.66-4.5-6.35-10.23-13.07-16.21-18.08-3.38-2.84-8.88-5.19-12.7-7.31-4.15-1.29-9.68-3.52-14.05-3.95Z"/>
            <path class="cls-13" d="m184.06,117.42l.9-.35c2.25-5.45,7.05-10.73,8.94-16.35,1.09-4.01,3.15-9.3,3.79-13.43,0,0,1.38-4.46,1.38-4.46l.14-4.69c1.56-5.67,2.13-12.62,1.62-18.47h-.04c.17-.15.38-.27.58-.42.14,2.4.89,7.09,1.48,9.41,0,0-.66,4.84-.66,4.84.82,7.63,1.2,16.33-.25,23.91-1.4,4.09-1.68,9.96-2.44,14.18-2.23,3.66-4.37,9.11-5.92,13.09-4.01-1.95-7.14-4.49-9.54-7.26Z"/>
            <path class="cls-13" d="m210.35,59.43l-2.96-3.3c.26-.08.53-.16.8-.23,4.79,3.55,11.04,6.98,16.11,10.12,0,0,3.01,3.86,3.01,3.86l4.32,2.38s2.5,4.27,2.5,4.27l3.53,3.23c1.44,1.94,4.7,5.47,6.5,7.08,0,0,2.54,4.08,2.54,4.08l2.57,4.06,1.55,4.59c1.14,1.72,3.88,5.1,5.62,6.25-3.47,5.68-8.77,11.28-16.04,15.51-.81-4.15-.92-9.91-2.53-13.88,0,0-.71-4.7-.71-4.7l-2.1-4.3-.64-4.77-2.88-3.94c-.73-2.23-2.42-6.65-3.36-8.8-1.35-1.94-3.67-6.07-4.65-8.22-3.57-4.61-8.22-10.19-13.2-13.29Z"/>
            <path class="cls-13" d="m217.28,128.32c-2.54.21-4.94.26-7.2.18.27-2.39.7-7.17.85-9.57.67-2.39,1.03-7.06.73-9.53,0,0,1.07-4.77,1.07-4.77l-.15-4.81c-.41-2.39-.62-7.2-.44-9.62-1.98-7.45-3.21-16.03-4.59-23.62,0,0-2.29-4.33-2.29-4.33,0,0-.45-5.04-.45-5.04.16-.08.32-.16.49-.24l1.72,4.3,3.21,3.44s1.62,4.38,1.62,4.38,2.71,3.82,2.71,3.82l1.31,4.48c1.47,3.84,3.34,9.15,5.02,12.91.71,4.07,2.64,9.37,3.42,13.42,1,4.01,2.91,9.34,2.66,13.55.75,2.23,1.34,6.81,1.18,9.16-3.35.91-6.96,1.57-10.86,1.89Z"/>
            <path class="cls-32" d="m208.9,80.49c-3.99.26-7.58-.54-10.79-2.14-2.86-1.99-5-4.93-4.67-8.06.31-.19,2.09,3.21,2.18,3.8,5.04,4.29,11.12,4.58,17.16,2.83,8.85-2.38,15.92-10.32,12.2-17.93-4.74-3.05-3.16-3.12,1.01-1.11,1.72,2.29,2.28,6.13,1.97,9.15.03-.11-.28.97-.15.52-3.3,7.91-10.75,11.95-18.91,12.94Z"/>
            <path class="cls-32" d="m186.05,115.56c-1.34-2.97-3.11-4.84-5.31-7.38-.83-2.78-2.03-6.04-2.91-8.33,0,0-.03-.07-.03-.07-.05-.73,0-.24,0-.42l.05-.14c1.76-5.15,2.33-5.08.98.27,1.07,2.07,2.54,5.33,3.49,8,2.01,1.68,4.09,4.16,5.42,6.75,2.36,1.06,5.1,3.02,7.41,4.55,2.54.4,5.63,1.5,8.03,2.83,4.3.36,8.86,1.9,12.98,1.65,4.28-1.66,8.8-2.38,13.42-2.39,1.62-1.13,2.03-1.81,4.13-2.95,2.46-.74,5.76-2.31,7.75-3.84,1.89-1.91,4.58-3.99,6.8-5.4.77-.68,2.51-2.19,3.26-2.85,2.5-5.28,4.8-10.74,7.24-15.93.5-3.89-.76-10-2.12-12.58,3.16,3.71,4.02,8.11,3.73,13.2-2.21,5.47-4.33,10.98-6.75,16.5-1.89,2.23-4.92,4.49-7.48,6.28-2.52,2.55-5.14,4.68-8.53,6.08-2.4.61-4.62,2.21-6.65,3.93-.36.13.77-.28-.81.3-.31.02-.98.04-1.29.06-2.29.01-5.47.39-7.72.84-1.27.43-2.95,1-4.22,1.42.1-.01-.92.14-.5.08-5.18.08-9.48-1.28-14.32-2.06-2.39-1.37-5.1-2.39-7.91-2.94-1.07-.53-.33-.18-1.16-.75-1.82-1.74-5.32-3.4-6.96-4.72Z"/>
            <path class="cls-32" d="m184.24,103.24c-.61-.64-.45-.67-.51-.72-.94-3.49-2.89-10.95-.8-13.3.19.03.13,1.62-.15,4.47.76,1.82,1.89,5.69,2.62,8.16,2.27,1.74,4.72,3.54,7.11,5.24,3.86,1.66,8.35,2.8,12.33,4.39,1.67-.03,2.95-.21,4.8-.12,5.59,2.17,12.35,1.24,17.66-1.22,3.73-2.04,8.19-5.45,12.22-6.82.9-.82,2.68-2.14,3.51-3.02,2.09-4.12,4.63-8.19,7.34-11.74.21-.66.79-3.12,1.12-4.3-.54-2.46.1-7.68.41-9.63-1.09-2.19-1.7-3.57-1.76-3.99,2.81,1.99,3.29,5.49,2.59,8.93.56,2.64.73,6.01-.2,8.86-1.16,3.28-4.18,6.44-5.6,9.75-.5.92-1.7,3.58-2.15,4.02-.95.84-2.6,2.27-3.55,3.1-1.64.96-3.13,1.47-4.65,2.26-7.89,5.91-17.97,10.14-27.66,6.35-.4.17-3.43.08-4.24.15.1.02-.97-.17-.53-.09-7.85-2.88-13.85-4.63-19.93-10.75Z"/>
            <path class="cls-32" d="m184.87,95.64c-.37-.71-.14-.4-.24-.65-.19-2.02-1.05-3.67-.6-5.54.66-2.49,1.12-3.85,1.3-3.81-.18,4.29-.75,8.46,3.91,12.69,9.35,5.73,7.71,5.55,18.78,6.46.04-.02,2.15.5,2.19.45.57-.07,1.56-.23,2.13-.29,1.95-.38,4.89-.37,6.94-.35,1.12-.23,3.28-.67,4.4-.9,13.65-5.22,26.12-14.63,23.66-30.92-5.99-16.3,18.66,18.58-23.1,33.64-1.46.24-3.97.97-5.4.94-2.77-.1-5.75.16-8.54.59-.62,0-4.07-.83-4.85-1.04-1.13,0-3.43.04-4.56.05,0,0-.14,0-.14,0-1.03-.19-.12,0-.59-.13-1.26-.47-3-1.16-4.26-1.65-4.24-2.85-8.76-5.19-11.05-9.54Z"/>
            <path class="cls-32" d="m205.45,91.15c-8.09-1.49-16.68-7.15-13.63-16.18.34,13.7,15.98,15.32,27.97,12.73,2.27-1.1,6.26-2.93,9.05-3.89,1.11-.96,2.36-1.68,3.31-2.7.57-1,1.41-2.47,1.98-3.48,4.69-4.44,4.72-12.11,2.87-15.56,3.93,2.96,3.43,9.01,1.6,13.18-1.68,2.33-3.21,4.94-4.46,7.51-.94,1.06-1.99,1.71-3.22,2.79-.52.63-2.65,1.36-3.55,1.75-5.96,3.51-15.25,4.83-21.93,3.85Z"/>
            <path class="cls-31" d="m177.88,98.66c1.78-7.11,7.52-12.73,12-19.71,3.01-4.68,3.15-10.21,6.83-15.22-10.71,26.44-4.85,62.01,38.23,60.34-30.64,13.88-61.46-5.76-57.07-25.41Z"/>
            <path class="cls-7" d="m231.5,64.36c17.32,5.35,5.49,25.73-3.39,13.79-1.23-3.07-1.34-6.62-4.07-9.7-2.28-2.58,2.39-6.18,7.46-4.09Z"/>
          </g>
          <g>
            <g>
              <path class="cls-26" d="m169.72,71.72c.37,1.94-4.41,4.2-5.71,4.21-1.49-1.22,4.39-4.65,5.71-4.21Z"/>
              <path class="cls-26" d="m166.43,56.25c1.79,2.18-3.76,5.34-5.53,4.37-1.83-2.26,4.01-5.38,5.53-4.37Z"/>
              <path class="cls-20" d="m164.61,76.92c-.31,2.18-6.05,3.78-7.86,2.79.51-2.06,5.83-3.76,7.86-2.79Z"/>
              <path class="cls-23" d="m159.06,65.57c3.55,2.06,7.1,4.1,10.66,6.16-1.65-.22-6.28,2.38-5.94,4.14h0c-3.21-2.44-9.38-4.24-11.34-7.2,1.48.56,7.11-1.05,6.62-3.09Z"/>
              <path class="cls-23" d="m155.21,49.77c3.73,2.16,7.48,4.33,11.23,6.48-1.52-1.01-7.36,2.11-5.53,4.37-3.66-2.69-9.95-4.58-12.36-7.79,1.83.47,6.45-1,6.67-3.07Z"/>
              <path class="cls-5" d="m154.83,42.63c-.17,2.54-6.78,4.19-7.55,1.13-.25-2.17,6.74-4.37,7.55-1.13Z"/>
              <path class="cls-11" d="m163.78,75.86c.06.04.14.06.23.07.2.34.39.66.6.99-2.03-.96-7.35.73-7.86,2.79-6.33-11.26-9.63-24.39-9.47-35.95.77,3.06,7.38,1.41,7.55-1.13-.45,2.46,1.03,5.83-.09,8.21-1.56,1.17-4.2,2.52-6.21,2,1.12,2.39,5.84,3.49,8.24,5.41.46,2.79,2.09,5.51,2.29,8.08-.77,1.29-5.12,2.98-6.61,2.33,1.96,2.96,8.12,4.76,11.34,7.21h0Z"/>
            </g>
            <g>
              <path class="cls-3" d="m176.86,104.15v-6c-1.75-1.52-5.75-2.29-6.29-4.29,2.18.65,5.53-.49,6.87-2.33.38-1.93.84-3.88,1.62-5.69-1.23-1.15-4.54-1.68-4.58-3.31,1.22.89,4.61.33,6.18-.29,2.4-1.93,4.33-3.49,7.5-3.64-.56-.88-1.03-.93-1.1-2.65-.66.06-3.38-3.05-4.05-4.2-16.21,7.48-13.5,28.92-13.68,43.95,1.47,6.46,9.13,1.91,7.55-3.99-1.91-1.62-6.07-2.46-6.77-4.56,1.37.68,6.86-1.09,6.77-3.01Z"/>
              <path class="cls-11" d="m176.86,21.53c-.06-4.42,1.51-15.05-6.11-10.26-3.26,4.98-.64,12.24-1.44,18.04.54,2.73,6.09,1.65,7.31-.35-1.84-1.57-5.9-2.37-6.53-4.43,1.36.65,6.75-1,6.77-3.01Z"/>
              <path class="cls-23" d="m170.57,94.51c10.93,6.32,22.09,12.75,32.96,19.03v-.65c-1.8-2-1.2-5.66-2.25-8.21h0c-7.9-4.57-15.81-9.13-23.71-13.7-.68,2.4-4.8,3.49-6.99,2.88-.13.22-.22.51,0,.65Z"/>
              <path class="cls-11" d="m178.76,64.96c1.46-1.86,5.68-3.51,7.89-2.46h0c1.55,2.54,3.48,4.95,5.28,7.35-2.9.1-4.81,3.28-4.89,6.11-3.16-1.93-6.55-7.51-8.29-11.01Z"/>
              <path class="cls-23" d="m185.75,60.82c5.23-7.09,9.54-.87,15.27,1.8-.54,1.95-3.51,4.33-1.4,6.1,0,.22,0,.44,0,.66-4.52-2.61-9.32-5.37-13.75-7.94h0c-.27-.1-.26-.36-.13-.62Z"/>
              <path class="cls-23" d="m174.47,83.2c8.36,4.82,16.84,9.73,25.16,14.53,0-.22,0-.44,0-.67-2.67-2.55-3.49-7.41-5.65-10.16-3.72-2.13-7.41-4.28-11.13-6.42-1.6,2.1-6.13,3.29-8.39,2.06-.12.23-.22.52,0,.66Z"/>
              <path class="cls-23" d="m182.53,45.1c.51-1.83,3.96-4.14,5.94-3.29,4.92,2.84,9.84,5.67,14.75,8.51.39,2.14-1.29,5.42.31,7.1v.66c-6.8-3.93-13.81-7.97-20.58-11.89,0,0,0,0-.02,0-.38-.22-.5-.62-.39-1.08Z"/>
              <path class="cls-11" d="m203.22,134.56c-.27,2.23,1.21,4.13,3.8,3.7,6.95-1.6,2.62-14.48,3.76-19.96.03-14.28-5.34-30.43-13.69-41.59-3.22,1.52-6.98,1.06-10.03-.74,1.18,4.49,4.95,6.68,6.93,10.93h0c2.16,2.75,2.98,7.62,5.65,10.16,0,.23,0,.45,0,.67-.22-.12-.43-.25-.65-.37.9,2.39,1.68,4.84,2.29,7.32h0c1.05,2.55.45,6.21,2.25,8.21v.65c-.23-.13-.45-.26-.68-.39,1.12,4.63-.85,9.63,1.15,13.59v.65c-.26-.15-.52-.3-.78-.45v7.62Z"/>
              <path class="cls-3" d="m203.21,50.31c.39,2.14-1.29,5.42.31,7.1v.66c-.33-.19-.67-.39-1-.58.31,3.6-5.25,8.99-2.89,11.23,0,.22,0,.44,0,.66-.79-.46-1.59-.92-2.41-1.39-4.26,2.97-9.69.5-10.18,7.97,8.54,4.62,16.34-1.29,20.55-10.31,4.56-10.31,2.87-21.95,3.18-32.9,0-3.37-4.36-3.95-6.49-1.53-1.59,1.81-1.69,11.12-.28,12.9v.65c-.26-.15-.52-.3-.78-.46,0,2,.01,3.99,0,6Z"/>
              <path class="cls-23" d="m170.09,25.19c11.24,6.5,22.75,13.12,33.91,19.58v-.65c-1.64-1.75-.43-5.1-.78-7.37-8.79-5.07-17.57-10.15-26.36-15.22-.02,2.01-5.41,3.66-6.77,3.01-.12.23-.21.52,0,.65Z"/>
              <path class="cls-23" d="m170.09,107.81c11.25,6.49,22.73,13.13,33.91,19.57v-.65c-1.66-1.78-.42-5.08-.78-7.37-8.79-5.07-17.57-10.14-26.36-15.22.09,1.92-5.4,3.69-6.77,3.01-.12.22-.21.51,0,.65Z"/>
            </g>
          </g>
          <g>
            <g>
              <path class="cls-11" d="m129.84,35.13c.26-2.24.37-4.34.37-6.19,2.16-1.25,4.32-2.49,6.48-3.74h0c.16-.1.39-.18.38-.4h.65c.01,4.68.1,9.21-.61,13.92l-.51-.08c.03-.15-.05-.33-.12-.47-1.91.41-6.31-.92-6.63-3.05Z"/>
              <path class="cls-11" d="m134.59,10.79c.96.63-.27,1.11-.88.82-1.72-.7.07-1.47.88-.82Z"/>
              <path class="cls-11" d="m134.59,10.79c-.81-.64-2.6.13-.88.82.61.28,1.85-.19.88-.82Zm-4.38,2.3c0-1.96,1.59-3.29,3.78-2.95,6.41,1.66,2.87,9.91,3.73,14.67h-.65c0-.14-.06-.29-.12-.4-8.97.32-6.41-5.21-6.74-11.32Z"/>
              <path class="cls-11" d="m126,50.85c.33-.94,1.31-3.46,2.28-7.29,2.75-1.69,5.75-3.12,8.32-4.91l.51.08c-.73,5.33-2.11,10.71-4.01,15.82l-.39-.14c.03-.16-.05-.34-.13-.48-1.69.69-7.43-1.48-6.59-3.07Z"/>
              <path class="cls-11" d="m133.1,54.55c-2.3,6.22-5.38,12.03-9,16.86-.02,0-.04-.02-.05-.02-.38-2.45-3.58-5.8-6.14-5.46,2.91-6.07,9.72-8,14.81-11.52l.39.14Z"/>
              <path class="cls-3" d="m129.52,90.53c-.33-1.74-.82-3.49-1.5-5.11,1.22-1.13,4.55-1.67,4.56-3.29-1.38.95-5.81.44-7.21-1h0c-1.62-1.91-4-2.62-6.41-2.89.65-.75,1.17-1.61,1.1-2.64.83-.64,1.74-1.05,2.35-1.94h0c.56-.75,1.12-1.49,1.68-2.24,16.11,7.4,13.44,28.8,13.62,43.74-1.46,6.58-9.22,1.5-7.51-3.98,1.9-1.61,6.03-2.44,6.74-4.54-1.98.59-4.66-.72-6.21-1.87-1.26-1.93-.19-4.83-.54-7.1,1.75-1.5,5.72-2.27,6.27-4.27-1.56.76-7.05-.96-6.96-2.86Z"/>
              <path class="cls-28" d="m124.1,71.41c-.04.05-.08.11-.12.16.03-.05.05-.11.07-.18.02,0,.04.02.05.02Z"/>
              <path class="cls-11" d="m122.48,73.56s-.03.06-.05.08h0c-.61.9-1.51,1.31-2.35,1.95-.13-3.34-2.34-6.01-4.86-6.08,1.23-1.05,1.87-3.88,3.66-3.66,2.94,1.25,7.17,4.86,3.6,7.71Z"/>
              <path class="cls-23" d="m109.94,67.65c-.8.47-1.6.93-2.39,1.38,0-.14,0-.49,0-.66.79-.58,1.06-1.89.3-2.95,0,0,0,0,0,0-.66-.95-1.22-2-1.68-3.11,6.61-3.81,13.23-7.64,19.84-11.45-.84,1.59,4.9,3.76,6.59,3.07-5.7,5.2-15.68,9.08-22.65,13.73Z"/>
              <path class="cls-23" d="m108.18,96.87c-.21.13-.42.25-.63.37,0-.17,0-.52,0-.66,6.69-11.44,4.09-9.7,16.69-16.51.41.31.79.66,1.14,1.04h0c1.4,1.45,5.82,1.97,7.21,1.01-6.44,5.62-16.77,9.7-24.4,14.75Z"/>
              <path class="cls-11" d="m103.98,134.63c.05,3.2-4.04,3.83-6.08,1.9-3.29-5.27-.61-12.74-1.44-18.81-.03-14.25,5.33-30.31,13.62-41.39,3.2,1.5,7.05,1.07,9.99-.74-.96,4.14-5.11,6.96-6.9,10.88-2.36,3.12-2.92,7.51-5.62,10.12,0,.13,0,.49,0,.66.21-.12.42-.24.63-.37-2.38,4.81-2.19,10.92-4.52,15.46v.66c.23-.13.45-.26.68-.39-.56,4.4-.29,7.99-.39,12.21-.07.58-.37,1.08-.76,1.3v.66c.26-.15.51-.3.78-.45v8.32Z"/>
              <path class="cls-23" d="m104.66,57.2c-.33.19-.66.39-1,.57v-.65c1.59-1.68-.08-4.92.32-7.07,8.62-4.97,17.24-9.95,25.86-14.92.32,2.13,4.72,3.47,6.63,3.05-8.91,7.02-21.78,12.58-31.81,19.01Z"/>
              <path class="cls-23" d="m104.35,112.6c-.23.14-.45.26-.68.39v-.66c1.81-2.09,1.18-5.59,2.24-8.18,7.86-4.53,15.73-9.08,23.61-13.62-.09,1.9,5.4,3.62,6.96,2.86-9.04,7.1-21.95,12.69-32.13,19.2Z"/>
              <path class="cls-23" d="m103.2,126.11c1.64-1.78.42-5.05.78-7.33,8.75-5.05,17.49-10.1,26.23-15.15.49,2.25,4.66,3.46,6.74,3-.71,2.1-4.83,2.93-6.74,4.54h0c-8.98,5.2-18.13,10.46-27.01,15.6v-.66Z"/>
              <path class="cls-23" d="m103.33,44.29c0-.13-.07-.29-.13-.4,1.64-1.73.42-5.08.78-7.33,8.75-5.05,17.49-10.09,26.23-15.15-.36,1.61,5.25,3.77,6.74,3,.21.32.13.68-.26.79h0c-11.17,6.44-22.32,12.9-33.49,19.34.08-.05.13-.15.13-.25Z"/>
              <path class="cls-28" d="m103.33,44.29c0,.1-.05.2-.13.25v-.65c.06.11.13.27.13.4Z"/>
              <path class="cls-24" d="m99.4,30.17c.41-.27,1.31-.12,1.67.28.76,1.25-2.58.67-1.67-.28Z"/>
              <path class="cls-3" d="m101.07,30.45c-.36-.4-1.26-.55-1.67-.28-.91.95,2.43,1.53,1.67.28Zm2.91,3.26c-.46,3.18,1.03,7.54-.78,10.18v.65c.26-.15.51-.3.78-.45-.65,4.09,1.26,9.48-.31,13.03v.65c.33-.19.66-.39,1-.57.54,2.84,1.51,5.83,3.18,8.22,0,0,0,0,0,0,.76,1.07.49,2.37-.3,2.95,0,.16,0,.52,0,.66.79-.45,1.59-.91,2.39-1.38,3.93,2.71,9.98.9,10.14,7.93-15.09,7.68-24.65-14.33-23.61-27.22,1.01-4.36-2.79-18.72,3.14-18.79,2.4,0,4.37,1.94,4.37,4.13Z"/>
            </g>
            <g>
              <g>
                <path class="cls-28" d="m130.41,75.87c-1.74-3.31,4.72-13.27,8.12-7.83,1.74,3.29-4.71,13.28-8.12,7.83Zm3.44-8.37c-2.69,1.51-6.09,9.82-1.13,8.98,3.61-.1,8.27-13.01,1.13-8.98Z"/>
                <path class="cls-28" d="m139.76,69.54c.93,4.46-7.79,13.68-9.26,5.78-.93-4.45,7.79-13.69,9.26-5.78Zm-4.74,7.89c3.42-1.77,6.94-9.48,2.04-10.53-5.48-.19-9.63,13.31-2.04,10.53Z"/>
                <path class="cls-23" d="m139.67,68.24c1.75,6.73-8.3,15.23-11.68,6.42-1-6.73,8-14.02,11.68-6.42Zm-3.02,8.36c2.6-2.21,5.42-9.89.22-10.14-7.05.55-9.34,17.28-.22,10.14Z"/>
                <path class="cls-30" d="m138.16,68.59c.63,3.4-2.35,7.57-4.77,8.36-6.96,1.35,2.14-14.89,4.77-8.36Z"/>
                <path class="cls-27" d="m132.93,78.57c-1.91,5.46-2.62,7.52-4.53,12.98-.11.31-.52.29-.84.24-.59-.1-1.94-.57-1.74-1.14,1.92-5.49,2.65-7.59,4.57-13.08.82.44,1.52,1.05,2.54,1Z"/>
                <path class="cls-23" d="m131.07,76.34c-1.74-3.31,4.72-13.27,8.12-7.83,1.74,3.29-4.71,13.28-8.12,7.83Zm3.44-8.37c-2.69,1.51-6.09,9.82-1.13,8.98,3.61-.1,8.27-13.01,1.13-8.98Z"/>
              </g>
              <path class="cls-9" d="m132,81.24c-.13.99-1.85.71-1.86.62-.37-.6-.77-1.24-.77-1.24,1.32-2.86-2.27.15-2.49.78-.06.4-.07,1.96,0,2.24.12.7,1.89,1.77,2.3,2.69l1.94-.81c-.05-1.01,2-3.53.87-4.28Z"/>
              <g>
                <path class="cls-29" d="m157.2,135.45c9.22,7.03-8.04,11.73-13.05,7.53-9.22-7.03,8.04-11.73,13.05-7.53Z"/>
                <path class="cls-10" d="m160.35,134.78c1.55,4.87-2.33,5.82-5.79,2.38-2.98-.79-9.77-3.11-3.49-4.39.97.14,4.63.57,5.2.38,0,0,4.09,1.63,4.09,1.63Z"/>
                <path class="cls-9" d="m150.59,140.39c1.87,4.27-.79,5.7-5.01,2.97-2.47-.57-7.41-2.49-4.14-4.75,2.4-.33,7.95,1.35,9.14,1.78Z"/>
                <g>
                  <path class="cls-23" d="m151.24,143.25l-10.83-3.14v.71h0c-.08,2.05,3.22,2.45,5.09,3.21,2.03,1.23,5.18,2.48,5.74-.19h0v-.59Z"/>
                  <path class="cls-6" d="m150.94,139.89c1.02,4.44-.52,6.44-5.44,3.48-2.61-.65-7.17-2.37-4.21-4.94,2.45-.26,8.21.82,9.65,1.46Z"/>
                  <path class="cls-14" d="m144.97,140.89c-.46-1.31,1.64-2.69,1.65-2.24-.02.42-1.21.39-1.5,2.12-.01.07-.07.12-.15.12Z"/>
                  <path class="cls-14" d="m143.64,140.65c-.46-1.26,1.59-2.63,1.6-2.18-.02.41-1.17.38-1.45,2.05-.01.07-.07.12-.15.12Z"/>
                  <path class="cls-14" d="m142.46,140.3c-.48-1.11,1.43-2.42,1.44-1.97-.01.41-1.04.33-1.3,1.84-.01.07-.07.12-.15.12Z"/>
                </g>
                <g>
                  <path class="cls-23" d="m160.68,137.86v-.57l-12.01-3.42v.66h0c.39,1.77,5.96,3.08,7.37,4.15,1.57,1.25,4.55,1.24,4.63-.83Z"/>
                  <path class="cls-6" d="m160.43,133.74c.54,2.98.55,7.04-4.38,4.28-1.79-1.21-11.95-4.05-4.79-5.44,2.93,0,6.64.6,9.17,1.17Z"/>
                  <path class="cls-14" d="m154.52,134.98c-.41-1.31,1.85-2.57,1.8-2.11-.12.29-1.25.6-1.8,2.11Z"/>
                  <path class="cls-14" d="m153.12,134.75c-.41-1.26,1.79-2.51,1.75-2.05-.12.29-1.21.59-1.75,2.05Z"/>
                  <path class="cls-14" d="m151.87,134.38c-.44-1.11,1.62-2.31,1.58-1.85-.05.41-1.07.25-1.44,1.74-.02.07-.08.11-.14.11Z"/>
                </g>
                <g>
                  <path class="cls-10" d="m162.68,82.27c-.52,3.49-5.13-.72-4.73-2.66.52-3.49,5.13.72,4.73,2.66Z"/>
                  <path class="cls-10" d="m162.61,82.26s.04,10.16-.45,11.73c-.58,1.86-3.2,9.75-3.2,9.75l-2.66-.57s.73-3.95,1.45-5.85c1.52-5.88.25-12.45.13-17.73l4.73,2.66Z"/>
                  <path class="cls-12" d="m162.94,82.45c-.55,3.68-5.27-.78-4.86-2.8.55-3.68,5.27.78,4.86,2.8Z"/>
                  <path class="cls-12" d="m159.04,102.76c3.07,2.77-6.14,2.77-3.08,0,.85-.49,2.23-.49,3.08,0Z"/>
                  <path class="cls-12" d="m162.84,93.79l.09-11.1s-4.84-3.16-4.87-3.04c-.03.13.05,7.12,0,11.65l-2.69,12.11,4.25.51,3.22-10.13Z"/>
                </g>
                <path class="cls-10" d="m159.72,133.92c2.16,1.63-1.91,2.67-3.06,1.72-2.16-1.63,1.91-2.67,3.06-1.72Z"/>
                <path class="cls-9" d="m158.86,98.87c3,1.73,3,4.55,0,6.28-4.18,3.49-18.56-.42-10.88-6.28,3-1.73,7.87-1.73,10.88,0Z"/>
                <path class="cls-28" d="m158.9,104.47l2.23.81c-.05.47-.65,12.59.3,13.65.9-.18-.93,16.78-.39,15.85h-5.28s.89-11.08.18-13.84c-.97-.71-3.95-17.27-2.3-18.15l5.26,1.68Z"/>
                <path class="cls-23" d="m161.12,101.83s.55,3.04-1.03,5.1c-1.58,2.05-3.1.86-5.21,2.88-2.11,2.01-2.31,9.72-4.02,13.81-.11,2.01.41,15.4.2,16.78h-5.28s-.46-13.42-.86-16.58c-.82-5.6,1.29-17.52.8-21.8l15.38-.18Z"/>
                <path class="cls-23" d="m148.42,142.08c-3.39.12-3.38-3.51,0-3.39,3.43-.12,3.35,3.54,0,3.39Z"/>
                <path class="cls-2" d="m161.3,103.38c0,.1-.4,11.82-.36,11.9-.6,6.46-15.54,7.64-16.25.63h0c.57-8.04,1.21-20.59.38-28.57.06-2.8,3.21-3.94,5.62-5.53.33-.3,5.36-1.19,5.17-2.68,8.62-3.39,6.93,5.16,5.01,11.75-1.41,6.3.08,7.66.43,12.5Z"/>
                <path class="cls-6" d="m155.77,79.67c-.84.93-4.66,1.97-5.09,2.14,1.73-1.01,3.42-1.89,5.17-2.68.05.05.18.22-.09.54Z"/>
                <path class="cls-9" d="m155.85,79.13c.18,1.49-4.85,2.39-5.18,2.68-.08-.06.65-2.71-.14-3.01,0,0-.72.04-.83,0-6.63-10.92,10.4-12.98,6-1.64-.31.53-.11,1.81.14,1.96,0,0,0,0,.02,0Z"/>
                <path class="cls-21" d="m157.04,72.76c-.15,2.67-1.5,5.08-1.5,5.08-.16.23-3.19.91-3.99-.06-.16-.45-.67-2.24-.6-2.51.2-.79.07-1.48-.89-1.57-.96-.09-.57,1.64-.57,1.64l-.78-.08c.09-1.13-.37-2.07-.9-3-.48-5.78,10.58-5.11,9.23.5Z"/>
                <path class="cls-8" d="m150.12,88.94c-.52,3.49-5.13-.72-4.73-2.66.52-3.49,5.13.72,4.73,2.66Z"/>
                <path class="cls-28" d="m158.4,136.47c-3.39.12-3.39-3.51,0-3.39,3.39-.12,3.39,3.51,0,3.39Z"/>
                <path class="cls-12" d="m150.27,88.96c-.49,3.62-5.27-.68-4.88-2.68.55-3.79,5.27.59,4.88,2.68Z"/>
                <polygon class="cls-4" points="138.52 93.31 149.49 90.29 146.13 84.91 138.93 87.86 131.72 83.32 129.27 86.77 138.52 93.31"/>
                <path class="cls-12" d="m149.82,82.31c.44-2.13,4.16-2.15,5.72-3.93,3.61,2.18-5.71,3.7-5.72,3.93Z"/>
              </g>
              <path class="cls-12" d="m132.09,84.13c.27,1.33-2.82,4.25-3.19,1.84-.27-1.33,2.82-4.25,3.19-1.84Z"/>
            </g>
          </g>
          <g>
            <polygon class="cls-25" points="25.16 60.66 23.16 61.09 11.64 7.82 13.65 7.38 25.16 60.66"/>
            <g>
              <rect class="cls-16" x="16.67" y="4.01" width="40.94" height="30.17" transform="translate(-3.21 8.33) rotate(-12.27)"/>
              <path class="cls-15" d="m28.77,18.96c-.16-10.62,16.52-10.62,16.37,0,.16,10.62-16.52,10.62-16.37,0Z"/>
            </g>
          </g>
          <g>
            <polygon class="cls-25" points="257.79 54.65 255.86 53.94 274.96 2.88 276.89 3.6 257.79 54.65"/>
            <g>
              <rect class="cls-22" x="275.25" y="5.68" width="30.17" height="40.94" transform="translate(164.42 289.07) rotate(-69.56)"/>
              <g>
                <g>
                  <path class="cls-6" d="m292.76,37.36c2.75.56,1.08-3.87-.61-1.62l-7.47-7.18c2.17-1.79-2.32-3.27-1.65-.55-2.75-.56-1.08,3.87.61,1.62l7.47,7.18c-2.17,1.79,2.32,3.27,1.65.55Z"/>
                  <path class="cls-6" d="m281.16,33.03c-2.45-1.37,1.71-3.63,1.52-.82l10.35-.53c-.47-2.77,3.89-.95,1.6.66,2.45,1.37-1.71,3.63-1.53.82l-10.35.53c.47,2.77-3.89.95-1.6-.66Z"/>
                </g>
                <path class="cls-6" d="m296.25,26.77c.07-1.02,3.84-3.43,3.68-6.18.08-3.97-10.68-7.98-13.22-4.93-1.92,1.97-.64,6.26-1.26,7.08-.68.88-.37,2.14.57,2.66-.34.96.4,1.8,1.15,1.06-.2.9.54,1.53,1.2.86-.2.89.52,1.52,1.19.87.08.93,1.04.92,1.47.12.07.94,1.03.95,1.47.14.09,1.05,1.19.9,1.56-.05,1.05.23,2.11-.52,2.17-1.63Zm-4.92-3.29s1.32,1.78.18,2.18c-.72.25-.74-.66-.74-.66,0,0-.61.67-.99.01-.61-1.06,1.56-1.53,1.56-1.53Zm-3.87-2.95c.6-1.7,3.98-.44,3.31,1.24-.6,1.7-3.98.44-3.31-1.24Zm6.58,3.94c-2.16-.78-1.17-3.44.97-2.61,2.16.78,1.17,3.44-.97,2.61Z"/>
              </g>
            </g>
          </g>
        </g>
      </g>
    </g>
  </g>
</svg>