<?xml version="1.0" encoding="UTF-8"?>
<svg xmlns="http://www.w3.org/2000/svg" viewBox="0 0 205.05 344.88">
  <defs>
    <style>
      .cls-1 {
        isolation: isolate;
      }

      .cls-1, .cls-2 {
        fill: none;
      }

      .cls-3 {
        fill: #f9d1a9;
      }

      .cls-4 {
        fill: #040000;
      }

      .cls-5 {
        fill: #eb6868;
      }

      .cls-6 {
        fill: #ef9677;
      }

      .cls-7 {
        fill: #fff;
      }

      .cls-8 {
        fill: #f2a788;
      }

      .cls-9 {
        fill: #fbdcbe;
      }

      .cls-10 {
        fill: #e75955;
      }

      .cls-11 {
        fill: #fce8d5;
      }

      .cls-12 {
        fill: #fdf5eb;
      }

      .cls-13 {
        fill: #a0aecf;
      }

      .cls-14, .cls-15 {
        fill: #babedf;
      }

      .cls-16 {
        fill: #d33d31;
      }

      .cls-17 {
        fill: #443a4e;
      }

      .cls-18 {
        fill: #8797bb;
      }

      .cls-19 {
        fill: #352d41;
      }

      .cls-20 {
        fill: #3d3347;
      }

      .cls-21 {
        fill: #3c3f51;
      }

      .cls-22 {
        fill: #2e263a;
      }

      .cls-15 {
        opacity: .5;
      }

      .cls-15, .cls-2 {
        mix-blend-mode: multiply;
      }

      .cls-2 {
        opacity: .3;
      }
    </style>
  </defs>
  <g class="cls-1">
    <g id="_レイヤー_2" data-name="レイヤー 2">
      <g id="pc">
        <g>
          <g class="cls-2">
            <path class="cls-14" d="m170.08,250.23c-34.49-24.41-76-13.42-120.29-2.82-7.38,1.95-15.37,4.19-24.12,6.75-3.83,1.12-5.82,4.54-5.71,7.93,1.02,9.52,14.84,11.06,22.5,9.78-6.91,15.17,8.28,28.52,21.33,33.34,20.62,8,44.76,7.82,65.08-1.04-15.94,13.33-11.57,25.66,9.3,24.96,5.51-.72,10.75-3.41,14.59-7.89,21.08-26.5,41.86-49.74,17.31-71.03Z"/>
          </g>
          <g>
            <path class="cls-22" d="m20.98,257.5c.37,8.82,12.6,10.76,19.68,10.44,12.78-2.27,26.81-8.32,37.02-10.27,24.48-6.06,39.13-6.06,50.17-2.09,13.36,4.36,22.14,15.06,13.95,28-5.42,4.18-16.35,12.91-21.71,17.06-.62,16.71-.88,24.74,19.11,24.18,5.51-.71,10.75-3.4,14.59-7.88,23.15-28.05,29.71-37.25,28.27-65l-3.14,2.48c-30.64-36.22-81.88-22.12-128.11-11.33-6.66,3.18-30.34,3.94-29.84,14.41Z"/>
            <path class="cls-20" d="m120.1,314.63c.74,8.71,12.1,11.04,19.11,10.19v-13.99c-7.06.88-18.43-1.58-19.11-10.19.02.42-.03,14.21,0,13.99Z"/>
            <path class="cls-17" d="m20.99,243.77c.7,8.74,12.93,10.54,20.04,10.15,12.69-2.44,26.53-8.27,36.65-10.25,24.48-6.06,39.13-6.06,50.17-2.09,30.71,10.8,13.62,33.02-5.2,52.06-1.91,1.96-2.74,4.52-2.56,6.99.38,7.52,9.85,10.37,16.13,10.38,21.34.34,42.15-42.07,44.44-49.93,5.1-17.96-4.47-28.89-23.69-37.35-34.31-12.79-65.49-4.34-106.15,5.34-6.7,3.2-30.75,3.98-29.83,14.69Z"/>
            <g>
              <path class="cls-7" d="m120.1,300.64c.46,8.86,11.87,11.38,19.11,10.19-7.22.44-17.95-1.62-19.11-10.19Z"/>
              <path class="cls-7" d="m21.34,245.88c2.67,7.31,12.87,8.67,19.7,8.04-6.85-.08-16.41-1.12-19.7-8.04Z"/>
            </g>
            <g>
              <path class="cls-20" d="m147.31,81.95c-4.71-2.8-10-4.47-15.86-5-.43,3.04-.85,6.08-1.27,9.12,12.13-2.34,22.42-1.07,30.89,3.82h0c-4.58-2.65-9.17-5.3-13.76-7.95h0Z"/>
              <path class="cls-20" d="m149.9,189.86c5.6-23.45.55-60.58-6.14-74.9,0-.02.01-.03.02-.05,0,.02-.02.03-.02.05-2.27-5.18-4.56-9.08-7.98-12.89,3.81.7,7.15,2.2,10.38,4.68,0,.02,0,.03,0,.05,0-.02,0-.03,0-.05,12.84,6.05,23.08,49.73,19.93,77.8-2.57,20.36-7.53,38.79-15.35,59.21-4.01-2.32-9.98-5.8-14.05-8.14,6.03-15.63,10.45-30.94,13.22-45.76Z"/>
              <path class="cls-22" d="m146.15,106.76c-6.12-4.82-13.89-6.1-21.3-4.21,1.07-1.38,2.27-2.67,3.56-3.85.41-2.87.8-5.74,1.2-8.62,0,0,0,0,0,0,.19-1.34.38-2.67.56-4.01,57.59-10.99,64.69,64.5,56.89,114.74-2.25,12.42-5.91,24.43-10.63,36.15-1.43-1.67-3.3-3.45-5.34-5.04l-20.37,11.86c7.82-20.43,12.78-38.85,15.35-59.21,3.14-28.1-7.08-71.71-19.93-77.8h0Z"/>
            </g>
            <path class="cls-9" d="m45.02,206.73v8.04h0c4.29,42.13,104.46,42.16,108.77,0h0v-8.07c-4.49,41.99-104.24,42.05-108.78.03h0Z"/>
            <path class="cls-12" d="m45.03,206.73c5.66,38.06,76.75,38.57,100.07,17.01,11.69-9.09,11.16-26.24-.81-34.79,4.19-2.42,18.26-10.54,22.19-12.81-4.66-2.67-9.39-5.51-14.14-7.92l-22.19,12.82c-24.66-11.06-80.72-7.79-85.12,25.69Z"/>
            <path class="cls-7" d="m45.23,209.45c6.65,25.42,40.15,30.11,62.57,28.27-22.39,1.13-55.31-3.23-62.57-28.27Z"/>
            <path class="cls-3" d="m144.29,188.96c1.78,1.51,3.45,3.22,4.87,5.11,3.89-2.24,12.9-7.45,16.69-9.64,0,.09-.02.18-.03.27l.03-.02.46-8.43c-3.91,2.27-17.87,10.32-22.02,12.72Z"/>
            <g>
              <path class="cls-7" d="m159.86,188.25c.26,4.07,1.79,8.51,5.5,10.64h0c2.35,1.36,4.7,2.72,7.04,4.07h0c-16.7-12.56,7.61-54.66,26.82-46.4h0c-19.58-16.56-40.36,12.73-39.37,31.69Z"/>
              <path class="cls-9" d="m166.87,190.56c4.18,35.96,46.4-7.01,36.74-28.78-4.33-11.37-18.43-5.8-24.37,1.14-7.12,7.36-12.17,17.27-12.38,27.63Z"/>
              <path class="cls-7" d="m179.25,162.92c-8.64,8.63-15.45,22.33-11.21,34.55-3.54-12.33,3.1-25.47,11.21-34.55Z"/>
            </g>
            <g>
              <path class="cls-9" d="m85.84,166.21c3.71,7.82,2.53,21.75,13.87,22.06,10.29,1.66,12.6-11.46,18.18-17.59-1.89,2.43-5.11,3.23-8.01,3.7-8.22.76-19.47-.38-24.04-8.17Z"/>
              <path class="cls-9" d="m105.67,50.58c5.25,6.5,18,8.29,24.83,3.47-.03-.43-.06-.86-.09-1.29-.48-.33-.97-.63-1.48-.92,1.29-9.06,3.41-24.5,4.7-33.64h0c-6.17,3.56-16.2,2.13-21.12-2.95h0c-1.28,9.13-3.42,24.58-4.7,33.63-.57.14-1.14.3-1.69.49-.15.4-.29.81-.44,1.22Z"/>
              <path class="cls-17" d="m124.03,130.28c1.01-7.2,2.01-14.4,3.02-21.59l-3.02,21.59Zm-38.4,35.01c3.45,8.75,16.05,9.79,24.26,9.09,3.33-.57,7.93-1.67,8.75-5.49,1.8-12.87,3.6-25.74,5.39-38.61,3.25-23.31,6.77-48.47,10.01-71.68h-.01c-3.66,10.21-32.26,6.23-32.99-4.61h0c-5.13,36.71-10.26,73.43-15.38,110.15.03-.13.05-.25.09-.38-.13.49-.17,1.02-.11,1.53Zm.15-1.68c.03-.09.05-.18.1-.26-.04.09-.07.17-.1.26Z"/>
              <path class="cls-17" d="m101.2,55.8c2.6,10.75,42.76,12.55,30.19-2.29.11,7.87-4.65,9.35-11.65,9.25-7.45-.16-18.35-3.59-14.76-12.94-2.35.93-4.73,3.27-3.78,5.99Z"/>
              <path class="cls-9" d="m104.3,54.91c1.82,6.91,12.28,8.04,18.39,7.75,6.43-.54,8.5-2.83,8.7-9.16-.08-.07-.17-.15-.26-.22-6.32,6.13-21.47,3.98-25.84-3.61-.1.04-.21.09-.31.13-.2,1.7-.53,3.4-.67,5.1Z"/>
              <path class="cls-12" d="m105.18,50.77c4.11,6.89,14.64,7.76,21.79,6.04-.47-.27-1.42-.82-1.88-1.09-6.62,1.75-20.18-.3-16.9-9.73-1.87.74-3.78,2.61-3.01,4.77Z"/>
            </g>
            <polygon class="cls-18" points="72.94 196.1 113.23 219.46 125.9 212.15 85.61 188.79 72.94 196.1"/>
            <path class="cls-3" d="m129.52,232.83v8.18c11.27-4.33,24.11-12.91,24.29-26.25h0v-8.07c-.26,13.28-13.03,21.87-24.3,26.14Z"/>
            <path class="cls-22" d="m111.48,174.09c2.87-.65,6.62-1.98,7.16-5.28,1.8-12.84,3.59-25.68,5.38-38.53,3.33-23.85,6.68-47.83,10.01-71.68h-.01c-.39,2.63-3.19,4.05-5.5,4.77l-17.05,110.72Z"/>
            <path class="cls-3" d="m102.87,188.31c7.24-.76,10.37-12.53,15.03-17.63-1.52,2-4.05,2.88-6.42,3.41l-8.61,14.22Z"/>
            <path class="cls-9" d="m125.1,55.72c.46.27,1.42.82,1.88,1.09,4.04-.72,6.09-5.31,2.28-7.87-.22,2.97-.65,6.16-4.16,6.78Z"/>
            <path class="cls-3" d="m125.1,55.72c3.51-.62,3.94-3.82,4.16-6.78.03.02.05.05.08.07,1.09-7.89,3.19-22.92,4.29-30.81h0c-.85.65-2.08,1.13-3.21,1.4l-5.32,36.12Z"/>
            <path class="cls-3" d="m126.09,62.03c4.55-.85,4.98-4.67,5.3-8.53-.03-.03-.07-.06-.11-.09-.55,1.86-2.57,2.86-4.3,3.4l-.89,5.22Z"/>
            <path class="cls-17" d="m111.7,2.84c-4.95,10.17,20.44,13.47,25.52,7.69,4.97-10.16-20.44-13.49-25.52-7.69Z"/>
            <path class="cls-22" d="m127.51,10.52c21.49-1.38-8.86-12.55-13.93-5.32h0c2.38,4.14,9.33,5.15,13.93,5.32Z"/>
            <path class="cls-17" d="m110.86,6.22c1.66,10.28,22.36,13.2,26.8,3.76-6.59,6.18-22.2,4.01-26.8-3.76h0Z"/>
            <path class="cls-17" d="m111.56,13.96c2.07,6.9,12.94,7.71,19.01,6.42h0c4.4-.64,4.8-4.93,5.79-8.42-5.59,6.36-21.17,4.17-24.8-3.46,0,1.82,0,3.64,0,5.46Z"/>
            <path class="cls-7" d="m119.4,64.68c-6.3-.26-16.88-2.56-18.33-9.4,4,7.38,14.89,8.48,22.39,9.01-.97.26-2.9.44-4.06.39Z"/>
            <path class="cls-7" d="m105.18,50.77c2.78,5.95,11,7.14,16.92,6.82-5.9-.39-13.59-1.31-16.92-6.82Z"/>
            <path class="cls-22" d="m131.99,14.88l1.48-2.26c1.7-.52,3.32-1.35,4.19-2.63-2.82,3.4-1.51,9.63-7.09,10.39l1.42-5.5Z"/>
            <g>
              <path class="cls-12" d="m123.91,100.29c.13,2.15.95,4.5,2.91,5.63h0c1.24.72,2.48,1.44,3.72,2.15h0c-8.66-7.18,3.64-28.49,14.19-24.54h0c-10.36-8.75-21.34,6.73-20.82,16.76Z"/>
              <path class="cls-9" d="m127.63,101.58c3.2,22.63,31.92-13.74,15.01-18.71-8.8.47-14.63,10.65-15.01,18.71Z"/>
              <path class="cls-7" d="m134.17,86.96c-4.88,4.67-9.13,13.18-5.23,19.58-3.19-6.61.91-14.45,5.23-19.58Z"/>
            </g>
            <path class="cls-17" d="m126.09,62.03l2.44,1.34c5.06-.91,7.65-6.66,2.86-9.87-.32,3.86-.75,7.68-5.3,8.53Z"/>
            <path class="cls-7" d="m103.94,175.06c-6.3-.26-16.88-2.56-18.33-9.4,4,7.38,14.89,8.48,22.39,9.01-.97.26-2.9.44-4.06.39Z"/>
            <path class="cls-7" d="m111.78,7.86c4.28,4.98,11.81,6.16,18.05,5.44-6.26.03-13.32-.99-18.05-5.44Z"/>
            <path class="cls-20" d="m20.98,243.77c-.48,17.9-1.28,23.46,19.68,24.17l.37-14.02c-7.1.4-19.36-1.41-20.04-10.14h0Z"/>
            <polygon class="cls-3" points="72.94 195.69 113.23 219.05 125.9 211.74 72.94 193.47 72.94 195.69"/>
            <polygon class="cls-11" points="72.94 193.47 113.23 216.83 125.9 209.52 85.61 186.16 72.94 193.47"/>
            <polygon class="cls-9" points="125.9 211.74 125.9 209.52 113.23 216.83 113.23 219.05 125.9 211.74"/>
            <path class="cls-16" d="m104.91,200.85c-.34,4.69-11.17,4.69-11.51,0,.92-4.35,10.58-4.35,11.51,0Z"/>
            <path class="cls-10" d="m104.91,200.85c-.92,4.31-10.59,4.31-11.51,0,.92-4.35,10.58-4.35,11.51,0Z"/>
            <path class="cls-5" d="m100.11,198.23c1.33,1.01-1.16,1.69-1.88,1.09-1.33-1.01,1.16-1.69,1.88-1.09Z"/>
          </g>
          <g>
            <g>
              <path class="cls-15" d="m14.28,319.83c-8.98,5.18-8.98,13.59,0,18.77,8.98,5.18,23.54,5.18,32.52,0,8.98-5.18,8.98-13.59,0-18.77-8.98-5.18-23.54-5.18-32.52,0Z"/>
              <g>
                <path class="cls-22" d="m2.54,318.96v-1.34l28-7.97v1.55h-.01c-.92,4.14-13.91,7.18-17.18,9.69-3.65,2.92-10.62,2.89-10.81-1.93Z"/>
                <path class="cls-22" d="m36.49,339.81l25.27-7.32v1.65h0c.19,4.79-7.52,5.71-11.86,7.48-4.73,2.87-12.08,5.78-13.4-.44h0v-1.37Z"/>
                <path class="cls-6" d="m3.12,309.36s-.53,5.74-.59,8.26c1.34,6.8,10.55,2.95,14.01-.95,6.71-1.91,22.61-6.99,7.98-10.04-2.22.32-10.6,1.3-11.88.87,0,0-9.51,1.85-9.51,1.85Z"/>
                <path class="cls-7" d="m3.12,309.36s-.53,5.74-.59,8.26c.42,4.6,7.21,4.59,10.81,1.71,4.17-2.83,27.88-9.44,11.17-12.69-1.36-.14-11.88.87-11.88.87l-9.51,1.85Z"/>
                <g>
                  <path class="cls-6" d="m2.37,182.54c0,2.89,2.34,3.88,5.24,2.21,4.98-1.97,8.52-14.24,0-10.47-2.89,1.67-5.24,5.37-5.24,8.26Z"/>
                  <path class="cls-6" d="m2.37,182.54S.2,209.51,0,213.54c-.2,4.03,9.95,20.37,9.95,20.37l6.02-.45-6.39-21.19,3.24-35.43-10.46,5.7Z"/>
                </g>
                <g>
                  <path class="cls-12" d="m2.37,182.54c0,2.89,2.34,3.88,5.24,2.21,4.98-1.97,8.52-14.24,0-10.47-2.89,1.67-5.24,5.37-5.24,8.26Z"/>
                  <path class="cls-12" d="m2.37,182.54S.2,209.51,0,213.54c-.2,4.03,9.95,20.37,9.95,20.37l6.02-.45-6.39-21.19,3.24-35.43-10.46,5.7Z"/>
                </g>
                <path class="cls-6" d="m4.52,307.41c-6.72,6.08,13.47,6.07,6.74,0-1.86-1.07-4.88-1.07-6.74,0Z"/>
                <path class="cls-6" d="m3.12,309.36s-.93-11.39-1.62-17.19c-.69-5.79.41-12.41,3.17-21.24,2.76-8.83.62-28.48.62-28.48l20.1.82c1.45,11.74.54,24.24-7.48,35.53-1.1,3.3-5.69,15.61-5.26,30.56H3.12Z"/>
                <path class="cls-20" d="m1.02,305.62s-.49-13.5,0-19.86c.44-5.82.9-5.99,3.66-14.82,2.76-8.83.62-28.48.62-28.48l20.1.82c3.86,34.12-12.16,24.98-10.49,62.69l-13.89-.35Z"/>
                <path class="cls-8" d="m37.2,331.97s-.64,5.14-.7,7.67c1.32,6.22,8.66,3.31,13.4.44,5.65-1.61,17.08-5.2,9.46-10.86-5.57-.34-19.11,2.53-22.15,2.75Z"/>
                <path class="cls-7" d="m37.2,331.97s-.64,5.14-.7,7.67c1.32,6.22,8.66,3.31,13.4.44,6.22-1.86,16.66-4.86,9.82-11.51-5.71-.6-19.13,1.9-22.51,3.41Z"/>
                <path class="cls-8" d="m38.6,330.02c-6.72,6.08,13.47,6.07,6.74,0-1.86-1.07-4.88-1.07-6.74,0Z"/>
                <path class="cls-8" d="m11.03,228.69c-18.74,14.2,15.96,23.01,25.93,14.97,18.74-14.19-15.96-23.01-25.93-14.97Z"/>
                <path class="cls-8" d="m5.66,236.16c-3.61,18,11.65,13.15,19.39,22.71,0,0,1.7,8.79,6.57,23.56,0,0,1.62,5.4,1.08,9.55-.54,4.14-.9,15.86,1.44,23.69,2.34,7.83,3.06,13.05,3.06,16.3h9.55c-.38-2.6,1.07-42.67.72-51.19,4.75-17.07-.65-32.72-5.13-45.04l-36.68.43Z"/>
                <path class="cls-17" d="m6.58,248.33c3.26,3.97,6.86,3.4,10.84,5.6,3.53,1.93,6.35,4.64,7,5.28.29,1.42,2.13,10.03,6.55,23.44.01.03,1.57,5.3,1.05,9.24-.54,4.16-.93,15.98,1.47,23.98,1.43,4.79,1.1,8.75,1.52,11.54l13.94-.09c-.66-13.72-.82-34.11-.78-46.48.69-6.67,3.02-13.51,1.79-21.02-2.65-14-7.78-22.98-7.61-31.72l-36.11,1.98c-.65,5.82-3.97,10.11.35,18.26Z"/>
                <path class="cls-8" d="m42.34,230.93l-36.68.43c1.14-8.62,2.81-13.75,5.8-21.85,2.29-6.05-4.62-20.12-4.28-19.72,0,0-1.63-10.42-.34-13.67,4.38-7.98,17.94,4.62,24.63,7.15,11.13,6.8,16.8,14.15,9.76,21.81-3.66,4.92.93,25.06,1.12,25.86Z"/>
                <g>
                  <path class="cls-8" d="m31.46,183.26c.44-.45-14.74-3.56-14.29-6.94,0,0,1.67-2.41,1.9-5.56.23-3.14,11.43,1.85,11.43,1.85,0,0-1.59,9.3.96,10.65Z"/>
                  <path class="cls-8" d="m37.38,154.76c2.87,6.8.95,24.24-10.51,23.35l-5.73-7.1-3.61-11.36,4.91-4.26c1.67-.71,6.46-2.7,7.83-3.81h4.62l2.5,3.19Z"/>
                </g>
                <path class="cls-13" d="m51.11,334.31c1.22-2.92-3.99-6.32-3.84-5.22.05.97,2.83.91,3.5,4.93.03.17.17.29.34.29Z"/>
                <path class="cls-13" d="m54.21,333.74c1.23-2.81-3.87-6.16-3.73-5.07.05.97,2.74.88,3.39,4.78.03.17.17.29.34.29Z"/>
                <path class="cls-13" d="m56.97,332.92c1.26-2.46-3.49-5.66-3.37-4.59.03.95,2.43.77,3.03,4.3.03.17.17.29.34.29Z"/>
                <path class="cls-13" d="m16.9,312.24c1.15-2.84-4.5-6.06-4.2-4.91.12.97,2.89.69,3.87,4.65.04.16.18.26.33.26Z"/>
                <path class="cls-13" d="m20.16,311.7c1.17-2.74-4.36-5.91-4.08-4.77.12.96,2.8.67,3.75,4.51.04.16.18.26.33.26Z"/>
                <path class="cls-13" d="m23.07,310.84c1.25-2.32-3.94-5.47-3.68-4.32.11.95,2.49.58,3.35,4.05.04.16.18.26.33.26Z"/>
                <g>
                  <path class="cls-19" d="m36.09,328.81c-1.45,6.18,5.66,7.68,10.04,5.38,2.15-.85,1.72-3.6,1.72-5.38h-3.12c-2.69-.96-5.88.27-8.65,0Z"/>
                  <path class="cls-17" d="m37.04,324.43c-6.96,5.31,6.07,8.86,9.86,5.69,6.96-5.31-6.07-8.86-9.86-5.69Z"/>
                  <path class="cls-17" d="m36.7,330.33c2.46,3,12.35,2.64,10.84-2.61-2.11-3.81-13.7-2.88-10.84,2.61Z"/>
                  <path class="cls-17" d="m35,327.4c.09,1.48,1.87,3.78,2.28,2.58l4.08-.34c1.81.53,6.8,2.75,7.54-1.9-3.03-.07-10.82-.27-13.89-.35Z"/>
                </g>
                <g>
                  <path class="cls-19" d="m2.1,307.02c-1.45,6.18,5.66,7.68,10.04,5.38,2.15-.86,1.72-3.6,1.72-5.38h-3.12c-2.69-.96-5.88.27-8.65,0Z"/>
                  <path class="cls-20" d="m3.06,302.64c-2.72,1.57-2.72,4.12,0,5.69,3.78,3.17,16.82-.38,9.86-5.69-2.72-1.57-7.14-1.57-9.86,0Z"/>
                  <path class="cls-20" d="m3.83,304.62c-5.87,4.48,5.12,7.47,8.32,4.8,5.87-4.48-5.12-7.47-8.32-4.8Z"/>
                  <path class="cls-20" d="m3.3,308.2c-.31,1.18-2.12-.91-2.28-2.59l13.89.35c-.74,4.56-5.43,2.54-7.53,1.89,0,0-4.08.35-4.08.35Z"/>
                </g>
                <path class="cls-8" d="m28.92,197.9c0,2.89,2.34,3.88,5.24,2.21,4.98-1.97,8.52-14.24,0-10.47-2.89,1.67-5.24,5.37-5.24,8.26Z"/>
              </g>
              <path class="cls-7" d="m.72,266.73c-.02-14.05,5.32-44.62,10.24-60.92-.63-9.67-13.93-37.77,4.92-31.32,6.6,3.54,29.17,14.89,28.81,22.97,0,3.65-1.65,5.49-3.24,7.63-3.66,4.92,1.62,23.33,1.81,24.12h0c2.03,5.16,8.29,21.86,7.86,44.04h-.1c-4.27,19.61-50.92,12.65-50.31-6.51Z"/>
              <path class="cls-4" d="m37.58,150.81c4.23,5.22,2.02,11.88-1.79,17.03,0,0-4.78-2.54-4.48,1.05-.25,6.47,10.53,22.69-3.44,21.81-10.8-3.65-21.16-3.4-18.53-16.13,4.43-10.55-1.06-24.6,16.73-27.34,8.82,0,11.5,3.59,11.5,3.59Z"/>
              <path class="cls-4" d="m15.31,153.02c-2.75,3.94-4.3,8.72-4.76,13.5-1.64,4.41-3.91,9.21-1.29,13.79-2.47-4.71.01-9.3,1.77-13.68.65-4.82,2.22-9.18,5.16-13.14l-.87-.47Z"/>
              <path class="cls-4" d="m32.07,165.21c-5.31,8.36,7.43,15.4,3.98,23.33,3.87-7.51-8.28-14.98-3.19-22.74l-.79-.6Z"/>
            </g>
            <g>
              <polygon class="cls-21" points="46.11 201.65 59.37 209.49 62.89 183.86 49.63 176.02 46.11 201.65"/>
              <polygon class="cls-7" points="61.74 184.41 50.46 177.75 47.25 201.1 58.54 207.76 61.74 184.41"/>
              <path class="cls-8" d="m61.57,193.45c2.38,1.49,4,6.52,3.14,11.1-.62,1.39-5.45,4.67-7.1,6.76-2.45-1.36-2.04-4.18-1.34-6.61-.49-1.76-.31-6.7.1-7.33,1.23-1.45,2.38,4.32,4.28,2.41.17-1.12.79-5.29.92-6.34Z"/>
              <path class="cls-12" d="m28.45,197.81c1.14,8.37,12.18-1.57,11.26-6.2-1.26-8.77-12.19,1.37-11.26,6.2Z"/>
              <path class="cls-12" d="m43.25,225.83c-3.74-.57-14.44-26.36-14.44-26.36l10.63-9.46,5.63,21.43,9.34-7.84,6.56,7.1s-13.98,15.7-17.72,15.13Z"/>
              <path class="cls-12" d="m54.12,204.85c0,2.03,1.65,4.63,3.68,5.8,5.99,2.64,3.5-5.97,0-7.36-2.03-1.17-3.68-.48-3.68,1.55Z"/>
            </g>
          </g>
        </g>
      </g>
    </g>
  </g>
</svg>