<?xml version="1.0" encoding="UTF-8"?>
<svg id="_レイヤー_2" data-name="レイヤー 2" xmlns="http://www.w3.org/2000/svg" viewBox="0 0 371.54 278.47">
  <defs>
    <style>
      .cls-1 {
        font-size: 7.62px;
      }

      .cls-1, .cls-2, .cls-3 {
        fill: #211815;
      }

      .cls-1, .cls-3 {
        font-family: DNPShueiGoGinStd-B-83pv-RKSJ-H, 'DNP ShueiGoGinStd';
      }

      .cls-4 {
        fill: #2f6cb1;
      }

      .cls-4, .cls-5, .cls-6, .cls-7, .cls-8, .cls-9, .cls-10, .cls-11 {
        stroke-width: .51px;
      }

      .cls-4, .cls-5, .cls-6, .cls-7, .cls-8, .cls-9, .cls-10, .cls-11, .cls-12 {
        stroke-miterlimit: 10;
      }

      .cls-4, .cls-10, .cls-12 {
        stroke: #211815;
      }

      .cls-5 {
        stroke: #d54835;
      }

      .cls-5, .cls-6, .cls-7, .cls-8, .cls-9, .cls-10, .cls-11, .cls-12 {
        fill: none;
      }

      .cls-6 {
        stroke: #2f6cb1;
      }

      .cls-7 {
        stroke: #571e80;
      }

      .cls-8 {
        stroke: #fff034;
      }

      .cls-9 {
        stroke: #369f98;
      }

      .cls-11 {
        stroke: #9f8b7a;
      }

      .cls-2 {
        font-family: DNPShueiGoGinStd-M-83pv-RKSJ-H, 'DNP ShueiGoGinStd';
        font-size: 10.16px;
      }

      .cls-12 {
        stroke-width: .34px;
      }

      .cls-3 {
        font-size: 8.89px;
      }
    </style>
  </defs>
  <g id="pc">
    <g>
      <g>
        <polyline class="cls-12" points="31.17 4.84 31.17 249.5 284.75 249.5"/>
        <g>
          <line class="cls-10" x1="23.73" y1="249.5" x2="30.94" y2="249.5"/>
          <line class="cls-10" x1="23.73" y1="188.33" x2="30.94" y2="188.33"/>
          <line class="cls-10" x1="23.73" y1="127.17" x2="30.94" y2="127.17"/>
          <line class="cls-10" x1="23.73" y1="66" x2="30.94" y2="66"/>
          <line class="cls-10" x1="23.73" y1="4.84" x2="30.94" y2="4.84"/>
        </g>
        <g>
          <line class="cls-10" x1="275.83" y1="249.5" x2="275.83" y2="242.29"/>
          <line class="cls-10" x1="214.66" y1="249.5" x2="214.66" y2="242.29"/>
          <line class="cls-10" x1="153.5" y1="249.5" x2="153.5" y2="242.29"/>
          <line class="cls-10" x1="92.33" y1="249.5" x2="92.33" y2="242.29"/>
          <line class="cls-10" x1="31.17" y1="249.5" x2="31.17" y2="242.29"/>
        </g>
        <text class="cls-2" transform="translate(9.73 8.94)"><tspan x="0" y="0">10</tspan><tspan x="6.46" y="61.26">5</tspan><tspan x="6.46" y="122.52">0</tspan><tspan x="1.44" y="183.79">-5</tspan><tspan x="-5.02" y="245.05">-10</tspan></text>
        <text class="cls-2" transform="translate(31.64 261.41)"><tspan x="0" y="0">-10　　　　-5　　　　　0　　　　　5　　　　　10</tspan></text>
        <circle class="cls-8" cx="228.6" cy="140.78" r="1.27"/>
        <circle class="cls-8" cx="251.38" cy="147.77" r="1.27"/>
        <circle class="cls-8" cx="261.98" cy="167.32" r="1.27"/>
        <circle class="cls-5" cx="48.05" cy="71.84" r="1.27"/>
        <circle class="cls-5" cx="60.42" cy="73.82" r="1.27"/>
        <circle class="cls-5" cx="49.29" cy="79.93" r="1.27"/>
        <circle class="cls-5" cx="44.1" cy="93.37" r="1.27"/>
        <circle class="cls-5" cx="66.55" cy="94.64" r="1.27"/>
        <circle class="cls-5" cx="54.68" cy="87.11" r="1.27"/>
        <circle class="cls-5" cx="59.89" cy="82.8" r="1.27"/>
        <circle class="cls-6" cx="173.49" cy="134.85" r="1.27"/>
        <circle class="cls-6" cx="181.03" cy="121.21" r="1.27"/>
        <circle class="cls-6" cx="179.35" cy="113.07" r="1.27"/>
        <circle class="cls-6" cx="169.73" cy="107.37" r="1.27"/>
        <circle class="cls-11" cx="159.44" cy="111.32" r="1.27"/>
        <circle class="cls-11" cx="155.49" cy="118.26" r="1.27"/>
        <circle class="cls-11" cx="152.74" cy="121.25" r="1.27"/>
        <circle class="cls-11" cx="161.6" cy="132.26" r="1.27"/>
        <circle class="cls-11" cx="138.98" cy="122.81" r="1.27"/>
        <circle class="cls-11" cx="135.59" cy="122.93" r="1.27"/>
        <circle class="cls-11" cx="140.31" cy="113.89" r="1.27"/>
        <circle class="cls-11" cx="131.14" cy="117.15" r="1.27"/>
        <circle class="cls-11" cx="116.15" cy="112.1" r="1.27"/>
        <circle class="cls-11" cx="126.37" cy="103.29" r="1.27"/>
        <circle class="cls-11" cx="129.6" cy="103.77" r="1.27"/>
        <circle class="cls-11" cx="130.95" cy="102.36" r="1.27"/>
        <circle class="cls-11" cx="132.6" cy="102.35" r="1.27"/>
        <circle class="cls-11" cx="133.88" cy="99.92" r="1.27"/>
        <circle class="cls-11" cx="130.27" cy="100.03" r="1.27"/>
        <circle class="cls-11" cx="132.74" cy="94.59" r="1.27"/>
        <circle class="cls-11" cx="124.12" cy="93.51" r="1.27"/>
        <circle class="cls-7" cx="80.33" cy="98.06" r="1.27"/>
        <circle class="cls-7" cx="57.02" cy="103.96" r="1.27"/>
        <circle class="cls-7" cx="54.89" cy="137.64" r="1.27"/>
        <circle class="cls-7" cx="61.45" cy="145.04" r="1.27"/>
        <circle class="cls-11" cx="141.23" cy="85.38" r="1.27"/>
        <circle class="cls-6" cx="178.21" cy="100.23" r="1.27"/>
        <circle class="cls-6" cx="181.65" cy="97.52" r="1.27"/>
        <circle class="cls-6" cx="182.87" cy="95.27" r="1.27"/>
        <circle class="cls-6" cx="185.26" cy="94.14" r="1.27"/>
        <circle class="cls-6" cx="197.85" cy="91.06" r="1.27"/>
        <circle class="cls-6" cx="197.01" cy="97.4" r="1.27"/>
        <circle class="cls-6" cx="200.05" cy="98.36" r="1.27"/>
        <circle class="cls-6" cx="200.96" cy="100.36" r="1.27"/>
        <circle class="cls-6" cx="203.01" cy="101.75" r="1.27"/>
        <circle class="cls-6" cx="204.2" cy="103.91" r="1.27"/>
        <circle class="cls-6" cx="204.11" cy="105.78" r="1.27"/>
        <circle class="cls-6" cx="201.97" cy="105.28" r="1.27"/>
        <circle class="cls-6" cx="202.95" cy="106.79" r="1.27"/>
        <circle class="cls-6" cx="203.08" cy="109.64" r="1.27"/>
        <circle class="cls-6" cx="208.59" cy="109.16" r="1.27"/>
        <circle class="cls-6" cx="216.36" cy="97.89" r="1.27"/>
        <circle class="cls-6" cx="221.57" cy="100.76" r="1.27"/>
        <circle class="cls-6" cx="212.16" cy="123.37" r="1.27"/>
        <circle class="cls-6" cx="200.43" cy="118.65" r="1.27"/>
        <circle class="cls-6" cx="199.84" cy="121.7" r="1.27"/>
        <circle class="cls-6" cx="193.62" cy="125.41" r="1.27"/>
        <circle class="cls-6" cx="191.07" cy="122.54" r="1.27"/>
        <circle class="cls-6" cx="190.27" cy="126.94" r="1.27"/>
        <circle class="cls-6" cx="192.99" cy="114.73" r="1.27"/>
        <circle class="cls-6" cx="200.66" cy="112.49" r="1.27"/>
        <circle class="cls-6" cx="198.95" cy="110.04" r="1.27"/>
        <circle class="cls-6" cx="197.75" cy="107.83" r="1.27"/>
        <circle class="cls-6" cx="196.25" cy="109.29" r="1.27"/>
        <circle class="cls-6" cx="195.2" cy="106.9" r="1.27"/>
        <circle class="cls-6" cx="194" cy="106.98" r="1.27"/>
        <circle class="cls-6" cx="193.77" cy="109.62" r="1.27"/>
        <circle class="cls-6" cx="192.24" cy="108.48" r="1.27"/>
        <circle class="cls-6" cx="190.13" cy="109.27" r="1.27"/>
        <circle class="cls-6" cx="187.86" cy="109.78" r="1.27"/>
        <circle class="cls-6" cx="189.56" cy="107.65" r="1.27"/>
        <circle class="cls-6" cx="190.82" cy="106.26" r="1.27"/>
        <circle class="cls-6" cx="189.2" cy="104.25" r="1.27"/>
        <circle class="cls-6" cx="186.4" cy="103.96" r="1.27"/>
        <circle class="cls-6" cx="189.83" cy="102.21" r="1.27"/>
        <circle class="cls-6" cx="190.75" cy="100.13" r="1.27"/>
        <circle class="cls-6" cx="201.4" cy="102.32" r="1.27"/>
        <circle class="cls-6" cx="199.2" cy="102.97" r="1.27"/>
        <circle class="cls-6" cx="197.1" cy="102.4" r="1.27"/>
        <circle class="cls-6" cx="199.69" cy="89.02" r="1.27"/>
        <circle class="cls-9" cx="107.75" cy="232.12" r="1.27"/>
        <circle class="cls-9" cx="123.4" cy="215.05" r="1.27"/>
        <circle class="cls-9" cx="132.97" cy="217.1" r="1.27"/>
        <circle class="cls-9" cx="132.18" cy="220.93" r="1.27"/>
        <circle class="cls-9" cx="138.03" cy="227.4" r="1.27"/>
        <circle class="cls-9" cx="143.7" cy="199.67" r="1.27"/>
        <circle class="cls-9" cx="149.6" cy="201.21" r="1.27"/>
        <circle class="cls-9" cx="120.66" cy="209.39" r="1.27"/>
        <circle class="cls-9" cx="118.1" cy="200.32" r="1.27"/>
        <g>
          <line class="cls-10" x1="72.82" y1="226.92" x2="75.86" y2="229.97"/>
          <line class="cls-10" x1="72.82" y1="229.97" x2="75.86" y2="226.92"/>
        </g>
        <g>
          <line class="cls-10" x1="79.64" y1="220.82" x2="82.68" y2="223.87"/>
          <line class="cls-10" x1="79.64" y1="223.87" x2="82.68" y2="220.82"/>
        </g>
        <g>
          <line class="cls-10" x1="99.02" y1="210.77" x2="102.07" y2="213.82"/>
          <line class="cls-10" x1="99.02" y1="213.82" x2="102.07" y2="210.77"/>
        </g>
        <g>
          <line class="cls-10" x1="103.69" y1="206.46" x2="106.73" y2="209.51"/>
          <line class="cls-10" x1="103.69" y1="209.51" x2="106.73" y2="206.46"/>
        </g>
        <g>
          <line class="cls-10" x1="99.2" y1="199.1" x2="102.25" y2="202.14"/>
          <line class="cls-10" x1="99.2" y1="202.14" x2="102.25" y2="199.1"/>
        </g>
        <rect class="cls-4" x="61.09" y="117.86" width="5.77" height="5.77"/>
        <rect class="cls-4" x="126.89" y="210.57" width="5.77" height="5.77"/>
        <rect class="cls-4" x="135.27" y="106.38" width="5.77" height="5.77"/>
        <rect class="cls-4" x="191.74" y="105.28" width="5.77" height="5.77"/>
        <rect class="cls-4" x="244.62" y="149.07" width="5.77" height="5.77"/>
        <rect class="cls-4" x="51.51" y="80.39" width="5.77" height="5.77"/>
        <text class="cls-3" transform="translate(38.45 66.67)"><tspan x="0" y="0">SE Australia</tspan></text>
        <text class="cls-3" transform="translate(37.97 116.44)"><tspan x="0" y="0">McClaren Vale</tspan></text>
        <text class="cls-3" transform="translate(113.12 210.25)"><tspan x="0" y="0">Barossa Valley</tspan></text>
        <text class="cls-3" transform="translate(137.05 275.82)"><tspan x="0" y="0">Function 1</tspan></text>
        <text class="cls-3" transform="translate(7.83 148.6) rotate(-90)"><tspan x="0" y="0">Function 2</tspan></text>
        <text class="cls-3" transform="translate(116.47 99.21)"><tspan x="0" y="0">Coonawarra</tspan></text>
        <text class="cls-3" transform="translate(222.72 140.85)"><tspan x="0" y="0">Pemberton</tspan></text>
        <text class="cls-3" transform="translate(166.24 120.27)"><tspan x="0" y="0">Margaret River</tspan></text>
      </g>
      <g>
        <circle class="cls-6" cx="268.75" cy="28.59" r="2.54"/>
        <circle class="cls-9" cx="268.75" cy="38.56" r="2.54"/>
        <circle class="cls-11" cx="268.75" cy="48.52" r="2.54"/>
        <circle class="cls-7" cx="268.75" cy="58.48" r="2.54"/>
        <circle class="cls-8" cx="268.75" cy="68.72" r="2.54"/>
        <circle class="cls-5" cx="268.75" cy="78.97" r="2.54"/>
        <g>
          <line class="cls-10" x1="266.21" y1="87.74" x2="271.3" y2="92.81"/>
          <line class="cls-10" x1="266.21" y1="92.81" x2="271.3" y2="87.74"/>
        </g>
        <rect class="cls-4" x="265.97" y="96.81" width="5.08" height="5.08"/>
        <text class="cls-3" transform="translate(266.76 17.8)"><tspan x="0" y="0">Aust.Region</tspan></text>
        <text class="cls-1" transform="translate(273.6 31.23)"><tspan x="0" y="0">Margaret River</tspan><tspan x="0" y="10.16">Barossa Valley</tspan><tspan x="0" y="20.33">Coonawarra</tspan><tspan x="0" y="30.49">McClaren Vale</tspan><tspan x="0" y="40.65">Pemberton</tspan><tspan x="0" y="50.82">SE Australia</tspan><tspan x="0" y="60.98">85% Adulteration(BULK A)</tspan><tspan x="0" y="71.14">Group Centroid</tspan></text>
      </g>
    </g>
  </g>
</svg>