<?xml version="1.0" encoding="UTF-8"?>
<svg id="_レイヤー_2" data-name="レイヤー 2" xmlns="http://www.w3.org/2000/svg" xmlns:xlink="http://www.w3.org/1999/xlink" viewBox="0 0 363 168">
  <defs>
    <style>
      .cls-1 {
        filter: url(#outer-glow-4);
      }

      .cls-1, .cls-2, .cls-3 {
        fill: #fff;
      }

      .cls-2 {
        filter: url(#outer-glow-3);
      }

      .cls-3 {
        filter: url(#outer-glow-5);
      }

      .cls-4, .cls-5 {
        fill: #211815;
      }

      .cls-6 {
        filter: url(#outer-glow-2);
        stroke-width: 2.21px;
      }

      .cls-6, .cls-7 {
        fill: #fce333;
        stroke: #fff;
        stroke-miterlimit: 10;
      }

      .cls-7 {
        filter: url(#outer-glow-1);
        stroke-width: 3px;
      }

      .cls-5 {
        font-family: FiraSans-Heavy, 'Fira Sans';
        font-size: 31.68px;
        font-weight: 800;
      }
    </style>
    <filter id="outer-glow-1" filterUnits="userSpaceOnUse">
      <feOffset dx="0" dy="0"/>
      <feGaussianBlur result="blur" stdDeviation="5"/>
      <feFlood flood-color="#325fac" flood-opacity=".75"/>
      <feComposite in2="blur" operator="in"/>
      <feComposite in="SourceGraphic"/>
    </filter>
    <filter id="outer-glow-2" filterUnits="userSpaceOnUse">
      <feOffset dx="0" dy="0"/>
      <feGaussianBlur result="blur-2" stdDeviation="5"/>
      <feFlood flood-color="#325fac" flood-opacity=".75"/>
      <feComposite in2="blur-2" operator="in"/>
      <feComposite in="SourceGraphic"/>
    </filter>
    <filter id="outer-glow-3" filterUnits="userSpaceOnUse">
      <feOffset dx="0" dy="0"/>
      <feGaussianBlur result="blur-3" stdDeviation="5"/>
      <feFlood flood-color="#325fac" flood-opacity=".75"/>
      <feComposite in2="blur-3" operator="in"/>
      <feComposite in="SourceGraphic"/>
    </filter>
    <filter id="outer-glow-4" filterUnits="userSpaceOnUse">
      <feOffset dx="0" dy="0"/>
      <feGaussianBlur result="blur-4" stdDeviation="5"/>
      <feFlood flood-color="#325fac" flood-opacity=".75"/>
      <feComposite in2="blur-4" operator="in"/>
      <feComposite in="SourceGraphic"/>
    </filter>
    <filter id="outer-glow-5" filterUnits="userSpaceOnUse">
      <feOffset dx="0" dy="0"/>
      <feGaussianBlur result="blur-5" stdDeviation="5"/>
      <feFlood flood-color="#325fac" flood-opacity=".75"/>
      <feComposite in2="blur-5" operator="in"/>
      <feComposite in="SourceGraphic"/>
    </filter>
  </defs>
  <g id="pc">
    <g>
      <path class="cls-7" d="m317.34,17.43L56.73,63.38c-9.62,1.7-16.42,8.73-15.19,15.71l8.55,48.51c1.23,6.98,10.03,11.27,19.65,9.57l36.09-6.36,21.57,19.08,13.74-25.31,189.2-33.36c9.62-1.7,16.42-8.73,15.19-15.71l-8.55-48.51c-1.23-6.98-10.03-11.27-19.65-9.57Z"/>
      <g>
        <path class="cls-4" d="m70.38,111.52l-3.88-22.01,5.29-.93,1.48,8.39,7.24-1.28-1.48-8.39,5.26-.93,3.88,22.01-5.26.93-1.59-9.04-7.24,1.28,1.59,9.04-5.29.93Z"/>
        <path class="cls-4" d="m95.44,106.45c-1.41-.47-2.61-1.31-3.6-2.52-.99-1.21-1.64-2.72-1.96-4.53-.31-1.75-.21-3.36.31-4.82.51-1.46,1.32-2.66,2.41-3.61s2.33-1.54,3.71-1.78c1.58-.28,2.96-.16,4.16.35,1.2.51,2.17,1.33,2.93,2.45.76,1.12,1.27,2.47,1.55,4.02.17.96.22,1.74.16,2.32l-9.87,1.74c.43,1.06,1.06,1.79,1.88,2.2s1.79.51,2.89.31c1.16-.21,2.28-.77,3.36-1.69l2.3,2.85c-.74.76-1.62,1.4-2.63,1.93s-2.02.87-3.03,1.05c-1.63.29-3.16.2-4.57-.27Zm4.84-10.83c-.16-.89-.5-1.55-1.02-2-.53-.45-1.24-.59-2.15-.43-.77.13-1.39.5-1.85,1.09-.46.59-.7,1.37-.71,2.35l5.73-1.01Z"/>
        <path class="cls-4" d="m106.52,87.82l4.28-.76.9,2.86.09-.02c.4-1.19.98-2.14,1.73-2.87s1.58-1.16,2.46-1.32c.83-.15,1.53-.15,2.1,0l-.06,4.67c-.78-.05-1.42-.02-1.91.06-.69.12-1.32.49-1.89,1.09s-.97,1.46-1.18,2.55l1.69,9.6-5.26.93-2.96-16.81Z"/>
        <path class="cls-4" d="m125.76,101.1c-1.41-.47-2.61-1.31-3.6-2.52-.99-1.21-1.64-2.72-1.96-4.53-.31-1.75-.21-3.36.31-4.82.51-1.46,1.32-2.66,2.41-3.61,1.09-.94,2.33-1.54,3.71-1.78,1.58-.28,2.96-.16,4.16.35,1.2.51,2.17,1.33,2.93,2.45.76,1.12,1.27,2.47,1.55,4.02.17.96.22,1.74.16,2.32l-9.87,1.74c.43,1.06,1.06,1.79,1.88,2.2.82.4,1.79.51,2.89.31,1.16-.21,2.28-.77,3.36-1.69l2.3,2.85c-.74.76-1.62,1.4-2.63,1.93-1.01.52-2.02.88-3.03,1.05-1.63.29-3.16.2-4.57-.27Zm4.84-10.83c-.16-.89-.5-1.55-1.02-2-.53-.45-1.24-.59-2.15-.43-.77.14-1.39.5-1.85,1.09-.46.59-.7,1.37-.71,2.35l5.73-1.01Z"/>
        <path class="cls-4" d="m138.65,87.51l-2.25-6.7-1-4.64,5.29-.93.65,4.7.18,7.07-2.87.5Z"/>
        <path class="cls-4" d="m149.9,97.26c-1.26-.22-2.38-.62-3.38-1.17l1.76-3.69c1.78.9,3.31,1.24,4.57,1.02,1.32-.23,1.9-.79,1.75-1.68-.07-.39-.34-.68-.83-.87-.48-.19-1.21-.37-2.2-.54l-.7-.15c-1.33-.27-2.46-.73-3.41-1.36-.95-.63-1.53-1.58-1.75-2.84-.18-1.04-.08-2.02.32-2.92.4-.9,1.05-1.66,1.95-2.28.9-.61,1.99-1.04,3.29-1.27,2.13-.38,4.25,0,6.38,1.1l-1.78,3.54c-1.51-.71-2.75-.98-3.74-.8-1.18.21-1.7.72-1.56,1.52.07.39.33.68.79.85.46.17.98.31,1.58.41.6.1.99.16,1.17.19,1.43.28,2.61.72,3.55,1.32.94.61,1.53,1.59,1.77,2.95.18,1.04.08,2.03-.32,2.96-.39.93-1.08,1.73-2.05,2.39-.97.66-2.2,1.12-3.67,1.38-1.08.19-2.25.17-3.51-.05Z"/>
        <path class="cls-4" d="m179.46,90.9c-1.17-1-1.94-2.55-2.31-4.63l-1.14-6.47-2.27.4-.69-3.9,2.56-.67-.2-4.56,4.34-.77.79,4.46,3.96-.7.72,4.11-3.96.7,1.13,6.41c.16.89.46,1.51.92,1.86s1.01.48,1.66.36c.41-.07.91-.27,1.48-.6l1.5,3.67c-.6.31-1.17.57-1.74.78-.56.21-1.22.38-1.97.51-2.03.36-3.63.04-4.8-.97Z"/>
        <path class="cls-4" d="m186.18,66.77l5.26-.93,1,5.67.26,3.03c.61-.8,1.3-1.48,2.06-2.05.76-.57,1.66-.95,2.68-1.13,1.77-.31,3.19.05,4.26,1.09,1.07,1.04,1.79,2.64,2.17,4.81l1.83,10.4-5.26.93-1.72-9.75c-.2-1.12-.49-1.87-.87-2.25s-.92-.51-1.61-.39c-.55.1-1.01.3-1.38.61-.37.31-.79.78-1.25,1.41l1.98,11.23-5.26.93-4.16-23.61Z"/>
        <path class="cls-4" d="m212.43,85.82c-1.41-.47-2.61-1.31-3.6-2.52-.98-1.21-1.64-2.72-1.96-4.53-.31-1.75-.21-3.36.31-4.82.51-1.46,1.32-2.66,2.41-3.61,1.09-.94,2.33-1.54,3.71-1.78,1.58-.28,2.96-.16,4.16.35,1.2.51,2.17,1.33,2.93,2.45.76,1.12,1.27,2.47,1.55,4.02.17.96.22,1.74.16,2.32l-9.87,1.74c.43,1.06,1.06,1.79,1.88,2.2.82.4,1.78.51,2.89.31,1.16-.21,2.28-.77,3.36-1.69l2.3,2.85c-.74.76-1.62,1.4-2.63,1.93-1.01.52-2.02.87-3.03,1.05-1.64.29-3.16.2-4.57-.27Zm4.84-10.83c-.16-.89-.5-1.55-1.02-2-.53-.45-1.24-.59-2.15-.43-.77.14-1.38.5-1.85,1.09-.46.59-.7,1.37-.71,2.35l5.73-1.01Z"/>
        <path class="cls-4" d="m238.13,64.61l4.28-.75.67,1.56.09-.02c.6-.75,1.27-1.39,2.01-1.89.74-.51,1.53-.83,2.36-.98,1.32-.23,2.54-.09,3.66.44,1.12.52,2.06,1.38,2.82,2.58.76,1.2,1.29,2.65,1.59,4.36.33,1.85.28,3.53-.14,5.02-.42,1.5-1.1,2.7-2.06,3.62-.96.92-2.04,1.49-3.26,1.7-1.44.25-2.84-.1-4.21-1.05l.64,2.6.85,4.82-5.26.93-4.04-22.93Zm11.91,10.02c.4-.86.45-2.09.17-3.69-.26-1.48-.67-2.53-1.24-3.16-.57-.63-1.32-.87-2.24-.7-.49.09-.93.28-1.3.58s-.74.74-1.11,1.31l1.17,6.65c.84.52,1.73.7,2.65.54.87-.15,1.5-.66,1.89-1.52Z"/>
        <path class="cls-4" d="m263.21,76.85c-1.38-.49-2.58-1.33-3.57-2.54-1-1.2-1.65-2.7-1.97-4.5-.32-1.79-.21-3.42.31-4.88s1.35-2.66,2.49-3.59c1.13-.93,2.43-1.53,3.89-1.78,1.44-.25,2.85-.14,4.24.35,1.38.49,2.57,1.33,3.57,2.52.99,1.2,1.65,2.69,1.96,4.48.32,1.79.21,3.43-.31,4.9-.52,1.47-1.35,2.68-2.49,3.61-1.14.93-2.42,1.52-3.86,1.78-1.46.26-2.88.14-4.26-.34Zm5.43-5.5c.33-.89.37-2.05.12-3.49-.25-1.44-.69-2.51-1.3-3.23-.61-.71-1.39-.99-2.34-.82-.96.17-1.61.7-1.95,1.58-.33.88-.37,2.04-.12,3.48.26,1.46.69,2.54,1.3,3.26.61.71,1.4.99,2.37.82.95-.17,1.58-.69,1.91-1.59Z"/>
        <path class="cls-4" d="m275.32,54.88c-.62-.4-1-1.01-1.15-1.84-.14-.81,0-1.5.45-2.09.44-.59,1.11-.96,2-1.11.87-.15,1.61-.03,2.24.37.63.4,1.01,1,1.16,1.81.15.83,0,1.54-.46,2.12-.46.59-1.12.96-1.98,1.11-.89.16-1.64.04-2.26-.36Zm3,19.97l-2.96-16.81,5.26-.93,2.96,16.81-5.26.93Z"/>
        <path class="cls-4" d="m284.32,56.47l4.28-.76.75,2.03.09-.02c.65-.91,1.38-1.66,2.17-2.27.8-.61,1.72-1,2.76-1.19,1.77-.31,3.19.05,4.26,1.09,1.07,1.04,1.79,2.64,2.17,4.81l1.83,10.4-5.26.93-1.72-9.75c-.2-1.12-.49-1.87-.87-2.25s-.92-.51-1.61-.39c-.55.1-1.01.3-1.38.61-.37.31-.79.78-1.25,1.41l1.98,11.23-5.26.93-2.96-16.81Z"/>
        <path class="cls-4" d="m308.05,68.23c-1.17-1-1.94-2.55-2.31-4.63l-1.14-6.47-2.28.4-.69-3.9,2.56-.67-.2-4.56,4.34-.77.79,4.46,3.96-.7.72,4.11-3.96.7,1.13,6.41c.16.89.46,1.51.92,1.86.46.36,1.01.48,1.66.36.41-.07.91-.27,1.48-.6l1.5,3.67c-.6.31-1.17.57-1.74.78-.56.21-1.22.38-1.97.51-2.03.36-3.63.04-4.8-.97Z"/>
        <path class="cls-4" d="m319.03,59.46l-2.53-9.85-1.01-4.67,5.29-.93.65,4.73.99,10.12-3.4.6Zm.78,7.54c-.7-.53-1.13-1.25-1.3-2.18s0-1.75.48-2.47c.48-.73,1.17-1.17,2.05-1.32.91-.16,1.71.02,2.41.54.7.52,1.13,1.24,1.29,2.16s0,1.76-.47,2.49c-.48.73-1.17,1.18-2.08,1.34-.89.16-1.68-.03-2.38-.55Z"/>
      </g>
      <g>
        <path class="cls-6" d="m70.69,69.51c1.91,10.82-5.32,21.14-16.14,23.05-10.82,1.91-21.14-5.32-23.05-16.14-1.91-10.82,5.32-21.14,16.14-23.05,10.82-1.91,21.14,5.32,23.05,16.14Z"/>
        <text class="cls-5" transform="translate(49.47 84.87) rotate(-10)"><tspan x="0" y="0">!</tspan></text>
      </g>
      <g>
        <polygon class="cls-2" points="28.24 32.7 22.94 36.24 36.59 52.2 37.73 51.43 28.24 32.7"/>
        <g>
          <polygon class="cls-1" points="18.68 42.7 15.11 47.37 31.79 57.21 32.56 56.21 18.68 42.7"/>
          <polygon class="cls-3" points="35.85 31.25 41.52 29.75 44.21 48.92 42.99 49.25 35.85 31.25"/>
        </g>
      </g>
    </g>
  </g>
</svg>