<?xml version="1.0" encoding="UTF-8"?>
<svg id="_レイヤー_2" data-name="レイヤー 2" xmlns="http://www.w3.org/2000/svg" viewBox="0 0 77.32 77.32">
  <defs>
    <style>
      .cls-1, .cls-2 {
        fill: #fff;
      }

      .cls-3 {
        fill: #9ac243;
      }

      .cls-2 {
        font-family: 'Noto Sans JP', sans-serif;
        font-weight: 700;
      }
    </style>
  </defs>
  <g id="pc">
    <g>
      <rect class="cls-3" width="77.32" height="77.32"/>
      <g>
        <path class="cls-1" d="m43.96,36.21h-.78c-7.22,0-7.96-5.67-7.97-5.72l-.1-.87h8.85v6.59Zm-6.97-5.04c.46,1.19,1.78,3.21,5.42,3.46v-3.46h-5.42Z"/>
        <g>
          <path class="cls-1" d="m27.14,26.46c-1.11,0-2.04.93-2.04,2.04s.93,2.03,2.04,2.03,2.04-.92,2.04-2.03-.93-2.04-2.04-2.04Zm0,2.52c-.63,0-.63-.97,0-.97s.63.97,0,.97Z"/>
          <path class="cls-1" d="m64.34,22.55c-1.87,0-3.66.22-5.44.83-1.88.64-3.65,1.6-5.28,2.73-.3.21-.59.42-.88.64-.12.09-.24.19-.36.28-.13-.16-.26-.31-.39-.46-.62-.71-1.29-1.38-2.01-2-1.71-1.46-3.68-2.61-5.81-3.35.5-1.4,1-2.81,1.5-4.21-1.54-.37-3.08-.68-4.65-.88-1.1-.14-2.41-.39-3.5-.02-1.01.34-1.85,1.1-2.55,1.89-.63.72-1.19,1.51-1.67,2.34-.08.13-.15.26-.22.39-.37.09-.74.18-1.11.29-.8.23-1.59.52-2.37.84-1.75.74-3.39,1.69-4.94,2.86-1.64,1.23-3.14,2.66-4.42,4.26-.25.31-.5.63-.72.96-.05.08-.33.41-.29.47.11.16.21.32.32.48.77,1.12,1.7,2.15,2.68,3.09,1.71,1.66,3.74,3.23,5.85,4.25,4.7,2.26,10.04,3.1,15.14,1.62,2.17-.63,4.21-1.67,6-3.05.73-.56,1.42-1.18,2.07-1.85.27-.28.53-.57.79-.86.09-.11.24-.38.36-.29.18.14.36.28.54.41,1.88,1.4,3.98,2.56,6.22,3.29,1.35.43,2.76.7,4.18.72.31,0,.62,0,.94,0,.03,0,.02-.69.02-.77,0-1.55-.21-3.09-.52-4.6-.11-.54-.24-1.09-.39-1.62-.09-.33-.28-.7-.18-1.04.7-2.36,1.09-4.8,1.09-7.26v-.39Zm-25.87-5.05c1.73,0,3.47.29,5.17.64-.31.88-.63,1.76-.94,2.65.02-.06-3.22-.53-3.52-.55-1.35-.09-2.7-.04-4.04.13.69-1.03,1.92-2.86,3.33-2.86Zm-17.35,12.9c1.12-1.48,2.45-2.81,3.89-3.97,1.1-.89,2.28-1.68,3.53-2.35.26-.14.29.16.41.38.12.24.23.48.33.73.29.69.52,1.4.7,2.12.54,2.42.47,4.89-.31,7.26-.19.58-.41,1.14-.68,1.68-.07.14-.14.28-.22.42-.11.21-.22.04-.39-.05-.37-.2-.73-.41-1.08-.63-1.13-.71-2.2-1.52-3.2-2.41-1.08-.97-2.1-2.03-2.98-3.19.85-1.13.85,1.13,0,0Zm16.71,8.67c-2.65,0-5.29-.55-7.72-1.6,2.36-4.35,2.36-9.8,0-14.15,5.65-2.42,12.48-2.16,17.58,1.43,1.84,1.29,3.44,2.96,4.66,4.85.15.23.29.46.42.69.11.2-.19.52-.3.71-.31.5-.65.98-1.01,1.44-.47.61-.99,1.18-1.54,1.72-3.23,3.18-7.56,4.89-12.09,4.89Zm23.82-8.42c.64,1.92,1.02,4,1.12,6.02-2.55-.18-4.99-1.19-7.16-2.52-.79-.49-1.56-1.02-2.29-1.61.36-.52.69-1.05.98-1.61.06-.11.29-.45.24-.56-.32-.68-.69-1.32-1.11-1.94-.17-.25.05-.3.26-.46.17-.13.35-.26.52-.39.42-.3.84-.58,1.27-.85,2.19-1.36,4.68-2.41,7.28-2.59-.08,1.56-.35,3.1-.73,4.61-.13.52-.57,1.37-.39,1.89Z"/>
        </g>
      </g>
      <text class="cls-2" transform="translate(38.66 66)" text-anchor="middle" font-size="14"><tspan x="0" y="0">seafood</tspan></text>
    </g>
  </g>
</svg>