<?xml version="1.0" encoding="UTF-8"?>
<svg id="_レイヤー_2" data-name="レイヤー 2" xmlns="http://www.w3.org/2000/svg" viewBox="0 0 120 120">
  <defs>
    <style>
      .cls-1, .cls-2 {
        fill: #fff;
      }

      .cls-3 {
        fill: #9ac243;
      }

      .cls-2 {
        font-family: 'Noto Sans JP', sans-serif;
        font-size: 25.51px;
        font-weight: 700;
        letter-spacing: .08em;
      }
    </style>
  </defs>
  <g id="pc">
    <g>
      <rect class="cls-3" width="120" height="120"/>
      <g>
        <path class="cls-1" d="m46.29,47.79c-3.94,0-7.15-3.21-7.15-7.15s3.21-7.15,7.15-7.15,7.15,3.21,7.15,7.15-3.21,7.15-7.15,7.15Zm0-12.14c-2.75,0-4.99,2.24-4.99,4.99s2.24,4.99,4.99,4.99,4.99-2.24,4.99-4.99-2.24-4.99-4.99-4.99Z"/>
        <path class="cls-1" d="m85.69,42.13s-.07-.07-.07-.13c0-.03.05-.08.09-.1,1.19-.64,1.79-2.02,1.61-3.69-.17-1.6-1.15-3.54-2.87-3.99-1.86-.49-3.74.9-5.12,1.92-.34.25-.8.59-.89.63-.33.06-1.66-.13-3.19-.69-4.94-16.91-25.22-17.65-25.42-17.66-.16,0-.31.02-.45.08-.59-.05-1.18-.08-1.79-.08-11.19,0-19.62,9.77-19.62,22.72s7.84,20.75,19.52,20.79c.28.04,1.21.16,2.78.16,1.9,0,4.74-.17,8.47-.86,5.77-1.07,12.16-6.85,14.77-11.6.74-1.34,1.25-2.62,1.59-3.83,2.49-.13,2.66.17,2.85.48.05.09.1.18.16.27,1.17,1.83,2.39,2.85,3.72,3.14.25.05.5.08.75.08.81,0,1.64-.27,2.46-.82,1.66-1.1,2.1-3.03,1.95-4.48-.06-.57-.3-1.93-1.31-2.34Zm-55.55-.99c0-9.96,6.12-20.55,17.46-20.55,4.59,0,8.61,1.73,11.63,5.01,3.56,3.86,5.32,9.47,4.84,15.39-1.02,12.46-6.56,18.78-16.47,18.78-10.44,0-17.46-7.49-17.46-18.63Zm41.48,7.45c-2.38,4.33-8.28,9.59-13.27,10.51-.24.05-.48.08-.71.12,4.94-3.23,7.86-9.32,8.58-18.05.53-6.52-1.43-12.73-5.4-17.04-.5-.54-1.03-1.05-1.58-1.52,5.55,2.07,11.9,6.24,14.11,14.63.35,3.41.7,6.93-1.73,11.34Zm13.05-8.58s-.05.03-.07.04c-.78.48-1.2,1.29-1.13,2.15.07.8.54,1.5,1.23,1.86.1.23.24.83.11,1.54-.09.47-.32,1.13-.95,1.55-.59.39-1.1.53-1.57.43-.72-.15-1.51-.89-2.34-2.19-.04-.06-.08-.13-.11-.19-.67-1.15-1.46-1.66-4.25-1.58.26-1.84.2-3.53.06-5.13,1.22.35,2.47.57,3.23.41.51-.1,1-.46,1.74-1.01.91-.67,2.44-1.79,3.29-1.57.58.15,1.16,1.13,1.27,2.14.06.6-.03,1.32-.5,1.56Z"/>
      </g>
      <text class="cls-2" transform="translate(60 103)" text-anchor="middle" font-size="20"><tspan x="0" y="0">meat</tspan></text>
    </g>
  </g>
</svg>