<?xml version="1.0" encoding="UTF-8"?>
<svg id="_レイヤー_2" data-name="レイヤー 2" xmlns="http://www.w3.org/2000/svg" viewBox="0 0 120 120">
  <defs>
    <style>
      .cls-1, .cls-2 {
        fill: #fff;
      }

      .cls-3 {
        fill: #9ac243;
      }

      .cls-2 {
        font-family: 'Noto Sans JP', sans-serif;
        font-weight: 700;
        letter-spacing: .08em;
      }
    </style>
  </defs>
  <g id="pc">
    <rect class="cls-3" width="120" height="120"/>
    <g>
      <path class="cls-1" d="m72.64,29.12v-12.59c0-1.57-1.28-2.85-2.85-2.85h-3.9c-1.57,0-2.85,1.28-2.85,2.85v12.59c-1.4.17-4.62,1.08-4.62,5.69v33.41c0,.52.42.95.95.95h16.94c.52,0,.95-.42.95-.95v-33.41c0-4.61-3.22-5.52-4.62-5.69Zm-12.32,16.74h15.04v9.94h-15.04v-9.94Zm4.62-19.94h5.8v3.17h-5.8v-3.17Zm0-4.86h5.71v2.96h-5.71v-2.96Zm.95-5.48h3.9c.53,0,.95.43.95.95v2.63h-5.8v-2.63c0-.53.43-.95.95-.95Zm-2.43,15.4h8.77c1.44.11,3.14.87,3.14,3.83v9.15h-15.04v-9.15c0-2.97,1.7-3.72,3.14-3.83Zm-3.14,36.3v-9.59h15.04v9.59h-15.04Z"/>
      <path class="cls-1" d="m54.11,41.59h-12.88c-.52,0-.95.42-.95.95v4.49c0,1.42.35,5.13,1.38,6.88,1.24,2.1,2.98,3.33,5.06,3.62v5.56c-.42.52-1.62,1.87-3.41,2.6-.51.19-1.13.63-1.13,1.65,0,.52.42.95.95.95h9.08c.52,0,.95-.42.95-.95,0-1.02-.61-1.46-1.1-1.64-1.8-.73-3.02-2.09-3.44-2.61v-5.56c2.08-.28,3.82-1.52,5.06-3.62,1.03-1.74,1.38-5.45,1.38-6.88v-4.49c0-.52-.42-.95-.95-.95Zm-4.69,24.8h-3.5c.74-.52,1.33-1.07,1.75-1.52.42.45,1.01,1,1.75,1.52Zm3.75-19.36c0,1.68-.42,4.74-1.12,5.91-1.08,1.83-2.56,2.75-4.38,2.75s-3.3-.93-4.38-2.75c-.69-1.17-1.12-4.23-1.12-5.91v-3.55h10.99v3.55Z"/>
    </g>
    <text class="cls-2" transform="translate(60 103)" text-anchor="middle" font-size="20"><tspan x="0" y="0">alcohol</tspan></text>
  </g>
</svg>