<?xml version="1.0" encoding="utf-8"?>
<!-- Generator: Adobe Illustrator 27.3.1, SVG Export Plug-In . SVG Version: 6.00 Build 0)  -->
<svg version="1.1" id="_レイヤー_2" xmlns="http://www.w3.org/2000/svg" xmlns:xlink="http://www.w3.org/1999/xlink" x="0px"
	 y="0px" viewBox="0 0 375 25" style="enable-background:new 0 0 375 25;" xml:space="preserve" preserveAspectRatio="none">
<style type="text/css">
	.st0{fill:#FFFFFF;}
</style>
<path class="st0" d="M375,25v-1c-15.9,0-24-6.2-31.8-12.2C335.3,5.7,327.8,0,312.5,0c-15.3,0-22.8,5.7-30.7,11.8
	C274,17.8,265.9,24,250,24s-24-6.2-31.8-12.2C210.3,5.7,202.8,0,187.5,0s-22.8,5.7-30.7,11.8C149,17.8,140.9,24,125,24
	s-24-6.2-31.8-12.2C85.3,5.7,77.8,0,62.5,0C47.2,0,39.7,5.7,31.8,11.8C24,17.8,15.9,24,0,24v1H375z"/>
</svg>
