<?xml version="1.0" encoding="utf-8"?>
<!-- Generator: Adobe Illustrator 27.4.0, SVG Export Plug-In . SVG Version: 6.00 Build 0)  -->
<svg version="1.1" id="_レイヤー_2" xmlns="http://www.w3.org/2000/svg" xmlns:xlink="http://www.w3.org/1999/xlink" x="0px"
	 y="0px" viewBox="0 0 100 100" style="enable-background:new 0 0 100 100;" xml:space="preserve">
<style type="text/css">
	.st0{fill:rgba(0,0,0,.5);}
	.st1{fill:#FFFFFF;}
	.st2{font-family:'KozGoPr6N-Regular-83pv-RKSJ-H',sans-serif;}
	.st3{font-size:10px;font-feature-settings:'palt';}
</style>
<g id="_レイヤー_1-2">
	<path class="st0" d="M10,0h80c5.5,0,10,4.5,10,10v80c0,5.5-4.5,10-10,10H10c-5.5,0-10-4.5-10-10V10C0,4.5,4.5,0,10,0z"/>
	<path class="st1" d="M31.5,26.1c-0.4,0-0.8-0.1-1.1-0.4S30,25,30,24.6v-7.1c0-0.4,0.1-0.6,0.4-0.9c0.2-0.2,0.5-0.3,0.9-0.3
		s0.6,0.1,0.9,0.3s0.3,0.5,0.3,0.9v3.9c2.4-2.1,5.1-3.7,8.1-4.8c3-1.1,6.1-1.6,9.3-1.6s6.4,0.5,9.4,1.6c3,1.1,5.7,2.7,8.2,4.8v-3.9
		c0-0.4,0.1-0.7,0.4-0.9s0.5-0.4,0.9-0.4s0.7,0.1,0.9,0.4c0.2,0.2,0.3,0.5,0.3,0.9v7.1c0,0.4-0.1,0.8-0.4,1.1s-0.6,0.4-1.1,0.4h-6.8
		c-0.3,0-0.6-0.1-0.9-0.4s-0.3-0.5-0.3-0.9s0.1-0.6,0.3-0.9c0.2-0.2,0.5-0.3,0.9-0.3h4.8c-2.3-2-4.9-3.6-7.7-4.7s-5.8-1.7-8.9-1.7
		s-6,0.6-8.8,1.7c-2.8,1.1-5.3,2.7-7.7,4.7h4.8c0.3,0,0.6,0.1,0.9,0.3s0.3,0.5,0.3,0.9s-0.1,0.7-0.3,0.9s-0.5,0.4-0.9,0.4
		C38.3,26.1,31.5,26.1,31.5,26.1z M47.1,59c-0.6,0-1.1-0.1-1.6-0.3s-0.9-0.5-1.3-0.9l-7.9-7.9c-0.5-0.5-0.8-1.2-0.9-2.2
		s0.1-1.8,0.7-2.6c0.6-0.8,1.2-1.3,2-1.5s1.4-0.3,2.1-0.2l3.9,0.9V28c0-1.4,0.5-2.6,1.5-3.5S47.6,23,49,23s2.6,0.5,3.5,1.5
		c1,1,1.5,2.1,1.5,3.5v8.6h1.3c0.2,0,0.3,0,0.5,0.1s0.3,0.1,0.5,0.2l7.4,3.6c0.8,0.4,1.4,1,1.8,1.8s0.5,1.7,0.3,2.5l-1.8,10.9
		c-0.2,1-0.6,1.8-1.4,2.4S60.9,59,59.9,59L47.1,59L47.1,59z M46.7,56h14l2.2-12.5L53.8,39H51V28c0-0.6-0.2-1.1-0.5-1.5
		S49.6,26,49,26s-1.1,0.2-1.5,0.5S47,27.4,47,28v20l-7.7-1.7l-1.2,1.2L46.7,56z M60.7,56h-14H60.7z"/>
	<text x="50%" y="85%" text-anchor="middle" class="st1 st2 st3">スクロールできます</text>
</g>
</svg>
