<?xml version="1.0" encoding="utf-8"?>
<!-- Generator: Adobe Illustrator 27.3.1, SVG Export Plug-In . SVG Version: 6.00 Build 0)  -->
<svg version="1.1" id="_レイヤー_2" xmlns="http://www.w3.org/2000/svg" xmlns:xlink="http://www.w3.org/1999/xlink" x="0px"
	 y="0px" viewBox="0 0 26.9 25.4" style="enable-background:new 0 0 26.9 25.4;" xml:space="preserve">
<style type="text/css">
	.st0{fill:#FFFFFF;}
</style>
<path class="st0" d="M11,23.5c0.9,0.7,1.6,1.4,2,1.7c0.1,0.1,0.3,0.2,0.4,0.2h0.1c0,0,0,0,0,0c0.2,0,0.3-0.1,0.5-0.2
	c0.4-0.4,1.1-1,2-1.7c1.9-1.6,4.5-3.7,6.1-5.6c2.5-3,4.9-6.3,4.9-10.7C26.9,3.2,23.8,0,20,0c-2.9,0-5.3,1.5-6.6,4
	c-1.3-2.5-3.7-4-6.6-4C3.1,0,0,3.2,0,7.1c0,4.5,2.4,7.8,4.9,10.7C6.5,19.8,9.1,21.9,11,23.5L11,23.5z"/>
</svg>
