<?xml version="1.0" encoding="utf-8"?>
<!-- Generator: Adobe Illustrator 27.3.1, SVG Export Plug-In . SVG Version: 6.00 Build 0)  -->
<svg version="1.1" id="_レイヤー_2" xmlns="http://www.w3.org/2000/svg" xmlns:xlink="http://www.w3.org/1999/xlink" x="0px"
	 y="0px" viewBox="0 0 32.9 48.4" style="enable-background:new 0 0 32.9 48.4;" xml:space="preserve">
<style type="text/css">
	.st0{fill:#2a88a4;stroke:#FFFFFF;stroke-width:0.28;stroke-miterlimit:10;}
	.st1{fill:#2a88a4;}
	.st2{fill:#FFFFFF;}
</style>
<g>
	<path class="st0" d="M2.3,48.2h28.2c1.2,0,2.2-1,2.2-2.2V2.3c0-1.2-1-2.2-2.2-2.2H2.3c-1.2,0-2.2,1-2.2,2.2v43.7
		C0.1,47.3,1.1,48.2,2.3,48.2L2.3,48.2z M1.8,2.3C1.8,2,2,1.8,2.3,1.8h28.2c0.3,0,0.5,0.2,0.5,0.5v36.1H1.8V2.3z M1.8,40h29.4v6
		c0,0.3-0.2,0.5-0.5,0.5H2.3c-0.3,0-0.5-0.2-0.5-0.5L1.8,40L1.8,40z"/>
	<path class="st0" d="M16.7,45.2c1.2,0,2.1-1,2.1-2.1s-1-2.1-2.1-2.1s-2.1,1-2.1,2.1S15.5,45.2,16.7,45.2z"/>
	<path class="st0" d="M18.6,3.5H15c-0.4,0-0.8,0.4-0.8,0.8s0.4,0.8,0.8,0.8h3.6c0.5,0,0.8-0.4,0.8-0.8S19,3.5,18.6,3.5z"/>
</g>
<g>
	<path class="st1" d="M9.9,20.9v8.5c0,0.2,0.1,0.3,0.3,0.3h12.3c0.2,0,0.3-0.1,0.3-0.3v-8.5c0-0.2-0.1-0.3-0.3-0.3h-2.8v-4.4
		c0-0.1,0-1.5-0.9-2.5c-0.6-0.6-1.4-0.9-2.4-0.9c-3.4,0-3.4,3.4-3.4,3.4v4.3h-2.8C10.1,20.6,9.9,20.7,9.9,20.9L9.9,20.9z M17.6,16.2
		v4.4h-2.5v-4.3c0,0,0-0.4,0.2-0.7c0.2-0.4,0.6-0.6,1.1-0.6C17.6,15,17.6,16.1,17.6,16.2z"/>
	<path class="st2" d="M16.4,22.4c-0.8,0-1.5,0.7-1.5,1.5c0,0.7,0.5,1.3,1.2,1.5v1.5c0,0.2,0.1,0.3,0.3,0.3s0.3-0.1,0.3-0.3v-1.5
		c0.7-0.1,1.2-0.8,1.2-1.5C17.9,23.1,17.2,22.4,16.4,22.4z M16.4,24.8c-0.5,0-0.9-0.4-0.9-0.9s0.4-0.9,0.9-0.9
		c0.5,0,0.9,0.4,0.9,0.9S16.9,24.8,16.4,24.8z"/>
</g>
</svg>
