<?xml version="1.0" encoding="utf-8"?>
<!-- Generator: Adobe Illustrator 27.3.1, SVG Export Plug-In . SVG Version: 6.00 Build 0)  -->
<svg version="1.1" id="_レイヤー_2" xmlns="http://www.w3.org/2000/svg" xmlns:xlink="http://www.w3.org/1999/xlink" x="0px"
	 y="0px" viewBox="0 0 27.1 33" style="enable-background:new 0 0 27.1 33;" xml:space="preserve">
<style type="text/css">
	.st0{fill:#2a88a4;}
</style>
<g>
	<path class="st0" d="M27.1,27.5C27.1,27.5,27.1,27.5,27.1,27.5v-24c0-0.3-0.3-0.6-0.6-0.6H24V0.6C24,0.3,23.8,0,23.4,0H0.6
		C0.3,0,0,0.3,0,0.6v28.8C0,29.7,0.3,30,0.6,30h2.5v2.4c0,0.3,0.3,0.6,0.6,0.6h18.5c0.1,0,0.3,0,0.4-0.1c0,0,0.1,0,0.1,0
		C26.4,31.9,27.1,27.7,27.1,27.5L27.1,27.5z M3.1,3.6v25.2H1.1V1.1h21.7V3H3.7C3.3,3,3.1,3.3,3.1,3.6z M22.1,27
		c-0.3,0-0.6,0.3-0.6,0.6v4.2H4.2V4.2h21.7V27H22.1z M22.7,31.6v-3.5h3C25.4,29.2,24.6,31,22.7,31.6z"/>
	<path class="st0" d="M21,14.1H9.4c-0.3,0-0.6,0.3-0.6,0.6s0.3,0.6,0.6,0.6H21c0.3,0,0.6-0.3,0.6-0.6S21.3,14.1,21,14.1z"/>
	<path class="st0" d="M21,20.3H9.4c-0.3,0-0.6,0.3-0.6,0.6s0.3,0.6,0.6,0.6H21c0.3,0,0.6-0.3,0.6-0.6S21.3,20.3,21,20.3z"/>
	<path class="st0" d="M9.4,12.1h8.1c0.3,0,0.6-0.3,0.6-0.6S17.8,11,17.4,11H9.4c-0.3,0-0.6,0.3-0.6,0.6S9,12.1,9.4,12.1z"/>
	<path class="st0" d="M9.4,18.3h11.5c0.3,0,0.6-0.3,0.6-0.6s-0.3-0.6-0.6-0.6H9.4c-0.3,0-0.6,0.3-0.6,0.6S9.1,18.3,9.4,18.3z"/>
</g>
</svg>
