<?xml version="1.0" encoding="UTF-8"?>
<svg id="_レイヤー_2" data-name="レイヤー 2" xmlns="http://www.w3.org/2000/svg" viewBox="0 0 15.64 17.03">
  <defs>
    <style>
      .cls-1 {
        fill: #fff;
      }
    </style>
  </defs>
  <g id="_01" data-name="01">
    <g>
      <path class="cls-1" d="m7.88,8.97c2.47,0,4.48-2.01,4.48-4.48S10.35,0,7.88,0,3.39,2.01,3.39,4.48s2.01,4.48,4.48,4.48Z"/>
      <path class="cls-1" d="m15.64,13.31c-.19-.89-.58-1.65-1.19-2.25-1.46-1.44-3.58-1.43-3.67-1.43-.09,0-.17.02-.24.05-.17-.03-.35.01-.49.13-.6.51-1.39.78-2.22.78s-1.67-.3-2.28-.84c-.19-.17-.45-.2-.67-.09-.06-.02-.13-.04-.2-.04-2.94,0-4.23,2.03-4.68,3.77,1.86,2.22,4.66,3.63,7.78,3.63s5.99-1.45,7.86-3.72Z"/>
    </g>
  </g>
</svg>