<?xml version="1.0" encoding="UTF-8"?>
<svg id="_レイヤー_2" data-name="レイヤー 2" xmlns="http://www.w3.org/2000/svg" viewBox="0 0 39.39 26.26">
  <defs>
    <style>
      .cls-1 {
        fill: #004a7b;
      }

      .cls-2 {
        fill: #fff;
      }

      .cls-3 {
        fill: #ffd400;
      }

      .cls-4 {
        fill: #d40029;
      }
    </style>
  </defs>
  <g id="_01" data-name="01">
    <g>
      <rect class="cls-4" width="39.39" height="26.26"/>
      <rect class="cls-2" y="13.13" width="39.39" height="1.88"/>
      <rect class="cls-2" y="16.88" width="39.39" height="1.88"/>
      <rect class="cls-2" y="24.38" width="39.39" height="1.88"/>
      <rect class="cls-2" y="20.63" width="39.39" height="1.88"/>
      <rect class="cls-2" y="1.88" width="39.39" height="1.88"/>
      <rect class="cls-2" y="5.63" width="39.39" height="1.88"/>
      <rect class="cls-2" y="9.38" width="39.39" height="1.88"/>
      <rect class="cls-1" width="19.69" height="15"/>
      <polygon class="cls-3" points="12.62 5.46 13.09 3.4 13.56 5.46 14.87 3.8 14.4 5.86 16.3 4.94 14.98 6.59 17.1 6.59 15.19 7.5 17.1 8.42 14.98 8.41 16.3 10.06 14.4 9.14 14.87 11.2 13.56 9.55 13.09 11.61 12.62 9.55 11.3 11.2 11.78 9.14 9.87 10.06 11.2 8.41 9.08 8.42 10.99 7.5 9.08 6.59 11.2 6.59 9.87 4.94 11.78 5.86 11.3 3.8 12.62 5.46"/>
      <path class="cls-3" d="m4.17,7.5c0-3.14,2.54-5.68,5.68-5.68.5,0,.99.07,1.45.19-.94-.55-2.03-.86-3.19-.86C4.6,1.15,1.76,3.99,1.76,7.5s2.84,6.35,6.35,6.35c1.16,0,2.25-.31,3.19-.86-.46.12-.95.19-1.45.19-3.14,0-5.68-2.54-5.68-5.68Z"/>
    </g>
  </g>
</svg>