<?xml version="1.0" encoding="utf-8"?>
<!-- Generator: Adobe Illustrator 27.3.1, SVG Export Plug-In . SVG Version: 6.00 Build 0)  -->
<svg version="1.1" id="_レイヤー_2" xmlns="http://www.w3.org/2000/svg" xmlns:xlink="http://www.w3.org/1999/xlink" x="0px"
	 y="0px" viewBox="0 0 33.2 33.2" style="enable-background:new 0 0 33.2 33.2;" xml:space="preserve">
<style type="text/css">
	.st0{fill:#2a88a4;}
</style>
<g>
	<path class="st0" d="M16.5,17.4c0.4,0,0.7-0.3,0.7-0.7S16.9,16,16.5,16s-0.7,0.3-0.7,0.7S16.1,17.4,16.5,17.4z"/>
	<path class="st0" d="M13.7,0.2c-0.3,0.1-0.5,0.3-0.4,0.6c0,0.3,0.3,0.4,0.5,0.4c0,0,0.1,0,0.1,0c0.9-0.1,1.8-0.2,2.7-0.2
		c0.3,0,0.5-0.2,0.5-0.5S16.9,0,16.6,0C15.6,0,14.7,0.1,13.7,0.2L13.7,0.2z"/>
	<path class="st0" d="M4.6,6.4c0.1,0,0.3-0.1,0.4-0.2C6.7,4.3,8.9,2.9,11.2,2c0.3-0.1,0.4-0.4,0.3-0.7C11.5,1,11.2,0.9,10.9,1
		C8.3,1.9,6,3.5,4.2,5.6C4,5.8,4,6.1,4.2,6.3C4.3,6.4,4.4,6.4,4.6,6.4L4.6,6.4z"/>
	<path class="st0" d="M1,16.6c0-2.7,0.7-5.4,2.1-7.8c0.2-0.2,0.1-0.6-0.2-0.7C2.7,8,2.4,8,2.2,8.3C0.8,10.8,0,13.7,0,16.6
		c0,4.8,2,9.3,5.6,12.4c0.1,0.1,0.2,0.1,0.3,0.1c0.2,0,0.3-0.1,0.4-0.2c0.2-0.2,0.2-0.5-0.1-0.7C3,25.3,1,21,1,16.6L1,16.6z"/>
	<path class="st0" d="M14.7,16.2C14.7,16.2,14.8,16.3,14.7,16.2c0,0.2,0,0.3,0,0.4c0,1,0.8,1.8,1.8,1.8s1.8-0.8,1.8-1.8
		c0-0.3-0.1-0.6-0.2-0.9l4.9-4.9c0.2-0.2,0.2-0.5,0-0.7c-0.2-0.2-0.5-0.2-0.7,0l-4.9,4.9c-0.2-0.1-0.5-0.2-0.8-0.2s-0.6,0.1-0.8,0.2
		l-2.9-2.8c-0.2-0.2-0.5-0.2-0.7,0l-0.3,0.3c-0.2,0.2-0.2,0.5,0,0.7L14.7,16.2L14.7,16.2z M16.5,16c0.4,0,0.7,0.3,0.7,0.7
		s-0.3,0.7-0.7,0.7s-0.7-0.3-0.7-0.7S16.1,16,16.5,16z"/>
	<path class="st0" d="M16.6,27.7c6.1,0,11.1-5,11.1-11.1s-5-11.1-11.1-11.1s-11.1,5-11.1,11.1S10.4,27.7,16.6,27.7z M6.5,16.4h0.6
		c0.3,0,0.5-0.2,0.5-0.5s-0.2-0.5-0.5-0.5H6.6c0.6-4.8,4.5-8.5,9.4-8.8v0.3c0,0.3,0.2,0.5,0.5,0.5S17,7.2,17,6.9V6.5
		c5.2,0.2,9.4,4.4,9.6,9.6H26c-0.3,0-0.5,0.2-0.5,0.5s0.2,0.5,0.5,0.5h0.6c-0.3,5.1-4.5,9.3-9.6,9.5v-0.5c0-0.3-0.2-0.5-0.5-0.5
		s-0.5,0.2-0.5,0.5v0.5c-5.3-0.3-9.4-4.7-9.4-10C6.5,16.5,6.5,16.4,6.5,16.4L6.5,16.4z"/>
	<path class="st0" d="M32.5,8.9c0.3,0.1,0.6-0.1,0.6-0.4S33,7.9,32.7,7.8L30,7.4c-0.3-0.1-0.6,0.1-0.6,0.4l-0.5,2.7
		c0,0.3,0.1,0.6,0.4,0.6c0,0,0.1,0,0.1,0c0.2,0,0.5-0.2,0.5-0.4l0.2-1.5c1.2,2.3,1.9,4.8,1.9,7.4c0,8.6-7,15.5-15.5,15.5
		c-2.7,0-5.4-0.7-7.8-2.1c-0.2-0.1-0.6-0.1-0.7,0.2c-0.2,0.2-0.1,0.6,0.2,0.7c2.5,1.5,5.4,2.2,8.3,2.2c9.1,0,16.6-7.4,16.6-16.6
		c0-2.8-0.7-5.5-2-7.9L32.5,8.9L32.5,8.9z"/>
</g>
</svg>
