<?xml version="1.0" encoding="utf-8"?>
<!-- Generator: Adobe Illustrator 27.3.1, SVG Export Plug-In . SVG Version: 6.00 Build 0)  -->
<svg version="1.1" id="_レイヤー_2" xmlns="http://www.w3.org/2000/svg" xmlns:xlink="http://www.w3.org/1999/xlink" x="0px"
	 y="0px" viewBox="0 0 100 100" style="enable-background:new 0 0 100 100;" xml:space="preserve">
<style type="text/css">
	.st0{fill:#FFFFFF;}
	.st1{fill:#A0D2F0;}
	.st2{fill:#1E3246;}
</style>
<ellipse transform="matrix(0.7071 -0.7071 0.7071 0.7071 -20.7105 50.0005)" class="st0" cx="50" cy="50" rx="50" ry="50"/>
<path class="st1" d="M63.1,84.3c-0.9,0.9-2.1,1.4-3.3,1.4h0h-6.6h-8.7c-3.5,0-6.4-2.8-6.4-6.4c0-3.1,2.2-5.7,5.2-6.3
	c0.2,0,1.5-0.2,2-0.2c0.2,0,0.3-0.1,0.3-0.3s-0.1-0.3-0.3-0.3c-0.3,0-0.9,0.1-1.3,0.1c0.8-1.8,1.2-2.4,1.7-2.9
	c1.7-1.7,4-2.6,6.4-2.6s4.7,0.9,6.4,2.6s2.7,4.1,2.6,6.6c0,0.2,0.1,0.3,0.3,0.3l0.1,0c0.7,0.2,1.2,0.6,1.7,1.1
	c0.9,0.9,1.4,2.1,1.4,3.4S64,83.4,63.1,84.3L63.1,84.3z"/>
<g>
	<path class="st2" d="M62.7,76.6c-0.5-0.5-1.1-0.9-1.8-1.2l-0.1,0v-0.1c0-2.5-1-4.9-2.8-6.7c-1.8-1.8-4.2-2.8-6.8-2.8s-5,1-6.8,2.8
		c-0.6,0.6-1.1,1.3-1.5,2c0,0.1,0,0.2,0,0.2c0,0.1,0.1,0.2,0.2,0.2c0.2,0.1,0.3,0,0.4-0.1c0.4-0.7,0.9-1.3,1.5-1.9
		c1.7-1.7,4-2.6,6.4-2.6s4.7,0.9,6.4,2.6s2.7,4.1,2.6,6.6c0,0.2,0.1,0.3,0.3,0.3l0.1,0c0.7,0.2,1.2,0.6,1.7,1.1
		c0.9,0.9,1.4,2.1,1.4,3.4s-0.5,2.5-1.4,3.4c-0.9,0.9-2.1,1.4-3.3,1.4h0h-4.5c-0.2,0-0.3,0.1-0.3,0.3s0.1,0.3,0.3,0.3h4.7
		c0,0,0,0,0.1,0c1.4-0.1,2.6-0.6,3.6-1.6c1-1,1.6-2.4,1.6-3.8S63.7,77.6,62.7,76.6L62.7,76.6z"/>
	<path class="st2" d="M52.3,85.2h-8.7c-3.5,0-6.4-2.8-6.4-6.4c0-3.1,2.2-5.7,5.2-6.3c0.2,0,1.5-0.2,2-0.2c0.2,0,0.3-0.1,0.3-0.3
		s-0.1-0.3-0.3-0.3c-0.7,0-2.1,0.2-2.1,0.2c-3.3,0.6-5.8,3.5-5.8,6.9c0,3.9,3.1,7,7,7h8.7c0.2,0,0.3-0.1,0.3-0.3
		S52.5,85.2,52.3,85.2L52.3,85.2z"/>
	<path class="st2" d="M83.6,40.3c-1.1-1-2.2-2-3.4-3c-0.3-0.2-0.4-0.5-0.4-0.9c0-1.7,0-3.5,0-5.2c0-0.6-0.3-0.9-0.9-0.9
		c-3.5,0-7,0-10.5,0c-0.2,0-0.5,0-0.7-0.1c-1.4-0.5-2.8-1-4.2-1.4c-2.1-0.6-4.2-1-6.4-1.5v-0.6c0-3.1,0-6.2,0-9.4
		c0-0.8,0-0.8-0.8-0.8c-3.6,0-7.2,0-10.9,0c-0.8,0-0.8,0-0.8,0.8c0,3.1,0,6.2,0,9.4v0.7c-0.2,0-0.2,0-0.3,0.1
		c-3.3,0.4-6.5,1.3-9.6,2.5c-0.5,0.2-1,0.4-1.5,0.4c-3.5,0-7,0-10.6,0c-0.5,0-0.8,0.2-0.7,0.7c0,1.8,0,3.6,0,5.4
		c0,0.4-0.1,0.6-0.4,0.9c-1.1,0.9-2.2,1.9-3.4,2.9c-0.2,0.2-0.5,0.4-0.2,0.8c0.3,0.3,0.5,0.1,0.8-0.1c0.8-0.7,1.6-1.4,2.4-2.1
		c0.2-0.2,0.5-0.4,0.8-0.6V39c0,3.6,0,7.2,0,10.9c0,0.3-0.1,0.7,0.4,0.7c0.5,0,0.4-0.4,0.4-0.7c0-0.1,0-0.1,0-0.2
		c0-5.9,0-11.8,0-17.8c0-0.2,0-0.4,0-0.7h10.7v18.5h-0.7c-1.7,0-3.4,0-5,0c-1.3,0-2.5,0-3.8,0c-0.2,0-0.3,0.2-0.5,0.4
		c0.2,0.1,0.3,0.3,0.5,0.4c0.1,0.1,0.3,0,0.4,0c1.4,0,2.8,0,4.2,0c0.2,0,0.4,0,0.6,0c-0.3,0.3-0.6,0.5-0.7,0.7
		c-0.1,0.2-0.1,0.5-0.1,0.7c0.2,0,0.5,0,0.6-0.1c0.4-0.3,0.8-0.6,1.1-1c0.2-0.3,0.5-0.3,0.8-0.3c0.9,0,1.7,0,2.5,0
		c0.6,0,0.8-0.2,0.8-0.8c0-0.5,0-1,0-1.5c0-0.5,0.1-0.7,0.5-0.9c1.4-0.7,2.8-1.6,4.2-2.2c4.6-1.9,9.5-2.5,14.4-2
		c4.8,0.5,9.3,1.9,13.5,4.3c0.3,0.2,0.4,0.4,0.4,0.8c0,0.6,0,1.2,0,1.8c0,0.2,0.3,0.3,0.4,0.5c0.2-0.2,0.3-0.3,0.4-0.5
		c0.1-0.1,0-0.3,0-0.5c0-5.9,0-11.8,0-17.6v-0.7h10.8v0.8c0,5.6,0,11.3,0,17c0,0.5-0.3,0.8-0.8,0.8c-2.9,0-5.7,0-8.6,0
		c-0.3,0-0.7-0.1-0.7,0.4c0,0.5,0.4,0.4,0.7,0.4c0.3,0,0.7,0,1,0c0.4,0,0.7,0,0.9,0.4c0.3,0.4,0.7,0.7,1.1,1c0.1,0.1,0.4,0,0.6,0
		c0-0.2,0-0.5-0.1-0.6c-0.2-0.2-0.4-0.4-0.7-0.7c0.3,0,0.5,0,0.7,0c1.9,0,3.8,0,5.8,0c0.6,0,0.8-0.2,0.8-0.8c0-3.7,0-7.3,0-10.9V38
		c1.2,1,2.2,2,3.2,2.9c0.2,0.2,0.5,0.4,0.8,0.1C84,40.7,83.7,40.5,83.6,40.3L83.6,40.3z M67.3,46.6C67.3,46.6,67.3,46.6,67.3,46.6
		c-11-5.6-22-6.2-33,0c0-0.1,0-0.2,0-0.3c0-4.9,0-9.8,0-14.6c0-0.3,0-0.5,0.4-0.7c3-1.2,6.2-2,9.4-2.5c0.1,0,0.2,0,0.5,0v0.6
		c0,2.3,0,4.6,0,6.9c0,0.2,0,0.3,0,0.5c0.1,0.1,0.3,0.3,0.4,0.3c0.1,0,0.3-0.2,0.3-0.3c0-0.4,0-0.8,0-1.2c0-5.7,0-11.4,0-17.1
		c0-0.2,0-0.4,0-0.7h10.8V36h-0.7c-2.8,0-5.7,0-8.5,0c-0.2,0-0.3,0-0.5,0s-0.3,0.2-0.3,0.3c0,0.2,0.2,0.3,0.3,0.4
		c0.1,0.1,0.3,0,0.5,0c3.1,0,6.2,0,9.2,0c0.8,0,0.8,0,0.8-0.8c0-2.3,0-4.6,0-6.9v-0.8c1.2,0.2,2.4,0.4,3.6,0.7
		c2.1,0.6,4.2,1.2,6.3,1.9c0.2,0,0.4,0.3,0.4,0.5C67.4,36.4,67.4,41.5,67.3,46.6L67.3,46.6z"/>
	<path class="st2" d="M24.6,48.4c2.3,0,4.7,0,7,0c0.8,0,0.8,0,0.8-0.8c0-4.7,0-9.4,0-14.1c0-0.1,0-0.3,0-0.4
		c-0.1-0.2-0.2-0.3-0.4-0.3c-0.1,0-0.3,0.2-0.4,0.3c-0.1,0.1,0,0.3,0,0.5c0,4,0,7.9,0,11.9c0,0.7,0,1.4,0,2.1h-6.8v-14
		c1.6,0,3.1,0,4.5,0c0.3,0,0.7,0,0.6-0.4c0-0.2-0.4-0.4-0.6-0.4c-1.6,0-3.2,0-4.7,0c-0.5,0-0.7,0.2-0.7,0.7c0,4.7,0,9.5,0,14.2
		C23.8,48.2,24,48.4,24.6,48.4L24.6,48.4z"/>
	<path class="st2" d="M70.1,48.3c2.3,0,4.6,0,6.9,0c0.6,0,0.9-0.3,0.9-0.9c0-4.7,0-9.3,0-14c0-0.1,0-0.3,0-0.4
		c-0.1-0.2-0.2-0.4-0.3-0.4c-0.1,0-0.3,0.2-0.4,0.3C77,33.1,77,33.3,77,33.5c0,3.9,0,7.9,0,11.8c0,0.7,0,1.4,0,2.2h-6.8v-14
		c1.5,0,3,0,4.5,0c0.3,0,0.7,0,0.7-0.4c0-0.4-0.3-0.4-0.7-0.4c-1.6,0-3.1,0-4.7,0c-0.6,0-0.7,0.2-0.7,0.8c0,4.7,0,9.4,0,14.2
		C69.3,48.3,69.4,48.4,70.1,48.3L70.1,48.3z"/>
	<path class="st2" d="M68.5,56.2c-6.4-5.3-13.8-7.6-22.1-6.3c-5.1,0.8-9.5,3.1-13.4,6.4c-0.2,0.2-0.5,0.4-0.2,0.7s0.5,0.1,0.8-0.1
		c0.3-0.3,0.7-0.6,1-0.8c4.4-3.4,9.4-5.4,15-5.7c6.5-0.3,12.3,1.8,17.5,5.8c0.4,0.3,0.7,0.6,1.1,0.9c0.3,0.2,0.7,0.1,0.7-0.4
		C68.9,56.6,68.7,56.4,68.5,56.2L68.5,56.2z"/>
	<path class="st2" d="M62.6,62.1c-6.6-6.2-16.8-6.2-23.5,0c-0.1,0.1-0.3,0.2-0.3,0.3c0,0.2-0.1,0.4,0,0.5s0.4,0.1,0.5,0
		c0.1,0,0.2-0.2,0.4-0.3c6.3-5.8,15.9-5.8,22.2,0c0.1,0.1,0.2,0.3,0.4,0.3c0.2,0,0.5-0.1,0.8-0.2C62.9,62.4,62.7,62.2,62.6,62.1
		L62.6,62.1z"/>
	<path class="st2" d="M47.4,34.6c2.3,0,4.6,0,6.9,0c0.8,0,0.9,0,0.9-0.8c0-4.7,0-9.3,0-14c0-0.2,0-0.4,0-0.5
		c-0.1-0.1-0.2-0.3-0.4-0.3c-0.1,0-0.3,0.2-0.4,0.3c-0.1,0.1,0,0.4,0,0.5c0,4,0,7.9,0,11.9c0,0.7,0,1.4,0,2.1h-6.8v-14
		c1.5,0,3,0,4.5,0c0.3,0,0.7,0,0.7-0.4c0-0.5-0.4-0.4-0.7-0.4c-1.5,0-3,0-4.6,0c-0.8,0-0.8,0-0.8,0.8c0,4.7,0,9.4,0,14
		C46.5,34.6,46.6,34.6,47.4,34.6L47.4,34.6z"/>
</g>
</svg>
