<?xml version="1.0" encoding="utf-8"?>
<!-- Generator: Adobe Illustrator 27.3.1, SVG Export Plug-In . SVG Version: 6.00 Build 0)  -->
<svg version="1.1" id="_レイヤー_2" xmlns="http://www.w3.org/2000/svg" xmlns:xlink="http://www.w3.org/1999/xlink" x="0px"
	 y="0px" viewBox="0 0 21 25" style="enable-background:new 0 0 21 25;" xml:space="preserve">
<style type="text/css">
	.st0{fill:#FFFFFF;}
	.st1{fill:#008A8E;}
</style>
<path class="st0" d="M20.9,18.1c-0.1-2.1-0.7-3.7-1.9-4.9l0,0c-1.6-1.6-3.8-1.9-4.6-2c1.5-1.1,2.4-2.9,2.4-4.9C16.8,2.9,14,0,10.6,0
	C7.1,0,4.3,2.8,4.3,6.2c0,2.1,1,3.9,2.6,5.1c0,0,0,0,0,0H6.8c-4.9,0-6.7,4.2-6.7,7c0,0.1,0.1,5,0.1,5c0,1,0.7,1.7,1.7,1.7l16.5-0.1
	c0.8,0,2.5,0,2.5-1.7L20.9,18.1z"/>
<path class="st1" d="M10.6,11.5c2.9,0,5.2-2.4,5.2-5.2S13.5,1,10.6,1S5.3,3.3,5.3,6.2S7.7,11.5,10.6,11.5z"/>
<path class="st1" d="M18.3,13.9c-1.7-1.7-4.2-1.7-4.3-1.7s-0.2,0-0.3,0.1c-0.2,0-0.4,0-0.6,0.2c-0.7,0.6-1.6,0.9-2.6,0.9
	s-2-0.4-2.7-1c-0.2-0.2-0.5-0.2-0.8-0.1c-0.1,0-0.2,0-0.2,0c-4.4,0-5.7,3.9-5.7,6l0,0c0,0.1,0.1,5,0.1,5c0,0.4,0.3,0.7,0.7,0.7l0,0
	l16.5-0.1c0.9,0,1.5,0,1.5-0.7v-5C19.8,16.4,19.3,15,18.3,13.9L18.3,13.9z"/>
</svg>
