<?xml version="1.0" encoding="UTF-8"?>
<svg id="_レイヤー_2" data-name="レイヤー 2" xmlns="http://www.w3.org/2000/svg" viewBox="0 0 23.33 12.58">
  <defs>
    <style>
      .cls-1 {
        fill: #008a8e;
      }
    </style>
  </defs>
  <g id="_01" data-name="01">
    <path class="cls-1" d="m21.07,4.5c-.66-1.15-2.63-1.08-2.72-1.08l-4.73.27L9.73.4c-.3-.26-.69-.4-1.09-.4h-1.22c-.15,0-.29.09-.36.22-.07.14-.05.3.05.42l2.73,3.45-5.61.6c-.35-.38-1.33-1.35-2.16-1.35h-.27s0,0,0,0c-.2,0-.4.1-.51.27-.12.17-.14.39-.06.6l.41.91h-.47c-.19,0-.36.09-.48.23l-.58.71c-.11.14-.13.32-.06.48.08.16.23.26.41.26h1l-.35.88c-.04.1-.03.22.03.32.06.09.17.15.28.15h.96c.22,0,.43-.07.62-.19l1.32-.96c.74.08,4.23.47,5.79.63l-3.42,4.32c-.09.12-.11.28-.05.42.07.14.2.22.36.22h1.24c.39,0,.76-.14,1.05-.39l1.07-.91c.11.03.24.06.38.06.18,0,.38-.04.56-.15.46-.28.67-.71.62-1.23l.51-.43c.1.02.22.05.35.05.18,0,.37-.04.56-.15.45-.27.66-.69.62-1.19l.33-.28c6.53.4,7.43-.11,8.22-.56.05-.03.09-.05.14-.08.02-.01.04-.02.06-.04.62-.52.65-1,.57-1.31-.24-.92-1.73-1.35-2.23-1.48ZM8.01.68h.63c.24,0,.47.08.65.24l3.4,2.87-2.05.22-2.63-3.33Zm14.3,6.06s-.08.04-.12.07c-.65.37-1.45.82-7.13.51l.72-.61c.14-.12.16-.34.04-.48-.12-.14-.34-.16-.48-.04l-1.36,1.15s0,0-.01.01l-.56.48s0,0-.01.01c0,0-.02.02-.02.03,0,0-.01.02-.02.03,0,0-.01.02-.02.03,0,0-.01.02-.02.03,0,0,0,.02-.01.03,0,.01,0,.02,0,.03,0,.01,0,.02,0,.03,0,.01,0,.02,0,.03s0,.02,0,.03c0,.01,0,.02,0,.04,0,0,0,.01,0,.02.06.31-.02.52-.28.68-.19.11-.45.01-.5,0,0,0-.01,0-.02,0-.01,0-.02,0-.04-.01-.01,0-.02,0-.03,0-.01,0-.02,0-.03,0-.01,0-.02,0-.03,0-.01,0-.02,0-.03,0-.01,0-.02,0-.03,0-.01,0-.02,0-.03,0-.01,0-.02,0-.03.01,0,0-.02,0-.03.02-.01,0-.02.01-.03.02,0,0-.01,0-.02.01l-.8.67s0,0,0,0c-.01.01-.02.02-.03.04,0,0,0,.01-.01.02,0,.01-.02.02-.02.04,0,0,0,.01-.01.02,0,.01-.01.03-.02.04,0,0,0,.02,0,.02,0,.01,0,.03,0,.04,0,0,0,.02,0,.03,0,.01,0,.02,0,.04,0,.01,0,.02,0,.03,0,0,0,.01,0,.02.08.33-.01.54-.28.71-.2.12-.5-.01-.51-.02,0,0-.02,0-.03,0-.01,0-.02,0-.03-.01-.01,0-.02,0-.03,0-.01,0-.02,0-.03,0,0,0-.02,0-.03,0-.01,0-.03,0-.04,0,0,0-.01,0-.02,0-.02,0-.03,0-.05.01,0,0,0,0,0,0-.04.01-.07.03-.11.06l-1.22,1.03c-.17.15-.39.23-.62.23h-.65l3.44-4.34h0s.7-.89.7-.89c.12-.15.09-.36-.06-.48-.15-.12-.36-.09-.48.06l-.59.74c-1.29-.13-6.29-.68-6.35-.69-.08,0-.17.01-.24.06l-1.42,1.03c-.07.05-.14.07-.23.07h-.47l.35-.88c.04-.1.03-.22-.03-.32-.06-.09-.17-.15-.28-.15H.93l.27-.33h.97c.12,0,.22-.06.29-.16.06-.1.07-.22.02-.32l-.59-1.29h.19c.5,0,1.36.77,1.78,1.26.07.08.18.13.29.11l9.4-1.01s.02,0,.02,0h.11s4.71-.28,4.71-.28c.49-.02,1.83.09,2.14.83.04.1.14.18.25.2.82.16,1.76.61,1.87,1.02.04.17-.07.37-.33.6Z"/>
  </g>
</svg>