<?xml version="1.0" encoding="utf-8"?>
<!-- Generator: Adobe Illustrator 27.3.1, SVG Export Plug-In . SVG Version: 6.00 Build 0)  -->
<svg version="1.1" id="_レイヤー_2" xmlns="http://www.w3.org/2000/svg" xmlns:xlink="http://www.w3.org/1999/xlink" x="0px"
	 y="0px" viewBox="0 0 14.6 18.2" style="enable-background:new 0 0 14.6 18.2;" xml:space="preserve">
<style type="text/css">
	.st0{fill:#008A8E;}
</style>
<path class="st0" d="M1.8,3.1C1.6,3,1.4,3,1.3,3.2C0.4,4.4,0,5.8,0,7.3c0,2.1,1.9,4.9,3.5,6.9c0.9,1.2,1.8,2.1,2.4,2.7
	c1.2,1.2,1.3,1.2,1.4,1.2s0.3,0,1.4-1.2c0.5-0.5,1.4-1.5,2.4-2.7c1.6-2,3.5-4.8,3.5-6.9c0-4-3.3-7.3-7.3-7.3C6.2,0,5.2,0.2,4.2,0.7
	C4,0.8,3.9,1,4,1.2s0.3,0.3,0.5,0.2C5.4,1,6.3,0.8,7.3,0.8c3.6,0,6.6,2.9,6.6,6.6c0,3.2-5.4,9-6.6,10c-1.2-1.1-6.6-6.8-6.6-10
	c0-1.3,0.4-2.6,1.1-3.7C2,3.4,2,3.2,1.8,3.1L1.8,3.1z"/>
<path class="st0" d="M11.1,6.9c0-2.1-1.7-3.9-3.9-3.9S3.4,4.8,3.4,6.9s1.7,3.9,3.9,3.9S11.1,9.1,11.1,6.9z M4.1,6.9
	c0-1.7,1.4-3.1,3.1-3.1s3.1,1.4,3.1,3.1S9,10.1,7.2,10.1S4.1,8.7,4.1,6.9z"/>
</svg>
