<?xml version="1.0" encoding="utf-8"?>
<!-- Generator: Adobe Illustrator 27.3.1, SVG Export Plug-In . SVG Version: 6.00 Build 0)  -->
<svg version="1.1" id="_レイヤー_2" xmlns="http://www.w3.org/2000/svg" xmlns:xlink="http://www.w3.org/1999/xlink" x="0px"
	 y="0px" viewBox="0 0 18.2 22.5" style="enable-background:new 0 0 18.2 22.5;" xml:space="preserve">
<style type="text/css">
	.st0{fill:#FFFFFF;}
	.st1{fill:#008A8E;}
</style>
<rect x="1.5" y="1.8" class="st0" width="15.1" height="14.8"/>
<path class="st1" d="M0,0v22.5h7.1v-4.3h3.6v4.3h7.5V0H0z M5.3,15.8H2.5V13h2.8V15.8z M5.3,10.5H2.5V7.7h2.8V10.5z M5.3,5.2H2.5V2.4
	h2.8V5.2z M10.5,15.8H7.7V13h2.8V15.8z M10.5,10.5H7.7V7.7h2.8V10.5z M10.5,5.2H7.7V2.4h2.8V5.2z M15.8,15.8H13V13h2.8V15.8z
	 M15.8,10.5H13V7.7h2.8V10.5z M15.8,5.2H13V2.4h2.8V5.2z"/>
</svg>
