<?xml version="1.0" encoding="UTF-8"?>
<svg id="_レイヤー_2" data-name="レイヤー 2" xmlns="http://www.w3.org/2000/svg" viewBox="0 0 13.61 10.04">
  <defs>
    <style>
      .cls-1 {
        fill: #e67800;
      }
    </style>
  </defs>
  <g id="_レイヤー_4のコピー" data-name="レイヤー 4のコピー">
    <path class="cls-1" d="m13.33,0L.19,2.7c-.09.02-.16.09-.18.18s.01.18.09.24l2.6,2.02s-.06.08-.07.13l-.4,3.07c-.01.09.03.17.1.23.04.03.09.04.14.04.04,0,.08,0,.11-.03l2-1.05s.04.06.07.09c1.79,2.39,1.86,2.4,2,2.42,0,0,.02,0,.03,0,.06,0,.11-.02.16-.06.84-.71,6.51-9.25,6.75-9.61.05-.08.05-.18,0-.26-.05-.08-.15-.12-.24-.1ZM2.75,7.95l.32-2.45c.22.31.69.94,1.21,1.64l-1.53.81Zm3.91,1.52c-.5-.57-2.11-2.75-3.21-4.24l4.92-2.18c.12-.05.17-.19.12-.31-.05-.12-.19-.17-.31-.12l-5.07,2.24L.79,3.06,12.86.59c-1.71,2.57-5.26,7.83-6.19,8.88Z"/>
  </g>
</svg>