<?xml version="1.0" encoding="UTF-8"?>
<svg id="_レイヤー_2" data-name="レイヤー 2" xmlns="http://www.w3.org/2000/svg" viewBox="0 0 21.52 10.18">
  <defs>
    <style>
      .cls-1 {
        fill: #008a8e;
      }
    </style>
  </defs>
  <g id="_01" data-name="01">
    <g>
      <path class="cls-1" d="m14.6,2.35c-.19,0-.34.15-.34.34v.89c0,.19.15.34.34.34s.34-.15.34-.34v-.89c0-.19-.15-.34-.34-.34Z"/>
      <path class="cls-1" d="m14.6,4.31c-.19,0-.34.15-.34.34v.89c0,.19.15.34.34.34s.34-.15.34-.34v-.89c0-.19-.15-.34-.34-.34Z"/>
      <path class="cls-1" d="m14.6,6.27c-.19,0-.34.15-.34.34v.89c0,.19.15.34.34.34s.34-.15.34-.34v-.89c0-.19-.15-.34-.34-.34Z"/>
      <path class="cls-1" d="m15.01,0c-.1,0-.19.04-.26.12l-.17.2-.19-.2c-.06-.07-.15-.11-.25-.11H.67c-.37,0-.67.3-.67.67v8.84c0,.37.3.67.67.67h13.48c.1,0,.19-.04.25-.11l.19-.2.17.2c.06.08.16.12.26.12h5.84c.37,0,.67-.3.67-.67V.67c0-.37-.3-.67-.67-.67h-5.84Zm5.83,9.5h-5.67l-.23-.27v-.69c0-.19-.15-.34-.34-.34s-.34.15-.34.34v.68l-.26.28H.68s0-8.82,0-8.82h13.33l.26.28v.75c0,.19.15.34.34.34s.34-.15.34-.34v-.76l.23-.27h5.67s0,8.82,0,8.82Z"/>
      <path class="cls-1" d="m16.24,2.77h3.36c.19,0,.34-.15.34-.34s-.15-.34-.34-.34h-3.36c-.19,0-.34.15-.34.34s.15.34.34.34Z"/>
      <path class="cls-1" d="m16.24,4.1h3.36c.19,0,.34-.15.34-.34s-.15-.34-.34-.34h-3.36c-.19,0-.34.15-.34.34s.15.34.34.34Z"/>
      <path class="cls-1" d="m16.24,5.43h3.36c.19,0,.34-.15.34-.34s-.15-.34-.34-.34h-3.36c-.19,0-.34.15-.34.34s.15.34.34.34Z"/>
      <path class="cls-1" d="m16.24,6.76h3.36c.19,0,.34-.15.34-.34s-.15-.34-.34-.34h-3.36c-.19,0-.34.15-.34.34s.15.34.34.34Z"/>
      <path class="cls-1" d="m16.24,8.09h3.36c.19,0,.34-.15.34-.34s-.15-.34-.34-.34h-3.36c-.19,0-.34.15-.34.34s.15.34.34.34Z"/>
      <path class="cls-1" d="m12.3,4.99s-.07-.14-.11-.23c-.11-.31-.3-.84-1.12-.84-.36,0-1.47.05-2.41.1l-1.05-1.48c-.19-.27-.49-.42-.82-.42h-.66c-.11,0-.21.05-.27.14-.06.09-.08.2-.05.3l.51,1.58c-.59.03-1.08.06-1.32.07l-.72-.95s-.05-.06-.08-.08c-.05-.03-.47-.3-1.1-.3-.14,0-.29.01-.43.04-.1.02-.18.08-.23.16-.05.09-.06.19-.03.28.27.78.99,2.43,1.02,2.5.05.11.16.19.28.2l2.53.21-.51,1.61c-.03.1-.01.22.05.3.06.09.17.14.27.14h.66c.33,0,.63-.16.82-.43l1.02-1.45h2.3c.56.08.99-.04,1.26-.35.33-.37.28-.86.28-.92,0-.07-.04-.14-.09-.19Zm-.7.66c-.12.13-.35.17-.68.13-.01,0-.03,0-.04,0h-2.5s0-.01,0-.01c-.11,0-.21.05-.28.14l-1.12,1.6c-.06.08-.16.14-.26.14h-.19l.5-1.57c.03-.1.02-.21-.04-.29-.06-.09-.15-.14-.25-.15l-2.75-.22c-.16-.37-.52-1.22-.76-1.85.28.02.49.12.57.16l.79,1.04c.07.09.17.14.29.13,0,0,.86-.05,1.94-.11.11,0,.2-.06.26-.15.06-.09.08-.2.04-.3l-.5-1.55h.2c.1,0,.2.05.26.14l1.16,1.63c.07.09.18.15.29.14,1.36-.07,2.27-.1,2.56-.1.34,0,.38.11.48.39.04.11.08.23.16.34,0,.08-.03.22-.11.31Z"/>
    </g>
  </g>
</svg>