<?xml version="1.0" encoding="UTF-8"?>
<svg id="_レイヤー_2" data-name="レイヤー 2" xmlns="http://www.w3.org/2000/svg" viewBox="0 0 20.73 9.18">
  <defs>
    <style>
      .cls-1 {
        fill: #008a8e;
      }
    </style>
  </defs>
  <g id="_01" data-name="01">
    <g>
      <path class="cls-1" d="m.8,8.78v-1.83h19.13v1.83c0,.22.18.4.4.4s.4-.18.4-.4V2.31c0-.22-.18-.4-.4-.4s-.4.18-.4.4v1.78H.8V.4c0-.22-.18-.4-.4-.4s-.4.18-.4.4v8.38c0,.22.18.4.4.4s.4-.18.4-.4Zm0-3.9h19.13v1.27H.8v-1.27Z"/>
      <path class="cls-1" d="m2.76,1.31c-1.31-.16-1.81,1.4-1.91,2.3-.01.11.02.22.1.31.07.08.18.13.29.13.02,0,2.23.03,3.84.03,1.3,0,1.61-.02,1.72-.04.18-.02.32-.17.34-.35.04-.36-.07-.7-.32-1-.88-1.03-3.41-1.36-4.08-1.39Zm2.33,1.98c-1.16,0-2.62-.02-3.36-.03.12-.5.39-1.22.94-1.16.01,0,.02,0,.03,0,.69.03,2.89.37,3.52,1.11.02.02.03.04.04.06-.24,0-.61,0-1.18,0Z"/>
      <path class="cls-1" d="m7.58,2.89c-.22,0-.4.18-.4.4s.18.4.4.4h11.55c.22,0,.4-.18.4-.4s-.18-.4-.4-.4H7.58Z"/>
    </g>
  </g>
</svg>