<?xml version="1.0" encoding="utf-8"?>
<!-- Generator: Adobe Illustrator 27.3.1, SVG Export Plug-In . SVG Version: 6.00 Build 0)  -->
<svg version="1.1" id="_レイヤー_2" xmlns="http://www.w3.org/2000/svg" xmlns:xlink="http://www.w3.org/1999/xlink" x="0px"
	 y="0px" viewBox="0 0 46.9 56.6" style="enable-background:new 0 0 46.9 56.6;" xml:space="preserve">
<style type="text/css">
	.st0{fill:#008A8E;}
</style>
<g>
	<path class="st0" d="M1.2,46.1l10,5.1c-0.5,1.9,0.4,3.9,2.2,4.8c0.6,0.3,1.3,0.5,2,0.5c1.3,0,2.5-0.6,3.3-1.6
		c0.2,0,0.4,0.1,0.6,0.1c0.9,0,1.6-0.5,2-1.2L38,21.3c0,0,0,0,0,0l7.9-15.4l0,0l0.7-1.4c0.3-0.5,0.3-1.2,0.1-1.8
		c-0.2-0.6-0.6-1.1-1.2-1.4l-2.1-1.1C43.2,0.1,42.8,0,42.5,0c-0.9,0-1.7,0.5-2.1,1.3l-2.5,5c-0.6,1.1-0.2,2.4,0.9,3l-4.6,9l-1-0.5
		c-0.2-0.1-0.5-0.1-0.7-0.1l-1.4,0.4l-0.4-1.3c-0.1-0.3-0.3-0.5-0.5-0.6l-1.8-0.9c-0.2-0.1-0.5-0.1-0.7-0.1L26,15.6l-0.4-1.3
		c-0.1-0.3-0.3-0.5-0.5-0.6l-2-1c-0.7-0.3-1.4-0.5-2-0.5c-1.8,0-3.4,1.1-4.3,2.9l-6.3,12.4c-0.2-0.1-0.5-0.1-0.8-0.1
		c-0.8,0-1.6,0.5-2,1.2L0.2,43.1c-0.3,0.5-0.3,1.2-0.1,1.7C0.3,45.4,0.7,45.8,1.2,46.1z M17.4,53.3c-0.4,0.8-1.2,1.3-2.1,1.3
		c-0.4,0-0.7-0.1-1.1-0.3c-1.1-0.6-1.6-2-1-3.1l0,0c0.4-0.8,1.2-1.3,2.1-1.3c0.4,0,0.7,0.1,1,0.3c0.2,0.1,0.4,0.2,0.5,0.4
		c0.1,0.1,0.1,0.1,0.2,0.2c0,0,0,0,0,0.1C17.7,51.5,17.9,52.5,17.4,53.3L17.4,53.3z M39.6,7.1l2.5-5C42.2,2,42.4,2,42.5,2
		c0,0,0.1,0,0.2,0l2.1,1.1c0.1,0.1,0.2,0.2,0.2,0.2c0,0,0,0.2,0,0.3l-2.7,5.3L40.5,8l0,0l0,0l-0.7-0.4C39.6,7.5,39.5,7.3,39.6,7.1
		L39.6,7.1z M40.5,10.2l0.8,0.4l-4.6,9l-0.8-0.4L40.5,10.2L40.5,10.2z M2,44l7.5-14.6c0.1-0.1,0.2-0.1,0.3-0.1l0.7,0.3
		c0.5,0.2,1.1,0,1.3-0.4l6.8-13.2c0.8-1.6,2.3-2.3,3.7-1.6l1.6,0.8l0.5,1.8c0.2,0.5,0.7,0.8,1.2,0.7l2-0.6l1.1,0.6l0.5,1.9
		c0.1,0.5,0.7,0.8,1.2,0.7l2-0.6l3.2,1.6L19.7,52.7c0-0.6,0-1.2-0.2-1.7c-0.2-0.7-0.6-1.2-1-1.7c0,0,0,0,0,0
		c-0.1-0.1-0.1-0.1-0.2-0.2c0,0-0.1-0.1-0.1-0.1c0,0,0,0-0.1,0c-0.2-0.2-0.4-0.3-0.6-0.4c-0.6-0.3-1.3-0.5-1.9-0.5c0,0-0.1,0-0.1,0
		c-0.2,0-0.3,0-0.5,0c-0.1,0-0.1,0-0.2,0c-0.1,0-0.2,0-0.4,0.1c-0.1,0-0.1,0-0.2,0c-0.1,0-0.2,0.1-0.4,0.1c-0.1,0-0.1,0-0.1,0.1
		c-0.2,0.1-0.3,0.2-0.5,0.2c0,0,0,0-0.1,0c-0.1,0.1-0.3,0.2-0.4,0.3c-0.1,0-0.1,0.1-0.1,0.1c-0.1,0.1-0.2,0.2-0.3,0.2
		c-0.1,0-0.1,0.1-0.1,0.2c0,0-0.1,0-0.1,0.1l-10-5.1C2,44.3,2,44.3,2,44.2C2,44.2,2,44.1,2,44L2,44z"/>
	<path class="st0" d="M10.9,45c0.1,0.1,0.3,0.1,0.4,0.1c0.4,0,0.7-0.2,0.9-0.5l12.2-23.8c0.2-0.5,0.1-1.1-0.4-1.3s-1.1-0.1-1.3,0.4
		L10.5,43.7C10.2,44.2,10.4,44.8,10.9,45z"/>
	<path class="st0" d="M17.8,43.8c0.1,0.1,0.3,0.1,0.5,0.1c0.4,0,0.7-0.2,0.9-0.5l10.3-20c0.2-0.5,0.1-1.1-0.4-1.3s-1.1-0.1-1.3,0.4
		l-10.3,20C17.1,43,17.3,43.6,17.8,43.8z"/>
</g>
</svg>
