<?xml version="1.0" encoding="utf-8"?>
<!-- Generator: Adobe Illustrator 27.3.1, SVG Export Plug-In . SVG Version: 6.00 Build 0)  -->
<svg version="1.1" id="_レイヤー_2" xmlns="http://www.w3.org/2000/svg" xmlns:xlink="http://www.w3.org/1999/xlink" x="0px"
	 y="0px" viewBox="0 0 70 70" style="enable-background:new 0 0 70 70;" xml:space="preserve">
<style type="text/css">
	.st0{fill:#FFFFFF;}
	.st1{fill:#A0D2F0;}
	.st2{fill:#1E3246;}
</style>
<g id="_01">
	<circle class="st0" cx="35" cy="35" r="25"/>
	<path class="st1" d="M49.7,26.7c-0.5-0.5-1.3-0.5-1.8,0L30.7,42.4l-8-7.3c-0.5-0.5-1.3-0.5-1.8,0s-0.5,1.3,0,1.8l8.8,9.6
		c0.2,0.3,0.6,0.4,1,0.4h3.1c0.4,0,0.8-0.2,1-0.5l15.1-18C50.3,28,50.2,27.2,49.7,26.7L49.7,26.7z"/>
	<path class="st2" d="M47.9,24.8c-0.5-0.5-1.3-0.5-1.8,0L28.8,40.6l-8-7.3c-0.5-0.5-1.3-0.5-1.8,0s-0.5,1.3,0,1.8l8.8,9.6
		c0.2,0.3,0.6,0.4,1,0.4h3.1c0.4,0,0.8-0.2,1-0.5l15.1-18C48.4,26.1,48.4,25.3,47.9,24.8L47.9,24.8z"/>
</g>
</svg>
