<?xml version="1.0" encoding="UTF-8"?>
<svg id="_レイヤー_2" data-name="レイヤー 2" xmlns="http://www.w3.org/2000/svg" viewBox="0 0 30 145">
  <defs>
    <style>
      .cls-1 {
        fill: none;
        stroke: #fff;
        stroke-miterlimit: 10;
        stroke-width: .43px;
      }

      .cls-2, .cls-3 {
        fill: #fff;
      }

      .cls-4 {
        fill: #29abe2;
      }

      .cls-3 {
        font-family: AvenirNext-DemiBold, 'Avenir Next';
        font-size: 8.5px;
        font-weight: 300;
        letter-spacing: .08em;
      }
    </style>
  </defs>
  <g id="_モバイル" data-name="モバイル">
    <g>
      <rect class="cls-4" width="30" height="145"/>
      <text class="cls-3" transform="translate(13.32 80.76) rotate(90)"><tspan x="0" y="0">MENU TOP</tspan></text>
      <path class="cls-2" d="m16.13,51.18c0,.16.12.32.28.32l4.94-.92c.2,0,.32-.16.32-.32v-31.18c0-.2-1.67-.68-2.59-1.39-.92-.72-2.59-3.07-2.59-3.07-.2,0-.32.16-.32.32v10.63h-3.11c-.56,0-1.04.48-1.04,1.04v2.07h-2.59c-.32,0-.6.28-.6.6v14.14c0,.32.28.6.6.6l.44.08,2.15.32v2.83c0,.56.48,1.04,1.04,1.04h-.04l3.11.44v2.47h0Zm-5.5-16.85c.28,0,.48.04.48.08v1.51s-.24.08-.48.08h-.56c-.28,0-.48-.04-.48-.08v-1.51s.24-.08.48-.08h.56Zm3.23-4.74c-.48,0-.84-.04-.84-.12v-2.71c0-.08.36-.12.84-.12h1c.48,0,.84.04.84.12v2.71c0,.08-.36.12-.84.12h-1Zm-2.75.28v1.51s-.24.08-.48.08h-.56c-.28,0-.48-.04-.48-.08v-1.51s.24-.08.48-.08h.56c.24,0,.48.04.48.08Zm2.75,3.42c-.48,0-.84-.04-.84-.12v-2.71c0-.08.36-.12.84-.12h1c.48,0,.84.04.84.12v2.71c0,.08-.36.12-.84.12h-1Zm-3.78.48c-.28,0-.48-.04-.48-.08v-1.51s.24-.08.48-.08h.56c.28,0,.48.04.48.08v1.51s-.24.08-.48.08h-.56Zm3.78,3.23c-.48,0-.84-.04-.84-.12v-2.71c0-.08.36-.12.84-.12h1c.48,0,.84.04.84.12v2.71c0,.08-.36.12-.84.12h-1Zm0,3.74c-.48,0-.84-.04-.84-.12v-2.71c0-.08.36-.12.84-.12h1c.48,0,.84.04.84.12v2.71c0,.08-.36.12-.84.12h-1Zm0,3.78c-.48,0-.84-.04-.84-.12v-2.71c0-.08.36-.12.84-.12h1c.48,0,.84.04.84.12v2.71c0,.08-.36.12-.84.12h-1Z"/>
      <line class="cls-1" x1="21.83" y1="63.75" x2="21.67" y2="25.35"/>
    </g>
  </g>
</svg>