<?xml version="1.0" encoding="utf-8"?>
<!-- Generator: Adobe Illustrator 27.3.1, SVG Export Plug-In . SVG Version: 6.00 Build 0)  -->
<svg version="1.1" id="レイヤー_1" xmlns="http://www.w3.org/2000/svg" xmlns:xlink="http://www.w3.org/1999/xlink" x="0px"
	 y="0px" viewBox="0 0 24.1 20" style="enable-background:new 0 0 24.1 20;" xml:space="preserve">
<style type="text/css">
	.st0{fill:rgba(110,110,110,0.75);}
</style>
<path class="st0" d="M8.5,0L7.1,2.9h-5C0.9,2.9,0,3.9,0,5v12.9C0,19.1,0.9,20,2.1,20h20c1.1,0,2.1-0.9,2.1-2.1V5
	c0-1.1-0.9-2.1-2.1-2.1h-5L15.6,0L8.5,0L8.5,0z M12,5c3.6,0,6.5,2.9,6.5,6.5s-2.9,6.5-6.5,6.5S5.6,15,5.6,11.4S8.5,5,12,5
	C12,5,12,5,12,5z M12,7.3c-2.3,0-4.1,1.8-4.1,4.1s1.8,4.1,4.1,4.1s4.1-1.8,4.1-4.1S14.3,7.3,12,7.3z"/>
</svg>
