<?xml version="1.0" encoding="utf-8"?>
<!-- Generator: Adobe Illustrator 27.3.1, SVG Export Plug-In . SVG Version: 6.00 Build 0)  -->
<svg version="1.1" id="_レイヤー_2" xmlns="http://www.w3.org/2000/svg" xmlns:xlink="http://www.w3.org/1999/xlink" x="0px"
	 y="0px" viewBox="0 0 19.4 19.1" style="enable-background:new 0 0 19.4 19.1;" xml:space="preserve">
<style type="text/css">
	.st0{fill:#FFFFFF;}
</style>
<path class="st0" d="M4.9,2.8C4.8,2.7,4.5,2.7,4.4,2.8C3.7,3.9,3.3,5.2,3.3,6.6c0,1.9,1.7,4.4,3.1,6.2c0.8,1.1,1.6,1.9,2.2,2.5
	c1.1,1.1,1.1,1.1,1.3,1.1s0.2,0,1.3-1.1c0.4-0.4,1.3-1.3,2.2-2.5c1.4-1.8,3.1-4.3,3.1-6.2c0-3.6-2.9-6.6-6.6-6.6
	C8.9,0,7.9,0.2,7,0.6C6.9,0.7,6.8,0.9,6.9,1.1s0.3,0.2,0.4,0.2C8.1,0.9,9,0.7,9.8,0.7c3.2,0,5.9,2.6,5.9,5.9c0,2.9-4.8,8-5.9,9
	c-1.1-1-5.9-6.1-5.9-9c0-1.2,0.4-2.3,1-3.3C5.1,3.1,5.1,2.9,4.9,2.8z"/>
<path class="st0" d="M0.1,18.6C0,18.7,0,18.9,0.1,19c0.1,0.1,0.1,0.1,0.2,0.1c0,0,0,0,0.1,0c0.6,0,12.5,0,18.7,0l0,0
	c0.1,0,0.2-0.1,0.3-0.2c0.1-0.1,0-0.2,0-0.4l-3.1-4c-0.1-0.1-0.2-0.1-0.3-0.1h-1.6c-0.2,0-0.3,0.1-0.3,0.3s0.1,0.3,0.3,0.3h1.4
	l2.6,3.3c-1.5,0-5.1,0-8.7,0c-2.3,0-4.7,0-6.4,0c-0.9,0-1.6,0-2.1,0c0,0-0.1,0-0.1,0L3.7,15H5c0.2,0,0.3-0.1,0.3-0.3
	S5.2,14.3,5,14.3H3.5c-0.1,0-0.2,0.1-0.3,0.1L0.1,18.6z"/>
<path class="st0" d="M13.2,6.2c0-1.9-1.6-3.5-3.5-3.5S6.3,4.3,6.3,6.2s1.6,3.5,3.5,3.5S13.2,8.1,13.2,6.2z M7,6.2
	c0-1.5,1.2-2.8,2.8-2.8s2.8,1.2,2.8,2.8S11.3,9,9.8,9S7,7.8,7,6.2z"/>
</svg>
