<?xml version="1.0" encoding="UTF-8"?>
<svg id="_レイヤー_2" data-name="レイヤー 2" xmlns="http://www.w3.org/2000/svg" viewBox="0 0 54.6 33.85">
  <defs>
    <style>
      .cls-1 {
        fill: #fff;
      }
    </style>
  </defs>
  <g id="_01" data-name="01">
    <g>
      <path class="cls-1" d="m18.13,28.73c1.63,0,2.49-.43,3.24-.81.69-.34,1.28-.64,2.54-.64s1.85.3,2.54.64c.76.38,1.61.81,3.24.81s2.49-.43,3.24-.81c.69-.34,1.28-.64,2.54-.64s1.85.3,2.54.64c.76.38,1.61.81,3.24.81.43,0,.78-.35.78-.78s-.35-.78-.78-.78c-1.26,0-1.85-.3-2.54-.64-.76-.38-1.61-.81-3.24-.81s-2.49.43-3.24.81c-.69.34-1.28.64-2.54.64s-1.85-.3-2.54-.64c-.76-.38-1.61-.81-3.24-.81s-2.49.43-3.24.81c-.69.34-1.28.64-2.54.64s-1.85-.3-2.54-.64c-.76-.38-1.61-.81-3.24-.81-.97,0-1.67.15-2.23.36L3.53,14.97h44.14l-3.25,11.31c-.12.42.12.85.54.97.07.02.15.03.22.03.34,0,.65-.22.75-.57l3.53-12.31c.07-.24.02-.49-.13-.69-.15-.2-.38-.31-.63-.31h-3.85V5.05c0-.43-.35-.78-.78-.78h-1.29V.78c0-.43-.35-.78-.78-.78h-6.95c-.43,0-.78.35-.78.78v3.48h-12.21c-.22,0-.43.09-.58.25l-8.16,8.89H2.15c-.28,0-.54.15-.68.4-.14.24-.14.55,0,.79l7.21,12.14c-.54.25-1.12.44-2.12.44-1.26,0-1.85-.3-2.54-.64-.76-.38-1.61-.81-3.24-.81-.43,0-.78.35-.78.78s.35.78.78.78c1.26,0,1.85.3,2.54.64.76.38,1.61.81,3.24.81s2.49-.43,3.24-.81c.69-.34,1.28-.64,2.54-.64s1.85.3,2.54.64c.76.38,1.61.81,3.24.81ZM35.84,1.57h5.38v2.7h-5.38V1.57Zm-13.44,4.27h20.89v7.57H15.45l6.95-7.57Z"/>
      <path class="cls-1" d="m53.82,32.29c-1.26,0-1.85-.3-2.54-.64-.76-.38-1.61-.81-3.24-.81s-2.49.43-3.24.81c-.69.34-1.28.64-2.54.64s-1.85-.3-2.54-.64c-.76-.38-1.61-.81-3.24-.81s-2.49.43-3.24.81c-.69.34-1.28.64-2.54.64s-1.85-.3-2.54-.64c-.76-.38-1.61-.81-3.24-.81s-2.49.43-3.24.81c-.69.34-1.28.64-2.54.64s-1.85-.3-2.54-.64c-.76-.38-1.61-.81-3.24-.81-.43,0-.78.35-.78.78s.35.78.78.78c1.26,0,1.85.3,2.54.64.76.38,1.61.81,3.24.81s2.49-.43,3.24-.81c.69-.34,1.28-.64,2.54-.64s1.85.3,2.54.64c.76.38,1.61.81,3.24.81s2.49-.43,3.24-.81c.69-.34,1.28-.64,2.54-.64s1.85.3,2.54.64c.76.38,1.61.81,3.24.81s2.49-.43,3.24-.81c.69-.34,1.28-.64,2.54-.64s1.85.3,2.54.64c.76.38,1.61.81,3.24.81.43,0,.78-.35.78-.78s-.35-.78-.78-.78Z"/>
      <path class="cls-1" d="m39.75,7.77h-8.8c-.43,0-.78.35-.78.78v2.53c0,.43.35.78.78.78h8.8c.43,0,.78-.35.78-.78v-2.53c0-.43-.35-.78-.78-.78Zm-.78,2.53h-7.23v-.97h7.23v.97Z"/>
    </g>
  </g>
</svg>