<?xml version="1.0" encoding="utf-8"?>
<!-- Generator: Adobe Illustrator 27.4.0, SVG Export Plug-In . SVG Version: 6.00 Build 0)  -->
<svg version="1.1" id="_レイヤー_2" xmlns="http://www.w3.org/2000/svg" xmlns:xlink="http://www.w3.org/1999/xlink" x="0px"
	 y="0px" viewBox="0 0 80 20" style="enable-background:new 0 0 80 20;" xml:space="preserve">
<style type="text/css">
	.st0{fill:url(#SVGID_1_);}
	.st1{fill:#C30000;}
	.st2{fill:#FFFFFF;}
	.st3{font-family:'KozGoPr6N-Regular-83pv-RKSJ-H',sans-serif;font-weight:bold;}
	.st4{font-size:10.0956px;}
</style>
<linearGradient id="SVGID_1_" gradientUnits="userSpaceOnUse" x1="0" y1="-32" x2="80" y2="-32" gradientTransform="matrix(1 0 0 -1 0 -22)">
	<stop  offset="0" style="stop-color:#CAA86E"/>
	<stop  offset="1" style="stop-color:#B38753"/>
</linearGradient>
<rect class="st0" width="80" height="20"/>
<polygon class="st1" points="21.7,20 0,20 0,0 30,0 "/>
<text transform="matrix(0.9977 0 0 1 30.9998 13.8838)" class="st2 st3 st4">限定公開</text>
<g>
	<path class="st2" d="M6,8.6v8.1C6,16.9,6.1,17,6.3,17h10.4c0.2,0,0.3-0.1,0.3-0.3V8.6c0-0.2-0.1-0.3-0.3-0.3h-2.1V6.2
		c0-0.1,0-1.4-0.8-2.3C13.2,3.3,12.5,3,11.6,3C8.4,3,8.3,6.2,8.3,6.2v2.1H6.3C6.1,8.3,6,8.4,6,8.6z M8.9,6.2c0-0.1,0.1-2.6,2.6-2.6
		c0.8,0,1.4,0.2,1.8,0.7C14.1,5,14,6.2,14,6.2c0,0,0,0,0,0v2.1h-0.8V6.2c0,0,0-0.4-0.2-0.9c-0.2-0.4-0.6-0.9-1.5-0.9
		c-1.3,0-1.7,1.2-1.8,1.8c0,0,0,0,0,0v2H8.9C8.9,8.3,8.9,6.2,8.9,6.2z M12.7,6.2v2.1h-2.3v-2c0,0,0-0.4,0.2-0.6
		c0.2-0.4,0.5-0.6,1-0.6C12.6,5,12.7,6.1,12.7,6.2z M6.6,8.9h9.9v7.5H6.6C6.6,16.4,6.6,8.9,6.6,8.9z"/>
	<path class="st2" d="M11.5,10.1c-0.8,0-1.4,0.6-1.4,1.4c0,0.7,0.5,1.3,1.1,1.4v1.4c0,0.2,0.1,0.3,0.3,0.3c0.2,0,0.3-0.1,0.3-0.3
		v-1.4c0.6-0.1,1.1-0.7,1.1-1.4C12.9,10.7,12.3,10.1,11.5,10.1z M11.5,12.3c-0.5,0-0.8-0.4-0.8-0.8s0.4-0.8,0.8-0.8
		c0.5,0,0.8,0.4,0.8,0.8S12,12.3,11.5,12.3z"/>
</g>
</svg>
