<?xml version="1.0" encoding="UTF-8"?>
<svg id="_レイヤー_2" data-name="レイヤー 2" xmlns="http://www.w3.org/2000/svg" viewBox="0 0 26.56 25.75">
  <defs>
    <style>
      .cls-1 {
        fill: #80c4c6;
      }

      .cls-2 {
        fill: #1a1a1a;
      }
    </style>
  </defs>
  <g id="_モバイル" data-name="モバイル">
    <g>
      <rect class="cls-1" x="1.74" y="9.33" width="22.55" height="6.33" transform="translate(-5.03 12.86) rotate(-45)"/>
      <path class="cls-2" d="m2.69,17.72c-.09.06-.16.15-.2.27L.25,24.77s0,0,0,0c-.15.09-.25.26-.25.45,0,.29.24.53.53.53h17.3c.29,0,.53-.24.53-.53s-.24-.53-.53-.53H3.22l4.76-1.53s.01,0,.02,0c.02,0,.03-.01.05-.02.02,0,.03-.01.05-.02.01,0,.03-.02.04-.03.02-.01.03-.02.05-.04,0,0,0,0,.01-.01l15.95-15.95c.21-.21.21-.54,0-.74l-.7-.7,2.1-2.1c.21-.21.21-.54,0-.74L22.88.15c-.21-.21-.54-.21-.74,0l-2.1,2.1-1.96-1.96c-.2-.2-.55-.2-.74,0l-6.24,6.24c-.21.21-.21.54,0,.74s.54.21.74,0l4.18-4.18.63.63L2.76,17.63s-.05.06-.07.09Zm-1.11,6.4l.46-1.38.94.94-1.39.45ZM22.51,1.27l1.91,1.91-1.73,1.73-1.91-1.91,1.73-1.73Zm-4.8.14l.63.63-.95.95-.63-.63.95-.95Zm1.38,1.38l3.93,3.93-2.52,2.52-2.67-2.67c-.21-.21-.54-.21-.74,0-.21.21-.21.54,0,.74l2.67,2.67-4.03,4.03-3.93-3.93,7.29-7.29Zm-8.03,8.03l3.93,3.93-7.18,7.18-3.93-3.93,7.18-7.18Zm-4.23,11.61l-2.74.88s-.04-.05-.06-.08l-1.49-1.49s-.09-.07-.14-.1l.9-2.75,3.53,3.53Z"/>
      <path class="cls-2" d="m26.56,25.23c0-.29-.24-.53-.53-.53h-4.1c-.29,0-.53.24-.53.53s.24.53.53.53h4.1c.29,0,.53-.24.53-.53Z"/>
    </g>
  </g>
</svg>