<?xml version="1.0" encoding="UTF-8"?>
<svg id="_レイヤー_2" data-name="レイヤー 2" xmlns="http://www.w3.org/2000/svg" viewBox="0 0 27 19.54">
  <defs>
    <style>
      .cls-1 {
        fill: none;
        stroke: #fff;
        stroke-miterlimit: 10;
        stroke-width: 1.7px;
      }
    </style>
  </defs>
  <g id="_モバイル" data-name="モバイル">
    <g>
      <path class="cls-1" d="m27,18.69c-2.25,0-2.25-2-4.5-2s-2.25,2-4.5,2-2.25-2-4.5-2-2.25,2-4.5,2-2.25-2-4.5-2S2.25,18.69,0,18.69"/>
      <path class="cls-1" d="m27,10.77c-2.25,0-2.25-2-4.5-2s-2.25,2-4.5,2-2.25-2-4.5-2-2.25,2-4.5,2-2.25-2-4.5-2S2.25,10.77,0,10.77"/>
      <path class="cls-1" d="m27,2.85c-2.25,0-2.25-2-4.5-2s-2.25,2-4.5,2S15.76.85,13.51.85s-2.25,2-4.5,2S6.76.85,4.5.85,2.25,2.85,0,2.85"/>
    </g>
  </g>
</svg>