<?xml version="1.0" encoding="utf-8"?>
<!-- Generator: Adobe Illustrator 27.4.0, SVG Export Plug-In . SVG Version: 6.00 Build 0)  -->
<svg version="1.1" id="_レイヤー_2" xmlns="http://www.w3.org/2000/svg" xmlns:xlink="http://www.w3.org/1999/xlink" x="0px"
	 y="0px" viewBox="0 0 32.1 29.9" style="enable-background:new 0 0 32.1 29.9;" xml:space="preserve">
<style type="text/css">
	.st0{fill:#008A8E;}
</style>
<g>
	<path class="st0" d="M16.4,29.9c-0.1,0-0.3-0.1-0.4-0.2c-0.2-0.2-0.2-0.6,0-0.8l4.6-4.6c0.2-0.2,0.6-0.2,0.8,0s0.2,0.6,0,0.8
		l-4.6,4.6C16.7,29.9,16.5,29.9,16.4,29.9z"/>
	<path class="st0" d="M28.7,19c-0.1,0-0.3-0.1-0.4-0.2c-0.2-0.2-0.2-0.6,0-0.8l2.2-2.2c0.2-0.2,0.6-0.2,0.8,0c0.2,0.2,0.2,0.6,0,0.8
		l-2.2,2.2C29,19,28.8,19,28.7,19z"/>
	<path class="st0" d="M7.8,15.4c-0.1,0-0.3-0.1-0.4-0.2c-0.2-0.2-0.2-0.6,0-0.8l2.7-2.7c0.2-0.2,0.6-0.2,0.8,0s0.2,0.6,0,0.8
		l-2.7,2.7C8.1,15.3,7.9,15.4,7.8,15.4z"/>
	<path class="st0" d="M0.6,16.2c-0.1,0-0.3-0.1-0.4-0.2c-0.2-0.2-0.2-0.6,0-0.8L4.4,11c0.2-0.2,0.6-0.2,0.8,0c0.2,0.2,0.2,0.6,0,0.8
		L1,16C0.9,16.2,0.7,16.2,0.6,16.2z"/>
	<path class="st0" d="M28.3,8c1.8-1.8,3.8-4.5,3.8-6.5c0-0.2,0-0.4,0-0.5c0-0.2-0.1-0.4-0.3-0.6c-0.2-0.2-0.4-0.3-0.6-0.3
		C31,0,30.8,0,30.6,0c-2,0-4.8,2-6.5,3.8c0,0-1.3,1.4-3,3.2c0,0-0.1,0.1-0.1,0.1L7.8,4.4C7.4,4.3,6.9,4.4,6.6,4.8l-1,1
		C5.4,6,5.3,6.2,5.4,6.5c0,0.3,0.2,0.5,0.5,0.6l7.7,3.9c0.1,0,0.2,0.1,0.3,0.2l2,1.6l-4.4,5l-5.2,0.4c-0.3-0.1-0.7,0-0.9,0.3
		l-0.3,0.3c-0.2,0.2-0.2,0.4-0.2,0.6s0.2,0.5,0.4,0.6c0,0,0,0,0.1,0l3.3,1.5c-0.3,0.6-0.8,1.7-0.7,2.5c0,0.3,0.2,0.5,0.5,0.5
		c0.1,0,0.1,0,0.2,0c0.8,0,1.7-0.4,2.3-0.7l1.5,3.3c0,0,0,0,0,0c0.1,0.2,0.3,0.4,0.6,0.4c0.2,0,0.5,0,0.6-0.2l0.3-0.3
		c0.2-0.2,0.4-0.6,0.3-1l0.4-5.2l5-4.4l1.6,2c0.1,0.1,0.1,0.2,0.2,0.3l3.9,7.7c0.1,0.2,0.4,0.4,0.6,0.5c0.3,0,0.5,0,0.8-0.2l1-1
		c0.3-0.3,0.5-0.8,0.4-1.2L25,11.2c0,0,0.1-0.1,0.1-0.1C27,9.3,28.3,8,28.3,8L28.3,8z M14.4,10.2C14.3,10.1,14.1,10,14,10L6.6,6.3
		l0.7-0.7c0.1-0.1,0.1-0.1,0.2-0.1L20,8.1l-3.5,3.8L14.4,10.2L14.4,10.2z M10.3,19L9,20.5l-2.8-1.2L10.3,19L10.3,19z M12.9,25.8
		l-1.2-2.8l1.5-1.3C13.1,21.8,12.9,25.8,12.9,25.8z M26.6,24.5c0,0.1,0,0.1-0.1,0.2l-0.7,0.7l-3.7-7.3c-0.1-0.1-0.2-0.3-0.3-0.5
		l-1.6-2.1L24,12L26.6,24.5L26.6,24.5z M24,10.5c0,0-0.1,0.1-0.1,0.1L19,15c0,0,0,0.1-0.1,0.1l-5.6,4.9c0,0,0,0,0,0
		c0,0-0.1,0-0.1,0.1l-2.6,2.3c-0.4,0.3-1.2,0.6-1.8,0.8c0.1-0.6,0.5-1.3,0.8-1.8l2.3-2.6c0,0,0.1-0.1,0.1-0.1c0,0,0,0,0,0l4.9-5.6
		c0,0,0.1-0.1,0.1-0.1l4.5-4.8c0,0,0.1-0.1,0.1-0.1c1.9-2.1,3.3-3.6,3.3-3.6c1.6-1.7,4.1-3.4,5.7-3.4c0.1,0,0.2,0,0.3,0l0,0l0,0
		c0,0.1,0,0.2,0,0.3c0,1.6-1.8,4.1-3.4,5.7C27.5,7.2,26,8.6,24,10.5L24,10.5z"/>
</g>
</svg>
