<?xml version="1.0" encoding="UTF-8"?>
<svg id="_レイヤー_2" data-name="レイヤー 2" xmlns="http://www.w3.org/2000/svg" viewBox="0 0 31.75 30.79">
  <defs>
    <style>
      .cls-1 {
        fill: #008a8e;
      }
    </style>
  </defs>
  <g id="_01" data-name="01">
    <g>
      <path class="cls-1" d="m3.22,21.18c-.11.08-.2.18-.24.32L.3,29.62s0,0,0,0c-.18.11-.3.31-.3.54,0,.35.28.63.63.63h20.68c.35,0,.63-.28.63-.63s-.28-.63-.63-.63H3.84l5.69-1.82s.01,0,.02,0c.02,0,.04-.02.06-.03.02,0,.04-.02.05-.03.02,0,.03-.02.05-.03.02-.01.04-.03.05-.04,0,0,.01,0,.02-.01L28.85,8.48c.25-.25.25-.64,0-.89l-.84-.84,2.51-2.51c.25-.25.25-.64,0-.89L27.36.18c-.25-.25-.64-.25-.89,0l-2.51,2.51-2.34-2.34c-.24-.24-.65-.24-.89,0l-7.46,7.46c-.25.25-.25.64,0,.89s.64.25.89,0l5-5,.76.75L3.3,21.07s-.06.07-.09.11Zm-1.33,7.66l.55-1.66,1.12,1.12-1.67.53ZM26.91,1.52l2.28,2.28-2.07,2.07-2.28-2.28,2.07-2.07Zm-5.74.17l.76.76-1.13,1.13-.76-.76,1.13-1.13Zm1.64,1.64l4.7,4.7-3.01,3.01-3.2-3.2c-.25-.25-.64-.25-.89,0-.25.25-.25.64,0,.89l3.2,3.2-4.81,4.81-4.7-4.7L22.82,3.34Zm-9.6,9.6l4.7,4.7-8.58,8.58-4.7-4.7,8.58-8.58Zm-5.05,13.88l-3.28,1.05s-.05-.06-.07-.09l-1.78-1.78c-.05-.05-.11-.09-.17-.12l1.08-3.29,4.22,4.22Z"/>
      <path class="cls-1" d="m31.75,30.16c0-.35-.28-.63-.63-.63h-4.9c-.35,0-.63.28-.63.63s.28.63.63.63h4.9c.35,0,.63-.28.63-.63Z"/>
    </g>
  </g>
</svg>