<?xml version="1.0" encoding="UTF-8"?>
<svg id="_レイヤー_2" data-name="レイヤー 2" xmlns="http://www.w3.org/2000/svg" viewBox="0 0 30.79 25.22">
  <defs>
    <style>
      .cls-1 {
        fill: #80c4c6;
      }

      .cls-2 {
        fill: #1a1a1a;
      }
    </style>
  </defs>
  <g id="_モバイル" data-name="モバイル">
    <g>
      <polygon class="cls-1" points="13.66 20.42 .86 20.33 .86 .38 20.06 .38 20.3 13.51 13.66 20.42"/>
      <path class="cls-2" d="m15.82,6.87c-.17-.17-.45-.17-.63,0l-5.93,5.43-2.75-2.52c-.18-.17-.46-.16-.63.01-.17.17-.18.45-.01.64l3.04,3.3c.09.09.21.15.34.15h1.06c.14,0,.26-.06.35-.16l5.21-6.22c.16-.19.14-.46-.03-.63Z"/>
      <path class="cls-2" d="m27.42,6.64c-.18-.18-.47-.18-.65,0l-5.64,5.64V2.66c0-1.47-1.19-2.66-2.66-2.66H2.66C1.19,0,0,1.19,0,2.66v15.8c0,1.47,1.19,2.66,2.66,2.66h10.57l-1.16,3.49c-.05.16-.01.34.11.47.09.09.21.14.33.14.05,0,.09,0,.14-.02l4.87-1.55c.13-.04.23-.14.28-.27l12.86-12.86c.18-.18.18-.47,0-.65l-3.24-3.24ZM2.66,20.21c-.96,0-1.74-.78-1.74-1.74V2.66c0-.96.78-1.74,1.74-1.74h15.8c.96,0,1.74.78,1.74,1.74v10.54l-6.31,6.31s-.04.04-.06.07c-.08.06-.14.13-.17.22l-.14.41H2.66Zm11.85,3.43l-.8-.8s-.05-.04-.07-.06l.66-1.99,2.21,2.21-2,.64Zm2.83-1.11l-2.59-2.59,12.34-12.34,2.59,2.59-12.34,12.34Z"/>
    </g>
  </g>
</svg>