<?xml version="1.0" encoding="utf-8"?>
<!-- Generator: Adobe Illustrator 27.3.1, SVG Export Plug-In . SVG Version: 6.00 Build 0)  -->
<svg version="1.1" id="_レイヤー_2" xmlns="http://www.w3.org/2000/svg" xmlns:xlink="http://www.w3.org/1999/xlink" x="0px"
	 y="0px" viewBox="0 0 42.8 35.1" style="enable-background:new 0 0 42.8 35.1;" xml:space="preserve">
<style type="text/css">
	.st0{fill:#FFFFFF;}
</style>
<path class="st0" d="M22,9.6c-0.2-0.2-0.6-0.2-0.9,0l-8.2,7.6L9,13.6c-0.2-0.2-0.6-0.2-0.9,0c-0.2,0.2-0.2,0.6,0,0.9l4.2,4.6
	c0.1,0.1,0.3,0.2,0.5,0.2h1.5c0.2,0,0.4-0.1,0.5-0.2l7.2-8.6C22.3,10.2,22.2,9.8,22,9.6L22,9.6z"/>
<path class="st0" d="M38.1,9.2c-0.2-0.2-0.7-0.2-0.9,0l-7.9,7.9V3.7c0-2-1.7-3.7-3.7-3.7h-22C1.7,0,0,1.7,0,3.7v22
	c0,2,1.7,3.7,3.7,3.7h14.7l-1.6,4.9c-0.1,0.2,0,0.5,0.1,0.7c0.1,0.1,0.3,0.2,0.5,0.2c0.1,0,0.1,0,0.2,0l6.8-2.2
	c0.2-0.1,0.3-0.2,0.4-0.4l17.9-17.9c0.2-0.2,0.2-0.6,0-0.9L38.1,9.2L38.1,9.2z M3.7,28.1c-1.3,0-2.4-1.1-2.4-2.4v-22
	c0-1.3,1.1-2.4,2.4-2.4h22c1.3,0,2.4,1.1,2.4,2.4v14.7l-8.8,8.8c0,0-0.1,0.1-0.1,0.1c-0.1,0.1-0.2,0.2-0.2,0.3l-0.2,0.6L3.7,28.1
	L3.7,28.1z M20.2,32.9l-1.1-1.1c0,0-0.1-0.1-0.1-0.1l0.9-2.8L23,32L20.2,32.9L20.2,32.9z M24.1,31.3l-3.6-3.6l17.2-17.2l3.6,3.6
	C41.3,14.2,24.1,31.3,24.1,31.3z"/>
</svg>
