<?xml version="1.0" encoding="utf-8"?>
<!-- Generator: Adobe Illustrator 27.3.1, SVG Export Plug-In . SVG Version: 6.00 Build 0)  -->
<svg version="1.1" id="_レイヤー_2" xmlns="http://www.w3.org/2000/svg" xmlns:xlink="http://www.w3.org/1999/xlink" x="0px"
	 y="0px" viewBox="0 0 375 108.3" style="enable-background:new 0 0 375 108.3;" xml:space="preserve" preserveAspectRatio="none">
<style type="text/css">
	.st0{fill:#FFFFFF;}
	.st1{fill:#2D4B8C;}
</style>
<path class="st0" d="M334.4,7c-13-1.6-26.4-3.3-50.9,3.4c-24.5,6.7-36,15.2-47.1,23.4c-10.9,8-21.2,15.6-44.1,21.9
	c-22.9,6.3-34.9,4.8-47.6,3.2c-13-1.6-26.4-3.3-50.9,3.4c-24.5,6.7-36,15.2-47.2,23.4c-10.9,8-21.2,15.6-44.1,21.9
	c-0.9,0.2-1.7,0.5-2.5,0.7h375V5.6C356.5,9.8,345.8,8.4,334.4,7z"/>
<path class="st1" d="M334.4,3.5L334.4,3.5c-13-2.8-26.4-5.6-50.9-1.1c-24.5,4.6-36,12-47.1,19.3c-10.9,7.1-21.2,13.8-44.1,18
	c-22.9,4.2-34.9,1.7-47.6-1c-13-2.8-26.4-5.6-50.9-1s-36,12-47.2,19.3C35.7,64,25.4,70.7,2.5,74.9c-0.9,0.2-1.7,0.3-2.5,0.5v32.9
	c0.8-0.2,1.7-0.4,2.5-0.7c22.9-6.3,33.2-13.9,44.1-21.9c11.1-8.2,22.6-16.7,47.2-23.4c24.5-6.7,38-5,50.9-3.4
	c12.7,1.6,24.7,3.1,47.6-3.2c22.9-6.3,33.2-13.9,44.1-21.9c11.1-8.2,22.6-16.7,47.1-23.4c24.5-6.7,38-5.1,50.9-3.4
	c11.3,1.4,22.1,2.8,40.6-1.4C356.5,8.2,345.8,5.9,334.4,3.5z"/>
</svg>
