<?xml version="1.0" encoding="UTF-8"?>
<svg id="_レイヤー_2" data-name="レイヤー 2" xmlns="http://www.w3.org/2000/svg" viewBox="0 0 42.94 43.38">
  <defs>
    <style>
      .cls-1 {
        fill: none;
        stroke: #fff;
        stroke-miterlimit: 10;
        stroke-width: 1.42px;
      }

      .cls-2 {
        fill: #2965af;
        font-family: Rockwell-Bold, Rockwell;
        font-size: 35.45px;
        font-weight: 700;
        letter-spacing: .08em;
      }

      .cls-3 {
        fill: #1a1a1a;
        stroke-width: 0px;
      }
    </style>
  </defs>
  <g id="m">
    <g>
      <g>
        <g>
          <path class="cls-3" d="M4,0C1.79,0,0,1.79,0,4s1.79,4,4,4,4-1.79,4-4S6.21,0,4,0ZM4,7.11c-1.72,0-3.11-1.4-3.11-3.11S2.28.89,4,.89c1.72,0,3.11,1.4,3.11,3.11s-1.4,3.11-3.11,3.11Z"/>
          <path class="cls-3" d="M4,2.22c-.98,0-1.78.8-1.78,1.78s.8,1.78,1.78,1.78c.98,0,1.78-.8,1.78-1.78s-.8-1.78-1.78-1.78Z"/>
        </g>
        <g>
          <path class="cls-3" d="M38.94,0c-2.21,0-4,1.79-4,4s1.79,4,4,4,4-1.79,4-4S41.15,0,38.94,0ZM38.94,7.11c-1.72,0-3.11-1.39-3.11-3.11s1.4-3.11,3.11-3.11,3.11,1.4,3.11,3.11-1.4,3.11-3.11,3.11Z"/>
          <path class="cls-3" d="M38.94,2.22c-.98,0-1.78.8-1.78,1.78s.8,1.78,1.78,1.78,1.78-.8,1.78-1.78-.8-1.78-1.78-1.78Z"/>
        </g>
        <g>
          <path class="cls-3" d="M4,34.29c-2.21,0-4,1.79-4,4s1.79,4,4,4,4-1.79,4-4-1.79-4-4-4ZM4,41.4c-1.72,0-3.11-1.4-3.11-3.11s1.4-3.11,3.11-3.11,3.11,1.4,3.11,3.11-1.4,3.11-3.11,3.11Z"/>
          <path class="cls-3" d="M4,36.51c-.98,0-1.78.8-1.78,1.78s.8,1.78,1.78,1.78c.98,0,1.78-.8,1.78-1.78s-.8-1.78-1.78-1.78Z"/>
        </g>
        <g>
          <path class="cls-3" d="M38.94,34.29c-2.21,0-4,1.79-4,4s1.79,4,4,4,4-1.79,4-4-1.79-4-4-4ZM38.94,41.4c-1.72,0-3.11-1.4-3.11-3.11s1.4-3.11,3.11-3.11,3.11,1.4,3.11,3.11-1.4,3.11-3.11,3.11Z"/>
          <path class="cls-3" d="M38.94,36.51c-.98,0-1.78.8-1.78,1.78s.8,1.78,1.78,1.78,1.78-.8,1.78-1.78-.8-1.78-1.78-1.78Z"/>
        </g>
      </g>
      <text class="cls-2" transform="translate(7.69 34.34)"><tspan x="0" y="0">H</tspan></text>
      <g>
        <line class="cls-1" x1="8.1" y1="10.23" x2="36.7" y2="10.23"/>
        <line class="cls-1" x1="8.1" y1="14.59" x2="36.7" y2="14.59"/>
        <line class="cls-1" x1="8.1" y1="18.96" x2="36.7" y2="18.96"/>
        <line class="cls-1" x1="8.1" y1="23.32" x2="36.7" y2="23.32"/>
        <line class="cls-1" x1="8.1" y1="27.69" x2="36.7" y2="27.69"/>
        <line class="cls-1" x1="8.1" y1="32.05" x2="36.7" y2="32.05"/>
      </g>
    </g>
  </g>
</svg>