<?xml version="1.0" encoding="UTF-8"?>
<svg id="_レイヤー_2" data-name="レイヤー 2" xmlns="http://www.w3.org/2000/svg" viewBox="0 0 70 70">
  <defs>
    <style>
      .cls-1 {
        fill: #fff;
        stroke: #4673be;
        stroke-miterlimit: 10;
        stroke-width: 1.42px;
      }

      .cls-2 {
        fill: #4673be;
        stroke-width: 0px;
      }
    </style>
  </defs>
  <g id="m">
    <circle class="cls-2" cx="35" cy="35" r="35"/>
    <g>
      <circle class="cls-1" cx="35.35" cy="50.54" r="4.12"/>
      <path class="cls-1" d="M46.53,45.09c-.53.53-1.2.8-2,.8-.67,0-1.46-.27-2-.8-3.86-3.86-10.24-3.86-14.24,0-1.06,1.06-2.79,1.06-3.86,0-1.06-1.06-1.06-2.79,0-3.86,5.99-5.99,15.96-5.99,21.95,0,1.2,1.06,1.2,2.79.13,3.86h0Z"/>
      <path class="cls-1" d="M53.31,38.3c-.53.53-1.2.8-2,.8-.67,0-1.46-.27-2-.8-7.72-7.72-20.09-7.72-27.81,0-1.06,1.06-2.79,1.06-3.86,0-1.06-1.06-1.06-2.79,0-3.86,9.85-9.85,25.68-9.85,35.52,0,1.2,1.06,1.2,2.79.13,3.86h0Z"/>
      <path class="cls-1" d="M60.1,27.66c1.06,1.06,1.06,2.79,0,3.86-.53.53-1.2.8-2,.8-.67,0-1.46-.27-2-.8-11.44-11.44-29.93-11.44-41.37,0-1.06,1.06-2.79,1.06-3.86,0-1.06-1.06-1.06-2.79,0-3.86,6.52-6.52,15.3-10.11,24.48-10.11,9.45-.13,18.23,3.59,24.75,10.11h0Z"/>
    </g>
  </g>
</svg>