<?xml version="1.0" encoding="UTF-8"?>
<svg id="_レイヤー_2" data-name="レイヤー 2" xmlns="http://www.w3.org/2000/svg" viewBox="0 0 75.3 61.21">
  <defs>
    <style>
      .cls-1 {
        opacity: .6;
      }

      .cls-2 {
        fill: #4673be;
        stroke-width: 0px;
      }
    </style>
  </defs>
  <g id="m">
    <g class="cls-1">
      <path class="cls-2" d="M34.88,30.03c0,22.97-5.15,31.18-17.48,31.18S0,52.53,0,30.02C0,5.85,7.29,0,17.67,0c10.96,0,17.21,6.67,17.21,30.03ZM10.86,29.62c0,14.92.69,22.62,6.62,22.62s6.54-7.39,6.54-22.44-.84-20.75-6.52-20.75c-5.34,0-6.64,5.86-6.64,20.57Z"/>
      <path class="cls-2" d="M40.69,60.38v-.6c.08-10.17,4.4-17.3,13.45-27.48,6.89-7.84,8.5-10.04,8.5-16.04,0-4.47-.95-7.6-5.36-7.6s-5.79,3.77-6,9.75h-10.45c.09-9.38,4.1-18.39,16.77-18.39,11.53,0,16.14,6.73,16.14,16.63,0,7.06-1.77,10.93-9.44,19.06-5.55,5.94-9.79,11.22-11.09,15.41h22.1l-1.43,9.29h-33.18Z"/>
    </g>
  </g>
</svg>