<?xml version="1.0" encoding="UTF-8"?>
<svg id="_レイヤー_2" data-name="レイヤー 2" xmlns="http://www.w3.org/2000/svg" viewBox="0 0 30.52 30.74">
  <defs>
    <style>
      .cls-1 {
        fill: #4673be;
      }

      .cls-1, .cls-2 {
        stroke-width: 0px;
      }

      .cls-2 {
        fill: #1a1a1a;
      }
    </style>
  </defs>
  <g id="m">
    <g>
      <path class="cls-2" d="M28.18.42C27.01,1.14,1.78,15.6.7,16.13c-1.08.54-.72,1.53-.18,1.8.54.27,7.11,3.28,7.74,3.55.52.22,1.89.33,2.35-.05l13.82-14.56L29.94.12c-.46-.24-1.12-.09-1.77.3Z"/>
      <path class="cls-1" d="M11.12,29.87c0,1.53,1.44.72,2.07,0,.63-.72,3.95-5.39,3.95-5.39,0,0,7.54,3.41,7.9,3.68.36.27,1.26.54,1.35-.45.09-.99,4.04-24.34,4.13-26.13.04-.81-.19-1.27-.57-1.47L11.12,23.05v6.83Z"/>
    </g>
  </g>
</svg>