<?xml version="1.0" encoding="UTF-8"?>
<svg xmlns="http://www.w3.org/2000/svg" viewBox="0 0 36.78 27.17">
  <defs>
    <style>
      .cls-1 {
        fill: #1a1a1a;
        stroke: #fff;
        stroke-miterlimit: 10;
        stroke-width: 1.13px;
      }

      .cls-2 {
        mix-blend-mode: multiply;
      }

      .cls-3 {
        isolation: isolate;
      }
    </style>
  </defs>
  <g class="cls-3">
    <g id="_レイヤー_2" data-name="レイヤー 2">
      <g id="pc">
        <g class="cls-2">
          <circle class="cls-1" cx="18.3" cy="23.71" r="2.89"/>
          <path class="cls-1" d="M26.14,19.89c-.37.37-.84.56-1.4.56-.47,0-1.03-.19-1.4-.56-2.71-2.71-7.19-2.71-9.99,0-.75.75-1.96.75-2.71,0-.75-.75-.75-1.96,0-2.71,4.2-4.2,11.2-4.2,15.4,0,.84.75.84,1.96.09,2.71h0Z"/>
          <path class="cls-1" d="M30.9,15.13c-.37.37-.84.56-1.4.56-.47,0-1.03-.19-1.4-.56-5.41-5.41-14.09-5.41-19.5,0-.75.75-1.96.75-2.71,0-.75-.75-.75-1.96,0-2.71,6.91-6.91,18.01-6.91,24.92,0,.84.75.84,1.96.09,2.71h0Z"/>
          <path class="cls-1" d="M35.66,7.66c.75.75.75,1.96,0,2.71-.37.37-.84.56-1.4.56-.47,0-1.03-.19-1.4-.56C24.83,2.34,11.86,2.34,3.83,10.37c-.75.75-1.96.75-2.71,0-.75-.75-.75-1.96,0-2.71C5.7,3.09,11.86.57,18.3.57c6.63-.09,12.79,2.52,17.36,7.09h0Z"/>
        </g>
      </g>
    </g>
  </g>
</svg>