<?xml version="1.0" encoding="UTF-8"?>
<svg id="_レイヤー_2" data-name="レイヤー 2" xmlns="http://www.w3.org/2000/svg" viewBox="0 0 30.2 38.28">
  <defs>
    <style>
      .cls-1 {
        fill: #fff;
        stroke: #fff;
        stroke-miterlimit: 10;
        stroke-width: .57px;
      }

      .cls-2 {
        fill: #4673be;
      }

      .cls-2, .cls-3 {
        stroke-width: 0px;
      }

      .cls-3 {
        fill: #1a1a1a;
      }
    </style>
  </defs>
  <g id="m">
    <g>
      <path class="cls-3" d="M15.58,25.89l1.79-3.36c.06-.12.07-.28.03-.42-.04-.14-.13-.24-.23-.27l-2.33-1.95s-.1-.02-.15,0l-2.33,1.95c-.1.03-.19.13-.23.26-.04.14-.03.28.02.4l1.71,3.39-1.46,12.09c-1.75,0,6.12.01,4.69.01l-1.52-12.11Z"/>
      <g>
        <g>
          <path class="cls-2" d="M15.1,20.09C6.8,20.09,0,24.93,0,30.84v6.85h30.2v-6.85c0-5.91-6.8-10.75-15.1-10.75Z"/>
          <circle class="cls-2" cx="15.1" cy="8.96" r="8.96" transform="translate(-2.02 5.06) rotate(-17.86)"/>
        </g>
        <path class="cls-1" d="M15.58,25.89l1.79-3.36c.06-.12.07-.28.03-.42-.04-.14-.13-.24-.23-.27l-2.33-1.95s-.1-.02-.15,0l-2.33,1.95c-.1.03-.19.13-.23.26-.04.14-.03.28.02.4l1.71,3.39-1.46,12.09c-1.75,0,6.12.01,4.69.01l-1.52-12.11Z"/>
        <path class="cls-3" d="M13.87,25.9l-1.42,11.79h4.61l-1.48-11.8,1.79-3.36c.06-.12.07-.28.03-.42-.04-.14-.13-.24-.23-.27l-2.33-1.95s-.1-.02-.15,0l-2.33,1.95c-.1.03-.19.13-.23.26-.04.14-.03.28.02.4l1.71,3.39Z"/>
      </g>
    </g>
  </g>
</svg>