<?xml version="1.0" encoding="UTF-8"?>
<svg id="_レイヤー_2" data-name="レイヤー 2" xmlns="http://www.w3.org/2000/svg" viewBox="0 0 27.58 27.19">
  <defs>
    <style>
      .cls-1 {
        fill: #1a1a1a;
        stroke-width: 0px;
      }
    </style>
  </defs>
  <g id="pc">
    <g>
      <path class="cls-1" d="M10.91,16.28s-.03-.02-.04-.03c-.11-.1-.24-.17-.43-.17H.67c-.37,0-.66.3-.67.67v9.77c0,.37.3.66.67.67h9.77c.37,0,.66-.3.67-.67v-9.77c0-.18-.07-.32-.16-.42-.01-.02-.02-.03-.04-.05ZM9.77,17.42v8.44H1.33v-8.44h8.44Z"/>
      <path class="cls-1" d="M4.18,23.67h2.74c.37,0,.66-.3.67-.67v-2.73s0,0,0,0c0-.37-.3-.67-.67-.67h-2.74c-.37,0-.66.3-.67.67v2.74c0,.37.3.66.67.67Z"/>
      <path class="cls-1" d="M10.91.2s-.03-.02-.04-.03c-.11-.1-.24-.17-.43-.17H.67C.3,0,0,.3,0,.67v9.77c0,.37.3.66.67.67h9.77c.37,0,.66-.3.67-.67V.67c0-.18-.07-.32-.16-.42-.01-.02-.02-.03-.03-.05ZM9.77,1.33v8.44H1.33V1.33h8.44Z"/>
      <path class="cls-1" d="M14.45,10.44V.67c0-.86-1.33-.86-1.33,0v9.77c0,.86,1.33.86,1.33,0Z"/>
      <path class="cls-1" d="M10.44,14.22c.86,0,.86-1.33,0-1.33H.67c-.86,0-.86,1.33,0,1.33h9.77Z"/>
      <path class="cls-1" d="M26.57,12.89h-5.36c-.86,0-.86,1.33,0,1.33h1.23v.93c0,.18.07.35.19.47.26.26.68.26.94,0,.13-.13.2-.3.2-.47v-.93h2.1v2.54c0,.37.3.67.67.67s.67-.3.67-.67v-3.17s0-.01,0-.02c.01-.34-.2-.69-.64-.69Z"/>
      <path class="cls-1" d="M13.63,14.22h4.07v4.07c0,.37.3.66.67.67h4.07v4.08c0,.86,1.33.86,1.33,0v-4.75c0-.37-.3-.66-.67-.67h-4.07v-4.07c0-.37-.3-.66-.67-.67h-4.74c-.86,0-.86,1.33,0,1.33Z"/>
      <path class="cls-1" d="M17.03,25.86h-2.56v-9.1c0-.86-1.33-.86-1.33,0v9.77c0,.37.3.66.67.67h3.23c.86,0,.86-1.33,0-1.33Z"/>
      <path class="cls-1" d="M25.9,19.69v6.17h-5.81c-.86,0-.86,1.33,0,1.33h6.48c.37,0,.66-.3.67-.67v-6.84c0-.86-1.33-.86-1.33,0Z"/>
      <path class="cls-1" d="M4.18,7.59h2.74c.37,0,.66-.3.67-.67v-2.74c0-.37-.3-.67-.67-.67h-2.74c-.37,0-.66.3-.67.67v2.74c0,.37.3.66.67.67Z"/>
      <path class="cls-1" d="M27.41.24s-.02-.03-.03-.04c-.02-.01-.03-.02-.05-.04-.1-.09-.24-.16-.42-.16h-9.77c-.37,0-.66.3-.67.67v9.77c0,.37.3.66.67.67h9.77c.37,0,.66-.3.67-.67V.67c0-.19-.07-.32-.17-.43ZM26.25,1.33v8.44h-8.44V1.33h8.44Z"/>
      <path class="cls-1" d="M20.66,7.59h2.74c.37,0,.66-.3.67-.67v-2.74c0-.37-.3-.67-.67-.67h-2.74c-.37,0-.66.3-.67.67v2.74c0,.37.3.66.67.67Z"/>
      <path class="cls-1" d="M17.33,20.95c-.37,0-.66.3-.67.67v1.17c0,.37.3.66.67.67h2.59c.37,0,.66-.3.67-.67v-1.17c0-.37-.3-.67-.67-.67h-2.59Z"/>
    </g>
  </g>
</svg>