<?xml version="1.0" encoding="UTF-8"?>
<svg id="_レイヤー_2" data-name="レイヤー 2" xmlns="http://www.w3.org/2000/svg" viewBox="0 0 57.23 61.21">
  <defs>
    <style>
      .cls-1 {
        opacity: .6;
      }

      .cls-2 {
        fill: #4673be;
        stroke-width: 0px;
      }
    </style>
  </defs>
  <g id="m">
    <g class="cls-1">
      <path class="cls-2" d="M34.88,30.03c0,22.97-5.15,31.18-17.48,31.18S0,52.53,0,30.02C0,5.85,7.29,0,17.67,0c10.96,0,17.21,6.67,17.21,30.03ZM10.86,29.62c0,14.92.69,22.62,6.62,22.62s6.54-7.39,6.54-22.44-.84-20.75-6.52-20.75c-5.34,0-6.64,5.86-6.64,20.57Z"/>
      <path class="cls-2" d="M46.39,60.38V13.13c-1.45.21-4.79.22-6.52.1V5c4.25-.55,8.26-2.55,10.17-4.54h7.19v59.91h-10.84Z"/>
    </g>
  </g>
</svg>