<?xml version="1.0" encoding="UTF-8"?>
<svg id="_レイヤー_2" data-name="レイヤー 2" xmlns="http://www.w3.org/2000/svg" viewBox="0 0 40.24 26.91">
  <defs>
    <style>
      .cls-1 {
        fill: #4673be;
      }

      .cls-1, .cls-2 {
        stroke-width: 0px;
      }

      .cls-2 {
        fill: #1a1a1a;
      }
    </style>
  </defs>
  <g id="m">
    <g>
      <polygon class="cls-1" points="0 2.14 0 24.52 13.71 13.44 0 2.14"/>
      <path class="cls-2" d="M20.17,16.14h0c.3,0,.6-.09.85-.25l.07-.04s.03-.02.04-.03l.77-.63L40.2.09c-.04-.05-.1-.09-.17-.09H.21S.12.02.08.05l19.14,15.78c.24.2.59.31.95.31Z"/>
      <path class="cls-1" d="M22.19,17.11c-.55.45-1.26.7-2.01.7s-1.47-.25-2.01-.69l-3.14-2.59L0,26.66v.04c0,.12.1.21.22.21h39.82c.11,0,.21-.1.21-.21v-.04l-15.01-12.06-3.04,2.51Z"/>
      <polygon class="cls-1" points="26.55 13.52 40.24 24.53 40.24 2.21 26.55 13.52"/>
    </g>
  </g>
</svg>