<?xml version="1.0" encoding="UTF-8"?>
<svg id="_レイヤー_2" data-name="レイヤー 2" xmlns="http://www.w3.org/2000/svg" viewBox="0 0 39.92 35">
  <defs>
    <style>
      .cls-1 {
        fill: #4673be;
      }

      .cls-1, .cls-2 {
        stroke-width: 0px;
      }

      .cls-2 {
        fill: #1a1a1a;
      }
    </style>
  </defs>
  <g id="m">
    <g>
      <path class="cls-1" d="M24.31,31.02l-2.82-2.54c.53,1,.31,2.26-.58,3.02l-1.56,1.31,1.84,1.66c.84.76,2.15.69,2.91-.15l.36-.4c.76-.84.69-2.15-.15-2.91Z"/>
      <path class="cls-2" d="M38.07,18.86l-1.93-1.74c-.2-.17-.41-.35-.63-.54-.3-.26-.6-.52-.95-.81-1.06-.89-2.29-2.15-3.59-3.49-1-1.03-2.04-2.1-3.03-3.02-.38-.36-.76-.77-1.16-1.21-.94-1.03-2.01-2.2-2.86-2.2-.15,0-.59,0-1.18.82-1.99,2.76-5.22,4.01-7.39,4.01-.5,0-.96-.07-1.36-.2-1.36-.44-1.84-1.17-2-1.69-.18-.61-.02-1.19.23-1.5.12-.15.59-.64,1.49-1.58.76-.79,1.7-1.78,2.39-2.52.32-.34.64-.66.95-.96-2.04.29-4.08.9-5.41,1.62C8.67,5.48.24,4.88.24,4.88c0,0-.24,12.29-.24,14.75,0,.59.49.89,1.46,1.22.15-.32.36-.62.65-.86l3.25-2.74c.44-.37,1-.58,1.58-.58.73,0,1.41.32,1.88.87l.38.45c.68.81.75,1.93.25,2.8.2-.05.4-.08.61-.08.73,0,1.41.32,1.88.87l.38.45c.56.66.7,1.54.46,2.32l.09-.08c.44-.37,1-.58,1.58-.58.73,0,1.41.32,1.88.87l.38.45c.61.73.73,1.71.39,2.53l.28-.24c.44-.37,1-.58,1.58-.58.27,0,.53.04.77.12.21-.76.84-.23.84-.23l5.27,4.76c1.03.93,2.63.85,3.56-.18l.04-.04c.93-1.03.85-2.63-.18-3.56l-4.86-4.38h0c-.2-.18-.08-.4-.02-.47.2-.21.44.04.44.04l5.92,5.35c1.03.93,2.63.85,3.56-.18l.28-.31c.93-1.03.85-2.63-.18-3.56l-5.92-5.35c-.34-.34-.17-.6-.08-.69.27-.24.5-.1.6-.03l.04.04h0s0,0,0,0l5.39,4.86c1.03.93,2.63.85,3.56-.18l.28-.31c.93-1.03.85-2.63-.18-3.56Z"/>
      <path class="cls-1" d="M31.11,2.23C28.83,1.85,24.82-.15,22.49,0c-2.33.16-4.55,2.17-5.91,3.63-1.35,1.46-3.63,3.79-3.85,4.06-.22.27-.54,1.52,1.46,2.17,2.01.65,5.91-.65,8.02-3.58s4.31.76,6.18,2.49c2.26,2.11,4.74,4.92,6.59,6.48,2.05,1.73,3.01,2.76,4.63,3.11.05.05.3-16.15.3-16.15,0,0-6.54.38-8.81,0Z"/>
      <rect class="cls-1" x="4.69" y="22.66" width="7.86" height="4.19" rx="1.8" ry="1.8" transform="translate(-13.93 11.39) rotate(-40.15)"/>
      <rect class="cls-1" x="1.58" y="18.61" width="7.86" height="4.19" rx="1.8" ry="1.8" transform="translate(-12.06 8.43) rotate(-40.15)"/>
      <rect class="cls-1" x="9.08" y="25.64" width="7.86" height="4.19" rx="1.8" ry="1.8" transform="translate(-14.82 14.93) rotate(-40.16)"/>
      <rect class="cls-1" x="13.58" y="28.67" width="7.86" height="4.19" rx="1.8" ry="1.8" transform="translate(-15.72 18.54) rotate(-40.15)"/>
    </g>
  </g>
</svg>