<?xml version="1.0" encoding="UTF-8"?>
<svg id="_レイヤー_2" data-name="レイヤー 2" xmlns="http://www.w3.org/2000/svg" viewBox="0 0 23.53 28.8">
  <defs>
    <style>
      .cls-1 {
        fill: #1a1a1a;
        stroke-width: 0px;
      }
    </style>
  </defs>
  <g id="pc">
    <path class="cls-1" d="M23.53,1.91c0,1.06-5.27,1.91-11.77,1.91S0,2.97,0,1.91,5.27,0,11.77,0s11.77.86,11.77,1.91ZM23.53,4.02v6.22c0,1.06-5.27,1.91-11.77,1.91S0,11.3,0,10.24v-6.22c0,1.06,5.27,1.91,11.77,1.91s11.77-.86,11.77-1.91ZM21.74,8.51c0-.51-.41-.92-.92-.92s-.92.41-.92.92.41.92.92.92.92-.41.92-.92ZM23.53,12.34v6.22c0,1.06-5.27,1.91-11.77,1.91s-11.77-.86-11.77-1.91v-6.22c0,1.06,5.27,1.91,11.77,1.91s11.77-.86,11.77-1.91ZM21.74,16.83c0-.51-.41-.92-.92-.92s-.92.41-.92.92.41.92.92.92.92-.41.92-.92ZM23.53,20.66v6.22c0,1.06-5.27,1.91-11.77,1.91s-11.77-.86-11.77-1.91v-6.22c0,1.06,5.27,1.91,11.77,1.91s11.77-.86,11.77-1.91ZM21.74,25.16c0-.51-.41-.92-.92-.92s-.92.41-.92.92.41.92.92.92.92-.41.92-.92Z"/>
  </g>
</svg>