<?xml version="1.0" encoding="UTF-8"?>
<svg id="_レイヤー_2" data-name="レイヤー 2" xmlns="http://www.w3.org/2000/svg" viewBox="0 0 75.1 61.21">
  <defs>
    <style>
      .cls-1 {
        opacity: .6;
      }

      .cls-2 {
        fill: #4673be;
        stroke-width: 0px;
      }
    </style>
  </defs>
  <g id="m">
    <g class="cls-1">
      <path class="cls-2" d="M34.88,30.03c0,22.97-5.15,31.18-17.48,31.18S0,52.53,0,30.02C0,5.85,7.29,0,17.67,0c10.96,0,17.21,6.67,17.21,30.03ZM10.86,29.62c0,14.92.69,22.62,6.62,22.62s6.54-7.39,6.54-22.44-.84-20.75-6.52-20.75c-5.34,0-6.64,5.86-6.64,20.57Z"/>
      <path class="cls-2" d="M41.49,16.83c.01-7.81,3.51-16.83,16.26-16.83,10.71,0,15.54,6.02,15.54,15.32,0,7.33-3.21,10.91-7.19,12.43v.17c4.91,1.59,9,5.55,9,14.28,0,10.27-4,18.99-17.73,18.99-11.3,0-16.42-6.59-16.7-16.41h10.43c.26,4.05,1.72,7.84,6.52,7.84,5.05,0,6.54-3.77,6.54-10.16,0-6.75-2.14-9.52-9.14-9.52h-2.7v-8.88h2.47c5.59,0,7.73-1.69,7.73-8.02,0-4.43-.99-7.4-5.43-7.4-4.67,0-5.48,4.57-5.66,8.19h-9.94Z"/>
    </g>
  </g>
</svg>