<?xml version="1.0" encoding="UTF-8"?>
<svg id="_レイヤー_2" data-name="レイヤー 2" xmlns="http://www.w3.org/2000/svg" viewBox="0 0 77.07 61.21">
  <defs>
    <style>
      .cls-1 {
        opacity: .6;
      }

      .cls-2 {
        fill: #4673be;
        stroke-width: 0px;
      }
    </style>
  </defs>
  <g id="m">
    <g class="cls-1">
      <path class="cls-2" d="M34.88,30.03c0,22.97-5.15,31.18-17.48,31.18S0,52.53,0,30.02C0,5.85,7.29,0,17.67,0c10.96,0,17.21,6.67,17.21,30.03ZM10.86,29.62c0,14.92.69,22.62,6.62,22.62s6.54-7.39,6.54-22.44-.84-20.75-6.52-20.75c-5.34,0-6.64,5.86-6.64,20.57Z"/>
      <path class="cls-2" d="M61.65,60.38v-14.18h-21.06v-8.88L57.78.73h13.84v36.67h5.45l-.94,8.81h-4.51v14.18h-9.97ZM61.65,25.15c0-6.37.15-11.18.34-16.16-1.99,6.4-7.81,19.98-11.4,28.4h11.06v-12.24Z"/>
    </g>
  </g>
</svg>