<?xml version="1.0" encoding="UTF-8"?>
<svg id="_レイヤー_2" data-name="レイヤー 2" xmlns="http://www.w3.org/2000/svg" viewBox="0 0 70 70">
  <defs>
    <style>
      .cls-1 {
        fill: #4673be;
      }

      .cls-1, .cls-2 {
        stroke-width: 0px;
      }

      .cls-2 {
        fill: #fff;
      }
    </style>
  </defs>
  <g id="m">
    <circle class="cls-1" cx="35" cy="35" r="35"/>
    <g>
      <path class="cls-2" d="M31.47,39.02s-.03-.03-.05-.04c-.13-.12-.3-.21-.53-.21h-12.1c-.45,0-.82.37-.83.83v12.1c0,.45.37.82.83.83h12.1c.45,0,.82-.37.83-.83v-12.1c0-.23-.08-.39-.2-.52-.01-.02-.03-.04-.04-.06ZM30.06,40.43v10.45h-10.45v-10.45h10.45Z"/>
      <path class="cls-2" d="M23.15,48.17c4.99-.07,4.15.81,4.21-4.21,0-.46-.37-.83-.83-.83h-3.39c-.45,0-.82.37-.83.83v3.39c0,.45.37.82.83.83Z"/>
      <path class="cls-2" d="M31.47,19.11s-.03-.03-.05-.04c-.13-.12-.3-.21-.53-.21h-12.1c-.45,0-.82.37-.83.83v12.1c0,.45.37.82.83.83h12.1c.45,0,.82-.37.83-.83v-12.1c0-.23-.08-.39-.2-.52-.01-.02-.03-.04-.04-.06ZM30.06,20.51v10.45h-10.45v-10.45h10.45Z"/>
      <path class="cls-2" d="M35.86,31.78v-12.1c0-1.06-1.65-1.06-1.65,0v12.1c0,1.06,1.65,1.06,1.65,0Z"/>
      <path class="cls-2" d="M30.89,36.47c1.06,0,1.06-1.65,0-1.65h-12.1c-1.06,0-1.06,1.65,0,1.65h12.1Z"/>
      <path class="cls-2" d="M50.87,34.82h-6.63c-1.06,0-1.06,1.65,0,1.65h1.53v1.15c-.02.71.91,1.11,1.41.59.39-.31.2-1.31.24-1.73h2.6v3.15c0,1.08,1.65,1.08,1.65,0-.01-.04.01-3.91,0-3.95.01-.42-.25-.86-.79-.86Z"/>
      <path class="cls-2" d="M34.85,36.47h5.04v5.04c0,.45.37.82.83.83h5.04v5.06c0,1.06,1.65,1.06,1.65,0v-5.88c0-.45-.37-.82-.83-.83h-5.04v-5.04c0-.45-.37-.82-.83-.83h-5.87c-1.06,0-1.06,1.65,0,1.65Z"/>
      <path class="cls-2" d="M39.05,50.88h-3.17v-11.27c0-1.06-1.65-1.06-1.65,0v12.1c0,.45.37.82.83.83h4c1.06,0,1.06-1.65,0-1.65Z"/>
      <path class="cls-2" d="M50.04,43.24v7.64h-7.2c-1.06,0-1.06,1.65,0,1.65h8.02c.45,0,.82-.37.83-.83v-8.47c0-1.06-1.65-1.06-1.65,0Z"/>
      <path class="cls-2" d="M23.15,28.26c5.05-.08,4.13.83,4.21-4.21,0-.46-.37-.83-.83-.83h-3.39c-.45,0-.82.37-.83.83v3.39c0,.45.37.82.83.83Z"/>
      <path class="cls-2" d="M51.91,19.15s-.02-.03-.03-.05c-.02-.02-.04-.03-.06-.05-.13-.12-.3-.2-.52-.2h-12.1c-.45,0-.82.37-.83.83v12.1c0,.45.37.82.83.83h12.1c.45,0,.82-.37.83-.83v-12.1c0-.23-.09-.4-.21-.53ZM50.47,20.51v10.45h-10.45v-10.45h10.45Z"/>
      <path class="cls-2" d="M43.55,28.26c5.05-.08,4.13.83,4.21-4.21,0-.46-.37-.83-.83-.83h-3.39c-.45,0-.82.37-.83.83v3.39c0,.45.37.82.83.83Z"/>
      <path class="cls-2" d="M39.42,44.8c-.45,0-.82.37-.83.83v1.44c0,.45.37.82.83.83h3.21c.45,0,.82-.37.83-.83v-1.44c0-.46-.37-.83-.83-.83h-3.21Z"/>
    </g>
  </g>
</svg>