<?xml version="1.0" encoding="UTF-8"?>
<svg id="_レイヤー_2" data-name="レイヤー 2" xmlns="http://www.w3.org/2000/svg" viewBox="0 0 38.58 43.11">
  <defs>
    <style>
      .cls-1 {
        stroke: #fff;
        stroke-linecap: round;
        stroke-linejoin: round;
        stroke-width: .57px;
      }

      .cls-1, .cls-2 {
        fill: #1a1a1a;
      }

      .cls-2 {
        stroke-width: 0px;
      }
    </style>
  </defs>
  <g id="pc">
    <g>
      <polygon class="cls-1" points="6.92 13.8 .36 17.54 6.89 21.35 13.52 17.53 6.92 13.8"/>
      <polygon class="cls-1" points=".29 25.59 6.73 29.31 6.73 21.71 .28 17.95 .29 25.59"/>
      <polygon class="cls-1" points="31.69 13.8 25.12 17.54 31.66 21.35 38.29 17.53 31.69 13.8"/>
      <polygon class="cls-1" points="38.29 17.93 31.82 21.66 31.82 29.31 38.29 25.58 38.29 17.93"/>
      <polygon class="cls-1" points="25.9 4.01 19.3 .28 12.74 4.03 19.27 7.83 25.9 4.01"/>
      <polygon class="cls-1" points="19.3 27.31 12.74 31.06 19.27 34.86 25.9 31.04 19.3 27.31"/>
      <polygon class="cls-1" points="19.44 35.18 19.44 42.82 25.91 39.09 25.9 31.45 19.44 35.18"/>
      <polygon class="cls-1" points="12.67 39.1 19.11 42.82 19.11 35.23 12.66 31.46 12.67 39.1"/>
      <path class="cls-1" d="M13.29,12.43l1.62-.94c.12-.07.25-.1.38-.1.27,0,.53.15.66.38.21.37.09.83-.28,1.05l-.86.49,4.29,2.47v-7.59l-6.44-3.76v7.64s.63.36.63.36Z"/>
      <path class="cls-1" d="M19.44,8.15v7.65l4.51-2.6-.64-.37c-.18-.1-.3-.27-.36-.47-.05-.2-.03-.4.07-.58.14-.24.39-.38.66-.38.13,0,.27.04.38.1l1.41.82.43-.24v-7.65s-6.47,3.73-6.47,3.73Z"/>
      <path class="cls-1" d="M10.64,25.29c.14-.24.39-.38.66-.38.13,0,.27.04.38.1l1.41.82.43-.24v-7.65s-6.47,3.73-6.47,3.73v7.65l4.51-2.6-.65-.37c-.37-.21-.49-.69-.28-1.05Z"/>
      <path class="cls-1" d="M25.05,25.59l.62.36,1.62-.94c.12-.07.25-.1.38-.1.27,0,.53.15.66.38.1.18.13.38.07.58-.05.2-.18.36-.36.47l-.86.49,4.29,2.47v-7.6l-6.44-3.76v7.64Z"/>
      <path class="cls-2" d="M11.49,14.8l3.99-2.3c.19-.11.24-.34.14-.53s-.34-.24-.53-.14l-3.99,2.3c-.19.11-.24.34-.14.53.11.18.35.24.53.14Z"/>
      <path class="cls-2" d="M23.36,28.17c.11.19.34.24.53.14l3.99-2.3c.19-.11.24-.34.14-.53-.11-.19-.34-.24-.53-.14l-3.99,2.3c-.19.11-.24.34-.14.53Z"/>
      <path class="cls-2" d="M23.36,11.97c-.11.19-.04.42.14.53l3.99,2.3c.19.11.42.04.53-.14.11-.19.04-.42-.14-.53l-3.99-2.3c-.19-.11-.42-.05-.53.14Z"/>
      <path class="cls-2" d="M11.49,25.34c-.19-.11-.42-.04-.53.14-.11.19-.04.42.14.53l3.99,2.3c.19.11.42.04.53-.14.11-.19.04-.42-.14-.53l-3.99-2.3Z"/>
    </g>
  </g>
</svg>