<?xml version="1.0" encoding="UTF-8"?>
<svg id="_レイヤー_2" data-name="レイヤー 2" xmlns="http://www.w3.org/2000/svg" xmlns:xlink="http://www.w3.org/1999/xlink" viewBox="0 0 181.95 147.8">
  <defs>
    <style>
      .cls-1 {
        clip-path: url(#clippath);
      }

      .cls-2, .cls-3, .cls-4 {
        fill: none;
      }

      .cls-2, .cls-5, .cls-6, .cls-7, .cls-8, .cls-9, .cls-10, .cls-11, .cls-12, .cls-13, .cls-14, .cls-15, .cls-16, .cls-17, .cls-18, .cls-19, .cls-20, .cls-21, .cls-22, .cls-23 {
        stroke-width: 0px;
      }

      .cls-3 {
        stroke: #888;
        stroke-width: .79px;
      }

      .cls-3, .cls-4 {
        stroke-linecap: round;
        stroke-linejoin: round;
      }

      .cls-4 {
        stroke: #717071;
        stroke-width: .4px;
      }

      .cls-5 {
        fill: url(#_裼_胙琅韃_101);
      }

      .cls-6 {
        fill: url(#_裼_胙琅韃_104);
      }

      .cls-7 {
        fill: url(#_裼_胙琅韃_104-4);
      }

      .cls-8 {
        fill: url(#_裼_胙琅韃_104-3);
      }

      .cls-9 {
        fill: url(#_裼_胙琅韃_104-2);
      }

      .cls-10 {
        fill: url(#_裼_胙琅韃_101-2);
      }

      .cls-11 {
        fill: url(#_裼_胙琅韃_101-4);
      }

      .cls-12 {
        fill: url(#_裼_胙琅韃_101-3);
      }

      .cls-24 {
        fill: #4673be;
        stroke: #fff;
        stroke-miterlimit: 10;
        stroke-width: 1.42px;
      }

      .cls-13 {
        fill: #f3f0ef;
      }

      .cls-14 {
        fill: #595757;
      }

      .cls-15 {
        fill: #888;
      }

      .cls-16 {
        fill: #717071;
      }

      .cls-17 {
        fill: #344479;
      }

      .cls-18 {
        fill: #586296;
      }

      .cls-19 {
        fill: #20132c;
      }

      .cls-20 {
        fill: #d5d5d5;
      }

      .cls-21 {
        fill: #9e9e9f;
      }

      .cls-22 {
        fill: #72a0ae;
      }

      .cls-23 {
        fill: #6671ad;
      }
    </style>
    <clipPath id="clippath">
      <polygon class="cls-2" points="78.17 13.63 34.96 45.8 34.96 147.8 0 147.8 0 1.09 78.17 13.63"/>
    </clipPath>
    <linearGradient id="_裼_胙琅韃_101" data-name="ﾁ裼 胙琅韃 101" x1="11.52" y1="111.25" x2="79.15" y2="111.25" gradientUnits="userSpaceOnUse">
      <stop offset=".13" stop-color="#29325f"/>
      <stop offset=".15" stop-color="#363f6c"/>
      <stop offset=".48" stop-color="#363f6c"/>
      <stop offset=".49" stop-color="#404a7e"/>
      <stop offset=".88" stop-color="#404a7e"/>
      <stop offset=".88" stop-color="#363f6c"/>
    </linearGradient>
    <linearGradient id="_裼_胙琅韃_104" data-name="ﾁ裼 胙琅韃 104" x1="13.73" y1="75.78" x2="76.95" y2="75.78" gradientUnits="userSpaceOnUse">
      <stop offset=".13" stop-color="#1e2a5c"/>
      <stop offset=".15" stop-color="#2a3568"/>
      <stop offset=".48" stop-color="#2a3568"/>
      <stop offset=".49" stop-color="#323e7a"/>
      <stop offset=".88" stop-color="#323e7a"/>
      <stop offset=".88" stop-color="#2a3568"/>
    </linearGradient>
    <linearGradient id="_裼_胙琅韃_101-2" data-name="ﾁ裼 胙琅韃 101" y1="64.24" y2="64.24" xlink:href="#_裼_胙琅韃_101"/>
    <linearGradient id="_裼_胙琅韃_104-2" data-name="ﾁ裼 胙琅韃 104" y1="48.84" y2="48.84" xlink:href="#_裼_胙琅韃_104"/>
    <linearGradient id="_裼_胙琅韃_101-3" data-name="ﾁ裼 胙琅韃 101" x1="11.91" y1="40.66" x2="78.76" y2="40.66" xlink:href="#_裼_胙琅韃_101"/>
    <linearGradient id="_裼_胙琅韃_104-3" data-name="ﾁ裼 胙琅韃 104" x1="98.08" y1="104.14" x2="181.95" y2="104.14" xlink:href="#_裼_胙琅韃_104"/>
    <linearGradient id="_裼_胙琅韃_101-4" data-name="ﾁ裼 胙琅韃 101" x1="97.9" y1="125.18" x2="182.49" y2="125.18" xlink:href="#_裼_胙琅韃_101"/>
    <linearGradient id="_裼_胙琅韃_104-4" data-name="ﾁ裼 胙琅韃 104" x1="97.97" y1="110.18" x2="181.92" y2="110.18" xlink:href="#_裼_胙琅韃_104"/>
  </defs>
  <g id="pc">
    <g>
      <g>
        <path class="cls-16" d="M78.76,27.8c0,1.67-.37,3.31-1.17,4.85-2.05,4.57-7.09,8.44-13.9,10.96-5.27,1.96-11.57,3.12-18.33,3.12-3.64,0-7.14-.32-10.4-.93-2.84-.52-5.5-1.26-7.93-2.2-6.81-2.52-11.85-6.39-13.95-10.92-.75-1.54-1.17-3.12-1.17-4.8,0-8.4,9.66-15.49,23.05-18.01,3.27-.6,6.77-.93,10.36-.93,18.47,0,33.45,8.44,33.45,18.85Z"/>
        <path class="cls-16" d="M78.65,26.66l.5,102.97c0,.71-.04,1.41-.23,2.13-1.8,9.57-5.9-10.04-29.06-10.04-15.45,0-17.37,2.57-23.16,3.86-12.23,2.72-13.38,13.82-14.9,6.27-.14-.71-.23-1.41-.23-2.17l-.05-49.81v-6l8.31-43.5,15.01-.04,35.96-.05,7.85-3.6Z"/>
        <path class="cls-14" d="M14.01,81.16v-4.4c0-.65.04-1.3.22-1.95,1.65-8.83,14.91-15.65,30.91-15.65,3.39,0,6.65.3,9.7.87,11.35,2.09,21.3,7.29,22.69,14.25.13.65,1.2,7.09,1.2,7.09.09-4.92.09-3.37.09-5.72,0-1.67-.74-4.43-1.49-5.98-2.1-4.51-7.12-8.36-13.91-10.88-2.42-.93-5.07-1.67-7.91-2.18-3.26-.6-6.74-.93-10.37-.93-6.74,0-13.02,1.16-18.28,3.11-6.79,2.52-11.81,6.37-13.86,10.93-.79,1.53-1.16,3.16-1.16,4.84,0,2.33.79,4.55,2.17,6.61Z"/>
        <path class="cls-14" d="M14.01,54.14v-4.4c0-.65.04-1.3.22-1.95,1.65-8.83,14.91-15.65,30.91-15.65,3.39,0,6.65.3,9.7.87,11.35,2.09,21.3,7.29,22.69,14.25.13.65,1.2,7.09,1.2,7.09.09-4.92.09-3.37.09-5.72,0-1.67-.74-4.43-1.49-5.98-2.1-4.51-7.12-8.36-13.91-10.88-2.42-.93-5.07-1.67-7.91-2.18-3.26-.6-6.74-.93-10.37-.93-6.74,0-13.02,1.16-18.28,3.11-6.79,2.52-11.81,6.37-13.86,10.93-.79,1.53-1.16,3.16-1.16,4.84,0,2.33.79,4.55,2.17,6.61Z"/>
        <rect class="cls-3" x="42.89" y="14.69" width="13.94" height="54.92"/>
        <rect class="cls-3" x="45.51" y="19.14" width="8.7" height="48.17"/>
        <g class="cls-1">
          <path class="cls-5" d="M79.15,73.77v55.86c0,.71-.04,1.41-.23,2.13-1.8,9.57-16.19,16.98-33.56,16.98-3.68,0-7.22-.33-10.52-.94-12.32-2.27-21.52-8.4-23.03-15.95-.14-.71-.23-1.41-.23-2.17l-.05-49.81v-6h8.31l15.01-.04,35.96-.05h8.35Z"/>
          <path class="cls-18" d="M79.15,73.77c0,1.71-.38,3.35-1.18,4.91-2.08,4.63-7.18,8.54-14.07,11.09-5.33,1.98-11.7,3.16-18.55,3.16-3.68,0-7.22-.33-10.52-.94-2.88-.52-5.57-1.27-8.02-2.22-6.89-2.55-11.98-6.47-14.11-11.04-.76-1.57-1.18-3.17-1.18-4.87,0-8.5,9.77-15.67,23.32-18.22,3.31-.6,6.84-.94,10.48-.94,18.69,0,33.84,8.54,33.84,19.07Z"/>
          <path class="cls-6" d="M76.95,62.16v9.37c0,.66-.04,1.32-.22,1.98-1.68,8.96-15.13,15.88-31.37,15.88-3.44,0-6.75-.3-9.84-.88-11.52-2.12-20.12-7.86-21.53-14.91-.13-.66-.22-1.33-.22-2.03l-.04-3.72v-5.6h7.77l14.03-.04,33.62-.04h7.81Z"/>
          <path class="cls-10" d="M79.15,46.91v15.54c0,.71-.04,1.42-.23,2.13-1.8,9.58-16.19,16.99-33.56,16.99-3.68,0-7.22-.33-10.52-.94-12.32-2.27-21.52-8.4-23.03-15.95-.14-.71-.23-1.41-.23-2.17l-.05-9.51v-6h8.31l15.01-.04,35.96-.04h8.35Z"/>
          <path class="cls-18" d="M79.15,46.91c0,1.7-.38,3.35-1.18,4.9-2.08,4.63-7.18,8.55-14.07,11.09-5.33,1.98-11.7,3.17-18.55,3.17-3.68,0-7.22-.34-10.52-.95-2.88-.52-5.57-1.27-8.02-2.22-6.89-2.54-11.98-6.47-14.11-11.04-.76-1.56-1.18-3.16-1.18-4.87,0-8.49,9.77-15.67,23.32-18.21,3.31-.61,6.84-.94,10.48-.94,18.69,0,33.84,8.54,33.84,19.07Z"/>
          <path class="cls-9" d="M76.95,35.22v9.37c0,.66-.04,1.32-.22,1.98-1.68,8.96-15.13,15.88-31.37,15.88-3.44,0-6.75-.3-9.84-.88-11.52-2.12-20.12-7.85-21.53-14.91-.13-.66-.22-1.33-.22-2.03l-.04-3.72v-5.61h7.77l14.03-.04,33.62-.04h7.81Z"/>
          <path class="cls-12" d="M78.76,27.8v6.82c0,.7-.04,1.41-.23,2.1-1.78,9.47-16,16.8-33.17,16.8-3.64,0-7.14-.32-10.4-.93-12.17-2.24-21.27-8.31-22.77-15.77-.14-.7-.23-1.4-.23-2.14l-.05-.86v-5.93h8.22l14.83-.04,35.55-.04h8.26Z"/>
          <path class="cls-18" d="M78.76,27.8c0,1.67-.37,3.31-1.17,4.85-2.05,4.57-7.09,8.44-13.9,10.96-5.27,1.96-11.57,3.12-18.33,3.12-3.64,0-7.14-.32-10.4-.93-2.84-.52-5.5-1.26-7.93-2.2-6.81-2.52-11.85-6.39-13.95-10.92-.75-1.54-1.17-3.12-1.17-4.8,0-8.4,9.66-15.49,23.05-18.01,3.27-.6,6.77-.93,10.36-.93,18.47,0,33.45,8.44,33.45,18.85Z"/>
          <path class="cls-23" d="M77.59,30.19c-2.05,4.57-7.09,8.44-13.9,10.96-5.27,1.96-11.57,3.12-18.33,3.12-3.64,0-7.14-.32-10.4-.93-2.84-.52-5.5-1.26-7.93-2.2-6.81-2.52-11.85-6.39-13.95-10.92-.61-1.25-.93-2.55-1.05-3.91-.08.52-.12,1.03-.12,1.56,0,1.68.42,3.27,1.17,4.8,2.1,4.53,7.14,8.4,13.95,10.92,2.43.93,5.09,1.68,7.93,2.19,3.27.61,6.77.93,10.4.93,6.77,0,13.06-1.17,18.33-3.12,6.81-2.52,11.85-6.39,13.9-10.96.8-1.54,1.17-3.18,1.17-4.85,0-.47-.06-.93-.12-1.39-.12,1.3-.42,2.58-1.04,3.78Z"/>
        </g>
      </g>
      <g>
        <path class="cls-8" d="M181.95,96.45c0-19.68-18.78-35.63-41.94-35.63s-41.94,15.95-41.94,35.63c0,2.24.66,5.26,1.51,8.28l4.25,16.42c.23,1.27.56,2.51.96,3.73l.05.18h.01c4.42,12.95,18.48,22.43,35.15,22.43s30.73-9.47,35.15-22.43h.08l5.23-19.86s1.48-6.38,1.48-8.74Z"/>
        <path class="cls-21" d="M101.22,95.78c0-17.87,18.05-30.74,38.55-30.74s39.05,14.49,39.05,32.36-18.56,30.67-39.05,30.67-38.55-14.43-38.55-32.3Z"/>
        <path class="cls-15" d="M139.77,75.22c19.92,0,38.01,13.69,39,30.88.03-.49.05-.98.05-1.48,0-17.87-18.56-32.36-39.05-32.36s-38.55,12.86-38.55,30.74c0,.5.02.99.05,1.49.97-17.1,18.58-29.25,38.5-29.25Z"/>
        <path class="cls-15" d="M139.77,69.71c19.92,0,38.01,13.69,39,30.88.03-.49.05-.98.05-1.48,0-17.87-18.56-32.36-39.05-32.36s-38.55,12.86-38.55,30.74c0,.5.02.99.05,1.49.97-17.1,18.58-29.25,38.5-29.25Z"/>
        <path class="cls-15" d="M139.77,80.29c19.35,0,36.91,13.3,37.87,29.98.03-.48.05-.96.05-1.44,0-17.36-18.02-31.43-37.92-31.43s-37.43,12.49-37.43,29.85c0,.48.02.96.05,1.44.94-16.6,18.04-28.41,37.39-28.41Z"/>
        <path class="cls-15" d="M139.78,85.65c18.62,0,35.51,12.61,36.44,28.44.03-.45.04-.91.04-1.36,0-16.46-17.34-29.81-36.49-29.81s-36.02,11.85-36.02,28.31c0,.46.02.91.04,1.37.9-15.75,17.36-26.94,35.98-26.94Z"/>
        <ellipse class="cls-15" cx="140.02" cy="116.38" rx="33.59" ry="28.53"/>
        <rect class="cls-4" x="136.3" y="68.76" width="7.35" height="25.31"/>
        <rect class="cls-4" x="138.15" y="70.47" width="3.65" height="21.84"/>
        <g>
          <path class="cls-16" d="M144.28,124.05l-4.23.64-4.23-.64v-.89c.02-.49.51-.89,1.11-.89h6.24c.6,0,1.1.4,1.1.89v.89Z"/>
          <path class="cls-16" d="M140.05,129.96c-13.47,0-23.78-8.86-23.01-19.12.69-9.24,10.23-16.49,21.73-16.99l1.23-.05h-.01s.07,0,.07,0h.07s-.01,0-.01,0l1.23.05c11.5.5,21.04,7.75,21.73,16.99.76,10.26-9.54,19.12-23.01,19.12ZM137.82,94.42c-10.7.83-19.43,7.72-20.06,16.42-.71,9.92,9.26,18.48,22.29,18.48s23-8.56,22.29-18.48c-.63-8.7-9.36-15.59-20.06-16.42.35.34.54.76.54,1.21.01,1.14-1.23,2.07-2.77,2.07s-2.78-.93-2.77-2.07c0-.44.2-.86.54-1.21ZM140.05,93.83l-1.08.5c-.62.28-.99.77-.99,1.31,0,.85.93,1.55,2.08,1.55s2.08-.7,2.08-1.55c0-.53-.38-1.02-.99-1.31l-1.08-.5Z"/>
          <path class="cls-16" d="M140.05,128.69c-12.57,0-22.23-8.25-21.56-17.84.55-7.89,8.02-14.36,17.71-15.73l.45-.06-.05.34c-.01.08-.02.16-.02.24-.02,1.43,1.54,2.6,3.46,2.6s3.48-1.17,3.46-2.6c0-.08,0-.16-.02-.24l-.05-.34.45.06c9.69,1.37,17.16,7.84,17.71,15.73.67,9.59-8.99,17.84-21.56,17.84ZM135.9,95.69c-9.16,1.45-16.17,7.65-16.68,15.16-.62,9.26,8.71,17.21,20.83,17.21s21.45-7.95,20.83-17.21c-.51-7.51-7.51-13.71-16.68-15.16-.02,1.69-1.86,3.07-4.15,3.07s-4.14-1.38-4.15-3.07Z"/>
          <path class="cls-16" d="M140.05,127.42c-11.68,0-20.68-7.65-20.1-16.57.45-6.9,6.64-12.75,14.99-14.46l.34-.07.09.25c.55,1.59,2.48,2.71,4.69,2.71s4.14-1.12,4.69-2.71l.09-.25.34.07c8.35,1.71,14.54,7.55,14.99,14.46.58,8.92-8.43,16.57-20.1,16.57ZM134.78,96.96c-7.89,1.73-13.7,7.32-14.11,13.89-.54,8.59,8.14,15.94,19.38,15.94s19.91-7.35,19.38-15.94c-.41-6.57-6.22-12.15-14.11-13.89-.73,1.68-2.85,2.85-5.27,2.85s-4.53-1.17-5.27-2.85Z"/>
          <path class="cls-16" d="M140.05,126.16c-10.79,0-19.15-7.05-18.65-15.31.36-6.05,5.48-11.27,12.67-13.17l.29-.08.14.2c1.07,1.56,3.2,2.54,5.56,2.54s4.49-.98,5.56-2.54l.14-.2.29.08c7.19,1.9,12.31,7.12,12.67,13.17.5,8.26-7.86,15.31-18.65,15.31ZM134.01,98.24c-6.77,1.89-11.56,6.86-11.89,12.6-.46,7.93,7.57,14.69,17.92,14.69s18.38-6.76,17.92-14.69c-.33-5.74-5.12-10.71-11.89-12.6-1.22,1.62-3.51,2.63-6.03,2.63s-4.81-1.01-6.03-2.63Z"/>
          <path class="cls-16" d="M140.05,124.91c-9.91,0-17.62-6.46-17.19-14.07.29-5.28,4.48-9.89,10.6-11.87l.26-.08.16.17c1.42,1.47,3.73,2.35,6.17,2.35s4.75-.88,6.17-2.35l.16-.17.26.08c6.13,1.98,10.31,6.6,10.6,11.87.42,7.6-7.28,14.07-17.19,14.07ZM133.48,99.54c-5.73,1.95-9.63,6.32-9.89,11.3-.39,7.27,6.99,13.44,16.47,13.44s16.85-6.17,16.47-13.44c-.26-4.99-4.16-9.36-9.89-11.3-1.56,1.5-4,2.4-6.57,2.4s-5.01-.9-6.57-2.4Z"/>
          <path class="cls-22" d="M141.43,95.61c0,.57-.62,1.03-1.38,1.03s-1.39-.46-1.38-1.03.62-1.03,1.38-1.03,1.38.46,1.38,1.03Z"/>
          <path class="cls-16" d="M141.92,116.21c0,.83-.83,1.5-1.87,1.5s-1.88-.67-1.87-1.5.84-1.49,1.87-1.49,1.87.66,1.87,1.49Z"/>
          <path class="cls-16" d="M140.05,110.31c-3.5,0-5.06,2.08-5.12,2.16-.38.52-.16,1.19.5,1.48.21.1.45.14.68.14.48,0,.96-.2,1.21-.56,0-.01.83-1.08,2.73-1.08s2.69,1.02,2.74,1.09c.26.35.73.55,1.21.55.23,0,.46-.05.68-.14.66-.3.89-.96.5-1.48-.07-.09-1.62-2.16-5.12-2.16Z"/>
          <path class="cls-16" d="M140.05,105.76c-6.11,0-8.84,3.54-8.96,3.69-.38.51-.17,1.16.48,1.45.21.1.44.14.67.14.48,0,.94-.19,1.2-.54.08-.11,2.08-2.65,6.6-2.65s6.51,2.53,6.6,2.65c.26.35.73.54,1.21.54.23,0,.46-.04.67-.14.65-.29.87-.94.48-1.46-.11-.15-2.84-3.69-8.96-3.69Z"/>
          <path class="cls-16" d="M145.93,101.47l-6.86-5.13c-.54-.4-.53-1.06,0-1.46h0c.54-.4,1.41-.4,1.95,0l6.86,5.08c.56.41.58,1.09.04,1.51h0c-.54.42-1.44.42-2,0Z"/>
        </g>
        <path class="cls-11" d="M139.71,125.53c-16.98,0-32.57-9.46-40.78-22.63.15.61.31,1.21.48,1.83l4.25,16.42c.23,1.27.56,2.51.96,3.73l.05.18h.01c4.42,12.95,18.48,22.43,35.15,22.43s30.84-8.98,35.26-21.93l.42-1.27,5.37-21.39c-8.56,11.96-24.7,22.65-41.18,22.65Z"/>
        <path class="cls-7" d="M179.85,95.65c-2.38,13.99-10.86,20.07-16.65,23.11-6.51,3.42-14.57,5.02-23.1,5.02-4.59,0-8.99-.53-13.11-1.5-3.59-.82-6.94-2.02-10-3.52-8.58-4.05-16.1-13.37-15.71-21.91.09-2.05-3.32-1.4-3.32-.49,0,2.7.51,4.47,1.45,6.94,2.65,7.27,8.99,13.49,17.58,17.54,3.06,1.5,6.41,2.7,10,3.52,4.11.97,8.52,1.5,13.11,1.5,8.52,0,16.46-1.88,23.1-5.02,8.58-4.05,14.91-9.79,17.5-17.14,1-2.47,1.22-5.58,1.22-8.28,0-.85-1.32-1.65-2.07.22Z"/>
      </g>
      <g>
        <circle class="cls-24" cx="130.57" cy="40.86" r="4.95"/>
        <path class="cls-24" d="M144.85,45.22c-.9.03-1.7-.28-2.41-.93-.58-.54-1.07-1.43-1.1-2.33-.23-6.55-5.84-11.77-12.5-11.65-1.81.06-3.32-1.35-3.39-3.16-.06-1.81,1.35-3.32,3.16-3.39,10.16-.36,18.92,7.81,19.27,17.97.18,1.91-1.24,3.43-3.04,3.5h0Z"/>
        <path class="cls-24" d="M156.36,44.82c-.9.03-1.7-.28-2.41-.93-.58-.54-1.07-1.43-1.1-2.33-.46-13.09-11.32-23.22-24.41-22.76-1.81.06-3.32-1.35-3.39-3.16-.06-1.81,1.35-3.32,3.16-3.39,16.7-.58,30.6,12.38,31.19,29.08.18,1.91-1.24,3.43-3.04,3.5h0Z"/>
        <path class="cls-24" d="M171.03,41.03c.06,1.81-1.35,3.32-3.16,3.39-.9.03-1.7-.28-2.41-.93-.58-.54-1.07-1.43-1.1-2.33-.68-19.41-16.92-34.55-36.33-33.87-1.81.06-3.32-1.35-3.39-3.16-.06-1.81,1.35-3.32,3.16-3.39,11.06-.39,21.71,3.65,29.77,11.16,8.4,7.62,13.06,18.07,13.45,29.13h0Z"/>
      </g>
      <g>
        <path class="cls-17" d="M78.56,24.8s2.19.25,3.91,1.37c1.72,1.12,17.25,9.63,19.6,22.16,2.35,12.53-15.16,31.37-23.51,27.05V24.8Z"/>
        <path class="cls-19" d="M92.57,32.61l-2.38,2.79.1,1.88c.5-.7,1.52-1.54,2.27-2.13.54-.43,1.32-.38,1.8.12l.13.13s4.97-3.25,6.95-14.63l-8.85,11.83Z"/>
        <g>
          <g>
            <polygon class="cls-20" points="90.37 35.73 93.66 31.76 90.37 29.5 90.37 35.73"/>
            <path class="cls-13" d="M101.91,17.35c-.19,2.28-.68,4.58-1.38,6.68,0,.01,0,.02,0,.04-1.78,5.34-4.84,9.36-7.39,8.35-.73-.29-1.37-.62-1.91-1-2.13-1.43-3.05-3.47-3.88-6.18,0,0-2.3.81-2.9-2.46-.59-3.27,1.64-3.79,2.97.22,0,0,1.27.37,1.48-.89.22-1.27,1.04-4.76,1.04-4.76,0,0,3.27,1.48,5.8-.97,2.53-2.45,6.17.97,6.17.97Z"/>
            <path class="cls-20" d="M100.52,24.03c.33-1.66-.41-3.61-2.83-3.07-2.67.6-6.49,6.94-6.48,10.45-2.13-1.43-3.05-3.47-3.88-6.18,0,0-2.3.81-2.9-2.46-.59-3.27,1.64-3.79,2.97.22,0,0,1.27.37,1.48-.89.22-1.27,1.04-4.76,1.04-4.76,0,0,3.27,1.48,5.8-.97,2.53-2.45,6.17.97,6.17.97-.19,2.28-.68,4.58-1.38,6.68Z"/>
          </g>
          <path class="cls-17" d="M90.31,37.86s-.07-13.46,4.01-18.67c4.56-5.82,7.64-1.28,7.2,1.08-.97,5.19-3.14,11.97-7.05,15.14,0,0,4.64-2.85,7-13.38.71-3.19.83-5.27.17-7.12-2.05-5.78-8.89-8.25-13.33-6.85-5.87,1.86-8.31,11.06-5.83,18.12h0c.64.41,1.05,1.11,1.08,1.87.11,2.52.79,8.36,4.82,10.78l1.93-.97Z"/>
        </g>
        <path class="cls-19" d="M98.64,48.86s-3.89,0-11.26,6.21c-4.51,3.8-7.58,1.47-7.58-2.21v-27.81l-1.23-.24v40.9s2.75,1.31,5.72,1.6c2.97.28,3.92,3.54,3.92,3.54,0,0-.05-3.35-3.63-4.48-3.59-1.13.86-5.71.86-5.71h0c5.98-5.36,10.16-11.4,13.21-11.79Z"/>
      </g>
    </g>
  </g>
</svg>