<?xml version="1.0" encoding="UTF-8"?>
<svg id="_レイヤー_2" data-name="レイヤー 2" xmlns="http://www.w3.org/2000/svg" viewBox="0 0 801.13 301.13">
  <defs>
    <style>
      .cls-1 {
        stroke-dasharray: 0 0 1.41 1.41;
      }

      .cls-1, .cls-2, .cls-3, .cls-4, .cls-5, .cls-6, .cls-7, .cls-8, .cls-9, .cls-10 {
        stroke-miterlimit: 10;
      }

      .cls-1, .cls-3, .cls-4, .cls-5, .cls-6, .cls-8, .cls-9, .cls-10 {
        fill: none;
      }

      .cls-1, .cls-4, .cls-6 {
        stroke: #d3d3d3;
      }

      .cls-1, .cls-4, .cls-6, .cls-7 {
        stroke-width: .85px;
      }

      .cls-11 {
        letter-spacing: .05em;
      }

      .cls-12, .cls-13, .cls-14, .cls-15 {
        fill: #1a1a1a;
      }

      .cls-12, .cls-14, .cls-15 {
        font-family: SourceHanSansJP-Medium-83pv-RKSJ-H, 'Source Han Sans JP';
        font-weight: 500;
      }

      .cls-12, .cls-15, .cls-16 {
        font-size: 12.76px;
      }

      .cls-2 {
        stroke: #e5e7ed;
      }

      .cls-2, .cls-3, .cls-8, .cls-10 {
        stroke-width: 1.13px;
      }

      .cls-2, .cls-7 {
        fill: #fff;
      }

      .cls-17 {
        letter-spacing: -.02em;
      }

      .cls-3 {
        stroke-dasharray: 0 0 2.83 2.83;
      }

      .cls-3, .cls-8, .cls-10 {
        stroke: #f08300;
      }

      .cls-18 {
        letter-spacing: 0em;
      }

      .cls-19 {
        fill: #f08300;
      }

      .cls-20 {
        letter-spacing: -.13em;
      }

      .cls-21 {
        letter-spacing: -.06em;
      }

      .cls-5 {
        stroke-width: 1.7px;
      }

      .cls-5, .cls-9 {
        stroke: #1a1a1a;
      }

      .cls-22 {
        letter-spacing: -.03em;
      }

      .cls-23, .cls-14 {
        font-size: 11.34px;
      }

      .cls-23, .cls-24 {
        fill: #4673be;
      }

      .cls-23, .cls-16 {
        font-family: SourceHanSansJP-Bold-83pv-RKSJ-H, 'Source Han Sans JP';
        font-weight: 700;
      }

      .cls-25, .cls-15 {
        letter-spacing: .08em;
      }

      .cls-26 {
        letter-spacing: -.09em;
      }

      .cls-14 {
        letter-spacing: .08em;
      }

      .cls-27 {
        letter-spacing: -.09em;
      }

      .cls-28 {
        letter-spacing: 0em;
      }

      .cls-29 {
        letter-spacing: -.07em;
      }

      .cls-30 {
        letter-spacing: -.07em;
      }

      .cls-31 {
        letter-spacing: -.03em;
      }

      .cls-32 {
        letter-spacing: -.01em;
      }

      .cls-6 {
        stroke-dasharray: 0 0 1.41 1.41;
      }

      .cls-7 {
        stroke: #4673be;
      }

      .cls-8 {
        stroke-dasharray: 0 0 2.85 2.85;
      }

      .cls-33 {
        letter-spacing: -.12em;
      }

      .cls-9 {
        stroke-width: .57px;
      }

      .cls-34 {
        letter-spacing: -.12em;
      }

      .cls-35 {
        letter-spacing: -.04em;
      }

      .cls-36 {
        letter-spacing: -.05em;
      }

      .cls-37 {
        letter-spacing: -.04em;
      }

      .cls-38 {
        letter-spacing: -.02em;
      }

      .cls-39 {
        letter-spacing: .04em;
      }

      .cls-24, .cls-40 {
        stroke-width: 0px;
      }

      .cls-40 {
        fill: #fce6cc;
      }

      .cls-41 {
        letter-spacing: .02em;
      }
    </style>
  </defs>
  <g id="pc">
    <g>
      <rect class="cls-2" x=".57" y=".57" width="800" height="300" rx="6" ry="6"/>
      <g>
        <rect class="cls-40" x="354.38" y="30.65" width="165" height="215"/>
        <g>
          <polyline class="cls-10" points="519.38 244.23 519.38 245.65 517.97 245.65"/>
          <line class="cls-8" x1="515.12" y1="245.65" x2="357.22" y2="245.65"/>
          <polyline class="cls-10" points="355.8 245.65 354.38 245.65 354.38 244.23"/>
          <line class="cls-3" x1="354.38" y1="241.4" x2="354.38" y2="33.48"/>
          <polyline class="cls-10" points="354.38 32.07 354.38 30.65 355.8 30.65"/>
          <line class="cls-8" x1="358.65" y1="30.65" x2="516.54" y2="30.65"/>
          <polyline class="cls-10" points="517.97 30.65 519.38 30.65 519.38 32.07"/>
          <line class="cls-3" x1="519.38" y1="34.89" x2="519.38" y2="242.82"/>
        </g>
      </g>
      <g>
        <line class="cls-9" x1="621.26" y1="268.44" x2="535.42" y2="268.44"/>
        <line class="cls-9" x1="535.42" y1="260.94" x2="535.42" y2="275.94"/>
        <line class="cls-9" x1="779.94" y1="260.94" x2="779.94" y2="275.94"/>
        <line class="cls-9" x1="779.94" y1="268.44" x2="694.11" y2="268.44"/>
      </g>
      <g>
        <line class="cls-9" x1="372.79" y1="268.44" x2="353.02" y2="268.44"/>
        <line class="cls-9" x1="353.02" y1="260.94" x2="353.02" y2="275.94"/>
        <line class="cls-9" x1="515.09" y1="260.94" x2="515.09" y2="275.94"/>
        <line class="cls-9" x1="515.09" y1="268.44" x2="496.46" y2="268.44"/>
      </g>
      <g>
        <line class="cls-9" x1="235.57" y1="268.44" x2="215.8" y2="268.44"/>
        <line class="cls-9" x1="215.8" y1="260.94" x2="215.8" y2="275.94"/>
        <line class="cls-9" x1="337.78" y1="260.94" x2="337.78" y2="275.94"/>
        <line class="cls-9" x1="337.78" y1="268.44" x2="319.14" y2="268.44"/>
      </g>
      <g>
        <line class="cls-9" x1="83.01" y1="268.44" x2="24.37" y2="268.44"/>
        <line class="cls-9" x1="24.37" y1="260.94" x2="24.37" y2="275.94"/>
        <line class="cls-9" x1="199.74" y1="260.94" x2="199.74" y2="275.94"/>
        <line class="cls-9" x1="199.74" y1="268.44" x2="149.08" y2="268.44"/>
      </g>
      <g>
        <line class="cls-4" x1="779.94" y1="36.14" x2="779.23" y2="36.14"/>
        <line class="cls-1" x1="777.82" y1="36.14" x2="25.78" y2="36.14"/>
        <line class="cls-4" x1="25.08" y1="36.14" x2="24.37" y2="36.14"/>
      </g>
      <text class="cls-14" transform="translate(45.73 236.82)"><tspan x="0" y="0">1月</tspan></text>
      <text class="cls-14" transform="translate(109.32 236.82)"><tspan x="0" y="0">2月</tspan></text>
      <text class="cls-15" transform="translate(89.94 273.53)"><tspan x="0" y="0">早期購入</tspan></text>
      <text class="cls-12" transform="translate(235.91 273.53)"><tspan class="cls-25" x="0" y="0">流通及</tspan><tspan class="cls-11" x="41.33" y="0">び</tspan><tspan class="cls-25" x="54.66" y="0">拡散</tspan></text>
      <text class="cls-12" transform="translate(377.54 273.53)"><tspan class="cls-39" x="0" y="0">モ</tspan><tspan class="cls-38" x="13.25" y="0">ニ</tspan><tspan class="cls-29" x="25.82" y="0">タ</tspan><tspan class="cls-27" x="37.66" y="0">リ</tspan><tspan class="cls-28" x="49.33" y="0">ン</tspan><tspan class="cls-18" x="62.16" y="0">グ</tspan><tspan class="cls-25" x="74.97" y="0">取</tspan><tspan class="cls-41" x="88.74" y="0">締</tspan><tspan class="cls-31" x="101.74" y="0">り</tspan></text>
      <text class="cls-15" transform="translate(624.15 273.53)"><tspan x="0" y="0">注文上昇</tspan></text>
      <text class="cls-14" transform="translate(172.9 236.82)"><tspan x="0" y="0">3月</tspan></text>
      <text class="cls-14" transform="translate(236.48 236.82)"><tspan x="0" y="0">4月</tspan></text>
      <text class="cls-14" transform="translate(300.07 236.82)"><tspan x="0" y="0">5月</tspan></text>
      <text class="cls-14" transform="translate(363.65 236.82)"><tspan x="0" y="0">6月</tspan></text>
      <text class="cls-14" transform="translate(427.23 236.82)"><tspan x="0" y="0">7月</tspan></text>
      <text class="cls-14" transform="translate(490.81 236.82)"><tspan x="0" y="0">8月</tspan></text>
      <text class="cls-14" transform="translate(554.4 236.82)"><tspan x="0" y="0">9月</tspan></text>
      <text class="cls-14" transform="translate(614.3 236.82)"><tspan x="0" y="0">10月</tspan></text>
      <text class="cls-14" transform="translate(677.88 236.82)"><tspan x="0" y="0">11月</tspan></text>
      <text class="cls-14" transform="translate(741.46 236.82)"><tspan x="0" y="0">12月</tspan></text>
      <rect class="cls-7" x="19.63" y="22.23" width="110" height="25"/>
      <text class="cls-23" transform="translate(27.09 39.17)"><tspan x="0" y="0">HiddenTag注文量</tspan></text>
      <rect class="cls-24" x="739.92" y="36.14" width="25" height="184.66"/>
      <rect class="cls-24" x="674.98" y="73.03" width="25" height="147.78"/>
      <rect class="cls-24" x="613.17" y="130.4" width="25" height="90.4"/>
      <rect class="cls-24" x="548.49" y="165.95" width="25" height="54.85"/>
      <rect class="cls-24" x="484.98" y="215.8" width="25" height="5"/>
      <rect class="cls-24" x="422.3" y="215.8" width="25" height="5"/>
      <rect class="cls-24" x="359.62" y="215.8" width="25" height="5"/>
      <rect class="cls-24" x="296.94" y="215.8" width="25" height="5"/>
      <rect class="cls-24" x="234.25" y="213.9" width="25" height="6.9"/>
      <rect class="cls-24" x="170.12" y="213" width="25" height="7.8"/>
      <rect class="cls-24" x="105.98" y="204.57" width="25" height="16.24"/>
      <rect class="cls-24" x="43.3" y="204.57" width="25" height="16.24"/>
      <line class="cls-5" x1="779.94" y1="220.8" x2="24.37" y2="220.8"/>
      <g>
        <line class="cls-4" x1="779.94" y1="183.87" x2="779.23" y2="183.87"/>
        <line class="cls-6" x1="777.82" y1="183.87" x2="25.78" y2="183.87"/>
        <line class="cls-4" x1="25.08" y1="183.87" x2="24.37" y2="183.87"/>
      </g>
      <g>
        <line class="cls-4" x1="779.94" y1="146.94" x2="779.23" y2="146.94"/>
        <line class="cls-6" x1="777.82" y1="146.94" x2="25.78" y2="146.94"/>
        <line class="cls-4" x1="25.08" y1="146.94" x2="24.37" y2="146.94"/>
      </g>
      <g>
        <line class="cls-4" x1="779.94" y1="110.01" x2="779.23" y2="110.01"/>
        <line class="cls-6" x1="777.82" y1="110.01" x2="25.78" y2="110.01"/>
        <line class="cls-4" x1="25.08" y1="110.01" x2="24.37" y2="110.01"/>
      </g>
      <g>
        <line class="cls-4" x1="779.94" y1="73.08" x2="779.23" y2="73.08"/>
        <line class="cls-6" x1="777.82" y1="73.08" x2="25.78" y2="73.08"/>
        <line class="cls-4" x1="25.08" y1="73.08" x2="24.37" y2="73.08"/>
      </g>
      <text class="cls-16" transform="translate(399.44 103.55)"><tspan class="cls-13"><tspan x="0" y="0">HiddenTag</tspan></tspan><tspan class="cls-13"><tspan class="cls-32" x="-7.74" y="21.26">モ</tspan><tspan class="cls-35" x="4.84" y="21.26">ニ</tspan><tspan class="cls-34" x="17.02" y="21.26">タ</tspan><tspan class="cls-20" x="28.27" y="21.26">リ</tspan><tspan class="cls-36" x="39.41" y="21.26">ン</tspan><tspan class="cls-21" x="51.59" y="21.26">グ</tspan><tspan class="cls-22" x="63.58" y="21.26">を</tspan></tspan><tspan class="cls-13"><tspan class="cls-37" x="16.08" y="42.52">通</tspan><tspan class="cls-30" x="28.27" y="42.52">じ</tspan><tspan class="cls-17" x="40.11" y="42.52">た</tspan></tspan><tspan class="cls-19"><tspan x="3.8" y="63.78">取</tspan><tspan class="cls-26" x="16.56" y="63.78">締</tspan><tspan class="cls-33" x="28.1" y="63.78">り</tspan><tspan x="39.36" y="63.78">時点</tspan></tspan></text>
    </g>
  </g>
</svg>