<?xml version="1.0" encoding="UTF-8"?>
<svg id="_レイヤー_2" data-name="レイヤー 2" xmlns="http://www.w3.org/2000/svg" xmlns:xlink="http://www.w3.org/1999/xlink" viewBox="0 0 347.44 180.91">
  <defs>
    <style>
      .cls-1 {
        filter: url(#outer-glow-1);
      }

      .cls-1, .cls-2, .cls-3, .cls-4, .cls-5, .cls-6, .cls-7, .cls-8, .cls-9, .cls-10, .cls-11, .cls-12, .cls-13, .cls-14 {
        stroke-width: 0px;
      }

      .cls-1, .cls-14 {
        fill: #fff;
      }

      .cls-2 {
        opacity: .2;
      }

      .cls-2, .cls-13 {
        fill: #303e4c;
      }

      .cls-15 {
        fill: none;
        stroke: #1a2344;
        stroke-dasharray: 0 0 .85 .85;
        stroke-miterlimit: 10;
        stroke-width: .42px;
      }

      .cls-3 {
        fill: #f3f0ef;
      }

      .cls-4 {
        fill: #f3f9fa;
      }

      .cls-5 {
        fill: #4673be;
      }

      .cls-6 {
        fill: #344479;
      }

      .cls-7 {
        fill: #1a2344;
      }

      .cls-8 {
        fill: #418aa7;
      }

      .cls-9 {
        fill: #211815;
      }

      .cls-10 {
        fill: #c5ced5;
      }

      .cls-11 {
        fill: #d5dade;
      }

      .cls-12 {
        fill: #b2bdc2;
      }
    </style>
    <filter id="outer-glow-1" filterUnits="userSpaceOnUse">
      <feOffset dx="0" dy="0"/>
      <feGaussianBlur result="blur" stdDeviation="5"/>
      <feFlood flood-color="#4673be" flood-opacity=".75"/>
      <feComposite in2="blur" operator="in"/>
      <feComposite in="SourceGraphic"/>
    </filter>
  </defs>
  <g id="pc">
    <g>
      <g>
        <g>
          <ellipse class="cls-13" cx="153.85" cy="81.01" rx="14.78" ry="20.13"/>
          <path class="cls-3" d="M164.32,78.72s.09.02.14.02c1.22,0,2.22-1.41,2.22-3.14s-.99-3.14-2.22-3.14c-.07,0-.13.02-.19.03-.94-10.73-5.28-12.64-10.49-12.64s-9.66.51-10.52,12.61c0,0-.01,0-.02,0-1.22,0-2.22,1.41-2.22,3.14s.99,3.14,2.22,3.14c0,0,0,0,0,0,.41,2.5,1.8,4.7,3.79,6.24l-5.94,1.64,5.77,14.53h13.98l5.77-14.53-6.04-1.67c1.98-1.54,3.35-3.73,3.75-6.23Z"/>
          <path class="cls-2" d="M167.38,71.91c.64-2.77.31-8.26-3.21-10.32-.24-.43-.56-.85-.93-1.24-2.41-.92-5.4-1.47-9.1-1.47-4.28,0-7.61.73-10.18,1.92-.18.23-.35.47-.49.71-3.67,1.99-4.39,7.34-3.75,10.13-1.17.26-.22,2.97-.22,4.56,0,1.02.37,1.94.94,2.53,1.97-9.05,13.75-8.12,13.75-8.12,0,0,11.21-.88,13.59,7.48.29-.53.47-1.18.47-1.88,0-1.69.4-4.16-.87-4.3Z"/>
          <path class="cls-13" d="M161.36,84.84s-6.5,8.43-15.47,0l-2.86.94,10.76,14.24,11.46-14.11-3.89-1.06Z"/>
          <path class="cls-6" d="M178.87,89.67s-2.97-2.65-8.03-3.22l-1.8-1.95s.08-.47.17-1.29c1.67-3.29,2.74-7.6,2.59-8.88-.21-1.72-3.73-9.09-3.73-9.09v.02c-1.88-6.19-5.9-11.64-14.18-12.26-7.99.43-11.9,6.33-13.78,12.9-.86,1.83-3.25,7.03-3.42,8.44-.13,1.08.61,4.32,1.85,7.29.07,1.78.2,2.88.2,2.88l-.7.88c-5.39.67-8.45,4.29-8.45,4.29l-10.96,20.84,12.83,10.46,2.45-4.15,1.37,24.13,38.47.19.81-24.32,2.44,4.15,14.24-9.36-12.38-21.94ZM153.85,98.52s-14.25-14.35-12.23-24.62c1.74-8.84,12.28-7.94,12.28-7.94,0,0,10.53-.9,12.28,7.94,2.02,10.26-12.32,24.62-12.32,24.62Z"/>
          <path class="cls-13" d="M153.99,74.14c-8.55,0-10.83-1.26-10.83-1.26l-.13,2.92s2.17,2.38,3.35,3.33c1.18.95,3.79,1.6,5.68-.11,1.25-1.14,1.75-1.04,1.75-1.04,0,0,.5-.1,1.75,1.04,1.89,1.72,4.51,1.06,5.68.11,1.18-.95,2.87-3.22,2.87-3.22l.35-3.03s-1.93,1.26-10.47,1.26ZM151.51,77.28c-.18.83-1.36,1.28-2.63,1-1.27-.28-2.15-1.18-1.97-2.01.18-.83,1.36-1.28,2.63-1.01,1.27.28,2.15,1.18,1.97,2.01ZM158.75,78.29c-1.27.28-2.44-.17-2.63-1-.18-.83.7-1.73,1.97-2.01,1.27-.28,2.44.17,2.63,1.01.18.83-.7,1.73-1.97,2.01Z"/>
        </g>
        <path class="cls-13" d="M114.47,100.44h79.92c1.68,0,3.04,1.36,3.04,3.04v47.68c0,1.68-1.36,3.04-3.04,3.04h-79.92c-1.68,0-3.04-1.36-3.04-3.04v-47.68c0-1.68,1.36-3.04,3.04-3.04Z"/>
        <path class="cls-14" d="M159.22,119.48c-2.96-1.58-6.54-1.58-9.5,0-2.97,1.59-5.75,4.83-2.94,11.37,0,0-1.51,5.01,3.27,3.89,0,0,.77-.13.72,1.02v.69c0,.45.36.81.81.81h.02c.45,0,.81-.36.81-.81v-.67h1.26v.67c0,.45.36.81.81.81h.02c.45,0,.81-.36.81-.81v-.67h1.2v.67c0,.45.36.81.81.81h.02c.45,0,.81-.36.81-.81v-.67h.01v-.02c-.05-1.15.72-1.02.72-1.02,4.78,1.12,3.27-3.89,3.27-3.89,2.81-6.54.04-9.78-2.94-11.37ZM150.93,130.96c-1.15,0-2.07-.93-2.07-2.07s.93-2.07,2.07-2.07,2.07.93,2.07,2.07-.93,2.07-2.07,2.07ZM153.77,132.61c.04-.42.35-.75.72-.75s.68.32.72.75c.02.18.02.39.02.63,0,.37-.08.42-.21.35-.34-.17-.72-.17-1.06,0-.13.07-.21.02-.21-.35,0-.24,0-.45.02-.63ZM157.9,130.96c-1.15,0-2.07-.93-2.07-2.07s.93-2.07,2.07-2.07,2.07.93,2.07,2.07-.93,2.07-2.07,2.07Z"/>
      </g>
      <g>
        <path class="cls-5" d="M281.93,157.67s-.04-.03-.06-.05c-.16-.15-.38-.26-.67-.26h-15.23c-.57,0-1.03.47-1.04,1.04v15.23c0,.57.47,1.03,1.04,1.04h15.23c.57,0,1.03-.47,1.04-1.04v-15.23c0-.28-.11-.5-.25-.66-.02-.02-.03-.05-.05-.07ZM280.16,159.44v13.16h-13.16v-13.16h13.16Z"/>
        <path class="cls-5" d="M271.45,169.19h4.27c.57,0,1.03-.47,1.04-1.04v-4.26s0,0,0,0c0-.57-.47-1.04-1.04-1.04h-4.27c-.57,0-1.03.47-1.04,1.04v4.27c0,.57.47,1.03,1.04,1.04Z"/>
        <path class="cls-5" d="M281.93,132.59s-.04-.03-.06-.05c-.16-.15-.38-.26-.67-.26h-15.23c-.57,0-1.03.47-1.04,1.04v15.23c0,.57.47,1.03,1.04,1.04h15.23c.57,0,1.03-.47,1.04-1.04v-15.23c0-.28-.11-.5-.26-.66-.02-.02-.03-.05-.05-.07ZM280.16,134.36v13.16h-13.16v-13.16h13.16Z"/>
        <path class="cls-5" d="M287.45,148.55v-15.23c0-1.34-2.08-1.34-2.08,0v15.23c0,1.34,2.08,1.34,2.08,0Z"/>
        <path class="cls-5" d="M281.2,154.45c1.34,0,1.34-2.08,0-2.08h-15.23c-1.34,0-1.34,2.08,0,2.08h15.23Z"/>
        <path class="cls-5" d="M306.35,152.37h-8.35c-1.34,0-1.34,2.08,0,2.08h1.92v1.45c0,.28.11.54.3.74.41.41,1.06.41,1.47,0,.2-.2.31-.46.31-.74v-1.45h3.27v3.97c0,.57.47,1.04,1.04,1.04s1.04-.47,1.04-1.04v-4.94s0-.02,0-.03c.02-.53-.31-1.08-1-1.08Z"/>
        <path class="cls-5" d="M286.18,154.45h6.35v6.35c0,.57.47,1.03,1.04,1.04h6.35v6.37c0,1.34,2.08,1.34,2.08,0v-7.41c0-.57-.47-1.03-1.04-1.04h-6.35v-6.35c0-.57-.47-1.03-1.04-1.04h-7.39c-1.34,0-1.34,2.08,0,2.08Z"/>
        <path class="cls-5" d="M291.47,172.6h-3.99v-14.2c0-1.34-2.08-1.34-2.08,0v15.23c0,.57.47,1.03,1.04,1.04h5.03c1.34,0,1.34-2.08,0-2.08Z"/>
        <path class="cls-5" d="M305.31,162.97v9.62h-9.07c-1.34,0-1.34,2.08,0,2.08h10.11c.57,0,1.03-.47,1.04-1.04v-10.66c0-1.34-2.08-1.34-2.08,0Z"/>
        <path class="cls-5" d="M271.45,144.11h4.27c.57,0,1.03-.47,1.04-1.04v-4.27c0-.57-.47-1.04-1.04-1.04h-4.27c-.57,0-1.03.47-1.04,1.04v4.27c0,.57.47,1.03,1.04,1.04Z"/>
        <path class="cls-5" d="M307.67,132.65s-.03-.04-.04-.06c-.02-.02-.05-.04-.08-.06-.16-.15-.37-.25-.66-.25h-15.23c-.57,0-1.03.47-1.04,1.04v15.23c0,.57.47,1.03,1.04,1.04h15.23c.57,0,1.03-.47,1.04-1.04v-15.23c0-.29-.11-.51-.26-.67ZM305.85,134.36v13.16h-13.16v-13.16h13.16Z"/>
        <path class="cls-5" d="M297.14,144.11h4.27c.57,0,1.03-.47,1.04-1.04v-4.27c0-.57-.47-1.04-1.04-1.04h-4.27c-.57,0-1.03.47-1.04,1.04v4.27c0,.57.47,1.03,1.04,1.04Z"/>
        <path class="cls-5" d="M291.94,164.95c-.57,0-1.03.47-1.04,1.04v1.82c0,.57.47,1.03,1.04,1.04h4.04c.57,0,1.03-.47,1.04-1.04v-1.82c0-.57-.47-1.04-1.04-1.04h-4.04Z"/>
      </g>
      <g>
        <path class="cls-9" d="M41.51,40.77c0,2.79-2.25,5.04-5.04,5.04s-5.04-2.25-5.04-5.04,2.28-5.04,5.04-5.04,5.04,2.22,5.04,5.04ZM34.99,37.56v.87h1.18v5.53h.88v-6.4h-2.06Z"/>
        <path class="cls-9" d="M8.88,53.5v1.1h-3.48l-.02.31c-.18,2.57-1.11,4.05-4.42,4.7l-.51-1.08c2.06-.29,3.59-.86,3.69-3.63v-.3s-4.14,0-4.14,0v-1.1h8.88ZM7,50.76v1.08H.67v-1.08h6.33ZM7.5,51.84c-.02-.68-.1-1.01-.27-1.71l.78-.12c.17.57.28,1.1.34,1.67l-.85.16ZM8.8,51.6c-.05-.6-.2-1.23-.33-1.64l.73-.15c.1.29.21.63.37,1.63l-.78.16Z"/>
        <path class="cls-9" d="M16.67,50.38h1.17v2.08h1.86v1.12h-1.86v.68c0,1.27-.15,2.66-1.11,3.64-.41.43-1.5,1.34-3.73,1.6l-.52-1.11c1.82-.14,2.8-.77,3.17-1.08.91-.78,1.02-2.31,1.02-3.02v-.7h-3.17v2.72h-1.19v-2.72h-1.62v-1.12h1.62v-1.96h1.19v1.96h3.17v-2.08ZM18.5,51.57c-.06-.8-.08-.97-.22-1.69l.71-.1c.16.61.19.88.28,1.66l-.77.13ZM19.71,51.48c-.08-.82-.1-.91-.28-1.67l.75-.1c.14.51.27,1.14.3,1.66l-.78.11Z"/>
        <path class="cls-9" d="M27.02,59.59h-1.27v-4.82c-1.21.81-2.55,1.4-3.94,1.86l-.61-1.02c1.44-.47,4.59-1.51,7.68-5.24l1.15.7c-.42.43-1.54,1.62-3.02,2.8v5.72Z"/>
        <path class="cls-9" d="M35.18,53.58c-.8-.58-2.12-1.23-3.21-1.56l.57-1.04c.94.27,1.86.57,3.3,1.46l-.66,1.15ZM32.07,57.97c3.98-.29,6.29-1.82,7.76-6.34l1.2.54c-1.56,4.54-3.86,6.55-8.57,7.14l-.39-1.34Z"/>
        <path class="cls-9" d="M46.24,50.36c-.03.24-.06.45-.17.95h4.33v1.1h-4.64c-.13.44-.26.69-.36.92.42-.18.7-.31,1.23-.31.93,0,1.39.37,1.7,1.23,1.04-.44,1.98-.69,2.55-.85l.27,1.19c-.49.11-1.3.3-2.61.77.05.49.05,1.03.03,1.98h-1.19c.03-.28.04-.44.04-.8,0-.3-.01-.51-.02-.7-.48.23-1.75.86-1.75,1.65,0,.9,1.2.9,2.22.9.14,0,1.21,0,2.66-.12v1.15c-.8.03-1.69.05-2.49.05-1.16,0-2.25-.02-2.99-.61-.2-.16-.67-.61-.67-1.34,0-1.08,1.05-1.85,2.88-2.81-.11-.33-.27-.65-.83-.65-.95,0-1.88.85-2.21,1.33-.66.97-.73,1.07-1.23,1.67l-.87-.9c1.07-1.05,1.91-2.33,2.4-3.75h-2.14v-1.1h2.45c.1-.49.12-.73.14-1.04l1.27.1Z"/>
        <path class="cls-9" d="M56.6,52.24c-.1.11-.13.14-.28.29l-.79-.62v.6c-.13.64-.49,1.29-.82,1.8.37.71.71,1.14,1.2,1.63l-.58.85c-.15-.2-.38-.5-.81-1.33v4.48h-1.02v-4.05c-.39.4-.63.57-.89.77l-.44-1.06c1.43-1.05,2.15-2.24,2.39-3.07h-2.21v-1.01h1.15v-1.54h1.02v1.54h1.01v.33c.6-.58,1.1-1.24,1.47-1.99l1,.3c-.13.24-.19.36-.29.52h4.69v.88h-5.24c-.11.15-.21.29-.4.52h5.13v3.59h-3.29c-.11.19-.21.36-.38.6h3.42v.76c-.27.34-.69.91-1.55,1.47,1.05.33,1.88.39,2.47.44l-.31,1.02c-1.13-.14-2.23-.42-3.25-.89-1.48.61-2.71.81-3.66.89l-.3-1.03c1.49-.01,2.34-.23,2.92-.43-.24-.16-.66-.43-1.11-.9-.6.44-.94.58-1.27.72l-.5-.87c.39-.14,1.61-.55,2.39-1.77h-.88v-1.86c-.43.75-.68,1.04-.84,1.22l-.65-.48c.4-.47.7-1.04.78-1.18l.71.43v-1.54ZM57.51,57.06c.35.31.79.64,1.48.98.68-.37,1.06-.73,1.34-.98h-2.82ZM57.62,52.81v.65h3.23v-.65h-3.23ZM57.62,54.17v.73h3.23v-.73h-3.23Z"/>
        <path class="cls-9" d="M64.3,58.87c.57-.01.98-.02,1.57-.06v-.8c-1.12.4-1.77.49-2.16.53l-.38-.99c.97-.05,2.35-.3,3.52-.91h-3.38v-.93h4.59v-.51h-.64l-.21-.77h.78c.1,0,.13-.06.13-.15v-.46h-1.32v1.5h-.93v-1.5h-1.18v1.39h-.89v-2.15h2.07v-.4h-2.54v-.81h.87l-.67-.41c.41-.45.77-.97.97-1.55l.93.21c-.15.32-.17.36-.22.46h.67v-.63h.93v.63h2.17v.81h-2.17v.49h2.58v.81h-2.58v.4h2.17v1.29c0,.07,0,.33-.17.57h.39v.78h4.08v.93h-1.02l.64.48c-.55.46-.85.65-1.53,1.07.94.46,1.57.57,2.1.67l-.51,1.03c-2.29-.5-4-1.96-4.62-3.19-.22.18-.61.5-1.53.94v1.1c1.22-.1,1.92-.18,2.39-.23v.89c-1.9.24-2.61.34-4.78.46l-.12-.98ZM65.87,51.87v-.49h-1.12c-.19.27-.38.45-.43.49h1.54ZM69.38,56.64c.12.18.31.5,1.04,1.01.58-.37,1.05-.75,1.36-1.01h-2.4ZM69.82,50.4h1.02v3.18h-1.02v-3.18ZM71.87,49.94h1.07v4.41c0,.57-.35.87-.82.87h-1.25l-.24-1h.94c.28,0,.31-.12.31-.3v-3.99Z"/>
      </g>
      <g>
        <g>
          <rect class="cls-7" x="13.24" y="69.15" width="54.49" height="110.99" rx="7.69" ry="7.69"/>
          <path class="cls-8" d="M60.04,69.15c4.24,0,7.69,3.45,7.69,7.69v95.61c0,4.24-3.45,7.69-7.69,7.69H20.92c-4.24,0-7.69-3.45-7.69-7.69v-95.61c0-4.24,3.45-7.69,7.69-7.69h39.11M60.04,68.38H20.92c-4.66,0-8.46,3.79-8.46,8.46v95.61c0,4.66,3.79,8.46,8.46,8.46h39.11c4.66,0,8.46-3.79,8.46-8.46v-95.61c0-4.66-3.79-8.46-8.46-8.46h0Z"/>
          <path class="cls-4" d="M64.65,76.84v95.61c0,2.55-2.06,4.61-4.61,4.61H20.93c-2.55,0-4.61-2.06-4.61-4.61v-95.61c0-2.55,2.06-4.61,4.61-4.61h5.68c.15,0,.27.12.27.27v1.07c0,1.34,1.08,2.42,2.42,2.42h22.37c1.34,0,2.42-1.08,2.42-2.42v-1.07c0-.15.12-.27.27-.27h5.68c2.55,0,4.61,2.06,4.61,4.61Z"/>
        </g>
        <g>
          <rect class="cls-12" x="19.25" y="134.35" width="22.78" height="22.36"/>
          <rect class="cls-11" x="44.23" y="134.35" width="18.73" height="3.48"/>
          <rect class="cls-11" x="44.23" y="139.64" width="18.73" height="3.48"/>
          <rect class="cls-11" x="44.23" y="144.83" width="18.73" height="3.48"/>
          <rect class="cls-11" x="19.25" y="159.93" width="43.71" height="4.67"/>
          <rect class="cls-12" x="19.25" y="166.77" width="43.71" height="2.02"/>
          <rect class="cls-10" x="19.25" y="122.16" width="43.71" height="4.67"/>
          <rect class="cls-12" x="19.25" y="129.01" width="43.71" height="2.02"/>
          <rect class="cls-12" x="19.25" y="95.7" width="22.78" height="22.36"/>
          <rect class="cls-11" x="44.23" y="95.7" width="18.73" height="3.48"/>
          <rect class="cls-11" x="44.23" y="100.99" width="18.73" height="3.48"/>
          <rect class="cls-11" x="44.23" y="106.18" width="18.73" height="3.48"/>
          <rect class="cls-11" x="19.25" y="83.52" width="43.71" height="4.67"/>
          <rect class="cls-12" x="19.25" y="90.36" width="43.71" height="2.02"/>
        </g>
      </g>
      <path class="cls-15" d="M76.23,85.39c2.28-13.5,14.97-16.74,21.56-13.69,5.72,2.65,8.24,10.72,4.34,15.67-.84,1.06-2.06,2.01-3.41,1.86-1.55-.17-2.63-1.83-2.58-3.39.05-1.56.99-2.97,2.1-4.06,3.86-3.77,10.18-4.45,15.05-2.13,4.87,2.32,8.23,7.26,9.26,12.56"/>
      <path class="cls-15" d="M235.87,85.39c-2.28-13.5-14.97-16.74-21.56-13.69-5.72,2.65-8.24,10.72-4.34,15.67.84,1.06,2.06,2.01,3.41,1.86,1.55-.17,2.63-1.83,2.58-3.39-.05-1.56-.99-2.97-2.1-4.06-3.86-3.77-10.18-4.45-15.05-2.13-4.87,2.32-8.23,7.26-9.26,12.56"/>
      <path class="cls-15" d="M235.87,135.08c-2.28,13.5-14.97,16.74-21.56,13.69-5.72-2.65-8.24-10.72-4.34-15.67.84-1.06,2.06-2.01,3.41-1.86,1.55.17,2.63,1.83,2.58,3.39-.05,1.56-.99,2.97-2.1,4.06-3.86,3.77-10.18,4.45-15.05,2.13-4.87-2.32-8.23-7.26-9.26-12.56"/>
      <path class="cls-1" d="M318.08,37.3c8.29,2.53,13.81,9.61,13.81,17.46,0,9.87-9.12,17.97-19.89,17.97h-58.57c-11.05,0-19.89-8.1-19.89-17.97s7.46-17.21,17.68-18.22c1.1-6.33,5.53-11.39,11.88-13.66,6.08-2.28,12.98-1.77,18.23,1.52,4.97-8.35,15.19-10.88,24.31-7.84,9.39,3.29,14.92,11.64,12.43,20.75h0Z"/>
      <g>
        <path class="cls-9" d="M289.98,32.86c0,2.79-2.25,5.04-5.04,5.04s-5.04-2.25-5.04-5.04,2.28-5.04,5.04-5.04,5.04,2.22,5.04,5.04ZM285.63,33.35c.86-.36,1-.87,1-1.95,0-1.48-.58-1.81-1.7-1.81-1.64,0-1.67,1.02-1.66,2.2h.83v-.18c0-.72.03-1.15.86-1.15.69,0,.84.34.84,1.08s-.22.95-.69,1.14l-.75.31c-1,.4-1.14.83-1.11,3.06h3.36v-.87h-2.54c0-1.13.2-1.27.7-1.48l.86-.36Z"/>
        <path class="cls-9" d="M261.73,49.2v2.83h-1.05v-5.03c-.15.21-.28.36-.49.61l-.5-1.25c.54-.69,1.17-1.62,1.55-4.31l1.19.11c-.1.54-.26,1.44-.7,2.75v4.19c.7-.49,2.21-1.56,2.98-4.69h-2.23v-.97h.93c-.15-.35-.29-.6-.56-1.05l.96-.32c.3.48.43.77.67,1.37h.46c.1-.47.15-.86.22-1.39l1.12.1c-.06.35-.1.58-.24,1.3h2.96l-.29,2.2h.64l-.27,2.1h.61c0,.18,0,3.08-.47,3.85-.29.46-.74.46-2.45.45l-.17-1c.58.01,1.2.03,1.35.03.43,0,.51-.02.63-1.12.02-.18.06-1.05.07-1.25h-4.83c-.53.65-1.01,1.04-1.4,1.34l-.67-.83ZM264.33,49.31c-.24,1.38-.62,2.08-.97,2.66l-.89-.44c.65-.85.83-1.41.99-2.36l.87.14ZM268.03,47.74l.16-1.17h-3.15c-.24.57-.45.94-.58,1.17h3.57ZM265.55,49.21c.02.23.15,1.79.17,2.33l-.92.06c.01-.17.02-.21.02-.37,0-.48-.05-1.5-.11-1.97l.83-.05ZM267.65,45.64l.16-1.23h-2.03c-.22.77-.24.85-.38,1.23h2.25ZM266.27,50.85c-.04-.49-.13-1.06-.27-1.61l.74-.12c.12.53.16.85.25,1.61l-.73.12ZM267.5,50.56c-.02-.08-.17-.86-.43-1.42l.62-.12c.06.14.39.97.51,1.36l-.7.18Z"/>
        <path class="cls-9" d="M277.52,42.39h1.22v2.06h1.83v1.11h-1.83v.87c0,.66-.12,2.65-1.48,3.81-1.06.89-2.65,1.21-3.45,1.35l-.5-1.11c1.03-.15,2.49-.43,3.34-1.29.79-.8.86-2.19.86-2.75v-.88h-3.4v2.77h-1.22v-2.77h-1.8v-1.11h1.8v-2h1.22v2h3.4v-2.06Z"/>
        <path class="cls-9" d="M287.62,51.68h-1.27v-4.82c-1.21.81-2.55,1.4-3.94,1.86l-.61-1.02c1.44-.47,4.59-1.51,7.68-5.24l1.15.7c-.42.43-1.54,1.62-3.02,2.8v5.72Z"/>
        <path class="cls-9" d="M294.35,42.4v2.72c2.58.73,4.61,1.89,5.32,2.31l-.57,1.22c-1.19-.71-3.29-1.89-4.74-2.27v5.4h-1.28v-9.39h1.28Z"/>
        <path class="cls-9" d="M304.86,42.45c-.03.24-.06.45-.17.95h4.33v1.1h-4.64c-.13.44-.26.69-.36.92.42-.18.7-.31,1.23-.31.93,0,1.39.37,1.7,1.23,1.04-.44,1.98-.69,2.55-.85l.27,1.19c-.49.11-1.3.3-2.61.77.05.49.05,1.03.03,1.98h-1.19c.03-.28.04-.44.04-.8,0-.3-.01-.51-.02-.7-.48.23-1.75.86-1.75,1.65,0,.9,1.2.9,2.22.9.14,0,1.21,0,2.66-.12v1.15c-.8.03-1.69.05-2.49.05-1.16,0-2.25-.02-2.99-.61-.2-.16-.67-.61-.67-1.34,0-1.08,1.05-1.85,2.88-2.81-.11-.33-.27-.65-.83-.65-.95,0-1.88.85-2.21,1.33-.66.97-.73,1.07-1.23,1.67l-.87-.9c1.07-1.05,1.91-2.33,2.4-3.75h-2.14v-1.1h2.45c.1-.49.12-.73.14-1.04l1.27.1Z"/>
        <path class="cls-9" d="M250.42,56.56h1.22v2.06h1.83v1.11h-1.83v.87c0,.66-.12,2.65-1.48,3.81-1.06.89-2.65,1.21-3.45,1.35l-.5-1.11c1.03-.15,2.49-.43,3.34-1.29.79-.8.86-2.19.86-2.75v-.88h-3.4v2.77h-1.22v-2.77h-1.8v-1.11h1.8v-2h1.22v2h3.4v-2.06Z"/>
        <path class="cls-9" d="M264.45,60.49v1.29h-9.44v-1.29h9.44Z"/>
        <path class="cls-9" d="M265.71,64.7c1.08-1.35,2.07-3.18,2.32-7.57l1.2.1c-.35,5.06-1.3,6.79-2.55,8.36l-.97-.88ZM272.78,57.1c.11,2.12.7,5.27,2.69,7.65l-1.1.83c-1.03-1.32-2.4-3.49-2.75-8.35l1.16-.13ZM273.64,58.38c-.16-1.04-.37-1.56-.49-1.87l.84-.19c.23.58.37,1.05.52,1.83l-.87.23ZM275.04,58.07c-.21-.9-.3-1.18-.53-1.75l.81-.21c.15.38.38,1.02.54,1.77l-.82.2Z"/>
        <path class="cls-9" d="M286.26,60.49v1.29h-9.44v-1.29h9.44Z"/>
        <path class="cls-9" d="M289.66,56.85c-.27,1.63-.43,3.27-.43,4.91,0,1.28.08,2.59.4,3.83l-1.18.15c-.31-1.24-.4-2.56-.4-3.92,0-.57.02-2.28.39-5.07l1.21.11ZM292.27,61.5c-.23.37-.49.84-.49,1.38,0,1.14,1.2,1.14,2.54,1.14,1.08,0,1.7-.07,2.1-.13v1.18c-.7.06-1.51.06-1.95.06-1.39,0-3.79,0-3.79-2.21,0-.83.36-1.46.61-1.86l.98.44ZM296.24,57.47v1.11h-5.26v-1.11h5.26Z"/>
        <path class="cls-9" d="M307.09,57.01c-.46,2.87-2.07,3.98-3.18,4.56l-.8-.96c.71-.32,1.78-.88,2.34-2.48h-7.49v-1.13h9.12ZM298.36,64.78c1.89-.73,3.18-1.89,3.2-5.66l1.3.03c-.12,3.82-1.47,5.47-3.73,6.56l-.77-.94Z"/>
        <path class="cls-9" d="M309.23,62.11c-.16-.88-.43-1.68-.82-2.5l1-.3c.5,1.02.71,1.64.91,2.53l-1.1.27ZM309.24,64.88c3.38-.63,4.54-2.15,5.2-5.8l1.15.2c-.56,2.58-1.21,5.52-5.88,6.57l-.47-.98ZM311.5,61.72c-.17-1.19-.46-1.93-.7-2.5l1.01-.26c.48.93.67,1.85.76,2.49l-1.06.27Z"/>
        <path class="cls-9" d="M318.05,64.51c4.13-.67,5.56-2.45,6.01-5.97h-6.89v-1.14h7.12c-.01-.05-.03-.12-.03-.22,0-.61.5-1.11,1.11-1.11s1.11.5,1.11,1.11c0,.57-.44,1.1-1.11,1.11-.13,1.28-.54,2.96-1.17,4.01-1.16,1.95-3.33,2.92-5.55,3.38l-.58-1.17ZM324.85,57.19c0,.29.23.51.51.51s.51-.22.51-.51-.22-.51-.51-.51-.51.22-.51.51Z"/>
      </g>
      <g>
        <path class="cls-9" d="M289.98,99.5c0,2.79-2.25,5.04-5.04,5.04s-5.04-2.25-5.04-5.04,2.28-5.04,5.04-5.04,5.04,2.22,5.04,5.04ZM283.24,100.61c0,1.23.01,2.15,1.72,2.15,1.15,0,1.68-.46,1.68-1.82s-.58-1.49-.87-1.55c.7-.24.82-.79.82-1.45,0-1.29-.55-1.71-1.65-1.71-1.51,0-1.68.84-1.68,2h.86c-.01-.62-.01-1.13.82-1.13.79,0,.82.5.82,1,0,.86-.47.88-.94.88h-.51v.84h.47c.79,0,1.02.18,1.02,1.02s-.29,1.05-.87,1.05c-.88,0-.86-.48-.84-1.29h-.85Z"/>
        <path class="cls-9" d="M241.73,115.84v2.83h-1.05v-5.03c-.15.21-.28.36-.49.61l-.5-1.25c.54-.69,1.17-1.62,1.55-4.31l1.19.11c-.1.54-.25,1.44-.7,2.75v4.19c.7-.49,2.21-1.56,2.98-4.69h-2.23v-.97h.93c-.15-.35-.29-.6-.56-1.05l.96-.32c.3.48.43.77.67,1.37h.46c.1-.47.15-.86.22-1.39l1.12.1c-.06.35-.1.58-.24,1.3h2.96l-.29,2.2h.64l-.27,2.1h.61c0,.18,0,3.08-.47,3.85-.29.46-.74.46-2.45.45l-.17-1c.58.01,1.2.03,1.35.03.43,0,.51-.02.63-1.12.02-.18.06-1.05.07-1.25h-4.83c-.53.65-1.01,1.04-1.4,1.34l-.67-.83ZM244.34,115.94c-.24,1.38-.62,2.08-.97,2.66l-.89-.44c.65-.85.83-1.41.99-2.36l.87.14ZM248.04,114.37l.16-1.17h-3.15c-.24.57-.45.94-.58,1.17h3.57ZM245.56,115.85c.02.23.15,1.79.17,2.33l-.91.06c.01-.17.02-.21.02-.37,0-.48-.05-1.5-.11-1.97l.83-.05ZM247.66,112.28l.16-1.23h-2.03c-.22.77-.24.85-.38,1.23h2.25ZM246.27,117.49c-.04-.49-.13-1.06-.27-1.61l.74-.12c.12.53.16.85.25,1.61l-.73.12ZM247.51,117.2c-.02-.08-.17-.86-.43-1.42l.62-.12c.06.14.39.97.51,1.36l-.7.18Z"/>
        <path class="cls-9" d="M257.53,109.02h1.22v2.06h1.83v1.11h-1.83v.87c0,.66-.12,2.65-1.48,3.81-1.06.89-2.65,1.21-3.45,1.35l-.5-1.11c1.03-.15,2.49-.43,3.34-1.29.79-.8.86-2.19.86-2.75v-.88h-3.4v2.77h-1.22v-2.77h-1.8v-1.11h1.8v-2h1.22v2h3.4v-2.06Z"/>
        <path class="cls-9" d="M267.63,118.32h-1.27v-4.82c-1.21.81-2.55,1.4-3.94,1.86l-.61-1.02c1.44-.47,4.59-1.51,7.68-5.24l1.15.7c-.42.43-1.54,1.62-3.02,2.8v5.72Z"/>
        <path class="cls-9" d="M274.36,109.03v2.72c2.58.73,4.61,1.89,5.32,2.31l-.57,1.22c-1.19-.71-3.29-1.89-4.74-2.27v5.4h-1.28v-9.39h1.28Z"/>
        <path class="cls-9" d="M285.16,117.04c1.27-.05,3.86-.17,3.86-3.47,0-.84-.29-2.78-2.8-2.94-.17,1.77-.35,3.67-1.16,5.19-.18.33-.81,1.5-2.04,1.5-1.39,0-2.1-1.6-2.1-3.08,0-2.56,1.81-4.72,4.97-4.72,3.53,0,4.46,2.43,4.46,4.17,0,4.22-3.78,4.42-4.88,4.48l-.31-1.13ZM282.08,114.4c0,1.15.45,1.75.98,1.75,1.43,0,1.84-3.98,1.95-5.47-2.54.45-2.92,2.78-2.92,3.71Z"/>
        <path class="cls-9" d="M297.9,117.43c-.62.31-1.78.37-2.49.37-3.12,0-3.54-1.58-3.54-4.29,0-3.61,1.01-4.28,3.89-4.28,3.05,0,3.61,1.36,3.59,4.28,0,1.65-.18,2.55-.63,3.2l.88.76-.74.81-.97-.85ZM295.19,115.08l.7-.8,1.88,1.61c.18-.34.32-.87.32-2.31,0-2.22-.1-3.2-2.35-3.2s-2.59.57-2.59,3.14c0,2.1.08,3.14,2.31,3.14.43,0,.98-.04,1.4-.13l-1.67-1.45Z"/>
        <path class="cls-9" d="M305.51,109.33c1.52,0,2.3.78,2.3,2.25,0,.65-.07,1.71-1.31,2.06.97.21,1.19.93,1.19,1.78v.79c0,.91.12,1.32.18,1.5h-1.31c-.12-.49-.12-1.16-.12-1.32v-.82c0-1.37-.77-1.37-1.4-1.37h-2.71v3.51h-1.25v-8.38h4.44ZM302.33,110.48v2.59h2.81c.71,0,1.39-.1,1.39-1.37,0-1-.5-1.22-1.35-1.22h-2.85Z"/>
        <path class="cls-9" d="M310.31,113.12c-.38.47-.67.73-.96.99l-.49-1.05c1.18-1.11,1.89-2.32,2.36-4.38l1.13.19c-.15.51-.39,1.39-.91,2.45v7.39h-1.13v-5.58ZM314.9,108.79c-.08.35-.18.73-.44,1.35h4.58v1.05h-3.53v1.51h3.27v1.05h-3.27v1.52h3.27v1.04h-3.27v2.38h-1.15v-7.51h-.4c-.71,1.31-1.29,1.92-1.62,2.28l-.72-.9c1.18-1.14,1.85-2.86,2.1-3.9l1.18.13Z"/>
        <path class="cls-9" d="M323.47,117.66c.41-.18,1.81-.77,2.85-1.88-.45-1.44-.62-2.56-.72-4.44h-3.74v1.27h2.97c-.02.8-.07,2.91-.22,3.57-.08.37-.25,1.02-1.32,1.02h-.99l-.19-1.1h1.03c.34,0,.41-.3.44-.46.05-.3.13-.9.13-2.04h-1.84v.88c0,.15,0,2.45-1.01,4.15l-.93-.81c.57-1.01.85-2.11.85-3.29v-4.23h4.78c0-.36-.03-1.53-.03-1.67h1.13c0,.4,0,.65.02,1.67h2.06c-.65-.49-1.11-.74-1.52-.96l.62-.82c.49.21,1.29.66,1.72,1.02l-.55.75h.99v1.03h-3.28c.1,1.48.23,2.44.46,3.33.56-.96.85-1.74,1.1-2.69l1.06.34c-.21.72-.66,2.25-1.72,3.67.02.05.57,1.38.98,1.38.33,0,.41-.47.62-1.63l.98.52c-.19,1.05-.47,2.4-1.49,2.4s-1.79-1.53-1.89-1.74c-1.04,1.06-2.2,1.57-2.65,1.78l-.67-1.04Z"/>
      </g>
    </g>
  </g>
</svg>