<?xml version="1.0" encoding="UTF-8"?>
<svg id="_レイヤー_2" data-name="レイヤー 2" xmlns="http://www.w3.org/2000/svg" viewBox="0 0 112.58 65.59">
  <defs>
    <style>
      .cls-1 {
        fill: #4673be;
      }

      .cls-1, .cls-2 {
        stroke-width: 0px;
      }

      .cls-2 {
        fill: #1a1a1a;
      }
    </style>
  </defs>
  <g id="pc">
    <g>
      <path class="cls-2" d="M16.28,59.27h80.17c1.06,0,2.09-1.2,2.09-2.7V2.58c0-1.5-1.03-2.58-2.09-2.58H16.28c-1.06,0-1.9,1.08-1.9,2.58v53.99c0,1.5.84,2.7,1.9,2.7ZM17.54,3.16h77.86v52.96H17.54V3.16Z"/>
      <path class="cls-2" d="M0,60.32v5.26h4.18s.09,0,.13,0h103.99s.08.02.23,0h4.05v-5.26H0Z"/>
    </g>
    <path class="cls-1" d="M75.58,40.81c-5.31-9.24-10.63-18.42-15.94-27.66-.84-1.46-2.15-1.95-3.43-1.84-1.24-.05-2.49.51-3.29,1.92-5.31,9.24-10.63,18.35-15.94,27.6-1.45,2.53.4,5.71,3.34,5.71h31.88c2.98,0,4.87-3.15,3.39-5.73ZM55.93,42.68c-1.32,0-2.39-1.07-2.39-2.39s1.07-2.39,2.39-2.39,2.39,1.07,2.39,2.39-1.07,2.39-2.39,2.39ZM57.73,35.12c0,.95-.77,1.73-1.73,1.73s-1.73-.77-1.73-1.73l-.69-13.13c0-.95,1.46-1.9,2.42-1.9s2.42.95,2.42,1.9l-.69,13.13Z"/>
  </g>
</svg>