<?xml version="1.0" encoding="UTF-8"?>
<svg id="_レイヤー_2" data-name="レイヤー 2" xmlns="http://www.w3.org/2000/svg" viewBox="0 0 127.42 67.61">
  <defs>
    <style>
      .cls-1, .cls-2, .cls-3 {
        stroke-width: 0px;
      }

      .cls-2 {
        fill: #4673be;
      }

      .cls-3 {
        fill: #1a1a1a;
      }
    </style>
  </defs>
  <g id="pc">
    <path class="cls-3" d="M127.42,11.36c0,1.9-9.47,3.44-21.16,3.44s-21.16-1.54-21.16-3.44,9.47-3.44,21.16-3.44,21.16,1.54,21.16,3.44ZM127.42,15.14v11.19c0,1.9-9.47,3.44-21.16,3.44s-21.16-1.54-21.16-3.44v-11.19c0,1.9,9.47,3.44,21.16,3.44s21.16-1.54,21.16-3.44ZM124.2,23.21c0-.92-.74-1.66-1.66-1.66s-1.66.74-1.66,1.66.74,1.66,1.66,1.66,1.66-.74,1.66-1.66ZM127.42,30.1v11.19c0,1.9-9.47,3.44-21.16,3.44s-21.16-1.54-21.16-3.44v-11.19c0,1.9,9.47,3.44,21.16,3.44s21.16-1.54,21.16-3.44ZM124.2,38.18c0-.92-.74-1.66-1.66-1.66s-1.66.74-1.66,1.66.74,1.66,1.66,1.66,1.66-.74,1.66-1.66ZM127.42,45.07v11.19c0,1.9-9.47,3.44-21.16,3.44s-21.16-1.54-21.16-3.44v-11.19c0,1.9,9.47,3.44,21.16,3.44s21.16-1.54,21.16-3.44ZM124.2,53.15c0-.92-.74-1.66-1.66-1.66s-1.66.74-1.66,1.66.74,1.66,1.66,1.66,1.66-.74,1.66-1.66Z"/>
    <g>
      <g>
        <path class="cls-3" d="M11.26,43.42s-.01,0-.02-.01c-.05-.05-.11-.08-.2-.08h-4.61c-.17,0-.31.14-.31.31v4.61c0,.17.14.31.31.31h4.61c.17,0,.31-.14.31-.31v-4.61c0-.09-.03-.15-.08-.2,0,0-.01-.02-.02-.02ZM10.72,43.95v3.98h-3.98v-3.98h3.98Z"/>
        <path class="cls-3" d="M8.09,46.91h1.29c.17,0,.31-.14.31-.31v-1.29s0,0,0,0c0-.17-.14-.31-.31-.31h-1.29c-.17,0-.31.14-.31.31v1.29c0,.17.14.31.31.31Z"/>
        <path class="cls-3" d="M11.26,35.83s-.01,0-.02-.02c-.05-.05-.11-.08-.2-.08h-4.61c-.17,0-.31.14-.31.31v4.61c0,.17.14.31.31.31h4.61c.17,0,.31-.14.31-.31v-4.61c0-.09-.03-.15-.08-.2,0,0,0-.01-.02-.02ZM10.72,36.36v3.98h-3.98v-3.98h3.98Z"/>
        <path class="cls-3" d="M12.93,40.66v-4.61c0-.41-.63-.41-.63,0v4.61c0,.4.63.41.63,0Z"/>
        <path class="cls-3" d="M11.04,42.44c.4,0,.41-.63,0-.63h-4.61c-.4,0-.41.63,0,.63h4.61Z"/>
        <path class="cls-3" d="M18.65,41.81h-2.53c-.4,0-.41.63,0,.63h.58v.44c0,.08.03.16.09.22.12.12.32.12.44,0,.06-.06.09-.14.09-.22v-.44h.99v1.2c0,.17.14.31.31.31s.31-.14.31-.31v-1.49s0,0,0,0c0-.16-.09-.33-.3-.33Z"/>
        <path class="cls-3" d="M12.55,42.44h1.92v1.92c0,.17.14.31.31.31h1.92v1.93c0,.4.63.41.63,0v-2.24c0-.17-.14-.31-.31-.31h-1.92v-1.92c0-.17-.14-.31-.31-.31h-2.24c-.4,0-.41.63,0,.63Z"/>
        <path class="cls-3" d="M14.15,47.94h-1.21v-4.3c0-.41-.63-.41-.63,0v4.61c0,.17.14.31.31.31h1.52c.4,0,.41-.63,0-.63Z"/>
        <path class="cls-3" d="M18.34,45.02v2.91h-2.74c-.4,0-.41.63,0,.63h3.06c.17,0,.31-.14.31-.31v-3.23c0-.41-.63-.41-.63,0Z"/>
        <rect class="cls-3" x="7.77" y="37.39" width="1.92" height="1.92" rx=".31" ry=".31"/>
        <path class="cls-3" d="M19.05,35.84s0-.01-.01-.02c0,0-.02-.01-.02-.02-.05-.04-.11-.08-.2-.08h-4.61c-.17,0-.31.14-.31.31v4.61c0,.17.14.31.31.31h4.61c.17,0,.31-.14.31-.31v-4.61c0-.09-.03-.15-.08-.2ZM18.5,36.36v3.98h-3.98v-3.98h3.98Z"/>
        <rect class="cls-3" x="15.55" y="37.39" width="1.92" height="1.92" rx=".31" ry=".31"/>
        <rect class="cls-3" x="13.98" y="45.62" width="1.85" height="1.18" rx=".31" ry=".31"/>
      </g>
      <path class="cls-1" d="M25.67,15.41V1.21c0-.67-.54-1.21-1.21-1.21H1.21C.54,0,0,.54,0,1.21s.54,1.21,1.21,1.21h8.5v12.98c-5.14.59-9.17,5.29-9.17,10.99v30.18c0,6.09,4.6,11.04,10.26,11.04h13.78c5.65,0,10.26-4.96,10.26-11.04v-30.19c0-5.7-4.02-10.4-9.17-10.97ZM2.96,30.33h19.3v22.97H2.96v-22.97ZM32.42,56.57c0,4.75-3.52,8.62-7.84,8.62h-13.78c-4.32,0-7.83-3.87-7.83-8.62v-.84h20.52c.67,0,1.21-.54,1.21-1.21v-25.39c0-.67-.54-1.21-1.21-1.21H2.96v-1.53c0-4.75,3.52-8.62,7.83-8.62h13.79c4.32,0,7.84,3.87,7.84,8.62v30.19h0Z"/>
      <path class="cls-2" d="M32.42,56.57c0,4.75-3.52,8.62-7.84,8.62h-13.78c-4.32,0-7.83-3.87-7.83-8.62v-.84h20.52c.67,0,1.21-.54,1.21-1.21v-25.39c0-.67-.54-1.21-1.21-1.21H2.96v-1.53c0-4.75,3.52-8.62,7.83-8.62h13.79c4.32,0,7.84,3.87,7.84,8.62v30.19h0Z"/>
    </g>
    <g>
      <path class="cls-3" d="M73.6,19.66c-3.26-3.24-8.52-3.24-11.78,0l-5.2,5.2c-3.12,3.14-3.25,8.18-.29,11.47.54.62,1.49.68,2.1.13.62-.54.68-1.49.13-2.1,0-.01-.02-.02-.03-.03-1.9-2.11-1.82-5.34.19-7.36l5.2-5.2c2.1-2.07,5.48-2.04,7.55.06,2.05,2.08,2.05,5.41,0,7.49l-4.53,4.53c-.58.58-.58,1.53,0,2.11.58.58,1.53.58,2.11,0l4.53-4.53c3.24-3.26,3.24-8.52,0-11.78Z"/>
      <path class="cls-2" d="M62.54,31.31c2.96,3.29,2.84,8.33-.28,11.47l-5.2,5.2c-3.27,3.23-8.54,3.2-11.78-.07-3.2-3.24-3.2-8.46,0-11.7l4.53-4.52c.58-.58,1.53-.58,2.11,0s.58,1.53,0,2.11l-4.52,4.53c-2.05,2.12-1.99,5.5.13,7.55,2.07,2,5.34,2,7.41,0l5.2-5.2c2-2.01,2.09-5.24.19-7.36-.54-.62-.48-1.56.13-2.1.61-.53,1.53-.49,2.08.1h0Z"/>
    </g>
  </g>
</svg>