<?xml version="1.0" encoding="UTF-8"?>
<svg id="_レイヤー_2" data-name="レイヤー 2" xmlns="http://www.w3.org/2000/svg" viewBox="0 0 179.02 40.43">
  <defs>
    <style>
      .cls-1 {
        fill: #0d64ad;
      }

      .cls-1, .cls-2 {
        stroke-width: 0px;
      }

      .cls-2 {
        fill: #1f9d3a;
      }
    </style>
  </defs>
  <g id="_01" data-name="01">
    <g>
      <path class="cls-1" d="M83.23,15.95h-15.73v22.51h-7.77V15.95h-15.33v-7.77h15.33V3.13h7.77v5.06h15.73v7.77ZM84.07,38.47c-4.12-5.79-6.37-12.7-6.45-19.81h-7.77c.06,6.92,1.8,13.72,5.09,19.81h9.12ZM52.36,38.47c3.29-6.09,5.03-12.89,5.09-19.81h-7.77c-.07,7.11-2.32,14.02-6.45,19.81h9.12ZM93.99,4.29c-1.32,5.72-5.33,10.44-10.76,12.67v7.76c6.89-1.73,12.58-6.56,15.42-13.06h10.91c-1.71,10.93-11.11,18.99-22.16,19v7.76c14.41,0,26.84-10.13,29.72-24.26.65-3.25,1.01-6.55,1.07-9.86h-24.19ZM122.42,38.51c12.95,0,24.69-7.63,29.95-19.47h-8.95c-3.55,6.05-9.45,10.36-16.3,11.89V4.29h-7.77v34.17l3.07.04ZM164.01,4.29h-17.86v7.38h17.86v-7.38ZM170.47,11.66c-1.55,10.92-10.89,19.03-21.92,19.04h-2.4v7.77h1.76c15.58,0,28.81-11.4,31.11-26.8h-8.55Z"/>
      <path class="cls-2" d="M0,20.22C0,9.05,9.05,0,20.22,0c11.17,0,20.22,9.05,20.22,20.22,0,11.17-9.05,20.22-20.22,20.22h0C9.05,40.43,0,31.38,0,20.22M19.81,31.88v-5.27c0-1.89-.15-2.2-.6-2.79-1.02-1.35-3.77-2.09-4.33-2.43-.63-.39-1.06-.71-1.06-1.57,0-1.21,1.39-1.1,1.39-1.74,0-.84-3.1-2.22-3.1-5.29,0-1.71.84-2.43,1.65-2.43.77,0,.84.78,1.37.78.2,0,.47-.09.47-.62,0-.69-1.22-1.86-1.22-2.64.01-.68.31-1.31.82-1.76.59-.5,1.4-.67,2.15-.46.68,0,.86-.59.99-1.14.21-.9.92-2.02,2.05-2.02,1.62,0,2.07,1.86,2.07,2.56s.14.92.46.92c.55,0,.73-.86,1.82-.86.7,0,1.65.55,1.65,2.07,0,1.82-1.5,2.49-1.5,3.31,0,.28.07.62.47.62s.55-.54,1.38-.54,1.39.97,1.39,2c-.17,1.39-.86,2.67-1.93,3.58-.52.48-.69.76-.69,1.14-.03.27.16.51.42.55.03,0,.06,0,.08,0,.28,0,.62-.18.84-.18s.91,0,.91,1.13-.58,2.05-3.41,2.72c-1.75.27-3.16,1.58-3.55,3.31-.1.66-.16,1.33-.17,2v5.04h15.11c6.44-8.57,4.71-20.74-3.86-27.18C23.31-1.74,11.14,0,4.7,8.56-.48,15.47-.48,24.97,4.7,31.88h15.11Z"/>
    </g>
  </g>
</svg>