<svg id="图层_1" data-name="图层 1" xmlns="http://www.w3.org/2000/svg" viewBox="0 0 182.4 41.84"><defs><style>.cls-1{fill:#221e1f;}</style></defs><title>未标题-1</title><path class="cls-1" d="M14.65,55.15H16.2V41.83a11.65,11.65,0,0,1,4.32-9.07A15.35,15.35,0,0,1,30.66,29V27.73a17.8,17.8,0,0,0-8.15,2.05,15,15,0,0,0-5.85,5.29l-.46.73V28.57H14.65Z" transform="translate(-14.65 -13.31)"/><path class="cls-1" d="M44.75,26.92A14.13,14.13,0,0,0,30.66,41.05a14.1,14.1,0,0,0,14.09,14.1,14.15,14.15,0,0,0,14.12-14.1A14.19,14.19,0,0,0,44.75,26.92Zm0,26.95A12.84,12.84,0,0,1,31.93,41.05,12.84,12.84,0,0,1,44.75,28.2,12.84,12.84,0,0,1,57.59,41.05,12.84,12.84,0,0,1,44.75,53.87Z" transform="translate(-14.65 -13.31)"/><path class="cls-1" d="M103.55,55.15h1.26V39A10.77,10.77,0,0,0,94.09,28.23a10.77,10.77,0,0,0-9.87,6.54l-.22.52-.23-.51a10.84,10.84,0,0,0-3.91-4.71,10.57,10.57,0,0,0-6-1.84,10.15,10.15,0,0,0-9,4.94l-.45.7V29.05H63.16v26.1h1.26V39a9.48,9.48,0,0,1,19,0V55.15h1.25V39a9.47,9.47,0,1,1,18.93,0Z" transform="translate(-14.65 -13.31)"/><path class="cls-1" d="M123.45,13.31a8.72,8.72,0,0,0-4.87,1.49A7.68,7.68,0,0,0,115.07,20a7.28,7.28,0,0,0,1.39,6l3.44,4.39-5,3.31a11.59,11.59,0,0,0-5.2,7.7,10.75,10.75,0,0,0,2,8.82,12,12,0,0,0,5,3.89A13.51,13.51,0,0,0,129.4,53l5.38-3.52,3,3.78,1.86,0-3.57-4.61,3.06-2.22H137l-1.78,1.1L117.74,25.12a6,6,0,0,1-1.15-4.91,6.38,6.38,0,0,1,2.88-4.27,7.31,7.31,0,0,1,5.26-1.12,6.81,6.81,0,0,1,4.38,2.47l1.23-.83a8.28,8.28,0,0,0-5.33-3A9.29,9.29,0,0,0,123.45,13.31Zm-1.32,40.45a12.87,12.87,0,0,1-1.94-.15A10.84,10.84,0,0,1,113,49.36a9.45,9.45,0,0,1-1.82-7.79,10.13,10.13,0,0,1,4.58-6.77l5-3.32.14.18,12.93,16.61L128.5,51.8A11.4,11.4,0,0,1,122.13,53.76Z" transform="translate(-14.65 -13.31)"/><path class="cls-1" d="M163.84,55.15h1.26V39a10.77,10.77,0,0,0-10.75-10.73,10.21,10.21,0,0,0-9,4.94l-.44.7V29.05h-1.25v26.1h1.25V39a9.48,9.48,0,0,1,19,0Z" transform="translate(-14.65 -13.31)"/><path class="cls-1" d="M183.18,27.44a13.88,13.88,0,0,0-13.84,13.87,13.81,13.81,0,0,0,21,11.83,13.72,13.72,0,0,0,5-5.19l.46-.83v7.23h1.26V16.93h-1.26V35.46l-.46-.83a13.86,13.86,0,0,0-5-5.19A13.51,13.51,0,0,0,183.18,27.44Zm0,26.45A12.6,12.6,0,0,1,170.6,41.31a12.6,12.6,0,1,1,21.5,8.89A12.2,12.2,0,0,1,183.18,53.89Z" transform="translate(-14.65 -13.31)"/></svg>