<svg xmlns="http://www.w3.org/2000/svg" viewBox="0 0 98 43"><path d="M43.51 18.75a.51.51 0 0 1 0 .76c-.36.37-2.35 1.85-3.58 2.72a2.58 2.58 0 0 1-1.74.55H19.64a13.57 13.57 0 0 1-1.75 2.09 16 16 0 0 1-2.12 1.75 13.05 13.05 0 0 1-3.26 1.67 10.54 10.54 0 0 1-3 .65.47.47 0 0 1-.51-.34c-.15-.65.5-.81 1.39-1.12 4.06-1.4 6.79-3.7 7.7-8.81a31.43 31.43 0 0 0 .38-5.67V4.48c0-2.74-2.51-2.61-3.25-2.61a.49.49 0 0 1-.54-.5.51.51 0 0 1 .51-.51H25a.54.54 0 0 1 .48.54.5.5 0 0 1-.48.49c-1.68 0-3.24.84-3.24 2.39v10.85a13.81 13.81 0 0 1-1.37 6.47h5.25s2.12.22 2.12-2.48V6.48A1.71 1.71 0 0 0 26 4.58h-1.26a.52.52 0 0 1-.49-.52.51.51 0 0 1 .5-.51L37 3.57a.59.59 0 0 1 .57.48c.21.78.55 2.94.62 3.32s-.08.58-.36.64-.59-.08-.73-.61c-.4-1.53-1.08-2.49-3-2.49h-3.03c-.19 0-.48.1-.48.55v5.9a.53.53 0 0 0 .61.61h2.63c1.07 0 1.57-.79 1.68-1.87.06-.62.15-.93.57-.93a.54.54 0 0 1 .51.56v6.07a.51.51 0 0 1-.5.52c-.32 0-.49-.27-.5-.59a2.24 2.24 0 0 0-2.14-2.3h-2.54c-.16 0-.32 0-.32.38v6.9a.5.5 0 0 0 .48.49h5.73c2.57 0 5.51-2 6.07-2.49a.47.47 0 0 1 .64 0M53.7 7.1l-.59-3c-.07-.35-.29-.54-.83-.54h-10.9c-.54 0-.76.19-.82.54l-.6 3c-.1.38-.07.79.22.91s.62 0 .78-.48c.27-.93.36-2.58 2.1-2.58h1.68a.58.58 0 0 1 .63.61v14c0 2-1 2.19-1.56 2.19h-1.55a.51.51 0 0 0-.53.5.5.5 0 0 0 .53.52h9a.5.5 0 0 0 .48-.51.51.51 0 0 0-.51-.51h-1.38c-.55 0-1.56-.2-1.56-2.22v-14a.58.58 0 0 1 .63-.53h1.68c1.75 0 1.83 1.65 2.11 2.58.15.52.48.6.78.48s.31-.53.21-.91m19.57 5.2c0 5 3.11 8.8 6.92 8.8 5.39 0 7-6.36 5.6-10.6-.87-2.67-3.13-5.25-6.28-5.25-4.35 0-6.24 4.3-6.24 7.05m-11.42 0a3.66 3.66 0 0 0 3.51-3.91A3.48 3.48 0 0 0 62 5h-1.46c-.66 0-.79.43-.79.72v5.52c0 1.1.39 1 .71 1zM84 21.67a8.07 8.07 0 0 1-7 3.44c-6.66 0-10.49-4.91-11.28-5.69s-4.55-4.27-5-4.74-.5-.58-.67-.58-.31.37-.31.52v5.07c0 1.29.5 2.15 1.52 2.15h1.14a.53.53 0 0 1 .55.53.46.46 0 0 1-.49.47h-8.3a.51.51 0 0 1-.52-.5.54.54 0 0 1 .58-.54h.84c1.3 0 1.93-.72 1.93-2V7.14c0-1.36-.39-2.48-1.81-2.48h-.52a.52.52 0 0 1-.5-.57.56.56 0 0 1 .52-.46h8.52a4.88 4.88 0 0 1 5.14 4.97 5.19 5.19 0 0 1-3.44 4.93c-.79.28-1.21.16-.46.93.58.59 4.24 4.56 6.4 6.41a10.52 10.52 0 0 0 6.56 2.88c1.74 0 2.7-.49 2.58-1.1a9.46 9.46 0 0 1-9.48-9.71A9.31 9.31 0 0 1 85.07 5.4 9 9 0 0 1 89 12.93a9.94 9.94 0 0 1-5 8.74zM1.85 38.47h3.94v2.09H1.85zm0-2.8h3.94v2H1.85zM1 41.76h.85v-.4h3.94v.4h.86v-6.89H1zm6.69-6v.79h2.85a7.72 7.72 0 0 1-2.94 3.24l.45.77a8.48 8.48 0 0 0 2.84-3.31v2.46H9.36v.78h1.54v1.3h.79v-1.3h1.59v-.78h-1.59v-2.46a8.79 8.79 0 0 0 2.86 3.31l.45-.86a7.24 7.24 0 0 1-3-3.12h2.87v-.79h-3.18v-1.31h-.79v1.31H7.69m11.48-1v.67h1a1.47 1.47 0 0 1-1.18 1l.39.68a2.41 2.41 0 0 0 1.56-1.71h1c0 .8-.17.87-.4.87h-.78l.12.71h.94c.6 0 .88-.47.87-2.25h-3.52m-2 4.88h4.08V40h-4.09zm0-.87h4.08v.41h-4.09zm0-.85h4.08v.39h-4.09zm1.06-.82l.69-.27a6.59 6.59 0 0 0-.75-1.44l-.59.27c.17.27.21.36.28.49-.27.06-.72.12-1 .16v-.88a10.85 10.85 0 0 0 2.03-.43l-.29-.63a10.26 10.26 0 0 1-2.51.39v1.59h-.51l.08.73c.71-.09 1.84-.28 2.45-.42zm-2.37 4.72a6.66 6.66 0 0 0 2.31-.75l-.44-.45h2.65l-.44.5a8 8 0 0 0 2.56.7l.34-.72a6.27 6.27 0 0 1-2.29-.46H22v-3.27h-5.63v3.24h1.21a5.49 5.49 0 0 1-2 .46zm8.89-5.27H29v.52h-4.26zm0-1.07H29V36h-4.26zm1.12 3.64a5.06 5.06 0 0 1-2.53 1.58l.4.72a5.66 5.66 0 0 0 3.06-2.3h1a4.21 4.21 0 0 1-2.2 2l.47.64a4.67 4.67 0 0 0 2.56-2.68h.72a8.62 8.62 0 0 1-.14 1.57c-.08.3-.18.32-.4.32h-1.05l.14.79h1c.8 0 .92-.4 1-.61a12.71 12.71 0 0 0 .25-2.77h-4.62a3.54 3.54 0 0 0 .44-.65h3.74v-3H24v3h1.1a4.26 4.26 0 0 1-1.91 1.39l.4.68a4.84 4.84 0 0 0 1.2-.72zm8.81-2.22H38v-.68h-3.33zm.92 1.41h.4a5.28 5.28 0 0 0 1.9 3.56l.5-.75A3.84 3.84 0 0 1 37.23 40a11 11 0 0 0 1.07-1l-.59-.44c-.06.06-.57.61-.82.84a3.53 3.53 0 0 1-.24-1h1.61v-.73H34.4v-2h3.86v-.78h-4.63v3.76a4.34 4.34 0 0 1-.75 2.84l.7.47c.42-.54.82-1.33.82-3.31v-.35h.43V41h-.56l.08.77a21.16 21.16 0 0 0 2.22-.32l-.06-.71c-.31.06-.57.1-.92.14zM31 39.43l.89-.27v1.72c0 .09 0 .12-.15.12h-.68l.13.82h1c.49 0 .52-.42.52-.69v-2.24c.44-.16.53-.2.72-.28l-.1-.76-.62.21v-1.42h.68v-.73h-.69v-1.36h-.78v1.36H31v.73h.89v1.68c-.51.16-.75.22-1 .28zm15.2 2.39l.42-.75a7.55 7.55 0 0 1-2.24-1l-.58.53a7.86 7.86 0 0 0 2.4 1.26m-3.54-4.48h.46v.89h-.46zm-.48 1.49h1.42v-2.13h-1.39zm-.06-2.44h1.52v-.61h-1.49zm-.27-1h2v3.86h-2zm-.64 3.86h-.91v-.81h.7v-.69h-.7V37h.7v-.69h-.7v-.8a3.12 3.12 0 0 0 .85-.2l-.33-.74a3.55 3.55 0 0 1-1.26.37v4.36h-.33v.7h7.31v-.72h-.3v-4.52h-1.47v.73h.74v.77h-.69V37h.69v.8h-.69v.69h.69v.81h-1v-4.54h-3.27zm.14.74a6.43 6.43 0 0 1-2.19 1l.4.77A7.63 7.63 0 0 0 42 40.54zm11.88-2.44l-.25.31a5 5 0 0 1 .65.4h-1c0-.27-.08-.5-.1-.67l.74-.05m-.8-.58c0-.2-.06-.68-.09-1.45a4.54 4.54 0 0 1 .76.77c-.19.23-.44.54-.57.68zm-3 .72l.92-.08.69-.07c0 .12 0 .17.07.33l.57-.19a5.11 5.11 0 0 0-.39-1.18l-.52.18c.06.15.08.21.13.36h-.68a17.81 17.81 0 0 0 1.34-1.65l-.6-.24a7.55 7.55 0 0 1-.5.73 3 3 0 0 0-.27-.32 4.55 4.55 0 0 0 .66-.9l-.58-.21a5.39 5.39 0 0 1-.48.73l-.17-.12-.43.47a8.84 8.84 0 0 1 .84.87c-.37.45-.5.59-.62.73h-.15zm2.43 2.32a4.85 4.85 0 0 0-1.23-.67v-.44H52a9.41 9.41 0 0 0 .44 1.46 4.28 4.28 0 0 1-1.5.67l.29.67a5.23 5.23 0 0 0 1.52-.66 1.1 1.1 0 0 0 1.11.7c.57 0 .81-.38 1-1.13l-.58-.52c-.13.46-.33.89-.48.89s-.39-.27-.47-.4a4.5 4.5 0 0 0 1-1.27l-.7-.28a4.73 4.73 0 0 1-.66.83 6.77 6.77 0 0 1-.27-1h2.06v-.7h-.93l.31-.35a5.35 5.35 0 0 0-.57-.38l.63-.05c0 .13 0 .16.08.35l.56-.22a7 7 0 0 0-.44-1.2l-.52.19a1.58 1.58 0 0 1 .16.37h-.79a14.67 14.67 0 0 0 1.26-1.61l-.51-.25a6.28 6.28 0 0 1-.53.72 2.81 2.81 0 0 0-.26-.27 6.7 6.7 0 0 0 .64-.92l-.58-.2a7.55 7.55 0 0 1-.45.73l-.12-.11-.38.44v-1h-.78a22.45 22.45 0 0 0 .26 3.75h-2.07A4.8 4.8 0 0 1 49 37v-.28h.51v-.75H49v-1.45h-.74v1.41h-.76v.75h.72a6.91 6.91 0 0 1-.81 2.39l.39 1a4.74 4.74 0 0 0 .45-1.38v3.11H49v-3.64a3.68 3.68 0 0 0 .34.77l.28-.5V39h.25a3.32 3.32 0 0 1-.56 2.25l.56.57a3.19 3.19 0 0 0 .66-1.71 2.76 2.76 0 0 1 .86.64zm8.86-.62h1V40h-1zm0-1h1v.47h-1zm-.92-2H61v.46h-1.21zm0-.95H61v.42h-1.21zm-.77 4h1V40H59zm0-1h1v.47H59zm0-3.56H58v.59h1v.42h-.7v.53h.76v.46h-1.14v.61H60v.38h-1.7V40h-.5v.6h.5v1.23h.7v-1.27h2.7v.32c0 .18 0 .21-.26.21h-.75l.06.7h1c.53 0 .65-.23.65-.55v-.68h.42V40h-.42v-2.11h-1.69v-.38h2.15v-.61H61.7v-.46h.71v-.53h-.71v-.42h1v-.59h-1v-.39H61v.39h-1.21v-.39h-.73zm-3.37 5.26a4.74 4.74 0 0 0 .77-1.86v3.49h.74v-3.7a4.48 4.48 0 0 0 .52 1l.37-.75a3.77 3.77 0 0 1-.91-1.47v-.2h.7V36h-.7v-1.49h-.74V36h-.94v.74h.88a4.84 4.84 0 0 1-1 2.36zm11-5.68h-.94a5 5 0 0 0 0 7.36h.94a4.8 4.8 0 0 1 0-7.36m6.9 1.31l.64-.18a7.92 7.92 0 0 0-.42-1.15l-.63.14a6.1 6.1 0 0 1 .41 1.19m-.47 0a6.58 6.58 0 0 0-.39-1.23l-.64.14a6.2 6.2 0 0 1 .36 1.29zm-2.62.08a15.27 15.27 0 0 0-2.19-.81l-.37.81a12.8 12.8 0 0 1 2.16.85zM68 41.38c3.5-.4 4.81-1.84 5.87-4.78l-.87-.38c-1 3.1-2.33 4-5.25 4.23zm1.87-3.73a13.59 13.59 0 0 0-2.17-.83l-.36.81a12.44 12.44 0 0 1 2.18.9zm9.69-.87H75v.74h1.88v2.83h-2.22v.78h5.22v-.78h-2.22v-2.83h1.9v-.74m2.63-2h-.93v6.86h.93v-4a7.94 7.94 0 0 1 1.84.76c.81.42 1.32.73 1.62.9l.41-.9a17.51 17.51 0 0 0-3.87-1.68v-2m6 1.53h3.91v4h-3.88zm-.92 4.82h5.75v-5.62H87.3zm7.14.72h1a5 5 0 0 0 0-7.36h-1a4.78 4.78 0 0 1 0 7.36"/></svg>