<?xml version="1.0" encoding="UTF-8"?>
<svg id="_レイヤー_2" data-name="レイヤー 2" xmlns="http://www.w3.org/2000/svg" viewBox="0 0 298.83 53.17">
  <defs>
    <style>
      .cls-1 {
        fill: #221714;
      }

      .cls-1, .cls-2, .cls-3 {
        stroke-width: 0px;
      }

      .cls-2 {
        fill: #fff;
      }

      .cls-3 {
        fill: #054994;
      }
    </style>
  </defs>
  <g id="_01" data-name="01">
    <g>
      <path class="cls-1" d="M69.89,31.26h16.01v4h-16.01v-4ZM78.51,20.95h-3.26v7.42h-8.65v9.82h22.57v-9.82h-10.66v-2.75h11.31v-2.74h-11.31v-1.93ZM73.78,14.6h-3.14v1.62h-4.67v2.98h4.67v1.64h3.14v-1.64h8.22v1.64h3.14v-1.64h4.67v-2.98h-4.67v-1.62h-3.14v1.62h-8.22v-1.62Z"/>
      <path class="cls-1" d="M95.49,35.47h-3.47c1.28-4.02,2.19-9.82,2.48-17.68h3.42c-.31,7.57-1.07,13.76-2.43,17.68M106.18,34.97c0,2.59-1.33,3.53-3.66,3.53h-4.15v-3.45h3.11c.6.06,1.14-.38,1.2-.98,0-.07,0-.14,0-.22V14.6h3.5v20.37ZM116,35.47h-3.4l-2.06-17.68h3.39l2.06,17.68Z"/>
      <path class="cls-1" d="M131.6,24.79c1.03-1.35,1.76-2.9,2.17-4.55h4.49c.01,3.54-.98,7.01-2.87,10-1.04-1.65-1.7-3.51-1.93-5.45h-1.85ZM121.54,15.02h-2.3c0,5.36-.29,8.23-1.07,10.11h2.32c.42-1.08.67-2.21.73-3.37h1.93v7.31c-1.61.45-3.27.74-4.94.86v3.16c1.66-.17,3.31-.45,4.94-.83v6.24h3.03v-7.1c.8-.25,1.59-.56,2.35-.91v-3.29c-.52.26-1.38.6-2.35.96v-6.4h2.59v-3.08h-2.59v-4.08h-3.03v4.08h-1.7c.05-1.1.08-2.27.08-3.66M134.42,14.6h-3.06c0,4-.91,7.16-2.53,8.49v4.26c.71-.43,1.36-.95,1.93-1.54.47,2.38,1.38,4.65,2.69,6.69-1.35,1.18-2.93,2.06-4.65,2.58v3.42c2.47-.59,4.75-1.82,6.61-3.55,1.85,1.77,4.16,3,6.66,3.55v-3.37c-1.74-.46-3.35-1.32-4.7-2.51,2.48-3.65,3.82-7.96,3.84-12.38h.86v-2.9h-7.81c.11-.91.16-1.83.16-2.75"/>
      <path class="cls-1" d="M155.68,18.41h8.15v2.09h-8.15v-2.09ZM149.13,14.6h-2.82v5.3h-1.96v2.9h1.96v11.75c-.65.15-1.3.26-1.96.34v2.93c2.42-.18,4.77-.94,6.84-2.2v-3.26c-.66.46-1.35.87-2.06,1.23v-10.79h1.91v-2.9h-1.91v-5.3ZM158.17,16.09h-5.62v15.44h5.96v1.67h-6.58v2.63h6.58v2.66h3.11v-2.66h6.58v-2.63h-6.58v-1.67h5.93v-6.98h-11.86v-1.72h11.26v-6.74h-5.72l.57-1.49h-3.08l-.55,1.49ZM155.68,26.88h8.75v2.32h-8.75v-2.32Z"/>
      <path class="cls-1" d="M185.49,30.61h5.25v2.38h-5.25v-2.38ZM185.49,26.15h5.25v2.4h-5.25v-2.4ZM185.49,21.79h5.25v2.29h-5.25v-2.29ZM173.95,22.49h4.26v4.88h-4.26v-4.88ZM175.15,35.45c-.02-1.84-.15-3.69-.42-5.51h2.69l-.5,5.43c-.55.03-1.09.05-1.77.08M194.32,15.02h-11.96v2.59h3.52l-.57,2.07h-2.75v15.46h1.18c-.45,1.24-1.13,2.38-2.01,3.37h3.08c.75-1.01,1.31-2.15,1.65-3.37h3.45l1.59,3.37h2.82l-1.64-3.37h.99v-15.46h-5.46l.58-2.07h5.53v-2.59ZM181.08,19.88h-9.98v10.06h1.05c.25,1.85.39,3.7.44,5.56h-2.12v2.64c6.27,0,8.2,0,10.89-.81v-2.72c-.65.22-1.31.39-1.98.5l.55-5.17h1.15v-10.06ZM181.06,15.02h-10.58v2.77h10.58v-2.77Z"/>
      <path class="cls-1" d="M202.72,17.34h2.64v2.85h-2.64v2.12l2.82,3.16v4.13l-2.82-3.5v12.43h-2.95v-9.25c-.81,1.6-1.88,3.05-3.16,4.31v-4.39c1.76-2.22,2.86-4.89,3.16-7.71v-1.3h-3.16v-2.85h3.16v-2.75h2.95v2.75ZM209.59,17.24h2.4v-2.64h3.06v2.64h4.91v2.95h-4.91v4.52h5.41v2.87h-4.41c.74,2.65,2.28,5.02,4.41,6.77v3.86c-2.01-1.07-4.15-4.07-5.41-7.28v7.57h-3.06v-7.55c-1.39,3.27-3.71,6.09-6.01,7.26v-3.86c2.27-1.7,3.95-4.06,4.81-6.77h-4.41v-2.87h5.61v-4.52h-2.87c-.23,1.08-.54,2.13-.94,3.16h-2.79c1.12-2.63,1.7-5.47,1.7-8.33h2.66c-.03.81-.08,1.57-.16,2.22"/>
      <path class="cls-1" d="M240.57,17.79h2.4l-.52-3.19h2.38l.52,3.19h1.23v3.08h-6.01v.37c0,6.79,1.96,10.89,6.01,13.29v3.97c-6.4-3.05-9.22-9.19-9.22-17.29v-.34h-14.62v-3.08h14.62v-3.19h3.21v3.19ZM236.55,27.5h-5.35v7.45c2.05-.18,4.07-.62,6.01-1.31v3.08c-3.34,1.12-8.38,1.46-14.47,1.46v-3c1.75,0,3.5-.03,5.25-.05v-7.63h-5.25v-2.95h13.81v2.95Z"/>
      <path class="cls-1" d="M252.38,22.67c3.27-.88,6.19-2.72,8.38-5.3,2.17,2.57,5.08,4.42,8.33,5.3h-16.72ZM272.7,28.23h-23.85v2.93h4.2l-1.88,4.18h-2.32v2.85h5.56c6.69,0,10.45-.13,13.95-1.41l.84,1.72h3.5l-3-6.43h-3.53l1.05,2.25c-3.13.84-6.84.99-12.43,1.02l1.93-4.18h15.99v-2.93ZM258.62,14.6c-1.83,3.14-5.38,4.99-9.76,5.59v3.34c.7-.13,1.43-.29,2.14-.47v2.51h19.64v-2.46c.68.16,1.39.31,2.06.42v-3.34c-4.44-.57-7.94-2.45-9.77-5.59h-4.31Z"/>
      <path class="cls-1" d="M281.35,17.21h3.21v2.75c-.4,2.44-1.4,4.74-2.9,6.71l3.45,2.82v3.63l-3.65-3.24v8.62h-3.03v-8.3c-1.02.97-2.19,1.77-3.45,2.4v-3.66c2.98-1.59,5.96-5.33,6.48-8.83h-6.48v-2.9h3.34v-2.61h3.03v2.61ZM293.63,21.1h4.62v3.27h-4.62v10.6h5.2v3.21h-13.56v-3.21h5.2v-10.6h-4.62v-3.27h4.62v-6.5h3.16v6.5Z"/>
      <polygon class="cls-3" points="12.25 0 41.57 0 40.54 9.01 20.49 9.01 16.78 41.76 7.51 41.76 12.25 0"/>
      <path class="cls-2" d="M.36,27.29l4.82,6.35s8.91-5.32,10.53-6.09c2.41-1.14,11.39.73,13.46-.51,2.54-1.53,12.44-7.49,12.44-7.49l-4.82-5.96s-6.83,4.36-8.76,5.46c-2.67,1.53-12.69-.13-14.98.76-1.8.7-12.69,7.49-12.69,7.49"/>
      <path class="cls-3" d="M5.12,33.96L0,27.22l.23-.14c.45-.28,10.93-6.81,12.73-7.51,1.05-.41,3.46-.31,6.26-.2,3.39.13,7.24.28,8.68-.54,1.9-1.09,8.68-5.41,8.75-5.45l.19-.12,5.14,6.35-.24.15s-9.9,5.97-12.44,7.49c-1.11.67-3.9.5-6.86.32-2.7-.16-5.49-.34-6.62.2-1.59.76-10.42,6.03-10.51,6.08l-.19.11ZM.72,27.36l4.53,5.95c1.33-.79,8.86-5.28,10.37-5.99,1.25-.59,3.97-.42,6.86-.25,2.75.17,5.59.34,6.57-.25,2.3-1.38,10.66-6.42,12.2-7.35l-4.51-5.57c-1.11.7-6.85,4.35-8.58,5.34-1.57.89-5.32.75-8.95.61-2.63-.1-5.11-.2-6.06.17-1.62.63-10.84,6.35-12.42,7.33"/>
      <polygon class="cls-2" points="39.2 12.06 45.17 8.25 49.61 13.83 43.51 17.52 39.2 12.06"/>
      <path class="cls-3" d="M43.46,17.84l-4.62-5.84,6.38-4.07,4.75,5.98-6.52,3.94ZM39.56,12.12l4.01,5.07,5.67-3.42-4.13-5.19-5.55,3.54Z"/>
      <polygon class="cls-3" points="7.31 52.87 5.62 52.87 5.62 45.98 3.52 45.98 3.52 44.56 9.41 44.56 9.41 45.98 7.31 45.98 7.31 52.87"/>
      <path class="cls-3" d="M14.5,45.5c1.57,0,2.85,1.24,2.92,2.8.09,1.66-1.18,3.07-2.84,3.16-.03,0-.05,0-.08,0-1.66-.05-2.97-1.43-2.92-3.09,0-.03,0-.05,0-.08.07-1.56,1.35-2.8,2.92-2.8M14.5,43.81c-2.58-.03-4.7,2.05-4.73,4.63-.03,2.58,2.05,4.7,4.63,4.73.03,0,.06,0,.1,0,2.58.03,4.7-2.04,4.73-4.63.03-2.58-2.04-4.7-4.63-4.73-.03,0-.07,0-.1,0"/>
      <polygon class="cls-3" points="21.27 44.1 24.77 47.49 28.39 44.1 29.89 52.87 28.03 52.87 27.16 47.59 24.77 49.73 22.44 47.59 21.47 52.87 19.62 52.87 21.27 44.1"/>
      <polygon class="cls-3" points="42.52 45.64 42.52 47.29 45.01 47.29 45.01 48.82 42.52 48.82 42.52 52.87 40.83 52.87 40.83 44.1 45.73 44.1 45.73 45.64 42.52 45.64"/>
      <polygon class="cls-3" points="35.31 43.89 30.62 52.87 32.83 52.87 35.31 47.94 35.33 47.94 37.76 52.87 39.98 52.87 35.31 43.89"/>
    </g>
  </g>
</svg>