<?xml version="1.0" encoding="utf-8"?>
<!-- Generator: Adobe Illustrator 28.1.0, SVG Export Plug-In . SVG Version: 6.00 Build 0)  -->
<svg version="1.1" id="layer" xmlns="http://www.w3.org/2000/svg" xmlns:xlink="http://www.w3.org/1999/xlink" x="0px" y="0px"
	 viewBox="0 0 610 330" style="enable-background:new 0 0 610 330;" xml:space="preserve">
<style type="text/css">
	.st0{fill:#EF412F;}
	.st1{fill:#50B848;}
</style>
<path class="st0" d="M252.3,97.2c11.5-8.2,21.7-19.8,32.2-31.9c6.6-7.6,13.3-15.2,20.4-22.2c7.2,7,13.8,14.6,20.4,22.2
	c10.5,12.1,20.7,23.8,32.2,31.9H252.3 M325.4,139.6c10.5-12.1,20.7-23.7,32.2-31.9H252.3c11.5,8.2,21.7,19.9,32.2,31.9
	c6.6,7.6,13.3,15.3,20.5,22.2C312.1,154.9,318.8,147.2,325.4,139.6 M447.3,107.7c-2.8,0-7.4,0.4-10.1,1.4
	c-16.4,5.5-29.9,21.1-44.2,37.5c-13.2,15.1-26.7,30.7-44.2,41.1c4.8,1,9.8,1.6,15.2,1.6c36.2,0,58.2-25.2,79.5-49.6
	c10.5-12.1,20.7-23.7,32.2-31.9h-28.4V107.7z M363.9,15.7c-5.4,0-10.4,0.6-15.2,1.6c17.4,10.4,31,25.9,44.2,41.1
	c14.3,16.4,27.9,32,44.2,37.5c2.7,0.9,7.3,1.4,10.1,1.4h28.3c-11.5-8.2-21.7-19.8-32.2-31.9C422.1,40.9,400.2,15.7,363.9,15.7
	 M385,139.6c10.5-12.1,20.7-23.7,32.2-31.9h-29.5c-2.8,0-7.4,0.5-10.1,1.4c-16.4,5.5-29.9,21.1-44.2,37.5
	c-6.5,7.4-13.2,15.2-20.6,22.4c6.7,5.7,14,10.6,22,14.1C354.9,174.1,370.2,156.6,385,139.6 M385,65.3c-14.8-17-30.1-34.5-50.3-43.4
	c-8.1,3.6-15.3,8.5-22,14.2c7.3,7.2,14.1,14.9,20.6,22.4c14.3,16.4,27.9,31.9,44.2,37.5c2.7,0.9,7.3,1.4,10.1,1.4h29.5
	C405.7,89.1,395.5,77.4,385,65.3"/>
<path class="st1" d="M224.9,65.3c14.8-17,30.1-34.5,50.3-43.4c8,3.6,15.3,8.5,22,14.2c-7.3,7.2-14.1,14.9-20.6,22.4
	c-14.3,16.4-27.8,31.9-44.2,37.5c-2.7,0.9-7.3,1.4-10.1,1.4h-29.5C204.2,89.1,214.3,77.4,224.9,65.3 M224.9,139.6
	c14.8,17,30.1,34.5,50.3,43.4c8-3.6,15.3-8.5,22-14.2c-7.3-7.2-14.1-14.9-20.6-22.4c-14.3-16.4-27.8-31.9-44.2-37.5
	c-2.7-0.9-7.3-1.4-10.1-1.4h-29.5C204.2,115.9,214.3,127.5,224.9,139.6 M245.9,189.2c5.4,0,10.4-0.6,15.2-1.6
	c-17.4-10.4-31-26-44.2-41.1c-14.3-16.4-27.9-32-44.2-37.5c-2.7-0.9-7.3-1.4-10.2-1.4h-28.3c11.5,8.2,21.7,19.8,32.2,31.9
	C187.7,164,209.7,189.2,245.9,189.2 M162.6,97.2c2.9,0,7.4-0.4,10.2-1.4c16.4-5.5,29.9-21.1,44.2-37.5
	c13.2-15.1,26.7-30.7,44.2-41.1c-4.8-1-9.8-1.6-15.2-1.6c-36.2,0-58.2,25.2-79.5,49.6C156,77.3,145.8,89,134.3,97.1h28.3V97.2z"/>
<path d="M499.9,102.5v-5.4c-18.4-4-33.1-20.8-48.6-38.7c-21.7-24.9-46.4-53.2-87.4-53.2c-24.6,0-43.3,10.1-59,23.7
	c-15.7-13.5-34.4-23.7-59-23.7c-41,0-65.6,28.3-87.4,53.2c-15.5,17.8-30.2,34.7-48.6,38.7v5.4v5.4c18.4,4,33.1,20.9,48.6,38.7
	c21.7,24.9,46.4,53.2,87.4,53.2c24.6,0,43.3-10.2,59-23.7c15.7,13.5,34.4,23.7,59,23.7c41,0,65.6-28.3,87.4-53.2
	c15.5-17.8,30.2-34.7,48.6-38.7V102.5L499.9,102.5z M443.4,139.6c-21.3,24.4-43.2,49.6-79.5,49.6c-5.4,0-10.4-0.6-15.2-1.6
	c17.4-10.4,31-26,44.2-41.1c14.3-16.4,27.9-31.9,44.2-37.5c2.7-0.9,7.3-1.4,10.1-1.4h28.3C464.1,115.9,453.9,127.6,443.4,139.6
	 M134.2,107.7h28.3c2.8,0,7.4,0.5,10.1,1.4c16.4,5.5,30,21.1,44.2,37.5c13.2,15.1,26.8,30.7,44.2,41.1c-4.8,1-9.8,1.6-15.2,1.6
	c-36.2,0-58.2-25.2-79.5-49.6C155.9,127.6,145.8,115.9,134.2,107.7 M166.5,65.3c21.3-24.4,43.2-49.6,79.5-49.6
	c5.4,0,10.4,0.6,15.2,1.6c-17.4,10.4-31,26-44.2,41.1c-14.3,16.4-27.8,32-44.2,37.5c-2.7,0.9-7.3,1.4-10.1,1.4h-28.3
	C145.8,89.1,155.9,77.4,166.5,65.3 M475.6,97.2h-28.3c-2.8,0-7.4-0.4-10.1-1.4c-16.4-5.5-29.9-21.1-44.2-37.5
	c-13.2-15.1-26.8-30.7-44.2-41.1c4.8-1,9.8-1.6,15.2-1.6c36.2,0,58.2,25.2,79.5,49.6C453.9,77.4,464.1,89.1,475.6,97.2 M333.3,146.5
	c14.3-16.4,27.9-31.9,44.2-37.5c2.7-0.9,7.3-1.4,10.1-1.4h29.5c-11.5,8.2-21.7,19.8-32.2,31.9c-14.8,17-30.1,34.5-50.3,43.4
	c-8-3.6-15.3-8.5-22-14.1C320.1,161.7,326.8,154,333.3,146.5 M387.7,97.2c-2.8,0-7.4-0.4-10.1-1.4c-16.4-5.5-29.9-21.1-44.2-37.5
	c-6.5-7.4-13.2-15.2-20.6-22.4c6.7-5.7,14-10.6,22-14.2c20.2,9,35.5,26.5,50.3,43.4c10.5,12.1,20.7,23.8,32.2,31.9h-29.6V97.2z
	 M325.4,65.3c10.5,12.1,20.7,23.8,32.2,31.9H252.3c11.5-8.2,21.7-19.8,32.2-31.9c6.6-7.6,13.3-15.2,20.4-22.2
	C312.1,50.1,318.8,57.7,325.4,65.3 M276.5,58.4c-14.3,16.4-27.8,32-44.2,37.5c-2.7,0.9-7.3,1.4-10.1,1.4h-29.5
	c11.5-8.2,21.7-19.8,32.2-31.9C239.7,48.4,255,31,275.2,22c8,3.6,15.3,8.5,22,14.2C289.8,43.2,283,51,276.5,58.4 M222.2,107.7
	c2.8,0,7.4,0.5,10.1,1.4c16.4,5.5,30,21.1,44.2,37.5c6.5,7.4,13.2,15.2,20.6,22.4c-6.8,5.7-14,10.6-22,14.2
	c-20.2-9-35.5-26.5-50.3-43.4c-10.5-12.1-20.7-23.7-32.2-31.9h29.6V107.7z M284.5,139.6c-10.5-12.1-20.7-23.7-32.2-31.9h105.3
	c-11.5,8.2-21.7,19.9-32.2,31.9c-6.6,7.6-13.3,15.3-20.5,22.2C297.8,154.9,291.1,147.2,284.5,139.6"/>
<path d="M87,324.1h-9.7l-16.7-63.5h-0.3l-16.8,63.5H33.3l-21.2-82.6c-1.8-10-7.1-7-7.1-10.5v-3.6h32.6v3.8c0,3.4-6,1.8-6,7.5
	c0,1.7,0.4,3.6,1,5.6L44,291.8h0.3l12.1-45.3c-1.5-5.6-1.4-10.6-7.3-12.1c-1.1-0.3-2.2-1.4-2.2-2.9v-4.2h34.5v4.6c0,4.4-7,0.7-7,6.7
	c0,1.8,0.5,3.7,1,5.3L88,291.7h0.3l11.3-46.6c0.5-2.7,1.4-5.1,1.4-7.1c0-4.4-7-2.9-7-6.8v-4h22.7v4.1c0,4.3-4.9,0.8-7,8.4L87,324.1z
	 M142.1,257.5h-24.8v3.3c0,4.3,6.7,0.8,6.7,6.7v45.8c0,5.9-6.7,2.5-6.7,6.7v3.3h31.5V320c0-4.2-6.7-0.8-6.7-6.7V257.5z M121.5,238.6
	c0,5.9,4,11.2,10.3,11.2s10.3-5.3,10.3-11.2c0-5.9-3.9-11.2-10.3-11.2C125.5,227.4,121.5,232.7,121.5,238.6 M183.2,255.6
	c-13.3,0-23.8,8.5-23.8,19.9c0,21.3,31.1,20.1,31.1,33.4c0,6-4.4,10-11.5,10c-4.8,0-6.3-2.2-6.3-4.2c0-2.2,1.2-4,1.2-6
	c0-4.9-3.3-8.1-8.2-8.1c-6.4,0-9.3,4.5-9.3,9.6c0,9.2,9.8,15.1,22.9,15.1c15.1,0,27.7-8.8,27.7-24.4c0-19.7-31.1-18.2-31.1-31.9
	c0-4.9,3.3-7,6.9-7c4.4,0,5.9,1.2,5.9,3.2c0,1.5-0.7,2.8-0.7,4.7c0,4.5,3.3,7,7.9,7c5.2,0,8.5-3.6,8.5-8.6
	C204.3,258.7,191.4,255.6,183.2,255.6 M216.8,257.5v3.3c0,4.3,6.7,0.8,6.7,6.7v45.8c0,5.9-6.7,2.5-6.7,6.7v3.3h31.5V320
	c0-4.2-6.7-0.8-6.7-6.7v-43.4c2.3-3.2,5.3-5.2,8.9-5.2c4.8,0,6.7,4.1,6.7,10v38.6c0,5.9-4.8,2.5-4.8,6.7v3.3h27.7V320
	c0-4.2-4.8-0.8-4.8-6.7v-43.4c2.3-3.2,5.4-5.2,8.9-5.2c4.8,0,6.7,4.1,6.7,10v38.6c0,5.9-5.7,2.5-5.7,6.7v3.3h30.6V320
	c0-4.2-6.7-0.8-6.7-6.7V277c0-15.5-7.6-21.4-18-21.4c-7.5,0-12.6,2.9-18.2,7.5c-2.7-4.2-8.2-7.5-14.8-7.5c-6.2,0-11.6,2-16.4,6.4
	v-4.5H216.8z M382.1,289.6V287c0-16.2-7.9-31.4-28.1-31.4c-17.3,0-30.1,14.9-30.1,34.8s12.7,34.8,32.6,34.8
	c13.8,0,21.9-6.2,26.2-18.6l-5.9-4.2c-2.2,7.4-7.3,15.2-17.9,15.2c-11.1,0-14.4-11.9-14.4-22.6v-5.4L382.1,289.6L382.1,289.6z
	 M344.5,281.9c0-10.3,2.2-18.6,10.1-18.6c5.5,0,8.4,3.7,8.4,14.4v4.2H344.5z M430.2,257.5H416v-21.3l-11.5,0.4c-5.5,0.1-6,1.1-6,14
	c0,9.1-7.3,5.5-7.3,10v5.3h6.7v42.3c0,10.4,3.8,16.8,16.7,16.8c6.6,0,12.7-2.2,17-7.9l-4.4-4.2c-1.8,1.1-3.9,2.3-6.2,2.3
	c-3.6,0-5-2-5-5.3v-44h14.2L430.2,257.5L430.2,257.5z M475.9,257.5h-14.2v-21.3l-11.5,0.4c-5.5,0.1-6,1.1-6,14c0,9.1-7.3,5.5-7.3,10
	v5.3h6.7v42.3c0,10.4,3.8,16.8,16.7,16.8c6.6,0,12.7-2.2,17-7.9l-4.4-4.2c-1.8,1.1-3.9,2.3-6.2,2.3c-3.6,0-5-2-5-5.3v-44h14.2
	L475.9,257.5L475.9,257.5z M537.1,283.1c0-21.1-13.7-27.5-29-27.5c-13,0-20.7,6.9-20.7,14.4c0,5.5,3.4,8.9,8.7,8.9
	c4.7,0,8.1-2.5,8.1-7.9c0-1.4-0.3-2.6-0.3-4.1c0-3.3,1.9-5,5.4-5c9.3,0,9.6,8.8,9.8,18.2c-21,5.1-35.8,8.8-35.8,25.7
	c0,11.4,8.5,19.3,20.7,19.3c9.3,0,13.2-4.2,17.4-8.6c2.2,3.7,5.1,8.6,13.4,8.6c4.7,0,9.7-2.2,11.9-7.8l-3.2-2.5
	c-0.8,0.5-1.5,1-2.6,1c-3.8,0-3.8-4.1-3.8-7.6L537.1,283.1L537.1,283.1z M519,301.8c0,9.3-3.7,14.4-9.5,14.4c-5.2,0-7.1-5.1-7.1-11
	c0-12.5,8.9-17,16.6-17.9V301.8z M598.8,303.4c-1.4,7-4.9,14.1-13.3,14.1c-10.7,0-14.7-13.3-14.7-27.7c0-14.8,3.2-28,12.5-28
	c2.9,0,5.4,1,5.4,3.7c0,3.1-2.5,4.4-2.5,8.8c0,3.6,2.8,7,8.8,7s9.3-4.5,9.3-9.6c0-9.3-9.5-16.2-21.9-16.2
	c-17.8,0-30.7,14.9-30.7,34.8s12.9,34.8,30.4,34.8c8.8,0,19.4-2.9,22.9-17.1L598.8,303.4z"/>
</svg>
