<svg id="ead7fc4b-a3c7-4be9-9874-1f3abadc51e0" data-name="hurom_logo" xmlns="http://www.w3.org/2000/svg" viewBox="0 0 129.9983 22"><title>logo</title><path id="a7c260bb-3aba-4e02-ab8f-b67130279e06" data-name="logo" class="91971ea5-09f2-49f2-a17c-917ac75fb9ff" d="M67,0.245c-0.234,0-3-.007-3.222,0-10.327.093-9.823,6.434-9.823,6.609-0.007.005-.011,13.141-0.011,13.141a1.892,1.892,0,0,0,1.809,1.964H57.3a1.893,1.893,0,0,0,1.807-1.964V7.522c0.365-2.081,2.814-2.335,2.814-2.335h5.612s1.438-.112,1.438-2.409A2.35,2.35,0,0,0,67,.245M88.914,13.232c0,3.64-2.98,3.884-6.658,3.884s-6.666-.244-6.666-3.884V8.719c0-3.648,2.979-3.883,6.666-3.883s6.658,0.235,6.658,3.883v4.513ZM82.256,0c-6.53,0-11.822.891-11.822,7.417v7.105c0,6.535,5.292,7.419,11.822,7.419s11.811-.883,11.811-7.419v-7.1c0-6.527-5.284-7.417-11.811-7.417M32.178,2.2a1.882,1.882,0,0,0-1.8-1.959H28.83A1.886,1.886,0,0,0,27.023,2.2V15.362l0.03-.052c0.412,5.817,5.532,6.634,11.784,6.634,6.53,0,11.821-.883,11.821-7.419V5.378H50.653L50.658,2.2A1.889,1.889,0,0,0,48.852.241H47.307A1.891,1.891,0,0,0,45.493,2.2V13.182c-0.1,3.471-3.034,3.934-6.656,3.934-3.678,0-6.659-.467-6.659-4.11V2.2ZM128.2,21.915h-1.553a1.884,1.884,0,0,1-1.806-1.9589h0V9.488c-0.1-3.468-.745-4.622-4.36-4.622s-4.268,1.154-4.364,4.622V19.956a1.882,1.882,0,0,1-1.8018,1.9589H112.761a1.728,1.728,0,0,1-1.246-.543,2.0239,2.0239,0,0,1-.561-1.416V9.488c-0.1-3.468-.745-4.622-4.365-4.622s-4.264,1.154-4.359,4.622V19.956a1.886,1.886,0,0,1-1.81,1.959H98.869a1.886,1.886,0,0,1-1.808-1.959V8.365c0-6.526,3.006-8.332,9.528-8.332,3.091,0,5.381.414,6.946,1.533,1.565-1.119,3.856-1.533,6.946-1.533,6.527,0,9.521,1.806,9.521,8.332V19.956a1.881,1.881,0,0,1-1.8,1.9589H128.2ZM21.822,0.245H20.277a1.869,1.869,0,0,0-1.8,1.8c-0.006.069-.012,0.134-0.012,0.2V7.862a38.291,38.291,0,0,0-13.3.047h0V2.251A1.886,1.886,0,0,0,3.365.29H1.815A1.893,1.893,0,0,0,.007,2.251V20.039A1.886,1.886,0,0,0,1.8149,22H3.366a1.879,1.879,0,0,0,1.8-1.9548V13.052h0a38.4589,38.4589,0,0,1,13.3-.048v7.032A1.886,1.886,0,0,0,20.2709,22l0.0061,0h1.545a1.888,1.888,0,0,0,1.807-1.956V2.2A1.891,1.891,0,0,0,21.822.241" transform="translate(0 0)"></path></svg>