<?xml version="1.0" encoding="UTF-8"?>
<svg id="_レイヤー_2" data-name="レイヤー 2" xmlns="http://www.w3.org/2000/svg" viewBox="0 0 144.86 53.23">
  <defs>
    <style>
      .cls-1 {
        fill: #a3a3a3;
      }

      .cls-1, .cls-2, .cls-3 {
        stroke-width: 0px;
      }

      .cls-2 {
        fill: #fff;
      }

      .cls-3 {
        fill: #040001;
      }
    </style>
  </defs>
  <g id="pc">
    <g>
      <g>
        <path class="cls-1" d="M132.17,0H12.69c-.49,0-.97,0-1.46,0-.41,0-.81.01-1.22.02-.89.01-1.79.09-2.67.24-.88.15-1.73.43-2.53.83-.8.41-1.52.94-2.15,1.57-.64.63-1.16,1.36-1.57,2.16-.4.8-.68,1.65-.83,2.53-.15.88-.23,1.77-.24,2.66-.01.41-.01.82-.02,1.23v30.76c0,.41,0,.81.02,1.23.01.89.09,1.78.24,2.66.15.88.43,1.74.83,2.53.4.8.93,1.52,1.57,2.15.63.63,1.36,1.16,2.15,1.57.8.4,1.65.69,2.53.84.88.14,1.77.22,2.67.24.41,0,.82.01,1.22.01.49,0,.97,0,1.46,0h119.49c.48,0,.96,0,1.44,0,.41,0,.82,0,1.23-.01.89-.01,1.78-.09,2.66-.24.88-.15,1.74-.44,2.54-.84.8-.4,1.52-.93,2.15-1.57.63-.63,1.16-1.35,1.57-2.15.4-.8.68-1.65.82-2.53.15-.88.23-1.77.25-2.66,0-.41,0-.81,0-1.23.01-.48.01-.96.01-1.46V12.69c0-.49,0-.97-.01-1.45,0-.41,0-.82,0-1.23-.02-.89-.1-1.78-.25-2.66-.14-.88-.42-1.74-.82-2.53-.82-1.6-2.12-2.9-3.72-3.73-.8-.4-1.66-.68-2.54-.83-.88-.15-1.77-.23-2.66-.24-.41,0-.82-.01-1.23-.02-.48,0-.96,0-1.44,0Z"/>
        <path class="cls-3" d="M11.24,52.07c-.41,0-.8,0-1.2-.01-.83-.01-1.66-.08-2.49-.22-.77-.13-1.51-.38-2.2-.73-.69-.35-1.32-.81-1.86-1.35-.55-.54-1.01-1.17-1.36-1.86-.35-.69-.6-1.44-.72-2.21-.14-.82-.21-1.66-.22-2.5,0-.28-.02-1.22-.02-1.22V11.24s.01-.92.02-1.19c.01-.83.08-1.67.22-2.49.13-.77.37-1.52.72-2.21.35-.69.8-1.32,1.35-1.86.55-.55,1.18-1.01,1.87-1.36.69-.35,1.43-.59,2.2-.72.83-.13,1.66-.21,2.5-.22l1.2-.02h122.37l1.22.02c.83,0,1.66.08,2.47.22.77.13,1.52.38,2.22.73,1.38.71,2.5,1.84,3.21,3.22.35.69.59,1.43.71,2.19.14.83.22,1.67.23,2.51,0,.38,0,.78,0,1.18.01.5.01.97.01,1.45v27.85c0,.48,0,.96-.01,1.43,0,.43,0,.83,0,1.24-.02.83-.09,1.65-.23,2.47-.12.77-.37,1.52-.72,2.22-.35.68-.81,1.3-1.35,1.84-.54.55-1.17,1.01-1.86,1.36-.7.35-1.45.6-2.22.73-.82.13-1.65.21-2.49.22-.39,0-.8.01-1.19.01h-1.44s-120.94,0-120.94,0Z"/>
      </g>
      <g>
        <path class="cls-2" d="M54.78,22.03h-5.39l-1.29,3.82h-2.28l5.11-14.14h2.37l5.11,14.14h-2.32l-1.29-3.82ZM49.95,20.27h4.27l-2.11-6.2h-.06l-2.11,6.2Z"/>
        <path class="cls-2" d="M69.43,20.7c0,3.2-1.72,5.26-4.3,5.26-1.34.07-2.6-.63-3.24-1.8h-.05v5.11h-2.12v-13.72h2.05v1.72h.04c.68-1.17,1.94-1.87,3.28-1.82,2.62,0,4.34,2.07,4.34,5.26ZM67.25,20.7c0-2.09-1.08-3.46-2.73-3.46s-2.71,1.4-2.71,3.46,1.09,3.47,2.71,3.47,2.73-1.36,2.73-3.47h0Z"/>
        <path class="cls-2" d="M80.78,20.7c0,3.2-1.72,5.26-4.3,5.26-1.34.07-2.6-.63-3.24-1.8h-.05v5.11h-2.12v-13.72h2.05v1.72h.04c.68-1.17,1.94-1.87,3.28-1.82,2.62,0,4.34,2.07,4.34,5.26ZM78.6,20.7c0-2.09-1.08-3.46-2.73-3.46s-2.71,1.4-2.71,3.46,1.09,3.47,2.71,3.47,2.73-1.36,2.73-3.47Z"/>
        <path class="cls-2" d="M88.28,21.91c.16,1.4,1.52,2.32,3.38,2.32s3.07-.92,3.07-2.19c0-1.1-.77-1.76-2.61-2.21l-1.83-.44c-2.6-.63-3.8-1.84-3.8-3.81,0-2.44,2.13-4.12,5.15-4.12s5.04,1.68,5.11,4.12h-2.14c-.13-1.41-1.29-2.26-3-2.26s-2.87.86-2.87,2.12c0,1,.75,1.59,2.57,2.04l1.56.38c2.9.69,4.11,1.85,4.11,3.92,0,2.65-2.11,4.3-5.46,4.3-3.14,0-5.25-1.62-5.39-4.18h2.17Z"/>
        <path class="cls-2" d="M101.54,13.1v2.44h1.96v1.68h-1.96v5.69c0,.88.39,1.29,1.25,1.29.23,0,.47-.02.7-.05v1.67c-.39.07-.78.11-1.18.1-2.09,0-2.9-.78-2.9-2.78v-5.91h-1.5v-1.68h1.5v-2.44h2.13Z"/>
        <path class="cls-2" d="M104.63,20.7c0-3.24,1.91-5.28,4.89-5.28s4.89,2.04,4.89,5.28-1.89,5.28-4.89,5.28c-3,0-4.89-2.03-4.89-5.28ZM112.26,20.7c0-2.23-1.02-3.54-2.74-3.54s-2.74,1.32-2.74,3.54,1.02,3.54,2.74,3.54,2.74-1.3,2.74-3.54Z"/>
        <path class="cls-2" d="M116.16,15.54h2.02v1.76h.05c.28-1.13,1.32-1.91,2.48-1.86.24,0,.49.03.73.08v1.98c-.31-.09-.63-.14-.95-.13-1.18-.05-2.17.87-2.22,2.04,0,.11,0,.22.01.33v6.12h-2.12v-10.31Z"/>
        <path class="cls-2" d="M131.19,22.82c-.48,2.02-2.38,3.36-4.44,3.16-3,0-4.86-2.01-4.86-5.23s1.87-5.33,4.77-5.33,4.65,1.96,4.65,5.09v.73h-7.28v.13c-.13,1.48.96,2.78,2.44,2.91.11,0,.22.01.34,0,1.03.1,2-.49,2.38-1.45h2.01ZM124.04,19.75h5.16c.08-1.37-.97-2.54-2.34-2.61-.06,0-.13,0-.19,0-1.44,0-2.62,1.15-2.63,2.6,0,0,0,.01,0,.02Z"/>
      </g>
      <g>
        <path class="cls-2" d="M48.49,41l.09-1.09c.41.13.84.2,1.27.2.39,0,.54-.04.73-.3.46-.96.66-2.02.58-3.08,0-1.13-.35-1.45-1.24-1.45-.2,0-.43.01-.68.03-.48,1.95-1.27,3.8-2.35,5.49l-1.04-.56c1.01-1.46,1.76-3.09,2.19-4.81-.69.07-1.37.19-2.04.34l-.23-1.1c.76-.14,1.68-.26,2.53-.34.18-.83.3-1.67.39-2.52l1.23.14c-.11.76-.25,1.53-.43,2.28h.49c1.59,0,2.36.79,2.36,2.47.07,1.28-.18,2.56-.73,3.72-.29.55-.89.86-1.5.8-.54,0-1.08-.07-1.6-.2ZM52.52,34.25l.91-.61c1.27,1.22,2.03,2.88,2.14,4.64l-1.2.19c-.02-1.6-.69-3.12-1.85-4.21Z"/>
        <path class="cls-2" d="M59.73,41.18l-.25-1.13c.31.03.73.04.98.04,2.48,0,3.42-.7,3.42-1.74,0-.83-.54-1.3-1.74-1.3-1.31.12-2.53.72-3.43,1.68l-.96-.43c-.18-1.64.19-3.3,1.07-4.7l1.12.36c-.69.94-1.03,2.09-.95,3.26,1-.71,2.19-1.11,3.42-1.17,1.68,0,2.72.86,2.72,2.27,0,1.78-1.4,2.87-4.77,2.87-.16,0-.4-.01-.6-.01ZM58.57,32.86l.31-1.1c1.67.25,3.31.63,4.92,1.13l-.3,1.09c-1.61-.52-3.26-.89-4.94-1.12h0Z"/>
        <path class="cls-2" d="M68.74,40.31c1.29-.43,2.45-1.18,3.37-2.18-.73-.6-1.51-1.13-2.34-1.58l.69-.86c.84.43,1.63.93,2.38,1.5.6-.87,1.02-1.86,1.23-2.89h-3.19c-.73,1.19-1.66,2.25-2.73,3.14l-.91-.79c1.55-1.28,2.74-2.92,3.48-4.79l1.2.29c-.14.35-.28.71-.44,1.05h3.11l.89.41c-.44,3.46-2.74,6.41-6,7.67l-.73-.98ZM74.02,31.57l.7-.34c.36.48.65.99.89,1.54l-.79.36c-.2-.55-.47-1.08-.8-1.57ZM75.59,31.44l.71-.34c.36.49.67,1.02.91,1.58l-.79.34c-.21-.56-.49-1.09-.84-1.58h0Z"/>
        <path class="cls-2" d="M81.07,41.24l-.64-1.01c2.68-.43,4.59-2.82,4.41-5.52h-5.26v2.52h-1.27v-3.58h3.14v-1.84h1.27v1.84h2.34l1.15.33c-.15,3.56-1.34,6.28-5.15,7.28Z"/>
        <path class="cls-2" d="M88.66,33.72l.7-1.03c1.1.5,2.13,1.13,3.08,1.87l-.8,1.08c-.91-.76-1.91-1.4-2.98-1.92ZM88.9,39.9c3.11-.47,5.8-2.41,7.23-5.21l.83.93c-1.55,2.89-4.35,4.9-7.58,5.45l-.48-1.16Z"/>
        <path class="cls-2" d="M107.22,40.5h-7.88v-7.46h7.88v7.46ZM100.58,34.2v5.15h5.39v-5.15h-5.39Z"/>
        <path class="cls-2" d="M118.5,37.16h-8.86v-1.28h8.86v1.28Z"/>
        <path class="cls-2" d="M121.52,31.83h1.24v3.21c1.65.69,3.25,1.49,4.79,2.39l-.7,1.1c-1.3-.83-2.67-1.57-4.08-2.19v4.84h-1.24v-9.35ZM124.46,32.51l.74-.35c.36.53.66,1.1.89,1.7l-.81.36c-.2-.61-.47-1.18-.81-1.72ZM125.89,31.97l.75-.35c.38.53.7,1.1.94,1.7l-.81.36c-.22-.6-.52-1.18-.88-1.72h0Z"/>
      </g>
      <g id="_Group_" data-name=" Group ">
        <g id="_Group_2" data-name=" Group 2">
          <path id="_Path_" data-name=" Path " class="cls-2" d="M32.96,27.02c.03-2.26,1.21-4.34,3.14-5.53-1.22-1.74-3.19-2.8-5.31-2.87-2.23-.23-4.4,1.34-5.54,1.34s-2.91-1.31-4.8-1.28c-2.48.08-4.74,1.46-5.95,3.63-2.57,4.46-.65,11,1.81,14.61,1.23,1.76,2.68,3.73,4.56,3.66,1.85-.08,2.54-1.18,4.76-1.18s2.85,1.18,4.78,1.13c1.98-.03,3.23-1.77,4.42-3.55.89-1.26,1.57-2.65,2.02-4.12-2.35-.99-3.88-3.3-3.88-5.85Z"/>
          <path id="_Path_2" data-name=" Path 2" class="cls-2" d="M29.33,16.25c1.08-1.3,1.61-2.96,1.48-4.65-1.65.17-3.17.96-4.27,2.21-1.08,1.23-1.63,2.84-1.52,4.47,1.67.02,3.26-.73,4.31-2.04Z"/>
        </g>
      </g>
    </g>
  </g>
</svg>