<?xml version="1.0" encoding="UTF-8"?>
<svg id="_レイヤー_2" data-name="レイヤー 2" xmlns="http://www.w3.org/2000/svg" viewBox="0 0 144.86 53.23">
  <defs>
    <style>
      .cls-1 {
        fill: #4b9071;
      }

      .cls-1, .cls-2, .cls-3, .cls-4, .cls-5, .cls-6, .cls-7 {
        stroke-width: 0px;
      }

      .cls-2 {
        fill: #a3a3a3;
      }

      .cls-3 {
        fill: #35649f;
      }

      .cls-4 {
        fill: #b15f3f;
      }

      .cls-5 {
        fill: #fff;
      }

      .cls-6 {
        fill: #e5cb62;
      }

      .cls-7 {
        fill: #040001;
      }
    </style>
  </defs>
  <g id="pc">
    <g>
      <g>
        <path class="cls-2" d="M132.17,0H12.69c-.49,0-.97,0-1.46,0-.41,0-.81.01-1.22.02-.89.01-1.79.09-2.67.24-.88.15-1.73.43-2.53.83-.8.41-1.52.94-2.15,1.57-.64.63-1.16,1.36-1.57,2.16-.4.8-.68,1.65-.83,2.53-.15.88-.23,1.77-.24,2.66-.01.41-.01.82-.02,1.23v30.76c0,.41,0,.81.02,1.23.01.89.09,1.78.24,2.66.15.88.43,1.74.83,2.53.4.8.93,1.52,1.57,2.15.63.63,1.36,1.16,2.15,1.57.8.4,1.65.69,2.53.84.88.14,1.77.22,2.67.24.41,0,.82.01,1.22.01.49,0,.97,0,1.46,0h119.49c.48,0,.96,0,1.44,0,.41,0,.82,0,1.23-.01.89-.01,1.78-.09,2.66-.24.88-.15,1.74-.44,2.54-.84.8-.4,1.52-.93,2.15-1.57.63-.63,1.16-1.35,1.57-2.15.4-.8.68-1.65.82-2.53.15-.88.23-1.77.25-2.66,0-.41,0-.81,0-1.23.01-.48.01-.96.01-1.46V12.69c0-.49,0-.97-.01-1.45,0-.41,0-.82,0-1.23-.02-.89-.1-1.78-.25-2.66-.14-.88-.42-1.74-.82-2.53-.82-1.6-2.12-2.9-3.72-3.73-.8-.4-1.66-.68-2.54-.83-.88-.15-1.77-.23-2.66-.24-.41,0-.82-.01-1.23-.02-.48,0-.96,0-1.44,0Z"/>
        <path class="cls-7" d="M11.24,52.07c-.41,0-.8,0-1.2-.01-.83-.01-1.66-.08-2.49-.22-.77-.13-1.51-.38-2.2-.73-.69-.35-1.32-.81-1.86-1.35-.55-.54-1.01-1.17-1.36-1.86-.35-.69-.6-1.44-.72-2.21-.14-.82-.21-1.66-.22-2.5,0-.28-.02-1.22-.02-1.22V11.24s.01-.92.02-1.19c.01-.83.08-1.67.22-2.49.13-.77.37-1.52.72-2.21.35-.69.8-1.32,1.35-1.86.55-.55,1.18-1.01,1.87-1.36.69-.35,1.43-.59,2.2-.72.83-.13,1.66-.21,2.5-.22l1.2-.02h122.37l1.22.02c.83,0,1.66.08,2.47.22.77.13,1.52.38,2.22.73,1.38.71,2.5,1.84,3.21,3.22.35.69.59,1.43.71,2.19.14.83.22,1.67.23,2.51,0,.38,0,.78,0,1.18.01.5.01.97.01,1.45v27.85c0,.48,0,.96-.01,1.43,0,.43,0,.83,0,1.24-.02.83-.09,1.65-.23,2.47-.12.77-.37,1.52-.72,2.22-.35.68-.81,1.3-1.35,1.84-.54.55-1.17,1.01-1.86,1.36-.7.35-1.45.6-2.22.73-.82.13-1.65.21-2.49.22-.39,0-.8.01-1.19.01h-1.44s-120.94,0-120.94,0Z"/>
      </g>
      <path class="cls-5" d="M75.25,18.55c-2.51,0-4.55,1.9-4.55,4.53s2.04,4.53,4.55,4.53,4.55-1.92,4.55-4.53-2.04-4.53-4.55-4.53ZM75.25,25.82c-1.37,0-2.56-1.13-2.56-2.75s1.18-2.75,2.56-2.75,2.56,1.12,2.56,2.75-1.18,2.75-2.56,2.75ZM65.33,18.55c-2.51,0-4.55,1.9-4.55,4.53s2.04,4.53,4.55,4.53,4.55-1.92,4.55-4.53-2.04-4.53-4.55-4.53ZM65.33,25.82c-1.37,0-2.56-1.13-2.56-2.75s1.18-2.75,2.56-2.75,2.56,1.12,2.56,2.75-1.18,2.75-2.56,2.75ZM53.53,19.94v1.92h4.6c-.14,1.08-.5,1.87-1.05,2.42-.67.67-1.72,1.41-3.55,1.41-2.83,0-5.04-2.28-5.04-5.11s2.21-5.11,5.04-5.11c1.53,0,2.64.6,3.47,1.37l1.36-1.36c-1.15-1.1-2.68-1.94-4.82-1.94-3.88,0-7.14,3.16-7.14,7.03s3.26,7.03,7.14,7.03c2.09,0,3.67-.69,4.91-1.97,1.27-1.27,1.66-3.05,1.66-4.5,0-.45-.03-.86-.1-1.2h-6.47ZM101.78,21.43c-.38-1.01-1.53-2.88-3.88-2.88s-4.27,1.84-4.27,4.53c0,2.54,1.92,4.53,4.5,4.53,2.08,0,3.28-1.27,3.77-2.01l-1.54-1.03c-.51.75-1.22,1.25-2.23,1.25s-1.73-.46-2.2-1.37l6.06-2.51-.21-.51ZM95.61,22.94c-.05-1.75,1.36-2.64,2.37-2.64.79,0,1.46.39,1.68.96l-4.05,1.68ZM90.68,27.33h1.99v-13.31h-1.99v13.31ZM87.42,19.56h-.07c-.45-.53-1.3-1.01-2.38-1.01-2.26,0-4.34,1.99-4.34,4.55s2.08,4.51,4.34,4.51c1.08,0,1.94-.48,2.38-1.03h.07v.65c0,1.73-.93,2.66-2.42,2.66-1.22,0-1.97-.88-2.28-1.61l-1.73.72c.5,1.2,1.82,2.68,4.01,2.68,2.33,0,4.31-1.37,4.31-4.72v-8.13h-1.89v.74ZM85.14,25.82c-1.37,0-2.52-1.15-2.52-2.73s1.15-2.76,2.52-2.76,2.42,1.17,2.42,2.76-1.06,2.73-2.42,2.73ZM111.11,14.02h-4.76v13.31h1.99v-5.04h2.77c2.2,0,4.37-1.59,4.37-4.13s-2.16-4.13-4.37-4.13ZM111.16,20.44h-2.83v-4.56h2.83c1.49,0,2.33,1.23,2.33,2.28s-.84,2.28-2.33,2.28ZM123.44,18.52c-1.44,0-2.93.63-3.55,2.04l1.76.74c.38-.74,1.08-.98,1.82-.98,1.03,0,2.07.62,2.09,1.71v.14c-.36-.21-1.13-.51-2.07-.51-1.9,0-3.84,1.04-3.84,3,0,1.78,1.56,2.93,3.31,2.93,1.34,0,2.07-.6,2.54-1.3h.07v1.03h1.92v-5.1c0-2.36-1.76-3.68-4.04-3.68ZM123.2,25.82c-.65,0-1.56-.33-1.56-1.13,0-1.03,1.13-1.42,2.11-1.42.87,0,1.28.19,1.82.45-.15,1.23-1.22,2.11-2.36,2.11ZM134.47,18.81l-2.28,5.77h-.07l-2.36-5.77h-2.14l3.55,8.07-2.02,4.49h2.07l5.46-12.56h-2.21ZM116.57,27.33h1.99v-13.31h-1.99v13.31Z"/>
      <g>
        <path class="cls-4" d="M24.75,27.78l-11.34,12.03s0,0,0,0c.35,1.31,1.54,2.27,2.96,2.27.57,0,1.1-.15,1.55-.42l.04-.02,12.76-7.36-5.97-6.5Z"/>
        <path class="cls-6" d="M36.22,25.73h-.01s-5.51-3.2-5.51-3.2l-6.21,5.52,6.23,6.23,5.48-3.16c.96-.52,1.61-1.53,1.61-2.7s-.64-2.17-1.6-2.69Z"/>
        <path class="cls-3" d="M13.41,16.98c-.07.25-.1.52-.1.79v21.27c0,.27.04.54.1.79l11.73-11.73-11.73-11.11Z"/>
        <path class="cls-1" d="M24.83,28.4l5.87-5.87-12.75-7.39c-.46-.28-1-.44-1.58-.44-1.42,0-2.61.96-2.96,2.27,0,0,0,0,0,0l11.42,11.42Z"/>
      </g>
      <g>
        <path class="cls-5" d="M47.99,35.99c.78-.06,2.31-.2,4-.34.95-.08,1.96-.14,2.62-.17v1.19c-.49,0-1.29,0-1.78.13-1.12.3-1.96,1.49-1.96,2.59,0,1.53,1.43,2.08,3,2.16l-.43,1.27c-1.95-.13-3.78-1.17-3.78-3.18,0-1.33.75-2.39,1.38-2.86-.87.09-2.76.3-3.83.53l-.12-1.27c.37,0,.73-.03.91-.05ZM54.04,38.83l-.7.31c-.23-.51-.43-.87-.72-1.29l.68-.29c.23.33.57.9.74,1.26ZM55.11,38.38l-.69.33c-.25-.5-.46-.84-.76-1.25l.68-.31c.23.32.58.87.78,1.23Z"/>
        <path class="cls-5" d="M64.39,40.36h-3.66v1.51c0,.66-.17.94-.6,1.12-.44.17-1.11.2-2.06.19-.07-.31-.28-.8-.45-1.09.69.03,1.46.03,1.67.03.21,0,.3-.07.3-.26v-1.49h-3.66v-1.07h3.66v-1.08h-3.03v-1.06h3.03v-1.08c-.96.08-1.94.14-2.84.18-.03-.29-.17-.73-.28-.97,2.23-.09,4.77-.34,6.29-.74l.8.92c-.82.21-1.8.37-2.82.49v1.21h3.11v1.06h-3.11v1.08h3.66v1.07Z"/>
        <path class="cls-5" d="M67.24,36.12c-.12.62-.44,2.47-.44,3.4,0,.18,0,.42.04.6.14-.31.29-.64.42-.94l.57.45c-.26.77-.57,1.78-.67,2.27-.03.14-.05.34-.05.44,0,.1,0,.25.02.38l-1.07.07c-.18-.64-.36-1.77-.36-3.03,0-1.39.29-2.95.39-3.67.03-.26.08-.61.09-.91l1.3.11c-.07.19-.19.66-.23.82ZM69.53,40.65c0,.41.35.66,1.3.66.82,0,1.51-.07,2.32-.24l.02,1.25c-.6.11-1.34.18-2.39.18-1.59,0-2.36-.56-2.36-1.52,0-.36.06-.73.16-1.2l1.07.1c-.07.31-.11.53-.11.78ZM72.88,35.9v1.19c-1.14.1-2.82.11-3.98,0v-1.19c1.14.16,2.98.11,3.98,0Z"/>
        <path class="cls-5" d="M79.42,35.06c0,1.75.25,5.13,3.66,7.14-.24.19-.7.68-.89.96-1.92-1.16-2.9-2.91-3.41-4.57-.69,2.07-1.81,3.61-3.42,4.58-.2-.23-.72-.69-1.01-.9,1.93-.97,3.03-2.76,3.54-5.2l.56.1c-.06-.35-.1-.69-.13-1h-2.11v-1.12h3.2Z"/>
        <path class="cls-5" d="M85.68,34.88l1.35.05c-.06.26-.14.73-.2,1.31l.34.44c-.13.17-.32.47-.47.71,0,.07,0,.13-.02.2.73-.64,1.8-1.39,2.7-1.39,1,0,1.45.59,1.45,1.37,0,.96-.31,2.33-.31,3.28,0,.24.12.42.35.42.34,0,.78-.24,1.2-.67l.15,1.31c-.43.4-.99.69-1.74.69-.69,0-1.16-.5-1.16-1.4,0-1,.33-2.36.33-3.21,0-.45-.24-.69-.63-.69-.69,0-1.69.85-2.45,1.69,0,.26-.02.51-.02.75,0,.76,0,1.54.06,2.41,0,.17.04.5.07.71h-1.28c.02-.21.03-.54.03-.69.02-.72.03-1.26.04-2.04-.39.58-.84,1.26-1.17,1.7l-.73-1.01c.53-.65,1.45-1.87,1.98-2.65.02-.21.04-.44.05-.66-.45.06-1.17.15-1.69.22l-.12-1.19c.27,0,.48,0,.81,0,.27-.02.68-.06,1.07-.12.02-.35.04-.61.04-.71,0-.27,0-.55-.04-.83Z"/>
        <path class="cls-5" d="M97.66,36.04c0,.21,0,.44,0,.68.74,0,1.83-.05,2.59-.14l.04,1.1c-.78.06-1.87.11-2.62.13.02.56.06,1.3.1,1.98,1.18.34,2.18.99,2.82,1.58l-.71,1.1c-.53-.53-1.22-1.07-2.05-1.45,0,.12,0,.23,0,.32,0,.82-.42,1.6-1.97,1.6-1.32,0-2.41-.44-2.41-1.7,0-.96.82-1.73,2.53-1.73.18,0,.37,0,.55.03-.03-.72-.06-1.51-.06-2,0-.56,0-1.11,0-1.51-.02-.45-.05-.85-.1-1.08h1.4c-.05.27-.07.72-.08,1.08ZM95.76,41.82c.59,0,.81-.26.81-.88,0-.08,0-.19,0-.32-.24-.04-.5-.06-.76-.06-.72,0-1.16.25-1.16.65,0,.45.47.62,1.12.62Z"/>
        <path class="cls-5" d="M105.99,38.25c-1.02,0-1.94.32-2.41.45-.27.07-.63.22-.9.32l-.35-1.32c.31-.03.71-.09,1.02-.16.68-.16,1.71-.43,2.8-.43,1.46,0,2.49.83,2.49,2.29,0,1.98-1.83,3.21-4.41,3.57l-.67-1.15c2.3-.26,3.78-1.02,3.78-2.46,0-.61-.48-1.11-1.35-1.11ZM107.86,35.33l-.19,1.14c-1.08-.07-3.09-.26-4.16-.44l.18-1.11c1.08.23,3.18.41,4.16.42Z"/>
      </g>
    </g>
  </g>
</svg>