<svg height="10.019531pt" viewBox="0 0 75.605469 10.019531" width="75.605469pt" xmlns="http://www.w3.org/2000/svg"><g fill="#231f20"><path d="m21.019531 6.269531.12109.128906.11719.113282.082.0625.0352.02734.14844.08984.0898.01172.21094-.09375.0195-.02734.0469-.03906.10938-.08594.10156-.08594.0508-.03906.0508-.04297.12891-.09375.0352-.04688.10546-.07031.0586-.121094v-.07422l-.0274-.07813-.0312-.04687-.0625-.03125-.0391-.04297-.0469-.03906-.0312-.01953-.0508-.04297-.0586-.05078-.0117.0039-.19922-.179687-.23437-.207032c-.125-.109374-.24219-.222656-.36328-.335937l-.0703-.07031-.19922-.179687c-.16016-.148437-.28125-.34375-.44922-.488281l-.15625-.175782-.11719-.160156-.12891-.203125-.0937-.132812-.0586-.121094-.0664-.101563-.0703-.171874-.004-.01172h.12109l.40234.0078c.25391.0078.51172.01563.76172.01953.11719.0039.23047.0039.34375.01172h.0664l.0273.01563.32031.0078.0977-.04297.008-.0078.0859-.117188.0195-.125v-.07813l-.004-.03125v-.09375l.0117-.414063-.043-.08984-.008-.01172-.10937-.07813-.17969-.01563-.24609.01172h-.11328l-.23047.0078-.10938.0078h-.14062l-.26563.01172-.0312.0039-.17969.0078-.10937-.0039h-.0352l-.40625.0078-.004-.05859.008-.02734v-.121094l.0117-.164062.0273-.390625.008-.105469.004-.05078.0391-.210938.0352-.191406.004-.02344.008-.121094.0312-.179688-.10938-.183594.008.01172-.24219-.08203-.28516-.02344h-.17187l-.14844-.01172-.10938-.01172-.11718-.01172-.0625-.0039-.0977.04297-.0117.0078-.0664.09375-.0312.148438v.910156l-.0117.07422v.05859l-.004.136718-.008.144532v.06641l-.004.03125v.09375l-.0156.144531-.0899.01172-.0508-.0039h-.85937l-.0312-.0078-.10938.0039-.14844-.0078-.0312-.0039h-.44531l-.10937-.01562h-.0664l-.11719-.0078h-.0547l-.0312-.01563-.25782-.0078-.0976.04297-.0117.01172-.0937.226563v.02344l-.0156.226563c-.008.128906-.008.261718-.008.390624l.0195.02344.0312.07422.0312.03906.0274.01172.0976.05469.30469-.01172.22656-.0078.31641-.01563.16015-.0039.0312-.0039h.0664c.125 0 .24609-.01563.37109-.01563l.0312-.0039h.0664l.14453-.0078.25781-.0078.0586.0039-.008.05078c-.0312.148438-.10547.339844-.16407.476562l-.0351.07422c-.0586.132813-.1211.265625-.1836.398438l-.0859.1875-.0312.07422-.0742.136718-.0586.140625-.0625.109375-.0351.04297-.1211.226563-.0976.160156-.10547.175781-.0899.15625-.13281.195313-.12109.160156-.0469.06641-.125.171875-.14843.195313c-.0703.101562-.16797.214843-.25.304687l-.1836.199219-.0195.01953-.15234.160156-.14844.148438c-.10547.105469-.23438.21875-.34766.324219l-.11328.09766-.16406.128906-.0664.05078.0117-.01953-.0898.136719v.05469l.0117.02734.0664.09766.16407.07813.22265.08594c.0899.03125.17969.07422.26953.113281l.20313.06641.0195.01172.043.02344.0547.0078.1875-.01953.10546-.105469.14454-.148437.14062-.1875.10938-.167969.125-.132813c.082-.109375.1875-.207031.23437-.339844.0352-.109374.125-.191406.18359-.292968l.0625-.113282.0977-.117187.0781-.152344.0898-.171875.12109-.207031c.10547-.171875.23438-.355469.3125-.546875l.11328-.203125.0625-.09766.0274-.07422.0391-.03516.0547-.136719-.0117.01172.043-.05469.004-.01563.0156-.02734v-.0078l.0117-.02734.0351-.03516.0547-.125-.008.101563v.183593l-.0117.234375c-.008.113282-.0156.222656-.0234.335938l-.008.136718-.004.03125-.0273.679688-.0195.222656-.008.101563-.0117.08203-.0156.183594-.0469.414062-.0117.07813-.0156.167969-.0117.07422-.008.08203-.0273.21875-.008.07422-.0274.183593-.0234.160157-.0156.167969-.008.08594-.0274.199219-.0312.214844c-.0195.140624-.0273.28125-.0508.417968l-.0273.125v.01172l.16406.222656.14844.0039c.13672.0039.27344.0078.41016.01562l.0859.0039.23828.0078.29297.0078.0742.0078.0664-.01953.0273-.01563.0547-.05078.0391-.06641.0234-.05859v-.06641l-.004-.03125-.004-.160156v-.07422l.004-.347657c0-.09375 0-.1875 0-.28125.004-.15625.0117-.3125.0117-.464843v-.113282l.0117-.210937v-.08594l.008-.04687v-.226562l.0117-.222656.008-.09766v-.140612l.01619-.238281.004-.03906v-.238281l.004-.0625.0195-.21875.008-.148437.008-.140625v-.05469l.0117-.132812v-.05078l.004-.03125v-.121094l.008-.242188.0117-.207031-.008.03516.008-.125.004-.05859.008-.128907v-.05859l.0117-.03125v-.191407l.0117-.04687.0273-.07422.0195.05469.043.101563.0508.07812.0234.03516.0274.04687.0273.04297.0195.01953.14063.207031.0859.125.10157.179687.13281.1875.0703.07813.11328.171874.12891.160157zm0 0"/><path d="m30.406251 7.535156-.0781-.05469-.0508-.03125-.0586-.05078-.15625-.101562-.15235-.125-.16406-.132812-.12109-.101563-.0859-.07031-.10547-.08984-.21875-.175781-.16797-.140626-.0976-.07812-.17188-.152344c-.18359-.160156-.36719-.328125-.53515-.503906l-.20704-.195313-.0703-.07422-.0742-.07031-.15234-.164063c-.19531-.207031-.39453-.417969-.58594-.632812-.082-.09375-.14453-.195313-.23828-.273438l-.125-.140625-.0898-.132812-.0586-.08594c-.11328-.199218-.24218-.398437-.38281-.578125l-.0625-.140625-.0273-.05469-.0312-.1875h.61328l.5625.01563c.28906.0078.58203.0078.87109.03125l.20703.01563h.1211l.0469.01172.0703-.02344.0742-.05859.043-.06641.0117-.03516.0117-.03125-.008-.707032-.0195-.06641-.0195-.02734-.0508-.05469-.0625-.03906-.11718-.01562.0117-.0039c-.17187-.0078-.34765.02344-.52343.02734l-.0859.0039c-.22266.02344-.44531.01563-.66797.02734-.125 0-.25.01563-.37891.01172l-.0976-.0039h-.73828l.0273-1.332032c0-.113281.0195-.226562.0195-.339844l-.004-.05078-.0391-.08594-.008-.01563-.125-.09375c-.0586-.03516-.14453-.03906-.26562-.03516h-.8086l-.0937.04297-.0117.0078-.0781.113281-.0234.222656.0195.25.008.03516.0391.929687.004.351563v-.0039l-.004.0039h-.36719c-.17578-.0039-.34766-.0078-.52344-.0078l-.2539-.0078.0195.0039c-.14844-.0078-.29688-.02734-.44141-.03125-.0937-.0039-.1875-.01563-.28125-.01953l-.0586.01562-.0391.01563-.0703.07031h.008l-.0586.101562v.707032l.043.08984.008.01562.1211.08594.0312.01172h.10156c.1875-.01172.37109-.03125.55859-.03125.13672 0 .26953-.01172.40625-.01563l.20703-.0078c.0937.0039.19141-.0078.28907-.0078l.23046.0039-.0156.02734c-.004.226562-.11328.4375-.18359.644531l-.0234.06641-.0312.07031-.0312.05469-.0508.140625-.10938.222657-.0664.152343-.0274.04687-.0391.08203-.10547.144531-.0859.1875-.0508.08594-.0586.07422-.125.222656-.0547.07422-.16016.230469-.0703.09375-.0117.0078-.0508.07813-.0859.09766c-.0781.125-.17968.226563-.27343.339844l-.21485.238282-.17968.183593-.0664.07813-.0469.05469-.082.07031-.13672.121094-.23828.21875-.14062.09375-.0937.09375-.15625.105469-.16406.105469-.23438.136718c-.0742.03906-.17187.08594-.17187.183594v.0625l.043.09375.0547.04297.0781.03125.16015.05859.11719.05859c.10547.03906.21094.08594.32031.117188.0977.02734.1875.08984.28907.105468.10937.01953.24609-.04687.30468-.136718l.043-.03125.082-.06641.10547-.08984c.11328-.109375.21875-.226563.32813-.339844l-.0195.01953.21093-.246093c.12891-.164063.26563-.316407.39453-.476563l.14844-.199219.11328-.152344.0664-.105468.10547-.113282.11719-.160156.10156-.171875.10937-.164062.0781-.113281.0469-.05078.0781-.144531.0976-.128906.043-.06641.0664-.09375.0391-.07031.0977-.140625.0117-.01953.004.01953v.07422l.008.21875.008.121094v.117187l.008.03125v.199219l.008.03125v.07031l.008.144532.004-.03516v.25l.0117.144531v.230469l.004.03125.004.128907v.40625l-.008 1.230468-.004.125-.008.515625.004.05078-.004.136719-.008.04297c0 .1875-.0391.355469.0781.511719l.0586.04297c.0937.03516.17187.02344.27344.01953l.24609-.0039c.0977 0 .19531-.0039.28906-.0078.14453-.0039.28906 0 .42969-.01953.10547-.01563.19531-.07031.22266-.183594l.0117-.03516-.0117-.140625c-.0195-.191406-.0391-.386719-.0547-.585938l-.0195-.246094-.008-.09375c-.0234-.242187-.0391-.488281-.0547-.734374-.0117-.230469-.0312-.464844-.043-.695313-.0117-.15625-.0195-.3125-.0312-.464844l-.0195-.257812.004.03125c-.008-.175781-.0117-.347657-.0156-.523438l-.004-.07422-.004-.02734c-.0117-.214844-.0312-.425781-.0391-.640625l-.008-.195313v-.07031l.008.01172.0156.02734.0195.0078.0195.05469.0547.06641.11719.152343.11328.167969.19922.230469.0391.06641c.0781.113281.18359.207031.26562.316406.10157.132813.20313.265625.31641.386719l.23047.269531.0976.109375c.1836.21875.36719.441406.56641.648438l.0977.08984-.0156-.01953.17188.1875.0703.0625.0586.06641.10547.09766.15625.144531.0352.04297.0312.01953.10547.06641.0469.01172.0312.01172.1211-.01172.0156-.0039c.13281-.06641.28125-.117188.42188-.171875.14843-.0625.30468-.121094.45703-.175782.10937-.03906.36328-.105468.36328-.253906v-.0625zm0 0"/><path d="m45.406251 7.640625-.008-.05469-.0117-.01172-.11328-.125-.16797-.06641-.17969-.05078-.21094-.101562c-.0976-.03516-.1914-.07813-.28515-.125l-.22657-.117188-.23047-.09375-.21875-.113281-.38281-.210937-.0273-.01563-.0391-.01172-.0156-.01172-.082-.03906-.0547-.04687-.0547-.01953-.0195-.01953-.0351-.0078-.0937-.05469-.0274-.02734-.043-.01953-.0391-.02344h-.0195l-.0273-.01562-.0625-.05078-.0937-.05859-.0664-.05859-.11719-.08984-.0195-.0039-.0273-.01953-.0469-.04297-.3125-.21875c-.12109-.09375-.23437-.191407-.34765-.296875-.21875-.214844-.42578-.441406-.63282-.664063-.0976-.109375-.21875-.207031-.28906-.335937l.11328-.05859.0703-.03125.0508-.03516.0469-.02344.0195-.0039.0391-.01563.0625-.04297.0664-.03125.0195-.01563.0156-.0078.0312-.01953-.004.01172.0156-.01563.0586-.01953.0703-.05078.19141-.117188.0508-.03125.21875-.148437.20703-.144532.008-.01953.0312-.01172.0274-.01562.008-.01953.0547-.02344.008-.01953.0312-.01563.0352-.02734.0273-.01563.008-.01953.0312-.01172.0703-.05469.0156-.0039-.0195.01563.0273-.01172.0625-.04687.004-.01172.0156-.0039h-.008l.004-.0078.0351-.02734.0586-.03516.008-.0039.0195-.01172.0156-.02344.0273-.01172.0859-.05469.0156-.02734.0274-.01172.008-.01953.0312-.01563.0234-.0078.008-.01563.0312-.02344.0273-.01563.008-.01563.0273-.0078.0586-.03516.0508-.03125.043-.03516.008-.0039.125-.07031.0742-.08594.0469-.03516.0508-.03906.0469-.03125.0312-.03906.0351-.05078-.008-.02734-.0742-.175782-.0625-.04297-.10156-.05469-.0352-.0078-.0156-.02344-.0234-.0039-.0703-.03516-.0117-.0078-.0586-.02734-.0586-.03125-.0664-.03906-.0351-.0078-.0352-.01953-.0469-.02344-.0352-.02344-.0547-.01953-.0547-.02734-.0508-.03516-.0742-.02344-.11329-.05469h-.0781l-.0664.02344-.0547.03516-.0195.01563-.18359.195312-.0937.08594-.0195.03516-.16016.148437c-.23047.265626-.5.492188-.78906.695313-.14453.101563-.29297.195313-.44531.289063-.10156.0625-.30078.230468-.42969.21875-.12109-.0078-.1875-.191407-.24609-.28125-.0586-.09375-.36328-.46875-.32032-.578126l-.0156-.03125-.0234-.03906-.0156-.03906-.004-.03516-.0117-.02344-.008-.04687-.0195-.183594.0117-.429687.008-.378907v-.07422l.008-.160156v-.390625l.0391-.476562-.0195-.07813-.0195-.02734-.0117-.02344-.0586-.05078.008.01172-.0937-.05469-1.0664-.0625-.0977.03906-.0117.0078-.0781.101562-.0274.136719.0117.09375.004.25-.004.125.0117 1.59375-.0273 4.257812v1.503907l-.008.08984v.09375l-.008.203125-.004.03516v.03516c-.043.125-.10546.1875-.24218.238281l-.0703.0078-.0976.01172-.17188.0078-.14453-.01563c-.10937-.0039-.22265-.01172-.33203-.02344l-.16797-.02734c-.11826-.023522-.28622-.089928-.3956-.011803l-.0547.04297-.0508.08203.004.0078.0312.148438.0195.03125.0469.07813.008.03125.0351.07031.0508.105469.0352.07422.0547.109375.0273.04297.0391.05859.0195.07031.10546.117187c.14063.07813.3125.05859.46875.06641.10157.0039.20704.0039.3125.0078h.17171c.46875.0039.95312.0078 1.26953-.183594l.15234-.07813.10157-.113281.0351-.03516.0156-.02344-.004-.0039.0117-.01563.0625-.07813.0117-.03906.0234-.04688.0742-.222656.004-.02734.0117-.164062.008-.316406-.008-.699219-.0117-.589844.004-.09375-.0117-.191406v-.242187c0-.261719 0-.523438-.004-.785157 0-.300781 0-.601562-.004-.902343 0-.15625 0-.3125 0-.46875l.10547.128906.0469.08203.008-.0039.0937.140625.10938.125c.0547.109375.13281.160156.21094.253906.082.101562.14062.222656.22656.320312.12109.140626.23047.285157.37109.40625l-.0156-.01562c.12109.238281.3789.390624.57031.5625l-.0117-.01172c.23828.296875.60938.535156.90234.777343.28907.246094.61719.410157.94141.601563.16406.09766.35938.25.54688.296875l.0351.01172.0352.01563.0469.03125.0586.02344.15234.06641.19141.07031.22656-.05078.0352-.03516.0625-.04297.0195-.02734.0234-.01563.0117-.01563.0274-.01563.0273-.01172.008-.01953.0312-.01563.0508-.03125.14454-.08594.23828-.171874.13281-.105469.17969-.140625.0156-.01563.0352-.09766zm0 0"/><path d="m36.335941 5.777344.0625-.07422.10156-.128906.12109-.179688-.008.0078.125-.167969c.0586-.09766.13281-.195312.1875-.296875.12891-.222656.28125-.421875.40234-.652344.125-.238281.23438-.480469.36328-.710937.0781-.136719.12891-.289063.17969-.4375l.0742-.167969.0234-.05859.0195-.04687.0195-.04297c0-.117188-.0156-.191407-.12109-.265626l-.19141-.152343-.0234-.0039-.0234-.01562-.10157-.07422-.0351-.01172-.0664-.01953c-.21484-.01172-.4375 0-.65234.0078-.56641.02344-1.13672.109375-1.70703.08203-.22266-.01172-.4375-.01953-.66016-.02734l-.043-.0078h-.12109l-.14453-.01172-.28125-.01953-.0977.04297-.0117.01172c-.0547.07813-.10156.144531-.10156.242187v.08984l.004.03906v.109374l-.0117.449219.043.09375.008.0078.10937.07422.21094.01172c.58203-.02344 1.21094-.0625 1.80469-.109375l.66797-.05859.0508-.0078.004.05859-.0508.117187-.0469.08984-.008.04687-.0117.01172-.008.01563-.0312.07813v-.01563c-.0547.171875-.15625.332031-.24218.488281-.10547.191406-.19922.40625-.33594.574219l-.0742.09766-.11719.101562c-.13281.199219-.32031.378907-.49219.546876-.19531.183593-.40625.339843-.62109.5-.11328.08594-.21875.175781-.33594.25l-.28125.148437c-.13281.02734-.26953.15625-.38672.21875-.14062.07422-.27343.160156-.41406.226563-.1914.08984-.37109.191406-.5625.289062-.16797.08594-.36328.140625-.51562.253906l-.10547.05469-.0312.05078-.0117.04687v.07813l.0469.09766.0352.02734-.008-.01563.082.0625c.10156.02734.19531.113281.28906.167969l.1836.109375.21875.128906c.0976.05859.17968.136719.28906.175781.10937.03906.1914-.0039.29687-.03125l.0352-.02344.0391-.01563.0274-.0078.0586-.03906.0508-.01953.0195-.0039c.14844-.03906.28125-.148437.41406-.226562.125-.07422.24219-.15625.36329-.238282.10546-.07812.21484-.175781.32812-.242187.17188-.105469.32813-.246094.46875-.382813.12109-.121093.25-.230468.37109-.347656.12891-.128906.25391-.265625.37891-.394531l-.0156.01563c.0859-.08203.15625-.171875.22656-.261719l.0976-.117187.11329-.125zm0 0"/><path d="m67.410151 6.589844-.004-.199219.0234-.167969.28125-.01563h5.46484l.20703.02344.0312.199218.004-.03516v.128906l.0117.03906v.08984l-.008.199219-.10156.0039h-1.93359c-.36719 0-.73438 0-1.09766-.0039h-1.08594c-.30859 0-.62109 0-.92968 0-.21485 0-.42969 0-.64844 0l-.23438-.05859.0117-.101563.008-.101562m5.85951-1.886709.0273.0625c.008.109375.0156.210938.0195.316406l.0156.15625-.19531.0078h-5.48438l-.0781.0039-.14844-.0078.008-.113281v-.328125l.004-.04687.0391-.03125.0352-.01172h.0273l.0312-.0078.0547-.01172h.26172.68359.95703c.36328 0 .72656-.0039 1.08594-.0039.35547 0 .71094 0 1.0625-.0039h.89453.57422zm-5.9375 3.773438-.0117-.210938.004-.207031-.004-.04687c0-.09375-.0156-.171875.10547-.175782h6.01172c.10156.02734.0742.113282.0781.195313l.004-.03125v.14062l.0117.08984.008.164062-.0273.08984h-.14453c-.0937.0039-.1836.0039-.27735.0039-.3789 0-.75781 0-1.13281 0-.45313 0-.90625 0-1.35547.0039-.38281 0-.76172 0-1.14062 0-.16016 0-.32032.0039-.48047.0039h-.67578c-.23047-.0039-.46094-.0039-.69532-.0039h-.23047l-.0469-.01562m7.85937 1.148437c-.0117-.289063-.12109-.59375-.16796-.878906-.0859-.507813-.17579-1.027344-.21875-1.542969l.004.01953c.0156-.296875-.0312-.589843-.0742-.882812-.0391-.273438-.0508-.546875-.0781-.820313-.0234-.246094-.0508-.492187-.0742-.742187-.008-.117188-.008-.238281-.0156-.359375l.004.03516v-.230469l-.008-.08984v-.08984c0-.109375-.0195-.242188-.15235-.304688l-.13281-.02344h-.0117l-.21484.01172-.33984.01172-.44922.01563h-.0508l-.57813.01953-.0937.0078-.082-.0039c-.13672 0-.27344.01172-.41406.01172h-1.83203l-.008-.0078-.004-.03906.0195-.0078.27344-.125c.11328-.04297.22656-.07422.33203-.121094.35547-.160156.74218-.265625 1.0664-.488281.1875-.136719.42969-.238281.64063-.34375.11719-.06641.40625-.148437.40625-.320313v-.01562l-.008-.0625-.0274-.05078c-.0859-.07813-.1875-.128906-.28515-.199218l-.0352-.02344-.0469-.02344-.082-.05078-.125-.07813h-.0273l-.15234.02344-.0625.03125-.125.07813-.008.0078-.0586.02734c-.17188.06641-.33203.171875-.50391.242187-.20703.08984-.45312.207032-.67187.25l-.0352.0078h.0117l-.0156.0078-.0469.01562-.0469.01953-.043.01953-.0508.01563-.008.0078-.0195.0039-.0312-.871094c0-.324219 0-.648437.0156-.96875.004-.144531.0195-.289063.0312-.433594l-.0117-.06641-.0195-.03516-.0547-.05859.004.0078-.082-.05859-.043-.01172-.21875-.01953-.14844-.0078-.10938-.01172-.0781-.0078-.0586-.01172-.0625-.0078.0312-.0039-.0977-.0078h-.0195l-.0547-.01563-.16797.03906-.0156.02344-.0586.06641-.008.03125-.0156.03516v.02734l.0117.179688-.004-.03125v.4375l-.008.05469v.230469l.004.05078.008.03516-.0117.234376v.08203l.004.117187v.125l-.008.128906-.004.03516v.07031l-.008.03125-.0117.09375-.0117.01172-.0117.05859-.0117.01953-.0273.03125-.008.0078-.11719.113281c-.0273.01953-.22266.04687-.32031.02344l-.0312-.0039h-.0937l-.082-.0078-.0625-.01172-.0547-.0078-.0664-.01172.0156.0039-.16406-.02734-.14844-.02734h-.125l-.0898-.01172-.10937-.0078-.12109-.01953-.082.02344-.0625.04297-.0469.07031-.008.03906-.0117.03516.0547.582031.0195.05469.0351.05469.0469.03516.0117.0078.0117.01172.0859.04687c.14453.01172.28907.01953.4375.02734.13672.0078.27735.0039.41797.01172l-.0351.02344-.043.01172.0117.0039-.0312.01172-.0352.01563-.043.01172-.0391.01953-.0352.0078-.0508.01953-.0664.03125-.0742.01953-.0899.03516-.0976.02344-.11329.05078c-.10937.03125-.22265.05078-.33203.08203l-.25781.08594c-.18359.05859-.37109.09766-.55859.140624-.10938.02734-.21875.05469-.33203.08203-.53125.136718-1.10157.199218-1.64844.265625-.15235.01563-.30469.05859-.46094.05078l-.10156.0078-.10938.01172-.29297.02734-.11718.0078-.0937.0078-.0312.0078-.1211.01953-.16406.02344h-.008l-.13281.04297-.0625.0625.008-.0039-.043.07422.004.02344.043.132812.11329.15625.0859.101563.0156.04297.043.04687.0469.0625.0742.109375.0391.0625.0703.08594.17578.167969c.0898.04687.17187.03516.26562.0078h.0391l.0352-.01172.0469-.0039.0351-.0078.14844-.03906.16406-.04297.0703-.0078.14063-.03906.125-.03516.0625-.0078.0117-.0078.0391-.0078.0352-.0078.0742-.01953.0625-.01563.0547-.0078.37891-.105469.37109-.101563.0664-.01172.0937-.02344.125-.03516-.008.21875-.0195.464844-.008.136718v.09375l-.008.226563-.043.945313-.0117.316406-.0195.261718-.0195.199219-.0195.1875-.0156.175781.004-.02734-.0312.21875-.0234.167969-.004.02344-.0117.148437.004-.02734-.0273.164062-.0156.121094-.004.02734v.07813l-.0664.433594-.0273.164062.0195.08594.0195.02734.0508.05469.0625.03906.0625.02344h1l.0664.0039c.12109.0039.29297.0039.36328-.128906l.043-.144531-.008-.0625-.008-.183594.0625.0039h6.35938l.004.0078v.0039l-.008.04297v.08594l-.0234.175781-.004.0078.043.08594.008.01172.0937.06641.12891.03516h1.07812l.0937-.04297.0117-.01172c.0781-.125.0937-.152344.0625-.296875l-.004.01563zm0 0"/><path d="m75.488281 1.9375-.19922-.15625-.0703-.03516-.11328-.05859-.0586-.04297-.0351-.0078-.0469-.02734-.0547-.03516-.0508-.02734-.0117-.01563-.0703-.03125-.0156-.01563-.0742-.03125-.043-.03516-.0195-.0039-.0312-.01563-.004-.0039-.0391-.01563-.008-.0039-.0195-.01953-.0586-.02344-.10937-.05469-.0508-.03516-.0352-.0078-.0781-.03906-.0312-.01172-.125-.08203-.14843-.05078-.1211-.04687-.0586-.01953-.0781-.03516-.0195-.01172-.0117-.0039-.0312-.01563-.0469-.01953-.0469-.01562-.043-.01953h-.008l-.0664-.02734-.0234-.0039-.0195-.0078-.0156-.0078-.23437-.0625-.0391.0039-.10157.03906-.0976.08984-.0508.02344-.11329.08984-.10937.07422-.16406.140625.0312.199219c.0781.105468.23437.125.34765.183593l.14063.06641.0586.04297.0703.02344.19922.113281.53541.296817.0273.01172.0547.01953.0625.03516.0195.02344.0352.0078.0469.02734.0547.03516.0195.02344.0312.0078.0508.04297.0234.0078.0547.03125.0547.04687.10546.04688.13672.113281.14844.08984.24219.08203.0742-.02734.0586-.03125.0195-.01953.0703-.07422.0234-.01953.0352-.02344.0898-.101562.16406-.152344.10547-.09375.0156-.03906.0117-.05469c0-.132813-.0547-.179687-.11719-.21875"/><path d="m64.261721 2.308594.0273.05469.0859.07031.0352.03516.0273.0078.0469.01953.15625.109375.0937.04687.0937.05078.15625.117188.1875-.0078.043-.01172.0391-.02344.0312-.0039.0352-.01953.043-.0078c.32422-.144531.59375-.277344.84375-.429688l.043-.01563.0625-.03516.0391-.02734.043-.02344.0469-.02734.0469-.03125.0469-.02734.0156-.01953.0273-.01172.10547-.07031.15625-.105469.082-.04687.17188-.105469.0859-.05859.20703-.128906.11718-.02734.082-.0078.0781-.01953.10938-.136719v-.08594l-.0312-.05078c-.0899-.05469-.19532-.132812-.29688-.132812l-.15625-.05859-.11719-.04297-.16797-.03516-.18359-.06641-.14844-.0625-.17187-.0039-.0508.02734-.0742.04687-.043.05469-.0664.05469-.0976.07813-.0117.0039.008.0039-.0391.03125-.0352.01563-.004.0039-.0234.01172-.0156.02734-.0273.0078-.0859.0625h-.008l-.0586.04687-.0234.01172-.0273.01563-.0195.01563-.0273.01172-.0312.01562-.043.02734-.0937.07031-.16406.08203-.0156.01563-.0547.01953-.0508.03516-.0273.0078-.0234.0078-.10156.05078-.0508.03125-.0664.03516-.0391.01563-.0547.01953-.043.02734-.11718.04687-.1211.05859-.14843.05859-.0508.02344-.043.0078-.043.01562-.0742.04688-.0547.08594-.0117.06641.02329.074241zm0 0"/><path d="m2.707031 3 .004-.03516v-.04687l.0351-.132813.0234-.109375.0703-.06641h1.44531l.0703.0039-.004.09375-.0117.113282-.008.08203.004-.02734-.0195.140625-.008.0078c-.0781 0-1.51172.01172-1.60937.01172l.008-.03516m.17187-1.152344.004.0039-.004-.0078.008-.410156v-.0039l.008-.0039h1.51562-.004.008v.0039h-.008l.008.0039-.008.28125v.125l-.29297.01563-.082-.0039h-1.15235zm2.73438 1.167969v-.02734l.0156-.03125v-.09375l.0195-.171875.0625-.08203h1.5625l.0625.0625.0117.125.0117.242188h-.0469l-.0352-.0039h-1.65625l-.008-.0078zm.0977-1.214844v-.367187l.008-.0078h1.5664v.0039h-.008l.008.0039v.40625c-.10937.01563-.25.01563-.38281.01563l-.14844-.0039h-1.03515l-.008-.0078zm2.91796.04687.004.0039-.004-.0078v-.417969h.004v.0078l.004-.0078h1.48047l.0156.01172.0156.128906.008.05078.008.06641.008.07031.008.03516.008.0625h-1.5586zm1.65235.789063.008.03906.004.05078.008.03906.0195.109375.008.03516.0195.113281c-.1289.0039-1.55468.01172-1.62109.01172l-.0117-.01172-.0351-.414062h1.58203l.0195.02734m-4.55469-1.929688.0117-.08594.0234-.21875.0156-.113281v-.01172l-.0234-.06641-.0156-.02734-.0234-.02344-.0273-.03906-.11719-.05469h-.0469l-.10938-.01172-.16406-.0078-.2461-.0078c-.0898-.01953-.21484-.01563-.32421-.01563l-.0977.0039-.0937.04297-.0117.0078-.0703.101562-.0274.07813.008.05469v.0078l.008.226562v.01563c.0156.07031.0547.152344-.0469.144531-.1914-.01563-.38671-.0039-.57421-.0078-.29688-.0039-.58985-.0039-.88282-.0078-.26953-.0039-.53906-.0078-.80859-.0078-.11719 0-.23438-.0039-.35156-.0039l-.082.02734-.0742.06641-.0234.05469-.0352.0625v.07031l-.004.148438-.0117.125v.05078l-.008.140625v.06641l-.004.03516v.164062l-.00839.136707-.0117.08203-.0352.367188-.0273.1875-.0391.4375-.008.05469-.0195.08984-.0273.113281.008-.04297-.10547.453126.0391.105468.004.01172.14063.101563.043.0039h.12891l.38281-.0078.31641-.0078h.23047c.33984-.01953.67969-.01172 1.01562-.01172l5.46875-.0078 1.04297.0078h.39844l.12109.0039.0312.0078h.42188c.16797 0 .33203.0078.49609.0078l.0937-.04297.0625-.07422.0274-.101563-.0156-.105469-.0195-.07031-.0156-.02734-.004-.03906-.008-.0078-.0195-.08984-.008-.02344-.008-.03516-.0117-.03906-.008-.03516-.008-.04687-.0156-.0625-.004-.03906-.0156-.07813-.0234-.242187-.0156-.128906-.0352-.226563-.0391-.21875v-.05859l-.0156-.128906-.0117-.08203-.004-.03125-.0195-.167969-.0274-.21875-.004-.15625-.004-.195312c0-.128906-.0234-.265625-.14453-.320313-.043-.02734-.10156-.03516-.25-.03125l-.12109.0078-.64063.01953h-.0469c-.2461.01563-.48829.01172-.73438.01172-.25.0039-.50391.0039-.75391.0078l.008-.03516v-.0625l.0195-.347656-.043-.09375-.008-.01172-.0937-.06641-.13672-.03516h-.0195l-.1836-.0078-.69922-.01953-.0937.04297-.0117.0078-.0664.09375-.0352.179688s.0117.253906.0156.351562l-.004.0039h-.97265l-.0937.0039h-.13282l-.0273-.0039zm0 0"/><path d="m11.582031 5.679687v-.355468l-.0195-.07031-.0195-.02734-.0469-.04297-.0156-.01563-.0117-.0039-.0195-.0078-.11719-.03906h-.10938l-.44531.01172-.0312.0039-.14453.0039h-.13281l-.3125.01172-1.00781.01563h-2.65625l-.14063-.0039-.21094.01172c-.0937 0-.1875 0-.27734 0-.44141-.0039-.88281 0-1.32031-.01953-.21485-.0078-.42969-.02344-.64453-.01563-.11719 0-.23829-.01172-.35938-.01172l-.11328.0039-.23047-.01172h-.10937l-.0664-.0078-.0508.01172-.0391.01953-.0195.01953-.0351.03125-.0469.06641-.008.03516-.0117.02734-.008.488281.0195.07031.0195.02734.0469.05469.0508.02734-.004-.0039.19531.03906h.0391l.22265-.01172h.125l.0352-.0039.21094-.0078.0937.0039h.10156l.0312-.0039c.0547-.01563.17969-.01172.27344-.0078l.10937.0039h.125l.64453-.0078 2.23828-.01172h1.71485c.33594 0 .67187.01953 1.01172.01953.0937 0 .18359-.0039.27343 0h.19141l-.0352-.0039.26172.01172h.11719l.45703.01953.0742-.02344.0273-.01563.0547-.05078.0352-.06641.0195-.148437zm0 0"/><path d="m10.105471 7.074219-.0117.0039-.0391.02734-.0195.02344-.0391.04297-.0664.0625-.0664.05859-.0508.03906-.0508.04297-.0312.01953-.0156.0039-.0586.04297-.0274.03906-.0391.03125-.0391.02734-.0977.05469-.0937.08594h-.13281l-.125-.0625-.0273-.01953-.0274-.01563-.0508-.04297-.004-.0078-.0352-.02734-.0391-.02734-.0195-.0078-.0195-.01563-.0273-.02344-.0273-.03516-.0586-.04687-.0547-.04297-.0195-.02344-.0312-.01563-.0547-.0625-.0625-.04687-.0274-.03516-.0195-.01953-.0742-.0625h1.71094l-.0273.03516m2.97656 1.605468-.19141-.05859c-.63281.02344-1.2539-.09766-1.875-.171875-.15234-.01953-.30078-.0625-.44531-.109375l-.10547-.04297.21094-.199219.25781-.214843c.11328-.08984.26563-.175782.35938-.28125v.0039l.0273-.01172.0391-.04297.0156-.03516.0156-.05859c-.004-.140625-.0898-.195312-.14062-.226562l-.008-.0078-.0156-.01953-.0664-.05859-.0547-.03906-.0312-.03516.2539.0078.0781-.0039.16797.0078.0312.0039h.39453l.32422.0078.13672.0078.0312-.0078.0351-.01172.043-.03125.0352-.02734.043-.0625.0117-.03906.0117-.03125-.008-.488281-.043-.08984-.008-.01172-.0937-.07031-.19531-.02734h-.0312l-.3125.0078h-.16407l-.0273.0039-.25.0078-.10937-.0039h-.12891l-.51953.0078-1 .01172h-1.86328l-.8086.0078-.4375-.0078-.39843-.0039-.40625-.0078h-.36329c-.0859-.01563-.21093-.01172-.32421-.0078h-.10547l-3.01563-.03516-.0664.01953-.0312.01953-.0195.01172-.0547.0625.0156-.01172-.0273.03125c.008-.191406.0195-.472656.0195-.472656s.0352-.699219.0469-.949219c.125-.0039.83204-.0078.83204-.0078h.48437l2.37891-.01953h1.61718.63672 1.69532l.26953.0078h.58593l.19922.0039c.10157.0039.19922-.0039.30078.0078l.19922.0078c.1211-.0039.24219 0 .36328.01172l.0664-.0039h.0469l.28515.01172.0899-.04297.008-.0078.0586-.08594.0352-.171875v-.410156l-.0195-.07031-.0195-.02734-.0469-.05469-.0508-.02734.004.0078-.19922-.03516-.0352.0039-.47266.0078-.0273.0039-.16016.0078-.0742-.0039h-.0625l-.28516.01172-.96484.01563h-.50391l-.0312.0078-.16016.0039h-2.25l-3.80468-.01172-.46875-.01172c-.125 0-.25391 0-.37891-.0078l-.0781.0039h-.0937l-.0859-.0078c-.11719-.03125-.33594-.04687-.57032-.05859l-.0508-.0039-.0703-.0078c-.16797-.02344-.30469-.03906-.39453.01953-.0898.0625-.11719.164063-.11719.277344l.0156.195313.0156.148437-.004.03906c-.0274.519531-.0586 1.039062-.125 1.554687l.004-.03516c-.0234.183594-.0469.367188-.0586.550781l.004-.02344c-.0156.113281-.0312.230468-.0469.347656l-.004.03125c0 .125-.0156.238281-.0312.359375-.0547.464844-.12109.925781-.1875 1.386719-.0156.113281-.0469.21875-.0625.332031-.0117.05469-.0625.25-.0859.351563l-.008.02734v.05859l-.008.03516-.0117.04297-.0273.09766.004.04687.0859.136719.0156.01172.0898.04297h1.06641l.14062-.03516.0937-.06641.008-.01172.043-.09375c.0195-.128906.0352-.257812.0469-.386718l.008-.0625.0859-.78125.008-.101563.0664-.65625c.0351-.289063.0625-.585937.082-.890625l.0156.02734.0703.07422v-.0078l.10156.05469h1.34765l.0156.01562-.008-.01562h.008l-.008.08203v.3125c-.004.125-.004.253906-.008.382812 0 .203125-.004.40625-.004.609375l-.004.09766-.125.06641.0156.0039-.23828.01953-.1875.01953-.0977.0078-.10156.0078-.10157.01172-.1289.0078-.23438.01953h-.0156l-.16016.02344-.16015.03906c-.17188.132813-.0625.351563-.043.53125l.043.25c.0273.136719.043.433594.25.433594h.008l.15234-.01172-.0312.0039h.043l.18359-.04687.0312-.01172.84375-.210937.125-.01563.21875-.04687.20704-.04297h.043c.1211-.02344.24219-.04687.35938-.07031l.25391-.05469.0547-.0039.0742-.01172.0781-.01563.0156-.0078c.13281-.03516.26172-.06641.39453-.105469l.23438-.0625c.17578-.05078.35937-.08984.53906-.132813l.15234-.03906.0391-.0078.17578-.05078.20703-.05859.19922-.05078.16406-.101562.0195-.04297.0391-.0625.0312-.28125-.043-.09766-.008-.01172-.0898-.0625-.20703-.01563-.14453.02344-.14844.02344h-.0703l-.0312.0078c-.23828.03906-.48438.05859-.72657.08984-.0898.01172-.17578.02344-.26953.02344l-.0898.01172-.10938.0078-.18359.01953-.0859.0078-.004-.0078v-.441406l.008-.949219.0312-.01563.11328.0039h1.66406l.1836-.0039.0937.04687.0508.105469.0859.101563.082.128906.20703.242187.17187.167969.10157.08984.0781.08203.10156.07422.22266.183594.0898.05859.12891.09766.0977.0625.18359.117187.11328.06641.12891.07422.16797.07422.1875.09766.21484.117187.26172.101563c.13672.03906.26172.117187.40234.148437l.15625.05469.17188.0625.25781.07813c.11719.01953.22656.0625.33984.08594l.14844.04688.24609.0625.23047.05859.15235.02734.1875.03125.14453.03125.23047.03516h.17968l.10938-.08203.0703-.0625.043-.05859.0586-.0625.043-.05469.0664-.08594.16406-.1875.1836-.222656.11328-.179687-.008-.01953zm0 0"/><path d="m52.367191 2.820313.004-.09375.0117-.0078v-.101563l.008-.101562.0274-.292969.008-.101562.0117-.08984.0273-.21875.19141-.0039c.21484 0 .42969-.0078.64062-.0078l2.56641.0078-.008-.0039.008.0078v.05078l.0117.25c.004.105469.0156.210938.0117.316406v.125l.004.152344.004.117188.004-.0039-.008.0039c-.0898 0-3.44922 0-3.52343-.0039m4.58984.925781h.54297l.47656.01172c.10156 0 .20703 0 .3125.0078h.4375l.40234.0078.6875.0078.082-.02734.0625-.05469.0391-.0625.008-.03906.0156-.03516-.0547-.632813-.0312-.07031-.0547-.0625-.125-.0625-.24609.0078-.0859.01172-.17969.0078-.0312.01563c-.0976 0-.20703 0-.30469.0039l-.18359.0078-.53906.01953-.14063.0078-.3125.01172-.2539-.0039h-.19141l-.11719-.05859.008-.117188v-.07422l.004-.128906c.004-.101563.008-.207032.0117-.3125l.008-.214844.0117-.09375.23828-.02344h.1836l.88672.03125.15625.0078.0781.01172.12891.0078.0976-.04297.0117-.01172.0703-.09375.0195-.125.008-.128906-.0195-.164062-.0352-.199219-.14062-.128906-.25-.02344c-.11329.01563-.23047.0039-.34375.0039l-.0312.0039-.12891.0078-.0508-.0039-.25.01172-.39453.0078h-.0625c-.29688.01563-.59766.01172-.89844.01563-.44141 0-.88672.01953-1.33203-.0039l-.15235.0078-.1875-.02344-.0859-.101563v-.121093l.008-.0625-.004.03125.0547-.246094.004-.03516v-.03125l.0156-.07031.004-.02344-.0312-.08594-.0234-.01563-.0977-.08203-.21093-.03125-.0859.0039-.0312-.01172h-.15234l-.10938-.01172-.10547-.01172-.0273-.0039h-.0977l-.19922-.01953-.0976.04297-.0117.0078-.0625.08984-.0352.171876.008.359374.008.277344-.32032.0039h-1.61328c-.0859-.01953-.19922-.01562-.3164-.01172l-.10157.0039-.64062-.01953-.78125-.01953-.34375-.01953-.0352.01563-.0391.0078-.0469.03516-.043.03516-.043.07031-.008.04297-.0117.02734v.109375l-.0274.207032-.004.08984.004-.0039-.0117.02734v.07422l.0195.02734.043.08594.0469.04297.11719.04687.082-.01172.125.0039.20312-.01172.36328-.01563h.20138l.0312-.0078.21094-.0039h.0976l.54297-.0078.008.0039v.25s-.0156.589844-.0195.746094c-.10168.015778-.23449.015778-.35949.015778l-.125-.0039-.0664.0039c-.10547 0-.20703-.01172-.3125-.01172l-.10156.0039-.22266-.0078-.0312-.0039c-.18359-.0039-.36718-.01563-.55078-.01172-.11719.0078-.23437.0039-.35547 0-.0937 0-.1875-.01172-.28515-.01563l-.0195-.0039-.12891.02734c-.13281.05859-.15234.195313-.15234.304688v.179688c-.004.109374-.008.222656-.0117.332031v.0625l-.008.121093v.05469l-.0156.03125v.101562l-.0117.214844-.008.152344-.0156.242188-.0117.109374-.008.08984-.0117.08203-.008.09375-.0156.08594-.004.08984-.008.08203c-.0156.07031-.0312.222656-.0547.476562-.0156.175782-.0391.414063-.0469.460938l-.008.02734-.008.164062.004-.02734-.0274.199219-.0195.148438-.004.03516v.08984l-.008.08984.004-.03125-.0274.210938-.0195.15625-.004.03516v.08203l-.0352.292968-.0195.128906-.008.0625-.0156.09766-.043.238281-.0391.199219-.004.03516v.05469l-.008.04688-.0117.05078c-.0273.152343-.0625.300781-.0976.449219l-.0156.136718-.043.167969-.008.167969.0703.109375.0117.01172.0937.04297h.85156c.17579 0 .33204-.01172.41797-.183594l.0586-.191406.0547-.277344.10547-.953124c.082-.910157.19532-2.359376.24219-3.207032l.043-.839844.008-.15625.008-.09375h.16797c.15235 0 .30469-.0039.45703-.0039h5.9375c.23047 0 .46875.01172.70313.0078"/><path d="m58.945311 8.585937-.19531.01563h-.23438c-.17187 0-.34375.0039-.50781.0078l-.20703.0039-.16406.0078c-.125.0039-.25391-.01172-.38282 0h-.8164c-.0977.0078-.19141.01172-.28906.0078l-.15235-.0039-.10547-.04297-.0195-.269531-.0195-.207031-.008-.140625-.0117-.15625-.008-.101563-.008-.132812.008-.0078.11718-.0039h.90625l.10157.01172.17187-.0078c.10156-.0039.20703-.0078.30469-.0039.0937 0 .18359.01953.27734.01953h.21094l.25.0078c.15234.0078.31641-.0039.46875.02344l.13702-.015619.0273-.01953.0469-.04687.0117-.0078.0508-.101562-.008-.25-.0117-.09766-.0156-.257813-.008-.03906-.18359-.167969-.0547-.01172-.0469.01172-.13281-.0039-.55469.02734-.35547.01172-.0586-.0039-.16016.01563-.1914-.0039-.1875.0039c-.16016 0-.31641 0-.47266 0-.22265.0039-.44531.0039-.66406.0039l-.004-.0039-.0351-.90625.008-.0078.125-.0078.0469.0039h.60547c.26563 0 .53516.0039.80078-.0039.11719-.0039.23438.03125.35157.01953l.16797.0039.0547-.0039.33594.01172.65234.02734.0312-.01172.0391-.01172.043-.03125.0351-.02344.0469-.07031.008-.03516.0117-.04297-.008-.09766-.0234-.199219.004-.07422-.0195-.09375-.008-.128907-.10547-.152343-.1875-.03906-.21484.0078-.0312.01562h-.0664l-.14062.0078h-.0625c-.11719.0078-.23828 0-.35547.0039l-.26563.0078-.61718.01953c-.21875.0039-.44141 0-.66016 0-.15234 0-.30469.0078-.45703 0-.23028-.011712-.13653-.246087-.13653-.414056v-.09766l.008-.164062-.0117-.05469-.0156-.03906-.0469-.04687-.0703-.05859-.0742-.02344c-.21484-.0078-.43359-.02734-.65234-.05469l-.19141-.0039-.20312-.01172-.14844.07813-.0117.01172-.043.08594.0156.246094.0195.15625.008.07031.0117.08594-.0469.238281h-.26562l-.19922-.0039h-.78125l-.0469-.0078h-.34375l.004-.0078.0117-.02734.004-.01563.0156-.04297.0352-.06641.043-.08594.0547-.101563.0156-.06641-.0703-.171875-.0117-.01563-.082-.05859-.16016-.03906-.0352-.0078h-.0469l-.14844-.03906-.13672-.02344-.23828-.04687h.0156l-.17578-.02734-.0508.01172-.0352.01953-.0391.02734-.0469.05859-.0352.07813v.02734l-.004.0078-.043.07422-.004.03516-.0234.05859-.004.01172-.004-.0078-.008.02734-.0195.05078-.008.0039-.008.02734-.0156.04297-.0234.03125-.004.01953-.0156.03906-.0352.05469-.004.01563-.0273.07422-.0469.07422-.0273.07031-.125.203125-.0899.105469-.0508.08203-.0508.05469-.0937.128906-.0195.03125-.0469.03516-.0195.02344-.26562.289062-.0625.0625-.0937.101563-.0508.03516-.0547.06641-.0586.05078-.082.0625-.0547.04687-.0469.07422v.01953l.0156.105469.008.01563.0781.09375.0195.0039.043.02734.0391.0078.0312.01172.0351.01562.0352.01953.0508.0078.0234.01172.0664.02734.0469.01953.0312.01172.0391.02344.0391.0039.0586.02344.008.0039-.008.0039.0273.0078.0469.01563.0391.02344.0391.0078.0547.01953.0469.01953.10157.04297.11718.0039.20703-.15625.0312-.03516.0781-.07031.10156-.109375.0508-.04687.0781-.08984.0625-.07422.043-.05078.0351-.04297.0156-.03125.008-.0078.0195-.01563-.004-.0039.008-.01562.043-.05078.0195-.01563.0312-.06641.0469-.07422.10938-.132812-.0156.01172.0195-.02734.0664-.08203.15234-.03516h.46094l.36719-.0078.78125-.0078.45312.0039h-.004l.004.0039v.367187l.004.03125.0117.132813-.004.140625v.230468c-.11718.01563-.25781.01563-.39453.0078l-.19922-.0039-.11328.0039-.25-.01172h-.38281l-.83203-.03125-.1211-.0078-.0898-.0039-.0586-.0078-.0977.04297-.0117.0078-.0859.121094-.0312.167969v.05859l-.008.175782-.004.125v.152344l.0117.02344.0312.04687.0273.03516.0664.04687.0391.0078h.22265l.11719.0039.082-.0078h.15625l1.38672-.03906h.42188l.12109.0039-.004.101563v.06641l-.0117.570312.004.04688-.004.140624-.008.04297-.0156.08984-.0937.0039-.1211-.0078h-1.42187l-.10547.0039-.23047-.0078-.0312-.0039h-.12891l-.11328.0039c-.0898.0039-.19922.0078-.25781-.0078l-.0273-.0039-.6875-.01172-.26172-.0078-.10156-.01172-.25-.0039h-.0664l-.12891-.0078h-.0625l-.0312-.01172h-.15625l-.0937-.01563-.12109-.0039-.0977.04297-.0156.01172-.0664.113282-.0391.105468v.01953l-.008.03125v.117187l-.008.148438-.0156.09375-.004.195312.0391.09766.0117.0078.26172.09375h.0391l.44921-.01172.0312-.0039.16016-.0039h.13672l.29297-.0078 1.10937-.01172.0742.0039.17578-.01563.23047.0039h5.05078l.19922.01172.13672-.0039h.19922l1.15625.01172h.3125l.0625.0078h.0781l.16407.0039.0351.0039h.11719c.11328 0 .22656.01172.33594.01563.125 0 .24609-.125.24609-.246094l-.0195-.15625-.0156-.164062-.0312-.324219-.043-.08203-.0391-.04687-.0547-.03516-.0274-.01172-.043-.01563-.30859.0078-.22656.01172-.53125.01563-.16016.0078-.23437.01172zm0 0"/></g></svg>