<?xml version="1.0" encoding="UTF-8"?>
<svg id="_レイヤー_2" data-name="レイヤー 2" xmlns="http://www.w3.org/2000/svg" viewBox="0 0 169.75 51.39">
  <defs>
    <style>
      .cls-1 {
        fill: #231815;
      }

      .cls-1, .cls-2, .cls-3 {
        stroke-width: 0px;
      }

      .cls-2 {
        fill: #99847d;
      }

      .cls-3 {
        fill: #a04642;
      }
    </style>
  </defs>
  <g id="pc">
    <g>
      <g>
        <path class="cls-2" d="M25.69,51.39c5.9,0,11.33-1.99,15.67-5.34-1.2-1.05-2.45-2.21-3.73-3.49-4-4-8.28-9.17-12.14-15.68-5.35-9.04-11.98-15.67-17.26-20.04C3.17,11.54,0,18.25,0,25.7c0,14.19,11.5,25.7,25.69,25.7ZM21.79,23.75c-3.81,2.84-9.21,2.53-12.66-.92-3.71-3.71-3.78-9.68-.22-13.49,4.07,3.56,8.7,8.34,12.88,14.41ZM8.54,9.02c-4.09,4.37-4.01,11.22.24,15.47,3.89,3.89,9.95,4.29,14.3,1.2.47.73.93,1.47,1.38,2.23,1.17,1.97,2.37,3.81,3.59,5.54h0c-6.07,3.66-14.07,2.88-19.3-2.35-6.08-6.08-6.15-15.9-.21-22.09h0ZM7.93,8.49c-6.8,7.09-6.72,18.34.26,25.31,6,6,15.17,6.89,22.13,2.69,2.07,2.64,4.15,4.96,6.17,6.99-8.81,5.62-20.63,4.59-28.31-3.09C-.61,31.61-.69,17.41,7.93,8.49Z"/>
        <path class="cls-3" d="M25.69,0c-5.92,0-11.37,2.01-15.71,5.37,5.53,4.65,12.29,11.56,17.85,20.95,4.88,8.25,10.56,14.22,15.27,18.26,5.09-4.69,8.28-11.42,8.28-18.89C51.39,11.51,39.89,0,25.69,0ZM43.22,11.01c4.48,4.48,6.69,10.37,6.64,16.24-.45.52-.94,1-1.44,1.44-.37-4.05-2.11-8-5.21-11.1-.26-.26-.52-.51-.79-.75.6-1.93.86-3.9.81-5.83ZM39.55,8.02c.73,2.26.95,4.69.59,7.11-3.2-2.04-6.89-2.98-10.55-2.81-.44-2.94-1.59-5.65-3.27-7.96,4.6-.17,9.24,1.05,13.23,3.66ZM21.34,14.74c-2.16-2.58-4.33-4.85-6.42-6.85h0c2.29-1.46,4.78-2.46,7.35-3.02,2.25,2.05,3.89,4.74,4.66,7.77-1.94.38-3.83,1.08-5.59,2.1h0ZM27.39,17.26c-.07,1.54-.37,3.03-.85,4.42,0,0,0,0,0,0-.92-1.38-1.87-2.7-2.83-3.96,0,0,0,0,0,0,1.17-.66,2.41-1.16,3.69-1.5,0,.35,0,.69-.01,1.05ZM28.84,25.32c-.38-.64-.76-1.26-1.15-1.88h0c1.21-2.28,1.94-4.85,2.07-7.6,0-.03,0-.05,0-.08,3.33-.36,6.75.33,9.72,2.08-.17.5-.36,1-.58,1.49-1.77,3.93-4.95,6.79-8.67,8.24-.47-.73-.94-1.48-1.39-2.26ZM30.92,28.64c4.49-1.52,8.37-4.8,10.56-9.4.4.33.79.68,1.16,1.05,2.63,2.63,4.14,5.97,4.52,9.4-4.05,2.88-9.25,3.67-13.96,2.17-.77-1.03-1.53-2.1-2.27-3.22ZM34.12,33.07c4.39,1.21,9.1.7,13.13-1.38-.06,3.88-1.55,7.74-4.45,10.75-2.75-2.48-5.74-5.58-8.68-9.36ZM43.4,42.96h0c3.24-3.35,4.94-7.65,5.09-11.98.4-.25.78-.51,1.16-.79-.64,4.66-2.73,9.15-6.25,12.77Z"/>
      </g>
      <g>
        <path class="cls-1" d="M64.66,13.6h5.51v12.39c0,5.59-3.34,7.53-8.7,7.53-1.27,0-2.94-.17-4.02-.47l.62-3.58c.76.2,1.74.35,2.83.35,2.32,0,3.77-.84,3.77-3.9v-12.33Z"/>
        <path class="cls-1" d="M74.05,13.87c2.03-.26,4.68-.41,7.47-.41,4.64,0,7.65.67,10.01,2.09,2.54,1.51,4.13,3.93,4.13,7.39,0,3.75-1.7,6.34-4.06,7.94-2.57,1.72-6.49,2.53-11.28,2.53-2.86,0-4.9-.15-6.27-.29V13.87ZM79.6,29.86c.47.09,1.23.09,1.92.09,5,.03,8.27-2.18,8.27-6.87.04-4.07-2.94-6.22-7.69-6.22-1.23,0-2.03.09-2.5.17v12.83Z"/>
        <path class="cls-1" d="M119.23,25.71c-.11-2.36-.22-5.21-.22-8.06h-.11c-.76,2.5-1.81,5.35-2.72,7.62l-2.97,7.62h-4.35l-2.57-7.56c-.8-2.33-1.63-5.12-2.21-7.68h-.07c-.15,2.65-.25,5.67-.44,8.12l-.43,7.45h-5.11l1.56-19.61h7.36l2.39,6.54c.8,2.24,1.52,4.8,2.07,7.1h.11c.69-2.27,1.49-4.95,2.32-7.13l2.61-6.52h7.22l1.34,19.61h-5.4l-.36-7.51Z"/>
        <path class="cls-1" d="M128.7,28.64c1.49.61,3.77,1.22,6.13,1.22,2.54,0,3.88-.84,3.88-2.12s-1.16-1.92-4.1-2.76c-4.06-1.13-6.71-2.94-6.71-5.79,0-3.35,3.48-5.88,9.25-5.88,2.76,0,4.79.44,6.24.96l-1.23,3.58c-.98-.38-2.72-.93-5.11-.93s-3.55.87-3.55,1.89c0,1.25,1.38,1.8,4.53,2.76,4.32,1.28,6.35,3.08,6.35,5.85,0,3.29-3.16,6.11-9.86,6.11-2.79,0-5.55-.61-6.93-1.22l1.12-3.67Z"/>
        <path class="cls-1" d="M169.75,23.38c0,6.58-5.4,10.15-11.97,10.15-7.03,0-11.53-4.1-11.53-9.98s4.82-10.27,12-10.27,11.5,4.36,11.5,10.09ZM152.09,23.44c0,3.67,2.1,6.57,5.91,6.57s5.91-3.02,5.91-6.57c0-3.32-1.81-6.63-5.88-6.63s-5.95,3-5.95,6.63Z"/>
      </g>
      <g>
        <path class="cls-1" d="M58.69,38.03h5.37v6.83h-1.01v-.51h-3.38v.52h-.97v-6.84ZM63.04,38.98h-3.38v1.72h3.38v-1.72ZM59.66,43.4h3.38v-1.76h-3.38v1.76Z"/>
        <path class="cls-1" d="M72.67,40.06h-2.44c.63,1.19,1.64,2.28,2.77,2.88-.24.2-.57.59-.73.86-.46-.28-.9-.64-1.3-1.06v.9h-1.31v1.34h-1v-1.34h-1.36v-.84c-.38.39-.8.74-1.24,1.02-.16-.24-.47-.6-.69-.79,1.12-.61,2.11-1.74,2.73-2.97h-2.41v-.96h2.98v-1.53l1.22.06c0,.08-.07.13-.22.16v1.31h3v.96ZM68.67,40.94c-.35.64-.78,1.22-1.25,1.73h1.25v-1.73ZM69.67,42.67h1.27c-.48-.51-.9-1.1-1.27-1.74v1.74Z"/>
        <path class="cls-1" d="M73.8,39.73c.49.17,1.15.49,1.47.75l-.54.79c-.3-.27-.93-.62-1.43-.83l.5-.71ZM73.53,44.28c.39-.61.97-1.6,1.41-2.53l.71.59c-.38.83-.84,1.71-1.22,2.33.04.05.06.09.06.14s-.02.09-.04.13l-.93-.65ZM74.26,37.6c.49.18,1.12.51,1.44.78l-.54.78c-.29-.28-.91-.64-1.41-.86l.51-.69ZM77.12,42.15c0,.89-.13,2-1.19,2.8-.14-.2-.46-.49-.67-.62.91-.65,1.01-1.52,1.01-2.21v-.74l1.05.06c0,.07-.06.12-.2.14v.57ZM79.76,43.85c0,.2,0,.26.11.26.17,0,.2,0,.23-.03.06-.03.07-.19.09-.96.16.13.42.27.64.35-.02.35-.05.76-.09.93-.12.36-.42.46-.7.46h-.41c-.19,0-.4-.06-.53-.2-.13-.13-.19-.3-.19-.84v-2.44l1.03.06c-.06-.13-.16-.29-.27-.45-1.31.09-2.65.16-3.53.2-.02.08-.08.11-.13.13l-.31-.99c.25,0,.55,0,.88-.02.16-.28.31-.64.44-.96h-1.34v-.84h1.93v-.95l1.17.06c0,.09-.06.13-.21.16v.74h2.16v.84h-2.49c-.04.06-.12.08-.22.08-.12.26-.28.57-.46.86.49-.02,1.02-.02,1.56-.04-.13-.16-.28-.31-.41-.45l.72-.38c.5.46,1.07,1.12,1.32,1.6l-.76.42c-.02.06-.07.11-.2.13v2.27ZM77.59,44.64v-3.18l1.02.06c0,.08-.06.12-.2.14v2.99h-.83Z"/>
        <path class="cls-1" d="M83.1,40.64v2.54c.47.8,1.32.8,2.77.8.93,0,2.05-.02,2.81-.09-.11.22-.25.65-.3.92-.6.03-1.45.05-2.25.05-1.82,0-2.72,0-3.43-.9-.36.31-.73.61-1.04.84,0,.09-.03.13-.11.16l-.46-1c.35-.2.75-.46,1.12-.72v-1.73h-1.01v-.87h1.92ZM81.95,37.73c.49.33,1.1.84,1.38,1.22l-.71.68c-.24-.38-.84-.93-1.33-1.3l.65-.6ZM84.66,42.45v1.19h-.89v-4.09h1.78c-.36-.16-.74-.32-1.06-.46l.61-.5c.28.1.61.23.93.37.22-.13.44-.27.63-.42h-2.81v-.72h3.69l.13-.05.68.43c-.03.06-.1.08-.18.09-.35.31-.84.68-1.35,1,.18.09.35.16.48.24h.96v3.27c0,.77-.38.84-1.39.84-.04-.23-.13-.53-.24-.74.25,0,.53,0,.61,0,.09,0,.12-.04.12-.12v-.36h-.94v1.16h-.84v-1.16h-.91ZM85.57,40.23h-.91v.42h.91v-.42ZM84.66,41.76h.91v-.45h-.91v.45ZM87.35,40.65v-.42h-.94v.42h.94ZM86.41,41.76h.94v-.45h-.94v.45Z"/>
        <path class="cls-1" d="M96.38,38.12v.74h-1.32c.14.19.27.39.34.53l-.87.24c-.09-.2-.28-.52-.47-.78h-.49c-.12.15-.24.29-.38.42h.16c0,.09-.06.13-.2.15v.35h3.03v1.57h-.92v-.86h-5.05v.86h-.89v-1.57h2.92v-.55l.4.02c-.15-.08-.31-.16-.42-.21.07-.06.14-.11.21-.17h-.98c.12.2.23.4.28.55l-.85.24c-.06-.21-.22-.53-.38-.79h-.14c-.2.28-.42.54-.64.75-.17-.15-.5-.37-.71-.48.45-.38.9-1.02,1.14-1.63l1,.33s-.09.09-.2.08c-.03.07-.07.14-.11.21h1.77v.56c.31-.34.59-.76.75-1.18l1.01.3c-.03.07-.1.09-.2.09-.04.08-.08.16-.13.24h2.32ZM91.46,42.57v.36h4.09v2.05h-.94v-.21h-3.14v.21h-.9v-4.18h4.38v1.77h-3.48ZM94,41.48h-2.55v.42h2.55v-.42ZM94.6,43.62h-3.14v.45h3.14v-.45Z"/>
        <path class="cls-1" d="M98.77,42.67l.92-.24s0,.02.1.8c-.93.28-1.93.57-2.57.75-.02.08-.08.12-.13.13l-.28-.98c.3-.06.66-.15,1.06-.24v-1.74h-.86v-.86h.86v-1.41h-.93v-.87h2.71v.87h-.88v1.41h.82v.86h-.82v1.52ZM102.33,43.91h2.01v.85h-5.04v-.85h2.15v-.86h-1.65v-.83h1.65v-.68h-1.62v-3.58h4.2v3.58h-1.71v.68h1.76v.83h-1.76v.86ZM100.67,38.74v.62h.79v-.62h-.79ZM100.67,40.73h.79v-.62h-.79v.62ZM103.16,39.37v-.62h-.83v.62h.83ZM103.16,40.73v-.62h-.83v.62h.83Z"/>
        <path class="cls-1" d="M110.58,40.43l.7.4c-.03.06-.08.1-.15.13-.4,1.01-1.02,1.79-1.81,2.4.79.36,1.73.6,2.82.72-.21.22-.47.64-.6.92-1.27-.18-2.31-.52-3.17-1.03-.92.5-1.99.82-3.16,1.01-.09-.25-.34-.7-.52-.91,1.04-.14,2-.37,2.82-.72-.53-.47-.97-1.04-1.34-1.71l.71-.24h-1.48v-.93h2.49v-.92h-2.95v-.93h2.95v-1.04l1.2.06c0,.08-.07.13-.22.16v.82h3v.93h-3v.92h1.53l.16-.03ZM107.1,41.38c.32.58.76,1.07,1.34,1.46.58-.38,1.05-.86,1.39-1.46h-2.73Z"/>
        <path class="cls-1" d="M118.89,42.02l.51.21s-.04.09-.08.12c-.18.6-.46,1.08-.83,1.46.46.18.98.31,1.56.38-.19.18-.43.54-.55.78-.64-.13-1.21-.32-1.7-.59-.41.26-.88.45-1.4.58-.09-.19-.34-.55-.5-.69.43-.09.82-.22,1.17-.39-.24-.2-.46-.44-.64-.7-.28.72-.66,1.32-1.16,1.77-.15-.14-.5-.39-.71-.52.71-.59,1.16-1.56,1.42-2.75h-.87v-.76h1.01c.02-.13.04-.26.06-.39h-1v-.57h-.73v1.13l.48-.13.12.8-.6.2v1.98c0,.86-.31,1.04-1.52,1.04-.02-.25-.14-.65-.26-.9.16,0,.31,0,.45,0,.42,0,.43,0,.43-.15v-1.67c-.25.09-.48.16-.67.22,0,.08-.07.13-.13.14l-.24-1.04c.29-.06.65-.16,1.04-.26v-1.38h-.94v-.87h.94v-1.52l1.1.06c0,.08-.06.13-.2.15v1.32h.77v.71h.57c-.05-.26-.17-.64-.31-.92l.7-.21c.16.3.31.68.35.94l-.6.2h2.25l-.16-.06c.21-.32.46-.84.6-1.2l.95.33c-.03.06-.1.09-.21.09-.13.24-.34.58-.53.85h.66v.73h-2.44c-.02.13-.04.27-.06.39h2.79v.76h-2.93c-.02.13-.06.24-.08.36h1.94l.15-.02ZM119.58,38.28s-.07.02-.12.02c-.03,0-.05,0-.09,0-1.04.21-2.71.35-4.12.38-.02-.2-.13-.52-.21-.7,1.38-.06,2.99-.2,3.97-.42l.57.71ZM116.6,42.74c-.03.08-.06.16-.09.24l.57-.17c.16.24.39.46.67.64.23-.2.41-.42.55-.7h-1.7ZM117.57,38.61c.11.31.2.71.21.97l-.76.17c0-.26-.08-.68-.17-1l.72-.14Z"/>
        <path class="cls-1" d="M126.66,42.32l.84.3c-.02.06-.08.09-.18.09-.2.4-.49.77-.83,1.11.16.24.34.37.53.37s.28-.16.33-.79c.16.18.4.38.58.46-.15.89-.37,1.12-.94,1.12-.35,0-.75-.13-1.12-.64-.35.25-.75.46-1.19.63-.1-.16-.34-.46-.49-.61.5-.17.95-.41,1.33-.7-.15-.38-.27-.83-.37-1.34h-.91l-.03.29c.35.23.75.53.94.74l-.5.63c-.14-.16-.37-.35-.62-.55-.17.58-.47,1.13-1.04,1.53-.11-.2-.35-.48-.53-.62.69-.46.89-1.22.97-2.02h-.48v-.29l-.33.49c-.08-.24-.24-.61-.39-.95v3.4h-.84v-2.95c-.18.59-.4,1.13-.64,1.51-.09-.24-.27-.59-.4-.8.42-.63.78-1.73.97-2.67h-.79v-.86h.86v-1.64l1.04.06c0,.07-.05.12-.2.14v1.44h.71v.86h-.71v.42c.16.24.53.83.72,1.17v-.06h2.08c-.02-.16-.05-.35-.06-.52l-.55.21c0-.08-.02-.16-.04-.26-.46.06-.89.13-1.19.16,0,.06-.06.09-.11.11l-.27-.79.24-.02c.16-.2.32-.44.49-.7-.2-.24-.51-.53-.78-.75l.35-.51.13.09c.15-.33.31-.72.39-1.01l.79.33s-.09.08-.19.07c-.13.28-.35.68-.54,1l.2.2c.16-.27.29-.53.4-.76l.53.28c0-.39-.02-.77-.02-1.16l1.03.06c0,.08-.06.13-.2.15,0,.37,0,.73,0,1.1l.24-.34.12.09c.16-.32.31-.71.4-1.01l.79.33s-.09.08-.19.07c-.13.28-.36.68-.55.99.08.07.15.14.21.21.16-.27.3-.53.41-.76l.73.39s-.1.07-.2.07c-.24.41-.61.96-.96,1.41l.49-.03c-.04-.12-.09-.23-.13-.33l.53-.2c.19.38.37.86.42,1.18l-.57.24c-.02-.1-.04-.22-.07-.35l-.61.1c.23.14.49.35.63.5l-.16.15h.61v.73h-1.1ZM124.22,40.43c-.04-.13-.09-.25-.13-.37l.53-.17c.13.27.24.62.3.9h0c-.05-.59-.09-1.23-.11-1.88-.27.45-.66,1.05-1.04,1.55l.44-.03ZM125.86,40.38c.13-.17.28-.38.42-.59-.16-.2-.42-.44-.64-.64,0,.43.03.84.06,1.24h.16ZM126.51,40.96c-.17.03-.33.06-.46.07,0,.06-.06.1-.11.12l-.23-.6c.03.36.07.71.12,1.04h.69c-.13-.11-.26-.21-.38-.3l.38-.33ZM125.96,42.32c.06.27.12.51.19.72.18-.22.34-.46.46-.72h-.64Z"/>
        <path class="cls-1" d="M130.2,40.44c.22.31.81,1.23.94,1.45l-.49.68c-.09-.25-.28-.62-.45-.97v3.38h-.86v-2.99c-.2.62-.45,1.18-.72,1.58-.09-.26-.28-.62-.42-.83.45-.62.86-1.71,1.07-2.66h-.89v-.87h.96v-1.64l1.06.06c0,.07-.06.12-.2.14v1.44h.79v.87h-.79v.37ZM135.7,43.03v.69h-.44v.39c0,.76-.34.85-1.48.85-.04-.22-.14-.53-.24-.75.17,0,.35.02.5.02.32,0,.35,0,.35-.13v-.39h-2.14v1.24h-.85v-1.24h-.54v-.69h.54v-1.93h1.48v-.29h-1.86v-.68h.98v-.32h-.65v-.64h.65v-.31h-.82v-.65h.82v-.65l1.08.06c0,.07-.06.12-.2.14v.45h.87v-.65l1.08.06c0,.08-.06.12-.2.14v.45h.93v.65h-.93v.31h.76v.64h-.76v.32h1.04v.68h-1.93v.29h1.53v1.93h.44ZM132.87,41.75h-.63v.31h.63v-.31ZM132.25,42.69v.35h.63v-.35h-.63ZM132.87,38.86v.31h.87v-.31h-.87ZM132.87,39.81v.32h.87v-.32h-.87ZM134.38,41.75h-.66v.31h.66v-.31ZM133.72,43.03h.66v-.35h-.66v.35Z"/>
        <path class="cls-1" d="M139.79,40.47c.22.29.85,1.24.99,1.46l-.52.71c-.1-.26-.28-.64-.47-.99v3.32h-.87v-2.99c-.22.63-.48,1.2-.76,1.6-.08-.26-.29-.63-.43-.86.47-.63.9-1.71,1.12-2.66h-.93v-.87h1v-1.63l1.08.06c0,.07-.06.12-.2.14v1.43h.86v.87h-.86v.4ZM145.15,41.7h-1.34c.42.73,1.01,1.47,1.53,1.93-.22.16-.54.49-.71.75-.42-.46-.86-1.12-1.23-1.82v2.42h-.94v-2.33c-.42.75-.95,1.41-1.49,1.86-.15-.22-.45-.56-.66-.73.68-.46,1.34-1.24,1.78-2.07h-1.45v-.87h1.82v-1.08h-.74c-.11.34-.23.66-.38.93-.2-.13-.54-.31-.75-.39.35-.65.57-1.7.67-2.46l1.04.22c-.02.06-.09.1-.19.1-.04.21-.09.46-.15.73h.5v-1.33l1.15.06c0,.08-.07.13-.21.16v1.11h1.52v.86h-1.52v1.08h1.74v.87Z"/>
        <path class="cls-1" d="M152.93,39.83h-2.14c.15,2.21.62,4.13,1.19,4.14.17,0,.28-.44.31-1.44.22.23.56.48.83.58-.15,1.52-.47,1.87-1.23,1.87-1.36,0-1.93-2.4-2.12-5.15h-3.95v-.92h3.91c-.02-.44-.02-.88-.02-1.31l1.27.07c0,.09-.07.14-.23.16,0,.36,0,.71,0,1.08h1.25c-.22-.27-.61-.61-.94-.84l.62-.52c.36.25.83.61,1.05.88l-.55.48h.75v.92ZM148.26,41.61v1.8c.49-.09,1-.18,1.49-.27l.06.83c-1.27.29-2.63.57-3.5.75-.02.08-.08.13-.14.14l-.35-1.05c.41-.06.93-.14,1.5-.24v-1.96h-1.21v-.88h3.39v.88h-1.24Z"/>
        <path class="cls-1" d="M155.37,40.81v-.58c-.42.29-.88.57-1.35.79-.11-.21-.35-.58-.55-.77,1.37-.61,2.66-1.74,3.24-2.69l1.27.06c-.02.08-.09.14-.2.16.73.98,2.05,1.87,3.25,2.3-.24.24-.45.57-.61.86-.44-.2-.9-.47-1.34-.77v.64h-3.69ZM153.96,42.34v-.88h6.56v.88h-3.69l.24.08c-.03.06-.11.09-.24.09-.17.39-.39.83-.63,1.25.78-.02,1.63-.04,2.48-.06-.27-.31-.55-.61-.82-.86l.83-.43c.71.61,1.45,1.44,1.82,2.03l-.88.53c-.09-.16-.2-.33-.34-.52-1.78.11-3.6.2-4.8.26-.02.07-.08.12-.15.13l-.33-1.04c.33,0,.72,0,1.16-.02.23-.44.46-.97.63-1.45h-1.83ZM158.74,39.95c-.61-.46-1.17-.97-1.53-1.47-.34.48-.85,1-1.46,1.47h2.99Z"/>
        <path class="cls-1" d="M164.79,39.33c-.02.06-.07.09-.13.12-.24.61-.57,1.22-.97,1.77.38.27,1.04.75,1.22.89l-.55.78c-.18-.22-.49-.53-.79-.8v2.9h-.94v-2.55c-.31.29-.62.53-.94.74-.08-.24-.31-.71-.46-.89.9-.5,1.77-1.41,2.3-2.4h-2.05v-.85h1.16v-1.46l1.15.06c0,.08-.07.13-.21.15v1.25h.46l.14-.04.62.35ZM167.16,43.82h1.69v.93h-4.49v-.93h1.83v-2.9h-1.51v-.91h1.51v-2.37l1.19.07c0,.08-.07.13-.21.15v2.15h1.5v.91h-1.5v2.9Z"/>
      </g>
    </g>
  </g>
</svg>