<?xml version="1.0" encoding="UTF-8"?>
<svg id="_レイヤー_2" data-name="レイヤー 2" xmlns="http://www.w3.org/2000/svg" xmlns:xlink="http://www.w3.org/1999/xlink" viewBox="0 0 184 189.53">
  <defs>
    <style>
      .cls-1 {
        fill: url(#New_Gradient_Swatch_5);
      }

      .cls-1, .cls-2, .cls-3, .cls-4, .cls-5, .cls-6, .cls-7, .cls-8, .cls-9, .cls-10, .cls-11, .cls-12, .cls-13, .cls-14, .cls-15, .cls-16, .cls-17, .cls-18, .cls-19, .cls-20, .cls-21, .cls-22, .cls-23, .cls-24, .cls-25, .cls-26, .cls-27, .cls-28, .cls-29, .cls-30, .cls-31 {
        stroke-width: 0px;
      }

      .cls-2 {
        fill: url(#New_Gradient_Swatch_6);
      }

      .cls-3 {
        fill: url(#New_Gradient_Swatch_5-3);
      }

      .cls-4 {
        fill: url(#New_Gradient_Swatch_5-2);
      }

      .cls-5 {
        fill: url(#New_Gradient_Swatch_6-4);
      }

      .cls-6 {
        fill: url(#New_Gradient_Swatch_6-2);
      }

      .cls-7 {
        fill: url(#New_Gradient_Swatch_6-3);
      }

      .cls-32 {
        clip-path: url(#clippath);
      }

      .cls-8 {
        fill: none;
      }

      .cls-9 {
        fill: url(#linear-gradient);
      }

      .cls-10 {
        fill: url(#linear-gradient-10);
      }

      .cls-11 {
        fill: url(#linear-gradient-4);
      }

      .cls-12 {
        fill: url(#linear-gradient-2);
      }

      .cls-13 {
        fill: url(#linear-gradient-3);
      }

      .cls-14 {
        fill: url(#linear-gradient-8);
      }

      .cls-15 {
        fill: url(#linear-gradient-9);
      }

      .cls-16 {
        fill: url(#linear-gradient-7);
      }

      .cls-17 {
        fill: url(#linear-gradient-5);
      }

      .cls-18 {
        fill: url(#linear-gradient-6);
      }

      .cls-19 {
        fill: #5b6bf4;
      }

      .cls-20 {
        fill: #3c3c77;
      }

      .cls-21 {
        fill: #c5e9f4;
      }

      .cls-22 {
        fill: #d7e8ef;
      }

      .cls-23 {
        fill: #858cf3;
      }

      .cls-24 {
        fill: #86c8dc;
      }

      .cls-25 {
        fill: #ff827e;
      }

      .cls-26 {
        fill: #fff;
      }

      .cls-27 {
        fill: #edf4f6;
      }

      .cls-28 {
        fill: #efefef;
      }

      .cls-29 {
        fill: #ffd150;
      }

      .cls-30 {
        fill: #ffb297;
      }

      .cls-31 {
        fill: #ffc8ae;
      }
    </style>
    <clipPath id="clippath">
      <path class="cls-8" d="M166.03,123.21c5.23-9.02,10.64-18.35,17.52-28.15l.08-.12v-.14c1.92-34.27-3.82-57.26-18.08-72.33C151.26,7.35,128.47,0,95.86,0,72.94,0,33.79,8.29,0,21.96v156.52c8.09,7.06,17.92,11.05,32.18,11.05,95.38,0,111.52-27.82,133.85-66.32Z"/>
    </clipPath>
    <linearGradient id="New_Gradient_Swatch_6" data-name="New Gradient Swatch 6" x1="-4281.51" y1="-1603.05" x2="-4260.06" y2="-1603.05" gradientTransform="translate(2075.83 -3191.09) rotate(-79.89) scale(.85)" gradientUnits="userSpaceOnUse">
      <stop offset="0" stop-color="#fc697d"/>
      <stop offset="1" stop-color="#dc2276"/>
    </linearGradient>
    <linearGradient id="New_Gradient_Swatch_6-2" data-name="New Gradient Swatch 6" x1="-4295.77" y1="-1560.64" x2="-4264.01" y2="-1560.64" xlink:href="#New_Gradient_Swatch_6"/>
    <linearGradient id="linear-gradient" x1="-4279.66" y1="-1605.89" x2="-4260.42" y2="-1605.89" gradientTransform="translate(2075.83 -3191.09) rotate(-79.89) scale(.85)" gradientUnits="userSpaceOnUse">
      <stop offset="0" stop-color="#5b6bf4"/>
      <stop offset=".26" stop-color="#5b60ea"/>
      <stop offset=".7" stop-color="#5e44d1"/>
      <stop offset="1" stop-color="#602dbd"/>
    </linearGradient>
    <linearGradient id="linear-gradient-2" x1="-4287.33" y1="-1561.77" x2="-4260.47" y2="-1561.77" xlink:href="#linear-gradient"/>
    <linearGradient id="New_Gradient_Swatch_5" data-name="New Gradient Swatch 5" x1="101.74" y1="86.45" x2="107.54" y2="96.49" gradientUnits="userSpaceOnUse">
      <stop offset="0" stop-color="#bbdff2"/>
      <stop offset="1" stop-color="#8eb7fd"/>
    </linearGradient>
    <linearGradient id="linear-gradient-3" x1="66.91" y1="18.84" x2="66.91" y2="47.72" gradientUnits="userSpaceOnUse">
      <stop offset="0" stop-color="#56538e"/>
      <stop offset="1" stop-color="#34317a"/>
    </linearGradient>
    <linearGradient id="linear-gradient-4" x1="55.48" y1="162.84" x2="55.48" y2="195.83" xlink:href="#linear-gradient-3"/>
    <linearGradient id="New_Gradient_Swatch_5-2" data-name="New Gradient Swatch 5" x1="36.42" y1="68" x2="78.93" y2="141.62" xlink:href="#New_Gradient_Swatch_5"/>
    <linearGradient id="linear-gradient-5" x1="62.78" y1="148.93" x2="62.78" y2="153.09" xlink:href="#linear-gradient-3"/>
    <linearGradient id="linear-gradient-6" x1="5704.82" y1="-9035.92" x2="5704.82" y2="-9031.62" gradientTransform="translate(-9007.57 5760.13) rotate(25.96)" xlink:href="#linear-gradient-3"/>
    <linearGradient id="linear-gradient-7" x1="-9695.41" y1="-8865.42" x2="-9660.91" y2="-8865.42" gradientTransform="translate(9742.48 9022.64)" gradientUnits="userSpaceOnUse">
      <stop offset="0" stop-color="#b1b2f5"/>
      <stop offset="1" stop-color="#8eb7fd"/>
    </linearGradient>
    <linearGradient id="linear-gradient-8" x1="5704.82" y1="-9033.77" x2="5704.82" y2="-9029.92" gradientTransform="translate(-5630.38 9167.94)" xlink:href="#linear-gradient-3"/>
    <linearGradient id="New_Gradient_Swatch_5-3" data-name="New Gradient Swatch 5" x1="60.77" y1="153.28" x2="66.5" y2="163.19" xlink:href="#New_Gradient_Swatch_5"/>
    <linearGradient id="New_Gradient_Swatch_6-3" data-name="New Gradient Swatch 6" x1="-11030.62" y1="-9516.37" x2="-11016.23" y2="-9516.37" gradientTransform="translate(1713.13 12279.18) rotate(41.83) scale(.85)" xlink:href="#New_Gradient_Swatch_6"/>
    <linearGradient id="New_Gradient_Swatch_6-4" data-name="New Gradient Swatch 6" x1="-11040.18" y1="-9487.93" x2="-11018.88" y2="-9487.93" gradientTransform="translate(1713.13 12279.18) rotate(41.83) scale(.85)" xlink:href="#New_Gradient_Swatch_6"/>
    <linearGradient id="linear-gradient-9" x1="-11029.38" y1="-9518.27" x2="-11016.48" y2="-9518.27" gradientTransform="translate(1713.13 12279.18) rotate(41.83) scale(.85)" xlink:href="#linear-gradient"/>
    <linearGradient id="linear-gradient-10" x1="-11034.52" y1="-9488.69" x2="-11016.51" y2="-9488.69" gradientTransform="translate(1713.13 12279.18) rotate(41.83) scale(.85)" xlink:href="#linear-gradient"/>
  </defs>
  <g id="m">
    <g class="cls-32">
      <path class="cls-26" d="M166.03,123.21c5.23-9.02,10.64-18.35,17.52-28.15l.08-.12v-.14c1.92-34.27-3.82-57.26-18.08-72.33C151.26,7.35,128.47,0,95.86,0,72.94,0,33.79,8.29,0,21.96v156.52c8.09,7.06,17.92,11.05,32.18,11.05,95.38,0,111.52-27.82,133.85-66.32Z"/>
      <g>
        <path class="cls-28" d="M103.6,160.38h-6.99v1.27h6.99v-1.27ZM105.43,155.54h-8.83v1.27h8.83v-1.27ZM108.24,152.53c-.12-.12-.28-.19-.45-.19h-13.68c-.17,0-.33.07-.45.19-.12.12-.19.28-.19.45v17.89c0,.17.07.33.19.45.12.12.28.19.45.19h8.97c.06,0,.11,0,.16-.02.01,0,.03,0,.04-.01.04-.01.08-.03.12-.06.01,0,.03-.02.04-.03.05-.03.09-.07.13-.12l4.71-5.94c.04-.05.07-.11.09-.17,0-.02.01-.04.02-.06.01-.04.02-.08.02-.13,0-.01,0-.02,0-.03v-11.95c0-.17-.07-.33-.19-.45ZM103.72,169.04v-3.48h2.76l-2.76,3.48ZM107.15,164.29h-4.07c-.17,0-.33.07-.45.19-.12.12-.19.28-.19.45v5.31h-7.71v-16.62h12.41v10.68ZM105.43,157.96h-8.83v1.27h8.83v-1.27Z"/>
        <g>
          <path class="cls-28" d="M89.86,93.17c.7-.2,1.42.2,1.62.9.2.7-.2,1.42-.9,1.62-.7.2-1.42-.2-1.62-.9-.2-.7.2-1.42.9-1.62Z"/>
          <path class="cls-28" d="M78.38,95.86c.98-.28,2,.28,2.28,1.26s-.28,2-1.26,2.28c-.98.28-2-.28-2.28-1.26s.28-2,1.26-2.28Z"/>
          <path class="cls-28" d="M87.22,100c.49-.14,1,.14,1.14.63.14.49-.14,1-.63,1.14-.49.14-1-.14-1.14-.63-.14-.49.14-1,.63-1.14Z"/>
        </g>
        <g>
          <polyline class="cls-28" points="14.21 87.95 28.17 87.95 28.17 86.68 14.21 86.68"/>
          <polyline class="cls-28" points="14.21 90.73 28.17 90.73 28.17 89.46 14.21 89.46"/>
          <polygon class="cls-28" points="7.92 88.65 9.59 90.48 12.36 87.19 11.39 86.37 9.55 88.56 8.86 87.8 7.92 88.65 7.92 88.65"/>
          <polyline class="cls-28" points="14.21 93.5 28.17 93.5 28.17 92.23 14.21 92.23"/>
          <polyline class="cls-28" points="14.21 96.28 22.52 96.28 22.52 95.01 14.21 95.01"/>
        </g>
        <g>
          <path class="cls-28" d="M22.13,113.83c.39.61.22,1.42-.39,1.82-.61.39-1.42.22-1.82-.39-.39-.61-.22-1.42.39-1.82.61-.39,1.42-.22,1.82.39Z"/>
          <path class="cls-28" d="M16.21,103.63c.55.85.31,2-.54,2.55-.85.55-2,.31-2.55-.54-.55-.85-.31-2,.54-2.55.85-.55,2-.31,2.55.54Z"/>
          <path class="cls-28" d="M14.82,113.3c.28.43.16,1-.27,1.27-.43.28-1,.16-1.27-.27s-.16-1,.27-1.27c.43-.28,1-.16,1.27.27Z"/>
        </g>
        <g>
          <path class="cls-28" d="M124.44,156.84c.39.61.22,1.42-.39,1.82-.61.39-1.42.22-1.82-.39-.39-.61-.22-1.42.39-1.82.61-.39,1.42-.22,1.82.39Z"/>
          <path class="cls-28" d="M118.52,146.65c.55.85.31,2-.54,2.55-.85.55-2,.31-2.55-.54-.55-.85-.31-2,.54-2.55.85-.55,2-.31,2.55.54Z"/>
          <path class="cls-28" d="M117.14,156.32c.28.43.16,1-.27,1.27-.43.28-1,.16-1.27-.27-.28-.43-.16-1,.27-1.27.43-.28,1-.16,1.27.27Z"/>
        </g>
        <g>
          <g>
            <g>
              <path class="cls-25" d="M86.67,133.11c.23-.01.46-.03.68-.07-.06-3.68-.17-5.55-.58-9.33-.23-.05-.47-.06-.71-.08.43,3.84.55,5.74.61,9.47Z"/>
              <path class="cls-25" d="M88.77,132.52c-.05-3.25-.15-4.9-.47-8.23-.24-.13-.49-.25-.74-.35.37,3.6.48,5.39.53,8.9.23-.09.46-.2.68-.32Z"/>
              <path class="cls-25" d="M91.59,130.01c-.04-1.19-.07-1.79-.14-2.99-.25-.29-.51-.57-.76-.84.13,1.85.18,2.77.23,4.59.23-.24.45-.5.67-.77Z"/>
              <path class="cls-25" d="M92.69,128.58c-.15-.19-.29-.38-.44-.56.02.43.03.65.05,1.08.13-.17.26-.34.39-.52Z"/>
              <path class="cls-25" d="M90.18,131.5c-.05-2.42-.12-3.64-.32-6.1-.25-.22-.5-.42-.76-.61.27,2.93.34,4.39.4,7.26.23-.17.46-.35.68-.55Z"/>
            </g>
            <path class="cls-23" d="M96.51,128.87c.13.18.25.34.38.52,0-.38-.02-.58-.03-.96-.12.15-.23.29-.35.45ZM101.92,124.59c.23,3.99.25,5.96.13,9.83.23.09.46.15.7.22.14-3.96.12-5.97-.11-10.05-.25-.01-.49-.02-.72,0ZM100.44,125.03c.2,3.47.23,5.18.16,8.55.23.17.46.33.7.47.1-3.67.07-5.54-.15-9.32-.24.07-.48.18-.7.29ZM97.59,127.51c.05,1.18.07,1.77.08,2.94.24.32.48.62.72.92,0-1.83-.03-2.76-.12-4.62-.23.24-.45.5-.68.77ZM99,126.03c.13,2.51.16,3.76.14,6.22.23.25.46.49.7.71.04-2.95.01-4.45-.16-7.47-.23.16-.46.35-.69.55ZM103.52,134.77c.24.02.48.05.71.04.15-3.91.14-5.9-.06-9.94-.24-.09-.49-.14-.74-.19.22,4.1.23,6.12.08,10.09ZM105.72,134.48c.13-3.46.13-5.21,0-8.76-.24-.18-.49-.35-.75-.49.17,3.85.18,5.74.03,9.48.25-.05.49-.13.72-.23ZM108.78,132.29c.03-1.27.04-1.9.03-3.18-.24-.35-.49-.68-.74-1,.03,1.97.02,2.95-.03,4.89.25-.22.5-.46.74-.71ZM110.01,130.95c-.14-.23-.28-.44-.42-.66,0,.46,0,.69-.01,1.15.14-.16.29-.32.43-.49ZM107.24,133.64c.08-2.57.09-3.87.03-6.49-.24-.27-.49-.52-.75-.76.1,3.13.1,4.67-.01,7.73.25-.14.49-.3.73-.47Z"/>
            <path class="cls-25" d="M114.12,131.91c.12.21.24.4.35.61.01-.41.02-.61.03-1.02-.13.14-.26.27-.38.42ZM119.96,128.24c-.02,4.25-.12,6.34-.49,10.44.23.13.46.24.71.34.39-4.2.5-6.34.53-10.68-.25-.05-.5-.09-.74-.1ZM118.41,128.47c-.02,3.69-.1,5.51-.38,9.09.22.22.45.43.68.61.33-3.9.42-5.88.44-9.9-.26.04-.5.12-.74.2ZM115.31,130.64c-.02,1.26-.04,1.88-.1,3.12.23.37.45.74.68,1.09.11-1.95.14-2.93.17-4.91-.25.22-.5.46-.75.7ZM116.86,129.3c-.03,2.67-.07,4-.24,6.62.22.3.45.59.67.86.23-3.14.29-4.73.31-7.95-.25.14-.5.29-.74.47ZM120.94,139.29c.24.06.49.13.72.15.41-4.15.53-6.26.58-10.56-.24-.13-.49-.23-.74-.32-.04,4.36-.16,6.51-.56,10.72ZM123.22,139.33c.36-3.66.48-5.53.56-9.31-.24-.23-.48-.44-.74-.63-.07,4.09-.19,6.11-.58,10.06.26-.02.51-.07.76-.13ZM126.49,137.47c.11-1.34.16-2.02.24-3.37-.22-.41-.45-.8-.69-1.18-.1,2.09-.17,3.13-.36,5.19.27-.2.54-.41.8-.64ZM127.84,136.23c-.13-.26-.26-.51-.38-.77-.03.49-.05.73-.09,1.22.16-.15.32-.29.48-.45ZM124.83,138.66c.26-2.72.35-4.1.46-6.89-.23-.32-.47-.63-.72-.92-.1,3.32-.21,4.97-.52,8.2.26-.11.52-.24.78-.39Z"/>
            <path class="cls-19" d="M131.96,137.88c.11.24.21.47.32.7.04-.43.06-.65.1-1.08-.14.13-.28.25-.42.38ZM138.16,134.86c-.32,4.5-.57,6.72-1.24,11.05.22.18.45.32.69.47.7-4.43.96-6.7,1.3-11.3-.25-.09-.51-.18-.75-.22ZM136.57,134.88c-.28,3.91-.48,5.84-1.03,9.62.21.27.42.53.65.76.62-4.12.85-6.22,1.15-10.48-.26,0-.52.05-.77.1ZM133.27,136.72c-.11,1.33-.17,1.99-.32,3.31.2.43.41.85.62,1.26.24-2.06.35-3.11.51-5.21-.27.2-.54.41-.81.64ZM134.94,135.52c-.21,2.83-.35,4.24-.71,7.01.2.36.41.7.63,1.02.45-3.32.63-5,.87-8.41-.27.11-.53.24-.79.39ZM138.38,146.79c.24.11.49.21.72.27.71-4.38.99-6.62,1.35-11.16-.23-.17-.48-.31-.73-.45-.35,4.62-.62,6.89-1.34,11.34ZM140.68,147.17c.63-3.87.88-5.84,1.25-9.84-.23-.28-.46-.54-.7-.78-.37,4.33-.63,6.46-1.32,10.64.26.02.52,0,.77-.02ZM144.13,145.66c.21-1.42.31-2.13.49-3.56-.2-.47-.4-.92-.61-1.36-.26,2.21-.4,3.31-.74,5.48.29-.17.57-.36.86-.56ZM145.59,144.54c-.11-.3-.22-.59-.33-.88-.07.52-.11.77-.18,1.29.17-.14.34-.27.51-.41ZM142.36,146.69c.46-2.88.65-4.33.97-7.28-.21-.38-.43-.74-.66-1.08-.34,3.52-.57,5.25-1.12,8.67.27-.08.55-.18.82-.3Z"/>
            <path class="cls-25" d="M149.63,146.9c.09.27.18.53.27.79.08-.46.11-.69.18-1.14-.15.12-.3.23-.45.35Z"/>
            <path class="cls-25" d="M156.13,144.57c-.67,4.75-1.1,7.08-2.12,11.64.21.22.43.41.66.6,1.06-4.66,1.51-7.04,2.2-11.9-.25-.13-.5-.26-.74-.34Z"/>
            <path class="cls-25" d="M154.52,144.36c-.58,4.13-.94,6.16-1.79,10.14.19.31.39.62.6.91.95-4.33,1.35-6.54,1.98-11.04-.27-.03-.53-.02-.79,0Z"/>
            <path class="cls-25" d="M151.04,145.85c-.21,1.4-.33,2.1-.57,3.49.17.49.35.97.52,1.44.41-2.17.59-3.27.92-5.49-.29.17-.58.36-.87.56Z"/>
            <path class="cls-25" d="M152.82,144.81c-.43,2.99-.68,4.47-1.26,7.38.18.41.36.81.55,1.18.72-3.49,1.02-5.27,1.53-8.86-.28.08-.55.18-.83.3Z"/>
          </g>
          <path class="cls-2" d="M120.59,139.07c-.14,1.46-.22,2.18-.4,3.62-4.82-1.71-7.22-6.48-9.68-10.63-2.22-3.76-4.38-6.93-7.45-7.34-3.06-.41-4.87,2.17-7.04,5.05-2.4,3.18-5.25,6.58-9.86,6.45.02-1.28.02-1.92,0-3.21,3.03.04,5.05-2.58,7.11-5.47,2.26-3.18,4.7-6.97,9.55-6.39,4.85.58,8.03,5.22,10.49,9.39,2.24,3.79,4.09,7.44,7.28,8.52Z"/>
          <path class="cls-6" d="M155.08,156.99c-.37,1.62-.57,2.42-.98,4.02-4.57-3.42-6.27-9.62-8.17-15.07-1.72-4.93-3.49-9.13-6.6-10.56-3.11-1.43-5.35.84-8,3.35-2.93,2.77-6.32,5.67-11.14,3.96.18-1.44.26-2.16.4-3.62,3.19,1.08,5.63-1.19,8.17-3.73,2.79-2.79,5.87-6.17,10.82-3.98,4.95,2.18,7.55,8.31,9.44,13.76,1.71,4.95,3.03,9.68,6.07,11.87Z"/>
          <path class="cls-9" d="M121.11,124.76c.03,1.53.04,2.29.02,3.8-3.31-.97-5.5,1.66-7.87,4.31-2.62,2.92-5.68,6.02-10.27,5.16-4.59-.86-7.11-4.86-9.63-8.33-2.29-3.15-4.69-6.04-7.81-5.97-.15-1.33-.24-2-.43-3.34,4.83-.17,8.21,3.86,10.85,7.49,2.39,3.29,4.23,6.21,7.2,6.72,2.96.52,5.04-1.77,7.38-4.53,2.58-3.06,5.41-6.74,10.56-5.32Z"/>
          <path class="cls-12" d="M157.83,141.04c-.2,1.71-.31,2.56-.56,4.25-3.21-2.09-5.84.17-8.66,2.42-3.1,2.48-6.66,5.07-11.24,2.61-4.58-2.46-6.64-7.84-8.81-12.54-1.97-4.28-4.12-8.25-7.43-9.22.01-1.51,0-2.27-.02-3.8,5.15,1.42,8.16,6.93,10.42,11.85,2.05,4.45,3.54,8.35,6.51,9.89,2.97,1.53,5.42-.4,8.22-2.77,3.09-2.62,6.55-5.83,11.57-2.69Z"/>
        </g>
        <g>
          <path class="cls-31" d="M58.47,58.67l.31.38-1.07,2.78-.64,4.76-2.88-5.83s-7.47-3.19-10.25-6.8l1.17-.78c.19-.98.31-1.69.31-1.69.29-1.12.52-2.57.74-4.09h.02c1.33.6,2.96.3,4.17-.46,1.04-.65,1.54-1.92,1.95-3.03.35-.95.67-1.9.95-2.87.53-1.79.98-3.65,2.02-5.2,1.32-1.96,3.49-3.23,5.76-3.86,2.28-.63,4.67-.67,7.03-.6,1.11.03,2.23.1,3.29.41.77.23,1.51.58,2.21.97,2.03,1.1,3.95,2.52,5.2,4.46,1.7,2.65,1.82,6.66-.69,8.9-.67.59-1.45,1.07-2.05,1.74-.76.86-1.14,2-1.59,3.04-1.12,2.59-3.83,4.28-6.18,5.71-1.28.76-2.69,1.55-4.14,1.95-.57.17-4.57-1.45-4.57-1.45l-3.9-2.24,2.83,3.81Z"/>
          <path class="cls-31" d="M118.26,74.15c.69,2.62,0,3.88-.57,5.57-.57,1.71-7.18,9.7-7.18,9.7,0,0-.4.9-1.07,2.5h-.02l-7.85-5.35h-.02l.93-1.4v-6.02c0-1.36,2.05-6.71,2.85-6.71s1.09,4.16.48,6.18c0,0,4.16-2.64,4.64-2.88.45-.24.67-1.81.67-2.83s-2.83-1.02-3.28-1.26-.12-2.05,2.38-2.28c2.5-.21,7.4,2.16,8.06,4.78Z"/>
          <path class="cls-1" d="M101.57,86.57l7.85,5.35c-.5,1.19-1.21,2.78-2.05,4.66l-8.09-6.56,2.26-3.45h.02Z"/>
          <path class="cls-27" d="M107.37,96.58l1.86,1.5-19.62,36.86-.83,1.55c-.81,1.57-1.52,2.81-2.09,3.62-1.55,2.31-3.66,3.71-5.87,4.07l-9.32-58.72c.59,11.27,2,36.27,3.16,57.15.24,4.16.45,8.13.67,11.8-1.24.02-2.85.24-4.97,1.09l-.86-.5v-.02l-3.21-1.88v-4.16c0-25.21,0-57.72.02-61.41.02-6.11-2.09-17.58-3.83-21.38l-2.45-5.66-.62-.71c7.78,1.47,12.53,4.54,14.48,15.44,2.05,11.49,8.68,40.1,8.68,40.1l16.72-25.28,8.09,6.56Z"/>
          <path class="cls-13" d="M53.65,43.58c-.11.19-.22.37-.35.53-.45.58-.99,1.1-1.56,1.56-.78.62-1.29,1.27-2.25,1.67-1.06.43-2.25.54-3.31.06.36-2.62.67-5.52.98-7.44.45-2.9.76-5.28,1.62-8.09.24-.83.67-1.76,1.52-1.97.02-1,.05-2.05.55-2.9.5-.88,1.62-1.47,2.52-1.05.26-1.38.52-2.71,1.62-3.69.5-.45,1.12-.78,1.76-.98.17-.05,1.9-.24,1.88-.12.67-2.26,3.92-2.5,5.85-2.24.88.12,1.74.52,2.21,1.26,1.38-.71,2.93-1.07,4.47-1.07,1,0,2.02.19,2.9.69,1.64,1,2.35,2.95,2.95,4.76,0-.29,1.97.57,2.16.74.67.64,1.05,1.57.93,2.47,1.24-.19,2.59.31,3.38,1.28.81.98,1.02,2.4.57,3.59,1.86.17,3.16,1.97,3.5,3.78.38,2.09-.29,4.4-1.86,5.83-1.57,1.43-4.02,1.88-5.95.95-.59-.28-1.05-.99-1.54-1.42-.81-.7-1.63-1.39-2.45-2.07-1.69-1.39-3.42-2.73-5.18-4.03-.51-.37-1.07-.76-1.7-.76-.91,0-1.61.79-2.16,1.52-.55.73-1.2,1.54-2.12,1.6-.28.02-.56-.03-.83-.02-1.05.04-1.84.93-2.46,1.78s-1.31,1.78-2.34,1.97c-.45-1.48,1.24-2.83,1.22-4.37-.01-.8-.88-1.06-1.58-1.04-.57.02-1.13.23-1.61.54-1.4.91-2.14,2.59-2.3,4.25-.02.16-.03.33-.07.49-.04.15-.12.3-.19.44-.25.48-.48,1.01-.75,1.48Z"/>
          <path class="cls-11" d="M54.24,166.93c0-1.31.02-2.66.02-4.09,2.31.81,3.71,1.26,3.71,1.26,0,0,.21-.48.59-1.26,1.93.74,3.69,1.4,5.16,1.95.98.36,1.86.67,2.54.9v.02c0,8.02.02,13.27.02,13.27,0,0,5.02-.21,9.3-2.45l8.25,19.29h-23.66v-7.54l1.52-3.64-4.42,2.71v8.47h-27.45l-2.74-18.34c12.13,3.85,27.09,2.69,27.09,2.69,0,0,.02-5.26.05-13.25Z"/>
          <path class="cls-22" d="M71.48,85.45l9.32,58.72c-2,.36-4.09-.14-5.99-1.57h-.17c-1.17-20.88-2.57-45.88-3.16-57.15Z"/>
          <path class="cls-27" d="M75.6,176.54c-4.28,2.24-9.3,2.45-9.3,2.45,0,0-.02-5.26-.02-13.27h.02s7.09,6.4,9.68,6.37c.1,0,.19,0,.29-.02.17,2.52.24,3.97.24,3.97-.31.19-.59.36-.9.5Z"/>
          <path class="cls-4" d="M62.47,66.14c1.74,3.81,3.85,15.27,3.83,21.38-.02,3.69-.02,36.2-.02,61.41h-6.99l-4.95-2.93v-1.71c.07-22.9.1-49.3-.14-54.87-.4-10.2-4.19-21.76-8.37-26.85,2.45,2.05,5.02,3.85,5.02,3.85l3.35-5.66,2.88,5.83,1.47-3.04,3.92,2.59Z"/>
          <path class="cls-17" d="M66.27,148.93v4.16l-2.54-1.52-4.45-2.64h6.99Z"/>
          <polygon class="cls-24" points="60.02 60.48 62.47 66.14 58.54 63.55 60.02 60.48"/>
          <polygon class="cls-20" points="61.71 184.65 60.18 188.29 60.18 195.83 57.28 195.83 57.28 187.36 61.71 184.65"/>
          <polygon class="cls-21" points="59.4 59.77 60.02 60.48 58.54 63.55 57.07 66.59 57.71 61.83 58.78 59.05 59.4 59.77"/>
          <polygon class="cls-30" points="59.54 57.1 58.78 59.05 58.47 58.67 55.64 54.87 59.54 57.1"/>
          <path class="cls-30" d="M54.68,41.36c-.45,2.35,2.49,3.38,2.49,3.38,0,0-1.5,2.26-2.78,2.14-1-.12-.88-2.33-.71-3.28.38-.48.67-1.71,1.01-2.23Z"/>
          <path class="cls-22" d="M54.33,144.29v1.71l-23.26-13.77,11.8-43.81-3.09,46.28,14.56,9.58Z"/>
          <path class="cls-22" d="M54.26,162.84c0,1.43-.02,2.78-.02,4.09-.95-.4-22.05-9.11-28.18-15.36l.07-1.74c3.5,2.28,7.56,4.5,11.68,6.4,6.23,2.88,12.61,5.26,16.46,6.61Z"/>
          <path class="cls-27" d="M54.24,166.93c-.02,7.99-.05,13.25-.05,13.25,0,0-14.96,1.17-27.09-2.69-.76-.24-1.5-.48-2.21-.76l1.17-25.16c6.14,6.26,27.23,14.96,28.18,15.36Z"/>
          <path class="cls-21" d="M41.75,58.43s-.02-.02-.02-.02l2.21-4.45c2.78,3.62,10.25,6.8,10.25,6.8l-3.35,5.66s-2.57-1.81-5.02-3.85c-1.76-1.45-3.42-3.02-4.07-4.14Z"/>
          <path class="cls-27" d="M42.87,88.42l-3.09,46.28,14.56,9.58c.07-22.9.1-49.3-.14-54.87-.4-10.2-4.19-21.76-8.37-26.85-1.76-1.45-3.42-3.02-4.07-4.14-3.32.47-7.42,1.85-10.68,5.18,11.16-3.77,14.75,12.29,11.8,24.81Z"/>
          <g>
            <path class="cls-18" d="M74.9,136.87l-.28-.13c-.93-.45-1.32-1.58-.87-2.52l.24-.48c.45-.93,1.58-1.32,2.52-.87l.28.13c.93.45,1.32,1.58.87,2.52l-.24.48c-.45.93-1.58,1.32-2.52.87ZM75.96,134.01c-.3-.15-.67-.02-.82.28l-.24.48c-.15.3-.02.67.28.82l.28.13c.3.15.67.02.82-.28l.24-.48c.15-.3.02-.67-.28-.82l-.28-.13Z"/>
            <rect class="cls-16" x="47.78" y="133.43" width="34.49" height="46.75" rx="6.07" ry="6.07" transform="translate(75.19 -12.65) rotate(25.95)"/>
            <rect class="cls-22" x="52.3" y="135.73" width="28.48" height="39.8" transform="translate(74.82 -13.43) rotate(25.95)"/>
            <rect class="cls-27" x="51.7" y="135.04" width="28.48" height="39.8" transform="translate(74.46 -13.23) rotate(25.95)"/>
            <path class="cls-14" d="M66.24,134.68h17.25v1.66c0,1.21-.98,2.19-2.19,2.19h-12.87c-1.21,0-2.19-.98-2.19-2.19v-1.66h0Z" transform="translate(67.34 -18.99) rotate(25.95)"/>
            <rect class="cls-22" x="60.28" y="138.74" width="14.59" height="10.62" transform="translate(69.86 -15.04) rotate(25.95)"/>
            <g>
              <rect class="cls-29" x="62.72" y="138.75" width="1.49" height="6.61" transform="translate(68.57 -13.45) rotate(25.95)"/>
              <rect class="cls-29" x="64.35" y="141.59" width="1.49" height="4.67" transform="translate(69.55 -13.97) rotate(25.95)"/>
              <rect class="cls-29" x="68.45" y="143.59" width="1.49" height="4.67" transform="translate(70.84 -15.57) rotate(25.95)"/>
              <rect class="cls-29" x="66.03" y="144.2" width="1.49" height="2.98" transform="translate(70.5 -14.53) rotate(25.96)"/>
              <rect class="cls-29" x="70" y="146.81" width="1.49" height="2.33" transform="translate(71.9 -16.04) rotate(25.95)"/>
            </g>
            <g>
              <rect class="cls-22" x="77.31" y="145.2" width="6.13" height=".7" transform="translate(71.81 -20.5) rotate(25.95)"/>
              <rect class="cls-22" x="76.34" y="147.19" width="6.13" height=".7" transform="translate(72.58 -19.87) rotate(25.95)"/>
              <rect class="cls-22" x="75.37" y="149.19" width="6.13" height=".7" transform="translate(73.36 -19.25) rotate(25.95)"/>
              <rect class="cls-22" x="74.4" y="151.18" width="6.13" height=".7" transform="translate(74.13 -18.62) rotate(25.95)"/>
              <rect class="cls-22" x="73.43" y="153.18" width="6.13" height=".7" transform="translate(74.91 -17.99) rotate(25.95)"/>
              <rect class="cls-22" x="56.89" y="151.58" width="22.53" height=".7" transform="translate(73.37 -14.5) rotate(25.95)"/>
              <rect class="cls-22" x="55.92" y="153.57" width="22.53" height=".7" transform="translate(74.14 -13.88) rotate(25.95)"/>
              <rect class="cls-22" x="54.95" y="155.57" width="22.53" height=".7" transform="translate(74.92 -13.25) rotate(25.95)"/>
              <rect class="cls-22" x="53.97" y="157.56" width="22.53" height=".7" transform="translate(75.69 -12.63) rotate(25.95)"/>
              <rect class="cls-22" x="53" y="159.56" width="22.53" height=".7" transform="translate(76.47 -12) rotate(25.95)"/>
              <rect class="cls-22" x="52.03" y="161.55" width="22.53" height=".7" transform="translate(77.24 -11.37) rotate(25.95)"/>
              <rect class="cls-22" x="51.06" y="163.55" width="22.53" height=".7" transform="translate(78.02 -10.75) rotate(25.95)"/>
              <rect class="cls-22" x="50.09" y="165.54" width="22.53" height=".7" transform="translate(78.79 -10.12) rotate(25.95)"/>
              <rect class="cls-22" x="49.12" y="167.53" width="22.53" height=".7" transform="translate(79.57 -9.5) rotate(25.95)"/>
            </g>
          </g>
          <g>
            <path class="cls-31" d="M66.27,165.7c-.69-.24-1.57-.55-2.54-.9l5.76-9.8.86.5c2.12-.86,3.73-1.07,4.97-1.09.57,0,1.05.02,1.45.05,1.33.07,5.21,2.62,5.42,3.02.21.43-.29,1.28-2.12.86-1.83-.43-3.64.19-3.64.19,0,0,4.71,2.83,5.8,3.33,1.07.48,2.47,1.76,1.71,2.81-.78,1.07-2.9,2.54-3.88,4.38-.93,1.76-1.43,2.97-3.81,3.04-.1.02-.19.02-.29.02-2.59.02-9.68-6.37-9.68-6.37h-.02v-.02Z"/>
            <path class="cls-3" d="M66.27,153.09l3.21,1.88v.02l-5.76,9.8c-1.47-.55-3.23-1.21-5.16-1.95,1.02-2.24,3.26-7.04,5.16-11.27l2.54,1.52Z"/>
            <path class="cls-27" d="M59.28,148.93l-4.95-2.93-23.26-13.77,11.8-43.81c2.95-12.53-.63-28.58-11.8-24.81-1.71,1.75-3.18,4.03-4.19,7-3.45,10.2-13.77,57.32-13.03,64.72.19,2.05.93,3.85,2.12,5.54,1.47,2.59,5.3,5.83,10.16,8.97,3.5,2.28,7.56,4.5,11.68,6.4,6.23,2.88,12.61,5.26,16.46,6.61,2.31.81,3.71,1.26,3.71,1.26,0,0,.21-.48.59-1.26,1.02-2.24,3.26-7.04,5.16-11.27l-4.45-2.64Z"/>
          </g>
        </g>
        <g>
          <g>
            <g>
              <path class="cls-25" d="M136.11,38.41c-.07.14-.15.27-.2.41,2.12,1.26,3.22,1.86,5.53,2.96.11-.12.2-.25.29-.38-2.34-1.11-3.47-1.71-5.62-2.99Z"/>
              <path class="cls-25" d="M135.71,39.82c1.87,1.11,2.85,1.64,4.86,2.63.16-.09.32-.19.46-.3-2.19-1.06-3.24-1.63-5.26-2.83-.03.16-.05.33-.06.5Z"/>
              <path class="cls-25" d="M136.15,42.31c.69.4,1.04.59,1.76.97.26-.04.5-.09.75-.14-1.1-.58-1.64-.87-2.7-1.49.06.21.13.43.2.65Z"/>
              <path class="cls-25" d="M136.57,43.44c.16-.02.32-.03.48-.05-.26-.14-.38-.21-.63-.35.05.13.1.27.16.41Z"/>
              <path class="cls-25" d="M135.79,40.98c1.4.82,2.12,1.21,3.59,1.97.21-.06.42-.14.61-.22-1.77-.88-2.62-1.35-4.28-2.33.01.19.04.38.08.58Z"/>
            </g>
            <path class="cls-23" d="M135.06,45.52c-.15,0-.28.02-.43.03.22.13.33.19.56.32-.04-.12-.09-.23-.13-.35ZM135.6,50.11c-2.36-1.28-3.49-1.96-5.65-3.39-.13.1-.25.21-.37.32,2.21,1.47,3.36,2.17,5.78,3.48.09-.14.18-.27.25-.42ZM135.87,49.12c-2.05-1.11-3.04-1.7-4.94-2.93-.18.07-.35.14-.51.23,2.06,1.35,3.13,1.99,5.37,3.2.04-.17.06-.33.08-.51ZM135.45,46.61c-.69-.39-1.03-.59-1.7-.99-.26.02-.52.05-.77.09,1.05.64,1.59.96,2.68,1.56-.06-.22-.12-.44-.2-.66ZM135.8,47.94c-1.48-.81-2.2-1.23-3.6-2.11-.22.04-.44.09-.65.15,1.67,1.06,2.54,1.58,4.32,2.55-.01-.19-.03-.39-.07-.59ZM129.23,47.44c-.1.13-.2.26-.27.39,2.18,1.47,3.32,2.16,5.69,3.47.13-.11.25-.23.37-.35-2.42-1.32-3.58-2.03-5.79-3.51ZM128.61,48.8c1.92,1.29,2.93,1.91,5,3.08.19-.08.37-.16.54-.26-2.26-1.26-3.34-1.92-5.42-3.32-.06.16-.09.33-.13.49ZM128.79,51.31c.71.46,1.07.69,1.8,1.14.29-.02.56-.04.83-.07-1.13-.68-1.69-1.03-2.78-1.74.04.22.09.44.14.67ZM129.11,52.49c.18,0,.35,0,.53,0-.26-.16-.39-.25-.65-.41.04.14.08.28.12.42ZM128.56,49.96c1.44.95,2.18,1.42,3.69,2.3.24-.04.47-.1.7-.16-1.82-1.04-2.7-1.59-4.4-2.73,0,.19,0,.39.01.59Z"/>
            <path class="cls-25" d="M127.12,54.49c-.16,0-.31,0-.47-.01.23.15.34.23.57.38-.03-.12-.07-.24-.1-.37ZM127.16,59.12c-2.42-1.51-3.57-2.3-5.78-3.96-.16.08-.3.18-.44.28,2.26,1.7,3.44,2.52,5.91,4.07.12-.13.23-.25.32-.39ZM127.57,58.15c-2.1-1.31-3.11-2-5.05-3.42-.2.05-.4.1-.59.17,2.1,1.56,3.2,2.31,5.5,3.74.07-.16.11-.33.15-.49ZM127.42,55.62c-.71-.46-1.06-.69-1.75-1.16-.29,0-.58,0-.86,0,1.07.75,1.62,1.11,2.75,1.83-.04-.22-.08-.45-.14-.68ZM127.64,56.98c-1.52-.96-2.25-1.45-3.69-2.47-.25.02-.49.05-.73.08,1.71,1.24,2.59,1.83,4.42,2.98.01-.19,0-.39,0-.59ZM120.51,55.78c-.12.12-.25.23-.34.36,2.22,1.69,3.39,2.51,5.82,4.05.16-.09.3-.2.44-.31-2.47-1.56-3.66-2.38-5.92-4.1ZM119.68,57.07c1.96,1.5,2.99,2.22,5.11,3.6.21-.06.42-.12.62-.2-2.31-1.48-3.42-2.26-5.53-3.88-.08.15-.14.31-.19.48ZM119.59,59.59c.73.54,1.09.8,1.84,1.33.31.02.62.02.91.02-1.16-.8-1.73-1.2-2.83-2.03.02.22.04.45.08.68ZM119.82,60.8c.2.02.38.04.58.05-.27-.19-.4-.29-.66-.48.03.14.06.28.09.43ZM119.49,58.22c1.46,1.11,2.22,1.64,3.77,2.69.27-.02.53-.05.78-.09-1.86-1.23-2.76-1.87-4.5-3.19-.03.19-.05.38-.05.58Z"/>
            <path class="cls-19" d="M117.42,62.57c-.17-.02-.34-.04-.51-.06.23.18.35.26.58.44-.02-.13-.05-.25-.07-.38ZM116.96,67.17c-2.46-1.77-3.63-2.69-5.87-4.6-.18.06-.35.15-.51.23,2.28,1.96,3.48,2.91,5.99,4.73.14-.11.28-.23.39-.35ZM117.51,66.26c-2.13-1.54-3.16-2.33-5.13-3.98-.23.03-.45.06-.66.1,2.13,1.8,3.25,2.68,5.58,4.35.09-.15.16-.31.22-.47ZM117.63,63.72c-.72-.53-1.08-.8-1.78-1.35-.32-.04-.63-.07-.94-.09,1.09.87,1.65,1.29,2.79,2.13-.02-.22-.04-.45-.08-.69ZM117.72,65.1c-1.54-1.12-2.29-1.7-3.75-2.87-.27,0-.54-.01-.8,0,1.73,1.43,2.63,2.12,4.49,3.46.03-.19.05-.39.06-.59ZM110.08,63.09c-.15.1-.29.2-.41.32,2.25,1.95,3.43,2.9,5.89,4.71.18-.07.35-.17.51-.26-2.51-1.83-3.71-2.79-6-4.76ZM109.05,64.27c1.98,1.72,3.02,2.56,5.17,4.18.24-.03.47-.07.69-.13-2.34-1.74-3.46-2.64-5.61-4.5-.1.14-.18.29-.26.45ZM108.7,66.77c.73.62,1.1.93,1.86,1.54.34.05.67.09.99.13-1.17-.93-1.75-1.4-2.87-2.36,0,.22,0,.45.02.69ZM108.82,67.99c.21.04.41.08.62.12-.27-.22-.4-.33-.67-.56.02.15.03.29.05.44ZM108.73,65.39c1.48,1.28,2.24,1.9,3.81,3.12.29.01.58.01.85,0-1.89-1.44-2.8-2.18-4.55-3.7-.05.18-.09.38-.12.58Z"/>
            <path class="cls-25" d="M106.05,69.47c-.19-.04-.37-.08-.55-.13.23.2.35.31.59.51-.01-.13-.02-.25-.04-.38Z"/>
            <path class="cls-25" d="M105.09,74c-2.47-2.06-3.65-3.12-5.89-5.31-.2.04-.39.1-.58.16,2.28,2.25,3.49,3.34,6.01,5.45.16-.1.32-.19.46-.3Z"/>
            <path class="cls-25" d="M105.78,73.15c-2.15-1.78-3.18-2.71-5.16-4.59-.25,0-.49,0-.73.02,2.14,2.07,3.26,3.07,5.6,5.02.11-.14.2-.29.28-.45Z"/>
            <path class="cls-25" d="M106.16,70.64c-.73-.62-1.08-.93-1.79-1.56-.34-.08-.68-.14-1-.21,1.1,1,1.66,1.49,2.81,2.46,0-.22,0-.46-.01-.69Z"/>
            <path class="cls-25" d="M106.12,72.02c-1.55-1.3-2.31-1.96-3.77-3.32-.3-.04-.59-.08-.87-.1,1.74,1.64,2.64,2.44,4.52,4,.05-.18.09-.38.12-.58Z"/>
          </g>
          <path class="cls-7" d="M120.76,55.66c-.78-.59-1.17-.89-1.93-1.5,2.68-2.15,6.24-1.84,9.48-1.77,2.93.06,5.5-.06,6.81-1.66,1.31-1.6.48-3.54-.4-5.79-.97-2.49-1.9-5.31-.21-7.9.72.46,1.09.69,1.84,1.13-1.09,1.72-.31,3.79.61,5.98,1.02,2.41,2.32,5.14.28,7.7-2.04,2.56-5.81,2.74-9.06,2.68-2.95-.06-5.69-.29-7.42,1.15Z"/>
          <path class="cls-5" d="M98.37,69.02c-.79-.78-1.18-1.18-1.95-1.98,3.56-1.4,7.7-.19,11.47.65,3.42.76,6.44,1.23,8.35-.04,1.91-1.27,1.4-3.35.91-5.74-.55-2.65-1.01-5.61,1.67-7.75.76.61,1.14.91,1.93,1.5-1.74,1.44-1.3,3.64-.75,5.97.61,2.57,1.45,5.52-1.54,7.58-2.99,2.06-7.4,1.38-11.18.53-3.43-.77-6.59-1.68-8.91-.72Z"/>
          <path class="cls-15" d="M128.73,61c-.88-.52-1.32-.79-2.18-1.33,1.72-1.55.99-3.72.32-6.01-.74-2.52-1.44-5.36.67-7.68,2.11-2.31,5.28-2.34,8.14-2.56,2.6-.2,5.1-.55,6.16-2.35.81.38,1.22.57,2.06.93-1.61,2.82-5.09,3.32-8.1,3.55-2.72.21-5.03.23-6.37,1.74-1.34,1.51-.77,3.5-.02,5.81.83,2.55,1.94,5.46-.69,7.9Z"/>
          <path class="cls-10" d="M106.5,76.21c-.9-.72-1.35-1.08-2.23-1.82,2.32-1.1,1.96-3.39,1.67-5.79-.32-2.64-.54-5.59,2.47-7.33,3.02-1.74,6.81-1.03,10.26-.6,3.14.38,6.16.56,7.88-.99.86.54,1.29.81,2.18,1.33-2.63,2.44-6.83,2.21-10.43,1.77-3.26-.4-6.01-.92-7.94.23-1.92,1.15-1.69,3.23-1.32,5.66.41,2.69,1.02,5.79-2.55,7.55Z"/>
        </g>
        <path class="cls-31" d="M102.57,78.43c.61-2.47,1.58-6,2.76-5.99,1.18.01,1.09,4.35.52,6.62-.57,2.28-3.28-.64-3.28-.64Z"/>
        <path class="cls-30" d="M106.59,79.5c-.48-.83,1.18,3.06,1.01,4.16-.18,1.09-.7,3.11-.7,3.11,0,0,1.44-1.14,1.58-2.98.13-1.84-1.53-3.68-1.88-4.29Z"/>
        <path class="cls-30" d="M111.06,72.5c2.1.7,5.12,2.32,5.12,2.67s-2.89-.9-3.98-1.58-1.14-1.09-1.14-1.09Z"/>
        <path class="cls-30" d="M58.74,37.91c-.32-.14-.65-.25-.98-.19-.33.06-.61.29-.86.55-.82.88-1.3,2.21-1.28,3.56,0,.13.01.27.06.39.09.2.29.29.47.35.39.12.86.17,1.14-.17.17-.21.23-.52.21-.81-.02-.29-.1-.58-.19-.86-.03-.1-.06-.21-.05-.32.03-.21.23-.31.4-.34.52-.1.77.16.99-.52.06-.19.33-1.53.08-1.64Z"/>
        <polygon class="cls-24" points="45.11 53.18 44.74 54.88 43.94 53.96 45.11 53.18"/>
        <polygon class="cls-22" points="43.95 64.93 47.54 79.11 52.53 81.74 49.38 86.38 52.45 110.97 48.45 86 51.48 81.85 45.88 79.37 43.95 64.93"/>
        <path class="cls-22" d="M63.65,64.75s.27.68.73,1.87c.46,1.19,1.11,2.91,1.89,4.95.77,2.05,1.67,4.45,2.63,7.01.04.11.08.23.13.36l.05.12-.09.1c-.69.84-1.41,1.71-2.17,2.64v-.32c.87,1.06,1.79,2.18,2.72,3.32l.07.08v.1c-.02.16-.03.32-.04.49-.21,2.91-.43,5.83-.63,8.56-.22,2.73-.43,5.28-.61,7.46-.19,2.18-.35,4-.47,5.28-.12,1.27-.19,2-.19,2,0,0,.03-.73.09-2.01.07-1.28.16-3.11.27-5.29.13-2.19.28-4.74.44-7.48.18-2.74.37-5.65.57-8.57.01-.17.02-.33.04-.49l.06.18c-.93-1.14-1.84-2.27-2.71-3.33l-.13-.16.13-.16c.78-.92,1.5-1.78,2.2-2.61l-.04.23c-.05-.13-.09-.24-.13-.36-.9-2.58-1.75-5-2.47-7.07-.71-2.07-1.3-3.8-1.71-5.01-.4-1.21-.64-1.91-.64-1.91Z"/>
        <g>
          <path class="cls-28" d="M104.86,44.07c-.04-.68-.23-1.32-.56-1.9l.55-.31c-.28-.5-.64-.95-1.07-1.33l-.42.47c-.49-.43-1.07-.77-1.74-.96l.17-.61h0c-.46-.13-.93-.2-1.39-.2-.1,0-.2,0-.3,0l.04.63c-.68.04-1.32.23-1.9.56l-.31-.55c-.5.28-.95.64-1.33,1.07l.47.42c-.43.49-.77,1.07-.96,1.74l-.61-.17h0c-.13.47-.19.94-.19,1.4,0,.1,0,.2,0,.29l.63-.04c.04.68.23,1.33.55,1.9l-.55.31c.28.5.63.95,1.06,1.33l.42-.47c.48.43,1.07.77,1.74.96l-.17.61h.02c.46.14.93.2,1.39.2.1,0,.2,0,.31,0l-.04-.63c.68-.04,1.32-.24,1.9-.56l.31.55c.5-.28.95-.64,1.33-1.07l-.47-.42c.43-.49.76-1.07.95-1.74l.61.17h0c.13-.47.19-.93.19-1.39,0-.1,0-.2,0-.3l-.63.04ZM99.31,48.24h0l.03-.11-.03.11ZM103.01,45.07c-.34,1.19-1.42,1.96-2.59,1.96-.24,0-.49-.03-.74-.1-1.19-.34-1.96-1.42-1.96-2.59,0-.24.03-.49.1-.74.34-1.19,1.42-1.96,2.59-1.96.24,0,.49.03.74.1,1.19.34,1.96,1.42,1.96,2.59,0,.24-.03.49-.1.74Z"/>
          <path class="cls-28" d="M112.61,42.15l-.42.08c-.06-.33-.18-.64-.34-.93l.37-.21c-.27-.49-.65-.91-1.13-1.23l-.24.35c-.27-.18-.57-.33-.89-.42l.12-.41h-.02c-.33-.1-.65-.14-.98-.14-.23,0-.45.02-.67.06l.08.42c-.33.06-.64.18-.93.33l-.21-.37c-.49.27-.92.65-1.24,1.12l.35.24c-.18.27-.33.57-.42.89l-.41-.12v.03c-.1.33-.14.65-.14.98,0,.22.02.45.06.66l.42-.08c.06.33.17.64.33.93l-.37.2h0c.27.49.65.92,1.12,1.24l.24-.35c.27.18.57.33.89.42l-.12.41h.04c.33.1.65.15.98.15.23,0,.47-.02.69-.07l-.08-.42c.33-.06.64-.18.93-.34l.21.37c.49-.27.91-.66,1.23-1.13l-.35-.24c.18-.27.32-.57.42-.89l.41.12h0c.09-.33.14-.66.14-.99,0-.23-.02-.46-.07-.68ZM109.09,44.97c-.19,0-.39-.03-.58-.08-.94-.27-1.55-1.12-1.55-2.05,0-.19.03-.39.08-.58.26-.94,1.12-1.55,2.05-1.55.19,0,.39.03.58.08.94.26,1.55,1.12,1.55,2.05,0,.19-.03.39-.08.58-.27.94-1.12,1.55-2.05,1.55Z"/>
        </g>
        <g>
          <circle class="cls-28" cx="142.52" cy="104.69" r="1.89"/>
          <circle class="cls-28" cx="150.62" cy="110.53" r="1.89"/>
          <circle class="cls-28" cx="146.84" cy="127.43" r="1.89"/>
          <circle class="cls-28" cx="133.71" cy="118.99" r="1.89"/>
          <polygon class="cls-28" points="146.89 127.61 133.28 118.99 150.32 110.42 142.39 104.86 142.64 104.52 151.14 110.48 134.14 119.03 147.11 127.25 146.89 127.61"/>
        </g>
        <g>
          <path class="cls-28" d="M27.42,54.47c-.85-.41-1.21-1.44-.79-2.29.41-.85,1.44-1.21,2.29-.79.85.41,1.21,1.44.79,2.29-.41.85-1.44,1.21-2.29.79Z"/>
          <path class="cls-28" d="M33.49,58.8c-.85-.41-1.21-1.44-.79-2.29.41-.85,1.44-1.21,2.29-.79.85.41,1.21,1.44.79,2.29-.41.85-1.44,1.21-2.29.79Z"/>
          <circle class="cls-28" cx="40.31" cy="46.05" r="1.71"/>
          <polygon class="cls-28" points="34.12 57.43 27.78 52.92 40.2 45.87 40.41 46.24 28.56 52.96 34.36 57.09 34.12 57.43"/>
        </g>
        <path class="cls-28" d="M126.22,75.81c-1.58,1.98-1.56,4.87.05,6.83,1.83,2.22,4.97,2.58,7.22,1.08l3.48,3.48c.15.15.38.15.53,0l.98-.98c.15-.15.15-.38,0-.53l-3.48-3.48c1.41-2.11,1.18-5-.68-6.86-2.27-2.27-6.05-2.11-8.11.46ZM132.82,81.53c-1.29,1.29-3.39,1.29-4.67,0-1.29-1.29-1.29-3.39,0-4.67,1.29-1.29,3.39-1.29,4.67,0,1.29,1.29,1.29,3.39,0,4.67Z"/>
        <g>
          <rect class="cls-28" x="126.08" y="103.86" width="6.09" height="4.56" rx=".59" ry=".59"/>
          <path class="cls-28" d="M127.61,105.2v-2.17c0-.42.17-.8.44-1.07.28-.27.65-.44,1.07-.44.42,0,.8.17,1.07.44.27.28.44.65.44,1.07v2.17h.88v-2.17c0-1.32-1.07-2.39-2.39-2.39-1.32,0-2.39,1.07-2.39,2.39v2.17h.88,0Z"/>
        </g>
        <path class="cls-28" d="M112.82,105.4c-2.42,0-4.38,1.96-4.38,4.38,0,4.35,4.38,9.65,4.38,9.65,0,0,4.38-5.3,4.38-9.65,0-2.42-1.96-4.38-4.38-4.38ZM112.82,112.1c-1.28,0-2.31-1.04-2.31-2.32s1.04-2.31,2.31-2.31,2.32,1.04,2.32,2.31-1.04,2.32-2.32,2.32Z"/>
        <g>
          <rect class="cls-28" x="92.74" y="76.1" width="1.66" height="6.39"/>
          <rect class="cls-28" x="87.1" y="78.81" width="1.66" height="3.69"/>
          <rect class="cls-28" x="84.29" y="80.38" width="1.66" height="2.12"/>
          <rect class="cls-28" x="81.47" y="80.38" width="1.66" height="2.12"/>
          <rect class="cls-28" x="78.66" y="81.44" width="1.66" height="1.06"/>
          <rect class="cls-28" x="89.92" y="77.89" width="1.66" height="4.61"/>
          <path class="cls-28" d="M77.97,80.55s.06,0,.15,0c.58,0,2.79-.07,5.71-1.03,2.92-.96,6.56-2.82,9.99-6.38l-.52-.5c-3.34,3.47-6.87,5.27-9.7,6.2-2.83.93-4.96,1-5.48,1-.04,0-.08,0-.1,0h-.03s-.03.72-.03.72h0Z"/>
          <polygon class="cls-28" points="94.38 72.14 92.21 72.59 93.93 74.3 94.38 72.14"/>
        </g>
        <g>
          <path class="cls-28" d="M152.66,86.54c0,.82-.66,1.48-1.48,1.48s-1.48-.66-1.48-1.48.66-1.48,1.48-1.48,1.48.66,1.48,1.48Z"/>
          <path class="cls-28" d="M154.67,81.45c0,1.15-.93,2.08-2.08,2.08s-2.08-.93-2.08-2.08.93-2.08,2.08-2.08,2.08.93,2.08,2.08Z"/>
          <path class="cls-28" d="M147.26,82.78c0,.57-.47,1.04-1.04,1.04s-1.04-.47-1.04-1.04.47-1.04,1.04-1.04,1.04.47,1.04,1.04Z"/>
        </g>
      </g>
    </g>
  </g>
</svg>