<?xml version="1.0" encoding="UTF-8"?>
<svg xmlns="http://www.w3.org/2000/svg" xmlns:xlink="http://www.w3.org/1999/xlink" viewBox="0 0 184 189.53">
  <defs>
    <style>
      .cls-1 {
        fill: url(#Degradado_sin_nombre_92);
      }

      .cls-1, .cls-2, .cls-3, .cls-4, .cls-5, .cls-6, .cls-7, .cls-8, .cls-9, .cls-10, .cls-11, .cls-12, .cls-13, .cls-14, .cls-15, .cls-16, .cls-17, .cls-18, .cls-19, .cls-20, .cls-21, .cls-22 {
        stroke-width: 0px;
      }

      .cls-2 {
        fill: url(#Degradado_sin_nombre_80);
      }

      .cls-3 {
        fill: url(#Degradado_sin_nombre_89);
      }

      .cls-23 {
        clip-path: url(#clippath);
      }

      .cls-4 {
        fill: none;
      }

      .cls-5 {
        fill: url(#_新規グラデーションスウォッチ_2);
      }

      .cls-6 {
        fill: url(#_新規グラデーションスウォッチ_2-4);
      }

      .cls-7 {
        fill: url(#_新規グラデーションスウォッチ_2-2);
      }

      .cls-8 {
        fill: url(#_新規グラデーションスウォッチ_2-3);
      }

      .cls-9 {
        fill: url(#Degradado_sin_nombre_80-2);
      }

      .cls-10 {
        fill: url(#Degradado_sin_nombre_80-3);
      }

      .cls-11 {
        fill: url(#Degradado_sin_nombre_89-7);
      }

      .cls-12 {
        fill: url(#Degradado_sin_nombre_89-2);
      }

      .cls-13 {
        fill: url(#Degradado_sin_nombre_89-4);
      }

      .cls-14 {
        fill: url(#Degradado_sin_nombre_89-3);
      }

      .cls-15 {
        fill: url(#Degradado_sin_nombre_89-5);
      }

      .cls-16 {
        fill: url(#Degradado_sin_nombre_89-6);
      }

      .cls-24 {
        isolation: isolate;
      }

      .cls-17 {
        fill: url(#Degradado_sin_nombre_6);
        mix-blend-mode: multiply;
        opacity: .45;
      }

      .cls-18 {
        fill: #1e2020;
      }

      .cls-19 {
        fill: #fff;
      }

      .cls-20 {
        fill: #efefef;
      }

      .cls-21 {
        fill: #fcc400;
      }

      .cls-22 {
        fill: #f1b37b;
      }
    </style>
    <clipPath id="clippath">
      <path class="cls-4" d="M166.03,123.21c5.23-9.02,10.64-18.35,17.52-28.15l.08-.12v-.14c1.92-34.27-3.82-57.25-18.08-72.33C151.26,7.35,128.47,0,95.86,0,72.94,0,33.79,8.29,0,21.96v156.52c8.09,7.06,17.92,11.05,32.18,11.05,95.38,0,111.52-27.82,133.85-66.32Z"/>
    </clipPath>
    <linearGradient id="_新規グラデーションスウォッチ_2" data-name="新規グラデーションスウォッチ 2" x1="186.45" y1="42.8" x2="73.06" y2="135.06" gradientUnits="userSpaceOnUse">
      <stop offset="0" stop-color="#75c7b6"/>
      <stop offset="1" stop-color="#92cedc"/>
    </linearGradient>
    <linearGradient id="_新規グラデーションスウォッチ_2-2" data-name="新規グラデーションスウォッチ 2" x1="197.2" y1="56.01" x2="83.81" y2="148.27" xlink:href="#_新規グラデーションスウォッチ_2"/>
    <linearGradient id="_新規グラデーションスウォッチ_2-3" data-name="新規グラデーションスウォッチ 2" x1="204.26" y1="64.69" x2="90.87" y2="156.94" xlink:href="#_新規グラデーションスウォッチ_2"/>
    <linearGradient id="_新規グラデーションスウォッチ_2-4" data-name="新規グラデーションスウォッチ 2" x1="198.39" y1="79.79" x2="96.16" y2="162.96" xlink:href="#_新規グラデーションスウォッチ_2"/>
    <linearGradient id="Degradado_sin_nombre_80" data-name="Degradado sin nombre 80" x1="106.85" y1="57.2" x2="121.09" y2="57.2" gradientUnits="userSpaceOnUse">
      <stop offset=".22" stop-color="#f7c3c1"/>
      <stop offset="1" stop-color="#f3a396"/>
    </linearGradient>
    <linearGradient id="Degradado_sin_nombre_80-2" data-name="Degradado sin nombre 80" x1="96.66" y1="101.98" x2="110.4" y2="101.98" xlink:href="#Degradado_sin_nombre_80"/>
    <linearGradient id="Degradado_sin_nombre_89" data-name="Degradado sin nombre 89" x1="44.05" y1="108.29" x2="84.22" y2="108.29" gradientUnits="userSpaceOnUse">
      <stop offset=".05" stop-color="#1f2248"/>
      <stop offset=".7" stop-color="#243884"/>
    </linearGradient>
    <linearGradient id="Degradado_sin_nombre_80-3" data-name="Degradado sin nombre 80" x1="79.98" y1="57.4" x2="97.07" y2="57.4" xlink:href="#Degradado_sin_nombre_80"/>
    <linearGradient id="Degradado_sin_nombre_92" data-name="Degradado sin nombre 92" x1="76.5" y1="52.56" x2="95.76" y2="52.56" gradientUnits="userSpaceOnUse">
      <stop offset=".07" stop-color="#a04c33"/>
      <stop offset="1" stop-color="#3b160e"/>
    </linearGradient>
    <linearGradient id="Degradado_sin_nombre_89-2" data-name="Degradado sin nombre 89" x1="70.43" y1="67.94" x2="113.66" y2="67.94" xlink:href="#Degradado_sin_nombre_89"/>
    <linearGradient id="Degradado_sin_nombre_6" data-name="Degradado sin nombre 6" x1="79.81" y1="68.63" x2="89.2" y2="68.63" gradientUnits="userSpaceOnUse">
      <stop offset="0" stop-color="#f3a396" stop-opacity="0"/>
      <stop offset=".98" stop-color="#f3a396"/>
    </linearGradient>
    <linearGradient id="Degradado_sin_nombre_89-3" data-name="Degradado sin nombre 89" x1="-3.05" y1="119.28" x2="52.05" y2="119.28" xlink:href="#Degradado_sin_nombre_89"/>
    <linearGradient id="Degradado_sin_nombre_89-4" data-name="Degradado sin nombre 89" x1="35.36" y1="82.4" x2="84.5" y2="82.4" xlink:href="#Degradado_sin_nombre_89"/>
    <linearGradient id="Degradado_sin_nombre_89-5" data-name="Degradado sin nombre 89" x1="75.08" y1="70.07" x2="84.81" y2="70.07" xlink:href="#Degradado_sin_nombre_89"/>
    <linearGradient id="Degradado_sin_nombre_89-6" data-name="Degradado sin nombre 89" x1="66.61" y1="79.99" x2="75.08" y2="79.99" xlink:href="#Degradado_sin_nombre_89"/>
    <linearGradient id="Degradado_sin_nombre_89-7" data-name="Degradado sin nombre 89" x1="67.25" y1="84.28" x2="102.62" y2="84.28" xlink:href="#Degradado_sin_nombre_89"/>
  </defs>
  <g class="cls-24">
    <g id="_レイヤー_2" data-name="レイヤー 2">
      <g id="m">
        <g class="cls-23">
          <path class="cls-19" d="M166.03,123.21c5.23-9.02,10.64-18.35,17.52-28.15l.08-.12v-.14c1.92-34.27-3.82-57.25-18.08-72.33C151.26,7.35,128.47,0,95.86,0,72.94,0,33.79,8.29,0,21.96v156.52c8.09,7.06,17.92,11.05,32.18,11.05,95.38,0,111.52-27.82,133.85-66.32Z"/>
          <g>
            <g>
              <path class="cls-20" d="M120.83,117.76c-1.65-1.65-4.33-1.65-5.98,0l-2.64,2.64c-1.59,1.6-1.65,4.15-.15,5.83.28.31.75.34,1.07.07.31-.28.34-.75.07-1.07,0,0,0-.01-.01-.02-.96-1.07-.92-2.71.1-3.74l2.64-2.64c1.07-1.05,2.79-1.04,3.84.03,1.04,1.06,1.04,2.75,0,3.81l-2.3,2.3c-.3.3-.3.78,0,1.07.3.3.78.3,1.07,0l2.3-2.3c1.65-1.65,1.65-4.33,0-5.98Z"/>
              <path class="cls-20" d="M115.2,123.68c1.51,1.67,1.44,4.23-.14,5.83l-2.64,2.64c-1.66,1.64-4.34,1.63-5.98-.04-1.63-1.65-1.63-4.3,0-5.95l2.3-2.3c.3-.3.78-.3,1.07,0s.3.78,0,1.07l-2.3,2.3c-1.04,1.08-1.01,2.79.07,3.83,1.05,1.01,2.72,1.01,3.77,0l2.64-2.64c1.02-1.02,1.06-2.66.1-3.74-.28-.31-.25-.79.07-1.07.31-.27.78-.25,1.06.05h0Z"/>
            </g>
            <g>
              <path class="cls-20" d="M37.69,60.38c-1.65-1.65-4.33-1.65-5.98,0l-2.64,2.64c-1.59,1.6-1.65,4.15-.15,5.83.28.31.75.34,1.07.07.31-.28.34-.75.07-1.07,0,0,0-.01-.01-.02-.96-1.07-.92-2.71.1-3.74l2.64-2.64c1.07-1.05,2.79-1.04,3.84.03,1.04,1.06,1.04,2.75,0,3.81l-2.3,2.3c-.3.3-.3.78,0,1.07.3.3.78.3,1.07,0l2.3-2.3c1.65-1.65,1.65-4.33,0-5.98Z"/>
              <path class="cls-20" d="M32.06,66.3c1.51,1.67,1.44,4.23-.14,5.83l-2.64,2.64c-1.66,1.64-4.34,1.63-5.98-.04-1.63-1.65-1.63-4.3,0-5.95l2.3-2.3c.3-.3.78-.3,1.07,0s.3.78,0,1.07l-2.3,2.3c-1.04,1.08-1.01,2.79.07,3.83,1.05,1.01,2.72,1.01,3.77,0l2.64-2.64c1.02-1.02,1.06-2.66.1-3.74-.28-.31-.25-.79.07-1.07.31-.27.78-.25,1.06.05h0Z"/>
            </g>
            <path class="cls-20" d="M34.24,115.25h-1.79v-2.55h-2.88v-1.4h1.63c.49,0,.9-.4.9-.9v-3.96c0-.49-.4-.9-.9-.9h-1.63v-2.29h-5.9v-1.68h4.72c.46,0,.83-.37.83-.83v-4.74c0-.46-.37-.83-.83-.83h-10.16c-.46,0-.83.37-.83.83v4.74c0,.46.37.83.83.83h4.72v1.68h-5.9v2.29h-1.63c-.49,0-.9.4-.9.9v3.96c0,.49.4.9.9.9h1.63v1.4h-2.88v2.55h-1.79c-.41,0-.74.33-.74.74v2.42c0,.41.33.74.74.74h4.28c.41,0,.74-.33.74-.74v-2.42c0-.41-.33-.74-.74-.74h-1.79v-1.84h8.07v1.84h-1.79c-.41,0-.74.33-.74.74v2.42c0,.41.33.74.74.74h4.28c.41,0,.74-.33.74-.74v-2.42c0-.41-.33-.74-.74-.74h-1.79v-1.84h8.07v1.84h-1.79c-.41,0-.74.33-.74.74v2.42c0,.41.33.74.74.74h4.28c.41,0,.74-.33.74-.74v-2.42c0-.41-.33-.74-.74-.74ZM17.77,112.7v-1.4h1.63c.49,0,.9-.4.9-.9v-3.96c0-.49-.4-.9-.9-.9h-1.63v-1.58h11.1v1.58h-1.63c-.49,0-.9.4-.9.9v3.96c0,.49.4.9.9.9h1.63v1.4h-11.1Z"/>
            <path class="cls-20" d="M136.32,167.41h-1.79v-2.55h-2.88v-1.4h1.63c.49,0,.9-.4.9-.9v-3.96c0-.49-.4-.9-.9-.9h-1.63v-2.29h-5.9v-1.68h4.72c.46,0,.83-.37.83-.83v-4.74c0-.46-.37-.83-.83-.83h-10.16c-.46,0-.83.37-.83.83v4.74c0,.46.37.83.83.83h4.72v1.68h-5.9v2.29h-1.63c-.49,0-.9.4-.9.9v3.96c0,.49.4.9.9.9h1.63v1.4h-2.88v2.55h-1.79c-.41,0-.74.33-.74.74v2.42c0,.41.33.74.74.74h4.28c.41,0,.74-.33.74-.74v-2.42c0-.41-.33-.74-.74-.74h-1.79v-1.84h8.07v1.84h-1.79c-.41,0-.74.33-.74.74v2.42c0,.41.33.74.74.74h4.28c.41,0,.74-.33.74-.74v-2.42c0-.41-.33-.74-.74-.74h-1.79v-1.84h8.07v1.84h-1.79c-.41,0-.74.33-.74.74v2.42c0,.41.33.74.74.74h4.28c.41,0,.74-.33.74-.74v-2.42c0-.41-.33-.74-.74-.74ZM119.85,164.86v-1.4h1.63c.49,0,.9-.4.9-.9v-3.96c0-.49-.4-.9-.9-.9h-1.63v-1.58h11.1v1.58h-1.63c-.49,0-.9.4-.9.9v3.96c0,.49.4.9.9.9h1.63v1.4h-11.1Z"/>
            <path class="cls-20" d="M66.77,48.59c0,.72-3.61,1.31-8.06,1.31s-8.06-.59-8.06-1.31,3.61-1.31,8.06-1.31,8.06.59,8.06,1.31ZM66.77,50.03v4.26c0,.72-3.61,1.31-8.06,1.31s-8.06-.59-8.06-1.31v-4.26c0,.72,3.61,1.31,8.06,1.31s8.06-.59,8.06-1.31ZM65.54,53.11c0-.35-.28-.63-.63-.63s-.63.28-.63.63.28.63.63.63.63-.28.63-.63ZM66.77,55.73v4.26c0,.72-3.61,1.31-8.06,1.31s-8.06-.59-8.06-1.31v-4.26c0,.72,3.61,1.31,8.06,1.31s8.06-.59,8.06-1.31ZM65.54,58.81c0-.35-.28-.63-.63-.63s-.63.28-.63.63.28.63.63.63.63-.28.63-.63ZM66.77,61.43v4.26c0,.72-3.61,1.31-8.06,1.31s-8.06-.59-8.06-1.31v-4.26c0,.72,3.61,1.31,8.06,1.31s8.06-.59,8.06-1.31ZM65.54,64.51c0-.35-.28-.63-.63-.63s-.63.28-.63.63.28.63.63.63.63-.28.63-.63Z"/>
            <path class="cls-20" d="M155.03,103.44c0,.72-3.61,1.31-8.06,1.31s-8.06-.59-8.06-1.31,3.61-1.31,8.06-1.31,8.06.59,8.06,1.31ZM155.03,104.88v4.26c0,.72-3.61,1.31-8.06,1.31s-8.06-.59-8.06-1.31v-4.26c0,.72,3.61,1.31,8.06,1.31s8.06-.59,8.06-1.31ZM153.8,107.95c0-.35-.28-.63-.63-.63s-.63.28-.63.63.28.63.63.63.63-.28.63-.63ZM155.03,110.57v4.26c0,.72-3.61,1.31-8.06,1.31s-8.06-.59-8.06-1.31v-4.26c0,.72,3.61,1.31,8.06,1.31s8.06-.59,8.06-1.31ZM153.8,113.65c0-.35-.28-.63-.63-.63s-.63.28-.63.63.28.63.63.63.63-.28.63-.63ZM155.03,116.27v4.26c0,.72-3.61,1.31-8.06,1.31s-8.06-.59-8.06-1.31v-4.26c0,.72,3.61,1.31,8.06,1.31s8.06-.59,8.06-1.31ZM153.8,119.35c0-.35-.28-.63-.63-.63s-.63.28-.63.63.28.63.63.63.63-.28.63-.63Z"/>
            <path class="cls-20" d="M108.22,68.98l1.15.2c.04.17.08.35.14.51l-.9.75c-.2.17-.26.47-.12.7l.85,1.47c.13.23.41.33.66.24l1.1-.4c.12.13.25.25.38.38l-.4,1.1c-.09.25.01.53.24.66l1.47.85c.23.13.53.08.7-.12l.75-.9c.17.05.34.1.51.14l.2,1.15c.05.26.27.45.54.45h1.7c.27,0,.5-.19.54-.45l.2-1.15c.17-.04.35-.08.51-.14l.75.9c.17.2.47.26.7.12l1.47-.85c.23-.13.33-.41.24-.66l-.4-1.1c.13-.12.25-.25.38-.38l1.1.4c.25.09.53-.01.66-.24l.85-1.47c.13-.23.08-.53-.12-.7l-.9-.75c.05-.17.1-.34.14-.51l1.15-.2c.26-.05.45-.27.45-.54v-1.7c0-.27-.19-.5-.45-.54l-1.15-.2c-.04-.17-.08-.35-.14-.51l.9-.75c.2-.17.26-.47.12-.7l-.85-1.47c-.13-.23-.41-.33-.66-.24l-1.1.4c-.12-.13-.25-.25-.38-.38l.4-1.1c.09-.25-.01-.53-.24-.66l-1.47-.85c-.23-.13-.53-.08-.7.12l-.75.9c-.17-.05-.34-.1-.51-.14l-.2-1.15c-.05-.26-.27-.45-.54-.45h-1.7c-.27,0-.5.19-.54.45l-.2,1.15c-.17.04-.35.08-.51.14l-.75-.9c-.17-.2-.47-.26-.7-.12l-1.47.85c-.23.13-.33.41-.24.66l.4,1.1c-.13.12-.25.25-.38.38l-1.1-.4c-.25-.09-.53.01-.66.24l-.85,1.47c-.13.23-.08.53.12.7l.9.75c-.05.17-.1.34-.14.51l-1.15.2c-.26.05-.45.27-.45.54v1.7c0,.27.19.5.45.54ZM111.48,67.59c0-2.69,2.18-4.87,4.87-4.87s4.87,2.18,4.87,4.87-2.18,4.87-4.87,4.87-4.87-2.18-4.87-4.87Z"/>
            <path class="cls-20" d="M35.48,163.41l1.15.2c.04.17.08.35.14.51l-.9.75c-.2.17-.26.47-.12.7l.85,1.47c.13.23.41.33.66.24l1.1-.4c.12.13.25.25.38.38l-.4,1.1c-.09.25.01.53.24.66l1.47.85c.23.13.53.08.7-.12l.75-.9c.17.05.34.1.51.14l.2,1.15c.05.26.27.45.54.45h1.7c.27,0,.5-.19.54-.45l.2-1.15c.17-.04.35-.08.51-.14l.75.9c.17.2.47.26.7.12l1.47-.85c.23-.13.33-.41.24-.66l-.4-1.1c.13-.12.25-.25.38-.38l1.1.4c.25.09.53-.01.66-.24l.85-1.47c.13-.23.08-.53-.12-.7l-.9-.75c.05-.17.1-.34.14-.51l1.15-.2c.26-.05.45-.27.45-.54v-1.7c0-.27-.19-.5-.45-.54l-1.15-.2c-.04-.17-.08-.35-.14-.51l.9-.75c.2-.17.26-.47.12-.7l-.85-1.47c-.13-.23-.41-.33-.66-.24l-1.1.4c-.12-.13-.25-.25-.38-.38l.4-1.1c.09-.25-.01-.53-.24-.66l-1.47-.85c-.23-.13-.53-.08-.7.12l-.75.9c-.17-.05-.34-.1-.51-.14l-.2-1.15c-.05-.26-.27-.45-.54-.45h-1.7c-.27,0-.5.19-.54.45l-.2,1.15c-.17.04-.35.08-.51.14l-.75-.9c-.17-.2-.47-.26-.7-.12l-1.47.85c-.23.13-.33.41-.24.66l.4,1.1c-.13.12-.25.25-.38.38l-1.1-.4c-.25-.09-.53.01-.66.24l-.85,1.47c-.13.23-.08.53.12.7l.9.75c-.05.17-.1.34-.14.51l-1.15.2c-.26.05-.45.27-.45.54v1.7c0,.27.19.5.45.54ZM38.74,162.02c0-2.69,2.18-4.87,4.87-4.87s4.87,2.18,4.87,4.87-2.18,4.87-4.87,4.87-4.87-2.18-4.87-4.87Z"/>
            <g>
              <g>
                <polygon class="cls-21" points="17.72 128.35 17.6 125.95 47.25 124.51 63.67 106.57 104.37 79.15 127 30.73 129.18 31.74 106.27 80.77 106 80.96 65.13 108.49 48.36 126.86 17.72 128.35"/>
                <polygon class="cls-21" points="132.75 35.35 131.71 23.4 121.89 30.27 132.75 35.35"/>
              </g>
              <rect class="cls-5" x="19.33" y="146.04" width="21.69" height="47.81"/>
              <rect class="cls-7" x="54.66" y="132.47" width="21.69" height="61.37"/>
              <rect class="cls-8" x="89.98" y="103.83" width="21.69" height="90.01"/>
              <rect class="cls-6" x="124.93" y="67.61" width="21.69" height="126.24"/>
              <g>
                <path class="cls-2" d="M106.85,60.01s2.25-2.62,2.79-3.63c.54-1.01,8.87-6.98,10.64-5.84,1.75,1.14.43,1.13-1.69,2.76-2.12,1.64-4.34,3.19-3.53,3.75.81.55,1.95-1.35,3.15-1.36.88-.02-.27,1.2-1.83,2.81-.64.65-1.91,1.77-2.26,2.08-2.7,2.3-3.65,2.14-4.54,3.25-.89,1.14-2.74-3.83-2.74-3.83Z"/>
                <path class="cls-9" d="M97.07,103.83c2.21,1.76,8.02,0,10.23,0s4.21-.65,2.41-2.05c-1.81-1.4-5.01-2.01-9.82-2.4-4.81-.4-2.81,4.46-2.81,4.46Z"/>
                <path class="cls-18" d="M68.95,124.45c-1.01.72-3.78,1.41-5.08.74-1.3-.66-2.89-2.76-3.46-1.78-.56.97-1.72,3.77-1.49,5.47,0,0-.43.29-.33,1.15.1.88,1.94,1.52,4.34,2.04,2.41.53,9.58,2.81,11.69,2.63,2.12-.18,3.07.23,4.15-.97.68-.76,1.23-2.42-.79-3.27-1.74-.73-7.08-2.1-7.68-4.99-.24-1.19-.93-1.3-1.36-1.02Z"/>
                <path class="cls-3" d="M44.05,111.04l24.06-7.21-9.1,21.2,12.53,2.01s13.38-32.68,12.65-35.44c-.27-1.01.31-2.85-13.68-1.69-16.5,1.36-26.46,4.01-26.46,4.01l.05,10.43-.05,6.7Z"/>
                <g>
                  <path class="cls-22" d="M89.08,59.44l-6.72-9.39c-1.58,4.01-.71,8.96-.67,9.83.03.9-.83,2.78-1.94,4.82,2.24.86,4.46,1.83,6.6,2.9,0-1.91.67-4.25,3.78-2.97,3.43,1.41,3.66-.03,3.64-1.16-.49-.3-.82,0-.7-.74l.05-.33-1.86-2.61c-.65.45-1.58.48-2.18-.35Z"/>
                  <g>
                    <path class="cls-10" d="M89.44,51.87s-7.57,1.8-7.73,1.79c-3.19-.26-.96,8.46-1.16,11.34,1.73.68,3.44,1.43,5.1,2.24.41-.5,1.06-1.1,2.13-1.82,1-.66,2.03-.45,2.78-.31.89.18,2.57.78,3.3.37.72-.39.53-1.84.62-2.2.07-.35.51-.25.96-.56.44-.32-.07-.97-.07-.97.19-.14.79-.59.54-.9-.34-.4-.81-.89.53-1.37,1.19-.42.46-1.07-.14-2.06-.4-.64-1.08-1.82-.5-2.68.35-.52.44-.34.23-2.04-.36-3.07-3.09-4.55-3.51-5.16l-3.08,4.32Z"/>
                    <path class="cls-1" d="M77,49.24c1.82-3.59,4.14-7.11,8.56-6.54,4.42.57,8.82,2.89,9.63,1.02,0,0,1.43,4.42-.26,6.19-.31-.83-6.78,5.43-7.8,6.34-1.02.93.13-2.14-1.5-2.21-1.65-.09-3.12,3.04-2.76,4.61.27,1.2-2.4,2.83-2.4,2.83l-.09,1-1.45-2.61s-3.75-7.04-1.93-10.63Z"/>
                  </g>
                </g>
                <path class="cls-12" d="M70.43,68.97s18.56-1.32,21.9-2.02c3.34-.71,16.98-11.14,16.98-11.14l4.36,6.34c-15.06,12.11-14.87,11.99-15.7,12.47-.67.39-15.34,4.14-20.72,5.37-5.39,1.24-6.82-11.02-6.82-11.02Z"/>
                <path class="cls-17" d="M89.2,64.66c-1.48,1.99-.97,5.12-6.86,9.01-5.9,3.89.38-10.72.38-10.72l6.49,1.71Z"/>
                <path class="cls-14" d="M35.36,90.65c-8.68,5.98-2.47,16.89-4.03,20.3l-5.06,21.45-29.32,2.4.83,13.12s29.9-1.73,30.94-1.88c5.82-.86,4.94,2.07,11.24-9.42,8.76-15.99,12.09-33.26,12.09-33.26l-16.69-12.72Z"/>
                <path class="cls-13" d="M51.63,105.3s24.7-17.33,32.87-32.24c0,0-5.94-10.12-5.22-12.89,0,0-6.51-3.5-19,5.46-5.25,3.76-9.71,10.97-14.32,15.9-5.43,5.81-10.6,9.11-10.6,9.11l16.27,14.65Z"/>
                <path class="cls-15" d="M79.28,60.17s2.5,1.88,4.46,5.46c2.01,3.66.71,7.19-.19,12.61-.9,5.42-8.47-3.65-8.47-3.65l4.2-14.41Z"/>
                <polygon class="cls-16" points="75.08 85.27 66.61 70.07 70.51 89.9 75.08 85.27"/>
                <path class="cls-11" d="M70.42,66.68c3.7-2.16,8.72-3.57,8.72-3.57,0,0,6.21,18.09,7.62,21.16,1.41,3.08,15.86,14.59,15.86,14.59l-5.43,6.58s-17.32-11.76-17.85-12.32c-.52-.56-9.37-16.4-11.74-21.34-.98-2.05.19-3.56,2.82-5.1h0Z"/>
              </g>
            </g>
          </g>
        </g>
      </g>
    </g>
  </g>
</svg>