<?xml version="1.0" encoding="utf-8"?>
<!-- Generator: Adobe Illustrator 28.1.0, SVG Export Plug-In . SVG Version: 6.00 Build 0)  -->
<svg version="1.1" id="_レイヤー_2" xmlns="http://www.w3.org/2000/svg" xmlns:xlink="http://www.w3.org/1999/xlink" x="0px"
	 y="0px" viewBox="0 0 270 230" style="enable-background:new 0 0 270 230;" xml:space="preserve">
<style type="text/css">
	.st0{opacity:0.6;}
	.st1{fill:#FFFFFF;}
	.st2{fill:#EFEFEF;}
	.st3{clip-path:url(#SVGID_00000015342003898892730150000003256236512003033507_);}
	.st4{fill:#FF827E;}
	.st5{fill:#858CF3;}
	.st6{fill:#5B6BF4;}
	.st7{fill:url(#SVGID_00000168081969432277584570000017942028117938533537_);}
	.st8{fill:url(#SVGID_00000183215401590527312950000012501317570887754379_);}
	.st9{fill:url(#SVGID_00000175290164447128816200000009716508191686062467_);}
	.st10{fill:url(#SVGID_00000073699396277604810590000009191143453051964585_);}
	.st11{fill:#FFC8AE;}
	.st12{fill:url(#SVGID_00000035502327241930534280000009602418186462454952_);}
	.st13{fill:#EDF4F6;}
	.st14{fill:url(#SVGID_00000129190457323632513250000007960698413367872414_);}
	.st15{fill:url(#SVGID_00000017483385170825937320000007350660269574951598_);}
	.st16{fill:#D7E8EF;}
	.st17{fill:url(#SVGID_00000005252737749823837100000002775352774315794823_);}
	.st18{fill:url(#SVGID_00000169517945805432254450000004993308371079059374_);}
	.st19{fill:#86C8DC;}
	.st20{fill:#C5E9F4;}
	.st21{fill:#FFB297;}
	.st22{fill:url(#SVGID_00000173126672883659871970000016038698454906980005_);}
	.st23{fill:url(#SVGID_00000009589807042726153910000003125681461520441244_);}
	.st24{fill:url(#SVGID_00000181085079546612775970000004366649501747240876_);}
	.st25{fill:#FFD150;}
	.st26{fill:url(#SVGID_00000010274836036954073980000012612084479385029783_);}
	.st27{fill:url(#SVGID_00000079455745667372279700000015635873495606706845_);}
	.st28{fill:url(#SVGID_00000020389753389384497350000018159397434965935770_);}
	.st29{fill:url(#SVGID_00000110428632683998082900000001004442906156383387_);}
	.st30{fill:url(#SVGID_00000083777344966335598630000004242182794485295787_);}
</style>
<g class="st0">
	<path class="st1" d="M32.7,28.1c0,21.5-4.8,29.2-16.4,29.2S0,49.2,0,28.1C0,5.5,6.8,0,16.6,0C26.8,0,32.7,6.2,32.7,28.1z
		 M10.2,27.8c0,14,0.6,21.2,6.2,21.2s6.1-6.9,6.1-21S21.7,8.5,16.4,8.5C11.4,8.5,10.2,14,10.2,27.8z"/>
	<path class="st1" d="M38.9,15.8C38.9,8.5,42.2,0,54.1,0c10,0,14.6,5.6,14.6,14.4c0,6.9-3,10.2-6.7,11.7v0.2
		c4.6,1.5,8.4,5.2,8.4,13.4c0,9.6-3.8,17.8-16.6,17.8c-10.6,0-15.4-6.2-15.7-15.4h9.8c0.2,3.8,1.6,7.3,6.1,7.3
		c4.7,0,6.1-3.5,6.1-9.5c0-6.3-2-8.9-8.6-8.9h-2.5v-8.3h2.3c5.2,0,7.2-1.6,7.2-7.5c0-4.2-0.9-6.9-5.1-6.9c-4.4,0-5.1,4.3-5.3,7.7
		L38.9,15.8L38.9,15.8z"/>
</g>
<g>
	<circle class="st1" cx="135" cy="125.8" r="104.2"/>
	<path class="st2" d="M159.8,199.8h-9.1v1.6h9.1V199.8z M162.2,193.4h-11.5v1.6h11.5V193.4z M165.8,189.5c-0.1-0.1-0.4-0.2-0.6-0.2
		h-17.8c-0.2,0-0.4,0.1-0.6,0.2c-0.1,0.1-0.2,0.4-0.2,0.6v23.3c0,0.2,0.1,0.4,0.2,0.6c0.1,0.1,0.4,0.2,0.6,0.2h11.7
		c0.1,0,0.1,0,0.2,0c0,0,0,0,0.1,0c0.1,0,0.1,0,0.2-0.1c0,0,0,0,0.1,0c0.1,0,0.1-0.1,0.2-0.2l6.1-7.7c0.1-0.1,0.1-0.1,0.1-0.2
		c0,0,0-0.1,0-0.1c0-0.1,0-0.1,0-0.2c0,0,0,0,0,0v-15.6C166,189.9,165.9,189.7,165.8,189.5L165.8,189.5z M159.9,211v-4.5h3.6
		L159.9,211z M164.4,204.8h-5.3c-0.2,0-0.4,0.1-0.6,0.2c-0.1,0.1-0.2,0.4-0.2,0.6v6.9h-10v-21.6h16.2L164.4,204.8L164.4,204.8z
		 M162.2,196.6h-11.5v1.6h11.5V196.6z"/>
	<g>
		<path class="st2" d="M141.9,112.2c0.9-0.3,1.9,0.3,2.1,1.2c0.3,0.9-0.3,1.8-1.2,2.1c-0.9,0.3-1.9-0.3-2.1-1.2
			C140.4,113.5,141,112.5,141.9,112.2z"/>
		<path class="st2" d="M126.9,115.7c1.3-0.4,2.6,0.4,3,1.6s-0.4,2.6-1.6,3s-2.6-0.4-3-1.6S125.7,116.1,126.9,115.7z"/>
		<path class="st2" d="M138.4,121.1c0.6-0.2,1.3,0.2,1.5,0.8s-0.2,1.3-0.8,1.5c-0.6,0.2-1.3-0.2-1.5-0.8S137.8,121.3,138.4,121.1z"
			/>
	</g>
	<g>
		<polyline class="st2" points="43.4,105.4 61.6,105.4 61.6,103.8 43.4,103.8 		"/>
		<polyline class="st2" points="43.4,109.1 61.6,109.1 61.6,107.4 43.4,107.4 		"/>
		<polygon class="st2" points="35.2,106.4 37.4,108.7 41,104.5 39.7,103.4 37.3,106.2 36.4,105.2 35.2,106.4 		"/>
		<polyline class="st2" points="43.4,112.7 61.6,112.7 61.6,111 43.4,111 		"/>
		<polyline class="st2" points="43.4,116.3 54.2,116.3 54.2,114.6 43.4,114.6 		"/>
	</g>
	<g>
		<path class="st2" d="M53.7,139.1c0.5,0.8,0.3,1.9-0.5,2.4c-0.8,0.5-1.8,0.3-2.4-0.5c-0.5-0.8-0.3-1.9,0.5-2.4
			C52.1,138.1,53.2,138.4,53.7,139.1z"/>
		<path class="st2" d="M46,125.9c0.7,1.1,0.4,2.6-0.7,3.3s-2.6,0.4-3.3-0.7s-0.4-2.6,0.7-3.3S45.3,124.8,46,125.9z"/>
		<path class="st2" d="M44.2,138.5c0.4,0.6,0.2,1.3-0.3,1.7c-0.6,0.4-1.3,0.2-1.7-0.4s-0.2-1.3,0.3-1.7
			C43.1,137.7,43.8,137.9,44.2,138.5z"/>
	</g>
	<g>
		<path class="st2" d="M186.9,195.1c0.5,0.8,0.3,1.9-0.5,2.4c-0.8,0.5-1.9,0.3-2.4-0.5c-0.5-0.8-0.3-1.9,0.5-2.4
			C185.3,194.1,186.4,194.4,186.9,195.1z"/>
		<path class="st2" d="M179.2,181.9c0.7,1.1,0.4,2.6-0.7,3.3s-2.6,0.4-3.3-0.7s-0.4-2.6,0.7-3.3S178.5,180.8,179.2,181.9z"/>
		<path class="st2" d="M177.4,194.5c0.4,0.6,0.2,1.3-0.4,1.7c-0.6,0.4-1.3,0.2-1.7-0.4c-0.4-0.6-0.2-1.3,0.4-1.7
			C176.3,193.7,177,193.9,177.4,194.5z"/>
	</g>
	<g>
		<path class="st2" d="M161.4,48.3c-0.1-0.9-0.3-1.7-0.7-2.5l0.7-0.4c-0.4-0.7-0.8-1.2-1.4-1.7l-0.6,0.6c-0.6-0.6-1.4-1-2.3-1.2
			l0.2-0.8h0c-0.6-0.2-1.2-0.2-1.8-0.2c-0.1,0-0.3,0-0.4,0l0.1,0.8c-0.9,0-1.7,0.3-2.5,0.7l-0.4-0.7c-0.6,0.4-1.2,0.8-1.7,1.4
			l0.6,0.5c-0.6,0.6-1,1.4-1.2,2.3l-0.8-0.2v0c-0.2,0.6-0.3,1.2-0.3,1.8c0,0.1,0,0.3,0,0.4l0.8,0c0.1,0.9,0.3,1.7,0.7,2.5l-0.7,0.4
			c0.4,0.7,0.8,1.2,1.4,1.7l0.6-0.6c0.6,0.6,1.4,1,2.3,1.2l-0.2,0.8h0c0.6,0.2,1.2,0.3,1.8,0.3c0.1,0,0.3,0,0.4,0l-0.1-0.8
			c0.9,0,1.7-0.3,2.5-0.7l0.4,0.7c0.6-0.4,1.2-0.8,1.7-1.4l-0.6-0.5c0.6-0.6,1-1.4,1.2-2.3l0.8,0.2l0,0c0.2-0.6,0.2-1.2,0.2-1.8
			c0-0.1,0-0.3,0-0.4L161.4,48.3L161.4,48.3z M154.2,53.8L154.2,53.8l0-0.1L154.2,53.8z M159,49.6c-0.4,1.5-1.9,2.6-3.4,2.6
			c-0.3,0-0.6,0-1-0.1c-1.6-0.4-2.6-1.8-2.6-3.4c0-0.3,0-0.6,0.1-1c0.4-1.5,1.9-2.6,3.4-2.6c0.3,0,0.6,0,1,0.1
			c1.6,0.4,2.6,1.8,2.6,3.4C159.1,49,159.1,49.3,159,49.6z"/>
		<path class="st2" d="M171.5,45.8l-0.6,0.1c-0.1-0.4-0.2-0.8-0.4-1.2l0.5-0.3c-0.4-0.6-0.9-1.2-1.5-1.6l-0.3,0.5
			c-0.4-0.2-0.7-0.4-1.2-0.5l0.1-0.5h0c-0.4-0.1-0.9-0.2-1.3-0.2c-0.3,0-0.6,0-0.9,0.1l0.1,0.5c-0.4,0.1-0.8,0.2-1.2,0.4l-0.3-0.5
			c-0.6,0.3-1.2,0.8-1.6,1.5l0.5,0.3c-0.2,0.3-0.4,0.7-0.6,1.2l-0.5-0.2v0c-0.1,0.4-0.2,0.8-0.2,1.3c0,0.3,0,0.6,0.1,0.9l0.6-0.1
			c0.1,0.4,0.2,0.8,0.4,1.2l-0.5,0.3l0,0c0.4,0.6,0.8,1.2,1.5,1.6l0.3-0.5c0.4,0.2,0.7,0.4,1.2,0.5l-0.2,0.5h0.1
			c0.4,0.1,0.9,0.2,1.3,0.2c0.3,0,0.6,0,0.9-0.1l-0.1-0.5c0.4-0.1,0.8-0.2,1.2-0.4l0.3,0.5c0.6-0.3,1.2-0.8,1.6-1.5l-0.5-0.3
			c0.2-0.3,0.4-0.7,0.6-1.2l0.5,0.2l0,0c0.1-0.4,0.2-0.9,0.2-1.3C171.6,46.4,171.5,46.1,171.5,45.8L171.5,45.8z M166.9,49.5
			c-0.2,0-0.5,0-0.8-0.1c-1.2-0.3-2-1.5-2-2.7c0-0.2,0-0.5,0.1-0.8c0.3-1.2,1.5-2,2.7-2c0.2,0,0.5,0,0.8,0.1c1.2,0.3,2,1.5,2,2.7
			c0,0.2,0,0.5-0.1,0.8C169.2,48.7,168.1,49.5,166.9,49.5z"/>
	</g>
	<g>
		<circle class="st2" cx="210.4" cy="127.2" r="2.5"/>
		<circle class="st2" cx="221" cy="134.8" r="2.5"/>
		<circle class="st2" cx="216.1" cy="156.8" r="2.5"/>
		<circle class="st2" cx="199" cy="145.9" r="2.5"/>
		<polygon class="st2" points="216.1,157.1 198.4,145.9 220.6,134.7 210.3,127.5 210.6,127 221.7,134.8 199.5,145.9 216.4,156.6 		
			"/>
	</g>
	<g>
		<path class="st2" d="M60.6,61.9c-1.1-0.5-1.6-1.9-1-3s1.9-1.6,3-1s1.6,1.9,1,3S61.7,62.4,60.6,61.9z"/>
		<path class="st2" d="M68.5,67.5c-1.1-0.5-1.6-1.9-1-3c0.5-1.1,1.9-1.6,3-1c1.1,0.5,1.6,1.9,1,3S69.6,68,68.5,67.5z"/>
		<circle class="st2" cx="77.4" cy="50.9" r="2.2"/>
		<polygon class="st2" points="69.3,65.7 61,59.8 77.2,50.7 77.5,51.1 62.1,59.9 69.6,65.3 		"/>
	</g>
	<path class="st2" d="M189.2,89.6c-2.1,2.6-2,6.3,0.1,8.9c2.4,2.9,6.5,3.4,9.4,1.4l4.5,4.5c0.2,0.2,0.5,0.2,0.7,0l1.3-1.3
		c0.2-0.2,0.2-0.5,0-0.7l-4.5-4.5c1.8-2.8,1.5-6.5-0.9-8.9C196.8,86.1,191.9,86.3,189.2,89.6z M197.8,97.1c-1.7,1.7-4.4,1.7-6.1,0
		s-1.7-4.4,0-6.1c1.7-1.7,4.4-1.7,6.1,0S199.5,95.4,197.8,97.1z"/>
	<g>
		<path class="st2" d="M189.8,126.2h6.4c0.4,0,0.8,0.3,0.8,0.8v4.4c0,0.4-0.3,0.8-0.8,0.8h-6.4c-0.4,0-0.8-0.3-0.8-0.8v-4.4
			C189,126.5,189.4,126.2,189.8,126.2z"/>
		<path class="st2" d="M191,127.9v-2.8c0-0.6,0.2-1,0.6-1.4c0.4-0.4,0.9-0.6,1.4-0.6c0.6,0,1,0.2,1.4,0.6c0.4,0.4,0.6,0.8,0.6,1.4
			v2.8h1.1v-2.8c0-1.7-1.4-3.1-3.1-3.1c-1.7,0-3.1,1.4-3.1,3.1v2.8H191L191,127.9L191,127.9z"/>
	</g>
	<path class="st2" d="M171.8,128.2c-3.1,0-5.7,2.6-5.7,5.7c0,5.7,5.7,12.6,5.7,12.6s5.7-6.9,5.7-12.6
		C177.5,130.7,174.9,128.2,171.8,128.2z M171.8,136.9c-1.7,0-3-1.4-3-3s1.4-3,3-3s3,1.3,3,3S173.4,136.9,171.8,136.9z"/>
	<g>
		<rect x="145.6" y="90" class="st2" width="2.2" height="8.3"/>
		<rect x="138.3" y="93.5" class="st2" width="2.2" height="4.8"/>
		<rect x="134.6" y="95.6" class="st2" width="2.2" height="2.8"/>
		<rect x="131" y="95.6" class="st2" width="2.2" height="2.8"/>
		<rect x="127.3" y="97" class="st2" width="2.2" height="1.4"/>
		<rect x="142" y="92.3" class="st2" width="2.2" height="6"/>
		<path class="st2" d="M126.4,95.8c0,0,0.1,0,0.2,0c0.8,0,3.6-0.1,7.4-1.3c3.8-1.2,8.5-3.7,13-8.3l-0.7-0.7
			c-4.4,4.5-8.9,6.9-12.6,8.1c-3.7,1.2-6.4,1.3-7.1,1.3c-0.1,0-0.1,0-0.1,0h0L126.4,95.8L126.4,95.8L126.4,95.8z"/>
		<polygon class="st2" points="147.8,84.9 144.9,85.4 147.2,87.7 		"/>
	</g>
	<g>
		<path class="st2" d="M223.6,103.6c0,1.1-0.9,1.9-1.9,1.9s-1.9-0.9-1.9-1.9s0.9-1.9,1.9-1.9S223.6,102.5,223.6,103.6z"/>
		<path class="st2" d="M226.2,97c0,1.5-1.2,2.7-2.7,2.7s-2.7-1.2-2.7-2.7s1.2-2.7,2.7-2.7S226.2,95.5,226.2,97z"/>
		<path class="st2" d="M216.6,98.7c0,0.8-0.6,1.3-1.4,1.3s-1.4-0.6-1.4-1.3s0.6-1.3,1.4-1.3S216.6,98,216.6,98.7z"/>
	</g>
	<g>
		<defs>
			<path id="SVGID_1_" d="M145.2,22.2c-2.8-2.8-24-9.1-38.5-9.1c-21.7,0-34.8,20.6-34.8,28.9c0,0.4,0,0.7,0,1.1
				c-24.9,19-41,49.1-41,82.9C30.8,183.4,77.5,230,135,230s104.2-46.6,104.2-104.2C239.2,71.8,197.9,27.3,145.2,22.2L145.2,22.2z"/>
		</defs>
		<clipPath id="SVGID_00000059285160876695848230000003309879730361001102_">
			<use xlink:href="#SVGID_1_"  style="overflow:visible;"/>
		</clipPath>
		<g style="clip-path:url(#SVGID_00000059285160876695848230000003309879730361001102_);">
			<g>
				<g>
					<g>
						<path class="st4" d="M137.7,164.2c0.3,0,0.6,0,0.9-0.1c-0.1-4.8-0.2-7.2-0.8-12.1c-0.3-0.1-0.6-0.1-0.9-0.1
							C137.5,156.9,137.7,159.4,137.7,164.2L137.7,164.2z"/>
						<path class="st4" d="M140.5,163.5c-0.1-4.2-0.2-6.4-0.6-10.7c-0.3-0.2-0.6-0.3-1-0.4c0.5,4.7,0.6,7,0.7,11.6
							C139.9,163.8,140.2,163.6,140.5,163.5L140.5,163.5z"/>
						<path class="st4" d="M144.1,160.2c-0.1-1.6-0.1-2.3-0.2-3.9c-0.3-0.4-0.7-0.7-1-1.1c0.2,2.4,0.2,3.6,0.3,6
							C143.5,160.9,143.8,160.6,144.1,160.2z"/>
						<path class="st4" d="M145.6,158.3c-0.2-0.2-0.4-0.5-0.6-0.7c0,0.6,0,0.9,0.1,1.4C145.2,158.8,145.4,158.6,145.6,158.3
							L145.6,158.3z"/>
						<path class="st4" d="M142.3,162.1c-0.1-3.1-0.1-4.7-0.4-7.9c-0.3-0.3-0.6-0.6-1-0.8c0.4,3.8,0.4,5.7,0.5,9.4
							C141.7,162.6,142,162.4,142.3,162.1L142.3,162.1z"/>
					</g>
					<path class="st5" d="M150.5,158.7c0.2,0.2,0.3,0.4,0.5,0.7c0-0.5,0-0.8,0-1.2C150.8,158.3,150.7,158.5,150.5,158.7L150.5,158.7
						z M157.6,153.1c0.3,5.2,0.3,7.8,0.2,12.8c0.3,0.1,0.6,0.2,0.9,0.3c0.2-5.1,0.1-7.8-0.1-13.1
						C158.2,153.1,157.9,153.1,157.6,153.1z M155.7,153.7c0.3,4.5,0.3,6.7,0.2,11.1c0.3,0.2,0.6,0.4,0.9,0.6
						c0.1-4.8,0.1-7.2-0.2-12.1C156.3,153.4,156,153.6,155.7,153.7z M151.9,157c0.1,1.5,0.1,2.3,0.1,3.8c0.3,0.4,0.6,0.8,0.9,1.2
						c0-2.4,0-3.6-0.1-6C152.5,156.3,152.2,156.6,151.9,157L151.9,157z M153.8,155c0.2,3.3,0.2,4.9,0.2,8.1c0.3,0.3,0.6,0.6,0.9,0.9
						c0.1-3.9,0-5.8-0.2-9.7C154.4,154.5,154.1,154.8,153.8,155L153.8,155z M159.7,166.4c0.3,0,0.6,0.1,0.9,0.1
						c0.2-5.1,0.2-7.7-0.1-12.9c-0.3-0.1-0.6-0.2-1-0.2C159.8,158.6,159.8,161.2,159.7,166.4L159.7,166.4z M162.5,166
						c0.2-4.5,0.2-6.8,0-11.4c-0.3-0.2-0.6-0.4-1-0.6c0.2,5,0.2,7.5,0,12.3C161.9,166.3,162.2,166.2,162.5,166L162.5,166z
						 M166.5,163.2c0-1.6,0.1-2.5,0-4.1c-0.3-0.5-0.6-0.9-1-1.3c0,2.6,0,3.8,0,6.4C165.9,163.8,166.2,163.5,166.5,163.2z
						 M168.1,161.4c-0.2-0.3-0.4-0.6-0.6-0.9c0,0.6,0,0.9,0,1.5C167.7,161.9,167.9,161.6,168.1,161.4L168.1,161.4z M164.5,164.9
						c0.1-3.4,0.1-5,0-8.4c-0.3-0.4-0.6-0.7-1-1c0.1,4.1,0.1,6.1,0,10.1C163.9,165.4,164.2,165.2,164.5,164.9L164.5,164.9z"/>
					<path class="st4" d="M173.5,162.7c0.2,0.3,0.3,0.5,0.5,0.8c0-0.5,0-0.8,0-1.3C173.8,162.3,173.6,162.5,173.5,162.7L173.5,162.7
						z M181.1,157.9c0,5.5-0.2,8.3-0.6,13.6c0.3,0.2,0.6,0.3,0.9,0.4c0.5-5.5,0.7-8.2,0.7-13.9C181.7,158,181.4,157.9,181.1,157.9z
						 M179.1,158.2c0,4.8-0.1,7.2-0.5,11.8c0.3,0.3,0.6,0.6,0.9,0.8c0.4-5.1,0.6-7.7,0.6-12.9C179.7,158,179.4,158.1,179.1,158.2
						L179.1,158.2z M175,161c0,1.6-0.1,2.4-0.1,4.1c0.3,0.5,0.6,1,0.9,1.4c0.1-2.5,0.2-3.8,0.2-6.4C175.7,160.4,175.3,160.7,175,161
						L175,161z M177,159.3c0,3.5-0.1,5.2-0.3,8.6c0.3,0.4,0.6,0.8,0.9,1.1c0.3-4.1,0.4-6.2,0.4-10.4
						C177.7,158.8,177.4,159,177,159.3L177,159.3z M182.3,172.3c0.3,0.1,0.6,0.2,0.9,0.2c0.5-5.4,0.7-8.1,0.8-13.7
						c-0.3-0.2-0.6-0.3-1-0.4C183,164,182.9,166.8,182.3,172.3z M185.3,172.3c0.5-4.8,0.6-7.2,0.7-12.1c-0.3-0.3-0.6-0.6-1-0.8
						c-0.1,5.3-0.2,7.9-0.8,13.1C184.7,172.5,185,172.4,185.3,172.3L185.3,172.3z M189.6,169.9c0.1-1.8,0.2-2.6,0.3-4.4
						c-0.3-0.5-0.6-1-0.9-1.5c-0.1,2.7-0.2,4.1-0.5,6.8C188.9,170.5,189.2,170.2,189.6,169.9L189.6,169.9z M191.3,168.3
						c-0.2-0.3-0.3-0.7-0.5-1c0,0.6-0.1,1-0.1,1.6C190.9,168.7,191.1,168.5,191.3,168.3z M187.4,171.5c0.3-3.6,0.4-5.3,0.6-9
						c-0.3-0.4-0.6-0.8-0.9-1.2c-0.1,4.3-0.3,6.5-0.7,10.7C186.7,171.9,187.1,171.7,187.4,171.5L187.4,171.5z"/>
					<path class="st6" d="M196.7,170.5c0.1,0.3,0.3,0.6,0.4,0.9c0.1-0.6,0.1-0.9,0.1-1.4C197.1,170.1,196.9,170.3,196.7,170.5z
						 M204.8,166.5c-0.4,5.9-0.7,8.7-1.6,14.4c0.3,0.2,0.6,0.4,0.9,0.6c0.9-5.8,1.3-8.7,1.7-14.7
						C205.4,166.7,205.1,166.6,204.8,166.5L204.8,166.5z M202.7,166.6c-0.4,5.1-0.6,7.6-1.3,12.5c0.3,0.4,0.6,0.7,0.9,1
						c0.8-5.4,1.1-8.1,1.5-13.6C203.4,166.4,203,166.5,202.7,166.6L202.7,166.6z M198.4,168.9c-0.1,1.7-0.2,2.6-0.4,4.3
						c0.3,0.6,0.5,1.1,0.8,1.6c0.3-2.7,0.4-4,0.7-6.8C199.1,168.4,198.8,168.6,198.4,168.9z M200.6,167.4c-0.3,3.7-0.5,5.5-0.9,9.1
						c0.3,0.5,0.5,0.9,0.8,1.3c0.6-4.3,0.8-6.5,1.1-10.9C201.2,167,200.9,167.2,200.6,167.4z M205,182.1c0.3,0.1,0.6,0.3,0.9,0.4
						c0.9-5.7,1.3-8.6,1.8-14.5c-0.3-0.2-0.6-0.4-1-0.6C206.3,173.3,206,176.3,205,182.1L205,182.1z M208.1,182.5
						c0.8-5,1.1-7.6,1.6-12.8c-0.3-0.4-0.6-0.7-0.9-1c-0.5,5.6-0.8,8.4-1.7,13.9C207.4,182.6,207.7,182.6,208.1,182.5L208.1,182.5z
						 M212.5,180.6c0.3-1.8,0.4-2.8,0.6-4.6c-0.3-0.6-0.5-1.2-0.8-1.8c-0.3,2.9-0.5,4.3-1,7.1C211.8,181.1,212.2,180.8,212.5,180.6z
						 M214.4,179.1c-0.1-0.4-0.3-0.8-0.4-1.1c-0.1,0.7-0.1,1-0.2,1.7C214,179.5,214.2,179.3,214.4,179.1z M210.2,181.9
						c0.6-3.7,0.9-5.6,1.3-9.5c-0.3-0.5-0.6-1-0.9-1.4c-0.4,4.6-0.7,6.8-1.5,11.3C209.5,182.2,209.9,182.1,210.2,181.9L210.2,181.9z
						"/>
					<path class="st4" d="M219.7,182.2c0.1,0.4,0.2,0.7,0.4,1c0.1-0.6,0.1-0.9,0.2-1.5C220.1,181.9,219.9,182,219.7,182.2
						L219.7,182.2z"/>
					<path class="st4" d="M228.2,179.2c-0.9,6.2-1.4,9.2-2.8,15.1c0.3,0.3,0.6,0.5,0.9,0.8c1.4-6.1,2-9.2,2.9-15.5
						C228.8,179.4,228.5,179.3,228.2,179.2L228.2,179.2z"/>
					<path class="st4" d="M226.1,178.9c-0.8,5.4-1.2,8-2.3,13.2c0.2,0.4,0.5,0.8,0.8,1.2c1.2-5.6,1.8-8.5,2.6-14.4
						C226.7,178.9,226.4,178.9,226.1,178.9L226.1,178.9z"/>
					<path class="st4" d="M221.5,180.8c-0.3,1.8-0.4,2.7-0.8,4.5c0.2,0.6,0.4,1.3,0.7,1.9c0.5-2.8,0.8-4.3,1.2-7.1
						C222.3,180.3,221.9,180.6,221.5,180.8L221.5,180.8z"/>
					<path class="st4" d="M223.9,179.5c-0.6,3.9-0.9,5.8-1.6,9.6c0.2,0.5,0.5,1.1,0.7,1.5c0.9-4.6,1.3-6.9,2-11.5
						C224.6,179.2,224.2,179.3,223.9,179.5L223.9,179.5z"/>
				</g>
				
					<linearGradient id="SVGID_00000183938133561466453510000012365176999007580809_" gradientUnits="userSpaceOnUse" x1="-1955.7357" y1="3526.7622" x2="-1927.8157" y2="3526.7622" gradientTransform="matrix(0.1492 -0.8368 -0.8368 -0.1492 3401.1213 -933.6582)">
					<stop  offset="0" style="stop-color:#FC697D"/>
					<stop  offset="1" style="stop-color:#DC2276"/>
				</linearGradient>
				<path style="fill:url(#SVGID_00000183938133561466453510000012365176999007580809_);" d="M181.9,172c-0.2,1.9-0.3,2.8-0.5,4.7
					c-6.3-2.2-9.4-8.4-12.6-13.8c-2.9-4.9-5.7-9-9.7-9.6c-4-0.5-6.3,2.8-9.2,6.6c-3.1,4.1-6.8,8.6-12.8,8.4c0-1.7,0-2.5,0-4.2
					c3.9,0.1,6.6-3.4,9.2-7.1c2.9-4.1,6.1-9.1,12.4-8.3s10.5,6.8,13.7,12.2C175.3,165.9,177.8,170.6,181.9,172L181.9,172z"/>
				
					<linearGradient id="SVGID_00000015328142301503064940000012144780643605390986_" gradientUnits="userSpaceOnUse" x1="-1974.3157" y1="3471.7688" x2="-1932.9557" y2="3471.7688" gradientTransform="matrix(0.1492 -0.8368 -0.8368 -0.1492 3401.1213 -933.6582)">
					<stop  offset="0" style="stop-color:#FC697D"/>
					<stop  offset="1" style="stop-color:#DC2276"/>
				</linearGradient>
				<path style="fill:url(#SVGID_00000015328142301503064940000012144780643605390986_);" d="M226.8,195.3c-0.5,2.1-0.7,3.2-1.3,5.2
					c-5.9-4.4-8.2-12.5-10.6-19.6c-2.2-6.4-4.5-11.9-8.6-13.8s-7,1.1-10.4,4.4c-3.8,3.6-8.2,7.4-14.5,5.2c0.2-1.9,0.3-2.8,0.5-4.7
					c4.1,1.4,7.3-1.6,10.6-4.9c3.6-3.6,7.6-8,14.1-5.2c6.4,2.8,9.8,10.8,12.3,17.9C221.1,186.3,222.8,192.5,226.8,195.3L226.8,195.3
					z"/>
				
					<linearGradient id="SVGID_00000063591688372338971690000016683560139959705233_" gradientUnits="userSpaceOnUse" x1="-1953.3357" y1="3530.4502" x2="-1928.2958" y2="3530.4502" gradientTransform="matrix(0.1492 -0.8368 -0.8368 -0.1492 3401.1213 -933.6582)">
					<stop  offset="0" style="stop-color:#5B6BF4"/>
					<stop  offset="0.26" style="stop-color:#5B60EA"/>
					<stop  offset="0.7" style="stop-color:#5E44D1"/>
					<stop  offset="1" style="stop-color:#602DBD"/>
				</linearGradient>
				<path style="fill:url(#SVGID_00000063591688372338971690000016683560139959705233_);" d="M182.6,153.4c0,2,0.1,3,0,4.9
					c-4.3-1.3-7.2,2.2-10.2,5.6c-3.4,3.8-7.4,7.8-13.4,6.7s-9.2-6.3-12.5-10.8c-3-4.1-6.1-7.9-10.2-7.8c-0.2-1.7-0.3-2.6-0.6-4.3
					c6.3-0.2,10.7,5,14.1,9.8c3.1,4.3,5.5,8.1,9.4,8.8s6.6-2.3,9.6-5.9C172.2,156.3,175.9,151.5,182.6,153.4L182.6,153.4z"/>
				
					<linearGradient id="SVGID_00000088845921146936284340000000217707581748458645_" gradientUnits="userSpaceOnUse" x1="-1963.3257" y1="3473.2324" x2="-1928.3557" y2="3473.2324" gradientTransform="matrix(0.1492 -0.8368 -0.8368 -0.1492 3401.1213 -933.6582)">
					<stop  offset="0" style="stop-color:#5B6BF4"/>
					<stop  offset="0.26" style="stop-color:#5B60EA"/>
					<stop  offset="0.7" style="stop-color:#5E44D1"/>
					<stop  offset="1" style="stop-color:#602DBD"/>
				</linearGradient>
				<path style="fill:url(#SVGID_00000088845921146936284340000000217707581748458645_);" d="M230.4,174.6c-0.3,2.2-0.4,3.3-0.7,5.5
					c-4.2-2.7-7.6,0.2-11.3,3.1c-4,3.2-8.7,6.6-14.6,3.4c-6-3.2-8.6-10.2-11.5-16.3c-2.6-5.6-5.4-10.7-9.7-12c0-2,0-3,0-4.9
					c6.7,1.9,10.6,9,13.6,15.4c2.7,5.8,4.6,10.9,8.5,12.9s7.1-0.5,10.7-3.6C219.3,174.7,223.8,170.5,230.4,174.6L230.4,174.6z"/>
			</g>
			<g>
				<path class="st11" d="M101,67.3l0.4,0.5l-1.4,3.6l-0.8,6.2l-3.8-7.6c0,0-9.7-4.2-13.3-8.9l1.5-1C83.9,58.9,84,58,84,58
					c0.4-1.5,0.7-3.3,1-5.3h0c1.7,0.8,3.9,0.4,5.4-0.6c1.4-0.8,2-2.5,2.5-3.9c0.4-1.2,0.9-2.5,1.2-3.7c0.7-2.3,1.3-4.8,2.6-6.8
					c1.7-2.5,4.5-4.2,7.5-5s6.1-0.9,9.2-0.8c1.4,0,2.9,0.1,4.3,0.5c1,0.3,2,0.8,2.9,1.3c2.6,1.4,5.1,3.3,6.8,5.8
					c2.2,3.5,2.4,8.7-0.9,11.6c-0.9,0.8-1.9,1.4-2.7,2.3c-1,1.1-1.5,2.6-2.1,4c-1.5,3.4-5,5.6-8.1,7.4c-1.7,1-3.5,2-5.4,2.5
					c-0.7,0.2-5.9-1.9-5.9-1.9l-5.1-2.9L101,67.3L101,67.3z"/>
				<path class="st11" d="M178.9,87.5c0.9,3.4,0,5.1-0.7,7.2c-0.7,2.2-9.4,12.6-9.4,12.6s-0.5,1.2-1.4,3.2h0l-10.2-7h0l1.2-1.8V94
					c0-1.8,2.7-8.7,3.7-8.7s1.4,5.4,0.6,8.1c0,0,5.4-3.4,6-3.8c0.6-0.3,0.9-2.3,0.9-3.7s-3.7-1.3-4.3-1.6s-0.1-2.7,3.1-3
					C171.6,81,178,84.1,178.9,87.5L178.9,87.5z"/>
				
					<linearGradient id="SVGID_00000013181582963773634570000006343224415828707770_" gradientUnits="userSpaceOnUse" x1="157.3502" y1="124.4902" x2="164.894" y2="111.4235" gradientTransform="matrix(1 0 0 -1 0 228)">
					<stop  offset="0" style="stop-color:#BBDFF2"/>
					<stop  offset="1" style="stop-color:#8EB7FD"/>
				</linearGradient>
				<path style="fill:url(#SVGID_00000013181582963773634570000006343224415828707770_);" d="M157.1,103.7l10.2,7
					c-0.6,1.6-1.6,3.6-2.7,6.1l-10.5-8.6L157.1,103.7L157.1,103.7z"/>
				<path class="st13" d="M164.7,116.7l2.4,1.9l-25.6,48l-1.1,2c-1.1,2-2,3.6-2.7,4.7c-2,3-4.8,4.8-7.6,5.3L118,102.2
					c0.8,14.7,2.6,47.2,4.1,74.4c0.3,5.4,0.6,10.6,0.9,15.4c-1.6,0-3.7,0.3-6.5,1.4l-1.1-0.6v0l-4.2-2.4v-5.4c0-32.8,0-75.2,0-79.9
					c0-8-2.7-22.9-5-27.8l-3.2-7.4l-0.8-0.9c10.1,1.9,16.3,5.9,18.9,20.1c2.7,15,11.3,52.2,11.3,52.2l21.8-32.9L164.7,116.7
					L164.7,116.7z"/>
				
					<linearGradient id="SVGID_00000014610543089856024120000018036744784427470475_" gradientUnits="userSpaceOnUse" x1="112.009" y1="212.5102" x2="112.009" y2="174.9263" gradientTransform="matrix(1 0 0 -1 0 228)">
					<stop  offset="0" style="stop-color:#56538E"/>
					<stop  offset="1" style="stop-color:#34317A"/>
				</linearGradient>
				<path style="fill:url(#SVGID_00000014610543089856024120000018036744784427470475_);" d="M94.7,47.7c-0.1,0.2-0.3,0.5-0.5,0.7
					c-0.6,0.8-1.3,1.4-2,2c-1,0.8-1.7,1.7-2.9,2.2c-1.4,0.6-2.9,0.7-4.3,0.1c0.5-3.4,0.9-7.2,1.3-9.7c0.6-3.8,1-6.9,2.1-10.5
					c0.3-1.1,0.9-2.3,2-2.6c0-1.3,0.1-2.7,0.7-3.8c0.7-1.1,2.1-1.9,3.3-1.4c0.3-1.8,0.7-3.5,2.1-4.8c0.7-0.6,1.5-1,2.3-1.3
					c0.2-0.1,2.5-0.3,2.4-0.1c0.9-2.9,5.1-3.2,7.6-2.9c1.2,0.1,2.3,0.7,2.9,1.6c1.8-0.9,3.8-1.4,5.8-1.4c1.3,0,2.6,0.2,3.8,0.9
					c2.1,1.3,3.1,3.8,3.8,6.2c0-0.4,2.6,0.7,2.8,1c0.9,0.8,1.4,2,1.2,3.2c1.6-0.2,3.4,0.4,4.4,1.7c1.1,1.3,1.3,3.1,0.7,4.7
					c2.4,0.2,4.1,2.6,4.6,4.9c0.5,2.7-0.4,5.7-2.4,7.6c-2,1.9-5.2,2.5-7.7,1.2c-0.8-0.4-1.4-1.3-2-1.8c-1.1-0.9-2.1-1.8-3.2-2.7
					c-2.2-1.8-4.4-3.6-6.7-5.2c-0.7-0.5-1.4-1-2.2-1c-1.2,0-2.1,1-2.8,2c-0.7,1-1.6,2-2.8,2.1c-0.4,0-0.7,0-1.1,0
					c-1.4,0-2.4,1.2-3.2,2.3s-1.7,2.3-3.1,2.6c-0.6-1.9,1.6-3.7,1.6-5.7c0-1-1.2-1.4-2.1-1.3c-0.8,0-1.5,0.3-2.1,0.7
					c-1.8,1.2-2.8,3.4-3,5.5c0,0.2,0,0.4-0.1,0.6c-0.1,0.2-0.2,0.4-0.2,0.6C95.4,46.4,95.1,47.1,94.7,47.7L94.7,47.7z"/>
				
					<linearGradient id="SVGID_00000007413810317662962170000008371669695937918101_" gradientUnits="userSpaceOnUse" x1="97.11" y1="25.04" x2="97.11" y2="-17.91" gradientTransform="matrix(1 0 0 -1 0 228)">
					<stop  offset="0" style="stop-color:#56538E"/>
					<stop  offset="1" style="stop-color:#34317A"/>
				</linearGradient>
				<path style="fill:url(#SVGID_00000007413810317662962170000008371669695937918101_);" d="M95.5,208.3c0-1.7,0-3.5,0-5.3
					c3,1.1,4.8,1.6,4.8,1.6s0.3-0.6,0.8-1.6c2.5,1,4.8,1.8,6.7,2.5c1.3,0.5,2.4,0.9,3.3,1.2v0c0,10.4,0,17.3,0,17.3
					s6.5-0.3,12.1-3.2l10.8,25.1h-30.8v-9.8l2-4.7l-5.8,3.5v11H63.7L60.2,222c15.8,5,35.3,3.5,35.3,3.5S95.5,218.7,95.5,208.3
					L95.5,208.3z"/>
				<path class="st16" d="M118,102.2l12.1,76.4c-2.6,0.5-5.3-0.2-7.8-2h-0.2C120.6,149.4,118.7,116.9,118,102.2z"/>
				<path class="st13" d="M123.3,220.8c-5.6,2.9-12.1,3.2-12.1,3.2s0-6.8,0-17.3h0c0,0,9.2,8.3,12.6,8.3c0.1,0,0.2,0,0.4,0
					c0.2,3.3,0.3,5.2,0.3,5.2C124.1,220.4,123.7,220.6,123.3,220.8L123.3,220.8z"/>
				
					<linearGradient id="SVGID_00000055670742914054050460000008506187323772551088_" gradientUnits="userSpaceOnUse" x1="72.3023" y1="148.5252" x2="127.6448" y2="52.6609" gradientTransform="matrix(1 0 0 -1 0 228)">
					<stop  offset="0" style="stop-color:#BBDFF2"/>
					<stop  offset="1" style="stop-color:#8EB7FD"/>
				</linearGradient>
				<path style="fill:url(#SVGID_00000055670742914054050460000008506187323772551088_);" d="M106.2,77.1c2.3,4.9,5,19.9,5,27.8
					c0,4.8,0,47.1,0,79.9h-9.1l-6.4-3.8v-2.2c0.1-29.8,0.1-64.2-0.2-71.4C94.9,94.1,90,79,84.5,72.4c3.2,2.7,6.5,5,6.5,5l4.4-7.4
					l3.8,7.6l1.9-4L106.2,77.1L106.2,77.1z"/>
				
					<linearGradient id="SVGID_00000022532561345016265670000001668484830598363020_" gradientUnits="userSpaceOnUse" x1="106.62" y1="43.15" x2="106.62" y2="37.73" gradientTransform="matrix(1 0 0 -1 0 228)">
					<stop  offset="0" style="stop-color:#56538E"/>
					<stop  offset="1" style="stop-color:#34317A"/>
				</linearGradient>
				<path style="fill:url(#SVGID_00000022532561345016265670000001668484830598363020_);" d="M111.2,184.8v5.4l-3.3-2l-5.8-3.4
					H111.2z"/>
				<polygon class="st19" points="103,69.7 106.2,77.1 101.1,73.7 				"/>
				<polygon class="st20" points="102.2,68.8 103,69.7 101.1,73.7 99.2,77.6 100,71.4 101.4,67.8 				"/>
				<polygon class="st21" points="102.4,65.3 101.4,67.8 101,67.3 97.3,62.4 				"/>
				<path class="st21" d="M96.1,44.8c-0.6,3.1,3.2,4.4,3.2,4.4s-1.9,2.9-3.6,2.8c-1.3-0.2-1.1-3-0.9-4.3
					C95.3,47.1,95.7,45.5,96.1,44.8L96.1,44.8z"/>
				<path class="st16" d="M95.6,178.8v2.2l-30.3-17.9l15.4-57l-4,60.3C76.7,166.3,95.6,178.8,95.6,178.8z"/>
				<path class="st16" d="M95.5,203c0,1.9,0,3.6,0,5.3c-1.2-0.5-28.7-11.9-36.7-20l0.1-2.3c4.6,3,9.8,5.9,15.2,8.3
					C82.2,198.1,90.5,201.2,95.5,203L95.5,203z"/>
				<path class="st13" d="M95.5,208.3c0,10.4-0.1,17.2-0.1,17.2S76,227.1,60.2,222c-1-0.3-1.9-0.6-2.9-1l1.5-32.8
					C66.8,196.4,94.3,207.8,95.5,208.3z"/>
				<path class="st20" d="M79.2,67L79.2,67l2.8-5.8c3.6,4.7,13.3,8.9,13.3,8.9l-4.4,7.4c0,0-3.3-2.3-6.5-5
					C82.2,70.5,80.1,68.5,79.2,67z"/>
				<path class="st13" d="M80.7,106.1l-4,60.3l19,12.5c0.1-29.8,0.1-64.2-0.2-71.4C94.9,94.1,90,79,84.5,72.4
					c-2.3-1.9-4.5-3.9-5.3-5.4c-4.3,0.6-9.7,2.4-13.9,6.7C79.9,68.9,84.5,89.8,80.7,106.1L80.7,106.1z"/>
				<g>
					
						<linearGradient id="SVGID_00000174587064889822963520000014208987385233831334_" gradientUnits="userSpaceOnUse" x1="5668.8091" y1="8320.4189" x2="5668.8091" y2="8314.8066" gradientTransform="matrix(0.8991 0.4377 0.4377 -0.8991 -8614.3857 5163.4834)">
						<stop  offset="0" style="stop-color:#56538E"/>
						<stop  offset="1" style="stop-color:#34317A"/>
					</linearGradient>
					<path style="fill:url(#SVGID_00000174587064889822963520000014208987385233831334_);" d="M122.4,169.1L122,169
						c-1.2-0.6-1.7-2.1-1.1-3.3l0.3-0.6c0.6-1.2,2.1-1.7,3.3-1.1l0.4,0.2c1.2,0.6,1.7,2.1,1.1,3.3l-0.3,0.6
						C125.1,169.2,123.6,169.7,122.4,169.1z M123.8,165.4c-0.4-0.2-0.9,0-1.1,0.4l-0.3,0.6c-0.2,0.4,0,0.9,0.4,1.1l0.4,0.2
						c0.4,0.2,0.9,0,1.1-0.4l0.3-0.6c0.2-0.4,0-0.9-0.4-1.1L123.8,165.4z"/>
					
						<linearGradient id="SVGID_00000005973852401766023000000015454397093459572898_" gradientUnits="userSpaceOnUse" x1="-9736.2441" y1="8142.2495" x2="-9691.334" y2="8142.2495" gradientTransform="matrix(0.8992 0.4376 0.4376 -0.8992 5280.4585 11766.7578)">
						<stop  offset="0" style="stop-color:#B1B2F5"/>
						<stop  offset="1" style="stop-color:#8EB7FD"/>
					</linearGradient>
					<path style="fill:url(#SVGID_00000005973852401766023000000015454397093459572898_);" d="M108.2,160.6l29.5,14.3
						c3,1.5,4.3,5.1,2.8,8.1l-21.3,43.8c-1.5,3-5.1,4.3-8.1,2.8l-29.5-14.3c-3-1.5-4.3-5.1-2.8-8.1l21.3-43.8
						C101.5,160.4,105.1,159.1,108.2,160.6z"/>
					
						<rect x="85.6" y="175" transform="matrix(0.4376 -0.8992 0.8992 0.4376 -111.3174 209.158)" class="st16" width="51.8" height="37.1"/>
					
						<rect x="84.8" y="174.1" transform="matrix(0.4376 -0.8992 0.8992 0.4376 -110.955 207.9475)" class="st13" width="51.8" height="37.1"/>
					
						<linearGradient id="SVGID_00000103238293326594431320000007805459359470303387_" gradientUnits="userSpaceOnUse" x1="5669.5508" y1="8317.5293" x2="5669.5508" y2="8312.5098" gradientTransform="matrix(0.8992 0.4376 0.4376 -0.8992 -8613.8848 5164.1104)">
						<stop  offset="0" style="stop-color:#56538E"/>
						<stop  offset="1" style="stop-color:#34317A"/>
					</linearGradient>
					<path style="fill:url(#SVGID_00000103238293326594431320000007805459359470303387_);" d="M113.4,161.6l20.2,9.8l-1.2,2.5
						c-0.5,1.1-1.8,1.5-2.9,1l-16.2-7.9c-1.1-0.5-1.5-1.8-1-2.9L113.4,161.6C113.4,161.6,113.4,161.6,113.4,161.6z"/>
					
						<rect x="106" y="169" transform="matrix(0.4376 -0.8992 0.8992 0.4376 -97.0134 201.8894)" class="st16" width="13.8" height="19"/>
					<g>
						
							<rect x="103.2" y="174.9" transform="matrix(0.4376 -0.8992 0.8992 0.4376 -97.6871 195.6146)" class="st25" width="8.6" height="1.9"/>
						
							<rect x="106.6" y="177.4" transform="matrix(0.4376 -0.8992 0.8992 0.4376 -98.6768 198.8866)" class="st25" width="6.1" height="1.9"/>
						
							<rect x="111.9" y="180" transform="matrix(0.4376 -0.8992 0.8992 0.4376 -98.0283 205.1592)" class="st25" width="6.1" height="1.9"/>
						
							<rect x="109.9" y="179.7" transform="matrix(0.4377 -0.8991 0.8991 0.4377 -99.5467 202.0882)" class="st25" width="3.9" height="1.9"/>
						
							<rect x="115.5" y="182.6" transform="matrix(0.4376 -0.8992 0.8992 0.4376 -99.289 208.4663)" class="st25" width="3" height="1.9"/>
					</g>
					<g>
						
							<rect x="129.1" y="176.5" transform="matrix(0.4376 -0.8992 0.8992 0.4376 -89.3918 217.9706)" class="st16" width="0.9" height="8"/>
						
							<rect x="127.8" y="179.1" transform="matrix(0.4376 -0.8992 0.8992 0.4376 -92.4356 218.2973)" class="st16" width="0.9" height="8"/>
						
							<rect x="126.6" y="181.6" transform="matrix(0.4376 -0.8992 0.8992 0.4376 -95.4789 218.618)" class="st16" width="0.9" height="8"/>
						
							<rect x="125.3" y="184.2" transform="matrix(0.4376 -0.8992 0.8992 0.4376 -98.5226 218.9448)" class="st16" width="0.9" height="8"/>
						
							<rect x="124" y="186.8" transform="matrix(0.4376 -0.8992 0.8992 0.4376 -101.5704 219.267)" class="st16" width="0.9" height="8"/>
						
							<rect x="113.2" y="174.1" transform="matrix(0.4376 -0.8992 0.8992 0.4376 -105.8139 208.3312)" class="st16" width="0.9" height="29.3"/>
						
							<rect x="111.9" y="176.7" transform="matrix(0.4376 -0.8992 0.8992 0.4376 -108.8573 208.6519)" class="st16" width="0.9" height="29.3"/>
						
							<rect x="110.7" y="179.3" transform="matrix(0.4376 -0.8992 0.8992 0.4376 -111.901 208.9786)" class="st16" width="0.9" height="29.3"/>
						
							<rect x="109.4" y="181.9" transform="matrix(0.4376 -0.8992 0.8992 0.4376 -114.9537 209.3109)" class="st16" width="0.9" height="29.3"/>
						
							<rect x="108.1" y="184.5" transform="matrix(0.4376 -0.8992 0.8992 0.4376 -117.988 209.626)" class="st16" width="0.9" height="29.3"/>
						
							<rect x="106.9" y="187.1" transform="matrix(0.4376 -0.8992 0.8992 0.4376 -121.0464 209.9494)" class="st16" width="0.9" height="29.3"/>
						
							<rect x="105.6" y="189.7" transform="matrix(0.4376 -0.8992 0.8992 0.4376 -124.0912 210.2655)" class="st16" width="0.9" height="29.3"/>
						
							<rect x="104.3" y="192.3" transform="matrix(0.4376 -0.8992 0.8992 0.4376 -127.1334 210.5968)" class="st16" width="0.9" height="29.3"/>
						
							<rect x="103.1" y="194.9" transform="matrix(0.4376 -0.8992 0.8992 0.4376 -130.1772 210.9235)" class="st16" width="0.9" height="29.3"/>
					</g>
				</g>
				<g>
					<path class="st11" d="M111.2,206.7c-0.9-0.3-2-0.7-3.3-1.2l7.5-12.8l1.1,0.6c2.8-1.1,4.9-1.4,6.5-1.4c0.7,0,1.4,0,1.9,0.1
						c1.7,0.1,6.8,3.4,7.1,3.9c0.3,0.6-0.4,1.7-2.8,1.1c-2.4-0.6-4.7,0.2-4.7,0.2s6.1,3.7,7.6,4.3c1.4,0.6,3.2,2.3,2.2,3.6
						c-1,1.4-3.8,3.3-5.1,5.7c-1.2,2.3-1.9,3.9-4.9,4c-0.1,0-0.2,0-0.4,0C120.4,215,111.2,206.7,111.2,206.7L111.2,206.7
						L111.2,206.7L111.2,206.7z"/>
					
						<linearGradient id="SVGID_00000145017768711262391030000008777275779125763235_" gradientUnits="userSpaceOnUse" x1="104.0141" y1="37.4924" x2="111.4659" y2="24.5693" gradientTransform="matrix(1 0 0 -1 0 228)">
						<stop  offset="0" style="stop-color:#BBDFF2"/>
						<stop  offset="1" style="stop-color:#8EB7FD"/>
					</linearGradient>
					<path style="fill:url(#SVGID_00000145017768711262391030000008777275779125763235_);" d="M111.2,190.3l4.2,2.4v0l-7.5,12.8
						c-1.9-0.7-4.2-1.6-6.7-2.5c1.3-2.9,4.2-9.2,6.7-14.7L111.2,190.3z"/>
					<path class="st13" d="M102.1,184.8l-6.4-3.8l-30.3-17.9l15.4-57c3.8-16.3-0.8-37.2-15.4-32.3c-2.2,2.3-4.1,5.2-5.4,9.1
						c-4.5,13.3-17.9,74.6-17,84.3c0.2,2.7,1.2,5,2.8,7.2c1.9,3.4,6.9,7.6,13.2,11.7c4.6,3,9.8,5.9,15.2,8.3
						c8.1,3.8,16.4,6.8,21.4,8.6c3,1.1,4.8,1.6,4.8,1.6s0.3-0.6,0.8-1.6c1.3-2.9,4.2-9.2,6.7-14.7L102.1,184.8L102.1,184.8z"/>
				</g>
			</g>
			<g>
				<g>
					<g>
						<path class="st4" d="M202.1,41c-0.1,0.2-0.2,0.3-0.3,0.5c2.8,1.7,4.2,2.4,7.2,3.8c0.1-0.2,0.3-0.3,0.4-0.5
							C206.4,43.4,204.9,42.6,202.1,41L202.1,41z"/>
						<path class="st4" d="M201.6,42.8c2.4,1.5,3.7,2.1,6.3,3.4c0.2-0.1,0.4-0.2,0.6-0.4c-2.9-1.4-4.2-2.1-6.9-3.7
							C201.6,42.3,201.6,42.6,201.6,42.8z"/>
						<path class="st4" d="M202.1,46c0.9,0.5,1.4,0.8,2.3,1.3c0.3,0,0.7-0.1,1-0.2c-1.4-0.8-2.1-1.1-3.5-1.9
							C202,45.4,202,45.7,202.1,46L202.1,46z"/>
						<path class="st4" d="M202.7,47.5c0.2,0,0.4,0,0.6-0.1c-0.3-0.2-0.5-0.3-0.8-0.5C202.6,47.2,202.6,47.3,202.7,47.5z"/>
						<path class="st4" d="M201.7,44.3c1.8,1.1,2.8,1.6,4.7,2.6c0.3-0.1,0.5-0.2,0.8-0.3c-2.3-1.2-3.4-1.8-5.6-3
							C201.6,43.8,201.6,44,201.7,44.3L201.7,44.3z"/>
					</g>
					<path class="st5" d="M200.7,50.2c-0.2,0-0.4,0-0.6,0c0.3,0.2,0.4,0.2,0.7,0.4C200.8,50.5,200.8,50.4,200.7,50.2z M201.4,56.2
						c-3.1-1.7-4.5-2.5-7.4-4.4c-0.2,0.1-0.3,0.3-0.5,0.4c2.9,1.9,4.4,2.8,7.5,4.5C201.2,56.5,201.4,56.4,201.4,56.2L201.4,56.2z
						 M201.8,54.9c-2.7-1.4-3.9-2.2-6.4-3.8c-0.2,0.1-0.5,0.2-0.7,0.3c2.7,1.8,4.1,2.6,7,4.2C201.7,55.3,201.7,55.1,201.8,54.9
						L201.8,54.9z M201.2,51.6c-0.9-0.5-1.3-0.8-2.2-1.3c-0.3,0-0.7,0.1-1,0.1c1.4,0.8,2.1,1.2,3.5,2
						C201.4,52.2,201.3,51.9,201.2,51.6L201.2,51.6z M201.7,53.4c-1.9-1.1-2.9-1.6-4.7-2.8c-0.3,0.1-0.6,0.1-0.9,0.2
						c2.2,1.4,3.3,2,5.6,3.3C201.8,53.9,201.7,53.6,201.7,53.4L201.7,53.4z M193.1,52.7c-0.1,0.2-0.3,0.3-0.4,0.5
						c2.8,1.9,4.3,2.8,7.4,4.5c0.2-0.1,0.3-0.3,0.5-0.5C197.5,55.5,196,54.6,193.1,52.7L193.1,52.7z M192.3,54.5
						c2.5,1.7,3.8,2.5,6.5,4c0.2-0.1,0.5-0.2,0.7-0.3c-2.9-1.6-4.4-2.5-7.1-4.3C192.4,54,192.4,54.2,192.3,54.5L192.3,54.5z
						 M192.6,57.8c0.9,0.6,1.4,0.9,2.4,1.5c0.4,0,0.7,0,1.1-0.1c-1.5-0.9-2.2-1.3-3.6-2.3C192.4,57.2,192.5,57.5,192.6,57.8
						L192.6,57.8z M193,59.3c0.2,0,0.5,0,0.7,0c-0.3-0.2-0.5-0.3-0.9-0.5C192.9,58.9,192.9,59.1,193,59.3L193,59.3z M192.3,56
						c1.9,1.2,2.8,1.8,4.8,3c0.3-0.1,0.6-0.1,0.9-0.2c-2.4-1.4-3.5-2.1-5.7-3.6C192.3,55.5,192.3,55.7,192.3,56L192.3,56z"/>
					<path class="st4" d="M190.4,61.9c-0.2,0-0.4,0-0.6,0c0.3,0.2,0.4,0.3,0.8,0.5C190.5,62.2,190.4,62,190.4,61.9L190.4,61.9z
						 M190.4,67.9c-3.1-2-4.6-3-7.5-5.2c-0.2,0.1-0.4,0.2-0.6,0.4c2.9,2.2,4.5,3.3,7.7,5.3C190.2,68.3,190.3,68.1,190.4,67.9z
						 M191,66.7c-2.7-1.7-4.1-2.6-6.6-4.5c-0.3,0.1-0.5,0.1-0.8,0.2c2.7,2,4.2,3,7.1,4.9C190.9,67.1,190.9,66.9,191,66.7L191,66.7z
						 M190.8,63.4c-0.9-0.6-1.4-0.9-2.3-1.5c-0.4,0-0.8,0-1.1,0c1.4,1,2.1,1.5,3.6,2.4C190.9,63.9,190.8,63.6,190.8,63.4L190.8,63.4
						z M191.1,65.1c-2-1.2-2.9-1.9-4.8-3.2c-0.3,0-0.6,0.1-0.9,0.1c2.2,1.6,3.4,2.4,5.8,3.9C191.1,65.6,191.1,65.4,191.1,65.1
						L191.1,65.1z M181.8,63.6c-0.2,0.2-0.3,0.3-0.4,0.5c2.9,2.2,4.4,3.3,7.6,5.3c0.2-0.1,0.4-0.3,0.6-0.4
						C186.3,66.9,184.7,65.8,181.8,63.6L181.8,63.6z M180.7,65.2c2.6,1.9,3.9,2.9,6.6,4.7c0.3-0.1,0.6-0.2,0.8-0.3
						c-3-1.9-4.4-2.9-7.2-5.1C180.8,64.8,180.8,65,180.7,65.2L180.7,65.2z M180.6,68.5c0.9,0.7,1.4,1.1,2.4,1.7c0.4,0,0.8,0,1.2,0
						c-1.5-1-2.2-1.6-3.7-2.7C180.5,67.9,180.5,68.2,180.6,68.5z M180.9,70.1c0.2,0,0.5,0.1,0.8,0.1c-0.4-0.2-0.5-0.4-0.9-0.6
						C180.8,69.7,180.8,69.9,180.9,70.1z M180.5,66.8c1.9,1.4,2.9,2.1,4.9,3.5c0.4,0,0.7-0.1,1-0.1c-2.4-1.6-3.6-2.4-5.9-4.2
						C180.5,66.2,180.5,66.5,180.5,66.8L180.5,66.8z"/>
					<path class="st6" d="M177.8,72.4c-0.2,0-0.4-0.1-0.7-0.1c0.3,0.2,0.4,0.3,0.8,0.6C177.8,72.7,177.8,72.6,177.8,72.4z
						 M177.2,78.4c-3.2-2.3-4.7-3.5-7.6-6c-0.2,0.1-0.4,0.2-0.7,0.3c3,2.6,4.5,3.8,7.8,6.2C176.8,78.7,177,78.6,177.2,78.4z
						 M177.9,77.2c-2.8-2-4.1-3-6.7-5.2c-0.3,0-0.6,0.1-0.9,0.1c2.8,2.3,4.2,3.5,7.3,5.7C177.7,77.6,177.8,77.4,177.9,77.2z
						 M178,73.9c-0.9-0.7-1.4-1-2.3-1.8c-0.4-0.1-0.8-0.1-1.2-0.1c1.4,1.1,2.1,1.7,3.6,2.8C178.1,74.5,178.1,74.2,178,73.9L178,73.9
						z M178.2,75.7c-2-1.5-3-2.2-4.9-3.7c-0.4,0-0.7,0-1.1,0c2.3,1.9,3.4,2.8,5.9,4.5C178.1,76.2,178.1,76,178.2,75.7L178.2,75.7z
						 M168.2,73.1c-0.2,0.1-0.4,0.3-0.5,0.4c2.9,2.5,4.5,3.8,7.7,6.1c0.2-0.1,0.4-0.2,0.7-0.3C172.8,76.9,171.2,75.7,168.2,73.1z
						 M166.9,74.6c2.6,2.2,3.9,3.3,6.7,5.4c0.3,0,0.6-0.1,0.9-0.2c-3.1-2.3-4.5-3.4-7.3-5.9C167.1,74.2,167,74.4,166.9,74.6
						L166.9,74.6z M166.4,77.9c0.9,0.8,1.4,1.2,2.4,2c0.4,0.1,0.9,0.1,1.3,0.2c-1.5-1.2-2.3-1.8-3.7-3.1
						C166.4,77.3,166.4,77.6,166.4,77.9z M166.6,79.5c0.3,0.1,0.5,0.1,0.8,0.2c-0.4-0.3-0.5-0.4-0.9-0.7
						C166.5,79.1,166.5,79.3,166.6,79.5L166.6,79.5z M166.4,76.1c1.9,1.7,2.9,2.5,5,4.1c0.4,0,0.8,0,1.1,0c-2.4-1.9-3.6-2.8-5.9-4.8
						C166.5,75.6,166.5,75.8,166.4,76.1L166.4,76.1z"/>
					<path class="st4" d="M163,81.4c-0.2-0.1-0.5-0.1-0.7-0.2c0.3,0.3,0.5,0.4,0.8,0.7C163,81.7,163,81.6,163,81.4L163,81.4z"/>
					<path class="st4" d="M161.7,87.3c-3.2-2.7-4.8-4.1-7.7-6.9c-0.3,0.1-0.5,0.1-0.8,0.2c3,2.9,4.5,4.3,7.8,7.1
						C161.3,87.6,161.5,87.4,161.7,87.3z"/>
					<path class="st4" d="M162.6,86.2c-2.8-2.3-4.1-3.5-6.7-6c-0.3,0-0.6,0-0.9,0c2.8,2.7,4.2,4,7.3,6.5
						C162.4,86.6,162.5,86.4,162.6,86.2L162.6,86.2z"/>
					<path class="st4" d="M163.1,82.9c-0.9-0.8-1.4-1.2-2.3-2c-0.4-0.1-0.9-0.2-1.3-0.3c1.4,1.3,2.2,1.9,3.7,3.2
						C163.1,83.5,163.1,83.2,163.1,82.9z"/>
					<path class="st4" d="M163,84.7c-2-1.7-3-2.6-4.9-4.3c-0.4-0.1-0.8-0.1-1.1-0.1c2.3,2.1,3.4,3.2,5.9,5.2
						C163,85.2,163,85,163,84.7z"/>
				</g>
				
					<linearGradient id="SVGID_00000055699043063195293600000014592567927942452656_" gradientUnits="userSpaceOnUse" x1="-11262.1309" y1="8116.8491" x2="-11243.4014" y2="8116.8491" gradientTransform="matrix(0.6334 0.5669 0.5669 -0.6334 2694.2 11550.7861)">
					<stop  offset="0" style="stop-color:#FC697D"/>
					<stop  offset="1" style="stop-color:#DC2276"/>
				</linearGradient>
				<path style="fill:url(#SVGID_00000055699043063195293600000014592567927942452656_);" d="M182.1,63.4c-1-0.8-1.5-1.2-2.5-2
					c3.5-2.8,8.1-2.4,12.3-2.3c3.8,0.1,7.2-0.1,8.9-2.2c1.7-2.1,0.6-4.6-0.5-7.5c-1.3-3.2-2.5-6.9-0.3-10.3c0.9,0.6,1.4,0.9,2.4,1.5
					c-1.4,2.2-0.4,4.9,0.8,7.8c1.3,3.1,3,6.7,0.4,10s-7.6,3.6-11.8,3.5C187.9,61.8,184.4,61.5,182.1,63.4L182.1,63.4z"/>
				
					<linearGradient id="SVGID_00000135661458783355999920000011890577862789065863_" gradientUnits="userSpaceOnUse" x1="-11274.5811" y1="8079.9634" x2="-11246.8516" y2="8079.9634" gradientTransform="matrix(0.6334 0.5669 0.5669 -0.6334 2694.2 11550.7861)">
					<stop  offset="0" style="stop-color:#FC697D"/>
					<stop  offset="1" style="stop-color:#DC2276"/>
				</linearGradient>
				<path style="fill:url(#SVGID_00000135661458783355999920000011890577862789065863_);" d="M153,80.8c-1-1-1.5-1.5-2.5-2.6
					c4.6-1.8,10-0.2,14.9,0.8c4.4,1,8.4,1.6,10.9-0.1c2.5-1.7,1.8-4.4,1.2-7.5c-0.7-3.4-1.3-7.3,2.2-10.1c1,0.8,1.5,1.2,2.5,2
					c-2.3,1.9-1.7,4.7-1,7.8c0.8,3.3,1.9,7.2-2,9.9s-9.6,1.8-14.6,0.7C160.1,80.8,156,79.6,153,80.8L153,80.8z"/>
				
					<linearGradient id="SVGID_00000037666446264880166750000016155405091008622012_" gradientUnits="userSpaceOnUse" x1="-11260.5117" y1="8119.334" x2="-11243.7217" y2="8119.334" gradientTransform="matrix(0.6334 0.5669 0.5669 -0.6334 2694.2 11550.7861)">
					<stop  offset="0" style="stop-color:#5B6BF4"/>
					<stop  offset="0.26" style="stop-color:#5B60EA"/>
					<stop  offset="0.7" style="stop-color:#5E44D1"/>
					<stop  offset="1" style="stop-color:#602DBD"/>
				</linearGradient>
				<path style="fill:url(#SVGID_00000037666446264880166750000016155405091008622012_);" d="M192.5,70.4c-1.1-0.7-1.7-1-2.8-1.7
					c2.2-2,1.3-4.8,0.4-7.8c-1-3.3-1.9-7,0.9-10c2.8-3,6.9-3,10.6-3.3c3.4-0.3,6.6-0.7,8-3.1c1.1,0.5,1.6,0.7,2.7,1.2
					c-2.1,3.7-6.6,4.3-10.6,4.6c-3.5,0.3-6.6,0.3-8.3,2.3c-1.7,2-1,4.6,0,7.6C194.5,63.4,195.9,67.2,192.5,70.4L192.5,70.4z"/>
				
					<linearGradient id="SVGID_00000073699767251321059010000006032111992669085075_" gradientUnits="userSpaceOnUse" x1="-11267.2109" y1="8080.9341" x2="-11243.7617" y2="8080.9341" gradientTransform="matrix(0.6334 0.5669 0.5669 -0.6334 2694.2 11550.7861)">
					<stop  offset="0" style="stop-color:#5B6BF4"/>
					<stop  offset="0.26" style="stop-color:#5B60EA"/>
					<stop  offset="0.7" style="stop-color:#5E44D1"/>
					<stop  offset="1" style="stop-color:#602DBD"/>
				</linearGradient>
				<path style="fill:url(#SVGID_00000073699767251321059010000006032111992669085075_);" d="M163.5,90.2c-1.2-0.9-1.8-1.4-2.9-2.4
					c3-1.4,2.6-4.4,2.2-7.5c-0.4-3.4-0.7-7.3,3.2-9.5c3.9-2.3,8.9-1.3,13.4-0.8c4.1,0.5,8,0.7,10.3-1.3c1.1,0.7,1.7,1.1,2.8,1.7
					c-3.4,3.2-8.9,2.9-13.6,2.3c-4.2-0.5-7.8-1.2-10.3,0.3s-2.2,4.2-1.7,7.4C167.4,83.9,168.2,87.9,163.5,90.2L163.5,90.2z"/>
			</g>
			<path class="st11" d="M158.4,93.1c0.8-3.2,2.1-7.8,3.6-7.8c1.5,0,1.4,5.7,0.7,8.6S158.4,93,158.4,93.1L158.4,93.1z"/>
			<path class="st21" d="M163.7,94.5c-0.6-1.1,1.5,4,1.3,5.4c-0.2,1.4-0.9,4.1-0.9,4.1s1.9-1.5,2.1-3.9
				C166.3,97.7,164.1,95.2,163.7,94.5z"/>
			<path class="st21" d="M169.5,85.3c2.7,0.9,6.7,3,6.7,3.5s-3.8-1.2-5.2-2.1C169.5,85.9,169.5,85.3,169.5,85.3L169.5,85.3z"/>
			<path class="st21" d="M101.4,40.3c-0.4-0.2-0.8-0.3-1.3-0.2s-0.8,0.4-1.1,0.7c-1.1,1.2-1.7,2.9-1.7,4.6c0,0.2,0,0.3,0.1,0.5
				c0.1,0.3,0.4,0.4,0.6,0.5c0.5,0.2,1.1,0.2,1.5-0.2c0.2-0.3,0.3-0.7,0.3-1c0-0.4-0.1-0.8-0.2-1.1c0-0.1-0.1-0.3-0.1-0.4
				c0-0.3,0.3-0.4,0.5-0.4c0.7-0.1,1,0.2,1.3-0.7C101.3,42.2,101.7,40.5,101.4,40.3L101.4,40.3z"/>
			<polygon class="st19" points="83.6,60.2 83.1,62.4 82.1,61.2 			"/>
			<polygon class="st16" points="82.1,75.5 86.8,93.9 93.3,97.4 89.2,103.4 93.2,135.4 88,102.9 91.9,97.5 84.6,94.3 			"/>
			<path class="st16" d="M107.8,75.2c0,0,0.3,0.9,0.9,2.4c0.6,1.6,1.4,3.8,2.5,6.4c1,2.7,2.2,5.8,3.4,9.1c0.1,0.2,0.1,0.3,0.2,0.5
				l0.1,0.2l-0.1,0.1c-0.9,1.1-1.8,2.2-2.8,3.4V97c1.1,1.4,2.3,2.8,3.6,4.3l0.1,0.1v0.1c0,0.2,0,0.4-0.1,0.6
				c-0.3,3.8-0.6,7.6-0.8,11.2c-0.3,3.6-0.6,6.9-0.8,9.7c-0.2,2.8-0.5,5.2-0.6,6.9c-0.2,1.7-0.2,2.6-0.2,2.6s0-0.9,0.1-2.6
				c0.1-1.7,0.2-4.1,0.3-6.9c0.2-2.8,0.4-6.2,0.6-9.7c0.2-3.6,0.5-7.4,0.7-11.2c0-0.2,0-0.4,0.1-0.6l0.1,0.2
				c-1.2-1.5-2.4-2.9-3.5-4.3l-0.2-0.2l0.2-0.2c1-1.2,1.9-2.3,2.9-3.4l-0.1,0.3c-0.1-0.2-0.1-0.3-0.2-0.5c-1.2-3.4-2.3-6.5-3.2-9.2
				c-0.9-2.7-1.7-4.9-2.2-6.5C108.1,76.2,107.8,75.3,107.8,75.2L107.8,75.2z"/>
		</g>
	</g>
</g>
</svg>
