<?xml version="1.0" encoding="UTF-8"?>
<svg xmlns="http://www.w3.org/2000/svg" xmlns:xlink="http://www.w3.org/1999/xlink" viewBox="0 0 188.12 189.53">
  <defs>
    <style>
      .cls-1 {
        fill: url(#Degradado_sin_nombre_91);
      }

      .cls-1, .cls-2, .cls-3, .cls-4, .cls-5, .cls-6, .cls-7, .cls-8, .cls-9, .cls-10, .cls-11, .cls-12, .cls-13, .cls-14, .cls-15, .cls-16, .cls-17, .cls-18, .cls-19, .cls-20, .cls-21, .cls-22, .cls-23, .cls-24, .cls-25, .cls-26, .cls-27, .cls-28, .cls-29, .cls-30, .cls-31, .cls-32, .cls-33, .cls-34, .cls-35, .cls-36, .cls-37, .cls-38, .cls-39, .cls-40, .cls-41, .cls-42, .cls-43, .cls-44 {
        stroke-width: 0px;
      }

      .cls-2 {
        fill: url(#Degradado_sin_nombre_92);
      }

      .cls-3 {
        fill: url(#Degradado_sin_nombre_80);
      }

      .cls-4 {
        fill: url(#Degradado_sin_nombre_89);
      }

      .cls-45 {
        clip-path: url(#clippath);
      }

      .cls-5, .cls-46, .cls-47, .cls-48, .cls-49, .cls-50, .cls-51, .cls-52 {
        fill: none;
      }

      .cls-6 {
        fill: url(#Degradado_sin_nombre_6-2);
        opacity: .45;
      }

      .cls-6, .cls-10, .cls-36, .cls-37, .cls-44 {
        mix-blend-mode: multiply;
      }

      .cls-46 {
        stroke-dasharray: 0 0 2.82 2.82;
      }

      .cls-46, .cls-47, .cls-48, .cls-49, .cls-50, .cls-51, .cls-52 {
        stroke-width: .57px;
      }

      .cls-46, .cls-48, .cls-49, .cls-50, .cls-51, .cls-52 {
        stroke-miterlimit: 10;
      }

      .cls-46, .cls-48, .cls-49, .cls-51, .cls-52 {
        stroke: #efefef;
      }

      .cls-7 {
        fill: url(#Eau_7-4);
      }

      .cls-8 {
        fill: url(#Eau_7-3);
      }

      .cls-9 {
        fill: url(#Eau_7-2);
      }

      .cls-47 {
        stroke-linecap: round;
        stroke-linejoin: round;
      }

      .cls-47, .cls-50 {
        stroke: #adadad;
      }

      .cls-48 {
        stroke-dasharray: 0 0 2.77 2.77;
      }

      .cls-10 {
        fill: url(#Degradado_sin_nombre_10);
      }

      .cls-11 {
        fill: url(#Degradado_sin_nombre_80-2);
      }

      .cls-12 {
        fill: url(#Degradado_sin_nombre_80-4);
      }

      .cls-13 {
        fill: url(#Degradado_sin_nombre_80-3);
      }

      .cls-14 {
        fill: url(#Degradado_sin_nombre_80-6);
      }

      .cls-15 {
        fill: url(#Degradado_sin_nombre_80-5);
      }

      .cls-16 {
        fill: url(#Degradado_sin_nombre_80-8);
      }

      .cls-17 {
        fill: url(#Degradado_sin_nombre_80-7);
      }

      .cls-18 {
        fill: url(#Degradado_sin_nombre_92-5);
      }

      .cls-19 {
        fill: url(#Degradado_sin_nombre_92-2);
      }

      .cls-20 {
        fill: url(#Degradado_sin_nombre_92-4);
      }

      .cls-21 {
        fill: url(#Degradado_sin_nombre_92-3);
      }

      .cls-22 {
        fill: url(#Degradado_sin_nombre_91-6);
      }

      .cls-23 {
        fill: url(#Degradado_sin_nombre_91-5);
      }

      .cls-24 {
        fill: url(#Degradado_sin_nombre_91-3);
      }

      .cls-25 {
        fill: url(#Degradado_sin_nombre_91-2);
      }

      .cls-26 {
        fill: url(#Degradado_sin_nombre_91-4);
      }

      .cls-27 {
        fill: url(#Degradado_sin_nombre_89-7);
      }

      .cls-28 {
        fill: url(#Degradado_sin_nombre_89-2);
      }

      .cls-29 {
        fill: url(#Degradado_sin_nombre_89-4);
      }

      .cls-30 {
        fill: url(#Degradado_sin_nombre_89-3);
      }

      .cls-31 {
        fill: url(#Degradado_sin_nombre_89-5);
      }

      .cls-32 {
        fill: url(#Degradado_sin_nombre_89-6);
      }

      .cls-33 {
        fill: url(#Degradado_sin_nombre_89-8);
      }

      .cls-34 {
        fill: url(#Degradado_sin_nombre_89-9);
      }

      .cls-35 {
        fill: url(#Degradado_sin_nombre_89-10);
      }

      .cls-49 {
        stroke-dasharray: 0 0 2.86 2.86;
      }

      .cls-52 {
        stroke-dasharray: 0 0 2.82 2.82;
      }

      .cls-36 {
        fill: url(#Degradado_sin_nombre_6-4);
      }

      .cls-37 {
        fill: url(#Degradado_sin_nombre_6-3);
      }

      .cls-53 {
        isolation: isolate;
      }

      .cls-38 {
        fill: #d2b182;
      }

      .cls-39 {
        fill: #cfbca0;
      }

      .cls-40 {
        fill: #a89380;
      }

      .cls-41 {
        fill: #fff;
      }

      .cls-42 {
        fill: #efefef;
      }

      .cls-43 {
        fill: url(#Eau_7);
      }

      .cls-44 {
        fill: url(#Degradado_sin_nombre_6);
      }
    </style>
    <clipPath id="clippath">
      <path class="cls-5" d="M3.92,63.94c-5.67,10.38-5.19,20.85,1.41,31.09l.04.05c15.75,18.4,25.69,35.23,34.47,50.08,15.78,26.71,26.21,44.36,56.2,44.36,45.84,0,73.37-6.43,92.09-17.38V2.29c-8.49-1.53-17.94-2.29-28.41-2.29C118.33,0,24.07,27,3.92,63.94Z"/>
    </clipPath>
    <linearGradient id="Eau_7" data-name="Eau 7" x1="66.28" y1="32.36" x2="86.59" y2="32.36" gradientUnits="userSpaceOnUse">
      <stop offset="0" stop-color="#79acdb"/>
      <stop offset=".15" stop-color="#6fa7d8"/>
      <stop offset=".41" stop-color="#569bd2"/>
      <stop offset=".58" stop-color="#4191cd"/>
      <stop offset="1" stop-color="#377dbd"/>
    </linearGradient>
    <linearGradient id="Eau_7-2" data-name="Eau 7" x1="71.08" y1="31.53" x2="81.5" y2="31.53" xlink:href="#Eau_7"/>
    <linearGradient id="Eau_7-3" data-name="Eau 7" x1="118.67" y1="28.06" x2="147.35" y2="28.06" xlink:href="#Eau_7"/>
    <linearGradient id="Eau_7-4" data-name="Eau 7" x1="125.46" y1="26.89" x2="140.16" y2="26.89" xlink:href="#Eau_7"/>
    <linearGradient id="Degradado_sin_nombre_91" data-name="Degradado sin nombre 91" x1="136.95" y1="104.85" x2="136.52" y2="110.75" gradientUnits="userSpaceOnUse">
      <stop offset=".23" stop-color="#adddf8"/>
      <stop offset=".75" stop-color="#89c6ed"/>
    </linearGradient>
    <linearGradient id="Degradado_sin_nombre_89" data-name="Degradado sin nombre 89" x1="135.32" y1="115.71" x2="137.13" y2="106.98" gradientUnits="userSpaceOnUse">
      <stop offset=".05" stop-color="#1f2248"/>
      <stop offset=".7" stop-color="#243884"/>
    </linearGradient>
    <linearGradient id="Degradado_sin_nombre_91-2" data-name="Degradado sin nombre 91" x1="65.48" y1="212.96" x2="65.63" y2="125.39" xlink:href="#Degradado_sin_nombre_91"/>
    <linearGradient id="Degradado_sin_nombre_92" data-name="Degradado sin nombre 92" x1="71.81" y1="61.53" x2="73.73" y2="89.65" gradientUnits="userSpaceOnUse">
      <stop offset=".07" stop-color="#a04c33"/>
      <stop offset="1" stop-color="#3b160e"/>
    </linearGradient>
    <linearGradient id="Degradado_sin_nombre_80" data-name="Degradado sin nombre 80" x1="64.16" y1="126.83" x2="70.47" y2="113.62" gradientUnits="userSpaceOnUse">
      <stop offset=".22" stop-color="#f7c3c1"/>
      <stop offset="1" stop-color="#f3a396"/>
    </linearGradient>
    <linearGradient id="Degradado_sin_nombre_6" data-name="Degradado sin nombre 6" x1="67.87" y1="116.51" x2="72.68" y2="110.67" gradientUnits="userSpaceOnUse">
      <stop offset="0" stop-color="#f3a396" stop-opacity="0"/>
      <stop offset=".98" stop-color="#f3a396"/>
    </linearGradient>
    <linearGradient id="Degradado_sin_nombre_89-2" data-name="Degradado sin nombre 89" x1="45.64" y1="269.97" x2="45.64" y2="140.13" xlink:href="#Degradado_sin_nombre_89"/>
    <linearGradient id="Degradado_sin_nombre_89-3" data-name="Degradado sin nombre 89" x1="56.43" y1="117.76" x2="58.41" y2="205.06" xlink:href="#Degradado_sin_nombre_89"/>
    <linearGradient id="Degradado_sin_nombre_89-4" data-name="Degradado sin nombre 89" x1="91.39" y1="273.31" x2="91.39" y2="137.14" xlink:href="#Degradado_sin_nombre_89"/>
    <linearGradient id="Degradado_sin_nombre_89-5" data-name="Degradado sin nombre 89" x1="82.95" y1="117.16" x2="84.92" y2="204.46" xlink:href="#Degradado_sin_nombre_89"/>
    <linearGradient id="Degradado_sin_nombre_91-3" data-name="Degradado sin nombre 91" x1="66" y1="137.66" x2="64.62" y2="125.53" xlink:href="#Degradado_sin_nombre_91"/>
    <linearGradient id="Degradado_sin_nombre_91-4" data-name="Degradado sin nombre 91" x1="78.74" y1="136.21" x2="77.36" y2="124.08" xlink:href="#Degradado_sin_nombre_91"/>
    <linearGradient id="Degradado_sin_nombre_89-6" data-name="Degradado sin nombre 89" x1="72.17" y1="121.43" x2="72.17" y2="190.56" xlink:href="#Degradado_sin_nombre_89"/>
    <linearGradient id="Degradado_sin_nombre_80-2" data-name="Degradado sin nombre 80" x1="81.95" y1="128.01" x2="73.27" y2="90.33" xlink:href="#Degradado_sin_nombre_80"/>
    <linearGradient id="Degradado_sin_nombre_6-2" data-name="Degradado sin nombre 6" x1="64.19" y1="111.54" x2="77.75" y2="107.59" xlink:href="#Degradado_sin_nombre_6"/>
    <linearGradient id="Degradado_sin_nombre_6-3" data-name="Degradado sin nombre 6" x1="91.45" y1="120.27" x2="78.93" y2="103.89" xlink:href="#Degradado_sin_nombre_6"/>
    <linearGradient id="Degradado_sin_nombre_92-2" data-name="Degradado sin nombre 92" x1="59.17" y1="99.3" x2="95.56" y2="95.89" xlink:href="#Degradado_sin_nombre_92"/>
    <linearGradient id="Degradado_sin_nombre_92-3" data-name="Degradado sin nombre 92" x1="98.13" y1="97.77" x2="154.5" y2="89.34" xlink:href="#Degradado_sin_nombre_92"/>
    <linearGradient id="Degradado_sin_nombre_92-4" data-name="Degradado sin nombre 92" x1="170.24" y1="86.45" x2="145.29" y2="91.19" xlink:href="#Degradado_sin_nombre_92"/>
    <linearGradient id="Degradado_sin_nombre_10" data-name="Degradado sin nombre 10" x1="153.46" y1="89.05" x2="159.91" y2="89.05" gradientUnits="userSpaceOnUse">
      <stop offset=".02" stop-color="#3b160e"/>
      <stop offset=".98" stop-color="#3b160e"/>
    </linearGradient>
    <linearGradient id="Degradado_sin_nombre_92-5" data-name="Degradado sin nombre 92" x1="164.08" y1="86.07" x2="157.47" y2="88.74" xlink:href="#Degradado_sin_nombre_92"/>
    <linearGradient id="Degradado_sin_nombre_80-3" data-name="Degradado sin nombre 80" x1="134.22" y1="115.38" x2="136.11" y2="91.15" xlink:href="#Degradado_sin_nombre_80"/>
    <linearGradient id="Degradado_sin_nombre_80-4" data-name="Degradado sin nombre 80" x1="131.16" y1="83.83" x2="131.38" y2="90.26" xlink:href="#Degradado_sin_nombre_80"/>
    <linearGradient id="Degradado_sin_nombre_80-5" data-name="Degradado sin nombre 80" x1="135.06" y1="83.69" x2="135.28" y2="90.13" xlink:href="#Degradado_sin_nombre_80"/>
    <linearGradient id="Degradado_sin_nombre_80-6" data-name="Degradado sin nombre 80" x1="138.69" y1="83.57" x2="138.91" y2="90" xlink:href="#Degradado_sin_nombre_80"/>
    <linearGradient id="Degradado_sin_nombre_80-7" data-name="Degradado sin nombre 80" x1="142.39" y1="83.44" x2="142.61" y2="89.88" xlink:href="#Degradado_sin_nombre_80"/>
    <linearGradient id="Degradado_sin_nombre_91-5" data-name="Degradado sin nombre 91" x1="136.15" y1="110.32" x2="135.52" y2="117.87" xlink:href="#Degradado_sin_nombre_91"/>
    <linearGradient id="Degradado_sin_nombre_89-7" data-name="Degradado sin nombre 89" x1="96.76" y1="133.9" x2="142.42" y2="133.9" xlink:href="#Degradado_sin_nombre_89"/>
    <linearGradient id="Degradado_sin_nombre_80-8" data-name="Degradado sin nombre 80" x1="86.12" y1="85.4" x2="65.4" y2="130.78" xlink:href="#Degradado_sin_nombre_80"/>
    <linearGradient id="Degradado_sin_nombre_89-8" data-name="Degradado sin nombre 89" x1="36.58" y1="146.41" x2="39.5" y2="111.07" xlink:href="#Degradado_sin_nombre_89"/>
    <linearGradient id="Degradado_sin_nombre_91-6" data-name="Degradado sin nombre 91" x1="77.67" y1="114.09" x2="62.6" y2="128.97" xlink:href="#Degradado_sin_nombre_91"/>
    <linearGradient id="Degradado_sin_nombre_89-9" data-name="Degradado sin nombre 89" x1="7.53" y1="174.24" x2="75.49" y2="124.49" xlink:href="#Degradado_sin_nombre_89"/>
    <linearGradient id="Degradado_sin_nombre_6-4" data-name="Degradado sin nombre 6" x1="137.39" y1="102.86" x2="138.27" y2="91.62" xlink:href="#Degradado_sin_nombre_6"/>
    <linearGradient id="Degradado_sin_nombre_89-10" data-name="Degradado sin nombre 89" x1="120.64" y1="139.9" x2="117.24" y2="123.52" xlink:href="#Degradado_sin_nombre_89"/>
  </defs>
  <g class="cls-53">
    <g id="_レイヤー_2" data-name="レイヤー 2">
      <g id="m">
        <g class="cls-45">
          <path class="cls-41" d="M3.92,63.94c-5.67,10.38-5.19,20.85,1.41,31.09l.04.05c15.75,18.4,25.69,35.23,34.47,50.08,15.78,26.71,26.21,44.36,56.2,44.36,45.84,0,73.37-6.43,92.09-17.38V2.29c-8.49-1.53-17.94-2.29-28.41-2.29C118.33,0,24.07,27,3.92,63.94Z"/>
          <g>
            <g>
              <path class="cls-42" d="M119.56,173.57c-.05-.87-.3-1.71-.72-2.46l.71-.4c-.36-.64-.82-1.22-1.38-1.72l-.54.61c-.63-.56-1.39-.99-2.25-1.24l.22-.78h-.01c-.6-.17-1.2-.25-1.8-.25-.13,0-.26,0-.39.01l.05.82c-.87.05-1.71.3-2.46.72l-.4-.71c-.64.36-1.23.82-1.72,1.38l.61.54c-.56.63-.99,1.38-1.24,2.25l-.78-.22v.02c-.17.6-.25,1.2-.25,1.8,0,.13,0,.25.01.38l.82-.05c.05.87.3,1.71.72,2.46l-.71.4c.36.64.82,1.23,1.38,1.72l.54-.61c.63.56,1.38.99,2.25,1.24l-.22.78h.02c.6.18,1.2.26,1.8.26.13,0,.27,0,.4-.01l-.05-.82c.87-.05,1.71-.31,2.46-.72l.4.71c.64-.36,1.22-.82,1.72-1.38l-.61-.54c.56-.63.99-1.39,1.23-2.25l.78.22h0c.17-.6.25-1.21.25-1.8,0-.13,0-.26-.01-.39l-.82.05ZM112.37,178.97h0l.04-.14-.04.14ZM117.16,174.87c-.43,1.54-1.83,2.54-3.35,2.54-.31,0-.63-.04-.95-.13-1.54-.43-2.54-1.83-2.54-3.35,0-.31.04-.63.13-.95.43-1.54,1.83-2.54,3.35-2.54.31,0,.63.04.95.13,1.54.43,2.54,1.83,2.54,3.35,0,.31-.04.63-.13.95Z"/>
              <path class="cls-42" d="M129.58,171.09l-.54.11c-.08-.42-.23-.83-.44-1.2l.48-.27c-.35-.63-.85-1.18-1.46-1.6l-.31.46c-.35-.23-.73-.42-1.16-.54l.15-.53h-.02c-.42-.13-.85-.18-1.26-.18-.3,0-.59.03-.87.08l.1.54c-.42.08-.83.23-1.2.43l-.27-.48c-.63.35-1.18.84-1.6,1.45l.45.31c-.24.35-.42.73-.54,1.16l-.53-.15v.04c-.13.42-.19.85-.19,1.26,0,.29.03.58.08.86l.54-.1c.08.42.22.83.43,1.2l-.48.26h0c.35.63.84,1.19,1.45,1.6l.31-.45c.34.24.73.42,1.15.55l-.16.53h.05c.42.13.85.19,1.26.19.3,0,.6-.03.9-.09l-.11-.54c.42-.08.83-.23,1.2-.44l.27.48c.63-.35,1.18-.85,1.59-1.46l-.46-.31c.23-.35.42-.73.54-1.16l.53.15h0c.12-.43.18-.86.18-1.28,0-.3-.03-.6-.09-.88ZM125.03,174.74c-.25,0-.5-.03-.75-.11-1.22-.34-2.01-1.45-2.01-2.65,0-.25.03-.5.11-.75.34-1.22,1.45-2.01,2.65-2.01.25,0,.5.03.75.11,1.22.34,2.01,1.45,2.01,2.65,0,.25-.03.5-.11.75-.34,1.22-1.45,2.01-2.65,2.01Z"/>
            </g>
            <g>
              <path class="cls-42" d="M41.02,108.57c-.26-.3-2.91-4.04-4.04-4.04h-2.87v-2.48c0-.56-.44-1-1-1h-9.91c-.56,0-1,.45-1,1v10.3h2.15c0-1.26,1.02-2.28,2.28-2.28s2.28,1.02,2.28,2.28h5.13c0-1.26,1.02-2.28,2.28-2.28s2.28,1.02,2.28,2.28h2.41s.26-3.48,0-3.78ZM34.2,108.41v-3.31h2.52c.93,0,3.1,3.06,3.31,3.31h-5.82Z"/>
              <path class="cls-42" d="M28.55,112.35c0,1.06-.86,1.91-1.91,1.91s-1.91-.86-1.91-1.91.86-1.91,1.91-1.91,1.91.86,1.91,1.91Z"/>
              <path class="cls-42" d="M38.24,112.35c0,1.06-.86,1.91-1.91,1.91s-1.91-.86-1.91-1.91.86-1.91,1.91-1.91,1.91.86,1.91,1.91Z"/>
            </g>
            <path class="cls-42" d="M94.98,45.48h0c.5-.29,1.2-.15,1.8.36l1.42,1.22,4.03-2.33-4.56-2.66c-.41-.24-.55-.88-.22-1.07l.51-.3c.8-.46,1.82-.46,2.85.01l4.68,2.13,3.09-1.79c.68-.39,1.58-.32,2.45.2l.73.44c.41.25.54.89.22,1.08l-12.31,7.11c-.55.32-1.34.09-1.94-.57l-2.71-2.96c-.27-.29-.29-.74-.04-.88Z"/>
            <path class="cls-42" d="M153.17,136.58v-4.09h.94v-.99h-8.21v.99h.94v4.09s-1.88.18-2.95-.37c-2.17-1.12-2.26-1.99-2.98-2.79h-4.15s1.86,8.56,4.68,8.56h13.92c3.31-1.3,3.57-5.4,3.57-5.4h-5.77ZM149.42,135.84h-1.61v-2.6h1.61v2.6ZM152.52,135.84h-1.61v-2.6h1.61v2.6Z"/>
            <g>
              <path class="cls-51" d="M57.78,120.51s.17-.47.51-1.32"/>
              <path class="cls-49" d="M59.41,116.56c5.86-13.37,27.66-56.1,66.7-56.1,25.46,0,33.89,20.88,36.12,28.53"/>
              <path class="cls-51" d="M162.61,90.38c.22.88.31,1.38.31,1.38,0,0-.17-.49-.53-1.31"/>
              <path class="cls-48" d="M161.18,87.96c-2.75-5.11-8.91-13.57-19.51-13.57-17.07,0-24.39,36.18-26.14,46.6"/>
              <path class="cls-51" d="M115.3,122.37c-.14.9-.21,1.4-.21,1.4,0,0-.03-.5-.12-1.41"/>
              <path class="cls-46" d="M114.68,119.56c-1.73-14.65-9.89-62.53-42.43-62.53s-41.72,28.4-43.92,37.5"/>
              <path class="cls-51" d="M28.01,95.92c-.19.89-.26,1.39-.26,1.39,0,0,.28-.42.82-1.15"/>
              <path class="cls-52" d="M30.29,93.93c5.77-7.18,20.79-23.2,39.38-22.37,26.12,1.17,40.93,39,44.55,49.52"/>
              <path class="cls-51" d="M114.67,122.42c.28.87.43,1.35.43,1.35"/>
            </g>
            <path class="cls-42" d="M115.48,110.22c-2.4,0-4.36,1.95-4.36,4.36,0,4.32,4.36,9.6,4.36,9.6,0,0,4.36-5.28,4.36-9.6,0-2.41-1.95-4.36-4.36-4.36ZM115.48,116.88c-1.27,0-2.3-1.04-2.3-2.31s1.03-2.3,2.3-2.3,2.31,1.03,2.31,2.3-1.03,2.31-2.31,2.31Z"/>
            <path class="cls-42" d="M162.45,77.92c-2.4,0-4.36,1.95-4.36,4.36,0,4.32,4.36,9.6,4.36,9.6,0,0,4.36-5.28,4.36-9.6,0-2.41-1.95-4.36-4.36-4.36ZM162.45,84.59c-1.27,0-2.3-1.04-2.3-2.31s1.03-2.3,2.3-2.3,2.31,1.03,2.31,2.3-1.03,2.31-2.31,2.31Z"/>
            <path class="cls-42" d="M27.46,83.38c-2.4,0-4.36,1.95-4.36,4.36,0,4.32,4.36,9.6,4.36,9.6,0,0,4.36-5.28,4.36-9.6,0-2.41-1.95-4.36-4.36-4.36ZM27.46,90.05c-1.27,0-2.3-1.04-2.3-2.31s1.03-2.3,2.3-2.3,2.31,1.03,2.31,2.3-1.03,2.31-2.31,2.31Z"/>
            <path class="cls-42" d="M97.72,56.63c-2.4,0-4.36,1.95-4.36,4.36,0,4.32,4.36,9.6,4.36,9.6,0,0,4.36-5.28,4.36-9.6,0-2.41-1.95-4.36-4.36-4.36ZM97.72,63.3c-1.27,0-2.3-1.04-2.3-2.31s1.03-2.3,2.3-2.3,2.31,1.03,2.31,2.3-1.03,2.31-2.31,2.31Z"/>
            <g>
              <g>
                <g>
                  <polyline class="cls-50" points="66.28 35.64 76.43 47.72 86.59 35.64"/>
                  <line class="cls-50" x1="76.43" y1="47.72" x2="76.43" y2="36.54"/>
                </g>
                <g>
                  <path class="cls-43" d="M86.59,35.64c-1.2-.49-2.68-.78-4.27-.78-2.42,0-4.56.66-5.88,1.67-1.32-1.01-3.46-1.67-5.88-1.67-1.6,0-3.08.29-4.27.78,1.35-4.33,5.38-7.47,10.15-7.47s8.81,3.14,10.15,7.47Z"/>
                  <path class="cls-9" d="M71.08,34.88s1.83-6.7,5.35-6.7,5.06,6.72,5.06,6.72"/>
                </g>
              </g>
              <g>
                <polygon class="cls-39" points="78.3 61.61 63.87 64.8 63.87 50.37 78.3 47.18 78.3 61.61"/>
                <polygon class="cls-40" points="89 61.61 74.57 64.8 63.87 64.8 78.3 61.61 89 61.61"/>
                <rect class="cls-38" x="78.3" y="47.18" width="10.7" height="14.43"/>
              </g>
            </g>
            <g>
              <g>
                <g>
                  <polyline class="cls-47" points="118.67 32.69 133.01 49.75 147.35 32.69"/>
                  <line class="cls-47" x1="133.01" y1="49.75" x2="133.01" y2="33.96"/>
                </g>
                <g>
                  <path class="cls-8" d="M147.35,32.69c-1.69-.69-3.78-1.09-6.04-1.09-3.42,0-6.44.93-8.3,2.36-1.86-1.43-4.88-2.36-8.3-2.36-2.26,0-4.35.41-6.04,1.09,1.9-6.11,7.6-10.54,14.34-10.54s12.43,4.43,14.34,10.54Z"/>
                  <path class="cls-7" d="M125.46,31.62s2.59-9.46,7.55-9.46,7.15,9.49,7.15,9.49"/>
                </g>
              </g>
              <g>
                <polygon class="cls-39" points="135.65 69.36 115.27 73.86 115.27 53.49 135.65 48.98 135.65 69.36"/>
                <polygon class="cls-40" points="150.75 69.36 130.37 73.86 115.27 73.86 135.65 69.36 150.75 69.36"/>
                <rect class="cls-38" x="135.65" y="48.98" width="15.11" height="20.38"/>
              </g>
            </g>
            <g>
              <path class="cls-1" d="M130.98,109.12s.49-1.09,4.46-1.16c6.23-.11,6.98,1.16,6.81,1.66-.47,1.36-2.05,4.07-2.23,4.07s-8.03-.22-8.03-.22l-1.01-4.36Z"/>
              <path class="cls-4" d="M129.27,112.28s.2-1.15,6.47-.43c6.51.74,6.7,1.59,6.68,2.35-.01.76-3.26,4.57-3.44,4.64-.18.07-7.25.26-7.25.26,0,0-3.34-4.91-2.47-6.82Z"/>
              <path class="cls-25" d="M67.63,117.33c-11.32,0-18.96,5.35-25.71,11.39-6.6,5.91-5.76,76.08-4.27,79.32,2.1,4.56,43.98,7.7,53.93,1.34,5.78-3.7,1.3-89.18-.24-91.43-1.82-2.96-12.39-.62-23.71-.62Z"/>
              <path class="cls-2" d="M61.86,111.34s.59-3.37-2.19-10.37c-2.96-7.46-3.77-15.46-1.33-20.27,2.44-4.81,7.55-3.77,7.55-3.77,0,0,1.89-4.14,9.23-4.14s13.56,6.36,14.74,10.28c1.18,3.92-1.34,9.92-1.34,9.92,0,0-23.44,19.4-26.66,18.36Z"/>
              <path class="cls-3" d="M59.82,117.02c1.08-3.34,3.7-8.95,3.33-12.72-.37-3.77,15.09-1.7,15.83,1.63.74,3.33-1.44,14.2-.72,16.09.72,1.89-11.93,4.77-18.44-4.99Z"/>
              <path class="cls-44" d="M78.99,105.93c-.74-3.33-16.2-5.4-15.83-1.63.18,1.84-.36,4.12-1.07,6.36,3.58,1.91,6.38,5.17,8.48,8.86.79,1.39,1.47,2.87,2.02,4.39,3.46.05,6.01-1.02,5.68-1.89-.72-1.89,1.46-12.76.72-16.09Z"/>
              <path class="cls-28" d="M58.48,118.61c7.17,14.69,1.8,75.75-2.1,92.47-1.66,7.14-20,18.49-27.1,16.01,9.87-57.98,3.17-100.33,8.1-103.94,3.79-2.77,18.99-4.26,21.1-4.54Z"/>
              <path class="cls-30" d="M51.75,125.16c.19.81,5.8,4.97,5.66,5.48-.14.5-3.15,9.02-3.25,9.57-.33,1.72,6.83,16.46,7.34,25.66.56-17.02,1.09-41.2-3.01-47.25-3.1,1.74-6.93,5.74-6.74,6.55Z"/>
              <path class="cls-29" d="M78.5,115.77c-.58,28.85,4.89,55.45,6.83,86.08,1.45,22.87,16.67,25.33,19,25.23,0,0-3.64-108.48-7.78-110.64-3.92-2.04-13.13-.3-18.04-.68Z"/>
              <path class="cls-31" d="M88.35,133.9c.07-.91-4.82-5.82-4.82-6.51s3.49-2.89,3.43-3.71c-.03-.46-7.6-5.86-8.48-6.62-1.7,14.96,3.05,40.08,3.35,48.8.64-5.61,6.31-29.22,6.52-31.96Z"/>
              <path class="cls-24" d="M69.77,123.63s-3.94-.12-4.8,3.61c0,0-6.66-6.41-6.48-8.63.15-1.97,1.94-4.71,2.63-5.15.72,2.9,4,9.16,8.66,10.18Z"/>
              <path class="cls-26" d="M74.41,123.85c1.72.81,2.29,2.08,2.03,3.98,0,0,3.49-2.76,3.49-6.68,0-1.18-1.57-4.13-1.57-4.13,0,0-.1,5-3.95,6.82Z"/>
              <path class="cls-32" d="M69.77,126.49c-1.87,5.06-4.11,63.11-4.11,66.73s6.48,9.63,7.31,9.72,6.01-8.85,5.71-10.01c-.46-1.77-5.49-51.75-4.46-67.5,0,0-3.06-1.55-4.45,1.06Z"/>
              <path class="cls-11" d="M65.96,99.94s-1.26-3.48-4.07-3.13c-2.39.29-1.89,5.48-.03,7.72,2.15,2.59,3.65,1.26,4.1,1.78.44.52,2.25,5.17,5.25,8.14,3.55,3.51,8.73,4.96,12.8,4.29,4.07-.67,3.77-18.57,3.92-20.86.09-1.43,1.47-6.63-.25-11.01-1.45-3.71-8.63,1.42-14.08-3.28.05,3.01-.76,6.91-3.11,7.72-4.25,1.46-4.54,8.64-4.54,8.64Z"/>
              <path class="cls-6" d="M71.03,101.05c-.11.11-2.09,9.04-4.28,6.72.87,1.73,2.37,4.6,4.47,6.67,1.04,1.03,2.24,1.86,3.5,2.54-.65-1.73-2.32-15.74-3.68-15.93Z"/>
              <path class="cls-37" d="M85.47,96.65c-2.57.47-4.85,1.68-7.35,2.34-.07.02-.3.17-.53.33-.25.53-.96,1.64-1.09,1.96-1.09,2.76-1.24,5.45-1.02,8.36.18,2.4-.8,4.62-2.36,6.36,3.35,2.35,7.5,3.29,10.9,2.74,4.07-.67,3.77-18.57,3.92-20.86.02-.34.12-.89.22-1.59-.9.12-1.81.21-2.69.37Z"/>
              <path class="cls-19" d="M82.02,95.13c.59,0,25-3.62,25-3.62l.53,6.59-27.82,2.51,2.29-5.47Z"/>
              <path class="cls-21" d="M106.45,89.67c-.23.1,49.26-7.41,49.26-7.41l1.18,13.62-49.43,3.56c-3.79-.44-4.74-8.32-1.01-9.78Z"/>
              <path class="cls-20" d="M161.42,88.62c.34,3.76-1.57,7.01-4.26,7.25-2.69.24-5.13-2.62-5.47-6.38-.34-3.76,1.57-7.01,4.26-7.25,2.69-.24,5.13,2.62,5.47,6.38Z"/>
              <path class="cls-10" d="M156.97,94.2c-1.47,0-3.23-1.96-3.48-4.87-.24-2.74,1.03-5.28,2.73-5.43h0c1.64,0,3.38,1.96,3.64,4.86.24,2.74-1.03,5.28-2.73,5.43h-.17Z"/>
              <path class="cls-18" d="M159.88,88.76c-.26-2.91-2-4.86-3.64-4.86h0c-.31.03-.6.16-.87.33,1.4.46,2.72,2.17,2.94,4.66.2,2.27-.65,4.38-1.9,5.13.2.06.39.18.58.18h.17c1.7-.16,2.98-2.7,2.73-5.44Z"/>
              <path class="cls-13" d="M134.13,97.52c-1.1.08-2.09-.61-2.46-1.65-.25-.71-.78-2.86-1.08-3.15-.97-.89-1.96-.62-2.4.17-.44.79.1,7.39.54,8.34.64,1.39,2.76,3.42,2.91,4.7.15,1.28-.37,3.95-.74,6.81-.33,2.54,8.92,2.86,8.93,1.58,0-.92.39-8.78.84-9.81.44-1.04,2.64-4.02,2.87-7.65l-9.41.68Z"/>
              <path class="cls-12" d="M131.08,91.9c-.69-.04-1.32-.64-1.41-2.86-.09-2.22-.44-4.97,1.87-4.84,2.15.13,1.21,4.4,1.09,5.07-.12.66-.58,2.68-1.55,2.63Z"/>
              <path class="cls-15" d="M134.96,91.19c-.69-.04-1.32-.64-1.41-2.86-.09-2.22-.44-4.97,1.87-4.84,2.15.13,1.21,4.4,1.09,5.07-.12.66-.58,2.68-1.55,2.63Z"/>
              <path class="cls-14" d="M138.57,90.49c-.69-.04-1.32-.64-1.41-2.86-.09-2.22-.43-4.97,1.87-4.84,2.15.13,1.21,4.4,1.09,5.07s-.58,2.68-1.55,2.63Z"/>
              <path class="cls-17" d="M142.05,89.85c-.63-.07-1.18-.65-1.14-2.69.04-2.04-.13-4.58,1.98-4.33,1.96.23.87,4.1.72,4.7-.15.6-.68,2.43-1.56,2.32Z"/>
              <path class="cls-23" d="M130.98,109.12c.93,1.88,7.82,4.1,11.27.5,0,0-.59,7.58-1.03,9.41-.37,1.51-11.26.83-11.57-2.6-.15-1.59,1.12-6.33,1.33-7.31Z"/>
              <path class="cls-27" d="M129.27,112.28c.25,1.28,5.77,5.49,13.16,1.92-.04,9.41-4.43,37.85-10.25,40.9-4.94,2.59-27.51-7.47-32.75-12.34-1.11-12.97-1.55-23.31-2.66-26.09,13.32,12.55,23.75,17.45,25.38,17.77,2.24-6.57,6.88-21.32,7.12-22.16Z"/>
              <path class="cls-16" d="M67.32,116.53s4.74-3.64,4.74-4.53-1.03-8.89-1.03-10.96,4.96-5.44,6.81-6.25c1.85-.81,7.95-1.74,8.4-.11,0,0-4.51,3.18-5.47,5.33-.96,2.15,1.48,7.03,1.63,9.62s-1.51,5.08-3.08,5.82c-1.57.74-5.07,6.71-5.07,6.71l-6.91-5.62Z"/>
              <path class="cls-33" d="M24.71,162.46c0-3.13,9.61-36.16,11.74-38.55,2.72-3.06,12.33-3.56,11.55,11.46-.66,12.65-2.59,14.94-3.99,17.9-1.4,2.96-19.29,12.32-19.29,9.19Z"/>
              <path class="cls-22" d="M72.71,128.72c3.36-3.19,5.56-5.52,5.56-5.52-1.14-3.11-6.95-7.77-9.32-8.5-1.79.98-3.73,3.02-6.86,5.01,4.27,2.61,7.41,5.34,10.63,9Z"/>
              <path class="cls-34" d="M63.19,118.61c2.86.89,10.14,6.36,11.52,10.11,0,0-37.29,49.66-48.29,39.31-10.65-9.67,26.21-40.11,36.77-49.41Z"/>
              <path class="cls-36" d="M136.82,99.16c3.22.52,5.66,1.25,5.27,2.65.66-1.36,1.32-3.06,1.44-4.96l-9.41.68c-.75.05-1.43-.26-1.91-.79h-.02s1.39,1.91,4.63,2.42Z"/>
              <path class="cls-35" d="M116.19,131.17s0,0,0,0c2.67,3.35,4.39,13.32,4.39,13.32-.3-2.81,1.56-10.05,1.56-10.05-.64-.13-2.79-1.23-5.95-3.27Z"/>
            </g>
            <path class="cls-42" d="M153.36,108.24c-1.85,1.85-2.08,4.73-.68,6.83l-3.46,3.46c-.15.15-.15.38,0,.53l.97.97c.15.15.38.15.53,0l3.46-3.46c2.24,1.5,5.36,1.14,7.19-1.07,1.6-1.95,1.63-4.82.05-6.79-2.05-2.56-5.81-2.72-8.07-.46ZM154.86,109.74c1.28-1.28,3.37-1.28,4.65,0,1.28,1.28,1.28,3.37,0,4.65s-3.37,1.28-4.65,0c-1.28-1.28-1.28-3.37,0-4.65Z"/>
            <g>
              <rect class="cls-42" x="139.5" y="161.21" width="6.06" height="4.54" rx=".58" ry=".58"/>
              <path class="cls-42" d="M144.03,162.55v-2.16c0-.42-.17-.79-.44-1.07-.27-.27-.65-.44-1.07-.44-.42,0-.79.17-1.07.44-.27.27-.44.65-.44,1.07v2.16h-.87v-2.16c0-1.32,1.07-2.38,2.38-2.38,1.32,0,2.38,1.07,2.38,2.38v2.16h-.87s0,0,0,0Z"/>
            </g>
          </g>
        </g>
      </g>
    </g>
  </g>
</svg>