<?xml version="1.0" encoding="utf-8"?>
<!-- Generator: Adobe Illustrator 28.1.0, SVG Export Plug-In . SVG Version: 6.00 Build 0)  -->
<svg version="1.1" id="レイヤー_1" xmlns="http://www.w3.org/2000/svg" xmlns:xlink="http://www.w3.org/1999/xlink" x="0px"
	 y="0px" viewBox="0 0 270 230" style="enable-background:new 0 0 270 230;" xml:space="preserve">
<style type="text/css">
	.st0{opacity:0.6;}
	.st1{fill:#FFFFFF;}
	.st2{fill:#EFEFEF;}
	.st3{fill:none;stroke:#EFEFEF;stroke-width:0.57;stroke-miterlimit:10;}
	.st4{fill:none;stroke:#EFEFEF;stroke-width:0.57;stroke-miterlimit:10;stroke-dasharray:0,0,2.87,2.87;}
	.st5{fill:none;stroke:#EFEFEF;stroke-width:0.57;stroke-miterlimit:10;stroke-dasharray:0,0,2.76,2.76;}
	.st6{fill:none;stroke:#EFEFEF;stroke-width:0.57;stroke-miterlimit:10;stroke-dasharray:0,0,2.84,2.84;}
	.st7{fill:none;stroke:#EFEFEF;stroke-width:0.57;stroke-miterlimit:10;stroke-dasharray:0,0,2.8,2.8;}
	.st8{clip-path:url(#SVGID_00000047032377091773715110000000779278623327282587_);}
	.st9{fill:url(#SVGID_00000065044711681150505620000000825370174905063819_);}
	.st10{fill:url(#SVGID_00000109000850974533853880000013249610704557503365_);}
	.st11{fill:url(#SVGID_00000101806252568802789540000011880197973843303359_);}
	.st12{fill:url(#SVGID_00000047755219466824814930000006213334812661875586_);}
	.st13{fill:url(#SVGID_00000003809624974802225650000017533500986210903461_);}
	.st14{fill:url(#SVGID_00000051366003120594017720000008630330280708549290_);}
	.st15{fill:url(#SVGID_00000171689456719952897620000017586220956074224262_);}
	.st16{fill:url(#SVGID_00000083068938250029758400000006547918579375197351_);}
	.st17{fill:url(#SVGID_00000137102200246747643980000012737654162617745299_);}
	.st18{fill:url(#SVGID_00000117652171976112271490000005168003028360032677_);}
	.st19{fill:url(#SVGID_00000121995796703211643640000003947639772494470826_);}
	.st20{fill:url(#SVGID_00000121263803473520963850000012540290149250267578_);}
	.st21{fill:url(#SVGID_00000021109911615103921520000000331211235539359905_);}
	.st22{fill:url(#SVGID_00000031901267438959519220000018230142279282731191_);}
	.st23{opacity:0.45;fill:url(#SVGID_00000082327974520444464920000009442123789662806165_);enable-background:new    ;}
	.st24{fill:url(#SVGID_00000057841467067574172570000013171765413253859519_);}
	.st25{fill:url(#SVGID_00000152958349942354872270000003078278007295305118_);}
	.st26{fill:url(#SVGID_00000147930997846702859830000007017383654142809482_);}
	.st27{fill:url(#SVGID_00000157271062938568527090000000502364282086544054_);}
	.st28{fill:url(#SVGID_00000096049350895904892680000000712251945394207891_);}
	.st29{fill:url(#SVGID_00000170997936128817334580000013498965495918857624_);}
	.st30{fill:url(#SVGID_00000134211377423695207710000014082734840897028013_);}
	.st31{fill:url(#SVGID_00000146480170036517635640000003611021234723878062_);}
	.st32{fill:url(#SVGID_00000062896281816814607760000015128608249206165416_);}
	.st33{fill:url(#SVGID_00000150805236796969420390000011189509822431773110_);}
	.st34{fill:url(#SVGID_00000096771459390021880980000012428173755535325572_);}
	.st35{fill:url(#SVGID_00000131361114674042776270000015531271309395905692_);}
	.st36{fill:url(#SVGID_00000072254595911069871260000004455746721737513634_);}
	.st37{fill:url(#SVGID_00000011032534738904415360000004533714643820850313_);}
	.st38{fill:url(#SVGID_00000070082911428254759410000010281511389315840422_);}
	.st39{fill:url(#SVGID_00000106149693254146880870000007882362837307515296_);}
	.st40{fill:url(#SVGID_00000067202054617691942890000005956209755895440795_);}
	.st41{fill:url(#SVGID_00000135660797920501592570000016364349130931306162_);}
	.st42{fill:url(#SVGID_00000002374905152223965000000001155038370386319790_);}
	.st43{fill:none;stroke:#ADADAD;stroke-width:0.57;stroke-miterlimit:10;}
	.st44{fill:url(#SVGID_00000155839847224819154090000005728995558141758376_);}
	.st45{fill:url(#SVGID_00000136392260816088651710000009706731977925054850_);}
	.st46{fill:#CFBCA0;}
	.st47{fill:#A89380;}
	.st48{fill:#D2B182;}
	.st49{fill:none;stroke:#ADADAD;stroke-width:0.57;stroke-linecap:round;stroke-linejoin:round;}
	.st50{fill:url(#SVGID_00000005235199583374811340000008975881008878738845_);}
	.st51{fill:url(#SVGID_00000072963372239289523960000007652391583997901710_);}
</style>
<g class="st0">
	<path class="st1" d="M32.7,28.1c0,21.5-4.8,29.2-16.4,29.2S0,49.2,0,28.1C0,5.5,6.8,0,16.6,0C26.8,0,32.7,6.2,32.7,28.1z
		 M10.2,27.8c0,14,0.6,21.2,6.2,21.2s6.1-6.9,6.1-21S21.7,8.5,16.4,8.5C11.4,8.5,10.2,14,10.2,27.8z"/>
	<path class="st1" d="M38.1,56.6V56c0.1-9.5,4.1-16.2,12.6-25.8c6.5-7.4,8-9.4,8-15c0-4.2-0.9-7.1-5-7.1s-5.4,3.5-5.6,9.1h-9.8
		C38.4,8.4,42.1,0,54,0c10.8,0,15.1,6.3,15.1,15.6c0,6.6-1.7,10.2-8.8,17.9C55.1,39,51.1,44,49.9,47.9h20.7l-1.3,8.7L38.1,56.6
		L38.1,56.6z"/>
</g>
<g>
	<circle class="st1" cx="135" cy="125.8" r="104.2"/>
	<g>
		<path class="st2" d="M166.4,207.9c-0.1-1.1-0.4-2.2-0.9-3.2l0.9-0.5c-0.5-0.8-1.1-1.6-1.8-2.2l-0.7,0.8c-0.8-0.7-1.8-1.3-2.9-1.6
			l0.3-1h0c-0.8-0.2-1.6-0.3-2.4-0.3c-0.2,0-0.3,0-0.5,0l0.1,1.1c-1.1,0.1-2.2,0.4-3.2,0.9l-0.5-0.9c-0.8,0.5-1.6,1.1-2.2,1.8
			l0.8,0.7c-0.7,0.8-1.3,1.8-1.6,2.9l-1-0.3v0c-0.2,0.8-0.3,1.6-0.3,2.4c0,0.2,0,0.3,0,0.5l1.1-0.1c0.1,1.1,0.4,2.2,0.9,3.2
			l-0.9,0.5c0.5,0.8,1.1,1.6,1.8,2.2l0.7-0.8c0.8,0.7,1.8,1.3,2.9,1.6l-0.3,1h0c0.8,0.2,1.6,0.3,2.4,0.3c0.2,0,0.4,0,0.5,0l-0.1-1.1
			c1.1-0.1,2.2-0.4,3.2-0.9l0.5,0.9c0.8-0.5,1.6-1.1,2.2-1.8l-0.8-0.7c0.7-0.8,1.3-1.8,1.6-2.9l1,0.3l0,0c0.2-0.8,0.3-1.6,0.3-2.4
			c0-0.2,0-0.3,0-0.5L166.4,207.9L166.4,207.9z M157,215L157,215l0.1-0.2L157,215z M163.3,209.6c-0.6,2-2.4,3.3-4.4,3.3
			c-0.4,0-0.8-0.1-1.2-0.2c-2-0.6-3.3-2.4-3.3-4.4c0-0.4,0.1-0.8,0.2-1.2c0.6-2,2.4-3.3,4.4-3.3c0.4,0,0.8,0.1,1.2,0.2
			c2,0.6,3.3,2.4,3.3,4.4C163.4,208.8,163.4,209.2,163.3,209.6z"/>
		<path class="st2" d="M179.5,204.7l-0.7,0.1c-0.1-0.6-0.3-1.1-0.6-1.6l0.6-0.4c-0.5-0.8-1.1-1.6-1.9-2.1l-0.4,0.6
			c-0.4-0.3-1-0.6-1.5-0.7l0.2-0.7h0c-0.6-0.2-1.1-0.2-1.7-0.2c-0.4,0-0.8,0-1.1,0.1l0.1,0.7c-0.6,0.1-1.1,0.3-1.6,0.6l-0.4-0.6
			c-0.8,0.5-1.6,1.1-2.1,1.9l0.6,0.4c-0.3,0.4-0.6,1-0.7,1.5l-0.7-0.2v0.1c-0.2,0.6-0.2,1.1-0.2,1.7c0,0.4,0,0.8,0.1,1.1l0.7-0.1
			c0.1,0.6,0.3,1.1,0.6,1.6l-0.6,0.4l0,0c0.4,0.8,1.1,1.6,1.9,2.1l0.4-0.6c0.4,0.3,1,0.6,1.5,0.7l-0.2,0.7l0,0l0.1,0
			c0.6,0.2,1.1,0.2,1.7,0.2c0.4,0,0.8,0,1.2-0.1l-0.1-0.7c0.6-0.1,1.1-0.3,1.6-0.6l0.4,0.6c0.8-0.5,1.5-1.1,2.1-1.9l-0.6-0.4
			c0.3-0.4,0.6-1,0.7-1.5l0.7,0.2v0c0.2-0.6,0.2-1.1,0.2-1.7C179.7,205.5,179.6,205.1,179.5,204.7L179.5,204.7z M173.6,209.5
			c-0.3,0-0.7,0-1-0.1c-1.6-0.4-2.6-1.9-2.6-3.5c0-0.3,0-0.7,0.1-1c0.4-1.6,1.9-2.6,3.5-2.6c0.3,0,0.7,0,1,0.1
			c1.6,0.4,2.6,1.9,2.6,3.5c0,0.3,0,0.7-0.1,1C176.6,208.4,175.1,209.5,173.6,209.5z"/>
	</g>
	<g>
		<path class="st2" d="M63.6,122.9c-0.3-0.4-3.8-5.3-5.3-5.3h-3.8v-3.2c0-0.7-0.6-1.3-1.3-1.3h-13c-0.7,0-1.3,0.6-1.3,1.3v13.5h2.8
			c0-1.7,1.3-3,3-3s3,1.3,3,3h6.7c0-1.7,1.3-3,3-3c1.7,0,3,1.3,3,3h3.2C63.6,127.8,64,123.3,63.6,122.9z M54.7,122.7v-4.3H58
			c1.2,0,4.1,4,4.3,4.3C62.3,122.7,54.7,122.7,54.7,122.7z"/>
		<path class="st2" d="M47.3,127.8c0,1.4-1.1,2.5-2.5,2.5s-2.5-1.1-2.5-2.5c0-1.4,1.1-2.5,2.5-2.5S47.3,126.4,47.3,127.8z"/>
		<path class="st2" d="M60,127.8c0,1.4-1.1,2.5-2.5,2.5s-2.5-1.1-2.5-2.5c0-1.4,1.1-2.5,2.5-2.5C58.9,125.3,60,126.4,60,127.8z"/>
	</g>
	<path class="st2" d="M134.2,40.3L134.2,40.3c0.7-0.4,1.6-0.2,2.4,0.5l1.9,1.6l5.3-3l-6-3.5c-0.5-0.3-0.7-1.2-0.3-1.4l0.7-0.4
		c1-0.6,2.4-0.6,3.7,0l6.1,2.8l4-2.3c0.9-0.5,2.1-0.4,3.2,0.3l0.9,0.6c0.5,0.3,0.7,1.2,0.3,1.4l-16.1,9.3c-0.7,0.4-1.8,0.1-2.5-0.7
		l-3.6-3.9C133.9,41.1,133.9,40.5,134.2,40.3L134.2,40.3z"/>
	<path class="st2" d="M210.4,159.5v-5.4h1.2v-1.3h-10.7v1.3h1.2v5.4c0,0-2.5,0.2-3.9-0.5c-2.8-1.5-2.9-2.6-3.9-3.6h-5.4
		c0,0,2.4,11.2,6.1,11.2h18.2c4.3-1.7,4.7-7.1,4.7-7.1H210.4L210.4,159.5z M205.5,158.6h-2.1v-3.4h2.1V158.6z M209.5,158.6h-2.1
		v-3.4h2.1V158.6z"/>
	<g>
		<path class="st3" d="M85.6,138.5c0,0,0.2-0.5,0.5-1.3"/>
		<path class="st4" d="M87.2,134.5c6.8-15.9,35.5-74.6,87.8-74.6c34.3,0,45,29,47.5,38.2"/>
		<path class="st3" d="M222.8,99.5c0.2,0.9,0.3,1.4,0.3,1.4s-0.2-0.5-0.5-1.3"/>
		<path class="st5" d="M221.5,97.1c-3.3-6.5-11.4-18.9-26.1-18.9c-22.8,0-32.3,49.5-34.3,61.8"/>
		<path class="st3" d="M160.8,141.4c-0.1,0.9-0.2,1.4-0.2,1.4s0-0.5-0.1-1.4"/>
		<path class="st6" d="M160.2,138.5c-1.9-17.5-12.1-83.1-55.7-83.1s-55.2,39-57.7,49.9"/>
		<path class="st3" d="M46.5,106.8c-0.2,0.9-0.3,1.4-0.3,1.4s0.3-0.4,0.8-1.2"/>
		<path class="st7" d="M48.8,104.8c6.8-8.8,27.1-31.4,52.4-30.3c34.9,1.6,54.4,53.2,58.6,65.6"/>
		<path class="st3" d="M160.1,141.4c0.3,0.9,0.4,1.4,0.4,1.4"/>
	</g>
	<path class="st2" d="M161.1,125c-3.1,0-5.7,2.6-5.7,5.7c0,5.7,5.7,12.6,5.7,12.6s5.7-6.9,5.7-12.6C166.8,127.6,164.2,125,161.1,125
		z M161.1,133.8c-1.7,0-3-1.4-3-3c0-1.7,1.4-3,3-3s3,1.4,3,3S162.7,133.8,161.1,133.8z"/>
	<path class="st2" d="M222.5,82.8c-3.1,0-5.7,2.6-5.7,5.7c0,5.7,5.7,12.6,5.7,12.6s5.7-6.9,5.7-12.6
		C228.2,85.3,225.7,82.8,222.5,82.8z M222.5,91.5c-1.7,0-3-1.4-3-3s1.4-3,3-3s3,1.3,3,3S224.2,91.5,222.5,91.5z"/>
	<path class="st2" d="M45.9,89.9c-3.2,0-5.7,2.6-5.7,5.7c0,5.7,5.7,12.6,5.7,12.6s5.7-6.9,5.7-12.6C51.6,92.5,49,89.9,45.9,89.9z
		 M45.9,98.6c-1.7,0-3-1.4-3-3s1.3-3,3-3s3,1.3,3,3S47.5,98.6,45.9,98.6z"/>
	<path class="st2" d="M137.8,54.9c-3.1,0-5.7,2.5-5.7,5.7c0,5.7,5.7,12.6,5.7,12.6s5.7-6.9,5.7-12.6C143.5,57.5,141,54.9,137.8,54.9
		z M137.8,63.6c-1.7,0-3-1.4-3-3s1.4-3,3-3s3,1.3,3,3S139.5,63.6,137.8,63.6z"/>
	<path class="st2" d="M210.6,122.4c-2.4,2.4-2.7,6.2-0.9,8.9l-4.5,4.5c-0.2,0.2-0.2,0.5,0,0.7l1.3,1.3c0.2,0.2,0.5,0.2,0.7,0
		l4.5-4.5c2.9,2,7,1.5,9.4-1.4c2.1-2.6,2.1-6.3,0.1-8.9C218.5,119.7,213.6,119.5,210.6,122.4z M212.6,124.4c1.7-1.7,4.4-1.7,6.1,0
		s1.7,4.4,0,6.1s-4.4,1.7-6.1,0S210.9,126.1,212.6,124.4z"/>
	<g>
		<path class="st2" d="M193.3,191.8h6.4c0.4,0,0.8,0.3,0.8,0.8v4.4c0,0.4-0.3,0.8-0.8,0.8h-6.4c-0.4,0-0.8-0.3-0.8-0.8v-4.4
			C192.5,192.1,192.8,191.8,193.3,191.8z"/>
		<path class="st2" d="M198.4,193.5v-2.8c0-0.6-0.2-1-0.6-1.4c-0.4-0.4-0.9-0.6-1.4-0.6c-0.6,0-1,0.2-1.4,0.6
			c-0.4,0.4-0.6,0.9-0.6,1.4v2.8h-1.1v-2.8c0-1.7,1.4-3.1,3.1-3.1c1.7,0,3.1,1.4,3.1,3.1v2.8H198.4L198.4,193.5L198.4,193.5z"/>
	</g>
	<g>
		<defs>
			<circle id="SVGID_1_" cx="135" cy="125.8" r="104.2"/>
		</defs>
		<clipPath id="SVGID_00000129884191814364215600000003363990354962369192_">
			<use xlink:href="#SVGID_1_"  style="overflow:visible;"/>
		</clipPath>
		<g style="clip-path:url(#SVGID_00000129884191814364215600000003363990354962369192_);">
			<g>
				
					<linearGradient id="SVGID_00000167363557006117143420000008964334619376328381_" gradientUnits="userSpaceOnUse" x1="189.1698" y1="109.99" x2="188.5999" y2="102.2816" gradientTransform="matrix(1 0 0 -1 0 228)">
					<stop  offset="0.23" style="stop-color:#ADDDF8"/>
					<stop  offset="0.75" style="stop-color:#89C6ED"/>
				</linearGradient>
				<path style="fill:url(#SVGID_00000167363557006117143420000008964334619376328381_);" d="M181.3,123.6c0,0,0.6-1.4,5.8-1.5
					c8.1-0.2,9.1,1.5,8.9,2.2c-0.6,1.8-2.7,5.3-2.9,5.3s-10.5-0.3-10.5-0.3L181.3,123.6L181.3,123.6z"/>
				
					<linearGradient id="SVGID_00000110429516119183930510000007842526415890095518_" gradientUnits="userSpaceOnUse" x1="187.0269" y1="95.7906" x2="189.3969" y2="107.2106" gradientTransform="matrix(1 0 0 -1 0 228)">
					<stop  offset="5.000000e-02" style="stop-color:#1F2248"/>
					<stop  offset="0.7" style="stop-color:#243884"/>
				</linearGradient>
				<path style="fill:url(#SVGID_00000110429516119183930510000007842526415890095518_);" d="M179.1,127.7c0,0,0.3-1.5,8.5-0.6
					c8.5,1,8.8,2.1,8.8,3.1c0,1-4.3,6-4.5,6.1c-0.2,0.1-9.5,0.3-9.5,0.3S178,130.2,179.1,127.7L179.1,127.7z"/>
				
					<linearGradient id="SVGID_00000148656097786879304140000000918588161377593504_" gradientUnits="userSpaceOnUse" x1="95.6401" y1="-31.4586" x2="95.8301" y2="83.1214" gradientTransform="matrix(1 0 0 -1 0 228)">
					<stop  offset="0.23" style="stop-color:#ADDDF8"/>
					<stop  offset="0.75" style="stop-color:#89C6ED"/>
				</linearGradient>
				<path style="fill:url(#SVGID_00000148656097786879304140000000918588161377593504_);" d="M98.4,134.3c-14.8,0-24.8,7-33.6,14.9
					c-8.6,7.7-7.5,99.6-5.6,103.8c2.8,6,57.5,10.1,70.6,1.8c7.6-4.8,1.7-116.7-0.3-119.6C127.1,131.2,113.3,134.3,98.4,134.3
					L98.4,134.3z"/>
				
					<linearGradient id="SVGID_00000078017755335685075130000000606102504935106436_" gradientUnits="userSpaceOnUse" x1="103.9126" y1="166.6795" x2="106.4326" y2="129.8895" gradientTransform="matrix(1 0 0 -1 0 228)">
					<stop  offset="7.000000e-02" style="stop-color:#A04C33"/>
					<stop  offset="1" style="stop-color:#3B160E"/>
				</linearGradient>
				<path style="fill:url(#SVGID_00000078017755335685075130000000606102504935106436_);" d="M90.9,126.5c0,0,0.8-4.4-2.9-13.6
					c-3.9-9.8-4.9-20.2-1.7-26.5c3.2-6.3,9.9-4.9,9.9-4.9s2.5-5.4,12.1-5.4s17.7,8.3,19.3,13.5s-1.8,13-1.8,13
					S95.1,127.9,90.9,126.5L90.9,126.5z"/>
				
					<linearGradient id="SVGID_00000019677735920762969280000013678877129907463858_" gradientUnits="userSpaceOnUse" x1="93.9116" y1="81.2292" x2="102.1716" y2="98.5192" gradientTransform="matrix(1 0 0 -1 0 228)">
					<stop  offset="0.22" style="stop-color:#F7C3C1"/>
					<stop  offset="1" style="stop-color:#F3A396"/>
				</linearGradient>
				<path style="fill:url(#SVGID_00000019677735920762969280000013678877129907463858_);" d="M88.2,133.9c1.4-4.4,4.8-11.7,4.4-16.7
					s19.8-2.2,20.7,2.1s-1.9,18.6-0.9,21.1C113.3,142.9,96.8,146.7,88.2,133.9L88.2,133.9z"/>
				
					<linearGradient id="SVGID_00000083798023213464235180000016777684173778923425_" gradientUnits="userSpaceOnUse" x1="98.7632" y1="94.7356" x2="105.0632" y2="102.3856" gradientTransform="matrix(1 0 0 -1 0 228)">
					<stop  offset="0" style="stop-color:#F3A396;stop-opacity:0"/>
					<stop  offset="0.98" style="stop-color:#F3A396"/>
				</linearGradient>
				<path style="fill:url(#SVGID_00000083798023213464235180000016777684173778923425_);" d="M113.3,119.4c-1-4.4-21.2-7.1-20.7-2.1
					c0.2,2.4-0.5,5.4-1.4,8.3c4.7,2.5,8.3,6.8,11.1,11.6c1,1.8,1.9,3.8,2.7,5.8c4.5,0.1,7.9-1.3,7.4-2.5
					C111.4,138,114.3,123.8,113.3,119.4z"/>
				
					<linearGradient id="SVGID_00000141418440482795260090000016271398747724708274_" gradientUnits="userSpaceOnUse" x1="69.6831" y1="-106.08" x2="69.6831" y2="63.83" gradientTransform="matrix(1 0 0 -1 0 228)">
					<stop  offset="5.000000e-02" style="stop-color:#1F2248"/>
					<stop  offset="0.7" style="stop-color:#243884"/>
				</linearGradient>
				<path style="fill:url(#SVGID_00000141418440482795260090000016271398747724708274_);" d="M86.5,136c9.4,19.2,2.3,99.1-2.8,121
					c-2.2,9.3-26.2,24.2-35.5,21c12.9-75.9,4.1-131.3,10.6-136C63.8,138.3,83.7,136.4,86.5,136L86.5,136z"/>
				
					<linearGradient id="SVGID_00000132808580698884226640000013748450905240263835_" gradientUnits="userSpaceOnUse" x1="83.8026" y1="93.1001" x2="86.3926" y2="-21.1299" gradientTransform="matrix(1 0 0 -1 0 228)">
					<stop  offset="5.000000e-02" style="stop-color:#1F2248"/>
					<stop  offset="0.7" style="stop-color:#243884"/>
				</linearGradient>
				<path style="fill:url(#SVGID_00000132808580698884226640000013748450905240263835_);" d="M77.7,144.6c0.2,1.1,7.6,6.5,7.4,7.2
					c-0.2,0.7-4.1,11.8-4.3,12.5c-0.4,2.2,8.9,21.5,9.6,33.6c0.7-22.3,1.4-53.9-3.9-61.8C82.4,138.3,77.4,143.5,77.7,144.6
					L77.7,144.6z"/>
				
					<linearGradient id="SVGID_00000147928962427510798350000005279901345016690054_" gradientUnits="userSpaceOnUse" x1="129.5369" y1="-110.44" x2="129.5369" y2="67.74" gradientTransform="matrix(1 0 0 -1 0 228)">
					<stop  offset="5.000000e-02" style="stop-color:#1F2248"/>
					<stop  offset="0.7" style="stop-color:#243884"/>
				</linearGradient>
				<path style="fill:url(#SVGID_00000147928962427510798350000005279901345016690054_);" d="M112.7,132.3
					c-0.8,37.8,6.4,72.6,8.9,112.6c1.9,29.9,21.8,33.2,24.9,33c0,0-4.8-142-10.2-144.8C131.1,130.5,119.1,132.8,112.7,132.3
					L112.7,132.3z"/>
				
					<linearGradient id="SVGID_00000049935862016638496650000009481528159359630224_" gradientUnits="userSpaceOnUse" x1="118.5007" y1="93.88" x2="121.0807" y2="-20.35" gradientTransform="matrix(1 0 0 -1 0 228)">
					<stop  offset="5.000000e-02" style="stop-color:#1F2248"/>
					<stop  offset="0.7" style="stop-color:#243884"/>
				</linearGradient>
				<path style="fill:url(#SVGID_00000049935862016638496650000009481528159359630224_);" d="M125.6,156c0.1-1.2-6.3-7.6-6.3-8.5
					s4.6-3.8,4.5-4.9c0-0.6-9.9-7.7-11.1-8.7c-2.2,19.6,4,52.4,4.4,63.9C117.9,190.5,125.3,159.6,125.6,156L125.6,156z"/>
				
					<linearGradient id="SVGID_00000056407532468005027970000013517182938033340560_" gradientUnits="userSpaceOnUse" x1="96.3268" y1="67.0608" x2="94.5168" y2="82.9408" gradientTransform="matrix(1 0 0 -1 0 228)">
					<stop  offset="0.23" style="stop-color:#ADDDF8"/>
					<stop  offset="0.75" style="stop-color:#89C6ED"/>
				</linearGradient>
				<path style="fill:url(#SVGID_00000056407532468005027970000013517182938033340560_);" d="M101.2,142.6c0,0-5.2-0.1-6.3,4.7
					c0,0-8.7-8.4-8.5-11.3c0.2-2.6,2.5-6.2,3.4-6.7C90.9,133.1,95.2,141.3,101.2,142.6L101.2,142.6z"/>
				
					<linearGradient id="SVGID_00000150102117525832647480000016475407958838438053_" gradientUnits="userSpaceOnUse" x1="112.9921" y1="68.9602" x2="111.1821" y2="84.8402" gradientTransform="matrix(1 0 0 -1 0 228)">
					<stop  offset="0.23" style="stop-color:#ADDDF8"/>
					<stop  offset="0.75" style="stop-color:#89C6ED"/>
				</linearGradient>
				<path style="fill:url(#SVGID_00000150102117525832647480000016475407958838438053_);" d="M107.3,142.9c2.2,1.1,3,2.7,2.7,5.2
					c0,0,4.6-3.6,4.6-8.7c0-1.6-2.1-5.4-2.1-5.4S112.4,140.5,107.3,142.9L107.3,142.9z"/>
				
					<linearGradient id="SVGID_00000091723713714545901910000018144442090535353786_" gradientUnits="userSpaceOnUse" x1="104.3935" y1="88.3" x2="104.3935" y2="-2.16" gradientTransform="matrix(1 0 0 -1 0 228)">
					<stop  offset="5.000000e-02" style="stop-color:#1F2248"/>
					<stop  offset="0.7" style="stop-color:#243884"/>
				</linearGradient>
				<path style="fill:url(#SVGID_00000091723713714545901910000018144442090535353786_);" d="M101.2,146.3
					c-2.4,6.6-5.4,82.6-5.4,87.3s8.5,12.6,9.6,12.7s7.9-11.6,7.5-13.1c-0.6-2.3-7.2-67.7-5.8-88.3
					C107.1,144.9,103.1,142.9,101.2,146.3L101.2,146.3z"/>
				
					<linearGradient id="SVGID_00000049931933502775141240000017030592724380714939_" gradientUnits="userSpaceOnUse" x1="117.2005" y1="79.6924" x2="105.8405" y2="128.9924" gradientTransform="matrix(1 0 0 -1 0 228)">
					<stop  offset="0.22" style="stop-color:#F7C3C1"/>
					<stop  offset="1" style="stop-color:#F3A396"/>
				</linearGradient>
				<path style="fill:url(#SVGID_00000049931933502775141240000017030592724380714939_);" d="M96.3,111.6c0,0-1.7-4.6-5.3-4.1
					c-3.1,0.4-2.5,7.2,0,10.1c2.8,3.4,4.8,1.7,5.4,2.3c0.6,0.7,2.9,6.8,6.9,10.7c4.7,4.6,11.4,6.5,16.8,5.6
					c5.3-0.9,4.9-24.3,5.1-27.3c0.1-1.9,1.9-8.7-0.3-14.4c-1.9-4.9-11.3,1.9-18.4-4.3c0.1,3.9-1,9.1-4.1,10.1
					C96.7,102.2,96.3,111.6,96.3,111.6L96.3,111.6z"/>
				
					<linearGradient id="SVGID_00000111159611259139954640000008642202482280237984_" gradientUnits="userSpaceOnUse" x1="93.9487" y1="101.2543" x2="111.6987" y2="106.4143" gradientTransform="matrix(1 0 0 -1 0 228)">
					<stop  offset="0" style="stop-color:#F3A396;stop-opacity:0"/>
					<stop  offset="0.98" style="stop-color:#F3A396"/>
				</linearGradient>
				
					<path style="opacity:0.45;fill:url(#SVGID_00000111159611259139954640000008642202482280237984_);enable-background:new    ;" d="
					M102.9,113c-0.2,0.2-2.7,11.8-5.6,8.8c1.1,2.3,3.1,6,5.8,8.7c1.4,1.4,2.9,2.4,4.6,3.3C106.9,131.6,104.7,113.3,102.9,113
					L102.9,113z"/>
				
					<linearGradient id="SVGID_00000046324259427698660050000003466035446840545958_" gradientUnits="userSpaceOnUse" x1="129.6183" y1="89.811" x2="113.2283" y2="111.241" gradientTransform="matrix(1 0 0 -1 0 228)">
					<stop  offset="0" style="stop-color:#F3A396;stop-opacity:0"/>
					<stop  offset="0.98" style="stop-color:#F3A396"/>
				</linearGradient>
				<path style="fill:url(#SVGID_00000046324259427698660050000003466035446840545958_);" d="M121.8,107.3c-3.4,0.6-6.3,2.2-9.6,3.1
					c-0.1,0-0.4,0.2-0.7,0.4c-0.3,0.7-1.3,2.1-1.4,2.6c-1.4,3.6-1.6,7.1-1.3,10.9c0.2,3.2-1.1,6-3.1,8.3c4.4,3.1,9.8,4.3,14.3,3.6
					c5.3-0.9,4.9-24.3,5.1-27.3c0-0.4,0.1-1.2,0.3-2.1C124.1,106.9,122.9,107.1,121.8,107.3L121.8,107.3z"/>
				
					<linearGradient id="SVGID_00000147905230504102960270000009681244300367067317_" gradientUnits="userSpaceOnUse" x1="87.3805" y1="117.2541" x2="135.0105" y2="121.7141" gradientTransform="matrix(1 0 0 -1 0 228)">
					<stop  offset="7.000000e-02" style="stop-color:#A04C33"/>
					<stop  offset="1" style="stop-color:#3B160E"/>
				</linearGradient>
				<path style="fill:url(#SVGID_00000147905230504102960270000009681244300367067317_);" d="M117.3,105.3c0.8,0,32.7-4.7,32.7-4.7
					l0.7,8.6l-36.4,3.3C114.3,112.4,117.3,105.3,117.3,105.3z"/>
				
					<linearGradient id="SVGID_00000091733077392263072390000003734706073869316018_" gradientUnits="userSpaceOnUse" x1="138.3604" y1="119.2572" x2="212.1304" y2="130.2872" gradientTransform="matrix(1 0 0 -1 0 228)">
					<stop  offset="7.000000e-02" style="stop-color:#A04C33"/>
					<stop  offset="1" style="stop-color:#3B160E"/>
				</linearGradient>
				<path style="fill:url(#SVGID_00000091733077392263072390000003734706073869316018_);" d="M149.3,98.1
					c-0.3,0.1,64.5-9.7,64.5-9.7l1.5,17.8l-64.7,4.7C145.6,110.4,144.4,100,149.3,98.1L149.3,98.1z"/>
				
					<linearGradient id="SVGID_00000139281977027630173720000005948468062186752897_" gradientUnits="userSpaceOnUse" x1="232.7307" y1="134.0666" x2="200.0806" y2="127.8766" gradientTransform="matrix(1 0 0 -1 0 228)">
					<stop  offset="7.000000e-02" style="stop-color:#A04C33"/>
					<stop  offset="1" style="stop-color:#3B160E"/>
				</linearGradient>
				<path style="fill:url(#SVGID_00000139281977027630173720000005948468062186752897_);" d="M221.2,96.8c0.4,4.9-2.1,9.2-5.6,9.5
					c-3.5,0.3-6.7-3.4-7.2-8.3c-0.4-4.9,2.1-9.2,5.6-9.5C217.5,88.1,220.7,91.8,221.2,96.8z"/>
				
					<linearGradient id="SVGID_00000022554660091041709560000010143339022890997661_" gradientUnits="userSpaceOnUse" x1="210.7706" y1="130.67" x2="219.2006" y2="130.67" gradientTransform="matrix(1 0 0 -1 0 228)">
					<stop  offset="2.000000e-02" style="stop-color:#3B160E"/>
					<stop  offset="0.98" style="stop-color:#3B160E"/>
				</linearGradient>
				<path style="fill:url(#SVGID_00000022554660091041709560000010143339022890997661_);" d="M215.4,104.1c-1.9,0-4.2-2.6-4.6-6.4
					c-0.3-3.6,1.4-6.9,3.6-7.1h0c2.1,0,4.4,2.6,4.8,6.4c0.3,3.6-1.4,6.9-3.6,7.1L215.4,104.1L215.4,104.1z"/>
				
					<linearGradient id="SVGID_00000013178550151489221150000001684576114419404470_" gradientUnits="userSpaceOnUse" x1="224.6699" y1="134.5703" x2="216.0199" y2="131.0803" gradientTransform="matrix(1 0 0 -1 0 228)">
					<stop  offset="7.000000e-02" style="stop-color:#A04C33"/>
					<stop  offset="1" style="stop-color:#3B160E"/>
				</linearGradient>
				<path style="fill:url(#SVGID_00000013178550151489221150000001684576114419404470_);" d="M219.2,97c-0.3-3.8-2.6-6.4-4.8-6.4h0
					c-0.4,0-0.8,0.2-1.1,0.4c1.8,0.6,3.6,2.8,3.9,6.1c0.3,3-0.8,5.7-2.5,6.7c0.3,0.1,0.5,0.2,0.8,0.2h0.2
					C217.8,103.9,219.5,100.5,219.2,97z"/>
				
					<linearGradient id="SVGID_00000069363170288520192480000014328030004446074001_" gradientUnits="userSpaceOnUse" x1="185.5917" y1="96.2199" x2="188.0617" y2="127.9299" gradientTransform="matrix(1 0 0 -1 0 228)">
					<stop  offset="0.22" style="stop-color:#F7C3C1"/>
					<stop  offset="1" style="stop-color:#F3A396"/>
				</linearGradient>
				<path style="fill:url(#SVGID_00000069363170288520192480000014328030004446074001_);" d="M185.5,108.4c-1.4,0.1-2.7-0.8-3.2-2.2
					c-0.3-0.9-1-3.8-1.4-4.1c-1.3-1.2-2.6-0.8-3.1,0.2s0.1,9.7,0.7,10.9c0.8,1.8,3.6,4.5,3.8,6.2c0.2,1.7-0.5,5.2-1,8.9
					c-0.4,3.3,11.7,3.7,11.7,2.1c0-1.2,0.5-11.5,1.1-12.8c0.6-1.4,3.5-5.2,3.8-10L185.5,108.4L185.5,108.4z"/>
				
					<linearGradient id="SVGID_00000021832416340075866370000004052537919483497388_" gradientUnits="userSpaceOnUse" x1="181.5837" y1="137.5001" x2="181.8737" y2="129.0801" gradientTransform="matrix(1 0 0 -1 0 228)">
					<stop  offset="0.22" style="stop-color:#F7C3C1"/>
					<stop  offset="1" style="stop-color:#F3A396"/>
				</linearGradient>
				<path style="fill:url(#SVGID_00000021832416340075866370000004052537919483497388_);" d="M181.5,101.1c-0.9-0.1-1.7-0.8-1.9-3.7
					c-0.1-2.9-0.6-6.5,2.4-6.3c2.8,0.2,1.6,5.8,1.4,6.6C183.3,98.5,182.7,101.1,181.5,101.1L181.5,101.1z"/>
				
					<linearGradient id="SVGID_00000158748285118405472770000001884087130313061787_" gradientUnits="userSpaceOnUse" x1="186.6889" y1="137.68" x2="186.979" y2="129.26" gradientTransform="matrix(1 0 0 -1 0 228)">
					<stop  offset="0.22" style="stop-color:#F7C3C1"/>
					<stop  offset="1" style="stop-color:#F3A396"/>
				</linearGradient>
				<path style="fill:url(#SVGID_00000158748285118405472770000001884087130313061787_);" d="M186.6,100.1c-0.9-0.1-1.7-0.8-1.9-3.7
					c-0.1-2.9-0.6-6.5,2.4-6.3c2.8,0.2,1.6,5.8,1.4,6.6C188.4,97.6,187.8,100.2,186.6,100.1L186.6,100.1z"/>
				
					<linearGradient id="SVGID_00000166650811529092378180000002424579651797363114_" gradientUnits="userSpaceOnUse" x1="191.4451" y1="137.8402" x2="191.7351" y2="129.4202" gradientTransform="matrix(1 0 0 -1 0 228)">
					<stop  offset="0.22" style="stop-color:#F7C3C1"/>
					<stop  offset="1" style="stop-color:#F3A396"/>
				</linearGradient>
				<path style="fill:url(#SVGID_00000166650811529092378180000002424579651797363114_);" d="M191.3,99.2c-0.9-0.1-1.7-0.8-1.9-3.7
					c-0.1-2.9-0.6-6.5,2.4-6.3c2.8,0.2,1.6,5.8,1.4,6.6S192.5,99.3,191.3,99.2L191.3,99.2z"/>
				
					<linearGradient id="SVGID_00000064328551215560659760000003172636981429287311_" gradientUnits="userSpaceOnUse" x1="196.2831" y1="138.0101" x2="196.573" y2="129.5901" gradientTransform="matrix(1 0 0 -1 0 228)">
					<stop  offset="0.22" style="stop-color:#F7C3C1"/>
					<stop  offset="1" style="stop-color:#F3A396"/>
				</linearGradient>
				<path style="fill:url(#SVGID_00000064328551215560659760000003172636981429287311_);" d="M195.8,98.4c-0.8-0.1-1.5-0.9-1.5-3.5
					s-0.2-6,2.6-5.7c2.6,0.3,1.1,5.4,0.9,6.2C197.7,96.1,197,98.5,195.8,98.4L195.8,98.4z"/>
				
					<linearGradient id="SVGID_00000082346471363506022990000015767673011938370478_" gradientUnits="userSpaceOnUse" x1="188.114" y1="102.8405" x2="187.284" y2="92.9605" gradientTransform="matrix(1 0 0 -1 0 228)">
					<stop  offset="0.23" style="stop-color:#ADDDF8"/>
					<stop  offset="0.75" style="stop-color:#89C6ED"/>
				</linearGradient>
				<path style="fill:url(#SVGID_00000082346471363506022990000015767673011938370478_);" d="M181.3,123.6
					c1.2,2.5,10.2,5.4,14.7,0.7c0,0-0.8,9.9-1.4,12.3c-0.5,2-14.7,1.1-15.1-3.4C179.4,131.1,181.1,124.9,181.3,123.6L181.3,123.6z"
					/>
				
					<linearGradient id="SVGID_00000061457710816663696290000009834481789551051402_" gradientUnits="userSpaceOnUse" x1="136.58" y1="71.9855" x2="196.33" y2="71.9855" gradientTransform="matrix(1 0 0 -1 0 228)">
					<stop  offset="5.000000e-02" style="stop-color:#1F2248"/>
					<stop  offset="0.7" style="stop-color:#243884"/>
				</linearGradient>
				<path style="fill:url(#SVGID_00000061457710816663696290000009834481789551051402_);" d="M179.1,127.7c0.3,1.7,7.6,7.2,17.2,2.5
					c-0.1,12.3-5.8,49.5-13.4,53.5c-6.5,3.4-36-9.8-42.9-16.1c-1.4-17-2-30.5-3.5-34.1c17.4,16.4,31.1,22.8,33.2,23.2
					C172.7,148.1,178.8,128.8,179.1,127.7L179.1,127.7z"/>
				
					<linearGradient id="SVGID_00000080909108957294816620000004439045721188810635_" gradientUnits="userSpaceOnUse" x1="122.6517" y1="135.4392" x2="95.5417" y2="76.0692" gradientTransform="matrix(1 0 0 -1 0 228)">
					<stop  offset="0.22" style="stop-color:#F7C3C1"/>
					<stop  offset="1" style="stop-color:#F3A396"/>
				</linearGradient>
				<path style="fill:url(#SVGID_00000080909108957294816620000004439045721188810635_);" d="M98,133.3c0,0,6.2-4.8,6.2-5.9
					c0-1.2-1.3-11.6-1.3-14.3s6.5-7.1,8.9-8.2s10.4-2.3,11-0.2c0,0-5.9,4.2-7.2,7c-1.3,2.8,1.9,9.2,2.1,12.6s-2,6.7-4,7.6
					c-2.1,1-6.6,8.8-6.6,8.8L98,133.3L98,133.3z"/>
				
					<linearGradient id="SVGID_00000124855345082249363980000011389275971691474605_" gradientUnits="userSpaceOnUse" x1="57.8182" y1="55.6201" x2="61.6482" y2="101.8601" gradientTransform="matrix(1 0 0 -1 0 228)">
					<stop  offset="5.000000e-02" style="stop-color:#1F2248"/>
					<stop  offset="0.7" style="stop-color:#243884"/>
				</linearGradient>
				<path style="fill:url(#SVGID_00000124855345082249363980000011389275971691474605_);" d="M42.3,193.4c0-4.1,12.6-47.3,15.4-50.4
					c3.6-4,16.1-4.7,15.1,15c-0.9,16.6-3.4,19.6-5.2,23.4C65.7,185.2,42.3,197.5,42.3,193.4L42.3,193.4z"/>
				
					<linearGradient id="SVGID_00000109744474389798533280000004284664113443561106_" gradientUnits="userSpaceOnUse" x1="111.6002" y1="97.8998" x2="91.8702" y2="78.4298" gradientTransform="matrix(1 0 0 -1 0 228)">
					<stop  offset="0.23" style="stop-color:#ADDDF8"/>
					<stop  offset="0.75" style="stop-color:#89C6ED"/>
				</linearGradient>
				<path style="fill:url(#SVGID_00000109744474389798533280000004284664113443561106_);" d="M105.1,149.2c4.4-4.2,7.3-7.2,7.3-7.2
					c-1.5-4.1-9.1-10.2-12.2-11.1c-2.3,1.3-4.9,3.9-9,6.6C96.8,140.9,100.9,144.4,105.1,149.2z"/>
				
					<linearGradient id="SVGID_00000005980189257720790390000008423909471483157675_" gradientUnits="userSpaceOnUse" x1="19.8083" y1="19.1923" x2="108.7383" y2="84.3023" gradientTransform="matrix(1 0 0 -1 0 228)">
					<stop  offset="5.000000e-02" style="stop-color:#1F2248"/>
					<stop  offset="0.7" style="stop-color:#243884"/>
				</linearGradient>
				<path style="fill:url(#SVGID_00000005980189257720790390000008423909471483157675_);" d="M92.6,136c3.7,1.2,13.3,8.3,15.1,13.2
					c0,0-48.8,65-63.2,51.4C30.6,188,78.8,148.2,92.6,136L92.6,136z"/>
				
					<linearGradient id="SVGID_00000029045122697337989810000008917711315204171678_" gradientUnits="userSpaceOnUse" x1="189.7399" y1="112.6" x2="190.8899" y2="127.31" gradientTransform="matrix(1 0 0 -1 0 228)">
					<stop  offset="0" style="stop-color:#F3A396;stop-opacity:0"/>
					<stop  offset="0.98" style="stop-color:#F3A396"/>
				</linearGradient>
				<path style="fill:url(#SVGID_00000029045122697337989810000008917711315204171678_);" d="M189,110.6c4.2,0.7,7.4,1.6,6.9,3.5
					c0.9-1.8,1.7-4,1.9-6.5l-12.3,0.9c-1,0.1-1.9-0.3-2.5-1h0C182.9,107.4,184.8,109.9,189,110.6z"/>
				
					<linearGradient id="SVGID_00000090296898248225941760000010264264939489582494_" gradientUnits="userSpaceOnUse" x1="167.8123" y1="64.1284" x2="163.3624" y2="85.5584" gradientTransform="matrix(1 0 0 -1 0 228)">
					<stop  offset="5.000000e-02" style="stop-color:#1F2248"/>
					<stop  offset="0.7" style="stop-color:#243884"/>
				</linearGradient>
				<path style="fill:url(#SVGID_00000090296898248225941760000010264264939489582494_);" d="M162,152.4
					C162,152.4,162,152.4,162,152.4c3.5,4.4,5.7,17.4,5.7,17.4c-0.4-3.7,2-13.1,2-13.1C168.9,156.6,166.1,155.1,162,152.4L162,152.4
					z"/>
			</g>
		</g>
	</g>
	<g>
		<g>
			<g>
				<polyline class="st43" points="96.7,27.4 110,43.3 123.3,27.4 				"/>
				<line class="st43" x1="110" y1="43.3" x2="110" y2="28.6"/>
			</g>
			<g>
				
					<linearGradient id="SVGID_00000057854331274279930350000004772391517364885401_" gradientUnits="userSpaceOnUse" x1="96.7" y1="204.855" x2="123.28" y2="204.855" gradientTransform="matrix(1 0 0 -1 0 228)">
					<stop  offset="0" style="stop-color:#79ACDB"/>
					<stop  offset="0.15" style="stop-color:#6FA7D8"/>
					<stop  offset="0.41" style="stop-color:#569BD2"/>
					<stop  offset="0.58" style="stop-color:#4191CD"/>
					<stop  offset="1" style="stop-color:#377DBD"/>
				</linearGradient>
				<path style="fill:url(#SVGID_00000057854331274279930350000004772391517364885401_);" d="M123.3,27.4c-1.6-0.6-3.5-1-5.6-1
					c-3.2,0-6,0.9-7.7,2.2c-1.7-1.3-4.5-2.2-7.7-2.2c-2.1,0-4,0.4-5.6,1c1.8-5.7,7.1-9.8,13.3-9.8S121.5,21.8,123.3,27.4L123.3,27.4
					z"/>
				
					<linearGradient id="SVGID_00000061468478569352948340000017924993069314089149_" gradientUnits="userSpaceOnUse" x1="102.97" y1="205.935" x2="116.6" y2="205.935" gradientTransform="matrix(1 0 0 -1 0 228)">
					<stop  offset="0" style="stop-color:#79ACDB"/>
					<stop  offset="0.15" style="stop-color:#6FA7D8"/>
					<stop  offset="0.41" style="stop-color:#569BD2"/>
					<stop  offset="0.58" style="stop-color:#4191CD"/>
					<stop  offset="1" style="stop-color:#377DBD"/>
				</linearGradient>
				<path style="fill:url(#SVGID_00000061468478569352948340000017924993069314089149_);" d="M103,26.4c0,0,2.4-8.8,7-8.8
					s6.6,8.8,6.6,8.8"/>
			</g>
		</g>
		<g>
			<polygon class="st46" points="112.4,61.4 93.5,65.6 93.5,46.7 112.4,42.5 			"/>
			<polygon class="st47" points="126.4,61.4 107.5,65.6 93.5,65.6 112.4,61.4 			"/>
			<rect x="112.4" y="42.5" class="st48" width="14" height="18.9"/>
		</g>
	</g>
	<g>
		<g>
			<g>
				<polyline class="st49" points="165.2,23.6 184,45.9 202.8,23.6 				"/>
				<line class="st49" x1="184" y1="45.9" x2="184" y2="25.2"/>
			</g>
			<g>
				
					<linearGradient id="SVGID_00000170272606139494183940000012014836248169336730_" gradientUnits="userSpaceOnUse" x1="165.25" y1="210.49" x2="202.77" y2="210.49" gradientTransform="matrix(1 0 0 -1 0 228)">
					<stop  offset="0" style="stop-color:#79ACDB"/>
					<stop  offset="0.15" style="stop-color:#6FA7D8"/>
					<stop  offset="0.41" style="stop-color:#569BD2"/>
					<stop  offset="0.58" style="stop-color:#4191CD"/>
					<stop  offset="1" style="stop-color:#377DBD"/>
				</linearGradient>
				<path style="fill:url(#SVGID_00000170272606139494183940000012014836248169336730_);" d="M202.8,23.6c-2.2-0.9-4.9-1.4-7.9-1.4
					c-4.5,0-8.4,1.2-10.9,3.1c-2.4-1.9-6.4-3.1-10.9-3.1c-3,0-5.7,0.5-7.9,1.4c2.5-8,9.9-13.8,18.8-13.8S200.3,15.6,202.8,23.6z"/>
				
					<linearGradient id="SVGID_00000099639376687636329320000016040190277528075688_" gradientUnits="userSpaceOnUse" x1="174.12" y1="212.015" x2="193.36" y2="212.015" gradientTransform="matrix(1 0 0 -1 0 228)">
					<stop  offset="0" style="stop-color:#79ACDB"/>
					<stop  offset="0.15" style="stop-color:#6FA7D8"/>
					<stop  offset="0.41" style="stop-color:#569BD2"/>
					<stop  offset="0.58" style="stop-color:#4191CD"/>
					<stop  offset="1" style="stop-color:#377DBD"/>
				</linearGradient>
				<path style="fill:url(#SVGID_00000099639376687636329320000016040190277528075688_);" d="M174.1,22.2c0,0,3.4-12.4,9.9-12.4
					s9.4,12.4,9.4,12.4"/>
			</g>
		</g>
		<g>
			<polygon class="st46" points="187.5,71.6 160.8,77.5 160.8,50.8 187.5,44.9 			"/>
			<polygon class="st47" points="207.2,71.6 180.6,77.5 160.8,77.5 187.5,71.6 			"/>
			<rect x="187.5" y="44.9" class="st48" width="19.8" height="26.7"/>
		</g>
	</g>
</g>
</svg>
