<?xml version="1.0" encoding="utf-8"?>
<!-- Generator: Adobe Illustrator 28.1.0, SVG Export Plug-In . SVG Version: 6.00 Build 0)  -->
<svg version="1.1" id="レイヤー_1" xmlns="http://www.w3.org/2000/svg" xmlns:xlink="http://www.w3.org/1999/xlink" x="0px"
	 y="0px" viewBox="0 0 270 230" style="enable-background:new 0 0 270 230;" xml:space="preserve">
<style type="text/css">
	.st0{opacity:0.6;}
	.st1{fill:#FFFFFF;}
	.st2{clip-path:url(#SVGID_00000025443136211395945660000003198728062675097230_);}
	.st3{fill:#EFEFEF;}
	.st4{fill:url(#SVGID_00000039839575011260578070000013506850325548631484_);}
	.st5{fill:#F2C849;}
	.st6{fill:#FFED29;}
	.st7{fill:url(#SVGID_00000052071018209836149080000009453538358281501828_);}
	.st8{fill:url(#SVGID_00000066515677294280483960000011465720965701134260_);}
	.st9{fill:#1E2020;}
	.st10{fill:url(#SVGID_00000139256057657688242270000017346054794803520653_);}
	.st11{fill:#F1B37B;}
	.st12{fill:url(#SVGID_00000175282970129323632080000013295310907019613325_);}
	.st13{fill:url(#SVGID_00000092442740046373147970000002565924989780994729_);}
	.st14{fill:url(#SVGID_00000031925503510146557770000001207230554033844627_);}
	.st15{opacity:0.45;fill:url(#SVGID_00000109739635188897722060000005403782135309910973_);enable-background:new    ;}
	.st16{fill:url(#SVGID_00000060002806697498984250000008429125974904641701_);}
	.st17{fill:url(#SVGID_00000121995106197820312650000004637854913952409238_);}
	.st18{fill:url(#SVGID_00000041269764175189087550000009058089920722798761_);}
	.st19{fill:url(#SVGID_00000169553583223534938340000013339418241044432792_);}
	.st20{fill:url(#SVGID_00000152963033778146849460000006903965009457918881_);}
</style>
<g class="st0">
	<path class="st1" d="M32.7,28.1c0,21.5-4.8,29.2-16.4,29.2S0,49.2,0,28.1C0,5.5,6.8,0,16.6,0C26.8,0,32.7,6.2,32.7,28.1z
		 M10.2,27.8c0,14,0.6,21.2,6.2,21.2s6.1-6.9,6.1-21S21.7,8.5,16.4,8.5C11.4,8.5,10.2,14,10.2,27.8z"/>
	<path class="st1" d="M43.5,56.6V12.3c-1.4,0.2-4.5,0.2-6.1,0.1V4.7c4-0.5,7.8-2.4,9.5-4.2h6.7v56.2L43.5,56.6L43.5,56.6z"/>
</g>
<g>
	<g>
		<defs>
			<path id="SVGID_1_" d="M219.6,23.7C114.7,9,43,33,43,33s-12.2,59-12.2,92.8C30.8,183.3,77.4,230,135,230s104.2-46.6,104.2-104.2
				C239.1,71.7,226.2,27.2,219.6,23.7L219.6,23.7z"/>
		</defs>
		<clipPath id="SVGID_00000070809943864367354770000016859316532681521298_">
			<use xlink:href="#SVGID_1_"  style="overflow:visible;"/>
		</clipPath>
		<g style="clip-path:url(#SVGID_00000070809943864367354770000016859316532681521298_);">
			<circle class="st1" cx="134.8" cy="125.9" r="104.2"/>
			<g>
				<path class="st3" d="M187.8,134.6c-2.2-2.2-5.7-2.2-7.9,0l-3.5,3.5c-2.1,2.1-2.2,5.5-0.2,7.7c0.4,0.4,1,0.4,1.4,0.1
					c0.4-0.4,0.4-1,0.1-1.4l0,0c-1.3-1.4-1.2-3.6,0.1-4.9l3.5-3.5c1.4-1.4,3.7-1.4,5.1,0c1.4,1.4,1.4,3.6,0,5l-3,3
					c-0.4,0.4-0.4,1,0,1.4s1,0.4,1.4,0l3-3C190,140.3,190,136.8,187.8,134.6L187.8,134.6z"/>
				<path class="st3" d="M180.4,142.4c2,2.2,1.9,5.6-0.2,7.7l-3.5,3.5c-2.2,2.2-5.7,2.1-7.9-0.1c-2.1-2.2-2.1-5.7,0-7.8l3-3
					c0.4-0.4,1-0.4,1.4,0s0.4,1,0,1.4l-3,3c-1.4,1.4-1.3,3.7,0.1,5.1c1.4,1.3,3.6,1.3,5,0l3.5-3.5c1.3-1.4,1.4-3.5,0.1-4.9
					c-0.4-0.4-0.3-1,0.1-1.4C179.4,141.9,180,142,180.4,142.4L180.4,142.4L180.4,142.4z"/>
			</g>
			<g>
				<path class="st3" d="M78.2,59c-2.2-2.2-5.7-2.2-7.9,0l-3.5,3.5c-2.1,2.1-2.2,5.5-0.2,7.7c0.4,0.4,1,0.4,1.4,0.1
					c0.4-0.4,0.5-1,0.1-1.4l0,0c-1.3-1.4-1.2-3.6,0.1-4.9l3.5-3.5c1.4-1.4,3.7-1.4,5.1,0s1.4,3.6,0,5l-3,3c-0.4,0.4-0.4,1,0,1.4
					s1,0.4,1.4,0l3-3C80.4,64.7,80.4,61.1,78.2,59L78.2,59z"/>
				<path class="st3" d="M70.8,66.8c2,2.2,1.9,5.6-0.2,7.7L67.1,78c-2.2,2.2-5.7,2.1-7.9-0.1c-2.2-2.2-2.2-5.7,0-7.8l3-3
					c0.4-0.4,1-0.4,1.4,0s0.4,1,0,1.4l-3,3c-1.4,1.4-1.3,3.7,0.1,5.1c1.4,1.3,3.6,1.3,5,0l3.5-3.5c1.3-1.3,1.4-3.5,0.1-4.9
					c-0.4-0.4-0.3-1,0.1-1.4C69.8,66.3,70.4,66.3,70.8,66.8L70.8,66.8L70.8,66.8z"/>
			</g>
			<path class="st3" d="M73.7,131.3h-2.3v-3.4h-3.8v-1.8h2.1c0.7,0,1.2-0.5,1.2-1.2v-5.2c0-0.7-0.5-1.2-1.2-1.2h-2.1v-3h-7.8v-2.3
				H66c0.6,0,1.1-0.5,1.1-1.1v-6.2c0-0.6-0.5-1.1-1.1-1.1H52.6c-0.6,0-1.1,0.5-1.1,1.1v6.2c0,0.6,0.5,1.1,1.1,1.1h6.2v2.2H51v3h-2.1
				c-0.7,0-1.2,0.5-1.2,1.2v5.2c0,0.7,0.5,1.2,1.2,1.2H51v1.8h-3.8v3.4h-2.3c-0.5,0-1,0.4-1,1v3.2c0,0.5,0.4,1,1,1h5.6
				c0.5,0,1-0.4,1-1v-3.2c0-0.5-0.4-1-1-1h-2.3v-2.4h10.6v2.4h-2.3c-0.5,0-1,0.4-1,1v3.2c0,0.5,0.4,1,1,1h5.6c0.5,0,1-0.4,1-1v-3.2
				c0-0.5-0.4-1-1-1h-2.3v-2.4h10.6v2.4h-2.3c-0.5,0-1,0.4-1,1v3.2c0,0.5,0.4,1,1,1h5.6c0.5,0,1-0.4,1-1v-3.2
				C74.7,131.7,74.3,131.3,73.7,131.3L73.7,131.3z M52,127.9v-1.8h2.1c0.7,0,1.2-0.5,1.2-1.2v-5.2c0-0.7-0.5-1.2-1.2-1.2H52v-2.1
				h14.6v2.1h-2.1c-0.7,0-1.2,0.5-1.2,1.2v5.2c0,0.7,0.5,1.2,1.2,1.2h2.1v1.8H52z"/>
			<path class="st3" d="M208.2,200h-2.4v-3.4H202v-1.9h2.1c0.6,0,1.2-0.5,1.2-1.2v-5.2c0-0.6-0.5-1.2-1.2-1.2H202v-3h-7.8v-2.2h6.2
				c0.6,0,1.1-0.5,1.1-1.1v-6.2c0-0.6-0.5-1.1-1.1-1.1H187c-0.6,0-1.1,0.5-1.1,1.1v6.2c0,0.6,0.5,1.1,1.1,1.1h6.2v2.2h-7.8v3h-2.1
				c-0.6,0-1.2,0.5-1.2,1.2v5.2c0,0.6,0.5,1.2,1.2,1.2h2.1v1.9h-3.8v3.4h-2.4c-0.5,0-1,0.4-1,1v3.2c0,0.5,0.4,1,1,1h5.6
				c0.5,0,1-0.4,1-1V201c0-0.5-0.4-1-1-1h-2.4v-2.4h11v2.4H191c-0.5,0-1,0.4-1,1v3.2c0,0.5,0.4,1,1,1h5.6c0.5,0,1-0.4,1-1V201
				c0-0.5-0.4-1-1-1h-2.4v-2.4h10.6v2.4h-2.4c-0.5,0-1,0.4-1,1v3.2c0,0.5,0.4,1,1,1h5.6c0.5,0,1-0.4,1-1V201
				C209.2,200.5,208.8,200,208.2,200L208.2,200z M186.5,196.7v-1.9h2.1c0.6,0,1.2-0.5,1.2-1.2v-5.2c0-0.6-0.5-1.2-1.2-1.2h-2.1v-2
				h14.6v2.1H199c-0.6,0-1.2,0.5-1.2,1.2v5.2c0,0.6,0.5,1.2,1.2,1.2h2.1v1.9L186.5,196.7L186.5,196.7z"/>
			<path class="st3" d="M116.6,43.4c0,1-4.8,1.7-10.6,1.7s-10.6-0.8-10.6-1.7s4.8-1.7,10.6-1.7S116.6,42.5,116.6,43.4z M116.6,45.3
				v5.6c0,1-4.8,1.7-10.6,1.7s-10.6-0.8-10.6-1.7v-5.6c0,1,4.8,1.7,10.6,1.7S116.6,46.3,116.6,45.3z M115,49.4
				c0-0.5-0.4-0.8-0.8-0.8s-0.8,0.4-0.8,0.8s0.4,0.8,0.8,0.8S115,49.8,115,49.4z M116.6,52.8v5.6c0,1-4.8,1.7-10.6,1.7
				s-10.6-0.8-10.6-1.7v-5.6c0,1,4.8,1.7,10.6,1.7S116.6,53.8,116.6,52.8z M115,56.9c0-0.5-0.4-0.8-0.8-0.8s-0.8,0.4-0.8,0.8
				s0.4,0.8,0.8,0.8S115,57.4,115,56.9z M116.6,60.4V66c0,1-4.8,1.7-10.6,1.7S95.4,66.9,95.4,66v-5.6c0,1,4.8,1.7,10.6,1.7
				S116.6,61.3,116.6,60.4z M115,64.4c0-0.5-0.4-0.8-0.8-0.8s-0.8,0.4-0.8,0.8c0,0.4,0.4,0.8,0.8,0.8S115,64.9,115,64.4z"/>
			<path class="st3" d="M232.9,115.7c0,0.9-4.8,1.7-10.6,1.7s-10.6-0.8-10.6-1.7s4.8-1.7,10.6-1.7S232.9,114.7,232.9,115.7z
				 M232.9,117.6v5.6c0,0.9-4.8,1.7-10.6,1.7s-10.6-0.8-10.6-1.7v-5.6c0,0.9,4.8,1.7,10.6,1.7S232.9,118.6,232.9,117.6z
				 M231.3,121.7c0-0.5-0.4-0.8-0.8-0.8s-0.8,0.4-0.8,0.8s0.4,0.8,0.8,0.8S231.3,122.1,231.3,121.7z M232.9,125.1v5.6
				c0,0.9-4.8,1.7-10.6,1.7s-10.6-0.8-10.6-1.7v-5.6c0,0.9,4.8,1.7,10.6,1.7S232.9,126.1,232.9,125.1z M231.3,129.2
				c0-0.5-0.4-0.8-0.8-0.8s-0.8,0.4-0.8,0.8s0.4,0.8,0.8,0.8S231.3,129.6,231.3,129.2z M232.9,132.6v5.6c0,0.9-4.8,1.7-10.6,1.7
				s-10.6-0.8-10.6-1.7v-5.6c0,0.9,4.8,1.7,10.6,1.7S232.9,133.6,232.9,132.6z M231.3,136.7c0-0.5-0.4-0.8-0.8-0.8s-0.8,0.4-0.8,0.8
				s0.4,0.8,0.8,0.8S231.3,137.1,231.3,136.7z"/>
			<path class="st3" d="M171.2,70.3l1.5,0.3c0.1,0.2,0.1,0.5,0.2,0.7l-1.2,1c-0.3,0.2-0.3,0.6-0.2,0.9l1.1,1.9
				c0.2,0.3,0.6,0.4,0.9,0.3l1.4-0.5c0.2,0.2,0.3,0.3,0.5,0.5l-0.5,1.4c-0.1,0.3,0,0.7,0.3,0.9l1.9,1.1c0.3,0.2,0.7,0.1,0.9-0.2
				l1-1.2c0.2,0.1,0.4,0.1,0.7,0.2l0.3,1.5c0.1,0.3,0.4,0.6,0.7,0.6h2.2c0.4,0,0.6-0.2,0.7-0.6l0.3-1.5c0.2-0.1,0.5-0.1,0.7-0.2
				l1,1.2c0.2,0.3,0.6,0.3,0.9,0.2l1.9-1.1c0.3-0.2,0.4-0.6,0.3-0.9l-0.5-1.4c0.2-0.2,0.3-0.3,0.5-0.5l1.4,0.5
				c0.3,0.1,0.7,0,0.9-0.3l1.1-1.9c0.2-0.3,0.1-0.7-0.2-0.9l-1.2-1c0.1-0.2,0.1-0.4,0.2-0.7l1.5-0.3c0.4-0.1,0.6-0.4,0.6-0.7v-2.2
				c0-0.3-0.2-0.7-0.6-0.7l-1.5-0.3c-0.1-0.2-0.1-0.5-0.2-0.7l1.2-1c0.3-0.2,0.3-0.6,0.2-0.9l-1.1-1.9c-0.2-0.3-0.6-0.4-0.9-0.3
				l-1.4,0.5c-0.2-0.2-0.3-0.3-0.5-0.5l0.5-1.5c0.1-0.3,0-0.7-0.3-0.9l-1.9-1.1c-0.3-0.2-0.7-0.1-0.9,0.2l-1,1.2
				c-0.2-0.1-0.4-0.1-0.7-0.2l-0.3-1.5c-0.1-0.3-0.4-0.6-0.7-0.6h-2.2c-0.4,0-0.6,0.2-0.7,0.6l-0.3,1.5c-0.2,0-0.5,0.1-0.7,0.2
				l-1-1.2c-0.2-0.3-0.6-0.3-0.9-0.2l-1.9,1.1c-0.3,0.2-0.4,0.5-0.3,0.9l0.5,1.5c-0.2,0.2-0.3,0.3-0.5,0.5l-1.4-0.5
				c-0.3-0.1-0.7,0-0.9,0.3l-1.1,1.9c-0.2,0.3-0.1,0.7,0.2,0.9l1.2,1c-0.1,0.2-0.1,0.5-0.2,0.7l-1.5,0.3c-0.4,0.1-0.6,0.4-0.6,0.7
				v2.2C170.6,69.9,170.8,70.2,171.2,70.3z M175.5,68.5c0-3.5,2.9-6.4,6.4-6.4s6.4,2.9,6.4,6.4s-2.9,6.4-6.4,6.4
				S175.5,72,175.5,68.5z"/>
			<path class="st3" d="M75.3,194.8l1.5,0.3c0.1,0.2,0.1,0.5,0.2,0.7l-1.2,1c-0.3,0.2-0.3,0.6-0.2,0.9l1.1,1.9
				c0.2,0.3,0.6,0.4,0.9,0.3l1.4-0.5c0.2,0.2,0.3,0.3,0.5,0.5l-0.5,1.4c-0.1,0.3,0,0.7,0.3,0.9l1.9,1.1c0.3,0.2,0.7,0.1,0.9-0.2
				l1-1.2c0.2,0.1,0.4,0.1,0.7,0.2l0.3,1.5c0.1,0.4,0.4,0.6,0.7,0.6H87c0.3,0,0.7-0.2,0.7-0.6l0.3-1.5c0.2-0.1,0.5-0.1,0.7-0.2
				l1,1.2c0.2,0.3,0.6,0.3,0.9,0.2l1.9-1.1c0.3-0.2,0.4-0.6,0.3-0.9l-0.5-1.4c0.2-0.2,0.3-0.3,0.5-0.5l1.4,0.5
				c0.3,0.1,0.7,0,0.9-0.3l1.1-1.9c0.2-0.3,0.1-0.7-0.2-0.9l-1.2-1c0.1-0.2,0.1-0.4,0.2-0.7l1.5-0.3c0.3-0.1,0.6-0.4,0.6-0.7v-2.2
				c0-0.4-0.2-0.6-0.6-0.7l-1.5-0.3c-0.1-0.2-0.1-0.5-0.2-0.7l1.2-1c0.3-0.2,0.3-0.6,0.2-0.9l-1.1-1.9c-0.2-0.3-0.6-0.4-0.9-0.3
				l-1.4,0.5c-0.2-0.2-0.3-0.3-0.5-0.5l0.5-1.4c0.1-0.3,0-0.7-0.3-0.9l-1.9-1.1c-0.3-0.2-0.7-0.1-0.9,0.2l-1,1.2
				c-0.2-0.1-0.4-0.1-0.7-0.2l-0.3-1.5c-0.1-0.4-0.4-0.6-0.7-0.6h-2.2c-0.3,0-0.7,0.2-0.7,0.6l-0.3,1.5c-0.2,0.1-0.5,0.1-0.7,0.2
				l-1-1.2c-0.2-0.3-0.6-0.3-0.9-0.2l-1.9,1.1c-0.3,0.2-0.4,0.6-0.3,0.9l0.5,1.4c-0.2,0.2-0.3,0.3-0.5,0.5l-1.4-0.5
				c-0.3-0.1-0.7,0-0.9,0.3l-1.1,1.9c-0.2,0.3-0.1,0.7,0.2,0.9l1.2,1c-0.1,0.2-0.1,0.4-0.2,0.7l-1.5,0.3c-0.3,0.1-0.6,0.4-0.6,0.7
				v2.2C74.7,194.4,75,194.7,75.3,194.8z M79.6,192.9c0-3.5,2.9-6.4,6.4-6.4s6.4,2.9,6.4,6.4s-2.9,6.4-6.4,6.4
				S79.6,196.5,79.6,192.9z"/>
			<g>
				
					<linearGradient id="SVGID_00000021808402140002333790000013058474732842817438_" gradientUnits="userSpaceOnUse" x1="-279.7846" y1="1113.401" x2="-62.3292" y2="1113.401" gradientTransform="matrix(0.9469 -0.3216 0.3216 0.9469 -64.446 -1002.1913)">
					<stop  offset="0" style="stop-color:#75C7B6"/>
					<stop  offset="1" style="stop-color:#92CEDC"/>
				</linearGradient>
				<path style="fill:url(#SVGID_00000021808402140002333790000013058474732842817438_);" d="M44.5,188.6
					c70.2-36.7,115.7-77.4,144.3-128.1l2.7-4.9l-9.9-5.4l37.2-24.6l-0.6,44.6l-9.8-5.3l-2.7,4.7C177.7,118.5,117.6,162.8,44.5,188.6
					L44.5,188.6z"/>
				<g>
					<g>
						<path class="st5" d="M152.4,224.3c0-5.1-11.2-9.2-25-9.2s-25,4.1-25,9.2v7.4c0,5.1,11.2,9.2,25,9.2s25-4.1,25-9.2V224.3z"/>
						<path class="st5" d="M152.4,224.3c0-5.1-11.2-9.2-25-9.2s-25,4.1-25,9.2v7.4c0,5.1,11.2,9.2,25,9.2s25-4.1,25-9.2V224.3z"/>
						<path class="st5" d="M152.4,224.3c0-5.1-11.2-9.2-25-9.2s-25,4.1-25,9.2s11.2,9.2,25,9.2S152.4,229.4,152.4,224.3z"/>
						<path class="st6" d="M127.4,217.5c-14.6,0-22.5,4.5-22.5,6.8s8,6.8,22.6,6.8s22.6-4.5,22.6-6.8S142,217.5,127.4,217.5z
							 M127.4,228.6c-11.5,0-17.9-2.9-19.7-4.3c1.8-1.4,8.2-4.3,19.7-4.3s17.9,2.9,19.7,4.3C145.3,225.7,138.9,228.6,127.4,228.6z"
							/>
					</g>
					<g>
						<path class="st5" d="M154.9,213.8c0-5.1-11.2-9.2-25-9.2s-25,4.1-25,9.2v7.4c0,5.1,11.2,9.2,25,9.2s25-4.1,25-9.2V213.8z"/>
						<path class="st5" d="M154.9,213.8c0-5.1-11.2-9.2-25-9.2s-25,4.1-25,9.2v7.4c0,5.1,11.2,9.2,25,9.2s25-4.1,25-9.2V213.8z"/>
						<path class="st5" d="M154.9,213.8c0-5.1-11.2-9.2-25-9.2s-25,4.1-25,9.2s11.2,9.2,25,9.2S154.9,218.9,154.9,213.8z"/>
						<path class="st6" d="M129.9,207c-14.6,0-22.5,4.5-22.5,6.8s8,6.8,22.6,6.8c14.6,0,22.6-4.5,22.6-6.8S144.5,207,129.9,207z
							 M129.9,218.1c-11.5,0-17.9-2.9-19.7-4.3c1.8-1.4,8.2-4.3,19.7-4.3s17.9,2.9,19.7,4.3C147.8,215.2,141.4,218.1,129.9,218.1z"
							/>
					</g>
					<g>
						<path class="st5" d="M157.4,203.3c0-5.1-11.2-9.2-25-9.2s-25,4.1-25,9.2v7.4c0,5.1,11.2,9.2,25,9.2s25-4.1,25-9.2V203.3z"/>
						<path class="st5" d="M157.4,203.3c0-5.1-11.2-9.2-25-9.2s-25,4.1-25,9.2v7.4c0,5.1,11.2,9.2,25,9.2s25-4.1,25-9.2V203.3z"/>
						<path class="st5" d="M157.4,203.3c0-5.1-11.2-9.2-25-9.2s-25,4.1-25,9.2s11.2,9.2,25,9.2S157.4,208.4,157.4,203.3z"/>
						<path class="st6" d="M132.3,196.5c-14.6,0-22.6,4.5-22.6,6.8s8,6.8,22.6,6.8c14.6,0,22.6-4.5,22.6-6.8
							S146.9,196.5,132.3,196.5z M132.3,207.6c-11.5,0-17.9-2.9-19.7-4.3c1.8-1.4,8.2-4.3,19.7-4.3s17.9,2.9,19.7,4.3
							C150.2,204.7,143.9,207.6,132.3,207.6z"/>
					</g>
					<g>
						<path class="st5" d="M154.9,192.8c0-5.1-11.2-9.2-25-9.2s-25,4.1-25,9.2v7.4c0,5.1,11.2,9.2,25,9.2s25-4.1,25-9.2V192.8z"/>
						<path class="st5" d="M154.9,192.8c0-5.1-11.2-9.2-25-9.2s-25,4.1-25,9.2v7.4c0,5.1,11.2,9.2,25,9.2s25-4.1,25-9.2V192.8z"/>
						<path class="st5" d="M154.9,192.8c0-5.1-11.2-9.2-25-9.2s-25,4.1-25,9.2s11.2,9.2,25,9.2S154.9,197.9,154.9,192.8z"/>
						<path class="st6" d="M129.9,186.1c-14.6,0-22.5,4.5-22.5,6.8s8,6.8,22.6,6.8c14.6,0,22.6-4.5,22.6-6.8
							S144.5,186.1,129.9,186.1z M129.9,197.1c-11.5,0-17.9-2.9-19.7-4.3c1.8-1.4,8.2-4.3,19.7-4.3s17.9,2.9,19.7,4.3
							C147.8,194.3,141.4,197.1,129.9,197.1z"/>
					</g>
					<g>
						<path class="st5" d="M147.5,182.4c0-5.1-11.2-9.2-25-9.2s-25,4.1-25,9.2v7.4c0,5.1,11.2,9.2,25,9.2s25-4.1,25-9.2V182.4z"/>
						<path class="st5" d="M147.5,182.4c0-5.1-11.2-9.2-25-9.2s-25,4.1-25,9.2v7.4c0,5.1,11.2,9.2,25,9.2s25-4.1,25-9.2V182.4z"/>
						<path class="st5" d="M147.5,182.4c0-5.1-11.2-9.2-25-9.2s-25,4.1-25,9.2s11.2,9.2,25,9.2S147.5,187.5,147.5,182.4z"/>
						<path class="st6" d="M122.5,175.6c-14.6,0-22.6,4.5-22.6,6.8s8,6.8,22.6,6.8s22.6-4.5,22.6-6.8S137.1,175.6,122.5,175.6z
							 M122.5,186.7c-11.5,0-17.9-2.9-19.7-4.3c1.8-1.4,8.2-4.3,19.7-4.3s17.9,2.9,19.7,4.3C140.4,183.8,134,186.7,122.5,186.7z"/>
					</g>
					<g>
						<path class="st5" d="M157.4,171.9c0-5.1-11.2-9.2-25-9.2s-25,4.1-25,9.2v7.4c0,5.1,11.2,9.2,25,9.2s25-4.1,25-9.2V171.9z"/>
						<path class="st5" d="M157.4,171.9c0-5.1-11.2-9.2-25-9.2s-25,4.1-25,9.2v7.4c0,5.1,11.2,9.2,25,9.2s25-4.1,25-9.2V171.9z"/>
						<path class="st5" d="M157.4,171.9c0-5.1-11.2-9.2-25-9.2s-25,4.1-25,9.2s11.2,9.2,25,9.2S157.4,177,157.4,171.9z"/>
						<path class="st6" d="M132.3,165.1c-14.6,0-22.6,4.5-22.6,6.8s8,6.8,22.6,6.8c14.6,0,22.6-4.5,22.6-6.8
							S146.9,165.1,132.3,165.1z M132.3,176.2c-11.5,0-17.9-2.9-19.7-4.3c1.8-1.4,8.2-4.3,19.7-4.3s17.9,2.9,19.7,4.3
							C150.2,173.3,143.9,176.2,132.3,176.2z"/>
					</g>
				</g>
				<g>
					<g>
						<path class="st5" d="M218.6,224.3c0-5.1-11.2-9.2-25-9.2s-25,4.1-25,9.2v7.4c0,5.1,11.2,9.2,25,9.2s25-4.1,25-9.2V224.3z"/>
						<path class="st5" d="M218.6,224.3c0-5.1-11.2-9.2-25-9.2s-25,4.1-25,9.2v7.4c0,5.1,11.2,9.2,25,9.2s25-4.1,25-9.2V224.3z"/>
						<path class="st5" d="M218.6,224.3c0-5.1-11.2-9.2-25-9.2s-25,4.1-25,9.2s11.2,9.2,25,9.2S218.6,229.4,218.6,224.3z"/>
						<path class="st6" d="M193.6,217.5c-14.6,0-22.6,4.5-22.6,6.8s8,6.8,22.6,6.8s22.6-4.5,22.6-6.8S208.2,217.5,193.6,217.5z
							 M193.6,228.6c-11.5,0-17.9-2.9-19.7-4.3c1.8-1.4,8.2-4.3,19.7-4.3s17.9,2.9,19.7,4.3C211.5,225.7,205.1,228.6,193.6,228.6z"
							/>
					</g>
					<g>
						<path class="st5" d="M221.1,213.8c0-5.1-11.2-9.2-25-9.2s-25,4.1-25,9.2v7.4c0,5.1,11.2,9.2,25,9.2s25-4.1,25-9.2V213.8z"/>
						<path class="st5" d="M221.1,213.8c0-5.1-11.2-9.2-25-9.2s-25,4.1-25,9.2v7.4c0,5.1,11.2,9.2,25,9.2s25-4.1,25-9.2V213.8z"/>
						<path class="st5" d="M221.1,213.8c0-5.1-11.2-9.2-25-9.2s-25,4.1-25,9.2s11.2,9.2,25,9.2S221.1,218.9,221.1,213.8z"/>
						<path class="st6" d="M196,207c-14.6,0-22.6,4.5-22.6,6.8s8,6.8,22.6,6.8s22.6-4.5,22.6-6.8S210.6,207,196,207z M196,218.1
							c-11.5,0-17.9-2.9-19.7-4.3c1.8-1.4,8.2-4.3,19.7-4.3s17.9,2.9,19.7,4.3C213.9,215.2,207.6,218.1,196,218.1z"/>
					</g>
					<g>
						<path class="st5" d="M223.5,203.3c0-5.1-11.2-9.2-25-9.2s-25,4.1-25,9.2v7.4c0,5.1,11.2,9.2,25,9.2s25-4.1,25-9.2V203.3z"/>
						<path class="st5" d="M223.5,203.3c0-5.1-11.2-9.2-25-9.2s-25,4.1-25,9.2v7.4c0,5.1,11.2,9.2,25,9.2s25-4.1,25-9.2V203.3z"/>
						<path class="st5" d="M223.5,203.3c0-5.1-11.2-9.2-25-9.2s-25,4.1-25,9.2s11.2,9.2,25,9.2S223.5,208.4,223.5,203.3z"/>
						<path class="st6" d="M198.5,196.5c-14.6,0-22.6,4.5-22.6,6.8s8,6.8,22.6,6.8s22.6-4.5,22.6-6.8S213.1,196.5,198.5,196.5z
							 M198.5,207.6c-11.5,0-17.9-2.9-19.7-4.3c1.8-1.4,8.2-4.3,19.7-4.3s17.9,2.9,19.7,4.3C216.4,204.7,210,207.6,198.5,207.6z"/>
					</g>
					<g>
						<path class="st5" d="M221.1,192.8c0-5.1-11.2-9.2-25-9.2s-25,4.1-25,9.2v7.4c0,5.1,11.2,9.2,25,9.2s25-4.1,25-9.2V192.8z"/>
						<path class="st5" d="M221.1,192.8c0-5.1-11.2-9.2-25-9.2s-25,4.1-25,9.2v7.4c0,5.1,11.2,9.2,25,9.2s25-4.1,25-9.2V192.8z"/>
						<path class="st5" d="M221.1,192.8c0-5.1-11.2-9.2-25-9.2s-25,4.1-25,9.2s11.2,9.2,25,9.2S221.1,197.9,221.1,192.8z"/>
						<path class="st6" d="M196,186.1c-14.6,0-22.6,4.5-22.6,6.8s8,6.8,22.6,6.8s22.6-4.5,22.6-6.8S210.6,186.1,196,186.1z
							 M196,197.1c-11.5,0-17.9-2.9-19.7-4.3c1.8-1.4,8.2-4.3,19.7-4.3s17.9,2.9,19.7,4.3C213.9,194.3,207.6,197.1,196,197.1z"/>
					</g>
					<g>
						<path class="st5" d="M213.7,182.4c0-5.1-11.2-9.2-25-9.2s-25,4.1-25,9.2v7.4c0,5.1,11.2,9.2,25,9.2s25-4.1,25-9.2V182.4z"/>
						<path class="st5" d="M213.7,182.4c0-5.1-11.2-9.2-25-9.2s-25,4.1-25,9.2v7.4c0,5.1,11.2,9.2,25,9.2s25-4.1,25-9.2V182.4z"/>
						<path class="st5" d="M213.7,182.4c0-5.1-11.2-9.2-25-9.2s-25,4.1-25,9.2s11.2,9.2,25,9.2S213.7,187.5,213.7,182.4z"/>
						<path class="st6" d="M188.7,175.6c-14.6,0-22.6,4.5-22.6,6.8s8,6.8,22.6,6.8s22.6-4.5,22.6-6.8S203.3,175.6,188.7,175.6z
							 M188.7,186.7c-11.5,0-17.9-2.9-19.7-4.3c1.8-1.4,8.2-4.3,19.7-4.3s17.9,2.9,19.7,4.3C206.5,183.8,200.2,186.7,188.7,186.7z"
							/>
					</g>
					<g>
						<path class="st5" d="M223.5,171.9c0-5.1-11.2-9.2-25-9.2s-25,4.1-25,9.2v7.4c0,5.1,11.2,9.2,25,9.2s25-4.1,25-9.2V171.9z"/>
						<path class="st5" d="M223.5,171.9c0-5.1-11.2-9.2-25-9.2s-25,4.1-25,9.2v7.4c0,5.1,11.2,9.2,25,9.2s25-4.1,25-9.2V171.9z"/>
						<path class="st5" d="M223.5,171.9c0-5.1-11.2-9.2-25-9.2s-25,4.1-25,9.2s11.2,9.2,25,9.2S223.5,177,223.5,171.9z"/>
						<path class="st6" d="M198.5,165.1c-14.6,0-22.6,4.5-22.6,6.8s8,6.8,22.6,6.8s22.6-4.5,22.6-6.8S213.1,165.1,198.5,165.1z
							 M198.5,176.2c-11.5,0-17.9-2.9-19.7-4.3c1.8-1.4,8.2-4.3,19.7-4.3s17.9,2.9,19.7,4.3C216.4,173.3,210,176.2,198.5,176.2z"/>
					</g>
				</g>
				<g>
					<g>
						<path class="st5" d="M218.6,156.6c0-5.1-11.2-9.2-25-9.2s-25,4.1-25,9.2v7.4c0,5.1,11.2,9.2,25,9.2s25-4.1,25-9.2V156.6z"/>
						<path class="st5" d="M218.6,156.6c0-5.1-11.2-9.2-25-9.2s-25,4.1-25,9.2v7.4c0,5.1,11.2,9.2,25,9.2s25-4.1,25-9.2V156.6z"/>
						<path class="st5" d="M218.6,156.6c0-5.1-11.2-9.2-25-9.2s-25,4.1-25,9.2s11.2,9.2,25,9.2S218.6,161.7,218.6,156.6z"/>
						<path class="st6" d="M193.6,149.8c-14.6,0-22.6,4.5-22.6,6.8s8,6.8,22.6,6.8s22.6-4.5,22.6-6.8S208.2,149.8,193.6,149.8z
							 M193.6,160.9c-11.5,0-17.9-2.9-19.7-4.3c1.8-1.4,8.2-4.3,19.7-4.3s17.9,2.9,19.7,4.3C211.5,158,205.1,160.9,193.6,160.9z"/>
					</g>
					<g>
						<path class="st5" d="M221.1,146.1c0-5.1-11.2-9.2-25-9.2s-25,4.1-25,9.2v7.4c0,5.1,11.2,9.2,25,9.2s25-4.1,25-9.2V146.1z"/>
						<path class="st5" d="M221.1,146.1c0-5.1-11.2-9.2-25-9.2s-25,4.1-25,9.2v7.4c0,5.1,11.2,9.2,25,9.2s25-4.1,25-9.2V146.1z"/>
						<path class="st5" d="M221.1,146.1c0-5.1-11.2-9.2-25-9.2s-25,4.1-25,9.2s11.2,9.2,25,9.2S221.1,151.2,221.1,146.1z"/>
						<path class="st6" d="M196,139.3c-14.6,0-22.6,4.5-22.6,6.8s8,6.8,22.6,6.8s22.6-4.5,22.6-6.8S210.6,139.3,196,139.3z
							 M196,150.4c-11.5,0-17.9-2.9-19.7-4.3c1.8-1.4,8.2-4.3,19.7-4.3s17.9,2.9,19.7,4.3C213.9,147.5,207.6,150.4,196,150.4z"/>
					</g>
					<g>
						<path class="st5" d="M223.5,135.6c0-5.1-11.2-9.2-25-9.2s-25,4.1-25,9.2v7.4c0,5.1,11.2,9.2,25,9.2s25-4.1,25-9.2V135.6z"/>
						<path class="st5" d="M223.5,135.6c0-5.1-11.2-9.2-25-9.2s-25,4.1-25,9.2v7.4c0,5.1,11.2,9.2,25,9.2s25-4.1,25-9.2V135.6z"/>
						<path class="st5" d="M223.5,135.6c0-5.1-11.2-9.2-25-9.2s-25,4.1-25,9.2c0,5.1,11.2,9.2,25,9.2S223.5,140.7,223.5,135.6z"/>
						<path class="st6" d="M198.5,128.9c-14.6,0-22.6,4.5-22.6,6.8s8,6.8,22.6,6.8s22.6-4.5,22.6-6.8S213.1,128.9,198.5,128.9z
							 M198.5,140c-11.5,0-17.9-2.9-19.7-4.3c1.8-1.4,8.2-4.3,19.7-4.3s17.9,2.9,19.7,4.3C216.4,137.1,210,140,198.5,140z"/>
					</g>
					<g>
						<path class="st5" d="M221.1,125.2c0-5.1-11.2-9.2-25-9.2s-25,4.1-25,9.2v7.4c0,5.1,11.2,9.2,25,9.2s25-4.1,25-9.2V125.2z"/>
						<path class="st5" d="M221.1,125.2c0-5.1-11.2-9.2-25-9.2s-25,4.1-25,9.2v7.4c0,5.1,11.2,9.2,25,9.2s25-4.1,25-9.2V125.2z"/>
						<path class="st5" d="M221.1,125.2c0-5.1-11.2-9.2-25-9.2s-25,4.1-25,9.2c0,5.1,11.2,9.2,25,9.2S221.1,130.3,221.1,125.2z"/>
						<path class="st6" d="M196,118.4c-14.6,0-22.6,4.5-22.6,6.8s8,6.8,22.6,6.8s22.6-4.5,22.6-6.8S210.6,118.4,196,118.4z
							 M196,129.5c-11.5,0-17.9-2.9-19.7-4.3c1.8-1.4,8.2-4.3,19.7-4.3s17.9,2.9,19.7,4.3C213.9,126.6,207.6,129.5,196,129.5z"/>
					</g>
					<g>
						<path class="st5" d="M213.7,114.7c0-5.1-11.2-9.2-25-9.2s-25,4.1-25,9.2v7.4c0,5.1,11.2,9.2,25,9.2s25-4.1,25-9.2
							C213.7,122.1,213.7,114.7,213.7,114.7z"/>
						<path class="st5" d="M213.7,114.7c0-5.1-11.2-9.2-25-9.2s-25,4.1-25,9.2v7.4c0,5.1,11.2,9.2,25,9.2s25-4.1,25-9.2
							C213.7,122.1,213.7,114.7,213.7,114.7z"/>
						<path class="st5" d="M213.7,114.7c0-5.1-11.2-9.2-25-9.2s-25,4.1-25,9.2s11.2,9.2,25,9.2S213.7,119.8,213.7,114.7z"/>
						<path class="st6" d="M188.7,107.9c-14.6,0-22.6,4.5-22.6,6.8s8,6.8,22.6,6.8s22.6-4.5,22.6-6.8S203.3,107.9,188.7,107.9z
							 M188.7,119c-11.5,0-17.9-2.9-19.7-4.3c1.8-1.4,8.2-4.3,19.7-4.3s17.9,2.9,19.7,4.3C206.5,116.1,200.2,119,188.7,119z"/>
					</g>
					<g>
						<path class="st5" d="M223.5,104.2c0-5.1-11.2-9.2-25-9.2s-25,4.1-25,9.2v7.4c0,5.1,11.2,9.2,25,9.2s25-4.1,25-9.2V104.2z"/>
						<path class="st5" d="M223.5,104.2c0-5.1-11.2-9.2-25-9.2s-25,4.1-25,9.2v7.4c0,5.1,11.2,9.2,25,9.2s25-4.1,25-9.2V104.2z"/>
						<path class="st5" d="M223.5,104.2c0-5.1-11.2-9.2-25-9.2s-25,4.1-25,9.2s11.2,9.2,25,9.2S223.5,109.3,223.5,104.2z"/>
						<path class="st6" d="M198.5,97.4c-14.6,0-22.6,4.5-22.6,6.8s8,6.8,22.6,6.8s22.6-4.5,22.6-6.8S213.1,97.4,198.5,97.4z
							 M198.5,108.5c-11.5,0-17.9-2.9-19.7-4.3c1.8-1.4,8.2-4.3,19.7-4.3s17.9,2.9,19.7,4.3C216.4,105.7,210,108.5,198.5,108.5z"/>
					</g>
				</g>
				<g>
					<g>
						<path class="st5" d="M32.5,223.1c0-5.1,11.2-9.2,25-9.2s25,4.1,25,9.2v7.4c0,5.1-11.2,9.2-25,9.2s-25-4.1-25-9.2
							C32.5,230.5,32.5,223.1,32.5,223.1z"/>
						<path class="st5" d="M32.5,223.1c0-5.1,11.2-9.2,25-9.2s25,4.1,25,9.2v7.4c0,5.1-11.2,9.2-25,9.2s-25-4.1-25-9.2
							C32.5,230.5,32.5,223.1,32.5,223.1z"/>
						<path class="st5" d="M32.5,223.1c0-5.1,11.2-9.2,25-9.2s25,4.1,25,9.2s-11.2,9.2-25,9.2S32.5,228.2,32.5,223.1z"/>
						<path class="st6" d="M35,223.1c0,2.3,8,6.8,22.6,6.8s22.6-4.5,22.6-6.8s-8-6.8-22.5-6.8S35,220.8,35,223.1z M37.8,223.1
							c1.8-1.4,8.2-4.3,19.7-4.3s17.9,2.9,19.7,4.3c-1.8,1.4-8.2,4.3-19.7,4.3S39.6,224.5,37.8,223.1z"/>
					</g>
					<g>
						<path class="st5" d="M39.9,212.6c0-5.1,11.2-9.2,25-9.2s25,4.1,25,9.2v7.4c0,5.1-11.2,9.2-25,9.2s-25-4.1-25-9.2
							C39.9,220,39.9,212.6,39.9,212.6z"/>
						<path class="st5" d="M39.9,212.6c0-5.1,11.2-9.2,25-9.2s25,4.1,25,9.2v7.4c0,5.1-11.2,9.2-25,9.2s-25-4.1-25-9.2
							C39.9,220,39.9,212.6,39.9,212.6z"/>
						<path class="st5" d="M39.9,212.6c0-5.1,11.2-9.2,25-9.2s25,4.1,25,9.2s-11.2,9.2-25,9.2S39.9,217.7,39.9,212.6z"/>
						<path class="st6" d="M42.4,212.6c0,2.3,8,6.8,22.5,6.8s22.6-4.5,22.6-6.8s-8-6.8-22.5-6.8S42.4,210.3,42.4,212.6z M45.2,212.6
							c1.8-1.4,8.2-4.3,19.7-4.3s17.9,2.9,19.7,4.3c-1.8,1.4-8.2,4.3-19.7,4.3S47,214.1,45.2,212.6z"/>
					</g>
					<g>
						<path class="st5" d="M30,202.1c0-5.1,11.2-9.2,25-9.2s25,4.1,25,9.2v7.4c0,5.1-11.2,9.2-25,9.2s-25-4.1-25-9.2
							C30,209.5,30,202.1,30,202.1z"/>
						<path class="st5" d="M30,202.1c0-5.1,11.2-9.2,25-9.2s25,4.1,25,9.2v7.4c0,5.1-11.2,9.2-25,9.2s-25-4.1-25-9.2
							C30,209.5,30,202.1,30,202.1z"/>
						<path class="st5" d="M30,202.1c0-5.1,11.2-9.2,25-9.2s25,4.1,25,9.2s-11.2,9.2-25,9.2S30,207.3,30,202.1z"/>
						<path class="st6" d="M32.5,202.1c0,2.3,8,6.8,22.6,6.8s22.5-4.5,22.5-6.8s-8-6.8-22.5-6.8S32.5,199.8,32.5,202.1z M35.4,202.1
							c1.8-1.4,8.2-4.3,19.7-4.3s17.9,2.9,19.7,4.3c-1.8,1.4-8.2,4.3-19.7,4.3S37.2,203.6,35.4,202.1z"/>
					</g>
					<g>
						<path class="st5" d="M41.3,186.3c0-5.1,11.2-9.2,25-9.2s25,4.1,25,9.2v7.4c0,5.1-11.2,9.2-25,9.2s-25-4.1-25-9.2V186.3z"/>
						<path class="st5" d="M41.3,186.3c0-5.1,11.2-9.2,25-9.2s25,4.1,25,9.2v7.4c0,5.1-11.2,9.2-25,9.2s-25-4.1-25-9.2V186.3z"/>
						<path class="st5" d="M41.3,186.3c0-5.1,11.2-9.2,25-9.2s25,4.1,25,9.2s-11.2,9.2-25,9.2S41.3,191.4,41.3,186.3z"/>
						<path class="st6" d="M43.8,186.3c0,2.3,8,6.8,22.6,6.8s22.6-4.5,22.6-6.8s-8-6.8-22.5-6.8S43.8,184,43.8,186.3z M46.6,186.3
							c1.8-1.4,8.2-4.3,19.7-4.3s17.9,2.9,19.7,4.3c-1.8,1.4-8.2,4.3-19.7,4.3S48.5,187.8,46.6,186.3z"/>
					</g>
				</g>
				<g>
					
						<linearGradient id="SVGID_00000013170554569755889260000000337918645753357973_" gradientUnits="userSpaceOnUse" x1="173.78" y1="864.9823" x2="192.5546" y2="864.9823" gradientTransform="matrix(1 0 0 1 0 -796)">
						<stop  offset="0.22" style="stop-color:#F7C3C1"/>
						<stop  offset="1" style="stop-color:#F3A396"/>
					</linearGradient>
					<path style="fill:url(#SVGID_00000013170554569755889260000000337918645753357973_);" d="M173.8,72.7c0,0,3-3.4,3.7-4.8
						c0.7-1.3,11.7-9.2,14-7.7s0.6,1.5-2.2,3.6c-2.8,2.2-5.7,4.2-4.6,4.9c1.1,0.7,2.6-1.8,4.1-1.8c1.1,0-0.4,1.6-2.4,3.7
						c-0.8,0.8-2.5,2.3-3,2.8c-3.6,3-4.8,2.8-6,4.3C176.2,79.3,173.8,72.8,173.8,72.7L173.8,72.7z"/>
					
						<linearGradient id="SVGID_00000140000985946899831940000006915411861232797372_" gradientUnits="userSpaceOnUse" x1="160.3549" y1="924.0416" x2="178.4694" y2="924.0416" gradientTransform="matrix(1 0 0 1 0 -796)">
						<stop  offset="0.22" style="stop-color:#F7C3C1"/>
						<stop  offset="1" style="stop-color:#F3A396"/>
					</linearGradient>
					<path style="fill:url(#SVGID_00000140000985946899831940000006915411861232797372_);" d="M160.9,130.5c2.9,2.3,10.6,0,13.5,0
						s5.6-0.8,3.2-2.7c-2.4-1.8-6.6-2.6-12.9-3.2S160.9,130.5,160.9,130.5L160.9,130.5z"/>
					<path class="st9" d="M123.8,157.7c-1.3,0.9-5,1.9-6.7,1s-3.8-3.6-4.6-2.3c-0.7,1.3-2.3,5-2,7.2c0,0-0.6,0.4-0.4,1.5
						c0.1,1.2,2.6,2,5.7,2.7c3.2,0.7,12.6,3.7,15.4,3.5s4,0.3,5.5-1.3c0.9-1,1.6-3.2-1-4.3c-2.3-1-9.3-2.8-10.1-6.6
						C125.3,157.5,124.4,157.3,123.8,157.7L123.8,157.7z"/>
					<path class="st9" d="M32.4,184.9c-1.3-1.2-3.1-4.9-2.6-7c0.6-2,3-4.9,1.5-5.4s-5.9-1.3-8.2-0.5c0,0-0.5-0.5-1.7-0.1
						c-1.2,0.4-1.6,3.2-1.6,6.8s-1.1,14.4-0.2,17.3c0.9,2.9,0.6,4.4,2.6,5.6c1.3,0.7,3.8,1,4.4-2.1c0.5-2.7,0.9-10.6,4.8-12.3
						C33,186.4,32.9,185.4,32.4,184.9L32.4,184.9z"/>
					
						<linearGradient id="SVGID_00000130633213969539985530000001654057854851117189_" gradientUnits="userSpaceOnUse" x1="91" y1="932.2911" x2="143.9334" y2="932.2911" gradientTransform="matrix(1 0 0 1 0 -796)">
						<stop  offset="5.000000e-02" style="stop-color:#1F2248"/>
						<stop  offset="0.7" style="stop-color:#243884"/>
					</linearGradient>
					<path style="fill:url(#SVGID_00000130633213969539985530000001654057854851117189_);" d="M91,140l31.7-9.5l-12,27.9l16.5,2.6
						c0,0,17.6-43.1,16.7-46.7c-0.4-1.3,0.4-3.8-18-2.2c-21.7,1.8-34.9,5.3-34.9,5.3l0.1,13.7L91,140L91,140z"/>
					<g>
						<path class="st11" d="M150.4,72l-8.9-12.4c-2.1,5.3-0.9,11.8-0.9,13s-1.1,3.7-2.6,6.3c3,1.1,5.9,2.4,8.7,3.8
							c0-2.5,0.9-5.6,5-3.9c4.5,1.9,4.8,0,4.8-1.5c-0.6-0.4-1.1,0-0.9-1l0.1-0.4l-2.4-3.4C152.4,73,151.2,73.1,150.4,72L150.4,72z"
							/>
						<g>
							
								<linearGradient id="SVGID_00000156570987518915803070000004495372690638997648_" gradientUnits="userSpaceOnUse" x1="138.3656" y1="865.25" x2="160.9021" y2="865.25" gradientTransform="matrix(1 0 0 1 0 -796)">
								<stop  offset="0.22" style="stop-color:#F7C3C1"/>
								<stop  offset="1" style="stop-color:#F3A396"/>
							</linearGradient>
							<path style="fill:url(#SVGID_00000156570987518915803070000004495372690638997648_);" d="M150.8,62c0,0-10,2.4-10.2,2.3
								c-4.2-0.3-1.3,11.2-1.5,14.9c2.3,0.9,4.5,1.9,6.7,3c0.5-0.7,1.4-1.4,2.8-2.4c1.3-0.9,2.7-0.6,3.7-0.4c1.2,0.2,3.4,1,4.4,0.5
								c0.9-0.5,0.7-2.4,0.8-2.9s0.7-0.3,1.3-0.7c0.6-0.4-0.1-1.3-0.1-1.3c0.2-0.2,1-0.8,0.7-1.2c-0.4-0.5-1.1-1.2,0.7-1.8
								c1.6-0.6,0.6-1.4-0.2-2.7c-0.5-0.8-1.4-2.4-0.7-3.5c0.5-0.7,0.6-0.5,0.3-2.7c-0.5-4-4.1-6-4.6-6.8L150.8,62L150.8,62z"/>
							
								<linearGradient id="SVGID_00000121275073376340732850000017964494507905993918_" gradientUnits="userSpaceOnUse" x1="133.7923" y1="858.9052" x2="159.1677" y2="858.9052" gradientTransform="matrix(1 0 0 1 0 -796)">
								<stop  offset="7.000000e-02" style="stop-color:#A04C33"/>
								<stop  offset="1" style="stop-color:#3B160E"/>
							</linearGradient>
							<path style="fill:url(#SVGID_00000121275073376340732850000017964494507905993918_);" d="M134.5,58.5
								c2.4-4.7,5.5-9.4,11.3-8.6c5.8,0.8,11.6,3.8,12.7,1.3c0,0,1.9,5.8-0.3,8.2c-0.4-1.1-8.9,7.2-10.3,8.4c-1.3,1.2,0.2-2.8-2-2.9
								c-2.2-0.1-4.1,4-3.6,6.1c0.4,1.6-3.2,3.7-3.2,3.7L139,76l-1.9-3.4C137,72.5,132.1,63.3,134.5,58.5L134.5,58.5z"/>
						</g>
					</g>
					
						<linearGradient id="SVGID_00000022558577676744162240000012865318882271091599_" gradientUnits="userSpaceOnUse" x1="125.8" y1="879.0702" x2="182.8" y2="879.0702" gradientTransform="matrix(1 0 0 1 0 -796)">
						<stop  offset="5.000000e-02" style="stop-color:#1F2248"/>
						<stop  offset="0.7" style="stop-color:#243884"/>
					</linearGradient>
					<path style="fill:url(#SVGID_00000022558577676744162240000012865318882271091599_);" d="M125.8,84.5c0,0,24.5-1.7,28.9-2.7
						c4.4-0.9,22.4-14.7,22.4-14.7l5.7,8.3c-19.9,16-19.6,15.8-20.7,16.4c-0.9,0.5-20.2,5.4-27.3,7.1
						C127.7,100.7,125.8,84.6,125.8,84.5L125.8,84.5z"/>
					
						<linearGradient id="SVGID_00000155848898651893086280000012491553286944840614_" gradientUnits="userSpaceOnUse" x1="138.15" y1="880.1809" x2="150.52" y2="880.1809" gradientTransform="matrix(1 0 0 1 0 -796)">
						<stop  offset="0" style="stop-color:#F3A396;stop-opacity:0"/>
						<stop  offset="0.98" style="stop-color:#F3A396"/>
					</linearGradient>
					
						<path style="opacity:0.45;fill:url(#SVGID_00000155848898651893086280000012491553286944840614_);enable-background:new    ;" d="
						M150.5,78.9c-1.9,2.6-1.3,6.8-9.1,11.9s0.5-14.1,0.5-14.1L150.5,78.9L150.5,78.9z"/>
					
						<linearGradient id="SVGID_00000070110972453485241200000017808472886834002851_" gradientUnits="userSpaceOnUse" x1="29" y1="946.9" x2="101.6" y2="946.9" gradientTransform="matrix(1 0 0 1 0 -796)">
						<stop  offset="5.000000e-02" style="stop-color:#1F2248"/>
						<stop  offset="0.7" style="stop-color:#243884"/>
					</linearGradient>
					<path style="fill:url(#SVGID_00000070110972453485241200000017808472886834002851_);" d="M79.6,113.1
						c-11.4,7.9-3.2,22.3-5.3,26.8l-6.7,28.3L29,171.4l1.1,17.3c0,0,39.4-2.3,40.8-2.5c7.7-1.1,6.5,2.7,14.8-12.4
						c11.6-21.1,15.9-43.8,15.9-43.8L79.6,113.1L79.6,113.1z"/>
					
						<linearGradient id="SVGID_00000060748155363175471870000005138689165260501917_" gradientUnits="userSpaceOnUse" x1="79.5" y1="898.2086" x2="144.3" y2="898.2086" gradientTransform="matrix(1 0 0 1 0 -796)">
						<stop  offset="5.000000e-02" style="stop-color:#1F2248"/>
						<stop  offset="0.7" style="stop-color:#243884"/>
					</linearGradient>
					<path style="fill:url(#SVGID_00000060748155363175471870000005138689165260501917_);" d="M101,132.4c0,0,32.6-22.8,43.3-42.5
						c0,0-7.8-13.3-6.9-17c0,0-8.6-4.6-25,7.2c-6.9,5-12.8,14.4-18.9,21c-7.2,7.7-14,12-14,12L101,132.4L101,132.4z"/>
					
						<linearGradient id="SVGID_00000109729015530119367740000017874528191656707230_" gradientUnits="userSpaceOnUse" x1="131.92" y1="882.0298" x2="144.7362" y2="882.0298" gradientTransform="matrix(1 0 0 1 0 -796)">
						<stop  offset="5.000000e-02" style="stop-color:#1F2248"/>
						<stop  offset="0.7" style="stop-color:#243884"/>
					</linearGradient>
					<path style="fill:url(#SVGID_00000109729015530119367740000017874528191656707230_);" d="M137.5,73c0,0,3.3,2.5,5.9,7.2
						c2.6,4.8,0.9,9.5-0.2,16.6S132,92,132,92L137.5,73z"/>
					
						<linearGradient id="SVGID_00000004527167702317210200000018376444270395405245_" gradientUnits="userSpaceOnUse" x1="120.75" y1="895.05" x2="131.92" y2="895.05" gradientTransform="matrix(1 0 0 1 0 -796)">
						<stop  offset="5.000000e-02" style="stop-color:#1F2248"/>
						<stop  offset="0.7" style="stop-color:#243884"/>
					</linearGradient>
					<polygon style="fill:url(#SVGID_00000004527167702317210200000018376444270395405245_);" points="131.9,106 120.7,86 
						125.9,112.1 					"/>
					
						<linearGradient id="SVGID_00000163794289775352109940000009260287286901315770_" gradientUnits="userSpaceOnUse" x1="121.551" y1="900.7" x2="168.2" y2="900.7" gradientTransform="matrix(1 0 0 1 0 -796)">
						<stop  offset="5.000000e-02" style="stop-color:#1F2248"/>
						<stop  offset="0.7" style="stop-color:#243884"/>
					</linearGradient>
					<path style="fill:url(#SVGID_00000163794289775352109940000009260287286901315770_);" d="M125.8,81.5
						c4.9-2.8,11.5-4.7,11.5-4.7s8.2,23.8,10,27.9c1.9,4.1,20.9,19.2,20.9,19.2l-7.2,8.7c0,0-22.8-15.5-23.5-16.2
						S125.1,94.8,122,88.3C120.7,85.6,122.3,83.6,125.8,81.5L125.8,81.5L125.8,81.5z"/>
				</g>
			</g>
		</g>
	</g>
</g>
</svg>
