<?xml version="1.0" encoding="utf-8"?>
<!-- Generator: Adobe Illustrator 28.1.0, SVG Export Plug-In . SVG Version: 6.00 Build 0)  -->
<svg version="1.1" id="レイヤー_1" xmlns="http://www.w3.org/2000/svg" xmlns:xlink="http://www.w3.org/1999/xlink" x="0px"
	 y="0px" viewBox="0 0 270 230" style="enable-background:new 0 0 270 230;" xml:space="preserve">
<style type="text/css">
	.st0{opacity:0.6;}
	.st1{fill:#FFFFFF;}
	.st2{clip-path:url(#SVGID_00000022543877513423190010000005745333683977563301_);}
	.st3{fill:#EFEFEF;}
	.st4{fill:#8C3E64;}
	.st5{fill:#792F52;}
	.st6{fill:#F1A351;}
	.st7{fill:#F3BA55;}
	.st8{fill:url(#SVGID_00000090987418717256738560000011524854897766663059_);}
	.st9{fill:url(#SVGID_00000163051981018323199490000001169012283504221871_);}
	.st10{fill:url(#SVGID_00000013183090676294788120000013092307591070341309_);}
	.st11{fill:url(#SVGID_00000134217886592298181180000017991938734273789875_);}
	.st12{fill:url(#SVGID_00000181087726398003865590000010397416658033626283_);}
	.st13{fill:url(#SVGID_00000178167887643630329860000007954180134914621609_);}
	.st14{fill:url(#SVGID_00000088121705155082571420000000411488830892694458_);}
	.st15{fill:url(#SVGID_00000063613290003779363980000010897088774496453534_);}
	.st16{fill:url(#SVGID_00000162344089130815095770000005397316070086237581_);}
	.st17{fill:url(#SVGID_00000160884921241961943550000006176587179264052909_);}
	.st18{fill:url(#SVGID_00000118379762412778599500000004090530462246525334_);}
	.st19{fill:url(#SVGID_00000020362596457926415380000012839240126756159118_);}
	.st20{fill:#B5B7F7;}
	.st21{fill:url(#SVGID_00000032623205530921277820000016219085230630129036_);}
	.st22{fill:#BD3928;}
	.st23{fill:#E35D57;}
	.st24{fill:#48996B;}
	.st25{fill:#54B479;}
</style>
<g class="st0">
	<path class="st1" d="M32.7,28.1c0,21.5-4.8,29.2-16.4,29.2S0,49.2,0,28.1C0,5.5,6.8,0,16.6,0C26.8,0,32.7,6.2,32.7,28.1z
		 M10.2,27.8c0,14,0.6,21.2,6.2,21.2s6.1-6.9,6.1-21S21.7,8.5,16.4,8.5C11.4,8.5,10.2,14,10.2,27.8z"/>
	<path class="st1" d="M57.8,56.6V43.3H38V35L54.2,0.7h13V35h5.1l-0.9,8.3h-4.2v13.3H57.8L57.8,56.6z M57.8,23.6
		c0-6,0.1-10.5,0.3-15.1c-1.9,6-7.3,18.7-10.7,26.6h10.4C57.8,35.1,57.8,23.6,57.8,23.6z"/>
</g>
<g>
	<circle class="st1" cx="134.9" cy="125.8" r="104.2"/>
	<g>
		<defs>
			<path id="SVGID_1_" d="M239.1,7.8c0,0-80.6-4-95.1-4c-21.7,0-72.1,16.3-72.1,38c0,0.4,0,0.7,0,1.1c-24.9,19-41,49.1-41,82.9
				c0,57.5,46.6,104.2,104.2,104.2s104.2-46.6,104.2-104.2C239.2,71.6,239.1,7.8,239.1,7.8L239.1,7.8z"/>
		</defs>
		<clipPath id="SVGID_00000058564331359015251030000017007429481664922807_">
			<use xlink:href="#SVGID_1_"  style="overflow:visible;"/>
		</clipPath>
		<g style="clip-path:url(#SVGID_00000058564331359015251030000017007429481664922807_);">
			<g>
				<rect x="153.4" y="190.6" class="st3" width="5.1" height="12"/>
				<rect x="161.2" y="184.7" class="st3" width="5.1" height="17.9"/>
				<rect x="169.1" y="176.6" class="st3" width="5.1" height="26"/>
				<rect x="176.9" y="188" class="st3" width="5.1" height="14.6"/>
			</g>
			<g>
				<rect x="140.8" y="48.3" class="st3" width="5.1" height="12"/>
				<rect x="148.7" y="42.4" class="st3" width="5.1" height="17.9"/>
				<rect x="156.5" y="34.3" class="st3" width="5.1" height="26"/>
				<rect x="164.3" y="45.7" class="st3" width="5.1" height="14.6"/>
			</g>
			<g>
				<path class="st3" d="M89,176.8l-12.6-4.4c-0.5,1.4-0.8,2.9-0.8,4.4c0,7.3,6,13.4,13.4,13.4c2.4,0,4.8-0.7,6.9-1.9L89,176.8
					L89,176.8z"/>
				<path class="st3" d="M89.8,176.5l7,11.4c2-1.2,3.6-2.9,4.7-4.9c1.1-2,1.7-4.3,1.7-6.6H89.8z"/>
				<path class="st3" d="M89.8,175.9l13.4-0.2c0-1.8-0.4-3.6-1.2-5.3c-0.7-1.7-1.8-3.2-3.2-4.4L89.8,175.9L89.8,175.9z"/>
			</g>
			<g>
				<polygon class="st3" points="121.1,202.4 115.7,213.2 106,201.2 97.3,212.4 90.8,205.4 89.8,206.3 97.4,214.4 106,203.3 
					116,215.7 122.1,203.4 				"/>
				<path class="st3" d="M117.6,214.5c0-0.9-0.8-1.7-1.7-1.7s-1.7,0.8-1.7,1.7s0.8,1.7,1.7,1.7C116.9,216.2,117.6,215.4,117.6,214.5
					z"/>
				<path class="st3" d="M123.3,202.4c0-0.9-0.8-1.7-1.7-1.7s-1.7,0.8-1.7,1.7s0.8,1.7,1.7,1.7S123.3,203.3,123.3,202.4z"/>
				<circle class="st3" cx="105.9" cy="202.4" r="1.7"/>
				<circle class="st3" cx="97.5" cy="213.2" r="1.7"/>
				<path class="st3" d="M92.4,206.2c0-0.9-0.8-1.7-1.7-1.7s-1.7,0.8-1.7,1.7s0.8,1.7,1.7,1.7S92.4,207.1,92.4,206.2z"/>
			</g>
			<g>
				<polygon class="st3" points="201.8,76.5 196.5,87.4 186.8,75.3 178.1,86.5 171.6,79.5 170.6,80.4 178.1,88.5 186.8,77.4 
					196.8,89.9 202.8,77.5 				"/>
				<path class="st3" d="M198.4,88.6c0-0.9-0.8-1.7-1.7-1.7s-1.7,0.8-1.7,1.7s0.8,1.7,1.7,1.7S198.4,89.6,198.4,88.6z"/>
				<path class="st3" d="M204.1,76.5c0-0.9-0.8-1.7-1.7-1.7s-1.7,0.8-1.7,1.7s0.8,1.7,1.7,1.7S204.1,77.4,204.1,76.5z"/>
				<circle class="st3" cx="186.7" cy="76.5" r="1.7"/>
				<circle class="st3" cx="178.3" cy="87.3" r="1.7"/>
				<path class="st3" d="M173.2,80.3c0-0.9-0.8-1.7-1.7-1.7s-1.7,0.8-1.7,1.7s0.8,1.7,1.7,1.7S173.2,81.3,173.2,80.3z"/>
			</g>
			<path class="st3" d="M78,48.3c-2.1,2.6-2,6.3,0.1,8.9c2.4,2.9,6.5,3.4,9.4,1.4l4.5,4.5c0.2,0.2,0.5,0.2,0.7,0l1.3-1.3
				c0.2-0.2,0.2-0.5,0-0.7l-4.5-4.5c1.8-2.8,1.5-6.5-0.9-8.9C85.6,44.8,80.6,45,78,48.3z M86.6,55.8c-1.7,1.7-4.4,1.7-6.1,0
				c-1.7-1.7-1.7-4.4,0-6.1s4.4-1.7,6.1,0C88.2,51.4,88.2,54.1,86.6,55.8z"/>
			<path class="st3" d="M125.4,183.9c-2.1,2.6-2,6.3,0.1,8.9c2.4,2.9,6.5,3.4,9.4,1.4l4.5,4.5c0.2,0.2,0.5,0.2,0.7,0l1.3-1.3
				c0.2-0.2,0.2-0.5,0-0.7l-4.5-4.5c1.8-2.8,1.5-6.5-0.9-8.9C133,180.3,128.1,180.5,125.4,183.9L125.4,183.9z M134,191.3
				c-1.7,1.7-4.4,1.7-6.1,0s-1.7-4.4,0-6.1s4.4-1.7,6.1,0S135.7,189.6,134,191.3z"/>
			<g id="Layer0_8_FILL">
				<path class="st4" d="M69.6,84.2c0,0.1-0.1,0.8-0.3,1.9c-0.2,1.2,0.1,3,0.9,5.4c0.8,2.4,2.7,4.2,5.8,5.2c3.1,1,5.8,2.1,8.2,3.1
					c2.3,1.1,5.2,1.9,8.7,2.4c3.4,0.5,8.2-0.1,14.4-1.8c6.2-1.7,13.3-2,21.5-0.9c5.1,2.3,10.3,1.7,15.5-1.7c5.2-3.3,8-6.9,8.3-10.8
					c0.2-3.9-0.4-6.2-1.8-7.1c-1.5-0.8-2.2-1.3-2.2-1.4c-2.8-0.8-6-1.4-9.6-1.8c-6.2-0.8-11.8-1.2-16.7-1.1c-4.9,0.1-9.9,0.2-15,0.4
					c-5.1,0.2-9.6,1.1-13.7,2.5c-4,1.4-8.5,2.6-13.3,3.3C75.5,82.8,71.9,83.5,69.6,84.2L69.6,84.2z"/>
				<path class="st5" d="M62.8,87.2C61.5,88,60.3,89,59.3,90c-1.9,1.9-1.9,4.1,0.1,6.7c2,2.5,3.9,4.3,5.8,5.4s4.2,1.8,6.7,2.3
					c2.4,0.5,4,0.8,4.6,1c5.1,0.8,11,1.7,17.7,2.6c12.4,1.7,21.6,2.6,27.5,2.6c4.7,0,10.1-0.2,16-0.8c5.9-0.5,11.4-1.1,16.2-1.9
					c4.8-0.8,9.8-2,15.1-3.6c5.3-1.6,8.6-2.9,9.8-3.9c1.3-1,0.9-2.5-1.2-4.4c-2-1.9-3.6-3.4-4.7-4.3c-1.1-0.9-3.5-2.6-7.3-5
					c-3.9-2.4-7.8-4.4-11.6-6.2c-1.6-0.7-3.5-1.3-5.5-1.8c0,0.1,0.7,0.6,2.2,1.4c1.4,0.8,2,3.2,1.8,7.1c-0.3,3.9-3,7.5-8.3,10.8
					c-5.2,3.4-10.4,3.9-15.5,1.7c-8.2-1.1-15.3-0.8-21.5,0.9c-6.1,1.7-10.9,2.3-14.4,1.8c-3.4-0.5-6.4-1.3-8.7-2.4
					c-2.4-1-5.1-2.1-8.2-3.1c-3.1-1-5-2.7-5.8-5.2c-0.8-2.4-1.1-4.3-0.9-5.4c0.2-1.2,0.3-1.8,0.3-1.9c-1.3,0.4-2.5,0.8-3.4,1.2
					C64.9,85.9,63.8,86.5,62.8,87.2L62.8,87.2z"/>
			</g>
			<g id="Layer0_9_FILL">
				<path class="st6" d="M44.8,139.7c-0.9-1.2-1.8-2.2-2.8-3.1c-2.6-2.6-5.5-4.3-8.7-5.1c-2.1-0.7-4-1.1-5.5-1.1
					c-1.5-0.2-2.7-0.1-3.5,0.3c-0.3,0.1-0.6,0.3-0.8,0.6c-1.3,1.1-2.6,3.3-4.1,6.6c-1.4,3.3-1.2,7.9,0.6,13.9
					c1.9,6,5.2,9.6,9.9,10.7c4.7,1.1,8,1.5,9.7,1.2c1.2-0.2,2-0.4,2.5-0.5c0.3-0.2,0.7-0.4,1-0.6c1.2-0.8,2.2-1.6,3-2.4
					c1-1.1,1.6-2.9,1.8-5.6c0.2-0.9,0.5-2.1,0.8-3.4C49.3,147.8,48,144,44.8,139.7 M40.3,138.3L40.3,138.3c0.9,0.9,1.7,1.8,2.5,2.9
					c2.7,3.6,3.8,6.7,3.5,9.4c-0.3,1.3-0.5,2.4-0.8,3.4c0,0.1,0,0.3,0,0.4c-0.2,1.9-0.5,3.2-1.2,4.1c-0.7,0.7-1.5,1.4-2.5,2.1h0
					c-0.1,0.1-0.3,0.2-0.5,0.3c-0.5,0.1-1.1,0.2-2,0.4c-1.6,0.2-4.5-0.2-8.7-1.1c-3.9-1-6.6-4.1-8.1-9.1v0.1
					c-1.6-5.3-1.8-9.4-0.7-12.2c1.2-2.9,2.4-4.8,3.4-5.7h0c0.1-0.1,0.2-0.1,0.2-0.1c0,0,0-0.1,0-0.1c0.5-0.2,1.2-0.2,2.2-0.1h0.1
					c1.3,0.1,3,0.4,4.8,1.1c0,0,0.1,0,0.1,0C35.5,134.6,38,136.1,40.3,138.3L40.3,138.3z"/>
				<path class="st7" d="M40.3,138.3L40.3,138.3c-2.3-2.3-4.8-3.8-7.5-4.6c0,0-0.1,0-0.1,0c-1.9-0.6-3.5-0.9-4.8-1.1h-0.1
					c-0.9-0.1-1.7-0.1-2.2,0.1c0,0,0,0,0,0.1c-0.1,0-0.2,0.1-0.2,0.1h0c-1,0.9-2.2,2.8-3.4,5.7c-1.1,2.9-0.9,7,0.7,12.2v-0.1
					c1.5,5,4.2,8,8.1,9.1c4.2,1,7.1,1.4,8.7,1.1c0.9-0.2,1.5-0.3,2-0.4c0.2-0.1,0.3-0.2,0.5-0.3h0c1-0.7,1.8-1.4,2.5-2.1
					c0.6-0.8,1-2.2,1.2-4.1c0-0.1,0-0.3,0-0.4c0.2-0.9,0.5-2,0.8-3.4c0.4-2.6-0.8-5.8-3.5-9.4C42,140.1,41.1,139.2,40.3,138.3
					L40.3,138.3z"/>
				<path class="st4" d="M81.7,117.4c0.4-0.4,0.6-1.8,0.6-4.2c-0.3-0.1-0.6-0.2-0.8-0.2c-1.2-0.3-2.6-0.2-4.3,0.2
					c-1.5,0.3-2.9,0.8-4.3,1.4l-6.3,3.1c-1.8,0.9-4.3,1.6-7.6,2.1c-1.6,0.2-5.1,0.7-10.5,1.3c-2.1,0.2-5,1.1-8.8,2.8
					c-4,1.8-7.2,3.1-9.5,3.9c-1.6,0.5-3.1,1.3-4.7,2.2c-0.4,0.2-0.7,0.4-1.1,0.6c0.8-0.4,2-0.5,3.5-0.3c1.5,0.1,3.3,0.5,5.5,1.1
					c3.2,0.9,6,2.6,8.6,5.1c2.6-2.2,6.4-4.1,11.5-5.6c4-1.2,8.8-2.3,14.6-3.4c1.4-0.4,3.1-1.3,5.1-2.6c2.2-1.4,3.5-2.7,4.1-3.8
					c0.3-0.7,0.9-1.2,1.6-1.5C79.8,119.2,80.7,118.5,81.7,117.4z"/>
				<path class="st5" d="M86.4,116.2C86.4,116.2,86.3,116.2,86.4,116.2c-0.8-1.4-2.1-2.4-4.1-3.1c0,2.4-0.2,3.8-0.6,4.2
					c-0.9,1.1-1.9,1.8-2.8,2.2c-0.7,0.3-1.3,0.8-1.6,1.5c-0.5,1.1-1.9,2.4-4.1,3.8c-2,1.3-3.7,2.2-5.1,2.6
					c-5.8,1.1-10.6,2.2-14.6,3.3c-5.1,1.5-8.9,3.4-11.5,5.6c1,0.9,1.9,2,2.8,3.1c3.2,4.3,4.5,8.1,3.9,11.4c-0.3,1.4-0.5,2.6-0.8,3.4
					c-0.2,2.6-0.8,4.4-1.8,5.6c-0.8,0.8-1.8,1.6-3,2.4c9.7-5.6,15.9-9.8,18.8-12.4s6-5.6,9.7-8.7c5.9-6.1,10-11.3,12.2-15.7
					c2.3-4.6,3.3-7.5,2.9-8.8C86.6,116.7,86.5,116.5,86.4,116.2z"/>
			</g>
			<g id="Layer0_10_FILL">
				<path class="st5" d="M131.1,135c-0.7-0.5-2.1-1.3-4.4-2.5c-2.2-1.2-3.9-2.1-5-2.8c-2-0.1-3.1,0-3.5,0.1c-2.6,0.7-5.6,2.5-9,5.5
					c-3.4,3-5.2,4.5-5.4,4.5c-1.2,0.3-2.4,0.4-3.8,0.3c-1.4-0.1-3.1-0.5-5.2-1.1c-0.3-0.1-1.1-0.8-2.3-2c-1.1-1.1-1.7-1.8-1.9-2.1
					c-1.6-2.2-2.9-3.9-4.1-5.2c-0.4-0.5-0.8-0.9-1.2-1.3v0.1c-0.8,2.8-0.8,5.9,0.2,9.4c1.3,4.8,4.9,11.4,10.8,20
					c1.3,1.9,2.2,3.3,2.8,4c0.6,0.7,2.4,2.4,5.2,5c0.7,0.6,1.5,1.2,2.4,1.6c2.6,1.1,4.9,1.6,7,1.6c2.1,0,4.1-0.3,6.2-1.1
					c2.1-0.8,4.2-1.9,6.3-3.3s4-2.9,5.5-4.5c3.2-3.4,5.1-6.1,5.7-8.1c0.6-2,0.9-4.1,0.7-6.2c-0.1-1.1-0.3-2.1-0.5-3
					c-0.2-0.9-0.6-1.8-1.1-2.8s-1-1.8-1.7-2.5c-0.6-0.7-1.2-1.4-1.9-1.9C132.4,136,131.8,135.5,131.1,135 M122.8,132.8
					c1.8,0.1,4.3,1.3,7.5,3.5c3.2,2.2,5.1,4.4,5.7,6.6c0.6,2.2,0.8,3.5,0.7,3.9c-0.1,0.4-0.1,1.2-0.1,2.3c0,1.1-0.3,2.5-0.9,4.3
					s-2.3,4.1-5.1,7.1c-1.4,1.4-3,2.7-4.9,3.9c-1.9,1.3-3.8,2.3-5.9,3c-2.1,0.7-3.7,1.1-4.8,1.2c-1.1,0.1-3-0.1-5.6-0.7
					c-2.6-0.6-5-2.5-7.2-5.9c-0.9-2.4-1.5-4.1-1.5-5.1c-0.1-1,0.6-3.4,1.8-7.2c1.2-3.7,2.9-6.6,4.9-8.8h0.1c1.3-1.4,2.4-2.6,3.1-3.4
					c0.4-0.4,1.1-1.1,2.2-2.2c1-1.1,2.5-1.8,4.4-2.2C119.1,132.8,121,132.7,122.8,132.8L122.8,132.8z"/>
				<path class="st6" d="M130.2,136.4c-3.2-2.2-5.6-3.4-7.5-3.5c-1.8-0.1-3.6,0-5.6,0.4c-1.9,0.4-3.4,1.1-4.4,2.2
					c-1,1.1-1.7,1.8-2.2,2.2c-0.8,0.8-1.8,2-3.1,3.4h-0.1c-2.1,2.1-3.7,5.1-4.9,8.8c-1.3,3.8-1.9,6.2-1.8,7.2c0.1,1,0.6,2.7,1.5,5.1
					c2.2,3.4,4.6,5.3,7.2,5.9c2.6,0.6,4.5,0.8,5.6,0.7c1.2-0.1,2.8-0.5,4.8-1.2c2-0.8,4-1.8,5.9-3c1.9-1.2,3.5-2.6,4.9-3.9
					c2.8-2.9,4.5-5.3,5.1-7.1c0.6-1.8,0.9-3.2,0.9-4.3c0-1.1,0-1.8,0.1-2.3c0.1-0.4-0.1-1.8-0.7-3.9
					C135.3,140.7,133.4,138.6,130.2,136.4 M124.3,140.5c2,0.1,3.5,0.5,4.6,1.3c1.3,0.9,2.2,2.4,2.8,4.6c0.9,3.4,0.5,6.6-1.2,9.7
					c-1.9,3.7-5.3,6.1-10,7.4c-1.9,0.5-4.1,0.6-6.8,0.2c-3.4-0.5-5.4-1.7-5.9-3.7c-0.3-1.1-0.4-2.6-0.4-4.7c0-2.1,0.2-3.6,0.6-4.4
					c0.7-1.7,1.8-3.6,3.2-5.8c1.4-2.2,3.5-3.6,6.3-4.2c0.5,0,1.2-0.1,2.1-0.2C121.8,140.5,123.4,140.4,124.3,140.5L124.3,140.5z"/>
				<path class="st7" d="M128.9,141.7c-1.1-0.8-2.6-1.2-4.6-1.3c-0.9,0-2.5,0.1-4.6,0.2c-0.8,0.1-1.5,0.1-2.1,0.2
					c-2.8,0.6-4.9,2-6.3,4.2c-1.4,2.2-2.5,4.1-3.2,5.8c-0.4,0.8-0.6,2.3-0.6,4.4c0,2.1,0.1,3.6,0.4,4.7c0.5,2,2.5,3.2,5.9,3.7
					c2.7,0.4,4.9,0.3,6.8-0.2c4.7-1.3,8.1-3.7,10-7.4c1.7-3.1,2.1-6.4,1.2-9.7C131.1,144.2,130.2,142.6,128.9,141.7L128.9,141.7z"/>
				<path class="st4" d="M85.4,128.3c0.4,0.4,0.8,0.9,1.2,1.3c1.1,1.3,2.5,3,4.1,5.2c0.2,0.3,0.9,1,1.9,2.1c1.2,1.2,2,1.9,2.3,2
					c2.1,0.6,3.8,1,5.2,1.1c1.3,0.1,2.6,0,3.8-0.3c0.2,0,1.9-1.6,5.4-4.5s6.4-4.8,9-5.5c0.3-0.1,1.4-0.1,3.5-0.1
					c-1.5-0.9-2.8-1.6-3.9-2.1c-1.8-0.9-4.3-1.9-7.4-3c-3.1-1.2-6.5-1.9-10.2-2.2c-3.6-0.3-7.1,0-10.6,1c-0.2,0.1-0.4,0.1-0.6,0.2
					c-0.6,0.2-1.1,0.6-1.6,1c-0.1,0.1-0.2,0.2-0.3,0.3C86.5,125.7,85.8,126.9,85.4,128.3L85.4,128.3z"/>
			</g>
			<g>
				
					<linearGradient id="SVGID_00000026859979361491309010000007616612046450294932_" gradientUnits="userSpaceOnUse" x1="-813.7773" y1="133.1241" x2="-796.2473" y2="111.5141" gradientTransform="matrix(1 0 0 -1 966.8 228)">
					<stop  offset="0.22" style="stop-color:#EEC4C1"/>
					<stop  offset="1" style="stop-color:#E6A598"/>
				</linearGradient>
				<path style="fill:url(#SVGID_00000026859979361491309010000007616612046450294932_);" d="M191.5,125.4c-5.1-4.1-9.4-7.7-9.9-8.5
					c-1.7-2.6-1.2-5.7-2.4-7.8c-2-3.6-8.8-10.3-11.4-9.3c-2.8,1.1,1.4,4.8,1.9,7.8c0.4,2.1-0.2,3.3-1.8,3.1c-1-0.1-2.6-1.1-3.8-1.8
					c-1.4-0.9-3.4-0.4-4,1.2c0,0,0,0.1,0,0.1c-0.6,1.7,0.9,3.2,0.6,5.9c-0.3,2.4,0,5.7,0.3,6.9c0.3,1.2,4.4,4.4,6.7,6
					c2.4,1.6,6.9,0.3,8.1,0.6c0.9,0.2,7.5,6.9,13.4,12.9C189.4,136.7,190,131,191.5,125.4L191.5,125.4z"/>
				
					<linearGradient id="SVGID_00000111871640752826555840000016430910075546266506_" gradientUnits="userSpaceOnUse" x1="-736.8762" y1="76.5565" x2="-792.1862" y2="109.2765" gradientTransform="matrix(1 0 0 -1 966.8 228)">
					<stop  offset="5.000000e-02" style="stop-color:#202246"/>
					<stop  offset="0.7" style="stop-color:#28377F"/>
				</linearGradient>
				<path style="fill:url(#SVGID_00000111871640752826555840000016430910075546266506_);" d="M179.3,135.5c0-4.2,2.9-14.5,4.6-17.6
					c6.6,5.6,22,18.9,26.3,22.7c0,0,2.4-12.9,4.4-18.9c8.8-0.3,12.7,7.9,13.5,9.9c0,0-2.7,24.5-8.1,30.2c-6.3,6.6-18-4.6-23.3-9.9
					C193.2,148.6,184.3,140.4,179.3,135.5L179.3,135.5z"/>
				
					<linearGradient id="SVGID_00000156553533761947719880000000408696408650085794_" gradientUnits="userSpaceOnUse" x1="-732.8421" y1="17.6296" x2="-693.1221" y2="-212.1704" gradientTransform="matrix(1 0 0 -1 966.8 228)">
					<stop  offset="5.000000e-02" style="stop-color:#202246"/>
					<stop  offset="0.7" style="stop-color:#28377F"/>
				</linearGradient>
				<path style="fill:url(#SVGID_00000156553533761947719880000000408696408650085794_);" d="M261.2,216.4
					c3.5,37.2,2.2,87.6,3.5,135.5c0.4,13,1.1,37.6,0.7,39.4c-0.7,3.1-23.7,0.8-27.8-8.1c0.3-4.6-0.9-113.1-2.9-121.2
					c-2.4-10.1-7.1-44.8-7.1-44.8S260.1,204.1,261.2,216.4L261.2,216.4z"/>
				
					<linearGradient id="SVGID_00000029008164242430142560000002949809478120728979_" gradientUnits="userSpaceOnUse" x1="-764.1025" y1="170.3482" x2="-729.9225" y2="124.4782" gradientTransform="matrix(1 0 0 -1 966.8 228)">
					<stop  offset="0.22" style="stop-color:#EEC4C1"/>
					<stop  offset="1" style="stop-color:#E6A598"/>
				</linearGradient>
				<path style="fill:url(#SVGID_00000029008164242430142560000002949809478120728979_);" d="M243.7,98.1c0,0-7.7-10.7-9.6-18.8
					s1.5-21-11.9-27.5c-13.3-6.5-22.6,5-25.2,8.4c-1.4,1.8-1.9,5.5-2.1,8.9c-0.1,3,5.9,24.6,13.7,32.2c2.5,2.4,7.7-2,8.9-3.1
					c0,0,2,4.4,2.6,9.2C220.2,107.4,243.9,109.4,243.7,98.1L243.7,98.1z"/>
				
					<linearGradient id="SVGID_00000125582674314605467200000000921995274882268330_" gradientUnits="userSpaceOnUse" x1="-759.5493" y1="132.048" x2="-750.1493" y2="135.338" gradientTransform="matrix(1 0 0 -1 966.8 228)">
					<stop  offset="0" style="stop-color:#E6A598;stop-opacity:0"/>
					<stop  offset="0.98" style="stop-color:#E6A598"/>
				</linearGradient>
				<path style="fill:url(#SVGID_00000125582674314605467200000000921995274882268330_);" d="M212,86.8c-0.9,0.5,1.3,16-4.5,13.1
					c0.4,0.5,0.8,0.9,1.3,1.4c2.5,2.4,7.7-2,8.9-3.1C217.6,98.1,213,86.3,212,86.8L212,86.8z"/>
				
					<linearGradient id="SVGID_00000018198114655084117110000009022166870606696072_" gradientUnits="userSpaceOnUse" x1="-783.1511" y1="213.0093" x2="-753.9312" y2="165.3893" gradientTransform="matrix(1 0 0 -1 966.8 228)">
					<stop  offset="7.000000e-02" style="stop-color:#945139"/>
					<stop  offset="1" style="stop-color:#361810"/>
				</linearGradient>
				<path style="fill:url(#SVGID_00000018198114655084117110000009022166870606696072_);" d="M223.2,86.5c-5.4-0.4-8.1-4.6-8.5-6.9
					c-0.6-4.3-3.1-5.7-4.4-5.3c-2.2,0.6-2.3,2.6-2,5.3c0.1,0.5-1.1,0.6-1.5,0.6c-0.6,0-1-7.2-6.3-7.7c-1.8-0.2-1.2-5.1-3.1-6.8
					c-0.4-0.3-1.7-0.4-2.1,0.3c-1.9-1.2-3.6-4.1-2.7-6c3.7-7.5,19.4-14.3,30-9.1c13.3,6.5,9.6,20.3,11.5,28.4c0.2,1,0.6,2.1,1,3.2
					C232.5,82,227.2,86.8,223.2,86.5L223.2,86.5z"/>
				
					<linearGradient id="SVGID_00000149346644063400405220000005267797323484221857_" gradientUnits="userSpaceOnUse" x1="349.21" y1="113.8352" x2="414.7902" y2="113.8352" gradientTransform="matrix(-1 0 0 -1 539.1899 228)">
					<stop  offset="0" style="stop-color:#FFFFFF"/>
					<stop  offset="1" style="stop-color:#C7C7C7"/>
				</linearGradient>
				<path style="fill:url(#SVGID_00000149346644063400405220000005267797323484221857_);" d="M149.8,128.3c0,0-25.3-31.1-25.4-31.5
					c-0.1-0.4,30-13.1,30.8-12.6c3.9,10.2,22.4,32.3,34.8,44.2c-0.7-0.2-25.5,14.5-27.1,15.6C162.1,144.7,149.8,128.3,149.8,128.3
					L149.8,128.3z"/>
				
					<linearGradient id="SVGID_00000064332507352078729360000015454625774966896515_" gradientUnits="userSpaceOnUse" x1="-750.7294" y1="39.6794" x2="-744.1094" y2="-68.6006" gradientTransform="matrix(1 0 0 -1 966.8 228)">
					<stop  offset="5.000000e-02" style="stop-color:#202246"/>
					<stop  offset="0.7" style="stop-color:#28377F"/>
				</linearGradient>
				<path style="fill:url(#SVGID_00000064332507352078729360000015454625774966896515_);" d="M241.7,212.7c0,0-5.8,49.9-7.2,105.5
					c-0.3,12.2,0.4,82.4,0.1,84.2c-0.3,1.9-22.9,2.7-30.2-10.5c-1.2-2.2-3.5-169.6-3.5-169.6S223.1,217.1,241.7,212.7L241.7,212.7z"
					/>
				
					<linearGradient id="SVGID_00000063625987835810582580000010905627812309055107_" gradientUnits="userSpaceOnUse" x1="-721.0397" y1="-60.44" x2="-751.4197" y2="133.53" gradientTransform="matrix(1 0 0 -1 966.8 228)">
					<stop  offset="5.000000e-02" style="stop-color:#202246"/>
					<stop  offset="0.7" style="stop-color:#28377F"/>
				</linearGradient>
				<path style="fill:url(#SVGID_00000063625987835810582580000010905627812309055107_);" d="M219.6,104c5.6-3.3,17.7-2,21.1-10.6
					c0,0,15.1,1.9,18.7,56.3c1.5,22.1,2.4,45.7,6.7,72.5c0.3,1.7-3,7.4-20.5,13.2c-18,5.9-45.3,0.5-46.1-11
					c-1.3-19.6-3.8-57.4,1.9-81.5S213.9,107.3,219.6,104L219.6,104z"/>
				
					<linearGradient id="SVGID_00000116935731082202715560000018098231503106401177_" gradientUnits="userSpaceOnUse" x1="-829.9843" y1="108.3451" x2="-795.5143" y2="77.9651" gradientTransform="matrix(1 0 0 -1 966.8 228)">
					<stop  offset="0.22" style="stop-color:#EEC4C1"/>
					<stop  offset="1" style="stop-color:#E6A598"/>
				</linearGradient>
				<path style="fill:url(#SVGID_00000116935731082202715560000018098231503106401177_);" d="M179.6,151.6
					c-6.1-4.6-11.4-8.7-12.1-9.9c-1.7-2.8-0.8-4.4-1.8-6.9c-0.9-2.5-5.7-12.9-7.4-13.1c-3.1-0.4-1.5,3.6-1.2,6.8
					c0.2,2.3-0.5,3.5-2.2,3.1c-1.7-0.4-7.2-6-7.2-6c-0.5,0.1-1.7,0.7-1.8,3.5c-0.1,1.9,1.6,4.6,1,7.4c-0.5,2.5-0.6,6-0.3,7.3
					c0.2,1.3,4.2,5.1,6.5,7c2.3,1.9,6.5,2.3,7.8,2.7c1,0.3,9.4,8.2,16,14.7C177.4,162.6,178.3,157,179.6,151.6L179.6,151.6z"/>
				
					<linearGradient id="SVGID_00000054957065845656942900000013946138370404542870_" gradientUnits="userSpaceOnUse" x1="-781.5089" y1="37.9397" x2="-749.179" y2="152.8397" gradientTransform="matrix(1 0 0 -1 966.8 228)">
					<stop  offset="5.000000e-02" style="stop-color:#202246"/>
					<stop  offset="0.7" style="stop-color:#28377F"/>
				</linearGradient>
				<path style="fill:url(#SVGID_00000054957065845656942900000013946138370404542870_);" d="M169.4,142.7
					c6.3,4.6,27.3,16.9,30.1,19.7c0,0,6.8-32.4,11-40.6c4.2-8.3,14.5-1.8,16.3,8.7c2.1,12-7.3,56.7-14.2,61.7
					c-7.9,5.5-42.9-26.6-48.1-31.3C164.4,152.3,166.7,145.8,169.4,142.7L169.4,142.7z"/>
			</g>
			<g>
				
					<linearGradient id="SVGID_00000064330750453909848740000008956752101377957260_" gradientUnits="userSpaceOnUse" x1="45.18" y1="129.8498" x2="85.9" y2="129.8498" gradientTransform="matrix(1 0 0 -1 0 228)">
					<stop  offset="0" style="stop-color:#FFFFFF"/>
					<stop  offset="1" style="stop-color:#C7C7C7"/>
				</linearGradient>
				<path style="fill:url(#SVGID_00000064330750453909848740000008956752101377957260_);" d="M56.6,124.4c-2,0-3.8-0.5-5.4-1.4
					c-3.9-2.2-6-6.9-6-13.2l0,0l0,0c0-12.9,9.1-28.6,20.2-35c5.4-3.2,10.6-3.7,14.5-1.4c3.9,2.2,6,6.9,6,13.2
					c0,12.9-9.1,28.6-20.2,35C62.5,123.4,59.4,124.4,56.6,124.4L56.6,124.4z"/>
				<path class="st20" d="M91.1,130.2c0-1,0.7-2.2,1.5-2.6c0.8-0.5,1.5-0.1,1.5,0.9c0,1-0.7,2.1-1.5,2.6
					C91.8,131.6,91.1,131.2,91.1,130.2z"/>
				<path class="st20" d="M126.5,88.3c0-1,0.7-2.2,1.5-2.6c0.8-0.5,1.5-0.1,1.5,0.9s-0.7,2.2-1.5,2.6
					C127.2,89.7,126.5,89.3,126.5,88.3z"/>
				
					<linearGradient id="SVGID_00000011030710577965563050000013594900510255510205_" gradientUnits="userSpaceOnUse" x1="114.3" y1="196.7798" x2="155.02" y2="196.7798" gradientTransform="matrix(1 0 0 -1 0 228)">
					<stop  offset="0" style="stop-color:#FFFFFF"/>
					<stop  offset="1" style="stop-color:#C7C7C7"/>
				</linearGradient>
				<path style="fill:url(#SVGID_00000011030710577965563050000013594900510255510205_);" d="M125.7,57.4c-2,0-3.8-0.5-5.4-1.4
					c-3.9-2.2-6-6.9-6-13.2l0,0l0,0c0-12.9,9.1-28.6,20.2-35c5.4-3.2,10.6-3.7,14.5-1.4c3.9,2.2,6,6.9,6,13.2
					c0,12.9-9.1,28.6-20.2,35C131.6,56.5,128.5,57.4,125.7,57.4z"/>
				<g>
					<polygon class="st22" points="73.2,97.2 69.2,94.9 75.2,98.3 79.1,100.6 					"/>
					<g>
						<path class="st22" d="M76.6,81.4l-3.9-2.3c0.9-0.5,1.8-0.6,2.5-0.2l3.9,2.3C78.4,80.8,77.5,80.9,76.6,81.4L76.6,81.4z"/>
					</g>
					<path class="st22" d="M76.6,81.4l-3.9-2.3c0.9-0.5,1.8-0.6,2.5-0.2l3.9,2.3C78.4,80.8,77.5,80.9,76.6,81.4z"/>
					<g>
						<path class="st22" d="M57.3,118.9l-3.9-2.3c-1.4-0.8-1.4-3.3,0-5.7l3.9,2.3C55.9,115.6,55.9,118.1,57.3,118.9L57.3,118.9z"/>
					</g>
					<path class="st22" d="M57.3,118.9l-3.9-2.3c-1.4-0.8-1.4-3.3,0-5.7l3.9,2.3C55.9,115.6,55.9,118.1,57.3,118.9z"/>
					<polygon class="st22" points="57.3,113.2 53.3,110.9 59.3,100.6 63.2,102.9 					"/>
					<polygon class="st22" points="68.2,94.3 64.2,92.1 70.2,81.8 74.1,84 					"/>
					<g>
						<path class="st22" d="M74.1,84l-3.9-2.3c0.7-1.2,1.6-2.1,2.5-2.6l3.9,2.3C75.7,82,74.8,82.9,74.1,84L74.1,84L74.1,84z"/>
					</g>
					<path class="st22" d="M74.1,84l-3.9-2.3c0.7-1.2,1.6-2.1,2.5-2.6l3.9,2.3C75.7,82,74.8,82.9,74.1,84L74.1,84z"/>
					<polygon class="st22" points="62.2,90.9 58.3,88.6 64.2,92.1 68.2,94.3 					"/>
					<path class="st23" d="M76.6,81.4c0.9-0.5,1.8-0.6,2.5-0.2c1.4,0.8,1.4,3.3,0,5.7l-5.9,10.3l6,3.4c1.4,0.8,1.4,3.3,0,5.7
						c-0.7,1.2-1.6,2.1-2.5,2.6c-0.9,0.5-1.8,0.6-2.5,0.2l-6-3.4l-5.9,10.3c-0.7,1.2-1.6,2.1-2.5,2.6c-0.9,0.5-1.8,0.6-2.5,0.2
						c-1.4-0.8-1.4-3.3,0-5.7l5.9-10.3l-6-3.4c-1.4-0.8-1.4-3.3,0-5.7c0.7-1.2,1.6-2.1,2.5-2.6c0.9-0.5,1.8-0.6,2.5-0.2l6,3.4
						L74.2,84C74.8,82.8,75.7,81.9,76.6,81.4L76.6,81.4z"/>
					<g>
						<path class="st22" d="M57.2,99.5l-3.9-2.3c-1.4-0.8-1.4-3.3,0-5.7c0.7-1.2,1.6-2.1,2.5-2.6c0.9-0.5,1.8-0.6,2.5-0.2l3.9,2.3
							c-0.7-0.4-1.6-0.3-2.5,0.2s-1.8,1.4-2.5,2.6C55.9,96.2,55.9,98.7,57.2,99.5L57.2,99.5z"/>
					</g>
					<path class="st22" d="M57.2,99.5l-3.9-2.3c-1.4-0.8-1.4-3.3,0-5.7c0.7-1.2,1.6-2.1,2.5-2.6c0.9-0.5,1.8-0.6,2.5-0.2l3.9,2.3
						c-0.7-0.4-1.6-0.3-2.5,0.2s-1.8,1.4-2.5,2.6C55.9,96.2,55.9,98.7,57.2,99.5z"/>
				</g>
				
					<rect x="82.8" y="110.2" transform="matrix(0.6086 -0.7935 0.7935 0.6086 -64.0848 113.5987)" class="st20" width="0.6" height="23.1"/>
				
					<rect x="114.6" y="70.9" transform="matrix(0.1613 -0.9869 0.9869 0.1613 39.3162 188.5582)" class="st20" width="32.1" height="0.6"/>
				<g>
					<g>
						<path class="st24" d="M132.2,49l-3.6-2.1c-0.1-0.1-0.3-0.2-0.4-0.3l3.6,2.1C131.9,48.8,132.1,48.9,132.2,49L132.2,49z"/>
					</g>
					<path class="st24" d="M132.2,49l-3.6-2.1c-0.1-0.1-0.3-0.2-0.4-0.3l3.6,2.1C131.9,48.8,132.1,48.9,132.2,49z"/>
					<g>
						<path class="st24" d="M145.2,17.1l-3.6-2.1c0.6-0.4,1.3-0.5,1.8-0.4c0.2,0,0.3,0.1,0.5,0.2l3.6,2.1c-0.1-0.1-0.3-0.1-0.5-0.2
							C146.4,16.6,145.8,16.7,145.2,17.1L145.2,17.1z"/>
					</g>
					<path class="st24" d="M143.8,14.7l3.6,2.1c-0.1-0.1-0.3-0.1-0.5-0.2c-0.6-0.1-1.2,0-1.8,0.4l-3.6-2.1c0.6-0.4,1.3-0.5,1.8-0.4
						C143.5,14.6,143.7,14.7,143.8,14.7z"/>
					<polygon class="st24" points="134.5,38.4 130.8,36.3 138.8,18.1 142.5,20.2 					"/>
					<g>
						<path class="st24" d="M142.5,20.2l-3.6-2.1c0.6-1.4,1.6-2.6,2.7-3.2l3.6,2.1C144.1,17.7,143.1,18.8,142.5,20.2L142.5,20.2z"/>
					</g>
					<path class="st24" d="M142.5,20.2l-3.6-2.1c0.6-1.4,1.6-2.6,2.7-3.2l3.6,2.1C144.1,17.7,143.1,18.8,142.5,20.2z"/>
					<polygon class="st24" points="131.8,48.7 128.2,46.5 121.5,39.2 125.1,41.4 					"/>
					<g>
						<path class="st24" d="M125.1,41.4l-3.6-2.1c-1-1.1-0.6-3.7,0.8-5.7c0.6-0.8,1.2-1.4,1.8-1.7c0.9-0.5,1.7-0.6,2.3-0.2l3.6,2.1
							c-0.6-0.4-1.5-0.3-2.3,0.2c-0.6,0.4-1.3,1-1.8,1.7C124.5,37.7,124.1,40.2,125.1,41.4C125.1,41.4,125.1,41.4,125.1,41.4z"/>
					</g>
					<path class="st24" d="M126.4,31.6l3.6,2.1c-0.6-0.4-1.5-0.3-2.3,0.2c-0.6,0.4-1.3,1-1.8,1.7c-1.5,2-1.9,4.6-0.8,5.7l-3.6-2.1
						c-1-1.1-0.6-3.7,0.8-5.7c0.6-0.8,1.2-1.3,1.8-1.7C125,31.4,125.8,31.3,126.4,31.6z"/>
					<path class="st25" d="M145.2,17.1c0.6-0.4,1.3-0.5,1.8-0.4c1.5,0.3,1.9,2.4,0.9,4.7l-10.7,24.2c-0.6,1.4-1.6,2.5-2.7,3.2
						c-1.1,0.6-2.1,0.6-2.7-0.1l-6.7-7.3c-1-1.1-0.6-3.7,0.8-5.7c0.6-0.8,1.2-1.4,1.8-1.7c1-0.6,2.1-0.6,2.7,0.1l4,4.4l8-18.1
						C143.1,18.8,144.1,17.7,145.2,17.1L145.2,17.1z"/>
				</g>
			</g>
		</g>
	</g>
</g>
</svg>
