<?xml version="1.0" encoding="UTF-8"?>
<svg xmlns="http://www.w3.org/2000/svg" xmlns:xlink="http://www.w3.org/1999/xlink" viewBox="0 0 188.12 203.77">
  <defs>
    <style>
      .cls-1 {
        clip-path: url(#clippath);
      }

      .cls-2 {
        fill: none;
      }

      .cls-2, .cls-3, .cls-4, .cls-5, .cls-6, .cls-7, .cls-8, .cls-9, .cls-10, .cls-11, .cls-12, .cls-13, .cls-14, .cls-15, .cls-16, .cls-17, .cls-18, .cls-19, .cls-20, .cls-21, .cls-22, .cls-23, .cls-24, .cls-25, .cls-26 {
        stroke-width: 0px;
      }

      .cls-3 {
        fill: url(#_名称未設定グラデーション_5-3);
      }

      .cls-4 {
        fill: url(#_名称未設定グラデーション_5-2);
      }

      .cls-5 {
        fill: url(#Degradado_sin_nombre_4);
      }

      .cls-6 {
        fill: url(#Degradado_sin_nombre_3);
      }

      .cls-7 {
        fill: url(#Degradado_sin_nombre_2);
      }

      .cls-8 {
        fill: url(#_名称未設定グラデーション_5);
      }

      .cls-27 {
        isolation: isolate;
      }

      .cls-9 {
        fill: url(#Degradado_sin_nombre_2-4);
      }

      .cls-10 {
        fill: url(#Degradado_sin_nombre_2-5);
      }

      .cls-11 {
        fill: url(#Degradado_sin_nombre_2-3);
      }

      .cls-12 {
        fill: url(#Degradado_sin_nombre_2-2);
      }

      .cls-13 {
        fill: url(#Degradado_sin_nombre_3-3);
      }

      .cls-14 {
        fill: url(#Degradado_sin_nombre_3-2);
      }

      .cls-15 {
        fill: #f3ba55;
      }

      .cls-16 {
        fill: #48996b;
      }

      .cls-17 {
        fill: #792f52;
      }

      .cls-18 {
        fill: #54b479;
      }

      .cls-19 {
        fill: #e35d57;
      }

      .cls-20 {
        fill: #bd3928;
      }

      .cls-21 {
        fill: #b5b7f7;
      }

      .cls-22 {
        fill: #8c3e64;
      }

      .cls-23 {
        fill: #fff;
      }

      .cls-24 {
        fill: #efefef;
      }

      .cls-25 {
        fill: #f1a351;
      }

      .cls-26 {
        fill: url(#Degradado_sin_nombre_5);
        mix-blend-mode: multiply;
      }
    </style>
    <clipPath id="clippath">
      <path class="cls-2" d="M147.11,0C105.72,0,24.07,41.24,3.92,78.18c-5.67,10.38-5.19,20.85,1.41,31.09l.04.05c15.75,18.4,25.69,35.23,34.47,50.08,15.78,26.71,26.21,44.36,56.2,44.36,45.84,0,73.37-6.43,92.09-17.38V9.45c-12.97-5.59-27.24-9.45-41.01-9.45Z"/>
    </clipPath>
    <linearGradient id="Degradado_sin_nombre_3" data-name="Degradado sin nombre 3" x1="-851.96" y1="100.3" x2="-838.56" y2="116.82" gradientTransform="translate(966.8)" gradientUnits="userSpaceOnUse">
      <stop offset=".22" stop-color="#eec4c1"/>
      <stop offset="1" stop-color="#e6a598"/>
    </linearGradient>
    <linearGradient id="Degradado_sin_nombre_2" data-name="Degradado sin nombre 2" x1="-793.2" y1="143.54" x2="-835.47" y2="118.54" gradientTransform="translate(966.8)" gradientUnits="userSpaceOnUse">
      <stop offset=".05" stop-color="#202246"/>
      <stop offset=".7" stop-color="#28377f"/>
    </linearGradient>
    <linearGradient id="Degradado_sin_nombre_2-2" data-name="Degradado sin nombre 2" x1="-790.12" y1="188.57" x2="-759.75" y2="364.18" xlink:href="#Degradado_sin_nombre_2"/>
    <linearGradient id="Degradado_sin_nombre_3-2" data-name="Degradado sin nombre 3" x1="-814" y1="71.86" x2="-787.88" y2="106.91" xlink:href="#Degradado_sin_nombre_3"/>
    <linearGradient id="Degradado_sin_nombre_5" data-name="Degradado sin nombre 5" x1="-810.52" y1="101.13" x2="-803.34" y2="98.62" gradientTransform="translate(966.8)" gradientUnits="userSpaceOnUse">
      <stop offset="0" stop-color="#e6a598" stop-opacity="0"/>
      <stop offset=".98" stop-color="#e6a598"/>
    </linearGradient>
    <linearGradient id="Degradado_sin_nombre_4" data-name="Degradado sin nombre 4" x1="-828.56" y1="39.26" x2="-806.23" y2="75.65" gradientTransform="translate(966.8)" gradientUnits="userSpaceOnUse">
      <stop offset=".07" stop-color="#945139"/>
      <stop offset="1" stop-color="#361810"/>
    </linearGradient>
    <linearGradient id="_名称未設定グラデーション_5" data-name="名称未設定グラデーション 5" x1="-3327.53" y1="115.05" x2="-3277.42" y2="115.05" gradientTransform="translate(-3184.46) rotate(-180) scale(1 -1)" gradientUnits="userSpaceOnUse">
      <stop offset="0" stop-color="#fff"/>
      <stop offset="1" stop-color="#c7c7c7"/>
    </linearGradient>
    <linearGradient id="Degradado_sin_nombre_2-3" data-name="Degradado sin nombre 2" x1="-803.78" y1="171.72" x2="-798.72" y2="254.47" xlink:href="#Degradado_sin_nombre_2"/>
    <linearGradient id="Degradado_sin_nombre_2-4" data-name="Degradado sin nombre 2" x1="-781.09" y1="248.23" x2="-804.31" y2="100" xlink:href="#Degradado_sin_nombre_2"/>
    <linearGradient id="Degradado_sin_nombre_3-3" data-name="Degradado sin nombre 3" x1="-864.35" y1="119.24" x2="-838.01" y2="142.46" xlink:href="#Degradado_sin_nombre_3"/>
    <linearGradient id="Degradado_sin_nombre_2-5" data-name="Degradado sin nombre 2" x1="-827.3" y1="173.05" x2="-802.6" y2="85.24" xlink:href="#Degradado_sin_nombre_2"/>
    <linearGradient id="_名称未設定グラデーション_5-2" data-name="名称未設定グラデーション 5" x1="51.62" y1="82.48" x2="82.74" y2="82.48" gradientTransform="matrix(1,0,0,1,0,0)" xlink:href="#_名称未設定グラデーション_5"/>
    <linearGradient id="_名称未設定グラデーション_5-3" data-name="名称未設定グラデーション 5" x1="104.44" y1="31.33" x2="135.55" y2="31.33" gradientTransform="matrix(1,0,0,1,0,0)" xlink:href="#_名称未設定グラデーション_5"/>
  </defs>
  <g class="cls-27">
    <g id="_レイヤー_2" data-name="レイヤー 2">
      <g id="m">
        <g class="cls-1">
          <path class="cls-23" d="M3.92,78.18c-5.67,10.38-5.19,20.85,1.41,31.09l.04.05c15.75,18.4,25.69,35.23,34.47,50.08,15.78,26.71,26.21,44.36,56.2,44.36,45.84,0,73.37-6.43,92.09-17.38V16.53c-8.49-1.53-17.94-2.29-28.41-2.29C118.33,14.24,24.07,41.24,3.92,78.18Z"/>
          <g>
            <g>
              <rect class="cls-24" x="115.11" y="173.47" width="3.88" height="9.17"/>
              <rect class="cls-24" x="121.11" y="168.98" width="3.88" height="13.66"/>
              <rect class="cls-24" x="127.1" y="162.79" width="3.88" height="19.85"/>
              <rect class="cls-24" x="133.09" y="171.47" width="3.88" height="11.17"/>
            </g>
            <g>
              <rect class="cls-24" x="105.52" y="64.72" width="3.88" height="9.17"/>
              <rect class="cls-24" x="111.51" y="60.23" width="3.88" height="13.66"/>
              <rect class="cls-24" x="117.5" y="54.04" width="3.88" height="19.85"/>
              <rect class="cls-24" x="123.5" y="62.72" width="3.88" height="11.17"/>
            </g>
            <g>
              <path class="cls-24" d="M65.95,162.88l-9.66-3.37c-.38,1.08-.57,2.22-.57,3.37,0,5.61,4.62,10.23,10.23,10.23,1.85,0,3.67-.5,5.26-1.46l-5.26-8.77Z"/>
              <path class="cls-24" d="M66.48,162.69l5.33,8.73c1.5-.91,2.73-2.2,3.59-3.72.86-1.53,1.31-3.25,1.31-5h-10.23Z"/>
              <path class="cls-24" d="M66.54,162.2l10.23-.14c-.02-1.39-.32-2.76-.89-4.04-.57-1.27-1.39-2.41-2.41-3.35l-6.92,7.53Z"/>
            </g>
            <g>
              <polygon class="cls-24" points="90.4 182.44 86.32 190.77 78.91 181.53 72.23 190.09 67.31 184.77 66.56 185.46 72.3 191.67 78.92 183.18 86.53 192.67 91.17 183.2 90.4 182.44"/>
              <path class="cls-24" d="M87.8,191.72c0-.72-.59-1.31-1.31-1.31s-1.31.59-1.31,1.31.59,1.31,1.31,1.31,1.31-.59,1.31-1.31Z"/>
              <path class="cls-24" d="M92.13,182.44c0-.72-.59-1.31-1.31-1.31s-1.31.59-1.31,1.31.59,1.31,1.31,1.31,1.31-.59,1.31-1.31Z"/>
              <circle class="cls-24" cx="78.86" cy="182.44" r="1.31"/>
              <circle class="cls-24" cx="72.42" cy="190.72" r="1.31"/>
              <path class="cls-24" d="M68.53,185.36c0-.72-.59-1.31-1.31-1.31s-1.31.59-1.31,1.31.59,1.31,1.31,1.31,1.31-.59,1.31-1.31Z"/>
            </g>
            <g>
              <polygon class="cls-24" points="152.13 86.24 148.05 94.57 140.64 85.33 133.96 93.89 129.03 88.57 128.28 89.26 134.02 95.47 140.65 86.98 148.26 96.47 152.9 87.01 152.13 86.24"/>
              <path class="cls-24" d="M149.52,95.52c0-.72-.59-1.31-1.31-1.31s-1.31.59-1.31,1.31.59,1.31,1.31,1.31,1.31-.59,1.31-1.31Z"/>
              <path class="cls-24" d="M153.86,86.24c0-.72-.59-1.31-1.31-1.31s-1.31.59-1.31,1.31.59,1.31,1.31,1.31,1.31-.59,1.31-1.31Z"/>
              <circle class="cls-24" cx="140.59" cy="86.24" r="1.31"/>
              <circle class="cls-24" cx="134.15" cy="94.52" r="1.31"/>
              <path class="cls-24" d="M130.26,89.17c0-.72-.59-1.31-1.31-1.31s-1.31.59-1.31,1.31.59,1.31,1.31,1.31,1.31-.59,1.31-1.31Z"/>
            </g>
            <path class="cls-24" d="M57.48,64.75c-1.57,1.97-1.55,4.85.05,6.79,1.82,2.21,4.94,2.57,7.19,1.07l3.46,3.46c.15.15.38.15.53,0l.97-.97c.15-.15.15-.38,0-.53l-3.46-3.46c1.4-2.1,1.18-4.97-.68-6.83-2.25-2.25-6.02-2.1-8.07.46ZM64.04,70.44c-1.28,1.28-3.37,1.28-4.65,0-1.28-1.28-1.28-3.37,0-4.65,1.28-1.28,3.37-1.28,4.65,0,1.28,1.28,1.28,3.37,0,4.65Z"/>
            <path class="cls-24" d="M93.73,168.32c-1.57,1.97-1.55,4.85.05,6.79,1.82,2.21,4.94,2.57,7.19,1.07l3.46,3.46c.15.15.38.15.53,0l.97-.97c.15-.15.15-.38,0-.53l-3.46-3.46c1.4-2.1,1.18-4.97-.68-6.83-2.25-2.25-6.02-2.1-8.07.46ZM100.29,174.01c-1.28,1.28-3.37,1.28-4.65,0-1.28-1.28-1.28-3.37,0-4.65,1.28-1.28,3.37-1.28,4.65,0,1.28,1.28,1.28,3.37,0,4.65Z"/>
            <g id="Layer0_8_FILL" data-name="Layer0 8 FILL">
              <path class="cls-22" d="M70.27,71.78c-.02.09-.11.57-.25,1.45-.16.91.06,2.3.67,4.16.58,1.87,2.05,3.19,4.41,3.95,2.35.79,4.44,1.59,6.27,2.39,1.8.84,4.02,1.44,6.65,1.82,2.62.41,6.28-.04,10.97-1.34,4.72-1.31,10.2-1.55,16.44-.71,3.91,1.73,7.85,1.31,11.84-1.26,3.99-2.55,6.1-5.31,6.32-8.27.16-2.97-.29-4.77-1.34-5.39-1.14-.62-1.7-.98-1.67-1.07-2.15-.59-4.59-1.04-7.35-1.36-4.75-.61-8.99-.89-12.73-.86-3.73.06-7.55.18-11.46.34-3.88.18-7.37.81-10.47,1.9-3.09,1.11-6.47,1.96-10.14,2.56-3.63.61-6.36,1.17-8.17,1.68Z"/>
              <path class="cls-17" d="M65.07,74.11c-.97.64-1.87,1.34-2.69,2.12-1.45,1.46-1.44,3.16.04,5.09,1.51,1.92,2.99,3.29,4.46,4.1,1.47.81,3.17,1.41,5.12,1.8,1.87.39,3.03.64,3.5.75,3.9.64,8.4,1.31,13.5,2.01,9.49,1.29,16.5,1.95,21.01,1.99,3.59.01,7.68-.18,12.26-.6,4.55-.35,8.67-.84,12.37-1.48,3.68-.63,7.52-1.55,11.51-2.77,4.03-1.2,6.54-2.18,7.52-2.96.98-.77.68-1.91-.9-3.4-1.53-1.49-2.71-2.59-3.56-3.31-.82-.72-2.69-2.01-5.59-3.85-2.97-1.82-5.93-3.39-8.88-4.72-1.26-.5-2.65-.96-4.18-1.38-.02.09.53.44,1.67,1.07,1.06.62,1.51,2.42,1.34,5.39-.22,2.96-2.32,5.72-6.32,8.27-3.99,2.58-7.93,3-11.84,1.26-6.24-.84-11.72-.61-16.44.71-4.69,1.31-8.35,1.75-10.97,1.34-2.64-.38-4.86-.98-6.65-1.82-1.84-.8-3.93-1.59-6.27-2.39-2.36-.76-3.83-2.08-4.41-3.95-.6-1.87-.83-3.25-.67-4.16.14-.88.23-1.36.25-1.45-1.03.31-1.9.62-2.63.93-.95.39-1.8.85-2.56,1.39Z"/>
            </g>
            <g id="Layer0_9_FILL" data-name="Layer0 9 FILL">
              <path class="cls-25" d="M51.35,114.22c-.69-.89-1.4-1.69-2.14-2.41-1.99-1.96-4.19-3.27-6.61-3.94-1.63-.51-3.02-.8-4.16-.88-1.15-.13-2.04-.04-2.67.27-.23.1-.45.24-.65.42-.97.82-2.01,2.5-3.13,5.04-1.1,2.52-.94,6.08.46,10.66,1.43,4.59,3.95,7.31,7.57,8.18,3.62.84,6.09,1.15,7.41.92.92-.15,1.57-.28,1.95-.38.25-.15.5-.31.73-.46.89-.61,1.64-1.24,2.25-1.87.76-.84,1.24-2.25,1.41-4.24.18-.69.37-1.57.57-2.64.48-2.47-.51-5.36-2.98-8.67M47.87,113.15v.04c.66.64,1.31,1.36,1.95,2.18,2.06,2.75,2.94,5.13,2.64,7.15-.2,1.02-.39,1.87-.57,2.56-.03.1-.04.2-.04.31-.13,1.43-.42,2.46-.88,3.1-.53.53-1.18,1.07-1.95,1.6h-.04c-.1.08-.22.15-.34.23-.36.08-.87.18-1.53.31-1.2.15-3.41-.14-6.65-.88-2.95-.79-5.02-3.09-6.19-6.92v.04c-1.22-4.02-1.4-7.15-.53-9.36.94-2.19,1.81-3.64,2.6-4.36h.04c.05-.05.11-.09.19-.11,0-.03.01-.04.04-.04.38-.13.93-.15,1.64-.08h.08c1.02.08,2.25.34,3.71.8.03,0,.05,0,.08,0,2.11.59,4.04,1.73,5.77,3.44Z"/>
              <path class="cls-15" d="M47.87,113.19v-.04c-1.73-1.71-3.66-2.85-5.77-3.44-.03,0-.05,0-.08,0-1.45-.46-2.69-.73-3.71-.8h-.08c-.71-.08-1.26-.05-1.64.08-.03,0-.04.01-.04.04-.08.03-.14.06-.19.11h-.04c-.79.71-1.66,2.17-2.6,4.36-.87,2.22-.69,5.34.53,9.36v-.04c1.17,3.82,3.24,6.13,6.19,6.92,3.24.74,5.45,1.03,6.65.88.66-.13,1.17-.23,1.53-.31.13-.08.24-.15.34-.23h.04c.76-.53,1.41-1.07,1.95-1.6.46-.64.75-1.67.88-3.1,0-.1.01-.2.04-.31.18-.69.37-1.54.57-2.56.31-2.01-.57-4.39-2.64-7.15-.64-.82-1.29-1.54-1.95-2.18Z"/>
              <path class="cls-22" d="M79.51,97.18c.28-.33.43-1.41.46-3.25-.2-.08-.42-.14-.65-.19-.89-.23-1.99-.17-3.29.19-1.15.2-2.25.57-3.32,1.11l-4.81,2.33c-1.4.66-3.32,1.2-5.77,1.6-1.22.18-3.9.52-8.02,1.03-1.63.13-3.86.83-6.69,2.1-3.08,1.35-5.5,2.36-7.26,3.02-1.2.41-2.38.96-3.55,1.64-.28.15-.56.32-.84.5.64-.31,1.53-.39,2.67-.27,1.15.08,2.53.37,4.16.88,2.42.66,4.62,1.97,6.61,3.94,1.99-1.71,4.92-3.13,8.79-4.28,3.03-.89,6.75-1.74,11.16-2.56,1.1-.31,2.39-.97,3.9-1.99,1.66-1.1,2.69-2.08,3.1-2.94.25-.56.66-.94,1.22-1.15.71-.31,1.43-.88,2.14-1.72Z"/>
              <path class="cls-17" d="M83.1,96.3s-.01-.05-.04-.08c-.53-1.02-1.57-1.78-3.09-2.29-.03,1.83-.18,2.92-.46,3.25-.71.84-1.43,1.41-2.14,1.72-.56.2-.97.59-1.22,1.15-.41.87-1.44,1.85-3.1,2.94-1.5,1.02-2.8,1.68-3.9,1.99-4.41.82-8.13,1.67-11.16,2.56-3.87,1.15-6.8,2.57-8.79,4.28.74.71,1.45,1.52,2.14,2.41,2.47,3.31,3.46,6.2,2.98,8.67-.2,1.07-.39,1.95-.57,2.64-.18,1.99-.65,3.4-1.41,4.24-.61.64-1.36,1.26-2.25,1.87,7.41-4.28,12.19-7.45,14.33-9.51,2.14-2.06,4.61-4.28,7.41-6.65,4.53-4.66,7.63-8.66,9.28-12,1.76-3.49,2.5-5.72,2.22-6.69-.08-.15-.15-.32-.23-.5Z"/>
            </g>
            <g id="Layer0_10_FILL" data-name="Layer0 10 FILL">
              <path class="cls-17" d="M117.25,110.64c-.53-.36-1.64-1-3.32-1.92-1.69-.91-2.96-1.61-3.81-2.1-1.53-.04-2.41-.03-2.64.04-1.99.53-4.29,1.94-6.9,4.22-2.61,2.28-3.97,3.44-4.09,3.47-.89.24-1.84.31-2.87.22-1.05-.09-2.38-.38-3.99-.87-.24-.09-.82-.61-1.76-1.55-.81-.84-1.29-1.38-1.46-1.63-1.21-1.68-2.26-3.01-3.13-3.99-.32-.37-.63-.7-.94-1.01v.04c-.64,2.1-.61,4.49.11,7.17.98,3.64,3.74,8.74,8.29,15.3.98,1.48,1.69,2.5,2.13,3.07.48.53,1.81,1.8,3.98,3.8.55.49,1.17.89,1.86,1.2,1.98.81,3.77,1.22,5.35,1.22,1.59.02,3.17-.26,4.72-.83,1.58-.58,3.19-1.42,4.82-2.52,1.63-1.1,3.04-2.25,4.21-3.46,2.45-2.56,3.91-4.62,4.35-6.19.48-1.54.65-3.12.51-4.73-.07-.83-.2-1.58-.41-2.26-.18-.67-.45-1.37-.8-2.12-.36-.74-.8-1.39-1.31-1.94-.49-.57-.96-1.05-1.41-1.44-.43-.4-.93-.8-1.5-1.18M110.91,108.97c1.39.1,3.29,1,5.71,2.7,2.45,1.69,3.9,3.36,4.35,5.01.45,1.65.62,2.64.52,2.98-.07.34-.1.91-.09,1.73,0,.81-.21,1.9-.67,3.26-.45,1.36-1.75,3.16-3.89,5.39-1.03,1.07-2.28,2.07-3.74,3.02-1.43.96-2.92,1.73-4.48,2.31-1.57.55-2.79.85-3.67.91-.85.07-2.27-.12-4.26-.56-1.98-.42-3.82-1.92-5.52-4.5-.73-1.81-1.11-3.11-1.16-3.88-.04-.75.42-2.58,1.38-5.47.95-2.84,2.21-5.08,3.78-6.71h.04c1.02-1.1,1.82-1.96,2.39-2.59.32-.31.87-.86,1.65-1.67.77-.81,1.91-1.36,3.39-1.66,1.49-.29,2.92-.39,4.28-.28Z"/>
              <path class="cls-25" d="M116.61,111.68c-2.42-1.7-4.32-2.6-5.71-2.7-1.36-.11-2.79-.02-4.28.28-1.49.3-2.62.85-3.39,1.66-.78.81-1.33,1.36-1.65,1.67-.57.63-1.37,1.49-2.39,2.58h-.04c-1.57,1.64-2.83,3.88-3.78,6.72-.96,2.9-1.42,4.72-1.38,5.47.04.78.43,2.07,1.16,3.88,1.7,2.58,3.53,4.08,5.52,4.5,1.99.44,3.41.63,4.26.56.88-.05,2.11-.35,3.67-.91,1.56-.58,3.05-1.35,4.48-2.31,1.46-.95,2.71-1.95,3.74-3.02,2.14-2.24,3.44-4.03,3.89-5.39.45-1.36.68-2.45.67-3.26-.01-.81.02-1.39.09-1.73.1-.34-.07-1.34-.52-2.98-.45-1.65-1.9-3.32-4.35-5.01M112.12,114.82c1.51.04,2.68.36,3.5.96.98.69,1.69,1.87,2.14,3.54.69,2.56.39,5.04-.89,7.44-1.49,2.8-4.05,4.68-7.66,5.65-1.43.38-3.15.44-5.18.16-2.61-.38-4.11-1.32-4.51-2.83-.22-.81-.31-2.01-.29-3.6.03-1.64.19-2.77.48-3.37.55-1.31,1.36-2.79,2.45-4.45,1.06-1.66,2.67-2.72,4.84-3.2.41-.03.94-.08,1.58-.15,1.65-.13,2.84-.18,3.56-.16Z"/>
              <path class="cls-15" d="M115.62,115.78c-.82-.6-1.99-.92-3.5-.96-.72-.02-1.9.04-3.56.16-.64.07-1.17.12-1.58.15-2.17.48-3.78,1.54-4.84,3.2-1.08,1.66-1.9,3.15-2.45,4.45-.29.6-.45,1.73-.48,3.37-.02,1.59.07,2.79.29,3.6.4,1.5,1.91,2.44,4.51,2.83,2.03.27,3.75.22,5.18-.16,3.62-.97,6.17-2.85,7.66-5.65,1.28-2.4,1.58-4.88.89-7.44-.45-1.67-1.16-2.85-2.14-3.54Z"/>
              <path class="cls-22" d="M82.33,105.51c.31.31.63.65.94,1.01.87.98,1.91,2.31,3.13,3.99.17.24.66.79,1.46,1.63.94.94,1.52,1.45,1.76,1.55,1.61.49,2.94.78,3.99.87,1.03.09,1.98.02,2.87-.22.12-.03,1.49-1.19,4.09-3.47,2.61-2.28,4.91-3.69,6.9-4.22.23-.06,1.11-.07,2.64-.04-1.14-.68-2.13-1.2-2.96-1.58-1.38-.66-3.28-1.43-5.68-2.31-2.4-.89-4.99-1.43-7.76-1.64-2.73-.24-5.42,0-8.07.74-.16.05-.32.11-.47.17-.44.19-.83.44-1.18.75-.09.08-.16.15-.22.22-.62.61-1.1,1.47-1.45,2.56Z"/>
            </g>
            <g>
              <path class="cls-6" d="M144.24,123.61c-3.91-3.17-7.15-5.85-7.58-6.49-1.31-1.95-.95-4.32-1.88-6-1.5-2.72-6.75-7.88-8.74-7.09-2.11.84,1.05,3.71,1.48,5.98.31,1.64-.13,2.56-1.39,2.4-.75-.09-1.99-.82-2.87-1.39-1.08-.7-2.56-.28-3.03.91,0,.02-.02.04-.02.06-.49,1.29.71,2.42.48,4.49-.21,1.85-.01,4.37.24,5.25.26.89,3.4,3.39,5.12,4.57,1.81,1.24,5.23.26,6.22.44.66.12,5.72,5.26,10.24,9.88.08-4.38.58-8.69,1.72-13.02Z"/>
              <path class="cls-7" d="M134.91,131.35c0-3.2,2.21-11.05,3.51-13.42,5.02,4.26,16.85,14.42,20.08,17.36,0,0,1.81-9.86,3.39-14.44,6.75-.21,9.73,6.02,10.28,7.56,0,0-2.04,18.74-6.19,23.07-4.84,5.05-13.77-3.49-17.83-7.53-2.6-2.59-9.41-8.83-13.24-12.6Z"/>
              <path class="cls-12" d="M197.53,193.14c2.64,28.41,1.66,66.97,2.64,103.54.27,9.95.87,28.77.55,30.11-.55,2.34-18.1.57-21.27-6.16.23-3.55-.72-86.47-2.18-92.64-1.82-7.72-5.45-34.25-5.45-34.25,0,0,24.83-9.94,25.69-.6Z"/>
              <path class="cls-14" d="M184.11,102.8s-5.86-8.19-7.33-14.4c-1.47-6.21,1.12-16.07-9.05-21.05-10.17-4.98-17.24,3.81-19.22,6.4-1.05,1.37-1.45,4.24-1.58,6.81-.12,2.27,4.51,18.77,10.49,24.62,1.92,1.87,5.88-1.54,6.79-2.38,0,0,1.53,3.34,1.97,7.06,0,0,18.12,1.54,17.94-7.06Z"/>
              <path class="cls-26" d="M159.9,94.16c-.67.38.98,12.19-3.44,9.97.32.38.64.73.96,1.05,1.92,1.87,5.88-1.54,6.79-2.38,0,0-3.57-9.06-4.3-8.64Z"/>
              <path class="cls-5" d="M168.45,93.9c-4.13-.27-6.23-3.52-6.49-5.3-.48-3.33-2.34-4.35-3.39-4.07-1.71.45-1.78,1.97-1.52,4.04.05.38-.8.47-1.16.47-.49,0-.76-5.51-4.83-5.9-1.39-.13-.92-3.87-2.34-5.18-.28-.26-1.29-.29-1.58.23-1.46-.9-2.76-3.16-2.06-4.58,2.82-5.74,14.79-10.93,22.94-6.94,10.17,4.98,7.31,15.53,8.77,21.74.19.8.45,1.63.76,2.47-2.01-.42-6.04,3.23-9.1,3.03Z"/>
              <path class="cls-8" d="M112.37,125.87s-19.33-23.8-19.41-24.09c-.07-.29,22.92-9.98,23.52-9.6,3.02,7.8,17.1,24.66,26.59,33.79-.56-.16-19.5,11.08-20.7,11.95-.59.43-10-12.05-10-12.05Z"/>
              <path class="cls-11" d="M182.62,190.33s-4.43,38.12-5.48,80.61c-.23,9.3.3,62.96.08,64.38-.22,1.42-17.52,2.08-23.07-8.07-.9-1.65-2.68-129.57-2.68-129.57,0,0,16.95-3.94,31.16-7.35Z"/>
              <path class="cls-9" d="M165.68,107.29c4.28-2.53,13.53-1.55,16.09-8.07,0,0,11.56,1.47,14.31,43,1.12,16.93,1.85,34.9,5.15,55.41.21,1.29-2.27,5.68-15.69,10.07-13.73,4.49-34.64.38-35.21-8.42-.98-14.98-2.9-43.9,1.47-62.27,4.37-18.37,9.61-27.19,13.88-29.72Z"/>
              <path class="cls-13" d="M135.13,143.66c-4.65-3.54-8.71-6.67-9.26-7.56-1.31-2.11-.65-3.34-1.37-5.24-.73-1.9-4.35-9.84-5.61-9.99-2.39-.29-1.16,2.76-.93,5.2.17,1.76-.39,2.68-1.7,2.39-1.31-.29-5.5-4.55-5.5-4.55-.36.07-1.33.51-1.4,2.65-.05,1.48,1.21,3.51.76,5.67-.4,1.93-.44,4.61-.26,5.56.18.96,3.25,3.91,4.95,5.32,1.79,1.48,4.97,1.75,5.99,2.04.74.21,7.18,6.24,12.22,11.24.43-4.32,1.15-8.59,2.1-12.73Z"/>
              <path class="cls-10" d="M127.38,136.87c4.79,3.47,20.88,12.89,22.99,15.03,0,0,5.2-24.72,8.42-31.04,3.22-6.33,11.06-1.37,12.43,6.62,1.56,9.16-5.55,43.3-10.88,47.18-6.05,4.19-32.79-20.32-36.78-23.89,0-6.55,1.74-11.51,3.83-13.89Z"/>
            </g>
            <g>
              <path class="cls-4" d="M60.33,102.51c-1.5,0-2.88-.35-4.1-1.06-2.97-1.71-4.6-5.31-4.6-10.12h0s0,0,0,0c0-9.84,6.93-21.84,15.45-26.76,4.17-2.41,8.1-2.79,11.06-1.07,2.97,1.71,4.6,5.31,4.6,10.12,0,9.84-6.93,21.84-15.45,26.76-2.45,1.42-4.82,2.13-6.96,2.13Z"/>
              <path class="cls-21" d="M86.73,106.95c0-.74.52-1.64,1.16-2.01.64-.37,1.16-.07,1.16.67s-.52,1.64-1.16,2.01c-.64.37-1.16.07-1.16-.67Z"/>
              <path class="cls-21" d="M113.76,74.98c0-.74.52-1.64,1.16-2.01.64-.37,1.16-.07,1.16.67s-.52,1.64-1.16,2.01c-.64.37-1.16.07-1.16-.67Z"/>
              <path class="cls-3" d="M113.15,51.36c-1.5,0-2.88-.35-4.1-1.06-2.97-1.71-4.6-5.31-4.6-10.12h0s0,0,0,0c0-9.84,6.93-21.84,15.45-26.76,4.17-2.41,8.1-2.79,11.06-1.07,2.97,1.71,4.6,5.31,4.6,10.12,0,9.84-6.93,21.84-15.45,26.76-2.45,1.42-4.82,2.13-6.96,2.13Z"/>
              <g class="cls-27">
                <polygon class="cls-20" points="73.01 81.74 70 79.99 74.57 82.6 77.58 84.35 73.01 81.74"/>
                <g class="cls-27">
                  <path class="cls-20" d="M75.64,69.7l-3.01-1.75c.69-.4,1.37-.49,1.9-.19l3.01,1.75c-.53-.3-1.21-.2-1.9.19h0Z"/>
                </g>
                <path class="cls-20" d="M75.64,69.7l-3.01-1.75c.69-.4,1.37-.49,1.9-.19l3.01,1.75c-.53-.3-1.21-.2-1.9.19Z"/>
                <g class="cls-27">
                  <path class="cls-20" d="M60.88,98.35l-3.01-1.75c-1.05-.6-1.06-2.55-.01-4.36l3.01,1.75c-1.05,1.81-1.04,3.76.01,4.36h0Z"/>
                </g>
                <path class="cls-20" d="M60.88,98.35l-3.01-1.75c-1.05-.6-1.06-2.55-.01-4.36l3.01,1.75c-1.05,1.81-1.04,3.76.01,4.36Z"/>
                <polygon class="cls-20" points="60.87 93.99 57.86 92.24 62.41 84.37 65.42 86.12 60.87 93.99"/>
                <polygon class="cls-20" points="69.2 79.57 66.19 77.82 70.73 69.95 73.74 71.7 69.2 79.57"/>
                <g class="cls-27">
                  <path class="cls-20" d="M73.74,71.7l-3.01-1.75c.52-.9,1.21-1.6,1.9-2l3.01,1.75c-.69.4-1.37,1.09-1.9,2h0Z"/>
                </g>
                <path class="cls-20" d="M73.74,71.7l-3.01-1.75c.52-.9,1.21-1.6,1.9-2l3.01,1.75c-.69.4-1.37,1.09-1.9,2Z"/>
                <polygon class="cls-20" points="64.63 76.96 61.62 75.21 66.19 77.82 69.2 79.57 64.63 76.96"/>
                <path class="cls-19" d="M75.64,69.7c.69-.4,1.37-.49,1.9-.19,1.05.6,1.06,2.55.01,4.36l-4.54,7.87,4.57,2.61c1.05.6,1.06,2.55.01,4.36-.52.9-1.21,1.6-1.9,2-.69.4-1.37.49-1.9.19l-4.57-2.61-4.55,7.87c-.52.9-1.21,1.6-1.89,2-.69.4-1.37.49-1.9.19-1.05-.6-1.06-2.55-.01-4.36l4.54-7.87-4.57-2.61c-1.05-.6-1.06-2.55-.01-4.36.52-.9,1.21-1.6,1.9-2,.69-.4,1.37-.49,1.9-.19l4.57,2.61,4.54-7.87c.52-.9,1.21-1.6,1.9-2Z"/>
                <g class="cls-27">
                  <path class="cls-20" d="M60.84,83.51l-3.01-1.75c-1.05-.6-1.06-2.55-.01-4.36.52-.9,1.21-1.6,1.9-2,.69-.4,1.37-.49,1.9-.19l3.01,1.75c-.53-.3-1.21-.2-1.9.19-.69.4-1.37,1.09-1.9,2-1.04,1.81-1.04,3.76.01,4.36h0Z"/>
                </g>
                <path class="cls-20" d="M60.84,83.51l-3.01-1.75c-1.05-.6-1.06-2.55-.01-4.36.52-.9,1.21-1.6,1.9-2,.69-.4,1.37-.49,1.9-.19l3.01,1.75c-.53-.3-1.21-.2-1.9.19-.69.4-1.37,1.09-1.9,2-1.04,1.81-1.04,3.76.01,4.36Z"/>
              </g>
              <rect class="cls-21" x="80.39" y="91.71" width=".43" height="17.63" transform="translate(-48.21 103.3) rotate(-52.51)"/>
              <rect class="cls-21" x="104.63" y="61.62" width="24.51" height=".43" transform="translate(37.01 167.23) rotate(-80.72)"/>
              <g class="cls-27">
                <g class="cls-27">
                  <path class="cls-16" d="M118.11,44.88l-2.79-1.62c-.1-.06-.2-.14-.28-.23l2.79,1.62c.08.09.18.17.28.23h0Z"/>
                </g>
                <path class="cls-16" d="M118.11,44.88l-2.79-1.62c-.1-.06-.2-.14-.28-.23l2.79,1.62c.08.09.18.17.28.23Z"/>
                <g class="cls-27">
                  <path class="cls-16" d="M128.03,20.52l-2.79-1.62c.48-.28.98-.4,1.41-.31.13.03.25.07.36.14l2.79,1.62c-.11-.06-.23-.11-.36-.14-.43-.09-.92.03-1.41.31h0Z"/>
                </g>
                <path class="cls-16" d="M127.02,18.73l2.79,1.62c-.11-.06-.23-.11-.36-.14-.43-.09-.92.03-1.41.31l-2.79-1.62c.48-.28.98-.4,1.41-.31.13.03.25.07.36.14Z"/>
                <polygon class="cls-16" points="119.85 36.82 117.07 35.2 123.2 21.33 125.99 22.95 119.85 36.82"/>
                <g class="cls-27">
                  <path class="cls-16" d="M125.99,22.95l-2.79-1.62c.48-1.08,1.26-1.96,2.05-2.42l2.79,1.62c-.79.46-1.57,1.34-2.05,2.42h0Z"/>
                </g>
                <path class="cls-16" d="M125.99,22.95l-2.79-1.62c.48-1.08,1.26-1.96,2.05-2.42l2.79,1.62c-.79.46-1.57,1.34-2.05,2.42Z"/>
                <polygon class="cls-16" points="117.83 44.66 115.04 43.04 109.92 37.46 112.71 39.08 117.83 44.66"/>
                <g class="cls-27">
                  <path class="cls-16" d="M112.71,39.08l-2.79-1.62c-.78-.85-.5-2.79.63-4.34.43-.59.92-1.03,1.4-1.31.65-.38,1.29-.45,1.77-.18l2.79,1.62c-.48-.28-1.12-.2-1.77.18-.48.28-.97.73-1.4,1.31-1.13,1.54-1.41,3.49-.63,4.34h0Z"/>
                </g>
                <path class="cls-16" d="M113.72,31.63l2.79,1.62c-.48-.28-1.12-.2-1.77.18-.48.28-.97.73-1.4,1.31-1.13,1.54-1.41,3.49-.63,4.34l-2.79-1.62c-.78-.85-.5-2.79.63-4.34.43-.59.92-1.03,1.4-1.31.65-.38,1.29-.45,1.77-.18Z"/>
                <path class="cls-18" d="M128.03,20.52c.48-.28.98-.4,1.41-.31,1.13.24,1.43,1.85.65,3.6l-8.17,18.48c-.46,1.04-1.23,1.95-2.05,2.42-.82.47-1.59.45-2.05-.06l-5.12-5.58c-.78-.85-.5-2.79.63-4.34.43-.59.92-1.03,1.4-1.31.79-.46,1.57-.47,2.05.06l3.06,3.34,6.13-13.87c.48-1.08,1.26-1.96,2.05-2.42Z"/>
              </g>
            </g>
          </g>
        </g>
      </g>
    </g>
  </g>
</svg>