<?xml version="1.0" encoding="UTF-8"?>
<svg id="_レイヤー_2" data-name="レイヤー 2" xmlns="http://www.w3.org/2000/svg" viewBox="0 0 89.01 32.71">
  <defs>
    <style>
      .cls-1 {
        fill: #030000;
      }

      .cls-2 {
        fill: #fff;
      }

      .cls-3 {
        fill: #a5a5a5;
      }
    </style>
  </defs>
  <g id="_01" data-name="01">
    <g>
      <g>
        <path class="cls-3" d="m81.22,0H7.8c-.3,0-.6,0-.9,0-.25,0-.5,0-.75.01-.55,0-1.1.05-1.64.14-.54.09-1.07.26-1.55.51-.49.25-.94.58-1.32.96-.39.39-.72.83-.96,1.33-.25.49-.42,1.01-.51,1.56-.09.54-.14,1.09-.15,1.64,0,.25,0,.5-.01.75v18.9c0,.25,0,.5.01.75,0,.55.06,1.1.15,1.64.09.54.26,1.07.51,1.56.25.49.57.93.96,1.32.39.39.83.72,1.32.96.49.25,1.01.42,1.55.52.54.09,1.09.14,1.64.14.25,0,.5,0,.75,0,.3,0,.6,0,.9,0h73.42c.29,0,.59,0,.89,0,.25,0,.5,0,.75,0,.55,0,1.09-.06,1.64-.14.54-.09,1.07-.27,1.56-.52.49-.25.94-.57,1.32-.96.39-.39.72-.83.97-1.32.25-.49.42-1.02.51-1.56.09-.54.14-1.09.15-1.64,0-.25,0-.5,0-.75,0-.3,0-.59,0-.89V7.8c0-.3,0-.6,0-.89,0-.25,0-.5,0-.75,0-.55-.06-1.1-.15-1.64-.09-.54-.26-1.07-.51-1.56-.5-.98-1.31-1.78-2.29-2.29-.49-.25-1.02-.42-1.56-.51-.54-.09-1.09-.14-1.64-.14-.25,0-.5,0-.75-.01-.29,0-.59,0-.89,0Z"/>
        <path class="cls-1" d="m6.91,31.99c-.25,0-.49,0-.74,0-.51,0-1.02-.05-1.53-.13-.47-.08-.93-.23-1.35-.45-.42-.21-.81-.49-1.14-.83-.34-.33-.62-.72-.83-1.14-.22-.43-.37-.88-.44-1.36-.08-.51-.13-1.02-.14-1.53,0-.17-.01-.75-.01-.75V6.91s0-.57.01-.73c0-.51.05-1.02.14-1.53.08-.47.23-.93.44-1.36.21-.42.49-.81.83-1.14.34-.34.72-.62,1.15-.84.43-.22.88-.37,1.35-.44.51-.08,1.02-.13,1.53-.13h.74s75.2,0,75.2,0h.75c.51.02,1.02.06,1.52.14.48.08.94.23,1.37.45.85.44,1.54,1.13,1.97,1.98.21.42.36.88.44,1.35.08.51.13,1.03.14,1.54,0,.23,0,.48,0,.73,0,.31,0,.6,0,.89v17.11c0,.3,0,.59,0,.88,0,.27,0,.51,0,.76,0,.51-.06,1.01-.14,1.52-.08.48-.23.94-.44,1.37-.22.42-.5.8-.83,1.13-.33.34-.72.62-1.14.84-.43.22-.89.37-1.36.45-.51.08-1.02.13-1.53.13-.24,0-.49,0-.73,0h-.89s-74.31,0-74.31,0Z"/>
      </g>
      <g>
        <path class="cls-2" d="m33.66,13.54h-3.31l-.8,2.35h-1.4l3.14-8.69h1.46l3.14,8.69h-1.43l-.79-2.35Zm-2.97-1.08h2.63l-1.29-3.81h-.04l-1.3,3.81Z"/>
        <path class="cls-2" d="m42.66,12.72c0,1.97-1.05,3.23-2.64,3.23-.82.04-1.6-.39-1.99-1.11h-.03v3.14h-1.3v-8.43h1.26v1.05h.02c.41-.72,1.19-1.15,2.02-1.12,1.61,0,2.67,1.27,2.67,3.24Zm-1.34,0c0-1.28-.66-2.13-1.67-2.13s-1.66.86-1.66,2.13.67,2.13,1.66,2.13,1.67-.84,1.67-2.13h0Z"/>
        <path class="cls-2" d="m49.64,12.72c0,1.97-1.05,3.23-2.64,3.23-.82.04-1.6-.39-1.99-1.11h-.03v3.14h-1.3v-8.43h1.26v1.05h.02c.41-.72,1.19-1.15,2.02-1.12,1.61,0,2.67,1.27,2.67,3.24Zm-1.34,0c0-1.28-.66-2.13-1.67-2.13s-1.66.86-1.66,2.13.67,2.13,1.66,2.13,1.67-.84,1.67-2.13Z"/>
        <path class="cls-2" d="m54.25,13.46c.1.86.93,1.43,2.08,1.43s1.89-.57,1.89-1.34c0-.67-.48-1.08-1.6-1.36l-1.13-.27c-1.6-.39-2.34-1.13-2.34-2.34,0-1.5,1.31-2.53,3.16-2.53s3.1,1.03,3.14,2.53h-1.31c-.08-.87-.8-1.39-1.84-1.39s-1.76.53-1.76,1.3c0,.61.46.98,1.58,1.25l.96.24c1.78.42,2.52,1.14,2.52,2.41,0,1.63-1.29,2.64-3.35,2.64-1.93,0-3.23-.99-3.31-2.57h1.33Z"/>
        <path class="cls-2" d="m62.39,8.05v1.5h1.21v1.03h-1.21v3.49c0,.54.24.8.77.8.14,0,.29-.01.43-.03v1.02c-.24.04-.48.06-.72.06-1.28,0-1.78-.48-1.78-1.71v-3.63h-.92v-1.03h.92v-1.5h1.31Z"/>
        <path class="cls-2" d="m64.3,12.72c0-1.99,1.17-3.25,3.01-3.25s3.01,1.25,3.01,3.25-1.16,3.25-3.01,3.25c-1.84,0-3.01-1.25-3.01-3.25Zm4.69,0c0-1.37-.63-2.18-1.68-2.18s-1.68.81-1.68,2.18.63,2.17,1.68,2.17,1.68-.8,1.68-2.17Z"/>
        <path class="cls-2" d="m71.38,9.55h1.24v1.08h.03c.17-.69.81-1.17,1.52-1.14.15,0,.3.02.45.05v1.22c-.19-.06-.39-.08-.58-.08-.72-.03-1.33.53-1.36,1.26,0,.07,0,.13,0,.2v3.76h-1.3v-6.34Z"/>
        <path class="cls-2" d="m80.62,14.03c-.3,1.24-1.46,2.07-2.73,1.94-1.84,0-2.99-1.24-2.99-3.22s1.15-3.28,2.93-3.28,2.86,1.2,2.86,3.13v.45h-4.48v.08c-.08.91.59,1.71,1.5,1.79.07,0,.14,0,.21,0,.63.06,1.23-.3,1.46-.89h1.24Zm-4.4-1.89h3.17c.05-.84-.6-1.56-1.44-1.61-.04,0-.08,0-.12,0-.89,0-1.61.71-1.61,1.59,0,0,0,0,0,.01Z"/>
      </g>
      <g>
        <path class="cls-2" d="m29.8,25.2l.05-.67c.25.08.51.12.78.12.24,0,.33-.02.45-.19.28-.59.4-1.24.35-1.89,0-.69-.22-.89-.76-.89-.12,0-.26,0-.42.02-.29,1.2-.78,2.33-1.45,3.37l-.64-.35c.62-.9,1.08-1.9,1.35-2.96-.42.05-.84.12-1.25.21l-.14-.68c.47-.08,1.03-.16,1.55-.21.11-.51.19-1.03.24-1.55l.75.08c-.07.47-.15.94-.26,1.4h.3c.98,0,1.45.48,1.45,1.52.04.79-.11,1.57-.45,2.29-.18.34-.54.53-.92.49-.33,0-.66-.04-.99-.12Zm2.48-4.15l.56-.38c.78.75,1.25,1.77,1.32,2.85l-.74.11c-.01-.98-.42-1.92-1.14-2.59Z"/>
        <path class="cls-2" d="m36.71,25.3l-.15-.69c.19.02.45.02.6.02,1.52,0,2.1-.43,2.1-1.07,0-.51-.33-.8-1.07-.8-.81.07-1.56.44-2.11,1.03l-.59-.26c-.11-1.01.12-2.03.65-2.89l.69.22c-.43.58-.63,1.29-.58,2,.62-.44,1.35-.68,2.1-.72,1.03,0,1.67.53,1.67,1.39,0,1.09-.86,1.76-2.93,1.76-.1,0-.25,0-.37,0Zm-.72-5.11l.19-.68c1.02.16,2.04.39,3.03.69l-.18.67c-.99-.32-2-.55-3.03-.69h0Z"/>
        <path class="cls-2" d="m42.24,24.77c.79-.26,1.51-.72,2.07-1.34-.45-.37-.93-.69-1.44-.97l.42-.53c.51.26,1,.57,1.46.92.37-.54.62-1.14.75-1.78h-1.96c-.45.73-1.02,1.38-1.68,1.93l-.56-.48c.95-.78,1.69-1.8,2.14-2.94l.74.18c-.08.22-.17.44-.27.65h1.91l.55.25c-.27,2.13-1.69,3.94-3.69,4.71l-.45-.6Zm3.25-5.37l.43-.21c.22.29.4.61.55.95l-.49.22c-.12-.34-.29-.66-.49-.96Zm.96-.08l.44-.21c.22.3.41.63.56.97l-.49.21c-.13-.34-.3-.67-.52-.97h0Z"/>
        <path class="cls-2" d="m49.82,25.34l-.39-.62c1.64-.26,2.82-1.73,2.71-3.39h-3.23v1.55h-.78v-2.2h1.93v-1.13h.78v1.13h1.44l.71.2c-.09,2.19-.82,3.86-3.16,4.47Z"/>
        <path class="cls-2" d="m54.48,20.72l.43-.63c.67.31,1.31.69,1.89,1.15l-.49.66c-.56-.47-1.18-.86-1.83-1.18Zm.15,3.8c1.91-.29,3.57-1.48,4.44-3.2l.51.57c-.95,1.78-2.67,3.01-4.66,3.35l-.29-.72Z"/>
        <path class="cls-2" d="m65.89,24.89h-4.84v-4.58h4.84v4.58Zm-4.08-3.87v3.16h3.31v-3.16h-3.31Z"/>
        <path class="cls-2" d="m72.82,22.83h-5.44v-.79h5.44v.79Z"/>
        <path class="cls-2" d="m74.67,19.56h.76v1.97c1.01.42,2,.91,2.94,1.47l-.43.68c-.8-.51-1.64-.96-2.51-1.35v2.97h-.76v-5.74Zm1.81.42l.45-.22c.22.33.41.68.55,1.05l-.5.22c-.12-.37-.29-.73-.5-1.05Zm.88-.33l.46-.22c.23.32.43.68.58,1.05l-.5.22c-.14-.37-.32-.73-.54-1.05h0Z"/>
      </g>
      <g id="_Group_" data-name=" Group ">
        <g id="_Group_2" data-name=" Group 2">
          <path id="_Path_" data-name=" Path " class="cls-2" d="m20.25,16.6c.02-1.39.75-2.67,1.93-3.4-.75-1.07-1.96-1.72-3.26-1.76-1.37-.14-2.7.82-3.4.82s-1.79-.81-2.95-.78c-1.53.05-2.92.9-3.66,2.23-1.58,2.74-.4,6.76,1.11,8.98.76,1.08,1.64,2.29,2.8,2.25,1.13-.05,1.56-.72,2.93-.72s1.75.72,2.94.7c1.22-.02,1.98-1.09,2.72-2.18.54-.77.96-1.63,1.24-2.53-1.45-.61-2.39-2.03-2.39-3.6Z"/>
          <path id="_Path_2" data-name=" Path 2" class="cls-2" d="m18.02,9.99c.66-.8.99-1.82.91-2.85-1.01.11-1.95.59-2.62,1.36-.66.76-1,1.74-.94,2.75,1.03.01,2-.45,2.65-1.25Z"/>
        </g>
      </g>
    </g>
  </g>
</svg>