<?xml version="1.0" encoding="UTF-8"?>
<svg xmlns="http://www.w3.org/2000/svg" viewBox="0 0 810.01 238">
  <defs>
    <style>
      .cls-1 {
        isolation: isolate;
      }

      .cls-2 {
        fill: #CCCCCC;
        stroke-width: 0px;
      }

      .cls-3 {
        mix-blend-mode: multiply;
        opacity: .7;
      }
    </style>
  </defs>
  <g class="cls-1">
    <g id="_レイヤー_2" data-name="レイヤー 2">
      <g id="_01" data-name="01">
        <g>
          <g class="cls-3">
            <g>
              <path class="cls-2" d="m630.37,207.89c-11.42,1-22.12-.39-30.97-4.11-13.7-5.76-22.24-16.85-23.43-30.43-.7-8,1.41-14.99,6.27-20.76,15.28-18.15,54.44-21.45,95.9-24.94,3.55-.3,7.1-.6,10.63-.91,15.69-1.37,24.18-1.69,34.01-2.07,6.34-.24,12.91-.49,22.19-1.05,10.14-.61,18.79,7.05,19.7,17.44.88,10.11-6.09,19.13-15.87,20.53l-2.38.34c-20,2.84-37.28,5.3-52.15,17.52-16.18,13.29-33.98,22.44-51.49,26.46-4.19.96-8.34,1.62-12.41,1.98Zm37.75-72.19c-34.65,3.03-68.28,7.1-80.41,21.51-3.64,4.32-5.15,9.4-4.61,15.52.96,11,7.74,19.69,19.07,24.45,10.63,4.47,24.48,5.09,39,1.76,16.44-3.77,33.22-12.42,48.55-25.01,16.43-13.49,34.62-16.08,55.69-19.08l2.38-.34c6.02-.86,10.3-6.49,9.75-12.81-.57-6.5-5.9-11.29-12.13-10.91-9.37.57-15.97.82-22.35,1.06-9.74.37-18.15.69-33.66,2.04-3.53.31-7.09.61-10.65.91-3.53.3-7.08.6-10.61.91Z"/>
              <path class="cls-2" d="m632.31,230c-11.42,1-22.12-.39-30.97-4.11-13.7-5.76-22.24-16.85-23.43-30.43l-1.93-22.11c-.17-1.97,1.28-3.71,3.25-3.88,1.97-.17,3.71,1.28,3.88,3.25l1.93,22.11c.96,11,7.74,19.69,19.07,24.45,10.63,4.47,24.48,5.09,39,1.76,16.44-3.77,33.22-12.42,48.55-25.01,16.43-13.49,34.62-16.08,55.69-19.08l2.38-.34c6.02-.86,10.3-6.49,9.75-12.81l-1.95-22.24c-.17-1.97,1.28-3.71,3.25-3.88,1.97-.17,3.71,1.28,3.88,3.25l1.95,22.24c.88,10.11-6.09,19.13-15.87,20.53l-2.38.34c-20,2.85-37.28,5.3-52.15,17.52-16.18,13.29-33.98,22.44-51.49,26.46-4.19.96-8.34,1.62-12.41,1.98Z"/>
              <path class="cls-2" d="m634.08,175.79c-8.76.77-18.44-1.31-19-7.67-.17-1.97,1.28-3.71,3.25-3.88,1.83-.16,3.46,1.09,3.82,2.84.98.85,5.08,2.12,11.3,1.57,5.36-.47,8.95-1.99,10.35-3.05-1.57-.8-5.36-1.67-10.72-1.2-1.97.17-3.71-1.28-3.88-3.25s1.28-3.71,3.25-3.88c8.76-.77,18.44,1.31,19,7.67.56,6.36-8.62,10.08-17.38,10.85Zm10.42-9.69h0s0,0,0,0Zm-22.29,1.4h0s0,0,0,0Z"/>
            </g>
            <g>
              <path class="cls-2" d="m639.7,124.64c-1.12.1-2.28-.34-3.06-1.27-4.35-5.19-8.32-10.64-11.79-16.2-11.34-18.18-16.78-36.42-19.34-48.52-1.89-8.93,2.05-18.17,9.81-23.01,5.85-3.65,12.89-4.33,19.32-1.87,6.44,2.46,11.25,7.67,13.18,14.3,3.95,13.56,9.07,25.43,15.22,35.28,6.14,9.85,14.55,19.67,24.99,29.18,1.46,1.33,1.57,3.6.23,5.06-1.33,1.46-3.6,1.57-5.06.23-10.92-9.96-19.75-20.28-26.24-30.69-6.49-10.41-11.88-22.88-16.02-37.06-1.3-4.46-4.53-7.96-8.86-9.61-4.32-1.65-9.05-1.19-12.98,1.26-5.21,3.25-7.86,9.46-6.59,15.45,2.44,11.54,7.62,28.92,18.41,46.21,3.29,5.28,7.06,10.46,11.2,15.39,1.27,1.52,1.07,3.77-.44,5.04-.58.49-1.28.76-1.99.82Z"/>
              <path class="cls-2" d="m634.66,82.76c-.86.07-1.74-.16-2.48-.72-1.57-1.2-1.88-3.44-.68-5.02l13.55-17.8c1.2-1.57,3.44-1.88,5.02-.68,1.57,1.2,1.88,3.44.68,5.02l-13.55,17.8c-.64.84-1.57,1.31-2.54,1.4Z"/>
              <path class="cls-2" d="m657.41,122.02c-.86.07-1.74-.16-2.48-.72-1.57-1.2-1.88-3.44-.68-5.02l13.55-17.8c1.2-1.57,3.44-1.88,5.02-.68,1.57,1.2,1.88,3.44.68,5.02l-13.55,17.8c-.64.84-1.57,1.31-2.54,1.4Z"/>
              <path class="cls-2" d="m643.29,104.1c-.86.07-1.74-.16-2.48-.72-1.57-1.2-1.88-3.44-.68-5.02l13.55-17.8c1.2-1.57,3.44-1.88,5.02-.68,1.57,1.2,1.88,3.44.68,5.02l-13.55,17.79c-.64.84-1.57,1.31-2.54,1.4Z"/>
              <path class="cls-2" d="m717.26,98.9c-1,.09-2.04-.25-2.82-1.01-8.75-8.56-15.97-17.37-21.46-26.17-6.49-10.41-11.88-22.88-16.02-37.06-1.3-4.46-4.53-7.96-8.86-9.61-4.32-1.65-9.05-1.19-12.98,1.26-1.98,1.24-3.66,2.95-4.85,4.95-1.01,1.7-3.21,2.26-4.91,1.25-1.7-1.01-2.26-3.21-1.25-4.91,1.77-2.98,4.27-5.53,7.22-7.37,5.85-3.65,12.89-4.33,19.32-1.87,6.44,2.46,11.25,7.67,13.18,14.3,3.95,13.56,9.07,25.43,15.22,35.28,5.19,8.32,12.05,16.67,20.39,24.84,1.41,1.38,1.44,3.65.05,5.06-.62.64-1.42.99-2.25,1.06Z"/>
              <path class="cls-2" d="m668.12,61.47c-.86.07-1.74-.16-2.48-.72-1.57-1.2-1.88-3.44-.68-5.02l13.55-17.8c1.2-1.57,3.44-1.88,5.02-.68,1.57,1.2,1.88,3.44.68,5.02l-13.55,17.8c-.64.84-1.57,1.31-2.54,1.4Z"/>
              <path class="cls-2" d="m690.26,101.53c-.86.07-1.74-.16-2.48-.72-1.57-1.2-1.88-3.44-.68-5.02l12.51-16.43c1.2-1.57,3.44-1.88,5.02-.68,1.57,1.2,1.88,3.44.68,5.02l-12.51,16.43c-.64.84-1.57,1.31-2.54,1.4Z"/>
              <path class="cls-2" d="m676.37,82.62c-.86.07-1.74-.16-2.48-.72-1.57-1.2-1.88-3.44-.68-5.02l13.55-17.79c1.2-1.57,3.44-1.88,5.02-.68,1.57,1.2,1.88,3.44.68,5.02l-13.55,17.8c-.64.84-1.57,1.31-2.54,1.4Z"/>
            </g>
            <path class="cls-2" d="m714.03,110.02c-.41.04-.84,0-1.26-.12-1.91-.53-3.03-2.5-2.5-4.4l1.13-4.11c1.97-7.14,5.36-13.64,10.09-19.34l20.81-25.07c1.26-1.52,3.52-1.73,5.04-.47,1.52,1.26,1.73,3.52.47,5.04l-20.81,25.07c-4.07,4.91-7,10.52-8.7,16.67l-1.13,4.11c-.41,1.48-1.69,2.49-3.14,2.62Z"/>
            <path class="cls-2" d="m779.74,174.5c-1.75.15-3.38-1-3.79-2.75-.45-1.93.75-3.85,2.67-4.3,15.48-3.61,24.42-9.89,24.23-13.94l-8.15-49.86c-1.71-10.47-7.11-20.02-15.2-26.88l-19.22-16.3c-1.51-1.28-1.69-3.54-.41-5.05,1.28-1.51,3.54-1.69,5.05-.41l19.22,16.3c9.39,7.96,15.65,19.04,17.64,31.19l8.17,50.02c.01.09.03.18.03.27.78,8.89-10.61,17.18-29.73,21.64-.17.04-.34.07-.51.08Z"/>
            <path class="cls-2" d="m756.56,79.54l-3.91.34c-1.97.17-3.71-1.28-3.88-3.25-.17-1.97,1.28-3.71,3.25-3.88l3.91-.34c2.38-.21,4.15-2.31,3.94-4.69l-3.68-42.03c-.09-1.01.25-2,.94-2.74.69-.74,1.66-1.16,2.66-1.15.29,0,.52,0,.72-.02,2.02-.18,3.83-1.15,5.1-2.74,1.26-1.59,1.8-3.58,1.51-5.6-.53-3.72-4.02-6.53-7.78-6.25-2.86.22-5.36,2.09-6.34,4.79-.48,1.31-1.67,2.22-3.05,2.34h0c-1.38.12-2.71-.57-3.41-1.77-1.44-2.49-4.21-3.91-7.08-3.62-3.75.38-6.7,3.75-6.57,7.51.07,2.04.94,3.9,2.46,5.25,1.52,1.35,3.47,1.99,5.49,1.82.2-.02.43-.05.72-.1.99-.18,2.02.06,2.82.67.8.61,1.31,1.53,1.4,2.54l2.83,32.36c.17,1.97-1.28,3.71-3.25,3.88s-3.71-1.28-3.88-3.25l-2.53-28.96c-3.07-.27-6.02-1.52-8.35-3.59-3.01-2.66-4.73-6.35-4.87-10.37-.25-7.57,5.46-14.1,13.01-14.87,3.77-.36,7.48.74,10.38,3,2.46-2.73,5.91-4.48,9.7-4.76,7.56-.56,14.32,4.88,15.39,12.38.57,3.99-.5,7.91-2.99,11.06-1.94,2.44-4.62,4.18-7.6,4.98l3.38,38.62c.55,6.31-4.13,11.9-10.45,12.45Z"/>
          </g>
          <g class="cls-3">
            <g>
              <g>
                <path class="cls-2" d="m397.13,128.12c-.94-.08-1.84-.55-2.44-1.37-8.02-10.88-15.71-10.34-23.14-9.75l-13.25,2.2c-1.18.2-2.39.29-3.59.28-1.87-.02-3.38-1.55-3.36-3.43.02-1.87,1.55-3.38,3.43-3.36.8,0,1.61-.05,2.4-.19l13.39-2.23c.09-.02.19-.03.29-.04,8.01-.64,18.98-1.51,29.29,12.48,1.11,1.51.79,3.63-.72,4.74-.69.51-1.51.72-2.31.65Z"/>
                <path class="cls-2" d="m364.82,211.71c-1.76-.15-3.51-.58-5.2-1.27l-10.25-4.19c-3.09-1.27-6.46-1.59-9.74-.95l-10.87,2.14c-4.66.92-9.39-.04-13.33-2.69-3.94-2.65-6.61-6.67-7.52-11.33l-10.61-52.44c-1.96-10.03,1.25-20.25,8.57-27.36,8.3-8.05,20.66-10.63,31.49-6.57l2.56.96c1.75.66,2.64,2.61,1.99,4.37-.66,1.76-2.61,2.64-4.37,1.99l-2.56-.96c-8.39-3.14-17.96-1.15-24.38,5.09-5.67,5.5-8.15,13.41-6.64,21.16l10.61,52.44c.57,2.9,2.22,5.39,4.65,7.03,2.43,1.64,5.36,2.23,8.24,1.66l10.87-2.14c4.59-.9,9.3-.44,13.62,1.33l10.25,4.19c2.71,1.11,5.7,1.1,8.4-.04,2.7-1.14,4.8-3.26,5.91-5.97.71-1.74,2.69-2.57,4.42-1.86,1.74.71,2.57,2.69,1.86,4.42-1.79,4.4-5.19,7.83-9.57,9.67-2.7,1.13-5.57,1.58-8.4,1.33Z"/>
                <path class="cls-2" d="m351.83,130.83c-1.57-.14-2.89-1.36-3.07-2.99-.03-.29-.78-7.12,1.05-15.21,2.5-11.03,8.61-19.11,17.67-23.39,1.69-.8,3.72-.07,4.52,1.62.8,1.69.07,3.72-1.62,4.52-17.35,8.19-14.9,31.46-14.87,31.69.21,1.86-1.12,3.54-2.99,3.76-.23.03-.46.03-.69,0Z"/>
              </g>
              <path class="cls-2" d="m426.66,237.77c-31.1-2.72-54.29-29.07-51.69-58.74,1.05-11.96,6.06-22.93,14.5-31.73,8.14-8.48,19.13-14.32,30.94-16.45,1.84-.33,3.61.89,3.94,2.74.33,1.84-.89,3.61-2.74,3.94-21.66,3.9-38.06,21.21-39.89,42.09-2.27,25.94,18.15,49,45.52,51.39,27.37,2.39,51.48-16.76,53.75-42.71,1-11.4-2.59-22.84-10.12-32.22-1.17-1.46-.94-3.6.52-4.77,1.46-1.17,3.6-.94,4.77.52,8.62,10.74,12.73,23.9,11.58,37.06-2.6,29.67-30.01,51.6-61.11,48.87Z"/>
              <circle class="cls-2" cx="446.59" cy="203.77" r="3.99" transform="translate(-43.93 222.54) rotate(-26.72)"/>
              <circle class="cls-2" cx="463.48" cy="205.25" r="3.99" transform="translate(-40.27 148.87) rotate(-17.5)"/>
              <circle class="cls-2" cx="443.06" cy="219.14" r="3.99" transform="translate(95.99 571.09) rotate(-71.72)"/>
              <path class="cls-2" d="m434.06,151.04c-1.83-.16-3.2-1.74-3.09-3.58.02-.29.45-7.1,2.89-15.68,3.32-11.69,8.57-20.68,15.59-26.71,1.42-1.22,3.56-1.06,4.79.36,1.22,1.42,1.06,3.56-.36,4.79-7.43,6.38-11.41,16.17-13.44,23.27-2.26,7.89-2.68,14.31-2.68,14.38-.12,1.87-1.73,3.29-3.6,3.18-.03,0-.06,0-.09,0Z"/>
              <path class="cls-2" d="m453.21,148.83c-9.63-.84-17.95-6.97-18.39-7.3-1.22-.91-1.68-2.53-1.13-3.95.25-.65,6.35-15.95,18.87-19.53,12.53-3.58,25.79,6.19,26.35,6.61,1.22.91,1.68,2.53,1.13,3.95-.25.65-6.35,15.95-18.87,19.53-2.66.76-5.36.92-7.96.69Zm-12.03-11.25c3.73,2.22,11.4,5.96,18.13,4.03h0c6.73-1.92,11.26-9.14,13.26-13.01-3.73-2.22-11.4-5.96-18.13-4.03-6.73,1.92-11.26,9.14-13.26,13.01Z"/>
            </g>
            <g>
              <path class="cls-2" d="m439.8,96.51c-.72-.06-1.43-.36-2-.88-1.38-1.27-1.47-3.42-.2-4.79,1.9-2.06,3.03-4.64,3.28-7.44.61-6.94-4.54-13.08-11.48-13.68s-13.08,4.54-13.68,11.48c-.12,1.36-.02,2.71.29,4.01.43,1.82-.7,3.65-2.52,4.08-1.82.43-3.65-.7-4.08-2.52-.48-2.02-.63-4.09-.45-6.17.93-10.67,10.37-18.59,21.04-17.65s18.59,10.37,17.65,21.04c-.38,4.31-2.12,8.27-5.04,11.44-.74.81-1.78,1.17-2.8,1.08Z"/>
              <path class="cls-2" d="m416.9,114.89c-1.38-.12-2.6-1.08-2.98-2.5-.59-2.19-.79-4.46-.59-6.75.93-10.67,10.37-18.59,21.04-17.65,4.2.37,8.08,2.04,11.22,4.84,1.4,1.25,1.52,3.39.28,4.79-1.25,1.4-3.39,1.52-4.79.28-2.04-1.82-4.56-2.9-7.29-3.14-6.94-.61-13.08,4.54-13.68,11.48-.13,1.49,0,2.96.38,4.39.49,1.81-.58,3.67-2.39,4.16-.4.11-.79.14-1.18.1Z"/>
              <path class="cls-2" d="m392.91,99.78c-.26-.02-.51-.07-.77-.16-1.78-.59-2.75-2.51-2.16-4.29,2.83-8.59,11.11-14.04,20.13-13.25,6.86.6,12.94,4.85,15.88,11.08.8,1.7.07,3.72-1.62,4.52-1.7.8-3.72.07-4.52-1.62-1.91-4.06-5.87-6.82-10.33-7.21-5.87-.51-11.26,3.03-13.1,8.62-.5,1.52-1.98,2.45-3.52,2.32Z"/>
              <path class="cls-2" d="m473.55,101.53c-1.87-.16-3.25-1.81-3.08-3.68.61-6.94-4.54-13.08-11.48-13.68s-12.59,4.11-13.59,10.67c-.28,1.85-2.01,3.13-3.87,2.84-1.85-.28-3.13-2.01-2.84-3.87,1.53-10.09,10.71-17.3,20.89-16.41s18.59,10.37,17.65,21.04c-.16,1.87-1.81,3.25-3.68,3.08Z"/>
              <path class="cls-2" d="m502.98,113.51c-.51-.04-1.01-.2-1.48-.49-1.6-.98-2.1-3.07-1.12-4.67,1.03-1.67,1.64-3.53,1.81-5.5.61-6.94-4.54-13.08-11.48-13.68s-13.08,4.54-13.68,11.48c-.16,1.87-1.81,3.25-3.68,3.08s-3.25-1.81-3.08-3.68c.93-10.67,10.37-18.59,21.04-17.65,10.67.93,18.59,10.37,17.65,21.04-.27,3.03-1.2,5.88-2.79,8.46-.7,1.13-1.95,1.71-3.19,1.61Z"/>
              <path class="cls-2" d="m505.43,143.01c-1.12-.1-2.17-.75-2.72-1.82-.86-1.66-.21-3.71,1.45-4.57,3.87-2,6.41-5.79,6.79-10.13.61-6.94-4.54-13.08-11.48-13.68-2.1-.18-4.23.16-6.15,1-1.72.75-3.72-.03-4.47-1.75-.75-1.72.03-3.72,1.75-4.47,2.96-1.29,6.23-1.83,9.46-1.54,10.67.93,18.59,10.37,17.65,21.04-.58,6.67-4.48,12.48-10.43,15.56-.59.31-1.23.42-1.85.37Z"/>
              <path class="cls-2" d="m499.05,165.65c-1.13-.1-2.18-.76-2.73-1.84-.85-1.67-.19-3.71,1.47-4.57,3.9-2,6.46-5.79,6.84-10.15.61-6.94-4.54-13.08-11.48-13.68-.89-.08-1.78-.06-2.65.04-1.86.23-3.55-1.1-3.78-2.96-.23-1.86,1.1-3.55,2.96-3.78,1.34-.16,2.71-.19,4.07-.07,10.67.93,18.59,10.37,17.65,21.04-.59,6.7-4.52,12.53-10.51,15.6-.59.3-1.22.41-1.84.36Z"/>
              <path class="cls-2" d="m491.39,89.25c-.48-.04-.96-.19-1.4-.45-1.62-.94-2.17-3.02-1.23-4.64.93-1.6,1.48-3.36,1.65-5.23.61-6.94-4.54-13.08-11.48-13.68-6.94-.61-13.08,4.54-13.68,11.48-.11,1.29-.03,2.59.25,3.84.41,1.83-.75,3.64-2.58,4.05-1.83.41-3.64-.75-4.05-2.58-.43-1.93-.56-3.92-.38-5.9.93-10.67,10.37-18.59,21.04-17.65s18.59,10.37,17.65,21.04c-.25,2.86-1.1,5.57-2.54,8.04-.68,1.18-1.96,1.79-3.23,1.68Z"/>
              <path class="cls-2" d="m435.83,71.68c-1.23-.11-2.36-.89-2.86-2.12-1.14-2.84-1.58-5.84-1.31-8.91.93-10.67,10.37-18.59,21.04-17.65,10.67.93,18.59,10.37,17.65,21.04-.1,1.13-.3,2.26-.59,3.35-.49,1.81-2.35,2.89-4.16,2.4-1.81-.49-2.88-2.35-2.4-4.16.19-.71.32-1.45.38-2.19.61-6.94-4.54-13.08-11.48-13.68-6.94-.61-13.08,4.54-13.68,11.48-.17,2,.11,3.95.85,5.79.7,1.74-.15,3.71-1.89,4.41-.51.2-1.04.28-1.56.23Z"/>
              <path class="cls-2" d="m490.38,71.66c-.89-.08-1.75-.51-2.36-1.26-1.17-1.46-.93-3.6.54-4.77,2.73-2.18,4.4-5.29,4.71-8.77.61-6.94-4.54-13.08-11.48-13.68-6.83-.6-12.96,4.46-13.67,11.28-.19,1.86-1.87,3.23-3.72,3.03-1.86-.19-3.22-1.86-3.03-3.72,1.08-10.48,10.5-18.27,21.01-17.35,10.67.93,18.59,10.37,17.65,21.04-.47,5.35-3.04,10.14-7.23,13.49-.71.57-1.57.8-2.41.73Z"/>
            </g>
            <path class="cls-2" d="m462.94,55.39c-1.68-.15-3.03-1.53-3.09-3.25-.02-.5-.37-12.52,7.38-27.44.86-1.66,2.91-2.31,4.58-1.45,1.66.86,2.31,2.91,1.45,4.58-6.93,13.35-6.62,23.96-6.62,24.06.07,1.87-1.39,3.45-3.27,3.52-.14,0-.29,0-.43-.01Z"/>
          </g>
          <g class="cls-3">
            <g>
              <path class="cls-2" d="m160,222.48l-34.21.65c-18.82.36-34.43-14.66-34.79-33.49-.36-18.82,14.66-34.43,33.49-34.79l34.21-.65c18.82-.36,34.43,14.66,34.79,33.49s-14.66,34.43-33.49,34.79Zm-35.39-61.19c-15.28.29-27.47,12.96-27.18,28.24.29,15.28,12.96,27.47,28.24,27.18l34.21-.65c15.28-.29,27.47-12.96,27.18-28.24-.29-15.28-12.96-27.47-28.24-27.18l-34.21.65Z"/>
              <circle class="cls-2" cx="161.71" cy="187.69" r="3.69" transform="translate(-61.6 80.42) rotate(-23.59)"/>
              <circle class="cls-2" cx="149.98" cy="202.19" r="3.69" transform="translate(-68.39 76.93) rotate(-23.59)"/>
              <circle class="cls-2" cx="165.68" cy="201.89" r="3.69" transform="translate(-94.67 181.25) rotate(-46.09)"/>
            </g>
            <g>
              <path class="cls-2" d="m104.16,169.53c-1.53.03-2.9-1.04-3.21-2.59-1.14-5.74-3.77-11.13-7.61-15.59-1.16-1.35-1.01-3.38.34-4.54,1.35-1.16,3.38-1.01,4.54.34,4.56,5.3,7.68,11.71,9.04,18.53.35,1.74-.79,3.43-2.53,3.78-.19.04-.38.06-.57.06Z"/>
              <path class="cls-2" d="m68.15,214.32l-26.71.51C19.02,215.25.44,197.36,0,174.95c-.17-9,2.54-17.58,7.85-24.81,1.05-1.43,3.06-1.74,4.5-.69,1.43,1.05,1.74,3.06.69,4.5-4.47,6.09-6.75,13.31-6.61,20.88.36,18.87,16.01,33.93,34.88,33.57l26.71-.51c5.17-.1,10.12-1.32,14.7-3.62,1.59-.8,3.52-.16,4.32,1.43.8,1.59.16,3.52-1.43,4.32-5.45,2.74-11.33,4.19-17.47,4.3Z"/>
              <path class="cls-2" d="m53.37,139.69c-.11,0-.22,0-.33-.01-1.77-.15-3.09-1.7-2.94-3.47.6-7.25-1.15-12.85-5.2-16.65-2.91-2.72-5.95-3.49-5.98-3.5-1.73-.4-2.8-2.13-2.4-3.86.4-1.73,2.13-2.81,3.86-2.4.48.11,4.78,1.2,8.91,5.07,3.82,3.58,8.17,10.28,7.21,21.87-.14,1.66-1.51,2.92-3.14,2.95Z"/>
              <g>
                <path class="cls-2" d="m19.2,145.02c-5.04.1-9.97-1.66-13.69-5.03l-2.49-2.25c-1.32-1.19-1.42-3.23-.22-4.54,1.19-1.32,3.23-1.42,4.54-.22l2.49,2.25c3.41,3.09,8.6,4.16,13.23,2.72,6.93-2.15,21.32-4.69,30.19-4.86,1.78-.03,3.24,1.38,3.28,3.15s-1.38,3.24-3.15,3.28c-8.22.16-22.02,2.59-28.41,4.57-1.9.59-3.84.9-5.76.93Z"/>
                <path class="cls-2" d="m88.34,143.7c-1.93.04-3.88-.2-5.79-.71-6.33-1.7-20.76-3.63-29.18-3.47-1.78.03-3.24-1.38-3.28-3.15s1.38-3.24,3.15-3.28c9.08-.17,24.11,1.84,30.98,3.69,4.68,1.26,9.82,0,13.11-3.22l2.4-2.35c1.27-1.24,3.31-1.22,4.55.05,1.24,1.27,1.22,3.31-.05,4.55l-2.4,2.35c-3.59,3.51-8.45,5.45-13.49,5.55Z"/>
              </g>
              <path class="cls-2" d="m74.61,155.09c-3.99.08-9.17-.63-12.29-2.46-6.28-3.67-10.33-9.03-11.7-15.5-.37-1.74.74-3.45,2.48-3.81,1.74-.37,3.44.74,3.81,2.48,1,4.72,3.92,8.52,8.66,11.29,2.33,1.36,8.41,1.94,11.26,1.37l2-.4c1.74-.35,3.43.79,3.78,2.53.35,1.74-.79,3.43-2.53,3.78l-2,.4c-.94.19-2.14.3-3.47.32Z"/>
              <path class="cls-2" d="m28.09,156.9c-.2,0-.39,0-.58,0h-1.96c-1.78-.02-3.21-1.47-3.2-3.24,0-1.75,1.41-3.16,3.15-3.2.03,0,.05,0,.08,0h1.96c3.03.03,8.12-.84,11.07-2.28,3.97-1.93,5.47-4.78,7.06-7.8,1.29-2.45,2.63-4.99,5.22-6.75,1.47-1,3.47-.62,4.47.85,1,1.47.62,3.47-.85,4.47-1.27.86-2.1,2.44-3.15,4.43-1.81,3.44-4.07,7.73-9.93,10.58-3.82,1.86-9.46,2.86-13.34,2.93Z"/>
            </g>
            <path class="cls-2" d="m181.78,97.78c-1.78.03-3.24-1.38-3.28-3.15s1.38-3.24,3.15-3.28c7.83-.15,14.07-6.64,13.92-14.46-.12-6.23-4.4-11.75-10.4-13.41-.86-.24-1.58-.82-1.99-1.61-.41-.79-.48-1.71-.19-2.55.56-1.59.82-3.26.79-4.95-.15-7.82-6.62-14.05-14.43-13.92-.07,0-.13,0-.19,0-1.61.03-3-1.14-3.24-2.73-1.07-6.99-7.21-12.16-14.3-12.03-2.95.06-5.77,1.01-8.14,2.76-1.29.95-3.09.81-4.22-.35-2.77-2.85-6.48-4.38-10.45-4.31-2.57.05-5.07.79-7.24,2.14-.81.51-1.81.63-2.72.32-.91-.3-1.64-.99-1.98-1.89-2.15-5.53-7.57-9.17-13.51-9.05-7.12.14-13.06,5.57-13.83,12.63-.1.95-.63,1.81-1.43,2.34-.8.53-1.8.67-2.72.38-1.45-.45-2.96-.66-4.48-.63-7.83.15-14.07,6.64-13.92,14.46,0,.23.02.46.03.69.07,1.05-.38,2.07-1.21,2.73-.83.66-1.92.87-2.93.56-1.42-.43-2.88-.63-4.37-.6-7.83.15-14.07,6.64-13.92,14.46.08,4.33,2.1,8.33,5.53,10.98,1.41,1.08,1.67,3.1.58,4.51-1.08,1.41-3.1,1.67-4.51.58-4.99-3.84-7.92-9.66-8.04-15.95-.22-11.37,8.86-20.8,20.23-21.02.78-.01,1.56.01,2.33.09,1.3-9.94,9.73-17.73,20.06-17.93,1.02-.02,2.03.04,3.04.17,2.46-8.53,10.28-14.72,19.42-14.89,7.43-.14,14.31,3.76,18.07,9.99,2.33-.95,4.83-1.47,7.38-1.51,4.79-.09,9.48,1.51,13.21,4.47,2.93-1.63,6.2-2.51,9.6-2.58,9.38-.18,17.63,6.05,20.19,14.85,10.22,1.04,18.32,9.6,18.52,20.13.03,1.39-.09,2.77-.33,4.12,7.13,3.24,11.97,10.41,12.13,18.4.22,11.37-8.86,20.8-20.23,21.02Z"/>
            <path class="cls-2" d="m162.28,147.76c-1.78.03-3.24-1.38-3.28-3.15-.41-21.63,5.14-41.72,5.38-42.56.48-1.71,2.25-2.71,3.96-2.23,1.71.48,2.71,2.25,2.23,3.96h0c-.06.2-5.54,20.04-5.14,40.7.03,1.78-1.38,3.24-3.15,3.28Z"/>
            <path class="cls-2" d="m142.04,143.38s-.03,0-.04,0c-1.78,0-3.22-1.42-3.23-3.2-.11-20.16,3.52-33.44,3.68-34,.48-1.71,2.25-2.71,3.96-2.24,1.71.48,2.71,2.25,2.24,3.96h0c-.04.13-3.55,13.04-3.44,32.24,0,1.76-1.4,3.2-3.15,3.23Z"/>
            <path class="cls-2" d="m123.29,140.51c-1.67.03-3.11-1.24-3.26-2.93-1.85-20.56-6.65-33.73-6.7-33.87-.62-1.67.23-3.52,1.9-4.13,1.66-.62,3.51.23,4.13,1.9.21.56,5.14,14.04,7.08,35.53.16,1.77-1.15,3.33-2.91,3.49-.08,0-.15.01-.23.01Z"/>
            <path class="cls-2" d="m89.73,124.49c-1.58.03-2.98-1.11-3.23-2.71-1.88-11.8-7.33-19.93-7.38-20.01-1-1.47-.62-3.47.85-4.47,1.47-1,3.46-.63,4.46.84.26.37,6.31,9.33,8.42,22.63.28,1.75-.92,3.4-2.67,3.68-.15.02-.3.04-.45.04Z"/>
            <path class="cls-2" d="m169.05,106.1c-1.78.03-3.24-1.38-3.28-3.15s1.38-3.24,3.15-3.28c5.76-.11,10.35-4.88,10.24-10.64-.08-4.09-2.56-7.78-6.33-9.4-.83-.36-1.47-1.04-1.77-1.9-.3-.85-.22-1.79.21-2.58.85-1.57,1.28-3.35,1.24-5.14-.11-5.76-4.88-10.35-10.64-10.24-2.22.04-4.33.78-6.1,2.12-.73.55-1.66.77-2.55.6-.9-.17-1.68-.72-2.15-1.5-1.7-2.82-4.8-4.54-8.09-4.48-3.78.07-7.1,2.41-8.45,5.94-.34.89-1.06,1.59-1.97,1.9-.9.31-1.9.2-2.72-.3-1.69-1.04-3.64-1.57-5.64-1.53-5.75.11-10.35,4.88-10.24,10.64.02.96.16,1.9.43,2.8.51,1.7-.46,3.49-2.16,4-1.7.51-3.49-.46-4-2.16-.44-1.46-.67-2.98-.7-4.52-.18-9.3,7.24-17.01,16.55-17.19,2.06-.04,4.1.3,6.02.99,2.8-4.24,7.51-6.9,12.75-7,4.48-.09,8.76,1.77,11.76,4.99,2.21-1.09,4.63-1.68,7.13-1.73,9.3-.18,17.01,7.24,17.19,16.55.03,1.82-.23,3.64-.77,5.37,4.48,3.04,7.31,8.12,7.42,13.65.18,9.3-7.24,17.01-16.55,17.19Z"/>
            <path class="cls-2" d="m143.17,92.74c-1.1.02-2.17-.52-2.79-1.52-1.74-2.79-4.74-4.42-8.02-4.36-.69.01-1.39.11-2.08.28-1.66.42-3.36-.54-3.86-2.18-1.19-3.93-4.9-6.62-9.01-6.54-5.09.1-9.15,4.32-9.05,9.41.03,1.78-1.38,3.24-3.15,3.28-1.78.03-3.24-1.38-3.28-3.15-.16-8.63,6.73-15.79,15.36-15.96,6.01-.11,11.51,3.26,14.21,8.47,5.73-.38,11.3,2.49,14.33,7.36.94,1.51.48,3.49-1.03,4.43-.51.32-1.07.47-1.64.49Z"/>
            <path class="cls-2" d="m72.04,93.41c-8.63.17-15.79-6.73-15.96-15.36s6.73-15.79,15.36-15.96c.16,0,.32,0,.48,0,1.35-7.13,7.56-12.6,15.09-12.74,3.72-.07,7.28,1.17,10.12,3.46,2.23-1.24,4.75-1.93,7.32-1.98,6.53-.12,12.51,3.88,14.89,9.96.65,1.65-.17,3.52-1.82,4.17-1.66.65-3.52-.17-4.17-1.82-1.4-3.58-4.93-5.94-8.78-5.87-2.12.04-4.1.78-5.73,2.14-1.35,1.13-3.36.96-4.51-.38-1.8-2.11-4.43-3.29-7.2-3.24-5.09.1-9.15,4.32-9.05,9.41,0,.11,0,.21.01.32.06,1.03-.38,2.03-1.17,2.69-.8.65-1.85.9-2.85.64-.82-.21-1.67-.32-2.51-.3-5.09.1-9.15,4.32-9.05,9.41s4.32,9.15,9.41,9.05c1.78-.03,3.24,1.38,3.28,3.15s-1.38,3.24-3.15,3.28Z"/>
          </g>
        </g>
      </g>
    </g>
  </g>
</svg>