<?xml version="1.0" encoding="UTF-8"?>
<svg xmlns="http://www.w3.org/2000/svg" viewBox="0 0 815.16 275.36">
  <defs>
    <style>
      .cls-1 {
        isolation: isolate;
      }

      .cls-2 {
        fill: #CCCCCC;
        stroke-width: 0px;
      }

      .cls-3 {
        mix-blend-mode: multiply;
        opacity: .7;
      }
    </style>
  </defs>
  <g class="cls-1">
    <g id="_レイヤー_2" data-name="レイヤー 2">
      <g id="_01" data-name="01">
        <g>
          <g class="cls-3">
            <g>
              <path class="cls-2" d="m92.18,155.33c-16.48-4.35-27.52-11.1-34.11-15.13-1.18-.72-2.19-1.34-3.03-1.82-1.64-.93-2.21-3.02-1.28-4.66.93-1.64,3.02-2.21,4.66-1.28.93.53,1.99,1.18,3.22,1.93,6.27,3.83,16.77,10.25,32.29,14.35,1.82.48,2.91,2.35,2.43,4.17-.48,1.82-2.35,2.91-4.17,2.43Z"/>
              <path class="cls-2" d="m44.55,128.56c-.57-.15-1.09-.44-1.51-.86-17.8-17.38-24.06-38.39-25.55-44.42-1.8-7.26,1.9-14.7,8.79-17.7,5.99-2.61,11.12-6.19,16.55-9.99,7.47-5.22,15.2-10.62,25.54-13.56,11.61-3.3,24.88-2.89,40.58,1.26,1.41.37,8.92,2.57,18.57,9.45,10.81,7.7,20,18.1,27.34,30.93,5.05,8.84,15.59,15.06,23.54,18.72,6.14,2.83,13.39,1.27,18.03-3.88,12.79-14.19,37.31-16.24,38.34-16.32,1.87-.15,3.66,1.23,3.81,3.11.15,1.85-1.06,3.46-2.89,3.66-.65.23-6.06,2.54-8.41,16.17-1.72,9.99-6.55,16.28-10.3,19.79-1.45,1.36-2.85,2.42-4.06,3.23,2.74,4.18,4.49,10.47,2.07,19.63-.48,1.82-2.35,2.91-4.17,2.43s-2.91-2.35-2.43-4.17c1.9-7.18.86-12.69-3.08-16.39-.86-.81-1.24-2-1.01-3.15.23-1.15,1.03-2.11,2.13-2.53.45-.18,11.49-4.72,14.12-19.99.99-5.74,2.52-9.97,4.21-13.09-7.45,1.86-17.17,5.45-23.27,12.22-6.66,7.39-17.09,9.6-25.96,5.51-12.88-5.94-21.83-13.18-26.61-21.54-17.41-30.45-40.74-36.91-41.72-37.17-32.14-8.49-45.9,1.13-60.47,11.3-5.47,3.82-11.12,7.77-17.73,10.65-3.82,1.66-5.88,5.78-4.88,9.79,2.79,11.24,10.22,27.59,22.8,40.29,2.59.09,5.1-.31,7.49-1.17,8.25-2.99,13.96-11.49,14.88-22.18.16-1.88,1.82-3.27,3.7-3.11,1.88.16,3.27,1.82,3.11,3.7-1.16,13.37-8.57,24.1-19.35,28.01-3.7,1.34-7.61,1.84-11.62,1.48-.19-.02-.38-.05-.57-.1Z"/>
              <circle class="cls-2" cx="57.24" cy="75.37" r="5.23" transform="translate(-37.4 74.97) rotate(-52.54)"/>
              <path class="cls-2" d="m159.31,78.17c-.59-.15-1.14-.47-1.59-.93-1.31-1.36-1.27-3.52.09-4.83,4.3-4.13,5.08-10.23,4.98-14.62-.04-1.89-1.53-3.43-3.44-3.58l-49.12-3.87c-1.88-.15-3.28-1.79-3.14-3.67.15-1.88,1.79-3.28,3.67-3.14l49.12,3.87c5.42.43,9.61,4.83,9.74,10.23.13,5.76-.99,13.85-7.07,19.7-.89.86-2.13,1.13-3.24.84Z"/>
            </g>
            <g>
              <path class="cls-2" d="m83.57,249.08c-12.67-3.35-23.61-11.35-30.82-22.55-6.94-10.77-9.33-22.97-6.56-33.47,5.62-21.29,32.08-32.84,58.97-25.74,26.89,7.1,44.2,30.2,38.57,51.5-2.77,10.5-10.87,19.92-22.23,25.87-11.8,6.17-25.27,7.73-37.94,4.39Zm19.85-75.15c-23.25-6.14-45.96,3.23-50.62,20.88-2.28,8.65-.21,18.86,5.7,28.03,6.28,9.76,15.81,16.73,26.82,19.64,11.02,2.91,22.74,1.55,33.02-3.83,9.66-5.06,16.51-12.91,18.79-21.56,4.66-17.65-10.46-37.01-33.71-43.15Z"/>
              <path class="cls-2" d="m83.57,249.08c-9.03-2.38-16.87-8.16-22.09-16.27-5-7.77-6.76-16.42-4.82-23.74,1.93-7.31,7.51-13.13,15.7-16.36,7.83-3.09,17.2-3.46,26.37-1.04,9.18,2.42,17.14,7.37,22.42,13.93,5.53,6.86,7.51,14.67,5.58,21.98-1.93,7.32-7.73,13.98-15.92,18.26-8.54,4.47-18.22,5.63-27.25,3.24Zm13.42-50.81c-15.68-4.14-30.81,1.49-33.73,12.54-2.89,10.94,6.31,27.5,22.06,31.66,12.88,3.4,31.28-3.26,34.81-16.64,2.92-11.06-7.46-23.42-23.14-27.56Z"/>
              <path class="cls-2" d="m83.57,249.08c-5.79-1.53-10.81-5.42-14.14-10.96-3.09-5.14-4.2-11-2.97-15.67s4.93-8.55,10.31-10.61c4.99-1.9,10.95-2.1,16.78-.56s10.92,4.66,14.32,8.78c3.67,4.44,4.99,9.53,3.73,14.31-2.47,9.36-15.53,18.01-28.03,14.71Zm8.24-31.2c-8.65-2.29-17.24.6-18.75,6.31-1.46,5.53,3.14,15.88,12.25,18.28,9.11,2.41,18.22-4.32,19.68-9.85,1.51-5.71-4.53-12.46-13.19-14.74Z"/>
            </g>
            <g>
              <path class="cls-2" d="m28.78,226.1c-9.35-2.47-17.47-8.23-22.88-16.22-5.25-7.77-7.12-16.56-5.13-24.12,2-7.58,7.76-13.62,16.2-17,8.09-3.24,17.77-3.64,27.24-1.14,1.35.36,2.69.77,3.99,1.23,1.78.63,2.7,2.59,2.07,4.36-.63,1.78-2.59,2.7-4.36,2.07-1.12-.4-2.27-.76-3.44-1.06-16.28-4.3-32.03,1.65-35.1,13.27-3.6,13.62,9.49,28.38,23.14,31.99,7.76,2.05,15.08,1.48,21.76-1.69,1.7-.81,3.74-.08,4.55,1.62.81,1.7.08,3.74-1.62,4.55-8.18,3.88-17.07,4.59-26.43,2.12Z"/>
              <path class="cls-2" d="m30.85,226.65c-6.08-1.61-11.39-5.4-14.96-10.68-3.48-5.15-4.73-10.9-3.44-15.79,1.61-6.09,7.15-10.58,14.83-12.02,1.85-.35,3.64.87,3.99,2.73.35,1.85-.87,3.64-2.73,3.99-5.02.94-8.57,3.58-9.49,7.06-1.63,6.16,4.05,15.61,13.54,18.12,1.82.48,2.91,2.35,2.43,4.17s-2.35,2.91-4.17,2.43Z"/>
            </g>
            <g>
              <g>
                <path class="cls-2" d="m175.4,230.09l-22.1-5.84c-1.82-.48-2.91-2.35-2.43-4.17s2.35-2.91,4.17-2.43l22.1,5.84c13.4,3.54,27.19-4.48,30.73-17.89l2.95-11.16c5.01-18.98-6.35-38.5-25.33-43.52l-55.51-14.66c-1.45,12.02,6.16,23.61,18.2,26.79l31.63,8.35c10.29,2.72,16.45,13.3,13.73,23.59l-2.37,8.99c-2.09,7.9-10.21,12.63-18.12,10.55l-10.8-2.85c-1.82-.48-2.91-2.35-2.43-4.17s2.35-2.91,4.17-2.43l10.8,2.85c4.26,1.13,8.65-1.43,9.77-5.69l2.37-8.99c1.76-6.65-2.22-13.49-8.87-15.24l-31.63-8.35c-16.79-4.43-26.85-21.7-22.41-38.5.48-1.82,2.35-2.91,4.17-2.43l59.04,15.59c22.62,5.97,36.17,29.24,30.19,51.86l-2.95,11.16c-4.5,17.04-22.03,27.25-39.07,22.75Z"/>
                <path class="cls-2" d="m126.44,135.33l-9.69-2.56c-5.72-1.51-9.15-7.4-7.64-13.12l1.79-6.79c.48-1.82,2.35-2.91,4.17-2.43,1.82.48,2.91,2.35,2.43,4.17l-1.79,6.79c-.55,2.08.7,4.22,2.78,4.77l9.69,2.56c1.82.48,2.91,2.35,2.43,4.17s-2.35,2.91-4.17,2.43Z"/>
                <path class="cls-2" d="m125.39,145.1l-21.45-5.67c-5.72-1.51-9.15-7.4-7.64-13.12.48-1.82,2.35-2.91,4.17-2.43,1.82.48,2.91,2.35,2.43,4.17-.55,2.08.7,4.22,2.78,4.77l21.45,5.67c1.82.48,2.91,2.35,2.43,4.17s-2.35,2.91-4.17,2.43Z"/>
                <path class="cls-2" d="m151.41,170.97c-1.82-.48-2.91-2.35-2.43-4.17s2.35-2.91,4.17-2.43c4.29,1.13,6.43-5.01,6.52-5.27.6-1.78,2.54-2.74,4.32-2.15,1.78.6,2.75,2.51,2.16,4.3-.1.3-1.04,3.04-3.09,5.57-3.11,3.84-7.25,5.32-11.66,4.15Z"/>
                <path class="cls-2" d="m175.41,177.31c-1.82-.48-2.91-2.35-2.43-4.17s2.35-2.91,4.17-2.43c8.86,2.34,17.98-2.97,20.32-11.83l.9-3.4c.48-1.82,2.35-2.91,4.17-2.43,1.82.48,2.91,2.35,2.43,4.17l-.9,3.4c-3.3,12.51-16.16,19.99-28.67,16.69Z"/>
                <path class="cls-2" d="m190.42,195.34c-1.82-.48-2.91-2.35-2.43-4.17s2.35-2.91,4.17-2.43c7.83,2.07,15.89-2.62,17.96-10.46l.81-3.07c.48-1.82,2.35-2.91,4.17-2.43,1.82.48,2.91,2.35,2.43,4.17l-.81,3.07c-3.03,11.48-14.83,18.35-26.31,15.32Z"/>
                <circle class="cls-2" cx="146.72" cy="149.58" r="4.7"/>
              </g>
              <path class="cls-2" d="m164.51,187.16c-1.38-.37-2.44-1.58-2.54-3.09-.12-1.88,1.31-3.5,3.2-3.62,3.66-.23,6.5-1.31,8.44-3.2,1.43-1.39,1.85-2.72,1.86-2.77l-.02.06,6.6,1.74c-.11.41-2.83,10.14-16.47,10.99-.38.02-.74-.01-1.09-.11Z"/>
              <path class="cls-2" d="m172.8,197.98c-1.4-.37-2.47-1.62-2.54-3.14-.09-1.88,1.37-3.48,3.25-3.57,9.87-.46,12.55-7.58,12.66-7.89.6-1.79,2.54-2.73,4.32-2.13,1.79.6,2.74,2.56,2.14,4.34-.16.48-4.15,11.81-18.81,12.49-.36.02-.7-.02-1.03-.11Z"/>
            </g>
            <path class="cls-2" d="m195.49,214.63c-8.27-2.18-12.74-8.46-13-8.83-1.08-1.55-.69-3.68.86-4.75,1.54-1.07,3.66-.7,4.74.84.28.39,6.3,8.6,17.17,6.2,1.84-.41,3.66.76,4.07,2.6.41,1.84-.76,3.66-2.6,4.07-4.3.95-8.06.72-11.25-.13Z"/>
            <path class="cls-2" d="m178.54,229.46c-.81-.21-1.55-.73-2.03-1.5-1.72-2.77-2.64-6.47-2.73-11-.06-3.21.33-5.72.35-5.82.3-1.86,2.05-3.13,3.91-2.83,1.86.3,3.13,2.05,2.83,3.91-.34,2.19-.75,8.63,1.43,12.14,1,1.6.51,3.71-1.09,4.7-.83.52-1.8.63-2.68.4Z"/>
          </g>
          <g class="cls-3">
            <g>
              <path class="cls-2" d="m333.07,220.91l-13.09,1.15c-6.66.58-12.55-4.36-13.13-11.02l-8.79-100.48c-.48-5.53,3.62-10.41,9.14-10.9,1.35-.12,2.35-1.31,2.24-2.66l-.32-3.64-2.16.19c-4.85.42-9.15-3.19-9.57-8.06-.42-4.85,3.18-9.15,8.03-9.57l45.46-3.98c4.85-.42,9.15,3.18,9.57,8.03.43,4.87-3.18,9.17-8.03,9.6l-2.16.19.32,3.64c.12,1.35,1.31,2.35,2.66,2.24,5.53-.48,10.41,3.62,10.9,9.14l3.12,35.71c.16,1.78-1.16,3.35-2.94,3.5s-3.35-1.16-3.5-2.94l-3.12-35.71c-.17-1.97-1.92-3.44-3.89-3.27-4.9.43-9.24-3.21-9.67-8.11l-.6-6.86c-.16-1.78,1.16-3.35,2.94-3.5l5.38-.47c1.3-.11,2.27-1.28,2.15-2.59s-1.27-2.27-2.57-2.15l-45.46,3.98c-1.3.11-2.27,1.26-2.15,2.57s1.27,2.29,2.57,2.18l5.38-.47c1.78-.16,3.35,1.16,3.5,2.94l.6,6.86c.43,4.9-3.21,9.24-8.11,9.67-1.97.17-3.44,1.92-3.27,3.89l8.79,100.48c.27,3.11,3.02,5.41,6.13,5.14l13.09-1.15c1.78-.16,3.35,1.16,3.5,2.94s-1.16,3.35-2.94,3.5Z"/>
              <path class="cls-2" d="m349.02,89.87l-13.17,1.15c-1.78.16-3.35-1.16-3.5-2.94s1.16-3.35,2.94-3.5l13.17-1.15c1.78-.16,3.35,1.16,3.5,2.94s-1.16,3.35-2.94,3.5Z"/>
              <path class="cls-2" d="m360.27,118.5l-41.68,3.65c-1.78.16-3.35-1.16-3.5-2.94s1.16-3.35,2.94-3.5l41.68-3.65c1.78-.16,3.35,1.16,3.5,2.94s-1.16,3.35-2.94,3.5Z"/>
            </g>
            <g id="Layer_3" data-name="Layer 3">
              <g>
                <path class="cls-2" d="m450.62,150.42c-1.78.16-3.35-1.16-3.5-2.94l-8.53-97.48-61.48,5.38,7.41,84.7c.16,1.78-1.16,3.35-2.94,3.5s-3.35-1.16-3.5-2.94l-7.69-87.92c-.16-1.78,1.16-3.35,2.94-3.5l67.92-5.94c1.78-.16,3.35,1.16,3.5,2.94l8.81,100.7c.16,1.78-1.16,3.35-2.94,3.5Z"/>
                <path class="cls-2" d="m480.14,208.04c-1.78.16-3.35-1.16-3.5-2.94l-13.76-157.23-21.07,1.84c-1.13.1-2.23-.4-2.89-1.31-.67-.91-.81-2.11-.37-3.16l10.48-25.01c.46-1.11,1.5-1.87,2.7-1.97.02,0,.03,0,.05,0,1.21-.09,2.38.51,3,1.55l13.77,22.83c.14.22.26.47.34.73.08.26.13.52.15.79l14.03,160.38c.16,1.78-1.16,3.35-2.94,3.5Zm-33.56-165.23l13.79-1.21-7.84-13-5.95,14.2Z"/>
                <path class="cls-2" d="m373.89,55.66c-.65.06-1.33-.08-1.94-.44-1.53-.91-2.04-2.9-1.12-4.43l15.04-25.21c.53-.89,1.46-1.47,2.49-1.56l19.09-1.67c1.78-.16,3.35,1.16,3.5,2.94s-1.16,3.35-2.94,3.5l-17.44,1.53-14.19,23.79c-.55.93-1.5,1.48-2.5,1.57Z"/>
                <path class="cls-2" d="m452.16,24.92l-23.4,2.05c-1.78.16-3.35-1.16-3.5-2.94s1.16-3.35,2.94-3.5l20.18-1.77-1.05-12.02-56.83,4.97,1.31,15.03c.16,1.78-1.16,3.35-2.94,3.5-1.78.16-3.35-1.16-3.5-2.94l-1.6-18.25c-.16-1.78,1.16-3.35,2.94-3.5L449.98.01c1.78-.16,3.35,1.16,3.5,2.94l1.62,18.46c.16,1.78-1.16,3.35-2.94,3.5Z"/>
              </g>
            </g>
            <path class="cls-2" d="m462.29,209.6l-96.47,8.44c-1.78.16-3.35-1.16-3.5-2.94s1.16-3.35,2.94-3.5l93.25-8.16-3.17-36.27-113.79,9.96c-1.78.16-3.35-1.16-3.5-2.94s1.16-3.35,2.94-3.5l117.01-10.24c1.78-.16,3.35,1.16,3.5,2.94l3.74,42.72c.16,1.78-1.16,3.35-2.94,3.5Z"/>
            <path class="cls-2" d="m366.68,217.97l-21.4,1.87c-1.78.16-3.35-1.16-3.5-2.94l-3.74-42.72c-.03-.36,0-.72.08-1.07.18-.73,4.82-17.89,34.29-21.36.24-.03.47-.03.7,0l85.49,8.7c1.78.18,3.07,1.77,2.89,3.54-.18,1.78-1.76,3.07-3.54,2.89l-85.13-8.66c-22.24,2.73-27.43,13.72-28.28,16.04l3.4,38.85,18.18-1.59c1.78-.16,3.35,1.16,3.5,2.94s-1.16,3.35-2.94,3.5Z"/>
            <path class="cls-2" d="m368.93,194.19c-1.28.11-2.6.04-3.92-.25-3.44-.74-6.38-2.78-8.29-5.74-1.91-2.96-2.55-6.48-1.8-9.92.82-3.81,3.27-7.03,6.71-8.86,1.58-.83,3.53-.23,4.37,1.34.84,1.58.24,3.53-1.34,4.37-1.75.93-3,2.57-3.42,4.51-.38,1.75-.05,3.54.92,5.05.97,1.51,2.47,2.54,4.22,2.92,3.61.78,7.19-1.52,7.97-5.14.38-1.75,2.1-2.85,3.84-2.48,1.75.38,2.85,2.1,2.48,3.84-1.25,5.78-6.13,9.85-11.73,10.34Z"/>
            <path class="cls-2" d="m392.17,215.73c-.64.06-1.3-.08-1.89-.42-6.3-3.62-8.47-11.69-4.85-17.98,1.75-3.05,4.59-5.23,7.99-6.15,3.4-.92,6.95-.46,10,1.3,3.37,1.94,5.71,5.25,6.4,9.09.32,1.76-.85,3.44-2.61,3.75-1.75.32-3.44-.85-3.75-2.61-.35-1.95-1.54-3.64-3.26-4.63-1.55-.89-3.36-1.13-5.09-.66-1.73.47-3.17,1.58-4.07,3.13-1.84,3.2-.74,7.31,2.47,9.16,1.55.89,2.08,2.87,1.19,4.41-.55.95-1.51,1.52-2.52,1.61Z"/>
            <path class="cls-2" d="m429.82,196.91c-2.81.25-5.71-.55-8.07-2.47-4.81-3.91-5.55-11.01-1.64-15.82,2.1-2.58,5.21-4.09,8.53-4.16,1.78-.03,3.26,1.39,3.29,3.17.03,1.78-1.38,3.25-3.17,3.29-1.42.02-2.74.67-3.63,1.77-1.66,2.05-1.35,5.06.7,6.73,2.05,1.66,5.06,1.35,6.73-.7,1.13-1.39,3.16-1.6,4.55-.47,1.39,1.13,1.6,3.16.47,4.55-2,2.46-4.82,3.85-7.75,4.11Z"/>
          </g>
          <g class="cls-3">
            <path class="cls-2" d="m642.29,63.64c-8.32-1.52-11.56,1.15-12.84,9.21-3.41,21.4-7.41,42.71-11.17,64.06-4.86,27.55-9.72,55.09-14.8,83.92,53.65,9.46,104.86,18.49,157.71,27.81,9.03-51.21,18.04-101.49,26.34-151.89.4-2.43-5.11-7.92-8.51-8.56-45.52-8.5-91.18-16.24-136.73-24.55Zm-3.98,8.04c12.71,2.24,24.6,4.34,37.82,6.67-5.67,32.16-11.31,64.12-17.07,96.78-12.7-2.24-25.02-4.41-37.82-6.67,5.75-32.62,11.34-64.32,17.07-96.78Zm116.02,168.79c-12.26-2.16-23.71-4.18-36.2-6.38,2.28-12.93,4.45-25.21,6.77-38.37,7.02.51,13.81,1.01,20.59,1.5.29-1.49.59-2.97.88-4.46-6.48-2.08-12.96-4.16-20.03-6.43,1.41-11.99,2.79-23.71,4.16-35.44-1.76-.29-3.51-.57-5.27-.86-2.55,10.98-5.09,21.95-7.85,33.86-4.62.69-9.58,1.42-14.54,2.16-.21.9-.42,1.79-.64,2.69,4.12,1.78,8.24,3.56,13.19,5.7-2.12,12.04-4.31,24.45-6.66,37.79-31.86-5.62-63.17-11.14-95.53-16.84,2.24-12.71,4.4-24.96,6.81-38.6,14.81,2.61,29.18,5.14,45.49,8.02,3.67-20.84,7.12-40.4,10.73-60.84,32.78,5.78,63.62,11.22,95.67,16.87-5.75,32.59-11.51,65.3-17.57,99.64Zm19.28-108.79c-31.27-5.51-62.16-10.96-93.96-16.57,2.07-11.75,4.13-23.43,6.23-35.34,31.77,5.6,62.3,10.99,93.96,16.57-2.08,11.78-4.07,23.08-6.23,35.34Z"/>
            <path class="cls-2" d="m795.85,68.96c-.22,1.12-.45,2.24-.67,3.36,3.96,2.16,7.92,4.33,11.27,6.15-11.17,63.36-22.18,125.79-33.23,188.47-63.06-11.12-124.92-22.03-186.72-32.92,11.28-63.96,22.35-126.75,33.68-191.01,55.88,9.85,110.49,19.48,165.11,29.11.56-1.65,1.13-3.3,1.69-4.94-4.8-1.35-9.52-3.12-14.4-3.99-48.08-8.59-96.25-16.67-144.23-25.76-11.92-2.26-16.36.28-18.41,12.63-9.76,58.89-20.49,117.61-30.77,176.41-.8,4.57-.79,9.29-1.12,13.47,68.05,12,134.35,23.69,200.99,35.44,12.06-68.41,23.92-135.68,36.12-204.86-7.22-.58-13.27-1.06-19.31-1.54Z"/>
          </g>
        </g>
      </g>
    </g>
  </g>
</svg>