<?xml version="1.0" encoding="UTF-8"?>
<svg id="_レイヤー_2" data-name="レイヤー 2" xmlns="http://www.w3.org/2000/svg" viewBox="0 0 30.99 24.13">
  <defs>
    <style>
      .cls-1 {
        fill: #1a1a1a;
        stroke-width: 0px;
      }
    </style>
  </defs>
  <g id="pc">
    <g>
      <path class="cls-1" d="m.54,24.13h29.91c.3,0,.54-.24.54-.54V3.98c0-.3-.24-.54-.54-.54H12.71L10.47.23c-.1-.14-.27-.23-.44-.23H.54C.24,0,0,.24,0,.54v23.05c0,.3.24.54.54.54ZM1.08,1.08h8.66l1.65,2.35H1.08V1.08Zm0,3.87v-.43h28.82v18.53H1.08V4.95Z"/>
      <path class="cls-1" d="m26.23,9.41h-8.19c-.3,0-.54.24-.54.54s.24.54.54.54h8.19c.3,0,.54-.24.54-.54s-.24-.54-.54-.54Z"/>
      <path class="cls-1" d="m26.2,12.06h-5.44c-.3,0-.54.24-.54.54s.24.54.54.54h5.44c.3,0,.54-.24.54-.54s-.24-.54-.54-.54Z"/>
    </g>
  </g>
</svg>