<?xml version="1.0" encoding="UTF-8"?>
<svg id="_レイヤー_2" data-name="レイヤー 2" xmlns="http://www.w3.org/2000/svg" viewBox="0 0 69.46 70.3">
  <defs>
    <style>
      .cls-1 {
        fill: #d7323a;
        stroke-width: 0px;
      }
    </style>
  </defs>
  <g id="pc">
    <g>
      <path class="cls-1" d="m11.56,7.91c-2.85-.02-3.78,1.06-3.73,3.82.12,7.32.04,14.64.04,21.96,0,9.45,0,18.89,0,28.78h54.08c0-17.56.05-34.81-.15-52.06,0-.83-2.16-2.34-3.33-2.35-15.64-.16-31.28-.05-46.92-.15Zm-.85,2.91h12.97v33.19h-12.97V10.81Zm48.49,49.34h-12.42v-13.16c2.37-.24,4.65-.47,6.94-.71.01-.51.02-1.02.03-1.53-2.28-.31-4.55-.62-7.04-.96-.23-4.07-.46-8.05-.69-12.03-.6,0-1.2.02-1.8.02-.2,3.8-.41,7.6-.63,11.72-1.5.5-3.1,1.03-4.71,1.57-.02.31-.04.62-.05.93,1.48.35,2.95.7,4.72,1.12v12.96H10.78v-13.24h15.6v-20.87h32.81v34.17Zm.03-37.31H27v-12.12h32.22v12.12Z"/>
      <path class="cls-1" d="m62.95.67c0,.39-.02.77-.03,1.16,1.44.49,2.89.97,4.11,1.39v64.64H3V2.34h56.62c.09-.58.18-1.16.27-1.74-1.67-.17-3.35-.48-5.02-.48C38.37.08,21.87.21,5.38,0,1.29-.05-.04,1.05,0,5.28c.21,20.16.08,40.32.11,60.48,0,1.57.28,3.14.42,4.54h68.93V.05c-2.44.23-4.47.43-6.51.62Z"/>
    </g>
  </g>
</svg>