<?xml version="1.0" encoding="UTF-8"?>
<svg id="_レイヤー_2" data-name="レイヤー 2" xmlns="http://www.w3.org/2000/svg" viewBox="0 0 53.5 50">
  <defs>
    <style>
      .cls-1 {
        fill: #d7323a;
      }
    </style>
  </defs>
  <g id="pc">
    <g>
      <path class="cls-1" d="m26.75,45.35c.57,0,1.03-.46,1.03-1.03v-9.5c0-.57-.46-1.03-1.03-1.03s-1.03.46-1.03,1.03v9.5c0,.57.46,1.03,1.03,1.03Z"/>
      <path class="cls-1" d="m18.09,45.35c.57,0,1.03-.46,1.03-1.03v-9.5c0-.57-.46-1.03-1.03-1.03s-1.03.46-1.03,1.03v9.5c0,.57.46,1.03,1.03,1.03Z"/>
      <path class="cls-1" d="m9.43,45.35c.57,0,1.03-.46,1.03-1.03v-9.5c0-.57-.46-1.03-1.03-1.03s-1.03.46-1.03,1.03v9.5c0,.57.46,1.03,1.03,1.03Z"/>
      <path class="cls-1" d="m35.41,45.35c.57,0,1.03-.46,1.03-1.03v-9.5c0-.57-.46-1.03-1.03-1.03s-1.03.46-1.03,1.03v9.5c0,.57.46,1.03,1.03,1.03Z"/>
      <path class="cls-1" d="m44.07,45.35c.57,0,1.03-.46,1.03-1.03v-9.5c0-.57-.46-1.03-1.03-1.03s-1.03.46-1.03,1.03v9.5c0,.57.46,1.03,1.03,1.03Z"/>
      <path class="cls-1" d="m52.47,28.69h-4.88l-17.99-8.3c1.44-.94,2.41-2.56,2.41-4.4,0-2.54-1.82-4.67-4.22-5.15v-1.82h3.19c.27,0,.52-.1.72-.29l3.21-3.11c.2-.19.31-.46.31-.74V1.03c0-.57-.46-1.03-1.03-1.03h-14.87c-.57,0-1.03.46-1.03,1.03v3.85c0,.28.11.55.31.74l3.21,3.11c.19.19.45.29.72.29h3.19v2.75c0,.57.46,1.03,1.03,1.03,1.76,0,3.19,1.43,3.19,3.19s-1.43,3.19-3.19,3.19-3.19-1.43-3.19-3.19c0-.57-.46-1.03-1.03-1.03s-1.03.46-1.03,1.03c0,1.85.96,3.46,2.41,4.4L5.91,28.69H1.03c-.57,0-1.03.46-1.03,1.03v19.24c0,.57.46,1.03,1.03,1.03h51.43c.57,0,1.03-.46,1.03-1.03v-19.24c0-.57-.46-1.03-1.03-1.03ZM22.94,6.96l-2.6-2.51v-2.38h12.81v2.38l-2.6,2.51h-7.61Zm3.81,14.39l15.92,7.35H10.83l15.92-7.35Zm24.69,26.59H2.06v-17.18h49.37v17.18Z"/>
    </g>
  </g>
</svg>