<?xml version="1.0" encoding="UTF-8"?>
<svg id="_レイヤー_2" data-name="レイヤー 2" xmlns="http://www.w3.org/2000/svg" viewBox="0 0 85.65 85">
  <defs>
    <style>
      .cls-1 {
        fill: #fff;
        stroke-width: 0px;
      }
    </style>
  </defs>
  <g id="pc">
    <g>
      <g>
        <g>
          <path class="cls-1" d="m38.82,43.39c-.37,0-.73-.15-.99-.45-3.49-3.96-6.45-3.49-9.32-3l-5.07,1.31c-.45.12-.92.19-1.38.23-.73.05-1.37-.49-1.42-1.22-.06-.73.49-1.37,1.22-1.42.31-.02.62-.08.93-.15l5.13-1.32s.07-.02.11-.02c3.09-.52,7.32-1.23,11.81,3.85.48.55.43,1.39-.12,1.87-.25.22-.56.33-.87.33Z"/>
          <path class="cls-1" d="m29.11,76.97c-.69,0-1.38-.1-2.06-.32l-4.13-1.28c-1.25-.39-2.57-.4-3.82-.04l-4.15,1.2c-1.78.51-3.65.31-5.27-.59-1.62-.9-2.8-2.37-3.31-4.15L.46,51.79c-1.1-3.83-.2-7.91,2.4-10.92,2.95-3.41,7.67-4.83,12.01-3.63l1.03.29c.7.2,1.12.93.92,1.63-.2.7-.93,1.12-1.63.92l-1.03-.29c-3.37-.94-7.02.17-9.3,2.81-2.02,2.33-2.71,5.49-1.86,8.45l5.91,20.02c.32,1.11,1.04,2.02,2.05,2.57,1,.55,2.16.68,3.26.36l4.15-1.2c1.75-.51,3.6-.49,5.34.05l4.13,1.28c1.09.34,2.25.23,3.26-.3,1.01-.53,1.76-1.43,2.09-2.52.22-.7.96-1.09,1.66-.87.7.22,1.09.96.87,1.66-.55,1.77-1.75,3.22-3.39,4.08-1.01.53-2.11.8-3.22.8Z"/>
          <path class="cls-1" d="m21.31,45.99c-.62,0-1.17-.43-1.3-1.06-.02-.11-.55-2.74-.11-5.95.6-4.37,2.7-7.72,6.07-9.69.63-.37,1.44-.16,1.81.48.37.63.16,1.44-.48,1.81-6.47,3.77-4.72,12.73-4.7,12.82.15.72-.32,1.42-1.03,1.56-.09.02-.18.03-.27.03Z"/>
        </g>
        <path class="cls-1" d="m54.03,85c-12.18,0-22.08-9.45-22.08-21.07,0-4.68,1.58-9.12,4.56-12.82,2.88-3.57,6.95-6.22,11.46-7.44.71-.19,1.43.22,1.62.93.19.71-.22,1.43-.93,1.62-8.28,2.25-14.07,9.53-14.07,17.71,0,10.16,8.72,18.42,19.44,18.42s19.44-8.26,19.44-18.42c0-4.46-1.78-8.79-5.03-12.18-.51-.53-.49-1.37.04-1.87.53-.51,1.37-.49,1.87.04,3.71,3.88,5.76,8.86,5.76,14.01,0,11.62-9.91,21.07-22.08,21.07Z"/>
        <circle class="cls-1" cx="60.62" cy="71.11" r="1.55"/>
        <circle class="cls-1" cx="67.23" cy="71.11" r="1.55"/>
        <circle class="cls-1" cx="59.76" cy="77.2" r="1.55" transform="translate(-29.1 117.63) rotate(-76.72)"/>
        <path class="cls-1" d="m53.95,51.05c-.71,0-1.3-.57-1.32-1.29,0-.11-.07-2.77.59-6.19.89-4.66,2.63-8.33,5.15-10.91.51-.52,1.35-.53,1.87-.02.52.51.53,1.35.02,1.87-2.67,2.73-3.88,6.67-4.43,9.5-.61,3.14-.55,5.65-.55,5.68.02.73-.56,1.34-1.29,1.36-.01,0-.02,0-.03,0Z"/>
        <path class="cls-1" d="m61.32,49.53c-3.77,0-7.21-2.1-7.39-2.21-.51-.31-.74-.93-.57-1.5.08-.26,1.92-6.42,6.67-8.23,4.75-1.82,10.23,1.53,10.46,1.67.51.31.74.93.57,1.5-.08.26-1.92,6.42-6.67,8.23-1.01.39-2.05.54-3.07.54Zm-5.06-3.96c1.53.74,4.63,1.93,7.18.95h0c2.55-.98,4.07-3.94,4.71-5.5-1.53-.74-4.63-1.93-7.18-.95-2.55.98-4.07,3.94-4.71,5.51Z"/>
      </g>
      <g>
        <path class="cls-1" d="m54.33,29.66c-.28,0-.57-.09-.81-.28-.58-.45-.69-1.28-.24-1.86.67-.87,1.02-1.9,1.02-3,0-2.72-2.21-4.93-4.93-4.93s-4.93,2.21-4.93,4.93c0,.53.08,1.05.25,1.55.23.69-.15,1.44-.84,1.67-.69.23-1.44-.15-1.67-.84-.25-.77-.38-1.57-.38-2.38,0-4.18,3.4-7.57,7.57-7.57s7.57,3.4,7.57,7.57c0,1.69-.54,3.28-1.57,4.62-.26.34-.65.52-1.05.52Z"/>
        <path class="cls-1" d="m46.06,37.58c-.54,0-1.05-.33-1.24-.87-.3-.83-.46-1.71-.46-2.6,0-4.18,3.4-7.57,7.57-7.57,1.64,0,3.21.52,4.52,1.5.59.44.71,1.27.27,1.85-.44.59-1.27.71-1.85.27-.85-.64-1.87-.97-2.94-.97-2.72,0-4.93,2.21-4.93,4.93,0,.58.1,1.15.3,1.69.25.69-.1,1.45-.79,1.7-.15.05-.3.08-.45.08Z"/>
        <path class="cls-1" d="m36.22,32.53c-.1,0-.2-.01-.3-.04-.71-.17-1.15-.88-.99-1.59.81-3.44,3.84-5.83,7.37-5.83,2.69,0,5.19,1.44,6.55,3.77.37.63.15,1.44-.48,1.81-.63.37-1.44.15-1.81-.48-.88-1.51-2.51-2.45-4.26-2.45-2.3,0-4.27,1.56-4.8,3.79-.14.61-.69,1.02-1.29,1.02Z"/>
        <path class="cls-1" d="m67.62,30.46c-.73,0-1.32-.59-1.32-1.32,0-2.72-2.21-4.93-4.93-4.93s-4.75,2.02-4.92,4.61c-.05.73-.67,1.28-1.41,1.24-.73-.05-1.28-.68-1.24-1.41.25-3.97,3.57-7.09,7.56-7.09s7.57,3.4,7.57,7.57c0,.73-.59,1.32-1.32,1.32Z"/>
        <path class="cls-1" d="m79.46,34.12c-.2,0-.4-.04-.59-.14-.65-.33-.92-1.12-.59-1.78.34-.69.52-1.43.52-2.2,0-2.72-2.21-4.93-4.93-4.93s-4.93,2.21-4.93,4.93c0,.73-.59,1.32-1.32,1.32s-1.32-.59-1.32-1.32c0-4.18,3.4-7.57,7.57-7.57s7.57,3.4,7.57,7.57c0,1.19-.27,2.33-.8,3.38-.23.46-.7.73-1.19.73Z"/>
        <path class="cls-1" d="m81.41,45.5c-.44,0-.87-.22-1.12-.62-.39-.62-.21-1.44.41-1.83,1.44-.91,2.29-2.47,2.29-4.17,0-2.72-2.21-4.93-4.93-4.93-.82,0-1.64.21-2.36.6-.64.35-1.45.11-1.8-.53-.35-.64-.11-1.45.53-1.8,1.11-.6,2.36-.92,3.62-.92,4.18,0,7.57,3.4,7.57,7.57,0,2.61-1.32,5-3.52,6.4-.22.14-.47.21-.71.21Z"/>
        <path class="cls-1" d="m79.7,54.51c-.44,0-.87-.22-1.12-.62-.39-.62-.2-1.44.42-1.82,1.45-.91,2.31-2.47,2.31-4.18,0-2.72-2.21-4.93-4.93-4.93-.35,0-.69.04-1.03.11-.72.15-1.42-.3-1.57-1.02-.15-.72.3-1.42,1.02-1.57.52-.11,1.05-.17,1.58-.17,4.18,0,7.57,3.4,7.57,7.57,0,2.62-1.33,5.02-3.55,6.42-.22.14-.46.2-.7.2Z"/>
        <path class="cls-1" d="m74.13,25.08c-.19,0-.38-.04-.56-.13-.66-.31-.95-1.1-.64-1.76.31-.65.46-1.36.46-2.09,0-2.72-2.21-4.93-4.93-4.93s-4.93,2.21-4.93,4.93c0,.51.08,1.01.23,1.48.22.7-.17,1.44-.86,1.66-.7.22-1.44-.17-1.66-.86-.23-.74-.35-1.5-.35-2.28,0-4.18,3.4-7.57,7.57-7.57s7.57,3.4,7.57,7.57c0,1.12-.24,2.2-.71,3.21-.23.48-.7.76-1.2.76Z"/>
        <path class="cls-1" d="m51.94,20.15c-.48,0-.95-.27-1.18-.73-.54-1.07-.81-2.22-.81-3.42,0-4.18,3.4-7.57,7.57-7.57s7.57,3.4,7.57,7.57c0,.44-.04.89-.12,1.32-.13.72-.81,1.2-1.53,1.07-.72-.13-1.2-.81-1.07-1.53.05-.28.08-.57.08-.86,0-2.72-2.21-4.93-4.93-4.93s-4.93,2.21-4.93,4.93c0,.78.18,1.53.53,2.22.33.65.07,1.45-.58,1.78-.19.1-.4.14-.6.14Z"/>
        <path class="cls-1" d="m73.14,18.28c-.35,0-.7-.14-.96-.41-.5-.53-.48-1.37.05-1.87.99-.94,1.53-2.21,1.53-3.57,0-2.72-2.21-4.93-4.93-4.93s-4.89,2.18-4.93,4.85c-.01.73-.62,1.32-1.34,1.3-.73-.01-1.31-.61-1.3-1.34.06-4.11,3.46-7.46,7.57-7.46s7.57,3.4,7.57,7.57c0,2.09-.84,4.04-2.35,5.49-.26.24-.58.37-.91.37Z"/>
      </g>
      <path class="cls-1" d="m61.92,12.89c-.66,0-1.23-.49-1.31-1.16-.02-.2-.57-4.85,1.93-10.92.28-.68,1.05-1,1.73-.72.68.28,1,1.05.72,1.73-2.24,5.42-1.76,9.54-1.75,9.58.09.73-.42,1.39-1.15,1.48-.06,0-.11.01-.17.01Z"/>
    </g>
  </g>
</svg>