<?xml version="1.0" encoding="UTF-8"?>
<svg id="_レイヤー_2" data-name="レイヤー 2" xmlns="http://www.w3.org/2000/svg" viewBox="0 0 25.19 25.08">
  <defs>
    <style>
      .cls-1 {
        fill: #fff;
        stroke-width: 0px;
      }
    </style>
  </defs>
  <g id="pc">
    <g>
      <path class="cls-1" d="m21.16,18.45c-.16-.16-.45-.16-.61,0l-.06.06c-.17-.17-.52-.53-.87-.89-.25-.25-.5-.5-.68-.69-.08-.08-.15-.15-.22-.21,1.33-1.75,2.12-3.93,2.12-6.29,0-1.81-.47-3.59-1.36-5.16-.12-.21-.38-.28-.59-.16s-.28.38-.16.59c.82,1.43,1.25,3.07,1.25,4.73,0,5.27-4.29,9.56-9.56,9.56S.86,15.69.86,10.42,5.15.86,10.42.86c2.08,0,4.06.66,5.72,1.9.19.14.46.1.6-.09.14-.19.1-.46-.09-.6-1.81-1.36-3.97-2.07-6.24-2.07C4.68,0,0,4.68,0,10.42s4.68,10.42,10.42,10.42c2.47,0,4.75-.87,6.54-2.31.33.33,1.16,1.16,1.75,1.76l-.15.15c-.17.17-.17.44,0,.61l3.9,3.9c.08.08.19.13.3.13s.22-.05.3-.13l2-2c.17-.17.17-.44,0-.61l-3.9-3.9Zm-3.56-.49c.2-.19.39-.38.57-.58.29.28,1.03,1.03,1.72,1.73l-.57.57c-.97-.98-1.46-1.47-1.71-1.72Zm5.16,6.08l-3.29-3.29,1.39-1.39,3.29,3.29-1.39,1.39Z"/>
      <path class="cls-1" d="m10.42,2.89c-4.15,0-7.53,3.38-7.53,7.53s3.38,7.53,7.53,7.53,7.53-3.38,7.53-7.53-3.38-7.53-7.53-7.53Zm0,14.2c-3.68,0-6.67-2.99-6.67-6.67s2.99-6.67,6.67-6.67,6.67,2.99,6.67,6.67-2.99,6.67-6.67,6.67Z"/>
    </g>
  </g>
</svg>