<?xml version="1.0" encoding="UTF-8"?>
<svg id="_レイヤー_2" data-name="レイヤー 2" xmlns="http://www.w3.org/2000/svg" viewBox="0 0 71.34 85">
  <defs>
    <style>
      .cls-1 {
        fill: #fff;
        stroke-width: 0px;
      }
    </style>
  </defs>
  <g id="pc">
    <g>
      <g>
        <path class="cls-1" d="m10.23,85h-5.32c-2.71,0-4.91-2.2-4.91-4.91v-40.85c0-2.25,1.83-4.07,4.07-4.07.55,0,1-.45,1-1v-1.48h-.88c-1.97,0-3.58-1.61-3.58-3.59s1.61-3.58,3.58-3.58h18.48c1.97,0,3.58,1.61,3.58,3.58s-1.61,3.59-3.58,3.59h-.88v1.48c0,.55.45,1,1,1,2.25,0,4.07,1.83,4.07,4.07v14.52c0,.72-.59,1.31-1.31,1.31s-1.31-.59-1.31-1.31v-14.52c0-.8-.65-1.46-1.46-1.46-1.99,0-3.61-1.62-3.61-3.61v-2.79c0-.72.59-1.31,1.31-1.31h2.19c.53,0,.96-.44.96-.97s-.43-.96-.96-.96H4.19c-.53,0-.96.43-.96.96s.43.97.96.97h2.19c.72,0,1.31.59,1.31,1.31v2.79c0,1.99-1.62,3.61-3.61,3.61-.8,0-1.46.65-1.46,1.46v40.85c0,1.26,1.03,2.29,2.29,2.29h5.32c.72,0,1.31.59,1.31,1.31s-.59,1.31-1.31,1.31Z"/>
        <path class="cls-1" d="m21.29,32.69h-5.36c-.72,0-1.31-.59-1.31-1.31s.59-1.31,1.31-1.31h5.36c.72,0,1.31.59,1.31,1.31s-.59,1.31-1.31,1.31Z"/>
        <path class="cls-1" d="m24.82,44.64H7.87c-.72,0-1.31-.59-1.31-1.31s.59-1.31,1.31-1.31h16.95c.72,0,1.31.59,1.31,1.31s-.59,1.31-1.31,1.31Z"/>
      </g>
      <g id="Layer_3" data-name="Layer 3">
        <g>
          <path class="cls-1" d="m60.15,60.71c-.72,0-1.31-.59-1.31-1.31V19.77h-24.99v34.44c0,.72-.59,1.31-1.31,1.31s-1.31-.59-1.31-1.31V18.46c0-.72.59-1.31,1.31-1.31h27.61c.72,0,1.31.59,1.31,1.31v40.94c0,.72-.59,1.31-1.31,1.31Z"/>
          <path class="cls-1" d="m70.03,85c-.72,0-1.31-.59-1.31-1.31V19.77h-8.57c-.46,0-.88-.24-1.12-.63-.24-.39-.25-.88-.04-1.29l5.11-9.72c.23-.43.67-.7,1.16-.7,0,0,.01,0,.02,0,.49,0,.94.29,1.16.73l4.75,9.7c.05.1.09.2.11.3.02.11.04.22.03.32v65.21c0,.72-.59,1.31-1.31,1.31Zm-7.71-67.85h5.61l-2.7-5.52-2.9,5.52Z"/>
          <path class="cls-1" d="m32.54,19.77c-.27,0-.53-.08-.77-.25-.59-.42-.72-1.24-.3-1.83l6.96-9.64c.25-.34.64-.54,1.06-.54h7.76c.72,0,1.31.59,1.31,1.31s-.59,1.31-1.31,1.31h-7.09l-6.57,9.1c-.26.35-.66.54-1.06.54Z"/>
          <path class="cls-1" d="m65.2,10.13h-9.51c-.72,0-1.31-.59-1.31-1.31s.59-1.31,1.31-1.31h8.21V2.62h-23.1v6.11c0,.72-.59,1.31-1.31,1.31s-1.31-.59-1.31-1.31V1.31c0-.72.59-1.31,1.31-1.31h25.72c.72,0,1.31.59,1.31,1.31v7.51c0,.72-.59,1.31-1.31,1.31Z"/>
        </g>
      </g>
      <path class="cls-1" d="m62.77,85H23.55c-.72,0-1.31-.59-1.31-1.31s.59-1.31,1.31-1.31h37.91v-14.75H15.2c-.72,0-1.31-.59-1.31-1.31s.59-1.31,1.31-1.31h47.57c.72,0,1.31.59,1.31,1.31v17.37c0,.72-.59,1.31-1.31,1.31Z"/>
      <path class="cls-1" d="m23.9,85h-8.7c-.72,0-1.31-.59-1.31-1.31v-17.37c0-.15.02-.29.07-.43.1-.29,2.57-7.05,14.59-7.41.1,0,.19,0,.28.02l34.18,6.53c.71.14,1.18.82,1.04,1.53-.14.71-.82,1.18-1.53,1.04l-34.04-6.5c-9.07.31-11.55,4.57-11.98,5.47v15.8h7.39c.72,0,1.31.59,1.31,1.31s-.59,1.31-1.31,1.31Z"/>
      <path class="cls-1" d="m25.64,75.49c-.52,0-1.05-.08-1.57-.24-1.36-.42-2.48-1.35-3.14-2.61-.66-1.26-.8-2.7-.38-4.07.47-1.51,1.57-2.72,3.02-3.34.67-.28,1.43.03,1.72.7.28.67-.03,1.43-.7,1.72-.74.31-1.3.93-1.54,1.7-.21.69-.15,1.43.19,2.07.34.64.91,1.11,1.6,1.33,1.43.44,2.95-.36,3.4-1.79.21-.69.95-1.08,1.64-.86.69.21,1.08.95.86,1.64-.71,2.29-2.82,3.76-5.1,3.76Z"/>
      <path class="cls-1" d="m34.26,85c-.26,0-.52-.08-.75-.24-2.41-1.68-3.01-5.02-1.32-7.43.82-1.17,2.04-1.95,3.44-2.2,1.4-.25,2.82.06,3.99.88,1.29.9,2.12,2.32,2.26,3.89.07.72-.46,1.36-1.18,1.42-.72.07-1.36-.46-1.42-1.18-.07-.8-.49-1.52-1.15-1.98-.59-.42-1.32-.57-2.03-.45-.71.13-1.34.52-1.75,1.12-.86,1.23-.55,2.92.67,3.78.59.41.74,1.23.32,1.82-.25.36-.66.56-1.07.56Z"/>
      <path class="cls-1" d="m50.11,78.73c-1.14,0-2.29-.43-3.17-1.28-1.8-1.75-1.85-4.64-.1-6.44.94-.97,2.25-1.47,3.59-1.38.72.05,1.27.68,1.22,1.4-.05.72-.67,1.26-1.4,1.22-.57-.04-1.13.17-1.53.58-.74.77-.72,2,.04,2.74.77.74,2,.72,2.74-.04.5-.52,1.33-.53,1.85-.03.52.5.53,1.33.03,1.85-.89.92-2.08,1.38-3.27,1.38Z"/>
    </g>
  </g>
</svg>