<?xml version="1.0" encoding="UTF-8"?>
<svg id="_レイヤー_2" data-name="レイヤー 2" xmlns="http://www.w3.org/2000/svg" viewBox="0 0 80.73 85">
  <defs>
    <style>
      .cls-1 {
        fill: #fff;
        stroke-width: 0px;
      }
    </style>
  </defs>
  <g id="pc">
    <g>
      <g>
        <path class="cls-1" d="m62.99,85h-13.55c-7.46,0-13.52-6.07-13.52-13.52s6.07-13.52,13.52-13.52h13.55c7.46,0,13.52,6.07,13.52,13.52s-6.07,13.52-13.52,13.52Zm-13.55-24.5c-6.05,0-10.98,4.92-10.98,10.98s4.92,10.98,10.98,10.98h13.55c6.05,0,10.98-4.92,10.98-10.98s-4.92-10.98-10.98-10.98h-13.55Z"/>
        <circle class="cls-1" cx="63.93" cy="71.24" r="1.46"/>
        <circle class="cls-1" cx="59.18" cy="76.89" r="1.46"/>
        <circle class="cls-1" cx="65.4" cy="76.89" r="1.46"/>
      </g>
      <g>
        <path class="cls-1" d="m41.28,63.61c-.61,0-1.14-.43-1.25-1.05-.41-2.28-1.41-4.44-2.89-6.23-.45-.54-.37-1.34.17-1.79.54-.45,1.34-.37,1.79.17,1.76,2.13,2.95,4.69,3.44,7.41.12.69-.34,1.35-1.03,1.48-.08.01-.15.02-.23.02Z"/>
        <path class="cls-1" d="m26.68,81.07h-10.58c-8.88,0-16.1-7.22-16.1-16.1,0-3.56,1.14-6.94,3.3-9.77.43-.56,1.23-.67,1.79-.24.56.43.67,1.23.24,1.79-1.82,2.38-2.77,5.22-2.77,8.22,0,7.48,6.08,13.56,13.56,13.56h10.58c2.05,0,4.02-.44,5.85-1.32.63-.3,1.4-.04,1.7.6.3.63.04,1.4-.6,1.7-2.18,1.04-4.52,1.57-6.95,1.57Z"/>
        <path class="cls-1" d="m21.4,51.41s-.09,0-.13,0c-.7-.07-1.21-.7-1.14-1.4.29-2.87-.36-5.1-1.93-6.63-1.13-1.1-2.33-1.43-2.34-1.43-.68-.17-1.09-.87-.92-1.55.17-.68.87-1.09,1.55-.92.19.05,1.88.51,3.49,2.07,1.48,1.45,3.16,4.13,2.69,8.71-.07.66-.62,1.14-1.27,1.14Z"/>
        <g>
          <path class="cls-1" d="m7.82,53.26c-2,0-3.94-.73-5.38-2.09l-.97-.91c-.51-.48-.54-1.29-.05-1.8.48-.51,1.29-.54,1.8-.05l.97.91c1.33,1.25,3.37,1.71,5.22,1.18,2.76-.8,8.48-1.7,11.99-1.7.7,0,1.27.57,1.27,1.27s-.57,1.27-1.27,1.27c-3.25,0-8.74.86-11.28,1.59-.75.22-1.53.33-2.29.33Z"/>
          <path class="cls-1" d="m35.21,53.26c-.76,0-1.53-.11-2.29-.33-2.49-.72-8.19-1.59-11.53-1.59-.7,0-1.27-.57-1.27-1.27s.57-1.27,1.27-1.27c3.6,0,9.53.91,12.24,1.7,1.84.53,3.89.07,5.22-1.18l.97-.91c.51-.48,1.32-.46,1.8.05.48.51.46,1.32-.05,1.8l-.97.91c-1.45,1.36-3.39,2.09-5.38,2.09Z"/>
        </g>
        <path class="cls-1" d="m29.69,57.67c-1.58,0-3.62-.32-4.85-1.07-2.46-1.5-4.02-3.66-4.52-6.23-.13-.69.32-1.36,1.01-1.49.69-.13,1.36.32,1.49,1.01.36,1.88,1.49,3.4,3.34,4.54.91.56,3.32.83,4.45.63l.8-.14c.69-.12,1.35.34,1.48,1.03.12.69-.34,1.35-1.03,1.48l-.79.14c-.37.07-.85.1-1.38.1Z"/>
        <path class="cls-1" d="m11.25,58.04c-.08,0-.16,0-.23,0l-.78-.02c-.7-.02-1.26-.6-1.24-1.3.02-.69.58-1.24,1.27-1.24.01,0,.02,0,.03,0l.78.02c1.2.03,3.22-.28,4.4-.82,1.59-.74,2.2-1.85,2.85-3.03.53-.96,1.08-1.95,2.12-2.63.59-.38,1.38-.22,1.76.37.38.59.22,1.38-.37,1.76-.51.33-.85.95-1.28,1.73-.74,1.35-1.67,3.03-4.01,4.12-1.53.71-3.77,1.06-5.3,1.06Z"/>
      </g>
      <path class="cls-1" d="m72.56,35.79c-.7,0-1.27-.57-1.27-1.27s.57-1.27,1.27-1.27c3.1,0,5.62-2.52,5.62-5.62,0-2.47-1.65-4.69-4.02-5.39-.34-.1-.62-.34-.78-.65-.16-.32-.18-.68-.05-1.01.23-.63.35-1.28.35-1.96,0-3.1-2.52-5.62-5.61-5.62-.03,0-.05,0-.07,0-.64,0-1.18-.47-1.26-1.11-.37-2.78-2.76-4.87-5.57-4.87-1.17,0-2.29.36-3.24,1.03-.52.37-1.23.3-1.67-.17-1.08-1.15-2.53-1.78-4.11-1.78-1.02,0-2.01.27-2.88.79-.33.19-.72.23-1.08.11-.36-.13-.64-.41-.77-.76-.81-2.21-2.93-3.69-5.28-3.69-2.82,0-5.22,2.11-5.57,4.9-.05.38-.26.71-.58.92-.32.2-.72.25-1.08.13-.57-.19-1.17-.29-1.77-.29-3.1,0-5.62,2.52-5.62,5.62,0,.09,0,.18,0,.27.02.42-.17.82-.5,1.07-.33.25-.77.33-1.16.2-.56-.18-1.14-.27-1.72-.27-3.1,0-5.62,2.52-5.62,5.62,0,1.71.77,3.31,2.11,4.39.55.44.64,1.24.2,1.79-.44.55-1.24.64-1.79.2-1.95-1.56-3.06-3.88-3.06-6.38,0-4.5,3.66-8.17,8.17-8.17.31,0,.62.02.92.05.59-3.93,3.99-6.95,8.08-6.95.4,0,.81.03,1.2.09,1.04-3.36,4.18-5.75,7.8-5.75,2.94,0,5.64,1.6,7.08,4.09.93-.36,1.92-.54,2.93-.54,1.9,0,3.74.67,5.2,1.87,1.17-.62,2.47-.95,3.82-.95,3.72,0,6.94,2.53,7.88,6.03,4.04.49,7.18,3.94,7.18,8.11,0,.55-.05,1.1-.16,1.63,2.8,1.34,4.66,4.21,4.66,7.38,0,4.5-3.66,8.17-8.17,8.17Z"/>
      <path class="cls-1" d="m64.46,55.43c-.7,0-1.27-.57-1.27-1.27,0-8.57,2.35-16.48,2.45-16.81.2-.67.91-1.06,1.59-.85.67.2,1.06.91.85,1.59h0c-.02.08-2.34,7.89-2.34,16.08,0,.7-.57,1.27-1.27,1.27Z"/>
      <path class="cls-1" d="m56.48,53.55s-.01,0-.02,0c-.7,0-1.27-.59-1.26-1.29.11-7.98,1.65-13.22,1.71-13.43.2-.67.91-1.06,1.59-.86.67.2,1.06.91.86,1.58h0c-.02.05-1.5,5.14-1.61,12.74,0,.7-.58,1.26-1.27,1.26Z"/>
      <path class="cls-1" d="m49.08,52.27c-.66,0-1.22-.51-1.27-1.18-.58-8.16-2.38-13.41-2.4-13.46-.23-.66.12-1.39.78-1.62.66-.23,1.39.12,1.62.78.08.22,1.93,5.6,2.53,14.12.05.7-.48,1.31-1.18,1.36-.03,0-.06,0-.09,0Z"/>
      <path class="cls-1" d="m35.91,45.67c-.63,0-1.17-.46-1.26-1.1-.65-4.69-2.75-7.95-2.77-7.98-.38-.59-.22-1.38.37-1.76.59-.38,1.38-.22,1.76.37.1.15,2.43,3.74,3.16,9.02.1.7-.39,1.34-1.09,1.44-.06,0-.12.01-.18.01Z"/>
      <path class="cls-1" d="m67.46,38.99c-.7,0-1.27-.57-1.27-1.27s.57-1.27,1.27-1.27c2.28,0,4.13-1.85,4.13-4.13,0-1.62-.96-3.1-2.43-3.77-.33-.15-.57-.42-.69-.76-.11-.34-.07-.71.1-1.02.35-.62.53-1.32.53-2.03,0-2.28-1.85-4.13-4.13-4.13-.88,0-1.72.27-2.43.79-.29.21-.66.29-1.01.22-.35-.07-.66-.3-.84-.61-.65-1.13-1.87-1.83-3.17-1.83-1.5,0-2.83.9-3.39,2.29-.14.35-.43.62-.79.74-.36.12-.75.06-1.07-.14-.66-.42-1.43-.65-2.22-.65-2.28,0-4.13,1.85-4.13,4.13,0,.38.05.75.15,1.11.19.68-.21,1.38-.89,1.57-.68.19-1.38-.21-1.57-.89-.16-.58-.24-1.19-.24-1.8,0-3.68,3-6.68,6.68-6.68.82,0,1.62.15,2.38.44,1.14-1.66,3.03-2.67,5.1-2.67,1.78,0,3.45.77,4.62,2.06.88-.42,1.84-.63,2.84-.63,3.68,0,6.68,3,6.68,6.68,0,.72-.12,1.44-.35,2.12,1.75,1.24,2.83,3.27,2.83,5.46,0,3.68-3,6.68-6.68,6.68Z"/>
      <path class="cls-1" d="m57.31,33.5c-.43,0-.86-.22-1.1-.62-.67-1.12-1.84-1.79-3.14-1.79-.27,0-.55.03-.82.09-.66.15-1.33-.24-1.51-.89-.44-1.56-1.89-2.66-3.52-2.66-2.02,0-3.66,1.64-3.66,3.66,0,.7-.57,1.27-1.27,1.27s-1.27-.57-1.27-1.27c0-3.42,2.78-6.2,6.2-6.2,2.38,0,4.53,1.38,5.56,3.46,2.27-.11,4.46,1.07,5.62,3.02.36.6.16,1.39-.44,1.75-.2.12-.43.18-.65.18Z"/>
      <path class="cls-1" d="m29.14,33.23c-3.42,0-6.2-2.78-6.2-6.2s2.78-6.2,6.2-6.2c.06,0,.13,0,.19,0,.59-2.81,3.09-4.93,6.07-4.93,1.47,0,2.88.52,3.98,1.45.89-.47,1.89-.73,2.91-.73,2.59,0,4.93,1.63,5.82,4.06.24.66-.09,1.39-.75,1.64-.66.24-1.39-.09-1.64-.75-.53-1.43-1.91-2.39-3.43-2.39-.84,0-1.63.28-2.29.8-.54.44-1.34.35-1.78-.19-.7-.85-1.73-1.34-2.83-1.34-2.02,0-3.66,1.64-3.66,3.66,0,.04,0,.08,0,.13.02.41-.16.8-.48,1.05-.32.25-.74.34-1.13.23-.32-.09-.66-.14-.99-.14-2.02,0-3.66,1.64-3.66,3.66s1.64,3.66,3.66,3.66c.7,0,1.27.57,1.27,1.27s-.57,1.27-1.27,1.27Z"/>
    </g>
  </g>
</svg>