<?xml version="1.0" encoding="UTF-8"?>
<svg id="_レイヤー_2" data-name="レイヤー 2" xmlns="http://www.w3.org/2000/svg" viewBox="0 0 64.31 53.04">
  <defs>
    <style>
      .cls-1 {
        fill: #fff;
      }
    </style>
  </defs>
  <g id="pc">
    <g>
      <path class="cls-1" d="m8.42,11.9c.84,0,1.52-.68,1.52-1.52V3.93c0-.5.4-.9.9-.9h5.77c.84,0,1.52-.68,1.52-1.52s-.68-1.52-1.52-1.52h-5.77c-2.17,0-3.93,1.76-3.93,3.93v6.45c0,.84.68,1.52,1.52,1.52Z"/>
      <path class="cls-1" d="m47.7,3.04h5.77c.5,0,.9.4.9.9v6.45c0,.84.68,1.52,1.52,1.52s1.52-.68,1.52-1.52V3.93c0-2.17-1.76-3.93-3.93-3.93h-5.77c-.84,0-1.52.68-1.52,1.52s.68,1.52,1.52,1.52Z"/>
      <path class="cls-1" d="m16.6,50h-5.77c-.49,0-.9-.4-.9-.9v-6.45c0-.84-.68-1.52-1.52-1.52s-1.52.68-1.52,1.52v6.45c0,2.17,1.76,3.93,3.93,3.93h5.77c.84,0,1.52-.68,1.52-1.52s-.68-1.52-1.52-1.52Z"/>
      <path class="cls-1" d="m55.89,41.13c-.84,0-1.52.68-1.52,1.52v6.45c0,.49-.4.9-.9.9h-5.77c-.84,0-1.52.68-1.52,1.52s.68,1.52,1.52,1.52h5.77c2.17,0,3.93-1.76,3.93-3.93v-6.45c0-.84-.68-1.52-1.52-1.52Z"/>
      <path class="cls-1" d="m62.79,25H1.52c-.84,0-1.52.68-1.52,1.52s.68,1.52,1.52,1.52h61.27c.84,0,1.52-.68,1.52-1.52s-.68-1.52-1.52-1.52Z"/>
    </g>
  </g>
</svg>