<?xml version="1.0" encoding="UTF-8"?>
<svg id="_レイヤー_2" data-name="レイヤー 2" xmlns="http://www.w3.org/2000/svg" viewBox="0 0 19.91 24.76">
  <defs>
    <style>
      .cls-1 {
        fill: #1a1a1a;
        stroke-width: 0px;
      }
    </style>
  </defs>
  <g id="pc">
    <g>
      <path class="cls-1" d="m2.46,4.19c-.23-.16-.55-.1-.71.13-1.14,1.66-1.75,3.61-1.75,5.64,0,2.87,2.58,6.71,4.75,9.42,1.27,1.6,2.48,2.91,3.27,3.73,1.59,1.66,1.73,1.66,1.94,1.66s.36,0,1.95-1.66c.64-.67,1.92-2.04,3.27-3.73,2.16-2.71,4.74-6.55,4.74-9.42C19.91,4.46,15.44,0,9.95,0c-1.49,0-2.93.32-4.27.96-.26.12-.36.43-.24.68.12.26.43.36.68.24,1.2-.57,2.49-.86,3.83-.86,4.92,0,8.93,4.01,8.93,8.93,0,4.38-7.32,12.2-8.93,13.65-1.63-1.47-8.93-9.28-8.93-13.65,0-1.82.54-3.56,1.57-5.06.16-.23.1-.55-.13-.71Z"/>
      <path class="cls-1" d="m15.09,9.44c0-2.89-2.35-5.25-5.25-5.25s-5.25,2.35-5.25,5.25,2.35,5.25,5.25,5.25,5.25-2.35,5.25-5.25Zm-9.47,0c0-2.33,1.89-4.22,4.22-4.22s4.22,1.89,4.22,4.22-1.89,4.22-4.22,4.22-4.22-1.89-4.22-4.22Z"/>
    </g>
  </g>
</svg>