<?xml version="1.0" encoding="UTF-8"?>
<svg id="_レイヤー_2" data-name="レイヤー 2" xmlns="http://www.w3.org/2000/svg" xmlns:xlink="http://www.w3.org/1999/xlink" viewBox="0 0 158 116">
  <defs>
    <style>
      .cls-1 {
        font-family: AvenirNextCondensed-Bold, 'Avenir Next Condensed';
        font-size: 24.14px;
        font-weight: 700;
      }

      .cls-1, .cls-2 {
        fill: #fff;
      }

      .cls-2 {
        filter: url(#outer-glow-1);
      }

      .cls-2, .cls-3, .cls-4 {
        stroke-width: 0px;
      }

      .cls-3 {
        fill: #5072a5;
      }

      .cls-4 {
        fill: #efffff;
      }
    </style>
    <filter id="outer-glow-1" filterUnits="userSpaceOnUse">
      <feOffset dx="0" dy="0"/>
      <feGaussianBlur result="blur" stdDeviation="5"/>
      <feFlood flood-color="#000" flood-opacity=".75"/>
      <feComposite in2="blur" operator="in"/>
      <feComposite in="SourceGraphic"/>
    </filter>
  </defs>
  <g id="pc">
    <g>
      <path class="cls-2" d="m141.96,93.53l-26.52-33.74c-9.5-14.5-19.61-32.31-23.52-39.31-.37-.66-.8-1.27-1.27-1.82-1.64-1.88-3.79-2.92-6.05-2.92h-12.77c-3.1,0-5.92,1.94-7.56,5.21-7.13,14.25-18.55,31.16-18.66,31.33-.06.09-.12.18-.17.27-8.86,14.09-26.79,38.34-28.81,41.07-.96,1.29-1.1,3.01-.38,4.44.72,1.43,2.19,2.34,3.8,2.34h118.58c1.63,0,3.11-.93,3.82-2.39.71-1.46.52-3.21-.48-4.49Z"/>
      <g>
        <path class="cls-3" d="m104.21,50.21l-48.28-5.08s-33.21,47.43-35.88,51.04h118.58l-34.41-45.95Z"/>
        <path class="cls-4" d="m64.56,53.81c1.28.32,2.5,1.1,3.56,2.27,1.67,1.92,3.65,3.07,5.71,3.32,2.67.27,5.31-.94,7.46-3.41.87-.98,1.83-1.77,2.84-2.34,2.14-1.25,4.53-.99,6.54.71,1,.84,2.07,1.44,3.19,1.76,2.01.6,4.09.07,5.88-1.51,1.72-1.57,3.6-2.56,5.53-2.96-7.38-11.97-14.18-23.98-17.04-29.09-.23-.41-.49-.78-.77-1.1-.82-.94-1.81-1.46-2.84-1.46h-12.76c-1.47,0-2.86,1.05-3.77,2.86-4.46,8.92-10.49,18.74-14.54,25.08,1.74,3.18,1.61,7.88,1.61,7.88,2.94-2.15,6.22-2.85,9.42-2Z"/>
      </g>
      <text class="cls-1" transform="translate(60.45 81.54)"><tspan x="0" y="0">TOP</tspan></text>
    </g>
  </g>
</svg>