<?xml version="1.0" encoding="UTF-8"?>
<svg id="_レイヤー_2" data-name="レイヤー 2" xmlns="http://www.w3.org/2000/svg" viewBox="0 0 88.7 85">
  <defs>
    <style>
      .cls-1 {
        fill: #fff;
        stroke-width: 0px;
      }
    </style>
  </defs>
  <g id="pc">
    <g>
      <g>
        <path class="cls-1" d="m36.62,48.24c-6.75,0-11.66-1.47-14.59-2.34-.52-.16-.98-.29-1.34-.39-.72-.19-1.15-.93-.96-1.65.19-.72.93-1.15,1.65-.96.41.11.88.25,1.43.41,2.79.83,7.46,2.23,13.81,2.23.75,0,1.35.61,1.35,1.35s-.61,1.35-1.35,1.35Z"/>
        <path class="cls-1" d="m15.68,42.8c-.23,0-.46-.06-.67-.18C6.44,37.78,1.93,30.36.74,28.21c-1.42-2.6-.76-5.82,1.57-7.66,2.03-1.6,3.63-3.49,5.33-5.5,2.33-2.76,4.75-5.6,8.41-7.77,4.11-2.44,9.23-3.62,15.66-3.62.58,0,3.68.08,8.06,1.74,4.92,1.85,9.49,4.91,13.6,9.08,2.83,2.87,7.49,4.19,10.91,4.79,2.64.46,5.25-.87,6.51-3.31,3.46-6.73,12.64-9.99,13.03-10.13.7-.24,1.52.1,1.77.8.25.69-.06,1.43-.74,1.69-.22.15-2.06,1.58-1.58,7.04.35,4-.86,6.89-1.94,8.62-.42.67-.85,1.21-1.23,1.65,1.47,1.32,2.78,3.55,2.78,7.31,0,.75-.61,1.35-1.35,1.35s-1.35-.61-1.35-1.35c0-2.94-.95-4.95-2.84-5.96-.41-.22-.68-.64-.71-1.1-.03-.46.18-.91.56-1.18.15-.11,3.92-2.97,3.38-9.08-.2-2.3-.04-4.07.29-5.44-2.67,1.47-6.02,3.82-7.67,7.03-1.8,3.5-5.57,5.4-9.38,4.74-5.53-.97-9.69-2.84-12.37-5.55-9.74-9.9-19.33-10.01-19.73-10.01-13.16,0-17.46,5.07-22.01,10.44-1.71,2.02-3.47,4.1-5.71,5.87-1.3,1.02-1.67,2.81-.88,4.24,2.2,4.02,6.7,9.53,12.8,13.12,1-.23,1.92-.63,2.75-1.21,2.86-1.98,4.18-5.81,3.45-9.99-.13-.74.37-1.44,1.1-1.56.73-.13,1.44.36,1.56,1.1.91,5.23-.85,10.09-4.58,12.68-1.28.89-2.73,1.48-4.3,1.74-.08.01-.15.02-.23.02Z"/>
        <circle class="cls-1" cx="15.17" cy="21.16" r="2.07"/>
        <path class="cls-1" d="m54.52,11.91c-.24,0-.48-.06-.7-.2-.64-.39-.84-1.22-.45-1.86,1.23-2.02.91-4.43.43-6.1-.21-.72-.93-1.16-1.68-1.02l-19.2,3.49c-.74.13-1.44-.35-1.57-1.09-.13-.73.35-1.44,1.09-1.57L51.63.07c2.12-.38,4.17.88,4.76,2.93.63,2.19,1.02,5.4-.72,8.26-.25.42-.7.65-1.16.65Z"/>
      </g>
      <g>
        <path class="cls-1" d="m42.81,85c-5.19,0-10.19-1.96-14.08-5.52-3.75-3.42-5.89-7.85-5.89-12.15,0-8.72,8.96-15.82,19.97-15.82s19.97,7.09,19.97,15.82c0,4.3-2.15,8.73-5.89,12.15-3.89,3.56-8.89,5.52-14.08,5.52Zm0-30.78c-9.52,0-17.27,5.88-17.27,13.11,0,3.54,1.83,7.24,5.01,10.15,3.39,3.1,7.74,4.81,12.26,4.81s8.86-1.71,12.26-4.81c3.19-2.91,5.01-6.61,5.01-10.15,0-7.23-7.75-13.11-17.27-13.11Z"/>
        <path class="cls-1" d="m42.81,85c-3.7,0-7.29-1.42-10.1-4-2.7-2.47-4.25-5.6-4.25-8.6s1.55-5.78,4.36-7.85c2.69-1.98,6.23-3.06,9.99-3.06s7.31,1.09,9.99,3.06c2.81,2.07,4.36,4.86,4.36,7.85s-1.55,6.13-4.25,8.6c-2.82,2.58-6.41,4-10.1,4Zm0-20.81c-6.42,0-11.65,3.68-11.65,8.21s5.19,9.89,11.65,9.89c5.27,0,11.65-4.41,11.65-9.89,0-4.53-5.22-8.21-11.65-8.21Z"/>
        <path class="cls-1" d="m42.81,85c-2.37,0-4.69-.98-6.52-2.77-1.7-1.66-2.72-3.79-2.72-5.7s1.02-3.77,2.88-5.1c1.72-1.23,3.98-1.91,6.37-1.91s4.65.68,6.37,1.91c1.85,1.33,2.87,3.14,2.87,5.1,0,3.83-4.12,8.46-9.24,8.46Zm0-12.78c-3.54,0-6.54,1.97-6.54,4.31s2.81,5.76,6.54,5.76,6.54-3.49,6.54-5.76-2.99-4.31-6.54-4.31Z"/>
      </g>
      <g>
        <path class="cls-1" d="m19.51,81.74c-3.83,0-7.52-1.38-10.4-3.9-2.8-2.44-4.4-5.62-4.4-8.72s1.59-6,4.48-8.14c2.77-2.06,6.43-3.19,10.31-3.19.55,0,1.11.02,1.65.07.74.06,1.3.72,1.23,1.46-.06.74-.72,1.3-1.46,1.23-.47-.04-.95-.06-1.42-.06-6.67,0-12.1,3.87-12.1,8.63,0,5.58,6.5,9.91,12.1,9.91,3.18,0,5.92-.96,8.16-2.85.57-.48,1.42-.41,1.91.16.48.57.41,1.42-.16,1.91-2.74,2.31-6.07,3.48-9.91,3.48Z"/>
        <path class="cls-1" d="m20.36,81.74c-2.49,0-4.91-.91-6.81-2.58-1.85-1.62-2.91-3.7-2.91-5.7,0-2.49,1.67-4.78,4.46-6.1.67-.32,1.48-.03,1.8.64.32.67.03,1.48-.64,1.8-1.83.87-2.92,2.24-2.92,3.66,0,2.52,3.13,5.57,7.02,5.57.75,0,1.35.61,1.35,1.35s-.61,1.35-1.35,1.35Z"/>
      </g>
      <g>
        <g>
          <path class="cls-1" d="m76.04,68.45h-9.05c-.75,0-1.35-.61-1.35-1.35s.61-1.35,1.35-1.35h9.05c5.49,0,9.95-4.47,9.95-9.95v-4.57c0-7.77-6.32-14.1-14.1-14.1h-22.74c.66,4.75,4.75,8.42,9.67,8.42h12.95c4.21,0,7.64,3.43,7.64,7.64v3.68c0,3.24-2.63,5.87-5.87,5.87h-4.42c-.75,0-1.35-.61-1.35-1.35s.61-1.35,1.35-1.35h4.42c1.75,0,3.17-1.42,3.17-3.17v-3.68c0-2.72-2.22-4.94-4.94-4.94h-12.95c-6.88,0-12.47-5.6-12.47-12.47,0-.75.61-1.35,1.35-1.35h24.18c9.27,0,16.8,7.54,16.8,16.8v4.57c0,6.98-5.68,12.66-12.66,12.66Z"/>
          <path class="cls-1" d="m47.72,37.12h-3.97c-2.34,0-4.25-1.91-4.25-4.25v-2.78c0-.75.61-1.35,1.35-1.35s1.35.61,1.35,1.35v2.78c0,.85.69,1.55,1.55,1.55h3.97c.75,0,1.35.61,1.35,1.35s-.61,1.35-1.35,1.35Z"/>
          <path class="cls-1" d="m48.31,40.96h-8.79c-2.34,0-4.25-1.91-4.25-4.25,0-.75.61-1.35,1.35-1.35s1.35.61,1.35,1.35c0,.85.69,1.55,1.55,1.55h8.79c.75,0,1.35.61,1.35,1.35s-.61,1.35-1.35,1.35Z"/>
          <path class="cls-1" d="m60.88,48.24c-.75,0-1.35-.61-1.35-1.35s.61-1.35,1.35-1.35c1.76,0,1.96-2.57,1.96-2.68.05-.74.69-1.31,1.44-1.26.74.05,1.31.68,1.26,1.43,0,.13-.09,1.27-.62,2.45-.8,1.79-2.24,2.77-4.04,2.77Z"/>
          <path class="cls-1" d="m70.71,48.24c-.75,0-1.35-.61-1.35-1.35s.61-1.35,1.35-1.35c3.63,0,6.58-2.95,6.58-6.58v-1.39c0-.75.61-1.35,1.35-1.35s1.35.61,1.35,1.35v1.39c0,5.12-4.17,9.29-9.29,9.29Z"/>
          <path class="cls-1" d="m78.28,53.62c-.75,0-1.35-.61-1.35-1.35s.61-1.35,1.35-1.35c3.21,0,5.82-2.61,5.82-5.82v-1.26c0-.75.61-1.35,1.35-1.35s1.35.61,1.35,1.35v1.26c0,4.7-3.82,8.52-8.52,8.52Z"/>
          <circle class="cls-1" cx="56.92" cy="40.52" r="1.86"/>
        </g>
        <path class="cls-1" d="m67.53,53.11c-.57,0-1.09-.36-1.28-.93-.24-.71.15-1.47.86-1.71,1.38-.46,2.36-1.16,2.91-2.08.41-.68.43-1.23.43-1.25v.02s2.7,0,2.7,0c0,.17-.06,4.17-5.19,5.87-.14.05-.29.07-.43.07Z"/>
        <path class="cls-1" d="m71.8,56.42c-.58,0-1.11-.37-1.29-.95-.22-.71.17-1.47.88-1.7,3.73-1.17,4.04-4.17,4.05-4.3.05-.75.7-1.3,1.44-1.25.75.05,1.31.7,1.26,1.45-.01.2-.4,4.94-5.94,6.68-.13.04-.27.06-.41.06Z"/>
      </g>
      <path class="cls-1" d="m82.17,60.5c-3.39,0-5.73-1.95-5.87-2.07-.57-.48-.64-1.34-.15-1.91.48-.57,1.33-.64,1.9-.16.14.12,3.28,2.66,7.2.64.66-.34,1.48-.08,1.82.58.34.66.08,1.48-.58,1.82-1.55.8-3.01,1.09-4.32,1.09Z"/>
      <path class="cls-1" d="m77.18,67.89c-.33,0-.67-.12-.93-.37-.94-.89-1.66-2.21-2.16-3.94-.35-1.22-.45-2.22-.45-2.26-.07-.74.47-1.41,1.21-1.48.74-.07,1.4.47,1.48,1.21.09.87.58,3.38,1.77,4.5.54.51.57,1.37.06,1.91-.27.28-.62.42-.98.42Z"/>
    </g>
  </g>
</svg>