<?xml version="1.0" encoding="UTF-8"?>
<svg id="_レイヤー_2" data-name="レイヤー 2" xmlns="http://www.w3.org/2000/svg" viewBox="0 0 26.15 26.11">
  <defs>
    <style>
      .cls-1 {
        fill: #1a1a1a;
        stroke-width: 0px;
      }
    </style>
  </defs>
  <g id="pc">
    <path class="cls-1" d="m1.66,20.4L.03,25.27c-.08.23-.02.48.15.65.12.12.29.19.46.19.06,0,.13,0,.19-.03l6.8-2.16c.18-.06.32-.2.39-.37L25.97,5.61c.25-.25.25-.66,0-.91L21.45.19c-.25-.25-.66-.25-.91,0l-7.87,7.87-1.28,1.28L2.58,18.14s-.06.06-.08.1c-.11.08-.19.18-.23.31l-.19.57-.43,1.28Zm1.79,3.51l-1.11-1.11s-.07-.06-.1-.08l.93-2.78,3.08,3.08-2.79.89Zm3.95-1.54l-3.61-3.61L20.99,1.55l3.61,3.61L7.4,22.37Z"/>
  </g>
</svg>