<?xml version="1.0" encoding="UTF-8"?>
<svg id="_レイヤー_2" data-name="レイヤー 2" xmlns="http://www.w3.org/2000/svg" viewBox="0 0 91.57 85">
  <defs>
    <style>
      .cls-1 {
        fill: #d7323a;
        stroke-width: 0px;
      }
    </style>
  </defs>
  <g id="pc">
    <g>
      <g>
        <path class="cls-1" d="m19.95,76.35c-4.47,0-8.58-.9-11.89-2.65-5.13-2.7-8.07-7.3-8.07-12.61,0-3.13,1.06-5.77,3.14-7.85,6.55-6.53,21.87-6.48,38.09-6.43,1.39,0,2.78,0,4.16,0,6.14,0,9.45.16,13.28.35,2.47.12,5.03.25,8.65.35,3.96.11,7.06,3.37,7.06,7.44s-3.01,7.22-6.86,7.43l-.94.05c-7.86.43-14.65.79-20.85,5.03-6.73,4.61-13.96,7.56-20.89,8.52-1.66.23-3.3.35-4.88.35Zm17.11-26.75c-13.56,0-26.76.44-31.96,5.62-1.56,1.56-2.32,3.48-2.32,5.87,0,4.31,2.34,7.91,6.58,10.14,3.97,2.1,9.33,2.81,15.08,2.01,6.51-.91,13.32-3.7,19.7-8.06,6.84-4.68,13.99-5.07,22.27-5.52l.93-.05c2.37-.13,4.22-2.17,4.22-4.64s-1.91-4.58-4.34-4.65c-3.66-.1-6.23-.23-8.72-.35-3.79-.19-7.07-.35-13.14-.35-1.38,0-2.77,0-4.17,0-1.38,0-2.77,0-4.15,0Z"/>
        <path class="cls-1" d="m19.95,85c-4.47,0-8.58-.9-11.89-2.65-5.13-2.7-8.07-7.3-8.07-12.61v-8.65c0-.77.62-1.4,1.4-1.4s1.4.62,1.4,1.4v8.65c0,4.31,2.34,7.91,6.58,10.14,3.97,2.1,9.33,2.81,15.08,2.01,6.51-.91,13.32-3.7,19.7-8.06,6.84-4.68,13.99-5.07,22.27-5.52l.93-.05c2.37-.13,4.22-2.17,4.22-4.64v-8.7c0-.77.62-1.4,1.4-1.4s1.4.62,1.4,1.4v8.7c0,3.96-3.01,7.22-6.86,7.43l-.94.05c-7.86.43-14.66.79-20.85,5.03-6.73,4.61-13.96,7.56-20.89,8.52-1.66.23-3.3.35-4.88.35Z"/>
        <path class="cls-1" d="m22.48,64.01c-3.43,0-7.12-1.13-7.12-3.62,0-.77.62-1.4,1.4-1.4.72,0,1.31.54,1.39,1.23.35.36,1.9.99,4.33.99,2.1,0,3.54-.47,4.12-.83-.58-.36-2.03-.83-4.12-.83-.77,0-1.4-.62-1.4-1.4s.62-1.4,1.4-1.4c3.43,0,7.12,1.13,7.12,3.62s-3.69,3.62-7.12,3.62Zm4.38-3.41h0,0Zm-8.7-.21h0s0,0,0,0Z"/>
      </g>
      <g>
        <path class="cls-1" d="m26.4,44.34c-.44,0-.87-.21-1.14-.6-1.51-2.16-2.87-4.42-4.03-6.69-3.79-7.45-5.28-14.71-5.86-19.5-.43-3.53,1.41-6.99,4.59-8.6,2.39-1.22,5.15-1.24,7.57-.07,2.42,1.17,4.11,3.36,4.63,6,1.07,5.4,2.66,10.18,4.71,14.22,2.05,4.03,4.98,8.13,8.71,12.18.52.57.49,1.45-.08,1.97-.57.52-1.45.49-1.97-.08-3.9-4.24-6.98-8.55-9.15-12.81-2.17-4.26-3.84-9.29-4.96-14.94-.35-1.77-1.49-3.25-3.11-4.03-1.62-.79-3.47-.77-5.08.05-2.13,1.09-3.37,3.41-3.08,5.78.56,4.56,1.98,11.49,5.58,18.57,1.1,2.16,2.39,4.3,3.83,6.36.44.63.29,1.5-.34,1.94-.24.17-.52.25-.8.25Z"/>
        <path class="cls-1" d="m25.87,27.9c-.34,0-.67-.12-.94-.36-.57-.52-.61-1.4-.09-1.97l5.86-6.45c.52-.57,1.4-.61,1.97-.09.57.52.61,1.4.09,1.97l-5.86,6.45c-.28.3-.65.46-1.03.46Z"/>
        <path class="cls-1" d="m33.37,43.92c-.34,0-.67-.12-.94-.36-.57-.52-.61-1.4-.09-1.97l5.86-6.45c.52-.57,1.4-.61,1.97-.09.57.52.61,1.4.09,1.97l-5.86,6.45c-.28.3-.65.46-1.03.46Z"/>
        <path class="cls-1" d="m28.49,36.48c-.34,0-.67-.12-.94-.36-.57-.52-.61-1.4-.09-1.97l5.86-6.45c.52-.57,1.4-.61,1.97-.09.57.52.61,1.4.09,1.97l-5.86,6.45c-.28.3-.65.46-1.03.46Z"/>
        <path class="cls-1" d="m57.39,36.98c-.39,0-.78-.17-1.06-.49-3.11-3.62-5.61-7.29-7.44-10.89-2.17-4.26-3.84-9.29-4.96-14.94-.35-1.77-1.49-3.25-3.11-4.03-1.62-.79-3.47-.77-5.08.05-.81.41-1.52,1.02-2.05,1.76-.45.63-1.32.77-1.95.32-.63-.45-.77-1.32-.32-1.95.79-1.1,1.85-2,3.05-2.62,2.39-1.22,5.15-1.24,7.57-.07,2.42,1.17,4.11,3.36,4.63,6,1.07,5.4,2.66,10.18,4.71,14.22,1.73,3.41,4.11,6.88,7.07,10.34.5.59.43,1.47-.15,1.97-.26.23-.59.34-.91.34Z"/>
        <path class="cls-1" d="m39.59,20.77c-.34,0-.67-.12-.94-.36-.57-.52-.61-1.4-.09-1.97l5.86-6.45c.52-.57,1.4-.61,1.97-.09.57.52.61,1.4.09,1.97l-5.86,6.45c-.28.3-.65.46-1.03.46Z"/>
        <path class="cls-1" d="m46.82,37.08c-.34,0-.67-.12-.94-.36-.57-.52-.61-1.4-.09-1.97l5.41-5.95c.52-.57,1.4-.61,1.97-.09.57.52.61,1.4.09,1.97l-5.41,5.95c-.28.3-.65.46-1.03.46Z"/>
        <path class="cls-1" d="m42.07,29.27c-.34,0-.67-.12-.94-.36-.57-.52-.61-1.4-.09-1.97l5.86-6.45c.52-.57,1.4-.61,1.97-.09.57.52.61,1.4.09,1.97l-5.86,6.45c-.28.3-.65.46-1.03.46Z"/>
      </g>
      <path class="cls-1" d="m55.76,41.19c-.16,0-.33-.03-.49-.09-.72-.27-1.09-1.07-.82-1.79l.58-1.56c1.01-2.7,2.55-5.11,4.58-7.17l8.93-9.03c.54-.55,1.43-.55,1.97-.01.55.54.55,1.43.01,1.97l-8.93,9.03c-1.75,1.77-3.08,3.85-3.94,6.18l-.58,1.56c-.21.56-.74.91-1.31.91Z"/>
      <path class="cls-1" d="m79.09,68.46c-.68,0-1.28-.5-1.38-1.2-.11-.76.42-1.47,1.18-1.58,6.13-.88,9.82-3.01,9.88-4.59l-1.47-19.64c-.31-4.12-2.08-8.01-4.99-10.95l-6.91-6.98c-.54-.55-.54-1.43.01-1.97.55-.54,1.43-.54,1.97.01l6.91,6.98c3.37,3.41,5.43,7.92,5.79,12.71l1.47,19.7s0,.07,0,.1c0,3.48-4.7,6.31-12.28,7.39-.07,0-.13.01-.2.01Z"/>
      <path class="cls-1" d="m73.31,30.79h-1.53c-.77,0-1.4-.62-1.4-1.4s.62-1.4,1.4-1.4h1.53c.93,0,1.69-.76,1.69-1.69V9.87c0-.39.17-.77.46-1.03.29-.26.68-.39,1.07-.36.11.01.2.02.28.02.79,0,1.53-.32,2.07-.89.54-.57.82-1.33.78-2.12-.08-1.46-1.34-2.67-2.81-2.69-1.12-.01-2.15.63-2.63,1.65-.23.49-.72.8-1.26.8h0c-.54,0-1.03-.31-1.26-.8-.48-1.02-1.5-1.66-2.63-1.65-1.47.02-2.73,1.23-2.81,2.69-.04.79.23,1.55.78,2.12.54.57,1.28.89,2.07.89.08,0,.17,0,.28-.02.39-.04.78.09,1.07.36.29.26.46.64.46,1.03v12.66c0,.77-.62,1.4-1.4,1.4s-1.4-.62-1.4-1.4v-11.33c-1.18-.21-2.28-.8-3.12-1.68-1.08-1.14-1.62-2.63-1.54-4.19C63.64,2.38,66.08.04,69.04,0c1.48-.01,2.88.54,3.93,1.52C74.01.54,75.41-.02,76.9,0c2.96.04,5.4,2.38,5.56,5.33.08,1.57-.46,3.06-1.54,4.19-.83.88-1.94,1.47-3.12,1.68v15.11c0,2.47-2.01,4.48-4.48,4.48Z"/>
    </g>
  </g>
</svg>