<?xml version="1.0" encoding="UTF-8"?>
<svg id="_レイヤー_2" data-name="レイヤー 2" xmlns="http://www.w3.org/2000/svg" viewBox="0 0 220.33 247.38">
  <defs>
    <style>
      .cls-1 {
        opacity: .7;
      }

      .cls-2 {
        fill: #fff;
        stroke-width: 0px;
      }
    </style>
  </defs>
  <g id="pc">
    <g class="cls-1">
      <g class="cls-1">
        <path class="cls-2" d="m164.3,234.45s.51.55.87.14c.37-.41.69-1.19,1.52-1.65.83-.46,1.1-.64,1.56-1.29.46-.64,2.85-1.38,2.71-.46-.14.92.37,1.65-.41,2.44-.78.78-3.26,2.2-3.45,2.8-.18.6-.92,1.01-1.65.96-.74-.05-1.93.18-2.62.55-.69.37-1.19.41-1.24.83-.05.41.18.69.6,1.15.41.46.64,1.15.46,1.47-.18.32-.28.87-.92.55-.64-.32-1.19-1.06-1.52-.69-.32.37-1.65,1.7-1.98,2.25-.32.55.23,1.15,0,1.47-.23.32-1.84,1.19-2.07-.05-.23-1.24-.46-3.03.14-3.45.6-.41,1.88-.73,2.02-1.7.14-.96-.69-1.52.37-1.98,1.06-.46,2.94-1.01,3.31-1.38.37-.37.14-1.06-.32-1.24-.46-.18-.41-.73-.14-1.47.28-.73,1.52-.92,2.76.74Z"/>
      </g>
      <g>
        <path class="cls-2" d="m75.69,197.25s-.17.21-.51,0-.72-.59-.98-.68c-.25-.08-.42-.47-.59-.76-.17-.3-.38-.68-.38-.89s-.04-.55.42-.85c.47-.3,1.1-1.14,1.53-1.65.42-.51,1.02-1.06,1.53-1.48.51-.42,1.36-1.19,1.82-1.19s.81-.17.64.21c-.17.38-.21.81-.59,1.4-.38.59-1.19,1.57-.98,2.08.21.51.47,1.02.51,1.48.04.47-.21.59-.47.98-.25.38-1.44,1.36-1.95,1.36Z"/>
        <path class="cls-2" d="m124.92,131.16s-.57-.06-.51-.57c.06-.51-.19-1.02.32-1.53.51-.51,1.72-1.78,2.16-2.54.45-.76,1.14-1.21,1.08-.51-.06.7-.32,1.72-.57,2.23-.25.51-.51,1.34.32,1.34s1.4-.19,1.34.32c-.06.51-.51,1.53-1.02,1.97-.51.45-2.99,2.42-3.43,2.04-.45-.38.32-1.02.76-1.65.45-.64.83-1.08.57-1.4s-.7.45-1.02.32Z"/>
        <g>
          <path class="cls-2" d="m31.81,188.11c-.01.11.01.17.08.31.06.11.12.25.17.44.02.08.09.13.28.23.15.08.35.18.51.37.26.3.26.58.26.8,0,.1,0,.2.02.3v.05c.09.35.13.55.13.98,0,.03,0,.04,0,.04.03.03.19.06.49-.02.2-.05.39-.02.6.01.25.04.5.07.79,0l.05-.02q.44-.12.52-.39c.08-.25.2-.51.33-.77.11-.22.22-.45.31-.69.09-.23.2-.4.3-.56.17-.26.31-.49.36-.93.08-.77.38-1.29.83-2.08l.18-.32c.57-1.01,1.16-1.4,2.05-1.78.62-.26,1.08-.25,1.68-.23.25,0,.54.01.88,0,1.1-.04,2.37-.2,2.86-.28-.06-.15-.24-.42-.35-.58-.05-.08-.11-.16-.15-.23-.42-.67.34-1.2.8-1.51l.08-.06c.27-.19.75-.58,1.21-.96.24-.19.47-.39.68-.56.63-.51,1.2-.24,1.61-.05.11.05.21.1.31.13.3.1.93.18,1.6.26.38.05.79.1,1.2.16.15.02.27.04.38.05.04-.27,0-.88-.03-1.28-.03-.4-.05-.77-.04-1.02.04-.66.56-.95,1.05-1.24.11-.07.23-.13.35-.21.48-.31.74-1.16.56-1.85l-.08-.3q-.08-.29-.13-.38s-.06-.09-.1-.18c-.13-.23-.1-.41-.05-.52.12-.27.43-.33.7-.39l.08-.02c.19-.04.46-.21.62-.32.05-.22.16-.47.22-.74.13-.57-.49-.56-1.42-.52-.93.04-2.28.38-2.83.5-.55.13-2.5.89-3.52,1.31-1.02.42-1.14.75-1.52,1.05-.38.3-1.27,1.42-2,2.25-.22.25.05-.03-1.27,1.28-1.31,1.31-2.88,2.16-5.34,4.16-2.46,1.99-5.22,4.16-6.02,4.62-.25.14-.43.23-.6.3.21.4.36,1.06.32,1.37Z"/>
          <path class="cls-2" d="m56.82,189.53c-.12-.21-.24-.42-.33-.69-.05-.15-.12-.26-.2-.37-.14-.22-.31-.46-.24-.94.08-.56.08-1.62-.04-2.1-.08-.31-.19-.49-.35-.75-.08-.13-.17-.27-.26-.45-.16-.31-.23-.62-.29-.9-.05-.23-.1-.44-.18-.54-.14-.16-.17-.4-.21-.68-.07-.53-.16-.91-.56-1.07-.53-.2-.62-.21-.92-.23-.18-.01-.42-.03-.84-.09-.4-.06-.8-.11-1.18-.15-.72-.09-1.35-.16-1.71-.28-.13-.04-.25-.1-.37-.15-.42-.2-.68-.29-1.02-.02-.21.17-.44.36-.68.55-.49.4-.95.78-1.25.99l-.09.06c-.39.27-.77.55-.64.74.04.07.09.14.15.22.29.43.56.84.42,1.16-.04.09-.13.23-.38.28-.44.08-1.83.26-3.01.3-.36.01-.65,0-.91,0-.57-.01-.94-.02-1.45.19-.81.34-1.28.65-1.77,1.53l-.18.32c-.43.75-.69,1.21-.76,1.86-.06.58-.27.9-.45,1.18-.07.11-.13.22-.19.33.08.12.19.31.31.59.06.13.14.26.24.4.23.35.49.75.32,1.18-.15.39-.2,1.2-.04,1.42.11.14.18.29.24.42.1.21.15.3.24.32.28.07.86.4,1.24.72.25-.37.58-.82,1.04-1.06.47-.25,1.23-.72,1.82-.81.59-.09.89.17,1.4.51.51.34.98,1.19,1.15,1.7.17.51.55.17,1.1-.21.55-.38,1.53-1.02,2.8-1.48s2.59-.89,3.48-1.19c.89-.3,1.1.3,1.48.64.38.34.25.25.89.17s2.04-1.36,2.54-1.74c.1-.08.19-.14.27-.19-.05-.17-.15-.49-.29-.92-.1-.31-.23-.54-.35-.76Z"/>
          <path class="cls-2" d="m38.12,194.71c-.35-.09-.49-.37-.61-.63-.05-.11-.11-.23-.19-.33-.35-.47-.21-1.53-.04-1.97.06-.15-.11-.41-.27-.66-.1-.15-.2-.31-.28-.47-.03-.07-.06-.12-.09-.18-.04.07-.07.15-.11.22-.12.25-.24.48-.3.69-.16.54-.31.6-.9.77l-.05.02c-.19.05-.36.07-.52.07-.19,0-.36-.03-.51-.05-.16-.02-.3-.04-.38-.02-.3.08-.71.12-.98-.08-.1-.08-.22-.23-.22-.49,0-.37-.03-.53-.11-.86v-.05c-.05-.17-.05-.31-.05-.43,0-.19,0-.28-.12-.42-.09-.1-.21-.17-.35-.24-.22-.12-.49-.26-.57-.61-.03-.12-.07-.21-.12-.31-.08-.16-.17-.35-.14-.63.03-.27-.2-1.01-.33-1.15-.2.03-.43.06-.74.1-.89.13-2.5,2.25-3.6,2.71-1.1.47-3.05.42-4.2.21-1.15-.21-1.44-.13-1.87.09-.42.21.25,1.95.34,2.5.09.55-.42,1.23-.68,1.65-.25.42.64,1.74.89,2.08.25.34.81.08,1.87.25,1.06.17,1.06,1.4,1.7,1.65.64.25,1.87-.59,3.39-.72,1.53-.13,2.97,0,4.71.42,1.74.42,2.25,1.4,2.84,1.82.59.42.98.81,1.4.89.42.09.89-.72,1.27-1.4.38-.68.34-.89.42-1.27.09-.38.34-.76.47-1.48.07-.41.09-.71.14-.96-.21-.23-.88-.66-1.15-.73Z"/>
          <path class="cls-2" d="m114.17,187.67c.1-.36.15-.43.35-.61.07-.06.17-.15.31-.31.39-.42.77-.7,1.25-1.05.13-.09.26-.19.4-.3.22-.17.39-.28.54-.38.28-.19.44-.3.73-.64.31-.37.47-1.02.59-1.54.04-.17.08-.34.12-.48.15-.51.19-1.1.23-1.57v-.15c.03-.23.09-.39.18-.52-.15-.15-.37-.32-.61-.32-.19,0-.3.07-.45.15-.19.11-.42.25-.79.18-.33-.06-.47-.21-.58-.32-.08-.09-.12-.13-.33-.15-.24-.02-.34.04-.5.13-.15.09-.35.2-.67.25-.66.09-.9.04-1.47-.34-.12-.08-.23-.17-.32-.24-.28-.22-.38-.31-.8-.19-.22.06-.36.15-.5.22-.3.17-.59.34-1.33.21-.17-.03-.31-.05-.43-.07-.62-.1-.81-.14-1.5-.61-.77-.52-1.24-.83-1.83-1.13-.17-.09-.3-.17-.41-.24q-.25-.17-.46.03c-.46.43-1.01,1-1.41,1.5-.18.22-.32.55-.44.83-.09.21-.17.4-.27.56.06.1.13.23.2.4.2.5.49,1.24.6,1.54.29-.12.68-.22.8-.06.16.21-.47,1.1-.76,1.57-.3.47-.09.93.08,1.4.17.47.21,1.87.42,2.29.21.42.68.55.89.72.21.17.55.3.93.09.38-.21.25-.64,0-.93-.25-.3-.47-.81-.55-1.15-.09-.34.17-.93.47-.93s.47,1.06.59,1.27c.13.21.76.47,1.44.59.68.13,1.27-.47,1.65-.55.38-.08.81.55.81.76s-.25.3-.85.47c-.59.17-1.99.76-2.37.93-.38.17-.17.72-.17,1.06s.04.47.38.42c.34-.04,1.1-.08,2.16-.42,1.06-.34,2.12-.47,2.76-.59.15-.03.28-.06.41-.09.17-.28.3-.87.4-1.28.04-.16.07-.31.1-.42Z"/>
          <path class="cls-2" d="m103.1,180.68c-.07-.05-.15-.11-.24-.22-.12-.14-.62-.41-1.01-.63-.18-.1-.36-.19-.52-.29-.38-.21-.4-.2-.57-.11-.04.02-.08.05-.13.07-.19.09-.39.22-.53.3.07.36.09.74.05,1.29-.06.69-.21,1.17-.35,1.64-.08.24-.15.48-.2.73-.05.21-.07.46-.1.7-.08.69-.15,1.41-.72,1.51-.11.02-.23.04-.36.07-.48.1-1.07.22-1.68.15-.48-.06-1.05-.09-1.27.11,0,0,0,0,0,.01.15.61-.01,1.24-.18,1.73-.14.42-.08.64.12,1.17l.07.17c.19.49.37.94.24,1.56-.05.25-.15.42-.21.54,0,0,0,0,0,0,.02,0,.04.02.06.03.15.07.36.12.57.17.46.1,1.08.24.98.81-.1.57-.55,1.21-.94,1.56-.13.12-.25.18-.35.24-.17.09-.21.11-.15.53.07.45.06,1.01.05,1.51-.01.45-.02.88.03,1.09.2.79.34,1.81-.09,2.19-.18.16-.49.31-.83.49-.35.18-.75.37-1,.58-.11.09-.22.18-.33.26-.4.3-.77.59-.98,1.15,0,.02-.44,1.11-.91,1.64.03.03.06.05.1.08.8.64,1.3,1.08,1.51,1.26.38-.55.84-1.34,1.5-2.17.68-.85,1.36-.68,1.78-1.06.42-.38.72-.59.81-1.23.09-.64.21-1.78.21-2.42s1.02-.76,1.78-1.15c.76-.38,1.36-.68,1.36-.68.51-.3,1.37-.96,2.05-.83.68.13,1.26.66,1.68.75.42.09.72-.64,1.06-1.48.34-.85-.47-1.32-.34-1.66.13-.34-.5-.77-1.34-1.15s-1.51-.76-2.02-1.06c-.51-.3-.37-1.39-.41-1.85-.04-.47-.13-1.1-.04-1.57.08-.47.81-.72,1.19-1.1.38-.38.25-1.31.3-1.99.04-.68.3-.76.72-1.06.21-.15.39-.24.55-.31-.11-.29-.41-1.05-.61-1.55-.14-.36-.23-.42-.35-.51Z"/>
          <path class="cls-2" d="m89.58,203.24c-.52.06-1.04-.03-1.46-.1-.17-.03-.33-.06-.46-.07-.16-.01-.29-.09-.38-.21-.21-.3-.07-.79.08-1.31.04-.12.07-.24.09-.35.06-.27-.1-.48-.42-.85-.1-.11-.2-.23-.3-.36-.42-.55-.23-.85.04-1.16.07-.08.14-.16.2-.26.12-.19.27-.36.43-.53.25-.27.5-.56.7-1,.23-.52.19-.66.13-.88-.02-.07-.04-.14-.06-.21l-.02-.08c-.08-.36-.17-.78-.51-1.41-.05-.09-.08-.16-.12-.24-.52.28-1.47.46-1.82.43-.23-.02-.4.07-.71.24-.13.07-.28.16-.46.24-.63.29-1.12.32-1.71.28-.35-.02-.52.03-.76.12-.12.04-.25.09-.42.13-.11.03-.2.05-.29.08-.33.09-.54.14-.88.14s-.57-.28-.73-.55c-.11.55.94,1.68,1.12,2.02.21.38-.59.68-.93.89-.34.21.21,1.15.21,1.65s.19,1.11.02,1.78c-.17.68.8.64,1.73,1.15.93.51.84,1.56,1.48,1.98.64.42.68,2.16.98,2.8.3.64,1.53,1.05,2.63,1.55,1.1.51,2.24.27,2.71.44.47.17,1.06-1.06,1.57-1.82.41-.61,1.17-1.8,1.65-2.53-.15-.13-.67-.59-1.54-1.29-1-.8-1.18-.78-1.78-.7Z"/>
          <path class="cls-2" d="m80.47,195.3c.26,0,.43-.04.73-.13.09-.02.19-.05.3-.08.15-.04.27-.08.37-.12.27-.09.52-.18.99-.15.52.04.91.01,1.43-.23.15-.07.29-.15.42-.22.32-.18.63-.35,1.04-.31.39.04,1.42-.25,1.59-.41-.04-.27,0-.48.08-.76l.02-.06c.11-.41.08-.8,0-1.66-.06-.63.09-.93.26-1.25.11-.21.22-.42.3-.77.15-.66.29-.85.45-1.04.05-.06.08-.1.12-.17.05-.1.12-.2.18-.29.15-.23.29-.44.26-.75-.02-.27-.12-.4-.28-.62-.1-.13-.21-.29-.33-.5-.26-.48-.69-1.05-1.1-1.46-.08-.08-.08-.08-.25.02-.13.08-.3.19-.53.19-.44,0-.57-.36-.66-.59-.04-.11-.09-.23-.16-.32-.19-.26-.21-.27-.57-.47l-.41-.24c-.35-.2-.58-.34-.85-.56-.02-.02-.04-.04-.07-.06-.15.07-.4.17-.64.22-.01,0-.02,0-.03,0,.02.04.04.1.07.17.1.22.15.43.2.62.08.32.13.47.28.55.1.05.17.08.23.11.29.12.4.22.51.64.15.57.1,1.08-.16,1.52-.19.33-.49,1.21-.44,1.79,0,0,0,0,0,0,.09.51.42,1.1.51,1.44.09.34-.04.68-.21,1.02-.17.34-.42.89-.93,1.65-.51.76-1.31,1.44-1.99,1.95-.53.4-.77.61-1.1.89.11.23.26.42.33.42Z"/>
          <path class="cls-2" d="m68.49,184.26c.07-.15.14-.28.18-.39.07-.19.1-.46.14-.77.04-.34.08-.73.2-1.13.23-.79.65-1.17,1.09-1.56.17-.15.15-.31.07-.63-.01-.05-.02-.1-.04-.15-.16-.02-.41-.05-.77-.05-.14,0-.27,0-.39.01-.49.02-.95.04-1.33-.35-.25-.25-.27-.56-.29-.81-.02-.27-.03-.43-.2-.57-.5-.42-1.13-.79-1.57-1.03l-.06-.03c-.41-.23-.54-.3-.93-.06-.22.14-.42.33-.61.51-.26.25-.51.49-.81.58-.08.03-.16.06-.24.09-.31.12-.7.27-1.21-.03l-.07-.04c-.46-.27-.76-.44-1.31-.52l-.18-.03q-.42-.06-.7.33c-.08.12-.15.23-.22.33-.26.41-.49.77-1.16.85-.23.03-.44.02-.63,0-.42-.02-.5,0-.59.2-.07.17-.11.35-.15.51-.08.37-.18.8-.69,1-.18.07-.34.2-.49.33-.14.12-.28.24-.45.32.13.28.18.6.21.84.02.14.05.34.08.39.17.2.24.49.3.78.06.25.11.51.24.75.09.17.17.3.25.43.17.28.32.52.41.91.14.54.14,1.69.05,2.31-.04.27.03.36.15.55.08.13.19.28.26.51.07.22.17.39.28.59.13.23.28.49.4.85.14.41.23.73.29.91.13,0,.28.04.47.13.59.25,1.1,0,1.95-.25s1.31-.47,1.78-.59c.47-.13.64.3.93.59.3.3.85,0,1.48-.21.64-.21,1.57-.76,2.29-1.36.72-.59,1.78-1.48,2.25-1.95.02-.02.03-.03.05-.04-.31-.6-.74-1.37-.91-1.57-.34-.39-.06-.98.2-1.5Z"/>
          <path class="cls-2" d="m83.81,185.85c.18-.3.21-.67.1-1.09-.05-.17-.07-.21-.08-.22-.01,0-.06-.03-.1-.04-.08-.03-.17-.07-.29-.13-.38-.2-.47-.56-.56-.91-.04-.17-.09-.35-.17-.53-.15-.33-.23-.54-.12-.73.09-.17.26-.2.39-.22.03,0,.06-.01.09-.02.13-.03.27-.08.39-.12-.08-.19-.09-.43.07-.69.11-.17.05-.32-.29-.84-.13-.2-.4-.23-.81-.26-.23-.01-.46-.03-.69-.1-.59-.18-.64-.72-.69-1.2-.01-.15-.03-.31-.06-.46-.02-.11-.05-.13-.05-.13-.02-.01-.12-.02-.19-.02-.21-.01-.53-.03-.9-.25l-.14-.08c-.58-.34-.6-.36-.97-.39-.77-.07-.72-.72-.68-1.19.06-.84,1.14-1.37,1.35-1.47.16-.07.19-.11.2-.11,0-.05-.09-.3-.17-.5-.14-.34-.16-.5-.18-.6-.01-.07-.01-.08-.06-.15-.08,0-.23.07-.34.12-.24.1-.52.21-.79.18-.7-.06-.65-.68-.61-1.12v-.16c.04-.31-.19-.77-.33-1.01-.57.02-1.22-.13-1.7-.29-.57-.19-.95-.32-2.1-.32-1.02,0-1.79.51-2.67.89.23.29.54.74.63,1.16.07.33.07.65.07,1s0,.67.06,1.05c.13.84.22,1.73.22,2.08,0,.06.03.17.05.28.09.38.23.95-.23,1.37-.13.12-.26.23-.38.32-.22.18-.42.34-.42.45,0,.06.02.16.05.26.08.32.2.79-.23,1.18-.42.38-.75.67-.94,1.31-.1.35-.14.69-.18,1.03-.04.33-.07.64-.17.9-.05.13-.12.28-.2.44-.11.23-.38.78-.28.89.26.29.8,1.31,1.03,1.76.46-.02,1.12.11,2.25-.03,1.74-.21,1.7-.09,2.37-.13s1.36.42,2.33,1.02c.98.59,1.59.4,2.01.7.42.3,1.11.2,1.92-.1.81-.3,1.75-.18,2.35-.39.12-.04.23-.08.33-.12-.13-.76.26-1.85.5-2.26Z"/>
          <path class="cls-2" d="m55.21,173.41c-.08.02-.21.04-.28.07,0,0,0,0,0,0,.04.07.07.12.09.16.09.16.1.18.19.53l.08.3c.25.94-.1,2.03-.8,2.47-.12.08-.25.15-.37.22-.48.28-.75.45-.77.79-.01.2.01.56.04.94.04.62.07,1.06.03,1.36.26.02.44.07.94.26.13.05.24.12.34.2.12,0,.25-.09.46-.27.18-.15.39-.33.65-.43.21-.08.25-.21.34-.59.04-.18.09-.39.18-.61.25-.59.74-.57,1.14-.55.17,0,.34.02.53,0,.41-.05.51-.21.76-.6.07-.11.14-.22.23-.35.44-.61.64-.65,1.24-.56l.17.02c.66.09,1.04.31,1.52.59l.07.04c.28.16.44.1.72,0,.09-.04.18-.07.29-.1.17-.05.37-.24.58-.45.2-.2.43-.42.71-.58.67-.41,1.05-.2,1.49.04l.06.03c.46.25,1.12.64,1.66,1.09.37.31.39.69.41.97.01.22.03.35.12.45.2.2.44.2.91.18.13,0,.27-.01.42-.01.36,0,.63.02.82.05.11-.21.32-.38.55-.57.11-.09.23-.19.35-.3.2-.18.15-.45.06-.82-.04-.15-.07-.28-.07-.41,0-.32-.08-1.2-.21-1.99-.07-.43-.07-.81-.07-1.14s0-.61-.06-.88c-.08-.35-.41-.81-.62-1.06-.92.36-1.77.76-3.59.99-1.97.25-5.85-.06-6.68-.38-.83-.32-1.72.64-2.29.95s-1.02,0-1.53-.32c-.03-.02-.05-.03-.07-.05-.19.12-.43.25-.66.3l-.09.02Z"/>
          <path class="cls-2" d="m144.38,122.87c.61.1.75.51.88.9.02.06.04.11.06.17.07.2.1.36.13.51.04.22.06.35.2.51.09.11.45.09.71.08.26,0,.51-.02.72.04.44.13.78.66,1.03,1.04.05.08.1.15.14.21.31.44-.19.98-.55,1.38-.05.06-.1.11-.14.15-.07.09-.13.25-.18.4-.09.27-.2.58-.48.76-.32.2-.71.24-1.02.27-.07,0-.14.01-.19.02-.14.02-.35.28-.35.78,0,.4-.18,1.21-.35,1.92-.09.4-.2.9-.2,1.01,0,.05.07.25.96.77.36.21.55.16,1.03.01l.14-.04c.59-.17,1.14.34,1.63.8.16.15.31.29.45.4.72.57,1.26.94,1.61,1.11.13.07.62-.29.85-.46.21-.15.41-.3.59-.39.17-.09.16-.42.12-.89-.02-.22-.04-.44-.02-.65.03-.53.15-.72.34-.98.05-.07.1-.15.16-.25.12-.2.15-.51.17-.82.02-.22.04-.45.09-.67.12-.47.55-.72.97-.96.17-.1.34-.2.49-.3.44-.33.59-.57.76-.98.14-.36.23-.89.28-1.65.04-.62.27-1.25.5-1.86.05-.14.11-.28.16-.42.15-.43.11-.58,0-.97-.04-.16-.1-.36-.15-.62-.16-.82-.15-.92.08-1.32.02-.04.05-.09.08-.14.15-.27.23-.56.33-.9.06-.2.12-.41.2-.63.2-.57.22-.62.04-1.08-.12-.3-.16-.59-.21-.86-.04-.26-.08-.5-.18-.75-.16-.41-.17-.72-.16-.9-.07-.04-.14-.08-.2-.15-.35-.35-1.23-1.13-2.28-1.78-.73-.46-1.2-.64-1.74-.85-.19-.07-.38-.15-.59-.24-.28-.12-.51-.24-.71-.34-.4-.21-.72-.37-1.14-.4-.67-.04-2.46-.08-3.11-.05-.31,1.36-.6,2.82-1.06,4.15-.89,2.54-1.4,2.63-2.76,4.71-.17.26-.31.51-.43.76.38.04.92.14,1.7.31.25.05.47.1.6.12Z"/>
          <path class="cls-2" d="m78.02,172.61c-.02.17-.04.44,0,.49,0,0,.03.02.09.02.13.01.34-.07.53-.15.31-.13.74-.3.99.05.14.19.16.29.18.42.01.09.03.2.15.49.24.61.4,1.01-.32,1.34-.47.21-.99.62-1.02.99-.04.57-.01.57.17.59.5.05.61.11,1.21.47l.14.08c.26.15.47.16.65.17.27.02.64.04.76.61.04.18.05.36.07.52.05.5.09.65.29.71.16.05.35.06.55.07.45.03.95.06,1.25.51.32.48.62.94.3,1.45-.06.1-.11.18.24.48.22.19.43.31.76.5l.41.24c.39.23.48.29.74.62.12.16.18.33.23.46.03.08.08.21.11.23.09,0,.17-.04.26-.1.19-.12.55-.34.94.06.44.44.91,1.07,1.19,1.59.1.18.19.31.28.43.18.24.35.48.39.91.04.5-.18.83-.35,1.1-.03.04-.06.09-.08.13.03.06.09.14.18.21.18.14.34.23.77.2.49-.03.89.03,1.36.21.09.04.16.07.21.09,0,0,0,0,.01,0,.01,0,.02-.02.04-.02.04-.02.08-.05.13-.08.09-.05.17-.15.26-.25.18-.21.45-.54.96-.38.19.06.34.13.45.18.21.1.25.12.39.07.24-.08.54-.12.76-.15,0-.19.03-.38.11-.62.14-.41.28-.94.16-1.41-.05-.21-.75-.41-1.05-.49-.21-.06-.38-.11-.5-.17-.41-.21-.55-.83-.62-1.71-.02-.29-.33-.54-.65-.81-.09-.08-.19-.15-.27-.23-.43-.38-.37-.81-.31-1.31.02-.16.04-.33.05-.53.03-.61-.04-1.22-.11-1.87-.02-.18-.04-.36-.06-.55-.07-.69-.42-1.09-.86-1.6l-.13-.15c-.13-.15-.21-.28-.27-.4-.12.02-.26.03-.4.03-.4,0-.84-.06-1.04-.14-.17-.07-.51-.1-.84-.12-.22-.02-.46-.04-.68-.07-.52-.08-.61-.31-.67-.57-.02-.08-.03-.16-.08-.25-.08-.14-.12-.19-.16-.24-.1-.12-.14-.2-.17-.41-.05-.37.32-.77.54-.97,0-.08-.02-.16-.04-.24-.09-.34-.69-.29-.86-.63-.02-.03-.44.15-.76.3-.07.08-.56.45-.8.59-.3.17-.55-.34-.72-.72-.17-.38.08-.51.08-.51,0,0,.05-.65.26-1.12.21-.47.85-.94.34-1.32-.51-.38.24-.71-.59-1.03-.83-.32-2.97.94-3.73,1.32-.67.33-1.48.86-2.1,1.07.16.3.35.75.32,1.16v.16Z"/>
          <path class="cls-2" d="m149.48,112.31c.54.03.93.23,1.37.46.21.11.42.22.67.32.2.09.39.16.58.23.55.21,1.06.41,1.84.89,1.02.64,1.92,1.4,2.38,1.86.19.18.51.01.99-.26.1-.06.2-.11.29-.17.55-.3.84-.51.97-.9.11-.34.25-1.01.36-1.54.05-.24.1-.47.14-.64.07-.3-.26-.7-.52-1.03-.09-.11-.17-.22-.24-.31-.2-.29-.19-.6-.18-.89.01-.27.02-.58-.11-.96-.32-.9-.4-1.75-.27-2.76.13-.98.45-1.73.82-2.6l.04-.1c.35-.82.52-1.84.41-2.42l-.05-.22c-.11-.53-.2-.94.02-1.5.16-.41.38-1.12.58-2.2.14-.75.12-1.61.09-2.6,0-.19-.01-.39-.01-.6-.02-.92.03-1.22.08-1.51.02-.1.03-.21.05-.34.05-.53.12-1.11.22-1.74.07-.44.14-.76.2-1.07.03-.14.06-.27.09-.42.02-.08.02-.13.02-.16-.03-.01-.06-.03-.1-.04-.07-.03-.14-.06-.23-.1-.37-.17-.75-.35-1.12-.41-.1-.02-.47,0-1.65.56-.6.29-1.1.51-1.64.54-.35.02-.67-.13-1.02-.29-.23-.11-.47-.22-.75-.3-.47-.13-.64-.1-1.15-.03-.18.03-.39.06-.66.09-.42.05-.88.09-1.33.13-.69.06-1.4.12-1.93.21-.66.11-1.26.15-1.56.16,0,0,0,.02,0,.03.04.51.42,1.14.68,1.78.25.64-.04,2.37-.21,3.48-.17,1.1-.93,1.82-1.57,2.16-.64.34-.94.71-1.45.42-.51-.3-.51.25-.59.64-.08.38.52,1.15.6,1.41.09.25.59.38,1.06.21.47-.17,1.06-.51,1.7-.55.64-.04.93,1.31,1.31,2.16.38.85.43,1.15-.04,3.65-.47,2.5-.38,2.59-1.31,4.5-.38.77-.64,1.72-.88,2.74.77-.02,2.37.02,3.01.06Z"/>
          <path class="cls-2" d="m150.62,88.7c.45-.04.9-.08,1.32-.13.27-.03.47-.06.65-.09.53-.08.79-.12,1.38.05.32.09.6.22.84.33.29.14.54.25.75.24.43-.02.88-.22,1.42-.48,1.02-.49,1.63-.67,2-.61.43.08.86.27,1.26.46.08.04.14.06.2.08.37.14.53.31.42.83-.03.15-.06.29-.09.43-.07.31-.13.61-.2,1.04-.09.61-.17,1.19-.22,1.71,0,.04,0,.08-.01.12.23,0,.59-.02.93-.13.54-.18,1.6-.9,2.33-1.48.67-.54,1.02-.78,2.32-.87,1.08-.07,1.78-.22,2.41-.49.44-.19,1.65-1.31,2.11-1.75-.45-.7-1.11-1.6-1.77-2.04-.67-.45-.64-.19-.99-.67-.35-.48-.51-1.21-1.05-2.74-.54-1.53-.51-1.69-.51-3.34s.16-5.57.29-6.36c.13-.8,0-.99-.22-1.11-.22-.13-2.07.57-2.45.51-.38-.06-.89-.89-1.75-1.46-.86-.57-2.07-.86-2.54-1.02-.48-.16-.54.32-.76.7-.22.38-.6,1.94-.89,2.77-.29.83-.06,2.16.03,3.05.1.89.22.89.6.89s1.78-.45,2.42-.51c.64-.06,1.37-1.4,1.72-1.81.35-.41.92.41,1.08.6.16.19-.38,3.78-.45,4.68-.06.89-.86.73-1.27.7-.41-.03-1.27-1.02-1.56-1.72-.29-.7-.8-.48-1.27-.35-.48.13-.6,1.3-.73,1.97-.13.67-.29.73-.67.83-.38.1-.48-.25-.57-.67-.1-.41-.45-.76-.7-1.75-.25-.99-.7-2-.89-2.74-.19-.73-.35-.92-.64-1.11-.29-.19-1.69-.48-2.29-.51-.6-.03-.41,0-.6.25-.19.25-.45,1.78-.6,2.32-.16.54.22,1.62.22,2.45s-.32,2.07-.48,2.7c-.16.64-1.05.73-1.81.89-.76.16-.89-.03-1.4.54-.51.57-1.14,1.75-1.59,2.23-.45.48-.35.64.03.89.38.25.67.54.76.92.1.38.13,1.02.13,1.02,0,0-.02.03-.03.08.3-.02.85-.06,1.43-.15.56-.09,1.28-.15,1.97-.22Z"/>
          <path class="cls-2" d="m136.44,178.7c.06-.16,0-.3-.13-.56-.08-.16-.17-.34-.21-.55-.13.06-.32.15-.53.12-.29-.03-.53-.14-.67-.22-.12.07-.27.12-.47.13-.19.01-.35.03-.51.05-.39.05-.76.09-1.36.03-.38-.04-.69-.17-.97-.29-.38-.16-.61-.25-.84-.15-.46.2-.47.32-.51.7,0,.07-.01.14-.02.23-.03.45-.07,1.14-.52,1.67-.08.1-.15.19-.22.28-.21.27-.38.51-.69.54-.02,0-.04,0-.06,0-.25,0-.47-.16-.62-.29-.29-.25-.45-.49-.59-.69-.16-.24-.3-.46-.66-.68-.14-.09-.27-.17-.39-.24-.54-.32-1.01-.6-1.05-1.3-.02-.25,0-.58,0-.94.02-.64.05-1.43-.08-1.89-.1-.36-.2-.66-.28-.86-.01.01-.02.02-.03.03-.39.32-.46.67-.54,1.22l-.03.24c-.06.44-.09.68-.3,1.02-.06.1-.08.18-.09.3-.03.19-.07.43-.29.76-.31.47-.97.86-1.6,1.24-.13.08-.27.16-.39.24-.3.19-.57.31-.84.44-.35.17-.66.31-.95.56-.14.12-.26.21-.36.28-.3.23-.37.28-.39.54v.15c-.05.5-.1,1.12-.26,1.68-.04.13-.07.29-.11.45-.14.58-.3,1.3-.71,1.77-.34.4-.54.54-.85.74-.14.09-.3.2-.51.36-.15.11-.28.21-.41.3-.46.33-.81.6-1.16.98-.16.18-.27.28-.35.34q-.12.11-.18.34c-.03.11-.06.25-.1.4-.07.33-.16.7-.27,1.02.13-.02.25-.04.36-.04.34,0,.76-.25,1.23-.3.47-.04.93.19.93.19.21.02,1.01-.45,1.69-.38.68.06,1.29.35,2.3.48,1.02.13,1.33.56,2.07.71.74.15,1.34.25,1.78.3.45.04.57.02.61-.49.04-.51.3-1.04.38-1.61.09-.57.15-.66.49-1.12.34-.47.64-1.02.93-1.48.3-.47.59-1.02,1.1-1.14.51-.13.91-.36,1.06-.53.15-.17.36-.59.55-.98.19-.38.21-.72.81-.95.59-.23.97-.25,1.34-.3.36-.04.66.23.87.36.21.13.53.11.55.34.02.23-.42.66-.89.95-.47.3-.32,1.02-.34,1.59-.02.57.04,3.14.11,3.46.06.32.59.91.87,1.38.28.47.47.47.72.49.25.02,1.1-.51,1.46-.81.36-.3.57-.57.78-.91.21-.34.49-.68.89-1.4.4-.72.7-1.17.97-1.59.28-.42.15-.93.02-1.38-.13-.45-.19-.74-.19-1.23s-.25-.87-.38-1.12c0-.02,0-.03-.01-.05-1.12-.83-1.17-2.45-.98-2.97Z"/>
          <path class="cls-2" d="m86.64,174.48c.01.07.02.09.02.09,0,0,.01.02.02.03.05.06.12.14.22.32.09.16.12.3.14.4,0,.03.02.08.03.09h0s.05.02.18.04c.2.03.42.05.64.07.38.03.74.07.99.16.25.09.88.12,1.15.09.04-.22.16-.42.29-.62l.04-.07c.3-.47.74-.37,1.02-.31.13.03.26.06.38.05.16-.01.44-.41.61-.65.16-.23.32-.45.48-.57.35-.27.65.01.79.14.17.16.22.18.3.15.55-.18.97-.39,1.36-.68q.35-.25.23-1.13c-.04-.26-.05-.59.17-.76.23-.18.52-.07.78.03.12.05.25.1.35.11.36.06.7.22.98.36.12.06.24.11.33.15.09-.08.27-.34.38-.52.13-.21.27-.42.43-.6.44-.52.95-.31,1.29-.17.12.05.24.1.34.12.1.02.2.04.29.07.34.08.66.17,1.37-.02.91-.24,1.62-.48,2.52-.99.57-.32.58-.46.61-.79.01-.11.02-.23.06-.38.12-.54.08-.9-.16-1.49-.13-.34-.2-.6-.27-.86-.06-.25-.12-.49-.24-.79-.14-.36-.19-.62-.17-.9-.65-.07-1.6-.56-1.61-.57-.45-.24-.82-.35-1.26-.35-.51,0-.93-.24-1.46-.55-.09-.05-.19-.11-.29-.17-.46-.26-.83-.61-1.22-.98-.23-.21-.46-.43-.73-.66-.49-.41-.81-.75-.99-.94-.46.58-.99,1.3-1.54,1.97-.81.98-2.16,2.42-2.46,3.43-.3,1.02.93,3.01,1.1,3.48.17.47.47,1.02.25,1.36-.21.34-.85-.55-1.1-.76-.25-.21-.3.25-.47.42-.17.17-.98,1.99-1.19,2.38-.21.38-.72.47-1.15.64-.42.17-.51.3-.98.47-.47.17-.93.13-1.48.08-.45-.03-.73.04-.98.07-.2.18-.4.43-.4.52Z"/>
          <path class="cls-2" d="m98.38,160.93c.29.24.53.47.76.69.38.36.71.67,1.11.9.1.06.2.12.3.17.49.28.82.47,1.18.47.53,0,1.01.13,1.53.42.45.25,1.19.5,1.45.51.03-.13.07-.27.12-.42v-.05c.14-.4.25-.68.36-.92.12-.28.22-.5.28-.84v-.08c.13-.63.28-1.42.17-1.98-.04-.21-.1-.4-.17-.58-.12-.35-.24-.72-.18-1.17.06-.45-.06-1.25-.16-1.84-.02-.14-.04-.26-.06-.37-.07-.49.06-.94.2-1.42.05-.17.1-.35.15-.55.07-.28.16-.55.24-.82.14-.44.29-.89.34-1.39.08-.78.58-1.12.95-1.36.1-.06.18-.12.25-.18.36-.32,1.36-.59,1.54-.64,0,0,0-.01,0-.02.17-.59.22-1.13.26-1.64.04-.51-1.33.29-1.71.24-.38-.04-1.24-.8-1.37-1.56-.13-.76,2-1.11,2.59-1.32.59-.21,1.37-.51,2.18-1.49.81-.98,2.04-1.74,2.29-2.21.25-.47-.08-.89-.21-1.23-.13-.34-.13-.38-.59-.51-.47-.13-1.53.04-2.21.21s-3.52,1.44-4.24,1.82c-.72.38-1.65.85-2.16,1.19-.51.34-.51,2.2-.68,3.01-.17.81.25,1.78.47,2.71s.64,2.12.59,2.67c-.04.55-.38.72-.81,1.1-.42.38-.93,1.31-1.61,2.12-.68.81-3.39,4.54-3.94,5.13-.07.08-.14.16-.22.25.13.15.45.51.99.96Z"/>
          <path class="cls-2" d="m107.28,150.77c-.33.22-.65.43-.7.95-.06.56-.21,1.05-.37,1.51-.09.27-.17.52-.23.77-.05.2-.1.39-.15.57-.13.44-.23.82-.18,1.19.02.11.03.23.05.36.1.62.23,1.48.16,2.01-.05.32.04.58.15.91.06.19.14.4.18.65,0,.05.01.1.02.14.23-.13.51-.21.76-.09.13.06.23.15.32.23.22.19.23.2.38.06.14-.12.31-.33.49-.55.44-.53.94-1.12,1.48-1.29.2-.06.42-.19.64-.31.51-.28,1.08-.6,1.56-.24.49.37.59.44,1.04.41.14-.01.29-.05.45-.09.42-.11.93-.24,1.37.16.23.21.76.28,1.12.3,0-.37.3-.58.56-.76.19-.13.38-.27.53-.47.21-.29.32-.47.43-.66.12-.19.24-.39.46-.7.4-.56.46-.65.54-1.64.05-.64.02-1,0-1.38-.02-.23-.04-.46-.04-.76,0-.42-.1-.78-.2-1.16-.07-.27-.14-.55-.18-.84-.07-.54-.1-.56-.37-.8l-.05-.04c-.25-.22-.47-.5-.58-.66-.14.05-.27.11-.41.16-1.44.55-2.04.81-2.8,1.31-.76.51-1.53,1.82-1.99,2.08-.47.25-.81.34-1.24.09-.42-.25-.87-.31-1.47-.39-.59-.09-.35-.68-.39-1.18-.02-.24-.03-.39-.02-.54-.39.12-.87.29-1.04.44-.09.08-.2.15-.31.22Z"/>
          <path class="cls-2" d="m117.89,148.81l.05.04c.35.3.47.44.56,1.15.03.26.1.5.17.77.08.32.17.64.2,1,.07-.06.14-.13.22-.21.15-.14.26-.27.37-.4.21-.25.41-.49.78-.56.1-.02.22-.07.34-.13.31-.14.72-.33,1.14-.04.24.17.38.46.52.71.07.13.21.41.28.43.12-.02.2-.03.26-.04q.09-.01.36-.23l.07-.06c.13-.11.21-.21.28-.3.23-.29.41-.46,1.09-.35.21.03.39.08.55.12.49.12.5.1.59-.08.06-.12.11-.26.16-.41.17-.49.38-1.11,1.03-1.11.4,0,.45-.05.6-.18.03-.03.07-.06.11-.09.49-.41.91-.57,1.27-.48.02,0,.04,0,.1-.02.4-.13.64.03.97.62.22.4.46.74.67,1.05.24.34.45.64.57.93l.02.05c.2.48.26.63.21,1.15-.02.25-.06.63-.08.95.13-.08.26-.15.43-.25.65-.34,1.26-.67,1.96-1.17.37-.26.39-.52.42-.91.01-.21.03-.44.11-.69.21-.63.69-.73,1.07-.81.12-.03.23-.05.33-.09.39-.14.56-.26.83-.73.37-.63.82-.41,1.06-.29.05.03.11.06.17.08.22.08.56.25.96.45.25.12.51.25.76.37.02,0,.04.02.06.03,0-.31-.01-.69-.04-.88-.02-.16-.02-.36-.01-.6,0-.37,0-.79-.07-1.11-.06-.27-.28-.48-.51-.71-.15-.14-.3-.29-.42-.47-.31-.44-.16-.69.04-.93.05-.06.11-.13.16-.22l.09-.15c.16-.28.26-.45.26-.81,0-.17-.04-.32-.07-.47-.06-.24-.13-.52.01-.83.18-.41.8-.59,1.53-.77.1-.02.19-.05.26-.07.24-.06.44-.15.66-.25.19-.09.4-.17.64-.25.56-.19,1.48-.59,1.71-.82.09-.09,0-.52-.07-.84-.05-.23-.11-.49-.14-.75-.07-.62.14-.83.41-1.03.1-.07.19-.14.28-.27.18-.24.45-.49.71-.73.27-.24.54-.49.68-.7.17-.27.11-.78.07-1.02-.07-.03-.15-.07-.22-.11-.75-.44-1.24-.82-1.24-1.26,0-.17.08-.52.22-1.13.15-.65.33-1.46.33-1.79,0-.84.43-1.28.84-1.34.07,0,.14-.02.22-.03.25-.03.56-.06.78-.19.11-.07.18-.27.24-.46.07-.21.14-.42.29-.59.04-.05.09-.11.15-.17.14-.15.51-.55.5-.7-.03-.04-.09-.12-.14-.2-.18-.28-.48-.74-.72-.81-.12-.04-.33-.03-.54-.02-.42.02-.89.03-1.16-.28-.24-.27-.28-.53-.33-.77-.02-.13-.05-.27-.1-.42-.02-.06-.04-.12-.06-.18-.13-.38-.17-.48-.44-.52-.13-.02-.36-.07-.62-.13-.45-.1-1.43-.31-1.82-.32-.59,1.5-.48,2.79-.68,4.08-.25,1.65-.72,2.5-1.95,3.6-1.23,1.1-2.84,1.65-4.54,2.59-1.7.93-2.93,3.48-3.99,5.3-1.06,1.82-2.67,3.69-3.65,4.79-.98,1.1-.98,1.23-2.42,1.7-1.44.47-1.95.72-3.6,1.61-1.29.69-2.42,1.23-3.54,1.7.11.14.25.31.41.45Z"/>
          <path class="cls-2" d="m116,172.78c-.13-.35-.23-.65-.32-.94-.09-.27-.17-.53-.27-.79-.12-.32-.59-.52-.97-.68-.12-.05-.24-.1-.33-.15-.55-.27-.62-.47-.66-1.12-.04-.63.45-.87.93-1.1.17-.08.34-.16.52-.27l.09-.05q.61-.36.9-1.01l.13-.29c.28-.62.48-1.06.62-1.7.14-.65-.02-1.01-.3-1.59l-.02-.05c-.26-.56-.06-.98.14-1.38.08-.16.17-.33.22-.52.18-.59-.05-1.11-.2-1.45-.05-.12-.13-.22-.22-.32-.08-.1-.17-.21-.24-.36-.35,0-1.23-.05-1.68-.46-.2-.19-.46-.13-.85-.03-.18.04-.36.09-.55.11-.66.05-.9-.13-1.42-.52-.18-.13-.49.02-.95.28-.24.14-.5.28-.75.36-.38.12-.84.67-1.21,1.12-.2.23-.38.46-.55.6-.19.18-.37.24-.53.24-.26,0-.47-.18-.6-.3-.07-.06-.14-.12-.2-.15-.06-.03-.29.09-.49.26-.03.47-.12.95-.2,1.37l-.02.08c-.08.4-.19.67-.32.96-.1.24-.21.48-.32.85v.05c-.25.79-.31.97-.09,1.5.13.34.2.6.27.86.06.25.12.49.24.79.28.69.32,1.16.18,1.82-.02.12-.03.22-.05.32-.05.47-.13.79-.9,1.22-.95.54-1.72.8-2.66,1.05-.85.22-1.27.11-1.65.02-.08-.02-.17-.04-.26-.06-.16-.03-.31-.09-.46-.15-.37-.15-.48-.17-.63.01-.13.16-.26.36-.39.55-.17.27-.33.51-.51.65.16.34.46.94.71,1.36.06.11.12.2.18.28.3.47.46.76.5,1.81.02.55-.04,1.04-.1,1.47-.07.55-.13,1.02,0,1.42l.06.18c.04.11.07.21.1.32.13-.08.28-.16.42-.24.04-.02.08-.04.11-.06.36-.2.57-.21,1.13.11.16.09.33.19.51.28.62.33,1,.55,1.18.76.02.03.04.05.06.06.05-.1.11-.23.16-.36.14-.32.29-.69.52-.97.42-.52.99-1.11,1.47-1.56.5-.46.8-.32,1.16-.08.1.06.21.14.35.21.62.31,1.11.62,1.9,1.16.61.42.71.43,1.27.52.12.02.27.04.44.07.54.09.69,0,.95-.14.15-.09.34-.19.62-.28.7-.2,1,.04,1.31.29.08.07.17.14.28.21.45.3.56.33,1.08.25.21-.03.33-.1.47-.18.17-.1.36-.21.7-.21.09-.22.12-.92.14-1.4.02-.49.05-.99.11-1.37.05-.31.1-.55.15-.75.1-.45.15-.68.07-1.1-.13-.67-.25-1.04-.5-1.69Z"/>
          <path class="cls-2" d="m99.24,178.92c-.16-.52-.09-1.08-.02-1.66.05-.43.11-.88.09-1.38-.03-.94-.16-1.13-.41-1.52-.06-.09-.12-.18-.19-.3-.32-.53-.68-1.3-.81-1.58-.1-.04-.21-.09-.33-.15-.26-.12-.55-.26-.82-.31-.16-.03-.32-.09-.46-.15-.06-.02-.14-.05-.2-.07,0,.04,0,.11.02.2.13.96.14,1.23-.45,1.67-.45.33-.92.56-1.52.76-.42.14-.7-.12-.87-.27-.03-.03-.07-.06-.1-.08-.09.08-.21.26-.33.42-.28.4-.6.85-1.02.88-.21.02-.39-.02-.56-.06-.31-.07-.34-.06-.42.06l-.05.07c-.26.41-.32.5.02.91l.13.15c.47.54.91,1.05,1,1.91.02.18.04.36.06.54.08.67.15,1.31.11,1.96-.01.21-.03.4-.05.57-.06.48-.07.64.13.82.08.07.17.15.26.22.38.32.81.67.85,1.2.09,1.03.25,1.22.31,1.25.07.04.24.08.4.13.37.11.79.23,1.09.44.39-.31,1.03-.29,1.68-.21.52.06,1.04-.04,1.5-.14.13-.03.26-.05.37-.07.15-.02.22-.69.25-1.01.03-.26.06-.53.11-.77.06-.28.14-.53.22-.78.14-.44.28-.89.33-1.52.07-.88-.05-1.27-.27-1.96l-.06-.18Zm-2.18-.94c-.76.54-1.56,1.21-2.19,1.81-.64.6-1.27,2.35-1.69,2.16,0,0-.32-.32-.13-.83.19-.51.25-1.08.32-1.59.06-.51.25-1.11.6-1.34.35-.22,1.05-.7,1.15-.99.1-.29.16-.35-.03-.73-.19-.38-.32-.73.06-1.02.38-.29,1.59-1.11,1.65-.86.06.25.45.73.48,1.78.03,1.05.54,1.05-.22,1.59Z"/>
          <path class="cls-2" d="m94.92,191.35c-.06-.18.03-.33.09-.45.05-.1.12-.21.15-.38.1-.45-.03-.77-.21-1.23l-.07-.18c-.05-.13-.1-.26-.13-.37-.19.02-.47.06-.68.13-.36.12-.59,0-.81-.1-.1-.05-.22-.11-.38-.15-.13-.04-.17-.02-.35.2-.11.13-.23.27-.41.38-.05.03-.09.05-.12.07-.13.08-.22.12-.32.12-.07,0-.15-.02-.26-.07-.04-.02-.1-.04-.18-.08-.39-.15-.71-.2-1.12-.17-.56.04-.84-.09-1.14-.31-.07-.05-.13-.11-.18-.17-.07.1-.15.28-.25.69-.1.42-.23.69-.34.9-.15.28-.24.47-.2.91.09.92.13,1.37,0,1.88l-.02.06c-.11.39-.15.54.16,1.13.37.7.48,1.18.56,1.56l.02.08c.01.06.03.12.05.17.1.34.15.61-.15,1.27-.23.52-.53.85-.79,1.15-.14.16-.27.31-.37.46-.09.14-.18.24-.25.33q-.19.22-.02.45c.09.12.19.23.28.33.33.38.67.78.54,1.35-.03.11-.06.24-.1.37-.06.22-.18.65-.16.81.15.02.31.04.47.07.41.07.87.15,1.3.1.62-.08.94-.08,1.65.41.2-.22.6-.87.83-1.5.26-.72.75-1.08,1.17-1.4.11-.08.21-.16.31-.24.3-.25.73-.46,1.11-.65.29-.14.58-.29.71-.4.11-.09.15-.67-.09-1.63-.07-.29-.06-.73-.05-1.24.01-.47.02-1.01-.04-1.41-.1-.68.07-.91.44-1.11.08-.04.16-.09.24-.16.36-.32.69-.86.76-1.24-.05-.05-.36-.12-.54-.16-.24-.05-.5-.11-.7-.22-.17-.09-.34-.19-.39-.37Z"/>
          <path class="cls-2" d="m168.78,115.22c-.05.12-.1.27-.21.42-.13.18-.23.6-.31.97-.09.38-.17.75-.31,1-.35.65-.74.52-1.33.34l-.11-.03c-.35-.11-.37-.08-.55.12-.06.07-.14.16-.24.25-.05.04-.09.08-.13.12-.2.19-.42.39-.72.39-.13,0-.28-.04-.45-.14-.57-.34-1.28-1.52-1.41-1.75-.19-.32-.39-.36-.86-.43l-.38-.06c-.57-.09-1.43-.21-2.13-.45-.5-.17-.82-.28-.98-.34-.22.21-.49.37-.79.53-.09.05-.18.1-.27.16-.27.16-.59.34-.91.4,0,.12.01.33.12.62.12.3.16.59.21.86.04.26.08.5.18.75.24.63.19.82-.04,1.47-.07.21-.13.41-.19.6-.1.35-.2.69-.38,1.01-.03.06-.06.11-.08.15q-.14.25-.01.93c.05.24.09.42.14.58.11.42.19.7-.02,1.3-.05.14-.1.29-.16.43-.21.57-.43,1.16-.46,1.69-.05.83-.15,1.41-.32,1.83-.19.48-.4.82-.94,1.22-.17.13-.36.24-.55.34-.33.19-.65.37-.71.6-.04.17-.06.37-.08.58-.02.25-.05.5-.12.74.08,0,.17-.02.25-.08l.09-.07c.34-.27.58-.46,1.13-.41.29.03.64.22,1,.42.28.16.61.33.78.35.51.05.92.27,1.33.73.11.13.23.29.36.47.23.33.55.78.78.84.3.08.85-.06,1.4-.36.4-.22,1.42-.92,1.63-1.07,0,0,0-.01,0-.02-.17-.89-.13-1.48-.13-2.21s.34-1.23.68-2.33c.34-1.1.34-1.27.59-2.16.25-.89.85-1.31,1.4-1.82.55-.51,1.91-.3,2.21-.3s1.78,2.08,2.12,2.46c.34.38.42-.25.51-.55.08-.3.21-.81.25-2.12.04-1.31.17-2.59.17-3.18s-.55-.98-.64-1.4c-.08-.42.59-1.57.89-2.04.3-.47.38-.68.76-1.1s.51-.59.51-1.06c0-.21-.07-.33-.12-.44-.25-.01-1.27-.05-1.96-.05-.38,0-.4.06-.49.31Z"/>
          <path class="cls-2" d="m159.2,135.26c-.12,0-.24-.01-.35-.04-.42-.12-.78-.62-1.09-1.06-.12-.16-.23-.32-.32-.42-.31-.35-.59-.51-.96-.54-.29-.03-.64-.22-1-.42-.28-.16-.61-.33-.78-.35-.32-.03-.42.05-.73.29l-.09.07c-.3.23-.62.23-.87.17-.02.03-.04.06-.06.08-.15.2-.21.3-.24.69-.01.17,0,.37.02.57.04.55.1,1.18-.43,1.45-.14.07-.32.2-.51.34-.39.28-.79.57-1.15.57-.1,0-.19-.02-.28-.07-.38-.19-.94-.58-1.7-1.18-.16-.13-.33-.28-.49-.43-.37-.35-.8-.75-1.08-.67l-.14.04c-.24.07-.45.13-.67.14.04.33.06.85-.18,1.22-.18.28-.48.55-.78.82-.24.22-.49.44-.63.64-.14.19-.28.3-.39.38-.18.13-.23.17-.19.52.03.23.08.47.13.69.12.54.23,1.05-.08,1.36-.35.36-1.46.8-1.93.96-.22.07-.41.16-.59.24-.23.1-.46.2-.74.28-.08.02-.17.04-.28.07-.29.07-1.06.26-1.15.45-.06.13-.03.25.02.47.04.16.09.36.09.6,0,.51-.16.78-.33,1.09l-.08.15c-.07.13-.15.23-.22.31-.03.04-.08.09-.09.11,0,0,.01.04.07.13.09.13.22.25.35.39.27.26.57.55.67.99.09.38.08.84.08,1.24,0,.21,0,.41.01.53.03.28.04.87.04,1.2.44.19.85.35,1.11.43.16.05.79-.35,1.12-.56.25-.16.51-.33.75-.44.63-.31,1.7-.91,2.43-1.38l.09-.06c.74-.48,1.65-1.07,2.28-1.36.63-.29,1.46-.26,2.62.11.74.24,1.37.82,1.92,1.34.21.19.4.37.59.53.71.58.8.86.89,1.27l.02.08c.04.19.07.39.1.59.03.21.06.4.1.56.07.03.28.04.4.05.21,0,.4.02.54.1.2.12.86.35,1.28.19.49-.19.63-.32.95-.69.32-.36.65-.32.87-.3.09.01.18.02.25,0,.43-.11.86.2,1.29.5l.13.09c.26.18.69.19.87.17.06-.08.12-.18.2-.31.38-.59,1.61-1.19,2.04-1.61.42-.42.3-.64.25-1.1-.04-.47.21-3.14.34-5,.13-1.87.17-2.12.17-3.05s-.3-1.87-.72-3.14c-.33-.99-.61-1.79-.79-2.52-.39.27-1.14.78-1.5.98-.27.15-.9.45-1.47.45Z"/>
          <path class="cls-2" d="m124.64,171.07c-.39-.53,0-.97.23-1.24.07-.08.14-.16.18-.22.08-.12.1-.28.14-.48.04-.23.09-.51.23-.84.26-.62.8-.39,1.03-.29.12.05.26.11.33.09.1-.03.23-.24.33-.41.18-.3.39-.63.76-.7.43-.08.73.23,1,.51.14.14.28.29.42.37.13.07.22.04.51-.13.19-.11.42-.24.73-.32.55-.14.88.07,1.15.23.13.08.25.15.39.19.15.04.26.03.35.01-.03-.05-.06-.11-.09-.17l-.08-.16c-.24-.48-.66-1.28-1.05-1.98-.11-.2-.23-.41-.35-.62-.29-.52-.6-1.05-.84-1.5-.33-.62-.27-.95-.17-1.57.02-.11.04-.24.06-.38.05-.37.13-.68.21-.95.1-.37.18-.66.13-.96-.03-.22-.16-.27-.71-.29-.09,0-.18,0-.26-.01-.43-.04-1-.22-1.47-.37-.12-.04-.24-.08-.33-.1-.15-.05-.27-.15-.33-.29-.14-.34.07-.81.34-1.34l.07-.13c.13-.27.29-.7.44-1.13.08-.22.16-.44.23-.63.26-.67.61-.96,1.72-1.43.36-.15.61-.27.81-.38.02-.26.08-.97.12-1.34.04-.38.02-.42-.17-.88l-.02-.04c-.1-.23-.29-.51-.51-.82-.22-.32-.47-.67-.71-1.1-.18-.33-.26-.37-.27-.38,0,0-.01.01-.03.02-.09.03-.23.07-.41.03-.16-.04-.45.1-.77.37-.03.03-.06.06-.09.08-.22.2-.39.32-.98.32-.21,0-.32.21-.5.73-.05.15-.11.32-.18.46-.29.62-.77.51-1.24.39-.15-.04-.32-.08-.51-.11-.39-.06-.41-.04-.55.14-.08.1-.19.24-.37.39l-.07.05c-.34.28-.39.33-.65.36-.05,0-.12.01-.22.03-.47.08-.71-.37-.89-.73-.1-.2-.21-.42-.34-.5-.14-.1-.28-.05-.59.09-.15.07-.3.14-.47.17-.17.03-.27.14-.46.37-.11.14-.24.29-.42.45-.29.26-.47.45-.57.56,0,.08.01.16.02.25.03.39.06.78,0,1.47-.09,1.11-.19,1.28-.65,1.92-.21.29-.32.47-.43.66-.12.19-.24.39-.46.7-.2.28-.46.46-.66.61-.3.21-.33.26-.31.35.06.24.17.37.29.52.1.12.21.26.29.45.16.37.47,1.06.22,1.85-.07.23-.17.43-.26.61-.19.39-.28.59-.14.89l.02.05c.29.63.52,1.12.34,1.96-.15.69-.37,1.18-.65,1.81l-.13.28c-.35.79-.44.86-1.13,1.27l-.09.05c-.2.12-.39.21-.56.29-.5.24-.63.33-.61.55q.04.5.35.66c.09.04.19.09.3.13.45.19,1.07.45,1.28,1,.11.28.19.54.28.82.09.28.19.58.31.92.25.68.39,1.08.52,1.79.1.53.03.85-.07,1.33-.04.2-.09.43-.14.72-.06.35-.08.84-.1,1.31-.03.65-.06,1.15-.15,1.48.12.06.2.14.27.22.08.08.11.12.26.14.16.03.24-.02.41-.12.17-.1.39-.23.73-.23.44,0,.8.28,1.01.49.01-.01.03-.02.04-.03.1-.07.21-.16.34-.27.35-.3.7-.46,1.08-.64.25-.12.51-.24.78-.41.13-.08.26-.16.4-.24.55-.33,1.18-.71,1.42-1.07.16-.23.18-.37.2-.54.02-.15.05-.32.17-.52.15-.24.17-.39.22-.79l.03-.24c.09-.65.2-1.14.74-1.58.33-.27.49-.55.45-.8-.05-.36-.22-1.15-.5-1.53Z"/>
          <path class="cls-2" d="m138.44,149.2c-.37-.18-.71-.35-.91-.42-.08-.03-.15-.07-.23-.1-.06-.03-.16-.09-.2-.08,0,0-.04.02-.12.15-.32.55-.58.78-1.12.97-.14.05-.27.08-.4.11-.37.08-.55.13-.65.44-.06.18-.07.36-.08.55-.03.43-.06.92-.66,1.33-.74.52-1.39.87-2.02,1.21-.2.11-.35.2-.49.28-.32.2-.63.38-1.4.7-1.08.46-1.24.67-1.42,1.11-.07.18-.15.4-.22.61-.16.44-.32.9-.47,1.19l-.07.14c-.09.18-.34.66-.33.83.09.03.2.06.31.1.41.13.98.32,1.34.35.08,0,.16,0,.24.01.46.02,1.14.05,1.25.78.06.41-.04.77-.15,1.19-.07.25-.14.54-.19.88-.02.15-.04.28-.06.39-.09.57-.12.77.12,1.21.24.45.54.98.83,1.49.12.21.24.42.35.62.16.29.33.6.49.9.56-.6,1.72-1.34,1.78-1.38.4-.26.73-.39,1.06-.52.34-.14.66-.27,1.06-.54.6-.41.62-.49.74-1.03.02-.1.05-.21.08-.33.22-.89.91-.95,1.37-.99.09,0,.18-.02.26-.03.34-.06.81-.04,1.26-.02.21,0,.42.02.62.02.52,0,.91.34,1.26.64.15.13.28.24.42.34.34.23.61.22,1.09.21.32,0,.72,0,1.1,0,.47,0,.92.02,1.33,0,.17-.01.23-.09.34-.31.02-.05.05-.1.09-.15-.09-.15-.19-.37-.22-.63-.02-.22-.2-.34-.7-.64l-.06-.04c-.39-.24-1.12-.69-1.48-.77-.24-.05-.52-.23-.81-.41-.26-.16-.52-.33-.74-.4-.36-.12-.46-.36-.48-.5-.07-.36.17-.73.43-.96.1-.09.24-.44.35-1.67,0-.08.01-.14.02-.19-.04-.07-.36-.16-.5-.2-.11-.03-.22-.06-.31-.1-.61-.26-.55-.88-.42-1.39.08-.31.02-.7-.05-1.11-.06-.4-.13-.81-.08-1.23.06-.57-.04-1.27-.09-1.58-.42-.14-1.04-.4-1.65-.68-.25-.12-.52-.25-.77-.37Z"/>
          <path class="cls-2" d="m141.52,151.89c-.04.34.02.72.08,1.08.07.45.14.92.04,1.33-.16.63,0,.69.09.73.06.03.15.05.24.08.36.11.96.28.9.81,0,.05-.01.11-.02.18-.1,1.05-.23,1.76-.54,2.04-.18.16-.26.35-.25.42,0,.04.07.06.11.07.28.09.58.28.87.46.24.15.49.31.63.34.42.09,1.05.47,1.66.84l.06.04c.55.34.91.56.97,1.06.02.15.08.29.14.39.03,0,.05,0,.08,0,.29.03.97-.35,1.35-.69.36-.32.73-.91,1.09-1.5.41-.68.96-.86,1.54-1.05l.14-.04c.65-.22,1.46-.62,1.73-.97.18-.22.28-1,.35-1.62.04-.35.09-.69.14-.97.16-.79.32-2.41.41-3.27v-.14c.06-.46.13-.79.21-.99-.04-.17-.07-.35-.09-.53-.03-.19-.06-.38-.1-.55l-.02-.08c-.06-.3-.1-.46-.69-.95-.2-.17-.4-.36-.62-.55-.54-.5-1.09-1.02-1.71-1.22-1.02-.32-1.72-.37-2.21-.14-.59.28-1.53.88-2.21,1.32l-.09.06c-.75.49-1.84,1.09-2.49,1.42-.21.1-.44.25-.7.41-.44.28-.84.53-1.17.61.06.38.14,1.03.08,1.59Z"/>
          <path class="cls-2" d="m145.63,163.09c-.43.03-.89.02-1.37.01-.36,0-.76-.01-1.07,0-.52.01-.93.02-1.42-.31-.17-.11-.33-.25-.48-.38-.3-.26-.58-.5-.89-.5-.2,0-.42,0-.64-.02-.42-.02-.85-.04-1.13.01-.1.02-.2.03-.31.04-.47.04-.75.09-.87.56-.03.12-.05.22-.08.32-.14.64-.23.86-.97,1.37-.45.31-.81.45-1.16.6-.31.12-.6.24-.96.47-.82.52-1.64,1.19-1.81,1.43.11.22.21.42.3.58l.08.16q.15.31.5.53c.18.11.38.14.59.17.25.03.54.07.79.27.06.04.11.08.16.12.04.03.08.06.12.09.23-.12.63-.32,1-.5.4-.18.78-.01,1.12.14.28.12.56.25.88.22.73-.08,1.48.3,2.02.58.12.06.23.12.34.17.14.07.26.14.36.2.3.18.52.32,1.3.2.79-.12.89-.13,1.15,0,.07.03.15.08.33.13l.14.04c.52.17.55.18,1.15-.22.48-.32.6-.36.91-.4.15-.02.36-.04.78-.15.49-.13.85-.13,1.12-.07-.04-.29,0-.58.04-.89.03-.25.07-.51.07-.8,0-.54-.09-.68-.28-.95-.06-.09-.12-.19-.19-.31-.28-.48-.27-1.02-.25-1.21-.13-.12-.24-.26-.34-.41-.1-.13-.2-.27-.33-.41-.32-.32-.54-.69-.65-.9,0,0-.01,0-.02,0Z"/>
          <path class="cls-2" d="m134.53,168.96c-.05-.04-.11-.08-.17-.13-.13-.1-.3-.13-.52-.16-.25-.03-.53-.07-.82-.25-.08-.05-.14-.09-.2-.13-.2.1-.52.18-.9.08-.23-.06-.4-.16-.55-.26-.24-.15-.39-.24-.71-.16-.23.06-.41.16-.59.26-.3.17-.64.37-1.06.14-.22-.12-.4-.31-.56-.47-.21-.22-.36-.36-.49-.34-.12.02-.26.25-.38.44-.17.28-.35.56-.65.66-.27.08-.52-.03-.72-.11-.08-.03-.21-.09-.25-.08,0,0-.02.02-.04.08-.11.27-.15.49-.19.71-.04.24-.08.47-.21.69-.07.11-.15.2-.23.3-.28.32-.3.4-.2.53.42.58.58,1.66.6,1.78.03.18.01.47-.2.81.07.17.24.59.4,1.19.15.54.13,1.35.1,2.06-.01.34-.02.66,0,.88.02.38.26.53.78.84.13.08.26.16.41.25.45.29.64.57.82.85.13.19.25.38.48.58.18.16.25.15.25.15.06,0,.19-.19.29-.32.07-.09.15-.2.24-.31.33-.39.36-.93.38-1.33,0-.09.01-.18.02-.25.05-.51.14-.86.85-1.16.46-.2.87-.02,1.28.15.26.11.52.22.81.25.53.05.85.02,1.23-.03.17-.02.35-.04.55-.06.27-.02.34-.13.51-.44.08-.15.17-.31.31-.48.25-.3.55-.44.91-.59.28-.12.6-.26.97-.52.61-.43.58-.68.5-1.27-.01-.08-.02-.16-.03-.25-.06-.51-.26-.74-.48-.99-.07-.08-.13-.15-.19-.23-.26-.34-.52-.69-.82-1.22-.11-.19-.23-.32-.35-.46-.19-.21-.4-.45-.59-.89-.22-.51-.34-.59-.6-.78Z"/>
          <path class="cls-2" d="m175.85,103.96c-.04-.51-.17-1.15-.51-2.12-.34-.98-.81-3.01-.93-3.77-.13-.76-.17-.59-.59-1.4-.42-.81-.68-1.1-.81-1.53-.13-.42-.13-1.57-.13-2.25s-.38-1.23-.76-1.74c-.38-.51-1.21-1.97-1.34-2.29-.04-.09-.08-.21-.13-.32-.46.44-1.6,1.49-2.12,1.72-.7.3-1.45.45-2.59.53-1.18.08-1.42.28-2.01.74-.55.44-1.78,1.33-2.5,1.57-.39.13-.79.16-1.07.16-.04,0-.08,0-.12,0-.02.22-.04.54-.03,1.11,0,.2,0,.4.01.59.03,1.02.05,1.91-.1,2.72-.16.89-.37,1.68-.61,2.3-.15.4-.09.7,0,1.18l.05.23c.14.7-.04,1.81-.44,2.75l-.04.1c-.36.83-.67,1.55-.78,2.45-.12.91-.04,1.68.24,2.5.17.48.15.86.14,1.16-.01.27-.01.42.08.55.06.09.14.18.22.28.34.42.76.95.63,1.51-.04.17-.08.39-.13.63-.12.58-.26,1.24-.38,1.61-.03.08-.06.15-.09.22.18.06.44.15.8.27.65.22,1.48.34,2.04.42l.37.06c.48.07.93.13,1.27.71.36.61.89,1.36,1.22,1.55.17.1.19.11.5-.18.04-.04.09-.09.14-.13.08-.07.14-.14.19-.2.26-.29.49-.48,1.14-.28l.11.03q.54.17.66-.07c.1-.18.18-.52.25-.85.11-.46.21-.89.4-1.17.07-.09.1-.19.14-.3.14-.37.31-.67,1.02-.67.8,0,2.02.06,2.04.06.26-.28.81-.38,1.53-.9.81-.59,1.02-1.1,1.31-2.16.3-1.06.76-3.01,1.19-4.45.42-1.44.55-2.42.51-2.93Z"/>
          <path class="cls-2" d="m147.9,170.31c-.03-.23-.06-.46-.12-.7h-.02s-.25-.28-1.14-.05c-.46.12-.7.15-.86.17-.21.02-.25.03-.66.3-.47.31-.73.43-1,.43-.19,0-.37-.05-.63-.14l-.14-.04c-.23-.07-.34-.13-.42-.17-.09-.05-.1-.05-.81.05-.98.15-1.32-.06-1.68-.28-.1-.06-.19-.12-.31-.17-.11-.05-.23-.11-.36-.18-.5-.26-1.13-.58-1.7-.52-.46.05-.86-.13-1.17-.27-.31-.14-.49-.21-.65-.14-.29.13-.61.29-.84.41.08.13.17.28.26.49.15.35.32.54.5.73.14.15.28.31.42.55.29.49.53.82.79,1.16.05.07.11.13.17.2.14.16.29.34.41.59.18-.04.42-.04.71,0,.73.09,1.48.17,2.03.4.16.07.29.1.39.12.22.05.43.1.63.41.03.05.06.1.1.16.09.15.29.48.41.57.15-.1.25-.28.18-.48-.02-.05-.04-.1-.07-.16-.1-.23-.23-.52-.08-.77.09-.16.27-.24.51-.26.14-.01.29-.04.45-.08.42-.09.89-.19,1.43.06.1.05.22.1.36.16.92.42,1.54.72,1.91.97.05-.36.04-.77.04-1.2,0-.59.59-.59,1.1-.68.01,0,.03,0,.05,0,0-.18-.05-.85-.12-1.23-.03-.14-.04-.29-.06-.43Z"/>
          <path class="cls-2" d="m159.35,150.77c-.29-.2-.65-.45-.82-.41-.17.04-.32.03-.44.01-.19-.02-.27-.03-.39.11-.34.39-.55.6-1.17.84-.7.27-1.58-.12-1.77-.23-.03-.01-.17-.02-.27-.02-.15,0-.33-.02-.5-.06-.03.13-.05.3-.08.55v.14c-.1.88-.26,2.51-.43,3.33-.05.26-.09.59-.14.93-.1.8-.19,1.55-.47,1.9-.42.52-1.45.97-2,1.15l-.14.05c-.56.19-.94.31-1.24.81-.44.73-.81,1.29-1.2,1.63-.4.35-1.24.89-1.79.83,0,.01-.05.1-.08.15-.06.11-.13.26-.26.38.1.18.29.48.53.72.16.16.28.33.39.47.19.26.29.39.48.43.12.02.22.02.33.02.28,0,.6,0,.98.41.15.17.28.35.4.53.23.34.44.65.83.85.22.11.45.2.68.29.47.19.96.38,1.33.73.21.19.3.38.37.51.08.16.1.2.55.14.48-.06.88-.17,1.26-.27.37-.1.73-.19,1.12-.24.3-.03.63-.15.95-.26.5-.17.93-.32,1.27-.19.26.1.5.25.78.42.22.13.46.28.77.44.27.14.55.33.82.52.41.28.88.6,1.12.6.31,0,.7.04.98.07-.04-.08-.08-.16-.12-.24-.21-.42-.68-.85-1.48-2.12-.81-1.27-1.87-3.35-2.12-3.99-.25-.64-.42-1.14-.42-1.74s.55-2.12,1.02-3.94c.47-1.82,1.06-4.62,1.27-5.43.05-.19.09-.33.13-.44-.27-.02-.61-.08-.89-.27l-.13-.09Z"/>
          <path class="cls-2" d="m159.69,168.84c-.26-.18-.53-.36-.77-.49-.32-.17-.58-.32-.8-.46-.27-.16-.48-.29-.7-.38-.14-.06-.55.08-.87.2-.33.12-.71.25-1.07.29-.35.04-.68.13-1.03.22-.38.1-.82.22-1.34.29-.72.09-.93-.06-1.12-.45-.06-.11-.11-.22-.25-.35-.3-.27-.72-.44-1.16-.62-.24-.1-.49-.19-.73-.31-.52-.26-.8-.67-1.05-1.04-.11-.17-.22-.33-.35-.47-.21-.23-.32-.23-.55-.22-.1,0-.22,0-.36-.02,0,.18.05.44.18.67.06.11.12.2.18.28.23.34.37.59.37,1.27,0,.33-.04.62-.07.87-.05.39-.09.7.01.98.16.42.21.8.25,1.13.02.14.03.27.06.4.08.43.12,1.15.13,1.32.32.02.64.06,1,.06.59,0,.72.76.97,1.1.25.34.21.55-.08.64-.3.08-.59,1.19-.81,1.4-.21.21-.81.25-1.23.47-.42.21-.47,1.02-.98,1.65-.51.64-.51,1.1-.21,1.36.3.25.34.59.25.93-.08.34-.08,2.71-.08,3.01s-.42.64-.89,1.1c-.47.47-.09.68.25.81.34.13.89.51,1.36.68.47.17.93-.08,1.48-.51.55-.42.47-1.23.59-1.48.13-.25.55-.42,1.19-.81.64-.38,3.39-1.87,3.77-2.16.38-.3.72-.47.72-.98s.38-3.73.38-4.45.13-.47.47-.98c.34-.51.98-1.27,1.48-1.82.51-.55,1.1-.38,1.44-.42.34-.04.5-.53,1.35-.7.85-.17,1.24-.23,1.28-.74.01-.17,0-.33-.04-.48-.16-.02-.78-.1-1.2-.1s-.91-.34-1.44-.69Z"/>
          <path class="cls-2" d="m144.75,173.4c-.14-.06-.27-.12-.37-.17-.36-.17-.69-.1-1.07-.02-.17.04-.34.07-.53.09-.02,0-.04,0-.05,0,.02.07.06.17.09.23.03.06.05.13.08.19.17.45-.02.94-.46,1.19-.08.05-.17.07-.24.07-.38,0-.68-.51-.89-.86-.03-.06-.06-.11-.09-.15-.07-.12-.1-.12-.28-.16-.12-.03-.28-.06-.48-.15-.47-.2-1.19-.28-1.88-.36-.24-.03-.39-.02-.48-.01,0,.05.02.11.03.17,0,.08.02.16.03.24.08.63.15,1.18-.74,1.81-.42.29-.78.45-1.07.58-.31.14-.54.23-.7.43-.1.13-.18.26-.25.39-.03.05-.06.11-.09.16.09.04.2.07.32.09.07,0,.16-.04.25-.08.13-.07.32-.16.51-.06.18.09.23.28.25.42.03.16.1.3.17.46.14.28.3.6.15,1-.13.36-.09,1.77.9,2.39.08-.02.15-.04.22-.06.34-.06.47-.17.55-.42.08-.25.3-.45.38-.78.08-.34.13-.45.23-.87.11-.42.66-.4.98-.51.32-.11.44-.15.85-.19.4-.04.49-.15.87-.28.38-.13.45.04.59.13.15.08.57.25.87.45.3.19.34.21.61.68.28.47.28,1.06.34,1.36.06.3,1.04.21,1.34.17.3-.04.3-.64.49-1.06.19-.42.34-.61.17-.87-.17-.25-.32-.49-.57-.7-.25-.21-.21-.64-.25-.87-.04-.23-.04-.25-.21-.59-.17-.34-.06-.45.07-.69.13-.25.38-.47.8-.94.34-.38.45-.5.55-.76-.19-.24-1.49-.83-1.99-1.05Z"/>
          <path class="cls-2" d="m72.89,199.97c-.47-.25.04-.97.34-1.44.3-.47.3-.51.08-.98-.21-.47-.55-.72-.85-1.31-.28-.56-.93-.52-1.39-.58-.08.22-.2.59-.26.79-.13.47-.91.79-1.37.67-.13-.03-.41.03-.69.08-.27.06-.58.12-.9.14-.68.04-1.09.13-1.54.25-.15.04-.28.1-.42.16-.28.12-.57.24-.99.24-.24,0-.39.09-.62.23-.19.11-.43.26-.76.36-.55.17-.8.05-1.08-.08-.14-.07-.3-.15-.55-.21q-.43-.12-.57-.03c-.1.06-.23.14-.45.23-.51.22-.79.37-1.1.52-.1.05-.2.1-.31.16-.12.06-.13.26-.14.59,0,.2,0,.41-.06.61-.02.09-.04.17-.06.24-.03.11-.05.22-.09.33.27.25.74.66,1.06.81.14.07.27.13.38.18.31.14.53.25.7.43l.07.08c.13.16.31.37.49.37.07,0,.26-.12.37-.19.29-.18.72-.45,1.01-.1.06.07.14.15.23.24.26.26.56.55.62.9.01.06.03.13.04.21.03.19.13.78.26.85l.09.03c.36.13.9.34,1.13.8.13.26.15.48.16.68.01.16.03.3.09.45.14.31.58.7.87.76.27.05.5.21.69.33.07.05.16.11.2.12.14.02.41.18.79.48.18-.34.36-.64.52-.85.42-.55,1.19-1.44,1.82-1.99s2.8-1.99,3.35-2.42c.55-.42.72-.57.53-1.21-.12-.4-1.25-1.68-1.72-1.93Z"/>
          <path class="cls-2" d="m59.53,198.5c.3-.15.61-.31,1.13-.54.19-.08.29-.15.38-.2.31-.19.43-.19,1.02-.03.3.08.49.18.64.25.24.12.32.16.66.05.27-.08.45-.2.64-.3.25-.15.52-.31.91-.31.3,0,.52-.09.77-.2.15-.06.31-.13.49-.18.48-.13.93-.22,1.65-.27.28-.02.57-.08.83-.13.37-.08.68-.14.94-.08.22.05.66-.16.69-.28.07-.25.24-.75.31-.93-.09-.14-.21-.32-.53-.53-.64-.42-1.65-.85-2.25-1.48s-.55-.3-1.23-.55c-.68-.25-1.91.17-2.67.34-.76.17-1.31.13-1.95.25-.64.13-1.57.89-2.21,1.06-.64.17-.85.13-1.27.17-.42.04-.09.72-.09.72,0,.25.42,1.4.55,1.65.12.23-.12.67-.22.84.29.36.47.61.58.78.08-.04.16-.08.24-.12Z"/>
          <path class="cls-2" d="m42.62,214.91c-.06-.52-.19-1.6.59-1.81.08-.02.16-.04.23-.06.32-.08.51-.13,1.05-.43.72-.4,1.62-1.06,1.83-1.41.24-.4.25-.67.18-.96-.02-.09-.09-.27-.16-.47-.31-.84-.6-1.63-.12-1.87.04-.02.08-.04.12-.06.31-.16.66-.35,1.52-.31.87.04,1.06,0,1.32-.2.27-.2,1.08-1.53,1.55-2.48.11-.22.19-.43.27-.64.22-.58.43-1.13,1.18-1.4.29-.1.46-.18.62-.25.31-.14.54-.25,1.28-.36,1.07-.17,1.48-.34,2.18-.63.37-.15.79-.22,1.16-.28.37-.06.72-.12.9-.24.25-.18.28-.28.34-.56.02-.08.04-.17.06-.27.04-.13.04-.3.04-.47,0-.23.01-.48.1-.7-.06-.13-.33-.5-.6-.83-.08.02-.17.04-.27.02-.38-.04-.42.17-.93.47-.51.3-.47.13-1.19,0-.72-.13-1.1.09-1.61.09s-.93.42-1.23.59c-.3.17-.47.34-.85.21-.38-.13-.76-.51-1.19-.98-.42-.47-.68-.64-.85-.76-.17-.13-.81-1.59-1.19-2.06-.38-.47-1.25,1.1-1.59,1.4-.34.3-1.04,1.59-1.51,2.06-.47.47-.72.3-.93,1.4-.21,1.1-.89,2.59-1.23,2.93-.34.34-1.82,1.15-2.71,1.57-.89.42-3.39,2.16-3.9,2.42-.51.25-.85.3-1.02.68-.17.38.66.36,1.25.4.59.04,1.46-.23,2.4-.32.93-.09.42.76.38,1.1-.04.34.25.55.76.89.51.34.81.81.93,1.1.13.3-.3.55-.59.59-.3.04-.61,1.02-.83,1.27-.21.25-.61.66-.45,1.08.17.42.45,2.1,1.27,2.35.39.12-.02.11,1.08-.06.1-.02.2-.01.29,0,.04-.44.1-1.25.05-1.74Z"/>
          <path class="cls-2" d="m67.08,208.24c-.15-.1-.33-.22-.5-.25-.47-.09-1.06-.6-1.27-1.08-.1-.23-.12-.44-.14-.63-.01-.17-.03-.32-.11-.48-.13-.26-.55-.42-.82-.52l-.09-.03c-.42-.16-.53-.78-.61-1.28-.01-.07-.02-.14-.03-.2-.04-.18-.28-.42-.47-.61-.08-.08-.16-.16-.23-.24-.08.03-.22.12-.32.18-.22.14-.45.28-.67.28-.44,0-.73-.34-.92-.57l-.06-.07c-.08-.1-.26-.18-.51-.29-.12-.05-.25-.12-.4-.19-.37-.19-.86-.61-1.14-.86-.04.04-.09.08-.15.11-.28.2-.69.27-1.13.34-.35.06-.72.12-1.03.25-.77.32-1.22.49-2.3.66-.67.11-.85.19-1.14.32-.16.07-.35.16-.67.27-.5.18-.64.53-.84,1.06-.08.21-.17.45-.29.69-.3.59-1.26,2.34-1.72,2.68-.43.32-.78.36-1.69.31-.71-.03-.96.1-1.23.24-.03.01-.05.03-.08.04-.02.23.23.9.34,1.2.09.23.15.42.18.54.11.48.03.9-.25,1.37-.31.51-1.39,1.24-2.04,1.61-.6.34-.85.4-1.18.49-.07.02-.14.03-.22.06-.22.06-.27.43-.18,1.2.07.63-.02,1.68-.06,2.05.55.42.82,1.23.82,1.23.34.21-.32.68-.53,1.06-.21.38-.04.59.47.72.51.13.72.47,1.57.47s1.14-.38,1.65-.47c.51-.08,1.14.55,1.44.72.3.17.55.42.93.25.38-.17-.13-.76-.3-1.36-.17-.59-.25-.98-.04-1.53.21-.55.21-1.27.64-1.95.42-.68,1.36-1.31,2.21-2.04.85-.72,1.27-1.91,1.44-2.71.17-.81.81-.85,1.7-1.61.89-.76,2.25-1.23,3.18-1.53.93-.3,1.14,0,1.82.08.68.09,1.65.17,2.29.81.64.64,2.21,1.99,2.59,2.63.38.64.81,1.31,1.48,1.27.68-.04.85-1.65,1.14-2.71.13-.46.3-.92.5-1.34-.25-.2-.56-.42-.65-.45-.12-.02-.24-.1-.4-.2Z"/>
          <path class="cls-2" d="m31.92,218.2l-.15.02c-.12.01-.23.05-.36.09-.25.07-.53.16-.93.13-.16-.01-.27,0-.39,0-.26.02-.51.03-1.06-.19-.74-.3-1.39-.65-2.4-1.2l-.3-.16c-.3-.16-.48-.26-.61-.34-.09.05-.3.2-.66.61-.23.26-.42.42-.58.55-.28.23-.45.36-.64.89-.18.51-.43.91-.65,1.26-.19.3-.35.56-.4.78l-.03.13c-.11.48-.23,1.02-.88,1.02-.16,0-.31-.03-.44-.06-.34-.07-.34-.06-.39.11-.2.69-.2,1.2-.12,1.3.02.01.06.03.09.05.27.15.61.33.75.98.09.41-.05.73-.18,1.01-.09.2-.17.37-.15.56.02.22,0,.34,0,.42,0,.08,0,.09.14.34.05.08.1.16.16.25.21.32.43.65.34,1.01-.05.2-.2.37-.43.5-.63.34-1.07.47-1.8.71l-.11.04c-.59.19-1.12.34-1.61.34-.2,0-.39-.02-.59-.08-.21-.06-.44-.02-.68.02-.13.02-.27.05-.4.05.04.16.06.36.05.6-.01.2-.04.38-.06.54-.07.48-.08.64.12.78.14.1.29.21.45.34.39.3.83.63,1.18.83.13.07.28.12.42.17.38.12.9.3.9,1.01,0,.24-.04.49-.08.73-.08.52-.16,1.01.13,1.32.28.31.43.4.6.51.15.1.31.21.57.45.2.18.44.28.67.37.35.14.75.3.82.77.07.46-.08.78-.21,1.06-.05.11-.1.22-.14.33-.03.1-.06.28-.1.48-.09.53-.19,1.07-.42,1.34.04.07.1.13.17.19.38.3.55.21.76.51.21.3.51.55.85.68.34.13,1.27-1.99,1.87-3.18.59-1.19.98-2.76,1.19-4.2.21-1.44.34-2.71.47-3.73.13-1.02.98-2.76,1.48-3.56.51-.81,1.27-2.16,1.65-2.76.38-.59.55-1.19.59-1.78.04-.59.81-1.36,1.36-2.12.45-.62.93-1.36,1.41-2-.17-.18-.54-.56-.7-.76-.08-.09-.22-.09-.54-.04Z"/>
          <path class="cls-2" d="m12.2,228.42c.27-.03.37-.15.53-.33.14-.17.33-.38.66-.53.55-.25.85,0,1.08.2.13.11.25.21.41.25.47.1.68.26.91.44.09.07.19.15.32.23.15.1.35.07.65.02.28-.05.6-.1.93,0,.52.15,1.13-.02,1.87-.25l.11-.04c.72-.23,1.12-.35,1.71-.67.09-.05.14-.09.15-.14.03-.11-.13-.36-.26-.56-.06-.09-.12-.18-.17-.27-.2-.35-.24-.46-.21-.69,0-.07.02-.16,0-.32-.03-.33.09-.59.2-.83.11-.24.19-.43.14-.66-.08-.39-.23-.47-.47-.6-.04-.02-.08-.04-.12-.06-.51-.29-.3-1.34-.13-1.93.19-.68.75-.57,1.05-.51.11.02.23.05.33.05.16,0,.21-.02.33-.58l.03-.14c.07-.31.26-.61.47-.95.2-.33.44-.71.6-1.16.25-.68.51-.89.81-1.14.16-.13.32-.26.51-.48.26-.3.47-.49.63-.61,0,0-.01-.01-.02-.02-.44-.44-.96-1.44-1.33-2.2-.27-.57-.64-.97-1.03-1.4-.23-.25-.47-.51-.68-.81-.05-.07-.09-.12-.12-.16-.05.09-.13.18-.24.24-.01.03-.05.19-.07.3-.05.23-.1.5-.26.71-.36.49-.78.45-1.21.36-.39-.08-.57-.26-.8-.48-.08-.08-.16-.16-.27-.26-.19-.17-.47-.21-.77-.25-.24-.03-.48-.07-.7-.17-.15-.07-.31-.1-.52-.13-.28-.04-.64-.09-1.12-.29-.31-.13-.33-.11-.44.05-.08.12-.2.29-.42.41-.19.11-.41.33-.64.57-.26.27-.53.55-.83.74-.42.26-.53.28-.78.3-.07,0-.16.01-.29.03-.26.04-.53.24-.68.38.22.46.48.99.69,1.48.34.81.68,1.57,1.02,2.04.34.47-.47,1.31-.89,1.65-.42.34-.72,1.1-.89,1.4-.17.3,1.36.13,1.53.21.17.08-.21,1.14-.55,1.61-.34.47-.47,1.53-.76,2.04-.3.51-.89,2.16-1.27,2.67-.13.18-.31.39-.49.59.18.11.45.27.68.43.32.21.46.29,1.08.21Z"/>
          <path class="cls-2" d="m12.07,208.2c.16-.24.32-.48.44-.68.33-.53.45-.96.39-1.33,0-.01,0-.03,0-.04-.03,0-.06.01-.09.02-.11.03-.26.06-.45.08-.35.03-.6-.02-.88-.07-.21-.04-.43-.08-.73-.1-.51-.03-.9-.19-1.27-.35-.19-.08-.38-.16-.57-.21-.6-.17-1.39-.52-1.44-.55-.29.02-.63-.07-1.01-.3-.55-.34-.85-.93-1.4-1.23-.55-.3-1.4.55-1.99.98-.59.42.81,1.27,1.23,1.48.42.21.25.85-.09,1.06-.04.03-.08.05-.11.07.17.54.47,1.47.67,1.98l.08.21c.26.67.46,1.2.97,1.57.17.13.33.23.47.33.38.26.7.48,1.06.91.31.37,1.26.92,1.76,1.19.39-.59-.19-1.42-.36-1.84-.17-.42.47-.47.76-.64.22-.13.72-.16,1.05-.13.16-.22.64-.91.81-1.24.14-.28.44-.73.72-1.17Z"/>
          <path class="cls-2" d="m21.34,238.97c.05-.15.11-.28.17-.41.12-.25.21-.44.16-.74-.02-.13-.12-.2-.47-.33-.25-.1-.57-.23-.84-.48-.23-.21-.37-.3-.5-.39-.19-.13-.37-.24-.7-.6-.48-.52-.37-1.2-.27-1.8.04-.23.07-.45.07-.64,0-.27-.1-.33-.51-.47-.17-.05-.35-.12-.53-.22-.38-.22-.83-.57-1.24-.87-.16-.12-.31-.23-.44-.33-.48-.35-.41-.84-.34-1.32.02-.16.05-.32.06-.49.03-.5-.12-.7-.16-.74-.14-.09-.24-.17-.33-.24-.21-.16-.34-.26-.69-.34-.31-.07-.5-.23-.66-.37-.2-.17-.26-.22-.47-.12-.23.11-.35.24-.47.39-.19.22-.4.46-.88.52-.73.09-1.01,0-1.46-.3-.26-.17-.58-.37-.75-.47-.19.22-.36.4-.45.5-.21.25-1.15.51-1.7.59-.55.08-.51.34-.38.81.13.47-.25,2.97-.38,3.77-.13.81,1.02,1.82,1.44,2.21s.13.59-.04.93c-.17.34-.3,2.29-.42,2.8-.13.51-1.53.38-1.99.59s.21,1.4.42,1.78c.21.38.34.85.85,1.06.51.21,1.36.04,2.08.13.72.09.81.72,1.36,1.02.55.3.89.55,1.15.47.25-.09.68-.55,1.19-1.02.51-.47.17-.64-.09-1.1-.25-.47-.68-.98-1.15-1.44s-.3-1.06.04-2.16c.34-1.1,1.06-2.29,1.53-2.93s.98-.17,1.78.17c.81.34.3,1.48.04,1.74-.25.25-.85.17-1.19-.17-.34-.34-.68.08-.85.51-.17.42.47.93.98,1.14.51.21.47.64.42,1.23-.04.59.3,2.63.25,2.88-.04.25-.3.81-.64,1.4-.34.59-.34,1.57-.64,2.08-.3.51,1.61-.25,2.42-.64.81-.38.98-.38,1.61-.89.64-.51,2.21-1.61,2.5-1.91.3-.3-.17-.72-.55-1.06-.38-.34-.51-.38-.76-.76-.25-.38.17-.64.47-.76.3-.13.76-.47,1.36-.64.11-.03.19-.04.25-.03.11-.19.2-.73.25-1,.04-.22.07-.41.11-.54Z"/>
          <path class="cls-2" d="m6.89,212.39c-.31-.37-.58-.55-.95-.8-.15-.1-.31-.21-.48-.34-.64-.47-.9-1.13-1.16-1.83l-.08-.21c-.24-.63-.62-1.82-.76-2.27-.07-.04-.15-.09-.24-.15-.51-.34-2.08-.72-2.63-.81-.55-.09-.3,1.65-.17,2.54.13.89,1.74,1.74,2.76,2.5,1.02.76,1.44,2.54,1.74,3.05.3.51,0,.85-.51.85s-1.1-.04-1.27-.38-.25-1.36-.51-1.74c-.25-.38-2.08-1.19-2.38-1.1-.3.08-.25,1.19-.21,1.74.04.55,2.63,3.01,2.84,3.48.21.47-.38,2.63-.13,2.8.25.17,1.87-1.48,2.8-2.21.93-.72,2.08-.68,2.46-.55.38.13-.13,1.82-.38,2.38-.25.55,1.14.76,1.57.76s.89-1.23,1.27-1.95c.38-.72.68-1.27.72-1.82s-.68-.85-1.1-1.1-1.15.17-1.65.09c-.51-.09-.25-.34-.13-.68.09-.25.23-.57.47-.95-.46-.25-1.48-.83-1.88-1.3Z"/>
          <path class="cls-2" d="m13,213.12c.16-.01.19-.01.53-.22.25-.15.49-.4.72-.65.26-.27.51-.53.78-.68.1-.06.16-.14.22-.23.2-.29.44-.53,1.12-.25.41.17.71.21.97.25.24.03.46.06.7.18.13.07.32.09.52.12.08.01.16.02.25.04.08-.3.23-.82.31-1.16.14-.55.23-1.27.13-1.64-.15-.53.25-1.19.86-2.19l.19-.32c.55-.92,1.19-.81,1.81-.69.25.04.51.09.8.09.95,0,.95-.26.95-.57,0-.4.18-.89.28-1.11-.3-.14-.64-.29-.92-.57-.42-.42-.76-.64-1.06-1.14-.3-.51-.34-1.91-.25-2.63.09-.72-.13-1.44-.85-1.82-.72-.38-1.82-.34-2.76-.17-.93.17-2.16.34-3.01.47-.85.13-1.44.76-2.16,1.36-.72.59-1.53,1.61-1.99,1.87-.47.25.47.89.3,1.23-.17.34-.98-.08-1.31-.38-.34-.3-.64-.08-1.15.17-.51.25-.98.76-.64,1.02.34.25.17.59-.09.68-.16.05-.17.26-.24.44.29.12.69.28,1.03.37.23.07.43.15.63.24.34.14.67.28,1.09.31.34.02.58.07.8.11.26.05.46.09.73.06.14-.01.26-.04.36-.06.18-.04.37-.09.54.03.16.11.21.29.24.44.09.51-.06,1.07-.46,1.73-.13.2-.28.45-.45.69-.27.42-.56.85-.69,1.11-.19.39-.73,1.14-.87,1.34.25.61.62,1.97.75,2.37.02.07.05.15.09.23.2-.16.5-.35.83-.4.16-.03.26-.03.35-.04Z"/>
          <path class="cls-2" d="m34.85,215.74c-.3-.13-.51-.38-.47-.72.04-.34.34-.93.51-1.4.17-.47-.25-.42-.51-.47-.25-.04-.64-.04-1.02-.17-.38-.13,0-.72.17-1.15.17-.42.13-.68.08-1.1-.04-.42-.81-.42-1.44-.42s-2.63-.34-3.05-.38c-.42-.04-.38-.59-.38-.97s.17-.42.55-.51c.38-.08,1.14-.51,1.82-.68.68-.17.47-.76.42-1.27-.04-.51.38-1.53.42-2.08.04-.55-.21-.55-.55-.81-.34-.25-1.78-.72-2.25-.89-.47-.17-.72.3-.72.3-.25.21-2.16,2.06-2.63,2.18-.44.12-.81-.54-1.17-.83-.09.22-.21.58-.21.83,0,.79-.45,1.13-1.51,1.13-.35,0-.64-.05-.9-.1-.6-.11-.88-.16-1.23.43l-.19.32c-.45.74-.88,1.45-.79,1.75.18.65-.07,1.72-.13,1.92-.09.36-.24.89-.32,1.19.1.05.19.11.28.19.12.11.21.2.29.28.2.2.28.28.51.33.4.08.5.06.65-.15.08-.11.12-.31.15-.48.06-.28.11-.57.37-.7,0,0,.03-.05.04-.09.06-.11.16-.3.38-.31.23-.01.42.17.65.49.19.27.41.51.64.76.4.43.81.88,1.12,1.53.48,1,.92,1.75,1.22,2.04q.27.27.95.64l.3.16c.99.54,1.64.88,2.35,1.17.43.18.58.17.81.15.13,0,.27-.02.47,0,.3.02.5-.04.72-.11.14-.04.29-.09.46-.11l.14-.02c.35-.05.76-.1,1.04.24.14.17.44.49.62.68.6-.71,1.55-1.46,1.93-2.09.38-.64-.3-.59-.59-.72Z"/>
        </g>
        <path class="cls-2" d="m151.64,71.22s-.34.09-.93-.25c-.59-.34-1.36-.59-1.53-1.36-.17-.76-.85-1.61-.42-2.63s1.61-2.8,1.7-3.56c.08-.76,0-1.61-.51-2.21-.51-.59-1.27-1.95-2.21-2.63-.93-.68-1.53-1.87-1.36-2.63.17-.76.68-2.63.51-3.48-.17-.85-.68-3.39-.09-3.48.59-.09,1.36.17,1.87-.25.51-.42,1.1-1.87,1.7-1.7.59.17,1.1.51,1.7.17.59-.34,2.46-2.71,2.29-3.56-.17-.85-1.61-3.97-1.61-4.75,0-.93.68-1.95,1.36-1.78.68.17,2.54,1.36,3.56,1.87,1.02.51.93.76,1.7.59.76-.17,1.1-1.1,1.78-.59.68.51,1.1,1.36,1.78,1.1.68-.25,2.63-1.02,2.38-2.8-.25-1.78-1.32-5.41-.25-7.8.68-1.53,2.55-1.74,2.88-2.71.93-2.71-.21-10.45.93-13.49.66-1.76.19-6.4-.62-7.62-.38-.57-.89-3.16-.4-3.64.39-.39.69-.53,1.28-.79.59-.25.25-1.53.93-1.19.68.34,3.39,1.53,4.24,2.29.85.76,5.6,6.53,6.62,8.23,1.02,1.7,5.68,6.11,7.13,7.12,1.44,1.02,3.23,2.14,4.24,2.48,1.02.34.91.04,1.63.96.42.54,1,1.05,1.51,1.05s.51-.58.93-.83c.42-.25,1.78-.18,2.63-.1.85.09,1.1,0,1.61.68.51.68.59,1.27,1.44,1.61.85.34,4.33,1.27,5,.93.68-.34,2.88-3.99,3.99-5.43,1.1-1.44,1.78-2.88,2.29-2.37.51.51.93,1.1.76,2.2-.17,1.1-2.04,5.26-2.21,6.45-.17,1.19.68,2.37,1.36,2.88.68.51,1.95.85,1.61,1.27-.34.42-.93,1.19-.51,2.04.42.85,1.7,2.97,2.37,3.05.68.09,1.7-1.95,2.12-1.95s1.87-.51,1.44.34-2.12,2.8-3.22,3.48c-1.1.68-2.71.93-3.22,1.61-.51.68-.76,1.1-1.44,1.53-.68.42-1.95,1.27-2.21.76-.25-.51-.42-1.19-.76-.93-.34.25-1.44,1.02-1.27,1.61.17.59-1.02.51-1.87.68-.85.17-2.21.34-2.63,0-.42-.34-1.1-.59-1.78-.34-.68.25-2.12,1.53-4.5,3.56-2.37,2.04-4.92,4.92-5.26,5.94-.34,1.02-.59,9.33-1.53,9.41-.93.08-1.95-1.7-3.9-2.63-1.95-.93-5.6-1.61-7.63-2.88-2.04-1.27-6.62-4.75-8.14-4.92-1.53-.17-2.88-.09-3.9.85-1.02.93-5,5.17-5.94,5-.93-.17-1.87-4.07-2.63-4.16-.76-.09-1.36-.76-1.95-.51-.59.25-2.71,1.61-3.22,2.54-.51.93-.42,2.97.08,3.22.51.25,2.54.76,3.39.93.85.17,1.78.25,2.38.76.59.51.93,2.21,1.78,2.46.85.25,1.44,0,2.04.42.59.42,1.7,1.1,1.53,1.87-.17.76-2.04,1.95-2.46,2.04-.42.09-1.7-.34-2.54-.51-.85-.17-1.53-.34-2.37.09-.85.42-2.04,1.44-2.04,1.95s.08,1.19-.34,1.87c-.42.68-2.38,2.37-3.05,2.54Z"/>
      </g>
    </g>
  </g>
</svg>