<?xml version="1.0" encoding="UTF-8"?>
<svg id="_レイヤー_2" data-name="レイヤー 2" xmlns="http://www.w3.org/2000/svg" viewBox="0 0 1255.74 1409.9">
  <defs>
    <style>
      .cls-1 {
        fill: none;
        stroke: #fff;
        stroke-miterlimit: 10;
        stroke-width: .85px;
      }

      .cls-2 {
        opacity: .7;
      }

      .cls-3 {
        fill: #f0e3d2;
      }

      .cls-3, .cls-4 {
        stroke-width: 0px;
      }

      .cls-4 {
        fill: #e6e6e6;
      }
    </style>
  </defs>
  <g id="pc">
    <g>
      <g class="cls-2">
        <path class="cls-3" d="m1090.43,1254c5.63,5.88,7.31-6.09,13.62-8.64,4.71-2.62,6.28-3.67,8.9-7.33,2.62-3.67,16.23-7.86,15.45-2.62-.79,5.24,2.09,9.43-2.36,13.88-4.45,4.45-18.59,12.56-19.64,15.97-1.05,3.41-5.24,5.76-9.43,5.5-6.04-.31-19.33,2.93-21.99,7.85-.68,4.14,8.79,10.53,6.02,14.92-2.88,9.93-10.62-3.95-13.87-.79-1.83,2.09-9.43,9.69-11.26,12.83-1.83,3.14,1.31,6.55,0,8.38-1.31,1.83-10.47,6.81-11.78-.26-5.46-29.03,5.11-14.37,12.31-29.32.79-5.5-3.93-8.64,2.09-11.26,6.02-2.62,16.76-5.76,18.85-7.86,2.09-2.09.78-6.02-1.83-7.07-6.21-4.41,2.62-20.74,14.92-4.19Z"/>
      </g>
      <g>
        <path class="cls-4" d="m431.36,1124.21c-1.75,2.25-6.92-3.59-8.46-3.87-2.41-1.32-5.03-6.97-5.56-9.42,0-1.21-.24-3.14,2.42-4.83,8.26-7.18,16.97-21.27,27.8-24.65,2.66,0,4.59-.97,3.63,1.21-.42,5.59-9.93,14.61-8.95,19.82,1.21,2.9,2.66,5.8,2.9,8.46-.31,5.55-8.58,12.03-13.78,13.29Z"/>
        <path class="cls-4" d="m711.97,747.53s-3.26-.36-2.9-3.26c.36-2.9-1.09-5.8,1.81-8.7,2.9-2.9,9.79-10.15,12.33-14.5,2.54-4.35,6.52-6.89,6.16-2.9-.36,3.99-1.81,9.79-3.26,12.69-1.45,2.9-2.9,7.61,1.81,7.61s7.98-1.09,7.61,1.81c-.36,2.9-2.9,8.7-5.8,11.24-2.9,2.54-17.04,13.78-19.58,11.6-3.98-3.46,10.88-13.49,7.61-17.4-1.45-1.81-3.99,2.54-5.8,1.81Z"/>
        <g>
          <path class="cls-4" d="m181.3,1072.12c-.09,1.48,1.14,2.5,1.42,4.29,2.3,2.23,6.62,3.55,5.93,7.95.03,2.82,1.02,4.49.88,7.63,0,.63.99.46,2.83.13,2.67-.59,5.1.89,7.93.01,2.34-.65,2.94-.76,3.25-2.3.85-2.76,2.6-5.5,3.66-8.33,4.44-6.52,3.64-13.37,8.5-20.41,7.88-18.45,29.53-11.46,43.55-14.85-4.17-6.27-5.38-8.74,1.71-13.25,2.85-1.95,7.9-6.3,11.27-8.97,4.51-3.43,7.54-.78,10.94.45,4.09,1.15,12.92,1.81,18.09,2.64.37-3.17-.59-9.88-.39-13.06,1.44-8.64,14.2-6.66,11.17-18.82-.48-1.92-.86-3.66-1.76-4.88-2.58-5.57,5.14-4.45,7.71-7.11,2.25-5.75,2.23-8.03-6.81-7.15-14.36,1.31-22.09,4.63-36.2,10.36-15.15,8.43-12.24,12.45-27.31,26.1-14.26,11.23-54.99,44.5-68.22,51.74,1.19,2.3,2.08,6.03,1.85,7.83Z"/>
          <path class="cls-4" d="m323.84,1080.21c-7.1-11.63-2.72-11.89-4.55-23.37-.67-2.72-2.16-4.33-3.48-6.88-1.52-2.55-1.44-6.02-2.7-8.17-1.95-2.68-.69-8.92-4.42-9.94-7.98-2.71-19.11-2.11-26.52-4.33-2.74-.93-5.48-3.22-7.91-.99-2.72,3.03-16.28,11.31-15.12,13.35,1.57,2.43,4.25,5.75,3.25,7.87-4.41,4.99-25.08,1.56-32.74,4.39-8.11,2.58-13.99,13.51-15.46,21.16-.48,4.44-2.14,5.68-3.62,8.62,1.28,3.52,6.3,8.08,4.96,12.35-1.82,4.56-.32,9.59,2.52,12.34,1.58.4,4.89,2.27,7.05,4.1,9.48-12.76,24.62-15.58,30.79,1.91.97,2.9,3.14.97,6.28-1.21,3.14-2.18,8.7-5.8,15.95-8.46,7.25-2.66,14.74-5.08,19.82-6.77,5.08-1.69,6.28,1.69,8.46,3.63,5.92,5.23,16.06-7.15,21.1-10.04-.49-1.78-2.21-7.47-3.66-9.55Z"/>
          <path class="cls-4" d="m217.26,1109.74c-5.62-2.68-6.88-11.62-4.73-16.66.34-2.08-2.92-5.21-3.61-7.49-2.52,4.04-1.78,8.71-7.44,9.56-2.04.67-4.23.54-6.14.22-3.4-.51-8.61,1.97-9.03-3.38,0-2.2-.24-3.21-.69-5.21-.54-1.86.39-3.42-.85-4.85-1.69-1.77-4.48-1.77-5.19-4.82-1.9-3.14-1.15-9-3.37-11.95-8.53-.97-16.44,12.04-24.74,16.04-22,8.49-42.47-12.42-32.63,15.95-1.58,11.79-8.82,7.34,1.21,21.27,1.45,1.93,4.59.48,10.63,1.45,6.04.97,6.04,7.98,9.67,9.43,3.63,1.45,10.63-3.38,19.33-4.11,8.7-.73,16.92,0,26.83,2.41,16.25,2.75,21.84,27.32,31.42,7.49,2.18-3.87,1.93-5.08,2.42-7.25,1.15-2.6,3.32-10.2,3.45-13.93-1.19-1.31-5.02-3.78-6.55-4.17Z"/>
          <path class="cls-4" d="m650.66,1069.57c2.34-5.98,8.27-8.96,13.15-12.95,7.01-3.67,10.08-9.46,11.26-17.28,1.5-4.18.48-9.13,2.34-12.81-3.49-4.21-6.13.64-10.48.1-1.89-.32-2.7-1.17-3.29-1.8-2.9-2.57-5.11,1.04-8.55,1.32-7.31,2.13-9.25-5.77-14.76-4.4-3.95,1.92-7.2,3.69-12.87,2.06-7.33-.87-15.06-8.57-21.32-11.28q-1.43-.96-2.64.16c-5.11,4.45-9.7,10.05-12.09,16.46,1.65,2.9,3.6,8.82,4.58,11.09,8.31-3.39,3.18,4.16.19,8.58-1.69,2.66-.49,5.32.48,7.98.97,2.66,1.21,10.63,2.42,13.05,2.24,2.99,6.98,6.5,10.39,4.59,5.57-2.75-9.23-12.61-.48-17.16,1.7,0,2.66,6.04,3.38,7.25,13.15,10.29,17.8-7.13,22.24,4.59,0,1.21-1.45,1.69-4.83,2.66-3.39.97-11.36,4.35-13.54,5.32-2.18.97-.97,4.11-.97,6.04-.75,4.82,8.19,1.43,14.5,0,7.41-2.32,12.75-2.64,18.03-3.87,1.33-2.25,2.09-6.89,2.84-9.69Z"/>
          <path class="cls-4" d="m587.59,1029.74c-2.05-2.25-6.7-4.58-10.13-6.45-3.3-2.29-4.53.53-7.06,1.53,1.52,6.54-1.15,14.86-2.89,20.86-.99,4-.19,11.87-4.69,12.6-5.11,2.21-14-.05-18.79,1.82,1.89,6.51-3.41,10.35-.27,16.56,1.75,3.66,3.11,9.15.54,12.96,2.83,1.73,9.84.94,9.2,5.79-.89,4.04-3.93,8.44-7.36,10.23-1,.53-1.21.64-.85,3.01.73,4.09-.19,11.16.45,14.84,6.05,18.96-12.42,12.82-18.42,26.57-.03.09-2.5,6.33-5.18,9.34,4.2,3.32,8.16,6.73,9.17,7.64,2.15-3.14,4.78-7.63,8.57-12.37,6.21-6.74,13.06-3.83,14.74-13.05,2.87-13.39-3.81-15.21,11.36-20.3,4.35-2.17,7.73-3.87,7.73-3.87,17.51-14.46,20.11,11.66,27.31-8.94,1.93-4.83-2.66-7.54-1.94-9.47.46-4.87-16.14-9.7-19.15-12.59-2.9-1.69-2.12-7.91-2.36-10.57-1.13-8.33-1.08-10.41,6.53-15.22,4.39-7.05-2.8-14.86,8.92-19.19-1.1-2.01-3.03-9.89-5.44-11.72Z"/>
          <path class="cls-4" d="m510.54,1158.36c-10.12-.35-16.88.99-12.16-11.63.62-4.15-9.31-9.09-3.86-13.5,8.9-10.72,11.27-12.63,4.3-26.38-2.96,1.61-8.38,2.64-10.39,2.45-4.99,1.02-10.88,5.77-16.4,4.35-5.96-.52-13.63,6.61-17.6-.46-.63,3.14,5.34,9.59,6.41,11.51,1.21,2.18-3.38,3.87-5.32,5.08-1.93,1.21,1.21,6.53,1.21,9.43s1.07,6.3.1,10.17c-.97,3.86,4.53,3.66,9.85,6.56,5.32,2.9,4.8,8.89,8.42,11.3,3.63,2.41,3.87,12.33,5.56,15.95,1.69,3.63,8.73,5.96,15.02,8.86,6.28,2.9,12.78,1.54,15.44,2.5,4.29.73,14.11-19.94,18.38-24.81-1.39-1.18-15.22-14.29-18.96-11.38Z"/>
          <path class="cls-4" d="m458.62,1113.09c2.44-.03,5.56-1.06,8.02-1.82,3.86-1.8,9.51.31,13.78-2.14,4.5-3.77,12.97-2.53,17.4-5.4-.25-1.6.11-3.03.57-4.68,1.25-2.87-1.5-13.28,1.44-16.56,1.41-2.21,2.65-9.47,4.27-10.32,1.32-2.18,3.29-4.13,3.18-6.89-1.84-5.25-5.84-10.35-9.68-14.7-.45-.45-.45-.44-1.41.14-4.3,3.07-6.38-.84-7.69-4.18-2.43-3.26-7.96-4.65-10.78-7.57-.89.4-2.45,1.03-3.8,1.27,1.64,2.72,1.19,7.63,4.5,8.28,8.48,5.56-1.31,14.63-.47,22.54.02,0,.05-.01.05-.01,1.15,5.47,4.95,8.99,1.69,14.02-2.97,9.26-15.06,19.93-22.93,25.61.65,1.33,1.47,2.39,1.85,2.42Z"/>
          <path class="cls-4" d="m390.36,1050.15c2.27-3.97,1.45-8.42,2.9-13,1.14-6.92,8.65-7.28,6.4-13.38-5.16-.71-16.24,1.85-15.83-6.81-.09-1.53-.19-2.44-1.17-3.25-3.92-2.54-10.77-9.13-14.56-6.39-5.06,3.66-9.2,9.88-16.4,6.55-2.72-1.59-4.59-2.76-7.86-3.18-2.55-.33-3.39-.94-5,1.76-2.24,3.06-3.06,6.09-7.88,6.71-2.25.54-6.32-.99-6.94,1.21-1.4,3.2-.58,6.88-4.77,8.6-1.99.79-3.41,2.78-5.38,3.72,1.13,2.26,1,5.03,1.68,7.03.99,1.16,1.35,2.77,1.72,4.46.6,4.66,3.99,7.31,5.14,11.89.77,3.09.78,9.63.27,13.19-.22,1.52.14,2.06.86,3.14,2.43,4.47,5.83,11.39,6.99,16.29,6.42,3.5,17.95-2.44,23.96-4.1,2.66-.73,3.63,1.69,5.32,3.38,11.4,2.38,26.46-13.36,34.62-20.32-3.43-7.72-8.8-9.95-4.07-17.5Z"/>
          <path class="cls-4" d="m477.65,1059.21c1.22-1.72,1.15-5.42.12-7.45-.68-.33-1.3-.51-2.21-1.01-3.24-1.82-2.78-5.28-4.15-8.2-.83-1.87-1.29-3.07-.71-4.15,1.19-1.76,3.38-1.09,5-2.06-.46-1.11-.53-2.45.41-3.94.6-.97.31-1.82-1.67-4.78-1.28-2.03-6.1-1.09-8.56-2.01-5.85-1.38-2.25-10.44-5.58-10.32-3,.62-8.96-4.42-11.49-4.11-4.37-.4-4.08-4.1-3.88-6.81.37-4.78,6.48-7.79,7.7-8.35,2.2-.84.61-1.4.14-3.49-1.14-2.61-.61-2.83-1.39-4.32-15.05,5.64-6.89-4.34-11.79-11.34-14.55-1.49-21.39-7.62-36.86,1.58,4.87,4.9,3.63,11.87,4.3,18.3.76,4.8,1.23,9.89,1.23,11.85,2.52,8.85-.83,8.14-5.56,13.78,3.2,8.26-4.31,8.51-6.35,15.68-2.7,23.33-9.31,10.08,1.17,28.55,3.71.71,24.08-1.19,26.34-.88,3.87-.24,7.73,2.42,13.29,5.8,5.56,3.38,9.05,2.28,11.47,3.98,2.42,1.69,6.35,1.14,10.94-.55,5.56-1.9,10.91-.84,15.25-2.88-.72-4.34,1.48-10.54,2.83-12.87Z"/>
          <path class="cls-4" d="m314.68,988.35c-.47.1-1.18.25-1.59.41,3.7,5.67,3.4,16.21-2.48,19.74-2.45,1.59-6.62,3.31-6.51,5.76-.13,3.02.8,10.76.37,13.13,1.38.08,5.3,1,7.28,2.57,1.94-.3,3.99-3.31,6.36-4.01,3.9-2.94.76-11.12,9.47-9.97,4.34.86,6.6-1.7,8.65-5.41,3.78-6.53,12.2-2.25,16.73.29,5.34,2.82,9.22-3.63,13.47-6.28,3.98-2.44,6.15-1.04,8.87.44,3.52,2.17,12.4,6.11,11.76,11.76-.29,6.17,9.4,2.51,12.9,3.79,3.8-5.11,7.54-3.87,5.1-11.95.17-3.13-1.79-13.22-1.57-17.85.41-4.26-1.1-8.08-3.88-11.04-11.62,7.48-48.29,7.24-58.51,3.48-9.05-2.17-13.16,11.86-22.17,3.33-1.2.78-2.76,1.59-4.24,1.84Z"/>
          <path class="cls-4" d="m822.88,700.3c6.35,1.25,4.64,7.98,7.23,11.89,1.65,1.17,6.15-.08,8.19.73,2.99.93,4.94,4.65,6.65,7.13,1.77,2.49-1.08,5.6-3.16,7.87-.99.95-1.38,1.71-1.83,3.18-1.7,8.97-11.73,1.98-11.63,10.43.08,3.07-2.65,13.01-3.14,16.68,0,.29.39,1.44,5.48,4.41,2.09,1.41,3.99.64,6.72-.16,6.33-1.27,15.78,11.85,20.98,13.16,2.04.09,6.07-3.89,8.23-4.83,1.67-.84.26-6.51.56-8.82,1.16-7.56,3.93-5.06,4.4-15.51,1.95-5.7,11.32-6.55,12.63-12.78,1.74-4.83,1.43-14.35,4.41-20,1.1-2.75,2.03-5.23.94-7.93-.99-3.31-2.28-9.27-.39-11.09,1.7-4.25,5.52-11.34,3.74-15.64-.94-4.38-2.92-10.41-3.08-14.31-8.3-8.45-25.69-18.15-38.05-21.4-3.79-.22-14-.48-17.72-.29-4.66,26.21-10.17,34.07-24.25,54.79,2.18.11,9.4,1.75,13.08,2.48Z"/>
          <path class="cls-4" d="m444.68,983.78c-1.4,7.16,6.68-1.85,9.21,2.37,7.66,17.34-1.43,8.39-5.75,18.46-.87,5.63,2.17,1.66,7.86,6,3.39,2.89,7.29-.67,8.79,4.92.51,2.12.24,6.89,2.04,6.99,3.4.91,7.87-.32,10.29,3.3,1.83,2.74,3.55,5.33,1.72,8.27-1.07,2.64,5.82,5.4,8.06,6.97,3.42,1.56,4.84,4.41,6.14,7.47,2.27-.39,3.7-3.13,6.84-.23,2.53,2.53,5.2,6.09,6.81,9.08,3.71,4.42,5.48,9.98,1.33,14.66,2.72,4.29,10.21.98,14.36,4.04,2.96-1.27,3.36-5.41,7.9-4.19,4.52,2.27,4.8,1.21,9.11.61.03-3.66,2.64-7.59,1.53-11.55-6.48-5.12-12.02-.54-12.37-13.55-.14-1.64-1.88-3.09-3.72-4.62-4.62-2.77-3.54-7.28-3.06-11.8.24-4.43-.5-9.18-.96-13.77-.27-5.2-4.82-8.14-7.22-12.29-5.14.74-8.1-1.07-12.96-1.33-2.83-.09-7.73-.66-7.67-3.69-2.32-5.06-4.15-5.98.72-10.63.37-3.22-3.68-2.73-5.13-4.96-1.93-.05-6.28,3.26-8.88,5.03-2.08,1.7-5.9-6.3-3.63-7.01-.31-6.92,7.13-11.35,3.46-13.88-2.9-2.18,1.36-4.04-3.35-5.85-10.46-1.15-23.8,10.36-33.24,13.66,1.06,1.94,2.18,4.97,1.73,7.52Z"/>
          <path class="cls-4" d="m851.96,640.1c9.69,2.55,15.8,6.02,25.41,10.87,5.82,3.64,10.95,8,13.58,10.62,1.06,1.05,2.91.08,5.62-1.51,8.72-3.18,8.13-10.75,10.03-18.5.49-2.31-2.87-5.5-4.34-7.66-2.22-3.61-.04-6.44-1.65-10.54-7.18-15.94,6.82-30.42,5.74-44.93-2.62-8.81,1.55-11.52,3.13-22.36.96-5.04.54-12.05.43-18.23.15-12.18,1.71-18.81,3.76-29.89-11.85-7.15-14.28,1.04-26.97,3.11-3.57.11-6.54-2.5-10.05-3.38-11.51-1.01-26.77,2.76-37.8,3.18,4.61,13.3,5.77,13.33,2.67,30.12-.47,7.35-12,17.13-17.2,14.7-2.9-1.69-2.9,1.45-3.38,3.62-.48,2.18,2.94,6.57,3.43,8.02,3.43,4.69,10.51-1.99,15.71-1.93,3.63-.24,5.32,7.49,7.49,12.33,2.18,4.83,2.42,6.53-.24,20.79-2.04,18.92-8.64,23.84-12.52,41.25,4.41-.13,13.49.11,17.16.32Z"/>
          <path class="cls-4" d="m858.46,505.54c14.16-1.39,14.69-3.07,28.08,2.32,11.57-2.58,16.83-10.15,27.77-3.11,3.3.69,2.68,4.36,1.87,7.22-1.13,4.8-1.95,11.53-2.44,16.3,12.31.53,17.7-14.07,31.78-14.1,12.17-.17,17.78-4.76,25.75-12.77-2.54-3.97-6.3-9.13-10.06-11.64-3.8-2.54-3.63-1.09-5.62-3.81-2-2.72-2.9-6.89-5.98-15.59-5.72-14.25-1.78-43.29-1.27-55.29.72-4.53,0-5.62-1.27-6.34-1.27-.73-11.78,3.26-13.96,2.9-2.18-.36-5.08-5.08-9.97-8.34-4.9-3.26-11.78-4.89-14.5-5.8-5.26-1.2-6.95,14.2-9.43,19.76-1.24,2.65-1.37,24.57,3.62,22.48,2.18,0,10.15-2.54,13.78-2.9,3.63-.36,7.8-7.98,9.79-10.33,2-2.36,5.26,2.36,6.16,3.44.91,1.09-2.17,21.57-2.54,26.65-.36,5.08-4.89,4.17-7.25,3.99-2.36-.18-7.25-5.8-8.88-9.79-1.63-3.99-4.53-2.72-7.25-2-4.71,1.16-2.02,15.62-7.98,15.95-2.18.55-2.72-1.45-3.26-3.81-2.6-5.27-7.17-19.58-9.06-25.56-1.76-9.09-8.93-7.73-16.68-9.25-5.33-1.72-5.15,10.32-6.89,14.69-.91,3.08,1.27,9.24,1.27,13.96s-1.81,11.78-2.72,15.41c-.91,3.63-5.98,4.17-10.33,5.08-9.26-.58-12.08,10.63-17.04,15.77-5.79,5.96,6.16,3.63,5.26,16.13,0,0-.09.15-.19.48,5.35-.27,12.98-1.71,19.42-2.1Z"/>
          <path class="cls-4" d="m777.6,1018.44c.62-1.81-1.64-4.13-1.93-6.28-1.68,1.31-5.46.41-6.83-.55-4.53,1.45-7.93,1.48-13.33,1.25-4.78-.64-12.64-6.25-13.21,1.46-.29,3.33-.09,7.18-3.03,10.79-7.48,12.28-11.24-3.14-18.35-6.13-11.2-4.73-2.66-19.83-8.02-28.41-2.65,1.96-2.99,5.07-3.42,8.47-.07,3.2-1.54,4.76-2.27,7.54-2.11,12.36-22.39,13.16-27.5,23.17-2.06,26.96-8.23,22.89-24.87,38.69-1.97,2.46-1.75,7.02-3.14,10.04,3.61-.16,11.23-3.36,14.37-.81,8.37-3.64,12.55-1.47,22.78.55,5.8.73,7.55,3.2,11.78,4.04,4.91.26,13.61,4.69,13.65-1.09,1.41-5.01,1.57-11.21,4.96-15.59,3.94-4.69,5.83-12.62,11.6-14.98,6.16-1.69,6.56-3.37,9.18-8.58,1.44-6.48,12.8-9.27,17.16-5.08,5.72,1.29,2.31,4.52-1.93,7.38-3.95,2.03-1.22,25.12-1.33,28.76.36,1.81,3.39,5.19,4.95,7.86,1.57,2.66,2.66,2.66,4.11,2.78,11.42-2.57,17.3-17.97,23.44-26.83,1.57-2.42.85-5.31.12-7.85-1.28-4.19-.86-10.33-3.33-13.69-6.4-4.73-6.68-13.95-5.61-16.91Z"/>
          <path class="cls-4" d="m493.81,994.39c.12.61.03.43.25.7.83.71,2.09,3.5,2.21,4.66h0c5.56.52,11.38,2.28,16.82,2.03,4.2-12.27,8.66-.23,13.37-9.1,1.73-3.18,4.98-5.34,7.26-2.42.95.88,1.24,1.03,1.73.87,3.11-1.04,5.51-2.23,7.78-3.88,6.09-3.85-8.11-18.1,16.13-7.1,9.32-15.81,10.03-3.29,23.33-6.45,6.05-2.11,18.5-4.13,18.17-12.31,1.65-7.62-4.72-15.55-4.75-23.05-8.39-1.39-9.98-5.21-16.4-5.21-10.14-1.19-19.85-12.44-26.72-18.81-6.19,9.34-18.85,20.77-22.78,30.81-1.69,5.8,5.32,17.16,6.28,19.82.97,2.66,2.66,5.8,1.45,7.73-1.21,1.93-4.83-3.14-6.28-4.35-2.07-1.97-7.77,13.59-9.42,15.95-2.73,3.33-8.16,3.85-12.08,6.29-3.84,1.53-10.33-.21-14.06.9-1.16,1.03-2.26,2.43-2.28,2.94Z"/>
          <path class="cls-4" d="m560.68,917.21c5.54,4.88,11.93,11.72,19.03,12.68,5.2-.52,12.46,5.03,17.01,5.29,2.4-7.99,6.66-16.09,5.33-24.39-2.76-6.67-1.36-12.96-2.83-20.46-1.74-9.03,3.99-17.05,4.99-25.94,1.16-8,10.31-10.79,15.63-12.43,2.27-12.37,4.01-11.53-8.21-8.08-2.17-.24-7.08-4.57-7.8-8.92-.72-4.35,11.39-6.32,14.77-7.52,3.38-1.21,7.81-2.92,12.41-8.48,4.59-5.56,11.6-9.91,13.05-12.57,2.79-21.91-31.84-2.52-41.33,1.69-15.4,7.5-14.25,6.68-16.2,23.93-1.16,8.49,6.09,22.92,6.05,30.69-.25,3.14-2.18,4.11-4.59,6.28-8.05,9.82-24.62,33.24-32.93,42.77.72.86,2.54,2.88,5.63,5.45Z"/>
          <path class="cls-4" d="m611.4,859.3c-5.12,2.23-4.01,9.79-6.09,14.02-1.41,5.42-4.14,11.06-2.91,16.5,1.36,7.62.37,14,2.93,21.15,2.01-1.37,4.61-.92,6.18.84,2.15,3.76,8.92-9.9,13.39-10.13,15.46-8.1,7.94-2.07,18.48-.79,9.97-3.19,8.2,1.58,16.8,2.14.22-3.74,4.39-4.27,6.18-7.03,3.6-6.56,7.76-8.4,8.16-17.08.53-9.01-.44-15.24-2.41-23.6-.09-4.62-4.07-5.47-5.67-8.53-17.12,5.72-19.82,9.4-29.66,20.26-5.69,3.64-9.15-1.9-15.42-1.71-3.93-.48-1.7-6.94-2.32-9.81-3.56,1-5.42,2.04-7.66,3.77Z"/>
          <path class="cls-4" d="m671.89,848.11c4.3,3.19,4.07,11.51,5.53,16.91,2.89-2.14,4.1-5.74,7.83-6.64,4.55-2.32,9.15-2.96,11.42,3.1.83,1.77,1.41,2.87,3.1,2.24,5.75-3.06,3.98-7.51,13.36-4.69,6.16,2.69,2.78-9.12,10.14-9.14,2.28,0,2.57-.26,3.43-1.03,2.88-2.82,5.88-3.62,8.42-3.38,4.28-1.87,6.86,7.02,9.35,9.52,4.54,5.55,5.26,10.67,4.09,17.51,4.57-2.66,8.81-4.6,13.66-8.07,4.94-4.03-.24-12.63,9.14-13.73,13.99-4.64.28-12.78,23.75-1-.36-5.11.03-9.91-.66-14.77-1.76-4.77-10.04-7.86-4.19-13.23,3.96-4.86.19-7.95,1.63-12.93.96-2.62,6.3-3.8,10.23-4.76,4.93-1.97,13.57-4.7,17.17-7.56.77-1.8-1.07-6.52-1.19-9.08-.57-4.83,1.79-4.91,3.93-7.41,3.24-4.24,10.56-7.69,8.29-13.95-7.93-4.29-9.77-5.84-7.11-14.29,2.37-6.48.36-16.55,6.66-17.85,2.9-.39,6.39-.09,7.03-3.84.47-3.13,4.51-5.62,5.36-8.27-5.54-10.45-8.09-2.85-14.59-7.47-6.43-12.87,2.17-9.76-19.27-13.37-3.36,8.52-2.74,15.9-3.88,23.27-2.23,20.37-20.09,26.57-36.98,35.28-9.67,5.32-16.68,19.82-22.72,30.21-6.04,10.39-15.23,21.03-20.79,27.31-5.56,6.28-5.56,7.01-13.78,9.67-12.72,3.7-28.03,14.07-40.73,18.86.6.78,1.44,1.77,2.35,2.57Z"/>
          <path class="cls-4" d="m661.1,984.75c-2.4-5.57-1.96-11.94-8.92-13.75-3.75-1.48-5.67-2.73-5.68-7.24-.25-5.15,5.4-5.75,8.78-8.08,3.87-1.91,4.15-3.55,5.86-7.37,2.9-6.25,5.72-12.68,1.7-19.03-2.78-9.68,8.13-10.91-1.66-22.99-9.93.34-7.11-5.21-17.54-2.19-6.18,1.2-7.11-6.21-13.49-1.38-10.19,2.45-14.11,18.08-20.75,11.53-1.35-1.42-1.94-.97-3.94.58-.27,7.11-2.52,12.38-4.95,18.86-2.82,7.53.97,11.27,2.45,18,5.86,16.82-5.42,21.38-19.46,25.12-7.74,3-14.4-3.35-17.05-1.01-1.67,1.95-3.27,5.34-5.09,6.85,2.76,7.39,7.78,9.87,7.88,19.62.32,6.92-2.42,13.23.33,19.3,3.38-1.78,5.07-3.89,9.49-1.06,3.3,1.85,8.71,4.49,9.99,6.29,1.7-5.05,12.9-22.45,18.9-16.94,5.97,2.49,13.02,9.71,20.02,10.78,2.5.56,6.56,1.04,7.94-.4,9.56-6.35,10.97,4.18,18.74,2.73,2.87-.45,3.34-2.21,6.63-2.21,1.02-3.58.67-11.76,1.43-15.8,2.15-7.4,1.36-13.3-1.61-20.2Z"/>
          <path class="cls-4" d="m565.61,1019.72c-2-7.23,3.15-20.05-1.92-26-2.03-2.97-4.8-8.73-5.7-10.67-3.23-1.71-6.96-2.62-10.35-3.83.59,5.22,1.29,8.32-2.5,10.62-3.51,2.4-10.74,7.09-14.14,2.29-2.79,3.39-5.76,9.27-10.85,7.09-2.08-.5-2-.25-2.65.75-1.49,2.32-1.84,2.87.13,5.17,7.77,6.91,7.85,19.47,7.09,29.26-.33,2.74-.38,3.66.74,4.67,8.49,5.25,5.32,11.28,8.1,15.23,2.45.93,6.32,1.64,8.5,3.23,5.15-3.14,14.27.09,20.24-2.41,1.6-1.39,1.32-7.61,2.08-10.12,2.55-7.78,4.9-17.47,1.25-25.27Zm-12.42-5.38c-4.35,3.08-8.88,6.89-12.51,10.33-3.63,3.44-7.25,13.42-9.61,12.33,0,0-1.81-1.81-.72-4.71,2.24-5.13.74-13.15,5.26-16.68,1.99-1.27,5.98-3.99,6.53-5.62,2.1-3.06-3.73-7.3.18-9.97,2.17-1.63,9.06-6.34,9.43-4.89.36,1.45,2.54,4.17,2.72,10.15.18,5.98,3.08,5.98-1.27,9.06Z"/>
          <path class="cls-4" d="m540.97,1090.59c-.32-1.02.15-1.88.53-2.57,2.53-3.84-.19-8.39-1.52-12.34-1.07.11-2.68.33-3.87.73-3.83,1.8-6.12-3.69-8.8-.29-1.71,2.15-4.58,4.34-7.33,2.44-4.5-2.05-10.88.48-13.91-3.7-.42.6-.87,1.58-1.4,3.95-.9,4.84-3.47,5.54-3.11,10.37.52,5.46.78,7.88-.14,11.07-.62,2.25-.85,3.09.93,6.46,2.78,6.38,5.48,11.78,2.71,17.6-2.3,4.9-5.42,7.13-8.09,11.03-2.94,2.85,6.56,6.83,4.56,12.12-.4,1.87-1.6,5.04-1.48,6.75,7.05,2.32,12.74-1.48,19.53,3.29,8.52-14.94,7.34-15.39,23.55-23.94,1.64-1.47-1.49-11.48-.79-16.35.85-4.63-2.53-12.45,2.29-14.39,2.8-1.43,5.17-5.4,5.71-7.97-2.5-1.29-7.99-1.02-9.36-4.24Z"/>
          <path class="cls-4" d="m961.93,656.66c-4.03,5.49-2.21,20.49-12.9,15.34-4.46-1.75-6.08,7.99-11.95,4.19-3.26-1.95-7.28-8.67-8.05-9.99-1.06-2.38-4.38-2.32-7.03-2.78-4.38-.37-13.71-2.75-17.73-4.46-3.22,2.5-7.2,5.01-11.24,6.2.42,6.9,5.61,14.18,2.66,21.08-1.23,3.45-1.81,6.91-3.73,10.02-1.31.82.09,6.44.71,8.65,1.16,2.74.49,6.55-1.03,9.89-3.05,5.91-2.46,15.22-4.44,20.07-4.26,11.15-13.41,5.42-13.6,19.88,6.2-2.91,6.21-5.38,14.08-.86,4.62,2.94,8.37,1.52,12.04,6.14,1.79,1.96,4.35,6.77,6.47,7.49,4.49,1.35,13.91-5.85,17.29-8.16-1.71-10.91-1.13-14.95,3.12-25.98,3.53-14.62,7.22-27.08,23.93-24.41,1.69,0,10.15,11.84,12.08,14.02,1.93,2.18,2.42-1.45,2.9-3.14,1.51-3.96,2.12-26.33,2.42-30.21-3.58-11.28-6.61-5.64,1.45-19.58,2.05-5,9.61-9.14,6.54-14.84-.74.51-13.81-2.05-13.99,1.44Z"/>
          <path class="cls-4" d="m907.34,770.88c-6.97.37-8.62-11.6-15.5-11.8-1.66-.15-3.63-1.23-5.71-2.37-7.53-5.5-7.7,2.43-14.06,1.05-4.17,3.92,1.53,12.86-4.02,15.9-11.24,9.11-12.67,4.24-23.58-4.32-4.6-4.89-5.72-3.78-10.78-2.74,1.89,7.51-7.08,12.63-11.29,17.45-1,.76-1.3.99-1.08,2.97.26,3.66,2.86,9.08.26,11.71-5.59,4.13-13.63,6.59-20.18,8.79-2.96.96-8.24,1.21-6.44,5.24,1.64,4.68-.81,9.65-3.59,12.9,1.63,3,5.42,4.68,6.24,8.55.81,5.54.45,11.28.76,16.94,8.2,4.68,9.78.52,17.01-3.27,3.75-1.88,10.04-5.38,14.36-8.21,10.07-6.15,14.85-11.81,27.94-7.11,5.69,1.84,9.91,7,14.31,10.69,6.54,5.2,4.75,8.17,6.31,14.24,1.45.49,4.07.02,5.34.84,1.16.7,4.91,2.01,7.29,1.09,2.8-1.08,3.58-1.85,5.42-3.91,2.44-2.63,4.2-1.46,6.38-1.7,2.45-.61,4.93,1.15,7.33,2.86,1.42,1.38,4.44,1.68,5.72,1.5,2.82-6.92,16.71-8.71,14.22-17.21-.26-5.2,3.08-37.84,2.9-45.92.16-8.66-6.55-23.47-8.63-32.27-5.72,3.6-9.5,7.56-16.91,8.13Z"/>
          <path class="cls-4" d="m710.37,974.98c-2.57-3.84.79-6.06,2.35-8.33,1.12-2.3.72-4.67,2.06-7.52,2.27-4.55,5.37-1.21,7.79-1.15,2.09-1.43,3.07-5.92,6.22-6.32,3.69-.65,5.45,3.45,8.07,5,1.86.78,4.46-2.25,7.05-2.56,5.15-1.48,6.6,3.1,10.77,2.48-3.58-7.47-9.52-17.57-13.74-25.3-3.9-7.14,1.52-14.98,1.28-22.04.32-1.59-3.26-1.68-5.55-1.76-3.5-.85-9.62-1.31-12.1-4.35-1.12-4.31,3.7-9.63,4.84-14.8,1.01-7.42,8.24-10.81,15.75-13.87-.02-3.8,1.82-8.56-.31-12.66-1.94-3.68-6.16-9.76-8.57-13.37-.52.34-1.41.51-2.52.28-3.67-.2-5.24,5-10.48,4.4-4.39,1.71-2.07,12.34-10.9,9.05-5.08-1.29-4.77-1.24-8.13,2.42-2.27,2.05-2.99,2.29-5.34,2.52-4.09.7-4.75-5.09-7.01-7.03-1.27-1.09-4.2,1.24-6.01,1.47-2.43,1.07-6.31,6.36-8.28,7.87.61,5.78.72,16.49-3.54,20.73-2.9,3.86-4.63,8.65-8.87,11.2-1.73,1.21-1.89,1.48-1.76,1.98,3.26,5.59,7.74,12.04,3.1,19.55-1.09,2.2-1.59,3.34-.78,5.06,4.33,6.46,1.7,15.11-1.69,21.72-1.95,4.61-2.85,6.65-7.17,8.83-2.01,1.5-7.71,3-7.2,5.07-.02,3.63,1.27,3.31,3.71,4.5,7.39,1.71,8.49,9.3,10.69,15.6,3.17,7.3,4.06,14.17,1.77,21.86-.71,4.08-.44,12.5-1.45,15.9,5.74,6,7.25-4.71,15.29,2.9,6.49-5.79,17.68-8.64,23.1-15.13,1.69-2.47.66-3.56,2.15-6,1-1.36,1.15-3.71,1.46-5.9.89-11.4,11.72-8.58,3.92-22.27Z"/>
          <path class="cls-4" d="m789.02,850.34c-13.06-6.89-4.62-.82-14.68,2.91-10.4.72-3.21,8.83-10.26,13.82-8.89,5.68-12.53,7.84-22.3,12.49-6.14,2.6-7.09,3.81-8.07,6.35-1.58,5.47-4.61,10.81-6.2,15.81,17.96,5.89,20.7-1.52,15.61,21.14-1.5,8.95,7.06,16,10.21,24.08,6.84-6.29,10.47-8.41,16.18-10.81,4.9-1.72,10.62-5.15,10.69-10.82,2.63-7.89,10.28-5.48,16.42-5.92,5.48-.74,9.36,2.38,13.1,5.69,3.47,2.24,8.2.8,12.47,1.23,3.84-.42,8.38,1.74,9.98-2.68-1.68-3.16-.62-5.13-5.57-7.44-5.7-3.57-11.71-5.73-17.31-9.03-2.04-.68-2.61-2.07-2.76-2.85.11-6.4,4.14-2.61,4.57-16.02-5.37-2.09-8.94-2.73-6.97-9.64-.14-6.3-.75-16.34-1.3-22.29-3.6-1.18-9.67-3.92-13.82-6.02Z"/>
          <path class="cls-4" d="m806.58,865.68c-.45,4.38,1.75,9.43.69,13.76-.89,3.56-.04,3.93.52,4.17,2.79.88,7.54,1.86,6.43,6.05-.57,6-1.28,10.04-3.1,11.63-1.05.92-1.49,1.98-1.41,2.39,6.46,3.9,11.5,5.39,18.6,9.77,4.51,2.15,5.54,4.67,6.61,8.47,6.11-.28,11.01-6.52,14.37-12.52,4.2-7.07,15.1-6.24,19.46-11.78,3.81-11.05,3.52-28.15,6.33-39.84-1.01-8.06-1.52-9.45-8.65-15.21-12.1-12.68-22.92-9.37-34.94-.19-8.55,5.08-17.08,10.29-25.33,14.23.34,2.15.77,5.85.43,9.08Z"/>
          <path class="cls-4" d="m829.97,929.48c-7.22-.48-15.32,1.73-22.03-1.72-2.49-1.55-5.03-5-7.81-5.05-5.04.47-14.88-2.27-16.81,3.37-.06,6.35-6.87,11.14-12.61,13.03-4.79,1.43-14.41,8.79-15.79,10.84,4.71,11.63,6.95,5.21,14.41,10.94,3.1-1.73,8.36-4.84,12.09-2.04,1.57.71,3.2,1.43,5,1.25,5.94-.4,10.8,3.03,15.48,5.38,4.18,3.38,11.41-1.17,15.87,1.93,3.24,1.04,3.75,1.53,7.33-1.01,2.75-1.83,3.39-2.05,5.2-2.26,1.96-.18,8.97-2.15,10.85-1.28,2.35-19.6-2.91-11.11-3.5-23.68-2.31-2.72-6.19-7.02-7.57-9.73-.04,0-.07.01-.11.02Z"/>
          <path class="cls-4" d="m766.75,962.97c-2.58-2.4-6.86-1.14-9.72-3.81-4.69,2.86-8.11-2.59-12.33-1.93-3.45.75-5.46,4.23-9.38,2.27-2.06-.86-4.16-4.62-5.95-4.66-4.39,4.09-3.69,8.62-11.39,5.14-1.58,2.82-.93,5.72-2.52,8.39-.84,1.35-3.76,3.88-2.48,4.72,3.2,6.43,4.65,9.95,2.3,14.79,7.59,14.89-3.71,23.96,9.59,29.77,4.56,2.62,4.69,6.99,8.86,8.96,8.66-6.42,1.43-15.59,10.17-19.24,4.37-1.79,7.73,1.92,11.92,2.3,17.85,1.16,8.66-4.06,19.96-9.08,5.17-2.03,10.4-5.2,8.24-11.62-1.41-6.56-5.59-7.73-8.49-13.87-1.89-3.03-3.71-3.72-5.4-7.66-1.26-2.88-1.93-3.38-3.4-4.46Z"/>
          <path class="cls-4" d="m1002.25,592.48c-.88-8-7.4-25.39-8.22-33.6-.46-5.08-6.92-12.8-7.98-16.68-.73-2.42-.73-8.94-.73-12.81s-2.17-7.01-4.35-9.91c-2.94-4.14-7.17-11.55-8.36-14.9-7.94,8.07-14.44,12.56-26.86,12.8-13.7.41-18.8,15.15-32.45,14.11-.15,11.98.79,27.63-4.1,38.28-1.07,2.52-.27,5.14.32,8.05.8,4-.21,10.31-2.52,15.69-4.26,8.91-6.94,19.39-3.34,28.8,1.62,3.85.05,6.92,1.25,9.76,2.13,2.95,5.72,6.26,4.84,10.23-1.05,4.3-1.91,10.49-3.45,13.95,4.26,1.74,11.83,3.52,16.17,3.98,3.58.65,6.96.3,9.34,4.34,2.03,3.48,5.06,7.74,6.93,8.86,3.86,1.43,4.74-7.63,11.86-4.31q3.05.96,3.78-.4c1.47-3.78,2.31-9.9,4.54-13.21.18-6.13,16.59-3.09,17.48-3.5,6.22-3.58,14.87-7.6,16.19-17.48,1.95-9.31,10.15-33.15,9.67-42.05Z"/>
          <path class="cls-4" d="m842.91,970.65c-.17-1.34-.35-2.62-.7-3.98l-.11.08s-1.42-1.66-6.5-.34c-2.62.68-4,.84-4.91.95-4.46,1.08-7.97,6.12-13.08,3.39-4.49-1.15-1.42-1.9-7.79-.91-10.93,1.73-13.36-6.82-23.03-6.52-7.32.06-8.13-4.99-15.14.03,3.98,7.75,9.83,14.13,14.47,21.2,6.41-.14,17.06.92,21.44,5.32.74,1.16,1.88,3.37,2.87,4.16,3.13-2.03-1.55-5.36.2-8.01,2.8-2.38,9.61-3.21,13.64-1.6,4.64,2.09,11.03,5.04,12.94,6.48.71-5.92-1.86-10.57,6.75-10.77-.02-1.8-.61-6.86-1.05-9.48Z"/>
          <path class="cls-4" d="m908.18,859.28c-2.75-2.36-4.57-2.39-7.2-2.28-1.08-.11-1.52-.16-2.23.64-3.61,5.56-12.57,6.52-16.78,3.45-1.18-.19-3.03-.05-4.38-.47-1.06,8.78-2.18,19.49-3.65,28.15.1,10.51-5.73,14.91-14.07,17.42-11.62,2.39-10.57,17.97-24.84,18.93-.55.9-.98,2.1-1.97,3.04,10.39,15.59,7.16,5.14,15.41,11.67,5.19,10.78,15.45,8.1,20.62,16.57.48.94.57,1.13,3.12.8,6.81-1.43,12.4-2.46,18.96-4.39,5.02-2.2,7.68-1.42,11.68,1.32,6.59,3.39,13.5,10.05,21.04,9.25-7.24-11.26-23.13-32.86-23.64-46.07,2.37-10.59,11.56-45.73,13.79-55.94-1.78-.04-4.22-.71-5.86-2.09Z"/>
          <path class="cls-4" d="m910.13,962.27c-4.22-2.76-8.83-5.44-12.94-7.53-.82-.33-3.12.48-4.96,1.12-5.23.84-24.01,8.39-26.02,2-3.72-6.23-15.2-5.88-18.14-13.2-1.73-3.22-3.71-4.31-7.2-4.05.16,5.07,4.61,6.49,4.15,12.63-1.8,8.94,2.11,18.55,2.16,26.79,6.96.28,8.33-.06,11.26,6.65,1.45,1.93,1.21,3.14-.48,3.62-5.72,6.31-.34,7.68-11.6,10.63-2.42,1.21-2.66,5.8-5.56,9.43-2.9,3.63-2.9,6.29-1.21,7.74,1.69,1.45,1.93,3.38,1.45,5.32-.48,1.93-.48,15.47-.48,17.16s-2.42,3.63-5.07,6.28c-2.66,2.66-.49,3.87,1.45,4.59,1.94.73,5.08,2.9,7.73,3.87,2.66.97,5.32-.48,8.46-2.9,3.14-2.42,2.66-7.01,3.39-8.46,4.52-4.54,23.47-13.21,28.28-16.92,2.17-1.69,4.11-2.66,4.11-5.56s2.17-21.27,2.17-25.38.73-2.66,2.66-5.56c1.93-2.9,5.56-7.25,8.46-10.39,2.9-3.14,6.28-2.18,8.22-2.42,8.27-6.75,16.57-2.31,14.78-10.95-4.51-.44-10.37-.3-15.05-4.52Z"/>
          <path class="cls-4" d="m824.98,988.29c-3.76-2.5-7.43-1.11-11.49-.53,4.22,8.5-4.29,14.17-8.68,3.8-4.42-2.67-11.84-3.78-17.73-3.92,4.16,15.21-11.21,12.06-15.93,21.52,2.15,1.53,3.86-1.24,6.16-.33,1.03.52,1.32,1.62,1.45,2.41.58,2.86,3.09,4.91,1.86,8.31-.73,2.03-.51,10.08,5.12,13.63,5.76-.61,6.38-7.29,7.92-12.16.76-2.83,7.55-3.3,10.4-3.99,2.66-.1,6.39-3.26,8.34-.84,6.87,2.44,10.03,6.81,10.39,14.14.36,1.69,5.92,1.21,7.61.97,1.69-.24,1.69-3.63,2.78-6.04,1.09-2.42,1.93-3.5.97-4.96-1.78-2.79-5.22-5.3-4.71-8.94-.25-1.33-.25-1.45-1.21-3.39-2.17-5.03,6.64-9.04,8.12-13.65-1.06-1.35-8.52-4.72-11.36-6.01Z"/>
          <path class="cls-4" d="m415.41,1139.68c-2.66-1.45.24-5.56,1.93-8.22,3.75-5.17-2.18-8.02-4.35-13.05-1.58-3.17-5.28-2.96-7.92-3.31-2.31,9.34-4.95,7.81-13.23,8.81-4.19.98-10.45,1-13.91,2.22-2.84.83-4.56,2.27-8.03,2.27-3.03.18-4.5,2.49-7.86,3.36-5.14,2.14-8.38-3.28-12.5-1.89-13.34,7.29-9.62,1.03-12.54,15.32,3.15,3.73,8.76,5.35,12.18,8.13.84.96,1.99,2.55,3.18,2.56,2.26-.63,5.53-4.41,7.91-1.67,5.91,4.99,4.07,7.01,6.56,12.55,2.29.88,5.47,1.9,6.94,4.74,1.25,2.4.58,4.24,1.45,6.45,3.54,5.77,9.24,4.82,14.5,9.59,16.41-30.58,53.22-26.27,25.71-47.86Z"/>
          <path class="cls-4" d="m339.26,1131.33c1.62-.98,6.18-2.8,8.59-4.21,1.7-1.85,7.27.09,9.46,1.27,1.37.67,1.83.9,3.76.3,3.54-1.05,4.86-3.44,8.82-3.51,1.73,0,2.95-.52,4.36-1.12,4.76-2.34,11.15-2.13,16.93-3.3,8.08-1.5,8.63,1.71,11.04-7.31-3.26-4.81-11.6-6.66-15.82-11.47-3.38-3.63-3.14-1.69-7.01-3.14-7.71-1.44-18.5,3.47-26.35,3.38-5.83,2.08-13.49,7.94-19.82,7.01-2.41.24-.48,4.11-.48,4.11.16,4.04,5.42,10.4,1.87,14.23,1.65,2.05,2.69,3.47,3.3,4.45.46-.23.91-.46,1.35-.69Z"/>
          <path class="cls-4" d="m242.93,1224.86c-.58-3.47-.75-10.26,4.67-10.66,6.38-2.07,19.26-8.66,17.44-15.92-1.19-4.02-5.09-12.02-1.6-13.32,3.19-3.38,14.11-.82,16.93-3.28,1.52-1.14,6.14-8.74,8.85-14.15,2.33-4.53,2.42-9.52,8.27-11.59,4.82-1.69,4.47-2.49,10.82-3.51,9.7-2.01,15.58-4.66,24.11-6.59,3.58-2.64,1.76-7.72,3.13-11.46-.36-.76-1.9-2.86-3.41-4.74-3.16.09-3.46.32-6.88,2.8-2.9,1.69-2.66.73-6.77,0-6.42-.54-11.88.32-16.19,3.87-5.85,5.45-12.24-6.51-16.43-8.7-.97-.72-4.59-9.06-6.77-11.72-2.18-2.66-7.13,6.28-9.06,7.98-1.93,1.69-5.92,9.06-8.58,11.72-2.66,2.66-4.11,1.69-5.32,7.98-3.35,15.88-8.57,19.18-22.48,25.62-5.08,2.42-19.34,12.33-22.24,13.78-2.9,1.45-4.83,1.69-5.8,3.87.27,4.74,15.5.97,20.79.48,5.31-.48,2.42,4.35,2.17,6.28-.29,3.5,9.52,7.66,9.67,11.36.73,1.69-1.69,3.14-3.38,3.38-1.69.24-3.5,5.8-4.71,7.25-1.21,1.45-3.5,3.75-2.54,6.16.97,2.42,2.54,11.96,7.25,13.41,2.19.68-.12.61,6.16-.36.58-.09,1.13-.07,1.65,0,.23-2.51.59-7.15.26-9.93Z"/>
          <path class="cls-4" d="m382.32,1186.83c-7.79-3.38-10.3-5.03-11.45-13.89-.88-1.68-3.49-2.51-5.23-3.18-4.68-2.79-1.71-9.31-7.66-13.24-4.65,3.2-7.89,3.65-11.24-1.08-3.3-2.02-8.94-4.48-11.64-7.61-3.21,2.9-9.17,2.25-13.16,4-6.47,3.25-16.61,3.64-23.39,7.15-4.22,1.37-4.41,6.28-6.45,9.99-1.7,3.39-7.17,13.32-9.8,15.29-2.68,3.28-13.91.44-17.08,3.41.6,5.66,5.76,12.06,1.55,17.71-3.45,4.87-13.73,11.22-19.6,12.26-1.23.34-1.55,2.45-1.03,6.84.42,3.59-.13,9.56-.35,11.66,3.11,2.39,4.67,6.99,4.67,6.99,1.93,1.21-1.81,3.87-3.02,6.04-1.21,2.18-.24,3.38,2.66,4.11,2.9.73,4.11,2.66,8.95,2.66s6.52-2.17,9.42-2.66c2.9-.48,6.52,3.14,8.22,4.11,1.69.97,3.14,2.42,5.32,1.45,2.18-.97-.72-4.35-1.69-7.73-.97-3.38-1.45-5.56-.24-8.7,1.26-10.07,6.99-16.1,16.19-22.72,4.83-4.11,7.25-10.88,8.22-15.47.97-4.59,4.59-4.83,9.67-9.19,5.08-4.35,12.81-7.01,18.13-8.7,5.32-1.69,6.53,0,10.39.48,3.87.48,9.43.97,13.05,4.59,3.63,3.63,12.57,11.36,14.74,14.99,12.31,20.05,12.89-5.85,17.81-15.88-2.74-2.35-3.5-2.2-5.94-3.68Z"/>
          <path class="cls-4" d="m181.94,1243.58c-13.28,4.56-23.04-2.83-35.24-9.45-.92.23-5.57,5.61-7.04,6.57-1.59,1.29-2.54,2.06-3.64,5.08-1.53,4.82-5.17,8.12-6.16,12.41-1.78,10.23-8.24,3.12-9.76,6.09-1.01,4.36-1.6,7.04-.16,7.67,6.66,3.31,3.97,8.88,2.39,14.48-1.07,4.45,4.36,7.23,3.56,11.53-2.4,4.71-8.59,5.07-13.38,7.05-6.78,3.04-12.05.77-18.71,1.88,1.25,5.05-2.82,10.36,3.13,12.91,3.17,2.28,5.7,4.7,9.14,5.73,2.18.71,5.15,1.68,5.15,5.73.1,3.67-2.24,8.97.29,11.71,3.75,3.29,6.01,5.52,10.48,7.57,5.04.94,5.8,6.91,3.47,10.45-1.77,3.33-1.47,9.79-3.75,12.27,1.46,2.22,4.24,2.29,5.34,4.01,1.21,1.69,2.9,3.14,4.83,3.86,1.93.73,7.25-11.36,10.64-18.13,6.37-12.33,7.83-32.4,9.43-45.19,2.17-12.43,12.22-25.99,17.89-36.02,2.18-3.38,3.14-6.77,3.38-10.15,2.18-7,11.42-16.15,15.77-23.46-2.41-1.78-3.1-5.63-7.05-4.61Z"/>
          <path class="cls-4" d="m69.53,1301.87c4.41-1.36,7.22-9.09,12.92-3.79,2.13,1.89,6.13,2.11,7.56,3.91,1.66,1.39,2.8,2.14,5.54,1.42,5.51-.77,9.61,1.38,15.99-1.48,4.37-1.56,8.05-2.11,11.24-4.77-.93-3.68-4.59-6.01-3.65-10.48-.15-1.86.54-3.39,1.14-4.74,4.12-9.54-8.25-3.67-3.27-18.55,1.67-4.86,5.09-2.69,7.84-2.62.93,0,1.17-.12,1.88-3.29.39-2.22,1.44-3.96,2.85-6.22,2.52-3.39,4.58-11.29,8.06-13.08,1.81-1.27,4.97-5.22,6.5-6.2-2.61-2.55-5.57-8.23-7.69-12.66-2.66-5.51-7.07-8.61-10.45-13.45-.29.5-.72,1.05-1.39,1.39-.77,10.02-9.39,10.32-14.85,3.62-5.79-2.69-11.15-2.27-17.67-4.79-1.79-.76-1.88-.64-2.49.26-3.02,2.94-7.21,6.94-10.78,9.78-3.97,2.79-6.95.83-10.04,4.06,3.11,5.91,6.38,15.32,9.73,20.03,1.93,2.66-2.66,7.49-5.08,9.42-2.42,1.94-4.11,6.29-5.08,7.98-.97,1.69,7.73.72,8.7,1.21.97.48-1.21,6.53-3.14,9.19-4.27,9.43-7.13,22.12-14.38,30.21,3.49,1.79,4.93,4.55,10.03,3.63Z"/>
          <path class="cls-4" d="m68.76,1186.62c2.32-3.44,5.59-8.28,4.66-11.64-7.53,1.55-15.9-.9-22.75-3.62-3.4-.97-7.91-2.98-8.22-3.12-1.64.13-3.59-.38-5.78-1.73-8.7-7.85-8.68-10.51-19.34-1.45-3.38,2.42,4.59,7.25,7.01,8.46,2.68,1.39,1.22,5.48-1.13,6.42,2.67,6.96,4.07,16.63,9.77,21.45,6.46,3.96,11.32,10.45,18.77,13.8,3.87-6.69-8.04-11.47,2.33-14.11,1.26-.72,4.11-.9,5.99-.75,3.08-4.04,5.4-8.84,8.7-13.71Z"/>
          <path class="cls-4" d="m121.6,1361.98c.85-3.14,4.49-6.92-.79-8.43-2.32-.48-5.81-3.67-7.67-4.96-4.71-2.28-7.29-8.42-5.56-13.67,1.47-6.04-.58-5.37-5.56-7.58-7.09-5.18-14.01-6.82-11.19-17.19.28-5.07-3.04-6.14-6.7-7.52-2.99-.24-3.93-3.89-6.47-2.77-3.35,1.67-3.18,4.64-7.73,5.21-5.8,1.14-8.62-2.13-12.6-4.38-2.98,4.12-6.47,5.31-12.21,6.25-3.14.48-2.9,1.93-2.17,4.59.72,2.66-1.45,16.92-2.18,21.51-.73,4.59,5.8,10.39,8.22,12.57,2.42,2.18.72,3.38-.24,5.32-.97,1.93-1.69,13.05-2.42,15.95-.72,2.9-8.7,2.18-11.36,3.38-2.66,1.21,1.21,7.98,2.42,10.15,2.4,7.99,9.19,6.53,16.68,6.77,4.11.49,4.59,4.11,7.73,5.8,7.22,4.82,7.25,2.36,13.3-3.14,4.52-3.02-4.32-11.31-7.01-14.5-5.4-6.29,5.25-23.78,8.94-29,2.66-3.63,5.56-.97,10.15.97,6.16,3.26-.01,15.42-6.52,8.94-3.03-2.9-9.44,5.56.72,9.42,2.9,1.21,2.66,3.63,2.42,7.01-.24,3.38,1.69,14.99,1.45,16.44-.24,1.45-1.69,4.59-3.63,7.97-1.93,3.38-1.93,8.95-3.63,11.84-1.69,2.9,9.18-1.45,13.78-3.63,7.9-2.91,18.01-11.87,23.44-15.95,1.69-1.69-.97-4.11-3.14-6.04-3.43-2.59-7.6-6.57-1.69-8.7,1.78-.68,5.77-3.69,9.17-3.82,1.02-2.07,1.4-6.58,2.04-8.81Z"/>
          <path class="cls-4" d="m39.25,1210.49c-2.52-3-5.11-4.22-8.18-6.51-6.84-5.44-8.64-17.36-11.38-24.5-3.38-2.69-12.42-4.8-16.38-5.47-3.14-.49-1.69,9.42-.97,14.5,6.3,13.54,18.16,7.61,25.62,31.66,3.7,6.47-8.68,5.68-10.15,2.66-.97-1.93-1.45-7.73-2.9-9.91-1.45-2.18-11.84-6.77-13.54-6.28-1.69.48-1.45,6.76-1.21,9.91.24,3.14,14.99,17.16,16.19,19.82,1.21,2.66-2.18,14.99-.73,15.95,1.45.97,10.64-8.46,15.95-12.57,5.32-4.11,11.84-3.87,14.02-3.14,2.18.73-.73,10.39-2.18,13.54-1.45,3.14,6.53,4.35,8.94,4.35s5.08-7.01,7.25-11.12c4.27-7.51,6.83-13.17-2.17-16.68-8.33-1.7-15.64,5.93-7.49-8.81-2.64-1.42-8.46-4.73-10.71-7.4Z"/>
          <path class="cls-4" d="m74.1,1214.64c4.64-.97,9.04-7.35,12.82-10.12,1.15-1.67,2.51-3.03,6.4-1.4,5.38,1.63,8.68,2.25,13.91,3.36,1.22-4.44,3.55-11.8,2.52-15.95-.83-3.05,1.44-6.8,4.88-12.48,2.54-5.72,7.25-7.08,11.43-5.78,3.34.92,11.24.91,9.98-2.71,0-2.29,1.05-5.07,1.58-6.32-23.17-11.08-4.97-26.63-17.56-35.17-9.35-4.26-23.07,1.02-32.87,1.69-8.72,1.48-17.62,14.21-23.68,18.37-2.66,1.45,2.66,5.08,1.69,7.01-.97,1.93-5.56-.48-7.49-2.18-2.36-2.95-13.35,3.91-10.15,6.77,3.32,3.22-1.71,3.22-1.84,6.38,7.67,3.06,16.05,6.18,24.38,6.18,1.9-.05,3.43-1.22,5.18-.2,6.32,6.22-9.56,24.12-12.68,30.22,1.83,4.43,3.49,11.59,4.8,14.82,1.43-1.32,4.57-2.57,6.71-2.51Z"/>
          <path class="cls-4" d="m198.6,1229.59c-5.33-2.4-1.16-7.71.24-12.08,1.34-4.1-5.92-2.11-8.7-3.63-2.18-.73,0-4.11.96-6.53,2.12-6.55.23-9.33-7.74-8.7-3.63,0-14.98-1.93-17.4-2.18-2.41-.24-2.17-3.38-2.17-5.56s.97-2.42,3.14-2.9c2.17-.48,6.52-2.9,10.39-3.87,3.87-.97,2.66-4.35,2.42-7.25,3.14-17.97,5.98-14.03-13.53-21.51-2.66-.96-4.11,1.69-4.11,1.69-1.45,1.21-12.33,11.72-14.99,12.45-2.52.69-4.61-3.08-6.67-4.71-.51,1.27-1.19,3.28-1.19,4.75-.65,12.96-17.44.79-20.77,8.32-2.24,3.73-6.32,10.06-5.63,11.8,1.17,7.59-1.24,12.03-2.55,17.74,2.79,1.68,6.88,7.32,9.86,3.71,1.25-1.88.61-5.62,2.99-6.76,2.81-6.26,7.1,2.36,9.79,4.81,4.95,4,10.1,17.45,13.34,20.39.97,1.35,4.16,2.98,7.12,4.56,9.3,4.81,15.37,9.55,24.73,6.94,6.72-2.06,8.5-.75,12.88,4.55,2.89-4.55,18.61-14.47,7.59-16.04Z"/>
        </g>
        <path class="cls-4" d="m864.24,405.89c-2.44.05-13.61-4.08-14.01-9.18-.97-4.35-4.83-9.18-2.42-14.99,5.04-11.11,15-22.26,6.77-32.87-2.9-3.38-7.25-11.12-12.57-14.98-5.32-3.87-8.7-10.64-7.74-14.99.97-4.35,3.87-14.98,2.9-19.82-.97-4.83-3.87-19.34-.48-19.82,3.39-.48,7.74.97,10.64-1.45,2.9-2.42,6.28-10.64,9.66-9.67,3.39.97,6.29,2.9,9.67.97,3.38-1.93,14.02-15.47,13.05-20.3-.97-4.83-9.19-22.61-9.19-27.07,2.05-19.9,17.15-4.28,28.04.48,5.8,2.9,5.32,4.35,9.67,3.39,4.35-.97,6.28-6.28,10.15-3.39,3.86,2.9,6.28,7.74,10.15,6.29,28.34-8.73.85-36.3,12.09-60.43,3.87-8.7,14.52-9.91,16.43-15.47,5.32-15.47-1.21-59.58,5.32-76.86,3.78-10.01,1.06-36.5-3.56-43.42-2.16-3.24-5.07-18.01-2.3-20.75,2.25-2.23,3.93-3.03,7.31-4.48,3.38-1.45,1.45-8.7,5.32-6.77,3.86,1.93,19.33,8.7,24.17,13.05,20.86,21.57,51.28,69.44,78.31,87.49,8.22,5.8,18.39,12.2,24.19,14.13,5.8,1.94,5.2.21,9.27,5.48,2.38,3.09,5.69,6.01,8.6,6.01s2.88-3.3,5.3-4.75c2.42-1.45,10.17-1.05,15-.57,10.61-1.08,9.5,9.62,17.4,13.05,4.83,1.93,24.65,7.25,28.52,5.32,2.85,1.39,32.06-50.32,35.77-44.47,17.04,16.35-24.22,49.76-.48,65.74,3.87,2.9,11.12,4.83,9.18,7.25-1.93,2.42-5.32,6.77-2.9,11.6,2.42,4.83,9.67,16.92,13.53,17.4,3.87.48,9.67-11.12,12.08-11.12s10.64-2.9,8.22,1.93c-2.42,4.83-12.08,15.95-18.37,19.82-6.29,3.87-15.47,5.32-18.37,9.19-2.37,4.93-16.98,16.95-20.79,13.05-1.45-2.9-2.42-6.77-4.35-5.32-14.72,9.58,1.38,11.21-17.89,13.05-31.19,5.05-9.58-17.96-50.76,18.37-13.53,11.6-28.04,28.04-29.97,33.84-1.93,5.8-3.38,53.17-8.7,53.66-5.32.48-11.12-9.67-22.24-14.99-11.12-5.32-31.9-9.18-43.51-16.43-21.33-12.57-47.31-40.41-68.64-23.2-5.8,5.32-28.52,29.49-33.84,28.52-5.32-.97-10.64-23.2-14.99-23.69-4.35-.48-7.73-4.35-11.12-2.9-3.38,1.45-15.47,9.19-18.37,14.5-2.9,5.32-2.42,16.92.48,18.37,7.99,4.05,24.85,4.55,32.87,9.67,3.38,2.9,5.32,12.57,10.15,14.02,4.83,1.45,8.22,0,11.6,2.42,3.38,2.42,9.67,6.28,8.7,10.64-.97,4.35-11.6,11.12-14.02,11.6-6.89.28-19.95-6.82-28.04-2.42-4.83,2.42-11.6,8.22-11.6,11.12,2.64,10.07-11.53,21.71-19.34,25.13Z"/>
      </g>
      <polyline class="cls-1" points="1187.37 1130.43 948.66 1130.43 948.66 1369.14"/>
    </g>
  </g>
</svg>