<?xml version="1.0" encoding="UTF-8"?>
<svg id="_レイヤー_2" data-name="レイヤー 2" xmlns="http://www.w3.org/2000/svg" xmlns:xlink="http://www.w3.org/1999/xlink" viewBox="0 0 70 70">
  <defs>
    <style>
      .cls-1 {
        fill: none;
      }

      .cls-1, .cls-2, .cls-3, .cls-4, .cls-5, .cls-6 {
        stroke-width: 0px;
      }

      .cls-2 {
        fill: url(#_名称未設定グラデーション_43);
      }

      .cls-3 {
        fill: #c9a063;
      }

      .cls-4 {
        fill: #d9b98f;
      }

      .cls-5 {
        fill: #d7003a;
      }

      .cls-6 {
        fill: #fff;
      }
    </style>
    <linearGradient id="_名称未設定グラデーション_43" data-name="名称未設定グラデーション 43" x1="35" y1="50.67" x2="35" y2="59.88" gradientUnits="userSpaceOnUse">
      <stop offset="0" stop-color="#c9a063"/>
      <stop offset=".18" stop-color="#c69c60"/>
      <stop offset=".32" stop-color="#be925a"/>
      <stop offset=".45" stop-color="#b2824f"/>
    </linearGradient>
  </defs>
  <g id="pc">
    <g>
      <g>
        <path class="cls-6" d="m70,35c0,19.33-15.67,35-35,35S0,54.33,0,35,15.67,0,35,0s35,15.67,35,35Z"/>
        <path class="cls-5" d="m56.76,35c0,12.02-9.74,21.75-21.76,21.75s-21.75-9.74-21.75-21.75,9.74-21.75,21.75-21.75,21.76,9.74,21.76,21.75Z"/>
        <g>
          <path class="cls-3" d="m14.51,50.8c-.48,0-.94.32-1.23.55l-2.33,1.86c-.16.12-.25.19-.32.19-.07,0-.14-.06-.28-.24l-.04-.06-.31.24,1.2,1.5.31-.25-.04-.06c-.14-.17-.21-.28-.2-.36,0-.07.09-.15.26-.29l2.45-1.95c.32-.26.68-.52.92-.52.09,0,.17.04.23.12.08.1.08.2.02.36-.1.23-.09.39.03.55.12.15.32.18.47.06.22-.18.31-.6-.19-1.22-.26-.33-.58-.5-.93-.5Z"/>
          <path class="cls-3" d="m13.09,50.07l.04.06.34-.2-.6-1.02-.33.2.04.06c.12.21.09.23.04.26-.06.03-.17.07-.28.1l-.65.17-.69-1.17.5-.56c.07-.08.12-.13.17-.15.02-.01.03-.01.04-.01.03,0,.08.03.17.18l.04.06.33-.2-.81-1.37-.33.2.04.06c.08.14.1.2-.16.5l-2.8,3.25.28.47,4.22-1c.26-.06.32-.05.42.12Zm-3.64.18l1.22-1.37.54.92-1.76.45Z"/>
          <path class="cls-3" d="m7.23,46.58l2.9-1.06c.14-.05.24-.08.32-.08.09,0,.14.05.25.34l.02.07.36-.13-.67-1.84-.36.13.02.07c.08.22.12.36.09.43-.03.07-.13.11-.33.19l-1.12.41-.12-.32c-.24-.65-.49-1.02-.84-1.23-.32-.2-.7-.22-1.13-.06-.39.14-.67.42-.79.78-.11.35-.06.77.17,1.38l.62,1.7.37-.14-.02-.07c-.14-.39-.13-.41.26-.55Zm1.05-1.34l-1.45.53c-.12.04-.21.07-.25.07-.02,0-.03,0-.04-.05l-.09-.25c-.15-.42-.24-.94.51-1.22.17-.06.32-.09.45-.09.35,0,.59.22.76.69l.12.32Z"/>
          <path class="cls-3" d="m9.41,42.24v.07s.39-.08.39-.08l-.24-1.16-.38.08v.07c.03.08.05.19.02.23,0,0-.02.02-.06.03-.05.01-.16,0-.3,0l-.67-.04-.27-1.33.66-.37c.09-.05.16-.08.21-.09,0,0,.02,0,.03,0,.02,0,.07,0,.12.23v.07s.39-.08.39-.08l-.32-1.56-.38.08v.07c.05.16.04.22-.3.42l-3.7,2.18.11.54,4.32.41c.29.03.33.09.36.25Zm-3.5-1l1.6-.9.22,1.05-1.81-.14Z"/>
          <path class="cls-3" d="m4.98,37.09l3.09-.05h.07c.35,0,.37.03.38.4v.07s.39,0,.39,0l-.02-1.43h-.39s0,.08,0,.08c0,.38-.01.4-.44.41l-2.88.05,3.74-2.16v-.64s-3.99.06-3.99.06h-.07c-.36,0-.37-.04-.37-.38v-.07s-.4,0-.4,0l.02,1.44h.39s0-.08,0-.08c0-.19,0-.31.06-.36.05-.05.18-.07.37-.07l2.64-.04-3.4,1.95-.04.02.02,1.3h.39s0-.08,0-.08c0-.2,0-.31.05-.36.05-.05.17-.06.37-.06Z"/>
          <path class="cls-3" d="m6.9,29.83c.33.08.64.12.93.12,1.03,0,1.72-.51,1.95-1.43.13-.52.06-1.1-.2-1.55l-.02-.03-.83-.21q-.24-.06-.17-.34l.02-.07-.38-.1-.4,1.59.38.1.02-.07c.08-.31.11-.33.2-.33.05,0,.12.02.22.04l.67.17c.09.21.11.41.06.62-.15.6-.87.7-1.29.7-.3,0-.63-.05-.97-.13-.59-.15-1.06-.39-1.35-.69-.27-.28-.38-.61-.29-.93.12-.47.37-.56.78-.56.13,0,.27,0,.4.02h.07s.03-.45.03-.45h-.07c-.36-.03-.72-.07-1.08-.12h-.04s-.03.03-.03.03c-.24.33-.39.63-.47.95-.16.65-.06,1.25.3,1.73.34.44.88.77,1.57.94Z"/>
          <path class="cls-3" d="m6.42,24.25c.11-.26.16-.32.25-.32.07,0,.18.04.32.1l2.83,1.24c.19.08.29.14.32.21.03.07-.01.19-.09.36l-.03.06.36.16,1.27-2.91-1.01-.7-.19.42.04.03c.58.43.55.48.43.75l-.37.85c-.03.06-.04.06-.06.06-.03,0-.09-.02-.17-.05l-1.45-.63.24-.55c.06-.14.09-.17.15-.17.09,0,.26.06.47.16l.06.03.18-.41-1.58-.69-.18.41.06.03c.22.09.37.17.43.25.03.04.04.09-.02.22l-.24.55-1.28-.56c-.2-.09-.2-.09-.14-.23l.29-.66c.09-.21.13-.26.32-.26.1,0,.25.02.5.06h.05s.19-.41.19-.41l-1.16-.26-1.21,2.77.36.16.03-.06Z"/>
          <path class="cls-3" d="m10.11,20.96c.59.39,1.14.59,1.63.59.62,0,1.14-.31,1.55-.92.41-.61.49-1.21.26-1.78-.19-.46-.59-.9-1.18-1.29-.57-.38-1.14-.58-1.63-.58-.63,0-1.15.31-1.56.92-.39.59-.48,1.17-.26,1.73.19.48.59.93,1.19,1.33Zm-.58-2.82c.19-.29.45-.43.78-.43.52,0,1.13.36,1.54.63.61.41,1.02.82,1.19,1.2.1.29.06.6-.1.86-.41.61-1.18.54-2.31-.21-.68-.45-1.07-.85-1.2-1.22-.1-.3-.06-.58.11-.84Z"/>
          <path class="cls-3" d="m16.07,14.72s.07-.12.15-.21l.05-.05-.29-.27-1.13,1.18.29.27.05-.05c.13-.13.21-.21.28-.21.05,0,.12.06.23.16l.5.48c-.02.23-.1.41-.26.57-.15.16-.35.24-.59.24-.47,0-1.07-.32-1.65-.87-.88-.84-1.12-1.71-.63-2.22.17-.18.32-.26.48-.26.23,0,.49.16.81.37l.06.04.25-.38-.06-.04c-.29-.19-.59-.4-.88-.63l-.03-.03-.04.02c-.37.17-.65.35-.88.59-.47.49-.67,1.06-.59,1.65.07.55.38,1.1.9,1.59.61.58,1.24.88,1.84.88.49,0,.93-.2,1.31-.6.37-.39.59-.93.59-1.44v-.03l-.62-.59c-.08-.08-.13-.14-.13-.17Z"/>
          <path class="cls-3" d="m20.93,12.43c-.19.14-.27.15-.66-.01l-1.5-.67c.41-.49.44-1.12.08-1.61-.24-.33-.56-.5-.93-.5h-.02c-.39,0-.74.15-1.26.53l-1.45,1.06.23.32.06-.04c.15-.11.25-.17.32-.17.08,0,.15.09.29.27l1.83,2.49c.12.17.19.27.18.34,0,.07-.1.16-.26.27l-.06.04.23.31,1.5-1.1-.23-.31-.06.04c-.14.1-.23.16-.29.16-.07,0-.15-.09-.29-.28l-.75-1.02.26-.19,2.15,1.02.92-.68-.23-.31-.06.04Zm-2.61-.99c-.05.2-.2.38-.46.57l-.23.17-.85-1.16c-.08-.11-.14-.2-.16-.25,0-.02,0-.03.04-.06l.25-.18c.21-.15.38-.22.56-.22.03,0,.05,0,.08,0,.21.03.4.16.56.37.21.28.28.53.22.76Z"/>
          <path class="cls-3" d="m25.31,10.23c-.06.03-.1.04-.14.04-.08,0-.17-.06-.34-.24l-2.97-3.03-.04-.04-.49.24.65,4.29c.04.29,0,.34-.15.41l-.06.03.17.35,1.07-.51-.17-.35-.06.03c-.07.03-.15.07-.2.07-.02,0-.04,0-.06-.05-.03-.06-.05-.17-.07-.29l-.12-.66,1.22-.59.51.55c.07.08.12.14.14.18.02.04.04.09-.18.2l-.06.03.17.35,1.44-.69-.17-.35-.06.03Zm-2.1-.64l-.96.46-.3-1.79,1.26,1.33Z"/>
          <path class="cls-3" d="m28.21,5.17c-.35-.14-.75-.12-1.39.05l-1.75.48.1.38.07-.02c.13-.03.22-.06.29-.06.11,0,.15.05.24.36l.81,2.98c.05.2.08.32.04.38-.03.07-.15.11-.34.16l-.07.02.1.37,1.89-.52-.1-.37-.07.02c-.15.04-.27.07-.35.07-.12,0-.16-.05-.24-.36l-.32-1.15.33-.09c.67-.18,1.05-.4,1.3-.73.23-.3.28-.68.16-1.12-.11-.4-.36-.7-.71-.85Zm-1.19,2.35l-.41-1.49c-.03-.12-.05-.21-.05-.26,0-.02,0-.03.05-.04l.26-.07c.12-.03.27-.07.42-.07.38,0,.63.22.75.68.08.31.08.55-.03.73-.11.19-.33.33-.67.43l-.33.09Z"/>
          <path class="cls-3" d="m34.74,8.39c-.07,0-.14.01-.19.01-.2,0-.24-.03-.27-.41l-.28-3.08c-.02-.21-.02-.33.02-.38.04-.05.16-.07.36-.09h.07s-.04-.4-.04-.4l-1.79.16.04.39h.07c.06-.01.11-.02.16-.02.15,0,.19.01.22.39l.11,1.24-1.67.15-.11-1.25c-.04-.41-.02-.41.31-.44h.07s-.03-.4-.03-.4l-1.8.16.04.39h.07c.08-.01.14-.02.2-.02.2,0,.23.03.27.41l.28,3.08c.04.41.03.44-.39.48h-.07s.03.39.03.39l1.8-.16-.04-.39h-.07c-.06.01-.11.01-.15.01-.16,0-.2-.01-.23-.4l-.13-1.42,1.67-.15.13,1.42c.02.2.02.32-.02.37-.03.04-.1.06-.29.08h-.07s.03.39.03.39l1.79-.16-.03-.39h-.07Z"/>
          <path class="cls-3" d="m36.32,4.53h.07c.22.02.34.04.39.1.05.05.05.17.03.38l-.23,3.08c-.03.38-.06.42-.3.42-.05,0-.12,0-.19,0h-.07s-.03.38-.03.38l1.95.14.03-.39h-.07c-.45-.04-.46-.07-.43-.48l.23-3.08c.03-.39.06-.41.29-.41.06,0,.12,0,.2,0h.07s.03-.39.03-.39l-1.95-.14-.03.39Z"/>
          <path class="cls-3" d="m42.08,8.43c-.18.33-.5.73-.97.73-.06,0-.12,0-.19-.02-.3-.06-.53-.27-.65-.61-.16-.4-.16-.97-.02-1.64.14-.64.49-1.7,1.32-1.7.07,0,.15,0,.23.03.57.12.59.45.57,1.18v.07s.46,0,.46,0v-.07c.01-.36.04-.75.08-1.1v-.04s-.03-.02-.03-.02c-.33-.22-.66-.37-1.02-.45-.18-.04-.36-.06-.52-.06-1.01,0-1.73.71-2,2.01-.17.79-.14,1.44.09,1.92.23.49.66.8,1.27.93.12.03.24.04.35.04.42,0,1.01-.17,1.44-.99l.03-.06-.41-.2-.03.06Z"/>
          <path class="cls-3" d="m46.39,10.56l.21-4.24v-.05s-.51-.2-.51-.2l-2.71,3.39c-.14.16-.21.2-.27.2-.04,0-.08-.01-.13-.03l-.07-.03-.14.36,1.1.44.14-.36-.07-.03c-.23-.09-.21-.13-.19-.18.02-.06.09-.15.16-.25l.4-.54,1.26.5-.05.75c0,.11-.02.18-.04.22-.01.04-.03.05-.07.05-.04,0-.11-.02-.2-.05l-.07-.03-.14.36,1.48.59.14-.36-.07-.03c-.15-.06-.2-.1-.18-.49Zm-.66-3.31l-.12,1.83-1-.39,1.11-1.44Z"/>
          <path class="cls-3" d="m49.57,8.16l.06.04c.35.22.36.24.14.6l-1.62,2.62c-.14.23-.21.3-.29.3-.07,0-.18-.06-.32-.14l-.06-.04-.2.33,2.67,1.65.05.03.87-.94-.4-.25-.04.04c-.32.32-.48.46-.61.46-.07,0-.14-.04-.25-.1l-.75-.46s-.08-.05-.08-.07c0-.04.06-.15.08-.19l1.7-2.76c.14-.23.2-.31.28-.31.07,0,.17.06.33.15l.06.04.21-.34-1.62-1-.21.34Z"/>
          <path class="cls-3" d="m54.1,16.5c0-.07.07-.16.22-.31l2.18-2.19c.15-.15.23-.22.31-.22s.17.08.33.24l.05.05.28-.28-1.38-1.38-.28.28.05.05c.32.32.31.34.01.63l-2.18,2.19c-.15.15-.24.22-.31.22-.08,0-.18-.09-.33-.24l-.05-.05-.27.28,1.39,1.38.27-.28-.05-.05c-.15-.15-.24-.25-.24-.33Z"/>
          <path class="cls-3" d="m58.45,16.14l-2.51,1.81c-.15.11-.26.17-.33.17-.07,0-.13-.06-.27-.24l-.04-.06-.31.23.84,1.16.31-.23-.04-.06c-.22-.31-.22-.34.13-.58l2.34-1.69-1.81,3.87-.02.04.38.52,3.23-2.33c.15-.11.26-.17.33-.17.06,0,.13.06.25.23l.04.06.32-.23-.84-1.17-.32.23.04.06c.11.16.17.26.16.33-.01.07-.11.16-.27.27l-2.14,1.54,1.67-3.55.02-.04-.76-1.06-.32.23.04.06c.23.32.24.33-.11.59Z"/>
          <path class="cls-3" d="m61.57,20.88l-2.8,1.31c-.15.07-.26.11-.33.11-.08,0-.14-.07-.26-.32l-.03-.06-.35.17.75,1.59c.34.73.75,1.14,1.33,1.31.15.04.32.06.49.06.4,0,.86-.12,1.34-.35.7-.33,1.16-.76,1.37-1.29.18-.5.13-.99-.18-1.64l-.8-1.7-.36.17.03.06c.18.38.17.39-.21.57Zm-2.49,2.15l3.01-1.41c.07-.03.16-.07.2-.07.02,0,.04,0,.07.08l.14.31c.35.76-.06,1.4-1.26,1.96-.46.21-.86.32-1.2.32h0c-.51,0-.87-.24-1.1-.71l-.1-.21c-.06-.12-.06-.14.22-.27Z"/>
          <path class="cls-3" d="m63.65,25.9l-2.96.89c-.14.04-.23.07-.3.07-.1,0-.16-.05-.25-.38l-.02-.07-.37.11.56,1.87.37-.11-.02-.07c-.06-.2-.09-.33-.05-.4.04-.07.14-.11.34-.17l2.96-.89c.13-.04.23-.07.3-.07.1,0,.15.05.25.38l.02.07.38-.11-.56-1.87-.38.11.02.07c.06.21.09.33.06.4-.03.06-.14.1-.34.16Z"/>
          <path class="cls-3" d="m62.95,28.99c-.8.12-1.39.38-1.76.77-.37.39-.51.9-.42,1.52.07.44.35,1.19,1.52,1.34h.07s.04-.45.04-.45h-.07c-.36-.06-.98-.24-1.07-.84-.05-.3.07-.59.34-.83.32-.29.85-.49,1.53-.6.23-.03.45-.05.66-.05.88,0,1.37.3,1.46.91.09.58-.21.71-.9.95l-.07.02.15.44.07-.02c.34-.12.71-.23,1.06-.32h.04s0-.05,0-.05c.09-.38.11-.75.06-1.11-.17-1.11-.91-1.72-2.11-1.72-.19,0-.4.02-.61.05Z"/>
          <path class="cls-3" d="m61.84,33.82c-.28-.1-.3-.16-.3-.32v-.07s-.39,0-.39,0l-.02,1.18h.39s0-.06,0-.06c0-.24.04-.24.1-.24h0c.06,0,.18.03.29.06l.64.19-.02,1.36-.72.21c-.1.03-.17.04-.22.04h0s-.1,0-.09-.25v-.07s-.39,0-.39,0l-.03,1.59h.39s0-.06,0-.06c0-.16.02-.22.4-.34l4.08-1.32v-.55s-4.12-1.33-4.12-1.33Zm2.9,1.42l-1.75.54.02-1.07,1.74.53Z"/>
          <path class="cls-3" d="m64.42,38.77l.06.02c.7.25.69.28.64.61l-.09.52-3.4-.61c-.22-.04-.32-.07-.36-.13-.04-.07-.03-.21.01-.44v-.07s-.37-.07-.37-.07l-.36,2.01.38.07v-.07c.08-.41.13-.45.27-.45.06,0,.15.01.27.03l3.4.61-.09.52c-.06.32-.06.36-.81.36h-.06l-.08.44,1.26.06.62-3.45-1.2-.38-.08.44Z"/>
          <path class="cls-3" d="m64.27,43.59c-.1.32-.15.37-.25.37-.07,0-.16-.03-.31-.07l-2.94-.96c-.2-.06-.31-.11-.34-.17-.04-.07,0-.2.06-.4l.02-.07-.37-.12-.58,1.79-.02.07.37.12.02-.07c.1-.32.16-.37.26-.37.07,0,.17.03.31.07l2.94.96c.2.06.3.11.34.17.03.07,0,.19-.07.4l-.02.07.37.12.6-1.85-.37-.12-.02.07Z"/>
          <path class="cls-3" d="m61.44,45.86c-.53-.26-1.02-.4-1.45-.4-.73,0-1.29.38-1.66,1.12-.33.66-.34,1.26-.03,1.8.25.44.69.82,1.33,1.13.52.26,1.01.39,1.44.39.74,0,1.31-.38,1.68-1.12.58-1.18.12-2.21-1.3-2.92Zm.93,1.89c.13.29.13.56,0,.85-.18.36-.46.53-.87.53h0c-.49,0-1.06-.26-1.45-.45-.66-.33-1.11-.69-1.32-1.04-.14-.27-.14-.59,0-.86.17-.35.46-.51.87-.51.38,0,.86.14,1.44.43.73.36,1.17.71,1.34,1.06Z"/>
          <path class="cls-3" d="m60.56,51.74c-.13.17-.2.25-.27.25s-.17-.07-.32-.18l-2.47-1.87c-.16-.12-.25-.2-.27-.28-.01-.07.05-.17.16-.31l.04-.06-.31-.23-.86,1.14.31.23.04-.06c.13-.18.2-.24.26-.24.07,0,.17.07.33.18l2.3,1.74-4.23-.59h-.04s-.39.51-.39.51l3.18,2.4c.34.26.33.29.11.57l-.04.06.31.24.87-1.15-.31-.24-.04.06c-.13.17-.2.25-.28.25s-.18-.07-.32-.18l-2.11-1.59,3.93.56.79-1.04-.31-.24-.04.06Z"/>
        </g>
        <g>
          <path class="cls-3" d="m37.95,32.79c1.41,0,1.52.17,1.52,1.78v10.85c0,1.58-.1,1.8-1.54,1.8v.87h5.25v-.87c-1.41,0-1.54-.22-1.54-1.8v-10.85c0-1.61.13-1.78,1.54-1.78v-.89h-5.23v.89Z"/>
          <path class="cls-3" d="m31.71,42.47c1.22,0,1.33.15,1.33,1.41v2.54c-.45.46-1.06.87-1.91.87-2.27,0-3.38-3.5-3.38-7.47,0-4.56,1.5-7.25,3.59-7.25,1.88,0,2.18,1.32,2.54,3.78l.91-.2c-.18-1.3-.34-2.54-.43-3.8-.91-.46-1.88-.78-2.91-.78-3.98,0-5.99,3.64-5.99,8.4s1.73,8.44,5.49,8.44c1.63,0,3.11-.82,4.06-1.93v-2.91c0-1.02.09-1.11,1.04-1.11v-.89h-4.33v.89Z"/>
          <path class="cls-3" d="m26.25,28.55c-.4.19-1.06.38-1.5.38-.47,0-.77-.04-.77-.59v-1.39l.41-.12v1.62h.56v-.28l.38.34c.41-.17.55-.4.59-.83.02-.24.02-.48.03-.72,0-.37.01-.73.01-1.1l-.98.3v-1.1s.1-.05.1-.09c0-.04-.04-.06-.07-.06l-.62-.06v1.49l-.41.12v-.89s.09-.05.09-.09-.05-.07-.09-.07l-.58-.05v1.27l-.53.16.07.49.47-.15v1.33c0,.87.55.97,1.28.97.5,0,1.01-.08,1.49-.22l.07-.64Zm-1.3-1.88l.4-.13v.48c0,.17,0,.33-.01.5-.02.32-.09.45-.39.57v-1.42Z"/>
          <path class="cls-3" d="m22.66,26.64h.44v-.45h-.42v-.99s.09-.05.09-.09c0-.05-.05-.07-.09-.08l-.6-.05v1.21h-.53v.45h.55v1.7c-.22.07-.44.14-.66.21l.23.52s.02.06.06.06.08-.04.09-.08c.46-.18.9-.36,1.35-.55l.04-.52c-.18.07-.36.15-.55.22v-1.55Z"/>
          <path class="cls-3" d="m28.47,28.96v.44h3.52v-.44h-1.4v-.49h1.19v-.43h-1.19v-.48h1.13v-2.54h-2.79v2.54h1.07v.48h-1.07v.43h1.07v.49h-1.53Zm2.11-3.46h.53v.63h-.53v-.63Zm0,1.05h.53v.62h-.53v-.62Zm-1.09-1.05h.52v.63h-.52v-.63Zm0,1.67v-.62h.52v.62h-.52Z"/>
          <path class="cls-3" d="m27.09,28.34l.25.54s.04.05.08.05c.05,0,.09-.05.1-.09.42-.17.86-.32,1.29-.48l.07-.54c-.16.07-.33.11-.49.18v-1.06h.4v-.44h-.4v-.99h.42v-.47h-1.59v.47h.59v.99h-.56v.44h.56v1.2c-.23.08-.48.14-.71.2Z"/>
          <path class="cls-3" d="m36.54,27.71c-.2-.32-.47-.6-.72-.89l-.45.39c.27.26.52.53.76.82l.41-.33Z"/>
          <path class="cls-3" d="m36.22,25.11s.1-.02.1-.06c0-.04-.04-.07-.07-.08l-.61-.22c-.08.55-.31,1.21-.63,1.67v-.7h-.8c.13-.2.25-.4.37-.6.04,0,.12-.04.12-.09,0-.05-.05-.07-.09-.08l-.67-.16c-.08.32-.17.63-.27.93h-.58v3.37h1.93v-2.39l.28.22c.21-.22.36-.49.5-.75h.97c0,.39,0,.77,0,1.16,0,.12,0,.23,0,.35,0,.17-.01.34-.04.51-.11.53-.47.77-1,.82l.39.44c1.14-.19,1.19-.99,1.23-1.96.01-.22,0-.44.01-.66v-1.13s-1.39,0-1.39,0c.1-.19.17-.39.25-.58Zm-1.76,3.52h-.82v-1.11h.82v1.11Zm0-1.56h-.82v-.94h.82v.94Z"/>
          <path class="cls-3" d="m42.85,25.67v-.45h-1.8v-.32s.08-.04.08-.09-.05-.06-.08-.06l-.64-.04v.5h-1.73v.45h1.73v.29h-1.33v.43h1.33v.27h-1.91v.43h1.61c-.42.5-1.2.86-1.82,1.05l.38.42c.34-.13.68-.31.99-.5v.8c-.22.05-.45.09-.67.13l.25.48s.04.06.08.06c.04,0,.07-.04.07-.08.57-.14,1.13-.28,1.7-.42l.07-.53c-.31.08-.61.18-.91.25v-1.07c.23-.18.45-.38.65-.6h1.16c-.41.23-.84.42-1.27.59.18.36.41.7.69.99.26.27.84.7,1.19.83l.46-.45c-.58-.21-1.31-.65-1.59-1.22.3-.08.61-.15.92-.23.03.02.06.02.1.02.03,0,.09-.01.09-.06,0-.01-.02-.05-.06-.09l-.37-.39h.75v-.43h-1.93v-.27h1.42v-.43h-1.42v-.29h1.81Z"/>
          <path class="cls-3" d="m47.56,27.18l-.52.38c.28.45.73,1,1.14,1.34l.48-.37c-.43-.39-.84-.83-1.1-1.35Z"/>
          <path class="cls-3" d="m45.5,27.55s-.03-.06-.05-.07l-.61-.3c-.2.54-.55,1.03-1.01,1.38l.48.34c.42-.3.81-.82,1.06-1.28.04,0,.12-.01.12-.07Z"/>
          <rect class="cls-3" x="44.53" y="25.09" width="3.37" height=".54"/>
          <path class="cls-3" d="m48.47,26.39h-4.43v.51h1.89v1.3c0,.53-.16.66-.67.75l.37.43c.54-.1.93-.3.93-.91v-1.58h1.91v-.51Z"/>
          <path class="cls-3" d="m33.61,17.36h-4.96v5.76h4.96v-5.76Zm-.89,5.09h-3.21v-1.92h3.21v1.92Zm0-2.65h-3.21v-1.71h3.21v1.71Z"/>
          <path class="cls-3" d="m38.66,23.42v-1.35h1.23v-.7h-1.24v-1.7c.52.9,1.52,2,2.41,2.54l.6-.65c-.47-.29-.92-.61-1.33-.99-.5-.47-1.1-1.2-1.39-1.83h2.32v-.7h-2.59v-.94c.05-.01.14-.06.14-.12,0-.06-.05-.09-.1-.09l-.91-.08v1.24h-2.54v.7h2.22c-.49,1.15-1.59,2.28-2.69,2.87l.59.62c.89-.49,1.98-1.63,2.45-2.54v1.68h-1.23v.7h1.23v1.35h.84Z"/>
        </g>
        <path class="cls-4" d="m35,65.89c3.77,0,7.38-.68,10.72-1.91h-21.44c3.34,1.24,6.95,1.91,10.72,1.91Z"/>
        <path class="cls-3" d="m21.11,62.6h27.78c.89-.45,1.75-.93,2.58-1.46H18.53c.83.53,1.7,1.02,2.58,1.46Z"/>
        <path class="cls-2" d="m46.75,58.86c-2.99,0-4.68-.8-6.79-3.15-2.1-2.35-3.04-5.09-3.04-5.09h-3.86s-.94,2.75-3.04,5.09c-2.1,2.34-3.8,3.15-6.79,3.15h-7.87c.43.35.87.7,1.32,1.03h36.6c.45-.33.89-.67,1.32-1.03h-7.87Z"/>
      </g>
      <path class="cls-1" d="m0,35C0,15.67,15.67,0,35,0s35,15.67,35,35-15.67,35-35,35S0,54.32,0,35Z"/>
    </g>
  </g>
</svg>