<?xml version="1.0" encoding="utf-8"?>
<!-- Generator: Adobe Illustrator 27.6.1, SVG Export Plug-In . SVG Version: 6.00 Build 0)  -->
<svg version="1.1" id="レイヤー_1" xmlns="http://www.w3.org/2000/svg" xmlns:xlink="http://www.w3.org/1999/xlink" x="0px"
	 y="0px" viewBox="0 0 1276.2 657.4" style="enable-background:new 0 0 1276.2 657.4;" xml:space="preserve">
<style type="text/css">
	.st0{opacity:0.7;fill:#3264C2;enable-background:new    ;}
</style>
<path class="st0" d="M242.2,482.2v2c-0.6-0.3-1.8-0.6-2-0.6c0,9.5-2.7,16-5.3,23.4c-2.1,5.9-3.2,14.5-10.4,14.5
	c-4.5,0-6.3-6.7-5.3-10.4c-2.2-2-1.9-6.5,1-7.8c0,0,2.4-5.6,2.4-5.8c-3-8.9-2.8-11.5,5.9-14.9c2.7-1.7,6.4-6.6,8.3-8.7
	c0.6-0.6,0.2-2.9,0.7-3.9C241.4,470.4,241,478.8,242.2,482.2z M341.1,398c1,8.4,13.3,1,1.6-10.5C342.7,391.4,341.1,394.3,341.1,398
	L341.1,398z M429,443.2c0-1.3-0.6-3.1,0.6-3.6V434c-1.3-2.9-5.3-3.1-5.1-7.4c-2,0.3-2.7-1.7-1.8-3.4c-0.4-1.1-1.1-1.3-2-1.2
	c0.9-2.2-1.6-3.2-3.6-3.9c-5.1-1.4-6.4-6.4-10.7-8.8c-2.5-0.5-2.1-4.8-5.7-5.6c0,0-3.9,0-3.9,0c-1-0.7-1.7-1.4-3.1-1.2
	c-0.3,1.7,2,5.7,3.2,6.2c1.1,0.2,2.3,0,2.7,1.2c2.5,7.3,3.9,3.6,6.2,8.2c0.8,2.8,0.7,4.7,3.5,5.2c0.2,0.4,0,1.2,0.4,1.2
	s1.8,2.6,2,3.2c1.9,6,6.5,9.6,11.1,13.8c0.1,0.1,2.3,3.5,2.8,3.5C426.7,445.1,429,444.7,429,443.2L429,443.2z M440.1,420.4
	c1.1,8.1,3.6,4.3,3.2,6.9c1.7,4.3-0.1,8.8,6.5,6.5c0.1,0.5,0,1.9,0.2,1.9c0.4,0,0.6,0.6,0.9,0.6c1.4,0,2-1.4,3-1.4
	c2,0,3.3,1.5,5.2,2.1c0.6,3.8,3.1,0.7,5.2-0.3c0-1.4,1.4-3.4,1.4-4.4c-1-1.6-0.4-4,2-4.8c0.1-2.2,1.2-4.5,2.1-7.1
	c1.5-0.8,3.4,0.9,3.8-1.6c-1.8,0.1-7.1-8.1-4.5-9.4c-0.1-0.4-0.4-0.8-0.5-1.2c0,0,3.2-1.4,3.4-1.8c-0.2,0-0.5-0.4-0.5-0.6
	c0-1.2,2.6-0.4,2.6-1.6c0-2.6-5-1-5-3.8c0.1-7.9-6.2,0.4-7.2,3.8c-1.1,1.2-4,0.2-5,2.6c-0.5,0.5-2.4,1.3-2,2.5
	c-1.7,3.6-3.5,2.1-6.1,3.9c-1.6,1.8-1.2,5.9-4.8,5.9C442.6,419.1,440.1,418.2,440.1,420.4L440.1,420.4z M481.8,421.9
	c5.8-1.8,10.9,3.7,12.2-3.8c0.4,0,0.5-0.6,0.6-1h-0.7c-1.4,1-3.1,2.2-3.8,3c-6.7-0.4-13.3-5.1-13.7,5.8c-1,2.9-6.2,10.4-0.8,10.6
	c0.4,1.7-1.3,8,1.9,7.9c1.3,0,1.8-4.5,1.8-5.2c-0.3-2.4-2.8-6.2,1.7-5.9c-1.6,4.8,1.8,4.2,1.4,7.9h1.5c0-1.4,2.6-1.3,2.6-2.7
	c-0.7-0.3-2.4-2.2-1.2-3.1c-0.7-0.4-3-5.1-3-5.5c3.3,0,3.5-2.9,6.3-3.8v-1c-0.7-0.1-7,1.9-7.1,2.3l0.2-0.5
	C479,432.2,474.5,420.1,481.8,421.9L481.8,421.9z M459,454.8c2,0.3,2.4,2,3.8-0.5c-2.7-2.4-2.9-0.3-4.7-1.4c-0.2-0.3-0.2-1.2-1-1.2
	c-2.1,0-3.7-0.3-5-1.7c0.2,0.1,4.3-0.3,4.4-0.9c-0.6-0.1-3.9,0.4-4.5,0.5c-2.2,0-3-2.3-5.3-2.3c-1.4,0-1.8,2-3.6,2
	c-4.4,0-6.6-6.2-10.9-3.4c-1.3-1.5-3.3,1.4-3.9,2.2c1.8,0,2.7,1.5,3.9,2.9c1.2,1.3,3,0,4.7,0.7c2.4,0.8,4.3,0.9,6.5,0.9
	c1.2,0,1.5,1.7,3,1.7c4.6,0,8.7,0.3,12.6,2C458.9,455.7,458.7,454.8,459,454.8L459,454.8z M483.9,456.5c1.5-0.5,2.6-0.9,3.4-2.6
	c-3.4,3.3-9-1.7-10.3,1.3C477.2,457.5,482.4,456.1,483.9,456.5z M471.1,454.4c0,0.4-0.1,0.7-0.1,1c-7-2.5-4.3,4.5,1,0.4
	c0.5,0.4,1.3,0.6,2,0.5c-0.2-0.2,0-0.9,0-2L471.1,454.4L471.1,454.4z M477.9,458h-1.2c-3.9-0.4-2.1,2.7,0.8,2.2
	c-0.2,1.7,1.5,2.5,2.1,0.8C479.7,459.5,477.9,459.9,477.9,458L477.9,458z M465.1,454.3H464c-0.5,1.9,1.5,3.4,2.1,0.9
	C465.7,454.9,465.7,454.3,465.1,454.3z M494.4,458.3c1.9,0,5.8-1,7-3c-1.6-0.8-7.5-0.4-8.1,2.2c-1.8,0.6-4,0.6-4,3.5
	c0.3,2.8,4.1-0.3,4.7-1C494.4,459.6,493.8,458.3,494.4,458.3z M527.1,445.3c0-0.9-0.2-0.4-0.5-1.4c-0.8,0.1-0.7,1.3-0.7,2.2
	c0,0.8-1.2,0.9-1.2,2.2c0.7,2.4,1.8,0.2,1.4-1.7C526.7,446.6,527.1,446.1,527.1,445.3z M497.8,435.5c0.5,2.3,2.6,3.5,3.3,0.8
	C501.1,434.9,497.8,433.9,497.8,435.5L497.8,435.5z M504,435.5c0.8,0.5,3.8,0.6,4.9,0.5c1.7-0.1,3.3,2.1,4.9,1.1
	c0-1-1.3-1.3-1.4-2.3c-0.7,0.2-1.9,0.6-2.1-0.4h-5.3C504.6,434.6,504,434.8,504,435.5L504,435.5z M503.5,414.8
	c-2.3,1.5-0.4,4.4-0.1,6.2c0.1,1.3-0.4,3.9,1.5,4.2c-0.6-0.9-0.8-1.4-1.3-2.2v-0.9c0.9,0,2.2-0.1,2.7-0.3c-0.1-1-1-1.3-1-2
	c0-0.8,1.2-0.9,1.2-1.7C504.6,417.7,503.7,416.6,503.5,414.8L503.5,414.8z M574,443.9c0.4,1.7,2.5,1.3,3.4,2.6l-0.2-0.2
	c2.6,2.2,5-0.5,7.5-1c0-2.4,2.5-1.8,2.5-4.6c0-0.8-0.4-1.9-1.1-1.9c-1.7,0-1,2.9-2.6,3.8c-1.4,0.4-4,0.8-5.9,1.5
	C577.6,443.9,574,443.9,574,443.9L574,443.9z M568.1,445.1c-2.8-1.6-2.7-5.1-6.5-6.4c-0.6-0.1-1.5-0.3-1.5-1.3
	c-1.4,0-2.1-1.8-3.5-1.8c-2.6,0-6.3-1.3-8.1-2.7v-0.1c-0.2,0-0.4-0.2-0.6-0.4l0.3,0.3c-0.6-0.2-1.5-0.5-2-1.1h-3.2
	c-0.7-0.4-1.6-2-3.1-2.5c-0.3-0.1-1.3,0-1.4-0.7c-1.4,0.3-2.8,2.6-3.9,3c-1.7,0.5-1.9,0.7-2.8,1.7c-1.7,3.1-3.1,2.5-4.5-0.4
	c-3,0.4-1.4-4.4-1.8-5.8c-6-2.7-4.5-3.9-10.1-0.4c-0.7,0-1.7,0.4-1.7,1.1c0,1.8,2.8,1,3.7,2.9c1,2.8,4.5,1,6.6,1
	c-0.8,1.5-4.4,1.3-6,2.2c0.2,1,1.5,0.5,2.1,1.5c0.6,1,0,1.6,0.6,2.9c1.3,1.2,2.6-0.4,3-1.9v1.2c1.9-0.6,2.6,2.7,4.4,2.7
	c1.9,0,5.1,0.6,6.4,1.3c7.3,3.1,3.6,4.2,6.5,9.2c-4.8,2.1-3.6,4.2,1.4,3.6c3.2-3.2,5.5,3.4,8.7,3.3c0,0,4.5,0,4.5,0
	c0-0.9,1.1-1.4,0.6-3.1c5.5-7.5,9.6-0.3,14,4c0.3,2.5,5.2,3.6,7.6,3.2c0.6,0.6,2.1,1.8,3,1.6c0-0.9,0.8-1.6,1.5-2.1
	c-3.1,0.1-1.7-0.7-3.5-2.1c-1.9,0.5-1.3-1.2-2.4-1.7c-3.2,0-3-3.3-4.5-5.1c-0.2-0.2-2.3-2.4-2.3-3.1c0-1.2,2.3-0.6,2.3-2.1
	C571.8,444.3,569.3,445.7,568.1,445.1L568.1,445.1z M587.9,436.6c-1.3-1.4-2.4-3-4.6-3.8c0.3,1,1.2,0.9,2.1,1.6
	c1.5,1,1.3,2.5,2.8,3.2c-0.2,1.3-0.2,2.2,1.2,2.5c0.2,0.2,0.5,0,0.7,0C590.4,438,589.3,437.7,587.9,436.6L587.9,436.6z M595.6,443.5
	c-0.2,1.3,0.2,2.6,1.7,2.9c-0.3,1.5,0.9,3,1.5,0.9C598.8,446.9,596.3,444,595.6,443.5L595.6,443.5z M618.5,460.9
	c-0.1,0.8,0.7,2.7,1.9,2.7C620.6,462.2,619.9,461.7,618.5,460.9L618.5,460.9z M613.3,458.8c0,1.6,2.5,2.5,3.9,1.8
	C616.3,459.3,615.2,458.8,613.3,458.8L613.3,458.8z M613.9,453.8c0.1,1,2.2,4.1,3.4,4.1C616.7,456,615.5,454.8,613.9,453.8z
	 M606.9,451h-0.2c0.2,1.7,3.4,3,4.6,2.2c-0.7-1.2-3.1-2-4.2-2.6L606.9,451L606.9,451z M601.3,447.4l0.6,0.4c0,0.1-0.5,0.1-0.6,0.1
	l1.8,1.3h1.1C603.4,448.1,602.6,448.5,601.3,447.4L601.3,447.4z M567,584.4c-0.1,0-6.5-2.1-6.5,0c0,2.7,3.9,12.3,7.5,12.3
	c3.7-1,7.2-9.7,4.3-13.6C570.6,583.6,568.6,584.4,567,584.4L567,584.4z M1.2,581.8c0.1-0.6,0.4-0.9,0.4-2.2c-0.4,0.1-1,0.1-1.5,0
	C0,580.6,0.1,581.4,1.2,581.8z M533.3,562.7c1.1,1.2,2.8,0.9,4.2,0C535.8,561.8,535.5,561.5,533.3,562.7z M514.7,467.5h1.2v-1.9
	c-1.8-0.1-2.6,0.1-4.7,0.6C511.6,466.8,513.2,467.5,514.7,467.5z M587.9,518c-2.2-2.5-6.8-4.7-6.8-9.9c-5.2,0.9-3.6-4.8-6-7.5
	c-8.5-5.3-7.9-5.3-11-14.9c-1-5-0.3-7.6-5.9-8.7c-1.3-1.1-0.7-3.4-1.2-5.2c-0.7-2.5-2.3-4.8-2.6-8.3c-2,1.2-1.4,2.9-3.3,4.4
	c0.1,5.7,0.9,31.3-9.5,18.8c-3-1.3-4.7-2-8-3.2c-0.5-0.1-0.5-2.1-1.2-2.6c-0.7-0.5-2.4-0.3-2.4-1.3l1.4-6.5c3.2-1.2,3.8-3.7,0.3-5
	c-5,2.5-9.2-0.3-14-2.6c0.2,1.4,1.4,1.8,2.1,3c-1.9,1.5-8.5,1-8.9,3.9c0,1.8-1.8,2.7-1.8,4.5c0,1.2,0.4,2.1-0.4,3.2
	c-1.1-1.3-3.4-1.3-4.4,0.4c-0.2-2.3-1.4-4.9-3.6-4.9c-2.5,0-3.1,2.6-6.3,2.6c-0.2,3-2.6,3.5-2.6,7.1c-1,0-1.5-0.5-2.5-1
	c-0.6,1.4,0,3.4-1.3,4.3c-0.5-0.9-1.2-1.4-1.8-2.6c-1.9,1-1.5,3.6-1.5,5.5c0,4.4-9.7,8-14,8.8c-2.2,0.4-6.5,0.6-7.9,2.2
	c-1.3,1.4-4,4.7-6.3,4.9c0-0.4,0-0.9-0.1-1.3c-2.3,0.2-1,7.7-1.3,9.1c0.1,4,2,5.5,1.4,8.4c-0.4-0.4-0.8-1-1.1-1.7
	c-2,2.9,0.4,3.7,1.7,6.2c1.5,5.1,1.9,6.9,3.3,12.6c2.7,7.1,3.7,7.1-0.3,14c0,1.8,5.7,4.5,7.7,4.5c5.3,0,7.1-4.3,11.3-4.3
	c1.4,0,1.4-1,3.3,0c2.6,0,4.6-0.7,7.1-0.9c0.9-6.6,8.4-4.3,14.5-6.5c2.6-0.9,3.4-3,7.7-3c3.9,0,10.9,1.3,12.8,3.9
	c0.9,1.4,3.6,7.8,4.4,7.8c0.2,7.4,6.7-4.6,8.5-6.8c0.1,2-0.5,8.7-3.5,9.4c0,0.7,0.6,1.3,1.2,1.3c1.8,0,1.9-2.3,3-2.8
	c0-0.4,0.2-0.9,0.2-1.3c1.5,0.8,1.4,4.2,0.3,5.4c1.3,0.1,2.7-0.2,3.8-0.9c2.3,8.8,3.4,13.6,14,14.5c3,0,2-2.6,4.7-2.9
	c0.1,0.8,5,3.8,5.9,3.9c1-6.2,10.7-3.5,12-9.5v0.2c1.1-8.7,4.3-14.3,8.9-20.8c0.8-1.6,0.9-4.4,0.8-6.2c3.2-5,1.6-16.8-1.3-21.7
	L587.9,518L587.9,518z M658.6,585.1c-1.2,1-2.9,2.2-2.6-0.7c-0.4,0-0.8-0.4-0.8-1.3c-1.4,0.6-3,3-3,5.1c-1.4-0.1-2.5,1.5-2.3,2.7
	c-1.3,2.4-5.7,7.1-8.9,7.4c-0.8,0-1.4,0.8-1.9,1.7c-0.8,1.7-6.4,5-4.1,7.7c1.1,1.6,6.1,2.8,7.9,3.2c4.7-0.8,6.4-7.3,8.2-12.2
	c0.9,0,3.8-0.7,4.4-0.7c0.2-1.6-0.3-2.1,0-4c1.9,0,4.3-4.8,4.6-6.5c-0.5-0.3-0.7-0.9-0.7-2C659.1,585.6,658.7,585.4,658.6,585.1
	L658.6,585.1z M673.8,569.9c-4.1,1.7-8.2,2.4-8.4-4c-0.9-0.1-1.8,0.1-1.8,1.3h-0.7c-0.8-1.2-2.8-3.9-1.5-5.1
	c-0.7-0.4-0.7-1.3-1.4-2.1c-1.2-1.3-3.2-1.4-4.5-3.6c0.7,3.1,2.4,7.4,5.1,7.9c-0.9,1.6,0.2,2.4,1,3.8V568c0.8,2.4,0.7,5.8-1,7.6
	c-0.6,0.7-1.7,0.8-1.7,2.1c0,2.3,4.4,1.3,4.4,3.9c0,1.6-1.4,2.2-1.4,3.8c1.3,4.4,5.3-0.3,6.2-2.9c0.2-0.4,1.7-1.7,1.7-2.6
	c-1.3-2.7,0.6-2.1,2.2-3.4l0.5,0.7c1.2-2,0.7-4.7,2.4-6.5C674.5,570.3,674.1,569.9,673.8,569.9L673.8,569.9z M674.1,490.9v-1.5
	c-0.6-0.1-1.1-0.5-1.4-1.2c-2.4,0.4-4.4,3.4-0.2,3.3C673.4,491.4,673.4,491.7,674.1,490.9L674.1,490.9z M674.7,486.1
	c0.5,2.7,2.1,0,3.7-0.5v-1.2C677.7,484.4,674.7,484.5,674.7,486.1L674.7,486.1z M495.8,386.8c0.1,4.9-1.8,1.7-2.7,4.5
	c-0.6,0.1-1,0.7-1,1.5c-1.5,0.4-0.9-1.7-2.6-1.9c-1.9,0-1.5,2.5-3.7,2.4c-0.4,1.5-1.1,2.7-0.3,4c0,0.5-0.9,2.6-0.1,2.6
	c1.2,0,1-3.7,2.1-4.8c0,0,0.8,0.9,1.1,1c0.1-0.1,0.3-0.6,0.3-0.6c0.2,0.2,0.4,0.6,1.1,0.6c-0.1-0.3,0-0.7,0-1l1.5,0
	c0.1,0.3,0.3,0.8,0.4,1.1c-1.8,2.1,0.9,6.4,3.3,5.3c0.1,1.7,1.9,0.7,1.7-0.7c-0.4-2.1-2.4-2.1-0.2-4c0.2,0.3,0.5,0.6,0.6,0.9
	l-0.1-0.3c0.2,0.6,1,2.6,1.3,2.7c0-1.9,1.3-2.6,1.4-3.8C499.6,394.6,498.7,387,495.8,386.8L495.8,386.8z M470.5,391.3l0.8,0
	c1.3-0.9,3.4-2.3,3.9-4.9c0.9,0,1.6-0.2,1.9-1.2c0.5,0,0.7-0.3,1.1-0.7c-0.4-0.5-1-0.7-0.9-1.8C476.3,386.3,472,387.4,470.5,391.3
	L470.5,391.3z M476.5,367.4c0.3,1,2.6,3.1,3.1,1.3h0.6l0,1.1c-1.2,0.7-0.5,2.7,0.9,2.9c0.6,0,1.1-0.7,1.7-0.6c1.5,0,1.6,2.5,3.1,2.5
	c-0.3-0.9-0.6-1.4-0.1-2.1c0.6,1,3.2,2.1,3.8,3.5c0.4,1.8,1.2,0.4,1-0.7c-0.7,0-1.4-0.5-1.4-1.4c-1.4,0.5-0.3-0.7-0.1-1.4
	c-1-0.6-0.9,0.3-1.6,0.5c-0.7,0-0.9-2.6-2.2-2.6c-1,0-1.3,0.7-1.2,1.4c-1.2-0.6-2.6-3.4-2.6-5.1c0-2.4,2-2.5,2-5
	c-0.3-2.5-1.3-4.4-1.7-6.5c-0.4,0.2-0.8,1.1-1.4,1.1c-1,0-0.7-2-1.9-2.1c-2.7,1.3,0.7,6.8-1.3,9.2
	C476.2,363.3,476.6,365.7,476.5,367.4L476.5,367.4z M494.6,377.6c-1.2-0.1-2.2-1-3.4-0.1c0.6,1,5.1,4.3,0.6,4
	c-0.1,0.8,0.5,2,1.6,2.2l0,0.7c-0.8,1.3,0.4,1.8,1.5,1.6v-0.7c-0.4-0.2-0.8-1.4-0.9-2.3l1.6,0c0.1-0.5,0.3-0.8,0.5-1.5
	c-0.1,0-0.8-1-0.8-1s0.1-1.1,0-1.8c-0.2,0-0.4,0-0.6,0C494.8,378.4,494.6,378,494.6,377.6z M485.4,379.8c-2.2-1.5-0.5,3.5-0.8,5.3
	C487.1,383.8,490.4,381.2,485.4,379.8z M488.6,383.1c-0.5,0.1-1.1,2.9-1.1,3.2c-2.7,0,1.5,5.1,2,3.1c0-0.7-0.5-0.5-0.5-1.5
	C489.1,386.5,491.9,383.1,488.6,383.1L488.6,383.1z M489.6,387.6h0.5c0-1.7,1.5-2.2,1.5-4.3c-0.3,0-0.7,0-1,0
	C490.6,385.3,490,386.2,489.6,387.6L489.6,387.6z M493,386.2c-0.3,0.5-0.9,0.2-1.4,0C488.9,388.8,493,389.3,493,386.2L493,386.2z
	 M490.7,379.9c0-1.5-1.4-1.8-1.7-2.9l-1,0c0,0.5,0,0.9,0,1.7c0.5,0,1-0.1,1.5,0C489.5,379.3,490.7,380.5,490.7,379.9z M482.1,377.8
	c0.4,0,1-1.3,0.8-2.3c-0.3-1.4-1.5-1.2-2.8-2.1H479C479,373.5,481.5,377.8,482.1,377.8L482.1,377.8z M483.2,374.2
	c0.2,0.2,0.9,0.1,1.1,0C484.1,374,483.5,374.1,483.2,374.2z M481.7,327.3c-2.3,0-7,10.8-2.4,11.4C482,338.7,484.7,327.2,481.7,327.3
	L481.7,327.3z M446.7,349.3c-0.6-4.8-6.3,1.3-7.9,1.3C437.6,358.7,445.8,354.4,446.7,349.3L446.7,349.3z M429.9,431.7
	c0.4,1.7,1.5,2.7,3.2,2.6c-0.1-0.4-0.1-0.9-0.1-1.3c-1.7,0-2.4-2.5-3-4.4c-0.8,0.1-2.5,1-2.5,1.7
	C427.5,431.3,429.4,430.6,429.9,431.7L429.9,431.7z M437,435c0.7,0,1.2-0.8,1.3-1.6c-0.6-0.6-1.4-0.8-2.3-0.6
	C435.9,433.5,436.1,435,437,435z M406.9,427.1h-1c-0.3,1.1,1.4,3.4,2.1,3.6c0.1-1.3-0.5-2-1.2-3
	C406.9,427.8,406.9,427.1,406.9,427.1z M402.2,419.2l-0.6,0.2h0.1C403.3,423.5,405.9,422.7,402.2,419.2z M509.9,295.7
	c0.3,1.8,1.3,1.4,2.6,0.9c-0.2-0.4,0-0.8,0-1.2c0.1,0.6,0.2,1.4,1,1.7c-0.1,1.2-1.1,2.7-1.7,3.9c0,0.5,0.7,2.1,1.7,2.1v-0.8
	c0.6,3.9,3.4-3,3.3-5.2c0.3,0.2,0.7,0,1.1,0c-0.2-0.4,0-0.9,0-1.3l-1.1-1c-0.4,0-0.1-0.9-0.1-1.3c-1.4,0-2.1-1-3.1-1
	C513.2,292.4,509.9,294.9,509.9,295.7L509.9,295.7z M520.8,296.7c1.5,0,1.8-2.1,2.8-3.2c2.6,3.2,4.9-3.3,1.8-3.6c-1.7,0-2,2.2-4,1.5
	c0,0.1-2.2,2-2.2,2c0,0.6,0.2,0.9,0.9,1.4C520,295.4,520.2,296.7,520.8,296.7L520.8,296.7z M533.6,280.9c-1.1,0-1.8,4-3.8,4h-7.3
	c-3.4,0.1-5.1,4.7-8.2,6c3,2,7.4-1.8,10.4-1.7c1.1-2.1,3-0.4,4.8,0.1c0.1,0.6-0.8,2.7-0.4,3.3c0.8,0,0.7,1,1.7,1.3
	c1-2.1,2.2-3.6,4-3.5c-0.4-0.3-2-2.7-0.5-3.1c1.6,1,2.9,4.1,5.8,0.6h1.2c0,0.3,0.4,0.6,0.6,0.6c0.5-1.8,1.5-2,3.2-3.1
	c-0.1,0.9-0.6,1-0.1,2.1c1.4-0.5,1.4-1.8,2.8-2.6c-1.4-2.2,0.1-4.3,0.7-6.1c0-2.2-0.7-6.1,1.9-6.1c-0.4-2.1,1.6-2.5,1.7-4.8
	c0-1.8-1.7-2.7-1.7-4.5c0.7-4.7-3.6-3.3-1.1-1.9c-1.4,1.3-1.3-0.4-1.5-0.4c-2.1,0.4-3.3,4.4-2.3,6.4c0.9,6.8-13.2,16.7-10,10.3
	C535.3,277.8,533.7,280.9,533.6,280.9L533.6,280.9z M547,251.9c-0.6,1.3-3.2,2.6-1.5,4.5c0,0,0,3,0,3h0.7c1-1,1.9-0.5,2.8-1.9
	c-0.5-0.5-2.2-0.5-2.2-1.8c0-2.2,2-0.9,3.5-0.9c0-0.4,0.5-0.9,0.8-1c2,1.4,3.2,1.7,5.1,3c2.4-6,3.9-3.3,8-5.7
	c-1.5-0.5-1.8-2-0.7-3.2c-6.2,1.3-7.7-2.7-11.7-6.2c-0.9,1-0.8,1.8-0.1,3c-0.1,2.3-0.9,7.7-4.1,6.8l0.2,0.3
	c-0.4-0.3-0.6-0.4-0.8-0.6L547,251.9L547,251.9z M564.1,248c-1,3,2.7-0.7,3-1.6l-0.4-0.3C565.7,246.3,564.5,247.3,564.1,248
	L564.1,248z M566.5,246l0.2,0.2c0.1,0,0.1-0.1,0.2-0.1L566.5,246z M573.1,241.3c-1.7,0.3-2.8,2.9-2.6,3.5c1.7,0,1.7-2.6,4.4-2.6
	v-0.9C574.4,241.4,573.8,241.3,573.1,241.3L573.1,241.3z M578.7,240.1c0.9,0,1.9-1.8,2-2.6c-0.2,0-1.7,0-1.9,0.8
	c-0.1,0.4,0.2,1-0.1,1C578.5,239.4,578.5,240.1,578.7,240.1L578.7,240.1z M556.1,203.9c-0.5-1.7-1.4-3.4-1.4-6h-0.8
	c0.1,1.3,0,3.2-0.5,4.4c-1.8,0.4-2.5,3.9-2.5,6.6c0,1.9,1.8,2.7,1.8,4.7c0.1,3.1,0,8.6-0.6,11.7c1.5,3.8-0.3,9.2,0.2,13.3
	c1.9-0.4,1.2-3.5,4-2.9c0.2,0.7,0.9,1.7,1.5,1.2c-6.5-6.4-2.7-18.7,2.6-12.5c-0.9-4.3-3.7-7.9-4-12.5
	C556.5,209.3,556.2,206.5,556.1,203.9L556.1,203.9z M247.9,99.1c9.2-1.3,1.2,6.3,8.3,4.6c0.4,0,0.6,0.8,0.8,0.9h9.3
	c-2.3-3.2-7-4-6.9-9.1c0-8.3,8.2-17,14.2-18.8c2.1-0.7,2.7-3.5,5.7-3.5c1.4,0,1.9-2.6,2.6-3c4.1-2.1,23.2-4.5,23.1-10
	c-6.8-10.7-17.6,9.3-26.1,2.6c-2.3,0-2.3,1.6-3.8,1.6c-4.4,0-7.7,6.2-10.7,6.2c-1.5,0.4-6,0.5-5.9,2.2c3.5,4.7-4.9,7.4-5.3,10.1
	c0,1,1.7,1.3,1.8,2.9c-3.1,0.7-6.5,1.9-5.7,5.6C249,94,242.2,95.4,247.9,99.1L247.9,99.1z M265.8,103.8c0.1,0.2,0.3,0.4,0.5,0.5
	C266.3,104.3,265.8,103.8,265.8,103.8z M714.1,133.2c-11,2.1-5.8,7.1-11.3,10c-3.8,1.5-20.8-20.4-20.8-6.5c-1.4,3.1-8.3,2.2-8.3,7.8
	c0,2.1,14,9.4-3.6,9.7c-9.2,0.2-16.7,14.9-27.3,14.9c-3.6,0-12.3-12.1-21.9,10.4c-1.2,2.7,0,4.3,0,5.8c0,2.3-4.1,3.5-4.1,7.8
	c0,2.7-5.3,3.5-4.8,7.1c-4.9,1.3-6.5,8.4-8.9,12.3c-3.3-2.9-4.8-18.6-4.8-23.4c0-5.6,4.2-8.6,7.1-10.4c3.5-2.2,5.8-7.1,8.3-11.1
	c2.1-3.4,5-2.2,8.3-4.5c9.3-6.6,3.1-9.4,1.8-9.1c-12.9,17.5-12.1,6.2-10.1,4.5c-11.3-1.3-18.5,1.4-20.8,13.6c0,0-6.5,0-6.5,0
	c-3,0-5.2-2.6-10.1-2.6c-3.9,0-18,1.3-22.5,2.6c-5.1,1.6-10,8.3-13.6,12.3c-2.5,2.7-8.9,6.8-8.9,10.4c0,0.8,3.6,9.7,10.7,3.9
	c2.4-1.9,7.5,4.9,7.5,8.4c0,2.9-1.4,5.8-2.1,7.1c-1.8,3.6-0.5,6-1.3,9.8c-0.7,3.4-3.3,7.6-5.2,9.7c-7.9,9.8-11.8,25.8-26.2,19.5l0,0
	c-2.8,2.5-3.8,4.5-5.3,8.1c-1.7,1.8-4.3,4.9-7,5.2c0.7,6.1,7.1,7.4,6.4,15.5c0.2,6.8-3.8,3.7-6.1,6.5c-1.4,0.4-1.6,0.4-2.4,1.2h-1.8
	c0-0.7,0.6-1,0.7-1.7c-1.6-0.7,0.4-3.6,0.5-4.3c0-0.8-0.6-1.4-0.6-2.2c-0.7-0.1-0.9-0.6-1.2-0.9v-1.3c4.7-1-0.3-6-3-3.6
	c-0.8,0-1.2-1.6-1.2-2.2c0-1.6,1.3-1.4,1.3-2.7c0-1.5-0.6-1.5,0-2.9c-6.7-3.6-8,1.7-13.6,2.5c0.3-3.1,4.8-5.8,0-7.8
	c-1.2,0-1.6,1.3-1.9,1.7c-1,1.7-3.7,3.6-5.1,4.8c-1.7,1.3-5.1,0.4-5.1,3.1c0,1.3,2,1.8,2.5,2.2c1.9,2.3,1.7,4.6,5.5,3.8
	c0.7,0,0.7-2.9,1.6-2.9c1.3,0,1.8,1,2.6,1.5c1.7,1.2,3.4-0.3,4.4,1.2c-2.4,2.6-7.5,2.6-8.5,6.1c-0.5,1.5-2.5,1.7-2.5,3.2
	c0,1.8,2.2,3.1,3.2,3.2c0,0.4,0.1,2.5,0.1,2.5h0.2l-0.1,0.1c5.1,8.2,5.9,12.4,3,22c-5.6,2.3-6.4,14.4-10.4,14.4
	c-0.2,1.3-0.8,1.8-1.8,2.3c-12.1,11.9-11.7,0.3-14.5,7.1c-2.4,1.9-7.3,1.8-10.1,4c-1,1-0.3,2.7-1.6,2.7c-1.1,0-0.7-2.6-0.6-3.2
	c-2.2-1.2-3.7-0.4-5.7-1.4c-2.4,4-8.2,5-8.2,10.5c0,1.2,0.6,1.4,1.1,1.9c2.7,3,3.9,6.4,6.9,8.5c4.9,3.6,5.5,13.1,3.3,18.6
	c-3.8,1-4.1,2.5-7.2,4.1c-1.2,0.7-2.7,5.1-3,1.7c0.6,1.9-1.7,4.4-2.8,4.7c-0.8-0.2-1.5-4-0.5-4.4c-0.5-0.3-0.7-1.3-0.8-2
	c-1.8,0-4.1-0.6-4.1-2.6c-3.5-0.2,0-4.6-8-6.1c-0.8-2-0.9-3.5-3.7-3.4c-1.7,0.4-0.1,2.8-0.2,3.9c0,3.9-3.4,4.9-3.4,8.4
	c0,4,4,2.5,4,6.2h-0.2c0.4,8.3,14.4,7.4,11.1,17.4c0,2.3,1.8,3.1,2.3,4.7c0.5,1.7,0.5,2.3,1.1,3.8c-1.4,0.2-1.5,0-2.4,0.6
	c-4.5-1.9-8.7-5.2-10.3-10.6c-1.5-4.6-2.5-13.9-6.2-16c-1.2,0-0.5,0.8-1.5,0c-0.1-1.8,0.2-3.8,0.6-5.7h0.6c-0.9-0.5,0-3.5,0-4.9
	c0-5.7-3.1-9.1-3.1-13.3c-1.7,0.1,1.4-6.7-2.3-6.5c-0.7-0.8-0.3-1.3-1-2.1c-2,2.2-2.9,6-6.2,6c-1.8,0-1.9-1.6-1.9-3.2
	c0.1-2.3,1.2-3.6-0.1-5.6c-1.2-4.9-4.6-7.5-7.4-11c-1.3-3.4-0.6-7.8-5.4-8.2c0.2,4.8-6.7,6-9.2,3.4c-0.8,2-3.3,2.1-3.7,3.2
	c-0.5,1.8-0.4,3.3-1.4,4.4c-2.1,2.3-5.6,3-7.5,5.1c-3.3,3.3-6.2,8-9.8,10.5c-6.3,1.2-4.4,5-3.8,9.6c-0.3,4.5-2.2,7.2-0.8,11.2
	l-0.6,0.1c0,0.4-0.8,0.4-1.2,0.5c-1.7,0.5-1.3,3.9-2.3,4.4c-1.4,0.8-1.6,0.3-2.2,1.6c-0.4,2.4-2.3,3.9-3.3,1.3
	c-2.3-2.5-2.8-6.9-4.1-9.8c-0.5-1.8-2.1-3.1-2.6-4.2c-0.9-2.1-0.4-3.8-1.3-5.3c-2.2-7-6.6-14.9-7.2-22.6l0.1,0.1
	c0-1.7,0.6-2.1,0.6-3.7c-0.1-2.9-2-4.6-0.5-7.1H316c-3.8,9.4-6.9,6.9-11.6,0.1c2.2-1,3.3,0.5,4.5-2.5c-14.6-0.2-6.8-14.4-19.4-9.1
	c0,0-3.1-0.9-3.1-0.9c-0.5,0.3-0.8,0.7-1,0.9l-4.1,0.3c-3.7-0.4-11.3-1.4-15.4-2.7c-1.4-2.7-2.8-8.2-6.1-3.2
	c-4.7,0.1-7.1,0.7-10-3.6c-1.4-1.6-3.3-0.8-4.6-2.2c-1-3.8-3.5-9-7.8-9.2c-6,2.9,0.2,15,4.6,16.5c0,1.4,0.7,1.8,0.8,3
	c1.4-0.4,1.2-2.1,2.4-2.3c0.4,4.5-3.1,7.8,4.2,8.3c7.9,0,8.5-5.3,12.8-8.8c-0.8,6,1.8,9,7.4,10.4c1.3,0.4,1.4,2.6,2.2,3.1v-0.1
	c5.6,3.3-1.1,5-1.2,9.2c-4.8-0.6-2.7,5.1-5.2,5.8c-1.8,0-1.7,3.8-3.4,3.8c-1.1,0-3.3,2.2-3.3,3.8c-3.4,0.8-12.4,2.2-10,6.1
	c-2.7,1.4-6.4,2.3-9.2,3.1c-3.6,1.4-6.7,5.8-11.4,4.8c-2,1.6-2.3,2.6-4.8,2.6l-0.7,0.5c-0.4,0-3.4-1.6-3.7-1.8
	c0.3-2.1-2.7-5.3-2.2-8.1c-1.3-0.1-0.4-2.6-0.1-3.7c0.8-4.8-7.4-7.9-7.4-14.6c-7-1.4-3.8-9.5-7.2-14.7c-2.9-4-4.3,0.2-4.6-5.8
	c-2.1-4.6-5.2-8.6-7.6-12.7c0-0.9,0.4-2.5,0.6-4.1c-0.5,1.9-1.8,5.2-2.2,6.5c-2.5-0.4-4.5-6.2-6.5-8.5c-1.9-0.1,11.2,23.4,11.3,24
	c-0.6,2.7,3,8.5,4.7,10c-0.2,8.4-0.4,7.5,5.3,13c3.1,7.4,0.3,8.3,8.3,12.7c1.9,1.6,2.9,7,6.8,7c0,2.2,1.1,2.5-0.1,4.1
	c3.3,3.7,3.8,8,8.6,3.2c6.2,0.4,12-2.1,17.8-3.9c3.6,9.3-11.4,30.7-17,37c-7.8,6.8-16.2,8.8-19.2,20.4c-5.7,8.6-3.7,7.8-3,17.5
	c0,4.4,4.4,6.6,4.4,9.1c0,0.8-0.7,1.7-0.8,2c0.1,4.1-0.3,6.3-0.4,11.4c5.5,11.4-15,11.5-16,20.1c-9.3,4.3,3.5,7.9-1.2,20.1
	c-0.7,1-2.7,0.5-3.5,0.9c-2.8,1.6-4.5,2.9-5.9,6.1c4.7,2.8-1.2,9.1-3,10.8c-2.6,2.8-2.9,5.9-4.7,8.4c-3,4.2-4.3,7.8-9.1,10.4
	c-2,1-5,0-5.4,2.3c-1.5,0.1-2.5,0.9-3.6,0.9c-6.5-5.1-14.9,7.8-19.6,0c-0.7,0.1-0.9,0.5-1.2,0.7c0-2.6-1.2-5.5-2.1-6.5
	c6.7-5.2-14.4-20-12.1-41.2c-3.5-7.8-9.4-13.5-9.2-23.8c0-9.1,7.5-11.3,7.5-18.2c-1.6-9.6-4.1-17.7-6.5-26
	c-4.2-5.2-14.6-13.3-7.1-20.1c-0.1-2.6-0.3-6.4,1.2-8.4c-1.7-5.2-7.4-5.9-12.5-5.5c-3.6,0-4.4-7.5-9.3-7.5
	c-7.7,0.3-13.1,4.2-18.9,6.9c-9.3-3.8-9.7-0.7-18.4,0.6c-5.4-0.9-12.7-7.9-16.2-12.3c-2.2-3.8-3-6.9-5.9-9.5
	c-0.8-0.7-7.1-6.8-7.1-7.3c-0.6-0.8-1-1-1.5-1.8h0.4c-0.4-3.8-0.4-5.4-2.4-8.4c7.9-6.5,3.6-18.1,2.6-26.2c0-2.6,2.7-4.2,3.3-6.3
	c9.2-26.4,11.9-12.6,20.2-25.6c0.5-12.6,5.5-13.4,12.1-22.5h-0.2c1-1.3,1.2-2.5,2.4-3.5c3.7,3.1,10.9,5,14.5,0.9
	c4.6-2.5,13.4-6.1,18.7-6.1c6.4,2.1,3.4,1.1,9.1-0.7c6.2,1.9,3.5,0.3,8.3-1c2.9,0.4,1.8,3.9,5.3,1.6c-0.1,2-1.8,1.7-1.8,3.4
	c0,1.2,1.5,1.7,1.5,2.9c0,1.9-1.5,3-1.5,4.9c0,3.2,3.1,6.1,5.3,6.1c10.1-2.1,12.6,9.9,22.5,10.4c6.1-2-2.6-7.7,8.9-10l0.4,0.2h2.6
	c0,1.8,1.3,2.2,1.8,3c1.1,1.6,3.8,0.5,5.7,1.3c3.8,1.6,9.1,3.5,13.3,3.5c3.8,0,5-1.9,8.6-1.9c3.3,0.5,6,2.9,9.5,0.6
	c0.1,0.3,0.3,0.6,0.4,0.9c-0.7-1.8-1-1.8,0.3-3.1c0.8-2.9,1.2-4.3,1.9-6.9c0.7-2.6,3.1-3.2,3.1-6.2c0.3-2.7-1.7-5.3,0.2-6.9v-1.3
	c-1.4,1.3-3.5,1.6-4.6,0.1c-1.9,1.5-2.5,3.2-5.9,3.2c-2.5,0-3.4-3.2-5.9-3.2s-2,3-4.1,3c-2.2,0-3.4-3.5-5.7-2.3h-1.3
	c0.4-0.1,0.8-0.5,0.9-0.8c-0.7-0.8-4.1-2.7-3-4c-1.1-1.7-2.4-1.6-4-2.5c2.4-1.8,2.5-1.8,2.5-5.1c-0.8,0-2,0.1-2-0.7
	c0-4,8.5-3.2,10.7-4.4c-2-2.6-0.2-2.4,1.9-2.2c0,0,3.7,0,3.7,0c4.1-1.3,6.4-4.5,11.7-3.8c3.2,0,3.1,2,5.8,2
	c1.7,3.4,9.5,2.4,12.7,2.6c2.4,0,3.8-2,6-3c-0.1,0.1-0.5,0.1-0.6,0.1c0-10.2-13.6-9-16.6-16.6c6.9-1.9,3.8-5.4,3.6-6.2
	c0.6-0.3,2.1-2.2,2.1-2.2c-6.1,2.5-19.1,7-6.5,8.3c-12.2,9.4-9.3-0.7-17.5-5.7c-2.6,0-2.9,3.4-5.5,4.2c0.1,0.7,0,1.3,0.1,1.9
	c-1.2,0.3-2.4,0.9-2.4,2.2c-0.4,2.1-0.4,1.1-0.8,1.8v3.4c-4.8,4.9-3.8,7.5,0.6,11.3c-1.3,1.1-3,0.3-4.5,0.9c-6.5,6.8-4.6-4-12.3,1.6
	c0.2,1,0.2,1.8,0,2.9c-2.2-0.2-3.1-4-4.4-0.5l2.2,2.9c-0.1,0.8-0.5,1.2-0.5,1.5s3.2,3.6,4.2,3.6c0,0.4,0.2,0.9,0.5,1.2
	c-0.6,0.4-1.8-0.1-2,0.8c-1.3-0.1-2.7-1.3-3.3-2c-0.2,1.3,0.7,1.9,0.7,3.3c0,0.8-1.2,2.3,0,3c-3.5,0.8-7.3-3.6-3.7-6.2
	c-1.3,0-2.7,0.4-2.7-1.4c-0.9-4.3-5.5-5-5.8-9.6c1-9.8-7.2-8-7.8-11.7c-3.7,0.8-7.1-3.6-7.2-7.4c-4.5-0.2-4,1.1-5.1-3.5
	c-1.4,0.9-5.5,1.4-3.3,3.1c-2.5,5.8,4.4,5,5.1,9.6c0.8,4.5,3.3,5.5,7,4.7c-1.8,4.5,8.3,3.4,7.7,8.7c-1.7-1.1-5.5-3.8-6.4,0.1
	c-0.1,1.7,4.5,4.2,0.6,4.4c-1.1,1.2-0.8,3.9-2.5,3.9c-0.8,0-1.3-0.4-1.3-0.9c3-0.4,1.9-5.6,0.8-7.1c-0.3,0-3.2-3.1-3.3-3.9
	c-0.5,0-2.2-0.5-2.2-1.3c-4.6-1.1-6.3-4.2-9.4-6.6c-2.2-4.3-5.6-12.3-10.7-6.1c-2.3,1.2-3.8,3.5-6.4,3.5c-3.6-0.3-9.4-3.8-10.3,1.8
	c1.9,4.1-1.3,6.2-5.1,7c-2.1,0.5-8,8.3-4.4,10.4c-1.5,2.6-2.2,4.1-4.7,5.5c-1.4,0.8-1.7,4-4,3.2v0.1c-4.4-0.8-7,2.2-10.7,2.9
	c-1.8,0-1.9-4.8-4.6-4.8c-7.3,1.5-6,1.5-6-5.3c-3.4-0.5-1.2-3.5-0.6-4.8c0.3-4.7,2-10.7-0.2-14.9c0-0.8,4-3.5,4.7-3.5
	c1,0.8,5.8,0.5,7.1,0.5c1.2,1.3,6.2,0.6,7.7,0.8c1.4-0.4,2.1,0.5,3.3,0.5c0.8,0,2.6-0.6,3-0.6c0-2.6,1.5-3.4,1.5-5.9
	c0-0.5-0.1-2.8-0.1-3.6l-0.2,0.2c0.2-0.5,0.5-1.4,0.5-1.9c0-1.2-0.7-0.9-0.7-2c-2.4,0-3.1-2.3-3.1-4.4c-1.9-1.7-8.1-1.9-8.5-4.6
	c-0.8-1.6,3.1-2.4,4.4-2.8c1,1.7,4.6,1.4,5.9,0.7v-0.9c-1-0.7-0.4-2.7-0.6-3.7h1.2c1.4,1.8,4.9,2.7,5.6-0.3c3.6,0,4.5-2.9,5.2-6
	c1.8,0,6.2-2.2,7.6-3.1c0.9-1,0.6-2.6,0.6-4.2c1.9-2.4,4-5.2,7.2-5.3c1.5,0,0.8,0.4,1.7,0c0.3,0.4,0.7-0.6,0.9-0.9
	c0.8-0.9,1.9-0.1,3-0.1c3.4-0.7,2.6-3.2,1.8-5.5c-3.7-9.6-3.6-11.1,5.2-15.8c0.2,2.2-2.5,6.6,1.5,6.4c0.2,1.4-0.4,1.7-1.4,2.3
	c-1.7,1.2-4.2,5.8-1.3,7.1c0,0.8,0.1,1.1,0,1.4c1.3,0,1.8,0.5,2.8,0.5c1.2,4.4,6.5-2,9-1c-0.1,0.6-0.7,1-0.7,1.4c0,0.3,2,1.8,2,1.8
	c1.3,0,1.4-0.9,2-1.2c2-1.1,3.6-0.7,5.3-1.6c2.2-2,5.7-3.3,8.4-1.9c-0.2,0.5-0.5,1.2-0.5,1.4c1.4,0,2.9-0.1,4.3-0.3
	c0.2-4.5,4-3.9,4-8.9c0-3.1,2.6-9.1,4.8-9.1s2.4,3.2,4.7,3.2c1.4,0,4.6-2.4-1.4-8.5c-1.8-1.9,4.1-4.5,6.8-4.5
	c5.1,1,8.2,1.4,12.4-1.9c-0.8-2.5-2-3.1-3-4.6c-1.2,2.6-6.6,3-8.9,2.6c-2.9,0.7-8.7,4.1-9.7,0.2c-4,0.2-6.9-4.8-3.4-7.4
	c-2.2-1.3-2.2-5.2-2.2-7.5c5,0,7.6-7.1,10.7-9.1c14.2-6.1-9.5-12.7-9.5-2.6c1.9,8.3-9.8,8.8-13.3,14.3c-0.9,1.8,0.2,4.3-1.5,5.2v2.6
	c0.6,0.5,0.9,1.4,0.9,2.3c6.9,1.8,6.5,8.1,0.6,10.4c-2.8-0.3-5.1,8-1.5,8.7c-0.4,3.5-3.2,3.8-3.6,6.2c-6.7-0.9-4,3.1-8.9,4.2
	c-1.3-0.7-3-6-2.4-7.4c-2-2.2-1.8-4-2.6-6.9c-0.9-2.1-3.6-4-1.8-6.6c-1.3-0.8-1.6-1.9-2.4-3.1c-2.5,3.9-6.3,8.8-11.3,8.8
	c-0.7,0-5.3-3.1-5.3-3.6c0-1,1.6-1.7,2-1.9v-1.9c-1.1,0-2.1,0.2-3.1,0.6c0-0.9,1.3-2.5,1.9-3.4c-1.8-2.3-2-5.6-2-9.2
	c0-1.9,1.9-1.8,2.6-3c1.4-2.2,2.7-3.8,5.3-4.5c2.1-0.6,2.6-3.8,6.9-3.2c-1.3-0.4-1.8-0.6-2.8-0.9c5.2-1.4,7.2-6,10.8-9.1
	c1.4-1.2,1.2-5.2,2.1-5.2c1.8-8.3,11.2-8.5,13.1-16.6c-3,0.7-4.1,2.3-7,2.3c0.6-0.9,1.9-1.6,2.4-1.8c-0.6,0-1.8-0.4-1.8-0.4
	c0.3-1.8,1.4-2.5,2.7-1.7c0.4-0.8,0.7-1.3,1.1-1.7c0.6,0.8,0.7,1.4,0.4,2.3c4.6,1.1,3.5,2.8,6-1.9c-0.8-0.3-0.8-0.4-1.9-0.3
	c1-2.5,3.1-1.7,5.1-2.3c-0.6-0.7-0.5-0.5-0.9-1c1.2-1.3,3.3-1.2,5.1-1.6v1.6c1.5-0.4,1.9-3.4,4.4-3.5v2.2c1.5-3.1,3.6-2.3,5.7-3.6
	c-3.6-1.4-0.9-2,0.7-3.5c2.2,4.9,7.7-1.7,8.8,0.4c0,1.8-2,2.3-2.5,4.2c2.4,0.3,3.1-2.7,5.1-3.9c0.5,0.9,0.5,1.6,0.6,2.3
	c1.7-1.8,2.6-2.3,4.5-3.6c0.1,1.7-0.1,2.8,1.2,3c0.9-3.6,3.7-1,5.9,0.1c-1.1,3.1-2,2.1-4.7,3.1c1.2,1,2,1.2,2,1.9
	c2,0.5,6.6,0.3,7.1,0.6c3.9,0,16.7,7.1,22.5,9.1c20.2,7.1,6.9,16.1,0.4,14.2c-4.9-1.4-7.7-1.2-12.8-1.2c2.4,3.8,1.5,11.7,8.3,12.4
	v-5.2c13.7,6.4,12.1-6,15.4-7.1s9.5,1.9,9.5-2.6c0-2.3-2.1-2.8-1.8-3.9c5.1-17.3,7.8-5.9,5.9-0.7c2.4,10.4,24.3-16.8,27.8-7.1
	c5.4,2.9,12.9-2.6,16.6-2.6c2.1,0,6,8.1,6.5-1.9c0-0.9-5.2-6.9,11-2.3c5.9,1.7,21.6,14.3,15,3c-2.9-3.1-5.3-7-5.3-13
	c0-4.9,9.7-14.1,14.8-13c10.1,2.2,3.5,4,3.5,8.4c0,4,1.3,23.7,6.3,23.7c3.9,0-3.5-9.7-1-12.6c3.6-4.3-1.4-8.1-2.4-11.7
	c3.1-1.8,5.6-3.6,6.2-7.8c1.7,2.3,1,14.2,8.1,3.9c8.3,0,9.2,1.8,11.9,0c-7.3-12.1,10.3-11.5,16.8-11c2.7,0,3.3-5.4,5.1-7.1
	c8.7-8.5,25.4-9.8,29.3-11c-1.3,6.1,14-0.6,16.4-2.6c5.4-7.4,16.5-12.7,20.7-0.7h12.5c29.4,7.7-6.4,18.3-10.1,23.4
	c0,0-3.5,8.7,12.1-5.2c2.6,4.7,23.1,7.3,27,8.4h13c0-4,1.7-5.5,4.8-5.2c24.4,2.2,14.8,8.8,14.8,9.7c-0.7,6.6,8.6,17,10.1,4.5
	c3.9,0.3,4.4,3.2,7.7,3.2h19c0.7-5.1,2-10.4,11.3-10.4s17.1,1.9,24.3,4.5c3.4,1.2,3.6,4.3,5.9,6.5c8.3,4.2,24.3-5.1,27.3,9.8
	l27.3,0.6c2.3-0.1,11.4,12.6,7.7,0c5.4-9,36.3,5.5,41.5,9.7C695.8,123.5,709.7,127,714.1,133.2L714.1,133.2z M190.4,309.9l-0.1-0.1
	c0,0.1,0.1,0.2,0.1,0.3C190.3,310,190.3,309.9,190.4,309.9L190.4,309.9z M235.8,270.8c-0.4,0.8,1,0.9,1.6,1.9
	c0.9,1.5-0.1,2.6,0.6,4.2c0.6,1.4,2.1,0.6,3.4,0.9c1.1,0.3,1.3,1.6,2,2.3c2.7,1.7,8.3,0.6,11,0v-2.3c-1.7-2.1-1-3.1-0.3-5.7
	c0-2.5-1.7-5.1-4.2-5.4c0.4-4,3.3-3.2,5.9-3.2c0-1.9-1.9-3-2-4.9c-0.8,0.1-3.1,1.4-4,2c0-5.1-3.2-6.8-5.4-11
	c-0.7-1.4-2.6-1.3-2.7-3.9c10.5-6.2,8.5-1,14.6-3.4c-5.1-11.6-14.3-6.9-23.2-3.1c-0.6,0.8-2.9,5.6-2.9,6.2c0,1.9,2.6,3.9,2.6,5.2
	c0,4.4,4.9,12.2,8.1,14.2c-1.9,1-1.9,4.1-3.3,6.2C237.5,270.8,236.3,270.1,235.8,270.8L235.8,270.8z M405.9,384.5
	c-0.1,0.4-0.3,0.8-0.5,1.2l0,0C405.5,385.3,405.7,384.9,405.9,384.5z M407.7,379.6c-0.7,1.6-1.1,2.8-1.5,4
	C406.6,382.4,407,381.2,407.7,379.6z M408.7,378.2c0-0.4-0.3-1.7-0.6-3.1c0.3,1.9,1.1,2.8,0.3,3.8
	C408.5,378.7,408.7,378.4,408.7,378.2z M676.5,101.7c1.3,0,10.7-0.6,10.7-2.3c0-1.9-4.5-3.2-6.3-3.2
	C678.6,95.9,672.8,100.3,676.5,101.7z M642.9,109.7c1.8-0.3,1.1-2,0.3-2.8h-3.9C640.1,108.5,641.3,109.7,642.9,109.7z M530.1,68.6
	c0.8,0,1-0.9,1.2-1.7l0,0l0,0c0-0.1,0-0.2,0-0.2H531l-1-1C529.3,66.4,528.4,68.5,530.1,68.6L530.1,68.6z M452,75.1
	c-3.1-0.2-3.6,3.8,0,3.5C455.5,78.8,455.8,74.8,452,75.1z M454.8,77.7c-0.4,0.2-0.6,0.7-1,0.9L454.8,77.7z M407.6,48.1
	c-0.5,4.2,6.5,0,8.1,0c3.1-1.2,11.6,0.9,12.4-3.9c0-1.8-4.9-5.2-6.5-5.2c-0.8,0-1.3,1-2.1,1.3c1-1,0.4-1,0.4-2.9
	c-5.5-0.9-7.2,4.2-10.1,7.8C409,46,407.6,46,407.6,48.1L407.6,48.1z M378.9,32.5c0,1.2,1.7,3.2,2.4,3.2c1.4,0,5.3-0.3,5.6-2.6
	C384.6,32.3,380.4,29.5,378.9,32.5L378.9,32.5z M395.1,32.1c-3.8,1.3-5,2.7-8.9,4.2c1.8,1,4.9,4.7,6.3,4.7
	c3.7-0.8,13.2,5.5,15.6,0.4c0-0.9-0.9-1.3-1.8-1.6c3.8-0.5,1.2-2.5,3.3-4.3c-1.6-2.6-3.5-2.8-6.3-2.6c-2.2-0.5-3.6-2-6-1.3
	c2.4-1.4,2.4-2.1,2.2-5c0.5,0.1,0.2,0.4,1.4-0.1c-8.8-10.9-11.3-1.6-19.6,2.6C386,32,389.9,31.9,395.1,32.1z M394.9,58.4
	c1.4,0,2.1-0.8,2.4-2.6h-1.8c-0.5,0.4-1.1,0.9-1.8,1.3C393.8,57.8,394.3,58.4,394.9,58.4z M380.7,23.1l-0.4-1h-4.4
	C376.6,23.8,378.9,23.4,380.7,23.1z M434.3,49.1c0.8,0,1.4-1,1.5-1.9c-1.1,0.5-1.4-0.1-3.9,0.4C432.2,48.2,432.8,49.1,434.3,49.1
	L434.3,49.1z M241.6,29.2c-0.3,0.2-0.6,0.4-0.8,0.5v0.5L241.6,29.2z M229.2,26.6c1.1,0,1.7,0.8,2.7,1.2c-0.6,0.5-1.2,0.8-1.8,1.2
	c0.5,0.1,1.1,0.2,2.1,0.2c-0.9,0.2-1.5,0.5-2.5,1c0.4,1.2,1.5,1.6,3.3,1.6H233c1.8,3.1,2.2-0.1,3.7-1.6c1.6-1,2.6,0.2,4.2-0.5V29
	c0.4,0.1,0.8,0.1,1.2,0c1.4-1.2,2.9,0,3.2-2.4c-3.8-2.4-4.3-0.7-7.9,0.4c-4.1-1.3-12.6-3.2-16,0.8C223.9,29.2,227,27.1,229.2,26.6
	L229.2,26.6z M285.5,26c0.8,0,5.5-1,6.3-1.7l-1.7-4.1C287.3,19.8,279.7,24.8,285.5,26z M278.9,29.2l-0.6-1.5c1.1,0,2.2,0.5,3-0.6
	c0-0.5,0.1-0.8,0-2c-1.1,0.2-3.1,0.1-3.8,0c0.2,0,0.9-0.4,1.2-1h-3.9c0,0.2-0.1,0.6,0,1.7c-1.4,0.5-2.4,1.5-2.4,3.5
	C272.4,29.9,278.2,29.6,278.9,29.2z M266.5,29c-1.3-0.3-8.8,2-4.7,3.5c1.1,0,1.5,0,1.8-1.3c4.5,2.9,2.2,0,6.3-0.7
	C269.2,29.6,268,29,266.5,29L266.5,29z M265.9,26.4c1.3,0,2.6,0.2,3.5-0.5c-2.6-1.2-3.4-1.4-6.8-2c1.2-1.3,3.6-2.1,5.5-3.4
	c0-0.6,0.6-1.3,1.1-1.7c0.3-2.8-2.3-1.2-2.4,0.6c-3.4,0-3.6,2.6-7.1,2.6v1.7c1.2-0.8,0.7-0.3,2,0.2h-5c-0.6,0.5-0.8,0.8-1.5,1.4
	C260.5,27.9,260.2,28.6,265.9,26.4L265.9,26.4z M111.2,40.7c0.4,0,0.6,0.4,0.9,0.5c-0.5,2.1,1.3,3.1,3.3,4.3c-0.4,0-0.6,0.1-0.9,0.3
	c0.6,1.3,1.9,2.1,3.8,2.1c2.5,0,2.5-2.8,3.6-3.5h1c1.3,1.5,3.3,1.2,4.8,1.2c-1.3,1.2-4.5,2.7-6,3.2c-0.6,0.1-3.3,0.1-3.3,1.3
	c0,3.1,3.1,1.7,4.5,1.7c0.8,0,4.6,0.1,5.3,0.7c-1.4,0.4-2.7,0-3.9,1c0,0-2.7-0.4-4.4-0.1c0,4.4,6.4,6.1,9.2,8.2
	c2.2-3,1.2-6.4,5.2-8.2c1.2-3.4,2.5-9.1,6.5-9.1c0,0,0.9,1.7,2.9,2c-0.6,0-1.1,0.1-1.7,0.2c0.5,1,1.6,3.4,2.4,3.6
	c-0.2,2-1.5,1.3-1.8,3.6c1.6,0.1,4,0,5.4,0.2c-0.4,0.7-0.4,1.3-0.1,2.3c3-1,4.3-3.2,7.5-4.4c-1.1-1.7-4.5-0.7-4.5-4.7h-3.8
	c0.4-0.5,0.2-1.3,0-2c-0.8,0.1-1.2,0.3-2.1,0c0.4,0,0.8,0,1.2-0.1c-1.7-2-7.9-5.8-10.7-5.6c0.8-3.1-1.4-4.2-3.5-1.4
	c1.1-3.4-0.8-4.8-4.4-5.2c-4.3-0.4-1.7,5.5-0.9,7.7c-3-1.2-2.1-5.7-5.3-5.7c-1.8-0.1-2.7,3-1.2,3.9c-0.8-0.9-2-0.9-3.2-1.9
	c0.3-0.7,0.8-1,1.4-1.8c-4.3-1-7.7-0.8-10.1,2.6C109,38.5,110.3,40.7,111.2,40.7z M134.7,33.6c-0.2,3,2.1,1.4,4.1,1.4
	c0.2,0,5.1,0.4,5.6,0.4c-1.5,0.4-3.3,0.6-5.3,0.8c-0.3,3.4,6.6,1.7,8.3,2.1c3.7,6.2,12.4-1.6,16.4-4.3c-1.8-4.4-9.4-4.2-12.8-2.2
	c-0.2-0.9,0-1.6,0-3.2h-1.4c-2.4,4.4-4,3-7.7,0.4h-3.3l0.6,1.3h-2v0.6c-0.7,0.4-1.7,0.1-2.4-0.4h-1.8
	C133,31.8,133.7,32.9,134.7,33.6L134.7,33.6z M112.2,47.8c-0.8-2.8-2.4-3.3-3.9-5.4C106.6,43.6,110,47.2,112.2,47.8z M108.6,42.2
	c-0.1,0-0.1,0.1-0.2,0.2l0.2,0.2V42.2z M108.2,42.2c0.1,0.1,0.1,0.1,0.1,0.2c0,0,0,0,0,0C108.4,42.4,108.2,42.2,108.2,42.2z
	 M39.3,211c0.1,2.6,3.2,3.7,5.2,2.5c0.9-0.7,2.4-2.9,4.3-2.9c1.2,0,2.4,0.1,3.1-0.6c0.9-1,0.1-2.6,0.1-3.6V202c0-1,2.1-0.9,2.1-1.9
	c0-2.2-1.3-5.3-4-5.3c-2.3-0.4-7.3,1.3-4.9,4.1c-1.6,2-4.9,0.5-4.8,2.9c0,1.3,1.1,2.1,2.3,2.7C42.3,207.5,39.3,207.8,39.3,211
	L39.3,211z M50,181.2c1.3,0,2.3-1.6,2.3-3C50.3,178.1,48.2,179.7,50,181.2z M53.8,184.9c0.4,1.7-2.5,3.1,0.9,3.8v1.2
	c-0.8,0.4-0.4,2.3-0.5,3h1c-0.2-0.5-0.6-0.9,0-2c0.4,0.3,1.1,0.6,2,0.6c-0.4,1,0,1.3,0,2.5c0,1-1.2,1.7-1.2,2.7
	c0.6,2.5,3.9-0.2,5.7,0.5c-1.7,1.7-0.5,3.7,2,3.2c0.7,2.9-2.3,4.2-5.3,4.4c0,1.4,1,2.1,1,3.8c0.2,1.9-5.1,2.9-2.7,4.7
	c2.5-2.3,3.8,3.4,6.6-0.4c1.1,2.5-1.7,2.2-3.8,2.6c-0.5,0.5-4.6,4.4-4.2,5.6h0.8c0.6-1.2,2.2-1.1,3.3-1c0.2-2.8,2.2-2.3,4-1.4
	c1.8,0,5-1.2,6.2-1.2c2.5-0.1,6.4,0.8,8.1-2v-0.9c-0.7,0-1.2-0.1-2.4-0.5c0.9-1.7,3.8-2.9,3.8-5.2c0.1-1.9-2.6-3.4-4-2l0.6-0.5
	c-0.5,0.2-0.6,0.6-1.4,0.9v-0.9c1.7-1-0.7-2.4-0.7-3.6c0-3.1-3.1-4-5-6.1c-2.1-3.3-1-6-6.1-5.6c0.1-0.5,0.5-0.9,1-1
	c0-2.7,3.7-4.3,3.2-7.9h-7c-1.6-2.4,2.7-2.5,2.6-4.4c-0.2-1.7-3.6-1.1-4.6-1.2c-1.9,0.4-2.1,2.1-2.4,3.9c-1.1-0.2-2.4,1.5-1.1,2.3
	c-0.1,1.1-1.2,0.9-1.3-0.4h-1.9C51.1,184.1,52,184.5,53.8,184.9L53.8,184.9z M57.8,199.6c-0.7,0.4-0.8,0.9-0.8,1.6h1.3
	c0-0.6,0.1-1.2,0.1-1.6C58.4,199.6,57.9,199.6,57.8,199.6z M541.3,73.8c1.2,0,1.8-1.2,2.6-2c1.9,3,4.9-0.3,7.1-0.6
	c0.8,0,1.3,1.3,2.1,1.3c1.4,0,2-1.3,3-1.3h3.2c0-1,1.7-2.5,2.1-4.3c-3.8-0.4-13.9-7.5-13.6,0c-3.2,0-3.5-4.2-7.1-4.2
	C533.4,63,534.1,73.7,541.3,73.8z M124,275.5c-1.8-0.4-2.5,0.9-4,0.9c-1.7,0-2.7-1.7-5.2-0.4c-0.3,1.4,0.8,1.5,1.7,1.6
	c1.9,0.7,3.4,2.9,5.5,3.4c0.2,0.9,1.7,0.6,1.7-0.4c0-1-0.6-1.2-0.6-2.1C123.2,277.2,123.8,276.6,124,275.5z M104,261
	c0.4-0.8,0.7-3.6,1.1-5.2c-0.4-0.1-0.5-0.8-0.5-1.4c-0.7,0.5-1.6,1.5-2.7,1.6C102.4,257,102.8,260.8,104,261L104,261z M102.2,266.4
	c-3.1,10.6,6.7,3.3,2.8-3.7c-2.1-1.7-2-0.2-4,0.9C101.1,264.7,102.2,265.3,102.2,266.4z M84.4,269.2c0-0.4-0.6-1.2-0.6-1.4
	c-0.7,0.1-1.2,0.5-1.9,0.9C82.3,269.2,84,270.6,84.4,269.2z M109.5,195.7c0-1.3-0.8-1.1-0.8-2.6h-2.3c-0.3,1.9,0.5,3.1,2.7,3v1
	C109.3,196.5,109.5,196.7,109.5,195.7L109.5,195.7z M111,197l-0.2-0.5c-0.1,0.1-0.5,0.4-0.6,0.6c3.7,3.2,3.2-3.5,5.3-4.4
	c-1-5.4-4.6-3.5-5.3,0.5c0,0.8,1.3,1.8,2.5,2.1C112.6,196,111.8,196.9,111,197L111,197z M136.5,179.9c-2.8,0.5-3,3.3-2.7,4.9
	C135.4,183.3,135.3,181.5,136.5,179.9z M147.1,179.2c1.7-0.4,2.2-1.2,2-2.9c0.2-0.1,0.8-1,0.9-1.7c-0.5-0.3-0.7-0.5-1.3-1.3
	c-1.1,0.5-1.4,1.8-0.2,2.8c-0.9,0.1-1.7,0.9-2.6,1C145.9,178.1,146.1,179.2,147.1,179.2L147.1,179.2z M160.8,288
	c-2-0.6-4.9-1.3-7.5-0.8C155.5,288.2,158.6,289,160.8,288L160.8,288z M188.7,285.7c-2,0.4-5.1,1.7-6.9,2.6c0,0.3,0.4,0.7,0.6,0.7
	c0.5,1.6,4.1,0,4.5-0.8c0.1-0.4-0.1-1.2,0.2-1.3C187.9,286.5,188.5,287,188.7,285.7L188.7,285.7z M253.5,378.8c0.9,0,1.9-1,2.1-1.5
	c-1.5,0-2.4,0.2-3.4,0.6C252.3,378.6,253.1,378.8,253.5,378.8L253.5,378.8z M235.5,112.4c-4.5,5.8,2.3,5.3,5.6,2.3V113
	C238.5,112.4,237.7,109.5,235.5,112.4L235.5,112.4z M269.5,106.9c0,1.6,2.6,3.2,4.2,3.2C278.9,110,269.5,103.1,269.5,106.9z
	 M313.1,86c-2.6-4-5.1-2.7-4.7,1.4C309.8,87.4,312.5,86.5,313.1,86L313.1,86z M553.4,84.8h3.6c-0.3-6.4-8.9-6.6-11.3-1.3l0.6-0.6
	C548.6,83.8,551.3,83.5,553.4,84.8L553.4,84.8z M576.9,73.4c2.5,0.3,7.8-1.6,4.2-3.2c-0.5,0-12.9-1.7-14-2.6l1.2,1
	C568.2,71.8,573.8,73.4,576.9,73.4z M548.7,77.9c0-1.8-3.2-2.1-3.2,0C545,80.3,548.6,80.1,548.7,77.9L548.7,77.9z M1272.4,140.1
	l0.2-0.3c0.3-3.5-6.6-3.8-3.7-7.7c-1.7,0.2-4.8,1.9-5-1c-0.5,0.4-0.5,0.3-1.3,0c-0.2,0.5-0.5,0.9-0.5,1.9c-1.1-1.2-2.5,0.4-4,0.4
	c-1.1,0-2-0.4-3.8-0.4c0,0.4-0.1,0.9,0,1.3c-0.5-0.2-0.7-0.6-1.7-0.9c-1.4,0.3-3.5,1.5-4.4-0.4c-0.3,0.5-0.2,0.8,0,1.7
	c-3.5,2.2-3.7-1.2-4.6-3.8c-1.8-0.4-1.8,1.1-3.1,1.4v1c-0.7-0.4-1.3-0.6-2.4-0.3c0.2,1.4,4.6,2.9,6,2.9c0,0.4,0.1,0.8,0.5,1
	c-1.3,0.5-4.4,1.2-6.2,1.2c1.2,1.3,3.2,0,5.1,0.5c-0.2,1.4-0.6,2.2-0.6,3.9c-0.3,0-0.7,0.4-1.1,0.6c6,1.8,8.8,4.9,15.9,4.7
	C1264,147.1,1268.7,144.9,1272.4,140.1z M1067.9,349.3c-1.4-1.2-1.9-3.1-4.5-2.7c-0.1-0.2,0-0.6,0-0.9c-4.2,0.2-6.4-2.9-9.4-4.8
	c-7.1-1.8-16.5-7.2-21.3,2.5h1.1c1.5-1.5,5.8-4.2,8.3-2.7c-0.4,0.4-0.5,0.9,0.2,1.4h3.4c1.7,0,2.5,1.9,4.2,1.9
	c0.9,0,1.5-0.4,2.5,0.1c0.5,0.3,0.3,1.2,1.3,1.2c0.3,2,2.2,1.8,4,2.7c-0.1,0.6-0.6,1.2-1.2,1.2v0.8
	C1059.8,349.9,1065.1,352.7,1067.9,349.3z M1038.6,342.6v0.9c-0.3,0-1.1,0.3-1.1,1.2c0,0.3,1.5,0,1.7,0c0.2-0.6,0.1-1.3,0-1.9
	C1039.1,342.7,1038.8,342.6,1038.6,342.6z M1055.2,356.5c0.4,3.1,3.8,1.6,5.8,1.2c-0.1-0.5-0.3-0.9-1.1-1.2l0.2,0.3
	C1059.4,356.6,1055.9,354.6,1055.2,356.5L1055.2,356.5z M1092.5,356.2c-0.1,1.7,4,2.1,4.9,0.6
	C1096.4,355.9,1093.1,354.6,1092.5,356.2L1092.5,356.2z M1068.1,355.7c0,0.8,0.7,2,1.4,2.1c0-0.4,0.1-0.6,0.1-1
	c1.7,0.4,5.2-0.7,6.8,0.4c0.6,0.4,0.3,1.7,1.4,1.7c1.3,0,1.2-2.3,2.7-2.3c1.4,1,1.8,0.7,3.3-0.4h4.4c-0.8-1.3-2-1.8-3.2-2.9l0.6,0.5
	c-3-2.6-5.3-4.2-10.2-2.9c-1.1,0-1.8-0.9-2.9-0.9c-1.7,0.3-0.8,2.4,0.6,2.3c0,1,0.1,1.9,0.8,2.7c-1.4,0.8-2.6,0.1-5.3,0.1
	C1068.6,355.3,1068.4,355.7,1068.1,355.7L1068.1,355.7z M1110.9,388.1c0,0.4,0.7,0,1.1,0c1-0.2,1.5-1.7,1.4-2.6
	C1111.9,385.2,1111,386,1110.9,388.1L1110.9,388.1z M1150.2,424.7c-7.1,2.1,3.9,12.1,5.7,2.6c-0.5-2.8-2.3,0.9-2.7-1.4
	c-0.9,0-1.8-0.6-2.5-1.2C1150.7,424.8,1150.3,424.7,1150.2,424.7z M1070.1,599.2h1.1c-0.1-1.4-0.1-4,0.5-5.3
	C1070.5,587.3,1066.9,598.5,1070.1,599.2L1070.1,599.2z M903,226.6L903,226.6L903,226.6L903,226.6z M1202.1,450.3
	c0,9.6-4.8,12.1-8,17.5c-1.5,2.4-3.6,4.6-5.6,6.2c-1.8,1.9,0,6.2,0,9.3c-0.3,3-0.5,5.5-1.4,7.7c-0.5,0.7-1.5,2-1.5,3
	c0.1,5-2.6,7.6-4.7,11.3c-0.4,3.2-2.2,6-5.8,6.2c-2.7,0-5.8-0.3-7,2.2c-2.8,3.1-5.8,1.3-7.9,4.9c-1,1.7-2.5,1.7-3.4,2.7
	c-2.4,2.7-0.9,8.6-1.3,12.1c-2.4,1.3-3.6,3.5-4.7,6.2v-0.1c-1.1,5.4-5.2,7.5-8.2,11.5c-3.4,7.4-5.2,13-14.1,9
	c-1.7,0.2-4.6-2.9-5.9-0.9c0,1.2,1.8,1.8,2.1,2.2c0.9,1,0.9,2.5,1.4,4c0.4,1.4,2.2,1.4,2.2,2.8c0.4,3.4-1.8,5.4-3.7,7.4
	c-2,2.2-4.5,1.6-7.3,2.6c-1.9,0.6-5.8-0.8-6.9,0.4c-1.5,1.7-0.3,5.6-1.2,7.4v1.3c-2.3,3.5-5.3,0-8-0.3c-2.9,0.6,0.1,6.8,1.3,6.8
	c0.6,0,1.3-0.8,1.7-0.9c1.6,0.8,0.9,2.5-0.1,3c-1.4,0-1.9-1.2-3.1-1.2c0,1.4,0.7,1.7,1.3,2c-3.3,2.4-0.8,9.7-6,9.6
	c-1.9,0.5-3.6,2.3-3.6,4.5c0,5.1,5.3,3.3,5.3,7.3c-0.7,5.8-5.4,3.1-5.9,10.2c-0.8,1.8-2.7,1-3.8,2.2c-1.4,1.6-2,3.4-2,5.8
	c0,1.3,1.1,2.9,1.8,3c5.2,9.3-0.1,8.8,12.6,14.7c-0.5,0.8-1.2,0.4-1.9,0.4c-1.8,0-4.7,2.5-5.8,2.5c-0.9-0.1-1.7,0.1-2.5,0.5
	c-7.2,0.4-3.6-1-7-4.2c-1.8-0.6-4.4-0.6-4.4-3c-1.4,0-3.6,0.3-3.6-1.7c-3.9,0-5-2.7-6.9-4.8c0-1.2,2.1-1,2.2-2.2
	c-0.3-0.1-0.6-0.4-0.9-0.7c2.9-4.1-2.1-4.5-2.4-7.5c0.4-3.4-1.6-8.6-1.8-11.4c0-2.3,2.7-3.2,2.7-5.3c-0.1-1.4-2.1-4-1.7-5.8h0.1
	c0-0.8,0.5-1.4,1.1-1.4c2.1,0,1.3,2.3,3.1,2.3c0-0.4,4.7-21.8,3.9-21.2c-1.4-0.6-1.8,1.3-2.8,1.4c-2.8-1.8-1.2-7.4-0.5-10.3
	c1.9,0.1,0.9-2,0.5-2.2c-2.3-5.3,1.9-11.4,3.4-16c2.6-2.2,1.5-6,2.6-9.2c0-4.3-0.6-12.1,0.5-16c0.1-5.3,3.1-8.8,2.7-13.8
	c0.5-2.3,1.1-7.6,0.8-10.3c1.1-7.1,2.8-20.1-5-24c-1.8-0.9-3.1-0.6-4.4-2.1c-3.5-3.5-8.2-3.7-10.9-7.9c-1-1-0.5-2.5-0.5-4
	c-2.7-6.9-6.9-13.4-9-20.4c-0.4-0.8-1.2-0.5-1.5-0.9c-0.8-0.9-1.1-2.7-1.4-3.6c-3.7-1.6-6.3-7.9-3.4-11.3c1.1-1.9,3.2-2.5,3.7-4.6
	c-1.1-0.8-0.9-0.1-1.8-0.1c-1.7,0-1.9-2.6-1.9-4.4c0-3,3-2.5,2.5-8.2c3.2,0,4-3.5,5-5.6c1.3-2.9,4.4-1.9,5.1-5.5
	c-1.2-0.6-1.3-1.4-0.7-2.3c0.2-1.3-0.6-2.3-0.7-3.5c0-1.6,0.6-2.1,0.6-3.4c0-2.9-3-2.8-2-5.5c-0.3,0.3-1.5-0.6-1.6-0.9
	c0-0.5,0.5-0.8,0.7-1.3c-1.3-0.7-1.7-2.4-3-2.4c-1.2,0.3-6,3.4-3.2,4.6c-1,4.4-4.8,0.2-5.8-1.6c-1.1-1.4-3.7,0.9-4.2-0.9
	c-1.7-0.4-1.7-1.7-2.1-2.7c-0.4-0.8-4.4-3.5-4.5-3.5c-0.2,0.4-0.2,0.9,0,1.2h-1.2c-1.8-1.3-0.6-3.1-1.2-5.1
	c-1.6-3.7-5.3-4.4-6.2-8.6c-4.3,0.9-4.4,0.8-8-1.6c-2.2-1.2-3.9-0.5-6.3-1.8c-3.9-1.8-4.2-6-8.1-6.6c-4.6-3.8-5.2,4.4-9.5,0.4
	c-0.9-0.5-1.8-0.3-2.7-0.3c-3.4-0.8-6.2-4.8-10.1-4c-1.7-0.5-2-2.1-3.7-3c-1.5-0.8-2.4-0.5-3.9-1.3c-1.9-1.8-5.9-3.1-6.8-5.1
	c-3.2-0.8-1.1-4.2-0.6-6.2c0-1.7-1-2.1-1.2-3c-1.4-4.7-5.5-8.5-8.1-11.3c-3.1-2.6-5-2.1-5-6.9c-1.1-2.3-4.7-2.6-4.7-5.7
	c-1.1-0.3-1-0.4-1.3,0c-3-2.9-4.6-5.3-5.8-9.1c-1.1-1.2-0.8-4-1.8-4.5c-2-1-3.9-0.9-5.5-2.6c-1,4.6,1.8,9.3,5.5,11.6
	c1.7,1.8,1.9,3.1,2.5,5.3c0.8,3,3.2,4.4,4,7.1c1,3.1,1.7,6.5,3.8,8.1c1-1,2.4,1.2,2.4,2.2c-0.4,3.7-1.9,0.9-2.8-0.8
	c-2.1,0-3.3-3.1-4.6-4c-0.7-0.5-0.8-0.5-1.2-1.2v-3.4c-1.3-1.4-2.2-2.9-3.4-4.1c-1.7-1.8-4.3-1.4-5.5-3.4c6.5,1.3-2.3-7.2-3.4-8.1
	c-1.4-1-1.3-4.6-2-6.2c-1-2.4-2.9-3.9-3-7h0.2c-1.8-3.9-7.8-6.6-12.1-8.4c-1-0.4-0.6-1.8-1-2.9c-1.7-4.5-5-6.1-4.4-11.4
	c-2.5-0.4-5.1-6.1-7.1-10c-0.6-1.1,0.5-2,1.2-2.5c-1.3-2.9,0-7.6-1.2-10.9c-1.1-3.2,2-10.5,2-14.6c0-2.9-3-4-3-6.9
	c1.1-2.1,4.7-0.3,5.2,1.3c2-2.4,2.1-3.9,0.1-6.5l0,0c-0.5-0.3-1.1-0.5-1.4-0.9c-1.3-1.3-4.1-1.4-4.5-2.9c-1-3.2-5.1-1.6-5.6-4.1
	c-6.1-0.3-2.7-6.7-8.3-9c-1.8-2.2,0.7-4.5-3.8-4.9c-2.3-1-0.4-5.7-1.9-7.5c2.8-3,1.7-4.7-1.1-6.9c2.8,2.1,3.9,3.8,1.1,6.8
	c-2.3,0.8-6.1-1.9-6.2-3.8c0.2-2.7-0.1-4.2-3.6-3.9c-1.6,0-2.1-1.2-2.1-2c0.8-1.9,2.2-0.7,1.8-3.9c-2.2,0.1-1.7,1.7-3.2,1.7
	c-2.4-0.7-1.9-3.5-0.6-4.7c-0.6-0.6-1.7-1.8-2.1-0.9c-1.8,0-2.6-0.9-3.6-1.9c-1.5,5.7-5.8-0.9-7.4-2.6c-3.1-2.5-7.1-2.3-10.7-4.6
	c-6,0.2-14.4-0.4-17.7-6.5c-1.4,0.6-3.8,1.3-4.9,1.9c0.3,0.9,0.6,1.3,1.2,1.8c-1.5,2.6-9.1,7.3-11.8,7.3c-1.5-0.1-1.4-1.8-0.2-2
	c-0.8-3.4,1.1-6.4,5.1-7.8c0-0.4,0.1-0.9,0.1-1.3c-4.5-0.7-13.1,7.7-12.1,13.4c0,3-2.6,4-5.3,5.2c-1.5,0.6-2,1.9-3,3.2
	c-1.8,2.5-5.8,3.8-7.7,5.9c-1.8,1.9-6,3.4-9.5,3.9c-4.3,0.8-6.6,6.2-11.6,4.7c3.9-4.3,3.5,1,9.5-7c2-1.3,4.3,0,5.7-1.9
	c2-2.9,6.6-5.1,9.5-7.1c2.7-1.9,2.7-5.9,5.6-7.8c-4-0.1-5.1,3.3-9.4,0.6c-0.4,1-0.7,1.4-0.8,2.4c-2.8-1.2-3.7-1.9-5.7-3.6
	c-0.2,0.8-0.1,1.4-0.1,1.9h-1.4c-0.7,0-1.3,1-1.8,1c-1.4-0.5-1.2-4.4-1.2-5.8c-0.1-4-2.3-0.7-3.3,0.3c-1.6,0-7.1-4.8-8-6
	c0.6,0,1.2-0.4,1.8-0.4c-0.9-2.9-4.7-3.5-4.7-5.6c0-3.9,6.4-7.1,8.9-7.1c1.1,0,9.1-3.5,9.1-5.2c0-0.9-1.9-2.7-2-3.1
	c1.2-0.8,1-0.6,1.8-0.1v-1.9c-3.1-0.7-3.7,1.9-6.9,2.2c-2.5,0-3.2-1.3-5-0.9h-6.3c-0.3-2.5-2.3-2.9-1.2-4.9c-1.9,0-3-0.8-3.6-2.1
	c3-1.9,7.8-3.6,10.7-5.7h2.1c0,4.2,1.9,3,4.4,3c1.7,0,1.9,0.4,3.3,0c-1.2-4.2-3.7-4.4-7.1-6.2c-1-0.5-2.4-4.4-3.6-5.2
	c-1.4-0.9-6.3-2-6.3-2.9c0,0,1.7-3.2,1.8-3.6h6.5c4.4-6.2,11.3-12.9,19.5-12.6c4.1-2.8,3.8-5.5,8.8-1.7c-0.6,0.8-0.7,1-1.1,1.7
	c1.2,0.3,2.4-0.6,3-1.7c2.2,1.7,6.1,1.3,8.6,1.3c1.4,1,1.9,1.7,3.6,2.6h9.1c4.4,3.8,13.4,3.6,19,2.3c3.4,0,4.5,1.6,7.5,2.6V112
	c1.2,0.3,0.6,0.5,1.4,0c3.6,4.5,11.8,5.6,14.8,5.6c1.1,0-4.3-3.1,3.4-3.4c1.1,0,0.6-4.1,3.7-0.9c1,1.1,4.1-1.4,5.5-1.7
	c3.3-1.4,4.6-1.7,8.3-2.6c0.3,1,1.2,1.8,2.1,1.8c2.5,0,1.7-3.8,4-3.8c0.7,0,3.9,5.8,6.2,5.8c2.4,0,2.4-2.8,4.6-3.4
	c1.9,5.7,3.8,2.6,7.9,1.8c7.2,0,10.8,6.5,18,5.9c6.8-0.6,6.2-1.4,9.5,3.6c-0.7,0.8-4.3,0.3-4.3,1.5c0,0.4,0,2.3,4.7,2
	c4.2-1,9.8-1.4,14.1-1.2c0,0,1.8,0.9,1.8,0.9c2,1,2.5,4.3,4.9,4.3c0.6,0-0.7-3-0.7-3.9c0-4.4,6-0.9,5.6-5.2
	c-10.4,5.6-11.4-2.2,1.3-3c1.9,9,20.2,7.8,25.5,7.8c-0.8-5.8,6.3-4.3,8.3-2.6c0.9,1.4-2.1,5.7,1.8,4.5c0-6.4,7.8-3.8,6.3-9.1
	c-1,0.5-1.7,0.8-2.5,1.3c4.1-9.9-6-4.3-7.1-10c0-1.8,1.5-1.7,1.5-3c-0.9-3.2-2.1-4.9,2.4-5.2c-2.1-6.3,9.6-1.6,8.5,3.9
	c0.1,1.9,3.6,1.8,3.6,4.3c0,1.7-2.1,2.6-3,3.1c1.4,2,4,0.7,5.9,2c-0.6,0.5-0.8,0.9-1.2,1.6c2.5,1.3,2.7,2.9,2.7,5.1
	c3.7,0,1.3-5.6,4.7-5.6c1,0,4.4,3.6,4.4,4.6c0,1.9-2,1.6-2,3.2c0,1.4,3.5,7.5,6.2,3.8c1.7-2.4,1.4-4.1,2.3-6.3
	c0.6-1.3,3.3-1.3,3.3-2.6c0-1.2-1.8-1.8-1.8-3.5c0.3-3.3,3.8-2.7,5.9-1.7c4.9,0,3.9,3.3,7.7,3.3c0,2.2,0.5,2.1,0,3.2
	c-3.7,2-2.1,4-2.1,4.9c0,0.8,2.7,2.1,2.7,3.3c0,1.7-6.1,7.4-6.9,6.1c-1.4-2.4-2-0.1-1.4,0.6c-2.1,0-2.8,1-3.9,1
	c-1.7,0-2.6-2.6-5.2-2.6c-0.9,0,0.8,2.3,0.8,2.9c-2.2,5.2-6.9,5.3-10.7,1.3h-2.1c1.8,3.9,5.8,3.2,9.8,4.3v2
	c-2.6,2.8-4.5,5.6-8.9,4.8c-1.4,0,0.1,3.6-2.4,2.8c-9.6-3.2-6-0.6-7.1-1c1.7,1,6.2,1.2,6.2,3.1c0,3.1-3.6,1.8-5.6,2.6
	c-1,0.4-3,5.4-3.9,6.5c-4.5,3.5-4.1,12.3-4.2,17.2c5.2-4.4,7.2,4.4,7.5,9.1c1.8,0,2.6-1.9,4.4-1.9c7,3.2,13.8,5.8,19.9,10.4h7.7
	c3.3,2.3,2.6,5.6,2.6,9.7c0,3.8,4.2,7.8,7.1,10.4c1.1,1,2.1-1.6,3.6-1.6c0.1-1.4,1.7-2.3,2.1-3.1c-1.7-2.2,0-9.3-4.2-11.6
	c14.8-6.9,9.3-14.9,2.6-24c10-4,0.4-8.6,2.1-11.3c3.8-2.7-0.3-4.5-0.3-5.8c1.2-6.8,8.3-0.9,12.4-1c1.8,0,1.8-1.3,3.3-1.3
	c3.3,0,4,4.4,7.3,4.9c0,4.8,6.4,2.2,6.9,5.9c0.3,2.7,1.2,9.1,3.2,9.1c1.4,0,1.8,2.9,3.9,2.9c3,0,6.8-4.8,6.8-6.8
	c0-1.8,1.9-3,2.7-3.6c0.5,0.5,1.7,1.7,2,1.7c0.3,3.5,5.4,4.2,4.2,7.1c-1,2.4,2.8,5.1,3.9,5.5c0.1,2.3,2.1,4.8-1,6
	c1.5,1.3,3.1,3.1,5.7,3.1c-0.4,4.6,5.9,6.3,8.9,5.8c3.7,3.7-6.4,4.7-8.7,6.4c3.1,1.6,9.3-1.8,12.4-3.4v1.6c1.4,0.7,0,1.9,0.9,1.9
	c6.5,10.3-3.6,9.2-9.3,13.4c-3.5,5-6.8,2.9-12.7,2.9c-5.4,0-12.3-2-14.6,4.5c-2.6,2.9-5.1,1.7-6.6,5.2c3.6-0.5,5.9-4.5,11.1-4.5
	c9.5-0.6,6.7,3.7,1.2,6.2c1.1,0,2.4,0.4,3,0.4c-3.6,5,2.8,9.6,7.7,10c0.7,0,3.8,0.1,3.8,1.5c0,1.1-8.1,4.4-8.7,4.6
	c-2.4,0.8-4.6,4.3-5.5,4.3c-5.5-3,0-8.3,4.6-8.4c-1.9,0-1.8-0.1-1.8-1.9c-4.7,2.2,0.4,3.5-8.8,2.8c-0.1,0.6,0.3,1.2,0.6,1.7
	c-1.7,3.2-4.1,1.6-6.5,2.2c-1.7,1.8-7.6,5.1-5.4,9.6c0.2,1.9,1,3.1,2.5,1.4v0.9c-1.4,0.4-3.4,0.9-3.9,0.4c-2.4,1.9-6.4,1.2-8.8,2.9
	c1.4,0.3,3.1-0.7,4.2,0c-1.8,1.4-8.9-0.8-5.2,3c-0.5,1.2-3,7.9-4.1,4.5l-0.6,0.6c0.2,1,1.1,1.4,1.1,2.5c0,0.8-2.4,5.3-2.7,5.3
	c-0.7-0.2-0.4-1.7-0.5-2.2c0-0.9-1.1-3-1.3-4.3c-0.5,2.3,0.4,3.8,0.5,6.2c0,1.3-0.7,1.2,0,1.9h0.8c0.2,1.2-0.3,3-1.6,2.9
	c0.5,0.9,1,1,1.6,1.1c-0.2,1.4-0.8,1.3-1.8,1.3v1l1.4,0.9c-1.4,2.4-5.1,2.4-6.4,4.7l0.3,0.2c-5.6,3.4-12.7,5.9-12.7,15.3
	c0,4.3,3.3,5.6,3.3,9.7c0,2,1.5,3.2,1.4,5.9c0.3,5.4-3.7,7.4-5,1.9c-1.4-2.1-2.6-2.7-3.6-4.8c-1.8-5-1.3-16.2-8.3-10.4
	c-2.1,0-3.4-3-6.3-3c-2,0-3.1,2.3-3.8,0c-1.9,0.5-4.4,0.3-6.4,1c1.2,0.4,0.9,0.4,1.7,0c-0.1,2-1.2,3.1,0.2,4.2
	c-3.3,1.8-6.2-2.6-8.5-2.6c-2.7,2.1-2.5,0.3-5.1-0.3c-3.4,0-5.1,3.3-6.5,4.8c-1,1-2,0.1-3.2,0.6c-2.6,0.9-5.3,6.2-3.6,9.7
	c-0.1,0-0.2,0-0.3,0c1.2,2.7,0,5.2-0.6,7.6c0.2,1.9-0.7,8.5,1,9.9c0,2.8,1.1,4.9,3.2,6.9c2.1,2.3,2.1,4.6,5.2,5.6
	c3.4,4.2,6.6-2.4,10.8,0.5c0.9,0,1.5-1.5,1.7-2.1c0.5-1.6,2.5-3.2,2.5-5.2c0.4-6.2,8-5,12.2-4.4c0.4,2.6-1.9,4.8-2,7.8
	c0,2.1-0.7,3-1.4,4.3v-0.9h-1v6.2c0,1.3-1.4,1.8-2.1,2.6c-0.2,4.5,9.5,0.5,12.7,1.3c2.9,0,3.6,2.2,5.7,2.7c0,2.2,0.2,5.4-0.8,7.7
	c0,0,0,7.9,0,7.9c0,2.9,2.5,4,4.4,5.1c1.3,0.7,1.3,3.1,3.3,3.1c7.2-2,8.1-5.1,14.1,1.6c-0.1,0.1-0.4,0.5-0.8,1
	c0.4-0.3,0.7-0.6,0.9-0.9c0.9,0.3,0.6,0.3,1.4,0c-0.1-0.5,0-1.4,0.7-1.4c0-1.3,1.2-1.7,1.9-2.2c1.4-2.1,0.9-5.9,4.3-6.2
	c2.8-1,4.7-1.6,7.7-2.6c1.5-0.5,1.9-2.5,3.4-2.5c1.5,0.6,1.2,3.2-0.1,3.1c-0.3,1.9-1.1,4.1-1.1,5.3c-0.2,2.8,2.3,6.1,3.1,1.8
	c-0.9-3.5-3.3-4.9,1.5-6.5h2.8c-0.5-1.5-2.2-0.9-2.2-2.5l2.1,0c0.5,2.1,3.1,2.8,4.9,3.2c-0.3,3.8,5.9,1.9,7.8,2.3
	c0.5,2.5,5.4,1.5,6-0.4c0.1-0.4,2.6-0.4,3-0.7c1.2,0,3.3,0.4,3.3,0.4c-0.5,0.4-1.4,0.5-1.8,0.3c-0.4,2.7,3.1,3.2,5.1,3.9
	c1.5,0.5,1.2,2.5,1.7,4.1h3.3c2.2,2.5,3.3,2.1,4.7,5.3c0.2,0.5,1.2,0.8,1.8,0.8c1.3,4.3,8.3,3.6,12.1,3.9c0.8,0.4,2.7,1.4,3.9,1.4
	v0.2c2.5-0.5,4.8,4.1,7.1,4.8c0,1.5,1.5,5.7,2.1,7.1c0.6,1.3,2.1,1.3,2.1,2.6c-1.9,2.6-5.3,3.9-5.3,7.8c0.2,2,3.3,0.9,3.7,4.4h2.8
	c0.6,5,4-6,6.4-4.9c2.1,0,6.4,2.5,7.9,3.5c2.7,0.7,2.6,2.3,2.5,4.7h0.8c3.3-3.3,4.7,0.2,7.9,0.7c3.7-1.1,7.3-0.3,10.1,1.4
	C1194.9,449,1201.6,438.7,1202.1,450.3L1202.1,450.3z M1048.9,253.5c0,0.4,0.4,0.7,0.6,1.1c-0.1-0.3-0.3-0.6-0.4-0.8
	c3.8-0.6,12.2,1.7,12.5-3.8c0,0,0.1-0.1,0.2-0.2c-0.1,0.1-0.2,0.2-0.2,0.2C1058,250.4,1051.5,251.2,1048.9,253.5L1048.9,253.5z
	 M1048.5,257.9c0.6-0.3,1.9-1.1,1.7-1C1049.8,257.2,1049.2,257.5,1048.5,257.9z M1045.6,257.4c-5.3-1.1-5.2,5.1-8,0.8
	c0,6.6,7.2,1.3,10.8-0.2C1047.9,258.3,1047.2,257.4,1045.6,257.4L1045.6,257.4z M1016.2,230.8c-1.1,0-6.2,3.7-8.9,7.5
	c1.4,0.3,2.7-0.6,3.9-0.9c1.3,3.2,3.9-0.1,5-0.4c1.3,0,3.4-2.5,5.2-2.8c0,1.8-0.8,2.2-1.3,3.2h2.4c1,3,3.7,0.7,5.3,0.3
	c2.8,0,4.3,1.7,6.8,1.7v1.6c-1.8,0.6-4.4,0-5.3,0c-2.6,0-7.3,3.6-7.6,6.2c1.2-0.8,1.7-1.8,2.9-1.8c-1.7,3-5.8,14.8-0.2,15.5
	c4.9-1.9,0.3-12.8,3.7-15.4c4.3-0.3,2.3-3.4,4.3-3.4c5.2,1.8,6.4,3.3,4,8.7c1.4,0,1.2-0.5,2.4-0.9c0.5,2.1,0.5,3,1.7,4l0,0
	c1.7,0,2.7-6.2,3.2-8.3c4.7,5.5,6.4-1,1.3-3.6h-3.1c-4-2.4-10.4-1.8-10.3-8.3c-0.7-0.9-5.4-5.6-6.9-4.9c0,0.2,0.1,1.3-0.1,1.8
	c-0.5-0.5-1.4-2.9-2.8-2.9c-1.2,0-0.7,2.1-1.9,2.7C1018.3,230.9,1017.4,230.8,1016.2,230.8L1016.2,230.8z M857.7,172.8
	c-1.3,2.8-3,3.3-5.3,1.1C854.7,176.1,856.4,175.6,857.7,172.8L857.7,172.8z M866.7,178c-1.8-2.3-3.4-3.9-5.8-6.5l0,0
	C863.3,174.1,865,175.6,866.7,178z M873.2,188.7c0.2,0.2,0.3,0.3,0.5,0.4c-2.6-1.6-2.1-5.7-4.3-7.1
	C871.5,183.4,871.3,186.8,873.2,188.7L873.2,188.7z M873.8,189.1c0.6,0.3,1.4,0.3,1.9,0.7C875.1,189.4,874.4,189.3,873.8,189.1z
	 M1054.1,330.5c-0.3,1.3,0.9,3.6,1.8,1.8C1056,331.3,1055.2,330.3,1054.1,330.5L1054.1,330.5z M1054,323.1c-0.6,0-1.4,0.5-1.7,1
	c0.7,0,1.9,0.1,3.1,0C1055.2,323.8,1054.9,323.1,1054,323.1L1054,323.1z M1057.7,324.7c-0.1,0.4,0.2,1.2,0.6,1L1057.7,324.7z
	 M1072,345.3v-1.2c-0.5,0.8-1.4,1.4-2.4,1.2v0.8C1070.4,346.2,1071.5,345.9,1072,345.3z M871.6,198.7c3.4-2.2-2.6-4.6-1.9-8
	c-2.5-0.5-3.1-0.5-3.1,2.6c1.4-1.1,0.7-0.4,2.6,0C868.7,194.9,869.4,197.8,871.6,198.7L871.6,198.7z M863,185.7
	c-2.5,0.8-1-2.7-1.2-5.5c-1.7,1.1-0.6,0-2.7,0c-3.1,0.4-0.5,5.3,1.8,5.2c0,2.1,0.5,3.6,1.9,5.2C864,189.4,862.8,187.5,863,185.7
	L863,185.7z M972.7,111.1c2.1,0,2.6,0.5,4.8-1c-2.3-1.9-12.2-4.8-12.2-9c0-3.4-3.2-6.4-3.2-11c0-1.2,2.6-2.3,2.6-4.3
	c0.1-4-9.2-3.7-7.6,0.6c-1.9,1-1.2,0-3.3,0c-4.6,0.3-0.2,7.9,0.6,10.7c-3,3.3-3-1.5-3.6-3.8c-0.9-2.4-3.8-4.2-6.5-3.6
	c0.2,0.8,0.5,1.2,0.6,2.3c-1.3,0.4-2.2,0.7-3.6,0.9c-0.9-4.2-6.6-5.2-9-1.6c-0.5-0.8-0.3-4.5-2-4.5c-7.1-0.7-25.5,13.6-7.3,13.8
	c-1.3,0.9-4.7-0.1-4.7,2.7c0.8,5.7,14.8-0.2,18.4,3.6c-5.1,0.4-12.1,0-15.4,3.2c3.1,6.6,7.1,3.3,12.1,5.2c1.4,1.2,0.1,3.3,2.1,3.3
	H946c2.5-1.9,5.5-0.9,8.5-2.6c1.8-0.9,1-2.3,3.1-2.3c3.4,0,5.1,3.9,9.7,3.9c3,0,5.7,0.1,6.8-2.3c-0.5-0.4-1.1-0.8-1.2-1.8
	C971,113.8,970.3,111,972.7,111.1L972.7,111.1z M898,98.5c0.3,0.7,1.2,2.6,1.8,2.6s0.9,1.3,1.8,1.3c1,0,9.1-3.2,9.1-4.3
	c0-3,5.2-8.4,8.9-9.7c1.2-0.4,7.5-1.4,7.5-2.8c0-3-5.8-5.6-8.3-5.6c-1.5,0-3,1.6-4,0.4c-4.6-1-6.1-4.2-11.1-1.7
	c-2.8,0-4.1-1.3-7.1,0c5,7.8-3.3,10.5-4.2,17.3C892.3,97.4,897.1,97,898,98.5L898,98.5z M926.1,63c2.8-0.1,5.2-0.9,5.9,2h2.7
	c3.2-0.4,10.2,8.8,13.9,3.2c-1.3,0-1.9-0.1-2.4-0.4c0.1-0.3,0.8-0.5,1.2-0.5v-1.7c-5.9-1.2-1.5-4.5,1.3-6.1c0.7,0.5,1.4,0.9,2.2,0.9
	c-0.5,2.9,1.4,6.2,4.5,6.5c1.1,0,1.7-1.6,3.2-1.6c5.2,0.8,1.3,8.2-1.2,9.3c-0.7,0.3-7.7-0.6-7.7-0.3c-4.5,1.1-10.7,3.8-15.6,4.2
	c-4.3-0.3-4.4-4.3,0-3.5c-0.7-1-1.8-1.7-2-3c-0.7,0.1-1.3,0.9-1.3,1.7c-3.3,1-6.4,1-9.1,0c-1,0-1.8-0.9-1.8-2c0-1.3,0.5-1,0-1.9
	c1.5-0.6,2.6-1.8,4.3-1.2c-0.5-0.2-0.9-0.4-1.3-0.6v-1.9c1.7-0.1,1.7,0,2.7,0.1c-0.4-0.1-0.8-0.3-1.2-0.6c0.5-0.8,1.6-1.6,2.7-1.4
	C926.5,64,926.1,63.6,926.1,63z M928.4,66.9c0.7,0.1,1.4,0.3,1.8,0.3C929.6,67,929,66.9,928.4,66.9z M914,69.2
	c1.3,3.8,5.4-0.1,5.6-3C918.4,66.1,914,67.2,914,69.2z M930.6,61.4h2.6v-1.7h-4.2C929.1,60.9,930,61.4,930.6,61.4z M905.4,66.2
	c1.2,0,1.9,0.8,3.3,0c1,2.9,4.1,2.2,4.5-0.9c2,0.3,3.8-1.8,4-4c1.1,0.7,0.9,3.6,3,3.6l5.1-4.2c0-1-0.8-1.3-0.9-2.6
	c5.6-4.5-4.6-3-5.6-2.3c-1.1-0.1-1.2-0.3-2.1-0.3c-3.3,0-3.9,3.4-6.2,4.8c-2.8,1.7-6.5,2.2-8.3,4.9c0,0.4,0.9,1,1.2,1.9
	C904.3,67.2,904.7,66.2,905.4,66.2L905.4,66.2z M939.1,49.1c2.2,0,6.7,0.4,8.3-1.3c-1.5-5.7-11.8-2.2-13.6,1.3
	C937,47.3,936,48.3,939.1,49.1z M943.9,49.7c-20.2-0.2-3.1,13.2,0.4,2.9h-3.3c1.8,0,3.8-0.4,5.1-1.6
	C945.7,50.5,945.2,49.7,943.9,49.7L943.9,49.7z M930.8,53.9c0.8,0,1.2-0.8,1.7-1.5C928,48.1,926.9,52.9,930.8,53.9z M989.8,91.3
	c1.3-3.8-1.4-2.6-4-2.1c0.9-0.9,6.2-4.4,2.6-6.1c0,0-4.7,0-4.7,0c-2.6,0-5.2-0.5-7.1,1.6c-2.3,2,0.9,2.7,3,2.7v3.5
	c-2.5,0.5-5.2-1.3-7.1-1.6v2.2c3.4,3.8,7.1,3.2,10.4,6.9c0.7,0.8,1,2.2,2.6,2.2c5.1-4.9,6.6,0.2,7.1-8.7
	C991.8,91.7,990.3,91.4,989.8,91.3z M966.4,61.7H965c0,0.7,0.2,1.1,0.4,1.5l-0.2-0.2v2.3c1,0.8,1.8,1.7,3,1.3l0.3,1.3h1.8
	c1.2,4.2,8.8-1.4,11.5,0.7c-1.4,0.9-3.7,1.1-3,3.2c-3.6,3.2,5.3,2,7.7,1.3c-0.6-4.3,4.2-14.5-3.8-10.4c-2.9-0.1-4.7-2.1-7.5-1.2
	c0.5,1.8,2.1,1.8,4.2,1.8v2.9c-3,0-3.9-2.8-6.5-2.8v1.6c0.5,0.6,1.4,1.6,2.4,2.2C971.6,68.3,969.8,61.7,966.4,61.7L966.4,61.7z
	 M984.8,114.9c-8.1-0.3,5.8,4.3,7.7,4.5c1.3,0,1.8-1.3,3-2.1c-0.7-1.8-5.6-6.6-7.3-6.6C985.7,110.8,986.2,114.4,984.8,114.9z
	 M1000.8,80.3c-3.3,0.4-3.4,1.9-3.2,3.2h-2.7c0.2,3.1,0,6,1.9,8.4c-0.1,0.6-0.1,2.2-0.1,3.9h2.4c1.4-1.6,2.4-1.9,2.7-4.3h-1.5
	c0.7-2.6,0.7-0.9,3.3-0.9c3.6,0,5.2-2.8,6.8-5.2c1.3-1.1,2.4-1.5,2.1-3.7C1008.1,81.8,1004.8,80.2,1000.8,80.3L1000.8,80.3z
	 M963.5,57.8c0.8,0,1.5-0.6,1.7-1.5c-2.5-0.9-2.7-3.6-5.8-3.6C959.3,54.3,962.1,57.8,963.5,57.8L963.5,57.8z M962.9,73.6
	c2.8,0.3,5.6,0.2,3.3-3.5C964.5,70.8,963.3,71.4,962.9,73.6L962.9,73.6z M962.9,42.6c-0.1,0.5-0.5,1-0.8,1.3c1,0.8,1.5,0,4.2,0
	c-0.2,0.4-0.2,1.2,0,1.6c-1.4,0.5-2.5,0.4-3.5,1.6c1.4,2.4,6-0.3,7.1,1.5c10.4,0,5.8,2.3,10.9,3.8c4.4-0.5,0.9-3.8-1.2-5.2
	c0.2-0.4,0.7-0.9,1-1.3c-1.4-1.7-2.7-4.3-5.3-1.9c-1.3,0-1.2-3-3.6-3c-5.5,3.2-2.7-3.7-10.7-0.2C960.8,42.2,961.2,42.6,962.9,42.6
	L962.9,42.6z M972.7,50.6c-5.2,2.6,2,2.4,2.7,1C974.4,51.3,974,50.6,972.7,50.6z M1017.2,75.7h1.4c-0.2,2.2,3.4,2.6,5.9,1.9h9.5
	c1.1-0.8,1.3-1.4,3-1.7c0.9,4.1,13,1.7,12.2-2.6c0,0-0.7,0.1-1.5-0.1c0.1-0.5,0.3-0.9,0.6-1.2c0.3,0,0.8-0.1,0.9-0.2
	c-5.4-8.2-16.4-0.7-24.3-0.4c-3,0-5.3-0.8-8.2-1.6c-0.5,0.4-1.9,1.2-1.9-0.7c0-0.4,0.6-0.4,0.8-0.7c-1.7-1.4-4.6,0.5-5.3-3h4.7
	c-1.1-1.7-6.5-0.9-5.6-3.9h-2.1c-4.6,3.9-6.9-3.8-12.7-3.5c-1.4,0-3.6,0-3.6,1.9c1.1,1.6,8.9,6.6,10.9,3.3c2,2.2,2.6,4.3,4.8,6.6
	c-4.7,3.1,4,7.9,7.1,7.9C1014.9,77.9,1016.7,76.4,1017.2,75.7z M1002,73.1c0-1.7-2.8-4.3-5-4.3c-2.7,0-2.2,3-3.5,3
	c-0.2,0-1.5,0.7-1.5,2C994.5,74.6,1002.3,81.1,1002,73.1L1002,73.1z M1002.3,54.3v-1.7c-2.6,0.1-7.6-0.1-9.2,1.6
	C994.1,54,1002.1,57.2,1002.3,54.3L1002.3,54.3z M989.9,49.7c-3.8,2.8,2.5,2.7,7.1,1.3c-0.3-1.4,0-2.3,0-3.2c0-2.7-4.2,0.1-4.2-3
	c-1.3,0-3.8-0.9-4.2-2C983.1,43.7,987.5,48.1,989.9,49.7L989.9,49.7z M983.9,36.8h2v-2.6c-0.8,0-2.6-0.1-4.2,0
	C981.8,35.7,983.2,36,983.9,36.8L983.9,36.8z M999,34.2c-1.1,0-3-0.8-3.5-1.3h-1.8c0.3,3.8,2.8,4.1,6.9,4.1c-0.7,1-1.5,1.2-2.7,1.7
	c0,2.3,2,1,3.4,0.3c1.3,4.1,4-1.3,10.1,1.7c-1.7,0.4-9,0.1-9,2.6c0,2,3.3,3.2,5.3,3.2c-0.4,0.4-0.7,0.8-1.5,0.9
	c0.6,2.8,8.1,3.9,7.6-0.6c1.1,0.8,3.2,2.5,4.3,2.3v-1.7h2.1c-0.3-1-0.8-1.3-1.5-2.6c0.6-0.7,0.8-1.3,1.4-2c1.2,6.5,4.2-0.8,7.5-1.6
	c2,0,3.4-0.2,2.9-2.6c-1.6-0.1-4.6-1.7-5.8-1.7c-0.2,0-2,1.2-2,0c0-0.8,0.8-1,0.8-1.9s-1.4-1-1.4-1.9c0.3-2.3-0.9-2.3-2.7-2.2
	l0.6,0.9v1.7h-1.4c-1.1-1.2-0.3-2.9-2.1-3.6c-1.8-0.8-3,0.5-4.7-0.3c-1.9-0.8-1.4-4.5-3.8-5.6c-2.1-0.9-4.5-1.2-7.5-1.4
	c0.1,1.8,2.1,1.9,3.6,2.7c-2.4-0.1-4.8-0.5-6.5,1.2c1.4,3.6,2.2,0.9,4.9,2.1c-1.1,2.4-2.2,0.5-4.5,0.4c-6.2,0.2-0.7,3.7,2.5,4.2
	C1000.1,33.1,999.5,34.2,999,34.2z M1042.3,145.9c-0.7-5.3-6.2-3.8-9.2-7.5c-0.4,0.2-0.7,0.5-1.1,1.1c-0.6-1.3-1.2-1.7-1.8-3.6
	c-4.1,0.9-3.9,6.8-3.9,9.7c-0.3,2.3-2.5,1.2-3,4.3c0.9-0.1,3.2-0.5,5.1,0c-0.8,2,0.7,3.9,1.8,1.6c1.7,0.8,5.6-1.9,5.6-4.8
	c0.7,0.3,4.5,3.3,4.5,3.3c2.4,0,5.2,0.3,7.1-1.4C1046.3,146.7,1044.2,147.4,1042.3,145.9L1042.3,145.9z M1064.8,124.4
	c0-4.3-7.3-5.2-7.3,0C1057.3,128.5,1064.3,127.7,1064.8,124.4z M1038.1,153.3c-0.1,0.8-1.7,1.9-2.6,3.2v1.7c1.9-0.3,4.9-2.9,5.9-4.4
	C1040,153.1,1040.5,153.1,1038.1,153.3L1038.1,153.3z M1050.9,90.7c2,0,3.1-1.3,4.4-1.3c2,0.4,4.9,2.2,5.7-1.2
	c-3.7-3.2-8.8-4.6-14-5.1c-3.1,0.2-2.1,4,0.4,4.7C1046.6,90,1048.6,90.7,1050.9,90.7L1050.9,90.7z M1048.2,160.8
	c1.2,0,1.4-1.8,2.1-2.9c-1.2-1.6-3.9-1.4-3.9,0.9C1046.4,158.8,1048,160.8,1048.2,160.8z M1069.9,123.5c-0.8-1.5-2.6-3.2-3.9-0.8
	C1066.4,124.3,1068.3,123.8,1069.9,123.5z M1053.3,113.9c-1.4,0-4.2,3-2.7,3S1053,115.5,1053.3,113.9z M1078.8,102
	c0-3.4-4.8-2.4-6.9-2.6c-7.3-1.6-3.3-8.6-16.2-8.4c-2.1,0-2.7,3.2-4.7,3.2c-1.1,0-1.4-1.3-2.7-1.3c-2.7,1-2.9,2.8-2.4-1.3
	c0-2.9-1.7-7.4-4.7-7.4c-6.4-0.1-15.9,2.9-11.5,10c0,1-1.7,2.6-2.4,2.6c-1.8,0.1-1.2-2.8-1.2-4.6c-3.7-2.8,3.3-5.8,4.2-8
	c-4.9-2.6-10.3-0.3-13.4,3.5c-0.5,0.5,0.1,2.9-0.8,3.6c-2.8,1.4-3.1,7.1-0.6,9.4c0,0,5.5,0.5,6.5,1.3v1.7c-2-0.3-3.8-1.1-5.3-0.4
	c0.2,1.8,2,2.1,2.6,3.9h5.7c2.8,5.1,17.5,1.3,21.6,2.6c-0.1,0.9-0.6,3,0.9,3c2.1,0,4-4.9,5.6-4.9c1.3,0,7.7,6,8.8,7.2
	c-1.8,0-4.2,1.5-1.9,3.2c1.5,0,2.2-1.6,3.8-1.6c2.5,0,10.1,6.4,10.1,9.7c0,1.8-2.5,4.7-3.6,5.8c-0.8,0.9-3-0.3-3,1.9
	c0,1,1.5,2.3,2.1,2.7c-4.4,3.7-12.9-0.7-15.2,5.3c0,1.8,3.8,3.6,5.1,3.6c1.4,0,2.1-2,3.6-2c2.2,1.1,2.7,1.5,4.4-1
	c3.4,2.2,5.3,4.7,9.2,6.5c-2,4.1,5.1,4,7.9,5.8c3,1.9,5.2,1.2,8.7,3c0.4,0.1,0.6,1.6,1.2,1.6c0.5,0,1.2-0.6,1.2-1.6
	c0-3.6-6.6-6.4-8.7-9.1h1.8c1.3,1.8,8.9,4.9,11,5.2c4.3-8.9-1-4.3-0.4-10.8h-2c-0.3-3.1-4.3,1.5-5.9-6.5h-1.5v-1.9
	c0.5,0.4,1.1,0.3,1.8,0v-1.6c-1.1,0.3-1.3,0.4-2.4-0.3c6.5-5.7,8,7.7,14.2,7.4c1.3,0,1.5-2.2,1.5-3.6c3.3-0.4,2.5-1.1,2.6-3.2
	c4.3,0.6,4.9-5.5,0.3-5.2c-0.6,0-1.5,0-2.1-0.6c-1.3-3.8-6,3.5-6.8-5.2c-2.5-0.3-5.7-1.6-5.9-4.6c-1.5,0-2.2-0.4-3.3-1
	c1.1-1.9,2-1.9,3.9-3c-1.5-2.1-2.6-0.7-5.3-1.4c0.9-1.6,2.5-1.4,4.2-1.8c-0.9-2.9-2.9-3.4-5.3-3.1v-2.2
	C1083.8,105.2,1082,103.1,1078.8,102L1078.8,102z M1053.6,150.9c1.2,1,1.5,1,2.7,0C1054.9,150.1,1054.7,149.2,1053.6,150.9z
	 M1033.8,135.1c-0.1,0.9,0.8,1.9,2.4,2.1C1035.3,136,1035.3,134.3,1033.8,135.1z M1012.1,19.9h3.6c-1.4,0.5-2.1,0.9-3.3,2.2
	c4.1,3.2,4.4-2.9,9.2-1c-3.1,1-6,0.6-7.4,4c1-0.1,3.3,0,5.6,0c-1.5,0.1-2.4,0.8-3.2,1.4c1.4,1.7,6.8,4.2,9.1,1.4h1.5
	c-0.7,1.7,2.4,2.6,4.8,2.6c0.9,0,1.4-1.3,2.4-1.3c3.7,1.8,10.2,1.1,13-1.9h1.8c-2.4,3.5-7.8,4-11.6,3.6c-2.7,1.7,2.6,4,3.6,5.3
	c-7.2-1.2-2.7-6.1-15.4-4.7c0.2,1,0.5,1.6,1.8,1.6c-1.2,0-3-0.2-3,1c0,2.3,8.1,2.3,8.1,6.5c-0.1,5.5-10.1,0.2-10.1,9.3h1.8
	c0.6-0.9,2-1,3-0.9c0,3.1,3.7,4.7,5.3,6.5h-2.1c-2.2-1.4-3.6-3.6-7.3-3.6c-1.2,0-3-0.5-3,1.3c0,2.3,2.5,2.7,3.9,3.9
	c-2.5,1.9-8.7,0-8.7,5.2c0.1,1.4,2.1,1.2,2.6-0.3c5.1,1.7,10.3,4,14.8,1.3c0,0,8.9,0,8.9,0c2.4,0,1.2,1.9,3.9,1.9
	c5,0.2,15.6-6.3,4.8-5.6c0-4.7,7.5-2.3,4.1-8h5.9c2-1.5,2.8-4.7,5.3-6c-0.7-1.8-2-2.3-3.4-3.1c2.2,0.3,3.7,0.5,3.4-2.3h-3.3
	c1.9-1.7,4.9-2,7.5-2.9c1.9-0.6,4.5,0.9,6.2-0.4c10.1-12.7,14.4-8.6,24.7-16.1c-3-0.1-7.7,0.9-8.9-0.4c6.3-3.4,12.1-1,16.8-4.9
	c0.8-0.6,3-0.2,3-1.9c0-2.3-6.3-1.7-7.7-3.3c-0.8-1.8-2.4-2.3-4.2-3.2l-9.5,3c0.9-0.3,1.3-0.5,2.1-1.4c-5.9-4.1-16-0.8-22.3-3.1
	c-1.7,0-2.1,2.2-3.8,2.2c-1.8,0.1-4.3-3.1-5.9-0.7h-13.6c-1.2,0-2.1,0.4-2.7,1.7c-1.6,1.4-0.4,0.3-2.4,0.3c-3.4,0-4.9,2.7-5.9,5.8
	c-1.1-0.4-5.7-2.9-7.9-2.9c-2.5,0-0.9,2.9-4.7,2.9c0,0.5-0.5,1.1-1,1.1c-4.1-0.2-13.1,0.7-14.5,4.8h2.6
	C1010.6,20.5,1011.3,20.1,1012.1,19.9L1012.1,19.9z M1243.6,107.9c-2.5-0.9-13-0.4-13-4.3c4.2-1,2.1-1.6,1.4-4.9
	c6.9-1,4.7,6.1,11,6.5c1.3,0,3.2-0.1,3.2-1.6c0-7.4-7.6-9.6-11.9-14.3v-2c0.2,0,0.6,0.1,1.5,0c1.1,3.8,8.6,9.5,8.3,2.2
	c0-3.5-5.3-2.3-6.5-5.8h1.8c0.9,1.4,2.2,2.1,3.6,3c0.9-2.7,5.7-1,6.5-4.9c-0.6-0.3-1.2-1.1-1.2-1.9c2.2-0.3,4.6-1.4,5.3-3.5
	c-1.4-0.5-4.7-0.4-4.7-2.6c0-1.7,1.9-1.7,3.8-1.7c-0.6-0.8,0-1.8,0-2.8c0-1.9-1.8-2.7-1.8-5.6c-3.4,0.8-5.8-3.4-1.4-4.2
	c2.1,0,8.3,1.2,8.3-1.9s-4.6-2.5-5.1-4.5c0.7,0,1.5-0.4,2.1-0.8c-3-3.2-4.7-1.9-8.3-2.5c0.9-8.6,7.5-5.7,6.8-13
	c2.2-0.7,5.3-1.2,5.3-3.2c0-1.3,0.8,0.1,0-1.7c2.1-0.5,5.3-0.5,5.3-4.2c-0.9,0.8-1.1,0.8-2.5,0c5.3,0,7.8-3.8,11.7-5.2
	c0.7-0.3,3-1.4,3-3c-0.6-2.1-8.4-7.2-9.5-2.9c-6-0.2-5.1-0.3-10.1,2.6c-2.1-0.4-8.5-0.5-10.7-0.4c-1.9,1.6-7.9,10.1-11,11
	c0.3-1.3,8-10.1,8-11.3c-1-10.5-13.3,3.7-16.9,3.5c-1,0,4.2-5.5,4.4-6.5c-2.1-0.9-22,1.7-24,0c6.5-1.4,35.8,0.8,37.9-6.8
	c-12.5,1-16.7-7.9-28.1-8.8c0,0-17.2,0-17.2,0c-7.6,0.6-13.5,4.6-21.1,3.6v1.5c-6.6-0.8-13.9-2-19.8,1.7c0.6,0.9,1.6,1.1,2.4,1.9
	c-9.5-0.2-2.5,5.2,2,6.8h-5.3c-2-1.9-17-9.4-12.7,0c-2.8-0.1-5.9-0.7-7.5-3.2l-1.2,1.3c0,0.9,0.6,1.7,0.6,2.6c-2.2,0-2.8-3.9-5-3.9
	c-3.2,0-5.6,2.1-8.9,3c-4.5,0-6.3,1.3-11,1.9c-4.3,0.8,0,9.8-7.8,5.5c-3.7,5.5-26.4,10.1-5.2,11.7c-0.2,9.5-6.8,6.9-13.3,7.8
	c-2.2,0.8-3.6,2.2-5.7,3c-2.6,0.9-6.8-0.5-6.8,3.5c1,2.9,16.5,8.2,17.2,4.3h4.7c-0.3,1.4-0.3,1.9-1.5,2.8h-6.8
	c-1.8,2.7-7.4-1-8.7,3.6c2.3,0.9,1.5,0,4.2,0c1.4,0,2.8,1.4,4.7,2.2c-0.5,1.2-1.3,1.3-2.4,2.1c1.7,2,6.8,4.1,9.2,2.7
	c-0.3-0.1-0.8-0.7-1.2-1.1c1.5-1.2,4.5,0.1,5.9,0.5c1.5,0,2.2-1.7,3.8-1.7c14.7-1.7,26.9,11,28.5,24.4c1.1,0.1,3,0.3,3,2.2
	c0,3-2.6,2.7-2.6,5.6c0,1.9,1.1,2.2,3.2,2.2c1.5,0,1.9-2.2,3-2.2c3.9,0,5,6.1,8.7,7.4c0,5.1-7.7-1.6-10.4,0
	c0.5,3.7,9.1,4.3,12.8,5.6c-1.1,3.6-2.8,4.9-3.6,8.8c-1.7-0.8-1.7-0.7-3.3,0.3v0.3c-2.4,2.1-3.1,4.7-4.7,7.1v3
	c0.7-0.7,1.5-0.5,2.4,0c-3.2,4.6,1.2,7.3,2.7,10.6c0.3,1.3,0.7,3.8,1.2,4.3c2,1.2,2.6-2.1,4.4,0.4c-5.2,3.2,2.7,11.7,5.1,14.2
	c0.4,0.3,0.1,2.1,0.8,2.6c1.9,1.6,3.1,0.6,3.9,3.6c1.4-0.1,3.3-1.7,5-1.7c4.1,0.7,2.2,8.2,8.1,4.9c0.2,0.8,0.6,1.3,1.4,1.3
	c3.2,0,1.8-6.8,4.5-8.2c-0.2-1.4,0-4.8,0-7.1c0.4-4.6,8.9-2.6,4.1-9.7c0-0.6,0.5-1,0.8-1.6c-1.7-5.4,5.8-4.3,8.7-7.1
	c1.1-1.2,0.6-2.5,2.4-3.3v2.6h1.8c15.1-4.9,5.9-5.1,16-12.7c0-1,1.2-1.4,2.4-2.2c6.1,0.3,12.1-2,17.8-3.2c3.4-1.2,4.6-4.8,8.5-6.2
	C1240.6,109.6,1241.8,109.5,1243.6,107.9L1243.6,107.9z M1135.7,113.6c2.4-0.1,6.9,0.6,7.3-2.6c-3.1-1-4-4.6-7.1-4.6
	C1132.1,106.1,1133.4,113,1135.7,113.6L1135.7,113.6z M1130.7,215.2c-3-6.1-7.2,12.7-10.8,13.2c0.1,0.4,0.6,0.7,0.9,0.7
	c0.5,1.5-4.2,3.2-0.9,4.6c5.2-2,5.5,1.3,9.6-0.5c0.6,1.3,2.1,0.5,3.3,0.5c-0.2,0.3-2.5,2.5-0.6,2.1c1.4,0,2.5-2,3.4-3.5
	c1.2,1.8-0.1,3.7,2.1,3.8c0.2,3,3.3,1,3-1.6c0-1.3-0.8-1.2-0.8-2.7c-0.7,0.5-0.4,0.8-1.5,0.8c0-0.9-0.8-1.4-0.8-2.1
	c0-0.5,1.1-0.8,1.2-2c-0.5,0-1.1,0.1-1.3,0.4c0-1.9,0.1-3.1,0.1-4.3c-0.6,0.4-2.1,0.4-3.4,0l-1.4,0.5v-0.6h-2.1v-1.2l0.6-0.6
	c-1.3-1.2-2.4-0.5-3.7,0.4C1127.2,219.9,1130.8,218.5,1130.7,215.2z M1045.3,208.7c0.1,0,0.6,0.1,0.6,0c0-1.8-2-2.2-4-2.2
	c0.1,0.2,0.1,0.6,0,0.9C1042.5,208.2,1044.2,208.7,1045.3,208.7L1045.3,208.7z M891.2,225.3c2.3,1.6,6.6,5.3,9.8,4.8V229
	c-3.1-3.4-5.9-6.5-11-8.3c-1.2-0.7-3.2-2.8-4.9-1.2c0.6-0.1,1.2,0.3,2.3,0.5c-0.1,0.4-0.6,0.9-1.2,1.2c0.5,1.6,3.8,2.9,6.2,2.9
	C892.1,224.4,891.5,224.4,891.2,225.3L891.2,225.3z M873.5,207.7c-0.8-1.3-0.4-3.3-0.6-4.4c-0.4,1.8-2.9,2.5-0.8,0.1
	c-1.1-0.1-1.7-0.9-2.7-0.9v1.1c0.5,0.8,1,2.3,1.4,2.3c0.7,0,1,1.4,1.9,1.7c-0.8,0.9-0.4,3.8,1.2,3.9c1.2,0-1-2-1-2.5
	C872.9,208.5,873.5,208.2,873.5,207.7z M796.9,184.8v1.6c0.8,0.6,1.4,0.8,2.5,1.7c1.8-1.6,2.5-2.5,4.6-3.6v-1.6
	C801.3,182.5,799.3,183.9,796.9,184.8z M1109.9,225.7c-2.5-1.6-4.7-4-8.4-3.1C1103.3,223.9,1107.9,228.3,1109.9,225.7z
	 M1102.5,236.6c-2.1,1.5,3.8,4.1,4.7,4.3c0.6,0,1.7-1.3,1.4-2.2C1106.6,238.6,1103.4,239.2,1102.5,236.6z M1116.2,240.9V240
	c-3.4,0,0.5-1.3-1.8-3.2c-1.1,0.4-2.7,3.6-2.7,4.4C1111.6,243.4,1116.2,242.7,1116.2,240.9L1116.2,240.9z M758.1,169.2
	c-1,0-1.3-0.3-1.8,0.9h-1.8c0.2,0.5,0.9,0.9,1.4,1.3h3.9C759.7,170.1,759.5,169.2,758.1,169.2L758.1,169.2z"/>
</svg>
