<?xml version="1.0" encoding="UTF-8"?>
<svg id="_レイヤー_2" data-name="レイヤー 2" xmlns="http://www.w3.org/2000/svg" viewBox="0 0 47.21 47.21">
  <defs>
    <style>
      .cls-1 {
        fill: #fff;
      }

      .cls-2 {
        fill: gray;
      }
    </style>
  </defs>
  <g id="pc">
    <g>
      <rect class="cls-2" width="47.21" height="47.21"/>
      <path class="cls-1" d="m30.86,15.32c-.87,0-1.58.71-1.58,1.58s.71,1.58,1.58,1.58,1.58-.71,1.58-1.58-.71-1.58-1.58-1.58Z"/>
      <path class="cls-1" d="m23.83,17.35c-3.66,0-6.64,2.98-6.64,6.64s2.98,6.64,6.64,6.64,6.64-2.98,6.64-6.64-2.98-6.64-6.64-6.64Zm0,10.9c-2.35,0-4.26-1.91-4.26-4.26s1.91-4.26,4.26-4.26,4.26,1.91,4.26,4.26-1.91,4.26-4.26,4.26Z"/>
      <path class="cls-1" d="m29.11,37.48h-10.77c-4.47,0-8.1-3.64-8.1-8.1v-10.77c0-4.47,3.64-8.1,8.1-8.1h10.77c4.47,0,8.1,3.63,8.1,8.1v10.77c0,4.47-3.64,8.1-8.1,8.1Zm-10.77-24.44c-3.07,0-5.57,2.5-5.57,5.57v10.77c0,3.07,2.5,5.57,5.57,5.57h10.77c3.07,0,5.57-2.5,5.57-5.57v-10.77c0-3.07-2.5-5.57-5.57-5.57h-10.77Z"/>
    </g>
  </g>
</svg>