<?xml version="1.0" encoding="UTF-8"?>
<svg id="_レイヤー_2" data-name="レイヤー 2" xmlns="http://www.w3.org/2000/svg" viewBox="0 0 47.21 47.21">
  <defs>
    <style>
      .cls-1 {
        fill: #fff;
      }

      .cls-2 {
        fill: #29abe2;
      }
    </style>
  </defs>
  <g id="pc">
    <g>
      <rect class="cls-2" width="47.21" height="47.21"/>
      <path class="cls-1" d="m36.38,16.73c-.8.36-1.68.58-2.54.72.41-.07,1.01-.81,1.25-1.11.37-.46.67-.98.84-1.54.02-.04.04-.1,0-.13-.06-.02-.09-.01-.13.01-.96.51-1.95.89-3.01,1.15-.09.02-.15,0-.21-.05-.09-.1-.17-.19-.26-.27-.44-.38-.92-.67-1.46-.89-.71-.29-1.48-.41-2.24-.36-.74.05-1.46.26-2.12.6-.66.34-1.24.82-1.71,1.4-.48.6-.84,1.3-1.02,2.05-.18.72-.16,1.43-.05,2.16.02.12,0,.14-.1.12-4.13-.61-7.56-2.09-10.34-5.26-.12-.14-.19-.14-.28.01-1.22,1.82-.63,4.75.89,6.19.2.19.41.38.64.56-.08.02-1.09-.09-2-.56-.12-.08-.18-.03-.19.1-.01.2,0,.38.03.59.23,1.85,1.51,3.56,3.27,4.23.21.09.44.16.66.2-.4.09-.81.15-1.96.06-.14-.03-.2.04-.14.18.86,2.35,2.72,3.04,4.11,3.44.19.03.37.03.56.08-.01.02-.02.02-.03.03-.46.7-2.06,1.23-2.81,1.49-1.36.47-2.83.69-4.26.55-.23-.03-.28-.03-.34,0-.06.04,0,.09.07.15.29.19.59.36.89.53.91.48,1.86.87,2.85,1.14,5.12,1.41,10.89.38,14.74-3.45,3.02-3,4.08-7.14,4.08-11.28,0-.16.19-.25.31-.34.79-.59,1.42-1.3,2.01-2.09.13-.18.13-.33.13-.4v-.02c0-.07,0-.05-.1,0Z"/>
    </g>
  </g>
</svg>