<?xml version="1.0" encoding="UTF-8"?>
<svg id="_レイヤー_2" data-name="レイヤー 2" xmlns="http://www.w3.org/2000/svg" viewBox="0 0 48.9 34.45">
  <defs>
    <style>
      .cls-1 {
        fill: #e70000;
      }

      .cls-2 {
        fill: #fefefe;
      }
    </style>
  </defs>
  <g id="_01" data-name="01">
    <g>
      <path class="cls-1" d="m47.88,5.38c-.56-2.12-2.22-3.79-4.32-4.35-3.81-1.03-19.11-1.03-19.11-1.03,0,0-15.29,0-19.11,1.03C3.24,1.59,1.58,3.26,1.02,5.38c-1.02,3.84-1.02,11.85-1.02,11.85,0,0,0,8.01,1.02,11.85.56,2.12,2.22,3.79,4.32,4.35,3.81,1.03,19.11,1.03,19.11,1.03,0,0,15.29,0,19.11-1.03,2.1-.57,3.76-2.23,4.32-4.35,1.02-3.84,1.02-11.85,1.02-11.85,0,0,0-8.01-1.02-11.85Z"/>
      <polygon class="cls-2" points="19.45 24.5 19.45 9.96 32.23 17.23 19.45 24.5"/>
    </g>
  </g>
</svg>