<?xml version="1.0" encoding="UTF-8"?>
<svg id="_レイヤー_2" data-name="レイヤー 2" xmlns="http://www.w3.org/2000/svg" viewBox="0 0 195 120">
  <defs>
    <style>
      .cls-1 {
        fill: #fff;
      }

      .cls-2 {
        fill: #3264c2;
      }
    </style>
  </defs>
  <g id="pc">
    <g>
      <rect class="cls-2" width="195" height="120"/>
      <g>
        <path class="cls-1" d="m49.94,58.8c10.18,7.89,25.88,10.11,35.36-.42-3.38-.12-6.8-.63-10.11-.24-3.37.4-6.63,1.69-9.98,2.6,1.21-4.47,11.37-9.44,20.45-10.09,9.74-.7,25.8,3.65,27.57,7.83-1.22.1-2.31.23-3.4.28-5.3.23-10.01,1.99-13.29,6.31-9.08,11.96-21.11,14.17-34.74,11.06-12.05-2.75-22.19-9.28-31.67-17.01-.82-.67-1.58-1.49-2.11-2.4-1.39-2.4-.45-4.68,2.25-4.58,9.74.39,17.94-3.94,26.06-8.41,15.03-8.28,30.42-7.73,45.99-2.24,5.67,2,11.17,4.55,16.62,7.14,9.33,4.44,19.13,6.46,29.37,6.58,4.28.05,8.56-.03,12.84.08.66.02,1.31.73,1.96,1.13-.66.4-1.33,1.16-1.98,1.16-12.63-.09-25.34,1.02-37.79-1.89-5.28-1.23-10.31-3.53-15.58-4.83-6.49-1.6-13.06-3.03-19.68-3.86-7.38-.93-14.5.83-21.27,3.93-5.56,2.55-11.09,5.17-16.87,7.87Z"/>
        <g>
          <path class="cls-1" d="m104.66,70.63h6.5v3.25c0,.73-.46,1.27-1.38,1.63-.92.36-1.9.54-2.94.54h-4.34c-1.18,0-2.2-.21-3.05-.64s-1.29-.94-1.29-1.53v-5.41c0-.59.42-1.1,1.26-1.53.84-.43,1.87-.64,3.08-.64h4.34c2.72,0,4.16.72,4.31,2.17h-2.16c-.17-.73-.89-1.09-2.16-1.09h-2.18c-.59,0-1.1.11-1.52.32-.42.21-.64.47-.64.77v5.41c0,.3.21.56.64.77.42.21.93.32,1.52.32,1.39-.03,2.11-.4,2.18-1.09v-2.16h-2.18v-1.09Z"/>
          <path class="cls-1" d="m117.67,66.31h4.34c1.18,0,2.19.21,3.04.64.85.43,1.27.94,1.27,1.53v5.41c0,.59-.42,1.1-1.27,1.53-.85.43-1.86.64-3.04.64h-4.34c-1.18,0-2.2-.21-3.05-.64s-1.29-.94-1.29-1.53v-5.41c0-.6.43-1.11,1.29-1.53.86-.42,1.88-.64,3.05-.64Zm0,2.17v5.41c0,.29.21.55.64.77.42.22.93.32,1.52.32s1.12-.11,1.55-.32c.42-.22.64-.47.64-.77v-5.41c0-.3-.21-.56-.64-.77-.42-.21-.94-.32-1.55-.32s-1.1.11-1.52.32c-.42.21-.64.47-.64.77Z"/>
          <path class="cls-1" d="m137.18,66.31h4.31v7.58c0,.59-.42,1.1-1.27,1.53-.85.43-1.86.64-3.04.64h-4.34c-1.18,0-2.2-.21-3.05-.64s-1.29-.94-1.29-1.53v-7.58h4.34v7.58c0,.29.21.55.64.77.42.22.93.32,1.52.32s1.12-.11,1.55-.32c.42-.22.64-.47.64-.77v-7.58Z"/>
          <path class="cls-1" d="m143.67,76.05v-9.75h4.34v3.98l7.02-3.98h3.82l-8.68,4.87,8.68,4.87h-4.34l-6.5-3.79v3.79h-4.34Z"/>
          <path class="cls-1" d="m159.5,76.05v-9.75h4.31v9.75h-4.31Z"/>
        </g>
        <g>
          <path class="cls-1" d="m101.5,89c-2.32,0-4.12-1.79-4.12-4.11s1.76-4.1,4.1-4.1c1.69,0,2.92.96,3.72,2.39h-1.18c-.62-.82-1.44-1.31-2.5-1.31-1.72,0-3.06,1.32-3.06,3.04s1.35,3.04,3.04,3.04c1.06,0,1.93-.56,2.54-1.4h1.2c-.82,1.43-2.02,2.43-3.74,2.43Z"/>
          <path class="cls-1" d="m109.73,89.02c-2.31,0-4.04-1.94-4.04-4.19s1.91-4.03,4.11-4.03c2.36,0,4.18,1.84,4.18,4.19s-2,4.03-4.24,4.03Zm.08-7.18c-1.55,0-3.06,1.36-3.06,2.95,0,1.77,1.22,3.16,3.03,3.16s3.12-1.19,3.12-2.99-1.36-3.12-3.08-3.12Z"/>
          <path class="cls-1" d="m119.03,88.88l-2.81-3.78c1.15,0,3.03.11,3.03-1.56,0-1.06-.98-1.6-1.94-1.6h-1.36v6.94h-1.07v-7.95h2.19c1.74,0,3.25.64,3.25,2.62,0,1.18-.9,2.31-2.1,2.45l2.15,2.88h-1.35Z"/>
          <path class="cls-1" d="m123.63,85.79h-1.48v3.08h-1.07v-7.95h2.14c1.84,0,3.19.46,3.19,2.55,0,1.55-1.37,2.32-2.77,2.32Zm-.33-3.88h-1.16v2.88h1.4c1.02,0,1.77-.43,1.77-1.54s-1.08-1.34-2.01-1.34Z"/>
          <path class="cls-1" d="m131.26,88.88l-2.81-3.78c1.15,0,3.03.11,3.03-1.56,0-1.06-.98-1.6-1.94-1.6h-1.36v6.94h-1.07v-7.95h2.19c1.74,0,3.25.64,3.25,2.62,0,1.18-.9,2.31-2.1,2.45l2.15,2.88h-1.35Z"/>
          <path class="cls-1" d="m139.23,88.88l-1.12-2.56h-3.29l-1.09,2.56h-1.16l3.38-7.95h1.05l3.38,7.95h-1.16Zm-2.75-6.5l-1.23,2.92h2.45l-1.22-2.92Z"/>
          <path class="cls-1" d="m142.97,81.92v6.96h-1.06v-6.96h-1.74v-.99h4.52v.99h-1.72Z"/>
          <path class="cls-1" d="m145.21,88.88v-7.95h1.07v7.95h-1.07Z"/>
          <path class="cls-1" d="m151.25,89.02c-2.31,0-4.04-1.94-4.04-4.19s1.91-4.03,4.11-4.03c2.36,0,4.18,1.84,4.18,4.19s-2,4.03-4.24,4.03Zm.08-7.18c-1.55,0-3.06,1.36-3.06,2.95,0,1.77,1.22,3.16,3.03,3.16s3.12-1.19,3.12-2.99-1.36-3.12-3.08-3.12Z"/>
          <path class="cls-1" d="m161.72,88.88l-4.25-6.36v6.36h-1.07v-7.95h1.25l3.99,5.98v-5.98h1.07v7.95h-.99Z"/>
        </g>
      </g>
    </g>
  </g>
</svg>