<?xml version="1.0" encoding="UTF-8"?>
<svg id="_レイヤー_2" data-name="レイヤー 2" xmlns="http://www.w3.org/2000/svg" viewBox="0 0 121.14 45.81">
  <defs>
    <style>
      .cls-1 {
        fill: #fff;
      }
    </style>
  </defs>
  <g id="pc">
    <g>
      <path class="cls-1" d="m20.03,18.98c9.04,7.01,22.98,8.98,31.39-.38-3-.1-6.04-.56-8.98-.21-2.99.35-5.89,1.5-8.86,2.31,1.07-3.97,10.09-8.38,18.16-8.96,8.64-.62,22.91,3.24,24.48,6.95-1.08.09-2.05.2-3.01.25-4.71.21-8.88,1.77-11.8,5.61-8.06,10.62-18.74,12.58-30.85,9.82-10.7-2.44-19.71-8.24-28.12-15.1-.72-.59-1.41-1.33-1.88-2.13-1.24-2.13-.4-4.16,2-4.06,8.65.34,15.93-3.5,23.13-7.47,13.34-7.35,27.01-6.87,40.83-1.98,5.04,1.78,9.92,4.04,14.76,6.34,8.28,3.95,16.99,5.74,26.08,5.85,3.8.04,7.6-.02,11.4.07.59.02,1.16.65,1.74,1-.59.36-1.18,1.03-1.76,1.03-11.21-.08-22.5.91-33.56-1.67-4.69-1.09-9.15-3.14-13.83-4.29-5.76-1.42-11.6-2.69-17.47-3.43-6.55-.83-12.88.74-18.88,3.49-4.94,2.26-9.85,4.59-14.98,6.99Z"/>
      <g>
        <path class="cls-1" d="m68.62,29.48h5.77v2.89c0,.65-.41,1.13-1.22,1.45-.82.32-1.68.48-2.61.48h-3.85c-1.05,0-1.95-.19-2.71-.57s-1.14-.83-1.14-1.36v-4.8c0-.52.37-.98,1.12-1.36.75-.38,1.66-.57,2.73-.57h3.85c2.42,0,3.69.64,3.83,1.93h-1.92c-.15-.65-.79-.97-1.92-.97h-1.94c-.52,0-.97.09-1.35.28s-.57.42-.57.69v4.8c0,.27.19.5.57.69.38.19.83.28,1.35.28,1.23-.03,1.88-.35,1.94-.97v-1.92h-1.94v-.97Z"/>
        <path class="cls-1" d="m80.17,25.64h3.85c1.05,0,1.95.19,2.7.57s1.13.83,1.13,1.36v4.8c0,.52-.38.98-1.13,1.36s-1.65.57-2.7.57h-3.85c-1.05,0-1.95-.19-2.71-.57s-1.14-.83-1.14-1.36v-4.8c0-.53.38-.98,1.14-1.36.76-.38,1.67-.57,2.71-.57Zm0,1.93v4.8c0,.26.19.49.57.68.38.19.83.29,1.35.29s1-.1,1.37-.29c.38-.19.57-.42.57-.68v-4.8c0-.27-.19-.5-.57-.69-.38-.19-.83-.28-1.37-.28s-.97.09-1.35.28-.57.42-.57.69Z"/>
        <path class="cls-1" d="m97.49,25.64h3.83v6.73c0,.52-.38.98-1.13,1.36s-1.65.57-2.7.57h-3.85c-1.05,0-1.95-.19-2.71-.57s-1.14-.83-1.14-1.36v-6.73h3.85v6.73c0,.26.19.49.57.68.38.19.83.29,1.35.29s1-.1,1.37-.29c.38-.19.57-.42.57-.68v-6.73Z"/>
        <path class="cls-1" d="m103.25,34.29v-8.66h3.85v3.53l6.23-3.53h3.39l-7.71,4.33,7.71,4.33h-3.85l-5.77-3.37v3.37h-3.85Z"/>
        <path class="cls-1" d="m117.31,34.29v-8.66h3.83v8.66h-3.83Z"/>
      </g>
      <g>
        <path class="cls-1" d="m65.8,45.79c-2.05,0-3.65-1.59-3.65-3.64s1.56-3.63,3.63-3.63c1.5,0,2.59.85,3.3,2.12h-1.05c-.55-.73-1.28-1.16-2.21-1.16-1.52,0-2.72,1.17-2.72,2.7s1.2,2.7,2.7,2.7c.94,0,1.71-.5,2.25-1.24h1.06c-.73,1.27-1.79,2.16-3.32,2.16Z"/>
        <path class="cls-1" d="m73.12,45.81c-2.05,0-3.59-1.72-3.59-3.72s1.69-3.58,3.64-3.58c2.09,0,3.71,1.63,3.71,3.72s-1.77,3.58-3.76,3.58Zm.07-6.37c-1.37,0-2.72,1.2-2.72,2.61,0,1.57,1.08,2.8,2.69,2.8s2.76-1.06,2.76-2.65-1.2-2.76-2.74-2.76Z"/>
        <path class="cls-1" d="m81.37,45.68l-2.49-3.35c1.02,0,2.69.09,2.69-1.38,0-.94-.87-1.42-1.72-1.42h-1.2v6.15h-.95v-7.05h1.94c1.54,0,2.89.57,2.89,2.33,0,1.05-.79,2.04-1.86,2.18l1.91,2.55h-1.2Z"/>
        <path class="cls-1" d="m85.46,42.94h-1.32v2.74h-.95v-7.05h1.9c1.63,0,2.83.41,2.83,2.26,0,1.37-1.21,2.05-2.46,2.05Zm-.29-3.44h-1.03v2.55h1.24c.91,0,1.57-.38,1.57-1.36s-.96-1.19-1.78-1.19Z"/>
        <path class="cls-1" d="m92.23,45.68l-2.49-3.35c1.02,0,2.69.09,2.69-1.38,0-.94-.87-1.42-1.72-1.42h-1.2v6.15h-.95v-7.05h1.94c1.54,0,2.89.57,2.89,2.33,0,1.05-.79,2.04-1.86,2.18l1.91,2.55h-1.2Z"/>
        <path class="cls-1" d="m99.3,45.68l-.99-2.27h-2.91l-.97,2.27h-1.03l3-7.05h.93l3,7.05h-1.03Zm-2.44-5.76l-1.09,2.59h2.18l-1.08-2.59Z"/>
        <path class="cls-1" d="m102.63,39.5v6.17h-.94v-6.17h-1.54v-.88h4.01v.88h-1.52Z"/>
        <path class="cls-1" d="m104.62,45.68v-7.05h.95v7.05h-.95Z"/>
        <path class="cls-1" d="m109.98,45.81c-2.05,0-3.59-1.72-3.59-3.72s1.69-3.58,3.64-3.58c2.09,0,3.71,1.63,3.71,3.72s-1.77,3.58-3.76,3.58Zm.07-6.37c-1.37,0-2.72,1.2-2.72,2.61,0,1.57,1.08,2.8,2.69,2.8s2.76-1.06,2.76-2.65-1.2-2.76-2.74-2.76Z"/>
        <path class="cls-1" d="m119.28,45.68l-3.77-5.64v5.64h-.95v-7.05h1.11l3.54,5.3v-5.3h.95v7.05h-.88Z"/>
      </g>
    </g>
  </g>
</svg>