<?xml version="1.0" encoding="UTF-8"?>
<svg id="_レイヤー_2" data-name="レイヤー 2" xmlns="http://www.w3.org/2000/svg" viewBox="0 0 173.84 44.44">
  <defs>
    <style>
      .cls-1 {
        fill: #fff;
      }
    </style>
  </defs>
  <g id="pc">
    <g>
      <path class="cls-1" d="m1.87,5.08v-.48c0-1.31.5-2.67,1.65-3.63.65-.57,1.35-.88,2.1-.97.64.01,1.21.23,1.51.58.18.21.21.42.12.68-.07.21-.28.48-.48.63-.22.14-.38.1-.56-.04-.38-.35-.9-.81-1.5-.81-1.21,0-1.22,1.62-1.22,3.19v.85h1.91c.1.17.02.65-.2.79h-1.71v5.31c0,1.29.19,1.33,1.54,1.47v.54H.61v-.54c1.14-.12,1.25-.19,1.25-1.38v-5.4H.58l-.08-.21.42-.58h.95Z"/>
      <path class="cls-1" d="m10.25,4.86c2.36,0,4.06,1.79,4.06,4.13,0,2.98-2.2,4.42-4.07,4.42-2.59,0-4.14-2.06-4.14-4.14,0-2.97,2.34-4.41,4.16-4.41Zm-.22.65c-1.06,0-2.04,1.04-2.04,3.2,0,2.33.98,4.04,2.43,4.04,1.06,0,1.98-.77,1.98-3.32,0-2.23-.84-3.92-2.38-3.92Z"/>
      <path class="cls-1" d="m19.93,13.19h-4.35v-.54c1.13-.11,1.24-.2,1.24-1.38v-3.87c0-1.16-.07-1.23-1.11-1.36v-.48c.95-.14,1.81-.37,2.73-.75v2.02c.68-1.02,1.43-1.97,2.32-1.97.68,0,1.09.43,1.09.92s-.36.94-.68,1.11c-.2.11-.35.08-.5-.05-.28-.27-.51-.48-.84-.48-.37,0-1.01.51-1.4,1.41v3.47c0,1.2.1,1.28,1.5,1.4v.54Z"/>
      <path class="cls-1" d="m33.65,11.58c-1.17,1.51-2.49,1.83-3.12,1.83-2.29,0-3.66-1.84-3.66-3.97,0-1.26.47-2.44,1.23-3.24.78-.86,1.8-1.33,2.77-1.33,1.64,0,2.86,1.4,2.86,2.88-.02.36-.06.55-.35.62-.37.08-2.77.24-4.89.31-.03,2.38,1.4,3.39,2.71,3.39.75,0,1.45-.3,2.13-.92l.3.44Zm-3.2-6.01c-.83,0-1.62.81-1.85,2.29.98,0,1.96,0,2.99-.05.32,0,.43-.09.43-.37.02-.97-.59-1.87-1.56-1.87Z"/>
      <path class="cls-1" d="m38.68,13.19v-.54c.79-.1.93-.24.61-.75l-1.3-2.05c-.4.63-.8,1.27-1.15,1.88-.34.61-.31.79.63.92v.54h-3.49v-.54c1.13-.16,1.4-.3,2.07-1.17.5-.69.99-1.4,1.54-2.22l-1.59-2.51c-.55-.88-.77-1.02-1.79-1.15v-.52h3.83v.52c-.74.11-.83.26-.51.78l1.07,1.63c.36-.54.72-1.14,1.03-1.66.3-.5.19-.65-.59-.75v-.52h3.36v.52c-1,.12-1.37.19-2.1,1.13-.26.35-.7.94-1.32,1.85l1.77,2.74c.69,1.01.93,1.2,2,1.34v.54h-4.08Z"/>
      <path class="cls-1" d="m42.79,5.48c.89-.13,1.89-.45,2.8-.8v1.45c.05-.03,1.48-.86,1.55-.89.45-.25.84-.37,1.09-.37,2.03,0,3.25,1.72,3.25,3.54,0,2.78-2.2,4.55-4.61,5.01-.54-.02-1.02-.16-1.28-.3v2.44c0,1.3.14,1.41,1.53,1.55v.53h-4.47v-.53c1.18-.13,1.32-.23,1.32-1.43V7.32c0-1.09-.05-1.17-1.18-1.32v-.52Zm2.8,6.32c.41.41,1.12.71,1.71.71,1.49,0,2.47-1.32,2.47-3.37s-1.15-3.12-2.39-3.12c-.61,0-1.32.38-1.78.72v5.05Z"/>
      <path class="cls-1" d="m59.67,11.58c-1.17,1.51-2.49,1.83-3.12,1.83-2.29,0-3.66-1.84-3.66-3.97,0-1.26.47-2.44,1.23-3.24.78-.86,1.8-1.33,2.77-1.33,1.64,0,2.86,1.4,2.86,2.88-.02.36-.06.55-.35.62-.37.08-2.77.24-4.89.31-.03,2.38,1.4,3.39,2.71,3.39.75,0,1.45-.3,2.13-.92l.3.44Zm-3.2-6.01c-.83,0-1.62.81-1.85,2.29.98,0,1.96,0,2.99-.05.32,0,.43-.09.43-.37.02-.97-.59-1.87-1.56-1.87Z"/>
      <path class="cls-1" d="m66.12,13.19v-.54c1.02-.11,1.12-.23,1.12-1.49v-3.06c0-1.29-.49-2.08-1.61-2.08-.71,0-1.37.4-1.93.89v4.34c0,1.25.1,1.29,1.13,1.4v.54h-4.03v-.54c1.17-.14,1.28-.2,1.28-1.41v-3.8c0-1.18-.13-1.24-1.09-1.4v-.5c.93-.14,1.9-.38,2.72-.73,0,.39,0,.99,0,1.43.37-.26.77-.54,1.24-.84.52-.33.98-.54,1.51-.54,1.48,0,2.4,1.09,2.4,2.89v3.5c0,1.23.11,1.29,1.15,1.4v.54h-3.89Z"/>
      <path class="cls-1" d="m80.14,12.73c-.4.07-1.84.29-2.99.69v-1.17c-.33.21-.81.47-1.14.67-.68.4-1.14.5-1.36.5-1.49,0-3.49-1.45-3.49-4.06s2.25-4.49,4.83-4.49c.23,0,.79.03,1.16.18v-2.6c0-1.14-.12-1.19-1.4-1.31v-.5c.98-.13,2.3-.38,3.03-.63v11.02c0,.96.13,1.09.81,1.13l.56.04v.53Zm-2.99-6.19c-.38-.62-1.12-.94-1.84-.94-.83,0-2.34.55-2.34,3.21,0,2.26,1.38,3.39,2.49,3.41.6,0,1.24-.28,1.68-.6v-5.08Z"/>
      <path class="cls-1" d="m80.98,13.19v-.54c1.13-.11,1.26-.2,1.26-1.47v-3.76c0-1.16-.06-1.23-1.12-1.4v-.47c1-.16,1.91-.4,2.75-.72v6.36c0,1.25.12,1.35,1.29,1.47v.54h-4.17Zm1.96-10.05c-.55,0-1.04-.48-1.04-1.04,0-.62.49-1.07,1.06-1.07s1.01.45,1.01,1.07c0,.55-.45,1.04-1.03,1.04Z"/>
      <path class="cls-1" d="m89.75,13.18c-.31.16-.61.23-.78.23-1.22,0-1.89-.71-1.89-2.22v-5.32h-1.26l-.08-.22.5-.56h.83v-1.54c.4-.38,1-.88,1.4-1.26l.27.06c-.03.72-.06,1.78-.05,2.75h2.05c.17.18.11.62-.12.79h-1.94v4.68c0,1.48.59,1.74,1.05,1.74.42,0,.81-.15,1.08-.27l.17.51-1.25.65Z"/>
      <path class="cls-1" d="m91.76,13.19v-.54c1.13-.11,1.26-.2,1.26-1.47v-3.76c0-1.16-.06-1.23-1.12-1.4v-.47c1-.16,1.91-.4,2.75-.72v6.36c0,1.25.12,1.35,1.29,1.47v.54h-4.17Zm1.96-10.05c-.55,0-1.04-.48-1.04-1.04,0-.62.49-1.07,1.06-1.07s1.01.45,1.01,1.07c0,.55-.45,1.04-1.03,1.04Z"/>
      <path class="cls-1" d="m101.08,4.86c2.36,0,4.06,1.79,4.06,4.13,0,2.98-2.2,4.42-4.07,4.42-2.59,0-4.14-2.06-4.14-4.14,0-2.97,2.34-4.41,4.16-4.41Zm-.22.65c-1.06,0-2.04,1.04-2.04,3.2,0,2.33.98,4.04,2.43,4.04,1.06,0,1.98-.77,1.98-3.32,0-2.23-.84-3.92-2.38-3.92Z"/>
      <path class="cls-1" d="m111.7,13.19v-.54c1.02-.11,1.12-.23,1.12-1.49v-3.06c0-1.29-.49-2.08-1.61-2.08-.71,0-1.37.4-1.93.89v4.34c0,1.25.1,1.29,1.13,1.4v.54h-4.03v-.54c1.17-.14,1.28-.2,1.28-1.41v-3.8c0-1.18-.13-1.24-1.09-1.4v-.5c.93-.14,1.9-.38,2.72-.73,0,.39,0,.99,0,1.43.37-.26.77-.54,1.24-.84.52-.33.98-.54,1.51-.54,1.48,0,2.4,1.09,2.4,2.89v3.5c0,1.23.11,1.29,1.15,1.4v.54h-3.89Z"/>
      <path class="cls-1" d="m126.87,13.42c-.32,0-.72-.15-.92-.36-.24-.24-.36-.49-.45-.8-.73.49-1.63,1.16-2.17,1.16-1.36,0-2.3-1.12-2.3-2.29,0-.92.49-1.48,1.5-1.84,1.12-.39,2.51-.86,2.92-1.2v-.45c0-1.25-.61-1.96-1.54-1.96-.4,0-.66.19-.84.41-.21.27-.33.66-.49,1.2-.1.33-.29.46-.58.46-.37,0-.86-.38-.86-.84,0-.27.24-.5.61-.76.59-.42,1.66-1.07,2.71-1.29.59,0,1.17.17,1.61.5.67.55.95,1.21.95,2.16v3.49c0,.85.31,1.11.63,1.11.21,0,.44-.08.65-.19l.19.54-1.64.95Zm-1.41-4.66c-.39.2-1.18.55-1.59.74-.68.31-1.08.66-1.08,1.33,0,.99.73,1.42,1.29,1.42.44,0,1.03-.25,1.39-.6v-2.88Z"/>
      <path class="cls-1" d="m134.55,13.19v-.54c1.02-.11,1.12-.23,1.12-1.49v-3.06c0-1.29-.49-2.08-1.61-2.08-.71,0-1.37.4-1.93.89v4.34c0,1.25.1,1.29,1.13,1.4v.54h-4.03v-.54c1.17-.14,1.28-.2,1.28-1.41v-3.8c0-1.18-.13-1.24-1.09-1.4v-.5c.93-.14,1.9-.38,2.72-.73,0,.39,0,.99,0,1.43.37-.26.77-.54,1.24-.84.52-.33.98-.54,1.51-.54,1.48,0,2.4,1.09,2.4,2.89v3.5c0,1.23.11,1.29,1.15,1.4v.54h-3.89Z"/>
      <path class="cls-1" d="m142.16,10.47c-.4.32-.56.65-.56.87,0,.33.32.7,1.13.7.67,0,1.46-.01,2.07-.01,1.17,0,2.7.4,2.7,2.22,0,1.95-2.32,3.73-4.77,3.73-2.14,0-3.26-1.21-3.29-2.28,0-.41.17-.75.48-1.04.39-.38,1.07-.94,1.49-1.25-.68-.2-1.14-.62-1.38-1-.18-.28-.24-.63-.23-.83.73-.28,1.38-.8,1.75-1.29l.62.2Zm.88.18c-1.78,0-3.19-1.06-3.19-2.78,0-2.08,1.89-3.05,3.36-3.05.64,0,1.25.16,1.83.46.83,0,1.98-.14,2.48-.27l.11.16c-.11.3-.4.83-.68,1.01-.28,0-.87-.07-1.13-.09.31.41.52.98.52,1.65,0,1.98-1.67,2.92-3.29,2.92Zm.39,2.79c-.91,0-1.33.11-1.65.38-.48.39-.82.91-.82,1.42,0,1.01,1.03,1.76,2.48,1.76,1.69,0,2.67-.86,2.67-2.01,0-.64-.32-1.12-.85-1.33-.47-.19-1.07-.23-1.83-.23Zm-.38-8.01c-.78,0-1.49.74-1.49,2.18s.68,2.44,1.67,2.44c.79-.03,1.46-.73,1.46-2.19,0-1.39-.63-2.43-1.63-2.43Z"/>
      <path class="cls-1" d="m147.95,13.19v-.54c1.16-.12,1.28-.21,1.28-1.42V2.49c0-1.09-.1-1.21-1.24-1.36v-.5c1.04-.11,2.21-.4,2.86-.63v11.24c0,1.22.1,1.31,1.27,1.42v.54h-4.18Z"/>
      <path class="cls-1" d="m159.95,11.58c-1.17,1.51-2.49,1.83-3.12,1.83-2.29,0-3.66-1.84-3.66-3.97,0-1.26.47-2.44,1.23-3.24.78-.86,1.8-1.33,2.77-1.33,1.64,0,2.86,1.4,2.86,2.88-.02.36-.06.55-.35.62-.37.08-2.77.24-4.89.31-.03,2.38,1.4,3.39,2.71,3.39.75,0,1.45-.3,2.13-.92l.3.44Zm-3.2-6.01c-.83,0-1.62.81-1.85,2.29.98,0,1.96,0,2.99-.05.32,0,.43-.09.43-.37.02-.97-.59-1.87-1.56-1.87Z"/>
      <path class="cls-1" d="m165.47,13.19h-4.35v-.54c1.13-.11,1.24-.2,1.24-1.38v-3.87c0-1.16-.07-1.23-1.11-1.36v-.48c.95-.14,1.81-.37,2.73-.75v2.02c.68-1.02,1.43-1.97,2.32-1.97.68,0,1.09.43,1.09.92s-.36.94-.68,1.11c-.2.11-.35.08-.5-.05-.28-.27-.51-.48-.84-.48-.37,0-1.01.51-1.4,1.41v3.47c0,1.2.1,1.28,1.5,1.4v.54Z"/>
      <path class="cls-1" d="m172.96,7.32c-.36-1.11-.86-1.82-1.94-1.82-.62,0-1.11.44-1.11,1.16,0,.77.52,1.13,1.54,1.6,1.57.74,2.4,1.3,2.4,2.56,0,1.72-1.58,2.6-3.07,2.6-.96,0-1.83-.31-2.22-.52-.09-.51-.25-1.57-.33-2.19l.55-.1c.34,1.18,1.01,2.16,2.28,2.16.7,0,1.25-.47,1.25-1.2,0-.78-.46-1.21-1.46-1.7-1.28-.62-2.35-1.22-2.35-2.58s1.15-2.42,2.93-2.42c.79,0,1.43.18,1.81.25.06.45.19,1.62.28,2.07l-.55.14Z"/>
    </g>
    <g>
      <path class="cls-1" d="m4.84,31.71c1.34,0,2.4.24,3.15.79.76.55,1.26,1.42,1.26,2.64,0,2.69-2.3,3.78-4.09,3.79-.2,0-.39-.02-.51-.04l-1.24-.32v2.81c0,1.55.13,1.59,1.81,1.77v.55H0v-.55c1.55-.17,1.64-.27,1.64-1.8v-7.27c0-1.62-.2-1.68-1.64-1.82v-.55h4.84Zm-1.42,6.19c.22.11.7.23,1.28.23,1.17,0,2.67-.6,2.67-2.95,0-2.04-1.29-2.82-2.78-2.82-.51,0-.87.09-.98.21-.14.12-.2.34-.2.8v4.53Z"/>
      <path class="cls-1" d="m21.79,43.83c-.22,0-.42-.01-.66-.03-1.52-.1-2.24-.47-3-1.55-.69-.95-1.33-2.11-1.93-3.08-.35-.57-.6-.68-1.47-.68h-.6s0,2.85,0,2.85c0,1.55.2,1.65,1.66,1.8v.55h-5.05v-.55c1.51-.16,1.64-.25,1.64-1.8v-7.3c0-1.55-.2-1.63-1.64-1.78v-.55h4.82c1.4,0,2.31.17,3.02.64.75.48,1.25,1.31,1.25,2.44,0,1.6-1.03,2.57-2.36,3.14.32.57,1.1,1.8,1.65,2.63.68.98,1.04,1.45,1.45,1.9.48.52.87.72,1.31.84l-.08.54Zm-6.84-6c.93,0,1.54-.14,1.99-.52.7-.53.99-1.26.99-2.25,0-1.97-1.28-2.69-2.63-2.69-.53,0-.83.07-.95.19-.16.12-.21.32-.21.78v4.5h.81Z"/>
      <path class="cls-1" d="m28.46,31.45c3.2,0,6.01,2.43,6.01,6.09,0,3.96-2.71,6.43-6.12,6.43s-6.16-2.69-6.16-6.17c0-3.27,2.32-6.34,6.27-6.34Zm-.35.71c-2.03,0-3.82,1.75-3.82,5.17s1.76,5.92,4.36,5.92c2.14,0,3.77-1.67,3.77-5.19,0-3.83-1.94-5.9-4.3-5.9Z"/>
      <path class="cls-1" d="m42.62,34.55c-.32-1.21-.84-2.44-2.57-2.44-1.37,0-1.91,1-1.91,1.97,0,1.23.79,1.86,2.33,2.66,2.17,1.11,3.18,1.98,3.18,3.75,0,1.98-1.7,3.47-4.12,3.47-1.12,0-2.09-.31-2.87-.6-.14-.5-.38-1.87-.51-2.84l.6-.15c.37,1.22,1.22,2.9,3.12,2.9,1.29,0,2.08-.88,2.08-2.08,0-1.36-.74-1.94-2.35-2.81-1.93-1.05-3.05-1.94-3.05-3.69s1.39-3.24,3.88-3.24c1.08,0,2.08.28,2.47.35.07.67.16,1.44.3,2.64l-.59.12Z"/>
      <path class="cls-1" d="m58.19,32.25c-1.51.15-1.66.24-1.66,1.79v7.33c0,1.54.16,1.61,1.66,1.77v.55h-5.08v-.55c1.52-.18,1.66-.22,1.66-1.77v-3.65h-6.06v3.65c0,1.53.15,1.59,1.64,1.77v.55h-5.06v-.55c1.47-.16,1.64-.22,1.64-1.77v-7.33c0-1.54-.17-1.65-1.64-1.79v-.55h5.06v.55c-1.46.13-1.64.26-1.64,1.79v2.88h6.06v-2.88c0-1.53-.2-1.66-1.66-1.79v-.55h5.08v.55Z"/>
      <path class="cls-1" d="m66.08,31.45c3.2,0,6.01,2.43,6.01,6.09,0,3.96-2.71,6.43-6.12,6.43s-6.16-2.69-6.16-6.17c0-3.27,2.32-6.34,6.27-6.34Zm-.35.71c-2.03,0-3.82,1.75-3.82,5.17s1.76,5.92,4.36,5.92c2.14,0,3.77-1.67,3.77-5.19,0-3.83-1.94-5.9-4.3-5.9Z"/>
      <path class="cls-1" d="m78.6,31.71c1.34,0,2.4.24,3.15.79.76.55,1.26,1.42,1.26,2.64,0,2.69-2.3,3.78-4.09,3.79-.2,0-.39-.02-.51-.04l-1.24-.32v2.81c0,1.55.13,1.59,1.81,1.77v.55h-5.23v-.55c1.55-.17,1.64-.27,1.64-1.8v-7.27c0-1.62-.2-1.68-1.64-1.82v-.55h4.84Zm-1.42,6.19c.22.11.7.23,1.28.23,1.17,0,2.67-.6,2.67-2.95,0-2.04-1.29-2.82-2.78-2.82-.51,0-.87.09-.98.21-.14.12-.2.34-.2.8v4.53Z"/>
    </g>
    <g>
      <path class="cls-1" d="m106.13,43.96v-.94c2.56-.25,2.67-.45,2.64-3.74l.02-12.82c-2.54,5.73-6.42,14.25-7.74,17.5h-.86c-1.25-3.29-4.59-11.5-6.98-17.2-.52,10.88-.54,13.29-.54,13.99.03,1.76.79,2.05,2.99,2.27v.94h-7.57v-.94c1.83-.18,2.6-.56,2.86-2.3.18-1.31.23-2.57,1.03-13.94.12-1.62-.18-2.22-2.96-2.47v-.94h5.75l6.84,15.68,7.26-15.68h5.75v.94c-2.69.31-3.03.58-2.96,2.86l.15,12.11c.11,3.29.21,3.45,2.96,3.74v.94h-8.64Z"/>
      <path class="cls-1" d="m128.12,22.93c5.5,0,10.33,4.17,10.33,10.47,0,6.8-4.66,11.04-10.52,11.04s-10.59-4.62-10.59-10.61c0-5.62,3.99-10.9,10.77-10.9Zm-.6,1.21c-3.49,0-6.57,3.01-6.57,8.88s3.03,10.18,7.49,10.18c3.68,0,6.47-2.86,6.47-8.92,0-6.58-3.33-10.14-7.39-10.14Z"/>
      <path class="cls-1" d="m162.11,35.31c-1.94.26-2.08.44-2.08,2.36v2.62c0,1.11.03,2.17.19,3.02-1.9.42-4.63,1.12-7.28,1.12-7.24,0-11.59-4.48-11.59-10.83,0-6.76,5.51-10.68,11.92-10.68,3.11,0,5.56.63,6.55.78.06,1.21.24,3.23.49,5.18l-1,.2c-.76-2.69-1.72-3.87-3.71-4.54-.73-.25-2-.41-2.9-.41-4.66,0-7.75,3.33-7.75,9.06,0,5.13,2.48,10.03,8.46,10.03,1,0,1.95-.2,2.57-.52.63-.36,1.01-.75,1.01-1.99v-2.63c0-2.29-.29-2.54-3.26-2.78v-.96h8.38v.96Z"/>
      <path class="cls-1" d="m164.63,43.96v-.94c2.56-.27,2.82-.41,2.82-3.1v-12.48c0-2.71-.26-2.86-2.82-3.13v-.94h8.72v.94c-2.58.27-2.85.42-2.85,3.13v12.48c0,2.71.26,2.82,2.85,3.1v.94h-8.72Z"/>
    </g>
  </g>
</svg>