<svg version="1.1" id="_レイヤー_2" xmlns="http://www.w3.org/2000/svg" xmlns:xlink="http://www.w3.org/1999/xlink" x="0px"
	 y="0px" viewBox="0 0 280 420" style="enable-background:new 0 0 280 420;" xml:space="preserve">
  <style type="text/css">
    .st0{fill:#D2B182;}
    .st1{fill:#FFFFFF;}
    .st2{font-family:'RyuminPr6N-Light-83pv-RKSJ-H',"游明朝",YuMincho,"Hiragino Mincho ProN W3","ヒラギノ明朝 ProN W3",serif;}
    .st3{font-size:20px;}
    .st4{fill:none;stroke:#D2B182;stroke-miterlimit:10;}
    .st5{font-family:'KozGoPr6N-Regular-83pv-RKSJ-H','Noto Sans Japanese',sans-serif;font-weight:600;}
    .st6{font-size:12px;}
    .st7{font-size:100px;}
    .st8{fill:#3264C2;}
</style>
  <g>
    <rect x="173.3" y="197.5" transform="matrix(0.7677 -0.6408 0.6408 0.7677 -96.1725 162.1026)" class="st0" width="4.4" height="32.5"/>
    <path class="st0" d="M166.8,199.2c0.2,0.2,0.1,0.5-0.1,0.7l-3.3,2.8c-0.2,0.2-0.5,0.1-0.7-0.1l-1-1.2c-0.1-0.1,1-0.9,2-1.8
		s2-1.7,2.1-1.6L166.8,199.2L166.8,199.2z"/>
    <rect x="158.5" y="199.1" transform="matrix(0.7677 -0.6408 0.6408 0.7677 -89.808 151.1003)" class="st0" width="10.1" height="0.7"/>
    <rect x="159.7" y="195.1" transform="matrix(0.7677 -0.6408 0.6408 0.7677 -88.9197 149.5437)" class="st0" width="4.2" height="4.7"/>
    <path class="st0" d="M158.9,196.8c-1.5-2.6-51.6-55.8-67.6-68.4c0,0,1.4-1.2,4.5,0.8c17.7,11.8,63.7,63,65.8,65.4L158.9,196.8
		L158.9,196.8z"/>
    <path class="st0" d="M185.6,226.9l0.5,2.1c0.2,0,0.3-0.1,0.5-0.2l0.6-0.5l-0.5-2.3L185.6,226.9L185.6,226.9z"/>
    <path class="st0" d="M187.5,228.1l0.9-0.7c0.2-0.1,0.2-0.4,0.3-0.6l-1.4,0.3L187.5,228.1L187.5,228.1z"/>
    <path class="st0" d="M187.7,225.1l-0.7,0.6l0.2,0.9l1.4-0.3c-0.1-0.1-0.1-0.3-0.2-0.4L187.7,225.1z"/>
    <path class="st0" d="M184.5,227.8l0.7,0.8c0.1,0.2,0.3,0.3,0.5,0.4l-0.4-1.8L184.5,227.8L184.5,227.8z"/>
  </g>
  <g>
    <path class="st0" d="M106.5,215.8c-1.6,3.4-0.1,7.5,3.3,9.1s7.5,0.1,9.1-3.3s0.1-7.5-3.3-9.1S108.1,212.4,106.5,215.8L106.5,215.8z
		 M108.2,216.6c1.2-2.5,4.1-3.6,6.6-2.4s3.6,4.1,2.4,6.6s-4.1,3.6-6.6,2.4S107.1,219.1,108.2,216.6z"/>
    <path class="st0" d="M113.5,215.1c0.2-0.4,0.8-0.6,1.2-0.4s0.6,0.8,0.4,1.2s-0.8,0.6-1.2,0.4S113.3,215.6,113.5,215.1z"/>
    <path class="st0" d="M116.7,218.4c0.4,0.2,0.6,0.8,0.4,1.2s-0.8,0.6-1.2,0.4c-0.4-0.2-0.6-0.8-0.4-1.2
		C115.8,218.4,116.3,218.2,116.7,218.4z"/>
    <path class="st0" d="M113.7,221.4c0.4,0.2,0.6,0.8,0.4,1.2s-0.8,0.6-1.2,0.4c-0.4-0.2-0.6-0.8-0.4-1.2
		C112.8,221.4,113.3,221.2,113.7,221.4z"/>
    <path class="st0" d="M110,219.7c0.4,0.2,0.6,0.8,0.4,1.2s-0.8,0.6-1.2,0.4s-0.6-0.8-0.4-1.2S109.5,219.5,110,219.7z"/>
    <path class="st0" d="M109.7,217.1c-0.4-0.2-0.6-0.8-0.4-1.2s0.8-0.6,1.2-0.4s0.6,0.8,0.4,1.2S110.1,217.3,109.7,217.1z"/>
    <path class="st0" d="M113.4,217.3c0.7,0.4,0.9,1.4,0.5,2.1c-0.4,0.6-1.1,0.9-1.8,0.6c-0.7-0.4-0.9-1.4-0.5-2.1
		C112,217.3,112.7,217.1,113.4,217.3z"/>
    <path class="st0" d="M91.2,225.6L91.2,225.6c4-5.5,8.3-10.7,12.8-15.7c1.2,0.9,2.3,1.9,3.4,3c-3.8,4.4-7.4,9-10.8,13.8l-1.4,1.9
		c-0.3,0.4-0.8,0.5-1.2,0.2l0,0l-2.6-1.9C91,226.5,90.9,226,91.2,225.6z"/>
    <path class="st0" d="M104.9,209.5c2-2.3,62-68.9,79.6-80.6c3.1-2,4.5-0.8,4.5-0.8c-16,12.6-79.9,81.1-81.4,83.7
		C107.5,211.8,104.9,209.5,104.9,209.5z"/>
  </g>
  <g>
    <line class="st4" x1="210" y1="350" x2="280" y2="350"/>
    <line class="st4" x1="0" y1="420" x2="280" y2="420"/>
    <line class="st4" x1="0" y1="350" x2="70" y2="350"/>
    <text class="st1 st2 st3" x="140" y="20" text-anchor="middle" textLength="280" dominant-baseline="middle">折れない竿と、折れない心</text>
    <text class="st0 st5 st6" x="140" y="350" text-anchor="middle" textLength="100" dominant-baseline="middle">年間限定生産</text>
    <text class="st0 st5 st3" x="140" y="390" text-anchor="middle" textLength="260" dominant-baseline="middle">世界最強のジギングロッド</text>
  </g>
  <g>
    <text class="st1 st2 st7" x="70" y="145" text-anchor="middle">剛</text>
    <text class="st8 st2 st7" x="205" y="145" text-anchor="middle">樹</text>
    <text class="st1 st2 st7" x="70" y="290" text-anchor="middle">茂</text>
    <text class="st8 st2 st7" x="205" y="290" text-anchor="middle">木</text>
  </g>
</svg>
