<svg version="1.1" id="_レイヤー_2" xmlns="http://www.w3.org/2000/svg" xmlns:xlink="http://www.w3.org/1999/xlink" x="0px"
	 y="0px" viewBox="0 0 250 50" style="enable-background:new 0 0 250 50;" xml:space="preserve">
  <style type="text/css">
	.st0{fill:#D2B182;}
	.st1{fill:#FFFFFF;}
	.st2{font-family:'RyuminPr6N-Light-83pv-RKSJ-H',"游明朝",YuMincho,"Hiragino Mincho ProN W3","ヒラギノ明朝 ProN W3",serif;}
	.st3{font-size:40px;}
	.st5{fill:#3264C2;}
</style>
  <g>
    <rect x="139.4" y="33.2" transform="matrix(0.7677 -0.6408 0.6408 0.7677 6.8113 99.2838)" class="st0" width="1.9" height="14.1"/>
    <path class="st0" d="M136.6,34c0.1,0.1,0.1,0.2,0,0.3l-1.4,1.2c-0.1,0.1-0.2,0.1-0.3,0l-0.4-0.5c0,0,0.4-0.4,0.9-0.8
		s0.9-0.8,0.9-0.7L136.6,34z"/>
    <rect x="133" y="33.9" transform="matrix(0.7677 -0.6408 0.6408 0.7677 9.5509 94.5352)" class="st0" width="4.3" height="0.3"/>
    <rect x="133.5" y="32.2" transform="matrix(0.7677 -0.6408 0.6408 0.7677 9.9572 93.8503)" class="st0" width="1.8" height="2"/>
    <path class="st0" d="M133.2,32.9c-0.7-1.1-22.3-24.1-29.3-29.6c0,0,0.6-0.5,1.9,0.3c7.6,5.1,27.6,27.3,28.5,28.3
		C134.4,31.9,133.2,32.9,133.2,32.9z"/>
    <path class="st0" d="M144.7,45.9l0.2,0.9c0.1,0,0.1,0,0.2-0.1l0.3-0.2l-0.2-1L144.7,45.9L144.7,45.9z"/>
    <path class="st0" d="M145.6,46.4l0.4-0.3c0.1-0.1,0.1-0.2,0.1-0.2l-0.6,0.1L145.6,46.4L145.6,46.4z"/>
    <path class="st0" d="M145.6,45.2l-0.3,0.3l0.1,0.4l0.6-0.1c0-0.1-0.1-0.1-0.1-0.2C145.9,45.5,145.6,45.2,145.6,45.2z"/>
    <path class="st0" d="M144.3,46.3l0.3,0.3c0.1,0.1,0.1,0.1,0.2,0.2l-0.2-0.8L144.3,46.3z"/>
  </g>
  <g>
    <path class="st0" d="M110.5,41.2c-0.7,1.5-0.1,3.2,1.4,3.9c1.5,0.7,3.2,0.1,3.9-1.4c0.7-1.5,0.1-3.2-1.4-3.9
		C113,39.1,111.2,39.7,110.5,41.2L110.5,41.2z M111.3,41.6c0.5-1.1,1.8-1.5,2.9-1c1.1,0.5,1.5,1.8,1,2.9s-1.8,1.5-2.9,1
		C111.2,43.9,110.7,42.6,111.3,41.6z"/>
    <path class="st0" d="M113.5,40.9c0.1-0.2,0.3-0.3,0.5-0.2s0.3,0.3,0.2,0.5c-0.1,0.2-0.3,0.3-0.5,0.2S113.4,41.1,113.5,40.9z"/>
    <path class="st0" d="M114.9,42.4c0.2,0.1,0.3,0.3,0.2,0.5c-0.1,0.2-0.3,0.3-0.5,0.2c-0.2-0.1-0.3-0.3-0.2-0.5
		C114.5,42.4,114.7,42.3,114.9,42.4z"/>
    <path class="st0" d="M113.6,43.7c0.2,0.1,0.3,0.3,0.2,0.5s-0.3,0.3-0.5,0.2c-0.2-0.1-0.3-0.3-0.2-0.5
		C113.2,43.7,113.4,43.6,113.6,43.7z"/>
    <path class="st0" d="M112,42.9c0.2,0.1,0.3,0.3,0.2,0.5c-0.1,0.2-0.3,0.3-0.5,0.2s-0.3-0.3-0.2-0.5S111.8,42.8,112,42.9z"/>
    <path class="st0" d="M111.9,41.8c-0.2-0.1-0.3-0.3-0.2-0.5c0.1-0.2,0.3-0.3,0.5-0.2s0.3,0.3,0.2,0.5
		C112.3,41.8,112.1,41.9,111.9,41.8z"/>
    <path class="st0" d="M113.5,41.9c0.3,0.2,0.4,0.6,0.2,0.9c-0.2,0.3-0.5,0.4-0.8,0.3c-0.3-0.2-0.4-0.6-0.2-0.9
		C112.9,41.9,113.2,41.8,113.5,41.9z"/>
    <path class="st0" d="M103.9,45.5L103.9,45.5c1.7-2.4,3.6-4.6,5.6-6.8c0.5,0.4,1,0.8,1.5,1.3c-1.6,1.9-3.2,3.9-4.7,6l-0.6,0.8
		c-0.1,0.2-0.3,0.2-0.5,0.1c0,0,0,0,0,0L104,46C103.8,45.9,103.8,45.7,103.9,45.5L103.9,45.5z"/>
    <path class="st0" d="M109.8,38.5c0.9-1,26.8-29.8,34.5-34.9c1.3-0.9,1.9-0.4,1.9-0.4c-6.9,5.5-34.6,35.1-35.2,36.2L109.8,38.5z"/>
  </g>
  <text class="st1 st2 st3 st4" x="30" y="40" text-anchor="middle">剛</text>
  <text class="st5 st2 st3 st4" x="80" y="40" text-anchor="middle">樹</text>
  <text class="st1 st2 st3 st4" x="170" y="40" text-anchor="middle">茂</text>
  <text class="st5 st2 st3 st4" x="220" y="40" text-anchor="middle">木</text>
</svg>
