<?xml version="1.0" encoding="utf-8"?>
<!-- Generator: Adobe Illustrator 27.6.1, SVG Export Plug-In . SVG Version: 6.00 Build 0)  -->
<svg version="1.1" id="_レイヤー_2" xmlns="http://www.w3.org/2000/svg" xmlns:xlink="http://www.w3.org/1999/xlink" x="0px"
	 y="0px" viewBox="0 0 890 530" style="enable-background:new 0 0 890 530;" xml:space="preserve">
  <style type="text/css">
    .st0{enable-background:new;}
    .st1{fill:#FFFFFF;}
    .st2{font-family:'RyuminPr6N-Light-83pv-RKSJ-H',"游明朝",YuMincho,"Hiragino Mincho ProN W3","ヒラギノ明朝 ProN W3",serif;}
    .st3{font-size:54px;}
    .st11{fill:none;stroke:#D2B182;stroke-width:1.42;stroke-miterlimit:10;}
    .st12{fill:#D2B182;}
    .st13{font-family:'KozGoPr6N-Regular-83pv-RKSJ-H','Noto Sans Japanese',sans-serif;font-weight:600;}
    .st14{font-size:50px;}
    .st16{font-size:32px;}
    .st18{font-size:170px;}
    .st20{fill:#3264C2;}</style>
  <g>
    <g>
      <rect x="535.6" y="252.6" transform="matrix(0.7677 -0.6408 0.6408 0.7677 -64.3138 415.9371)" class="st12" width="11.9" height="88.2"/>
      <path class="st12" d="M518.1,257.3c0.5,0.6,0.4,1.4-0.2,1.9l-9,7.5c-0.6,0.5-1.4,0.4-1.9-0.1l-2.7-3.2c-0.2-0.3,2.6-2.5,5.4-4.8
				c2.8-2.3,5.4-4.7,5.6-4.5L518.1,257.3L518.1,257.3z"/>
      <rect x="495.5" y="257.1" transform="matrix(0.7677 -0.6408 0.6408 0.7677 -47.0827 386.1748)" class="st12" width="27.3" height="1.9"/>
      <rect x="498.7" y="246.1" transform="matrix(0.7677 -0.6408 0.6408 0.7677 -44.5746 381.8643)" class="st12" width="11.5" height="12.7"/>
      <path class="st12" d="M496.7,250.6c-4.2-7.1-140.1-151.5-183.6-185.8c0,0,3.8-3.4,12.2,2.2c48,32,173.1,171.2,178.6,177.6
				L496.7,250.6L496.7,250.6z"/>
      <path class="st12" d="M569.1,332.4l1.3,5.8c0.5,0,0.9-0.1,1.3-0.4l1.7-1.4L572,330L569.1,332.4L569.1,332.4z"/>
      <path class="st12" d="M574.3,335.6l2.4-2c0.5-0.4,0.7-0.9,0.7-1.5l-3.7,0.9L574.3,335.6L574.3,335.6z"/>
      <path class="st12" d="M574.8,327.6l-1.9,1.7l0.6,2.5l3.8-0.9c-0.1-0.4-0.3-0.8-0.7-1.2L574.8,327.6L574.8,327.6z"/>
      <path class="st12" d="M566.2,334.8l1.8,2.2c0.4,0.5,0.8,0.8,1.3,1l-1.1-4.8L566.2,334.8L566.2,334.8z"/>
    </g>
    <g>
      <path class="st12" d="M354.1,302.2c-4.4,9.3-0.4,20.4,8.9,24.8s20.4,0.4,24.8-8.9s0.4-20.4-8.9-24.8S358.5,292.9,354.1,302.2
				L354.1,302.2z M358.7,304.4c3.2-6.7,11.2-9.6,18-6.5c6.7,3.2,9.6,11.2,6.5,18c-3.2,6.7-11.2,9.6-18,6.5
				C358.4,319.2,355.5,311.1,358.7,304.4z"/>
      <path class="st12" d="M373,300.5c0.6-1.2,2-1.7,3.2-1.2s1.7,2,1.2,3.2c-0.6,1.2-2,1.7-3.2,1.2S372.4,301.7,373,300.5z"/>
      <path class="st12" d="M381.8,309.5c1.2,0.6,1.7,2,1.2,3.2c-0.6,1.2-2,1.7-3.2,1.2c-1.2-0.6-1.7-2-1.2-3.2
				C379.2,309.4,380.6,308.9,381.8,309.5z"/>
      <path class="st12" d="M373.7,317.6c1.2,0.6,1.7,2,1.2,3.2s-2,1.7-3.2,1.2c-1.2-0.6-1.7-2-1.2-3.2
				C371,317.6,372.4,317.1,373.7,317.6z"/>
      <path class="st12" d="M363.4,312.8c1.2,0.6,1.7,2,1.2,3.2c-0.6,1.2-2,1.7-3.2,1.2s-1.7-2-1.2-3.2S362.2,312.2,363.4,312.8z"/>
      <path class="st12" d="M362.7,305.8c-1.2-0.6-1.7-2-1.2-3.2c0.6-1.2,2-1.7,3.2-1.2s1.7,2,1.2,3.2
				C365.4,305.9,363.9,306.4,362.7,305.8z"/>
      <path class="st12" d="M372.7,306.4c2,1.2,2.6,3.8,1.4,5.8c-1,1.6-3,2.4-4.9,1.8c-2-1.2-2.6-3.8-1.4-5.8
				C368.8,306.5,370.8,305.8,372.7,306.4z"/>
      <path class="st12" d="M312.4,328.9C312.4,328.9,312.4,328.9,312.4,328.9c10.9-14.9,22.5-29.1,34.9-42.7c3.2,2.6,6.3,5.2,9.4,8
				c-10.2,11.9-20,24.4-29.5,37.4l-3.8,5.2c-0.8,1-2.2,1.3-3.2,0.5c0,0-0.1,0-0.1-0.1l-7-5C312,331.5,311.7,330,312.4,328.9
				L312.4,328.9z"/>
      <path class="st12" d="M349.6,285.3c5.5-6.3,168.3-187,216.2-219c8.3-5.5,12.2-2.2,12.2-2.2c-43.4,34.2-217,220.1-221.2,227.2
				L349.6,285.3L349.6,285.3z"/>
    </g>
    <g>
      <line class="st11" x1="10" y1="390" x2="310" y2="390"/>
      <line class="st11" x1="580" y1="390" x2="880" y2="390"/>
      <line class="st11" x1="10" y1="520" x2="880" y2="520"/>
      <text class="st1 st2 st3" x="445" y="50" text-anchor="middle" textLength="760" dominant-baseline="middle">折れない竿と、折れない心</text>
      <text class="st12 st13 st14 st15" x="445" y="465" text-anchor="middle" textLength="760" dominant-baseline="middle">世界最強のジギングロッド</text>
      <text class="st12 st13 st16 st17" x="445" y="392" text-anchor="middle" textLength="230" dominant-baseline="middle">年間限定生産</text>
    </g>
    <g>
      <text class="st1 st2 st18 st19" x="80" y="260" text-anchor="middle">剛</text>
      <text class="st20 st2 st18 st19" x="290" y="260" text-anchor="middle">樹</text>
      <text class="st1 st2 st18 st19" x="590" y="260" text-anchor="middle">茂</text>
      <text class="st20 st2 st18 st19" x="800" y="260" text-anchor="middle">木</text>
    </g>
  </g>
</svg>
