<?xml version="1.0" encoding="UTF-8"?>
<svg id="_レイヤー_2" data-name="レイヤー 2" xmlns="http://www.w3.org/2000/svg" viewBox="0 0 18.71 27.88">
  <defs>
    <style>
      .cls-1 {
        fill: #3da6df;
      }
    </style>
  </defs>
  <g id="pc">
    <path class="cls-1" d="m10.54.53L.06,26.73c-.17.43.04.92.47,1.09.43.17.92-.04,1.09-.47L12.1,1.15c.17-.43-.04-.92-.47-1.09-.43-.17-.92.04-1.09.47"/>
    <path class="cls-1" d="m17.17,10.85l-10.48,15.72c-.26.39-.15.91.23,1.17.39.26.91.15,1.17-.23l10.48-15.72c.26-.39.15-.91-.23-1.17-.39-.26-.91-.15-1.17.23"/>
  </g>
</svg>