<?xml version="1.0" encoding="UTF-8"?>
<svg id="_レイヤー_2" data-name="レイヤー 2" xmlns="http://www.w3.org/2000/svg" viewBox="0 0 18.71 27.88">
  <defs>
    <style>
      .cls-1 {
        fill: #3da6df;
      }
    </style>
  </defs>
  <g id="pc">
    <path class="cls-1" d="m6.61,1.15l10.48,26.2c.17.43.66.64,1.09.47.43-.17.64-.66.47-1.09L8.17.53c-.17-.43-.66-.64-1.09-.47-.43.17-.64.66-.47,1.09"/>
    <path class="cls-1" d="m.14,11.79l10.48,15.72c.26.39.78.49,1.17.23.39-.26.49-.78.23-1.17L1.54,10.85c-.26-.39-.78-.49-1.17-.23-.39.26-.49.78-.23,1.17"/>
  </g>
</svg>