<?xml version="1.0" encoding="UTF-8"?>
<svg id="_レイヤー_2" data-name="レイヤー 2" xmlns="http://www.w3.org/2000/svg" viewBox="0 0 31.44 20.63">
  <defs>
    <style>
      .cls-1 {
        fill: #3d3a39;
      }
    </style>
  </defs>
  <g id="_01" data-name="01">
    <g>
      <path class="cls-1" d="m30.08,16.43h-.04V1.7c0-.94-.76-1.7-1.7-1.7H3.1c-.94,0-1.7.76-1.7,1.7v14.73h-.04c-.75,0-1.36.57-1.36,1.28,0,.04,0,.09.02.13l.39,1.59c.07.79,1.16,1.2,1.76,1.2h27.11c.59,0,1.69-.41,1.76-1.2l.39-1.59s.02-.09.02-.13c0-.71-.61-1.28-1.36-1.28Zm-.11,2.79s0,.04-.01.07c-.09.1-.44.26-.68.26H2.17c-.24,0-.59-.16-.68-.26,0-.02,0-.04-.01-.07l-.38-1.55c.03-.09.14-.16.27-.16h12.1c.3,0,.54-.24.54-.54s-.24-.54-.54-.54H2.48V4.34h9.85c.3,0,.54-.24.54-.54s-.24-.54-.54-.54H2.48v-1.56c0-.34.28-.62.62-.62h25.24c.34,0,.62.28.62.62v1.56h-9.93c-.3,0-.54.24-.54.54s.24.54.54.54h9.93v12.09h-11.29c-.3,0-.54.24-.54.54s.24.54.54.54h12.41c.13,0,.24.07.27.16l-.38,1.55Z"/>
      <path class="cls-1" d="m21.56,14.86h-11.69c-.45,0-.86-.23-1.08-.63-.23-.39-.23-.86,0-1.25L14.63,2.85c.23-.39.63-.63,1.08-.63s.86.23,1.08.63l5.85,10.13c.23.39.23.86,0,1.25-.23.39-.63.63-1.08.63ZM15.72,3.31s-.11.01-.15.09l-5.85,10.13c-.04.07-.02.14,0,.17s.06.09.15.09h11.69c.09,0,.13-.05.15-.09.02-.03.04-.1,0-.17L15.87,3.39c-.04-.07-.11-.09-.15-.09Z"/>
      <path class="cls-1" d="m15.72,10.87c-.3,0-.54-.24-.54-.54v-4.38c0-.3.24-.54.54-.54s.54.24.54.54v4.38c0,.3-.24.54-.54.54Z"/>
      <path class="cls-1" d="m15.72,12.69c-.3,0-.54-.24-.54-.54v-.24c0-.3.24-.54.54-.54s.54.24.54.54v.24c0,.3-.24.54-.54.54Z"/>
    </g>
  </g>
</svg>