<?xml version="1.0" encoding="UTF-8"?>
<svg id="_レイヤー_2" data-name="レイヤー 2" xmlns="http://www.w3.org/2000/svg" viewBox="0 0 27.66 19.59">
  <defs>
    <style>
      .cls-1 {
        fill: #fff;
      }
    </style>
  </defs>
  <g id="_01" data-name="01">
    <path class="cls-1" d="m.4,0s-.02,0-.03,0c-.02,0-.04.01-.06.02,0,0-.02,0-.03.01-.02,0-.04.02-.06.03,0,0-.01,0-.02.01-.02.02-.05.03-.07.05,0,0,0,.01-.01.02-.01.02-.03.03-.04.05,0,0-.01.02-.02.03-.01.02-.02.03-.03.05,0,0,0,.02-.01.03,0,0,0,0,0,.01,0,.02,0,.03-.01.05,0,0,0,.01,0,.02,0,.03,0,.06,0,.09,0,0,0,0,0,0v18.6c0,.27.22.49.49.49h26.68c.27,0,.49-.22.49-.49V.49s0,0,0,0c0-.03,0-.06,0-.09,0,0,0-.01,0-.02,0-.02,0-.04-.01-.05,0,0,0,0,0-.01,0,0,0-.02-.01-.03,0-.02-.02-.04-.03-.05,0,0,0-.02-.02-.02-.01-.02-.03-.04-.04-.05,0,0,0,0-.01-.01-.02-.02-.04-.04-.07-.05,0,0-.01,0-.02,0-.02-.01-.04-.02-.06-.03,0,0-.02,0-.03-.01-.02,0-.04-.01-.06-.02,0,0-.02,0-.03,0-.03,0-.06,0-.09,0H.49s-.06,0-.09,0Zm25.39.97l-9.48,7.76v-.33c0-.27-.22-.49-.49-.49h-3.99c-.27,0-.49.22-.49.49v.3L1.87.98h23.93Zm-10.46,7.92v3.05h-3.01v-3.05h3.01ZM.98,1.52l10.36,8.46v2.46c0,.27.22.49.49.49h3.99c.27,0,.49-.22.49-.49v-2.43L26.68,1.53v17.08H.98V1.52Z"/>
  </g>
</svg>