<?xml version="1.0" encoding="UTF-8"?>
<svg id="_レイヤー_2" data-name="レイヤー 2" xmlns="http://www.w3.org/2000/svg" viewBox="0 0 16.54 29.93">
  <defs>
    <style>
      .cls-1 {
        fill: #fff;
      }

      .cls-2 {
        fill: #3d3a39;
      }
    </style>
  </defs>
  <g id="_01" data-name="01">
    <g>
      <path class="cls-2" d="m12.37,7.48h-2.77v-3.06c.09-.03.17-.06.26-.09,1.38-.56,1.7-1.47,1.73-2.14.04-.92-.11-1.54-.46-1.89-.26-.27-.54-.3-.65-.3H1.82c-.5,0-.9.41-.9.9v.68c0,.27.11.52.3.71.22.21.51.32.82.28l.22-.03c.72-.09,1.4-.17,1.97-.17.68,0,1.12.12,1.39.38l.23.22c.36.35.72.71,1.1.99v3.52h-2.77c-2.3,0-4.17,1.93-4.17,4.31v13.82c0,2.38,1.87,4.31,4.17,4.31h8.19c2.3,0,4.17-1.93,4.17-4.31v-13.82c0-2.38-1.87-4.31-4.17-4.31Zm3.03,14.66H5.87s-.09-.04-.09-.09v-7.86s.04-.09.09-.09h9.52v8.03ZM6.41,1.93c-.65-.63-1.56-.7-2.19-.7s-1.35.09-2.11.18h-.06s0-.25,0-.25h8.27c.05.1.13.38.11,1,0,.18-.03.73-1.01,1.13-.4.16-.88.17-1.34.02-.43-.14-.97-.67-1.44-1.14l-.23-.23Zm1.68,2.55c.12.02.24.04.36.06v2.95h-.36v-3.01Zm4.28,24.3H4.17c-1.67,0-3.03-1.42-3.03-3.16v-13.82c0-1.74,1.36-3.16,3.03-3.16h3.33s0,0,.01,0h1.51s0,0,.01,0h3.33c1.67,0,3.03,1.42,3.03,3.16v1.18H5.87c-.68,0-1.23.55-1.23,1.23v7.86c0,.68.55,1.24,1.23,1.24h9.52v2.32c0,1.74-1.36,3.16-3.03,3.16Z"/>
      <path class="cls-1" d="m12.37,28.78H4.17c-1.67,0-3.03-1.42-3.03-3.16v-13.82c0-1.74,1.36-3.16,3.03-3.16h3.33s0,0,.01,0h1.51s0,0,.01,0h3.33c1.67,0,3.03,1.42,3.03,3.16v1.18H5.87c-.68,0-1.23.55-1.23,1.23v7.86c0,.68.55,1.24,1.23,1.24h9.52v2.32c0,1.74-1.36,3.16-3.03,3.16Z"/>
      <path class="cls-1" d="m15.39,22.15H5.87s-.09-.04-.09-.09v-7.86s.04-.09.09-.09h9.52v8.03Z"/>
      <path class="cls-1" d="m6.41,1.93c-.65-.63-1.56-.7-2.19-.7s-1.35.09-2.11.18h-.06s0-.25,0-.25h8.27c.05.1.13.38.11,1,0,.18-.03.73-1.01,1.13-.4.16-.88.17-1.34.02-.43-.14-.97-.67-1.44-1.14l-.23-.23Z"/>
      <path class="cls-1" d="m8.09,4.48c.12.02.24.04.36.06v2.95h-.36v-3.01Z"/>
      <g>
        <path class="cls-2" d="m10.52,18.92h-1.86c-.07,0-.13.06-.13.13v1.86c0,.07.06.13.13.13h1.86c.07,0,.13-.06.13-.13v-1.86c0-.16-.25-.16-.25,0v1.86l.13-.13h-1.86l.13.13v-1.86l-.13.13h1.86c.16,0,.16-.25,0-.25Z"/>
        <path class="cls-2" d="m9.85,19.72h-.52v.52h.52c0-.21,0-.42,0-.52Z"/>
        <path class="cls-2" d="m9.85,19.59h-.52c-.07,0-.13.06-.13.13v.52c0,.07.06.13.13.13h.52c.07,0,.13-.06.13-.13v-.52c0-.07-.06-.13-.13-.13-.07,0-.13.06-.13.13v.52l.13-.13h-.52l.13.13v-.52l-.13.13h.52c.07,0,.13-.06.13-.13s-.06-.13-.13-.13h0Z"/>
        <path class="cls-2" d="m10.52,15.87h-1.86c-.07,0-.13.06-.13.13v1.86c0,.07.06.13.13.13h1.86c.07,0,.13-.06.13-.13v-1.86c0-.16-.25-.16-.25,0v1.86l.13-.13h-1.86l.13.13v-1.86l-.13.13h1.86c.16,0,.16-.25,0-.25Z"/>
        <path class="cls-2" d="m11.02,15.99v1.86c0,.16.25.16.25,0v-1.86c0-.16-.25-.16-.25,0Z"/>
        <path class="cls-2" d="m10.52,18.31h-1.86c-.16,0-.16.25,0,.25h1.86c.16,0,.16-.25,0-.25Z"/>
        <path class="cls-2" d="m13.58,18.31h-1.02c-.16,0-.16.25,0,.25h1.02c.16,0,.16-.25,0-.25Z"/>
        <path class="cls-2" d="m11.12,18.57h.9l-.13-.13v.9c0,.07.06.13.13.13h.9l-.13-.13v.9c0,.16.25.16.25,0v-.9c0-.07-.06-.13-.13-.13h-.9l.13.13v-.9c0-.07-.06-.13-.13-.13h-.9c-.16,0-.16.25,0,.25h0Z"/>
        <path class="cls-2" d="m11.03,19.05v1.86c0,.07.06.13.13.13h.61c.16,0,.16-.25,0-.25h-.61l.13.13v-1.86c0-.16-.25-.16-.25,0Z"/>
        <path class="cls-2" d="m12.35,21.03h1.23c.07,0,.13-.06.13-.13v-1.3c0-.16-.25-.16-.25,0v1.3l.13-.13h-1.23c-.16,0-.16.25,0,.25h0Z"/>
        <path class="cls-2" d="m9.85,16.66h-.52v.52h.52v-.52Z"/>
        <path class="cls-2" d="m9.85,16.53h-.52c-.07,0-.13.06-.13.13v.52c0,.07.06.13.13.13h.52c.07,0,.13-.06.13-.13v-.52c0-.07-.06-.13-.13-.13-.07,0-.13.06-.13.13v.52l.13-.13h-.52l.13.13v-.52l-.13.13h.52c.07,0,.13-.06.13-.13s-.06-.13-.13-.13Z"/>
        <path class="cls-2" d="m13.65,15.87h-1.86c-.07,0-.13.06-.13.13v1.86c0,.07.06.13.13.13h1.86c.07,0,.13-.06.13-.13v-1.86c0-.16-.25-.16-.25,0v1.86l.13-.13h-1.86l.13.13v-1.86l-.13.13h1.86c.16,0,.16-.25,0-.25Z"/>
        <path class="cls-2" d="m12.98,16.66h-.52v.52h.52v-.52Z"/>
        <path class="cls-2" d="m12.98,16.53h-.52c-.07,0-.13.06-.13.13v.52c0,.07.06.13.13.13h.52c.07,0,.13-.06.13-.13v-.52c0-.07-.06-.13-.13-.13s-.13.06-.13.13h0v.52l.13-.13h-.52l.13.13v-.52l-.13.13h.52c.07,0,.13-.06.13-.13s-.06-.13-.13-.13Z"/>
        <path class="cls-2" d="m12.32,19.97h-.49v.22h.49v-.22Z"/>
        <path class="cls-2" d="m12.32,19.84h-.49c-.07,0-.13.06-.13.13v.22c0,.07.06.13.13.13h.49c.07,0,.13-.06.13-.13v-.22c0-.07-.06-.13-.13-.13-.07,0-.13.06-.13.13h0v.22l.13-.13h-.49l.13.13v-.22l-.13.13h.49c.07,0,.13-.06.13-.13s-.06-.13-.13-.13h0Z"/>
        <path class="cls-2" d="m12.8,18.45v.29s.01.07.04.09c.05.05.13.05.18,0,.02-.02.04-.06.04-.09v-.29s-.01-.07-.04-.09c-.05-.05-.13-.05-.18,0-.02.02-.04.06-.04.09Z"/>
        <path class="cls-2" d="m13.45,18.45v.6c0,.07.06.13.13.13s.13-.06.13-.13v-.6c0-.07-.06-.13-.13-.13s-.13.06-.13.13h0Z"/>
      </g>
    </g>
  </g>
</svg>