<?xml version="1.0" encoding="UTF-8"?>
<svg xmlns="http://www.w3.org/2000/svg" viewBox="0 0 61.74 61.74">
  <defs>
    <style>
      .cls-1, .cls-2 {
        stroke: #fff;
        stroke-width: .51px;
      }

      .cls-1, .cls-2, .cls-3, .cls-4 {
        stroke-miterlimit: 10;
      }

      .cls-1, .cls-3 {
        fill: #2d518a;
      }

      .cls-2 {
        fill: #d5dce8;
      }

      .cls-3 {
        mix-blend-mode: multiply;
        stroke: #2d518a;
        stroke-width: .34px;
      }

      .cls-4 {
        fill: none;
        stroke: #595757;
        stroke-width: 2.04px;
      }

      .cls-5 {
        fill: #fff;
        font-family: 'Noto Sans JP', sans-serif;
        font-weight: 700;
        font-size: 10.2px;
      }

      .cls-6 {
        isolation: isolate;
      }
    </style>
  </defs>
  <g class="cls-6">
    <g id="_レイヤー_2" data-name="レイヤー 2">
      <g id="_01" data-name="01">
        <g>
          <rect class="cls-2" x=".26" y=".26" width="61.23" height="61.23" rx="5.67" ry="5.67"/>
          <path class="cls-1" d="m5.92.26h49.89c3.13,0,5.67,2.54,5.67,5.67v28.35H.26V5.92C.26,2.8,2.8.26,5.92.26Z"/>
          <path class="cls-3" d="m39.61,11.78v-2.2l-2.15-1.4-1.95,1.27-2.34-1.39v-1.98l-2.15-1.4-2.15,1.4v1.99l-2.25,1.41-2-1.3-2.15,1.4v2.2l1.95,1.27v2.05l-1.95,1.27v2.2l2.15,1.4,1.94-1.27,2.31,1.67v2l2.15,1.4,2.15-1.4v-1.99l2.45-1.55-.07-.11,1.91,1.25,2.15-1.4v-2.2l-1.95-1.27v-2.05l1.95-1.27Zm-.4-.21l-1.55,1.01v-1.52l1.55-1.01v1.52Zm-3.5-1.52l1.55,1.01v1.52l-1.55-1.01v-1.52Zm-4.69-4.89l1.58,1.03-1.58,1.03-1.58-1.03,1.58-1.03Zm1.75,1.4v1.52l-1.55,1.01v-1.52l1.55-1.01Zm-3.5,0l1.55,1.01v1.52l-1.55-1.01v-1.52Zm-2.5,3.31l2.3-1.44,1.95,1.27,1.95-1.27,2.34,1.39v1.75l-2.33,1.17-1.96-1.28-1.96,1.28-2.29-1.17v-1.7Zm2.67,3.09l1.58-1.03,1.58,1.03-1.58,1.03-1.58-1.03Zm1.38,1.38v1.52l-1.55-1.01v-1.52l1.55,1.01Zm.4,0l1.55-1.01v1.52l-1.55,1.01v-1.52Zm-6.6-5.67l1.58,1.03-1.58,1.03-1.58-1.03,1.58-1.03Zm1.75,1.4v1.52l-1.55,1.01v-1.52l1.55-1.01Zm-3.5,1.52v-1.52l1.55,1.01v1.52l-1.55-1.01Zm1.55,7.81l-1.55-1.01v-1.52l1.55,1.01v1.52Zm-1.38-2.9l1.58-1.03,1.58,1.03-1.58,1.03-1.58-1.03Zm3.33,1.88l-1.55,1.01v-1.52l1.55-1.01v1.52Zm.4,0v-2l-1.95-1.27v-2.05s1.76-1.15,1.76-1.15l2.29,1.17v1.97l1.95,1.27v2.59l-1.74,1.14-2.31-1.67Zm4.05,4.8l-1.55-1.01v-1.52l1.55,1.01v1.52Zm-1.38-2.9l1.58-1.03,1.58,1.03-1.58,1.03-1.58-1.03Zm3.33,1.88l-1.55,1.01v-1.52l1.55-1.01v1.52Zm2.54-5.79v2.19l-2.34,1.48-1.75-1.14v-2.59s1.95-1.27,1.95-1.27v-1.97l2.33-1.17,1.76,1.15v2.05l-1.95,1.27Zm1.95,3l-1.55-1.01v-1.52l1.55,1.01v1.52Zm1.95-1.01l-1.55,1.01v-1.52l1.55-1.01v1.52Zm-.17-1.88l-1.58,1.03-1.58-1.03,1.58-1.03,1.58,1.03Zm-1.58-5.76l-1.58-1.03,1.58-1.03,1.58,1.03-1.58,1.03Z"/>
          <text class="cls-5" x="2" y="28" textLength="72" transform="scale(.8 1)">BLOCK CHAIN</text>


          <circle class="cls-4" cx="29.97" cy="46.38" r="7.65"/>
        </g>
      </g>
    </g>
  </g>
</svg>