<?xml version="1.0" encoding="UTF-8"?>
<svg xmlns="http://www.w3.org/2000/svg" viewBox="0 0 61.74 61.74">
  <defs>
    <style>
      .cls-1, .cls-2 {
        fill: #2d518a;
      }

      .cls-2, .cls-3 {
        stroke: #fff;
        stroke-width: .51px;
      }

      .cls-2, .cls-3, .cls-4 {
        stroke-miterlimit: 10;
      }

      .cls-3 {
        fill: #d5dce8;
      }

      .cls-5 {
        mix-blend-mode: multiply;
      }

      .cls-4 {
        fill: none;
        stroke: #595757;
        stroke-width: 2.04px;
      }

      .cls-6 {
        fill: #fff;
        font-family: 'Noto Sans JP', sans-serif;
        font-weight: 700;
        font-size: 10.2px;
        letter-spacing: .03em;
      }

      .cls-7 {
        isolation: isolate;
      }
    </style>
  </defs>
  <g class="cls-7">
    <g id="_レイヤー_2" data-name="レイヤー 2">
      <g id="_01" data-name="01">
        <g>
          <rect class="cls-3" x=".26" y=".26" width="61.23" height="61.23" rx="5.67" ry="5.67"/>
          <path class="cls-2" d="m5.92.26h49.89c3.13,0,5.67,2.54,5.67,5.67v28.35H.26V5.92C.26,2.8,2.8.26,5.92.26Z"/>
          <g>
            <line class="cls-4" x1="24.42" y1="53.8" x2="38.03" y2="40.2"/>
            <line class="cls-4" x1="38.03" y1="53.8" x2="24.42" y2="40.2"/>
          </g>
          <g class="cls-5">
            <path class="cls-1" d="m29.28,17.06h-5.93c-.22,0-.4.18-.4.4v5.93c0,.22.18.4.4.4h5.93c.22,0,.4-.18.4-.4v-5.93c0-.52-.81-.52-.81,0v5.93l.4-.4h-5.93l.4.4v-5.93l-.4.4h5.93c.52,0,.52-.81,0-.81Z"/>
            <path class="cls-1" d="m27.15,19.6h-1.66v1.66h1.66c0-.68,0-1.36,0-1.66Z"/>
            <path class="cls-1" d="m27.15,19.19h-1.66c-.22,0-.4.18-.4.4v1.66c0,.22.18.4.4.4h1.66c.22,0,.4-.18.4-.4v-1.66c0-.22-.18-.4-.4-.4-.22,0-.4.18-.4.4v1.66l.4-.4h-1.66l.4.4v-1.66l-.4.4h1.66c.22,0,.4-.18.4-.4s-.18-.4-.4-.4h0Z"/>
            <path class="cls-1" d="m29.28,7.3h-5.93c-.22,0-.4.18-.4.4v5.93c0,.22.18.4.4.4h5.93c.22,0,.4-.18.4-.4v-5.93c0-.52-.81-.52-.81,0v5.93l.4-.4h-5.93l.4.4v-5.93l-.4.4h5.93c.52,0,.52-.81,0-.81Z"/>
            <path class="cls-1" d="m30.91,7.7v5.93c0,.52.81.52.81,0v-5.93c0-.52-.81-.52-.81,0Z"/>
            <path class="cls-1" d="m29.28,15.11h-5.93c-.52,0-.52.81,0,.81h5.93c.52,0,.52-.81,0-.81Z"/>
            <path class="cls-1" d="m39.07,15.11h-3.25c-.52,0-.52.81,0,.81h3.25c.52,0,.52-.81,0-.81Z"/>
            <path class="cls-1" d="m31.22,15.92h2.88l-.4-.4v2.88c0,.22.18.4.4.4h2.88l-.4-.4v2.88c0,.52.81.52.81,0v-2.88c0-.22-.18-.4-.4-.4h-2.88l.4.4v-2.88c0-.22-.18-.4-.4-.4h-2.88c-.52,0-.52.81,0,.81h0Z"/>
            <path class="cls-1" d="m30.92,17.46v5.93c0,.22.18.4.4.4h1.96c.52,0,.52-.81,0-.81h-1.96l.4.4v-5.93c0-.52-.81-.52-.81,0Z"/>
            <path class="cls-1" d="m35.14,23.79h3.93c.22,0,.4-.18.4-.4v-4.15c0-.52-.81-.52-.81,0v4.15l.4-.4h-3.93c-.52,0-.52.81,0,.81h0Z"/>
            <path class="cls-1" d="m27.15,9.84h-1.66v1.66h1.66v-1.66Z"/>
            <path class="cls-1" d="m27.15,9.43h-1.66c-.22,0-.4.18-.4.4v1.66c0,.22.18.4.4.4h1.66c.22,0,.4-.18.4-.4v-1.66c0-.22-.18-.4-.4-.4-.22,0-.4.18-.4.4v1.66l.4-.4h-1.66l.4.4v-1.66l-.4.4h1.66c.22,0,.4-.18.4-.4s-.18-.4-.4-.4Z"/>
            <path class="cls-1" d="m39.28,7.3h-5.93c-.22,0-.4.18-.4.4v5.93c0,.22.18.4.4.4h5.93c.22,0,.4-.18.4-.4v-5.93c0-.52-.81-.52-.81,0v5.93l.4-.4h-5.93l.4.4v-5.93l-.4.4h5.93c.52,0,.52-.81,0-.81Z"/>
            <path class="cls-1" d="m37.15,9.84h-1.66v1.66h1.66v-1.66Z"/>
            <path class="cls-1" d="m37.15,9.43h-1.66c-.22,0-.4.18-.4.4v1.66c0,.22.18.4.4.4h1.66c.22,0,.4-.18.4-.4v-1.66c0-.22-.18-.4-.4-.4s-.4.18-.4.4h0v1.66l.4-.4h-1.66l.4.4v-1.66l-.4.4h1.66c.22,0,.4-.18.4-.4s-.18-.4-.4-.4Z"/>
            <path class="cls-1" d="m35.04,20.41h-1.57v.71h1.57v-.71Z"/>
            <path class="cls-1" d="m35.04,20.01h-1.57c-.22,0-.4.18-.4.4v.71c0,.22.18.4.4.4h1.57c.22,0,.4-.18.4-.4v-.71c0-.22-.18-.4-.4-.4-.22,0-.4.18-.4.4h0v.71l.4-.4h-1.57l.4.4v-.71l-.4.4h1.57c.22,0,.4-.18.4-.4s-.18-.4-.4-.4h0Z"/>
            <path class="cls-1" d="m36.57,15.55v.94c0,.11.04.21.12.29.16.16.41.16.57,0,.08-.08.12-.18.12-.29v-.94c0-.11-.04-.21-.12-.29-.16-.16-.41-.16-.57,0-.08.08-.12.18-.12.29Z"/>
            <path class="cls-1" d="m38.65,15.55v1.92c0,.22.18.4.4.4s.4-.18.4-.4v-1.92c0-.22-.18-.4-.4-.4s-.4.18-.4.4h0Z"/>
          </g>
          <text class="cls-6" x="30.5" y="28" textLength="18" text-anchor="middle">QR</text>
        </g>
      </g>
    </g>
  </g>
</svg>