<?xml version="1.0" encoding="UTF-8"?>
<svg xmlns="http://www.w3.org/2000/svg" viewBox="0 0 61.74 61.74">
  <defs>
    <style>
      .cls-1, .cls-2 {
        fill: #2d518a;
      }

      .cls-2, .cls-3 {
        stroke: #fff;
        stroke-miterlimit: 10;
        stroke-width: .51px;
      }

      .cls-3 {
        fill: #d5dce8;
      }

      .cls-4 {
        mix-blend-mode: multiply;
      }

      .cls-5 {
        fill: none;
        stroke: #595757;
        stroke-linecap: round;
        stroke-linejoin: round;
        stroke-width: 2.04px;
      }

      .cls-6 {
        fill: #fff;
        font-family: 'Noto Sans JP', sans-serif;
        font-weight: 700;
        font-size: 10.2px;
        letter-spacing: .03em;
      }

      .cls-7 {
        isolation: isolate;
      }
    </style>
  </defs>
  <g class="cls-7">
    <g id="_レイヤー_2" data-name="レイヤー 2">
      <g id="_01" data-name="01">
        <g>
          <rect class="cls-3" x=".26" y=".26" width="61.23" height="61.23" rx="5.67" ry="5.67"/>
          <path class="cls-2" d="m5.92.26h49.89c3.13,0,5.67,2.54,5.67,5.67v28.35H.26V5.92C.26,2.8,2.8.26,5.92.26Z"/>
          <polygon class="cls-5" points="22.85 54 31.35 39.83 39.85 54 22.85 54"/>
          <g class="cls-4">
            <circle class="cls-1" cx="31.3" cy="19.34" r="1.51"/>
            <path class="cls-1" d="m35.38,17.35c-.19.19-.44.29-.73.29-.24,0-.53-.1-.73-.29-1.41-1.41-3.74-1.41-5.2,0-.39.39-1.02.39-1.41,0-.39-.39-.39-1.02,0-1.41,2.19-2.19,5.83-2.19,8.01,0,.44.39.44,1.02.05,1.41h0Z"/>
            <path class="cls-1" d="m37.86,14.87c-.19.19-.44.29-.73.29-.24,0-.53-.1-.73-.29-2.82-2.82-7.33-2.82-10.15,0-.39.39-1.02.39-1.41,0-.39-.39-.39-1.02,0-1.41,3.59-3.59,9.37-3.59,12.97,0,.44.39.44,1.02.05,1.41h0Z"/>
            <path class="cls-1" d="m40.34,10.99c.39.39.39,1.02,0,1.41-.19.19-.44.29-.73.29-.24,0-.53-.1-.73-.29-4.18-4.18-10.93-4.18-15.11,0-.39.39-1.02.39-1.41,0-.39-.39-.39-1.02,0-1.41,2.38-2.38,5.59-3.69,8.94-3.69,3.45-.05,6.65,1.31,9.03,3.69h0Z"/>
          </g>
          <text class="cls-6" x="30.5" y="28" textLength="54" text-anchor="middle"><tspan>RFID/NFC</tspan></text>
        </g>
      </g>
    </g>
  </g>
</svg>