<?xml version="1.0" encoding="UTF-8"?>
<svg xmlns="http://www.w3.org/2000/svg" viewBox="0 0 61.74 61.74">
  <defs>
    <style>
      .cls-1, .cls-2 {
        stroke: #fff;
        stroke-width: .51px;
      }

      .cls-1, .cls-2, .cls-3, .cls-4 {
        stroke-miterlimit: 10;
      }

      .cls-1, .cls-3 {
        fill: #2d518a;
      }

      .cls-2 {
        fill: #d5dce8;
      }

      .cls-3 {
        mix-blend-mode: multiply;
        stroke: #2d518a;
        stroke-width: .68px;
      }

      .cls-4 {
        fill: none;
        stroke: #595757;
        stroke-width: 2.04px;
      }

      .cls-5 {
        fill: #fff;
        font-family: 'Noto Sans JP', sans-serif;
        font-weight: 700;
        font-size: 10.2px;
        letter-spacing: .03em;
      }

      .cls-6 {
        isolation: isolate;
      }
    </style>
  </defs>
  <g class="cls-6">
    <g id="_レイヤー_2" data-name="レイヤー 2">
      <g id="_01" data-name="01">
        <g>
          <rect class="cls-2" x=".26" y=".26" width="61.23" height="61.23" rx="5.67" ry="5.67"/>
          <path class="cls-1" d="m5.92.26h49.89c3.13,0,5.67,2.54,5.67,5.67v28.35H.26V5.92C.26,2.8,2.8.26,5.92.26Z"/>
          <path class="cls-3" d="m30.93,7.16c-1.85,0-3.52.28-4.75.75-.61.24-1.11.52-1.48.85-.36.33-.6.72-.6,1.15v10.95c0,.43.23.83.6,1.16.36.33.86.61,1.48.85,1.23.47,2.9.76,4.75.76s3.52-.29,4.75-.76c.61-.24,1.11-.51,1.48-.85.36-.33.6-.73.6-1.16v-10.95c0-.43-.23-.82-.6-1.15-.36-.33-.86-.62-1.48-.85-1.23-.47-2.9-.75-4.75-.75Zm0,.47c1.8,0,3.43.28,4.58.72.58.22,1.03.48,1.33.76.3.27.44.54.44.81v3.71s0,.04,0,.06c-.04.26-.21.52-.54.78-.32.26-.78.51-1.35.72-1.14.42-2.72.68-4.46.68s-3.31-.26-4.46-.68c-.57-.21-1.03-.46-1.35-.72-.32-.26-.5-.52-.54-.78,0-.01,0-.03,0-.04v-2.79c.08.08.17.16.26.24.38.31.89.57,1.5.79,1.21.44,2.82.7,4.59.7,2.13,0,4.02-.36,5.28-.97.06-.02.12-.07.14-.13.03-.06.02-.13,0-.19-.03-.06-.08-.11-.15-.12-.07-.02-.13,0-.19.03-1.15.56-2.99.92-5.07.92-1.72,0-3.29-.26-4.43-.67-.57-.21-1.03-.45-1.36-.71-.33-.26-.5-.53-.54-.78,0-.02,0-.03-.01-.04,0-.26.15-.52.44-.79.3-.27.75-.54,1.33-.76,1.15-.44,2.78-.72,4.58-.72h0Zm-4.24,5.41c-.26,0-.47.21-.47.47s.21.47.47.47.47-.21.47-.47-.21-.47-.47-.47h0Zm-2.12,1.57c.07.08.15.15.24.22.38.31.89.57,1.5.79,1.21.44,2.83.71,4.61.71s3.4-.27,4.61-.71c.61-.22,1.12-.49,1.5-.79.09-.07.17-.14.24-.22v2.54s0,.04,0,.06c-.04.26-.21.52-.54.78-.32.26-.78.51-1.35.72-1.14.42-2.72.68-4.46.68s-3.31-.26-4.46-.68c-.57-.21-1.03-.46-1.35-.72-.32-.26-.5-.52-.54-.78,0-.01,0-.03,0-.04v-2.56Zm2.12,2.19c-.26,0-.47.21-.47.47s.21.47.47.47.47-.21.47-.47-.21-.47-.47-.47h0Zm-2.12,1.34c.07.08.15.15.24.22.38.31.89.57,1.5.79,1.21.44,2.83.71,4.61.71s3.4-.27,4.61-.71c.61-.22,1.12-.49,1.5-.79.09-.07.17-.14.24-.22v2.72c0,.27-.14.54-.44.81-.3.27-.75.54-1.33.76-1.15.44-2.78.73-4.58.73s-3.43-.29-4.58-.73c-.58-.22-1.03-.48-1.33-.76-.3-.27-.44-.54-.44-.81v-2.72Zm2.12,2.19c-.26,0-.47.21-.47.47s.21.47.47.47.47-.21.47-.47-.21-.47-.47-.47h0Z"/>

          <text class="cls-5" x="30.5" y="28" textLength="18" text-anchor="middle">DB</text>

          <circle class="cls-4" cx="30.62" cy="46.38" r="7.65"/>
        </g>
      </g>
    </g>
  </g>
</svg>