<?xml version="1.0" encoding="UTF-8"?>
<svg id="_レイヤー_2" data-name="レイヤー 2" xmlns="http://www.w3.org/2000/svg" viewBox="0 0 24.24 24.24">
  <defs>
    <style>
      .cls-1 {
        fill: #fff;
      }
    </style>
  </defs>
  <g id="_01" data-name="01">
    <path class="cls-1" d="m4.78.03c-.08-.02-.17-.02-.26.02-.09.03-2.25.8-3.35,2.08C.63,2.75-.28,4.73.08,7.73c.53,4.32,3.41,8.06,5.8,10.48,0,0,0,0,0,0,.02.02.04.03.05.05.03.03.05.06.08.08,0,0,0,0,.01.01,4.31,4.25,8.07,5.5,10.47,5.8.48.06.93.08,1.36.08,2.24,0,3.72-.72,4.25-1.17.31-.26.59-.59.84-.94.03-.02.06-.04.09-.07.07-.07.12-.16.13-.26.64-.99,1-2.02,1.02-2.08.03-.09.03-.18.01-.26.06-.17.02-.37-.11-.51l-5.04-5.04s-.03-.03-.05-.05l-.28-.21c-.12-.09-.27-.12-.41-.08-2.4.62-3.3,2.61-3.56,3.37-.22.02-2.95.16-5.31-2.15-2.3-2.36-2.16-5.09-2.15-5.31.75-.26,2.75-1.16,3.37-3.56.04-.14,0-.29-.08-.41l-.21-.28s-.03-.04-.05-.05L5.28.14c-.14-.14-.34-.17-.51-.11Zm4.88,5.88c-.21.65-.54,1.15-.91,1.54l-2.51-2.6c-.19-.19-.49-.2-.69-.01-.19.19-.2.49-.01.69l2.46,2.54c-.62.41-1.17.55-1.22.57-.24.06-.39.28-.36.52-.04.06-.07.14-.08.22-.01.13-.3,3.25,2.33,6.01,0,.01.02.02.03.04.03.03.05.05.08.07.02.02.04.04.06.06,0,0,.02.01.03.02,2.23,2.12,4.69,2.35,5.63,2.35.22,0,.36-.01.38-.02.08,0,.16-.04.22-.08.24.02.46-.13.52-.36.01-.05.2-.77.77-1.51l1.55,1.5c.09.09.22.14.34.14s.25-.05.35-.15c.19-.19.18-.5-.01-.69l-1.55-1.5c.34-.28.76-.52,1.28-.68l.06.05,4.86,4.86c-.08.21-.32.81-.68,1.44l-2.35-2.31c-.19-.19-.5-.18-.69,0s-.18.5,0,.69l2.49,2.44c-.17.22-.35.42-.54.58-1.08.92-7.1,2.95-14.84-4.74C-1.05,9.86.99,3.84,1.91,2.76c.18-.21.4-.41.64-.59l1.43,1.46c.1.1.22.15.35.15s.24-.05.34-.14c.19-.19.2-.49,0-.69l-1.29-1.32c.61-.34,1.17-.56,1.37-.64l4.86,4.86.05.06Z"/>
  </g>
</svg>