<?xml version="1.0" encoding="UTF-8"?>
<svg id="_レイヤー_2" data-name="レイヤー 2" xmlns="http://www.w3.org/2000/svg" viewBox="0 0 20 20">
  <defs>
    <style>
      .cls-1 {
        fill: #fff;
      }
    </style>
  </defs>
  <g id="_01" data-name="01">
    <path class="cls-1" d="m6.67,10c0-1.84,1.49-3.33,3.33-3.33s3.33,1.49,3.33,3.33-1.49,3.33-3.33,3.33-3.33-1.49-3.33-3.33m-1.8,0c0,2.84,2.3,5.13,5.14,5.13s5.14-2.3,5.14-5.13-2.3-5.13-5.14-5.13-5.14,2.3-5.14,5.13m9.27-5.34c0,.66.54,1.2,1.2,1.2.66,0,1.2-.54,1.2-1.2,0-.66-.54-1.2-1.2-1.2h0c-.66,0-1.2.54-1.2,1.2m-8.18,13.48c-.97-.04-1.5-.21-1.86-.34-.47-.18-.8-.4-1.15-.75-.35-.35-.57-.68-.75-1.15-.14-.35-.3-.88-.34-1.86-.05-1.05-.06-1.37-.06-4.04s.01-2.99.06-4.04c.04-.97.21-1.5.34-1.86.18-.47.4-.8.75-1.15.35-.35.68-.57,1.15-.75.35-.14.88-.3,1.86-.34,1.05-.05,1.37-.06,4.04-.06s2.99.01,4.04.06c.98.04,1.5.21,1.86.34.47.18.8.4,1.15.75.35.35.57.68.75,1.15.14.35.3.88.34,1.86.05,1.05.06,1.37.06,4.04s0,2.99-.06,4.04c-.04.98-.21,1.5-.34,1.86-.18.47-.4.8-.75,1.15s-.68.57-1.15.75c-.35.14-.88.3-1.86.34-1.05.05-1.37.06-4.04.06s-2.99,0-4.04-.06M5.88.06c-1.06.05-1.79.22-2.43.46-.66.26-1.21.6-1.77,1.15-.56.56-.9,1.11-1.15,1.77-.25.64-.42,1.36-.46,2.43-.05,1.07-.06,1.41-.06,4.12s.01,3.06.06,4.12c.05,1.06.22,1.79.46,2.43.26.66.6,1.22,1.15,1.77.56.56,1.11.9,1.77,1.15.64.25,1.36.42,2.43.46,1.07.05,1.41.06,4.12.06s3.06-.01,4.12-.06c1.06-.05,1.79-.22,2.43-.46.66-.26,1.21-.6,1.77-1.15.56-.56.9-1.11,1.15-1.77.25-.64.42-1.36.46-2.43.05-1.07.06-1.41.06-4.12s-.01-3.06-.06-4.12c-.05-1.06-.22-1.79-.46-2.43-.26-.66-.6-1.21-1.15-1.77-.56-.56-1.11-.9-1.77-1.15-.64-.25-1.36-.42-2.43-.46-1.07-.05-1.41-.06-4.12-.06s-3.06.01-4.12.06"/>
  </g>
</svg>