<?xml version="1.0" encoding="UTF-8"?>
<svg id="_レイヤー_2" data-name="レイヤー 2" xmlns="http://www.w3.org/2000/svg" viewBox="0 0 31.91 23.31">
  <defs>
    <style>
      .cls-1 {
        fill: #fff;
      }
    </style>
  </defs>
  <g id="_01" data-name="01">
    <g>
      <circle class="cls-1" cx="15.87" cy="20.72" r="2.59"/>
      <path class="cls-1" d="m22.89,17.3c-.33.33-.75.5-1.25.5-.42,0-.92-.17-1.25-.5-2.42-2.42-6.43-2.42-8.94,0-.67.67-1.75.67-2.42,0-.67-.67-.67-1.75,0-2.42,3.76-3.76,10.02-3.76,13.78,0,.75.67.75,1.75.08,2.42h0Z"/>
      <path class="cls-1" d="m27.15,13.03c-.33.33-.75.5-1.25.5-.42,0-.92-.17-1.25-.5-4.85-4.85-12.61-4.85-17.46,0-.67.67-1.75.67-2.42,0-.67-.67-.67-1.75,0-2.42,6.18-6.18,16.12-6.18,22.31,0,.75.67.75,1.75.08,2.42h0Z"/>
      <path class="cls-1" d="m31.41,6.35c.67.67.67,1.75,0,2.42-.33.33-.75.5-1.25.5-.42,0-.92-.17-1.25-.5C21.72,1.59,10.11,1.59,2.92,8.77c-.67.67-1.75.67-2.42,0-.67-.67-.67-1.75,0-2.42C4.59,2.26,10.11,0,15.87,0c5.93-.08,11.44,2.26,15.54,6.35h0Z"/>
    </g>
  </g>
</svg>