<?xml version="1.0" encoding="UTF-8"?>
<svg id="_レイヤー_2" data-name="レイヤー 2" xmlns="http://www.w3.org/2000/svg" viewBox="0 0 86.42 125.46">
  <defs>
    <style>
      .cls-1 {
        fill: #fff;
      }

      .cls-2 {
        fill: #333;
      }

      .cls-3 {
        fill: #77c1e9;
      }
    </style>
  </defs>
  <g id="_01" data-name="01">
    <g>
      <path class="cls-1" d="m35.88,66.82c3.05.66,6.19.73,9.27.22,3.02-.56,5.78-2.08,7.87-4.34.07-.08.13-.15.2-.23-1.69-.73-2.49-1.08-4.77-2.09-.74-.33-1.23-.99-1.71-1.71-.19-.32-.98-1.89-1.58-3.14-5.42,1.37-11.17.11-15.52-3.4l-.14.69c-.44,1.84-1.1,3.63-1.96,5.32-.46.95-2.88,2.9-4.26,3.85l-.3.25c.62.34,1.26.66,1.91.96,3.53,1.57,7.2,2.79,10.97,3.63Z"/>
      <path class="cls-1" d="m57.48,29.02s1.56,1.71,2.52,2.75c0,.16,0,.26,0,.26-.03.8-.09,1.89-.24,3.17-.22,2.33-.7,4.62-1.42,6.85-.76,2.45-1.93,4.76-3.45,6.83-1.21,1.74-2.74,3.24-4.51,4.42-1.53.97-3.21,1.7-4.96,2.15-3.26.87-6.7.8-9.92-.2-2.8-.92-5.35-2.46-7.47-4.52-1.89-1.71-3.49-3.72-4.74-5.94-2.05-.83-3.83-2.2-5.17-3.96-1.04-1.33-1.66-2.94-1.79-4.63-.11-1.71.64-3.35,1.99-4.4,1.37-.97,3.43-.97,4.63.2l1.19.75c1.72-4.21,3.14-6.82,4.27-8.42.57-.83,1.25-1.59,2.01-2.26.48-.4,1-.76,1.55-1.06l3.5-1.44c3.61,1.3,8.31,4.21,9.86,4.72.89.3.35-1.35.62-2.52.13-.58.6-.83.98-.66,2.05.92,4.68,2.82,7,4.74,1.34,1.1,2.57,2.21,3.54,3.16Z"/>
      <path class="cls-1" d="m1.13,88.3c-.3,10.7-.17,20.34,2.34,29.39.33,1.18,2.82,5.55,6.15,6.41h53.88c-.13-4.46-.24-8.94-.33-13.22.92,2.23,4.17,4.89,6.56,4.93,1.73.03,3.34-.96,4.43-2.24,1.17-1.46,2.13-3.07,2.86-4.79,1.02-2.47,4.23-10.48,4.39-12.95-.45-1.12-1.25-2.07-2.29-2.69l-14.26-25.14c-.79-.55-1.6-1.05-2.44-1.52-2.93-1.58-5.95-2.99-9.03-4.23-.12.16-.24.32-.37.46-2.09,2.26-4.85,3.78-7.87,4.34-3.08.51-6.22.43-9.27-.22-4.54-1.06-9.35-2.58-13.37-4.85-.88.5-1.55.87-2.58,1.52-1.72,1.08-3.63,2.34-6.44,4.17-3.34,2.16-6.52,4.73-8.71,8.04-3.26,4.93-3.72,9.39-3.72,15.89"/>
      <path class="cls-1" d="m31.24,91.12c1.26,2.15,3.57,4.43,6.12,6.77.99-1.08,2.15-2.07,2.9-3.33.15-.29.33-.55.55-.79.25-.21.53-.38.83-.5.36-.17.97-.51,1.55-.84l.22-.13c.23.13.49.19.75.17,2.19-.01,3.65-1.2,4.84-3.06.38-.56.57-1.23.54-1.91,1.35-.1,2.04-.53,2.46-1.22.33-.55.27-.92.12-1.54,1.74-.8,2.42-1.65,2.31-2.9-.07-.81-.65-1.39-1.26-1.93-1.19-1.07-2.43-2.08-3.72-3.03,1.94-1.23,4.91-2.79,6.89-3.86.53-.26,1.03-.58,1.48-.96.47-.33.74-.88.71-1.45-.11-.65-.6-1.18-1.24-1.34-1.13-.25-2.26.22-3.68.79-2.9,1.16-6.36,2.75-9.48,4.34-.74.32-1.44.72-2.1,1.19-.66.58-1.22,1.25-1.68,2-1.34,1.98-2.54,4.06-3.58,6.21-.75,1.55-1.43,3.16-2.42,4.56-.17.25-.36.49-.56.73-.7.86-1.57,1.56-2.56,2.04Z"/>
      <path class="cls-1" d="m70.65,92.38c-.2-.29-.32-.62-.36-.96-.54-2.87-.47-4.61.7-7.69-1.39-1.23-2.88-2.56-3.82-3.85-.46-.55-.56-1.32-.25-1.96.38-.72.89-.81,1.67-.64l.53.11-2.31-1.82c-.59-.49-.85-1.28-.66-2.03.32-1.09,1.17-1.47,2.7-1.06-.11-.34-1.81-.65-1.3-2.4.2-.57.69-.98,1.29-1.09,1.09-.18,1.89.29,2.84.86,2.98,1.77,6.64,3.92,9.44,5.67-1.52-2.15-3.22-4.72-4.86-7.14-.31-.46-.49-1-.53-1.56.02-.75.61-1.36,1.35-1.4.68.02,1.32.3,1.79.78,1.99,2.08,3.79,4.34,5.37,6.74.26.4.48.82.68,1.26.19.67.3,1.37.32,2.07.15,1.29.18,2.58.1,3.88-.34,1.74-1.82,3.38-2.2,4.12-1.9,2.94-4.07,4.91-4.2,8.41-.03.69,0,1.47-.49,1.96-.32.27-.72.44-1.14.47-.9.12-1.82.03-2.68-.26-1.52-.48-2.89-1.32-3.99-2.47Z"/>
      <path class="cls-3" d="m15.98,25.18c0,1.77.52,5.64,1.34,7.64.28-.39.62-.73,1.01-1.01,1.37-.97,3.43-.97,4.63.2l1.19.75c1.72-4.21,3.14-6.82,4.27-8.42.57-.83,1.25-1.59,2.01-2.26.48-.4,1-.76,1.55-1.06l3.5-1.44c3.61,1.3,8.31,4.21,9.86,4.72.89.3.35-1.35.62-2.52.13-.58.6-.83.98-.66,3.23,1.46,7.89,5.32,10.54,7.89,0,0,3.18,3.47,3.25,3.55.08-.6.15-1.22.21-1.85.05-.56.1-1.13.14-1.7,1.18-9.07-1.06-15.65-5.09-19.28l-.24-3.15c-2.99-3.3-9.95-6.27-19.29-5.41-7.88.73-11.38,4.72-12.35,5.69l-2.74,2.44c-2.98,2.44-4.53,6.98-5.11,11.48-.19,1.45-.28,2.91-.27,4.37Z"/>
      <path class="cls-3" d="m61.21,80.2c-.08.28.09.58.37.66,1.67.46,6.91,1.91,8.98,2.5-1.24-1.04-2.38-2.21-3.4-3.47-.46-.55-.56-1.32-.25-1.96.38-.72.89-.81,1.67-.64l.53.11-2.31-1.82c-.59-.49-.85-1.28-.66-2.03.32-1.09,1.17-1.47,2.7-1.06-.11-.34-1.81-.65-1.3-2.4.2-.57.69-.98,1.29-1.09,1.09-.18,1.89.29,2.84.86,2.5,1.48,5.47,3.23,8.01,4.79l.23-.85c-1.19-1.73-2.44-3.61-3.66-5.41-.31-.46-.49-1-.53-1.56.02-.75.61-1.36,1.35-1.4.68.02,1.32.3,1.79.78.89.94,1.65,1.8,2.36,2.66l.42-1.58c.66-2.2,1.29-4.53,1.82-6.57,0,0,0-.02,0-.03.29-1.2-.44-2.41-1.64-2.71-3.34-.82-8.19-1.97-11.41-2.73-1.17-.28-2.35.42-2.67,1.58-1.64,5.94-5.71,20.44-6.56,23.37,0,0,0,0,0,0Z"/>
      <path class="cls-2" d="m23.67,31.3c-1.34-1.2-3.24-1.54-4.91-.86-3.24,1.31-4.07,5.29-2.93,8.31,1.21,3.19,3.84,5.57,6.92,6.91.49.27,1.1.11,1.39-.36.28-.48.12-1.1-.36-1.39-2.97-1.29-5.98-3.83-6.4-7.26-.17-1.41.25-3.03,1.41-3.94.97-.76,2.51-.85,3.45.01.96.89,2.39-.54,1.43-1.43Z"/>
      <path class="cls-2" d="m61,32.03c.05-1.31-1.98-1.3-2.03,0-.08,4.05-.89,8.05-2.38,11.82-1.38,3.34-3.69,6.61-6.76,8.59-2.67,1.69-5.77,2.59-8.93,2.6-3.69,0-7.28-1.19-10.23-3.4-2.66-1.98-4.88-4.49-6.52-7.37-.65-1.13-2.4-.11-1.75,1.02,2.03,3.56,4.87,6.59,8.3,8.83,6.46,4.16,15.4,3.89,21.48-.89,3.11-2.45,5.35-6.06,6.71-9.73,1.31-3.69,2.02-7.56,2.11-11.47h0Z"/>
      <path class="cls-2" d="m18.11,32.05c-.54-1.7-.88-3.45-1.02-5.22-.26-3.04,0-6.11.76-9.07.71-2.87,1.91-5.79,4.24-7.72.39-.4.39-1.04,0-1.43-.4-.38-1.03-.38-1.43,0-1.35,1.17-2.44,2.61-3.2,4.23-1.53,3.14-2.2,6.66-2.42,10.13-.24,3.25.14,6.51,1.12,9.62.41,1.24,2.37.7,1.96-.54Z"/>
      <path class="cls-2" d="m62.1,29.02c0-.27-.11-.53-.3-.72-.4-.4-1.04-.39-1.43,0-.18.19-.29.45-.3.72-.07,1.11-.18,2.22-.32,3.33,0,.27.1.53.3.72.4.4,1.04.4,1.43,0,.18-.2.29-.45.3-.72.14-1.11.25-2.21.32-3.33h0Z"/>
      <path class="cls-2" d="m56.71,9.02c-.96-.88-2.4.55-1.43,1.43.87.78,1.63,1.68,2.25,2.67,2.98,4.68,3.21,10.59,2.53,15.93,0,.56.46,1.01,1.01,1.01.55-.02,1-.46,1.01-1.01.26-1.92.35-3.86.3-5.79-.19-5.18-1.72-10.65-5.67-14.24h0Z"/>
      <path class="cls-2" d="m23.39,6.16c-.92.93.51,2.36,1.43,1.43.36-.36.72-.73,1.1-1.07.58-.54,1.2-1.02,1.87-1.44,4.48-2.91,10.13-3.4,15.33-2.84,2.51.25,4.96.89,7.27,1.9,1.75.73,3.33,1.81,4.64,3.18.88.97,2.31-.47,1.43-1.43-1.64-1.79-3.82-3.01-6.04-3.92-2.64-1.04-5.43-1.66-8.26-1.84-3.23-.29-6.49-.04-9.64.72-2.26.56-4.4,1.53-6.31,2.86-1.01.74-1.96,1.56-2.83,2.46h0Z"/>
      <path class="cls-2" d="m56.76,29.73c.94.91,2.37-.53,1.43-1.43-1.71-1.64-3.51-3.19-5.39-4.62-1.59-1.28-3.31-2.4-5.13-3.32-.5-.31-1.12-.36-1.66-.13-.52.25-.91.73-1.04,1.3-.11.5-.14,1-.12,1.51,0,.21,0,.42,0,.63-.01.13,0,.15.01.04v.04c-.03.08-.02.06.03-.06l.61-.35c-.02-.1.15.11-.03-.04,0,0-.23-.09-.09-.03.15.06-.11-.05-.11-.05l-.17-.08c-.33-.15-.66-.32-.98-.49-.84-.43-1.67-.88-2.51-1.32-1.89-1.04-3.86-1.95-5.87-2.72-.54-.14-1.09.17-1.25.71-.13.54.18,1.09.71,1.25,2.13.84,4.2,1.82,6.2,2.94.77.41,1.53.82,2.31,1.2.6.29,1.31.72,1.99.63,1.1-.15,1.19-1.29,1.17-2.17,0-.25-.01-.51,0-.76.02-.13.04-.26.04-.38.08.07-.26.06-.26.06-.11.04-.22-.1-.02.03.17.1.35.19.53.26,3.54,1.86,6.72,4.6,9.58,7.36h0Z"/>
      <path class="cls-2" d="m32.49,21.9c1.14-.64.12-2.39-1.02-1.75-2.05,1.15-3.52,2.93-4.73,4.92-1.38,2.38-2.58,4.87-3.57,7.43-.15.54.17,1.1.71,1.25.54.13,1.08-.18,1.25-.71.93-2.36,2.04-4.66,3.31-6.85,1.04-1.73,2.28-3.29,4.06-4.28h0Z"/>
      <path class="cls-2" d="m30.48,53.08c.15-.54-.17-1.1-.71-1.25s-1.1.17-1.25.71c-.23,1.05-.55,2.08-.97,3.08-.19.49-.4.97-.63,1.44-.1.21-.19.43-.31.63-.03.05-.07.1-.1.15-.13.21.08-.1-.02.03-1.09,1.24-2.34,2.32-3.73,3.21-.47.29-.64.9-.36,1.39.29.48.9.64,1.39.36,1.48-1.02,3.07-2.18,4.2-3.6.61-.88,1.09-1.85,1.43-2.86.45-1.07.81-2.17,1.06-3.31h0Z"/>
      <path class="cls-2" d="m52.67,63.32c.49.27,1.09.11,1.39-.36.28-.48.12-1.1-.36-1.39-1-.43-1.99-.86-2.98-1.3-.64-.28-1.32-.53-1.93-.86-.07-.04-.14-.08-.21-.13-.08-.05.06.06-.07-.05-.12-.11-.24-.23-.36-.35-.19-.23-.37-.47-.53-.72-.29-.47-.9-.63-1.39-.36-.48.29-.64.9-.36,1.39.43.72,1.01,1.35,1.68,1.85.63.36,1.29.67,1.98.92,1.05.46,2.1.92,3.15,1.37h0Z"/>
      <path class="cls-2" d="m62.07,95.43c-.02,1.83-.03,3.67-.03,5.5.02,7.72.22,15.44.44,23.16.04,1.3,2.07,1.31,2.03,0-.07-2.28-.13-4.56-.18-6.84-.18-7.27-.33-14.55-.23-21.82.02-1.31-2.01-1.3-2.03,0Z"/>
      <path class="cls-2" d="m39.58,95.94c-.88-.96-2.32.47-1.43,1.43.44.52.8,1.1,1.06,1.73.28.46.23,1.05-.12,1.45-.21.29-.42.57-.63.86-.3.4-.36.47-.68.88-.31.4-.63.79-.94,1.18-1.48,1.83-3.01,3.62-4.56,5.4-3,3.45-6.05,6.91-9.38,10.04-2,1.88-4.29,3.5-6.99,4.18-1.29.31-2.63.42-3.95.32-1.25-.08-2.45-.26-3.51-.94-1.73-1.1-3.08-2.94-3.92-4.79.11.24-.05-.13-.07-.22-.1-.33-.18-.67-.27-1-.2-.78-.39-1.57-.56-2.36-.34-1.61-.62-3.23-.84-4.85-.92-6.94-.85-13.97-.65-20.96.04-1.31-1.99-1.3-2.03,0-.03.98-.05,1.96-.07,2.94-.14,7.26-.02,14.57,1.3,21.73.47,2.56.91,5.19,2.36,7.4,1.38,2.11,3.41,4.3,6,4.79,3.03.62,6.19.31,9.04-.91,2.52-1.1,4.62-2.91,6.56-4.83,3.57-3.53,6.91-7.32,10.17-11.14,1.49-1.75,2.96-3.51,4.36-5.33.55-.72,1.29-1.5,1.53-2.39.25-.93-.07-1.79-.47-2.63-.34-.72-.78-1.39-1.31-1.98h0Z"/>
      <path class="cls-2" d="m64.18,68.75c1.09.73,2.1-1.03,1.02-1.75-3.5-2.35-7.43-4-11.3-5.64-.49-.26-1.09-.1-1.39.36-1.48,1.97-3.98,3.37-6.32,4.04-1.32.34-2.68.53-4.04.56-1.47.08-2.95.02-4.41-.18-2.55-.44-5.05-1.09-7.49-1.94-2.42-.77-4.76-1.77-7-2.98-.36-.27-.85-.32-1.26-.13-.24.12-.47.26-.7.39-.47.27-.93.54-1.39.82-.83.51-1.66,1.05-2.48,1.58-2.01,1.3-4.05,2.56-6,3.94-3.95,2.78-7.41,6.24-9.35,10.73C.28,82.68.05,87.15.05,91.58c0,1.31,2.03,1.3,2.03,0,0-2.76.05-5.55.6-8.26.46-2.27,1.32-4.43,2.53-6.4,1.4-2.22,3.17-4.19,5.23-5.83,2.09-1.71,4.4-3.11,6.66-4.58,1.95-1.27,3.9-2.53,5.92-3.67h-1.02c2.29,1.26,4.7,2.31,7.18,3.14,4.44,1.51,9.03,2.69,13.76,2.33,2.19-.11,4.34-.65,6.32-1.57,1.96-.92,3.67-2.28,5-3.98l-1.39.36c3.87,1.63,7.8,3.29,11.3,5.64h0Z"/>
      <path class="cls-2" d="m19.59,91.52c.04-1.31-1.99-1.3-2.03,0-.09,2.98-.16,5.96-.21,8.94-.02,1.31,2.01,1.3,2.03,0,.05-2.98.12-5.96.21-8.94h0Z"/>
      <path class="cls-2" d="m79.64,92.26c-1.11-.7-2.13,1.06-1.02,1.75.62.38,1.15.91,1.53,1.53.1.16.16.35.27.5-.1-.14.03-.17-.03,0-.04.12.03-.2,0-.06,0,.04-.01.08-.02.11-.02.11-.04.21-.06.32-.22.99-.49,1.96-.81,2.92-.68,2.11-1.47,4.19-2.28,6.25-.68,1.92-1.54,3.77-2.56,5.54-1.28,2.06-3.33,4.3-5.92,3.46-1.09-.39-2.08-1.01-2.91-1.83-.78-.68-1.39-1.52-1.79-2.47-.42-1.23-2.37-.7-1.96.54.54,1.43,1.46,2.7,2.65,3.67,1.16,1,2.56,1.92,4.09,2.21,1.59.27,3.22-.11,4.53-1.05,1.3-.99,2.37-2.23,3.16-3.66,1.22-2,2.03-4.21,2.87-6.39.89-2.28,1.76-4.59,2.45-6.94.31-.88.51-1.8.59-2.72.03-.75-.55-1.54-1-2.11-.5-.63-1.1-1.16-1.78-1.58h0Z"/>
      <path class="cls-2" d="m43.7,93.3c.48-.28.65-.9.36-1.39-.28-.48-.9-.65-1.39-.36-.57.32-1.14.63-1.73.92-.36.16-.68.39-.96.68-.24.29-.45.6-.63.93-.09.16-.19.3-.3.45-.05.07-.1.13-.14.2-.04.06-.04.05,0-.01l-.06.08c-.21.25-.43.5-.65.74-.47.51-.97.99-1.44,1.49-.38.4-.38,1.03,0,1.43.4.39,1.04.39,1.43,0,.95-1.01,1.98-1.95,2.75-3.11.1-.15.19-.3.28-.46.03-.06.07-.11.1-.17,0-.01.18-.25.06-.11.04-.05.09-.1.13-.14.18-.17-.11.05.1-.07.14-.08.28-.16.43-.23.56-.27,1.1-.58,1.64-.88h0Z"/>
      <path class="cls-2" d="m49.27,75.79c-1.11.68-.09,2.44,1.02,1.75,1.53-.94,3.1-1.79,4.68-2.64.73-.39,1.46-.78,2.19-1.18.79-.44,1.64-1,2.09-1.81.86-1.58-.3-3.43-1.99-3.68s-3.36.6-4.88,1.24c-3.26,1.35-6.44,2.86-9.59,4.46-.79.38-1.5.9-2.1,1.54-.56.65-1.08,1.35-1.54,2.09-.98,1.48-1.88,3.02-2.69,4.6-1.48,2.86-2.57,6.49-5.64,8.05-1.17.59-.14,2.34,1.02,1.75,3.33-1.69,4.61-5.31,6.2-8.43.73-1.44,1.53-2.85,2.39-4.21.79-1.25,1.57-2.62,2.89-3.37,1.41-.8,2.91-1.48,4.38-2.18,1.45-.69,2.9-1.35,4.37-1.98.7-.3,1.39-.58,2.1-.87.68-.32,1.41-.55,2.15-.69.39-.05.95-.06,1.16.35.23.46-.48.88-.8,1.08-1.15.74-2.43,1.33-3.63,1.99-1.27.69-2.53,1.39-3.76,2.15h0Z"/>
      <path class="cls-2" d="m49.82,75.9c-.48-.28-1.1-.12-1.39.36-.27.49-.11,1.09.36,1.39,1.46,1.03,2.83,2.17,4.11,3.41.1.1.19.2.27.31.05.08.1.15.14.23.07.13.02.03.04.11.01.04.06.24.04.12.01.08.01.16.01.25,0,.08,0,.16,0,.24,0-.1.02-.08,0,0s-.05.17-.07.26c.03-.1.04-.07,0,0-.04.07-.08.13-.12.2-.05.08.07-.07-.05.06-.22.24-.48.45-.77.61-1.12.68-.1,2.43,1.02,1.75.88-.47,1.56-1.24,1.9-2.17.28-.95.12-1.97-.45-2.78-.66-.82-1.43-1.55-2.27-2.18-.9-.76-1.83-1.48-2.77-2.18h0Z"/>
      <path class="cls-2" d="m47.84,79.28c-.48-.28-1.1-.12-1.39.36-.28.48-.12,1.1.36,1.39,1.55.86,2.92,2.02,4.02,3.41.2.27.33.58.38.9.06.28.02-.12.01.14,0,.19.03-.05,0,.07-.04.13-.1.25-.19.35.12-.19,0,0-.04.04-.05.05-.1.09-.15.14-.08.08.14-.08-.02.02-.07.04-.15.09-.23.13-.15.09.05,0-.06.03-.1.03-.19.07-.29.09-.13.04-.41.09-.48.1-.55.01-1,.46-1.01,1.01,0,.56.46,1.01,1.01,1.01,1.03-.12,2.07-.4,2.76-1.23.42-.47.67-1.06.72-1.68,0-.59-.12-1.16-.37-1.69-.28-.51-.63-.98-1.04-1.39-.37-.42-.76-.81-1.18-1.18-.86-.77-1.81-1.46-2.81-2.04h0Z"/>
      <path class="cls-2" d="m45.67,82.03c-.4-.39-1.03-.39-1.43,0-.39.4-.39,1.04,0,1.43l2.14,1.86c.69.52,1.34,1.1,1.92,1.73.7.9-.3,2.14-.9,2.81-.64.79-1.54,1.33-2.54,1.52-.23.04-.88.12-.98.01-.26-.27.32-.81.55-1.03.53-.51,1.31-1.13,1.32-1.93.02-.9-.85-1.42-1.45-1.95h0c-.4-.4-1.04-.4-1.43,0s-.4,1.04,0,1.43l.55.48c.16.11.31.24.44.39l-.14-.51c.08-.14.08-.16,0-.06-.05.06-.11.13-.16.18s-.11.11-.16.17c-.17.16-.34.32-.5.48-.32.29-.58.63-.78,1.01-.43.82-.36,1.81.18,2.56,1.02,1.3,3.04.92,4.36.34,1.23-.6,2.26-1.52,3-2.67,1.01-1.44,1.32-3.23.1-4.66-.6-.62-1.24-1.2-1.92-1.73l-2.14-1.86h0Z"/>
      <path class="cls-2" d="m14.52,103.2c-.39.4-.39,1.04,0,1.43.4.38,1.03.38,1.43,0,2.1-1.79,4.11-3.69,6.1-5.61,1.64-1.59,3.25-3.19,4.89-4.77.7-.68,1.41-1.35,2.14-2,.34-.31.68-.61,1.03-.91.11-.09.39-.25.44-.37.09-.07.06-.06-.1.04l-.57-.25c.03.09.07.18.12.26.97,1.97,2.55,3.66,4.09,5.2,1.73,1.73,3.46,3.65,5.81,4.5.54.14,1.09-.17,1.25-.71.13-.54-.18-1.09-.71-1.25-1.32-.48-2.25-1.45-3.26-2.39-1.04-.97-2.06-1.97-3.02-3.03-.74-.8-1.4-1.66-1.98-2.58-.21-.49-.48-.94-.81-1.36-.42-.39-1.03-.51-1.57-.3-.48.23-.92.56-1.28.94-.33.29-.66.58-.99.88-.77.7-1.52,1.42-2.27,2.14-3.55,3.43-7,6.96-10.76,10.16h0Z"/>
      <path class="cls-2" d="m80.69,67.01c-.37,1.26,1.58,1.79,1.96.54.43-1.46.84-2.92,1.24-4.38.34-1.26.96-2.69.54-3.99-.42-1.3-1.47-1.97-2.73-2.28-1.23-.3-2.46-.6-3.69-.89-2.24-.54-4.48-1.07-6.73-1.6-1.09-.26-2.13-.35-3.11.3-.92.61-1.27,1.51-1.55,2.52-.98,3.54-1.97,7.08-2.96,10.62-.54,1.93-1.08,3.85-1.62,5.78-.44,1.55-.97,3.1-1.31,4.67-.26,1.14.11,2.33.97,3.12.82.73,1.96.94,2.98,1.25,1.88.57,3.76,1.13,5.64,1.68,1.26.37,1.79-1.59.54-1.96-1.93-.56-3.87-1.14-5.79-1.72-.77-.23-2-.34-2.32-1.21-.23-.63.17-1.45.35-2.06,1.86-6.56,3.7-13.12,5.51-19.69.17-.61.3-1.24.99-1.45.39-.07.79-.04,1.16.1l1.35.32c2.07.49,4.15.98,6.22,1.48,1,.24,2,.48,2.99.73.67.16,1.29.53,1.25,1.32-.07.51-.19,1.01-.36,1.49-.15.56-.3,1.12-.45,1.68-.33,1.21-.67,2.42-1.03,3.63h0Z"/>
      <path class="cls-2" d="m79.2,62.14c.54.15,1.1-.17,1.25-.71s-.17-1.1-.71-1.25c-.73-.18-1.46-.37-2.19-.55h0c-.54-.15-1.1.17-1.25.71s.17,1.1.71,1.25c.73.18,1.46.36,2.19.55h0Z"/>
      <path class="cls-2" d="m80.01,76.02c1.11.69,2.13-1.07,1.02-1.75-2.02-1.25-4.06-2.46-6.11-3.68-.89-.52-1.77-1.05-2.66-1.58-.9-.53-1.83-1.05-2.9-1.08-1.04-.05-2.03.48-2.57,1.37-.47.84-.46,1.87.03,2.7.43.69,1.19,1.07,1.85,1.49.96.62,1.91,1.26,2.85,1.91,1.88,1.3,3.75,2.61,5.69,3.83,1.11.7,2.13-1.06,1.02-1.75-1.91-1.2-3.75-2.49-5.6-3.77-.8-.55-1.61-1.1-2.42-1.63-.42-.28-.85-.54-1.27-.81-.08-.05-.15-.1-.23-.15.13.1-.14-.13-.17-.17.04.04-.03-.05-.05-.13,0,.01-.01-.21,0-.28.03-.23.17-.42.39-.51.6-.26,1.32.13,1.83.42,3.14,1.77,6.24,3.67,9.31,5.57h0Z"/>
      <path class="cls-2" d="m68.08,73.36c.56,0,1.01-.46,1.01-1.01-.01-.55-.46-1-1.01-1.01-1.38-.17-2.66.75-2.94,2.11-.15.72-.03,1.47.34,2.1.29.46.68.85,1.13,1.15.97.75,1.96,1.48,2.96,2.2,1.67,1.2,3.39,2.36,5.04,3.59.48.28,1.1.12,1.39-.36.27-.49.11-1.09-.36-1.39-1.83-1.37-3.73-2.64-5.57-3.98-.52-.38-1.05-.76-1.56-1.15-.22-.16-.44-.33-.66-.5-.12-.1-.25-.19-.37-.29-.02-.02-.2-.2-.11-.09-.29-.32-.33-.79-.11-1.16.1-.17-.04,0,.09-.11-.17.14.26-.11.06-.04.22-.07.45-.09.67-.05h0Z"/>
      <path class="cls-2" d="m68.32,78.27c.54.14,1.09-.18,1.25-.71.14-.54-.17-1.09-.71-1.25-.53-.14-1.08-.14-1.6.02-.57.22-1.03.66-1.28,1.21-.45,1.02-.28,2.2.44,3.05,1.45,1.9,3.35,3.4,5.11,5,.39.39,1.03.39,1.42,0,.4-.39.4-1.03.01-1.43-1.43-1.31-2.95-2.54-4.26-3.97-.25-.26-.48-.54-.7-.83-.08-.11-.15-.23-.21-.35.08.16-.01-.03-.03-.1,0-.02-.05-.27-.04-.17.02.12,0-.17,0-.04.01-.08.04-.16.07-.24,0-.02.18-.27.06-.13.03-.03.14-.2.08-.09-.06.05-.05.04.03,0-.11.04-.13.05-.06.03.12-.04.14-.01.01-.01.09,0,.18,0,.27,0-.21-.02.11.02.13.03h0Z"/>
      <path class="cls-2" d="m79.94,75.61c.29.47.9.63,1.39.36.48-.29.64-.9.36-1.39-1.5-2.17-2.99-4.35-4.44-6.54-.24-.37-.92-1.47-.16-1.6.41,0,.8.18,1.07.48.45.43.85.91,1.26,1.38,1.31,1.48,2.52,3.05,3.63,4.69.53.65.89,1.41,1.08,2.22.09.67.13,1.36.18,2.03.11.91.11,1.84.02,2.75-.13.86-.69,1.69-1.16,2.4-.96,1.43-1.94,2.84-2.93,4.25-1.1,1.57-1.99,3.25-2.23,5.18-.06.49-.06.97-.1,1.46.02.24-.05.48-.21.67-.27.22-.87.21-1.2.2-.4,0-.81-.06-1.2-.17-.87-.23-1.7-.59-2.45-1.09-.4-.25-.77-.54-1.11-.86-.3-.28-.48-.67-.5-1.08-.38-1.95-.26-3.96.34-5.85.39-1.25-1.56-1.78-1.96-.54-.43,1.3-.66,2.65-.67,4.02.01.66.07,1.32.17,1.97.05.73.22,1.44.51,2.11.35.53.8.99,1.32,1.35.5.39,1.02.74,1.58,1.04,1.15.63,2.43,1.01,3.74,1.11,1.12.06,2.47-.15,3.16-1.13.65-.92.43-2.06.59-3.11.32-2.09,1.62-3.78,2.82-5.45.56-.78,1.07-1.59,1.61-2.38.64-.87,1.18-1.82,1.61-2.82.42-1.08.37-2.29.32-3.43-.04-.85-.11-1.71-.21-2.56-.11-1.02-.47-2-1.05-2.86-.64-.98-1.33-1.94-2.04-2.87-.71-.93-1.45-1.83-2.23-2.7-.8-.9-1.55-1.89-2.74-2.28-1.14-.45-2.44,0-3.07,1.06-.62,1.06-.23,2.38.4,3.34,1.47,2.23,2.97,4.44,4.5,6.63h0Z"/>
      <path class="cls-2" d="m45.02,39.33c-.05-.17-.14-.32-.26-.45l-.2-.16s0,0,0,0c-.48-.28-1.1-.12-1.39.36-.14.24-.17.52-.1.78.11.26.2.54.29.81.11.32.2.65.26.99l-.04-.27c0,.05.01.11,0,.17l.04-.27s0,.03,0,.04l.1-.24s0,.01,0,.02l.16-.21s0,0,0,0l.2-.16c-.07.05-.15.1-.23.14l.24-.1c-.05.02-.11.04-.17.05l.27-.04c-.11,0-.23,0-.34,0-.27,0-.53.11-.72.3-.4.4-.39,1.04,0,1.43.19.19.45.29.72.3.21,0,.43,0,.64-.04.16-.04.31-.1.45-.17.14-.07.27-.17.38-.27.51-.52.29-1.29.11-1.9-.11-.38-.23-.75-.38-1.11h0Z"/>
      <path class="cls-2" d="m49.71,34.17c-.73,1.25-.56,3.87,1.71,3.84,1.71-.22,1.84-2.39,1.54-3.33-.82-1.99-2.65-1.53-3.25-.51Z"/>
      <path class="cls-2" d="m37.05,34.09c.86,1.27.78,4.01-1.68,4.08-1.87-.15-2.11-2.42-1.83-3.41.81-2.11,2.81-1.71,3.52-.67Z"/>
      <path class="cls-2" d="m46.01,48.63c.53-.16.84-.71.71-1.25-.15-.54-.71-.85-1.25-.71-.21.07-.43.13-.65.17-.1.02-.21.04-.31.05.24-.04-.1,0-.18.01-.48.04-.97.03-1.45-.01-.08,0-.15-.01-.22-.02-.02,0-.21-.03-.09-.01s-.07-.01-.09-.02c-.06,0-.12-.02-.18-.03-.25-.04-.5-.1-.74-.17-.24-.07-.48-.14-.71-.23-.02,0-.19-.08-.08-.03.13.05-.11-.05-.11-.05-.1-.05-.2-.1-.29-.15-.49-.27-1.1-.11-1.39.36-.28.48-.12,1.1.36,1.39,1.07.55,2.24.89,3.45.98,1.08.13,2.18.03,3.22-.3h0Z"/>
    </g>
  </g>
</svg>