<?xml version="1.0" encoding="utf-8"?>
<!-- Generator: Adobe Illustrator 27.5.0, SVG Export Plug-In . SVG Version: 6.00 Build 0)  -->
<svg version="1.1" id="_レイヤー_2" xmlns="http://www.w3.org/2000/svg" xmlns:xlink="http://www.w3.org/1999/xlink" x="0px"
	 y="0px" viewBox="0 0 157 280" style="enable-background:new 0 0 157 280;" xml:space="preserve">
<style type="text/css">
	.st0{fill:#9B9B9F;}
	.st1{fill:#D0D0D4;}
	.st2{fill:#BABABD;}
	.st3{fill:#BCC8D8;}
	.st4{fill:#C7D5E6;}
	.st5{fill:#747575;}
	.st6{fill:#818181;}
	.st7{fill:#AFAEAF;}
	.st8{fill:#8E8E8E;}
	.st9{fill:#7C7D7D;}
	.st10{fill:#AAAAA9;}
	.st11{clip-path:url(#SVGID_00000181082762622504100490000001253121148059405981_);}
	.st12{fill:#919191;}
	.st13{clip-path:url(#SVGID_00000113320919884731474800000013658019404644332961_);}
	.st14{fill:#B0AFB0;}
	.st15{fill:#CE436C;}
	.st16{fill:#D65981;}
	.st17{fill:#DB973B;}
	.st18{clip-path:url(#SVGID_00000135661442175243259790000015038397526927036320_);}
	.st19{clip-path:url(#SVGID_00000144330887000441268780000016855625126599977384_);}
	.st20{clip-path:url(#SVGID_00000093898391296147866320000003129214367841348030_);}
	.st21{fill:#DFB44C;}
	.st22{clip-path:url(#SVGID_00000177472363640791258420000008141296167452554914_);}
	.st23{clip-path:url(#SVGID_00000145041988397269663600000002116863932785087660_);}
	.st24{fill:#F1DC72;}
	.st25{clip-path:url(#SVGID_00000080916186133376575610000016775705730668141990_);}
	.st26{clip-path:url(#SVGID_00000036958674281742922010000000211102871197499792_);}
	.st27{clip-path:url(#SVGID_00000174572778273832651430000011882628913415520928_);}
	.st28{clip-path:url(#SVGID_00000156568298199456405330000009071552290014261169_);}
	.st29{fill:#EDCA5F;}
</style>
<g id="_01">
	<g>
		<g>
			<g>
				<g>
					<path class="st0" d="M142.7,66.6c2.7,0.7,5.4,1.7,7.6,3.1C147.8,68.7,145.6,67.2,142.7,66.6z"/>
					<path class="st1" d="M141.4,77.6c11.4,9-10.7,14.8-16.9,9.4C113.1,78,135.2,72.2,141.4,77.6z"/>
					<path class="st0" d="M122.4,66.8c0.2-0.1,0.4-0.1,0.6-0.2c-11.1,2.4-18.6,14.2-6.5,21c8.7,5.2,23,5.4,32.1,0.3
						s9.4-13.4,0.7-18.6c10,4.5,10.4,14.8,0.3,20.1c-9.6,5.4-24.9,5.2-34.1-0.3C102.6,81.9,110.6,69.3,122.4,66.8z"/>
					<path class="st2" d="M149.3,69.3c-8.7-5.2-23.1-5.4-32.1-0.3c-9.6,5.1-8.7,14.1-0.7,18.6c8.7,5.2,23,5.4,32.1,0.3
						C156.7,83.8,158.7,74.6,149.3,69.3L149.3,69.3z M141,87.2c-4.7,2.6-12.1,2.5-16.6-0.2c-11.4-9,10.7-14.8,16.9-9.4
						C145.8,80.3,145.7,84.6,141,87.2L141,87.2z M114.5,86.2c-0.1-0.1-0.3-0.2-0.4-0.4C114.3,86,114.4,86.1,114.5,86.2z"/>
					<path class="st0" d="M116.6,89.9c10.6,6.3,26.6,5.7,36.3-2.7c-10.5,8.4-29.6,8.3-40,0.1C113.5,87.8,115.6,89.3,116.6,89.9z"/>
				</g>
				<g>
					<path class="st3" d="M148.5,65c0.2,0.3,0.4,0.4,0.7,0.5c0.2,0.4,0.3,2.1,1.1,1.4c0.2,0.1,0.3,0.4,0.4,0.6
						C149.2,68.6,148.6,66.1,148.5,65L148.5,65z"/>
					<g>
						<path class="st4" d="M148.7,61.7c0.2,0,0.3,0,0.5,0c0.1,0.2,0.1,0.5,0,0.7c-1.2-0.4-0.2,3.2,0.6,2.2c0.2,0.1,0.3,0.4,0.4,0.6
							C148.4,66.6,147,62.2,148.7,61.7L148.7,61.7z M149.9,62.2c0.3,0.5,0.6,1.7,0.6,2.2c-0.2-0.3-0.4-0.4-0.7-0.5l-0.2-0.9
							C149.8,62.9,149.9,62.6,149.9,62.2L149.9,62.2z"/>
						<path class="st3" d="M149.3,64c1.5-0.4,2.3,2.7,1.4,3.6c0-0.2-0.1-0.5-0.4-0.6c0.2-0.5-0.2-2.9-1.1-2.1
							c-0.2-0.1-0.3-0.4-0.4-0.6C149,64.1,149.2,64,149.3,64L149.3,64z"/>
						<path class="st3" d="M147.3,60.5c0.2,0.3,0.4,0.5,0.7,0.5c0.2,0.4,0.3,2.1,1.1,1.4c0.2,0.1,0.3,0.4,0.4,0.6
							C148,64.2,147.4,61.6,147.3,60.5L147.3,60.5z"/>
						<path class="st3" d="M148.1,59.5c1.5-0.4,2.3,2.7,1.4,3.6c0-0.2-0.1-0.5-0.4-0.6c0.2-0.5-0.2-2.9-1.1-2.1
							c-0.2-0.1-0.3-0.4-0.4-0.6C147.8,59.6,148,59.6,148.1,59.5L148.1,59.5z"/>
						<path class="st4" d="M147.5,57.3c0.2,0,0.3,0,0.5,0c0.1,0.2,0.1,0.5,0,0.7c-1.2-0.4-0.2,3.2,0.6,2.2c0.2,0.1,0.3,0.4,0.4,0.6
							C147.2,62.2,145.8,57.8,147.5,57.3L147.5,57.3z M148.7,57.8c0.3,0.5,0.6,1.7,0.6,2.2c-0.2-0.3-0.4-0.5-0.7-0.5l-0.2-0.9
							C148.6,58.4,148.7,58.1,148.7,57.8L148.7,57.8z"/>
						<path class="st3" d="M146.1,56.1c0.2,0.3,0.4,0.5,0.7,0.5c0.2,0.4,0.3,2.1,1.1,1.4c0.2,0.1,0.3,0.4,0.4,0.6
							C146.8,59.7,146.2,57.2,146.1,56.1L146.1,56.1z"/>
						<path class="st3" d="M146.9,55c1.5-0.4,2.3,2.7,1.4,3.6c0-0.2-0.1-0.5-0.4-0.6c0.2-0.5-0.2-2.9-1.1-2.1
							c-0.2-0.1-0.3-0.4-0.4-0.6C146.6,55.2,146.7,55.1,146.9,55L146.9,55z"/>
						<path class="st4" d="M146.3,52.8c0.2,0,0.3,0,0.5,0c0.1,0.2,0.1,0.5,0,0.7c-1.2-0.4-0.2,3.2,0.6,2.2c0.2,0.1,0.3,0.4,0.4,0.6
							C146,57.7,144.6,53.3,146.3,52.8L146.3,52.8z M147.5,53.3c0.3,0.5,0.6,1.7,0.6,2.2c-0.2-0.3-0.4-0.5-0.7-0.5l-0.2-0.9
							C147.4,53.9,147.5,53.6,147.5,53.3L147.5,53.3z"/>
						<path class="st3" d="M144.9,51.6c0.2,0.3,0.4,0.5,0.7,0.5c0.2,0.4,0.3,2.1,1.1,1.4c0.2,0.1,0.3,0.4,0.4,0.6
							C145.6,55.2,145,52.7,144.9,51.6L144.9,51.6z"/>
						<path class="st3" d="M145.7,50.6c1.5-0.4,2.3,2.7,1.4,3.6c0-0.2-0.1-0.5-0.4-0.6c0.2-0.5-0.2-2.9-1.1-2.1
							c-0.2-0.1-0.3-0.4-0.4-0.6C145.4,50.7,145.5,50.6,145.7,50.6L145.7,50.6z"/>
						<path class="st4" d="M145.1,48.3c0.2,0,0.3,0,0.5,0c0.1,0.2,0.1,0.5,0,0.7c-1.2-0.4-0.2,3.2,0.6,2.2c0.2,0.1,0.3,0.4,0.4,0.6
							C144.8,53.2,143.4,48.8,145.1,48.3L145.1,48.3z M146.3,48.8c0.3,0.5,0.6,1.7,0.6,2.2c-0.2-0.3-0.4-0.5-0.7-0.5l-0.2-0.9
							C146.2,49.5,146.3,49.2,146.3,48.8L146.3,48.8z"/>
						<path class="st3" d="M143.7,47.1c0.2,0.3,0.4,0.5,0.7,0.5c0.1,0.4,0.3,2.1,1.1,1.4c0.2,0.1,0.3,0.4,0.4,0.6
							C144.4,50.8,143.7,48.2,143.7,47.1L143.7,47.1z"/>
						<path class="st3" d="M144.5,46.1c1.5-0.4,2.3,2.7,1.4,3.6c0-0.2-0.1-0.5-0.4-0.6c0.2-0.5-0.2-2.9-1.1-2.1
							c-0.2-0.1-0.3-0.4-0.4-0.6C144.2,46.2,144.3,46.2,144.5,46.1L144.5,46.1z"/>
						<path class="st4" d="M143.9,43.9c0.2,0,0.3,0,0.5,0c0.1,0.2,0.1,0.5,0,0.7c-1.2-0.4-0.2,3.2,0.6,2.2c0.2,0.1,0.3,0.4,0.4,0.6
							C143.6,48.8,142.1,44.4,143.9,43.9L143.9,43.9z M145.1,44.4c0.3,0.5,0.6,1.7,0.6,2.2c-0.2-0.3-0.4-0.5-0.7-0.5l-0.2-0.9
							C144.9,45,145.1,44.7,145.1,44.4L145.1,44.4z"/>
						<path class="st3" d="M142.5,42.7c0.2,0.3,0.4,0.5,0.7,0.5c0.1,0.4,0.3,2.1,1.1,1.4c0.2,0.1,0.3,0.4,0.4,0.6
							C143.2,46.3,142.5,43.8,142.5,42.7L142.5,42.7z"/>
						<path class="st3" d="M143.3,41.6c1.5-0.4,2.3,2.7,1.4,3.6c0-0.2-0.1-0.5-0.4-0.6c0.2-0.5-0.2-2.9-1.1-2.1
							c-0.2-0.1-0.3-0.4-0.4-0.6C143,41.8,143.1,41.7,143.3,41.6L143.3,41.6z"/>
						<path class="st4" d="M142.7,39.4c0.2,0,0.3,0,0.5,0c0.1,0.2,0.1,0.5,0,0.7c-1.2-0.4-0.2,3.2,0.6,2.2c0.2,0.1,0.3,0.4,0.4,0.6
							C142.4,44.3,140.9,39.9,142.7,39.4L142.7,39.4z M143.9,39.9c0.3,0.5,0.6,1.7,0.6,2.2c-0.2-0.3-0.4-0.5-0.7-0.5l-0.2-0.9
							C143.7,40.5,143.9,40.2,143.9,39.9L143.9,39.9z"/>
						<path class="st3" d="M141.3,38.2c0.2,0.3,0.4,0.5,0.7,0.5c0.1,0.4,0.3,2.1,1.1,1.4c0.2,0.1,0.3,0.4,0.4,0.6
							C142,41.8,141.3,39.3,141.3,38.2L141.3,38.2z"/>
						<path class="st3" d="M142.1,37.2c1.5-0.4,2.3,2.7,1.4,3.6c0-0.2-0.1-0.5-0.4-0.6c0.2-0.5-0.2-2.9-1.1-2.1
							c-0.2-0.1-0.3-0.4-0.4-0.6C141.8,37.3,141.9,37.2,142.1,37.2L142.1,37.2z"/>
						<path class="st4" d="M141.4,34.9c0.2,0,0.3,0,0.5,0c0.1,0.2,0.1,0.5,0,0.7c-1.2-0.4-0.2,3.2,0.6,2.2c0.2,0.1,0.3,0.4,0.4,0.6
							C141.2,39.8,139.7,35.4,141.4,34.9L141.4,34.9z M142.7,35.4c0.3,0.5,0.6,1.7,0.6,2.2c-0.2-0.3-0.4-0.5-0.7-0.5l-0.2-0.9
							C142.5,36,142.7,35.7,142.7,35.4L142.7,35.4z"/>
						<path class="st3" d="M140,33.7c0.2,0.3,0.4,0.5,0.7,0.5c0.2,0.4,0.3,2.1,1.1,1.4c0.2,0.1,0.3,0.4,0.4,0.6
							C140.7,37.3,140.1,34.8,140,33.7L140,33.7z"/>
						<path class="st3" d="M140.8,32.7c1.5-0.4,2.3,2.7,1.4,3.6c0-0.2-0.1-0.5-0.4-0.6c0.2-0.5-0.2-2.9-1.1-2.1
							c-0.2-0.1-0.3-0.4-0.4-0.6C140.5,32.8,140.7,32.8,140.8,32.7L140.8,32.7z"/>
						<path class="st4" d="M140.2,30.4c0.2,0,0.3,0,0.5,0c0.1,0.2,0.1,0.5,0,0.7c-1.2-0.4-0.2,3.2,0.6,2.2c0.2,0.1,0.3,0.4,0.4,0.6
							C139.9,35.3,138.5,30.9,140.2,30.4L140.2,30.4z M141.5,30.9c0.3,0.5,0.6,1.7,0.6,2.2c-0.2-0.3-0.4-0.5-0.7-0.5l-0.2-0.9
							C141.3,31.6,141.4,31.3,141.5,30.9L141.5,30.9z"/>
						<path class="st3" d="M138.8,29.3c0.2,0.3,0.4,0.5,0.7,0.5c0.2,0.4,0.3,2.1,1.1,1.4c0.2,0.1,0.3,0.4,0.4,0.6
							C139.5,32.9,138.9,30.4,138.8,29.3L138.8,29.3z"/>
						<path class="st3" d="M139.6,28.2c1.5-0.4,2.3,2.7,1.4,3.6c0-0.2-0.1-0.5-0.4-0.6c0.2-0.5-0.2-2.9-1.1-2.1
							c-0.2-0.1-0.3-0.4-0.4-0.6C139.3,28.3,139.5,28.3,139.6,28.2L139.6,28.2z"/>
						<path class="st4" d="M139,26c0.2,0,0.3,0,0.5,0c0.1,0.2,0.1,0.5,0,0.7c-1.2-0.4-0.2,3.2,0.6,2.2c0.2,0.1,0.3,0.4,0.4,0.6
							C138.7,30.9,137.3,26.5,139,26L139,26z M140.2,26.5c0.3,0.5,0.6,1.7,0.6,2.2c-0.2-0.3-0.4-0.5-0.7-0.5l-0.2-0.9
							C140.1,27.1,140.2,26.8,140.2,26.5L140.2,26.5z"/>
						<path class="st3" d="M137.6,24.8c0.2,0.3,0.4,0.5,0.7,0.5c0.2,0.4,0.3,2.1,1.1,1.4c0.2,0.1,0.3,0.4,0.4,0.6
							C138.3,28.4,137.7,25.9,137.6,24.8L137.6,24.8z"/>
						<path class="st3" d="M138.4,23.7c1.5-0.4,2.3,2.7,1.5,3.6c0-0.2-0.1-0.5-0.4-0.6c0.2-0.5-0.2-2.9-1.1-2.1
							c-0.2-0.1-0.3-0.4-0.4-0.6C138.1,23.9,138.3,23.8,138.4,23.7L138.4,23.7z"/>
						<path class="st4" d="M137.8,21.5c0.2,0,0.3,0,0.5,0c0.1,0.2,0.1,0.5,0,0.7c-1.2-0.4-0.2,3.2,0.6,2.2c0.2,0.1,0.3,0.4,0.4,0.6
							C137.5,26.4,136.1,22,137.8,21.5L137.8,21.5z M139,22c0.3,0.5,0.6,1.7,0.6,2.2c-0.2-0.3-0.4-0.5-0.7-0.5l-0.2-0.9
							C138.9,22.6,139,22.3,139,22L139,22z"/>
						<path class="st3" d="M136.4,20.3c0.2,0.3,0.4,0.5,0.7,0.5c0.2,0.4,0.3,2.1,1.1,1.4c0.2,0.1,0.3,0.4,0.4,0.6
							C137.1,23.9,136.5,21.4,136.4,20.3L136.4,20.3z"/>
						<path class="st3" d="M137.2,19.3c1.5-0.4,2.3,2.7,1.4,3.6c0-0.2-0.1-0.5-0.4-0.6c0.2-0.5-0.2-2.9-1.1-2.1
							c-0.2-0.1-0.3-0.4-0.4-0.6C136.9,19.4,137,19.3,137.2,19.3L137.2,19.3z"/>
						<path class="st4" d="M136.6,17c0.2,0,0.3,0,0.5,0c0.1,0.2,0.1,0.5,0,0.7c-1.2-0.4-0.2,3.2,0.6,2.2c0.2,0.1,0.3,0.4,0.4,0.6
							C136.3,21.9,134.9,17.5,136.6,17L136.6,17z M137.8,17.5c0.3,0.5,0.6,1.7,0.6,2.2c-0.2-0.3-0.4-0.5-0.7-0.5l-0.2-0.9
							C137.7,18.2,137.8,17.9,137.8,17.5L137.8,17.5z"/>
						<path class="st3" d="M135.2,15.8c0.2,0.3,0.4,0.5,0.7,0.5c0.2,0.4,0.3,2.1,1.1,1.4c0.2,0.1,0.3,0.4,0.4,0.6
							C135.9,19.5,135.3,16.9,135.2,15.8L135.2,15.8z"/>
						<path class="st3" d="M136,14.8c1.5-0.4,2.3,2.7,1.4,3.6c0-0.2-0.1-0.5-0.4-0.6c0.2-0.5-0.2-2.9-1.1-2.1
							c-0.2-0.1-0.3-0.4-0.4-0.6C135.7,14.9,135.8,14.9,136,14.8L136,14.8z"/>
						<path class="st4" d="M135.4,12.6c0.2,0,0.3-0.1,0.5,0c0.1,0.2,0.1,0.5,0,0.7c-1.2-0.4-0.2,3.2,0.6,2.2
							c0.2,0.1,0.3,0.4,0.4,0.6C135.1,17.5,133.6,13.1,135.4,12.6L135.4,12.6z M136.6,13.1c0.3,0.5,0.6,1.7,0.6,2.2
							c-0.2-0.3-0.4-0.4-0.7-0.5l-0.2-0.9C136.4,13.7,136.6,13.4,136.6,13.1L136.6,13.1z"/>
						<path class="st3" d="M134,11.4c0.2,0.3,0.4,0.4,0.7,0.5c0.2,0.4,0.3,2.1,1.1,1.4c0.2,0.1,0.3,0.4,0.4,0.6
							C134.7,15,134,12.5,134,11.4L134,11.4z"/>
						<path class="st3" d="M134.8,10.3c1.5-0.4,2.3,2.7,1.5,3.6c0-0.2-0.1-0.5-0.4-0.6c0.2-0.5-0.2-2.9-1.1-2.1
							c-0.2-0.1-0.3-0.4-0.4-0.6C134.5,10.4,134.6,10.4,134.8,10.3L134.8,10.3z"/>
						<path class="st4" d="M134.2,8.1c0.2,0,0.3-0.1,0.5,0c0.1,0.2,0.1,0.5,0,0.7c-1.2-0.4-0.2,3.2,0.6,2.2c0.2,0.1,0.3,0.4,0.4,0.6
							C133.9,13,132.4,8.6,134.2,8.1L134.2,8.1z M135.4,8.6c0.3,0.5,0.6,1.7,0.6,2.2c-0.2-0.3-0.4-0.4-0.7-0.5L135,9.4
							C135.2,9.2,135.4,8.9,135.4,8.6L135.4,8.6z"/>
						<path class="st3" d="M133.6,5.8c1.7-0.5,2.8,4.1,0.5,3.8c-0.1-0.2-0.1-0.5,0-0.7c1.1,0.2,0.3-1.5,0.2-2
							c-0.2-0.6-1.1-0.4-0.9,0.2l0.3,1.2c-0.2,0.2-0.4,0.5-0.4,0.8C133,8.2,132.2,6.3,133.6,5.8z"/>
					</g>
					<path class="st4" d="M149.9,66.2c1.3-0.3,1.5,1.4,1.8,2.3c0.4,1.5-1.8,2.1-2.2,0.6c-0.1-0.3-0.5-1.5-0.4-1.8
						c0.2,0.3,0.4,0.4,0.7,0.5l0.3,1.2c0.2,0.6,1.1,0.4,0.9-0.2c-0.2-0.4-0.3-2.4-1.2-1.6c-0.2-0.1-0.3-0.4-0.4-0.6
						C149.6,66.3,149.8,66.3,149.9,66.2L149.9,66.2z"/>
				</g>
			</g>
			<path class="st5" d="M153.3,71.3l-0.6,0.4l-2.7-2.3l-0.1-1C151.5,67,153.3,69.6,153.3,71.3L153.3,71.3z"/>
			<path class="st6" d="M152.7,71.7l-3.4-2c0.2-1.6,0.8-1.8,2.1-0.8C152.3,69.4,152.5,70.7,152.7,71.7z"/>
			<g>
				<polygon class="st7" points="84.2,26.3 81.4,24.7 132.3,0 135.1,1.6 				"/>
				<polygon class="st7" points="69.4,34.8 66.7,33.2 81.4,24.7 84.2,26.3 				"/>
				<polygon class="st7" points="18.5,68.8 15.8,67.2 66.7,33.2 69.4,34.8 				"/>
				<polygon class="st7" points="18.6,72.3 15.8,70.7 15.8,67.2 18.5,68.8 				"/>
				<path class="st8" d="M84.2,26.3l50.9-24.7v3.5C124.4,12,79.8,41.3,69.5,46.5L18.6,72.3v-3.5C29.1,61.9,73.8,31.3,84.2,26.3z"/>
			</g>
			<g>
				<path class="st9" d="M83.9,279.9c0-0.6-0.4-1.2-1.2-1.7L82.4,23.5C85.9,58.6,82.7,243.8,83.9,279.9z"/>
				<path class="st9" d="M75.1,25.2c0.4-2.8,5.3-3,7.3-1.7l0.3,254.7c-2-1.3-6.9-1.1-7.3,1.7C75.4,244.9,75.2,60.3,75.1,25.2z"/>
				<path class="st9" d="M76.9,22.7c1.6-1.4,4.4-1,5.5,0.8c-1.9-1.1-5.1-1.1-6.8,0.5C76.1,23.6,76.5,23.1,76.9,22.7L76.9,22.7z"/>
				<path class="st9" d="M83,24c-0.4-0.3-1.3-1.2-1.7-1.6C82,22.8,82.5,23.5,83,24L83,24z"/>
				<path class="st10" d="M75.7,24c0.4-0.4,0.9-0.9,1.3-1.3c-2.1,3.2,6.9,3.1,4.8,0l0,0C88.9,28.2,72.5,29.8,75.7,24z"/>
				<path class="st9" d="M75.4,279.9L75.1,25.2c0.5,3.3,8,3.3,8.5,0l0.3,254.7C83.4,283.2,76,283.3,75.4,279.9z"/>
				<path class="st9" d="M82.1,23.5c0-0.4-0.3-0.8-0.8-1.1v-6.8C83.1,17.4,81.7,21.1,82.1,23.5z"/>
				<path class="st9" d="M76.6,16.7c0.3-1.8,3.5-1.9,4.8-1.1v6.8c-1.3-0.8-4.5-0.7-4.8,1.1C76.6,21.5,76.6,18.7,76.6,16.7z"/>
				<path class="st9" d="M76.6,23.5v-6.8c0.3,2.2,5.2,2.2,5.5,0v6.8C81.8,25.7,76.9,25.7,76.6,23.5z"/>
				<path class="st9" d="M82.9,14.8c4.8,3.8-4.5,6.2-7,3.9C71.1,14.9,80.3,12.5,82.9,14.8z M81.3,15.6c-1.1-0.6-2.8-0.7-3.9,0
					C73.4,19.1,85.1,19.2,81.3,15.6L81.3,15.6z"/>
				<path class="st9" d="M84.2,16.7c0-0.7-0.4-1.4-1.4-1.9V5.2C85.8,7.8,83.5,13.2,84.2,16.7z"/>
				<path class="st9" d="M74.4,7.2c0.5-3.3,6.1-3.4,8.4-2v9.6c-2.3-1.4-7.9-1.3-8.4,2C74.4,13.9,74.4,10,74.4,7.2z"/>
				<path class="st10" d="M82.8,5.2c4.8,3.8-4.5,6.2-7,3.9C71,5.3,80.3,2.9,82.8,5.2z"/>
				<path class="st9" d="M74.4,16.7V7.1c0.6,3.8,9.2,3.8,9.8,0v9.6C83.6,20.5,75,20.6,74.4,16.7z"/>
			</g>
			<g>
				<g>
					<g>
						<g>
							<defs>
								<path id="SVGID_1_" d="M85,29.8l1.8,1.1c-0.8-0.5-1.9-0.4-3.1,0.3l-1.8-1.1C83.1,29.4,84.2,29.4,85,29.8z"/>
							</defs>
							<clipPath id="SVGID_00000068641012655054650110000018299082017115947396_">
								<use xlink:href="#SVGID_1_"  style="overflow:visible;"/>
							</clipPath>
							<g style="clip-path:url(#SVGID_00000068641012655054650110000018299082017115947396_);">
								<g>
									<path class="st12" d="M83.7,31.2l-1.8-1.1c2-1.3,3.4-0.2,5,0.8C86,30.4,84.9,30.5,83.7,31.2L83.7,31.2z"/>
								</g>
							</g>
						</g>
					</g>
				</g>
				<g>
					<g>
						<g>
							<defs>
								<path id="SVGID_00000134954507828977509490000011055787460819536772_" d="M80.6,41.7C75,40,78,32.4,81.9,30.2l1.8,1.1
									C80.7,32.9,77.4,39,80.6,41.7z"/>
							</defs>
							<clipPath id="SVGID_00000100360076917522272790000003725543448017023643_">
								<use xlink:href="#SVGID_00000134954507828977509490000011055787460819536772_"  style="overflow:visible;"/>
							</clipPath>
							<g style="clip-path:url(#SVGID_00000100360076917522272790000003725543448017023643_);">
								<g>
									<path class="st12" d="M80.6,41.7C75,40,78,32.4,81.9,30.2l1.8,1.1C80.7,32.9,77.4,39,80.6,41.7z"/>
								</g>
							</g>
						</g>
					</g>
				</g>
				<path class="st14" d="M83.7,31.2c7.2-3,4.2,8.6,0,10.1c-2.4,1.4-4.4,0.3-4.4-2.5C79.3,36,81.3,32.6,83.7,31.2z"/>
			</g>
			<g>
				<polygon class="st7" points="69.4,34.8 66.7,33.2 75.1,28.3 77.9,29.9 				"/>
				<polygon class="st7" points="18.5,68.8 15.8,67.2 66.7,33.2 69.4,34.8 				"/>
				<polygon class="st6" points="18.6,72.3 15.8,70.7 15.8,67.2 18.5,68.8 				"/>
			</g>
			<path class="st8" d="M77.9,29.9c-4.2,1.6-54.1,35.5-59.4,38.9v3.5c6.1-3.2,55.2-27.6,59.5-30.8C78,37.7,77.9,33.8,77.9,29.9
				L77.9,29.9z"/>
			<g>
				<g>
					<g>
						<path class="st0" d="M34,129.3c2.7,0.7,5.4,1.7,7.6,3.1C39,131.4,36.8,129.9,34,129.3z"/>
						<path class="st1" d="M32.6,140.3c11.4,9-10.7,14.8-16.9,9.4C4.3,140.7,26.4,134.9,32.6,140.3z"/>
						<path class="st0" d="M13.6,129.5c0.2-0.1,0.4-0.1,0.6-0.2c-11.1,2.4-18.6,14.2-6.5,21c8.7,5.2,23,5.4,32.1,0.3
							s9.3-13.4,0.7-18.6c10,4.5,10.4,14.8,0.3,20.1c-9.6,5.4-24.9,5.2-34.1-0.3C-6.2,144.6,1.8,132,13.6,129.5L13.6,129.5z"/>
						<path class="st2" d="M40.5,132c-8.7-5.2-23-5.4-32.1-0.3c-9.6,5.1-8.7,14.1-0.7,18.6c8.7,5.2,23,5.4,32.1,0.3
							C47.9,146.5,49.9,137.3,40.5,132L40.5,132z M32.2,149.9c-4.7,2.6-12.1,2.5-16.5-0.2c-11.4-9,10.7-14.8,16.9-9.4
							C37,143,36.9,147.3,32.2,149.9L32.2,149.9z M5.8,148.9c-0.1-0.1-0.3-0.2-0.4-0.3C5.5,148.7,5.6,148.8,5.8,148.9L5.8,148.9z"/>
						<path class="st0" d="M7.8,152.6c10.5,6.4,26.7,5.6,36.3-2.8c-10.5,8.4-29.6,8.3-40,0.1C4.7,150.5,6.8,152,7.8,152.6L7.8,152.6
							z"/>
					</g>
					<g>
						<path class="st3" d="M39.8,127.7c0.2,0.3,0.5,0.5,0.7,0.5c0.2,0.4,0.3,2.1,1.1,1.4c0.2,0.1,0.3,0.4,0.4,0.6
							C40.5,131.3,39.8,128.8,39.8,127.7L39.8,127.7z"/>
						<g>
							<path class="st4" d="M39.9,124.4c0.2,0,0.3-0.1,0.5,0c0.1,0.2,0.1,0.5,0,0.7c-1.2-0.4-0.2,3.2,0.6,2.2
								c0.2,0.1,0.3,0.4,0.4,0.6C39.6,129.4,38.2,125,39.9,124.4L39.9,124.4z M41.2,124.9c0.3,0.5,0.6,1.7,0.6,2.2
								c-0.2-0.3-0.5-0.5-0.7-0.5l-0.2-0.9C41,125.6,41.2,125.3,41.2,124.9L41.2,124.9z"/>
							<path class="st3" d="M40.5,126.7c1.5-0.4,2.3,2.7,1.5,3.6c0-0.2-0.1-0.5-0.4-0.6c0.2-0.5-0.2-2.9-1.1-2.1
								c-0.2-0.1-0.3-0.4-0.4-0.6C40.2,126.8,40.4,126.8,40.5,126.7L40.5,126.7z"/>
							<path class="st3" d="M38.5,123.3c0.2,0.3,0.5,0.4,0.7,0.5c0.2,0.4,0.3,2.1,1.1,1.4c0.2,0.1,0.3,0.4,0.4,0.6
								C39.2,126.9,38.6,124.4,38.5,123.3L38.5,123.3z"/>
							<path class="st3" d="M39.3,122.2c1.5-0.4,2.3,2.7,1.5,3.6c0-0.2-0.1-0.5-0.4-0.6c0.2-0.5-0.2-2.9-1.1-2.1
								c-0.2-0.1-0.3-0.4-0.4-0.6C39,122.3,39.2,122.3,39.3,122.2L39.3,122.2z"/>
							<path class="st4" d="M38.7,120c0.2,0,0.3-0.1,0.5,0c0.1,0.2,0.1,0.5,0,0.7c-1.2-0.4-0.2,3.2,0.6,2.2c0.2,0.1,0.3,0.4,0.4,0.6
								C38.4,124.9,37,120.5,38.7,120L38.7,120z M40,120.5c0.3,0.5,0.6,1.7,0.6,2.2c-0.2-0.3-0.5-0.4-0.7-0.5l-0.2-0.9
								C39.8,121.1,39.9,120.8,40,120.5L40,120.5z"/>
							<path class="st3" d="M37.3,118.8c0.2,0.3,0.5,0.4,0.7,0.5c0.2,0.4,0.3,2.1,1.1,1.4c0.2,0.1,0.3,0.4,0.4,0.6
								C38,122.4,37.4,119.9,37.3,118.8L37.3,118.8z"/>
							<path class="st3" d="M38.1,117.7c1.5-0.4,2.3,2.7,1.5,3.6c0-0.2-0.1-0.5-0.4-0.6c0.2-0.5-0.2-2.9-1.1-2.1
								c-0.2-0.1-0.3-0.4-0.4-0.6C37.8,117.9,38,117.8,38.1,117.7L38.1,117.7z"/>
							<path class="st4" d="M37.5,115.5c0.2,0,0.3-0.1,0.5,0c0.1,0.2,0.1,0.5,0,0.7c-1.2-0.4-0.2,3.2,0.6,2.2
								c0.2,0.1,0.3,0.4,0.4,0.6C37.2,120.4,35.8,116,37.5,115.5L37.5,115.5z M38.7,116c0.3,0.5,0.6,1.7,0.6,2.2
								c-0.2-0.3-0.5-0.4-0.7-0.5l-0.2-0.9C38.6,116.6,38.7,116.3,38.7,116L38.7,116z"/>
							<path class="st3" d="M36.1,114.3c0.2,0.3,0.5,0.4,0.7,0.5c0.2,0.4,0.3,2.1,1.1,1.4c0.2,0.1,0.3,0.4,0.4,0.6
								C36.8,117.9,36.2,115.4,36.1,114.3L36.1,114.3z"/>
							<path class="st3" d="M36.9,113.3c1.5-0.4,2.3,2.7,1.5,3.6c0-0.2-0.1-0.5-0.4-0.6c0.2-0.5-0.2-2.9-1.1-2.1
								c-0.2-0.1-0.3-0.4-0.4-0.6C36.6,113.4,36.7,113.3,36.9,113.3L36.9,113.3z"/>
							<path class="st4" d="M36.3,111c0.2,0,0.3-0.1,0.5,0c0.1,0.2,0.1,0.5,0,0.7c-1.2-0.4-0.2,3.2,0.6,2.2c0.2,0.1,0.3,0.4,0.4,0.6
								C36,115.9,34.6,111.5,36.3,111L36.3,111z M37.5,111.5c0.3,0.5,0.6,1.7,0.6,2.2c-0.2-0.3-0.5-0.4-0.7-0.5l-0.2-0.9
								C37.4,112.2,37.5,111.9,37.5,111.5L37.5,111.5z"/>
							<path class="st3" d="M34.9,109.8c0.2,0.3,0.5,0.4,0.7,0.5c0.2,0.4,0.3,2.1,1.1,1.4c0.2,0.1,0.3,0.4,0.4,0.6
								C35.6,113.5,35,110.9,34.9,109.8L34.9,109.8z"/>
							<path class="st3" d="M35.7,108.8c1.5-0.4,2.3,2.7,1.5,3.6c0-0.2-0.1-0.5-0.4-0.6c0.2-0.5-0.2-2.9-1.1-2.1
								c-0.2-0.1-0.3-0.4-0.4-0.6C35.4,108.9,35.5,108.9,35.7,108.8L35.7,108.8z"/>
							<path class="st4" d="M35.1,106.6c0.2,0,0.3-0.1,0.5,0c0.1,0.2,0.1,0.5,0,0.7c-1.2-0.4-0.2,3.2,0.6,2.2
								c0.2,0.1,0.3,0.4,0.4,0.6C34.8,111.5,33.4,107.1,35.1,106.6L35.1,106.6z M36.3,107.1c0.3,0.5,0.6,1.7,0.6,2.2
								c-0.2-0.3-0.5-0.4-0.7-0.5l-0.2-0.9C36.2,107.7,36.3,107.4,36.3,107.1L36.3,107.1z"/>
							<path class="st3" d="M33.7,105.4c0.2,0.3,0.5,0.4,0.7,0.5c0.1,0.4,0.3,2.1,1.1,1.4c0.2,0.1,0.3,0.4,0.4,0.6
								C34.4,109,33.7,106.5,33.7,105.4L33.7,105.4z"/>
							<path class="st3" d="M34.5,104.3c1.5-0.4,2.3,2.7,1.5,3.6c0-0.2-0.1-0.5-0.4-0.6c0.2-0.5-0.2-2.9-1.1-2.1
								c-0.2-0.1-0.3-0.4-0.4-0.6C34.2,104.5,34.3,104.4,34.5,104.3L34.5,104.3z"/>
							<path class="st4" d="M33.9,102.1c0.2,0,0.3-0.1,0.5,0c0.1,0.2,0.1,0.5,0,0.7c-1.2-0.4-0.2,3.2,0.6,2.2
								c0.2,0.1,0.3,0.4,0.4,0.6C33.6,107,32.1,102.6,33.9,102.1L33.9,102.1z M35.1,102.6c0.3,0.5,0.6,1.7,0.6,2.2
								c-0.2-0.3-0.5-0.4-0.7-0.5l-0.2-0.9C35,103.2,35.1,102.9,35.1,102.6L35.1,102.6z"/>
							<path class="st3" d="M32.5,100.9c0.2,0.3,0.5,0.5,0.7,0.5c0.1,0.4,0.3,2.1,1.1,1.4c0.2,0.1,0.3,0.4,0.4,0.6
								C33.2,104.5,32.5,102,32.5,100.9L32.5,100.9z"/>
							<path class="st3" d="M33.3,99.9c1.5-0.4,2.3,2.7,1.5,3.6c0-0.2-0.1-0.5-0.4-0.6c0.2-0.5-0.2-2.9-1.1-2.1
								c-0.2-0.1-0.3-0.4-0.4-0.6C33,100,33.1,99.9,33.3,99.9L33.3,99.9z"/>
							<path class="st4" d="M32.7,97.6c0.2,0,0.3-0.1,0.5,0c0.1,0.2,0.1,0.5,0,0.7c-1.2-0.4-0.2,3.2,0.6,2.2
								c0.2,0.1,0.3,0.4,0.4,0.6C32.4,102.5,30.9,98.1,32.7,97.6L32.7,97.6z M33.9,98.1c0.3,0.5,0.6,1.7,0.6,2.2
								c-0.2-0.3-0.5-0.4-0.7-0.5l-0.2-0.9C33.7,98.8,33.9,98.4,33.9,98.1L33.9,98.1z"/>
							<path class="st3" d="M31.3,96.4c0.2,0.3,0.5,0.5,0.7,0.5c0.1,0.4,0.3,2.1,1.1,1.4c0.2,0.1,0.3,0.4,0.4,0.6
								C32,100.1,31.3,97.5,31.3,96.4L31.3,96.4z"/>
							<path class="st3" d="M32.1,95.4c1.5-0.4,2.3,2.7,1.5,3.6c0-0.2-0.1-0.5-0.4-0.6c0.2-0.5-0.2-2.9-1.1-2.1
								c-0.2-0.1-0.3-0.4-0.4-0.6C31.8,95.5,31.9,95.5,32.1,95.4L32.1,95.4z"/>
							<path class="st4" d="M31.5,93.2c0.2,0,0.3-0.1,0.5,0c0.1,0.2,0.1,0.5,0,0.7c-1.2-0.4-0.2,3.2,0.6,2.2
								c0.2,0.1,0.3,0.4,0.4,0.6C31.2,98.1,29.7,93.6,31.5,93.2L31.5,93.2z M32.7,93.7c0.3,0.5,0.6,1.7,0.6,2.2
								c-0.2-0.3-0.5-0.5-0.7-0.5l-0.2-0.9C32.5,94.3,32.7,94,32.7,93.7L32.7,93.7z"/>
							<path class="st3" d="M30,92c0.2,0.3,0.5,0.5,0.7,0.5c0.2,0.4,0.3,2.1,1.1,1.4c0.2,0.1,0.3,0.4,0.4,0.6
								C30.7,95.6,30.1,93.1,30,92L30,92z"/>
							<path class="st3" d="M30.8,90.9c1.5-0.4,2.3,2.7,1.5,3.6c0-0.2-0.1-0.5-0.4-0.6c0.2-0.5-0.2-2.9-1.1-2.1
								c-0.2-0.1-0.3-0.4-0.4-0.6C30.6,91.1,30.7,91,30.8,90.9L30.8,90.9z"/>
							<path class="st4" d="M30.2,88.7c0.2,0,0.3-0.1,0.5,0c0.1,0.2,0.1,0.5,0,0.7c-1.2-0.4-0.2,3.2,0.6,2.2
								c0.2,0.1,0.3,0.4,0.4,0.6C30,93.6,28.5,89.2,30.2,88.7L30.2,88.7z M31.5,89.2c0.3,0.5,0.6,1.7,0.6,2.2
								c-0.2-0.3-0.5-0.5-0.7-0.5L31.1,90C31.3,89.8,31.5,89.5,31.5,89.2L31.5,89.2z"/>
							<path class="st3" d="M28.8,87.5c0.2,0.3,0.5,0.4,0.7,0.5c0.2,0.4,0.3,2.1,1.1,1.4c0.2,0.1,0.3,0.4,0.4,0.6
								C29.5,91.1,28.9,88.6,28.8,87.5L28.8,87.5z"/>
							<path class="st3" d="M29.6,86.4c1.5-0.4,2.3,2.7,1.5,3.6c0-0.2-0.1-0.5-0.4-0.6c0.2-0.5-0.2-2.9-1.1-2.1
								c-0.2-0.1-0.3-0.4-0.4-0.6C29.3,86.6,29.5,86.5,29.6,86.4L29.6,86.4z"/>
							<path class="st4" d="M29,84.2c0.2,0,0.3-0.1,0.5,0c0.1,0.2,0.1,0.5,0,0.7c-1.2-0.4-0.2,3.2,0.6,2.2c0.2,0.1,0.3,0.4,0.4,0.6
								C28.7,89.1,27.3,84.7,29,84.2L29,84.2z M30.2,84.7c0.3,0.5,0.6,1.7,0.6,2.2c-0.2-0.3-0.5-0.4-0.7-0.5l-0.2-0.9
								C30.1,85.3,30.2,85,30.2,84.7L30.2,84.7z"/>
							<path class="st3" d="M27.6,83c0.2,0.3,0.5,0.4,0.7,0.5c0.2,0.4,0.3,2.1,1.1,1.4c0.2,0.1,0.3,0.4,0.4,0.6
								C28.3,86.6,27.7,84.1,27.6,83L27.6,83z"/>
							<path class="st3" d="M28.4,82c1.5-0.4,2.3,2.7,1.5,3.6c0-0.2-0.1-0.5-0.4-0.6c0.2-0.5-0.2-2.9-1.1-2.1
								c-0.2-0.1-0.3-0.4-0.4-0.6C28.1,82.1,28.3,82,28.4,82L28.4,82z"/>
							<path class="st4" d="M27.8,79.7c0.2,0,0.3-0.1,0.5,0c0.1,0.2,0.1,0.5,0,0.7c-1.2-0.4-0.2,3.2,0.6,2.2
								c0.2,0.1,0.3,0.4,0.4,0.6C27.5,84.7,26.1,80.2,27.8,79.7L27.8,79.7z M29,80.2c0.3,0.5,0.6,1.7,0.6,2.2
								c-0.2-0.3-0.5-0.4-0.7-0.5L28.7,81C28.9,80.9,29,80.6,29,80.2L29,80.2z"/>
							<path class="st3" d="M26.4,78.6c0.2,0.3,0.5,0.4,0.7,0.5c0.2,0.4,0.3,2.1,1.1,1.4c0.2,0.1,0.3,0.4,0.4,0.6
								C27.1,82.2,26.5,79.6,26.4,78.6L26.4,78.6z"/>
							<path class="st3" d="M27.2,77.5c1.5-0.4,2.3,2.7,1.5,3.6c0-0.2-0.1-0.5-0.4-0.6c0.2-0.5-0.2-2.9-1.1-2.1
								c-0.2-0.1-0.3-0.4-0.4-0.6C26.9,77.6,27.1,77.6,27.2,77.5L27.2,77.5z"/>
							<path class="st4" d="M26.6,75.3c0.2,0,0.3-0.1,0.5,0c0.1,0.2,0.1,0.5,0,0.7c-1.2-0.4-0.2,3.2,0.6,2.2
								c0.2,0.1,0.3,0.4,0.4,0.6C26.3,80.2,24.9,75.8,26.6,75.3L26.6,75.3z M27.8,75.8c0.3,0.5,0.6,1.7,0.6,2.2
								c-0.2-0.3-0.5-0.4-0.7-0.5l-0.2-0.9C27.7,76.4,27.8,76.1,27.8,75.8L27.8,75.8z"/>
							<path class="st3" d="M25.2,74.1c0.2,0.3,0.5,0.4,0.7,0.5c0.2,0.4,0.3,2.1,1.1,1.4c0.2,0.1,0.3,0.4,0.4,0.6
								C25.9,77.7,25.3,75.2,25.2,74.1L25.2,74.1z"/>
							<path class="st3" d="M26,73c1.5-0.4,2.3,2.7,1.5,3.6c0-0.2-0.1-0.5-0.4-0.6c0.2-0.5-0.2-2.9-1.1-2.1
								c-0.2-0.1-0.3-0.4-0.4-0.6C25.7,73.2,25.8,73.1,26,73L26,73z"/>
							<path class="st4" d="M25.4,70.8c0.2,0,0.3-0.1,0.5,0c0.1,0.2,0.1,0.5,0,0.7c-1.2-0.4-0.2,3.2,0.6,2.2
								c0.2,0.1,0.3,0.4,0.4,0.6C25.1,75.7,23.6,71.3,25.4,70.8L25.4,70.8z M26.6,71.3c0.3,0.5,0.6,1.7,0.6,2.2
								c-0.2-0.3-0.5-0.4-0.7-0.5l-0.2-0.9C26.5,71.9,26.6,71.6,26.6,71.3L26.6,71.3z"/>
							<path class="st3" d="M24.8,68.6c1.7-0.5,2.8,4.1,0.6,3.8c-0.1-0.2-0.1-0.5,0-0.7c1.1,0.2,0.3-1.5,0.2-2
								c-0.2-0.6-1.1-0.4-0.9,0.2l0.3,1.2c-0.2,0.2-0.4,0.5-0.4,0.8C24.2,70.9,23.4,69,24.8,68.6L24.8,68.6z"/>
						</g>
						<path class="st4" d="M41.2,128.9c1.3-0.3,1.5,1.4,1.8,2.3c0.4,1.5-1.8,2.1-2.2,0.6c-0.1-0.3-0.5-1.5-0.4-1.8
							c0.2,0.3,0.5,0.4,0.7,0.5l0.3,1.2c0.2,0.6,1.1,0.4,0.9-0.2c-0.2-0.4-0.3-2.4-1.2-1.6c-0.2-0.1-0.3-0.4-0.4-0.6
							C40.9,129,41,129,41.2,128.9L41.2,128.9z"/>
					</g>
				</g>
				<path class="st5" d="M44.5,134l-0.7,0.4l-2.7-2.3l-0.2-1C42.7,129.7,44.5,132.3,44.5,134L44.5,134z"/>
				<path class="st6" d="M43.9,134.4l-3.4-2c0.2-1.6,0.8-1.8,2.1-0.8C43.5,132.1,43.7,133.4,43.9,134.4z"/>
			</g>
		</g>
		<g>
			<polygon class="st0" points="22.9,151.5 36.6,143.6 26.5,137.7 12.8,145.7 			"/>
			<g>
				<path class="st15" d="M34.8,103.1c-5.4-2.7-11.8,3.8-14.4,8.9l4.7,2.7c2.5-5.1,8.9-11.6,14.3-8.9
					C39.5,105.8,34.8,103.1,34.8,103.1z"/>
				<path class="st15" d="M15.3,143.2c-5.8-2.9-12.5-7.4-11.9-14.1c0.4-10.5,11-24.1,21.4-14.7C11.2,111,0.6,136.8,15.3,143.2z"/>
				<path class="st16" d="M32.6,106.5c20.5-6.4,4.8,25-7.3,40.4c-31-5-12.8-38.2-0.1-32.2C27,111.3,29.6,108.2,32.6,106.5
					L32.6,106.5z"/>
			</g>
		</g>
		<g>
			<g>
				<path class="st3" d="M6.3,142.2c0,0.4,0.2,0.7,0.4,0.9c0,0.5-0.8,2.4,0.3,2.1c0.2,0.2,0.1,0.6,0,0.9
					C4.9,146.4,6,143.3,6.3,142.2L6.3,142.2z"/>
				<g>
					<path class="st4" d="M8.1,138.7c0.2,0,0.3,0.1,0.4,0.2c-0.1,0.3-0.1,0.7-0.4,0.8c-0.9-1.1-1.8,3.4-0.6,2.8
						c0.2,0.2,0.1,0.6,0,0.9C5.4,144,6.4,138.3,8.1,138.7L8.1,138.7z M9,139.9c0,0.7-0.3,2.1-0.6,2.8c0-0.4-0.2-0.7-0.4-0.9l0.2-1.1
						C8.5,140.5,8.8,140.2,9,139.9z"/>
					<path class="st3" d="M7.6,141.5c1.5,0.4,0.6,4.2-0.5,4.6c0.1-0.3,0.1-0.7,0-0.9c0.4-0.3,1.3-3.3,0.1-2.9
						c-0.2-0.2-0.1-0.6,0-0.9C7.3,141.5,7.4,141.4,7.6,141.5L7.6,141.5z"/>
					<path class="st3" d="M7.5,136.7c0,0.4,0.2,0.7,0.4,0.9c0,0.5-0.8,2.4,0.3,2.1c0.2,0.2,0.1,0.6,0,0.9
						C6.1,140.9,7.1,137.8,7.5,136.7L7.5,136.7z"/>
					<path class="st3" d="M8.7,136c1.5,0.4,0.6,4.2-0.5,4.6c0.1-0.3,0.1-0.7,0-0.9c0.4-0.3,1.3-3.3,0.1-2.9c-0.2-0.2-0.1-0.6,0-0.9
						C8.4,135.9,8.6,135.9,8.7,136L8.7,136z"/>
					<path class="st4" d="M9.3,133.2c0.2,0,0.3,0.1,0.4,0.2c-0.1,0.3-0.1,0.7-0.4,0.8c-0.9-1.1-1.8,3.4-0.6,2.8
						c0.2,0.2,0.1,0.6,0,0.9C6.5,138.5,7.6,132.8,9.3,133.2z M10.1,134.4c0,0.7-0.3,2.1-0.6,2.8c0-0.4-0.2-0.7-0.4-0.9l0.2-1.1
						C9.7,135,10,134.7,10.1,134.4z"/>
					<path class="st3" d="M8.7,131.2c0,0.4,0.2,0.7,0.4,0.9c0,0.5-0.8,2.4,0.3,2.1c0.2,0.2,0.1,0.6,0,0.9
						C7.3,135.4,8.3,132.3,8.7,131.2L8.7,131.2z"/>
					<path class="st3" d="M9.9,130.4c1.5,0.4,0.6,4.2-0.5,4.6c0.1-0.3,0.1-0.7,0-0.9c0.4-0.3,1.3-3.3,0.1-2.9
						c-0.2-0.2-0.1-0.6,0-0.9C9.6,130.4,9.7,130.4,9.9,130.4L9.9,130.4z"/>
					<path class="st4" d="M10.5,127.7c0.2,0,0.3,0.1,0.4,0.2c-0.1,0.3-0.1,0.7-0.4,0.8c-0.9-1.1-1.8,3.4-0.6,2.8
						c0.2,0.2,0.1,0.6,0,0.9C7.7,132.9,8.7,127.3,10.5,127.7z M11.3,128.9c0,0.7-0.3,2.1-0.6,2.8c0-0.4-0.2-0.7-0.4-0.9l0.2-1.1
						C10.8,129.4,11.1,129.2,11.3,128.9z"/>
					<path class="st3" d="M9.8,125.7c0,0.4,0.2,0.7,0.4,0.9c0,0.5-0.8,2.4,0.3,2.1c0.2,0.2,0.1,0.6,0,0.9
						C8.4,129.9,9.5,126.7,9.8,125.7L9.8,125.7z"/>
					<path class="st3" d="M11.1,124.9c1.5,0.4,0.6,4.2-0.5,4.6c0.1-0.3,0.1-0.7,0-0.9c0.4-0.3,1.3-3.3,0.1-2.9
						c-0.2-0.2-0.1-0.6,0-0.9C10.8,124.9,10.9,124.9,11.1,124.9L11.1,124.9z"/>
					<path class="st4" d="M11.6,122.2c0.2,0,0.3,0.1,0.4,0.2c-0.1,0.3-0.1,0.7-0.4,0.8c-0.9-1.1-1.8,3.4-0.6,2.8
						c0.2,0.2,0.1,0.6,0,0.9C8.8,127.4,9.9,121.7,11.6,122.2z M12.4,123.3c0,0.7-0.3,2.1-0.6,2.8c0-0.4-0.2-0.7-0.4-0.9l0.2-1.1
						C12,123.9,12.3,123.7,12.4,123.3z"/>
					<path class="st3" d="M11,120.1c0,0.4,0.2,0.7,0.4,0.9c0,0.5-0.8,2.4,0.3,2.1c0.2,0.2,0.1,0.6,0,0.9
						C9.6,124.4,10.6,121.2,11,120.1L11,120.1z"/>
					<path class="st3" d="M12.2,119.4c1.5,0.4,0.6,4.2-0.5,4.6c0.1-0.3,0.1-0.7,0-0.9c0.4-0.3,1.3-3.3,0.1-2.9
						c-0.2-0.2-0.1-0.6,0-0.9C11.9,119.4,12.1,119.4,12.2,119.4L12.2,119.4z"/>
					<path class="st4" d="M12.8,116.6c0.2,0,0.3,0.1,0.4,0.2c-0.1,0.3-0.1,0.7-0.4,0.8c-0.9-1.1-1.8,3.4-0.6,2.8
						c0.2,0.2,0.1,0.6,0,0.9C10,121.9,11.1,116.3,12.8,116.6L12.8,116.6z M13.6,117.8c0,0.7-0.3,2.1-0.6,2.8c0-0.4-0.2-0.7-0.4-0.9
						l0.2-1.1C13.2,118.4,13.4,118.1,13.6,117.8z"/>
					<path class="st3" d="M12.1,114.6c0,0.4,0.2,0.7,0.4,0.9c0,0.5-0.8,2.4,0.3,2.1c0.2,0.2,0.1,0.6,0,0.9
						C10.8,118.8,11.8,115.7,12.1,114.6L12.1,114.6z"/>
					<path class="st3" d="M13.4,113.9c1.5,0.4,0.6,4.2-0.5,4.6c0.1-0.3,0.1-0.7,0-0.9c0.4-0.3,1.3-3.3,0.1-2.9
						c-0.2-0.2-0.1-0.6,0-0.9C13.1,113.8,13.2,113.8,13.4,113.9L13.4,113.9z"/>
					<path class="st4" d="M14,111.1c0.2,0,0.3,0.1,0.4,0.2c-0.1,0.3-0.1,0.7-0.4,0.8c-0.9-1.1-1.8,3.4-0.6,2.8
						c0.2,0.2,0.1,0.6,0,0.9C11.2,116.4,12.2,110.7,14,111.1L14,111.1z M14.8,112.3c0,0.7-0.3,2.1-0.6,2.8c0-0.4-0.2-0.7-0.4-0.9
						L14,113C14.3,112.9,14.6,112.6,14.8,112.3z"/>
					<path class="st3" d="M13.3,109.1c0,0.4,0.2,0.7,0.4,0.9c0,0.5-0.8,2.4,0.3,2.1c0.2,0.2,0.1,0.6,0,0.9
						C11.9,113.3,13,110.2,13.3,109.1L13.3,109.1z"/>
					<path class="st3" d="M14.5,108.3c1.5,0.4,0.6,4.2-0.5,4.6c0.1-0.3,0.1-0.7,0-0.9c0.4-0.3,1.3-3.3,0.1-2.9
						c-0.2-0.2-0.1-0.6,0-0.9C14.2,108.3,14.4,108.3,14.5,108.3L14.5,108.3z"/>
					<path class="st4" d="M15.1,105.6c0.2,0,0.3,0.1,0.4,0.2c-0.1,0.3-0.1,0.7-0.4,0.8c-0.9-1.1-1.8,3.4-0.6,2.8
						c0.2,0.2,0.1,0.6,0,0.9C12.3,110.8,13.4,105.2,15.1,105.6z M15.9,106.8c0,0.7-0.3,2.1-0.6,2.8c0-0.4-0.2-0.7-0.4-0.9l0.2-1.1
						C15.5,107.3,15.8,107.1,15.9,106.8z"/>
					<path class="st3" d="M14.5,103.6c0,0.4,0.2,0.7,0.4,0.9c0,0.5-0.8,2.4,0.3,2.1c0.2,0.2,0.1,0.6,0,0.9
						C13.1,107.8,14.1,104.6,14.5,103.6z"/>
					<path class="st3" d="M15.7,102.8c1.5,0.4,0.6,4.2-0.5,4.6c0.1-0.3,0.1-0.7,0-0.9c0.4-0.3,1.3-3.3,0.1-2.9
						c-0.2-0.2-0.1-0.6,0-0.9C15.4,102.8,15.6,102.8,15.7,102.8L15.7,102.8z"/>
					<path class="st4" d="M16.3,100.1c0.2,0,0.3,0.1,0.4,0.2c-0.1,0.3-0.1,0.7-0.4,0.8c-0.9-1.1-1.8,3.4-0.6,2.8
						c0.2,0.2,0.1,0.6,0,0.9C13.5,105.3,14.6,99.7,16.3,100.1z M17.1,101.2c0,0.7-0.3,2.1-0.6,2.8c0-0.4-0.2-0.7-0.4-0.9l0.2-1.1
						C16.7,101.8,16.9,101.6,17.1,101.2z"/>
					<path class="st3" d="M15.6,98.1c0,0.4,0.2,0.7,0.4,0.9c0,0.5-0.8,2.4,0.3,2.1c0.2,0.2,0.1,0.6,0,0.9
						C14.3,102.3,15.3,99.1,15.6,98.1L15.6,98.1z"/>
					<path class="st3" d="M16.9,97.3c1.5,0.4,0.6,4.2-0.5,4.6c0.1-0.3,0.1-0.7,0-0.9c0.4-0.3,1.3-3.3,0.1-2.9
						c-0.2-0.2-0.1-0.6,0-0.9C16.6,97.3,16.7,97.3,16.9,97.3L16.9,97.3z"/>
					<path class="st4" d="M17.5,94.6c0.2,0,0.3,0.1,0.4,0.2c-0.1,0.3-0.1,0.7-0.4,0.8c-0.9-1.1-1.8,3.4-0.6,2.8
						c0.2,0.2,0.1,0.6,0,0.9C14.7,99.8,15.7,94.1,17.5,94.6z M18.3,95.7c0,0.7-0.3,2.1-0.6,2.8c0-0.4-0.2-0.7-0.4-0.9l0.2-1.1
						C17.8,96.3,18.1,96.1,18.3,95.7z"/>
					<path class="st3" d="M16.8,92.5c0,0.4,0.2,0.7,0.4,0.9c0,0.5-0.8,2.4,0.3,2.1c0.2,0.2,0.1,0.6,0,0.9
						C15.4,96.8,16.4,93.6,16.8,92.5L16.8,92.5z"/>
					<path class="st3" d="M18,91.8c1.5,0.4,0.6,4.2-0.5,4.6c0.1-0.3,0.1-0.7,0-0.9c0.4-0.3,1.3-3.3,0.1-2.9c-0.2-0.2-0.1-0.6,0-0.9
						C17.7,91.7,17.9,91.7,18,91.8L18,91.8z"/>
					<path class="st4" d="M18.6,89c0.2,0,0.3,0.1,0.4,0.2c-0.1,0.3-0.1,0.7-0.4,0.8c-0.9-1.1-1.8,3.4-0.6,2.8c0.2,0.2,0.1,0.6,0,0.9
						C15.8,94.3,16.9,88.6,18.6,89z M19.4,90.2c0,0.7-0.3,2.1-0.6,2.8c0-0.4-0.2-0.7-0.4-0.9l0.2-1.1C19,90.8,19.3,90.5,19.4,90.2z"
						/>
					<path class="st3" d="M18,87c0,0.4,0.2,0.7,0.4,0.9c0,0.5-0.8,2.4,0.3,2.1c0.2,0.2,0.1,0.6,0,0.9C16.6,91.2,17.6,88.1,18,87
						L18,87z"/>
					<path class="st3" d="M19.2,86.3c1.5,0.4,0.6,4.2-0.5,4.6c0.1-0.3,0.1-0.7,0-0.9c0.4-0.3,1.3-3.3,0.1-2.9
						c-0.2-0.2-0.1-0.6,0-0.9C18.9,86.2,19.1,86.2,19.2,86.3L19.2,86.3z"/>
					<path class="st4" d="M19.8,83.5c0.2,0,0.3,0.1,0.4,0.2c-0.1,0.3-0.1,0.7-0.4,0.8c-0.9-1.1-1.8,3.4-0.6,2.8
						c0.2,0.2,0.1,0.6,0,0.9C17,88.8,18.1,83.1,19.8,83.5z M20.6,84.7c0,0.7-0.3,2.1-0.6,2.8c0-0.4-0.2-0.7-0.4-0.9l0.2-1.1
						C20.1,85.3,20.4,85,20.6,84.7z"/>
					<path class="st3" d="M19.1,81.5c0,0.4,0.2,0.7,0.4,0.9c0,0.5-0.8,2.4,0.3,2.1c0.2,0.2,0.1,0.6,0,0.9
						C17.8,85.7,18.8,82.5,19.1,81.5z"/>
					<path class="st3" d="M20.4,80.7c1.5,0.4,0.6,4.2-0.5,4.6c0.1-0.3,0.1-0.7,0-0.9c0.4-0.3,1.3-3.3,0.1-2.9
						c-0.2-0.2-0.1-0.6,0-0.9C20.1,80.7,20.2,80.7,20.4,80.7L20.4,80.7z"/>
					<path class="st4" d="M21,78c0.2,0,0.3,0.1,0.4,0.2c-0.1,0.3-0.1,0.7-0.4,0.8c-0.9-1.1-1.8,3.4-0.6,2.8c0.2,0.2,0.1,0.6,0,0.9
						C18.2,83.2,19.2,77.6,21,78z M21.8,79.2c0,0.7-0.3,2.1-0.6,2.8c0-0.4-0.2-0.7-0.4-0.9L21,80C21.3,79.7,21.6,79.5,21.8,79.2z"/>
					<path class="st3" d="M20.3,76c0,0.4,0.2,0.7,0.4,0.9c0,0.5-0.8,2.4,0.3,2.1c0.2,0.2,0.1,0.6,0,0.9C18.9,80.2,19.9,77,20.3,76z"
						/>
					<path class="st3" d="M21.5,75.2c1.5,0.4,0.6,4.2-0.5,4.6c0.1-0.3,0.1-0.7,0-0.9c0.4-0.3,1.3-3.3,0.1-2.9
						c-0.2-0.2-0.1-0.6,0-0.9C21.2,75.2,21.4,75.2,21.5,75.2L21.5,75.2z"/>
					<path class="st4" d="M22.1,72.5c0.2,0,0.3,0.1,0.4,0.2c-0.1,0.3-0.1,0.7-0.4,0.8c-0.9-1.1-1.8,3.4-0.6,2.8
						c0.2,0.2,0.1,0.6,0,0.9C19.3,77.7,20.4,72,22.1,72.5z M22.9,73.6c0,0.7-0.3,2.1-0.6,2.8c0-0.4-0.2-0.7-0.4-0.9l0.2-1.1
						C22.5,74.2,22.7,74,22.9,73.6L22.9,73.6z"/>
					<path class="st3" d="M22.7,69.7c1.7,0.3,0.5,5.9-1.4,4.4c0.1-0.3,0.1-0.7,0.4-0.8c1,0.8,1-1.7,1.2-2.1c0.2-0.8-0.8-1-0.9-0.2
						l-0.3,1.4c-0.3,0.1-0.6,0.4-0.8,0.7C21,72.1,21.2,69.5,22.7,69.7z"/>
				</g>
				<path class="st4" d="M7,144.2c1.4,0.4,0.6,2.5,0.4,3.5c-0.4,1.9-2.6,1.4-2.2-0.5c0.1-0.4,0.4-1.9,0.5-2.2c0,0.4,0.2,0.7,0.4,0.9
					l-0.3,1.4c-0.2,0.8,0.8,1,0.9,0.2c0-0.5,1-2.8-0.2-2.4c-0.2-0.2-0.1-0.6,0-0.9C6.7,144.2,6.8,144.2,7,144.2L7,144.2z"/>
			</g>
			<path class="st5" d="M7.7,150.6L7,151l-2.7-2.3l-0.2-1C5.9,146.3,7.7,148.9,7.7,150.6L7.7,150.6z"/>
			<path class="st6" d="M7,151l-3.4-2c0.2-1.6,0.8-1.8,2.1-0.8C6.6,148.7,6.9,150,7,151z"/>
		</g>
		<g>
			<polygon class="st0" points="131.4,88.8 146.5,80.1 135.3,73.7 120.3,82.4 			"/>
			<g>
				<polygon class="st17" points="133.6,86.2 127.4,82.5 127.3,77 133.6,80.7 				"/>
				<g>
					<g>
						<g>
							<defs>
								<path id="SVGID_00000137838382978292542400000001055470005374561692_" d="M138.8,71.6l-6.1-3.5c1.4-1.1,2.6-2.4,3.4-3.7
									l6.1,3.5C141.4,69.2,140.3,70.4,138.8,71.6z"/>
							</defs>
							<clipPath id="SVGID_00000144322949866584592750000018231921626259065527_">
								<use xlink:href="#SVGID_00000137838382978292542400000001055470005374561692_"  style="overflow:visible;"/>
							</clipPath>
							<g style="clip-path:url(#SVGID_00000144322949866584592750000018231921626259065527_);">
								<g>
									<path class="st17" d="M138.8,71.6l-6.1-3.5c1.4-1.1,2.6-2.4,3.4-3.7l6.1,3.5C141.4,69.2,140.3,70.4,138.8,71.6L138.8,71.6z
										"/>
								</g>
							</g>
						</g>
					</g>
				</g>
				<g>
					<g>
						<g>
							<defs>
								<path id="SVGID_00000099653377584434286550000017338780249839628714_" d="M136.1,57c4.7,2.7,9.9,4.1,6.1,10.8l-6.1-3.5
									C137.4,62.4,138.2,58.3,136.1,57z"/>
							</defs>
							<clipPath id="SVGID_00000112604174626112629370000013848594889168344218_">
								<use xlink:href="#SVGID_00000099653377584434286550000017338780249839628714_"  style="overflow:visible;"/>
							</clipPath>
							<g style="clip-path:url(#SVGID_00000112604174626112629370000013848594889168344218_);">
								<g>
									<path class="st17" d="M142.2,67.8l-6.1-3.5c1.2-1.9,2-6,0-7.3C140.8,59.8,146,61.2,142.2,67.8L142.2,67.8z"/>
								</g>
							</g>
						</g>
					</g>
				</g>
				<g>
					<g>
						<g>
							<defs>
								<path id="SVGID_00000142170552151950096550000009538332424573407423_" d="M130.2,74.4l-6.3-3.7c0.9,0.5,2.1,0.6,3.4,0.2
									l6.3,3.7C132.2,75,131.1,75,130.2,74.4L130.2,74.4z"/>
							</defs>
							<clipPath id="SVGID_00000077298586766002102870000015823281190230868664_">
								<use xlink:href="#SVGID_00000142170552151950096550000009538332424573407423_"  style="overflow:visible;"/>
							</clipPath>
							<g style="clip-path:url(#SVGID_00000077298586766002102870000015823281190230868664_);">
								<g>
									<path class="st21" d="M130.2,74.4l-6.3-3.7c0.9,0.5,2.1,0.6,3.4,0.2l6.3,3.7C132.2,75,131.1,75,130.2,74.4L130.2,74.4z"/>
								</g>
							</g>
						</g>
					</g>
				</g>
				<g>
					<g>
						<g>
							<defs>
								<path id="SVGID_00000093899167550676278080000005194584283640364931_" d="M140,49.8l6.3,3.7c-2.2-1.3-5-0.9-7.5-0.6
									l-6.3-3.7C135,49,137.8,48.6,140,49.8z"/>
							</defs>
							<clipPath id="SVGID_00000103223791977756892370000010700284207288658593_">
								<use xlink:href="#SVGID_00000093899167550676278080000005194584283640364931_"  style="overflow:visible;"/>
							</clipPath>
							<g style="clip-path:url(#SVGID_00000103223791977756892370000010700284207288658593_);">
								<g>
									<path class="st21" d="M138.8,52.8l-6.3-3.7c4.8-1.4,9.9,1.9,13.8,4.3C144.1,52.2,141.3,52.6,138.8,52.8L138.8,52.8z"/>
								</g>
							</g>
						</g>
					</g>
				</g>
				<polygon class="st17" points="133.6,74.6 127.3,70.9 127.3,56.8 133.6,60.4 				"/>
				<g>
					<g>
						<g>
							<defs>
								<path id="SVGID_00000093889666847717182800000014346132094837385344_" d="M125.9,81.1c-4-2.5-9.6-4.1-9.7-10.3l6.3,3.7
									C122.9,77.7,124,79.9,125.9,81.1z"/>
							</defs>
							<clipPath id="SVGID_00000183207295905228070430000007304095868872844442_">
								<use xlink:href="#SVGID_00000093889666847717182800000014346132094837385344_"  style="overflow:visible;"/>
							</clipPath>
							<g style="clip-path:url(#SVGID_00000183207295905228070430000007304095868872844442_);">
								<g>
									<path class="st21" d="M125.9,81.1c-4-2.5-9.6-4.1-9.7-10.3l6.3,3.7C122.9,77.7,124,79.9,125.9,81.1z"/>
								</g>
							</g>
						</g>
					</g>
				</g>
				<polygon class="st24" points="122.5,74.5 116.3,70.8 121.7,66.8 127.9,70.4 				"/>
				<g>
					<g>
						<g>
							<defs>
								<path id="SVGID_00000159456624541838066400000001594386027082636196_" d="M135,37.4c2.6,1.9,8.2,3.2,8.2,7.5l-6.3-3.7
									C136.7,39.3,136,38,135,37.4z"/>
							</defs>
							<clipPath id="SVGID_00000007411262700322278930000009607162332227857284_">
								<use xlink:href="#SVGID_00000159456624541838066400000001594386027082636196_"  style="overflow:visible;"/>
							</clipPath>
							<g style="clip-path:url(#SVGID_00000007411262700322278930000009607162332227857284_);">
								<g>
									<path class="st17" d="M143.2,44.9l-6.3-3.7c-0.3-2-0.9-3.3-1.9-3.9C137.6,39.3,143.2,40.6,143.2,44.9L143.2,44.9z"/>
								</g>
							</g>
						</g>
					</g>
				</g>
				<g>
					<g>
						<g>
							<defs>
								<path id="SVGID_00000028318010723375867900000001973753999917500084_" d="M130.6,52.8l-6.3-3.7c0.8,0.4,1.7,0.6,3,0.6
									l6.3,3.7C132.3,53.5,131.4,53.3,130.6,52.8z"/>
							</defs>
							<clipPath id="SVGID_00000065753961319886241800000015717162544774651311_">
								<use xlink:href="#SVGID_00000028318010723375867900000001973753999917500084_"  style="overflow:visible;"/>
							</clipPath>
							<g style="clip-path:url(#SVGID_00000065753961319886241800000015717162544774651311_);">
								<g>
									<path class="st21" d="M130.6,52.8l-6.3-3.7c0.8,0.4,1.7,0.6,3,0.6l6.3,3.7C132.3,53.5,131.4,53.3,130.6,52.8L130.6,52.8z"
										/>
								</g>
							</g>
						</g>
					</g>
				</g>
				<g>
					<g>
						<g>
							<defs>
								<path id="SVGID_00000072966212943376127170000017948599233856750478_" d="M139.2,31l6.3,3.7c-2.1-1.1-4.3-0.9-6.8,0
									l-6.3-3.6C134.9,30.1,137.1,29.8,139.2,31z"/>
							</defs>
							<clipPath id="SVGID_00000144302599548215798880000001002986279672603286_">
								<use xlink:href="#SVGID_00000072966212943376127170000017948599233856750478_"  style="overflow:visible;"/>
							</clipPath>
							<g style="clip-path:url(#SVGID_00000144302599548215798880000001002986279672603286_);">
								<g>
									<path class="st21" d="M138.7,34.6l-6.3-3.6c4.6-2.5,9.3,1.6,13,3.7C143.4,33.5,141.2,33.7,138.7,34.6L138.7,34.6z"/>
								</g>
							</g>
						</g>
					</g>
				</g>
				<polygon class="st17" points="133.5,53.4 127.3,49.8 127.2,39.9 133.5,43.5 				"/>
				<g>
					<g>
						<g>
							<defs>
								<path id="SVGID_00000161617949612242478860000014605233226129041068_" d="M126.4,59.9l-6.3-3.7c-7-6.3,0.5-17.9,7.1-22.4
									l6.3,3.7C126.9,42,119.4,53.6,126.4,59.9z"/>
							</defs>
							<clipPath id="SVGID_00000109019995081932411240000004672789686351439037_">
								<use xlink:href="#SVGID_00000161617949612242478860000014605233226129041068_"  style="overflow:visible;"/>
							</clipPath>
							<g style="clip-path:url(#SVGID_00000109019995081932411240000004672789686351439037_);">
								<g>
									<path class="st21" d="M126.4,59.9l-6.3-3.7c-7-6.3,0.5-17.9,7.1-22.4l6.3,3.7C126.9,42,119.4,53.6,126.4,59.9L126.4,59.9z"
										/>
								</g>
							</g>
						</g>
					</g>
				</g>
				<polygon class="st17" points="133.5,37.5 127.2,33.8 127.2,28.3 133.5,32 				"/>
				<polygon class="st24" points="133.5,32 127.2,28.3 132.4,25.3 138.7,29 				"/>
				<path class="st29" d="M148.3,55.6c3.4,7.9-2.9,17.4-9.5,22.1v5.5l-5.2,3v-5.5c-6.2,2.8-10.5,0.5-11.1-6.2l5.4-4.1
					c0.7,3.7,2.6,5.1,5.7,4.2V60.4c-16.2,3.1-9.4-18-0.1-23v-5.5l5.2-3v5.6c5.1-2.4,10,0.9,9.9,6.5l-5.4,3.9
					c-0.4-3.3-1.9-4.7-4.5-4.2v12.1C142.2,52.4,146.4,52.1,148.3,55.6L148.3,55.6z M142.2,67.8c2.2-3.4,1.7-8.7-3.4-8v11.7
					C140.3,70.5,141.4,69.2,142.2,67.8L142.2,67.8L142.2,67.8z M133.5,53.4v-9.9C129.7,45.9,126.9,53.9,133.5,53.4L133.5,53.4z"/>
				<path class="st24" d="M134.9,80.1c-5.1,2.8-10.6,1.7-11-5l4.3-3.3c0.9,3.7,3.6,4.7,6.7,3.6V60.1c-16.6,3.5-9.1-17-0.1-22v-5.5
					l4-2.3v5.4c4.6-2.5,9.9-0.3,9.9,5.2l-4.4,3.1c-1.1-3.9-3-4.1-5.5-3.6v13.3c17.8-3.6,9.4,18.6,0.1,23.8v5.4l-4,2.3V80.1
					L134.9,80.1z M139.4,59.6h-0.6v13.6C144.1,70.5,148.5,59.2,139.4,59.6z M133.8,43.4c-4.7,2.9-6.6,12,1,11V42.6L133.8,43.4
					L133.8,43.4z"/>
			</g>
		</g>
		<g>
			<g>
				<path class="st3" d="M115.1,79.5c0,0.4,0.2,0.7,0.4,0.9c0,0.5-0.8,2.4,0.3,2.1c0.2,0.2,0.1,0.6,0,0.9
					C113.7,83.8,114.7,80.6,115.1,79.5L115.1,79.5z"/>
				<g>
					<path class="st4" d="M116.9,76c0.2,0,0.3,0.1,0.4,0.2c-0.1,0.3-0.1,0.7-0.4,0.8c-0.9-1.1-1.8,3.4-0.6,2.8
						c0.2,0.2,0.1,0.6,0,0.9C114.1,81.3,115.2,75.6,116.9,76z M117.7,77.2c0,0.7-0.3,2.1-0.6,2.8c0-0.4-0.2-0.7-0.4-0.9l0.2-1.1
						C117.3,77.8,117.6,77.5,117.7,77.2z"/>
					<path class="st3" d="M116.3,78.8c1.5,0.4,0.6,4.2-0.5,4.6c0.1-0.3,0.1-0.7,0-0.9c0.4-0.3,1.3-3.3,0.1-2.9
						c-0.2-0.2-0.1-0.6,0-0.9C116.1,78.7,116.2,78.7,116.3,78.8L116.3,78.8z"/>
					<path class="st3" d="M116.3,74c0,0.4,0.2,0.7,0.4,0.9c0,0.5-0.8,2.4,0.3,2.1c0.2,0.2,0.1,0.6,0,0.9
						C114.9,78.2,115.9,75.1,116.3,74L116.3,74z"/>
					<path class="st3" d="M117.5,73.2c1.5,0.4,0.6,4.2-0.5,4.6c0.1-0.3,0.1-0.7,0-0.9c0.4-0.3,1.3-3.3,0.1-2.9
						c-0.2-0.2-0.1-0.6,0-0.9C117.2,73.2,117.4,73.2,117.5,73.2L117.5,73.2z"/>
					<path class="st4" d="M118.1,70.5c0.2,0,0.3,0.1,0.4,0.2c-0.1,0.3-0.1,0.7-0.4,0.8c-0.9-1.1-1.8,3.4-0.6,2.8
						c0.2,0.2,0.1,0.6,0,0.9C115.3,75.7,116.4,70.1,118.1,70.5z M118.9,71.7c0,0.7-0.3,2.1-0.6,2.8c0-0.4-0.2-0.7-0.4-0.9l0.2-1.1
						C118.5,72.2,118.7,72,118.9,71.7z"/>
					<path class="st3" d="M117.4,68.5c0,0.4,0.2,0.7,0.4,0.9c0,0.5-0.8,2.4,0.3,2.1c0.2,0.2,0.1,0.6,0,0.9
						C116.1,72.7,117.1,69.6,117.4,68.5L117.4,68.5z"/>
					<path class="st3" d="M118.7,67.7c1.5,0.4,0.6,4.2-0.5,4.6c0.1-0.3,0.1-0.7,0-0.9c0.4-0.3,1.3-3.3,0.1-2.9
						c-0.2-0.2-0.1-0.6,0-0.9C118.4,67.7,118.5,67.7,118.7,67.7L118.7,67.7z"/>
					<path class="st4" d="M119.2,65c0.2,0,0.3,0.1,0.4,0.2c-0.1,0.3-0.1,0.7-0.4,0.8c-0.9-1.1-1.8,3.4-0.6,2.8
						c0.2,0.2,0.1,0.6,0,0.9C116.5,70.2,117.5,64.6,119.2,65z M120.1,66.1c0,0.7-0.3,2.1-0.6,2.8c0-0.4-0.2-0.7-0.4-0.9l0.2-1.1
						C119.6,66.7,119.9,66.5,120.1,66.1z"/>
					<path class="st3" d="M118.6,63c0,0.4,0.2,0.7,0.4,0.9c0,0.5-0.8,2.4,0.3,2.1c0.2,0.2,0.1,0.6,0,0.9
						C117.2,67.2,118.2,64,118.6,63L118.6,63z"/>
					<path class="st3" d="M119.8,62.2c1.5,0.4,0.6,4.2-0.5,4.6c0.1-0.3,0.1-0.7,0-0.9c0.4-0.3,1.3-3.3,0.1-2.9
						c-0.2-0.2-0.1-0.6,0-0.9C119.5,62.2,119.7,62.2,119.8,62.2L119.8,62.2z"/>
					<path class="st4" d="M120.4,59.5c0.2,0,0.3,0.1,0.4,0.2c-0.1,0.3-0.1,0.7-0.4,0.8c-0.9-1.1-1.8,3.4-0.6,2.8
						c0.2,0.2,0.1,0.6,0,0.9C117.6,64.7,118.7,59.1,120.4,59.5L120.4,59.5z M121.2,60.6c0,0.7-0.3,2.1-0.6,2.8c0-0.4-0.2-0.7-0.4-1
						l0.2-1.1C120.8,61.2,121.1,61,121.2,60.6z"/>
					<path class="st3" d="M119.8,57.4c0,0.4,0.2,0.7,0.4,0.9c0,0.5-0.8,2.4,0.3,2.1c0.2,0.2,0.1,0.6,0,0.9
						C118.4,61.7,119.4,58.5,119.8,57.4L119.8,57.4z"/>
					<path class="st3" d="M121,56.7c1.5,0.4,0.6,4.2-0.5,4.6c0.1-0.3,0.1-0.7,0-0.9c0.4-0.3,1.3-3.3,0.1-2.9c-0.2-0.2-0.1-0.6,0-0.9
						C120.7,56.7,120.9,56.7,121,56.7L121,56.7z"/>
					<path class="st4" d="M121.6,53.9c0.2,0,0.3,0.1,0.4,0.2c-0.1,0.3-0.1,0.7-0.4,0.8c-0.9-1.1-1.8,3.4-0.6,2.8
						c0.2,0.2,0.1,0.6,0,0.9C118.8,59.2,119.9,53.5,121.6,53.9L121.6,53.9z M122.4,55.1c0,0.7-0.3,2.1-0.6,2.8c0-0.4-0.2-0.7-0.4-1
						l0.2-1.1C122,55.7,122.2,55.4,122.4,55.1z"/>
					<path class="st3" d="M120.9,51.9c0,0.4,0.2,0.7,0.4,1c0,0.5-0.8,2.4,0.3,2.1c0.2,0.2,0.1,0.6,0,0.9
						C119.6,56.1,120.6,53,120.9,51.9L120.9,51.9z"/>
					<path class="st3" d="M122.2,51.2c1.5,0.4,0.6,4.2-0.5,4.6c0.1-0.3,0.1-0.7,0-0.9c0.4-0.3,1.3-3.3,0.1-2.9
						c-0.2-0.2-0.1-0.6,0-0.9C121.9,51.1,122,51.1,122.2,51.2L122.2,51.2z"/>
					<path class="st4" d="M122.8,48.4c0.2,0,0.3,0.1,0.4,0.2c-0.1,0.3-0.1,0.7-0.4,0.8c-0.9-1.1-1.8,3.4-0.6,2.8
						c0.2,0.2,0.1,0.6,0,0.9C120,53.7,121,48,122.8,48.4z M123.6,49.6c0,0.7-0.3,2.1-0.6,2.8c0-0.4-0.2-0.7-0.4-1l0.2-1.1
						C123.1,50.2,123.4,49.9,123.6,49.6z"/>
					<path class="st3" d="M122.1,46.4c0,0.4,0.2,0.7,0.4,1c0,0.5-0.8,2.4,0.3,2.1c0.2,0.2,0.1,0.6,0,0.9
						C120.7,50.6,121.7,47.5,122.1,46.4L122.1,46.4z"/>
					<path class="st3" d="M123.3,45.6c1.5,0.4,0.6,4.2-0.5,4.6c0.1-0.3,0.1-0.7,0-0.9c0.4-0.3,1.3-3.3,0.1-2.9
						c-0.2-0.2-0.1-0.6,0-0.9C123,45.6,123.2,45.6,123.3,45.6L123.3,45.6z"/>
					<path class="st4" d="M123.9,42.9c0.2,0,0.3,0.1,0.4,0.2c-0.1,0.3-0.1,0.7-0.4,0.8c-0.9-1.1-1.8,3.4-0.6,2.8
						c0.2,0.2,0.1,0.6,0,0.9C121.1,48.1,122.2,42.5,123.9,42.9z M124.7,44c0,0.7-0.3,2.1-0.6,2.8c0-0.4-0.2-0.7-0.4-1l0.2-1.1
						C124.3,44.6,124.6,44.4,124.7,44z"/>
					<path class="st3" d="M123.3,40.9c0,0.4,0.2,0.7,0.4,1c0,0.5-0.8,2.4,0.3,2.1c0.2,0.2,0.1,0.6,0,0.9
						C121.9,45.1,122.9,41.9,123.3,40.9L123.3,40.9z"/>
					<path class="st3" d="M124.5,40.1c1.5,0.4,0.6,4.2-0.5,4.6c0.1-0.3,0.1-0.7,0-0.9c0.4-0.3,1.3-3.3,0.1-2.9
						c-0.2-0.2-0.1-0.6,0-0.9C124.2,40.1,124.4,40.1,124.5,40.1L124.5,40.1z"/>
					<path class="st4" d="M125.1,37.4c0.2,0,0.3,0.1,0.4,0.2c-0.1,0.3-0.1,0.7-0.4,0.8c-0.9-1.1-1.8,3.4-0.6,2.8
						c0.2,0.2,0.1,0.6,0,0.9C122.3,42.6,123.4,36.9,125.1,37.4z M125.9,38.5c0,0.7-0.3,2.1-0.6,2.8c0-0.4-0.2-0.7-0.4-0.9l0.2-1.1
						C125.5,39.1,125.7,38.9,125.9,38.5z"/>
					<path class="st3" d="M124.4,35.3c0,0.4,0.2,0.7,0.4,1c0,0.5-0.8,2.4,0.3,2.1c0.2,0.2,0.1,0.6,0,0.9
						C123,39.6,124.1,36.4,124.4,35.3L124.4,35.3z"/>
					<path class="st3" d="M125.7,34.6c1.5,0.4,0.6,4.2-0.5,4.6c0.1-0.3,0.1-0.7,0-0.9c0.4-0.3,1.3-3.3,0.1-2.9
						c-0.2-0.2-0.1-0.6,0-0.9C125.4,34.6,125.5,34.6,125.7,34.6L125.7,34.6z"/>
					<path class="st4" d="M126.2,31.8c0.2,0,0.3,0.1,0.4,0.2c-0.1,0.3-0.1,0.7-0.4,0.8c-0.9-1.1-1.8,3.4-0.6,2.8
						c0.2,0.2,0.1,0.6,0,0.9C123.5,37.1,124.5,31.4,126.2,31.8z M127.1,33c0,0.7-0.3,2.1-0.6,2.8c0-0.4-0.2-0.7-0.4-0.9l0.2-1.1
						C126.6,33.6,126.9,33.4,127.1,33z"/>
					<path class="st3" d="M125.6,29.8c0,0.4,0.2,0.7,0.4,1c0,0.5-0.8,2.4,0.3,2.1c0.2,0.2,0.1,0.6,0,0.9
						C124.2,34.1,125.2,30.9,125.6,29.8L125.6,29.8z"/>
					<path class="st3" d="M126.8,29.1c1.5,0.4,0.6,4.2-0.5,4.6c0.1-0.3,0.1-0.7,0-0.9c0.4-0.3,1.3-3.3,0.1-2.9
						c-0.2-0.2-0.1-0.6,0-0.9C126.5,29.1,126.7,29,126.8,29.1L126.8,29.1z"/>
					<path class="st4" d="M127.4,26.3c0.2,0,0.3,0.1,0.4,0.2c-0.1,0.3-0.1,0.7-0.4,0.8c-0.9-1.1-1.8,3.4-0.6,2.8
						c0.2,0.2,0.1,0.6,0,0.9C124.6,31.6,125.7,25.9,127.4,26.3z M128.2,27.5c0,0.7-0.3,2.1-0.6,2.8c0-0.4-0.2-0.7-0.4-1l0.2-1.1
						C127.8,28.1,128,27.8,128.2,27.5z"/>
					<path class="st3" d="M126.8,24.3c0,0.4,0.2,0.7,0.4,1c0,0.5-0.8,2.4,0.3,2.1c0.2,0.2,0.1,0.6,0,0.9
						C125.4,28.5,126.4,25.4,126.8,24.3z"/>
					<path class="st3" d="M128,23.5c1.5,0.4,0.6,4.2-0.5,4.6c0.1-0.3,0.1-0.7,0-0.9c0.4-0.3,1.3-3.3,0.1-2.9c-0.2-0.2-0.1-0.6,0-0.9
						C127.7,23.5,127.9,23.5,128,23.5L128,23.5z"/>
					<path class="st4" d="M128.6,20.8c0.2,0,0.3,0.1,0.4,0.2c-0.1,0.3-0.1,0.7-0.4,0.8c-0.9-1.1-1.8,3.4-0.6,2.8
						c0.2,0.2,0.1,0.6,0,0.9C125.8,26,126.8,20.4,128.6,20.8z M129.4,22c0,0.7-0.3,2.1-0.6,2.8c0-0.4-0.2-0.7-0.4-1l0.2-1.1
						C128.9,22.5,129.2,22.3,129.4,22L129.4,22z"/>
					<path class="st3" d="M127.9,18.8c0,0.4,0.2,0.7,0.4,1c0,0.5-0.8,2.4,0.3,2.1c0.2,0.2,0.1,0.6,0,0.9
						C126.5,23,127.6,19.8,127.9,18.8z"/>
					<path class="st3" d="M129.1,18c1.5,0.4,0.6,4.2-0.5,4.6c0.1-0.3,0.1-0.7,0-0.9c0.4-0.3,1.3-3.3,0.1-2.9c-0.2-0.2-0.1-0.6,0-0.9
						C128.9,18,129,18,129.1,18L129.1,18z"/>
					<path class="st4" d="M129.7,15.3c0.2,0,0.3,0.1,0.4,0.2c-0.1,0.3-0.1,0.7-0.4,0.8c-0.9-1.1-1.8,3.4-0.6,2.8
						c0.2,0.2,0.1,0.6,0,0.9C126.9,20.5,128,14.9,129.7,15.3z M130.6,16.4c0,0.7-0.3,2.1-0.6,2.8c0-0.4-0.2-0.7-0.4-1l0.2-1.1
						C130.1,17,130.4,16.8,130.6,16.4L130.6,16.4z"/>
					<path class="st3" d="M129.1,13.2c0,0.4,0.2,0.7,0.4,0.9c0,0.5-0.8,2.4,0.3,2.1c0.2,0.2,0.1,0.6,0,0.9
						C127.7,17.5,128.7,14.3,129.1,13.2L129.1,13.2z"/>
					<path class="st3" d="M130.3,12.5c1.5,0.4,0.6,4.2-0.5,4.6c0.1-0.3,0.1-0.7,0-0.9c0.4-0.3,1.3-3.3,0.1-2.9
						c-0.2-0.2-0.1-0.6,0-0.9C130,12.5,130.2,12.5,130.3,12.5L130.3,12.5z"/>
					<path class="st4" d="M130.9,9.8c0.2,0,0.3,0.1,0.4,0.2c-0.1,0.3-0.1,0.7-0.4,0.8c-0.9-1.1-1.8,3.4-0.6,2.8
						c0.2,0.2,0.1,0.6,0,0.9C128.1,15,129.2,9.4,130.9,9.8L130.9,9.8z M131.7,10.9c0,0.7-0.3,2.1-0.6,2.8c0-0.4-0.2-0.7-0.4-0.9
						l0.2-1.1C131.3,11.5,131.5,11.3,131.7,10.9L131.7,10.9z"/>
					<path class="st3" d="M131.5,7c1.7,0.3,0.5,5.9-1.4,4.4c0.1-0.3,0.1-0.7,0.4-0.8c1,0.8,1-1.7,1.2-2.1c0.2-0.8-0.8-1-0.9-0.2
						l-0.3,1.4c-0.3,0.1-0.6,0.4-0.8,0.7C129.8,9.4,130,6.7,131.5,7z"/>
				</g>
				<path class="st4" d="M115.8,81.5c1.4,0.4,0.6,2.5,0.4,3.5c-0.4,1.9-2.6,1.4-2.2-0.5c0.1-0.4,0.4-1.9,0.5-2.2
					c0,0.4,0.2,0.7,0.4,0.9c0,0.5-0.7,2,0,2.1c0.7,0.3,1.5-3.5,0.4-2.9c-0.2-0.2-0.1-0.6,0-0.9C115.5,81.5,115.6,81.5,115.8,81.5
					L115.8,81.5z"/>
			</g>
			<path class="st5" d="M116.5,87.9l-0.7,0.4l-2.7-2.3l-0.2-1C114.7,83.6,116.5,86.2,116.5,87.9L116.5,87.9z"/>
			<path class="st6" d="M115.8,88.3l-3.4-2c0.2-1.6,0.8-1.8,2.1-0.8C115.4,86,115.7,87.3,115.8,88.3z"/>
		</g>
	</g>
</g>
</svg>
