<?xml version="1.0" encoding="UTF-8"?>
<svg xmlns="http://www.w3.org/2000/svg" viewBox="0 0 145.17 138.44">
  <defs>
    <style>
      .cls-1 {
        fill: #efd25a;
      }

      .cls-2 {
        fill: #ebb7a4;
      }

      .cls-3 {
        fill: #e9ae51;
      }

      .cls-4 {
        fill: #eec4ba;
      }

      .cls-5 {
        fill: #fff;
      }

      .cls-6 {
        fill: #efc6b5;
      }

      .cls-7 {
        fill: #e5e7ed;
      }

      .cls-8 {
        fill: #edcc50;
      }

      .cls-9 {
        fill: #f0da77;
      }

      .cls-10 {
        fill: #927453;
      }

      .cls-11 {
        fill: #7f6243;
      }

      .cls-12 {
        fill: #333949;
      }

      .cls-13 {
        fill: #cdad87;
      }

      .cls-14 {
        fill: #cee6f2;
      }

      .cls-15 {
        fill: #d96a62;
      }

      .cls-16 {
        fill: #d8a59f;
      }

      .cls-17 {
        fill: #bc9870;
      }

      .cls-18 {
        fill: #c18579;
      }

      .cls-19 {
        fill: #c9544d;
      }

      .cls-20 {
        fill: #d45c40;
      }

      .cls-21 {
        fill: #c5a688;
      }

      .cls-22 {
        fill: #d9b38a;
      }

      .cls-23 {
        fill: #acafb8;
      }

      .cls-24 {
        fill: #e1c8ac;
      }

      .cls-25 {
        fill: #dfdfdf;
      }

      .cls-26 {
        fill: #242323;
      }

      .cls-27 {
        fill: #21262e;
      }

      .cls-28 {
        fill: #44353e;
      }

      .cls-29 {
        fill: #362831;
      }

      .cls-30 {
        fill: #a38260;
      }

      .cls-31 {
        fill: #291c1a;
      }

      .cls-32 {
        fill: #505663;
      }

      .cls-33 {
        fill: #51493f;
        mix-blend-mode: screen;
      }

      .cls-34 {
        opacity: .5;
      }

      .cls-35 {
        isolation: isolate;
      }

      .cls-36 {
        fill: #f5e6a3;
        opacity: .7;
      }
    </style>
  </defs>
  <g class="cls-35">
    <g id="_レイヤー_2" data-name="レイヤー 2">
      <g id="_01" data-name="01">
        <g>
          <ellipse class="cls-14" cx="76.69" cy="98.61" rx="68.48" ry="39.82"/>
          <g>
            <g>
              <path class="cls-7" d="m62.93,104.33s1.24.63,1.89,1.83c1.9,3.51-.57,4.62-1.48,4.99-.92.38-1.73,3.24-3.19,4.75-1.46,1.51-.16.4-1.32.96s-4.16,1.1-4.7-.25c-.54-1.35.32-2.59,1.13-3.34.81-.76.75,0,1.59-1.02.84-1.02,1.39-4.69,1.39-4.69l4.69-3.24Z"/>
              <path class="cls-23" d="m62.6,103.85s1.46.54,1.89,1.83c.43,1.29-.97,3.18-1.89,3.56-.92.38-1.68,4.64-3.14,6.15-1.46,1.51-.76.68-1.92,1.23-1.16.56-3.01,1-3.54-.35-.54-1.35.12-2.73.93-3.48.81-.75.75,0,1.59-1.02.84-1.02,1.39-4.69,1.39-4.69l4.69-3.24Z"/>
              <path class="cls-7" d="m61.36,93.93s.61-2.01,2.73-2.69c1.05-.33,2.56.52,3.16,2.3.59,1.78.47,3.9,1.28,4.65.81.75,1.07,2.44.93,3.24-.27,1.51-2.12,3.58-3.52,3.15-1.4-.43-1.29-2.88-2-3.8-.7-.92-1.41-1.33-1.41-1.33,0,0,.32-4.66-1.17-5.52Z"/>
              <path class="cls-27" d="m36.23,79.05s1.35,4.64,4.75,7.44c3.4,2.8,8.84,6.74,9.33,7.44.49.7,7.28,10.57,7.28,11.81s-.22,2.16,0,2.16,1.89.43,3.5-1.02c1.62-1.46,2.53-3.94,2.53-3.94l.5-1.64s-3.79-8.44-5.51-9.85c-1.73-1.4-2.32-2.16-3.18-2.97-.86-.81-7.39-14.67-7.39-14.67l-11.81,5.23Z"/>
              <path class="cls-23" d="m61.09,94.63s.65-2.1,1.73-2.32c1.08-.22,2.43.54,3.02,2.32.59,1.78,1.24,3.29,2.05,4.04.81.75,1.07,2.44.93,3.24-.27,1.51-1.85,3.02-3.25,2.59-1.4-.43-1.56-2.32-2.26-3.24-.7-.92-1.41-1.33-1.41-1.33,0,0,.7-4.44-.8-5.3Z"/>
              <path class="cls-12" d="m41.46,100.51s3.13-2.86,7.23-3.72c4.1-.86,8.3-.65,9.81-1.08s2.86-1.78,2.86-1.78c0,0,2.32,1.56,2.69,3.56.38,1.99-1.02,4.42-1.02,4.42,0,0-16.93,4.85-17.63,5.07-.7.22-2.62,2.09-5.1,1.6-2.48-.49-4.23-2.09-4.39-2.41-.16-.32-.54-5.07.22-5.5.76-.43,5.34-.16,5.34-.16Z"/>
              <path class="cls-32" d="m40.76,79.96s-3.07,10.68-3.67,14.18c-.59,3.5-2.58,9.06-1.42,11.59,1.16,2.53,3.74,3.31,5.09,2.92,1.35-.39,5.82-6.91,7.44-11.01,1.62-4.1,5.39-15.69,5.39-15.69,0,0,3.72-6.25,1.56-8.79-2.16-2.53-4.37-3.45-4.37-3.45,0,0-.97,4.8-2.64,6.69-1.67,1.89-7.39,3.56-7.39,3.56Z"/>
              <path class="cls-12" d="m36.36,79.05c-.09,0-.13,0-.13,0,0,0-.42-.43-.97-1.05.4.39.78.75,1.1,1.05Z"/>
              <path class="cls-12" d="m41.56,53.93c-.61-.36-1.23-.69-1.85-.97.63.17,1.25.53,1.85.97Z"/>
              <path class="cls-27" d="m13.51,78.11s-.89.46-1.05.46-.89.75-.62,1.75c.27,1,4.76,2.65,5.26,2.26.5-.39,1.29-4.1-.57-4.64-1.86-.54-3.02.16-3.02.16Z"/>
              <path class="cls-27" d="m26.1,51.3s-4.33-.09-4.45,6.07c-.06,2.97-1.51,10.16-1.51,10.16,0,0-.35.52,0,.92.35.4.51.67.51.67,0,0-.89-.62-1.11-.32-.22.3,0,.81,0,.81,0,0-2.26,1.78-2.56,3.13-.3,1.35-4.53,5.82-4.53,5.82,0,0,2.32-.38,3.64,1.51,1.32,1.89,1.11,2.4,1.11,2.4,0,0,4.56-3.15,6.39-5.74,1.83-2.59,3.53-8.17,4.26-10.22.73-2.05.05-14.59-1.75-15.21Z"/>
              <path class="cls-12" d="m35.18,77.91c-.55-.52-1.13-1.1-1.72-1.67.01-.09.06-.19.09-.29.52.66,1.13,1.38,1.63,1.96Z"/>
              <path class="cls-12" d="m54.98,79.05c-1.33,1.4-11.41,4.69-11.41,4.69,0,0-4.95-2.8-6.53-4.1-.17-.14-.41-.34-.68-.59-.32-.3-.69-.66-1.1-1.05-.03-.01-.06-.04-.09-.09-.5-.58-1.11-1.3-1.63-1.96-.03.1-.07.2-.09.29-.13.45-.14.83.02,1.04-.58-.56-8.82-9.76-9.97-11.84-1.24-2.24-.87-11.31-.87-11.31l3.94-.52.1.85s.01.04.04.12c1.47-.33,3.55-.76,5.63-1.13-.87-1.41-2.13-2.63-2.13-2.63,0,0,4.7.06,9.26,2.06.07.03.14.06.23.09.62.27,1.24.6,1.85.97,2.02,1.21,3.81,2.86,4.98,5.12,1.23,2.38,3.72,6.07,5.29,7,1.56.91,4.85,4.02,4.85,4.02,0,0,1.46,5.68-1.69,8.97Z"/>
              <path class="cls-16" d="m12.99,79.83s-.3.03-.73.09c-.98.13-2.62.41-2.77.74-.22.49-.22.92-.22,1s-.84.08-.84.81v.73s-.16.49,0,.76c.16.27.32.59.32.59,0,0-.03.67.24,1.02.27.35.89.71.97.76.08.05,1.05.05,1.56-.19.51-.24,1.02-.92.92-1.13l-.11-.22s.24-.08.24-.32-.13-.7-.13-.7c0,0-.16-.05,1.05-.35s2.05-2.1,2.05-2.1c0,0-.12-1.87-2.56-1.48Z"/>
              <path class="cls-4" d="m13.18,80.19s-.88.05-1.12.48c-.23.43-.36,1.18-.96,1.19-.6,0-1.35.49-.97,1,.37.51,1.8.27,2.13-.21.33-.48-.16-.11.92-.17,1.08-.05,2.48-1.29,2.23-1.69-.25-.4-.69-1.21-2.23-.59Z"/>
              <path class="cls-18" d="m30.65,49.81l-.55,1.22s-1.14.66-3.19,1.64c-2.05.97,1.35,4.85,1.35,4.85l3.34.32s4.28-4.06-.95-8.02Z"/>
              <path class="cls-27" d="m31.54,82.8s-.89.46-1.05.46-.89.75-.62,1.75c.27,1,4.76,2.65,5.26,2.26.5-.39,1.29-4.1-.57-4.64-1.86-.54-3.02.16-3.02.16Z"/>
              <path class="cls-32" d="m44.13,56s-4.33-.09-4.45,6.07c-.06,2.97-1.51,10.16-1.51,10.16,0,0-.35.52,0,.92.35.4.51.67.51.67,0,0-.89-.62-1.11-.32-.22.3,0,.81,0,.81,0,0-2.26,1.78-2.56,3.13-.3,1.35-4.53,5.82-4.53,5.82,0,0,2.32-.38,3.64,1.51,1.32,1.89,1.11,2.4,1.11,2.4,0,0,4.56-3.15,6.39-5.74,1.83-2.59,3.53-8.17,4.26-10.22.73-2.05.05-14.59-1.75-15.21Z"/>
              <path class="cls-16" d="m33.25,87.96s-.14.27-.36.65c-.49.86-1.36,2.27-1.73,2.29-.53.02-.93-.15-1.01-.18s-.39.74-1.06.47l-.67-.27s-.51-.03-.7-.28c-.19-.25-.43-.52-.43-.52,0,0-.63-.23-.86-.61-.22-.38-.32-1.09-.33-1.18-.01-.09.35-.99.76-1.38.42-.38,1.23-.6,1.39-.42l.16.18s.17-.19.39-.1.6.39.6.39c0,0-.01.17.72-.84s2.72-1.11,2.72-1.11c0,0,1.69.81.41,2.93Z"/>
            </g>
            <g>
              <path class="cls-26" d="m35.11,53.87c1.53-4.1-.22-8.17-.82-9.58-.6-1.41-3.21-3.32-4.63-3.69-1.42-.36-6.51.25-6.76,4.38-.16,2.75,7.05,4.66,9.63,7.54,1.3,1.44-1.08,5.27-1.08,5.27,0,0,3.19-2.68,3.65-3.92Z"/>
              <path class="cls-4" d="m33.1,44.29c.21.18.86.5,1.14,1.59.28,1.08.35,2.22-.04,2.79-.39.56-.16,1.05-.26,2.01-.1.96-.65,2.09-.75,2.65-.11.57-.09,2.01-.44,2.33-.35.32-1.86.97-2.83.78s-2.74-1.74-3.53-2.87c-.79-1.13-1-2.34-1-2.34,0,0-.3.34-.85-.16-.55-.5-1-1.71-.85-2.22.14-.51,1-.82,1.1-.86.11-.04.52.87.52.87,0,0,.59,1.27,1.06.92s0-2.25.62-2.97c.61-.72,1.65-.87,2.4-1.17.75-.3,2.3-2.61,3.73-1.36Z"/>
              <path class="cls-20" d="m32.18,42.1s2.11,1.82.61,4.38c-1.5,2.55-4.5,2.55-5.35,3.36-.85.81-.93,1.3-.93,1.3,0,0-1.7-.12-1.7-2.71s7.37-6.32,7.37-6.32Z"/>
            </g>
            <path class="cls-26" d="m34.75,45.62s-2.12-2.57-3.88-.86c-2.39,2.33-3.74,10.1-3.16,11.58.59,1.49,3.83,1.44,3.83,1.44,0,0-2.22,1.04-5.63-.54-3.7-1.71-3.25-3.56-3.25-3.56,0,0-3.98-9.01,2.43-12.22,7.84-3.92,9.65,4.15,9.65,4.15Z"/>
          </g>
          <g>
            <g>
              <g>
                <path class="cls-19" d="m130.7,102.41l-21.11,12.22s-15.66-.45-32.95-12.7c-23.32-16.52-43.94-64.02-43.94-64.02l1.87-1.81,19.23-10.41s24.03,51.38,43.86,63.98c16.74,10.63,33.03,12.75,33.03,12.75Z"/>
                <polygon class="cls-19" points="131.81 100.33 104.72 115.39 104.72 117.24 137.01 107.47 137.01 105.62 131.81 100.33"/>
              </g>
              <g>
                <path class="cls-15" d="m132.31,100.75l-21.11,12.22s-15.66-.45-32.95-12.7c-23.32-16.52-43.94-64.02-43.94-64.02l21.11-12.22s24.03,51.38,43.86,63.98c16.74,10.63,33.03,12.75,33.03,12.75Z"/>
                <polygon class="cls-15" points="131.81 98.48 104.72 115.39 137.01 105.62 131.81 98.48"/>
              </g>
            </g>
            <g>
              <path class="cls-31" d="m83.44,56.24s.61.62,1.16,1.39c.54.77,1.74,1.3,1.74,1.3,0,0,.56.19,1.21-.36.61-.52.85-1.13.85-1.13,0,0,1.2-.03,2.38-.37,1.18-.35,2.99-1.74,3.29-2.27.49-.85.22-1.73-.21-1.98-.43-.24-2.2-.19-3.24.18-.68.24-2.55.53-3.16.58-1.01.08-1.97-.03-1.97-.03l-2.04,2.69Z"/>
              <path class="cls-31" d="m79.03,45.07c-2.49-2.77-1.85-3.19-4.53-5.3-1.32-1.04-4.7-2.95-11.7-6.94-3.64-2.07-4.79-1.73-7.64-2.33-.29-.06-1.21,4.56-1.61,6.68-.04.19,2.39,4.24,5.54,5.8,1.21.6,10.91,2.75,13.13,2.61.57,5.2,3.79,6.59,11.65,11.38,1.59.05,2.57-1.38,2.85-3.36-1.47-1.17-6.02-6.69-7.69-8.55Z"/>
              <path class="cls-31" d="m63.87,69.64s.23.84.32,1.78c.09.94.88,1.98.88,1.98,0,0,.39.44,1.23.28.78-.15,1.3-.56,1.3-.56,0,0,1.06.57,2.26.85,1.2.28,3.46-.05,3.98-.36.84-.5,1.04-1.4.79-1.83-.25-.42-1.83-1.25-2.92-1.43-.71-.12-2.48-.79-3.03-1.05-.92-.43-1.7-.99-1.7-.99l-3.1,1.33Z"/>
              <path class="cls-29" d="m65.52,57.74c-.81-3.64-.04-3.68-1.35-6.84-.64-1.55-2.64-4.88-6.78-11.8-2.15-3.59-3.32-3.87-5.51-5.79-.23-.2-3.3,3.37-4.68,5.03-.13.15,0,4.86,1.97,7.78.76,1.12,8.14,7.76,10.15,8.73-2.06,4.81.06,7.6,4.55,15.64,1.36.82,2.92.06,4.14-1.53-.71-1.74-1.95-8.78-2.5-11.22Z"/>
              <path class="cls-31" d="m73.42,17.12c1.91-.04,1.57-3.4,0-3.75-1.58-.35-1.83,3.79,0,3.75Z"/>
              <path class="cls-6" d="m72.04,13.58c.17-.02,2.13.51,3.57-.63,1.43-1.14,3.05-1.22,4.25-.49,1.2.73,2.36.86,1.25,1.63-1.12.76-3.3.31-3.8.54-.5.23-.11,1.09.48,1.03.59-.06,1.76-.05,1.8.42.04.47-.77.48-1.32.61-.54.13-1.99.19-2.6.05-1.5-.34-2.35-.44-3.46-.59-1.11-.16-.15-2.56-.15-2.56Z"/>
              <path class="cls-29" d="m62.67,12.32c-2.18-.57-4.08-2.31-9.56-2.09-1.43-.92-2.94-.82-4.9-.64-2.19.21-2.41.8-3.63,2.16-.33.37-.52.82-.28,1.32.32.68,1.26.99,1.87,1.26,1.04.47,2.08.91,3.12,1.36,1.26.55,3.93,1.41,4.54,1.75,1.96,1.11,7.58,1.47,9.52,1.39,2.96-.12,10.06-1.72,10.06-1.72,0,0-.39-1.23-.33-1.86.14-1.44.32-1.89.32-1.89,0,0-7.76-1.92-10.74-1.05Z"/>
              <path class="cls-25" d="m46.98,10.61c-2.56.1-4.57,2.45-4.53,2.3.03-.1-2.19,3.07-2.19,3.08-1.79,1.82.02,10.65,2.87,14.34,1.28,1.66,2.55,4.27,2.44,5.82-.08,1.08-.53,2.86,3.01,2.39,1.03-.14,5.97-.47,8.2-2.05,1.03-.73,5.06-6.27,2.87-6.65-.58-.1-1.22-.54-1.16-1.24.05-.59.13-1.66-.5-2.49-1.55-2.04-1.56-3.12-2.06-5.05.81-2.37-1.73-4.21-3.93-6.41-1.49-1.49-2.4-4.15-5.02-4.04Z"/>
              <path class="cls-2" d="m46.25,10.37s-.03-.07-.04-.1c-1.18.79-3.2.84-4.66.58.08,1.72.19,2.34-.02,4.21.49-.2,2.05.68,3.48,1.7.61.43,2.75,1.28,3.49.51,1.14-1.19-.07-1.98-.76-3.57-.48-1.11-.97-2.23-1.48-3.33Z"/>
              <path class="cls-5" d="m40.46,15.59s2.75-.08,4.09.27c1.78.47,2.53.47,3.46.79-.01-.18-1.18-3.16-1.18-3.16,0,0,1.14-.36,1.14-.34,0,.02.89.31,1.67,1.34.78,1.04.99,2.63.99,2.63l-2.29-.26-.21,2.75s-3.33-.93-5-1.67c-1.67-.74-2.66-2.35-2.66-2.35Z"/>
              <path class="cls-28" d="m44.93,8.37s2.84-.89,4.88.91c2.04,1.8,5.01,6.58,6.67,10.06,1.21,2.54,2.2,6.13,3.48,7.75,1.1,1.39,5.91,3.84,5.91,3.84,0,0,2.06,1.95,1.32,5.23-.38,1.67-2.32,2.88-2.32,2.88,0,0-4.6-6.53-5.25-7.59-.65-1.06-3.84-6.8-4.54-8.62-.7-1.82-4.44-7.22-5.45-8.33-1.01-1.12-4.65-2.67-4.65-2.67l-.05-3.45Z"/>
              <path class="cls-31" d="m47.07,12.82s1.12.57,2.33,1.67c1.2,1.1,2.77,4.01,3.75,5.68.97,1.67,2.17,3.25,2.17,3.25,0,0-.22-2.21-.7-3.56-.48-1.35-.78-2.42-.78-2.42l-1.23-.29-.1-2.41s-4.44-3.78-5.5-3.62c-1.06.15.07,1.68.07,1.68Z"/>
              <path class="cls-28" d="m41.16,14.54s4.23,2.23,7.23,6.65c3,4.42,4.8,9.57,6.1,13.11,1.64,4.47,4.18,10.75,4.18,10.75,0,0-3.89,3.08-6.59,3.31-5.16.43-7.58-2.41-7.58-2.41,0,0-1.28-3.52-1.07-10.98.07-2.43-2.27-7.39-4.33-9.61-1.23-1.32-1.93-4.75-1.29-6.77.44-1.37,2.42-2.8,3.34-4.06Z"/>
              <path class="cls-31" d="m41.57,11.18s-1.13-.18-1.28,1.68c-.11,1.4,1.4,3.77,2.37,5.11.97,1.34,1.63,3.03,1.63,3.03l2.04-.03-.18,2.2,4.7,2.43s-1.89-5.21-4.73-8.28c-2.84-3.07-4.56-6.15-4.56-6.15Z"/>
              <path class="cls-15" d="m51.88,22.11c-.56-1.3-1.34-2.43-1.84-3.16,0,0,0,0,0,0-.11-.16-.02-1.86-.02-1.86l-1.62-.18-.07,1.66s.29.61.94.75h0c.59,1.31,1.43,2.96,1.7,6.73.3,4.09-1.9,6.63-1.9,6.63,0,0-.15,2.33.07,3.13,1.8-.04,3.14-1.24,3.14-1.24,0,0,2.52-5.6-.41-12.47Z"/>
              <path class="cls-6" d="m48.35,4.74c-1.55-1.32-4.39-1.17-5.95.21-.4.2-.75.46-1.01.8-.96,1.22-.5,3.02.09,4.3.89,1.93,4.62,6.05,6.96,3.82,1.25-1.18,1.74-3.65,1.68-5.3-.06-1.47-.63-2.87-1.76-3.83Z"/>
              <path class="cls-31" d="m49.64,1.42c-1.11-1.03-3.64-2.04-4.97-.94-.46.38-.64,1.02-.51,1.54-1.49,0-3.92,1.41-4.33,2.77-.71,2.31.71,5.77,1.87,6.68.84-1.06,2.05-3.2,2.14-5.06,1.8.49,4.08.16,5.54-1.07,1.22-1.04,1.5-2.78.27-3.92Z"/>
              <path class="cls-6" d="m43.75,8.6s-1.05-1.19-1.62-.08c-.86,1.69.93,2.12.93,2.12l.69-2.04Z"/>
              <path class="cls-6" d="m43.12,37.86c.14.1,1.24,1.81,3.06,1.93,1.83.12,3.08,1.15,3.47,2.49.4,1.35,1.17,2.23-.17,2.04-.63-.09-1.43-.88-2.61-1.19-1.33-.35-2.35.13-3.12-.97-.88-1.26-1.53-1.44-2.25-2.3-.72-.86,1.61-2,1.61-2Z"/>
              <path class="cls-6" d="m47.82,40.32s1.31.18,2.11.37c.8.19.26.99-.84.88-1.11-.12-1.27-1.25-1.27-1.25Z"/>
              <path class="cls-29" d="m38.52,34.95c.74-2.14,3.25-3.14,3.38-8.52,1.62-.97,0-8.41-2.34-10.16-1.81.6-4.39,2.62-5.04,6.41-.37,2.16-.28,2.51-.48,3.47-.8,1.89-2.09,8.38-.62,9.97.64-.3,3.73-2.1,5.11-1.18Z"/>
              <path class="cls-29" d="m37.25,30.76c-2.22,1.15-3.67,3.05-3.83,5.37,2.45,1.95,8.35,5.28,8.35,5.28,0,0,.54-1.17,1-1.6,1.07-.97,1.51-1.18,1.51-1.18,0,0-4.23-6.3-7.03-7.87Z"/>
            </g>
            <g>
              <g>
                <path class="cls-8" d="m87.25,78.23c.07-1.51-.23-3.3-.93-5.1-.7-1.81-1.68-3.33-2.75-4.4l-1.04-2.69-3.05,1.18c-2.19.85-2.67,4.87-1.08,8.98,1.59,4.11,4.65,6.76,6.84,5.91l3.05-1.18-1.04-2.69Z"/>
                <g class="cls-34">
                  <path class="cls-3" d="m87.63,79.22l-.38-.99c0-.16,0-.34,0-.51l-6.44,2.49c.41.46.84.84,1.27,1.16l5.56-2.15Z"/>
                </g>
                <path class="cls-36" d="m83.58,68.74s0,0,0,0l-.47-1.22-5.41,2.09c-.12.46-.19.96-.21,1.5l6.1-2.36Z"/>
                <path class="cls-9" d="m89.37,71.95c-1.59-4.11-4.65-6.76-6.84-5.91-2.19.85-2.67,4.87-1.08,8.98s4.65,6.76,6.84,5.91c2.19-.85,2.67-4.87,1.08-8.98Z"/>
                <path class="cls-3" d="m88.53,72.27c-1.32-3.4-3.78-5.62-5.5-4.95-1.72.67-2.05,3.96-.74,7.37,1.32,3.4,3.78,5.62,5.5,4.95,1.72-.67,2.05-3.96.74-7.37Z"/>
                <g>
                  <path class="cls-3" d="m88.29,72.36c1.29,3.32,1,6.54-.62,7.31.04-.01.08-.02.12-.03,1.72-.67,2.05-3.96.74-7.37-1.32-3.4-3.78-5.62-5.5-4.95-.04.02-.08.04-.11.06,1.72-.52,4.09,1.66,5.38,4.99Z"/>
                  <path class="cls-1" d="m82.28,74.68c1.29,3.32,3.66,5.51,5.38,4.99,1.62-.77,1.91-3.99.62-7.31-1.29-3.32-3.66-5.51-5.38-4.99-1.62.77-1.91,3.99-.62,7.31Z"/>
                  <g class="cls-34">
                    <path class="cls-3" d="m82.28,74.68c1.29,3.32,3.66,5.51,5.38,4.99,1.62-.77,1.91-3.99.62-7.31-1.29-3.32-3.66-5.51-5.38-4.99-1.62.77-1.91,3.99-.62,7.31Z"/>
                  </g>
                </g>
              </g>
              <path class="cls-9" d="m86.58,75.19c-.07-.36-.19-.67-.35-.93s-.36-.54-.6-.83c-.01-.01-.02-.02-.03-.03,0-.01-.02-.02-.03-.03-.01-.01-.02-.02-.03-.03,0-.01-.02-.02-.02-.03-.21-.25-.37-.45-.49-.62-.12-.17-.21-.35-.27-.56-.06-.2-.07-.43-.04-.67h0c.05-.36.17-.56.34-.62.17-.06.4.03.69.26.15.12.3.29.44.49.14.2.28.45.42.74l.53-.49c-.12-.26-.25-.49-.38-.71-.13-.21-.27-.4-.41-.57-.07-.08-.14-.14-.21-.21l.13-.82-.67-.54-.13.83c-.17-.09-.33-.16-.47-.17-.26-.03-.47.06-.63.28-.16.22-.28.56-.36,1.03h0c-.08.49-.07.91.02,1.28.09.37.22.67.38.92.17.25.39.53.67.85.01.01.02.02.03.04.01.01.02.03.03.04,0,0,.01.02.02.02,0,0,.01.01.02.02.18.2.32.38.43.55.11.16.19.34.24.54.05.2.06.41.03.64h0c-.06.37-.18.58-.36.63-.18.05-.43-.04-.74-.29-.23-.18-.42-.42-.6-.72-.17-.29-.31-.65-.43-1.05l-.58.44c.11.34.24.66.38.94.14.28.3.54.48.77.18.23.27.34.27.34,0,0,.02.02.05.04l-.12.78.67.54.13-.83c.19.12.38.2.53.23.26.04.48-.04.65-.24.17-.2.29-.53.36-.99h0c.07-.47.07-.88,0-1.24Z"/>
            </g>
            <g>
              <g>
                <path class="cls-8" d="m94.17,87.79c-1.32.73-2.69,1.92-3.87,3.46-1.18,1.54-1.96,3.17-2.31,4.64l-1.75,2.3,2.6,1.98c1.86,1.42,5.54-.26,8.22-3.77,2.67-3.5,3.33-7.5,1.47-8.92l-2.6-1.98-1.75,2.3Z"/>
                <g class="cls-34">
                  <path class="cls-3" d="m94.81,86.94l-.64.84c-.14.08-.28.18-.43.27l5.49,4.19c.18-.59.28-1.16.32-1.69l-4.74-3.62Z"/>
                </g>
                <path class="cls-36" d="m87.99,95.88s0,0,0,.01l-.79,1.04,4.61,3.52c.45-.14.91-.34,1.39-.6l-5.2-3.97Z"/>
                <path class="cls-9" d="m87.7,89.26c-2.67,3.5-3.33,7.5-1.47,8.92,1.86,1.42,5.54-.27,8.22-3.77,2.67-3.5,3.33-7.5,1.47-8.92-1.86-1.42-5.54.26-8.22,3.77Z"/>
                <path class="cls-3" d="m88.42,89.81c-2.21,2.9-2.82,6.16-1.35,7.28,1.47,1.12,4.45-.32,6.67-3.22,2.21-2.9,2.82-6.16,1.35-7.28-1.47-1.12-4.45.32-6.67,3.22Z"/>
                <g>
                  <path class="cls-3" d="m88.62,89.97c2.16-2.83,5.06-4.27,6.56-3.29-.03-.03-.06-.06-.09-.09-1.47-1.12-4.45.32-6.67,3.22-2.21,2.9-2.82,6.16-1.35,7.28.03.03.07.04.11.07-1.34-1.19-.72-4.36,1.44-7.19Z"/>
                  <path class="cls-1" d="m93.74,93.88c2.16-2.83,2.78-6,1.44-7.19-1.5-.98-4.4.46-6.56,3.29-2.16,2.83-2.78,6-1.44,7.19,1.5.98,4.4-.46,6.56-3.29Z"/>
                  <g class="cls-34">
                    <path class="cls-3" d="m93.74,93.88c2.16-2.83,2.78-6,1.44-7.19-1.5-.98-4.4.46-6.56,3.29-2.16,2.83-2.78,6-1.44,7.19,1.5.98,4.4-.46,6.56-3.29Z"/>
                  </g>
                </g>
              </g>
              <path class="cls-9" d="m91.92,89.95c-.27.25-.47.51-.62.78-.14.27-.27.59-.39.95,0,.02,0,.03-.01.04,0,.01,0,.03-.01.04,0,.02,0,.03-.01.04,0,.01,0,.02-.01.04-.1.31-.19.55-.27.74-.08.19-.19.36-.33.52-.14.16-.33.29-.55.38h0c-.33.14-.56.15-.7.03-.14-.12-.19-.36-.14-.73.02-.19.09-.4.19-.63.1-.23.24-.48.41-.75l-.7-.2c-.16.24-.29.47-.4.7-.11.22-.2.44-.27.65-.03.1-.04.19-.07.29l-.77.32-.11.86.78-.33c0,.19.04.36.1.49.11.23.3.37.57.39.27.03.63-.05,1.07-.23h0c.45-.19.81-.42,1.08-.69.27-.27.46-.54.58-.81.12-.27.25-.61.37-1.02,0-.02,0-.03.01-.05,0-.02,0-.03.01-.05,0,0,0-.02,0-.02,0,0,0-.02,0-.02.08-.26.16-.47.24-.65.08-.18.19-.34.33-.49.14-.15.32-.27.53-.36h0c.34-.14.58-.15.72-.03s.19.39.14.79c-.04.29-.14.58-.3.88-.16.3-.39.6-.67.92l.67.26c.23-.27.44-.54.6-.81.17-.27.3-.54.4-.81.1-.27.15-.41.15-.41,0,0,0-.02,0-.06l.73-.3.11-.86-.77.32c0-.23-.02-.43-.08-.57-.1-.25-.28-.39-.54-.43-.26-.04-.6.03-1.03.21h0c-.43.18-.78.4-1.05.65Z"/>
            </g>
            <g>
              <path class="cls-8" d="m127.58,102.89c1.01-3.75-.09-8.72-2.46-11.1-1.05-1.05-2.17-1.42-3.19-1.18h0s-2.74.7-2.74.7l.28,1.62c-.19.4-.35.84-.48,1.33-1.01,3.75.09,8.72,2.46,11.1.08.08.16.14.23.21l.29,1.64s2.75-.69,2.95-.76c1.16-.41,2.14-1.64,2.66-3.57Z"/>
              <path class="cls-36" d="m123.67,90.78l-4.37,1.16.17.99c-.05.11-.1.23-.14.35l5.75-1.53c-.46-.45-.93-.77-1.4-.97Z"/>
              <g class="cls-34">
                <path class="cls-3" d="m127.42,103.39l-6.25,1.66c.09.1.18.21.28.31.08.08.16.14.23.21l.11.66,4.91-1.3c.28-.43.52-.94.72-1.53Z"/>
              </g>
              <path class="cls-9" d="m124.78,103.61c-1.01,3.75-3.76,4.86-6.13,2.47-2.37-2.38-3.48-7.35-2.46-11.1,1.01-3.75,3.76-4.86,6.13-2.47,2.37,2.38,3.48,7.35,2.46,11.1Z"/>
              <path class="cls-1" d="m124.02,103.1c-.85,3.14-3.15,4.07-5.13,2.07-1.99-1.99-2.91-6.16-2.06-9.29.85-3.14,3.15-4.07,5.13-2.07,1.99,1.99,2.91,6.16,2.06,9.29Z"/>
              <g class="cls-34">
                <path class="cls-3" d="m124.02,103.1c-.85,3.14-3.15,4.07-5.13,2.07-1.99-1.99-2.91-6.16-2.06-9.29.85-3.14,3.15-4.07,5.13-2.07,1.99,1.99,2.91,6.16,2.06,9.29Z"/>
              </g>
              <path class="cls-3" d="m119.24,105.06c-1.99-1.99-2.91-6.16-2.06-9.29.41-1.53,1.18-2.54,2.08-2.93-1.05.27-1.96,1.32-2.43,3.05-.85,3.14.08,7.3,2.06,9.29,1.01,1.02,2.11,1.27,3.05.86-.86.22-1.81-.08-2.71-.98Z"/>
              <path class="cls-9" d="m121.91,101.15c-.07-.38-.18-.72-.34-1-.16-.28-.36-.58-.61-.9-.01-.01-.02-.03-.03-.04,0-.01-.02-.02-.03-.04-.01-.01-.02-.03-.03-.04,0-.01-.02-.02-.03-.03-.21-.27-.38-.49-.5-.67s-.21-.38-.27-.6-.07-.45-.02-.71h0c.07-.37.19-.59.38-.65.18-.06.43.04.73.3.16.13.31.31.45.53.14.22.29.49.42.8l.58-.5c-.12-.28-.25-.53-.38-.76-.13-.23-.27-.44-.42-.62-.07-.09-.14-.15-.22-.23l.16-.86-.7-.59-.16.88c-.18-.1-.34-.17-.49-.2-.27-.04-.5.05-.68.28-.18.22-.32.58-.41,1.08h0c-.09.51-.1.96-.02,1.35.08.39.21.72.38.99.17.27.4.57.69.92.01.01.02.03.03.04.01.01.02.03.03.04,0,0,.01.02.02.02,0,0,.01.01.02.02.18.22.33.41.44.59.11.18.19.37.24.58.05.21.05.43,0,.68h0c-.07.39-.2.61-.4.66-.19.05-.45-.06-.77-.33-.23-.2-.44-.46-.61-.78-.17-.32-.31-.69-.42-1.13l-.62.45c.11.37.23.7.37,1,.14.3.3.58.49.83.18.25.27.37.27.37,0,0,.02.02.05.04l-.15.82.7.59.16-.87c.2.13.39.22.56.26.28.05.51-.02.69-.23.18-.21.32-.55.41-1.03h0c.09-.5.1-.93.03-1.31Z"/>
            </g>
          </g>
          <g>
            <g>
              <g>
                <polygon class="cls-17" points="32.51 64.96 32.51 86.57 25.4 90.67 23.62 91.7 16.66 95.72 16.66 74.11 23.62 70.09 25.4 69.07 32.51 64.96"/>
                <polygon class="cls-30" points="16.66 74.11 16.66 95.72 9.11 91.36 7.33 90.33 0 86.1 0 64.49 7.33 68.73 9.11 69.76 16.66 74.11"/>
                <g>
                  <path class="cls-11" d="m15.69,78.69l-3.13-1.81v-3.59l3.13,1.81v3.59Zm-2.92-1.93l2.72,1.57v-3.12l-2.72-1.57v3.12Z"/>
                  <g>
                    <polygon class="cls-11" points="14.47 77.54 13.78 77.14 13.78 75.33 14.47 75.73 14.47 77.54"/>
                    <polygon class="cls-11" points="15.15 76.46 13.1 75.28 14.13 74.64 15.15 76.46"/>
                  </g>
                </g>
                <polygon class="cls-22" points="16.66 74.11 0 64.5 15.86 55.34 32.52 64.96 16.66 74.11"/>
                <polygon class="cls-24" points="23.62 70.09 6.96 60.48 8.74 59.45 25.4 69.07 23.62 70.09"/>
                <polygon class="cls-10" points="9.11 69.76 9.11 91.36 7.33 90.33 7.33 68.73 9.11 69.76"/>
                <polygon class="cls-33" points="9.11 69.76 24.97 60.6 23.19 59.57 7.33 68.73 9.11 69.76"/>
                <polygon class="cls-11" points="0 64.5 16.66 74.11 7.89 69.3 0 64.5"/>
                <polygon class="cls-11" points="32.52 64.96 16.66 74.11 25.43 69.3 32.52 64.96"/>
              </g>
              <polygon class="cls-21" points="7.73 60.03 7.86 59.96 16.03 64.67 24.02 60.06 24.14 60.13 16.15 64.74 24.52 69.58 24.39 69.65 16.02 64.81 8.29 69.28 8.17 69.21 15.9 64.74 7.73 60.03"/>
            </g>
            <polygon class="cls-13" points="25.4 69.07 25.4 90.67 23.62 91.7 23.62 70.09 25.4 69.07"/>
          </g>
          <path class="cls-4" d="m31.17,86.35s-.88.05-1.12.48c-.23.43-.36,1.18-.96,1.19-.6,0-1.35.49-.97,1,.37.51,1.8.27,2.13-.21.33-.48-.16-.11.92-.17,1.08-.05,2.48-1.29,2.23-1.69-.25-.4-.69-1.21-2.23-.59Z"/>
        </g>
      </g>
    </g>
  </g>
</svg>