<?xml version="1.0" encoding="UTF-8"?>
<svg xmlns="http://www.w3.org/2000/svg" xmlns:xlink="http://www.w3.org/1999/xlink" viewBox="0 0 138.37 104.86">
  <defs>
    <style>
      .cls-1 {
        fill: url(#_裼_胙琅韃_51);
      }

      .cls-2 {
        fill: url(#_裼_胙琅韃_99);
      }

      .cls-3 {
        fill: url(#_裼_胙琅韃_92);
      }

      .cls-4 {
        fill: #f6f7fa;
      }

      .cls-5 {
        fill: #ecc158;
      }

      .cls-6 {
        fill: #eeeff7;
      }

      .cls-7 {
        fill: #eeeef3;
      }

      .cls-8 {
        fill: #ebb85d;
      }

      .cls-9 {
        fill: #eac9a5;
      }

      .cls-10 {
        fill: #edf2f9;
      }

      .cls-11 {
        fill: #fff;
      }

      .cls-12 {
        fill: #f4e892;
      }

      .cls-13 {
        fill: #e8eaf4;
      }

      .cls-14 {
        fill: #f0f1f8;
      }

      .cls-15 {
        fill: #fbfbfa;
      }

      .cls-16 {
        fill: #e3a53f;
      }

      .cls-17 {
        fill: #927453;
      }

      .cls-18 {
        fill: #7f6243;
      }

      .cls-19 {
        fill: #9ec79b;
      }

      .cls-20 {
        fill: #84924d;
      }

      .cls-21 {
        fill: #9ea3b9;
      }

      .cls-22 {
        fill: #a2cba0;
      }

      .cls-23 {
        fill: #c2c5d4;
      }

      .cls-24 {
        fill: #b5d5ad;
      }

      .cls-25 {
        fill: #b9bcdb;
      }

      .cls-26 {
        fill: #cdad87;
      }

      .cls-27 {
        fill: #ced1e7;
      }

      .cls-28 {
        fill: #cee6f2;
      }

      .cls-29 {
        fill: #bc9870;
      }

      .cls-30 {
        fill: #bec1d0;
      }

      .cls-31 {
        fill: #dddfee;
      }

      .cls-32 {
        fill: #cbaf8f;
      }

      .cls-33 {
        fill: #d1e5d0;
      }

      .cls-34 {
        fill: #dfb990;
      }

      .cls-35 {
        fill: #c5a688;
      }

      .cls-36 {
        fill: #d9b38a;
      }

      .cls-37, .cls-38, .cls-39 {
        fill: #d65545;
      }

      .cls-40 {
        fill: #db7570;
      }

      .cls-41 {
        fill: #dfe4f2;
      }

      .cls-42 {
        fill: #e1c8ac;
      }

      .cls-43 {
        fill: #d5e3f1;
      }

      .cls-44 {
        fill: #d75a51;
      }

      .cls-45 {
        fill: #aad0a6;
      }

      .cls-46 {
        fill: #364c62;
      }

      .cls-47 {
        fill: #191e26;
      }

      .cls-48 {
        fill: #3e434b;
      }

      .cls-49 {
        fill: #a38260;
      }

      .cls-50 {
        fill: #6e849a;
      }

      .cls-51 {
        fill: #a2805c;
      }

      .cls-52 {
        fill: #536a80;
      }

      .cls-53 {
        fill: #556c7e;
      }

      .cls-54 {
        fill: #292a2b;
      }

      .cls-55 {
        fill: #3a3e46;
      }

      .cls-56 {
        fill: #dee2e6;
      }

      .cls-56, .cls-57, .cls-58 {
        mix-blend-mode: multiply;
      }

      .cls-57 {
        fill: #bec9d0;
      }

      .cls-58 {
        fill: #cedf9f;
      }

      .cls-59 {
        fill: url(#_裼_胙琅韃_2);
      }

      .cls-60 {
        fill: url(#_裼_胙琅韃_92-11);
      }

      .cls-61 {
        fill: url(#_裼_胙琅韃_92-16);
      }

      .cls-62 {
        fill: url(#_裼_胙琅韃_92-14);
      }

      .cls-63 {
        fill: url(#_裼_胙琅韃_92-12);
      }

      .cls-64 {
        fill: url(#_裼_胙琅韃_92-15);
      }

      .cls-65 {
        fill: url(#_裼_胙琅韃_92-13);
      }

      .cls-66 {
        fill: url(#_裼_胙琅韃_92-10);
      }

      .cls-67 {
        fill: #51493f;
      }

      .cls-67, .cls-68 {
        mix-blend-mode: screen;
      }

      .cls-68 {
        fill: #8bbf77;
      }

      .cls-69 {
        fill: url(#_裼_胙琅韃_92-2);
      }

      .cls-70 {
        fill: url(#_裼_胙琅韃_92-9);
      }

      .cls-71 {
        fill: url(#_裼_胙琅韃_92-8);
      }

      .cls-72 {
        fill: url(#_裼_胙琅韃_92-5);
      }

      .cls-73 {
        fill: url(#_裼_胙琅韃_92-4);
      }

      .cls-74 {
        fill: url(#_裼_胙琅韃_92-7);
      }

      .cls-75 {
        fill: url(#_裼_胙琅韃_92-6);
      }

      .cls-76 {
        fill: url(#_裼_胙琅韃_92-3);
      }

      .cls-77 {
        isolation: isolate;
      }

      .cls-78 {
        fill: url(#_裼_胙琅韃_114);
      }

      .cls-38 {
        opacity: .5;
      }

      .cls-39 {
        opacity: .7;
      }
    </style>
    <linearGradient id="_裼_胙琅韃_114" data-name="ﾁ裼 胙琅韃 114" x1="-2008.18" y1="59.94" x2="-1919.94" y2="59.94" gradientTransform="translate(-1895.57) rotate(-180) scale(1 -1)" gradientUnits="userSpaceOnUse">
      <stop offset="0" stop-color="#c2c5d4"/>
      <stop offset=".02" stop-color="#c2c5d4"/>
      <stop offset=".28" stop-color="#c2c5d4"/>
      <stop offset=".3" stop-color="#bec1d1"/>
      <stop offset=".32" stop-color="#b3b7c9"/>
      <stop offset=".34" stop-color="#a1a6bb"/>
      <stop offset=".34" stop-color="#9ea3b9"/>
      <stop offset=".99" stop-color="#9ea3b9"/>
      <stop offset=".99" stop-color="#9ea3b9"/>
      <stop offset=".99" stop-color="#b2b6c8"/>
      <stop offset="1" stop-color="#bec1d1"/>
      <stop offset="1" stop-color="#c2c5d4"/>
    </linearGradient>
    <linearGradient id="_裼_胙琅韃_92" data-name="ﾁ裼 胙琅韃 92" x1="33.88" y1="32.55" x2="100.41" y2="99.07" gradientUnits="userSpaceOnUse">
      <stop offset=".17" stop-color="#c7c8e2"/>
      <stop offset=".52" stop-color="#cad0e7"/>
      <stop offset="1" stop-color="#ced7ec"/>
    </linearGradient>
    <linearGradient id="_裼_胙琅韃_92-2" data-name="ﾁ裼 胙琅韃 92" x1="45.52" y1="20.91" x2="112.04" y2="87.44" xlink:href="#_裼_胙琅韃_92"/>
    <linearGradient id="_裼_胙琅韃_92-3" data-name="ﾁ裼 胙琅韃 92" x1="56.78" y1="9.65" x2="123.3" y2="76.18" xlink:href="#_裼_胙琅韃_92"/>
    <linearGradient id="_裼_胙琅韃_92-4" data-name="ﾁ裼 胙琅韃 92" x1="64.91" y1="1.52" x2="131.44" y2="68.04" xlink:href="#_裼_胙琅韃_92"/>
    <linearGradient id="_裼_胙琅韃_92-5" data-name="ﾁ裼 胙琅韃 92" x1="68.62" y1="-2.19" x2="135.14" y2="64.34" xlink:href="#_裼_胙琅韃_92"/>
    <linearGradient id="_裼_胙琅韃_92-6" data-name="ﾁ裼 胙琅韃 92" x1="67.35" y1="-.92" x2="133.88" y2="65.6" xlink:href="#_裼_胙琅韃_92"/>
    <linearGradient id="_裼_胙琅韃_92-7" data-name="ﾁ裼 胙琅韃 92" x1="61.29" y1="5.14" x2="127.81" y2="71.67" xlink:href="#_裼_胙琅韃_92"/>
    <linearGradient id="_裼_胙琅韃_92-8" data-name="ﾁ裼 胙琅韃 92" x1="51.37" y1="15.05" x2="117.9" y2="81.58" xlink:href="#_裼_胙琅韃_92"/>
    <linearGradient id="_裼_胙琅韃_92-9" data-name="ﾁ裼 胙琅韃 92" x1="39.15" y1="27.28" x2="105.68" y2="93.8" xlink:href="#_裼_胙琅韃_92"/>
    <linearGradient id="_裼_胙琅韃_92-10" data-name="ﾁ裼 胙琅韃 92" x1="26.53" y1="39.9" x2="93.05" y2="106.43" xlink:href="#_裼_胙琅韃_92"/>
    <linearGradient id="_裼_胙琅韃_92-11" data-name="ﾁ裼 胙琅韃 92" x1="15.72" y1="50.71" x2="82.24" y2="117.24" xlink:href="#_裼_胙琅韃_92"/>
    <linearGradient id="_裼_胙琅韃_92-12" data-name="ﾁ裼 胙琅韃 92" x1="8.33" y1="58.11" x2="74.85" y2="124.63" xlink:href="#_裼_胙琅韃_92"/>
    <linearGradient id="_裼_胙琅韃_92-13" data-name="ﾁ裼 胙琅韃 92" x1="5.44" y1="60.99" x2="71.96" y2="127.52" xlink:href="#_裼_胙琅韃_92"/>
    <linearGradient id="_裼_胙琅韃_92-14" data-name="ﾁ裼 胙琅韃 92" x1="7.7" y1="58.73" x2="74.23" y2="125.25" xlink:href="#_裼_胙琅韃_92"/>
    <linearGradient id="_裼_胙琅韃_92-15" data-name="ﾁ裼 胙琅韃 92" x1="14.56" y1="51.87" x2="81.09" y2="118.39" xlink:href="#_裼_胙琅韃_92"/>
    <linearGradient id="_裼_胙琅韃_92-16" data-name="ﾁ裼 胙琅韃 92" x1="24.01" y1="42.42" x2="90.54" y2="108.94" xlink:href="#_裼_胙琅韃_92"/>
    <linearGradient id="_裼_胙琅韃_2" data-name="ﾁ裼 胙琅韃 2" x1="24.64" y1="82.22" x2="41.81" y2="67.66" gradientUnits="userSpaceOnUse">
      <stop offset=".09" stop-color="#5392c2"/>
      <stop offset=".2" stop-color="#619bc8"/>
      <stop offset=".49" stop-color="#7faed7"/>
      <stop offset=".73" stop-color="#92b9df"/>
      <stop offset=".9" stop-color="#99bee3"/>
    </linearGradient>
    <linearGradient id="_裼_胙琅韃_51" data-name="ﾁ裼 胙琅韃 51" x1="25.39" y1="81.58" x2="41.1" y2="68.27" gradientTransform="translate(31.17 -7.09) rotate(22.5)" gradientUnits="userSpaceOnUse">
      <stop offset=".09" stop-color="#717ca8"/>
      <stop offset=".21" stop-color="#7381af"/>
      <stop offset=".61" stop-color="#7a8fc1"/>
      <stop offset=".9" stop-color="#7d94c8"/>
    </linearGradient>
    <linearGradient id="_裼_胙琅韃_99" data-name="ﾁ裼 胙琅韃 99" x1="26.41" y1="82.25" x2="41.09" y2="66.18" gradientUnits="userSpaceOnUse">
      <stop offset=".09" stop-color="#81a474"/>
      <stop offset=".33" stop-color="#93b57e"/>
      <stop offset=".66" stop-color="#a5c78a"/>
      <stop offset=".9" stop-color="#acce8e"/>
    </linearGradient>
  </defs>
  <g class="cls-77">
    <g id="_レイヤー_2" data-name="レイヤー 2">
      <g id="_01" data-name="01">
        <g>
          <ellipse class="cls-28" cx="69.18" cy="64.62" rx="69.18" ry="40.23"/>
          <g>
            <g>
              <path class="cls-56" d="m85.84,87.16l25.41-14.67c2-1.15,1.75-3.19-.56-4.52l-51.73-29.87c-2.31-1.33-5.83-1.48-7.83-.32l-25.41,14.67c-2,1.15-1.75,3.19.56,4.52l51.73,29.87c2.31,1.33,5.83,1.48,7.83.32Z"/>
              <path class="cls-78" d="m24.37,49.09l1.6.68,25.16-14.52c2-1.15,5.52-1.01,7.83.32l51.73,29.87c.1.06.19.12.29.18l1.62-.48v2.89h0c-.02.72-.46,1.41-1.35,1.93l-25.41,14.67c-2,1.15-5.52,1.01-7.83-.32l-51.73-29.87c-1.24-.72-1.88-1.64-1.9-2.52h0s0-2.83,0-2.83Z"/>
              <path class="cls-7" d="m85.84,81.83l25.41-14.67c2-1.15,1.75-3.19-.56-4.52l-51.73-29.87c-2.31-1.33-5.83-1.48-7.83-.32l-25.41,14.67c-2,1.15-1.75,3.19.56,4.52l51.73,29.87c2.31,1.33,5.83,1.48,7.83.32Z"/>
              <path class="cls-30" d="m26.28,51.36l51.73,29.87c2.31,1.33,5.83,1.48,7.83.32l25.41-14.67c.84-.49,1.28-1.13,1.34-1.82.06.79-.38,1.55-1.34,2.1l-25.41,14.67c-2,1.15-5.52,1.01-7.83-.32l-51.73-29.87c-1.33-.77-1.98-1.77-1.9-2.71.06.85.7,1.73,1.9,2.42Z"/>
              <path class="cls-54" d="m26,50.14c.26.41.69.8,1.27,1.14l12.6,7.27,16.03,9.25,22.75,13.13c1.93,1.12,4.88,1.24,6.55.27l23.22-13.41,1.75-1.01c1.67-.97,1.46-2.67-.47-3.79l-7.72-4.46-14.56-8.41-19.96-11.52-9.13-5.27c-1.93-1.12-4.88-1.24-6.55-.27l-9.59,5.54-15.37,8.88c-1.17.68-1.42,1.71-.8,2.65Z"/>
              <path class="cls-55" d="m26.34,49.92c.05.08.1.14.16.22.23.28.55.55.97.79l13.19,7.61,1.82,1.05,14.21,8.2,2.44,1.41,11.85,6.84,7.87,4.54c.95.55,2.23.88,3.5.88,1.03,0,1.98-.22,2.64-.61l5.21-3,17.42-10.06,2.35-1.35c.61-.35.93-.81.93-1.29,0-.64-.52-1.29-1.4-1.81l-8.32-4.8-14.56-8.41-1.54-.89-18.43-10.64-2.64-1.52-5.88-3.4c-.95-.56-2.24-.87-3.51-.87-.72,0-1.38.1-1.95.29-.26.08-.49.18-.7.3l-8.99,5.19-3.86,2.23-12.11,6.99c-.5.29-.81.65-.9,1.04-.08.34,0,.7.23,1.05Z"/>
              <path class="cls-48" d="m64.01,37.09l6.98,38.95,7.87,4.54c.95.55,2.23.88,3.5.88,1.03,0,1.98-.22,2.64-.61l5.21-3-5.13-28.6-18.43-10.64-2.64-1.52Z"/>
              <path class="cls-48" d="m39.12,40.84l3.36,18.75,14.21,8.2,2.44,1.41-6.47-36.09c-.26.08-.49.18-.7.3l-8.99,5.19-3.86,2.23Z"/>
              <path class="cls-15" d="m28.88,50.36c.04.07.1.13.15.21.21.27.52.51.91.74l12.39,7.16,1.71.99,13.36,7.71,2.29,1.33,11.13,6.42,8.31,4.79c.9.52,2.09.82,3.29.82.97,0,1.86-.21,2.48-.57l4.89-2.82,16.37-9.45,2.2-1.27c.57-.33.87-.76.87-1.22,0-.6-.48-1.21-1.31-1.7l-8.74-5.04-13.68-7.9-1.45-.84-17.32-10-2.48-1.43-5.53-3.19c-.9-.53-2.1-.82-3.3-.82-.67,0-1.3.09-1.83.27-.24.07-.46.17-.66.28l-3.92,2.44.09,2.5-8.58,4.96-3.72-.23-7.32,3.87c-.47.27-.76.61-.85.97-.08.32,0,.66.22.99Z"/>
              <path class="cls-54" d="m38.8,43.61l6.26-3.61c.11-.07.1-.18-.03-.26h0c-.13-.08-.33-.08-.45-.02l-6.26,3.61c-.11.07-.1.18.03.26h0c.13.08.33.08.45.02Z"/>
              <path class="cls-55" d="m45.1,39.95s-.04-.05-.08-.07c-.13-.08-.33-.08-.45-.02l-6.26,3.61s-.04.03-.05.04c-.05-.07-.03-.14.05-.19l6.26-3.61c.11-.07.32-.06.45.02.11.06.13.15.08.21Z"/>
              <path class="cls-55" d="m46.68,38.7c.37.22.98.22,1.36,0,.38-.22.38-.57,0-.79-.37-.22-.98-.22-1.36,0-.38.22-.38.57,0,.79Z"/>
              <path class="cls-53" d="m46.93,38.55c.24.14.62.14.86,0,.24-.14.24-.36,0-.5-.24-.14-.62-.14-.86,0-.24.14-.24.36,0,.5Z"/>
              <path class="cls-54" d="m45.38,39.56c.26.15.7.15.96,0,.27-.15.27-.4,0-.56-.26-.15-.7-.15-.96,0-.27.15-.27.4,0,.56Z"/>
              <g>
                <path class="cls-23" d="m30.24,56.16l3.71,2.14c.3.17.55-.01.55-.42h0c0-.4-.25-.88-.55-1.05l-3.71-2.14c-.3-.17-.55.01-.55.42h0c0,.4.25.88.55,1.05Z"/>
                <path class="cls-21" d="m29.96,56.34l3.71,2.14c.3.17.55-.01.55-.42h0c0-.4-.25-.88-.55-1.05l-3.71-2.14c-.3-.17-.55.01-.55.42h0c0,.4.25.88.55,1.05Z"/>
              </g>
              <g>
                <path class="cls-23" d="m53.87,69.8l3.71,2.14c.3.17.55-.01.55-.42h0c0-.4-.25-.88-.55-1.05l-3.71-2.14c-.3-.17-.55.01-.55.42h0c0,.4.25.88.55,1.05Z"/>
                <path class="cls-21" d="m53.59,69.97l3.71,2.14c.3.17.55-.01.55-.42h0c0-.4-.25-.88-.55-1.05l-3.71-2.14c-.3-.17-.55.01-.55.42h0c0,.4.25.88.55,1.05Z"/>
              </g>
              <path class="cls-21" d="m96.66,76.98c0,.35.21.5.47.35l3.19-1.84c.26-.15.47-.56.47-.9s-.21-.51-.47-.36l-.31.18-2.88,1.66c-.2.11-.37.39-.44.66-.02.08-.03.17-.03.25Z"/>
              <path class="cls-47" d="m96.69,76.74l2.88-1.66c.2-.11.37-.38.44-.65l-2.88,1.66c-.2.11-.37.39-.44.66Z"/>
            </g>
            <g>
              <path class="cls-3" d="m34.24,38.51l.11-.06-1.49-.99c2.6-1.3,5.39-2.47,8.36-3.48l1.17,1.14c-2.89.99-5.61,2.12-8.14,3.4Z"/>
              <path class="cls-69" d="m62.84,31.1c-.57.03-1.14.08-1.7.14l-1.7.16-1.68.21-.84.1-.83.13-1.66.26-1.64.3c-1.1.19-2.16.45-3.23.67l-.86-1.22c1.12-.23,2.22-.51,3.37-.7l1.71-.31,1.73-.27.87-.13.88-.11,1.75-.22,1.77-.17c.59-.06,1.18-.11,1.77-.15l.3,1.3Z"/>
              <path class="cls-76" d="m84.45,32.03l-1.66-.26-1.68-.22c-1.12-.16-2.26-.24-3.39-.36-2.28-.17-4.57-.32-6.87-.33l.03-1.31c2.39.01,4.78.16,7.15.34,1.18.13,2.37.21,3.53.38l1.75.23,1.73.27-.6,1.27Z"/>
              <path class="cls-73" d="m103.74,37.77c-.91-.4-1.81-.83-2.77-1.2-.47-.19-.94-.39-1.42-.57l-1.46-.53c-.48-.18-.98-.35-1.49-.51l-1.51-.49-1.55-.44c-.51-.15-1.03-.3-1.56-.42l.92-1.2c.55.13,1.09.28,1.63.44l1.61.46,1.57.51c.53.17,1.05.34,1.55.53l1.53.55c.5.19.99.39,1.48.59,1,.38,1.93.82,2.88,1.25l-1.42,1.02Z"/>
              <path class="cls-72" d="m117.67,47.39c-2.21-2.33-4.88-4.52-8.05-6.46l1.66-.89c3.3,2.02,6.08,4.3,8.39,6.73l-2,.62Z"/>
              <path class="cls-75" d="m123.99,59.37c-.46-2.64-1.45-5.25-3.03-7.75l2.14-.44c1.65,2.6,2.68,5.33,3.16,8.08l-2.27.12Z"/>
              <path class="cls-74" d="m121.71,71.79c1.41-2.52,2.19-5.15,2.45-7.8l2.27.08c-.27,2.76-1.08,5.5-2.55,8.13l-2.17-.4Z"/>
              <path class="cls-71" d="m111.19,82.68c1.52-.99,2.86-2.07,4.16-3.15,1.23-1.11,2.42-2.25,3.4-3.44l2.05.58c-1.02,1.25-2.26,2.43-3.54,3.59-1.35,1.14-2.75,2.26-4.33,3.29l-1.73-.86Z"/>
              <path class="cls-70" d="m94.11,90.3c2.07-.57,4.04-1.25,5.97-1.96,1.89-.75,3.75-1.52,5.46-2.4l1.49,1c-1.78.92-3.73,1.72-5.69,2.5-2.01.74-4.06,1.45-6.22,2.05l-1.01-1.18Z"/>
              <path class="cls-66" d="m73.18,93.43c4.58-.15,9.14-.6,13.51-1.41l.7,1.25c-4.55.85-9.3,1.32-14.07,1.47l-.13-1.31Z"/>
              <path class="cls-60" d="m51.75,91.58c4.32.91,8.85,1.48,13.42,1.75l-.2,1.31c-4.76-.28-9.48-.87-13.99-1.82l.77-1.24Z"/>
              <path class="cls-63" d="m33.24,85.03c3.35,1.83,7.15,3.37,11.19,4.65l-1.07,1.16c-4.21-1.33-8.17-2.94-11.66-4.84l1.55-.96Z"/>
              <path class="cls-65" d="m20.56,74.85c.22.31.47.61.73.9l.77.89.84.87c.28.29.56.58.88.86l.92.84c.31.28.66.55.98.82.64.55,1.37,1.07,2.07,1.6l-1.77.82c-.73-.55-1.49-1.09-2.16-1.66-.34-.29-.69-.57-1.02-.86l-.96-.88c-.33-.29-.63-.59-.91-.89l-.88-.91-.8-.93c-.27-.31-.53-.62-.76-.94l2.08-.53Z"/>
              <path class="cls-62" d="m15.8,62.64c.02,1.33.27,2.65.57,3.96.21.65.35,1.31.63,1.96l.37.97.45.96-2.19.35-.47-1-.39-1.01c-.29-.67-.43-1.36-.65-2.04-.31-1.37-.58-2.75-.59-4.13l2.28-.02Z"/>
              <path class="cls-64" d="m19.64,50.35c-.39.62-.84,1.23-1.16,1.87l-.52.95-.44.96-.22.48-.18.49-.36.97-.28.98c-.1.33-.19.65-.24.98l-2.26-.17c.06-.34.15-.68.25-1.02l.3-1.02.38-1.01.19-.51.23-.5.46-1,.54-.99c.34-.66.81-1.3,1.21-1.95l2.12.5Z"/>
              <path class="cls-61" d="m29.05,41.5c-2.21,1.46-4.19,3.03-5.9,4.71l-1.97-.67c1.69-1.66,3.64-3.22,5.81-4.68l1.71.85.35-.2Z"/>
            </g>
            <g>
              <path class="cls-19" d="m48.35.02c.18-.07.34.08.34.22,0,5.6-.35,8.77-.35,14.51-.73,1.62-1.61,2.8-2.61,3.69-1.02.93-2.17,1.55-3.42,2.04-1.66.64-3.49,1.04-5.43,1.59-2.97.84-5.1,1.48-7.03,2.41-.53.25-1.04.53-1.56.83-1.49.89-2.79,2.26-4.58,4.09-.06.06-.28.01-.34-.04v-14.74c1.85-1.98,3.37-3.2,4.92-4.12.51-.31,1.02-.58,1.56-.83,1.85-.87,3.91-1.49,6.77-2.28,2.04-.57,3.96-.95,5.69-1.61,2.46-.93,4.54-2.41,6.03-5.76Z"/>
              <path class="cls-45" d="m48.69.24c0,5.89,0,8.84,0,14.73-.73,1.62-1.61,2.8-2.61,3.69-1.02.93-2.17,1.55-3.42,2.04-1.66.64-3.49,1.04-5.43,1.59-2.97.84-5.1,1.48-7.03,2.41-.53.25-1.04.53-1.56.83-1.54.92-3.06,2.12-4.92,3.87v-14.74c1.85-1.8,3.37-3.02,4.92-3.94.51-.31,1.02-.58,1.56-.83,1.85-.87,3.91-1.49,6.77-2.28,2.04-.57,3.96-.95,5.69-1.61,2.46-.93,4.54-2.41,6.03-5.76Z"/>
              <path class="cls-22" d="m48.69.24c0,5.89,0,8.84,0,14.73-1.02,1.71-1.82,2.85-2.61,3.69-1.02.93-2.17,1.55-3.42,2.04V6c2.46-.93,4.54-2.41,6.03-5.76Z"/>
              <path class="cls-19" d="m34.65,20.99c-.68-.13-1.3-.43-1.83-.87-.98-.82-1.52-2.07-1.52-3.64,0-3.19,2.16-6.44,4.82-6.91,1.3-.23,2.52.1,3.45.88.98.82,1.52,2.07,1.52,3.64,0,3.19-2.16,6.44-4.82,6.91-.56.1-1.11.09-1.63-.01Zm3.09-10.95c-.46-.09-.96-.1-1.47,0-2.46.43-4.53,3.52-4.53,6.48,0,1.42.47,2.55,1.33,3.28.81.69,1.89.96,3.05.76,2.46-.43,4.53-3.52,4.53-6.48,0-1.42-.47-2.55-1.33-3.28-.45-.38-.99-.64-1.58-.75Z"/>
              <path class="cls-19" d="m27.01,21.01v.55c-.65.59-1.1,1.08-1.87,2.1v-.6c.7-.93,1.16-1.42,1.87-2.06Z"/>
              <path class="cls-19" d="m27.01,22.59v.55c-.65.59-1.1,1.07-1.87,2.1v-.59c.7-.93,1.16-1.42,1.87-2.06Z"/>
              <path class="cls-19" d="m38.3,16.19c0,1.02-.67,1.82-1.62,2.13v1.27c-.3.05-.45.08-.75.13v-1.26c-.72.03-1.4-.2-1.89-.6.17-.44.25-.66.42-1.09.54.45,1.26.67,1.83.57.57-.1.91-.41.91-.85,0-1.29-2.84-.03-2.84-2.23,0-.95.61-1.73,1.57-2.04v-1.2c.3-.06.45-.08.75-.14v1.2c.58-.03,1.15.1,1.57.33-.16.45-.24.67-.41,1.11-.57-.28-1.18-.38-1.58-.31-.48.08-.78.34-.78.72,0,1.26,2.83.04,2.83,2.26Z"/>
              <path class="cls-33" d="m47.39,5.75c0,.45-.31,1.17-.74,1.74v.57c-.14.16-.2.24-.34.39v-.56c-.33.32-.64.46-.86.44.08-.25.12-.38.19-.63.25.01.58-.18.83-.47.26-.29.41-.6.41-.79,0-.58-1.3,1.16-1.3.18,0-.42.28-.97.72-1.52v-.53c.14-.15.2-.23.34-.39v.53c.27-.28.52-.5.72-.62-.07.28-.11.42-.19.7-.26.16-.54.4-.72.61-.22.25-.36.49-.36.66,0,.56,1.29-1.3,1.29-.3Z"/>
              <path class="cls-24" d="m30.2,9.89v14.81c-.53.25-1.04.53-1.56.83v-14.81c.51-.31,1.02-.58,1.56-.83Z"/>
            </g>
            <path class="cls-25" d="m117.68,44.78c-1.22.7-3.2.7-4.42,0-1.22-.71-1.23-1.85-.01-2.55,1.22-.7,3.2-.7,4.42,0,1.22.71,1.23,1.85.01,2.55Z"/>
            <g>
              <path class="cls-25" d="m111.11,87.19c-1.22.7-3.2.7-4.42,0-1.22-.71-1.23-1.85-.01-2.55,1.22-.7,3.2-.7,4.42,0,1.22.71,1.23,1.85.01,2.55Z"/>
              <g>
                <g>
                  <path class="cls-5" d="m111.4,61.72h0c-.95-.39-2.19-.25-3.54.53-2.99,1.73-5.42,5.91-5.42,9.35,0,4.67,5.42,9.99,5.42,9.99l1.87.97,3.58-19.85-1.9-.99Z"/>
                  <g>
                    <path class="cls-5" d="m109.72,63.22c2.99-1.73,5.42-.35,5.42,3.09,0,4.67-5.42,16.25-5.42,16.25,0,0-5.42-5.32-5.42-9.99,0-3.43,2.43-7.62,5.42-9.35Z"/>
                    <path class="cls-11" d="m106.58,71.25c0,1.99,1.41,2.79,3.14,1.79,1.73-1,3.14-3.43,3.14-5.41s-1.41-2.79-3.14-1.79c-1.73,1-3.14,3.43-3.14,5.41Z"/>
                  </g>
                </g>
                <path class="cls-12" d="m104.46,72.74c0-3.4,2.4-7.53,5.36-9.24,2.58-1.49,4.73-.64,5.24,1.85-.42-2.71-2.65-3.68-5.34-2.13-2.99,1.73-5.42,5.91-5.42,9.35,0,4.67,5.42,9.99,5.42,9.99,0,0,0-.01.01-.03-.66-.67-5.27-5.5-5.27-9.79Z"/>
              </g>
              <g>
                <path class="cls-44" d="m122.38,66.31h-.01c-.21-.11-.46-.13-.68,0l-2.07,1.19c-.18-1.52-.84-2.68-1.91-3.3-.91-.52-2-.6-3.17-.25l.26-2.86-.74-.47c-.05-.04-.11-.08-.17-.11h0s0,0,0,0c-.08-.03-.17-.05-.26-.05-.41,0-.74.33-.74.74v3.51c-3.17,1.95-5.62,6.25-5.63,9.92l-2.39,1.38c-.33.19-.44.61-.25.94.05.09.12.16.2.22h0s.87.55.87.55l1.81-1.26c.3,1.05.88,1.86,1.72,2.34.54.31,1.15.47,1.8.47.59,0,1.22-.14,1.87-.4v3.42c0,.25.13.47.33.6v.02s.87.55.87.55l.05-.62c.14-.14.24-.32.24-.54v-2.15l.19-2.19c2.66-1.9,4.71-5.41,5.06-8.65l1.8-1.26.96-.55c.12-.07.2-.18.26-.3l.54-.38-.81-.52Zm-6.17,3.16c-.33.19-.44.61-.25.94.05.09.13.16.21.22h0s.8.51.8.51l.47-.76-.03-.02.58-.34c-.02.09-.03.18-.05.26,0,.04-.02.08-.03.12-.07.28-.16.57-.26.85-.01.04-.02.08-.04.11-.11.31-.24.61-.38.92-.02.04-.03.07-.05.11-.3.63-.65,1.24-1.04,1.8-.01.02-.02.03-.04.05-.41.59-.87,1.13-1.37,1.61-.12.12-.25.23-.38.35v-.1l.47-.99-.82-.54h0c-.11-.06-.24-.12-.39-.12-.41,0-.74.33-.74.74v2.03c-.69.36-1.34.55-1.91.54-.13,0-.25-.01-.37-.03-.24-.04-.45-.12-.65-.23-.14-.08-.26-.18-.37-.29-.02-.02-.05-.05-.07-.07-.11-.12-.21-.25-.3-.4,0,0,0,0,0,0-.09-.15-.16-.33-.23-.51,0-.02-.02-.04-.02-.06-.06-.19-.11-.4-.15-.62-.01-.07-.02-.14-.03-.21l2.25-1.3s.01-.01.02-.02l.18.09.65-.71-.9-.59v.02c-.21-.09-.44-.09-.64.02l-1.54.89c.02-.18.05-.36.08-.55,0-.01,0-.02,0-.03h0c.2-1.03.58-2.08,1.11-3.08h0c.2-.39.43-.76.67-1.12h0c.63-.94,1.38-1.78,2.2-2.43v1.76c0,.29.17.53.41.66h0s.77.49.77.49l.5-.69-.26-.14c.05-.1.07-.2.07-.31v-2.69s.02,0,.03-.01c.36-.16.71-.27,1.04-.33.17-.03.33-.04.48-.04.25,0,.49.05.71.13.12.04.24.08.35.14.78.45,1.21,1.46,1.22,2.84l-1.98,1.14Z"/>
                <g>
                  <path class="cls-40" d="m111.74,79.77c-.65,0-1.26-.15-1.8-.47-1.27-.73-1.96-2.2-1.96-4.15,0-3.76,2.57-8.19,5.84-10.08,1.71-.99,3.35-1.12,4.63-.39,1.27.73,1.96,2.2,1.96,4.15,0,3.76-2.57,8.19-5.84,10.08-.98.57-1.95.85-2.83.85Zm4.91-14.07c-.62,0-1.33.22-2.08.65-2.81,1.62-5.1,5.57-5.1,8.79,0,1.39.43,2.41,1.22,2.86.79.46,1.91.32,3.14-.39,2.81-1.62,5.1-5.57,5.1-8.79,0-1.39-.43-2.41-1.22-2.86-.31-.18-.66-.27-1.06-.27Z"/>
                  <path class="cls-40" d="m114.35,69.53h0c-.41,0-.74-.33-.74-.74v-7.08c0-.41.33-.74.74-.74h0c.41,0,.74.33.74.74v7.08c0,.41-.33.74-.74.74Z"/>
                  <path class="cls-40" d="m114.35,83.54h0c-.41,0-.74-.33-.74-.74v-7.08c0-.41.33-.74.74-.74h0c.41,0,.74.33.74.74v7.08c0,.41-.33.74-.74.74Z"/>
                  <path class="cls-40" d="m116.69,70.89h0c-.19-.33-.08-.75.25-.94l5.48-3.16c.33-.19.75-.08.94.25h0c.19.33.08.75-.25.94l-5.48,3.16c-.33.19-.75.08-.94-.25Z"/>
                  <path class="cls-40" d="m105.34,77.45h0c-.19-.33-.08-.75.25-.94l5.48-3.16c.33-.19.75-.08.94.25h0c.19.33.08.75-.25.94l-5.48,3.16c-.33.19-.75.08-.94-.25Z"/>
                </g>
              </g>
            </g>
            <path class="cls-25" d="m39.84,37.52c-1.22.7-3.2.7-4.42,0-1.22-.71-1.23-1.85-.01-2.55,1.22-.7,3.2-.7,4.42,0,1.22.71,1.23,1.85.01,2.55Z"/>
            <g>
              <g>
                <ellipse class="cls-57" cx="32.33" cy="81.76" rx="6.19" ry="10.72" transform="translate(-49.61 113.65) rotate(-89.69)"/>
                <g>
                  <circle class="cls-59" cx="33.39" cy="74.8" r="11.74"/>
                  <circle class="cls-1" cx="33.39" cy="74.8" r="10.73" transform="translate(-26.08 18.47) rotate(-22.5)"/>
                  <path class="cls-20" d="m23.47,77.26s0,0,0,0h0Z"/>
                  <path class="cls-2" d="m30.36,64.5c.87-.26,1.79-.41,2.74-.43l.04.05-.31.24v.25s-.07.22-.07.22l-.31.19-.27.24-.19.43-.27.41-.17.54-.06.11h-.18s-.06-.05-.06-.05l-.05-.11-.13-.02-.09.06-.17.04-.08-.19-.06-.15.02-.14v-.16l-.09-.19-.06-.19v-.24l-.11-.19s-.02.19-.02-.29-.31,0-.03-.43Zm13.52,10.82l-.27.17-.38-.14.06-.22.03-.33-.09-.06-.08.12s-.14.29-.14.06v-.22l.07-.14-.12-.23-.15-.3v-.31s.07-.03.07-.03l.04-.14.11.14.1-.12.2.64.18.2.14.18.12.14.16.15.11-.15.1.12s0-.04,0-.05c0-3.85-2.03-7.23-5.07-9.12l-.16.11-.1.22-.12.06-.14.12-.15-.14s.16-.1-.04-.07l-.19.03-.42.14-.04-.03v-.24s-.17-.02-.17-.02l-.18.12-.1.04.04-.09.05-.04v-.07s-.07,0-.07,0l-.06.02-.03-.03.03-.05-.05-.08v-.08s.04-.06.04-.06l.09-.1.03-.08s-.03,0-.02-.07v-.07s.06-.03.06-.03l.04-.08v-.08s-.03-.03-.03-.03h-.06s-.04.08-.04.08l-.07.03-.05-.02-.02-.03-.06.02v.03s-.07.03-.07.03l-.05.02s.01.02,0,.09v.07s-.06.1-.06.1v.1s.03.09.03.09l-.04.04-.02.08s.03.06.06.02l.03-.03.04.02-.04.06h-.03s-.01.06-.01.06h.06s-.03.06-.03.06c0,0-.02-.05-.06,0l-.04.06-.04-.02v-.03s-.03-.05-.03-.05c0,0-.01-.02-.05,0l-.04.03h-.04s-.04,0-.04,0l-.02.04h-.06s-.07,0-.07,0c0,0,.03,0,0-.03l-.03-.03-.08.02-.04.05v.02s-.09.03-.09.03v.02s0,.04,0,.04l-.02.07-.07.06-.05.06-.03.03-.06.02h-.05s-.11.06-.11.06l-.06.05h-.06s-.06-.02-.06-.02l-.05.06.04.04-.03.06-.03.04-.09.06h-.04s-.07-.01-.07-.01h-.03s-.05.05-.05.05v.04s0,.04,0,.04h-.06s-.03-.02-.03-.02l-.04-.02h-.06s-.01-.03-.01-.03h0s.02-.04.02-.04v-.03s-.04-.02-.04-.02h-.04s-.03-.04-.03-.04v-.03s-.03-.02-.03-.02v.06s-.03.03-.03.03l.02.05v.04s.03.02.03.02v.03s-.02.04-.02.04v.02s-.01.02-.01.02v.02s-.02.02-.02.02h-.03s-.07-.04-.07-.04l-.05.02h-.02s0-.03,0-.03v-.02s-.04-.03-.04-.03h-.05s-.03,0-.03,0l-.03.02h-.11s-.03-.01-.03-.01l-.05.02-.02.02.02.04s0,0,.02.02h.03s-.03.03-.03.03v.03s0,.01,0,.01l-.02.05.03.02h.04s.03,0,.03,0h.02s.03.02.03.02l.05.04v.03s.04,0,.04,0c0,0,0,0,0,.03v.03s.04,0,.04,0l.04-.02v.03s-.03.02-.03.02v.03s.02.02.02.02l.04.02v.03s-.02.02-.02.02l-.02.04v.04s.03.03.03.03l.02.02v.03s.03,0,.03,0l.04.03v.04s0,.03,0,.03l-.03.06.02.04v.03s-.04.06-.04.06v.07s-.05.03-.05.03l-.02.09v.07s-.06.08-.06.08l-.03.07-.02.03h-.05s-.02,0-.02,0c0,0,0,0-.04,0h-.03s-.04-.01-.04-.01l-.02-.04h-.02s-.02.02-.02.02h-.03s-.06-.04-.06-.04h-.1s-.08,0-.08,0l-.05-.02-.03-.02-.03-.02h-.06s-.05,0-.05,0h-.06s-.04-.04-.04-.04l-.05-.02h-.04s-.05,0-.05,0v-.03s.04-.01-.02-.04l-.06-.02h-.05s-.03.02-.03.02l-.03.03v.03s0,0-.01.01h-.02s-.05-.01-.05-.01l-.07.03-.03.04v.06s.04.02.04.02v.04s.02.01.02.01l-.03.02-.04.09-.02.08v.18s-.03.12-.03.12l-.04.12-.05.04-.07.11-.07.09-.05.12.03.12h.06s.04.03.04.03v.03s-.04.04-.04.04l-.05.07v.07s-.03.05-.03.05v.05s-.05.07-.05.07l.02.02.04-.03.07-.03h.03s.02.04.02.04h.09s.03-.03.03-.03l.04-.02v.02s.02.03.02.03l.1.05v.04s0,.05,0,.05v.05s.01.04.01.04l.02.03v.02s.02.05.02.05l.03.02h.05s.04-.02.04-.02h.05s.04-.06.04-.06l.05-.04h.05s.05.02.05.02h.08s.12,0,.12,0l.07.04h.06s.04,0,.04,0h.03s.02-.03.02-.03l.02-.02.02-.07.11-.05.04.02.02.02h.04s0-.02,0-.02c0,0,0,0,0-.03v-.03s0-.03,0-.03l.04-.06.03-.04.03-.02h.03s.05-.01.05-.01v-.04s.06-.02.06-.02v-.03s-.04-.04-.04-.04l-.04-.03v-.12s.04-.05.04-.05l.07-.06.16-.15v-.06s.03-.04.03-.04h.04s.09-.01.09-.01c0,0,.01.02.05-.01l.04-.03h.07s.05-.03.05-.03l.03-.04.09-.03.03-.03v-.07s.01-.06.01-.06v-.05s.02-.07.02-.07l.03-.04.04-.04h.04s.02-.02.02-.02c0,0,0-.01.02,0h.03s.04.04.04.04l.07.03h.06s.05.04.05.04l.07.04.06.02.09-.03.02-.04h.04s.02.03.02.03c0,0,0,.02.02.02h.02s.03-.01.03-.01l.03-.06.03-.03.04-.05.02-.03h.05s.01-.02.01-.02l.02-.03h.08s.02,0,.02,0l.02.04.02.03s-.05.02,0,.05l.05.03h.03s.03.03.03.03l-.02.07.02.06.03.03-.02.05-.02.03h-.03s-.03,0-.03,0l-.02.04v.02s.05.02.05.02h.04s.03-.05.03-.05l.02.02.02.04.03.04v.06s0,.04,0,.04c0,0,.03-.01.06,0h.03s-.02.05-.02.05l.02.03.03.03h.02s0,.08,0,.08l.05.05.07.02v.04s.05.02.05.02l.04.04.04.09.04.03.05.02-.04.05h.03s.05.01.05.01l.03.03v.07s.04.04.04.04v.04s.05.02.05.02h.03s.01.08.01.08v.1s-.02.05-.02.05l.02.06-.02.04h-.03s-.02.09-.02.09h-.03s-.06.01-.06.01l-.03.03h-.05s-.04-.03-.04-.03l-.06.04s.01.01-.07-.01l-.08-.02s.04-.03-.03-.06l-.07-.02-.02.02s.02-.06-.04-.02l-.06.04v.08s.01.07.01.07l.09.03.05.06.06.05.05.05.03.03.03.08.05.03h.06s.02-.06.02-.06l.05-.07-.03-.06v-.07s.05-.06.05-.06l.03-.04.03.03v.03l.04.02.04.02v-.04s.01-.04.01-.04l.04-.03.02.02h.03s0-.04,0-.04c0,0-.05,0,0-.06l.05-.06h.03s.01.01.01.01h.01s.03-.02.03-.02v-.05s.04-.07.04-.07v-.04s-.06-.01-.06-.01l-.05-.04v-.05s-.02-.03-.02-.03l.08-.11.02-.02h.04s-.01.03-.01.03v.03s.07.02.07.02v.02s.03.01.03.01l.02-.02v.07s.02.07.02.07l.05.03.04-.05v-.08s-.01-.08-.01-.08l-.07-.12-.09-.06-.02-.06-.07-.02-.07-.03-.04-.06v-.03s.05,0,.05,0v-.03s.02-.06.02-.06l-.04-.03h-.08s-.03-.01-.03-.01h-.04s-.03-.02-.03-.02l-.12-.21v-.1s-.03-.07-.03-.07v-.06s-.05-.1-.05-.1l-.08-.03-.04-.07-.03-.04v-.07s0-.06,0-.06h.06s.01-.02.01-.02v-.07s-.03,0-.03,0v-.04s.01-.03.01-.03h.04s.03,0,.03,0l.04-.06h.03s.03,0,.03,0l.02.02v.04s-.07.02-.02.04l.05.02.02.02v.06s-.04.03-.04.03l.04.05h.03s.02-.04.02-.04l.02.04v.03s0,.03,0,.03h.04s.02,0,.02,0v-.08s.06.08.06.08l.03.05-.03.03-.02.03v.04s.01.03.01.03l.08.04.04.06v.04s0,.04,0,.04l.02.02v.03s.05,0,.05,0c0,0,.04-.04.03.01s0,.03-.01.05v.02s0,.02,0,.02l.08.02.03-.02.08.02s.03,0,.05.05l.02.05.08.09s.05-.03.05.04v.08s.01.04.01.04l.05.02h.02s-.03.07-.05.08h-.02s0,.06,0,.06v.11s-.04.05-.04.05l-.02.08.04.02v.04h.06v.05s0,.02,0,.02h-.04s0-.02,0-.02l-.03.04s-.02,0,0,.04c.01.04.01.03.01.03l.04.04.07.02.02.04.06.06v.03s-.06-.05-.03.05c.03.1.03.09.03.09v.04s.08.02.08.02v-.03s.09.03.09.03l.07.04h.05s.02.03.02.03h.05s.03-.01.03-.01v.08s0,.04,0,.04l.05.03h.04s.04.08.04.08h.05s-.03-.08-.03-.08l-.03-.04v-.05s.01-.01.01-.01l.03.07.07.03.03-.04.02-.02v-.06s-.09-.01-.09-.01v-.02s-.02-.07-.02-.07l-.03-.04-.03-.04v-.04s-.04-.03-.04-.03l-.04-.17-.04-.04-.02-.07-.02-.07.02-.06h.02s.01,0,.02.02v.02s.06.06.06.06l.02.02h.06s.03-.03.03-.03l.02-.02.03-.04.05-.02v-.05s.06-.02.06-.02h.06l.03.04.04.02.04.03.08-.02v.04s-.07-.02,0,.03l.07.05h.04s0,.01,0,.01l-.02.05-.02.02-.03.02-.02-.03h-.04s0,.04,0,.04v.06s0,.05,0,.05v.04s-.03.01-.03.01h-.02s-.04.04-.04.04l.02.03.02.02.05.02h.03s.02,0,.02,0l.03-.03-.02-.05.04-.05h.03s.03.01.03.01l-.02.06-.03.06.03.04-.04.03-.04.02-.04-.02h-.03s-.03.01-.03.01l-.02-.02-.03.03v.04s-.03.05,0,.06h.03s.03.01.03.01l.02-.04.03-.02.02.04v.06s.01.03.03.02h.02s.05-.01.05-.01l.05.04-.02.04h-.02s-.06-.01-.06-.01h-.03s0,.06,0,.06v.04s.03.02.03.02l.04-.02h0s0,.07,0,.07l.04.02-.03.02s.02.01,0,.04l-.02.02h-.04s-.01.06-.01.06l-.03.05h.07s.03-.05.03-.05l.02-.02.03-.06h.07s.09-.02.05,0l-.03.03h-.04s-.03.04-.03.04l.02.03h.06s-.01.04-.01.04c0,0,0-.03-.03.01-.04.05-.04.04-.04.04v.04s0,.03,0,.03l.03.02.07-.04v-.03s.02-.05.02-.05v-.07s.06-.02.06-.02v.05s.04.03.04.03h.02s.04-.04.04-.04v.05l-.03.04.02.06.06.04.05.02.03.02h.05s.03-.06.03-.06l.03-.05v-.08s.04-.04.04-.04h.05s.03.05.03.05l.13.06v.06s.05.08.05.08l.13.06.05-.03.04.02.07.03.03-.09.03-.03.06-.05.03.07.06.02.06.02.02-.04.04-.05h.03s.04.03.04.03v.05s-.07.02-.07.02v.06s-.01.04-.01.04l-.05.09-.02.07.06.12-.06.05v.04s.03.05.03.05l-.05.05-.08.17-.02.1-.06.08-.13.37-.08.07h-.07s.01-.04-.12-.01l-.13.03-.08-.17-.08-.03-.06-.05h-.12s-.07.06-.07.06l-.1.04-.06.06h-.08s-.05-.09-.05-.09l-.1-.02-.22-.16-.3-.06-.13-.2-.24-.09-.13-.22-.23.06-.21.03v.24s-.02.23-.02.23l-.16.03-.12-.15-.11-.18h-.23s-.14-.23-.14-.23l.03-.18-.19-.08-.18-.03-.32-.15-.14-.28.13-.23.09-.1-.04-.21.15-.26-.12-.07-.09.05-.03-.11s.07-.1-.17-.02l-.25.08-.2-.08-.29-.09-.59.03-.42.12-.22.11-.25-.07-.16-.14-.11.07-.08-.11h-.12l-.09.18-.13.17-.28.15-.3.19-.13.36.04.23-.21.28-.29.14-.34.12-.14.23-.26.12-.11.38-.28.23-.17.37-.19.23.03.18.17.06-.1.19-.04.14.02.27-.11.32-.09.18-.03.13-.19.25.1.3-.1.22-.04.21.1.18.11-.03.06.21.12.29.07.03-.04.45.24.41.23.31.21.39.23.22.24-.06.1-.12.4.03.17.2.2.06.09-.14.09.06.23-.16.2.02.47-.06.23.07.04.3v.23s.15.07.15.07l.08-.04.29.02.17.16.04.27-.06.4-.1.12-.02.19-.14.18-.07.35.33.94.14.27-.17.16.19.5-.11.26.12.52-.12.38-.19.08-.23.21-.06.43-.12.38-.05.31.08.29.02.14c2.04-.12,3.92-.81,5.5-1.92v-.33s.13-.08.13-.08l-.1-.23.26-.47.19-.38.18-.12.15-.13.12-.3.37-.24.38-.29.38-.3.31-.4.19-.25.23-.45.19-.3.08-.22.13-.08.06-.13-.1-.05.06-.22.06-.04-.14-.04-.04-.05-.04.11-.08.04-.12.03h-.09s-.17-.05-.17-.05h-.21s-.12.17-.12.17l-.17-.14-.12.09-.19-.05v-.16s-.05-.08-.05-.08h-.12l.03-.1.08-.03.06-.06-.02-.07.03-.17-.1-.05-.1-.08v-.12s-.07-.14-.07-.14l-.02-.1-.1-.1-.13-.06-.1-.17v-.29s-.05-.1-.05-.1l.05-.24-.12-.09-.1.02-.19-.96v-.98s-.29-.65-.29-.65l-.13-.72.15-.08.33.47.11.25s.15.32.22.85l.07.53.26.78.46.8-.15.63.15.66.61-.07.7-.23.32-.16v-.25l.48.03.22-.14.08-.09c.16-.7.24-1.42.26-2.16l-.24.33Zm-15.65-9.94v.04l.19.1.17.04s.07.12.18-.1l.11-.22.13-.12.19-.07-.12.37.11.16.11.14-.22.22.09.18.16.04.02.11.23.08.04.1-.06.12.02.1.18.06-.14.23.04.14s-.18-.07-.31.07l-.13.14h-.11s-.29.15-.29.15l-.07.1-.33-.02-.04-.11-.37-.03-.19.11-.13.11-.38.06-.09.17-.11.13-.26.2h.26l.23-.2.16-.15.15-.08.14-.04.12-.02h.22s.11.04.11.04l-.14.21-.22.14-.02.16.14.18.2.1.06-.04.17-.11.06-.21h.2s-.2.14-.13.22l.07.08-.06.16-.2.05-.06.11-.28.04-.18-.03-.07.13-.2.14h-.17s0-.13,0-.13l.23-.11.05-.13s-.01-.16-.12-.04c-.11.12-.1.09-.1.09l-.15.07-.24.07-.14-.02s-.04-.06-.18.14l-.13.21.02.1-.12.03.09.12.14-.05.02.12-.07.06-.12.03h-.08s-.08-.04-.08-.04l-.04-.02-.23.02-.05.11.13.08-.11.06h-.16s-.01.22-.01.22l-.19.09-.03.11-.08-.12-.07-.05.03.12.07.1-.07.11-.09.11-.09.12s-.07.03-.01-.09c.05-.12.09-.04.05-.12l-.04-.08s.04-.36-.03-.01c-.04.18-.08.18-.1.17,0,0,.02.03.03.06.02.03.03.06.04.07.02,0,.06.02.06.12v.16s-.12.06-.12.06v.11s-.06.08-.06.08l-.07-.03-.02.09-.08.08h-.08s-.08.07-.08.07l-.04.1-.11.02-.06.05-.09.15-.25.15s-.08-.09-.13.13c-.05.22-.05.21-.05.21l-.06.12.04.17.03.18-.04.09.07.08-.03.12v.18s.08.08.08.08l-.07.14-.1.11v.12s-.09.03-.09.03l-.08-.06-.05-.15-.07-.08v-.19s-.08-.07-.06-.15l.02-.08.06-.18v-.17s-.07-.01-.07-.01l-.11-.13-.04-.08-.07.05v.05s0,.07,0,.07h-.08s-.06-.1-.06-.1l-.02-.08-.12-.04v.04s-.11-.03-.11-.03l-.07.05-.08-.02.03-.11s-.08-.05-.08,0v.06h-.03c.73-2.94,2.67-5.4,5.26-6.83Zm.87,19.26c-2.83-1.23-5.02-3.65-5.96-6.63v-.02s.03-.03.03-.03l.09-.04v-.04s-.03-.04-.03-.04v-.06s0-.01,0-.01l.04-.02.03-.03v-.07s0-.07,0-.07l.06-.03.06-.03.05-.03v-.05s0-.06,0-.06l.11-.12-.03-.02-.04.03-.04-.02s-.02,0-.02,0c0,0,0,0-.02-.03-.04-.05.02.02,0-.04-.01-.07,0-.06,0-.06l.04.02h.03s0-.07,0-.07l.05-.03-.02-.08c-.02-.08-.03-.09-.03-.09l-.02-.07.02-.03h.03s0-.06,0-.06l-.04-.04v-.05s.03-.04.03-.04v-.1s-.06-.1-.06-.1l-.11-.14v-.1s0-.09,0-.09l-.04-.02-.02-.06h-.06s-.05,0-.05,0l-.05.16h-.05s-.04,0-.04,0l-.03.02.04.04-.02.02s.05.06.05.06l.02.05v.03s-.04.05-.04.05h-.03s-.1,0-.1,0l-.03-.03s.02-.07.02-.07h-.07s0,.06,0,.06h-.04s-.04-.01-.04-.01v-.05s.01-.03.01-.03h.02s.02-.04.02-.04l.02-.04h-.05s-.05-.01-.05-.01l-.03-.05h0c-.01-.11-.02-.21-.03-.32,0,0,.01.01.04.03.04.04,0,.04,0,.04v.04s.01,0,.06,0c.05,0,.05,0,.05,0l.04.02.02.06h.06l.07-.06.02-.05h.08s.03-.04.03-.04l.02-.04s.02-.04.02-.04h.05s.06.02.06.02v.04s.01.02.01.02h.07s.1.02.1.02l.05.09.08.11.03.08v.06c-.03.06.03.03.03.03l.04-.04v-.06s-.05-.05-.05-.05v-.04s.02-.03.02-.03l.07-.03.03-.09.08-.05h.06s0-.04,0-.04l-.02-.08.03-.19.06-.05.06-.06h.03l.06.04.02-.02-.02-.08.06-.03.05.04h.09s.06-.07.06-.07l.03-.06.08-.02v-.06s.05-.11.05-.11l.11.03.06.08-.02.09-.06.07h-.08s0,.08,0,.08l.05.03.03-.07.04.07.03-.07h.09s.05-.03.05-.03v-.05s-.03-.07-.03-.07v-.06l.05-.06c.05-.06.06,0,.06,0l.03.07c.03.07-.03.04-.03.04v.06s.13.03.13.03l.17.07-.04.1.04.07.18-.02.09-.03.18.16h.09l.08-.12-.1-.13.09-.07.14-.02h.11l.18.09-.18.13.07.09h.11s.14-.01.14-.01l.11.14-.06.08-.08.14.25.12.18.41.16.08.31.15.21.31-.03.44-.17.57v.32s0-.32.2.41l.12.19.31.17-.15.23-.09.28.09.28h.3l.05.28.05.37.08.13.21.09-.04.47.15.75-.25.45.14.05.24.23-.06.28-.31.2.14.17.33.21.23.23.05.57c0,.07,0,.12,0,.17Z"/>
                  <path class="cls-68" d="m40.22,69.3c-.5.64-1.81.46-2.93-.41-1.12-.87-1.63-2.09-1.14-2.74s1.81-.46,2.93.41c1.12.87,1.63,2.09,1.14,2.74Z"/>
                  <path class="cls-58" d="m33.39,64.06c-5.93,0-10.73,4.81-10.73,10.73s4.81,10.73,10.73,10.73,10.73-4.81,10.73-10.73-4.81-10.73-10.73-10.73Zm-6,16.53c-3.98-3.93-4.25-10.11-.61-13.8,3.64-3.69,9.82-3.49,13.8.44,3.98,3.93,4.25,10.11.61,13.8-3.64,3.69-9.82,3.49-13.8-.44Z"/>
                </g>
              </g>
              <path class="cls-5" d="m44.22,71.17c1.04.23,2.07.52,3.05,1.11.48.3.98.67,1.33,1.27.36.6.43,1.44.22,2.11-.45,1.33-1.31,2.19-2.13,2.98-.42.39-.86.75-1.3,1.08-.22.17-.45.34-.67.5l-.34.24-.17.12c-.06.04-.14.03-.05.35l-1.73-3.41c.2.26.23.18.29.17l.17-.06.35-.13c.24-.08.46-.18.68-.27.46-.18.89-.38,1.31-.6.82-.43,1.63-.96,2-1.57.17-.3.24-.57.15-.91-.1-.34-.36-.72-.7-1.04-.7-.64-1.61-1.16-2.55-1.52l.1-.39Z"/>
              <g>
                <g>
                  <polygon class="cls-29" points="40.87 83.83 44.82 81.55 44.82 77.01 40.87 79.29 40.87 83.83"/>
                  <polygon class="cls-18" points="44.82 77.01 40.87 79.29 43 78.15 44.82 77.01"/>
                  <polygon class="cls-49" points="40.87 83.83 36.91 81.55 36.91 77.01 40.87 79.29 40.87 83.83"/>
                  <polygon class="cls-36" points="40.87 79.29 36.91 77.01 40.87 74.72 44.82 77.01 40.87 79.29"/>
                  <polygon class="cls-26" points="42.65 80.06 43.29 79.69 43.29 77.9 42.65 78.26 42.65 80.06"/>
                  <polygon class="cls-42" points="42.65 78.26 38.69 75.98 39.33 75.61 43.29 77.9 42.65 78.26"/>
                  <polygon class="cls-18" points="36.91 77.01 40.87 79.29 38.73 78.15 36.91 77.01"/>
                  <polygon class="cls-17" points="39.15 80.1 38.51 79.73 38.51 77.94 39.15 78.3 39.15 80.1"/>
                  <polygon class="cls-67" points="39.15 78.3 43.11 76.02 42.47 75.65 38.51 77.94 39.15 78.3"/>
                  <polygon class="cls-35" points="38.86 78.13 42.81 75.85 42.77 75.82 38.81 78.11 38.86 78.13"/>
                  <polygon class="cls-49" points="39.15 78.3 39.15 78.38 38.76 78.17 38.51 78.01 38.51 77.94 39.15 78.3"/>
                </g>
                <polygon class="cls-49" points="43 78.15 42.65 78.34 42.65 78.26 43.29 77.9 43.29 77.97 43 78.15"/>
              </g>
              <path class="cls-5" d="m39.12,80.91c.18.79-.36,1.56-1.16,1.67-2.01.28-3.98.42-6,.44-2.49.02-5.01-.16-7.47-.73-1.23-.29-2.44-.69-3.59-1.24-.58-.27-1.13-.6-1.66-.96-.53-.37-1.08-.82-1.44-1.46-.18-.32-.29-.7-.3-1.09-.02-.39.09-.75.23-1.07.29-.65.75-1.13,1.22-1.55.96-.84,2.04-1.44,3.17-1.96l.17.36c-1.04.58-2.05,1.27-2.87,2.1-.4.42-.76.88-.92,1.37-.18.49-.12.95.15,1.34.56.79,1.71,1.32,2.76,1.75,1.08.42,2.22.7,3.38.88,2.32.35,4.71.34,7.07.14,2-.18,4.03-.49,5.96-.93.57-.13,1.13.22,1.26.78l.04.15Z"/>
            </g>
            <g>
              <path class="cls-52" d="m112.37,38.06c-.81-.47-1.32-1.37-1.62-2.12l-1.6-4,1.73-1,3.16,7.89c.07.17.17.29.3.37l-1.97-1.13Z"/>
              <path class="cls-50" d="m115.26,39.1h0c.92-.53,1.55-1.95,1.23-2.75l-2.89-7.21-2.73,1.8,3.16,7.89c.07.17.17.29.3.37.24.14.57.11.93-.09Z"/>
              <g>
                <path class="cls-8" d="m117.48,17.73h0c1.61.93,1.76,2.4.37,3.43l-4.42,3.27-5.32,3.07-7.58-4.37,5.32-3.07,5.67-2.55c1.79-.81,4.34-.71,5.95.21Z"/>
                <path class="cls-16" d="m118.8,19.55h0s0,2.2,0,2.2c0,1.21-.46,2.39-1.28,3.28l-2.86,3.1c-.82.89-1.77,1.65-2.82,2.25l-3.73,2.15v-5.01l5.32-3.07,4.42-3.27c.64-.48.96-1.05.95-1.62Z"/>
              </g>
              <g>
                <path class="cls-52" d="m99.92,26.13c-1.09-.97-1.42-1.19-1.42-1.81l.48-.28.94.59v1.5Z"/>
                <path class="cls-46" d="m106.4,28.28l2.34,2.94c0,1.15-.7,1.67-1.56,1.18l-5.7-3.29c-.86-.5-1.56-1.83-1.56-2.98v-1.5l6.48,3.65Z"/>
                <polygon class="cls-38" points="101.26 27.04 107.39 30.57 95.61 42.99 81.36 34.76 101.26 27.04"/>
                <polygon class="cls-37" points="101.28 25.98 107.39 29.5 107.39 30.58 101.28 27.06 101.28 25.98"/>
                <polygon class="cls-38" points="101.26 25.97 107.39 29.5 95.61 40.08 81.36 31.85 101.26 25.97"/>
                <polygon class="cls-39" points="81.36 31.85 81.36 34.76 95.61 42.99 95.61 40.08 81.36 31.85"/>
                <path class="cls-50" d="m100.47,23.18c.27-.16.63-.14,1.02.08l5.7,3.29c.86.5,1.56,1.83,1.56,2.97v1.69l-1.23-.35c-.41-.12-.72-.46-.81-.88-.2-.95-.79-1.9-1.48-2.3l-5.7-3.29c-.39-.23-.75-.24-1.02-.08l1.97-1.14Z"/>
              </g>
            </g>
            <g>
              <g>
                <g>
                  <polygon class="cls-49" points="95.01 43.13 94.89 43.47 89.46 41.79 72.43 31.97 95.01 43.13"/>
                  <polygon class="cls-49" points="72.43 31.97 54.65 42.24 47.29 42.7 47.19 42.33 72.43 31.97"/>
                  <polygon class="cls-57" points="60.77 46.62 71.68 66.71 60.01 66.71 42.98 56.89 60.77 46.62"/>
                  <polygon class="cls-29" points="71.68 66.71 89.46 56.45 89.46 41.42 71.68 51.69 71.68 66.71"/>
                  <polygon class="cls-18" points="89.46 41.42 71.68 51.69 81.09 46.56 89.46 41.42"/>
                  <polygon class="cls-49" points="71.68 66.71 54.64 56.88 54.64 41.85 71.68 51.69 71.68 66.71"/>
                  <g>
                    <path class="cls-18" d="m70.8,65.31l-3.82-2.21v-4.39l3.82,2.21v4.39Zm-3.57-2.35l3.32,1.92v-3.81l-3.32-1.92v3.81Z"/>
                    <g>
                      <polygon class="cls-18" points="69.31 63.91 68.46 63.42 68.46 61.21 69.31 61.7 69.31 63.91"/>
                      <polygon class="cls-18" points="70.14 62.6 67.63 61.15 68.88 60.37 70.14 62.6"/>
                    </g>
                  </g>
                  <polygon class="cls-32" points="49.1 49.98 71.68 51.69 71.68 52.06 66.26 60 49.23 50.18 49.1 49.98"/>
                  <polygon class="cls-32" points="96.78 50.71 79 60.98 71.68 52.06 71.68 51.69 96.92 50.5 96.78 50.71"/>
                  <polygon class="cls-34" points="54.65 41.86 71.68 51.69 66.13 59.81 49.1 49.98 54.65 41.86"/>
                  <polygon class="cls-34" points="77.98 33.3 95.01 43.13 89.46 41.42 72.43 31.59 77.98 33.3"/>
                  <polygon class="cls-36" points="72.44 31.59 89.47 41.42 71.68 51.69 54.65 41.86 72.44 31.59"/>
                  <polygon class="cls-29" points="55.09 41.85 72.43 31.84 89.01 41.41 71.67 51.42 55.09 41.85"/>
                  <polygon class="cls-9" points="96.92 50.5 79.14 60.77 71.68 51.69 89.46 41.42 96.92 50.5"/>
                  <polygon class="cls-36" points="72.43 31.6 54.65 41.86 47.19 42.33 64.98 32.07 72.43 31.6"/>
                  <polygon class="cls-35" points="81.05 46.34 80.91 46.42 80.85 46.38 81 46.3 81.05 46.34"/>
                </g>
                <polygon class="cls-51" points="68.34 49.5 71.67 51.42 75.76 49.06 72.43 47.14 68.34 49.5"/>
                <polygon class="cls-49" points="72.43 47.14 72.43 31.84 89.01 41.41 75.76 49.06 72.43 47.14"/>
                <polygon class="cls-13" points="84.48 44.03 71.67 51.42 63.93 46.95 62 45.84 59.96 44.66 61.62 44.29 64.28 42.07 67.48 41.05 69.51 39.33 72.44 38.38 74.09 38.68 75.76 39.74 78.16 40.45 80.39 41.42 82.37 43.07 84.48 44.03"/>
              </g>
              <path class="cls-41" d="m65.25,43.89h-1.17c-.42,0-.77.35-.77.77s.35.77.77.77h1.17c.42,0,.77-.35.77-.77s-.35-.77-.77-.77Z"/>
              <path class="cls-41" d="m70.17,49.08l1.04-.53c.38-.19.53-.66.33-1.03-.19-.38-.66-.53-1.03-.33l-1.04.53c-.38.19-.53.66-.33,1.03.19.38.66.53,1.03.33Z"/>
              <path class="cls-41" d="m73.8,42.87l.68.95c.25.34.73.43,1.07.18.34-.25.43-.73.18-1.07l-.68-.95c-.25-.34-.73-.43-1.07-.18-.34.25-.43.73-.18,1.07Z"/>
              <path class="cls-41" d="m78.58,45.05l1.04-.53c.38-.19.53-.66.33-1.03-.19-.38-.66-.53-1.03-.33l-1.04.53c-.38.19-.53.66-.33,1.03.19.38.66.53,1.03.33Z"/>
              <path class="cls-10" d="m73.06,48.44l1.15.22c.42.08.82-.2.9-.61.08-.42-.2-.82-.61-.9l-1.15-.22c-.42-.08-.82.2-.9.61-.08.42.2.82.61.9Z"/>
              <path class="cls-10" d="m70.88,44.47l-.89.76c-.32.27-.36.76-.09,1.08.27.32.76.36,1.08.09l.89-.76c.32-.27.36-.76.09-1.08-.27-.32-.76-.36-1.08-.09Z"/>
              <path class="cls-10" d="m72.7,38.56l-.89.76c-.32.27-.36.76-.09,1.08.27.32.76.36,1.08.09l.89-.76c.32-.27.36-.76.09-1.08-.27-.32-.76-.36-1.08-.09Z"/>
              <path class="cls-6" d="m77.29,44.53l-.98-.63c-.36-.23-.83-.12-1.06.23-.23.36-.12.83.23,1.06l.98.63c.36.23.83.12,1.06-.23.23-.36.12-.83-.23-1.06Z"/>
              <path class="cls-6" d="m78.85,44.79l-.8.85c-.29.31-.28.8.03,1.09.31.29.8.28,1.09-.03l.8-.85c.29-.31.28-.8-.03-1.09-.31-.29-.8-.28-1.09.03Z"/>
              <path class="cls-6" d="m75.67,40.12l-.98-.63c-.36-.23-.83-.12-1.06.23-.23.36-.12.83.23,1.06l.98.63c.36.23.83.12,1.06-.23.23-.36.12-.83-.23-1.06Z"/>
              <path class="cls-6" d="m66.88,45.36l-1.16-.06c-.42-.02-.78.31-.81.73-.02.42.31.78.73.81l1.16.06c.42.02.78-.31.81-.73.02-.42-.31-.78-.73-.81Z"/>
              <path class="cls-6" d="m70.52,39.58l-1.16-.06c-.42-.02-.78.31-.81.73-.02.42.31.78.73.81l1.16.06c.42.02.78-.31.81-.73.02-.42-.31-.78-.73-.81Z"/>
              <path class="cls-4" d="m77.99,40.9l-1.02.56c-.37.2-.51.67-.31,1.04.2.37.67.51,1.04.31l1.02-.56c.37-.2.51-.67.31-1.04-.2-.37-.67-.51-1.04-.31Z"/>
              <path class="cls-4" d="m71.85,48.86l-1.15.2c-.42.07-.7.47-.63.89.07.42.47.7.89.63l1.15-.2c.42-.07.7-.47.63-.89-.07-.42-.47-.7-.89-.63Z"/>
              <path class="cls-4" d="m64.35,46.13c.06.34-.13.68-.42.82l-1.93-1.11c.09-.07.2-.11.31-.13l1.15-.2c.42-.08.82.21.89.62Z"/>
              <path class="cls-4" d="m82.36,42.93l-1.15.2c-.42.07-.7.47-.63.89.07.42.47.7.89.63l1.15-.2c.42-.07.7-.47.63-.89-.07-.42-.47-.7-.89-.63Z"/>
              <path class="cls-4" d="m70.84,41.13l-1.15.2c-.42.07-.7.47-.63.89.07.42.47.7.89.63l1.15-.2c.42-.07.7-.47.63-.89-.07-.42-.47-.7-.89-.63Z"/>
              <path class="cls-4" d="m67.22,41.74l-1.16-.06c-.42-.02-.78.31-.81.73-.02.42.31.78.73.81l1.16.06c.42.02.78-.31.81-.73.02-.42-.31-.78-.73-.81Z"/>
              <path class="cls-14" d="m69.15,45.1l-.98-.63c-.36-.23-.83-.12-1.06.23-.23.36-.12.83.23,1.06l.98.63c.36.23.83.12,1.06-.23.23-.36.12-.83-.23-1.06Z"/>
              <path class="cls-14" d="m71.53,44.32l1.12-.33c.41-.12.64-.55.52-.95-.12-.41-.55-.64-.95-.52l-1.12.33c-.41.12-.64.55-.52.95.12.41.55.64.95.52Z"/>
              <path class="cls-14" d="m73.81,46.85l1.12-.33c.41-.12.64-.55.52-.95-.12-.41-.55-.64-.95-.52l-1.12.33c-.41.12-.64.55-.52.95.12.41.55.64.95.52Z"/>
              <path class="cls-14" d="m73.9,41.55l.57-1.02c.21-.37.07-.84-.3-1.04-.37-.21-.84-.07-1.04.3l-.57,1.02c-.21.37-.07.84.3,1.04.37.21.84.07,1.04-.3Z"/>
              <path class="cls-14" d="m62.56,44.37l.83-.82c.3-.3.3-.79,0-1.09-.3-.3-.79-.3-1.09,0l-.83.82c-.3.3-.3.79,0,1.09.3.3.79.3,1.09,0Z"/>
              <path class="cls-14" d="m76.75,47.83l1.12-.33c.41-.12.64-.55.52-.95-.12-.41-.55-.64-.95-.52l-1.12.33c-.41.12-.64.55-.52.95.12.41.55.64.95.52Z"/>
              <path class="cls-31" d="m48.4,51.69h-1.17c-.42,0-.77.35-.77.77s.35.77.77.77h1.17c.42,0,.77-.35.77-.77s-.35-.77-.77-.77Z"/>
              <path class="cls-31" d="m90.65,63.5l1.14-.22c.41-.08.69-.49.61-.9-.08-.41-.49-.69-.9-.61l-1.14.22c-.41.08-.69.49-.61.9.08.41.49.69.9.61Z"/>
              <path class="cls-31" d="m74.75,71.55l1.04-.53c.38-.19.53-.66.33-1.03-.19-.38-.66-.53-1.03-.33l-1.04.53c-.38.19-.53.66-.33,1.03.19.38.66.53,1.03.33Z"/>
              <path class="cls-43" d="m66.26,68.3l1.15.22c.42.08.82-.2.9-.61.08-.42-.2-.82-.61-.9l-1.15-.22c-.42-.08-.82.2-.9.61-.08.42.2.82.61.9Z"/>
              <path class="cls-43" d="m80.13,65.76l-.89.76c-.32.27-.36.76-.09,1.08.27.32.76.36,1.08.09l.89-.76c.32-.27.36-.76.09-1.08-.27-.32-.76-.36-1.08-.09Z"/>
              <path class="cls-6" d="m72.98,70.69l-.98-.63c-.36-.23-.83-.12-1.06.23-.23.36-.12.83.23,1.06l.98.63c.36.23.83.12,1.06-.23.23-.36.12-.83-.23-1.06Z"/>
              <path class="cls-31" d="m60.38,63.42l1.15.22c.42.08.82-.2.9-.61.08-.42-.2-.82-.61-.9l-1.15-.22c-.42-.08-.82.2-.9.61-.08.42.2.82.61.9Z"/>
              <path class="cls-6" d="m57.44,61.23l-.89.76c-.32.27-.36.76-.09,1.08.27.32.76.36,1.08.09l.89-.76c.32-.27.36-.76.09-1.08-.27-.32-.76-.36-1.08-.09Z"/>
              <path class="cls-6" d="m70.99,68.11l-.98-.63c-.36-.23-.83-.12-1.06.23-.23.36-.12.83.23,1.06l.98.63c.36.23.83.12,1.06-.23.23-.36.12-.83-.23-1.06Z"/>
              <path class="cls-6" d="m86.74,64.6l1.07.47c.39.17.84,0,1.01-.39.17-.39,0-.84-.39-1.01l-1.07-.47c-.39-.17-.84,0-1.01.39-.17.39,0,.84.39,1.01Z"/>
              <path class="cls-31" d="m85.53,68.34l1.05-.5c.38-.18.54-.64.36-1.03-.18-.38-.64-.54-1.03-.36l-1.05.5c-.38.18-.54.64-.36,1.03.18.38.64.54,1.03.36Z"/>
              <path class="cls-6" d="m50.78,54.07l-1.16-.06c-.42-.02-.78.31-.81.73-.02.42.31.78.73.81l1.16.06c.42.02.78-.31.81-.73.02-.42-.31-.78-.73-.81Z"/>
              <path class="cls-27" d="m46.29,54.13l-.98-.63c-.36-.23-.83-.12-1.06.23-.23.36-.12.83.23,1.06l.98.63c.36.23.83.12,1.06-.23.23-.36.12-.83-.23-1.06Z"/>
              <path class="cls-27" d="m90.21,66.26h1.17c.42,0,.77-.35.76-.78,0-.42-.35-.77-.77-.76h-1.17c-.42,0-.77.36-.76.78,0,.42.35.77.77.76Z"/>
            </g>
          </g>
        </g>
      </g>
    </g>
  </g>
</svg>