<?xml version="1.0" encoding="UTF-8"?>
<svg xmlns="http://www.w3.org/2000/svg" xmlns:xlink="http://www.w3.org/1999/xlink" viewBox="0 0 135.8 143.44">
  <defs>
    <style>
      .cls-1 {
        fill: none;
      }

      .cls-2 {
        clip-path: url(#clippath);
      }

      .cls-3 {
        fill: #f0f7fa;
      }

      .cls-4 {
        fill: #f5d133;
      }

      .cls-5 {
        fill: #ebd2c2;
      }

      .cls-6 {
        fill: #eec4ba;
      }

      .cls-7 {
        fill: #fff;
      }

      .cls-8 {
        fill: #fefeff;
      }

      .cls-9 {
        fill: #e5e7ed;
      }

      .cls-10 {
        fill: #989694;
      }

      .cls-11 {
        fill: #969ca7;
      }

      .cls-12 {
        fill: #926d33;
      }

      .cls-13 {
        fill: #9c9a99;
      }

      .cls-14 {
        fill: #92918f;
      }

      .cls-15 {
        fill: #c1bfbb;
      }

      .cls-16 {
        fill: #b6b4b2;
      }

      .cls-17 {
        fill: #bb9072;
      }

      .cls-18 {
        fill: #333949;
      }

      .cls-19 {
        fill: #8e8c8a;
      }

      .cls-20 {
        fill: #cee6f2;
      }

      .cls-21 {
        fill: #b1afad;
      }

      .cls-22 {
        fill: #bd8b34;
      }

      .cls-23 {
        fill: #bbb9b7;
      }

      .cls-24 {
        fill: #a7a5a3;
      }

      .cls-25 {
        fill: #d9632f;
      }

      .cls-26 {
        fill: #c1a525;
      }

      .cls-27 {
        fill: #c18579;
      }

      .cls-28 {
        fill: #aba9a7;
      }

      .cls-29 {
        fill: #c59b7c;
      }

      .cls-30 {
        fill: #cbd0da;
      }

      .cls-31 {
        fill: #cac9c5;
      }

      .cls-32 {
        fill: #dbb9a3;
      }

      .cls-33 {
        fill: #d45c40;
      }

      .cls-34 {
        fill: #d2a683;
      }

      .cls-35 {
        fill: #c79b7b;
      }

      .cls-36 {
        fill: #c64437;
      }

      .cls-37 {
        fill: #c4c2bf;
      }

      .cls-38 {
        fill: #d65447;
      }

      .cls-39 {
        fill: #db6d39;
      }

      .cls-40 {
        fill: #e0dcd8;
      }

      .cls-41 {
        fill: #acafb8;
      }

      .cls-42 {
        fill: #c5c4c0;
      }

      .cls-43 {
        fill: #21262e;
      }

      .cls-44 {
        fill: #211815;
      }

      .cls-45 {
        fill: #3f8c85;
      }

      .cls-46 {
        fill: #a2a09f;
      }

      .cls-47 {
        fill: #6ebab2;
      }

      .cls-48 {
        fill: #888785;
      }

      .cls-49 {
        fill: #59accf;
      }

      .cls-50 {
        fill: #476baa;
      }

      .cls-51 {
        fill: #3a807b;
      }

      .cls-52 {
        fill: #3d3a39;
      }

      .cls-53 {
        fill: #838280;
      }

      .cls-54 {
        fill: #73bed5;
      }

      .cls-55 {
        fill: #505663;
      }

      .cls-56 {
        fill: #79c0dc;
      }

      .cls-57 {
        fill: #526563;
      }

      .cls-57, .cls-58 {
        mix-blend-mode: multiply;
      }

      .cls-59 {
        clip-path: url(#clippath-1);
      }

      .cls-60 {
        clip-path: url(#clippath-4);
      }

      .cls-61 {
        clip-path: url(#clippath-3);
      }

      .cls-62 {
        clip-path: url(#clippath-2);
      }

      .cls-63 {
        clip-path: url(#clippath-7);
      }

      .cls-64 {
        clip-path: url(#clippath-8);
      }

      .cls-65 {
        clip-path: url(#clippath-6);
      }

      .cls-66 {
        clip-path: url(#clippath-5);
      }

      .cls-58 {
        fill: #eeeeef;
        opacity: .57;
      }

      .cls-67 {
        clip-path: url(#clippath-22);
      }

      .cls-68 {
        clip-path: url(#clippath-25);
      }

      .cls-69 {
        clip-path: url(#clippath-19);
      }

      .cls-70 {
        isolation: isolate;
      }
    </style>
    <clipPath id="clippath">
      <path class="cls-1" d="m78.11,40.45l-.32-.19s-.05-.05-.05-.1c0-2.02-.3-3.72-.81-4.98-.41-1.02-.96-1.75-1.59-2.12l.32.19c.63.37,1.18,1.09,1.6,2.12.5,1.26.8,2.96.81,4.97,0,.05.02.09.05.1Z"/>
    </clipPath>
    <clipPath id="clippath-1">
      <path class="cls-1" d="m75.57,32.67l.32.19c-.15-.09-.31-.16-.48-.21-.59-.18-1.24-.1-1.94.3l-.32-.19c.69-.4,1.35-.49,1.94-.31.16.05.32.12.48.21Z"/>
    </clipPath>
    <clipPath id="clippath-2">
      <path class="cls-1" d="m68.67,45.9l-.32-.19s-.05-.05-.05-.1c0-2.06.29-4.15.8-6.04.51-1.89,1.24-3.59,2.12-4.87.59-.86,1.24-1.53,1.93-1.93l.32.19c-.69.4-1.35,1.07-1.93,1.93-.88,1.28-1.61,2.99-2.12,4.88-.51,1.89-.8,3.98-.8,6.04,0,.05.02.08.05.1Z"/>
    </clipPath>
    <clipPath id="clippath-3">
      <path class="cls-1" d="m81.5,42.04l-.24-.14s-.04-.04-.04-.08c0-2.02-.31-3.73-.81-4.99-.41-1.03-.96-1.76-1.6-2.13l.24.14c.64.37,1.19,1.1,1.6,2.13.51,1.26.81,2.97.81,4.99,0,.04.01.06.04.08Z"/>
    </clipPath>
    <clipPath id="clippath-4">
      <path class="cls-1" d="m78.98,34.41l.24.14c-.15-.09-.31-.16-.47-.2-.58-.18-1.23-.09-1.91.3l-.24-.14c.68-.39,1.33-.48,1.91-.3.16.05.32.12.47.21Z"/>
    </clipPath>
    <clipPath id="clippath-5">
      <path class="cls-1" d="m72.06,47.49c-.08-.05-.16-.09-.24-.14-.02-.01-.03-.04-.03-.08,0-2.05.29-4.13.8-6.02.51-1.89,1.24-3.57,2.11-4.85.58-.85,1.23-1.51,1.91-1.9l.24.14c-.68.39-1.33,1.06-1.91,1.9-.87,1.27-1.59,2.96-2.11,4.85-.51,1.88-.8,3.97-.8,6.02,0,.04.01.06.04.08Z"/>
    </clipPath>
    <clipPath id="clippath-6">
      <path class="cls-26" d="m52.97,16.56l1.24.72c-.44-.26-1.06-.22-1.74.17l-1.24-.72c.68-.39,1.29-.43,1.74-.17Z"/>
    </clipPath>
    <clipPath id="clippath-7">
      <path class="cls-26" d="m24.21,50.09l-1.24-.72c-.44-.26-.71-.8-.71-1.56l1.24.72c0,.77.28,1.31.71,1.56Z"/>
    </clipPath>
    <clipPath id="clippath-8">
      <path class="cls-26" d="m23.47,37.01l-1.24-.72c0-1.54,1.09-3.44,2.43-4.21l1.24.72c-1.34.77-2.44,2.67-2.43,4.21Z"/>
    </clipPath>
    <clipPath id="clippath-19">
      <path class="cls-38" d="m94.78.81l-1.16-.68c-.37-.21-.87-.18-1.43.14l1.16.68c.56-.32,1.07-.35,1.43-.14Z"/>
    </clipPath>
    <clipPath id="clippath-22">
      <path class="cls-38" d="m65.9,31.31l1.16.68c-.36-.21-.59-.66-.59-1.29l-1.16-.68c0,.63.23,1.08.59,1.29Z"/>
    </clipPath>
    <clipPath id="clippath-25">
      <path class="cls-38" d="m68.45,15.33l-1.16-.68c-1.11.64-2.01,2.21-2.01,3.48l1.16.68c0-1.27.9-2.84,2.01-3.48Z"/>
    </clipPath>
  </defs>
  <g class="cls-70">
    <g id="_レイヤー_2" data-name="レイヤー 2">
      <g id="_01" data-name="01">
        <g>
          <ellipse class="cls-20" cx="67.9" cy="103.95" rx="67.9" ry="39.49"/>
          <g>
            <g>
              <g>
                <g>
                  <path class="cls-9" d="m28.82,96.59s-.8,2.06-.47,2.89c.47,1.17,2.97,1.17,3.83,1.72.86.55,1.48,1.09,3.43,1.48,1.95.39,1.95.55,2.5.08s.78-1.64-.47-2.73c-1.25-1.09-5.07-3.51-5.46-4.53-.39-1.01-2.73-.23-3.36,1.09Z"/>
                  <path class="cls-41" d="m28.98,95.66s-.8,2.06-.47,2.89c.47,1.17,2.97,1.17,3.83,1.72.86.55,1.41,1.56,3.36,1.95,1.95.39,1.95.55,2.5.08.55-.47.7-1.56-1.33-3.12-1.32-1.01-4.14-3.59-4.53-4.61-.39-1.01-2.73-.23-3.36,1.09Z"/>
                  <path class="cls-9" d="m21.01,100.18s-.47,2.34-.08,3.28c.39.94,1.25,1.87,1.56,2.58.31.7.86,1.72,2.5,2.26,1.64.55,3.2,1.09,3.83.31.62-.78,0-1.95-.55-2.81-.55-.86-3.28-4.68-3.51-5.7-.23-1.01-3.75.08-3.75.08Z"/>
                  <path class="cls-41" d="m21.48,99.09s-1.09,1.56-.7,2.5c.39.94,1.64,1.95,1.95,2.65.31.7.55,2.97,2.19,3.51,1.64.55,3.51,1.09,4.14.31.62-.78-.23-2.58-.78-3.43-.55-.86-3.28-4.68-3.51-5.7-.23-1.01-3.28.16-3.28.16Z"/>
                  <path class="cls-43" d="m21.4,63.88s-2.34,1.95-2.03,3.2c.31,1.25.94,14.13.86,15.85-.08,1.72-1.64,4.68-1.64,7.18,0,2.5,1.48,9.13,1.48,9.13,0,0,.7,1.48,2.81.86,2.11-.62,1.95-.78,2.11-1.41.16-.62-.31-11.48.78-12.8,1.09-1.33,0,.08,1.72-5.54,1.72-5.62,2.11-13.82,1.87-15.07-.23-1.25-7.96-1.41-7.96-1.41Z"/>
                  <path class="cls-43" d="m25.93,67.08s2.73,10.62,1.95,14.36c-.78,3.75-.16,5.62.23,7.42.39,1.8.39,7.1.39,7.1,0,0,.47,1.17,2.89.78,2.42-.39,1.87-3.04,1.8-5-.08-1.95.47-9.6.78-12.02.31-2.42,2.03-5.31,1.48-10.62-.55-5.31-.78-4.68-.78-4.68l-8.74,2.65Z"/>
                </g>
                <g>
                  <path class="cls-6" d="m35.87,34.03s.04-.33-1.27-1.15c-1.31-.82-2.51-1.43-2.74-1.25-.24.17-1.15,1.4-1.37,1.91-.22.52-.71,1.44.33,1.63,1.04.19,1.03.34,1.03.34,0,0-.24.39-.59.43-.35.05-1.19-.21-1.6.04-.41.24-.75.45-.55.72.19.27.78.26,1.38.2.6-.06,1.46.13,1.84.19.38.05,2.46-.45,2.87-1.21.41-.76.68-1.84.68-1.84Z"/>
                  <path class="cls-43" d="m22.85,39.74s2.93-1.64,4.8-1.29c1.87.35,4.8,1.17,5.97.94,1.17-.23,3.98-1.05,5.62.12,1.64,1.17,1.17,2.11.23,3.51-.94,1.41-3.51,1.52-6.32,1.87-2.81.35-3.75.59-3.75.59,0,0-3.28,2.93-4.8,1.52-1.52-1.41-1.99-5.97-1.76-7.26Z"/>
                  <path class="cls-6" d="m34.21,33.3s6.09,5.39,6.44,7.49c.35,2.11-.94,3.16-2.11,3.04-1.17-.12-3.86-4.22-5.15-5.74-1.29-1.52-1.29-2.58-1.29-2.58,0,0,1.41-2.34,2.11-2.22Z"/>
                  <path class="cls-18" d="m18.99,41.26s2.46-1.41,3.86-1.52c1.41-.12,5.27,2.69,6.32,4.45,1.05,1.76,4.92,10.07,5.86,14.75.94,4.68.47,7.61.47,7.61,0,0-1.05,3.28-8.08,1.76-7.03-1.52-7.73-3.4-7.73-3.4v-4.68s-2.69-2.58-5.04-5.5c-2.34-2.93-4.68-6.56-3.16-8.67,1.52-2.11,7.49-4.8,7.49-4.8Z"/>
                </g>
                <path class="cls-55" d="m14.42,51.25l-2.93-5.19s-2.92,3.73-2.1,7.83c.82,4.1,8.8,9.95,10.2,10.31,1.41.35,1.98-4.21,1.98-4.21-4.26-3.62-4.86-5.41-7.16-8.74Z"/>
                <path class="cls-55" d="m16.95,32.31s1.93-.74,3.64,3.86c1.71,4.61,1.71,6.32,1.11,7.8-.59,1.49-2.23,2.75-2.23,2.75,0,0,.45-4.46-.45-6.39-.89-1.93-2.3-4.61-2.3-4.61l.22-3.42Z"/>
                <path class="cls-27" d="m17.61,38.6s.03,1.29.59,1.76c.56.47.65-.33,1.35,1.4.7,1.73,1.61,3.99-.62,4.75-2.22.76-3.6-1.02-4.54-2.17-.94-1.14-1.29-3.84-1.29-3.84l4.51-1.9Z"/>
                <g>
                  <path class="cls-39" d="m15.3,40.68s-.45,1.37-2.34.47c-1.89-.9-3.69-5.58-.9-7.71,2.79-2.13,4.96-1.23,6.05-.49,1.09.74,1.66,1.02,1.27,2.51-.39,1.49-4.08,5.22-4.08,5.22Z"/>
                  <path class="cls-6" d="m12.78,38.43c.14-.04-1.07-.81-1.09-.2-.02.6.27,1.5.93,2.02.66.52,1.04.36,1.04.36,0,0,.89,1.68,1.61,1.88.72.19,2.36.51,2.84.43s1.36-.43,1.57-.79c.21-.37.32-1.64.29-2.02-.03-.38-.06-1.09.04-1.66.1-.58-.21-.68-.18-1.39.04-.71-.35-2.32-.92-2.85-.57-.53.12.04-1.02.65-1.14.61-1.85-.28-2.68.15-.84.42-1.28,1.11-1.11,2.27.16,1.16-.15,2.11-.51,2.16-.37.05-.8-1-.8-1Z"/>
                </g>
                <path class="cls-55" d="m16.87,33.06s-.87.54-1.66,1.94c-.79,1.4-1.72,3.16-.94,5.71,1.41,4.61,5.43,5.95,5.43,5.95,0,0-3.64.45-5.05-.45-1.41-.89-1.78-1.56-1.78-1.56,0,0-4.16-6.47-2.16-10.33,2.01-3.86,6.99-1.78,6.99-1.78l1.26,1.04s-.52-.82-2.08-.52Z"/>
                <g>
                  <path class="cls-6" d="m21.63,59.74s1.53.06,2.83.54c1.3.47,4.61,2.72,4.61,2.72l.83,3.19s-8.39-.35-10.16-2.6c-1.77-2.24,1.89-3.84,1.89-3.84Z"/>
                  <path class="cls-6" d="m31.59,63.29s-.4-1.45-1.26-1.85c-.85-.4-.18-.97-.94-1.46-.76-.49-.83.03-.8.58.03.55.45.87.61,1.07.16.19.56.9.06,1.01-.49.11-.98-.23-1.06.74-.08.96.66,3.77,1.31,3.55.64-.22,2.36-.93,2.32-2.16-.05-1.23-.25-1.47-.25-1.47Z"/>
                </g>
              </g>
              <g>
                <g>
                  <g>
                    <path class="cls-41" d="m30.48,37.85v68.81c0,2.31,3.7,5.89,5.43,4.89l32.43-22.57c1.73-1,3.13-3.68,3.13-5.98l3.08-68.81c0-2.31-4.49-3.37-6.22-2.37l-34.73,20.05c-1.73,1-3.13,3.68-3.13,5.99Z"/>
                    <path class="cls-30" d="m34.19,39.99v68.81c0,2.31,1.4,3.37,3.13,2.37l34.73-20.05c1.73-1,3.13-3.68,3.13-5.98V16.33c0-2.31-1.4-3.37-3.13-2.37l-34.73,20.05c-1.73,1-3.13,3.68-3.13,5.99Z"/>
                    <path class="cls-8" d="m74.29,77.15V20.54c0-1.69-1.03-2.47-2.3-1.74l-34.6,19.98c-1.27.73-2.3,2.7-2.3,4.4v56.61c0,1.69,1.03,2.47,2.3,1.74l34.6-19.97c1.27-.73,2.3-2.7,2.3-4.4Z"/>
                    <path class="cls-7" d="m36.59,100.41c.35.2.78.17,1.21-.08l34.6-19.97c.17-.1.48-.31.69-.67.18-.31.39-.91.39-1.6V21.49c0-.75-.25-1.33-.69-1.58-.35-.2-.78-.17-1.21.08l-34.6,19.97c-.17.1-.48.31-.69.67-.18.31-.39.91-.39,1.6v56.61c0,.75.25,1.33.69,1.58Z"/>
                  </g>
                  <path class="cls-58" d="m34.19,108.81c0,2.31,1.4,3.37,3.13,2.37l34.73-20.05c1.73-1,3.13-3.68,3.13-5.98V16.33c0-2.31-1.4-3.37-3.13-2.37l-37.86,94.85Z"/>
                  <path class="cls-18" d="m54.9,27.18l5.75-3.32c.37-.21.67-.78.67-1.27s-.3-.72-.67-.5l-5.75,3.32c-.37.21-.67.78-.67,1.27,0,.49.3.72.67.5Z"/>
                  <g>
                    <path class="cls-47" d="m42.51,33.17c0,.68.48.95,1.07.61.59-.34,1.07-1.17,1.07-1.85,0-.68-.48-.95-1.07-.61-.59.34-1.07,1.17-1.07,1.85Z"/>
                    <path class="cls-18" d="m42.48,34.45c-.42-.24-.65-.71-.65-1.28,0-.93.61-1.97,1.41-2.44.5-.29,1.03-.32,1.44-.08.42.24.65.71.65,1.28,0,.93-.61,1.97-1.41,2.44-.27.16-.56.24-.82.24-.22,0-.43-.05-.62-.16Zm1.44-2.53c-.38.22-.73.82-.68,1.28.38-.22.73-.82.73-1.3-.01,0-.03.01-.05.02Z"/>
                  </g>
                </g>
                <g>
                  <g>
                    <path class="cls-34" d="m53.55,61.5s8.83,10.44,16.51,12.68c1.35.39,5.97,3.74,8.89,2.61-2.31-1.26-1.74-3.17-3.13-5.11-.53-.75-1.04-1.52-1.51-2.32-.81-.83-1.56-1.72-2.18-2.69-1.47-2.3-2.59-5.02-2.87-7.77-1.11-.47-2.55-1.15-3.49-1.23-1.39-.13-2.74.07-3.84-.2-1.1-.26-3.74-2.22-3.74-2.22l-4.64,6.25Z"/>
                    <path class="cls-32" d="m64.7,58.42s.99,6.67-5.7,3.65c-.07-.03,1.64.6,2.92,1.42.96.61,1.53,1.49,1.53,1.49,1.47-2.35,1.99-4.63,1.25-6.55Z"/>
                    <g>
                      <g class="cls-70">
                        <g class="cls-70">
                          <g class="cls-2">
                            <g class="cls-70">
                              <path class="cls-53" d="m78.11,40.45l-.32-.19s-.05-.05-.05-.1c0-2.02-.3-3.72-.81-4.98-.41-1.02-.96-1.75-1.59-2.12l.32.19c.63.37,1.18,1.09,1.6,2.12.5,1.26.8,2.96.81,4.97,0,.05.02.09.05.1h0Z"/>
                            </g>
                          </g>
                        </g>
                        <g class="cls-70">
                          <g class="cls-59">
                            <g class="cls-70">
                              <path class="cls-31" d="m73.48,32.96l-.32-.19c.13-.08.27-.14.4-.2l.32.19c-.13.05-.27.12-.4.2h0Z"/>
                              <path class="cls-42" d="m73.88,32.76l-.32-.19c.11-.05.22-.09.34-.12l.32.19c-.11.03-.23.07-.34.12h0Z"/>
                              <path class="cls-15" d="m74.21,32.64l-.32-.19c.09-.02.18-.04.27-.06l.32.19c-.09.01-.18.03-.27.06h0Z"/>
                              <path class="cls-23" d="m74.48,32.59l-.32-.19c.08-.01.16-.02.24-.02l.32.19c-.08,0-.16.01-.24.02h0Z"/>
                              <path class="cls-16" d="m74.72,32.56l-.32-.19c.08,0,.15,0,.23,0l.32.19c-.07,0-.15,0-.22,0h0Z"/>
                              <path class="cls-21" d="m74.95,32.56l-.32-.19c.07,0,.15.01.22.03l.32.19c-.07-.01-.15-.02-.22-.03h0Z"/>
                              <path class="cls-28" d="m75.17,32.59l-.32-.19c.07.01.15.03.22.05l.32.19c-.07-.02-.15-.04-.22-.05h0Z"/>
                              <path class="cls-24" d="m75.39,32.64l-.32-.19s.02,0,.03,0c.07.02.14.05.21.07l.32.19c-.07-.03-.14-.05-.21-.08,0,0-.02,0-.02,0h0Z"/>
                              <path class="cls-46" d="m75.62,32.73l-.32-.19c.08.03.16.07.24.12l.32.19c-.08-.04-.16-.08-.24-.12h0Z"/>
                              <path class="cls-13" d="m75.87,32.84l-.32-.19s.02,0,.03.02l.32.19s-.02-.01-.03-.02h0Z"/>
                            </g>
                          </g>
                        </g>
                        <g class="cls-70">
                          <g class="cls-62">
                            <g class="cls-70">
                              <path class="cls-53" d="m68.67,45.9l-.32-.19s-.05-.05-.05-.1c0-.99.06-1.99.19-2.97l.32.19c-.13.98-.19,1.98-.19,2.97,0,.05.02.08.05.1h0Z"/>
                              <path class="cls-48" d="m68.82,42.83l-.32-.19c.08-.64.19-1.27.32-1.89l.32.19c-.13.62-.24,1.25-.32,1.89h0Z"/>
                              <path class="cls-19" d="m69.14,40.94l-.32-.19c.09-.4.18-.79.28-1.18.01-.04.02-.08.03-.13l.32.19s-.02.08-.03.13c-.1.38-.2.78-.28,1.18h0Z"/>
                              <path class="cls-14" d="m69.46,39.63l-.32-.19c.1-.35.2-.7.32-1.03l.32.19c-.11.34-.22.68-.32,1.03h0Z"/>
                              <path class="cls-10" d="m69.78,38.6l-.32-.19c.1-.28.19-.56.3-.83l.32.19c-.1.27-.2.54-.3.83h0Z"/>
                              <path class="cls-13" d="m70.07,37.78l-.32-.19c.09-.23.18-.46.28-.69l.32.19c-.1.22-.19.45-.28.69h0Z"/>
                              <path class="cls-46" d="m70.35,37.09l-.32-.19c.09-.2.18-.39.27-.58l.32.19c-.09.19-.18.38-.26.58h0Z"/>
                              <path class="cls-24" d="m70.62,36.51l-.32-.19c.08-.17.17-.34.26-.5l.32.19c-.09.16-.17.33-.26.5h0Z"/>
                              <path class="cls-28" d="m70.87,36.01l-.32-.19c.08-.15.16-.3.25-.45l.32.19c-.08.14-.17.29-.25.45h0Z"/>
                              <path class="cls-21" d="m71.12,35.56l-.32-.19c.08-.14.16-.27.25-.4l.32.19c-.08.13-.16.27-.25.4h0Z"/>
                              <path class="cls-16" d="m71.37,35.16l-.32-.19c.06-.09.12-.18.18-.27.02-.03.05-.07.07-.1l.32.19s-.05.07-.07.1c-.06.09-.12.18-.18.27h0Z"/>
                              <path class="cls-23" d="m71.62,34.79l-.32-.19c.09-.12.17-.24.26-.35l.32.19c-.09.11-.18.23-.26.35h0Z"/>
                              <path class="cls-15" d="m71.87,34.43l-.32-.19c.09-.12.19-.24.28-.35l.32.19c-.1.11-.19.23-.28.35h0Z"/>
                              <path class="cls-42" d="m72.16,34.09l-.32-.19c.12-.13.23-.26.35-.38l.32.19c-.12.12-.24.24-.35.38h0Z"/>
                              <path class="cls-31" d="m72.51,33.71l-.32-.19c.31-.31.63-.56.97-.75l.32.19c-.33.19-.66.45-.97.75h0Z"/>
                            </g>
                          </g>
                        </g>
                        <path class="cls-37" d="m73.48,32.96c.69-.4,1.35-.48,1.94-.3.59.18,1.11.62,1.55,1.27.87,1.31,1.41,3.49,1.42,6.24,0,.1-.07.23-.16.28-.09.05-.16,0-.16-.09,0-2.02-.3-3.72-.81-4.97-.51-1.26-1.22-2.07-2.04-2.31-.54-.17-1.13-.09-1.74.27-.61.35-1.2.95-1.74,1.74-.54.79-1.04,1.78-1.45,2.89-.83,2.23-1.35,4.96-1.34,7.65,0,.1-.07.23-.16.28-.09.05-.16,0-.16-.09,0-2.06.29-4.15.8-6.04.51-1.89,1.24-3.59,2.12-4.88.58-.86,1.24-1.53,1.93-1.93Z"/>
                      </g>
                      <polygon class="cls-50" points="72.24 49.94 66.08 46.29 64.02 45.07 80.61 35.5 81.48 36.55 84.36 37.31 72.24 49.94"/>
                      <polygon class="cls-22" points="72.24 75.2 67.21 71.1 62.96 69.81 79.54 60.24 84.08 62.79 72.24 75.2"/>
                      <polygon class="cls-49" points="72.32 75.3 67.54 69.7 63.04 69.9 64.02 45.07 66.51 45.14 70.84 48.48 72.32 75.3"/>
                      <polygon class="cls-54" points="67.54 69.7 66.51 45.14 64.02 45.07 63.04 69.9 67.54 69.7"/>
                      <polygon class="cls-54" points="81.48 36.55 81.48 45.36 84.36 37.31 81.48 36.55"/>
                      <polygon class="cls-49" points="81.48 36.55 81.48 43.54 80.61 35.5 81.48 36.55"/>
                      <polygon class="cls-56" points="84.36 37.31 88.89 65.72 72.32 75.3 68.44 46.61 84.36 37.31"/>
                      <path class="cls-12" d="m72.09,46.53c.33-.19.61-.03.61.35,0,.39-.27.86-.61,1.05-.34.2-.61.04-.61-.35,0-.38.27-.85.61-1.05Z"/>
                      <path class="cls-12" d="m81.36,41.21c.33-.19.61-.03.61.35s-.27.86-.6,1.05c-.34.19-.61.04-.61-.35,0-.38.27-.85.61-1.05Z"/>
                      <path class="cls-3" d="m80.58,35.6l.83,1,.02.02h.03s2.69.71,2.69.71l-15.7,9.17-1.89-1.44-.02-.02h-.03s-2.19-.06-2.19-.06l16.26-9.39h0Zm.02-.11l-16.58,9.57,2.48.07,1.93,1.47,15.92-9.3-2.89-.76-.87-1.05h0Z"/>
                      <g class="cls-70">
                        <g class="cls-70">
                          <g class="cls-61">
                            <g class="cls-70">
                              <path class="cls-53" d="m81.5,42.04l-.24-.14s-.04-.04-.04-.08c0-2.02-.31-3.73-.81-4.99-.41-1.03-.96-1.76-1.6-2.13l.24.14c.64.37,1.19,1.1,1.6,2.13.51,1.26.81,2.97.81,4.99,0,.04.01.06.04.08h0Z"/>
                            </g>
                          </g>
                        </g>
                        <g class="cls-70">
                          <g class="cls-60">
                            <g class="cls-70">
                              <path class="cls-31" d="m76.84,34.65l-.24-.14c.13-.08.26-.14.39-.19l.24.14c-.13.05-.26.12-.39.19h0Z"/>
                              <path class="cls-42" d="m77.23,34.45l-.24-.14c.11-.05.22-.08.33-.11l.24.14c-.11.03-.22.07-.33.11h0Z"/>
                              <path class="cls-15" d="m77.56,34.34l-.24-.14c.09-.02.18-.04.27-.06l.24.14c-.09.01-.18.03-.27.06h0Z"/>
                              <path class="cls-23" d="m77.83,34.28l-.24-.14c.08-.01.16-.02.24-.02l.24.14c-.08,0-.16.01-.24.02h0Z"/>
                              <path class="cls-16" d="m78.06,34.26l-.24-.14c.08,0,.15,0,.23,0l.24.14c-.07,0-.15,0-.22,0h0Z"/>
                              <path class="cls-21" d="m78.29,34.26l-.24-.14c.07,0,.14.01.22.03l.24.14c-.07-.01-.14-.02-.22-.03h0Z"/>
                              <path class="cls-28" d="m78.51,34.29l-.24-.14c.07.01.14.03.21.05l.24.14c-.07-.02-.14-.04-.21-.05h0Z"/>
                              <path class="cls-24" d="m78.72,34.33l-.24-.14s.02,0,.03,0c.07.02.14.05.2.07l.24.14c-.06-.03-.13-.05-.2-.07,0,0-.02,0-.03,0h0Z"/>
                              <path class="cls-46" d="m78.95,34.41l-.24-.14c.08.03.16.07.24.12l.24.14c-.08-.04-.16-.08-.24-.12h0Z"/>
                              <path class="cls-13" d="m79.19,34.53l-.24-.14s.02,0,.03.02l.24.14s-.02-.01-.03-.02h0Z"/>
                            </g>
                          </g>
                        </g>
                        <g class="cls-70">
                          <g class="cls-66">
                            <g class="cls-70">
                              <path class="cls-53" d="m72.06,47.49l-.24-.14s-.03-.04-.03-.08c0-.99.06-1.98.19-2.96l.24.14c-.13.98-.19,1.97-.19,2.96,0,.04.01.06.04.08h0Z"/>
                              <path class="cls-48" d="m72.21,44.45l-.24-.14c.08-.64.19-1.27.32-1.88l.24.14c-.13.61-.24,1.24-.32,1.88h0Z"/>
                              <path class="cls-19" d="m72.54,42.57l-.24-.14c.09-.4.18-.79.29-1.18.01-.04.02-.08.03-.12l.24.14s-.02.08-.03.13c-.1.39-.2.78-.29,1.18h0Z"/>
                              <path class="cls-14" d="m72.86,41.27l-.24-.14c.1-.35.2-.69.32-1.03l.23.14c-.11.33-.22.68-.31,1.03h0Z"/>
                              <path class="cls-10" d="m73.17,40.24l-.23-.14c.09-.28.19-.55.29-.82l.24.14c-.1.27-.2.54-.29.82h0Z"/>
                              <path class="cls-13" d="m73.46,39.42l-.24-.14c.09-.23.18-.46.28-.68l.24.14c-.1.22-.19.45-.28.68h0Z"/>
                              <path class="cls-46" d="m73.74,38.74l-.24-.14c.09-.2.17-.39.26-.58l.24.14c-.09.19-.18.38-.26.58h0Z"/>
                              <path class="cls-24" d="m74.01,38.16l-.24-.14c.08-.17.17-.34.25-.5l.24.14c-.09.16-.17.33-.25.5h0Z"/>
                              <path class="cls-28" d="m74.26,37.66l-.24-.14c.08-.15.16-.3.25-.44l.24.14c-.08.14-.16.29-.25.44h0Z"/>
                              <path class="cls-21" d="m74.51,37.22l-.24-.14c.08-.14.16-.27.24-.4l.24.14c-.08.13-.16.26-.25.4h0Z"/>
                              <path class="cls-16" d="m74.75,36.82l-.24-.14c.06-.09.12-.18.18-.27.02-.03.04-.06.06-.1l.24.14s-.04.06-.07.1c-.06.09-.12.18-.18.27h0Z"/>
                              <path class="cls-23" d="m74.99,36.45l-.24-.14c.08-.12.17-.24.26-.35l.24.14c-.09.11-.17.23-.26.35h0Z"/>
                              <path class="cls-15" d="m75.25,36.11l-.24-.14c.09-.12.19-.23.28-.34l.24.14c-.09.11-.19.23-.28.34h0Z"/>
                              <path class="cls-42" d="m75.53,35.76l-.24-.14c.11-.13.23-.26.35-.37l.24.14c-.12.12-.23.24-.35.37h0Z"/>
                              <path class="cls-31" d="m75.88,35.39l-.24-.14c.31-.3.63-.56.95-.74l.24.14c-.33.19-.65.44-.96.74h0Z"/>
                            </g>
                          </g>
                        </g>
                        <path class="cls-37" d="m76.84,34.65c.68-.39,1.33-.48,1.91-.3.58.18,1.1.61,1.54,1.27.87,1.31,1.41,3.48,1.41,6.22,0,.08-.05.17-.12.21-.07.04-.12,0-.12-.07,0-2.02-.3-3.73-.81-4.99-.51-1.26-1.22-2.08-2.05-2.32-.55-.17-1.14-.09-1.76.27-.62.36-1.21.96-1.76,1.77-.54.8-1.04,1.79-1.46,2.91-.83,2.24-1.36,4.98-1.35,7.68,0,.08-.05.17-.12.21-.07.04-.12,0-.12-.07,0-2.05.29-4.13.8-6.02.51-1.89,1.24-3.58,2.11-4.85.58-.85,1.23-1.51,1.91-1.9Z"/>
                      </g>
                      <g>
                        <path class="cls-40" d="m72.09,46.27c.43-.25.78-.05.79.44,0,.5-.35,1.1-.78,1.35-.43.25-.78.05-.78-.45,0-.5.34-1.1.78-1.35Z"/>
                        <path class="cls-37" d="m72.17,47.57c-.42.24-.75.06-.78-.4-.05.15-.08.3-.08.44,0,.5.35.7.78.45.43-.25.78-.85.78-1.35,0-.02,0-.03,0-.05-.13.37-.39.73-.7.91Z"/>
                        <path class="cls-7" d="m72.61,47.36c-.1.22-.26.36-.37.32-.1-.05-.11-.26-.02-.48.1-.22.26-.36.37-.32.1.05.11.26.02.48Z"/>
                      </g>
                      <g>
                        <path class="cls-40" d="m81.4,41.04c.43-.25.78-.05.78.44,0,.5-.35,1.1-.78,1.35-.43.25-.78.05-.78-.45,0-.5.35-1.1.78-1.35Z"/>
                        <path class="cls-37" d="m81.48,42.35c-.41.24-.75.06-.78-.4-.05.15-.08.3-.08.44,0,.5.35.7.78.45.43-.25.78-.85.78-1.35,0-.02,0-.03,0-.05-.13.37-.39.73-.7.91Z"/>
                        <path class="cls-7" d="m81.91,42.14c-.1.22-.26.36-.37.32-.1-.05-.11-.26-.02-.48.1-.22.26-.36.36-.32.11.05.11.26.02.48Z"/>
                      </g>
                    </g>
                    <g>
                      <path class="cls-17" d="m89.54,66.98c-2.07-1.54-5.5.42-6.86,2.1-.3.37-.78.82-.18,1.89.34.62-1.79,1.79-1.38,2.02,1.01.56,3.73,0,4.48-.13.63-.11,1.35-1.45,1.75-1.96.51-.66,1.27-1.25,1.77-1.94.52-.71,1.2-1.42.43-2Z"/>
                      <path class="cls-32" d="m82.72,69.33c1.36-1.68,4.8-3.64,6.87-2.1.16.12.25.24.3.37,0-.22-.09-.43-.34-.62-2.07-1.54-5.5.42-6.86,2.1-.24.29-.59.64-.42,1.31-.03-.51.26-.8.46-1.06Z"/>
                      <path class="cls-5" d="m88.09,69.98s-1.41-.11-1.3-.76c.11-.65,1.58-2.4,2.09-2.31.76.13,1.2.4,1.13.85-.06.45-1.31,2.03-1.92,2.22Z"/>
                    </g>
                    <g>
                      <path class="cls-35" d="m86.29,69.13c-1.99-1.64-5.52.14-6.97,1.75-.31.35-.82.78-.27,1.88.31.64-1.88,1.7-1.48,1.95.98.61,3.72.19,4.48.1.64-.08,1.42-1.37,1.85-1.86.54-.63,1.33-1.19,1.86-1.84.55-.68,1.27-1.36.53-1.97Z"/>
                      <path class="cls-32" d="m79.24,71.25c1.45-1.61,4.97-3.39,6.96-1.75.23.19.32.39.32.59.16-.33.15-.65-.22-.96-1.99-1.64-5.52.14-6.96,1.75-.2.22-.47.48-.51.91.11-.23.28-.39.41-.55Z"/>
                      <path class="cls-5" d="m84.68,72.05s-1.4-.18-1.26-.82c.14-.65,1.7-2.32,2.2-2.21.76.17,1.18.46,1.09.91-.08.45-1.41,1.96-2.03,2.12Z"/>
                    </g>
                    <g>
                      <path class="cls-34" d="m82.26,71.56c-2-1.63-5.52.18-6.95,1.79-.31.35-.81.78-.26,1.88.32.63.02,1.18.42,1.43.98.61,2.73.18,2.96.24.62.17,1.04-1.02,1.46-1.52.54-.63,1.33-1.19,1.86-1.85.55-.69,1.26-1.37.52-1.97Z"/>
                      <path class="cls-32" d="m75.22,73.69c1.44-1.62,4.95-3.42,6.95-1.79.28.22.35.46.31.7.19-.36.22-.71-.18-1.04-2-1.63-5.52.18-6.95,1.79-.18.2-.42.43-.49.79.1-.18.25-.32.36-.45Z"/>
                      <path class="cls-5" d="m80.67,74.49s-1.4-.17-1.26-.81c.14-.65,1.69-2.33,2.19-2.22.76.17,1.18.45,1.1.9-.09.45-1.41,1.97-2.02,2.13Z"/>
                    </g>
                    <g>
                      <path class="cls-34" d="m50.99,65.14s3.42,1.81,4.65,2.96c1.24,1.15,3.44,4.19,4.81,5.51,1.37,1.32,3.76,1.58,5.69,1.85,1.93.27,5.65.81,6.85,1.45,1.87.99,2.09.65,2.38.11.68-1.3-1.53-4.28-2.94-4.94-1.41-.66-4.79-1.52-5.17-2.31-.38-.79-1.42-3.91-6.19-6.55-4.77-2.64-7.34-2.63-7.34-2.63,0,0-2.58,3.5-2.75,4.55Z"/>
                      <path class="cls-29" d="m75.3,77.01c.07-.13.11-.27.12-.43-.26.39-.66.5-2.24-.34-1.2-.64-4.92-1.18-6.85-1.45-1.93-.27-4.32-.53-5.69-1.85-1.37-1.32-3.57-4.36-4.81-5.51-1.24-1.15-4.66-2.96-4.66-2.96,0,0,0-.01,0-.02-.14.28-.23.51-.26.69,0,0,3.42,1.81,4.66,2.96,1.24,1.15,3.44,4.19,4.81,5.51,1.37,1.32,3.76,1.58,5.69,1.85,1.93.27,5.65.81,6.85,1.45,1.87.99,2.09.65,2.38.11Z"/>
                      <path class="cls-32" d="m66.46,70.26c.53,1.6,4.43,1.82,5.82,2.52,3.82,1.93,3.18,4.14,3.18,4.14.53-1.09,0-2.75-2.97-4.77-1.28-.87-5.14-1.64-5.36-2.67-.27-1.26-3.11-4.81-4.49-5.84-2.92-2.16-5.04-1.7-5.04-1.7,0,0,6.32.6,8.87,8.32Z"/>
                      <path class="cls-5" d="m72.46,76.73s2.09.93,2.2.89c.76-.23.89-1.1.36-1.53-.05-.04-1.9-1.11-2.08-.97-.42.33-.55.94-.49,1.61Z"/>
                    </g>
                  </g>
                  <path class="cls-34" d="m54.05,54.4c2.5-1.44,4.52-.28,4.53,2.58,0,2.87-2,6.36-4.5,7.8-2.49,1.44-4.52.28-4.53-2.58,0-2.86,2.01-6.35,4.5-7.79Z"/>
                </g>
                <polygon class="cls-7" points="83.68 47.53 73.92 53.23 73.92 65.84 83.68 60.14 83.68 47.53"/>
                <g>
                  <path class="cls-52" d="m79.85,57.08l3.05-1.78c.11-.06.21,0,.21.15v3.94c0,.15-.09.32-.21.39l-3.05,1.78c-.11.06-.21,0-.21-.15v-3.94c0-.35.42-.59.42-.24v3.94s-.21-.15-.21-.15l3.05-1.78-.21.39v-3.94s.21.15.21.15l-3.05,1.78c-.27.16-.27-.38,0-.54Z"/>
                  <path class="cls-52" d="m80.95,58.12l.85-.5v1.1s-.85.5-.85.5c0-.45,0-.9,0-1.1Z"/>
                  <path class="cls-52" d="m80.95,57.85l.85-.5c.11-.06.21,0,.21.15v1.1c0,.15-.09.32-.21.39l-.85.5c-.11.06-.21,0-.21-.15v-1.1c0-.15.09-.32.21-.39.11-.07.21,0,.21.15v1.1l-.21-.15.85-.5-.21.39v-1.1l.21.15-.85.5c-.11.07-.21,0-.21-.15s.09-.32.21-.39h0Z"/>
                  <path class="cls-52" d="m79.85,50.59l3.05-1.78c.11-.06.21,0,.21.15v3.94c0,.15-.09.32-.21.39l-3.05,1.78c-.11.06-.21,0-.21-.15v-3.94c0-.35.42-.59.42-.24,0,1.31,0,2.63,0,3.94l-.21-.15,3.05-1.78-.21.39v-3.94s.21.15.21.15l-3.05,1.78c-.27.16-.27-.38,0-.54Z"/>
                  <path class="cls-52" d="m79.01,51.35v3.94c0,.35-.42.59-.42.24v-3.94c0-.35.42-.59.42-.24Z"/>
                  <path class="cls-52" d="m79.85,55.79l3.05-1.78c.27-.16.27.38,0,.54l-3.05,1.78c-.27.16-.27-.38,0-.54Z"/>
                  <path class="cls-52" d="m74.82,58.73l1.67-.98c.27-.16.27.38,0,.54l-1.67.98c-.27.16-.27-.38,0-.54Z"/>
                  <path class="cls-52" d="m78.85,56.91l-1.48.86.21-.39v1.91c0,.15-.09.32-.21.39l-1.48.86.21-.39v1.91c0,.35-.42.59-.42.24v-1.91c0-.15.09-.32.21-.39l1.48-.86-.21.39v-1.91c0-.15.09-.32.21-.39l1.48-.86c.27-.16.27.38,0,.54h0Z"/>
                  <path class="cls-52" d="m79.01,57.84v3.94c0,.15-.09.32-.21.39l-1.01.59c-.27.16-.27-.38,0-.54l1.01-.59-.21.39v-3.94c0-.35.42-.59.42-.24Z"/>
                  <path class="cls-52" d="m76.84,63.31l-2.02,1.18c-.11.06-.21,0-.21-.15v-2.76c0-.35.42-.59.42-.24v2.76s-.21-.15-.21-.15l2.02-1.18c.27-.16.27.38,0,.54h0Z"/>
                  <path class="cls-52" d="m80.95,51.64l.85-.5v1.1s-.85.5-.85.5v-1.1Z"/>
                  <path class="cls-52" d="m80.95,51.37l.85-.5c.11-.06.21,0,.21.15v1.1c0,.15-.09.32-.21.39l-.85.5c-.11.06-.21,0-.21-.15v-1.1c0-.15.09-.32.21-.39.11-.07.21,0,.21.15v1.1l-.21-.15.85-.5-.21.39v-1.1l.21.15-.85.5c-.11.07-.21,0-.21-.15s.09-.32.21-.39Z"/>
                  <path class="cls-52" d="m74.71,53.6l3.05-1.78c.11-.06.21,0,.21.15v3.94c0,.15-.09.32-.21.39l-3.05,1.78c-.11.06-.21,0-.21-.15,0-1.31,0-2.63,0-3.94,0-.35.42-.59.42-.24,0,1.31,0,2.63,0,3.94l-.21-.15,3.05-1.78-.21.39v-3.94s.21.15.21.15l-3.05,1.78c-.27.16-.27-.38,0-.54Z"/>
                  <path class="cls-52" d="m75.81,54.64l.85-.5v1.1s-.85.5-.85.5v-1.1Z"/>
                  <path class="cls-52" d="m75.81,54.37l.85-.5c.11-.06.21,0,.21.15v1.1c0,.15-.09.32-.21.39l-.85.5c-.11.06-.21,0-.21-.15v-1.1c0-.15.09-.32.21-.39s.21,0,.21.15h0v1.1l-.21-.15.85-.5-.21.39v-1.1l.21.15-.85.5c-.11.07-.21,0-.21-.15,0-.15.09-.32.21-.39Z"/>
                  <path class="cls-52" d="m76.89,61.03l.81-.47v.47l-.81.47v-.47Z"/>
                  <path class="cls-52" d="m76.89,60.77l.81-.47c.11-.06.21,0,.21.15v.47c0,.15-.09.32-.21.39l-.81.47c-.11.06-.21,0-.21-.15v-.47c0-.15.09-.32.21-.39.11-.07.21,0,.21.15h0v.47l-.21-.15.81-.47-.21.39v-.47l.21.15-.81.47c-.11.07-.21,0-.21-.15,0-.15.09-.32.21-.39h0Z"/>
                  <path class="cls-52" d="m76.1,58.26v.62c0,.07-.02.15-.06.23-.08.15-.21.23-.29.17-.04-.03-.06-.08-.06-.16v-.62c0-.07.02-.15.06-.23.08-.15.21-.23.29-.17.04.03.06.08.06.16Z"/>
                  <path class="cls-52" d="m75.03,58.89v1.28c0,.15-.09.32-.21.39s-.21,0-.21-.15v-1.28c0-.15.09-.32.21-.39s.21,0,.21.15h0Z"/>
                </g>
                <g>
                  <path class="cls-6" d="m101.19,113.63c-.12.57-.26,1.11-.41,1.63-.37,1.28-.8,2.44-1,3.21-.22.87-.43,2.43-.57,3.72-.13,1.18-.21,2.13-.21,2.13,0,0,.28.41-1.05.73-1.33.32-1.81-.62-2.24-.86-.43-.24-.15-1.59-.15-1.59v-4.04c0-1.1,0-2.56-.53-4.93-.54-2.36-.76-4.81-.78-5.87-.02-1.05-1.29-3.25-2.04-6.49-.75-3.25-.63-17.39-.63-17.39l6.56-4.43s1.33,1.12,1.85,2.36c.52,1.25.97,4.15,1.1,6.94.13,2.8-1.83,11.85-1.59,13.7.24,1.85,1.66,5.68,1.91,8.34.09.9-.02,1.87-.22,2.83Z"/>
                  <path class="cls-6" d="m95.67,65.19s-2.49-3.83-.84-4.47c1.65-.65,3.72-.09,4.32,1.5.6,1.59,2.25,4.64,2.64,5.28.39.64,2.75,8.62,2.75,8.62,0,0-1.16,1.77-2.59,2.78-1.34.94-2.28,3.17-2.28,3.17v2.26s-1.7,2.11-1.7,2.11l-1.21.96-1.09.12s-.53-.06-.31-.25c.22-.19.35-.17.35-.17l-.79-.09s-.23-.33.34-.5c.58-.17,1.11-.23,1.21-.2.1.04.88-1.35.94-1.68.06-.34,0-1.14-.05-1.63-.05-.49.33-1.25.33-1.25l-.45.54s-.46.87-.8.96c-.33.09-.4.33-.67-.09-.27-.41.07-.89.12-.99.05-.1.58-.64.58-.64,0,0,.34-.86.61-1.19.28-.33.68-.62.79-.76.11-.13.53-1.7.93-2.71.4-1.01,1.83-2.87,1.83-2.87l-2.31-4.44-2.67-4.35Z"/>
                  <path class="cls-43" d="m91.57,85.61c0,3.88.06,13.12.64,15.66.75,3.25,2.02,5.44,2.04,6.49.02,1.05.23,3.51.78,5.87.53,2.36.53,3.83.53,4.93v2.36s-.03.16,0,.37c.05.36.29.91,1.16,1.18.02.01.04.01.07.02,1.47.44,1.57.37,1.86.2.16-.09.38-.31.56-.5.17-.17.29-.32.29-.32,0,0,.4-2.83.79-4.57.16-.69.85-3.49.9-3.65.2-.99.31-1.96.22-2.86-.26-2.66-1.68-6.49-1.91-8.34-.24-1.86,1.73-10.9,1.59-13.7-.12-2.79-.58-5.7-1.1-6.94-.52-1.24-1.85-2.36-1.85-2.36l-6.56,4.43s-.01.66-.01,1.73Z"/>
                  <path class="cls-55" d="m91.57,85.61c0,3.88.06,13.12.64,15.66.75,3.25,2.02,5.44,2.04,6.49.02,1.05.23,3.51.78,5.87.53,2.36.53,3.83.53,4.93v2.36s-.03.16,0,.37c.05.36.29.91,1.16,1.18.9-7.14-.66-13.74-1.32-15.36-2.6-6.39-2.52-10.54-2.66-13.34-.12-2.8.81-4.9.29-6.14-.34-.83-1.03-1.59-1.47-2.02Z"/>
                  <path class="cls-11" d="m95.56,122.51s-.34-.06-.58-.11c-.24-.04-.86-1.48-2-1.55-1.14-.06-2.24.47-1.93,1.48.3,1.01,1.28,2.17,2.17,2.49.9.32,1.37.4,1.6.73.23.33,1.52,2.71,2.96,2.69,1.02-.02,1.63-.75,1.9-1.18.11-.18.15-.39.11-.59l-.42-2.09c-.02-.11-.15-.15-.23-.08-.33.34-1.06.99-1.66.99-.82,0-2-1.03-2-1.03l.06-.9.02-.86Z"/>
                  <path class="cls-45" d="m95.56,121.87s-.34-.06-.58-.11-.86-.84-2-.9c-1.14-.06-2,.37-1.7,1.38.3,1.01,1.04,1.63,1.94,1.96.9.32,1.37.4,1.6.73.23.33,1.52,2.71,2.96,2.69,1.02-.01,1.63-.75,1.9-1.18.11-.18.15-.39.11-.59l-.42-2.09c-.02-.11-.15-.15-.23-.08-.33.34-1.06.99-1.66.99-.82,0-2-1.03-2-1.03l.06-.9.02-.86Z"/>
                  <path class="cls-6" d="m94.98,91.32c-.69,2.02-1.29,1.46-1.8,2.88-.51,1.42-1.25,13.59-.95,15.09.28,1.41.79,3.09.92,4.81.01.13.02.24.02.35,0,.07,0,.14,0,.21,0,.35-.02.72-.07,1.11-.2,1.63-.75,3.49-1.06,5.08-.19,1.02-.19,2.29-.15,3.33.05,1.07.15,1.88.15,1.88,0,0-.52.95-.48.95,0,0-1.68-.05-2.66-.39-.83-.29-1.1-1.54-.93-2.24.03-.13.48-.74.5-.82.14-.41-1.41-5.31-2-7.64-.09-.36-.16-.64-.19-.83-.26-1.42-.82-3.96-.52-5.42.3-1.46-4.17-13.33-3.57-19.43.6-6.11,2.75-8.43,2.75-8.43l9.38.2s1.33,7.28.64,9.3Z"/>
                  <path class="cls-11" d="m88.36,124.15s-1.06.21-1.81.13c-.74-.08-1.5-.31-2.24-.55-.74-.24-2.19-.18-2.66.35-.47.53.55,2.98,1.9,3.74,1.35.76,3.6.77,3.93.94.34.17,2.06,1.4,3.51,1.17,1.44-.23,1.78-.85,1.8-1.26.02-.4,0-1.61-.13-1.64-.13-.03-.4-1.57-.58-1.41-.18.17-.86,2.33-3.36.67-1.14-.76-.37-2.15-.37-2.15Z"/>
                  <path class="cls-45" d="m88.36,123.64s-1.06.21-1.81.13c-.74-.08-1.5-.31-2.24-.55-.74-.24-2.19-.18-2.66.35-.47.53.55,2.98,1.9,3.74,1.35.76,3.6.77,3.93.94.34.17,2.06,1.4,3.51,1.17,1.44-.23,1.78-.85,1.8-1.26.02-.4,0-1.61-.13-1.64-.13-.03-.4-1.57-.58-1.41-.18.17-.86,2.33-3.36.67-1.14-.76-.37-2.15-.37-2.15Z"/>
                  <path class="cls-57" d="m94.98,91.32c-.69,2.02-1.29,1.46-1.8,2.88-.51,1.42-1.25,13.59-.95,15.09.28,1.41.81,3.08.92,4.81.01.17.02.28.02.35,0,.05,0,.13,0,.21,0,.25-.03.63-.07,1.11-.24,2.72-.99,8.31-.99,8.31,0,0-.07.04-.22.1-.37.16-1.2.43-2.36.37-.48-.03-.85-.14-1.13-.28-.64-.33-.8-.83-.8-.83l-.56-4.4-.58-3.11c-.09-.36-.16-.64-.19-.83-.26-1.42-.82-3.96-.52-5.42.3-1.46-4.17-13.33-3.57-19.43.6-6.11,2.75-8.43,2.75-8.43l9.38.2s1.33,7.28.64,9.3Z"/>
                  <path class="cls-45" d="m84.19,77.31c.21.94.43,2.32.43,3.13s-1.22,4.31-1.22,4.31c0,0,.84,1.44,3.38,2.04.85.2,1.89.31,3.17.24,5.06-.31,9.76-5.75,9.76-5.75,0,0-.4-.99-1.24-2.89-2.05-4.61.6-8.08.6-10.28s-.69-5.25-2.19-6.49c-1.51-1.24-2.78-.52-2.78-.52,0,0-.49-.09-.63-1.03-.12-.95-.13-.95-.13-.95l-4.68,1.46s.43,2.58-.4,3.22c-.15.11-.36.22-.61.32-.56.22-1.29.43-1.98.77-.73.36-1.41.84-1.77,1.6-.84,1.82-2.17,4.28-1.4,5.47.77,1.21,1.29,1.81,1.38,2.84.08,1.03.08,1.54.3,2.5Z"/>
                  <path class="cls-51" d="m84.19,77.31c.21.94.43,2.32.43,3.13s-1.22,4.31-1.22,4.31c0,0,.84,1.44,3.38,2.04,1.28-1.1,1.76-3.05.82-4.89-.95-1.85-1.59-3.57-1.63-4.9-.04-1.33,2.24-3.18,2.24-5.37s-.69-5.24-2.19-6.49c-.11-.09-.21-.17-.32-.24-.73.36-1.41.84-1.77,1.6-.84,1.82-2.17,4.28-1.4,5.47.77,1.21,1.29,1.81,1.38,2.84.08,1.03.08,1.54.3,2.5Z"/>
                  <path class="cls-6" d="m78.59,76.87s.66-2.5,1.16-3.42c.5-.92,1.64-2.4,2-3.35.36-.94.99-4.32,2.37-4.84,1.38-.53,4.14,1.67,4.83,3.06.69,1.38-2.39,3.45-3.31,5.14-.93,1.69-5.31,7.14-6.14,7.16-.83.02-4.4-1.47-6.02-2.43-1.62-.96-3.86-2.47-4.3-2.57-.44-.09-1.04-.48-1.4-.7s-2.34-.5-2.49-.55c-.14-.05.4-.02-.21-.1-.61-.08-1.68-.15-1.68-.15l-1-.26-.63-.48s-.14-.74-.26-.85c-.12-.11-.87-.69-.87-.69,0,0-.64-.81-.47-.93.17-.11.22-.08.42.08.2.16.55.53.55.53l.77.41,1.15.03-1.37-.49-1.08-.87s-.56-.86-.41-1.03c.15-.17.44-.28.64.04.2.32.39.6.39.6l1.08.66,1.32.14-1.56-.83-.79-.85s-.23-.84-.3-.96c-.07-.12.3-.44.53-.27.23.18.44.75.44.75l.96.74s2.52.85,2.81.53c.29-.33-.14-.92-.14-.92l-.74-.57s-.46-.07-.71-.4c-.25-.33-.23-.49-.23-.49,0,0,.12-.32.42-.17.3.14.85.61,1.1.53.24-.08,1.58,1.31,1.58,1.31,0,0,.53.79.58.83.05.04.69,1.57.96,1.92,1.06,1.3,5.18,2.36,6.06,2.77.88.4,4.01,1.95,4.01,1.95Z"/>
                  <path class="cls-47" d="m94.78,62.09c-.16.52-.94,1.68-3.68,2.06-2.74.39-3.32,0-3.32,0l-.12-.04c.25-.1.46-.2.61-.32.82-.65.4-3.22.4-3.22l4.68-1.46s0,0,.13.95c.13.95.63,1.03.63,1.03,0,0,.84.48.68,1Z"/>
                  <g>
                    <path class="cls-6" d="m87.7,52.62c-.05-.01-1.78.47-1.78.47,0,0-.34,1.11-.29,1.44.05.33.28.57.28.77s-.23.61-.19,1.25c.03.63.31,1.78.85,2.41.53.61.86,1.04.9,1.16.04.12,2.55.75,3.8.18,1.25-.57.97-4.72.97-4.72l-4.54-2.97Z"/>
                    <path class="cls-33" d="m86.72,51.26s-.05.07-.14.19c-.31.46-1.24,1.69-.42,2.46,1.38,1.29,1.01,3.76,1.01,3.76,0,0,.19-.53.69-.56.5-.03.77,1.14.66,1.59-.25,1.02-.49,1-.49,1,0,0-2.96,1.5-2.79,1.62,1.44.96,6.33,5.06,10.27,1.12,1.49-1.49.71-5.53.61-8.23s-3.58-3.98-5.69-4.21c-2.11-.23-3.72,1.26-3.72,1.26Z"/>
                  </g>
                </g>
              </g>
            </g>
            <path class="cls-6" d="m30.72,34.33s1.31.84,1.31,1.17c0,.33-.08.47-.64.43-.57-.04-.54-.08-.9-.47-.36-.39-.65-.35-.62-.83.03-.49.07-.51.38-.48.31.03.48.18.48.18Z"/>
            <path class="cls-6" d="m30.41,33.26c-.16.25-.14.67-.08.87.06.2.67.7.67.7,0,0,1.18.64,1.33.4.15-.23.21-.42-.22-.63-.43-.21-.74-.34-.74-.34,0,0-.33-.93-.53-1.02-.2-.09-.42.02-.42.02Z"/>
            <path class="cls-6" d="m31.28,32.35s-.41.22-.5.52c-.09.3.22,1.14.49,1.27.27.13,1.21.41,1.27.28.06-.13.18-.59-.28-.73-.45-.14-.66-.5-.66-.5,0,0-.36-.35-.36-.52,0-.16.04-.34.04-.34Z"/>
            <path class="cls-6" d="m33.09,32.09l-.58-.44s-.81-.05-.97.15c-.16.2-.28.82-.3.88-.02.06.83,1.03,1.08.8.25-.22.15-.33,0-.53-.14-.19-.29-.45-.29-.45l.12-.49.54.18.4-.11Z"/>
            <g>
              <path class="cls-6" d="m29.8,62.31s.62-.24.92-.15c.3.09,1.1-.03,1.13.47.03.5.23.5-.27.44-.5-.06-.56.03-.97.06-.41.03-.77.53-.8-.83Z"/>
              <path class="cls-6" d="m31.99,63.7s-.23-.15-.53-.18c-.65-.06-.83.12-1.21.06-.38-.06-.5-.09-.5.24,0,.32-.21.74.38.74s.8-.24.97-.21c.18.03,1.12.09.89-.65Z"/>
              <path class="cls-6" d="m31.46,64.97s.18.65-.18.62c-.35-.03-.56-.09-.8-.06-.24.03-.32.3-.59.18-.27-.12-.35-.47-.09-.68.27-.21,1.06-.35,1.65-.06Z"/>
              <path class="cls-6" d="m31.31,65.94s.12.41-.18.47c-.3.06-.89.32-1,.21-.12-.12-.5-.44-.12-.59.38-.15,1.12-.44,1.3-.09Z"/>
            </g>
            <path class="cls-55" d="m20.22,37.09s.2,1.06-.39,1.14-1.18.42-1.35.42-.93.89-2.15,1.14c-1.22.25-2.57-.8-2.57-.8,0,0,0-1.01.21-1.43.21-.42,1.48-.38,2.41-.13s2.32-.46,2.62-.59c.3-.13.76-1.06.76-1.06l.46,1.31Z"/>
            <path class="cls-6" d="m17.23,38.48s-.25.63-.8.51c-.55-.13-.89-.55-.89-.55l1.69.04Z"/>
            <path class="cls-6" d="m19.72,36.88l-.93.76s.42,0,.8-.17c.38-.17.13-.59.13-.59Z"/>
            <g class="cls-70">
              <polygon class="cls-25" points="50.52 35.73 49.28 35.01 49.13 34.66 50.37 35.38 50.52 35.73"/>
              <polygon class="cls-25" points="44.65 38.69 43.4 37.97 43.89 38.12 45.14 38.84 44.65 38.69"/>
              <polygon class="cls-4" points="50.37 35.38 50.52 35.73 52.97 41.33 45.14 38.84 44.65 38.69 50.37 35.38"/>
              <polygon class="cls-25" points="44.65 38.69 43.4 37.97 49.13 34.66 50.37 35.38 44.65 38.69"/>
              <g>
                <path class="cls-26" d="m52.97,16.56l1.24.72c-.44-.26-1.06-.22-1.74.17l-1.24-.72c.68-.39,1.29-.43,1.74-.17Z"/>
                <g class="cls-65">
                  <g class="cls-70">
                    <path class="cls-26" d="m52.48,17.45l-1.24-.72c.68-.39,1.29-.43,1.74-.17l1.24.72c-.44-.26-1.06-.22-1.74.17h0Z"/>
                  </g>
                </g>
              </g>
              <g>
                <path class="cls-26" d="m24.21,50.09l-1.24-.72c-.44-.26-.71-.8-.71-1.56l1.24.72c0,.77.28,1.31.71,1.56Z"/>
                <g class="cls-63">
                  <g class="cls-70">
                    <path class="cls-26" d="m24.21,50.09l-1.24-.72c-.44-.26-.71-.8-.71-1.56l1.24.72c0,.77.28,1.31.71,1.56h0Z"/>
                  </g>
                </g>
              </g>
              <polygon class="cls-26" points="23.49 48.53 22.25 47.81 22.22 36.29 23.47 37.01 23.49 48.53"/>
              <polygon class="cls-26" points="25.9 32.8 24.66 32.08 51.24 16.73 52.48 17.45 25.9 32.8"/>
              <path class="cls-4" d="m52.48,17.45c1.34-.78,2.45-.15,2.45,1.4l.03,11.51c0,1.54-1.09,3.44-2.43,4.22l-2,1.15-.15-.35-5.72,3.3.49.15-19.19,11.08c-1.34.77-2.44.15-2.45-1.4l-.03-11.51c0-1.54,1.09-3.44,2.43-4.21l26.58-15.35Z"/>
              <g>
                <path class="cls-26" d="m23.47,37.01l-1.24-.72c0-1.54,1.09-3.44,2.43-4.21l1.24.72c-1.34.77-2.44,2.67-2.43,4.21Z"/>
                <g class="cls-64">
                  <g class="cls-70">
                    <path class="cls-26" d="m23.47,37.01l-1.24-.72c0-1.54,1.09-3.44,2.43-4.21l1.24.72c-1.34.77-2.44,2.67-2.43,4.21h0Z"/>
                  </g>
                </g>
              </g>
            </g>
            <g class="cls-70">
              <g>
                <path class="cls-38" d="m94.78.81l-1.16-.68c-.37-.21-.87-.18-1.43.14l1.16.68c.56-.32,1.07-.35,1.43-.14Z"/>
                <g class="cls-69">
                  <g class="cls-70">
                    <path class="cls-38" d="m94.78.81l-1.16-.68c-.37-.21-.87-.18-1.43.14l1.16.68c.56-.32,1.07-.35,1.43-.14h0Z"/>
                  </g>
                </g>
              </g>
              <polygon class="cls-38" points="73.96 28.52 72.8 27.84 72.61 28.12 73.78 28.8 73.96 28.52"/>
              <polygon class="cls-38" points="69.2 31.44 68.04 30.76 66.85 36.87 68.01 37.55 69.2 31.44"/>
              <polygon class="cls-36" points="69.24 31.24 69.2 31.44 68.01 37.55 73.78 28.8 73.96 28.52 69.24 31.24"/>
              <polygon class="cls-38" points="69.24 31.24 68.07 30.57 68.04 30.76 69.2 31.44 69.24 31.24"/>
              <polygon class="cls-38" points="73.96 28.52 72.8 27.84 68.07 30.57 69.24 31.24 73.96 28.52"/>
              <g>
                <path class="cls-38" d="m65.9,31.31l1.16.68c-.36-.21-.59-.66-.59-1.29l-1.16-.68c0,.63.23,1.08.59,1.29Z"/>
                <g class="cls-67">
                  <g class="cls-70">
                    <path class="cls-38" d="m66.47,30.7l-1.16-.68c0,.63.23,1.08.59,1.29l1.16.68c-.36-.21-.59-.66-.59-1.29h0Z"/>
                  </g>
                </g>
              </g>
              <polygon class="cls-38" points="66.44 18.81 65.27 18.13 65.31 30.02 66.47 30.7 66.44 18.81"/>
              <polygon class="cls-38" points="93.35 .95 92.18 .27 67.28 14.65 68.45 15.33 93.35 .95"/>
              <path class="cls-36" d="m68.45,15.33c-1.11.64-2.01,2.21-2.01,3.48l.03,11.89c0,1.27.91,1.79,2.02,1.15l.71-.41.04-.2,4.72-2.73-.19.28,19.62-11.33c1.11-.64,2.01-2.21,2.01-3.48l-.03-11.89c0-1.27-.91-1.79-2.02-1.15l-24.9,14.38Z"/>
              <g>
                <path class="cls-38" d="m68.45,15.33l-1.16-.68c-1.11.64-2.01,2.21-2.01,3.48l1.16.68c0-1.27.9-2.84,2.01-3.48Z"/>
                <g class="cls-68">
                  <g class="cls-70">
                    <path class="cls-38" d="m68.45,15.33l-1.16-.68c-1.11.64-2.01,2.21-2.01,3.48l1.16.68c0-1.27.9-2.84,2.01-3.48h0Z"/>
                  </g>
                </g>
              </g>
            </g>
            <g>
              <path class="cls-7" d="m71.2,17.64l3.95-2.37v1.97l-2.35,1.41v1.6l2-1.2v1.85l-2,1.2v3.74l-1.61.96v-9.15Z"/>
              <path class="cls-7" d="m78.51,20.9l-1.82,1.09-.25,1.66-1.63.98,1.94-10.32,1.74-1.04,1.94,7.99-1.67,1-.26-1.35Zm-.33-1.78l-.57-2.95-.56,3.63,1.14-.68Z"/>
              <path class="cls-7" d="m80.96,11.79l1.6-.96v3.46l1.67-4.46,2.13-1.27-1.89,4.58,1.97,4.52-1.97,1.18-1.09-3.11-.83,2.02v2.23l-1.6.96v-9.15Z"/>
              <path class="cls-7" d="m86.97,8.19l4.28-2.57v1.95l-2.68,1.61v1.45l2.49-1.49v1.87l-2.49,1.49v1.8l2.76-1.65v2.07l-4.36,2.61v-9.15Z"/>
            </g>
            <g>
              <path class="cls-44" d="m26.31,36.51l4.99-3.05v1.97l-2.96,1.81v1.6l2.53-1.55v1.85l-2.53,1.55v3.74l-2.03,1.24v-9.15Z"/>
              <path class="cls-1" d="m35.55,38.51l-2.29,1.4-.32,1.7-2.06,1.26,2.46-10.65,2.2-1.35,2.46,7.65-2.11,1.29-.33-1.31Zm-.42-1.72l-.72-2.85-.71,3.73,1.44-.88Z"/>
              <path class="cls-44" d="m38.65,28.98l2.02-1.23v3.46l2.12-4.75,2.69-1.64-2.39,4.91,2.49,4.18-2.49,1.52-1.38-2.92-1.04,2.17v2.23l-2.02,1.23v-9.15Z"/>
              <path class="cls-44" d="m46.24,24.34l5.41-3.3v1.95l-3.39,2.07v1.45l3.14-1.92v1.87l-3.14,1.92v1.8l3.49-2.13v2.07l-5.51,3.36v-9.15Z"/>
            </g>
            <path class="cls-44" d="m36.75,30.36c-1.06-.06-2.34.81-3.4,2.3-1.07,1.49-2.06,3.75-1.05,6.27,0,0-.54,2.82,1.17,1.11,0,0,.27-.25.26.33h0v.34c0,.22.13.31.29.2h0c.16-.11.29-.38.29-.6v-.33l.15-.1.3-.21v.33c0,.22.13.31.29.2h0c.16-.11.29-.38.29-.6v-.33l.29-.2.1-.06.04-.03v.33c0,.22.13.31.29.2h0c.16-.11.29-.38.29-.6v-.33h0c-.02-.56.26-.68.26-.68,1.71-.61,1.17-2.69,1.17-2.69,1.01-3.88.01-4.79-1.05-4.85Zm-2.97,7.62c-.41.28-.74.05-.74-.51s.33-1.24.74-1.52.74-.05.74.51-.33,1.24-.74,1.52Zm1.02.12c.01-.22.12-.45.26-.54s.24,0,.26.19c0,.08,0,.19,0,.3,0,.18-.03.22-.08.22-.12,0-.26.09-.38.26-.05.06-.08.06-.08-.12,0-.12,0-.22,0-.32Zm1.48-1.81c-.41.28-.74.05-.74-.51s.33-1.24.74-1.52.74-.05.74.51-.33,1.24-.74,1.52Z"/>
          </g>
        </g>
      </g>
    </g>
  </g>
</svg>