<?xml version="1.0" encoding="utf-8"?>
<!-- Generator: Adobe Illustrator 27.5.0, SVG Export Plug-In . SVG Version: 6.00 Build 0)  -->
<svg version="1.1" id="_レイヤー_2" xmlns="http://www.w3.org/2000/svg" xmlns:xlink="http://www.w3.org/1999/xlink" x="0px"
	 y="0px" viewBox="0 0 95.7 97" style="enable-background:new 0 0 95.7 97;" xml:space="preserve">
<style type="text/css">
	.st0{fill:#53ABE0;}
	.st1{fill:#2D518A;}
</style>
<g id="_01">
	<g>
		<path class="st0" d="M63.9,6.1c0,0.1-0.1,0.3-0.2,0.5c-0.1,0.2-0.1,0.4-0.2,0.5c0,0.1,0,0.3-0.1,0.4c-0.1,0.1-0.1,0.2-0.1,0.4
			c0,0.1,0,0.2,0,0.3c0,0.1-0.1,0.2-0.1,0.3c-0.2,0.3-0.3,0.7-0.3,1c-0.2,0.3-0.3,0.6-0.4,0.9l-0.5,1.5c-0.1,0.2-0.1,0.4-0.1,0.6
			s-0.1,0.4-0.1,0.6l0.1,0.7c0,0.3,0.1,0.5,0.3,0.8c0,0.1,0.2,0.2,0.3,0.3c0.2,0.1,0.3,0.2,0.4,0.3c0.3,0.1,0.6,0.2,0.8,0.3
			c0.1,0,0.1,0.1,0.2,0.1c0.1,0,0.2,0.1,0.4,0.1c0.1,0,0.2,0,0.3,0c0.1,0,0.2,0,0.4,0c0,0,0.1,0,0.2-0.1c0.1-0.1,0.2-0.1,0.3-0.1
			c0.2,0,0.3-0.1,0.5-0.1c0.2-0.1,0.3-0.1,0.3-0.2c0.1-0.1,0.3-0.3,0.4-0.4c0.1-0.1,0.2-0.3,0.3-0.4c0.1-0.1,0.2-0.3,0.3-0.5
			c0.1-0.2,0.2-0.4,0.2-0.5c0.1,0,0.1-0.1,0.1-0.1c0,0,0.1,0,0.1,0c0,0,0.1,0,0.2,0c0.1,0,0.2,0.1,0.2,0.1c0.1,0,0.2,0.1,0.3,0.1
			c0.1,0.1,0.2,0.1,0.2,0.1c0,0,0.1,0,0.2,0.1s0.1,0.1,0.2,0.1c0,0.1,0,0.1,0,0.2c0,0.1,0,0.1-0.1,0.2c0,0.1,0,0.2,0,0.2
			s0,0.1,0,0.2c0,0.2-0.1,0.3-0.1,0.4c-0.1,0.1-0.1,0.2-0.2,0.4c-0.1,0.2-0.2,0.3-0.2,0.5c-0.1,0.1-0.2,0.3-0.3,0.5
			c0,0-0.1,0.1-0.1,0.1s-0.1,0.1-0.1,0.2c0,0-0.1,0.1-0.1,0.1c-0.1,0.1-0.2,0.1-0.2,0.2s-0.2,0.1-0.3,0.2S67,17.3,67,17.3
			c-0.2,0.2-0.4,0.3-0.6,0.4s-0.4,0.2-0.5,0.2c0,0-0.1,0-0.2,0c-0.1,0-0.2,0-0.4,0.1c-0.1,0-0.3,0-0.4,0.1c-0.1,0-0.2,0-0.3,0
			c-0.2,0-0.4,0-0.6,0c-0.2,0-0.4,0-0.6,0c-0.2,0-0.3,0-0.4-0.1c-0.1,0-0.2-0.1-0.4-0.1c-0.2-0.1-0.3-0.1-0.4-0.1s-0.2,0-0.3-0.1
			c-0.1-0.1-0.2-0.1-0.3-0.2c-0.1,0-0.2-0.1-0.3-0.1c-0.2-0.1-0.4-0.2-0.6-0.3c-0.2-0.2-0.4-0.4-0.5-0.6c-0.1-0.1-0.2-0.2-0.3-0.3
			s-0.2-0.3-0.3-0.4s-0.2-0.3-0.3-0.5c-0.1-0.1-0.1-0.3-0.1-0.4c0-0.2-0.1-0.5-0.1-0.8s0-0.6,0-0.9c0-0.1,0-0.2,0-0.3
			c0-0.1,0-0.2,0.1-0.3c0-0.1,0-0.2,0-0.4c0-0.1,0-0.2,0-0.4c0.1-0.3,0.1-0.5,0.2-0.7c0.1-0.2,0.2-0.4,0.3-0.6l0.2-0.5
			c0.1-0.1,0.2-0.2,0.2-0.3c0.1-0.1,0.1-0.2,0.2-0.3c0.2-0.2,0.3-0.5,0.4-0.7s0.2-0.5,0.4-0.7c0-0.1,0.1-0.2,0.2-0.3
			c0.1-0.1,0.1-0.2,0.1-0.3c0.1-0.3,0.2-0.5,0.3-0.8s0.2-0.5,0.2-0.8c0-0.2,0.1-0.4,0.1-0.6s0.1-0.4,0.1-0.6c0-0.2,0-0.2,0-0.2
			s0.1,0,0.2-0.1c0,0,0.1,0,0.2,0c0.1,0,0.2,0,0.3-0.1c0.1,0,0.2,0,0.2-0.1c0.1,0,0.2-0.1,0.2-0.1s0.2-0.1,0.3-0.1
			c0.1,0,0.2,0,0.1,0.1l0,0.1c0,0,0,0.1,0,0.2c0.1,0.1,0.1,0.4,0.1,0.8C63.9,5.6,63.9,5.9,63.9,6.1L63.9,6.1z M61.9,2.5
			c-0.1,0-0.1-0.1-0.2-0.3l-0.1-0.5c0-0.1,0-0.2-0.1-0.3c0-0.1,0-0.2-0.1-0.4l0-0.2c0-0.1,0-0.2,0-0.2c0,0,0-0.1,0-0.1l0.2-0.1
			c0.2-0.1,0.4-0.2,0.7-0.2c0.2,0,0.4,0,0.5,0c0.2,0,0.3,0,0.4,0c0.1,0,0.2,0,0.2,0s0.1,0,0.1,0.1c0,0.1,0,0.2,0,0.2s0,0.2,0,0.2
			c0,0.2,0.1,0.4,0.1,0.6c0,0.2,0.1,0.4,0.1,0.6C64,1.9,64,2,64,2.1s0.1,0.1,0.1,0.2c-0.1,0.1-0.2,0.1-0.3,0.2s-0.3,0-0.5,0
			c-0.1,0-0.1,0-0.2,0c0,0-0.1,0-0.1,0c0,0-0.1,0-0.3,0c-0.2,0-0.2,0-0.3,0c-0.1,0-0.2,0-0.2,0C62.1,2.5,62.1,2.5,61.9,2.5L61.9,2.5
			z"/>
		<path class="st0" d="M76.3,22.1c0.2-0.1,0.4-0.3,0.7-0.5s0.5-0.4,0.8-0.6c0.1-0.2,0.3-0.4,0.5-0.4c0.2-0.1,0.4-0.2,0.5-0.4
			c0.1-0.2,0.2-0.3,0.3-0.3c0.1-0.1,0.3-0.1,0.4-0.2c0.6-0.3,1.1-0.7,1.6-1c0.6-0.2,1.1-0.5,1.5-0.9l2.3-1.6
			c0.3-0.3,0.6-0.5,0.9-0.7s0.5-0.5,0.7-0.7l0.6-1c0.1-0.2,0.2-0.5,0.3-0.7s0.1-0.5,0.2-0.8c0-0.2,0-0.4-0.1-0.8
			c-0.1-0.4-0.2-0.6-0.3-0.8c-0.2-0.5-0.5-0.9-0.9-1.2c-0.1-0.1-0.1-0.2-0.2-0.3c-0.1-0.1-0.1-0.2-0.2-0.2c-0.1-0.1-0.2-0.2-0.3-0.3
			c-0.1-0.1-0.2-0.2-0.4-0.4c-0.1-0.1-0.3-0.3-0.5-0.4c-0.1,0-0.2-0.1-0.3-0.1s-0.3-0.1-0.5-0.2c-0.2-0.1-0.5-0.2-0.8-0.3
			c-0.3-0.1-0.5-0.1-0.7,0c-0.3,0-0.6,0.1-0.9,0.1c-0.3,0-0.6,0.1-0.9,0.3c-0.2,0.1-0.6,0.2-0.9,0.3c-0.4,0.2-0.6,0.3-0.8,0.4
			c-0.1,0-0.2,0-0.2,0c-0.1,0-0.1,0-0.2-0.1c-0.1,0-0.1-0.1-0.2-0.2C78,7.8,78,7.7,77.9,7.6c-0.1-0.2-0.2-0.3-0.2-0.5
			c-0.1-0.2-0.1-0.3-0.2-0.4c0-0.1-0.1-0.2-0.2-0.2c-0.1-0.1-0.1-0.2-0.1-0.3c0.1-0.1,0.2-0.2,0.3-0.3c0.1-0.1,0.2-0.2,0.3-0.3
			c0.1-0.1,0.2-0.2,0.3-0.3s0.1-0.2,0.2-0.2c0.2-0.2,0.4-0.4,0.7-0.5c0.2-0.1,0.4-0.2,0.7-0.3c0.3-0.2,0.6-0.3,0.8-0.4
			c0.3-0.1,0.6-0.2,0.9-0.3c0.1,0,0.2,0,0.3-0.1s0.2-0.1,0.4-0.1c0,0,0.2,0,0.3,0c0.2,0,0.4,0,0.6-0.1s0.4,0,0.6,0s0.3,0,0.3,0
			c0.4,0,0.8,0,1.2,0c0.3,0.1,0.7,0.2,1,0.2c0.1,0,0.2,0.1,0.4,0.2C86.6,3.8,86.8,3.9,87,4c0.2,0.1,0.4,0.2,0.6,0.3
			c0.2,0.1,0.3,0.2,0.4,0.2c0.2,0.2,0.5,0.4,0.8,0.6c0.3,0.2,0.5,0.4,0.8,0.7c0.2,0.2,0.3,0.3,0.5,0.5c0.1,0.2,0.3,0.3,0.4,0.6
			c0.2,0.3,0.3,0.5,0.4,0.5c0.1,0.1,0.2,0.2,0.4,0.5c0.1,0.2,0.2,0.4,0.3,0.6c0.1,0.2,0.2,0.3,0.3,0.5c0.2,0.3,0.4,0.7,0.5,1.1
			c0.1,0.4,0.1,0.9,0,1.3c0,0.2,0,0.4,0,0.7c0,0.3,0,0.6,0,0.9s-0.1,0.6-0.1,0.9c0,0.3-0.1,0.5-0.2,0.7c-0.2,0.4-0.4,0.8-0.7,1.2
			c-0.3,0.4-0.6,0.8-0.9,1.2c-0.1,0.1-0.2,0.3-0.3,0.5s-0.3,0.3-0.4,0.4c-0.1,0.1-0.3,0.2-0.4,0.4c-0.1,0.2-0.3,0.3-0.4,0.4
			c-0.3,0.3-0.7,0.5-1,0.7c-0.3,0.2-0.7,0.3-1,0.4L86,20.5c-0.2,0.1-0.4,0.1-0.6,0.1c-0.2,0-0.3,0.1-0.6,0.1
			c-0.5,0.1-0.9,0.3-1.3,0.5c-0.4,0.2-0.8,0.4-1.2,0.6C82.2,22,82,22,81.8,22.1c-0.2,0.1-0.4,0.2-0.5,0.3c-0.4,0.2-0.9,0.5-1.3,0.7
			s-0.8,0.5-1.2,0.9c-0.3,0.3-0.5,0.5-0.8,0.7c-0.3,0.2-0.5,0.5-0.8,0.7c-0.1,0.2-0.2,0.3-0.3,0.3c-0.1-0.1-0.2-0.1-0.4-0.1
			c-0.1,0-0.2-0.1-0.3-0.1c-0.1,0-0.3-0.1-0.4-0.2c-0.1-0.1-0.3-0.1-0.4-0.2c-0.1,0-0.3-0.1-0.4-0.1c-0.6-0.2-0.8-0.4-0.5-0.6
			l0.3-0.2c0.1-0.3,0.3-0.7,0.7-1.2S76.2,22.3,76.3,22.1L76.3,22.1z M75.3,29c0.1,0.1,0,0.3-0.1,0.6l-0.4,0.7
			c-0.1,0.1-0.2,0.3-0.3,0.5c-0.1,0.2-0.2,0.4-0.3,0.6L74,31.8c-0.1,0.2-0.2,0.3-0.2,0.4c-0.1,0-0.1,0.1-0.1,0.2l-0.4-0.1
			c-0.4-0.1-0.8-0.2-1.2-0.4c-0.3-0.2-0.5-0.3-0.8-0.5c-0.2-0.2-0.4-0.3-0.6-0.4c-0.1-0.1-0.3-0.1-0.3-0.2c-0.1,0-0.1-0.1-0.1-0.2
			c0.1-0.2,0.1-0.3,0.2-0.4c0.1-0.1,0.2-0.2,0.2-0.4c0.2-0.3,0.4-0.6,0.5-1s0.3-0.7,0.5-1c0.1-0.1,0.1-0.3,0.2-0.4
			c0-0.1,0.1-0.2,0.2-0.4c0.2,0,0.4,0,0.6,0.1c0.2,0.1,0.4,0.3,0.7,0.4c0.1,0.1,0.2,0.2,0.3,0.2c0.1,0,0.1,0.1,0.2,0.1
			c0,0,0.2,0.1,0.4,0.3c0.2,0.2,0.3,0.2,0.4,0.3c0.1,0.1,0.3,0.2,0.3,0.2S75.2,28.9,75.3,29L75.3,29z"/>
	</g>
	<path class="st1" d="M92,30.1c-1.7,3-5.1,4.9-5.3,4.6c-0.4-0.8,2.7-3.6,2.3-4.1c-0.4-0.6-2.5,0.3-5.8,3c-3.1,2.6-2.1,5.7-2.1,5.7
		s-1,21.2-3.8,22.7c-0.7,0.4-1.9-0.5-3.5-1.9c0.9-1,1.2-1.8,1.2-1.8c-5.8-7.3-16.2-16.7-16.8-16h0c0,0,0,0,0,0c0,0,0,0,0,0
		c-1.9-1-11.2-0.2-11.2-0.2s-0.7,0-1.9,0.1v-3.4c9.8-0.5,18.4-2.7,18.4-2.7c-3.9-1.6-1-4.6-1.4-9c-0.4-4.4-7.1-3.3-6.7-6.8
		c0.4-3.9-1.5-5.2-2.4-5.5c-0.7-0.2-0.5-5.5-3.7-8.9c-3-3-6.6-2.6-6.6-2.6s-6.1-1.5-9.9,2.5c-3.2,3.4-2.6,8.4-3.4,9
		c-0.6,0.4-2.6,1.9-2.4,5.5c0.3,3.5-6.3,2.4-6.7,6.8c-0.5,4.4,2.5,7.4-1.4,9c0,0,8.2,2.1,17.7,2.7v3.5c-1.3,0-1.9-0.1-1.9-0.1
		s-9.3-0.8-11.2,0.2c0,0,0,0,0,0c0,0,0,0,0,0h0c-0.6-0.7-11,8.7-16.8,16c0,0,0.1,0.3,0.4,0.7C3.2,63.9,0,69.2,0,73.7
		c0,10.2,14.9,16.9,22,19.6c0,2.3,0,3.8,0,3.8h37.6c0,0,0.2-26.2-0.2-30c0-0.2,0-0.4-0.1-0.6c0,0.4,0.1,0.6,0.1,0.6
		c0.2,0,0.4-0.1,0.6-0.1c4.7,6.7,12.4,14.3,21.4,11.6C96.7,74.1,85.2,41,85.2,41c3.6-0.5,9.4-3,10.4-7.2C96.5,29.8,93,28.3,92,30.1z
		 M20.4,66.8c0.6,0.1,1.2,0.2,1.9,0.3c0,0,0-0.4,0.1-1c0,0.4-0.1,0.8-0.1,1c-0.2,2-0.3,9.8-0.3,17c-2.5-3-5.4-6.9-5.2-9.1
		C16.9,73.1,18.7,69.7,20.4,66.8z"/>
</g>
</svg>
