<?xml version="1.0" encoding="UTF-8"?>
<svg id="_レイヤー_2" data-name="レイヤー 2" xmlns="http://www.w3.org/2000/svg" viewBox="0 0 131.55 87.02">
  <defs>
    <style>
      .cls-3 {
        fill: #211815;
        font-family: 'Noto Sans JP', sans-serif;
        font-weight: 700;
        font-size: 5.53px;
      }

      .cls-4 {
        fill: #f3f9fa;
      }

      .cls-5 {
        fill: #f3f0ef;
      }

      .cls-6, .cls-7 {
        fill: #fff;
      }

      .cls-8 {
        fill: #f2d0bc;
      }

      .cls-9, .cls-10 {
        fill: #303e4c;
      }

      .cls-11 {
        fill: #b2bdc2;
      }

      .cls-12 {
        fill: #c5ced5;
      }

      .cls-13 {
        fill: #d5dade;
      }

      .cls-14 {
        fill: #d5d5d5;
      }

      .cls-15 {
        fill: #418aa7;
      }

      .cls-16 {
        fill: #1a2344;
      }

      .cls-17 {
        fill: #344479;
      }

      .cls-19 {
        fill: none;
        stroke: #1a2344;
        stroke-dasharray: 0 0 .73 .73;
        stroke-miterlimit: 10;
        stroke-width: .36px;
      }


      .cls-10 {
        opacity: .2;
      }

      .cls-7 {
        stroke: #d8edf9;
        stroke-linecap: round;
        stroke-linejoin: round;
        stroke-width: 1.36px;
      }

    </style>
  </defs>
  <g id="_01" data-name="01">
    <g>




      <path class="cls-7" d="m123.59,12.26c4.36,1.33,7.27,5.06,7.27,9.19,0,5.2-4.8,9.46-10.47,9.46h-30.84c-5.82,0-10.47-4.26-10.47-9.46s3.93-9.06,9.31-9.59c.58-3.33,2.91-6,6.26-7.19,3.2-1.2,6.84-.93,9.6.8,2.62-4.4,8-5.73,12.8-4.13,4.95,1.73,7.86,6.13,6.55,10.92h0Z"/>
      <g>
        <g>
          <ellipse class="cls-9" cx="57.22" cy="28.03" rx="6.69" ry="9.11"/>
          <g>
            <polygon class="cls-14" points="59.84 29.69 59.44 25.49 54.99 25.49 54.6 29.69 51.44 30.57 54.05 37.14 60.38 37.14 62.99 30.57 59.84 29.69"/>
            <g>
              <path class="cls-5" d="m62.02,26.3c0,2.51-2.16,4.55-4.83,4.55s-4.83-2.04-4.83-4.55c0-7.56,2.16-7.85,4.83-7.85s4.83,1.1,4.83,7.85Z"/>
              <path class="cls-5" d="m61.02,25.58c0,.79.45,1.42,1,1.42s1-.64,1-1.42-.45-1.42-1-1.42-1,.64-1,1.42"/>
              <path class="cls-5" d="m51.41,25.58c0,.79.45,1.42,1,1.42s1.01-.64,1.01-1.42-.45-1.42-1.01-1.42-1,.64-1,1.42"/>
            </g>
          </g>
          <path class="cls-10" d="m63.34,23.91c.29-1.26.14-3.74-1.45-4.67-.11-.2-.25-.38-.42-.56-1.09-.42-2.45-.66-4.12-.66-1.94,0-3.44.33-4.61.87-.08.1-.16.21-.22.32-1.66.9-1.99,3.32-1.7,4.58-.53.12-.1,1.35-.1,2.07,0,.46.17.88.43,1.14.89-4.1,6.23-3.68,6.23-3.68,0,0,5.07-.4,6.15,3.38.13-.24.21-.53.21-.85,0-.76.18-1.88-.39-1.95Z"/>
          <path class="cls-9" d="m60.62,29.76s-2.94,3.82-7,0l-1.3.42,4.87,6.45,5.19-6.39-1.76-.48Z"/>
          <g>
            <g>
              <path class="cls-8" d="m68.01,33.6s1.95,1.52,3.6,5.76c1.03,2.65,2.8,7.58,2.1,8.94-2.37,4.59-14.37,5.06-14.37,5.06v-2.97s9.26-3.12,9.13-4.45c-.13-1.33-4.17-7.92-4.17-7.92l3.72-4.42Z"/>
              <path class="cls-8" d="m46.66,33.6s-1.95,1.52-3.6,5.76c-1.03,2.65-2.8,7.58-2.1,8.94,2.37,4.59,14.37,5.06,14.37,5.06v-2.97s-9.26-3.12-9.13-4.45c.13-1.33,4.17-7.92,4.17-7.92l-3.72-4.42Z"/>
              <g>
                <path class="cls-17" d="m66.23,55.25l.37-11.01,1.11,1.88,6.45-4.24-5.6-9.93s-2.16-1.94-5.68-1.42l-5.62,7.12-5.43-7.62c-3.52-.52-5.58,1.92-5.58,1.92l-4.96,9.44,5.81,4.74,1.11-1.88.62,10.92"/>
                <polygon class="cls-17" points="47.08 46.12 48.19 44.24 46.24 31.95 41.28 41.39 47.08 46.12"/>
                <polygon class="cls-17" points="67.7 46.12 66.59 44.24 68.54 31.95 74.15 41.88 67.7 46.12"/>
              </g>
              <path class="cls-8" d="m47.24,46.99c-2.06.51-4.12.99-6.2,1.44,2.53,4.47,14.3,4.93,14.3,4.93v-2.97s-5.71-1.92-8.1-3.39Z"/>
              <g>
                <path class="cls-8" d="m67.47,46.97c2.06.51,3.96,1.05,6.03,1.5-2.53,4.47-14.3,4.93-14.3,4.93v-2.97s5.87-1.99,8.27-3.46Z"/>
                <path class="cls-8" d="m63.52,52.25c-1.24,1.42-1.47,1.81-2.67,1.84-.92.02-2.13-.63-2.75-1.37-1.28-1.53.06-2.36.06-2.36,0,0-.55-.83.56-1.31,1.1-.47,3.85.64,3.85.64"/>
              </g>
              <path class="cls-17" d="m66.35,32.05l-2.25-2.44s2.25-13.57-6.86-14.26c-8.41.46-6.86,14.26-6.86,14.26l-1.77,2.23,8.93,7.58,8.81-7.37Zm-14.67-7.24c.79-4,5.56-3.59,5.56-3.59,0,0,4.77-.41,5.56,3.59.92,4.65-5.58,11.14-5.58,11.14,0,0-6.45-6.5-5.54-11.14Z"/>
            </g>
            <path class="cls-8" d="m51.03,52.21c1.24,1.42,1.47,1.81,2.67,1.84.91.02,2.13-.63,2.75-1.37,1.28-1.53-.06-2.36-.06-2.36,0,0,.55-.83-.56-1.31-1.1-.47-3.85.64-3.85.64"/>
          </g>
          <path class="cls-17" d="m63.66,20.89s1.59,3.34,1.69,4.12c.09.78-.82,4.06-2.05,5.33"/>
          <path class="cls-17" d="m51.14,20.89s-1.59,3.34-1.69,4.12c-.09.78.82,4.06,2.05,5.33"/>
          <g>
            <path class="cls-9" d="m62.02,24.35s-.87.57-4.74.57-4.9-.57-4.9-.57l-.06,1.32s.98,1.08,1.52,1.51c.53.43,1.72.73,2.57-.05.57-.51.79-.47.79-.47,0,0,.23-.04.79.47.86.78,2.04.48,2.57.05.53-.43,1.3-1.46,1.3-1.46l.16-1.37Z"/>
            <g>
              <path class="cls-5" d="m60.33,25.89c-.08-.38-.61-.58-1.19-.46-.57.13-.97.53-.89.91.08.38.62.58,1.19.45.58-.13.97-.53.89-.91Z"/>
              <path class="cls-5" d="m55.27,25.43c-.57-.13-1.11.08-1.19.46-.08.38.32.78.89.91.57.13,1.11-.08,1.19-.45.08-.38-.32-.78-.89-.91Z"/>
            </g>
          </g>
        </g>
        <path class="cls-9" d="m39.39,36.82h36.18c.76,0,1.38.62,1.38,1.38v21.58c0,.76-.62,1.38-1.38,1.38h-36.18c-.76,0-1.38-.62-1.38-1.38v-21.58c0-.76.62-1.38,1.38-1.38Z"/>
        <g>
          <g>
            <rect class="cls-16" x=".41" y="26.13" width="28.69" height="58.44" rx="4.05" ry="4.05"/>
            <path class="cls-15" d="m25.05,26.13c2.23,0,4.05,1.82,4.05,4.05v50.35c0,2.23-1.82,4.05-4.05,4.05H4.45c-2.23,0-4.05-1.82-4.05-4.05V30.18c0-2.23,1.82-4.05,4.05-4.05h20.6m0-.41H4.45c-2.46,0-4.45,2-4.45,4.45v50.35c0,2.46,2,4.45,4.45,4.45h20.6c2.46,0,4.45-2,4.45-4.45V30.18c0-2.46-2-4.45-4.45-4.45h0Z"/>
          </g>
          <path class="cls-4" d="m27.48,30.18v50.34c0,1.34-1.09,2.43-2.43,2.43H4.45c-1.34,0-2.43-1.09-2.43-2.43V30.18c0-1.34,1.09-2.43,2.43-2.43h2.99c.08,0,.14.06.14.14v.56c0,.7.57,1.27,1.27,1.27h11.78c.7,0,1.27-.57,1.27-1.27v-.56c0-.08.06-.14.14-.14h2.99c1.34,0,2.43,1.09,2.43,2.43Z"/>
        </g>
        <g>
          <g>
            <rect class="cls-16" x="95.66" y="27.93" width="19.52" height="39.77" rx="2.75" ry="2.75"/>
            <path class="cls-15" d="m112.43,27.93c1.52,0,2.75,1.24,2.75,2.75v34.26c0,1.52-1.24,2.75-2.75,2.75h-14.01c-1.52,0-2.75-1.24-2.75-2.75V30.69c0-1.52,1.24-2.75,2.75-2.75h14.01m0-.28h-14.01c-1.67,0-3.03,1.36-3.03,3.03v34.26c0,1.67,1.36,3.03,3.03,3.03h14.01c1.67,0,3.03-1.36,3.03-3.03V30.69c0-1.67-1.36-3.03-3.03-3.03h0Z"/>
          </g>
          <path class="cls-4" d="m114.08,30.69v34.26c0,.91-.74,1.65-1.65,1.65h-14.01c-.91,0-1.65-.74-1.65-1.65V30.69c0-.91.74-1.65,1.65-1.65h2.03c.05,0,.1.04.1.1v.38c0,.48.39.87.87.87h8.02c.48,0,.87-.39.87-.87v-.38c0-.05.04-.1.1-.1h2.03c.91,0,1.65.74,1.65,1.65Z"/>
        </g>
        <path class="cls-6" d="m59.65,45.44c-1.34-.72-2.96-.72-4.3,0-1.35.72-2.6,2.19-1.33,5.14,0,0-.68,2.27,1.48,1.76,0,0,.35-.06.32.46h0v.31c0,.2.16.37.37.37h.01c.2,0,.37-.16.37-.37v-.3h.57v.3c0,.2.16.37.37.37h.01c.2,0,.37-.16.37-.37v-.3h.54v.3c0,.2.16.37.37.37h.01c.2,0,.37-.16.37-.37v-.3h0c-.02-.53.32-.47.32-.47,2.16.51,1.48-1.76,1.48-1.76,1.27-2.96.02-4.43-1.33-5.14Zm-3.75,5.2c-.52,0-.94-.42-.94-.94s.42-.94.94-.94.94.42.94.94-.42.94-.94.94Zm1.29.75c.02-.19.16-.34.33-.34s.31.15.33.34c0,.08.01.18.01.29,0,.17-.04.19-.1.16-.15-.07-.33-.08-.48,0-.06.03-.1.01-.1-.16,0-.11,0-.2.01-.29Zm1.87-.75c-.52,0-.94-.42-.94-.94s.42-.94.94-.94.94.42.94.94-.42.94-.94.94Z"/>
      </g>
      <g>
        <path class="cls-9" d="m75.64,79.79h-6.36c-.24,0-.43.2-.43.43v6.36c0,.24.2.43.43.43h6.36c.24,0,.43-.2.43-.43v-6.36c0-.56-.87-.56-.87,0v6.36l.43-.43h-6.36l.43.43v-6.36l-.43.43h6.36c.56,0,.56-.87,0-.87Z"/>
        <path class="cls-9" d="m73.35,82.52h-1.78v1.78h1.78c0-.73,0-1.46,0-1.78Z"/>
        <path class="cls-9" d="m73.35,82.08h-1.78c-.24,0-.43.2-.43.43v1.78c0,.24.2.43.43.43h1.78c.24,0,.43-.2.43-.43v-1.78c0-.24-.19-.43-.43-.43-.24,0-.43.19-.43.43v1.78l.43-.43h-1.78l.43.43v-1.78l-.43.43h1.78c.24,0,.43-.19.43-.43s-.19-.43-.43-.43h0Z"/>
        <path class="cls-9" d="m75.64,69.32h-6.36c-.24,0-.43.2-.43.43v6.36c0,.24.2.43.43.43h6.36c.24,0,.43-.2.43-.43v-6.36c0-.56-.87-.56-.87,0v6.36l.43-.43h-6.36l.43.43v-6.36l-.43.43h6.36c.56,0,.56-.87,0-.87Z"/>
        <path class="cls-9" d="m77.38,69.75v6.36c0,.56.87.56.87,0v-6.36c0-.56-.87-.56-.87,0Z"/>
        <path class="cls-9" d="m75.64,77.71h-6.36c-.56,0-.56.87,0,.87h6.36c.56,0,.56-.87,0-.87Z"/>
        <path class="cls-9" d="m86.15,77.71h-3.49c-.56,0-.56.87,0,.87h3.49c.56,0,.56-.87,0-.87Z"/>
        <path class="cls-9" d="m77.72,78.58h3.09l-.43-.43v3.09c0,.24.2.43.43.43h3.09l-.43-.43v3.09c0,.56.87.56.87,0v-3.09c0-.24-.2-.43-.43-.43h-3.09l.43.43v-3.09c0-.24-.2-.43-.43-.43h-3.09c-.56,0-.56.87,0,.87h0Z"/>
        <path class="cls-9" d="m77.39,80.23v6.36c0,.24.2.43.43.43h2.1c.56,0,.56-.87,0-.87h-2.1l.43.43v-6.36c0-.56-.87-.56-.87,0Z"/>
        <path class="cls-9" d="m81.92,87.02h4.22c.24,0,.43-.2.43-.43v-4.45c0-.56-.87-.56-.87,0v4.45l.43-.43h-4.22c-.56,0-.56.87,0,.87h0Z"/>
        <path class="cls-9" d="m73.35,72.04h-1.78v1.78h1.78v-1.78Z"/>
        <path class="cls-9" d="m73.35,71.61h-1.78c-.24,0-.43.2-.43.43v1.78c0,.24.2.43.43.43h1.78c.24,0,.43-.2.43-.43v-1.78c0-.24-.19-.43-.43-.43-.24,0-.43.19-.43.43v1.78l.43-.43h-1.78l.43.43v-1.78l-.43.43h1.78c.24,0,.43-.19.43-.43s-.19-.43-.43-.43Z"/>
        <path class="cls-9" d="m86.37,69.32h-6.36c-.24,0-.43.2-.43.43v6.36c0,.24.2.43.43.43h6.36c.24,0,.43-.2.43-.43v-6.36c0-.56-.87-.56-.87,0v6.36l.43-.43h-6.36l.43.43v-6.36l-.43.43h6.36c.56,0,.56-.87,0-.87Z"/>
        <path class="cls-9" d="m84.08,72.04h-1.78v1.78h1.78v-1.78Z"/>
        <path class="cls-9" d="m84.08,71.61h-1.78c-.24,0-.43.2-.43.43v1.78c0,.24.2.43.43.43h1.78c.24,0,.43-.2.43-.43v-1.78c0-.24-.19-.43-.43-.43s-.43.19-.43.43h0v1.78l.43-.43h-1.78l.43.43v-1.78l-.43.43h1.78c.24,0,.43-.19.43-.43s-.19-.43-.43-.43Z"/>
        <path class="cls-9" d="m81.82,83.4h-1.69v.76h1.69v-.76Z"/>
        <path class="cls-9" d="m81.82,82.96h-1.69c-.24,0-.43.2-.43.43v.76c0,.24.2.43.43.43h1.69c.24,0,.43-.2.43-.43v-.76c0-.24-.19-.43-.43-.43-.24,0-.43.19-.43.43h0v.76l.43-.43h-1.69l.43.43v-.76l-.43.43h1.69c.24,0,.43-.19.43-.43s-.19-.43-.43-.43h0Z"/>
        <path class="cls-9" d="m83.46,78.17v1.01c0,.11.05.23.13.31.17.17.44.17.61,0,.08-.08.13-.19.13-.31v-1.01c0-.11-.05-.23-.13-.31-.17-.17-.44-.17-.61,0-.08.08-.13.19-.13.31Z"/>
        <path class="cls-9" d="m85.7,78.17v2.06c0,.24.19.43.43.43s.43-.19.43-.43v-2.06c0-.24-.19-.43-.43-.43s-.43.19-.43.43h0Z"/>
      </g>
      <g>
        <g>
          <rect class="cls-11" x="3.57" y="60.46" width="12" height="11.77"/>
          <rect class="cls-13" x="16.72" y="60.46" width="9.86" height="1.83"/>
          <rect class="cls-13" x="16.72" y="63.25" width="9.86" height="1.83"/>
          <rect class="cls-13" x="16.72" y="65.98" width="9.86" height="1.83"/>
        </g>
        <rect class="cls-13" x="3.57" y="73.93" width="23.01" height="2.46"/>
        <rect class="cls-11" x="3.57" y="77.54" width="23.01" height="1.06"/>
        <rect class="cls-12" x="3.57" y="54.05" width="23.01" height="2.46"/>
        <rect class="cls-11" x="3.57" y="57.65" width="23.01" height="1.06"/>
        <rect class="cls-11" x="3.57" y="40.11" width="12" height="11.77"/>
        <rect class="cls-13" x="16.72" y="40.11" width="9.86" height="1.83"/>
        <rect class="cls-13" x="16.72" y="42.9" width="9.86" height="1.83"/>
        <rect class="cls-13" x="16.72" y="45.63" width="9.86" height="1.83"/>
        <rect class="cls-13" x="3.57" y="33.7" width="23.01" height="2.46"/>
        <rect class="cls-11" x="3.57" y="37.3" width="23.01" height="1.06"/>
      </g>
      <g>
        <g>
          <rect class="cls-11" x="98.61" y="51.39" width="7.12" height="6.99"/>
          <rect class="cls-13" x="106.42" y="51.39" width="5.85" height="1.09"/>
          <rect class="cls-13" x="106.42" y="53.04" width="5.85" height="1.09"/>
          <rect class="cls-13" x="106.42" y="54.66" width="5.85" height="1.09"/>
        </g>
        <rect class="cls-13" x="98.61" y="59.38" width="13.66" height="1.46"/>
        <rect class="cls-11" x="98.61" y="61.52" width="13.66" height=".63"/>
        <rect class="cls-12" x="98.61" y="47.58" width="13.66" height="1.46"/>
        <rect class="cls-11" x="98.61" y="49.72" width="13.66" height=".63"/>
        <rect class="cls-11" x="98.61" y="39.31" width="7.12" height="6.99"/>
        <rect class="cls-13" x="106.42" y="39.31" width="5.85" height="1.09"/>
        <rect class="cls-13" x="106.42" y="40.96" width="5.85" height="1.09"/>
        <rect class="cls-13" x="106.42" y="42.58" width="5.85" height="1.09"/>
        <rect class="cls-13" x="98.61" y="35.5" width="13.66" height="1.46"/>
        <rect class="cls-11" x="98.61" y="37.64" width="13.66" height=".63"/>
      </g>
      <path class="cls-19" d="m46.94,29.95c-1.2-7.11-7.88-8.81-11.35-7.21-3.01,1.39-4.34,5.64-2.28,8.25.44.56,1.09,1.06,1.79.98.82-.09,1.39-.96,1.36-1.78-.03-.82-.52-1.56-1.11-2.14-2.03-1.99-5.36-2.34-7.93-1.12-2.57,1.22-4.33,3.83-4.87,6.61"/>
      <path class="cls-19" d="m68.8,47.59c1.2,7.11,7.88,8.81,11.35,7.21,3.01-1.39,4.34-5.64,2.28-8.25-.44-.56-1.09-1.06-1.79-.98-.82.09-1.39.96-1.36,1.78.03.82.52,1.56,1.11,2.14,2.03,1.99,5.36,2.34,7.93,1.12,2.57-1.22,4.33-3.83,4.87-6.61"/>



      <text class="cls-3" transform="translate(15 10)"><tspan x="0" y="0" text-anchor="middle">❶</tspan><tspan x="0" y="6" text-anchor="middle">デザインを</tspan><tspan x="0" y="12" text-anchor="middle">複製</tspan></text>
      <text class="cls-3" transform="translate(105 12)"><tspan x="0" y="0" text-anchor="middle">❷</tspan><tspan x="0" y="6" text-anchor="middle">偽サイトを</tspan><tspan x="0" y="12" text-anchor="middle">サーバーにアップ</tspan></text>
      <text class="cls-3" transform="translate(50 73)"><tspan x="0" y="0" text-anchor="middle">❸</tspan><tspan x="0" y="6" text-anchor="middle">偽サイトの</tspan><tspan x="0" y="12" text-anchor="middle">QRの作成</tspan></text>

    </g>
  </g>
</svg>