<?xml version="1.0" encoding="UTF-8"?>
<svg id="_レイヤー_2" data-name="レイヤー 2" xmlns="http://www.w3.org/2000/svg" xmlns:xlink="http://www.w3.org/1999/xlink" viewBox="0 0 95.81 77.45">
  <defs>
    <style>
      .cls-1, .cls-2, .cls-3 {
        fill: none;
      }

      .cls-4 {
        clip-path: url(#clippath);
      }

      .cls-5 {
        fill: #f3f0ef;
      }

      .cls-6 {
        fill: #9e9e9f;
      }

      .cls-7 {
        fill: #6671ad;
      }

      .cls-8 {
        fill: #72a0ae;
      }

      .cls-9 {
        fill: #d5d5d5;
      }

      .cls-10 {
        fill: #20132c;
      }

      .cls-11 {
        fill: #717071;
      }

      .cls-12 {
        fill: #888;
      }

      .cls-13 {
        fill: #595757;
      }

      .cls-14 {
        fill: #55b1d7;
      }

      .cls-15 {
        fill: #344479;
      }

      .cls-16 {
        fill: #586296;
      }

      .cls-17 {
        fill: url(#_裼_胙琅韃_101-2);
      }

      .cls-18 {
        fill: url(#_裼_胙琅韃_101-4);
      }

      .cls-19 {
        fill: url(#_裼_胙琅韃_101-3);
      }

      .cls-20 {
        fill: url(#_裼_胙琅韃_104-5);
      }

      .cls-21 {
        fill: url(#_裼_胙琅韃_104-2);
      }

      .cls-22 {
        fill: url(#_裼_胙琅韃_104-3);
      }

      .cls-23 {
        fill: url(#_裼_胙琅韃_104-4);
      }

      .cls-2 {
        stroke: #717071;
        stroke-width: .34px;
      }

      .cls-2, .cls-3 {
        stroke-linecap: round;
        stroke-linejoin: round;
      }

      .cls-3 {
        stroke: #888;
        stroke-width: .68px;
      }

      .cls-24 {
        fill: url(#_裼_胙琅韃_101);
      }

      .cls-25 {
        fill: url(#_裼_胙琅韃_104);
      }
    </style>
    <clipPath id="clippath">
      <polygon class="cls-1" points="41.16 6.81 18.41 23.74 18.41 77.45 0 77.45 0 .2 41.16 6.81"/>
    </clipPath>
    <linearGradient id="_裼_胙琅韃_101" data-name="ﾁ裼 胙琅韃 101" x1="6.07" y1="58.21" x2="41.68" y2="58.21" gradientUnits="userSpaceOnUse">
      <stop offset=".13" stop-color="#29325f"/>
      <stop offset=".15" stop-color="#363f6c"/>
      <stop offset=".48" stop-color="#363f6c"/>
      <stop offset=".49" stop-color="#404a7e"/>
      <stop offset=".88" stop-color="#404a7e"/>
      <stop offset=".88" stop-color="#363f6c"/>
    </linearGradient>
    <linearGradient id="_裼_胙琅韃_104" data-name="ﾁ裼 胙琅韃 104" x1="7.23" y1="39.53" x2="40.52" y2="39.53" gradientUnits="userSpaceOnUse">
      <stop offset=".13" stop-color="#1e2a5c"/>
      <stop offset=".15" stop-color="#2a3568"/>
      <stop offset=".48" stop-color="#2a3568"/>
      <stop offset=".49" stop-color="#323e7a"/>
      <stop offset=".88" stop-color="#323e7a"/>
      <stop offset=".88" stop-color="#2a3568"/>
    </linearGradient>
    <linearGradient id="_裼_胙琅韃_101-2" data-name="ﾁ裼 胙琅韃 101" y1="33.45" y2="33.45" xlink:href="#_裼_胙琅韃_101"/>
    <linearGradient id="_裼_胙琅韃_104-2" data-name="ﾁ裼 胙琅韃 104" y1="25.34" y2="25.34" xlink:href="#_裼_胙琅韃_104"/>
    <linearGradient id="_裼_胙琅韃_101-3" data-name="ﾁ裼 胙琅韃 101" x1="6.27" y1="21.04" x2="41.47" y2="21.04" xlink:href="#_裼_胙琅韃_101"/>
    <linearGradient id="_裼_胙琅韃_104-3" data-name="ﾁ裼 胙琅韃 104" x1="51.64" y1="54.47" x2="95.81" y2="54.47" xlink:href="#_裼_胙琅韃_104"/>
    <linearGradient id="_裼_胙琅韃_104-4" data-name="ﾁ裼 胙琅韃 104" x1="51.55" y1="54.47" x2="95.72" y2="54.47" xlink:href="#_裼_胙琅韃_104"/>
    <linearGradient id="_裼_胙琅韃_101-4" data-name="ﾁ裼 胙琅韃 101" x1="51.55" y1="65.54" x2="96.09" y2="65.54" xlink:href="#_裼_胙琅韃_101"/>
    <linearGradient id="_裼_胙琅韃_104-5" data-name="ﾁ裼 胙琅韃 104" x1="51.59" y1="57.65" x2="95.79" y2="57.65" xlink:href="#_裼_胙琅韃_104"/>
  </defs>
  <g id="_01" data-name="01">
    <g>
      <g>
        <path class="cls-11" d="m41.47,14.27c0,.88-.19,1.74-.61,2.55-1.08,2.41-3.73,4.45-7.32,5.77-2.78,1.03-6.09,1.64-9.65,1.64-1.92,0-3.76-.17-5.48-.49-1.5-.27-2.9-.67-4.18-1.16-3.58-1.33-6.24-3.36-7.34-5.75-.39-.81-.62-1.64-.62-2.53,0-4.42,5.09-8.16,12.14-9.48,1.72-.32,3.56-.49,5.45-.49,9.73,0,17.61,4.45,17.61,9.93Z"/>
        <path class="cls-11" d="m41.41,13.67l.26,54.22c0,.37-.02.74-.12,1.12-.95,5.04-3.11-5.29-15.3-5.29-8.14,0-9.15,1.36-12.2,2.03-6.44,1.43-7.05,7.28-7.84,3.3-.07-.37-.12-.74-.12-1.14l-.03-26.23v-3.16l4.38-22.91,7.9-.02,18.94-.03,4.14-1.9Z"/>
        <path class="cls-13" d="m7.38,42.36v-2.32c0-.34.02-.68.12-1.03.87-4.65,7.85-8.24,16.28-8.24,1.79,0,3.5.16,5.11.46,5.98,1.1,11.21,3.84,11.95,7.5.07.34.63,3.73.63,3.73.05-2.59.05-1.77.05-3.01,0-.88-.39-2.34-.78-3.15-1.1-2.37-3.75-4.4-7.32-5.73-1.27-.49-2.67-.88-4.16-1.15-1.72-.32-3.55-.49-5.46-.49-3.55,0-6.86.61-9.62,1.64-3.58,1.32-6.22,3.36-7.3,5.76-.42.81-.61,1.66-.61,2.55,0,1.23.42,2.4,1.14,3.48Z"/>
        <path class="cls-13" d="m7.38,28.14v-2.32c0-.34.02-.68.12-1.03.87-4.65,7.85-8.24,16.28-8.24,1.79,0,3.5.16,5.11.46,5.98,1.1,11.21,3.84,11.95,7.5.07.34.63,3.73.63,3.73.05-2.59.05-1.77.05-3.01,0-.88-.39-2.34-.78-3.15-1.1-2.37-3.75-4.4-7.32-5.73-1.27-.49-2.67-.88-4.16-1.15-1.72-.32-3.55-.49-5.46-.49-3.55,0-6.86.61-9.62,1.64-3.58,1.32-6.22,3.36-7.3,5.76-.42.81-.61,1.66-.61,2.55,0,1.23.42,2.4,1.14,3.48Z"/>
        <rect class="cls-3" x="22.59" y="7.36" width="7.34" height="28.92"/>
        <rect class="cls-3" x="23.97" y="9.71" width="4.58" height="25.36"/>
        <g class="cls-4">
          <path class="cls-24" d="m41.68,38.47v29.41c0,.37-.02.74-.12,1.12-.95,5.04-8.53,8.94-17.67,8.94-1.94,0-3.8-.17-5.54-.5-6.49-1.19-11.33-4.42-12.13-8.4-.07-.37-.12-.74-.12-1.14l-.03-26.23v-3.16h4.38l7.9-.02,18.94-.03h4.4Z"/>
          <path class="cls-16" d="m41.68,38.47c0,.9-.2,1.77-.62,2.59-1.09,2.44-3.78,4.5-7.41,5.84-2.81,1.04-6.16,1.66-9.77,1.66-1.94,0-3.8-.17-5.54-.5-1.52-.27-2.93-.67-4.23-1.17-3.63-1.34-6.31-3.41-7.43-5.81-.4-.82-.62-1.67-.62-2.56,0-4.47,5.15-8.25,12.28-9.59,1.74-.32,3.6-.5,5.52-.5,9.84,0,17.82,4.5,17.82,10.04Z"/>
          <path class="cls-25" d="m40.52,32.36v4.93c0,.35-.02.69-.12,1.04-.88,4.72-7.97,8.36-16.52,8.36-1.81,0-3.56-.16-5.18-.46-6.06-1.12-10.59-4.14-11.34-7.85-.07-.35-.11-.7-.11-1.07l-.02-1.96v-2.95h4.09l7.39-.02,17.71-.02h4.11Z"/>
          <path class="cls-17" d="m41.68,24.33v8.18c0,.37-.02.75-.12,1.12-.95,5.05-8.53,8.95-17.67,8.95-1.94,0-3.8-.17-5.54-.5-6.49-1.19-11.33-4.42-12.13-8.4-.07-.37-.12-.74-.12-1.14l-.03-5.01v-3.16h4.38l7.9-.02,18.94-.02h4.4Z"/>
          <path class="cls-16" d="m41.68,24.33c0,.89-.2,1.76-.62,2.58-1.09,2.44-3.78,4.5-7.41,5.84-2.81,1.04-6.16,1.67-9.77,1.67-1.94,0-3.8-.18-5.54-.5-1.52-.27-2.93-.67-4.23-1.17-3.63-1.34-6.31-3.41-7.43-5.81-.4-.82-.62-1.66-.62-2.56,0-4.47,5.15-8.25,12.28-9.59,1.74-.32,3.6-.5,5.52-.5,9.84,0,17.82,4.5,17.82,10.04Z"/>
          <path class="cls-21" d="m40.52,18.17v4.93c0,.35-.02.69-.12,1.04-.88,4.72-7.97,8.36-16.52,8.36-1.81,0-3.56-.16-5.18-.46-6.06-1.11-10.59-4.13-11.34-7.85-.07-.35-.11-.7-.11-1.07l-.02-1.96v-2.95h4.09l7.39-.02,17.71-.02h4.11Z"/>
          <path class="cls-19" d="m41.47,14.27v3.59c0,.37-.02.74-.12,1.11-.93,4.99-8.43,8.84-17.46,8.84-1.92,0-3.76-.17-5.48-.49-6.41-1.18-11.2-4.38-11.99-8.31-.07-.37-.12-.74-.12-1.13l-.03-.45v-3.12h4.33l7.81-.02,18.72-.02h4.35Z"/>
          <path class="cls-16" d="m41.47,14.27c0,.88-.19,1.74-.61,2.55-1.08,2.41-3.73,4.45-7.32,5.77-2.78,1.03-6.09,1.64-9.65,1.64-1.92,0-3.76-.17-5.48-.49-1.5-.27-2.9-.67-4.18-1.16-3.58-1.33-6.24-3.36-7.34-5.75-.39-.81-.62-1.64-.62-2.53,0-4.42,5.09-8.16,12.14-9.48,1.72-.32,3.56-.49,5.45-.49,9.73,0,17.61,4.45,17.61,9.93Z"/>
          <path class="cls-7" d="m40.86,15.53c-1.08,2.41-3.73,4.45-7.32,5.77-2.78,1.03-6.09,1.64-9.65,1.64-1.92,0-3.76-.17-5.48-.49-1.5-.27-2.9-.67-4.18-1.16-3.58-1.33-6.24-3.36-7.34-5.75-.32-.66-.49-1.34-.56-2.06-.04.27-.06.54-.06.82,0,.89.22,1.72.62,2.53,1.1,2.38,3.76,4.42,7.34,5.75,1.28.49,2.68.89,4.18,1.15,1.72.32,3.56.49,5.48.49,3.56,0,6.88-.61,9.65-1.64,3.59-1.33,6.24-3.36,7.32-5.77.42-.81.61-1.67.61-2.55,0-.25-.03-.49-.07-.73-.07.68-.22,1.36-.55,1.99Z"/>
        </g>
      </g>
      <g>
        <path class="cls-22" d="m95.81,50.41c0-10.36-9.89-18.76-22.08-18.76s-22.08,8.4-22.08,18.76c0,1.18.35,2.77.8,4.36l2.24,8.64c.12.67.29,1.32.51,1.96l.02.09h0c2.33,6.82,9.73,11.81,18.51,11.81s16.18-4.99,18.51-11.81h.04l2.75-10.46s.78-3.36.78-4.6Z"/>
        <path class="cls-23" d="m95.72,50.41c0-10.36-9.89-18.76-22.08-18.76s-22.08,8.4-22.08,18.76c0,1.18.35,2.77.8,4.36l2.24,8.64c.12.67.29,1.32.51,1.96l.02.09h0c2.33,6.82,9.73,11.81,18.51,11.81s16.18-4.99,18.51-11.81h.04l2.75-10.46s.78-3.36.78-4.6Z"/>
        <path class="cls-6" d="m53.3,50.06c0-9.41,9.51-16.18,20.3-16.18s20.56,7.63,20.56,17.04-9.77,16.15-20.56,16.15-20.3-7.6-20.3-17.01Z"/>
        <path class="cls-12" d="m73.59,39.24c10.49,0,20.01,7.21,20.54,16.26.02-.26.03-.52.03-.78,0-9.41-9.77-17.04-20.56-17.04s-20.3,6.77-20.3,16.18c0,.26,0,.52.02.78.51-9,9.78-15.4,20.27-15.4Z"/>
        <path class="cls-12" d="m73.59,36.33c10.49,0,20.01,7.21,20.54,16.26.02-.26.03-.52.03-.78,0-9.41-9.77-17.04-20.56-17.04s-20.3,6.77-20.3,16.18c0,.26,0,.52.02.78.51-9,9.78-15.4,20.27-15.4Z"/>
        <path class="cls-12" d="m73.6,41.9c10.19,0,19.44,7,19.94,15.79.01-.25.02-.5.02-.76,0-9.14-9.49-16.55-19.97-16.55s-19.71,6.58-19.71,15.72c0,.25,0,.51.02.76.49-8.74,9.5-14.96,19.69-14.96Z"/>
        <path class="cls-12" d="m73.6,44.73c9.8,0,18.7,6.64,19.19,14.97.01-.24.02-.48.02-.72,0-8.67-9.13-15.69-19.21-15.69s-18.97,6.24-18.97,14.91c0,.24,0,.48.02.72.48-8.29,9.14-14.19,18.94-14.19Z"/>
        <ellipse class="cls-12" cx="73.73" cy="60.91" rx="17.69" ry="15.03"/>
        <rect class="cls-2" x="71.77" y="35.83" width="3.87" height="13.33"/>
        <rect class="cls-2" x="72.74" y="36.73" width="1.92" height="11.5"/>
        <g>
          <path class="cls-11" d="m75.97,64.95l-2.23.33-2.23-.33v-.47c0-.26.27-.47.59-.47h3.28c.32,0,.58.21.58.47v.47Z"/>
          <g>
            <path class="cls-11" d="m73.74,68.06c-7.09,0-12.52-4.67-12.12-10.07.36-4.87,5.39-8.68,11.44-8.95l.65-.03h0s.04,0,.04,0h.04s0,0,0,0l.65.03c6.05.26,11.08,4.08,11.44,8.95.4,5.4-5.02,10.07-12.12,10.07Zm-1.17-18.71c-5.63.44-10.23,4.07-10.56,8.65-.38,5.23,4.88,9.73,11.73,9.73s12.11-4.51,11.73-9.73c-.33-4.58-4.93-8.21-10.56-8.65.18.18.28.4.29.64,0,.6-.65,1.09-1.46,1.09s-1.46-.49-1.46-1.09c0-.23.1-.45.29-.64Zm1.17-.31l-.57.26c-.33.15-.52.41-.52.69,0,.45.49.82,1.09.82s1.1-.37,1.09-.82c0-.28-.2-.54-.52-.69l-.57-.26Z"/>
            <path class="cls-11" d="m73.74,67.39c-6.62,0-11.7-4.34-11.35-9.39.29-4.15,4.22-7.56,9.33-8.28l.24-.03-.02.18s0,.08,0,.13c0,.75.81,1.37,1.82,1.37s1.83-.62,1.82-1.37c0-.04,0-.08,0-.13l-.02-.18.24.03c5.1.72,9.04,4.13,9.33,8.28.35,5.05-4.73,9.39-11.35,9.39Zm-2.19-17.38c-4.83.76-8.52,4.03-8.78,7.98-.33,4.87,4.58,9.06,10.97,9.06s11.3-4.19,10.97-9.06c-.27-3.96-3.96-7.22-8.78-7.98,0,.89-.98,1.62-2.19,1.62s-2.18-.73-2.19-1.62Z"/>
            <path class="cls-11" d="m73.74,66.72c-6.15,0-10.89-4.03-10.59-8.73.24-3.63,3.5-6.71,7.89-7.61l.18-.04.05.13c.29.84,1.31,1.43,2.47,1.43s2.18-.59,2.47-1.43l.05-.13.18.04c4.4.9,7.66,3.98,7.89,7.61.3,4.7-4.44,8.73-10.59,8.73Zm-2.77-16.04c-4.15.91-7.21,3.85-7.43,7.31-.28,4.52,4.29,8.39,10.2,8.39s10.49-3.87,10.2-8.39c-.22-3.46-3.27-6.4-7.43-7.31-.39.89-1.5,1.5-2.77,1.5s-2.39-.61-2.77-1.5Z"/>
            <path class="cls-11" d="m73.74,66.06c-5.68,0-10.08-3.71-9.82-8.06.19-3.19,2.89-5.94,6.67-6.93l.15-.04.07.11c.56.82,1.68,1.34,2.93,1.34s2.36-.52,2.93-1.34l.07-.11.15.04c3.79,1,6.48,3.75,6.67,6.93.26,4.35-4.14,8.06-9.82,8.06Zm-3.18-14.7c-3.56.99-6.08,3.61-6.26,6.64-.24,4.18,3.99,7.73,9.44,7.73s9.68-3.56,9.44-7.73c-.17-3.02-2.7-5.64-6.26-6.64-.64.85-1.85,1.38-3.18,1.38s-2.53-.53-3.18-1.38Z"/>
            <path class="cls-11" d="m73.74,65.4c-5.22,0-9.28-3.4-9.05-7.41.15-2.78,2.36-5.21,5.58-6.25l.13-.04.09.09c.75.77,1.96,1.24,3.25,1.24s2.5-.46,3.25-1.24l.09-.09.13.04c3.23,1.04,5.43,3.47,5.58,6.25.22,4-3.83,7.41-9.05,7.41Zm-3.46-13.36c-3.02,1.03-5.07,3.33-5.21,5.95-.2,3.83,3.68,7.08,8.67,7.08s8.87-3.25,8.67-7.08c-.14-2.63-2.19-4.93-5.21-5.95-.82.79-2.11,1.26-3.46,1.26s-2.64-.47-3.46-1.26Z"/>
          </g>
          <path class="cls-8" d="m74.47,49.97c0,.3-.32.54-.73.54s-.73-.24-.73-.54.33-.54.73-.54.73.24.73.54Z"/>
          <g>
            <path class="cls-11" d="m74.73,60.82c0,.44-.44.79-.99.79s-.99-.35-.99-.79.44-.78.99-.78.98.35.99.78Z"/>
            <g>
              <path class="cls-11" d="m73.74,57.71c-1.84,0-2.66,1.09-2.7,1.14-.2.28-.08.63.27.78.11.05.23.07.36.07.26,0,.5-.11.64-.29,0,0,.44-.57,1.44-.57s1.41.54,1.44.57c.14.18.38.29.63.29.12,0,.24-.02.36-.07.35-.16.47-.51.27-.78-.03-.05-.86-1.14-2.7-1.14Z"/>
              <path class="cls-11" d="m73.74,55.32c-3.22,0-4.66,1.86-4.72,1.94-.2.27-.09.61.25.76.11.05.23.07.35.07.25,0,.5-.1.63-.28.04-.06,1.09-1.4,3.48-1.4s3.43,1.33,3.48,1.39c.14.18.38.29.63.29.12,0,.24-.02.35-.07.34-.15.46-.5.25-.77-.06-.08-1.5-1.94-4.72-1.94Z"/>
            </g>
          </g>
          <path class="cls-11" d="m76.84,53.06l-3.61-2.7c-.28-.21-.28-.56,0-.77h0c.28-.21.74-.21,1.03,0l3.61,2.68c.29.22.3.57.02.79h0c-.28.22-.76.22-1.05,0Z"/>
        </g>
        <path class="cls-18" d="m73.57,65.73c-8.94,0-17.15-4.98-21.47-11.92.08.32.16.64.25.96l2.24,8.64c.12.67.29,1.32.51,1.96l.02.09h0c2.33,6.82,9.73,11.81,18.51,11.81s16.24-4.73,18.57-11.55l.22-.67,2.83-11.26c-4.51,6.3-13,11.93-21.68,11.93Z"/>
        <path class="cls-20" d="m94.7,49.99c-1.25,7.37-5.72,10.57-8.77,12.17-3.43,1.8-7.67,2.65-12.16,2.65-2.42,0-4.74-.28-6.9-.79-1.89-.43-3.65-1.07-5.26-1.86-4.52-2.13-8.48-7.04-8.27-11.54.05-1.08-1.75-.74-1.75-.26,0,1.42.27,2.35.76,3.66,1.39,3.83,4.74,7.11,9.26,9.24,1.61.79,3.37,1.42,5.26,1.86,2.17.51,4.49.79,6.9.79,4.49,0,8.67-.99,12.16-2.65,4.52-2.13,7.85-5.15,9.21-9.02.53-1.3.64-2.94.64-4.36,0-.45-.69-.87-1.09.12Z"/>
      </g>
      <g>
        <circle class="cls-14" cx="68.76" cy="21.14" r="2.61"/>
        <path class="cls-14" d="m76.27,23.44c-.48.02-.9-.15-1.27-.49-.31-.29-.56-.75-.58-1.23-.12-3.45-3.07-6.2-6.58-6.14-.95.03-1.75-.71-1.78-1.66-.03-.95.71-1.75,1.66-1.78,5.35-.19,9.96,4.11,10.15,9.46.1,1.01-.65,1.81-1.6,1.84h0Z"/>
        <path class="cls-14" d="m82.33,23.23c-.48.02-.9-.15-1.27-.49-.31-.29-.56-.75-.58-1.23-.24-6.89-5.96-12.23-12.86-11.99-.95.03-1.75-.71-1.78-1.66-.03-.95.71-1.75,1.66-1.78,8.8-.31,16.12,6.52,16.42,15.31.09,1.01-.65,1.81-1.6,1.84h0Z"/>
        <path class="cls-14" d="m90.06,21.23c.03.95-.71,1.75-1.66,1.78-.48.02-.9-.15-1.27-.49-.31-.29-.56-.75-.58-1.23-.36-10.22-8.91-18.19-19.13-17.84-.95.03-1.75-.71-1.78-1.66-.03-.95.71-1.75,1.66-1.78,5.82-.2,11.43,1.92,15.68,5.88,4.42,4.01,6.88,9.52,7.08,15.34h0Z"/>
      </g>
      <g>
        <path class="cls-15" d="m41.37,12.69s1.15.13,2.06.72c.91.59,9.08,5.07,10.32,11.67s-7.98,16.52-12.38,14.24V12.69Z"/>
        <path class="cls-10" d="m48.74,16.8l-1.25,1.47.05.99c.26-.37.8-.81,1.19-1.12.29-.23.7-.2.95.07l.07.07s2.61-1.71,3.66-7.7l-4.66,6.23Z"/>
        <g>
          <g>
            <polygon class="cls-9" points="47.58 18.44 49.32 16.35 47.58 15.16 47.58 18.44"/>
            <path class="cls-5" d="m53.66,8.76c-.1,1.2-.36,2.41-.73,3.52,0,0,0,.01,0,.02-.94,2.81-2.55,4.93-3.89,4.39-.38-.15-.72-.33-1.01-.52-1.12-.75-1.6-1.83-2.04-3.26,0,0-1.21.43-1.53-1.29-.31-1.72.86-1.99,1.57.12,0,0,.67.2.78-.47.12-.67.55-2.51.55-2.51,0,0,1.72.78,3.05-.51,1.33-1.29,3.25.51,3.25.51Z"/>
            <path class="cls-9" d="m52.93,12.28c.17-.87-.21-1.9-1.49-1.62-1.4.32-3.42,3.66-3.41,5.51-1.12-.75-1.6-1.83-2.04-3.26,0,0-1.21.43-1.53-1.29-.31-1.72.86-1.99,1.57.12,0,0,.67.2.78-.47.12-.67.55-2.51.55-2.51,0,0,1.72.78,3.05-.51,1.33-1.29,3.25.51,3.25.51-.1,1.2-.36,2.41-.73,3.52Z"/>
          </g>
          <path class="cls-15" d="m47.55,19.56s-.04-7.09,2.11-9.83c2.4-3.06,4.02-.68,3.79.57-.51,2.73-1.66,6.3-3.71,7.97,0,0,2.45-1.5,3.68-7.05.38-1.68.44-2.77.09-3.75-1.08-3.04-4.68-4.35-7.02-3.61-3.09.98-4.37,5.82-3.07,9.54h0c.34.22.55.58.57.98.06,1.33.42,4.4,2.54,5.68l1.02-.51Z"/>
        </g>
        <path class="cls-10" d="m51.94,25.36s-2.05,0-5.93,3.27c-2.37,2-3.99.78-3.99-1.16v-14.64l-.65-.13v21.54s1.45.69,3.01.84c1.57.15,2.06,1.86,2.06,1.86,0,0-.02-1.76-1.91-2.36-1.89-.6.45-3,.45-3h0c3.15-2.82,5.35-6,6.96-6.21Z"/>
      </g>
    </g>
  </g>
</svg>