<?xml version="1.0" encoding="UTF-8"?>
<svg id="_レイヤー_2" data-name="レイヤー 2" xmlns="http://www.w3.org/2000/svg" xmlns:xlink="http://www.w3.org/1999/xlink" viewBox="0 0 299.8 291.78">
  <defs>
    <style>
      .cls-1 {
        letter-spacing: -.04em;
      }

      .cls-2, .cls-3, .cls-4, .cls-5, .cls-6, .cls-7, .cls-8, .cls-9, .cls-10 {
        fill: #fff;
      }

      .cls-2, .cls-4, .cls-11, .cls-12, .cls-13, .cls-14, .cls-15, .cls-9, .cls-16 {
        font-family: ShinGoPr6N-Medium-83pv-RKSJ-H, 'A-OTF Shin Go Pr6N', sans-serif;
        font-weight: 500;
      }

      .cls-2, .cls-6 {
        font-size: 5.95px;
        letter-spacing: .03em;
      }

      .cls-17 {
        letter-spacing: 0em;
      }

      .cls-18 {
        letter-spacing: .02em;
      }

      .cls-3, .cls-19 {
        stroke-width: .57px;
      }

      .cls-3, .cls-19, .cls-20, .cls-21, .cls-22, .cls-23, .cls-24, .cls-25 {
        stroke-miterlimit: 10;
      }

      .cls-3, .cls-25 {
        stroke: #3da6df;
      }

      .cls-4, .cls-11, .cls-12, .cls-13, .cls-26, .cls-14 {
        font-size: 7.09px;
      }

      .cls-11, .cls-27, .cls-13 {
        fill: #3da6df;
      }

      .cls-12, .cls-19, .cls-28, .cls-26, .cls-14, .cls-15, .cls-16, .cls-29 {
        fill: #3d3a39;
      }

      .cls-30 {
        letter-spacing: -.08em;
      }

      .cls-19, .cls-20, .cls-21, .cls-22 {
        stroke: #3d3a39;
      }

      .cls-31 {
        letter-spacing: -.04em;
      }

      .cls-32 {
        letter-spacing: -.02em;
      }

      .cls-5 {
        filter: url(#outer-glow-1);
      }

      .cls-33 {
        letter-spacing: 0em;
      }

      .cls-6, .cls-8, .cls-10 {
        font-family: ShinGoPr6N-Bold-83pv-RKSJ-H, 'A-OTF Shin Go Pr6N', sans-serif;
        font-weight: 700;
      }

      .cls-20 {
        stroke-dasharray: 0 0 2.83 2.83;
      }

      .cls-20, .cls-21 {
        stroke-width: 1.13px;
      }

      .cls-20, .cls-21, .cls-22, .cls-23, .cls-24, .cls-25 {
        fill: none;
      }

      .cls-34 {
        fill: #e6e6e6;
      }

      .cls-35 {
        fill: #fce333;
      }

      .cls-36 {
        fill: #b2dbf2;
      }

      .cls-37 {
        fill: #2d518a;
      }

      .cls-38 {
        fill: #77c1e9;
      }

      .cls-39 {
        letter-spacing: -.01em;
      }

      .cls-40 {
        letter-spacing: 0em;
      }

      .cls-41 {
        letter-spacing: -.42em;
      }

      .cls-42 {
        letter-spacing: -.2em;
      }

      .cls-8 {
        font-size: 7.1px;
        letter-spacing: .03em;
      }

      .cls-13, .cls-14, .cls-43 {
        letter-spacing: .03em;
      }

      .cls-44 {
        letter-spacing: .02em;
      }

      .cls-45 {
        letter-spacing: -.02em;
      }

      .cls-26, .cls-29 {
        font-family: ShinGoPr6N-Regular-83pv-RKSJ-H, 'A-OTF Shin Go Pr6N', sans-serif;
      }

      .cls-46 {
        letter-spacing: 0em;
      }

      .cls-47 {
        letter-spacing: .04em;
      }

      .cls-48 {
        letter-spacing: 0em;
      }

      .cls-49 {
        letter-spacing: .02em;
      }

      .cls-50 {
        letter-spacing: -.04em;
      }

      .cls-51 {
        letter-spacing: -.06em;
      }

      .cls-52, .cls-16 {
        letter-spacing: .03em;
      }

      .cls-53 {
        letter-spacing: .03em;
      }

      .cls-54 {
        letter-spacing: 0em;
      }

      .cls-55 {
        letter-spacing: 0em;
      }

      .cls-56 {
        letter-spacing: -.06em;
      }

      .cls-57 {
        letter-spacing: -.06em;
      }

      .cls-58 {
        letter-spacing: .03em;
      }

      .cls-59 {
        letter-spacing: .02em;
      }

      .cls-60 {
        letter-spacing: 0em;
      }

      .cls-61 {
        letter-spacing: -.03em;
      }

      .cls-62 {
        letter-spacing: -.38em;
      }

      .cls-15, .cls-16 {
        font-size: 6.38px;
      }

      .cls-9, .cls-10 {
        font-size: 8.5px;
      }

      .cls-63 {
        letter-spacing: 0em;
      }

      .cls-64 {
        letter-spacing: .01em;
      }

      .cls-29 {
        font-size: 5.67px;
      }

      .cls-65 {
        letter-spacing: 0em;
      }

      .cls-66 {
        letter-spacing: 0em;
      }

      .cls-67 {
        letter-spacing: 0em;
      }

      .cls-22 {
        stroke-width: 11.34px;
      }

      .cls-68 {
        letter-spacing: .03em;
      }

      .cls-23 {
        stroke: #b2dbf2;
      }

      .cls-23, .cls-24, .cls-25 {
        stroke-width: 5.67px;
      }

      .cls-24 {
        stroke: #77c1e9;
      }
    </style>
    <filter id="outer-glow-1" filterUnits="userSpaceOnUse">
      <feOffset dx="0" dy="0"/>
      <feGaussianBlur result="blur" stdDeviation="2.83"/>
      <feFlood flood-color="#4674a2" flood-opacity=".75"/>
      <feComposite in2="blur" operator="in"/>
      <feComposite in="SourceGraphic"/>
    </filter>
  </defs>
  <g id="_モバイル" data-name="モバイル">
    <g>
      <path class="cls-5" d="m264.37,37.89c10.96,3.35,18.27,12.72,18.27,23.09,0,13.05-12.06,23.76-26.31,23.76h-77.46c-14.62,0-26.31-10.71-26.31-23.76s9.87-22.76,23.38-24.09c1.46-8.37,7.31-15.06,15.71-18.07,8.04-3.01,17.17-2.34,24.11,2.01,6.58-11.04,20.1-14.39,32.16-10.37,12.42,4.35,19.73,15.39,16.44,27.44h0Z"/>
      <rect class="cls-35" x="31.7" y="193.78" width="146" height="50" rx="5.67" ry="5.67" transform="translate(323.48 114.07) rotate(90)"/>
      <rect class="cls-34" x="-115.66" y="126.11" width="281.33" height="50" rx="5.67" ry="5.67" transform="translate(176.11 126.11) rotate(90)"/>
      <text class="cls-11" transform="translate(210.79 32.64) rotate(.29)"><tspan class="cls-43"><tspan x="0" y="0">出荷先</tspan></tspan><tspan class="cls-43" x="-7.02" y="9.21">履</tspan><tspan class="cls-59" x=".3" y="9.21">歴</tspan><tspan class="cls-44" x="7.5" y="9.21">デ</tspan><tspan class="cls-60" x="14.73" y="9.21">ータ</tspan></text>
      <text class="cls-14" transform="translate(11.06 27.61) rotate(.29)"><tspan x="0" y="0">流通経路</tspan></text>
      <rect class="cls-27" x="195.33" y="46.95" width="49.61" height="9.92" rx="2.83" ry="2.83"/>
      <rect class="cls-27" x="195.33" y="63.29" width="49.61" height="9.92" rx="2.83" ry="2.83"/>
      <polygon class="cls-27" points="217.36 58.63 220.52 61.79 223.68 58.63 217.36 58.63"/>
      <text class="cls-2" transform="translate(207.92 53.85) rotate(.29)"><tspan x="0" y="0">物流拠点</tspan></text>
      <text class="cls-6" transform="translate(210.99 70.2) rotate(.29)"><tspan x="0" y="0">代理店</tspan></text>
      <g>
        <polyline class="cls-20" points="191.04 68.9 64.72 68.9 64.72 138.7 43.2 138.7"/>
        <polygon class="cls-28" points="190.21 66.07 195.11 68.9 190.21 71.73 190.21 66.07"/>
      </g>
      <g>
        <line class="cls-20" x1="44.33" y1="49.7" x2="191.04" y2="49.7"/>
        <polygon class="cls-28" points="190.21 52.53 195.11 49.7 190.21 46.87 190.21 52.53"/>
      </g>
      <text class="cls-13" transform="translate(93 43.75) rotate(.29)"><tspan x="0" y="0">出荷先情報</tspan></text>
      <text class="cls-13" transform="translate(93 79.89) rotate(.29)"><tspan x="0" y="0">出荷先情報</tspan></text>
      <text class="cls-26" transform="translate(16.23 282.66) rotate(.29)"><tspan class="cls-60" x="0" y="0">サ</tspan><tspan class="cls-1" x="7.12" y="0">ロ</tspan><tspan x="13.95" y="0">ン</tspan></text>
      <text class="cls-14" transform="translate(11.14 142.59) rotate(.29)"><tspan x="0" y="0">物流拠点</tspan></text>
      <text class="cls-14" transform="translate(13.49 217.15) rotate(.29)"><tspan x="0" y="0">代理店A</tspan></text>
      <g>
        <line class="cls-23" x1="26.43" y1="223.41" x2="26.43" y2="240.79"/>
        <polygon class="cls-36" points="33.32 239.86 19.54 239.86 26.43 246.75 33.32 239.86"/>
      </g>
      <g>
        <line class="cls-24" x1="26.43" y1="148.87" x2="26.43" y2="166.24"/>
        <polygon class="cls-38" points="33.32 165.32 19.54 165.32 26.43 172.21 33.32 165.32"/>
      </g>
      <g>
        <line class="cls-25" x1="26.43" y1="78.84" x2="26.43" y2="96.22"/>
        <polygon class="cls-27" points="33.32 95.3 19.54 95.3 26.43 102.18 33.32 95.3"/>
      </g>
      <text class="cls-12" transform="translate(13.36 68.37) rotate(.29)"><tspan class="cls-32" x="0" y="0">メ</tspan><tspan class="cls-54" x="6.94" y="0">ーカ</tspan><tspan class="cls-43" x="21.05" y="0">ー</tspan></text>
      <path class="cls-28" d="m37.13,131.4h-.8v-18.55l.71.17h0s.06.01.09.01c.14,0,.27-.08.35-.2.04-.06.05-.14.05-.21v-1.59c0-.18-.13-.35-.31-.39l-11.58-2.8c-.06-.01-.13-.01-.19,0l-11.58,2.8c-.18.04-.31.2-.31.39v1.59c0,.08.02.17.07.24.09.14.26.2.42.16l.71-.17v5.77h-.8c-.22,0-.4.18-.4.4v12.78c0,.11.04.21.12.28s.18.12.28.12h14.38c.11,0,.21-.04.28-.12s.12-.18.12-.28v-6.39c0-.11-.04-.21-.12-.28s-.18-.12-.28-.12h-6.79v-5.99c0-.11-.04-.21-.12-.28s-.18-.12-.28-.12h-2.4v-.8h13.58v.8h-9.59c-.22,0-.4.18-.4.4s.18.4.4.4h9.59v.8h-9.59c-.22,0-.4.18-.4.4s.18.4.4.4h9.59v.8h-9.59c-.22,0-.4.18-.4.4s.18.4.4.4h9.59v8.79h-2.4c-.22,0-.4.18-.4.4s.18.4.4.4h7.19c.22,0,.4-.18.4-.4s-.18-.4-.4-.4h0Zm-13.18-5.59h1.6v1.6h-1.6v-1.6Zm-2.4,0h1.6v2c0,.11.04.21.12.28s.18.12.28.12h2.4c.11,0,.21-.04.28-.12s.12-.18.12-.28v-2h1.6v5.59h-6.39v-5.59Zm-.8,5.59h-6.39v-5.59h1.6v2c0,.11.04.21.12.28s.18.12.28.12h2.4c.11,0,.21-.04.28-.12s.12-.18.12-.28v-2h1.6v5.59Zm-3.99-3.99v-1.6h1.6v1.6h-1.6Zm2.4-5.99v-2h1.6v5.59h-6.39v-5.59h1.6v2c0,.11.04.21.12.28s.18.12.28.12h2.4c.11,0,.21-.04.28-.12s.12-.18.12-.28Zm-2.4-.4v-1.6h1.6v1.6h-1.6Zm-2.4-8.89v-.78l11.18-2.7,11.18,2.7v.78l-11.09-2.68c-.06-.01-.13-.01-.19,0l-11.09,2.68Zm13.18.91c0,.32-.13.62-.35.85-.22.22-.53.35-.85.35h-1.6c-.43,0-.82-.23-1.04-.6-.21-.37-.21-.83,0-1.2.21-.37.61-.6,1.04-.6h1.6c.32,0,.62.13.85.35.22.22.35.53.35.85h0Zm4.79,3.99h-13.58v-.8h13.58v.8Z"/>
      <path class="cls-28" d="m35.02,186.65h1.09v-4.23s-2.31,0-2.31,0v-2.44h-14.83v2.44h-2.31v4.23h1.09v17.37h-2.5v1.63h22.26v-1.63h-2.49v-17.37Zm-9.65,3.96v1.63h-4.09v-1.63h4.09Zm-4.09-1.09v-1.63h4.09v1.63h-4.09Zm4.09,3.8v1.63h-4.09v-1.63h4.09Zm0,2.71v1.63h-4.09v-1.63h4.09Zm2.71,7.98h-3.43v-3.56h3.44v3.56Zm3.39-6.28h-4.09v-1.63h4.09v1.63Zm0-2.78h-4.09v-1.63h4.09v1.63Zm0-2.71h-4.09v-1.63h4.09v1.63Zm0-2.71h-4.09v-1.63h4.09v1.63Zm2.99-4.5h-16.17v-.98h16.17v.98Z"/>
      <g>
        <path class="cls-28" d="m19.16,255.03v-2.48h-1.97v2.48c0,.55.44.99.98.99s.98-.45.98-.99h0Z"/>
        <path class="cls-28" d="m24.2,255.03v-2.48h-1.97v2.48c0,.55.44.99.98.99.54,0,.98-.45.98-.99Z"/>
        <path class="cls-28" d="m36.6,269.13h-19.21c-.71,0-1.27.7-1.4,1.4h22c-.12-.7-.69-1.4-1.4-1.4h0Z"/>
        <path class="cls-28" d="m17.19,268.58h11.6v-6.81c0-1.73,1.39-3.13,3.11-3.13s3.11,1.43,3.11,3.13v6.81h1.79v-12.37c-.27.23-.61.37-.98.37-.52,0-.98-.26-1.26-.67-.28.4-.74.67-1.26.67s-.98-.26-1.26-.67c-.28.4-.74.67-1.26.67s-.98-.26-1.26-.67c-.28.4-.74.67-1.26.67s-.98-.26-1.26-.67c-.28.4-.74.67-1.26.67s-.98-.26-1.26-.67c-.28.4-.74.67-1.26.67s-.98-.26-1.26-.67c-.28.4-.74.67-1.26.67s-.98-.26-1.26-.67c-.28.4-.74.67-1.26.67-.38,0-.72-.14-.98-.37v12.37h0Zm1.6-9.03c0-.46.38-.83.84-.83h6.4c.46,0,.84.37.84.83v4.73c0,.46-.38.83-.84.83h-6.4c-.46,0-.84-.37-.84-.83v-4.73Z"/>
        <path class="cls-28" d="m26.72,255.03v-2.48h-1.97v2.48c0,.55.44.99.98.99.54,0,.98-.45.98-.99Z"/>
        <path class="cls-28" d="m21.68,255.03v-2.48h-1.97v2.48c0,.55.44.99.98.99.54,0,.98-.45.98-.99Z"/>
        <path class="cls-28" d="m29.62,264.4v.59c0,.15.13.28.28.28s.28-.12.28-.28v-.59c0-.15-.13-.28-.28-.28-.15,0-.28.13-.28.28Z"/>
        <path class="cls-28" d="m29.24,255.03v-2.48h-1.97v2.48c0,.55.44.99.98.99s.98-.45.98-.99h0Z"/>
        <path class="cls-28" d="m36.8,255.03v-2.48h-1.97v2.48c0,.55.44.99.98.99.54,0,.98-.45.98-.99Z"/>
        <path class="cls-28" d="m38.12,250.96c-.23-.23-.41-.41-.64-.64-.06-.06-.15-.1-.24-.1h-20.49c-.09,0-.17.03-.24.1l-.64.64c-.06.06-.1.15-.1.24v.65c0,.07.06.14.14.14h22.17c.07,0,.13-.06.13-.14v-.66c0-.09-.04-.18-.1-.24h0Z"/>
        <path class="cls-28" d="m31.76,255.03v-2.48h-1.97v2.48c0,.55.44.99.98.99.54,0,.98-.45.98-.99Z"/>
        <path class="cls-28" d="m34.28,255.03v-2.48h-1.97v2.48c0,.55.44.99.98.99s.98-.45.98-.99h0Z"/>
      </g>
      <path class="cls-28" d="m38.71,42.73v-3.78h-1.13v-1.43l-6.72-1.58h-.84s0,1.4,0,1.4l-5.96-1.4h-.84s0,1.4,0,1.4l-5.96-1.4h-.84s0,3.01,0,3.01h-1.13v3.78h.76v15.88h-.76v.76h23.43v-.76h-.76v-15.88h.76Zm-22.68-3.02h21.92v2.27h-21.92v-2.27Zm4.91,10.58h12.1v.76h-12.1v-.76Zm0,1.51h12.1v.76h-12.1v-.76Zm0,1.51h12.1v.76h-12.1v-.76Zm0,1.51h12.1v.76h-12.1v-.76Zm-.76-8.32v-.76h13.61v.76h-13.61Zm12.85.76v.76h-9.83v.76h9.83v.76h-12.1v-.76h1.51v-.76h-1.51v-.76h12.1Zm-12.1,10.58h10.58v-.76h-10.58v-.76h12.1v.76h-.76v.76h.76v.76h-12.1v-.76Z"/>
      <g>
        <line class="cls-25" x1="105.9" y1="211.95" x2="105.9" y2="235.27"/>
        <polygon class="cls-27" points="112.78 234.34 99.01 234.34 105.9 241.23 112.78 234.34"/>
      </g>
      <text class="cls-15" transform="translate(92.16 252) rotate(.29)"><tspan class="cls-52" x="0" y="0">E</tspan><tspan class="cls-47" x="4.58" y="0">C</tspan><tspan class="cls-33" x="10.01" y="0">サ</tspan><tspan class="cls-42" x="16.4" y="0">イ</tspan><tspan class="cls-17" x="21.5" y="0">ト</tspan></text>
      <text class="cls-16" transform="translate(93.23 163.91) rotate(.29)"><tspan x="0" y="0">非認定</tspan><tspan x="0" y="8.5">販売業者</tspan></text>
      <g>
        <g>
          <path class="cls-28" d="m106.53,263.57h-1.26c-.69,0-1.3.46-1.48,1.12l-.13.47h-8.89c-.38,0-.72.17-.96.46-.23.3-.31.67-.22,1.04l.92,3.74c.21.84.91,1.45,1.75,1.57-.19.26-.31.58-.31.92,0,.86.7,1.56,1.56,1.56s1.56-.7,1.56-1.56c0-.32-.1-.62-.27-.87h.23s.02,0,.03,0h.02s.02,0,.02,0h.4c-.17.25-.27.55-.27.87,0,.86.7,1.56,1.56,1.56s1.56-.7,1.56-1.56c0-.36-.13-.69-.33-.95.77-.17,1.39-.76,1.58-1.54l1.1-4.5.25-.9c.04-.15.18-.26.34-.26h1.26c.33,0,.59-.27.59-.59s-.27-.59-.59-.59Zm-9.04,9.7c-.2,0-.37-.17-.37-.37s.17-.37.37-.37.37.17.37.37-.17.37-.37.37Zm3.28,0c-.2,0-.37-.17-.37-.37s.17-.37.37-.37.37.17.37.37-.17.37-.37.37Zm1.65-3.14c-.1.4-.46.69-.87.69l-2.51.03-2.51-.03c-.41,0-.77-.29-.87-.69l-.92-3.74.03-.04h8.58l-.92,3.77Z"/>
          <path class="cls-28" d="m97.7,270.31c.33,0,.59-.27.59-.59v-2.26c0-.33-.27-.59-.59-.59s-.59.27-.59.59v2.26c0,.33.27.59.59.59Z"/>
          <path class="cls-28" d="m100.27,270.31c.33,0,.59-.27.59-.59v-2.26c0-.33-.27-.59-.59-.59s-.59.27-.59.59v2.26c0,.33.27.59.59.59Z"/>
        </g>
        <path class="cls-28" d="m119.97,276.72c-.33,0-.59-.27-.59-.59v-14.8c0-.91-.66-1.66-1.48-1.66h-26.1c-.82,0-1.48.74-1.48,1.66v14.72c0,.33-.27.59-.59.59s-.59-.27-.59-.59v-14.72c0-1.57,1.2-2.84,2.66-2.84h26.1c1.47,0,2.66,1.28,2.66,2.84v14.8c0,.33-.27.59-.59.59Z"/>
        <path class="cls-28" d="m118.09,282.19h-26.47c-2.08,0-3.77-1.69-3.77-3.77,0-.33.27-.62.59-.62h32.83c.33,0,.59.27.59.59,0,2.11-1.69,3.81-3.77,3.81Zm-28.99-3.21c.26,1.17,1.3,2.03,2.52,2.03h26.47c1.23,0,2.27-.87,2.53-2.03h-31.52Z"/>
        <path class="cls-28" d="m115.69,265.07h-6.4c-.33,0-.59-.27-.59-.59s.27-.59.59-.59h6.4c.33,0,.59.27.59.59s-.27.59-.59.59Z"/>
        <path class="cls-28" d="m115.69,267.22h-4.79c-.33,0-.59-.27-.59-.59s.27-.59.59-.59h4.79c.33,0,.59.27.59.59s-.27.59-.59.59Z"/>
        <path class="cls-28" d="m115.69,269.38h-4.79c-.33,0-.59-.27-.59-.59s.27-.59.59-.59h4.79c.33,0,.59.27.59.59s-.27.59-.59.59Z"/>
        <path class="cls-28" d="m115.69,271.54h-6.4c-.33,0-.59-.27-.59-.59s.27-.59.59-.59h6.4c.33,0,.59.27.59.59s-.27.59-.59.59Z"/>
        <path class="cls-28" d="m115.69,273.69h-4.13c-.33,0-.59-.27-.59-.59s.27-.59.59-.59h4.13c.33,0,.59.27.59.59s-.27.59-.59.59Z"/>
      </g>
      <path class="cls-37" d="m114.51,186.65h1.09v-4.23s-2.31,0-2.31,0v-2.44h-14.83v2.44h-2.31v4.23h1.09v17.37h-2.5v1.63h22.26v-1.63h-2.49v-17.37Zm-9.65,3.96v1.63h-4.09v-1.63h4.09Zm-4.09-1.09v-1.63h4.09v1.63h-4.09Zm4.09,3.8v1.63h-4.09v-1.63h4.09Zm0,2.71v1.63h-4.09v-1.63h4.09Zm2.71,7.98h-3.43v-3.56h3.44v3.56Zm3.39-6.28h-4.09v-1.63h4.09v1.63Zm0-2.78h-4.09v-1.63h4.09v1.63Zm0-2.71h-4.09v-1.63h4.09v1.63Zm0-2.71h-4.09v-1.63h4.09v1.63Zm2.99-4.5h-16.17v-.98h16.17v.98Z"/>
      <g>
        <line class="cls-21" x1="220.06" y1="227.44" x2="220.06" y2="77.06"/>
        <polygon class="cls-28" points="222.89 77.89 220.06 72.99 217.23 77.89 222.89 77.89"/>
      </g>
      <rect class="cls-3" x="167.11" y="176.99" width="99.21" height="127.56" rx="5.67" ry="5.67" transform="translate(457.48 24.06) rotate(90)"/>
      <path class="cls-27" d="m213.88,135.89h11.34v127.56h-11.34c-3.13,0-5.67-2.54-5.67-5.67v-116.22c0-3.13,2.54-5.67,5.67-5.67Z" transform="translate(416.38 -17.05) rotate(90)"/>
      <text class="cls-4" transform="translate(190.83 203.17) rotate(.29)"><tspan class="cls-32" x="0" y="0">メ</tspan><tspan class="cls-54" x="6.94" y="0">ーカ</tspan><tspan class="cls-43" x="21.05" y="0">ー担当者</tspan></text>
      <text class="cls-15" transform="translate(180.24 235.8) rotate(.29)"><tspan class="cls-52" x="0" y="0">買</tspan><tspan class="cls-56" x="6.59" y="0">戻</tspan><tspan class="cls-31" x="12.6" y="0">し</tspan><tspan class="cls-64" x="18.71" y="0">た</tspan><tspan class="cls-52" x="25.17" y="0">の際</tspan><tspan class="cls-41" x="38.35" y="0">、</tspan><tspan class="cls-52" x="42.04" y="0">流通原因の</tspan><tspan class="cls-52" x="19.24" y="7.8">経</tspan><tspan class="cls-67" x="25.82" y="7.8">路を</tspan><tspan class="cls-52" x="38.64" y="7.8">特定</tspan><tspan class="cls-62" x="51.82" y="7.8">。</tspan></text>
      <text class="cls-14" transform="translate(192.08 224.82) rotate(.29)"><tspan x="0" y="0">流通経路の遡及</tspan></text>
      <path class="cls-35" d="m299.8,252.3c0-8.3-13.2-15.03-29.48-15.03s-29.48,6.73-29.48,15.03,13.16,15.01,29.4,15.03l-8.08,8.44,15.21-8.88c12.87-1.61,22.42-7.53,22.42-14.59Z"/>
      <text class="cls-29" transform="translate(247.47 249.99) rotate(.29)"><tspan class="cls-50" x="0" y="0">タ</tspan><tspan class="cls-48" x="5.46" y="0">グ</tspan><tspan class="cls-46" x="11.11" y="0">は</tspan><tspan class="cls-58" x="16.82" y="0">偽</tspan><tspan class="cls-66" x="22.67" y="0">造</tspan><tspan class="cls-40" x="28.37" y="0">さ</tspan><tspan class="cls-63" x="34.06" y="0">れ</tspan><tspan class="cls-49" x="39.77" y="0">て</tspan><tspan class="cls-18" x=".29" y="7.09">いな</tspan><tspan class="cls-39" x="11.9" y="7.09">い</tspan><tspan class="cls-30" x="17.48" y="7.09">こ</tspan><tspan class="cls-51" x="22.68" y="7.09">と</tspan><tspan class="cls-65" x="28.04" y="7.09">を</tspan><tspan class="cls-53" x="33.73" y="7.09">確認</tspan></text>
      <g>
        <line class="cls-22" x1="126.79" y1="267.45" x2="160.77" y2="267.45"/>
        <polygon class="cls-28" points="159.38 257.12 159.38 277.78 169.71 267.45 159.38 257.12"/>
      </g>
      <text class="cls-10" transform="translate(132.09 270.79) rotate(.29)"><tspan class="cls-68" x="0" y="0">買</tspan><tspan class="cls-61" x="8.78" y="0">戻</tspan><tspan class="cls-55" x="17.08" y="0">し</tspan></text>
      <g>
        <line class="cls-22" x1="44.35" y1="194.04" x2="78.32" y2="194.04"/>
        <polygon class="cls-28" points="76.94 183.71 76.94 204.37 87.26 194.04 76.94 183.71"/>
      </g>
      <text class="cls-9" transform="translate(49.88 197.38) rotate(.29)"><tspan class="cls-68" x="0" y="0">横</tspan><tspan class="cls-57" x="8.78" y="0">流</tspan><tspan class="cls-45" x="16.8" y="0">し</tspan></text>
      <circle class="cls-19" cx="219.77" cy="169.6" r="14.21"/>
      <text class="cls-8" transform="translate(213.1 172.57) rotate(.29)"><tspan x="0" y="0">検索</tspan></text>
      <g>
        <path class="cls-28" d="m198.91,262.06h-2.27v-2.51c.07-.02.14-.05.21-.07,1.13-.46,1.39-1.21,1.42-1.76.03-.75-.09-1.26-.37-1.55-.21-.22-.44-.24-.53-.24h-7.1c-.41,0-.74.33-.74.74v.55c0,.22.09.43.24.58.18.17.42.26.67.23l.18-.02c.59-.07,1.15-.14,1.62-.14.56,0,.92.1,1.14.31l.19.18c.29.29.59.58.91.81v2.89h-2.27c-1.89,0-3.42,1.59-3.42,3.53v11.33c0,1.95,1.53,3.53,3.42,3.53h6.71c1.89,0,3.42-1.59,3.42-3.53v-11.33c0-1.95-1.53-3.53-3.42-3.53Zm2.48,12.02h-7.8s-.07-.03-.07-.07v-6.44s.03-.07.07-.07h7.8v6.58Zm-7.36-16.57c-.53-.52-1.28-.57-1.79-.57s-1.11.07-1.73.15h-.05s0-.21,0-.21h6.77c.04.09.11.31.09.82,0,.15-.02.6-.83.92-.33.13-.72.14-1.1.02-.35-.11-.79-.55-1.18-.93l-.19-.19Zm1.38,2.09c.1.02.2.04.29.05v2.42h-.29v-2.46Zm3.5,19.92h-6.71c-1.37,0-2.48-1.16-2.48-2.59v-11.33c0-1.43,1.11-2.59,2.48-2.59h2.73s0,0,.01,0h1.24s0,0,.01,0h2.73c1.37,0,2.48,1.16,2.48,2.59v.96h-7.8c-.56,0-1.01.45-1.01,1.01v6.44c0,.56.45,1.01,1.01,1.01h7.8v1.9c0,1.43-1.11,2.59-2.48,2.59Z"/>
        <path class="cls-7" d="m198.91,279.52h-6.71c-1.37,0-2.48-1.16-2.48-2.59v-11.33c0-1.43,1.11-2.59,2.48-2.59h2.73s0,0,.01,0h1.24s0,0,.01,0h2.73c1.37,0,2.48,1.16,2.48,2.59v.96h-7.8c-.56,0-1.01.45-1.01,1.01v6.44c0,.56.45,1.01,1.01,1.01h7.8v1.9c0,1.43-1.11,2.59-2.48,2.59Z"/>
        <path class="cls-7" d="m201.39,274.08h-7.8s-.07-.03-.07-.07v-6.44s.03-.07.07-.07h7.8v6.58Z"/>
        <path class="cls-7" d="m194.03,257.51c-.53-.52-1.28-.57-1.79-.57s-1.11.07-1.73.15h-.05s0-.21,0-.21h6.77c.04.09.11.31.09.82,0,.15-.02.6-.83.92-.33.13-.72.14-1.1.02-.35-.11-.79-.55-1.18-.93l-.19-.19Z"/>
        <path class="cls-7" d="m195.41,259.6c.1.02.2.04.29.05v2.42h-.29v-2.46Z"/>
        <g>
          <path class="cls-28" d="m197.39,271.44h-1.52c-.06,0-.1.05-.1.1v1.52c0,.06.05.1.1.1h1.52c.06,0,.1-.05.1-.1v-1.52c0-.13-.21-.13-.21,0v1.52l.1-.1h-1.52l.1.1v-1.52l-.1.1h1.52c.13,0,.13-.21,0-.21Z"/>
          <path class="cls-28" d="m196.85,272.09h-.43v.43h.43c0-.17,0-.35,0-.43Z"/>
          <path class="cls-28" d="m196.85,271.99h-.43c-.06,0-.1.05-.1.1v.43c0,.06.05.1.1.1h.43c.06,0,.1-.05.1-.1v-.43c0-.06-.05-.1-.1-.1-.06,0-.1.05-.1.1v.43l.1-.1h-.43l.1.1v-.43l-.1.1h.43c.06,0,.1-.05.1-.1s-.05-.1-.1-.1h0Z"/>
          <path class="cls-28" d="m197.39,268.93h-1.52c-.06,0-.1.05-.1.1v1.52c0,.06.05.1.1.1h1.52c.06,0,.1-.05.1-.1v-1.52c0-.13-.21-.13-.21,0v1.52l.1-.1h-1.52l.1.1v-1.52l-.1.1h1.52c.13,0,.13-.21,0-.21Z"/>
          <path class="cls-28" d="m197.81,269.04v1.52c0,.13.21.13.21,0v-1.52c0-.13-.21-.13-.21,0Z"/>
          <path class="cls-28" d="m197.39,270.94h-1.52c-.13,0-.13.21,0,.21h1.52c.13,0,.13-.21,0-.21Z"/>
          <path class="cls-28" d="m199.91,270.94h-.83c-.13,0-.13.21,0,.21h.83c.13,0,.13-.21,0-.21Z"/>
          <path class="cls-28" d="m197.89,271.15h.74l-.1-.1v.74c0,.06.05.1.1.1h.74l-.1-.1v.74c0,.13.21.13.21,0v-.74c0-.06-.05-.1-.1-.1h-.74l.1.1v-.74c0-.06-.05-.1-.1-.1h-.74c-.13,0-.13.21,0,.21h0Z"/>
          <path class="cls-28" d="m197.81,271.54v1.52c0,.06.05.1.1.1h.5c.13,0,.13-.21,0-.21h-.5l.1.1v-1.52c0-.13-.21-.13-.21,0Z"/>
          <path class="cls-28" d="m198.9,273.17h1.01c.06,0,.1-.05.1-.1v-1.06c0-.13-.21-.13-.21,0v1.06l.1-.1h-1.01c-.13,0-.13.21,0,.21h0Z"/>
          <path class="cls-28" d="m196.85,269.59h-.43v.43h.43v-.43Z"/>
          <path class="cls-28" d="m196.85,269.48h-.43c-.06,0-.1.05-.1.1v.43c0,.06.05.1.1.1h.43c.06,0,.1-.05.1-.1v-.43c0-.06-.05-.1-.1-.1-.06,0-.1.05-.1.1v.43l.1-.1h-.43l.1.1v-.43l-.1.1h.43c.06,0,.1-.05.1-.1s-.05-.1-.1-.1Z"/>
          <path class="cls-28" d="m199.96,268.93h-1.52c-.06,0-.1.05-.1.1v1.52c0,.06.05.1.1.1h1.52c.06,0,.1-.05.1-.1v-1.52c0-.13-.21-.13-.21,0v1.52l.1-.1h-1.52l.1.1v-1.52l-.1.1h1.52c.13,0,.13-.21,0-.21Z"/>
          <path class="cls-28" d="m199.41,269.59h-.43v.43h.43v-.43Z"/>
          <path class="cls-28" d="m199.41,269.48h-.43c-.06,0-.1.05-.1.1v.43c0,.06.05.1.1.1h.43c.06,0,.1-.05.1-.1v-.43c0-.06-.05-.1-.1-.1s-.1.05-.1.1h0v.43l.1-.1h-.43l.1.1v-.43l-.1.1h.43c.06,0,.1-.05.1-.1s-.05-.1-.1-.1Z"/>
          <path class="cls-28" d="m198.87,272.3h-.4v.18h.4v-.18Z"/>
          <path class="cls-28" d="m198.87,272.19h-.4c-.06,0-.1.05-.1.1v.18c0,.06.05.1.1.1h.4c.06,0,.1-.05.1-.1v-.18c0-.06-.05-.1-.1-.1-.06,0-.1.05-.1.1h0v.18l.1-.1h-.4l.1.1v-.18l-.1.1h.4c.06,0,.1-.05.1-.1s-.05-.1-.1-.1h0Z"/>
          <path class="cls-28" d="m199.26,271.05v.24s.01.05.03.07c.04.04.11.04.15,0,.02-.02.03-.05.03-.07v-.24s-.01-.05-.03-.07c-.04-.04-.11-.04-.15,0-.02.02-.03.05-.03.07Z"/>
          <path class="cls-28" d="m199.8,271.05v.49c0,.06.05.1.1.1s.1-.05.1-.1v-.49c0-.06-.05-.1-.1-.1s-.1.05-.1.1h0Z"/>
        </g>
      </g>
      <g>
        <path class="cls-28" d="m231.41,276.32h-14.55l-6.35-12.52c-.11-.22-.34-.36-.6-.36h-.22c-.1,0-.19.03-.28.08-.86.44-1.75,2.48-1.13,3.8l5.34,11.12c.11.23.34.37.59.37.09,0,.18-.02.27-.06l1.33-.6v1.37c0,.36.29.65.65.65h13.35c1.22,0,2.24-2.31,2.24-3.19,0-.36-.29-.65-.65-.65Zm-16.87.98l-5.06-10.54c-.21-.45,0-1.2.24-1.67l5.93,11.71-1.11.5Zm15.24,1.56h-12.64v-1.23h13.45c-.22.51-.58,1.11-.8,1.23Z"/>
        <path class="cls-28" d="m235.53,264.54c.37,0,.73-.05,1.08-.14,3.18-.85,4.56-5.2,3.68-8.52-.7-2.64-2.75-4.28-5.33-4.28-.56,0-1.13.08-1.69.23-1.53.41-2.78,1.29-3.53,2.49-.81,1.29-1,2.85-.56,4.52.84,3.15,3.68,5.71,6.35,5.71Zm-4.69-9.53c.57-.92,1.55-1.6,2.76-1.92.46-.12.92-.18,1.36-.18,2,0,3.52,1.24,4.07,3.31.71,2.68-.34,6.29-2.75,6.93-.24.06-.49.1-.75.1-2.07,0-4.4-2.17-5.09-4.74-.35-1.31-.21-2.51.4-3.49Z"/>
        <path class="cls-28" d="m232.67,267.63c-.04.36.22.68.58.72.02,0,.05,0,.07,0,.33,0,.61-.25.65-.58.16-1.48.29-1.83.3-1.84-.02.04-.03.06-.03.06l-1.13-.65c-.15.26-.29,1.03-.43,2.29Z"/>
        <path class="cls-28" d="m245,270.79s0-.06-.01-.09l-.04-.24s0-.04,0-.05c0-.02,0-.04-.01-.06-.1-.58-.22-1.14-.35-1.68-.4-1.62-.94-2.97-1.6-4.03-.6-.94-1.7-1.43-2.78-1.22l-.32.07c-.84.18-1.57.67-2.04,1.39-.47.72-.63,1.58-.45,2.42l.31,1.5h-10.26c-1.85,0-3.36,1.5-3.36,3.36v.05c0,1.85,1.51,3.36,3.36,3.36h5.42c.14,1.18.31,2.42.53,3.68.05.32.33.54.64.54.04,0,.07,0,.11,0,.35-.06.59-.4.53-.75-.2-1.19-.37-2.35-.5-3.46h4.26c.85,0,1.69-.09,2.52-.26l.88-.19c.42-.09.82-.24,1.19-.46.31-.18.42-.58.24-.89-.18-.31-.58-.42-.89-.24-.25.14-.52.25-.81.31l-.88.19c-.74.16-1.5.23-2.25.23h-11c-1.13,0-2.06-.92-2.06-2.06v-.05c0-1.13.92-2.05,2.05-2.05h11.07c.2,0,.38-.09.5-.24.12-.15.17-.35.13-.54l-.48-2.28c-.11-.5,0-1.01.27-1.44.28-.43.71-.72,1.21-.83l.34-.07c.53-.11,1.09.15,1.4.64.59.94,1.08,2.17,1.44,3.65.13.51.24,1.05.33,1.6,0,.01,0,.04,0,.05,0,.02,0,.04,0,.05l.03.22s0,.03,0,.05c.36,2.28.5,5.02.41,8.16-.01.36.27.66.63.67,0,0,.01,0,.02,0,.35,0,.64-.28.65-.63.09-3.2-.05-6.02-.42-8.37Z"/>
        <path class="cls-28" d="m214.13,260.15h2.35c.36,0,.65-.29.65-.65s-.29-.65-.65-.65h-2.35c-.36,0-.65.29-.65.65s.29.65.65.65Z"/>
        <path class="cls-28" d="m219.28,260.15h4.33c.36,0,.65-.29.65-.65s-.29-.65-.65-.65h-4.33c-.36,0-.65.29-.65.65s.29.65.65.65Z"/>
        <path class="cls-28" d="m219.7,263.05c0-.36-.29-.65-.65-.65h-3.33c-.36,0-.65.29-.65.65s.29.65.65.65h3.33c.36,0,.65-.29.65-.65Z"/>
        <path class="cls-28" d="m223.81,263.05c0-.36-.29-.65-.65-.65h-1.89c-.36,0-.65.29-.65.65s.29.65.65.65h1.89c.36,0,.65-.29.65-.65Z"/>
        <path class="cls-28" d="m218.5,266.71h.93c.36,0,.65-.29.65-.65s-.29-.65-.65-.65h-.93c-.36,0-.65.29-.65.65s.29.65.65.65Z"/>
        <path class="cls-28" d="m221.22,266.06c0,.36.29.65.65.65h3.85c.36,0,.65-.29.65-.65s-.29-.65-.65-.65h-3.85c-.36,0-.65.29-.65.65Z"/>
      </g>
    </g>
  </g>
</svg>