<?xml version="1.0" encoding="UTF-8"?>
<svg id="_レイヤー_2" data-name="レイヤー 2" xmlns="http://www.w3.org/2000/svg" xmlns:xlink="http://www.w3.org/1999/xlink" viewBox="0 0 146.42 113.68">
  <defs>
    <style>
      .cls-1 {
        clip-path: url(#clippath);
      }

      .cls-2, .cls-3 {
        fill: #f9f9fa;
      }

      .cls-4 {
        fill: #eaeaf4;
      }

      .cls-5 {
        fill: #eec4ad;
      }

      .cls-6 {
        fill: #fff;
      }

      .cls-7 {
        fill: #ecebf2;
      }

      .cls-8 {
        fill: #6ab6a4;
      }

      .cls-9 {
        fill: #b63b33;
      }

      .cls-10 {
        fill: #cee6f2;
      }

      .cls-11 {
        fill: #a7302b;
      }

      .cls-12 {
        fill: #c64437;
      }

      .cls-13 {
        fill: #d65b54;
      }

      .cls-14 {
        fill: #d65447;
      }

      .cls-15 {
        fill: #d65a47;
      }

      .cls-16 {
        fill: #d9d8e4;
      }

      .cls-17 {
        fill: #e0a786;
      }

      .cls-18 {
        fill: #c69073;
      }

      .cls-19 {
        fill: #c6c6d1;
      }

      .cls-20 {
        fill: #ca4a43;
      }

      .cls-21 {
        fill: #c7c4d2;
      }

      .cls-22 {
        fill: #212128;
      }

      .cls-23 {
        fill: #201924;
      }

      .cls-24 {
        fill: #15151e;
      }

      .cls-25 {
        fill: #141419;
      }

      .cls-26 {
        fill: #181821;
      }

      .cls-27 {
        fill: #2b232f;
      }

      .cls-28 {
        fill: #382e3f;
      }

      .cls-29 {
        fill: #3956a0;
      }

      .cls-30 {
        fill: #272735;
      }

      .cls-31 {
        fill: #28292f;
      }

      .cls-32 {
        fill: #34353e;
      }

      .cls-33 {
        clip-path: url(#clippath-1);
      }

      .cls-34 {
        clip-path: url(#clippath-4);
      }

      .cls-35 {
        clip-path: url(#clippath-3);
      }

      .cls-36 {
        clip-path: url(#clippath-2);
      }

      .cls-37 {
        clip-path: url(#clippath-7);
      }

      .cls-38 {
        clip-path: url(#clippath-6);
      }

      .cls-39 {
        clip-path: url(#clippath-5);
      }

      .cls-40 {
        isolation: isolate;
      }

      .cls-3 {
        opacity: .4;
      }
    </style>
    <clipPath id="clippath">
      <path class="cls-27" d="m61.7,78.99l.02,5.63c0-2.48-1.66-4.96-4.95-6.83-6.54-3.72-17.07-3.66-23.52.15-3.21,1.89-4.8,4.35-4.79,6.8l-.02-5.63c0-2.45,1.59-4.91,4.79-6.8,6.45-3.8,16.98-3.87,23.52-.15,3.29,1.87,4.94,4.35,4.95,6.83Z"/>
    </clipPath>
    <clipPath id="clippath-1">
      <path class="cls-27" d="m64.54,78.98v4.51c.02,2.87-1.84,5.74-5.59,7.95-7.55,4.45-19.88,4.53-27.53.17-3.85-2.19-5.79-5.09-5.8-7.99v-4.51c0,2.91,1.93,5.8,5.79,7.99,7.66,4.36,19.98,4.28,27.53-.18,3.75-2.21,5.62-5.09,5.61-7.95Z"/>
    </clipPath>
    <clipPath id="clippath-2">
      <path class="cls-2" d="m71.97,94.51l-12.13-6.99c-.29-.17-.68-.14-1.12.11l12.13,6.99c.44-.25.84-.28,1.12-.11Z"/>
    </clipPath>
    <clipPath id="clippath-3">
      <path class="cls-2" d="m57.62,91.37l12.13,6.99c-.28-.16-.46-.51-.46-1.01,0-1,.69-2.22,1.56-2.73l-12.13-6.99c-.87.51-1.57,1.73-1.56,2.73,0,.5.18.85.46,1.01Z"/>
    </clipPath>
    <clipPath id="clippath-4">
      <path class="cls-27" d="m94.27,104.27l-26.69-14.39c-.53-.3-1.26-.25-2.06.22l26.28,14.43c.96-.56,1.84-.62,2.47-.26Z"/>
    </clipPath>
    <clipPath id="clippath-5">
      <path class="cls-27" d="m63.51,96.97l25.88,15.8c-.63-.36-1.02-1.13-1.03-2.22-.02-2.21,1.51-4.9,3.43-6.02l-26.28-14.43c-1.59.93-2.87,3.18-2.85,5.02,0,.91.33,1.55.86,1.85Z"/>
    </clipPath>
    <clipPath id="clippath-6">
      <path class="cls-8" d="m43.88,45v2.24c0-.99-.65-1.97-1.96-2.71-2.6-1.48-6.78-1.45-9.34.06-1.27.75-1.91,1.73-1.9,2.7v-2.23c-.01-.97.62-1.95,1.9-2.7,2.56-1.51,6.74-1.54,9.34-.06,1.31.74,1.96,1.73,1.97,2.71Z"/>
    </clipPath>
    <clipPath id="clippath-7">
      <path class="cls-19" d="m45.01,44.99v1.79c0,1.14-.73,2.28-2.22,3.16-3,1.77-7.9,1.8-10.94.07-1.53-.87-2.3-2.02-2.3-3.18v-1.79c0,1.15.77,2.31,2.3,3.18,3.04,1.73,7.94,1.7,10.94-.07,1.49-.88,2.23-2.02,2.23-3.16Z"/>
    </clipPath>
  </defs>
  <g id="_01" data-name="01">
    <g>
      <ellipse class="cls-10" cx="69.81" cy="73.08" rx="69.81" ry="40.6"/>
      <g>
        <g class="cls-40">
          <g>
            <path class="cls-27" d="m61.7,78.99l.02,5.63c0-2.48-1.66-4.96-4.95-6.83-6.54-3.72-17.07-3.66-23.52.15-3.21,1.89-4.8,4.35-4.79,6.8l-.02-5.63c0-2.45,1.59-4.91,4.79-6.8,6.45-3.8,16.98-3.87,23.52-.15,3.29,1.87,4.94,4.35,4.95,6.83Z"/>
            <g class="cls-1">
              <g class="cls-40">
                <path class="cls-27" d="m61.7,78.99l.02,5.63c0-2.48-1.66-4.96-4.95-6.83-6.54-3.72-17.07-3.66-23.52.15-3.21,1.89-4.8,4.35-4.79,6.8l-.02-5.63c0-2.45,1.59-4.91,4.79-6.8,6.45-3.8,16.98-3.87,23.52-.15,3.29,1.87,4.94,4.35,4.95,6.83h0Z"/>
              </g>
            </g>
          </g>
          <g>
            <path class="cls-27" d="m64.54,78.98v4.51c.02,2.87-1.84,5.74-5.59,7.95-7.55,4.45-19.88,4.53-27.53.17-3.85-2.19-5.79-5.09-5.8-7.99v-4.51c0,2.91,1.93,5.8,5.79,7.99,7.66,4.36,19.98,4.28,27.53-.18,3.75-2.21,5.62-5.09,5.61-7.95Z"/>
            <g class="cls-33">
              <g class="cls-40">
                <path class="cls-27" d="m64.54,78.98v4.51c.02,2.87-1.84,5.74-5.59,7.95-7.55,4.45-19.88,4.53-27.53.17-3.85-2.19-5.79-5.09-5.8-7.99v-4.51c0,2.91,1.93,5.8,5.79,7.99,7.66,4.36,19.98,4.28,27.53-.18,3.75-2.21,5.62-5.09,5.61-7.95h0Z"/>
              </g>
            </g>
          </g>
          <path class="cls-28" d="m58.74,70.99c7.66,4.36,7.74,11.5.19,15.95-7.55,4.45-19.88,4.53-27.53.18-7.66-4.36-7.74-11.5-.19-15.95,7.55-4.45,19.88-4.53,27.53-.17Zm-25.35,14.95c6.54,3.72,17.07,3.65,23.52-.15,6.45-3.8,6.38-9.9-.16-13.62-6.54-3.72-17.07-3.66-23.52.15-6.45,3.8-6.38,9.9.16,13.62h0Z"/>
        </g>
        <path class="cls-3" d="m61.56,80.28c-.46,2-2.01,3.95-4.65,5.51-6.45,3.81-16.98,3.87-23.52.15-2.72-1.54-4.32-3.49-4.8-5.52.46-2.01,2.01-3.95,4.65-5.51,6.45-3.8,16.98-3.87,23.52-.15,2.71,1.54,4.31,3.49,4.79,5.52Z"/>
        <g class="cls-40">
          <g class="cls-40">
            <path class="cls-2" d="m71.97,94.51l-12.13-6.99c-.29-.17-.68-.14-1.12.11l12.13,6.99c.44-.25.84-.28,1.12-.11Z"/>
            <g class="cls-36">
              <g class="cls-40">
                <path class="cls-2" d="m71.97,94.51l-12.13-6.99c-.29-.17-.68-.14-1.12.11l12.13,6.99c.44-.25.84-.28,1.12-.11h0Z"/>
              </g>
            </g>
          </g>
          <g class="cls-40">
            <path class="cls-2" d="m57.62,91.37l12.13,6.99c-.28-.16-.46-.51-.46-1.01,0-1,.69-2.22,1.56-2.73l-12.13-6.99c-.87.51-1.57,1.73-1.56,2.73,0,.5.18.85.46,1.01Z"/>
            <g class="cls-35">
              <g class="cls-40">
                <path class="cls-2" d="m70.85,94.62l-12.13-6.99c-.87.51-1.57,1.73-1.56,2.73,0,.5.18.85.46,1.01l12.13,6.99c-.28-.16-.46-.51-.46-1.01,0-1,.69-2.22,1.56-2.73h0Z"/>
              </g>
            </g>
          </g>
          <path class="cls-2" d="m70.85,94.62c-.87.51-1.57,1.73-1.56,2.73,0,1,.72,1.4,1.59.9.87-.51,1.57-1.73,1.56-2.73,0-1-.72-1.4-1.59-.9Z"/>
        </g>
        <g class="cls-40">
          <g>
            <path class="cls-27" d="m94.27,104.27l-26.69-14.39c-.53-.3-1.26-.25-2.06.22l26.28,14.43c.96-.56,1.84-.62,2.47-.26Z"/>
            <g class="cls-34">
              <g class="cls-40">
                <path class="cls-27" d="m94.27,104.27l-26.69-14.39c-.53-.3-1.26-.25-2.06.22l26.28,14.43c.96-.56,1.84-.62,2.47-.26h0Z"/>
              </g>
            </g>
          </g>
          <g class="cls-40">
            <path class="cls-27" d="m63.51,96.97l25.88,15.8c-.63-.36-1.02-1.13-1.03-2.22-.02-2.21,1.51-4.9,3.43-6.02l-26.28-14.43c-1.59.93-2.87,3.18-2.85,5.02,0,.91.33,1.55.86,1.85Z"/>
            <g class="cls-39">
              <g class="cls-40">
                <path class="cls-28" d="m88.37,110.55c-.02-2.21,1.51-4.9,3.43-6.02h0l-26.28-14.43c-1.59.93-2.87,3.18-2.85,5.02l25.71,15.43Z"/>
                <path class="cls-27" d="m62.66,95.11c0,.91.33,1.55.86,1.85l25.88,15.8c-.63-.36-1.02-1.13-1.03-2.22l-25.71-15.43Z"/>
              </g>
            </g>
          </g>
          <path class="cls-23" d="m91.79,104.53c-1.91,1.12-3.45,3.81-3.43,6.02.02,2.21,1.59,3.08,3.5,1.96,1.91-1.12,3.45-3.82,3.43-6.02-.02-2.21-1.59-3.08-3.5-1.96Z"/>
        </g>
      </g>
      <g>
        <g>
          <polygon class="cls-7" points="59.77 46.09 41.51 35.55 59.65 25.08 77.91 35.62 59.77 46.09"/>
          <polygon class="cls-21" points="77.91 35.62 59.77 46.09 59.77 66.35 77.91 55.88 77.91 35.62"/>
          <polygon class="cls-16" points="41.51 35.55 59.77 46.09 59.77 66.35 41.51 55.81 41.51 35.55"/>
          <path class="cls-25" d="m51.83,56.56l-4.08-2.35-.71,2.25-3.18-1.83,4.53-11.64,2.8,1.61,4.56,16.88-3.2-1.84-.72-3.08Zm-3.36-4.59l2.65,1.53-1.33-5.71-1.32,4.18Z"/>
        </g>
        <g>
          <polygon class="cls-14" points="82.97 58.1 64.72 47.56 82.86 37.08 101.11 47.62 82.97 58.1"/>
          <polygon class="cls-11" points="101.11 47.62 82.97 58.1 82.97 78.36 101.11 67.88 101.11 47.62"/>
          <polygon class="cls-12" points="64.72 47.56 82.97 58.1 82.97 78.36 64.72 67.82 64.72 47.56"/>
          <path class="cls-6" d="m73.47,64.74l-1.22.84v3.76l-2.97-1.72v-14.25s2.97,1.72,2.97,1.72v6.28s1.03-1.21,1.03-1.21l2.66-2.94,3.68,2.12-4.17,3.89,4.17,10.35-3.53-2.04-2.63-6.82Z"/>
        </g>
        <g>
          <polygon class="cls-14" points="106.6 72.41 88.35 61.88 106.48 51.4 124.74 61.94 106.6 72.41"/>
          <polygon class="cls-11" points="124.74 61.94 106.6 72.41 106.6 92.67 124.74 82.2 124.74 61.94"/>
          <polygon class="cls-12" points="88.35 61.88 106.6 72.41 106.6 92.67 88.35 82.14 88.35 61.88"/>
          <path class="cls-6" d="m100.47,80.11l-4.85-2.8v3.53s5.73,3.31,5.73,3.31v2.74s-8.81-5.08-8.81-5.08v-14.76s8.83,5.1,8.83,5.1v2.75l-5.74-3.32v3.11l4.85,2.8v2.64Z"/>
        </g>
        <g>
          <polygon class="cls-7" points="59.77 21.01 41.51 10.47 59.65 0 77.91 10.54 59.77 21.01"/>
          <polygon class="cls-21" points="77.91 10.54 59.77 21.01 59.77 41.27 77.91 30.8 77.91 10.54"/>
          <polygon class="cls-16" points="41.51 10.47 59.77 21.01 59.77 41.27 41.51 30.73 41.51 10.47"/>
          <path class="cls-25" d="m54.13,29.91l-4.8-2.77v5.68l-2.97-1.72v-14.25s8.25,4.77,8.25,4.77v2.65l-5.28-3.05v3.28l4.8,2.77v2.64Z"/>
        </g>
      </g>
      <g>
        <g>
          <path class="cls-18" d="m132.38,78.07c.06.02.11.04.17.06-.7,1.06-1.4,2.13-1.81,3.34-.16.47-.26,1-.11,1.45.14.42.49.71.84.94.36.22.75.4,1.07.68,1.41-1.2,2.11-3.08,2.75-4.87.18-.49.36-1.04.2-1.53-.11-.35-.39-.62-.7-.8-.44-.27-.98-.4-1.49-.26-.62.18-1.12.8-1.19,1.47l.26-.5Z"/>
          <path class="cls-18" d="m134.76,72.76c.15-.14.39-.28.53-.14.06.06.08.15.09.23.03.23.01.46-.04.69.14.06.31,0,.46-.03.15-.03.34-.03.43.09.05.08.06.17.06.27,0,.31,0,.62,0,.93.2-.03.44-.05.55.12.11.17,0,.38-.1.56-.1.17-.17.42-.02.55.06.05.14.07.2.11.15.1.17.34.09.5-.08.17-.24.28-.39.39-.25.18-.5.36-.75.54-.31.23-.7.46-1.06.33-.27-.1-.42-.38-.54-.64-.22-.45-.45-.9-.53-1.39-.11-.67.08-1.28.21-1.93.1-.5.43-.83.8-1.18Z"/>
          <path class="cls-21" d="m134.96,101.66s0,0,0,.01c.02.26.05.53.18.78.19.37.6.64,1.03.78,1.11.34,2.3-.22,3.4.24,1.41.59,2.76,1.09,4.27,1.37,1.06.2,2.63-.68,2.58-1.6-.03-.54-.68-1.13-1.25-1.39-.56-.25-1.17-.35-1.77-.49-1.73-.4-3.8-1.58-4.76-2.91-.31-.43-.56-1.32-1.12-1.54-.53-.2-1.4-.1-1.74.27-.15.16-.21.37-.27.58-.33,1.29-.64,2.53-.55,3.9Z"/>
          <path class="cls-25" d="m123.74,93.75c1.65-.47,2.72-.27,4.14-1.27,5.37-3.77,7.34-5.07,8.86-7.08,2.79-3.7,1.2-6.36-2.3-5.5-3.8.93-7.17,3.33-10.72,5.02-1.12.53-2.17.84-3.35,1.13-.92.23-1.89.6-2.49,1.36-.58.75-.71,1.78-.46,2.64.25.87.83,1.59,1.51,2.15,1.13.95,3.21,1.99,4.81,1.54Z"/>
          <path class="cls-25" d="m134.15,94.87c.48,3.3.53,4.08,1.49,4.82,1.08.83,2.57.32,3.67-.29.23-.13.15-.45.16-.71.18-5.64.41-10.07-.67-15.62-.17-.87-.49-1.98-1.18-2.62-.91-.84-2.45-.32-3.27.58-1.12,1.22-1.57.82-1.76,2.42-.25,2.11,1.42,10.45,1.56,11.42Z"/>
          <path class="cls-25" d="m122.01,91.11c.35.55.65,1.13.87,1.74.41,1.11.68,2.74.09,3.85-.52.97-2.25,1.73-3.33,1.81-1.4.11-2.81-.45-3.85-1.37-3.5-3.11-1.83-7.99.86-8.92,1.67-.58,3.03-.21,4.11,1.15.44.55.87,1.13,1.24,1.73Z"/>
          <path class="cls-21" d="m130.08,72.18c.55.14,1.11.34,1.53.71.55.48.64,1.05.56,1.74-.22,1.9-.97,3.79-1.51,5.62-.87,2.92-1.75,5.89-3.39,8.47-.42.66-.89,1.3-1.46,1.83-.66.62-1.45,1.09-2.26,1.48-2.94,1.42-6.06,1.78-9.21.99-.31-.08-.66-.2-.74-.51-.03-.11-.01-.23,0-.35.38-2.65.74-5.25.87-7.92.11-2.29.48-4.46,1.55-6.52,2.09-4,8.83-6.92,14.07-5.55Z"/>
          <g>
            <path class="cls-17" d="m124.07,74.38c-.94.82-.83,2.62-.41,3.64.13.31.3.62.55.85.57.54,1.67.81,2.38.46.78-.39,1.61-.7,2.37-1.15,1.02-.6,1.26-1.32,1.16-2.47-.04-.49-.12-.99-.31-1.45-.1-.26-.26-.7-.52-.85-.26-.15-.65.08-.93.14-.96.19-1.93.32-2.91.4-.35.03-.7.05-1.01.2-.14.07-.26.15-.37.24Z"/>
            <path class="cls-17" d="m126.79,76.07c.14-.56.36-1.09.65-1.59.16-.26.34-.51.59-.68.2-.13.45-.22.59-.42.13-.19.19-.33.38-.49.37-.31.79-.56,1.23-.75.89-.37,1.88-.43,2.79-.12,1.35.46,2.39,1.71,2.62,3.11.06.38.07.77.05,1.15-.01.33-.04.67-.17.98-.21.5-.57.73-.92,1.1-.4.42-.76.8-1.3,1.05-.49.22-1.05.34-1.43.72-.19.2-.34.47-.61.53-.12.03-.24.01-.37,0-.35-.05-.7-.11-1.05-.15-.3-.04-.52.05-.82.1-.34.06-.68.11-1.03.09-1.23-.09-1.34-1.57-1.41-2.55-.05-.69.01-1.4.18-2.07Z"/>
            <path class="cls-31" d="m129.99,69.96c.49-.12,1.02-.23,1.52-.19.42.03.84.13,1.24.27.38.14.7.35,1.05.53.7.35,1.3.88,1.74,1.53.5.73.78,1.61.8,2.49.02.78-.16,1.55-.45,2.27-.16.4-.27,1.03-.66,1.26-.47.28-1.06.3-1.59.32-.23,0-.48.01-.69-.09-.22-.1-.37-.3-.55-.46-.21-.19-.45-.32-.7-.45-.41-.21-.86-.39-1.32-.39-.94,0-1.78.78-2.72.68-.64-.07-1.18-.55-1.47-1.13-.38-.75-.52-1.79-.41-2.62.05-.4.2-.79.39-1.15.47-.9,1.17-1.67,2.03-2.19.5-.3,1.05-.51,1.61-.66.06-.01.11-.03.17-.04Z"/>
            <path class="cls-17" d="m129.59,76.24c-.31-.64-1.16-.36-1.51.4-.1.22-.13.53-.18.77-.31,1.64.86,1.33.98.8.28-1.24,1.09-1.16.7-1.97Z"/>
          </g>
          <path class="cls-25" d="m129.06,86.74c.56.91.34,1.51-.19,2.28-.56.81-.59,2.38-1.11,3.22-1.45,2.36-5.04,6.43-7.79,6.65-1.82.14-5.26-1.4-4.47-3.75.21-.61.63-1.12,1.05-1.61,2-2.32,4.18-4.49,6.51-6.47.91-.78,2.13-2,3.43-1.75.81.15,2.11.7,2.56,1.44Z"/>
          <path class="cls-21" d="m133.67,103.45c.33.65.65,1.3,1.04,1.91.3.46.79.86,1.16,1.28.4.45.79.9,1.18,1.36.38.43.75.87,1.06,1.36.19.3.42.62.48.98.08.46-.06.53-.47.66-.8.24-1.62.42-2.45.54-.23.03-.47.06-.7.04-1.07-.07-1.78-1.18-2.31-2-.5-.77-.95-1.57-1.35-2.4-.35-.73-.86-1.61-.82-2.43.02-.42-.1-.98.07-1.38.21-.49.57-.59,1.02-.72.37-.1.87-.38,1.26-.35.35.03.42.37.58.67.08.16.16.32.24.48Z"/>
          <path class="cls-32" d="m134.04,102.96c-.33.45-1.59,1.35-2.39,1.54-1.89.44-2.27.1-2.9-1.42-1.25-3.04-3.66-8.62-4.57-11.96-.29-1.06-.58-2.15-.41-3.18.18-1.02,1-1.91,1.9-2.32,1.57-.72,3.42.21,4.04,2.59,1.86,7.1,4.88,14.02,4.33,14.77Z"/>
          <path class="cls-5" d="m125.64,81.26c.07-.02.13-.04.18-.05.44-.13.88-.2,1.27-.18.21,0,.43.03.63.1.17.06.36.14.47.28.1.11.19.24.26.37.06.14.09.3.05.44-.04.13-.12.24-.2.34-.32.43-.58.9-.79,1.39-.17.41-.26.84-.38,1.26-.1.37-.21.74-.32,1.11-.24.82-.5,1.63-.78,2.43-.29.82-.6,1.62-.96,2.41-.32.69-.67,1.38-1.1,2.01-.32.47-.71.94-1.21,1.22-1.85,1.03-2.08-2.11-1.98-3.5.15-2,2.8-4.77,3.83-7.29.24-.59.38-1.16.53-1.74.03-.12.03-.31.12-.43.06-.08.22-.14.37-.18Z"/>
          <path class="cls-5" d="m125.22,81c0-.07,0-.15,0-.22,0-.21,0-.41-.04-.62-.04-.2-.08-.4-.08-.61.01-.77.56-1.45.61-2.23.01-.2,0-.4.06-.59s.25-.35.44-.31c.13.03.22.14.26.26.04.12.05.25.05.38,0,.5,0,1.01.01,1.51.1.03.18-.08.23-.17.46-.85,1.05-1.64,1.74-2.31.11-.1.28-.21.39-.11.05.05.07.12.08.19.04.38-.1.76-.24,1.12.26-.21.45-.49.67-.73.23-.25.52-.46.85-.46.03,0,.06,0,.08.02.04.02.05.07.05.12.05.54-.5.96-.6,1.5.25-.03.44-.23.62-.39.19-.16.44-.31.67-.24.05.83-.71,1.47-.9,2.28.23-.2.46-.4.68-.59.08-.07.15-.13.25-.16.09-.03.21-.02.28.05.04.05.06.11.07.17.04.31-.14.61-.34.85-.46.54-1.08.92-1.57,1.43-.24.25-.45.54-.67.81-.3.37-.62.73-.96,1.06-.24.23-.5.46-.8.6-.34.15-.72.17-1.07.08-.18-.05-.35-.12-.51-.23-.08-.05-.15-.11-.22-.18-.06-.06-.14-.08-.18-.16-.09-.21-.16-.43-.14-.66,0-.13.05-.26.08-.39.08-.35.12-.71.13-1.07Z"/>
          <path class="cls-5" d="m121.31,78.53c.41.78.55,1.67.65,2.55.16,1.37.25,2.74.5,4.1.41,2.22,1.74,4.81,1.1,7.7-.17.74-.58,1.55-1.33,1.68-.45.07-.91-.14-1.24-.45-.33-.31-.55-.72-.77-1.12-2.83-5.42-4.12-11.8-4.02-13.12.06-.76.14-1.55.75-2.08.95-.83,3.19-1.45,4.36.75Z"/>
        </g>
        <path class="cls-26" d="m132.15,68.07c-.06,0-.12,0-.19-.02-.39-.08-.77-.38-1-.75-.04,0-.08,0-.12-.01-1.76.31-3.26.31-4.53.01-1.5-.06-3-.25-4.48-.57-1.41-.3-3.81-1.09-4.06-3.1-.11-.9.28-1.76.67-2.48.18-.33.37-.65.57-.95-.11-.79-.09-1.6.06-2.41.26-1.41.65-2.46,1.29-3.41.2-.31.49-.69.88-.95.18-.12.38-.21.58-.25,0-.02,0-.03,0-.05-.15-.91.19-1.94.94-2.85,1.75-2.1,5.09-2.64,7.46-1.31.43.12.86.28,1.27.48.99-1.21,2.62-1.9,4.17-1.71,1.47.18,2.9,1.13,3.84,2.51.04.01.09.03.13.04.66.24,1.25.8,1.75,1.65.43.73.72,1.53.89,2.38.04.06.07.12.11.18.86,1.48,1.27,3.18,1.2,4.82.09.15.18.31.25.48.93,2.08.08,4.74-1.85,5.81-2,1.11-4.39.39-5.63-.14-.03-.01-.05-.02-.08-.03-1.1.6-2.31,1.08-3.62,1.44-.07.05-.15.1-.22.14-.36.19-.76.29-1.18.29.2.26.49.46.77.52.17.03.41.02.57-.21l.18.12c-.15.21-.36.33-.61.33Zm-3.04-.79c-.06,0-.13,0-.19.01.06,0,.13,0,.19-.01Zm-2.77-.2c1.18.05,2.35.02,3.53-.08-.65-.31-1.16-.82-1.43-1.45-.03-.07-.06-.14-.08-.21-.48.1-.98.12-1.47.05-.14.06-.29.12-.45.17-.89.28-1.86.29-2.8.06.39.4.84.72,1.31.96.43.21.89.38,1.38.5Zm-7.28-6.55c-.15.24-.29.48-.43.73-.38.69-.75,1.51-.64,2.34.24,1.94,2.8,2.69,3.88,2.91,1.17.25,2.36.42,3.54.51-.19-.07-.37-.15-.55-.24-.59-.3-1.16-.74-1.62-1.27-1-.32-1.93-.9-2.64-1.71-.79-.9-1.32-2.04-1.54-3.27Zm9.51,4.76c.02.06.04.12.07.18.29.66.88,1.2,1.63,1.46.03,0,.06.02.08.03.15-.02.29-.03.44-.05,0-.02-.01-.05-.02-.07-.1-.47-.05-1.06.22-1.51-.39-.14-.8-.33-1.16-.6-.39.26-.81.46-1.26.58Zm2.63.1c-.26.41-.31.96-.22,1.4,0,.03.01.06.02.09.25-.03.5-.07.75-.11.34-.05.67-.14.82-.38.13-.21.09-.51.05-.71,0,0,0-.02,0-.03-.14,0-.28-.02-.41-.04-.21-.03-.58-.09-1-.22Zm2.17.25c0,.33-.14.64-.36.91,1.07-.32,2.07-.73,3-1.22-.25-.11-.5-.24-.75-.36-.49.42-1.18.62-1.89.67Zm-.53.01c.05.23.09.54-.06.81.22-.23.37-.52.36-.81-.1,0-.2,0-.31,0Zm3.66-.34c1.23.51,3.48,1.16,5.36.11,1.83-1.02,2.64-3.55,1.75-5.53-.02-.05-.05-.11-.08-.16-.06.6-.18,1.19-.37,1.76-.28.83-.83,1.9-1.88,2.34-.73.3-1.6.23-2.47-.17-.69.61-1.47,1.16-2.32,1.64Zm-13.15.01c1,.31,2.06.33,3.01.03.03-.01.07-.02.1-.03-1.63-.37-3.07-1.6-3.53-3.22-.06-.2-.1-.41-.13-.63-.09-.06-.19-.12-.28-.18-.06.14-.11.29-.15.45-.34,1.28.14,2.59.98,3.58Zm9.43.11c.11,0,.22,0,.32,0-.07-.23-.24-.41-.49-.51.06.17.12.34.17.51Zm.12-.61c.2.13.35.33.42.55,0,.02,0,.03.01.05.64-.04,1.25-.21,1.71-.56-.05-.03-.1-.05-.16-.08-.66.09-1.32.11-1.98.05Zm-1.56.38c.29.09.59.15.88.19.11.01.22.03.33.03-.06-.19-.12-.38-.2-.57-.29-.04-.59.02-.8.17-.08.05-.15.12-.21.18Zm-4.08,0c.34.02.69,0,1.03-.08-.03-.14-.06-.29-.06-.43-.11.03-.22.06-.33.08-.2.16-.41.3-.63.42Zm8.17-.4c.27.14.54.27.82.39.87-.48,1.66-1.03,2.36-1.64-.17-.09-.33-.19-.5-.3-.39.53-1.03.94-1.93,1.22-.21.06-.41.12-.62.17-.04.05-.09.11-.13.16Zm-16.19-4.56c.19,1.28.71,2.47,1.53,3.4.6.69,1.38,1.21,2.21,1.53-.75-1-1.14-2.27-.81-3.51.05-.18.11-.35.18-.52-.59-.39-1.16-.81-1.71-1.25-.24-.19-.48-.4-.67-.65-.25.31-.5.64-.73.99Zm6.63,4.65c.32.12.65.21.98.26.19-.09.37-.19.55-.3-.46.06-.95.07-1.48.04-.02,0-.04,0-.06,0Zm4.16-.33c.32.23.69.42,1.09.55.09-.11.19-.21.31-.29.12-.08.26-.15.4-.18-.47-.11-.93-.25-1.38-.43-.13.13-.28.25-.42.36Zm-1.58.07c0,.14.02.29.06.44.41-.11.79-.29,1.15-.51-.11-.1-.21-.2-.3-.32-.28.16-.58.29-.91.39Zm-3.35-1.91c-.03.06-.05.12-.07.18-.16.4-.37,1.14.06,1.53.21.19.54.24.85.26.68.04,1.3,0,1.86-.11.17-.14.33-.29.48-.45.02-.09.05-.17.09-.25.02-.05.05-.1.07-.15-.01,0-.03,0-.04,0-.79.03-1.57-.24-2.28-.54-.35-.15-.69-.3-1.03-.46Zm9.23,1.74c-.14.06-.29.12-.44.17.22,0,.44-.02.66-.04-.08-.04-.15-.08-.23-.12Zm.24-.12c.12.07.24.13.36.2.17-.03.34-.06.5-.09.05-.08.1-.16.14-.25.1-.21.15-.43.15-.65-.06.05-.11.09-.17.14-.27.22-.61.46-.99.66Zm-2.16.07c.17.07.35.11.52.12.37.02.75-.04,1.15-.21-.06-.03-.12-.07-.19-.1-.69-.39-1.41-.78-2.15-1.11.08.16.17.32.25.48.14.27.28.54.41.82Zm-1.79-.37c.45.18.91.32,1.39.42-.22-.13-.41-.31-.56-.51-.13-.18-.23-.38-.27-.58-.16.24-.35.47-.55.67Zm-1.07.08c.09.11.19.21.29.3.13-.1.26-.2.38-.31-.13-.06-.27-.12-.4-.19-.09.07-.18.13-.28.19Zm-1.07.1c-.01.06-.02.11-.03.17.27-.09.53-.2.77-.34-.08-.13-.15-.28-.21-.43-.02,0-.05.01-.07.02-.14.2-.29.4-.46.58Zm7.45-.86c.03.32-.03.64-.17.93-.01.03-.03.06-.04.08.13-.03.26-.07.38-.11.85-.27,1.45-.65,1.81-1.14-.08-.06-.16-.12-.24-.18-.18-.15-.36-.3-.51-.46-.16.07-.33.12-.5.17-.23.25-.48.48-.74.71Zm-4.59-.29c0,.25.1.51.27.74.12.17.29.31.47.43-.09-.18-.19-.37-.28-.55-.12-.24-.25-.48-.37-.72,0,0-.02,0-.02-.01-.02.04-.04.07-.06.11Zm-8.29-1.46c.03.14.06.28.1.41.25.89.81,1.65,1.53,2.21-.19-.47-.02-1.06.13-1.42.02-.06.05-.12.08-.19-.63-.31-1.24-.65-1.84-1.01Zm8.54,1.19c.83.36,1.63.8,2.4,1.23.11.06.22.12.33.18.34-.17.7-.4,1.08-.7.1-.08.19-.16.29-.24-.02-.14-.06-.29-.12-.43-.85.06-1.7-.09-2.46-.45-.05,0-.09.01-.14.01-.43.03-.85-.02-1.26-.12-.05.14-.11.27-.17.41.02.04.03.07.05.11Zm-1.58.97c.13.06.25.12.38.18.28-.28.52-.59.73-.93,0-.09.01-.17.03-.26l.03-.12.11.04c-.05-.11-.1-.23-.14-.37-.04.03-.08.05-.13.08-.21.52-.56.99-1.01,1.39Zm-.77-.18c.05.12.11.24.18.34.07-.04.13-.08.19-.13-.12-.07-.25-.14-.37-.21Zm9.76-.1c.78.34,1.56.39,2.2.12.97-.4,1.49-1.42,1.75-2.2.22-.65.35-1.34.39-2.04-.09-.15-.19-.29-.3-.43.05.32.08.65.07.97-.02.5-.11.91-.29,1.25-.22.43-.58.74-.99.85-.43.11-.84,0-1.12-.11-.07-.03-.14-.06-.21-.1-.09.12-.18.24-.27.36-.37.47-.78.91-1.23,1.33Zm-9.56-.04c.12.07.24.14.36.2.37-.3.67-.67.88-1.07-.17.1-.35.2-.52.29-.19.25-.44.44-.72.57Zm-4.25-.94c.34.16.68.32,1.02.46.69.29,1.44.56,2.19.53.07,0,.14,0,.21-.02.05-.07.11-.13.17-.2-.07-.05-.14-.1-.21-.16-.94-.72-1.61-1.58-1.97-2.49-.69.53-1.15,1.31-1.42,1.87Zm13.05.55c.18.12.37.23.55.33.47-.43.9-.88,1.28-1.36.09-.11.17-.22.25-.33-.32-.21-.6-.49-.8-.82-.04-.06-.07-.13-.11-.19-.09.12-.18.24-.28.36-.09.24-.22.46-.42.64-.06.06-.12.11-.19.16.02.35-.04.68-.17.98-.04.08-.08.16-.12.24Zm-11.44-2.56s0,.01,0,.02c.33.88.99,1.72,1.91,2.43.08.06.16.12.24.18.04-.04.08-.07.11-.11.26-.5.42-1.04.46-1.59-.8-.36-1.56-.74-2.22-1.19-.18.07-.35.17-.5.27Zm9.02,2.31c.03.09.06.19.08.28.13-.12.25-.23.38-.35-.15.03-.31.06-.46.07Zm-5.62-.46c-.31.23-.59.46-.84.68.22-.11.44-.22.65-.34.06-.09.12-.18.16-.29,0-.02.02-.04.02-.06Zm7.2.02c.14.13.28.26.43.39.07.06.15.12.22.17.04-.06.07-.13.1-.2.1-.24.15-.5.15-.76-.15.08-.32.14-.49.19-.14.08-.28.15-.42.22Zm-7.67-.85c-.04.39-.14.78-.28,1.15.25-.21.53-.43.82-.64,0-.09,0-.18,0-.27-.08-.04-.17-.07-.25-.11-.1-.04-.19-.08-.29-.13Zm3.79.79c.62.24,1.3.34,1.96.31-.02-.03-.04-.07-.06-.1-.02-.04-.05-.08-.08-.12-.59.01-1.19,0-1.79-.1-.01,0-.03,0-.04,0Zm2.09.08s0,0,0,.01c.04.07.07.13.11.2.28-.03.56-.08.84-.16.04-.04.07-.08.11-.12-.34.03-.7.05-1.06.07Zm-5.13-.23c-.02.12-.05.23-.1.34,0,0,0,0,0,0,.16-.09.31-.18.47-.27.03-.07.05-.14.07-.21-.05-.02-.1-.04-.14-.06-.1.06-.2.13-.3.19Zm-7.46-.84c.64.4,1.3.76,1.97,1.1.28-.6.78-1.43,1.54-1.99-.01-.04-.02-.07-.03-.11-.35.24-.73.42-1.12.53-.87.24-1.63.07-2.39-.18,0,.23.01.44.04.66Zm8.33.87c.03.08.06.15.08.22.03-.06.05-.13.08-.19-.05-.01-.1-.03-.15-.04,0,0,0,0-.01,0Zm5.64.11s0,0-.01.01c.01,0,.02,0,.04-.01,0,0,0,0,0,0,0,0-.01,0-.02,0Zm-5.2-.23c.32.08.65.12.96.12-.05-.03-.1-.06-.15-.09-.15-.05-.3-.1-.45-.15-.08-.03-.17-.07-.25-.11-.02.01-.03.02-.05.03-.02.07-.04.14-.06.21Zm2.25.07c.38.04.76.05,1.14.04-.13-.16-.28-.3-.44-.42-.22.15-.45.28-.69.38Zm.88-.51c.2.16.38.35.54.55.45-.01.89-.05,1.32-.08.02,0,.04,0,.06,0-.4-.49-.69-1.01-.84-1.54-.3.39-.66.76-1.07,1.08Zm-2.23.26c.28.08.56.14.85.19.36-.1.69-.25,1-.45-.38-.25-.82-.4-1.25-.42-.18,0-.35,0-.53.02-.16.12-.32.23-.49.35.13.11.27.22.42.32Zm5.32-1.07c-.23.42-.51.83-.83,1.23.18-.02.36-.06.54-.1.17-.1.34-.22.5-.35.01,0,.02-.02.04-.03-.04-.25-.13-.51-.25-.75Zm-1.86-.5s.01.06.02.08c.14.53.41,1.05.81,1.53.35-.43.65-.88.89-1.35-.07-.11-.15-.21-.23-.32-.25-.3-.57-.56-.96-.8-.15.27-.33.56-.53.84Zm-4.9,1.58s.05.02.07.02c.11-.07.22-.14.33-.21,0,0,0,0,0-.01-.07-.04-.13-.07-.2-.11-.08.04-.16.08-.24.12,0,.01,0,.02,0,.03.01.06.03.11.04.16Zm-.76-.06s0,.02,0,.02c0,0,.02,0,.02-.01,0,0-.02,0-.02,0Zm10.14-.23c.05.03.11.05.16.07.24.1.61.2.98.1.35-.09.66-.36.85-.73.16-.31.25-.69.26-1.16.01-.43-.03-.87-.14-1.3-.18-.18-.37-.35-.57-.5-.28,1.23-.8,2.43-1.54,3.51Zm-10.17-.02c.09.04.19.08.29.12.07-.04.14-.08.21-.12-.03-.13-.05-.27-.06-.41-.66-.54-1.2-1.26-1.39-2.11-.14-.05-.28-.1-.42-.17.28.46.49.95.59,1.47.14.11.27.24.39.39.21.26.34.54.4.83Zm9.08-1.13c.05.1.1.19.15.28.19.3.44.56.74.76.76-1.09,1.27-2.3,1.54-3.54-.4-.27-.84-.48-1.3-.63-.16,1-.49,2.14-1.14,3.13Zm-9.8.81c.12.05.24.11.36.16.03.02.07.03.11.05-.06-.2-.17-.4-.32-.58-.05-.06-.11-.13-.17-.18.02.19.02.37.02.56Zm3.39-.31c.06,0,.11,0,.17,0,.5.02,1,.21,1.43.5.47-.34.86-.77,1.19-1.22-.07-.38-.07-.76,0-1.13-.28.04-.56.08-.83.12-.63.61-1.3,1.19-2,1.72.02,0,.03,0,.05,0Zm-1.08.39s.03.03.05.05c.05-.03.1-.07.15-.11-.07.02-.13.04-.2.06Zm6.08-.78c.15.26.26.54.32.82.17-.15.33-.32.47-.49.13-.36.13-.77.08-1.12-.04-.08-.08-.16-.12-.23-.07-.12-.15-.22-.23-.31-.12.45-.3.89-.52,1.33Zm-6.88.61c.07.05.14.1.22.15.06-.03.12-.05.18-.07-.17-.19-.32-.39-.46-.61.03.12.04.24.05.36,0,.06,0,.11,0,.17Zm-3.71-1.06c.6.39,1.27.73,1.97,1.05,0-.2,0-.4-.04-.6,0-.03,0-.06-.01-.09-.48-.36-1.1-.53-1.63-.44-.1.02-.2.04-.29.07Zm-4.93.92c.05.03.1.07.15.1-.01-.12-.02-.23-.02-.35-.05.08-.09.16-.14.25Zm9.19-1.67c.06.18.1.37.14.55.07.4.08.81.03,1.21.23-.07.46-.12.7-.15.71-.53,1.39-1.1,2.04-1.71-.96.1-1.94.13-2.91.09Zm-.63.8c.16.31.36.61.59.87.03-.36.02-.72-.04-1.08-.03-.19-.08-.39-.15-.58-.04.05-.09.11-.13.17-.13.19-.22.4-.28.61Zm-11.08-1.12c.18.25.42.45.66.65.54.43,1.1.84,1.67,1.22.07-.14.14-.27.22-.39-.87-.32-1.3-.82-1.25-1.43.05-.57.29-1.2.73-1.91-.73.5-1.42,1.12-2.04,1.86Zm9.65.08c.18.68.61,1.27,1.13,1.74,0-.16,0-.31.03-.47-.14-.43-.4-.83-.73-1.17-.14-.03-.28-.06-.43-.09Zm-6.74,1.28c.74.25,1.48.42,2.3.19.39-.11.77-.29,1.12-.55-.05-.21-.09-.44-.12-.66-.26-.26-.49-.55-.68-.87-.28.11-.55.23-.83.38-.49.27-1.24.76-1.79,1.5Zm16.25-.06s0,.09-.01.14c.02-.02.03-.04.04-.06-.01-.02-.02-.05-.03-.07Zm-2.46-1.09c.41.25.75.53,1.03.85.06.07.12.15.18.23.2-.42.36-.85.47-1.27-.42-.3-.93-.25-1.5-.14-.05.11-.11.22-.17.34Zm-14.2-2.37l-.11.16c-.52.78-.81,1.48-.86,2.06-.06.63.57,1.01,1.13,1.21.03-.55.13-1.13.29-1.77.22-.81.52-1.59.9-2.31-.46.17-.92.39-1.36.65Zm4.08,3.25s.02.08.03.12c.12-.07.24-.14.37-.2-.05-.04-.1-.08-.16-.12-.08.07-.16.14-.25.2Zm12.54-.44c.06.12.11.25.16.37.02.04.04.09.06.13.58-.94.88-2.01,1.03-2.95-.52-.14-1.07-.2-1.62-.17.03.32.04.65.01.98-.01.17-.03.35-.06.52.14.25.26.52.34.79.03.1.06.22.08.34Zm-11.07.09c.43,0,.87.13,1.25.37-.15-.57-.43-1.11-.81-1.59-.11-.09-.21-.2-.31-.31-.04,0-.07-.02-.11-.03-.02.03-.03.06-.05.1-.29.56-.64,1.06-1.05,1.46.08.06.15.12.23.17.15-.06.31-.1.48-.13.12-.02.23-.03.35-.03Zm-3.98-3.49c-.38.72-.69,1.5-.9,2.31-.14.51-.23.99-.27,1.45.55-.65,1.23-1.1,1.69-1.35.27-.15.55-.28.82-.38-.04-.08-.09-.17-.13-.25-.12-.26-.21-.67-.1-1-.39-.23-.76-.49-1.12-.78Zm11.96,2.86c-.05.27-.05.55-.02.82.15-.22.28-.43.39-.64-.12-.06-.24-.13-.37-.18Zm-9.57.48c.01.09.03.18.05.27.04-.04.09-.07.13-.11-.06-.05-.12-.11-.18-.16Zm4.27-.33c.06.19.13.38.21.57.06-.15.14-.3.23-.45.02-.03.04-.06.06-.09-.14,0-.27-.02-.41-.03-.03,0-.06,0-.09,0Zm-8.97-5.96c-.17.04-.35.11-.51.22-.36.24-.63.6-.82.89-.62.93-1.01,1.95-1.26,3.33-.13.7-.15,1.41-.09,2.09.2-.29.42-.58.64-.85-.04-.07-.08-.14-.11-.22-.37-.9.19-1.89.65-2.55.54-.79,1.13-1.54,1.77-2.25-.11-.21-.21-.43-.27-.67Zm4.66,5.95c.12.12.26.24.39.35.4-.39.75-.87,1.03-1.42,0-.02.02-.03.03-.05-.46-.05-.95-.02-1.44.08-.03.35-.04.7,0,1.03Zm4-.02c.04.05.08.1.12.16-.02-.05-.03-.1-.04-.15-.03,0-.05,0-.08,0Zm1.31-.13c1.05.04,2.11,0,3.15-.12.07-.07.14-.14.21-.21-1.11-.33-2.51-.39-3.37.33Zm4.56-.11c.08.04.15.08.23.12.03-.06.06-.12.09-.18,0,0,0,0-.02,0l-.25.05s-.03,0-.05,0Zm-5.61.04c.06,0,.12.01.17.02.18.01.37.03.55.04-.14-.34-.32-.66-.54-.96-.1.03-.2.05-.3.08.01.28.05.56.12.83Zm-.5-.06c.09.01.18.03.26.04-.06-.25-.09-.51-.11-.76-.26.05-.52.08-.78.09,0,.05,0,.1,0,.15.23.14.44.31.62.49Zm8.44-.03s.04.04.07.06c-.02-.04-.03-.08-.05-.12,0,.02,0,.04-.01.06Zm-12.88-.54c.13.21.28.41.44.59,0-.24,0-.48.02-.73-.15.04-.31.08-.46.13Zm5.34-.35c.2.28.36.58.49.89.95-.81,2.51-.73,3.7-.35.53-.54,1.03-1.12,1.5-1.71-.34-.23-.71-.45-1.12-.66-.32-.17-.66-.33-.99-.49-.18-.09-.37-.18-.55-.27,0,.01-.02.03-.03.04-.21.37-.45.73-.73,1.06-.6.7-1.4,1.2-2.27,1.49Zm4.25.79s-.06.06-.09.09c.08-.01.17-.02.25-.03-.05-.02-.11-.04-.16-.06Zm7.51-.42c.15.15.28.32.41.49.01-1.38-.33-2.8-1-4.07.08.69.08,1.41,0,2.12.27.47.46.96.59,1.46Zm-13.25.41s.1.03.15.04c-.05-.04-.1-.08-.16-.12,0,.03,0,.05.01.08Zm5.9-.17c.13.05.25.09.37.14.14-.5.4-.95.78-1.27.16-.14.35-.25.55-.35-.08-.06-.16-.12-.25-.18-.46.58-.94,1.14-1.45,1.67Zm-13.35-4.5c-.61.69-1.18,1.41-1.7,2.17-.43.62-.95,1.54-.63,2.34.02.04.04.08.06.12.74-.87,1.58-1.58,2.46-2.12.29-.43.58-.87.74-1.35-.09-.1-.19-.2-.28-.3-.22-.25-.45-.54-.65-.87Zm15.01,3.29c-.14.08-.26.16-.37.25-.32.27-.56.66-.69,1.09.06-.01.12-.02.19-.03l.25-.05c.06-.01.12-.02.18-.03.13-.27.31-.71.44-1.23Zm.42,1.12c.3,0,.59.06.85.21.02-.07.03-.14.04-.22-.26-.43-.61-.83-1.06-1.22-.12.51-.29.96-.43,1.28.2-.03.4-.06.6-.06Zm-8.93-.21c.21.17.45.29.71.39,0-.05-.01-.1-.02-.15-.22-.13-.46-.24-.71-.31-.02,0-.03,0-.05,0,.02.03.05.05.07.08Zm.66-.03s.01,0,.02.01h0s-.01-.01-.02-.01Zm8.31-1.08c.36.32.66.65.9.99,0-.08.02-.16.02-.24.02-.31.02-.63-.02-.94-.1.01-.19.02-.29.04-.22.04-.42.09-.61.15Zm-12.24-.11c-.07.24,0,.57.1.79.04.09.09.18.13.27.2-.07.4-.13.6-.17,0-.02,0-.04,0-.07.02-.13.04-.26.07-.38-.31-.13-.61-.27-.91-.44Zm16.74.65c.14.1.27.21.4.32-.09-.26-.19-.52-.32-.78-.02.15-.05.3-.08.46Zm-15.62-.13c-.02.1-.04.21-.05.31.25-.05.49-.08.74-.09-.23-.06-.46-.14-.68-.23Zm1.73.22c.31.04.63.06.94.06.06,0,.13,0,.19,0,.06-.33.19-.65.37-.94-.04-.03-.08-.06-.13-.09-.11-.08-.22-.15-.33-.22-.13-.02-.26-.05-.38-.09-.09-.03-.18-.08-.26-.12-.09.48-.23.94-.41,1.39,0,0,0,.01.01.02Zm1.67-.75c-.15.25-.26.51-.32.79.25-.02.5-.06.74-.11,0-.09.01-.19.02-.28-.14-.14-.28-.27-.44-.4Zm-2.55.58c.15.04.29.07.44.1-.35-.29-.73-.53-1.15-.72-.02.06-.04.13-.06.19.13.09.27.18.42.26.11.06.23.12.35.17Zm3.19.03s0,0,0,0c0,0,0,0,0,0,0,0,0,0,0,0Zm.03-.29c.07.08.14.15.21.23,1.29-.4,2.41-1.22,3.09-2.28,0-.01.02-.03.03-.04-.51-.26-1.02-.53-1.49-.85,0,0,0,0-.01,0-.19.46-.46.87-.8,1.22.36-.05.72,0,1.04.15l-.09.2c-.39-.18-.84-.19-1.28-.05-.11.09-.23.17-.35.25-.15.32-.26.66-.32,1.01,0,.06-.02.11-.03.17Zm10.03-.41c.46.15.91.35,1.31.62.04-.22.07-.43.1-.65-.14-.25-.31-.49-.49-.72-.25-.31-.52-.58-.8-.82,0,.08,0,.16,0,.24-.01.38-.04.84-.11,1.33Zm-12.41-.87c-.19.45-.25.95-.1,1.41.15-.4.27-.82.34-1.25-.05-.04-.09-.08-.13-.12-.04-.01-.07-.03-.11-.04Zm-1.48.71c.41.18.8.42,1.15.7-.14-.49-.07-1.01.12-1.48-.27-.09-.54-.16-.81-.21-.18.32-.34.65-.46.99Zm-1.23.06c.27.15.55.29.82.4-.21-.16-.4-.33-.58-.52-.04,0-.08.01-.11.03-.05.02-.09.05-.13.09Zm4.54,0c.12.1.24.2.36.31,0,0,0,0,0-.01.05-.28.13-.54.23-.8-.06.03-.13.06-.19.08-.15.13-.28.27-.39.43Zm-3.93-.06c.1.09.2.17.3.25.01-.04.03-.09.04-.13-.1-.04-.2-.07-.3-.11-.01,0-.03,0-.04-.01Zm11.44-.67c0,.29-.03.58-.08.86.22-.08.47-.15.73-.19.1-.02.2-.03.3-.04-.21-1.46-1.01-2.88-2.16-3.9-.28-.11-.57-.21-.85-.29-.16.29-.31.59-.45.89.69.05,1.29.3,1.72.71.57.54.77,1.24.79,1.93h.02s-.02.04-.02.04Zm1.5.59c.46,0,.91.06,1.35.18.07-.48.1-.91.11-1.28,0-.14,0-.27,0-.41-.61-.48-1.29-.85-1.99-1.23-.32-.17-.64-.35-.95-.53-.2-.12-.41-.23-.61-.33.95,1,1.59,2.28,1.77,3.6.11,0,.22-.01.33-.01Zm-1.96.02c.06.04.12.09.17.13.02-.14.04-.28.05-.43-.07.1-.15.2-.23.3Zm-12.89-.75c.35.28.72.54,1.09.76.06-.08.15-.14.24-.18,0,0,.02,0,.02,0-.21-.24-.4-.5-.56-.77-.27.05-.54.12-.8.2Zm5.49.62s.03.02.04.03c.04.03.08.06.13.09.04-.06.08-.11.13-.16-.1.02-.2.04-.3.04Zm-3.87-.09c.13,0,.27.04.39.08.1.03.2.07.3.11.11-.32.26-.64.42-.94-.57-.08-1.14-.09-1.7-.01.17.27.37.53.59.77Zm8.4-1.35c.18.09.35.17.53.26.33.16.67.32.99.49.43.22.81.45,1.16.69.12-.15.23-.3.34-.46-.86-.6-1.82-1.07-2.83-1.37-.06.14-.13.27-.2.4Zm6.51-.08c.35.28.67.59.97.97.13.16.25.33.36.49.07-.79.03-1.58-.12-2.34-.42-.68-.95-1.32-1.56-1.88.22.84.34,1.76.35,2.76Zm-11.38,1.29c.23.02.49,0,.75-.08.07-.02.14-.04.21-.07.1-.09.21-.17.33-.24.06-.04.13-.08.19-.11.31-.59.76-1.11,1.29-1.52-.07,0-.14,0-.21,0-1.28-.04-2.28.21-2.97.76-.06.05-.12.1-.18.16,0,.26-.03.52-.06.77.22.1.44.21.66.34Zm-6.1-.97c-.12.33-.3.63-.49.93.33-.17.66-.32,1-.45-.18-.15-.35-.31-.51-.48Zm5.19.52s.03.01.05.02c.02-.14.03-.28.04-.42-.07.09-.13.18-.19.28.03.04.06.08.1.12Zm6.08-1.37c1,.31,1.95.76,2.8,1.35-.04-.59-.24-1.16-.71-1.61-.41-.39-1-.62-1.67-.66-.04.09-.09.19-.13.28-.1.21-.19.42-.29.63Zm-11.19.61c.22.22.44.44.68.63,0,0,0,0,0,0,.18-.31.36-.61.57-.9-.36-.93-.47-1.96-.27-2.94-.13.1-.27.22-.4.34-.35.31-.69.63-1.01.97.43.39.59,1.07.49,1.65-.02.09-.04.17-.06.26Zm3.98.42c.25.05.51.12.75.2-.15-.24-.26-.52-.32-.81-.16.2-.3.4-.43.61Zm4.72-.87c-.33.29-.62.63-.85,1.01,0,0,0,0,.01,0,.33-.27.62-.62.83-1Zm-7.34.42c-.12.18-.24.37-.36.57.19-.05.38-.1.57-.14-.08-.14-.15-.28-.21-.43Zm3.24-.39c.05.3.14.6.28.85.1-.16.21-.3.33-.43,0-.33-.02-.67-.07-.99-.2.18-.38.38-.55.58Zm-1.88.71c.34,0,.68.03,1.02.08.18-.31.39-.61.63-.89-.02-.17-.02-.33-.02-.5.02-.54.15-1.07.37-1.56-.06-.14-.13-.27-.2-.39-.11.06-.22.12-.33.19-1.03.63-1.94,1.5-2.68,2.54.08.21.18.41.29.6.3-.05.61-.07.92-.07Zm6.83-1.04c.37.23.76.44,1.15.64.06-.12.13-.24.18-.36-.44-.12-.89-.21-1.34-.27Zm-10.56-.53c.2.34.44.64.66.89.06.07.12.13.18.2,0-.03.01-.07.02-.1.09-.5-.06-1.11-.43-1.45-.15.15-.29.31-.43.46Zm6.36.11c.05.32.08.64.09.97.01-.01.03-.02.05-.04.74-.58,1.79-.85,3.12-.81.05,0,.09,0,.14,0-.17-.13-.33-.27-.48-.42-.26-.25-.56-.6-.78-1-.78.31-1.51.75-2.13,1.29Zm7.81-1.35c.41.17.81.36,1.2.59.31.19.63.36.95.53.66.36,1.3.71,1.89,1.14-.02-1.05-.17-2.01-.43-2.87-.74-.64-1.58-1.18-2.48-1.6-.72.33-1.38.95-1.85,1.66.26.17.5.35.73.55Zm-11.89-.89c-.26.96-.19,1.99.15,2.93.74-1,1.64-1.85,2.66-2.48.11-.07.22-.13.33-.19-.25-.38-.55-.63-.89-.77-.64-.25-1.39-.08-2.24.51Zm8.18,2.43c.52.06,1.03.17,1.54.31.07-.19.13-.38.18-.58.02-.08.04-.18.06-.27-.04,0-.08,0-.12,0-.58.05-1.14.24-1.65.53Zm-4.61-1.29c-.15.41-.25.84-.26,1.28,0,.08,0,.17,0,.25.17-.19.35-.36.54-.53-.06-.34-.15-.67-.27-1Zm4.5-.63c.04.25.06.5.06.75,0,.36-.06.71-.17,1.05.56-.34,1.19-.57,1.85-.63.06,0,.12,0,.18-.01.04-.34.03-.72-.08-1.1-.62-.1-1.24-.12-1.84-.06Zm-1.64.36c.21.37.48.69.72.92.18.18.38.34.58.49.11-.33.17-.68.17-1.03,0-.24-.02-.48-.06-.73-.49.06-.96.18-1.42.34Zm-2.73-.03s.04.1.06.15c.12.32.22.65.28.98.61-.51,1.32-.93,2.08-1.23-.12-.27-.2-.56-.22-.88,0-.11,0-.22,0-.34-.58.1-1.15.26-1.71.48-.19.27-.36.55-.5.84Zm-6.29.56c.05.18.12.36.21.52.12-.13.24-.26.37-.39-.06-.04-.13-.07-.2-.09-.12-.04-.24-.05-.37-.04Zm18.28-1.26c.58.51,1.1,1.08,1.54,1.69-.17-.61-.41-1.19-.73-1.73-.44-.75-.94-1.25-1.5-1.5.03.06.07.11.1.17.24.42.43.88.59,1.37Zm-5.48,1.52s0,0,0,0c.15-.32.3-.63.47-.94-.18-.05-.36-.08-.54-.12.09.37.09.73.06,1.06Zm-12.74-.48c.13,0,.26.02.38.06.11.03.2.08.29.14.34-.34.68-.68,1.04-1,.22-.19.43-.36.63-.51,0-.01,0-.03.01-.04.27-.91.78-1.69,1.45-2.22.93-.73,2.07-.94,3.24-.8-2.16-.73-4.81-.11-6.28,1.66-.71.85-1.03,1.82-.89,2.67,0,.02,0,.03,0,.05.04,0,.08,0,.11,0Zm8.66-1.69c-.01.12-.01.24,0,.36.02.29.1.57.21.82.47-.17.97-.29,1.48-.35-.07-.3-.18-.6-.31-.89-.45-.02-.91,0-1.37.07Zm4.89,1.09c.07.02.14.04.21.06-.06-.04-.12-.08-.17-.12-.01.02-.02.04-.03.06Zm-7.57-.24c.04.08.08.15.13.24.07-.14.15-.28.24-.41-.12.06-.24.11-.36.18Zm6.63.03c.24.04.48.09.72.15.02-.04.05-.08.07-.12-.21-.13-.42-.24-.65-.35-.11-.05-.23-.1-.34-.15.05.08.09.16.12.24.03.07.06.14.08.21Zm-1.35-.12c.36,0,.73.03,1.1.08-.01-.03-.02-.06-.03-.08-.07-.16-.16-.32-.27-.46-.57-.19-1.18-.31-1.79-.35.12.28.22.56.29.85.23-.02.47-.03.71-.03Zm.93-.65c.22.08.44.16.65.26.23.11.46.23.67.36.45-.68,1.08-1.29,1.77-1.65-.22-.09-.44-.18-.66-.26-1.58-.56-3.15-.7-4.54-.41.38.23.75.48,1.1.75.36.28.72.59,1,.96Zm-8.02-.44c.24,0,.46.04.68.13.39.15.73.45,1.01.87.23-.12.47-.23.72-.33.59-.78,1.41-1.42,2.38-1.81,0-.01.01-.02.02-.03-.17-.16-.34-.31-.53-.45-.16-.11-.32-.22-.48-.31-1.44-.4-2.89-.33-4.02.56-.58.45-1.03,1.12-1.3,1.89.55-.34,1.06-.51,1.54-.51Zm11.65-.59c.74.36,1.43.8,2.06,1.3-.13-.35-.28-.68-.45-.99-.07-.14-.15-.27-.24-.39-.45-.12-.92-.07-1.37.08Zm-7.04-.24c-.7.33-1.31.79-1.79,1.34.48-.17.97-.29,1.47-.37.05-.31.16-.64.33-.97Zm1.38.88c.56.03,1.11.12,1.64.27-.23-.24-.48-.46-.74-.66-.4-.31-.83-.6-1.28-.85-.13.03-.26.07-.39.12.31.34.57.72.77,1.12Zm-1.05-1.02c-.04.08-.09.16-.13.24-.14.29-.24.57-.29.84.41-.05.81-.07,1.22-.07-.2-.37-.45-.71-.74-1.03-.02,0-.04.01-.05.02Zm2.45-.66c1.01,0,2.08.19,3.14.57.29.1.57.22.85.34.47-.2.97-.29,1.46-.22-.9-1.23-2.2-2.06-3.54-2.22-1.47-.18-2.99.47-3.94,1.59.09.05.19.09.28.14.56-.14,1.14-.21,1.75-.21Zm-2.17.24s-.06.08-.08.11c.06-.02.13-.04.19-.06-.04-.02-.07-.04-.11-.05Zm-.64-.29c.12.1.24.2.35.31.03-.04.06-.08.09-.12-.14-.07-.29-.13-.44-.19Z"/>
      </g>
      <g>
        <g>
          <path class="cls-22" d="m16.96,62.46c.52.14,1.38.95,2.05,1.23,1.29.54,2.6,1.11,3.67,2.03.9.77.58,2.17-.29,2.63-.66.34-2.37-.17-3.06-.68-.58-.42-1.17-.76-1.89-.9-.66-.13-1.36-.25-1.93-.63-.48-.33-.61-.79-.56-1.36.05-.59.18-1.3.5-1.81.22-.36.66-.45,1.06-.52.17-.03.31-.02.45.02Z"/>
          <path class="cls-30" d="m15.18,33.91c.08-.02.16-.03.24-.03.75,0,1.53.11,2.15.54.84.58,1.21,1.61,1.5,2.58,1.3,4.27,2.35,9.02,1.97,13.5-.19,2.29-2.55,1.99-3.9.87-1.26-1.05-1.48-2.59-1.99-3.98-.39-1.07-.8-2.13-1.14-3.21-.65-2.07-.92-3.87-.91-5.79,0-.76-.08-1.5.16-2.24.24-.75,1.04-2.04,1.92-2.23Z"/>
          <path class="cls-30" d="m20.89,51.19c-.47,1.25-1.84,10.81-2.02,11.97-.12.77-.24,1.61-2.13,1.47-1.95-.14-1.75-.68-1.99-2.53-.58-4.45-.26-7.61.47-9.21.34-.75,1.23-1.91,1.36-4.02.08-1.37.87-1.82,2.14-1.59,1.07.19,2.32,3.52,2.17,3.91Z"/>
          <path class="cls-5" d="m25.76,31.89c.1-1.48,0-4.56-.02-6.04-.01-1.31.06-2.04-1.21-2.65-.46-.22-.97-.36-1.47-.29-.4.06-.81.28-1.02.64-.25.4-.08.99-.05,1.43.35,5.41,0,6.2.9,6.92.99.79,2.79,1.26,2.88-.01Z"/>
          <path class="cls-5" d="m27.26,38.19c-.78.14-1.02-.61-1.42-.99-1.87-1.79-3.49-5.8-3.51-6.21,0,0,2.88-1.05,3.26-.51.35.49.7,1.33,1.07,2.37.69,1.92.75,2.69,1.19,3.65.18.38.67,1.46-.59,1.69Z"/>
          <path class="cls-20" d="m24.15,20.66c.49.05,1.11,1.12,1.3,1.45.34.58.63,1.23.73,1.9.13.78.19,4.34-.15,5.02-.12.23-.59.36-.81.42-.77.18-1.53.08-2.28-.08-.3-.06-.62-.3-.86-.49-.89-.7-.35-2.55-.43-3.56-.04-.48-.19-.97-.26-1.44-.03-.21-.07-.42-.06-.62.02-.41.2-.8.46-1.12.26-.32.59-.57.94-.79.4-.26.82-.48,1.25-.66.05-.02.1-.03.16-.02Z"/>
          <path class="cls-5" d="m28.96,41.29c.33-1.14-.82-3.21-.89-4.11-.05-.62-.87-.87-1.37-.71-.15.05-.3.12-.41.24-.41.44.12.73.02,1.05-.03.09-.09.15-.17.2.66.24.77.76.66,1.39-.14.79-.42,1.31.12,2.03.15.2.33.41.55.53.3.16.67.16.97.01.28-.14.43-.36.51-.63Z"/>
          <path class="cls-22" d="m10.96,66.88c.53.92.99,1.46,1.64,2.64.72,1.31.44,1.83-1,2.12-2.39.48-2.42-.83-4.95-4.09-.39-.51-.68-.98-.34-1.88.36-.96.95-1.83,2.11-1.85,1.01-.02,2.01,2.13,2.54,3.06Z"/>
          <path class="cls-32" d="m9.27,34.12c1.4-.58,3.97-.83,5.18-.07.89.56,1.56,1.66,1.52,2.7-.04.93-.54,2.73-.83,3.6-.49,1.47-1.21.45-1.76,2.56-.72,2.75-1.04,6.02-1.86,8.74-.67,2.2-2.91,1.41-3.99.03-1.01-1.29-.9-2.84-1.1-4.31-.16-1.13-.34-2.25-.44-3.38-.2-2.16-.08-3.98.32-5.85.25-1.14.2-2.86,2.97-4.02Z"/>
          <path class="cls-32" d="m11.17,49.73c.92,1.09.02,3-.1,3.4-.38,1.28-.92,10.03-1.02,11.2-.07.78-.12,1.62-2.02,1.62-1.95,0-1.79-.55-2.17-2.37-.91-4.39-.83-7.57-.22-9.22.28-.77,1.09-2,1.06-4.11-.02-1.38.74-1.88,2.02-1.75,1.08.11,2.44,1.2,2.45,1.22Z"/>
          <path class="cls-15" d="m11.56,23.32c.24-.2.5-.39.76-.56,2.46-1.66,5.4-2.6,8.36-2.7.79-.02,1.61.01,2.34.33.65.28,1.33.87,1.46,1.61.15.89-.13,1.93-.42,2.76-1.08,3.14-3.72,5.66-4.19,9.01-.16,1.1-.13,2.23-.14,3.34,0,.22,0,.44-.12.62-.11.17-.3.28-.48.37-1.32.66-2.82.99-4.28,1.14-2.53.26-6.08.09-8.05-1.75-.78-.73-.32-2.65,0-3.52.55-1.56,1.5-2.94,2.11-4.47.51-1.29.77-2.67,1.26-3.96.21-.56.33-1.06.73-1.54.2-.24.43-.47.68-.67Z"/>
          <g>
            <path class="cls-17" d="m19.08,21.55c-1.59,1.88,1.96,5.23,3.33,3.38,1.92-2.59,2.19-3.4,1.26-4.75-.26-.37-.55-.73-.9-1.02-1.29-1.04-1.29,0-1.59.48-.9,1.44-1.53,1.24-2.1,1.91Z"/>
            <path class="cls-5" d="m29.16,19.17c-.23,2.18-1.81,2.54-2.09,2.89-.34.43-.23,1.39-.88,1.76-.15.09-.33.12-.49.18-.96.34-1.87,3.1-3.93-.74-.38-.72-.49-3.27-.41-3.59.03-.14.16-.07.1-.2-.04-.08.2-.55.14-.61-.08-.08-.12-.26-.15-.36-.07-.2-.39.08-.31-.11.33-.82.63-1.7,1.21-2.39.54-.63.96-1.2,1.81-1.43,2.39-.63,5.32,1.62,5.01,4.6Z"/>
            <path class="cls-30" d="m21.97,15.4c.19-.19.39-.36.62-.51.97-.63,1.79-.54,2.29-.61.24-.03.45-.08.69-.09,1.52-.02,3.04,1.15,3.73,2.46.4.76.55,1.65.43,2.5-.14.92-1.02,2.09-1.92,2.42-.35.13-.8.05-.98-.28-.08-.15-.1-.33-.17-.49-.08-.15-.21-.28-.35-.37-.57-.39-1.36-.44-1.97-.12-.35.18-.67.48-1.07.48-.89,0-.67-1.59-1.74-1.14-.16.07-.32.15-.44.28-.25.27-.66.61-.66.61,0,0-.05-.57-.08-.9-.04-.41.07-1.8.74-3.04.24-.43.52-.85.87-1.2Z"/>
            <path class="cls-5" d="m21.88,21.08c-.32-.04-.54-.52-.55-.81,0-.17.14-.24.29-.34.14-.09.31-.09.45-.01.04.02.08.05.11.08.3.08.45.4.33.69-.1.23-.37.42-.62.39Z"/>
            <g>
              <path class="cls-5" d="m22.56,18.83c-.53-.52-1.24-.05-1.31.73-.02.19.03.4.07.59.04.19.14.35.26.52.03.04.05.07.09.1.11.08.25.09.37.07.11-.01.28-.04.36-.11.08-.07.12-.17.15-.27.03-.08.02-.17.03-.26.03-.19.09-.36.15-.54.12-.32.11-.56-.18-.84Z"/>
              <path class="cls-5" d="m21.72,20.09c-.02-.12-.41-1.08.29-.99.19.02.25.25.17.41-.04.08-.13.14-.17.22-.03.05-.04.1-.04.16-.02.15.12.41-.03.53-.14.1-.19-.26-.21-.32Z"/>
            </g>
          </g>
        </g>
        <g>
          <g>
            <g class="cls-40">
              <path class="cls-9" d="m20.23,34.98c.34-.2.64-.22.86-.09l8.35,4.96c-.2-.12-.49-.1-.79.08-.61.36-1.11,1.23-1.1,1.94,0,.35.13.6.33.71l-8.48-4.73c-.22-.12-.35-.39-.36-.77,0-.77.53-1.71,1.19-2.1Z"/>
              <path class="cls-9" d="m28.65,39.93c-.61.36-1.11,1.23-1.1,1.94,0,.71.51.99,1.13.63.61-.36,1.11-1.23,1.1-1.94,0-.71-.51-.99-1.13-.63Z"/>
            </g>
            <g class="cls-40">
              <path class="cls-24" d="m28.68,40.62c.14-.08.27-.09.36-.04l3.9,2.25c-.09-.05-.22-.05-.36.04-.28.16-.5.56-.5.88,0,.16.06.27.15.33l-3.9-2.25c-.09-.05-.15-.17-.15-.33,0-.32.22-.71.5-.88Z"/>
              <path class="cls-29" d="m32.58,42.87c-.28.16-.5.56-.5.88,0,.32.23.45.51.29.28-.16.5-.56.5-.88,0-.32-.23-.45-.51-.29Z"/>
            </g>
            <g class="cls-40">
              <g>
                <path class="cls-8" d="m43.88,45v2.24c0-.99-.65-1.97-1.96-2.71-2.6-1.48-6.78-1.45-9.34.06-1.27.75-1.91,1.73-1.9,2.7v-2.23c-.01-.97.62-1.95,1.9-2.7,2.56-1.51,6.74-1.54,9.34-.06,1.31.74,1.96,1.73,1.97,2.71Z"/>
                <g class="cls-38">
                  <path class="cls-19" d="m43.88,45v2.24c0-.99-.65-1.97-1.96-2.71-2.6-1.48-6.78-1.45-9.34.06-1.27.75-1.91,1.73-1.9,2.7v-2.23c-.01-.97.62-1.95,1.9-2.7,2.56-1.51,6.74-1.54,9.34-.06,1.31.74,1.96,1.73,1.97,2.71h0Z"/>
                </g>
              </g>
              <g>
                <path class="cls-19" d="m45.01,44.99v1.79c0,1.14-.73,2.28-2.22,3.16-3,1.77-7.9,1.8-10.94.07-1.53-.87-2.3-2.02-2.3-3.18v-1.79c0,1.15.77,2.31,2.3,3.18,3.04,1.73,7.94,1.7,10.94-.07,1.49-.88,2.23-2.02,2.23-3.16Z"/>
                <g class="cls-37">
                  <g class="cls-40">
                    <path class="cls-19" d="m45.01,44.99v1.79c0,1.14-.73,2.28-2.22,3.16-3,1.77-7.9,1.8-10.94.07-1.53-.87-2.3-2.02-2.3-3.18v-1.79c0,1.15.77,2.31,2.3,3.18,3.04,1.73,7.94,1.7,10.94-.07,1.49-.88,2.23-2.02,2.23-3.16h0Z"/>
                  </g>
                </g>
              </g>
              <path class="cls-4" d="m42.71,41.82c3.04,1.73,3.07,4.57.08,6.33-3,1.77-7.9,1.8-10.94.07-3.04-1.73-3.07-4.57-.08-6.34,3-1.77,7.9-1.8,10.94-.07Zm-10.07,5.94c2.6,1.48,6.78,1.45,9.34-.06,2.56-1.51,2.53-3.93-.06-5.41-2.6-1.48-6.78-1.45-9.34.06-2.56,1.51-2.53,3.93.06,5.41h0Z"/>
            </g>
          </g>
          <g>
            <path class="cls-5" d="m13.7,35.61c.13-1.48.35-3.6.44-5.14.19-3.18-.07-3.29-.62-3.78-.6-.53-1.51-.59-2.41.21-.98.88-.95,1.68-.89,2.86.25,5.21-.22,5.95.71,6.8.7.64,2.67.2,2.77-.95Z"/>
            <path class="cls-13" d="m13.93,23.61c.63.67.61,1.68.57,2.59-.23,5.09-.08,4.74-.63,4.97-1.05.43-2.65.31-3.67-.18-.35-.17-.14-4.04.26-5.57.7-2.72,2.43-2.95,3.48-1.81Z"/>
            <path class="cls-5" d="m21.9,39.04c-.22-.16-.41-.35-.47-.6-.09-.36.16-.62.47-.74,1.34-.52.88-1.24.32-1.11-.6.14-1.12.41-2.35.65-.45.09-.62.31-1.14.19-.36-.09-.93-.25-1.75-.74-.67-.39-2.7-1.93-3.38-2.21-.63-.26-1.81-.6-2.33-.17-1.18.96-.29,2.28-.29,2.28,1.28.85,7.43,2.77,7.64,2.86,1.43.65,1.53,1.01,1.94,1.31.41.3.69.79,1.88.84.29.01.64.04.93-.03.24-.06.51-.25.7-.4.09-.07.17-.15.23-.24.19-.29.13-.44-.16-.6-.61-.33-1.21-.67-1.81-1.02-.13-.08-.28-.17-.42-.27Z"/>
          </g>
          <path class="cls-5" d="m26.54,37.45s-.02,0-.03,0c-.05.02-.1.08-.13.11-.25.23-.39.55-.37.9.01.25.07.5.03.75-.04.26-.3.76,0,1.01.17.14.46-.18.53-.47.03-.13.04-.26.05-.39,0-.09,0-.23.04-.32.04-.09.16-.16.23-.22.09-.09.17-.18.23-.29.12-.21.17-.47.06-.68-.09-.17-.26-.28-.43-.35-.07-.03-.14-.07-.21-.06Z"/>
        </g>
      </g>
    </g>
  </g>
</svg>