<?xml version="1.0" encoding="UTF-8"?>
<svg id="_レイヤー_2" data-name="レイヤー 2" xmlns="http://www.w3.org/2000/svg" viewBox="0 0 79.8 119.58">
  <defs>
    <style>
      .cls-1 {
        fill: #fff;
      }

      .cls-2 {
        fill: #333;
      }

      .cls-3 {
        fill: #77c1e9;
      }
    </style>
  </defs>
  <g id="_01" data-name="01">
    <g>
      <path class="cls-1" d="m65.31,29.69c-1.32-.93-3.31-.93-4.47.2-.69-.26-1.58-.52-2.27-.78-2.63-.7-5.62-4.75-6.81-7.09-.95-1.9-1.79-3.86-2.51-5.85-2.96,3.66-7.52,6.55-12.47,8.23-.24.08-.49-.05-.57-.29-.02-.07-.03-.14-.02-.22.22-1.33.36-2.6.45-3.92-1.16,1.08-2.36,2.19-3.58,3.28-2.12,1.9-4.29,3.77-6.36,5.38-.53.37-1.12.84-1.58,1.18.02.78.08,1.85.23,3.13.22,2.24.68,4.46,1.37,6.6.73,2.37,1.86,4.59,3.32,6.59,1.17,1.68,2.64,3.13,4.35,4.26.77.49,1.58.91,2.42,1.26-.05.23-.11.46-.15.62-.42,1.41-1.13,2.72-2.09,3.84-.19.22-.36.43-.55.62-.19.19-.4.37-.62.52-1.15.79-2.06,1.04-3.01,1.5,2.06,2.72,6.26,4.31,9.26,4.61,8.62.86,16.13-1.25,23.27-4.38-2.01-1.1-5.64-3.18-6.48-4.88-.81-1.63-1.37-3.38-1.66-5.17.44-.37.83-.71,1.16-1.02,1.82-1.65,3.36-3.58,4.57-5.72,1.97-.8,3.69-2.12,4.98-3.82,1-1.28,1.6-2.84,1.72-4.46.1-1.64-.62-3.23-1.92-4.24Z"/>
      <path class="cls-1" d="m7.32,91c-1.04.63-1.85,1.58-2.29,2.7.16,2.48,3.39,10.53,4.41,13,.73,1.73,1.7,3.35,2.87,4.81,1.09,1.29,2.71,2.28,4.44,2.25,2.52-.04,5.97-2.97,6.7-5.26l.33-1.04c-.26,3.57-.83,8.16-1.33,11.1h45.35l2.63-.47c3.38-.6,5.95-5.05,6.28-6.22,2.04-7.31,2.13-13.76,2.03-21.75-.06-1.91-.14-3.81-.21-5.71-.2-5.04-.59-11.11-2.99-15.55-2.23-4.12-8.48-8.29-12.1-10.09-7.3,3.25-14.95,5.48-23.78,4.6-3.12-.31-7.55-2.02-9.5-4.96-2.85,1.33-7.47,3.27-10.03,6.2l-12.79,26.37Z"/>
      <path class="cls-1" d="m43.76,76.01c-.46-.76-.94-1.52-1.44-2.25-.46-.75-1.03-1.42-1.69-2.01-.66-.47-1.36-.87-2.11-1.19-3.13-1.6-6.61-3.19-9.52-4.36-1.42-.57-2.56-1.05-3.7-.79-.65.16-1.14.69-1.25,1.34-.02.58.25,1.13.72,1.46.46.38.96.7,1.49.97,1.99,1.08,4.97,2.64,6.92,3.88-1.29.96-2.54,1.97-3.73,3.05-.61.54-1.19,1.12-1.26,1.94-.1,1.05.36,1.82,1.53,2.51l.78.46c-.19.49-.14,1.05.13,1.5.42.69,1.12,1.13,2.47,1.23-.04.68.15,1.35.54,1.92,1.2,1.86,2.67,3.06,4.87,3.07.26.01.51-.05.74-.17.15.08.23.13.23.13.61.34,1.25.7,1.62.88.31.13.61.31.87.52.23.25.42.52.58.82.75,1.27,1.5,1.94,2.5,3.01l.21.18c.25-.21.44-.4.59-.54,1.28-1.17,2.46-2.46,3.52-3.83.67-.84,1.27-1.73,1.81-2.66l-.25-.11c-1.22-.6-1.79-1.26-2.58-2.38-.99-1.41-1.67-3.02-2.43-4.58-.66-1.36-1.38-2.69-2.15-3.98Z"/>
      <path class="cls-1" d="m11.83,92.72c-.87.29-1.79.38-2.69.26-.42-.04-.82-.2-1.15-.48-.49-.49-.46-1.27-.49-1.97-.13-3.51-2.3-5.49-4.21-8.44-.38-.75-1.86-2.39-2.21-4.14-.08-1.3-.05-2.6.1-3.89.02-.7.13-1.4.32-2.08.19-.44.42-.86.68-1.26,1.59-2.42,3.39-4.68,5.4-6.77.48-.48,1.12-.76,1.8-.78.75.05,1.34.66,1.36,1.41-.04.56-.22,1.1-.53,1.57-1.65,2.43-3.35,5.01-4.88,7.17,2.81-1.76,6.48-3.92,9.48-5.7.96-.57,1.76-1.04,2.86-.86.6.11,1.09.53,1.29,1.1.51,1.76-1.19,2.07-1.31,2.41,1.54-.41,2.39-.02,2.72,1.07.19.75-.07,1.54-.66,2.03l-2.32,1.83.53-.11c.79-.17,1.3-.08,1.68.64.31.65.21,1.42-.25,1.97-.95,1.29-2.44,2.62-3.84,3.86,1.17,3.09,1.24,4.84.7,7.72-.04.35-.16.68-.36.96-1.11,1.15-2.49,2-4.01,2.48Z"/>
      <path class="cls-3" d="m22.1,53.34c.18,2.06,1.21,4.54,4.06,6.5,0,0,.2.07.57.19,1.24-.62,2.43-1.15,3.41-1.61.08.12.17.23.25.34.95-.46,1.86-.71,3.01-1.5.22-.15.43-.33.62-.52.19-.19.36-.4.55-.62.96-1.12,1.67-2.43,2.09-3.84.04-.17.1-.4.15-.62-.84-.35-1.65-.77-2.42-1.26-1.7-1.14-3.18-2.58-4.35-4.26-1.47-2-2.59-4.22-3.32-6.59-.7-2.14-1.16-4.36-1.37-6.6-.15-1.28-.21-2.35-.23-3.13.46-.34,1.05-.81,1.58-1.18,2.07-1.62,4.24-3.48,6.36-5.38,1.22-1.09,2.42-2.2,3.58-3.28-.09,1.32-.23,2.59-.45,3.92-.04.25.12.48.37.52.07.01.15,0,.22-.02,4.95-1.68,9.51-4.58,12.47-8.23.72,2,1.56,3.95,2.51,5.85,1.19,2.34,4.18,6.39,6.81,7.09.69.26,1.58.52,2.27.78,1.16-1.13,3.15-1.13,4.47-.2,1.3,1.01,2.02,2.6,1.92,4.24-.12,1.62-.72,3.18-1.72,4.46-1.29,1.7-3.01,3.01-4.98,3.82-1.21,2.14-2.75,4.07-4.57,5.72-.33.3-.72.65-1.16,1.02.29,1.8.85,3.54,1.66,5.17.84,1.7,4.47,3.77,6.48,4.87.17-.07.34-.15.51-.22.56.28,1.19.62,1.85,1.01,1.04-.33,1.64-.54,1.64-.54,4.45-1.65,4.52-4.45,4.56-6.08.05-2-.24-4-.88-5.9-.79-2.61-2.23-7.91-2.05-17.28h0c.33-2.7.21-6.63.15-8.14-.21-5.24-2.43-11.15-5.78-14.52-.03-.03-.07-.07-.11-.1-.87-.77-1.78-1.48-2.74-2.14-.06-.05-.13-.09-.2-.14-1.33-.89-2.76-1.61-4.26-2.16-3.08-1.21-6.37-1.81-9.68-1.77-5.48-.07-10.8,1.84-14.98,5.38-5.53,4.88-8.85,11.68-8,22.77,1.2,8.33-1.46,17.31-.84,24.18Z"/>
      <path class="cls-3" d="m25.09,75.82c-1.65-5.08-5.27-16.42-6.85-21.44-.36-1.15-1.57-1.81-2.73-1.49-3.2.88-8.02,2.2-11.35,3.15-1.19.34-1.88,1.58-1.55,2.77,0,0,0,.02,0,.03.6,2.03,1.32,4.35,2.06,6.53l.44,1.35c.74-.9,1.53-1.79,2.45-2.78.48-.48,1.12-.76,1.8-.78.75.05,1.34.66,1.36,1.41-.04.56-.22,1.1-.53,1.57-1.18,1.75-2.39,3.57-3.55,5.26l.3.91c2.51-1.54,5.4-3.24,7.85-4.69.96-.57,1.76-1.04,2.86-.86.6.11,1.09.53,1.29,1.1.51,1.76-1.19,2.07-1.31,2.41,1.54-.41,2.39-.02,2.72,1.07.19.75-.07,1.54-.66,2.03l-2.32,1.83.53-.11c.79-.17,1.3-.08,1.68.64.31.65.21,1.42-.25,1.97-1.06,1.31-2.25,2.52-3.55,3.6l.13-.04c1.12-.37,5.21-1.73,7.77-2.63,1.15-.4,1.77-1.65,1.4-2.81Z"/>
      <path class="cls-2" d="m53.86,49.6c.26,1.38.68,2.73,1.23,4.02.38.98.97,1.86,1.73,2.57,1.64,1.5,3.64,2.63,5.58,3.69,1.15.63,2.18-1.13,1.03-1.76-1.75-.96-3.58-1.95-5.08-3.29-.16-.15-.32-.3-.48-.46-.08-.08-.15-.16-.22-.25-.22-.25.08.13-.1-.12-.27-.41-.49-.84-.66-1.3-.49-1.18-.85-2.4-1.08-3.65-.15-.54-.71-.86-1.25-.71-.53.16-.85.71-.71,1.25h0Z"/>
      <path class="cls-2" d="m31.44,59.41c1.38-.59,2.69-1.21,3.7-2.37,1.08-1.22,1.91-2.65,2.43-4.2.14-.54-.17-1.1-.71-1.25-.54-.14-1.09.18-1.25.71-.05.16-.11.32-.17.48,0,0-.12.3-.05.14-.03.08-.07.16-.11.24-.15.33-.32.65-.51.96-.18.3-.37.58-.57.86-.01.02-.16.22-.11.14s-.1.12-.11.14c-.11.14-.23.28-.35.41-.2.24-.42.47-.66.67h0s-.09.06-.09.06c-.1.06-.19.13-.29.19-.15.09-.3.18-.46.27-.56.3-1.14.56-1.74.8-.48.28-.65.91-.37,1.39.29.47.91.63,1.39.37h0Z"/>
      <path class="cls-2" d="m61.56,30.61c.89-.82,2.35-.73,3.27,0,1.1.86,1.5,2.39,1.34,3.73-.39,3.3-3.29,5.74-6.15,6.99-.48.29-.65.91-.37,1.39.29.47.91.63,1.39.37,3.01-1.31,5.58-3.66,6.72-6.78,1.08-2.95.2-6.8-2.98-8.01-1.6-.61-3.41-.27-4.68.88-.96.89.48,2.33,1.44,1.44h0Z"/>
      <path class="cls-2" d="m24.11,29.9c.09,3.82.79,7.6,2.08,11.19,1.32,3.53,3.49,6.98,6.48,9.33,5.88,4.61,14.52,4.84,20.76.8,3.29-2.16,6.02-5.08,7.97-8.5.65-1.14-1.11-2.17-1.76-1.03-1.58,2.76-3.7,5.16-6.24,7.07-5.39,4.09-12.74,4.41-18.46.8-2.93-1.89-5.11-4.99-6.46-8.17-1.47-3.65-2.26-7.55-2.34-11.49-.05-1.31-2.08-1.31-2.04,0h0Z"/>
      <path class="cls-2" d="m60.59,4.21c-2.48-1.77-5.55-2.9-8.51-3.56-3.32-.73-6.75-.85-10.12-.34-5.28.8-10.13,3.39-13.74,7.34-3.5,3.84-5.48,8.61-6.15,13.74-.19,1.53-.28,3.06-.27,4.6,0,1.74.22,3.44.35,5.17.26,3.52-.04,7.06-.41,10.56-.34,3.26-.79,6.53-.74,9.81-.03,1.34.14,2.67.52,3.95.46,1.34,1.2,2.57,2.18,3.6.6.62,1.25,1.17,1.96,1.65.49.28,1.11.12,1.39-.37.27-.49.11-1.1-.37-1.39-1.15-.78-2.1-1.82-2.77-3.03-.5-.97-.78-2.04-.83-3.13-.2-3.05.15-6.11.48-9.14.44-3.36.68-6.74.72-10.13-.02-1.69-.25-3.34-.36-5.02-.1-1.55-.11-3.1-.04-4.65.25-4.83,1.67-9.61,4.64-13.43,2.87-3.73,6.89-6.41,11.44-7.62,5.87-1.53,12.1-.85,17.51,1.91.72.37,1.42.79,2.08,1.25.49.28,1.11.12,1.39-.37.27-.49.11-1.1-.37-1.39h0Z"/>
      <path class="cls-2" d="m67.19,60.22c2.16-.82,4.11-2.12,4.91-4.38.65-1.82.46-4.07.18-5.92-.28-1.79-.91-3.5-1.34-5.26-.43-1.75-.75-3.52-.96-5.3-.35-3.11-.49-6.25-.41-9.38l-.75.98h0c.43-.14.73-.53.75-.98.32-2.98.36-5.98.1-8.96-.27-3.5-1.25-6.91-2.88-10.02-.83-1.67-1.93-3.19-3.26-4.5-.96-.89-2.4.55-1.44,1.44,2.25,2.1,3.67,5.16,4.56,8.06.86,2.82,1.07,5.66,1.1,8.59.04,1.8-.03,3.6-.22,5.39l.75-.98h0c-.43.13-.74.53-.75.98-.15,4.76.25,9.53,1.2,14.19.29,1.33.68,2.63,1.05,3.94.39,1.33.62,2.7.67,4.08.01.46,0,.92-.01,1.39,0,.12-.01.25-.02.37,0,.08-.01.16-.02.23-.03.29.01-.04-.02.14-.09.73-.37,1.41-.81,1.99-.79.9-1.8,1.57-2.93,1.95-.53.16-.84.71-.71,1.25.15.54.71.86,1.25.71h0Z"/>
      <path class="cls-2" d="m48.3,16.56c.94,2.61,2.01,5.32,3.56,7.63,1.45,2.15,3.34,4.51,5.74,5.63.49.27,1.1.11,1.39-.37.28-.49.12-1.11-.37-1.39-2.14-1-3.82-3.09-5.09-5.01-1.42-2.14-2.41-4.62-3.28-7.03-.16-.53-.71-.85-1.25-.71-.54.15-.86.71-.71,1.25h0Z"/>
      <path class="cls-2" d="m48.52,15.45c-1.53,1.85-3.33,3.45-5.35,4.74-1.04.67-2.13,1.28-3.25,1.82-.57.27-1.14.54-1.73.77-.58.28-1.2.5-1.82.65h.54c.18.57.29.71.31.41.01-.07.02-.14.03-.21.03-.17.05-.34.07-.52.05-.36.1-.73.14-1.09.08-.68.14-1.37.19-2.06.07-.92-1.13-1.28-1.74-.72-3.39,3.24-6.95,6.31-10.65,9.2-.47.29-.63.91-.37,1.39.29.48.91.65,1.39.37,3.85-2.98,7.54-6.16,11.07-9.52l-1.74-.72c-.08,1.08-.18,2.16-.34,3.23-.14.48-.12,1,.07,1.47.26.47.75.76,1.29.77.44-.05.86-.17,1.26-.36.45-.17.9-.35,1.34-.53.85-.36,1.69-.74,2.51-1.17,3.15-1.59,5.94-3.79,8.21-6.48.38-.4.38-1.04,0-1.44-.4-.39-1.04-.39-1.44,0h0Z"/>
      <path class="cls-2" d="m6.81,90.12c-.68.42-1.29.96-1.79,1.59-.45.57-1.03,1.37-1,2.12.09.93.29,1.85.6,2.73.7,2.36,1.57,4.67,2.46,6.97.85,2.18,1.66,4.41,2.88,6.42.79,1.43,1.87,2.68,3.17,3.67,1.31.95,2.95,1.33,4.55,1.06,1.53-.29,2.94-1.21,4.1-2.22,1.19-.97,2.11-2.24,2.66-3.68.42-1.24-1.55-1.78-1.96-.54-.4.95-1.02,1.8-1.8,2.48-.83.82-1.82,1.44-2.92,1.84-2.6.84-4.66-1.41-5.95-3.48-1.02-1.77-1.88-3.63-2.57-5.56-.81-2.07-1.6-4.16-2.29-6.28-.33-.96-.6-1.94-.82-2.93-.02-.11-.04-.22-.06-.32,0-.04-.01-.08-.02-.11-.02-.14.05.18,0,.06-.06-.18.06-.15-.03,0,.1-.15.17-.34.27-.5.38-.63.91-1.15,1.54-1.54,1.11-.7.08-2.46-1.03-1.76h0Z"/>
      <path class="cls-2" d="m60.14,86.08c-.06,2.56-.05,5.12-.11,7.68,0,.56.45,1.02,1.02,1.02.56,0,1.02-.45,1.02-1.02h0c.06-2.56.05-5.12.11-7.68,0-.56-.46-1.02-1.02-1.02-.56,0-1.01.46-1.02,1.02Z"/>
      <path class="cls-2" d="m20.64,84.61c-.55,1.34-.88,2.75-.99,4.19-.01,1.45.22,2.9.69,4.28.84,2.54,1.56,5.13,2.14,7.74.13.65.25,1.3.36,1.95.09.55.01-.13.04.29,0,.15.02.29.03.43.03.73,0,1.46-.03,2.19-.09,2.01-.28,4.01-.5,6.01-.24,2.21-.53,4.41-.9,6.61-.13.54.18,1.09.71,1.25.54.14,1.1-.17,1.25-.71.7-4.07,1.17-8.18,1.43-12.3.14-1.5.11-3.01-.1-4.51-.44-2.62-1.08-5.21-1.89-7.73-.49-1.47-1.06-2.97-1.18-4.52-.12-1.61.34-3.12.9-4.62.14-.54-.17-1.1-.71-1.25-.54-.14-1.09.18-1.25.71h0Z"/>
      <path class="cls-2" d="m77.5,84.42c.26,6.64.53,13.36-.31,19.97-.2,1.55-.47,3.09-.82,4.62-.17.78-.37,1.55-.58,2.32-.05.18-.1.36-.16.54-.06.17.08-.17,0,0-.04.08-.08.17-.12.25-.86,1.75-2.18,3.49-3.9,4.46-1.02.58-2.26.7-3.43.75-1.26.07-2.53-.07-3.75-.39-2.52-.69-4.66-2.25-6.55-4.01-3.13-3.01-6.1-6.19-8.91-9.51-1.39-1.6-2.75-3.21-4.07-4.87-.14-.17-.27-.35-.41-.52-.03-.04-.17-.23-.08-.1-.07-.08-.13-.17-.2-.25-.22-.29-.43-.57-.64-.86-.17-.23-.33-.47-.48-.71-.04-.06-.15-.24-.14-.22-.02-.22,0-.45.08-.66.23-.56.54-1.09.92-1.56.28-.49.12-1.11-.37-1.39-.49-.27-1.1-.11-1.39.37-.83,1.15-1.78,2.77-1.04,4.21.31.53.65,1.03,1.04,1.51,1.21,1.63,2.51,3.19,3.82,4.74,3.04,3.6,6.19,7.14,9.55,10.44,1.85,1.81,3.85,3.54,6.23,4.6,2.72,1.18,5.73,1.52,8.65.98,2.54-.42,4.49-2.37,5.89-4.41.52-.73.95-1.53,1.27-2.37.47-1.45.82-2.93,1.06-4.44,1.29-6.79,1.23-13.78.97-20.65-.04-.95-.07-1.89-.11-2.84-.05-1.31-2.09-1.31-2.04,0h0Z"/>
      <path class="cls-2" d="m21.88,64.3c2.54-2.24,5.75-3.58,8.78-4.99l-1.39-.37c2.43,3.58,7.03,5.2,11.17,5.53,5.24.37,10.51-.24,15.52-1.79,2.72-.84,5.38-1.85,7.98-3.02h-1.03c3.42,1.68,6.55,3.89,9.27,6.56,1.34,1.3,2.4,2.84,3.13,4.56.8,2.04,1.34,4.17,1.62,6.35.32,2.42.51,4.85.57,7.29.05,1.31,2.09,1.31,2.04,0-.18-4.62-.44-9.43-2.11-13.79-.74-1.96-1.85-3.75-3.27-5.28-1.5-1.57-3.16-2.99-4.95-4.23-1.56-1.12-3.2-2.13-4.91-3.02-.23-.14-.48-.25-.74-.31-.35,0-.69.09-.98.27-.58.25-1.16.5-1.74.74-1.11.45-2.23.88-3.36,1.27-4.59,1.64-9.43,2.49-14.31,2.5-2.44-.02-4.74-.21-7.04-1.06-1.93-.71-3.92-1.85-5.1-3.58-.3-.47-.91-.63-1.39-.37-3.21,1.5-6.5,2.94-9.19,5.31-.99.87.46,2.3,1.44,1.44h0Z"/>
      <path class="cls-2" d="m38.97,89.55c.56.31,1.13.64,1.71.92.15.07.3.15.45.24.06.04.17.12.06.03.07.06.13.13.19.19-.1-.11-.01-.01.03.05s.08.13.12.2c.09.15.17.3.27.45.75,1.08,1.59,2.09,2.53,3.01.4.39,1.04.39,1.44,0,.39-.4.39-1.04,0-1.44-.45-.48-.91-.94-1.35-1.43-.09-.1-.18-.21-.27-.32-.05-.07-.11-.13-.16-.2.09.11.03.03-.02-.04-.2-.28-.39-.56-.57-.86-.18-.33-.4-.64-.65-.93-.28-.28-.61-.5-.97-.67-.61-.3-1.2-.63-1.79-.96-.49-.28-1.11-.12-1.39.37-.28.49-.12,1.11.37,1.39h0Z"/>
      <path class="cls-2" d="m33.37,71.95c-1.24-.76-2.51-1.46-3.78-2.16-1.21-.66-2.49-1.25-3.65-2-.32-.21-1.04-.63-.81-1.09.21-.41.77-.4,1.16-.35.75.14,1.47.37,2.16.7.7.28,1.41.57,2.1.87,1.48.63,2.94,1.3,4.39,1.99,1.47.7,2.98,1.38,4.4,2.19,1.32.75,2.11,2.13,2.9,3.38.87,1.37,1.67,2.78,2.4,4.23,1.47,2.9,2.66,6.55,5.76,8.11,1.17.59,2.2-1.17,1.03-1.76-1.3-.65-2.11-1.74-2.83-2.98-.9-1.53-1.56-3.17-2.38-4.74-.82-1.59-1.72-3.13-2.7-4.62-.46-.74-.98-1.44-1.54-2.09-.6-.64-1.31-1.16-2.11-1.54-3.16-1.6-6.36-3.12-9.63-4.48-1.53-.64-3.2-1.49-4.9-1.24-1.7.25-2.87,2.1-2,3.69.45.82,1.3,1.38,2.1,1.82.73.4,1.46.79,2.2,1.18,1.58.85,3.16,1.71,4.7,2.65,1.12.69,2.14-1.07,1.03-1.76h0Z"/>
      <path class="cls-2" d="m32.82,72.07c-.95.7-1.88,1.43-2.78,2.19-.85.63-1.62,1.37-2.28,2.19-.57.81-.74,1.84-.45,2.79.35.94,1.03,1.72,1.91,2.18,1.12.68,2.15-1.08,1.03-1.76-.29-.16-.55-.37-.77-.61-.12-.13,0,.02-.05-.06-.04-.07-.08-.13-.12-.2-.05-.08-.04-.1,0,0-.03-.09-.05-.17-.07-.26s-.01-.1,0,0c0-.08,0-.16,0-.24,0-.08,0-.17.01-.25-.02.12.03-.08.04-.12.02-.08-.03.02.05-.11.04-.08.09-.16.14-.24.08-.11.18-.21.27-.31,1.28-1.25,2.66-2.4,4.13-3.43.47-.29.63-.91.37-1.39-.29-.48-.91-.64-1.39-.37h0Z"/>
      <path class="cls-2" d="m34.81,75.46c-1.01.58-1.96,1.27-2.82,2.04-.42.37-.81.77-1.19,1.19-.41.42-.76.89-1.04,1.4-.26.53-.39,1.11-.38,1.7.05.63.3,1.22.72,1.69.69.84,1.74,1.12,2.77,1.24.56,0,1.02-.46,1.02-1.02-.01-.56-.46-1.01-1.02-1.02-.06,0-.34-.06-.48-.1-.1-.03-.2-.06-.29-.09-.11-.04.1.06-.06-.03-.07-.05-.15-.09-.23-.13-.16-.1.05.06-.03-.02-.05-.05-.1-.09-.15-.14-.04-.04-.16-.23-.04-.05-.08-.11-.15-.23-.19-.36-.03-.11,0,.12,0-.07,0-.26-.05.14.01-.14.05-.33.18-.64.38-.91,1.11-1.4,2.48-2.56,4.03-3.43.49-.28.65-.91.37-1.39-.28-.49-.91-.65-1.39-.37h0Z"/>
      <path class="cls-2" d="m36.99,78.23l-2.15,1.87c-.68.53-1.33,1.12-1.93,1.74-1.23,1.43-.92,3.22.1,4.68.74,1.15,1.78,2.08,3.01,2.68,1.33.58,3.35.97,4.37-.34.54-.75.61-1.75.18-2.57-.2-.38-.47-.72-.79-1.01-.17-.16-.34-.32-.51-.48-.06-.05-.11-.11-.17-.17s-.11-.12-.16-.18c-.08-.1-.08-.08,0,.06l-.14.51c.13-.15.28-.28.44-.39l.55-.48c.4-.4.4-1.04,0-1.44s-1.04-.4-1.44,0h0c-.61.53-1.48,1.05-1.46,1.96.02.81.79,1.43,1.33,1.94.23.22.82.76.56,1.04-.1.1-.75.03-.99-.01-1-.2-1.91-.74-2.55-1.53-.6-.68-1.6-1.92-.9-2.83.59-.64,1.23-1.22,1.93-1.74l2.15-1.87c.4-.39.41-1.04.01-1.44-.39-.4-1.04-.41-1.44-.01,0,0,0,0-.01.01h0Z"/>
      <path class="cls-2" d="m66.89,98.69c-3.42-3.3-6.58-6.85-9.9-10.25-.69-.7-1.38-1.4-2.1-2.07-.32-.3-.65-.6-.98-.88-.35-.38-.78-.68-1.27-.87-.6-.16-1.24.07-1.6.58-.34.51-.56,1.11-.89,1.63-.64,1.03-1.35,2.01-2.13,2.93-.88,1.05-1.83,2.04-2.84,2.97-.8.79-1.79,1.38-2.87,1.7-1.26.35-.72,2.32.54,1.96,2.3-.64,4-2.3,5.57-4.02.85-.93,1.65-1.9,2.39-2.92.38-.52.75-1.05,1.09-1.6.32-.52.55-1.13.89-1.63l-.37.37c-.2.15-.68-.27-.26.08.1.08.2.17.3.25.24.21.48.42.72.64.52.47,1.02.96,1.51,1.45,1.13,1.12,2.22,2.27,3.31,3.43,2.45,2.59,4.87,5.2,7.44,7.68.94.91,2.39-.53,1.44-1.44h0Z"/>
      <path class="cls-2" d="m5.66,65.1c-.4-1.2-.79-2.4-1.17-3.6-.18-.59-.37-1.18-.54-1.76-.21-.49-.34-1.01-.4-1.53,0-.84.69-1.12,1.39-1.32,1.03-.29,2.06-.58,3.1-.87,2.1-.59,4.21-1.17,6.31-1.74.7-.19,1.62-.65,2.32-.3.61.3.71,1.05.9,1.64,2.1,6.65,4.22,13.29,6.36,19.92.22.69.47,1.44-.22,1.96-.38.22-.79.39-1.22.49-.54.19-1.08.37-1.62.55-1.74.59-3.48,1.18-5.22,1.75-1.24.41-.71,2.38.54,1.96,1.69-.56,3.38-1.13,5.07-1.7,1.04-.31,2.07-.67,3.08-1.08,1.05-.5,1.75-1.51,1.86-2.66.09-.87-.28-1.71-.54-2.53-.25-.79-.51-1.59-.77-2.38-.61-1.9-1.22-3.8-1.83-5.7-1.18-3.71-2.36-7.41-3.54-11.12-.28-.88-.51-1.78-1.23-2.42-.87-.77-2.08-1.03-3.2-.7-2.26.6-4.52,1.24-6.77,1.87-1.27.35-2.53.71-3.79,1.06-1.3.37-2.39.94-2.86,2.29-.45,1.32.17,2.68.56,3.93.47,1.52.95,3.03,1.46,4.54.42,1.24,2.39.71,1.96-.54h0Z"/>
      <path class="cls-2" d="m6.92,60.13c.73-.21,1.45-.42,2.18-.63.25-.07.47-.24.61-.47.14-.24.17-.52.1-.78-.07-.26-.24-.47-.47-.61-.24-.14-.52-.17-.78-.1-.73.21-1.45.42-2.18.63-.25.07-.47.24-.61.47-.14.24-.17.52-.1.78.07.26.24.47.47.61.24.14.52.17.78.1h0Z"/>
      <path class="cls-2" d="m6.43,73.81c3.08-1.91,6.19-3.81,9.35-5.59.52-.29,1.24-.68,1.84-.42.21.08.36.28.39.51,0,.06,0,.29,0,.28-.02.08-.09.17-.05.13-.03.04-.29.27-.17.17-.07.05-.15.1-.23.15-.42.27-.86.54-1.28.82-.82.54-1.63,1.09-2.43,1.64-1.86,1.28-3.71,2.59-5.63,3.79-1.11.69-.08,2.46,1.03,1.76,1.95-1.22,3.82-2.54,5.71-3.84.95-.65,1.9-1.3,2.86-1.92.67-.43,1.42-.81,1.86-1.5.49-.83.5-1.87.03-2.71-.55-.9-1.54-1.42-2.58-1.37-1.08.02-2.01.55-2.92,1.08l-2.67,1.58c-2.05,1.22-4.1,2.44-6.13,3.69-1.11.69-.09,2.45,1.03,1.76h0Z"/>
      <path class="cls-2" d="m18.42,71.14c.23-.04.46-.03.68.05-.19-.07.24.18.06.04.14.11,0-.06.09.11.22.37.18.84-.11,1.17.09-.11-.09.08-.11.09-.12.11-.25.2-.37.29-.22.17-.44.34-.66.5-.52.39-1.04.78-1.57,1.16-1.86,1.34-3.76,2.62-5.6,3.99-.47.29-.63.91-.37,1.39.29.48.91.65,1.39.37,1.66-1.24,3.38-2.4,5.06-3.61,1-.72,2-1.45,2.97-2.21.45-.31.84-.7,1.13-1.16.37-.64.49-1.39.34-2.11-.29-1.37-1.57-2.28-2.96-2.12-.56.01-1.01.46-1.02,1.02,0,.56.46,1.01,1.02,1.02h0Z"/>
      <path class="cls-2" d="m18.18,76.06s.34-.04.13-.03c.09,0,.18,0,.27,0-.13,0-.11-.03.01.01.07.02.05.01-.06-.03.08.05.09.05.03,0-.05-.11.06.06.08.09-.12-.14.05.11.06.13.03.08.05.16.07.24-.01-.13-.02.16,0,.04.01-.1-.03.15-.04.17-.02.07-.12.26-.03.1-.06.12-.13.24-.21.35-.22.29-.45.57-.7.84-1.32,1.44-2.84,2.68-4.28,3.99-.39.4-.39,1.05.01,1.44.4.39,1.03.39,1.43,0,1.77-1.61,3.68-3.11,5.13-5.02.72-.85.9-2.04.45-3.06-.25-.56-.71-1-1.28-1.22-.52-.15-1.08-.16-1.61-.02-.54.15-.86.71-.71,1.25.16.54.71.85,1.25.71h0Z"/>
      <path class="cls-2" d="m6.51,73.39c1.53-2.2,3.04-4.41,4.52-6.65.64-.96,1.02-2.29.4-3.36-.63-1.06-1.94-1.51-3.09-1.06-1.19.39-1.95,1.39-2.75,2.29-.78.88-1.52,1.78-2.23,2.72-.72.93-1.41,1.89-2.05,2.88-.58.86-.94,1.84-1.05,2.87-.1.85-.16,1.71-.21,2.57-.06,1.15-.1,2.36.32,3.44.43,1,.97,1.95,1.61,2.83.55.79,1.05,1.61,1.62,2.39,1.21,1.67,2.51,3.37,2.83,5.47.16,1.05-.06,2.2.59,3.13.7.99,2.04,1.2,3.17,1.14,1.32-.1,2.6-.48,3.75-1.11.56-.3,1.09-.65,1.59-1.04.53-.36.98-.82,1.33-1.35.29-.67.47-1.39.51-2.12.1-.66.16-1.32.17-1.98,0-1.37-.24-2.73-.67-4.04-.39-1.25-2.36-.71-1.96.54.61,1.9.73,3.92.35,5.87-.02.41-.21.8-.51,1.08-.35.32-.72.61-1.12.86-.76.5-1.59.86-2.46,1.09-.39.1-.8.16-1.2.17-.33,0-.93.02-1.21-.2-.16-.19-.23-.43-.21-.67-.03-.49-.04-.98-.1-1.47-.25-1.93-1.14-3.62-2.24-5.2-.99-1.42-1.98-2.83-2.94-4.27-.48-.71-1.04-1.54-1.17-2.41-.09-.92-.08-1.84.02-2.76.05-.68.08-1.37.18-2.04.12-.83.59-1.51,1.08-2.23,1.11-1.65,2.33-3.22,3.65-4.71.41-.47.82-.95,1.27-1.39.28-.3.67-.48,1.08-.48.76.13.08,1.24-.17,1.61-1.46,2.21-2.95,4.4-4.46,6.57-.28.49-.12,1.11.37,1.39.49.27,1.1.11,1.39-.37h0Z"/>
      <path class="cls-2" d="m39.53,36.93c-.14.35-.26.71-.36,1.07-.18.6-.39,1.36.11,1.88.11.11.24.2.37.27.14.08.29.13.44.17.21.04.42.05.63.04.27,0,.53-.11.72-.3.4-.4.4-1.04,0-1.44-.19-.19-.45-.29-.72-.3-.11,0-.22,0-.33,0l.27.04c-.06,0-.11-.03-.16-.05l.24.1c-.08-.04-.15-.08-.22-.13l.21.16s0,0,0,0l.16.21s0-.01,0-.02l.1.24s0-.03,0-.04l.04.27c0-.05,0-.11,0-.16l-.04.27c.05-.32.14-.64.25-.96.08-.26.17-.53.28-.78.07-.26.04-.55-.1-.78-.28-.49-.91-.65-1.39-.37l-.21.16c-.12.12-.22.28-.26.45h0Z"/>
      <path class="cls-2" d="m31.9,32.45c-.29.9-.16,3,1.49,3.21,2.18.03,2.35-2.5,1.65-3.7-.58-.99-2.34-1.42-3.13.49Z"/>
      <path class="cls-2" d="m50.64,32.53c.27.96.04,3.14-1.77,3.29-2.38-.06-2.45-2.71-1.62-3.93.68-1,2.61-1.39,3.39.65Z"/>
      <path class="cls-2" d="m38.6,45.95c1.01.31,2.07.41,3.12.29,1.17-.09,2.3-.42,3.35-.95.48-.29.64-.91.37-1.39-.29-.48-.91-.64-1.39-.37-.09.05-.19.1-.28.14,0,0-.23.11-.1.05.12-.05-.05.02-.07.03-.22.09-.45.16-.68.22-.24.07-.48.12-.72.16-.06.01-.11.02-.17.03-.02,0-.21.03-.08.01s-.06,0-.08,0c-.07,0-.14.02-.22.02-.46.04-.93.05-1.4.01-.07,0-.13-.01-.2-.02-.18-.02.03.01.04,0-.1,0-.2-.03-.3-.05-.21-.04-.42-.1-.63-.17-.54-.15-1.1.17-1.25.71-.14.54.18,1.09.71,1.25h0Z"/>
    </g>
  </g>
</svg>