<?xml version="1.0" encoding="UTF-8"?>
<svg id="_レイヤー_2" data-name="レイヤー 2" xmlns="http://www.w3.org/2000/svg" viewBox="0 0 127.66 59.58">
  <defs>
    <style>
      .cls-1 {
        fill: #ebeef0;
      }

      .cls-2 {
        fill: #fff;
      }

      .cls-3 {
        fill: #3d3a39;
      }

      .cls-4 {
        fill: #53abe0;
      }
    </style>
  </defs>
  <g id="_01" data-name="01">
    <g>
      <path class="cls-1" d="m127.66,56.44c0,1.74-28.58,3.15-63.83,3.15S0,58.17,0,56.44s28.58-3.15,63.83-3.15,63.83,1.41,63.83,3.15Z"/>
      <g>
        <path class="cls-4" d="m58.61,25.9c-.63-1.82-1.52-3.62-2.39-5.34-1.03-2.04-2.13-4.1-3.65-5.83,1.01-.81.72-2.44.72-3.59v-4.28c0-1.34-.76-2.4-2.2-2.4h-8.03c-.83,0-1.84-.15-2.66.07-1.62.43-1.53,2-1.53,3.31v4.54c0,.98-.01,1.98.99,2.54-1.5,1.78-2.59,3.86-3.63,5.93-.43.85-.82,1.71-1.2,2.58-.54,1.22-1.12,2.45-1.45,3.75-.5,1.94-.33,4.07-.33,6.06v19.53c0,1.59,1.2,2.97,2.85,2.97h20.37c1.59,0,2.9-1.27,2.9-2.87v-19.02c0-1.74.13-3.56-.08-5.3-.11-.9-.33-1.79-.67-2.63ZM40.85,6.52c0-.15,6.58-.07,7.12-.07h3.18c.24,0,.17.23.17.42v6.06s.03.23,0,.26c-.09.09-.68,0-.82,0h-8.38c-.25,0-1.26.15-1.26-.12v-6.55Zm15.66,47.23h-20.36c-.83,0-.93-.68-.93-1.31v-22.38c0-1.89.61-3.5,1.35-5.21,1.03-2.38,2.15-4.75,3.56-6.94.62-.96,1.31-1.97,2.22-2.69.19-.14.61-.05.84-.05h6.28c.34,0,.63-.08.89.14.9.75,1.58,1.77,2.2,2.75.73,1.15,1.36,2.35,1.97,3.56.59,1.17,1.12,2.36,1.63,3.56.61,1.42,1.15,2.8,1.19,4.37h-14.19c-.3,0-.6-.02-.87.14-.43.25-.49.67-.49,1.11v12.04c0,.69-.21,1.88.49,2.3.29.17.62.14.93.14h10.37c.76,0,2.14.25,2.41-.73.4-1.44-1.42-1.25-2.24-1.25h-9.87c-.17,0-.11-.07-.11-.23v-11.32c0-.16-.05-.2.11-.2h13.11c.47,0,.36.05.36.52v20.4c0,.59-.07,1.32-.87,1.32Z"/>
        <g>
          <path class="cls-4" d="m29.97,6.26c0-.55-.44-.99-.99-.99H12.1c-.55,0-.99.44-.99.99v5.2s0,.01,0,.02c0,0,0,.02,0,.02l1.57,34.08v9.15c0,.55.44.99.99.99h13.73c.55,0,.99-.44.99-.99v-9.15l1.57-34.08s0-.02,0-.02c0,0,0-.01,0-.02v-5.2Zm-16.88.99h14.89v3.22h-14.89v-3.22Zm13.36,37.32h-11.84l-1.48-32.12h14.8l-1.48,32.12Zm-.04,9.18h-11.75v-7.2h11.75v7.2Z"/>
          <path class="cls-4" d="m20.5,32.99h.08c2.62,0,4.76-2.13,4.76-4.76v-.08c0-2.62-2.13-4.76-4.76-4.76h-.08c-2.62,0-4.76,2.13-4.76,4.76v.08c0,2.62,2.13,4.76,4.76,4.76Zm-2.77-4.83c0-1.53,1.24-2.77,2.77-2.77h.08c1.53,0,2.77,1.24,2.77,2.77v.08c0,1.53-1.24,2.78-2.77,2.78h-.08c-1.53,0-2.77-1.25-2.77-2.78v-.08Z"/>
          <path class="cls-4" d="m19.5,52.74h2.08c.55,0,.99-.44.99-.99s-.44-.99-.99-.99h-2.08c-.55,0-.99.44-.99.99s.44.99.99.99Z"/>
        </g>
      </g>
      <path class="cls-4" d="m82.29,10.8c-.07-.24-1.9-5.79-10.31-5.79s-10.24,5.55-10.31,5.79c-.04.11-.05.23-.03.35l.09.75h0s4.07,33.5,4.07,33.5c.11.87.53,1.64,1.15,2.18-.21.92-.65,3.27-.25,5.52.21,1.18,1.13,2.14,2.3,2.39.78.17,1.7.24,2.99.24s2.21-.07,2.99-.24c1.17-.25,2.1-1.21,2.3-2.39.4-2.25-.04-4.61-.25-5.52.62-.55,1.04-1.31,1.15-2.18l4.07-33.5h0s0,0,0,0l.09-.75c.01-.12,0-.24-.03-.35Zm-10.31-4.12c5.01,0,7.25,2.19,8.16,3.56-.11-.05-.22-.1-.33-.15-.03-.01-.06-.03-.09-.04-.09-.04-.18-.08-.27-.11-.04-.01-.07-.03-.11-.04-.11-.05-.23-.09-.34-.14-.01,0-.03-.01-.04-.02-.13-.05-.27-.1-.4-.16-.04-.01-.07-.03-.11-.04-.11-.04-.21-.08-.32-.12-.04-.02-.09-.03-.13-.05-.12-.04-.24-.08-.36-.12-.03,0-.06-.02-.09-.03-.15-.05-.3-.1-.46-.15-.04-.01-.07-.02-.11-.03-.12-.04-.24-.07-.37-.11-.05-.01-.1-.03-.15-.04-.12-.03-.25-.07-.37-.1-.04-.01-.08-.02-.13-.03-.16-.04-.33-.08-.5-.12-.03,0-.07-.01-.1-.02-.13-.03-.27-.06-.41-.09-.05-.01-.11-.02-.16-.03-.13-.02-.25-.05-.38-.07-.05,0-.1-.02-.15-.02-.17-.03-.35-.05-.52-.07-.02,0-.05,0-.07,0-.15-.02-.3-.03-.46-.05-.05,0-.11,0-.16-.01-.13-.01-.26-.02-.38-.03-.05,0-.11,0-.16,0-.18,0-.35-.01-.53-.01s-.35,0-.53.01c-.05,0-.11,0-.16,0-.13,0-.26.02-.38.03-.05,0-.11,0-.16.01-.15.01-.3.03-.45.05-.02,0-.05,0-.07,0-.17.02-.35.05-.52.07-.05,0-.1.02-.15.02-.13.02-.26.04-.38.07-.05.01-.11.02-.16.03-.14.03-.27.05-.4.08-.04,0-.07.02-.11.02-.17.04-.33.08-.5.12-.04,0-.08.02-.12.03-.13.03-.25.07-.38.1-.05.01-.1.03-.15.04-.12.04-.25.07-.37.11-.04.01-.07.02-.11.03-.16.05-.31.1-.46.15-.02,0-.04.02-.07.02-.13.04-.25.09-.38.13-.04.02-.09.03-.13.05-.11.04-.21.08-.32.12-.04.01-.07.03-.11.04-.14.05-.27.1-.41.16,0,0,0,0,0,0-.13.05-.26.1-.38.15-.03.01-.06.03-.09.04-.1.04-.19.08-.28.12-.03.01-.06.03-.09.04-.11.05-.22.1-.33.15.92-1.36,3.18-3.55,8.16-3.55Zm2.64,47.17c-.66.14-1.47.2-2.64.2s-1.98-.06-2.64-.2c-.51-.11-.91-.53-1-1.04-.02-.1-.03-.2-.04-.29.79.21,1.96.37,3.69.37s2.9-.17,3.69-.37c-.01.1-.03.2-.04.29-.09.52-.49.93-1.01,1.04Zm1.13-3.12c-.46.18-1.54.48-3.77.48s-3.31-.3-3.77-.48c.03-.94.16-1.8.27-2.37.25.05.5.09.76.09h5.48c.26,0,.51-.03.76-.09.11.57.24,1.43.27,2.37Zm.76-5.54c-.11.9-.88,1.59-1.79,1.59h-5.48c-.91,0-1.68-.68-1.79-1.59l-4-32.93c.98-.49,3.31-1.57,5.88-2.09.01,0,.02,0,.03,0,.21-.04.42-.08.63-.11,0,0,0,0,.01,0,.2-.03.4-.06.6-.08.02,0,.05,0,.07,0,.2-.02.39-.04.59-.05.04,0,.08,0,.11,0,.2-.01.4-.02.59-.02s.39,0,.59.02c.04,0,.08,0,.12,0,.19.01.38.03.57.05.04,0,.07,0,.11.01.18.02.36.04.53.07.02,0,.05,0,.07.01.19.03.38.06.57.1.04,0,.08.02.13.02.19.04.37.08.56.12.02,0,.04.01.06.02.17.04.34.08.51.13.03,0,.07.02.1.03.18.05.35.1.53.15l.11.03c.17.05.33.1.5.16,0,0,.02,0,.03,0,.17.06.33.11.5.17.04.01.07.03.11.04.16.06.31.11.46.17.03.01.06.02.09.03.13.05.26.1.39.15.02,0,.05.02.07.03.14.06.27.11.39.17.03.01.07.03.1.04.12.05.24.11.35.16.02,0,.03.02.05.02.1.05.2.09.29.13.03.01.05.02.08.04.09.04.18.09.27.13.03.01.05.03.08.04.07.03.13.07.19.09.01,0,.02.01.03.02l-4,32.93Z"/>
      <path class="cls-4" d="m112.5,11.75l-.47-.06c-.2-.02-.41-.05-.61-.08v-3.31c0-1.21-.86-2.26-2.04-2.5-.73-.15-1.86-.31-3.31-.37V1.98h4.53c1.7,0,3.09,1.39,3.09,3.13,0,.55.44.97.99.97s.99-.46.99-1.01c0-2.8-2.28-5.07-5.07-5.07h-8.87c-.55,0-.99.44-.99.99s.44.99.99.99h2.35v3.46c-1.45.06-2.58.22-3.31.37-1.18.24-2.04,1.29-2.04,2.5v3.31c-.09.01-.17.02-.26.03-.26.03-.51.06-.76.09-5.47.65-9.6,5.61-9.6,11.53v29.36c0,1.71,1.32,3.09,2.94,3.09h28.05c1.62,0,2.94-1.39,2.94-3.09v-29.36c0-5.89-4.1-10.84-9.54-11.53Zm-11.78-3.44c0-.27.19-.5.45-.56.8-.16,2.13-.35,3.91-.35s3.11.19,3.91.35c.26.05.45.29.45.56v3.86c-.64.39-2.13,1.11-4.36,1.11s-3.73-.71-4.36-1.1v-3.86Zm4.36,40.76h-10.03v-14.62c1.81.85,5.07,1.94,9.04,1.39v3.19c0,.55.44.99.99.99s.99-.44.99-.99v-3.75c5.07-2.4,7.97-2.1,9.04-1.82v15.61h-10.03Zm14.98,3.57c0,.61-.43,1.11-.95,1.11h-28.05c-.53,0-.95-.5-.95-1.11v-29.36c0-4.92,3.38-9.03,7.86-9.57.25-.03.5-.06.76-.09.17-.02.34-.04.52-.06.48.35,2.15,1.43,4.86,1.65v18.62c-5.37.86-9.43-1.84-9.47-1.87-.3-.21-.7-.23-1.02-.06-.33.17-.53.51-.53.88v17.29c0,.55.44.99.99.99h22.04c.55,0,.99-.44.99-.99v-17.29c0-.35-.19-.68-.49-.85-.36-.21-3.57-1.88-10.53,1.18V15.21c2.72-.22,4.39-1.31,4.86-1.66.29.04.57.07.86.11l.46.06c4.45.56,7.81,4.67,7.81,9.56v29.36Z"/>
      <g>
        <rect class="cls-2" x="19.02" y="37.27" width="6.63" height="6.63"/>
        <g>
          <path class="cls-3" d="m21.79,40.99h-1.59c-.06,0-.11.05-.11.11v1.59c0,.06.05.11.11.11h1.59c.06,0,.11-.05.11-.11v-1.59c0-.14-.22-.14-.22,0v1.59l.11-.11h-1.59l.11.11v-1.59l-.11.11h1.59c.14,0,.14-.22,0-.22Z"/>
          <path class="cls-3" d="m21.21,41.67h-.45v.45h.45c0-.18,0-.36,0-.45Z"/>
          <path class="cls-3" d="m21.21,41.56h-.45c-.06,0-.11.05-.11.11v.45c0,.06.05.11.11.11h.45c.06,0,.11-.05.11-.11v-.45c0-.06-.05-.11-.11-.11-.06,0-.11.05-.11.11v.45l.11-.11h-.45l.11.11v-.45l-.11.11h.45c.06,0,.11-.05.11-.11s-.05-.11-.11-.11h0Z"/>
          <path class="cls-3" d="m21.79,38.36h-1.59c-.06,0-.11.05-.11.11v1.59c0,.06.05.11.11.11h1.59c.06,0,.11-.05.11-.11v-1.59c0-.14-.22-.14-.22,0v1.59l.11-.11h-1.59l.11.11v-1.59l-.11.11h1.59c.14,0,.14-.22,0-.22Z"/>
          <path class="cls-3" d="m22.22,38.47v1.59c0,.14.22.14.22,0v-1.59c0-.14-.22-.14-.22,0Z"/>
          <path class="cls-3" d="m21.79,40.46h-1.59c-.14,0-.14.22,0,.22h1.59c.14,0,.14-.22,0-.22Z"/>
          <path class="cls-3" d="m24.42,40.46h-.87c-.14,0-.14.22,0,.22h.87c.14,0,.14-.22,0-.22Z"/>
          <path class="cls-3" d="m22.31,40.68h.77l-.11-.11v.77c0,.06.05.11.11.11h.77l-.11-.11v.77c0,.14.22.14.22,0v-.77c0-.06-.05-.11-.11-.11h-.77l.11.11v-.77c0-.06-.05-.11-.11-.11h-.77c-.14,0-.14.22,0,.22h0Z"/>
          <path class="cls-3" d="m22.23,41.09v1.59c0,.06.05.11.11.11h.53c.14,0,.14-.22,0-.22h-.53l.11.11v-1.59c0-.14-.22-.14-.22,0Z"/>
          <path class="cls-3" d="m23.36,42.8h1.06c.06,0,.11-.05.11-.11v-1.11c0-.14-.22-.14-.22,0v1.11l.11-.11h-1.06c-.14,0-.14.22,0,.22h0Z"/>
          <path class="cls-3" d="m21.21,39.05h-.45v.45h.45v-.45Z"/>
          <path class="cls-3" d="m21.21,38.94h-.45c-.06,0-.11.05-.11.11v.45c0,.06.05.11.11.11h.45c.06,0,.11-.05.11-.11v-.45c0-.06-.05-.11-.11-.11-.06,0-.11.05-.11.11v.45l.11-.11h-.45l.11.11v-.45l-.11.11h.45c.06,0,.11-.05.11-.11s-.05-.11-.11-.11Z"/>
          <path class="cls-3" d="m24.47,38.36h-1.59c-.06,0-.11.05-.11.11v1.59c0,.06.05.11.11.11h1.59c.06,0,.11-.05.11-.11v-1.59c0-.14-.22-.14-.22,0v1.59l.11-.11h-1.59l.11.11v-1.59l-.11.11h1.59c.14,0,.14-.22,0-.22Z"/>
          <path class="cls-3" d="m23.9,39.05h-.45v.45h.45v-.45Z"/>
          <path class="cls-3" d="m23.9,38.94h-.45c-.06,0-.11.05-.11.11v.45c0,.06.05.11.11.11h.45c.06,0,.11-.05.11-.11v-.45c0-.06-.05-.11-.11-.11s-.11.05-.11.11h0v.45l.11-.11h-.45l.11.11v-.45l-.11.11h.45c.06,0,.11-.05.11-.11s-.05-.11-.11-.11Z"/>
          <path class="cls-3" d="m23.33,41.89h-.42v.19h.42v-.19Z"/>
          <path class="cls-3" d="m23.33,41.78h-.42c-.06,0-.11.05-.11.11v.19c0,.06.05.11.11.11h.42c.06,0,.11-.05.11-.11v-.19c0-.06-.05-.11-.11-.11-.06,0-.11.05-.11.11h0v.19l.11-.11h-.42l.11.11v-.19l-.11.11h.42c.06,0,.11-.05.11-.11s-.05-.11-.11-.11h0Z"/>
          <path class="cls-3" d="m23.74,40.58v.25s.01.06.03.08c.04.04.11.04.15,0,.02-.02.03-.05.03-.08v-.25s-.01-.06-.03-.08c-.04-.04-.11-.04-.15,0-.02.02-.03.05-.03.08Z"/>
          <path class="cls-3" d="m24.3,40.58v.52c0,.06.05.11.11.11s.11-.05.11-.11v-.52c0-.06-.05-.11-.11-.11s-.11.05-.11.11h0Z"/>
        </g>
      </g>
      <g>
        <rect class="cls-2" x="36.64" y="46.41" width="6.63" height="6.63"/>
        <g>
          <path class="cls-3" d="m39.41,50.13h-1.59c-.06,0-.11.05-.11.11v1.59c0,.06.05.11.11.11h1.59c.06,0,.11-.05.11-.11v-1.59c0-.14-.22-.14-.22,0v1.59l.11-.11h-1.59l.11.11v-1.59l-.11.11h1.59c.14,0,.14-.22,0-.22Z"/>
          <path class="cls-3" d="m38.84,50.82h-.45v.45h.45c0-.18,0-.36,0-.45Z"/>
          <path class="cls-3" d="m38.84,50.71h-.45c-.06,0-.11.05-.11.11v.45c0,.06.05.11.11.11h.45c.06,0,.11-.05.11-.11v-.45c0-.06-.05-.11-.11-.11-.06,0-.11.05-.11.11v.45l.11-.11h-.45l.11.11v-.45l-.11.11h.45c.06,0,.11-.05.11-.11s-.05-.11-.11-.11h0Z"/>
          <path class="cls-3" d="m39.41,47.51h-1.59c-.06,0-.11.05-.11.11v1.59c0,.06.05.11.11.11h1.59c.06,0,.11-.05.11-.11v-1.59c0-.14-.22-.14-.22,0v1.59l.11-.11h-1.59l.11.11v-1.59l-.11.11h1.59c.14,0,.14-.22,0-.22Z"/>
          <path class="cls-3" d="m39.85,47.62v1.59c0,.14.22.14.22,0v-1.59c0-.14-.22-.14-.22,0Z"/>
          <path class="cls-3" d="m39.41,49.61h-1.59c-.14,0-.14.22,0,.22h1.59c.14,0,.14-.22,0-.22Z"/>
          <path class="cls-3" d="m42.04,49.61h-.87c-.14,0-.14.22,0,.22h.87c.14,0,.14-.22,0-.22Z"/>
          <path class="cls-3" d="m39.93,49.83h.77l-.11-.11v.77c0,.06.05.11.11.11h.77l-.11-.11v.77c0,.14.22.14.22,0v-.77c0-.06-.05-.11-.11-.11h-.77l.11.11v-.77c0-.06-.05-.11-.11-.11h-.77c-.14,0-.14.22,0,.22h0Z"/>
          <path class="cls-3" d="m39.85,50.24v1.59c0,.06.05.11.11.11h.53c.14,0,.14-.22,0-.22h-.53l.11.11v-1.59c0-.14-.22-.14-.22,0Z"/>
          <path class="cls-3" d="m40.99,51.94h1.06c.06,0,.11-.05.11-.11v-1.11c0-.14-.22-.14-.22,0v1.11l.11-.11h-1.06c-.14,0-.14.22,0,.22h0Z"/>
          <path class="cls-3" d="m38.84,48.19h-.45v.45h.45v-.45Z"/>
          <path class="cls-3" d="m38.84,48.09h-.45c-.06,0-.11.05-.11.11v.45c0,.06.05.11.11.11h.45c.06,0,.11-.05.11-.11v-.45c0-.06-.05-.11-.11-.11-.06,0-.11.05-.11.11v.45l.11-.11h-.45l.11.11v-.45l-.11.11h.45c.06,0,.11-.05.11-.11s-.05-.11-.11-.11Z"/>
          <path class="cls-3" d="m42.1,47.51h-1.59c-.06,0-.11.05-.11.11v1.59c0,.06.05.11.11.11h1.59c.06,0,.11-.05.11-.11v-1.59c0-.14-.22-.14-.22,0v1.59l.11-.11h-1.59l.11.11v-1.59l-.11.11h1.59c.14,0,.14-.22,0-.22Z"/>
          <path class="cls-3" d="m41.52,48.19h-.45v.45h.45v-.45Z"/>
          <path class="cls-3" d="m41.52,48.09h-.45c-.06,0-.11.05-.11.11v.45c0,.06.05.11.11.11h.45c.06,0,.11-.05.11-.11v-.45c0-.06-.05-.11-.11-.11s-.11.05-.11.11h0v.45l.11-.11h-.45l.11.11v-.45l-.11.11h.45c.06,0,.11-.05.11-.11s-.05-.11-.11-.11Z"/>
          <path class="cls-3" d="m40.96,51.04h-.42v.19h.42v-.19Z"/>
          <path class="cls-3" d="m40.96,50.93h-.42c-.06,0-.11.05-.11.11v.19c0,.06.05.11.11.11h.42c.06,0,.11-.05.11-.11v-.19c0-.06-.05-.11-.11-.11-.06,0-.11.05-.11.11h0v.19l.11-.11h-.42l.11.11v-.19l-.11.11h.42c.06,0,.11-.05.11-.11s-.05-.11-.11-.11h0Z"/>
          <path class="cls-3" d="m41.37,49.73v.25s.01.06.03.08c.04.04.11.04.15,0,.02-.02.03-.05.03-.08v-.25s-.01-.06-.03-.08c-.04-.04-.11-.04-.15,0-.02.02-.03.05-.03.08Z"/>
          <path class="cls-3" d="m41.93,49.73v.52c0,.06.05.11.11.11s.11-.05.11-.11v-.52c0-.06-.05-.11-.11-.11s-.11.05-.11.11h0Z"/>
        </g>
      </g>
      <g>
        <rect class="cls-2" x="108.04" y="42.17" width="6.63" height="6.63"/>
        <g>
          <path class="cls-3" d="m110.81,45.89h-1.59c-.06,0-.11.05-.11.11v1.59c0,.06.05.11.11.11h1.59c.06,0,.11-.05.11-.11v-1.59c0-.14-.22-.14-.22,0v1.59l.11-.11h-1.59l.11.11v-1.59l-.11.11h1.59c.14,0,.14-.22,0-.22Z"/>
          <path class="cls-3" d="m110.24,46.58h-.45v.45h.45c0-.18,0-.36,0-.45Z"/>
          <path class="cls-3" d="m110.24,46.47h-.45c-.06,0-.11.05-.11.11v.45c0,.06.05.11.11.11h.45c.06,0,.11-.05.11-.11v-.45c0-.06-.05-.11-.11-.11-.06,0-.11.05-.11.11v.45l.11-.11h-.45l.11.11v-.45l-.11.11h.45c.06,0,.11-.05.11-.11s-.05-.11-.11-.11h0Z"/>
          <path class="cls-3" d="m110.81,43.27h-1.59c-.06,0-.11.05-.11.11v1.59c0,.06.05.11.11.11h1.59c.06,0,.11-.05.11-.11v-1.59c0-.14-.22-.14-.22,0v1.59l.11-.11h-1.59l.11.11v-1.59l-.11.11h1.59c.14,0,.14-.22,0-.22Z"/>
          <path class="cls-3" d="m111.25,43.38v1.59c0,.14.22.14.22,0v-1.59c0-.14-.22-.14-.22,0Z"/>
          <path class="cls-3" d="m110.81,45.37h-1.59c-.14,0-.14.22,0,.22h1.59c.14,0,.14-.22,0-.22Z"/>
          <path class="cls-3" d="m113.44,45.37h-.87c-.14,0-.14.22,0,.22h.87c.14,0,.14-.22,0-.22Z"/>
          <path class="cls-3" d="m111.33,45.59h.77l-.11-.11v.77c0,.06.05.11.11.11h.77l-.11-.11v.77c0,.14.22.14.22,0v-.77c0-.06-.05-.11-.11-.11h-.77l.11.11v-.77c0-.06-.05-.11-.11-.11h-.77c-.14,0-.14.22,0,.22h0Z"/>
          <path class="cls-3" d="m111.25,46v1.59c0,.06.05.11.11.11h.53c.14,0,.14-.22,0-.22h-.53l.11.11v-1.59c0-.14-.22-.14-.22,0Z"/>
          <path class="cls-3" d="m112.38,47.7h1.06c.06,0,.11-.05.11-.11v-1.11c0-.14-.22-.14-.22,0v1.11l.11-.11h-1.06c-.14,0-.14.22,0,.22h0Z"/>
          <path class="cls-3" d="m110.24,43.96h-.45v.45h.45v-.45Z"/>
          <path class="cls-3" d="m110.24,43.85h-.45c-.06,0-.11.05-.11.11v.45c0,.06.05.11.11.11h.45c.06,0,.11-.05.11-.11v-.45c0-.06-.05-.11-.11-.11-.06,0-.11.05-.11.11v.45l.11-.11h-.45l.11.11v-.45l-.11.11h.45c.06,0,.11-.05.11-.11s-.05-.11-.11-.11Z"/>
          <path class="cls-3" d="m113.5,43.27h-1.59c-.06,0-.11.05-.11.11v1.59c0,.06.05.11.11.11h1.59c.06,0,.11-.05.11-.11v-1.59c0-.14-.22-.14-.22,0v1.59l.11-.11h-1.59l.11.11v-1.59l-.11.11h1.59c.14,0,.14-.22,0-.22Z"/>
          <path class="cls-3" d="m112.92,43.96h-.45v.45h.45v-.45Z"/>
          <path class="cls-3" d="m112.92,43.85h-.45c-.06,0-.11.05-.11.11v.45c0,.06.05.11.11.11h.45c.06,0,.11-.05.11-.11v-.45c0-.06-.05-.11-.11-.11s-.11.05-.11.11h0v.45l.11-.11h-.45l.11.11v-.45l-.11.11h.45c.06,0,.11-.05.11-.11s-.05-.11-.11-.11Z"/>
          <path class="cls-3" d="m112.36,46.8h-.42v.19h.42v-.19Z"/>
          <path class="cls-3" d="m112.36,46.69h-.42c-.06,0-.11.05-.11.11v.19c0,.06.05.11.11.11h.42c.06,0,.11-.05.11-.11v-.19c0-.06-.05-.11-.11-.11-.06,0-.11.05-.11.11h0v.19l.11-.11h-.42l.11.11v-.19l-.11.11h.42c.06,0,.11-.05.11-.11s-.05-.11-.11-.11h0Z"/>
          <path class="cls-3" d="m112.77,45.49v.25s.01.06.03.08c.04.04.11.04.15,0,.02-.02.03-.05.03-.08v-.25s-.01-.06-.03-.08c-.04-.04-.11-.04-.15,0-.02.02-.03.05-.03.08Z"/>
          <path class="cls-3" d="m113.33,45.49v.52c0,.06.05.11.11.11s.11-.05.11-.11v-.52c0-.06-.05-.11-.11-.11s-.11.05-.11.11h0Z"/>
        </g>
      </g>
      <g>
        <rect class="cls-2" x="72.34" y="12.72" width="6.63" height="6.63"/>
        <g>
          <path class="cls-3" d="m75.11,16.44h-1.59c-.06,0-.11.05-.11.11v1.59c0,.06.05.11.11.11h1.59c.06,0,.11-.05.11-.11v-1.59c0-.14-.22-.14-.22,0v1.59l.11-.11h-1.59l.11.11v-1.59l-.11.11h1.59c.14,0,.14-.22,0-.22Z"/>
          <path class="cls-3" d="m74.54,17.12h-.45v.45h.45c0-.18,0-.36,0-.45Z"/>
          <path class="cls-3" d="m74.54,17.02h-.45c-.06,0-.11.05-.11.11v.45c0,.06.05.11.11.11h.45c.06,0,.11-.05.11-.11v-.45c0-.06-.05-.11-.11-.11-.06,0-.11.05-.11.11v.45l.11-.11h-.45l.11.11v-.45l-.11.11h.45c.06,0,.11-.05.11-.11s-.05-.11-.11-.11h0Z"/>
          <path class="cls-3" d="m75.11,13.82h-1.59c-.06,0-.11.05-.11.11v1.59c0,.06.05.11.11.11h1.59c.06,0,.11-.05.11-.11v-1.59c0-.14-.22-.14-.22,0v1.59l.11-.11h-1.59l.11.11v-1.59l-.11.11h1.59c.14,0,.14-.22,0-.22Z"/>
          <path class="cls-3" d="m75.55,13.93v1.59c0,.14.22.14.22,0v-1.59c0-.14-.22-.14-.22,0Z"/>
          <path class="cls-3" d="m75.11,15.92h-1.59c-.14,0-.14.22,0,.22h1.59c.14,0,.14-.22,0-.22Z"/>
          <path class="cls-3" d="m77.74,15.92h-.87c-.14,0-.14.22,0,.22h.87c.14,0,.14-.22,0-.22Z"/>
          <path class="cls-3" d="m75.63,16.14h.77l-.11-.11v.77c0,.06.05.11.11.11h.77l-.11-.11v.77c0,.14.22.14.22,0v-.77c0-.06-.05-.11-.11-.11h-.77l.11.11v-.77c0-.06-.05-.11-.11-.11h-.77c-.14,0-.14.22,0,.22h0Z"/>
          <path class="cls-3" d="m75.55,16.55v1.59c0,.06.05.11.11.11h.53c.14,0,.14-.22,0-.22h-.53l.11.11v-1.59c0-.14-.22-.14-.22,0Z"/>
          <path class="cls-3" d="m76.68,18.25h1.06c.06,0,.11-.05.11-.11v-1.11c0-.14-.22-.14-.22,0v1.11l.11-.11h-1.06c-.14,0-.14.22,0,.22h0Z"/>
          <path class="cls-3" d="m74.54,14.5h-.45v.45h.45v-.45Z"/>
          <path class="cls-3" d="m74.54,14.39h-.45c-.06,0-.11.05-.11.11v.45c0,.06.05.11.11.11h.45c.06,0,.11-.05.11-.11v-.45c0-.06-.05-.11-.11-.11-.06,0-.11.05-.11.11v.45l.11-.11h-.45l.11.11v-.45l-.11.11h.45c.06,0,.11-.05.11-.11s-.05-.11-.11-.11Z"/>
          <path class="cls-3" d="m77.8,13.82h-1.59c-.06,0-.11.05-.11.11v1.59c0,.06.05.11.11.11h1.59c.06,0,.11-.05.11-.11v-1.59c0-.14-.22-.14-.22,0v1.59l.11-.11h-1.59l.11.11v-1.59l-.11.11h1.59c.14,0,.14-.22,0-.22Z"/>
          <path class="cls-3" d="m77.22,14.5h-.45v.45h.45v-.45Z"/>
          <path class="cls-3" d="m77.22,14.39h-.45c-.06,0-.11.05-.11.11v.45c0,.06.05.11.11.11h.45c.06,0,.11-.05.11-.11v-.45c0-.06-.05-.11-.11-.11s-.11.05-.11.11h0v.45l.11-.11h-.45l.11.11v-.45l-.11.11h.45c.06,0,.11-.05.11-.11s-.05-.11-.11-.11Z"/>
          <path class="cls-3" d="m76.66,17.34h-.42v.19h.42v-.19Z"/>
          <path class="cls-3" d="m76.66,17.24h-.42c-.06,0-.11.05-.11.11v.19c0,.06.05.11.11.11h.42c.06,0,.11-.05.11-.11v-.19c0-.06-.05-.11-.11-.11-.06,0-.11.05-.11.11h0v.19l.11-.11h-.42l.11.11v-.19l-.11.11h.42c.06,0,.11-.05.11-.11s-.05-.11-.11-.11h0Z"/>
          <path class="cls-3" d="m77.07,16.04v.25s.01.06.03.08c.04.04.11.04.15,0,.02-.02.03-.05.03-.08v-.25s-.01-.06-.03-.08c-.04-.04-.11-.04-.15,0-.02.02-.03.05-.03.08Z"/>
          <path class="cls-3" d="m77.63,16.04v.52c0,.06.05.11.11.11s.11-.05.11-.11v-.52c0-.06-.05-.11-.11-.11s-.11.05-.11.11h0Z"/>
        </g>
      </g>
    </g>
  </g>
</svg>