<?xml version="1.0" encoding="utf-8"?>
<!-- Generator: Adobe Illustrator 27.5.0, SVG Export Plug-In . SVG Version: 6.00 Build 0)  -->
<svg version="1.1" id="_レイヤー_2" xmlns="http://www.w3.org/2000/svg" xmlns:xlink="http://www.w3.org/1999/xlink" x="0px"
	 y="0px" viewBox="0 0 100.1 86.9" style="enable-background:new 0 0 100.1 86.9;" xml:space="preserve">
<style type="text/css">
	.st0{fill:#53ABE0;}
	.st1{fill:#2D518A;}
	.st2{fill:#595757;}
</style>
<g id="_01">
	<g>
		<g>
			<path class="st0" d="M25.7,7.3c0,0.2,0,0.4,0,0.6c0,0.2,0,0.5,0,0.7c0.1,0.1,0.1,0.3,0,0.5c0,0.2,0,0.3,0,0.5
				c0,0.1,0.1,0.2,0,0.4c0,0.1,0,0.2-0.1,0.4c-0.1,0.5-0.1,0.9-0.1,1.4c-0.1,0.4-0.2,0.8-0.1,1.2l-0.1,2c0,0.3,0,0.6,0,0.8
				s0,0.5,0.1,0.7l0.3,0.8c0.1,0.3,0.3,0.6,0.6,0.9c0.1,0.1,0.3,0.2,0.5,0.3s0.5,0.2,0.6,0.2c0.4,0.1,0.8,0.1,1.1,0.1
				c0.1,0,0.2,0,0.3,0c0.1,0,0.3,0,0.5,0c0.1,0,0.2,0,0.4-0.1c0.1,0,0.3-0.1,0.5-0.1c0,0,0.1-0.1,0.2-0.2c0.1-0.1,0.2-0.1,0.3-0.2
				c0.2-0.1,0.4-0.2,0.5-0.3s0.3-0.3,0.4-0.4c0.1-0.2,0.2-0.4,0.4-0.6c0.1-0.2,0.2-0.4,0.2-0.6c0.1-0.2,0.2-0.4,0.2-0.7
				c0.1-0.3,0.1-0.5,0.1-0.6c0-0.1,0.1-0.1,0.1-0.1c0,0,0-0.1,0.1-0.1c0,0,0.1,0,0.2,0c0.1,0,0.2,0,0.3,0c0.1,0,0.3,0.1,0.4,0.1
				c0.1,0,0.2,0.1,0.3,0.1c0,0,0.1,0,0.2,0s0.2,0,0.2,0.1c0,0.1,0,0.2,0,0.3s0,0.2,0,0.3c0,0.1,0,0.2,0,0.3c0,0.1,0,0.2,0,0.2
				c0,0.2,0,0.4,0,0.6c0,0.2-0.1,0.4-0.1,0.5c0,0.2-0.1,0.4-0.1,0.6c-0.1,0.2-0.1,0.4-0.2,0.7c0,0.1-0.1,0.1-0.1,0.2
				s-0.1,0.2-0.1,0.2c0,0,0,0.1-0.1,0.2c-0.1,0.1-0.1,0.2-0.2,0.4c-0.1,0.1-0.2,0.2-0.2,0.4C33.1,20,33,20,33,20.1
				c-0.2,0.3-0.3,0.5-0.5,0.6c-0.2,0.1-0.4,0.3-0.6,0.5c0,0-0.1,0.1-0.3,0.1c-0.1,0.1-0.3,0.1-0.4,0.2s-0.3,0.1-0.4,0.2
				c-0.1,0.1-0.2,0.1-0.3,0.1c-0.2,0-0.5,0.1-0.7,0.2s-0.5,0.1-0.7,0.1c-0.2,0-0.4,0-0.5,0c-0.1,0-0.3,0-0.5,0c-0.2,0-0.4,0-0.5,0
				s-0.2,0-0.5,0c-0.2-0.1-0.3-0.1-0.5-0.1c-0.1,0-0.3,0-0.4,0c-0.3,0-0.6-0.1-0.9-0.2s-0.5-0.3-0.8-0.6c-0.1-0.1-0.2-0.2-0.4-0.3
				c-0.2-0.1-0.4-0.3-0.5-0.4s-0.3-0.3-0.5-0.5s-0.2-0.3-0.3-0.4c-0.1-0.3-0.2-0.6-0.4-0.9s-0.2-0.7-0.3-1.1c0-0.1-0.1-0.2-0.1-0.4
				s-0.1-0.3,0-0.4c0-0.1,0-0.3-0.1-0.4c0-0.2-0.1-0.3-0.1-0.4c0-0.3,0-0.6,0-0.9c0-0.3,0.1-0.5,0.2-0.8l0.1-0.7
				c0.1-0.1,0.1-0.3,0.2-0.4c0-0.1,0.1-0.2,0.2-0.4c0.1-0.3,0.2-0.7,0.3-1c0.1-0.3,0.1-0.6,0.2-1c0-0.1,0-0.2,0.1-0.4
				c0.1-0.2,0.1-0.3,0-0.4c0.1-0.4,0.1-0.7,0.2-1.1c0-0.4,0.1-0.7,0-1.1c0-0.3,0-0.5,0-0.8c0-0.2,0-0.5-0.1-0.8
				c-0.1-0.2-0.1-0.3,0-0.3s0.2-0.1,0.2-0.2c0,0,0.1-0.1,0.2-0.1c0.1-0.1,0.2-0.1,0.3-0.2c0.1,0,0.2-0.1,0.3-0.2
				c0.1-0.1,0.2-0.1,0.3-0.2S24.9,5,25,4.9c0.1,0,0.2,0,0.2,0.1l0,0.1c0,0.1,0,0.1,0,0.2c0.1,0.2,0.3,0.4,0.4,0.9S25.7,7,25.7,7.3
				L25.7,7.3z M22.2,3.5c-0.1,0-0.2-0.1-0.3-0.3l-0.2-0.6c0-0.1-0.1-0.2-0.2-0.4c-0.1-0.1-0.1-0.3-0.2-0.4l-0.1-0.3
				c-0.1-0.2-0.1-0.2-0.1-0.3s0-0.1,0-0.1l0.2-0.2c0.2-0.2,0.5-0.3,0.8-0.5c0.2-0.1,0.4-0.2,0.6-0.2c0.2,0,0.4-0.1,0.5-0.1
				c0.1,0,0.2-0.1,0.2-0.1s0.1,0,0.1,0c0.1,0.1,0.1,0.2,0.1,0.3c0,0.1,0.1,0.2,0.1,0.3c0.1,0.2,0.2,0.5,0.3,0.7
				c0.1,0.2,0.2,0.5,0.3,0.7c0,0.1,0.1,0.2,0.1,0.3c0.1,0.1,0.1,0.2,0.1,0.3c0,0.1-0.2,0.2-0.3,0.3C24.2,3,24,3.1,23.8,3.2
				c-0.1,0-0.2,0-0.2,0.1c0,0-0.1,0-0.2,0c0,0-0.1,0-0.3,0.1c-0.2,0-0.3,0.1-0.3,0.1c-0.1,0-0.2,0.1-0.3,0.1
				C22.4,3.6,22.3,3.6,22.2,3.5L22.2,3.5z"/>
			<path class="st0" d="M72.7,20c0.1-0.1,0.2-0.1,0.3-0.2s0.2-0.1,0.3-0.2c0.1-0.1,0.1-0.1,0.2-0.2s0.2-0.1,0.2-0.2
				c0.1-0.1,0.1-0.1,0.2-0.1c0.1,0,0.1,0,0.2-0.1c0.3-0.1,0.5-0.3,0.7-0.4c0.2-0.1,0.5-0.2,0.7-0.4l1.1-0.6c0.2-0.1,0.3-0.2,0.4-0.3
				c0.1-0.1,0.2-0.2,0.3-0.3l0.3-0.4c0.1-0.1,0.1-0.2,0.2-0.3c0-0.1,0.1-0.2,0.1-0.3c0-0.1,0-0.2,0-0.4c0-0.2-0.1-0.3-0.1-0.4
				c-0.1-0.2-0.2-0.4-0.3-0.6c0,0-0.1-0.1-0.1-0.1c0,0-0.1-0.1-0.1-0.1s-0.1-0.1-0.1-0.1c-0.1-0.1-0.1-0.1-0.2-0.2s-0.1-0.1-0.2-0.2
				c0,0-0.1,0-0.2-0.1c-0.1,0-0.2-0.1-0.2-0.1c-0.1-0.1-0.2-0.1-0.3-0.2c-0.1,0-0.2-0.1-0.3,0c-0.2,0-0.3,0-0.4,0
				c-0.1,0-0.3,0-0.4,0.1c-0.1,0-0.3,0.1-0.4,0.1c-0.2,0.1-0.3,0.1-0.3,0.2c-0.1,0-0.1,0-0.1,0c0,0-0.1,0-0.1,0c0,0-0.1-0.1-0.1-0.1
				c0-0.1-0.1-0.1-0.1-0.2c0-0.1-0.1-0.1-0.1-0.2c0-0.1-0.1-0.1-0.1-0.2c0,0,0-0.1-0.1-0.1s-0.1-0.1,0-0.1c0,0,0.1-0.1,0.1-0.1
				s0.1-0.1,0.2-0.1c0.1,0,0.1-0.1,0.1-0.1s0.1-0.1,0.1-0.1c0.1-0.1,0.2-0.1,0.3-0.2s0.2-0.1,0.3-0.1c0.1-0.1,0.2-0.1,0.4-0.1
				c0.1-0.1,0.3-0.1,0.4-0.1c0,0,0.1,0,0.1,0c0.1,0,0.1,0,0.2,0c0,0,0.1,0,0.1,0c0.1,0,0.2,0,0.3,0c0.1,0,0.2,0,0.3,0
				c0.1,0,0.1,0,0.1,0c0.2,0,0.4,0,0.5,0.1c0.2,0,0.3,0.1,0.4,0.1c0,0,0.1,0.1,0.2,0.1s0.2,0.1,0.3,0.1c0.1,0.1,0.2,0.1,0.3,0.1
				c0.1,0.1,0.1,0.1,0.2,0.1c0.1,0.1,0.2,0.2,0.3,0.3c0.1,0.1,0.2,0.2,0.3,0.3c0.1,0.1,0.2,0.2,0.2,0.2c0.1,0.1,0.1,0.2,0.2,0.3
				c0.1,0.1,0.1,0.2,0.2,0.2s0.1,0.1,0.1,0.2c0,0.1,0.1,0.2,0.1,0.3c0,0.1,0.1,0.1,0.1,0.2c0.1,0.1,0.2,0.3,0.2,0.5
				c0,0.2,0,0.4,0,0.6c0,0.1,0,0.2,0,0.3c0,0.1,0,0.3,0,0.4c0,0.1,0,0.3-0.1,0.4S80,17.1,80,17.2c-0.1,0.2-0.2,0.3-0.3,0.5
				s-0.3,0.4-0.4,0.5c0,0.1-0.1,0.1-0.2,0.2c-0.1,0.1-0.1,0.1-0.2,0.2c-0.1,0-0.1,0.1-0.2,0.2s-0.1,0.1-0.2,0.2
				c-0.2,0.1-0.3,0.2-0.5,0.3c-0.2,0.1-0.3,0.1-0.5,0.2l-0.4,0.2c-0.1,0-0.2,0-0.3,0c-0.1,0-0.2,0-0.3,0c-0.2,0-0.4,0.1-0.6,0.2
				c-0.2,0.1-0.4,0.1-0.6,0.2c-0.1,0-0.1,0.1-0.3,0.1c-0.1,0-0.2,0.1-0.2,0.1c-0.2,0.1-0.4,0.2-0.6,0.3c-0.2,0.1-0.4,0.2-0.6,0.4
				c-0.1,0.1-0.2,0.2-0.4,0.3c-0.1,0.1-0.2,0.2-0.4,0.3c-0.1,0.1-0.1,0.1-0.1,0.1c0,0-0.1,0-0.2-0.1c0,0-0.1,0-0.1-0.1
				c-0.1,0-0.1-0.1-0.2-0.1c-0.1,0-0.1-0.1-0.2-0.1c-0.1,0-0.1,0-0.2-0.1c-0.2-0.1-0.3-0.2-0.2-0.3l0.1-0.1c0-0.1,0.1-0.3,0.3-0.5
				S72.7,20.1,72.7,20L72.7,20z M72,23c0,0.1,0,0.1-0.1,0.2l-0.2,0.3c0,0.1-0.1,0.1-0.1,0.2c-0.1,0.1-0.1,0.2-0.2,0.2l-0.1,0.2
				c-0.1,0.1-0.1,0.1-0.1,0.2c0,0,0,0-0.1,0.1l-0.2,0c-0.2,0-0.3-0.1-0.5-0.2c-0.1-0.1-0.2-0.2-0.3-0.2c-0.1-0.1-0.2-0.2-0.2-0.2
				c-0.1,0-0.1-0.1-0.1-0.1c0,0,0,0,0-0.1c0-0.1,0.1-0.1,0.1-0.2c0,0,0.1-0.1,0.1-0.2c0.1-0.1,0.2-0.3,0.3-0.4s0.2-0.3,0.3-0.4
				c0-0.1,0.1-0.1,0.1-0.2s0-0.1,0.1-0.2c0.1,0,0.2,0,0.3,0.1s0.2,0.1,0.3,0.2c0,0,0.1,0.1,0.1,0.1c0,0,0.1,0,0.1,0.1
				c0,0,0.1,0,0.2,0.1c0.1,0.1,0.2,0.1,0.2,0.1c0.1,0,0.1,0.1,0.2,0.1S72,23,72,23L72,23z"/>
		</g>
		<path class="st1" d="M92,32c-1.4,2.5-4.2,4.1-4.4,3.8c-0.3-0.7,2.2-3,1.9-3.4c-0.4-0.5-2.1,0.3-4.8,2.5c-2.6,2.2-1.8,4.8-1.8,4.8
			s-3.2,16.1-5.5,17.4c-2.3,1.3-7-12.3-13.5-15.8c-0.1-0.1-0.2-0.1-0.3-0.1c-1-0.4-3.4-1.2-5.5-1.7c0,0,0,0.1,0,0.1
			c-1.3-0.4-2.7-0.7-4.3-0.9v-4.3c1.6-0.6,3.4-1.7,4.7-3.8c0.3-0.6,0.6-1.2,0.9-1.9c1.2,0,2.2-1,2.2-2.2c0-0.8-0.4-1.5-1-1.9
			c0.8-4.3,0.2-9.2-2.4-12.8c-1.2-1.6-2.6-2.5-3.9-2.9l0,0c-0.2-0.1-0.4-0.2-0.6-0.3c0.5-0.8,0.8-1.8,0.8-2.9c0-2.8-2.1-5.1-4.6-5.1
			s-4.6,2.3-4.6,5.1c0,1.2,0.4,2.3,1,3.2c-0.2,0.2-0.3,0.3-0.3,0.3l0,0c-5.8,1.3-7.5,9.4-6.4,15.8c-0.4,0.4-0.7,1-0.7,1.6
			c0,1.1,0.8,2,1.8,2.2c1.4,3,3.9,4.6,6,5.4v4.6c-1.6,0.1-3.1,0.5-4.4,0.8c0,0,0,0,0,0c-2.2,0.6-4.8,1.4-5.7,1.8l0,0
			c-6.5,3.5-11.1,17-13.5,15.7c-2.3-1.3-5.5-17.4-5.5-17.4s0.8-2.6-1.8-4.8c-2.7-2.2-4.4-3-4.8-2.5c-0.4,0.5,2.2,2.8,1.9,3.4
			c-0.1,0.3-3-1.3-4.4-3.8c-0.8-1.5-3.8-0.2-3,3.1c0.8,3.4,5.6,5.6,8.6,6c0,0-4.2,26.5,6.9,29.4C30.7,73,35.7,58.3,36,57.2
			l-1.3,29.6l31.3,0l-1.4-30.3c0.1,0.3,0.1,0.6,0.1,0.6s5,15.9,14.8,13.3c11.1-2.9,6.9-29.4,6.9-29.4c3-0.4,7.8-2.5,8.6-6
			C95.8,31.8,92.9,30.6,92,32z"/>
		<path class="st2" d="M13.2,6.8c-0.1-0.1-1.9-3.5-7.2-2.5C0.6,5.2,0,8.9,0,9.1c0,0.1,0,0.1,0,0.2l0.1,0.5l0,0l0,0l6.4,20.9
			c0.2,0.5,0.5,1,1,1.3c0,0.6-0.1,2.2,0.5,3.5c0.3,0.7,1,1.2,1.7,1.3c0.5,0,1.1,0,1.9-0.2s1.4-0.3,1.9-0.5c0.7-0.3,1.2-1,1.2-1.8
			c0-1.5-0.5-2.9-0.8-3.5c0.3-0.4,0.5-1,0.5-1.5L13.2,7.5l0,0l0,0l0-0.5C13.2,6.9,13.2,6.8,13.2,6.8z"/>
		<path class="st2" d="M100.1,9.6c0-0.2-0.6-3.9-5.9-4.8c-5.4-1-7.2,2.4-7.2,2.5c0,0.1-0.1,0.1-0.1,0.2l0,0.5l0,0l0,0l-1.2,21.8
			c0,0.6,0.2,1.1,0.5,1.5c-0.2,0.6-0.8,2-0.8,3.5c0,0.8,0.5,1.5,1.2,1.8c0.5,0.2,1.1,0.3,1.9,0.5s1.4,0.2,1.9,0.2
			c0.8,0,1.5-0.5,1.7-1.3c0.5-1.4,0.5-2.9,0.5-3.5c0.5-0.3,0.8-0.7,1-1.3l6.4-20.9l0,0l0,0l0.1-0.5C100.1,9.7,100.1,9.7,100.1,9.6
			L100.1,9.6z"/>
	</g>
</g>
</svg>
