<?xml version="1.0" encoding="UTF-8"?>
<svg id="_レイヤー_2" data-name="レイヤー 2" xmlns="http://www.w3.org/2000/svg" viewBox="0 0 279.8 85.04">
  <defs>
    <style>
      .cls-1 {
        letter-spacing: .01em;
      }

      .cls-2 {
        letter-spacing: .02em;
      }

      .cls-3 {
        letter-spacing: .02em;
      }

      .cls-4 {
        letter-spacing: 0em;
      }

      .cls-5 {
        letter-spacing: .03em;
      }

      .cls-5, .cls-6, .cls-7, .cls-8, .cls-9 {
        fill: #fff;
      }

      .cls-5, .cls-9 {
        font-family: 'Noto Sans JP', sans-serif;
        font-weight: 700;
        font-size: 5.67px;
      }

      .cls-6 {
        stroke: #fce333;
        stroke-width: .57px;
      }

      .cls-6, .cls-10, .cls-11, .cls-12 {
        stroke-miterlimit: 10;
      }

      .cls-7 {
        font-size: 7.8px;
      }

      .cls-7, .cls-13 {
        font-family: 'Noto Sans JP', sans-serif;
        font-weight: 700;
      }

      .cls-10 {
        stroke-dasharray: 0 0 2.83 2.83;
      }

      .cls-10, .cls-11 {
        fill: none;
        stroke: #3d3a39;
        stroke-width: 1.13px;
      }

      .cls-14 {
        fill: #ebeef0;
      }

      .cls-15 {
        fill: #fce333;
      }

      .cls-16 {
        fill: #717071;
      }

      .cls-17, .cls-18 {
        fill: #3d3a39;
      }

      .cls-19 {
        fill: #53abe0;
      }

      .cls-20 {
        letter-spacing: -.03em;
      }

      .cls-21 {
        letter-spacing: .02em;
      }

      .cls-22 {
        letter-spacing: -.02em;
      }

      .cls-23 {
        letter-spacing: 0em;
      }

      .cls-24 {
        letter-spacing: -.04em;
      }

      .cls-18 {
        font-family: 'Noto Sans JP', sans-serif;
        font-weight: 700;
        font-size: 7.09px;
        letter-spacing: .03em;
      }

      .cls-25 {
        letter-spacing: -.02em;
      }

      .cls-26 {
        letter-spacing: .03em;
      }

      .cls-27 {
        letter-spacing: .03em;
      }

      .cls-28 {
        letter-spacing: -.06em;
      }

      .cls-29 {
        letter-spacing: .02em;
      }

      .cls-30 {
        letter-spacing: 0em;
      }

      .cls-31 {
        letter-spacing: .02em;
      }

      .cls-12 {
        fill: #d22d25;
        stroke: #d22d25;
        stroke-width: .85px;
      }

      .cls-32 {
        letter-spacing: .01em;
      }

      .cls-33 {
        letter-spacing: 0em;
      }

      .cls-34 {
        letter-spacing: -.02em;
      }

      .cls-13 {
        fill: #211815;
        font-size: 6.38px;
      }

      .cls-35 {
        letter-spacing: .01em;
      }

      .cls-36 {
        letter-spacing: .01em;
      }

      .cls-37 {
        letter-spacing: .03em;
      }

      .cls-38 {
        letter-spacing: 0em;
      }

      .cls-39 {
        letter-spacing: -.03em;
      }

      .cls-40 {
        letter-spacing: .03em;
      }
    </style>
  </defs>
  <g id="_01" data-name="01">
    <g>
      <rect class="cls-14" width="279.8" height="85.04"/>
      <path class="cls-19" d="m7.95,28.86c0-6.05,9.61-10.95,21.47-10.95,11.86,0,21.47,4.9,21.47,10.95s-9.58,10.93-21.42,10.95l2.11,3.24-7.31-3.55c-9.37-1.17-16.33-5.49-16.33-10.63Z"/>
      <path class="cls-19" d="m279.8,28.17c0-8.92-14.18-16.14-31.66-16.14s-31.66,7.23-31.66,16.14,14.13,16.12,31.59,16.14l-3.12,4.77,10.77-5.24c13.83-1.73,24.08-8.09,24.08-15.68Z"/>
      <text class="cls-5" transform="translate(15.35 31.09)"><tspan x="0" y="0">123456</tspan></text>
      <text class="cls-9" transform="translate(228.17 26.27)"><tspan class="cls-2" x="0" y="0">万が一コピーは</tspan><tspan class="cls-38" x="-5.97" y="6.38">できても改ざん不可</tspan></text>
      <rect class="cls-16" x="85.33" y="7.2" width="107.72" height="17.01" rx="2.83" ry="2.83"/>
      <text class="cls-7" transform="translate(100.36 19.08) rotate(.29)"><tspan class="cls-32" x="0" y="0">改ざんがとても難しい</tspan></text>
      <g>
        <rect class="cls-17" x="41.23" y="41.35" width="15.06" height="15.06" rx="7.53" ry="7.53"/>
        <path class="cls-17" d="m59.59,57.95h-21.67c-.86,0-1.53.68-1.46,1.48l1.27,13.62c.07.7.7,1.24,1.46,1.24h19.13c.76,0,1.39-.54,1.46-1.24l1.27-13.62c.07-.8-.6-1.48-1.46-1.48Zm-10.84,10.06c-1.04,0-1.89-.84-1.89-1.89s.84-1.89,1.89-1.89,1.89.84,1.89,1.89-.84,1.89-1.89,1.89Z"/>
        <path class="cls-17" d="m67.27,68.08h0s-4.97-8.79-4.97-8.79c0,.08.01.17,0,.25l-1.26,13.49h3.27c1.19,0,2.27-.61,2.88-1.63.61-1.02.64-2.26.07-3.32Z"/>
        <path class="cls-17" d="m35.22,59.29h0s-4.98,8.8-4.98,8.8c-.56,1.05-.53,2.29.08,3.31.61,1.02,1.69,1.63,2.88,1.63h3.27l-1.26-13.49c0-.08,0-.17,0-.25Z"/>
      </g>
      <g>
        <line class="cls-11" x1="58.06" y1="43.57" x2="184.54" y2="43.57"/>
        <polygon class="cls-17" points="183.72 46.4 188.61 43.57 183.72 40.74 183.72 46.4"/>
      </g>
      <g>
        <line class="cls-10" x1="211.2" y1="68.3" x2="186.28" y2="68.3"/>
        <polygon class="cls-17" points="187.11 65.47 182.21 68.3 187.11 71.12 187.11 65.47"/>
      </g>
      <g>
        <rect class="cls-12" x="198.86" y="59.68" width="1.33" height="16.48" transform="translate(3.68 145.82) rotate(-40.49)"/>
        <rect class="cls-12" x="198.86" y="59.68" width="1.33" height="16.48" transform="translate(121.62 -127.93) rotate(49.51)"/>
      </g>
      <rect class="cls-6" x="103" y="36.24" width="70.87" height="34.02" rx="2.83" ry="2.83"/>
      <path class="cls-15" d="m105.83,36.24h65.2c1.56,0,2.83,1.27,2.83,2.83v8.5h-70.87v-8.5c0-1.56,1.27-2.83,2.83-2.83Z"/>
      <text class="cls-13" transform="translate(119.65 58.13)"><tspan class="cls-26"><tspan x="0" y="0">HiddenTag</tspan></tspan><tspan class="cls-26" x="-.3" y="7.79">作成エンジン</tspan></text>
      <text class="cls-18" transform="translate(120.13 44.15)"><tspan x="0" y="0">非公開技術</tspan></text>
      <g>
        <path class="cls-17" d="m242.05,56.69h0c.76-.74,1.2-1.6,1.2-2.52,0-1.4-1.01-2.66-2.62-3.57h0c-.2-.12-.41-.22-.63-.33-.2-.09-.41-.18-.63-.27v.83c0,2.71-2.21,4.92-4.92,4.92s-4.92-2.21-4.92-4.92v-.83c-.22.08-.43.17-.63.27-.22.1-.43.21-.63.32h0c-1.62.91-2.62,2.18-2.62,3.57,0,.92.44,1.78,1.2,2.52h15.21Z"/>
        <path class="cls-17" d="m228.8,48.95c1.6-.67,3.53-1.06,5.64-1.06,1.92,0,3.69.33,5.2.89.28.1.55.22.81.34.83.39,1.58.85,2.18,1.37l-2-5.22c-.98-2.57-3.47-4.3-6.2-4.3s-5.21,1.73-6.2,4.29l-2.01,5.24c.64-.56,1.43-1.05,2.33-1.45.08-.03.15-.07.23-.1Z"/>
        <path class="cls-17" d="m225.21,56.69h0c-.36-.52-.61-1.08-.73-1.67-.93.31-1.73.96-2.21,1.86l-.14.25c.44-.27.95-.43,1.48-.43h1.6Z"/>
        <path class="cls-17" d="m252.95,68.08h0s-4.97-8.79-4.97-8.79c0,.08.01.17,0,.25l-1.26,13.49h3.27c1.19,0,2.27-.61,2.88-1.63.61-1.02.64-2.26.07-3.32Z"/>
        <path class="cls-17" d="m246.75,57.12l-.13-.24c-.48-.9-1.28-1.55-2.22-1.87-.12.59-.37,1.15-.73,1.67h1.6c.53,0,1.04.16,1.48.43Z"/>
        <path class="cls-17" d="m220.9,59.29h0s-4.98,8.8-4.98,8.8c-.56,1.05-.53,2.29.08,3.31.61,1.02,1.69,1.63,2.88,1.63h3.27l-1.26-13.49c0-.08,0-.17,0-.25Z"/>
        <g>
          <path class="cls-17" d="m234.54,67.15c-.09,0-.17.08-.18.19,0,.05,0,.1,0,.16,0,.09.02.1.05.09.08-.04.18-.04.26,0,.03.02.05,0,.05-.09,0-.06,0-.11,0-.16,0-.11-.09-.19-.18-.19Z"/>
          <path class="cls-17" d="m235.39,65.89c-.29,0-.52.23-.52.52s.23.52.52.52.52-.23.52-.52-.23-.52-.52-.52Z"/>
          <circle class="cls-17" cx="233.65" cy="66.41" r=".52"/>
          <path class="cls-17" d="m245.28,57.95h-21.67c-.86,0-1.53.68-1.46,1.48l1.27,13.62c.07.7.7,1.24,1.46,1.24h19.13c.76,0,1.39-.54,1.46-1.24l1.27-13.62c.07-.8-.6-1.48-1.46-1.48Zm-9.64,9.92s-.19-.03-.18.26h0s0,0,0,0v.17c0,.11-.09.2-.2.2h0c-.11,0-.2-.09-.2-.2v-.17h-.3v.17c0,.11-.09.2-.2.2h0c-.11,0-.2-.09-.2-.2v-.17h-.31v.17c0,.11-.09.2-.2.2h0c-.11,0-.2-.09-.2-.2v-.17h0c.01-.29-.18-.26-.18-.26-1.19.28-.82-.97-.82-.97-.7-1.63,0-2.44.73-2.84.74-.39,1.63-.39,2.37,0,.74.4,1.44,1.21.73,2.84,0,0,.38,1.25-.82.97Z"/>
        </g>
      </g>
      <g>
        <rect class="cls-8" x="192.39" y="33.27" width="20.61" height="20.61"/>
        <g>
          <path class="cls-17" d="m200.64,45.11h-6c-.22,0-.41.18-.41.41v6c0,.22.18.41.41.41h6c.22,0,.41-.18.41-.41v-6c0-.53-.82-.53-.82,0v6l.41-.41h-6l.41.41v-6l-.41.41h6c.53,0,.53-.82,0-.82Z"/>
          <path class="cls-17" d="m198.48,47.67h-1.68v1.68h1.68c0-.69,0-1.37,0-1.68Z"/>
          <path class="cls-17" d="m198.48,47.27h-1.68c-.22,0-.41.18-.41.41v1.68c0,.22.18.41.41.41h1.68c.22,0,.41-.18.41-.41v-1.68c0-.23-.18-.41-.41-.41-.23,0-.41.18-.41.41v1.68l.41-.41h-1.68l.41.41v-1.68l-.41.41h1.68c.23,0,.41-.18.41-.41s-.18-.41-.41-.41h0Z"/>
          <path class="cls-17" d="m200.64,35.23h-6c-.22,0-.41.18-.41.41v6c0,.22.18.41.41.41h6c.22,0,.41-.18.41-.41v-6c0-.53-.82-.53-.82,0v6l.41-.41h-6l.41.41v-6l-.41.41h6c.53,0,.53-.82,0-.82Z"/>
          <path class="cls-17" d="m202.28,35.64v6c0,.53.82.53.82,0v-6c0-.53-.82-.53-.82,0Z"/>
          <path class="cls-17" d="m200.64,43.14h-6c-.53,0-.53.82,0,.82h6c.53,0,.53-.82,0-.82Z"/>
          <path class="cls-17" d="m210.54,43.14h-3.29c-.53,0-.53.82,0,.82h3.29c.53,0,.53-.82,0-.82Z"/>
          <path class="cls-17" d="m202.6,43.96h2.91l-.41-.41v2.91c0,.22.18.41.41.41h2.91l-.41-.41v2.91c0,.53.82.53.82,0v-2.91c0-.22-.18-.41-.41-.41h-2.91l.41.41v-2.91c0-.22-.18-.41-.41-.41h-2.91c-.53,0-.53.82,0,.82h0Z"/>
          <path class="cls-17" d="m202.29,45.52v6c0,.22.18.41.41.41h1.98c.53,0,.53-.82,0-.82h-1.98l.41.41v-6c0-.53-.82-.53-.82,0Z"/>
          <path class="cls-17" d="m206.56,51.92h3.98c.22,0,.41-.18.41-.41v-4.2c0-.53-.82-.53-.82,0v4.2l.41-.41h-3.98c-.53,0-.53.82,0,.82h0Z"/>
          <path class="cls-17" d="m198.48,37.8h-1.68v1.68h1.68v-1.68Z"/>
          <path class="cls-17" d="m198.48,37.39h-1.68c-.22,0-.41.18-.41.41v1.68c0,.22.18.41.41.41h1.68c.22,0,.41-.18.41-.41v-1.68c0-.23-.18-.41-.41-.41-.23,0-.41.18-.41.41v1.68l.41-.41h-1.68l.41.41v-1.68l-.41.41h1.68c.23,0,.41-.18.41-.41s-.18-.41-.41-.41Z"/>
          <path class="cls-17" d="m210.75,35.23h-6c-.22,0-.41.18-.41.41v6c0,.22.18.41.41.41h6c.22,0,.41-.18.41-.41v-6c0-.53-.82-.53-.82,0v6l.41-.41h-6l.41.41v-6l-.41.41h6c.53,0,.53-.82,0-.82Z"/>
          <path class="cls-17" d="m208.59,37.8h-1.68v1.68h1.68v-1.68Z"/>
          <path class="cls-17" d="m208.59,37.39h-1.68c-.22,0-.41.18-.41.41v1.68c0,.22.18.41.41.41h1.68c.22,0,.41-.18.41-.41v-1.68c0-.23-.18-.41-.41-.41s-.41.18-.41.41h0v1.68l.41-.41h-1.68l.41.41v-1.68l-.41.41h1.68c.23,0,.41-.18.41-.41s-.18-.41-.41-.41Z"/>
          <path class="cls-17" d="m206.46,48.5h-1.59v.72h1.59v-.72Z"/>
          <path class="cls-17" d="m206.46,48.09h-1.59c-.22,0-.41.18-.41.41v.72c0,.22.18.41.41.41h1.59c.22,0,.41-.18.41-.41v-.72c0-.23-.18-.41-.41-.41-.23,0-.41.18-.41.41h0v.72l.41-.41h-1.59l.41.41v-.72l-.41.41h1.59c.23,0,.41-.18.41-.41s-.18-.41-.41-.41h0Z"/>
          <path class="cls-17" d="m208.01,43.58v.95c0,.11.04.21.12.29.16.16.42.16.58,0,.08-.08.12-.18.12-.29v-.95c0-.11-.04-.21-.12-.29-.16-.16-.42-.16-.58,0-.08.08-.12.18-.12.29Z"/>
          <path class="cls-17" d="m210.12,43.58v1.94c0,.23.18.41.41.41s.41-.18.41-.41v-1.94c0-.23-.18-.41-.41-.41s-.41.18-.41.41h0Z"/>
        </g>
      </g>
    </g>
  </g>
</svg>