<?xml version="1.0" encoding="utf-8"?>
<!-- Generator: Adobe Illustrator 27.5.0, SVG Export Plug-In . SVG Version: 6.00 Build 0)  -->
<svg version="1.1" id="_レイヤー_2" xmlns="http://www.w3.org/2000/svg" xmlns:xlink="http://www.w3.org/1999/xlink" x="0px"
	 y="0px" viewBox="0 0 359.5 100.2" style="enable-background:new 0 0 359.5 100.2;" xml:space="preserve">
<style type="text/css">
	.st0{fill:#FFFFFF;}
	.st1{fill:#040000;}
	.st2{fill:#FFFFFF;stroke:#040000;stroke-width:0.34;stroke-linecap:round;stroke-linejoin:round;}
	.st3{clip-path:url(#SVGID_00000057851757895250565180000002727298605977574299_);}
	.st4{fill:none;stroke:#3E3A39;stroke-width:0.91;stroke-linecap:round;stroke-linejoin:round;}
	.st5{fill:#3E3A39;}
	.st6{fill:#E50012;}
	.st7{font-family: 'Noto Sans JP', sans-serif;
        font-weight: 700;}
	.st8{font-size:21.264px;}
	.st11{fill:#231815;}
	.st12{font-size:17.72px;}
	.st15{font-size:11.34px;}
	.st17{enable-background:new;}
	.st18{font-size:13.61px;}
	.st20{fill:#FFF000;}
	.st21{font-family:'Akshar','DINCondensed-Bold', sans-serif}
	.st22{font-size:28.35px;}
	.st23{font-size:14.175px;}
	.st24{font-size:9.07px;}
</style>
<g>
	<g>
		<circle class="st0" cx="39.8" cy="49.3" r="39.8"/>
		<path class="st0" d="M62.2,59.7L62.2,59.7v-7l0,0V40.5l0,0V10.1c0-3-2.5-5.5-5.5-5.5H24.3c-3,0-5.5,2.5-5.5,5.5v25.3
			c0.1,0.1,0.2,0.3,0.2,0.4l43.1,39.7L62.2,59.7L62.2,59.7z"/>
		<path class="st1" d="M66.2,75.2c-0.4-0.1-2.2-0.3-3.7,0.2v-4.5c1.6-0.5,4.3-1.5,5-2c0.8-0.6,2.9-3.2,3-4.5
			c0.1-1.1,0.4-3.7-1.7-5.2c-2.1-1.5-4.4-0.8-4.8-0.7c-0.2,0.1-0.9,0.5-1.5,0.8v-6.6c0.9-0.5,3.5-2,4.2-2.8c0.2-0.2,0.4-0.3,0.7-0.6
			c1.3-1.1,3.6-3,3.8-5.3c0.1-1.5-0.3-2.8-1.1-3.8c-0.8-0.9-2-1.3-3.4-1.2c-1.7,0.1-3.1,0.6-4.1,1V10.1c0-3.2-2.6-5.8-5.8-5.8H24.3
			c-3.2,0-5.8,2.6-5.8,5.8v24.8c-0.1-0.1-0.1-0.1-0.2-0.2c-0.8-0.9-2-1-2.8-0.8c-0.2,0-0.7,0.2-0.8,0.5c-0.1,0.4-3.8,6.5-4.2,7.3
			c-0.4,0.7-3.6,4.2-4.9,5.4c-1.3,1.2-2,3.2-2.2,3.9c-0.1,0.3-1.5,4.1-2.4,6.7c0,0.2,0.1,0.4,0.1,0.6c1-2.5,2.5-6.8,2.6-7.2
			c0,0,0.6-2.4,2.1-3.8c1.3-1.2,4.6-4.8,5-5.5c0.3-0.5,4.2-7,4.3-7.4c0-0.1,0.4-0.3,0.9-0.3c0.5,0,1.4,0,2.1,0.8
			c0.2,0.2,0.3,0.4,0.5,0.6c0.7,1.1,1.1,2.2,1.1,3.9c0,1.8-0.1,5-0.2,5.8S19,47,18.9,47.5c0,0.1-0.1,0.4-0.3,0.7l0,0.1l0,0
			c-0.7,1.6-2.1,4.7-2.4,5.2c-0.4,0.6-1.3,1.9-1.3,1.9c0,0,0,0,0,0.1c0,0-0.4,2-0.7,3.3c-0.2,0.7-1.1,3.7-2,6.3
			c-0.3,0.9-0.6,1.7-0.8,2.4l0,0c-0.2,0.8-0.4,1.4-0.5,1.6c0,0.1,0,0.1,0.1,0.2c0,0,0,0,0,0c0.1,0,0.2,0,0.2-0.1
			c0-0.1,0.2-0.6,0.4-1.2c0,0,0-0.1,0-0.1c1,0.8,4.3,3.4,5.9,6.2c0.4,0.8,0.8,1.7,1.1,2.8l0,0c0.5,2,0.7,4.2,0.8,6.4
			c0.1,0.1,0.2,0.1,0.4,0.2c-0.1-2.3-0.4-4.6-0.9-6.7V48.4l0,0c0.2-0.4,0.3-0.7,0.3-0.8c0.2-0.5,0.5-1.7,0.6-2.4
			c0.1-0.7,0.2-4,0.2-5.8c0-1.5-0.3-2.6-0.9-3.6c-0.1-0.1-0.1-0.3-0.2-0.4V10.1c0-3,2.5-5.5,5.5-5.5h2.5c0.1,1.5,1.3,3.5,2.7,3.5
			h20.8c1.5,0,2.7-2,2.7-3.6h3.6c3,0,5.5,2.5,5.5,5.5v30.4l0,0v12.2l0,0v7l0,0v15.8c-0.8,0.4-1.3,1-1.6,1.7
			c-0.6,1.8-0.3,4.2,0.3,5.7c0.1-0.1,0.2-0.1,0.3-0.2c-0.5-1.4-0.8-3.7-0.2-5.4c0.2-0.7,0.7-1.2,1.5-1.6l0,0
			c1.4-0.7,3.3-0.4,3.7-0.3c0.3,0.1,1.2,0.6,2,1.7c0.1-0.1,0.2-0.2,0.2-0.2C67.6,75.8,66.6,75.3,66.2,75.2L66.2,75.2z M62.5,40.6
			c1-0.5,2.4-1,4.1-1.1c1.3-0.1,2.4,0.3,3.2,1.1c0.8,0.8,1.2,2.1,1.1,3.5c-0.2,2.2-2.4,4-3.7,5.1c-0.3,0.2-0.5,0.4-0.7,0.6
			c-0.7,0.7-3,2-4,2.6L62.5,40.6L62.5,40.6z M62.5,59.8c0.6-0.3,1.5-0.8,1.6-0.8c0.3-0.1,2.5-0.7,4.4,0.6c2,1.4,1.7,3.8,1.6,4.8
			c-0.1,1.2-2.1,3.7-2.9,4.2c-0.5,0.3-2.2,1-4.8,1.9L62.5,59.8L62.5,59.8z M18.5,75.7c-0.2-0.7-0.5-1.3-0.8-1.8
			c-1.6-2.8-4.9-5.5-6.1-6.3c0.2-0.7,0.5-1.5,0.7-2.3c0.8-2.6,1.8-5.6,2-6.3c0.3-1.2,0.7-3,0.7-3.3c0.1-0.2,0.9-1.3,1.3-1.9
			c0.3-0.4,1.4-2.8,2.1-4.5L18.5,75.7L18.5,75.7z"/>
		<path class="st2" d="M37.2,6.9h7.4c0.2,0,0.4-0.2,0.4-0.3c0-0.1,0-0.2-0.1-0.3c-0.1-0.1-0.2-0.1-0.2-0.1h-7.4
			c-0.2,0-0.3,0.2-0.3,0.4c0,0.1,0,0.2,0.1,0.2C37,6.9,37.1,6.9,37.2,6.9z"/>
		<path class="st2" d="M48.4,7.4c0.4,0,0.7-0.3,0.7-0.7s-0.3-0.7-0.7-0.7s-0.7,0.3-0.7,0.7S48,7.4,48.4,7.4z"/>
	</g>
	<g>
		<g>
			<defs>
				<rect id="SVGID_1_" x="22" y="24.1" width="38" height="38"/>
			</defs>
			<clipPath id="SVGID_00000031922876618594167950000014537268512050798480_">
				<use xlink:href="#SVGID_1_"  style="overflow:visible;"/>
			</clipPath>
			<g style="clip-path:url(#SVGID_00000031922876618594167950000014537268512050798480_);">
				<rect x="22" y="24.1" class="st0" width="38" height="38"/>
			</g>
		</g>
		<path d="M25.7,32.9V38h10.2V27.8H25.7C25.7,27.8,25.7,32.9,25.7,32.9z M34.5,32.9v3.7h-7.3v-7.3h7.3
			C34.5,29.2,34.5,32.9,34.5,32.9z"/>
		<path d="M28.6,32.9v2.2H33v-4.4h-4.4C28.6,30.7,28.6,32.9,28.6,32.9z"/>
		<path d="M37.4,28.5v0.7h2.9v-1.5h-2.9C37.4,27.8,37.4,28.5,37.4,28.5z"/>
		<path d="M41.8,28.5v0.7h1.5v-1.5h-1.5C41.8,27.8,41.8,28.5,41.8,28.5z"/>
		<path d="M46.1,32.9V38h10.2V27.8H46.1V32.9z M54.9,32.9v3.7h-7.3v-7.3h7.3C54.9,29.2,54.9,32.9,54.9,32.9z"/>
		<path d="M49,32.9v2.2h4.4v-4.4H49C49,30.7,49,32.9,49,32.9z"/>
		<path d="M37.4,32.9v2.2h1.5v1.5h-1.5V38h1.5v-1.5h1.5V38h1.5v1.5h-1.5v1.5h-1.5v-1.5h-1.5v1.5h-1.5v-1.5h-1.5v1.5H33v1.5h1.5v1.5
			h1.5v-1.5h1.5v2.9h-2.9v1.5h2.9v1.5h2.9v1.5h1.5V54h-2.9v-1.5h1.5v-1.5h-1.5v1.5h-1.5v5.8h1.5v-2.9h5.8V57h-2.9v1.5h5.8V57H49v1.5
			h4.4V57h-2.9v-1.5H49v-2.9h1.5v-1.5H52v1.5h1.5v-1.5h1.5v1.5h1.5v-1.5h-1.5v-1.5h-4.4v-2.9H52v-4.4h1.5v2.9h1.5v1.5h1.5v-1.5h-1.5
			v-1.5h1.5v-4.4h-1.5v1.5h-1.5v-1.5H49v1.5h-2.9v-1.5h-1.5v-2.9h-1.5v-1.5h1.5v-1.5h-2.9v-2.9h-1.5v1.5h-1.5v-1.5h-1.5
			C37.4,30.7,37.4,32.9,37.4,32.9z M41.8,35.8v0.7h1.5V38h-1.5v-1.5h-1.5v-1.5h1.5V35.8z M35.9,41.6v0.7h-1.5v-1.5h1.5V41.6z
			 M38.8,41.6v0.7h1.5v-1.5h4.4v2.9h1.5v-1.5h4.4v2.9h-1.5v4.4h-1.5v1.5h1.5v1.5h-1.5v2.9h-2.9v-2.9h-1.5v-4.4h1.5v-1.5h-1.5v-1.5
			h1.5v-1.5h-1.5v-1.5h-1.5v5.8h-1.5v-1.5h-1.5v-1.5h1.5v-1.5h-1.5v-1.5h-1.5v-1.5h1.5C38.8,40.9,38.8,41.6,38.8,41.6z"/>
		<path d="M47.6,44.5v0.7h-1.5v1.5h1.5v-1.5H49v-1.5h-1.5V44.5z"/>
		<path d="M44.7,49.7v1.5h1.5v-1.5h1.5v-1.5h-2.9V49.7z"/>
		<path d="M43.2,31.4v0.7h1.5v-1.5h-1.5V31.4z"/>
		<path d="M25.7,40.9v1.5h1.5v-1.5h4.4v-1.5h-5.8C25.7,39.4,25.7,40.9,25.7,40.9z"/>
		<path d="M28.6,43.1v0.7h-2.9v1.5h1.5v1.5h1.5v-1.5h2.9v-2.9h-2.9V43.1z"/>
		<path d="M25.7,53.3v5.1h10.2V48.2H25.7C25.7,48.2,25.7,53.3,25.7,53.3z M34.5,53.3V57h-7.3v-7.3h7.3
			C34.5,49.7,34.5,53.3,34.5,53.3z"/>
		<path d="M28.6,53.3v2.2H33v-4.4h-4.4C28.6,51.1,28.6,53.3,28.6,53.3z"/>
		<path d="M52,54.8v0.7h1.5V54H52V54.8z"/>
		<path d="M54.9,56.2V57h1.5v-1.5h-1.5V56.2z"/>
	</g>
	<g id="txt">
		<line class="st4" x1="59.8" y1="17.5" x2="65.6" y2="9"/>
		<line class="st4" x1="67.6" y1="35" x2="78.4" y2="35.4"/>
		<g>
			<path class="st5" d="M73.2,18c-0.6-0.8-1.2-1.6-1.7-2.5c0,0,0-0.1-0.1-0.1c0-0.1-0.1-0.1-0.1-0.1c-0.6-0.9-1.2-1.7-1.8-2.6
				c-0.2-0.3-0.6-0.4-0.9-0.2c-0.3,0.2-0.4,0.5-0.2,0.8c0,0,0,0.1,0.1,0.1c0.5,0.7,1,1.4,1.5,2.2c-1.7,1-3.4,2-5.2,2.9
				c-0.3,0.2-0.4,0.5-0.3,0.8c0,0,0,0,0,0c0.2,0.3,0.6,0.5,0.9,0.3c1.8-0.9,3.6-1.9,5.3-3c0.5,0.7,1,1.4,1.4,2.1
				c0.2,0.3,0.6,0.4,0.9,0.2C73.4,18.7,73.4,18.3,73.2,18L73.2,18z"/>
			<path class="st5" d="M74.5,21c0.1-0.2,0.2-0.5,0-0.7c-0.1-0.2-0.3-0.4-0.6-0.3c-1.4,0-2.8,0.2-4.1,0.6c0,0-0.1,0-0.1,0
				c-1,0.3-1.9,0.6-2.8,1.1c-0.3,0.1-0.4,0.5-0.3,0.8c0,0,0,0,0,0c0.2,0.3,0.6,0.5,0.9,0.3c0.7-0.4,1.5-0.6,2.3-0.9
				c0.4,0.4,0.8,0.8,1.1,1.3l0.2,0.2c-0.6,0.7-1.2,1.5-1.8,2.1c-0.2,0.3-0.2,0.7,0.1,0.9s0.7,0.2,0.9,0C71.8,24.7,73.2,22.9,74.5,21
				L74.5,21z M71.9,22.4c-0.2-0.2-0.4-0.5-0.7-0.7c0.5-0.1,0.9-0.2,1.4-0.2C72.4,21.7,72.1,22,71.9,22.4L71.9,22.4L71.9,22.4z"/>
			<path class="st5" d="M78.4,28c0.1-0.8-0.2-1.5-0.4-2c-0.3-0.6-0.7-1.2-1.2-1.8c-0.2-0.3-0.6-0.3-0.9-0.1
				c-0.8,0.6-1.7,1.2-2.5,1.8l0,0c-1.1,0.8-2.1,1.5-3.2,2.2c-0.3,0.2-0.3,0.5-0.2,0.8c0,0,0,0.1,0.1,0.1c0.2,0.3,0.6,0.4,0.9,0.2
				c0.9-0.6,1.8-1.3,2.7-1.9c0.4,0.5,0.8,1,1.3,1.5c0.3,0.3,0.9,1,1.8,0.9C77.6,29.6,78.3,28.9,78.4,28L78.4,28z M76.7,28.3
				c-0.2,0-0.6-0.3-0.8-0.5c-0.4-0.4-0.8-0.9-1.2-1.3c0.5-0.3,0.9-0.7,1.4-1c0.2,0.3,0.4,0.7,0.6,1.1c0.3,0.5,0.4,0.9,0.3,1.2
				C77.1,28.1,76.9,28.3,76.7,28.3L76.7,28.3z"/>
		</g>
	</g>
	<text x="90" y="40" textLength="148" class="st6 st7 st8">タグをスキャン</text>
	<text x="240" y="40" textLength="35" class="st7 st11 st12">して</text>
	<text x="90" y="65" textLength="90" class="st6 st7 st8">豪華賞品</text>
	<text x="185" y="65" textLength="90" class="st7 st11 st12">を当てよう!</text>
	<g>
		<circle class="st0" cx="319.7" cy="39.8" r="39.8"/>
		<g>
			<path class="st11" d="M297.3,43.5l6.9-23.9h-4.3v3.2h-3.5v-6.9h11.8v4l-6.7,23.7L297.3,43.5L297.3,43.5z"/>
			<path class="st11" d="M311.2,43.5v-4h4v4H311.2z"/>
			<path class="st11" d="M319,43.5l6.9-23.9h-4.3v3.2h-3.5v-6.9h11.8v4l-6.7,23.7L319,43.5L319,43.5z"/>
		</g>
		<text x="325" y="42" textLength="36" class="st11 st7 st15">（金）</text>
		<text x="290" y="60" textLength="60" class="st17 st6 st7 st18">当選発表!</text>
		<path class="st6" d="M291.6,65.1h56.7c3.1,0,5.7,2.5,5.7,5.7v15.9c0,3.1-2.5,5.7-5.7,5.7h-56.7c-3.1,0-5.7-2.5-5.7-5.7V70.7
			C285.9,67.6,288.5,65.1,291.6,65.1z"/>
		<text transform="matrix(1 0 0 1 311.9 87.97)" class="st20 st21 st22">24</text>
		<text transform="matrix(1 0 0 1 332.9902 86.3203)" class="st0 st21 st23">/500</text>
		<text transform="matrix(1 0 0 1 292.26 77.77)" class="st0 st7 st24">当選</text>
		<text transform="matrix(1 0 0 1 292.26 87.97)" class="st0 st7 st24">確率</text>
	</g>
</g>
</svg>
