<?xml version="1.0" encoding="UTF-8"?>
<svg id="_レイヤー_2" data-name="レイヤー 2" xmlns="http://www.w3.org/2000/svg" viewBox="0 0 340.16 40.51">
  <defs>
    <style>
      .cls-1 {
        font-size: 14.17px;
      }

      .cls-1, .cls-2 {
        fill: #231815;
      }

      .cls-1, .cls-3 {
        font-family: 'Noto Sans JP', sans-serif;
        font-weight: 700;
      }

      .cls-6 {
        fill: #00a9e4;
      }

      .cls-3 {
        fill: #fff;
        font-size: 11.34px;
      }

      .cls-7 {
        fill: none;
        stroke: #231815;
        stroke-miterlimit: 10;
        stroke-width: 1.42px;
      }
    </style>
  </defs>
  <g id="_01" data-name="01">
    <g class="cls-1">
      <line class="cls-7" x1="340.16" y1=".71" y2=".71"/>
      <line class="cls-7" x1="340.16" y1="32.25" y2="32.25"/>
      <polygon class="cls-6" points="111.25 24.86 14.12 24.86 14.12 7.85 111.25 7.85 116.25 16.36 111.25 24.86"/>
      <text x="24" y="21" textLength="78" class="cls-3">エントリー期間</text>
      <text x="136" y="25" textLength="10">月</text>
      <text x="178" y="25" textLength="45">日(水)</text>
      <text x="270" y="25" textLength="45">日(金)</text>


      <g>
        <path class="cls-2" d="m131.02,8.18l-3.29,8.48.06.06c.09-.08.24-.14.44-.18.2-.05.46-.07.78-.07.51,0,.98.12,1.42.37.43.25.77.56,1.02.94.13.21.24.42.31.62.08.21.14.48.2.82.04.34.07.77.08,1.29.02.52.03,1.18.03,1.97,0,.66,0,1.21-.03,1.63-.02.43-.05.78-.08,1.06-.06.3-.13.56-.21.76-.09.21-.19.43-.33.65-.38.62-.88,1.11-1.52,1.45-.63.34-1.35.51-2.14.51s-1.5-.17-2.13-.52c-.62-.35-1.12-.83-1.5-1.43-.15-.23-.27-.44-.35-.65-.08-.21-.15-.46-.18-.76-.06-.28-.09-.64-.11-1.06-.02-.42-.03-.97-.03-1.63,0-.62,0-1.14.03-1.54.02-.41.05-.76.09-1.06.04-.28.09-.54.17-.78.08-.24.16-.49.25-.75l3.8-10.15h3.23Zm-1.84,12.27c0-.43-.14-.78-.42-1.05-.28-.26-.62-.4-.99-.4s-.71.13-.99.4c-.28.27-.43.61-.43,1.05v3.74c0,.43.14.78.43,1.05s.61.4.99.4.71-.13.99-.4c.28-.26.42-.61.42-1.05v-3.74Z"/>
        <path class="cls-2" d="m155.08,28.36v-2.72l5.21-9.84c.26-.49.42-.92.45-1.29.04-.37.06-.83.06-1.38,0-.25,0-.5-.01-.78,0-.27-.06-.51-.16-.72-.09-.21-.24-.38-.42-.52-.19-.14-.46-.21-.82-.21-.44,0-.78.12-1.04.37s-.38.6-.38,1.08v1.64h-2.89v-1.59c0-.6.11-1.17.34-1.7.23-.53.54-.99.94-1.39.38-.4.83-.71,1.36-.95.53-.24,1.1-.35,1.7-.35.76,0,1.4.14,1.94.41.54.27.99.65,1.35,1.12.34.47.59,1.01.75,1.62.16.61.24,1.25.24,1.93,0,.49,0,.9-.03,1.23-.02.33-.06.65-.11.95-.06.3-.15.61-.28.91-.13.3-.31.67-.54,1.11l-4.25,8.19h5.22v2.89h-8.62Z"/>
        <path class="cls-2" d="m169.06,28.36V11.24l-2.89,2.13v-3.06l2.89-2.13h2.89v20.18h-2.89Z"/>
        <path class="cls-2" d="m244.71,28.36v-2.72l5.22-9.84c.26-.49.42-.92.45-1.29.04-.37.06-.83.06-1.38,0-.25,0-.5-.01-.78,0-.27-.06-.51-.16-.72-.09-.21-.24-.38-.42-.52-.19-.14-.46-.21-.82-.21-.44,0-.78.12-1.04.37-.25.25-.38.6-.38,1.08v1.64h-2.89v-1.59c0-.6.11-1.17.34-1.7.23-.53.54-.99.94-1.39.38-.4.83-.71,1.36-.95.53-.24,1.1-.35,1.7-.35.76,0,1.4.14,1.94.41.54.27.99.65,1.35,1.12.34.47.59,1.01.75,1.62.16.61.24,1.25.24,1.93,0,.49,0,.9-.03,1.23-.02.33-.06.65-.11.95-.06.3-.15.61-.28.91-.13.3-.31.67-.54,1.11l-4.25,8.19h5.22v2.89h-8.62Z"/>
        <path class="cls-2" d="m258.68,16.68c.87,0,1.47-.1,1.8-.31.33-.21.5-.69.5-1.45v-2.61c0-.42-.13-.76-.38-1.02-.26-.26-.6-.4-1.04-.4-.51,0-.88.16-1.09.48s-.33.63-.33.94v1.64h-2.89v-1.67c0-.59.11-1.14.34-1.67.23-.53.54-.98.94-1.36.4-.38.86-.68,1.39-.91.53-.23,1.1-.34,1.7-.34.79,0,1.45.16,1.97.47.52.31.91.63,1.18.95.19.23.35.45.5.68.14.23.26.5.35.82.17.62.25,1.55.25,2.78,0,.7-.01,1.27-.04,1.7-.03.43-.1.79-.21,1.08-.13.3-.32.56-.55.76-.24.21-.56.44-.98.68.45.28.8.55,1.03.79.24.25.41.53.52.85.11.34.18.74.2,1.21s.03,1.05.03,1.77c0,.66-.01,1.21-.04,1.64-.03.43-.07.79-.13,1.08-.06.3-.13.56-.23.77-.1.21-.22.42-.37.65-.36.53-.82.97-1.38,1.32-.56.35-1.29.52-2.2.52-.45,0-.94-.08-1.45-.23-.51-.15-.97-.4-1.39-.74s-.76-.78-1.03-1.33c-.27-.55-.41-1.22-.41-2.01v-1.64h2.89v1.5c0,.45.13.83.38,1.12.26.29.6.44,1.04.44s.78-.15,1.04-.44c.25-.29.38-.68.38-1.18v-2.89c0-.79-.15-1.31-.45-1.56-.17-.15-.4-.25-.69-.28-.29-.04-.68-.06-1.15-.06v-2.55Z"/>
        <polygon class="cls-2" points="238.7 18.75 226.52 12.91 226.52 24.59 238.7 18.75"/>
      </g>
      <!--text class="cls-1" transform="translate(136.71 25.69)"><tspan class="cls-9" x="0" y="0" xml:space="preserve">月　   </tspan><tspan class="cls-10" x="40.34" y="0">日</tspan><tspan class="cls-13" x="48.51" y="0">（水</tspan><tspan class="cls-11" x="76.55" y="0">）</tspan><tspan class="cls-9" x="84.73" y="0">　　　</tspan><tspan class="cls-10" x="128.65" y="0">日</tspan><tspan class="cls-12" x="136.83" y="0">（金</tspan><tspan class="cls-10" x="164.86" y="0">）</tspan></text-->
    </g>
  </g>
</svg>