<?xml version="1.0" encoding="UTF-8"?>
<svg id="_レイヤー_2" data-name="レイヤー 2" xmlns="http://www.w3.org/2000/svg" viewBox="0 0 332.12 265.54">
  <defs>
    <style>
      .cls-7, .cls-8 {
        fill: #040000;
      }

      .cls-9 {
        fill: #00a9e4;
      }

      .cls-10, .cls-11 {
        fill: #231815;
      }

      .cls-11 {
        font-size: 17px;
      }

      .cls-11, .cls-16 {
        font-family: 'Noto Sans JP', sans-serif;
        font-weight: 700;
      }

      .cls-16 {
        fill: #fff000;
        font-size: 15.59px;
      }

      .cls-8 {
        stroke: #040000;
        stroke-linecap: round;
        stroke-miterlimit: 10;
        stroke-width: 6.28px;
      }
    </style>
  </defs>
  <g id="_01" data-name="01">
    <g>
      <g>
        <text class="cls-11" x="30" y="25" textLength="280">本日はご訪問ありがとうございます。</text>
        <path class="cls-10" d="m10.43.68c-.22-.55-.85-.82-1.4-.6-.55.22-.82.84-.6,1.39l13.37,33.43c.22.55.84.82,1.4.6.55-.22.82-.85.6-1.4L10.43.68Z"/>
        <path class="cls-10" d="m1.97,13.85c-.33-.49-1-.63-1.49-.3-.49.33-.63,1-.3,1.49l13.37,20.06c.33.49,1,.63,1.49.3.49-.33.63-1,.3-1.49L1.97,13.85Z"/>
        <path class="cls-10" d="m323.09.08c-.55-.22-1.17.05-1.39.6l-13.37,33.43c-.22.55.05,1.18.6,1.39.55.22,1.17-.05,1.39-.6l13.37-33.43c.22-.55-.05-1.18-.6-1.4Z"/>
        <path class="cls-10" d="m331.65,13.55c-.49-.33-1.16-.2-1.49.3l-13.37,20.06c-.33.49-.2,1.16.3,1.49.49.33,1.16.2,1.49-.3l13.37-20.06c.33-.49.2-1.16-.3-1.49Z"/>
      </g>
      <g>
        <rect class="cls-9" x="232.74" y="156.76" width="22.5" height="22.5"/>
        <g>
          <polygon class="cls-10" points="52.32 206.03 46.31 206.03 47.64 213.36 29.39 213.36 29.39 219.3 48.69 219.3 51.52 234.78 29.39 234.78 29.39 240.77 52.63 240.77 54.33 250.28 60.4 250.28 58.64 240.77 74.23 240.77 74.23 234.78 57.58 234.78 54.76 219.3 74.23 219.3 74.23 213.36 53.65 213.36 52.32 206.03"/>
          <polygon class="cls-10" points="85.64 215.91 79.91 215.91 80.28 219.47 75.31 219.47 75.31 225.04 80.91 225.04 83.62 250.28 89.19 250.28 86.59 225.04 104.65 225.04 104.65 230.45 97.66 241.78 103.95 241.78 110.27 231.49 110.27 219.47 86.01 219.47 85.64 215.91"/>
          <rect class="cls-10" x="113.53" y="210.39" width="20.71" height="5.93"/>
          <polygon class="cls-10" points="149.4 232.43 137.23 244.35 112.2 244.35 112.2 250.28 139.67 250.28 155.34 234.78 155.34 206.03 149.4 206.03 149.4 232.43"/>
          <polygon class="cls-10" points="181.33 206.03 169.28 206.03 160.19 231.43 156.69 231.43 156.69 237.37 164.05 237.37 173.41 211.86 177.84 211.86 196.3 249.88 196.49 250.28 204.39 250.28 204.39 244.35 200.19 244.35 181.33 206.03"/>
          <path class="cls-10" d="m195.37,203.9l-3.77,3.71v5.32l3.76,3.76h5.26l3.76-3.76v-5.32l-3.77-3.71h-5.26Zm4.95,7.33l-1.34,1.39h-1.95l-1.34-1.39v-1.92l1.34-1.34h1.96l1.34,1.34v1.92Z"/>
          <rect class="cls-10" x="209.84" y="224.74" width="42.82" height="6.15"/>
          <rect class="cls-10" x="259.96" y="210.39" width="20.71" height="5.93"/>
          <polygon class="cls-10" points="295.83 206.03 295.83 232.43 283.65 244.35 258.63 244.35 258.63 250.28 286.09 250.28 301.77 234.78 301.77 206.03 295.83 206.03"/>
          <rect class="cls-10" x="95.96" y="106.68" width="12.68" height="6.69"/>
          <polygon class="cls-10" points="106.1 185.62 106.1 178.11 66.49 178.11 60.31 169.43 60.31 157.22 54.91 157.22 54.91 173.05 63.89 185.62 106.1 185.62"/>
          <rect class="cls-10" x="57.25" y="115.45" width="35.26" height="7.51"/>
          <rect class="cls-10" x="95.96" y="118.34" width="12.68" height="6.6"/>
          <polygon class="cls-10" points="198.47 113.05 181.85 113.05 181.85 101.8 174.99 101.8 174.99 113.05 158.29 113.05 158.29 120.71 198.47 120.71 198.47 113.05"/>
          <rect class="cls-10" x="124.38" y="124.89" width="27.97" height="7.17"/>
          <polygon class="cls-10" points="181.43 182.62 181.43 190.19 195.75 190.19 195.75 138.63 174.31 138.63 176.17 126.59 169.65 125.19 159.56 190.19 166.09 191.58 173.12 146.29 189.23 146.29 189.23 182.62 181.43 182.62"/>
          <rect class="cls-10" x="124.38" y="141.62" width="27.97" height="6.97"/>
          <path class="cls-10" d="m124.38,190.19h27.97v-32.25h-27.97v32.25Zm6.27-25.28h15.43v18.31h-15.43v-18.31Z"/>
          <polygon class="cls-10" points="154.56 108.17 141.68 108.17 141.68 101.8 135.06 101.8 135.06 108.17 122.1 108.17 122.1 115.54 154.56 115.54 154.56 108.17"/>
          <path class="cls-10" d="m261.44,151.27h-32.8v33.15h32.8v-33.15Zm-6.44,26.08h-19.83v-18.91h19.83v18.91Z"/>
          <path class="cls-10" d="m215.92,140.82h24.16v-37.33h-30.94v87.99h6.78v-50.66Zm0-30.26h17.71v8.46h-17.71v-8.46Zm0,15.03h17.71v8.36h-17.71v-8.36Z"/>
          <path class="cls-10" d="m274.16,191.48h6.7v-87.99h-30.85v37.33h24.16v50.66Zm-17.72-80.92h17.72v8.46h-17.72v-8.46Zm0,23.39v-8.36h17.72v8.36h-17.72Z"/>
        </g>
        <polygon class="cls-8" points="248.78 190.38 257.61 183.22 257.61 158.22 248.78 165.37 248.78 190.38"/>
        <g>
          <path class="cls-10" d="m55.86,110.15c-4.17-.49-7.44-4.28-7.68-8.45,0-.83-.68-1.51-1.51-1.51s-1.51.68-1.51,1.51c-.23,4.02-3.64,7.96-7.68,8.45-.83,0-1.51.68-1.51,1.51s.68,1.51,1.51,1.51c2.01.26,3.85,1.26,5.15,2.8,1.39,1.47,2.28,3.34,2.53,5.35h0c-.07,1.01.71,1.49,1.5,1.45.79.04,1.58-.43,1.52-1.45.14-2.01,1.76-3.91,3.05-5.33,1.24-1.37,2.74-2.58,4.63-2.82.83,0,1.51-.68,1.51-1.51s-.68-1.51-1.51-1.51Zm-6.77,3.7c-.81.89-1.6,1.87-2.27,2.91-.54-1.06-1.23-2.05-2.05-2.92-.8-.9-1.74-1.64-2.76-2.23,1.95-1.13,3.56-2.76,4.65-4.73.45.87,1,1.69,1.64,2.44.88,1.02,1.94,1.86,3.1,2.49-.85.56-1.63,1.24-2.3,2.03Z"/>
          <path class="cls-10" d="m121.71,190.17c-2.28-.27-4.07-2.33-4.2-4.62,0-.44-.36-.8-.8-.8s-.8.36-.8.8c-.12,2.2-1.99,4.35-4.2,4.62-.44,0-.8.36-.8.8s.36.8.8.8c1.07.13,2.05.65,2.76,1.47.79.81,1.3,1.86,1.44,2.99,0,0,0,0,0,0,0,0,0,0,0,0-.04.53.38.78.8.76.42.02.84-.22.81-.76.07-1.1.95-2.13,1.66-2.91.68-.75,1.5-1.41,2.53-1.54,0,0,0,0,0,0h0c.44,0,.8-.36.8-.8s-.36-.8-.8-.8Zm-3.67,2.01c-.45.49-.89,1.03-1.25,1.61-.31-.61-.7-1.19-1.18-1.69-.43-.47-.94-.85-1.49-1.16,1.1-.62,1.99-1.55,2.59-2.66.25.5.55.97.91,1.4.49.57,1.08,1.03,1.73,1.38-.48.31-.93.67-1.3,1.11Z"/>
          <path class="cls-10" d="m197.25,98.66c-2.51-.29-4.49-2.57-4.63-5.08,0-.44-.36-.8-.8-.8s-.8.36-.8.8c-.13,2.43-2.19,4.79-4.63,5.08-.44,0-.8.36-.8.8s.36.8.8.8c1.18.14,2.27.72,3.05,1.62.8.88,1.51,2.08,1.58,3.29,0,0,0,0,0,.01-.03.52.38.77.79.75.42.02.84-.23.81-.76.08-1.21,1.04-2.35,1.81-3.2.76-.83,1.66-1.56,2.81-1.71.44,0,.8-.36.8-.8s-.36-.8-.8-.8Zm-3.95,2.17c-.5.56-1,1.17-1.41,1.82-.34-.7-.78-1.35-1.32-1.91-.48-.53-1.05-.95-1.66-1.29.69-.38,1.32-.88,1.85-1.5.42-.48.76-1.01,1.04-1.58.29.58.62,1.14,1.05,1.64.55.64,1.22,1.15,1.95,1.53-.56.35-1.07.76-1.5,1.27Z"/>
          <path class="cls-10" d="m292.11,167.25c-1.28-.16-2.45-.8-3.29-1.79-.89-.94-1.45-2.13-1.61-3.41,0,0,0,0,0,0,0,0,0,0,0,0,.04-.64-.46-.94-.96-.92-.5-.03-1.01.27-.97.92-.09,1.28-1.12,2.5-1.95,3.4-.79.87-1.75,1.64-2.95,1.8-.53,0-.96.43-.96.96s.43.96.96.96c2.66.32,4.75,2.73,4.9,5.39,0,.53.43.96.96.96s.96-.43.96-.96c.14-2.57,2.32-5.08,4.9-5.39.53,0,.96-.43.96-.96s-.43-.96-.96-.96Zm-5.87,4.03c-.29-.56-.62-1.09-1.03-1.58-.56-.65-1.24-1.18-1.98-1.59.54-.36,1.04-.79,1.47-1.3.52-.57,1.03-1.2,1.46-1.87.35.68.77,1.32,1.3,1.88.51.57,1.11,1.05,1.76,1.42-1.25.72-2.28,1.77-2.98,3.04Z"/>
          <path class="cls-10" d="m35.38,203.16c-1.29-.16-2.47-.79-3.32-1.76-.95-.98-1.56-2.24-1.73-3.59,0,0,0,0,0,0,0,0,0,0,0,0,.04-.64-.46-.94-.96-.91-.5-.03-1.01.27-.97.92-.09,1.32-1.15,2.57-2,3.5-.82.9-1.8,1.7-3.05,1.85,0,0,0,0,0,0h0c-.53,0-.96.43-.96.96s.43.96.96.96c2.74.32,4.89,2.81,5.05,5.55,0,.53.43.96.96.96s.96-.43.96-.96c.15-2.65,2.39-5.23,5.05-5.55.53,0,.96-.43.96-.96s-.43-.96-.96-.96Zm-6.01,4.16c-.3-.59-.65-1.15-1.08-1.66-.58-.68-1.28-1.23-2.06-1.64.57-.37,1.1-.82,1.54-1.35.54-.59,1.06-1.23,1.5-1.93.37.73.85,1.42,1.43,2.02.52.56,1.11,1.03,1.77,1.4-1.31.75-2.38,1.84-3.1,3.16Z"/>
          <path class="cls-10" d="m329.9,241.16c-2.23-.28-4.27-1.36-5.75-3.05-1.65-1.69-2.7-3.87-2.99-6.21,0,0,0,0,0,0,0,0,0,0,0,0,.08-1.11-.79-1.63-1.66-1.59-.87-.05-1.75.48-1.68,1.6-.15,2.28-1.99,4.44-3.45,6.06-1.42,1.56-3.12,2.94-5.27,3.21,0,0,0,0,0,0h0c-.92,0-1.67.75-1.67,1.67s.75,1.67,1.67,1.67c4.74.56,8.47,4.86,8.74,9.61h0c0,.92.75,1.67,1.67,1.67s1.67-.75,1.67-1.67c.26-4.58,4.14-9.05,8.74-9.61.92,0,1.67-.75,1.67-1.67s-.75-1.67-1.67-1.67Zm-10.39,7.16c-.52-1-1.15-1.95-1.89-2.83-1.01-1.17-2.22-2.12-3.56-2.84.99-.64,1.9-1.42,2.67-2.34.93-1.02,1.84-2.14,2.6-3.33.64,1.27,1.47,2.45,2.47,3.49.89.97,1.93,1.78,3.06,2.42-2.25,1.29-4.1,3.16-5.34,5.43Z"/>
          <path class="cls-10" d="m161.23,256.54c-1.42-.17-2.73-.87-3.67-1.95-.96-1.06-1.81-2.5-1.9-3.95,0,0,0,0,0-.02.03-.63-.46-.93-.95-.9-.5-.03-1.01.27-.97.92-.1,1.45-1.25,2.82-2.18,3.85-.91,1-2,1.88-3.39,2.05-.53,0-.96.43-.96.96s.43.96.96.96c3.02.35,5.4,3.09,5.57,6.12,0,.53.43.96.96.96s.96-.43.96-.96c.16-2.92,2.64-5.76,5.57-6.12.53,0,.96-.43.96-.96s-.43-.96-.96-.96Zm-5.26,2.76c-.5.56-.92,1.18-1.26,1.84-.34-.68-.76-1.33-1.26-1.92-.66-.76-1.45-1.38-2.33-1.83.67-.42,1.28-.93,1.79-1.54.6-.67,1.2-1.4,1.69-2.19.41.84.94,1.61,1.6,2.29.58.63,1.25,1.15,1.98,1.56-.83.46-1.58,1.06-2.21,1.79Z"/>
        </g>
      </g>
      <g>
        <rect class="cls-9" x="26.94" y="50.09" width="285.73" height="43.38"/>
        <path class="cls-7" d="m17.81,89.48h253.82c.87,0,1.57-.7,1.57-1.57s-.7-1.57-1.57-1.57h0s-250.68,0-250.68,0v-40.24h282.59v40.24h-15.39c-.87,0-1.57.7-1.57,1.57s.7,1.57,1.57,1.57h18.53v-46.51H17.81v46.51Z"/>
        <path class="cls-7" d="m282.31,84.42l-9.47,9.47c-.61.61-.61,1.61,0,2.22.61.61,1.61.61,2.22,0l9.47-9.47c.61-.61.61-1.61,0-2.22-.61-.61-1.61-.61-2.22,0Z"/>
        <text class="cls-16" x="35" y="75" textLength="265">産地証明＆流通管理のJDMSOブース</text>
      </g>
    </g>
  </g>
</svg>