<?xml version="1.0" encoding="utf-8"?>
<!-- Generator: Adobe Illustrator 24.0.3, SVG Export Plug-In . SVG Version: 6.00 Build 0)  -->
<svg version="1.1" id="レイヤー_1" xmlns="http://www.w3.org/2000/svg" xmlns:xlink="http://www.w3.org/1999/xlink" x="0px"
	 y="0px" viewBox="0 0 140 140" style="enable-background:new 0 0 140 140;" xml:space="preserve">
<style type="text/css">
	.st0{fill:none;stroke:#000000;stroke-width:0.1364;stroke-miterlimit:10;}
	path {
		display: none;
	}
	path:target {
		display: block;
	}
</style>
<title>A Blank Map of Japan</title>
<desc>This blank map of Japan is based on the geographical data opened
for &quot;Global Mapping&quot; by Geographical Survay Institute of Japan.

  Geographical Survay Institute of Japan:
  http://www1.gsi.go.jp/geowww/globalmap-gsi/download/index.html

  International Steering Comittee for Global Mapping:
  http://www.iscgm.org/cgi-bin/fswiki/wiki.cgi

The original data was rendered  and traced by freehand
to create this map.

                                                    Kabipan-Otoko
	</desc>
<path id="OKINAWA" class="st0" d="M137.8,21.4c0,0,1.5,1.2,1.5,1.2c0,0.1,0.7,2.6,0.7,2.6l-0.1,1l-2.6,4.1l-1.8,0.4
	c0,0-0.8-0.2-0.8-0.1c0,0.1,0.3,1,0.3,1l-0.8,0.3l0.7,1l-2,1.1l-1.5-0.4l0.6,1.1c0,0-1.9,0.3-1.9,0.4c0,0.1,0.3,1.2,0.3,1.2
	l-0.6,0.3l-0.9-0.1l-0.3,1.3c0,0-2.9-1.2-3.5,0.7l1.7,1.6c0,0-0.8,1,0.9,2l0.3,1l-1.7-1.4l-1.4,1.3l-1.5,3.3c0,0,0.4,1.5,0.4,1.5
	c-0.1,0,0.8-0.9,0.8-0.8c0,0.1,0.5,0.8,0.5,0.8c0,0.1-4.3,3.5-4.3,3.5l-0.8-0.3l0.4-2c0,0-0.8-1.4-0.8-1.5s0.4-1.3,0.4-1.3l1.5-2
	c0,0,2,0.1,1.4-2l-1.3-3.4l0.3-0.7l0.6,0.6l1-0.8l0.5,0.3l1.5-1.7l0.2-0.7l0.7-0.4l0.3,0.4c0,0,2.7-1.7,2.7-1.8
	c0-0.1,0.7-1.2,0.6-1.2c-0.1,0-2.6-1.1-2.6-1.1l-0.7-1.6l-0.1-1.3l0.1-0.7l2.2,0.1l1.6,0.6l-0.6,1.3l1.1,0.9l2.1-0.9
	c0,0,0.1-1.9,2-2.4l-0.2-0.9c0,0,2.5-1,2.9-4.1L137.8,21.4z M48.5,95.1l1.4,2.4l0.6,1.3l1.1,0.1l0.5,0.7l1.9,1.6
	c0,0-3.6,0.2-4.4,0.5l-1.3-0.4l-0.6-0.9c0,0,1.2-0.2,1.1-0.2c-0.1,0-0.7-1.2-0.7-1.3c0-0.1,0.4-0.6,0.4-0.6l0.1-1.2l0.6-0.1
	L48.5,95.1z M12.2,112.1l1.7-1.7c0,0,1.3,1,1.2,1c-0.1,0,1.5-0.2,1.5-0.2s0.1-1.2,0.1-1.2c0.1-0.1,1.2-1,1.2-1l0.8-1
	c0,0,0.4-1.1,0.4-1.2c0-0.1,0.2-1.2,0.2-1.2h1l-0.4,1.5l-1.1,1.9l-1.2,1.6l-0.3,4.4l-1.1,0.1l-0.6,0.6l-1.5,0.1l-0.6-0.8l-0.2-0.7
	l0.8-0.6l-0.4-1.3l-1.2,0.2L12.2,112.1z M3.3,112l1.3,1.2l3.7,1.6L7,117.7l-0.7,0.9L5,118.2l-2.2-0.1L1.6,117v0.7H0.3L0,116.9
	l1.5-1.4l1,0.7l-0.1-2.3L3.3,112z"/>
<path id="NAGASAKI" class="st0" d="M67.3,83l-0.6,0.3l-1.3,5.4l0.7,0.4l0.7-0.1l0.6-0.6L67.3,83z M67.6,89.4l-0.3,3l-1.5,1.5
	l-0.1,1.4l1,0.9l-1.4,0.1l-1,1.5l0.2,0.8l1.1,0.4l-0.2,0.9l-1.5-0.1l-1-1.8l-0.8,1.7l1.7,1.1c0,0,1.2,0,1.2-0.1c0-0.1,2.5-1,2.5-1
	l2-2.6l1.5-2.7c0,0-1.1-0.8-0.9-0.8c0.2,0,1.3-0.5,1.3-0.5l-0.4-0.9L72,92l0.5-0.7l-0.9-0.7l1.4-0.6l0.7-1.4v-3.3l-1.8,0.1L72,87
	h-0.9l-0.2,1.5L67.6,89.4z M48,94.4c0.1-0.1,1-1.1,1-1.1l1.5-0.3l0.3-0.7l0.7-0.1c0,0,0.9,2,0.9,2.1c-0.1,0.1-1.1,0.6-1.1,0.6
	l-0.3,1h-1l-1.1-1.2C48.8,94.6,47.8,94.5,48,94.4z M50,101.5l-0.7,2.3l0.2,1.4l0.4,0.7l-0.4,0.7l-0.7,0.5l-0.6,1.4l0.4,0.6v0.9
	c0,0-0.7,0.1-0.8,0.1c-0.1,0-0.2-0.7-0.2-0.7s-0.8,0.3-0.8,0.4c0,0.1-0.3,1-0.3,1l-1.6,0.4l-0.7,0.7l0.7,0.1l1.2-0.6l0.2,0.9
	l0.5,0.7c0,0-0.9,0.7-0.9,0.7c0-0.1-1.2,0.1-1.2,0.1l-0.9,0.9c0,0,0.1,0.7,0,0.7c-0.1,0,1.6,1.2,1.7,1.2c0.1,0,1.1,1.3,1.1,1.3
	s-0.1,1-0.1,1c0-0.1-0.1,1.7-0.1,1.7v1.7l0.2,1.2c0,0,1.4,0.8,1.3,0.7c-0.1-0.1,0-1.5,0-1.5l-0.3-1l0.9-0.5l0.9,0.4l0.2-1.4
	l-0.6-1.1l0.5-0.7l0.4-1.5l0.1-1.2l1.5,0.6l0.6-1l1.7-1.3l0.1-1.5l-0.9-0.7l-1.9,0.9l-1.7,0.3l0.1-2.3l0.5-2.7l1.2-3l-0.9-1.2
	l0.5-1.7L50,101.5z M50.7,98c0-0.1,1.2,1.4,1.2,1.4l-0.7,0.3l0.4,1.6l-1.2-0.7l-0.1-2.2C50.4,98.5,50.7,98.1,50.7,98z M42.6,116.4
	l2.1,0.4l0.8,0.6l0.2,2.2l-0.1,1.2l-2-0.9l-1.5-0.1l-0.6-1.7l-0.1-1.5L42.6,116.4z M41.3,119.7l1.2,2l-0.7,2.7l-0.8,0.9l-1.7-3.3
	l-1.4-0.3v-1.1l1-0.7l0.7,0.9l1.1,0.6l-0.4-1.3l0.7,0.6L41.3,119.7z M37.2,122.3l1.5,1l0.7,1.8l-1.4,2l-2-0.6l-0.9-1.2l0.4-2.3
	l0.7-0.1l0.8,2l0.9-0.3L37.2,122.3z M28.1,128.9l2.2-1c0,0,0.3,1,0.4,1c0.1-0.1,0.8-1,0.8-1l0.7,1l0.3-2.3c0,0,0.7,0.4,0.7,0.4
	c0-0.1,1-1.7,1-1.7l1.1,2.7l1.3,0.6l-0.6,2.9l0.2,0.8l2.6,2.4l-0.4,0.9l-4,0.1l-0.6-1l-2,0.6l-0.1,1.7l1.2,0.7v1l-1,1.3
	c0,0-0.9,0-0.9-0.1c0-0.1-0.2-1.3-0.2-1.3l-0.6-0.7l-3.9-0.2l-0.4,0.9h-1.3l-0.1-0.8l-1.6-0.4l0.4-1.7l0.7-0.1v1.1l1.3,0.1l1.1-3.3
	l-0.9-2.2l0.4-0.8l-0.6-1.4l-0.1-2l0.9-1l1.3,0.1l0.7,1L28.1,128.9z M59.7,9.1c0,0,0.6-2.5,0.6-2.5c0-0.1,0.9-2.8,0.9-2.8l3.3,0.3
	l1.8-3.4l1-0.8l3.2,2.2l-1.2,1.5l1,0.4l-1.2,2.2l-1.4-1.3l-0.7,1.1l1.9,1.2l0.2,1.4l-0.2,1.4c0,0-0.5,1.7-4.5,6l-0.6,1.2l0.8,0.3
	l-0.8,2.5l1.4-1.2l-0.5,3.1l1,0.5l-0.6,1.8l-1.5,1.6l-0.9-0.9l0.1-2.9l-0.8-0.5l-1.3,1.8l-1.1-0.7l0.8-1.4l-0.8-0.3l-1,1.9
	c0,0-2.9,0.6-2.9,0.3s0.1-1.1,0.1-1.1l2.3-0.2l0.3-3.5l1.7-1.8h-1.6L59,15l1.5-2.8l1.5-0.7L59.7,9.1z M54.8,24.8l1.4-0.1l0.1,1.8
	l2.1-0.3l1.1,0.6l-0.9-1.4c0,0,0.9-0.3,0.8-0.3c-0.1,0,1.7,2.1,1.7,2.1l1.4-0.1l1.3-0.3l1.1,0.1L63.7,28l-1.9,0.3l-0.5,3l-1,0.9
	c0,0-1.5,5.6-1.5,5.7c0,0.1-3.1,2.7-3.2,2.6c-0.1-0.1-1.1-1.9-1.1-1.9l-1.4,0.8l0.5-5l0.6-4.8L54.8,24.8z M80.4,56.4l1.5-0.6
	l3.3,0.9l-0.7,2.2l2,1.5c0,0-0.1,0.6-0.1,0.6c-0.1,0-1.5-0.2-1.5-0.2s-0.1,1-0.1,1c0-0.1,1.2-0.1,1.2-0.1v1.8c0,0-3.4-0.6-3.6,2
	l-1.6-0.1l-0.6-1l0.2-1l-1.3,0.1l-0.7-1.5l1.8,0.1l-1.1-1l-0.1-2.2l1.8,0.7L80,58L80.4,56.4z M106,117.6l-1.9,0.8l-2.4,2l1.7,1.7
	l3.4,0.2l2.9-2.2l3.6-0.5l2.2,1.9l1.5,4.1l-0.2,3.6l-1.2,1.7l0.3,1.2l-2.4,2.4l-2.2,0.3l-2.5,2.9l-2.2,0.2l-2.5-2.5l-0.3-2l4.2-3.2
	v-1.9l-1-0.2l-0.3-1.2l0.5-1l-2.9-0.3l-2.7-0.7l-3.2,3l-3.2-1l-0.3,1.5l-3.4,6.4c0,0-2.7,0.7-2.7,0.8c0,0.2-3,3.7-3,3.7l-2.4,0.3
	l1.7-1.5l1.9-3.4l0.8-1.4l-1.5-1.4l2.4-0.3l1.4-2.7l-1.4,1.2l-1.9-2.6l0.2-1.1l-1.8-1.1l0.6-1.4l-1.6-0.1l-0.8,0.7l-1.7-1.4l-1.4-4
	c0,0-1.4-2.6-1.4-2.7c0-0.1-1-0.9-1-0.9l0.1-2.3l0.9-0.8l-0.3-2.8l1.1-1.6l0.6-2.3l1.9,0.4l0.3,0.8l0.7,0.6l0.1,1.2l1.1-0.5l0.3,0.7
	l-1.5,1.8l0.5,1.4l1.5-1.2l0.6,0.3l1.6,0.3l0.9,1.9l-0.7,1.3l-0.1,2.5h-0.8l-0.1-1.5l-0.5,0.3c0,0-0.3,2-0.1,2s1.3-0.1,1.3-0.1
	L87,119l-0.8,0.5c0,0,0,1.1-0.1,1.1s3.1,1.9,3.1,1.9l0.2-1.4l0.8,0.8l0.8-1.9l0.6,0.6l0.5-0.5l1.6,0.8l1.8,0.9l0.1,0.6
	c0,0,1.9-0.2,1.9-0.2s-2.2-2.3-2.2-2.3l0.7-0.3l-0.3-0.5l-1.1-0.4l-1.1-2.2l-0.1-2.2l0.8-0.9l0.3-2l-3.6-3.7h-1.3l-1.6,1.9l-0.4-0.3
	l0.1-1.2l-1.5-1.4l-1.1-0.1l-0.8-1.6l0.7-1.3l-2.5-0.5l-0.6,1.1l-2.2,0.4l-0.4-1.1l1.1-0.8l-0.4-1.6l-1,0.2v-1.5l-0.5-1.2l-1.5,1.3
	L76.3,98l-2.5,0.2l-0.4-4.1l3.1-2.5l-1.6,0.2l-0.8-0.8L74,90.1l0.7-0.2v-2.7l4,0.5l1.1-1.9l0.6,0.4l-0.5,1.9l2.3,0.8l1.4-1.2
	l0.9,0.4l1-0.5l0.5-0.1l0,2l-1.5,3l2.5,3c0,0,0.2,2.4,0,2.2c-0.2-0.2,1.4,2.7,1.4,2.7l5.2,0.3l1.2,3.4l-1.4,0.5l0.8,2.5l2.5,1.2
	l3.4,4.1l5.2,1.5l2.5,0.5L106,117.6z"/>
<path id="FUKUOKA" class="st0" d="M38.6,111.8l12-13.5l10.9-9.4v-12l-4.1-1.1l-7.9,3.8L48.7,82l-2.6,0.4l-1.9-4.5l-14.7-7.2
	L9.2,71.5l-6.8-0.4l0.4-3l8.7-2.6l7.2-6l-6.8,1.1l1.5-3.4L10,57.6l-2.6-3l7.5-0.4l1.9-2.3l-0.4-2.6l6.4-4.1l2.6,0.8l-0.8,3.4
	l5.6,1.9l-1.5,3.8l4.9-0.4l10.2-1.5l3.8-7.2l1.1-4.1h-2.6l-4.9,3.4l-0.8,2.3l-7.2-3l-2.3-3l1.9-2.3l2.3,3.4l4.1,1.1l7.9-7.2l5.3-4.9
	l-0.8-6.8l3-9l4.9-1.9v-3.8l5.3,0.8l1.1,1.9c0,0,4.1,1.9,9.8-3l2.3-5.3l10.2,0.8L90.9,3h6.8l6,6.8l5.3-2.3l3-6l6-1.5l-3,15.8l-3,4.5
	l3.4,1.5l-0.8,6.4c0,0,12,22.2,12.4,22.2s3.8-1.9,3.8-1.9l6.4,2.6l0.4,7.9l-2.6,7.9l-18.1-2.3l-12.4,10.5l-3,9c0,0-4.5,6.4-4.5,6.8
	c0,0.4,2.3,10.5,2.3,10.5l-4.1,1.9l1.1,6l5.6,4.1l-4.5,11.7l-6.4-3l-12.8-6l-3.4,8.3l-9.8-1.5l-0.4,4.1l-8.7,5.6l2.3,6.8L47.6,140
	l0.1-4.8l-0.3-5.3l-2.8-3.5l-1.8-6l-2.9-1.1L38.6,111.8z"/>
<path id="SAGA" class="st0" d="M8.6,70.6L0,60.3L5.2,50l4.4,4.6l4.6,6.5c0,0,1.9-1.1,1.9-1.5c0-0.4-1.9-4.6-1.9-4.6l2.7-9.9l2.3-3.8
	l-0.4-5.7l-5-0.8c0,0-8.8-9.9-8.4-9.9c0.4,0,3.8-6.5,3.8-6.5l5.7,6.9l2.3-1.9l-3.8-11.1l4.2-1.9l4.6-5.3l7.7,0.4l6.1,5.4l-3.4,8
	l5.4,6.1c0,0,6.1,5,10.3,0.4l1.7-5.5l10.3,0.6l31-1.1l22.4,10.9l2.9,6.9l4-0.6l1.1-4l12-5.7l6.3,1.7v18.4l-16.6,14.3L105,81.5
	l2.3,11.5l-12.6-1.1l-1.1-2.3l-8-6.9L70,101.6l-4-3.4l0.6,4.6l6.3,11.5l4.6,12.6l6,4l-0.3,4.3l-3.4-0.3l-8.6-1.7L53.4,128
	l-11.5-13.8l-8.6-4l-2.9-8.6l4.6-1.7l-4-11.5l-17.8-1.1c0,0-5.2-9.8-4.6-9.2C9.2,78.7,8.6,70.6,8.6,70.6z"/>
<path id="KUMAMOTO" class="st0" d="M58.8,91.7l0.7-3.3l2-1.3l-3.6-3l8.9-7.9l4.6-3l-1.6-3L62.8,72l-6.6,2l-5.9,1L50,72.3l8.5-5.6
	l2.3-2.6l4.9-3c0,0,0.3-5.9,0-6.2s0-3.6,0-3.6l-3.3-6.6l-4.9-1.3l-0.3-3.6l-7.9-4.9l-2.6-10.5l9.2-0.3l-2-5.9l7.6-4.9l0.3-3.6
	l8.5,1.3l3-7.2l11.2,5.3l5.6,2.6l7.2,5.3l3.6,1l3,3.6l3-2.3c0,0,1.3-6.2,1.6-6.6c0.3-0.3-4.9-5.9-4.9-5.9l2.3-5.3l3-0.7l8.2,0.7
	l5.6,6.2l4.9,9.2l4.6,12.2l-0.7,9.5l4.6,3.9l3.9,3.3l-5.9,1.3c0,0-5.2,8.7-3.3,8.9l-4.3,3.9l-2.6,6.9l-3.3-1l-2.3,8.2l-2.3,3.6
	l-5.3,0.7L106.2,90l4.6,9.2l2.6,1.6l0.3,5.3l3.9,4.3l-5.9,6.2l-1,3.6l5.9,6.9v5.3l-10.2-2.3l-4.3,6.9l-5.6-2.3l-6.9,4.6H77.2
	l-3.9-2.6l-3-3.9l-4.6-4.6l-6.2,5.6l-8.2,3H45l-4.6-5.3l1.3-4.3l3.3-4.9h3.3V118l3.9-3.3c0,0,1.6-9.2,1.6-9.5c0-0.3,7.9-8.2,7.9-8.2
	V92L58.8,91.7z M37,85.8l4.4-0.8c0,0,2.1,3.3,2.3,3.1c0.2-0.2,3.3-2.8,3.3-2.8l3,0.7l-4.3,12.5l0.2,2.1l-3.8,2.6l-2.8-0.2l-0.3-3.6
	l-1.6,2.3l-4.6-0.3l-1.3-1.8l-1.6,3.1l-2.5-0.5l0.3-2.8c0,0-2.6-2-2.3-2.1c0.3-0.2,0.3-3.1,0.3-3.1L37,85.8z M6.4,112.2l-3.9-0.2
	l-1.6-4.3l2.8-9.2c0,0,4.8-6.6,3.8-11.7l-2.8-2.1l2.5-1.3l1,1.8l2.1,0.8l5.3-3.9l8.1,0.5c0,0,0.5,12,0.8,11.8
	c0.3-0.2-0.2,8.4-0.2,8.4l1.3-0.8l1.3,2.6l-1.6,1.6v3.1l-3,3.1l-1-3.9l-1.8,1.3l-1.6,3.9h3.1l-1.2,1.8l-3.5,0.8l-3.9,6.9L7.2,125
	l2.1,6.9c0,0-2.6,0.5-2.6,0.3s-3.5-5.8-3.5-5.8l1.3-4.9L0,120.8l4.9-6.4L6.4,112.2z M39.9,107.3l2.1,0.3l-2.3,4.3l-4.9,1.3l2.1-1.6
	l0.7-2.8L39.9,107.3z M46,73.5l2.6-0.2l1,1.5L49,78.2l0.2,3.5l-4.6,0.5l1.3-4.3l-2.8-0.5L46,73.5z"/>
<path id="KAGOSHIMA" class="st0" d="M77.9,13.5l0.5-1.4c0,0,1.5-2.3-0.5-3.9l0.5-1l0.2-0.7L78,5.9l0.2-0.8L79,4.6l1,0L80.2,5L81,5.1
	l0.5-0.4l0.5-1l1,1.1h1.3L86,4.2l1.3-1.2l1,1l0.6,0.8l0.8,0.5l-0.3,1.2l1.4,1L91,8.4l0.8,1.2l1,0.1l0.8,1.2l-0.5,1.4l0.2,0.8
	l2.1,0.8l-0.3,0.6l0.9,0.4l0.8,2.7l0.5-0.7l0.8,0.8h0.7l0.5-0.2l0.8,1.6l-0.2,1.9l-0.7,0.4l-0.1,0.8l-1.2-0.3c0,0-2.2,1.3-1.9,2.8
	l1.8,1.1l0.1,0.3l-0.7,0.5l0.1,0.4l0.8-0.1c0,0-1,1.4-1,1.4c-0.1,0-1.3,0.1-1.3,0.1l-0.5,1.4l-0.3,0.8l-2.4,1.4h-0.9l-2.2,1.3
	l-0.9,1.4l-0.5-0.1l0.4-0.7l0.1-1l-0.5-0.4c0,0,1.5-1,1.5-1s0.9-1.9,0.9-1.9l-0.3-0.5l0.8-1.2l0.3-2.3c0,0-1.2-3.1-2.1-3.3l-0.2-1.2
	l0.1-0.9L88,20l-1-0.8l0.6-1l1.2-0.3l0.7,0.4l0.1,1.2l0.6,0.1c0,0,0.8,0.3,1.2-1.7l0.5-0.8l-0.7-1.2l-1.3-0.4L89.1,15
	c0,0-2.5,0.8-1.8,2.1l-0.4,1l-0.5,0.6l0.1,0.6l-0.2,0.6L85.5,21l-0.1,0.9c0,0-0.2,4.3,3.1,5.3l-0.3,1.2L87.7,29l0.3,0.1l-0.2,0.5
	l-0.7-0.1l-0.3,0.5L86,29.9L85.2,30l0.1-0.7c0,0,0.1-1.8-2.9-1.6l-2-0.4v0.5l-1.5,0.1l0.3-0.8l-0.8-0.3l0.5-0.4L78,26l0.6-0.3v-0.6
	l-0.9-0.4l-0.9-1.3l1-0.5l1.2,0.9c0.4,0.1,5.7-4.8-0.6-9.3L77.9,13.5z M76.2,3.3L76.6,3l0.1-0.7l1,0.1l0.3-0.3l0.7,0.8l-0.5,0.4v0.3
	h0.5l0,0.4l-0.5,0.4l-0.4,1.2l-0.3-0.3l-0.7-0.4V4L76.2,3.3z M79.7,0l0.3,0.5l-0.5,0.6L79,1.2L79,0.3L79.7,0z M92.6,48.7
	c0,0,2.8-2,1.9-5.4l1.1-1.9l0.3-0.9c0,0-0.1-0.2-0.2-0.2c0,0,0.7-1.1,0.7-1.1s0.5-0.5,0.5-0.4s0.6,1.5,0.6,1.5l-0.3,0.2l0.1,1.8
	c0,0-0.4,0.8-0.4,0.8c0,0,0.1,1.7,0,1.8c0,0-0.4,0.4-0.4,0.4s-0.1,0.8-0.1,0.9s-0.7,0.3-0.7,0.3l-0.7,1.8l0.3,1.3L95,51
	c0,0-1.6,0-1.8,0.9l-0.5-0.5l0.1-0.7l0-1.1L92.6,48.7z M84.9,48.7l2.4,1.5l1.2,0.8l-0.1,1.6l-1.2,1.7l-1.2,0.6l-2.3-0.1L83.3,54
	l-0.1-0.8l-0.7-1.5l-0.1-1.1l1-0.2l1-1.7H84.9z M56.8,106c0.1,0,2.7-0.9,2.7-0.9l0.8-1l1.4-0.3c0,0,0.8,0.3,0.8,0.2s0.1-0.8,0.1-0.8
	l0.9,0c0,0,0,0.7,0,0.7c0,0,0.4-0.5,0.4-0.5l0-1c0,0,0.6-0.5,0.6-0.5c0,0,1.6-0.5,1.6-0.5l-0.4,1.2l0.4-0.2c0,0,0,0.5,0.1,0.5
	c0.1,0,0.9-0.5,0.9-0.5s-0.3-1.3-0.4-1.3c0,0,0.7-1,0.7-1s0.2,1.3,0.2,1.3l0.5,0.4l-0.2,1.1c0,0-0.9,0.6-1,0.6c0,0-0.9-0.1-0.9-0.1
	l-1.6,2l-0.2,0.5l-1.3,0.5c0,0-0.4-0.4-0.4-0.3c0,0,0,1,0,1c0,0-0.5,0.4-0.5,0.4s0.8,0.9,0.8,0.9c0,0-1.5,0.8-1.5,0.8l0,0.8
	l-1.5-0.3c0,0,0.8,0.8,0.7,0.8c0,0-0.7,0.1-0.7,0.1l-0.9-0.5l-0.5-1.7l-1-0.1c0,0-0.8,0.1-0.8,0c0-0.1-1.2-0.9-1.1-0.9
	c0.1,0,1-0.5,1-0.5l1.3,0.3l1-0.4C59.1,106.6,56.7,106,56.8,106z M56.7,108.9l1.5-0.2l-0.7,0.6c0,0,0.8,1,0.9,1
	c0.1,0,2.1,0.6,2.1,0.6s-0.4,1.3-0.5,1.2c0,0-0.5-0.7-0.5-0.7l-0.4,0.7c0,0-0.5-0.1-0.5-0.2c0,0,0-0.7,0-0.7s-0.8,0.6-0.8,0.6v-1.6
	c0,0-0.6-0.3-0.6-0.3C56.9,110.1,56.7,108.9,56.7,108.9z M72.5,105.5l0.8-0.5l1.1-1c0,0,0.7,0.4,0.7,0.5c0,0-1.3,1.9-1.3,1.9
	c0,0-0.7,0.3-0.7,0.3l-0.6-0.5L72.5,105.5z M50.3,121.3c0,0,0.5-0.7,0.5-0.7l-0.4-1l0-1.1c0,0,0.1-1.6,0.2-1.6c0.1,0,1.7,0,1.7,0
	l-0.1,1.9l1.3,1.2v0.6l-0.9,2.1l-1.5,0.1L51,122C51,122,50.2,121.3,50.3,121.3z M44,129.8c0,0,1.1-0.4,1.3-0.4s1.5-0.6,1.5-0.6
	l-0.6,0.7l-0.9,1.3l-0.6,0l-0.5,0.7c0,0-0.8,0.1-0.9,0.1c0,0-0.5-0.8-0.5-0.8l0-1.1C42.7,129.8,44,129.9,44,129.8z M39.9,139.2
	l0.7-0.6L41,139l0.3,0.9L41,140l-0.7-0.2L39.9,139.2z M70.4,11.9l0.3-0.7l0.6,0l1.1,1.1v-0.6l0.3-0.1l0.1,1.2l-0.5,0l-0.6,0.5
	l-0.3-0.9L70.4,11.9z M70.9,12.7c0,0.1,0.1,0.6,0.1,0.6s-0.2,0.4-0.3,0.4c0,0-0.4-0.1-0.4-0.1l0.1-0.7C70.4,13,70.9,12.7,70.9,12.7z
	 M69.9,14c0,0-0.4,1.5-0.4,1.5c0,0-0.6,0-0.6,0l-0.2,0.6l-0.4,0.8l0.3,0.1L68.1,18l-0.9-0.3L67,17l0.3,0.1l0.4-1.2l0.4-0.7l1-0.3
	l0.5-0.9H69.9z"/>
<path id="MIYAZAKI" class="st0" d="M36.2,69.8l5.1-3.4l4.2,1.7l3.2-5.1l7.6,1.7v-3.9l-4.4-5.1l0.7-2.7l4.4-4.7L54.1,45l-0.2-3.9
	l-2-1.2L48.5,33l3.4-8.8l3.9-0.5l1.7-2.7l1.7-6.1l2.4,0.7l2-5.1l3.2-2.9C65.4,7.5,69.2,1,69.3,1l4.4-1l2.7,2.9l3.9-0.7L84.9,0
	l2.7,2.9l-1,2.9l4.9,1.7c0,0,2-1.5,2.2-1.7c0.2-0.2,9.1-0.5,9.1-0.5l2.7-5.4l8.3,1.5l-0.5,4.9l0.7,3.2l-1,2l0.2,2.2c0,0-2-0.5-2-0.7
	c0-0.2-3.2,2.9-3.2,2.9l-2.4,2.9l1.5,0.5l-2,3.4l-2.4,0.7l-2,3.4l0.5,3.7l1.7-1l1.2,2.7l-2.9,2.4l-2.7-1.2l-0.5,3.2h1.7l0.7,2.4
	l-2.9,1l-1,5.4c0,0-3.4,3.9-7.1,21c0,0-5.4,18.8-6.4,23.5c0,0-1,8.6,2.7,9.5l-2.4,6.6v4.4l0.2,3.4c0,0-5.4,3.9-5.6,8.3
	c0,0-0.2,5.6,0,5.6c0.2,0-2.2,1.7-2.2,1.7l1.5,2.4l-3.4,4.4l1.2,2.7c0,0-1,0.7-1.2,0.7s-2-3.2-2-3.2l-2.7,1.5l-2.7-1.2l0.5-3.7
	l-3.9-2.7l-2.4-0.7l0.2-2.7l2.4-1.5l0.7-6.9l-2.9-5.6l-1.7,0.7H57l-2.9-2.7l-1.7,2.4l-2.9-9.8l-3.2-1.5l1-2.2l-7.3-2.7L39.2,95
	l2-5.1l-2.9-4.4l-3.7-0.5l-2.7-4.4l-0.7-3.2l-5.1-3.4l1-4.2H36.2z"/>
<path id="OITA" class="st0" d="M6.4,74.1l-5.3-3.9L0,64.5l3.9-1.8c0,0-2.1-9.6-2.1-9.9c0-0.4,4.3-6.4,4.3-6.4l2.8-8.5L20.6,28
	l17,2.1l2.5-7.5l-0.4-7.5l7.1,1.1l3.9,3.2H66l5-5l5.3-7.1l6.4-0.7l1.1-2.5L90.5,6l6.7,6.7l3.5,6.4l0.7,6.4l-1.1,3.5l0.7,4.6
	l-3.5,6.7l0.4,2.8l-3.2-1.8l-5.7,0.7l2.8,3.5v1.8l-6,0.7v2.5c0,0-4.6,1.1-5,0.7c-0.4-0.4-2.1-2.1-2.1-2.1s-6.7-1.4-3.5,7.1
	c0,0-1.1,9.2,6.7,7.8l3.9,1.1l9.9-4.3l11.7,5l11.7-3.2l-3.9,6.7L116,72l-4.6,2.5l-0.4,3.9l-2.1,3.2c0,0,5,2.1,5,1.8s4.6-2.8,4.6-2.8
	l2.1,1.4l-6,5.7l8.2,1.8l0.4-2.8l1.4,2.5c0,0,4.3,0,3.9,0c-0.4,0,3.9-5,3.9-5s0,7.5-0.4,7.5c-0.4,0-8.9,0.7-8.9,0.7l-1.4,3.5
	c0,0-2.1,5-2.5,5s3.9,4.6,3.9,4.6l3.2-0.7l2.7,3l1.8-2.7l0.9,2.8l4.6-1.4l3.4,0.9c0,0,0.5,1.4,0.4,1.4c-0.2,0-5,0.7-5,0.7v1.2
	l-2.5-0.9l-0.9,2.3l-2.7-1.4v4.3l2.7-1.1l1.1,1.2l-4.8,3l-2.7,2.7l1.1,2.1l1.1-1.4l1.2,1.8l0.4-2.1l3,0.5l-0.2,1.2
	c0,0-3.5,4.4-3.7,4.4c-0.2,0-3-1.2-3-1.2v2.1l-5.3-1.1l-0.7,4.3l-1.6-2.5l-0.4,5l-2.5,2l-1.1-4.6l0.7-7.1l-12.1-2.1l-3.9,7.8
	c0,0-12.8,0.4-13.1,0.7c-0.4,0.4-3.2,2.5-3.2,2.5l-7.1-2.5l1.4-4.3l-3.9-4.3l-6.7,3.2l-5.7,1.1l-3.9-4.3l-4.3-3.5l-5-4.3l0.7-10.3
	l-5-13.1l-5.3-9.9l-6-6.7l-8.9-0.7l-3.2,0.7l-2.5,5.7c0,0,5.7,6,5.3,6.4s-1.8,7.1-1.8,7.1L17,95.7l-3.2-3.9l-3.9-1.1l-7.8-5.7
	L6.4,74.1z"/>
<path id="EHIME" class="st0" d="M83.8,11.8l0.5-1.5l3.6,0.5l0.8,1.8l2.4-0.3l-0.3,1.4l-1.1,0.3l-4.4,4.8l-1.6,0.2l-0.1-4.6l1.6,0.5
	v-2.1L83.8,11.8z M88,6.6l2.8-0.4l0.4,1.8L93,8l-1.7,2.3L90,9.1L88.6,10l-1.3-1.4L88,6.6z M79.2,3l1.3-2l2.8-1l1.3,0.6l1.6,3.3
	l0.5,3.5l-2.4,1.4l-2.3-0.4L79,10.5l-1-1.8l0.9-1.6l2,0.2l0.5-3.2L79.2,3z M51.2,138.3l-1.7,0.5l-1.4-0.7l0.5-1.7l-5.4,0.7l-2.1,1.7
	l2.4,0.9l-4.7,0.3c0,0-0.3-3.1-0.2-3.1s2.4-1.6,2.4-1.6l-2.1-1.4l1.2-1.7l1.4,0.9l1-0.5l-0.9-2.1l-2.1-1.7l-0.2-2.4l-2.3,0.7
	l-2.8-1.7l-0.5,2.6l-1,1.9l-1.7-1.2l1.6-1.2l0.2-2.9l1.6-1l2.6,2.1l2.4-1l-1.6-2.3l1.4-1.6l-2.6-2.6l4.2,0.5v-1l-5-2.1l0.5-2.6
	l-1-1.9l-2.1,2.1l-1-2.6l2.6-1.4l2.6,0.3l0.9,3.1l3.6,1l-0.3-4l1.9-1.2l0.2-3.3l-4-1.4l0.7-2.4l2.6-1.9c0,0-1.9-0.5-1.9-0.7
	s-5,0.7-5,0.7l-1.7,0.7l-4-1.9l3.6-2.8l0.5-3.3L31.9,94l-0.3-1l0.5-5l1.9-3.1l-3.1-0.9L29,82.5l-2.3,1.7l-1.4-0.5l-1.9,1.6l-3.6,2.4
	l-2.4,0.7c0,0-4.2,2.6-4.2,2.4c0-0.2-0.5,1.7-0.5,1.7l-1.6,1.2l-2.3-0.3l1.2-1.4l-0.2-1l-2.3,1.4l-3.1,2.3L2,95.5
	c0,0,3.6-3.6,3.6-3.8c0-0.2,4.5-3.5,4.5-3.5l1,1.2l0.3-1c0,0,1.4,0.9,1.6,0.9s0.7-1,0.7-1L11.9,87c0,0,1.6-0.9,1.4-0.9
	c-0.2,0,1.2,0.7,1.4,0.9s-0.2-1.7-0.2-1.7l2.1-0.7l1.6,0.9l1.7-1.9c0,0,0.7,0.9,0.7,1c0,0.2,1.6-0.3,1.6-0.3L22,82.9l2.3-0.9
	c2.3-1,10.1-6.6,10.1-6.6c2.9-6.6,10.1-9.2,10.1-9.2c12-5.6,10.9-10.9,10.9-10.9l2.1-0.9l-0.2-3.1l-0.5-3.1l1.7-4.5l-0.7-1.9
	l0.5-2.4l2.6,0.2l1.2-1.6l1-3l0.2-5.2l2.3-1l4.9-4.9l5-0.9l0.2-3.8l-1.6-1l3.3-2.4l2.4,3c0,0,1.9,3.6,1.7,3.6c-0.2,0,3,1.9,3,1.9
	l2.4,6.6l2.8,4l4.2,1.9l3.6-1.4l5-1l2.4-2.4l3.5-1.2l2.3,1l4-0.7l8.9,1.7l3.5-3.3l4-4l1.9,1l2.9,0.3l2,1.7l-0.7,2.7l0.8,6.3
	l-2.2,4.6l-2.8-0.2l-7.3,0.5l-3.6,4.4h-10.9l-6,0.3l-2.9,4.2l-2.1,0.8L97.8,50l-6.5,13.5l-3.1,1.8v3.1l-2.1,3.1l1,3.9l-4.2,6
	l-4.2,1.6l-10.2-0.5l-2.1,1.8l3.9,8.6l3.4,3.6l-2.1,3.4l-5.7,2.6l-2.3,2.9l-0.3,4.2l-2.1,0.5l-4.4,6.5l-5-5.2l-1.6,1l2.6,6.5
	l1.8,0.8l1.3,15.1l-2.3,1.6l0.3,1.8L51.2,138.3z"/>
<path id="KOCHI" class="st0" d="M89.5,13.5l5.3,1.6l5.8-0.3l5,4.8l4-1.1l0.8-2.4l2.1-1.1l4.8,2.1l2.9,10.3l-1.3,2.6l9.5,0.8l1.6,4
	l-2.9,2.4l4,5.8L140,45l-1.9,3.1l-3.4,5.5l-0.3,1.8l-2.6,4.8l1.1,1.1l-1.8,3.2l-1.6,11.1l-3.2-4.8h-2.6l-0.3-3.7l-3.7-3.4l-1.8-0.5
	l-0.3-3.4c0,0-9.2-4.2-7.9-7.7l-7.7-2.9l-6.6-0.5l-1.8-2.4c0,0-8.2-0.8-13.7,2.6L78.4,51l-8.7,4.2L65.9,56L62,58.1l0.8,0.7l4-1.1
	l3-1.2l0.3,1.5l-4.2,1.8L61.2,60l-2,1.6l-2.1,1.3l-1.7-0.5l-2.1,1.3l0.5,0.7v2.1l-2.5,0.8l-0.1,1.2l2.6,0.7l-2.1,1.6l1.5,1.5
	l0.3,6.3c0,0-1.7,2.1-2.2,2.1s-1.6,1.1-1.6,1.1l0.4,2.9l-2-0.4l-2.5,2.5l-2,4.8l-2.1,0.8l-1.3,6.5c0,0-7.1-6.2-8.7,7.5l1.2,3.6
	l-0.1,3.4l-1.6,1.3c0,0-2.4,0.1-2.4,0.5c0,0.4-0.4,5.1-0.4,5.1l3,2l2.2,3.6l0.3,3.4l-4.5-0.5l0.4-1.8l-2.6-2.8l-5.7-1.2l-2,0.3
	l-1.2,2.1l-2.9,1.2l-3.4-0.9l-3.2-3.3l-1.7-0.3l-3.7,1.5l-0.3,1.6l-1.6-0.5l0.3-2.6l2.8-4.4l-0.5-1.5l2.9-3.4l1.6,0.3l-0.1-3.7
	l-4.5-0.3L3.4,107l2.4-1.6L4.5,90.1l-1.8-0.8L0,82.7l1.6-1.1l5,5.3l4.5-6.6l2.1-0.5l0.3-4.2l2.4-2.9l5.8-2.6l2.1-3.4l-3.4-3.7
	l-4-8.7l2.1-1.8l10.3,0.5l4.2-1.6l4.2-6.1l-1.1-4l2.1-3.2v-3.2l3.2-1.8L48,19.3l2.4,1.8l2.1-0.8l2.9-4.2l6.1-0.3h11.1l3.7-4.5
	l7.4-0.5l2.8,0.2L89.5,13.5z"/>
<path id="TOKUSHIMA" class="st0" d="M120,16.1l1.6-2l1.5,0.9l0.3,2.1l2.2,0.2l-0.7,5.4l-4.3-1.5L120,16.1z M7.5,50.3L7.9,47l7.4-5.3
	l5.3,1.2l0.8-3.7L36.2,36l4.5,6.6l5.3-2.5l3.3-4.5l8.2-0.4l3.3-2L60.4,29L78,24.5l11.9,1.6l6.6,2l1.6-1.2l2-5.5l3.3,0.1
	c0,0,3.5-5,12.2-2.6l0.9-2.6l2.4,0.4l0.4,2.6l-0.4,3.3l7.2,3.5l-4.4,8.7l-1.5,7.2c0,0,0.4,10,0.2,10c-0.2,0,1.7,3.5,1.7,3.5l2.6,0.2
	l-0.4-2.8l1.7,0.4c0,0,0.4,6.7,7.4,9.1l0.2,5.9l-3.5,4.4l-4.6,2l0.9,3c0,0,5.9,0,6.1,0c0.2,0,2.8-0.4,2.8-0.4s0.2,2.2,0.2,2
	c0-0.2-3.9,0.9-3.7,0.9c0.2,0,0.2,1.1,0.2,1.1l4.4-0.2c0,0,1.7-1.7,2-1.7c0.2,0,1.5,1.3,1.5,1.3l-12.8,7.6c0,0-3.7,0-3.5,0
	c0.2,0-2.2,3-2.2,3l-3.9-0.4l-0.7,5l-3.3,0.6l-0.7,3.3l-14.4,8.3l-3.9,0.4L90,114l3.3,0.4c0,0-3,3-2.8,3s0.2,3,0.2,3l-5.9,0.2
	l-1.7,5.1l-14.1-3l-6.1-9l4.5-3.7l-2.5-6.1l-14.8-1.2l2-4.1l-4.5-16l-7.4-3.3L37,81.1l-1.2,3.7l-6.1,1.6L21.9,79l-9,0.4L4.6,77
	L0,73.1l3.4-7.2l-1.2-9.8l1.1-4.2L7.5,50.3z"/>
<path id="KAGAWA" class="st0" d="M9.8,111.9L10.3,99L9.8,86.6L0,78.3l0.5-3.6l8.8,5.7l5.7-1.5l1.5,2.6l11.4-10.8l15-8.3l7.7-4.6
	l1.5-5.7l6.2-1.5l12.4,5.2h12.9l-0.5-5.2l4.6,2.6l2.6-6.7l4.1,4.6l-1,8.8l3.6,2.6l0.5-3.6l5.2-3.1l4.6,3.6l2.1-1l0.5,6.2l-1,3.6
	l17.6,10.3l3.6-3.6l9.8,11.6l-2.6,7l-2.1,1.5l-8.3-2.6l-15-2.1l-22.2,5.7l0.5,5.2l-4.1,2.6l-10.3,0.5l-4.1,5.7l-6.7,3.1l-5.7-8.3
	l-18.6,4.1l-1,4.6l-6.7-1.5l-9.3,6.7l-0.5,4.1l-5.3,1.9l-4-3.4l-5.7-0.5l-3.8-1.9L9.8,111.9z M95.5,20.6l2.4,2.6l7-0.4l6.6-5.4
	l6.4,0.9l2.6-2.8l8.1-0.2l-4.7,3.2l3.8,1.9l-0.8,5.6l-2.4,5.4l1.7,0.9l-2.8,7.7l-2.6-3.4l-3.4,0.2l-1.7,1.5l-1.3-0.9l0.9-2.3
	l2.8-0.4h2.4l-0.8-2.1l-2.4-1.3l-2.4,1.5l-2.8,0.6l-3.2,10.5l-3,0.6l2.3-9.6l-2.3-3.6l-5.3-0.8l-4.1,3.8l-3.4,0.4l-0.6-2.4l2.8-4.9
	l0.2-2.8l-3.4-0.9L95.5,20.6z"/>
<path id="YAMAGUCHI" class="st0" d="M114.1,105.7l5.2-4.6l3.9,2l1.9,3.1l2.4,2l3.3-2.4l3.1-0.6l0.6-2.4l2.4,0.2l1.3,0.7l1.9-0.6
	l-2.2,2.2l-2.4,0.2l-0.4,1.7l-3.5-0.2l-0.9,3.3l0.7,3.5l-2-1.7l-2.2,0.2l0.2-2.2l-4.1-1.5l-1.1,2L118,111l-0.9,1.8l-0.7-2.2
	l-2.2-1.7V105.7z M105.7,50l-0.5,9.5l4.5,3.1c0,0,2.4,10.4,2.3,10.4c-0.1,0,3.9,0.5,3.9,0.5s0.3,2.3,0.4,2.4
	c0.1,0.1,3.2-1.3,3.2-1.3l-0.4,3.4l1.1,3.3l-1.7,2.2l-2.2,2.2l0.8,11.9l-3.6,3.9l-4.2,1.1l1.4,6.4c0,0,1.4,4.2,1.9,4.2
	s-3.1,1.4-3.3,1.4s-0.8-3.6-0.8-3.6s-5-5-4.7-4.7c0.3,0.3-2.5,1.7-2.5,1.7l-3.1-2.2l-6.4-3.9l-4.4-3.3l-2.8-1.9l-2.2,1.9v2.2
	l-3.9-2.2l5.3-3.9l-6.4-4.2l-11.7,1.7l-3.9,6.7l-5.3-1.9l-0.3-1.7l-4.2-1.4l1.4,2.5l-3.9,1.9c0,0-4.2-5.8-4.4-6.1
	c-0.3-0.3-3.3,9.4-3.3,9.4l-6.4,4.2l-5.8-2.2l-2.5,1.7l-1.7-2.5l0.8-2.2L20,93.8c0,0-4.4-1.4-4.7-1.4c-0.3,0-5,7.5-5,7.5l-4.4,3.6
	l-1.7,3.1L1.4,103h2.2L4.2,91L0,86.6l0.6-3.3l5-5.6c0,0-0.6-5.6-0.6-5.8s-3.6-5.8-3.6-5.8l1.9-7.2L6.4,60l8.1-2.5L12.8,55
	c0,0-4.2-0.8-4.7-1.1c-0.6-0.3,1.9-3.3,1.9-3.3s3.9,3.1,3.6,2.8c-0.3-0.3,5.3-1.4,5.3-1.4l4.4,1.4l2.5,3.9l4.7-0.6l9.2-1.4l1.9-2.8
	c0,0,5-0.6,5-0.3c0,0.3,5-8.1,5-8.1l-0.3-1.7c0,0,0.8-1.7,0.8-1.9c0-0.3,3.1-0.3,3.1-0.3l5-5.6c0,0-0.6-2.2-0.6-2.5
	c0-0.3,1.7-1.7,1.7-1.7l2.2-0.3v-2.5l2.5-1.9l1.7,2.5l3.8-3l0.9,2.4l-0.4,2.6l2.2,1.5v4.4l-1.3,2l-0.2,3l-3,2.4l2.6,3v3.5l1.7,1.3
	l2.8-0.7l4.1,0.7l-2.4,5.7l1.3,4.4l3.7,3.1l5.2-0.6l3.3-3.3l3.5,3.3l0.6-3l2.4-3l1.3,0.2L98,52.2l3.1-4.3l3.1-0.9L105.7,50z"/>
<path id="HIROSHIMA" class="st0" d="M126.7,16.5V20l-1.6,1.6l-0.6,9.8l7.3,9.2l-0.6,9.2l3.8,7.9l-1.9,6.9l6.9,9.2l-0.6,10.1
	l-1.1,2.1l-0.8,2.3l-2.5-2.1V88l-1.7,1c0,0,0,3.8,0,4c0,0.2-3.6,2.1-3.6,2.1l-1.7-1.7l-4.6-0.6l-2.1,1.1l-0.6-1.9l1.7-1.9l-0.4-2.7
	l-1.9-1.3l-1.3,2.3L107,93.3l-3.2-1.7l-0.8,5.9l-4.2,1.9l-8.8-0.6l-0.6,1.9l-7.4,0.6v1.9h-2.7v-1.5l-3.6-0.2c0,0-1.5,3.8-1.3,4.2
	c0.2,0.4-3.4-0.2-3.4-0.2l0.2,2.5l2.3,0.6l-2.7,2.1l-5.7-0.2v2.1l-5.3,2.5l-4.2-3.2c0,0-2.5,3.6-2.5,3.8c0,0.2-2.9-0.2-2.9-0.2
	l-1.1-3.4h1.7l1-1.7l-4-1.5l-0.8-4.8l-1.5-3.6l-2.7-4.2l-2.5,1.1c0,0-6.1-1.7-6.5-1.7c-0.4,0-5.9,2.1-5.9,2.1v3.2
	c0,0-9.1,7.4-9.3,7.6c-0.2,0.2,0,2.7,0,2.7l1.3,2.3c0,0-3.5,1.6-3.7,1.5c-0.1-0.1-0.4-2.7-0.4-2.7s-4.6-0.6-4.5-0.6
	c0.1,0-2.6-11.9-2.6-11.9l-5.1-3.5l0.6-10.9l-1.6-3.4l-0.6-3.2L0,78.7l1.7-3.2l2.9-1.7l1.9-2.1L8.6,68l-1.1-2.9l4.6-9.3l-2.9-1.7
	l2.7-3.6l6.1-1.9l2.7-7.2l4.8,2.9l1.7-2.3l2.1,0.8l4.8-0.6V44l1.7,0.2l2.5-2.3l-0.4-1.5l1.9-0.6l1.7,1.9l7.8,0.4l7.6-5.1l5.7,0.4
	l0.4-1.7l2.3,0.6l0.2-4.2l-6.1-2.5l5.7-6.7h5.1l4-6.5L84.6,4.8L87.6,8l5.7-0.2L95,5.9l6.1,3.6l0.4-1.7l6.9,0.2l2.5,1.3l8.5-0.9
	l2.2,1.6L126.7,16.5z M80.2,116.4l2.5,2.4l-3.7,2.5h-2.5l-0.5-2.1L80.2,116.4z M71.9,118.1l-2,2.1l-0.6-1.3l-4-1.4l-0.7-1.7l1.1-0.9
	l3.6,1.3l1.7,0.1L71.9,118.1z M72.7,118.5l1-1.6l1.1,2l-0.1,1l-2,1.1L72.7,118.5z M80.2,110.7l4.5-3.3l0.8,1.8l2.8-3.7l1.5,0.5
	l-2.4,5.1l0.1,3.1l-5.5,0.7l-2.2-1l-0.2-2.2L80.2,110.7z M102,106.9l1.8-4.3l4.8-0.7l1.4,1.7l-4.9,4.9l-2,0.3L102,106.9z
	 M110.3,96.6l2.4,0.2l3.9,4.8l-1.8,1.1l0.9,1l-1.7,2.6l-2.5-2.8l-2.2-3.4L110.3,96.6z M45.5,121.5l0.2-3.4l1.5-2.1l3.8,1.5l0.4,1.9
	l-3.4,1.1l0.2,1.5h2.7l-0.2,4l3.2-1.3l1,2.3l-1.9-0.2l-4.2,8.4l-1.1-0.8l2.1-4.2l-1.3-2.3l-5.9,1.7l-2.3-1.9l6.3-4L45.5,121.5z
	 M38.3,118.7l-0.6-2.9l-3.2-3.2l-0.4-4.6l3.8,0.8l2.7,4l2.3,0.8l0.4-2.5l-1.5-2.5l-1.5,0.2l-0.6-3.2l4.6-0.4l0.4,6.7l-0.2,2.7
	l-1.9,2.9l1.9,2.7v1.5l-5.7,1.9l-0.2-2.1l2.3-2.9l-1-2.1 M23.6,111.4l-1.1-2.3l1.9-1.9l0.4-1.7l2.9-1.5l1.3-1.5l2.1,2.1l-5.9,6.5
	L23.6,111.4z"/>
<path id="OKAYAMA" class="st0" d="M2.7,41.8l0.4-3.9l3.5,1.6L18,36l-3.1-7.8l2-2.7l5.5,2.7l9-2.3l-2.3-7.4l7.4-2.3l3.9-14.5l9.8,4.3
	l2.7-1.2l11.7,5.1L68,16l2.7-0.4l2.7-6.3l7.8-2l0.8-3.9l9-2.7L89.9,7l12.1,0.8l4.3,5.1l5.1,14.5l10.6-6.3l6.3,2l9.8-7.4l0.6,2.9
	l-2.9,2.2l0.8,3.9l3.1,2l0.4,5.5l-5.5-0.8l-2.3,9.4l-3.1,0.4l-0.4,5.9l-6.6,3.1l2,4.3l-0.4,5.1l-3.1,3.5l3.5,5.9l-3.1,10.9l5.1,2
	l3.5,8.2l-0.6,5.3l-4.5-0.6l-5.1,2l-2-2h-3.1v3.9l4.7,2l-2.7,2.7l-5.1,3.9l0.8,3.1l-3.5,2.3l-4.7,3.1l-5.1,0.8l-0.8-2.7l-7-1.2
	l-7.8,2l1.6,2l7.8-0.8l2.3,2.3l-2,4.7l-2.7,0.4l-0.4,3.1l-2.7-2.3l-2,2.3l-0.4,4.3l-2,3.1l-2.3,4.3l-6.3-2.7h-7v3.5l-4.3,0.4
	l-4.3-10.6l-0.4,5.5l-3.9-0.8l-0.8-9.4l-3.5,3.1l-9.4,6.6l-12.1,3.1l-6.3-0.8l0.8-12.5l-8.6-11.3l2.3-8.6l-4.7-9.8l0.8-11.3l-9-11.3
	l0.8-12.1l2-2v-4.3L0,44.6L2.7,41.8z"/>
<path id="TOTTORI" class="st0" d="M12.8,43.6l-0.8,3c7.5,12.6,16.9,7.1,16.9,7.1l3.2-4.2H35l4.2-2.6l7.5-1.6
	c10.7,6.8,33.1,2.6,33.1,2.6l8.8-2.3l3.2,1.3c24.3-2.6,24.3-6.5,24.3-6.5l2.6-3.6l3.9,0.3l3.7-1.5l3.1,5.3l2.9,15.6l4.2,1.9l-1,5.2
	L140,67v9.4l-7.8,6.8l-3.7-0.5l-0.5-2.4l-8.1,6.2l-5.2-1.6L106,90l-4.2-12l-3.6-4.2l-10-0.6l1-5.2l-7.5,2.3L81,73.5l-6.5,1.6
	l-2.3,5.2L70,80.6l-2.9-5.2l-9.7-4.2l-2.3,1L47,68.6l-3.2,12l-6.2,1.9l1.9,6.2l-7.5,1.9l-4.5-2.3l-1.6,2.3l2.6,6.5l-9.4,2.9
	l-2.9-1.3l-0.3,3.2l-2.3,2.3l-2.3-1.6l-8.8,1L0,102.3l1.9-7.8L6,92.4L5,86.8l-2.6-0.6l2.4-3.2l13-3.7l-0.6-5.6L16,68l3-2.2l-0.4-6.5
	l1.4-0.1l-0.5-1.5l-1.9-0.8l-2.3-1.4l-5-5.3l-1.8-2.4l-1.2-2.4L9,43.7h2.4L12.8,43.6z"/>
<path id="SHIMANE" class="st0" d="M100.3,86.7L100.3,86.7l-0.2,0.9l-3.4-2l-0.9,1.1l-3.2,0.1L90.8,85L85,91.5l-2.3,3.7h-2.8L76.7,99
	l3.4,1.4l-0.1,2.4l-1.3-0.4l-0.2,0.9l-3.2-0.2L71,106l-4.4-0.2l-0.9-1.1l-1.1,0.4l0.2,0.8l-1.4,1.3l-0.9-0.1v-0.9l-2.7,0.4l-1.2-0.5
	l-0.9,1.3l-2.7-1.7l-1.5,4l-3.4,1.1l-1.5,2l1.7,0.9l-2.6,5.2l0.6,1.7l-1.2,2.1l-1.1,1.2l-1.7,0.9l-0.9,1.8l1.1,0.2l0.4,1.8l-2,0.6
	l-2,2.7l1.2,4l-0.8-0.1l-1.5,1.9l-0.4,1.9l-2.3-2.1l-2.1,2.1l-3.3,0.4l-2.4-2l-0.8-2.8l1.5-3.7l-2.6-0.5l-1.8,0.5l-1.1-0.8v-2.3
	l-1.7-1.9l1.9-1.5l0.1-1.9l0.8-1.3v-2.8L24,118l0.2-1.7l-0.6-1.5l3.7-0.4c0,0,7.1-0.8,6.4-5.3l4.1-2.3l1.1-2l1.5-0.9l1.1-2.7
	l1.2-0.5l1.8,0.2l0.7-3l2.4-2.6l6.9-5.3c0,0,3.7-1.7,3.8-1.7c0.1,0,1.2-2.8,1.2-2.8L63,83l0.4-2.8l9.4-6.5c0,0,7-1.4,5.7-9.1
	c0,0-2.6-0.7-2.6-0.8c0-0.1-0.1-1.2,0-1.2s3.9-1.1,3.9-1.1l3.3,0.2l0.2-0.6l-1.9-1.3l4-0.6l3.1-2l6.4-0.4l0.6-2.4l2.7,0.7l1.5-1.5
	l-0.5-1.1l2.6-0.4c0,0-0.2-1.5,0-1.5c0.2,0,1.9,0.8,1.9,0.8l0.9,2.4L108,53l3.1-0.5l3.6,0.5l0.1,0.8l-2.7,0.2l-0.8,0.5l-0.7,0.1
	h-1.3l-1,1l-2.6,0c0,0-1.1,1.5-1.2,1.5s0.6,2.3,0.6,2.3l-1.4,2l1.8,0.3l1.6,0.9l2.3-1.2l4,1.6l0.1,0.6l1.1-0.3l0.2,3.6l-1.7,1.2
	l0.6,3.1l0.4,3.1l-7.1,2l-1.3,1.8l1.4,0.4l0.6,3.1l-2.3,1.2l-1.1,4.3L100.3,86.7z M99.5,60.5l-1.9-1.2H94l-1.8,1.3l-3,0.4l1.9,3.6
	l0.7-0.9l5.5-1.3h1.3l0.6-0.8L99.5,60.5z M102.8,15.2l1.7,0.9l-0.3,1.6l-0.7,1.2l-2.8,2.1l0.3-3.8L102.8,15.2z M95.1,19.5l-1.2-0.1
	l0.1-1.9l1.4-2.1l1.4-0.1c0,0,0.8-1.3,1-1.3c0.2,0,1.6-0.1,1.6-0.1l0.5,0.6c0,0,0.9-0.8,0.9-0.9c0-0.1,0.7,0.3,0.7,0.3l-0.4,1.8
	l-2,0.3l0.7,1.1l-0.3,1.6l-1.8,0.1l-0.4-2l-1.3,0.5l0.2,2.1l0.2,1L95.1,19.5z M97.2,21.6c0.1,0,2.1,0,2.1,0l0.1,0.7l1.5,0.5
	l-0.2,0.9l-3.1-0.4C97.5,23.3,97.1,21.6,97.2,21.6z M112.6,0c0,0.1,4.9,3.9,4.9,3.9s-0.4,5.4-0.3,5.4c0.1,0-1.4,0.7-1.4,0.7l0.1,1.8
	l-3-0.7l-1.5,0.8l-1.6-0.3l0.3-1.2l-2.3-1.7l-0.6-3.2l0.7-2.6l2.1-2.2C109.9,0.8,112.6-0.1,112.6,0z"/>
<path id="HYOGO" class="st0" d="M38,41.1l5.9-5.1v-7.1l-3.4-2.4l0.7-3.9L38,21L35.8,9.3l-2.3-4l10.1-5L51.9,2l2.9-2h9.8l6.1,1
	l0.5,3.4l-1.5,2.7l4.6,4.4l1,2.4l8.6-2l-0.2,4.6l0.7,6.8L81,26.4l-4.2-2.7l-2.2,5.4l1.2,4.9l10.5,6.1l2.2-2l4.2-0.2l3.4,6.4
	l-0.5,2.4l2,1l1.5-2l3.9,0.7l-0.2,2.4l7.6,2.2l1,3.4l-2,4l-2-0.6l-1.2,2.4l2,0.5l-0.7,4.4l8.6,4.4l-2.9,0.7l0.5,2.2h1.7l-2.7,7.6
	l3.7,7.6l-3.9,4.5l-6.1-2.6l-2.9,1.5l-1,1.7l-2.7-1l-2.7,1l1.7,2.9l-2.9-2L94,96.3l-9,1.5l-3.2-1.7l-3.4,0.5L60.2,83.8l-19.3,0.7
	l-1.5-4.6l-1,4.6l-2,3.9l-7.5,0.1l0.4-3.3l-2.2-5.1l-3.2-1.2l2-6.8l-2.2-3.7l2-2.2l0.2-3.2l-1.2-2.7l4.2-2l0.2-3.7l2-0.2l1.5-5.9
	l3.4,0.5l-0.2-3.4l-2-1.2L33.3,42l1.8-1.3L38,41.1z M56.3,134l-0.9-4l1.5-3.3l2.2,0.6l2-1.2l0.9-4.7l3.1-3.9l0.3-2.1l1.9-2l2.1-0.1
	l1.2-3.9l1.9-2.2h1.4L75,106h1.2l4.4-6.1l2.7,3.1l-2.4,2.9l-0.3,2.8l-3.1,3.6l-2.6,3.2l-1.6,3.4l-0.2,5.2l4.4,6.4l0.2,1.3
	c0,0-8.6,3.7-11.5,6.6c0,0-3.1,0-5.2,1.5l-0.4-1.8l-0.7-0.9h-1.6v-0.8l1.2-1.7v-1.4l-1.1,0.9L56.3,134z"/>
<path id="KYOTO" class="st0" d="M64,89.5l-1.4-4.7l-10.5-3.1l0.3-3.4l-5.4-1L45,80l-2.7-1.4l0.7-3.4l-4.7-8.8l-5.8,0.3l-3.1,2.7
	L14.8,61l-1.7-6.8l3.1-7.5l5.8,3.7l4.7-4.1l-1-9.5l0.3-6.4l-11.9,2.7l-1.4-3.4l-6.4-6.1l2-3.7l-0.7-4.7l6.4,1.2l4.3-2l2.1-4.2
	l5.4,0.2l5.3-4.6l-0.2-1.7L46.1,0l6.4,5.6l2.2,4.9l-0.4,4h-1.2L53,12.5l-2.8,1.6l-1.5,5.3L42,27.6l0.5,2.3l1.8,0.6l0.1-2.7l4.6-5.1
	l-0.2,3.1l2.1,0.9l0.2,1.8l-3.5-0.2v2.1l7.3,3.3l0.6-1.5l1.7,0.1l0.1,4.2L55,39.6l0.7,2.6l4.2-4.2l3.9,0.7l0.5-4l-4.5,0.6l-1.5-5.7
	l8.3-2.6l4.4-5l-0.7,3.8l2.7,2.4l-3.6,4.3l3.4,2.7l-1.6,5.4l6.6,5.9v5l10.6,1.6l8.4,3.6l2-1.6l4.3,0.7l5.3,4.5l2,4.4l3.1-0.7
	l-3.4,8.1l3.1,8.5l-4.7,15.6l6.1,11.9l-0.3,7.1l3.4,2.4l3.1-0.7l10.9,8.5l-2.4,2l1.7,1.7l2.9,6.6l-2.1,4l-4.7-0.5l-0.7-3.9l-6.5-1.1
	l-3.3,5.8l-7.8-0.9l-6.2-2l-3.5-6.4l1.9-4.6l-7.5-11.9l-2.4-3.7l-4.4-0.3l0.7-5.4h-4.7l-1.4,3.7l2.4,0.3v3.1l-2.7,0.3l-6.4-4.4
	l-0.3-5.4L62.6,99l-1.4-3.9L64,89.5z"/>
<path id="OSAKA" class="st0" d="M75.9,56.7l-7-14.4l5.1-14.4h-3.3l-0.9-4.2l5.6-1.4L59.2,14l1.4-8.4l-3.7-0.9L59.2,0l3.7,1.2
	l1.9,5.3l15.3,4.7l0.5,7.4l8.8,6l3.7-0.5V20l-3.3-0.5l1.9-5.1h6.5l-0.9,7.4l6,0.5l3.3,5.1l10.2,16.3l-2.6,6.3l-3.5,5.3l-0.5,4.7
	l-3.3,5.6l-3.3,15.8h3.7l0.5,3.7l-4.2,4.7l0.9,3.3l3.3,2.8l0.9,13.5l-2.8,4.2l1.4,1.9l-0.5,2.8l-3,3.3l-7.2-0.9l-14,8.4l-2.3-3.3
	l-14.4,4.2h-6l-9.3,5.6l-0.5-3.7l-11.2,2.8l-0.5,3.7l-14,1.9l-1.6-6l5.8-2.8l11.2-4.2l14.4-14L71.3,94l4.7-9.8l-0.5-7.9l-8.4-7.9
	l1.4-3L75.9,56.7z"/>
<path id="WAKAYAMA" class="st0" d="M125.4,109.2l0.4,3.6l-6.4,1.6l2,3.6l-2,3.6l3.2,2.4l-20.4,13.2l-4.8,2.8l-15.2-3.6l-15.2-4
	L52.2,124l-2.8-11.2l-4.8,0.4l-0.8-2.4l6-2l1.6-6L27,88.4l-5.2-9.2l-3.6-2.4l-7.6-0.4l1.2-6l4.8-4.4l-4.8-0.8l3.6-5.2l8-6.4l-8-5.6
	l1.2-6.4l2-3.2l6.4-1.6v-5.6l-3.6-0.8l-2.8-8l-7.6-4l3.8-6.8l1.4,5.2l12-1.6l0.4-3.2l9.6-2.4l0.4,3.2l8-4.8h5.2l12.4-3.6l2,2.8
	l12-7.2l6.2,0.8L85,4.4l1.6,10.8l6,2.8l1.6,6.4l-2.4,2.8l-5.6-2.4l-16,22.4l7.2,6l-0.8,4l3.2,1.2l3.6,5.6l-5.2,9.2l3.6,5.6l6.4-4
	l9.2,1.6l6-2.4l5.4,2.4l1.8,2.8l-0.1,5.4l-0.1,4.6l3.5,1.1l6.1,7.7l5.1,2.9l4.4,0.7L125.4,109.2z"/>
<path id="NARA" class="st0" d="M44.3,58.4l0.4-2.4l-1.2-1.6l2.4-3.6l-0.8-11.6l-2.8-2.4l-0.8-2.8l3.6-4l-0.4-3.2h-3.2l2.8-13.6
	l2.8-4.8l0.4-4l3-4.6l4.2,7.5l7.3,2.3l9.2,1.1L75,4.1l7.7,1.3l0.9,4.6l5.5,0.6L91.5,6l3.8,9.4l-4.8,13.6l8,6.4l4-2.4l3.2,2l0.8,5.2
	l5.2-2l0.8,5.2l-2.4,6.8l-12.4,2.8L94.1,60l7.2,10.4l-4.4,2.4l4.8,8.8l-6,8.4l3.2,3.2l-0.8,12.8l-0.8,9.7l-8.8-1.3l-7.7,8.8h-6.1
	l-2.4,4.2l-1.1,6.1l-3-1.6l-0.1,8.3l-2.2-3.4l-5.4-2.4l-6,2.4l-9.2-1.6l-6.4,4l-3.6-5.6l5.2-9.2l-3.6-5.6l-3.2-1.2l0.8-4l-7.2-6
	l15.9-22.3l5.6,2.4l2.4-2.8l-1.6-6.4l-6-2.8l-1.6-10.8l-0.6-3.6L44.3,58.4z"/>
<path id="SHIGA" class="st0" d="M32.5,47.9l0.8-3.7l7.1,1.6l5.5-4.5L45.6,34l3.4-5.8l5.3,4l15.3-7.9l0.8-5.3l7.1,1.3l0.5-3.7L73.8,5
	l1.3-4L78.3,0l4.5,2.4l8.2,4.2l1.1,5.6l3.6,0.2l0.3,10.8l3.7,1.8l2.9-2.9l3.2,6.1l4.2,20.5l-2.4,2.4l-1.8,10.8l-1.7,8.3l3.5,3.8
	l-0.7,5.5l5.9,3.6l-2.4,7.9v6.7l-2.4,1.2l-0.4,9.9l-6.3,13l-13,6.7L78,124.2l-4.3,0.8l-3.6-2l-3.2,2.8l4.7,2l-4.3,4.3l0.8,2.8
	l-8.7,5.1l-2-2l2.8-2.4l-12.6-9.9l-3.6,0.8l-4-2.8l0.4-8.3l-7.1-13.8l5.5-18.2l-3.6-9.9l4-9.5l-3.6,0.8l-2.4-5.1l-6.2-5.3L32.5,47.9
	z M79.9,70.1l7.6-6.9C91.2,59,92,47,83,47.4l-3.2-7.1l1.1-2.1v-6.3l-4-1.6l-1.1,7.9l-3.7-0.5l0.5-3.4l-2.1,0.3l-0.5,4h-2.6l-1.6-2.1
	l-4.2,5.5l1.1,2.4l-1.3,1.6l-0.3,3.4l4,4l-0.3,6.1l-2.4,1.6l-3.4,0.5v3.7c-6.6,2.1-7.1,7.6-7.1,7.6c-9.2,5.3-4,11.6-4,11.6l-0.8,6.1
	l-5,6.8l-2.4,8.2l5,4l1.6-3.2l-0.3-4.7l4-5v-7.9l2.1,0.8l3.7-3.4l8.2-1.3l1.1-5.8l6.6-4.5L79.9,70.1z"/>
<path id="MIE" class="st0" d="M74.2,3.2l1.2-1.5L78.7,2l0.5-2l2,0.3L82,3.2l5.3,6.5l1.5,0.3l0.1-1.8l1.4,1.2l1.6,2.3l4.8,4.3l0.1,4
	l-6.7,2.5l-1.7,5.9l0.9,1.4l-0.9,2.6c0,0-2.8,7.4-5.9,9.5c0,0-3.8,6.2-2.6,9.7l1.9,1.4l-0.5,5.5l3.3,0.9c0,0,3.8,0.2,5.9,4.3
	c0,0,2.6,1.7,5,2.1l5.9,3.1l4.4,2.2l-0.3,2.4l1.3,0.8l1.1-0.9l1.7,0.8l-0.3,3l-0.9,2.2l-2.2,0.2l-2.1,2.2l3.5,0.6
	c0,0-1.9,1.9-1.7,1.9c0.2,0,2.1,5.1,2.1,5.1l-4,2.4L99,91.7l-2.2-1.4l5.5-0.3l-0.3-1.6L96.3,88L94,87.1l-0.8,1.4h-1.4l2.4-4
	l-1.7-1.1l-0.6,0.9L90,83.8l-1.3,2.4l1.9,0.8L84.8,91l0.5-2.4L82.7,89l-0.5,3.5h-1.1l-0.6-2.7l-2.2,0.5l0.9,2.5l-2.4,2.1l-1.3-1.3
	l-7,4.1l-1.7-1.6l-4.7,4.3l-0.6,2.7l2.7,1.3l-3,3.2L60,105c0,0-4.1,4-4.1,3.8c0-0.2,3.8,0.8,3.8,0.8l-0.2,2.1L62,113l-1.3,1.7
	l0.3,2.8l-1.7,0.5l-0.5-1.9l-2.5-1.1l-0.9,3l2.2,0.3l-0.2,1.6l-1.9,0.5l-0.2,2.4l-2.4,0.3l0.6-1.7h-1.9l-0.2,2.8l-2.8,0.9
	c0,0-4.7,6.3-5.7,11.2l-1.3,3.6l-2.6-0.4l-3-1.7l-3.6-4.6l-2.1-0.6l0.1-2.7l0.1-3.2l0.3-4.5l1.8,0.9l0.6-3.6l1.4-2.5h3.6l4.6-5.2
	l5.2,0.8l0.5-5.8l0.5-7.6l-1.9-1.9l3.6-5l-2.8-5.2l2.6-1.4l-4.3-6.2l2.1-4.3l7.4-1.7l1.4-4l-0.5-3.1l-3.1,1.2l-0.5-3.1l-1.9-1.2
	l-2.4,1.4L44.1,61l2.8-8.1l-2.3-5.6l-2-4.6l5.2-3.1l-0.5-1.7l2.6-2.6l-2.8-1.2l1.9-1.7l2.1,1.2l2.6-0.5l6.2,2.6l7.8-4l3.8-7.8
	l0.2-5.9l1.4-0.7v-4l1.4-4.7l-3.6-2.1l0.4-3.3L74.2,3.2z"/>
<path id="FUKUI" class="st0" d="M3.3,106.4l2,0.2l-0.4-2.9h2.7c0,0-0.7,5.6-0.7,5.4s2.2,1.8,2.2,1.8s4.5-0.9,4.9-0.9
	c0.4,0,4.1-4.9,4.1-4.9l4-1.1l0.5,3.1c0,0-2.5-0.4-2.7-0.2c-0.2,0.2-1.4,4.7-1.4,4.7l5.6,0.2l6.8-2.3c0,0-0.2-4-0.4-4
	c-0.2,0,2.5-2.9,2.5-2.9l2.7,3.1l2.5-1.6l-2.2-2.9l1.6-0.7l1.8,1.1c0,0,2.3-3.4,2.3-3.6s-5.4-4.1-5.4-4.1l1.1-1.4c0,0,7,3.2,7.2,3.2
	c0.2,0,2.5,0,2.5,0l6.1-0.7l0.9-2.5l-1.6-2l-0.2-1.8l1.1-1.1l0.2-2.5l-2-1.1l-0.2-2.3l6.3-5.2l2.3,9c0,0-1.4,1.6-1.4,1.8
	s2.2,2.7,2.2,2.7l3.6-2.5l1.8-8.6c0.7-7.9-10.4-16.4-10.4-16.4s-0.2-2.2-0.2-3.8c0-1.6,0.5-3.6-2.2-6.1c-2.7-2.5-0.7-4.9-0.7-4.9
	c4.3-1.1,7.2-14.4,7.2-14.4c5.4-3.4,6.8-9.2,6.8-9.2l2.7-2.9l-1.3-5.3L74,16l6.4-5.7l2.3,3.5l3.5,1l3,3.9l1.4,7.6l6.2-0.1l3.7,4
	l2.1-0.1l2.6-1.9l7.8,0.5l9.1,7.9l0.3,2.2h3l1.8-1.4l4.5-0.6l1.5,1.8l-3.7,3l-0.3,6.1l9.7,12.9l1,3.9l-4.8,6.5l-27.1,3.9l-0.6,2.9
	l-12.6-3.9l-6.5,2.6l-2.7,9.3l-1.6,4l-6.7-3.4l-3.7-1.9l-2.6,0.9l-1.1,3.2l3.4,9.5l-0.4,3l-5.8-1.1l-0.6,4.3l-12.5,6.5l-4.3-3.2
	l-2.8,4.7l0.2,6l-4.5,3.7l-5.8-1.3l-0.6,3l-4.3,5.4l-4.1-0.6l-1.9,1.5l-8-3.4L8,124.7V120l-6.2-5.6l1.5-5.2L0,106.7l3.4-4.1
	L3.3,106.4z"/>
<path id="ISHIKAWA" class="st0" d="M79.6,38.2l3.9-1.6l2.1,1.1l1.8-0.9l0.1-1.6l0.9-0.7l1.2,1.8L89,37.2l0.8,1.4
	c0,0-4.9,1.3-4.9,1.3c-0.1,0-1.2,1.3-1.2,1.3L81.3,41L79.6,38.2z M105.9,18.9l-2.5,3.5c0,0-8.1-1.5-10.6,1.5L92.5,26
	c0,0-2.8,2.3-2,4l-2.6,1.2l-0.7,1.5l-1.2,0.3l-1.5-1.6l-2.5-0.3l-0.7-1.2l1.7-1.3l-1.5-0.8l-2.8,1.5l0.5,1.8L76,36.4l1.2,1
	c0,0,0,2.6-0.2,2.6c-0.2,0-1.8-0.2-1.8,0c0,0.2-0.8,3.3-0.7,3.3c0.2,0,2,0.8,2,0.8l1.7-0.7l0.2-1.3c0,0,2.6,0,2.6,0.2
	c0,0.2,2.5,8.4,5.4,0.2c0,0-0.7-2.3,3.1-2.1l-0.2,10.6l-0.2,3.5L84.6,54l-8.3,4.3l-3.2,16.1L68.9,77l2,4.2l-2.2,6.2l2,5.9l-2,12.9
	l1.7,4.9l-1.7,1.5l0.7,2.9l-0.2,2.3l2,3.2l2.4,0.5l0.1,1.9l-5.5,7.5l0.2,3l-2.1,4.4l-3.4,0.5l-1.4,1.1H59l-0.2-1.7l-7-6.1l-6-0.4
	l-2,1.5l-1.6,0.1l-2.9-3l-4.8,0.1l-1.1-5.8l-2.3-3l-2.7-0.7l-1.7-2.7l2.1-1.8l2-3.6l3.1-0.7c0,0,31.7-31.3,33.2-52.8l-1-1.8l1.3-3
	l-0.2-4l-1.5-1l-2-5.3l0.7-3.3L64,37.5c0,0-1.3-3.5-2.5-0.2c0,0-1.5,1.8-1.3-1.6c0,0-1-5.1,2.5-7.1L62.5,27c0,0,2.6-0.7,1.6-6.6
	l2.1-3L66,15.6c0,0,5.9-1.5,8.7-4c0,0,4.9,2.5,8.9-1l4.3-1.8c0,0,4-2.1,4.5-4c0,0,4.5-2.6,8.1-2.3c0,0,6.8-3.8,9.9-2.1l2.1,2.1
	c0,0-1.5,1.6,0.8,4c0,0-0.8,1.8-3,2.1c-2-3.1-10.1,4-5.1,7.8L105.9,18.9z"/>
<path id="TOYAMA" class="st0" d="M117.9,109.3l7.4-9.9l-0.7-4.4l7.5-15.5l6.3-2.9l0.8-29.3l0.9-2.7l-1.3-6c0,0-2.5-4.1-2.5-4.2
	c0-0.1,0.1-7.9,0.1-7.9s-2.2-2.2-2.4-2.2c-0.1,0-0.7-9.7-0.7-9.7l-6.6-1.2l-4-5.5l-4.5-0.1L113,10l-11.8,1.7L99,14.1
	c0,0-9-0.3-8.8,7.5l0.2,6.3l-3.2,6.6l-0.7,4.3l-5.8,3.7l-2.3,4.1l-12.8-2c0,0-9.8,4.7-20.6-1.8l-9-7.6c0,0-11.5-5.3-3.7-13.3
	l3.5-5.1L35,15l2.9-4.5l-8.5-0.7l-15.3,7.9L8.2,47.4l-7.8,5l3.7,7.8L0,71.6l3.7,11L0,106.3l3.2,9.1L0,118.2l1.2,5.4l-0.4,4.2
	l5.8-0.7l8.1-9.8l11.4,5.5l-1.4,9.6l5.9-2.3l9.1-16.5l16.9-13.7h18.7l32.3,11.6l7.3,0.2L117.9,109.3z"/>
<path id="GIFU" class="st0" d="M45.2,135.5l-0.8,3.8l-1.6-1.4l-0.1,2.1l-1.8-0.3l-6.2-7.6l-0.9-3.3l-2.3-0.4l-0.6,2.4l-3.8-0.4
	l-1.4,1.8l-3.2-0.2l-2.5-2.7l1.2-5.8l1.3-7.5l1.7-1.7L21.3,100l-2.2-4.2l-2,2l-2.6-1.3L14.3,89l-2.5-0.1L11,85l1.3-3.4l2.3-8
	l5.5-2.2l10.7,3.3l0.6-2.5l23.1-3.3l4.1-5.5l-0.8-3.3l-8.3-11l0.3-5.2l3.1-2.5l-1.3-1.5l2.3-4.9l-0.2-3.4l6.1-8.4L59.9,21l-2.7-0.6
	l-2.2-3.6l3.5-0.4l4.9-5.9l6.9,3.3l-0.8,5.8l3.6-1.4l5.5-9.9L88.8,0h11.3l19.5,7l4.4,0.1l0,2.5l5.1,3.1l-0.8,5.2l-5.8,8.5l1.9,2.5
	l-3.6,8.3l4.7,4.1L113,60.1l-3.6-1.7l-7.7,8v3l7.7,3.6l8.8,12.9l-1.4,3.3l3.3,10.7l6.1-1.7l1.4,7.2l-2.8,3.3l-3.3,13.3l0.2,3.1
	l-3.6,0.1l-6.5,5.4c0,0-2.1,0-2.3,0c-0.1,0-6.5-4.5-6.5-4.5l-4.5-1.8l-2.7,2l-6.2,1.7l-2-2.4c0,0-2.7-1.8-2.6-1.8
	c0.1,0-3.8-0.3-3.8-0.3l-4.2-6.8l-4.7-3.5l0.2-2.9l-2.3,0.3l-0.5,2.4c0,0-3,1.8-2.7,1.8s-7.3,2-7.3,2l-3.2,0.5l-1.1-1.1l-2.3-0.3
	L45.9,129c0,0-0.1,4.8,0,4.8c0.2,0-0.6,1.4-0.6,1.4"/>
<path id="AICHI" class="st0" d="M1.2,42.2c0,0,1-1.9,0.8-1.9c-0.2,0,0-6.7,0-6.7l10.1-18.3l3.1,0.4l1.5,1.5l4.4-0.6
	c0,0,10.5-2.7,10.1-2.7c-0.4,0,3.8-2.5,3.8-2.5L35.6,8l3.2-0.4l-0.2,4l6.5,4.8l5.9,9.4c0,0,5.5,0.4,5.2,0.4c-0.2,0,3.6,2.5,3.6,2.5
	l2.7,3.4l8.6-2.3l3.8-2.7l6.3,2.5c0,0,8.8,6.3,9,6.3c0.2,0,3.2,0,3.2,0l9-7.6l5-0.1l-1.8,4.5l3.7,4.4l-0.4,3.7l8.6-1.9l5.6-3.2
	l9.1,3.9l7.8-1.2l-3.3,4.2l2,2.2v3.7l-4,7.4l-9.9,11.5l-0.2,6.8l-4.9,3.7l-3.7,9.4l-4.2,1.1l-0.6,3.9l-7.6,1.4L98.3,98l-1.5,8.4
	l2.6,8.5l-1.2,3.1l-4.2,1.4c-8.8,0.5-36.2,11.7-36.2,11.7s-6.8-0.2-6.9-0.2c-0.2,0-8,1.6-8,1.6c0.3-1.6,5-11.7,5-11.8c0-0.2,3,0,3,0
	s1.7,3.5,1.9,3.5c0.2,0,2.7,0.8,2.8,0.8c0.2,0,0.8-2.1,0.6-2.1c-0.2,0-0.8-1.7-0.8-1.7s5.2,0.3,5.2,0.2c0-0.2,5.2-3.9,5.2-3.9
	l0.8,1.4c0,0,1.7-2.5,1.9-2.7c0.2-0.2,3.9-1.9,3.9-1.9l-0.8-2.1l3-2c0,0,1.3,0.6,1.3,0.5c0-0.2-0.2,6.5-0.2,6.5l1.7-0.6v-4.6
	c0,0,3.3-0.2,3.5-0.2c0.2,0,0-1.6,0-1.6l-3.2-0.8l0.5-4.7l1.3-1.6c-2.4-6.8-7.4-4.1-7.4-4.1l-2.7-0.6c-7.2-1.9-6.9,6.1-6.9,6.1
	s-1.9,0-1.7,0c0.2,0-1.1-1.9-1.1-1.9l-12.3-0.3c-5.4,1.7-5.8-0.6-5.8-0.6c-3.2-8.5-6.5-6.1-6.5-6.1l0.2-4.1l1.6-2.1l0.8-2.7
	l-0.2-2.7l-1.3,0.2l-1.3,3.5l-2.4,3.1c-4.3,9.8-1.3,15-1.3,15c8,6.3,5.5,9.1,5.5,9.1c-7.9,0.9-16.1-8.7-16.1-8.7
	c7.2-14.2-1.9-20-2.1-20c-0.2,0,0.8-12,0.8-12c2.2-2.8,5.2-12.3,5.2-12.3l2.4-2.4l-0.5-2.4l-6.1,2.5l-6,7.4L10.5,65l-0.1-6.5l-7.8-7
	L0,47.9L1.2,42.2z"/>
<path id="NAGANO" class="st0" d="M46.8,43.6l-0.3-1.9l3.3-6.7l2.7-1.3l0.3-12.6l0.4-1.2l1.8-1.1l5.1-6.2l-0.8-4.1l10,1.3l-1.2,5.3
	l3.8,2.2l1.2-2.6L85.3,13l1.4-4.9l2.8-0.3L92,2l8-2l3.7,2.8l1,7.1l5.7,3l0.4,3.2l-1.8,3l1.6,1.2v2.1l-4.3,1.7l-2.4,0.9l-3.4,0.7
	l0.1,2.2l-3.3,1.7l-3.6,5.3l-0.9,5.4l0.1,5.1l5.8,2.2l3.9-1.2l4.7,0.9l1.2,8.2l-3.4,1.7l2,5.3l-0.1,2.6l-3,1.2l3.2,2.6l0.7,1.7
	l-0.7,5.8l4.6,3.2l0.4,2l1.4,2.3l-0.6,1.6l-2.4,0.6l-0.9,2.1l-4.2,0.4l-0.1-3l-6.1-0.7l-1.4,1.8l-2.2-1.4l0.7-1.8l-5.4-2.6l-5.4,8.4
	l-2.5-1.6l-3.4,7.1l2.8,2.5l-3.3,3.2l2.2,5.7l-0.9,1.6l-0.7,3.6l-1-0.7l-1.7,2.1l-0.2,3.7l1.2,1.2c0,0-0.2,2.2-0.2,2.3
	s-2.5,0.8-2.5,0.8l2,4.2l-0.7,2.2l-15.7,9.2l-0.1,1.7l-3.1,0.8l-4,0.6l-4.7-2L46,139l-4.4,1l0.2-1.9l-1.9-2.3l0.9-2.3l-0.1-2.2
	l2.4-9.5l2-2.4l-1-5.1l-4.3,1.2l-2.4-7.7l1-2.4L32,96.1l-5.5-2.6v-2.2l5.5-5.7l2.6,1.2l8.9-13.4l-3.4-3l2.6-5.9l-1.4-1.8l4.1-6.1
	l0.6-3.7l-3.6-2.2l0-1.8l1.2-1L46.8,43.6z M71.1,74.9l1.7,1.9l1.9-1.4l-0.1-0.9L73.5,74L71.1,74.9z"/>
<path id="SHIZUOKA" class="st0" d="M1.8,113.6l-1.8-6l1.1-5.8l3.7-3l5.3-1l0.4-2.7l2.9-0.8l2.6-6.6l3.5-2.6l0.1-4.8l6.9-8l2.8-5.2
	v-2.6l-1.4-1.5l2.3-2.9l4.2-1.1l0.1-2.4l21.2-12.4l1-3l-2.7-5.7c0,0,3.3-1,3.3-1.1s0.3-3.1,0.3-3.1l-1.6-1.6l0.2-5l2.3-2.8l1.4,1
	l1-4.9l1.2-2.2l1.8,3.4l1.8,7.5l0.2,6.2l-1.3,2l1.3,1.8v3.2l-2,4.1l1.1,4.3l3.2,2.3l2.7-2.1l3.9,2.5l2.9,10c0,0,3.2,2.9,3.4,2.9
	s4.3,0.5,4.3,0.5l3.6-3.4l-1.6-11.2l1.1-3.4l-0.2-6.6l4.6-3.2l2.7,4.5c0,0,5,0,5,0.2c0,0.2,0.4,3.9,0.4,3.9l16.4-2.5l3.2-1.8h7.1
	l0.9,9.8l-2.1,3.2l-0.5,4.8l3.9,4.8l0.7,2.9l6.6,1.4l-1.5,3.1l-1.9,6.1l2.1,1l0.4,3.8l-1.3,1.3l2.1,2.1L140,87v2.9l-1,5l-4.6,2.9
	c-0.6,9.9-0.3,3.5-0.3,3.5l-1.3,2.9l-1.5,2.4l-1.2-0.1l-2.6,2.1l-1.5,4.2l0.6,5.2c0,0-1.9,0-2.1,0s-0.8-1.9-0.8-1.9
	s-2.7,1.9-2.5,1.9c0.2,0-1,2.3-0.8,2.3c0.2,0-6.1,2.9-5.9,3.1c0.2,0.2-6.3-3.8-6.3-3.8s1.3-2.2,1.5-2.2c0.2,0-1.5-2.4-1.5-2.4
	l-2.3-0.8c0,0,0.2-3.2,0.2-3.4c0-0.2,2.9-2.9,2.9-2.9c-3.4-3.2-0.2-1.4-0.2-1.4h-0.7l-0.3-1.7l-0.7-2.1l0.4-2.5c0,0,1.2-2.9,1.2-3.1
	c0-0.2-1.7-0.2-1.7-0.2s0.2-2.8,0.2-2.6c0,0.2,2.5-2.5,2.5-2.5l-1.5-5.4l1.7-6.8l8.6,0.7l0.9-2.5l-3.9-4.5l-4.5-2.9l-8.6-2L98,70.5
	c-10.9-0.6-8.4,5.5-8.4,5.5l-1.1,0.2c-5.5,3.4-1.3,7.6-1.3,7.6c-1.5,3.2-7.6,3.4-7.6,3.4l-4.8,3.1l-3.6,6.7l1.1,3.1l-3.1,4.6
	l-0.4,2.1c-14.7,9.7-5.5,17.4-5.5,17.4c-1.9,0.6-5.5-1.7-5.5-1.7c-16.6-8.8-30.4-3.4-30.4-3.4c-4.8-2.3-20.2-3.1-20.2-3.1L1,115.8
	L1.8,113.6z M5.4,110.3l3.2,3.2L12,114l0.4-1.9l0.8-1.4l0.8-0.5l0.1-1.9l-0.9-0.4l-1.9,1.8l-0.2,2.2L9.5,112l0.5-3.4l1.9-2.1
	l1.9-1.9l-0.2-1.1l-1.5-0.1l-1,1.8l-0.6-0.4L9.2,105l-1,1.6c0,0-1.2,0-1.2-0.1c0-0.1-0.1-0.5-0.1-0.5l1.5-0.8l-0.2-1.6l-1.3-0.4
	l-1,1L5.8,106l-1.7,1.4L5.4,110.3z"/>
<path id="NIIGATA" class="st0" d="M1.6,120.1c0,0,16.1-5,20.2-9.2l2.1-0.3l4.6-5c0,0,2.4,1.8,8.6,0.4c0,0,11.3-9.4,11.5-10.5
	l0.5-1.2l6.6-3.3c0,0,4.4-6.6,4.6-7.9L60.1,82l1.3-0.3l2-3l2.8-2.1c-0.1-0.3,3.3-3.9,4.5-11.7l2.1-6.1c0,0,3.4-4.7,4.5-4.7l12.3-8
	l3-0.5c0,0,10.1-1.5,18.3-17.1l-0.3-1.2l0.9-2.1l0.8-11.7c0,0,0.8-3.8,2.6-5.5l1.2-4.1l2-3l3,1.7l2.9,1.1l4.7,1.3l-0.4,7.9l2.5,2.6
	h4.2l4.9,5.5l-2.6,4.1l-4.7,2.9l-4.5-1.1l-1.7,3.3l0.4,8.4l-1.7,1.5l-1.3,7.5l-0.9,1.7l1.8,3.6L128,54l1.8,2.1l-5,5.3l-2.9,5.7
	l-3.7,2.2l-0.1,3.8l2.2,5.7l-1.2,2l-8.6-1.2l-2,4.6l-11.1,0.9l-0.8,3.4l1.6,0.8v3.8l-4,8l2,2.6l1.5-0.7l2.2,3.4l-1.6,5.3l1.4,4.2
	L99,123l-4-1.3l-0.1-2.2l-4.9-4.7l-0.8,3.3l-2.4,2.2l-4.7,0.7l0.7,7l-1.8-0.8l-1.6,1.5l0.3,3.4l-6.2,1.3l-0.3,4l-2.6,1.4l-3.7-1.2
	l-0.4,1.7l-1.5,0.1v-2.1l-1.6-1.2l1.8-3l-0.4-3.2l-5.7-3l-1.1-7.1l-3.7-2.8l-8,2l-2.5,5.9l-2.8,0.3l-1.5,4.9l-12.1,1.8l-1.2,2.6
	l-3.8-2.2l1.2-5.3l-10-1.3l0.8,4.1l-5.1,6.2L7.5,137l-0.6-2.6c0,0-1.1-1.8-1.1-1.8c0-0.1,0.1-3.4,0.1-3.4s-1-1-1-1
	c-0.1,0-0.3-4.2-0.3-4.2l-2.9-0.5L0,121L1.6,120.1z M52.3,17.3l2.3,0.2L53.9,19l-0.2,4.8l-0.8,1.1l-0.2,2.4c0,0-9.3,13.7,2.9,9.5
	c3.6-1.8,1.7,1.8,1.1,3.5l-0.4,1.4c0,0-3.3,3.9-2.8,7.2l-1.2,0.4l-2.5,2.6h-0.9L45,55.4l-3.9,0.7c0,0-4.7,3.4-6.2,0.2
	c1.2-1.6,1.2-1,3.6-1.8c0,0,1.5-1.7,1.8-3.8c0,0-1-1.2-0.9-1.2s1.6-2.1,1.6-2.1s2.3-0.3,2.5-2.7l-2.3-2.5c0,0-3-0.7-3,3l-1.7-1.1
	l0.7-8.1l3.9-5.3c0,0,4.3-6.7,8.2-7.8l0.2-2.1l1.5-2.8L52.3,17.3z"/>
<path id="YAMANASHI" class="st0" d="M2.8,45l7.5-7.2L4,32l7.8-16.3l5.7,3.6L29.9,0l12.4,6l-1.5,4.2l5.1,3.3l3.3-4.2l13.9,1.5
	l0.3,6.9l9.7-0.9l2.1-4.8l5.4-1.4l6.9,2.3l3,5.1l6.9,0.9l6.3,4.8l6.9-2.6l2.7,3.8l5.4,14.3l5.9,7l8.8,2.9l3.6,3.6l-0.7,7.6l0.8,7.5
	l-2.5,9.1l-10.9,8.4L113.6,89l-3.9,4.4l-3.1,6.8l-5.4,3l-27.8,4.2c0,0-0.6-6.3-0.6-6.6c0-0.3-8.4-0.3-8.4-0.3l-4.5-7.5l-7.8,5.4
	l0.3,11.2l-1.8,5.7l2.7,19l-6,5.7c0,0-6.9-0.9-7.2-0.9s-5.7-4.8-5.7-4.8l-4.8-16.9l-6.6-4.2l-4.5,3.6l-5.4-3.9l-1.8-7.2l3.3-6.9
	v-5.4l-2.1-3l2.1-3.3l-0.3-10.6l-3-12.7l-3-5.7L2.8,45z"/>
<path id="KANAGAWA" class="st0" d="M40.5,18.7l7.6,3.4l3.7,8.8h15.9l9.2,3.1l12.5,15.9L91.9,34l-6.1-5.1l3.1-2.7l3.4,2.7l5.8-6.1
	l14.6,5.4l13.2,14.6l13.9,2.6l0.3,4.5l-8.1,4.4l-4.1,3.7l-2.4-4.1l-1.2,4.7c-11.4-4.1-3.8,6.9-2.2,4.8l-1.4,6.4
	c-6.2-3.5-6.4,6.4-3.1,5.1l0.7,7.8c0,0-4.1,1.7-3.7,2c0.3,0.3,4.1,2.7,4.1,2.7l-2.7,1.4v2.7l5.4,1.4l3.4,3.7l6.1,1l2,2l-6.1,8.8
	c-11.2,0.3-8.1,9.8-8.1,9.8l3.7,1.4c0,0-1,2.4-1,2.7c0,0.3-10.2,0.3-10.2,0.3l-0.3-3.7l2-2.4l-0.3-3.7l-2.4-1v-2.7l3.1,0.3v-3.7
	l-3.7-1l-5.4-7.5l0.3-5.4l-4.7-3.7c0,0-3.1,2-2.7,2c0.3,0-6.1-1-6.1-1L82,86.5c-34.6,1-45.4,16.6-45.8,16.6
	c-0.3,0,0.3,16.6,0.3,16.6l-5.1,1.7L19,118.7l-1.4-5.4l-7.5-9.2l1-9.2l4.1-6.1l-1.7-18.6H0l3.5-7.7l4.4-4.9l11.6-3.9l12.2-9.4
	l2.8-10.2l-0.9-8.4l0.8-8.5L40.5,18.7z"/>
<path id="TOKYO" class="st0" d="M4,37.4l3.3,1.2l4.3-3.3l11.6,6.4l6.4-0.3l7,4l14,1.2l4.6,6.4l10.3,6.7l21-6.7L86.2,59l6.4-3.3
	l4,1.5l4.3-4.6l14.3,2.1l1.5-4.6l12.2,2.7l6.8,3l-1.1,3.8l2.9,2.9l-0.8,2.7l3.5,4.8l-1.6,3.1l-3.3,0.1v5.7l-2.3,2.6l-8,4.1l-4.6,4.6
	l0.6,4l0.3,6.3l-12.5-2.4L96.8,85.2l-13.1-4.9l-5.2,5.5l-3-2.4l-2.7,2.4l5.5,4.6l-2.1,14.3L64.9,90.4l-8.2-2.7H42.4L39,79.7l-6.8-3
	l-5.5-1.4L23,71.7l-8.9-3l-5.9-7.1L2.7,47.3L0,43.4L4,37.4z"/>
<path id="SAITAMA" class="st0" d="M2.2,85.3l1.1-3L0.7,78L0,74.2L5.7,67l6.5,0.7l5.2-6.2l6.7-3L38,53.8l3-4l-0.3-4l8.7-13.2
	l22.5,6.3l4-3.5l11.7,10.5l16-3.2l2.5,2.5l4-1.5l1.9-2.9l2.9,2.7l0.9,3l-1,0.5l0.2,2.7l4.2,7l0.5,4.1l5.2,0.4l4.6,7.4l-0.1,4.8
	l2.1,5.1l4.7,6L140,92l-1.9,3.6l0.3,8.8l-5.6-2.4l-10-2.2l-1.3,3.7l-11.7-1.7l-3.5,3.7l-3.2-1.3l-5.2,2.8l0.2-5l-17.2,5.5l-8.5-5.5
	l-3.7-5.2l-11.5-1l-5.7-3.3l-5.2,0.3l-9.5-5.2l-3.5,2.7l-2.7-1l-3.3,4.9l-5.7,2.1l-5.2-4l-5.7-0.7L8,87.2L2.2,85.3z"/>
<path id="GUNMA" class="st0" d="M103.7,26.8l5.8,3.4l-5.6,7.9l1.8,4.3l-5,11.7l6.5,5.2h8.3l2,3.6l-6.1,8.8l-1.6,7.2l-5.2,10.1
	l5.9,5.9v2.7l6.8,5.6l16.2,0.2l3.1,6.4l-1.7,2.6l-3.6,1.4l-2.3-2.2l-14.4,2.9l-10.6-9.5l-3.6,3.2l-20.3-5.6l-7.9,11.9l0.2,3.6
	l-2.7,3.6l-12.4,4.3l-6.1,2.7l-4.7,5.6l-5.8-0.7l-5.2,6.5l-7.9-5.4l1.1-9.9l-1.1-2.9l-5.4-4.5l5.2-2l0.2-4.5l-3.4-9l5.9-2.9l-2-14
	l-8.1-1.6l-6.8,2l-9.9-3.8l-0.2-8.8l1.6-9.2l6.1-9l5.6-2.9l-0.2-3.8l5.9-1.1l4.1-1.6l7.4-2.9l2.5-0.2l0.7-2.9l6.3,2l4.5-2.5l0.4-6.8
	l10.6-2.3l-0.5-5.8l2.7-2.5l3.2,1.4L63,10.6l8.1-1.1l4.1-3.8L76.5,0l8.3,8.1l0.2,3.8l6.8,2.3l-0.2,2.5l3.8-0.9l12.6,3.6L103.7,26.8z
	"/>
<path id="TOCHIGI" class="st0" d="M123.4,40.5l0.8,5.4l-0.3,12l3.8,6.6l-8.4,3.3l2.6,10.5l0.8,14.3l-5.4,10.7l-2.8,7.9l-5.1-3.1
	l-4.6,2.8l-3.8-1.5l-0.8,4.6l-11,0.5l-1,3.6l-4.8,2.5l-1.3,4.3l-4.8-2l-3.6,2.8l-2,8.9l-9.9,5.4l-5.8,0.1l-3-2.7l-3.5-7.3l-18.4-0.3
	l-7.6-6.4v-3.1l-6.6-6.6l5.9-11.5l1.8-8.2l6.9-9.9L29.1,80h-9.4l-7.4-5.9l5.6-13.3l-2-4.8l6.4-8.9l-6.6-3.8l4.8-8.4l8.4-7.9
	l16.3-7.4L67.1,8.2L77,0.3L92.6,0l16.6,5.6l7.1,10.5l6.9,2.3l0.8,13.3L123.4,40.5z"/>
<path id="CHIBA" class="st0" d="M20.2,0l3,5l2.6,2.8l4.2,6l4.4,4.8l7.8,4l10.9,4.6l2.4,3.2l4.2-2.6l3.8,0.8l3.4-2.4l4,1l3.8-3.4
	l7-1.2l2-1.2l2.8,1.4l2.8-5.4l4.6,3.8l6.6,7.4l5,1.4l2.4,1.6l1.2,4.8l8.5,6l2.4-0.6l2.2,1.3l-0.6,4.6l-2.6-2.4l-9.1,2.4l-3-1.2
	c0,0-30.4,11.3-29.4,42.9l1.4,1.6l-1.4,8l1.2,0.4l-2.6,8.6l-2.4-0.4l-2.8,4.8c0,0-2-1.4-1.8-1.4c0.2,0-1.6,1.6-1.6,1.6h-3.8
	l-2.4,2.8c0,0-11.1-3.6-12.9,5.6c0,0-12.1,2.4-11.5,12.5c0,0,0.2,8.5-13.3,5.6c0,0,1.4-4.6-6.6-6.2l7.6-2.6h2l-0.2-4l-2.6-1.4l-1-4
	l3.2-2.4l-2-1.4l-0.4-2c0,0,3-1.8-0.6-4.8c0,0-1.4-7.2,5-6.8c0,0-0.6-9.9-7.4-11.3c0,0,4.2-2.8,4-2.8s0.4-4.2,0.4-4.2s4.6,1,4.6,1.2
	c0,0.2,2.4-2.2,2.4-2.2l-1.8-4.8c0,0,13.7-5.6,15.1-13.3c0,0,6.4-1.8,1.6-7.8c0,0-5.4-6.2-5.4-6c0,0.2-6.4-1.2-6.4-1.2
	s-2.6,0.8-2.4,1c0.2,0.2,1.4,2.2,1.4,2.2l-3.2,2.4l-2.8-1.9l1.5-1.7v-3.8l2.2-0.1l1.1-2L30.9,44l0.5-1.8l-1.9-1.9l0.8-2.5L30,30.7
	l1.5-2.9l-3-6.3l-3.8-4.8l-1.7-4.1l0.1-3.9l-3.7-5.9L20.2,0z"/>
<path id="IBARAKI" class="st0" d="M120.6,13.1l-2.8,0.4c0,0-5.8,12.9-5.8,19.3c0,0-13.7,21.7-8.2,33.3l-3.6,7.6l-2.2,0.4
	c0,0-3.4,22.9,23.7,61.7l2.8,3.8l-2.8,0.5l-8-5.8l-1.2-4.8l-2.4-1.6l-5-1.4l-6.6-7.4l-4.6-3.8l-2.8,5.4l-2.8-1.4l-2,1.2l-7,1.2
	l-3.8,3.4l-4-1l-3.4,2.4l-3.8-0.8l-4.2,2.6l-2.4-3.2l-10.8-4.6l-7.8-4l-4.4-4.8l-4.2-6l-2.6-2.8l-3-5l-0.8,2.8l-4.2-0.3l-0.4-3.3
	l-3.4-5.6L15.5,89l0.8-0.4l-0.7-2.4l4.6-0.1L28,82l1.6-7l2.8-2.2l3.8,1.6l1-3.4l3.8-2l0.8-2.8l8.6-0.4l0.6-3.6l3,1.2l3.6-2.2l4,2.4
	l2.2-6.2l4.2-8.4l-0.6-11.3l-2-8.2l6.6-2.6l-3-5.2l0.2-9.4l-0.6-4.2l0.4-7l3.6,0.4l2.8,4.4l4.2,1.2l0.2,5.2l9,4.4l6.2-6.8l5.2-1.2
	L98.1,2l2-2l3.8,4.6l15.5,4.6L120.6,13.1z M64.3,101.1l1.5,2.9l7.4,2.6l3.6-0.2l2.9,2.7l-1.7,2.6l5.1-0.3l3.2,1.1l3.3,3l1.8-0.5
	l-0.3-2l-7.5-12.8l-1.2-1.5L82,96l-2.3-3.5l-5.3-0.9l2.1,3.9l4.1,2.9l0.6,2.1l-1.7,2.1l-9.3-0.5l-2.1-0.2l-1.1-1.7L64.3,101.1z
	 M96.9,105l-1.1,1.1l1.5,0.8l-1.5,2l3.5,2.4l0.2,2.7l3.3,4.8l-2.7-0.3l-0.3,1.1l3.3,3.6l0.1-3.6l1.2-2.6l-1.7-2l-1.7-4.2l-2.6-7.8
	l-2.4-1.8l-0.9-5.3l-2.4-2.3l1.4,3.2l0.8,5.9L96.9,105z"/>
<path id="FUKUSHIMA" class="st0" d="M6.7,102.2l-1.8-5.1l1.9-6.4l-2.7-4.1l-1.8,0.8L0,84.2l4.8-9.7v-4.6l-1.9-1l1-4.1l13.4-1.1
	l2.4-5.6L30,59.5l1.4-2.4l-2.7-6.9l0.2-4.6l4.5-2.7l3.5-6.9l6.1-6.4l2.7-0.8l2.5,2.4l4.3-1.6l5.3,0.5l2.1,1.1l1.6,4.1l4.9-1.6
	l5.4,4.3l2.9-2.4l4.9,1.1l4.9-5.6l-2.1-2.5l0.6-12.8l5.1,1.9l4.6-2.4l4.9,2.9l0.8,4.3l8.6-1.1l7,2.4v7.2l5.6,1.8l6.9-1l0.3-8.6
	l5.1,0.3l2.2,5.3l1.8,0.4l0.5,4.5l1.6,3.5c0,0,4.2,35.4,0.1,45.8c0,0-1.4,10.9-0.8,12.6c0,0-3.2,5.4-1.6,10.3c0,0-2.2,4.5-4.4,6
	c0,0-6.8,0.7-8.9,3.9l-0.6,1.3l-0.3,1.7l-12.3-3.7l-3-3.7l-1.6,1.6l1.9,5.1l-4.1,1l-4.9,5.4l-7.2-3.5l-0.2-4.1l-3.3-1l-2.2-3.5
	l-2.9-0.3l-0.5-8.3l-4.3-1.4l-4.5-6.5l-10.4-3.5l-9.7,0.2l-6.2,4.9l-13.7,7.2l-10.2,4.6l-5.3,4.9l-8.9-2.5l-2.7,0.6l0.2-1.8
	L6.7,102.2z M71.4,57.1c0,0-5.5-0.5-7.4,2.2l3.7,7.2l4.2,1.2l2.4-3.1l-0.1-3.8l-3-1.2L71.4,57.1z"/>
<path id="MIYAGI" class="st0" d="M135.4,16.1l-4.2-3.3l1.2,5.1c0,0-1,1.5-1.6,1c-0.6-0.4-3.3-6-3.3-6c-1.3,3.9,0.4,6.9,0.6,6.9
	c0.1,0-2.2,1.6-2.2,1.6c-10.2,3.6-0.9,8.7-0.9,8.7l-0.1,3.1l-2.7,0.1c-1.6,4.3-7.9,4.3-7.9,4.3v3c0,0,7.6,1.2,7.6,1
	c0-0.1-0.1,2.8-0.1,2.8l-6.1,4.8l2.8,4.2l3-1.3c2.1,0.9,0.7,6.9,0.7,6.9l-2.4-3.1l-2.1,0.7c2.1,0.9-0.4,5.2-0.4,5.2l4.5,0.6
	l-0.1,1.9l-6.3,0.3l1.5,4.6l3-1.8c0,0,6.7,2.2,2.7,2.8c-4,0.6-4.5,2.5-4.5,2.5c4.2,1.3,4.9,6.1,4.9,6.1l-1.5,4.2l-4.9-3.6l-0.9-3.6
	l-4.2-0.7l2.5-2.7l-3-2.8l-4.3,1l-0.1-2.8c-13.4-1.9-18.5,5.2-18.5,5.2l-1,4.5l-1.9-3.9c-1.8-6-7.2,0.4-7.2,0.4
	c-4.9,8.1,1.3,3.6,1.3,3.6l1.2,3.3L77.2,83C61,98.9,65.4,125.9,65.4,125.9l0.3,2.5l-6.4-0.4l-0.4,10.8l-8.6,1.2l-7-2.2v-9l-8.8-3
	l-10.8,1.4l-1-5.4l-6.2-3.6l-5.8,3l-6.4-2.4l0.4-10l12.7-2.4L23.5,95l-0.6-10.4l4.8-9l8.6-12.5l-6.2-9.6l2.8-3.6l-3.8-9.8l5.4,1.6
	l2-7.8l3-8l-4.2-0.8l-0.8-5.4l-4-3.4l-0.6-2.4l4.6-1l6.2-0.6L46.2,8L48,4.6l3,0.2l6.2-0.6l4.8,4.2l6.2,2.2l3.4,3.8L86,14.1v3.2
	l-3,2.6l9.2,9.2l9.4-8.4l10.6,4.4l6.2-13.9L117.7,0l9.6,1l3.8,2L135.4,16.1z"/>
<path id="YAMAGATA" class="st0" d="M25.5,57.5l5.4-10.2l0.7-2.5l1.8-0.1c0,0,1.2-2.9,4.3-3.6c0,0,0.5-3.6,3-3.7
	c0,0,4.2-5.1,6.5-18.1l0.3-2.1l2-1.5l3-11.8l-0.6-2.2l9.6,0.9L67,0l0.3,4.3l7.4,4l12.7,3.3l3.6-0.7l1.7,3.1l4.8,0.7l1.5,5.8l4.3,3.3
	l2.6-0.2l0.3,2.2l0.5,2.1l3.4,2.9l0.7,4.6l3.6,0.7l-2.6,6.9l-1.7,6.7l-4.6-1.4l3.3,8.4l-2.4,3.1l5.3,8.2l-7.4,10.8l-4.1,7.7l0.5,8.9
	l-5,10l-11,2.1l-0.3,8.6l-0.7,13.7l2.2,2.7l-5.3,6l-5.3-1.2l-3.1,2.6l-5.8-4.6l-5.3,1.7l-1.7-4.5l-2.2-1.2l-5.7-0.5l-4.6,1.7
	l-2.7-2.6l-2.9,0.9l-2.4-2.8l-4.3-1.7l-2.4-4.6l1.2-2.2l1.7-9.8l2.2-1.9l-0.5-11l2.2-4.3l5.8,1.4l6.2-3.8l3.4-5.3l-6.4-7.2h-5.5
	l-3.3-3.4l0.5-10.3l-6.2-1.7l-3.8-1.4l-4-2.2L25.5,57.5z"/>
<path id="IWATE" class="st0" d="M111,91.8c-0.1,0,0,1.7,0,1.7l-6,0.6l2.4,1.6l-0.3,1.4c0,0-2.1-0.4-2.1-0.3c0,0.1,0.3,1.7,0.3,1.7
	l3.8,0.3l0.1,2.1c0,0-5.5,1.6-5.5,1.7c0,0.1,0,1.1,0,1.1l3,0.4c0,0-2.1,2.1-2,2.3c0.1,0.1-2.7,0.3-2.7,0.3l4,3.3l-1.8,2
	c0,0-4.3-2.1-4.1-2.1c0.1,0,0.4,3.1,0.4,3.1l3.5,0.9l-4.1,1l2.6,2.1c0,0-6.4,0-6.5,0c-0.1,0-0.9-2.6-0.9-2.6l-2.4,2.6l2.6,2.7
	l-2.1,1.4l1.1,2l-1.7,1.3l-2.3-5.1l-2.7-0.4v2.7l-2.7-1.4l-6.8-0.7l0.4,7.9l-4.4,9.9l-7.5-3.1l-6.7,6l-6.5-6.5l2.1-1.8v-2.3
	l-10.3,0.1l-2.4-2.7l-4.4-1.6l-3.4-3l-4.4,0.4l-0.4-3.4l2.3-6.4l-3-0.4l0.1-5l2.8-3.4l-1.7-1l0.1-3.3l-4.1-5.1l-3.4-8.5L28.5,73
	l4-4.3l1.3-6l-2.6-3.7l4.4-5.5l-3.8-2.3l0.3-4.8l5.8,1L36,41l-0.1-10.1l2-1.8l-1.1-6.5l5.2-4.4l0.4-1.7l1.7,1.7l2.4,1l6.7-3.7
	l-0.4-1.6l7.4-3l6.8-4.5l2.7,3.3l6-3.8l5.7,2.4l3.4-2.6L85,3.3l4.3-1.6L91.1,0l2.6,3c0,0,7.2,12.5,7.4,15.5c0,0-5.7,3.8,0.9,3.6
	l2.1,3.2c0,0-7.4,2.8-0.6,7.4l2.6,3l2.1,0.2l1.7,5.5c0,0-4.3-0.4,0.6,5.5c0,0,2.3,9.1-1.3,23.6l4.7-5.1l0.6,6.2c0,0,4.7,1.9,0,3.8
	c0,0-1.7,4.1-1.8,3.8c-5.8-0.7-3.1,6.9,0.7,1.6c0,0,3.1-3,2.8,0.3c0,0-1.8,1.4-1.6,3.7h-3.8l-2.6,3.1l2,0.3l-1.3,2
	c-1.7-1.4-6.7,2.7,0.3,1.4C109.3,91.7,111.1,91.8,111,91.8z"/>
<path id="AKITA" class="st0" d="M45.1,36c0,0-3.2,5.3-4,5.8l-0.6,6.3l2.5,3.2c0,0,4.4,1,5.6,2.9c0,0,0.9-3.7,1-4.6l1.1-1.7v-8.6
	L45.1,36z M45.3,36.6l4.6,3.4v7.4c0,0-2.3,2.5-3.9,2.5c-1.6-0.1-3.8-1.2-3.8-1.2s-1.2,0.5-0.5-3.1l0.3-3.7L45.3,36.6z M83.6,138.8
	l-2.2,0.2l-3.7-2.8l-1.3-5l-4.1-0.6l-1.5-2.7l-3.1,0.6l-11-2.8l-6.4-3.4l-0.3-3.7l-4.7,2.2L37,120l1.2-2.3l1.5-2.9l0.1-1.8
	c0,0-1-0.3-1.1-0.3c-0.1,0,0.1-1.6,0.1-1.6l1.3-1.2l0.1-3.6l0.6-1l2.5-0.2c8.5-14.6,6.9-35.1,6.9-35.1l-0.5-3.7l-1-5.5
	c-5.3-10.4-12.4-7.7-12.4-7.7s-0.5,2.7-0.5,2.8c0,0.1-2.9,0.3-2.9,0.3l-4.8-0.5l-0.6-3.6l-1.2,0.2l-0.9-3.2l1.2-0.8l-1.3-0.5
	l-0.4-4.6l1.9,2.4l4.4,2l3.1-0.6C45.9,36.8,44.9,27,44.9,27c3-5.5,2.4-7.5,2.4-7.5c1.8-9.2-2.7-8.3-2.7-8.3L42,7l5,0.7l0.6-3
	l4.6-0.9l1.2,2.5l16.2-0.3l1.2-3.3h5.3l7.7,4.4L90,7.9l11.4-2.7l0.9-3.1l2.3-1.7L107,0l0.2,1.3l-2.8,0.6L104.2,4l0.6,0.5l0.5,2.5
	l1.2,1.4l1.2-1l6.8-0.3l0.6,6.7l-1.9,0.3l-1.2,8.4l-0.4,1.8L106,29l1.2,6.8l-2.1,1.9l0.1,10.5l1.9,6.8l-6.1-1l-0.3,5l4,2.4l-4.6,5.8
	l2.7,3.9l-1.3,6.2l-4.1,4.4l-5.3,13.9l3.6,8.9l4.3,5.3l-0.1,3.4l1.8,1l-3,3.6l-0.1,5.2l3.1,0.4l-2.4,6.7l0.4,3.6l-2.2-0.1l-1.3,2.5
	l-4.2,3.4l-4.6,0.4"/>
<path id="AOMORI" class="st0" d="M6.2,107.2c0,0-0.5-5.7-2.1-8.9l-3.9-0.2l-0.2-3c0,0,8.2-5.4,10.3-11.8l4.8-2.6l3.6,2.3
	c0,0,5.6-0.8,6.6-4.3c0,0,3.3,3.6,6.4-4.9c0,0,4.1-15.3,3.1-24L33,47.4l-3-0.2l-0.2-2.1l3.8,0.8c0,0,3.9-3.1,2.3-9.4l1-2.6l3.9,2.3
	c0,0,5.6,10.3,10.7,0.7c0,0,4.4-0.8,8.4,4.6c0,0-1.3,16.9,2.6,27.4c0,0,5.9,14.1,14.6-1.8L76,63.5l2.1-6.1l7.9,4.9l0.2,2.1l2.3,0.7
	l3.4,1.3c0,0,5.6,13.8,13.3-6.7l1.3-11.5l1.8-2.5c0,0,1.6-8.5-6.2-13.5c0,0-3.1-1.5-3.9,3.4l-1.8,2.3l-4.6,2.8l-2.3,0.5
	c0,0-2.3-3.9-5.9,0.5c0,0-3.4-0.2-4.4,1.3c0,0-4.3-0.3-5.9,3c0,0-3.8,2.3-3.9-4.8l1.2-2.8c0,0,3.8-17.4,4.4-18.9l5.6-8.7l-1-2
	l1.5-2.5c0,0,4.4,6.9,12,5.9l3.6,2.1c0,0,13.6,20.7,26.6,3l-0.5,4.9c0,0-7.1,18.9-4.9,26.8c0,0-2.1,35.8,8.2,51.9
	c0,0,1.6,4.3,5.7,1.5l8.4,8.7l-2.1,2l-4.9,1.8l-0.5,2.8l-3.9,3l-6.6-2.8l-6.9,4.4l-3.1-3.8l-7.9,5.3l-8.5,3.4l0.5,1.8l-7.7,4.3
	l-2.8-1.1l-1.9-2.1l1.3-9.4l2.1-0.3l-0.7-7.4l-7.6,0.3l-0.4-1.5l0.2-0.8l1.2,1.8l1.1-0.5l-0.7-1.8l0.5-0.9l1.7,1.5l0.7-2.3l-2.2-2.6
	l-2.8,0.3l-0.2-1.4l-2.7,0.4l-2.5,1.9l-1,3.4l-12.6,3l-6.9-0.7l-8.5-4.9h-5.9l-1.3,3.6l-17.9,0.3l-1.3-2.8l-5.1,1l-0.7,3.3l-5.6-0.8
	L6.2,107.2z"/>
<path id="HOPPOURYOUDO" class="st0" d="M19.1,120.9l2.8,0.1l0.1,1.3h-2.4L19.1,120.9z M35.1,112.3l1.3-1.2l1.5,0.5l0.3,1L35.1,112.3
	z M25.1,122.8l1.3-1.3l1.7-0.3l0.1,0.5l-0.8,0.9h-1.3l-0.3,0.6L25.1,122.8z M1.3,107.8l-0.6-2L0,102.1l1.7-1.2l1.2-2.3l10.1-7
	c0,0,1.7,0,0.9-3.3c-0.1,0.3,6.7-7.7,6.7-7.7l2.9-2.6l0.9-3.6c0,0,2.8-1.9,2.7-4.5c0.3,0.4,2.3-3.2,5.4-0.3
	c-0.1,0.3,5.1,6.1,14.6,1.4c0,0.4-1.8,4-3.3,4.9c0,0.3-2.3-2.4-5,1.4c0,0.4-2.9,4-7.9,2.9c0.1,0.3-5.4,0.6-4.7,4.2
	c0.1,0.3-6.1,1.3-7.3,6l0.5,1.9l-1.9-0.5l-1.9,3.6c0,0,1.2,2-4.6,2.6c0.1,0.1-3.5,2.6-3.5,2.6s-0.4,8.2-1.7,10.1
	c0.3,0.4-0.5-0.6-0.5-0.6l0.4-3.1L1.3,107.8z M47.6,103.1l5.4-1.3l-0.4-0.9l4.6-1.7l3.6,2.3l-0.5,1.3l-10.1,5.3l-2-1.8L47.6,103.1z
	 M62,62.5c0.6,4.2,5.4,2.6,2.3-1.4c0.3,0.4,2.2-0.1,2.2-0.1l1.2,1c0,0,4.2-1,4.4-5.6c-4-0.5-6.7-5.8,0.3-2c-0.1,0.4,2.9-0.6,2.7-4.1
	c0.3,0.3,4.9-0.9,7.7-4.9c0.1,0,1.9-0.6,1.9-0.6l0.9-5.8h1.7c0,0,0.9,2.3,5.1,0.4c-0.1,0-0.9-5.8,5.9-5.9c0.3,0.5,1.3-0.1,1.2-2.8
	c0.1,0.3-1-4.7-1-4.7l2.8-3.3l1.5,1l2.8,6.9c0,0,6.1,2.3,11.9-0.6c0.1,0.3,5.6-4.1,6.3-6.3c0,0.3,7.4-5.9,7.4-5.9s6.4-2.8,9,1.2
	c0,0.3-0.4,1.4-0.4,1.4s-4.7,2.4-0.4,3.8c0,0.5-1.5,3.6-1.5,3.6l-2.6,0.3c0,0-5.1-2-10.9,2.9c0.3,0.1-3.7,1.9-3.7,1.9s-4.4,0-6,2
	c0.4-0.1-6,2.7-11.1,8.8c0,0.4-7.7,5-10.2,1.4c1.2-3.1-7.7,0.6-3.2,2.4c-1.7,5.3-4.4,5.8-3.8,5.8c0.1,0.3-3.2,1.4-3.2,1.4
	s-6,3.3-8.5,8.8c0,0.1-2,3.3-6.1,1.9c-0.3,0.3-4.7,3.3-5,6.8c0.1,0.1-1,0.4-1,0.4s-6.1,0-2.8-4.5c0.5,0,1.4-0.5,1.4-0.5
	s2.4-0.5,0.8-2.9C61.7,64.9,62.3,62.6,62,62.5z M29.7,116c0,0-3.2,1-3.1,1.3c0.1,0.3,2.4,3.1,2.4,3.1l2.6-1.4l0.4-2L29.7,116z"/>
<path id="HOKKAIDO" class="st0" d="M126.6,67.4c0.4,1.4,0.4,3.6,1.5,4.8c-0.1,0.1,1.4,2.6,4.3,3.2c0.1,0,3.9-3.6,3.9-3.6
	c1.7,0.8,3.5,0.3,3.6,0.3c0.1,0,0,1.7-4.2,1.8c0,0.2-0.8,1-0.8,1l-0.7,0.1c0,0-0.6,2.4-0.8,3.1c-2-0.1-3-0.6-7.6,1.2
	c0.1,0-1.8-1.5-2.6,2.5c0.4-0.1-1.3,0.6-1.3,0.6s-0.1,0.8-0.8,1.1c-1.3,0.6-3.7,0.6-3.7-1.7c-0.1,0.1-2.1-0.6-2.7,2
	c0,0.1,1.4,1.2,1.4,1.2c0,0.3-6.3-0.5-6.3-0.4c0.1,0.4-1.7,0.5-3.9-1.3c-7.7,0.1-12.8,6-16.4,9.5c-3.6,3.5-7.1,9-7.7,12.1
	c0,0.1,0.8,1.4,0.8,1.4l-0.7,3.9c0,0-1.3,1.3-1.5,3.6c0,0.1-2-1.5-2-1.5s-0.6-0.9-0.6-1s-4.5-3.1-4.6-3.1c-0.1,0-2.3,0.1-4.5-1.7
	c0.2,0-1.6-0.6-1.6-0.6l-4.3-1.9l-1.2-1.1H61c0,0-3.7-2.2-4.9-4c-0.8-0.7-2.9-0.5-3.6-1.1c-0.8-0.6-3.4-4.3-10.6-3.8
	c-5.1,1.7-6.7,3.5-8.6,4.8c0.4,0-2.4,0.5-4.4,3.9c0,0.8-1.1,0.1-1.1,0.1s-0.7-0.6-0.8-0.8c-0.2-0.5-0.5-0.7-0.5-0.7s-0.6-3.2-1.6-3
	c0.4,0.2-1.4-1-1.4-1s-0.4-3.6-4.6-1.8c0,0.1-1.4-1.1-2.8-0.6c0.2,0.1-4.4,3.1-4.2,9.7c0.2,0.6,1.2,0.8,2.5,0.4
	c0,0.3,3.9,3.6,3.9,3.6s3.7-0.9,3.8-0.8c0.1,0.1,0.7,0.5,0.7,0.5s1.3,1.2,1.2,1.2c-0.1,0,0.2,1.7,2.1,2.5c-0.2,0.1,2.3,3.6,3.9,2.9
	c-0.1,0.2,1.9,1.1,2,1.1c0.1,0,0.3,0.7,0.2,0.7c-0.1,0,0.6,0.8,0.7,0.8c0.1,0-1,0.5-2,0.5c0.1,0.2-0.3,1.9-3.1,2.1
	c0.1,0.2-2.2-1.7-3.1-1.4c-0.3,0.1-1.7-0.4-1.8-0.4c-0.2,0-1.5,1.3-1.3,1.1c1.3-2.4-2-3.7-2.2-0.6c-0.6,0.9-1.7,1.5-1.7,1.5
	s-3-0.1-2.5,2.3c0,0.3,0,2.8,0,2.8l-1.1,0.5c0,0-2.9,0.4-4.2,3.3c0.1,0-1.5-1.4-2.7-0.7c0.4,0.3-4.9-3.3-0.4-9.9
	c0.1-0.2,0.2-1.2,0.2-1.2h0.7c0.2,0,2.3-5.4-2.1-8.8c0.1,0.2-2.4-0.7-2.4-0.7l-1.2-2.3l-1.2-0.3c0,0-1-0.6-0.9-0.7
	c0.1-0.1,0.1-1.2,0.1-1.2L0,102.6l0.4-0.9c-0.1-0.2,2.4,0,0.9-7.5C1.6,94.6,1.3,92,5.5,92c1.4,0,1.3-0.2,1.7-1.1
	C7.8,90.9,8.7,90,8.7,90l1.1-1.9l1.1,0.9c-0.2,1.2,2.2,1,1.6-0.7c0,0,1.6-1.9,1.6-2c0-0.1,0.2-0.8,0.2-0.8c0,0,0.8-0.7,3.2-2.2
	c-0.2,0,0.2-0.9,0.2-0.9l-2.6-3.6c0,0-3-1.5-1.7-3.5c0.1-0.4,0.1-1.3,0.3-1.7c0.1,0,1,0.2,1.8-0.2c0.7-0.4,0.5-1.2,1.4-1.3
	c0,0,1.8,2.4,2.9,2.5c0,0,1.9,2,3.6,2c0.1,0.1,0,2,1.9,0.5c0.4,0.6,2.4-0.8,3.7-0.7c0,0.1-0.6,1.1,0.4,1.4c0,0.1,2.9,1.2,2.9,1.2
	c0,0.1,5.7-1.6,6.4-7.3c0.1,0.3-1.8-3.5-1.8-3.5s1.2-1.6,0.1-3c-0.2-0.5-0.3-1.1-0.4-1.2c0,0-1.4-3.9,3.9-5.2c0,0,3-0.4,3.5-5.4
	c0.3,0.3-0.4-7.9-0.4-7.9s3.5-3.6,2.8-6.9c0.2,0.4,2.2-6.1-4.7-18.2c0.3-0.1,0-1.3,0-1.3s1.2-0.2,1.1-2.4c0,0.4,1.2-1.5,1.2-1.5
	l-0.4-0.5l-0.3-1l0.4-0.7c0,0,0.9,1.5,2.3,1.1c0,0.1,2.9,0.8,3.2-3c0.2-0.1,1.5-0.3,1.5-0.3l0.8,1.5l1.4,1.7l3.3,2.2
	c0,0,5.2,6.5,7.3,8.1c2.1,1.6,1.2,4.7,7.5,10.4S79.3,42.1,83,44c0.2,0.1,0.4,3.9,19.8,7.5c0.1,0.2,1.1,0.1,1.1,0.1
	c0.2,1.7,0,2.4,1,3.5c0,0,3.7,2.7,11,1.7c1.2-0.7,8.5-7.3,9-7.5c0,0.1,1.4-1,1.4-2c1.1-0.5,1.7-1.4,2.4-2.7c0.5,0.3,0.9,2.3,0.9,2.3
	c-0.2,0.2-0.4,2.5-2.6,4c0.1,0.2-0.4,1.8-0.4,1.9c0,0.1-3,3-3.4,5.3c0.1,0.2,0,0.9,0,0.9l-0.8,1.4c0,0,0.4,2.1,2,4.1
	c-0.1,0.1,1.2,0.8,1.2,0.8s2.5,0.5,3.3,1c0,0,0.7,0.7,0,1.1l-1.2-0.1l0.7-0.4l0-0.5l-1.7-0.2l0.4-0.3l-1.3-0.4l-0.1,0.5l0.5,0.3
	C126.3,66.4,126.2,66.1,126.6,67.4z M97.5,50.9l-7.3-2.1c0,0,2.6,3.9,4,2.5c0.1,0.4,2.4,0.7,2.4,0.7L97.5,50.9z M36.5,88.7l-0.8,1.1
	c0,0-1-0.3-1-0.2s0.1,1.7,0.1,1.7l0.6,0.2l1.1-1l1.4,0.1C38.7,90.2,37,88.4,36.5,88.7z M25.1,93.4c0,0-1.4,0.8-1.3,1.5
	c0.8,1.1,1.6,0.9,1.7,0.9s1.3-0.3,1.4-1.6C25.8,93.1,25.1,93.4,25.1,93.4z M25.3,94.3c0,0,0.3-0.1,0.4,0.4c0,0.5,0,0.3-0.4,0.4
	c-0.4,0.1-0.3,0-0.3-0.4C24.9,94.2,25.3,94.3,25.3,94.3z M33.3,18.5l1.7,0.7c0,0,1.5,1.6,1.2,2.5s-2.4,1.1-2.4,1.2
	c0,0.1-1.8-0.9-2.1-2.2C31.4,19.3,33.3,18.5,33.3,18.5z M29.9,13.2v3.7l-0.4,1L29,17.7l0.1-1c0,0-1-1.6-0.7-3
	C28.4,13.7,29.9,13.2,29.9,13.2z"/>
<path id="TOKYO_x28_ISLANDS_x29_" class="st0" d="M82.8,131.8c0,0,1.8-0.4,1.9-0.1c0.1,0.3,3.3,3.2,3.3,3.2s1.2,0,1.4,0.1
	c0.1,0.1,0.4,3.3,0.4,3.3l-1.7,1.7l-3-1.2c0,0,0-2.5-0.1-2.5s-1.2,0-1.2,0s-1.2-2.2-1.2-2.1S82.8,131.8,82.8,131.8z M67,54.6
	c0-0.1,2.2-0.3,2.2-0.3s1.8,1.2,1.8,1.4c0,0.1,0,3.2-0.1,3c-0.1-0.1-1.9,1.4-2.1,1.4s-2.3,0.3-2.3,0.3l-1-2.5
	C65.5,57.9,67,54.7,67,54.6z M53.2,29.6l0.3,1.8c0,0-0.8,1.7-1,1.7c-0.1,0-0.4,4.8-0.4,4.8l-1.9-1.5c0,0,0.3-2.1,0.3-2.2
	c0-0.1,0.8-2.2,0.7-2.2C51,31.9,53.2,29.6,53.2,29.6z M57.5,0.1L61.1,1c0,0,2.3,2.3,2.3,2.4c0,0.1,0,6,0,6l-3.4,0.1
	c0,0-2.5-2.6-2.5-2.7C57.6,6.8,57.5,0.1,57.5,0.1z"/>
</svg>
