<?xml version="1.0" encoding="UTF-8"?>
<svg id="_レイヤー_2" data-name="レイヤー 2" xmlns="http://www.w3.org/2000/svg" viewBox="0 0 55.42 39.24">
  <defs>
    <style>
      .cls-1 {
        fill: #be9f6a;
        stroke-width: 0px;
      }
    </style>
  </defs>
  <g id="_01" data-name="01">
    <path class="cls-1" d="M.8.02s-.04,0-.06.01c-.04,0-.08.02-.11.04-.02,0-.04.01-.06.02-.04.02-.08.04-.11.06-.01,0-.03.01-.04.02-.05.03-.09.07-.13.11,0,0-.02.02-.03.03-.03.03-.06.07-.08.1-.01.02-.02.03-.03.05-.02.03-.04.07-.05.1,0,.02-.02.04-.03.06,0,0,0,.02-.01.03-.01.03-.02.06-.03.1,0,.01,0,.03-.01.04-.01.06-.02.12-.02.18,0,0,0,0,0,.01v37.28c0,.54.44.98.98.98h53.45c.54,0,.98-.44.98-.98V.98s0,0,0-.01c0-.06,0-.12-.02-.18,0-.01,0-.02,0-.03,0-.04-.02-.07-.03-.1,0-.01,0-.02-.01-.03,0-.02-.02-.04-.02-.06-.02-.04-.04-.07-.06-.11,0-.02-.02-.03-.03-.05-.03-.04-.06-.07-.09-.11,0,0-.01-.02-.02-.03-.04-.04-.09-.08-.13-.11-.01,0-.02-.01-.03-.02-.04-.02-.08-.05-.12-.06-.02,0-.04-.02-.05-.02-.04-.01-.08-.03-.12-.04-.02,0-.04,0-.05-.01-.06-.01-.12-.02-.18-.02H.98c-.06,0-.12,0-.18.02ZM51.69,1.97l-18.99,15.55v-.67c0-.54-.44-.98-.98-.98h-8c-.54,0-.98.44-.98.98v.61L3.74,1.97h47.94ZM30.73,17.83v6.12h-6.04v-6.12h6.04ZM1.97,3.05l20.76,16.94v4.94c0,.54.44.98.98.98h8c.54,0,.98-.44.98-.98v-4.87L53.45,3.06v34.22H1.97V3.05Z"/>
  </g>
</svg>