<?xml version="1.0" encoding="UTF-8"?>
<svg id="_レイヤー_2" data-name="レイヤー 2" xmlns="http://www.w3.org/2000/svg" viewBox="0 0 65 65">
  <defs>
    <style>
      .cls-1 {
        fill: #be9f6a;
      }

      .cls-1, .cls-2 {
        stroke-width: 0px;
      }

      .cls-2 {
        fill: #fff;
      }
    </style>
  </defs>
  <g id="_モバイル" data-name="モバイル">
    <g>
      <g>
        <polygon class="cls-1" points="17.14 25.65 0 9.91 9.68 49.98 27.52 61.09 8.53 41.69 17.14 25.65"/>
        <polygon class="cls-1" points="32.13 0 9.86 41.5 32.87 65 54.35 42.17 32.13 0"/>
        <polygon class="cls-1" points="46.96 25.86 55.68 42.34 37.21 62.01 55.32 49.98 65 9.91 46.96 25.86"/>
      </g>
      <path class="cls-2" d="M31.34,35.1c.35-.1.71-.15,1.06-.15,1.67,0,2.99.58,3.96,1.73.96,1.15,1.44,2.6,1.44,4.34,0,2.1-.71,3.81-2.14,5.15-1.42,1.34-3.26,2.01-5.5,2.01-1.5,0-2.8-.34-3.88-1.03-1.08-.69-1.62-1.43-1.62-2.22,0-.33.1-.61.31-.85.21-.23.47-.35.8-.35.59,0,1.01.41,1.26,1.22.32,1.04.77,1.71,1.37,2.01.58.31,1.16.46,1.73.46,1.44,0,2.6-.53,3.49-1.58.89-1.05,1.34-2.69,1.34-4.9,0-1.78-.33-3.1-1-3.97-.67-.87-1.46-1.31-2.37-1.31-.79,0-1.65.48-2.6,1.44-.16.17-.32.26-.5.26-.34,0-.51-.18-.51-.55,0-.16.09-.33.26-.51s.67-.55,1.5-1.11c1.8-1.23,2.99-2.24,3.57-3.06.58-.81.87-1.84.87-3.08s-.3-2.09-.91-2.74c-.6-.65-1.41-.97-2.41-.97s-1.93.33-2.73.99c-.79.66-1.19,1.5-1.19,2.52,0,.81.35,1.58,1.04,2.29.08.08.12.15.12.21,0,.15-.19.31-.56.48s-.65.26-.82.26c-.35,0-.68-.27-.99-.81-.31-.54-.46-1.12-.46-1.75,0-1.27.55-2.42,1.64-3.45,1.09-1.03,2.56-1.55,4.39-1.55s3.3.43,4.26,1.3c.96.86,1.44,1.83,1.44,2.89,0,.94-.33,1.81-.98,2.62-.66.81-1.76,1.74-3.32,2.79l-1.38.96Z"/>
    </g>
  </g>
</svg>