<?xml version="1.0" encoding="UTF-8"?>
<svg id="_レイヤー_2" data-name="レイヤー 2" xmlns="http://www.w3.org/2000/svg" viewBox="0 0 65 65">
  <defs>
    <style>
      .cls-1 {
        fill: #be9f6a;
      }

      .cls-1, .cls-2 {
        stroke-width: 0px;
      }

      .cls-2 {
        fill: #fff;
      }
    </style>
  </defs>
  <g id="_モバイル" data-name="モバイル">
    <g>
      <g>
        <polygon class="cls-1" points="17.14 25.65 0 9.91 9.68 49.98 27.52 61.09 8.53 41.69 17.14 25.65"/>
        <polygon class="cls-1" points="32.13 0 9.86 41.5 32.87 65 54.35 42.17 32.13 0"/>
        <polygon class="cls-1" points="46.96 25.86 55.68 42.34 37.21 62.01 55.32 49.98 65 9.91 46.96 25.86"/>
      </g>
      <path class="cls-2" d="M31.6,24.46h.75v18.14c0,1.49.02,2.43.06,2.82.04.39.2.68.49.89.28.21.79.31,1.52.31h.67v.79h-7.69v-.79h.56c.82,0,1.35-.12,1.6-.35.25-.23.39-.51.43-.84.04-.32.06-1.27.06-2.83v-12.17c0-1.54-.02-2.47-.05-2.79-.03-.33-.18-.61-.44-.85-.26-.25-.79-.37-1.6-.37h-.73v-.79c1.97-.03,3.43-.43,4.37-1.18Z"/>
    </g>
  </g>
</svg>