<?xml version="1.0" encoding="utf-8"?>
<!-- Generator: Adobe Illustrator 28.2.0, SVG Export Plug-In . SVG Version: 6.00 Build 0)  -->
<svg version="1.1" id="_レイヤー_2" xmlns="http://www.w3.org/2000/svg" xmlns:xlink="http://www.w3.org/1999/xlink" x="0px"
	 y="0px" viewBox="0 0 28 28" style="enable-background:new 0 0 28 28;" xml:space="preserve">
<style type="text/css">
	.st0{fill:#FFFFFF;}
</style>
<path class="st0" d="M14,0C6.3,0,0,6.3,0,14c0,6.6,4.5,12.1,10.6,13.6v-9.3H7.7V14h2.9v-1.8c0-4.8,2.2-7,6.8-7c0.9,0,2.4,0.2,3,0.3
	v3.9c-0.3,0-0.9-0.1-1.6-0.1c-2.3,0-3.2,0.9-3.2,3.1V14h4.6l-0.8,4.3h-3.8v9.6C22.6,27.1,28,21.2,28,14C28,6.3,21.7,0,14,0z"/>
</svg>
