<?xml version="1.0" encoding="UTF-8"?>
<svg id="_レイヤー_2" data-name="レイヤー 2" xmlns="http://www.w3.org/2000/svg" viewBox="0 0 65 65">
  <defs>
    <style>
      .cls-1 {
        fill: #be9f6a;
      }

      .cls-1, .cls-2 {
        stroke-width: 0px;
      }

      .cls-2 {
        fill: #fff;
      }
    </style>
  </defs>
  <g id="_モバイル" data-name="モバイル">
    <g>
      <g>
        <polygon class="cls-1" points="17.14 25.65 0 9.91 9.68 49.98 27.52 61.09 8.53 41.69 17.14 25.65"/>
        <polygon class="cls-1" points="32.13 0 9.86 41.5 32.87 65 54.35 42.17 32.13 0"/>
        <polygon class="cls-1" points="46.96 25.86 55.68 42.34 37.21 62.01 55.32 49.98 65 9.91 46.96 25.86"/>
      </g>
      <path class="cls-2" d="M24.64,47.61v-1.07c1.3-1.02,2.94-2.63,4.93-4.84,1.99-2.2,3.42-4.11,4.3-5.71s1.32-3.22,1.32-4.86c0-1.96-.44-3.4-1.33-4.32s-1.99-1.38-3.31-1.38-2.3.42-3.02,1.27-1.07,1.75-1.07,2.71c0,1.1.46,1.97,1.38,2.61.34.24.51.42.51.55,0,.21-.19.49-.58.84-.39.35-.71.53-.96.53-.34,0-.75-.35-1.24-1.04-.48-.69-.73-1.58-.73-2.67,0-1.75.68-3.14,2.03-4.17,1.36-1.02,2.84-1.54,4.46-1.54,1.71,0,3.25.53,4.62,1.6,1.37,1.06,2.06,2.65,2.06,4.74,0,1.32-.31,2.57-.92,3.75s-2.11,3-4.49,5.43c-2.37,2.43-4.29,4.26-5.73,5.49h10.87l-.97,3.85h-.8c0-.21.03-.41.1-.62.03-.11.05-.27.05-.46,0-.34-.07-.55-.22-.61-.15-.06-.55-.09-1.2-.09h-10.06Z"/>
    </g>
  </g>
</svg>