<?xml version="1.0" encoding="UTF-8"?>
<svg id="_レイヤー_2" data-name="レイヤー 2" xmlns="http://www.w3.org/2000/svg" viewBox="0 0 85.12 90">
  <defs>
    <style>
      .cls-1 {
        fill: #5187b3;
        stroke-width: 0px;
      }
    </style>
  </defs>
  <g id="_モバイル" data-name="モバイル">
    <g>
      <path class="cls-1" d="M44.03,54.72s.03,0,.04,0c.12.03.25.05.38.05h0s0,0,0,0c.14,0,.28-.02.42-.05,14.19-3.56,33.98-21.05,31.48-39.28-.96-6.97-5.13-12.36-11.17-14.41-6.61-2.25-14.21-.21-20.63,5.44C39.21.96,31.91-1.25,25.12.69c-6.77,1.94-11.59,7.59-12.57,14.75-2.5,18.23,17.29,35.71,31.48,39.28ZM16.01,15.92c.79-5.77,4.65-10.31,10.07-11.86,6.07-1.74,12.44.51,17.03,6.02.02.02.04.03.05.05.02.02.03.04.05.06.02.02.05.04.08.07.04.04.09.08.14.11.05.03.09.06.14.09.05.03.1.06.15.08.05.02.1.04.15.06.06.02.11.04.17.05.05.01.1.02.15.03.06,0,.12.02.19.02.05,0,.09,0,.14,0,.06,0,.13,0,.19-.02.05,0,.09-.02.14-.03.06-.01.12-.03.19-.05.05-.02.09-.04.14-.06.06-.03.11-.05.17-.09.05-.03.09-.06.14-.09.03-.02.06-.04.09-.06.02-.02.03-.04.05-.05.02-.02.04-.03.06-.04,5.71-5.64,12.58-7.83,18.38-5.86,4.82,1.64,8.04,5.86,8.83,11.58,2.14,15.62-15.35,31.75-28.44,35.29-13.09-3.54-30.58-19.67-28.44-35.29Z"/>
      <path class="cls-1" d="M84.9,60.16c-.16-.48-.52-.87-.98-1.06-1.53-.64-6.17-2.6-11,2.74-3.16,3.5-7.1,6.29-11.41,8.06-.08.03-.16.06-.23.09-1.38.56-2.8,1.01-4.26,1.34,2.19-.98,3.51-2.15,4.09-3.57.71-1.73,1.08-5.3-.95-7.5-1.07-1.16-3.14-2.28-6.91-1.06-5.07,1.63-9.91.89-12.51.49-.61-.09-1.11-.17-1.47-.2-3.29-.29-5.01-.53-6.27-.7-2.04-.28-2.88-.39-6.89-.27-.18.01-4.63.38-13.82,3.53-3.02,1.04-7.65,2.37-11.01,3.3-.93.26-1.48,1.22-1.22,2.15.26.93,1.22,1.48,2.15,1.22,3.4-.94,8.1-2.29,11.21-3.36,8.68-2.98,12.9-3.34,12.87-3.34h0c3.64-.11,4.29-.02,6.23.24,1.29.18,3.06.42,6.43.72.31.03.73.09,1.24.17,2.89.45,8.26,1.28,14.12-.61,1.11-.36,2.59-.64,3.27.1.78.84.69,2.81.29,3.8-.25.62-1.66,2.21-9.19,3.63-2.67.5-4.81.55-5.93.55-.2,0-.36,0-.5,0-1.64,0-2.08.85-2.16,1.57-.18,1.59,1.38,1.93,1.98,2.06.04,0,.08.02.13.04.04.02.09.03.14.04,6.71,1.9,13.91,1.51,20.26-1.1.04-.02.08-.03.11-.05-.03.02-.06.03-.05.03.04-.01.08-.03.11-.04,4.81-1.97,9.21-5.07,12.73-8.97,2.55-2.82,4.69-2.67,6.13-2.21-.05,1.77-1.12,5.69-3.5,8.52-8.5,10.08-21.65,14.43-21.78,14.47-.01,0-.1.03-.11.04-.31.1-.78.26-1.41.4-9,2.11-18.69,1.14-27.27-2.72-1.27-.58-2.65-1.21-4.17-1.88-.1-.04-.21-.08-.32-.11-3.58-.81-9.27-1.64-17.33.58-.93.26-1.48,1.22-1.22,2.15.26.93,1.22,1.48,2.15,1.22,5.57-1.53,10.35-1.71,15.46-.58,1.44.64,2.75,1.23,3.98,1.79,6.07,2.74,12.65,4.13,19.2,4.13,3.47,0,6.94-.39,10.31-1.18.78-.18,1.38-.38,1.75-.51.14-.04,14.14-4.55,23.43-15.56,3.33-3.97,4.93-10.02,4.08-12.59Z"/>
      <path class="cls-1" d="M27.71,29.76c.8-.54,1.01-1.63.46-2.43-4.57-6.73-3.02-10.89-1.7-12.78,1.44-2.05,3.36-2.6,3.79-2.5.91.32,1.91-.16,2.22-1.08.32-.91-.16-1.91-1.07-2.23-2.2-.77-5.44.7-7.53,3.42-1.63,2.12-4.76,8.04,1.4,17.12.34.5.89.77,1.45.77.34,0,.68-.1.98-.3Z"/>
    </g>
  </g>
</svg>