<?xml version="1.0" encoding="utf-8"?>
<!-- Generator: Adobe Illustrator 28.2.0, SVG Export Plug-In . SVG Version: 6.00 Build 0)  -->
<svg version="1.1" id="レイヤー_1" xmlns="http://www.w3.org/2000/svg" xmlns:xlink="http://www.w3.org/1999/xlink" x="0px"
	 y="0px" viewBox="0 0 28 28" style="enable-background:new 0 0 28 28;" xml:space="preserve">
<style type="text/css">
	.st0{fill:#FFFFFF;}
</style>
<g>
	<path class="st0" d="M20.2,9.3c-0.1-0.3-0.3-0.7-0.6-0.9c-0.3-0.3-0.6-0.5-0.9-0.6c-0.3-0.1-0.7-0.2-1.5-0.3c-0.8,0-1.1,0-3.2,0
		s-2.4,0-3.2,0c-0.8,0-1.2,0.2-1.5,0.3C8.9,7.9,8.6,8.1,8.4,8.4C8.1,8.6,7.9,8.9,7.8,9.3C7.7,9.6,7.5,10,7.5,10.8c0,0.8,0,1.1,0,3.2
		s0,2.4,0,3.2c0,0.8,0.2,1.2,0.3,1.5c0.1,0.3,0.3,0.7,0.6,0.9c0.3,0.3,0.6,0.5,0.9,0.6c0.3,0.1,0.7,0.2,1.5,0.3c0.8,0,1.1,0,3.2,0
		s2.4,0,3.2,0c0.8,0,1.2-0.2,1.5-0.3c0.7-0.3,1.2-0.8,1.5-1.5c0.1-0.3,0.2-0.7,0.3-1.5c0-0.8,0-1.1,0-3.2s0-2.4,0-3.2
		C20.5,10,20.3,9.6,20.2,9.3z M14,18.1c-2.3,0-4.1-1.8-4.1-4.1s1.8-4.1,4.1-4.1c2.3,0,4.1,1.8,4.1,4.1S16.3,18.1,14,18.1z
		 M18.3,10.7c-0.5,0-1-0.4-1-1c0-0.5,0.4-1,1-1c0.5,0,1,0.4,1,1C19.2,10.3,18.8,10.7,18.3,10.7z"/>
	<path class="st0" d="M14,11.3c-1.5,0-2.7,1.2-2.7,2.7c0,1.5,1.2,2.7,2.7,2.7c1.5,0,2.7-1.2,2.7-2.7C16.7,12.5,15.5,11.3,14,11.3z"
		/>
	<path class="st0" d="M14,0C6.3,0,0,6.3,0,14s6.3,14,14,14s14-6.3,14-14S21.7,0,14,0z M22,17.3c0,0.9-0.2,1.4-0.4,1.9
		c-0.4,1.1-1.3,1.9-2.3,2.3c-0.5,0.2-1.1,0.3-1.9,0.4c-0.9,0-1.1,0-3.3,0c-2.2,0-2.4,0-3.3,0c-0.9,0-1.4-0.2-1.9-0.4
		c-0.5-0.2-1-0.5-1.4-0.9c-0.4-0.4-0.7-0.9-0.9-1.4c-0.2-0.5-0.3-1.1-0.4-1.9c0-0.9,0-1.1,0-3.3c0-2.2,0-2.4,0-3.3
		c0-0.9,0.2-1.4,0.4-1.9c0.2-0.5,0.5-1,0.9-1.4c0.4-0.4,0.9-0.7,1.4-0.9C9.3,6.2,9.9,6.1,10.7,6c0.9,0,1.1,0,3.3,0h0h0l0,0
		c2.2,0,2.4,0,3.3,0c0.9,0,1.4,0.2,1.9,0.4c0.5,0.2,1,0.5,1.4,0.9c0.4,0.4,0.7,0.9,0.9,1.4c0.2,0.5,0.3,1.1,0.4,1.9
		c0,0.9,0,1.1,0,3.3C22,16.2,22,16.4,22,17.3z"/>
</g>
</svg>
