<?xml version="1.0" encoding="UTF-8"?>
<svg id="_レイヤー_2" data-name="レイヤー 2" xmlns="http://www.w3.org/2000/svg" viewBox="0 0 90.01 90">
  <defs>
    <style>
      .cls-1 {
        fill: #5187b3;
        stroke-width: 0px;
      }
    </style>
  </defs>
  <g id="_モバイル" data-name="モバイル">
    <g>
      <path class="cls-1" d="M45.86,90h-.86s-.85,0-.85,0c-2.32,0-4.01-.18-6.35-2.63-.45-.47-.56-1.17-.28-1.76.86-1.8,1.6-4.09,2.13-6.63.21-1-.43-1.96-1.47-2.19-3.88-.83-7.54-2.34-10.87-4.51-.84-.55-2.02-.3-2.55.52-.99,1.52-2.34,3.82-3.18,6.2-.22.61-.79,1.03-1.44,1.04h-.33c-3.4,0-4.62-1.22-6.3-2.92l-.63-.63c-1.75-1.73-3.02-2.99-2.93-6.65.01-.65.43-1.22,1.04-1.44,1.88-.67,4.03-1.77,6.21-3.19.84-.55,1.08-1.7.52-2.55-2.17-3.33-3.68-6.98-4.51-10.86-.21-1-1.2-1.68-2.18-1.47-2.54.54-4.83,1.28-6.64,2.14-.59.28-1.29.17-1.76-.28C-.01,49.68,0,47.9,0,45.45v-.45S0,44.55,0,44.55c0-2.46-.01-4.23,2.62-6.76.47-.45,1.17-.56,1.76-.28,1.8.86,4.1,1.6,6.64,2.13.99.21,1.97-.47,2.19-1.47.83-3.88,2.35-7.54,4.51-10.87.56-.86.32-2-.52-2.55-2.18-1.42-4.32-2.52-6.2-3.18-.61-.22-1.03-.79-1.04-1.44-.08-3.66,1.17-4.91,2.92-6.64l.65-.65c1.68-1.7,2.9-2.92,6.3-2.92h.33c.65.02,1.23.43,1.44,1.05.84,2.38,2.19,4.69,3.18,6.21.53.82,1.72,1.06,2.55.52,3.33-2.17,6.99-3.68,10.87-4.51,1.04-.22,1.68-1.18,1.47-2.18-.37-1.77-1.05-4.36-2.14-6.64-.28-.59-.17-1.29.28-1.76,2.34-2.44,4.03-2.62,6.35-2.62h.85s.86,0,.86,0c2.32,0,4.01.18,6.35,2.62.45.47.57,1.17.28,1.76-1.09,2.28-1.76,4.87-2.14,6.64-.21,1,.43,1.96,1.47,2.18,3.88.83,7.53,2.35,10.87,4.51.84.54,2.02.3,2.55-.52.99-1.52,2.34-3.83,3.18-6.21.22-.61.79-1.03,1.44-1.04h.33c3.4,0,4.62,1.23,6.31,2.93l.64.64c1.73,1.73,2.99,2.98,2.91,6.63-.01.65-.43,1.23-1.05,1.44-1.88.66-4.03,1.76-6.2,3.18-.84.55-1.08,1.7-.52,2.55,2.16,3.33,3.68,6.98,4.51,10.87.21,1,1.2,1.68,2.19,1.47,2.54-.54,4.83-1.28,6.63-2.13.59-.28,1.29-.17,1.75.28,2.65,2.53,2.64,4.3,2.63,6.76v.45s0,.44,0,.44c0,2.46.01,4.23-2.63,6.77-.47.45-1.17.56-1.76.28-1.8-.86-4.09-1.6-6.63-2.13-.99-.21-1.97.47-2.19,1.47-.83,3.88-2.35,7.53-4.51,10.86-.56.86-.32,2,.52,2.55,2.18,1.42,4.32,2.52,6.21,3.19.61.22,1.03.79,1.04,1.44.08,3.65-1.18,4.9-2.93,6.64l-.62.62c-1.69,1.7-2.91,2.93-6.31,2.93h-.33c-.65-.02-1.23-.43-1.44-1.04-.67-1.88-1.77-4.03-3.19-6.21-.53-.82-1.72-1.06-2.55-.52-3.33,2.17-6.98,3.68-10.86,4.51-1.04.22-1.68,1.18-1.47,2.19.54,2.54,1.28,4.83,2.13,6.63.28.59.17,1.29-.28,1.76-2.35,2.44-4.04,2.62-6.35,2.62ZM45,86.87h.86c1.47,0,2.22,0,3.35-.95-.77-1.82-1.41-3.93-1.91-6.28-.57-2.67,1.17-5.32,3.88-5.89,3.5-.75,6.8-2.12,9.8-4.07.82-.53,1.76-.81,2.73-.81,1.68,0,3.24.84,4.15,2.25,1.32,2.02,2.36,3.97,3.11,5.81,1.47-.12,1.99-.65,3.32-1.98l.64-.64c1.31-1.3,1.86-1.85,1.98-3.32-1.84-.75-3.78-1.79-5.8-3.11-2.29-1.49-2.93-4.58-1.44-6.88,1.96-3.01,3.33-6.31,4.07-9.81.49-2.31,2.54-3.99,4.87-3.99.34,0,.69.04,1.03.11,2.36.5,4.47,1.14,6.29,1.91.96-1.13.96-1.9.95-3.75v-.46s0-.46,0-.46c0-1.84,0-2.62-.95-3.74-1.82.77-3.93,1.41-6.29,1.9-.34.07-.69.11-1.03.11-2.33,0-4.37-1.68-4.87-3.99-.75-3.5-2.12-6.81-4.07-9.81-1.5-2.3-.85-5.39,1.44-6.88,2.02-1.31,3.97-2.35,5.8-3.1-.12-1.47-.67-2.01-1.97-3.31l-.65-.66c-1.32-1.33-1.85-1.86-3.31-1.98-.75,1.84-1.79,3.79-3.1,5.81-.92,1.41-2.47,2.25-4.15,2.25-.97,0-1.91-.28-2.73-.81-3.01-1.96-6.31-3.33-9.82-4.07-2.7-.58-4.44-3.22-3.88-5.89.5-2.35,1.14-4.46,1.91-6.29-1.13-.95-1.88-.95-3.35-.95h-.86s-.85,0-.85,0c-1.47,0-2.22,0-3.34.95.77,1.83,1.41,3.94,1.91,6.29.57,2.67-1.17,5.32-3.88,5.89-3.51.75-6.81,2.12-9.82,4.07-.82.53-1.76.81-2.73.81-1.68,0-3.24-.84-4.15-2.25-1.31-2.02-2.35-3.97-3.1-5.81-1.47.12-1.99.64-3.3,1.97l-.66.66c-1.3,1.3-1.85,1.84-1.97,3.31,1.84.75,3.78,1.79,5.8,3.1,2.29,1.49,2.94,4.58,1.44,6.88-1.96,3.01-3.33,6.31-4.07,9.82-.49,2.31-2.54,3.99-4.87,3.99-.34,0-.69-.04-1.03-.11-2.35-.5-4.47-1.14-6.29-1.91-.95,1.12-.95,1.9-.94,3.74v.46s0,.46,0,.46c0,1.84,0,2.62.95,3.75,1.83-.77,3.94-1.41,6.3-1.91.34-.07.68-.11,1.03-.11,2.33,0,4.37,1.68,4.87,3.99.75,3.5,2.12,6.8,4.07,9.81,1.5,2.3.85,5.39-1.44,6.88-2.02,1.32-3.97,2.36-5.81,3.11.12,1.47.67,2.02,1.98,3.32l.65.65c1.32,1.32,1.84,1.85,3.31,1.97.93-2.27,2.17-4.37,3.1-5.8.92-1.41,2.47-2.25,4.15-2.25.97,0,1.91.28,2.73.81,3.01,1.96,6.31,3.33,9.82,4.07,2.7.58,4.44,3.22,3.88,5.89-.5,2.35-1.14,4.46-1.9,6.29,1.12.95,1.87.95,3.34.95h.85ZM52.8,67.66c-4.77,0-8.64-3.88-8.64-8.64s3.88-8.64,8.64-8.64,8.64,3.88,8.64,8.64-3.88,8.64-8.64,8.64ZM52.8,53.5c-3.04,0-5.51,2.47-5.51,5.51s2.47,5.51,5.51,5.51,5.51-2.47,5.51-5.51-2.47-5.51-5.51-5.51ZM31.89,61.22c-4.77,0-8.64-3.88-8.64-8.64s3.88-8.64,8.64-8.64,8.64,3.88,8.64,8.64-3.88,8.64-8.64,8.64ZM31.89,47.06c-3.04,0-5.51,2.47-5.51,5.51s2.47,5.51,5.51,5.51,5.51-2.47,5.51-5.51-2.47-5.51-5.51-5.51ZM56.63,46.35c-4.77,0-8.64-3.88-8.64-8.64s3.88-8.64,8.64-8.64,8.65,3.88,8.65,8.64-3.88,8.64-8.65,8.64ZM56.63,32.19c-3.04,0-5.51,2.47-5.51,5.51s2.47,5.51,5.51,5.51,5.52-2.47,5.52-5.51-2.48-5.51-5.52-5.51ZM35.85,40.66c-4.77,0-8.64-3.88-8.64-8.64s3.88-8.64,8.64-8.64,8.64,3.88,8.64,8.64-3.88,8.64-8.64,8.64ZM35.85,26.5c-3.04,0-5.51,2.47-5.51,5.51s2.47,5.51,5.51,5.51,5.51-2.47,5.51-5.51-2.47-5.51-5.51-5.51Z"/>
      <path class="cls-1" d="M35.85,40.66c-4.77,0-8.64-3.88-8.64-8.64s3.88-8.64,8.64-8.64,8.64,3.88,8.64,8.64-3.88,8.64-8.64,8.64ZM35.85,26.5c-3.04,0-5.51,2.47-5.51,5.51s2.47,5.51,5.51,5.51,5.51-2.47,5.51-5.51-2.47-5.51-5.51-5.51Z"/>
      <path class="cls-1" d="M56.63,46.35c-4.77,0-8.64-3.88-8.64-8.64s3.88-8.64,8.64-8.64,8.65,3.88,8.65,8.64-3.88,8.64-8.65,8.64ZM56.63,32.19c-3.04,0-5.51,2.47-5.51,5.51s2.47,5.51,5.51,5.51,5.52-2.47,5.52-5.51-2.48-5.51-5.52-5.51Z"/>
      <path class="cls-1" d="M31.89,61.22c-4.77,0-8.64-3.88-8.64-8.64s3.88-8.64,8.64-8.64,8.64,3.88,8.64,8.64-3.88,8.64-8.64,8.64ZM31.89,47.06c-3.04,0-5.51,2.47-5.51,5.51s2.47,5.51,5.51,5.51,5.51-2.47,5.51-5.51-2.47-5.51-5.51-5.51Z"/>
      <path class="cls-1" d="M52.8,67.66c-4.77,0-8.64-3.88-8.64-8.64s3.88-8.64,8.64-8.64,8.64,3.88,8.64,8.64-3.88,8.64-8.64,8.64ZM52.8,53.5c-3.04,0-5.51,2.47-5.51,5.51s2.47,5.51,5.51,5.51,5.51-2.47,5.51-5.51-2.47-5.51-5.51-5.51Z"/>
    </g>
  </g>
</svg>