<?xml version="1.0" encoding="utf-8"?>
<!-- Generator: Adobe Illustrator 28.2.0, SVG Export Plug-In . SVG Version: 6.00 Build 0)  -->
<svg version="1.1" id="_レイヤー_2" xmlns="http://www.w3.org/2000/svg" xmlns:xlink="http://www.w3.org/1999/xlink" x="0px"
	 y="0px" viewBox="0 0 100 100" style="enable-background:new 0 0 100 100;" xml:space="preserve">
<style type="text/css">
	.st0{fill:#BE9F6A;}
	.st1{fill:#FFFFFF;}
</style>
<g id="_モバイル">
	<g>
		<g>
			<polygon class="st0" points="35.8,43.7 20,29.1 28.9,66.1 45.4,76.4 27.9,58.5 			"/>
			<polygon class="st0" points="49.7,20 29.1,58.3 50.3,80 70.8,58.3 			"/>
			<polygon class="st0" points="64,43.9 72,58.5 53.7,77.9 71.1,66.1 80,29.1 			"/>
		</g>
		<g>
			<path class="st1" d="M45.6,54.9h-0.4c0-0.2-0.1-0.3-0.2-0.5c-0.1-0.2-0.2-0.4-0.3-0.6c-0.1-0.2-0.3-0.4-0.4-0.5
				c-0.2-0.1-0.3-0.2-0.4-0.2c-0.1,0-0.3,0-0.5,0c-0.2,0-0.4,0-0.5,0h-0.4v7.1c0,0.1,0,0.3,0.1,0.4c0.1,0.1,0.2,0.2,0.3,0.3
				c0.1,0,0.2,0.1,0.5,0.1c0.2,0,0.4,0.1,0.6,0.1v0.4h-4.2v-0.4c0.1,0,0.3,0,0.5,0c0.2,0,0.4-0.1,0.5-0.1c0.1,0,0.2-0.1,0.3-0.2
				s0.1-0.2,0.1-0.4V53h-0.4c-0.1,0-0.3,0-0.5,0c-0.2,0-0.4,0-0.6,0c-0.1,0-0.3,0.1-0.4,0.2c-0.1,0.2-0.3,0.3-0.4,0.5
				c-0.1,0.2-0.2,0.4-0.3,0.6s-0.2,0.4-0.2,0.5h-0.4v-2.4h7.7L45.6,54.9L45.6,54.9z"/>
			<path class="st1" d="M53.1,53.6c0.4,0.4,0.7,0.9,0.9,1.5s0.3,1.2,0.3,1.9s-0.1,1.3-0.3,1.9c-0.2,0.6-0.5,1.1-0.9,1.5
				c-0.4,0.4-0.8,0.7-1.4,0.9c-0.5,0.2-1,0.3-1.6,0.3c-0.6,0-1.2-0.1-1.7-0.3s-1-0.5-1.3-1c-0.4-0.4-0.7-0.9-0.9-1.5
				s-0.3-1.2-0.3-1.8c0-0.7,0.1-1.4,0.3-1.9c0.2-0.6,0.5-1,0.9-1.5c0.4-0.4,0.8-0.7,1.4-0.9c0.5-0.2,1.1-0.3,1.6-0.3
				s1.1,0.1,1.7,0.3S52.8,53.2,53.1,53.6L53.1,53.6z M52.2,59.8c0.2-0.4,0.4-0.8,0.5-1.3c0.1-0.5,0.2-1,0.2-1.6s-0.1-1.2-0.2-1.7
				s-0.3-0.9-0.5-1.3c-0.2-0.3-0.5-0.6-0.9-0.8s-0.7-0.3-1.2-0.3c-0.5,0-0.9,0.1-1.3,0.3s-0.6,0.5-0.8,0.9c-0.2,0.4-0.4,0.8-0.5,1.3
				s-0.2,1-0.2,1.5c0,0.6,0,1.1,0.2,1.6s0.3,0.9,0.5,1.3c0.2,0.4,0.5,0.7,0.9,0.9s0.8,0.3,1.2,0.3c0.4,0,0.8-0.1,1.2-0.3
				C51.7,60.5,52,60.2,52.2,59.8L52.2,59.8z"/>
			<path class="st1" d="M61.7,54.7c0,0.5-0.1,0.9-0.3,1.2c-0.2,0.4-0.4,0.7-0.8,0.9s-0.7,0.4-1,0.5s-0.8,0.2-1.2,0.2h-1v2.7
				c0,0.2,0,0.3,0.1,0.4s0.2,0.2,0.3,0.2c0.1,0,0.2,0.1,0.4,0.1c0.2,0,0.4,0,0.5,0v0.4H55v-0.4c0.1,0,0.2,0,0.4,0s0.3,0,0.4-0.1
				c0.1,0,0.2-0.1,0.3-0.2c0.1-0.1,0.1-0.2,0.1-0.4v-6.4c0-0.2,0-0.3-0.1-0.4c0-0.1-0.1-0.2-0.3-0.3c-0.2,0-0.3-0.1-0.5-0.1
				c-0.2,0-0.3,0-0.4,0v-0.4h4c0.8,0,1.5,0.2,2,0.6S61.7,54,61.7,54.7L61.7,54.7z M59.8,56.2c0.1-0.2,0.2-0.4,0.3-0.6
				s0.1-0.4,0.1-0.6c0-0.2,0-0.5-0.1-0.7s-0.2-0.5-0.3-0.6c-0.2-0.2-0.3-0.3-0.6-0.5c-0.2-0.1-0.5-0.2-0.9-0.2h-0.9V57h0.6
				c0.5,0,0.8-0.1,1.1-0.2S59.7,56.4,59.8,56.2L59.8,56.2z"/>
		</g>
	</g>
</g>
</svg>
