<?xml version="1.0" encoding="UTF-8"?>
<svg id="_レイヤー_2" data-name="レイヤー 2" xmlns="http://www.w3.org/2000/svg" viewBox="0 0 73.12 90">
  <defs>
    <style>
      .cls-1 {
        fill: #5187b3;
        stroke-width: 0px;
      }
    </style>
  </defs>
  <g id="_モバイル" data-name="モバイル">
    <g>
      <g>
        <path class="cls-1" d="M37.35,68.76h-.91c-1.31,0-2.42-.12-3.84-1.59-.43-.45-.53-1.11-.27-1.67.43-.9.81-2.07,1.08-3.36.04-.17-.08-.34-.27-.38-2.13-.45-4.14-1.29-5.98-2.48-.06-.04-.12-.06-.18-.06-.05,0-.18.01-.26.14-.72,1.11-1.28,2.2-1.61,3.15-.21.58-.75.98-1.37.99h-.19c-2.07,0-2.88-.81-3.8-1.74l-.33-.33c-.96-.96-1.8-1.78-1.75-4,.01-.62.41-1.16.99-1.36.95-.34,2.04-.9,3.15-1.62.15-.1.18-.29.08-.45-1.19-1.83-2.02-3.84-2.48-5.97-.03-.16-.17-.28-.32-.28-.97.2-2.28.54-3.43,1.09-.56.27-1.22.16-1.67-.27-1.6-1.54-1.59-2.7-1.59-4.05v-.23s0-.23,0-.23c0-1.35,0-2.52,1.59-4.05.44-.43,1.11-.53,1.66-.27.91.43,2.07.81,3.37,1.08.23,0,.35-.11.38-.27.45-2.13,1.29-4.14,2.48-5.98.1-.15.06-.35-.08-.45-.77-.5-1.95-1.19-3.15-1.61-.58-.2-.98-.75-.99-1.36-.05-2.22.78-3.04,1.74-4l.34-.34c.93-.94,1.73-1.74,3.8-1.74h.19c.62.01,1.16.41,1.37.99.33.95.89,2.04,1.61,3.15.08.13.21.14.26.14.07,0,.13-.02.19-.06,1.83-1.19,3.84-2.03,5.98-2.48.19-.04.31-.21.27-.38-.27-1.3-.65-2.46-1.08-3.37-.27-.56-.16-1.22.27-1.67,1.41-1.47,2.53-1.59,3.84-1.59h.91c1.31,0,2.42.12,3.84,1.59.43.45.54,1.11.27,1.67-.43.91-.81,2.07-1.08,3.37-.04.17.08.34.27.38,2.13.45,4.14,1.29,5.97,2.48.06.04.12.06.19.06.05,0,.18-.01.26-.14.72-1.11,1.28-2.2,1.62-3.15.21-.58.75-.98,1.37-.99h.19c2.07,0,2.88.81,3.81,1.74l.34.34c.96.95,1.78,1.77,1.73,3.99-.01.62-.41,1.16-.99,1.37-1.2.42-2.37,1.11-3.15,1.61-.15.1-.18.29-.08.45,1.19,1.83,2.02,3.84,2.48,5.97.03.16.17.28.32.28,1.36-.28,2.52-.65,3.43-1.09.56-.27,1.22-.16,1.66.27,1.6,1.53,1.6,2.7,1.6,4.06v.23s0,.23,0,.23c0,1.35,0,2.52-1.59,4.06-.45.43-1.11.53-1.67.27-.91-.43-2.07-.81-3.36-1.08-.21-.02-.35.11-.38.27-.46,2.13-1.29,4.14-2.48,5.97-.1.15-.06.35.08.45,1.11.72,2.2,1.28,3.15,1.62.58.21.97.75.99,1.37.05,2.21-.78,3.04-1.74,3.99l-.33.33c-.93.94-1.73,1.75-3.81,1.75h-.19c-.62-.01-1.16-.41-1.37-.99-.34-.95-.9-2.04-1.62-3.15-.08-.12-.21-.14-.26-.14-.07,0-.13.02-.19.06-1.83,1.19-3.84,2.03-5.97,2.48-.19.04-.31.21-.27.38.27,1.29.65,2.46,1.08,3.36.27.56.16,1.22-.27,1.67-1.42,1.47-2.53,1.59-3.84,1.59ZM36.89,65.79h.45c.46,0,.72,0,.97-.1-.33-.88-.62-1.86-.84-2.94-.37-1.77.77-3.52,2.56-3.9,1.77-.38,3.45-1.07,4.97-2.06.54-.35,1.16-.54,1.81-.54,1.11,0,2.14.56,2.75,1.49.6.92,1.1,1.82,1.49,2.68.26-.11.47-.33.9-.76l.34-.34c.42-.42.65-.64.76-.9-.86-.39-1.76-.89-2.68-1.49-1.51-.99-1.94-3.03-.95-4.55.99-1.52,1.69-3.2,2.07-4.97.32-1.52,1.68-2.63,3.22-2.63.23,0,.46.02.68.07,1.08.23,2.06.51,2.94.85.1-.26.1-.58.1-1.18v-.24s0-.24,0-.24c0-.6,0-.91-.1-1.17-.88.33-1.87.62-2.94.84-.22.05-.45.07-.68.07-1.54,0-2.89-1.11-3.22-2.63-.38-1.78-1.07-3.45-2.06-4.98-.99-1.52-.56-3.56.95-4.55.92-.6,1.82-1.1,2.68-1.48-.11-.25-.34-.48-.76-.9l-.35-.35c-.43-.43-.65-.65-.9-.76-.39.86-.88,1.76-1.48,2.68-.61.93-1.63,1.49-2.75,1.49-.64,0-1.26-.19-1.8-.53-1.53-.99-3.2-1.69-4.98-2.07-1.78-.38-2.93-2.13-2.56-3.9.23-1.08.51-2.06.84-2.94-.24-.1-.51-.1-.97-.1h-.91c-.45,0-.72,0-.96.1.33.88.62,1.87.85,2.95.37,1.77-.77,3.52-2.56,3.9-1.78.38-3.45,1.07-4.98,2.07-.54.35-1.16.54-1.8.54-1.11,0-2.14-.56-2.75-1.49-.6-.92-1.1-1.82-1.49-2.69-.25.11-.47.33-.89.76l-.35.35c-.42.42-.65.64-.76.9.86.39,1.76.89,2.68,1.49,1.51.99,1.94,3.03.95,4.55-.99,1.53-1.69,3.2-2.07,4.98-.32,1.52-1.68,2.63-3.22,2.63-.23,0-.46-.02-.68-.07-1.08-.23-2.06-.51-2.94-.84-.1.26-.1.58-.1,1.17v.24s0,.24,0,.24c0,.6,0,.91.1,1.17.88-.34,1.87-.62,2.95-.85.22-.05.45-.07.68-.07,1.54,0,2.89,1.11,3.22,2.63.38,1.78,1.07,3.45,2.07,4.97.99,1.52.56,3.56-.95,4.55-.92.6-1.82,1.1-2.69,1.49.11.26.34.48.76.9l.35.35c.43.43.65.65.89.76.39-.86.88-1.76,1.49-2.68.61-.93,1.63-1.49,2.75-1.49.64,0,1.26.19,1.8.54,1.53.99,3.2,1.69,4.98,2.07,1.78.38,2.93,2.13,2.56,3.9-.23,1.08-.51,2.06-.84,2.94.24.1.51.1.96.1h.45Z"/>
        <path class="cls-1" d="M32.05,42.63c-2.89,0-5.23-2.35-5.23-5.23s2.35-5.23,5.23-5.23,5.23,2.35,5.23,5.23c0,.82-.66,1.48-1.48,1.48s-1.48-.66-1.48-1.48c0-1.25-1.02-2.27-2.26-2.27s-2.27,1.02-2.27,2.27,1.02,2.26,2.27,2.26c.82,0,1.48.66,1.48,1.48s-.66,1.48-1.48,1.48Z"/>
        <path class="cls-1" d="M43.05,45.65c-2.88,0-5.23-2.35-5.23-5.23s2.35-5.23,5.23-5.23,5.24,2.35,5.24,5.23c0,.82-.66,1.48-1.48,1.48s-1.48-.66-1.48-1.48c0-1.25-1.02-2.27-2.27-2.27s-2.27,1.02-2.27,2.27,1.02,2.27,2.27,2.27c.82,0,1.48.66,1.48,1.48s-.66,1.48-1.48,1.48Z"/>
        <path class="cls-1" d="M29.95,53.52c-2.88,0-5.23-2.35-5.23-5.23s2.35-5.23,5.23-5.23,5.23,2.35,5.23,5.23c0,.82-.66,1.48-1.48,1.48s-1.48-.66-1.48-1.48c0-1.25-1.02-2.27-2.27-2.27s-2.26,1.02-2.26,2.27,1.02,2.26,2.26,2.26c.82,0,1.48.66,1.48,1.48s-.66,1.48-1.48,1.48Z"/>
        <path class="cls-1" d="M41.02,56.93c-2.88,0-5.23-2.35-5.23-5.23s2.35-5.23,5.23-5.23,5.23,2.35,5.23,5.23c0,.82-.66,1.48-1.48,1.48s-1.48-.66-1.48-1.48c0-1.25-1.02-2.27-2.27-2.27s-2.27,1.02-2.27,2.27,1.02,2.26,2.27,2.26c.82,0,1.48.66,1.48,1.48s-.66,1.48-1.48,1.48Z"/>
      </g>
      <path class="cls-1" d="M71.9,13.1c-.25-.05-25.35-4.7-34.35-12.73-.02-.01-.03-.02-.05-.04-.04-.03-.09-.07-.13-.09-.04-.02-.08-.05-.12-.07-.05-.02-.09-.04-.14-.06-.04-.02-.08-.03-.13-.05-.05-.01-.1-.02-.14-.03-.04,0-.09-.02-.13-.02-.05,0-.1,0-.15,0-.05,0-.09,0-.14,0-.05,0-.1.01-.15.02-.05,0-.09.02-.13.03-.05.01-.09.03-.14.05-.05.02-.09.04-.13.06-.04.02-.08.05-.12.07-.04.03-.09.06-.13.09-.02.01-.03.02-.05.04C26.57,8.41,1.47,13.06,1.22,13.1c-.79.14-1.32.89-1.2,1.68l6.31,41.96c1.77,11.33,8.83,21.61,17.16,24.99,4.71,1.92,9.41,4.97,11.97,7.78.02.02.03.03.05.04.02.02.03.04.05.05.03.02.05.04.08.06.03.03.07.05.1.08.05.03.1.06.15.09.03.02.07.04.1.05.06.02.12.04.19.06.03,0,.06.02.09.02.09.02.19.03.28.03h0c.1,0,.19-.01.28-.03.03,0,.06-.02.09-.02.06-.02.13-.03.19-.06.04-.01.07-.03.1-.05.05-.03.1-.05.15-.09.04-.02.07-.05.1-.08.03-.02.06-.04.08-.06.02-.02.03-.04.05-.05.02-.02.04-.03.05-.04,2.56-2.81,7.26-5.87,11.97-7.78,8.34-3.39,15.39-13.66,17.16-25l6.31-41.95c.12-.79-.41-1.54-1.2-1.68ZM63.85,56.28c-1.59,10.19-8.04,19.74-15.35,22.7-4.56,1.85-8.99,4.62-11.95,7.42-2.96-2.8-7.39-5.56-11.95-7.42-7.3-2.97-13.76-12.51-15.34-22.69L3.16,15.75c5.39-1.08,24.46-5.3,33.4-12.34,8.94,7.04,28,11.26,33.4,12.34l-6.1,40.53Z"/>
    </g>
  </g>
</svg>