<?xml version="1.0" encoding="UTF-8"?>
<svg id="_レイヤー_2" data-name="レイヤー 2" xmlns="http://www.w3.org/2000/svg" viewBox="0 0 73.93 65.69">
  <defs>
    <style>
      .cls-1 {
        fill: #be9f6a;
        stroke-width: 0px;
      }
    </style>
  </defs>
  <g id="pc">
    <g>
      <path class="cls-1" d="M37.72,40.57c-11.19,0-20.29-9.1-20.29-20.28S26.53,0,37.72,0c3.74,0,7.4,1.03,10.58,2.98,2.08,1.28,3.89,2.9,5.39,4.82,1.88,2.39,3.21,5.23,3.85,8.19.3,1.39.46,2.84.46,4.3,0,1.32-.13,2.63-.38,3.9-.57,2.97-1.79,5.73-3.62,8.19-1.15,1.53-2.47,2.87-3.95,4-3.57,2.74-7.83,4.19-12.34,4.19ZM37.72,2.43c-9.85,0-17.86,8.01-17.86,17.86s8.01,17.85,17.86,17.85c3.96,0,7.72-1.28,10.86-3.69,1.3-.99,2.47-2.18,3.48-3.52,1.6-2.17,2.67-4.59,3.18-7.21.22-1.12.33-2.27.33-3.43,0-1.28-.14-2.56-.4-3.78-.56-2.61-1.73-5.1-3.39-7.21-1.32-1.7-2.92-3.13-4.75-4.25-2.8-1.71-6.02-2.62-9.31-2.62Z"/>
      <path class="cls-1" d="M36.5,9.51h1.92v1.77c2.14.26,3.53,1.47,4.16,3.64l-2.64,1.08c-.52-1.49-1.31-2.23-2.39-2.23-.54,0-.97.17-1.3.5s-.49.74-.49,1.21.16.85.47,1.11.99.58,2.03.96c1.14.42,2.03.81,2.68,1.18.65.37,1.17.88,1.55,1.53.39.65.58,1.41.58,2.29,0,1.34-.4,2.45-1.2,3.35-.8.89-1.95,1.42-3.45,1.58v2.29h-1.92v-2.28c-2.51-.26-4.06-1.72-4.66-4.37l2.97-.77c.27,1.67,1.18,2.5,2.73,2.5.72,0,1.25-.18,1.6-.54.34-.36.51-.79.51-1.3s-.17-.92-.51-1.19c-.34-.27-1.1-.61-2.27-1.03-1.06-.37-1.88-.73-2.47-1.08-.59-.36-1.08-.86-1.44-1.5-.37-.64-.56-1.39-.56-2.25,0-1.12.33-2.13.99-3.03.66-.9,1.7-1.44,3.12-1.64v-1.77Z"/>
      <path class="cls-1" d="M73.92,45.74c-.01-.09-.04-.17-.06-.26-.01-.12-.03-.23-.08-.33-.21-.65-.61-1.2-1.21-1.6-2.3-1.56-6.92-.66-11.24.48-1.82-.85-5.9-.04-12.16,2.41-.39,0-.78,0-1.12.02-7.44.45-11.33.42-12.01.41-.58-.13-1.04-.27-1.38-.43-.75-.35-1.86-1.03-3.15-1.82-3.6-2.2-8.53-5.22-12.6-5.5-.11,0-.23,0-.35,0-7.08,0-17.46,5.18-17.9,5.4-.6.3-.84,1.03-.54,1.63.3.6,1.03.84,1.63.54.1-.05,10.32-5.15,16.76-5.15.1,0,.19,0,.29,0,3.43.23,8.06,3.07,11.45,5.14,1.35.83,2.51,1.54,3.38,1.95.53.25,1.18.45,1.98.63,0,0,.01,0,.02,0,0,0,0,0,.01,0,.02,0,.04,0,.06,0,.05,0,.11.02.16.02.16,0,4.02.1,12.34-.41,1.84-.11,2.93.18,3.58.95.36.42.36.7.32.89-.3,1.56-4.32,3.68-5.83,4.48-3.14,1.66-11.94,1.89-18.57-1.56-.59-.31-1.33-.08-1.64.52-.31.6-.08,1.33.52,1.64,4.03,2.09,8.89,3.02,13.08,3.02,3.16,0,5.95-.53,7.74-1.48,4.04-2.14,6.64-3.92,7.07-6.16.14-.71.1-1.79-.85-2.92-.2-.24-.42-.44-.64-.63,3.41-1.13,6.41-1.78,7.2-1.5.3.35.78.5,1.23.37l.11-.03c6.53-1.76,8.87-1.47,9.68-.93.06.04.09.08.13.12-.37.8-1.63,2.42-5.85,5.04-2.44,1.52-8.77,4.87-11.81,6.47l-1.08.57c-.55.29-1.14.63-1.77.99-3.33,1.9-7.88,4.51-14.36,4.51-.02,0-.03,0-.05,0-.6-.03-4.1-.98-7.19-1.81-7.55-2.03-13.46-3.58-15.4-3.48-3.14.17-11,1.84-11.33,1.91-.66.14-1.07.78-.93,1.44.14.66.78,1.07,1.44.93.08-.02,8.01-1.7,10.96-1.86,1.65-.12,9.47,2.01,14.63,3.39,5.09,1.37,7.08,1.89,7.8,1.89h.05c7.14,0,12.02-2.79,15.58-4.82.6-.35,1.17-.67,1.7-.95l1.07-.57c3.3-1.74,9.44-4.99,11.95-6.56,3.69-2.29,5.86-4.21,6.72-5.97.3-.26.48-.65.43-1.08Z"/>
    </g>
  </g>
</svg>