<?xml version="1.0" encoding="UTF-8"?>
<svg id="_レイヤー_2" data-name="レイヤー 2" xmlns="http://www.w3.org/2000/svg" viewBox="0 0 91.93 62.13">
  <defs>
    <style>
      .cls-1 {
        fill: #be9f6a;
        stroke-width: 0px;
      }
    </style>
  </defs>
  <g id="pc">
    <g>
      <path class="cls-1" d="M86.23,0H5.7C2.56,0,0,2.56,0,5.7v50.73c0,3.14,2.56,5.7,5.7,5.7h80.53c3.14,0,5.7-2.56,5.7-5.7V5.7c0-3.14-2.56-5.7-5.7-5.7ZM89.41,56.43c0,1.75-1.43,3.18-3.18,3.18H5.7c-1.75,0-3.18-1.43-3.18-3.18V5.7c0-1.75,1.43-3.18,3.18-3.18h80.53c1.75,0,3.18,1.43,3.18,3.18v50.73Z"/>
      <path class="cls-1" d="M76.41,21.44h-26.79c-.74,0-1.33.6-1.33,1.33s.6,1.33,1.33,1.33h26.79c.74,0,1.33-.6,1.33-1.33s-.6-1.33-1.33-1.33Z"/>
      <path class="cls-1" d="M76.41,30.47h-26.79c-.74,0-1.33.6-1.33,1.33s.6,1.33,1.33,1.33h26.79c.74,0,1.33-.6,1.33-1.33s-.6-1.33-1.33-1.33Z"/>
      <path class="cls-1" d="M76.41,39.5h-26.79c-.74,0-1.33.6-1.33,1.33s.6,1.33,1.33,1.33h26.79c.74,0,1.33-.6,1.33-1.33s-.6-1.33-1.33-1.33Z"/>
      <circle class="cls-1" cx="27.91" cy="23.98" r="7.49" transform="translate(-7.16 35.11) rotate(-58.28)"/>
      <path class="cls-1" d="M27.91,32.93c-7.02,0-12.71,5.69-12.71,12.71h25.42c0-7.02-5.69-12.71-12.71-12.71Z"/>
    </g>
  </g>
</svg>