<?xml version="1.0" encoding="UTF-8"?>
<svg id="_レイヤー_2" data-name="レイヤー 2" xmlns="http://www.w3.org/2000/svg" viewBox="0 0 64.84 17.31">
  <defs>
    <style>
      .cls-1 {
        fill: #1d1d1b;
        stroke-width: 0px;
      }
    </style>
  </defs>
  <g id="pc">
    <g>
      <path class="cls-1" d="M29.73,3.74h-.13c-4.8,9.96-4.88,10.59-5.34,11.62h-.03c-.46-1.03-.54-1.65-5.34-11.62h-.13s-1.2,13.32-1.67,13.32v.07h1.43v-.07c-.35,0,.71-9.4.76-10.48h.03c.51,1.35,1.23,2.9,2.14,4.81.64,1.34,1.52,3.41,2.63,5.74h.3c1.11-2.33,1.99-4.41,2.63-5.74.91-1.91,1.64-3.46,2.14-4.81h.03c.05,1.08,1.11,10.48.76,10.48v.07h1.43v-.07c-.47,0-1.67-13.32-1.67-13.32"/>
      <path class="cls-1" d="M5.67,5.95h-.02c-.22.64-2.67,6.74-2.67,6.74-1.45,3.59-1.72,4.28-1.54,4.37v.07H0v-.07c.36,0,5.61-13.32,5.61-13.32h.17s5.01,13.32,5.37,13.32v.07h-1.49v-.07c.17-.08-.04-.78-1.46-4.37,0,0-2.33-6.1-2.53-6.74"/>
      <path class="cls-1" d="M43.02,5.95h-.02c-.22.64-2.67,6.74-2.67,6.74-1.45,3.59-1.72,4.28-1.54,4.37v.07h-1.45v-.07c.36,0,5.61-13.32,5.61-13.32h.17s5.01,13.32,5.37,13.32v.07h-1.49v-.07c.17-.08-.04-.78-1.46-4.37,0,0-2.33-6.1-2.53-6.74"/>
      <path class="cls-1" d="M64.07,3.95h-.66v.07c.11,0,.22.79.22,5.66v5.2h-.03c-.74-1.06-5.13-6.69-8.7-11.14h-.13v7.66c0,4.86-.21,5.66-.33,5.66v.07h1.43v-.07c-.11,0-.22-.79-.22-5.66v-5.24h.03c.74,1.06,5.13,6.69,8.7,11.15h.13v-7.63c0-4.86.21-5.66.33-5.66v-.07h-.77Z"/>
      <rect class="cls-1" x="3.6" width="4.04" height=".88"/>
    </g>
  </g>
</svg>