<?xml version="1.0" encoding="UTF-8"?>
<svg id="_レイヤー_2" data-name="レイヤー 2" xmlns="http://www.w3.org/2000/svg" viewBox="0 0 73.88 17.31">
  <defs>
    <style>
      .cls-1 {
        fill: #1d1d1b;
      }

      .cls-1, .cls-2 {
        stroke-width: 0px;
      }

      .cls-2 {
        fill: #9c9b9b;
      }
    </style>
  </defs>
  <g id="pc">
    <g>
      <g>
        <circle class="cls-2" cx="35.63" cy="1.23" r="1.23"/>
        <circle class="cls-2" cx="32.08" cy="1.45" r="1.23"/>
        <path class="cls-2" d="M39.18.22c.66,0,1.23.53,1.23,1.23,0,.66-.53,1.23-1.23,1.23-.66,0-1.18-.57-1.18-1.23s.53-1.23,1.18-1.23Z"/>
        <circle class="cls-2" cx="42.73" cy="2.1" r="1.23"/>
        <path class="cls-2" d="M28.53.88c.66,0,1.23.53,1.23,1.23,0,.66-.53,1.23-1.23,1.23-.66,0-1.23-.53-1.23-1.23,0-.66.57-1.23,1.23-1.23Z"/>
        <rect class="cls-2" x="28.97" y="5.39" width="13.37" height="1.49"/>
      </g>
      <path class="cls-1" d="M1.23,15.43h.13c.18,0,.35-.04.53-.09.18-.04.31-.13.44-.26s.22-.26.26-.39c.04-.18.09-.35.09-.53,0-.09,0-.18-.04-.26-.04-.09-.04-.18-.09-.22-.04-.04-.09-.13-.13-.18-.09-.09-.22-.13-.35-.22s-.35-.09-.66-.09H.13s-.13.04-.13.09.04.09.09.09h.18c.09,0,.13.04.13.09s.04.09.04.18v3.2c0,.09-.04.18-.04.18,0,0-.04,0-.09,0h-.13s-.09.04-.09.09c0,.09.09.09.13.09h1.1s.13,0,.13-.09c0-.04-.04-.09-.09-.09h-.22s-.09-.04-.13-.04c0-.04-.04-.09-.04-.18v-3.33s.09-.04.22-.04.26,0,.35.04c.09.04.22.09.31.18.18.18.26.44.26.79,0,.13-.04.26-.13.39-.09.13-.18.22-.31.31-.13.09-.26.09-.44.09,0,.04-.04.04-.04.04-.04,0-.04.04-.04.09-.04.04,0,.09.09.09ZM48.69,16.48c0,.09-.04.22-.13.26-.04.04-.13.09-.22.13-.09,0-.22.04-.39.04s-.31,0-.39-.04c-.09,0-.13-.04-.18-.09,0,0-.04-.09-.04-.13,0-.09-.04-.22-.04-.39v-2.67c0-.09,0-.18.04-.18,0-.04.04-.04.13-.04h.18s.09-.04.09-.09c0-.09-.09-.09-.13-.09h-1.1s-.13.04-.13.09.04.09.09.09h.18c.09,0,.13.04.13.09s.04.09.04.18v3.2c0,.09-.04.18-.04.18,0,.04-.04.04-.04.04h-.13s-.09.04-.09.09c0,.09.09.09.13.09h2.1s.09,0,.09-.04.04-.04.04-.13c0-.04,0-.09.04-.18,0-.09.04-.13.04-.22v-.13s0-.13-.09-.13c-.13,0-.18,0-.18.09ZM10.65,16.48c0,.09-.04.22-.13.26-.04.04-.13.09-.22.13-.09,0-.22.04-.39.04s-.31,0-.39-.04c-.09,0-.13-.04-.18-.09,0,0-.04-.09-.04-.13,0-.09-.04-.22-.04-.39v-2.67c0-.09,0-.18.04-.18,0-.04.04-.04.13-.04h.18s.09-.04.09-.09c0-.09-.09-.09-.13-.09h-1.1s-.13.04-.13.09.04.09.09.09h.18c.09,0,.13.04.13.09s.04.09.04.18v3.2c0,.09-.04.18-.04.18h-.22s-.09.04-.09.09c0,.09.09.09.13.09h2.1s.09,0,.09-.04.04-.04.04-.13c0-.04,0-.09.04-.18,0-.09.04-.13.04-.22v-.13s0-.13-.09-.13c-.04.04-.09.04-.13.13ZM19.76,16.17s-.09.04-.09.13c0,.04-.04.13-.04.22-.04.09-.09.13-.13.18-.09.09-.22.18-.35.18-.13.04-.31.04-.53.04-.26,0-.48-.04-.7-.13s-.39-.22-.57-.39c-.18-.18-.31-.39-.39-.61s-.13-.44-.13-.7c0-.31.04-.53.09-.74.04-.22.18-.39.35-.57.26-.22.61-.35,1.14-.35.13,0,.26,0,.39.04.13.04.26.04.35.09s.18.09.22.13.13.13.13.22c.04.09.04.18.04.26s0,.13.09.18c.09,0,.09-.09.09-.18v-.53s0-.13.04-.26h0s-.04-.09-.13-.09c-.13,0-.31-.04-.53-.09s-.48-.04-.74-.04-.48.04-.7.09-.39.13-.53.22-.26.18-.39.31c-.22.22-.35.44-.44.7s-.13.53-.13.74h0c0,.66.22,1.18.66,1.58.13.13.31.22.48.31.18.09.35.13.57.18.22.04.44.04.7.04.18,0,.35,0,.53-.04.18,0,.31-.04.44-.09.04-.04.09-.04.13-.09t.04-.09c.04-.09.04-.22.09-.35.04-.18.04-.26.04-.31,0-.13-.04-.18-.09-.18ZM23.58,16.39s-.09.04-.09.13-.04.18-.09.22l-.13.13s-.09.04-.18.04h-.26c-.18,0-.31,0-.35-.04-.09,0-.09-.04-.13-.09-.04-.04-.04-.13-.04-.26v-1.31c.31,0,.53,0,.7.04.13,0,.22.04.22.13v.18s.04.09.09.09c.09,0,.09-.09.09-.13v-.35c0-.09,0-.18.04-.26h0s0-.09-.09-.09t-.04.04l-.04.04s-.09.04-.22.04h-.79v-1.45h.66c.13,0,.22.04.26.04s.04.04.09.09c0,.04.04.09.04.18,0,.04.04.13.09.13s.09-.04.09-.09v-.35s0-.09.04-.13v-.09s0-.09-.04-.09h-.09s-.13,0-.22.04h-1.75s-.13.04-.13.09.04.09.09.09h.18c.09,0,.13.04.13.09s.04.09.04.18v3.2c0,.09-.04.18-.04.18,0,.04-.04.04-.04.04h-.13s-.09.04-.09.09c0,.09.09.09.13.09h1.97s.09-.04.09-.04t.04-.13s.04-.18.04-.26c0-.13.04-.22.04-.22-.09-.13-.13-.22-.18-.22ZM44.87,16.39s-.09.04-.09.13-.04.18-.09.22-.09.09-.13.13c-.04,0-.09.04-.18.04h-.26c-.18,0-.31,0-.35-.04-.09,0-.09-.04-.13-.09-.04-.04-.04-.13-.04-.26v-1.31c.31,0,.53,0,.7.04.13,0,.22.04.22.13v.18s.04.09.09.09c.09,0,.09-.09.09-.13v-.35c0-.09,0-.18.04-.26h0s0-.09-.09-.09t-.04.04l-.04.04s-.09.04-.22.04h-.79v-1.45h.66c.13,0,.22.04.26.04s.04.04.09.09c0,.04.04.09.04.18,0,.04.04.13.09.13s.09-.04.09-.09v-.35s0-.09.04-.13v-.09s0-.09-.04-.09h-.09s-.13,0-.22.04h-1.75s-.13.04-.13.09.04.09.09.09h.18c.09,0,.13.04.13.09s.04.09.04.18v3.2c0,.09-.04.18-.04.18,0,.04-.04.04-.04.04h-.13s-.09.04-.09.09c0,.09.09.09.13.09h1.97s.09-.04.09-.04t.04-.13s.04-.18.04-.26c0-.13.04-.22.04-.22-.09-.13-.13-.22-.18-.22ZM73.71,14.29c-.09-.26-.26-.44-.44-.61-.18-.18-.39-.31-.66-.39-.26-.09-.53-.13-.83-.13-.35,0-.66.04-.92.18s-.48.31-.66.53-.31.44-.39.66-.13.48-.13.7c0,.26.04.48.13.74.09.26.22.48.39.66.18.22.39.35.66.48s.57.18.92.18c.39,0,.79-.09,1.1-.31.31-.18.57-.44.74-.79s.26-.7.26-1.1c-.04-.26-.09-.57-.18-.79ZM73.05,16.3c-.18.26-.35.44-.53.53-.22.09-.39.13-.61.13s-.44-.04-.61-.13-.35-.22-.53-.39c-.13-.18-.26-.39-.35-.61s-.13-.48-.13-.79c0-.35.04-.66.18-.92.13-.26.31-.44.53-.57s.48-.18.74-.18c.18,0,.39.04.57.13.18.09.35.22.48.35.13.18.26.35.35.57s.13.48.13.79c0,.48-.09.83-.22,1.1ZM6.35,17.18h.92s.13,0,.13-.09c0-.04-.04-.09-.09-.09-.09,0-.13,0-.18-.04-.04,0-.13-.04-.18-.13s-.13-.22-.22-.39c-.09-.22-.18-.48-.31-.79-.13-.31-.22-.61-.31-.83s-.18-.48-.31-.83c-.13-.35-.22-.57-.26-.66s-.04-.13-.04-.13c0-.04-.04-.09-.09-.09-.09,0-.09.09-.18.22l-1.23,3.24c-.04.13-.09.26-.18.31-.04.09-.09.13-.22.13h-.13s-.09.04-.09.09c0,.09.09.09.13.09h1.05s.13,0,.13-.09c0-.04-.04-.09-.09-.09h-.04s-.09,0-.09-.04c-.04,0-.04-.04-.04-.09,0-.09.04-.22.09-.35l.31-.92h1.1l.48,1.27v.09s-.09.04-.09.09c-.09.09-.04.13,0,.13ZM4.86,15.38l.44-1.36.48,1.36h-.92ZM14.64,17.18h.92s.13,0,.13-.09c0-.04-.04-.09-.09-.09-.09,0-.13,0-.18-.04-.04,0-.13-.04-.18-.13-.04-.09-.13-.22-.22-.39-.09-.22-.18-.48-.31-.79s-.22-.61-.31-.83-.18-.48-.31-.83c-.13-.35-.22-.57-.26-.66s-.04-.13-.09-.13c0-.04-.04-.09-.09-.09-.09,0-.09.09-.18.22l-1.18,3.24c-.04.13-.09.26-.18.31-.04.09-.13.13-.22.13h-.13s-.09.04-.09.09c0,.09.09.09.13.09h1.05s.13,0,.13-.09c0-.04-.04-.09-.09-.09h-.04s-.09,0-.09-.04c-.04,0-.04-.04-.04-.09,0-.09.04-.22.09-.35l.18-.83h1.1l.48,1.27v.09s-.09.04-.09.09c.04,0,.04.04.13.04ZM13.1,15.38l.44-1.36.48,1.36h-.92ZM68.93,13.19h-.79s-.13,0-.13.09c0,.04.04.09.13.09.04,0,.04.04.04.09,0,.09-.04.13-.09.22-.09.13-.18.31-.31.48-.13.18-.22.39-.35.61-.09.13-.13.26-.18.35,0-.04-.04-.04-.04-.09-.04-.09-.18-.26-.31-.53-.13-.26-.26-.44-.35-.57s-.13-.26-.18-.35c-.04-.09-.04-.13-.04-.18h0s0-.04.04-.04h.04s.04,0,.04-.04c0-.09-.04-.09-.13-.09h-.92s-.13.04-.13.09.04.09.09.09h.09s.09.04.09.04c.09.09.22.18.35.39.04.04.13.22.31.48s.31.48.39.7c.13.18.18.31.18.31.04.09.09.18.09.26,0,.04.04.13.04.26v.96c0,.18-.04.22-.13.26h-.13s-.09.04-.09.09c0,.09.09.09.13.09h1.14s.13,0,.13-.09c0-.04-.04-.09-.09-.09h-.22s-.09-.04-.13-.09c-.04-.04-.04-.09-.04-.18v-1.23c0-.09.04-.13.04-.22.04-.04.09-.22.26-.44.13-.26.26-.48.44-.74.13-.26.26-.39.31-.44.09-.09.13-.13.13-.18.04-.04.09-.04.13-.09.09-.04.13-.09.22-.09.04,0,.13-.04.13-.09-.13-.13-.18-.13-.22-.13ZM64.59,17.05s-.13-.04-.31-.22-.35-.35-.53-.48c-.09-.09-.18-.22-.26-.31-.09-.09-.22-.22-.39-.39s-.31-.35-.48-.53c-.09-.13-.18-.18-.18-.22.04-.04.09-.09.18-.18.09-.13.22-.26.31-.35s.22-.22.39-.39c.13-.13.22-.22.22-.22.04-.04.09-.09.13-.13s.09-.09.13-.13c.04,0,.09-.04.13-.09s.09-.04.13-.09c.09-.04.18-.09.26-.09.04,0,.09-.04.09-.09,0-.09-.09-.09-.13-.09h-.83s-.13.04-.13.09.04.09.09.09.04,0,.04.09c0,0,0,.04-.04.09s-.13.13-.22.22c-.04.04-.13.18-.26.31s-.26.26-.39.44c-.13.13-.26.26-.35.35-.04.04-.09.09-.13.13v-1.36c0-.09.04-.18.04-.18,0-.04.04-.04.09-.04h.13s.09-.04.09-.09c0-.09-.09-.09-.13-.09h-1.05s-.13.04-.13.09.04.09.09.09h.18c.09,0,.13.04.13.09s.04.09.04.18v3.2c0,.09-.04.18-.04.18,0,.04-.04.04-.04.04h-.13s-.09.04-.09.09c0,.09.09.09.13.09h1.05s.13,0,.13-.09c0-.04-.04-.09-.09-.09h-.18s-.04,0-.09-.04c0-.04-.04-.09-.04-.18v-1.53c.26.26,1.88,1.97,1.88,1.97h.74s.09,0,.09-.04c-.18-.04-.22-.04-.26-.09ZM31.9,17.05h-.22s-.09-.04-.13-.04c-.04-.04-.04-.09-.04-.18v-3.2c0-.09,0-.18.04-.18,0-.04.04-.04.09-.04h.13s.09-.04.09-.09c0-.09-.09-.09-.13-.09h-1.05s-.13.04-.13.09.04.09.09.09h.18c.09,0,.13.04.13.09s.04.09.04.18v1.14h-2.15v-1.23c0-.09,0-.18.04-.18,0-.04.04-.04.09-.04h.13s.09-.04.09-.09c0-.09-.09-.09-.13-.09h-1.1s-.13.04-.13.09.04.09.09.09h.18c.09,0,.13.04.13.09s.04.09.04.18v3.2c0,.09-.04.18-.04.18,0,.04-.04.04-.04.04h-.13s-.09.04-.09.09c0,.09.09.09.13.09h1.14s.13,0,.13-.09c0-.04-.04-.09-.09-.09h-.22s-.09-.04-.13-.04c0-.04-.04-.09-.04-.18v-1.67h2.15v1.67c0,.09-.04.18-.04.18,0,.04-.04.04-.04.04h-.13s-.09.04-.09.09c0,.09.09.09.13.09h1.14s.13,0,.13-.09c-.13-.09-.18-.09-.22-.09ZM59.34,13.63c-.18-.18-.39-.31-.66-.39-.26-.09-.53-.13-.83-.13-.35,0-.66.04-.92.18s-.48.31-.66.53-.31.44-.39.66-.13.48-.13.7c0,.26.04.48.13.74.09.26.22.48.35.66.18.22.39.35.66.48s.57.18.92.18c.39,0,.79-.09,1.1-.31.31-.18.57-.44.74-.79s.26-.7.26-1.1c0-.31-.04-.57-.13-.83-.09-.18-.26-.39-.44-.57ZM59.12,16.3c-.18.26-.35.44-.53.53-.22.09-.39.13-.61.13s-.44-.04-.61-.13-.35-.22-.53-.39c-.13-.18-.26-.39-.35-.61s-.13-.48-.13-.79c0-.35.04-.66.18-.92.13-.26.31-.44.53-.57s.48-.18.74-.18c.18,0,.39.04.57.13.18.09.35.22.48.35.13.18.26.35.35.57s.13.48.13.79c0,.48-.09.83-.22,1.1ZM36.68,13.63c-.18-.18-.39-.31-.66-.39-.26-.09-.53-.13-.83-.13-.35,0-.66.04-.92.18s-.48.31-.66.53-.31.44-.39.66c-.09.22-.13.48-.13.7,0,.26.04.48.13.74.09.26.22.48.39.66.18.22.39.35.66.48s.57.18.92.18h0c.39,0,.79-.09,1.1-.31.31-.18.57-.44.74-.79.18-.35.26-.7.26-1.1,0-.31-.04-.57-.13-.83-.18-.18-.31-.39-.48-.57ZM36.42,16.3c-.18.26-.35.44-.53.53-.22.09-.39.13-.61.13s-.44-.04-.61-.13-.35-.22-.53-.39c-.13-.18-.26-.39-.35-.61-.09-.22-.13-.48-.13-.79,0-.35.04-.66.18-.92s.31-.44.53-.57.48-.18.74-.18c.18,0,.39.04.57.13s.35.22.48.35c.13.18.26.35.35.57.09.22.13.48.13.79,0,.48-.04.83-.22,1.1ZM41.37,13.15h-.09s-.09,0-.18.04h-2.19c-.13,0-.26,0-.39-.04-.04,0-.09,0-.13-.04-.04,0-.04-.04-.09-.04-.09,0-.09.09-.09.13s-.04.13-.04.26c-.04.13-.04.22-.04.26s0,.09.09.09c.04,0,.09-.04.09-.09s.04-.09.09-.13.09-.09.13-.09c.09,0,.18-.04.35-.04h.7v3.29c0,.09-.04.18-.04.18,0,.04-.04.04-.04.04h-.13s-.09.04-.09.09c0,.09.09.09.13.09h1.14s.13,0,.13-.09c0-.04-.04-.09-.09-.09h-.22s-.09-.04-.13-.04c-.04-.04-.04-.09-.04-.18v-3.24h.61c.22,0,.39.04.44.09.09.04.13.09.13.18v.04s0,.13.09.13.09-.09.09-.13v-.57c-.09,0-.09-.09-.18-.09ZM54.78,13.15h-.09s-.09,0-.18.04h-2.19c-.13,0-.26,0-.39-.04-.04,0-.09,0-.13-.04-.04,0-.04-.04-.09-.04-.09,0-.09.09-.09.13s-.04.13-.04.26c-.04.13-.04.22-.04.26s0,.09.09.09c.04,0,.09-.04.09-.09s.04-.09.09-.13.09-.09.13-.09c.09,0,.18-.04.35-.04h.7v3.29c0,.09-.04.18-.04.18,0,.04-.04.04-.04.04h-.13s-.09.04-.09.09c0,.09.09.09.13.09h1.14s.13,0,.13-.09c0-.04-.04-.09-.09-.09h-.22s-.09-.04-.13-.04c-.04-.04-.04-.09-.04-.18v-3.24h.61c.22,0,.39.04.44.09.09.04.13.09.13.18v.04s0,.13.09.13.09-.09.09-.13v-.57c-.09,0-.09-.09-.18-.09Z"/>
    </g>
  </g>
</svg>