<?xml version="1.0" encoding="UTF-8"?>
<svg id="_レイヤー_2" data-name="レイヤー 2" xmlns="http://www.w3.org/2000/svg" viewBox="0 0 51.41 44.82">
  <defs>
    <style>
      .cls-1 {
        stroke-width: 0px;
      }
    </style>
  </defs>
  <g id="pc">
    <g>
      <path class="cls-1" d="M12.17,40.09c-.31-1.21-.47-2.87-.47-4.98v-3.66l-1.12.02v4.19c0,1.63-.1,2.99-.31,4.1s-.61,2-1.21,2.67-1.5,1.1-2.69,1.26v1.12h10.45v-1.12c-1.33-.07-2.36-.38-3.09-.94-.73-.56-1.25-1.45-1.57-2.66"/>
      <path class="cls-1" d="M44.55,26.28v-10.48l-1.12.02v10.62c.38-.04.75-.09,1.12-.16"/>
      <path class="cls-1" d="M45.01,40.09c-.31-1.21-.47-2.87-.47-4.98v-5.36c-.37.07-.74.13-1.12.17v5.74c0,1.63-.1,2.99-.31,4.1-.2,1.1-.61,2-1.21,2.67s-1.5,1.1-2.69,1.26v1.12h10.45v-1.12c-1.33-.07-2.36-.38-3.09-.94-.73-.56-1.25-1.45-1.57-2.66"/>
      <path class="cls-1" d="M47.32,14.15v-1.38h-8.58l-4.03,9.85c.44.62.93,1.18,1.49,1.66.93-2.38,1.82-4.6,2.58-6.45,2.15-5.08,8.53-3.7,8.53-3.7"/>
      <path class="cls-1" d="M32.41,28.29l-3.38,8.27,1.34,3.27c1.07-2.93,2.51-6.82,4-10.72-.07-.02-.14-.04-.21-.07-.61-.22-1.19-.47-1.74-.74"/>
      <path class="cls-1" d="M9.77,12.77h0c-1.4.01-2.7.23-3.89.65-1.21.44-2.26,1.05-3.14,1.83-.88.79-1.55,1.69-2.03,2.73-.47,1.04-.71,2.13-.71,3.29,0,1.25.26,2.4.77,3.48s1.22,2,2.12,2.76c.9.77,1.95,1.36,3.14,1.78,1.19.41,2.45.63,3.79.63.5,0,.97-.03,1.41-.1s.95-.17,1.55-.31,1.01-.23,1.22-.27c.21-.04,2.91.27,2.91.27v-4.23h-.68c-.34.62-.71,1.17-1.11,1.65s-.72.8-1.27,1.18c-.55.39-1.12.67-1.72.87-.6.19-1.25.29-1.94.29-.93,0-1.78-.18-2.55-.55-.76-.36-1.41-.88-1.95-1.55-.54-.68-.96-1.49-1.26-2.46-.3-.97-.45-2-.45-3.1,0-1.54.29-2.9.89-4.1.59-1.19,1.42-2.12,2.49-2.79,1-.63,2.14-.96,3.4-.99,1.47,0,4.2.51,5.51,4.11,3.75,8.92,9.31,22.48,10.99,26.96h1.28l1.36-3.74-11.57-28.3h-8.58l.02-.02Z"/>
      <path class="cls-1" d="M48.65,7.37c.61.73,1.18,1.57,1.71,2.51h1.04V3.42s-4.13.49-4.45.42-.94-.21-1.86-.42-1.71-.37-2.38-.47c-.67-.1-1.39-.15-2.15-.15-2.04,0-3.98.32-5.8.96-1.82.64-3.42,1.55-4.8,2.73-1.38,1.18-2.46,2.59-3.24,4.23-.79,1.64-1.17,3.41-1.17,5.32,0,1.77.36,3.44,1.08,5.03.72,1.59,1.76,2.98,3.1,4.18s2.94,2.13,4.8,2.8c1.85.67,3.88,1,6.07,1,2.83,0,5.33-.49,7.5-1.48,1.2-.55,2.3-1.24,3.31-2.07v-1.77c-.63.62-1.28,1.17-1.97,1.65-1.09.75-2.22,1.3-3.41,1.66-1.19.37-2.42.55-3.7.55-2.07,0-3.93-.51-5.55-1.53-1.62-1.02-2.9-2.44-3.8-4.26-.91-1.83-1.36-3.91-1.36-6.26,0-1.68.23-3.26.69-4.74.46-1.48,1.1-2.73,1.92-3.76.82-1.03,1.82-1.83,2.99-2.38,1.17-.56,2.46-.83,3.89-.83,1.06,0,2.04.15,2.97.44.92.29,1.8.74,2.64,1.33.84.59,1.33,1.09,1.94,1.81"/>
      <path class="cls-1" d="M25.93,4.53c1.25,0,2.26-1.01,2.26-2.26s-1.01-2.26-2.26-2.26-2.26,1.01-2.26,2.26,1.01,2.26,2.26,2.26"/>
    </g>
  </g>
</svg>