<?xml version="1.0" encoding="UTF-8"?>
<svg id="_レイヤー_2" data-name="レイヤー 2" xmlns="http://www.w3.org/2000/svg" viewBox="0 0 124.38 62.99">
  <defs>
    <style>
      .cls-1 {
        stroke-width: 0px;
      }
    </style>
  </defs>
  <g id="pc">
    <g>
      <path class="cls-1" d="M58.12,38.05c-.1-.34-.24-.68-.35-.86-.17-.26-.91-.33-1.48-.33h-.41v3.91c0,.79.09.89,1.04.95v.3h-3.05v-.3c.94-.06,1.02-.15,1.02-.95v-3.91h-.97c-.57,0-.73.07-.9.35-.13.2-.22.46-.35.84h-.32c.06-.63.13-1.29.15-1.84h.25c.15.24.27.23.56.23h4.25c.28,0,.38-.04.54-.23h.25c0,.46.04,1.21.09,1.8l-.32.03h0Z"/>
      <path class="cls-1" d="M61.32,40.87v-3.42c0-.71.09-.77.82-.83v-.25h-2.52v.25c.74.07.82.11.82.83v3.42c0,.72-.09.75-.82.83v.25h2.52v-.25c-.74-.08-.82-.11-.82-.83"/>
      <path class="cls-1" d="M66.06,36.62v-.25h-2.53v.25c.73.06.83.12.83.83v1.34h-2.46v.38h2.46v1.7c0,.72-.07.74-.83.82v.25h2.53v-.25c-.75-.07-.83-.1-.83-.82v-3.42c0-.72.07-.76.83-.83"/>
      <path class="cls-1" d="M71.75,40.49c-.13.26-.32.61-.51.8-.2.22-.3.3-.86.3h-.82c-.48-.01-.65-.08-.65-.68v-3.92c0-.26.02-.28.32-.28h.82c.54,0,.73.06.88.32.11.18.21.39.3.68l.29-.04c-.04-.47-.08-1.13-.08-1.33-.11.01-.47.02-1.35.02h-2.85v.25c.68.06.78.1.78.86v3.38c0,.71-.06.78-.92.84v.25h4.53c.09-.25.34-1.16.4-1.38l-.29-.07h0Z"/>
      <path class="cls-1" d="M69.91,39.25c.64,0,.71.09.84.71h.3v-1.8h-.3c-.12.59-.17.72-.83.72h-.43v.37h.42Z"/>
      <path class="cls-1" d="M6.36,51.69c-.14.49-.41,1.21-.57,1.53-.29.06-1.23.24-2,.24-2.5,0-3.79-2.25-3.79-3.97,0-2.05,1.65-4.09,3.98-4.09.88,0,1.74.18,2.06.23.04.46.11,1.08.19,1.57l-.33.07c-.21-.69-.59-1.09-1.12-1.3-.26-.12-.67-.18-1.04-.18-1.65,0-2.58,1.85-2.58,3.49,0,1.91,1.07,3.78,2.69,3.78,1.01,0,1.66-.47,2.19-1.48l.32.11h0Z"/>
      <path class="cls-1" d="M105.97,51.69c-.14.49-.41,1.21-.57,1.53-.29.06-1.23.24-2,.24-2.5,0-3.79-2.25-3.79-3.97,0-2.05,1.65-4.09,3.98-4.09.88,0,1.74.18,2.06.23.04.46.11,1.08.19,1.57l-.33.07c-.21-.69-.59-1.09-1.12-1.3-.26-.12-.67-.18-1.04-.18-1.65,0-2.58,1.85-2.58,3.49,0,1.91,1.07,3.78,2.69,3.78,1.01,0,1.66-.47,2.19-1.48l.32.11h0Z"/>
      <path class="cls-1" d="M12.02,51.78c-.13.26-.32.61-.51.8-.2.22-.3.3-.86.3h-.82c-.48-.01-.65-.08-.65-.68v-3.92c0-.26.02-.28.32-.28h.82c.54,0,.73.06.88.32.11.18.21.39.3.68l.29-.04c-.04-.47-.08-1.13-.08-1.33-.11.01-.47.02-1.35.02h-2.85v.25c.68.06.78.1.78.86v3.38c0,.71-.06.78-.92.84v.25h4.53c.09-.25.34-1.16.4-1.38l-.29-.07h0Z"/>
      <path class="cls-1" d="M10.18,50.53c.64,0,.71.09.84.71h.3v-1.8h-.3c-.12.59-.17.72-.83.72h-.43v.37h.42Z"/>
      <path class="cls-1" d="M17.61,47.65v.25c.74.04.94.17.97.56.03.27.04.62.04,1.41v1.15l.43.47v-1.62c0-.79.02-1.14.03-1.43.03-.4.22-.49.8-.55v-.25h-2.27Z"/>
      <path class="cls-1" d="M18.63,51.89h0l-3.83-4.23h-1.46v.25c.44.04.64.09.81.3.17.19.19.34.19.59v2.16c0,.78-.02,1.15-.05,1.43-.04.42-.26.55-.83.59v.25h2.25v-.25c-.67-.05-.89-.19-.91-.62-.02-.25-.05-.63-.05-1.4v-2.11l3.92,4.46h.38v-.97l-.43-.47h0Z"/>
      <path class="cls-1" d="M24.15,52.15v-3.59h-.89v3.59c0,.69-.08.77-.92.82v.25h2.75v-.25c-.86-.05-.94-.14-.94-.82"/>
      <path class="cls-1" d="M26.28,47.44h-.23c-.14.16-.22.2-.48.2h-3.65c-.26,0-.36,0-.5-.2h-.22c-.03.47-.08,1.03-.14,1.58h.29c.12-.32.2-.55.32-.72.16-.25.31-.3.81-.3h2.63c.43.01.52.08.66.28.1.15.23.44.31.74l.29-.03c-.05-.51-.08-1.15-.08-1.55"/>
      <path class="cls-1" d="M32.6,52.66c-.2-.21-.39-.43-.72-.89-.28-.39-.67-.96-.83-1.23.67-.26,1.18-.72,1.18-1.46,0-.53-.25-.91-.62-1.14-.35-.22-.81-.3-1.51-.3h-2.4v.25c.72.07.82.11.82.83v3.41c0,.72-.07.77-.82.84v.25h2.52v-.25c-.73-.07-.83-.12-.83-.84v-3.73c0-.21.03-.3.11-.36.06-.05.21-.09.48-.09.67,0,1.31.33,1.31,1.25,0,.46-.14.8-.49,1.05-.2.15-.46.22-.83.24v.32c.23.03.33.11.46.31.3.45.62.99.96,1.44.38.5.74.68,1.5.72.12.01.22.02.33.02l.04-.25c-.22-.06-.41-.15-.66-.39"/>
      <path class="cls-1" d="M39.21,52.08c-.58-1.48-1.22-3.09-1.8-4.56l-.32.06-1.91,4.5c-.32.76-.47.83-1.05.9v.25h2.15v-.25c-.75-.08-.89-.15-.69-.71.12-.34.26-.67.4-1.03h1.34l-.14-.37h-1.06c.27-.67.57-1.42.86-2.13l.81,2.13h0l.14.37h0s.23.63.23.63c.09.24.17.45.24.63.13.33.07.42-.53.49v.25h2.34v-.25c-.64-.07-.73-.14-1.03-.89"/>
      <path class="cls-1" d="M46,51.8c-.06.28-.33,1.18-.42,1.44h-4.33v-.25c.83-.07.91-.12.91-.85v-3.39c0-.73-.09-.78-.82-.84v-.25h2.54v.25c-.73.07-.83.11-.83.84v3.47c0,.52.06.65.59.66.01,0,.63.01.68.01.48,0,.62-.06.83-.28.22-.21.42-.56.57-.89l.3.07h0Z"/>
      <path class="cls-1" d="M53.7,50.66h0l-2.09-5.23h-1.86v.3c.9.08.99.27.95.78-.26,3.59-.27,5.37-.33,5.79-.08.55-.33.67-.92.73v.3h2.44v-.3c-.71-.07-.95-.16-.96-.72,0-.22.01-2.36.17-5.8.77,1.8,2.17,5.78,2.58,6.82h.28c.09-.21.23-.57.4-1l-.66-1.65h0Z"/>
      <path class="cls-1" d="M57.75,51.83l-.05-5.21c-.02-.72.09-.81.96-.9v-.3h-1.86l-2.35,5.59.21.53c.66-1.65,1.56-3.91,2.11-5.14v5.43c0,1.04-.03,1.1-.86,1.18v.3h2.79v-.3c-.89-.09-.92-.14-.95-1.18"/>
      <path class="cls-1" d="M64.67,51.78c-.13.26-.32.61-.51.8-.2.22-.3.3-.86.3h-.82c-.48-.01-.65-.08-.65-.68v-3.92c0-.26.02-.28.32-.28h.82c.54,0,.73.06.88.32.11.18.21.39.3.68l.29-.04c-.04-.47-.08-1.13-.08-1.33-.11.01-.47.02-1.35.02h-2.85v.25c.68.06.78.1.78.86v3.38c0,.71-.06.78-.92.84v.25h4.53c.09-.25.34-1.16.4-1.38l-.29-.07h0Z"/>
      <path class="cls-1" d="M62.82,50.53c.64,0,.71.09.84.71h.3v-1.8h-.3c-.12.59-.17.72-.83.72h-.43v.37h.42Z"/>
      <path class="cls-1" d="M68.94,47.65c1.28,0,2.1.24,2.68.75.46.41.79,1.01.79,1.85,0,1-.44,1.81-1.15,2.31-.7.49-1.59.69-2.7.69h-2.22v-.25c.78-.07.82-.13.82-.83v-3.4c0-.74-.11-.78-.82-.84v-.25h2.61ZM68.04,52.08c0,.64.27.82.96.82,1.58,0,2.41-1.01,2.41-2.54,0-.91-.32-1.63-.99-2.04-.42-.27-.94-.37-1.56-.37-.4,0-.61.05-.7.12-.08.06-.12.16-.12.48v3.52h0Z"/>
      <path class="cls-1" d="M73.54,53.24v-.25c.74-.07.82-.11.82-.84v-3.39c0-.74-.08-.78-.82-.85v-.25h2.53v.25c-.75.07-.83.11-.83.85v3.39c0,.73.07.76.83.84v.25h-2.53Z"/>
      <path class="cls-1" d="M82.71,51.84c-.13.42-.37,1.04-.51,1.31-.26.05-.99.21-1.69.21-2.25,0-3.36-1.39-3.36-2.87,0-1.76,1.43-2.97,3.52-2.97.79,0,1.45.16,1.74.2.04.39.1.93.17,1.35l-.3.06c-.18-.59-.42-.94-.89-1.12-.24-.1-.61-.16-.94-.16-1.49,0-2.26,1.05-2.26,2.45,0,1.64.91,2.71,2.36,2.71.91,0,1.38-.4,1.86-1.28l.29.09h0Z"/>
      <path class="cls-1" d="M88.81,52.08c-.58-1.48-1.22-3.09-1.8-4.56l-.32.06-1.91,4.5c-.32.76-.47.83-1.05.9v.25h2.15v-.25c-.75-.08-.89-.15-.7-.71.12-.34.26-.67.4-1.03h1.34l-.14-.37h-1.06c.27-.67.57-1.42.86-2.13l.81,2.13h0l.14.37h0s.03.09.05.13l.15.4c.11.27.2.52.27.72.13.33.07.42-.53.49v.25h2.34v-.25c-.64-.07-.73-.14-1.03-.89"/>
      <path class="cls-1" d="M95.73,51.8c-.06.28-.33,1.18-.42,1.44h-4.33v-.25c.83-.07.91-.12.91-.85v-3.39c0-.73-.09-.78-.82-.84v-.25h2.54v.25c-.73.07-.83.11-.83.84v3.47c0,.52.06.65.59.66.01,0,.63.01.68.01.48,0,.62-.06.83-.28.22-.21.42-.56.57-.89l.3.07h0Z"/>
      <path class="cls-1" d="M111.81,51.8c-.06.28-.33,1.18-.42,1.44h-4.33v-.25c.83-.07.91-.12.91-.85v-3.39c0-.73-.09-.78-.82-.84v-.25h2.54v.25c-.73.07-.83.11-.83.84v3.47c0,.52.06.65.59.66.01,0,.63.01.68.01.48,0,.62-.06.83-.28.22-.21.42-.56.57-.89l.3.07h0Z"/>
      <path class="cls-1" d="M118.46,47.91c-.58.04-.78.18-.81.56-.01.21-.03.56-.03,1.31v.96c0,.85-.11,1.54-.65,2.06-.43.42-1.06.56-1.7.56-.55,0-1.13-.11-1.53-.41-.55-.39-.81-.97-.81-1.97v-2.19c0-.78-.07-.83-.8-.89v-.25h2.5v.25c-.73.05-.8.11-.8.89v2.17c0,1.2.61,1.88,1.69,1.88,1.27,0,1.69-.76,1.69-2.16v-.91c0-.76-.03-1.08-.05-1.32-.03-.39-.25-.52-.92-.56v-.25h2.22v.25h0Z"/>
      <path class="cls-1" d="M122.77,50.2c.53-.12,1.24-.5,1.24-1.29,0-.44-.22-.76-.55-.96-.31-.19-.74-.3-1.43-.3h-2.48v.25c.73.06.82.12.82.83v3.42c0,.69-.05.76-.82.83v.25h2.32c.65,0,1.15-.09,1.62-.34.54-.27.89-.75.89-1.32,0-.83-.71-1.23-1.61-1.37M122.05,52.91c-.63,0-.81-.16-.81-.78v-3.68c0-.26.02-.35.1-.4.09-.06.25-.08.5-.08.82,0,1.24.43,1.24,1.06,0,.66-.36,1.03-1.26,1.06v.32c1.01.03,1.58.42,1.58,1.25,0,.88-.66,1.26-1.34,1.26"/>
      <path class="cls-1" d="M49.58,59.97c-.1-.39-.27-.78-.82-.78-.44,0-.61.32-.61.63,0,.39.25.6.75.85.7.36,1.02.64,1.02,1.2,0,.64-.55,1.12-1.32,1.12-.36,0-.67-.1-.92-.19-.05-.16-.12-.6-.16-.91l.19-.05c.12.39.39.93,1,.93.42,0,.67-.28.67-.67,0-.44-.24-.62-.75-.9-.62-.33-.98-.62-.98-1.19s.45-1.04,1.25-1.04c.34,0,.67.09.79.11.02.21.05.46.1.85l-.19.04Z"/>
      <path class="cls-1" d="M53.76,61.95c-.03.15-.19.78-.25.95h-2.91v-.17c.55-.04.59-.09.59-.58v-2.32c0-.52-.07-.55-.5-.59v-.17h1.83c.57,0,.79,0,.87-.01,0,.14.03.59.05.91l-.19.03c-.05-.2-.12-.35-.19-.47-.1-.18-.22-.22-.57-.22h-.53c-.19,0-.2.02-.2.19v1.3h.64c.42,0,.46-.09.53-.5h.19v1.24h-.19c-.08-.43-.13-.49-.54-.49h-.64v1.15c0,.41.11.47.42.47h.53c.35,0,.42-.05.55-.2.12-.13.24-.37.33-.55l.18.05h0Z"/>
      <path class="cls-1" d="M57.53,60c-.06-.2-.14-.41-.2-.51-.1-.15-.15-.2-.48-.2h-.55v2.86c0,.47.05.53.61.56v.17h-1.76v-.17c.54-.04.59-.09.59-.56v-2.86h-.51c-.32,0-.42.04-.53.21-.07.12-.13.27-.2.5h-.18c.04-.38.07-.76.09-1.08h.14c.09.14.15.14.32.14h2.35c.16,0,.22-.03.31-.14h.15c0,.27.02.72.05,1.06l-.18.02h0Z"/>
      <path class="cls-1" d="M60.07,62.9v-.17c.38-.05.42-.11.34-.34-.07-.22-.19-.51-.3-.86h-1.26c-.09.25-.18.48-.25.71-.13.38-.04.43.45.49v.17h-1.38v-.17c.37-.05.47-.09.67-.62l1.23-3.1.21-.04c.38,1.01.78,2.12,1.16,3.14.19.52.25.57.66.62v.17h-1.51,0ZM59.49,59.81c-.19.5-.38,1.01-.55,1.47h1.07l-.52-1.47h0Z"/>
      <path class="cls-1" d="M65.89,61.29c-.36.05-.39.08-.39.44v.49c0,.21,0,.41.04.56-.35.08-.86.21-1.36.21-1.35,0-2.16-.84-2.16-2.02,0-1.26,1.03-2,2.23-2,.58,0,1.04.12,1.22.14.01.23.04.6.09.97l-.19.04c-.14-.5-.32-.72-.69-.85-.14-.05-.38-.08-.54-.08-.87,0-1.45.62-1.45,1.69,0,.96.47,1.87,1.58,1.87.19,0,.36-.04.48-.1.12-.07.19-.14.19-.37v-.49c0-.43-.05-.48-.61-.52v-.18h1.56v.18h0Z"/>
      <path class="cls-1" d="M68.78,62.9v-.17c.38-.05.42-.11.34-.34-.07-.22-.19-.51-.3-.86h-1.26c-.09.25-.18.48-.25.71-.13.38-.04.43.45.49v.17h-1.38v-.17c.37-.05.47-.09.67-.62l1.23-3.1.21-.04c.38,1.01.78,2.12,1.16,3.14.19.52.25.57.66.62v.17h-1.51,0ZM68.2,59.81c-.19.5-.38,1.01-.55,1.47h1.07l-.52-1.47h0Z"/>
      <path class="cls-1" d="M73.7,59.23c-.41.05-.49.11-.72.49-.26.42-.47.81-.76,1.35-.07.13-.08.2-.08.34v.73c0,.5.05.53.59.58v.17h-1.73v-.17c.53-.07.57-.08.57-.58v-.75c0-.12-.02-.17-.11-.33-.2-.38-.41-.76-.73-1.32-.23-.4-.29-.47-.68-.51v-.17h1.5v.17c-.42.06-.4.13-.29.34.24.44.51.96.76,1.41.21-.39.53-1.01.7-1.35.13-.28.11-.35-.35-.4v-.17h1.35v.17h0Z"/>
      <path class="cls-1" d="M75.77,62.9v-.17c.38-.05.42-.11.34-.34-.07-.22-.19-.51-.3-.86h-1.26c-.09.25-.18.48-.25.71-.13.38-.04.43.45.49v.17h-1.38v-.17c.37-.05.47-.09.67-.62l1.23-3.1.21-.04c.38,1.01.78,2.12,1.16,3.14.19.52.25.57.66.62v.17h-1.51,0ZM75.19,59.81c-.19.5-.38,1.01-.55,1.47h1.07l-.52-1.47h0Z"/>
      <path class="cls-1" d="M53.08,24.62c-.19-.74-.29-1.76-.29-3.06v-2.25h-.69v2.58c0,1-.06,1.84-.19,2.51s-.37,1.23-.74,1.64-.92.67-1.65.77v.69h6.42v-.69c-.82-.04-1.45-.23-1.9-.58-.45-.34-.77-.89-.96-1.63"/>
      <path class="cls-1" d="M72.96,16.14v-6.44h-.69v6.53c.23-.02.46-.06.69-.1"/>
      <path class="cls-1" d="M73.25,24.62c-.19-.74-.29-1.76-.29-3.06v-3.29c-.22.04-.46.08-.69.1v3.52c0,1-.06,1.84-.19,2.51s-.37,1.23-.74,1.64-.92.67-1.65.77v.69h6.42v-.69c-.82-.04-1.45-.23-1.9-.58-.45-.34-.77-.89-.96-1.63"/>
      <path class="cls-1" d="M74.66,8.69v-.85h-5.27l-2.47,6.05c.27.38.57.72.91,1.02.57-1.46,1.12-2.83,1.59-3.96,1.32-3.12,5.24-2.27,5.24-2.27"/>
      <path class="cls-1" d="M65.51,17.37l-2.08,5.08.82,2.01c.66-1.8,1.54-4.19,2.45-6.58-.04-.01-.09-.03-.13-.04-.37-.13-.73-.29-1.07-.46"/>
      <path class="cls-1" d="M51.6,7.84h0c-.86,0-1.66.14-2.39.4-.74.27-1.39.64-1.93,1.13-.54.48-.95,1.04-1.25,1.68-.29.64-.44,1.31-.44,2.02,0,.77.16,1.48.47,2.14s.75,1.23,1.3,1.7c.55.47,1.2.84,1.93,1.09.73.25,1.51.39,2.33.39.31,0,.6-.02.86-.06s.59-.1.95-.19.62-.14.75-.17c.13-.03,1.79.17,1.79.17v-2.6h-.42c-.21.38-.44.72-.68,1.01s-.44.49-.78.73c-.33.24-.69.41-1.06.53-.37.12-.77.18-1.19.18-.57,0-1.09-.11-1.56-.33-.47-.22-.87-.54-1.2-.95-.33-.42-.59-.92-.77-1.51-.18-.59-.28-1.23-.28-1.9,0-.94.18-1.78.55-2.51.36-.73.87-1.3,1.53-1.71.62-.39,1.31-.59,2.09-.61.9,0,2.58.31,3.39,2.52,2.3,5.48,5.72,13.8,6.75,16.56h.79l.84-2.3-7.1-17.38h-5.27.01Z"/>
      <path class="cls-1" d="M75.48,4.52c.38.45.72.96,1.05,1.54h.64v-3.97s-2.53.3-2.73.26-.58-.13-1.15-.26-1.05-.23-1.46-.29-.85-.09-1.32-.09c-1.26,0-2.44.2-3.56.59-1.12.39-2.1.95-2.95,1.67s-1.51,1.59-1.99,2.6c-.48,1.01-.72,2.1-.72,3.27,0,1.08.22,2.11.66,3.09.44.97,1.08,1.83,1.91,2.57s1.81,1.31,2.95,1.72c1.14.41,2.38.62,3.73.62,1.74,0,3.27-.3,4.6-.91.74-.33,1.41-.76,2.03-1.27v-1.09c-.39.38-.79.72-1.21,1.01-.67.46-1.36.8-2.09,1.02s-1.49.33-2.27.33c-1.27,0-2.41-.31-3.41-.94-1-.63-1.78-1.5-2.33-2.62-.56-1.12-.83-2.4-.83-3.84,0-1.03.14-2,.43-2.91.28-.91.68-1.68,1.18-2.31.51-.63,1.12-1.12,1.84-1.46.72-.34,1.51-.51,2.39-.51.65,0,1.26.09,1.82.27.57.18,1.11.45,1.62.81s.82.67,1.19,1.11"/>
      <path class="cls-1" d="M61.53,2.78c.77,0,1.39-.62,1.39-1.39s-.62-1.39-1.39-1.39-1.39.62-1.39,1.39.62,1.39,1.39,1.39"/>
    </g>
  </g>
</svg>