<?xml version="1.0" encoding="UTF-8"?>
<svg id="_レイヤー_2" data-name="レイヤー 2" xmlns="http://www.w3.org/2000/svg" viewBox="0 0 77.22 15.7">
  <defs>
    <style>
      .cls-1 {
        fill-rule: evenodd;
      }

      .cls-1, .cls-2 {
        fill: #6d6e71;
        stroke-width: 0px;
      }
    </style>
  </defs>
  <g id="pc">
    <g>
      <path class="cls-1" d="M2.34,4.01c0,.75,0,1.4-.04,1.75-.02.24-.07.4-.24.45-.1.02-.19.03-.29.04-.1,0-.13.02-.13.06s.06.08.16.08c.33,0,.84-.02,1.03-.02s.74.02,1.29.02c.09,0,.15-.02.15-.08s-.04-.06-.13-.06c-.14,0-.28-.02-.42-.04-.25-.03-.29-.21-.32-.44-.04-.35-.04-1-.04-1.75V.65l1.03.02c.73,0,.95.25.97.46v.09c0,.12.02.16.09.16s.06-.05.07-.13c0-.21.03-.79.03-.95s0-.17-.07-.17c-.26.06-.53.08-.79.08H1.44c-.27,0-.58,0-.82-.04-.12-.02-.24-.05-.35-.1-.05,0-.08.05-.1.15s-.17.79-.17.94,0,.13.08.13.08-.03.09-.1c.03-.1.08-.2.14-.29.12-.18.32-.22.79-.24l1.22-.03.02,3.36Z"/>
      <path class="cls-1" d="M8.12,2.8s-.05-.02-.05-.05c0,0,0,0,0,0V.83c0-.27.08-.42.3-.46.08-.02.16-.03.24-.03.1,0,.15,0,.15-.07s-.06-.08-.17-.08c-.32,0-.84.02-1.03.02s-.74-.02-1.19-.02c-.11,0-.17,0-.17.08s.05.07.14.07c.11,0,.22,0,.32.03.27.06.34.19.35.46s0,.49,0,1.74v1.44c0,.75,0,1.4-.04,1.75-.03.24-.07.4-.24.45-.1.02-.19.03-.29.04-.1,0-.13.02-.13.06s.06.08.16.08c.33,0,.84-.02,1.03-.02s.74.02,1.28.02c.1,0,.16-.02.16-.08s-.04-.06-.13-.06c-.14,0-.28-.02-.42-.04-.25-.03-.29-.21-.32-.44-.04-.35-.04-1-.04-1.75v-.72s.03-.05.05-.05h3.13s.05.02.05.05h0v.72c0,.75,0,1.4-.04,1.75-.03.24-.08.4-.24.45-.1.02-.19.03-.29.04-.1,0-.13.02-.13.06s.06.08.17.08c.32,0,.84-.02,1.03-.02s.74.02,1.28.02c.1,0,.17-.02.17-.08s-.04-.06-.13-.06c-.14,0-.28-.02-.42-.04-.25-.03-.29-.21-.32-.44-.04-.35-.04-1-.04-1.75V.83c0-.27.08-.42.3-.46.08-.02.16-.03.24-.03.1,0,.15,0,.15-.07s-.06-.08-.17-.08c-.32,0-.84.02-1.03.02s-.74-.02-1.19-.02c-.11,0-.17,0-.17.08s.05.07.14.07c.11,0,.21,0,.32.03.27.06.34.19.35.46s0,.49,0,1.74v.17s-.02.06-.05.06h-3.05Z"/>
      <path class="cls-1" d="M15.18,4.01c0,.75,0,1.4-.04,1.75-.04.24-.08.4-.24.45-.1.02-.2.03-.3.04-.1,0-.13.02-.13.06s.06.08.17.08c.32,0,.84-.02,1.03-.02.48,0,1.03.05,2.27.05.31,0,.4,0,.44-.21.06-.3.09-.6.11-.91,0-.08,0-.15-.07-.15s-.07.04-.09.12c-.06.34-.15.51-.37.61-.25.08-.51.11-.77.1-.84,0-.97-.12-.98-.69v-1.92c0-.05,0-.08.05-.08.2,0,1.01,0,1.16.02.3.03.4.15.46.32.02.1.03.19.03.29,0,.04,0,.08.08.08s.07-.09.07-.15,0-.4.03-.55c.03-.42.07-.55.07-.6s-.02-.07-.06-.07-.08.04-.13.11-.19.11-.4.12-1.13,0-1.31,0c-.05,0-.06-.04-.06-.09V.73c0-.06,0-.08.06-.08.17,0,1.03,0,1.16.03.4.05.49.15.55.3.03.09.05.19.05.29,0,.08,0,.11.08.11s.07-.05.08-.09.04-.46.04-.54c.02-.38.06-.48.06-.53s0-.07-.05-.07c-.04,0-.09.02-.13.03-.12.02-.23.04-.35.05h-2.05c-.26,0-.75-.02-1.19-.02-.12,0-.18,0-.18.08s.05.07.14.07c.11,0,.22,0,.32.03.27.06.34.19.35.46s0,.49,0,1.74l.03,1.43Z"/>
      <path class="cls-1" d="M24.02,4.01c0,.75,0,1.4-.04,1.75-.03.24-.07.4-.24.45-.1.02-.19.03-.29.04-.1,0-.13.02-.13.06s.06.08.16.08c.33,0,.84-.02,1.03-.02s.73.02,1.27.02c.09,0,.15-.02.15-.08s-.04-.06-.13-.06c-.14,0-.28-.02-.42-.04-.25-.03-.29-.21-.32-.44-.04-.35-.04-1-.04-1.75V.73c0-.09.02-.14.07-.16.1-.03.21-.04.32-.03.3,0,.6.11.82.32.33.32.51.77.48,1.23.04.67-.44,1.25-1.1,1.35-.17,0-.23.03-.23.09s.06.07.1.08c.06,0,.12,0,.17,0,1.06.05,1.96-.78,2.01-1.84,0-.05,0-.09,0-.14,0-.36-.15-.71-.4-.97-.13-.12-.5-.47-1.52-.47-.4,0-.85.02-1.19.02-.23,0-.74-.02-1.19-.02-.12,0-.18,0-.18.08s.05.07.14.07c.11,0,.22,0,.32.03.27.06.34.19.35.46s0,.49,0,1.74v1.45Z"/>
      <path class="cls-1" d="M29.47,4.01c0,.75,0,1.4-.04,1.75-.03.24-.07.4-.24.45-.1.02-.19.03-.29.04-.1,0-.13.02-.13.06s.06.08.16.08c.33,0,.84-.02,1.03-.02.48,0,1.03.05,2.27.05.31,0,.4,0,.44-.21.06-.3.09-.6.11-.91,0-.08,0-.15-.06-.15s-.08.04-.09.12c-.06.34-.15.51-.37.61-.25.08-.51.11-.77.1-.84,0-.97-.12-.98-.69v-1.92c0-.05,0-.08.05-.08.19,0,1.01,0,1.16.02.3.03.42.15.46.32.02.1.03.19.03.29,0,.04.02.07.06.08,0,0,.01,0,.02,0,.08,0,.08-.09.08-.15s0-.4.03-.55c.01-.2.03-.4.07-.6,0-.05-.03-.07-.06-.07s-.08.04-.13.11c-.11.09-.25.13-.4.12h-1.31c-.05,0-.06-.04-.06-.09V.73c0-.06,0-.08.06-.08.16,0,1.02,0,1.16.03.4.05.49.15.55.3.03.09.05.19.05.29,0,.08,0,.11.08.11s.08-.05.08-.09.03-.46.04-.54c.01-.18.03-.36.07-.53,0-.04,0-.07-.05-.07-.04,0-.09.02-.13.03-.12.02-.23.04-.35.05h-2.05c-.26,0-.74-.02-1.19-.02-.12,0-.18,0-.18.08s.05.07.14.07c.11,0,.21,0,.32.03.27.06.34.19.35.46s.02.49.02,1.74v1.43Z"/>
      <path class="cls-1" d="M35.34,1.83h.02c.15.15,1.06,1.19,1.95,2.06s1.9,1.92,2.42,2.41c.09.09.19.18.28.18s.11-.08.11-.25l.09-5.17c0-.46.07-.63.3-.69.08-.02.16-.03.25-.03.1,0,.15-.02.15-.07s-.08-.08-.19-.08c-.4,0-.71.02-.79.02-.17,0-.56-.02-.99-.02-.12,0-.21,0-.21.08s.03.07.13.07c.15,0,.29,0,.44.05.2.08.27.24.28.74l.08,3.68h-.04c-.14-.13-1.25-1.31-1.81-1.87-1.19-1.19-2.44-2.52-2.54-2.63s-.21-.25-.3-.25-.11.11-.11.28l-.08,4.85c0,.71-.04.95-.25,1.01-.12.03-.24.05-.37.04-.08,0-.13,0-.13.06s.07.08.18.08c.43,0,.79-.02.89-.02.15,0,.48.02,1.01.02.11,0,.19,0,.19-.08s-.05-.06-.14-.06c-.14,0-.29-.02-.43-.06-.16-.06-.27-.27-.29-.91l-.1-3.44Z"/>
      <path class="cls-1" d="M42.96,4.01c0,.79,0,1.44-.04,1.79-.02.24-.07.4-.24.4-.1.02-.19.03-.29.04-.1,0-.13.02-.13.06s.06.08.16.08c.33,0,.84-.02,1.03-.02s.74.02,1.28.02c.09,0,.15-.02.15-.08s-.04-.06-.13-.06c-.14,0-.28-.02-.42-.04-.25-.03-.3-.18-.32-.4-.04-.35-.04-1-.04-1.79V.82c0-.27.08-.42.3-.46.08-.02.16-.03.25-.03.08,0,.13,0,.13-.08s-.06-.07-.17-.07c-.31,0-.79.02-1,.02s-.75-.02-1.07-.02c-.13,0-.19,0-.19.07s.05.08.13.08c.1,0,.2,0,.29.04.18.04.27.18.28.46s0,.49,0,1.74l.03,1.45Z"/>
      <path class="cls-1" d="M47.28,1.83h.03c.15.15,1.06,1.19,1.95,2.06s1.9,1.92,2.42,2.41c.09.09.19.18.28.18s.1-.08.1-.25l.09-5.17c0-.46.08-.63.3-.69.08-.02.16-.03.25-.03.1,0,.15-.02.15-.07s-.08-.08-.19-.08c-.4,0-.71.02-.79.02-.17,0-.57-.02-.99-.02-.12,0-.21,0-.21.08s.03.07.13.07c.15,0,.29,0,.43.05.2.08.27.24.28.74l.08,3.68h-.04c-.14-.13-1.24-1.31-1.8-1.87-1.19-1.19-2.44-2.52-2.54-2.63s-.21-.25-.3-.25-.11.11-.11.28l-.07,4.85c0,.71-.04.95-.25,1.01-.12.03-.25.05-.37.04-.08,0-.13,0-.13.06s.08.08.18.08c.42,0,.79-.02.88-.02.16,0,.48.02,1.02.02.11,0,.19,0,.19-.08s-.05-.06-.14-.06c-.14,0-.29-.02-.42-.06-.17-.06-.27-.27-.29-.91l-.1-3.44Z"/>
      <path class="cls-1" d="M55.49,6.5c.46.02.91-.1,1.3-.34.5-.3.8-.84.79-1.43,0-.79-.36-1.33-1.35-2.09l-.23-.17c-.68-.51-.87-.79-.87-1.19,0-.48.4-.86.88-.85.03,0,.07,0,.1,0,.35-.03.68.12.89.4.12.15.2.34.21.54,0,.1.02.15.08.15s.09-.06.09-.25c0-.64.03-.88.03-.98s-.04-.08-.11-.1c-.35-.1-.72-.14-1.09-.14-1.14,0-1.89.65-1.89,1.55,0,.67.31,1.24,1.21,1.94l.4.3c.68.52.79.91.79,1.31-.03.55-.5.97-1.05.94-.01,0-.03,0-.04,0-.54.05-1.04-.3-1.19-.83-.04-.14-.06-.28-.07-.42,0-.06,0-.14-.08-.14s-.09.09-.1.21-.04.62-.04,1.07c0,.18.02.22.15.28.37.16.78.24,1.18.23Z"/>
      <path class="cls-1" d="M59.57,3.77c0,1.19.31,1.79.73,2.17.51.41,1.16.61,1.82.57.62.03,1.23-.18,1.7-.59.69-.59.79-1.56.79-2.47V.83c0-.27.08-.42.3-.46.08-.02.16-.03.24-.03.1,0,.15,0,.15-.07s-.06-.08-.17-.08c-.32,0-.84.02-.93.02,0,0-.52-.02-.94-.02-.11,0-.17,0-.17.08s.05.07.14.07c.1,0,.2,0,.3.03.27.06.33.19.35.46s0,.49,0,1.74v1.03c0,.84-.03,1.58-.48,2.03-.31.29-.71.45-1.13.44-.37.02-.73-.1-1.02-.34-.4-.32-.64-.83-.64-2.01V.83c0-.27.08-.42.3-.46.08-.02.16-.03.24-.03.08,0,.13,0,.13-.07s-.06-.08-.18-.08c-.3,0-.79.02-1.01.02s-.76-.02-1.19-.02c-.12,0-.18,0-.18.08s.05.07.14.07c.11,0,.21,0,.32.03.27.06.34.19.35.46s.02.49.02,1.74l.03,1.2Z"/>
      <path class="cls-1" d="M68,2.57V.83c0-.27.08-.42.3-.46.11-.02.21-.03.32-.03.1,0,.15,0,.15-.07s-.06-.08-.17-.08c-.32,0-.91.02-1.11.02s-.74-.02-1.12-.02c-.12,0-.18,0-.18.08s.05.07.14.07c.09,0,.18,0,.27.03.27.06.33.19.35.46s0,.49,0,1.74v1.44c0,.75,0,1.4-.04,1.75-.03.24-.07.4-.24.45-.1.02-.19.03-.29.04-.1,0-.13.02-.13.06s.06.08.16.08c.33,0,.84-.02,1.03-.02.66,0,1.19.05,2.38.05.42,0,.47-.04.51-.22.06-.31.11-.63.12-.94,0-.1,0-.14-.06-.14s-.08.05-.09.12c-.03.18-.1.35-.21.49-.21.22-.52.23-.96.23-.64,0-.85-.06-.99-.18s-.17-.71-.17-1.76l.04-1.44Z"/>
      <path class="cls-1" d="M74.5,4.25s.07.02.08.06l.65,1.74c.04.07.01.15-.05.18,0,0-.01,0-.02,0-.08,0-.11.02-.11.07s.1.06.25.07h1.55c.3,0,.38,0,.38-.08s-.04-.06-.11-.06c-.12,0-.23-.01-.34-.04-.17-.04-.4-.15-.72-.89-.52-1.24-1.83-4.59-2.03-5.04-.08-.19-.13-.26-.21-.26s-.13.09-.23.32l-2.06,5.15c-.16.4-.32.69-.7.74-.08,0-.17,0-.25,0-.06,0-.1,0-.1.06s.05.08.15.08c.42,0,.88-.02.97-.02.25,0,.61.02.87.02.09,0,.14,0,.14-.08s-.02-.06-.12-.06h-.12c-.25,0-.32-.11-.32-.25.01-.17.05-.34.12-.5l.44-1.19c0-.05.04-.07.08-.07l1.83.05ZM72.83,3.85s-.04-.03-.03-.06l.75-2.02s.03-.07.05-.07.03.04.04.07l.74,2.02s0,.05-.04.05h-1.51Z"/>
      <path class="cls-1" d="M21.26,14.45v.87c0,.17-.04.21-.12.23-.05,0-.1,0-.15,0-.05,0-.06,0-.06.04s.03.04.08.04h1.16s.08,0,.08-.04,0-.04-.07-.04c-.07,0-.14,0-.21,0-.12,0-.15-.11-.16-.22-.02-.17-.02-.5-.02-.88v-1.68h.51c.37,0,.48.12.49.23v.04c0,.06,0,.08.04.08s.03-.02.04-.07,0-.4,0-.47,0-.09-.03-.09c-.13.03-.26.04-.4.04h-2.02c-.06-.01-.12-.03-.18-.05-.02,0-.04.02-.05.08s-.09.4-.09.47,0,.07.04.07.04,0,.05-.05c.02-.05.04-.1.07-.14.06-.09.16-.11.4-.12h.61v1.66Z"/>
      <path class="cls-1" d="M30.05,15.7c.89.04,1.65-.64,1.69-1.53,0-.05,0-.1,0-.15,0-.93-.63-1.53-1.65-1.53-.87-.06-1.63.6-1.69,1.47,0,.04,0,.08,0,.11-.04.86.63,1.59,1.49,1.62.05,0,.11,0,.16,0ZM30.22,15.49c-.79,0-1.26-.68-1.26-1.53,0-1.02.54-1.28,1.01-1.28.67,0,1.19.57,1.19,1.49.01,1.18-.65,1.32-.94,1.32h0Z"/>
      <path class="cls-1" d="M38.38,13.73v-.87c0-.13.04-.21.15-.23.04,0,.08,0,.11,0,.03,0,.06,0,.06-.04s-.03-.04-.08-.04h-1.07c-.06,0-.09,0-.09.04s.02.04.07.04c.05,0,.11,0,.16,0,.13.03.17.1.17.23s0,.25,0,.87v.72c0,.4,0,.7-.02.87s-.04.21-.12.23c-.05,0-.1,0-.15,0-.05,0-.07,0-.07.04s.03.04.08.04h1.1s.08,0,.08-.04-.02-.04-.06-.04c-.07,0-.13,0-.2,0-.1,0-.14-.11-.15-.22v-1.25h.02l.04.06c.09.12.89,1.07,1.07,1.23.13.15.31.24.51.27h.64c.08,0,.1,0,.1-.04s-.02-.04-.05-.04c-.09,0-.17-.02-.25-.06-.22-.11-.42-.26-.59-.44-.16-.15-.96-1.01-1.11-1.21.14-.15.76-.76.88-.88.12-.13.28-.24.44-.31.08-.03.16-.04.24-.04.04,0,.06,0,.06-.04s-.03-.04-.07-.04h-.9s-.06,0-.06.04,0,.04.05.04c.04,0,.06.04.06.08,0,.07-.09.17-.21.31s-.72.75-.86.9h-.02v-.17Z"/>
      <path class="cls-1" d="M46.77,14.92v.4c0,.16-.04.21-.13.23-.05,0-.1,0-.14,0-.05,0-.07,0-.07.04s.04.04.09.04h1.14c.05,0,.08,0,.08-.04s-.02-.04-.06-.04c-.07,0-.14,0-.21,0-.12,0-.16-.11-.17-.23s0-.34,0-.4v-.33c0-.13.01-.27.06-.4.24-.45.5-.89.79-1.3.05-.08.13-.15.22-.2.06-.03.12-.04.18-.05.04,0,.08,0,.08-.04s-.03-.03-.08-.03h-.84s-.07,0-.07.04.04.04.07.04c.05,0,.09.05.09.1,0,0,0,0,0,0,0,.07-.02.15-.06.21-.06.13-.57,1.03-.61,1.13-.06-.11-.64-1.1-.7-1.23-.03-.04-.04-.09-.05-.14,0-.03.02-.06.06-.07.06,0,.09,0,.09-.05s-.02-.04-.06-.04h-.95c-.05,0-.08,0-.08.04s.03.04.06.04c.06,0,.12.02.17.05.12.08.21.18.28.3.15.21.69,1.11.72,1.19.07.13.1.28.1.43l-.02.3Z"/>
      <path class="cls-1" d="M55.46,15.7c.89.04,1.65-.65,1.69-1.54,0-.05,0-.09,0-.14,0-.93-.63-1.53-1.66-1.53-.87-.06-1.63.6-1.69,1.47,0,.04,0,.07,0,.11-.04.86.63,1.59,1.49,1.62.05,0,.11,0,.16,0ZM55.63,15.49c-.79,0-1.26-.68-1.26-1.53,0-1.02.53-1.28,1.01-1.28.67,0,1.19.57,1.19,1.49.01,1.18-.65,1.32-.93,1.32h0Z"/>
      <rect class="cls-2" x="0" y="9.35" width="77.18" height=".26"/>
    </g>
  </g>
</svg>