<?xml version="1.0" encoding="UTF-8"?>
<svg id="_レイヤー_2" data-name="レイヤー 2" xmlns="http://www.w3.org/2000/svg" viewBox="0 0 479.42 88.33">
  <defs>
    <style>
      .cls-1 {
        opacity: .5;
      }

      .cls-2 {
        fill: #be9f6a;
        stroke-width: 0px;
      }
    </style>
  </defs>
  <g id="_01" data-name="01">
    <g class="cls-1">
      <g>
        <path class="cls-2" d="M82.44,32.69c-.11,6.59-1.65,13.02-4.62,19.29-2.98,6.27-6.88,11.85-11.72,16.74-4.84,4.89-10.44,8.82-16.82,11.8-6.38,2.98-13.02,4.46-19.93,4.46-4.15,0-8-.32-11.56-.96-3.56-.64-6.64-1.75-9.25-3.35-2.61-1.59-4.68-3.72-6.22-6.38-1.54-2.66-2.31-6-2.31-10.05,0-3.4.61-6.99,1.83-10.76,1.22-3.77,2.79-7.47,4.7-11.08,1.91-3.61,4.09-7.02,6.54-10.2,2.44-3.19,4.84-5.84,7.18-7.97,4.57-4.15,9.73-7.18,15.47-9.09,5.74-1.91,11.64-2.87,17.7-2.87,3.29,0,6.67.32,10.12.96,3.45.64,6.59,1.73,9.41,3.27,2.82,1.54,5.13,3.62,6.94,6.22,1.81,2.61,2.66,5.93,2.55,9.97ZM74.46,31.57c0-3.29-.53-6.08-1.59-8.37-1.06-2.28-2.5-4.15-4.31-5.58-1.81-1.44-3.99-2.5-6.54-3.19-2.55-.69-5.37-1.04-8.45-1.04-5.64,0-10.68,1.09-15.15,3.27-4.46,2.18-8.56,5.4-12.28,9.65-2.02,2.23-4.12,4.94-6.3,8.13-2.18,3.19-4.17,6.59-5.98,10.2-1.81,3.61-3.3,7.25-4.46,10.92-1.17,3.67-1.75,7.1-1.75,10.28,0,3.4.5,6.25,1.51,8.53,1.01,2.29,2.42,4.09,4.23,5.42,1.81,1.33,3.96,2.29,6.46,2.87,2.5.59,5.23.88,8.21.88,6.27,0,12.2-1.65,17.78-4.94,5.58-3.29,10.5-7.47,14.75-12.52,4.25-5.05,7.63-10.63,10.12-16.74,2.5-6.11,3.75-12.04,3.75-17.78Z"/>
        <path class="cls-2" d="M136.49,64.42c-1.81,2.55-3.93,5.24-6.38,8.05-2.45,2.82-5,5.4-7.65,7.73-2.66,2.34-5.37,4.28-8.13,5.82-2.77,1.54-5.37,2.31-7.81,2.31-1.81,0-3.22-.48-4.23-1.44-1.01-.96-1.51-2.45-1.51-4.46,0-.96.13-2.05.4-3.27.26-1.22.72-2.58,1.35-4.07-.64.74-1.35,1.62-2.15,2.63-.8,1.01-1.7,1.97-2.71,2.87-1.01.9-2.13,1.65-3.35,2.23-1.22.59-2.58.88-4.07.88-1.17,0-2.13-.34-2.87-1.04-.75-.69-1.12-1.78-1.12-3.27,0-.85.18-1.91.56-3.19.37-1.28,1.06-3,2.07-5.18,1.01-2.18,2.39-4.89,4.15-8.13,1.75-3.24,4.01-7.25,6.78-12.04.53-1.06,1.01-1.59,1.44-1.59.74,0,1.51.45,2.31,1.36.8.9,1.2,1.51,1.2,1.83s-.32.96-.96,1.91c-1.7,2.55-3.3,5.1-4.78,7.65-1.49,2.55-2.79,4.94-3.91,7.18-1.12,2.23-2.02,4.23-2.71,5.98-.69,1.75-1.04,3.11-1.04,4.07,0,1.59.58,2.39,1.75,2.39,1.06,0,2.52-.82,4.38-2.47,1.86-1.65,4.07-4.44,6.62-8.37.96-1.7,1.94-3.48,2.95-5.34,1.01-1.86,1.99-3.64,2.95-5.34.96-1.7,1.86-3.27,2.71-4.7.85-1.43,1.49-2.52,1.91-3.27.53-.74.96-1.12,1.28-1.12.42,0,.9.45,1.44,1.36.53.9.8,1.99.8,3.27,0,.85-.21,1.65-.64,2.39-1.28,1.91-2.63,3.8-4.07,5.66-1.44,1.86-2.77,3.8-3.99,5.82-1.22,2.02-2.26,4.15-3.11,6.38-.85,2.23-1.28,4.68-1.28,7.33,0,2.34,1.12,3.51,3.35,3.51,1.49,0,3.27-.56,5.34-1.67,2.07-1.12,4.33-2.68,6.78-4.7,2.44-2.02,4.97-4.46,7.57-7.33,2.6-2.87,5.07-6,7.41-9.41.64-.21.96.05.96.8Z"/>
        <path class="cls-2" d="M169.17,51.02c-.64.74-1.3,1.65-1.99,2.71-.69,1.06-1.14,1.86-1.35,2.39-.11.32-.32.48-.64.48-.11,0-.27-.16-.48-.48-.21-.32-.51-.66-.88-1.04-.37-.37-.88-.72-1.51-1.04-.64-.32-1.54-.48-2.71-.48-1.38,0-2.92.48-4.62,1.44-1.7.96-3.19,2.02-4.46,3.19-2.02,1.7-3.8,3.56-5.34,5.58-1.54,2.02-3,4.12-4.38,6.3-1.38,2.18-2.71,4.41-3.99,6.7-1.28,2.29-2.66,4.6-4.15,6.94-.11.32-.43.48-.96.48-.21,0-.67-.32-1.36-.96-.69-.64-1.04-1.12-1.04-1.44,0-.64.37-1.59,1.12-2.87,1.7-2.97,3.43-5.98,5.18-9.01s3.4-5.87,4.94-8.53c1.54-2.66,2.9-4.97,4.07-6.94,1.17-1.97,1.97-3.43,2.39-4.39.53-.96.9-1.43,1.12-1.43s.74.27,1.59.8c.85.53,1.28,1.28,1.28,2.23,0,.32-.19.85-.56,1.59-.37.74-.8,1.51-1.28,2.31-.48.8-.93,1.57-1.35,2.31-.43.74-.75,1.28-.96,1.59-.32.53-.37.8-.16.8s.48-.16.8-.48c1.06-1.06,2.36-2.23,3.91-3.51,1.54-1.28,3.16-2.47,4.86-3.59,1.7-1.12,3.37-2.05,5.02-2.79,1.65-.74,3.11-1.12,4.38-1.12.96,0,1.78.24,2.47.72.69.48,1.04.98,1.04,1.51Z"/>
        <path class="cls-2" d="M238.05,74.78c5.63-5.63,11.37-11.58,17.22-17.86,5.84-6.27,11.4-12.41,16.66-18.42,5.26-6,9.94-11.61,14.03-16.82,4.09-5.21,7.2-9.51,9.33-12.92,1.7-2.55,2.55-4.68,2.55-6.38,0-.32-.05-.64-.16-.96-.11-.32-.16-.58-.16-.8,0-.42.1-.64.32-.64.32,0,.58.16.8.48.53.53,1.17,1.33,1.91,2.39.74,1.06,1.12,1.91,1.12,2.55,0,.74-.16,1.54-.48,2.39-.32.85-1.01,2.02-2.07,3.51-1.06,1.49-2.55,3.38-4.46,5.66-1.91,2.29-4.52,5.24-7.81,8.85-3.3,3.61-7.33,8-12.12,13.15-4.78,5.16-10.52,11.3-17.22,18.42-1.59,1.59-3.46,3.48-5.58,5.66-2.13,2.18-4.23,4.44-6.3,6.78-2.07,2.34-3.99,4.6-5.74,6.78-1.75,2.18-3,4.01-3.75,5.5-.75,1.38-1.81,2.07-3.19,2.07-2.02.1-3.54.45-4.54,1.04-1.01.58-1.83.88-2.47.88-.43,0-.64-.21-.64-.64,0-.32.21-.9.64-1.75.42-.85.85-1.86,1.28-3.03,1.38-4.15,2.66-8.74,3.83-13.79,1.17-5.05,2.15-9.91,2.95-14.59.8-4.68,1.44-8.85,1.91-12.52.48-3.67.72-6.19.72-7.57,0-1.91-.11-3.8-.32-5.66-.21-1.86-.72-3.51-1.51-4.94s-1.97-2.6-3.51-3.51c-1.54-.9-3.64-1.36-6.3-1.36-2.13,0-4.49.4-7.1,1.2-2.61.8-4.65,1.94-6.14,3.43-.85.85-1.44,1.01-1.75.48-.32-.53-.11-1.06.64-1.59,3.08-2.12,6.75-3.88,11-5.26,4.25-1.38,8.24-2.07,11.96-2.07,3.93,0,6.62,1.09,8.05,3.27,1.44,2.18,2.15,4.97,2.15,8.37,0,3.61-.35,7.76-1.04,12.44-.69,4.68-1.49,9.38-2.39,14.11-.9,4.73-1.7,9.14-2.39,13.23-.69,4.09-1.04,7.41-1.04,9.97,0,.53.1.8.32.8.32,0,.58-.1.8-.32Z"/>
        <path class="cls-2" d="M319.37,62.66c-2.55,3.3-5.48,6.43-8.77,9.41-3.3,2.98-6.33,5.37-9.09,7.18-2.13,1.38-4.31,2.45-6.54,3.19-2.23.74-4.25,1.12-6.06,1.12-.64,0-1.38-.05-2.23-.16-.85-.1-1.62-.37-2.31-.8-.69-.42-1.28-.98-1.75-1.67-.48-.69-.72-1.62-.72-2.79,0-1.38.53-3.27,1.59-5.66,1.06-2.39,2.31-4.86,3.75-7.41s2.87-5,4.31-7.33c1.44-2.34,2.58-4.09,3.43-5.26.53-.85,1.46-1.57,2.79-2.15,1.33-.58,2.21-.88,2.63-.88.53,0,.8.16.8.48,0,.21-.08.53-.24.96-.16.43-.35.74-.56.96-1.38,2.13-2.79,4.46-4.23,7.02-1.44,2.55-2.74,5.02-3.91,7.41-1.17,2.39-2.1,4.6-2.79,6.62-.69,2.02-1.04,3.61-1.04,4.78,0,1.28.34,2.21,1.04,2.79.69.59,1.62.88,2.79.88,2.12,0,4.46-.72,7.02-2.15,2.55-1.44,5.08-3.16,7.57-5.18,2.5-2.02,4.81-4.15,6.94-6.38,2.12-2.23,3.77-4.15,4.94-5.74.53-.53.82-.66.88-.4.05.27-.03.67-.24,1.2ZM312.2,27.11c0,1.28-.56,2.55-1.67,3.83s-2.37,1.91-3.75,1.91c-1.28,0-1.91-.64-1.91-1.91,0-1.38.5-2.71,1.51-3.99,1.01-1.28,2.26-1.91,3.75-1.91,1.38,0,2.07.69,2.07,2.07Z"/>
        <path class="cls-2" d="M339.3,54.37c-.32.53-.58.59-.8.16-.64-1.38-1.97-2.07-3.99-2.07-1.49,0-2.98.43-4.46,1.28-1.49.85-2.23,2.13-2.23,3.83,0,.85.26,1.7.8,2.55.53.85,1.28,1.97,2.23,3.35.85,1.28,1.65,2.55,2.39,3.83.74,1.28,1.12,2.61,1.12,3.99,0,2.77-.64,5.02-1.91,6.78-1.28,1.75-2.79,3.16-4.54,4.23-1.75,1.06-3.54,1.78-5.34,2.15-1.81.37-3.24.56-4.31.56-6.49,0-10.05-2.18-10.68-6.54.53-.32,1.14-.72,1.83-1.2.69-.48,1.2-.93,1.51-1.36.21,0,.37.21.48.64.53,1.91,1.54,3.56,3.03,4.94,1.49,1.38,3.24,2.07,5.26,2.07.85,0,1.86-.08,3.03-.24,1.17-.16,2.26-.53,3.27-1.12,1.01-.58,1.89-1.41,2.63-2.47.74-1.06,1.12-2.5,1.12-4.31,0-1.38-.27-2.66-.8-3.83-.53-1.17-1.12-2.23-1.75-3.19-.64-1.06-1.28-2.12-1.91-3.19-.64-1.06-.96-2.23-.96-3.51s.45-2.66,1.35-4.15c.9-1.49,2.05-2.84,3.43-4.07,1.38-1.22,2.9-2.26,4.54-3.11,1.65-.85,3.27-1.28,4.86-1.28,1.7,0,2.55.53,2.55,1.59-.32.53-.64,1.14-.96,1.83-.32.69-.58,1.3-.8,1.83Z"/>
        <path class="cls-2" d="M386.98,62.66c-2.55,3.3-5.48,6.43-8.77,9.41-3.3,2.98-6.33,5.37-9.09,7.18-2.13,1.38-4.3,2.45-6.54,3.19-2.23.74-4.25,1.12-6.06,1.12-.64,0-1.38-.05-2.23-.16-.85-.1-1.62-.37-2.31-.8-.69-.42-1.28-.98-1.75-1.67-.48-.69-.72-1.62-.72-2.79,0-1.38.53-3.27,1.59-5.66,1.06-2.39,2.31-4.86,3.75-7.41,1.43-2.55,2.87-5,4.3-7.33,1.44-2.34,2.58-4.09,3.43-5.26.53-.85,1.46-1.57,2.79-2.15,1.33-.58,2.21-.88,2.63-.88.53,0,.8.16.8.48,0,.21-.08.53-.24.96-.16.43-.35.74-.56.96-1.38,2.13-2.79,4.46-4.23,7.02-1.43,2.55-2.74,5.02-3.91,7.41-1.17,2.39-2.1,4.6-2.79,6.62-.69,2.02-1.04,3.61-1.04,4.78,0,1.28.34,2.21,1.04,2.79.69.59,1.62.88,2.79.88,2.12,0,4.46-.72,7.02-2.15,2.55-1.44,5.08-3.16,7.57-5.18,2.5-2.02,4.81-4.15,6.94-6.38,2.12-2.23,3.77-4.15,4.94-5.74.53-.53.82-.66.88-.4.05.27-.03.67-.24,1.2ZM379.8,27.11c0,1.28-.56,2.55-1.67,3.83-1.12,1.28-2.37,1.91-3.75,1.91-1.28,0-1.91-.64-1.91-1.91,0-1.38.5-2.71,1.51-3.99,1.01-1.28,2.26-1.91,3.75-1.91,1.38,0,2.07.69,2.07,2.07Z"/>
        <path class="cls-2" d="M436.89,56.45c-1.81,2.45-4.01,4.65-6.62,6.62-2.61,1.97-5.56,2.95-8.85,2.95-1.81,0-3.59-.45-5.34-1.36-1.75-.9-3.16-2.26-4.23-4.07-.74,1.7-1.7,3.64-2.87,5.82-1.17,2.18-2.55,4.36-4.15,6.54-1.59,2.18-3.38,4.17-5.34,5.98-1.97,1.81-4.07,3.3-6.3,4.46-1.91.85-3.51,1.28-4.78,1.28-3.83,0-5.74-1.7-5.74-5.1,0-1.91.34-3.88,1.04-5.9.69-2.02,1.57-3.99,2.63-5.9s2.21-3.72,3.43-5.42c1.22-1.7,2.36-3.08,3.43-4.15,2.23-2.44,4.78-4.52,7.65-6.22,2.87-1.7,5.95-2.71,9.25-3.03.21-.85.53-1.83.96-2.95.42-1.12,1.17-1.78,2.23-1.99.53-.1,1.06-.21,1.59-.32.53-.1,1.01-.26,1.43-.48.32-.21.64-.24.96-.08.32.16.37.45.16.88-.75,1.17-1.3,2.66-1.67,4.46-.37,1.81-.56,3.77-.56,5.9,0,2.98.56,5.42,1.67,7.33s3.05,2.87,5.82,2.87,5.26-.9,7.49-2.71c2.23-1.81,4.09-3.77,5.58-5.9.21-.53.56-.69,1.04-.48.48.21.5.53.08.96ZM410.58,57.56c-.21-.96-.37-2.07-.48-3.35-.11-1.28-.16-2.5-.16-3.67,0-.53-.21-.8-.64-.8-1.17,0-2.39.4-3.67,1.2-1.28.8-2.55,1.86-3.83,3.19-1.28,1.33-2.55,2.84-3.83,4.54-1.28,1.7-2.45,3.46-3.51,5.26-1.38,2.34-2.63,4.86-3.75,7.57-1.12,2.71-1.62,5.29-1.51,7.73,0,.74.13,1.44.4,2.07.26.64.88.96,1.83.96,1.81,0,3.77-1.01,5.9-3.03,2.13-2.02,4.15-4.38,6.06-7.1s3.53-5.45,4.86-8.21c1.33-2.76,2.1-4.89,2.31-6.38Z"/>
        <path class="cls-2" d="M478.98,62.98c-1.91,2.66-4.12,5.34-6.62,8.05-2.5,2.71-5.16,5.13-7.97,7.26-2.82,2.13-5.69,3.88-8.61,5.26-2.93,1.38-5.77,2.07-8.53,2.07-1.28,0-2.45-.19-3.51-.56-1.06-.37-1.59-1.3-1.59-2.79s.53-3.37,1.59-5.66c1.06-2.28,2.31-4.7,3.75-7.25s2.92-5.15,4.46-7.81c1.54-2.66,2.79-5.1,3.75-7.33.21-.53.24-.98.08-1.36-.16-.37-.51-.4-1.04-.08-1.17.74-2.55,1.75-4.15,3.03s-3.22,2.63-4.86,4.07c-1.65,1.44-3.24,2.9-4.78,4.39-1.54,1.49-2.79,2.82-3.75,3.99-1.7,2.66-3.16,5.1-4.38,7.33-1.22,2.23-2.74,4.73-4.54,7.49-.43.64-.74.96-.96.96-.53,0-.98-.58-1.35-1.75-.37-1.17-.56-1.91-.56-2.23,0-.96.66-2.26,1.99-3.91,1.33-1.65,2.79-3.48,4.38-5.5,1.7-3.4,3.45-6.99,5.26-10.76,1.81-3.77,3.35-7.15,4.62-10.12.32-.53.8-.8,1.43-.8s1.22.27,1.75.8c.53.53.8,1.12.8,1.75,0,.43-.77,1.89-2.31,4.39-1.54,2.5-3.06,5.4-4.54,8.69,2.02-1.81,4.23-3.72,6.62-5.74,2.39-2.02,4.68-3.88,6.86-5.58,2.18-1.7,4.09-3.11,5.74-4.23,1.65-1.12,2.79-1.67,3.43-1.67.42,0,.82.24,1.2.72.37.48.56.93.56,1.36s-.27,1.06-.8,1.91c-1.17,1.7-2.61,3.88-4.31,6.54-1.7,2.66-3.32,5.4-4.86,8.21-1.54,2.82-2.84,5.5-3.91,8.05-1.06,2.55-1.59,4.57-1.59,6.06,0,1.28.26,2.15.8,2.63.53.48,1.38.72,2.55.72,1.81,0,3.93-.69,6.38-2.07,2.44-1.38,4.97-3.11,7.57-5.18,2.6-2.07,5.07-4.38,7.41-6.94,2.34-2.55,4.25-5,5.74-7.33.21-.32.53-.4.96-.24.42.16.37.56-.16,1.2Z"/>
      </g>
    </g>
  </g>
</svg>