<?xml version="1.0" encoding="UTF-8"?>
<svg id="_レイヤー_2" data-name="レイヤー 2" xmlns="http://www.w3.org/2000/svg" viewBox="0 0 179.72 105.91">
  <defs>
    <style>
      .cls-1 {
        opacity: .5;
      }

      .cls-2 {
        fill: #be9f6a;
        stroke-width: 0px;
      }
    </style>
  </defs>
  <g id="_モバイル" data-name="モバイル">
    <g class="cls-1">
      <g>
        <path class="cls-2" d="M89.71,13.61c-.07,4.39-1.1,8.68-3.08,12.86-1.98,4.18-4.59,7.9-7.81,11.16-3.23,3.26-6.96,5.88-11.21,7.87-4.25,1.98-8.68,2.98-13.29,2.98-2.76,0-5.33-.21-7.71-.64-2.38-.43-4.43-1.17-6.17-2.23-1.74-1.06-3.12-2.48-4.15-4.25-1.03-1.77-1.54-4-1.54-6.7,0-2.27.41-4.66,1.22-7.18.81-2.51,1.86-4.98,3.14-7.39,1.28-2.41,2.73-4.68,4.36-6.8,1.63-2.13,3.22-3.9,4.78-5.31,3.05-2.76,6.48-4.78,10.31-6.06,3.83-1.28,7.76-1.91,11.8-1.91,2.2,0,4.45.21,6.75.64,2.3.43,4.39,1.15,6.27,2.18,1.88,1.03,3.42,2.41,4.62,4.15,1.2,1.74,1.77,3.95,1.7,6.64ZM84.39,12.86c0-2.2-.36-4.06-1.06-5.58-.71-1.52-1.67-2.76-2.87-3.72-1.21-.96-2.66-1.66-4.36-2.13-1.7-.46-3.58-.69-5.63-.69-3.76,0-7.12.73-10.1,2.18-2.98,1.45-5.71,3.6-8.18,6.43-1.35,1.49-2.75,3.3-4.2,5.42-1.45,2.13-2.78,4.39-3.99,6.8-1.21,2.41-2.2,4.84-2.98,7.28-.78,2.44-1.17,4.73-1.17,6.86,0,2.27.34,4.16,1.01,5.69.67,1.52,1.61,2.73,2.82,3.61,1.2.89,2.64,1.52,4.3,1.91,1.66.39,3.49.58,5.47.58,4.18,0,8.13-1.1,11.85-3.3,3.72-2.2,7-4.98,9.83-8.34,2.83-3.37,5.08-7.09,6.75-11.16,1.67-4.07,2.5-8.03,2.5-11.85Z"/>
        <path class="cls-2" d="M125.74,34.76c-1.21,1.7-2.62,3.49-4.25,5.37-1.63,1.88-3.33,3.6-5.1,5.16-1.77,1.56-3.58,2.85-5.42,3.88-1.84,1.03-3.58,1.54-5.21,1.54-1.21,0-2.14-.32-2.82-.96-.67-.64-1.01-1.63-1.01-2.98,0-.64.09-1.36.27-2.18.18-.81.48-1.72.9-2.71-.43.5-.9,1.08-1.44,1.75-.53.67-1.13,1.31-1.81,1.91-.67.6-1.42,1.1-2.23,1.49-.82.39-1.72.58-2.71.58-.78,0-1.42-.23-1.91-.69-.5-.46-.74-1.19-.74-2.18,0-.57.12-1.28.37-2.13.25-.85.71-2,1.38-3.45.67-1.45,1.59-3.26,2.76-5.42,1.17-2.16,2.67-4.84,4.52-8.03.35-.71.67-1.06.96-1.06.5,0,1.01.3,1.54.9.53.6.8,1.01.8,1.22s-.21.64-.64,1.28c-1.13,1.7-2.2,3.4-3.19,5.1-.99,1.7-1.86,3.3-2.6,4.78-.74,1.49-1.35,2.82-1.81,3.99-.46,1.17-.69,2.07-.69,2.71,0,1.06.39,1.59,1.17,1.59.71,0,1.68-.55,2.92-1.65,1.24-1.1,2.71-2.96,4.41-5.58.64-1.13,1.29-2.32,1.97-3.56.67-1.24,1.33-2.43,1.97-3.56.64-1.13,1.24-2.18,1.81-3.14.57-.96.99-1.68,1.28-2.18.35-.49.64-.74.85-.74.28,0,.6.3.96.9.35.6.53,1.33.53,2.18,0,.57-.14,1.1-.43,1.59-.85,1.28-1.75,2.53-2.71,3.77-.96,1.24-1.84,2.53-2.66,3.88-.82,1.35-1.51,2.76-2.07,4.25-.57,1.49-.85,3.12-.85,4.89,0,1.56.74,2.34,2.23,2.34.99,0,2.18-.37,3.56-1.12,1.38-.74,2.89-1.79,4.52-3.14,1.63-1.35,3.31-2.98,5.05-4.89,1.74-1.91,3.38-4,4.94-6.27.42-.14.64.04.64.53Z"/>
        <path class="cls-2" d="M147.53,25.83c-.43.5-.87,1.1-1.33,1.81-.46.71-.76,1.24-.9,1.59-.07.21-.21.32-.43.32-.07,0-.18-.11-.32-.32-.14-.21-.34-.44-.58-.69-.25-.25-.58-.48-1.01-.69-.42-.21-1.03-.32-1.81-.32-.92,0-1.95.32-3.08.96-1.13.64-2.13,1.35-2.98,2.13-1.35,1.13-2.53,2.38-3.56,3.72-1.03,1.35-2,2.75-2.92,4.2-.92,1.45-1.81,2.94-2.66,4.46-.85,1.52-1.77,3.07-2.76,4.62-.07.21-.28.32-.64.32-.14,0-.44-.21-.9-.64-.46-.43-.69-.74-.69-.96,0-.43.25-1.06.74-1.91,1.13-1.98,2.29-3.99,3.46-6.01,1.17-2.02,2.27-3.91,3.29-5.69,1.03-1.77,1.93-3.31,2.71-4.62.78-1.31,1.31-2.29,1.59-2.92.35-.64.6-.96.74-.96s.5.18,1.06.53c.57.36.85.85.85,1.49,0,.21-.12.57-.37,1.06-.25.5-.53,1.01-.85,1.54s-.62,1.05-.9,1.54c-.28.5-.5.85-.64,1.06-.21.36-.25.53-.11.53s.32-.11.53-.32c.71-.71,1.58-1.49,2.6-2.34,1.03-.85,2.11-1.65,3.24-2.39,1.13-.74,2.25-1.36,3.35-1.86,1.1-.49,2.07-.74,2.92-.74.64,0,1.19.16,1.65.48.46.32.69.66.69,1.01Z"/>
        <path class="cls-2" d="M18.8,98.36c3.76-3.76,7.58-7.72,11.48-11.91,3.9-4.18,7.6-8.27,11.11-12.28,3.51-4,6.62-7.74,9.35-11.21,2.73-3.47,4.8-6.34,6.22-8.61,1.13-1.7,1.7-3.12,1.7-4.25,0-.21-.04-.43-.11-.64-.07-.21-.11-.39-.11-.53,0-.28.07-.43.21-.43.21,0,.39.11.53.32.35.36.78.89,1.28,1.59.49.71.74,1.28.74,1.7,0,.5-.11,1.03-.32,1.59-.21.57-.67,1.35-1.38,2.34-.71.99-1.7,2.25-2.98,3.77-1.28,1.52-3.01,3.49-5.21,5.9-2.2,2.41-4.89,5.33-8.08,8.77-3.19,3.44-7.02,7.53-11.48,12.28-1.06,1.06-2.3,2.32-3.72,3.77-1.42,1.45-2.82,2.96-4.2,4.52-1.38,1.56-2.66,3.07-3.83,4.52-1.17,1.45-2,2.68-2.5,3.67-.5.92-1.21,1.38-2.13,1.38-1.35.07-2.36.3-3.03.69-.67.39-1.22.58-1.65.58-.28,0-.43-.14-.43-.43,0-.21.14-.6.43-1.17.28-.57.57-1.24.85-2.02.92-2.76,1.77-5.83,2.55-9.19.78-3.37,1.43-6.61,1.97-9.73.53-3.12.96-5.9,1.28-8.34.32-2.44.48-4.13.48-5.05,0-1.28-.07-2.53-.21-3.77-.14-1.24-.48-2.34-1.01-3.3-.53-.96-1.31-1.74-2.34-2.34-1.03-.6-2.43-.9-4.2-.9-1.42,0-3,.27-4.73.8-1.74.53-3.1,1.29-4.09,2.29-.57.57-.96.67-1.17.32-.21-.35-.07-.71.42-1.06,2.05-1.42,4.5-2.59,7.33-3.51,2.83-.92,5.49-1.38,7.97-1.38,2.62,0,4.41.73,5.37,2.18.96,1.45,1.44,3.31,1.44,5.58,0,2.41-.23,5.17-.69,8.29-.46,3.12-.99,6.25-1.59,9.41-.6,3.15-1.13,6.1-1.59,8.82-.46,2.73-.69,4.94-.69,6.64,0,.36.07.53.21.53.21,0,.39-.07.53-.21Z"/>
        <path class="cls-2" d="M73.02,90.28c-1.7,2.2-3.65,4.29-5.85,6.27-2.2,1.98-4.22,3.58-6.06,4.78-1.42.92-2.87,1.63-4.36,2.13-1.49.5-2.83.74-4.04.74-.43,0-.92-.03-1.49-.11-.57-.07-1.08-.25-1.54-.53-.46-.28-.85-.65-1.17-1.12-.32-.46-.48-1.08-.48-1.86,0-.92.35-2.18,1.06-3.77.71-1.59,1.54-3.24,2.5-4.94.96-1.7,1.91-3.33,2.87-4.89.96-1.56,1.72-2.73,2.29-3.51.35-.57.97-1.04,1.86-1.44.88-.39,1.47-.58,1.75-.58.35,0,.53.11.53.32,0,.14-.05.36-.16.64-.11.28-.23.5-.37.64-.92,1.42-1.86,2.98-2.82,4.68-.96,1.7-1.83,3.35-2.6,4.94-.78,1.59-1.4,3.07-1.86,4.41-.46,1.35-.69,2.41-.69,3.19,0,.85.23,1.47.69,1.86.46.39,1.08.58,1.86.58,1.42,0,2.98-.48,4.68-1.44,1.7-.96,3.38-2.11,5.05-3.45,1.67-1.35,3.21-2.76,4.62-4.25,1.42-1.49,2.51-2.76,3.3-3.83.35-.35.55-.44.58-.27.04.18-.02.44-.16.8ZM68.23,66.58c0,.85-.37,1.7-1.12,2.55-.74.85-1.58,1.28-2.5,1.28-.85,0-1.28-.43-1.28-1.28,0-.92.33-1.81,1.01-2.66.67-.85,1.5-1.28,2.5-1.28.92,0,1.38.46,1.38,1.38Z"/>
        <path class="cls-2" d="M86.3,84.76c-.21.36-.39.39-.53.11-.43-.92-1.31-1.38-2.66-1.38-.99,0-1.98.28-2.98.85-.99.57-1.49,1.42-1.49,2.55,0,.57.18,1.13.53,1.7.35.57.85,1.31,1.49,2.23.57.85,1.1,1.7,1.59,2.55.49.85.74,1.74.74,2.66,0,1.84-.43,3.35-1.28,4.52-.85,1.17-1.86,2.11-3.03,2.82-1.17.71-2.36,1.19-3.56,1.44-1.21.25-2.16.37-2.87.37-4.32,0-6.7-1.45-7.12-4.36.36-.21.76-.48,1.22-.8.46-.32.8-.62,1.01-.9.14,0,.25.14.32.43.35,1.28,1.03,2.38,2.02,3.3.99.92,2.16,1.38,3.51,1.38.57,0,1.24-.05,2.02-.16.78-.11,1.5-.35,2.18-.74.67-.39,1.26-.94,1.75-1.65.5-.71.74-1.66.74-2.87,0-.92-.18-1.77-.53-2.55-.36-.78-.74-1.49-1.17-2.13-.42-.71-.85-1.42-1.28-2.13-.42-.71-.64-1.49-.64-2.34s.3-1.77.9-2.76c.6-.99,1.36-1.9,2.29-2.71.92-.81,1.93-1.5,3.03-2.07,1.1-.57,2.18-.85,3.24-.85,1.13,0,1.7.36,1.7,1.06-.21.36-.42.76-.64,1.22-.21.46-.39.87-.53,1.22Z"/>
        <path class="cls-2" d="M118.09,90.28c-1.7,2.2-3.65,4.29-5.85,6.27-2.2,1.98-4.22,3.58-6.06,4.78-1.42.92-2.87,1.63-4.36,2.13-1.49.5-2.84.74-4.04.74-.42,0-.92-.03-1.49-.11-.57-.07-1.08-.25-1.54-.53-.46-.28-.85-.65-1.17-1.12-.32-.46-.48-1.08-.48-1.86,0-.92.35-2.18,1.06-3.77.71-1.59,1.54-3.24,2.5-4.94.96-1.7,1.91-3.33,2.87-4.89.96-1.56,1.72-2.73,2.29-3.51.35-.57.97-1.04,1.86-1.44.89-.39,1.47-.58,1.75-.58.35,0,.53.11.53.32,0,.14-.05.36-.16.64-.11.28-.23.5-.37.64-.92,1.42-1.86,2.98-2.82,4.68-.96,1.7-1.83,3.35-2.6,4.94-.78,1.59-1.4,3.07-1.86,4.41-.46,1.35-.69,2.41-.69,3.19,0,.85.23,1.47.69,1.86.46.39,1.08.58,1.86.58,1.42,0,2.98-.48,4.68-1.44,1.7-.96,3.38-2.11,5.05-3.45,1.66-1.35,3.21-2.76,4.62-4.25,1.42-1.49,2.51-2.76,3.29-3.83.35-.35.55-.44.58-.27.04.18-.02.44-.16.8ZM113.3,66.58c0,.85-.37,1.7-1.12,2.55-.74.85-1.58,1.28-2.5,1.28-.85,0-1.28-.43-1.28-1.28,0-.92.34-1.81,1.01-2.66.67-.85,1.5-1.28,2.5-1.28.92,0,1.38.46,1.38,1.38Z"/>
        <path class="cls-2" d="M151.36,86.14c-1.21,1.63-2.68,3.1-4.41,4.41-1.74,1.31-3.7,1.97-5.9,1.97-1.21,0-2.39-.3-3.56-.9-1.17-.6-2.11-1.5-2.82-2.71-.5,1.13-1.13,2.43-1.91,3.88-.78,1.45-1.7,2.91-2.76,4.36-1.06,1.45-2.25,2.78-3.56,3.99-1.31,1.21-2.71,2.2-4.2,2.98-1.28.57-2.34.85-3.19.85-2.55,0-3.83-1.13-3.83-3.4,0-1.28.23-2.59.69-3.93.46-1.35,1.04-2.66,1.75-3.93.71-1.28,1.47-2.48,2.29-3.61.81-1.13,1.58-2.05,2.29-2.76,1.49-1.63,3.19-3.01,5.1-4.15,1.91-1.13,3.97-1.81,6.17-2.02.14-.57.35-1.22.64-1.97s.78-1.19,1.49-1.33c.35-.07.71-.14,1.06-.21.35-.07.67-.18.96-.32.21-.14.42-.16.64-.05.21.11.25.3.11.58-.5.78-.87,1.77-1.12,2.98-.25,1.21-.37,2.52-.37,3.93,0,1.98.37,3.61,1.12,4.89.74,1.28,2.04,1.91,3.88,1.91s3.51-.6,5-1.81c1.49-1.2,2.73-2.51,3.72-3.93.14-.35.37-.46.69-.32.32.14.33.36.05.64ZM133.82,86.88c-.14-.64-.25-1.38-.32-2.23-.07-.85-.11-1.66-.11-2.44,0-.35-.14-.53-.43-.53-.78,0-1.59.27-2.44.8-.85.53-1.7,1.24-2.55,2.13-.85.89-1.7,1.9-2.55,3.03-.85,1.13-1.63,2.3-2.34,3.51-.92,1.56-1.75,3.24-2.5,5.05s-1.08,3.53-1.01,5.16c0,.5.09.96.27,1.38.18.43.58.64,1.22.64,1.2,0,2.51-.67,3.93-2.02,1.42-1.35,2.76-2.92,4.04-4.73,1.28-1.81,2.35-3.63,3.24-5.47.88-1.84,1.4-3.26,1.54-4.25Z"/>
        <path class="cls-2" d="M179.42,90.5c-1.28,1.77-2.75,3.56-4.41,5.37-1.67,1.81-3.44,3.42-5.31,4.84-1.88,1.42-3.79,2.59-5.74,3.51-1.95.92-3.85,1.38-5.69,1.38-.85,0-1.63-.12-2.34-.37-.71-.25-1.06-.87-1.06-1.86s.35-2.25,1.06-3.77c.71-1.52,1.54-3.14,2.5-4.84.96-1.7,1.95-3.44,2.98-5.21,1.03-1.77,1.86-3.4,2.5-4.89.14-.35.16-.65.05-.9-.11-.25-.34-.27-.69-.05-.78.5-1.7,1.17-2.76,2.02-1.06.85-2.14,1.75-3.24,2.71-1.1.96-2.16,1.93-3.19,2.92-1.03.99-1.86,1.88-2.5,2.66-1.13,1.77-2.11,3.4-2.92,4.89-.82,1.49-1.83,3.15-3.03,5-.28.43-.5.64-.64.64-.36,0-.66-.39-.9-1.17-.25-.78-.37-1.28-.37-1.49,0-.64.44-1.5,1.33-2.6.89-1.1,1.86-2.32,2.92-3.67,1.13-2.27,2.3-4.66,3.51-7.18,1.2-2.51,2.23-4.77,3.08-6.75.21-.35.53-.53.96-.53s.81.18,1.17.53c.35.36.53.74.53,1.17,0,.28-.52,1.26-1.54,2.92-1.03,1.67-2.04,3.6-3.03,5.79,1.35-1.2,2.82-2.48,4.41-3.83,1.59-1.35,3.12-2.59,4.57-3.72,1.45-1.13,2.73-2.07,3.83-2.82,1.1-.74,1.86-1.12,2.29-1.12.28,0,.55.16.8.48.25.32.37.62.37.9s-.18.71-.53,1.28c-.78,1.13-1.74,2.59-2.87,4.36-1.13,1.77-2.22,3.6-3.24,5.47-1.03,1.88-1.9,3.67-2.6,5.37-.71,1.7-1.06,3.05-1.06,4.04,0,.85.18,1.43.53,1.75.35.32.92.48,1.7.48,1.2,0,2.62-.46,4.25-1.38,1.63-.92,3.31-2.07,5.05-3.45,1.74-1.38,3.38-2.92,4.94-4.62,1.56-1.7,2.83-3.33,3.83-4.89.14-.21.35-.27.64-.16.28.11.25.37-.11.8Z"/>
      </g>
    </g>
  </g>
</svg>