<?xml version="1.0" encoding="UTF-8"?>
<svg id="_レイヤー_2" data-name="レイヤー 2" xmlns="http://www.w3.org/2000/svg" viewBox="0 0 1540 18">
  <defs>
    <style>
      .cls-1 {
        fill: none;
        stroke: #be9f6a;
        stroke-miterlimit: 10;
      }

      .cls-2 {
        fill: #be9f6a;
        stroke-width: 0px;
      }
    </style>
  </defs>
  <g id="_モバイル" data-name="モバイル">
    <g>
      <g>
        <path class="cls-2" d="M747.01,4.65c0,.9-.17,1.69-.52,2.38-.35.69-.82,1.26-1.43,1.71-.6.45-1.27.78-1.99.99-.72.21-1.49.31-2.3.31h-1.89v5.21c0,.28.05.53.14.74.09.21.28.38.56.49.14.06.4.11.76.16.36.05.69.08.99.08v.86h-7.25v-.86c.19-.02.47-.04.83-.08.36-.04.61-.09.76-.16.24-.1.41-.26.52-.46.11-.2.16-.46.16-.77V2.86c0-.28-.04-.54-.12-.76s-.27-.4-.56-.51c-.3-.1-.6-.18-.9-.22-.3-.04-.55-.07-.77-.09V.41h7.71c1.57,0,2.85.39,3.83,1.16s1.47,1.8,1.47,3.08ZM743.39,7.58c.27-.39.45-.79.54-1.2.09-.42.13-.79.13-1.12,0-.46-.05-.93-.16-1.4-.11-.48-.29-.89-.55-1.25-.28-.38-.64-.67-1.09-.88s-1.02-.31-1.69-.31h-1.68v7.59h1.21c.86,0,1.55-.14,2.09-.41.54-.27.94-.61,1.21-1.01Z"/>
        <path class="cls-2" d="M762.58,2.45c.74.79,1.33,1.74,1.75,2.86.42,1.12.63,2.35.63,3.71s-.21,2.6-.64,3.72c-.43,1.11-1.02,2.06-1.78,2.84-.74.77-1.59,1.37-2.57,1.79s-2.01.63-3.12.63c-1.17,0-2.26-.22-3.25-.67-1-.45-1.85-1.07-2.56-1.87-.71-.78-1.28-1.73-1.68-2.85s-.61-2.31-.61-3.59c0-1.4.21-2.64.64-3.73.43-1.09,1.02-2.04,1.77-2.84.75-.79,1.61-1.4,2.6-1.82.99-.42,2.02-.63,3.1-.63s2.17.21,3.16.64c.99.43,1.85,1.03,2.57,1.8ZM760.81,14.62c.44-.73.77-1.57.97-2.49.2-.93.3-1.96.3-3.11s-.11-2.26-.34-3.24c-.23-.98-.56-1.82-.99-2.52-.44-.69-.98-1.22-1.64-1.6-.66-.38-1.41-.57-2.26-.57-.95,0-1.76.22-2.43.67-.67.44-1.21,1.04-1.63,1.78-.4.71-.69,1.54-.89,2.49-.19.95-.29,1.95-.29,3,0,1.16.1,2.21.31,3.15.21.94.53,1.77.98,2.49.43.71.97,1.27,1.62,1.66.65.4,1.43.6,2.33.6.85,0,1.61-.2,2.3-.61s1.24-.97,1.67-1.69Z"/>
        <path class="cls-2" d="M774.46,17.59h-7.6v-.86c.21-.02.52-.04.93-.07.4-.03.69-.08.86-.15.26-.1.45-.25.57-.43.12-.18.18-.43.18-.76V2.88c0-.28-.04-.52-.13-.71-.09-.19-.29-.35-.62-.48-.24-.1-.54-.19-.9-.27-.36-.08-.66-.14-.89-.15V.41h7.6v.86c-.25,0-.54.04-.88.09-.34.05-.64.12-.89.2-.3.1-.5.25-.61.47-.1.22-.15.46-.15.73v12.43c0,.27.06.5.17.71.12.21.31.37.59.49.17.06.44.14.81.21.38.08.7.12.96.13v.86Z"/>
        <path class="cls-2" d="M793.9,1.27c-.22,0-.56.07-1.02.19-.46.12-.79.25-.99.38-.29.2-.48.59-.58,1.16-.1.57-.15,1.3-.15,2.18v12.58h-1.04l-10.23-14.05v8.86c0,.99.06,1.75.18,2.29.12.53.31.91.56,1.14.18.18.56.34,1.13.5.57.15.95.23,1.13.24v.86h-6.92v-.86c.21-.02.57-.09,1.08-.24s.82-.27.95-.38c.28-.23.47-.57.57-1.03.1-.46.15-1.26.15-2.38V4.24c0-.37-.06-.74-.19-1.11-.13-.37-.3-.66-.51-.86-.29-.27-.67-.49-1.16-.68s-.88-.29-1.18-.31V.41h4.82l9.49,13.09V5.34c0-1-.06-1.77-.19-2.31-.13-.54-.31-.89-.55-1.07-.22-.15-.58-.3-1.09-.45s-.89-.23-1.15-.24V.41h6.87v.86Z"/>
        <path class="cls-2" d="M809,5.07h-.82c-.07-.29-.2-.64-.39-1.03-.19-.4-.4-.78-.63-1.13-.24-.37-.5-.7-.78-.97-.28-.28-.56-.44-.82-.48-.25-.03-.56-.06-.93-.07-.37-.02-.72-.02-1.04-.02h-.69v13.74c0,.27.06.51.17.73.11.22.31.39.58.51.14.06.44.13.9.23s.81.15,1.06.16v.86h-7.97v-.86c.22-.02.56-.05,1.02-.1.46-.05.77-.11.95-.18.26-.1.45-.26.58-.45.12-.2.18-.46.18-.79V1.36h-.69c-.25,0-.55,0-.92.02-.37.01-.71.04-1.05.08-.26.03-.53.19-.82.48s-.54.61-.78.97-.45.75-.63,1.16c-.18.41-.31.74-.38,1.01h-.83V.41h14.72v4.66Z"/>
      </g>
      <g>
        <line class="cls-1" x1="0" y1="9" x2="700" y2="9"/>
        <polyline class="cls-1" points="696 13 694 9 696 5"/>
        <polyline class="cls-1" points="699 13 697 9 699 5"/>
        <polyline class="cls-1" points="702 13 700 9 702 5"/>
      </g>
      <g>
        <line class="cls-1" x1="1540" y1="9" x2="840" y2="9"/>
        <polyline class="cls-1" points="844 5 846 9 844 13"/>
        <polyline class="cls-1" points="841 5 843 9 841 13"/>
        <polyline class="cls-1" points="838 5 840 9 838 13"/>
      </g>
    </g>
  </g>
</svg>