<?xml version="1.0" encoding="UTF-8"?>
<svg id="_レイヤー_2" data-name="レイヤー 2" xmlns="http://www.w3.org/2000/svg" viewBox="0 0 463.56 241.41">
  <defs>
    <style>

      .cls-3, .cls-4 {
        font-family: SourceHanSansJP-Bold-83pv-RKSJ-H, 'Source Han Sans JP';
        font-size: 15.59px;
        font-weight: 700;
      }

      .cls-3, .cls-4, .cls-5 {
        fill: #fff;
      }

      .cls-10, .cls-11, .cls-12, .cls-5 {
        stroke-width: 0px;
      }

      .cls-11 {
        fill: #be9f6a;
      }

      .cls-12 {
        fill: #666;
      }
    </style>
  </defs>
  <g id="pc">
    <g>
      <text class="cls-4" x="342" y="60">ホテル</text>
      <text class="cls-4" x="24" y="216">ドクター</text>
      <text class="cls-3" x="342" y="192">東京23区内企業</text>
      <circle class="cls-11" cx="53.11" cy="132.94" r="53.11"/>
      <circle class="cls-12" cx="273.71" cy="53.11" r="53.11"/>
      <g>
        <path class="cls-5" d="M294.39,68.25h1.71c.4,0,.73-.33.73-.73s-.33-.73-.73-.73h-1.71c-.4,0-.73.33-.73.73s.33.73.73.73Z"/>
        <path class="cls-5" d="M271.64,22.43v4.18c0,.4.33.73.73.73s.73-.33.73-.73v-1.36h2.62v1.36c0,.4.33.73.73.73s.73-.33.73-.73v-4.18c0-.4-.33-.73-.73-.73s-.73.33-.73.73v1.36h-2.62v-1.36c0-.4-.33-.73-.73-.73s-.73.33-.73.73Z"/>
        <path class="cls-5" d="M293.66,62.82c0,.4.33.73.73.73h1.71c.4,0,.73-.33.73-.73s-.33-.73-.73-.73h-1.71c-.4,0-.73.33-.73.73Z"/>
        <path class="cls-5" d="M266.19,47.45c-.4,0-.73.33-.73.73v5.47c0,.4.33.73.73.73h5.47c.4,0,.73-.33.73-.73v-5.47c0-.4-.33-.73-.73-.73h-5.47ZM270.93,52.92h-4.01v-4.01h4.01v4.01Z"/>
        <path class="cls-5" d="M271.66,36.65h-5.47c-.4,0-.73.33-.73.73v5.47c0,.4.33.73.73.73h5.47c.4,0,.73-.33.73-.73v-5.47c0-.4-.33-.73-.73-.73ZM270.93,42.12h-4.01v-4.01h4.01v4.01Z"/>
        <path class="cls-5" d="M293.66,58.29c0,.4.33.73.73.73h1.71c.4,0,.73-.33.73-.73s-.33-.73-.73-.73h-1.71c-.4,0-.73.33-.73.73Z"/>
        <path class="cls-5" d="M276.99,47.45c-.4,0-.73.33-.73.73v5.47c0,.4.33.73.73.73h5.47c.4,0,.73-.33.73-.73v-5.47c0-.4-.33-.73-.73-.73h-5.47ZM281.73,52.92h-4.01v-4.01h4.01v4.01Z"/>
        <path class="cls-5" d="M282.46,36.65h-5.47c-.4,0-.73.33-.73.73v5.47c0,.4.33.73.73.73h5.47c.4,0,.73-.33.73-.73v-5.47c0-.4-.33-.73-.73-.73ZM281.73,42.12h-4.01v-4.01h4.01v4.01Z"/>
        <path class="cls-5" d="M296.1,49.98c.4,0,.73-.33.73-.73s-.33-.73-.73-.73h-1.71c-.4,0-.73.33-.73.73s.33.73.73.73h1.71Z"/>
        <path class="cls-5" d="M293.66,53.77c0,.4.33.73.73.73h1.71c.4,0,.73-.33.73-.73s-.33-.73-.73-.73h-1.71c-.4,0-.73.33-.73.73Z"/>
        <path class="cls-5" d="M303.95,83.81c.4,0,.73-.33.73-.73v-4.39c0-.4-.33-.73-.73-.73h-2.23v-33.63c0-.4-.33-.73-.73-.73h-10.76v-11.48h2.35c.4,0,.73-.33.73-.73v-6.93c0-.4-.33-.73-.73-.73h-10.59l-.11-.58c-.28-1.51-1.01-2.9-2.11-3.99-1.44-1.44-3.34-2.23-5.36-2.23s-3.93.79-5.37,2.23c-1.1,1.1-1.82,2.48-2.1,3.99l-.11.58h-10.59c-.4,0-.73.33-.73.73v6.93c0,.4.33.73.73.73h2.19v11.48h-10.95c-.4,0-.73.33-.73.73v33.63h-3.27c-.4,0-.73.33-.73.73v4.39c0,.4.33.73.73.73h60.47ZM300.26,45.06v32.9h-10.03v-32.9h10.03ZM281.9,25.78l.1-.59h9.85v5.47h-12.71l1.01-1.17c.92-1.06,1.52-2.34,1.75-3.71ZM285.76,58.25h-22.86c-.4,0-.73.33-.73.73s.33.73.73.73h2.37v18.25h-5.38v-45.84h28.89v45.84h-5.38v-18.25h2.37c.4,0,.73-.33.73-.73s-.33-.73-.73-.73ZM281.93,59.71v18.25h-6.87v-18.25h6.87ZM273.6,59.71v18.25h-6.87v-18.25h6.87ZM270.06,20.18c1.16-1.16,2.7-1.79,4.34-1.79s3.18.64,4.34,1.79c2.39,2.39,2.39,6.29,0,8.68-1.16,1.16-2.7,1.79-4.34,1.79s-3.18-.64-4.34-1.8c-2.38-2.46-2.35-6.33,0-8.68ZM256.97,30.66v-5.47h9.85l.1.59c.23,1.37.83,2.65,1.75,3.71l1.01,1.17h-12.71ZM248.2,45.06h10.22v32.9h-10.22v-32.9ZM244.2,79.42h59.01v2.93h-59.01v-2.93Z"/>
        <path class="cls-5" d="M252.55,66.79c-.4,0-.73.33-.73.73s.33.73.73.73h1.71c.4,0,.73-.33.73-.73s-.33-.73-.73-.73h-1.71Z"/>
        <path class="cls-5" d="M254.26,48.52h-1.71c-.4,0-.73.33-.73.73s.33.73.73.73h1.71c.4,0,.73-.33.73-.73s-.33-.73-.73-.73Z"/>
        <path class="cls-5" d="M254.26,62.09h-1.71c-.4,0-.73.33-.73.73s.33.73.73.73h1.71c.4,0,.73-.33.73-.73s-.33-.73-.73-.73Z"/>
        <path class="cls-5" d="M254.26,53.04h-1.71c-.4,0-.73.33-.73.73s.33.73.73.73h1.71c.4,0,.73-.33.73-.73s-.33-.73-.73-.73Z"/>
        <path class="cls-5" d="M254.26,57.57h-1.71c-.4,0-.73.33-.73.73s.33.73.73.73h1.71c.4,0,.73-.33.73-.73s-.33-.73-.73-.73Z"/>
      </g>
      <circle class="cls-12" cx="273.71" cy="188.3" r="53.11"/>
      <g>
        <path class="cls-5" d="M298.9,193.2c0,.54.44.98.98.98h1.54c.54,0,.98-.44.98-.98s-.44-.98-.98-.98h-1.54c-.54,0-.98.44-.98.98Z"/>
        <path class="cls-5" d="M298.9,200.69c0,.54.44.98.98.98h1.54c.54,0,.98-.44.98-.98s-.44-.98-.98-.98h-1.54c-.54,0-.98.44-.98.98Z"/>
        <path class="cls-5" d="M298.9,208.19c0,.54.44.98.98.98h1.54c.54,0,.98-.44.98-.98s-.44-.98-.98-.98h-1.54c-.54,0-.98.44-.98.98Z"/>
        <path class="cls-5" d="M278.95,171.69c.54,0,.98-.44.98-.98s-.44-.98-.98-.98h-1.54c-.54,0-.98.44-.98.98s.44.98.98.98h1.54Z"/>
        <path class="cls-5" d="M277.4,194.17h1.54c.54,0,.98-.44.98-.98s-.44-.98-.98-.98h-1.54c-.54,0-.98.44-.98.98s.44.98.98.98Z"/>
        <path class="cls-5" d="M276.43,185.7c0,.54.44.98.98.98h1.54c.54,0,.98-.44.98-.98s-.44-.98-.98-.98h-1.54c-.54,0-.98.44-.98.98Z"/>
        <path class="cls-5" d="M291.7,208.19c0,.54.44.98.98.98h1.54c.54,0,.98-.44.98-.98s-.44-.98-.98-.98h-1.54c-.54,0-.98.44-.98.98Z"/>
        <path class="cls-5" d="M291.7,193.2c0,.54.44.98.98.98h1.54c.54,0,.98-.44.98-.98s-.44-.98-.98-.98h-1.54c-.54,0-.98.44-.98.98Z"/>
        <path class="cls-5" d="M291.7,200.69c0,.54.44.98.98.98h1.54c.54,0,.98-.44.98-.98s-.44-.98-.98-.98h-1.54c-.54,0-.98.44-.98.98Z"/>
        <path class="cls-5" d="M298.9,185.7c0,.54.44.98.98.98h1.54c.54,0,.98-.44.98-.98s-.44-.98-.98-.98h-1.54c-.54,0-.98.44-.98.98Z"/>
        <path class="cls-5" d="M270.21,194.17h1.54c.54,0,.98-.44.98-.98s-.44-.98-.98-.98h-1.54c-.54,0-.98.44-.98.98s.44.98.98.98Z"/>
        <path class="cls-5" d="M301.42,179.18c.54,0,.98-.44.98-.98s-.44-.98-.98-.98h-1.54c-.54,0-.98.44-.98.98s.44.98.98.98h1.54Z"/>
        <path class="cls-5" d="M294.22,177.23h-1.54c-.54,0-.98.44-.98.98s.44.98.98.98h1.54c.54,0,.98-.44.98-.98s-.44-.98-.98-.98Z"/>
        <path class="cls-5" d="M291.7,185.7c0,.54.44.98.98.98h1.54c.54,0,.98-.44.98-.98s-.44-.98-.98-.98h-1.54c-.54,0-.98.44-.98.98Z"/>
        <path class="cls-5" d="M276.43,178.21c0,.54.44.98.98.98h1.54c.54,0,.98-.44.98-.98s-.44-.98-.98-.98h-1.54c-.54,0-.98.44-.98.98Z"/>
        <path class="cls-5" d="M256.44,186.68c.54,0,.98-.44.98-.98s-.44-.98-.98-.98h-1.54c-.54,0-.98.44-.98.98s.44.98.98.98h1.54Z"/>
        <path class="cls-5" d="M246.73,193.2c0,.54.44.98.98.98h1.54c.54,0,.98-.44.98-.98s-.44-.98-.98-.98h-1.54c-.54,0-.98.44-.98.98Z"/>
        <path class="cls-5" d="M253.92,193.2c0,.54.44.98.98.98h1.54c.54,0,.98-.44.98-.98s-.44-.98-.98-.98h-1.54c-.54,0-.98.44-.98.98Z"/>
        <path class="cls-5" d="M249.25,184.73h-1.54c-.54,0-.98.44-.98.98s.44.98.98.98h1.54c.54,0,.98-.44.98-.98s-.44-.98-.98-.98Z"/>
        <path class="cls-5" d="M253.92,200.69c0,.54.44.98.98.98h1.54c.54,0,.98-.44.98-.98s-.44-.98-.98-.98h-1.54c-.54,0-.98.44-.98.98Z"/>
        <path class="cls-5" d="M242.17,180.49v32.71h-3.81c-.54,0-.98.44-.98.98s.44.98.98.98h72.42c.54,0,.98-.44.98-.98s-.44-.98-.98-.98h-3.82v-42.73c0-.37-.22-.71-.55-.87l-17.72-8.7c-.36-.22-.73-.23-1.04-.05-.15.08-.5.33-.5.85v51.5h-2.68v-58.96c0-.52-.35-.77-.51-.85-.32-.18-.69-.16-.99.03l-17.81,10c-.31.17-.5.5-.5.85v48.94h-2.68v-39.48c0-.34-.17-.64-.45-.82-.28-.18-.63-.2-.93-.06l-17.79,6.74c-.38.14-.63.51-.64.91ZM289.1,163.26l15.91,7.81v42.1h-15.91v-49.91ZM276.67,213.17h-4.22v-11.66h4.22v11.66ZM266.61,164.82l15.91-8.93v57.3h-3.89v-12.66c0-.54-.44-.98-.98-.98h-6.17c-.54,0-.98.44-.98.98v12.66h-3.89v-48.37ZM244.12,181.15l15.91-6.03v38.07h-15.91v-32.05Z"/>
        <path class="cls-5" d="M253.92,208.19c0,.54.44.98.98.98h1.54c.54,0,.98-.44.98-.98s-.44-.98-.98-.98h-1.54c-.54,0-.98.44-.98.98Z"/>
        <path class="cls-5" d="M271.75,177.23h-1.54c-.54,0-.98.44-.98.98s.44.98.98.98h1.54c.54,0,.98-.44.98-.98s-.44-.98-.98-.98Z"/>
        <path class="cls-5" d="M246.73,200.69c0,.54.44.98.98.98h1.54c.54,0,.98-.44.98-.98s-.44-.98-.98-.98h-1.54c-.54,0-.98.44-.98.98Z"/>
        <path class="cls-5" d="M271.75,184.72h-1.54c-.54,0-.98.44-.98.98s.44.98.98.98h1.54c.54,0,.98-.44.98-.98s-.44-.98-.98-.98Z"/>
        <path class="cls-5" d="M271.75,169.73h-1.54c-.54,0-.98.44-.98.98s.44.98.98.98h1.54c.54,0,.98-.44.98-.98s-.44-.98-.98-.98Z"/>
        <path class="cls-5" d="M246.73,208.19c0,.54.44.98.98.98h1.54c.54,0,.98-.44.98-.98s-.44-.98-.98-.98h-1.54c-.54,0-.98.44-.98.98Z"/>
      </g>
      <g>
        <path class="cls-10" d="M89.18,164.15s.01.08.02.14c0-.06-.01-.1-.02-.14Z"/>
        <path class="cls-10" d="M89.24,164.65c0-.05-.01-.1-.02-.15,0,.04.01.1.02.15Z"/>
        <path class="cls-10" d="M89.18,164.15c-.01-.1-.01-.09,0,0h0Z"/>
        <path class="cls-10" d="M89.2,164.29c0,.06.02.13.03.21-.01-.08-.02-.15-.03-.21Z"/>
        <path class="cls-10" d="M89.24,164.65c.02.16.05.37.08.61-.03-.2-.06-.42-.08-.61Z"/>
        <path class="cls-10" d="M52.15,139.4c-2.68-.08.08,0,0,0h0Z"/>
        <path class="cls-10" d="M90.56,195.68c-.17-1.55-1.16-29.91-1.16-29.91,0,0,0,0,0,0,0-.01,0-.03,0-.04-.37-2.73-.75-5.45-1.19-8.17-.17-1.04-.35-2.09-.57-3.12-.21-1-.46-2.05-.99-2.94-.23-.4-14.03-7.11-17.49-8.58-.16-.3-.33-.58-.53-.84,0,0,0,0,0,0-1.88-2.57-5.4-3.7-5.4-3.7,0,0-.04-3.06-.11-5.35.99-1.12,1.66-2.01,1.84-2.28l.1-.14.08-.16c.03-.07.67-1.44,1.2-3.29,1.66-.4,2.8-1.85,3.5-3.33.95-1.99,1.56-4.47.55-6.56v-.03c.01-.38,0-.77,0-1.16,0-.04,0-.08,0-.11,0-.12-.02-.23-.02-.33,0-.04,0-.07,0-.1h0c0-.06-.01-.12-.02-.17,0-.05-.01-.1-.02-.14,0-.04-.01-.08-.02-.11.58-3.27.98-6.67.84-10-.03-.85-.12-1.64-.5-2.41-.36-.73-.88-1.37-1.45-1.93-1.17-1.16-2.57-2.07-4.01-2.86-.54-.29-1.08-.56-1.64-.82-.34-.17-.68-.33-1.01-.5,0-.01,0,0-.01-.03-.04-.06-.07-.15-.1-.22,0-.02-.01-.03-.02-.04-.08-.23-.22-.46-.33-.67-.11-.33-.39-.68-.58-.97-.22-.34-.47-.65-.72-.97-.47-.56-.97-1.14-1.57-1.57-.26-.23-.56-.44-.86-.62-.17-.11-.34-.21-.51-.31-.09-.05-.19-.1-.29-.15-.02-.01-.03-.02-.04-.02-.4-.2-.83-.38-1.26-.5-.64-.22-1.36-.35-2.03-.38-.02,0-.04,0-.07,0-.2-.01-.41,0-.62,0-.06,0-.12,0-.17,0-.05,0-.1,0-.15,0-2.24.02-4.56.54-6.6,1.39-2,.84-3.82,2.07-5.36,3.59-3.35,3.3-5.4,7.65-6.4,12.2-.26,1.19-.48,2.4-.56,3.62.02.69,1.98,3.72,1.98,3.72-.07.1-.14.19-.2.3-.02.04-.04.08-.06.12-1.63,1.11-1.62,3.47-1.31,5.2.28,1.55.59,3.14,1.49,4.47.61.88,1.46,1.56,2.46,1.93.73,2.1,1.14,3.48,1.15,3.5l.1.33.21.28c.21.28.99,1.29,2.13,2.51-.03,2.08-.03,5.08-.03,5.08,0,0-3.53,1.14-5.4,3.7,0,0,0,0,0,0-.19.26-.37.54-.53.84-3.46,1.47-17.4,8.41-17.62,8.83-.57,1.13-.82,2.42-1.05,3.66-.6,3.19-1.03,6.41-1.47,9.62,0,0-.51,29.63-.51,30.5s.17,1.9,1.04,1.9h72.54c1.38,0,1.55-.17,1.38-1.73ZM64.16,141.31c.9.5,1.93,1.22,2.59,2.12l.05.08c.11.15.21.31.3.49l.39.72.75.32c1.02.44,5.03,2.17,5.59,2.45-3.02,1.3-5.01,1.99-8.28,3.7-.55.18-1.11.46-1.15,1.09-.04.61.23,1.27.44,1.83.7,1.93,1.64,3.79,2.56,5.63.03.07.07.14.1.21l-13.53,7.24,10.19-25.87ZM47.11,141.72c.86.45,1.78.79,2.72,1.02l1.35,3.15h3.04l1.35-3.15c.94-.23,1.86-.57,2.72-1.02l2.98-1.55h0l1.08.35.05.02-3.35,8.12-3.06,8.76v-6.14l-1.93-4.52h-2.71l-1.93,4.52v2.51l-.02,3.79-5.89-15.84-.49-1.2,1.11-.36,2.99,1.55ZM44.5,139.06v-.7c0-.61,0-1.69,0-2.82,2.21,1.96,4.97,3.79,7.65,3.87,2.31.11,4.52-.92,6.43-2.28.03-.02.05-.04.08-.06.28-.2.55-.4.81-.61.14-.11.29-.22.43-.34.05-.04.09-.08.14-.12.27-.22.53-.44.81-.68.03,1.62.05,3.04.05,3.07v.66s-3.15,1.64-3.15,1.64c-.83.44-1.73.76-2.65.97-1.6.04-3.21.04-4.81,0-.92-.21-1.81-.53-2.65-.97l-3.15-1.64ZM41.62,129.6s-.55-1.84-1.52-4.56c-2.4-.36-3.05-2.59-3.45-4.66-.2-1.05-.56-2.69.25-3.59.85-.94,1.52.83,1.75,1.44.22.57.4,1.16.57,1.75.06.25.13.5.19.77v-.06s.02.04.02.07l.62-6.43,2.11-2.23,1.32-4.82s5.09-4.1,9.11-4.16h.16c3.95,0,7.47,1.91,7.47,1.91.41,1.39.83,2.77,1.27,4.15.15.48.26,1.08.53,1.51.37.59.97,1.1,1.44,1.6.51.55,1.02,1.1,1.53,1.66l.03,3.43v3.37s.02-.06.03-.11v.12s.31-1.59.88-2.72c.26-.48.57-.88.94-1.04.03-.01.06-.02.09-.03.02,0,.04-.01.07-.02.9-.06,1.51.67,1.77,1.46.33.99.18,2.06-.11,3.04-.44,1.45-1.39,3.85-3.24,3.85-.2,0-.4-.03-.61-.1-.49,2.39-1.43,4.4-1.43,4.4,0,0-1.02,1.42-2.6,3.05-.06.06-.12.12-.18.18-1.18,1.2-2.47,2.32-3.9,3.2-1.31.81-2.91,1.54-4.49,1.43-2.47-.08-4.73-1.88-6.49-3.45-1.49-1.34-2.88-2.83-4.1-4.42ZM37.16,145.04l.75-.32.38-.72c.09-.17.19-.33.3-.49l.06-.08c.66-.9,1.69-1.62,2.59-2.12l10.15,25.58-13.49-6.95c.89-1.77,1.78-3.56,2.51-5.42.26-.66.58-1.4.59-2.12.01-.57-.37-.96-.91-1.14-2.01-1.1-7.62-3.95-7.62-3.95,2.72-1.32,3.42-1.74,4.69-2.28ZM35.52,160.36c-1.6-3.04-3.76-5.7-6.36-5.56,0-.48,0-1.11.07-1.86.09-1.03.92-2.91,1.57-4.21,1.34.69,5.75,2.96,8.15,4.19-.44,1.32-1.91,4.46-3.26,7.1l-.17.33ZM51.87,195.22H18.02l.29-29.15c.32-2.4.66-4.8,1.04-7.19.18-1.11.36-2.22.57-3.33.16-.84.34-1.7.66-2.5l.52-.26c.05-.02,3.56-1.56,6.89-3.12-.44,1.06-.83,2.2-.91,3.07-.1,1.1-.09,1.99-.06,2.57-2.17.91-3.18,3.71-3.02,8.35.12,3.41.87,7.07,1.24,8.53.58,2.24,2.27,3.54,4.4,3.54.47,0,.96-.06,1.47-.19.58-.15.93-.74.78-1.32-.15-.58-.74-.93-1.32-.78-.78.2-2.66.43-3.23-1.79-.36-1.38-1.06-4.84-1.18-8.06-.18-5.05,1.13-6.15,1.93-6.35l.87-.23c2.97-.77,6.44,7.6,7.64,12.25.21.81.13,1.49-.23,2.03-.35.52-.94.9-1.73,1.1-.58.15-.93.74-.78,1.32.15.58.74.93,1.32.78,1.31-.34,2.34-1.03,2.99-1.99.71-1.06.89-2.37.52-3.78-.08-.3-1.02-3.88-2.67-7.32l15.82,7.49v26.34ZM53.64,195l-.09-25.96,15.33-7.55,1.29-.49h0s.02-.01.02-.01l-.49-.96c-1.33-2.61-2.78-5.69-3.23-7.04,0-.02-.01-.04-.02-.06,2.07-.96,6.09-2.67,8.34-3.63.15,2.08.38,5.27.37,6.48-.02,3.99-1.09,7.16-1.49,8.19-.34-.07-.69-.11-1.05-.11-2.79,0-5.06,2.27-5.06,5.06s2.27,5.06,5.06,5.06,5.06-2.27,5.06-5.06c0-1.65-.8-3.12-2.02-4.04.43-1.08,1.66-4.56,1.68-9.08,0-1.34-.24-4.83-.4-6.92,3.61,1.8,7.3,3.9,7.37,3.93l.52.26c.46,1.13.65,2.39.86,3.59.31,1.77.58,3.55.84,5.33.13.92.26,1.84.39,2.76l.88,30.26h-34.15ZM75.51,168.91c0,1.59-1.3,2.89-2.89,2.89s-2.89-1.3-2.89-2.89,1.3-2.89,2.89-2.89,2.89,1.3,2.89,2.89Z"/>
        <path class="cls-10" d="M89.39,165.72s0,0,0,0c0,.01,0,.03,0,.04,0-.01,0-.03,0-.05Z"/>
        <path class="cls-10" d="M89.39,165.72c-.02-.18-.04-.32-.06-.47.02.18.05.34.06.47Z"/>
        <path class="cls-10" d="M89.4,165.77s0,.03,0,.04c0-.01,0-.03,0-.04Z"/>
        <path class="cls-10" d="M89.4,165.81c.03.2.03.25,0,0h0Z"/>
        <circle class="cls-10" cx="72.63" cy="168.91" r="1.77"/>
      </g>
      <g>
        <polygon class="cls-5" points="182.56 85.66 184.79 89.27 131.83 121.86 133.32 124.27 186.27 91.68 188.49 95.29 193.87 85.34 182.56 85.66"/>
        <polygon class="cls-5" points="180.54 171.65 130.65 142.2 129.2 144.64 179.1 174.09 176.94 177.74 188.25 177.84 182.69 168 180.54 171.65"/>
      </g>
    </g>
  </g>
</svg>