<?xml version="1.0" encoding="UTF-8"?>
<svg id="_レイヤー_2" data-name="レイヤー 2" xmlns="http://www.w3.org/2000/svg" viewBox="0 0 89.1 89.1">
  <defs>
    <style>
      .cls-1 {
        fill: #fff;
      }

      .cls-2 {
        fill: #3d62ad;
      }
    </style>
  </defs>
  <g id="pc">
    <circle class="cls-2" cx="44.55" cy="44.55" r="44.55"/>
    <g>
      <path class="cls-1" d="m62.92,22.32h-31.66c-.8,0-1.46.65-1.46,1.46v41.15c0,1.98,1.61,3.59,3.59,3.59h27.28c2.04,0,3.7-1.66,3.7-3.7V23.78c0-.8-.65-1.46-1.46-1.46Zm-.41,42.49c0,1.02-.83,1.84-1.84,1.84h-27.28c-.95,0-1.73-.78-1.73-1.73V24.18h30.85v40.63Z"/>
      <path class="cls-1" d="m35.09,43.73h12c.51,0,.93-.42.93-.93v-3.82c0-.51-.42-.93-.93-.93s-.93.42-.93.93v2.89h-10.14v-13.18h10.14v6.26c0,.51.42.93.93.93s.93-.42.93-.93v-7.19c0-.51-.42-.93-.93-.93h-12c-.51,0-.93.42-.93.93v15.04c0,.51.42.93.93.93Z"/>
      <path class="cls-1" d="m51.09,30.28h7.81c.51,0,.93-.42.93-.93s-.42-.93-.93-.93h-7.81c-.51,0-.93.42-.93.93s.42.93.93.93Z"/>
      <path class="cls-1" d="m51.09,34.08h7.81c.51,0,.93-.42.93-.93s-.42-.93-.93-.93h-7.81c-.51,0-.93.42-.93.93s.42.93.93.93Z"/>
      <path class="cls-1" d="m51.09,37.81h7.81c.51,0,.93-.42.93-.93s-.42-.93-.93-.93h-7.81c-.51,0-.93.42-.93.93s.42.93.93.93Z"/>
      <path class="cls-1" d="m51.09,41.61h7.81c.51,0,.93-.42.93-.93s-.42-.93-.93-.93h-7.81c-.51,0-.93.42-.93.93s.42.93.93.93Z"/>
      <path class="cls-1" d="m58.05,47.12h-5.54c-.51,0-.93.42-.93.93v1.9h-4.63c-.51,0-.93.42-.93.93v2.09h-3.68v-3.45c0-.51-.42-.93-.93-.93h-5.54c-.51,0-.93.42-.93.93v12.23c0,.51.42.93.93.93h16.62s0,0,0,0c0,0,0,0,0,0h5.54c.51,0,.93-.42.93-.93v-13.71c0-.51-.42-.93-.93-.93Zm-.93,13.71h-3.69v-1.07c0-.51-.42-.93-.93-.93s-.93.42-.93.93v1.07h-3.68v-2.81c0-.51-.42-.93-.93-.93s-.93.42-.93.93v2.81h-3.68v-.68c0-.51-.42-.93-.93-.93s-.93.42-.93.93v.68h-3.68v-10.37h3.68v6.4c0,.51.42.93.93.93s.93-.42.93-.93v-2.02h3.68v.12c0,.51.42.93.93.93s.93-.42.93-.93v-3.14h3.68v3.88c0,.51.42.93.93.93s.93-.42.93-.93v-4.66s.01-.1.01-.15v-1.9h3.68v11.85Z"/>
    </g>
  </g>
</svg>