<?xml version="1.0" encoding="UTF-8"?>
<svg id="_レイヤー_2" data-name="レイヤー 2" xmlns="http://www.w3.org/2000/svg" viewBox="0 0 89.1 89.1">
  <defs>
    <style>
      .cls-1 {
        fill: #fff;
      }

      .cls-2 {
        fill: #3d62ad;
      }
    </style>
  </defs>
  <g id="pc">
    <circle class="cls-2" cx="44.55" cy="44.55" r="44.55"/>
    <g>
      <g>
        <path class="cls-1" d="m55.22,18.29c-.5,0-.9.41-.91.9,0,.5.41.91.89.91.03,0,3.29.28,3.47,3.57.02.48.42.86.9.86h.05c.5-.03.88-.46.86-.96-.23-4.34-4.27-5.28-5.26-5.28Zm4.36,5.95h0s0,0,0,0Z"/>
        <path class="cls-1" d="m54.53,14.76c-.5,0-.91.41-.91.91s.41.91.89.91c.07,0,7.11.7,7.49,7.65.03.48.43.86.91.86h.05c.5-.03.88-.46.86-.95-.41-7.7-7.54-9.37-9.28-9.37Z"/>
        <path class="cls-1" d="m53.15,10.17c-.5,0-.91.41-.91.91s.41.91.91.91c2.06,0,12.63,2.35,13.23,13.5.02.48.42.86.9.86h.05c.5-.03.88-.46.86-.96-.76-14.08-14.9-15.22-15.04-15.22Zm14.14,15.88h0s0,0,0,0Z"/>
      </g>
      <g>
        <path class="cls-1" d="m52.58,21.19h-18.82c-2.5,0-4.53,2.03-4.53,4.53v3.07h0v31.18h0v4.4c0,2.83,2.3,5.12,5.13,5.12h17.62c.44,0,.86-.06,1.26-.16,2.22-.56,3.87-2.57,3.87-4.96V25.72c0-2.5-2.03-4.53-4.53-4.53Zm0,1.6c1.61,0,2.92,1.31,2.92,2.92v1.46h-24.66v-1.46c0-1.61,1.31-2.92,2.92-2.92h18.81Zm-21.74,5.99h24.66v31.18h-24.66v-31.18Zm21.14,39.11h-17.61c-1.94,0-3.52-1.58-3.52-3.52v-2.8h24.66v2.8c0,1.7-1.21,3.12-2.81,3.45-.23.05-.47.07-.71.07Z"/>
        <path class="cls-1" d="m46.64,65.5h-6.94c-.43,0-.78-.35-.78-.78s.35-.78.78-.78h6.94c.43,0,.78.35.78.78s-.35.78-.78.78Z"/>
      </g>
    </g>
  </g>
</svg>