<?xml version="1.0" encoding="UTF-8"?>
<svg id="_レイヤー_2" data-name="レイヤー 2" xmlns="http://www.w3.org/2000/svg" viewBox="0 0 36.42 54.5">
  <defs>
    <style>
      .cls-1 {
        fill: #8fc31f;
        stroke: #f0f0f0;
        stroke-miterlimit: 10;
        stroke-width: .28px;
      }
    </style>
  </defs>
  <g id="pc">
    <g>
      <path class="cls-1" d="m31.77,15.22V2.92c0-1.53-1.25-2.78-2.78-2.78h-3.81c-1.53,0-2.78,1.25-2.78,2.78v12.3c-1.37.17-4.51,1.05-4.51,5.56v32.65c0,.51.41.92.92.92h16.55c.51,0,.92-.41.92-.92V20.78c0-4.51-3.14-5.39-4.52-5.56Zm-12.03,16.36h14.7v9.71h-14.7v-9.71Zm4.51-19.49h5.67v3.1h-5.67v-3.1Zm0-4.74h5.58v2.9h-5.58v-2.9Zm.93-5.36h3.81c.51,0,.93.42.93.93v2.57h-5.67v-2.57c0-.51.42-.93.93-.93Zm-2.38,15.05h8.57c1.41.11,3.07.85,3.07,3.74v8.95h-14.7v-8.95c0-2.9,1.66-3.64,3.07-3.74Zm-3.07,35.47v-9.37h14.7v9.37h-14.7Z"/>
      <path class="cls-1" d="m13.65,27.41H1.07c-.51,0-.92.41-.92.92v4.39c0,1.39.34,5.02,1.35,6.72,1.21,2.05,2.91,3.26,4.94,3.53v5.43c-.41.51-1.58,1.83-3.34,2.54-.5.19-1.1.62-1.1,1.62,0,.51.41.92.92.92h8.87c.51,0,.92-.41.92-.92,0-1-.6-1.43-1.07-1.61-1.76-.72-2.95-2.04-3.36-2.55v-5.43c2.03-.28,3.73-1.48,4.94-3.53,1.01-1.7,1.35-5.33,1.35-6.72v-4.39c0-.51-.41-.92-.92-.92Zm-4.59,24.23h-3.42c.72-.51,1.3-1.04,1.71-1.48.41.44.98.98,1.71,1.48Zm3.66-18.91c0,1.64-.42,4.64-1.09,5.78-1.06,1.78-2.5,2.69-4.28,2.69s-3.22-.9-4.28-2.69c-.68-1.14-1.09-4.13-1.09-5.78v-3.47h10.74v3.47Z"/>
    </g>
  </g>
</svg>