<?xml version="1.0" encoding="UTF-8"?>
<svg id="_レイヤー_2" data-name="レイヤー 2" xmlns="http://www.w3.org/2000/svg" viewBox="0 0 43.88 50.37">
  <defs>
    <style>
      .cls-1 {
        fill: #9ac243;
        stroke: #f0f0f0;
        stroke-miterlimit: 10;
        stroke-width: .28px;
      }
    </style>
  </defs>
  <g id="pc">
    <g>
      <path class="cls-1" d="m21.94.14h0c-.46,0-.84.37-.84.84,0,3.78,0,3.87,0,3.92.04.44.4.76.83.76.02,0,.05,0,.08,0,.45-.04.79-.43.76-.88,0-.21,0-2.44,0-3.8,0-.46-.37-.84-.84-.84Z"/>
      <path class="cls-1" d="m.55,11.51c3.26,1.93,3.34,1.96,3.38,1.99.12.05.24.08.36.08.31,0,.62-.18.76-.48.19-.41.03-.9-.37-1.1-.19-.1-2.1-1.23-3.27-1.93-.4-.23-.91-.1-1.15.29-.24.4-.1.91.29,1.15Z"/>
      <path class="cls-1" d="m10.08,2.84c-.42.19-.61.69-.42,1.11,1.56,3.45,1.6,3.53,1.63,3.57.15.27.44.42.73.42.14,0,.28-.04.41-.11.39-.22.54-.72.33-1.12-.09-.19-1.01-2.22-1.57-3.46-.19-.42-.69-.61-1.11-.42Z"/>
      <path class="cls-1" d="m43.62,10.36c-.24-.4-.75-.53-1.15-.29-1.17.69-3.09,1.82-3.27,1.93-.4.21-.57.69-.37,1.1.14.3.44.48.76.48.12,0,.24-.03.36-.08.04-.02.13-.06,3.38-1.99.4-.24.53-.75.29-1.15Z"/>
      <path class="cls-1" d="m31.45,7.83c.13.07.27.11.41.11.29,0,.57-.15.73-.42.02-.04.07-.12,1.63-3.57.19-.42,0-.92-.42-1.11-.42-.19-.92,0-1.11.42-.56,1.24-1.48,3.26-1.57,3.46-.21.4-.07.89.33,1.12Z"/>
      <path class="cls-1" d="m20.94,49.98c.16.17.38.25.6.25s.42-.08.58-.23l20.06-19.35c.16-.16.26-.38.26-.6s-.09-.45-.26-.6l-10.47-10.12c-.16-.15-.36-.24-.58-.24H11.78c-.22,0-.44.09-.6.25L1.6,29.1c-.32.33-.32.85,0,1.17l19.35,19.7Zm1.58-2.7v-16.86h17.48l-17.48,16.86Zm6.81-26.52c-5.26,5.14-5.33,5.41-5.39,5.68-.11.45.16.9.61,1.02.07.02.14.03.2.03.31,0,.59-.17.74-.44.38-.5,3.15-3.26,5.77-5.81l7.79,7.53h-16.58c-.04-.06-.08-.12-.14-.17l-8.64-7.82h15.64Zm-17.64.44l8.33,7.54H4.29l7.41-7.54Zm9.15,9.22v17.06L4.09,30.43h16.76Z"/>
    </g>
  </g>
</svg>