<?xml version="1.0" encoding="UTF-8"?>
<svg id="_レイヤー_2" data-name="レイヤー 2" xmlns="http://www.w3.org/2000/svg" viewBox="0 0 89.1 89.1">
  <defs>
    <style>
      .cls-1 {
        fill: #fff;
      }

      .cls-2 {
        fill: #3d62ad;
      }
    </style>
  </defs>
  <g id="pc">
    <circle class="cls-2" cx="44.55" cy="44.55" r="44.55"/>
    <g>
      <g>
        <path class="cls-1" d="m45.04,70.48c-2.53,0-5.05-.53-7.28-1.53-2.46-1.1-4.72-2.89-6.54-5.17-.23-.29-.44-.57-.65-.87l-.2-.28,1.29-.84.18.26c.18.26.37.51.57.76,1.67,2.09,3.73,3.72,5.97,4.73,2.04.91,4.34,1.39,6.66,1.39,3.02,0,5.94-.78,8.46-2.25l.27-.16.85,1.28-.3.17c-1.36.8-2.85,1.42-4.43,1.84-1.58.42-3.21.64-4.84.64Zm10.05-4.83l.23-.19c.8-.65,1.54-1.36,2.18-2.12l.21-.24,1.18.97-.21.25c-.75.88-1.57,1.68-2.46,2.38l-.28.22-.84-1.27Zm3.58-3.83l.16-.24c.9-1.37,1.62-2.87,2.14-4.45.8-2.42,1.09-4.97.84-7.36-.1-1.02-.23-1.97-.38-2.88l-.06-.33,1.51-.23.05.31c.15.89.28,1.85.4,2.96.26,2.6-.05,5.37-.91,8-.57,1.74-1.37,3.39-2.37,4.9l-.2.3-1.18-.98Zm-29.31-.84c-1.25-2.25-2.04-4.75-2.3-7.24-.35-3.42-.44-5.27.15-8.6.29-1.66,1.03-5.96,1.45-8.01.76-3.73,1.3-5.09,2.3-6.91.29-.51.56-.99.85-1.44l.18-.29,1.27.86-.17.27c-.26.4-.5.82-.79,1.33-.92,1.68-1.42,2.95-2.15,6.48-.38,1.88-1.04,5.7-1.36,7.54l-.07.43c-.55,3.13-.47,4.9-.13,8.18.22,2.23.94,4.51,2.08,6.61l.14.26-1.28.82-.17-.3Zm31.61-16.29c-.61-2.49-1.45-4.56-2.62-7.44-.17-.42-.63-1.56-.63-1.56-1.07-2.64-3.04-6.55-5.04-9.33l-.18-.25,1.19-.95.2.28c2.2,3.05,4.2,7.13,5.24,9.69l.11.27c.17.43.34.84.5,1.24,1.16,2.86,2.09,5.11,2.74,7.77l.08.35-1.52.22-.07-.29Zm-28.06-17.5l.22-.27c1.51-1.91,3.27-3.39,5.71-4.77,1.82-1.04,3.39-1.62,4.95-1.83.4-.05.8-.08,1.25-.08,2.23,0,4.42.77,6.16,2.17.41.33.84.75,1.28,1.24l.23.26-1.21.94-.2-.22c-.38-.42-.73-.76-1.07-1.03-1.46-1.18-3.31-1.84-5.2-1.84-.36,0-.71.02-1.05.07-1.35.18-2.75.71-4.39,1.64-2.22,1.26-3.83,2.6-5.22,4.35l-.19.23-1.27-.86Z"/>
        <path class="cls-1" d="m44.65,65.85c-1.94,0-3.89-.41-5.62-1.18-.72-.32-1.42-.73-2.08-1.2l-.32-.23,1.11-1.07.22.15c.54.37,1.1.69,1.69.95,1.53.68,3.26,1.04,5,1.04,1.41,0,2.8-.23,4.13-.67,1.02-.34,1.97-.8,2.84-1.37l.26-.17.9,1.24-.28.19c-2.3,1.51-5.01,2.31-7.84,2.31Zm8.48-4.74l.2-.2c1.68-1.62,2.98-3.84,3.76-6.43.63-2.07.84-4.12.63-6.09-.25-2.42-.65-4.26-1.37-6.35l-.1-.3,1.43-.53.11.31c.76,2.21,1.18,4.15,1.45,6.7.23,2.17,0,4.42-.68,6.7-.88,2.89-2.35,5.37-4.26,7.17l-.27.25-.9-1.24Zm-17.94.88c-.51-.5-.99-1.05-1.43-1.64-.96-1.26-1.73-2.66-2.3-4.15l-.12-.3,1.42-.55.12.31c.5,1.33,1.21,2.6,2.09,3.78.39.52.83,1.02,1.3,1.49l.23.23-1.09,1.06-.23-.22Zm-4.4-8c-.14-.61-.24-1.25-.3-1.89-.28-2.78-.33-4.37.1-7,.15-.9.76-4.64,1.14-6.51.56-2.77.98-4.04,1.83-5.65,1.57-2.94,3.33-4.8,6.09-6.44,1.4-.83,2.66-1.32,3.87-1.51.28-.04.56-.06.85-.08l.4-.02-.24,1.53-.26.02c-.17.01-.35.03-.52.06-1.01.15-2.09.58-3.33,1.31-2.54,1.5-4.08,3.14-5.52,5.84-.79,1.47-1.16,2.65-1.69,5.23-.42,2.1-1.12,6.42-1.13,6.46-.43,2.56-.35,4.05-.1,6.61.06.56.14,1.09.25,1.58l.06.27-1.44.56-.08-.37Zm24.09-15.73c-.08-.21-.17-.43-.26-.64l-.21-.52c-1.14-2.83-3.65-7.66-5.91-9.37-.63-.48-1.34-.84-2.11-1.06l-.28-.08.24-1.52.35.1c1,.27,1.91.73,2.71,1.34,2.51,1.92,5.2,7.04,6.4,10.02.11.27,1.17,2.87,1.17,2.87l.13.31-1.43.53-.81-1.99Z"/>
        <path class="cls-1" d="m44.27,61.21c-1.4,0-2.74-.28-3.96-.82-.86-.37-1.68-.93-2.43-1.64l-.26-.24,1.14-1.02.22.2c.6.56,1.25,1,1.95,1.31,1.03.45,2.19.69,3.35.69,2.05,0,4.08-.72,5.57-1.97,1.57-1.31,2.7-3.29,3.38-5.87.45-1.67.59-3.3.42-4.83-.19-1.73-.51-3.18-1.08-4.83l-.1-.3,1.43-.53.11.31c.6,1.73.95,3.29,1.16,5.19.19,1.72.03,3.53-.47,5.39-.76,2.89-2.07,5.12-3.88,6.64-1.79,1.5-4.12,2.33-6.55,2.33Zm-7.92-4.25l-.02-.02-.04-.05c-1.33-1.95-2.15-4.18-2.37-6.45-.2-2.03-.24-3.35.06-5.41.18-1.21.56-3.64.84-5.01.13-.66.23-1.14.34-1.55l.09-.35,1.43.52-.07.28c-.1.41-.19.86-.29,1.39-.27,1.36-.65,3.75-.83,4.94-.28,1.9-.25,3.09-.05,5.04.2,2.03.93,4.01,2.11,5.73l.16.23-1.12,1.03-.24-.33Zm15.42-16.87c-.11-.27-.22-.55-.33-.83l-.09-.22c-.07-.18-.15-.36-.22-.54-.5-1.22-1.41-3.08-2.47-4.6l-.17-.24,1.18-.98.2.29c1.17,1.68,2.17,3.73,2.67,4.97l.65,1.6.13.31-1.44.55-.12-.3Zm-16.04-3.5l.14-.32c.09-.21.19-.42.3-.65,1.08-2.15,2.33-3.53,4.31-4.79.99-.63,1.91-1.02,2.8-1.19.34-.06.68-.1,1.03-.1,1.17,0,2.36.37,3.35,1.04.25.17.49.37.73.61l.26.26-1.19.96-.21-.19c-.17-.15-.32-.27-.46-.37-.74-.51-1.63-.79-2.5-.79-.27,0-.52.02-.75.07-.69.13-1.43.45-2.26.98-1.73,1.09-2.82,2.3-3.76,4.18-.09.18-.18.35-.25.53l-.12.29-1.44-.53Z"/>
        <path class="cls-1" d="m43.89,56.58c-.83,0-1.6-.16-2.31-.47-1.08-.46-1.98-1.34-2.77-2.71-.81-1.42-1.32-3.02-1.46-4.62-.07-.74-.12-1.38-.11-2.07v-.37s1.53.21,1.53.21v.28c0,.54.03,1.08.1,1.8.13,1.39.57,2.77,1.27,4.01.61,1.06,1.28,1.73,2.05,2.07.52.22,1.1.34,1.71.34s1.24-.12,1.83-.35c.58-.24,1.11-.57,1.55-1,.47-.45.87-1.02,1.22-1.73l.12-.26,1.45.48-.15.33c-.42.91-.95,1.67-1.58,2.28-1.18,1.13-2.8,1.77-4.44,1.77Zm5.22-6.38l.08-.3c.05-.17.08-.34.12-.53l.03-.15c.27-1.34.34-2.52.21-3.59-.24-2.08-.8-3.45-1.57-5.35l-.13-.31-.05-.05v-.15s0-.2,0-.2l1.25-.63.15.29s.04.08.05.12l.14.35c.78,1.92,1.4,3.44,1.68,5.75.14,1.27.07,2.61-.23,4.07-.05.26-.12.53-.18.81l-.08.34-1.46-.49Zm-11.73-5.46l.04-.32c.15-1.11.32-2.22.46-2.97.26-1.32.47-2.17.88-3.11.59-1.33,1.37-2.29,2.51-3.14.58-.44,1.14-.73,1.7-.89.31-.09.64-.13.98-.13.65,0,1.3.17,1.89.48.99.53,1.82,1.68,2.33,2.55l.18.3-1.37.67-.15-.25c-.6-.97-1.2-1.65-1.7-1.92-.38-.2-.79-.3-1.17-.3-.2,0-.39.03-.57.08-.38.1-.77.31-1.21.64-.94.7-1.54,1.46-2.03,2.53-.36.8-.54,1.54-.78,2.78-.15.77-.32,1.91-.45,2.89l-.04.33-1.51-.23Z"/>
      </g>
      <path class="cls-1" d="m46.98,44.07c-.15-1.15-.57-2.19-.98-3.2l-.05-.13c-.22-.53-.8-1.94-2.09-2.04-.06-.01-.12-.01-.18-.01-1.07,0-1.95.92-2.35,2.47-.82,3.24-.84,6.16-.04,8.67.22.68.62,1.64,1.57,2.01.25.09.5.14.74.14.99,0,1.83-.68,2.28-1.33.82-1.17,1-2.62,1.1-3.88.07-.82.13-1.77,0-2.71Zm-1.52,2.59c-.08,1.05-.22,2.25-.83,3.13-.13.2-.31.37-.51.49-.18.12-.36.18-.51.18-.05,0-.12-.01-.18-.04-.26-.1-.49-.46-.68-1.06-.71-2.24-.69-4.88.07-7.83.16-.65.45-1.14.72-1.28.05-.02.13-.04.24-.01.24.07.5.43.77,1.08l.03.08c.38.93.77,1.9.9,2.87.11.81.05,1.65,0,2.39Z"/>
    </g>
  </g>
</svg>