<?xml version="1.0" encoding="UTF-8"?>
<svg id="_レイヤー_2" data-name="レイヤー 2" xmlns="http://www.w3.org/2000/svg" viewBox="0 0 72.39 48.1">
  <defs>
    <style>
      .cls-1 {
        fill: #9ac243;
        stroke: #f0f0f0;
        stroke-miterlimit: 10;
        stroke-width: .28px;
      }
    </style>
  </defs>
  <g id="pc">
    <g>
      <path class="cls-1" d="m64.07,40.21c-1.5,0-3.38-.37-5.66-1.41-.5-.23-.72-.82-.49-1.33.23-.5.82-.72,1.32-.49,3.28,1.5,6.06,1.64,7.82.38,1.32-.94,1.99-2.63,1.8-4.53-.19-1.94-1.43-4.48-4.31-5.78-.33-.15-.55-.46-.58-.82-.03-.36.13-.71.42-.91,1.95-1.37,2.76-3.21,2.28-5.18-.6-2.48-3.05-4.49-5.96-4.89-.35-.05-.65-.28-.79-.61-.13-.33-.08-.71.14-.99,1.51-1.95,1.86-4,1.03-6.1-1.14-2.89-4.17-5-6.45-5.37-1.58-.24-3.38.51-4.49,1.88-1.31,1.62-1.52,3.88-.58,6.35.13.35.06.75-.19,1.02-.25.28-.64.39-1,.29-2.23-.6-4.32,1.08-5.24,3.05-1.02,2.19-.95,5.34,2.32,7.62.29.2.45.54.43.89-.03.35-.24.66-.55.82-3.95,1.97-5.48,6.59-4.43,9.67,1.05,3.09,4.46,4.32,9.34,3.36.54-.11,1.07.25,1.17.79.11.54-.25,1.07-.79,1.17-5.88,1.15-10.23-.6-11.62-4.68-1.33-3.91.54-8.78,4.14-11.33-3.11-2.9-2.99-6.65-1.82-9.16,1.2-2.58,3.53-4.21,5.92-4.32-.8-3.43.46-5.7,1.36-6.82,1.56-1.93,4.06-2.95,6.36-2.6,2.8.45,6.55,2.92,8,6.61.66,1.67,1.03,4.11-.47,6.79,3.02.92,5.44,3.26,6.12,6.07.56,2.32-.12,4.55-1.89,6.3,2.32,1.52,3.86,3.97,4.13,6.66.26,2.62-.72,4.99-2.63,6.35-.79.56-2.14,1.22-4.16,1.22Z"/>
      <path class="cls-1" d="m23.92,23.15h-3.63c-.55,0-1-.45-1-1s.45-1,1-1h3.63c.55,0,1,.45,1,1s-.45,1-1,1Z"/>
      <path class="cls-1" d="m18.16,23.15h-1.17c-.55,0-1-.45-1-1s.45-1,1-1h1.17c.55,0,1,.45,1,1s-.45,1-1,1Z"/>
      <path class="cls-1" d="m22.69,14.97h-1.17c-.55,0-1-.45-1-1s.45-1,1-1h1.17c.55,0,1,.45,1,1s-.45,1-1,1Z"/>
      <path class="cls-1" d="m26.14,32.24h-1.17c-.55,0-1-.45-1-1s.45-1,1-1h1.17c.55,0,1,.45,1,1s-.45,1-1,1Z"/>
      <path class="cls-1" d="m22.69,32.24h-1.17c-.55,0-1-.45-1-1s.45-1,1-1h1.17c.55,0,1,.45,1,1s-.45,1-1,1Z"/>
      <path class="cls-1" d="m71.25,45.96h-12.9c-.51-2.15-.89-7.89-.89-9.9,0-1.68-.12-5.18-.16-6.31,4.27-5.72,3.91-6.53,3.69-7.01-.05-.1-.11-.2-.19-.28-.35-.36-.83-.55-1.34-.55-.8,0-1.67.49-2.41,1.04-.09-1.13-.2-2.44-.29-3.11-.18-1.37-.21-6.42.06-7.41.08-.3.02-.62-.17-.87-.19-.25-.48-.39-.79-.39-.56,0-1.37.19-2.09,1.07-1.18,1.45-1.56,4.12-1.4,6.58-.77-.33-1.59-.61-2.24-.83-.3-.1-.66-.23-.79-.28-.36-.23-.84-.21-1.18.08-.37.32-.47.86-.21,1.28.82,1.37,1.98,2.48,2.91,3.37.52.5,1.24,1.18,1.35,1.45.04,1.15,0,3.47-.03,5.26-.98-.95-2.17-1.96-3.06-2.23-.45-.14-.93,0-1.29.39-.4.43-.85,1.39-.57,2.1.76,1.91,2.84,4.01,4.08,5.26.22.22.46.47.61.63-.02,1.51-.47,8.28-.87,10.67h-28.57v-3.18c.05-.03.11-.05.17-.08.78-.46,1.53-.96,2.24-1.5,1.63.57,3.2.86,4.67.86,5.07,0,7.35-3.37,7.44-3.51.27-.42.2-.97-.18-1.3l-6.27-5.46c2.41-.88,3.52-2.68,3.58-2.78.24-.4.17-.92-.17-1.24l-5.48-5.18c2.21-.68,3.24-2.32,3.29-2.4.25-.4.18-.93-.17-1.25l-4.92-4.6c1.16-.81,1.7-2.01,1.73-2.08.15-.35.09-.76-.17-1.06L19.96,1.71c-.19-.22-.46-.34-.75-.34s-.56.12-.75.34l-8.33,9.49c-.26.29-.32.7-.17,1.06.03.07.56,1.27,1.73,2.08l-4.91,4.6c-.35.32-.42.85-.17,1.25.04.07.88,1.41,2.66,2.17l-5.72,5.41c-.34.32-.41.84-.17,1.24.06.09,1.17,1.89,3.58,2.78l-6.27,5.46c-.38.33-.45.88-.18,1.3.09.14,2.37,3.51,7.44,3.51,1.47,0,3.04-.29,4.67-.86.61.47,1.24.89,1.89,1.29v3.48H1.14c-.55,0-1,.45-1,1s.45,1,1,1h70.11c.55,0,1-.45,1-1s-.45-1-1-1Zm-21.74-16.51c.86.69,1.98,1.8,2.84,2.79.27.31.7.42,1.09.28.39-.14.65-.5.66-.91,0-.24.17-5.91.09-7.91,0-.04,0-.07-.01-.11-.14-.88-.93-1.65-1.95-2.61-.03-.03-.05-.05-.08-.08.34.16.62.33.82.5.32.28.79.32,1.16.1.37-.22.56-.64.47-1.06-.38-1.86-.35-3.94.03-5.42-.04,2,.04,4.26.15,5.07.17,1.24.42,4.98.42,5.02.03.4.29.74.66.87.38.13.79.03,1.06-.26.51-.54,1.13-1.06,1.64-1.41-.69,1.18-1.93,2.99-3.08,4.51-.14.18-.21.41-.2.64,0,.05.17,4.65.17,6.59,0,1.36.27,6.88.83,9.82h-3.2c.47-3.24.94-10.51.81-11.14-.08-.4-.31-.63-1.17-1.5-.89-.89-2.41-2.43-3.24-3.8Zm-29,16.26h-4v-2.32c.72.21,1.48.33,2.25.33.59,0,1.18-.08,1.74-.2v2.19Zm-7.7-6.65c-.12,0-.24.02-.36.07-1.59.62-3.11.93-4.5.93-2.72,0-4.4-1.19-5.2-1.96l7.01-6.1s0,0,0,0c.14-.12.24-.28.29-.47,0,0,0-.02,0-.02.02-.08.04-.17.04-.26,0-.1-.02-.2-.05-.29,0,0,0-.01,0-.02,0,0,0,0,0-.02-.03-.09-.07-.17-.12-.25,0,0,0,0,0,0-.05-.07-.11-.13-.17-.18-.01-.01-.03-.02-.04-.04-.07-.05-.14-.1-.22-.13,0,0-.02,0-.03,0-.07-.03-.15-.04-.22-.05-.01,0-.02,0-.04,0-1.83-.15-3-1.04-3.6-1.66l6.36-6.01c.28-.27.38-.68.26-1.05-.13-.37-.45-.63-.84-.67-1.22-.13-2.04-.68-2.52-1.12l5.32-4.98c.28-.26.38-.65.28-1.01-.11-.36-.41-.63-.78-.7-.73-.13-1.25-.66-1.55-1.08l7.1-8.09,7.1,8.09c-.3.41-.81.94-1.55,1.07-.37.07-.67.34-.78.7-.11.36,0,.75.28,1.01l5.32,4.99c-.55.5-1.55,1.14-3.08,1.14h-.16c-.41-.02-.79.23-.95.61-.16.38-.06.82.24,1.11l6.33,5.98c-.61.62-1.78,1.51-3.6,1.66-.01,0-.02,0-.03,0-.09,0-.17.03-.25.06h0c-.09.04-.17.08-.24.14,0,0,0,0-.01,0-.23.18-.38.46-.38.78s.14.57.35.75c0,0,0,0,0,0l7.01,6.1c-.8.78-2.48,1.96-5.2,1.96-1.39,0-2.9-.31-4.49-.93-.33-.13-.71-.07-.99.16-.76.62-1.58,1.18-2.43,1.68-1.71.99-4.1.99-5.8,0-.84-.49-1.66-1.06-2.44-1.68-.18-.15-.4-.22-.63-.22Z"/>
    </g>
  </g>
</svg>