<?xml version="1.0" encoding="UTF-8"?>
<svg xmlns="http://www.w3.org/2000/svg" xmlns:xlink="http://www.w3.org/1999/xlink" viewBox="0 0 302.08 163.56">
  <defs>
    <style>
      .cls-1, .cls-2, .cls-3, .cls-4, .cls-5 {
        fill: none;
      }

      .cls-2 {
        opacity: .38;
      }

      .cls-3 {
        opacity: .5;
      }

      .cls-6 {
        fill: url(#linear-gradient);
      }

      .cls-4 {
        isolation: isolate;
      }

      .cls-7 {
        fill: #f9d1a9;
      }

      .cls-8 {
        fill: #f7f7f7;
      }

      .cls-9 {
        fill: #f3a675;
      }

      .cls-10 {
        fill: #688e32;
      }

      .cls-11 {
        fill: #6878ad;
      }

      .cls-12 {
        fill: #eeeeef;
      }

      .cls-13 {
        fill: #ed7409;
      }

      .cls-14 {
        fill: #eb8164;
      }

      .cls-15 {
        fill: #fff;
      }

      .cls-16 {
        fill: #f08b36;
      }

      .cls-17 {
        fill: #f19862;
      }

      .cls-18 {
        fill: #e75955;
      }

      .cls-19 {
        fill: #fce8d5;
      }

      .cls-20 {
        fill: #97ae3d;
      }

      .cls-21 {
        fill: #b5cdd6;
      }

      .cls-22 {
        fill: #9fca49;
      }

      .cls-23 {
        fill: #8eb3c0;
      }

      .cls-24 {
        fill: #cf4c43;
      }

      .cls-25 {
        fill: #ad3b3a;
      }

      .cls-26 {
        fill: #ccdff2;
      }

      .cls-27 {
        fill: #d33d31;
      }

      .cls-28 {
        fill: #d7ddef;
      }

      .cls-29 {
        fill: #abc8e9;
      }

      .cls-30 {
        fill: #d75740;
      }

      .cls-31 {
        fill: #435387;
      }

      .cls-32 {
        fill: #435283;
      }

      .cls-33 {
        fill: #151414;
      }

      .cls-34 {
        fill: #0e345e;
      }

      .cls-35 {
        fill: #094a81;
      }

      .cls-36 {
        fill: #3e3a39;
      }

      .cls-37 {
        fill: #5366a2;
      }

      .cls-38 {
        fill: #6f80b9;
      }

      .cls-39 {
        fill: #8092c9;
      }

      .cls-40 {
        fill: #2d2e2c;
      }

      .cls-41 {
        fill: #4a5c94;
      }

      .cls-42 {
        fill: #3d3347;
      }

      .cls-43 {
        fill: #576fb4;
      }

      .cls-44 {
        fill: #2e263a;
      }

      .cls-45 {
        fill: #7081bb;
      }

      .cls-46 {
        fill: #6272a4;
      }

      .cls-47 {
        fill: #76a133;
      }

      .cls-48 {
        fill: #4f629e;
      }

      .cls-49, .cls-50 {
        mix-blend-mode: multiply;
      }

      .cls-49, .cls-51 {
        fill: #717071;
      }

      .cls-50 {
        fill: #cacbcb;
      }

      .cls-51 {
        font-family: AcuminConcept-CondBlack, 'Acumin Variable Concept';
        font-size: 26.86px;
        font-variation-settings: 'wght' 800, 'wdth' 67, 'slnt' 0;
        font-weight: 800;
      }

      .cls-52 {
        fill: url(#linear-gradient-3);
      }

      .cls-53 {
        fill: url(#linear-gradient-4);
      }

      .cls-54 {
        fill: url(#linear-gradient-2);
      }

      .cls-5 {
        clip-path: url(#clippath);
      }
    </style>
    <clipPath id="clippath">
      <rect class="cls-1" x="239.52" y="37.15" width="62.56" height="107.7"/>
    </clipPath>
    <linearGradient id="linear-gradient" x1="128.15" y1="78.05" x2="182.59" y2="78.05" gradientUnits="userSpaceOnUse">
      <stop offset=".24" stop-color="#96b61f"/>
      <stop offset=".64" stop-color="#accc3a"/>
    </linearGradient>
    <linearGradient id="linear-gradient-2" x1="132.88" y1="59.61" x2="182.59" y2="59.61" gradientUnits="userSpaceOnUse">
      <stop offset=".17" stop-color="#accc3a"/>
      <stop offset=".89" stop-color="#c2d858"/>
    </linearGradient>
    <linearGradient id="linear-gradient-3" x1="87.2" y1="89.2" x2="121.73" y2="89.2" xlink:href="#linear-gradient"/>
    <linearGradient id="linear-gradient-4" x1="87.2" y1="81.6" x2="111.02" y2="81.6" xlink:href="#linear-gradient"/>
  </defs>
  <g class="cls-4">
    <g id="_レイヤー_2" data-name="レイヤー 2">
      <g id="pc">
        <g>
          <g class="cls-5">
            <g>
              <polygon class="cls-36" points="166.68 26.78 166.68 152.78 304.98 152.57 304.98 26.56 166.68 26.78"/>
              <polygon class="cls-36" points="171.36 31.42 171.36 149.09 300.51 148.9 300.51 31.22 171.36 31.42"/>
              <g>
                <path class="cls-15" d="m182.57,81.31c.05-.83,1.42-.79,1.83-1.29.87-1.76,2.04-1.05,3.4-1.06,1.16-.93,3.57-1.76,5.22-1.52,2.09-.45,4.11-.37,2.56,2.07-.14,1.4,2.48.57,3.03,1.35.33.45.07,1.24.69,1.28,1.12-.3,2.49,1.16,2.92-.34.59-1.72,2.19-.83,4.13-.12,2.1,1.23,2.56-.44,4.42.26,1.75.22,2.34-5.25.15-4.3-.51.3-1.24.34-1.64-.07-.4-.41-.11.15-.91.27-.8.11-1.42-.41-1.97-1.28-.55-.87.11-1.4-.91-1.88-1.53-.67-2.5.46-1.35,1.47.33.45-.37,1.06-.77,1.17-.74-.58-1.58-2.31-2.19-3.5-.39-.9-4.43-4.7-4.02-2.11,0,1.15,2.91,2.22,2.99,2.94.07.79-1.31,2.71-2.08,1.78.67-.85,1.42-1.19-.29-2.11-1.4-.56-2.27-3.36-3.36-2.41-.69.53-1.06.64-1.83.46-.77-.19-1.21-.26-1.39.15.13,1.42-1.61,1.24-2.08,2.38.05,1.01-.61,2.25-1.64,2.34-1.09.06-1.49.69-2.63.04-1.78.27-1.36-.91-1.02-2.37.31-1.55-.41-3.6,1.97-2.64,2.02.93,3.72-.59,2.74-2.42-3.48-2.03.91-1.52,2.23-3.13,3.4-4.44,3.5-.01,3.87-4.23.78-1.84,2.09-.33,1.53.64-.37.42-.66,1.06.04.98,1.61-.19,3.43.34,5-.61.8-.41.4-1.05.88-1.92.98-1.55-1.31-2.91-.15-4.07,1.47-.75,2.98-2.11.41-2.08-.69,0-.8.94-1.46,1.32-1.02.24-1.95,1.93-1.2,2.57.33.23.55,1.13.04,1.55s-.15,1.13-.73,1.36c-.58.23-.95.57-1.35.12-.84-.37-1.26-2.99-2.08-2.03-2.15,1.7-3.15-.81-2.3-2.37,4.01-.99,5.85-6.87,10.55-6.28,2.04.85,4.71.57,6.28,1.92,1.08,1.81-1.39,1.48-2.3,1.63-.55.08.26.52.44,1.15.36,1.83,2.31.78,2.15-.43-.15-.45.07-1.47.66-1.28,1.86.59,4.85-.51,6.65-1.1,1.37-.9,2.26-2.21,4.16-1.7.77.34,2.01.6,1.97,0-1.8-6.81,1.93-2.47,4.49-4.38.26-.53.07-1.17.58-1.4.51-.23,1.53-.19,1.94-.68.4-.49.15-.98.8-1.47.66-.49,1.57-2.04,2.41-1.97.84.07,1.53,0,2.08-.49.55-.49.18-1.77,1.06-2.04.88-.27,1.17-.04,1.53.64.86,1.14,2.81.11,3.54,1.81.44.41.29.68-.11,1.28-1.04,2.06,4.01,1.44,5.29,1.39,3.08-.03,1-1.68,3.47-1.44,1.21.07,2.23.83,2.34,1.39-.23.76.62,3.63,1.75,2.49.51-.82,2.67-.55,2.88-2.08.29-.87.47-.79,1.17-.61.69.19,1.97.64,2.41,1.28.44.64,1.13,1.62,1.79,1.43,1.01-.19,3.44-1.03,4.13.03.38,1.87,3.74.07,4.82.48.88.15.66-.64,1.39-.98s2.74-.65,3.54-.53c2.87.88,6.07.83,9.02,1.12,1.33-.22,3.36-1.5,4.02-.08.18.72-.22.91-.37,1.4-.15.49.47,1.7-.07,2.04-1.43.82-2.62-.95-4.05-.37-.69.19-.77.11-1.17.34-.41.79-1.23,2.03-.66,3.09.44.68,1.17.94,1.1,1.32-1.12.41-2.72,3.33-3.4,3.82-.4.08-.95-.49-1.61-.04-.66.45-1.5.38-1.57.83-.82,1.84,1.13,1.18,1.64,2.83.65,1.55-.44,3.48-1.24,4.57-.66.34-.66-.04-.95-1.09-.84-1.92-.93-5.63-.62-7.32-.15-.34-.44-.04-1.02-.07-.58-.04-1.17-1.02-1.75-.56-.51.61.62,3.89-1.35,2.57-.8-.59-4.7-.22-5.37.27.07.67-1.5,3.42-.58,3.77.66.23,1.31,1.28,2.01.94,2.16-1.2,2.59,1.33,2.67,3.01.28,1.44.09,4.18-.95,4.9-.69.23-1.06-.53-1.5-.22s-.47,1.06-.26,1.36c.22.3.11.57,0,1.06.09,1.02,3.8,2.65,1.94,3.84-1.4.64-3.14-4.47-4.67-3.76-.55.3-1.1.3-1.46-.3-1.15-1.2-1.03,1.77.04,1.85,4.5-.15-.29,1.21,1.64,2.64.84.56,1.68,2.37,1.97,2.94.29,1.24-.68,4.15-1.72,5.17-.84.72-2.74,1.32-3.25,1.66-.51.34-1.79-.53-2.41,0-.62.53-1.17.94-1.2,1.7-.12,1.54,2.9,3.13,2.63,4.97.22,1.02.18,1.21-.44,1.74-1.42,2.32-2.99-.23-4.16-1.2-.58-.38-1.06-.9-1.2-.22-.15.68-.62,2.03-.44,2.45.71.49.49,2.28,1.39,2.42,1.37.35,1.48,1.96,1.64,3.28,1.35,2.13-1.12,1.11-1.72-.3-.33-.79-.4-2.19-.88-2.83-2.09-1.69-1.08-4.46-1.72-6.9-.8-2.55-1.33-.27-2.34-.6-.33-.34.15-1.32-.37-1.85-1.03-.58-1.48-3.21-2.59-2.94-1.36.63-2.69-.4-3.14,1.33-5.95,6.59-2.44,1.72-3.94,8.3-1.73,5.18-4.99-7.24-4.97-8.48,0-1.17-1.34.14-2.15-.86-2.41-4.78-4.98-2.07-8.36-3.46-.99-1.19-3.26-.04-4.13-1.62-.55-.75-.91-1.7-1.72-1.58-.8.11-1.42.27-.91,1.1,1.55,1.62,2.3,5.04,4.86,3.09,1.03-1.16,1.58,1,2.56,1.13,2.38.45-.11,2.28-.37,3.32-1.33,2.09-3.54,2.17-5.7,3.82-1.88,1.1-3.39,1.98-3.51-.45-.28-1.55-1.82-3.54-2.96-4.52-.52-1.27-.2-1.89-1.35-2.98-.74-.56-1.16-3.12-2.34-2.64-.47.23-.18.98.29,1.96.45,1.79,1.23,2.25,1.83,3.58.07.64-.18,1.19.4,1.65,1.5.78.62,1.77,1.75,2.83.58.53,1.68,1.58,1.94,2.37.26.79.26,1.58,1.13,1.43,3.55-.43,5.71-3.24,3.25,2.52-1.05,3.98-4.1,4.34-5.92,8-2.02,2.14-.94,4.05-.18,5.85.03.92.35,4.6-.69,5.24-.92.32-3.53,2.43-3.29,3.29.35.39.67,2.79-.51,3.17-.91.53-.8.98-1.1,1.89-.29.91-1.53,2.57-1.97,3.44-.44.87-2.15,2-2.85,2s-1.9-.45-2.88,0c-.99.45-1.2.68-1.68,0-.47-.68-.15-1.09-.15-1.66,0-.57-1.83-2.86-2.12-4.18-.29-1.32,0-3.17-.29-3.66s-1.9-3.05-1.75-4.22c1.4-4.13,1.88-5.89-.33-9.81-1.59-2.22-2.14-2.56-1.06-5.17.43-1.89-1.36-1.91-2.63-2.18-.62-.38-.47-1.32-1.2-1.43-1.66-.44-4.07,1.68-5.55,1.1-1.89-.29-2.46,1.14-4.49-1.05-2.03-2.24-4.72-4.47-4.2-7.46.37-.79,1.02-2.04.69-2.91-.33-.87-.62-.75-.47-1.66,1.99-6.79,4.61-3.2,4.97-8.31Z"/>
                <path class="cls-15" d="m222.55,117.08c-.67-.14-1.36,1.45-2.43,2-2.06.42-1.54,2.38-1.51,3.61-.2.65-1.07,1.16-.88,2.01.19.85.63,2.31,1.51,2.01,1.94-1.23,4.82-7.93,3.31-9.63Z"/>
                <path class="cls-15" d="m273.08,64.65c-.59-.24-.47.42-.58,1.21-.54,1.61.86,3.75,1.46,4.98.15.57.58.19.77-.23.18-.42-.37-.64-.73-1.02-.37-.38-.26-.83,0-1.32.17-.89.25-3.21-.91-3.62Z"/>
                <path class="cls-15" d="m274.91,71.88c-.58,0-.4.68-.15,1.09s-.08.87-.04,1.32c.04.45.48.04.84-.3,1.41-1,1.29-2.59-.66-2.11Z"/>
                <path class="cls-15" d="m276.22,74.86c-1.74-.12.56,2.35-.99,3.13-.18.15-.36,1.06-1.02,1.02-.66-.04-.95.45-1.39.98-.44.53.29.68.4,1.36.65,2.69.75-.68,1.79-.98.62-.08.9-.76,1.49-1.28.59-.53,1.36-.64,1.18-1.36-.5-.99-.24-2.67-1.46-2.86Z"/>
                <path class="cls-15" d="m253.91,102.58c-1.22.34,2.07,2.85,2.23,3.73.88,1.27,2.7,4.69,4.02,5.35,1.36-.83.18-2.9-.62-3.96-.26-.68-.15-.83-.91-1.55-2.01-.87-2.25-3.29-4.71-3.58Z"/>
                <path class="cls-15" d="m268.12,101.35c-.5-.17-.73,1.17-1.28,1.59-.55.42-1.35,1.89-1.86,1.81-.51-.07-.04.75-.51.83-.47.08-.62-.68-1.06-.41-.58.48.31,4.34,1.57,4.26,1.02.15,2.99.18,3.14-.65.15-.83,1.42-2.68,1.06-3.51-.37-.83-.69-1.62-.22-2.07.47-.45.04-1.55-.84-1.85Z"/>
                <path class="cls-15" d="m263.7,112.03c-.82-.75-3.52-1.08-2.37.61.47.41,2.7,1.16,3.83,1.28,2.12.61,4.61-.08,6.32.36.33.2.95.56,1.64,0,3.53-2.77-2.92-.59-4.42-1.04-1.39-.26-3.94-.52-5-1.2Z"/>
                <path class="cls-15" d="m273.6,105.41c-.1-.19-.16-.09-.24.06-.6.97-2.21-.7-2.76.19-.65,1.43-1.11,4.28-.33,5.69.29.21.66-.85,1.02-.89,1.07.67,2.1,1.38,1.13-.97-.33-.65-.33-1.37,0-1.67.33-.3-.64-.45-.74-.98-.02-.59,2.91.48,1.91-1.44Z"/>
                <path class="cls-15" d="m278.93,106.73c-1.99-1.66-1.09,1.65,0,1.77.62.15.36.79.58,1.32.38,1,3.65.52,3.61,2.11,0,.92-2.06,1.85,0,1.47,2.62,1.27,1.57,1.03,3.98-.46.8-.12,1.42.53,1.75,1.32.33.79.57.79,1.32.68.98.25-1.37-4.25-1.58-4.67-1.35-.68-4.28-2.53-5.66-2.18-.66.69-1.88,2.49-2.37.68-.17-2.31.14-1.36-1.64-2.03Z"/>
                <path class="cls-15" d="m270.82,92.03c-.41-.73-.81.19-1.04,1.32-.46,2.28,1.05,3.03,1.85,4.86.74,1.44.73,3.16,2.18,4.03,1.31.46,1.03-3,.49-3.73.6-2.44-3.07-2.03-3.23-3.58.09-.94.16-2.19-.24-2.9Z"/>
                <path class="cls-15" d="m280.73,119c-.42-.61.05-.91.24-1.41.12-2.07-4.24-1.53-4.41.33-.78,1.46-1.66-.51-2.65,0-1.19.72-1.04,1.37-2.34,1.89-.49.23-.73.35-.73,1.01,0,.65-.17.98-.85,1.31-1.5.63-4.31,1.37-5.23,2.82-1.04,2.11.01,5.61.12,7.82-.68,1.12-.77,1.97.78,2.14.51-.08,1.14-.68,2.01-.69.86-.01,1.5.46,1.94,0,1.01-1.53,2.32-.56,3.85-1.25,2.02-.92,2.65,1.71,3.53,2.41.39.02,1.68-.81,2-.61,1.85,1.71.63,4.58,4.16,4.42,4.74,1.24,5.55-3.91,7.05-7.78.96-3.1,1.1-3.5-.45-5.81-.79-1.64-.65-2.36-1.85-3.37-.37-.45-.9-.63-.85-2.04.05-1.41-1.07-1.76-1.19-2.41-.12-.65-.07-2.31-.66-1.94-1.68,2.24.07,7.81-4.45,3.15Z"/>
                <path class="cls-15" d="m293.98,131.44c-.76.41.78,3.7-.44,4.26-1.43,1.12-3.82,4.45-4.67,6.04,2.09,2.76,3.15-2.44,4.56-3.1.66-.04.95-.76,1.35-1.43,1.67-1.97,1.41-1.19.22-3.24-.18-.91-.47-2.49-1.02-2.53Z"/>
              </g>
            </g>
          </g>
          <polygon class="cls-49" points="301.88 144.84 239.18 144.84 227.36 156.94 290.06 156.94 301.88 144.84"/>
          <g>
            <path class="cls-21" d="m224.52,94.83s-1.67-12.01-21.7-10.51c-20.04,1.5-22,20.49-13.8,29.4,8.2,8.91,28.97,3.44,31.9-7.51,1.6-5.97,3.6-11.38,3.6-11.38Z"/>
            <path class="cls-23" d="m211.32,98.71c-7.59,7.94-20.84,6.44-25.48-3.81-9.37,24.92,27.13,31.37,35.08,11.3,1.19-4.44,2.6-8.57,3.25-10.39-4.97-1.23-9.06-2.24-12.85,2.9Z"/>
            <path class="cls-33" d="m232.95,82.99s-.04,9.31-2.83,11.5c-2.79,2.19-9.81-3.01-7.97-10.7,1.84-7.69,10.15-4.93,10.8-.8Z"/>
            <path class="cls-40" d="m235.74,105.77c1.36-3.92-.75-5.34-3.1-9.63l-2.24-.46-1.29,5.98s2.16,2.88,4.01,5.22c1.01.15,1.95-.04,2.63-1.12Z"/>
            <path class="cls-33" d="m234.68,106.72c-1.34-2.25-2.53-5.09-4.05-7.45-.46.82-1.02,1.6-1.52,2.39,0,0,4.73,6.31,6.19,7.86.09-.37.18-.75.27-1.12-.32-.55-.67-1.09-.88-1.68Z"/>
            <path class="cls-33" d="m236.79,151.08c-.25.4.09,4.72.93,5.02.78.41,9.22-1.21,9.74-2.13,1.32-3.94-7.35-.45-6.86-3.83l-3.81.94Z"/>
            <path class="cls-33" d="m197.35,137.92c-.35-.32-4.65-.8-5.11-.04-.55.68-.55,9.28.25,9.97,3.62,2.04,1.82-7.14,5.06-6.01l-.2-3.92Z"/>
            <path class="cls-33" d="m227.16,114.33l-11.84,3.94s16.53,14.75,17.83,17.2c1.29,2.45,3.09,16.83,3.09,16.83l5.14-1.03c-1.99-20.69-3.93-20.26-14.21-36.94Z"/>
            <path class="cls-33" d="m216,115.33c-2.6,1.72-3.72,15.48-4.7,17.79-.23.67-9.53,3.37-14.27,4.36-.04,1.31.15,5.19.15,5.19,27.54-3.35,14.57-3.62,31.57-23.81l-12.74-3.53Z"/>
            <path class="cls-30" d="m230.5,88.8c-1.48-.1-2.93-.33-4.19-1.07-.25,1.31-.93,4.36-2.15,5.4-.08,2.19,5.54,3.38,6.14.93,0,0-.19-3.34.19-5.27Z"/>
            <path class="cls-14" d="m227.39,80.36c3.74.11,6.16-.34,5.06,4.9.37,1.76,1.9,2.29-.15,3.15-.18.2-1.29,2.57-2.2,2.91-.91.34-4.6-2.21-5.1-4.41-.49-2.2,1.03-6.23,2.38-6.55Z"/>
            <path class="cls-40" d="m230.35,93.61s-6.9-.05-9.32-2.23c0,0-1.52,1.68-2.16,1.86-.53.15-.71,7.45-1.65,10.95-.94,3.49-3.34,11.77-3.34,11.77,0,0,5.6,5.29,16.33,3.42,0,0,1.13-11.78.97-15.15-.42-3.5-.53-6.82,1.44-8.08,0,0-1.07-1.35-2.29-2.53Z"/>
            <path class="cls-33" d="m220.75,112.37c-.44-4.27.67-8.46-.58-12.78-.07-2.31-.14-3.87-1.51-5.28.22,4.8-3.89,18.79-4.78,21.65,0,0,3.56,3.34,10.42,3.77-2.53-1.9-3.12-4.18-3.55-7.35Z"/>
            <path class="cls-33" d="m229.19,81.42s-.16,1.11-1.07,2.14c-.4.45.53,2.2,0,2.74-.36.36-.68.15-.78-.77-.39-1.77-2.65-.72-1.35.76.58.52-.28,2.12-.28,2.12-.87.36-3.08-.95-2.35-2.63.46-1.07.65-1.47.34-1.85-.57-.68-1.13-2.29.34-3.13,2.02-1.16.7-2.06,2.67-2.02,1.97.04,3.2,1.58,2.48,2.62Z"/>
            <path class="cls-33" d="m232.56,83.96c-.03.2-.18.39-.18.39-.55-.98-3.05-.85-4.32-.7-1.25,1.97,3.74,2.92,4.12,1.97.15.11.36.05.36.05.31-1.16.01-1.71.01-1.71Z"/>
            <path class="cls-33" d="m229.33,95.68s-5.38-7.9-1.98-11.84c2.66-3.09,5.32-.28,5.32-.28,0,0,1.58-1.82-2.08-4.19-5.97-4.6-12.73,3.85-10.73,11.53.3,1.15,5.82,4.76,9.46,4.79Z"/>
            <path class="cls-33" d="m230.26,91.73s.69,2.34-.93,3.95c0,0,2.19-1.27,2.58-4.47l-1.65.52Z"/>
            <path class="cls-21" d="m223.75,98.96c.41.18.87.25,1.26.57.47.39,2.69,6.44,1.33,5.85-.22.11-.26.51-.49.58-.27.08-.37-.41-.65-.26-3.09,2.94-1.15-5.28-1.97-6.45l.53-.28Z"/>
            <path class="cls-14" d="m227.68,104.76c5.43-4.33-7.38-5.89-.16-2.75-2.5-1.38-4.69-.47-.5.96-.51-.32-1.54-.63-1.72-.56-1.69.26,1.66,1.5,1.62,1.4-3.13-1.23-.35,1.36.76.95Z"/>
            <path class="cls-14" d="m227.08,102.16c-.42-.3-.91.33-1.25.45.79-.32,2.74-2,.77-1.45,1.15-.93.49-1.63-.6-.64.76-1.05-.39-.98-.96-.28-.31.35-1.61,1.52-1.6.56.09-.64,0-.87-.05-.96-1.23.86-1.56,2.42-2.47,3.59.41.45.7,1.01,1.14,1.44,1.35-.27,2.56-.93,3.72-1.63.31-.29,1.49-.58,1.28-1.09Z"/>
            <path class="cls-40" d="m221.14,102.42s-3.79,2.04-3.98,2.39c0,0,2.19-4.16,3.1-4.9,1.5-1.23,1.13-6.95-1.29-6.68-.45.05-2.84,2.23-3.89,3.77-10.28,17.01-.43,17.5,8.16,8.1l-2.1-2.67Z"/>
            <path class="cls-21" d="m218.44,87.71s7.17,3.76,6.99,12.24c-2.91,1.17-4.15-6.2-8.35-5.24-3.04.91-1.87-6.72,1.35-7.01Z"/>
            <path class="cls-40" d="m233.78,104.69c-1.71-.64-3.48-2.1-4.95-3.07-.55,1.06-1,2.21-1.62,3.22,2.71,1.67,4.45,5.7,8.05,5.36,2.49-.61,2.17-4.58,1.61-6.02-.3-.77-1.64.98-3.08.51Z"/>
          </g>
          <text class="cls-51" transform="translate(191.53 69.8) scale(.92) skewX(-23.15)"><tspan x="0" y="0">STEAL</tspan></text>
          <g>
            <g>
              <path class="cls-33" d="m206.04,107.61c1.89-.3-.23-2.73-.78-.89l-6.49-2.81c.96-1.66-2.26-1.54-1.18.04-1.89.3.23,2.73.78.89l6.49,2.81c-.96,1.66,2.26,1.54,1.18-.04Z"/>
              <path class="cls-33" d="m197.59,107.61c-1.89-.3.23-2.73.78-.89l6.49-2.81c-.96-1.66,2.26-1.54,1.18.04,1.89.3-.23,2.73-.78.89l-6.49,2.81c.96,1.66-2.26,1.54-1.18-.04Z"/>
            </g>
            <path class="cls-33" d="m205.75,100.01c-.2-.67,1.64-3.11.88-4.83-.89-2.56-8.73-2.56-9.62,0-.76,1.72,1.08,4.16.88,4.83-.22.73.27,1.46,1,1.56.01.69.68,1.05.99.4.09.62.71.85.97.26.09.61.7.85.97.27.27.58.88.34.97-.27.27.59.89.36.97-.26.31.65.98.29.99-.4.73-.1,1.22-.83,1-1.56Zm-3.93-.93s1.27.82.63,1.35c-.4.33-.63-.24-.63-.24,0,0-.23.58-.63.24-.64-.53.63-1.35.63-1.35Zm-3.18-.97c-.03-1.23,2.44-1.23,2.41,0,.03,1.23-2.44,1.23-2.41,0Zm5.14.95c-1.57.02-1.57-1.92,0-1.9,1.57-.02,1.57,1.92,0,1.9Z"/>
          </g>
          <g>
            <path class="cls-20" d="m233.9,95.95c.4-1.28-.14-5.6-1.91-3.32.58,1.05.93,2.31.85,3.59l1.06-.26Z"/>
            <path class="cls-24" d="m233.31,95.77c10.2,1.63,2.73,11.76-3.49,12.69-4.62-1.54-6.23-16.83,3.49-12.69Z"/>
            <path class="cls-22" d="m230.51,94.91c-.16-.46-.21-.95-.15-1.43.89.12,1.71.67,2.15,1.44.08-.52.33-1.01.69-1.39.56.57,1.2,1.31,1,2.17.44-.74,1.41-.76,1.98-1.29.31.65.3,1.45-.03,2.09.59-.15,1.21-.23,1.83-.22-.43,2.43-7.42-.37-8.52-.72-.67-.3-.42-1.25-.79-1.76.74.08,1.43.5,1.84,1.12Z"/>
            <g class="cls-2">
              <path class="cls-15" d="m234.83,98.01c-.47.23-1.44.15-1.57-.45.12-.82,2.35-.27,1.57.45Z"/>
            </g>
            <path class="cls-24" d="m231.67,97.07c-.07,0-.07-.11,0-.11s.07.11,0,.11h0Z"/>
            <path class="cls-24" d="m231.72,97.06c-.16.07-.52.69-.56.41.12-.11.53-.69.56-.41h0Z"/>
            <path class="cls-25" d="m230.2,97.15c-.07,0-.07-.12,0-.12s.07.12,0,.12h0Z"/>
            <path class="cls-25" d="m230.24,97.13c-.19.1-.59.82-.67.54.16-.13.59-.82.67-.54h0Z"/>
            <path class="cls-25" d="m229.38,96.44c-.22.03-.64.71-.68.43.11-.13.69-.74.68-.43h0Z"/>
            <path class="cls-25" d="m228.3,96.01c-.22.1-.34.4-.54.46-.11-.14.62-.77.54-.46h0Z"/>
            <path class="cls-25" d="m231.67,97.19c-.07,0-.07-.11,0-.11s.07.11,0,.11h0Z"/>
            <path class="cls-25" d="m231.74,97.15c-.1.2-.09.99-.3.81.1-.2.09-.99.3-.81h0Z"/>
            <path class="cls-25" d="m233.23,98.6c-.06.11-.15.58-.26.36.06-.11.15-.58.26-.36h0Z"/>
            <path class="cls-25" d="m229.64,103.72c-.17.14-.13.86-.33.7.02-.17.18-.97.33-.7h0Z"/>
            <path class="cls-25" d="m228.82,102.86c-.07.12-.16.61-.28.38.07-.12.16-.61.28-.38h0Z"/>
            <path class="cls-25" d="m227.56,103.05c-.15.29.11,1.26-.16,1.19.02-.27-.12-1.33.16-1.19h0Z"/>
            <path class="cls-25" d="m228.64,105.03c-.03.88-.26.79-.11-.03.02-.07.13-.04.11.03h0Z"/>
            <path class="cls-25" d="m228.92,106.82c-.07.12.03.71-.16.52,0-.13,0-.76.16-.52h0Z"/>
            <path class="cls-25" d="m235.16,104.73c-.07.13-.47.71-.5.42.17-.05.42-.68.5-.42h0Z"/>
            <path class="cls-25" d="m233.85,106.09c-.18.19-.87.92-.95.62.32-.03.83-.85.95-.62h0Z"/>
            <path class="cls-25" d="m232.75,105.3c-.15.06-.42.62-.48.36.09-.11.46-.64.48-.36h0Z"/>
            <path class="cls-25" d="m231.57,107.07c-.28.13-.78.82-.93.59.28-.13.78-.82.93-.59h0Z"/>
            <path class="cls-25" d="m230.07,107.48c-.06.09-.42.41-.34.15.06-.01.37-.42.34-.15h0Z"/>
            <path class="cls-25" d="m230.95,105.06c-.19.12-.24.48-.42.53-.1-.13.42-.84.42-.53h0Z"/>
            <path class="cls-25" d="m234.34,99.51c.05-.19-.06-.8.15-.65-.01.22-.02.44-.03.65,0,.07-.12.07-.12,0h0Z"/>
            <path class="cls-25" d="m235.39,99.33c-.01-.2-.31-.76-.06-.68.01.2.31.76.06.68h0Z"/>
            <path class="cls-25" d="m237.77,98.5c.01-.23-.57-.73-.31-.77.12.14.62.84.31.77h0Z"/>
            <path class="cls-25" d="m236.82,98.54c-.04-.21-.44-.71-.19-.71.04.21.44.71.19.71h0Z"/>
            <g class="cls-2">
              <path class="cls-15" d="m237.69,98.8c1.06,1.72-.59,4.03-.84.81-2.81-1.46-.6-3.07.84-.81Z"/>
            </g>
            <g class="cls-2">
              <path class="cls-15" d="m236.03,95.82c-.01.58-1.19,1.31-1.17.39.2-.62,1.47-1.83,1.17-.39Z"/>
            </g>
            <g class="cls-2">
              <path class="cls-15" d="m233.9,95.31c-.1-.45-.34-.84-.58-1.21.33.64-.36,2.09.35,2.43.35-.06.29-.95.23-1.21Z"/>
            </g>
          </g>
          <path class="cls-40" d="m233.78,104.69c-1.71-.64-3.48-2.1-4.95-3.07-.55,1.06-1,2.21-1.62,3.22,2.71,1.67,4.45,5.7,8.05,5.36,2.49-.61,2.17-4.58,1.61-6.02-.3-.77-1.64.98-3.08.51Z"/>
          <path class="cls-14" d="m227.68,104.76c5.43-4.33-7.38-5.89-.16-2.75-2.5-1.38-4.69-.47-.5.96-.51-.32-1.54-.63-1.72-.56-1.69.26,1.66,1.5,1.62,1.4-3.13-1.23-.35,1.36.76.95Z"/>
          <path class="cls-50" d="m205.61,138.52c-7.53-4.17-20.18-4.04-26.33,2.44-4.15-.71-8.68-.46-12.54.75-4.02-1.55-8.94-1.98-13.45-1.28-3.13-2.33-7.01-3.37-11.22-3.69-3.85-9.43-20.04-9.77-27.89-5.31-11.67,6.79.64,16.52,9.86,16.16,2.65,7.22,13.22,8.8,20.59,7.74,5.53,4.05,14.11,4.68,20.95,2.61,7.62,2.78,18.24,2.25,23.82-3.63,9.94,3.12,30.41-6.33,16.21-15.79Z"/>
          <path class="cls-50" d="m80.03,141.7c-10.36,6.4-5.58,15.11,10.68,19.45,16.26,4.34,37.85,2.67,48.21-3.74,10.36-6.4,5.58-15.11-10.68-19.45-16.26-4.34-37.85-2.67-48.21,3.74Z"/>
          <g>
            <path class="cls-41" d="m149.72,118.87c.07,16.08,24.52,16.07,24.59,0-.07-16.08-24.52-16.07-24.59,0Z"/>
            <path class="cls-41" d="m165.42,108.87c.07,16.08,24.52,16.07,24.59,0-.07-16.08-24.52-16.07-24.59,0Z"/>
            <path class="cls-32" d="m127.98,100.93c.1,21.06,28.64,21.06,28.74,0-.1-21.06-28.64-21.06-28.74,0Z"/>
            <path class="cls-47" d="m127.56,69.84c-13.16,2.83-13.15,18.18-18.8,28.15-2.5,6-10.17,6.76-12.91,12.44-2.72,5.08-.98,12.59,5.03,14.28-6.85-.66-9.78-9.42-6.56-15.04,2.55-6.01,10.09-6.64,12.67-12.66,5.14-10.19,6.15-26.87,20.08-29.39l.48,2.22Z"/>
            <path class="cls-31" d="m121.07,123.12c-10.96,13.57,6.76,28.88,18.6,16.08,10.46-12.21-8.03-28.19-18.6-16.08Z"/>
            <path class="cls-41" d="m139.66,139.2c9.22-10.05-4.21-25.8-15.52-18.64-4.61,9.27,1.4,21.77,12.27,21.35,1.21-.73,2.32-1.63,3.25-2.71Z"/>
            <path class="cls-31" d="m112.86,86.75c-13.29,13.13,2.53,30.26,16.68,18.06,12.48-11.63-4.08-29.58-16.68-18.06Z"/>
            <path class="cls-31" d="m141.22,97.12c.07,16.08,24.52,16.07,24.59,0-.07-16.08-24.52-16.07-24.59,0Z"/>
            <path class="cls-41" d="m164.71,102.22c4-8.26-3.16-18.42-12.33-17.33-11.96,7.98.8,26.03,12.33,17.33Z"/>
            <path class="cls-41" d="m115.01,106.83c-15.68,10.16-3.67,30.14,12.66,21.07,14.59-8.86,2.01-29.79-12.66-21.07Z"/>
            <path class="cls-48" d="m132.52,110.65c-4.7-8.29-17.71-7.16-22.45.99-.05,17.17,31.56,18.09,22.45-.99Z"/>
            <path class="cls-31" d="m127.32,78.84c.07,16.08,24.52,16.07,24.59,0-.07-16.08-24.52-16.07-24.59,0Z"/>
            <path class="cls-10" d="m107.91,52.43c44.84,20.05,10.81,56.97,86.48,84.79l-.73,1.89c-76.88-28.12-43.28-64.91-86.75-84.21l1.01-2.47Z"/>
            <path class="cls-41" d="m131.29,128.27c-10.96,13.57,6.76,28.88,18.6,16.08,10.46-12.21-8.03-28.19-18.6-16.08Z"/>
            <path class="cls-37" d="m148.63,127.01c-10.42-10.31-23.13,8.08-13.91,15.91,9.29,7.87,25.63-6.59,13.91-15.91Z"/>
            <path class="cls-41" d="m115.69,100.68c.07,16.08,24.52,16.07,24.59,0-.07-16.08-24.52-16.07-24.59,0Z"/>
            <path class="cls-37" d="m140.21,99.43c.4-10.63-19.91-16.43-20.88-4.26-.37,11.6,16.79,14.88,20.88,4.26Z"/>
            <path class="cls-46" d="m123.88,91.97c-.81,4.78,10.94,6.43,11.48,1.62.81-4.78-10.94-6.43-11.48-1.62Z"/>
            <path class="cls-37" d="m173.4,112.89c12.53-13.86-4.21-30.07-17.66-17.1-11.81,12.31,5.73,29.31,17.66,17.1Z"/>
            <path class="cls-46" d="m174.52,94.06c-8.8-8.93-29.21,3.83-17.45,14.83,9.04,9.78,28.27-4.14,17.45-14.83Z"/>
            <path class="cls-38" d="m167.37,98.05c5.91,1.25,7.12-4.56,1.2-5.78-5.45-1.19-6.68,4.69-1.2,5.78Z"/>
            <path class="cls-37" d="m194.34,136.79c17.57-6.35,10.4-28.53-7.56-23.39-16.21,5.32-8.7,28.56,7.56,23.39Z"/>
            <path class="cls-37" d="m190.79,148.14c18.06,4.8,24.81-17.51,7.12-23.53-16.36-4.87-23.43,18.51-7.12,23.53Z"/>
            <path class="cls-46" d="m197.91,124.61c-11.68-2.26-12.56,17.39-1.39,19.52,16.62,4.67,14.36-16.09,1.39-19.52Z"/>
            <path class="cls-38" d="m197.1,135.88c6.59,5.17,12.24-1.79,5.83-7.18-5.88-4.88-11.82,2.43-5.83,7.18Z"/>
            <path class="cls-45" d="m185.35,129.15c16.91-7.94,7.73-29.37-9.68-22.6-15.65,6.79-6.04,29.24,9.68,22.6Z"/>
            <path class="cls-43" d="m187.94,125.46c-11.12,5.23-22.24-8.02-14.72-17.55-17.79,14.89,10.08,33.44,19.9,13.79-1.42,1.59-3.2,2.91-5.18,3.76Z"/>
            <path class="cls-39" d="m185.47,114.88c5.53,2.95,9.33-3.46,3.49-6.44-5.56-3.09-9.11,3.46-3.49,6.44Z"/>
            <path class="cls-46" d="m196.94,121.05c3.72,3.79,8.42-.44,4.45-4.32-3.71-3.91-8.24.49-4.45,4.32Z"/>
            <path class="cls-46" d="m181.38,102.74c3.56,2.89,7.24-.16,3.43-3.53-3.11-2.65-7.04.76-3.43,3.53Z"/>
            <path class="cls-37" d="m128.3,103.44c-15.69,10.14-3.71,30.14,12.63,21.09,14.6-8.84,2.05-29.79-12.63-21.09Z"/>
            <path class="cls-46" d="m145.81,107.28c-5.69-11.21-27.7-4.57-20.13,8.53,5.33,10.09,28.46,4.39,20.13-8.53Z"/>
            <path class="cls-38" d="m139.2,103.26c-6.73-1.77-8.8,6.18-2.06,7.91,6.2,1.69,8.3-6.37,2.06-7.91Z"/>
            <path class="cls-37" d="m167.16,142.26c-7.6,17.07-29.21,8.31-22.79-9.23,6.48-15.79,29.12-6.62,22.79,9.23Z"/>
            <path class="cls-11" d="m160.66,125.56c-13.44-6.12-16.46,16.74-5.8,20.55,14.35,4.87,18.09-15.86,5.8-20.55Z"/>
            <g>
              <path class="cls-6" d="m143.58,61.75c-6.66.85-5.64-1.24-11.44,3.32-2.19,4.97-3.83,9.79-3.99,15.32,1.57.68,3.15,1.34,4.74,1.97,1.69-.27,3.38-.53,5.08-.78.16,1.68.36,3.35.59,5.02,2.97,2.01,4.72,4.99,6.92,7.74,2.62-2.86,5.52-5.3,8.91-7.19.7-2.05,1.38-4.1,2.03-6.17,2.04.74,4.09,1.41,6.18,2,2.61-1.1,5.23-1.35,8.04-1.3,3.61-2.98,7.63-4.93,11.96-6.64-14.55,1.09-26.31-7.81-39.01-13.32Z"/>
              <path class="cls-54" d="m143.58,61.75c-3.61-3.34-8.24-4.86-10.7-9.46.25-1.52.48-3.05.85-4.54,1.61-1.25,3.26-2.45,4.89-3.68,3.51,1.39,6.55,3.25,9.09,6.06,5.49-2.13,11.17.56,16.96-.96-.73,3.11-1.02,6.23.56,9.14-.88,1.03-1.71,2.05-2.52,3.14,4.81,1.36,8.11,4.75,12.57,6.66,1.66,3.21,3.97,5.48,7.3,6.96-14.55,1.09-26.31-7.81-39.01-13.32Z"/>
            </g>
            <g>
              <path class="cls-52" d="m109.1,71.17c4.16-1.03,5.52-3.13,9.82-1.18,2.49,4.71,2.23,9.99,2.81,15.15-.92,1.23-1.87,2.44-2.83,3.64-1.23.05-1.86.08-3.16.19.55,7.13-2.97,13.38-4.45,20.24-1.05-3.59-2.31-7.27-5.71-9.25-.66-2-1.42-3.94-2.24-5.88-1.27,1.56-2.56,3.11-3.88,4.63-2.23.29-3.78,1.44-5.38,2.94-1.22.06-2.45.14-3.68.13-1.08.61-2.15,1.22-3.2,1.86,6.48-11.27,12.3-23.42,21.9-32.46Z"/>
              <path class="cls-53" d="m109.1,71.17c.97-5.21,3.19-2.32.96-8.42-1.16-.7-2.31-1.37-3.31-2.29-1.56-.17-3.05-.48-4.56-.9-1.86,2.35-3.2,4.86-3.86,7.79-1.1.3-1.65.42-2.83.52-1.75,2.06-3.92,3.22-6.5,3.95.93,2.63,1.72,5.26,1.7,8.06,1.03.65,1.49.85,2.5,1.27-4.75,6.72-4.13,14.83-6,22.48,6.48-11.27,12.3-23.42,21.9-32.46Z"/>
            </g>
            <path class="cls-47" d="m121.52,61.43c21.75-10.48,39.09,16.1,61,13.46.02.02.04-.16.04-1.15l.05,2.67c-.04-.99-.06-1.17-.08-1.15-21.29,2.82-39.31-23.28-60.01-11.73l-1-2.09Z"/>
            <path class="cls-47" d="m126.88,69.8c-20.05-9.88-30.8,20.98-39.49,33.88.02.06.85.56.96.64l-2.29-1.37c.12.06.95.55,1.02.54,9.52-14.03,18.78-44.11,40.7-35.83l-.89,2.14Z"/>
            <path class="cls-43" d="m161.73,146.06c8.87,16.45,29.75,6.09,22.03-10.92-7.65-15.25-29.54-4.4-22.03,10.92Z"/>
            <path class="cls-38" d="m183.76,135.14c-7.27-14.19-23.79-5.1-17.62,8.79,8.62,14.54,24.64,6.98,17.62-8.79Z"/>
            <path class="cls-39" d="m171.48,140.68c6.11,8.79,15.89,2.24,10.09-6.76-5.34-8.18-15.62-1.3-10.09,6.76Z"/>
            <path class="cls-43" d="m139.4,116.58c-11.98,14.34,5.39,29.89,18.32,16.4,11.32-12.77-6.87-29.06-18.32-16.4Z"/>
            <path class="cls-38" d="m142.88,115.7c-9.33,10.84,5.59,24.19,15.33,13.73,8.86-9.6-6.77-23.59-15.33-13.73Z"/>
            <path class="cls-39" d="m152.21,121.88c5.89,2.32,8.89-5.38,2.98-7.66-5.42-2.19-8.46,5.61-2.98,7.66Z"/>
          </g>
          <g>
            <path class="cls-20" d="m90.97,73.07c-1.64-9.2-1.06-19.63,4.94-27.13,2.7-.18,7.18,2.45,7.65,5.38-3.98,6.76-5.97,15.22-5.52,23.52l-7.07-1.77Z"/>
            <path class="cls-24" d="m94.9,71.86c-13.24,5.22-38.67,7.92-33.8,34.38,3.17,17.22,38.82,52.3,57.1,50.43,19.9-2.04,23.88-45.73,23.89-61.74.01-25.58-23.66-32.34-47.18-23.07Z"/>
            <path class="cls-22" d="m113.62,66.09c1.05-3.07,1.39-6.37,1-9.58-5.92.77-11.4,4.45-14.36,9.64-.55-3.47-2.18-6.76-4.61-9.29-3.76,3.8-8,8.77-6.71,14.48-2.94-4.94-9.41-5.1-13.2-8.61-2.08,4.35-2.01,9.67.19,13.97-3.98-1.03-8.09-1.54-12.2-1.5,2.96,15.93,49.59-2.24,56.91-4.83,4.48-1.99,2.78-8.29,5.27-11.76-4.93.53-9.56,3.36-12.3,7.49Z"/>
            <g class="cls-2">
              <path class="cls-15" d="m84.76,86.85c3.15,1.54,9.64,1.04,10.52-2.99-.63-5.5-15.88-1.65-10.52,2.99Z"/>
            </g>
            <path class="cls-24" d="m105.84,80.56c.49,0,.5-.77,0-.77s-.5.77,0,.77Z"/>
            <path class="cls-24" d="m105.54,80.48c.84.33,3.82,4.84,3.74,2.73-.6-.54-3.83-4.82-3.74-2.73h0Z"/>
            <path class="cls-25" d="m115.7,81.04c.49,0,.5-.77,0-.77s-.5.77,0,.77Z"/>
            <path class="cls-25" d="m115.44,80.91c1.58,1.07,2.76,3.84,4.44,4.19.53-.55-5.05-6.54-4.44-4.19h0Z"/>
            <path class="cls-25" d="m121.15,76.32c1.79.64,2.99,3.13,4.56,3.44.66-.85-5.43-5.74-4.56-3.44h0Z"/>
            <path class="cls-25" d="m128.4,73.44c1.45.65,2.3,2.66,3.62,3.09,1.03-.66-4.59-5.43-3.62-3.09h0Z"/>
            <path class="cls-25" d="m105.84,81.36c.49,0,.5-.77,0-.77s-.5.77,0,.77Z"/>
            <path class="cls-25" d="m105.39,81.1c.43.8.96,7.42,2.01,5.42-.43-.8-.97-7.42-2.01-5.42h0Z"/>
            <path class="cls-25" d="m95.46,90.78c.53.82.48,2.57,1.44,2.85.81-.12-1.16-4.84-1.44-2.85h0Z"/>
            <path class="cls-25" d="m119.41,124.96c.93.68,1.13,6.24,2.19,4.65.04-.78-1.52-6.98-2.19-4.65h0Z"/>
            <path class="cls-25" d="m124.9,119.2c.57.88.57,2.69,1.57,3.03.82-.12-1.31-5.03-1.57-3.03h0Z"/>
            <path class="cls-25" d="m133.36,120.52c.75,1.14-.42,9.73,1.05,7.97.07-1.04.43-10.06-1.05-7.97h0Z"/>
            <path class="cls-25" d="m126.11,133.77c.25,1.46.37,2.94.37,4.41,1.48,2.36.58-7.13-.37-4.41h0Z"/>
            <path class="cls-25" d="m124.22,145.71c.22,1.14.32,2.29.31,3.45,1.45,2.17.63-5.96-.31-3.45h0Z"/>
            <path class="cls-25" d="m82.57,131.75c.3.72,3.42,4.91,3.34,2.78-.95-.19-3.19-4.8-3.34-2.78h0Z"/>
            <path class="cls-25" d="m91.26,140.82c.54.9,6.82,6.57,6.37,4.14-1.44.04-6.92-6.45-6.37-4.14h0Z"/>
            <path class="cls-25" d="m98.62,135.55c1.18.71,1.86,2.66,3.08,2.95.83-.59-3.54-5.06-3.08-2.95h0Z"/>
            <path class="cls-25" d="m106.51,147.38c2.08,1.28,4.02,3.92,6.22,4.5.68-.43-7.24-6.8-6.22-4.5h0Z"/>
            <path class="cls-25" d="m116.56,150.09c.36.57,2.83,2.77,2.24,1.01-.48-.17-2.48-2.8-2.24-1.01h0Z"/>
            <path class="cls-25" d="m110.7,133.97c1.24.83,1.57,3.2,2.81,3.56.87-.54-3.16-5.95-2.81-3.56h0Z"/>
            <path class="cls-25" d="m87.99,96.81c-.25-.79.34-5.9-.98-4.36.25.79-.34,5.9.98,4.36h0Z"/>
            <path class="cls-25" d="m81,95.62c0-.84,2.17-5.67.42-4.56,0,.84-2.17,5.67-.42,4.56h0Z"/>
            <path class="cls-25" d="m65.11,90.11c-.16-1.13,4.02-5.62,2.09-5.13-.63.53-4.28,6.23-2.09,5.13h0Z"/>
            <path class="cls-25" d="m71.43,90.38c.12-.92,3.15-5.38,1.26-4.76-.12.92-3.15,5.38-1.26,4.76h0Z"/>
            <g class="cls-2">
              <path class="cls-15" d="m65.6,92.13c-3.02,4.04-4.41,18.51,3.6,15.72,2.13-2.82-.41-7.4,2-10.3,2.35-3.48,8.71-3.84,9.42-8.53-.86-9.62-12.96-1.77-15.02,3.11Z"/>
            </g>
            <g class="cls-2">
              <path class="cls-15" d="m76.75,72.16c.74,2.67,2.75,5.63,5.81,5.49,2.93-.13,2.26-3.67.65-5.11-2.32-3.97-8.16-9.1-6.46-.38Z"/>
            </g>
            <g class="cls-2">
              <path class="cls-15" d="m90.97,68.76c.64-2.99,2.29-5.58,3.9-8.09-2.02,3.68,2.15,15.1-2.36,16.21-2.36-.4-1.91-6.37-1.54-8.12Z"/>
            </g>
          </g>
          <g>
            <path class="cls-9" d="m51.31,83.79c.08-.4,1.4-2.62,1.95-2.39.64,1.44,1.23,3.32-1.25,4.17l-.7-1.78Z"/>
            <path class="cls-12" d="m31.82,78.78c6.09,4.53,9.88,9.19,19.42,4.82l.84,2.15c-4.48,7.54-14.2,5-18.38,2.49l-1.89-9.46Z"/>
            <path class="cls-34" d="m16.07,157.86s.26,4.21,1.07,4.27c2.37.02,6.92,0,9.26-.02-.33-2.17-5.57-1.75-6.45-4.79-.96-2.08-3.88.55-3.88.55Z"/>
            <path class="cls-16" d="m15.77,158.15c.12.45,5.25.61,5.37.15.39-6.37,12.97-44.59,12.03-45.64,0,0-14.63-6.42-14.64-6.43,0,0,1.81,19.96-.5,27.61-2.18,6.71-2.31,24.46-2.26,24.31Z"/>
            <path class="cls-13" d="m23.05,149.21c2.19-7.46,11.17-37.18,10.11-36.56l-14.63-6.42s1.81,19.96-.5,27.61c-.32,1.07,5.02,15.36,5.02,15.36Z"/>
            <path class="cls-34" d="m27.49,157.86s.26,4.21,1.07,4.27c2.37.02,6.92,0,9.26-.02-.33-2.17-5.57-1.75-6.45-4.79-.96-2.08-3.88.55-3.88.55Z"/>
            <path class="cls-16" d="m35.79,106.7s.19,12.93-2.05,28.81c-2.24,15.88-1.48,22.62-1.48,22.62-.72.67-5.27.55-5.36.18,0,0-3.2-15.88-2.28-23.83.92-7.95-4.39-27.27-4.39-27.27l15.55-.5Z"/>
            <path class="cls-9" d="m25.41,76.44l2.86,1.87,4.13-.77c-.06-.36-.92-4.68-1.02-5.16-1.03-.45-4.32-1.91-5.29-2.33.6,2-.51,6.8-.67,6.39Z"/>
            <path class="cls-8" d="m36.64,107.26c-.06,6.83-.51,22.79-.85,23.12-3.55,3.43-19.19-.94-20.02-4.72-.83-3.78,3.15-48.47,9.22-50.26,1.26-.37,8,1.81,8,1.81,2.41,5.73,3.3,20.41,3.65,30.06Z"/>
            <path class="cls-17" d="m26.5,71.45c.85,1.43,4,2.67,5.31,3.13-.18-.9-.45-2.25-.44-2.2-.57-.09-5.46-3.05-4.88-.93Z"/>
            <path class="cls-9" d="m32.83,72.14s-6.21,1.94-7.35-1.95c-1.15-3.88-2.72-6.25,1.2-7.65,3.92-1.4,5.13-.15,5.82,1.06.7,1.2,1.92,7.94.33,8.54Z"/>
            <path class="cls-34" d="m32.25,63.23c-.38,7.29-2.85,2.28-2.98,5.34.14,1.36,1.43,2.94-1.45,3.18-2.88.24-7.02-7.19-6.23-8.6,2.28-4.06,13.96-4.88,10.66.07Z"/>
            <path class="cls-12" d="m31.34,75.49c-.08-.03-4.62-2.07-5.15-1.9s-1.19,1.8-1.19,1.8l8,1.81s-.63-1.28-1.65-1.71Z"/>
            <g>
              <path class="cls-35" d="m61.4,97.65l-23.96,25.46c-1.14,1.26-2.55-.79-3.35-1.44-3.08-.67,24.1-26.55,23.9-27.23,1.11-1.47,4.78,2.04,3.4,3.2Z"/>
              <path class="cls-34" d="m47.96,111.94l-10.51,11.17c-1.14,1.26-2.55-.79-3.35-1.44-.5-.47-.52-1.26-.05-1.76l10.51-11.17,3.4,3.2Z"/>
              <path class="cls-34" d="m86.83,68.39c-19.32-18.27-46.6,10.37-27.65,28.76,18.87,17.64,46.01-10.64,27.65-28.76Zm-1.47,26c-15.37,16.27-40.38-7.04-25.02-23.54,15.57-16.31,40.31,7.16,25.02,23.54Z"/>
              <g class="cls-3">
                <path class="cls-29" d="m85.36,94.39c-15.38,16.28-40.38-7.07-25.02-23.54,15.55-16.31,40.31,7.15,25.02,23.54Z"/>
                <path class="cls-26" d="m85.36,94.39c-14.16,15.33-31.05-12.03-18.1-23.75,4.92-5.8,12.1-6.03,17.36-.53,6.91,6.5,7.24,17.37.74,24.28Z"/>
              </g>
            </g>
            <g>
              <path class="cls-9" d="m49.72,102.17c.99-.23,1.65-.98,1.79-1.11,0,0,.42.03-.07.93-.61,1.08,1.03.18,2.12.58,1.05,2.56-3.53,3.07-5.52,1.68l.28-1.67c.48.21.93-.26,1.4-.41Z"/>
              <path class="cls-12" d="m27.37,77.2s-12.6,2.4,3.71,20.65c2.61,2.92,16.7,6.72,16.7,6.72,0,0,1.43-1.22.71-2.2,0,0-9.7-7.05-11.84-8.17-1.6-1.53-4.42-17.13-9.28-17Z"/>
            </g>
            <path class="cls-9" d="m51.66,84.01c.33-.49.83-2.53,1.31-3.04.49-.12.46.71.2,1.19-.3,1.25-.12,2.38-1.5,1.85Z"/>
          </g>
          <g>
            <g>
              <rect class="cls-28" x="67.92" y="38.21" width="17.89" height="2.26" transform="translate(-3.37 71.26) rotate(-48.8)"/>
              <rect class="cls-28" x="75.73" y="47.75" width="2.26" height="18.77" transform="translate(-18.84 53.63) rotate(-34.53)"/>
              <rect class="cls-28" x="47.45" y="47.27" width="20.04" height="2.26" transform="translate(-1.9 2.36) rotate(-2.31)"/>
              <g>
                <path class="cls-44" d="m87.93,65.19c.11,6.37-9.93,6.39-9.83,0-.07-6.4,9.93-6.37,9.83,0Z"/>
                <path class="cls-42" d="m87.93,65.19c.14,6.05-8.94,3.95-8.52-1.2-.13-6.04,8.94-3.95,8.52,1.2Z"/>
                <path class="cls-15" d="m85.58,63.31c.02,1.24-1.92,1.24-1.91,0-.02-1.24,1.92-1.24,1.91,0Z"/>
              </g>
              <g>
                <path class="cls-44" d="m87.27,33.5c.11,6.37-9.93,6.39-9.83,0-.07-6.4,9.93-6.37,9.83,0Z"/>
                <path class="cls-42" d="m87.27,33.5c.14,6.05-8.94,3.95-8.52-1.2-.13-6.04,8.94-3.95,8.52,1.2Z"/>
                <path class="cls-15" d="m84.92,31.62c.02,1.24-1.92,1.24-1.91,0-.02-1.24,1.92-1.24,1.91,0Z"/>
              </g>
              <g>
                <path class="cls-44" d="m49.43,48.76c.11,6.37-9.93,6.39-9.83,0-.07-6.4,9.93-6.37,9.83,0Z"/>
                <path class="cls-42" d="m49.43,48.76c.14,6.05-8.94,3.95-8.52-1.2-.13-6.04,8.94-3.95,8.52,1.2Z"/>
                <path class="cls-15" d="m47.08,46.87c.02,1.24-1.92,1.24-1.91,0-.02-1.24,1.92-1.24,1.91,0Z"/>
              </g>
              <g>
                <path class="cls-27" d="m75.4,47.18c.14,8.04-12.53,8.07-12.41,0-.09-8.08,12.53-8.05,12.41,0Z"/>
                <path class="cls-18" d="m75.4,47.18c.18,7.64-11.29,4.98-10.76-1.51-.17-7.63,11.29-4.99,10.76,1.51Z"/>
                <path class="cls-15" d="m72.43,44.8c.02,1.56-2.43,1.56-2.41,0-.02-1.56,2.43-1.56,2.41,0Z"/>
              </g>
            </g>
            <g>
              <rect class="cls-28" x="19" y="11.59" width="17.89" height="2.26" transform="translate(10.36 37.9) rotate(-79.55)"/>
              <rect class="cls-28" x="35.9" y="18.63" width="2.26" height="18.77" transform="translate(-3.9 49.93) rotate(-65.27)"/>
              <rect class="cls-28" x="5.88" y="29.29" width="20.04" height="2.26" transform="translate(-14.02 13.6) rotate(-33.06)"/>
              <g>
                <path class="cls-7" d="m51.33,32.27c-.52,6.35-10.5,5.39-9.78-.96.56-6.38,10.5-5.37,9.78.96Z"/>
                <path class="cls-19" d="m51.33,32.27c-.45,6.03-9.28,3.05-8.36-2.03.46-6.03,9.28-3.06,8.36,2.03Z"/>
                <path class="cls-15" d="m49.22,30.12c-.1,1.23-2.04,1.04-1.9-.19.1-1.23,2.04-1.04,1.9.19Z"/>
              </g>
              <g>
                <path class="cls-7" d="m34.59,4.99c-.03,6.37-10.06,6.18-9.83-.21.07-6.4,10.06-6.16,9.83.21Z"/>
                <path class="cls-19" d="m34.59,4.99c.01,6.05-9.02,3.76-8.49-1.38,0-6.05,9.02-3.76,8.49,1.38Z"/>
                <path class="cls-15" d="m32.32,3.01c0,1.24-1.95,1.2-1.9-.04,0-1.24,1.95-1.2,1.9.04Z"/>
              </g>
              <g>
                <path class="cls-7" d="m9.75,38.41c-1.27,6.24-11.07,4.1-9.6-2.12,1.31-6.27,11.07-4.08,9.6,2.12Z"/>
                <path class="cls-19" d="m9.75,38.41c-1.17,5.93-9.58,1.93-8.06-3.01,1.17-5.93,9.58-1.93,8.06,3.01Z"/>
                <path class="cls-15" d="m7.91,36.02c-.25,1.21-2.14.79-1.86-.41.25-1.21,2.14-.79,1.86.41Z"/>
              </g>
              <g>
                <path class="cls-27" d="m31.52,24.06c-.75,8-13.35,6.64-12.34-1.37.8-8.04,13.34-6.62,12.34,1.37Z"/>
                <path class="cls-18" d="m31.52,24.06c-.67,7.61-11.77,3.71-10.52-2.69.67-7.6,11.77-3.71,10.52,2.69Z"/>
                <path class="cls-15" d="m28.83,21.37c-.15,1.55-2.59,1.28-2.39-.26.15-1.55,2.59-1.28,2.39.26Z"/>
              </g>
            </g>
          </g>
        </g>
      </g>
    </g>
  </g>
</svg>