<?xml version="1.0" encoding="UTF-8"?>
<svg id="_レイヤー_2" data-name="レイヤー 2" xmlns="http://www.w3.org/2000/svg" viewBox="0 0 301.83 294.22">
  <defs>
    <style>
      .cls-1, .cls-2, .cls-3, .cls-4, .cls-5 {
        stroke-width: .43px;
      }

      .cls-1, .cls-2, .cls-3, .cls-4, .cls-5, .cls-6, .cls-7, .cls-8 {
        fill: none;
        stroke-miterlimit: 10;
      }

      .cls-1, .cls-6, .cls-7 {
        stroke: #211815;
      }

      .cls-2 {
        stroke: #369f98;
      }

      .cls-3 {
        stroke: #d54835;
      }

      .cls-4 {
        stroke: #2f6cb1;
      }

      .cls-5 {
        stroke: #fff034;
      }

      .cls-9 {
        font-size: 8.38px;
      }

      .cls-9, .cls-10, .cls-11, .cls-12 {
        fill: #211815;
      }

      .cls-9, .cls-12 {
        font-family: DNPShueiGoGinStd-B-83pv-RKSJ-H, 'DNP ShueiGoGinStd';
      }

      .cls-6 {
        stroke-width: .28px;
      }

      .cls-7, .cls-8 {
        stroke-width: 1.42px;
      }

      .cls-8 {
        stroke: #d22d25;
      }

      .cls-11 {
        font-family: DNPShueiGoGinStd-M-83pv-RKSJ-H, 'DNP ShueiGoGinStd';
        font-size: 11.18px;
      }

      .cls-12 {
        font-size: 9.78px;
      }
    </style>
  </defs>
  <g id="pc">
    <g>
      <polyline class="cls-6" points="21.98 9.71 21.98 278.73 300.81 278.73"/>
      <text class="cls-11" transform="translate(5.52 17.38)"><tspan x="0" y="0">50</tspan><tspan x="0" y="25.14">40</tspan><tspan x="0" y="50.29">30</tspan><tspan x="0" y="75.43">20</tspan><tspan x="0" y="100.58">10</tspan><tspan x="7.11" y="125.72">0</tspan><tspan x="-5.52" y="150.86">-10</tspan><tspan x="-5.52" y="176.01">-20</tspan><tspan x="-5.52" y="201.15">-30</tspan><tspan x="-5.52" y="226.29">-40</tspan><tspan x="-5.52" y="251.44">-50</tspan></text>
      <text class="cls-11" transform="translate(23.03 291.03)"><tspan x="0" y="0" xml:space="preserve">-50　　　　　　  0　　　　　　  50　　　　　   100</tspan></text>
      <text class="cls-12" transform="translate(117.33 127.03)"><tspan x="0" y="0">2</tspan></text>
      <circle class="cls-5" cx="114.98" cy="124.46" r="1.4"/>
      <circle class="cls-3" cx="224.06" cy="193.76" r="2.79"/>
      <circle class="cls-5" cx="224.06" cy="204.72" r="2.79"/>
      <circle class="cls-2" cx="224.06" cy="215.67" r="2.79"/>
      <circle class="cls-4" cx="224.06" cy="226.63" r="2.79"/>
      <circle class="cls-5" cx="113.44" cy="128.09" r="1.4"/>
      <circle class="cls-5" cx="114.44" cy="129.63" r="1.4"/>
      <circle class="cls-5" cx="114.23" cy="131.39" r="1.4"/>
      <circle class="cls-5" cx="115.9" cy="130.97" r="1.4"/>
      <circle class="cls-5" cx="116.38" cy="132.09" r="1.4"/>
      <circle class="cls-5" cx="115.11" cy="133.09" r="1.4"/>
      <circle class="cls-5" cx="115.15" cy="134.4" r="1.4"/>
      <circle class="cls-5" cx="117.04" cy="134.44" r="1.4"/>
      <circle class="cls-5" cx="118.55" cy="134.29" r="1.4"/>
      <circle class="cls-5" cx="118.2" cy="136.07" r="1.4"/>
      <circle class="cls-5" cx="116.44" cy="136.84" r="1.4"/>
      <circle class="cls-5" cx="115.91" cy="138.02" r="1.4"/>
      <circle class="cls-5" cx="116.75" cy="139.16" r="1.4"/>
      <circle class="cls-3" cx="115.11" cy="140.42" r="1.4"/>
      <circle class="cls-3" cx="115.57" cy="141.71" r="1.4"/>
      <circle class="cls-3" cx="117.31" cy="142.06" r="1.4"/>
      <circle class="cls-3" cx="119.45" cy="141.32" r="1.4"/>
      <circle class="cls-3" cx="119.16" cy="142.69" r="1.4"/>
      <circle class="cls-3" cx="120.3" cy="143.51" r="1.4"/>
      <circle class="cls-3" cx="120.26" cy="144.66" r="1.4"/>
      <circle class="cls-3" cx="120.56" cy="145.49" r="1.4"/>
      <circle class="cls-3" cx="119.44" cy="146.48" r="1.4"/>
      <circle class="cls-3" cx="117.83" cy="147.03" r="1.4"/>
      <circle class="cls-3" cx="117.15" cy="145.87" r="1.4"/>
      <circle class="cls-3" cx="118.55" cy="144.43" r="1.4"/>
      <circle class="cls-3" cx="117.25" cy="143.66" r="1.4"/>
      <circle class="cls-3" cx="116.32" cy="143.56" r="1.4"/>
      <circle class="cls-5" cx="118.32" cy="139.24" r="1.4"/>
      <circle class="cls-5" cx="121.86" cy="133.62" r="1.4"/>
      <circle class="cls-4" cx="124.43" cy="131.46" r="1.4"/>
      <circle class="cls-4" cx="130.77" cy="131.86" r="1.4"/>
      <circle class="cls-4" cx="126.22" cy="132.82" r="1.4"/>
      <circle class="cls-4" cx="124.77" cy="133.73" r="1.4"/>
      <circle class="cls-4" cx="124.35" cy="135.62" r="1.4"/>
      <circle class="cls-4" cx="126.74" cy="135.19" r="1.4"/>
      <circle class="cls-4" cx="126.32" cy="136.43" r="1.4"/>
      <circle class="cls-4" cx="127.12" cy="136.71" r="1.4"/>
      <circle class="cls-4" cx="125.17" cy="137.79" r="1.4"/>
      <circle class="cls-4" cx="124.13" cy="137.05" r="1.4"/>
      <circle class="cls-4" cx="122.32" cy="136.39" r="1.4"/>
      <circle class="cls-4" cx="122.43" cy="138.03" r="1.4"/>
      <circle class="cls-4" cx="121.8" cy="138.92" r="1.4"/>
      <circle class="cls-4" cx="122.7" cy="139.47" r="1.4"/>
      <circle class="cls-4" cx="122.57" cy="141.46" r="1.4"/>
      <circle class="cls-4" cx="121.48" cy="142.66" r="1.4"/>
      <circle class="cls-4" cx="120.84" cy="140.61" r="1.4"/>
      <circle class="cls-4" cx="120.76" cy="143.53" r="1.4"/>
      <circle class="cls-4" cx="127.09" cy="139.08" r="1.4"/>
      <circle class="cls-4" cx="127.44" cy="140.3" r="1.4"/>
      <circle class="cls-2" cx="125.28" cy="145.84" r="1.4"/>
      <circle class="cls-2" cx="126.49" cy="145.45" r="1.4"/>
      <circle class="cls-2" cx="127.29" cy="144.37" r="1.4"/>
      <circle class="cls-2" cx="128.39" cy="143.98" r="1.4"/>
      <circle class="cls-2" cx="129.18" cy="143.01" r="1.4"/>
      <circle class="cls-2" cx="129.06" cy="140.82" r="1.4"/>
      <circle class="cls-2" cx="127.58" cy="139.2" r="1.4"/>
      <circle class="cls-2" cx="128.48" cy="138.03" r="1.4"/>
      <circle class="cls-2" cx="125.7" cy="139.9" r="1.4"/>
      <circle class="cls-2" cx="125.77" cy="141.47" r="1.4"/>
      <circle class="cls-2" cx="124.26" cy="142.62" r="1.4"/>
      <circle class="cls-2" cx="124.4" cy="143.78" r="1.4"/>
      <circle class="cls-2" cx="125.91" cy="142.34" r="1.4"/>
      <g>
        <line class="cls-1" x1="239.71" y1="43.31" x2="243.06" y2="46.65"/>
        <line class="cls-1" x1="239.71" y1="46.65" x2="243.06" y2="43.31"/>
      </g>
      <g>
        <line class="cls-1" x1="221.27" y1="235.13" x2="226.86" y2="240.72"/>
        <line class="cls-1" x1="221.27" y1="240.72" x2="226.86" y2="235.13"/>
      </g>
      <g>
        <line class="cls-1" x1="262.83" y1="28.53" x2="266.19" y2="31.88"/>
        <line class="cls-1" x1="262.83" y1="31.88" x2="266.19" y2="28.53"/>
      </g>
      <g>
        <line class="cls-1" x1="265.06" y1="25.19" x2="268.41" y2="28.54"/>
        <line class="cls-1" x1="265.06" y1="28.54" x2="268.41" y2="25.19"/>
      </g>
      <g>
        <line class="cls-1" x1="263.67" y1="23.8" x2="267.02" y2="27.15"/>
        <line class="cls-1" x1="263.67" y1="27.15" x2="267.02" y2="23.8"/>
      </g>
      <g>
        <line class="cls-1" x1="270.88" y1="21.57" x2="274.23" y2="24.93"/>
        <line class="cls-1" x1="270.88" y1="24.93" x2="274.23" y2="21.57"/>
      </g>
      <g>
        <line class="cls-1" x1="271.74" y1="23.52" x2="275.09" y2="26.87"/>
        <line class="cls-1" x1="271.74" y1="26.87" x2="275.09" y2="23.52"/>
      </g>
      <g>
        <line class="cls-1" x1="267.84" y1="31.59" x2="271.19" y2="34.94"/>
        <line class="cls-1" x1="267.84" y1="34.94" x2="271.19" y2="31.59"/>
      </g>
      <g>
        <line class="cls-1" x1="266.7" y1="34.4" x2="270.05" y2="37.75"/>
        <line class="cls-1" x1="266.7" y1="37.75" x2="270.05" y2="34.4"/>
      </g>
      <g>
        <rect class="cls-10" x="115.01" y="133.69" width="2.79" height="2.79"/>
        <rect class="cls-10" x="123.36" y="135.78" width="2.79" height="2.79"/>
        <rect class="cls-10" x="123.86" y="139.08" width="2.79" height="2.79"/>
        <rect class="cls-10" x="117.58" y="142.19" width="2.79" height="2.79"/>
      </g>
      <rect class="cls-10" x="221" y="247.38" width="5.59" height="5.59"/>
      <text class="cls-12" transform="translate(130.95 135.93)"><tspan x="0" y="0">4</tspan></text>
      <text class="cls-12" transform="translate(126.62 149.79)"><tspan x="0" y="0">3</tspan></text>
      <text class="cls-12" transform="translate(109.45 151.27)"><tspan x="0" y="0">1</tspan></text>
      <text class="cls-9" transform="translate(229.39 196.66)"><tspan x="0" y="0">1</tspan><tspan x="0" y="11.17">2</tspan><tspan x="0" y="22.35">3</tspan><tspan x="0" y="33.53">4</tspan><tspan x="0" y="44.7">Ungrouped Cases</tspan><tspan x="0" y="55.88">Group Centroid</tspan></text>
    </g>
    <circle class="cls-8" cx="260.94" cy="33.55" r="32.84"/>
    <circle class="cls-8" cx="119.59" cy="137.77" r="32.84"/>
    <g>
      <line class="cls-7" x1="235.18" y1="54.15" x2="146.47" y2="122.1"/>
      <polygon class="cls-10" points="232.21 51.97 239.22 51.06 236.51 57.58 232.21 51.97"/>
      <polygon class="cls-10" points="145.14 118.66 142.44 125.19 149.44 124.27 145.14 118.66"/>
    </g>
  </g>
</svg>