<?xml version="1.0" encoding="UTF-8"?>
<svg id="_レイヤー_2" data-name="レイヤー 2" xmlns="http://www.w3.org/2000/svg" xmlns:xlink="http://www.w3.org/1999/xlink" viewBox="0 0 421.8 216.74">
  <defs>
    <style>
      .cls-1, .cls-2, .cls-3, .cls-4, .cls-5, .cls-6, .cls-7, .cls-8 {
        fill: none;
      }

      .cls-2 {
        clip-path: url(#clippath-1);
      }

      .cls-9, .cls-10 {
        fill: #fff;
      }

      .cls-11 {
        fill: #fff034;
      }

      .cls-12 {
        fill: #009ce1;
      }

      .cls-13 {
        fill: #b6d7bd;
      }

      .cls-14 {
        fill: #b3292c;
      }

      .cls-15 {
        fill: #2f6cb1;
      }

      .cls-16 {
        fill: #4faa6d;
      }

      .cls-17 {
        fill: url(#_名称未設定グラデーション_10-2);
      }

      .cls-10 {
        font-family: AcuminConcept-Bold, 'Acumin Variable Concept';
        font-variation-settings: 'wght' 700, 'wdth' 100, 'slnt' 0;
        font-weight: 700;
      }

      .cls-10, .cls-18 {
        font-size: 11.48px;
      }

      .cls-18, .cls-19, .cls-20 {
        fill: #211815;
      }

      .cls-18, .cls-20 {
        font-family: DNPShueiGoGinStd-B-83pv-RKSJ-H, 'DNP ShueiGoGinStd';
      }

      .cls-3 {
        stroke-width: .51px;
      }

      .cls-3, .cls-4, .cls-5, .cls-6, .cls-7 {
        stroke-miterlimit: 10;
      }

      .cls-3, .cls-6 {
        stroke: #211815;
      }

      .cls-21 {
        fill: url(#_名称未設定グラデーション_10);
      }

      .cls-19 {
        font-family: DNPShueiGoGinStd-M-83pv-RKSJ-H, 'DNP ShueiGoGinStd';
        font-size: 10.2px;
      }

      .cls-4 {
        stroke: #1b2882;
      }

      .cls-4, .cls-5, .cls-6, .cls-7 {
        stroke-width: .34px;
      }

      .cls-5 {
        stroke: #106739;
      }

      .cls-7 {
        stroke: #d0187d;
      }

      .cls-20 {
        font-size: 8.93px;
      }

      .cls-8 {
        clip-path: url(#clippath);
      }
    </style>
    <linearGradient id="_名称未設定グラデーション_10" data-name="名称未設定グラデーション 10" x1="350.55" y1="57.15" x2="395.28" y2="43.6" gradientUnits="userSpaceOnUse">
      <stop offset=".01" stop-color="#4eb5e8"/>
      <stop offset="1" stop-color="#0088cf"/>
    </linearGradient>
    <linearGradient id="_名称未設定グラデーション_10-2" data-name="名称未設定グラデーション 10" x1="333.73" y1="184.52" x2="369.31" y2="164.87" xlink:href="#_名称未設定グラデーション_10"/>
    <clipPath id="clippath">
      <rect class="cls-1" x="319.76" width="102.05" height="102.05"/>
    </clipPath>
    <clipPath id="clippath-1">
      <rect class="cls-1" x="319.76" y="113.03" width="102.05" height="102.05"/>
    </clipPath>
  </defs>
  <g id="pc">
    <g>
      <g>
        <line class="cls-6" x1="137.99" y1="201.16" x2="137.99" y2="7.27"/>
        <line class="cls-6" x1="293.43" y1="104.21" x2="34.92" y2="104.21"/>
        <g>
          <line class="cls-3" x1="34.92" y1="101.66" x2="34.92" y2="106.76"/>
          <line class="cls-3" x1="86.62" y1="101.66" x2="86.62" y2="106.76"/>
          <line class="cls-3" x1="138.32" y1="101.66" x2="138.32" y2="106.76"/>
          <line class="cls-3" x1="190.03" y1="101.66" x2="190.03" y2="106.76"/>
          <line class="cls-3" x1="241.73" y1="101.66" x2="241.73" y2="106.76"/>
          <line class="cls-3" x1="293.43" y1="101.66" x2="293.43" y2="106.76"/>
        </g>
        <g>
          <line class="cls-3" x1="135.44" y1="201.16" x2="140.54" y2="201.16"/>
          <line class="cls-3" x1="135.44" y1="168.84" x2="140.54" y2="168.84"/>
          <line class="cls-3" x1="135.44" y1="136.53" x2="140.54" y2="136.53"/>
          <line class="cls-3" x1="135.44" y1="71.9" x2="140.54" y2="71.9"/>
          <line class="cls-3" x1="135.44" y1="39.58" x2="140.54" y2="39.58"/>
          <line class="cls-3" x1="135.44" y1="7.27" x2="140.54" y2="7.27"/>
        </g>
        <text class="cls-19" transform="translate(5.04 13.75)"><tspan x="0" y="0">15</tspan><tspan x="0" y="31.38">10</tspan><tspan x="6.49" y="62.76">5</tspan><tspan x="6.49" y="94.14">0</tspan><tspan x="1.45" y="125.52">-5</tspan><tspan x="-5.04" y="156.9">-10</tspan><tspan x="-5.04" y="188.28">-15</tspan></text>
        <text class="cls-19" transform="translate(17.47 213.83)"><tspan x="0" y="0" xml:space="preserve">  -20       　-10　          0    　    　10         　20             30</tspan></text>
        <text class="cls-20" transform="translate(173.41 66.58)"><tspan x="0" y="0">3</tspan></text>
        <text class="cls-20" transform="translate(250.06 123.43)"><tspan x="0" y="0">1</tspan></text>
        <text class="cls-20" transform="translate(176.61 129.18)"><tspan x="0" y="0">2</tspan></text>
        <text class="cls-20" transform="translate(69.3 119.6)"><tspan x="0" y="0">4</tspan></text>
        <text class="cls-18" transform="translate(28.49 86.69)"><tspan x="0" y="0">Augusta</tspan></text>
        <text class="cls-18" transform="translate(186.82 70.09)"><tspan x="0" y="0">Mindarie</tspan></text>
        <text class="cls-18" transform="translate(151.79 150.57)"><tspan x="0" y="0">Marmion</tspan></text>
        <text class="cls-18" transform="translate(235.47 151.21)"><tspan x="0" y="0">Oceav Reef</tspan></text>
        <circle class="cls-16" cx="157.45" cy="102.12" r="2.55"/>
        <circle class="cls-15" cx="247.51" cy="107.46" r="2.55"/>
        <circle class="cls-15" cx="237.29" cy="115.12" r="2.55"/>
        <circle class="cls-15" cx="241.12" cy="114.48" r="2.55"/>
        <circle class="cls-15" cx="243.68" cy="118.32" r="2.55"/>
        <circle class="cls-15" cx="242.4" cy="124.07" r="2.55"/>
        <circle class="cls-15" cx="241.76" cy="133.01" r="2.55"/>
        <circle class="cls-12" cx="39.27" cy="104.91" r="2.55"/>
        <circle class="cls-12" cx="59.08" cy="104.91" r="2.55"/>
        <circle class="cls-12" cx="38" cy="108.74" r="2.55"/>
        <circle class="cls-12" cx="48.86" cy="117.69" r="2.55"/>
        <circle class="cls-12" cx="55.25" cy="113.21" r="2.55"/>
        <circle class="cls-12" cx="55.88" cy="110.02" r="2.55"/>
        <circle class="cls-12" cx="60.36" cy="111.29" r="2.55"/>
        <circle class="cls-12" cx="65.47" cy="108.1" r="2.55"/>
        <circle class="cls-12" cx="64.83" cy="114.49" r="2.55"/>
        <circle class="cls-15" cx="237.29" cy="118.96" r="2.55"/>
        <circle class="cls-14" cx="174.69" cy="74.89" r="2.55"/>
        <circle class="cls-14" cx="163.83" cy="67.22" r="2.55"/>
        <circle class="cls-14" cx="161.28" cy="63.38" r="2.55"/>
        <circle class="cls-14" cx="162.55" cy="61.47" r="2.55"/>
        <circle class="cls-14" cx="166.39" cy="57.64" r="2.55"/>
        <circle class="cls-14" cx="179.16" cy="51.89" r="2.55"/>
        <circle class="cls-16" cx="166.39" cy="111.93" r="2.55"/>
        <circle class="cls-11" cx="166.39" cy="117.68" r="2.55"/>
        <circle class="cls-11" cx="57.8" cy="111.29" r="2.55"/>
        <circle class="cls-11" cx="239.2" cy="118.32" r="2.55"/>
        <circle class="cls-11" cx="169.58" cy="63.38" r="2.55"/>
        <circle class="cls-16" cx="166.39" cy="131.1" r="2.55"/>
        <circle class="cls-16" cx="171.5" cy="122.15" r="2.55"/>
        <circle class="cls-16" cx="169.58" cy="124.71" r="2.55"/>
        <rect class="cls-7" x="186.83" y="43.59" width="5.1" height="5.1"/>
        <rect class="cls-5" x="172.78" y="107.47" width="5.1" height="5.1"/>
        <rect class="cls-4" x="29.06" y="109.38" width="5.1" height="5.1"/>
        <rect class="cls-4" x="61.64" y="101.08" width="5.1" height="5.1"/>
        <rect class="cls-4" x="11.18" y="106.18" width="5.1" height="5.1"/>
        <rect class="cls-4" x="27.78" y="95.33" width="5.1" height="5.1"/>
      </g>
      <rect class="cls-21" x="319.76" width="102.05" height="102.05"/>
      <rect class="cls-17" x="319.76" y="113.03" width="102.05" height="102.05"/>
      <g class="cls-8">
        <path class="cls-13" d="m363.61-20.27c.12,2.03.12,5.04,1.81,6.13,1.69,1.08,2.05,1.2,2.17,2.52.12,1.32,1.44,3.25,2.15,2.88.73-.37,3.37-1.44,3.74-3,.37-1.56,1.68-4.57,0-5.89-1.69-1.32-4.2-1.32-5.3-3.98-1.08-2.64-1.67-4.79-2.76-7.57-1.08-2.76-3.59-5.16-1.91-6.96,1.66-1.81.47-2.52,2.88.83,2.4,3.37,3.84,1.69,4.57,4.1.71,2.4.59,4.81.83,6.96.24,2.17-.12,4.45,1.08,2.42,1.22-2.05,1.81-7.35,2.29-4.22.49,3.13.83,2.42.71,5.54-.1,3.13,1.09,5.52,2.05,5.77.95.24,2.17,1.08,2.64-.37.49-1.44,1.68-3.13,1.68-5.28s1.69-2.29,0-6.25c-1.68-3.98-4.69-7.57-5.64-10.34-.95-2.78-1.08-7.47-3.13-9.03-2.05-1.56-3.49-2.27-4.08-5.16-.61-2.88-.85-4.93-1.93-7.33-1.08-2.42-4.33-5.42-4.33-8.3s1.81-10.7,3.72-14.42c1.93-3.74,5.3-7.47,5.3-9.5s-.24-4.45.24-6.13c.47-1.69,1.69-5.3,1.69-5.3,0,0-4.45-9.6-4.1-12.14.37-2.52,5.54-14.07,6.62-15.74,1.08-1.68,4.2-5.91,4.33-2.78.12,3.13-1.32,3.49-1.44,6.74-.12,3.25.85,5.06,2.88,6.97,2.05,1.93,3.37,3.61,3.98,1.22.59-2.42.1-4.81,1.91-7.94,1.81-3.13,4.57-8.55,7.35-9.01,2.76-.49,9.24-2.76,12.02-4.45,2.76-1.68,5.77-2.66,8.77-6.01,3.01-3.37,6.62-5.79,8.53-7.57,1.93-1.81,4.1-2.9,6.5-4.1,2.4-1.2,6.5-2.89,8.65-4.45,2.17-1.56,2.88-.59,5.89-.49,3.03.12,4.34-2.03,6.74-.95,2.4,1.08,3.74,3.37,6.5,3.25,2.76-.12,13.1-5.64,16.22-7.69,3.13-2.05,5.64-.24,12.51-3.25,6.84-3.01,7.33-7.82,9.5-8.77,2.15-.97,6.38,2.05,12.39,1.44,6.01-.61,16.71-5.42,24.63-7.82,7.94-2.39,12.63-4.93,16.61-11.53,3.96-6.62,7.33-11.92,8.16-14.8.85-2.88.49-3.01,4.45-5.65,3.98-2.64,6.99-4.45,7.82-6.5.85-2.03,1.56-2.27.24-4.08-1.32-1.81-1.56-4.93-1.56-4.93,0,0-2.27-11.65-.12-15.15,2.17-3.49,4.33-3.72,7.09-6.25,2.78-2.52,4.22-1.93,5.06-3.96.85-2.05,1.2-3.74,2.64-5.54,1.44-1.79,3.25-4.79,3.25-2.28s0,3.49,1.44,5.4c1.44,1.93,6.13,7.35,7.82,12.87,1.69,5.52,4.69,8.41,4.93,5.06.24-3.37-.61-9.02,1.2-9.02s6.01,3.01,5.54.71c-.49-2.27,1.91-4.81-3.49-7.57-5.42-2.76-8.77-1.56-6.98-4.57,1.81-3.01,5.18-2.64,4.93-5.18-.24-2.52-3.47-1.56-1.08-3.35,2.4-1.81,3.49-3.25,3.72-1.44.24,1.79,0,3.23,1.22,3.47,1.2.24,2.76,3.73,3.84,2.42,1.08-1.32.24-2.76.36-3.61.12-.83,1.93-.96,3.25.36,1.32,1.32,1.56,5.16,3.84,5.89,2.29.73,4.45.37,3.98-2.64-.49-3.01-2.29-3.98-1.1-4.93,1.22-.95,4.22,1.2,4.81-.36.61-1.56.49-2.52-.47-3.59-.97-1.1,4.08-4.81,1.67-3.86-2.4.95-2.28,3.37-3.72,1.93-1.44-1.44-2.88-2.64-2.64-5.18.22-2.52-1.69-1.56.35-3.25,2.05-1.69,3.98-2.03,3.37-3.13-.59-1.07-2.27-2.64-.47-2.76,1.79-.12,3.35,2.64,3.59,1.44.24-1.2.97-3.01,2.29-3.13,1.32-.12.71.24,2.4-2.64,1.68-2.88,2.17-2.05,4.08-3.61,1.93-1.56,5.06,4.22,6.5,2.78,1.44-1.44,3.01-2.42.95-3.86-2.03-1.44-4.32-3.49-5.52-5.52-1.2-2.05,1.44-1.2,2.05-2.88.59-1.69,1.93-1.69,3.13-.97,1.2.73,2.88,2.05,3.13.49.24-1.56.47-1.68,1.56-4.32,1.08-2.64,3.13-6.25,3.25-3.74.1,2.54-.98,4.69.83,3.86,1.81-.85,2.76-1.56,3.13.24.37,1.79,1.32,6.48,2.27,3.84.97-2.64,1.93-1.32,1.22-4.32-.73-3.01-.61-4.08.83-4.69,1.44-.61,2.76.37,1.81-1.32-.95-1.69-2.76-1.69-1.56-3.13,1.2-1.44,4.08-3.13,4.08-1.32s-.83,5.04,0,4.81c.85-.24,1.44-3.62,2.42-4.93.96-1.32,2.03.59,3.01-1.08.95-1.68,4.32-5.18,3.47-2.54-.83,2.64-2.76,3.74-2.15,5.42.59,1.69,2.52,5.16,3,3.59.49-1.56-.24-3.59,1.2-4.69,1.44-1.08,2.52-.47,2.29-2.03-.24-1.56-1.56-2.29-.24-3.61,1.32-1.32,2.52-3.25,4.2-1.93,1.69,1.32,6.01,6.74,7.82,6.13,1.81-.59,2.64-3.37,4.57.12,1.93,3.49,4.69,5.89,7.09,8.55,2.42,2.64,4.81,5.52,7.11,6.6,2.27,1.1,4.2,1.2,2.76,3.73-1.44,2.52-3.13,6.72-1.93,6.72s3.96.61,4.69-1.2c.71-1.81,1.56-6.5,4.45-6.5s6.01,2.17,8.53,3.25c1.12.49,2.05.57,2.92.59V128.37c-.57.26-1.16.63-1.95,1.26-2.76,2.17-6.38,4.93-10.82,6.74-4.45,1.81-13.12,3.37-18.4,5.16-5.3,1.81-9.01,3.74-13.22,4.1-4.22.36-8.43.59-11.07-.24-2.64-.83-6.74-3.25-10.21-2.05-3.49,1.21-7.23,2.29-10.58,4.44-3.37,2.17-5.54,4.69-9.16,5.91-3.59,1.2-9.36,3.84-12.02,5.16-2.64,1.32-.22,2.76-6.25,3.98-6.01,1.2-9.24,1.91-11.29,5.89-2.05,3.96-2.42,7.45-3.13,9.48-.73,2.05-1.68,2.05-3.49,3.74-1.81,1.69-.37,2.76-2.15,4.08-1.81,1.32-2.05,2.88-3.74,3.49-1.68.61-1.32-.71-3.96.73-2.66,1.44-2.54,3.13-4.22,2.76-1.67-.37-2.28-3.86-4.45-3.86s-3.47.85-4.91.85-2.9-.61-3.98-.37c-1.08.24-1.2.83-2.88,1.08-1.69.24-3-1.08-4.45-.59-1.44.47-2.64,2.15-4.33,2.03-1.68-.12-.73-3.25-3.74-3.59-3.01-.36-3.59,1.08-5.77.95-2.17-.12-4.69-1.93-6.84-1.81-2.17.12-9.26,1.1-15.88,1.93-6.62.83-4.45,1.81-9.26,1.93-4.81.12-5.89-1.1-9.26.12-3.37,1.2-8.06,3.72-9.85,6.01-1.81,2.27-1.22,2.27-1.44,4.32-.24,2.03.22,2.88-1.1,3.37-1.32.47-2.64,0-3.96,1.08-1.32,1.07-2.29.61-3.37.36-1.08-.24-4.81-1.93-6.74-1.32-1.91.59-2.15,2.64-2.76,4.2-.59,1.56.61,1.56-1.81,2.27-2.4.73-6.01,1.69-6.48,4.45-.49,2.78-2.29,3.61-2.29,3.61,0,0-2.27-1.44-3.37.12-1.07,1.56-2.52.71-4.08,1.2-1.56.49.37,2.05-1.2,2.52-1.56.48-3.25-2.28-4.57-1.67-1.32.59-1.44,2.03-3.37,1.91-1.93-.12-5.52-.59-4.45-1.56,1.08-.96,2.27-.96,1.56-1.44-.73-.47-1.32-1.2-2.76-.83-1.44.37-1.44,1.32-2.05,1.56-.59.24-2.52.83-4.08.37-1.56-.49-1.56-1.69-3.13-.73-1.56.96-1.32,2.29-2.54,1.81-1.2-.49-.35-2.42-2.03-2.17-1.68.24-3,1.68-5.06,1.32-3.07-.53-6.25-5.04-8.06-5.28-1.79-.24-1.08.37-3-.61-1.91-.95-6.36-6.25-9.85-9.97-3.49-3.74-3.37-4.08-7.94-4.45-4.57-.37-5.28-.12-6.13-1.2-.83-1.09-3-10.11-2.4-15.04.59-4.91.47-6.72,1.69-6.01,1.2.73,4.67,3.13,6.72,2.29,2.05-.85,6.62-4.69,7.45-8.43.85-3.72.98-6.96-.12-10.82-1.08-3.84-1.68-4.32-.12-7.8,1.56-3.49,3.01-3.74,3.13-5.06.12-1.32-.83-3.25-.71-5.05.12-1.81.71-2.03.71-3.72s0-7.23-1.2-10.7c-1.2-3.49-10.82-24.4-10.82-24.4,0,0-6.13-13.58-6.13-19.25s0-17.08-.12-18.27c-.12-1.2-1.56-9.14-2.88-10.94-1.32-1.79-4.81-3.13-5.64-8.16-.85-5.06-1.44-7.11-3.37-10.33-1.93-3.25-2.05-3.61-4.45-5.79-2.4-2.15-5.18-6.72-4.69-9.38.49-2.64,2.29-2.76,1.56-6.36-.71-3.61-6.97-13.24-8.89-17.19-1.93-3.96-9.38-11.53-10.82-14.56-1.44-3-.71-4.33-2.4-7.09-1.68-2.76-4.57-5.89-5.05-8.28-.49-2.42-2.4-12.26-.24-9.87,2.17,2.4,5.06,16,7.09,16.95,2.05.95,2.9,0,3.01,2.05Z"/>
      </g>
      <g class="cls-2">
        <path class="cls-13" d="m311.73-37.3c.12,2.03.12,5.04,1.81,6.13,1.69,1.08,2.05,1.2,2.17,2.52.12,1.32,1.44,3.25,2.15,2.88.73-.37,3.37-1.44,3.74-3,.37-1.56,1.68-4.57,0-5.89-1.69-1.32-4.2-1.32-5.3-3.98-1.08-2.64-1.67-4.79-2.76-7.57-1.08-2.76-3.59-5.16-1.91-6.96,1.66-1.81.47-2.52,2.88.83,2.4,3.37,3.84,1.69,4.57,4.1.71,2.4.59,4.81.83,6.96.24,2.17-.12,4.45,1.08,2.42,1.22-2.05,1.81-7.35,2.29-4.22.49,3.13.83,2.42.71,5.54-.1,3.13,1.09,5.52,2.05,5.77.95.24,2.17,1.08,2.64-.37.49-1.44,1.68-3.13,1.68-5.28s1.69-2.29,0-6.25c-1.68-3.98-4.69-7.57-5.64-10.34-.95-2.78-1.08-7.47-3.13-9.03-2.05-1.56-3.49-2.27-4.08-5.16-.61-2.88-.85-4.93-1.93-7.33-1.08-2.42-4.33-5.42-4.33-8.3s1.81-10.7,3.72-14.42c1.93-3.74,5.3-7.47,5.3-9.5s-.24-4.45.24-6.13c.47-1.69,1.69-5.3,1.69-5.3,0,0-4.45-9.6-4.1-12.14.37-2.52,5.54-14.07,6.62-15.74,1.08-1.68,4.2-5.91,4.33-2.78.12,3.13-1.32,3.49-1.44,6.74-.12,3.25.85,5.06,2.88,6.97,2.05,1.93,3.37,3.61,3.98,1.22.59-2.42.1-4.81,1.91-7.94,1.81-3.13,4.57-8.55,7.35-9.01,2.76-.49,9.24-2.76,12.02-4.45,2.76-1.68,5.77-2.66,8.77-6.01,3.01-3.37,6.62-5.79,8.53-7.57,1.93-1.81,4.1-2.9,6.5-4.1,2.4-1.2,6.5-2.89,8.65-4.45,2.17-1.56,2.88-.59,5.89-.49,3.03.12,4.34-2.03,6.74-.95,2.4,1.08,3.74,3.37,6.5,3.25,2.76-.12,13.1-5.64,16.22-7.69,3.13-2.05,5.64-.24,12.51-3.25,6.84-3.01,7.33-7.82,9.5-8.77,2.15-.97,6.38,2.05,12.39,1.44,6.01-.61,16.71-5.42,24.63-7.82,7.94-2.39,12.63-4.93,16.61-11.53,3.96-6.62,7.33-11.92,8.16-14.8.85-2.88.49-3.01,4.45-5.65,3.98-2.64,6.99-4.45,7.82-6.5.85-2.03,1.56-2.27.24-4.08-1.32-1.81-1.56-4.93-1.56-4.93,0,0-2.27-11.65-.12-15.15,2.17-3.49,4.33-3.72,7.09-6.25,2.78-2.52,4.22-1.93,5.06-3.96.85-2.05,1.2-3.74,2.64-5.54,1.44-1.79,3.25-4.79,3.25-2.28s0,3.49,1.44,5.4c1.44,1.93,6.13,7.35,7.82,12.87,1.69,5.52,4.69,8.41,4.93,5.06.24-3.37-.61-9.02,1.2-9.02s6.01,3.01,5.54.71c-.49-2.27,1.91-4.81-3.49-7.57-5.42-2.76-8.77-1.56-6.98-4.57,1.81-3.01,5.18-2.64,4.93-5.18-.24-2.52-3.47-1.56-1.08-3.35,2.4-1.81,3.49-3.25,3.72-1.44.24,1.79,0,3.23,1.22,3.47,1.2.24,2.76,3.73,3.84,2.42,1.08-1.32.24-2.76.36-3.61.12-.83,1.93-.96,3.25.36,1.32,1.32,1.56,5.16,3.84,5.89,2.29.73,4.45.37,3.98-2.64-.49-3.01-2.29-3.98-1.1-4.93,1.22-.95,4.22,1.2,4.81-.36.61-1.56.49-2.52-.47-3.59-.97-1.1,4.08-4.81,1.67-3.86-2.4.95-2.28,3.37-3.72,1.93-1.44-1.44-2.88-2.64-2.64-5.18.22-2.52-1.69-1.56.35-3.25,2.05-1.69,3.98-2.03,3.37-3.13-.59-1.07-2.27-2.64-.47-2.76,1.79-.12,3.35,2.64,3.59,1.44.24-1.2.97-3.01,2.29-3.13,1.32-.12.71.24,2.4-2.64,1.68-2.88,2.17-2.05,4.08-3.61,1.93-1.56,5.06,4.22,6.5,2.78,1.44-1.44,3.01-2.42.95-3.86-2.03-1.44-4.32-3.49-5.52-5.52-1.2-2.05,1.44-1.2,2.05-2.88.59-1.69,1.93-1.69,3.13-.97,1.2.73,2.88,2.05,3.13.49.24-1.56.47-1.68,1.56-4.32,1.08-2.64,3.13-6.25,3.25-3.74.1,2.54-.98,4.69.83,3.86,1.81-.85,2.76-1.56,3.13.24.37,1.79,1.32,6.48,2.27,3.84.97-2.64,1.93-1.32,1.22-4.32-.73-3.01-.61-4.08.83-4.69,1.44-.61,2.76.37,1.81-1.32-.95-1.69-2.76-1.69-1.56-3.13,1.2-1.44,4.08-3.13,4.08-1.32s-.83,5.04,0,4.81c.85-.24,1.44-3.62,2.42-4.93.96-1.32,2.03.59,3.01-1.08.95-1.68,4.32-5.18,3.47-2.54-.83,2.64-2.76,3.74-2.15,5.42.59,1.69,2.52,5.16,3,3.59.49-1.56-.24-3.59,1.2-4.69,1.44-1.08,2.52-.47,2.29-2.03-.24-1.56-1.56-2.29-.24-3.61,1.32-1.32,2.52-3.25,4.2-1.93,1.69,1.32,6.01,6.74,7.82,6.13,1.81-.59,2.64-3.37,4.57.12,1.93,3.49,4.69,5.89,7.09,8.55,2.42,2.64,4.81,5.52,7.11,6.6,2.27,1.1,4.2,1.2,2.76,3.73-1.44,2.52-3.13,6.72-1.93,6.72s3.96.61,4.69-1.2c.71-1.81,1.56-6.5,4.45-6.5s6.01,2.17,8.53,3.25c1.12.49,2.05.57,2.92.59V111.34c-.57.26-1.16.63-1.95,1.26-2.76,2.17-6.38,4.93-10.82,6.74-4.45,1.81-13.12,3.37-18.4,5.16-5.3,1.81-9.01,3.74-13.22,4.1-4.22.36-8.43.59-11.07-.24-2.64-.83-6.74-3.25-10.21-2.05-3.49,1.21-7.23,2.29-10.58,4.44-3.37,2.17-5.54,4.69-9.16,5.91-3.59,1.2-9.36,3.84-12.02,5.16-2.64,1.32-.22,2.76-6.25,3.98-6.01,1.2-9.24,1.91-11.29,5.89-2.05,3.96-2.42,7.45-3.13,9.48-.73,2.05-1.68,2.05-3.49,3.74-1.81,1.69-.37,2.76-2.15,4.08-1.81,1.32-2.05,2.88-3.74,3.49-1.68.61-1.32-.71-3.96.73-2.66,1.44-2.54,3.13-4.22,2.76-1.67-.37-2.28-3.86-4.45-3.86s-3.47.85-4.91.85-2.9-.61-3.98-.37c-1.08.24-1.2.83-2.88,1.08-1.69.24-3-1.08-4.45-.59-1.44.47-2.64,2.15-4.33,2.03-1.68-.12-.73-3.25-3.74-3.59-3.01-.36-3.59,1.08-5.77.95-2.17-.12-4.69-1.93-6.84-1.81-2.17.12-9.26,1.1-15.88,1.93-6.62.83-4.45,1.81-9.26,1.93-4.81.12-5.89-1.1-9.26.12-3.37,1.2-8.06,3.72-9.85,6.01-1.81,2.27-1.22,2.27-1.44,4.32-.24,2.03.22,2.88-1.1,3.37-1.32.47-2.64,0-3.96,1.08-1.32,1.07-2.29.61-3.37.36-1.08-.24-4.81-1.93-6.74-1.32-1.91.59-2.15,2.64-2.76,4.2-.59,1.56.61,1.56-1.81,2.27-2.4.73-6.01,1.69-6.48,4.45-.49,2.78-2.29,3.61-2.29,3.61,0,0-2.27-1.44-3.37.12-1.07,1.56-2.52.71-4.08,1.2-1.56.49.37,2.05-1.2,2.52-1.56.48-3.25-2.28-4.57-1.67-1.32.59-1.44,2.03-3.37,1.91-1.93-.12-5.52-.59-4.45-1.56,1.08-.96,2.27-.96,1.56-1.44-.73-.47-1.32-1.2-2.76-.83-1.44.37-1.44,1.32-2.05,1.56-.59.24-2.52.83-4.08.37-1.56-.49-1.56-1.69-3.13-.73-1.56.96-1.32,2.29-2.54,1.81-1.2-.49-.35-2.42-2.03-2.17-1.68.24-3,1.68-5.06,1.32-3.07-.53-6.25-5.04-8.06-5.28-1.79-.24-1.08.37-3-.61-1.91-.95-6.36-6.25-9.85-9.97-3.49-3.74-3.37-4.08-7.94-4.45-4.57-.37-5.28-.12-6.13-1.2-.83-1.09-3-10.11-2.4-15.04.59-4.91.47-6.72,1.69-6.01,1.2.73,4.67,3.13,6.72,2.29,2.05-.85,6.62-4.69,7.45-8.43.85-3.72.98-6.96-.12-10.82-1.08-3.84-1.68-4.32-.12-7.8,1.56-3.49,3.01-3.74,3.13-5.06.12-1.32-.83-3.25-.71-5.05.12-1.81.71-2.03.71-3.72s0-7.23-1.2-10.7c-1.2-3.49-10.82-24.4-10.82-24.4,0,0-6.13-13.58-6.13-19.25s0-17.08-.12-18.27c-.12-1.2-1.56-9.14-2.88-10.94-1.32-1.79-4.81-3.13-5.64-8.16-.85-5.06-1.44-7.11-3.37-10.33-1.93-3.25-2.05-3.61-4.45-5.79-2.4-2.15-5.18-6.72-4.69-9.38.49-2.64,2.29-2.76,1.56-6.36-.71-3.61-6.97-13.24-8.89-17.19-1.93-3.96-9.38-11.53-10.82-14.56-1.44-3-.71-4.33-2.4-7.09-1.68-2.76-4.57-5.89-5.05-8.28-.49-2.42-2.4-12.26-.24-9.87,2.17,2.4,5.06,16,7.09,16.95,2.05.95,2.9,0,3.01,2.05Z"/>
      </g>
      <path class="cls-9" d="m397.24,74.73c-3.64,0-6.59,2.96-6.59,6.59,0,1,.23,2.01.68,2.92l5.23,10.21c.13.26.4.42.68.42s.55-.16.68-.42l5.12-9.99.12-.23c.44-.9.67-1.9.67-2.9,0-3.64-2.96-6.59-6.59-6.59Zm0,8.69c-1.16,0-2.1-.94-2.1-2.1s.94-2.1,2.1-2.1,2.1.94,2.1,2.1-.94,2.1-2.1,2.1Z"/>
      <path class="cls-9" d="m388.85,36.87c-3.64,0-6.59,2.96-6.59,6.59,0,1,.23,2.01.68,2.92l5.23,10.21c.13.26.4.42.68.42s.55-.16.68-.42l5.12-9.99.12-.23c.44-.9.67-1.9.67-2.9,0-3.64-2.96-6.59-6.59-6.59Zm0,8.69c-1.16,0-2.1-.94-2.1-2.1s.94-2.1,2.1-2.1,2.1.94,2.1,2.1-.94,2.1-2.1,2.1Z"/>
      <path class="cls-9" d="m374.62,4.77c-3.64,0-6.59,2.96-6.59,6.59,0,1,.23,2.01.68,2.92l5.23,10.21c.13.26.4.42.68.42s.55-.16.68-.42l5.12-9.99.12-.23c.44-.9.67-1.9.67-2.9,0-3.64-2.96-6.59-6.59-6.59Zm0,8.69c-1.16,0-2.1-.94-2.1-2.1s.94-2.1,2.1-2.1,2.1.94,2.1,2.1-.94,2.1-2.1,2.1Z"/>
      <text class="cls-10" transform="translate(322.38 23.39)"><tspan x="0" y="0">Mindarie</tspan></text>
      <text class="cls-10" transform="translate(321.03 56.59)"><tspan x="0" y="0">Ocean Reef</tspan></text>
      <text class="cls-10" transform="translate(343.56 92.85)"><tspan x="0" y="0">Marmion</tspan></text>
      <path class="cls-9" d="m345.4,175.37c-3.64,0-6.59,2.96-6.59,6.59,0,1,.23,2.01.68,2.92l5.23,10.21c.13.26.4.42.68.42s.55-.16.68-.42l5.12-9.99.12-.23c.44-.9.67-1.9.67-2.9,0-3.64-2.96-6.59-6.59-6.59Zm0,8.69c-1.16,0-2.1-.94-2.1-2.1s.94-2.1,2.1-2.1,2.1.94,2.1,2.1-.94,2.1-2.1,2.1Z"/>
      <text class="cls-10" transform="translate(324.25 206.18)"><tspan x="0" y="0">Augusta</tspan></text>
    </g>
  </g>
</svg>