<?xml version="1.0" encoding="UTF-8"?>
<svg id="_レイヤー_2" data-name="レイヤー 2" xmlns="http://www.w3.org/2000/svg" viewBox="0 0 327.62 212.51">
  <defs>
    <style>
      .cls-1 {
        fill: #fff034;
      }

      .cls-2 {
        fill: #8fcaef;
      }

      .cls-3 {
        fill: #e0872c;
      }

      .cls-4 {
        stroke: #fff034;
      }

      .cls-4, .cls-5, .cls-6 {
        stroke-width: 10.2px;
      }

      .cls-4, .cls-5, .cls-6, .cls-7, .cls-8, .cls-9 {
        fill: none;
        stroke-miterlimit: 10;
      }

      .cls-5 {
        stroke: #8fcaef;
      }

      .cls-6 {
        stroke: #e0872c;
      }

      .cls-10 {
        font-family: DNPShueiGoGinStd-B-83pv-RKSJ-H, 'DNP ShueiGoGinStd';
        font-size: 11.48px;
      }

      .cls-10, .cls-11 {
        fill: #211815;
      }

      .cls-7 {
        stroke-width: .51px;
      }

      .cls-7, .cls-8, .cls-9 {
        stroke: #211815;
      }

      .cls-11 {
        font-family: DNPShueiGoGinStd-M-83pv-RKSJ-H, 'DNP ShueiGoGinStd';
        font-size: 10.2px;
      }

      .cls-8 {
        stroke-width: .34px;
      }

      .cls-9 {
        stroke-width: .68px;
      }
    </style>
  </defs>
  <g id="pc">
    <g>
      <line class="cls-8" x1="188.43" y1="196.39" x2="188.43" y2="2.5"/>
      <line class="cls-8" x1="317.69" y1="99.45" x2="26.86" y2="99.45"/>
      <g>
        <line class="cls-7" x1="59.18" y1="96.89" x2="59.18" y2="102"/>
        <line class="cls-7" x1="26.86" y1="96.89" x2="26.86" y2="102"/>
        <line class="cls-7" x1="91.49" y1="96.89" x2="91.49" y2="102"/>
        <line class="cls-7" x1="123.81" y1="96.89" x2="123.81" y2="102"/>
        <line class="cls-7" x1="156.12" y1="96.89" x2="156.12" y2="102"/>
        <line class="cls-7" x1="220.75" y1="96.89" x2="220.75" y2="102"/>
        <line class="cls-7" x1="253.06" y1="96.89" x2="253.06" y2="102"/>
        <line class="cls-7" x1="285.38" y1="96.89" x2="285.38" y2="102"/>
        <line class="cls-7" x1="317.69" y1="96.89" x2="317.69" y2="102"/>
      </g>
      <g>
        <line class="cls-7" x1="185.88" y1="196.39" x2="190.98" y2="196.39"/>
        <line class="cls-7" x1="185.88" y1="164.08" x2="190.98" y2="164.08"/>
        <line class="cls-7" x1="185.88" y1="131.76" x2="190.98" y2="131.76"/>
        <line class="cls-7" x1="185.88" y1="67.13" x2="190.98" y2="67.13"/>
        <line class="cls-7" x1="185.88" y1="34.82" x2="190.98" y2="34.82"/>
        <line class="cls-7" x1="185.88" y1="2.5" x2="190.98" y2="2.5"/>
      </g>
      <text class="cls-11" transform="translate(5.04 8.98)"><tspan x="0" y="0">15</tspan><tspan x="0" y="31.38">10</tspan><tspan x="6.49" y="62.76">5</tspan><tspan x="6.49" y="94.14">0</tspan><tspan x="1.45" y="125.52">-5</tspan><tspan x="-5.04" y="156.9">-10</tspan><tspan x="-5.04" y="188.28">-15</tspan></text>
      <text class="cls-11" transform="translate(19.38 209.6)"><tspan x="0" y="0" xml:space="preserve">-25   -20  　-15 　-10　  -5     　0     　5    　10   　15   　20</tspan></text>
      <circle class="cls-9" cx="221.1" cy="21.18" r="19.65"/>
      <circle class="cls-9" cx="307.63" cy="126.21" r="19.65"/>
      <line class="cls-4" x1="231.94" y1="51.67" x2="284.12" y2="51.67"/>
      <text class="cls-10" transform="translate(236.72 55.74)"><tspan x="0" y="0">Uganda</tspan></text>
      <line class="cls-5" x1="30.9" y1="72.68" x2="83.08" y2="72.68"/>
      <text class="cls-10" transform="translate(40.53 76.75)"><tspan x="0" y="0">Kenya</tspan></text>
      <line class="cls-6" x1="243.25" y1="172.97" x2="295.43" y2="172.97"/>
      <text class="cls-10" transform="translate(245.04 177.04)"><tspan x="0" y="0">Ethiopia</tspan></text>
      <circle class="cls-1" cx="221.1" cy="10" r="2.55"/>
      <circle class="cls-1" cx="216.98" cy="9.03" r="2.55"/>
      <circle class="cls-1" cx="220.66" cy="16.24" r="2.55"/>
      <circle class="cls-1" cx="222.5" cy="19.36" r="2.55"/>
      <circle class="cls-1" cx="217.17" cy="23.2" r="2.55"/>
      <circle class="cls-1" cx="218.86" cy="29.53" r="2.55"/>
      <circle class="cls-1" cx="211.05" cy="24.45" r="2.55"/>
      <circle class="cls-3" cx="305.82" cy="118.13" r="2.55"/>
      <circle class="cls-3" cx="311.62" cy="121.53" r="2.55"/>
      <circle class="cls-3" cx="319.24" cy="125.42" r="2.55"/>
      <circle class="cls-3" cx="318.53" cy="134.95" r="2.55"/>
      <circle class="cls-3" cx="316.67" cy="131.85" r="2.55"/>
      <circle class="cls-3" cx="314.45" cy="133.46" r="2.55"/>
      <circle class="cls-3" cx="313.23" cy="130.97" r="2.55"/>
      <circle class="cls-3" cx="310.94" cy="130.85" r="2.55"/>
      <circle class="cls-3" cx="311.31" cy="138" r="2.55"/>
      <circle class="cls-3" cx="306.32" cy="141.61" r="2.55"/>
      <circle class="cls-3" cx="298.11" cy="134.05" r="2.55"/>
      <circle class="cls-3" cx="297.84" cy="127.01" r="2.55"/>
      <circle class="cls-3" cx="303.06" cy="131.26" r="2.55"/>
      <circle class="cls-3" cx="304.77" cy="129.11" r="2.55"/>
      <circle class="cls-3" cx="307.54" cy="124.82" r="2.55"/>
      <circle class="cls-3" cx="304.15" cy="123.2" r="2.55"/>
      <circle class="cls-3" cx="303.89" cy="120.28" r="2.55"/>
      <g>
        <circle class="cls-2" cx="57.31" cy="106.18" r="2.55"/>
        <circle class="cls-2" cx="54.02" cy="102.31" r="2.55"/>
        <circle class="cls-2" cx="50.24" cy="104.81" r="2.55"/>
        <circle class="cls-2" cx="46.42" cy="101.66" r="2.55"/>
        <circle class="cls-2" cx="51.44" cy="110.3" r="2.55"/>
        <circle class="cls-2" cx="47.69" cy="115.36" r="2.55"/>
        <circle class="cls-2" cx="43.24" cy="123.16" r="2.55"/>
        <circle class="cls-2" cx="52.8" cy="122.54" r="2.55"/>
        <circle class="cls-2" cx="54.92" cy="116.79" r="2.55"/>
        <circle class="cls-2" cx="59.84" cy="121.44" r="2.55"/>
        <circle class="cls-2" cx="59.8" cy="114.39" r="2.55"/>
        <circle class="cls-2" cx="56.51" cy="112.29" r="2.55"/>
        <circle class="cls-2" cx="58.87" cy="110.3" r="2.55"/>
        <circle class="cls-9" cx="46.48" cy="108.59" r="19.65"/>
      </g>
    </g>
  </g>
</svg>