<?xml version="1.0" encoding="UTF-8"?>
<svg id="_レイヤー_2" data-name="レイヤー 2" xmlns="http://www.w3.org/2000/svg" viewBox="0 0 389.17 184.05">
  <defs>
    <style>
      .cls-1, .cls-2, .cls-3, .cls-4, .cls-5, .cls-6, .cls-7, .cls-8, .cls-9, .cls-10, .cls-11, .cls-12, .cls-13, .cls-14, .cls-15, .cls-16, .cls-17, .cls-18 {
        stroke-width: .43px;
      }

      .cls-1, .cls-2, .cls-3, .cls-4, .cls-5, .cls-6, .cls-7, .cls-8, .cls-9, .cls-10, .cls-11, .cls-12, .cls-13, .cls-14, .cls-15, .cls-16, .cls-17, .cls-18, .cls-19, .cls-20, .cls-21 {
        fill: none;
      }

      .cls-1, .cls-2, .cls-3, .cls-4, .cls-5, .cls-6, .cls-7, .cls-8, .cls-9, .cls-10, .cls-11, .cls-12, .cls-13, .cls-14, .cls-15, .cls-16, .cls-17, .cls-18, .cls-20, .cls-21 {
        stroke-miterlimit: 10;
      }

      .cls-1, .cls-21 {
        stroke: #211815;
      }

      .cls-2 {
        stroke: #369f98;
      }

      .cls-3 {
        stroke: #106739;
      }

      .cls-4 {
        stroke: #98c143;
      }

      .cls-5 {
        stroke: #9ccbb8;
      }

      .cls-6 {
        stroke: #9e9e9f;
      }

      .cls-7 {
        stroke: #00954d;
      }

      .cls-8 {
        stroke: #d0187d;
      }

      .cls-9 {
        stroke: #e399a3;
      }

      .cls-10 {
        stroke: #c6bc9f;
      }

      .cls-11, .cls-19 {
        stroke: #3d3a39;
      }

      .cls-12 {
        stroke: #b3292c;
      }

      .cls-13 {
        stroke: #2f6cb1;
      }

      .cls-14 {
        stroke: #571e80;
      }

      .cls-15 {
        stroke: #54a4da;
      }

      .cls-16 {
        stroke: #edb84d;
      }

      .cls-17 {
        stroke: #e59a2e;
      }

      .cls-18 {
        stroke: #fff034;
      }

      .cls-19 {
        stroke-linecap: round;
        stroke-linejoin: round;
      }

      .cls-19, .cls-20, .cls-21 {
        stroke-width: .28px;
      }

      .cls-20 {
        stroke: #c9c9ca;
      }

      .cls-22 {
        font-size: 6px;
      }

      .cls-22, .cls-23, .cls-24 {
        font-family: DNPShueiGoGinStd-M-83pv-RKSJ-H, 'DNP ShueiGoGinStd';
      }

      .cls-22, .cls-23, .cls-24, .cls-25, .cls-26, .cls-27, .cls-28, .cls-29, .cls-30 {
        fill: #211815;
      }

      .cls-23 {
        font-size: 6px;
      }

      .cls-24 {
        font-size: 6px;
      }

      .cls-26 {
        font-size: 6.38px;
      }

      .cls-26, .cls-27, .cls-28, .cls-29, .cls-30 {
        font-family: DNPShueiGoGinStd-B-83pv-RKSJ-H, 'DNP ShueiGoGinStd';
      }

      .cls-27 {
        font-size: 5.25px;
      }

      .cls-28 {
        font-size: 5.25px;
      }

      .cls-29 {
        font-size: 5.25px;
      }

      .cls-30 {
        font-size: 4.5px;
      }
    </style>
  </defs>
  <g id="pc">
    <g>
      <rect class="cls-25" x="289.75" y="92.63" width="3.4" height="3.4"/>
      <g>
        <line class="cls-1" x1="235.05" y1="163.52" x2="239.3" y2="163.52"/>
        <line class="cls-1" x1="235.05" y1="127.44" x2="239.3" y2="127.44"/>
        <line class="cls-1" x1="235.05" y1="91.35" x2="239.3" y2="91.35"/>
        <line class="cls-1" x1="235.05" y1="55.27" x2="239.3" y2="55.27"/>
        <line class="cls-1" x1="235.05" y1="19.18" x2="239.3" y2="19.18"/>
      </g>
      <g>
        <line class="cls-1" x1="383.77" y1="163.52" x2="383.77" y2="159.27"/>
        <line class="cls-1" x1="347.69" y1="163.52" x2="347.69" y2="159.27"/>
        <line class="cls-1" x1="311.6" y1="163.52" x2="311.6" y2="159.27"/>
        <line class="cls-1" x1="275.52" y1="163.52" x2="275.52" y2="159.27"/>
        <line class="cls-1" x1="239.43" y1="163.52" x2="239.43" y2="159.27"/>
      </g>
      <text class="cls-23" transform="translate(226.79 21.6)"><tspan x="0" y="0">10</tspan><tspan x="3.81" y="36.14">5</tspan><tspan x="3.81" y="72.28">0</tspan><tspan x=".85" y="108.42">-5</tspan><tspan x="-2.96" y="144.57">-10</tspan></text>
      <text class="cls-23" transform="translate(239.71 170.54)"><tspan x="0" y="0">-10　　　　-5　　　　　0　　　　　5　　　　　10</tspan></text>
      <circle class="cls-16" cx="281.57" cy="96.4" r=".75"/>
      <circle class="cls-16" cx="283.55" cy="97.81" r=".75"/>
      <circle class="cls-16" cx="284.4" cy="94.8" r=".75"/>
      <circle class="cls-16" cx="288.45" cy="98.28" r=".75"/>
      <circle class="cls-16" cx="291.17" cy="96.97" r=".75"/>
      <circle class="cls-16" cx="294.66" cy="95.46" r=".75"/>
      <circle class="cls-16" cx="303.98" cy="89.53" r=".75"/>
      <circle class="cls-16" cx="293.43" cy="85.11" r=".75"/>
      <circle class="cls-14" cx="334.66" cy="107.88" r=".75"/>
      <circle class="cls-14" cx="348.49" cy="113.15" r=".75"/>
      <circle class="cls-14" cx="352.26" cy="110.14" r=".75"/>
      <circle class="cls-14" cx="342.38" cy="107.03" r=".75"/>
      <circle class="cls-14" cx="340.96" cy="103.93" r=".75"/>
      <circle class="cls-14" cx="340.68" cy="99.98" r=".75"/>
      <circle class="cls-14" cx="338.99" cy="97.72" r=".75"/>
      <circle class="cls-14" cx="340.3" cy="91.69" r=".75"/>
      <circle class="cls-14" cx="343.22" cy="90.94" r=".75"/>
      <circle class="cls-14" cx="355.36" cy="89.81" r=".75"/>
      <circle class="cls-13" cx="318.38" cy="81.34" r=".75"/>
      <circle class="cls-13" cx="325.15" cy="79.08" r=".75"/>
      <circle class="cls-13" cx="336.45" cy="80.49" r=".75"/>
      <circle class="cls-13" cx="338.89" cy="77.1" r=".75"/>
      <circle class="cls-13" cx="333.91" cy="70.89" r=".75"/>
      <circle class="cls-13" cx="333.24" cy="65.53" r=".75"/>
      <circle class="cls-13" cx="327.6" cy="65.91" r=".75"/>
      <circle class="cls-13" cx="322.05" cy="70.33" r=".75"/>
      <circle class="cls-13" cx="316.4" cy="76.54" r=".75"/>
      <circle class="cls-13" cx="318.46" cy="65.81" r=".75"/>
      <circle class="cls-7" cx="294.56" cy="80.03" r=".75"/>
      <circle class="cls-7" cx="291.46" cy="80.03" r=".75"/>
      <circle class="cls-7" cx="285.43" cy="87.55" r=".75"/>
      <circle class="cls-7" cx="288.63" cy="88.68" r=".75"/>
      <circle class="cls-7" cx="295.79" cy="92.92" r=".75"/>
      <circle class="cls-7" cx="292.87" cy="93.95" r=".75"/>
      <circle class="cls-7" cx="295.69" cy="98" r=".75"/>
      <circle class="cls-7" cx="299.08" cy="101.67" r=".75"/>
      <circle class="cls-7" cx="299.93" cy="93.48" r=".75"/>
      <rect class="cls-25" x="342.55" y="99.12" width="3.4" height="3.4"/>
      <rect class="cls-25" x="325.33" y="72.02" width="3.4" height="3.4"/>
      <rect class="cls-25" x="291.73" y="88.67" width="3.4" height="3.4"/>
      <text class="cls-28" transform="translate(301.9 179.04)"><tspan x="0" y="0">Function 1</tspan></text>
      <text class="cls-26" transform="translate(278.74 10.48)"><tspan x="0" y="0">Canonical Discruminant Functions</tspan></text>
      <text class="cls-28" transform="translate(331.91 128.5)"><tspan x="0" y="0">Farm1-Cage ShedA</tspan></text>
      <text class="cls-28" transform="translate(270.49 43.94)"><tspan x="0" y="0">Farm1-Cage ShedC</tspan></text>
      <text class="cls-28" transform="translate(254.12 73.16)"><tspan x="0" y="0">Farm1-Free Range</tspan></text>
      <text class="cls-28" transform="translate(257.79 129.07)"><tspan x="0" y="0">Farm1-Barm LaidS</tspan></text>
      <g>
        <circle class="cls-14" cx="339.84" cy="28.21" r="1.5"/>
        <circle class="cls-7" cx="339.84" cy="34.09" r="1.5"/>
        <circle class="cls-13" cx="339.84" cy="39.96" r="1.5"/>
        <circle class="cls-16" cx="339.84" cy="45.84" r="1.5"/>
        <rect class="cls-25" x="338.19" y="50.34" width="3" height="3"/>
        <text class="cls-28" transform="translate(337.81 23.96)"><tspan x="0" y="0">Shed Model</tspan></text>
        <text class="cls-30" transform="translate(342.7 29.76)"><tspan x="0" y="0">Farm1-Cage ShedA</tspan><tspan x="0" y="6">Farm1-Free Range</tspan><tspan x="0" y="11.99">Farm1-Cage ShedC</tspan><tspan x="0" y="17.99">Farm1-Barm LaidS</tspan><tspan x="0" y="23.98">Group Chanboid</tspan></text>
      </g>
      <circle class="cls-16" cx="300.87" cy="92.63" r=".75"/>
      <rect class="cls-21" x="239.43" y="13.92" width="149.6" height="149.6"/>
      <line class="cls-21" x1="284.35" y1="121.76" x2="290.42" y2="96.97"/>
      <line class="cls-21" x1="279.27" y1="76.44" x2="293.32" y2="90.49"/>
      <line class="cls-21" x1="327.03" y1="73.72" x2="308.07" y2="47.64"/>
      <line class="cls-21" x1="344.49" y1="102.7" x2="354.24" y2="121.76"/>
      <text class="cls-28" transform="translate(224.89 99.98) rotate(-90)"><tspan x="0" y="0">Function 2</tspan></text>
    </g>
    <g>
      <g>
        <line class="cls-1" x1="33.57" y1="118.94" x2="37.82" y2="118.94"/>
        <line class="cls-1" x1="33.57" y1="102.74" x2="37.82" y2="102.74"/>
        <line class="cls-1" x1="33.57" y1="86.55" x2="37.82" y2="86.55"/>
        <line class="cls-1" x1="33.57" y1="70.35" x2="37.82" y2="70.35"/>
        <line class="cls-1" x1="33.57" y1="54.15" x2="37.82" y2="54.15"/>
        <line class="cls-1" x1="33.57" y1="37.96" x2="37.82" y2="37.96"/>
      </g>
      <g>
        <text class="cls-28" transform="translate(4.62 111.85) rotate(-90)"><tspan x="0" y="0">Discriminant Score 2</tspan></text>
        <text class="cls-27" transform="translate(31.6 155.37) rotate(22.9)"><tspan x="0" y="0">Discriminant Score 3</tspan></text>
        <text class="cls-29" transform="translate(146.54 182.71) rotate(-31.17)"><tspan x="0" y="0">Discriminant Score 1</tspan></text>
        <text class="cls-23" transform="translate(13.04 120.56) scale(.7 1)"><tspan x="0" y="0">15.00000</tspan></text>
        <text class="cls-23" transform="translate(13.04 104.19) scale(.7 1)"><tspan x="0" y="0">10.00000</tspan></text>
        <text class="cls-24" transform="translate(117.38 155.5) rotate(58.62)"><tspan x="0" y="0">-10.00000</tspan></text>
        <text class="cls-24" transform="translate(132.06 148.44) rotate(58.62)"><tspan x="0" y="0">0.00000</tspan></text>
        <text class="cls-24" transform="translate(145.9 139.55) rotate(58.62)"><tspan x="0" y="0">10.00000</tspan></text>
        <text class="cls-24" transform="translate(160.16 132.06) rotate(58.62)"><tspan x="0" y="0">20.00000</tspan></text>
        <text class="cls-24" transform="translate(175.97 123.88) rotate(58.62)"><tspan x="0" y="0">30.00000</tspan></text>
        <text class="cls-22" transform="translate(31.16 145.32) rotate(-60) scale(.7 1)"><tspan x="0" y="0">10.00000</tspan></text>
        <text class="cls-22" transform="translate(46.68 149.37) rotate(-60) scale(.7 1)"><tspan x="0" y="0">5.00000</tspan></text>
        <text class="cls-22" transform="translate(61.78 151.93) rotate(-60) scale(.7 1)"><tspan x="0" y="0">.00000</tspan></text>
        <text class="cls-22" transform="translate(72.96 162.18) rotate(-60) scale(.7 1)"><tspan x="0" y="0">-5.00000</tspan></text>
        <text class="cls-22" transform="translate(84.75 169.14) rotate(-60) scale(.7 1)"><tspan x="0" y="0">-10.00000</tspan></text>
        <text class="cls-22" transform="translate(98.59 175.14) rotate(-60) scale(.7 1)"><tspan x="0" y="0">-15.00000</tspan></text>
        <text class="cls-23" transform="translate(15.71 87.81) scale(.7 1)"><tspan x="0" y="0">5.00000</tspan></text>
        <text class="cls-23" transform="translate(13.64 56.19) scale(.7 1)"><tspan x="0" y="0">-5.00000</tspan></text>
        <text class="cls-23" transform="translate(10.97 40.38) scale(.7 1)"><tspan x="0" y="0">-10.00000</tspan></text>
        <text class="cls-23" transform="translate(18.38 72.99) scale(.7 1)"><tspan x="0" y="0">.00000</tspan></text>
        <circle class="cls-14" cx="99.07" cy="101.49" r=".75"/>
        <circle class="cls-14" cx="97.37" cy="102.12" r=".75"/>
        <circle class="cls-14" cx="96.63" cy="102.54" r=".75"/>
        <circle class="cls-14" cx="97.07" cy="104.24" r=".75"/>
        <circle class="cls-14" cx="97.9" cy="103.39" r=".75"/>
        <circle class="cls-14" cx="98.95" cy="103.6" r=".75"/>
        <circle class="cls-14" cx="99.8" cy="104.03" r=".75"/>
        <circle class="cls-14" cx="101.4" cy="104.24" r=".75"/>
        <circle class="cls-14" cx="97.37" cy="105.51" r=".75"/>
        <circle class="cls-14" cx="98.01" cy="107.09" r=".75"/>
        <circle class="cls-14" cx="99.17" cy="108.47" r=".75"/>
        <circle class="cls-14" cx="105.73" cy="107.63" r=".75"/>
        <circle class="cls-14" cx="104.57" cy="107.72" r=".75"/>
        <circle class="cls-14" cx="104.36" cy="108.78" r=".75"/>
        <circle class="cls-14" cx="104.15" cy="107.72" r=".75"/>
        <circle class="cls-14" cx="103.63" cy="109.11" r=".75"/>
        <circle class="cls-14" cx="103.52" cy="109.84" r=".75"/>
        <circle class="cls-14" cx="102.46" cy="108.47" r=".75"/>
        <circle class="cls-14" cx="101.94" cy="109.53" r=".75"/>
        <circle class="cls-14" cx="100.24" cy="112.07" r=".75"/>
        <circle class="cls-14" cx="100.65" cy="113.13" r=".75"/>
        <circle class="cls-14" cx="100.86" cy="112.07" r=".75"/>
        <circle class="cls-14" cx="101.61" cy="113.34" r=".75"/>
        <circle class="cls-14" cx="102.98" cy="112.29" r=".75"/>
        <circle class="cls-18" cx="90.39" cy="122.76" r=".75"/>
        <circle class="cls-18" cx="82.44" cy="118.21" r=".75"/>
        <circle class="cls-18" cx="84.98" cy="115.46" r=".75"/>
        <circle class="cls-18" cx="84.67" cy="113.13" r=".75"/>
        <circle class="cls-18" cx="86.46" cy="111.23" r=".75"/>
        <circle class="cls-18" cx="82.34" cy="112.71" r=".75"/>
        <circle class="cls-18" cx="80.22" cy="115.14" r=".75"/>
        <circle class="cls-18" cx="79.47" cy="116.94" r=".75"/>
        <circle class="cls-18" cx="75.03" cy="116.52" r=".75"/>
        <circle class="cls-18" cx="76.3" cy="112.29" r=".75"/>
        <circle class="cls-18" cx="79.26" cy="111.44" r=".75"/>
        <circle class="cls-18" cx="81.49" cy="110.71" r=".75"/>
        <circle class="cls-18" cx="82.01" cy="108.69" r=".75"/>
        <circle class="cls-18" cx="83.82" cy="108.47" r=".75"/>
        <circle class="cls-18" cx="80.11" cy="105.72" r=".75"/>
        <circle class="cls-10" cx="79.26" cy="93.44" r=".75"/>
        <circle class="cls-10" cx="85.3" cy="88.26" r=".75"/>
        <circle class="cls-10" cx="87.42" cy="90.38" r=".75"/>
        <circle class="cls-15" cx="100.01" cy="79.25" r=".75"/>
        <circle class="cls-15" cx="104.67" cy="78.61" r=".75"/>
        <circle class="cls-15" cx="106.37" cy="77.98" r=".75"/>
        <circle class="cls-15" cx="107" cy="78.83" r=".75"/>
        <circle class="cls-15" cx="106.9" cy="80.19" r=".75"/>
        <circle class="cls-15" cx="109.75" cy="76.92" r=".75"/>
        <circle class="cls-15" cx="112.41" cy="74.38" r=".75"/>
        <circle class="cls-15" cx="115.47" cy="74.17" r=".75"/>
        <circle class="cls-15" cx="111.99" cy="78.61" r=".75"/>
        <circle class="cls-11" cx="117.61" cy="63.37" r=".75"/>
        <circle class="cls-11" cx="114.74" cy="56.9" r=".75"/>
        <circle class="cls-4" cx="77.05" cy="37.74" r=".75"/>
        <circle class="cls-4" cx="76.08" cy="36.69" r=".75"/>
        <circle class="cls-4" cx="71.64" cy="37.11" r=".75"/>
        <circle class="cls-4" cx="71.54" cy="38.05" r=".75"/>
        <circle class="cls-4" cx="70.48" cy="40.5" r=".75"/>
        <circle class="cls-4" cx="71.75" cy="41.77" r=".75"/>
        <circle class="cls-4" cx="72.06" cy="40.29" r=".75"/>
        <circle class="cls-4" cx="71.96" cy="46.95" r=".75"/>
        <circle class="cls-4" cx="74.5" cy="49.49" r=".75"/>
        <circle class="cls-4" cx="76.41" cy="50.99" r=".75"/>
        <circle class="cls-17" cx="71.65" cy="47.91" r=".75"/>
        <circle class="cls-17" cx="78.74" cy="49.08" r=".75"/>
        <circle class="cls-17" cx="73.66" cy="51.62" r=".75"/>
        <circle class="cls-17" cx="75.56" cy="52.99" r=".75"/>
        <circle class="cls-17" cx="74.93" cy="54.15" r=".75"/>
        <circle class="cls-17" cx="76.93" cy="54.69" r=".75"/>
        <circle class="cls-17" cx="77.99" cy="55.53" r=".75"/>
        <circle class="cls-17" cx="80.01" cy="57.96" r=".75"/>
        <circle class="cls-17" cx="79.05" cy="51.09" r=".75"/>
        <circle class="cls-17" cx="84.77" cy="48.54" r=".75"/>
        <circle class="cls-2" cx="91.54" cy="52.78" r=".75"/>
        <circle class="cls-9" cx="96.53" cy="48.23" r=".75"/>
        <circle class="cls-9" cx="98.86" cy="47.58" r=".75"/>
        <circle class="cls-9" cx="101.51" cy="54.9" r=".75"/>
        <circle class="cls-9" cx="103.09" cy="54.16" r=".75"/>
        <circle class="cls-9" cx="103.52" cy="52.68" r=".75"/>
        <circle class="cls-5" cx="107.96" cy="48.87" r=".75"/>
        <circle class="cls-5" cx="106.48" cy="52.45" r=".75"/>
        <circle class="cls-5" cx="105.11" cy="53.2" r=".75"/>
        <circle class="cls-5" cx="100.67" cy="52.78" r=".75"/>
        <circle class="cls-5" cx="99.49" cy="53.94" r=".75"/>
        <circle class="cls-5" cx="97.8" cy="52.89" r=".75"/>
        <circle class="cls-5" cx="98.34" cy="54.26" r=".75"/>
        <circle class="cls-5" cx="100.86" cy="51.72" r=".75"/>
        <circle class="cls-5" cx="102.55" cy="52.14" r=".75"/>
        <circle class="cls-5" cx="101.71" cy="55.96" r=".75"/>
        <circle class="cls-5" cx="103.19" cy="56.59" r=".75"/>
        <circle class="cls-5" cx="102.03" cy="57.54" r=".75"/>
        <circle class="cls-5" cx="101.07" cy="59.34" r=".75"/>
        <circle class="cls-5" cx="104.79" cy="56.48" r=".75"/>
        <circle class="cls-9" cx="104.46" cy="55.11" r=".75"/>
        <circle class="cls-9" cx="99.92" cy="57.54" r=".75"/>
        <circle class="cls-9" cx="99.17" cy="59.34" r=".75"/>
        <circle class="cls-9" cx="99.07" cy="55.43" r=".75"/>
        <circle class="cls-9" cx="97.91" cy="55.96" r=".75"/>
        <circle class="cls-2" cx="94.51" cy="55.53" r=".75"/>
        <circle class="cls-2" cx="95.14" cy="56.38" r=".75"/>
        <circle class="cls-2" cx="96.63" cy="57.44" r=".75"/>
        <circle class="cls-2" cx="95.78" cy="58.5" r=".75"/>
        <circle class="cls-2" cx="95.14" cy="60.19" r=".75"/>
        <circle class="cls-2" cx="93.35" cy="59.44" r=".75"/>
        <circle class="cls-2" cx="91.56" cy="60.4" r=".75"/>
        <circle class="cls-2" cx="90.6" cy="59.67" r=".75"/>
        <circle class="cls-2" cx="93.14" cy="63.89" r=".75"/>
        <circle class="cls-2" cx="93.35" cy="65.7" r=".75"/>
        <circle class="cls-2" cx="90.6" cy="68.55" r=".75"/>
        <circle class="cls-7" cx="71.75" cy="87.82" r=".75"/>
        <circle class="cls-7" cx="72.48" cy="85.6" r=".75"/>
        <circle class="cls-7" cx="72.6" cy="81.89" r=".75"/>
        <circle class="cls-7" cx="70.27" cy="80.19" r=".75"/>
        <circle class="cls-7" cx="72.91" cy="80.73" r=".75"/>
        <circle class="cls-7" cx="74.08" cy="80.31" r=".75"/>
        <circle class="cls-7" cx="73.97" cy="79.25" r=".75"/>
        <circle class="cls-7" cx="72.08" cy="77.98" r=".75"/>
        <circle class="cls-7" cx="71.12" cy="76.81" r=".75"/>
        <circle class="cls-7" cx="74.93" cy="80.1" r=".75"/>
        <circle class="cls-7" cx="76.72" cy="76.92" r=".75"/>
        <circle class="cls-3" cx="79.16" cy="74.05" r=".75"/>
        <circle class="cls-3" cx="77.89" cy="69.62" r=".75"/>
        <circle class="cls-3" cx="78.2" cy="70.36" r=".75"/>
        <circle class="cls-3" cx="79.59" cy="71.51" r=".75"/>
        <circle class="cls-3" cx="77.58" cy="71.63" r=".75"/>
        <circle class="cls-3" cx="78.2" cy="61.89" r=".75"/>
        <circle class="cls-3" cx="76.62" cy="64.12" r=".75"/>
        <circle class="cls-3" cx="76.08" cy="62.52" r=".75"/>
        <circle class="cls-3" cx="74.29" cy="62.62" r=".75"/>
        <circle class="cls-3" cx="71.75" cy="62.42" r=".75"/>
        <circle class="cls-3" cx="73.45" cy="64.52" r=".75"/>
        <circle class="cls-13" cx="69.32" cy="55.11" r=".75"/>
        <circle class="cls-13" cx="67.73" cy="56.27" r=".75"/>
        <circle class="cls-13" cx="74.5" cy="56.69" r=".75"/>
        <circle class="cls-13" cx="76.2" cy="58.71" r=".75"/>
        <circle class="cls-13" cx="72.17" cy="66.22" r=".75"/>
        <circle class="cls-13" cx="69.11" cy="65.7" r=".75"/>
        <circle class="cls-13" cx="72.29" cy="60.83" r=".75"/>
        <circle class="cls-13" cx="69.31" cy="53.63" r=".75"/>
        <circle class="cls-13" cx="66.13" cy="52.99" r=".75"/>
        <circle class="cls-6" cx="63.49" cy="51.93" r=".75"/>
        <circle class="cls-6" cx="60.01" cy="52.57" r=".75"/>
        <circle class="cls-6" cx="61.9" cy="58.92" r=".75"/>
        <circle class="cls-6" cx="64.65" cy="55.32" r=".75"/>
        <circle class="cls-6" cx="66.03" cy="61.46" r=".75"/>
        <circle class="cls-6" cx="65.94" cy="63.37" r=".75"/>
        <circle class="cls-6" cx="68.36" cy="61.15" r=".75"/>
        <circle class="cls-6" cx="69.1" cy="59.77" r=".75"/>
        <circle class="cls-6" cx="67.42" cy="57.86" r=".75"/>
        <circle class="cls-6" cx="80.95" cy="50.03" r=".75"/>
        <circle class="cls-6" cx="81.7" cy="48.76" r=".75"/>
        <circle class="cls-6" cx="83.61" cy="50.55" r=".75"/>
        <circle class="cls-6" cx="87.1" cy="51.51" r=".75"/>
        <circle class="cls-6" cx="88.15" cy="52.36" r=".75"/>
        <circle class="cls-6" cx="86.46" cy="55.32" r=".75"/>
        <circle class="cls-6" cx="87.52" cy="54.26" r=".75"/>
        <circle class="cls-6" cx="81.92" cy="51.39" r=".75"/>
        <circle class="cls-6" cx="82.01" cy="52.99" r=".75"/>
        <circle class="cls-6" cx="71.12" cy="59.88" r=".75"/>
        <circle class="cls-3" cx="76.62" cy="69.72" r=".75"/>
        <circle class="cls-12" cx="78.2" cy="76.29" r=".75"/>
        <circle class="cls-8" cx="80.95" cy="78.61" r=".75"/>
        <circle class="cls-8" cx="83.5" cy="76.71" r=".75"/>
        <circle class="cls-8" cx="84.13" cy="74.8" r=".75"/>
        <circle class="cls-8" cx="82.76" cy="73.22" r=".75"/>
        <circle class="cls-8" cx="83.4" cy="71.95" r=".75"/>
        <circle class="cls-8" cx="81.07" cy="71.72" r=".75"/>
        <circle class="cls-8" cx="83.07" cy="70.36" r=".75"/>
        <circle class="cls-8" cx="83.92" cy="68.66" r=".75"/>
        <circle class="cls-8" cx="84.25" cy="67.72" r=".75"/>
        <circle class="cls-8" cx="81.8" cy="64.21" r=".75"/>
        <circle class="cls-8" cx="80.32" cy="65.49" r=".75"/>
        <circle class="cls-8" cx="80.53" cy="66.97" r=".75"/>
        <circle class="cls-8" cx="79.16" cy="67.6" r=".75"/>
        <circle class="cls-8" cx="78.95" cy="68.97" r=".75"/>
        <circle class="cls-8" cx="80.32" cy="68.87" r=".75"/>
        <circle class="cls-8" cx="82.55" cy="69.18" r=".75"/>
        <circle class="cls-12" cx="76.2" cy="72.9" r=".75"/>
        <circle class="cls-12" cx="74.72" cy="71.51" r=".75"/>
        <circle class="cls-12" cx="73.56" cy="71.41" r=".75"/>
        <circle class="cls-12" cx="75.99" cy="75.54" r=".75"/>
        <circle class="cls-12" cx="74.93" cy="76.07" r=".75"/>
        <circle class="cls-12" cx="73.02" cy="73.01" r=".75"/>
        <circle class="cls-12" cx="71.33" cy="72.8" r=".75"/>
        <circle class="cls-12" cx="68.15" cy="73.01" r=".75"/>
        <circle class="cls-12" cx="61.59" cy="77.03" r=".75"/>
        <circle class="cls-12" cx="74.62" cy="81.58" r=".75"/>
        <circle class="cls-12" cx="72.39" cy="76.5" r=".75"/>
        <circle class="cls-12" cx="71.02" cy="74.59" r=".75"/>
        <circle class="cls-12" cx="66.77" cy="75.23" r=".75"/>
        <circle class="cls-12" cx="67.52" cy="76.4" r=".75"/>
        <circle class="cls-7" cx="73.87" cy="74.9" r=".75"/>
        <circle class="cls-7" cx="72.6" cy="74.05" r=".75"/>
        <circle class="cls-7" cx="69.54" cy="82.21" r=".75"/>
        <circle class="cls-7" cx="70.79" cy="81.79" r=".75"/>
        <circle class="cls-7" cx="71" cy="79.89" r=".75"/>
        <circle class="cls-7" cx="67.94" cy="80" r=".75"/>
        <circle class="cls-7" cx="69.96" cy="78.4" r=".75"/>
        <circle class="cls-7" cx="68.48" cy="75.01" r=".75"/>
        <circle class="cls-7" cx="69.1" cy="73.74" r=".75"/>
        <circle class="cls-2" cx="86.67" cy="60.61" r=".75"/>
        <circle class="cls-2" cx="89.33" cy="60.19" r=".75"/>
        <circle class="cls-2" cx="89.54" cy="62.19" r=".75"/>
        <circle class="cls-2" cx="91.45" cy="61.79" r=".75"/>
        <circle class="cls-2" cx="92.81" cy="61.04" r=".75"/>
        <circle class="cls-2" cx="89.54" cy="58.17" r=".75"/>
        <circle class="cls-2" cx="92.29" cy="58.81" r=".75"/>
        <circle class="cls-17" cx="79.8" cy="52.24" r=".75"/>
        <circle class="cls-4" cx="74.08" cy="41.13" r=".75"/>
        <circle class="cls-4" cx="75.45" cy="39.65" r=".75"/>
        <circle class="cls-11" cx="123.31" cy="54.69" r=".75"/>
        <circle class="cls-11" cx="123.21" cy="57.75" r=".75"/>
        <circle class="cls-11" cx="123.42" cy="62.31" r=".75"/>
        <circle class="cls-11" cx="124.15" cy="62.73" r=".75"/>
        <circle class="cls-11" cx="125" cy="61.04" r=".75"/>
        <circle class="cls-11" cx="125.21" cy="61.89" r=".75"/>
        <circle class="cls-11" cx="126.27" cy="59.56" r=".75"/>
        <circle class="cls-11" cx="128.5" cy="59.56" r=".75"/>
        <circle class="cls-11" cx="130.41" cy="60.19" r=".75"/>
        <circle class="cls-11" cx="130.41" cy="54.16" r=".75"/>
        <circle class="cls-11" cx="130.41" cy="52.78" r=".75"/>
        <circle class="cls-11" cx="127.23" cy="49.18" r=".75"/>
        <circle class="cls-11" cx="124.9" cy="53.51" r=".75"/>
        <circle class="cls-11" cx="125.75" cy="54.69" r=".75"/>
        <circle class="cls-11" cx="126.7" cy="55.11" r=".75"/>
        <circle class="cls-11" cx="126.7" cy="55.53" r=".75"/>
        <circle class="cls-11" cx="126.29" cy="56.8" r=".75"/>
        <circle class="cls-11" cx="123.85" cy="54.8" r=".75"/>
        <circle class="cls-11" cx="122.79" cy="54.8" r=".75"/>
        <circle class="cls-11" cx="125.85" cy="63.58" r=".75"/>
        <circle class="cls-11" cx="122.46" cy="64.64" r=".75"/>
        <circle class="cls-15" cx="105.63" cy="75.01" r=".75"/>
        <circle class="cls-15" cx="106.9" cy="74.07" r=".75"/>
        <circle class="cls-15" cx="108.17" cy="70.05" r=".75"/>
        <circle class="cls-15" cx="104.9" cy="71.41" r=".75"/>
        <circle class="cls-15" cx="104.25" cy="72.69" r=".75"/>
        <circle class="cls-10" cx="84.15" cy="91.74" r=".75"/>
        <circle class="cls-10" cx="84.46" cy="92.69" r=".75"/>
        <circle class="cls-10" cx="86.15" cy="93.44" r=".75"/>
        <circle class="cls-10" cx="85.09" cy="94.19" r=".75"/>
        <circle class="cls-10" cx="84.67" cy="95.13" r=".75"/>
        <circle class="cls-10" cx="87" cy="94.5" r=".75"/>
        <circle class="cls-10" cx="88.79" cy="95.13" r=".75"/>
        <circle class="cls-10" cx="88.48" cy="98.31" r=".75"/>
        <circle class="cls-10" cx="90.06" cy="98.94" r=".75"/>
        <circle class="cls-10" cx="88.48" cy="99.37" r=".75"/>
        <circle class="cls-10" cx="85.3" cy="96.4" r=".75"/>
        <circle class="cls-10" cx="84.03" cy="96.4" r=".75"/>
        <circle class="cls-10" cx="83.61" cy="97.46" r=".75"/>
        <circle class="cls-10" cx="84.46" cy="98" r=".75"/>
        <path class="cls-20" d="m102.88,87.09l-65.17,34.75,65.17-34.75Z"/>
        <polyline class="cls-20" points="177.76 117.32 102.88 87.09 102.65 .14"/>
        <polygon class="cls-19" points="177.44 30.35 102.65 .14 37.71 34.9 112.5 65.11 177.44 30.35"/>
        <polygon class="cls-19" points="112.5 152.05 37.71 121.84 37.71 34.9 112.5 65.11 112.5 152.05"/>
        <polygon class="cls-19" points="112.5 152.05 177.76 117.32 177.76 30.38 112.5 65.11 112.5 152.05"/>
      </g>
      <g>
        <line class="cls-1" x1="38.91" y1="126.7" x2="41.16" y2="123.16"/>
        <line class="cls-1" x1="52.68" y1="132.28" x2="54.93" y2="128.74"/>
        <line class="cls-1" x1="66.45" y1="137.86" x2="68.7" y2="134.32"/>
        <line class="cls-1" x1="80.21" y1="143.43" x2="82.46" y2="139.9"/>
        <line class="cls-1" x1="93.98" y1="149.01" x2="96.23" y2="145.47"/>
        <line class="cls-1" x1="107.75" y1="154.59" x2="110" y2="151.05"/>
      </g>
      <g>
        <line class="cls-1" x1="118.68" y1="153.36" x2="116.57" y2="149.74"/>
        <line class="cls-1" x1="133.22" y1="145.6" x2="131.12" y2="141.98"/>
        <line class="cls-1" x1="147.76" y1="137.85" x2="145.66" y2="134.22"/>
        <line class="cls-1" x1="162.31" y1="130.09" x2="160.2" y2="126.46"/>
        <line class="cls-1" x1="176.85" y1="122.33" x2="174.75" y2="118.71"/>
      </g>
    </g>
  </g>
</svg>