<?xml version="1.0" encoding="UTF-8"?>
<svg id="_レイヤー_2" data-name="レイヤー 2" xmlns="http://www.w3.org/2000/svg" viewBox="0 0 292.5 67.5">
  <defs>
    <style>
      .cls-1 {
        fill: #fff;
      }

      .cls-2 {
        fill: #ffcf00;
      }
    </style>
  </defs>
  <g id="pc">
    <g>
      <path class="cls-1" d="m292.5,67.5L263.02,0,15,.78C6.72.78,0,8.25,0,17.46v50.04h292.5Z"/>
      <g>
        <path class="cls-2" d="m170.8,34.31c0-1.39.24-2.63.73-3.72.48-1.08,1.13-2.01,1.95-2.79.81-.77,1.75-1.37,2.82-1.77,1.06-.41,2.18-.61,3.34-.61s2.28.2,3.34.61c1.06.41,2,1,2.82,1.77.81.78,1.46,1.71,1.95,2.79.48,1.08.73,2.33.73,3.72v24.29c0,1.39-.24,2.63-.73,3.72-.48,1.08-1.13,2.01-1.95,2.79-.81.78-1.75,1.37-2.82,1.77-1.07.41-2.18.61-3.34.61s-2.28-.2-3.34-.61c-1.07-.41-2-1-2.82-1.77-.81-.77-1.46-1.7-1.95-2.79-.48-1.08-.73-2.32-.73-3.72v-24.29Zm5.93,24.29c0,.85.27,1.56.81,2.12.54.56,1.24.84,2.09.84s1.55-.28,2.09-.84c.54-.56.81-1.27.81-2.12v-24.29c0-.85-.27-1.56-.81-2.12-.54-.56-1.24-.84-2.09-.84s-1.55.28-2.09.84c-.54.56-.81,1.27-.81,2.12v24.29Z"/>
        <path class="cls-2" d="m197.06,67.15v-5.58l10.69-20.17c.54-1.01.85-1.89.93-2.64.08-.76.12-1.69.12-2.82,0-.5,0-1.04-.03-1.6-.02-.56-.13-1.05-.32-1.48-.19-.43-.48-.78-.87-1.08-.39-.29-.95-.44-1.69-.44-.89,0-1.6.25-2.12.76s-.78,1.24-.78,2.21v3.37h-5.93v-3.25c0-1.24.23-2.4.7-3.49.47-1.08,1.1-2.03,1.92-2.85.77-.81,1.7-1.46,2.79-1.95,1.08-.48,2.25-.73,3.49-.73,1.55,0,2.88.28,3.98.84,1.1.56,2.02,1.33,2.76,2.3.7.97,1.21,2.07,1.54,3.31.33,1.24.49,2.56.49,3.95,0,1.01-.02,1.85-.06,2.53-.04.68-.12,1.33-.23,1.95-.12.62-.31,1.24-.58,1.86-.27.62-.64,1.38-1.1,2.27l-8.72,16.79h10.69v5.93h-17.67Z"/>
      </g>
      <g>
        <path class="cls-2" d="m51.56,46.56h-3.25v-.73c0-.74-.18-1.39-.53-1.93s-.94-.81-1.77-.81c-.45,0-.81.09-1.08.26-.28.17-.5.38-.67.64-.17.28-.29.59-.35.94-.06.35-.1.72-.1,1.1,0,.45.02.82.05,1.12s.11.56.24.8c.13.23.31.44.56.61.24.17.58.34,1,.51l2.49.99c.72.28,1.31.6,1.75.97.45.37.8.8,1.05,1.29.23.51.39,1.09.48,1.74.08.65.13,1.39.13,2.22,0,.96-.1,1.84-.29,2.66-.19.82-.5,1.51-.92,2.09-.45.59-1.03,1.06-1.75,1.4s-1.61.51-2.65.51c-.79,0-1.52-.14-2.2-.42-.68-.28-1.27-.66-1.75-1.15-.49-.49-.88-1.06-1.16-1.71-.29-.65-.43-1.36-.43-2.12v-1.21h3.25v1.02c0,.6.18,1.13.53,1.61.35.48.94.72,1.77.72.55,0,.98-.08,1.29-.24.31-.16.55-.39.72-.69.17-.3.27-.65.3-1.07.03-.41.05-.88.05-1.39,0-.6-.02-1.08-.06-1.47-.04-.38-.13-.69-.25-.92-.15-.23-.35-.43-.59-.57-.24-.15-.57-.31-.97-.48l-2.33-.96c-1.4-.57-2.34-1.33-2.82-2.28-.48-.95-.72-2.13-.72-3.56,0-.85.12-1.66.35-2.42.23-.77.58-1.42,1.05-1.98.45-.55,1.02-.99,1.71-1.32.69-.33,1.51-.49,2.47-.49.81,0,1.55.15,2.22.45.67.3,1.25.69,1.74,1.18.98,1.02,1.47,2.19,1.47,3.51v1.59Z"/>
        <path class="cls-2" d="m56.34,45.38c0-.91.16-1.72.48-2.42.32-.7.74-1.29,1.28-1.75.51-.45,1.09-.79,1.74-1.02.65-.23,1.3-.35,1.96-.35s1.31.12,1.96.35c.65.23,1.24.57,1.77,1.02.51.47.92,1.05,1.24,1.75.32.7.48,1.51.48,2.42v11.99c0,.96-.16,1.78-.48,2.46-.32.68-.73,1.24-1.24,1.69-.53.47-1.12.82-1.77,1.05-.65.23-1.3.35-1.96.35s-1.31-.12-1.96-.35c-.65-.23-1.23-.58-1.74-1.05-.53-.45-.96-1.01-1.28-1.69-.32-.68-.48-1.5-.48-2.46v-11.99Zm3.25,11.99c0,.79.22,1.37.65,1.74.44.37.95.56,1.55.56s1.11-.19,1.55-.56c.44-.37.65-.95.65-1.74v-11.99c0-.79-.22-1.37-.65-1.74-.44-.37-.95-.56-1.55-.56s-1.11.19-1.55.56c-.44.37-.65.95-.65,1.74v11.99Z"/>
        <path class="cls-2" d="m72.67,62.72v-22.71h3.25v19.45h6.44v3.25h-9.69Z"/>
        <path class="cls-2" d="m97.54,40.02v17.6c0,.74-.13,1.43-.4,2.06-.27.63-.64,1.19-1.13,1.67-.49.49-1.05.87-1.69,1.15-.64.28-1.32.42-2.04.42s-1.4-.14-2.02-.42c-.63-.28-1.19-.66-1.67-1.15-.49-.49-.87-1.05-1.15-1.67-.28-.63-.41-1.31-.41-2.06v-17.6h3.25v17.28c0,.81.19,1.4.57,1.79s.86.57,1.44.57,1.05-.19,1.44-.57.57-.98.57-1.79v-17.28h3.25Z"/>
        <path class="cls-2" d="m105.29,62.72v-19.64h-3.76v-3.06h10.78v3.06h-3.76v19.64h-3.25Z"/>
        <path class="cls-2" d="m116.39,62.72v-22.71h3.25v22.71h-3.25Z"/>
        <path class="cls-2" d="m125.16,45.38c0-.91.16-1.72.48-2.42.32-.7.74-1.29,1.28-1.75.51-.45,1.09-.79,1.74-1.02.65-.23,1.3-.35,1.96-.35s1.31.12,1.96.35c.65.23,1.24.57,1.77,1.02.51.47.92,1.05,1.24,1.75.32.7.48,1.51.48,2.42v11.99c0,.96-.16,1.78-.48,2.46-.32.68-.73,1.24-1.24,1.69-.53.47-1.12.82-1.77,1.05-.65.23-1.3.35-1.96.35s-1.31-.12-1.96-.35c-.65-.23-1.23-.58-1.74-1.05-.53-.45-.96-1.01-1.28-1.69-.32-.68-.48-1.5-.48-2.46v-11.99Zm3.25,11.99c0,.79.22,1.37.65,1.74.44.37.95.56,1.55.56s1.11-.19,1.55-.56c.44-.37.65-.95.65-1.74v-11.99c0-.79-.22-1.37-.65-1.74-.44-.37-.95-.56-1.55-.56s-1.11.19-1.55.56c-.44.37-.65.95-.65,1.74v11.99Z"/>
        <path class="cls-2" d="m141.36,62.72v-22.71h3.12l4.91,13.68h.06v-13.68h3.25v22.71h-3.06l-4.97-13.65h-.06v13.65h-3.25Z"/>
      </g>
    </g>
  </g>
</svg>