<?xml version="1.0" encoding="UTF-8"?>
<svg id="_レイヤー_2" data-name="レイヤー 2" xmlns="http://www.w3.org/2000/svg" viewBox="0 0 24.37 24.37">
  <defs>
    <style>
      .cls-1 {
        fill: #f08732;
        stroke-width: 0px;
      }
    </style>
  </defs>
  <g id="pc">
    <g>
      <path class="cls-1" d="m12.08,13.07c.43,0,.77-.35.77-.77s-.35-.77-.77-.77-.77.35-.77.77.35.77.77.77Z"/>
      <path class="cls-1" d="m10.12,11.81s.05.05.08.07c-.03.14-.05.28-.05.42,0,1.06.86,1.93,1.93,1.93s1.93-.86,1.93-1.93c0-.34-.09-.66-.24-.93l5.38-5.38c.22-.22.22-.59,0-.81-.22-.22-.59-.22-.81,0l-5.4,5.4c-.26-.13-.54-.2-.85-.2s-.61.08-.87.21l-3.14-3.02c-.23-.22-.58-.21-.81,0l-.28.28c-.22.22-.22.59,0,.81l3.14,3.14Zm1.96-.28c.43,0,.77.35.77.77s-.35.77-.77.77-.77-.35-.77-.77.35-.77.77-.77Z"/>
      <path class="cls-1" d="m12.19,24.37c6.72,0,12.19-5.47,12.19-12.19S18.9,0,12.19,0,0,5.47,0,12.19s5.47,12.19,12.19,12.19ZM1.16,11.99h.68c.32,0,.58-.26.58-.58s-.26-.58-.58-.58h-.6C1.88,5.61,6.19,1.5,11.51,1.17v.39c0,.32.26.58.58.58s.58-.26.58-.58v-.4c5.68.24,10.27,4.81,10.54,10.48h-.65c-.32,0-.58.26-.58.58s.26.58.58.58h.64c-.31,5.64-4.88,10.17-10.54,10.41v-.56c0-.32-.26-.58-.58-.58s-.58.26-.58.58v.55c-5.77-.35-10.36-5.15-10.36-11.01,0-.07,0-.13,0-.2Z"/>
    </g>
  </g>
</svg>