<?xml version="1.0" encoding="utf-8"?>
<!-- Generator: Adobe Illustrator 28.3.0, SVG Export Plug-In . SVG Version: 6.00 Build 0)  -->
<svg version="1.1" id="_レイヤー_2" xmlns="http://www.w3.org/2000/svg" xmlns:xlink="http://www.w3.org/1999/xlink" x="0px"
	 y="0px" viewBox="0 0 20 27" style="enable-background:new 0 0 20 27;" xml:space="preserve">
<style type="text/css">
	.st0{fill:#995425;}
	.st1{fill:#F08732;}
	.st2{fill:#FFFFFF;}
</style>
<g>
	<path class="st0" d="M20,11c0-5.5-4.5-10-10-10S0,5.5,0,11c0,0.4,0,0.8,0.1,1.1C1,18.6,8.9,27,10,27s9-8.4,9.9-14.9
		C20,11.8,20,11.4,20,11z"/>
</g>
<g>
	<path class="st1" d="M10,25.5C8.8,25,1.4,17.2,0.6,11.1c-0.1-0.3-0.1-0.7-0.1-1.1c0-5.2,4.3-9.5,9.5-9.5s9.5,4.3,9.5,9.5
		c0,0.4,0,0.7-0.1,1C18.6,17.2,11.2,25,10,25.5z"/>
	<path class="st0" d="M10,1c5,0,9,4,9,9c0,0.4,0,0.7-0.1,1c-0.8,5.6-7.3,12.8-8.9,13.9c-1.6-1.2-8.2-8.4-8.9-14C1,10.7,1,10.4,1,10
		C1,5,5,1,10,1 M10,0C4.5,0,0,4.5,0,10c0,0.4,0,0.8,0.1,1.1C1,17.6,8.9,26,10,26s9-8.4,9.9-14.9C20,10.8,20,10.4,20,10
		C20,4.5,15.5,0,10,0L10,0z"/>
</g>
<circle class="st2" cx="10" cy="10" r="4"/>
</svg>
