<?xml version="1.0" encoding="UTF-8"?>
<svg id="_レイヤー_2" data-name="レイヤー 2" xmlns="http://www.w3.org/2000/svg" viewBox="0 0 26.39 25.98">
  <defs>
    <style>
      .cls-1 {
        fill: #f08732;
        stroke-width: 0px;
      }
    </style>
  </defs>
  <g id="pc">
    <g>
      <path class="cls-1" d="m6.66,3.75c-.21-.14-.49-.09-.64.12-1.02,1.49-1.56,3.23-1.56,5.04,0,2.57,2.31,6,4.25,8.43,1.14,1.43,2.22,2.6,2.92,3.33,1.42,1.48,1.55,1.48,1.73,1.48s.32,0,1.75-1.48c.57-.6,1.72-1.82,2.92-3.33,1.93-2.43,4.24-5.86,4.24-8.43C22.26,3.99,18.27,0,13.36,0c-1.34,0-2.62.29-3.82.86-.23.11-.33.38-.22.61.11.23.38.33.61.22,1.07-.51,2.23-.77,3.43-.77,4.41,0,7.99,3.58,7.99,7.99,0,3.92-6.55,10.92-7.99,12.21-1.45-1.31-7.99-8.3-7.99-12.21,0-1.63.49-3.19,1.4-4.52.14-.21.09-.49-.12-.64Z"/>
      <path class="cls-1" d="m.1,25.24c-.15.19-.12.47.06.63.09.08.19.11.3.11.02,0,.04,0,.06,0,.77-.04,16.92-.04,25.41-.03h0c.17,0,.33-.1.41-.26.08-.16.06-.34-.05-.48l-4.2-5.45c-.09-.11-.22-.18-.36-.18h-2.18c-.25,0-.46.2-.46.46s.2.46.46.46h1.95l3.49,4.53c-1.99,0-6.89,0-11.78,0-3.18,0-6.36,0-8.75.01-1.2,0-2.19,0-2.9.01-.06,0-.11,0-.16,0l3.59-4.63h1.84c.25,0,.46-.2.46-.46s-.2-.46-.46-.46h-2.06c-.14,0-.27.07-.36.18L.1,25.24Z"/>
      <path class="cls-1" d="m17.96,8.45c0-2.59-2.11-4.69-4.69-4.69s-4.69,2.11-4.69,4.69,2.11,4.69,4.69,4.69,4.69-2.11,4.69-4.69Zm-8.47,0c0-2.08,1.69-3.78,3.78-3.78s3.78,1.69,3.78,3.78-1.69,3.78-3.78,3.78-3.78-1.69-3.78-3.78Z"/>
    </g>
  </g>
</svg>