<?xml version="1.0" encoding="UTF-8"?>
<svg id="_レイヤー_2" data-name="レイヤー 2" xmlns="http://www.w3.org/2000/svg" viewBox="0 0 18 16.5">
  <defs>
    <style>
      .cls-1 {
        fill: #f08732;
        stroke-width: 0px;
      }
    </style>
  </defs>
  <g id="pc">
    <path class="cls-1" d="m6.97,15.22c.07.03.15.03.22,0l3.86-1.32,6.53,2.57s.08.02.11.02c.12,0,.24-.07.29-.2.03-.08.03-.17,0-.24.02-.04.03-.08.03-.12V4.33c0-.13-.08-.24-.2-.29l-6.63-2.62c-.07-.03-.14-.03-.21,0l-3.86,1.32L.48.02c-.1-.04-.2-.03-.29.03S.05.2.05.31c0,.03-.03,2.97-.04,5.89-.03,6.03,0,6.06.13,6.19.03.03.07.05.1.07h0s6.73,2.76,6.73,2.76ZM11.28,2.13l6.1,2.41v11.2l-6.1-2.41V2.13Zm-3.86,1.15l3.24-1.1v11.21l-3.24,1.1V3.28Zm-.62,11.2l-1.54-.63,1.54-1.54v2.17Zm0-3.04s-.03.02-.04.04l-2.12,2.12-.96-.39,3.12-3.12v1.36Zm0-2.22s-.05.03-.08.05l-3.67,3.67-.96-.39,4.71-4.71v1.38Zm0-2.26s0,0-.01,0L1.47,12.29l-.82-.34c0-.06,0-.14,0-.24.04-.01.08-.04.11-.07l6.04-6.04v1.36ZM.67.77l.81.33-.82.82c0-.4,0-.78,0-1.16Zm-.02,2.01s.07-.04.1-.07l1.35-1.35.96.39L.64,4.18c0-.47,0-.94,0-1.4Zm-.01,2.24s.08-.04.12-.07l2.93-2.93.95.39L.63,6.44c0-.47,0-.95,0-1.43Zm-.01,2.25c.05-.01.1-.04.14-.08L5.26,2.65l.98.4L.62,8.67c0-.44,0-.91,0-1.4Zm.13,2.14L6.8,3.37v1.36L.63,10.9c0-.39,0-.87,0-1.41.05-.01.09-.04.13-.08Z"/>
  </g>
</svg>