<?xml version="1.0" encoding="UTF-8"?>
<svg id="_レイヤー_2" data-name="レイヤー 2" xmlns="http://www.w3.org/2000/svg" viewBox="0 0 33.06 26.16">
  <defs>
    <style>
      .cls-1 {
        fill: #fff;
        stroke-width: 0px;
      }
    </style>
  </defs>
  <g id="m">
    <g>
      <path class="cls-1" d="m21.29,9.97c1.36-1.65,2.68-3.47,2.68-5.95,0-2.22-1.74-4.03-3.89-4.03-1.55,0-2.83.74-3.59,2.02-.76-1.28-2.04-2.02-3.58-2.02-2.14,0-3.89,1.81-3.89,4.03,0,2.48,1.33,4.3,2.69,5.95.87,1.06,2.3,2.23,3.34,3.09.47.39.88.73,1.08.92.09.09.22.14.35.15h.03s0,0,0,0c.12,0,.23-.04.32-.12l1.75-1.48c.88-.74,1.99-1.69,2.71-2.56Z"/>
      <path class="cls-1" d="m3.28,4.78c-.97-.88-2.61-.69-2.67-.68-.25.03-.43.24-.44.48L0,10.09s0,.08.01.13l1.8,8c.02.09.07.18.13.24,2.95,2.98,5.65,5.33,6.37,5.94l-.03,1.04c0,.28.21.51.49.52,0,0,.01,0,.02,0,.27,0,.49-.21.5-.49l.04-1.28c0-.15-.06-.3-.18-.4-.03-.03-3.03-2.55-6.38-5.93l-1.76-7.8.15-4.98c.45.01,1.08.1,1.46.44.26.23.38.56.37,1-.05,2.37-.02,3.47-.02,3.52,0,.04,0,.08.02.12l.39,1.38c-.08.06-.16.13-.23.2-.96.97-.91,2.01.15,3.08l4.14,4.19.71-.7-4.14-4.19c-.67-.68-.71-1.1-.15-1.67.14-.15.29-.21.46-.21.41,0,.86.4,1.01.56l1.99,2.02c.07.07.17.12.27.14,2.57.46,3.74,1.6,3.76,1.62l1.35,1.31c.45.46,1.05,1.26,1.33,2.5,0,0,0,.01,0,.02l-.08,5.24c0,.28.22.5.49.51,0,0,0,0,0,0,.27,0,.5-.22.5-.49l.08-5.3c0-.05,0-.1-.02-.15v-.04c-.34-1.47-1.06-2.43-1.61-2.99l-1.35-1.31c-.05-.05-1.33-1.32-4.13-1.87l-1.87-1.89c-.08-.09-.81-.85-1.71-.87,0,0,0,0,0,0l-.37-1.29c0-.26-.02-1.38.02-3.41.01-.74-.22-1.33-.7-1.76Z"/>
      <path class="cls-1" d="m32.44,3.96c-.07,0-1.69-.11-2.66.8-.48.45-.71,1.05-.69,1.79.04,2.03.02,3.15.02,3.41l-.37,1.29s0,0,0,0c-.91.02-1.63.78-1.7.86l-1.88,1.91c-2.8.54-4.08,1.81-4.12,1.86l-1.37,1.32c-.54.55-1.26,1.51-1.59,2.98v.04s-.03.1-.03.15l.08,5.3c0,.27.23.49.5.49,0,0,0,0,0,0,.28,0,.5-.23.49-.51l-.08-5.24s0-.01,0-.02c.28-1.24.87-2.04,1.32-2.49l1.37-1.32s1.16-1.15,3.75-1.61c.1-.02.2-.07.27-.14l2-2.03c.14-.15.59-.54,1-.55.16,0,.32.06.46.21.56.57.52.99-.15,1.67l-4.14,4.19.71.7,4.14-4.19c1.06-1.07,1.11-2.11.15-3.08-.07-.08-.15-.14-.23-.2l.39-1.38s.02-.08.02-.12c0-.05.03-1.15-.02-3.52,0-.45.11-.79.38-1.04.38-.36.99-.49,1.44-.52l.15,5.09-1.76,7.8c-3.35,3.39-6.35,5.91-6.38,5.93-.12.1-.18.25-.18.4l.04,1.28c0,.27.23.49.5.49,0,0,0,0,.02,0,.28,0,.49-.24.49-.52l-.03-1.04c.72-.61,3.42-2.96,6.37-5.94.07-.07.11-.15.13-.24l1.8-8s.01-.08.01-.12l-.16-5.65c0-.26-.21-.47-.46-.49Z"/>
    </g>
  </g>
</svg>