<?xml version="1.0" encoding="UTF-8"?>
<svg id="_レイヤー_2" data-name="レイヤー 2" xmlns="http://www.w3.org/2000/svg" viewBox="0 0 50 50">
  <defs>
    <style>
      .cls-1 {
        fill: #7c6053;
      }

      .cls-1, .cls-2, .cls-3, .cls-4, .cls-5 {
        stroke-width: 0px;
      }

      .cls-2 {
        fill: #1a1a1a;
      }

      .cls-3 {
        fill: #d8896d;
      }

      .cls-4 {
        fill: #f2b9a8;
      }

      .cls-5 {
        fill: #fff;
      }
    </style>
  </defs>
  <g id="_モバイル" data-name="モバイル">
    <g>
      <path class="cls-5" d="m50,25c0,2.22-.29,4.38-.84,6.42-2.83,10.7-12.58,18.58-24.16,18.58-7.8,0-14.76-3.57-19.34-9.15C2.12,36.53,0,31.01,0,25,0,11.19,11.19,0,25,0s25,11.19,25,25Z"/>
      <path class="cls-4" d="m31.85,16.13c-1.4.02-1.54.28-1.54.28l.17-2.58s-9.31-8.59-11.38.07c0,0-.18,1.36-.21,3.19-1.19-.01-2.5.38-2.51,2.18-.02,2.35,1.69,3.1,3,3.33.27,1.12.67,2.15,1.28,2.91.29.37.6.68.91.95l.32,3.61s1.13,1.62,4,1.3c2.13-.23,3.75-1.31,3.75-1.31l-.43-4.21c1.46-1.64,1.65-3.47,1.65-3.47,0,0,2.83.29,3.54-2.05.75-2.47-1.16-4.22-2.55-4.21Z"/>
      <path class="cls-3" d="m28.78,26.32c-1.26,1.17-4.56,2.51-7.28.08.54,1.09,1.61,2.67,3.34,2.77,2.66.15,3.86-2.21,4.22-3.15-.09.1-.18.2-.28.3Z"/>
      <path class="cls-2" d="m33.72,13.56c-.28-1.57-1.98-1.35-1.98-1.35,0,0-1.33-4.27-6.41-5.46-5.07-1.18-4.47,2.42-4.47,2.42,0,0-2.55-1.52-3.98.51-1.43,2.02,1.99,7.42,1.99,7.42,0,0,0-3.27,1.67-4.41s2.89-1.03,2.89-1.03c0,0,.69,1.73,2.33,2.89,1.44,1.02,3.36,1.34,4.26,1.44-.25,1.24-.25,2.83-.04,2.88.24.05.63-1.25.84-1.99.16-.07.39-.16.71-.3,1.12-.47,1.9.2,1.9.2,0,0,.58-1.64.29-3.21Z"/>
      <path class="cls-1" d="m38.11,28.55c-4.27-.48-7.37,0-7.37,0,0,0-.24-.64-.45-.74-.17-.08-.49-.12-.9-.12-.26.36-2.03,1.74-3.86,1.84-2.35.13-3.5-.65-3.77-.91-.27.11-.77.35-.9.61-.19.36,0,1.72,0,1.72,0,0-7.89.95-15.2,9.9,4.58,5.59,11.55,9.15,19.34,9.15,11.59,0,21.33-7.88,24.16-18.58-4.79-1.84-9.26-2.67-11.05-2.87Z"/>
      <path class="cls-5" d="m24.43,32.9c-2.44,0-3.77-1.78-3.78-1.8-.09-.12-.06-.29.06-.37.12-.09.29-.06.37.06.07.09,1.73,2.3,4.83,1.35.14-.04.29.04.33.18.04.14-.04.29-.18.33-.59.18-1.14.25-1.63.25Z"/>
    </g>
  </g>
</svg>