<?xml version="1.0" encoding="UTF-8"?>
<svg id="_レイヤー_2" data-name="レイヤー 2" xmlns="http://www.w3.org/2000/svg" xmlns:xlink="http://www.w3.org/1999/xlink" viewBox="0 0 37.77 38">
  <defs>
    <style>
      .cls-1 {
        fill: url(#_新規グラデーションスウォッチ_1);
      }

      .cls-1, .cls-2 {
        stroke-width: 0px;
      }

      .cls-2 {
        fill: #1a1a1a;
      }
    </style>
    <linearGradient id="_新規グラデーションスウォッチ_1" data-name="新規グラデーションスウォッチ 1" x1="1.41" y1="32.09" x2="36.36" y2="32.09" gradientUnits="userSpaceOnUse">
      <stop offset="0" stop-color="#ffe100"/>
      <stop offset="1" stop-color="#e67800"/>
    </linearGradient>
  </defs>
  <g id="pc">
    <g>
      <path class="cls-1" d="M33.62,32.72c0,.39-.32.71-.71.71H4.86c-.39,0-.71-.32-.71-.71v-5.09H1.41v8.9c2.3,0,9.88-.02,17.45-.02h1.17c4.73,0,8.53,0,11.33.01,1.71,0,3.13.01,4.13.03.34,0,.63,0,.87.01v-8.93h-2.74v5.09Z"/>
      <path class="cls-2" d="M37.07,38c.18,0,.36-.07.5-.21.14-.14.21-.33.21-.52v-10.35c0-.39-.32-.71-.71-.71h-4.15c-.39,0-.71.32-.71.71v5.09H5.56v-5.09c0-.39-.32-.71-.71-.71H.71c-.39,0-.71.32-.71.71v10.31c0,.19.07.37.21.5.13.13.31.21.5.21h0c9.64-.02,34.74-.05,36.22.05.05,0,.09.01.14.01ZM36.36,36.56c-.24,0-.53,0-.87-.01-1-.01-2.42-.02-4.13-.03-2.79,0-6.6-.01-11.33-.01h-1.17c-7.58,0-15.15.01-17.45.02v-8.9h2.74v5.09c0,.39.32.71.71.71h28.06c.39,0,.71-.32.71-.71v-5.09h2.74v8.93Z"/>
      <path class="cls-2" d="M8.5,14.61c-.11.26-.05.57.16.77l9.81,9.7c.13.13.31.2.5.2h0c.19,0,.37-.08.5-.21l9.52-9.64c.2-.2.26-.5.15-.76-.11-.26-.36-.43-.64-.44l-5.73-.13V.73c0-.39-.32-.71-.71-.71s-.71.32-.71.71v14.06c0,.38.31.7.69.71l4.78.11-7.88,7.97-8.09-8h4.17c.39,0,.71-.32.71-.71V5.61c0-.39-.32-.71-.71-.71s-.71.32-.71.71v8.57h-5.18c-.29,0-.54.17-.65.44Z"/>
      <path class="cls-2" d="M14.99,3.21c.39,0,.71-.32.71-.71V.71c0-.39-.32-.71-.71-.71s-.71.32-.71.71v1.8c0,.39.32.71.71.71Z"/>
    </g>
  </g>
</svg>