<?xml version="1.0" encoding="UTF-8"?>
<svg id="_レイヤー_2" data-name="レイヤー 2" xmlns="http://www.w3.org/2000/svg" viewBox="0 0 57.58 48.14">
  <defs>
    <style>
      .cls-1 {
        fill: #fff;
        stroke-width: 0px;
      }
    </style>
  </defs>
  <g id="pc">
    <g>
      <path class="cls-1" d="m28.89,15.73c4.34,0,7.87-3.53,7.87-7.87s-3.53-7.87-7.87-7.87-7.86,3.53-7.86,7.87,3.53,7.87,7.86,7.87Zm0-14c3.38,0,6.13,2.75,6.13,6.13s-2.75,6.13-6.13,6.13-6.13-2.75-6.13-6.13,2.75-6.13,6.13-6.13Z"/>
      <path class="cls-1" d="m11.44,18.13c3.96,0,7.18-3.22,7.18-7.18s-3.22-7.18-7.18-7.18-7.18,3.22-7.18,7.18,3.22,7.18,7.18,7.18Zm0-12.63c3,0,5.45,2.44,5.45,5.45s-2.44,5.45-5.45,5.45-5.45-2.44-5.45-5.45,2.44-5.45,5.45-5.45Z"/>
      <path class="cls-1" d="m.1,36.84c-.03.09-.05.18-.05.28,0,.48.39.87.87.87h13.66c.02,4.15.03,8.06.04,9.04-.01.06-.02.13-.02.19,0,.18.06.35.15.49.15.25.42.42.74.42h0c.09,0,.17-.02.25-.04h26.09c.08.02.16.04.25.04.48,0,.87-.39.87-.87v-9.28h13.72c.48,0,.87-.39.87-.87,0-.1-.02-.19-.05-.28h.03s.07-9.82.07-10.02c0,0,0-.02,0-.03-.05-2.48-1.54-7.15-6.73-7.25-.28-.09-.59-.03-.83.17-1.03.91-2.41,1.4-3.87,1.4-1.37,0-2.67-.44-3.68-1.25-.02-.02-.03-.05-.05-.07-.41-.43-.87-.31-1.87.06-2.57-2.49-6.24-2.46-6.4-2.46-.14,0-.28.04-.39.11-.26-.07-.55-.01-.78.17-1.13.95-2.6,1.47-4.16,1.47s-3.14-.56-4.28-1.58c-.29-.26-.72-.28-1.04-.08-.12-.06-.25-.1-.39-.1-2.83,0-4.8,1.08-6.12,2.56-.49-.19-.68-.27-.75-.3-.15-.09-.33-.14-.51-.12-.26.02-.49.15-.63.35-1.01.79-2.3,1.23-3.66,1.23-1.47,0-2.84-.5-3.87-1.4-.24-.21-.55-.26-.83-.17C1.54,19.64.05,24.31,0,26.79c0,0,0,.02,0,.03,0,.11.07,10.03.07,10.03h.03Zm46.04-13.99c1.74,0,3.39-.56,4.7-1.58,1.98.05,3.42.94,4.26,2.66.7,1.41.74,2.88.74,2.89h.01c-.02.15-.02.29-.02.41l-.06,9.03h-12.84v-10.07c0-1.79-.38-3.33-1.1-4.63,1.24.83,2.74,1.29,4.3,1.29Zm-29.88,3.62c0-.3.24-7.34,6.85-7.34.16,0,.31-.05.44-.12,1.44,1.21,3.29,1.88,5.26,1.88s3.72-.63,5.14-1.78c.06.02.13.03.2.03h0s3.17-.01,5.23,2.03c1.21,1.2,1.82,2.89,1.82,5.03v20.17h-11.42v-2.43l7.59-2.72c.12-.04.22-.11.31-.19.29-.14.49-.43.49-.78v-13.09c0-.48-.39-.87-.87-.87s-.87.39-.87.87v12.56l-7.53,2.7-8.01-2.71v-12.37c0-.48-.39-.87-.87-.87s-.87.39-.87.87v12.99c0,.37.24.7.59.82l8.29,2.81v2.42h-11.71l-.08-19.01c0-.33,0-.63-.03-.87h.02Zm-14.53.35c0-.22.18-5.44,5.01-5.55,1.3,1.02,2.95,1.58,4.69,1.58,1.65,0,3.23-.51,4.5-1.43-.99,1.72-1.37,3.65-1.4,5.04,0,.06.02,4.84.04,9.8H1.8l-.06-9.03c0-.12,0-.26-.02-.41h.01Z"/>
      <path class="cls-1" d="m46.15,18.13c3.96,0,7.18-3.22,7.18-7.18s-3.22-7.18-7.18-7.18-7.18,3.22-7.18,7.18,3.22,7.18,7.18,7.18Zm0-12.63c3,0,5.45,2.44,5.45,5.45s-2.44,5.45-5.45,5.45-5.45-2.44-5.45-5.45,2.44-5.45,5.45-5.45Z"/>
    </g>
  </g>
</svg>