<?xml version="1.0" encoding="UTF-8"?>
<svg id="_レイヤー_2" data-name="レイヤー 2" xmlns="http://www.w3.org/2000/svg" viewBox="0 0 28.4 26.96">
  <defs>
    <style>
      .cls-1 {
        fill: none;
        stroke: #f08732;
        stroke-miterlimit: 10;
        stroke-width: 1.35px;
      }
    </style>
  </defs>
  <g id="_モバイル" data-name="モバイル">
    <g>
      <path class="cls-1" d="m2.59,26.06c-.7-.38-1.72-.9-1.91-2.34-.19-1.43,1.57-2.44,3.02-2.37,1.45.07,2.63,1.62,2.3,3.03-.33,1.41-2.14,2.37-3.41,1.68Z"/>
      <path class="cls-1" d="m9.55,19.97c-.46-.72-1.26-1.24-1.75-2.32-.5-1.09-.08-2.5.8-3.31.73-.67,1.88-.75,2.79-.37.92.38,1.62,1.15,2.14,1.99.6.98.98,2.14.78,3.26-.2,1.13-.86,2.43-2.01,2.43-1.22,0-2.36-1.07-2.75-1.68Z"/>
      <path class="cls-1" d="m14.13,11.03c-2.12-1.84-3.16-5.24-1.52-7.53.49-.68,1.16-1.21,1.89-1.63,2.86-1.65,6.63-1.58,9.44.17,1.67,1.04,3.01,2.68,3.5,4.59,2.23,8.7-8.89,8.25-13.3,4.41Z"/>
    </g>
  </g>
</svg>