<?xml version="1.0" encoding="UTF-8"?>
<svg id="_レイヤー_2" data-name="レイヤー 2" xmlns="http://www.w3.org/2000/svg" viewBox="0 0 27.49 38">
  <defs>
    <style>
      .cls-1 {
        fill: #1a1a1a;
        stroke-width: 0px;
      }
    </style>
  </defs>
  <g id="pc">
    <g>
      <path class="cls-1" d="M6.9,8.79H.96c-.22,0-.43.09-.58.25-.15.16-.23.38-.21.6l2.06,26.56c.03.35.28.64.62.71.3.06,5.08,1.08,11.42,1.08,3.27,0,6.95-.27,10.63-1.08.34-.08.59-.37.62-.71l1.98-26.56c.01-.16-.03-.32-.11-.46v-3.22c.01-.24.02-1.21-.7-1.99-.55-.6-1.36-.91-2.41-.91h-7.12V.79c0-.44-.35-.79-.79-.79h-2.62s-.05,0-.07,0c-.02,0-.04,0-.07,0h-2.62c-.44,0-.79.35-.79.79v2.27H3.11c-1.04,0-1.85.31-2.41.91C-.07,4.81,0,5.88,0,6c.04.41.38.72.79.72.02,0,.05,0,.07,0,.44-.04.76-.42.72-.86,0,0-.02-.49.28-.83.24-.26.66-.4,1.24-.4h8.64c.44,0,.79-.35.79-.79s-.32-.75-.73-.78v-1.48h1.82s.05,0,.07,0c.02,0,.04,0,.07,0h1.82v1.48c-.41.03-.73.37-.73.78,0,.44.35.79.79.79h8.64c.57,0,.99.13,1.23.39.32.34.29.83.29.83h0s0,.05,0,.07v2.86H9.77c-.44,0-.79.35-.79.79s.35.79.79.79h16.08l-1.87,25.12c-8.92,1.82-17.9.41-20.22-.01L1.82,10.37h5.08c.44,0,.79-.35.79-.79s-.35-.79-.79-.79Z"/>
      <path class="cls-1" d="M14.97,31.3V14.6c0-.44-.35-.79-.79-.79s-.79.35-.79.79v16.71c0,.44.35.79.79.79s.79-.35.79-.79Z"/>
      <path class="cls-1" d="M19.45,32.02c.42,0,.77-.33.79-.76l.67-16.5c.02-.44-.32-.8-.76-.82-.43-.01-.8.32-.82.76l-.67,16.5c-.02.44.32.8.76.82.01,0,.02,0,.03,0Z"/>
      <path class="cls-1" d="M8.01,31.27c.02.43.37.76.79.76.01,0,.02,0,.03,0,.44-.02.78-.39.76-.82l-.67-16.5c-.02-.44-.38-.77-.82-.76-.44.02-.78.39-.76.82l.67,16.5Z"/>
    </g>
  </g>
</svg>