<?xml version="1.0" encoding="UTF-8"?>
<svg id="_レイヤー_2" data-name="レイヤー 2" xmlns="http://www.w3.org/2000/svg" viewBox="0 0 38.64 47.95">
  <defs>
    <style>
      .cls-1 {
        fill: #fff;
        stroke-width: 0px;
      }
    </style>
  </defs>
  <g id="pc">
    <g>
      <path class="cls-1" d="m.04,47.1h.14s0,.05,0,.08c0,.42.34.77.77.77h36.84s.02,0,.03,0c.02,0,.04,0,.06,0,.43,0,.77-.35.77-.77v-7.9s0-.01,0-.02c0-5-1.35-8.85-3.99-11.45-3.46-3.4-7.84-3.36-8.03-3.36-.42,0-.76.36-.75.78,0,.03.02,2.61-1.71,4.36-1.1,1.12-2.7,1.68-4.74,1.68-2.69,0-4.59-.85-5.65-2.54-.23-.36-.7-.47-1.06-.24-.36.23-.47.7-.24,1.06.94,1.49,2.9,3.26,6.95,3.26,2.48,0,4.44-.72,5.85-2.15,1.52-1.55,1.96-3.53,2.09-4.63,1.27.14,4.01.69,6.24,2.89,2.32,2.29,3.51,5.76,3.52,10.29,0,.02,0,.04,0,.07v7.13H1.57l-.04-6.34c0-.06,0-.14,0-.22,0-.02,0-.05,0-.07,0-.14.32-13.78,10.44-13.78.42,0,.77-.34.77-.77s-.34-.77-.77-.77C.49,24.45.01,39.26,0,39.74c0,0,0,.01,0,.02,0,0,0,0,0,.01,0,.23.04,7.33.04,7.33Z"/>
      <path class="cls-1" d="m19.32,0C12.96,0,7.81,5.15,7.81,11.51s5.15,11.51,11.51,11.51,11.51-5.15,11.51-11.51S25.67,0,19.32,0Zm0,21.69c-5.61,0-10.18-4.57-10.18-10.18S13.7,1.33,19.32,1.33s10.18,4.57,10.18,10.18-4.57,10.18-10.18,10.18Z"/>
    </g>
  </g>
</svg>