<?xml version="1.0" encoding="UTF-8"?>
<svg id="_レイヤー_2" data-name="レイヤー 2" xmlns="http://www.w3.org/2000/svg" viewBox="0 0 20.98 15.3">
  <defs>
    <style>
      .cls-1 {
        fill: #f08732;
        stroke-width: 0px;
      }
    </style>
  </defs>
  <g id="pc">
    <g>
      <path class="cls-1" d="m.34,5.93h3.02v8.66h-1.4c-.19,0-.34.15-.34.34s.15.34.34.34h1.58s.1.04.16.04.11-.02.16-.04h15.09c.19,0,.34-.15.34-.34s-.15-.34-.34-.34h-1.4V5.91h3.08c.12,0,.22-.06.28-.15.09-.11.1-.27.02-.39L17.52.15c-.06-.1-.17-.15-.28-.15H5.92c-.19,0-.34.15-.34.34s.15.34.34.34h11.14l2.97,4.55H6.95c-.19,0-.34.15-.34.34s.15.34.34.34h9.91v8.68h-7.31v-5.42c0-.19-.15-.34-.34-.34h-3.45c-.19,0-.34.15-.34.34v5.42h-1.39V5.91h.42c.19,0,.34-.15.34-.34s-.15-.34-.34-.34h-.75s-.08,0-.12.02c0,0-.02,0-.02,0H.96L3.96.56c.1-.16.06-.37-.1-.47-.16-.1-.37-.06-.47.1L.05,5.4c-.07.1-.07.24-.01.35.06.11.17.18.3.18Zm5.76,3.57h2.77v5.08h-2.77v-5.08Z"/>
      <path class="cls-1" d="m15.15,10.94c.19,0,.34-.15.34-.34v-3.39c0-.19-.15-.34-.34-.34h-3.39c-.19,0-.34.15-.34.34v3.39c0,.19.15.34.34.34h3.39Zm-3.05-3.39h2.71v1h-1.82c-.19,0-.34.15-.34.34s.15.34.34.34h1.82v1.03h-2.71v-2.71Z"/>
    </g>
  </g>
</svg>