<?xml version="1.0" encoding="UTF-8"?>
<svg id="_レイヤー_2" data-name="レイヤー 2" xmlns="http://www.w3.org/2000/svg" viewBox="0 0 20.85 30.49">
  <defs>
    <style>
      .cls-1 {
        fill: #fff;
        stroke-width: 0px;
      }
    </style>
  </defs>
  <g id="_モバイル" data-name="モバイル">
    <path class="cls-1" d="M10.44,30.49c.32,0,.58-.26.58-.58v-12.95h9.24c.23,0,.45-.14.54-.36.09-.22.05-.46-.12-.63l-3.99-4.13c0-.74,0-3.11,0-5.48,0-1.66-.01-2.99-.02-3.94,0-.51-.01-.93-.02-1.25h.78c.32,0,.58-.26.58-.58s-.26-.58-.58-.58H3.55c-.32,0-.58.26-.58.58s.26.58.58.58h.77v10.51L.16,15.97c-.16.17-.21.42-.12.63.09.22.3.36.54.36h9.27v12.95c0,.32.26.58.58.58ZM1.96,15.79l3.23-3.35s.05,0,.08,0h5.12c.32,0,.58-.26.58-.58s-.26-.58-.58-.58h-4.91V1.2h10c.04,1.54.05,6.37.05,9.93h-2.31c-.32,0-.58.26-.58.58s.26.58.58.58h2.35c.03.07.07.13.12.18l3.2,3.32H1.96Z"/>
  </g>
</svg>