<?xml version="1.0" encoding="UTF-8"?>
<svg id="_レイヤー_2" data-name="レイヤー 2" xmlns="http://www.w3.org/2000/svg" viewBox="0 0 16.89 14">
  <defs>
    <style>
      .cls-1 {
        stroke-width: 0px;
      }
    </style>
  </defs>
  <g id="_モバイル" data-name="モバイル">
    <path class="cls-1" d="m5.97,0l-1.03,2.06H1.44c-.8,0-1.44.64-1.44,1.44v9.06c0,.8.64,1.44,1.44,1.44h14c.8,0,1.44-.64,1.44-1.44V3.5c0-.8-.64-1.44-1.44-1.44h-3.5l-1.03-2.06h-4.94Zm2.47,3.5c2.49,0,4.53,2.04,4.53,4.53s-2.04,4.53-4.53,4.53-4.53-2.04-4.53-4.53,2.04-4.53,4.53-4.53h0Zm0,1.65c-1.6,0-2.88,1.28-2.88,2.88s1.28,2.88,2.88,2.88,2.88-1.28,2.88-2.88-1.28-2.88-2.88-2.88Z"/>
  </g>
</svg>