<?xml version="1.0" encoding="UTF-8"?>
<svg id="_レイヤー_2" data-name="レイヤー 2" xmlns="http://www.w3.org/2000/svg" xmlns:xlink="http://www.w3.org/1999/xlink" viewBox="0 0 101 101">
  <defs>
    <style>
      .cls-1 {
        fill: #f08732;
        filter: url(#outer-glow-1);
      }

      .cls-1, .cls-2 {
        stroke-width: 0px;
      }

      .cls-2 {
        fill: #fff;
      }
    </style>
    <filter id="outer-glow-1" filterUnits="userSpaceOnUse">
      <feOffset dx="0" dy="0"/>
      <feGaussianBlur result="blur" stdDeviation="3.33"/>
      <feFlood flood-color="#000" flood-opacity=".75"/>
      <feComposite in2="blur" operator="in"/>
      <feComposite in="SourceGraphic"/>
    </filter>
  </defs>
  <g id="pc">
    <g>
      <rect class="cls-1" x="10.52" y="10.34" width="80" height="80" rx="4" ry="4"/>
      <g>
        <path class="cls-2" d="m24.32,45.89h7.79v22.34h-3.62c-.48,0-.87.39-.87.87s.39.87.87.87h4.08c.12.07.26.11.41.11s.29-.04.41-.11h38.94c.48,0,.87-.39.87-.87s-.39-.87-.87-.87h-3.62v-22.39h7.96c.3,0,.57-.16.73-.39.23-.29.26-.69.05-1.02l-8.78-13.44c-.16-.25-.44-.4-.73-.4h-29.22c-.48,0-.87.39-.87.87s.39.87.87.87h28.74l7.67,11.74h-33.75c-.48,0-.87.39-.87.87s.39.87.87.87h25.58v22.39h-18.87v-13.99c0-.48-.39-.87-.87-.87h-8.91c-.48,0-.87.39-.87.87v13.99h-3.58v-22.39h1.07c.48,0,.87-.39.87-.87s-.39-.87-.87-.87h-1.95c-.11,0-.21.02-.3.06-.02,0-.04,0-.06,0h-6.7l7.75-12.09c.26-.41.14-.95-.26-1.21-.41-.26-.95-.14-1.21.26l-8.61,13.44c-.17.27-.18.61-.03.89.15.28.45.45.77.45Zm14.87,9.22h7.16v13.12h-7.16v-13.12Z"/>
        <path class="cls-2" d="m62.55,58.84c.48,0,.87-.39.87-.87v-8.75c0-.48-.39-.87-.87-.87h-8.75c-.48,0-.87.39-.87.87v8.75c0,.48.39.87.87.87h8.75Zm-7.87-8.75h7v2.58h-4.69c-.48,0-.87.39-.87.87s.39.87.87.87h4.69v2.67h-7v-7Z"/>
      </g>
    </g>
  </g>
</svg>