<?xml version="1.0" encoding="utf-8"?>
<!-- Generator: Adobe Illustrator 28.3.0, SVG Export Plug-In . SVG Version: 6.00 Build 0)  -->
<svg version="1.1" id="_レイヤー_2" xmlns="http://www.w3.org/2000/svg" xmlns:xlink="http://www.w3.org/1999/xlink" x="0px"
	 y="0px" viewBox="0 0 120 66" style="enable-background:new 0 0 120 66;" xml:space="preserve">
<style type="text/css">
	.st0{fill:#F08732;}
	.st1{fill:#FFFFFF;}
	.st2{opacity:0.5;}
</style>
<path class="st0" d="M69.9,49.1c-0.2-1.6-0.8-3.2-1.7-4.5c0,0,0,0-0.1,0c-1-1.5-2.3-2.6-3.8-3.4c-2.7-1.4-6.1-1.4-8.8,0
	c-1.5,0.8-2.9,2-3.8,3.4c0,0,0,0-0.1,0c-1.3,2.1-2,4.6-1.6,7.1c1,4.8,6,10.7,9.1,13.9C59.8,66,59.9,66,60,66c0.1,0,0.2,0,0.7-0.5
	c1.5-1.5,2.6-2.7,4.5-5.2C67.6,57,70.5,53.2,69.9,49.1z"/>
<circle class="st1" cx="60" cy="49" r="4"/>
<path class="st2" d="M108,2H12C5.4,2,0,6.5,0,12v20c0,5.5,5.4,10,12,10h96c6.6,0,12-4.5,12-10V12C120,6.5,114.6,2,108,2z"/>
<path class="st0" d="M108,0H12C5.4,0,0,4.5,0,10v20c0,5.5,5.4,10,12,10h96c6.6,0,12-4.5,12-10V10C120,4.5,114.6,0,108,0z"/>
<g>
	<path class="st1" d="M15.2,24.9c-1.7,0-2.9-0.2-3.7-0.7c-0.8-0.5-1.2-1.2-1.2-2c0-0.8,0.5-1.7,1.6-2.7c0.1-0.1,0.3-0.2,0.5-0.2
		c0.2,0,0.4,0.1,0.5,0.2l0.3,0.3c0.1,0.1,0.2,0.3,0.2,0.4c0,0.2-0.1,0.3-0.2,0.5c-0.7,0.6-1,1.1-1,1.5c0,0.7,1,1,2.9,1
		c0.8,0,1.8-0.1,3-0.4c0.2,0,0.4,0,0.5,0.1c0.2,0.1,0.2,0.2,0.3,0.4l0.1,0.4c0,0.2,0,0.4-0.1,0.5c-0.1,0.2-0.2,0.3-0.4,0.3
		C17.3,24.8,16.1,24.9,15.2,24.9z M17.4,15.9c0.2,0,0.3,0.1,0.5,0.2c0.1,0.1,0.2,0.3,0.2,0.5l0,0.4c0,0.2-0.1,0.4-0.2,0.5
		c-0.1,0.1-0.3,0.2-0.5,0.2c-0.6,0-1.3,0-2,0c-1.2,0-2.4-0.1-3.5-0.2c-0.2,0-0.4-0.1-0.5-0.2s-0.2-0.3-0.2-0.5l0-0.4
		c0-0.2,0.1-0.3,0.2-0.5c0.1-0.1,0.3-0.2,0.5-0.2c1.2,0.1,2.3,0.2,3.4,0.2C16.2,15.9,16.9,15.9,17.4,15.9z"/>
	<path class="st1" d="M22.9,24.1c-0.6,0-1.2-0.3-1.8-1c-0.5-0.7-0.8-1.5-0.8-2.4c0-1.5,0.5-2.7,1.5-3.6c1-0.9,2.4-1.4,4.1-1.4
		c1.4,0,2.6,0.4,3.5,1.2c0.9,0.8,1.3,1.9,1.3,3.1c0,1.1-0.3,2-0.8,2.8c-0.6,0.8-1.4,1.3-2.4,1.6c-0.2,0.1-0.4,0-0.5-0.1
		s-0.3-0.2-0.4-0.4l-0.1-0.3c-0.1-0.2,0-0.3,0-0.5c0.1-0.2,0.2-0.3,0.4-0.4c1.2-0.5,1.9-1.4,1.9-2.8c0-0.6-0.2-1.2-0.5-1.6
		s-0.8-0.8-1.4-0.9c-0.1,0-0.1,0-0.1,0.1C26.1,22,24.8,24.1,22.9,24.1z M24.7,17.6c-0.8,0.2-1.4,0.5-1.9,1.1c-0.4,0.5-0.7,1.2-0.7,2
		c0,0.5,0.1,0.9,0.2,1.2s0.3,0.5,0.5,0.5c0.2,0,0.4-0.1,0.6-0.4c0.2-0.3,0.4-0.8,0.6-1.5S24.6,18.8,24.7,17.6
		C24.8,17.6,24.8,17.6,24.7,17.6C24.8,17.6,24.7,17.6,24.7,17.6z"/>
	<path class="st1" d="M32.4,19.5c-0.2,0-0.3-0.1-0.5-0.2s-0.2-0.3-0.2-0.5v-0.2c0-0.2,0.1-0.3,0.2-0.5c0.1-0.1,0.3-0.2,0.5-0.2h0.2
		c0.1,0,0.1,0,0.1-0.1v-2.3c0-0.2,0.1-0.3,0.2-0.5c0.1-0.1,0.3-0.2,0.5-0.2h0.5c0.2,0,0.3,0.1,0.5,0.2c0.1,0.1,0.2,0.3,0.2,0.5v2.3
		c0,0.1,0,0.1,0.1,0.1h0.4c0.2,0,0.4,0.1,0.6,0.3c0,0,0,0,0,0c0,0,0,0,0,0v-2.7c0-0.2,0.1-0.3,0.2-0.5s0.3-0.2,0.5-0.2h5.3
		c0.2,0,0.3,0.1,0.5,0.2s0.2,0.3,0.2,0.5v2.9c0,0.2-0.1,0.3-0.2,0.5s-0.3,0.2-0.5,0.2h-4.2h-1.1c-0.2,0-0.4-0.1-0.6-0.3c0,0,0,0,0,0
		c0,0,0,0,0,0c0,0.2-0.1,0.3-0.2,0.5c-0.1,0.1-0.3,0.2-0.5,0.2h-0.4c-0.1,0-0.1,0-0.1,0.1V22v0l0,0c0,0,0.1,0,0.1,0c0,0,0,0,0,0
		c0-0.1,0.1-0.2,0.2-0.3c0.4-0.3,0.9-0.6,1.3-0.9c0,0,0,0,0,0c0,0,0,0,0,0h-0.3c-0.2,0-0.3-0.1-0.4-0.2c-0.1-0.1-0.2-0.3-0.2-0.4
		s0.1-0.3,0.2-0.4c0.1-0.1,0.3-0.2,0.4-0.2H42c0.2,0,0.3,0.1,0.4,0.2c0.1,0.1,0.2,0.3,0.2,0.4s-0.1,0.3-0.2,0.4
		c-0.1,0.1-0.3,0.2-0.4,0.2h-4.1c-0.1,0-0.1,0-0.2,0.1c0,0-0.1,0.1-0.2,0.2c0,0,0,0.1,0,0.1h4.1c0.2,0,0.3,0.1,0.5,0.2
		c0.1,0.1,0.2,0.3,0.2,0.5v0.5c0,1-0.1,1.7-0.1,2.1c-0.1,0.5-0.3,0.8-0.5,0.9c-0.2,0.2-0.5,0.2-1,0.2c-0.3,0-0.6,0-0.8,0
		c-0.2,0-0.4-0.1-0.5-0.2c-0.1-0.1-0.2-0.3-0.2-0.5l0-0.4c0,0,0,0,0,0c0,0,0,0,0,0c-0.4,0.4-0.7,0.7-1.1,0.9
		c-0.2,0.1-0.3,0.2-0.5,0.1s-0.4-0.1-0.5-0.2l0,0c-0.1-0.1-0.2-0.3-0.2-0.4s0.1-0.3,0.2-0.4c0.8-0.6,1.4-1.2,2-2c0-0.1,0-0.1,0-0.1
		h-0.4c-0.1,0-0.1,0-0.2,0.1c-0.8,0.9-1.7,1.7-2.8,2.3c-0.2,0.1-0.3,0.1-0.5,0.1s-0.4-0.1-0.5-0.3c-0.1-0.1-0.1-0.3-0.1-0.4
		c0-0.2,0.1-0.3,0.3-0.4c0.8-0.4,1.4-0.9,2-1.4c0,0,0,0,0,0s0,0,0,0h-0.6c-0.1,0-0.1,0-0.2,0.1c-0.1,0-0.1,0.1-0.2,0.2
		c-0.1,0.1-0.2,0.1-0.2,0.1c0,0,0,0,0,0c-0.1,0-0.1,0.1-0.1,0.1c-0.1,0.3-0.2,0.4-0.5,0.6c-0.7,0.3-1.5,0.6-2.5,0.9
		c-0.2,0-0.3,0-0.5-0.1c-0.1-0.1-0.2-0.2-0.3-0.4l0-0.3c0-0.2,0-0.4,0.1-0.5c0.1-0.2,0.3-0.2,0.4-0.3c0,0,0.1,0,0.1,0
		c0.1,0,0.1,0,0.1,0c0.1,0,0.1,0,0.1-0.1v-2.9c0-0.1,0-0.1-0.1-0.1H32.4z M37.3,16.4v0.3c0,0.1,0,0.1,0.1,0.1h2.7
		c0.1,0,0.1,0,0.1-0.1v-0.3c0-0.1,0-0.1-0.1-0.1h-2.7C37.3,16.3,37.3,16.4,37.3,16.4z M37.3,17.8V18c0,0.1,0,0.1,0.1,0.1h2.7
		c0.1,0,0.1,0,0.1-0.1v-0.3c0-0.1,0-0.1-0.1-0.1h-2.7C37.3,17.7,37.3,17.7,37.3,17.8z M39.5,23.9C39.5,24,39.5,24,39.5,23.9
		C39.8,24,40,24,40.3,24c0.2,0,0.3-0.1,0.4-0.3c0.1-0.2,0.1-0.6,0.1-1.3v0c0,0,0,0,0,0c0,0,0,0,0,0C40.3,23,40,23.5,39.5,23.9z"/>
	<path class="st1" d="M43.9,25c-0.2-0.1-0.3-0.2-0.3-0.4c-0.1-0.2-0.1-0.4,0-0.5c0.2-0.5,0.3-1.1,0.4-1.8c0.1-0.7,0.1-1.6,0.1-2.9
		v-1.3c0-0.2,0.1-0.3,0.2-0.5c0.1-0.1,0.3-0.2,0.5-0.2h3.5c0.2,0,0.3,0.1,0.5,0.2c0.1,0.1,0.2,0.3,0.2,0.5v3.3
		c0,0.2-0.1,0.3-0.2,0.5C48.5,22,48.3,22,48.1,22h-2.3c-0.1,0-0.1,0-0.1,0.1c-0.1,1.2-0.3,2.1-0.6,2.9c-0.1,0.2-0.2,0.3-0.4,0.3
		c-0.2,0.1-0.3,0-0.5-0.1L43.9,25z M48.2,15.1c0.2,0,0.3,0.1,0.5,0.2c0.1,0.1,0.2,0.3,0.2,0.5V16c0,0.2-0.1,0.3-0.2,0.5
		c-0.1,0.1-0.3,0.2-0.5,0.2h-4c-0.2,0-0.3-0.1-0.5-0.2c-0.1-0.1-0.2-0.3-0.2-0.5v-0.2c0-0.2,0.1-0.3,0.2-0.5
		c0.1-0.1,0.3-0.2,0.5-0.2H48.2z M45.8,20.3v0.2c0,0.1,0,0.1,0.1,0.1h1.3c0.1,0,0.1,0,0.1-0.1V19c0-0.1,0-0.1-0.1-0.1h-1.3
		c-0.1,0-0.1,0-0.1,0.1V20.3z M52.4,25.4c-0.2,0-0.3-0.1-0.5-0.2c-0.1-0.1-0.2-0.3-0.2-0.5V20c0-0.1,0-0.1-0.1-0.1h-0.6
		c-0.1,0-0.1,0-0.1,0.1c-0.1,1.1-0.3,2-0.6,2.8c-0.3,0.7-0.7,1.4-1.1,2c-0.1,0.1-0.3,0.2-0.4,0.2c-0.2,0-0.3,0-0.5-0.2L48,24.6
		c-0.1-0.1-0.2-0.3-0.2-0.5c0-0.2,0-0.4,0.1-0.5c0.6-0.8,1-1.7,1.2-2.8c0.2-1.1,0.4-2.7,0.4-4.7c0-0.2,0.1-0.3,0.2-0.5
		c0.1-0.1,0.3-0.2,0.5-0.2c1.1-0.1,2.1-0.3,3-0.6c0.2,0,0.3,0,0.5,0.1s0.3,0.2,0.3,0.4l0.1,0.3c0,0.2,0,0.4-0.1,0.5
		c-0.1,0.2-0.2,0.3-0.4,0.3c-0.6,0.2-1.4,0.3-2.4,0.5c-0.1,0-0.1,0.1-0.1,0.1c0,0.3,0,0.6,0,1.1c0,0.1,0,0.1,0.1,0.1h2.5
		c0.2,0,0.3,0.1,0.5,0.2c0.1,0.1,0.2,0.3,0.2,0.5v0.3c0,0.2-0.1,0.3-0.2,0.5s-0.3,0.2-0.5,0.2h-0.1c-0.1,0-0.1,0-0.1,0.1v4.7
		c0,0.2-0.1,0.3-0.2,0.5c-0.1,0.1-0.3,0.2-0.5,0.2H52.4z"/>
	<path class="st1" d="M56.9,24.9c-0.2,0-0.4,0-0.5-0.1c-0.2-0.1-0.3-0.3-0.3-0.5c-0.3-1.3-0.4-2.7-0.4-4.2c0-1.5,0.1-2.9,0.4-4.2
		c0-0.2,0.1-0.3,0.3-0.5c0.2-0.1,0.3-0.2,0.5-0.1l0.6,0.1c0.2,0,0.3,0.1,0.4,0.2c0.1,0.1,0.1,0.3,0.1,0.5c-0.3,1.2-0.4,2.5-0.4,4
		s0.1,2.8,0.4,4c0,0.2,0,0.3-0.1,0.5c-0.1,0.1-0.2,0.2-0.4,0.2L56.9,24.9z M62.2,24.5c-1.1,0-2-0.2-2.5-0.6s-0.9-1-0.9-1.8
		c0-0.3,0.1-0.7,0.3-1s0.4-0.7,0.8-1.1c0.1-0.1,0.3-0.2,0.5-0.2s0.4,0.1,0.5,0.2l0.2,0.2c0.1,0.1,0.2,0.2,0.2,0.4
		c0,0.2,0,0.3-0.2,0.5c-0.4,0.4-0.5,0.7-0.5,1c0,0.5,0.5,0.7,1.5,0.7c0.6,0,1.2-0.1,1.9-0.2c0.2,0,0.3,0,0.5,0.1
		c0.1,0.1,0.2,0.2,0.3,0.4l0.1,0.4c0,0.2,0,0.4-0.1,0.5c-0.1,0.2-0.3,0.3-0.5,0.3C63.7,24.4,63,24.5,62.2,24.5z M64,16.2
		c0.2,0,0.3,0,0.5,0.1c0.1,0.1,0.2,0.3,0.2,0.5l0,0.4c0,0.2,0,0.4-0.2,0.5c-0.1,0.1-0.3,0.2-0.5,0.3c-1.4,0.2-2.7,0.2-4,0.3
		c-0.2,0-0.3-0.1-0.5-0.2c-0.1-0.1-0.2-0.3-0.2-0.5v-0.4c0-0.2,0.1-0.4,0.2-0.5c0.1-0.1,0.3-0.2,0.5-0.2
		C61.5,16.5,62.8,16.4,64,16.2z"/>
	<path class="st1" d="M68.9,18.1c-0.2,0.5-0.3,0.8-0.5,1.1c0,0,0,0,0,0c0.7-0.6,1.1-1.4,1.2-2.3c0-0.1,0-0.1-0.1-0.1H67
		c-0.2,0-0.3-0.1-0.5-0.2c-0.1-0.1-0.2-0.3-0.2-0.5V16c0-0.2,0.1-0.3,0.2-0.5c0.1-0.1,0.3-0.2,0.5-0.2h3.5c0.1,0,0.1,0,0.1-0.1v-0.1
		c0-0.2,0.1-0.3,0.2-0.5c0.1-0.1,0.3-0.2,0.5-0.2h0.6c0.2,0,0.3,0.1,0.5,0.2c0.1,0.1,0.2,0.3,0.2,0.5v0.1c0,0.1,0,0.1,0.1,0.1H76
		c0.2,0,0.3,0.1,0.5,0.2c0.1,0.1,0.2,0.3,0.2,0.5v0.1c0,0.2-0.1,0.3-0.2,0.5c-0.1,0.1-0.3,0.2-0.5,0.2h-2c-0.1,0-0.1,0-0.1,0.1v0.6
		c0,0.1,0,0.1,0.1,0.1l0.7-0.3c0.2-0.1,0.4-0.1,0.6,0c0.2,0.1,0.3,0.2,0.5,0.3c0.4,0.6,0.8,1.1,1,1.6c0.1,0.2,0.1,0.3,0,0.5
		s-0.2,0.3-0.3,0.4l-0.4,0.2c-0.2,0.1-0.4,0.1-0.5,0s-0.3-0.2-0.4-0.3c-0.4-0.6-0.7-1.3-1.1-1.8c0,0,0,0,0,0s0,0,0,0v0
		c0,0.5,0,0.9,0,1.1c0,0.3-0.1,0.5-0.2,0.6c-0.1,0.2-0.2,0.2-0.4,0.3c-0.2,0-0.4,0-0.7,0c-0.3,0-0.5,0-0.7,0c0,0-0.1,0-0.2,0
		c0,0,0,0,0,0c0,0,0,0,0,0c0.1,0.2,0,0.3-0.1,0.4c0,0,0,0-0.1,0.1c0,0-0.1,0-0.1,0c0,0,0,0,0,0h3.2c0.2,0,0.3,0.1,0.5,0.2
		c0.1,0.1,0.2,0.3,0.2,0.5c0,0.5-0.2,0.8-0.5,1.1c-0.4,0.3-0.8,0.7-1.2,0.9c0,0,0,0.1,0,0.1c0.8,0.2,1.7,0.3,2.6,0.4
		c0.2,0,0.3,0.1,0.4,0.2c0.1,0.1,0.1,0.3,0.1,0.5l-0.1,0.3c-0.1,0.2-0.2,0.3-0.3,0.4c-0.2,0.1-0.3,0.2-0.5,0.1
		c-1.5-0.2-2.8-0.5-4.1-0.9c-0.1,0-0.1,0-0.2,0c-1.2,0.4-2.6,0.8-4.1,0.9c-0.2,0-0.4,0-0.5-0.1c-0.2-0.1-0.3-0.3-0.3-0.4l-0.1-0.3
		c0-0.2,0-0.3,0.1-0.5c0.1-0.1,0.2-0.2,0.4-0.2c0.9-0.1,1.8-0.2,2.6-0.3c0,0,0,0,0,0c0,0,0,0,0,0c0,0-0.1-0.1-0.1-0.1
		c-0.1,0-0.1-0.1-0.1-0.1c-0.2-0.1-0.2-0.2-0.2-0.4c0-0.2,0-0.3,0.2-0.5l0.3-0.3c0,0,0,0,0,0c0,0-0.1,0-0.1,0
		c-0.7,0.4-1.3,0.7-1.9,0.9c-0.2,0.1-0.4,0.1-0.5,0c-0.2-0.1-0.3-0.2-0.4-0.4l-0.1-0.2c-0.1-0.2-0.1-0.3,0-0.5
		c0.1-0.2,0.2-0.3,0.4-0.3c1-0.3,1.8-0.7,2.4-1c0,0,0,0,0,0s0,0,0,0c-0.1,0-0.2-0.1-0.3-0.1l-0.7-0.6c0,0-0.1,0-0.1,0
		C68,19.8,68,19.9,67.9,20c-0.1,0.2-0.3,0.3-0.4,0.3c-0.2,0-0.4,0-0.5-0.1L66.6,20c-0.2-0.1-0.2-0.2-0.3-0.4c0-0.2,0-0.3,0.1-0.5
		c0.3-0.4,0.6-0.9,0.8-1.5c0.1-0.2,0.2-0.3,0.4-0.4c0.2-0.1,0.3-0.1,0.5-0.1l0.4,0.1c0.2,0,0.3,0.1,0.4,0.3
		C68.9,17.8,68.9,17.9,68.9,18.1z M73.1,22h-3.1c0,0,0,0,0,0s0,0,0,0c0.4,0.3,1,0.5,1.6,0.8c0.1,0,0.1,0,0.2,0
		C72.2,22.6,72.7,22.3,73.1,22C73.1,22,73.1,22,73.1,22C73.1,22,73.1,22,73.1,22z M71.3,16.9c-0.1,1.1-0.4,2.1-1,2.8c0,0,0,0,0,0
		c0,0,0,0,0,0c0.2-0.1,0.5-0.1,0.7,0l0.2,0.1c0,0,0,0,0,0c0,0,0,0,0,0c-0.1-0.1-0.1-0.3-0.2-0.4l0-0.1c0-0.2,0-0.3,0.2-0.4
		c0.1-0.1,0.3-0.2,0.4-0.2h0.2c0.2,0,0.3,0,0.3-0.1c0,0,0-0.2,0-0.4v-1.3c0-0.1,0-0.1-0.1-0.1h-0.6C71.4,16.8,71.3,16.9,71.3,16.9z"
		/>
	<path class="st1" d="M78.5,16.4c-0.2,0-0.3-0.1-0.5-0.2c-0.1-0.1-0.2-0.3-0.2-0.5v-0.1c0-0.2,0.1-0.3,0.2-0.5
		c0.1-0.1,0.3-0.2,0.5-0.2h9.2c0.2,0,0.3,0.1,0.5,0.2c0.1,0.1,0.2,0.3,0.2,0.5v0.1c0,0.2-0.1,0.3-0.2,0.5c-0.1,0.1-0.3,0.2-0.5,0.2
		h-3.4c-0.1,0-0.1,0-0.1,0.1v0.3c0,0.1,0,0.1,0.1,0.1H87c0.2,0,0.3,0.1,0.5,0.2s0.2,0.3,0.2,0.5v4c0,0.2-0.1,0.3-0.2,0.5
		c-0.1,0.1-0.3,0.2-0.5,0.2h-0.5c-0.2,0-0.3-0.1-0.4-0.2c-0.1-0.1-0.2-0.2-0.2-0.4c0,0,0-0.1-0.1-0.1h-1.9c-0.1,0-0.1,0-0.1,0.1
		c-0.1,0.5-0.3,0.9-0.5,1.3c0,0.1,0,0.1,0,0.1c1.2,0.4,2.7,0.6,4.5,0.6c0.2,0,0.3,0.1,0.4,0.2c0.1,0.1,0.2,0.3,0.1,0.5l0,0.3
		c0,0.2-0.1,0.3-0.3,0.5c-0.2,0.1-0.3,0.2-0.5,0.2c-2.1-0.1-3.9-0.4-5.4-1c-0.1,0-0.1,0-0.2,0c-0.7,0.4-1.7,0.7-3,0.9
		c-0.2,0-0.4,0-0.5-0.1s-0.3-0.2-0.3-0.4l-0.1-0.2c0-0.2,0-0.3,0.1-0.5c0.1-0.1,0.2-0.2,0.4-0.3c0.8-0.1,1.4-0.3,1.8-0.4
		c0,0,0,0,0,0c0,0,0,0,0,0c-0.2-0.2-0.4-0.3-0.6-0.5c-0.1-0.1-0.2-0.3-0.2-0.4c0-0.2,0.1-0.3,0.2-0.4l0.4-0.3c0,0,0,0,0,0
		c0,0,0,0,0,0h-0.7c-0.2,0-0.3-0.1-0.5-0.2c-0.1-0.1-0.2-0.3-0.2-0.5v-3.4c0-0.2,0.1-0.3,0.2-0.5S79,17,79.2,17h2.9
		c0.1,0,0.1,0,0.1-0.1v-0.3c0-0.1,0-0.1-0.1-0.1H78.5z M82.3,18.7v-0.3c0-0.1,0-0.1-0.1-0.1h-1.8c-0.1,0-0.1,0-0.1,0.1v0.3
		c0,0.1,0,0.1,0.1,0.1h1.7C82.2,18.8,82.3,18.7,82.3,18.7z M82.2,20.3c0-0.1,0-0.3,0-0.3c0-0.1,0-0.1-0.1-0.1h-1.7
		c-0.1,0-0.1,0-0.1,0.1v0.4c0,0.1,0,0.1,0.1,0.1h1.7C82.2,20.4,82.2,20.4,82.2,20.3z M81.9,21.8C82,21.7,81.9,21.7,81.9,21.8
		l-1.2-0.1c0,0,0,0,0,0c0,0,0,0,0,0c0.2,0.2,0.5,0.4,0.9,0.7c0,0,0.1,0,0.1,0C81.8,22.2,81.9,22,81.9,21.8z M84.1,19.9
		c0,0.2,0,0.3,0,0.4c0,0.1,0,0.1,0.1,0.1h1.6c0.1,0,0.1,0,0.1-0.1v-0.4c0-0.1,0-0.1-0.1-0.1h-1.6C84.1,19.8,84.1,19.9,84.1,19.9z
		 M84.2,18.3v0.3c0,0.1,0,0.1,0.1,0.1h1.5c0.1,0,0.1,0,0.1-0.1v-0.3c0-0.1,0-0.1-0.1-0.1h-1.5C84.2,18.2,84.2,18.2,84.2,18.3z"/>
	<path class="st1" d="M90.1,17.7c-0.2,0-0.3-0.1-0.5-0.2c-0.1-0.1-0.2-0.3-0.2-0.5v-0.2c0-0.2,0.1-0.3,0.2-0.5
		c0.1-0.1,0.3-0.2,0.5-0.2c1.3,0,2.8-0.1,4.5-0.1c0.1,0,0.1,0,0.1-0.1c0-0.1,0-0.3,0-0.6c0-0.2,0.1-0.3,0.2-0.5
		c0.1-0.1,0.3-0.2,0.5-0.2h0.5c0.2,0,0.4,0.1,0.5,0.2c0.1,0.1,0.2,0.3,0.2,0.5c0,0,0,0.1,0,0.2c0,0.1,0,0.2,0,0.2
		c0,0.1,0,0.1,0.1,0.1c1-0.1,1.8-0.1,2.4-0.2c0.2,0,0.3,0,0.5,0.2c0.1,0.1,0.2,0.3,0.2,0.5l0,0.2c0,0.2,0,0.4-0.2,0.5
		s-0.3,0.2-0.5,0.2c-0.9,0.1-1.7,0.1-2.4,0.2c-0.1,0-0.1,0-0.1,0.1c0,0.6,0,1.2,0,1.8c0,0.1,0,0.1,0.1,0.2c0.3,0.5,0.4,1.1,0.4,1.8
		c0,1.2-0.3,2-1,2.7c-0.7,0.6-1.8,1-3.3,1.1c-0.2,0-0.4,0-0.5-0.2c-0.1-0.1-0.2-0.3-0.3-0.5l0-0.3c0-0.2,0-0.3,0.1-0.5
		c0.1-0.1,0.3-0.2,0.4-0.2c1.2-0.1,2-0.4,2.4-0.9c0.1-0.1,0.1-0.2,0.1-0.3v0h0c-0.4,0.2-0.8,0.4-1.3,0.4c-0.7,0-1.3-0.2-1.8-0.6
		c-0.5-0.4-0.7-1-0.7-1.7c0-0.7,0.2-1.2,0.7-1.7c0.5-0.4,1.1-0.7,1.8-0.7c0.3,0,0.6,0.1,0.9,0.2h0c0,0,0,0,0,0c0-0.1,0-0.2,0-0.3
		s0-0.2,0-0.2c0-0.1,0-0.1-0.1-0.1C93,17.6,91.4,17.7,90.1,17.7z M93.5,21c0.2,0.2,0.4,0.3,0.6,0.3s0.5-0.1,0.6-0.3
		c0.2-0.2,0.3-0.4,0.3-0.6s-0.1-0.5-0.3-0.6c-0.2-0.2-0.4-0.3-0.6-0.3s-0.5,0.1-0.6,0.3c-0.2,0.2-0.3,0.4-0.3,0.6S93.3,20.9,93.5,21
		z"/>
	<path class="st1" d="M100.7,21.1l-0.1-0.3c-0.1-0.2-0.1-0.4,0-0.5c0.1-0.2,0.2-0.3,0.4-0.4c2-1,3.8-1.9,5.5-2.9c0,0,0,0,0,0
		c0,0,0,0,0,0c-1.2,0.2-2.6,0.2-4,0.3c-0.2,0-0.3-0.1-0.5-0.2c-0.1-0.1-0.2-0.3-0.2-0.5v-0.4c0-0.2,0.1-0.4,0.2-0.5
		c0.1-0.1,0.3-0.2,0.5-0.2c1.7,0,3.6-0.1,5.5-0.2c0.2,0,0.4,0,0.5,0.2c0.1,0.1,0.2,0.3,0.3,0.5l0.1,0.8c0,0.2,0,0.4-0.1,0.6
		s-0.2,0.3-0.4,0.4c-0.6,0.3-1.5,0.8-2.6,1.3c0,0,0,0,0,0h0c0.2,0,0.4-0.1,0.7-0.1c1,0,1.8,0.2,2.4,0.7c0.6,0.5,0.9,1.1,0.9,2
		c0,1-0.4,1.8-1.2,2.5c-0.8,0.6-2,0.9-3.4,0.9c-1,0-1.8-0.2-2.3-0.6c-0.6-0.4-0.8-0.9-0.8-1.5c0-0.5,0.2-1,0.7-1.3
		c0.5-0.4,1.1-0.5,1.9-0.5c0.8,0,1.5,0.2,1.9,0.5c0.4,0.3,0.6,0.8,0.6,1.4V23c0,0.1,0,0.1,0.1,0c0.5-0.3,0.7-0.7,0.7-1.3
		c0-0.5-0.2-0.8-0.6-1.1c-0.4-0.3-1-0.4-1.8-0.4c-0.5,0-1.1,0.1-1.6,0.2c-0.6,0.2-1.3,0.4-2.2,0.9c-0.2,0.1-0.3,0.1-0.5,0
		C100.9,21.4,100.8,21.2,100.7,21.1z M105.3,23.4c0-0.2,0-0.3,0-0.4c0-0.2-0.1-0.4-0.2-0.5c-0.1-0.1-0.4-0.1-0.7-0.1
		c-0.6,0-0.9,0.2-0.9,0.5c0,0.4,0.5,0.6,1.5,0.6h0.1C105.3,23.5,105.3,23.5,105.3,23.4z"/>
</g>
</svg>
