<?xml version="1.0" encoding="UTF-8"?>
<svg id="_レイヤー_2" data-name="レイヤー 2" xmlns="http://www.w3.org/2000/svg" viewBox="0 0 26.64 26.64">
  <defs>
    <style>
      .cls-1 {
        fill: #f08732;
        stroke-width: 0px;
      }
    </style>
  </defs>
  <g id="pc">
    <g>
      <path class="cls-1" d="m2.65,5.35C.92,7.66,0,10.42,0,13.32c0,7.35,5.98,13.32,13.32,13.32s13.32-5.98,13.32-13.32S20.67,0,13.32,0c-2.31,0-4.59.6-6.59,1.74-.36.21-.49.66-.28,1.02.21.36.66.49,1.02.28,1.77-1.01,3.79-1.54,5.85-1.54,6.52,0,11.82,5.3,11.82,11.82s-5.3,11.82-11.82,11.82S1.5,19.84,1.5,13.32c0-2.57.81-5.02,2.35-7.08.25-.33.18-.8-.15-1.05-.33-.25-.8-.18-1.05.15Z"/>
      <path class="cls-1" d="m8.21,14.95c-.28,0-.51.3-.51.67s.23.67.51.67h4.54v4.37c0,.37.23.67.51.67s.51-.3.51-.67v-4.37h4.48c.28,0,.51-.3.51-.67s-.23-.67-.51-.67h-4.48v-2.31h4.48c.28,0,.51-.3.51-.67s-.23-.67-.51-.67h-3.72l2.98-3.81c.2-.26.21-.68.01-.95-.2-.27-.52-.27-.72-.01l-3.59,4.58-3.68-4.59c-.2-.25-.53-.24-.72.03-.19.27-.18.69.02.95l3.05,3.8h-3.68c-.28,0-.51.3-.51.67s.23.67.51.67h4.54v2.31h-4.54Z"/>
    </g>
  </g>
</svg>