<?xml version="1.0" encoding="UTF-8"?>
<svg id="_レイヤー_2" data-name="レイヤー 2" xmlns="http://www.w3.org/2000/svg" viewBox="0 0 16.69 16.69">
  <defs>
    <style>
      .cls-1 {
        fill: #6ab539;
        stroke-width: 0px;
      }
    </style>
  </defs>
  <g id="m">
    <g>
      <path class="cls-1" d="m1.66,3.35c-1.09,1.45-1.66,3.18-1.66,5,0,4.6,3.74,8.34,8.34,8.34s8.34-3.74,8.34-8.34S12.94,0,8.34,0c-1.45,0-2.88.38-4.13,1.09-.23.13-.3.42-.18.64.13.23.42.3.64.18,1.11-.63,2.38-.97,3.66-.97,4.08,0,7.4,3.32,7.4,7.4s-3.32,7.4-7.4,7.4S.94,12.43.94,8.34c0-1.61.51-3.14,1.47-4.43.16-.21.11-.5-.09-.66-.21-.16-.5-.11-.66.09Z"/>
      <path class="cls-1" d="m5.14,9.36c-.18,0-.32.19-.32.42s.14.42.32.42h2.85v2.74c0,.23.14.42.32.42s.32-.19.32-.42v-2.74h2.81c.18,0,.32-.19.32-.42s-.14-.42-.32-.42h-2.81v-1.44h2.81c.18,0,.32-.19.32-.42s-.14-.42-.32-.42h-2.33l1.87-2.39c.13-.16.13-.43,0-.59-.12-.17-.32-.17-.45,0l-2.25,2.87-2.31-2.87c-.13-.16-.33-.15-.45.02-.12.17-.12.43.01.59l1.91,2.38h-2.3c-.18,0-.32.19-.32.42s.14.42.32.42h2.85v1.44h-2.85Z"/>
    </g>
  </g>
</svg>