<?xml version="1.0" encoding="UTF-8"?>
<svg id="_レイヤー_2" data-name="レイヤー 2" xmlns="http://www.w3.org/2000/svg" viewBox="0 0 25.25 21.07">
  <defs>
    <style>
      .cls-1 {
        fill: #f08732;
        stroke-width: 0px;
      }
    </style>
  </defs>
  <g id="_モバイル" data-name="モバイル">
    <path class="cls-1" d="m16.08,21.07c-.27,0-.54-.13-.71-.36-1.45-1.99-3.07-4.01-5.48-5.04-2.32-.99-6.29.74-8.67,1.77-.41.18-.89.02-1.11-.36-.22-.39-.12-.88.24-1.14,3.19-2.36,5.07-4.83,5.29-6.95h0c.2-1.87-1.05-4.52-2.15-6.86l-.41-.88c-.18-.39-.05-.86.32-1.1.36-.24.85-.17,1.14.16,2.03,2.31,3.79,4.3,5.68,5.42.67.4,1.46.84,2.27,1.01.91.19,1.93.06,2.82-.08,2.51-.39,5.45-1.24,8.75-2.5.43-.16.9.02,1.1.43.2.41.06.9-.32,1.13-3.12,1.93-5.27,3.62-7.05,6.56-.33.55-.92,1.69-1.16,3.23-.16,1.03,0,2.15.2,3.69l.12.89c.05.4-.17.78-.54.93-.11.04-.22.06-.32.06Zm-7.84-7.45c.83,0,1.62.13,2.35.44,1.75.75,3.1,1.89,4.25,3.16-.05-.7-.04-1.35.06-2,.27-1.74.91-3.06,1.4-3.87.92-1.52,1.94-2.74,3.1-3.82-1.35.37-2.62.65-3.81.84-1.04.16-2.25.32-3.45.06-1.06-.23-2-.74-2.79-1.21-.9-.53-1.75-1.22-2.6-2.01.49,1.38.79,2.74.65,3.96h0c-.2,1.83-1.25,3.56-2.51,5,1.16-.34,2.29-.56,3.35-.56Z"/>
  </g>
</svg>