<?xml version="1.0" encoding="UTF-8"?>
<svg id="_レイヤー_2" data-name="レイヤー 2" xmlns="http://www.w3.org/2000/svg" viewBox="0 0 19.15 20.77">
  <defs>
    <style>
      .cls-1 {
        fill: #fff;
        stroke-width: 0px;
      }
    </style>
  </defs>
  <g id="m">
    <g>
      <path class="cls-1" d="m9.57,10.74c-2.96,0-5.37-2.41-5.37-5.37S6.61,0,9.57,0s5.37,2.41,5.37,5.37-2.41,5.37-5.37,5.37Zm0-9.89c-2.49,0-4.52,2.03-4.52,4.52s2.03,4.52,4.52,4.52,4.52-2.03,4.52-4.52S12.07.85,9.57.85Z"/>
      <path class="cls-1" d="m18.3,20.77c-.23-5.15-1.77-8.35-8.72-8.35C1.86,12.43,1.05,16.37.85,20.77l-.85-.04c.2-4.43,1.12-9.16,9.57-9.16,7.6,0,9.33,3.66,9.57,9.16l-.85.04Z"/>
    </g>
  </g>
</svg>