<?xml version="1.0" encoding="UTF-8"?>
<svg id="_レイヤー_2" data-name="レイヤー 2" xmlns="http://www.w3.org/2000/svg" viewBox="0 0 46.41 41.29">
  <defs>
    <style>
      .cls-1 {
        fill: #333;
        stroke-width: 0px;
      }
    </style>
  </defs>
  <g id="pc">
    <g>
      <path class="cls-1" d="m22.73,36.18c0-2.82-2.29-5.11-5.11-5.11s-5.11,2.29-5.11,5.11,2.29,5.11,5.11,5.11,5.11-2.29,5.11-5.11Zm-8.58,0c0-1.91,1.56-3.47,3.47-3.47s3.47,1.56,3.47,3.47-1.56,3.47-3.47,3.47-3.47-1.56-3.47-3.47Z"/>
      <path class="cls-1" d="m42.85,36.18c0-2.82-2.29-5.11-5.11-5.11s-5.11,2.29-5.11,5.11,2.29,5.11,5.11,5.11,5.11-2.29,5.11-5.11Zm-8.58,0c0-1.91,1.56-3.47,3.47-3.47s3.47,1.56,3.47,3.47-1.56,3.47-3.47,3.47-3.47-1.56-3.47-3.47Z"/>
      <path class="cls-1" d="m.82,5.38h5.93l5.24,22.97c.09.37.42.64.8.64h0c10.72-.1,26.94-.18,28.54-.04.01,0,.03,0,.04.01.07.02.14.03.21.03.35,0,.67-.22.78-.56.02-.05.03-.11.04-.16.16-.84,2.91-13.78,3.98-18.77.05-.22,0-.45-.13-.64s-.33-.31-.55-.34l-28.65-4.18c-.45-.07-.86.24-.93.69-.07.45.24.86.69.93l27.78,4.05c-.33,1.57-1.08,5.07-1.82,8.57-.3,1.39-.59,2.78-.86,4.05h-16.44c-.45,0-.82.37-.82.82s.37.82.82.82h16.1c-.06.27-.11.54-.17.79-.19.88-.34,1.62-.45,2.14,0,.03-.01.06-.02.09-.73-.03-1.92-.04-3.92-.04-2.4,0-5.73,0-9.9.01-5.85.03-11.74.07-13.68.09l-.69-3.02h8.38c.45,0,.82-.37.82-.82s-.37-.82-.82-.82h-8.74s0,0-.01,0L7.36.65c-.09-.37-.42-.64-.8-.64H.82s0,0,0,0c-.22,0-.43.09-.58.24-.15.15-.24.36-.24.58v3.74c0,.45.37.82.82.82Zm.82-3.74h4.26s.48,2.1.48,2.1H1.64V1.64Z"/>
    </g>
  </g>
</svg>