<?xml version="1.0" encoding="UTF-8"?>
<svg id="_レイヤー_2" data-name="レイヤー 2" xmlns="http://www.w3.org/2000/svg" viewBox="0 0 26.08 24.31">
  <defs>
    <style>
      .cls-1 {
        fill: #f08732;
        stroke-width: 0px;
      }
    </style>
  </defs>
  <g id="_モバイル" data-name="モバイル">
    <path class="cls-1" d="m25.15,22.67c-1.62.32-3.38-.27-4.54-1.43.24-.11.47-.23.7-.36.98-.59,1.73-1.55,1.96-2.53.16-.69.06-1.36-.31-1.92-.43-.67-1.18-1.06-2.06-1.06h0c-1.01,0-1.99.52-2.51,1.32-.63.99-.7,2.33-.22,3.6-1.57.16-3.3-.23-4.79-1.14-.79-.48-1.47-1.08-2.01-1.75,1.96-.55,3.74-1.73,4.91-3.4,1.31-1.86,1.59-4.66-.24-5.96-1.32-.93-3.02-.59-4.18.04-2.21,1.2-3.58,3.69-3.4,6.2.05.66.19,1.31.43,1.94-.02,0-.04,0-.06,0-.82,0-1.64-.13-2.41-.42-3.03-1.1-5.12-4.36-4.86-7.58.26-3.22,2.86-6.09,6.03-6.68.42-.08.7-.48.62-.9-.08-.42-.49-.7-.9-.62C3.48.73.35,4.2.03,8.09c-.32,3.89,2.2,7.83,5.87,9.16,1.21.44,2.5.58,3.78.46.71,1.07,1.69,2.02,2.9,2.76,2.02,1.24,4.35,1.67,6.42,1.27,1.24,1.61,3.22,2.57,5.24,2.57.41,0,.82-.04,1.22-.12.42-.08.69-.49.61-.91-.08-.42-.49-.7-.91-.61Zm-14.64-6.64c-.28-.61-.46-1.23-.5-1.86-.13-1.88.93-3.83,2.59-4.73.43-.23,1-.42,1.54-.42.36,0,.71.08,1,.29,1.01.71.74,2.58-.13,3.8-1.06,1.5-2.72,2.53-4.51,2.92Zm9.19,3.91c-.33-.74-.47-1.68,0-2.41.23-.36.72-.6,1.2-.6h0c.2,0,.56.04.76.35.13.21.17.44.1.72-.13.56-.63,1.18-1.24,1.55-.26.15-.53.28-.81.39Z"/>
  </g>
</svg>