<?xml version="1.0" encoding="UTF-8"?>
<svg id="_レイヤー_2" data-name="レイヤー 2" xmlns="http://www.w3.org/2000/svg" viewBox="0 0 18.44 15.29">
  <defs>
    <style>
      .cls-1 {
        fill: #fff;
        stroke-width: 0px;
      }
    </style>
  </defs>
  <g id="_モバイル" data-name="モバイル">
    <path class="cls-1" d="m6.52,0l-1.12,2.25H1.57c-.87,0-1.57.7-1.57,1.57v9.9c0,.87.7,1.57,1.57,1.57h15.29c.87,0,1.57-.7,1.57-1.57V3.82c0-.87-.7-1.57-1.57-1.57h-3.82l-1.12-2.25h-5.4Zm2.7,3.82c2.72,0,4.95,2.23,4.95,4.95s-2.23,4.95-4.95,4.95-4.95-2.23-4.95-4.95,2.23-4.95,4.95-4.95h0Zm0,1.8c-1.75,0-3.15,1.4-3.15,3.15s1.4,3.15,3.15,3.15,3.15-1.4,3.15-3.15-1.4-3.15-3.15-3.15Z"/>
  </g>
</svg>