<?xml version="1.0" encoding="utf-8"?>
<!-- Generator: Adobe Illustrator 28.3.0, SVG Export Plug-In . SVG Version: 6.00 Build 0)  -->
<svg version="1.1" id="_レイヤー_2" xmlns="http://www.w3.org/2000/svg" xmlns:xlink="http://www.w3.org/1999/xlink" x="0px"
	 y="0px" viewBox="0 0 160 80" style="enable-background:new 0 0 160 80;" xml:space="preserve">
<style type="text/css">
	.st0{fill:#995425;}
	.st1{fill:#F08732;}
	.st2{fill:#FFFFFF;}
	.st3{opacity:0.5;}
	.st4{fill:#999999;}
</style>
<g>
	<g>
		<path class="st0" d="M90,64c0-5.5-4.5-10-10-10s-10,4.5-10,10c0,0.4,0,0.8,0.1,1.1C71,71.6,78.9,80,80,80s9-8.4,9.9-14.9
			C90,64.8,90,64.4,90,64z"/>
	</g>
	<g>
		<path class="st1" d="M80,78.5c-1.2-0.5-8.6-8.3-9.4-14.4c-0.1-0.3-0.1-0.7-0.1-1.1c0-5.2,4.3-9.5,9.5-9.5s9.5,4.3,9.5,9.5
			c0,0.4,0,0.7-0.1,1C88.6,70.2,81.2,78,80,78.5z"/>
		<path class="st0" d="M80,54c5,0,9,4,9,9c0,0.4,0,0.7-0.1,1c-0.8,5.6-7.3,12.8-8.9,13.9c-1.6-1.2-8.2-8.4-8.9-14
			c0-0.3-0.1-0.6-0.1-0.9C71,58,75,54,80,54 M80,53c-5.5,0-10,4.5-10,10c0,0.4,0,0.8,0.1,1.1C71,70.6,78.9,79,80,79s9-8.4,9.9-14.9
			C90,63.8,90,63.4,90,63C90,57.5,85.5,53,80,53L80,53z"/>
	</g>
	<circle class="st2" cx="80" cy="63" r="4"/>
</g>
<g>
	<path class="st3" d="M150,52H85l-5,8l-5-8H10C4.5,52,0,47.5,0,42V12C0,6.5,4.5,2,10,2h140c5.5,0,10,4.5,10,10v30
		C160,47.5,155.5,52,150,52z"/>
</g>
<g>
	<path class="st2" d="M75.6,49H10c-5,0-9-4-9-9V10c0-5,4-9,9-9h140c5,0,9,4,9,9v30c0,5-4,9-9,9H84.4L80,56.1L75.6,49z"/>
	<path d="M150,2c4.4,0,8,3.6,8,8v30c0,4.4-3.6,8-8,8H85h-1.1l-0.6,0.9L80,54.2l-3.3-5.3L76.1,48H75H10c-4.4,0-8-3.6-8-8V10
		c0-4.4,3.6-8,8-8H150 M150,0H10C4.5,0,0,4.5,0,10v30c0,5.5,4.5,10,10,10h65l5,8l5-8h65c5.5,0,10-4.5,10-10V10
		C160,4.5,155.5,0,150,0L150,0z"/>
</g>
<g>
	<path d="M24.4,15c-0.2,0-0.4-0.1-0.5-0.2c-0.1-0.1-0.2-0.3-0.2-0.5v-0.2c0-0.2,0.1-0.4,0.2-0.5s0.3-0.2,0.5-0.2h0.2
		c0.1,0,0.1,0,0.1-0.1v-1.5c0-0.2,0.1-0.4,0.2-0.5s0.3-0.2,0.5-0.2h0.5c0.2,0,0.4,0.1,0.5,0.2s0.2,0.3,0.2,0.5v1.5
		c0,0.1,0,0.1,0.1,0.1H27c0.3,0,0.5,0.1,0.6,0.4c0,0.1,0.1,0.1,0.1,0.1l0.4-0.1c0.1,0,0.1-0.1,0.1-0.1v-1.5c0-0.2,0.1-0.4,0.2-0.5
		c0.1-0.1,0.3-0.2,0.5-0.2h0.5c0.2,0,0.4,0.1,0.5,0.2c0.1,0.1,0.2,0.3,0.2,0.5v1.1c0,0.1,0,0.1,0.1,0.1l0.5-0.1
		c0.1,0,0.1-0.1,0.1-0.1v-1.6c0-0.2,0.1-0.4,0.2-0.5s0.3-0.2,0.5-0.2h0.3c0.2,0,0.4,0.1,0.5,0.2s0.2,0.3,0.2,0.5v1.3
		c0,0,0,0.1,0,0.1c0,0,0.1,0,0.1,0l2-0.4c0.2,0,0.3,0,0.5,0.1c0.1,0.1,0.2,0.3,0.2,0.5v0.3c0,1.8-0.1,3-0.2,3.7
		c-0.1,0.7-0.3,1.1-0.6,1.2c0,0,0,0,0,0c0,0,0,0,0,0l0.5,0.1c0.2,0,0.4,0.1,0.5,0.3c0.1,0.2,0.2,0.4,0.2,0.6c0,0.4-0.1,0.7-0.1,0.9
		s-0.1,0.5-0.2,0.7c-0.1,0.2-0.2,0.4-0.2,0.5c-0.1,0.1-0.2,0.2-0.4,0.4c-0.2,0.1-0.3,0.2-0.5,0.2c-0.2,0.1-0.4,0.1-0.7,0.1
		s-0.6,0.1-0.9,0.1s-0.7,0-1.2,0c-0.5,0-1,0-1.3,0c-0.3,0-0.6,0-0.9-0.1c-0.3-0.1-0.5-0.1-0.6-0.2c-0.1-0.1-0.2-0.2-0.3-0.3
		c-0.1-0.2-0.1-0.3-0.2-0.5c0-0.2,0-0.4,0-0.7v-4.8c0-0.1,0-0.1-0.1-0.1l-0.2,0c-0.2,0-0.4,0-0.5-0.1c-0.2-0.1-0.3-0.3-0.3-0.5
		c0-0.1-0.1-0.1-0.1-0.1c0,0,0,0-0.1,0c0,0,0,0-0.1,0h-0.2c-0.1,0-0.1,0-0.1,0.1v4.2c0,0.1,0,0.1,0.1,0.1c0,0,0.1,0,0.2-0.1
		c0.1,0,0.1,0,0.2-0.1c0.2-0.1,0.3,0,0.5,0.1c0.2,0.1,0.2,0.2,0.2,0.4V20c0,0.2,0,0.4-0.2,0.6c-0.1,0.2-0.3,0.3-0.5,0.4
		c-0.9,0.3-1.8,0.6-2.6,0.8c-0.2,0-0.4,0-0.5-0.1c-0.2-0.1-0.2-0.3-0.3-0.4l0-0.3c0-0.2,0-0.4,0.2-0.6c0.1-0.2,0.3-0.3,0.5-0.3
		c0,0,0.1,0,0.1,0c0.1,0,0.1,0,0.1,0c0.1,0,0.1-0.1,0.1-0.1v-4.7c0-0.1,0-0.1-0.1-0.1H24.4z M30.2,15.3v4.8c0,0.2,0.1,0.4,0.2,0.4
		c0.2,0,0.7,0.1,1.7,0.1c0.3,0,0.6,0,0.7,0c0.1,0,0.3,0,0.5-0.1c0.2-0.1,0.3-0.1,0.3-0.2c0-0.1,0.1-0.2,0.2-0.4
		c0.1-0.2,0.1-0.4,0.1-0.6c0-0.2,0-0.5,0-0.9c0-0.1,0-0.1-0.1-0.1h-0.1c-0.2,0-0.4-0.1-0.6-0.2c-0.2-0.1-0.3-0.3-0.3-0.5l-0.1-0.3
		c0-0.2,0.1-0.4,0.5-0.6c0,0,0.1,0,0.1,0c0.1-0.1,0.2-0.7,0.2-2.1c0-0.1,0-0.1-0.1-0.1l-0.8,0.2c-0.1,0-0.1,0.1-0.1,0.1v3.7
		c0,0.2-0.1,0.4-0.2,0.5s-0.3,0.2-0.5,0.2h-0.3c-0.2,0-0.4-0.1-0.5-0.2s-0.2-0.3-0.2-0.5v-3.4c0-0.1,0-0.1-0.1-0.1l-0.5,0.1
		C30.2,15.2,30.2,15.3,30.2,15.3z"/>
	<path d="M37.6,22.5c-0.2,0-0.4-0.1-0.5-0.2c-0.1-0.1-0.2-0.3-0.2-0.5v-10c0-0.2,0.1-0.4,0.2-0.5c0.1-0.1,0.3-0.2,0.5-0.2h9.8
		c0.2,0,0.4,0.1,0.5,0.2c0.1,0.1,0.2,0.3,0.2,0.5v10c0,0.2-0.1,0.4-0.2,0.5c-0.1,0.1-0.3,0.2-0.5,0.2h-0.8c-0.1,0-0.2,0-0.3-0.1
		c-0.1-0.1-0.1-0.2-0.1-0.3c0,0,0-0.1-0.1-0.1h-7.3c0,0-0.1,0-0.1,0.1c0,0.1,0,0.2-0.1,0.3c-0.1,0.1-0.2,0.1-0.3,0.1H37.6z
		 M38.8,12.7v7.7c0,0.1,0,0.1,0.1,0.1h1.2c0,0,0,0,0,0c0,0,0,0,0,0c-0.1-0.1-0.2-0.1-0.2-0.2L39.7,20c-0.1-0.1-0.2-0.3-0.1-0.5
		c0-0.2,0.1-0.3,0.3-0.4c0.5-0.3,0.8-0.5,1-0.7c0,0,0,0,0-0.1s0,0,0-0.1c-0.4-0.2-0.9-0.4-1.5-0.6c-0.2-0.1-0.3-0.2-0.4-0.4
		c-0.1-0.2-0.1-0.4,0-0.5l0.1-0.2c0.1-0.2,0.2-0.3,0.4-0.4c0.2-0.1,0.4-0.1,0.6,0c0.7,0.3,1.4,0.6,2,0.9c0.1,0,0.1,0,0.2,0
		c0.9-0.9,1.6-1.9,2.2-2.9c0.1-0.2,0.2-0.3,0.4-0.4c0.2-0.1,0.4,0,0.5,0l0.2,0.1c0.2,0.1,0.3,0.2,0.4,0.4c0.1,0.2,0,0.4-0.1,0.6
		c-0.6,1.1-1.3,2.1-2.1,3c-0.1,0.1,0,0.1,0,0.1c0.3,0.2,0.7,0.4,1.4,0.8c0.2,0.1,0.3,0.3,0.3,0.4s0,0.4-0.1,0.5l-0.2,0.3
		c-0.1,0.2-0.3,0.3-0.5,0.3c-0.2,0-0.4,0-0.6-0.1c-0.5-0.4-1.1-0.7-1.6-1c-0.1,0-0.1,0-0.2,0c-0.5,0.4-1.1,0.8-1.6,1.2c0,0,0,0,0,0
		c0,0,0,0,0,0c0,0,0,0,0,0h5.2c0.1,0,0.1,0,0.1-0.1v-7.7c0-0.1,0-0.1-0.1-0.1h-3.1c0,0,0,0,0,0c0,0,0,0,0,0c0.1,0.1,0.2,0.2,0.2,0.2
		c0,0.1,0.1,0.2,0.3,0.5c0.2,0.3,0.3,0.5,0.3,0.6c0.1,0.2,0.1,0.4,0.1,0.5c-0.1,0.2-0.2,0.3-0.4,0.4L43.4,15
		c-0.2,0.1-0.4,0.1-0.5,0.1c-0.2-0.1-0.3-0.2-0.4-0.3c-0.1-0.2-0.3-0.6-0.6-1c-0.1-0.2-0.1-0.4-0.1-0.5c0-0.2,0.2-0.3,0.3-0.4
		l0.2-0.1c0,0,0,0,0,0c0,0,0,0,0,0h-3.3C38.9,12.6,38.8,12.6,38.8,12.7z M40.4,15.6c-0.2-0.3-0.4-0.7-0.7-1.1
		c-0.1-0.2-0.1-0.3-0.1-0.5c0-0.2,0.2-0.3,0.3-0.4l0.2-0.1c0.2-0.1,0.4-0.1,0.6-0.1c0.2,0,0.4,0.2,0.5,0.3c0.2,0.3,0.4,0.6,0.6,1.1
		c0.1,0.2,0.1,0.4,0.1,0.6c-0.1,0.2-0.2,0.3-0.3,0.4l-0.2,0.1C41.1,16,41,16,40.8,15.9C40.6,15.9,40.4,15.8,40.4,15.6z"/>
	<path d="M50.1,22.1c-0.2,0-0.4-0.1-0.5-0.2c-0.1-0.1-0.2-0.3-0.2-0.5v-0.3c0-0.2,0.1-0.4,0.2-0.5s0.3-0.2,0.5-0.2h3.5
		c0.1,0,0.1,0,0.1-0.1v-8.5c0-0.2,0.1-0.4,0.2-0.5s0.3-0.2,0.5-0.2H55c0.2,0,0.4,0.1,0.5,0.2s0.2,0.3,0.2,0.5v2.4
		c0,0.1,0,0.1,0.1,0.1h3.7c0.2,0,0.4,0.1,0.5,0.2c0.1,0.1,0.2,0.3,0.2,0.5v0.3c0,0.2-0.1,0.4-0.2,0.5S59.8,16,59.6,16h-3.7
		c-0.1,0-0.1,0-0.1,0.1v4.1c0,0.1,0,0.1,0.1,0.1h4.4c0.2,0,0.4,0.1,0.5,0.2s0.2,0.3,0.2,0.5v0.3c0,0.2-0.1,0.4-0.2,0.5
		c-0.1,0.1-0.3,0.2-0.5,0.2H50.1z"/>
	<path d="M64.5,21c-0.7,0-1.3-0.4-1.9-1.1c-0.6-0.7-0.9-1.6-0.9-2.6c0-1.6,0.5-2.9,1.6-3.9c1.1-1,2.6-1.5,4.4-1.5
		c1.5,0,2.8,0.4,3.8,1.3c1,0.9,1.4,2,1.4,3.4c0,1.2-0.3,2.2-0.9,3s-1.5,1.4-2.6,1.8c-0.2,0.1-0.4,0-0.6-0.1
		c-0.2-0.1-0.3-0.2-0.4-0.4l-0.1-0.4c-0.1-0.2,0-0.4,0-0.5c0.1-0.2,0.2-0.3,0.4-0.4c1.4-0.6,2-1.6,2-3c0-0.7-0.2-1.3-0.6-1.7
		c-0.4-0.5-0.9-0.8-1.5-1c-0.1,0-0.1,0-0.1,0.1C67.9,18.7,66.5,21,64.5,21z M66.4,13.9c-0.9,0.2-1.5,0.6-2,1.2
		c-0.5,0.6-0.7,1.3-0.7,2.1c0,0.5,0.1,0.9,0.3,1.3c0.2,0.3,0.4,0.5,0.5,0.5c0.2,0,0.4-0.1,0.6-0.4c0.2-0.3,0.4-0.8,0.7-1.6
		S66.3,15.2,66.4,13.9C66.5,14,66.5,14,66.4,13.9C66.5,13.9,66.5,13.9,66.4,13.9z"/>
	<path d="M82.7,11.1c0.4-0.4,0.8-0.6,1.4-0.6s1,0.2,1.4,0.6c0.4,0.4,0.6,0.8,0.6,1.4c0,0.5-0.1,0.9-0.4,1.2
		c-0.3,0.4-0.7,0.6-1.1,0.7c-0.1,0-0.1,0.1-0.1,0.1l0,0.1c0.1,0.2,0.1,0.4,0,0.6c-0.1,0.2-0.2,0.3-0.4,0.4c-1.9,0.7-3.9,1.2-6,1.6
		c-0.1,0-0.1,0.1-0.1,0.1v1.4c0,0.5,0.1,0.8,0.2,0.9s0.5,0.2,0.9,0.2c1.5,0,3.1-0.1,4.6-0.2c0.2,0,0.4,0.1,0.5,0.2s0.2,0.3,0.2,0.5
		l0,0.4c0,0.2-0.1,0.4-0.2,0.5c-0.1,0.2-0.3,0.2-0.5,0.2c-1.7,0.1-3.3,0.2-5,0.2c-1.1,0-1.9-0.2-2.4-0.7s-0.7-1.2-0.7-2.4v-6.1
		c0-0.2,0.1-0.4,0.2-0.5c0.1-0.1,0.3-0.2,0.5-0.2h0.7c0.2,0,0.4,0.1,0.5,0.2s0.2,0.3,0.2,0.5v2.7c0,0.1,0,0.1,0.1,0.1
		c1.6-0.3,3.2-0.7,4.7-1.2c0.1,0,0.1-0.1,0-0.1c-0.4-0.4-0.6-0.8-0.6-1.4C82.2,12,82.4,11.5,82.7,11.1z M83.5,13.1
		c0.2,0.2,0.4,0.2,0.6,0.2c0.2,0,0.4-0.1,0.6-0.2c0.2-0.2,0.2-0.4,0.2-0.6c0-0.2-0.1-0.4-0.2-0.6c-0.2-0.2-0.4-0.2-0.6-0.2
		c-0.2,0-0.4,0.1-0.6,0.2c-0.2,0.2-0.2,0.4-0.2,0.6C83.3,12.7,83.3,12.9,83.5,13.1z"/>
	<path d="M89.2,13.7c-0.2-0.1-0.3-0.3-0.3-0.4c-0.1-0.2,0-0.4,0.1-0.6l0.3-0.4c0.1-0.2,0.3-0.3,0.5-0.3c0.2-0.1,0.4,0,0.6,0.1
		c0.8,0.5,1.6,1,2.5,1.6c0.2,0.1,0.3,0.3,0.3,0.5c0,0.2,0,0.4-0.1,0.6L92.6,15c-0.1,0.2-0.3,0.3-0.5,0.3c-0.2,0-0.4,0-0.6-0.1
		C90.9,14.7,90,14.2,89.2,13.7z M98.2,13.3c0.2,0.1,0.4,0.2,0.5,0.4c0.1,0.2,0.1,0.4,0.1,0.6c-0.6,2.2-1.6,3.9-3,5s-3.4,1.9-5.8,2.2
		c-0.2,0-0.4,0-0.6-0.1c-0.2-0.1-0.3-0.3-0.3-0.5l-0.1-0.5c0-0.2,0-0.4,0.1-0.5c0.1-0.2,0.3-0.3,0.5-0.3c2-0.3,3.6-0.9,4.7-1.8
		c1.1-0.9,2-2.3,2.5-4.1c0.1-0.2,0.2-0.3,0.4-0.4c0.2-0.1,0.4-0.1,0.6-0.1L98.2,13.3z"/>
	<path d="M124.8,14c-0.2,0-0.4-0.1-0.5-0.2c-0.1-0.1-0.2-0.3-0.2-0.5v-0.2c0-0.2,0.1-0.4,0.2-0.5c0.1-0.1,0.3-0.2,0.5-0.2
		c0.8,0,1.4,0,1.8,0c0.1,0,0.1,0,0.2-0.1c0-0.1,0.1-0.2,0.1-0.4s0.1-0.3,0.1-0.4c0.1-0.2,0.2-0.4,0.4-0.5c0.2-0.1,0.4-0.2,0.6-0.1
		l0.6,0.1c0.2,0,0.3,0.1,0.4,0.3c0.1,0.2,0.1,0.3,0.1,0.5c0,0,0,0.1-0.1,0.2c0,0.1-0.1,0.1-0.1,0.2c0,0,0,0,0,0.1c0,0,0,0,0.1,0
		c1.4,0,2.6-0.1,3.7-0.2c0.2,0,0.4,0.1,0.5,0.2s0.2,0.3,0.2,0.5l0,0.2c0,0.2-0.1,0.4-0.2,0.5c-0.1,0.1-0.3,0.2-0.5,0.2
		c-1.6,0.1-3.1,0.2-4.5,0.2c-0.1,0-0.1,0-0.2,0.1c-0.1,0.1-0.1,0.2-0.2,0.4c-0.1,0.2-0.2,0.3-0.2,0.4v0h0c0.5-0.2,0.9-0.3,1.4-0.3
		c1,0,1.8,0.4,2.2,1.1c0,0.1,0.1,0.1,0.2,0.1c0.6-0.2,1.3-0.3,2-0.4c0.2,0,0.4,0,0.5,0.1c0.2,0.1,0.3,0.3,0.3,0.5l0,0.3
		c0,0.2,0,0.4-0.1,0.5c-0.1,0.2-0.3,0.3-0.5,0.3c-0.5,0.1-1.1,0.2-1.7,0.4c-0.1,0-0.1,0.1-0.1,0.1c0,0.4,0.1,0.7,0.1,0.9
		c0,0.2-0.1,0.4-0.2,0.5c-0.1,0.1-0.3,0.2-0.5,0.2h-0.5c-0.2,0-0.4-0.1-0.5-0.2c-0.1-0.1-0.2-0.3-0.2-0.5c0,0,0-0.1,0-0.1
		c0,0,0-0.1,0-0.1c0,0,0,0,0-0.1c0,0,0,0-0.1,0c-0.5,0.2-0.8,0.5-1,0.7c-0.2,0.2-0.4,0.4-0.4,0.6c0,0.3,0.1,0.4,0.4,0.6
		c0.3,0.1,0.8,0.2,1.6,0.2c0.6,0,1.5-0.1,2.5-0.2c0.2,0,0.4,0,0.5,0.1c0.2,0.1,0.2,0.3,0.3,0.5l0,0.3c0,0.2,0,0.4-0.2,0.6
		c-0.1,0.2-0.3,0.3-0.5,0.3c-0.9,0.1-1.8,0.2-2.7,0.2c-2.8,0-4.2-0.8-4.2-2.3c0-0.6,0.3-1.1,0.8-1.7c0.5-0.6,1.3-1.1,2.3-1.5
		c0.1,0,0.1-0.1,0-0.1c-0.2-0.2-0.5-0.3-0.8-0.3c-0.7,0-1.6,0.6-2.5,1.7c-0.1,0.2-0.3,0.3-0.5,0.3c-0.2,0-0.4,0-0.6-0.1l-0.3-0.2
		c-0.2-0.1-0.3-0.3-0.3-0.4c0-0.2,0-0.4,0.1-0.5c0.7-1,1.2-1.9,1.7-2.8c0,0,0,0,0-0.1c0,0,0,0-0.1,0c-0.1,0-0.3,0-0.5,0
		C125.1,14,124.9,14,124.8,14z"/>
	<path d="M9.7,35.2l-0.2-0.2c-0.1-0.1-0.2-0.3-0.2-0.5s0.1-0.4,0.2-0.5c1.1-1.2,1.8-2.6,2.1-4.1c0-0.2,0.1-0.4,0.3-0.5
		c0.2-0.1,0.4-0.2,0.6-0.2l0.4,0c0.2,0,0.4,0.1,0.5,0.3c0.1,0.2,0.2,0.3,0.1,0.5c0,0,0,0.1,0,0.2c0,0.1,0,0.1,0,0.2
		c0,0.1,0,0.1,0.1,0.1h4.6c0.2,0,0.4,0.1,0.5,0.2s0.2,0.3,0.2,0.5v1c-0.3,2.3-1,4.1-2.2,5.3c-1.2,1.2-3,2-5.5,2.4
		c-0.2,0-0.4,0-0.6-0.1s-0.3-0.3-0.3-0.5l-0.1-0.4c0-0.2,0-0.4,0.1-0.5c0.1-0.2,0.3-0.3,0.5-0.3c1.8-0.3,3.2-0.8,4.2-1.7
		c0,0,0,0,0-0.1s0-0.1,0-0.1c-0.5-0.3-1.2-0.7-2-1.2c-0.2-0.1-0.3-0.3-0.3-0.4c-0.1-0.2,0-0.4,0.1-0.6l0.2-0.3
		c0.1-0.2,0.3-0.3,0.4-0.3c0.2-0.1,0.4,0,0.6,0.1c0.8,0.5,1.5,0.9,2.2,1.4c0.1,0,0.1,0,0.1-0.1c0.3-0.7,0.6-1.5,0.7-2.5
		c0-0.1,0-0.1-0.1-0.1H13h0c-0.1,0-0.1,0-0.1,0.1c-0.5,1-1.1,2-2,2.9c-0.1,0.1-0.3,0.2-0.5,0.2C10.1,35.4,9.9,35.3,9.7,35.2z"/>
	<path d="M21.8,35.1c0-0.1-0.2-0.7-0.5-1.8c-0.1-0.2,0-0.4,0.1-0.6c0.1-0.2,0.2-0.3,0.4-0.3l0.2,0c0.2-0.1,0.4,0,0.6,0.1
		c0.2,0.1,0.3,0.3,0.3,0.5c0.2,0.9,0.4,1.5,0.5,1.8c0.1,0.2,0,0.4-0.1,0.5c-0.1,0.2-0.3,0.3-0.5,0.3l-0.2,0.1
		c-0.2,0.1-0.4,0-0.6-0.1C22,35.5,21.9,35.3,21.8,35.1z M29.7,32.8c-0.2,2.1-0.8,3.6-1.7,4.6c-0.9,1-2.3,1.8-4.2,2.2
		c-0.2,0-0.4,0-0.6-0.1c-0.2-0.1-0.3-0.3-0.3-0.5l0-0.1c0-0.2,0-0.4,0.1-0.5s0.3-0.3,0.5-0.3c1.4-0.3,2.5-0.9,3.1-1.7
		c0.7-0.8,1.1-2,1.3-3.6c0-0.2,0.1-0.4,0.3-0.5c0.2-0.1,0.3-0.2,0.5-0.2l0.3,0c0.2,0,0.4,0.1,0.5,0.2C29.7,32.4,29.7,32.6,29.7,32.8
		z M25.4,35.2c-0.2,0.1-0.4,0-0.6-0.1c-0.2-0.1-0.3-0.3-0.3-0.5c-0.1-0.4-0.3-1-0.5-1.9c-0.1-0.2,0-0.4,0.1-0.6
		c0.1-0.2,0.3-0.3,0.4-0.3l0.2,0c0.2-0.1,0.4,0,0.6,0.1s0.3,0.3,0.3,0.4c0.1,0.4,0.3,1,0.5,1.9c0.1,0.2,0,0.4-0.1,0.5
		s-0.3,0.3-0.5,0.3L25.4,35.2z"/>
	<path d="M41,28.3c0.5,0,1,0.2,1.4,0.6s0.6,0.8,0.6,1.4c0,0.5-0.2,1-0.6,1.4s-0.8,0.6-1.4,0.6c-0.1,0-0.1,0-0.1,0.1
		c0,0.1,0,0.3,0,0.3c-0.4,2-1.2,3.5-2.4,4.7c-1.2,1.1-2.9,1.9-5,2.2c-0.2,0-0.4,0-0.6-0.1c-0.2-0.1-0.3-0.3-0.3-0.5l-0.1-0.4
		c0-0.2,0-0.4,0.1-0.5c0.1-0.2,0.3-0.3,0.5-0.3c1.7-0.4,3.1-1,4-1.9c0.9-0.9,1.5-2.2,1.8-3.8c0-0.1,0-0.1-0.1-0.1h-6.6
		c-0.2,0-0.4-0.1-0.5-0.2c-0.1-0.1-0.2-0.3-0.2-0.5v-0.4c0-0.2,0.1-0.4,0.2-0.5c0.1-0.1,0.3-0.2,0.5-0.2h6.7c0.1,0,0.1,0,0.1-0.1
		c0.1-0.5,0.3-0.9,0.6-1.2C40.1,28.4,40.5,28.3,41,28.3z M40.4,30.8c0.2,0.2,0.4,0.2,0.6,0.2s0.4-0.1,0.6-0.2
		c0.2-0.2,0.2-0.4,0.2-0.6s-0.1-0.4-0.2-0.6c-0.2-0.2-0.4-0.2-0.6-0.2s-0.4,0.1-0.6,0.2c-0.2,0.2-0.2,0.4-0.2,0.6
		S40.2,30.7,40.4,30.8z"/>
	<path d="M44.6,32c-0.2,0-0.4-0.1-0.5-0.2s-0.2-0.3-0.2-0.5v-0.2c0-0.2,0.1-0.4,0.2-0.5c0.1-0.1,0.3-0.2,0.5-0.2
		c1.4,0,3.1-0.1,4.9-0.1c0.1,0,0.1,0,0.1-0.1c0-0.1,0-0.3,0-0.6c0-0.2,0.1-0.4,0.2-0.5c0.1-0.2,0.3-0.2,0.5-0.2h0.5
		c0.2,0,0.4,0.1,0.5,0.2c0.1,0.1,0.2,0.3,0.2,0.5c0,0.1,0,0.1,0,0.2c0,0.1,0,0.2,0,0.3c0,0.1,0,0.1,0.1,0.1c1.1-0.1,2-0.1,2.6-0.2
		c0.2,0,0.4,0,0.5,0.2c0.2,0.1,0.2,0.3,0.2,0.5l0,0.2c0,0.2,0,0.4-0.2,0.5c-0.1,0.2-0.3,0.2-0.5,0.2c-0.9,0.1-1.8,0.1-2.6,0.2
		c-0.1,0-0.1,0-0.1,0.1c0,0.6,0,1.3,0,1.9c0,0.1,0,0.1,0.1,0.2c0.3,0.6,0.4,1.2,0.4,2c0,1.3-0.4,2.2-1.1,2.9
		c-0.7,0.7-1.9,1.1-3.5,1.2c-0.2,0-0.4,0-0.6-0.2s-0.3-0.3-0.3-0.5l0-0.3c0-0.2,0-0.4,0.1-0.5c0.1-0.2,0.3-0.2,0.5-0.3
		c1.3-0.1,2.2-0.5,2.6-1c0.1-0.1,0.1-0.2,0.2-0.3v0h0c-0.4,0.3-0.9,0.4-1.4,0.4c-0.8,0-1.4-0.2-1.9-0.7c-0.5-0.5-0.7-1.1-0.7-1.8
		c0-0.7,0.3-1.3,0.8-1.8c0.5-0.5,1.1-0.7,1.9-0.7c0.3,0,0.7,0.1,1,0.2h0c0,0,0,0,0,0c0-0.1,0-0.2,0-0.3c0-0.1,0-0.2,0-0.3
		c0-0.1,0-0.1-0.1-0.1C47.8,32,46.1,32,44.6,32z M48.3,35.7c0.2,0.2,0.4,0.3,0.7,0.3s0.5-0.1,0.7-0.3c0.2-0.2,0.3-0.4,0.3-0.7
		s-0.1-0.5-0.3-0.7C49.5,34.1,49.2,34,49,34s-0.5,0.1-0.7,0.3C48.1,34.5,48,34.7,48,35S48.1,35.5,48.3,35.7z"/>
	<path d="M56.2,35.7L56,35.4c-0.1-0.2-0.1-0.4,0-0.6c0.1-0.2,0.2-0.3,0.4-0.4c2.2-1,4.2-2.1,5.9-3.1c0,0,0,0,0,0c0,0,0,0,0,0
		c-1.3,0.2-2.8,0.3-4.3,0.3c-0.2,0-0.4-0.1-0.5-0.2c-0.2-0.1-0.2-0.3-0.2-0.5v-0.4c0-0.2,0.1-0.4,0.2-0.5c0.1-0.1,0.3-0.2,0.5-0.2
		c1.9,0,3.9-0.1,6-0.2c0.2,0,0.4,0,0.6,0.2c0.2,0.1,0.3,0.3,0.3,0.5L65,31c0,0.2,0,0.4-0.1,0.6c-0.1,0.2-0.2,0.4-0.4,0.5
		c-0.7,0.4-1.6,0.8-2.8,1.4c0,0,0,0,0,0h0c0.2-0.1,0.5-0.1,0.8-0.1c1.1,0,1.9,0.3,2.6,0.8c0.6,0.5,0.9,1.2,0.9,2.1
		c0,1.1-0.4,2-1.3,2.7c-0.9,0.7-2.1,1-3.7,1c-1.1,0-1.9-0.2-2.5-0.6c-0.6-0.4-0.9-1-0.9-1.7c0-0.6,0.3-1,0.8-1.4
		c0.5-0.4,1.2-0.6,2-0.6c0.9,0,1.6,0.2,2,0.5s0.7,0.8,0.7,1.5v0.1c0,0.1,0,0.1,0.1,0c0.5-0.3,0.8-0.8,0.8-1.4c0-0.5-0.2-0.9-0.6-1.2
		c-0.4-0.3-1.1-0.4-1.9-0.4c-0.6,0-1.2,0.1-1.8,0.3c-0.6,0.2-1.4,0.5-2.4,0.9c-0.2,0.1-0.4,0.1-0.6,0C56.4,36,56.2,35.9,56.2,35.7z
		 M61.1,38.3c0-0.2,0.1-0.3,0.1-0.4c0-0.2-0.1-0.4-0.2-0.5s-0.4-0.2-0.8-0.2c-0.6,0-0.9,0.2-0.9,0.5c0,0.4,0.5,0.7,1.6,0.7H61
		C61.1,38.4,61.1,38.3,61.1,38.3z"/>
	<path d="M72.6,39.8c-1.4,0-2.5-0.3-3.3-0.8c-0.8-0.6-1.2-1.3-1.2-2.4c0-1.1,0.7-2.1,2.1-3c0.1,0,0.1-0.1,0.1-0.2
		c-0.3-1.4-0.5-2.5-0.6-3.3c0-0.2,0-0.4,0.1-0.5c0.1-0.2,0.3-0.3,0.5-0.3l0.7-0.1c0.2,0,0.4,0,0.5,0.1c0.2,0.1,0.3,0.3,0.3,0.5
		c0.1,0.6,0.3,1.4,0.5,2.6c0,0.1,0.1,0.1,0.1,0.1c0.9-0.4,2.1-0.8,3.4-1.1c0.2-0.1,0.4,0,0.6,0.1s0.3,0.2,0.3,0.4l0.1,0.5
		c0.1,0.2,0,0.4-0.1,0.6s-0.3,0.3-0.4,0.3c-4,1.1-5.9,2.2-5.9,3.2c0,0.5,0.2,0.8,0.6,1c0.4,0.2,1,0.3,1.9,0.3c1,0,2.1-0.1,3.2-0.3
		c0.2,0,0.4,0,0.5,0.1c0.2,0.1,0.3,0.3,0.3,0.5l0.1,0.5c0,0.2,0,0.4-0.1,0.5s-0.3,0.3-0.5,0.3C75.2,39.7,73.9,39.8,72.6,39.8z"/>
	<path d="M81.6,32.5c-0.2,0.5-0.4,0.9-0.5,1.2c0,0,0,0,0,0c0.7-0.7,1.2-1.5,1.3-2.5c0-0.1,0-0.1-0.1-0.1h-2.7
		c-0.2,0-0.4-0.1-0.5-0.2s-0.2-0.3-0.2-0.5v-0.2c0-0.2,0.1-0.4,0.2-0.5c0.1-0.1,0.3-0.2,0.5-0.2h3.7c0.1,0,0.1,0,0.1-0.1v-0.1
		c0-0.2,0.1-0.4,0.2-0.5s0.3-0.2,0.5-0.2h0.6c0.2,0,0.4,0.1,0.5,0.2c0.1,0.1,0.2,0.3,0.2,0.5v0.1c0,0.1,0,0.1,0.1,0.1h3.7
		c0.2,0,0.4,0.1,0.5,0.2c0.1,0.1,0.2,0.3,0.2,0.5v0.2c0,0.2-0.1,0.4-0.2,0.5c-0.1,0.1-0.3,0.2-0.5,0.2h-2.1c-0.1,0-0.1,0-0.1,0.1
		v0.6c0,0.1,0,0.1,0.1,0.1l0.8-0.3c0.2-0.1,0.4-0.1,0.6,0c0.2,0.1,0.4,0.2,0.5,0.3c0.5,0.7,0.8,1.2,1.1,1.7c0.1,0.2,0.1,0.4,0,0.5
		c-0.1,0.2-0.2,0.3-0.4,0.4l-0.4,0.2c-0.2,0.1-0.4,0.1-0.6,0c-0.2-0.1-0.3-0.2-0.4-0.4c-0.4-0.7-0.8-1.4-1.2-2c0,0,0,0,0,0s0,0,0,0
		v0c0,0.5,0,1,0,1.2c0,0.3-0.1,0.5-0.2,0.7c-0.1,0.2-0.3,0.3-0.4,0.3s-0.4,0.1-0.8,0.1c-0.3,0-0.6,0-0.8,0c-0.1,0-0.1,0-0.2-0.1
		c0,0,0,0,0,0c0,0,0,0,0,0c0.1,0.2,0,0.3-0.1,0.4c0,0,0,0-0.1,0.1c0,0-0.1,0-0.1,0.1c0,0,0,0.1,0,0.1h3.5c0.2,0,0.4,0.1,0.5,0.2
		c0.1,0.1,0.2,0.3,0.2,0.5c0,0.5-0.2,0.9-0.5,1.2c-0.4,0.4-0.9,0.7-1.3,1c0,0,0,0.1,0,0.1c0.8,0.2,1.8,0.3,2.8,0.4
		c0.2,0,0.3,0.1,0.4,0.3c0.1,0.2,0.1,0.3,0.1,0.5L90,39.7c-0.1,0.2-0.2,0.4-0.4,0.5c-0.2,0.1-0.4,0.2-0.6,0.1
		c-1.6-0.2-3.1-0.5-4.5-1c-0.1,0-0.1,0-0.2,0c-1.3,0.5-2.8,0.8-4.5,1c-0.2,0-0.4,0-0.6-0.1c-0.2-0.1-0.3-0.3-0.3-0.5l-0.1-0.3
		c-0.1-0.2,0-0.3,0.1-0.5c0.1-0.2,0.3-0.2,0.4-0.2c1-0.1,1.9-0.2,2.8-0.4c0,0,0,0,0,0c0,0,0,0,0,0c0,0-0.1-0.1-0.2-0.1
		S82,38,81.9,38c-0.2-0.1-0.3-0.3-0.3-0.4c0-0.2,0-0.4,0.2-0.5l0.3-0.4c0,0,0,0,0,0c0,0-0.1,0-0.1,0c-0.7,0.4-1.4,0.7-2,0.9
		c-0.2,0.1-0.4,0.1-0.6,0c-0.2-0.1-0.3-0.2-0.4-0.4L79,36.9c-0.1-0.2-0.1-0.3,0-0.5c0.1-0.2,0.2-0.3,0.4-0.4c1-0.3,1.9-0.7,2.6-1.1
		c0,0,0,0,0,0c0,0,0,0,0,0c-0.1,0-0.2-0.1-0.3-0.1l-0.7-0.6c-0.1-0.1-0.1,0-0.1,0c-0.1,0.2-0.2,0.3-0.2,0.4
		c-0.1,0.2-0.3,0.3-0.5,0.3s-0.4,0-0.6-0.1l-0.4-0.2c-0.2-0.1-0.3-0.2-0.3-0.4c0-0.2,0-0.4,0.1-0.5c0.3-0.5,0.6-1,0.9-1.7
		c0.1-0.2,0.2-0.3,0.4-0.4s0.4-0.1,0.6-0.1l0.4,0.1c0.2,0,0.3,0.2,0.4,0.3C81.7,32.1,81.7,32.3,81.6,32.5z M86.2,36.7h-3.4
		c0,0,0,0,0,0c0,0,0,0,0,0c0.5,0.3,1,0.6,1.7,0.8c0.1,0,0.1,0,0.2,0C85.3,37.3,85.8,37.1,86.2,36.7C86.2,36.7,86.2,36.7,86.2,36.7
		C86.2,36.7,86.2,36.7,86.2,36.7z M84.3,31.2c-0.1,1.2-0.5,2.2-1.1,3c0,0,0,0,0,0c0,0,0,0,0,0c0.3-0.1,0.5-0.1,0.8,0l0.2,0.1
		c0,0,0,0,0,0c0,0,0,0,0,0c-0.1-0.1-0.2-0.3-0.2-0.4l0-0.2c0-0.2,0-0.3,0.2-0.5s0.3-0.2,0.5-0.2h0.2c0.2,0,0.3,0,0.3-0.1
		s0-0.2,0-0.4v-1.4c0-0.1,0-0.1-0.1-0.1h-0.7C84.3,31.1,84.3,31.2,84.3,31.2z"/>
	<path d="M92.1,30.7c-0.2,0-0.4-0.1-0.5-0.2c-0.1-0.1-0.2-0.3-0.2-0.5v-0.1c0-0.2,0.1-0.4,0.2-0.5c0.1-0.1,0.3-0.2,0.5-0.2h9.9
		c0.2,0,0.4,0.1,0.5,0.2c0.1,0.1,0.2,0.3,0.2,0.5V30c0,0.2-0.1,0.4-0.2,0.5c-0.1,0.1-0.3,0.2-0.5,0.2h-3.7c-0.1,0-0.1,0-0.1,0.1v0.4
		c0,0.1,0,0.1,0.1,0.1h2.9c0.2,0,0.4,0.1,0.5,0.2c0.1,0.1,0.2,0.3,0.2,0.5v4.3c0,0.2-0.1,0.4-0.2,0.5s-0.3,0.2-0.5,0.2h-0.6
		c-0.2,0-0.3-0.1-0.4-0.2c-0.1-0.1-0.2-0.3-0.2-0.4c0-0.1,0-0.1-0.1-0.1h-2c-0.1,0-0.1,0-0.1,0.1c-0.1,0.5-0.3,1-0.6,1.4
		c0,0.1,0,0.1,0.1,0.1c1.3,0.4,2.9,0.6,4.9,0.7c0.2,0,0.3,0.1,0.5,0.2c0.1,0.1,0.2,0.3,0.1,0.5l-0.1,0.3c0,0.2-0.1,0.4-0.3,0.5
		c-0.2,0.1-0.4,0.2-0.6,0.2c-2.3-0.1-4.2-0.5-5.9-1.1c-0.1,0-0.1,0-0.2,0c-0.8,0.4-1.9,0.8-3.3,1c-0.2,0-0.4,0-0.6-0.1
		c-0.2-0.1-0.3-0.3-0.4-0.5l-0.1-0.2c-0.1-0.2,0-0.4,0.1-0.5s0.2-0.3,0.4-0.3c0.8-0.1,1.5-0.3,1.9-0.4c0,0,0,0,0,0c0,0,0,0,0-0.1
		c-0.2-0.2-0.5-0.3-0.7-0.5C93,37.5,93,37.4,93,37.2c0-0.2,0.1-0.3,0.3-0.4l0.4-0.3c0,0,0,0,0,0c0,0,0,0,0,0h-0.8
		c-0.2,0-0.4-0.1-0.5-0.2s-0.2-0.3-0.2-0.5V32c0-0.2,0.1-0.4,0.2-0.5c0.1-0.1,0.3-0.2,0.5-0.2H96c0.1,0,0.1,0,0.1-0.1v-0.4
		c0-0.1,0-0.1-0.1-0.1H92.1z M96.1,33.1v-0.4c0-0.1,0-0.1-0.1-0.1h-1.9c-0.1,0-0.1,0-0.1,0.1v0.4c0,0.1,0,0.1,0.1,0.1H96
		C96.1,33.2,96.1,33.2,96.1,33.1z M96.1,34.9c0-0.2,0-0.3,0-0.4c0-0.1,0-0.1-0.1-0.1h-1.9c-0.1,0-0.1,0-0.1,0.1v0.4
		c0,0.1,0,0.1,0.1,0.1h1.8C96,35,96.1,34.9,96.1,34.9z M95.8,36.5c0-0.1,0-0.1-0.1-0.1h-1.3c0,0,0,0,0,0s0,0,0,0
		c0.2,0.2,0.5,0.5,0.9,0.7c0.1,0,0.1,0,0.2,0C95.6,36.9,95.7,36.7,95.8,36.5z M98.1,34.5c0,0.2,0,0.3,0,0.4c0,0.1,0,0.1,0.1,0.1h1.8
		c0.1,0,0.1,0,0.1-0.1v-0.4c0-0.1,0-0.1-0.1-0.1h-1.7C98.2,34.4,98.1,34.4,98.1,34.5z M98.2,32.7v0.4c0,0.1,0,0.1,0.1,0.1h1.7
		c0.1,0,0.1,0,0.1-0.1v-0.4c0-0.1,0-0.1-0.1-0.1h-1.7C98.2,32.6,98.2,32.6,98.2,32.7z"/>
	<path d="M104.5,32.4c-0.2,0-0.4-0.1-0.5-0.2c-0.1-0.1-0.2-0.3-0.2-0.5v-0.5c0-0.2,0.1-0.4,0.2-0.5s0.3-0.2,0.5-0.2
		c2.9,0,5.9-0.2,9-0.6c0.2,0,0.4,0,0.5,0.2c0.2,0.1,0.2,0.3,0.3,0.5l0,0.4c0,0.2,0,0.4-0.2,0.6c-0.1,0.2-0.3,0.3-0.5,0.3
		c-1.5,0.3-2.7,0.7-3.5,1.3c-0.8,0.6-1.2,1.3-1.2,2.1c0,0.7,0.3,1.3,0.8,1.8c0.5,0.5,1.3,0.8,2.3,0.9c0.2,0,0.4,0.1,0.5,0.3
		c0.1,0.2,0.2,0.3,0.2,0.5l-0.1,0.5c0,0.2-0.1,0.4-0.3,0.5c-0.2,0.1-0.3,0.2-0.5,0.2c-1.6-0.2-2.9-0.6-3.8-1.4
		c-0.9-0.8-1.4-1.7-1.4-2.9c0-0.7,0.2-1.3,0.5-1.9s0.8-1.1,1.5-1.5c0,0,0,0,0,0s0,0,0,0C107.5,32.3,106,32.4,104.5,32.4z
		 M111.8,33.5c0.2-0.1,0.4-0.1,0.6-0.1c0.2,0.1,0.3,0.2,0.4,0.4c0.1,0.2,0.2,0.4,0.4,0.8c0.1,0.2,0.1,0.4,0,0.6
		c-0.1,0.2-0.2,0.3-0.4,0.4c-0.2,0.1-0.4,0.1-0.6,0s-0.3-0.2-0.4-0.4c0-0.1-0.2-0.3-0.4-0.8c-0.1-0.2-0.1-0.4-0.1-0.5
		C111.5,33.7,111.6,33.6,111.8,33.5L111.8,33.5z M114.9,33.3c0.3,0.5,0.4,0.8,0.4,0.8c0.1,0.2,0.1,0.4,0,0.6s-0.2,0.3-0.4,0.4l0,0
		c-0.2,0.1-0.4,0.1-0.6,0c-0.2-0.1-0.3-0.2-0.4-0.4c0-0.1-0.1-0.2-0.2-0.4c-0.1-0.2-0.2-0.3-0.2-0.4c-0.1-0.2-0.1-0.4-0.1-0.6
		c0.1-0.2,0.2-0.3,0.4-0.4l0,0c0.2-0.1,0.4-0.1,0.6-0.1C114.6,33,114.8,33.2,114.9,33.3z"/>
	<path d="M117.4,34.6c-0.2,0-0.4-0.1-0.5-0.2c-0.1-0.2-0.2-0.3-0.2-0.5v-0.1c0-0.2,0.1-0.4,0.2-0.5c0.1-0.1,0.3-0.2,0.5-0.2
		c1.4,0,2.9-0.1,4.4-0.2c0.1,0,0.1,0,0.1-0.1c0-0.1,0-0.2-0.1-0.3s-0.1-0.2-0.1-0.3c0-0.1-0.1-0.1-0.1-0.1c-1.2,0.1-2.3,0.2-3.2,0.2
		c-0.2,0-0.4-0.1-0.5-0.2s-0.2-0.3-0.2-0.5v-0.2c0-0.2,0.1-0.4,0.2-0.5s0.3-0.2,0.5-0.2c0.9,0,1.8-0.1,2.8-0.2c0.1,0,0.1,0,0.1-0.1
		c0-0.1,0-0.1,0-0.3c0-0.1,0-0.2,0-0.3c0-0.2,0-0.4,0.2-0.5s0.3-0.2,0.5-0.2l0.5,0c0.2,0,0.4,0.1,0.5,0.2c0.2,0.1,0.2,0.3,0.3,0.5
		c0,0,0,0.1,0,0.2c0,0.1,0,0.2,0,0.2c0,0.1,0.1,0.1,0.1,0.1c0.6-0.1,1.3-0.2,1.9-0.3c0.2,0,0.4,0,0.5,0.1c0.2,0.1,0.2,0.3,0.3,0.5
		l0,0.2c0,0.2,0,0.4-0.2,0.6c-0.1,0.2-0.3,0.3-0.5,0.3c-0.2,0-0.7,0.1-1.7,0.2c-0.1,0-0.1,0.1-0.1,0.1c0.1,0.3,0.2,0.5,0.2,0.6
		c0,0.1,0.1,0.1,0.1,0.1c0.3,0,1.1-0.1,2.2-0.3c0.2,0,0.4,0,0.5,0.1c0.2,0.1,0.2,0.3,0.3,0.5l0,0.2c0,0.2,0,0.4-0.2,0.6
		c-0.1,0.2-0.3,0.3-0.5,0.3c-0.5,0.1-1,0.1-1.7,0.2c-0.1,0-0.1,0.1-0.1,0.1c0.3,0.6,0.6,1.1,0.9,1.5c0.1,0.2,0.1,0.3,0.1,0.5
		c0,0.2-0.2,0.3-0.3,0.4l-0.5,0.2c-0.4,0.2-0.9,0.2-1.3,0.1c-0.7-0.2-1.4-0.4-2.2-0.4c-0.5,0-0.8,0.1-1.1,0.2
		c-0.2,0.1-0.3,0.3-0.3,0.6c0,0.3,0.2,0.6,0.6,0.8c0.4,0.2,1,0.3,2,0.3c0.7,0,1.4,0,2.1-0.1c0.2,0,0.4,0,0.5,0.1
		c0.2,0.1,0.3,0.3,0.3,0.5l0,0.3c0,0.2,0,0.4-0.2,0.6c-0.1,0.2-0.3,0.3-0.5,0.3c-0.8,0.1-1.6,0.2-2.3,0.2c-3.1,0-4.7-0.9-4.7-2.7
		c0-0.7,0.3-1.3,0.9-1.8c0.6-0.4,1.5-0.7,2.6-0.7c0.6,0,1.2,0.1,1.7,0.3h0v0c-0.2-0.4-0.4-0.7-0.5-0.9c0-0.1-0.1-0.1-0.1-0.1
		C120.7,34.5,119,34.6,117.4,34.6z"/>
	<path d="M129.3,32.2c-0.2,0-0.4-0.1-0.5-0.2c-0.1-0.1-0.2-0.3-0.2-0.5v-0.2c0-0.2,0.1-0.4,0.2-0.5c0.1-0.1,0.3-0.2,0.5-0.2
		c1.5,0,2.7-0.1,3.8-0.1c0.1,0,0.1,0,0.1-0.1c0-0.1,0-0.2,0-0.3c0-0.1,0-0.2,0-0.3c0-0.2,0.1-0.4,0.2-0.5c0.2-0.1,0.3-0.2,0.5-0.2
		h0.6c0.2,0,0.4,0.1,0.5,0.2s0.2,0.3,0.2,0.5c0,0.1,0,0.1,0,0.2s0,0.2,0,0.2c0,0.1,0,0.1,0.1,0.1c0.6,0,1.4-0.1,2.4-0.2
		c0.2,0,0.4,0,0.5,0.2c0.2,0.1,0.2,0.3,0.3,0.5l0,0.2c0,0.2,0,0.4-0.2,0.6c-0.1,0.2-0.3,0.2-0.5,0.3c-0.2,0-1,0.1-2.6,0.2
		c-0.1,0-0.1,0-0.1,0.1v0.6c0,0.1,0,0.1,0.1,0.1c0.5,0,1.1-0.1,1.9-0.2c0.2,0,0.4,0,0.5,0.2c0.2,0.1,0.2,0.3,0.3,0.5l0,0.2
		c0,0.2-0.1,0.4-0.2,0.5c-0.1,0.2-0.3,0.2-0.5,0.3c-0.1,0-0.4,0-0.9,0.1c-0.5,0.1-0.9,0.1-1.1,0.1c-0.1,0-0.1,0-0.1,0.1
		c0,0.4,0,0.9,0.1,1.6c0,0.1,0,0.1,0.1,0.2c0.7,0.4,1.4,0.9,2.4,1.5c0.2,0.1,0.3,0.3,0.3,0.5s0,0.4-0.1,0.5l-0.2,0.3
		c-0.1,0.2-0.3,0.3-0.5,0.3c-0.2,0-0.4,0-0.6-0.1c-0.7-0.5-1.2-0.8-1.3-0.9c-0.1,0-0.1,0-0.1,0.1c-0.2,0.6-0.5,1-1,1.2
		c-0.5,0.3-1.2,0.4-2.1,0.4c-0.9,0-1.7-0.2-2.2-0.6c-0.5-0.4-0.8-1-0.8-1.7c0-0.7,0.3-1.2,0.8-1.6c0.5-0.4,1.3-0.6,2.2-0.6
		c0.3,0,0.7,0,1.1,0.1c0,0,0.1,0,0.1,0c0,0,0,0,0-0.1c0-0.1,0-0.2,0-0.4s0-0.3,0-0.4c0-0.1,0-0.1-0.1-0.1c-1.2,0.1-2.4,0.1-3.3,0.1
		c-0.2,0-0.4-0.1-0.5-0.2c-0.1-0.1-0.2-0.3-0.2-0.5v-0.2c0-0.2,0.1-0.4,0.2-0.5s0.3-0.2,0.5-0.2c1,0,2.1,0,3.3-0.1
		c0.1,0,0.1,0,0.1-0.1c0-0.1,0-0.2,0-0.3c0-0.1,0-0.2,0-0.3s0-0.1-0.1-0.1C131.8,32.1,130.6,32.2,129.3,32.2z M132.2,38.3
		c0.4,0,0.7-0.1,0.8-0.2c0.2-0.1,0.2-0.3,0.3-0.7c0-0.1,0-0.1-0.1-0.1c-0.3-0.1-0.7-0.2-1-0.2c-0.7,0-1,0.2-1,0.6
		C131.2,38.1,131.6,38.3,132.2,38.3z"/>
	<path d="M140.9,32c-0.2,0-0.4-0.1-0.5-0.2c-0.1-0.1-0.2-0.3-0.2-0.5v-0.2c0-0.2,0.1-0.4,0.2-0.5c0.1-0.1,0.3-0.2,0.5-0.2
		c1.4,0,3.1-0.1,4.9-0.1c0.1,0,0.1,0,0.1-0.1c0-0.1,0-0.3,0-0.6c0-0.2,0.1-0.4,0.2-0.5c0.1-0.2,0.3-0.2,0.5-0.2h0.5
		c0.2,0,0.4,0.1,0.5,0.2s0.2,0.3,0.2,0.5c0,0.1,0,0.1,0,0.2c0,0.1,0,0.2,0,0.3c0,0.1,0,0.1,0.1,0.1c1.1-0.1,2-0.1,2.6-0.2
		c0.2,0,0.4,0,0.5,0.2c0.2,0.1,0.2,0.3,0.2,0.5l0,0.2c0,0.2,0,0.4-0.2,0.5c-0.1,0.2-0.3,0.2-0.5,0.2c-0.9,0.1-1.8,0.1-2.6,0.2
		c-0.1,0-0.1,0-0.1,0.1c0,0.6,0,1.3,0,1.9c0,0.1,0,0.1,0.1,0.2c0.3,0.6,0.4,1.2,0.4,2c0,1.3-0.4,2.2-1.1,2.9
		c-0.7,0.7-1.9,1.1-3.5,1.2c-0.2,0-0.4,0-0.6-0.2c-0.2-0.1-0.3-0.3-0.3-0.5l0-0.3c0-0.2,0-0.4,0.1-0.5c0.1-0.2,0.3-0.2,0.5-0.3
		c1.3-0.1,2.2-0.5,2.6-1c0.1-0.1,0.1-0.2,0.2-0.3v0h0c-0.4,0.3-0.9,0.4-1.4,0.4c-0.8,0-1.4-0.2-1.9-0.7c-0.5-0.5-0.7-1.1-0.7-1.8
		c0-0.7,0.3-1.3,0.8-1.8c0.5-0.5,1.1-0.7,1.9-0.7c0.3,0,0.7,0.1,1,0.2h0c0,0,0,0,0,0c0-0.1,0-0.2,0-0.3c0-0.1,0-0.2,0-0.3
		c0-0.1,0-0.1-0.1-0.1C144.1,32,142.4,32,140.9,32z M144.6,35.7c0.2,0.2,0.4,0.3,0.7,0.3s0.5-0.1,0.7-0.3c0.2-0.2,0.3-0.4,0.3-0.7
		s-0.1-0.5-0.3-0.7c-0.2-0.2-0.4-0.3-0.7-0.3s-0.5,0.1-0.7,0.3c-0.2,0.2-0.3,0.4-0.3,0.7S144.4,35.5,144.6,35.7z"/>
</g>
<g transform="translate(0.000000,1280.000000) scale(0.100000,-0.100000)">
	<path class="st4" d="M1115.2,12739.9c-13.4-1-25.6-5.4-35.6-12.9c-5.2-3.9-11.1-9.7-14.7-14.6c-6.3-8.4-9.8-17.5-10.9-28.9
		c-0.3-3.1-0.2-10.9,0.1-13.5c1.2-8.9,4.3-16.5,11.6-28.7c3.7-6.1,6-9.6,18.4-28.2c7.8-11.6,9.1-13.6,11.5-17.8
		c6.6-11.2,11.8-22.2,15.5-32.4c1.8-5,2.7-7.9,5.1-16.8c0.6-2.1,1.2-4.1,1.3-4.5c0.8-1.6,2.4-2.1,3.7-1.1c1.2,0.9,1.8,2.3,3.9,9.3
		c3.9,13.3,6.2,19.4,10.8,28.9c5.5,11.3,11.7,21.6,24.9,41.2c9.8,14.5,15.2,23.5,19.7,32.5c2.6,5.2,4,8.8,4.7,12.4
		c1.4,7.2,1.5,18,0.3,24.7c-1.8,9-5.9,17.8-12.3,25.9c-1.8,2.3-7,7.4-9.5,9.5c-10.5,8.3-22.8,13.4-36.3,14.9
		C1124.6,12740,1117.8,12740.1,1115.2,12739.9z"/>
</g>
</svg>
