<?xml version="1.0" encoding="utf-8"?>
<!-- Generator: Adobe Illustrator 28.3.0, SVG Export Plug-In . SVG Version: 6.00 Build 0)  -->
<svg version="1.1" id="_レイヤー_2" xmlns="http://www.w3.org/2000/svg" xmlns:xlink="http://www.w3.org/1999/xlink" x="0px"
	 y="0px" viewBox="0 0 150 52" style="enable-background:new 0 0 150 52;" xml:space="preserve">
<style type="text/css">
	.st0{opacity:0.5;}
	.st1{fill:#FFFFFF;}
	.st2{fill:#999999;}
</style>
<g>
	<path class="st0" d="M140,52H10C4.5,52,0,47.5,0,42V12C0,6.5,4.5,2,10,2h130c5.5,0,10,4.5,10,10v30C150,47.5,145.5,52,140,52z"/>
</g>
<g>
	<path class="st1" d="M10,49c-5,0-9-4-9-9V10c0-5,4-9,9-9h130c5,0,9,4,9,9v30c0,5-4,9-9,9H10z"/>
	<path d="M140,2c4.4,0,8,3.6,8,8v30c0,4.4-3.6,8-8,8H10c-4.4,0-8-3.6-8-8V10c0-4.4,3.6-8,8-8H140 M140,0H10C4.5,0,0,4.5,0,10v30
		c0,5.5,4.5,10,10,10h130c5.5,0,10-4.5,10-10V10C150,4.5,145.5,0,140,0L140,0z"/>
</g>
<g transform="translate(0.000000,1280.000000) scale(0.100000,-0.100000)">
	<path class="st2" d="M1125.2,12739.9c-13.4-1-25.6-5.4-35.6-12.9c-5.2-3.9-11.1-9.7-14.7-14.6c-6.3-8.4-9.8-17.5-10.9-28.9
		c-0.3-3.1-0.2-10.9,0.1-13.5c1.2-8.9,4.3-16.5,11.6-28.7c3.7-6.1,6-9.6,18.4-28.2c7.8-11.6,9.1-13.6,11.5-17.8
		c6.6-11.2,11.8-22.2,15.5-32.4c1.8-5,2.7-7.9,5.1-16.8c0.6-2.1,1.2-4.1,1.3-4.5c0.8-1.6,2.4-2.1,3.7-1.1c1.2,0.9,1.8,2.3,3.9,9.3
		c3.9,13.3,6.2,19.4,10.8,28.9c5.5,11.3,11.7,21.6,24.9,41.2c9.8,14.5,15.2,23.5,19.7,32.5c2.6,5.2,4,8.8,4.7,12.4
		c1.4,7.2,1.5,18,0.3,24.7c-1.8,9-5.9,17.8-12.3,25.9c-1.8,2.3-7,7.4-9.5,9.5c-10.5,8.3-22.8,13.4-36.3,14.9
		C1134.6,12740,1127.8,12740.1,1125.2,12739.9z"/>
</g>
<g>
	<path d="M16.3,14.9c-0.2,0-0.4-0.1-0.6-0.2c-0.2-0.1-0.2-0.3-0.2-0.5v-0.2c0-0.2,0.1-0.4,0.2-0.5c0.2-0.1,0.3-0.2,0.6-0.2h0.2
		c0.1,0,0.1,0,0.1-0.1v-1.6c0-0.2,0.1-0.4,0.2-0.6c0.2-0.2,0.3-0.2,0.6-0.2h0.5c0.2,0,0.4,0.1,0.6,0.2c0.2,0.2,0.2,0.3,0.2,0.6V13
		c0,0.1,0,0.1,0.1,0.1h0.2c0.3,0,0.6,0.1,0.7,0.4c0,0.1,0.1,0.1,0.2,0.1l0.5-0.1c0.1,0,0.1-0.1,0.1-0.1v-1.6c0-0.2,0.1-0.4,0.2-0.5
		s0.3-0.2,0.5-0.2h0.5c0.2,0,0.4,0.1,0.5,0.2s0.2,0.3,0.2,0.5v1.2c0,0.1,0,0.1,0.1,0.1l0.5-0.1c0.1,0,0.1-0.1,0.1-0.1v-1.8
		c0-0.2,0.1-0.4,0.2-0.5c0.1-0.1,0.3-0.2,0.5-0.2h0.3c0.2,0,0.4,0.1,0.5,0.2c0.1,0.1,0.2,0.3,0.2,0.5v1.4c0,0,0,0.1,0,0.1
		c0,0,0.1,0,0.1,0l2.2-0.4c0.2,0,0.4,0,0.5,0.1s0.2,0.3,0.2,0.5v0.3c0,1.9-0.1,3.3-0.2,4s-0.3,1.2-0.7,1.3c0,0,0,0,0,0c0,0,0,0,0,0
		l0.5,0.1c0.2,0,0.4,0.2,0.5,0.3c0.1,0.2,0.2,0.4,0.2,0.6c0,0.4-0.1,0.7-0.1,1c0,0.3-0.1,0.5-0.2,0.8c-0.1,0.2-0.2,0.4-0.2,0.6
		s-0.2,0.3-0.4,0.4c-0.2,0.1-0.4,0.2-0.5,0.3s-0.4,0.1-0.8,0.1c-0.3,0-0.7,0.1-1,0.1c-0.3,0-0.7,0-1.3,0c-0.6,0-1.1,0-1.4,0
		s-0.7,0-1-0.1c-0.3-0.1-0.5-0.1-0.6-0.2c-0.1-0.1-0.2-0.2-0.3-0.4c-0.1-0.2-0.1-0.3-0.2-0.5c0-0.2,0-0.4,0-0.7v-5.2
		c0-0.1,0-0.1-0.1-0.1l-0.2,0c-0.2,0-0.4,0-0.6-0.1s-0.3-0.3-0.3-0.5c0-0.1-0.1-0.1-0.1-0.1c0,0,0,0-0.1,0s0,0-0.1,0h-0.2
		c-0.1,0-0.1,0-0.1,0.1v4.5c0,0.1,0,0.1,0.1,0.1c0,0,0.1,0,0.2-0.1c0.1,0,0.1-0.1,0.2-0.1c0.2-0.1,0.3,0,0.5,0.1
		c0.2,0.1,0.2,0.3,0.3,0.4v0.3c0,0.2,0,0.4-0.2,0.6c-0.1,0.2-0.3,0.3-0.5,0.4c-1,0.4-1.9,0.7-2.8,0.9c-0.2,0-0.4,0-0.5-0.1
		c-0.2-0.1-0.3-0.3-0.3-0.5l0-0.4c0-0.2,0-0.4,0.2-0.6c0.1-0.2,0.3-0.3,0.5-0.4c0,0,0.1,0,0.1,0c0.1,0,0.1,0,0.1,0
		c0.1,0,0.1-0.1,0.1-0.1V15c0-0.1,0-0.1-0.1-0.1H16.3z M22.5,15.3v5.2c0,0.3,0.1,0.4,0.3,0.5c0.2,0,0.8,0.1,1.8,0.1
		c0.4,0,0.6,0,0.7,0s0.3,0,0.5-0.1c0.2-0.1,0.3-0.1,0.3-0.2c0-0.1,0.1-0.2,0.2-0.4c0.1-0.2,0.1-0.4,0.1-0.6c0-0.2,0-0.5,0-1
		c0-0.1,0-0.1-0.1-0.1h-0.1c-0.2,0-0.4-0.1-0.6-0.2c-0.2-0.1-0.3-0.3-0.3-0.6l-0.1-0.3c0-0.2,0.1-0.4,0.5-0.7c0,0,0.1,0,0.1,0
		c0.1-0.1,0.2-0.8,0.2-2.2c0-0.1,0-0.1-0.1-0.1l-0.9,0.2c-0.1,0-0.1,0.1-0.1,0.1v4c0,0.2-0.1,0.4-0.2,0.5s-0.3,0.2-0.5,0.2H24
		c-0.2,0-0.4-0.1-0.5-0.2c-0.1-0.1-0.2-0.3-0.2-0.5v-3.6c0-0.1,0-0.1-0.1-0.1l-0.5,0.1C22.6,15.2,22.5,15.2,22.5,15.3z"/>
	<path d="M32.4,23c-0.2,0-0.4-0.1-0.6-0.2c-0.2-0.2-0.2-0.3-0.2-0.6V11.4c0-0.2,0.1-0.4,0.2-0.5c0.2-0.1,0.3-0.2,0.6-0.2H43
		c0.2,0,0.4,0.1,0.6,0.2c0.2,0.1,0.2,0.3,0.2,0.5v10.8c0,0.2-0.1,0.4-0.2,0.6C43.4,22.9,43.2,23,43,23h-0.9c-0.1,0-0.2,0-0.3-0.1
		c-0.1-0.1-0.1-0.2-0.1-0.3c0,0,0-0.1-0.1-0.1h-7.8c0,0-0.1,0-0.1,0.1c0,0.1,0,0.2-0.1,0.3S33.4,23,33.2,23H32.4z M33.7,12.4v8.3
		c0,0.1,0,0.1,0.1,0.1h1.3c0,0,0,0,0,0c0,0,0,0,0,0c-0.1-0.1-0.2-0.1-0.3-0.2l-0.2-0.2c-0.1-0.2-0.2-0.3-0.1-0.5
		c0-0.2,0.1-0.4,0.3-0.5c0.5-0.3,0.9-0.6,1.1-0.8c0,0,0,0,0-0.1c0,0,0-0.1,0-0.1c-0.5-0.2-1-0.4-1.6-0.7c-0.2-0.1-0.3-0.2-0.4-0.4
		c-0.1-0.2-0.1-0.4,0-0.6l0.1-0.2c0.1-0.2,0.3-0.3,0.5-0.4c0.2-0.1,0.4-0.1,0.6,0c0.7,0.3,1.5,0.6,2.2,1c0.1,0,0.1,0,0.2,0
		c0.9-1,1.7-2,2.4-3.2c0.1-0.2,0.3-0.3,0.5-0.4c0.2-0.1,0.4-0.1,0.6,0l0.2,0.1c0.2,0.1,0.3,0.3,0.4,0.5c0.1,0.2,0,0.4-0.1,0.6
		c-0.6,1.2-1.4,2.2-2.3,3.2c-0.1,0.1-0.1,0.1,0,0.1c0.3,0.2,0.8,0.5,1.5,0.9c0.2,0.1,0.3,0.3,0.3,0.5c0,0.2,0,0.4-0.1,0.6l-0.2,0.3
		c-0.1,0.2-0.3,0.3-0.5,0.3c-0.2,0-0.4,0-0.6-0.1c-0.6-0.4-1.1-0.7-1.7-1.1c-0.1,0-0.1,0-0.2,0c-0.6,0.5-1.1,0.9-1.7,1.3
		c0,0,0,0,0,0c0,0,0,0,0,0c0,0,0,0,0,0h5.6c0.1,0,0.1,0,0.1-0.1v-8.3c0-0.1,0-0.1-0.1-0.1h-3.3c0,0,0,0,0,0s0,0,0,0
		c0.1,0.1,0.2,0.2,0.3,0.3c0,0.1,0.1,0.2,0.3,0.5c0.2,0.3,0.3,0.5,0.4,0.6c0.1,0.2,0.1,0.4,0.1,0.6c-0.1,0.2-0.2,0.4-0.4,0.5
		l-0.2,0.1C38.4,15,38.2,15,38,15c-0.2-0.1-0.4-0.2-0.5-0.4c-0.1-0.2-0.3-0.6-0.6-1.1c-0.1-0.2-0.1-0.4-0.1-0.6
		c0.1-0.2,0.2-0.4,0.4-0.5l0.2-0.1c0,0,0,0,0,0s0,0,0,0h-3.6C33.7,12.3,33.7,12.3,33.7,12.4z M35.3,15.6c-0.2-0.4-0.4-0.7-0.7-1.2
		c-0.1-0.2-0.1-0.4-0.1-0.6c0.1-0.2,0.2-0.4,0.3-0.5l0.3-0.1c0.2-0.1,0.4-0.1,0.6-0.1c0.2,0.1,0.4,0.2,0.5,0.4
		c0.2,0.3,0.4,0.7,0.7,1.2C37,14.8,37,15,37,15.2s-0.2,0.4-0.4,0.5l-0.3,0.1C36.2,16,36,16,35.8,15.9C35.6,15.9,35.4,15.7,35.3,15.6
		z"/>
	<path d="M47.6,22.5c-0.2,0-0.4-0.1-0.6-0.2c-0.2-0.2-0.2-0.3-0.2-0.6v-0.3c0-0.2,0.1-0.4,0.2-0.6c0.2-0.2,0.3-0.2,0.6-0.2h3.7
		c0.1,0,0.1,0,0.1-0.1v-9.1c0-0.2,0.1-0.4,0.2-0.6c0.2-0.2,0.3-0.2,0.6-0.2h0.7c0.2,0,0.4,0.1,0.6,0.2c0.2,0.2,0.2,0.3,0.2,0.6V14
		c0,0.1,0,0.1,0.1,0.1h4c0.2,0,0.4,0.1,0.5,0.2c0.1,0.2,0.2,0.3,0.2,0.6v0.3c0,0.2-0.1,0.4-0.2,0.6c-0.1,0.2-0.3,0.2-0.5,0.2h-4
		c-0.1,0-0.1,0-0.1,0.1v4.5c0,0.1,0,0.1,0.1,0.1h4.7c0.2,0,0.4,0.1,0.6,0.2c0.2,0.2,0.2,0.3,0.2,0.6v0.3c0,0.2-0.1,0.4-0.2,0.6
		c-0.2,0.2-0.3,0.2-0.6,0.2H47.6z"/>
	<path d="M64.9,21.4c-0.8,0-1.4-0.4-2.1-1.1c-0.6-0.8-0.9-1.7-0.9-2.8c0-1.7,0.6-3.1,1.8-4.2c1.2-1.1,2.8-1.6,4.7-1.6
		c1.7,0,3,0.5,4,1.4c1,0.9,1.6,2.2,1.6,3.7c0,1.3-0.3,2.4-1,3.3c-0.6,0.9-1.6,1.5-2.8,1.9c-0.2,0.1-0.4,0-0.6-0.1
		c-0.2-0.1-0.3-0.3-0.4-0.5l-0.1-0.4c-0.1-0.2,0-0.4,0-0.6c0.1-0.2,0.2-0.3,0.5-0.4c1.5-0.6,2.2-1.7,2.2-3.2c0-0.7-0.2-1.4-0.6-1.9
		c-0.4-0.5-1-0.9-1.6-1.1c-0.1,0-0.1,0-0.1,0.1C68.6,18.9,67.1,21.4,64.9,21.4z M67,13.7c-0.9,0.2-1.6,0.6-2.2,1.3
		c-0.5,0.6-0.8,1.4-0.8,2.3c0,0.5,0.1,1,0.3,1.4c0.2,0.4,0.4,0.5,0.6,0.5c0.2,0,0.5-0.2,0.7-0.5c0.2-0.3,0.5-0.9,0.7-1.7
		C66.7,16.2,66.9,15.1,67,13.7C67.1,13.8,67.1,13.8,67,13.7C67.1,13.7,67.1,13.7,67,13.7z"/>
	<path d="M85.3,10.7c0.4-0.4,0.9-0.6,1.5-0.6c0.6,0,1.1,0.2,1.5,0.6c0.4,0.4,0.6,0.9,0.6,1.5c0,0.5-0.2,0.9-0.5,1.3
		c-0.3,0.4-0.7,0.6-1.2,0.7c-0.1,0-0.1,0.1-0.1,0.1l0,0.1c0.1,0.2,0.1,0.4,0,0.6c-0.1,0.2-0.3,0.3-0.5,0.4c-2,0.7-4.2,1.3-6.4,1.7
		c-0.1,0-0.1,0.1-0.1,0.1v1.6c0,0.5,0.1,0.8,0.2,1c0.2,0.2,0.5,0.2,1,0.2c1.7,0,3.3-0.1,5-0.2c0.2,0,0.4,0.1,0.6,0.2
		c0.2,0.1,0.2,0.3,0.3,0.5l0,0.4c0,0.2-0.1,0.4-0.2,0.6s-0.3,0.3-0.5,0.3c-1.8,0.1-3.6,0.2-5.4,0.2c-1.2,0-2.1-0.2-2.5-0.7
		c-0.5-0.5-0.7-1.3-0.7-2.6v-6.6c0-0.2,0.1-0.4,0.2-0.6c0.2-0.2,0.3-0.2,0.6-0.2h0.7c0.2,0,0.4,0.1,0.6,0.2c0.2,0.2,0.2,0.3,0.2,0.6
		V15c0,0.1,0,0.1,0.1,0.1c1.7-0.3,3.4-0.8,5.1-1.3c0.1,0,0.1-0.1,0-0.1c-0.4-0.4-0.6-0.9-0.6-1.5C84.7,11.6,84.9,11.1,85.3,10.7z
		 M86.2,12.8c0.2,0.2,0.4,0.3,0.6,0.3s0.5-0.1,0.6-0.3s0.3-0.4,0.3-0.6s-0.1-0.5-0.3-0.6s-0.4-0.3-0.6-0.3s-0.5,0.1-0.6,0.3
		c-0.2,0.2-0.3,0.4-0.3,0.6S86,12.7,86.2,12.8z"/>
	<path d="M93,13.5c-0.2-0.1-0.3-0.3-0.4-0.5c-0.1-0.2,0-0.4,0.1-0.6L93,12c0.1-0.2,0.3-0.3,0.5-0.4c0.2-0.1,0.4,0,0.6,0.1
		c0.8,0.5,1.8,1.1,2.7,1.7c0.2,0.1,0.3,0.3,0.3,0.5c0,0.2,0,0.4-0.1,0.6l-0.3,0.5c-0.1,0.2-0.3,0.3-0.5,0.3c-0.2,0-0.4,0-0.6-0.1
		C94.8,14.6,93.9,14.1,93,13.5z M102.7,13.1c0.2,0.1,0.4,0.2,0.5,0.4c0.1,0.2,0.1,0.4,0.1,0.6c-0.6,2.3-1.7,4.2-3.3,5.4
		c-1.5,1.3-3.6,2.1-6.3,2.4c-0.2,0-0.4,0-0.6-0.2c-0.2-0.1-0.3-0.3-0.3-0.5l-0.1-0.5c0-0.2,0-0.4,0.2-0.6c0.1-0.2,0.3-0.3,0.5-0.3
		c2.2-0.3,3.8-0.9,5.1-1.9s2.1-2.5,2.7-4.4c0.1-0.2,0.2-0.4,0.4-0.5s0.4-0.1,0.6-0.1L102.7,13.1z"/>
	<path d="M124.2,13.9c-0.2,0-0.4-0.1-0.6-0.2c-0.2-0.2-0.2-0.3-0.2-0.6v-0.3c0-0.2,0.1-0.4,0.2-0.6c0.2-0.2,0.3-0.2,0.6-0.2
		c0.9,0,1.5,0,1.9,0c0.1,0,0.1,0,0.2-0.1c0-0.1,0.1-0.2,0.1-0.4c0.1-0.2,0.1-0.3,0.1-0.4c0.1-0.2,0.2-0.4,0.4-0.5
		c0.2-0.1,0.4-0.2,0.6-0.1l0.6,0.1c0.2,0,0.4,0.1,0.5,0.3c0.1,0.2,0.1,0.4,0.1,0.6c0,0,0,0.1-0.1,0.2c0,0.1-0.1,0.1-0.1,0.2
		c0,0,0,0.1,0,0.1c0,0,0,0,0.1,0c1.5,0,2.8-0.1,4-0.2c0.2,0,0.4,0.1,0.6,0.2c0.2,0.1,0.2,0.3,0.3,0.5l0,0.3c0,0.2-0.1,0.4-0.2,0.6
		c-0.1,0.2-0.3,0.2-0.5,0.3c-1.7,0.1-3.3,0.2-4.9,0.2c-0.1,0-0.1,0-0.2,0.1c-0.1,0.1-0.1,0.3-0.2,0.5c-0.1,0.2-0.2,0.3-0.2,0.4v0h0
		c0.5-0.2,1-0.4,1.5-0.4c1.1,0,1.9,0.4,2.4,1.2c0,0.1,0.1,0.1,0.2,0.1c0.7-0.2,1.4-0.3,2.1-0.5c0.2,0,0.4,0,0.6,0.1
		c0.2,0.1,0.3,0.3,0.3,0.5l0,0.3c0,0.2,0,0.4-0.2,0.6c-0.1,0.2-0.3,0.3-0.5,0.3c-0.6,0.1-1.2,0.2-1.9,0.4c-0.1,0-0.1,0.1-0.1,0.2
		c0,0.4,0.1,0.7,0.1,1c0,0.2-0.1,0.4-0.2,0.6c-0.2,0.2-0.3,0.2-0.6,0.2h-0.6c-0.2,0-0.4-0.1-0.6-0.2c-0.2-0.2-0.2-0.3-0.2-0.6
		c0,0,0-0.1,0-0.1c0-0.1,0-0.1,0-0.1c0,0,0-0.1,0-0.1c0,0,0,0-0.1,0c-0.5,0.3-0.9,0.5-1.1,0.7c-0.3,0.2-0.4,0.5-0.4,0.7
		c0,0.3,0.2,0.5,0.5,0.6c0.3,0.1,0.9,0.2,1.7,0.2c0.7,0,1.6-0.1,2.7-0.2c0.2,0,0.4,0,0.6,0.2s0.3,0.3,0.3,0.5l0,0.4
		c0,0.2,0,0.4-0.2,0.6c-0.1,0.2-0.3,0.3-0.5,0.3c-1,0.1-1.9,0.2-2.9,0.2c-3,0-4.5-0.8-4.5-2.5c0-0.6,0.3-1.2,0.9-1.8
		c0.6-0.6,1.4-1.2,2.5-1.6c0.1,0,0.1-0.1,0-0.1c-0.2-0.2-0.5-0.3-0.9-0.3c-0.8,0-1.7,0.6-2.7,1.9c-0.1,0.2-0.3,0.3-0.6,0.3
		s-0.4,0-0.6-0.1l-0.4-0.2c-0.2-0.1-0.3-0.3-0.3-0.5c0-0.2,0-0.4,0.1-0.6c0.7-1.1,1.3-2.1,1.8-3c0,0,0,0,0-0.1c0,0,0,0-0.1,0
		c-0.1,0-0.3,0-0.6,0C124.6,13.9,124.4,13.9,124.2,13.9z"/>
	<path d="M19.9,34.2c-0.2,0-0.4-0.1-0.5-0.2c-0.1-0.2-0.2-0.3-0.2-0.6v-0.2c0-0.2,0.1-0.4,0.2-0.5c0.1-0.1,0.3-0.2,0.5-0.2h1.7
		c0.2,0,0.4,0.1,0.6,0.2c0.2,0.1,0.2,0.3,0.2,0.5v3.6c0,0.1,0,0.1,0.1,0.2c0.2,0.3,0.4,0.5,0.7,0.6c0,0,0,0,0.1,0s0,0,0-0.1
		c0-0.1,0-0.3,0.1-0.4c0.1-0.1,0.2-0.2,0.4-0.3c0.5-0.2,0.8-0.3,1.1-0.4c0,0,0,0,0,0h-1.2c-0.2,0-0.4-0.1-0.5-0.2
		c-0.1-0.2-0.2-0.3-0.2-0.6v-0.1c0-0.2,0.1-0.4,0.2-0.5s0.3-0.2,0.5-0.2h0.7c0.1,0,0.1,0,0.1-0.1v-0.2c0-0.1,0-0.1-0.1-0.1h-0.4
		c-0.2,0-0.4-0.1-0.5-0.2c-0.1-0.1-0.2-0.3-0.2-0.5s0.1-0.4,0.2-0.5c0.1-0.1,0.3-0.2,0.5-0.2h0.4c0.1,0,0.1,0,0.1-0.1v-0.1
		c0-0.1,0-0.1-0.1-0.1c-0.1,0-0.3,0-0.5,0c-0.5,0-0.8-0.1-0.9-0.2s-0.2-0.4-0.2-0.8v-1.1c0-0.2,0.1-0.4,0.2-0.5
		c0.2-0.1,0.3-0.2,0.6-0.2h1.4c0.1,0,0.1,0,0.1-0.1v-0.2c0-0.1,0-0.1-0.1-0.1h-1.5c-0.2,0-0.4-0.1-0.5-0.2c-0.1-0.1-0.2-0.3-0.2-0.5
		c0-0.2,0.1-0.4,0.2-0.5c0.1-0.1,0.3-0.2,0.5-0.2H26c0.2,0,0.4,0.1,0.5,0.2c0.1,0.1,0.2,0.3,0.2,0.5v1.5c0,0.2-0.1,0.4-0.2,0.6
		c-0.1,0.2-0.3,0.2-0.5,0.2h-0.2c0,0,0,0,0,0c0,0,0,0,0,0l0.4,0.1c0.2,0,0.4,0.2,0.5,0.3c0.1,0.2,0.2,0.4,0.1,0.6
		c-0.1,0.3-0.2,0.5-0.4,0.6c-0.1,0-0.1,0.1-0.1,0.1c0,0.1,0,0.2,0,0.3c0,0.1,0,0.1,0.1,0.1h1.3c0.1,0,0.1,0,0.1-0.1
		c0-0.1,0-0.1,0-0.2c0-0.1,0-0.1-0.1-0.1c-0.3,0-0.4-0.1-0.5-0.3c-0.1-0.1-0.1-0.4-0.1-0.7v-1.1c0-0.2,0.1-0.4,0.2-0.5
		c0.1-0.1,0.3-0.2,0.5-0.2h1.4c0.1,0,0.1,0,0.1-0.1v-0.2c0-0.1,0-0.1-0.1-0.1H28c-0.2,0-0.4-0.1-0.5-0.2c-0.1-0.1-0.2-0.3-0.2-0.5
		c0-0.2,0.1-0.4,0.2-0.5c0.1-0.1,0.3-0.2,0.5-0.2h2.6c0.2,0,0.4,0.1,0.6,0.2c0.2,0.1,0.2,0.3,0.2,0.5v1.5c0,0.2-0.1,0.4-0.2,0.6
		c-0.2,0.2-0.3,0.2-0.6,0.2h-0.2c0,0,0,0,0,0c0,0,0,0,0,0l0.5,0.1c0.2,0,0.4,0.2,0.5,0.3c0.1,0.2,0.2,0.4,0.1,0.6
		c-0.1,0.3-0.2,0.5-0.3,0.6c-0.2,0.1-0.5,0.1-0.9,0.1c0,0,0,0-0.1,0c0,0-0.1,0-0.1,0c-0.1,0-0.1,0-0.1,0.1c0,0,0,0.1,0,0.2
		s0,0.1,0.1,0.1h0.4c0.2,0,0.4,0.1,0.5,0.2c0.1,0.1,0.2,0.3,0.2,0.5c0,0.2-0.1,0.4-0.2,0.5c-0.1,0.1-0.3,0.2-0.5,0.2h-0.4
		c-0.1,0-0.1,0-0.1,0.1v0.2c0,0.1,0,0.1,0.1,0.1h0.7c0.2,0,0.4,0.1,0.6,0.2s0.2,0.3,0.2,0.5v0.1c0,0.2-0.1,0.4-0.2,0.6
		c-0.2,0.2-0.3,0.2-0.6,0.2h-0.6c0,0,0,0,0,0s0,0,0,0c0.3,0.1,0.5,0.2,0.7,0.3c0.2,0.1,0.3,0.3,0.4,0.5c0.1,0.2,0,0.4-0.1,0.6
		L31.1,38c0,0.1,0,0.1,0,0.1c0.2,0,0.3,0.1,0.4,0.3s0.2,0.3,0.1,0.5l0,0.2c0,0.2-0.1,0.4-0.3,0.6c-0.2,0.2-0.3,0.2-0.6,0.2h-2.8
		c-1.8,0-3.2-0.1-4.2-0.2c-1-0.2-1.7-0.4-2.2-0.8c-0.1,0-0.1,0-0.2,0c-0.3,0.3-0.7,0.5-1.1,0.8c-0.2,0.1-0.4,0.2-0.6,0.1
		s-0.4-0.2-0.5-0.3L19.2,39c-0.1-0.2-0.1-0.4-0.1-0.6c0-0.2,0.2-0.4,0.4-0.5c0.4-0.2,0.6-0.4,0.6-0.4c0.1,0,0.1-0.1,0.1-0.2v-2.9
		c0-0.1,0-0.1-0.1-0.1H19.9z M19.9,28.2c0.2-0.1,0.3-0.2,0.6-0.2s0.4,0.1,0.6,0.3c0.4,0.4,0.8,0.9,1.3,1.4c0.1,0.2,0.2,0.3,0.2,0.6
		c0,0.2-0.1,0.4-0.3,0.5L22.1,31c-0.2,0.1-0.3,0.2-0.6,0.2c-0.2,0-0.4-0.1-0.5-0.3c-0.3-0.3-0.8-0.8-1.4-1.4
		c-0.1-0.1-0.2-0.3-0.2-0.5c0-0.2,0.1-0.4,0.2-0.5L19.9,28.2z M24.2,30.9c0,0.1,0,0.2,0,0.2c0,0,0.1,0,0.2,0c0,0,0.1,0,0.1,0
		c0.1,0,0.1,0,0.1,0c0,0,0.1,0,0.1,0c0.1,0,0.1,0,0.1,0c0.1,0,0.2,0,0.2-0.1c0,0,0.1-0.1,0.1-0.3c0-0.1,0-0.1-0.1-0.1h-0.9
		c-0.1,0-0.1,0-0.1,0.1V30.9z M26.4,37.5c-0.3,0.2-0.6,0.3-1,0.5c0,0,0,0,0,0s0,0,0,0c0.7,0,1.5,0,2.6,0h1.6c0,0,0,0,0,0
		c0,0,0,0,0,0c-0.6-0.3-1.1-0.5-1.4-0.6c-0.2-0.1-0.3-0.2-0.4-0.4c-0.1-0.2-0.1-0.4,0-0.5c0-0.1,0-0.1-0.1-0.1h-1
		c-0.1,0-0.1,0-0.1,0.1c0.1,0.2,0.1,0.4,0,0.6S26.6,37.4,26.4,37.5z M26.4,34.4v0.2c0,0.1,0,0.1,0.1,0.1h1.3c0.1,0,0.1,0,0.1-0.1
		v-0.2c0-0.1,0-0.1-0.1-0.1h-1.3C26.5,34.3,26.4,34.3,26.4,34.4z M28.8,30.7v0.2c0,0.1,0,0.2,0,0.2c0,0,0.1,0,0.2,0c0,0,0.1,0,0.1,0
		c0.1,0,0.1,0,0.1,0s0.1,0,0.1,0c0.1,0,0.1,0,0.1,0c0.1,0,0.2,0,0.2,0c0,0,0.1-0.1,0.1-0.3c0-0.1,0-0.1-0.1-0.1h-0.9
		C28.8,30.6,28.8,30.7,28.8,30.7z"/>
	<path d="M35.4,31.3c-0.2,0-0.4-0.1-0.5-0.2c-0.1-0.2-0.2-0.3-0.2-0.6v-0.2c0-0.2,0.1-0.4,0.2-0.6s0.3-0.2,0.5-0.2h0.4
		c0.1,0,0.1,0,0.1-0.1v-1.2c0-0.2,0.1-0.4,0.2-0.6c0.2-0.2,0.3-0.2,0.6-0.2h0.5c0.2,0,0.4,0.1,0.6,0.2c0.2,0.2,0.2,0.3,0.2,0.6v1.2
		c0,0.1,0,0.1,0.1,0.1h0.4c0.2,0,0.4,0.1,0.6,0.2c0.2,0.2,0.2,0.3,0.2,0.6v0.2c0,0.2-0.1,0.4-0.2,0.6c-0.2,0.2-0.3,0.2-0.6,0.2H38
		c-0.1,0-0.1,0-0.1,0.1v1.9c0,0.1,0,0.1,0.1,0.1c0,0,0.1,0,0.1,0c0.1,0,0.1,0,0.1,0c0.2-0.1,0.4,0,0.5,0.1c0.2,0.1,0.3,0.3,0.3,0.5
		l0,0.3c0,0.2,0,0.4-0.1,0.6c-0.1,0.2-0.3,0.3-0.5,0.4c0,0-0.1,0-0.2,0.1s-0.2,0.1-0.3,0.1c-0.1,0-0.1,0.1-0.1,0.1v1.9
		c0,0.6,0,1.1,0,1.4c0,0.3-0.1,0.5-0.3,0.7c-0.1,0.2-0.3,0.3-0.5,0.3c-0.2,0-0.6,0.1-1,0.1c-0.2,0-0.3,0-0.5,0
		c-0.2,0-0.4-0.1-0.6-0.3c-0.2-0.2-0.2-0.4-0.3-0.6l0-0.2c0-0.2,0.1-0.4,0.2-0.5s0.3-0.2,0.5-0.2c0,0,0.1,0,0.2,0c0.1,0,0.1,0,0.1,0
		c0.1,0,0.1,0,0.1-0.1c0,0,0-0.2,0-0.5v-1.7c0-0.1,0-0.1-0.1-0.1c0,0-0.1,0-0.1,0c-0.1,0-0.1,0-0.1,0c-0.2,0-0.4,0-0.6-0.1
		c-0.2-0.1-0.3-0.3-0.3-0.5l0-0.4c0-0.2,0.1-0.4,0.2-0.6c0.1-0.2,0.3-0.3,0.5-0.3c0,0,0.1,0,0.2,0s0.1,0,0.2,0
		c0.1,0,0.1-0.1,0.1-0.1v-2.3c0-0.1,0-0.1-0.1-0.1H35.4z M44.9,34c-0.1,0-0.1,0-0.1,0.1c0.4,1.4,1.1,2.6,2,3.7
		c0.1,0.2,0.2,0.4,0.3,0.6c0,0.2,0,0.4-0.2,0.6l-0.3,0.4c-0.1,0.2-0.3,0.3-0.5,0.3s-0.4,0-0.6-0.2c-0.6-0.6-1.2-1.4-1.7-2.3
		s-0.9-2-1.2-3.1c0-0.1-0.1-0.1-0.1-0.1h-0.7c-0.1,0-0.1,0-0.1,0.1c-0.1,2-0.6,3.8-1.3,5.2c-0.1,0.2-0.2,0.3-0.4,0.4s-0.4,0-0.6-0.1
		L39,39.3c-0.2-0.1-0.3-0.3-0.4-0.5s0-0.4,0-0.6c0.4-0.9,0.7-1.8,0.8-2.8c0.2-1,0.2-2.5,0.2-4.3v-2.5c0-0.2,0.1-0.4,0.2-0.6
		c0.1-0.2,0.3-0.2,0.5-0.2h5.4c0.2,0,0.4,0.1,0.6,0.2c0.2,0.2,0.2,0.3,0.2,0.6v4.6c0,0.2-0.1,0.4-0.2,0.6c-0.2,0.2-0.3,0.2-0.6,0.2
		H44.9z M44.6,32.1v-2.3c0-0.1,0-0.1-0.1-0.1h-2.5c-0.1,0-0.1,0-0.1,0.1v2.1v0.2c0,0.1,0,0.1,0.1,0.1h2.5
		C44.5,32.2,44.6,32.2,44.6,32.1z"/>
	<path d="M55.1,39.5c-1.4,0-2.4-0.4-3.1-1.1c-0.7-0.7-1-1.9-1-3.6c0-0.7,0-1.8,0.1-3.4c0.1-1.9,0.1-2.8,0.1-2.8
		c0-0.2,0.1-0.4,0.2-0.6c0.2-0.2,0.3-0.2,0.6-0.2h0.7c0.2,0,0.4,0.1,0.6,0.2c0.2,0.2,0.2,0.3,0.2,0.6c0,0.6,0,1.5-0.1,2.7
		c-0.1,1.6-0.1,2.7-0.1,3.5c0,0.9,0.1,1.6,0.4,2c0.3,0.4,0.7,0.6,1.4,0.6c0.7,0,1.4-0.2,1.9-0.7c0.6-0.5,1.2-1.3,1.7-2.5
		c0.1-0.2,0.3-0.3,0.5-0.4c0.2-0.1,0.4-0.1,0.6,0l0.5,0.2c0.2,0.1,0.3,0.2,0.4,0.4c0.1,0.2,0.1,0.4,0,0.6c-0.7,1.5-1.5,2.7-2.4,3.4
		C57.4,39.2,56.3,39.5,55.1,39.5z"/>
	<path d="M63.9,31.4c-0.2,0-0.4-0.1-0.6-0.2c-0.2-0.2-0.2-0.3-0.2-0.6v-0.5c0-0.2,0.1-0.4,0.2-0.6s0.3-0.2,0.6-0.2
		c3.1,0,6.4-0.3,9.7-0.6c0.2,0,0.4,0,0.6,0.2s0.3,0.3,0.3,0.5l0,0.4c0,0.2,0,0.4-0.2,0.6s-0.3,0.3-0.5,0.3c-1.7,0.3-2.9,0.7-3.7,1.4
		c-0.8,0.6-1.3,1.4-1.3,2.2c0,0.7,0.3,1.3,0.9,1.8c0.6,0.5,1.4,0.8,2.5,1c0.2,0,0.4,0.1,0.5,0.3c0.1,0.2,0.2,0.4,0.2,0.6l-0.1,0.5
		c0,0.2-0.1,0.4-0.3,0.5s-0.4,0.2-0.6,0.2c-1.7-0.2-3.1-0.7-4.1-1.5c-1-0.8-1.5-1.8-1.5-3c0-0.7,0.2-1.3,0.6-1.9
		c0.4-0.6,0.9-1.1,1.6-1.6c0,0,0,0,0,0s0,0,0,0C67.1,31.3,65.6,31.4,63.9,31.4z"/>
	<path d="M79.1,35.5c-0.7-0.5-1.2-0.8-1.3-1c-0.2-0.2-0.2-0.6-0.2-1.1c0-0.5,0.1-0.8,0.2-1c0.2-0.2,0.7-0.6,1.5-1.1
		c1-0.7,2.5-1.8,4.4-3.3c0.2-0.1,0.4-0.2,0.6-0.2c0.2,0,0.4,0.1,0.6,0.3l0.4,0.5c0.1,0.2,0.2,0.3,0.2,0.6c0,0.2-0.1,0.4-0.3,0.5
		c-2.1,1.6-3.5,2.7-4.3,3.1c-0.3,0.2-0.6,0.4-0.6,0.4c-0.1,0.1-0.1,0.1-0.1,0.2s0,0.2,0.1,0.2s0.3,0.2,0.6,0.4
		c0.8,0.6,2.4,1.8,4.8,3.7c0.2,0.1,0.3,0.3,0.3,0.5s-0.1,0.4-0.2,0.6l-0.5,0.5c-0.2,0.2-0.3,0.2-0.6,0.3c-0.2,0-0.4-0.1-0.6-0.2
		C81.8,37.5,80.2,36.2,79.1,35.5z"/>
	<path d="M91,39.3c-0.2-0.1-0.4-0.2-0.5-0.4c-0.1-0.2-0.1-0.4,0-0.6c0.8-2.2,1.4-4.5,2-6.7c0-0.1,0-0.1-0.1-0.1c-0.5,0-0.9,0-1.1,0
		c-0.2,0-0.4-0.1-0.6-0.2c-0.2-0.2-0.2-0.3-0.2-0.6v-0.3c0-0.2,0.1-0.4,0.2-0.6c0.2-0.2,0.3-0.2,0.6-0.3c0.7,0,1.2,0,1.6-0.1
		c0.1,0,0.1,0,0.1-0.1l0.3-1.2c0-0.2,0.1-0.4,0.3-0.5c0.2-0.1,0.4-0.2,0.6-0.2l0.6,0c0.2,0,0.4,0.1,0.5,0.3s0.2,0.4,0.1,0.6
		l-0.2,0.9c0,0.1,0,0.1,0.1,0.1c0.9-0.1,1.8-0.2,2.6-0.3c0.2,0,0.4,0,0.6,0.2c0.2,0.1,0.3,0.3,0.3,0.5l0,0.3c0,0.2,0,0.4-0.2,0.6
		c-0.1,0.2-0.3,0.3-0.5,0.3c-1,0.1-2.1,0.2-3.3,0.3c-0.1,0-0.1,0-0.1,0.1c-0.6,2.6-1.3,5-2.2,7.4c-0.1,0.2-0.2,0.4-0.4,0.5
		c-0.2,0.1-0.4,0.1-0.6,0.1L91,39.3z M101.6,38.1c0,0.2,0,0.4-0.1,0.6c-0.1,0.2-0.3,0.3-0.5,0.4c-0.6,0.1-1.3,0.2-2,0.2
		c-1.4,0-2.3-0.2-2.9-0.5c-0.6-0.4-0.9-0.9-0.9-1.6c0-0.6,0.3-1.3,0.8-1.9c0.1-0.2,0.3-0.3,0.6-0.3s0.5,0,0.7,0.1l0.3,0.1
		c0.2,0.1,0.3,0.2,0.3,0.4c0,0.2,0,0.4-0.1,0.5c-0.2,0.2-0.2,0.4-0.2,0.6c0,0.2,0.1,0.4,0.4,0.5c0.2,0.1,0.7,0.2,1.3,0.2
		c0.5,0,1.1-0.1,1.8-0.2c0.2,0,0.4,0,0.6,0.1c0.2,0.1,0.3,0.3,0.3,0.5L101.6,38.1z M100.5,31.8c0.2,0,0.4,0.1,0.6,0.2
		c0.2,0.2,0.2,0.3,0.2,0.6v0.3c0,0.2-0.1,0.4-0.2,0.6s-0.3,0.2-0.6,0.3c-1.2,0-2.4,0.1-3.5,0.3c-0.2,0-0.4,0-0.6-0.1
		c-0.2-0.1-0.3-0.3-0.3-0.5l0-0.3c0-0.2,0-0.4,0.2-0.6s0.3-0.3,0.5-0.3C98.1,31.9,99.3,31.8,100.5,31.8z M100.2,29.4
		c-0.2,0.1-0.4,0.1-0.6,0c-0.2-0.1-0.3-0.2-0.4-0.4c0-0.1-0.1-0.2-0.2-0.4c-0.1-0.2-0.1-0.3-0.2-0.4c-0.1-0.2-0.1-0.4,0-0.6
		c0.1-0.2,0.2-0.3,0.4-0.4c0.2-0.1,0.4-0.1,0.6,0c0.2,0.1,0.3,0.2,0.4,0.4c0,0.1,0.1,0.2,0.2,0.4c0.1,0.2,0.1,0.3,0.2,0.4
		c0.1,0.2,0.1,0.4,0,0.6C100.5,29.2,100.4,29.3,100.2,29.4z M102.3,27.5c0,0.1,0.1,0.2,0.2,0.4s0.2,0.3,0.2,0.4
		c0.1,0.2,0.1,0.4,0,0.6s-0.2,0.3-0.4,0.4s-0.4,0.1-0.6,0c-0.2-0.1-0.3-0.2-0.4-0.4c-0.1-0.2-0.2-0.4-0.4-0.8
		c-0.1-0.2-0.1-0.4,0-0.6c0.1-0.2,0.2-0.3,0.4-0.4s0.4-0.1,0.6,0S102.2,27.3,102.3,27.5z"/>
	<path d="M106.2,31.7c-0.2,0-0.4-0.1-0.6-0.2c-0.2-0.2-0.2-0.4-0.2-0.6v-0.3c0-0.2,0.1-0.4,0.2-0.5c0.2-0.1,0.3-0.2,0.6-0.2
		c1.3,0,2.8-0.1,4.5-0.2c0.1,0,0.1,0,0.1-0.1c0-0.1-0.1-0.2-0.1-0.5c-0.1-0.3-0.1-0.5-0.2-0.6c0-0.2,0-0.4,0.1-0.6s0.3-0.3,0.5-0.3
		l0.6,0c0.2,0,0.4,0,0.6,0.2c0.2,0.1,0.3,0.3,0.4,0.5c0.1,0.3,0.2,0.7,0.3,1.1c0,0.1,0.1,0.1,0.2,0.1c0.9-0.1,1.8-0.3,2.5-0.4
		c0.2,0,0.4,0,0.6,0.1s0.3,0.3,0.3,0.5l0,0.3c0,0.2,0,0.4-0.1,0.6c-0.1,0.2-0.3,0.3-0.5,0.3c-0.7,0.1-1.4,0.2-2.2,0.3
		c-0.1,0-0.1,0.1-0.1,0.1c0.3,0.8,0.7,1.5,1.1,2.2c0.1,0.2,0.1,0.4,0.1,0.6s-0.2,0.4-0.3,0.5L114,35c-0.4,0.3-0.9,0.3-1.4,0.1
		c-0.7-0.3-1.5-0.4-2.3-0.4c-1.2,0-1.8,0.4-1.8,1.2c0,1.1,1,1.6,3.1,1.6c0.6,0,1.3-0.1,2.2-0.2c0.2,0,0.4,0,0.6,0.1s0.3,0.3,0.3,0.5
		l0.1,0.4c0,0.2,0,0.4-0.1,0.6c-0.1,0.2-0.3,0.3-0.5,0.3c-0.9,0.2-1.7,0.2-2.6,0.2c-1.8,0-3.1-0.3-4-0.9c-0.9-0.6-1.3-1.5-1.3-2.6
		c0-0.9,0.3-1.7,1-2.3c0.7-0.6,1.6-0.9,2.7-0.9c0.8,0,1.5,0.1,2.2,0.4h0v0c-0.2-0.5-0.5-1.1-0.7-1.6c0-0.1-0.1-0.1-0.2-0.1
		C109.6,31.6,107.9,31.7,106.2,31.7z"/>
	<path d="M123.8,38.9c-1,0-1.8-0.5-2.5-1.5c-0.7-1-1-2.5-1-4.3c0-1.2,0.1-2.4,0.3-3.4c0-0.2,0.1-0.4,0.3-0.5
		c0.2-0.1,0.4-0.2,0.6-0.2L122,29c0.2,0,0.4,0.1,0.5,0.3c0.1,0.2,0.2,0.3,0.1,0.6c-0.2,1.1-0.3,2.1-0.3,3.2c0,0.7,0.1,1.4,0.2,2
		c0.1,0.6,0.3,1,0.5,1.2c0.2,0.3,0.4,0.4,0.5,0.4c0.2,0,0.4-0.2,0.6-0.6s0.4-0.9,0.6-1.7c0.1-0.2,0.2-0.4,0.4-0.5
		c0.2-0.1,0.4-0.2,0.6-0.1l0.5,0.1c0.2,0,0.4,0.2,0.5,0.3c0.1,0.2,0.2,0.4,0.1,0.6C126.3,37.5,125.2,38.9,123.8,38.9z M129.5,36.6
		c-0.2-2.2-0.8-4.3-1.6-6.1c-0.1-0.2-0.1-0.4,0-0.6s0.2-0.3,0.4-0.4l0.6-0.2c0.2-0.1,0.4-0.1,0.6,0s0.4,0.2,0.5,0.4
		c0.9,2,1.5,4.2,1.7,6.7c0,0.2,0,0.4-0.2,0.6s-0.3,0.2-0.5,0.3l-0.6,0c-0.2,0-0.4-0.1-0.6-0.2C129.6,37,129.5,36.8,129.5,36.6z"/>
</g>
</svg>
