<?xml version="1.0" encoding="UTF-8"?>
<svg id="_レイヤー_2" data-name="レイヤー 2" xmlns="http://www.w3.org/2000/svg" viewBox="0 0 15.44 17.28">
  <defs>
    <style>
      .cls-1 {
        fill: #fff;
        stroke-width: 0px;
      }
    </style>
  </defs>
  <g id="m">
    <path class="cls-1" d="m15.33.89c-.1-.09-.24-.1-.36-.04-.02,0-1.53.82-2.96.82s-3.01-.79-3.04-.8c0,0,0,0,0,0-.07-.04-1.74-.87-3.33-.87s-3.06.8-3.25.89c-.15.03-.26.16-.26.31v13.51h-.58c-.11,0-.21.06-.27.15L.05,16.78c-.06.1-.07.22-.01.33.06.1.16.17.28.17h4.92c.12,0,.22-.06.28-.17.06-.1.05-.23-.01-.33l-1.23-1.92c-.06-.09-.16-.15-.27-.15h-1.23v-5.14c.34-.17,1.63-.78,2.87-.78,1.42,0,3,.79,3.04.8,0,0,0,0,0,0,.07.04,1.74.87,3.33.87s3.2-.87,3.26-.9c.14-.08.2-.25.14-.4l-1.51-3.69,1.52-4.24c.04-.12,0-.26-.09-.35ZM3.83,15.36l.82,1.28H.91l.82-1.28h2.1ZM13.26,5.38c-.03.07-.02.16,0,.23l1.45,3.53c-.49.23-1.62.7-2.7.7-1.43,0-3.01-.79-3.04-.8,0,0,0,0,0,0-.07-.04-1.74-.87-3.33-.87-1.14,0-2.29.44-2.87.71v-3c.32-.12,1.28-.46,2.19-.46.18,0,.32-.14.32-.32s-.14-.32-.32-.32c-.86,0-1.72.25-2.19.41v-1.02c.34-.17,1.64-.78,2.87-.78,1.43,0,3.02.79,3.04.8.16.08.35.02.43-.14.08-.16.02-.35-.14-.43-.07-.04-1.74-.87-3.33-.87-1.14,0-2.29.44-2.87.71V1.42c.34-.17,1.64-.78,2.87-.78,1.42,0,3,.79,3.04.8,0,0,0,0,0,0,.07.04,1.74.87,3.33.87.96,0,1.92-.31,2.55-.57l-1.3,3.64Z"/>
  </g>
</svg>