<?xml version="1.0" encoding="UTF-8"?>
<svg id="_レイヤー_2" data-name="レイヤー 2" xmlns="http://www.w3.org/2000/svg" viewBox="0 0 31.19 20.95">
  <defs>
    <style>
      .cls-1 {
        fill: #f08732;
        stroke-width: 0px;
      }
    </style>
  </defs>
  <g id="_モバイル" data-name="モバイル">
    <g>
      <path class="cls-1" d="m8.14,20.95c-.2,0-.41-.07-.58-.2-2.25-1.76-4.63-3.39-7.09-4.85-.45-.26-.6-.84-.33-1.29.26-.45.84-.6,1.29-.33,2.53,1.49,4.99,3.17,7.3,4.99.41.32.48.92.16,1.33-.19.24-.46.36-.74.36Z"/>
      <path class="cls-1" d="m17.5,12.09c-.31,0-.61-.15-.79-.43L11.1,2.97c-.28-.44-.16-1.02.28-1.31.44-.28,1.02-.16,1.31.28l5.6,8.69c.28.44.16,1.02-.28,1.31-.16.1-.34.15-.51.15Z"/>
      <path class="cls-1" d="m30.25,7.39c-.44,0-.83-.31-.93-.76l-1.11-5.5c-.1-.51.23-1.01.74-1.11.51-.1,1.01.23,1.11.74l1.11,5.5c.1.51-.23,1.01-.74,1.11-.06.01-.13.02-.19.02Z"/>
    </g>
  </g>
</svg>