<?xml version="1.0" encoding="UTF-8"?>
<svg id="_レイヤー_2" data-name="レイヤー 2" xmlns="http://www.w3.org/2000/svg" viewBox="0 0 40.95 46.76">
  <defs>
    <style>
      .cls-1 {
        fill: #fff;
        stroke-width: 0px;
      }
    </style>
  </defs>
  <g id="pc">
    <g>
      <path class="cls-1" d="m40.51,38.99s-4.79-2.34-4.79-9.27c0-.03,0-.06,0-.09,0-.02,0-.04,0-.06v-5.63c0-8.39-6.82-15.21-15.21-15.21s-15.21,6.82-15.21,15.21v5.28c0,.06,0,.12.02.18-.05.1-.08.21-.08.33,0,5.99-3.47,8.5-4.51,9.12-.41.03-.73.36-.73.77,0,.02,0,.03,0,.05,0,.12.01.25.07.37.13.28.41.45.7.45.11,0,.22-.02.33-.07,0,0,.01,0,.02-.01h12.49c.29,3.57,3.29,6.38,6.93,6.38s6.64-2.82,6.93-6.38h2.75c.43,0,.78-.35.78-.78s-.35-.78-.78-.78H3.25c1.61-1.56,3.54-4.41,3.54-9.11,0-.06,0-.12-.02-.18.05-.1.08-.21.08-.33v-5.28c0-7.53,6.13-13.66,13.66-13.66s13.66,6.13,13.66,13.66v5.63s0,.06,0,.09c0,.02,0,.04,0,.06,0,4.71,1.93,7.56,3.54,9.11h-2.91c-.43,0-.78.35-.78.78s.35.78.78.78h5.02s.02,0,.02.01c.11.05.22.07.33.07.29,0,.57-.16.7-.45.18-.39.02-.85-.37-1.03Zm-14.58,1.39c-.29,2.71-2.58,4.83-5.37,4.83s-5.08-2.12-5.37-4.83h10.74Z"/>
      <path class="cls-1" d="m24.17,3.62c0-2-1.62-3.62-3.62-3.62s-3.62,1.62-3.62,3.62,1.62,3.62,3.62,3.62,3.62-1.62,3.62-3.62Zm-5.69,0c0-1.14.93-2.07,2.07-2.07s2.07.93,2.07,2.07-.93,2.07-2.07,2.07-2.07-.93-2.07-2.07Z"/>
      <path class="cls-1" d="m16.61,13.38c-.11.03-1.06.29-1.83.82-.35.25-.44.73-.19,1.08.15.22.39.33.64.33.15,0,.31-.05.45-.14.54-.38,1.31-.58,1.33-.59.41-.11.66-.53.56-.95-.11-.42-.53-.66-.95-.56Z"/>
      <path class="cls-1" d="m13.28,17.67c.33-.28.37-.76.1-1.09-.28-.33-.76-.37-1.09-.1-.09.08-2.21,1.87-2.64,4.52-.43,2.65-.02,7.66,0,7.87.03.41.37.71.77.71.02,0,.04,0,.06,0,.43-.03.75-.41.71-.84,0-.05-.41-5.03,0-7.49.33-2.06,2.08-3.56,2.11-3.58Z"/>
    </g>
  </g>
</svg>