<?xml version="1.0" encoding="UTF-8"?>
<svg id="_レイヤー_2" data-name="レイヤー 2" xmlns="http://www.w3.org/2000/svg" viewBox="0 0 50 50">
  <defs>
    <style>
      .cls-1 {
        fill: #70c36f;
      }

      .cls-1, .cls-2 {
        stroke-width: 0px;
      }

      .cls-2 {
        fill: #fff;
      }
    </style>
  </defs>
  <g id="_モバイル" data-name="モバイル">
    <g>
      <circle class="cls-1" cx="25" cy="25" r="25"/>
      <g>
        <path class="cls-2" d="m41.67,23.54c0-7.47-7.49-13.54-16.69-13.54s-16.69,6.08-16.69,13.54c0,6.7,5.94,12.3,13.96,13.36.54.12,1.28.36,1.47.82.17.42.11,1.08.05,1.51,0,0-.2,1.18-.24,1.43-.07.42-.34,1.65,1.45.9,1.78-.75,9.61-5.66,13.11-9.69h0c2.42-2.65,3.58-5.34,3.58-8.33Z"/>
        <g>
          <path class="cls-1" d="m36.12,27.86c.18,0,.32-.14.32-.32v-1.18c0-.18-.14-.32-.32-.32h-3.19v-1.23h3.19c.18,0,.32-.14.32-.32v-1.18c0-.18-.14-.32-.32-.32h-3.19v-1.23h3.19c.18,0,.32-.14.32-.32v-1.18c0-.18-.14-.32-.32-.32h-4.69c-.18,0-.32.14-.32.32h0v7.28h0c0,.18.14.32.32.32h4.69Z"/>
          <path class="cls-1" d="m18.78,27.86c.18,0,.32-.14.32-.32v-1.18c0-.18-.14-.32-.32-.32h-3.19v-5.78c0-.18-.14-.32-.32-.32h-1.18c-.18,0-.32.14-.32.32v7.28h0c0,.18.14.32.32.32h4.69Z"/>
          <rect class="cls-1" x="20.1" y="19.94" width="1.82" height="7.92" rx=".32" ry=".32"/>
          <path class="cls-1" d="m29.66,19.94h-1.18c-.18,0-.32.14-.32.32v4.33l-3.33-4.5s-.02-.02-.03-.03c0,0,0,0,0,0,0,0-.01-.01-.02-.02,0,0,0,0,0,0,0,0-.01,0-.02-.01,0,0,0,0,0,0,0,0-.01,0-.02-.01,0,0,0,0,0,0,0,0-.01,0-.02,0,0,0,0,0-.01,0,0,0-.01,0-.02,0,0,0,0,0-.01,0,0,0-.01,0-.02,0,0,0,0,0-.01,0,0,0-.01,0-.02,0,0,0,0,0-.01,0,0,0-.01,0-.02,0,0,0-.01,0-.02,0,0,0,0,0-.01,0h-1.18c-.18,0-.32.14-.32.32v7.28c0,.18.14.32.32.32h1.18c.18,0,.32-.14.32-.32v-4.32l3.34,4.51s.05.06.08.08c0,0,0,0,0,0,0,0,.01,0,.02.01,0,0,0,0,0,0,0,0,.01,0,.02,0,0,0,.01,0,.02,0,0,0,0,0,.01,0,0,0,.01,0,.02,0,0,0,0,0,0,0,.03,0,.05.01.08.01h1.18c.18,0,.32-.14.32-.32v-7.28c0-.18-.14-.32-.32-.32Z"/>
        </g>
      </g>
    </g>
  </g>
</svg>