<?xml version="1.0" encoding="UTF-8"?>
<svg id="_レイヤー_2" data-name="レイヤー 2" xmlns="http://www.w3.org/2000/svg" viewBox="0 0 72.76 65">
  <defs>
    <style>
      .cls-1 {
        fill: #333;
        stroke-width: 0px;
      }
    </style>
  </defs>
  <g id="pc">
    <g>
      <path class="cls-1" d="m6.06,52.47c.17.09.36.13.55.13.13,0,.26-.02.38-.06.24-.08.3-.1,6.75-4.96l9.93,16.67c.21.35.59.58,1,.59,3,.11,5.06.15,6.48.15,2.96,0,3.17-.2,3.46-.48.24-.23.38-.56.38-.89,0-.42,0-.64-9.4-16.69h34.24c.39,0,.77-.19.99-.51.23-.32.28-.74.15-1.11,0,0-2.03-5.72-4.51-12.71,1.49-.86,4.43-3.27,2.76-8.3-1.24-3.73-4.05-5.67-7.61-5.25-.76-2.12-1.43-3.96-1.99-5.5-.64-1.77-1.18-3.24-1.57-4.26-.2-.52-.36-.93-.47-1.21-.16-.4-.59-1.46-1.69-1.11-.25.08-.53.17-35.84,26.09l-8.88.43c-.38.02-.72.21-.94.52s-.27.7-.16,1.06c0,0,1.31,4.15,2.65,8.31q2.82,8.8,3.36,9.07Zm25.76,10.09c-1.57.01-4.04-.04-6.4-.12l-9.23-15.5h6.57c2.99,5.1,7.27,12.45,9.06,15.62Zm25.09-37.48c1.01,3.04-.33,4.55-1.28,5.21-.45-1.25-.9-2.52-1.35-3.79-.65-1.81-1.25-3.5-1.81-5.06,1.61-.04,3.47.67,4.45,3.65Zm-46.38,10.41c.24-.01.47-.09.66-.23,8.52-6.25,29.33-21.51,34.52-25.24,1.83,4.83,7.94,21.95,12.39,34.5H14.75s-2.13-6.44-2.13-6.44c-.21-.64-.9-.98-1.54-.77-.64.21-.98.9-.77,1.54l2.2,6.63c-1.73,1.3-3.93,2.96-5.3,3.97-.91-2.73-2.84-8.77-4.36-13.58l7.67-.37Z"/>
      <path class="cls-1" d="m52.91,5.25c.24,0,.49-.07.7-.23l3.95-2.82c.55-.39.67-1.15.28-1.7s-1.15-.67-1.7-.28l-3.95,2.82c-.55.39-.67,1.15-.28,1.7.24.33.61.51.99.51Z"/>
      <path class="cls-1" d="m71.56,44.51l-5.42-.08h-.02c-.66,0-1.2.53-1.22,1.2,0,.67.53,1.22,1.2,1.23l5.42.08h.02c.66,0,1.2-.53,1.22-1.2,0-.67-.53-1.22-1.2-1.23Z"/>
    </g>
  </g>
</svg>