<?xml version="1.0" encoding="UTF-8"?>
<svg id="_レイヤー_2" data-name="レイヤー 2" xmlns="http://www.w3.org/2000/svg" viewBox="0 0 73.48 53.59">
  <defs>
    <style>
      .cls-1 {
        fill: #6ab539;
        stroke-width: 0px;
      }
    </style>
  </defs>
  <g id="pc">
    <g>
      <path class="cls-1" d="m1.19,20.76h10.57v30.32h-4.91c-.66,0-1.19.53-1.19,1.19s.53,1.19,1.19,1.19h5.54c.17.09.35.15.56.15s.39-.06.56-.15h52.85c.66,0,1.19-.53,1.19-1.19s-.53-1.19-1.19-1.19h-4.91v-30.39h10.8c.41,0,.77-.21.99-.53.31-.39.35-.94.06-1.38L61.37.54c-.22-.34-.59-.54-.99-.54H20.73c-.66,0-1.19.53-1.19,1.19s.53,1.19,1.19,1.19h39.01l10.42,15.94H24.35c-.66,0-1.19.53-1.19,1.19s.53,1.19,1.19,1.19h34.72v30.39h-25.61v-18.99c0-.66-.53-1.19-1.19-1.19h-12.09c-.66,0-1.19.53-1.19,1.19v18.99h-4.86v-30.39h1.46c.66,0,1.19-.53,1.19-1.19s-.53-1.19-1.19-1.19h-2.64c-.15,0-.28.03-.41.08-.03,0-.05,0-.08,0H3.36L13.87,1.97c.35-.55.19-1.29-.36-1.64-.55-.35-1.29-.19-1.64.36L.19,18.93c-.23.37-.25.83-.04,1.21.21.38.61.62,1.04.62Zm20.17,12.51h9.72v17.8h-9.72v-17.8Z"/>
      <path class="cls-1" d="m53.07,38.33c.66,0,1.19-.53,1.19-1.19v-11.87c0-.66-.53-1.19-1.19-1.19h-11.87c-.66,0-1.19.53-1.19,1.19v11.87c0,.66.53,1.19,1.19,1.19h11.87Zm-10.68-11.87h9.5v3.5h-6.37c-.66,0-1.19.53-1.19,1.19s.53,1.19,1.19,1.19h6.37v3.62h-9.5v-9.5Z"/>
    </g>
  </g>
</svg>