<?xml version="1.0" encoding="UTF-8"?>
<svg id="_レイヤー_2" data-name="レイヤー 2" xmlns="http://www.w3.org/2000/svg" viewBox="0 0 18 12.75">
  <defs>
    <style>
      .cls-1 {
        fill: #f08732;
        stroke-width: 0px;
      }
    </style>
  </defs>
  <g id="pc">
    <path class="cls-1" d="m.26,0s-.01,0-.02,0c-.01,0-.03,0-.04.01,0,0-.01,0-.02,0-.01,0-.02.01-.04.02,0,0,0,0-.01,0-.02.01-.03.02-.04.04,0,0,0,0,0,0,0,.01-.02.02-.03.03,0,0,0,.01-.01.02,0,.01-.01.02-.02.03,0,0,0,.01,0,.02,0,0,0,0,0,0,0,.01,0,.02,0,.03,0,0,0,0,0,.01,0,.02,0,.04,0,.06,0,0,0,0,0,0v12.11c0,.18.14.32.32.32h17.36c.18,0,.32-.14.32-.32V.32s0,0,0,0c0-.02,0-.04,0-.06,0,0,0,0,0-.01,0-.01,0-.02,0-.03,0,0,0,0,0,0,0,0,0-.01,0-.02,0-.01-.01-.02-.02-.03,0,0,0-.01,0-.02,0-.01-.02-.02-.03-.03,0,0,0,0,0,0-.01-.01-.03-.03-.04-.04,0,0,0,0-.01,0-.01,0-.02-.01-.04-.02,0,0-.01,0-.02,0-.01,0-.03,0-.04-.01,0,0-.01,0-.02,0-.02,0-.04,0-.06,0H.32s-.04,0-.06,0Zm16.53.63l-6.17,5.05v-.22c0-.18-.14-.32-.32-.32h-2.6c-.18,0-.32.14-.32.32v.2L1.22.64h15.57Zm-6.8,5.15v1.99h-1.96v-1.99h1.96ZM.64.99l6.74,5.5v1.6c0,.18.14.32.32.32h2.6c.18,0,.32-.14.32-.32v-1.58L17.36.99v11.11H.64V.99Z"/>
  </g>
</svg>