<?xml version="1.0" encoding="UTF-8"?>
<svg id="_レイヤー_2" data-name="レイヤー 2" xmlns="http://www.w3.org/2000/svg" viewBox="0 0 38.7 47.1">
  <defs>
    <style>
      .cls-1 {
        fill: #333;
        stroke-width: 0px;
      }
    </style>
  </defs>
  <g id="pc">
    <g>
      <path class="cls-1" d="M38.7,39.31s0-.08,0-.11V5.11c0-.46-.37-.82-.82-.82h-3.57V.82c0-.46-.37-.82-.82-.82H.82c-.46,0-.82.37-.82.82v41.16c0,.46.37.82.82.82h3.57v3.46c0,.46.37.82.82.82h26.39c.2,0,.38-.07.53-.19.06,0,.12,0,.18-.02,5.43-1.29,6.34-7.33,6.37-7.58ZM4.4,5.11v36.05H1.65V1.65h31.01v2.64H5.22c-.46,0-.82.37-.82.82ZM31.61,38.56c-.46,0-.82.37-.82.82v6.06H6.05V5.93h31.01v32.63h-5.44ZM32.44,45.14v-4.93h4.35c-.47,1.5-1.64,4.04-4.35,4.93Z"/>
      <path class="cls-1" d="M29.91,20.11H13.36c-.46,0-.82.37-.82.82s.37.82.82.82h16.55c.46,0,.82-.37.82-.82s-.37-.82-.82-.82Z"/>
      <path class="cls-1" d="M29.91,28.93H13.36c-.46,0-.82.37-.82.82s.37.82.82.82h16.55c.46,0,.82-.37.82-.82s-.37-.82-.82-.82Z"/>
      <path class="cls-1" d="M13.36,17.35h11.54c.46,0,.82-.37.82-.82s-.37-.82-.82-.82h-11.54c-.46,0-.82.37-.82.82s.37.82.82.82Z"/>
      <path class="cls-1" d="M13.4,26.17h16.46c.46,0,.82-.37.82-.82s-.37-.82-.82-.82H13.4c-.46,0-.82.37-.82.82s.37.82.82.82Z"/>
    </g>
  </g>
</svg>