<?xml version="1.0" encoding="UTF-8"?>
<svg id="_レイヤー_2" data-name="レイヤー 2" xmlns="http://www.w3.org/2000/svg" viewBox="0 0 38.11 30.15">
  <defs>
    <style>
      .cls-1 {
        fill: #db1c24;
        stroke-width: 0px;
      }
    </style>
  </defs>
  <g id="_モバイル" data-name="モバイル">
    <g>
      <path class="cls-1" d="m24.54,11.5c1.57-1.9,3.09-3.99,3.09-6.85,0-2.56-2.01-4.64-4.48-4.64-1.79,0-3.26.85-4.14,2.32-.88-1.48-2.35-2.32-4.13-2.32-2.47,0-4.48,2.08-4.48,4.64,0,2.86,1.53,4.95,3.1,6.85,1.01,1.22,2.65,2.57,3.85,3.57.55.45,1.02.84,1.24,1.06.11.11.25.17.4.17h.03s0,0,.01,0c.14,0,.27-.05.37-.14l2.02-1.71c1.02-.85,2.29-1.95,3.12-2.96Z"/>
      <path class="cls-1" d="m3.78,5.51c-1.12-1.01-3-.79-3.08-.78-.28.04-.5.27-.51.56L0,11.64s0,.1.01.14l2.08,9.22c.02.11.08.2.15.28,3.4,3.44,6.51,6.14,7.34,6.85l-.04,1.2c0,.32.24.59.56.59,0,0,.01,0,.02,0,.31,0,.57-.25.58-.56l.04-1.48c0-.18-.07-.35-.21-.46-.03-.03-3.49-2.94-7.36-6.84L1.16,11.6l.17-5.74c.52.01,1.24.12,1.68.51.29.27.43.64.42,1.15-.05,2.73-.02,4-.02,4.06,0,.05,0,.1.02.14l.45,1.59c-.09.07-.18.14-.27.23-1.11,1.12-1.05,2.32.17,3.55l4.77,4.83.82-.81-4.77-4.83c-.77-.78-.82-1.27-.17-1.93.17-.17.33-.24.53-.24.47,0,.99.46,1.16.65l2.3,2.33c.08.08.19.14.31.16,2.96.53,4.31,1.85,4.34,1.87l1.56,1.51c.52.53,1.21,1.45,1.53,2.88,0,0,0,.01,0,.02l-.09,6.04c0,.32.25.58.57.59,0,0,0,0,0,0,.32,0,.57-.25.58-.57l.09-6.11c0-.06,0-.12-.02-.17v-.05c-.39-1.69-1.22-2.8-1.85-3.45l-1.56-1.51c-.06-.06-1.54-1.53-4.76-2.15l-2.15-2.18c-.09-.1-.93-.99-1.97-1.01,0,0,0,0,0,0l-.42-1.49c0-.3-.03-1.59.02-3.93.02-.85-.25-1.54-.81-2.03Z"/>
      <path class="cls-1" d="m37.39,4.56c-.08,0-1.95-.13-3.06.92-.55.52-.82,1.21-.8,2.06.05,2.34.03,3.63.02,3.93l-.42,1.49s0,0,0,0c-1.05.02-1.88.9-1.96.99l-2.17,2.2c-3.22.62-4.7,2.09-4.75,2.14l-1.58,1.53c-.63.63-1.45,1.74-1.83,3.44v.05c-.03.06-.04.11-.03.17l.09,6.11c0,.32.26.57.58.57,0,0,0,0,0,0,.32,0,.57-.27.57-.59l-.09-6.04s0-.01,0-.02c.32-1.42,1.01-2.35,1.52-2.87l1.58-1.53s1.33-1.32,4.33-1.86c.12-.02.23-.08.31-.16l2.31-2.34c.16-.17.68-.62,1.15-.63.18,0,.36.07.53.24.65.66.6,1.14-.17,1.93l-4.77,4.83.82.81,4.77-4.83c1.22-1.24,1.28-2.43.17-3.55-.09-.09-.18-.16-.27-.23l.46-1.6s.02-.09.02-.14c0-.05.03-1.33-.02-4.06-.01-.52.13-.91.44-1.2.43-.41,1.14-.56,1.66-.6l.17,5.87-2.02,8.99c-3.86,3.9-7.32,6.81-7.36,6.84-.14.11-.21.28-.21.46l.04,1.48c0,.31.27.56.58.56,0,0,.01,0,.02,0,.32,0,.57-.28.56-.59l-.04-1.2c.83-.71,3.94-3.41,7.34-6.85.08-.08.13-.17.15-.28l2.08-9.22s.02-.1.01-.14l-.19-6.51c0-.3-.24-.54-.53-.56Z"/>
    </g>
  </g>
</svg>