<?xml version="1.0" encoding="UTF-8"?>
<svg id="_レイヤー_2" data-name="レイヤー 2" xmlns="http://www.w3.org/2000/svg" viewBox="0 0 40.46 40.55">
  <defs>
    <style>
      .cls-1 {
        fill: #fff;
        stroke-width: 0px;
      }
    </style>
  </defs>
  <g id="pc">
    <path class="cls-1" d="m4.24,27.9c-.14.1-.26.24-.32.42L.4,39.01s0,0,0,0c-.24.15-.4.41-.4.71,0,.46.37.83.83.83l4.24-1.66,7.49-2.4s.02,0,.03-.01c.03,0,.05-.02.08-.03.02-.01.05-.02.07-.04.02-.01.04-.03.06-.04.02-.02.05-.04.07-.06,0,0,.01-.01.02-.02l25.12-25.12c.32-.32.32-.85,0-1.17l-1.1-1.1,3.31-3.31c.32-.32.32-.85,0-1.17L36.04.24c-.32-.32-.85-.32-1.17,0l-3.31,3.31-3.08-3.08c-.31-.31-.86-.31-1.17,0l-9.83,9.83c-.32.32-.32.85,0,1.17s.85.32,1.17,0l6.58-6.58.99.99L4.35,27.76s-.08.09-.11.14Zm-1.75,10.08l.72-2.18,1.48,1.48-2.19.7ZM35.45,2l3.01,3.01-2.72,2.72-3.01-3.01,2.72-2.72Zm-7.56.23l.99.99-1.49,1.49-.99-.99,1.49-1.49Zm2.17,2.17l6.19,6.19-3.97,3.97-4.21-4.21c-.32-.32-.85-.32-1.17,0-.32.32-.32.85,0,1.17l4.21,4.21-6.34,6.34-6.19-6.19,11.48-11.48Zm-12.65,12.65l6.19,6.19-11.3,11.3-6.19-6.19,11.3-11.3Zm-6.65,18.29l-4.32,1.39s-.06-.08-.1-.12l-2.35-2.35c-.07-.07-.14-.12-.23-.16l1.43-4.33,5.57,5.56Z"/>
  </g>
</svg>