<?xml version="1.0" encoding="UTF-8"?>
<svg id="_レイヤー_2" data-name="レイヤー 2" xmlns="http://www.w3.org/2000/svg" viewBox="0 0 129.51 106.48">
  <defs>
    <style>
      .cls-1 {
        fill: #fae24c;
        stroke-width: 0px;
      }
    </style>
  </defs>
  <g id="_01" data-name="01">
    <g>
      <path class="cls-1" d="m108.57,15.63v-.02l-.39-.03.39.05Z"/>
      <path class="cls-1" d="m12.68,41.63c1.59,0,2.88-.8,2.88-1.79s-1.29-1.79-2.88-1.79-2.88.8-2.88,1.79,1.29,1.79,2.88,1.79Z"/>
      <path class="cls-1" d="m106.82,6.9c2.1,1.67,4.88,2.69,7.17,3.9,2.2,1.16,3.79,3.14,5.9,4.4,1.7,1.02,2.89.22,4-1.51,1.56-2.44.7-4.27-.74-6.2-1.91-2.57-4.68-3.68-7.36-4.79-2.81-1.17-6.1-3.74-9.14-2.27-3.03,1.47-2.1,4.65.17,6.46Z"/>
      <path class="cls-1" d="m14.31,42.31s.01.01.02.02c.2.17.48.5.87.79.74.64,2.01,1.49,3.74,2.3,1.74.81,3.97,1.56,6.62,2.1,2.65.54,5.69.92,9.03,1.04,6.68.26,14.53-.45,22.71-2.24,8.19-1.78,16.72-4.66,24.71-8.63,1.9-.93,3.75-1.93,5.57-2.99.86-.91,1.67-1.86,2.43-2.82.85-1.08,1.67-2.26,2.55-3.51,3.63-5.2,7.74-11.07,15.16-11.52.11-.32.2-.75.26-1.28v-.09c.1-.78.13-1.67.15-2.61.03-1.14.08-2.41.28-3.61-.79-.44-1.56-.93-2.27-1.49-.19-.15-.36-.31-.54-.48-.99,2.49-1.31,5.98-2.55,7.46-.01,0-.02.02-.03.03-7.08-1.06-11.95,6.1-16.59,10.52-7.4,7.04-17.12,11.26-28.85,13.34-12.12,2.15-19.44,2.24-29.9,1.29-1.43-.13-7.17-2.13-11.96-2.12.38.5.61,1.09.61,1.72,0,1.22-.83,2.27-2.02,2.78Z"/>
      <path class="cls-1" d="m21.59,58.44c.22,0,.42.02.58.02.09,0,.18,0,.25,0,12.4-.84,21.41-2.14,36.24-6.92,10.24-3.29,18.38-7.53,24.69-12.82-.22.11-.44.24-.67.35-4.06,2.03-8.27,3.72-12.48,5.18-4.22,1.42-8.45,2.61-12.61,3.49-8.3,1.79-16.26,2.47-23.06,2.18-6.81-.26-12.46-1.63-16.09-3.4-1.83-.88-3.14-1.78-3.99-2.53-.45-.35-.69-.65-.9-.83-.19-.19-.29-.29-.29-.29l.27-.27c-.27.06-.55.09-.85.09-1.51,0-2.8-.78-3.36-1.9-1.12,2.52,1.24,5.06,2.57,7.24,2.76,4.5,6.04,7.9,9.7,10.44Z"/>
      <path class="cls-1" d="m31.63,79.65c.98-.12,2.32-.28,2.65-.37,12.14-3.19,20.81-6.16,34.56-13.54,6.57-3.52,12.03-7.27,16.46-11.3-3.32,2.25-6.83,4.3-10.46,6.11-4.06,2.05-8.3,3.73-12.52,5.19-4.24,1.43-8.48,2.61-12.65,3.49-8.32,1.8-16.32,2.39-23.14,2.06-6.83-.3-12.48-1.73-16.12-3.53-1.83-.89-3.13-1.82-3.97-2.58-.09-.07-.17-.14-.25-.21-.74.4-1.61.65-2.55.65-1.45,0-2.74-.57-3.61-1.46-.41,2.85,3.05,5.12,5.22,7.19,4.99,4.75,10.36,8.01,15.99,10.11,3.24-.84,6.86-1.36,10.38-1.8Z"/>
      <path class="cls-1" d="m12.03,90.23c.66,1.66,2.68,2.42,4.51,1.69,1.83-.72,2.79-2.66,2.13-4.32-.66-1.66-2.68-2.42-4.51-1.7-1.83.73-2.78,2.66-2.13,4.32Z"/>
      <path class="cls-1" d="m7.15,64.25s.04.04.07.06c.74.63,2.02,1.46,3.75,2.25,1.74.8,3.97,1.53,6.62,2.04,2.64.52,5.67.87,9.01.97,6.66.23,14.48-.57,22.63-2.35,8.16-1.78,16.67-4.66,24.63-8.62,3.99-1.96,7.84-4.21,11.43-6.7,2.71-1.87,5.24-3.9,7.58-6.03.94-1.37,1.8-2.76,2.55-4.19.6-1.13,1.17-2.4,1.78-3.73,2.24-4.92,4.95-10.87,10.81-13.9.5-1.36.93-2.7,1.29-3.98-.45-2.7-.67-5.75,1.28-8.09.09-.11.19-.2.29-.3.04-.38.07-.76.1-1.12-.52-.25-1.04-.5-1.56-.76-.37,2.84.06,6.35-.98,8.08,0,.02-.01.03-.02.04-9.03.14-13.04,8.93-17.55,14.64-7.17,9.1-17.98,15.55-31.87,20.01-14.35,4.62-23.34,6.08-36.51,6.97-1.75.12-9.07-.96-14.91-.18.49.64.78,1.4.78,2.22,0,1.03-.47,1.96-1.21,2.67Z"/>
      <path class="cls-1" d="m122.34,23.63c-1.17-.97-1.35-4.34-1.41-6.9-.52-.06-1.06-.25-1.6-.58-1.06-.63-1.98-1.42-2.87-2.18-.98-.84-1.91-1.63-2.98-2.19-.19-.1-.4-.21-.6-.3-.56.32-1.05.72-1.45,1.19-1.94,2.33-1.34,5.6-.82,8.47.16.89.37,2,.41,2.83-.35.1-.67.23-.99.35h0s-.04.02-.06.02c-.33.13-.64.27-.94.41-.09.04-.18.08-.26.12-.3.15-.59.31-.88.48-.08.04-.16.09-.23.13-.29.18-.57.36-.85.55-.06.04-.12.08-.17.12-.29.21-.56.42-.83.65-.03.03-.07.06-.11.09-.28.24-.55.48-.81.73-.02.02-.04.04-.06.06-.27.27-.54.54-.79.82,0,0-.01.02-.02.02-1.85,2.05-3.23,4.47-4.39,6.85-.02.03-.02.06-.04.08-.15.31-.3.61-.44.92-.1.2-.18.39-.28.58-.06.13-.12.27-.18.39-.16.35-.31.68-.46,1.02-.31.68-.61,1.34-.9,1.97-.08.16-.15.3-.23.46-.22.47-.45.93-.68,1.37-.41.77-.85,1.53-1.3,2.28-.1.17-.21.33-.31.5-.46.74-.94,1.46-1.45,2.18,0,0,0,.01-.01.02-.56.78-1.15,1.55-1.77,2.31-.05.06-.1.12-.15.18-.61.74-1.25,1.48-1.92,2.2-5,5.41-11.66,10.33-20.12,14.87-13.85,7.43-22.59,10.43-34.8,13.63-.4.11-1.61.26-2.79.4-5.85.72-11.99,1.69-16.01,3.95,2.24.32,3.95,1.96,3.95,3.97,0,1.2-.63,2.27-1.6,3.01,1.75.73,3.98,1.38,6.6,1.84,2.63.45,5.65.74,8.95.77,6.61.07,14.35-.78,22.43-2.63,4.04-.91,8.15-2.15,12.26-3.55,4.1-1.44,8.18-3.14,12.12-5.1,7.91-3.87,15.23-8.89,21.1-14.61,2.9-2.89,5.48-5.91,7.59-9.01,2.1-3.11,3.77-6.25,5.03-9.28,1.25-3.03,2.11-5.93,2.7-8.55.55-2.62.87-4.95,1.03-6.89.14-1.93.23-3.46.21-4.5,0-1.05,0-1.6,0-1.6l1.11-.08s.05.57.15,1.63c.11,1.06.21,2.62.22,4.63,0,3.98-.46,9.81-2.79,16.37-1.16,3.27-2.74,6.72-4.86,10.09-2.13,3.37-4.7,6.72-7.72,9.83-3.04,3.09-6.43,6.05-10.14,8.65-3.71,2.62-7.68,4.97-11.79,7.02-4.1,2.07-8.38,3.75-12.64,5.23-4.28,1.45-8.57,2.58-12.78,3.43-4.2.87-8.32,1.43-12.25,1.71-3.93.31-7.66.32-11.1.08-3.44-.21-6.58-.72-9.31-1.4-2.74-.66-5.06-1.56-6.87-2.52-.43-.23-.82-.45-1.19-.67-.38.08-.77.14-1.18.14-1.51,0-2.85-.62-3.71-1.57,0,3.64,3.72,5.67,6.29,7.06.53.28,1.05.56,1.52.84,8.38,5.01,17.19,7.45,26.93,7.45s19.38-2.28,30.97-6.96c15.22-6.15,31.34-18.46,42.07-32.11,5.62-7.15,10.01-19.09,10.45-28.38.28-5.9-2.26-11.37-7.15-15.39Z"/>
      <path class="cls-1" d="m5.02,64.38c1.83-.73,2.92-2.32,2.43-3.55-.49-1.23-2.37-1.65-4.2-.92-1.84.72-2.92,2.31-2.44,3.55.49,1.23,2.37,1.65,4.2.93Z"/>
    </g>
  </g>
</svg>