<?xml version="1.0" encoding="UTF-8"?>
<svg id="_レイヤー_2" data-name="レイヤー 2" xmlns="http://www.w3.org/2000/svg" viewBox="0 0 96.19 98.08">
  <defs>
    <style>
      .cls-1 {
        fill: #c2d0d4;
        stroke-width: 0px;
      }
    </style>
  </defs>
  <g id="m">
    <g>
      <path class="cls-1" d="m68.08,69.82s0,0,0,0h0s0,0,0,0c0,0,0,0,0,0-.91,9,.81,18.81,5.03,28.26,1.14-3.95,5.55-7.46,6.46-16.46,9.02-.67,12.64-4.98,16.62-6.01-9.34-4.48-19.09-6.45-28.11-5.79Z"/>
      <path class="cls-1" d="m27.3,24.45c.84-.94,1.64-1.91,2.34-2.92.01-.02.03-.04.04-.06.04-.06.08-.11.12-.17,31.48,32.25,38.2,48.35,38.27,48.51.91-9.13-.87-19.04-5.17-28.62-.38-3.27-1.36-3.16-1.33-4.98,0-1.34-2.06-3.23-3.62-4.93-1.34-1.42,2.93-.22-.29-3.57-.98-1.05-3.34-2.44-4.39-3.26,1.03-.54,2.3-.77,2.83-.79-2.23-2.81-5.97-4.24-9.54-6.87,1.05-.69,2.91-2.32,4.38-3.67-2.78-.96-5.93-1.27-8.04-1.85-3.17-.55-4.59-1.35-7.62-1.5C23.97,2.62,11.54-.69.23.12c-1.11,11.29,1.86,23.8,8.71,35.31,2.84,4.85,6.36,9.5,10.57,13.82,6.32,6.49,13.4,11.49,20.78,14.94,8.57,5.92,8.25,6.4,12.53,9.86,2.12-1.1,3.44-2.34,6.04-4.46,3.14.38,6.21.44,9.23.23,0,0,0,0,0,0-3.09-4.46-34.24-39.21-40.77-45.37ZM10.41,7.06c.57-.55,1.48-.54,2.03.03.55.57.54,1.48-.03,2.03-.57.55-1.48.54-2.03-.03-.56-.57-.54-1.48.03-2.03Z"/>
    </g>
  </g>
</svg>