<?xml version="1.0" encoding="UTF-8"?>
<svg xmlns="http://www.w3.org/2000/svg" viewBox="0 0 131.2 110.83">
  <defs>
    <style>
      .cls-1 {
        fill: #999;
        mix-blend-mode: multiply;
        opacity: .36;
      }

      .cls-1, .cls-2, .cls-3, .cls-4, .cls-5 {
        stroke-width: 0px;
      }

      .cls-6 {
        isolation: isolate;
      }

      .cls-2 {
        fill: #f2f2dc;
      }

      .cls-3 {
        fill: #c24753;
      }

      .cls-4 {
        fill: #ffffdb;
      }

      .cls-5 {
        fill: #fcc0b7;
      }
    </style>
  </defs>
  <g class="cls-6">
    <g id="_レイヤー_2" data-name="レイヤー 2">
      <g id="_01" data-name="01">
        <g>
          <path class="cls-3" d="m124.08,54.84c.06.58.12,1.16.17,1.81t0,.07c.66,6.47,1.66,16.63.68,26.02-3.71,4.66-9.24,9.08-15.36,8.13-12.19-.66-21.81-12.56-33.77-14.75-9.9-1.79-21.36,3.83-31.27,4.89-9.41.85-36.15-2.81-39.91-15.3v-.05C5.3,40.39,39.27,11.81,58.03,6.37c15.76-4.6,35.55,1.29,48.57,10.38,12.24,8.57,15.88,24.15,17.47,38.08Z"/>
          <path class="cls-4" d="m104.26,7.55c-15.6-8.93-36.15-9.79-52.62-3.39C25.65,14.27-10.68,53.75,2.98,83.43c5.89,12.81,19.2,17.52,32.36,15.82,9.3-1.22,18.39-3.39,27.83-3.32,10.49.13,18.78,7.15,27.48,11.99,12.45,6.91,24.18.6,32.68-9.14,10.9-12.5,7.75-32.57,6.32-47.57-2.17-18.84-8.35-33.94-25.39-43.65Zm19.81,47.29c.06.58.12,1.16.17,1.81t0,.07c.66,6.47,1.66,16.63.68,26.02-3.71,4.66-9.24,9.08-15.36,8.13-12.19-.66-21.81-12.56-33.77-14.75-9.9-1.79-21.36,3.83-31.27,4.89-9.41.85-36.15-2.81-39.91-15.3v-.05C5.3,40.39,39.27,11.81,58.03,6.37c15.76-4.6,35.55,1.29,48.57,10.38,12.24,8.57,15.88,24.15,17.47,38.08Z"/>
          <path class="cls-2" d="m83.45,30.28c3.18,13.61-25.57,20.72-33.76,13.05-7.06-6.67.07-14.03,6.88-18.23,8.19-4.81,24.27-5.25,26.88,5.19Z"/>
          <path class="cls-1" d="m122.32,99.89c-8.41,9.08-19.7,14.65-31.68,8.01-8.71-4.84-16.99-11.86-27.48-11.99-9.44-.08-18.54,2.1-27.84,3.32-13.16,1.7-26.46-3.01-32.35-15.82-1.41-3.03-2.28-6.2-2.66-9.39,4.53,9.5,15.72,15.62,26.52,15.98,11.54.34,22.61-2.23,33.63-2.25,4.33-.22,9.54-.57,13.6-.03,4.18.8,8.07,3.63,11.74,5.93,5.8,4.1,15.01,11.91,22.37,10.85,3.57-.53,9.01-2.21,14.16-4.62Z"/>
          <path class="cls-5" d="m74.49,34.1c-1.22,2.68-6.81,3.83-9.63,4.26-2.03.35-8.64,1.16-10.27-1.79-.51-.96.32-3.76,1.33-4.56,1.28-1.27,4.45-2.83,6.11-3.33,2.87-1.56,7.98-1.52,10.81.4,1.58.97,2.31,3.15,1.66,5.02Z"/>
        </g>
      </g>
    </g>
  </g>
</svg>