<?xml version="1.0" encoding="UTF-8"?>
<svg id="_レイヤー_2" data-name="レイヤー 2" xmlns="http://www.w3.org/2000/svg" viewBox="0 0 131.26 133.84">
  <defs>
    <style>
      .cls-1 {
        fill: #6fb5cf;
        stroke-width: 0px;
      }
    </style>
  </defs>
  <g id="_01" data-name="01">
    <g>
      <path class="cls-1" d="m92.9,95.27s0,0,0,0h0s0,0,0,0c0,0,0,0,0,0-1.24,12.28,1.1,25.66,6.86,38.56,1.55-5.39,7.58-10.18,8.82-22.46,12.31-.91,17.25-6.8,22.68-8.2-12.74-6.11-26.05-8.81-38.36-7.9Z"/>
      <path class="cls-1" d="m37.26,33.37c1.15-1.28,2.24-2.61,3.2-3.99.02-.03.04-.05.06-.08.05-.08.11-.15.16-.23,42.95,44,52.13,65.98,52.22,66.2,1.24-12.46-1.18-25.98-7.06-39.05-.52-4.47-1.86-4.31-1.82-6.8,0-1.82-2.81-4.41-4.95-6.72-1.83-1.93,4-.29-.4-4.87-1.34-1.44-4.56-3.33-5.99-4.45,1.4-.74,3.14-1.06,3.87-1.08-3.05-3.83-8.14-5.78-13.02-9.38,1.43-.94,3.97-3.17,5.98-5.01-3.8-1.3-8.09-1.74-10.97-2.53-4.33-.75-6.26-1.85-10.39-2.04C32.71,3.58,15.75-.94.31.16c-1.51,15.41,2.54,32.48,11.88,48.18,3.88,6.62,8.68,12.97,14.42,18.86,8.62,8.86,18.29,15.67,28.35,20.38,11.69,8.08,11.26,8.74,17.1,13.46,2.89-1.5,4.7-3.19,8.24-6.08,4.28.52,8.47.61,12.59.31,0,0,0,0,0,0-4.22-6.09-46.72-53.51-55.64-61.91ZM14.21,9.63c.78-.76,2.02-.74,2.78.04.76.78.74,2.02-.04,2.77-.78.76-2.02.74-2.77-.04-.76-.78-.74-2.02.04-2.77Z"/>
    </g>
  </g>
</svg>