<?xml version="1.0" encoding="UTF-8"?>
<svg xmlns="http://www.w3.org/2000/svg" viewBox="0 0 117.48 145.09">
  <defs>
    <style>
      .cls-1 {
        fill: #efdde6;
        mix-blend-mode: multiply;
        opacity: .48;
      }

      .cls-1, .cls-2, .cls-3 {
        stroke-width: 0px;
      }

      .cls-2 {
        fill: #ffffb5;
        opacity: .54;
      }

      .cls-4 {
        isolation: isolate;
      }

      .cls-3 {
        fill: #fecf48;
      }
    </style>
  </defs>
  <g class="cls-4">
    <g id="_レイヤー_2" data-name="レイヤー 2">
      <g id="_01" data-name="01">
        <g>
          <path class="cls-3" d="m88.23,50.91c28.05,38.23,37.59,78.91,21.3,90.86-16.29,11.95-52.23-9.35-80.28-47.58C1.2,55.95-8.34,15.27,7.95,3.32c16.28-11.95,52.23,9.36,80.28,47.59Z"/>
          <path class="cls-1" d="m81.74,55.69c-.84,7.48-7.32,16.93-17.48,24.39-10.12,7.42-21.16,10.82-28.51,9.35l45.98-33.74Z"/>
          <path class="cls-2" d="m81.74,55.69l-45.98,33.74c.81-7.45,7.3-16.95,17.46-24.41,10.16-7.45,21.17-10.8,28.52-9.33Z"/>
          <path class="cls-1" d="m64.21,38.16c-.73,6.5-6.36,14.72-15.15,21.18-8.78,6.44-18.34,9.37-24.75,8.1l39.9-29.28Z"/>
          <path class="cls-1" d="m93.67,78.32c-.73,6.5-6.36,14.72-15.15,21.18-8.78,6.44-18.34,9.37-24.75,8.1l39.9-29.28Z"/>
          <path class="cls-2" d="m64.21,38.16l-39.9,29.28c.71-6.46,6.36-14.72,15.16-21.18,8.8-6.45,18.36-9.35,24.75-8.1Z"/>
          <path class="cls-2" d="m93.68,78.33l-39.9,29.28c.71-6.45,6.36-14.72,15.15-21.18,8.8-6.45,18.36-9.35,24.75-8.1Z"/>
          <path class="cls-1" d="m47.31,23.56c-.59,5.2-5.07,11.75-12.11,16.91-7.02,5.15-14.65,7.49-19.76,6.47l31.87-23.38Z"/>
          <path class="cls-1" d="m103.05,99.53c-.58,5.2-5.07,11.75-12.11,16.91-7.02,5.15-14.65,7.49-19.76,6.47l31.87-23.38Z"/>
          <path class="cls-2" d="m47.31,23.56l-31.87,23.38c.56-5.15,5.06-11.74,12.1-16.91,7.04-5.16,14.66-7.47,19.76-6.47Z"/>
          <path class="cls-2" d="m103.06,99.53l-31.87,23.38c.56-5.15,5.06-11.74,12.1-16.91,7.04-5.16,14.66-7.47,19.76-6.47Z"/>
        </g>
      </g>
    </g>
  </g>
</svg>