<?xml version="1.0" encoding="UTF-8"?>
<svg xmlns="http://www.w3.org/2000/svg" viewBox="0 0 67.54 72.11">
  <defs>
    <style>
      .cls-1 {
        fill: #d7e7af;
      }

      .cls-1, .cls-2 {
        mix-blend-mode: multiply;
      }

      .cls-1, .cls-3 {
        stroke-width: 0px;
      }

      .cls-4 {
        isolation: isolate;
      }

      .cls-3 {
        fill: #f5b2b2;
      }
    </style>
  </defs>
  <g class="cls-4">
    <g id="_レイヤー_2" data-name="レイヤー 2">
      <g id="m">
        <g>
          <g class="cls-2">
            <path class="cls-1" d="m12.8,41.58c.39-.3,1.26-.5,1.67-.49,1.34.06,3.93,1.15,5.24-1.13,1.42-2.46,3.68-3.91,3.68-3.91,0,0-3.57-1.15-5.25,1.13-.62.85-1.24,1.57-1.8,2.15.36-.47.69-1.02.91-1.66.74-2.15-.1-4.39-.1-4.39,0,0-1.74,1.08-2.58,2.94,0-.13-.13-5.44,4.15-7.98,0,0,0,0,.01,0,.26-.21.32-.58.11-.85-.2-.27-.58-.32-.85-.11,0,0-.16.12-.45.34-.12.09-.96.84-1.1.99-.21.22-.44.46-.65.75-.14.16-.62.87-.64.9-.11.16-.19.33-.29.51-.09.17-.19.34-.27.53-.08.18-.17.37-.25.55l-.03.09s-.17.48-.17.48c-.07.19-.11.39-.17.58-.06.19-.11.39-.14.59-.03.2-.08.39-.1.58-.02.16-.08.82-.08.82,0,0,0,0,0,0-.02.29-.03.58-.02.85,0,.16.01.32.02.47-.74-1.19-1.79-1.88-1.79-1.88,0,0-.94,1.79-.59,3.67-.14-.17-.29-.33-.46-.48-1.68-1.53-4.07-1.65-4.07-1.65,0,0,.34,2.36,2.02,3.9.71.65,1.55,1.04,2.28,1.28-.9-.23-2.07-.6-3.35-1.16-2.59-1.13-5.1,1.65-5.1,1.65,0,0,2.68.12,5.14,1.54,2.28,1.31,3.99-.79,5.04-1.6Z"/>
            <path class="cls-3" d="m23.86,37.18c-.52.37-2.08,1.59-3.11,3.38-.55.96-1.34,1.58-2.35,1.86-1.12.31-2.24.12-3.15-.03-.32-.05-.62-.11-.83-.11-.05,0-.25.02-.5.09s-.37.14-.4.16c-.14.11-.3.25-.48.4-.67.58-1.58,1.38-2.75,1.71-1.06.3-2.11.15-3.12-.43-1.16-.67-2.4-1.02-3.3-1.2C.44,47.36-.94,53.23.67,58.97c2.67,9.56,12.57,15.14,22.13,12.47,9.56-2.67,15.14-12.58,12.47-22.13-1.64-5.89-6.04-10.27-11.41-12.14Z"/>
          </g>
          <g class="cls-2">
            <path class="cls-1" d="m49.69,11.19c.48-.13,1.35.02,1.73.2,1.21.57,3.17,2.59,5.27.99,2.26-1.72,4.91-2.17,4.91-2.17,0,0-2.85-2.44-5.27-.99-.9.54-1.76.96-2.49,1.29.51-.29,1.03-.68,1.48-1.18,1.52-1.7,1.61-4.09,1.61-4.09,0,0-2.02.32-3.52,1.71.05-.12,1.99-5.06,6.92-5.75,0,0,.01,0,.02,0,.32-.09.52-.41.43-.74-.08-.32-.42-.52-.74-.43,0,0-.2.05-.54.14-.15.04-1.21.4-1.4.49-.28.12-.58.26-.89.44-.19.1-.91.57-.94.58-.16.1-.31.23-.46.35-.15.12-.31.24-.46.38-.15.14-.3.27-.44.41l-.07.07c-.02-.05-.34.38-.34.38-.14.14-.26.32-.38.47-.13.16-.25.32-.35.49-.11.17-.22.33-.32.5-.08.14-.39.72-.39.72,0,0,0,0,0,0-.13.26-.25.52-.35.78-.06.15-.11.3-.16.44-.22-1.38-.92-2.43-.92-2.43,0,0-1.56,1.29-1.97,3.16-.07-.21-.14-.41-.24-.62-.96-2.06-3.11-3.1-3.11-3.1,0,0-.6,2.31.35,4.38.41.87,1.02,1.56,1.6,2.07-.74-.57-1.67-1.36-2.64-2.37-1.95-2.05-5.35-.46-5.35-.46,0,0,2.42,1.15,4.14,3.41,1.6,2.1,3.98.82,5.26.48Z"/>
            <path class="cls-3" d="m61.58,11.41c-.62.14-2.53.66-4.18,1.91-.88.67-1.85.94-2.89.81-1.16-.15-2.12-.76-2.89-1.25-.28-.17-.53-.34-.72-.43-.05-.02-.24-.08-.5-.11s-.4-.02-.43-.01c-.17.05-.38.11-.6.19-.84.28-1.99.66-3.2.51-1.09-.14-2-.68-2.71-1.61-.81-1.07-1.81-1.87-2.57-2.38-4.85,2.68-8.4,7.55-9.15,13.47-1.25,9.84,5.72,18.83,15.56,20.08,9.84,1.25,18.83-5.72,20.08-15.56.77-6.07-1.59-11.81-5.81-15.61Z"/>
          </g>
        </g>
      </g>
    </g>
  </g>
</svg>