<?xml version="1.0" encoding="UTF-8"?>
<svg id="_レイヤー_2" data-name="レイヤー 2" xmlns="http://www.w3.org/2000/svg" viewBox="0 0 95.99 77.73">
  <defs>
    <style>
      .cls-1 {
        fill: #e4cdba;
        stroke-width: 0px;
      }
    </style>
  </defs>
  <g id="m">
    <path class="cls-1" d="m62.31,58.37c25.29-18.56,39.39-42.34,31.49-53.12-7.91-10.77-34.82-4.46-60.12,14.1C8.39,37.91-5.71,61.69,2.2,72.47c7.9,10.77,34.82,4.46,60.11-14.1Zm13.81-40.15c3.42,4.66,4.94,9.7,4.28,13.08l-15.47-21.08c3.41.37,7.77,3.35,11.19,8.01Zm-24.75-2.15c4.27.47,9.74,4.21,14.01,10.03,4.27,5.82,6.19,12.15,5.36,16.37l-19.37-26.4Zm-14.54,7.58c4.93.53,11.22,4.83,16.15,11.55,4.93,6.72,7.14,14.01,6.17,18.87l-22.32-30.42Zm1.98,21.94c4.27,5.82,6.18,12.15,5.36,16.37l-19.37-26.4c4.27.47,9.74,4.21,14.01,10.03Zm-24.14,1.5c3.41.37,7.77,3.35,11.19,8.01,3.42,4.66,4.94,9.7,4.28,13.08l-15.47-21.08Z"/>
  </g>
</svg>