<?xml version="1.0" encoding="UTF-8"?>
<svg xmlns="http://www.w3.org/2000/svg" viewBox="0 0 89.15 71.12">
  <defs>
    <style>
      .cls-1 {
        mix-blend-mode: multiply;
      }

      .cls-2 {
        isolation: isolate;
      }

      .cls-3 {
        fill: #e2dabb;
        stroke-width: 0px;
      }
    </style>
  </defs>
  <g class="cls-2">
    <g id="_レイヤー_2" data-name="レイヤー 2">
      <g id="m">
        <g class="cls-1">
          <path class="cls-3" d="m70.61,29.64l18.54-18.17-1.78-1.88-18,18.42c-1.38-1.66-3.01-3.2-4.88-4.59L77.89,1.27l-2.15-1.27-12.93,22.25c-.28-.18-.56-.36-.85-.54-5.88-3.55-13.29-5.53-20.87-5.57-.03,0-.06,0-.09,0-.05,0-.09,0-.14,0-7.63,0-15.09,1.96-21.02,5.53-5.72,3.44-9.8,8.23-11.54,13.52H0c.12,5.16,1.18,10.08,3.02,14.61,5.3,13,18.15,21.34,32.19,21.34h11.99c13.55,0,26.11-7.73,31.64-20.1,2.17-4.86,3.42-10.21,3.55-15.84h-8.97c-.63-1.93-1.58-3.78-2.8-5.54Zm-29.19,5.54H9.06c1.73-5.04,5.66-9.6,11.15-12.9,5.82-3.5,13.15-5.42,20.65-5.42.03,0,.06,0,.09,0,.05,0,.09,0,.14,0,7.46.04,14.74,1.98,20.51,5.47,5.45,3.29,9.35,7.84,11.07,12.85h-31.23Z"/>
          <path class="cls-3" d="m34.7,23.85l.1-1.2c.02-.3-.2-.55-.49-.58-.3-.02-.56.2-.58.49l-.1,1.2c-.02.24.12.45.33.54.05.02.11.04.17.04.3.02.56-.2.58-.49Z"/>
          <path class="cls-3" d="m35.12,28.01c-.28-.08-.58.08-.67.36l-.34,1.16c-.07.23.02.46.21.59.05.03.1.06.16.08.28.08.58-.08.67-.36l.34-1.16c.08-.28-.08-.58-.36-.67Z"/>
          <path class="cls-3" d="m39.06,18.87l-.98.7c-.19.14-.27.38-.2.59.02.05.04.11.08.16.17.24.51.3.75.12l.98-.7c.24-.17.3-.51.12-.75-.17-.24-.51-.3-.75-.12Z"/>
          <path class="cls-3" d="m29.98,32c-.12-.27-.44-.39-.71-.27-.27.12-.39.44-.27.71l.49,1.1c.1.22.32.34.54.32.06,0,.11-.02.17-.04.27-.12.39-.44.27-.71l-.49-1.1Z"/>
          <path class="cls-3" d="m41.79,28.87l-.93.76c-.18.15-.24.4-.16.61.02.05.05.11.09.15.19.23.53.26.76.07l.93-.76c.23-.19.26-.53.07-.76-.19-.23-.53-.26-.76-.07Z"/>
          <path class="cls-3" d="m19.2,25.6c-.09-.28-.4-.43-.68-.34-.28.09-.43.4-.34.68l.38,1.14c.08.22.29.37.51.37.06,0,.12,0,.17-.03.28-.09.43-.4.34-.68l-.38-1.14Z"/>
          <path class="cls-3" d="m14.95,32.84l-1.08-.54c-.27-.13-.59-.03-.72.24-.13.27-.03.59.24.72l1.08.54c.21.11.46.06.62-.1.04-.04.08-.09.1-.14.13-.27.03-.59-.24-.72Z"/>
          <path class="cls-3" d="m22.21,30.74l-.87.83c-.17.16-.21.41-.12.62.02.05.06.1.1.14.2.22.55.22.76.02l.87-.83c.21-.2.22-.54.02-.76-.2-.22-.55-.22-.76-.02Z"/>
          <path class="cls-3" d="m27.89,26.29l-1.08-.54c-.27-.13-.59-.03-.72.24-.13.27-.03.59.24.72l1.08.54c.21.11.46.06.62-.1.04-.04.08-.09.1-.14.13-.27.03-.59-.24-.72Z"/>
          <path class="cls-3" d="m28.11,20.02c-.28-.08-.58.08-.67.36l-.34,1.16c-.07.23.02.46.21.59.05.03.1.06.16.08.28.08.58-.08.67-.36l.34-1.16c.08-.28-.08-.58-.36-.67Z"/>
          <path class="cls-3" d="m47.82,32.24c-.14-.19-.39-.25-.6-.18-.05.02-.11.05-.15.08-.24.18-.28.52-.1.76l.73.96c.18.24.52.28.76.1.24-.18.28-.52.1-.76l-.73-.96Z"/>
          <path class="cls-3" d="m44.52,22.39l-1.16-.33c-.23-.06-.46.03-.59.22-.03.05-.06.1-.07.16-.08.29.09.58.37.66l1.16.33c.29.08.58-.09.66-.37.08-.29-.09-.58-.37-.66Z"/>
          <path class="cls-3" d="m64.74,28.31c-.16-.25-.49-.33-.74-.17-.25.16-.33.49-.17.74l.64,1.02c.13.2.36.29.58.24.06-.01.11-.04.16-.07.25-.16.33-.49.17-.74l-.64-1.02Z"/>
          <path class="cls-3" d="m57.21,22.65c-.16-.25-.49-.33-.74-.17-.25.16-.33.49-.17.74l.64,1.02c.13.2.36.29.58.24.06-.01.11-.04.16-.07.25-.16.33-.49.17-.74l-.64-1.02Z"/>
          <path class="cls-3" d="m68.89,34.98c.29.05.57-.15.62-.44l.2-1.19c.04-.23-.08-.46-.28-.56-.05-.03-.11-.05-.16-.06-.29-.05-.57.15-.62.44l-.2,1.19c-.05.29.15.57.45.62Z"/>
          <path class="cls-3" d="m54.99,29.08c-.15-.25-.49-.34-.74-.18l-1.03.62c-.25.15-.33.48-.18.74.15.25.49.34.74.18l1.03-.62c.2-.12.3-.36.25-.58-.01-.06-.03-.11-.06-.16Z"/>
          <path class="cls-3" d="m49.9,24.54c-.05-.03-.11-.05-.17-.06-.29-.05-.57.15-.62.44l-.2,1.19c-.05.29.15.57.44.62.29.05.57-.15.62-.44l.2-1.19c.04-.23-.08-.46-.28-.56Z"/>
          <path class="cls-3" d="m50.2,19.06c-.24-.17-.58-.11-.75.14l-.69.99c-.14.19-.12.45.01.63.03.05.08.09.12.12.24.17.58.11.75-.14l.69-.99c.17-.24.11-.58-.14-.75Z"/>
        </g>
      </g>
    </g>
  </g>
</svg>