<?xml version="1.0" encoding="UTF-8"?>
<svg id="_レイヤー_2" data-name="レイヤー 2" xmlns="http://www.w3.org/2000/svg" viewBox="0 0 91.38 75.13">
  <defs>
    <style>
      .cls-1 {
        fill: #fcd7a1;
        stroke-width: 0px;
      }
    </style>
  </defs>
  <g id="m">
    <g>
      <path class="cls-1" d="m76.61,11.03h0s-.27-.03-.27-.03l.27.03Z"/>
      <path class="cls-1" d="m8.94,29.37c1.12,0,2.03-.56,2.03-1.26s-.91-1.26-2.03-1.26-2.03.57-2.03,1.26.91,1.26,2.03,1.26Z"/>
      <path class="cls-1" d="m75.37,4.87c1.48,1.18,3.44,1.9,5.06,2.75,1.55.82,2.67,2.21,4.16,3.11,1.2.72,2.04.16,2.82-1.06,1.1-1.72.49-3.01-.52-4.37-1.35-1.81-3.3-2.59-5.19-3.38-1.98-.82-4.31-2.64-6.45-1.6-2.14,1.04-1.48,3.28.12,4.56Z"/>
      <path class="cls-1" d="m10.1,29.85s0,0,.02.02c.14.12.34.36.61.56.52.45,1.42,1.05,2.64,1.62,1.22.57,2.8,1.1,4.67,1.48,1.87.38,4.01.65,6.37.73,4.71.18,10.25-.31,16.02-1.58,5.78-1.26,11.8-3.29,17.44-6.09,1.34-.66,2.65-1.36,3.93-2.11.6-.64,1.18-1.31,1.72-1.99.6-.76,1.18-1.59,1.8-2.48,2.56-3.67,5.46-7.81,10.7-8.13.08-.23.14-.53.19-.9v-.06c.07-.55.09-1.18.11-1.84.02-.8.06-1.7.2-2.55-.56-.31-1.1-.65-1.6-1.05-.13-.11-.26-.22-.38-.34-.7,1.76-.92,4.22-1.8,5.26,0,0-.01.01-.02.02-5-.75-8.43,4.31-11.71,7.42-5.22,4.96-12.08,7.94-20.35,9.41-8.55,1.52-13.72,1.58-21.1.91-1.01-.09-5.06-1.5-8.44-1.49.27.35.43.77.43,1.22,0,.86-.59,1.6-1.43,1.96Z"/>
      <path class="cls-1" d="m15.23,41.23c.15,0,.3.01.41.01.07,0,.12,0,.18,0,8.75-.59,15.11-1.51,25.57-4.88,7.22-2.32,12.97-5.31,17.42-9.05-.16.08-.31.17-.47.24-2.86,1.44-5.83,2.62-8.81,3.66-2.98,1-5.96,1.84-8.9,2.46-5.85,1.26-11.47,1.74-16.27,1.54-4.8-.19-8.79-1.15-11.36-2.4-1.29-.62-2.22-1.25-2.81-1.79-.32-.25-.49-.46-.64-.59-.14-.14-.21-.21-.21-.21l.19-.19c-.19.04-.39.07-.6.07-1.07,0-1.98-.55-2.37-1.34-.79,1.78.88,3.57,1.82,5.11,1.95,3.17,4.26,5.57,6.84,7.36Z"/>
      <path class="cls-1" d="m22.31,56.2c.69-.09,1.64-.2,1.87-.26,8.56-2.25,14.68-4.35,24.39-9.56,4.63-2.49,8.49-5.13,11.61-7.97-2.34,1.59-4.82,3.04-7.38,4.31-2.87,1.44-5.85,2.63-8.83,3.66-2.99,1.01-5.99,1.84-8.93,2.46-5.87,1.27-11.51,1.68-16.33,1.46-4.82-.21-8.81-1.22-11.37-2.49-1.29-.63-2.21-1.28-2.8-1.82-.07-.05-.12-.1-.18-.15-.52.29-1.14.46-1.8.46-1.03,0-1.93-.4-2.54-1.03-.29,2.01,2.15,3.61,3.68,5.08,3.52,3.35,7.31,5.65,11.28,7.13,2.29-.59,4.84-.96,7.32-1.27Z"/>
      <path class="cls-1" d="m8.49,63.66c.46,1.17,1.89,1.71,3.18,1.2,1.29-.51,1.97-1.88,1.5-3.05-.46-1.17-1.89-1.71-3.18-1.2-1.29.51-1.96,1.88-1.5,3.05Z"/>
      <path class="cls-1" d="m5.05,45.33s.03.03.05.04c.52.44,1.43,1.03,2.65,1.59,1.22.56,2.8,1.08,4.67,1.44,1.86.36,4,.62,6.35.68,4.7.16,10.21-.4,15.97-1.66,5.76-1.26,11.76-3.29,17.38-6.08,2.82-1.38,5.53-2.97,8.07-4.73,1.91-1.32,3.7-2.75,5.35-4.26.66-.96,1.27-1.95,1.8-2.95.42-.8.83-1.69,1.25-2.63,1.58-3.47,3.5-7.67,7.63-9.81.35-.96.66-1.9.91-2.81-.31-1.91-.47-4.06.9-5.7.06-.08.14-.14.2-.21.03-.27.05-.53.07-.79-.37-.18-.74-.35-1.1-.54-.26,2,.05,4.48-.69,5.7,0,.01,0,.02-.02.03-6.37.1-9.2,6.3-12.38,10.33-5.06,6.42-12.69,10.97-22.49,14.12-10.12,3.26-16.47,4.29-25.76,4.92-1.23.09-6.4-.68-10.52-.12.35.45.55.99.55,1.56,0,.73-.33,1.38-.85,1.89Z"/>
      <path class="cls-1" d="m86.32,16.67c-.83-.68-.95-3.06-.99-4.87-.37-.04-.75-.18-1.13-.41-.75-.45-1.4-1-2.03-1.54-.69-.59-1.35-1.15-2.1-1.55-.14-.07-.28-.15-.42-.21-.4.23-.74.5-1.03.84-1.37,1.64-.95,3.95-.58,5.98.11.63.26,1.41.29,2-.24.07-.47.16-.7.25h0s-.03.01-.04.02c-.23.09-.45.19-.67.29-.06.03-.13.06-.19.09-.21.1-.42.22-.62.34-.05.03-.11.06-.16.09-.21.12-.4.26-.6.39-.04.03-.08.06-.12.09-.2.15-.4.3-.58.46-.02.02-.05.04-.08.07-.2.17-.39.34-.57.52-.01.01-.03.03-.04.04-.19.19-.38.38-.56.58,0,0,0,.01-.02.02-1.31,1.45-2.28,3.15-3.1,4.83-.01.02-.02.04-.03.06-.11.22-.21.43-.31.65-.07.14-.13.28-.19.41-.04.09-.09.19-.13.28-.11.24-.22.48-.33.72-.22.48-.43.94-.64,1.39-.06.11-.11.21-.16.32-.16.33-.32.66-.48.96-.29.54-.6,1.08-.92,1.61-.07.12-.15.23-.22.35-.32.52-.66,1.03-1.02,1.54,0,0,0,0,0,.01-.4.55-.81,1.09-1.25,1.63-.04.04-.07.09-.11.13-.43.52-.88,1.04-1.35,1.55-3.53,3.82-8.23,7.29-14.2,10.49-9.77,5.24-15.94,7.36-24.56,9.62-.28.08-1.14.18-1.97.28-4.13.51-8.46,1.19-11.3,2.78,1.58.22,2.79,1.39,2.79,2.8,0,.85-.44,1.6-1.13,2.12,1.23.52,2.81.97,4.66,1.3,1.86.32,3.98.52,6.32.54,4.66.05,10.12-.55,15.82-1.85,2.85-.64,5.75-1.51,8.65-2.5,2.89-1.02,5.77-2.21,8.55-3.6,5.58-2.73,10.75-6.27,14.89-10.31,2.05-2.04,3.86-4.17,5.35-6.36,1.48-2.19,2.66-4.41,3.55-6.55.88-2.14,1.49-4.18,1.9-6.03.39-1.85.61-3.49.73-4.86.1-1.36.16-2.44.15-3.18,0-.74,0-1.13,0-1.13l.78-.05s.04.4.11,1.15c.08.75.15,1.85.15,3.26,0,2.81-.32,6.92-1.97,11.55-.82,2.31-1.93,4.74-3.43,7.12-1.5,2.37-3.31,4.74-5.45,6.93-2.15,2.18-4.54,4.27-7.16,6.11-2.62,1.85-5.42,3.5-8.32,4.95-2.9,1.46-5.91,2.65-8.92,3.69-3.02,1.02-6.05,1.82-9.02,2.42-2.96.61-5.87,1.01-8.64,1.2-2.77.22-5.41.22-7.83.05-2.42-.15-4.64-.51-6.57-.99-1.93-.47-3.57-1.1-4.84-1.78-.3-.16-.58-.32-.84-.48-.27.06-.55.1-.83.1-1.07,0-2.01-.44-2.62-1.11,0,2.57,2.63,4,4.44,4.98.37.2.74.4,1.07.6,5.91,3.54,12.13,5.26,19,5.26s13.67-1.61,21.85-4.91c10.74-4.34,22.11-13.02,29.68-22.66,3.96-5.05,7.06-13.47,7.37-20.02.2-4.16-1.6-8.02-5.04-10.86Z"/>
      <path class="cls-1" d="m3.54,45.42c1.29-.51,2.06-1.63,1.72-2.51-.34-.87-1.67-1.16-2.96-.65-1.3.51-2.06,1.63-1.72,2.5.35.87,1.67,1.16,2.97.65Z"/>
    </g>
  </g>
</svg>