<?xml version="1.0" encoding="UTF-8"?>
<svg xmlns="http://www.w3.org/2000/svg" viewBox="0 0 87.7 86.36">
  <defs>
    <style>
      .cls-1 {
        fill: #d7e7af;
        mix-blend-mode: multiply;
        stroke-width: 0px;
      }

      .cls-2 {
        isolation: isolate;
      }
    </style>
  </defs>
  <g class="cls-2">
    <g id="_レイヤー_2" data-name="レイヤー 2">
      <g id="m">
        <path class="cls-1" d="m64.76,12.56C59.61,2.46,47.68-2.54,36.68,1.29c-6.25,2.18-10.96,6.78-13.46,12.39-1.73.06-3.48.37-5.21.96-9.32,3.2-14.31,13.32-11.19,22.65C1.22,40.82-1.45,47.84.79,54.37c2.62,7.62,10.92,11.68,18.54,9.06,2.55-.88,4.7-2.4,6.33-4.31,1,.04,2.03.18,3.11.29.56.06,1.12.17,1.7.26.58.08,1.16.19,1.74.32.58.13,1.17.24,1.76.39l1.75.49c.59.16,1.14.39,1.72.58l.86.3.83.35c.55.24,1.11.45,1.63.72.53.27,1.05.53,1.55.79.52.25.98.58,1.46.85.45.28.9.54,1.31.84.43.74.85,1.48,1.24,2.23.75,1.41,1.5,2.8,2.17,4.19.69,1.37,1.34,2.71,1.93,3.99.6,1.28,1.17,2.49,1.66,3.62.5,1.13.96,2.16,1.36,3.08.4.94.74,1.75,1.03,2.42.28.65.5,1.17.65,1.53l5.95-2.04c-.12-.3-.29-.74-.5-1.3-.22-.56-.49-1.25-.71-2.01-.22-.78-.54-1.6-.76-2.59-.23-.98-.54-2.01-.74-3.14-.11-.56-.23-1.14-.35-1.73-.11-.59-.19-1.2-.28-1.82-.21-1.23-.33-2.52-.47-3.83-.11-1.31-.22-2.64-.27-3.97-.05-1.34-.09-2.67-.07-3.98-.02-1.31.06-2.61.1-3.85.08-1.25.14-2.45.25-3.59.09-1.14.22-2.21.34-3.2.24-1.97.52-3.59.73-4.72.06-.32.12-.59.17-.82,1.03.82,2.13,1.54,3.31,2.12-.12.27-.23.54-.36.82-.23.51-.39,1.07-.6,1.64-.19.57-.42,1.15-.57,1.76-.16.61-.33,1.24-.51,1.88-.15.64-.27,1.31-.4,1.98-.15.67-.24,1.36-.32,2.05-.07.7-.21,1.39-.23,2.11-.04.71-.09,1.42-.13,2.14-.02.71,0,1.43,0,2.15-.01.72.04,1.43.08,2.14.06.71.07,1.41.17,2.11.17,1.39.33,2.75.6,4.04.21,1.3.54,2.54.82,3.71.28,1.17.66,2.25.95,3.25.31,1,.69,1.91.97,2.71.28.82.58,1.46.82,2.01.2.46.36.83.48,1.11l2.6-.89c-.09-.3-.22-.7-.38-1.22-.17-.56-.41-1.26-.58-2.02-.18-.78-.43-1.62-.62-2.59-.17-.97-.42-2.01-.56-3.12-.15-1.11-.33-2.28-.39-3.5-.12-1.21-.13-2.47-.15-3.73-.02-.63.04-1.27.06-1.91.02-.64.05-1.28.13-1.91.07-.63.12-1.27.21-1.9.11-.62.21-1.24.32-1.86.09-.62.27-1.21.4-1.8.13-.59.27-1.17.47-1.72.18-.56.33-1.11.52-1.63.2-.52.4-1.03.6-1.52.18-.5.43-.95.63-1.4.22-.44.4-.89.63-1.27.39-.64.71-1.26,1.05-1.79,2.34.16,4.74-.11,7.09-.92,9.38-3.22,14.37-13.43,11.15-22.8-3.12-9.09-12.82-14.06-21.96-11.41Zm-24.05,46.51l-.83-.54-.87-.49c-.58-.32-1.16-.68-1.76-.96l-1.81-.87c-.6-.28-1.23-.52-1.84-.77-.61-.26-1.22-.49-1.84-.7-.61-.21-1.22-.44-1.82-.62-.46-.13-.92-.27-1.37-.4.46-1.59.67-3.27.57-4.97.17-.05.34-.1.52-.16.02,0,.04-.02.06-.02.14.06.28.11.43.17.15.06.3.11.46.17.16.07.32.17.49.26.34.18.7.37,1.09.58.37.26.77.53,1.18.81.43.25.82.66,1.26,1.01.22.18.44.37.67.55.22.21.43.43.66.65.91.85,1.79,1.9,2.73,2.97.88,1.15,1.82,2.31,2.67,3.61.06.08.11.16.17.24-.27-.17-.54-.34-.8-.52Zm10.27-10.23c-.01,1.07-.03,2.23,0,3.45,0,1.22.08,2.51.14,3.84.1,1.33.17,2.7.33,4.09.12,1.34.3,2.69.5,4.04-.54-1.38-1.14-2.77-1.73-4.17-.74-1.57-1.43-3.15-2.26-4.68-.76-1.55-1.67-3.03-2.52-4.47-.94-1.42-1.85-2.8-2.88-4.05-.25-.31-.49-.62-.72-.92,3.05.32,6.2.02,9.3-.95-.07,1.08-.13,2.36-.16,3.83Zm5.61-6.34c.1-.06.2-.12.29-.18.09.09.19.18.28.27l-.57-.09Z"/>
      </g>
    </g>
  </g>
</svg>