<?xml version="1.0" encoding="UTF-8"?>
<svg id="_レイヤー_2" data-name="レイヤー 2" xmlns="http://www.w3.org/2000/svg" viewBox="0 0 72.3 84.82">
  <defs>
    <style>
      .cls-1 {
        fill: #dcc9ad;
        stroke-width: 0px;
      }
    </style>
  </defs>
  <g id="m">
    <g>
      <path class="cls-1" d="m23.96,39.95c-.79-1.35-1.68-2.62-2.63-3.77-.62-.75-1.28-1.5-1.99-2.22-.46-.46-.93-.9-1.43-1.33-.18-.15-.36-.31-.55-.45-.63-.5-1.29-.96-1.97-1.37-.44-.26-.88-.51-1.34-.72-.32-.15-.66-.28-1-.39-.39-.13-.79-.22-1.2-.29-2.56-.39-4.9.7-6.8,2.84-.4.45-.76.93-1.1,1.42-.2.3-.39.6-.58.91-.14.24-.27.48-.4.72-.11.21-.21.42-.32.63-.28.58-.53,1.18-.76,1.78-.35.92-.65,1.86-.9,2.8-.4,1.45-.7,2.98-.86,4.54-.24,2.31-.19,4.68.29,6.93.41,1.94,1.15,3.79,2.28,5.43.15.21.3.42.46.63,1.02,1.32,2.28,2.47,3.73,3.37.25.16.51.31.78.46.35.19.7.36,1.06.52,3.33,1.48,7.15,1.63,10.49.07.41-.19.81-.41,1.2-.65.35-.22.68-.45,1.02-.71.37-.29.74-.61,1.09-.95.74-.73,1.4-1.54,1.97-2.41,1.08-1.66,1.81-3.51,2.17-5.41.37-1.98.29-3.98-.13-5.93-.48-2.25-1.4-4.44-2.58-6.46Zm-15.15-1.16c-.8,2.1-2.49,3.48-3.79,3.08-1.3-.4-1.7-2.43-.91-4.54.8-2.1,2.49-3.48,3.79-3.08,1.3.4,1.7,2.43.91,4.54Z"/>
      <path class="cls-1" d="m71.7,64.67c-.34-1.52-.82-3-1.38-4.39-.36-.91-.77-1.82-1.23-2.71-.3-.58-.62-1.14-.96-1.69-.13-.2-.25-.4-.39-.6-.45-.67-.94-1.3-1.47-1.89-.34-.38-.69-.75-1.07-1.09-.26-.24-.54-.47-.83-.67-.33-.24-.68-.45-1.05-.63-2.33-1.14-4.89-.81-7.34.67-.52.31-1.01.66-1.48,1.03-.28.22-.56.46-.82.7-.2.18-.4.37-.6.57-.17.17-.33.33-.49.51-.44.47-.86.96-1.26,1.47-.61.78-1.18,1.58-1.7,2.4-.81,1.26-1.56,2.63-2.18,4.07-.93,2.13-1.59,4.41-1.81,6.7-.19,1.97-.04,3.96.54,5.86.08.25.16.5.25.74.58,1.56,1.44,3.04,2.54,4.34.19.23.4.45.6.67.27.28.56.56.85.82,2.73,2.41,6.32,3.71,9.98,3.22.45-.06.9-.15,1.35-.26.39-.1.79-.22,1.18-.37.44-.16.89-.36,1.32-.58.93-.47,1.8-1.05,2.6-1.71,1.52-1.26,2.78-2.8,3.69-4.5.95-1.77,1.47-3.71,1.66-5.69.22-2.29,0-4.66-.52-6.93Zm-14.1-5.66c-1.39,1.77-3.42,2.57-4.54,1.8-1.11-.77-.89-2.83.5-4.6,1.39-1.77,3.42-2.57,4.54-1.8,1.11.77.89,2.83-.5,4.6Z"/>
      <path class="cls-1" d="m47.78,41.86c.57-.13,1.14-.29,1.72-.48,1.22-.42,2.38-.98,3.48-1.65,2.08-1.28,3.88-2.96,5.29-4.88,1.46-2.01,2.43-4.29,3-6.69.66-2.77.79-5.7.55-8.57-.16-1.92-.49-3.81-.94-5.61-.29-1.17-.64-2.36-1.05-3.53-.27-.75-.56-1.5-.89-2.24-.12-.27-.24-.53-.37-.8-.43-.89-.93-1.75-1.48-2.57-.35-.52-.72-1.03-1.12-1.51-.28-.34-.58-.66-.91-.97-.37-.35-.76-.67-1.18-.95-2.65-1.79-5.84-1.82-9.09-.43-.68.29-1.35.63-1.98,1.01-.38.22-.76.46-1.13.71-.28.19-.55.39-.83.59-.23.17-.46.35-.69.54-.62.5-1.22,1.03-1.79,1.58-.88.84-1.71,1.74-2.49,2.65-1.21,1.41-2.36,2.96-3.37,4.6-1.5,2.45-2.7,5.12-3.35,7.89-.56,2.38-.73,4.83-.33,7.27.05.32.11.63.18.95.44,2.01,1.24,3.96,2.37,5.74.2.31.41.62.62.92.29.39.59.78.9,1.14,2.94,3.42,7.11,5.61,11.67,5.63.56,0,1.12-.03,1.69-.09.5-.06,1-.14,1.51-.25Zm-8.13-30.17c-1.23-1.14-.61-3.62,1.39-5.54,2-1.93,4.63-2.57,5.86-1.43,1.23,1.14.61,3.62-1.39,5.54-2,1.93-4.63,2.57-5.86,1.43Z"/>
    </g>
  </g>
</svg>