<?xml version="1.0" encoding="UTF-8"?>
<svg id="_レイヤー_2" data-name="レイヤー 2" xmlns="http://www.w3.org/2000/svg" viewBox="0 0 95.79 112.39">
  <defs>
    <style>
      .cls-1 {
        opacity: .47;
      }

      .cls-1, .cls-2, .cls-3, .cls-4 {
        stroke-width: 0px;
      }

      .cls-1, .cls-4 {
        fill: #fdfffb;
      }

      .cls-2 {
        fill: #f2f3ec;
      }

      .cls-3 {
        fill: #f7b47a;
      }
    </style>
  </defs>
  <g id="_01" data-name="01">
    <g>
      <g>
        <path class="cls-2" d="m31.75,52.94c-1.04-1.79-2.23-3.47-3.49-5-.82-1-1.7-1.99-2.64-2.94-.61-.61-1.23-1.2-1.89-1.76-.24-.2-.48-.4-.73-.6-.83-.66-1.71-1.27-2.61-1.81-.58-.35-1.17-.67-1.78-.95-.43-.2-.87-.37-1.32-.52-.51-.17-1.04-.3-1.58-.38-3.39-.51-6.5.93-9,3.77-.53.6-1.01,1.23-1.46,1.89-.27.39-.52.8-.76,1.21-.18.31-.36.63-.53.95-.14.28-.28.55-.42.83-.37.77-.7,1.56-1,2.36-.46,1.22-.86,2.47-1.19,3.71-.52,1.92-.92,3.95-1.14,6.01-.32,3.06-.25,6.2.39,9.18.55,2.57,1.52,5.02,3.02,7.19.2.28.4.56.61.84,1.35,1.74,3.03,3.27,4.94,4.47.34.21.68.41,1.03.6.46.25.93.48,1.4.69,4.42,1.96,9.47,2.17,13.9.09.54-.25,1.07-.54,1.6-.87.46-.28.91-.6,1.35-.94.5-.38.98-.8,1.44-1.26.99-.97,1.86-2.04,2.61-3.2,1.43-2.2,2.4-4.65,2.87-7.16.49-2.62.38-5.27-.17-7.86-.64-2.98-1.86-5.89-3.41-8.55Z"/>
        <path class="cls-4" d="m5.45,49.47c-1.05,2.79-.52,5.48,1.2,6.01,1.72.53,3.96-1.3,5.02-4.08,1.05-2.79.52-5.48-1.2-6.01-1.72-.53-3.96,1.3-5.02,4.08Z"/>
      </g>
      <g>
        <path class="cls-2" d="m94.99,85.69c-.46-2.02-1.08-3.98-1.82-5.82-.48-1.2-1.02-2.41-1.64-3.59-.39-.76-.82-1.51-1.27-2.24-.17-.27-.34-.53-.51-.79-.59-.88-1.25-1.72-1.95-2.51-.45-.5-.91-.99-1.41-1.44-.35-.32-.72-.62-1.1-.89-.44-.31-.91-.6-1.4-.84-3.08-1.51-6.47-1.07-9.72.89-.68.41-1.34.87-1.96,1.36-.37.3-.74.6-1.09.92-.27.24-.53.49-.79.75-.22.22-.44.44-.65.67-.58.62-1.14,1.27-1.67,1.94-.81,1.03-1.56,2.1-2.25,3.18-1.08,1.67-2.07,3.49-2.89,5.39-1.23,2.82-2.11,5.84-2.39,8.87-.25,2.61-.06,5.24.72,7.77.1.33.21.66.33.98.77,2.07,1.9,4.03,3.36,5.75.26.3.52.6.8.88.36.38.74.74,1.13,1.08,3.62,3.19,8.38,4.91,13.23,4.26.59-.08,1.19-.19,1.78-.35.52-.13,1.04-.3,1.57-.49.59-.22,1.17-.47,1.75-.77,1.23-.62,2.39-1.39,3.45-2.26,2.02-1.66,3.69-3.71,4.89-5.97,1.26-2.35,1.95-4.91,2.2-7.55.29-3.04,0-6.17-.68-9.18Z"/>
        <path class="cls-4" d="m70.96,74.47c-1.84,2.34-2.14,5.07-.66,6.09,1.48,1.02,4.17-.04,6.01-2.39,1.84-2.34,2.14-5.07.66-6.09-1.48-1.02-4.17.04-6.01,2.39Z"/>
      </g>
      <g>
        <path class="cls-3" d="m81.89,25.95c-.21-2.54-.65-5.05-1.24-7.43-.39-1.55-.84-3.12-1.39-4.68-.35-1-.74-1.99-1.17-2.96-.16-.35-.32-.71-.49-1.05-.58-1.18-1.23-2.32-1.96-3.4-.46-.69-.95-1.37-1.48-2.01-.37-.45-.77-.88-1.2-1.28-.49-.46-1.01-.88-1.57-1.26-3.52-2.37-7.74-2.41-12.05-.57-.91.39-1.78.83-2.63,1.33-.51.3-1.01.61-1.49.95-.37.25-.73.51-1.09.78-.31.23-.61.47-.91.71-.82.66-1.61,1.37-2.37,2.1-1.17,1.12-2.26,2.3-3.3,3.5-1.6,1.86-3.12,3.92-4.46,6.1-1.99,3.25-3.57,6.79-4.44,10.45-.75,3.16-.96,6.4-.44,9.63.07.42.15.84.24,1.26.58,2.66,1.64,5.25,3.14,7.6.26.42.54.82.83,1.22.38.52.78,1.03,1.2,1.51,3.89,4.53,9.42,7.44,15.46,7.47.74,0,1.49-.04,2.24-.12.66-.07,1.33-.18,2-.33.76-.17,1.52-.38,2.28-.64,1.61-.56,3.16-1.29,4.61-2.18,2.75-1.69,5.14-3.92,7-6.47,1.94-2.66,3.22-5.68,3.97-8.86.87-3.67,1.04-7.55.72-11.35Z"/>
        <path class="cls-1" d="m54.38,8.14c-2.65,2.55-3.48,5.84-1.85,7.34,1.63,1.5,5.11.66,7.76-1.9,2.65-2.55,3.48-5.84,1.85-7.34-1.63-1.5-5.11-.66-7.76,1.9Z"/>
      </g>
    </g>
  </g>
</svg>