<?xml version="1.0" encoding="UTF-8"?>
<svg id="_レイヤー_2" data-name="レイヤー 2" xmlns="http://www.w3.org/2000/svg" viewBox="0 0 186.52 160.84">
  <defs>
    <style>
      .cls-1 {
        fill: #25531d;
      }

      .cls-1, .cls-2, .cls-3 {
        stroke-width: 0px;
      }

      .cls-2 {
        fill: #ae2521;
      }

      .cls-3 {
        fill: #6ab539;
      }
    </style>
  </defs>
  <g id="_01" data-name="01">
    <g>
      <path class="cls-3" d="m108.77,21.09C100.13,4.13,80.09-4.27,61.6,2.16c-10.5,3.66-18.41,11.39-22.61,20.8-2.91.1-5.85.62-8.75,1.62-15.66,5.38-24.03,22.37-18.8,38.05-9.41,5.92-13.89,17.71-10.12,28.68,4.4,12.81,18.34,19.62,31.14,15.22,4.29-1.47,7.89-4.03,10.63-7.24,1.68.07,3.4.3,5.22.48.94.11,1.88.29,2.86.44.97.14,1.95.31,2.91.55.97.22,1.97.41,2.95.66l2.93.83c.99.26,1.92.65,2.89.97l1.44.5,1.39.59c.92.41,1.86.76,2.74,1.2.88.45,1.76.89,2.61,1.33.87.42,1.64.97,2.45,1.43.76.47,1.52.9,2.2,1.42.72,1.24,1.42,2.48,2.08,3.74,1.26,2.38,2.52,4.71,3.65,7.03,1.16,2.3,2.26,4.54,3.25,6.7,1.01,2.15,1.97,4.19,2.79,6.08.84,1.89,1.61,3.64,2.29,5.17.67,1.57,1.25,2.94,1.72,4.07.47,1.1.83,1.96,1.08,2.56l9.99-3.43c-.19-.5-.48-1.25-.84-2.19-.38-.95-.82-2.1-1.19-3.37-.37-1.31-.91-2.68-1.28-4.34-.39-1.64-.92-3.38-1.25-5.28-.19-.95-.38-1.91-.58-2.9-.18-.99-.31-2.02-.48-3.06-.36-2.07-.55-4.24-.79-6.43-.18-2.2-.36-4.44-.45-6.67-.09-2.24-.15-4.48-.12-6.69-.03-2.2.1-4.38.16-6.47.14-2.1.23-4.12.43-6.03.15-1.91.37-3.71.57-5.37.41-3.31.88-6.04,1.23-7.93.11-.54.2-.99.28-1.38,1.72,1.38,3.58,2.58,5.56,3.56-.19.45-.39.9-.61,1.37-.39.86-.66,1.8-1.02,2.75-.32.95-.71,1.92-.96,2.96-.28,1.03-.56,2.08-.86,3.16-.25,1.08-.45,2.2-.68,3.33-.25,1.13-.4,2.28-.54,3.45-.12,1.17-.35,2.34-.39,3.54-.07,1.19-.15,2.39-.22,3.59-.03,1.2,0,2.41-.01,3.61-.02,1.2.06,2.4.14,3.59.1,1.19.11,2.37.28,3.54.28,2.33.55,4.61,1.01,6.79.35,2.19.9,4.26,1.38,6.23.46,1.97,1.11,3.77,1.6,5.46.52,1.68,1.15,3.21,1.63,4.56.48,1.38.98,2.45,1.37,3.37.34.77.61,1.4.81,1.87l4.36-1.5c-.15-.5-.37-1.18-.64-2.04-.28-.95-.69-2.12-.97-3.4-.3-1.31-.72-2.73-1.04-4.35-.28-1.63-.71-3.37-.94-5.24-.25-1.87-.55-3.83-.65-5.87-.21-2.04-.22-4.14-.25-6.27-.04-1.06.07-2.14.1-3.21.04-1.07.08-2.14.22-3.21.12-1.06.21-2.13.35-3.18.18-1.04.36-2.09.53-3.12.15-1.04.46-2.03.67-3.02.22-.99.46-1.96.78-2.89.3-.93.56-1.86.87-2.74.34-.87.68-1.72,1-2.55.3-.84.72-1.59,1.06-2.34.37-.74.67-1.49,1.07-2.14.65-1.08,1.18-2.12,1.77-3,3.92.28,7.96-.19,11.91-1.55,15.75-5.41,24.13-22.55,18.72-38.29-5.24-15.27-21.54-23.61-36.88-19.16Zm-40.39,78.11l-1.4-.91-1.45-.82c-.98-.53-1.94-1.14-2.95-1.61l-3.04-1.47c-1.02-.47-2.06-.87-3.08-1.3-1.02-.44-2.06-.82-3.09-1.17-1.03-.35-2.04-.73-3.05-1.04-.78-.22-1.54-.45-2.3-.67.78-2.68,1.13-5.49.95-8.35.29-.09.58-.17.87-.27.03-.01.06-.03.1-.04.24.09.46.18.72.28.25.09.51.19.78.29.26.12.54.29.82.44.57.31,1.18.63,1.82.98.63.43,1.29.89,1.98,1.36.72.43,1.38,1.11,2.12,1.7.37.3.74.62,1.12.93.36.36.73.72,1.1,1.09,1.53,1.42,3.01,3.18,4.58,4.98,1.47,1.93,3.05,3.87,4.49,6.06.09.13.18.27.28.41-.45-.29-.9-.58-1.35-.88Zm17.25-17.18c-.02,1.8-.05,3.74,0,5.79,0,2.05.14,4.22.23,6.45.17,2.23.28,4.53.56,6.87.21,2.25.51,4.52.84,6.78-.91-2.32-1.92-4.65-2.9-7-1.24-2.63-2.4-5.3-3.79-7.86-1.28-2.6-2.8-5.08-4.24-7.51-1.58-2.38-3.1-4.7-4.84-6.81-.41-.52-.82-1.04-1.22-1.54,5.12.54,10.42.04,15.61-1.6-.11,1.81-.22,3.97-.26,6.43Zm9.42-10.65c.16-.1.33-.19.49-.3.15.16.32.3.47.45l-.96-.15Z"/>
      <path class="cls-1" d="m142.9,103.27c.74-.57,2.37-.95,3.15-.92,2.53.1,7.4,2.17,9.89-2.13,2.67-4.64,6.93-7.37,6.93-7.37,0,0-6.73-2.17-9.89,2.13-1.17,1.6-2.35,2.95-3.39,4.06.68-.88,1.3-1.93,1.71-3.13,1.39-4.06-.19-8.28-.19-8.28,0,0-3.28,2.03-4.87,5.54,0-.24-.25-10.25,7.82-15.05,0,0,.02-.01.03-.02.49-.39.6-1.1.21-1.6-.38-.5-1.1-.6-1.6-.21,0,0-.31.23-.84.64-.23.17-1.82,1.58-2.07,1.87-.4.42-.83.88-1.23,1.41-.26.31-1.17,1.65-1.2,1.7-.21.3-.36.63-.55.95-.18.32-.36.65-.51,1-.15.34-.32.69-.46,1.04l-.07.18c-.08-.08-.32.9-.32.9-.14.36-.21.74-.32,1.1-.1.37-.2.73-.26,1.11-.07.37-.15.74-.2,1.1-.03.3-.15,1.54-.15,1.54,0,0,0,0,0,0-.03.55-.05,1.09-.03,1.61.01.3.03.6.04.88-1.39-2.24-3.37-3.55-3.37-3.55,0,0-1.77,3.38-1.11,6.93-.27-.31-.55-.62-.86-.91-3.17-2.89-7.67-3.12-7.67-3.12,0,0,.64,4.46,3.81,7.35,1.34,1.22,2.92,1.96,4.29,2.42-1.7-.44-3.9-1.13-6.32-2.19-4.89-2.14-9.62,3.12-9.62,3.12,0,0,5.05.23,9.69,2.9,4.31,2.48,7.52-1.49,9.5-3.01Z"/>
      <path class="cls-2" d="m163.75,94.97c-.98.7-3.92,2.99-5.87,6.37-1.04,1.8-2.53,2.99-4.42,3.52-2.12.59-4.23.23-5.93-.06-.61-.1-1.18-.2-1.56-.22-.1,0-.48.04-.95.17s-.7.26-.76.3c-.27.21-.57.48-.9.76-1.26,1.1-2.98,2.61-5.18,3.22-2,.56-3.98.28-5.88-.81-2.19-1.26-4.52-1.92-6.21-2.26-6.47,8.2-9.08,19.27-6.06,30.11,5.03,18.02,23.71,28.55,41.73,23.52s28.55-23.71,23.52-41.73c-3.1-11.11-11.39-19.36-21.51-22.89Z"/>
    </g>
  </g>
</svg>