<?xml version="1.0" encoding="UTF-8"?>
<svg id="_レイヤー_2" data-name="レイヤー 2" xmlns="http://www.w3.org/2000/svg" viewBox="0 0 75.37 63.67">
  <defs>
    <style>
      .cls-1 {
        fill: #f4aba8;
      }

      .cls-1, .cls-2, .cls-3, .cls-4 {
        stroke-width: 0px;
      }

      .cls-2 {
        fill: #c07c70;
      }

      .cls-3 {
        fill: #eee9d5;
      }

      .cls-4 {
        fill: #f6cdbe;
      }
    </style>
  </defs>
  <g id="m">
    <g>
      <path class="cls-1" d="m71.28,31.51c.03.33.07.66.1,1.04t0,.04c.38,3.71.96,9.55.39,14.95-2.13,2.68-5.31,5.21-8.82,4.67-7.01-.38-12.53-7.22-19.4-8.47-5.69-1.03-12.27,2.2-17.97,2.81-5.4.49-20.77-1.62-22.93-8.79v-.03C3.04,23.2,22.56,6.78,33.34,3.66c9.05-2.64,20.42.74,27.9,5.97,7.03,4.92,9.13,13.87,10.04,21.88Z"/>
      <path class="cls-4" d="m71.28,31.51c.03.33.07.66.1,1.04t0,.04c.38,3.71.96,9.55.39,14.95-2.13,2.68-5.31,5.21-8.82,4.67-7.01-.38-12.53-7.22-19.4-8.47-5.69-1.03-12.27,2.2-17.97,2.81-5.4.49-20.77-1.62-22.93-8.79v-.03C3.04,23.2,22.56,6.78,33.34,3.66c9.05-2.64,20.42.74,27.9,5.97,7.03,4.92,9.13,13.87,10.04,21.88Zm-11.38-27.17C50.94-.79,39.13-1.28,29.67,2.39,14.73,8.2-6.14,30.88,1.71,47.93c3.39,7.36,11.03,10.07,18.59,9.09,5.34-.7,10.57-1.95,15.99-1.91,6.03.08,10.79,4.11,15.79,6.89,7.15,3.97,13.89.34,18.78-5.25,6.26-7.18,4.45-18.71,3.63-27.33-1.25-10.83-4.8-19.5-14.59-25.08Z"/>
      <path class="cls-3" d="m47.94,17.4c1.82,7.82-14.69,11.9-19.4,7.5-4.05-3.83.04-8.06,3.95-10.47,4.7-2.76,13.95-3.02,15.44,2.98Z"/>
      <path class="cls-2" d="m70.28,57.39c-4.83,5.22-11.32,8.42-18.2,4.6-5-2.78-9.76-6.81-15.79-6.89-5.42-.05-10.65,1.21-15.99,1.91-7.56.98-15.2-1.73-18.59-9.09-.81-1.74-1.31-3.56-1.53-5.4,2.6,5.46,9.03,8.97,15.23,9.18,6.63.2,12.99-1.28,19.32-1.29,2.49-.13,5.48-.33,7.81-.01,2.4.46,4.64,2.09,6.74,3.41,3.33,2.36,8.62,6.84,12.85,6.23,2.05-.31,5.17-1.27,8.13-2.65Z"/>
    </g>
  </g>
</svg>