<?xml version="1.0" encoding="UTF-8"?>
<svg id="_レイヤー_2" data-name="レイヤー 2" xmlns="http://www.w3.org/2000/svg" viewBox="0 0 143.36 115.64">
  <defs>
    <style>
      .cls-1 {
        fill: #f4dab7;
      }

      .cls-1, .cls-2, .cls-3, .cls-4 {
        stroke-width: 0px;
      }

      .cls-2 {
        fill: #f49e3b;
      }

      .cls-3 {
        fill: #bf442b;
      }

      .cls-4 {
        fill: #fdfffb;
      }
    </style>
  </defs>
  <g id="_01" data-name="01">
    <g>
      <path class="cls-4" d="m66.61,26.99c-.12,0-.24-.02-.37-.02-29.44,0-53.32,17.75-53.32,39.66,0,.29.02.6.03.89h106.58c.01-.29.04-.6.04-.89,0-21.81-23.68-39.5-52.97-39.64Z"/>
      <polygon class="cls-2" points="83.07 74.19 140.5 15.42 143.36 18.45 83.4 77.22 83.07 74.19"/>
      <polygon class="cls-2" points="79.53 72.75 121.8 0 125.26 2.05 80.8 75.52 79.53 72.75"/>
      <path class="cls-3" d="m66.61,57.83H0c.19,8.3,1.89,16.22,4.86,23.49,8.52,20.91,29.19,34.32,51.77,34.32h19.28c21.79,0,41.99-12.43,50.87-32.33,3.49-7.81,5.51-16.42,5.71-25.48h-65.88Z"/>
      <path class="cls-1" d="m31.22,44.59c-.36,0-.7-.23-.82-.59l-.62-1.84c-.15-.45.09-.95.54-1.1.46-.15.95.09,1.1.54l.62,1.84c.15.45-.09.95-.54,1.1-.09.03-.19.04-.28.04Z"/>
      <path class="cls-1" d="m45.62,44.11c-.26.25-.66.33-1,.16l-1.73-.87c-.43-.22-.6-.74-.39-1.16.22-.43.74-.6,1.16-.39l1.73.87c.43.22.6.74.39,1.16-.04.09-.1.16-.17.23Z"/>
      <path class="cls-1" d="m61.46,32.87c-.11-.35.01-.73.32-.96l1.58-1.13c.39-.28.93-.19,1.21.2.28.39.19.93-.2,1.21l-1.58,1.13c-.39.28-.93.19-1.21-.2-.06-.08-.1-.17-.12-.25Z"/>
      <path class="cls-1" d="m78.98,33.91c-.22-.29-.23-.7-.02-1.01l1.11-1.59c.27-.39.81-.49,1.21-.22.39.28.49.81.22,1.21l-1.11,1.59c-.27.39-.81.49-1.21.22-.08-.06-.15-.12-.2-.2Z"/>
      <path class="cls-1" d="m93.05,39.81c-.35.08-.73-.06-.94-.38l-1.03-1.64c-.25-.4-.13-.94.27-1.19.41-.25.94-.13,1.19.27l1.03,1.64c.25.4.13.94-.27,1.19-.08.05-.17.09-.26.11Z"/>
      <path class="cls-1" d="m105.15,48.92c-.35.08-.73-.06-.94-.38l-1.03-1.64c-.25-.4-.13-.94.27-1.19.41-.25.94-.13,1.19.27l1.03,1.64c.25.4.13.94-.27,1.19-.08.05-.17.09-.26.11Z"/>
      <path class="cls-1" d="m69.32,36.27c.2-.3.58-.45.95-.35l1.87.53c.46.13.73.61.6,1.07-.13.46-.61.73-1.07.6l-1.87-.53c-.46-.13-.73-.61-.6-1.07.03-.09.07-.18.12-.25Z"/>
      <path class="cls-1" d="m80.79,39.91c.32.17.51.53.45.9l-.31,1.91c-.08.47-.52.79-.99.72-.47-.08-.79-.52-.72-.99l.31-1.91c.08-.47.52-.79.99-.72.09.02.18.05.27.09Z"/>
      <path class="cls-1" d="m112.18,53.17c.32.17.51.53.45.9l-.31,1.91c-.08.47-.52.79-.99.72-.47-.08-.79-.52-.72-.99l.31-1.91c.08-.47.52-.79.99-.72.09.02.18.05.27.09Z"/>
      <path class="cls-1" d="m89.08,47.47c.08.35-.07.73-.4.93l-1.66,1c-.41.25-.94.12-1.19-.29-.24-.41-.12-.94.29-1.19l1.66-1c.41-.25.94-.11,1.19.29.05.08.08.17.1.26Z"/>
      <path class="cls-1" d="m76.49,52c.34-.12.73-.01.97.29l1.18,1.54c.29.38.22.92-.16,1.21-.38.29-.92.22-1.21-.16l-1.18-1.54c-.29-.38-.22-.92.16-1.21.08-.06.16-.1.25-.13Z"/>
      <path class="cls-1" d="m24.8,54.64c-.26.25-.66.33-1,.16l-1.73-.87c-.43-.22-.6-.74-.39-1.16.22-.43.74-.6,1.16-.39l1.73.87c.43.22.6.74.39,1.16-.04.09-.1.16-.17.23Z"/>
      <path class="cls-1" d="m55.14,39.52c-.33-.14-.55-.48-.52-.86l.16-1.93c.04-.48.46-.83.93-.8.48.04.83.46.8.93l-.16,1.93c-.04.48-.46.83-.93.8-.1,0-.19-.03-.27-.07Z"/>
      <path class="cls-1" d="m66,49.07c-.13-.34-.04-.73.26-.98l1.5-1.23c.37-.3.92-.25,1.22.12.3.37.25.92-.12,1.22l-1.5,1.23c-.37.3-.92.25-1.22-.12-.06-.07-.11-.16-.14-.24Z"/>
      <path class="cls-1" d="m34.68,52.2c-.15-.33-.09-.73.19-.99l1.4-1.34c.35-.33.9-.32,1.22.03.33.35.32.9-.03,1.22l-1.4,1.34c-.35.33-.9.32-1.22-.03-.07-.07-.12-.15-.16-.23Z"/>
      <path class="cls-1" d="m48.83,54.89c-.36.03-.72-.16-.87-.51l-.79-1.77c-.19-.44,0-.95.44-1.14.44-.19.95,0,1.14.44l.79,1.77c.19.44,0,.95-.44,1.14-.09.04-.18.06-.27.07Z"/>
      <path class="cls-1" d="m55.72,48.88c-.3-.21-.44-.59-.33-.95l.55-1.86c.14-.46.62-.72,1.08-.58.46.14.72.62.58,1.08l-.55,1.86c-.14.46-.62.72-1.08.58-.09-.03-.18-.07-.25-.12Z"/>
      <path class="cls-1" d="m44.45,36.03c-.3-.21-.44-.59-.33-.95l.55-1.86c.14-.46.62-.72,1.08-.58.46.14.72.62.58,1.08l-.55,1.86c-.14.46-.62.72-1.08.58-.09-.03-.18-.07-.25-.12Z"/>
    </g>
  </g>
</svg>