<?xml version="1.0" encoding="UTF-8"?>
<svg id="_レイヤー_2" data-name="レイヤー 2" xmlns="http://www.w3.org/2000/svg" viewBox="0 0 138.8 91.92">
  <defs>
    <style>
      .cls-1 {
        fill: #f08732;
        stroke-width: 0px;
      }
    </style>
  </defs>
  <g id="_モバイル" data-name="モバイル">
    <g>
      <path class="cls-1" d="m32.16,51.83l-9.82-4.38c-1.72.57-3.52.86-5.34.86C7.62,48.31,0,40.68,0,31.31S7.62,14.32,17,14.32s17,7.62,17,17c0,3.59-1.1,7-3.18,9.9l1.34,10.61Zm-9.73-6.44l7.4,3.3-1.01-8,.23-.31c1.98-2.63,3.03-5.77,3.03-9.07,0-8.31-6.76-15.08-15.08-15.08S1.92,23,1.92,31.31s6.76,15.08,15.08,15.08c1.73,0,3.44-.29,5.06-.87l.36-.13Z"/>
      <path class="cls-1" d="m106.53,51.93l1.36-10.66c-1.04-1.49-1.84-3.12-2.36-4.87-1.31-4.35-.85-8.94,1.3-12.94s5.72-6.92,10.07-8.23c8.97-2.71,18.47,2.4,21.18,11.37,1.31,4.35.85,8.94-1.3,12.94s-5.72,6.92-10.07,8.23c-3.44,1.04-7.02.97-10.4-.19l-9.77,4.35Zm15.26-35.51c-1.44,0-2.9.21-4.34.64-3.86,1.16-7.03,3.76-8.93,7.31s-2.31,7.63-1.15,11.48c.5,1.66,1.27,3.2,2.3,4.6l.23.31-1.02,8.04,7.37-3.28.37.13c3.09,1.14,6.4,1.24,9.56.29,7.96-2.4,12.49-10.83,10.09-18.79-1.96-6.51-7.97-10.73-14.45-10.73Z"/>
      <path class="cls-1" d="m69.5,53.1l-6.91-11.33c-2.22-.64-4.31-1.63-6.21-2.94-9.66-6.67-12.1-19.96-5.43-29.62,3.23-4.68,8.09-7.82,13.69-8.85,5.59-1.03,11.25.19,15.94,3.42,4.68,3.23,7.82,8.09,8.85,13.69s-.19,11.25-3.42,15.94c-2.57,3.73-6.17,6.48-10.42,7.98l-6.08,11.73Zm-.98-51.19c-1.17,0-2.36.11-3.53.32-5.09.93-9.51,3.79-12.45,8.05-6.07,8.79-3.85,20.88,4.94,26.95,1.83,1.27,3.85,2.2,5.99,2.77l.37.1,5.53,9.08,4.87-9.39.37-.12c4.02-1.33,7.41-3.88,9.82-7.38,2.94-4.26,4.05-9.41,3.11-14.5-.93-5.09-3.79-9.51-8.05-12.45-3.27-2.26-7.07-3.44-10.97-3.44Z"/>
      <path class="cls-1" d="m69.9,74.67c-4.67,0-8.47-3.8-8.47-8.47s3.8-8.47,8.47-8.47,8.47,3.8,8.47,8.47-3.8,8.47-8.47,8.47Zm0-15.02c-3.61,0-6.55,2.94-6.55,6.55s2.94,6.55,6.55,6.55,6.55-2.94,6.55-6.55-2.94-6.55-6.55-6.55Z"/>
      <path class="cls-1" d="m86.38,91.92c-.53,0-.96-.43-.96-.96,0-5.8-3.15-11.02-8.25-13.72-4.49,2.28-10.06,2.27-14.52,0-5.11,2.69-8.26,7.91-8.26,13.72,0,.53-.43.96-.96.96s-.96-.43-.96-.96c0-6.72,3.74-12.72,9.77-15.66l.45-.22.44.24c2.06,1.14,4.41,1.74,6.79,1.74s4.69-.58,6.79-1.74l.44-.24.45.22c6.02,2.96,9.75,8.96,9.75,15.66,0,.53-.43.96-.96.96Z"/>
      <path class="cls-1" d="m42.03,67.78c-4.67,0-8.47-3.8-8.47-8.47s3.8-8.47,8.47-8.47,8.47,3.8,8.47,8.47-3.8,8.47-8.47,8.47Zm0-15.02c-3.61,0-6.55,2.94-6.55,6.55s2.94,6.55,6.55,6.55,6.55-2.94,6.55-6.55-2.94-6.55-6.55-6.55Z"/>
      <path class="cls-1" d="m25.56,85.05c-.53,0-.96-.43-.96-.96,0-6.73,3.74-12.73,9.77-15.67l.45-.22.44.24c2.06,1.14,4.41,1.74,6.78,1.74s4.68-.59,6.79-1.74l.44-.24.45.22c4.48,2.2,7.81,6.21,9.13,11,.14.51-.16,1.04-.67,1.18-.5.14-1.04-.16-1.18-.67-1.13-4.1-3.92-7.56-7.69-9.56-2.26,1.16-4.7,1.74-7.26,1.74s-5.03-.6-7.26-1.74c-5.11,2.69-8.26,7.9-8.26,13.73,0,.53-.43.96-.96.96Z"/>
      <path class="cls-1" d="m97.81,67.78c-4.67,0-8.47-3.8-8.47-8.47s3.8-8.47,8.47-8.47,8.47,3.8,8.47,8.47-3.8,8.47-8.47,8.47Zm0-15.02c-3.61,0-6.55,2.94-6.55,6.55s2.94,6.55,6.55,6.55,6.55-2.94,6.55-6.55-2.94-6.55-6.55-6.55Z"/>
      <path class="cls-1" d="m114.28,85.05c-.53,0-.96-.43-.96-.96,0-5.82-3.15-11.04-8.26-13.73-2.23,1.14-4.73,1.74-7.26,1.74s-4.99-.59-7.26-1.74c-3.77,2-6.56,5.46-7.69,9.56-.14.51-.67.81-1.18.67-.51-.14-.81-.67-.67-1.18,1.32-4.79,4.64-8.79,9.13-11l.45-.22.44.24c2.1,1.16,4.39,1.74,6.79,1.74s4.72-.6,6.78-1.74l.44-.24.45.22c6.03,2.94,9.77,8.94,9.77,15.67,0,.53-.43.96-.96.96Z"/>
      <path class="cls-1" d="m65.91,23.19c0-2.5.28-3.17,3.09-4.28,1.68-.64,2.37-1.75,2.37-2.86,0-1.6-1.49-3.14-3.63-3.14-.54,0-1.11.08-1.73.31-.15.05-.33.08-.49.08-.75,0-1.29-.64-1.29-1.31,0-1.52,2.58-1.68,3.5-1.68,3.92,0,6.65,2.89,6.65,5.83,0,1.98-1.24,3.99-4.17,5.18-1.31.54-1.55.67-1.55,1.67,0,.16.03.36.03.57v.08c0,.95-.72,1.47-1.44,1.47-1.31,0-1.34-1.31-1.34-1.91Zm1.55,6.88c-.7,0-1.8-.31-1.8-1.8,0-1.26,1.08-1.75,1.8-1.75.85,0,1.83.62,1.83,1.73,0,.67-.54,1.83-1.83,1.83Z"/>
      <path class="cls-1" d="m119.77,32.57c0-1.8.21-2.29,2.23-3.09,1.21-.46,1.71-1.26,1.71-2.06,0-1.15-1.08-2.27-2.62-2.27-.39,0-.8.06-1.25.22-.11.04-.24.06-.35.06-.54,0-.93-.46-.93-.95,0-1.1,1.86-1.21,2.53-1.21,2.83,0,4.8,2.08,4.8,4.2,0,1.43-.89,2.88-3.01,3.74-.95.39-1.12.48-1.12,1.21,0,.11.02.26.02.41v.06c0,.69-.52,1.06-1.04,1.06-.95,0-.97-.95-.97-1.38Zm1.12,4.97c-.5,0-1.3-.22-1.3-1.3,0-.91.78-1.26,1.3-1.26.61,0,1.32.45,1.32,1.25,0,.48-.39,1.32-1.32,1.32Z"/>
      <path class="cls-1" d="m14.35,32.57c0-1.8.21-2.29,2.23-3.09,1.21-.46,1.71-1.26,1.71-2.06,0-1.15-1.08-2.27-2.62-2.27-.39,0-.8.06-1.25.22-.11.04-.24.06-.35.06-.54,0-.93-.46-.93-.95,0-1.1,1.86-1.21,2.53-1.21,2.83,0,4.8,2.08,4.8,4.2,0,1.43-.89,2.88-3.01,3.74-.95.39-1.12.48-1.12,1.21,0,.11.02.26.02.41v.06c0,.69-.52,1.06-1.04,1.06-.95,0-.97-.95-.97-1.38Zm1.12,4.97c-.5,0-1.3-.22-1.3-1.3,0-.91.78-1.26,1.3-1.26.61,0,1.32.45,1.32,1.25,0,.48-.39,1.32-1.32,1.32Z"/>
    </g>
  </g>
</svg>