<?xml version="1.0" encoding="UTF-8"?>
<svg id="_レイヤー_2" data-name="レイヤー 2" xmlns="http://www.w3.org/2000/svg" viewBox="0 0 102.4 101.96">
  <defs>
    <style>
      .cls-1 {
        stroke: #f08732;
        stroke-miterlimit: 10;
        stroke-width: .2px;
      }

      .cls-1, .cls-2 {
        fill: #f08732;
      }

      .cls-2 {
        stroke-width: 0px;
      }
    </style>
  </defs>
  <g id="_モバイル" data-name="モバイル">
    <g>
      <path class="cls-2" d="m44.53,101.96H7.11c-3.92,0-7.11-3.97-7.11-8.86V23.08c0-4.89,3.19-8.86,7.11-8.86h37.41s0,0,0,0c1.95,0,3.76.95,5.11,2.68,1.29,1.66,2,3.85,2,6.18v70.02c0,4.89-3.19,8.86-7.11,8.86Zm0-85.79H7.11c-2.84,0-5.16,3.1-5.16,6.91v70.02c0,3.81,2.31,6.91,5.16,6.91h37.41c2.84,0,5.16-3.1,5.16-6.91V23.08c0-1.89-.57-3.66-1.59-4.97-.97-1.25-2.23-1.93-3.56-1.93Z"/>
      <path class="cls-2" d="m41.99,97.08H9.65c-3.19,0-5.79-3.39-5.79-7.57V26.67c0-4.17,2.6-7.57,5.79-7.57h32.33c3.19,0,5.79,3.39,5.79,7.56v62.86c0,4.17-2.6,7.57-5.79,7.57Zm0-77.01H9.65c-2.65,0-4.81,2.96-4.81,6.59v62.85c0,3.63,2.16,6.59,4.81,6.59h32.33c2.65,0,4.81-2.96,4.81-6.59V26.66c0-3.63-2.16-6.59-4.81-6.59Z"/>
      <rect class="cls-2" x="7.56" y="34.15" width="17.28" height="1.96"/>
      <rect class="cls-2" x="7.56" y="39.13" width="17.28" height="1.96"/>
      <rect class="cls-2" x="7.56" y="54.62" width="17.28" height="1.96"/>
      <rect class="cls-2" x="7.56" y="59.61" width="17.28" height="1.96"/>
      <rect class="cls-2" x="7.56" y="75.33" width="17.28" height="1.96"/>
      <rect class="cls-2" x="7.56" y="80.32" width="17.28" height="1.96"/>
      <path class="cls-2" d="m36.74,45.69c-4.58,0-8.31-3.73-8.31-8.31s3.73-8.31,8.31-8.31,8.31,3.73,8.31,8.31-3.73,8.31-8.31,8.31Zm0-14.67c-3.5,0-6.36,2.85-6.36,6.36s2.85,6.36,6.36,6.36,6.36-2.85,6.36-6.36-2.85-6.36-6.36-6.36Z"/>
      <rect class="cls-2" x="32.2" y="36.44" width="9.36" height="1.96" transform="translate(-15.64 36.15) rotate(-44.03)"/>
      <rect class="cls-2" x="35.91" y="32.74" width="1.96" height="9.36" transform="translate(-15.65 37.93) rotate(-45.97)"/>
      <path class="cls-2" d="m36.74,66.4c-4.58,0-8.31-3.73-8.31-8.31s3.73-8.31,8.31-8.31,8.31,3.73,8.31,8.31-3.73,8.31-8.31,8.31Zm0-14.67c-3.5,0-6.36,2.85-6.36,6.36s2.85,6.36,6.36,6.36,6.36-2.85,6.36-6.36-2.85-6.36-6.36-6.36Z"/>
      <path class="cls-2" d="m36.74,87.12c-4.58,0-8.31-3.73-8.31-8.31s3.73-8.31,8.31-8.31,8.31,3.73,8.31,8.31-3.73,8.31-8.31,8.31Zm0-14.67c-3.5,0-6.36,2.85-6.36,6.36s2.85,6.36,6.36,6.36,6.36-2.85,6.36-6.36-2.85-6.36-6.36-6.36Z"/>
      <path class="cls-2" d="m80.68,43.47c-2.41,0-4.82-.41-7.16-1.22-2.23-.78-4.3-1.9-6.16-3.34l-13.49,1.14,6-12.07c-1.33-4.4-1.23-9.03.29-13.39,1.91-5.48,5.84-9.89,11.06-12.41,5.22-2.53,11.12-2.87,16.6-.96h0c5.48,1.91,9.89,5.84,12.41,11.06,2.52,5.22,2.86,11.12.96,16.6-1.91,5.48-5.84,9.89-11.06,12.41-2.99,1.45-6.21,2.18-9.44,2.18Zm-12.72-6.58l.31.25c1.76,1.42,3.75,2.52,5.89,3.26,10.29,3.58,21.58-1.87,25.17-12.17,1.74-4.99,1.43-10.35-.87-15.1-2.3-4.75-6.31-8.33-11.29-10.07h0c-4.99-1.74-10.35-1.43-15.1.87-4.75,2.3-8.33,6.31-10.06,11.29-1.42,4.09-1.48,8.42-.16,12.53l.12.38-4.8,9.66,10.81-.91Z"/>
      <g>
        <path class="cls-1" d="m72.7,19.55c.02-.84.02-1.83.02-2.76,0-.82,0-1.59-.02-2.2v-.03c0-.57.32-.8.68-.8.3,0,.63.17.8.44.51.82,1.87,3.36,2.49,4.29.05.07.09.11.11.11s.06-.02.06-.34c0-.77-.02-3.31-.05-4.06,0-.27.21-.44.47-.44.24,0,.47.15.47.42v.02c-.02.57-.02,1.36-.02,2.18,0,1.04,0,2.1.02,2.81v.02c0,.49-.36.77-.74.77-.26,0-.52-.13-.7-.41-.57-.9-2.09-3.69-2.53-4.43-.03-.05-.09-.16-.13-.16-.05,0-.05.08-.05.46,0,.85.02,3.25.05,4.11v.02c0,.26-.23.38-.46.38s-.47-.13-.47-.39h0Z"/>
        <path class="cls-1" d="m78.32,16.87c0-1.83,1.34-3.16,3.14-3.16s3.15,1.33,3.15,3.16-1.35,3.16-3.15,3.16-3.14-1.26-3.14-3.16Zm5.32,0c0-1.41-.98-2.32-2.18-2.32s-2.18.91-2.18,2.32.98,2.31,2.18,2.31,2.18-.9,2.18-2.31Z"/>
        <path class="cls-1" d="m86.94,19.52c.02-.64.02-1.82.02-2.89,0-.72,0-1.39-.02-1.83,0-.16-.02-.16-.5-.16-.31,0-.69.02-1.08.02-.31,0-.46-.22-.46-.44s.15-.43.45-.43h.02c.49,0,1.35.02,2.2.02.69,0,1.39,0,1.85-.02.32,0,.42.26.42.44,0,.22-.13.43-.39.43h-.03c-.28-.02-.51-.02-.71-.02q-.81,0-.81.16c-.02.55-.02,1.34-.02,2.14,0,.98.02,1.97.04,2.57.02.29-.24.42-.49.42s-.49-.14-.49-.42h0Z"/>
        <path class="cls-1" d="m67.41,28.2c.02-.97,0-3.9.03-4.76.02-.65.44-.99,1.1-1.03.15,0,.6-.02,1.04-.02s.89,0,1.01.02c.31.02.46.22.46.43s-.17.44-.48.44c0,0-.71,0-1.25,0-.78,0-.97.02-.99.37-.02.2,0,.61-.02,1.08,0,.16,0,.16.96.16.35,0,.71,0,.86,0,.46-.02.46.41.46.43,0,.24-.15.46-.43.46h-.04c-.2-.02-.49-.02-.78-.02-.9,0-1.03,0-1.03.18,0,.49,0,1.47,0,2v.29c0,.26-.24.41-.47.41s-.43-.14-.43-.42h0Z"/>
        <path class="cls-1" d="m71.38,25.56c0-1.83,1.34-3.16,3.14-3.16s3.15,1.33,3.15,3.16-1.35,3.16-3.15,3.16-3.14-1.26-3.14-3.16Zm5.32,0c0-1.41-.98-2.32-2.18-2.32s-2.18.91-2.18,2.32.98,2.31,2.18,2.31,2.18-.9,2.18-2.31Z"/>
        <path class="cls-1" d="m78.23,26.17v-.04c0-.57,0-1.17,0-1.77,0-.5,0-.99-.02-1.46,0-.24.15-.43.47-.43.23,0,.46.14.46.42v.02c0,.32-.02.64-.02.95,0,.67.02,1.34.02,2v.33c0,1.09.73,1.62,1.47,1.62s1.56-.58,1.56-1.69c0-.71.02-1.43.02-2.15,0-.36,0-.72-.02-1.07,0-.37.31-.43.47-.43.24,0,.47.14.47.42v.02c-.02.68-.02,1.23-.02,1.76,0,.46,0,.92.02,1.43.04,1.78-1.26,2.62-2.46,2.62s-2.44-.85-2.44-2.55Z"/>
        <path class="cls-1" d="m83.81,28.24c.02-.84.02-1.83.02-2.76,0-.82,0-1.59-.02-2.2v-.03c0-.57.32-.8.68-.8.3,0,.63.17.8.44.51.82,1.87,3.36,2.49,4.29.05.07.09.11.11.11s.06-.02.06-.34c0-.77-.02-3.31-.05-4.06,0-.27.21-.44.47-.44.24,0,.47.15.47.42v.02c-.02.57-.02,1.36-.02,2.18,0,1.04,0,2.1.02,2.81v.02c0,.49-.36.77-.74.77-.26,0-.52-.13-.7-.41-.57-.9-2.09-3.69-2.53-4.43-.03-.05-.09-.16-.13-.16-.05,0-.05.08-.05.46,0,.85.02,3.25.05,4.11v.02c0,.26-.23.38-.46.38s-.47-.13-.47-.39h0Z"/>
        <path class="cls-1" d="m91.48,28.72c-.65,0-1.81,0-1.89-1.15-.02-.4-.04-1.06-.04-1.74,0-.9.02-1.84.05-2.28.07-1.12.87-1.15,1.88-1.15.25,0,.5,0,.62.02,1.88.12,2.92,1.43,2.92,3.13,0,3.17-2.69,3.18-3.54,3.18Zm-.11-5.44c-.39,0-.83,0-.86.42-.02.34-.05,1.28-.05,2.16,0,.64.02,1.25.05,1.56.04.38.29.44.97.44.86,0,2.57,0,2.57-2.31,0-1.31-.79-2.26-2.04-2.26,0,0-.35,0-.65,0Z"/>
      </g>
      <rect class="cls-2" x="32.2" y="57.22" width="9.36" height="1.96" transform="translate(-30.08 41.99) rotate(-44.03)"/>
      <rect class="cls-2" x="35.91" y="53.52" width="1.96" height="9.36" transform="translate(-30.6 44.27) rotate(-45.97)"/>
      <rect class="cls-2" x="32.2" y="78" width="9.36" height="1.96" transform="translate(-44.53 47.83) rotate(-44.03)"/>
      <rect class="cls-2" x="35.91" y="74.3" width="1.96" height="9.36" transform="translate(-45.54 50.61) rotate(-45.97)"/>
    </g>
  </g>
</svg>