<?xml version="1.0" encoding="UTF-8"?>
<svg id="_レイヤー_2" data-name="レイヤー 2" xmlns="http://www.w3.org/2000/svg" viewBox="0 0 103.43 91.8">
  <defs>
    <style>
      .cls-1 {
        fill: #f08732;
      }

      .cls-1, .cls-2 {
        stroke-width: 0px;
      }

      .cls-2 {
        fill: #fff;
      }
    </style>
  </defs>
  <g id="_モバイル" data-name="モバイル">
    <g>
      <g>
        <path class="cls-1" d="m103.43,66.27h-49.78V0h49.78s0,66.26,0,66.26Zm-47.98-1.8h46.18V1.8h-46.18v62.67Z"/>
        <rect class="cls-1" x="62.31" y="42.32" width="16.69" height="1.8"/>
        <rect class="cls-1" x="62.31" y="35.6" width="15.01" height="1.8"/>
        <rect class="cls-1" x="62.31" y="49.1" width="20.29" height="1.8"/>
        <rect class="cls-1" x="62.31" y="55.87" width="26.89" height="1.8"/>
      </g>
      <path class="cls-1" d="m69.62,23.75c-.22.02-.67.03-1.09.03-1.65,0-3.62-.07-3.68-2.2-.03-.72-.03-2-.03-3.38,0-2.08.02-4.4.05-5.49.05-2.13,1.94-2.17,3.39-2.17.38,0,.73.02.99.03,2.83.19,3.89,1.69,3.89,3.12,0,1.3-.85,2.56-2.05,2.73-.17.03-.27.07-.27.1,0,.02.07.05.26.07,1.84.14,2.83,1.6,2.83,3.19,0,1.83-1.33,3.79-4.28,3.96Zm2.32-4.15c0-1.01-.68-2-2.25-2.12-.43-.03-.87-.05-1.3-.05-1.59,0-1.74.05-1.74.39,0,2.13,0,2.92.05,3.38.09.63.26.84,1.84.84.39,0,.82-.02,1.14-.03,1.42-.08,2.25-1.26,2.25-2.41Zm-3.75-7.3c-1.09,0-1.43.14-1.48.79-.03.41-.02,1.38-.03,2.37,0,.36.24.36,1.37.36.41,0,.85,0,1.16-.02,1.23-.07,2.01-1.02,2.01-1.93,0-.8-.63-1.55-2.13-1.55,0,0-.44-.02-.89-.02Z"/>
      <g>
        <path class="cls-1" d="m49.78,91.8H0V25.54h49.78s0,66.26,0,66.26Zm-47.98-1.8h46.18V27.33H1.8v62.67Z"/>
        <rect class="cls-1" x="8.66" y="67.86" width="16.69" height="1.8"/>
        <rect class="cls-1" x="8.66" y="61.13" width="15.01" height="1.8"/>
        <rect class="cls-1" x="8.66" y="74.63" width="20.29" height="1.8"/>
        <rect class="cls-1" x="8.66" y="81.41" width="26.89" height="1.8"/>
      </g>
      <g>
        <g>
          <circle class="cls-2" cx="48.36" cy="58.97" r="16.76" transform="translate(-24.76 80.65) rotate(-67.15)"/>
          <path class="cls-1" d="m48.4,76.64c-1.12,0-2.26-.11-3.38-.33-4.63-.89-8.64-3.54-11.28-7.45-5.46-8.07-3.33-19.07,4.73-24.52,8.07-5.46,19.07-3.33,24.52,4.73,5.46,8.07,3.33,19.07-4.73,24.52-2.96,2-6.37,3.04-9.86,3.04Zm-.06-33.52c-3.06,0-6.14.88-8.86,2.72-7.24,4.9-9.15,14.78-4.25,22.02,2.37,3.51,5.97,5.88,10.13,6.69,4.16.8,8.38-.06,11.89-2.44,7.24-4.9,9.15-14.78,4.25-22.02-3.06-4.53-8.07-6.97-13.16-6.97Z"/>
        </g>
        <path class="cls-1" d="m67.98,91.14c-.23,0-.46-.02-.69-.07-.94-.18-1.76-.72-2.3-1.52l-10.12-14.97,1.49-1.01,10.12,14.97c.27.4.68.67,1.15.76.47.09.95,0,1.35-.28.4-.27.67-.68.76-1.15s0-.95-.28-1.35l-10.17-15.03,1.49-1.01,10.17,15.03c.54.8.73,1.75.55,2.7-.18.94-.72,1.76-1.52,2.3-.6.41-1.3.62-2.01.62Z"/>
        <path class="cls-1" d="m37.37,66.41c-1.99-2.94-2.71-6.47-2.04-9.96.67-3.48,2.66-6.5,5.6-8.48l1.01,1.49c-5.24,3.55-6.62,10.7-3.08,15.94l-1.49,1.01Z"/>
      </g>
      <path class="cls-1" d="m19.72,49.13c-.39,0-.8-.19-.97-.63-.2-.49-.65-1.86-1.18-3.45-.03-.1-.08-.15-.19-.15-.27-.02-.97-.02-1.74-.02-1.02,0-2.17,0-2.52.02-.09,0-.17.05-.21.15-.43,1.35-.82,2.58-1.08,3.39-.15.48-.55.7-.96.7-.48,0-.97-.32-.97-.85,0-.31.05-.44,3.79-10.95.27-.79.89-1.14,1.5-1.14.65,0,1.31.41,1.59,1.18,1.09,3.07,3.31,9.01,3.87,10.34.07.17.1.34.1.49,0,.58-.51.92-1.04.92Zm-2.85-6.19c-.53-1.6-1.04-3.16-1.31-3.99-.1-.31-.19-.48-.29-.48-.09,0-.19.15-.31.49-.26.68-1.36,3.87-1.36,4.03,0,.07.03.1.14.1.34,0,.97.02,1.57.02s1.21-.02,1.45-.02c.1,0,.14-.02.14-.07,0-.02,0-.05-.02-.08Z"/>
    </g>
  </g>
</svg>