<?xml version="1.0" encoding="UTF-8"?>
<svg id="_レイヤー_2" data-name="レイヤー 2" xmlns="http://www.w3.org/2000/svg" xmlns:xlink="http://www.w3.org/1999/xlink" viewBox="0 0 170 208">
  <defs>
    <style>
      .cls-1 {
        clip-path: url(#clippath);
      }

      .cls-2 {
        stroke-width: 0px;
      }

      .cls-2, .cls-3 {
        fill: none;
      }

      .cls-3 {
        stroke: #181817;
        stroke-linecap: round;
      }

      .cls-3, .cls-4, .cls-5 {
        stroke-miterlimit: 10;
        stroke-width: .49px;
      }

      .cls-4 {
        fill: #f1e8d1;
      }

      .cls-4, .cls-5 {
        stroke: #4d4d4d;
      }

      .cls-5 {
        fill: #fff;
      }

      .cls-6 {
        fill: #1a1a1a;
        font-family: 'KozGoPr6N-Regular-83pv-RKSJ-H','Noto Sans Japanese',sans-serif;
        font-size: 14px;
      }
    </style>
    <clipPath id="clippath">
      <rect class="cls-2" x="-19" y="19" width="208" height="170" transform="translate(189 19) rotate(90)"/>
    </clipPath>
  </defs>
  <g id="_モバイル" data-name="モバイル">
    <g class="cls-1">
      <g>
        <path class="cls-3" d="m126.38,142.85c.72,2.79,2.38,4.94,4.55,5.9.91.41,1.91.6,2.96.57,3.47-.1,6.06-1.35,7.46-3.6,1.49-2.39,1.56-5.79.17-8.88-2.19-4.86-10.07-4.6-10.65-4.57-1.31.46-2.39,1.25-3.21,2.34-1.57,2.09-2.06,5.24-1.28,8.23Z"/>
        <path class="cls-3" d="m129.98,99.85l-3.53,3.45s-.11.12-.2.22c-.44.51-.68.75-.87.83-1.61,1.58-2.97,3.04-3.28,4.93-.13.81-.07,1.72.2,2.86.63,2.64,2.01,4.96,3.05,6.44.43.61,1.33.94,2.05,1.2l.15.05c1.72.64,3.58.87,5.37.68.58-.06.94-.32,1.39-.64.13-.09.26-.19.41-.28.87-.58,1.57-1.05,2.2-1.49,2.6-1.83,5.53-4.1,7.5-7.15.96-1.48,1.24-3.16.83-5-.77-3.47-3.77-6.58-5.2-7.48-.19-.12-.4-.19-.56-.25-2.01-.66-4.48-.32-6.66-.01l-.5.07c-.11.02-.23.03-.36.04-.26.02-.54.04-.74.12-.1.04-.16.07-.18.09h0s-.02.02-.05.08c-.03.06-.07.13-.13.22-.26.38-.54.69-.89,1.03Z"/>
        <path class="cls-4" d="m127.38,120.3l-.15-.05c-.79-.29-1.77-.65-2.29-1.38-1.07-1.52-2.48-3.89-3.13-6.61-.29-1.21-.36-2.18-.21-3.06.37-2.22,2.16-3.97,3.47-5.25l.07-.07h.07c.14-.08.5-.49.65-.67.1-.11.18-.21.23-.25l3.53-3.45c.26-.26.48-.48.67-.74l-91.38,42.04-4.35,4.17c.3,2.76.3,3.02.06,6.82l.54,4.86c.33.47,3.2,3.69,6.51,9.48,3.27,5.73,8.14,15.02,12.76,26.78h0c-4.6-11.73-9.01-20.56-12.76-26.78-3.68-6.11-6.44-9.39-6.47-9.42l-.04-.05-.4-5.97s-.06,1.84-.07,1.86c-1.4,2.1-7.43,5.79-7.68,5.95h0c.06-.04,6.78-4.26,7.68-5.95.12-.23-.16-.78-.07-1.11l.14-.75h0c.31-2.4-.26-6.71-.45-7.8-1.16.47-5.35,2.02-10.44-.37h0c5.36,2.52,9.88.63,10.44.37l5.17-7.83v-26.89c0-1.06-1.12-2.6-2.42-2.88-.97-.21-1.78.34-2.35,1.6-1.82,4.01-17.4,21.9-22.56,25.34-3.31,2.21-3.12,7.16-2.89,12.89.12,3.05.24,6.21-.11,9.4-.42,3.8-1.4,7.93-2.9,12.27-1.47,4.25-2.01,8.67-1.6,13.14l2.48,26.98,1.57,16.49,1.55,20.99h74.45c.23-.98,1.72-5.32,11.52-21.35,2.25-3.67,4.67-7.95,6.58-11.53-3.54-10.32-19.7-21.46-19.86-21.58h0c.16.11,15.98,11.23,19.86,21.58,3.43-6.48,5.58-11.47,6.79-14.54,1.22-3.1,2.91-6.01,5.02-8.64l1.58-1.96,17.6-12.96c-.16.02-.32.03-.48.03-1.32,0-2.61-.62-3.78-1.82-2.55-2.63-3.86-7.5-2.97-11.09.51-2.07,1.85-3.49,3.99-4.24h0v-7.13c-2.23-1.06-3.93-3.29-4.68-6.16-.81-3.12-.3-6.41,1.34-8.62,2.5-9.01,4.32-12.23,5.12-13.3-.23.01-.45.02-.68.02-1.45,0-2.91-.26-4.3-.77Z"/>
        <path class="cls-3" d="m130.9,156.68c-2.07.68-3.36,2.01-3.84,3.95-.85,3.44.39,8.11,2.84,10.62.91.94,2.39,1.98,4.25,1.57,1.34-.29,2.66-1.29,3.9-2.98,4.48-6.07,4.57-7.22,3.03-10.38-1.6-3.29-3.96-3.67-8.03-3.23-.73.08-1.41.21-2.03.41l-.13.04Z"/>
      </g>
      <g>
        <g>
          <path class="cls-5" d="m128.51,16v159.03c0,.56-.04,1.11-.12,1.65-.02.13-.04.27-.07.4-.13.67-.32,1.32-.56,1.94-.05.13-.1.25-.15.38-.34.78-.78,1.52-1.29,2.2-.05.06-.1.13-.15.19-.35.45-.74.87-1.16,1.26-.17.16-.34.31-.52.45-.06.05-.13.1-.19.15-.19.15-.39.29-.59.43-.01.01-.02.02-.04.03-.12.08-.25.16-.37.24-.14.08-.28.17-.42.25-.14.08-.29.15-.44.23-.07.03-.15.07-.22.1-.07.04-.15.07-.22.1-.23.1-.46.19-.69.27-.15.06-.31.11-.47.16-.08.02-.16.05-.24.07-.24.06-.49.13-.73.18-.08.02-.16.03-.25.05-.08.01-.17.03-.25.04-.17.03-.34.05-.51.07-.12.02-.24.02-.36.03-.1,0-.2.01-.3.02-.19.01-.37.02-.56.02H51.32c-.19,0-.38,0-.57-.02-.1,0-.2,0-.3-.02-.19-.01-.39-.03-.58-.05.07,0,.15.01.22.02-5.43-.61-9.67-5.23-9.67-10.83V16c0-5.82,4.58-10.58,10.33-10.88h0c.18,0,.37-.02.56-.02h66.3c.19,0,.37,0,.56.02h0c.1,0,.2.01.3.02.09,0,.19.02.29.02,5.47.58,9.74,5.22,9.74,10.84Z"/>
          <path class="cls-5" d="m117.61,3.61H51.31c-6.84,0-12.39,5.55-12.39,12.39v159.03c0,6.84,5.55,12.39,12.39,12.39h66.3c6.84,0,12.39-5.55,12.39-12.39V16c0-6.84-5.55-12.39-12.39-12.39Zm7.39,179.42c-.17.16-.34.31-.52.45-.06.05-.13.1-.19.15-.19.15-.39.29-.59.43-.01.01-.02.02-.04.03-.12.08-.25.16-.37.24-.14.08-.28.17-.42.25-.14.08-.29.15-.44.23-.07.03-.15.07-.22.1-.07.04-.15.07-.22.1-.23.1-.46.19-.69.27-.15.06-.31.11-.47.16-.08.02-.16.05-.24.07-.24.06-.49.13-.73.18-.08.02-.16.03-.25.05-.08.01-.17.03-.25.04-.17.03-.34.05-.51.07-.12.02-.24.02-.36.03-.1,0-.2.01-.3.02-.19.01-.37.02-.56.02H51.32c-.19,0-.38,0-.57-.02-.1,0-.2,0-.3-.02-.19-.01-.39-.03-.58-.05.07,0,.15.01.22.02-5.43-.61-9.67-5.23-9.67-10.83V16c0-5.82,4.58-10.58,10.33-10.88h0c.18,0,.37-.02.56-.02h66.3c.19,0,.37,0,.56.02h0c.1,0,.2.01.3.02.09,0,.19.02.29.02,5.47.58,9.74,5.22,9.74,10.84v159.03c0,.56-.04,1.11-.12,1.65-.02.13-.04.27-.07.4-.13.67-.32,1.32-.56,1.94-.05.13-.1.25-.15.38-.34.78-.78,1.52-1.29,2.2-.05.06-.1.13-.15.19-.35.45-.74.87-1.16,1.26Z"/>
        </g>
        <rect class="cls-5" x="78.9" y="10.07" width="10.58" height="1.11" rx=".44" ry=".44"/>
        <path class="cls-5" d="m118.05,9.37h-.15c-.11-.01-.2-.01-.29-.01h-9.57c-.55.03-.99.45-1.04.99,0,.04,0,.07,0,.11h0c-.13,2.82-2.45,5.05-5.28,5.05h-34.51c-2.83,0-5.15-2.23-5.28-5.03h0c0-.05,0-.09,0-.13-.06-.54-.5-.96-1.04-.99h-9.57c-.09,0-.19,0-.29,0h-.09s-.06,0-.06,0c-3.48.23-6.2,3.13-6.2,6.63v159.03c0,3.44,2.69,6.35,6.11,6.62.03,0,.06,0,.09,0h.04s.04,0,.04,0h.01c.11,0,.23.01.35.01h66.3c.12,0,.23,0,.35,0h.01s.04,0,.04,0h.02s.02,0,.02,0c.03,0,.06,0,.09,0,3.43-.27,6.11-3.18,6.11-6.62V16c0-3.5-2.72-6.4-6.2-6.63Z"/>
      </g>
      <path class="cls-4" d="m126.38,142.85c.72,2.79,2.38,4.94,4.55,5.9.91.41,1.91.6,2.96.57,3.47-.1,6.06-1.35,7.46-3.6,1.49-2.39,1.56-5.79.17-8.88-2.19-4.86-10.07-4.6-10.65-4.57-1.31.46-2.39,1.25-3.21,2.34-1.57,2.09-2.06,5.24-1.28,8.23Z"/>
      <path class="cls-4" d="m129.98,99.85l-3.53,3.45s-.11.12-.2.22c-.44.51-.68.75-.87.83-1.61,1.58-2.97,3.04-3.28,4.93-.13.81-.07,1.72.2,2.86.63,2.64,2.01,4.96,3.05,6.44.43.61,1.33.94,2.05,1.2l.15.05c1.72.64,3.58.87,5.37.68.58-.06.94-.32,1.39-.64.13-.09.26-.19.41-.28.87-.58,1.57-1.05,2.2-1.49,2.6-1.83,5.53-4.1,7.5-7.15.96-1.48,1.24-3.16.83-5-.77-3.47-3.77-6.58-5.2-7.48-.19-.12-.4-.19-.56-.25-2.01-.66-4.48-.32-6.66-.01l-.5.07c-.11.02-.23.03-.36.04-.26.02-.54.04-.74.12-.1.04-.16.07-.18.09h0s-.02.02-.05.08c-.03.06-.07.13-.13.22-.26.38-.54.69-.89,1.03Z"/>
      <path class="cls-4" d="m130.9,156.68c-2.07.68-3.36,2.01-3.84,3.95-.85,3.44.39,8.11,2.84,10.62.91.94,2.39,1.98,4.25,1.57,1.34-.29,2.66-1.29,3.9-2.98,4.48-6.07,4.57-7.22,3.03-10.38-1.6-3.29-3.96-3.67-8.03-3.23-.73.08-1.41.21-2.03.41l-.13.04Z"/>
      <text class="cls-6" x="85" y="100" text-anchor="middle" textLength="60" dominant-baseline="middle">管理画面</text>
    </g>
  </g>
</svg>