<?xml version="1.0" encoding="UTF-8"?>
<svg id="_レイヤー_2" data-name="レイヤー 2" xmlns="http://www.w3.org/2000/svg" viewBox="0 0 241.74 86.08">
  <defs>
    <style>
      .cls-1 {
        fill: #1a1a1a;
      }

      .cls-1, .cls-2, .cls-3 {
        stroke-width: 0px;
      }

      .cls-2 {
        fill: #c5263f;
      }

      .cls-3 {
        fill: #fff;
      }
    </style>
  </defs>
  <g id="pc">
    <g>
      <g>
        <path class="cls-1" d="m176.89,31.25c-2.71,2.14-5.49,2.29-5.58.02-.06-1.51.17-2.93.28-4.58.08-1.04.19-2.53.22-3.51.03-1.03-1.73-1.12-1.7.03.03.97-.08,2.5-.12,3.51-.08,1.65-.25,2.98-.19,4.62.14,4.21,5.13,3.76,8.17,1.28.89-.72-.06-2.15-1.08-1.36Z"/>
        <path class="cls-1" d="m189.33,27.25c-.36.2-.7.25-1.08.27,0-.5,0-.98.03-1.5.05-.92-1.43-.98-1.43-.02-.02,1.64.12,2.73.25,5.01.02.16.02.33.02.51-.8-.12-1.58-.09-2.18.12-1.42.53-1.4,1.98-.23,2.6,1.45.78,2.96.03,3.45-.98.28.19.54.41.76.64.89.95,1.92-.39.98-1.2-.39-.34-.94-.64-1.53-.86,0-.36.02-.69,0-.97-.03-.78-.06-1.44-.08-2.04.14,0,.28-.02.41-.03.48-.06,1.01-.08,1.45-.33.9-.51.05-1.72-.81-1.23Zm-3.99,5.96c-.22-.12-.25-.44.02-.53.45-.17,1.03-.14,1.61.03-.2.62-1.04.81-1.62.5Z"/>
        <path class="cls-1" d="m202.62,23.26c.73-.9-.67-2.01-1.39-1.06-.94,1.26-2.14,2.42-3.2,3.52-1.22,1.26-1.22,2.37-.19,3.57,1.08,1.26,2.4,3.29,3.31,5.07.5,1,2.01.08,1.53-.97-.76-1.67-2.09-3.13-3.65-5.08-.51-.64-.48-1.11.19-1.78.97-.97,2.62-2.32,3.4-3.27Z"/>
        <path class="cls-1" d="m216.49,32.37c-.94.34-3.17.75-4.26.2-1.22-.59-1.17-1.76.37-3.07,1.23-1.04,2.84-1.95,4.43-2.76,1.2-.61.39-2.1-.67-1.51-1.01.56-1.9,1.12-2.75,1.72-.45-1.29-1.15-2.68-1.82-3.63-.62-.89-2.15-.05-1.34.95.72.87,1.47,2.4,1.87,3.63-.16.11-.3.23-.45.36-2.53,2.01-2.62,4.54-.37,5.68,1.54.78,4.15.47,5.38.12,1.39-.39.92-2.18-.39-1.68Z"/>
        <path class="cls-1" d="m219.25,21.78c-.7-.33-1.39.55-.62.95.3.16,1,.75,1.19,1.01.45.66,1.43-.19.89-.89-.31-.39-1.04-.89-1.45-1.08Z"/>
        <path class="cls-1" d="m217.72,22.95c-.69-.36-1.4.5-.66.92.3.17.98.81,1.15,1.08.44.67,1.45-.16.92-.87-.3-.41-1.03-.92-1.42-1.12Z"/>
        <path class="cls-1" d="m227.34,22.76c.65.37,1.78.84,2.88,1.04,1.15.22,1.67-1.36.39-1.58-.86-.14-1.75-.39-2.42-.69-1.09-.5-1.75.72-.86,1.22Z"/>
        <path class="cls-1" d="m232.05,26.49c-.83-1.79-3.12-1.86-4.71-1.15-.44.19-.94.36-1.34.5-1.14.41-.75,1.93.48,1.62.34-.09,1.2-.53,1.51-.72,1.08-.64,2.25-.58,2.68.64.64,1.81-.22,4.57-3.01,6.53-.92.65.11,1.93,1.14,1.17,3.12-2.29,4.44-5.99,3.24-8.59Z"/>
      </g>
      <polygon class="cls-3" points="40.99 34.42 58.5 32.16 66.97 46.84 40.99 34.42"/>
      <rect class="cls-3" x="-.12" y="2.71" width="95.95" height="33.87" rx="16.94" ry="16.94" transform="translate(-1.53 4.25) rotate(-5)"/>
      <g>
        <path class="cls-1" d="m48,78.11h-.09c-.46,0-.89.01-1.3.02-.38.01-.74.02-1.09.02-2.81,0-5.3-.21-8.59-.73-6.52-1.07-9.29-3.02-9.56-6.75-.04-.22-.04-.43-.04-.66,0-2.94,1.5-5.83,4.47-8.6,2.65-2.43,5.35-4.31,10.71-7.45.78-.47,1.2-1.22,1.09-1.94-.09-.64-.57-1.13-1.27-1.31-3.07-.81-9.99-1.75-14.32-1.75-.65,0-1.2,0-1.71.05-.72.05-1.1.57-1.1,1.06,0,.44.3.92.96.97,4.57.28,6.99.57,10.76,1.29.57.11.9.38.9.74,0,.26-.19.63-.62.89-1.93,1.19-3.86,2.67-5.92,4.53-3.37,3.11-6.5,6.69-6.5,11.76,0,.37,0,.75.05,1.12.37,4.77,4.29,7.87,11.63,9.2,2.57.5,6.5.6,9.33.6.92,0,1.71,0,2.27-.05,1.17-.05,1.7-.8,1.7-1.48,0-.76-.6-1.52-1.75-1.52Z"/>
        <path class="cls-1" d="m92.54,78.93h-.39c-1.85.35-3.61.65-6.47.65-1,0-2.21-.05-3.58-.14-5.49-.45-6.35-2.21-6.46-3.88v-.04c-.05-.12-.05-.24-.05-.37,0-2.68,1.96-6.02,4.88-8.32,4.2-3.29,7.65-5.4,11.91-7.31.56-.28.91-.81.91-1.37,0-.77-.57-1.57-1.52-1.57-.27,0-.53.06-.8.2-4.04,1.94-6.92,3.69-9.58,5.79-.37-5.06-.95-8.5-1.92-11.46-.83-2.62-1.99-4.22-5.48-4.66h-.14c-.6,0-.92.45-.92.88,0,.36.25.81.7.92,1.32.34,2.32,1.5,2.99,3.46,1.21,3.55,2.32,9.12,2.75,12.61-.48.44-.98.9-1.42,1.38-3.27,3.27-4.79,6.12-4.79,8.99,0,.41.04.83.09,1.22.37,2.75,1.79,5.41,9.62,6.2,1.67.16,2.87.23,4.02.23,2.08,0,4.02-.16,6.1-.51.77-.1,1.18-.78,1.18-1.38,0-.76-.55-1.52-1.62-1.52Z"/>
        <path class="cls-1" d="m98.38,48.93c-1.28-.94-2.9-1.55-4.31-1.64-.59-.05-.94.27-1.02.62-.09.35.08.81.63,1.03.88.35,1.97,1.11,3.13,2.18.38.37.74.47,1.02.47.15,0,.28-.03.38-.06.45-.15.8-.57.88-1.07.09-.57-.17-1.13-.71-1.53Z"/>
        <path class="cls-1" d="m92.71,50.84c-.5-.12-.94.04-1.11.4-.14.29-.09.79.49,1.23,1.16.85,1.79,1.51,2.92,3.06h0c.31.42.72.64,1.16.64.06,0,.13,0,.2-.01.53-.08.99-.47,1.17-1,.2-.58.03-1.21-.47-1.74-1.08-1.16-2.7-2.12-4.35-2.57Z"/>
        <path class="cls-1" d="m141.46,69.54c-.47,0-.97.32-.97,1.02v.46c0,2.84-.71,5.67-1.96,7.76-1.59,2.67-4.1,4.08-7.25,4.08h-.09c-2.25,0-7.56-.9-8.38-9.23-.08-.62-.13-1.23-.14-1.83,2.58.6,4.78.88,6.72.88h.14c1.11,0,1.71-.78,1.71-1.52,0-.63-.49-1.33-1.56-1.39-2.69-.15-5.04-.49-7-1.02.21-3.09.96-6.16,2.33-9.65.37-.91.73-1.76,1.06-2.56.36-.86.71-1.68,1.02-2.46l2.63.27h.14c1.03,0,1.57-.74,1.57-1.48s-.53-1.52-1.52-1.57c-.66,0-1.32-.04-2-.08.08-.5.16-1.01.16-1.53v-.28c0-2.12-1.18-4.14-1.98-4.98-.21-.2-.47-.32-.75-.32-.43,0-.88.33-.88.88,0,.24.07.45.2.63.47.77.95,2.31.95,3.75,0,.08-.01.17-.02.27-.01.12-.03.25-.02.35-.03.23-.09.51-.16.83l-.05.24c-4.11-.39-7.47-1.01-10.85-2.01-.16-.05-.27-.05-.41-.05-.58,0-.88.42-.88.83s.24.71.73.96c1.92.88,3.63,1.5,5.23,1.9.21.06.31.14.31.23,0,.04-.02.2-.3.34-1.98,1.29-3.53,3.06-4.61,5.26-.62,1.34-.93,2.73-.93,4.11,0,1.67.49,4.12,2.81,6.28.92.84,2.12,1.53,3.55,2.07,0,.95.1,1.9.19,2.82.86,7.79,4.58,11.73,11.06,11.73h.6c6.96,0,10.6-6.68,10.6-13.27,0-.63-.04-1.26-.09-1.9-.05-.54-.48-.82-.88-.82Zm-16.97-15.77c-.41,1.01-.97,2.26-1.61,3.69l-.21.47c-1.27,2.78-2.16,6.32-2.53,9.99-.87-.36-1.6-.79-2.13-1.24-1.25-1.13-1.89-2.55-1.89-4.22,0-1.17.31-2.39.9-3.53,1.26-2.32,2.88-3.94,5.11-5.1.22-.13.36-.26.48-.38.6.12,1.22.24,1.87.33Z"/>
        <path class="cls-1" d="m194.2,57.52c-7.06-2.4-13.18-6.08-18.21-10.96,1.26-.2,1.82-.49,1.82-.93,0-.63-1.04-1.15-3.47-1.75-.36-.1-.71.03-.9.34-4.19,7.42-10.5,13.38-18.78,17.72-.25.12-.43.34-.5.58-.05.18-.02.36.07.5.22.34.62.45,1,.28,2.96-1.31,5.55-2.72,7.91-4.29v22.09l-5.21.49c-.27.02-.5.15-.65.37-.16.23-.2.53-.12.83.71,2.17,1.37,3.28,1.98,3.28.44,0,.79-.55,1.04-1.63,5.69-.93,11.44-2.29,17.1-4.04.39-.11.62-.45.56-.86-.05-.25-.19-.45-.37-.57-.18-.11-.4-.15-.63-.1-3.41.72-7.03,1.35-10.75,1.86v-9.88h7.1c3.67,7.2,9.95,12.02,18.66,14.32.37.11.73-.05.9-.39.22-.4.5-.77.77-1.13.29-.34.39-.75.26-1.09-.12-.32-.41-.54-.81-.61-4.23-.79-7.96-2.2-11.09-4.19,2.61-1.6,4.86-3.23,6.69-4.83l.83.09c1.03,0,1.25-.35,1.25-.65,0-.55-.8-1.36-2.6-2.61-.42-.26-.93-.17-1.2.22-.42.59-.72,1-.94,1.27v-11.3l.67-.59c.25-.15.39-.37.39-.63,0-.27-.26-.72-2.17-1.95-.27-.21-.66-.19-.97.05l-.88.79h-7.36v-2.98c1.22-.42,1.84-.84,1.84-1.25,0-.73-1.03-1.09-3.67-1.29-.26-.03-.49.05-.66.2-.18.16-.28.4-.28.68v4.65h-6.41l-.74-.39c3.96-3.05,7.06-6.25,9.24-9.51,4.79,5.48,10.78,9.81,17.81,12.89.42.16.82,0,1.05-.38h0c.21-.38.47-.73.81-1.13.26-.28.36-.63.28-.94-.08-.3-.32-.55-.66-.67Zm-28.1,5.75v-4.19h16.99v4.19h-16.99Zm16.99,1.44v4.74h-16.99v-4.74h16.99Zm.83,7.6h1.12c-1.39,1.62-2.9,3.13-4.49,4.51-2.28-1.72-4.11-3.72-5.46-5.94h7.99v.6c0,.49.34.83.83.83Z"/>
        <path class="cls-1" d="m238.47,80.04c-.18-.18-.4-.27-.62-.26-.23.02-.44.15-.6.36l-1.98,2.48h-13.15v-6.63h13.77c.24,0,.46-.12.63-.34l.15-.25c.12-.3.09-.62-.07-.83-.47-.59-1.16-1.27-2.31-2.27-.18-.18-.39-.27-.61-.26-.22,0-.44.12-.61.32l-1.75,2.2h-9.19v-5.8h7.18v1.01c0,.49.34.83.83.83h1.24c.49,0,.83-.34.83-.83v-8.36l.87-.7c.3-.25.47-.52.47-.75,0-.41-.6-1.05-2.13-2.28-.21-.15-.46-.22-.69-.18-.19.03-.36.14-.47.29l-1.29,1.47h-16.49l-.13-.07c-.27-.14-.64-.33-1.13-.52-.65-.28-1.33-.28-1.75,0-.22.14-.34.36-.34.6v10.83c0,.49.34.83.83.83h1.24c.49,0,.83-.34.83-.83v-1.33h7.09v5.8h-13.08c-.42,0-.79.16-.96.43-.11.17-.13.37-.03.57.18.29.41.44.72.44h13.36v6.63h-17.41c-.4,0-.76.16-.94.41-.11.16-.14.35-.07.52.11.32.38.51.73.51h38.93c.25,0,.48-.13.67-.38l.11-.22c.13-.32.08-.64-.12-.84-.74-.88-1.55-1.7-2.54-2.59Zm-9.18-19.34v6.63h-17.27v-6.63h17.27Z"/>
        <path class="cls-1" d="m238.94,51.75c-.18-.18-.41-.27-.66-.26-.25,0-.49.12-.66.32l-1.15,1.47h-7.9c1.83-1.63,3.23-3.05,4.25-4.32,1.1,0,2.19-.11,2.19-.79s-1.2-1.52-3.68-2.57c-.46-.17-.94.03-1.15.5-.96,2.48-2.2,4.9-3.68,7.19h-4.43v-6.71c1.32-.48,1.93-.91,1.93-1.34,0-.68-1.28-1.06-3.92-1.15-.53,0-.92.38-.92.88v8.33h-5.5c.46-.27.81-.81.81-1.84,0-2.07-2.09-3.99-6.21-5.7-.36-.16-.76-.06-1,.24-.22.33-.13.78.22,1.07,1.96,1.5,3.09,3.04,3.45,4.71.21.83.55,1.29.92,1.53h-5.92l-.17-1.08c-.05-.38-.27-.61-.65-.67-.46,0-.82.34-.88.82-.27,2.93-1.13,5.04-2.63,6.45-.73.69-1.1,1.28-1.1,1.76s.16.82.55,1.21c.46.46.95.69,1.48.69.69,0,1.28-.38,1.86-1.21,1.23-1.7,1.78-3.76,1.64-6.12,0-.1-.01-.2-.02-.29,0-.04,0-.08-.01-.12h30.53c-.37,1.31-.94,2.65-1.69,3.98-.22.39-.16.78.16,1.05.28.28.76.27,1.02,0,1.06-.86,2.24-2.07,3.44-3.48l1.56-.22c.63-.07.72-.44.72-.65,0-.68-.87-1.81-2.81-3.65Z"/>
      </g>
      <g>
        <path class="cls-2" d="m23.24,15.43c-2.15-.12-4.41.74-6.05,2.29-1.46,1.39-2.25,3.18-2.23,5.04.05,3.58,2.45,6.53,5.86,7.17l.2.04c.29.06.67.14,1.04.14.31,0,.61-.05.86-.22.25-.16.41-.41.47-.7,0-.04.02-.08.02-.12l.28-.22c2.97-2.14,4.86-5.31,4.93-8.27h0c.06-2.93-2.05-4.96-5.37-5.16Zm-.68,2.03c1.43,0,3.34.49,3.84,1.98.81,2.45-1.57,6.62-4.58,7.99-.19.1-.35.24-.45.4-1.6-.15-2.95-1.08-3.72-2.58-.81-1.57-.79-3.36.06-4.91.9-1.63,2.53-2.7,4.37-2.86.16-.01.32-.02.5-.02Z"/>
        <path class="cls-2" d="m36.28,10.86c-1.41.06-2.82.67-3.85,1.65-.16-.08-.34-.13-.52-.13h0c-.39,0-.73.2-.93.54-.19.35-.19.75-.19,1.05v.14c-.02.75.02,4.49.14,6.16l.12,1.85c.25,3.9.45,6.98.86,8.11.16.45.49.75.91.83.07.01.13.02.2.02.32,0,.63-.14.84-.38.27-.32.34-.76.18-1.2-.27-.8-.38-1.69-.49-2.58-.13-.98-.26-2.24-.37-3.75.36-.05.67-.24.96-.42.3-.18.6-.37.89-.58.61-.42,1.18-.88,1.74-1.42,2.57-2.41,4.62-5.84,3.42-8.08-.65-1.22-2.07-1.87-3.9-1.8Zm-1.93,9.21c-.27.21-.59.41-.94.59-.1.05-.21.1-.32.14-.03.01-.06.02-.09.04-.06-.97-.11-1.88-.13-2.66v-.5c-.04-1-.06-2.02.01-3,.19,0,.36-.04.53-.13.26-.14.46-.39.63-.6.06-.08.13-.16.19-.23.61-.65,1.93-1,3-.81.35.06.98.25,1.2.77.6,1.47-1.68,4.54-4.09,6.39Z"/>
        <path class="cls-2" d="m58.84,9.71c-.62-.44-1.64-.17-2.58.15-3.56,1.22-10.99,5.5-14.71,8.48-.37.29-.5.78-.35,1.24.15.45.56.74,1.03.75.44,0,.75-.27.95-.45.05-.04.09-.08.13-.11.15-.11.31-.24.46-.37.13-.11.27-.22.4-.32.97-.7,2.27-1.61,3.73-2.55-.01.1-.02.2-.03.3-.01.14-.03.27-.05.4-.47,3.19.26,6.52,1.87,8.49.93,1.15,2.13,1.8,3.46,1.87.1,0,.19,0,.29,0,1.49,0,2.82-.66,4.13-1.38.28-.15.71-.38.85-.88.12-.44-.06-.93-.44-1.2-.63-.43-1.17-.05-1.46.16l-.12.08c-.79.52-1.99,1.21-3.22,1.12-1.62-.12-2.48-1.77-2.89-2.94.38-.28.79-.49,1.23-.71l.31-.16c1.45-.77,2.96-1.37,4.48-1.8.13-.03.25-.07.38-.11.19-.06.37-.11.55-.15.07-.01.16-.02.24-.03.24-.02.54-.05.81-.21.26-.17.43-.44.47-.75.05-.32-.05-.65-.26-.91-.46-.56-1.13-.38-1.59-.26-2.18.54-4.5,1.49-7.07,2.9-.15-1.42,0-2.91.4-4.12.13-.38.05-.77-.18-1.05,1.91-1.14,3.95-2.22,5.81-2.92.61-.23,1.19-.45,1.81-.54.08-.01.16-.02.25-.02.4-.03,1.34-.09,1.34-1.09h0c0-.5-.24-.77-.44-.91Z"/>
        <path class="cls-2" d="m74.85,12.22c0-.43,0-1.09-.4-1.49-.14-.14-.38-.32-.79-.3-.42,0-.67.19-.8.35-.36.42-.27,1.03-.19,1.52.02.13.04.24.04.34.06,1.77-.13,3.6-.53,5.14-.62,2.44-1.25,3.5-1.48,3.59-.02,0-.37-.02-1.42-1.1-.51-.52-1.01-1.15-1.49-1.85-.94-1.37-1.84-2.85-2.03-4.32-.03-.33-.19-.61-.44-.79-.04-.02-.07-.05-.11-.07.15-.56.29-.95.46-1.24.21-.36.18-.83-.08-1.18-.26-.35-.67-.51-1.08-.43-.84.17-1.03,1.1-1.14,1.61-.69,3.19-1.22,8.34-.84,11.62l.03.23c.12,1.02.28,2.41,1.27,3.09.27.18.58.28.88.28.11,0,.21-.01.31-.04.3-.08.53-.29.67-.57.39-.85-.33-1.31-.58-1.47-.14-.1-.23-.51-.29-.75l-.04-.18c-.28-1.2-.36-3.79-.26-5.36l.04-.58c.03-.34.05-.68.08-1.02.85,1.67,2.02,3.28,3.29,4.54.63.62,1.31,1.24,2.19,1.51.92.28,1.81-.09,2.42-1.01,1.04-1.59,1.52-3.6,1.79-4.98.39-1.93.55-3.5.51-4.93v-.17Z"/>
      </g>
    </g>
  </g>
</svg>