<?xml version="1.0" encoding="UTF-8"?>
<svg id="_レイヤー_2" data-name="レイヤー 2" xmlns="http://www.w3.org/2000/svg" viewBox="0 0 264.19 57.95">
  <defs>
    <style>
      .cls-1 {
        fill: #dc7430;
        stroke-width: 0px;
      }
    </style>
  </defs>
  <g id="pc">
    <g>
      <g>
        <path class="cls-1" d="M18.92,3.24c-1.95,4.74-2.53,9.92-1.78,15.77l12.13-3.05c-2.27-7.11-6.06-10.93-9.39-12.96,1.06-.44,1.73-1.26,1.54-1.98-.22-.85-1.5-1.25-2.87-.89-1.37.35-2.3,1.32-2.08,2.17.19.76,1.25,1.12,2.45.95Z"/>
        <path class="cls-1" d="M60.39,26.7c-1.41,0-2.56,1.14-2.56,2.56s1.14,2.56,2.56,2.56,2.56-1.14,2.56-2.56-1.14-2.56-2.56-2.56Z"/>
        <path class="cls-1" d="M72.95,33.23c1.41,0,2.56-1.14,2.56-2.56s-1.14-2.56-2.56-2.56-2.56,1.14-2.56,2.56,1.14,2.56,2.56,2.56Z"/>
        <path class="cls-1" d="M66.31,36.92c-1.56-.27-2.91-1.2-3.72-2.56l-2.26,1.34c1.2,2.02,3.22,3.4,5.53,3.8.47.08.93.12,1.39.12,1.69,0,3.33-.53,4.72-1.56l-1.55-2.12c-1.19.87-2.65,1.22-4.11.96Z"/>
        <path class="cls-1" d="M32.43,29.25c0-1.41-1.14-2.56-2.56-2.56s-2.56,1.14-2.56,2.56,1.14,2.56,2.56,2.56,2.56-1.14,2.56-2.56Z"/>
        <path class="cls-1" d="M17.31,28.12c-1.41,0-2.56,1.14-2.56,2.56s1.14,2.56,2.56,2.56,2.56-1.14,2.56-2.56-1.14-2.56-2.56-2.56Z"/>
        <path class="cls-1" d="M24.4,39.51c2.31-.4,4.33-1.79,5.53-3.8l-2.26-1.34c-.81,1.36-2.16,2.29-3.72,2.56-1.46.26-2.92-.09-4.11-.97l-1.55,2.12c1.39,1.02,3.03,1.55,4.72,1.55.46,0,.93-.04,1.39-.12Z"/>
        <path class="cls-1" d="M86.98,11.89c-.64-.83-4.07,1.81-6.75,4.09-.12-.13-.25-.25-.39-.36-.38-.28-.81-.45-1.24-.53.66-3.3,1.48-8.53.2-9.1-1.89-.84-4.79.03-6.32.89-.97.55,1.51,4.78,3.46,7.81-3.89-2.9-8.7-4.64-13.91-4.64-4.68,0-9.2,1.38-13.07,3.99l2.54,3.76c3.11-2.1,6.75-3.21,10.53-3.21,10.38,0,18.83,8.45,18.83,18.83s-8.45,18.83-18.83,18.83c-5.49,0-10.55-2.35-14.06-6.32l5.73-7.7c3.16-4.24,2.72-10.15-1.01-13.89h0c-1.22-1.22-2.68-2.04-4.22-2.55-2.97-5.04-7.64-8.77-13.1-10.57-2-5.31-7.08-8.75-12.63-8.78,3.2,2.45,6.52,6.46,8.58,13.03l1.06-.27c4.02.97,7.59,3.22,10.23,6.36-1.82.45-3.56,1.35-4.99,2.77h0c-3.74,3.74-4.17,9.65-1.01,13.89l5.54,7.45c.75,1.21,1.59,2.35,2.52,3.38l.49.66.06-.08c4.33,4.51,10.34,7.15,16.83,7.15,12.89,0,23.37-10.48,23.37-23.37,0-5.24-1.76-10.07-4.68-13.97.05-.09.09-.19.13-.29,3.31.14,7.57.08,7.92-1.13.57-1.99-.7-4.74-1.77-6.14ZM45.13,35.51c-2.26,0-4.1-1.83-4.1-4.1s1.83-4.1,4.1-4.1,4.1,1.83,4.1,4.1-1.83,4.1-4.1,4.1Z"/>
        <path class="cls-1" d="M27.81,53.29c-10.65,0-19.32-8.67-19.32-19.32,0-5.73,2.52-10.87,6.5-14.42l.13-.03c-.77-5.7-.33-10.83,1.32-15.56-4.53,2.33-7.4,7.01-7.37,12.1l-7.25,1.82c-1.29.32-2.08,1.64-1.75,2.93.32,1.29,1.64,2.08,2.93,1.75l4.39-1.1c-2.24,3.65-3.56,7.92-3.56,12.51,0,13.22,10.76,23.98,23.98,23.98,5.23,0,10.2-1.66,14.38-4.79l-2.8-3.73c-3.36,2.52-7.37,3.86-11.58,3.86Z"/>
      </g>
      <g>
        <path class="cls-1" d="M114.51,17.18c-.06.84-.62,2.07-1.71,1.77-.65-.28-1.77-.65-2.69-.65-1.37,0-2.47.67-2.47,1.91s.95,1.96,3.53,3.34c2.72,1.46,4.04,2.52,4.04,5.19,0,3.45-3.06,5.41-6.39,5.41-1.99,0-3.45-.59-4.18-1.09-.48-.34-.67-.67-.67-1.04,0-.62.45-1.63.7-1.85,1.04.7,2.75,1.4,4.12,1.4,1.57,0,2.86-.67,2.86-2.16,0-1.23-.62-1.91-3.31-3.28-3.5-1.77-4.07-3.56-4.07-5.44s1.32-4.91,5.97-4.91c1.4,0,3.42.56,4.26,1.4Z"/>
        <path class="cls-1" d="M135.29,24.81c0,4.96-3.14,9.34-9.14,9.34-6.48,0-9.03-4.82-9.03-9.03,0-5.3,3.42-9.34,9.2-9.34,5.47,0,8.97,3.87,8.97,9.03ZM121.02,24.78c0,4.57,2.52,7.04,5.41,7.04,3.11,0,5.05-2.47,5.05-6.78,0-3.62-1.82-6.93-5.47-6.93-2.66,0-4.99,2.13-4.99,6.67Z"/>
        <path class="cls-1" d="M138.41,19.79c0-1.91-.03-2.47-.06-3.2.65-.14,3.42-.53,5.78-.53,8.47,0,9.98,5.05,9.98,8.64,0,6.06-4.43,9.31-10.18,9.31-2.1,0-3.73-.14-5.52-.53v-13.68ZM142.03,31.45c.7.17,1.43.22,2.13.22,2.35,0,6.11-1.12,6.11-6.9,0-4.15-2.41-6.36-6.5-6.36-.81,0-1.35.06-1.74.11v12.93Z"/>
        <path class="cls-1" d="M160.73,29.1c-.62,1.51-1.37,3.5-1.74,4.37-.11.28-.34.42-.81.42-.67,0-2.07-.17-2.69-.36v-.11c1.46-3.45,5.78-13.77,6.87-16.37l-.22-.59c1.07-.22,2.75-.34,3.06-.34.25,0,.5.17.67.51,1.29,3.08,3.42,8.55,4.37,10.96,1.18,2.92,1.88,4.66,2.44,5.86v.11c-.64.2-2.58.34-3.22.34-.45,0-.7-.14-.98-.9-.53-1.43-.9-2.38-1.46-3.9h-6.28ZM166.26,26.6c-1.23-3.42-2.02-5.35-2.36-6.34-.65,1.82-1.49,4.15-2.33,6.34h4.68Z"/>
        <path class="cls-1" d="M179.16,18.72h-5.05c-.48,0-.73-.22-.5-.87.31-.93.7-1.49.98-1.79.45.11,1.21.14,4.04.14h10.07c-.11,1.54-.92,2.36-1.51,2.52h-4.4v11.52c0,1.93.06,2.86.08,3.42-.81.14-1.93.22-3.08.22-.42,0-.62-.08-.62-.5v-14.66Z"/>
        <path class="cls-1" d="M190.94,20.13c0-1.35,0-2.33-.08-3.53.81-.2,2.1-.36,3.31-.39h6.87c-.14,1.32-.53,1.96-.9,2.33-.42.2-1.4.2-2.66.2h-2.92v4.71h6.2c-.31,2.16-.9,2.52-1.88,2.52h-4.32v5.24c.65.11,1.54.17,2.58.17,1.15,0,3.31,0,4.68-.11l.06.06c-.28,1.32-.84,2.05-1.57,2.44-.39.08-1.63.14-3.81.14-2.58,0-4.43-.14-5.1-.28l-.45-.56v-12.93Z"/>
        <path class="cls-1" d="M210.94,19.9c0-1.88-.03-3.03-.08-3.56.53-.08,2.52-.22,3.14-.22.5,0,.56.25.56,1.46v7.23c2.07-2.41,5.27-6.34,7.18-8.83.53,0,1.32.06,2.07.2,1.07.17,1.07.56.48,1.35-1.23,1.54-4.12,4.85-6,7.06,1.43,2.07,5.27,6.95,7.12,8.83v.14c-.22.14-1.57.39-2.97.39-.87,0-1.37-.22-2.16-1.21-1.35-1.63-5.19-6.62-5.72-7.49v4.96c0,1.96.06,2.89.08,3.45-.48.14-2.41.22-3.06.22-.45,0-.65-.08-.65-.53v-13.46Z"/>
        <path class="cls-1" d="M227.71,19.9c0-1.88-.03-3.03-.08-3.56.53-.08,2.52-.22,3.11-.22.5,0,.59.25.59,1.54v12.56c0,1.96.06,2.89.08,3.45-.48.14-2.41.22-3.08.22-.42,0-.62-.08-.62-.56v-13.43Z"/>
        <path class="cls-1" d="M235.5,19.79c0-1.91-.03-2.47-.06-3.2.65-.14,3.42-.53,5.78-.53,8.47,0,9.98,5.05,9.98,8.64,0,6.06-4.43,9.31-10.18,9.31-2.1,0-3.73-.14-5.52-.53v-13.68ZM239.12,31.45c.7.17,1.43.22,2.13.22,2.35,0,6.11-1.12,6.11-6.9,0-4.15-2.41-6.36-6.5-6.36-.81,0-1.35.06-1.74.11v12.93Z"/>
        <path class="cls-1" d="M263.49,17.18c-.06.84-.62,2.07-1.71,1.77-.65-.28-1.77-.65-2.69-.65-1.37,0-2.47.67-2.47,1.91s.95,1.96,3.53,3.34c2.72,1.46,4.04,2.52,4.04,5.19,0,3.45-3.06,5.41-6.39,5.41-1.99,0-3.45-.59-4.18-1.09-.48-.34-.67-.67-.67-1.04,0-.62.45-1.63.7-1.85,1.04.7,2.75,1.4,4.12,1.4,1.57,0,2.86-.67,2.86-2.16,0-1.23-.62-1.91-3.31-3.28-3.5-1.77-4.07-3.56-4.07-5.44s1.32-4.91,5.97-4.91c1.4,0,3.42.56,4.26,1.4Z"/>
      </g>
      <g>
        <path class="cls-1" d="M128.24,47.87c0,2.85-1.81,5.37-5.26,5.37-3.72,0-5.19-2.77-5.19-5.19,0-3.05,1.97-5.37,5.29-5.37,3.14,0,5.16,2.23,5.16,5.19ZM120.03,47.85c0,2.63,1.45,4.05,3.11,4.05,1.79,0,2.9-1.42,2.9-3.9,0-2.08-1.05-3.98-3.14-3.98-1.53,0-2.87,1.23-2.87,3.84Z"/>
        <path class="cls-1" d="M131.64,45.21c0-.77,0-1.44-.06-2.19.42-.06,1.5-.18,2.69-.18,2.45,0,4.19.87,4.19,3.27s-1.97,3.21-3.03,3.23c-.29,0-.65-.02-.87-.15-.26-.11-.55-.63-.55-1.16.11.03.36.05.55.05.74,0,1.76-.37,1.76-1.95s-1.03-1.94-1.97-1.94c-.18,0-.42,0-.63.03v6.82c0,1.15.03,1.6.05,1.92-.27.08-1.32.13-1.76.13-.26,0-.37-.05-.37-.29v-7.6Z"/>
        <path class="cls-1" d="M141.8,45.17c0-.77,0-1.34-.05-2.03.47-.11,1.21-.21,1.9-.23h3.95c-.08.76-.31,1.13-.52,1.34-.24.11-.81.11-1.53.11h-1.68v2.71h3.56c-.18,1.24-.52,1.45-1.08,1.45h-2.48v3.02c.37.06.89.1,1.48.1.66,0,1.9,0,2.69-.07l.03.03c-.16.76-.48,1.18-.9,1.4-.23.05-.94.08-2.19.08-1.48,0-2.55-.08-2.93-.16l-.26-.32v-7.43Z"/>
        <path class="cls-1" d="M150.96,43.09v-.1c.31-.05,1.76-.13,2.03-.13.16,0,.31.11.45.29.53.76,1.81,2.74,2.95,4.5.73,1.15,1.27,1.98,1.68,2.79-.11-1.16-.1-1.76-.1-2.58v-4.48c0-.37.13-.44.35-.45.5-.05,1.06-.06,1.39-.06-.03.69-.05,1.63-.05,2.97v7.1c-.14.06-1.11.26-1.58.26-.19,0-.29-.05-.42-.23-.81-1.15-1.6-2.35-2.94-4.44-.82-1.31-1.21-2.14-1.87-3.35.1,1.56.08,2.39.08,3.21v4.21c0,.34-.1.39-.37.44-.29.05-.89.08-1.37.07.03-.65.05-1.58.05-2.94v-6.66l-.29-.4Z"/>
        <path class="cls-1" d="M165.48,51.96c0,.74-.48,1.21-1.24,1.21-.55,0-1.18-.36-1.18-1.16,0-.66.44-1.21,1.29-1.21.68,0,1.13.5,1.13,1.16ZM165.48,43.66c0,.95-.39,4.72-.48,5.39-.05.29-.24.36-.39.42-.4.1-.76.18-.85.18-.1-.68-.48-4.97-.5-6.05.06-.18,1.35-.39,1.89-.39.26,0,.34.03.34.45Z"/>
        <path class="cls-1" d="M174.26,45.05c0-1.08-.02-1.74-.05-2.05.31-.05,1.45-.13,1.81-.13.29,0,.32.14.32.84v4.16c1.19-1.39,3.03-3.64,4.13-5.08.31,0,.76.03,1.19.11.61.1.61.32.27.77-.71.89-2.37,2.79-3.45,4.06.82,1.19,3.03,4,4.1,5.08v.08c-.13.08-.9.23-1.71.23-.5,0-.79-.13-1.24-.69-.77-.94-2.98-3.81-3.29-4.31v2.85c0,1.13.03,1.66.05,1.98-.27.08-1.39.13-1.76.13-.26,0-.37-.05-.37-.31v-7.74Z"/>
        <path class="cls-1" d="M185.51,45.05c0-1.08-.02-1.74-.05-2.05.31-.05,1.45-.13,1.79-.13.29,0,.34.14.34.89v7.22c0,1.13.03,1.66.05,1.98-.27.08-1.39.13-1.77.13-.24,0-.35-.05-.35-.32v-7.72Z"/>
        <path class="cls-1" d="M191.61,44.98c0-1.1-.02-1.42-.03-1.84.37-.08,1.97-.31,3.32-.31,4.87,0,5.74,2.9,5.74,4.97,0,3.48-2.55,5.35-5.85,5.35-1.21,0-2.14-.08-3.18-.31v-7.87ZM193.69,51.69c.4.1.82.13,1.23.13,1.35,0,3.52-.65,3.52-3.97,0-2.39-1.39-3.66-3.74-3.66-.47,0-.77.03-1,.06v7.43Z"/>
        <path class="cls-1" d="M207.97,46.27c0,.48-.21,1.19-.84,1.05-.29-.13-.68-.24-1.05-.24-.47,0-.79.22-.79.6,0,.32.23.5.56.68.31.19,1.05.52,1.35.68.89.48,1.15,1.1,1.15,1.79,0,1.6-1.45,2.37-2.93,2.37-.58,0-1.24-.15-1.68-.4-.26-.15-.47-.34-.47-.66,0-.39.18-.73.37-.95.52.34,1.27.63,1.9.63.55,0,.9-.23.9-.65,0-.26-.15-.45-.58-.69-.42-.23-.84-.4-1.31-.66-.68-.37-1.13-.98-1.13-1.84,0-1.45,1.26-2.26,2.68-2.26.71,0,1.32.18,1.85.56Z"/>
        <path class="cls-1" d="M224.99,43.09c.24-.13,1.39-.22,1.77-.22.16,0,.26.1.32.5l.85,5.92c.24,1.69.42,2.89.56,3.66-.27.08-1.32.15-1.66.15-.21,0-.42-.08-.45-.4-.11-.82-.19-1.71-.37-3.42l-.45-3.97c-.43,1.39-1.34,4.02-2.37,7.05-.1.32-.23.45-.6.53-.29.05-.69.11-1.05.11-.39-1.24-1.76-5.44-2.47-7.66-.19,1.94-.66,5.58-.89,7.48-.03.18-.13.27-.31.27-.45,0-1.26,0-1.52-.15.27-1.73.94-5.87,1.53-9.55l-.05-.31c.44-.08,1.05-.22,1.82-.22.24.05.37.26.66,1.05l2.13,5.9c.79-2,1.84-4.84,2.52-6.48v-.24Z"/>
        <path class="cls-1" d="M234.01,50.34c-.36.87-.79,2.02-1,2.52-.06.16-.19.24-.47.24-.39,0-1.19-.1-1.55-.21v-.07c.84-1.98,3.32-7.92,3.95-9.42l-.13-.34c.61-.13,1.58-.19,1.76-.19.15,0,.29.1.39.29.74,1.77,1.97,4.92,2.52,6.31.68,1.68,1.08,2.68,1.4,3.37v.06c-.37.11-1.48.19-1.85.19-.26,0-.4-.08-.56-.52-.31-.82-.52-1.37-.84-2.24h-3.61ZM237.19,48.9c-.71-1.97-1.16-3.08-1.35-3.64-.37,1.05-.86,2.39-1.34,3.64h2.69Z"/>
        <path class="cls-1" d="M243.93,45.21c0-.77,0-1.44-.06-2.19.42-.06,1.5-.18,2.69-.18,2.45,0,4.19.87,4.19,3.27s-1.97,3.21-3.03,3.23c-.29,0-.65-.02-.87-.15-.26-.11-.55-.63-.55-1.16.11.03.36.05.55.05.74,0,1.76-.37,1.76-1.95s-1.03-1.94-1.97-1.94c-.18,0-.42,0-.63.03v6.82c0,1.15.03,1.6.05,1.92-.27.08-1.32.13-1.76.13-.26,0-.37-.05-.37-.29v-7.6Z"/>
      </g>
    </g>
  </g>
</svg>