<?xml version="1.0" encoding="UTF-8"?>
<svg id="_レイヤー_2" data-name="レイヤー 2" xmlns="http://www.w3.org/2000/svg" viewBox="0 0 96.29 32.28">
  <defs>
    <style>
      .cls-1 {
        fill: #231815;
      }

      .cls-1, .cls-2 {
        stroke-width: 0px;
      }

      .cls-2 {
        fill: #040000;
      }
    </style>
  </defs>
  <g id="pc">
    <g>
      <path class="cls-1" d="m62.15,25.01c-.21.57-.48,1.14-.78,1.69v5.56h-.97v-4.06c-.17.2-.34.41-.5.58-.09-.24-.37-.79-.54-1.03.74-.73,1.45-1.88,1.85-3.04l.94.29Zm2.57,1.92v.85h2.1v.88h-2.1v.92h2.21v.89h-2.21v1.8h-.99v-5.34h-.31c-.32.6-.7,1.15-1.06,1.58-.15-.18-.54-.52-.74-.67.71-.73,1.36-1.9,1.72-3.06l.93.24c-.11.34-.24.67-.4,1.01h3.15v.92h-2.31Z"/>
      <path class="cls-1" d="m74.23,30.42c.69.42,1.63.74,2.57.88-.22.21-.5.62-.65.88-1-.25-1.98-.74-2.73-1.37v1.46h-.95v-1.41c-.76.59-1.75,1.06-2.72,1.32-.14-.24-.41-.61-.62-.8.91-.19,1.87-.53,2.57-.95h-2.33v-.8h3.1v-.36h-2.34v-.7h2.34v-.36h-2.74v-.76h1.54c-.06-.2-.17-.45-.28-.63l.1-.02h-1.7v-.79h1.09c-.11-.31-.32-.7-.5-1.01l.83-.28c.24.35.5.83.62,1.15l-.4.15h.74v-1.32h.9v1.32h.6v-1.32h.91v1.32h.72l-.29-.09c.19-.33.4-.82.51-1.18l1.01.24c-.23.37-.45.74-.63,1.02h1.06v.79h-1.53c-.13.24-.26.45-.38.65h1.59v.76h-2.82v.36h2.44v.7h-2.44v.36h3.16v.8h-2.36Zm-2.21-3.62c.11.21.22.45.28.63l-.14.02h1.52c.1-.2.19-.43.28-.65h-1.94Z"/>
      <path class="cls-1" d="m86.44,26.01h-1.34c.14.19.27.39.34.54l-.89.25c-.09-.21-.29-.53-.49-.8h-.47c-.15.19-.29.35-.45.5v.44h3.11v1.61h-.94v-.88h-5.17v.88h-.91v-1.61h2.99v-.57h.36c-.15-.08-.3-.15-.41-.2.06-.05.14-.11.2-.16h-.95c.11.19.21.39.27.54l-.87.24c-.06-.2-.21-.51-.37-.78h-.14c-.21.3-.44.57-.65.78-.19-.15-.57-.41-.79-.52.49-.41.95-1.03,1.19-1.65l.9.24c-.06.13-.12.26-.19.39h1.8v.54c.32-.33.6-.76.77-1.18l.92.22c-.06.14-.12.28-.19.41h2.36v.76Zm-5.03,4.17h4.17v2.09h-.96v-.22h-3.22v.22h-.93v-4.28h4.48v1.81h-3.56v.37Zm0-1.06h2.6v-.42h-2.6v.42Zm0,2.23h3.22v-.46h-3.22v.46Z"/>
      <path class="cls-1" d="m91.46,30.64c-.89.32-1.87.63-2.65.88l-.22-.98c.28-.07.62-.16.99-.27v-1.91h-.82v-.89h.82v-1.43h-.89v-.9h2.68v.9h-.87v1.43h.73v.89h-.73v1.62c.27-.08.54-.16.8-.25l.16.91Zm4.82.5v.88h-5.22v-.88h2.24v-.77h-1.68v-.87h1.68v-.7h-1.62v-3.78h4.24v3.78h-1.63v.7h1.72v.87h-1.72v.77h2Zm-3.74-4.62h.84v-.67h-.84v.67Zm0,1.46h.84v-.7h-.84v.7Zm2.45-2.14h-.8v.67h.8v-.67Zm0,1.44h-.8v.7h.8v-.7Z"/>
      <rect class="cls-2" x="62.33" width="3.16" height="3.16"/>
      <rect class="cls-2" x="62.33" y="5.53" width="3.16" height="15.77"/>
      <path class="cls-2" d="m74.95,5.52c-3.48,0-6.31,2.83-6.31,6.31v9.47h3.16v-9.47c0-1.74,1.42-3.16,3.16-3.16s3.16,1.42,3.16,3.16h3.16c0-3.48-2.83-6.31-6.31-6.31"/>
      <path class="cls-2" d="m96.25,5.52h-3.16s0,9.48,0,9.48c0,.84-.33,1.64-.92,2.23-.6.6-1.39.92-2.23.92h0c-.84,0-1.63-.33-2.23-.92-.6-.6-.92-1.39-.93-2.23V5.52s-3.16,0-3.16,0v9.49c0,1.69.66,3.27,1.85,4.46,1.19,1.19,2.77,1.85,4.46,1.85h0c1.69,0,3.27-.66,4.46-1.85,1.19-1.19,1.85-2.78,1.85-4.46V5.52Z"/>
      <path class="cls-2" d="m7.89,5.52C3.54,5.52,0,9.06,0,13.41s3.54,7.89,7.89,7.89c1.78,0,3.41-.6,4.73-1.59h0s3.16.01,3.16.01v-6.31c0-4.35-3.54-7.89-7.89-7.89m0,12.62c-2.61,0-4.73-2.12-4.73-4.73s2.12-4.73,4.73-4.73,4.73,2.12,4.73,4.73-2.12,4.73-4.73,4.73"/>
      <path class="cls-2" d="m33.93,13.41c0-4.35-3.54-7.88-7.89-7.88s-7.89,3.54-7.89,7.89,3.54,7.89,7.89,7.89c1.78,0,3.41-.6,4.73-1.59v1.59c0,1.28-.52,2.53-1.44,3.42-.89.87-2.05,1.32-3.26,1.31-1.29-.03-2.56-.6-3.48-1.56-.45-.48-.79-1.02-1.01-1.6h-3.27c.29,1.38.98,2.7,2,3.78,1.5,1.57,3.58,2.5,5.7,2.54.05,0,.1,0,.16,0,2.01,0,3.92-.78,5.38-2.21,1.52-1.49,2.38-3.55,2.38-5.68v-7.9Zm-7.89,4.74c-2.61,0-4.73-2.12-4.73-4.73s2.12-4.73,4.73-4.73,4.73,2.12,4.73,4.73-2.12,4.73-4.73,4.73"/>
      <path class="cls-2" d="m52.86,5.52c-1.89,0-3.58.84-4.73,2.15-1.16-1.32-2.85-2.15-4.73-2.15-3.48,0-6.31,2.83-6.31,6.31v9.47h3.16v-9.47c0-1.74,1.42-3.16,3.16-3.16s3.16,1.42,3.16,3.16v9.47h3.16v-9.47c0-1.74,1.42-3.16,3.16-3.16s3.16,1.42,3.16,3.16v9.47h3.16v-9.47c0-3.48-2.83-6.31-6.31-6.31"/>
    </g>
  </g>
</svg>