<?xml version="1.0" encoding="UTF-8"?>
<svg xmlns="http://www.w3.org/2000/svg" xmlns:xlink="http://www.w3.org/1999/xlink" viewBox="0 0 149.6 237.43">
  <defs>
    <style>
      .cls-1 {
        fill: #ae81ff;
      }

      .cls-1, .cls-2, .cls-3, .cls-4, .cls-5, .cls-6, .cls-7, .cls-8, .cls-9, .cls-10, .cls-11, .cls-12, .cls-13, .cls-14, .cls-15, .cls-16, .cls-17, .cls-18, .cls-19, .cls-20, .cls-21, .cls-22, .cls-23, .cls-24, .cls-25, .cls-26, .cls-27, .cls-28, .cls-29, .cls-30, .cls-31, .cls-32, .cls-33, .cls-34, .cls-35, .cls-36, .cls-37, .cls-38, .cls-39, .cls-40, .cls-41, .cls-42, .cls-43, .cls-44, .cls-45, .cls-46, .cls-47 {
        stroke-width: 0px;
      }

      .cls-2 {
        fill: #fd8f8f;
      }

      .cls-3 {
        fill: #533b8b;
      }

      .cls-4 {
        fill: #9cb9c5;
      }

      .cls-5 {
        fill: #d3145a;
      }

      .cls-6 {
        fill: #ecc6c7;
      }

      .cls-7 {
        fill: #9c5659;
      }

      .cls-8 {
        fill: #fd5e5a;
      }

      .cls-9 {
        fill: url(#linear-gradient);
      }

      .cls-10 {
        fill: #172866;
      }

      .cls-11 {
        fill: #420023;
      }

      .cls-12 {
        fill: #6a0a2d;
      }

      .cls-13 {
        fill: #d2c7b4;
      }

      .cls-14 {
        fill: #7ea885;
      }

      .cls-15 {
        fill: #095270;
      }

      .cls-16 {
        fill: #5e007e;
      }

      .cls-17 {
        fill: #21005f;
      }

      .cls-18 {
        fill: #000;
      }

      .cls-19 {
        fill: #3a758c;
      }

      .cls-20 {
        fill: #fc8282;
      }

      .cls-21 {
        fill: #ecc57c;
      }

      .cls-22 {
        fill: #d07376;
      }

      .cls-23 {
        fill: #26084c;
      }

      .cls-24 {
        fill: #2c1f67;
      }

      .cls-25 {
        fill: #c82257;
      }

      .cls-26 {
        fill: #b2cbb6;
      }

      .cls-27 {
        fill: #40001b;
      }

      .cls-28, .cls-44 {
        fill: #556845;
      }

      .cls-29 {
        fill: #3f0100;
      }

      .cls-30 {
        fill: #f14e76;
      }

      .cls-31 {
        fill: #deccff;
      }

      .cls-32 {
        fill: #fb4f4f;
      }

      .cls-33 {
        fill: #464a7f;
      }

      .cls-34 {
        fill: #210075;
      }

      .cls-35 {
        fill: #b87a56;
      }

      .cls-48 {
        isolation: isolate;
      }

      .cls-36 {
        fill: #fb4444;
      }

      .cls-37 {
        fill: #1b3753;
      }

      .cls-38 {
        fill: #f6a2c6;
      }

      .cls-39 {
        fill: #00114d;
      }

      .cls-40 {
        fill: #abfbdc;
      }

      .cls-41 {
        fill: #fc7575;
      }

      .cls-42 {
        fill: #f166a0;
      }

      .cls-43 {
        fill: #fff7cf;
      }

      .cls-44 {
        mix-blend-mode: multiply;
        opacity: .23;
      }

      .cls-45 {
        fill: #7e0200;
      }

      .cls-46 {
        fill: #0e1b29;
      }

      .cls-47 {
        fill: #47545c;
      }
    </style>
    <linearGradient id="linear-gradient" x1="-246.47" y1="167.43" x2="-240.73" y2="315.23" gradientTransform="translate(339.03 -76.77) rotate(-2.98)" gradientUnits="userSpaceOnUse">
      <stop offset="0" stop-color="#116363"/>
      <stop offset="1" stop-color="#2c9c9d"/>
    </linearGradient>
  </defs>
  <g class="cls-48">
    <g id="_レイヤー_2" data-name="レイヤー 2">
      <g id="pc">
        <g>
          <path class="cls-28" d="M83.6,57.31l-6.44.29s6.74,23.86,4.35,26.25l5.83,1.77-3.74-28.31Z"/>
          <path class="cls-13" d="M149.6,230.66c0,3.74-33.28,6.77-74.34,6.77S.92,234.4.92,230.66s33.28-6.77,74.34-6.77,74.34,3.03,74.34,6.77Z"/>
          <path class="cls-8" d="M72.27,79.29s3.24,5.58,5.28,9.88c2.04,4.3,6.34,6.41,6.34,6.41l2.41-11.52s-7.47-3.42-8.45-5.3c-.98-1.88-5.58.53-5.58.53Z"/>
          <g>
            <path class="cls-41" d="M71.81,208.98c.66.66-4.58,12.93-4.58,12.93l7.31,1.97,3.64-14.4-6.37-.5Z"/>
            <path class="cls-47" d="M89.12,102.07l-4.17,6.07s-5.6,49.66-6.97,55.25c-1.36,5.59-8.77,52.78-8.77,52.78l7.69,2.69s14.62-39.09,13.88-44.26c-.73-5.18,16.68-53.38,16.68-53.38l-17.41-19.25-.94.1Z"/>
            <path class="cls-9" d="M92.38,105.06l-4.46,1,3.36,17.72s10.97,36.86,11.74,49.28c.77,12.41-6.39,46.86-6.39,46.86l12.65.45s10.93-35.01,8.4-45.14,1.16-54.46,1.16-54.46l-4.36-16.67-22.09.97Z"/>
            <path class="cls-15" d="M106.01,219.05c.54-.06.5.89.46,1.43-.09,1.5.26,3.81.14,5.93-.17,3.03,1.28,5.51-3.2,5.95-4.48.44-9.14-.82-9.49-2.8-.35-1.98,4.29-6.44,4.4-8.41.11-1.96,1.43-2.72,2.13-2.06.52.48,3.83.16,5.55-.05Z"/>
            <path class="cls-40" d="M106.35,231.08c-.8.69-1.91.76-3.12.76-2.58.01-8.21-.33-9.31-2.28-.1.53.23,1.09.64,1.5,3.04,2.92,11.26,2.49,11.79.02Z"/>
            <path class="cls-4" d="M98.93,223.67c-.09,1.89,2.97,3.59,4.09,1.91.02-.03,1.57-4.16,1.71-5.43.09-.76.68-2.05-1.37-2.42-2.03-.37-3.54.29-3.58.97-.03.45-.72,2.12-.86,4.97Z"/>
            <path class="cls-15" d="M103.54,224.85s.13-5.52,1.08-5.71c.39-.08.88-.13,1.31-.16.57-.04,1.03.46.93,1.03-.3,1.66-.94,4.71-1.78,5.35-1.16.89-1.55-.51-1.55-.51Z"/>
            <path class="cls-40" d="M98.46,220.64c0,.07.03.14.1.19,2.57,1.77,6.33.25,6.49.18.13-.05.19-.19.12-.3-.07-.11-.22-.16-.36-.1-.04.02-3.62,1.45-5.92-.13-.11-.08-.28-.06-.38.03-.04.04-.06.08-.06.13Z"/>
            <path class="cls-40" d="M98.18,222.84c0,.07.03.13.09.18,1.59,1.16,6.08.17,6.27.12.14-.03.23-.16.19-.28-.04-.12-.18-.19-.33-.16-1.22.27-4.65.8-5.79-.03-.11-.08-.28-.07-.38.02-.04.04-.06.09-.06.14Z"/>
            <path class="cls-40" d="M97.91,224.43c0,.06.02.12.07.16,1.25,1.16,6.04.41,6.58.33.14-.02.24-.14.21-.26-.03-.12-.17-.2-.31-.18-1.39.23-5.2.64-6.08-.19-.1-.09-.27-.1-.38-.02-.05.04-.08.1-.09.16Z"/>
            <g>
              <path class="cls-4" d="M66.48,222.94c-1.83,1.06-3.34-.63-3.32-.66,1.81-2.59,2.82-4.93,3.25-5.49.48-.63,1.14-1.47,2.81-.62,1.67.85,3.07,2.68,2.43,3.06-.43.25-2.42,2.12-5.17,3.71Z"/>
              <path class="cls-15" d="M77.97,228s-4.39.05-7.47.08c-3.07.03-7.97.4-9.51.42-1.54.02-7.15-2.98-6.8-3.98.35-1,5.4-.81,8.02-1.96,2.62-1.15,6.06-4.55,7.24-4.49.99.05,6.05.98,6.94,1.72.89.74,2.33,7.55,1.57,8.21Z"/>
              <path class="cls-40" d="M55.5,223.89s0,0,0,0c1.18.27,3.23,2.27,6.29,2.94,2.38.52,12.1-.54,16.31-1.04.13,1.11.12,2-.13,2.22,0,0-4.39.05-7.47.08-3.07.03-7.97.4-9.51.42-1.54.02-7.15-2.98-6.8-3.98.1-.29.6-.48,1.31-.63Z"/>
              <path class="cls-40" d="M65.16,224s.05-.09.04-.13c-.33-1.68-2.79-1.75-2.89-1.75-.09,0-.18.06-.2.15-.02.08.03.15.11.15.02,0,2.36.06,2.66,1.57.01.07.1.11.19.08.04-.01.07-.03.09-.06Z"/>
              <path class="cls-40" d="M66.35,222.78s.05-.09.04-.13c-.17-1.08-2.72-1.63-2.82-1.66-.08-.02-.18.03-.22.11-.04.08,0,.16.07.18.69.15,2.52.7,2.65,1.48.01.08.09.11.18.08.04-.01.07-.04.1-.06Z"/>
              <path class="cls-40" d="M67.23,221.92s.05-.07.05-.11c-.02-1-2.58-1.77-2.87-1.85-.08-.02-.18.02-.22.1-.05.08-.02.16.06.18.75.22,2.69.94,2.71,1.65,0,.08.08.13.17.1.04-.01.09-.04.11-.07Z"/>
            </g>
            <path class="cls-19" d="M104.5,227.08s.98,2.9.29,3.43c-.69.52-9.15.08-9.08-1.16.07-1.24,2.12-3.59,2.89-3.75.77-.16,5.91,1.48,5.91,1.48Z"/>
          </g>
          <path class="cls-14" d="M88.42,50.38s-9.5,6.18-9.5,9.81,4.75,16.22,4.75,22.71-1.79,29.39-1.79,29.39c0,0,11.68.63,25.78-1.29,7.5-1.02,9.67-.11,9.67-.11,0,0-1.75-26.76-4.01-39.4-2.26-12.64.54-21.22-1.36-23.11s-15.62-2.17-23.54,2Z"/>
          <path class="cls-44" d="M111.82,48.65q-.08-.08-.35.23c-1.23,2.86-2.73,7.63-2.27,15.63.7,12.28,2.13,17.02-4.35,23.51-6.49,6.49,7.07,3.04,7.07,6.96s-21.88,6.53-14.91,10.02c6.06,3.03-2.8,6.47-5.2,7.31,4.39-.14,9.9-.5,15.84-1.31,7.5-1.02,9.67-.11,9.67-.11,0,0-1.75-26.76-4.01-39.4-2.26-12.64.41-20.94-1.49-22.84Z"/>
          <path class="cls-27" d="M79.61,48.09s9.07-1.35,14.6-1.35,14.8,3.34,15.75,2.94l-7.79-5.71h-10.94l-11.63,4.11Z"/>
          <path class="cls-20" d="M104.2,52.05c-4.41,4.41-.88,10.99-4.74,18.84-3.86,7.86-.69,10.46-.69,12.27s-8.26,2.92-8.26,1.3,2.49-15.21,2.49-17.59c0-2,1.07-9.6,1.4-12.98.07-.64.11-1.14.11-1.41,0-1.63.22-3.94.46-5.98.29-2.48.62-4.56.62-4.56l9.32-.75s3.7,6.46-.71,10.86Z"/>
          <path class="cls-36" d="M85.02,43.8s-10.71,8.63-11.62,12.14c-.91,3.51-.84,18.25-3.47,20.88-2.63,2.63-6.47,3.2-5.28,4.39,1.19,1.19,13.01.61,14.26-.64,1.24-1.24-1.43-5.38-.83-7.82.6-2.44,4.22-14.72,4.22-16.73s18.19-13.32,18.19-13.32l-15.48,1.09Z"/>
          <path class="cls-8" d="M111.95,48.38s-.33,13.66,1.1,21.53c1.43,7.87,2.07,9.89,2.07,9.89l9.84,7.88s-1.77-40.56-13.01-39.3Z"/>
          <path class="cls-28" d="M125.93,79.72c-1.07-11.98-5.24-32.08-13.98-31.35-7.39.62-2.31,28.55-1.99,30.07,2.99-.12,13,.9,15.96,1.28Z"/>
          <path class="cls-26" d="M111.95,48.38c-6.99.45-3.8,22.78-1.99,30.07-.84-6.18-4.17-28.96,1.99-30.07Z"/>
          <path class="cls-2" d="M121.08,77.7c-3.15-1.49-16.54-2.09-18.17-3.73-1.64-1.64-.57-3.81-2.89-4.56-2.32-.75-8.35-1.96-8.35,0s.45,1.73,0,2.79c-.45,1.06-.53,1.96-.53,2.64s-.34.83-.34,1.96.57,1.96.57,1.96c0,0,2.01-1.38,3.22-1.38s2.1-.21,3.02,1.38c.92,1.58,22.47,10,24.16,10.41,1.72.42,3.23-.57,3.2-1.76-.03-1.18.28-7.74-3.88-9.71Z"/>
          <path class="cls-41" d="M69.32,69.68s.17-.98.77-1.57c.59-.59,3.02-.98,5.05.24,2.04,1.22,3.22.98,2.11,2.09-1.11,1.11-4.07-.87-4.07-.87,0,0,4.38,1.96,3.77,3.24-.6,1.28-3.59-1.37-4.28-.68-.69.69,4.13,1.89,3.3,2.72-.83.83-4.76-1.78-4.76-.82s4.12,1.23,3.03,2.33c-1.09,1.09-4-.01-4.92.45-.92.47-1.53-5.61-1.12-6.02.41-.41,1.12-1.1,1.12-1.1Z"/>
          <path class="cls-5" d="M84.81,17.04s.59.53,6.24,3.47c5.66,2.94,18.91,29.18,18.91,29.18,0,0-10.56.34-15-3.19-6.03-4.8-15.36,1.59-15.36,1.59,0,0,5.99-3.16,5.99-6.32s-12.59-11.11-11.23-15.98c1.36-4.86,10.44-8.75,10.44-8.75Z"/>
          <path class="cls-12" d="M94.82,45.95c-4.38-3.13-10.79-1.03-15.2,2.13,4.41-2.53,11.04-3.74,15.36-1.19,4.39,2.6,9.98,3.12,15,2.78-4.94-.18-11.27-.81-15.15-3.73Z"/>
          <g>
            <path class="cls-41" d="M64.43,33.5s.48,6.77,2.44,9.93c2.01,3.25,5.42,8.29,5.42,8.29l1.26-1.11s3.26,1.59,4.73,3.27c1.47,1.68,3.21-1.71,4.74-3.06,1.54-1.35,3.79-5.69.88-11.67-2.91-5.98-8.02-16.72-19.47-5.66Z"/>
            <path class="cls-41" d="M94.97,46.9c-.24,2.04-.46,3.95-.46,5.58,0,.27-.04.76-.11,1.41-.85,1.67-1.79,2.94-2.2,2.9-3.67-.33-5.31-3.55-7.18-5.24-.49-.45-.97-.88-1.39-1.27-.02-.01-.03-.03-.05-.04-.5-.45-.93-.83-1.25-1.13-.01,0-.02-.01-.02-.01-.34-.96-2.63-7.38-3.1-8.69-.02-.05-.68-1.92-.68-1.92l3.92,1.23,12.51,7.17Z"/>
            <path class="cls-34" d="M57.66,34.26c.07.37,1.98,7.43,7.82,5.63,5.84-1.8,4.49-5.42,7.08-4.73,2.59.69,2.89,5.24,5.15,5.98l1.63-.96s-.44-1.07.12-1.57c.56-.49,4.44,3.6,5.33,2.81.9-.79-.52-5.93-1.16-8.34-.64-2.41-3.87-9.6-8.37-8.24-4.5,1.36-4.91,3.7-6.14,2.31-1.23-1.4-1.33,1.3-1.33,1.3,0,0-1.69-.37-2.24-1.99-.56-1.62-4.83,1.4-3.65,4.58,1.18,3.17-4.96-.71-4.22,3.22Z"/>
            <path class="cls-41" d="M76.91,38.14s2.36,2.82,3.02,2.23c.66-.58.75-3.43-.96-4.87-1.71-1.44-3.45.45-2.06,2.64Z"/>
            <path class="cls-8" d="M77.11,37.43s.63,1.39,1.57,1.45c.94.06.84-1.98-.47-2.41-1.32-.43-1.55.24-1.09.96Z"/>
            <path class="cls-34" d="M69.2,43.04l.48.76s1.05-1.17,2.25-1.09c1.2.08,1.36.07,1.36.07,0,0-1.67-1.21-4.08.26Z"/>
            <path class="cls-34" d="M72.26,43.99c.3.34.31.81.02,1.06-.28.25-.75.18-1.05-.16-.3-.34-.31-.81-.02-1.06.28-.25.75-.18,1.05.16Z"/>
            <path class="cls-34" d="M76.68,51c.4-.35.72-.79.87-1.26.07-.24.08-.48.03-.71-.04-.23-.17-.43-.3-.62l-.02-.02c-.08-.12-.05-.29.07-.37.12-.08.29-.05.37.07,0,.01.01.02.02.04.13.27.25.55.25.86,0,.3-.06.6-.18.85-.26.51-.67.88-1.12,1.17Z"/>
            <path class="cls-34" d="M60.25,40.9c.17.26.76.45,1.06.52,1.57.31,3.12-.81,4.18-1.53-.12.12-1.18,1.48-2.51,2.12-1.42.71-2.78.56-3.65-.04l.93-1.07Z"/>
            <path class="cls-8" d="M86.1,47.09c-.05.81-.67,3.06-1.07,4.44-1.49-1.36-2.72-2.44-2.72-2.44,0,0,1.36-.01-3.23-8.93,0,0,.02.01.05.04h0c.65.54,7.03,5.76,6.96,6.89Z"/>
            <path class="cls-34" d="M77.15,52.85s.73,1.28,1.27,1.9c.54.62,2.7-.06,3.74-1.68,1.04-1.63,2.17-4.25,2.23-5.14.06-.89-5.21-7.65-5.21-7.65l-1.48.87s3.06,4.74,3,5.71c-.06.98-3.55,6-3.55,6Z"/>
            <path class="cls-8" d="M72.96,46.01c.3.54,1.26.58,2.15.1.88-.49,1.36-1.33,1.06-1.87-.3-.54-1.26-.59-2.14-.1-.88.49-1.36,1.33-1.06,1.87Z"/>
          </g>
          <g>
            <path class="cls-42" d="M91.89,20.75c-2.19-2.19-7.84-6.81-9.08-.95,0,0-.27,1.65.56,6.43.35,2.03.84,3.61,1.33,4.9,2.52.62,6.46,1.86,9.01,2.65.96-4.82-.19-11.4-1.81-13.03Z"/>
            <path class="cls-38" d="M82.43,21.11c.1,2.74.87,7.06,2.26,10.02-1.24-4.16-1.81-10.22-1.51-11.41.79-3.52,3.42-2.82,6.39-.75.81.54,1.56,1.16,2.31,1.79-4.55-5.12-9.49-5.93-9.46.36Z"/>
            <path class="cls-36" d="M84.69,31.13c.66,1.75,1.31,2.98,1.61,4.1.53,1.96,4.21,3.85,4.84,2.29.47-1.16.9-2.68,1.23-4.34-2.55-.79-5.16-1.43-7.68-2.06Z"/>
            <g>
              <path class="cls-39" d="M61.96,19.37s4.83.08,3.64-4.31c-1.19-4.38-3.7-6.78-2.29-9.04,1.4-2.26,3.64-4.76,6.71-5.44.66-.15,17.32,8.6,17.32,8.6,0,0-2.7,2.92-1.24,5.27,1.46,2.36-8.88,6.79-10.2,8.01-1.32,1.22-7,2-7,2l-1.36-1.59s1.52-.41,1.69-.94c0,0-1.74.73-3.26.64-1.52-.09-4.02-3.2-4.02-3.2Z"/>
              <g>
                <path class="cls-41" d="M72.09,18.13s3.64,4,2.97,6.14c-.67,2.14,6.41-.77,4.6-4.26-.64-1.23-4.29-6.04-4.29-6.04l-3.27,4.16Z"/>
                <path class="cls-8" d="M78.25,17.88c-.86,1-2.51,2.21-4.08,3.06-.89-1.51-2.07-2.81-2.07-2.81l3.27-4.16s1.61,2.12,2.88,3.91Z"/>
                <path class="cls-41" d="M65.21,5.38c-.63,1.09-1.43,3.65-.55,5,.88,1.35.69,3.83,2.66,6.54,1.97,2.7,5.73,2.73,6.45,2.19,3.07-2.31,3.69-4.8,3.89-7.44.2-2.64,3.05-4.27-2.69-7.77-5.74-3.5-8.53-.64-9.77,1.49Z"/>
                <path class="cls-18" d="M68.88,12.57c-.28.73-.76,1.05-.84,1.14.33.24.77.58,1.35.89-.25-.32-.52-.6-.81-.87.68-.61.85-1.61.54-2.44-.05.81-.13.95-.25,1.28Z"/>
                <path class="cls-18" d="M69.85,11.03c.12-.77.61-1.65,1.31-1.82.73-.16,1.12.37,1.81.16-.56.53-1.28.11-1.8.25-.52.12-.94.77-1.32,1.41Z"/>
                <path class="cls-18" d="M68.2,11.68c-.56-.23-1.35-.29-1.79.03-.44.34-.28.77-.73,1.07.6-.11.66-.67.99-.91.31-.24.93-.23,1.52-.2Z"/>
                <path class="cls-18" d="M69.53,7.7c.44-.29,1.05-.23,1.56-.01-1.12-.11-1.49.24-1.79.83-.31.59-.25.87-.47.77-.29-.13.15-1.2.7-1.6Z"/>
                <path class="cls-18" d="M65.88,10.21c-.25.1-.42.42-.64.7.12-1.02.68-1.39,1.63-.77.16.1.05.34-.11.26,0,0-.73-.26-.88-.2Z"/>
                <path class="cls-8" d="M67.67,14.11c.29.56-.15,1.37-.99,1.81-.41-.73-.69-1.44-.9-2.1.8-.35,1.62-.23,1.89.3Z"/>
              </g>
              <path class="cls-10" d="M68.2,2.6s7.45,4.78,8.14,12.29c.26,2.81-.43,7.57-.43,7.57,0,0,6.39-3.16,7.98-3.5l-2.38-6.16,3.77,5.2s1.54-.21,4.28-3.76c2.74-3.55.36-7.75.36-7.75,0,0-6.47,1.88-9.24-1.86-2.77-3.74-9.94-7.18-12.46-2.04Z"/>
              <path class="cls-39" d="M65.63,4.72s4.44,2.7,7.72.99c3.29-1.71,4.45-.77,4.94.16.49.94-.14,2.32-1.53,2.2-1.39-.13-1.68-.52-1.68-.52,0,0,.28,1.47,1.49,1.85,1.21.38,3.96-.36,3.64-2.89-.2-1.57-1.21-3.11-2.62-3.84-.66-.35-1.19-.32-1.91-.26-1.11.1-2.23.08-3.33-.09-.56-.09-1.11-.21-1.65-.37-.53-.16-1.04-.4-1.6-.4-.5,0-.98.05-1.45.22-1.28.46-1.94,1.64-2.03,2.95Z"/>
              <path class="cls-30" d="M74.68,5.28h0c.21-.29.58-.41.92-.3h0c.68.22,1.3-.47,1-1.12h0c-.15-.33-.07-.71.2-.95h0c.53-.48.24-1.36-.47-1.43h0c-.36-.04-.65-.3-.72-.65h0c-.15-.7-1.05-.89-1.47-.31h0c-.21.29-.58.41-.92.3h0c-.68-.22-1.3.47-1,1.12h0c.15.33.07.71-.2.95h0c-.53.48-.24,1.36.47,1.43h0c.36.04.65.3.72.65h0c.15.7,1.05.89,1.47.31Z"/>
              <path class="cls-43" d="M75.17,3.89h0c.02-.19.15-.34.33-.38h0c.36-.08.45-.55.15-.77h0c-.15-.11-.22-.3-.16-.48h0c.11-.35-.25-.67-.59-.51h0c-.17.08-.37.04-.49-.1h0c-.25-.27-.71-.12-.74.25h0c-.02.19-.15.34-.33.38h0c-.36.08-.45.55-.15.77h0c.15.11.22.3.16.48h0c-.11.35.25.67.59.51h0c.17-.08.37-.04.49.1h0c.25.27.71.12.74-.25Z"/>
              <path class="cls-8" d="M71.36,12.86c.24.47,1.01.55,1.71.18.7-.36,1.07-1.04.83-1.5-.24-.47-1.01-.55-1.71-.18-.7.36-1.07,1.04-.83,1.5Z"/>
              <path class="cls-18" d="M70.68,16.33c.98-.51,2.29-1.64,2.36-1.7.06-.05.07-.12.02-.16-.05-.04-.13-.03-.19.02-.02.02-1.9,1.63-2.75,1.84-.07.02-.13.08-.12.14,0,.06.07.1.14.08.15-.04.33-.11.53-.22Z"/>
            </g>
          </g>
          <path class="cls-41" d="M70.08,30.56s-.83-2.94,1.73-4.75c2.56-1.81,3.77-1.28,5.36-.98,1.58.3,8.52,2.64,10.86,4.98,2.34,2.34,3.57,6.64,3.11,7.72-.58,1.35-1.21,1.55-3.55,1.55s-8.28-9.2-9.91-9.81c-1.63-.6-2.08.16-3.37.91-1.29.74-4.22.38-4.22.38Z"/>
          <g>
            <path class="cls-41" d="M54.75,228.48c-3.14-.86-6.03-4.7-6.62-7.9l-3.81.08c1.01.97-.41,7.13-.41,7.13l.86,3.39,9.99-2.7Z"/>
            <path class="cls-23" d="M56.98,229.25c-.72-.31-1.47-.9-2.23-.77-10.32,1.8-10.84-.69-10.84-.69,0,0-.93,2.75-.92,3.37.01.62.63.6,3.74.53,3.1-.07,7.97.71,10.56-.1,2.59-.8,2.71-1.05-.3-2.35Z"/>
            <path class="cls-41" d="M29.85,224.81c.04,1.72-.55,3.73-1.11,5.58-.51,1.67.42,2.63.44,3.7.05,2.26,5.77,1.42,5.77,1.42,0,0,1.31-3.33.57-5.97-.6-2.14-1.16-4.52-1.19-6.09,0-.3.07-.99.21-1.97l-4.66.1c.1,1.69-.03,2.83-.02,3.22Z"/>
            <path class="cls-23" d="M35.52,229.55s-.2,5.29-3.11,4.4c-1.8-.55-3.01-2.3-3.68-3.56-.51,1.67-.99,3.2-.96,4.27.05,2.26,8.84,2.76,8.84,2.76,0,0-.35-5.24-1.1-7.88Z"/>
            <g>
              <polygon class="cls-8" points="12.56 71.8 12.87 62.52 19.81 62.52 21.03 71.07 12.56 71.8"/>
              <path class="cls-17" d="M15.1,43.51s4.39-1.2,5.05,3.34c0,0-3.26-2.36-4.42-1.08-1.15,1.28-4.06,2.25-4.06,2.25l3.43-4.51Z"/>
              <path class="cls-41" d="M13.74,45.85s3.97,2.07,4.57,2.87c.6.8.65,2.16,1.78,2.85,1.14.69,2.57.44,2.57.44,0,0,.29.8-.21,1.49-.49.69.57,1.54.76,1.6.13.04-1.83,1.16-1.83,1.16,0,0,1.15,1.12,2.22.48,0,0,.18.08-.02.68-.21.6.77,3.06-.82,4.19-1.6,1.13-8.52,4.01-13.08,2.45-4.56-1.56-9.29-5.68-7.04-10.53,2.25-4.85,11.11-7.69,11.11-7.69Z"/>
              <path class="cls-24" d="M18.44,52.57c.18.37.49.59.68.49.2-.1.21-.47.03-.84-.18-.37-.49-.59-.68-.49-.19.1-.21.47-.03.84Z"/>
              <path class="cls-8" d="M15.89,58.25c.38.78,1.47,1.02,2.43.55.96-.47,1.43-1.48,1.05-2.26-.38-.78-1.47-1.02-2.43-.55-.96.47-1.43,1.48-1.05,2.26Z"/>
              <path class="cls-33" d="M4.99,46.74s5.24-4.85,8.59-5.02c3.35-.17,5.27,3.42,5.27,3.42,0,0-3.16-1.31-4.13-.31,0,0,3.33,1.07,4.16,3.75,0,0-4.08-1.01-5.06.08-.98,1.09,1.05,3.72.64,5.33-.41,1.61-1.91,2.05-1.84,3.45.07,1.4,3.88,5.09,2.05,7.13-1.84,2.04-6.43.71-8.29-.96C4.51,61.94.16,58.13.01,55.34c-.14-2.78.78-3.95,2.04-5.35,1.26-1.4,2.94-3.25,2.94-3.25Z"/>
              <path class="cls-41" d="M13.61,56.13s-1.84-2.54-3-.97c-1.15,1.57,2.58,4.72,3.73,3.72,1.15-1.01-.74-2.74-.74-2.74Z"/>
              <path class="cls-8" d="M12.24,55.62s1.9.93,1.68,1.51c-.22.58-1.16.65-1.88,0-.72-.65-.92-1.71.2-1.52Z"/>
            </g>
            <path class="cls-46" d="M47.89,40.18s-7.24-.39-9.74,6.37c-2.51,6.75-2.21,20.74,1.21,24.7,3.41,3.95,2.85,14.09,5.84,17.08,2.99,2.99,10.61,4.34,10.61-2.7,0,0-3.71.86-4.65-3.53,0,0,5.33,3.41,7.93-1.79,2.61-5.2-2.99-5.68-2.99-5.68,0,0,2.7,3.57-.58,2.8-3.28-.77-5.18-3.73-5.18-7.51s5.57-1.37,4.99-8.32c-.58-6.95-4.98-21.66-7.43-21.42Z"/>
            <polygon class="cls-7" points="32.02 69.13 18.17 82.83 22.24 87.51 29.66 91.7 39.45 83.85 32.02 69.13"/>
            <path class="cls-21" d="M15.74,109.49s-6.55,11.45-6.55,14.22,7.26,31.92,9.02,38.4l-.71,11.45,8.67,49.54h8.67s-5.66-57.68-4.6-67.15c1.06-9.47,4.6-38.5,4.6-38.5l-19.11-7.96Z"/>
            <path class="cls-35" d="M32.19,120.81s8.49,34.06,8.49,43.67,1.42,58.62,1.42,58.62h8.32s2.12-53.32,2.12-66.3-3.55-41.64-3.55-41.64l-16.8-6.51v12.16Z"/>
            <path class="cls-25" d="M46.53,67.91s-10.62,1.22-14.51,1.22c0,0,2.65,21.96-4.95,26.03-7.61,4.07-15.93,14.65-15.93,14.65,0,0,23,15.31,41.05,12.54,0,0-2.83-13.41-.88-21.1,1.95-7.68,13.8-24.69,12.56-29.37-1.24-4.68-17.34-3.97-17.34-3.97Z"/>
            <path class="cls-8" d="M2.75,87.23c-.02.27-.03.54-.03.79,0,6.08,8.05,6.34,8.05,6.34l-.88-5.79c-2.4-.45-4.79-.88-7.15-1.34Z"/>
            <path class="cls-16" d="M7.19,70.64s-5.93,10.38-6.27,16.59c2.36.46,6.59.9,8.99,1.34l-2.72-17.94Z"/>
            <path class="cls-11" d="M22.76,103.23l2.69,3.61-1.34,7.08,5.56.35s5.27-10.89,4.83-10.89-11.06-2.29-11.06-2.29l-.67,2.14Z"/>
            <path class="cls-32" d="M25.92,111.32s-1.96,3.36-1.96,8.85,1.31,6.81,0,9.73c-1.31,2.92-2.38,4.07-1.23,5.22,1.15,1.15,4.47,2.88,5.84,4.25,1.37,1.37,6.46.8,6.46-.53s-5.38-1.9-4.5-8.25c.88-6.35,4.5-19.27,4.5-19.27h-9.11Z"/>
            <path class="cls-41" d="M30.6,114.27s-1.96,3.36-1.96,8.85,1.31,6.81,0,9.73c-1.31,2.92-2.38,4.07-1.23,5.22,1.15,1.15,4.47,2.88,5.84,4.25,1.37,1.37,6.46.8,6.46-.53s-5.38-1.9-4.5-8.25c.87-6.35,4.5-19.27,4.5-19.27h-9.11Z"/>
            <path class="cls-45" d="M32.46,94.36s6.5,1.99,8.49,3.98c1.99,1.99,0,19.47,0,19.47,0,0-13.01-.44-13.01-2.12s2.12-9.11,1.68-10.88c-.44-1.77-10.66,1.81-12.05-2.15-1.4-3.96,14.89-8.3,14.89-8.3Z"/>
            <path class="cls-29" d="M41.25,98.23c-1.05-1.46-6.32-3.22-8.79-3.87,1.95.75,4.67,1.84,6.59,2.97,2.73,1.62,2.82,1.05,1.9,20.48.58-3.38,2.3-17.32.3-19.58Z"/>
            <path class="cls-41" d="M8.19,99.83s-.97.11-.97,2.1.8,6.45,2.99,7.56c2.19,1.11,9.93,2.58,11.41,2.05,1.48-.53,1.61-3.83,2.32-4.54.71-.71.96-2.36-1.18-2.91-2.14-.55-6.78-2.09-8.71-2.43-1.92-.33-5.86-1.84-5.86-1.84Z"/>
            <path class="cls-2" d="M65.27,99.71s-2.03,6.68-8.22,10.1c-6.18,3.42-19.24,1.56-23.74,4.08-4.5,2.51-7.26,1.56-8.79,1.84-1.53.28-1.72.07-2.51-.72-.8-.8-1.68-1-1.19-2.46.49-1.46-.2-1.32-.2-2.38s3.43-2.9,3.43-3.55-3.02,1.72-3.02,1.07,1.21-2.43,2.88-3.03c2.05-.74,4.89,1.03,6.46,2.14,1.56,1.1,1.73.9,5.18.9s15.56-4.32,16.99-5.75c1.43-1.43,5.28-6.35,5.28-6.35l7.45,4.13Z"/>
            <path class="cls-8" d="M63.34,103.71c1.39-2.21,1.93-4,1.93-4l-7.45-4.13s-1.23,1.57-2.56,3.2c1.93,1.02,5.72,3.1,8.07,4.93Z"/>
            <path class="cls-8" d="M56.95,106.94s-1.11,1.79-.76,2.13c.35.35,2.87-.59,3.11-1.07.24-.48-1.57-1.41-2.35-1.07Z"/>
            <path class="cls-3" d="M9.19,68.61s9.38-4.78,13.36-4.25c0,0-.18,15.13,3.27,20.62,3.45,5.49,10.88,8.67,10.88,8.67,0,0-4.07,6.81-10.88,8.94-6.81,2.12-15.48-.53-17.08-2.12-1.59-1.59-6.99-27.96.44-31.85Z"/>
            <path class="cls-41" d="M52.15,60.39s-.3.81-.72,2.05c-1.3,3.76-2.95,12.03-3.09,12.18-.99.99-7.08-.27-7.56-4.18l4.61-14.12,6.77,4.06Z"/>
            <path class="cls-8" d="M45.38,56.33l6.77,4.06s-.25.85-.72,2.05c-2.38-.66-6.15-1.99-6.94-3.37l.9-2.75Z"/>
            <path class="cls-46" d="M47.02,44.81l10.23,5.64s2.12.05,2.12-2.31-2.6-4.68-5.26-6.03c-2.65-1.35-5.98-1.93-5.98-1.93l-1.11,4.63Z"/>
            <path class="cls-41" d="M50.73,42.25s3.96.68,5.02,2.56c1.06,1.88,1.35,6.37,2.41,7.43,1.06,1.06,1.99,1.29,1.99,1.29,0,0,.28.49-.78,1.02-1.06.53-.26,1.11.4,1.11s.1,1.25-.4,1.4c0,0,.65.19.53.82-.12.63-.43.75-.43.75,0,0-.03.82.31,1.59.34.77-.48,3.06-5.66,2.05,0,0-7.69-1.81-8.15-3.98-.46-2.17-3.88-10.06-.96-12.98,2.92-2.92,5.74-3.06,5.74-3.06Z"/>
            <path class="cls-37" d="M46.98,40.08s1.38-.82,6.21.56c4.82,1.37,5.98,6.37,5.98,6.37,0,0-3.11-2.1-5.06-2.1s-6.37-.74-7.09-1.46c-.72-.72-.03-3.36-.03-3.36Z"/>
            <path class="cls-37" d="M47.87,39.87c.67,0,4.86,4.6,3.7,8.22-1.16,3.62-3.91,2-5.64,2.97-1.74.96.34,5.43.02,7.24-.31,1.81-5.19,12.15-5.19,12.15,0,0-4.1-21.87-1.61-25.92,2.49-4.05,8.72-4.65,8.72-4.65Z"/>
            <path class="cls-8" d="M52,54.71c0,.54.91.98,2.02.98s2.02-.44,2.02-.98-.91-.98-2.02-.98-2.02.44-2.02.98Z"/>
            <path class="cls-37" d="M57.77,49.99s-.37,1.44-3.03,1.95l3.03-1.95Z"/>
            <path class="cls-37" d="M56.59,49.67s-1-.6-1.78-.6-1.5.31-1.5.6c0,0,.85-.41,1.53-.3.68.1.99.62,1.26.62s.49-.32.49-.32Z"/>
            <path class="cls-37" d="M45.73,54.67s3.46,1.33.67,8.84c-3.4,9.17-12.46,12.36-8.05,16.78,4.42,4.42,3.84,23.09-12.01,18.76,0,0,8.55-.9,6.68-5.98-1.87-5.07-9.08.37-9.08-5.39s3.36-3.04,4.64-9.61c1.28-6.56-2.4-3.57-1.44-10.35.96-6.78,12.01-23.22,12.01-23.22l6.58,10.15Z"/>
            <path class="cls-41" d="M46.46,51.49s-1.4-3.04-2.05-2.39c-.65.65-.98,5.14,1.32,5.57,2.3.43.73-3.18.73-3.18Z"/>
            <path class="cls-8" d="M46.36,51.86s-.72-1.66-1.11-1.27c-.39.39.03,3,.55,3s.68-.9.56-1.73Z"/>
            <path class="cls-2" d="M19.81,65.96l3.19,15.75s1.72,4.6,4.95,5.93c3.23,1.33,8.5-1.16,10.18-2.84,1.68-1.68,5.07-1.99,6.39-4.25,1.33-2.26-3.25,1.13-3.25.2s2.94-1,3.49-2.79c.55-1.79-4.36,1.73-4.36,1.26s3.72-2.39,3.25-3.58c-.46-1.19-2.65,1.99-4.31,2.39-1.66.4,2.26-1.79,1.39-2.65-.86-.86-3.47,2.72-4.03,2.72s1.75-2.26,0-1.73c-1.75.53-1.38,3.02-2.48,4.11-1.09,1.1-5.04-1.99-6.44-4.71s-7.99-9.82-7.99-9.82Z"/>
            <path class="cls-1" d="M19.08,72.74c.5,3.75,1.15,7.6,2.61,11.11,0,0,11.32-2,10.51-5.42q-.13-.53-1.9-5.62c-1.42-4.09-1.94-8.38-7-8.78-6.18-.49-4.65,5.37-4.21,8.71Z"/>
            <path class="cls-31" d="M30.71,73.2c-1.18-3.64-1.86-8.03-5.6-9.08-1.75-.42-4.06-.54-5.3.73,1.57-1.12,5.35-.96,7.23,1.21.57.64,1,1.41,1.34,2.22.7,1.62,1.14,3.4,1.83,5.09.03.07,1.96,4.99,1.99,5.07-.37-1.79-.96-3.5-1.49-5.24Z"/>
            <path class="cls-22" d="M60.98,69.41s1.33-.28,4.17,3.31c3.14,3.98,2.12,29.73,2.12,29.73l-12.61-5.84s2.52-9.29,2.52-15.4,3.79-11.81,3.79-11.81Z"/>
            <path class="cls-6" d="M57.8,75.73c-1.77,5.24.22,3.7-3.14,20.89,4.95-15.02.6-16.73,6.32-27.21-1.37,1.92-2.42,4.07-3.18,6.31Z"/>
            <path class="cls-8" d="M29.31,85.63s-.61,1.29-.31,1.6c.31.31,2.05.02,2.05-.42s-1.74-1.18-1.74-1.18Z"/>
          </g>
          <path class="cls-37" d="M56.05,51.77c0,.44.19.8.43.8s.43-.36.43-.8-.19-.8-.43-.8-.43.36-.43.8Z"/>
        </g>
      </g>
    </g>
  </g>
</svg>