<?xml version="1.0" encoding="UTF-8"?>
<svg xmlns="http://www.w3.org/2000/svg" viewBox="0 0 222.5 212.19">
  <defs>
    <style>
      .cls-1 {
        fill: #ea5050;
      }

      .cls-1, .cls-2, .cls-3, .cls-4, .cls-5, .cls-6, .cls-7, .cls-8, .cls-9, .cls-10, .cls-11, .cls-12, .cls-13, .cls-14, .cls-15, .cls-16, .cls-17, .cls-18, .cls-19, .cls-20, .cls-21, .cls-22, .cls-23, .cls-24, .cls-25, .cls-26, .cls-27, .cls-28, .cls-29, .cls-30, .cls-31, .cls-32, .cls-33, .cls-34, .cls-35, .cls-36, .cls-37, .cls-38, .cls-39, .cls-40, .cls-41, .cls-42 {
        stroke-width: 0px;
      }

      .cls-2 {
        fill: #747f85;
        opacity: .48;
      }

      .cls-3 {
        fill: #9b6a20;
      }

      .cls-4 {
        fill: #f05a24;
      }

      .cls-5 {
        fill: #6e3a56;
      }

      .cls-6 {
        fill: #1498c3;
      }

      .cls-7 {
        fill: #436155;
      }

      .cls-8 {
        fill: #a0a96a;
      }

      .cls-9 {
        fill: #f8b334;
      }

      .cls-10 {
        fill: #73215e;
      }

      .cls-11 {
        fill: #d2c7b4;
      }

      .cls-12 {
        fill: #0f7292;
      }

      .cls-13 {
        fill: #1b2b5c;
      }

      .cls-14 {
        fill: #d6543b;
      }

      .cls-15 {
        fill: #e59da1;
      }

      .cls-16 {
        fill: #43487a;
      }

      .cls-17 {
        fill: #0a0632;
      }

      .cls-18 {
        fill: #21005f;
      }

      .cls-19, .cls-31 {
        fill: #f8a84b;
      }

      .cls-20 {
        fill: #ea5d58;
      }

      .cls-21 {
        fill: #e85d5d;
      }

      .cls-22 {
        fill: #111e4d;
      }

      .cls-23 {
        fill: #353120;
      }

      .cls-24 {
        fill: #c6cba6;
      }

      .cls-25 {
        fill: #eee5a6;
      }

      .cls-26 {
        fill: #2c1f67;
      }

      .cls-27 {
        fill: #ea4e4e;
      }

      .cls-28 {
        fill: #877685;
      }

      .cls-29 {
        fill: #f6921e;
      }

      .cls-30 {
        fill: #ab7a9f;
      }

      .cls-31 {
        mix-blend-mode: multiply;
      }

      .cls-32 {
        fill: #787f50;
      }

      .cls-33 {
        fill: #a13f2c;
      }

      .cls-34 {
        fill: #fc6565;
      }

      .cls-35 {
        fill: #5c4470;
      }

      .cls-36 {
        fill: #69623f;
      }

      .cls-37 {
        fill: #ec7171;
      }

      .cls-43 {
        isolation: isolate;
      }

      .cls-38 {
        fill: #b96e16;
      }

      .cls-39 {
        fill: #0f2b20;
      }

      .cls-40 {
        fill: #e5d4f4;
      }

      .cls-41 {
        fill: #1b3753;
      }

      .cls-42 {
        fill: #68323d;
      }
    </style>
  </defs>
  <g class="cls-43">
    <g id="_レイヤー_2" data-name="レイヤー 2">
      <g id="pc">
        <g>
          <path class="cls-11" d="M222.5,206.57c0,2.82-46.58,5.1-104.03,5.1s-104.03-2.29-104.03-5.1,46.58-5.11,104.03-5.11,104.03,2.29,104.03,5.11Z"/>
          <path class="cls-20" d="M138.04,64.34s-2.04,13.57-3.47,15.87c-1.43,2.3-3.69,16.65-3.95,21.31-.26,4.65-.63,10.2-.89,12.89-.26,2.69-.11,5.51.37,6.74.48,1.23-.19,2.54.13,2.12s1.56-.22,2-.22,1.43-.62,1.43-.62c0,0-.17-5.27.26-5.83,0,0,1.22.9,1.43.9,0,0-.51,3.62,1.01,2.94,0,0,.03-3.79-.23-4.68-.26-.9-2.57-6.56-2.09-10.65.48-4.09,7.69-15.48,8.08-23.61.39-8.13,3.47-14.3,3.47-14.3l-7.56-2.86Z"/>
          <path class="cls-4" d="M128.37,134.03s-4.26-7.78-4.63-7.59c-.37.19-.21,4.41.32,5.64s4,2.4,4.32,1.95Z"/>
          <path class="cls-34" d="M131.78,118.67s2.52,3.32,3.07,2.93c.56-.38-2.43-3.79-2.43-3.79l-.64.85Z"/>
          <path class="cls-34" d="M133.21,117.96s1.79,2.52,2.36,2.13c.57-.39-1.71-2.77-1.71-2.77l-.65.64Z"/>
          <path class="cls-34" d="M133.96,116.75s3.08,2,2.6,2.33c-.48.33-2.99-1.48-2.99-1.48l.39-.86Z"/>
          <path class="cls-37" d="M120.49,129.57s6.38-2.38,7.23-2.97c.85-.59,2.44-3.84,2.39-5.83-.05-1.99.13-2.78.22-3.26.09-.48,2.76-1.79,4.04-1.56,1.28.23-.66,2.26-.43,5.11.22,2.85-2.11,8.06-2.81,10.07-.7,2.02-10.3,5.18-10.3,5.18l-.33-6.74Z"/>
          <path class="cls-9" d="M112.78,133.81s1.08-2.65,3.68-3.82c2.61-1.17,7.27-3.55,7.27-3.55,0,0,1.9,6.73,4.63,7.59,0,0-9.41,5.29-12.03,5.14-2.61-.15-3.56-5.36-3.56-5.36Z"/>
          <path class="cls-34" d="M128.9,131.13s1.27.6,1.53.41c.26-.18,1.09-1.42.63-1.8-.47-.38-2.44.97-2.16,1.38Z"/>
          <path class="cls-37" d="M11.04,41.5S2.88,59.55,2.88,62.96s-1.95,25.99-1.95,25.99c0,0-1.16,11.02-.85,12.23.3,1.22,4.45,6.27,5.45,6.27s0-1.22,0-1.22c0,0,1.3.91,1.73.49.43-.43-3.1-5.58-3.1-6.27,0-.88.38-3.04,1.37-3.41,1-.37,1.55,4.81,2.4,4.81s.36-7.24-.43-9.56c-.79-2.31-2.13-3.77-1.28-6.82.85-3.04,6.94-13.63,5.6-21.12l7.91-17.28-8.7-5.58Z"/>
          <path class="cls-38" d="M22.08,25.48s-9.82,9.34-16.35,22.54C-.79,61.23.03,84.8.03,84.8l6.02,1.51s6.52-14.32,7.64-21.38c1.11-7.06,11.13-23.89,11.13-23.89l-2.74-15.55Z"/>
          <path class="cls-36" d="M39.46,194.89s7.49,6.35,8.61,7.57c1.48,1.62,1.43,4.58,1.43,4.58l-5.02-.47-5.02-11.68Z"/>
          <path class="cls-37" d="M43.94,199.31c-.73-4.11-.24-8.23-.24-8.23l-5.29,2.06s-.63,2.51-1,4.54c1.87.89,4.94,2.95,6.54,1.63Z"/>
          <path class="cls-36" d="M30.81,173.11s.63,9.15.63,10.2,7.36,1.4,7.36,0-1.39-10.59-1.39-10.59l-6.59.39Z"/>
          <path class="cls-23" d="M37.4,172.72h-.07c.41,2.81,1.07,7.48,1.07,8.44,0,1.23-5.67,1.11-7.05.35.05.88.08,1.55.08,1.79,0,1.05,7.36,1.4,7.36,0s-1.39-10.59-1.39-10.59Z"/>
          <path class="cls-42" d="M38.03,17.8s-11.89.92-10.92,1.88c.97.97,12.19-.58,15.48,1.61,3.3,2.19,6.86.56,6.86.56,0,0-8.15-1.93-9.79-2.99l-1.63-1.06Z"/>
          <path class="cls-39" d="M19.14,98.75s-.88,11.21,1.23,18.56c2.1,7.36,4.78,12.46,4.03,20.84-.85,9.47,5.41,37.81,5.41,37.81l8.6.37s-2.26-25.22-2.26-32.92v-29.42l-.77-21.53-16.23,6.29Z"/>
          <path class="cls-7" d="M20.12,96.22s-1.54,9.34.23,12.51c.86,1.54,12.78,1.73,13.15,2.1,1.14,1.14,2.64,19.81,2.64,23.83v30.28c0,7.88,1.56,29.6,1.56,29.6h7.71s4.38-33.98,4.38-44.48,5.25-48.34,4.2-51.14c-1.05-2.8-33.87-2.71-33.87-2.71Z"/>
          <path class="cls-15" d="M81.63,196.16c-.46-1.45-.76-6.05.56-6.05s1.02,6.81,2.28,7.61c1.26.81,4.39.44,4.65,1.36.04.13.06.25.08.37.1.71-.5,1.12-1.2,1.26-1.51.3-3.45.38-4.24-.76-.43-.61-1.79-2.76-2.12-3.79Z"/>
          <path class="cls-21" d="M75.55,112.48s-2.37.73-2.55,1.53c-.19.8,1.86-.42,1.86-.42l.69-1.11Z"/>
          <path class="cls-34" d="M74.59,113.43s-1.05.64-1.35,1.52c-.3.88-.33,1.43-.05,1.43s.89-1.36,1.1-1.57c.21-.21.7-.34.7-.34l-.4-1.04Z"/>
          <g>
            <polygon class="cls-1" points="50.84 25.68 53.51 26.59 54.98 21.86 50.84 25.68"/>
            <path class="cls-20" d="M42.51,4.33s-3.72.85-3.19,5.95c.31,2.97-.51,6.98-1.25,9.82l-4.42,3.9,12.68,2.99,4.56.78s2.14-3.8,4.9-5.6c2.76-1.8,5.47-11.55,2.48-14.54-2.99-2.99-10.55-6.9-15.75-3.29Z"/>
            <path class="cls-17" d="M52.74,18.34s3.59-.66,4.25,0c.66.66-.18,1.61-.51,1.28s-2.79-1.26-3.74-1.28Z"/>
            <path class="cls-17" d="M54.5,21.69c-.39.44-.9.62-1.15.4-.25-.22-.14-.75.25-1.2s.9-.62,1.15-.4c.25.22.14.75-.25,1.2Z"/>
            <path class="cls-27" d="M42.64,17.56s-1.79,5.29,1.2,9.43c2.99,4.14,10.23-.14,8-.25-7.43-.37-7.97-3.85-9.21-9.18Z"/>
            <path class="cls-17" d="M37.22,14.86c.36.57.56,1.23.54,1.9-.04,1.34-.08,3.34.04,3.46.19.19,5.03-4.32,5.03-3.04s2.6,1.52,4.83-.71c2.22-2.22,3.95-3.47,6.36-2.69.27.09.5.19.7.31,1.01.6,2.24.7,3.27.14.28-.15,1.1-.24,1.43-.24,1.84,0,3.73-5.66,1.46-8.64-2.27-2.97-.21,0-2.34,0S52.67-.94,50.41.12c-2.27,1.06-9.2,2.19-12.39,7.65-2.2,3.77-1.46,6.05-.79,7.1Z"/>
            <path class="cls-20" d="M49.82,15.7s1.02-2.19-.29-2.83c-1.31-.64-4.23,4.98-2.36,4.98s2.65-2.15,2.65-2.15Z"/>
            <path class="cls-27" d="M49.28,15.05s.49-1.63-.23-1.42c-.72.21-2.53,2.47-1.85,2.84.68.37,1.97-.93,2.08-1.42Z"/>
          </g>
          <path class="cls-10" d="M84.41,190.02c-1.62-.32-2.43-.03-2.55.65-.31,1.73.39,4.46,1.05,6.13.26.65.73,1.21.94,1.48.35.44.82-.13,1.38.06.93.32,4.05-3.07,4.05-3.07,0,0-3.24-4.92-4.86-5.25Z"/>
          <path class="cls-37" d="M90.25,179.85s-2.43,9.01-3.08,11.04c-.65,2.03-2.49,5.19-2.49,6.57s4.44,1.62,4.44,1.62c0,0,1.05-4.22,2.6-6.57,1.54-2.35,4.96-9.58,4.96-9.58l-6.42-3.08Z"/>
          <polygon class="cls-37" points="110.46 187.49 110.46 199.08 116.06 199.08 117.36 187.16 110.46 187.49"/>
          <path class="cls-37" d="M70.04,51.59s2.86,14.73,4.87,17.22c2.01,2.5,5.17,18.08,5.54,23.13.37,5.05.88,11.07,1.25,14,.37,2.92.15,5.98-.52,7.32-.67,1.34.27,2.76-.18,2.3s-2.19-.24-2.8-.24-2.01-.67-2.01-.67c0,0,.24-5.72-.37-6.33,0,0-1.7.97-2.01.97,0,0,.71,3.93-1.42,3.2,0,0-.05-4.11.32-5.08.37-.97,3.6-7.12,2.93-11.56-.67-4.44-10.77-16.8-11.32-25.62-.55-8.83-4.87-15.52-4.87-15.52l10.59-3.1Z"/>
          <path class="cls-34" d="M76.29,111.52s3.65-.65,5.03.73c1.38,1.38,7.06,10.87,8.6,12.42,1.54,1.54,8.52,4.71,8.52,4.71l-1.54,6.25s-11.04-5.11-11.77-6.57c-.73-1.46-7.02-13.08-7.57-13.63-.56-.56-1.43-.21-2.31.67-.1.1-.51-.65-.66-1.7-.1-.7-.32-1.03.1-1.45,1.05-1.05,1.59-1.41,1.59-1.41Z"/>
          <g>
            <path class="cls-18" d="M108.39,111.29s-3.6-1.16-4.32,2.58c0,0,2.8-1.84,3.71-.73s3.28,2.02,3.28,2.02l-2.67-3.87Z"/>
            <polygon class="cls-37" points="109.1 123.91 109.43 126.59 112.32 131.09 105.45 138.49 105.42 131.79 104.85 128.86 109.1 123.91"/>
            <path class="cls-20" d="M105.42,131.79c2-.5,3.54-2.42,4.17-5.98l.3-2.46-5.53,3.57,1.06,4.87Z"/>
            <path class="cls-37" d="M109.43,113.28s-3.37,1.57-3.9,2.21c-.53.64-.62,1.77-1.59,2.3-.97.53-2.15.26-2.15.26,0,0-.27.65.11,1.24.38.59-.53,1.25-.69,1.3-.11.03,1.47,1.03,1.47,1.03,0,0-.99.89-1.86.31,0,0-.15.06,0,.56.15.51-.76,2.5.52,3.5,1.28,1,6.91,3.65,10.75,2.53,3.84-1.12,7.92-4.35,6.24-8.46-1.68-4.11-8.92-6.8-8.92-6.8Z"/>
            <path class="cls-26" d="M105.28,118.68c-.16.3-.43.47-.58.38-.16-.09-.15-.4.01-.7.16-.3.43-.47.58-.38.16.09.15.4-.01.7Z"/>
            <path class="cls-20" d="M107.17,123.48c-.35.63-1.26.79-2.03.36-.78-.43-1.13-1.28-.79-1.91.35-.63,1.26-.79,2.04-.36.78.43,1.13,1.28.78,1.91Z"/>
            <path class="cls-16" d="M116.66,114.36s-4.16-4.22-6.93-4.49c-2.77-.27-4.5,2.64-4.5,2.64,0,0,2.67-.97,3.44-.1,0,0-2.8.76-3.59,2.95,0,0,3.42-.68,4.19.26.77.94-1.02,3.05-.74,4.4.28,1.35,1.51,1.77,1.4,2.93-.11,1.16-3.42,4.07-1.97,5.83,1.45,1.76,5.31.84,6.91-.48,1.61-1.32,5.36-4.32,5.59-6.62.22-2.3-.49-3.3-1.49-4.51-.99-1.21-2.31-2.81-2.31-2.81Z"/>
            <path class="cls-37" d="M109.15,121.81s1.62-2.04,2.52-.69c.9,1.35-2.32,3.82-3.24,2.94-.91-.88.72-2.25.72-2.25Z"/>
            <path class="cls-20" d="M110.3,121.45s-1.61.7-1.45,1.19c.16.49.93.59,1.56.08.62-.51.82-1.38-.1-1.27Z"/>
          </g>
          <path class="cls-9" d="M91.67,125.91s-3.2,4.84-2.88,7.36c0,0,7.88,4.78,7.88,6.73s-.82,9.32.4,11.75c1.22,2.43,16.55,2.86,19.07,2.13,2.52-.73,1-9.17,1-11.68s.54-9.33-1.65-10.47c-2.19-1.14-14.44-3.82-16.02-3.9-1.78-.08-7.8-1.92-7.8-1.92Z"/>
          <path class="cls-10" d="M121.09,201.28s-.73,1.62-2.19,1.62c-.98,0-9.74.41-9.74.41,0,0-.65-2.76,0-4.22.65-1.46,1.3-2.92,1.3-2.92,0,0,2.6,2.19,3.73,2.19s2.05-.99,2.05-.99l4.84,3.91Z"/>
          <path class="cls-29" d="M17.98,104.65s1.18-44.75,2.39-54.97,1.7-24.2,1.7-24.2c0,0,8.05-4.07,19.66-2.65,11.61,1.42,15.48,4.86,17.58,6.96,0,0-4.3,22.85-4.35,43.43-.03,11.13-.77,27.06,0,29.84,0,0-28.97-4.25-37,1.59Z"/>
          <path class="cls-12" d="M94.87,158.39l-5.52,16.49-1.06,7s6.17,4.23,10.63,3.82c0,0,2.72-9.83,5.22-12.34.21-.21.49-.49.81-.83l-10.09-14.14Z"/>
          <path class="cls-6" d="M117.68,152.78s0,0,0,0c0,0-1.66-6.53-3.57-10.34-2.11-4.22-.26-11.53,1.05-11.52l-2.13-.78s-3.63,5-5.26,5.49c-1.62.49-5.24-7.5-5.24-7.5l-3.08-.78s2.14,7.38,2.14,10.71-4.94,12.7-4.94,12.7l-1.26,3.25-.54,4.38,10.09,14.14c.13.66.24,1.35.3,2.05.32,3.73,3.41,14.85,3.41,14.85l10.87-.59c0-5.73-1.85-35.76-1.87-36.06Z"/>
          <path class="cls-37" d="M75.77,115.92s-1.93-2.57-1.68-3.31c.25-.74,3.06,2.16,3.06,2.65s-1.38.67-1.38.67Z"/>
          <path class="cls-37" d="M76.78,115.23s-1.48-4.03-.57-4.4c.91-.37,1.57,4.28,1.57,4.73s-1.01-.33-1.01-.33Z"/>
          <path class="cls-34" d="M74.6,117.4c.29-.58.74-1.48.95-1.83l-.93-.98s-1.13,1.68-.78,2.74c.11.35.59.39.76.06Z"/>
          <path class="cls-15" d="M113.91,201.48c-.48-.48-3.84.12-4.98.34.08.84.24,1.49.24,1.49,0,0,8.76-.41,9.74-.41,1.46,0,2.19-1.62,2.19-1.62-1.37,1.37-6.6.79-7.18.2Z"/>
          <path class="cls-12" d="M94.87,158.39s10.07,14.9,22.26,9.17c0,0-6.76,6.33-12.17,4.97-5.41-1.36-10.09-14.14-10.09-14.14Z"/>
          <path class="cls-10" d="M87.14,195.16c-.98-.25-2.02.13-2.61.95-.44.62-.85,1.34-.8,1.84.11,1.03,3.05,2.36,5.38,1.24,0,0,.82-1.79.82-2.79,0,0-1.01-.79-2.79-1.24Z"/>
          <path class="cls-30" d="M84.76,190.76s-2.07-.87-2.07.44,1.07,4.69,2.07,4.69-.33-2.77.77-2.77.78-1.88-.77-2.36Z"/>
          <g>
            <path class="cls-26" d="M147.13,26.54c.62,1.48.49,2.95-.29,3.28s-1.92-.61-2.55-2.09c-.62-1.48-.49-2.95.29-3.28.78-.33,1.92.61,2.55,2.09Z"/>
            <path class="cls-22" d="M147.44,26.54c.62,1.48.49,2.95-.29,3.28-.78.33-1.92-.61-2.55-2.09s-.49-2.95.29-3.28c.78-.33,1.92.61,2.55,2.09Z"/>
            <path class="cls-14" d="M179.03,108.73s5.37.12,7.82-.93c2.45-1.05-1.05-13.19-1.05-13.19l-4.99-4.2-1.11,2.8h-5.33l4.67,15.53Z"/>
            <path class="cls-33" d="M179.03,108.73s5.37.12,7.82-.93c2.45-1.05-1.05-13.19-1.05-13.19l-4.99-4.2-1.11,2.8s-2.22,5.19-2.33,9.99l1.67,5.54Z"/>
            <path class="cls-36" d="M158.52,185.85s-1.52,7.01-1.52,8.06,7.36,1.4,7.36,0-3.68-9.81-3.68-9.81l-2.16,1.75Z"/>
            <path class="cls-40" d="M164.35,193.91c0-.28-.15-.84-.38-1.56-2.1.73-4.85.51-6.79.19-.11.65-.18,1.14-.18,1.37,0,1.05,7.36,1.4,7.36,0Z"/>
            <path class="cls-5" d="M144.7,103.54s-.88,11.21,1.23,18.56c2.1,7.36,5.78,12.61,4.03,20.84-1.75,8.23,7.36,45.38,7.36,45.38l6.66-2.6s-2.26-29.82-2.26-37.53v-29.42l-5.62-18.91-11.38,3.68Z"/>
            <path class="cls-36" d="M164.35,202.06s8.16,3.97,9.27,5.19c1.48,1.62,1.43,4.58,1.43,4.58l-5.02-.47-5.69-9.3Z"/>
            <path class="cls-36" d="M174.05,208.39c-.6-.6-2.09-1.83-3.36-2.85-.95-.76-1.59-1.84-1.82-3.04,0,0,0-.01,0-.02-.03-.15-.05-.29-.08-.43-1.59,1.33-3.97,1.31-5.83.42-.16.87-.28,1.66-.28,2.11,0,1.52-.47,5.72.64,5.72.83,0,4.17-.52,5.81-.79,2.69.06,5.98,2.43,5.98,2.43,0,0,.06-2.43-1.06-3.56Z"/>
            <path class="cls-37" d="M168.8,202.06c-.73-4.11.47-6.18.47-6.18l-5.29,2.06s-.63,2.51-1,4.54c1.87.89,4.24.91,5.83-.42Z"/>
            <path class="cls-32" d="M175.35,41.19s6.6,5.43,6.6,14.19v22.53s-10.86,16-12.96,15.3c-2.1-.7-3.62-3.39-3.62-3.39,0,0,7.19-13.45,8.99-18.1,1.8-4.65.99-30.53.99-30.53Z"/>
            <path class="cls-28" d="M145.68,101s-1.54,9.34.23,12.51c.86,1.54,12.78,1.73,13.15,2.1,1.14,1.14,4.2,21.37,4.2,25.39s-1.56,20.84-1.56,28.72,1.56,29.6,1.56,29.6h7.71s4.38-33.98,4.38-44.48,5.25-48.34,4.2-51.14c-1.05-2.8-33.87-2.71-33.87-2.71Z"/>
            <path class="cls-2" d="M145.68,101s-.6,3.64-.62,7.15c6.45,2.38,22.23,7.29,34.26,3.44.36-4.2.5-7.17.23-7.88-1.05-2.8-33.87-2.71-33.87-2.71Z"/>
            <path class="cls-20" d="M154.86,32.26s1.58,7.36,0,8.93,4.73,8.23,4.73,8.23l6.83-7.01s-2.1-11.38-2.1-13.31-9.46.35-9.46,3.15Z"/>
            <path class="cls-37" d="M154.86,32.26s1.58,7.36,0,8.93c-.6.6-.06,1.93.84,3.36.19-1.1.47-2.43.88-3.88.88-3.11.45-8.03.17-10.61-1.12.63-1.9,1.4-1.9,2.2Z"/>
            <path class="cls-8" d="M142.95,45.04s6.96-4.87,12.41-4.87,16.66-.38,19.99,1.02c3.33,1.4,2.28,18.56,0,30.82-2.28,12.26,3.68,27.15,5.25,31.35,1.58,4.2-6.3,3.5-15.06,6.3-8.76,2.8-15.76-2.1-19.79-2.1s-.7-12.96.7-21.02c1.4-8.06-5.43-39.58-3.5-41.51Z"/>
            <path class="cls-24" d="M142.95,45.04c-1.21,1.35.34,13.14.65,15.57,2.95,24.47,3.02,21.8,1.42,30.89-.59,3.38-2.44,13.02-.44,15.48-2.25-3.42,2.57-17.3,2.67-23.11.1-11.04-5.77-36.81-4.29-38.84Z"/>
            <path class="cls-37" d="M145.64,16.96s-.85,2.25-.85,3.91.85,5.08.85,6.48,3.09,7.27,4.76,8.93c1.66,1.66,5.78-1.23,6.39-2.89.61-1.66,0-6.83,0-8.58s-8.95-10.06-11.15-7.85Z"/>
            <path class="cls-41" d="M159.68,10.01c-1.05,0-4.19-1.49-8.75-.7-4.56.79-7.79,7.71-6.83,8.67s3.68.26,4.29,1.93c.61,1.66,1.58,5.34,3.06,5.34s4.48,3.32,5.61,5.16c1.13,1.84,8.66,2.19,9.36-1.22.7-3.41-.61-6.3-.61-10.6s-6.13-8.58-6.13-8.58Z"/>
            <path class="cls-13" d="M160.51,6.69c-.47.47-5.46,1.49-3.45,5.34,2,3.85,2.09,9.28,5.94,9.28s7.27,2.71,7.97-1.23c.7-3.94-3.42-5.34-2.54-8.58.88-3.24-6.06-6.68-7.92-4.82Z"/>
            <polygon class="cls-33" points="147.97 41.6 179.69 93.2 180.81 90.4 150.93 40.12 147.97 41.6"/>
            <path class="cls-13" d="M161.84,31.79c1.87,1.19,3.5,2.86,2.51,4.85-.1.08-.87,1.65-3.02,1.52-2.94-.21-4.93-3.06-2.35-4.62l.81,1.57c-.18.07-.3.16-.35.21-.63.57,2.38,2.89,4.05,1.2l.26-.27c.02-.08.62-.69.21-1.8-.39-1.03-1.23-1.92-2.12-2.65Z"/>
            <path class="cls-13" d="M162.46,31.73c3.17,1.36,5.56,4.11,4.55,7.5-.39,1.13-.95,2.12-.92,2.05-2.51,4.62,2.13,4.82,4.06,2.6l1.8,1.8c-2.75,2.5-6.81,1.99-7.9-.31-1.12-2.38,1.39-5.4,1.35-5.33l.36-.55c.12-.18.18-.39.27-.59.45-1.06.52-2.02.13-3.16-.61-1.69-2.09-3.05-3.7-4Z"/>
            <path class="cls-40" d="M164.5,206.33c-.71.1-1.39.48-1.84.89-.18.17-.28.4-.28.65.04,1.32.36,2.44.95,2.44.83,0,4.17-.52,5.81-.79,2.69.06,5.98,2.43,5.98,2.43,0,0,.01-.48-.07-1.12-.95-.7-2.23-1.4-2.67-1.67-.64-.39-5.65-3.15-7.87-2.84Z"/>
            <path class="cls-35" d="M166.89,211.83s8.99.82,8.17,0c-.82-.82-5.02-2.45-5.02-2.45l-3.44-1.08c-1.46-.34-4.01.34-3.65,1.79.03.13.37.41.37.41l3.56,1.33Z"/>
            <path class="cls-32" d="M147.25,46.28c.77,6.23,4.18,34.97,3.28,40.76-1.37,6.98-4.13,12.43-1.74,15.49,2.26,2.83,6.33-1.49,11.95-3.1,4.22-1.23,5.51.04,10.9,1.24,3.53.81,5.34.82,5.28.81.35,0,.63.3.62.65-.02.62-.73.64-.66.62-1.64-.07-3.92-.53-5.51-.92-6.7-1.59-7.09-3.38-15.31.62-3.15,1.53-5.99,3.12-7.94.6-2.67-3.52.42-9.64,1.57-14.78,1.41-6.34-1.69-35-2.45-41.98Z"/>
            <polygon class="cls-26" points="144.01 26.84 143.98 26.48 151 24.35 151.08 24.72 144.01 26.84"/>
            <path class="cls-37" d="M151.17,25.92s-.95-3.45.74-2.44c1.7,1.01,2.33,3.82,1.75,4.4-.58.58-2.49-1.96-2.49-1.96Z"/>
            <path class="cls-20" d="M151.55,25.9s-.58-1.43,0-1.43,1.43,1.75,1.15,2.03c-.28.28-1.15-.6-1.15-.6Z"/>
          </g>
          <path class="cls-36" d="M48.49,203.61c-.6-.6-2.09-1.83-3.36-2.85-.76-.61-1.06-1.64-1.27-2.1-.07-.16-.43-.3-.56-.42-3.15-2.98-5.94-1.79-5.9-.56-.16.87-.28,1.66-.28,2.11,0,1.52-.47,5.72.64,5.72.81,0,3.99-.49,5.66-.76.1-.02.19-.02.29-.02,1.09.06,2.26.47,3.27.95,1.28.6,2.51-1.03,1.53-2.05-.01-.01-.02-.02-.03-.03Z"/>
          <path class="cls-23" d="M38.94,201.54c-.88.13-1.49.59-1.91,1.11-.02,1.47.1,2.87.74,2.87.83,0,4.17-.52,5.81-.79,2.69.06,5.98,2.43,5.98,2.43,0,0,.01-.48-.07-1.12-.95-.7-2.23-1.4-2.67-1.67-.65-.39-5.65-3.15-7.87-2.84Z"/>
          <path class="cls-3" d="M41.32,207.04s8.99.82,8.17,0-5.02-2.45-5.02-2.45l-3.44-1.08c-1.46-.34-4.01.34-3.65,1.79.03.13.37.41.37.41l3.56,1.33Z"/>
          <path class="cls-31" d="M27.05,23.76s-2.26,4.83,0,7.09c2.26,2.26,3.47-.95,11.2-.42,7.73.53,16.28-4.16,16.28-4.16,0,0-19.95-6.9-27.48-2.51Z"/>
          <path class="cls-19" d="M31.22,28.11c-1.82.34-3.6-.8-4.06-2.59-.57-2.21-1.37-6.2-.06-6.05,1.79.2,3.52.19,5.01.08,3.76-.26,7.53.31,11.09,1.57l2.68.95h0c2.29-.14,4.54.63,6.27,2.13l2.38,2.06s-11.73,2.45-15.33,1.5c-2.1-.55-5.51-.12-7.98.35Z"/>
          <path class="cls-25" d="M51.87,23.77c-2.85-2.33-5.87-1.96-5.95-1.98-10.89-4.05-11.68-1.96-18.82-2.32,4.94.85,7.58-.61,14.33,1.43,1.07.29,4.38,1.46,4.32,1.43.06.01.59,0,.52,0,4.38.26,4.77,1.29,8.25,3.93-.87-.85-1.75-1.67-2.66-2.49Z"/>
          <path class="cls-29" d="M59.33,29.79s-4.85,12.82-2.1,23.96c2.75,11.13,9.2,36.75,17.04,40.59l7.61-2.41s-4.18-17.6-7.11-24.88c-2.92-7.29-5.55-29.33-15.44-37.26Z"/>
          <path class="cls-8" d="M142.95,45.04s6.18,11.03,4.22,21.29c-1.96,10.26-6.66,36.05-12.25,39.59l-5.34-1.55s2.98-19.07,5.07-25.78c2.09-6.71,1.24-26.24,8.29-33.55Z"/>
        </g>
      </g>
    </g>
  </g>
</svg>