<?xml version="1.0" encoding="UTF-8"?>
<svg id="_レイヤー_2" data-name="レイヤー 2" xmlns="http://www.w3.org/2000/svg" viewBox="0 0 317.16 92.58">
  <defs>
    <style>
      .cls-1 {
        fill: #ea5d58;
      }

      .cls-1, .cls-2 {
        stroke-width: 0px;
      }

      .cls-2 {
        fill: #fff;
      }
    </style>
  </defs>
  <g id="pc">
    <path class="cls-2" d="M157.29,40.05c0-9.71-8.65-17.25-20.96-19.65C130.74,6.83,111.61-1.78,88.87.31c-14.11,1.3-26.84,6.47-35.79,13.69-2.09-.06-4.24.01-6.44.21-20.24,1.87-36.65,14.39-36.65,27.98,0,1.63.24,3.2.69,4.7C4.1,51.78,0,58.19,0,64.87c0,12.93,15.32,21.99,34.21,20.25,2.52-.23,4.98-.65,7.34-1.22,4.31,3.69,10.88,5.7,18.24,5.02,3.99-.37,7.75-1.48,11.05-3.14l.43,6.8,9.72-7.72c3.61,1.24,7.87,1.76,12.45,1.34,6.92-.64,13.15-3.3,17.45-7.02,1.93.12,3.96.09,6.05-.1,12.98-1.2,23.5-8.23,23.5-15.7,0-.52-.05-1.02-.15-1.51,10.17-4.99,17.01-13.17,17.01-21.8Z"/>
    <g>
      <path class="cls-1" d="M38.49,53.52c.05-.07,1.22-1.29,1.21-1.35,0-.09-.14-.23-.26-.22-1.38.12-2.61.23-3.9.4-.17.17-2.72,2.42-3.66,2.5-.72.06-1.28-.49-1.34-1.12-.04-.42.16-.89.71-1.24,2.1-1.3,3.93-2.83,5.5-4.57l-5.34.5c-.81.07-1.28-.46-1.33-1.03s.32-1.18,1.13-1.25l4.33-.38-.2-2.25-3.03.27c-.81.07-1.28-.46-1.33-1.03-.05-.57.32-1.18,1.13-1.25l3-.26-.21-2.43c-.07-.81.56-1.26,1.22-1.32.69-.06,1.38.27,1.46,1.08l.18,2.44,1.74-.15c.72-.06,1.1.48,1.15,1.05.38-.88.75-1.76,1.04-2.69.16-.56.59-.84,1.04-.88.72-.06,1.55.47,1.62,1.19.04.45-.9,2.86-2.74,5.72l.87-.08c.87-.08,1.37.46,1.42,1.06.05.54-.32,1.15-1.19,1.22h-.03s-2.74.21-2.74.21c-.65.84-1.34,1.66-2.06,2.42,1.02-.09,2.1-.18,3.1-.24,1.35-.09,1.96.56,2.02,1.28.09,1.02-.55,1.71-2.95,3.68.07.12.17.23.24.34,1.51-.4,2.84-.79,3.84-1.09.09-.04.18-.05.27-.05.66-.06,1.1.42,1.14.96.04.45-.22.96-.9,1.17-.94.29-2.15.67-3.51,1.06.06.3.11.59.14.89.27,3.03-1.56,5.4-4.38,5.65-1.41.12-2.48-.3-2.56-1.2-.05-.6.41-1.25,1.13-1.31.09,0,.24,0,.37.03.31.06.61.07.88.04,1.38-.12,2.14-1.16,1.96-3.17,0-.09-.01-.15-.02-.24-1.39.36-5.08,1.38-5.72,1.44-.81.07-1.31-.46-1.36-1.03-.05-.54.29-1.15,1.13-1.31,1.54-.32,3.32-.75,5.04-1.17-.23-.25-.52-.44-.84-.56-.44-.17-.65-.46-.67-.76-.05-.54.51-1.1,1.26-1.17.27-.02.55.04.86.17l.13.05ZM38.67,45.48c.54-.8,1.04-1.63,1.48-2.49-.12.07-.26.11-.44.13l-1.77.15.2,2.25.54-.05ZM54.12,44.62c.03,3.81-.59,7.47-2.21,10.67,1.42,1.42,3.25,2.59,5.63,3.47.62.22.91.68.95,1.16.07.81-.57,1.75-1.45,1.82-.69.06-3.76-1.15-6.51-4.15-2.61,3.68-6.08,5.56-6.83,5.62-.87.08-1.56-.59-1.63-1.31-.04-.51.21-1.05.91-1.41,2.61-1.35,4.51-3.06,5.85-5.08-1.4-2.12-2.36-4.45-3.02-6.79-.65,1.18-.82,1.4-1.51,1.46-.63.06-1.28-.4-1.33-1.06-.02-.24.05-.49.2-.78,1.41-2.51,2.77-6.36,3.1-10.53.05-.76.6-1.11,1.2-1.16.75-.07,1.57.35,1.64,1.13.03.39-.44,2.91-1.02,4.96l7.27-.67c.84-.07,1.29.52,1.34,1.15.06.63-.28,1.3-1.12,1.37l-1.47.13ZM47.48,45.17c.41,2.96,1.19,5.62,2.59,7.86,1-2.42,1.39-5.18,1.34-8.17l-3.94.31Z"/>
      <path class="cls-1" d="M75.32,54.5c.61,1.07,1.41,1.94,2.85,1.75,1.32-.18,3.36-.66,4.66-1.38,2.19-1.22,3.54,1.78,1.22,2.89-1.75.82-4.57,1.43-6.76,1.32-2.01-.13-3.32-.98-4.21-2.75-.8-1.57-3.05-1.61-4.73,1.68-.9,1.78-1.76,2-2.36,2.08-.99.15-2.42-.73-1.23-2.34.89-1.23,2.3-3.08,3.27-4.1s1.73-2.03,2.61-3.04c1.26-1.47,3.04-3.66,4.39-5.53.3-.42.09-.34-.17-.2-2.13,1.28-4.15,2.33-5.98,2.92-2.5.79-3.2-2.29-1.15-2.78,1.33-.33,3.62-1.13,5.16-1.87.75-.37,1.44-.79,2.27-.99,2.46-.55,4.49,1.54,3.07,3.3-1.28,1.62-5.45,6.2-6.82,7.83,1.1-.52,2.85-.61,3.89,1.2ZM70.27,37.91c-1.64-1.1,0-3.21,1.86-2.25,1.08.54,2.37,1.09,3.91,1.47,2.26.56,1.05,3.39-1.08,2.85-1.83-.48-4.01-1.62-4.69-2.07Z"/>
      <path class="cls-1" d="M99.78,42.5c.25-.6.48-1.1.83-1.65.42-.67.28-.63-.28-.4-2.19.92-1.68.87-3.65,1.83-.93.44-1.74.82-2.62,1.14-2.58.95-3.66-2.43-1.3-3.15.62-.21,2.33-.69,3.27-1.01,1.44-.49,4-1.32,6.99-2.46,3.02-1.14,5.42-2.08,8.04-2.49,1.85-.28,2.49,1.14,2.25,2.13-.14.53-.74,1.19-2.86,1.25-1.54.04-3.41.78-4.4,1.23-1.63.75-2.97,2.68-3.54,3.85-2.26,4.65.31,10.78,7.01,9.95,3.14-.4,3.63,3.13.45,3.38-9.07.76-12.92-7.28-10.18-13.61Z"/>
      <path class="cls-1" d="M125.19,47.54c-.02-.18-.03-.39-.06-.63-.25-2.91-1.17-9.89-1.76-14.59,0-.03,0-.06,0-.09-.1-1.11.73-1.73,1.6-1.8.9-.08,1.85.41,1.96,1.58.31,3.54.55,11.85.81,14.76.06.72.17,1.98-1.15,2.1-.63.05-1.3-.37-1.38-1.3v-.03ZM127.15,55.06c-1.14.1-2.16-.78-2.25-1.8-.12-1.32,1.08-2.18,1.89-2.25,1.17-.1,2.14.54,2.25,1.89.13,1.44-1.09,2.09-1.9,2.16Z"/>
    </g>
    <path class="cls-2" d="M317.16,40.05c0-9.71-8.65-17.25-20.96-19.65-5.59-13.57-24.72-22.18-47.46-20.08-14.11,1.3-26.84,6.47-35.79,13.69-2.09-.06-4.24.01-6.44.21-20.24,1.87-36.65,14.39-36.65,27.98,0,1.63.24,3.2.69,4.7-6.57,4.87-10.67,11.28-10.67,17.97,0,12.93,15.32,21.99,34.21,20.25,2.52-.23,4.98-.65,7.34-1.22,4.31,3.69,10.88,5.7,18.24,5.02,3.99-.37,7.75-1.48,11.05-3.14l.43,6.8,9.72-7.72c3.61,1.24,7.87,1.76,12.45,1.34,6.92-.64,13.15-3.3,17.45-7.02,1.93.12,3.96.09,6.05-.1,12.98-1.2,23.5-8.23,23.5-15.7,0-.52-.05-1.02-.15-1.51,10.17-4.99,17.01-13.17,17.01-21.8Z"/>
    <g>
      <path class="cls-1" d="M214.19,41.75c-.18-2.01-.24-2.37-1.77-2.27-1.17.07-3.34.23-5.29.4-4.5.39-4.75.42-4.73,1.69l.13,1.47v.03c.08.84-.55,1.32-1.24,1.38-.24.02-.46-.02-.67-.09.03.66-.34,1.33-1.21,1.41l-1.56.14.33,3.73c1.81-1.07,1.84-1.07,2.05-1.09.66-.06,1.22.5,1.28,1.16.04.42-.16.92-.71,1.27-.8.52-1.61,1.02-2.41,1.48l.25,2.91c.04.48.37,3.21.49,4.25,0,.06,0,.09.01.15.17,1.92-.68,3.69-3.47,3.94-1.44.13-2.78.03-2.91-1.38-.06-.69.3-1.42,1.05-1.48.09,0,.18-.02.27,0,.4.06.76.09,1.09.06.63-.05,1.06-.36,1-1.39l-.49-5.65c-1.77.88-2.16.95-2.37.96-.93.08-1.57-.62-1.63-1.34-.05-.54.21-1.11.91-1.38,1.05-.43,1.99-.78,2.83-1.16l-.42-4.81-2.34.21c-.87.08-1.35-.55-1.41-1.21-.06-.66.3-1.36,1.18-1.43l2.34-.21-.44-4.68c-.08-.93.6-1.48,1.32-1.54.72-.06,1.45.33,1.54,1.29l.41,4.69,1.56-.14c.21-.02.4.02.58.07-.02-.18-.03-.36-.05-.57-.05-.54-.1-1.17-.13-1.83-.07-1.51.95-2.6,2.96-2.83,1.53-.16,4.05-.42,6.45-.63,1.74-.15,3.42-.3,4.66-.35,1.42-.06,2.91.71,3.13,2.51.06.39.09.69.12,1.02.03.3.05.6.05.96,0,.79-.65,1.27-1.34,1.33-.66.06-1.36-.28-1.42-1.03v-.03ZM211.01,61.43c.07.81-.58,1.29-1.27,1.35-.69.06-1.42-.3-1.49-1.14v-.03s-.42-6.11-.42-6.11c-2.07,3.3-5.55,6.45-6.81,6.56-.78.07-1.35-.52-1.41-1.21-.04-.48.18-1.02.73-1.37,2.87-1.86,4.87-3.88,6.43-6.4l-5.1.54h-.03c-.81.07-1.28-.49-1.34-1.12-.05-.6.31-1.27,1.15-1.34l5.89-.49-.24-2.01c-.12-1.05.73-1.39,1.27-1.44.69-.06,1.42.3,1.49,1.14t0,.06l.12,2.02,6.88-.63c.81-.07,1.29.52,1.34,1.15.05.6-.29,1.24-1.1,1.31h-.03s-6.29.43-6.29.43c2.36,2.09,5.03,3.58,7.7,4.59.62.22.91.71.96,1.22.07.81-.46,1.67-1.33,1.75-1.44.13-6.22-3.66-7.78-5.19l.67,6.33v.03ZM201.01,48.17c-.03-.39.14-.8.57-1.05,1.73-.97,3.11-2.81,3.15-5.21,0-.76.56-1.17,1.16-1.22.66-.06,1.36.3,1.44,1.18,0,.12.02.27,0,.39-.46,4.46-3.96,7-4.95,7.09-.75.07-1.32-.55-1.37-1.18ZM211.01,41.37c.03.7.15,2.71.17,2.98.08.87.93.89,1.68.82.42-.04,1.65-.17,1.59-.8-.07-.75.51-1.13,1.14-1.19.66-.06,1.39.27,1.45.99.19,2.13-1.31,3.05-3.92,3.28-2.7.24-4.2-.21-4.39-2.43,0-.03,0-.06,0-.09-.03-.3-.23-2.61-.24-3.43,0-.7.57-1.08,1.17-1.13.63-.05,1.29.25,1.36.97v.03Z"/>
      <path class="cls-1" d="M227.3,53.93c-.4-3.14-.29-5.73-.42-8.92-.08-1.96-.13-4.92-.35-6.78-.25-2.22,3.16-2.33,3.27-.35.11,1.9.15,4.77.17,6.79.07,3.2-.14,5.97.23,8.88.56,4.37,5.88,3.6,10.75-.97,1.82-1.7,3.89.9,2.3,2.43-5.44,5.29-14.97,7-15.96-1.08Z"/>
      <path class="cls-1" d="M258.45,42.6c.25-.6.48-1.1.82-1.64.43-.67.28-.63-.28-.4-2.19.92-1.68.87-3.65,1.83-.93.45-1.75.82-2.62,1.14-2.58.95-3.66-2.43-1.3-3.15.62-.21,2.33-.69,3.27-1.01,1.44-.49,4-1.32,6.99-2.46,3.02-1.14,5.42-2.08,8.05-2.49,1.85-.28,2.49,1.14,2.24,2.13-.13.53-.74,1.19-2.86,1.25-1.54.04-3.41.78-4.4,1.23-1.63.75-2.97,2.68-3.54,3.85-2.26,4.65.31,10.78,7.01,9.95,3.14-.4,3.63,3.13.45,3.38-9.07.76-12.93-7.28-10.18-13.61Z"/>
      <path class="cls-1" d="M283.86,47.64c-.02-.18-.03-.39-.06-.63-.25-2.91-1.17-9.89-1.76-14.59,0-.03,0-.06,0-.09-.1-1.11.73-1.73,1.6-1.8.9-.08,1.85.41,1.96,1.58.31,3.54.55,11.85.81,14.76.06.72.17,1.98-1.15,2.1-.63.05-1.3-.37-1.38-1.3v-.03ZM285.82,55.16c-1.14.1-2.16-.78-2.25-1.8-.12-1.32,1.08-2.18,1.89-2.25,1.17-.1,2.13.54,2.25,1.89.13,1.44-1.09,2.09-1.9,2.16Z"/>
    </g>
  </g>
</svg>