<?xml version="1.0" encoding="UTF-8"?>
<svg xmlns="http://www.w3.org/2000/svg" viewBox="0 0 696.82 343.84">
  <defs>
    <style>
      .cls-1 {
        fill: #f47458;
        mix-blend-mode: multiply;
        opacity: .5;
      }

      .cls-1, .cls-2, .cls-3, .cls-4, .cls-5, .cls-6, .cls-7, .cls-8, .cls-9, .cls-10, .cls-11, .cls-12, .cls-13, .cls-14, .cls-15, .cls-16, .cls-17, .cls-18, .cls-19 {
        stroke-width: 0px;
      }

      .cls-2 {
        fill: #d7364f;
      }

      .cls-3 {
        fill: #f2d744;
      }

      .cls-4 {
        fill: #cbcbcb;
      }

      .cls-5 {
        fill: #9d805c;
      }

      .cls-6 {
        fill: #5695d5;
      }

      .cls-7 {
        fill: #e27023;
      }

      .cls-8 {
        fill: #cde5f5;
      }

      .cls-9 {
        fill: #a7d3f0;
      }

      .cls-10 {
        fill: #000;
      }

      .cls-11 {
        fill: #bf0024;
      }

      .cls-12 {
        fill: #1f528e;
      }

      .cls-13 {
        fill: #bcd8f1;
      }

      .cls-14 {
        fill: #e1e1e1;
      }

      .cls-15 {
        fill: #5858c6;
      }

      .cls-16 {
        fill: #271651;
      }

      .cls-20 {
        isolation: isolate;
      }

      .cls-17 {
        fill: #ff862d;
      }

      .cls-18 {
        fill: #fff;
      }

      .cls-19 {
        fill: #f7a491;
      }
    </style>
  </defs>
  <g class="cls-20">
    <g id="_レイヤー_2" data-name="レイヤー 2">
      <g id="pc">
        <path class="cls-18" d="M509.04,149.36c0,7.48-5.99,11.56-13.47,11.56s-13.62-4.09-13.62-11.56,6.25-12.72,13.73-12.72,13.35,5.24,13.35,12.72Z"/>
        <path class="cls-18" d="M181.61,150.42c0,8.1,6.49,12.53,14.59,12.53,8.1,0,14.75-4.43,14.75-12.53,0-8.1-6.78-13.78-14.88-13.78-8.1,0-14.46,5.68-14.46,13.78Z"/>
        <path class="cls-18" d="M0,89.38c0,52.08,41.7,80.53,93.77,80.53s94.81-28.45,94.81-80.53c0-52.08-43.56-88.59-95.64-88.59C40.88.79,0,37.31,0,89.38Z"/>
        <path class="cls-18" d="M508.23,89.38c0,52.08,41.7,80.53,93.77,80.53s94.81-28.45,94.81-80.53c0-52.08-43.56-88.59-95.64-88.59-52.08,0-92.95,36.51-92.95,88.59Z"/>
        <g id="_01_store_shop_Grocery_Store_shopping_center_city_building_shopping_store" data-name="01, store, shop, Grocery Store, shopping center, city, building, shopping store">
          <g>
            <g>
              <polygon class="cls-3" points="561.07 33.37 561.07 50.06 599.67 56.11 642.45 50.06 642.45 33.37 561.07 33.37"/>
              <polygon class="cls-5" points="554.81 80.17 554.81 135.62 563.15 135.62 572.71 131.65 588.19 135.62 648.71 135.62 648.71 80.17 638.91 67.91 559.8 67.91 554.81 80.17"/>
              <rect class="cls-8" x="563.15" y="98.06" width="25.04" height="37.56"/>
              <rect class="cls-6" x="619.5" y="110.58" width="20.87" height="8.35"/>
              <rect class="cls-9" x="619.5" y="98.06" width="20.87" height="12.52"/>
              <rect class="cls-9" x="598.63" y="110.58" width="20.87" height="8.35"/>
              <rect class="cls-8" x="598.63" y="98.06" width="20.87" height="12.52"/>
              <polygon class="cls-2" points="629.93 50.06 634.59 57.81 635.84 66.75 627.32 69.22 618.8 66.75 615.95 58.81 616.71 50.06 629.93 50.06"/>
              <polygon class="cls-2" points="601.76 50.06 603.48 59.09 601.76 66.75 593.58 69.44 584.72 66.75 582.95 58.41 586.8 50.06 601.76 50.06"/>
              <path class="cls-2" d="M573.59,50.06l-1.04,8.14-4.87,8.56-7.65,1.88-9.39-1.88,10.08-16.69h12.87Z"/>
              <polygon class="cls-14" points="586.8 50.06 584.72 66.75 575.88 68.88 567.68 66.75 573.59 50.06 586.8 50.06"/>
              <polygon class="cls-14" points="616.71 50.06 618.8 66.75 609.88 68.55 601.76 66.75 601.76 50.06 616.71 50.06"/>
              <path class="cls-14" d="M642.8,50.06l10.08,16.69-7.5,3.58-9.54-3.58-5.91-16.69h12.87Z"/>
              <path class="cls-4" d="M652.88,66.75v6.09c0,3.12-1.67,5.84-4.17,7.33-5.61,3.34-12.87-.69-12.87-7.33v-6.09h17.04Z"/>
              <path class="cls-4" d="M618.8,66.75v6.09c0,4.71-3.82,8.52-8.52,8.52s-8.52-3.81-8.52-8.52v-6.09h17.04Z"/>
              <path class="cls-4" d="M584.72,66.75v6.09c0,4.71-3.81,8.52-8.52,8.52s-8.52-3.81-8.52-8.52v-6.09h17.04Z"/>
              <path class="cls-11" d="M567.68,66.75v6.09c0,4.71-3.82,8.52-8.52,8.52s-8.52-3.84-8.52-8.52v-6.09h17.04Z"/>
              <path class="cls-11" d="M601.76,66.75v6.09c0,4.71-3.81,8.52-8.52,8.52s-8.52-3.81-8.52-8.52v-6.09h17.04Z"/>
              <path class="cls-11" d="M635.84,66.75v6.09c0,4.71-3.81,8.52-8.52,8.52s-8.52-3.81-8.52-8.52v-6.09h17.04Z"/>
            </g>
            <g>
              <path class="cls-10" d="M654.67,65.68c-2.3-3.81-10-16.56-10.13-16.76v-15.55c0-1.15-.93-2.09-2.09-2.09h-81.38c-1.15,0-2.09.93-2.09,2.09v15.55c-.12.18-7.98,13.2-10.13,16.76-.2.33-.3.72-.3,1.08v6.09c0,3.43,1.64,6.49,4.17,8.43v54.35c0,1.15.93,2.09,2.09,2.09h93.9c1.15,0,2.09-.93,2.09-2.09v-54.35c2.53-1.94,4.17-4.99,4.17-8.43v-6.09c0-.35-.1-.75-.3-1.08ZM649.18,64.67h-11.87l-4.43-12.52h8.74l7.56,12.52ZM616.71,72.84c0,3.55-2.89,6.43-6.43,6.43s-6.43-2.89-6.43-6.43v-4h12.87v4h0ZM599.67,72.84c0,3.55-2.89,6.43-6.43,6.43s-6.43-2.89-6.43-6.43v-4h12.87v4ZM565.59,72.84c0,3.55-2.89,6.43-6.43,6.43s-6.43-2.89-6.43-6.43v-4h12.87v4ZM614.87,52.15l1.57,12.52h-12.59v-12.52h11.03ZM628.45,52.15c.5,1.41,3.92,11.06,4.43,12.52h-12.25l-1.57-12.52h9.38ZM599.67,64.67h-12.59l1.57-12.52h11.03v12.52h0ZM582.87,64.67h-12.25c.52-1.46,3.93-11.09,4.43-12.52h9.38l-1.57,12.52ZM569.76,68.84h12.87v4c0,3.55-2.89,6.43-6.43,6.43s-6.43-2.89-6.43-6.43v-4ZM620.89,68.84h12.87v4c0,3.55-2.89,6.43-6.43,6.43s-6.43-2.89-6.43-6.43v-4ZM563.15,35.45h77.21v12.52h-77.21v-12.52ZM561.9,52.15h8.74l-4.43,12.52h-11.87l7.56-12.52ZM565.24,133.53v-33.39h20.87v33.39h-20.87ZM646.62,133.53h-56.34v-35.47c0-1.15-.93-2.09-2.09-2.09h-25.04c-1.15,0-2.09.93-2.09,2.09v35.47h-4.17v-50.33c4.15.9,8.32-.74,10.78-4.05,1.93,2.61,5.03,4.3,8.52,4.3s6.59-1.69,8.52-4.3c1.93,2.61,5.03,4.3,8.52,4.3s6.59-1.69,8.52-4.3c1.93,2.61,5.03,4.3,8.52,4.3s6.59-1.69,8.52-4.3c1.93,2.61,5.03,4.3,8.52,4.3s6.59-1.69,8.52-4.3c2.46,3.32,6.64,4.96,10.78,4.05v50.33h0ZM650.8,72.84c0,3.55-2.89,6.43-6.43,6.43s-6.43-2.89-6.43-6.43v-4h12.87v4Z"/>
              <path class="cls-10" d="M640.36,95.97h-41.73c-1.15,0-2.09.93-2.09,2.09v20.87c0,1.15.93,2.09,2.09,2.09h41.73c1.15,0,2.09-.93,2.09-2.09v-20.87c0-1.15-.93-2.09-2.09-2.09ZM638.28,108.49h-16.69v-8.35h16.69v8.35ZM617.41,100.14v8.35h-16.69v-8.35h16.69ZM600.72,112.66h16.69v4.17h-16.69v-4.17ZM621.58,116.84v-4.17h16.69v4.17h-16.69Z"/>
              <path class="cls-10" d="M579.85,114.75c-1.15,0-2.09.93-2.09,2.09v2.09c0,1.15.93,2.09,2.09,2.09s2.09-.93,2.09-2.09v-2.09c0-1.15-.93-2.09-2.09-2.09Z"/>
            </g>
          </g>
        </g>
        <g>
          <path class="cls-2" d="M74.81,92.55c0-3.82,1.92-7.2,4.84-9.25v17.3h3.22v-18.87c1.02-.31,2.1-.47,3.22-.47s2.2.17,3.22.47v18.87h3.22v-17.3c2.92,2.04,4.84,5.42,4.84,9.25v11.28h-22.56v-11.28Z"/>
          <path class="cls-2" d="M71.59,97.38h-3.22c-.89,0-1.61-.72-1.61-1.61s.72-1.61,1.61-1.61h3.22v3.22Z"/>
          <path class="cls-2" d="M69.97,107.05h32.23c.89,0,1.61.72,1.61,1.61s-.72,1.61-1.61,1.61h-32.23c-.89,0-1.61-.72-1.61-1.61s.72-1.61,1.61-1.61Z"/>
          <path class="cls-2" d="M100.6,97.38v-3.22h3.22c.89,0,1.61.72,1.61,1.61s-.72,1.61-1.61,1.61h-3.22Z"/>
          <polygon class="cls-13" points="107.04 34.52 107.04 36.14 107.04 39.36 107.04 40.97 103.82 40.97 103.82 39.36 103.82 36.14 103.82 34.52 107.04 34.52"/>
          <polygon class="cls-13" points="68.36 34.52 68.36 36.14 68.36 39.36 68.36 40.97 65.14 40.97 65.14 39.36 65.14 36.14 65.14 34.52 68.36 34.52"/>
          <path class="cls-12" d="M131.07,123.17h-4.8l-.23-3.22-.12-1.61-.12-1.61-5.35-74.14-.52-7.25c0-2.42.29-2.42.81-2.42.28,0,.55.06.81.15.94.34,1.61,1.25,1.62,2.41l7.32,81.25.14,1.61.14,1.61.29,3.22Z"/>
          <polygon class="cls-13" points="134.44 129.62 123.16 129.62 123.16 126.39 123.27 126.39 134.44 126.39 134.44 129.62"/>
          <path class="cls-12" d="M46.14,119.95l-.23,3.22h-4.79l.29-3.22.15-1.61.14-1.61,7.33-81.39c0-1.05.68-1.94,1.61-2.27.25-.09.52-.15.81-.15.49,0,.77,0,.81,1.91,0,.12,0,.26,0,.4v.06s-.53,7.31-.53,7.31l-5.34,74.14-.12,1.61-.12,1.61Z"/>
          <polygon class="cls-13" points="49.02 126.39 49.02 129.62 37.74 129.62 37.74 126.39 48.91 126.39 49.02 126.39"/>
          <polygon class="cls-12" points="61.92 36.14 61.92 39.36 55.18 39.36 55.41 36.14 61.92 36.14"/>
          <polygon class="cls-12" points="116.77 36.14 117 39.36 110.27 39.36 110.27 36.14 116.77 36.14"/>
          <rect class="cls-12" x="71.59" y="36.14" width="29.01" height="3.22"/>
          <path class="cls-10" d="M138.08,116.31h-3.98l-7.3-80.98c0-3.34-2.72-6.06-6.06-6.06-2.18,0-3.61,1.11-4.16,3.22h-5.9v-1.61h-10.51v1.61h-28.18v-1.61h-10.51v1.61h-5.89c-.56-2.11-1.99-3.22-4.17-3.22-1.63,0-3.16.64-4.32,1.8-1.12,1.12-1.74,2.58-1.73,4.08l-7.31,81.16h-3.98v4.06h3.61l-.22,2.39h-3.4v10.51h18.56v-10.51h-3.07l.17-2.39h72.66l.17,2.39h-3.07v10.51h18.56v-10.51h-3.4l-.22-2.39h3.61v-4.06ZM120.35,35.33c0-1.62.14-1.93.19-1.99.03-.01.12-.01.2-.01.22,0,.43.04.66.12.81.3,1.34,1.09,1.34,2.06l7.86,87.24h-3.95l-6.31-87.42ZM50.77,33.45c.23-.08.46-.12.67-.12.07,0,.18,0,.2,0,.04.04.17.26.19,1.49l-6.31,87.92h-3.95l7.87-87.42c0-.84.54-1.59,1.33-1.88ZM72,38.94v-2.39h28.18v2.39h-28.18ZM64.72,44.61v47.38c-1.03.99-1.61,2.36-1.61,3.77s.58,2.78,1.61,3.77v9.12c0,2.9,2.36,5.25,5.25,5.25h32.23c2.9,0,5.25-2.36,5.25-5.25v-9.12c1.03-.99,1.61-2.35,1.61-3.77s-.58-2.78-1.61-3.77v-47.38h3.22v-1.61h6.16l5.28,73.31H50.05l5.28-73.31h6.16v1.61h3.22ZM103.4,44.61v45.91h-2.53c-1-7.38-7.29-12.89-14.78-12.89s-13.77,5.52-14.78,12.89h-2.53v-45.91h3.22v-1.61h28.18v1.61h3.22ZM103.82,96.96h-2.81v-2.39h2.81c.66,0,1.19.54,1.19,1.19s-.54,1.19-1.19,1.19ZM71.17,101.02v2.39h-1.19c-.4,0-.8.05-1.19.14v-2.53h2.39ZM103.4,108.66c0,.66-.54,1.19-1.19,1.19h-32.23c-.66,0-1.19-.54-1.19-1.19s.54-1.19,1.19-1.19h32.23c.66,0,1.19.54,1.19,1.19ZM103.4,103.55c-.39-.09-.79-.14-1.19-.14h-1.19v-2.39h2.39v2.53ZM68.36,94.57h2.81v2.39h-2.81c-.66,0-1.19-.54-1.19-1.19s.54-1.19,1.19-1.19ZM75.23,92.55c0-3.26,1.48-6.35,4-8.41v16.88h4.06v-18.97c1.84-.5,3.78-.5,5.61,0v18.97h4.06v-16.88c2.52,2.06,4,5.14,4,8.41v10.86h-21.73v-10.86ZM106.63,34.94v5.61h-2.39v-5.61h2.39ZM67.94,34.94v5.61h-2.39v-5.61h2.39ZM110.68,38.94v-2.39h5.7l.17,2.39h-5.87ZM55.63,38.94l.17-2.39h5.7v2.39h-5.87ZM38.16,129.2v-2.39h10.45v2.39h-10.45ZM123.58,129.2v-2.39h10.45v2.39h-10.45Z"/>
        </g>
        <g>
          <path class="cls-17" d="M384.22,38.15c.58-2.28,1.26-4.55,3.65-5.53,2.07-.85,4.54.03,5.9,1.74,3.95,4.93-4.01,14-8.86,18.12-1.37,1.16-3.32,2.09-4.02,3.79.15-.25.29-.5.44-.75-.21.24-.42.48-.63.72-.9,1.02-.05,2.83,1.4,2.4,1.86-.55,1.95-.37,5.1-2.95,1.47-1.21,2.86-2.51,4.15-3.91,2.62-2.83,5.08-6.03,6.51-9.63,3.62-9.1-4.39-15.68-11-13.3-3.51,1.26-6.99,5.37-5.81,9.3.45,1.51,2.75,1.6,3.15,0h0Z"/>
          <path class="cls-17" d="M381.84,69.55c2.53,0,2.54-3.93,0-3.93s-2.54,3.93,0,3.93h0Z"/>
          <path class="cls-17" d="M356.97,16.88c-1.49-4-.4-9.11,3.27-11.6,3.57-2.42,8.7-1.66,11.67,1.38,3.85,3.94,3.2,11.01,1.63,15.8-.85,2.62-2.2,5.15-3.98,7.27-1.94,2.32-4.29,4.24-6.51,6.28-4.59,4.21-9.82,10.92-6.69,17.43.8,1.66,3.12.43,2.81-1.18-1.9-9.89,9.6-14.4,14.95-22.44,1.74-2.61,3.01-5.6,3.7-8.66,1.36-5.97,1.06-13.65-3.97-17.91-4.17-3.54-10.63-4.45-15.33-1.38-5.21,3.4-7.46,10.67-4.51,16.26.83,1.58,3.58.49,2.94-1.24h0Z"/>
          <circle class="cls-17" cx="361.17" cy="63.45" r="3.51" transform="translate(-2.1 113.51) rotate(-17.81)"/>
          <g>
            <path class="cls-16" d="M384.89,89.47c-4.62-7.44-12.77-13.01-21.82-13.03-16.31-.03-26,7.75-31.36,16.53-.17.28-.35.57-.52.86-12.36,20.35-19.14,34.75-40.9,43.66-51.04,20.91-39.44,77.15-7.7,97.67,50.36,32.56,82.32.44,99.69-38.2,26.9-59.87,5.88-102.21,2.6-107.48Z"/>
            <path class="cls-15" d="M328.98,273.88s-12.15,20.59-16.89,39.07c-3.28,12.77-4.93,30.9-4.93,30.9h93.46s-.16-55.25-21.86-65.11c-21.7-9.86-49.78-4.86-49.78-4.86Z"/>
            <path class="cls-17" d="M389.76,173.02c-15.03-1.41-55.72-3.1-74.18-.11-2.64.43,12.8,83.12,8.58,99.22l-8.59,26.48s51.75,11.11,77.76-2.95l-8.52-25.23c-2.82-22.59,2.82-72.28,4.96-97.41Z"/>
            <g>
              <path class="cls-19" d="M247.56,198.63s-11.24-9.37-16.87-9.37,5.62,5.62,7.5,9.37c1.87,3.75,9.37,0,9.37,0Z"/>
              <path class="cls-19" d="M253.23,205.87c.6,0,3.17,6.14,3.45,6.69,1.87,3.6,8.15,11.08,4.23,14.65-1.22,1.11-2.87,1.63-4.49,1.95-1.92.38-4.02.63-5.98.43-2.44-.26-2.25-.83-2.93-3.18-1.02-3.5-2.01-7.02-2.97-10.54-.16-.6-2.25-10-2.61-10h11.3Z"/>
              <path class="cls-19" d="M253.23,207.75s1.88-7.53-1.88-9.41c-3.77-1.88-26.36-1.88-26.36-1.88,0,0-15.06-11.3-16.94-7.53-1.88,3.77,15.06,13.18,16.94,15.06,1.88,1.88,18.83,3.77,18.83,3.77"/>
            </g>
            <path class="cls-19" d="M285.17,213.77c-2.36,8.75-4.73,17.5-7.1,26.25-.44,1.64-3.41,8.24-2.67,9.86,0,0-17.1-34.42-17.1-34.42l-12.05,6.4s13.44,70.67,32.25,68.69c18.81-1.98,35.96-60.15,35.96-60.15-1.68-9.81-3.15-19.68-5.61-29.31-1.5-5.87-21.48,4.48-23.69,12.68Z"/>
            <path class="cls-19" d="M340.74,143.89s-2.24,54.65,10.74,55.77c12.98,1.12,13.29-32.18,13.46-36.27l.9-22.26-25.1,2.76Z"/>
            <path class="cls-1" d="M340.61,155.51c8.29,9.7,20.31,8.19,24.57,1.86l.66-16.24-25.1,2.76s-.2,4.82-.14,11.62Z"/>
            <path class="cls-7" d="M309.13,245.02c10.45-24.99,19.35-70.9,15.3-72.23-5.36-1.76-18.33-4.29-27.06,12.31-7.01,13.33-15.53,32.61-19.1,50.63,5.23-.26,12.68-.05,17.6,2.06,1.9.85,11.29,6.64,13.26,7.23Z"/>
            <g>
              <path class="cls-19" d="M456.83,198.63s11.24-9.37,16.87-9.37c5.62,0-5.62,5.62-7.5,9.37-1.87,3.75-9.37,0-9.37,0Z"/>
              <path class="cls-19" d="M451.17,205.87c-.6,0-3.17,6.14-3.45,6.69-1.87,3.6-8.15,11.08-4.23,14.65,1.22,1.11,2.87,1.63,4.49,1.95,1.92.38,4.02.63,5.98.43,2.44-.26,2.25-.83,2.93-3.18,1.02-3.5,2.01-7.02,2.97-10.54.16-.6,2.25-10,2.61-10h-11.3Z"/>
              <path class="cls-19" d="M451.17,207.75s-1.88-7.53,1.88-9.41c3.77-1.88,26.36-1.88,26.36-1.88,0,0,15.06-11.3,16.94-7.53,1.88,3.77-15.06,13.18-16.94,15.06-1.88,1.88-18.83,3.77-18.83,3.77"/>
            </g>
            <path class="cls-19" d="M419.22,213.77c2.36,8.75,4.73,17.5,7.1,26.25.44,1.64,3.41,8.24,2.67,9.86,0,0,17.1-34.42,17.1-34.42l12.05,6.4s-13.44,70.67-32.25,68.69c-18.81-1.98-35.96-60.15-35.96-60.15,1.68-9.81,3.15-19.68,5.61-29.31,1.5-5.87,21.48,4.48,23.69,12.68Z"/>
            <path class="cls-7" d="M395.26,245.02c-10.45-24.99-19.35-70.9-15.3-72.23,5.36-1.76,18.33-4.29,27.06,12.31,7.01,13.33,15.53,32.61,19.1,50.63-5.23-.26-12.68-.05-17.6,2.06-1.9.85-11.29,6.64-13.26,7.23Z"/>
            <path class="cls-19" d="M335.99,97.14s-3.42,7.69-3.42,23.72,3.85,25.22,11.33,30.56c7.48,5.34,16.1,2.96,20.3,0,7.58-5.35,14.96-25.22,12.82-39.32-2.14-14.1-8.55-41.88-41.03-14.96Z"/>
            <path class="cls-16" d="M347.31,81.01c-.75,0-10.58,3.85-15.28,13.89-4.7,10.04,0,23.72,0,23.72,0,0,3.57-8.98,6.59-9.72,3.02-.75,14.56,2.99,19.16-1.6,4.59-4.59,10.26-14.1,10.26-14.1,0,0-1.12,12.13-4.59,15.6-3.47,3.47,10.47,5.45,13.84,1.18,3.37-4.27,4.97,13.36,4.97,13.36,0,0,1.71-22.65-9.08-34.3-10.79-11.65-25.86-8.01-25.86-8.01Z"/>
          </g>
        </g>
      </g>
    </g>
  </g>
</svg>