<?xml version="1.0" encoding="UTF-8"?>
<svg id="_レイヤー_2" data-name="レイヤー 2" xmlns="http://www.w3.org/2000/svg" xmlns:xlink="http://www.w3.org/1999/xlink" viewBox="0 0 640 420">
  <defs>
    <style>
      .cls-1 {
        fill: #ffc33e;
      }

      .cls-1, .cls-2, .cls-3, .cls-4, .cls-5, .cls-6, .cls-7, .cls-8, .cls-9, .cls-10, .cls-11, .cls-12, .cls-13, .cls-14, .cls-15 {
        stroke-width: 0px;
      }

      .cls-2 {
        fill: #fa7267;
      }

      .cls-16 {
        clip-path: url(#clippath);
      }

      .cls-3, .cls-17 {
        fill: none;
      }

      .cls-4 {
        fill: #050521;
      }

      .cls-5 {
        fill: #063b87;
      }

      .cls-6 {
        fill: #bdd1f9;
      }

      .cls-7 {
        fill: #e4ecfe;
      }

      .cls-18, .cls-11 {
        fill: #eeeae1;
      }

      .cls-19 {
        clip-path: url(#clippath-1);
      }

      .cls-8 {
        fill: #e87b69;
      }

      .cls-9 {
        fill: #ffa089;
      }

      .cls-10 {
        fill: #dde7fe;
      }

      .cls-17 {
        stroke: #fff;
        stroke-miterlimit: 10;
        stroke-width: 2.83px;
      }

      .cls-12 {
        fill: #ebebeb;
      }

      .cls-13 {
        fill: #fff;
      }

      .cls-14 {
        fill: #f7a491;
      }

      .cls-15 {
        fill: #ea8975;
      }
    </style>
    <clipPath id="clippath">
      <rect class="cls-11" y="60" width="640" height="360" rx="36" ry="36"/>
    </clipPath>
    <clipPath id="clippath-1">
      <rect class="cls-3" x="120" y="-100" width="400" height="600" rx="30" ry="30" transform="translate(120 520) rotate(-90)"/>
    </clipPath>
  </defs>
  <g id="pc">
    <g>
      <rect class="cls-18" y="60" width="640" height="360" rx="36" ry="36"/>
      <g class="cls-16">
        <g>
          <line class="cls-17" x1="323.82" y1="847.7" x2="880.61" y2="290.9"/>
          <line class="cls-17" x1="317.16" y1="841.05" x2="873.96" y2="284.25"/>
          <line class="cls-17" x1="310.51" y1="834.4" x2="867.31" y2="277.6"/>
          <line class="cls-17" x1="303.86" y1="827.75" x2="860.66" y2="270.95"/>
          <line class="cls-17" x1="297.21" y1="821.09" x2="854.01" y2="264.29"/>
          <line class="cls-17" x1="290.56" y1="814.44" x2="847.35" y2="257.64"/>
          <line class="cls-17" x1="283.9" y1="807.79" x2="840.7" y2="250.99"/>
          <line class="cls-17" x1="277.25" y1="801.14" x2="834.05" y2="244.34"/>
          <line class="cls-17" x1="270.6" y1="794.48" x2="827.4" y2="237.69"/>
          <line class="cls-17" x1="263.95" y1="787.83" x2="820.75" y2="231.03"/>
          <line class="cls-17" x1="257.29" y1="781.18" x2="814.09" y2="224.38"/>
          <line class="cls-17" x1="250.64" y1="774.53" x2="807.44" y2="217.73"/>
          <line class="cls-17" x1="243.99" y1="767.88" x2="800.79" y2="211.08"/>
          <line class="cls-17" x1="237.34" y1="761.22" x2="794.14" y2="204.43"/>
          <line class="cls-17" x1="230.69" y1="754.57" x2="787.48" y2="197.77"/>
          <line class="cls-17" x1="224.03" y1="747.92" x2="780.83" y2="191.12"/>
          <line class="cls-17" x1="217.38" y1="741.27" x2="774.18" y2="184.47"/>
          <line class="cls-17" x1="210.73" y1="734.62" x2="767.53" y2="177.82"/>
          <line class="cls-17" x1="204.08" y1="727.96" x2="760.88" y2="171.16"/>
          <line class="cls-17" x1="197.42" y1="721.31" x2="754.22" y2="164.51"/>
          <line class="cls-17" x1="190.77" y1="714.66" x2="747.57" y2="157.86"/>
          <line class="cls-17" x1="184.12" y1="708.01" x2="740.92" y2="151.21"/>
          <line class="cls-17" x1="177.47" y1="701.35" x2="734.27" y2="144.56"/>
          <line class="cls-17" x1="170.82" y1="694.7" x2="727.61" y2="137.9"/>
          <line class="cls-17" x1="164.16" y1="688.05" x2="720.96" y2="131.25"/>
          <line class="cls-17" x1="157.51" y1="681.4" x2="714.31" y2="124.6"/>
          <line class="cls-17" x1="150.86" y1="674.75" x2="707.66" y2="117.95"/>
          <line class="cls-17" x1="144.21" y1="668.09" x2="701.01" y2="111.29"/>
          <line class="cls-17" x1="137.56" y1="661.44" x2="694.35" y2="104.64"/>
          <line class="cls-17" x1="130.9" y1="654.79" x2="687.7" y2="97.99"/>
          <line class="cls-17" x1="124.25" y1="648.14" x2="681.05" y2="91.34"/>
          <line class="cls-17" x1="117.6" y1="641.48" x2="674.4" y2="84.69"/>
          <line class="cls-17" x1="110.95" y1="634.83" x2="667.75" y2="78.03"/>
          <line class="cls-17" x1="104.29" y1="628.18" x2="661.09" y2="71.38"/>
          <line class="cls-17" x1="97.64" y1="621.53" x2="654.44" y2="64.73"/>
          <line class="cls-17" x1="90.99" y1="614.88" x2="647.79" y2="58.08"/>
          <line class="cls-17" x1="84.34" y1="608.22" x2="641.14" y2="51.43"/>
          <line class="cls-17" x1="77.69" y1="601.57" x2="634.48" y2="44.77"/>
          <line class="cls-17" x1="71.03" y1="594.92" x2="627.83" y2="38.12"/>
          <line class="cls-17" x1="64.38" y1="588.27" x2="621.18" y2="31.47"/>
          <line class="cls-17" x1="57.73" y1="581.61" x2="614.53" y2="24.82"/>
          <line class="cls-17" x1="51.08" y1="574.96" x2="607.88" y2="18.16"/>
          <line class="cls-17" x1="44.42" y1="568.31" x2="601.22" y2="11.51"/>
          <line class="cls-17" x1="37.77" y1="561.66" x2="594.57" y2="4.86"/>
          <line class="cls-17" x1="31.12" y1="555.01" x2="587.92" y2="-1.79"/>
          <line class="cls-17" x1="24.47" y1="548.35" x2="581.27" y2="-8.44"/>
          <line class="cls-17" x1="17.82" y1="541.7" x2="574.61" y2="-15.1"/>
          <line class="cls-17" x1="11.16" y1="535.05" x2="567.96" y2="-21.75"/>
          <line class="cls-17" x1="4.51" y1="528.4" x2="561.31" y2="-28.4"/>
          <line class="cls-17" x1="-2.14" y1="521.75" x2="554.66" y2="-35.05"/>
          <line class="cls-17" x1="-8.79" y1="515.09" x2="548.01" y2="-41.71"/>
          <line class="cls-17" x1="-15.45" y1="508.44" x2="541.35" y2="-48.36"/>
          <line class="cls-17" x1="-22.1" y1="501.79" x2="534.7" y2="-55.01"/>
          <line class="cls-17" x1="-28.75" y1="495.14" x2="528.05" y2="-61.66"/>
          <line class="cls-17" x1="-35.4" y1="488.48" x2="521.4" y2="-68.31"/>
          <line class="cls-17" x1="-42.05" y1="481.83" x2="514.74" y2="-74.97"/>
          <line class="cls-17" x1="-48.71" y1="475.18" x2="508.09" y2="-81.62"/>
          <line class="cls-17" x1="-55.36" y1="468.53" x2="501.44" y2="-88.27"/>
          <line class="cls-17" x1="-62.01" y1="461.88" x2="494.79" y2="-94.92"/>
          <line class="cls-17" x1="-68.66" y1="455.22" x2="488.14" y2="-101.58"/>
          <line class="cls-17" x1="-75.31" y1="448.57" x2="481.48" y2="-108.23"/>
          <line class="cls-17" x1="-81.97" y1="441.92" x2="474.83" y2="-114.88"/>
          <line class="cls-17" x1="-88.62" y1="435.27" x2="468.18" y2="-121.53"/>
          <line class="cls-17" x1="-95.27" y1="428.61" x2="461.53" y2="-128.18"/>
          <line class="cls-17" x1="-101.92" y1="421.96" x2="454.88" y2="-134.84"/>
          <line class="cls-17" x1="-108.58" y1="415.31" x2="448.22" y2="-141.49"/>
          <line class="cls-17" x1="-115.23" y1="408.66" x2="441.57" y2="-148.14"/>
          <line class="cls-17" x1="-121.88" y1="402.01" x2="434.92" y2="-154.79"/>
          <line class="cls-17" x1="-128.53" y1="395.35" x2="428.27" y2="-161.44"/>
          <line class="cls-17" x1="-135.18" y1="388.7" x2="421.61" y2="-168.1"/>
          <line class="cls-17" x1="-141.84" y1="382.05" x2="414.96" y2="-174.75"/>
          <line class="cls-17" x1="-148.49" y1="375.4" x2="408.31" y2="-181.4"/>
          <line class="cls-17" x1="-155.14" y1="368.74" x2="401.66" y2="-188.05"/>
          <line class="cls-17" x1="-161.79" y1="362.09" x2="395.01" y2="-194.71"/>
          <line class="cls-17" x1="-168.45" y1="355.44" x2="388.35" y2="-201.36"/>
          <line class="cls-17" x1="-175.1" y1="348.79" x2="381.7" y2="-208.01"/>
          <line class="cls-17" x1="-181.75" y1="342.14" x2="375.05" y2="-214.66"/>
          <line class="cls-17" x1="-188.4" y1="335.48" x2="368.4" y2="-221.31"/>
          <line class="cls-17" x1="-195.05" y1="328.83" x2="361.74" y2="-227.97"/>
          <line class="cls-17" x1="-201.71" y1="322.18" x2="355.09" y2="-234.62"/>
          <line class="cls-17" x1="-208.36" y1="315.53" x2="348.44" y2="-241.27"/>
          <line class="cls-17" x1="-215.01" y1="308.88" x2="341.79" y2="-247.92"/>
          <line class="cls-17" x1="-221.66" y1="302.22" x2="335.14" y2="-254.58"/>
          <line class="cls-17" x1="-228.31" y1="295.57" x2="328.48" y2="-261.23"/>
          <line class="cls-17" x1="-234.97" y1="288.92" x2="321.83" y2="-267.88"/>
          <line class="cls-17" x1="-241.62" y1="282.27" x2="315.18" y2="-274.53"/>
          <line class="cls-17" x1="-248.27" y1="275.61" x2="308.53" y2="-281.18"/>
          <line class="cls-17" x1="-254.92" y1="268.96" x2="301.87" y2="-287.84"/>
          <line class="cls-17" x1="-261.58" y1="262.31" x2="295.22" y2="-294.49"/>
          <line class="cls-17" x1="-268.23" y1="255.66" x2="288.57" y2="-301.14"/>
          <line class="cls-17" x1="-274.88" y1="249.01" x2="281.92" y2="-307.79"/>
          <line class="cls-17" x1="-281.53" y1="242.35" x2="275.27" y2="-314.45"/>
        </g>
      </g>
    </g>
    <rect class="cls-12" x="160" y="-60" width="320" height="600" rx="30" ry="30" transform="translate(80 560) rotate(-90)"/>
    <g class="cls-19">
      <g>
        <g>
          <path class="cls-15" d="M338.73,611.94c12.63-3.94,26.92-7.04,42.19-8.91,30.13-3.69,52.75-3.24,71.91,2.67-4.85-32.26-7.05-222.42-5.11-228.67,2.87-9.24,14.27-46.74,13.26-69.43-1-22.69-20.2-88.75-23.25-93.71-3.05-4.96-6.48-61.94-11.57-67.27-5.09-5.32-21,1.07-21.17,29.52-.17,28.45-77.73,156.83-77.73,156.83l-48.71,27.46s35.36,32.99,52.54,48.65l7.63,202.86Z"/>
          <path class="cls-15" d="M256.58,188.42l.5-.7c5.45-7.61,3.71-18.19-3.9-23.65l-47.91-34.36c-7.8-5.59-18.65-3.8-24.25,3.99h0c-5.59,7.8-3.8,18.65,4,24.25l47.91,34.36c7.61,5.45,18.19,3.71,23.65-3.9Z"/>
          <g>
            <g>
              <path class="cls-13" d="M373.38,11.11l-138.36,17.96c-11.1,1.44-18.76,12.96-17.09,25.73l36.59,280.76c2.4,18.38,17.3,31.61,33.28,29.53l123.97-16.09c11.77-1.53,19.88-13.74,18.11-27.27L391.5,27.19c-1.3-10.01-9.42-17.21-18.12-16.08Z"/>
              <g>
                <rect class="cls-10" x="291.79" y="102.21" width="41.71" height="17.87" transform="translate(-11.31 39.35) rotate(-7.08)"/>
                <rect class="cls-7" x="240.43" y="85.06" width="43.76" height="41.18" transform="translate(-11.02 33.11) rotate(-7.08)"/>
                <rect class="cls-10" x="288.87" y="78.66" width="41.71" height="17.87" transform="translate(-8.43 38.82) rotate(-7.08)"/>
                <rect class="cls-10" x="353.21" y="71.16" width="33.69" height="14.8" transform="translate(-6.86 46.18) rotate(-7.08)"/>
                <rect class="cls-2" x="356.32" y="94.7" width="33.69" height="17.87" transform="translate(-9.92 46.75) rotate(-7.08)"/>
                <rect class="cls-10" x="359.32" y="118.91" width="33.69" height="17.87" transform="translate(-12.88 47.31) rotate(-7.08)"/>
                <rect class="cls-6" x="362.25" y="142.45" width="33.69" height="17.87" transform="translate(-15.76 47.85) rotate(-7.08)"/>
                <rect class="cls-6" x="367.46" y="167" width="33.69" height="52.82" transform="translate(-20.9 48.81) rotate(-7.08)"/>
                <rect class="cls-6" x="275.77" y="126.79" width="61.98" height="38.51" transform="translate(-15.65 38.9) rotate(-7.08)"/>
                <rect class="cls-10" x="314.23" y="183.11" width="30.99" height="44.25" transform="translate(-22.77 42.17) rotate(-7.08)"/>
                <rect class="cls-6" x="334.95" y="245.29" width="20.86" height="44.25" transform="translate(-30.31 44.58) rotate(-7.08)"/>
                <rect class="cls-7" x="375.92" y="239.41" width="33.69" height="44.25" transform="translate(-29.22 50.37) rotate(-7.08)"/>
                <rect class="cls-10" x="307.32" y="248.72" width="20.86" height="44.25" transform="translate(-30.94 41.2) rotate(-7.08)"/>
                <rect class="cls-10" x="258.7" y="254.2" width="29.73" height="44.25" transform="translate(-31.95 35.8) rotate(-7.08)"/>
                <rect class="cls-6" x="272.68" y="188.03" width="33.3" height="19.3" transform="translate(-22.14 37.14) rotate(-7.07)"/>
                <rect class="cls-6" x="249.37" y="191.79" width="19.3" height="19.3" transform="translate(-22.84 33.44) rotate(-7.08)"/>
                <rect class="cls-6" x="252.44" y="216.54" width="19.3" height="19.3" transform="translate(-25.86 34) rotate(-7.08)"/>
                <rect class="cls-6" x="275.75" y="212.78" width="33.3" height="19.3" transform="translate(-25.17 37.71) rotate(-7.07)"/>
                <rect class="cls-10" x="244.74" y="132.53" width="24.08" height="16.92" transform="translate(-15.41 32.7) rotate(-7.08)"/>
                <rect class="cls-10" x="247.45" y="154.34" width="24.08" height="16.92" transform="translate(-18.08 33.2) rotate(-7.08)"/>
                <rect class="cls-10" x="354.15" y="101.93" width="4.08" height="185.72" transform="translate(-21.28 45.36) rotate(-7.08)"/>
                <rect class="cls-10" x="295.27" y="239.46" width="4.08" height="53.03" transform="translate(-30.5 38.65) rotate(-7.08)"/>
                <rect class="cls-10" x="299.03" y="121.86" width="4.08" height="108.94" transform="translate(438.97 -144.16) rotate(82.93)"/>
                <rect class="cls-10" x="254.32" y="235.19" width="151.82" height="4.08" transform="translate(-26.7 42.48) rotate(-7.07)"/>
                <rect class="cls-10" x="292" y="235.51" width="71.28" height="4.08" transform="translate(-26.76 42.16) rotate(-7.07)"/>
                <rect class="cls-10" x="346.64" y="74.22" width="4.08" height="120.18" transform="translate(-13.89 43.97) rotate(-7.08)"/>
                <g>
                  <path class="cls-10" d="M337.55,106.76c-.52-4.19,2.46-8.02,6.65-8.54,4.19-.52,8.02,2.46,8.54,6.65s-2.46,8.02-6.65,8.54c-4.2.52-8.02-2.46-8.54-6.65Z"/>
                  <path class="cls-10" d="M346.3,115.06c-5.1.63-9.76-3-10.39-8.09-.63-5.1,3-9.76,8.09-10.39,5.1-.63,9.76,3,10.39,8.09.63,5.1-3,9.76-8.09,10.39ZM344.41,99.87c-3.28.41-5.62,3.41-5.21,6.69.41,3.28,3.41,5.62,6.69,5.21,3.28-.41,5.62-3.41,5.21-6.69-.41-3.28-3.41-5.62-6.69-5.21Z"/>
                </g>
                <path class="cls-1" d="M392.74,49.12l-171.35,21.27-2.55-20.54c-1.14-9.17,5.37-17.52,14.54-18.66l138.15-17.15c9.17-1.14,17.52,5.37,18.66,14.54l2.55,20.54Z"/>
                <rect class="cls-1" x="251.05" y="304.76" width="176.21" height="39.91" transform="translate(-37.41 44.25) rotate(-7.08)"/>
              </g>
              <path class="cls-4" d="M416.71,351.2l-140.75,18.27c-10.58,1.37-20.45-7.38-22.04-19.55L215,51.24c-1.59-12.17,5.71-23.16,16.29-24.53l140.75-18.27c10.58-1.37,20.45,7.38,22.04,19.55l38.93,298.68c1.59,12.17-5.71,23.16-16.29,24.53ZM232.02,32.29c-7.9,1.03-13.35,9.22-12.16,18.31l38.93,298.68c1.18,9.09,8.55,15.62,16.45,14.6l140.75-18.27c7.9-1.03,13.35-9.22,12.16-18.31L389.22,28.63c-1.18-9.09-8.55-15.62-16.45-14.6l-140.75,18.27Z"/>
            </g>
            <path class="cls-4" d="M419.55,347.99l-143.26,18.59c-9.63,1.25-18.6-6.71-20.04-17.78l-.41-3.18,174.22-22.61,1,7.66c1.12,8.6-4.03,16.35-11.5,17.32Z"/>
          </g>
          <path class="cls-9" d="M214.84,286.99l-.48.71c-5.25,7.75-3.22,18.29,4.53,23.54l17.34,11.75c7.94,5.38,18.75,3.31,24.13-4.64h0c5.38-7.95,3.3-18.75-4.64-24.13l-17.34-11.74c-7.75-5.25-18.29-3.22-23.54,4.53Z"/>
          <path class="cls-15" d="M207.19,245.66l-.48.71c-5.25,7.75-3.22,18.29,4.53,23.54l20.47,13.87c7.95,5.38,18.75,3.31,24.13-4.64h0c5.38-7.95,3.31-18.75-4.64-24.13l-20.47-13.87c-7.75-5.25-18.29-3.22-23.54,4.53Z"/>
          <path class="cls-15" d="M210.05,206.85l-.48.71c-5.25,7.75-3.22,18.29,4.53,23.54l17.34,11.75c7.95,5.38,18.75,3.31,24.13-4.64h0c5.38-7.95,3.31-18.75-4.64-24.13l-17.34-11.74c-7.75-5.25-18.29-3.22-23.53,4.53Z"/>
          <path class="cls-2" d="M258.68,315.69l-1.38,1.94c-3.68,5.17-10.91,6.39-16.08,2.72l-5.46-3.88c-2.47-1.75-3.05-5.21-1.3-7.68l7.03-9.89c1.95-2.74,5.78-3.38,8.51-1.44l6.36,4.52c4.41,3.13,5.45,9.3,2.32,13.7Z"/>
          <path class="cls-5" d="M254.98,276.23l-1.38,1.94c-3.68,5.17-10.91,6.39-16.08,2.72l-5.46-3.88c-2.47-1.75-3.05-5.21-1.3-7.68l7.03-9.89c1.95-2.74,5.78-3.38,8.51-1.44l6.36,4.52c4.41,3.13,5.45,9.3,2.32,13.7Z"/>
          <path class="cls-5" d="M234.92,218.52h18.3c1.58,0,2.86,1.28,2.86,2.86v16.27c0,2.54-2.06,4.6-4.6,4.6h-13.73c-2.98,0-5.41-2.42-5.41-5.41v-15.75c0-1.42,1.16-2.58,2.58-2.58Z" transform="translate(-85.06 295.97) rotate(-54.6)"/>
        </g>
        <g>
          <path class="cls-14" d="M151.59,482.11c45.22-8.44,82.88-9.19,115.38-5.45,24.91-20.91,57.6-47.04,66.83-53.16,3.46-2.3,13.33-10.37,20.21-14.47.18-.11.37-.22.56-.33,12.19-7.34,24.34-17.47,21.03-24.39-.27-.57-.64-1.11-1.13-1.62-.32-.34-.65-.67-.99-1-10.08-9.49-32.01-11.25-101.51,26.96-4.32,2.38-6.28-3.65-5.72-5.52,2.95-9.82,9.86-32.33,19.63-60.61,1.54-4.48,3.16-9.1,4.85-13.85.73-2.05,1.47-4.12,2.22-6.21,1.33-3.7,2.74-7.45,4.22-11.25,2.86-7.36,5.94-14.86,9.03-22.28,12.06-28.98,24.22-56.84,23.9-71.39-.11-4.88-1.62-8.26-5.02-9.68-3.12-1.3-6.37-1.19-9.71.02h0c-9.76,3.54-20.16,16.45-29.53,31-12.87,19.99-23.78,43.07-28.34,49.13,0,0-4.43-8.77-16.89-12.1-13.47-3.6-22.65,9.02-22.65,9.02,0,0-6.37-8.37-18.74-7.53-.57.04-1.15.1-1.73.19-.21.03-.43.07-.64.11-10.2,1.83-20.57,10.48-20.57,10.48,0,0-4.32-4.69-10-7.01-2.86-1.17-6.06-1.75-9.22-.83-.29.09-.6.19-.91.33-4.13,1.75-9.51,7.45-15.21,15.15-3.02,4.09-6.14,8.75-9.2,13.68h0c-12.18,19.64-23.48,43.56-24.85,53.19-3.24,22.71-11.78,82.84-16.7,98.1-1.76,5.47-4.64,12.63-7.6,19.57,21.9,5.28,45.29,6.18,69.01,1.76Z"/>
          <path class="cls-5" d="M309.15,226.85l11.41,5.26c1.33.61,2.88.08,3.46-1.2l6.22-13.71c1.77-3.9-.09-8.58-4.15-10.45l-1.07-.5c-4.31-1.99-9.33-.24-11.2,3.89l-6.03,13.28c-.58,1.28.03,2.81,1.36,3.43Z"/>
          <path class="cls-5" d="M354.82,409.09l-5.21-7.46c-1.31-1.87-.9-4.36.91-5.58l18.8-12.58c3.03-2.02,6.68-2.54,10.09-1.74,3.86,7.8-10.47,19.22-24.58,27.36Z"/>
          <path class="cls-8" d="M230.11,347.86c.4.02.79-.22.95-.62,10.94-28.14,27.11-58.45,27.27-58.76.25-.47.08-1.06-.39-1.32-.47-.26-1.05-.08-1.31.4-.16.3-16.38,30.72-27.37,58.97-.19.5.05,1.07.55,1.26.1.04.2.06.3.07Z"/>
          <path class="cls-8" d="M193.33,326.32c.39.02.76-.2.93-.58,12.76-28.76,24.24-39.99,24.35-40.1.39-.37.4-.99.03-1.38-.37-.39-.98-.4-1.36-.03-.48.46-11.87,11.61-24.78,40.72-.22.49,0,1.07.49,1.29.11.05.23.08.34.08Z"/>
          <path class="cls-8" d="M155.21,327.93c.41.02.8-.22.95-.62,6.37-16.75,20.76-38.36,20.91-38.58.3-.45.18-1.05-.26-1.35-.44-.3-1.04-.18-1.34.26-.15.22-14.66,22.01-21.11,38.97-.19.5.06,1.07.55,1.26.1.04.2.06.3.06Z"/>
        </g>
      </g>
    </g>
  </g>
</svg>