<?xml version="1.0" encoding="UTF-8"?>
<svg xmlns="http://www.w3.org/2000/svg" viewBox="0 0 614.36 339.33">
  <defs>
    <style>
      .cls-1 {
        mix-blend-mode: multiply;
        opacity: .5;
      }

      .cls-1, .cls-2, .cls-3, .cls-4, .cls-5, .cls-6, .cls-7, .cls-8, .cls-9, .cls-10, .cls-11, .cls-12, .cls-13, .cls-14, .cls-15, .cls-16, .cls-17, .cls-18 {
        stroke-width: 0px;
      }

      .cls-1, .cls-9 {
        fill: #f47458;
      }

      .cls-2 {
        fill: #f79c8d;
      }

      .cls-3 {
        fill: #f48c7f;
      }

      .cls-4 {
        fill: #a2b7fd;
      }

      .cls-5 {
        fill: #121841;
      }

      .cls-6 {
        fill: #7796fe;
      }

      .cls-7 {
        fill: #e4edff;
      }

      .cls-8 {
        fill: #e27023;
      }

      .cls-10 {
        fill: #f57408;
      }

      .cls-11 {
        fill: #d5dffe;
      }

      .cls-12 {
        fill: #004d54;
      }

      .cls-13 {
        fill: #5858c6;
      }

      .cls-14 {
        fill: #271651;
      }

      .cls-19 {
        isolation: isolate;
      }

      .cls-15 {
        fill: #ff862d;
      }

      .cls-16 {
        fill: #fff;
      }

      .cls-17 {
        fill: #f7a491;
      }

      .cls-18 {
        fill: #698bfd;
      }
    </style>
  </defs>
  <g class="cls-19">
    <g id="_レイヤー_2" data-name="レイヤー 2">
      <g id="pc">
        <g>
          <path class="cls-15" d="M348.5,38.15c.58-2.28,1.26-4.55,3.65-5.53,2.07-.85,4.54.03,5.9,1.74,3.95,4.93-4.01,14-8.86,18.12-1.37,1.16-3.32,2.09-4.02,3.79.15-.25.29-.5.44-.75-.21.24-.42.48-.63.72-.9,1.02-.05,2.83,1.4,2.4,1.86-.55,1.95-.37,5.1-2.95,1.47-1.21,2.86-2.51,4.15-3.91,2.62-2.83,5.08-6.03,6.51-9.63,3.62-9.1-4.39-15.68-11-13.3-3.51,1.26-6.99,5.37-5.81,9.3.45,1.51,2.75,1.6,3.15,0h0Z"/>
          <path class="cls-15" d="M346.11,69.55c2.53,0,2.54-3.93,0-3.93s-2.54,3.93,0,3.93h0Z"/>
          <path class="cls-15" d="M321.25,16.88c-1.49-4-.4-9.11,3.27-11.6,3.57-2.42,8.7-1.66,11.67,1.38,3.85,3.94,3.2,11.01,1.63,15.8-.85,2.62-2.2,5.15-3.98,7.27-1.94,2.32-4.29,4.24-6.51,6.28-4.59,4.21-9.82,10.92-6.69,17.43.8,1.66,3.12.43,2.81-1.18-1.9-9.89,9.6-14.4,14.95-22.44,1.74-2.61,3.01-5.6,3.7-8.66,1.36-5.97,1.06-13.65-3.97-17.91-4.17-3.54-10.63-4.45-15.33-1.38-5.21,3.4-7.46,10.67-4.51,16.26.83,1.58,3.58.49,2.94-1.24h0Z"/>
          <circle class="cls-15" cx="325.44" cy="63.45" r="3.51" transform="translate(-3.81 102.58) rotate(-17.81)"/>
          <g>
            <path class="cls-14" d="M349.17,89.47c-4.62-7.44-12.77-13.01-21.82-13.03-16.31-.03-26,7.75-31.36,16.53-.17.28-.35.57-.52.86-12.36,20.35-19.14,34.75-40.9,43.66-51.04,20.91-39.44,77.15-7.7,97.67,50.36,32.56,82.32.44,99.69-38.2,26.9-59.87,5.88-102.21,2.6-107.48Z"/>
            <path class="cls-13" d="M293.25,273.88s-12.15,20.59-16.89,39.07c-3.28,12.77-4.93,26.38-4.93,26.38h103.48s-11.55-52.1-33.25-61.95c-21.7-9.86-48.41-3.49-48.41-3.49Z"/>
            <path class="cls-15" d="M354.04,167.65c-15.03-1.41-55.72,2.27-74.18,5.26-2.64.43,12.8,92,8.58,108.1l-8.59,17.6s51.75,11.11,77.76-2.95l-14.54-22.18c2.59-11.87,22.5-104.74,10.98-105.82Z"/>
            <path class="cls-17" d="M305.02,143.89s-2.24,54.65,10.74,55.77c12.98,1.12,13.29-32.18,13.46-36.27l.9-22.26-25.1,2.76Z"/>
            <path class="cls-1" d="M304.88,155.51c8.29,9.7,20.31,8.19,24.57,1.86l.66-16.24-25.1,2.76s-.2,4.82-.14,11.62Z"/>
            <path class="cls-17" d="M355.07,286.53c6.41-2.07,30.01-111.32-2.72-118.99,0,0,.76,2.41-.38,22.53-1.32,23.47-8.25,75.17-8.25,75.17,0,0-29.52-7.36-52.78-4.75l-19.52,11.36-2.98,12.69s7.07,7.07,8.54,7.07-2.43-6.22-2.43-6.22c0,0,3.64,3.64,4.54,2.74.9-.9-1.64-5.8-1.64-5.8l14.08-7.49s57.11,13.76,63.53,11.68Z"/>
            <path class="cls-8" d="M352.31,167.52s-.96.22-1.2,22.56c-.13,12.01-2.02,31.39-3.9,47.46,7.26-.43,17.5-.02,24.54.98,5.39-33.54,2.4-70.27-19.43-71Z"/>
            <path class="cls-3" d="M263.39,196.18c-.28,22.79,2.53,57.47,17.08,77.12,3.8,5.13,11.07-9.58,11.07-9.58,0,0-5.63-91.76-11.71-90.81-5.58.87-16.22,4.51-16.44,23.27Z"/>
            <path class="cls-8" d="M290.09,243c-2.06-27.01-6.05-70.74-10.26-70.08-5.58.87-18.27,4.51-18.5,23.27-.18,15.06,1,36.1,6.01,53.78,4.54-2.61,11.27-5.81,16.61-6.17,2.08-.11,4.12-.43,6.14-.79Z"/>
            <g>
              <path class="cls-3" d="M306.03,149.35s-.69,2-1.16,4.69c-.47,2.69.58,5.33-1.48,7.96-2.06,2.64,5.48,18.41,5.48,18.41,0,0,1.59-5.8.9-10.81-.69-5.01.18-17.37,1.21-18.4,1.03-1.03-4.96-1.85-4.96-1.85Z"/>
              <path class="cls-2" d="M298.81,138.05l-5.55,6.01-3.94,5.43s.95,9.86.42,11.6c-.53,1.74-.26,2.95.37,5.22.63,2.27,4.75,13.45,5.01,17.72,0,0-7.57,23.44-9.31,27.55-1.74,4.11-9.28,32.66-10.84,40.26-1.04,5.08,3.37,22.06,8.24,24.17,4.75,2.05,10.39,2.74,15.01-24.17,1.17-6.81,9.02-59.96,9.02-62.17s2.2-4.64,2.37-9.26c.2-5.45-5.22-11.62-5.22-11.62l3.56-5.77,3.16-.4s3.44,3.44,4.43,2.45c.99-.99-1.82-4.19-1.82-4.19,0,0,1.11,1.32,2.03.4.92-.92-4.24-6.8-4.24-6.8l-7.83-3.64-1.58.24-6.76,6.33-.36-7.44,2.85-5.3s5.27-5.56.98-6.62Z"/>
              <path class="cls-9" d="M313.1,160.56c-.25-.11-.49-.22-.74-.34-.25-.11-.48-.24-.73-.35-.24-.12-.48-.25-.72-.37-.24-.12-.48-.25-.71-.38l.15.04c-.48.03-.97.05-1.45.07-.48.01-.97.03-1.45.03l.24-.09c-1.02.84-2.06,1.65-3.12,2.43-.54.39-1.07.77-1.62,1.14-.55.37-1.1.74-1.67,1.07.45-.49.93-.95,1.41-1.4.48-.45.97-.89,1.47-1.33.99-.87,2.01-1.71,3.05-2.52l.11-.09h.13c.48,0,.97.02,1.45.03.48.02.97.04,1.45.07h.1s.06.04.06.04c.22.15.44.31.66.46.22.16.44.31.65.47.21.16.43.32.64.49.21.17.43.33.63.51Z"/>
              <path class="cls-9" d="M313.1,159.67c-.24-.28-.47-.56-.7-.84l-.68-.86-.66-.87-.65-.88.17.13c-.44-.12-.88-.25-1.32-.37-.44-.12-.88-.25-1.31-.38-.87-.27-1.74-.54-2.61-.83l.33-.05-1.32.88-1.33.85c-.45.27-.9.56-1.35.82-.45.27-.91.53-1.38.78.39-.36.79-.7,1.2-1.04.4-.34.82-.67,1.23-1l1.25-.97,1.27-.94.14-.11.19.06c.88.26,1.75.53,2.61.81.43.14.87.28,1.3.43.43.15.86.29,1.29.45l.12.04.05.08.57.94.55.95.53.96c.17.32.35.64.51.97Z"/>
            </g>
            <path class="cls-17" d="M300.26,97.14s-3.42,7.69-3.42,23.72,3.85,25.22,11.33,30.56c7.48,5.34,16.1,2.96,20.3,0,7.58-5.35,14.96-25.22,12.82-39.32-2.14-14.1-8.55-41.88-41.03-14.96Z"/>
            <path class="cls-14" d="M311.59,81.01c-.75,0-10.58,3.85-15.28,13.89-4.7,10.04,0,23.72,0,23.72,0,0,3.57-8.98,6.59-9.72,3.02-.75,14.56,2.99,19.16-1.6,4.59-4.59,10.26-14.1,10.26-14.1,0,0-1.12,12.13-4.59,15.6-3.47,3.47,10.47,5.45,13.84,1.18,3.37-4.27,4.97,13.36,4.97,13.36,0,0,1.71-22.65-9.08-34.3-10.79-11.65-25.86-8.01-25.86-8.01Z"/>
          </g>
        </g>
        <g>
          <rect class="cls-6" y="67.02" width="204.47" height="139.57" rx="3.48" ry="3.48"/>
          <rect class="cls-12" y="67.02" width="204.47" height="13.37" rx="3.48" ry="3.48"/>
          <rect class="cls-4" x="18.82" y="93.85" width="50.66" height="78.96"/>
          <rect class="cls-18" x="83.65" y="93.85" width="107.68" height="4.44"/>
          <rect class="cls-18" x="83.65" y="103.24" width="107.68" height="5.13"/>
          <rect class="cls-16" x="7.65" y="70.77" width="135.94" height="7.32"/>
          <path class="cls-16" d="M182.68,76.96c0,.62-.5,1.13-1.13,1.13s-1.13-.5-1.13-1.13.5-1.13,1.13-1.13,1.13.5,1.13,1.13Z"/>
          <path class="cls-16" d="M185.41,76.96c0,.62-.5,1.13-1.13,1.13s-1.13-.5-1.13-1.13.5-1.13,1.13-1.13,1.13.5,1.13,1.13Z"/>
          <path class="cls-16" d="M188.13,76.96c0,.62-.5,1.13-1.13,1.13s-1.13-.5-1.13-1.13.5-1.13,1.13-1.13,1.13.5,1.13,1.13Z"/>
          <path class="cls-5" d="M141.79,76.77l-1.08-1.87c.44-.35.72-.91.72-1.54,0-1.07-.82-1.93-1.83-1.93s-1.83.87-1.83,1.93.82,1.93,1.83,1.93c.25,0,.49-.05.71-.15l.76,2s.02.04.03.06c.12.2.37.26.56.14.19-.12.25-.39.13-.59ZM138.21,73.37c0-.81.63-1.47,1.39-1.47s1.39.66,1.39,1.47-.63,1.47-1.39,1.47-1.39-.66-1.39-1.47Z"/>
          <rect class="cls-10" x="149.17" y="70.77" width="11.49" height="6.93"/>
          <rect class="cls-7" x="92.4" y="115.82" width="94.61" height="84.72"/>
          <rect class="cls-16" x="102.24" y="129.3" width="37.47" height="35.81"/>
          <rect class="cls-16" x="147.94" y="170.78" width="37.47" height="29.76"/>
          <rect class="cls-10" x="117.82" y="120.06" width="45.79" height="3.85"/>
          <rect class="cls-18" x="146.28" y="129.3" width="39.12" height="1.93"/>
          <rect class="cls-18" x="146.28" y="132.64" width="39.12" height="1.93"/>
          <rect class="cls-18" x="146.28" y="135.98" width="39.12" height="1.93"/>
          <rect class="cls-18" x="146.28" y="139.31" width="39.12" height="1.93"/>
          <rect class="cls-18" x="146.28" y="142.65" width="39.12" height="1.92"/>
          <rect class="cls-18" x="146.28" y="145.99" width="39.12" height="1.93"/>
          <rect class="cls-18" x="146.28" y="149.33" width="39.12" height="1.93"/>
          <rect class="cls-18" x="146.28" y="152.66" width="39.12" height="1.92"/>
          <rect class="cls-18" x="146.28" y="156" width="39.12" height="1.93"/>
          <rect class="cls-18" x="146.28" y="159.34" width="39.12" height="1.93"/>
          <rect class="cls-18" x="146.28" y="162.68" width="39.12" height="1.93"/>
        </g>
        <g>
          <path class="cls-11" d="M413.36,125.99h197.52c1.92,0,3.48,1.56,3.48,3.48v132.62c0,1.92-1.56,3.48-3.48,3.48h-197.52c-1.92,0-3.48-1.56-3.48-3.48v-132.62c0-1.92,1.56-3.48,3.48-3.48Z"/>
          <path class="cls-12" d="M413.36,125.99h197.52c1.92,0,3.48,1.56,3.48,3.48v6.42c0,1.92-1.56,3.48-3.48,3.48h-197.52c-1.92,0-3.48-1.56-3.48-3.48v-6.42c0-1.92,1.56-3.48,3.48-3.48Z"/>
          <rect class="cls-18" x="428.7" y="152.82" width="50.66" height="78.96"/>
          <rect class="cls-18" x="493.54" y="152.82" width="107.68" height="4.44"/>
          <rect class="cls-18" x="493.54" y="162.21" width="107.68" height="5.13"/>
          <rect class="cls-16" x="417.53" y="129.74" width="135.94" height="7.32"/>
          <path class="cls-16" d="M592.56,135.93c0,.62-.5,1.13-1.13,1.13s-1.13-.5-1.13-1.13.5-1.13,1.13-1.13,1.13.5,1.13,1.13Z"/>
          <path class="cls-16" d="M595.29,135.93c0,.62-.5,1.13-1.13,1.13s-1.13-.5-1.13-1.13.5-1.13,1.13-1.13,1.13.5,1.13,1.13Z"/>
          <path class="cls-16" d="M598.02,135.93c0,.62-.5,1.13-1.13,1.13s-1.13-.5-1.13-1.13.5-1.13,1.13-1.13,1.13.5,1.13,1.13Z"/>
          <path class="cls-5" d="M551.68,135.74l-1.08-1.87c.44-.35.72-.91.72-1.53,0-1.07-.82-1.93-1.83-1.93s-1.83.87-1.83,1.93.82,1.93,1.83,1.93c.25,0,.49-.05.71-.15l.76,2s.02.04.03.06c.12.2.37.26.56.14.19-.12.25-.38.13-.59ZM548.09,132.34c0-.81.62-1.47,1.39-1.47s1.39.66,1.39,1.47-.62,1.47-1.39,1.47-1.39-.66-1.39-1.47Z"/>
          <rect class="cls-10" x="559.05" y="129.74" width="11.49" height="6.93"/>
          <rect class="cls-7" x="502.28" y="174.79" width="94.61" height="84.72"/>
          <rect class="cls-16" x="512.12" y="188.27" width="37.47" height="35.81"/>
          <rect class="cls-16" x="557.82" y="229.75" width="37.47" height="29.76"/>
          <rect class="cls-10" x="527.71" y="179.03" width="45.79" height="3.85"/>
          <rect class="cls-18" x="556.17" y="188.27" width="39.12" height="1.93"/>
          <rect class="cls-18" x="556.17" y="191.61" width="39.12" height="1.93"/>
          <rect class="cls-18" x="556.17" y="194.95" width="39.12" height="1.93"/>
          <rect class="cls-18" x="556.17" y="198.28" width="39.12" height="1.93"/>
          <rect class="cls-18" x="556.17" y="201.62" width="39.12" height="1.93"/>
          <rect class="cls-18" x="556.17" y="204.96" width="39.12" height="1.92"/>
          <rect class="cls-18" x="556.17" y="208.3" width="39.12" height="1.93"/>
          <rect class="cls-18" x="556.17" y="211.63" width="39.12" height="1.93"/>
          <rect class="cls-18" x="556.17" y="214.97" width="39.12" height="1.92"/>
          <rect class="cls-18" x="556.17" y="218.31" width="39.12" height="1.93"/>
          <rect class="cls-18" x="556.17" y="221.65" width="39.12" height="1.93"/>
        </g>
      </g>
    </g>
  </g>
</svg>