<?xml version="1.0" encoding="UTF-8"?>
<svg id="_レイヤー_2" data-name="レイヤー 2" xmlns="http://www.w3.org/2000/svg" viewBox="0 0 113.36 125.13">
  <defs>
    <style>
      .cls-1 {
        fill: #1a1a1a;
      }

      .cls-1, .cls-2, .cls-3 {
        stroke-width: 0px;
      }

      .cls-2 {
        fill: #dc7430;
      }

      .cls-3 {
        fill: #fff;
      }
    </style>
  </defs>
  <g id="pc">
    <g>
      <circle class="cls-3" cx="56.68" cy="56.68" r="56.68" transform="translate(-16.31 23.55) rotate(-20.59)"/>
      <polygon class="cls-3" points="74.36 106.53 71.5 125.13 91.18 101.65 74.36 106.53"/>
    </g>
    <g>
      <path class="cls-2" d="M25.57,72.75c-2.03-1.12-2.05-3.5.4-4.4,1.13-.42,2.68-.43,4.23-.14.03-.47,0-.94,0-1.32-.22-4.25-.44-6.27-.39-9.31.01-1.51,2.35-1.38,2.25.02-.07,1.04-.1,2.02-.09,3.06.28,0,.57-.02.79-.04.64-.08,1.24-.29,1.58-.48,1.34-.75,2.71,1.11,1.26,1.9-.41.21-.88.35-1.34.44-.47.08-.94.12-1.3.16-.3.04-.62.04-.94.02.03,1.19.09,2.51.12,4.06.02.51.01,1.28-.02,2.02,1.1.39,2.12.95,2.88,1.62,1.5,1.31-.05,3.46-1.5,1.9-.49-.52-1.08-.96-1.71-1.35-.78,1.84-3.53,3.29-6.2,1.84ZM26.55,69.95c-.58.21-.6.87-.03,1.17,1.14.62,2.93.28,3.39-1.06-1.21-.37-2.42-.45-3.36-.11Z"/>
      <path class="cls-2" d="M48.06,73.23c-1.21-2.43-3-5.21-4.45-6.95-1.39-1.65-1.38-3.16.29-4.87,1.46-1.5,3.11-3.06,4.4-4.77.99-1.29,2.89.24,1.88,1.46-1.07,1.29-3.34,3.12-4.67,4.43-.92.91-.97,1.54-.28,2.42,2.1,2.67,3.9,4.69,4.92,6.97.65,1.43-1.42,2.67-2.09,1.3Z"/>
      <path class="cls-2" d="M62.56,70.88c-.79.57-1.58,1.05-2.33,1.43-1.32.67-3.34.31-3.08-2.53.19-2.08,1.91-4.38,3.85-5.6.28-.17.58-.34.9-.5.07-.81.16-1.66.28-2.53-1.02.05-1.93-.02-2.66-.23-1.25-.37-.81-2.32.61-1.87.59.2,1.4.24,2.29.19.09-.62.2-1.25.29-1.89.25-1.57,2.31-1.21,2.06.06-.09.53-.2,1.06-.29,1.55.98-.21,1.96-.47,2.88-.8,1.24-.46,2.16,1.36.47,1.89-1.17.37-2.45.7-3.69.91-.11.68-.2,1.29-.29,1.89.75-.25,1.51-.41,2.24-.45.08,0,.17,0,.25,0v-.04c.16-1.25,2.11-.83,2.02.19,6.2,1.18,5.82,8.99-1.45,11.32-1.92.62-2.43-1.36-.69-1.92,5.31-1.68,5.56-6.69,1.72-7.68-.72,1.99-2.11,3.79-3.72,5.26.06.15.15.3.23.43.73,1.24-1.04,2.59-1.84,1.07l-.06-.13ZM61.77,65.65c-1.69,1.22-2.66,2.72-2.75,3.97-.07.85.5.94,1.06.65.64-.36,1.28-.75,1.9-1.22-.18-1-.24-2.15-.21-3.4ZM65.84,64.1c-.62.06-1.43.27-2.19.56-.09,1.08-.08,2.04.02,2.89.96-.99,1.76-2.15,2.24-3.45h-.06Z"/>
      <path class="cls-2" d="M87.34,70.85c1.56-1.37,1.52-3.39.31-4.21-1.1-.75-3.39-.92-5.55.32-.85.48-1.3.86-1.8,1.58-.77,1.12-2.89-.15-1.56-1.44,2.36-2.3,4.09-3.92,6.47-6.81.24-.3.02-.21-.15-.13-.6.31-2,.73-3.58,1.05-1.68.35-1.98-1.76-.54-1.92,1.42-.16,3.47-.65,4.68-1,1.7-.47,3.1,1.05,2.02,2.23-.69.76-1.54,1.58-2.4,2.36-.86.78-1.71,1.54-2.48,2.27,1.88-.98,4.41-.96,5.97-.02,3.04,1.85,2.02,5.59-.23,7.18-2.12,1.49-5.43,1.55-7.04.47-2.24-1.48-1.22-4.11,1.29-4.18,1.7-.05,3.29.98,3.33,2.9.4-.08.85-.33,1.24-.67ZM82.82,70.17c-.94.08-.99.95-.31,1.31.49.26,1.19.35,1.78.33.03-.98-.54-1.73-1.47-1.65Z"/>
      <path class="cls-2" d="M35.71,88.34c0-.21.07-.45.22-.7.54-.87.82-1.97.83-3.05,0-.6.41-.85.86-.84.21,0,1,.11.99.96,0,1-.59,4.57-1.99,4.55-.49,0-.91-.39-.91-.92ZM39.07,80.48c0-.64.5-.93,1.01-.93.51,0,1.02.33,1.01.94l-.03,3.17c.17-.1.36-.17.58-.16.66,0,1.96,1.52,1.96,2.16,0,.53-.52.95-.99.95-.23,0-.47-.13-.61-.41-.27-.57-.67-1.13-.95-1.43l-.1,12.6c0,.6-.52.89-1.03.88-.51,0-1-.31-.99-.9l.14-16.88ZM44.48,84.63c-.25-.85-.83-1.94-1.45-2.56-.17-.17-.25-.36-.25-.55,0-.45.47-.85.99-.84,1.13,0,2.63,2.66,2.63,3.55,0,.66-.58,1.1-1.09,1.1-.36,0-.7-.2-.82-.69ZM44.94,87.88c-.03.98-.04,2.29-.05,3.59,0,1.3-.02,2.59,0,3.55,0,.91.46.92,3.65.94,1.02,0,2.08,0,2.85-.04.6-.04.88-.42.9-.82.03-.98.06-2.57.08-4.12,0-1.1,0-2.19,0-3.02,0-.57.5-.87,1.01-.86.49,0,1,.31.99.88,0,.98,0,2.08,0,3.19-.01,1.57-.05,3.12-.08,4.27-.03,1.36-.93,2.31-2.51,2.36-1,.04-2.15.05-3.29.04-1.13,0-2.25-.04-3.23-.09-1.59-.08-2.33-.93-2.34-2.31,0-1.06,0-2.42,0-3.76.01-1.36.04-2.72.05-3.8.03-.53.54-.82,1.03-.82.49,0,.95.29.95.82v.02ZM46.24,95.16c-.53,0-.95-.41-.95-.88,0-.23.13-.49.41-.7.83-.61,1.61-1.54,2.23-2.53-.68-.58-1.37-1.07-1.96-1.4-.32-.17-.46-.43-.46-.68,0-.43.41-.85.94-.84.3,0,.7.11,2.35,1.32.3-.68.54-1.36.67-1.97.11-.47.5-.68.9-.67.51,0,1.04.35,1.03.92,0,.21-.31,1.36-1.15,2.93,1.35,1.24,1.62,1.73,1.62,2.16,0,.57-.54,1.08-1.07,1.08-.25,0-.51-.13-.7-.43-.21-.34-.5-.75-.86-1.13-.84,1.27-2.15,2.85-3,2.85ZM47.88,84.02c-.14-.87-.62-2.02-1.1-2.71-.13-.17-.17-.32-.17-.49,0-.47.47-.85.98-.84,1.32,0,2.16,3.27,2.16,3.7,0,.7-.54,1.1-1.05,1.1-.38,0-.74-.24-.82-.75ZM51.25,86.06c-.53,0-1.02-.39-1.01-.9,0-.17.07-.38.24-.59.95-1.18,1.57-2.56,2.05-3.75.15-.38.49-.55.86-.54.57,0,1.21.41,1.2,1.01,0,.4-1.21,2.82-2.46,4.34-.26.32-.58.44-.87.44Z"/>
      <path class="cls-2" d="M68.04,89.15c1.59.08,3.16.45,4.61.97.13-.87.06-1.66-.28-2.24-.59-1,1.33-1.79,2.02-.47.46.85.51,2.13.18,3.53,1.1.54,2.09,1.19,2.92,1.83,1.33,1.05-.13,3-1.33,1.88-.7-.64-1.46-1.22-2.3-1.74-.8,1.59-2.15,3.17-4.07,4.28-1.5.86-2.54-.81-1.16-1.64,1.6-.96,2.72-2.27,3.39-3.57-1.57-.67-3.24-1.07-4.94-1.1-.8,1.63-1.53,2.94-2.75,3.87-1.28.99-3.16,1.1-4.06-.03-1.07-1.37-.27-3.57,2.18-4.64,1.13-.48,2.32-.77,3.49-.89.76-1.59,1.75-3.51,2.36-4.85.13-.3.2-.47-.12-.38-.83.21-1.64.48-2.51.49-1.4.03-1.32-1.95-.05-2.02.85-.04,2.15-.34,3.06-.51,1.94-.37,2.78.89,1.81,2.44-.9,1.48-1.77,3.2-2.55,4.78h.11ZM63.03,91.66c-.55.27-1.56,1.16-1.2,1.69.25.36,1.02.24,1.4-.05.71-.53,1.29-1.39,1.78-2.26-.55.08-1.19.25-1.98.62Z"/>
    </g>
    <path class="cls-1" d="M66.47,48.64c-.4.4-1.05.47-1.54.14-.54-.38-.68-1.13-.3-1.67,1.52-2.19,2.9-5.17,1.12-7.24-2.4,1.82-5.73,3.38-9.64,4.44-3.08.97-6.99.92-8.08-1.11-.49-.91-.56-2.41,1.87-4.38,4.56-3.55,11.61-4.33,15.75-2.05.57-.58,1.02-1.19,1.33-1.79.53-1.04.6-2.01.23-2.97-.03-.07-.05-.15-.06-.23-.13-.76-1.12-1.57-2.71-2.26-4.5,3.95-13.91,6.45-18.05,5.4-1.87-.48-2.51-1.53-2.72-2.33-.46-1.75,0-3.32,1.29-4.53,3.69-3.44,13.35-3.1,18.86-1.33.71-.89.94-1.73.7-2.49-.48-1.52-2.45-2.74-5.42-3.35-5.64-1.16-13.81.07-17.03,3.78-.43.49-1.19.56-1.7.12-.5-.43-.56-1.19-.12-1.7,3.89-4.48,13.06-5.86,19.34-4.56,3.9.81,6.46,2.58,7.23,4.98.32,1,.4,2.46-.7,4.14,1.94.98,3.1,2.2,3.39,3.6.57,1.56.44,3.22-.37,4.82-.38.75-.92,1.49-1.59,2.2,1.27,1.47,2.85,4.77-.94,10.21-.04.06-.09.11-.14.16ZM50.8,41.22c-.6.6-.63.9-.63.9.26.3,2.46.75,5.26-.13,3.25-.88,6.07-2.13,8.16-3.54-3.22-1.21-8.44-.69-12.19,2.24-.24.2-.44.38-.6.53ZM46.52,29.88c-.59.59-.75,1.24-.53,2.09.09.34.66.53.99.61,3.17.81,10.51-1.08,14.7-3.96-5.29-1.29-12.66-1.08-15.09,1.19-.03.03-.05.05-.08.07Z"/>
  </g>
</svg>