<?xml version="1.0" encoding="UTF-8"?>
<svg id="_レイヤー_2" data-name="レイヤー 2" xmlns="http://www.w3.org/2000/svg" viewBox="0 0 42.04 46.52">
  <defs>
    <style>
      .cls-1 {
        fill: #ebf2f7;
      }

      .cls-1, .cls-2 {
        stroke-width: 0px;
      }

      .cls-2 {
        fill: #666;
      }
    </style>
  </defs>
  <g id="pc">
    <g>
      <path class="cls-1" d="M18.22,25.47c4.32,3.66,10.51,3.97,13.03,2.34,2.04-1.32,9.14-8.63,4.37-18.06-1.35-1.33-8.42-7.77-14.82-3.67-3.29,2.11-5.34,5.77-5.62,10.05-.24,3.62,1.18,7.77,3.04,9.34Z"/>
      <path class="cls-2" d="M39.67,7.22c-.1-.19-.23-.36-.37-.52-2.41-2.55-7.16-6-12.46-6.61-2.8-.32-5.76.16-8.6,1.98-4.57,2.93-7.42,7.94-7.8,13.74-.28,4.19,1.1,8.78,3.1,11.51,0,0-3.61,4.38-4.83,5.82-.99,1.17-3.98,4.62-3.98,4.62,0,0-4.39,4.7-4.6,5.13-.21.42-.16,1,.26,1.74s1.9,2.11,2.85,1.85c.95-.26,4.8-4.65,5.47-5.44l3.39-4.44,5.18-5.87c5.58,3.66,12.44,3.76,16.57,1.09,4.59-2.96,12.05-12.87,5.84-24.59ZM31.26,27.81c-2.52,1.63-8.72,1.32-13.03-2.34-1.86-1.58-3.28-5.73-3.04-9.34.29-4.28,2.33-7.94,5.62-10.05,6.4-4.1,13.46,2.34,14.82,3.67,4.77,9.43-2.33,16.74-4.37,18.06Z"/>
    </g>
  </g>
</svg>