<?xml version="1.0" encoding="UTF-8"?>
<svg id="_レイヤー_2" data-name="レイヤー 2" xmlns="http://www.w3.org/2000/svg" viewBox="0 0 35.33 50.52">
  <defs>
    <style>
      .cls-1 {
        fill: #fff;
        stroke-width: 0px;
      }
    </style>
  </defs>
  <g id="pc">
    <path class="cls-1" d="M29.51,4.71C24.69.07,19.33-1.06,11.62.96.97,3.73-1.48,14.46.76,23.25c.97,3.83,2.77,7.01,4.67,10.38.48.86.97,1.72,1.45,2.6,1.2,2.23,2.65,4.26,4.04,6.22.43.6.86,1.21,1.28,1.82.85,1.23,1.9,2.91,2.82,4.4.35.57.69,1.11,1,1.6.1.16.27.25.45.25.1,0,.19-.03.28-.08,0,0,.02,0,.02-.01.08-.02.16-.06.23-.12,3.02-2.71,5.82-6.85,7.86-9.88l.63-.93c.63-.93,1.32-1.9,2.03-2.9,3.62-5.08,7.73-10.83,7.81-16.85.08-6.19-1.87-11.25-5.82-15.04ZM11.42,24.15c-2.07-1.44-3.26-3.43-3.55-5.89-.3-2.55.7-5.4,2.68-7.63,1.87-2.1,4.26-3.27,6.75-3.3.03,0,.06,0,.1,0,5.07-.3,8.56,4.73,9.28,9.61.55,3.71-.44,8.05-4.84,9.1-2.77.66-7.21.35-10.42-1.89Z"/>
  </g>
</svg>