<?xml version="1.0" encoding="UTF-8"?>
<svg xmlns="http://www.w3.org/2000/svg" viewBox="0 0 340.59 215.3">
  <defs>
    <style>
      .cls-1 {
        fill: #0f3591;
      }

      .cls-1, .cls-2, .cls-3, .cls-4, .cls-5, .cls-6, .cls-7, .cls-8, .cls-9, .cls-10, .cls-11, .cls-12, .cls-13, .cls-14, .cls-15, .cls-16, .cls-17, .cls-18, .cls-19, .cls-20, .cls-21, .cls-22, .cls-23, .cls-24, .cls-25, .cls-26, .cls-27, .cls-28, .cls-29, .cls-30, .cls-31, .cls-32, .cls-33, .cls-34, .cls-35, .cls-36, .cls-37, .cls-38, .cls-39, .cls-40, .cls-41, .cls-42, .cls-43, .cls-44, .cls-45, .cls-46, .cls-47, .cls-48, .cls-49, .cls-50, .cls-51, .cls-52, .cls-53 {
        stroke-width: 0px;
      }

      .cls-2 {
        fill: #31243c;
      }

      .cls-3 {
        fill: #fcf4cd;
      }

      .cls-4 {
        fill: #898cac;
      }

      .cls-5 {
        fill: #515469;
      }

      .cls-6 {
        fill: #1e2d5e;
      }

      .cls-7 {
        fill: #4e183e;
      }

      .cls-8 {
        fill: #0b318d;
      }

      .cls-9 {
        fill: #c79666;
      }

      .cls-10 {
        fill: #d1eaeb;
      }

      .cls-11 {
        fill: #4e516b;
      }

      .cls-12 {
        fill: #00576e;
      }

      .cls-13 {
        fill: #422b46;
      }

      .cls-14 {
        fill: #ed8080;
      }

      .cls-15 {
        fill: #d2c7b4;
      }

      .cls-16 {
        fill: #ef908f;
      }

      .cls-17 {
        fill: #68878a;
      }

      .cls-18 {
        fill: #1b2b5c;
      }

      .cls-19 {
        fill: #1d2e5d;
      }

      .cls-20 {
        fill: #192649;
      }

      .cls-21 {
        fill: #37183d;
      }

      .cls-22 {
        fill: #6e75b7;
      }

      .cls-23 {
        fill: #006535;
      }

      .cls-24 {
        fill: #ea5d58;
      }

      .cls-25 {
        fill: #5a416f;
      }

      .cls-26 {
        fill: #f4cb24;
      }

      .cls-27 {
        fill: #182347;
      }

      .cls-28 {
        fill: #e97218;
      }

      .cls-29 {
        fill: #65c2c8;
      }

      .cls-30 {
        fill: #db1363;
      }

      .cls-31 {
        fill: #f7bb86;
      }

      .cls-32 {
        fill: #1d2c6f;
      }

      .cls-33 {
        fill: #ec8e26;
      }

      .cls-34 {
        fill: #3f8e75;
      }

      .cls-35 {
        fill: #182853;
      }

      .cls-36 {
        fill: #0f8b43;
      }

      .cls-37 {
        fill: #13a094;
      }

      .cls-38 {
        fill: #8dcfd6;
        mix-blend-mode: screen;
        opacity: .1;
      }

      .cls-39 {
        fill: #bbbdd6;
      }

      .cls-40 {
        fill: #f1913c;
      }

      .cls-41 {
        fill: #ec7171;
      }

      .cls-54 {
        isolation: isolate;
      }

      .cls-42 {
        fill: #07718f;
      }

      .cls-43 {
        fill: #f0aa3f;
      }

      .cls-44 {
        fill: #0b867a;
      }

      .cls-45 {
        fill: #f2923d;
      }

      .cls-46 {
        fill: #445d45;
      }

      .cls-47 {
        fill: #738373;
      }

      .cls-48 {
        fill: #1a264a;
      }

      .cls-49 {
        fill: #3a85c6;
      }

      .cls-50 {
        fill: #93b2dd;
      }

      .cls-51 {
        fill: #fff;
      }

      .cls-52 {
        fill: #426b6e;
      }

      .cls-53 {
        fill: #13474a;
      }
    </style>
  </defs>
  <g class="cls-54">
    <g id="_レイヤー_2" data-name="レイヤー 2">
      <g id="pc">
        <path class="cls-34" d="M340.55,207.95c-.59-2.6-5.22,1.19-5.22,1.19,0,0,.11-2.81-1.87-5.43-2.75-3.65-7.59,2.43-7.59,2.43,0,0,2.29-3.22-.77-5.8-1.86-1.56-3.48-.72-4.61.46.16-1.96-.39-3.4-2.36-3.46-1.73-.06-3.14.34-4.28.93-.98-.38-2.12-.59-3.46-.54-1.69.06-2.34,1.15-2.37,2.7-1.14-1.16-2.75-1.97-4.58-.41-3.05,2.6-.74,5.81-.74,5.81,0,0-4.87-6.06-7.6-2.39-1.96,2.63-1.84,5.44-1.84,5.44,0,0-4.65-3.77-5.22-1.17-.58,2.6,6.85,7.31,6.85,7.31l38.85.27s7.4-4.75,6.81-7.35Z"/>
        <path class="cls-34" d="M78.98,141.59c-.89-3.91-7.84,1.8-7.84,1.8,0,0,.16-4.22-2.81-8.17-4.14-5.49-11.41,3.65-11.41,3.65,0,0,3.45-4.84-1.16-8.72-2.79-2.35-5.23-1.08-6.93.7.25-2.94-.59-5.1-3.54-5.2-2.61-.08-4.73.5-6.43,1.4-1.47-.56-3.19-.89-5.21-.81-2.55.1-3.51,1.72-3.56,4.06-1.71-1.75-4.13-2.96-6.89-.62-4.58,3.9-1.11,8.73-1.11,8.73,0,0-7.32-9.1-11.43-3.59-2.95,3.96-2.77,8.18-2.77,8.18,0,0-6.99-5.66-7.85-1.75-.87,3.91,10.3,10.99,10.3,10.99l58.39.4s11.13-7.14,10.24-11.04Z"/>
        <g>
          <ellipse class="cls-15" cx="175.73" cy="187.75" rx="127.86" ry="4"/>
          <g>
            <g>
              <path class="cls-19" d="M100.62,36.29s-3.78-.51-4.33,2.19c-.56,2.7,3.56,4.72,5.05,4.79,0,0-1.35,1.33.6,3.04,1.96,1.71,5.75,1.73,5.75,1.73,0,0,2.9-6.41.61-7.31-2.29-.9-2.73-.25-2.73-.25,0,0,2.5-2.87-.01-4.27-2.52-1.4-4.95.08-4.95.08Z"/>
              <g>
                <path class="cls-24" d="M163.37,93.19c-.16,0-1.95-.95-2.11-.49-.16.46,2.01,1.59,2.01,1.59l.11-1.1Z"/>
                <path class="cls-2" d="M163.18,91.96c-.75-1.7-.19-3.67,1.36-4.76l6.1-4.27c3.1-2.21,7.12-1.97,9.9.6l19.52,17.17-3.01,3.9-19.17-17.21c-1.11-1-3.48-1.86-4.79-1.13l-9.59,6.4-.31-.71Z"/>
                <path class="cls-24" d="M143.37,37.4s-.78,11.8-1.02,24.97c-.24,13.17,5.3,22.29,8.13,24.14,2.83,1.85,14.72-.35,14.72-.35,0,0,.57.62,1.67,1.73,1.1,1.11,2.4-.72,2.62-1.44.22-.71,1.31-2.99.69-3.18-.62-.19-3.12-2.78-6.7-.63-3.58,2.15-10.18-2.08-11.39-5.95-1.21-3.87-4.15-38.74-8.71-39.29Z"/>
                <path class="cls-53" d="M137.06,105.21l-7.08,76.25,5.26-.86,9.03-41.16s5.95-38.2,5.95-51.99l-13.16,17.77Z"/>
                <path class="cls-13" d="M113.28,186.01h9.2s-6.41-3.87-6.41-3.87l.7-3.07c-1.46,0-1.82.97-3.29.97-.42,2.26-.19,5.97-.19,5.97Z"/>
                <path class="cls-13" d="M131.44,185.48h9.2s-6.41-3.87-6.41-3.87l.7-3.07c-1.46,0-1.82.97-3.29.97-.42,2.26-.19,5.97-.19,5.97Z"/>
                <path class="cls-52" d="M149.85,76.25c-10.9.23-24.15,11.56-24.15,11.56l-1.72,49.1s-10.46,34.26-12.57,45.63c0,0,5.98-.36,5.64-.36l17.6-40.64,7.94-37.13,6.51-14.43.76-13.73Z"/>
                <polygon class="cls-17" points="142.58 104.42 133.06 141.01 117.04 182.18 134.64 141.54 142.58 104.42"/>
                <path class="cls-40" d="M150.31,79.54c.04-.15-1.93-28.61-2.39-33.35-.46-4.78-3.92-13.08-8.26-14.48-2.87-.93-11.89-.19-14.08,4.03-6.18,11.89-.46,53.46-.46,53.46,7.62,1.87,18.77,4.67,25.91,0-.03-.31-.73-9.53-.73-9.66Z"/>
                <path class="cls-24" d="M104.91,44.5s13.15,24.08,20.22,24.08c7.07,0,19.26-5.46,19.26-5.46l.83,3.52s-15.13,11.86-23.26,8.82c-8.63-3.22-19.93-10.12-19.93-10.12l2.88-20.84Z"/>
                <g>
                  <path class="cls-25" d="M189.12,173.32c-.31,0-.63-.08-.92-.26-.82-.51-1.08-1.59-.58-2.41l25.85-42.06c.51-.83,1.59-1.08,2.41-.58.83.51,1.08,1.59.58,2.41l-25.85,42.06c-.33.54-.91.83-1.49.83Z"/>
                  <path class="cls-2" d="M201.83,171.72c0,7.02-5.69,12.7-12.71,12.7s-12.7-5.69-12.7-12.7c0-7.02,5.69-12.7,12.7-12.7s12.71,5.69,12.71,12.7Z"/>
                  <path class="cls-39" d="M189.12,179.72c-4.41,0-8-3.59-8-8s3.59-8,8-8,8,3.59,8,8-3.59,8-8,8Z"/>
                  <path class="cls-22" d="M193.13,171.72c0,2.48-2.01,4.49-4.49,4.49s-4.49-2.01-4.49-4.49,2.01-4.49,4.49-4.49,4.49,2.01,4.49,4.49Z"/>
                  <path class="cls-36" d="M247.73,115.39c-1.88,0-3.41-1.53-3.41-3.41s1.53-3.41,3.41-3.41,3.41,1.53,3.41,3.41-1.53,3.41-3.41,3.41ZM247.73,109.56c-1.33,0-2.42,1.09-2.42,2.42s1.09,2.42,2.42,2.42,2.42-1.09,2.42-2.42c0-1.33-1.09-2.42-2.42-2.42Z"/>
                  <rect class="cls-23" x="246.71" y="105.3" width="1.8" height="4.92"/>
                  <path class="cls-41" d="M227.68,131.31s6.05-3.79,8.71-3.54c2.67.26,10.4,6.05,12.71,6.05s3.38.51,3.89,0c.51-.51,1.49-2.56,2.61-2,1.13.56-.2,4.51-1.54,5.33-1.33.82-4.3,1.49-5.28,2.46-.97.97-1.85-2-3.59-3.28-1.74-1.28-4.93-.88-5.65-.17-.72.72-3.67,1.28-3.83,1.44-.16.16-8.05-6.3-8.05-6.3Z"/>
                  <path class="cls-16" d="M233.57,130.6s-.42,2.79.31,4.02c.73,1.23,1.91,1.26,2.2,2.25.28.98,1.3,2.66,2.78,2.24,1.48-.43,1.75-2.05,1.04-4.52-.71-2.46-1.1-3.42-2.13-3.49-1.04-.07-1.01-.72-1.8-.49-.79.23-.8-.19-1.39-.02,0,0-.09-.51-1.01.02Z"/>
                  <path class="cls-11" d="M207.9,151.24s8.3,4.15,18.24,4.89c9.94.74,15.77-4.89,15.77-4.89v-3.07s-16.43.41-19.23-1.54c-2.79-1.95-14.79,4.61-14.79,4.61Z"/>
                  <path class="cls-4" d="M209.75,162.29l-1.84-11.04,20.09.41,13.92-.41s.58,8.35-1.31,10.25c-1.9,1.9-24.95,7.45-30.85.79Z"/>
                  <path class="cls-5" d="M241.91,151.24c-.14,2.27-.37,5.63-.97,7.84-.49,1.82-.88,1.99-1.97,2.37-6.14,2.31-23.78,5.45-29.22.84,5.31,7.34,27.45,2.84,31.21-.09,2.07-1.52,1.43-8.4.96-10.95Z"/>
                  <path class="cls-25" d="M243.38,158.58l-6.85-16.9c-.38-.94.07-2.02,1.02-2.4.95-.38,2.02,1.8,2.4,2.74l5.86,12.74,7.99-.41.14-.42c.32-.97,1.36-1.49,2.33-1.17.97.32,1.49,1.37,1.17,2.33l-.94,2.81-13.13.67Z"/>
                  <path class="cls-37" d="M179.31,90.16s22.75-6.58,26.65-14.15c0,0,10.86,5.54,25.01,3.7,0,0,12.09,3.69,19.68,25.21l-35.67,15.68-35.67-30.44Z"/>
                  <path class="cls-37" d="M187.3,98.3s2.66,41.26,9.63,48.23c6.97,6.97,12.3,6.35,20.7,4.3,8.4-2.05,19.47-10.25,19.47-10.25l-49.81-42.28Z"/>
                  <path class="cls-44" d="M220.76,145.98c-8.4,2.05-13.73,2.67-20.7-4.3-6.97-6.97-12.76-43.38-12.76-43.38,0,0,2.66,41.26,9.63,48.23,6.97,6.97,12.3,6.35,20.7,4.3,8.4-2.05,19.47-10.25,19.47-10.25l-.22-.18c-3.15,1.34-9.95,4.07-16.13,5.58Z"/>
                  <path class="cls-21" d="M259.87,158.21l-62.2-54.93-2.16,3.08c25.56,22.04,64.16,55.13,64.16,55.13h13.32s0-2.46,0-2.46l-13.12-.82Z"/>
                  <path class="cls-26" d="M212.21,119.44s6.17-7.89,8.56-5.51c2.38,2.38-5,8.52-5,8.52l-3.55-3.02Z"/>
                  <circle class="cls-26" cx="220.3" cy="132.38" r="5.22" transform="translate(40.85 316.38) rotate(-76.72)"/>
                  <path class="cls-22" d="M222.69,132.38c0,1.32-1.07,2.38-2.38,2.38s-2.38-1.07-2.38-2.38,1.07-2.38,2.38-2.38,2.38,1.07,2.38,2.38Z"/>
                  <path class="cls-25" d="M193.09,178.51c-.33,0-.66-.09-.96-.27-.87-.53-1.14-1.67-.61-2.54l27.21-44.28c.53-.87,1.67-1.14,2.54-.61.87.53,1.14,1.67.61,2.54l-27.21,44.28c-.35.57-.95.88-1.57.88Z"/>
                  <path class="cls-2" d="M206.47,176.81c0,7.39-5.99,13.38-13.38,13.38-7.39,0-13.38-5.99-13.38-13.38s5.99-13.38,13.38-13.38,13.38,5.99,13.38,13.38Z"/>
                  <path class="cls-39" d="M193.09,185.24c-4.64,0-8.42-3.78-8.42-8.42,0-4.64,3.78-8.42,8.42-8.42s8.42,3.78,8.42,8.42-3.78,8.42-8.42,8.42Z"/>
                  <path class="cls-2" d="M261.35,180.47c0,5.37-4.35,9.72-9.72,9.72s-9.72-4.35-9.72-9.72c0-5.37,4.35-9.72,9.72-9.72s9.72,4.35,9.72,9.72Z"/>
                  <path class="cls-39" d="M251.63,185.24c-2.63,0-4.77-2.14-4.77-4.77s2.14-4.77,4.77-4.77,4.77,2.14,4.77,4.77-2.14,4.77-4.77,4.77Z"/>
                  <path class="cls-26" d="M265.97,168.44h-4.61v-9.99c0-1.27,1.03-2.31,2.31-2.31h0c1.27,0,2.31,1.03,2.31,2.31v9.99Z"/>
                  <path class="cls-25" d="M251.97,182.66c-.4,0-.8-.13-1.14-.39-.8-.63-.94-1.79-.32-2.59l11.68-14.91c.63-.8,1.79-.94,2.59-.31.8.63.94,1.79.31,2.59l-11.68,14.91c-.36.46-.91.71-1.45.71Z"/>
                  <path class="cls-22" d="M253.46,180.83c0,1.01-.82,1.83-1.83,1.83s-1.83-.82-1.83-1.83c0-1.01.82-1.83,1.83-1.83s1.83.82,1.83,1.83Z"/>
                  <path class="cls-22" d="M265,165.84c0,.74-.6,1.34-1.34,1.34s-1.34-.6-1.34-1.34.6-1.34,1.34-1.34,1.34.6,1.34,1.34Z"/>
                  <path class="cls-22" d="M197.31,176.81c0,2.61-2.12,4.73-4.73,4.73s-4.73-2.12-4.73-4.73,2.12-4.73,4.73-4.73,4.73,2.12,4.73,4.73Z"/>
                  <path class="cls-22" d="M215.59,121.12h0c-1.11,0-2.01-.91-2.01-2.01h0c0-1.11.91-2.01,2.01-2.01h0c1.11,0,2.01.91,2.01,2.01h0c0,1.11-.91,2.01-2.01,2.01Z"/>
                  <path class="cls-44" d="M230.96,79.7c-5.94,6.96-15.35,32.48-15.3,32.37-.69,1.84-3.48.81-2.79-1.04.34-.92,11.52-24.81,18.09-31.33Z"/>
                  <path class="cls-44" d="M205.95,76c3.33,4.7,5.35,28.84,5.73,34.4.14,2.03-3,2.15-2.97.08.07-5.65.12-29.57-2.76-34.48Z"/>
                  <g>
                    <path class="cls-44" d="M242,91.5c-2.74-2.74,0,.55,0,.55l4.97,11.27-20.97,9.72,22.35-9.11s-3.61-9.69-6.35-12.44Z"/>
                    <polygon class="cls-44" points="224.07 113.93 226 113.04 224.91 113.49 224.07 113.93"/>
                  </g>
                  <polygon class="cls-33" points="248.97 125.61 246.98 123.43 244.65 125.24 245.11 122.33 242.25 121.64 244.81 120.18 243.57 117.51 246.3 118.61 247.62 115.97 248.46 118.8 251.34 118.18 249.66 120.6 251.94 122.46 249 122.66 248.97 125.61"/>
                  <path class="cls-25" d="M247.98,115.7c0,.21-.17.38-.38.38s-.38-.17-.38-.38c0-.21.17-.38.38-.38s.38.17.38.38Z"/>
                </g>
                <g>
                  <path class="cls-41" d="M141.72,17.33l-.57,16.56c-.26,4.91-5.62,1.37-7.6-.36-1.73-1.51,2.01-16.62,2.01-16.62,0,0,3.62-.25,6.16.42Z"/>
                  <path class="cls-24" d="M135.55,16.92s-.14.54-.36,1.42c.06,1.28.22,3.26.62,4.74.54,1.98,2.99,5.34,5.52,5.67l.39-11.42c-2.55-.67-6.16-.42-6.16-.42Z"/>
                  <g>
                    <path class="cls-35" d="M136.46.46c-1.32,1.68-2.43,4.04-.75,5.35-1.91-1.14-1.04-3.92.12-5.81l.64.46Z"/>
                    <path class="cls-41" d="M144.32,7.73s2.82.5,2.94,4.11c.12,3.61-2.12,13.47-5.01,14.23s-6.05-2.84-6.64-4.85c-.62-2.09-.58-5.32-.58-5.32,0,0,.54-12.97,9.29-8.17Z"/>
                    <path class="cls-35" d="M131.95,20.71s.63.83,1.43-.16c0,0,1.86-2.29.47-4.19-1.39-1.89-3.52-4.5-2.94-7.79.57-3.29,4.55-3.05,4.55-3.05,0,0,.91-5.04,6.4-3.05,0,0,1.11-1.04,4.35-.73,3.24.31,2.38,2.05,4.27,1.85,1.89-.2,2.23-1.65,1.47-2.27,0,0,3.14,1.64,3.42,4.25.28,2.61-4.68,2.48-4.68,2.48,0,0,3.97.74.83,2.27-3.13,1.53-4.61,1.43-6.39-.49-1.78-1.92-2.75-2.41-3.77-2.04-1.02.37-.78,2.59-2.28,2.75-1.5.16-2.67,4.04-2.67,4.04,0,0-1.13-.45-1.22,2.32-.09,2.76.19,4.48-1.5,4.66-1.69.18-1.76-.83-1.76-.83Z"/>
                    <path class="cls-41" d="M135.79,11.34c-.87-.15-3.01.39-1.4,3.25,1.61,2.86,3.29.04,3.16-1.19-.13-1.23-1.09-1.94-1.76-2.06Z"/>
                    <path class="cls-35" d="M143.93,15.74c-.29,1.65-.37,3.26-.79,4.8-.38-.02-.77-.02-1.16,0,.64.25,1.17.38,1.41.45.02-.08.79-2.17.54-5.25Z"/>
                    <path class="cls-35" d="M143.28,15.22c-.1.01-.19-.06-.21-.16,0-.03-.16-.71-.99-1.1-.72-.34-2.56.03-3.2.19-.11.03-.21-.04-.24-.14-.03-.1.04-.21.14-.24.1-.03,2.47-.64,3.47-.17,1.02.48,1.2,1.34,1.21,1.38.02.11-.05.21-.15.23,0,0-.01,0-.02,0Z"/>
                    <path class="cls-51" d="M139.89,21.24s2.8,1.09,4.45.79c0,0-.36,1.27-1.34,1.58-.98.3-2.9-.38-3.11-2.36Z"/>
                    <path class="cls-24" d="M134.56,13.02s.06,1.97,1.02,2c.96.03,1.26-1.42.66-2.18-.61-.76-1.74-.39-1.68.18Z"/>
                    <path class="cls-35" d="M142.58,15.97c-.07.38-.36.64-.66.59-.3-.05-.49-.4-.42-.78.07-.38.36-.64.66-.59.3.05.49.4.42.78Z"/>
                    <path class="cls-35" d="M146.47,16.45c-.07.38-.36.64-.66.59-.3-.05-.49-.4-.42-.78.07-.38.36-.64.66-.59.3.05.49.4.42.78Z"/>
                    <path class="cls-35" d="M145.1,15.24c-.08.08-.08.2,0,.28.04.04.1.06.16.06.04,0,.09-.02.12-.06.22-.22.88-.79,1.34-.84.11-.01.23-.02.34-.02.02-.13.04-.26.05-.39-.14,0-.29,0-.43.02-.7.07-1.54.92-1.58.95Z"/>
                  </g>
                </g>
                <path class="cls-25" d="M162.73,94.3c-.75-1.77-.19-3.82,1.36-4.95l6.09-4.44c3.1-2.3,7.12-2.05,9.9.62l19.52,17.85-3.01,4.06-19.17-17.89c-1.11-1.04-3.48-1.93-4.79-1.17l-8.93,6.2c-.34.24-.81.1-.97-.28h0Z"/>
                <path class="cls-50" d="M194.45,91.72c0,.11-.02.22-.02.34v16.46s8.01,0,8.01,0v-16.8s-7.99,0-7.99,0Z"/>
                <rect class="cls-3" x="194.06" y="91.72" width="8.66" height="1.67"/>
                <path class="cls-28" d="M199.51,87.98v-.93c0-.42-.28-.8-.69-.87-.52-.09-.97.32-.97.82v.96c0,.29-.21.53-.5.59-1.55.29-2.74,1.58-2.89,3.17h7.99s0-.1,0-.1c0-1.5-1.05-2.75-2.45-3.06-.28-.06-.48-.3-.48-.58Z"/>
                <path class="cls-26" d="M193.57,93.92v15.48s9.74,0,9.74,0v-15.48s-9.74,0-9.74,0ZM196.76,106.95c0,.66-.54,1.2-1.2,1.2s-1.2-.54-1.2-1.2v-9.93c0-.66.54-1.2,1.2-1.2s1.2.54,1.2,1.2v9.93ZM199.64,106.95c0,.66-.54,1.2-1.2,1.2s-1.2-.54-1.2-1.2v-9.93c0-.66.54-1.2,1.2-1.2s1.2.54,1.2,1.2v9.93ZM202.51,106.95c0,.66-.54,1.2-1.2,1.2s-1.2-.54-1.2-1.2v-9.93c0-.66.54-1.2,1.2-1.2s1.2.54,1.2,1.2v9.93Z"/>
                <path class="cls-41" d="M168,88.14c-.3-.3-4.85-.56-4.85-.56h0c-2.88-.45-12.71-9.41-15.56-13.1-2.11-2.74-4.05-15.71-7.32-23.99-3.27-8.28-7.62-11.39-8.69-11.75-3.27-1.12-6.74-.28-7.87,5.26-1.13,5.54,13.21,32.87,16.41,36.77,2.45,2.99,16.03,11.63,22.42,11.78l1.56.61c.45.18.52.79.12,1.06h0s2.43.26,2.43-.31.31-.2.62-.51c.31-.31.54-.98.54-.98,0,0-.11-.54.79-1.06.89-.51-.23-2.86-.6-3.23Z"/>
                <path class="cls-43" d="M128.68,34.3s3.42-.76,6.58,2.9c3.16,3.66,8.59,20.52,8.59,20.52l-13.31,8.57s-7.29-16.2-7.29-22.59,3.77-9.4,5.44-9.4Z"/>
                <path class="cls-3" d="M123.25,43.71c.35-3.96,1.61-6.42,3.27-7.86,1.33-1.14,2.08-1.02,2.18-1.05,6.63.18,7.43,3.52,15.15,22.93-1.32-4.94-5.29-17.92-8.64-21.36-1.75-1.84-4.15-2.94-6.61-2.54h.08c-2.54.23-5.63,3.98-5.44,9.88Z"/>
                <path class="cls-24" d="M142.52,60.9s-4.36,1.1-3.84,1.84c.53.74,3.47-.03,3.47-.03,0,0-3.64,1.57-3.15,2.25.49.68,4-.75,4-.75,0,0-2.71,1.69-2.75,2.49-.04.8,3.9-.97,3.9-.97,0,0-2.26,1.41-2,1.78s2.87-.1,4.02-.5c1.15-.4.55-1.86-.34-3.11-.89-1.25-.41-.96-1.17-2.02-.76-1.06-2.14-.98-2.14-.98Z"/>
              </g>
              <path class="cls-32" d="M256.4,90.63c-.09,0-.18-.06-.21-.15-6.11-20.35-31.9-25.93-32.16-25.98-.12-.02-.19-.14-.17-.26s.14-.2.26-.17c.26.05,26.31,5.68,32.49,26.28.03.11-.03.24-.15.27-.02,0-.04,0-.06,0Z"/>
              <g>
                <path class="cls-41" d="M103.78,165.09s5.76,12.29,6.26,15.64c.5,3.35.43,5.01.43,5.01l13.99-2.43s-6.64.47-8.63-2.28c-1.99-2.76-5.63-18.6-5.63-18.6l-6.42,2.67Z"/>
                <path class="cls-7" d="M117.9,182.28c.1.32-.2,1.18-.73,1.47-.84.46-4.92-.75-7.04-1.04l.23,3.76c1.71.71,4.64-.66,8.06-.42,3.42.24,7.47-2.84,7.47-2.84,0,0-3.01.07-6.01-.33-.7-.09-1.36-.3-1.97-.6Z"/>
              </g>
              <g>
                <path class="cls-41" d="M84.62,164.45s2.42,13.36,2.05,16.72c-.37,3.36-.87,4.95-.87,4.95l14.15,1.22s-6.54-1.24-7.76-4.41c-1.22-3.17-.68-19.42-.68-19.42l-6.89.94Z"/>
                <path class="cls-7" d="M93.87,184.67c.02.34-.5,1.09-1.09,1.23-.93.23-4.57-1.99-6.54-2.81l-.74,3.69c1.47,1.12,4.65.55,7.9,1.65,3.25,1.11,7.94-.83,7.94-.83,0,0-2.93-.71-5.73-1.85-.65-.27-1.24-.64-1.75-1.08Z"/>
              </g>
              <g>
                <path class="cls-46" d="M107.61,131.46c-.19-.74-.11-42-2.13-56.97l-16.35.34-3.92,19.05,12.21,43.18c-.49,3.7-.3,6.69,1.02,11.76,1.09,4.18,5.55,18.15,8.23,24.54,1.44-.69,6.21-2.05,7.77-2.53-6.08-33.51-4.79-31.52-6.83-39.35Z"/>
                <path class="cls-47" d="M94.31,135.85l9.47-47.46-1.14-16.25h-9.27s-9.28,8.95-11.37,20.28c-2.09,11.33,1.78,43.63,1.78,43.63,0,0-.4,4.06-1.33,7.54-.97,3.64.75,26.43,1.85,32.45,1.68-.3,7.09-.54,8.68-.52-.61-12.1-1.13-31.11-.21-33.08.6-1.3,1.14-4.03,1.53-6.58Z"/>
              </g>
              <path class="cls-9" d="M104.91,44.5s-2.58-1.37-5.19-1.44c-2.83-.08-8.76,1.85-8.96,2.05-.4.4-.36,11.66-.36,11.66,0,0-4.17,20.69-5.26,25.56,0,0,16.95,11.24,26.49,7.08,0,0-2.14-24.39-1.26-27.81.88-3.41,0-7.57-2.1-11.33-2.09-3.75-3.38-5.77-3.38-5.77Z"/>
              <path class="cls-6" d="M107.8,48.37s-.68,2.6-.34,3.5c.34.89,4.47.45,4.17,2.68-.31,2.23-1.61,1.16-1.61,1.16,0,0,.29,1.71,1.41,1.24,1.12-.46,1.11-1.64,1.11-1.64,0,0,.78.87.37,1.69,0,0,1.26-.55,1.33-2.23s-.56-2.93-1.72-2.97c-1.16-.03-1.58-2.43-1.58-2.43l-3.13-1Z"/>
              <path class="cls-20" d="M108.71,48.08c2.41-.32,5.98,1.31,4.97,3.54l.92.39c1.03-3.15-3.02-4.83-5.91-4.1l.03.18Z"/>
              <g>
                <path class="cls-14" d="M103.09,46.93c-1.2-5.16-.3-13.67-.3-13.67l-6.14-2.24s-1.73,15.3-1.48,15.3c2.07,3.39,8.21,3.13,7.92.61Z"/>
                <path class="cls-24" d="M96.65,31.02l6.14,2.24s-.19,1.8-.28,4.26c-1.31-.57-2.62-1.16-3.61-2.26-.96-1.07-2.25-4.23-2.25-4.23Z"/>
                <path class="cls-27" d="M110.09,21.22s-4.65,5.67-6.57,6.37c-1.91.7-6.19,1.79-6.19,1.79,0,0-1.23,6.68-1.39,8.13,0,0-7.97.65-4.79-12.02,1.21-4.83,1.73-7.9,6.79-9.98,5.06-2.08,10.47,1.07,12.14,5.72Z"/>
                <path class="cls-14" d="M106.29,19.65s3.3,1.08,3.62,3.55c.32,2.46-.3,3.7-.14,4.89.15,1.19,0,3.41-1.46,6.82-1.47,3.41-6.47,1.48-9.34-.97-3.23-2.75-3.53-3.6-3.52-8.04,0-4.44,5.57-8.12,10.85-6.25Z"/>
                <path class="cls-8" d="M106.43,31.22c-.06-.38.48.07,1.38-1.14-.35-.54-.55-1.2-.59-1.79.32,1.2.97,1.67,1.05,1.78-.03.03-.73,1.18-1.64,1.31h0c-.1.01-.2-.05-.21-.15Z"/>
                <path class="cls-8" d="M104.33,28.44c.24.18.58.14.77-.09.19-.23.14-.56-.1-.74-.24-.18-.58-.14-.77.09-.19.23-.14.56.1.74Z"/>
                <path class="cls-8" d="M108.85,28.3c.24.18.58.14.77-.09.19-.23.14-.56-.1-.74-.24-.18-.58-.14-.77.09-.18.23-.14.56.1.74Z"/>
                <path class="cls-48" d="M106.29,27.15c-.62-.06-1.24,0-1.85.19-.31.1-.58.23-.85.36-.27.14-.54.28-.8.46.32,0,.62-.07.92-.16.3-.08.58-.23.84-.32.55-.2,1.14-.34,1.73-.52Z"/>
                <path class="cls-48" d="M110.39,27.06c-.46-.02-.92.06-1.38.23-.24.09-.44.2-.65.31-.21.12-.41.24-.61.39.24-.02.47-.09.69-.17.22-.08.44-.2.64-.29.42-.18.86-.31,1.31-.47Z"/>
                <path class="cls-48" d="M106.28,25.55l-.26.65s-1.65-.1-2.36.55c0,0,1.24-1.6,2.62-1.2Z"/>
                <path class="cls-48" d="M109.94,25.32l-.11.61s-1.65-.1-2.36.55c0,0,1.09-1.56,2.47-1.16Z"/>
                <path class="cls-51" d="M107.78,32.94s-1.88-.19-3.45-.77c0,0,1.44,2.24,2.32,2.14.88-.11,1.13-1.37,1.13-1.37Z"/>
                <path class="cls-1" d="M109.43,17.35s2.62.41,2.3,2.86c-.32,2.45-6.6,5.42-10.9,4.92-1.61-.19-1.58.74-2.2,1.35-1.02,1.01-1.9,2.25-.93,4.16,1.56,3.06,2.92,1.43,2.92,1.43,0,0-1.21,1.87-5,.89-3.79-.98-4.42-6.36-1.71-9.53,2.71-3.17,5.55-4.67,7.87-5.46,5.03-1.71,7.65-.63,7.65-.63Z"/>
                <path class="cls-14" d="M97.2,25.79c.44,0,2.37,1.24,1.89,2.57-.47,1.33-.96,1.43-2.2.84-1.24-.6-.81-3.4.31-3.4Z"/>
                <path class="cls-24" d="M98.51,27.51s-.96-1.11-1.41-.54c-.45.57-.27,1.52.39,1.82.66.3,1.67-.62,1.02-1.28Z"/>
              </g>
              <path class="cls-20" d="M110.93,47.02c4.17-.1,6.04,2.26,6.03,5.56l-1.49-.06c.07-.19.06-.9.02-1.19-.23-2.17-1.45-3.03-3.16-3.5-1.27-.33-3.09-.55-4.03.47l-.14-.1c.61-.85,1.79-1.13,2.78-1.18Z"/>
              <path class="cls-30" d="M106.56,47.97c-.03.73.53,1.34,1.24,1.36.71.02,1.32-.56,1.34-1.29.03-.73-.53-1.34-1.24-1.36-.72-.02-1.32.56-1.34,1.29Z"/>
            </g>
            <g>
              <path class="cls-42" d="M78.46,100.53s-3.2-.76-9.74,13.89c-6.53,14.65-11.7,31.44-9.01,34.34,2.69,2.9,32.98,10.79,39.29,4,6.31-6.8-9.23-54.98-20.55-52.22ZM83.63,113.28c-1.6,1.72-9.5,2.03-9.5-1.4,0-5.05,3.6-9.41,4.33-9.54,6.18-1.11,6.45,9.56,5.17,10.94Z"/>
              <path class="cls-10" d="M99.01,152.76c2.28-2.81.69-11.13-.08-14.8-2.14-9.82-11.42-38.89-20.47-37.43,11.98-3.58,27.73,45.17,20.55,52.22Z"/>
              <path class="cls-29" d="M86.05,113.28c-.47,1.52.71,34.63,3.06,32.09,2.35-2.54-3.06-32.09-3.06-32.09Z"/>
              <path class="cls-29" d="M87.83,114.42c0,2.54,6.2,36.66,7.51,32.72,1.31-3.93-7.51-32.72-7.51-32.72Z"/>
              <path class="cls-45" d="M64.75,126.04h3.53v1.9s.94-1.9.94-1.9h6s.91,7.71,2.85,9.8c1.94,2.09,3.04,12.96,5.04,13.72,2,.76,4.72,1.01,4.72,1.01l-1.88,4.78s-14.73-.98-19.09-1.74c-4.36-.76-7.53-6.21-7.53-7.36s5.41-20.22,5.41-20.22Z"/>
              <path class="cls-31" d="M78.07,135.84c-.85-.92-1.51-2.93-1.97-4.89-5.32.07-9.85.77-13.15,1.5-1.58,5.66-3.62,13.11-3.62,13.81,0,.78,1.48,3.56,3.8,5.49,4.78-2.42,12.26-4.27,18.26-5.48-1.08-3.6-2-9.02-3.32-10.43Z"/>
              <path class="cls-49" d="M62.28,134.85c3.13-1.09,8.28-2.54,14.09-2.83-.07-.25-.13-.5-.2-.75-5.54.3-10.48,1.64-13.65,2.7-.08.29-.16.58-.24.88Z"/>
              <path class="cls-49" d="M80.54,143.06c-9.57.98-16.15,4.89-19.08,7,.62.75,1.37,1.49,2.2,2.1,2.99-2.02,9.09-5.35,17.67-6.12-.27-.92-.53-1.94-.79-2.98Z"/>
              <path class="cls-38" d="M67.57,118.74s4.29-5.33,8.85,2.41c4.57,7.74.46,20.19,9.11,24.36,8.64,4.17,1.5,9.37,1.5,9.37l-21.46-1.9-6.24-4.85,8.24-29.4Z"/>
              <path class="cls-12" d="M100.07,150.58c-6.71,3.58-35.95,4.71-38.73-3.82-2.18-6.68,9.5-36.79,17.34-46.28-.07.01-.14.03-.22.05,0,0-3.2-.76-9.74,13.89-6.53,14.65-11.19,31.63-10.15,35.58,1.97,7.51,34.13,9.56,40.44,2.76.47-.51.82-1.25,1.06-2.18Z"/>
            </g>
            <path class="cls-41" d="M91.03,45.07s5.23.65,5.62,6.67c.39,6.02-14.61,15.35-15.97,19.14-1.36,3.8.38,26.31.38,26.87,0,.56,1.71,4.81,1.71,5.51,0,.69-1.29.21-1.8.69-.51.49-.88.69-1.56.69s-1.22-.25-1.95-.25-2.24-4.75-1.17-6.83c1.07-2.08-4.24-19.72-3.7-24.49.54-4.77,14.99-28,18.46-28Z"/>
          </g>
          <path class="cls-24" d="M102.01,30.28c0,.41.66.74,1.48.74s1.48-.33,1.48-.74c0-.41-.66-.74-1.48-.74s-1.48.33-1.48.74Z"/>
          <path class="cls-18" d="M151.81,59.62h0c.18,0,.33-.15.33-.34-.26-17.29-5.52-25.35-5.58-25.43-.1-.15-.31-.19-.46-.09-.15.1-.19.31-.09.46.05.08,5.2,7.99,5.46,25.07,0,.18.15.33.33.33Z"/>
          <path class="cls-18" d="M85.15,35.94c.08,0,.17-.03.23-.1.13-.13.13-.34,0-.47-4.61-4.61,2.02-16.65,2.63-17.4.11-.14.1-.34-.03-.46-.13-.12-.33-.12-.45,0-.24.24-2.14,3.51-3.38,7.33-1.64,5.06-1.38,8.87.75,11,.06.06.15.1.23.1Z"/>
        </g>
      </g>
    </g>
  </g>
</svg>