<?xml version="1.0" encoding="UTF-8"?>
<svg id="_レイヤー_2" data-name="レイヤー 2" xmlns="http://www.w3.org/2000/svg" viewBox="0 0 344.15 205.44">
  <defs>
    <style>
      .cls-1 {
        fill: #76a381;
      }

      .cls-1, .cls-2, .cls-3, .cls-4, .cls-5, .cls-6, .cls-7, .cls-8, .cls-9, .cls-10, .cls-11, .cls-12, .cls-13, .cls-14, .cls-15, .cls-16, .cls-17, .cls-18, .cls-19, .cls-20, .cls-21, .cls-22, .cls-23, .cls-24, .cls-25, .cls-26, .cls-27, .cls-28, .cls-29 {
        stroke-width: 0px;
      }

      .cls-2 {
        fill: #00648d;
      }

      .cls-3 {
        fill: #5d3d68;
      }

      .cls-4 {
        fill: #1b2c75;
      }

      .cls-5 {
        fill: #37183d;
      }

      .cls-6 {
        fill: #4b9095;
      }

      .cls-7 {
        fill: #1c2447;
      }

      .cls-8 {
        fill: #dc58ab;
      }

      .cls-9 {
        fill: #eeae1a;
      }

      .cls-10 {
        fill: #1b2b5c;
      }

      .cls-11 {
        fill: #1a264f;
      }

      .cls-12 {
        fill: #e06261;
      }

      .cls-13 {
        fill: #274399;
      }

      .cls-14 {
        fill: #ea5d58;
      }

      .cls-15 {
        fill: #63bdc5;
      }

      .cls-16 {
        fill: #1d2c6f;
      }

      .cls-17 {
        fill: #ec8e26;
      }

      .cls-18 {
        fill: #3f8e75;
      }

      .cls-19 {
        fill: #ec7171;
      }

      .cls-20 {
        fill: #e67cbc;
      }

      .cls-21 {
        fill: #7194cd;
      }

      .cls-22 {
        fill: #94b3de;
      }

      .cls-23 {
        fill: #f08d8d;
      }

      .cls-24 {
        fill: #efae1a;
      }

      .cls-25 {
        fill: #fff;
      }

      .cls-26 {
        fill: #f9d587;
      }

      .cls-27 {
        fill: #62366c;
      }

      .cls-28 {
        fill: #4f74b9;
      }

      .cls-29 {
        fill: #352579;
      }
    </style>
  </defs>
  <g id="pc">
    <g>
      <path class="cls-1" d="M0,164.08c0-19.21,123.35-13.36,127.32-36.66,10.21-59.99,216.83-2.03,216.83,17.18s-77.01,34.78-172,34.78S0,183.29,0,164.08Z"/>
      <path class="cls-1" d="M63.21,192.88c0,1.99-5.05,3.6-11.28,3.6s-11.28-1.61-11.28-3.6,5.05-3.6,11.28-3.6,11.28,1.61,11.28,3.6Z"/>
      <path class="cls-1" d="M130.87,196.63c0,4.86-12.34,8.81-27.57,8.81s-27.57-3.94-27.57-8.81,12.34-8.81,27.57-8.81,27.57,3.94,27.57,8.81Z"/>
      <path class="cls-18" d="M278.09,126.12s65.37,16.34,42.03-25.68c-23.35-42.03-63.62,0-63.62,0,0,0,18.68-12.26,4.09-23.35-14.59-11.09-28.02,19.26-28.02,19.26,0,0-32.69-28.02-26.27-5.84,6.42,22.18,24.51,35.6,24.51,35.6h-53.7s28.02-50.2-6.42-30.35c0,0-21.6-46.11-24.51-13.42,0,0-37.55-7.5-25.49,12.3,0,0-59.73,6.7-15.37,34.27,44.36,27.56,172.77-2.79,172.77-2.79Z"/>
      <g>
        <path class="cls-13" d="M136.01,91.8c.69-.1,1.56-.01,2.11.47.61.52.62,1.32.48,2.15-.01-.76-.06-1.48-.67-1.84-.49-.3-1.23-.24-1.76-.05l-.16-.73Z"/>
        <path class="cls-13" d="M134.54,94.1c1.35-.79,3.66-1.69,4.1-.08h0c-.53-1.5-2.65-.47-3.9.39l-.19-.31Z"/>
        <path class="cls-19" d="M235.93,26.02c-2.56-4.96-1.79-13.65-.55-15.61,1.14-1.8,1.08-3.42,1.92-4.75.41-.64.39-.87.37-.93-.02-.07-.22-.1-.57,0-.62.17-.83,2.21-1.41,2.37-.13.03-.29-.02-.35-.23-.21-.77.93-6.07.48-6.17-.34-.08-.36.9-.37.93-.45,3.28-.65,4.36-1.13,4.1-.07-.04-.12-.1-.15-.2-.16-.61.57-5.04,0-5.52-.14-.12-.35,1.08-.36,1.11-.08.53.01,4.11-.44,4.37-.85.5-.25-4.61-1.01-4.4-.44.12-.04,1.65,0,2.41.07,1.56.07,1.94-.15,2.08-.42.27-.78-.73-1.07-1.38-.22-.51-.63-1.44-.85-1.62-.29.53.57,2.39.81,2.95.46,1.05.43.78.96,4.27.2,1.3.23.91,0,1.77-1.18,4.43-2.33,10.38-1.13,14.8.96,3.55,6.6,8.72,9.05,10.47,1.44-1.48,2.27-4.01,3.8-5.42-2.36-.87-6.87-3.49-7.86-5.4Z"/>
        <polygon class="cls-17" points="243.32 28.64 238.22 37.82 249.42 45.04 257.77 37.82 243.32 28.64"/>
        <path class="cls-14" d="M239.38,102.09l-2.74,6.97s-5.17,17.35-7.2,26.23c-2.03,8.88-2.94,11-2.94,11,0,0-.36,1.71-2.43,2.09-.84.16-1.85-.22-2.82-.36-1.02-.15-2.02-.06-3.41.08-.51.05-.19-.3.46.35,0,0,7.67,3.21,8.45,3.39,1.91.44,2.11-1.76,2.84-4.47.72-2.69,12.43-31,12.43-31l4.56-10.04-7.2-4.25Z"/>
        <path class="cls-3" d="M228.88,150.21h0s-6.03-.6-7.63-2.19c-1.43-.36-3.06-.82-4.6-.66-.51.05.44.89,1.3,1.44,0,0,8.01,3.28,8.79,3.46,1.2.27,1.72-.65,2.13-2.04Z"/>
        <path class="cls-19" d="M249.25,109.42v5.96l10.08,30.31c.2.62.21,1.28.02,1.9-.51,1.66-1.58,4.84-2.28,4.84-.95,0-1.9,1.04-1.9,1.04l4.32.31,4.26-6.39c.7-1.09.35-1.94-.64-2.78l-.7-.59c-.18-.22-6.06-30.41-6.06-30.41l2.21-8.25-9.31,4.05Z"/>
        <path class="cls-14" d="M123.18,59.81s3.85.8,5.63.8,1.29-.52.83-.52-3.39-.57-3.39-.57l-3.08.29Z"/>
        <path class="cls-14" d="M132.31,56.14c-.39.42-2.94.34-2.94.34,0,0,1.97-.36,2.39-.82.42-.46.05-.8-.26-.46-.31.34-2.93.72-3.52.51-.59-.21-.49-.88-.23-.88s1.86.26,1.56-.07c-.3-.33-1.25-.87-2.12-.69-.47.1-1.28.49-1.92.83-.17,0-.34.01-.51.02-1.18.08-4.67-1.41-8.78-3.76-4.11-2.35-13.24-5.23-15.61-6.72l-5.41-3.03c-1.48-.83-3.42,1.77-2.86,3.49.93,2.88,3.01,4.88,6.82,5.48,6.08.95,12.53,2.2,14.27,3.24,1.75,1.04,8.03,2.65,10.38,3.44.86.29,1.75.41,2.51.4.41,0,1.51.1,2.56,0,1.52-.15,3.08-.54,3.55-.74.8-.34.51-1.01.12-.58Z"/>
        <path class="cls-14" d="M127.44,56.7s1.28.13,2.63.23c1.29.09,2.65.15,2.62.45-.04.3-1.71.08-3.3.13-1.74.05-3.33-.23-3.33-.23l1.38-.57Z"/>
        <path class="cls-14" d="M101.81,72.36l14.85,33.54c.41.92.5,1.95.27,2.93l-9.07,36.2s1.17,3.34,1.95,5.01c.78,1.67,2.18,1.19,1.68,1.69-.5.5-3.13.26-3.8.26s-.47-3.51-1.81-3.51-1.58-2.46-.95-3.11c.35-.36.69-.82.89-1.54.56-2,1.75-31.11,2.34-33.17.66-2.33,1.39-2.89,1.39-3.67s-16.39-23.01-16.39-27.24,4.76-9.05,8.66-7.38Z"/>
        <polygon class="cls-6" points="112.92 89.93 102.04 97.9 91 81.36 98.97 69.75 104 69.75 112.92 89.93"/>
        <path class="cls-19" d="M104,69.75c.46-7.37-.23-14.76-.82-17.46-.53-2.43-1.11-5.27-2.76-7.09-1.37-1.51-4.18-2.95-4.18-2.95,0,0-7.99-2.43-10.35-.87-2.56,1.69,1.68,12.21,1.68,12.21.42,1.2.82,2.22,1.83,3.47,2.58,3.17,6.62,7.98,6.62,10,0,.08-.02.17-.03.26l8,2.53s0-.06,0-.09Z"/>
        <path class="cls-19" d="M95.99,67.31c-.32,2.93-5.9,9.03-6.64,10.54-.76,1.56.85,26.9.85,26.9,0,0-.66-1.9-1.9-2.85-.75-.57-19.1-9.91-19.1-9.91,0,0-.71-.95-1.48-1.73-.78-.78-2.15-.35-2.15.24s.3,3.41-.3,4.6c-.59,1.19,1.19,5.12,2,5.12s.04-5.22.74-5.93c.71-.71,22.78,18.47,24.79,18.91,2,.45,6.46-16.7,8.91-29.54.96-5.01.7-9.21,2.3-13.84l-8-2.53Z"/>
        <path class="cls-2" d="M67.27,100.23c.43,0,.42-1.43.41-2.9-.08.04-.17.07-.27.07-.59,0-.96-1.47-.96-3.19,0-1.22.96-2.83,1.52-3.68-.08-.09-.17-.18-.26-.26-.78-.78-2.15-.35-2.15.24s.3,3.41-.3,4.6c-.59,1.19,1.19,5.12,2,5.12Z"/>
        <path class="cls-2" d="M104.93,145.36l-1.87,1.9s1.55,1.18,2.04,1.67c.49.49.94,2.65,1.41,3.12.47.47,5.49.3,5.49-.16s-2.04-1.41-2.04-1.41c0,0-.55.34-1.61.09-1.06-.26-1.03-1.55-1.49-2.39-.46-.83-1.93-2.82-1.93-2.82Z"/>
        <path class="cls-25" d="M93.13,32.92c.03.16.99.34,1.69-.03l-.02.53s-1.18.05-1.67-.5Z"/>
        <path class="cls-4" d="M56.94,87.68c3.29-3.98,7.91-3.72,7.96-3.71.15,0,.14.24-.02.23-.05,0-4.55-.26-7.76,3.63-.04.05-.11.06-.16.02-.05-.04-.05-.12-.02-.16Z"/>
        <path class="cls-4" d="M54.27,85.58c4.17-4.36,11.54-3.63,11.61-3.62.16.02.13.2-.02.19-.07,0-7.32-.72-11.41,3.55-.04.04-.11.05-.16.01-.05-.03-.06-.09-.02-.13Z"/>
        <path class="cls-4" d="M79.03,110.32c-.11-.11.05-.27.16-.17.12.11,11.66,11.23,18.42,7.68.14-.07.24.13.11.2-5.49,2.89-14.3-3.44-18.69-7.72Z"/>
        <path class="cls-16" d="M84.07,23.88c-.17-.01-.28-1.26-1.35-2.51-1.07-1.25-2.86-1.68-4.31-.44-1.45,1.24-.09,1.18-1.13,2.68-1.04,1.49-1.86-.02-2.26,1.48-.41,1.5.87,1.47.24,2.44-.63.97-1.68-.55-2.03.45-.35,1-.44,2.6,1.17,2.25s2.17.57,2.52,1.64c.34,1.06,2.6,1.64,2.72.08,0,0,.23-.15.6.59.38.73,1.37.38,1.43.34.06-.05.24-.15.86-2.24.62-2.09,3.33-1.69,2.21-4-1.12-2.31-.67-2.75-.67-2.75Z"/>
        <path class="cls-9" d="M83.46,23.7s1.62-.35,1.54.61c-.08.97-1,1.47-1.48,1.95-.49.49-.73.77-.94.95-.2.17-.08-1.04-.04-1.63.05-.59.91-1.89.91-1.89Z"/>
        <path class="cls-16" d="M83.87,23.64s-.21-.22.28-1.65c.49-1.42,2.46-1.4,2.46-1.4l-.41-.96s-1.87-.36-2.34,1.5c-.47,1.86,0,2.51,0,2.51Z"/>
        <path class="cls-19" d="M91.27,37.37s.79,3.53,2.4,4.77c0,0-.05.66-2.91,1.12-2.86.46-3.89-.98-3.89-.98,0,0-.76-4.92-1.47-6.74-.6-1.56-.71-3.16-.71-3.16l6.57,4.98Z"/>
        <path class="cls-14" d="M84.7,32.39l6.57,4.98s.07.28.19.7c-5.17,2.24-6.76-5.68-6.76-5.68Z"/>
        <path class="cls-19" d="M90.33,25.16c.2.12,2.18,1.96,2.41,3.11.24,1.16-.71,2.52-.44,2.84.27.32.96,1.27,1.71,1.68,0,0-.01.34-.71.61,0,0,0,.45.19.67.19.22.15.34.09.43-.05.07-.26.22-.26.22l-.22.44s.09.05.07.32c-.02.27-.42.36-.42.36,0,0-.2.12-.23.58-.04.46.05,1.11-1.47,1.25-1.14.1-5.05-1.4-5.92-3.08-.72-1.39-.82-5.3-.36-6,.65-.98,4.35-4.17,5.56-3.43Z"/>
        <path class="cls-25" d="M92.22,34.66s.33.39.87.5l.22-.44s-.71.16-1.1-.06Z"/>
        <path class="cls-13" d="M90.34,23.42s1.96.06,3.4,1.24c1.44,1.18,2.63,2.87,1.49,4.65-1.14,1.78-2.25,1.4-2.25,1.4,0,0,1.13-1.06.67-1.36-.45-.29-1.06.38-1.06.38,0,0,0-.97-.42-1-.42-.03-1.72,1.25-1.72,1.25,0,0-.19-1.92-.8-1.4-.61.52-.9,1.12-1.9,1.97-.99.85-1.68,2.37-.86,3.32.82.96,1.43.61,1.43.61,0,0-.36.84-1.16.61s-1.05-1.02-1.05-1.02l.37,1.17s-.93-.13-1.36-1.27c-.44-1.14.98-3.93.4-4.32s-.87,3.5-.26,5.5c0,0-.85-1.96-1.94-2.04-1.09-.09-2.4.1-2.51-2.53-.11-2.62,3.57-4.49,4.17-6.29.6-1.8,4.23-3.14,5.34-.9Z"/>
        <path class="cls-19" d="M85.74,30.73s.24-1.77-.85-1.4c-1.09.37-.95,2.99-.03,2.67.79-.27.88-1.27.88-1.27Z"/>
        <path class="cls-14" d="M85.61,30.58s-.23-.72-.62-.56c-.39.17-.62,1.5-.21,1.64.41.13.86-.54.83-1.08Z"/>
        <path class="cls-27" d="M82.76,35.86s.03-.05.02-.08c-.01-.04-.05-.07-.09-.06-4.95,1.27-8.36-2.63-8.4-2.67-.03-.03-.08-.04-.11,0h0s-.04.08,0,.11c.03.04,3.5,4.01,8.55,2.72.01,0,.02,0,.03-.02Z"/>
        <path class="cls-27" d="M145.96,49.16s0-.06-.03-.07c-.03-.02-.08-.02-.11.02-2.91,4.2-8.04,3.5-8.09,3.49-.04,0-.08.02-.09.06h0s.02.08.06.09c.05,0,5.28.73,8.24-3.55,0,0,.01-.02.01-.03Z"/>
        <path class="cls-13" d="M92,31.42l.11-.42s.12.17.06.38c0,.03-.02.06-.03.08-.04-.02-.09-.04-.14-.04Z"/>
        <path class="cls-11" d="M91.27,31.83c.46-.82,1.61-1.04,1.63-1.51-.02.19-.63.43-.92.61-.32.22-.62.51-.71.9Z"/>
        <path class="cls-15" d="M95.92,67.66l8.09,2.09-2.04,16.17-2.03,13.32s-14.96-3.45-14.32-3.45.92-14,2.36-17.94c1.31-3.57,7.94-10.19,7.94-10.19Z"/>
        <path class="cls-24" d="M96.24,42.25s-1.35-.69-3.25-.82c.96,1.17,3.8,4.53.98,5.04-2.84.51-6.81-3.77-8.02-5.17-.02.02-1.46,1-1.95,1.4-4.37,3.56,1.64,10.61,1.64,10.61,1.69,2.9,9.78,12.48,9.78,13.64,0,.08-.62,1.06-.63,1.15l9.2,1.74s0-.06,0-.09c.36-5.79.33-20.24-3.58-24.55-1.37-1.51-4.18-2.95-4.18-2.95Z"/>
        <path class="cls-19" d="M269.48,21.13c-1.45-5.4-7.86-11.3-10.1-11.92-2.06-.57-3.1-1.81-4.62-2.22-.73-.2-.87-.38-.9-.43-.03-.07.1-.22.42-.39.57-.29,2.1,1.07,2.64.8.12-.06.2-.21.1-.41-.36-.71-4.77-3.86-4.51-4.25.2-.29.87.43.9.44,2.54,2.12,3.41,2.79,3.6,2.27.03-.07.02-.16-.03-.24-.29-.56-3.82-3.35-3.72-4.07.03-.18.99.57,1.01.58.42.34,2.75,3.05,3.27,2.94.96-.2-2.92-3.57-2.21-3.93.4-.21,1.14,1.19,1.63,1.78,1,1.2,1.26,1.48,1.52,1.44.5-.08.09-1.07-.14-1.74-.18-.53-.5-1.49-.46-1.77.57.2,1.19,2.15,1.38,2.72.37,1.09.21.86,2.16,3.81.73,1.1.45.83,1.19,1.31,3.85,2.49,8.7,6.11,10.8,10.19,1.68,3.27.93,8.83.29,11.77-2.06-.12-3.53-1.17-5.4-2.15,1.16-2.23,1.73-4.44,1.18-6.52Z"/>
        <path class="cls-28" d="M244.69,74.64l-1.35,2.04-9.42,28.95s9.44,4.31,12.45,3.73l7.45-25.4-9.13-9.32Z"/>
        <path class="cls-21" d="M264.58,80.21c-.15.74-4.9,30.35-4.9,30.35,0,0-7.71,3.06-11.76.88l1.62-29.92,15.04-1.32Z"/>
        <polygon class="cls-22" points="250.64 81.53 249.01 111.44 251.64 81.74 250.64 81.53"/>
        <path class="cls-24" d="M256.41,36.93c1.74.06,5.88-.14,7.24.67,7.66,4.6,5.3,19.03,5.3,19.03l-2.87,28.64s-21.27,1.67-27.92-7.58c0,0,10.26-41.05,18.25-40.76Z"/>
        <path class="cls-4" d="M232.51,57.79c.15-.02.12-.24-.03-.22-3.66.45-6.61-.41-8.79-2.55-5.5-5.41-4.28-17.36-4.26-17.48.02-.15-.21-.17-.22-.02-.01.12-1.25,12.17,4.33,17.66,2.41,2.37,5.56,3.03,8.97,2.61Z"/>
        <path class="cls-4" d="M277.63,20.28c.23-5.57-2.64-9.14-2.68-9.18-.09-.1-.24.02-.16.13.04.05,3.78,4.72,2.29,11.71-.03.13.17.17.2.04.2-.94.31-1.84.34-2.69Z"/>
        <path class="cls-25" d="M256.35,38.51c-1.4.56-2.81,1.93-3.74,3.12-2.86,3.76-3.57,6.89-4.67,10.62-1.23,5.31-2.74,16.9-1.59,22.52-.79-6.17,1.05-19.77,2.8-25.36l.37-1.16c1.38-3.89,2.62-5.56,2.58-5.49.82-1.41,2.75-3.6,4.25-4.25Z"/>
        <g>
          <path class="cls-5" d="M262.38,32.46c.16-.12,2.14-5.5,2.14-5.5,0,0,1.31-4.04.42-4.68-.89-.64-3.02-2.91-4.86-2.88-1.84.02-3.07.64-3.23.76-.16.12-1.33,2.25-1.33,2.25,0,0,.55-.73.87,1.88.32,2.61,5.99,8.17,5.99,8.17Z"/>
          <path class="cls-19" d="M257.73,32.38c.23.67-2.52,4.84-1.05,6.02.47.38,6.92,3.59,6.97-.8.04-4.38-.44-9.52-.44-9.52l-5.48,4.3Z"/>
          <path class="cls-14" d="M263.45,31.23c-.83,3.02-4.53,6.43-7.07,5.14.39-1.61,1.5-3.54,1.35-3.98l5.48-4.3c0,.06.12,1.26.24,3.14Z"/>
          <path class="cls-19" d="M263.37,24.07c.7,1.73.78,4.93-.8,7.41-1.58,2.48-3.79,3.81-5.4,2.65-1.61-1.16-2.17-8.81-1.04-10.82,1.12-2.01,6.17-1.86,7.24.77Z"/>
          <path class="cls-27" d="M263.47,31.42s.33-2.52,1.24-3.16c.92-.64,1.33-1.03,1.48-1.92.15-.89,3.23-1.6,2.71-3.03-.52-1.44-2.94-2.03-4.2-4.52-1.26-2.49-2.6-3.84-5.45-2.81-2.85,1.03-3.22,2.86-3.22,2.86,0,0-1.26-.18-2.01,1.42-.75,1.6-.18,2.47.32,3.19,0,0-.13-2.07.55-1.95.69.12.03,2.43.03,2.43,0,0,1.02-.91,2.09-2.3,1.08-1.39.83.2.53,1.93-.3,1.73,2.1.02,3.17-1.26s2.62-.18,3.21,1.56c.59,1.74-1.81,4.59-.43,7.58Z"/>
          <path class="cls-19" d="M262.88,26.84s.98-1.83,1.52-1.07.13,3.1-.98,3.17c-1.11.06-.54-2.1-.54-2.1Z"/>
          <path class="cls-14" d="M263.45,26.95s-.05-1.04.49-.71c.55.32.02,2.01-.48,2-.5-.02-.02-1.28-.02-1.28Z"/>
          <path class="cls-10" d="M257.72,26.67c-.19.48-.31.98-.38,1.49-.15,1.11.03,1.57.04,1.64.12-.03.45-.09.88-.22-.28,0-.55.02-.83.05l.09.07c-.06-.99.11-2,.2-3.02Z"/>
          <path class="cls-13" d="M259.09,26.89c-.05.31.08.6.3.64.22.04.44-.18.5-.5.05-.31-.08-.6-.3-.64-.22-.04-.44.18-.5.5Z"/>
          <path class="cls-13" d="M256.07,26.55c-.05.31.08.6.3.64.22.04.44-.18.5-.5.05-.31-.08-.6-.3-.64-.22-.04-.44.18-.5.5Z"/>
          <path class="cls-10" d="M260.8,26.04s-.48-.83-1.25-.97c-.77-.13-.53.53-.35.56.18.03,1.63.24,1.6.4Z"/>
          <path class="cls-10" d="M257.09,24.77s-.91.32-1.08.76c0,0,.97-.12,1.14-.36.17-.24-.06-.4-.06-.4Z"/>
        </g>
        <path class="cls-19" d="M130.6,58.6c-.46.46-3.51.37-3.51.37,0,0,2.34-.39,2.85-.89.5-.5.06-.86-.31-.5-.36.36-3.49.79-4.19.56-.7-.23-.58-.96-.28-.96s2.21.28,1.86-.08c-.35-.35-1.49-.94-2.53-.75-.56.1-1.52.53-2.29.9-.2,0-.4.01-.6.02-1.41.09-5.57-1.53-10.45-4.08-4.89-2.54-15.77-5.67-18.58-7.28l-6.44-3.28c-1.76-.9-4.07,1.92-3.41,3.78,1.11,3.12,3.59,5.29,8.12,5.93,7.24,1.03,14.92,2.39,17,3.52,2.08,1.13,9.56,2.87,12.37,3.73,1.02.31,2.09.45,2.99.43.48,0,1.8.11,3.05,0,1.81-.16,3.67-.59,4.23-.81.95-.37.6-1.09.14-.63Z"/>
        <path class="cls-23" d="M111.14,53.21c-2.37-1.1-4.83-1.94-7.29-2.81-13.22-4.59-9.32-3.39-14.48-5.9l-3.45-1.81c-1.13-.5-2.45.62-3.02,1.74.26-.6.66-1.14,1.19-1.54,2.14-1.67,3.34,1.1,12.54,4.5,5.16,1.93,10.48,3.62,14.51,5.82Z"/>
        <path class="cls-8" d="M144.25,38.81c0,4.86-3.94,8.81-8.81,8.81s-8.81-3.94-8.81-8.81,3.94-8.81,8.81-8.81,8.81,3.94,8.81,8.81Z"/>
        <path class="cls-26" d="M267.75,26.96s-3.3,8.89-3.58,12c-.28,3.11,1.68,12.1,3.58,12.1s8.45-18.82,8.45-22.43l-8.45-1.68Z"/>
        <path class="cls-25" d="M257.28,31.13l.27,1.55s1.5-1,2.4-1.9l-2.67.34Z"/>
        <g>
          <path class="cls-14" d="M141.27,126.7l2.78,11.57-.87,10.82s1.13.55,2.42.82c1.29.27.77,1.32-2.37.8-1.01-.16-1.95,0-2.3-.08-.38-.08-.06-1.08-.1-1.51l-.83-8.82-5.37-16.27,6.65,2.66Z"/>
          <polygon class="cls-7" points="143.23 123.72 145.32 131.95 137.71 133.37 134.32 123.72 143.23 123.72"/>
          <path class="cls-19" d="M134.42,124.66c-6.1,3.41-.89,11.22-1.07,12.25,0,0-7.34,9.67-7.46,10.37,0,0,1.02.92,1.93,2.16,1.07,1.46,2.09,3.25,2.79,2.67.83-.68-1.32-3.2-1.32-5.27,0-.36,7.74-7.02,8.38-7.6.76-.69.92-9.46.92-9.46l-4.16-5.13Z"/>
          <path class="cls-12" d="M137.44,138.17c-.21-.48-1.75-1.18-1.91-.02-.16,1.15.3,2.51,1.02,1.99.72-.52,1.11-1.47.89-1.97Z"/>
          <polygon class="cls-29" points="132.11 122.71 129.53 132.46 138.58 133.45 139.41 128.89 143.46 123.4 132.11 122.71"/>
          <path class="cls-19" d="M149.1,108.86c2.27-.79,4.92-3.17,5.08-4.3.15-1.04.63-1.58.74-2.35.05-.37.12-.44.15-.46.03-.02.1.05.19.21.15.28-.36,1.07-.22,1.34.03.06.1.1.18.04.29-.19,1.44-2.45,1.62-2.32.13.1-.14.44-.15.46-.8,1.3-1.04,1.75-.81,1.84.03.01.07,0,.1-.02.23-.15,1.27-1.96,1.59-1.92.08.01-.2.5-.2.52-.13.22-1.19,1.42-1.12,1.68.13.48,1.41-1.51,1.6-1.16.11.2-.46.59-.69.84-.47.52-.58.65-.55.78.06.25.47.03.75-.09.22-.1.62-.27.74-.25-.06.29-.87.63-1.11.73-.45.2-.36.12-1.55,1.14-.44.38-.34.23-.51.62-.89,1.97-2.23,4.46-3.9,5.56-1.34.88-5.83.89-7.13.61-.05-1.04-1.13-3.76-1.23-4.81,1.02.56,5.56,1.64,6.43,1.33Z"/>
          <path class="cls-17" d="M142.13,111.39s2.4,2.1,5.42,1.98l.88-4.76s-4.49-2.01-6.51-1.4c-2.02.61.21,4.18.21,4.18Z"/>
          <path class="cls-24" d="M143.79,106.64c-2.67-1.59-7.47-.96-8.51,5.04-.25,1.46-4.7,7.97-4.74,11.82,3.56.34,10.66.66,14.21,1.05-3.26-6.68,4.09-14.89-.96-17.9Z"/>
          <path class="cls-19" d="M121.83,99.91c-.01-.08.08-.12.12-.05.1.17.21.44.29.62.26.61.47.77.61.76.06-.12-.03-.36-.41-1.2-.17-.38-.41-.91-.41-1.01.11-.43.48.44.63.84.15.41.28.86.48.85.07,0-.05-.57-.27-1.24-.83-2.46-.15-1.77.18-.54.3,1.12.42,1.64.51,1.63.06-.09.02-.35-.15-1.14-.1-.46-.18-1.23-.13-1.35.13-.19.24.23.28.46,0,.02.36,2.43.74,2.48.39.06.26-.62.18-1.03-.08-.41.18-.73.3-.61.14.16-.11.69.06,1.35.17.66.38,1.66.39,1.92,0,.12.22,1.36.83,2.68.53,1.17,1.5,2.63,3.04,2.97.32.07.67.09,1.03.07.58-.04,7.51-1.17,8.11-1.4.29,1.95,0,3.09-1.07,4.52-.61.82-2.01,1.24-2.96,1.11-2.39-.35-6.61-1.02-6.92-1.21-1.47-.89-3-5.54-3.15-7.69-.49-.57-1.29-1.55-1.68-2.23-.38-.65-.58-1.25-.63-1.57Z"/>
          <path class="cls-26" d="M132.31,107.09l-.38,6.51s4.27.17,5.66-1.1c1.39-1.26,2.28-5.37,1.22-6.04-1.06-.66-6.5.62-6.5.62Z"/>
          <path class="cls-14" d="M140.39,103.38s-.65,2.52-1.12,2.8c0,0,2.69,2.24,4.18.28l.36-4.81-3.43,1.72Z"/>
        </g>
        <path class="cls-19" d="M138.9,101.52s-.06,3.12,1.84,4.32c1.72,1.08,4.04.04,4.66-2.02.63-2.06-.23-2.18.27-4.02.5-1.84-1.11-4.76-3.97-3.71-2.86,1.04-2.8,5.43-2.8,5.43Z"/>
        <path class="cls-13" d="M136.78,103.08s-5.06-6.82,1.8-9.35c.5-.18,1.26-1.25,2.4-1.58,1.14-.33,3.66-.52,4.17,1.42,0,0,1.31-.06,1.82,1.87.51,1.93,1.87,1.59,1.87,1.59,0,0-1.41,4.21-5.55,1.02,0,0-.57,1.05-1.6.72-1.03-.32-.65-.67-1.74.48-1.09,1.15-.43,3.99-.1,5.02.33,1.03-.57,2.75-2.73,1.59-1.01-.54-.34-2.79-.34-2.79Z"/>
        <path class="cls-19" d="M139.95,100.2s-.26-1.19-.91-.79c-.66.4-.57,2.64.14,2.59.71-.05.77-1.79.77-1.79Z"/>
        <path class="cls-14" d="M139.85,101s-.05-.97-.5-.69c-.45.28-.3,1.57.08,1.47.38-.1.42-.79.42-.79Z"/>
        <path class="cls-13" d="M143.48,102.17c-.29.12-.54.28-.75.5.86-.37.94-.68,1.34.14-.04-.38-.28-.76-.59-.64Z"/>
        <path class="cls-13" d="M141.18,100.06c-.18-.21.66-.69,1.41-.5.13.03.08.24-.04.21-.74-.19-1.22.3-1.23.3-.03.04-.1.04-.14,0Z"/>
        <path class="cls-13" d="M145.32,100.43c-.36-.74-.85-.41-.86-.65,0-.22.7-.13,1.03.55.03.05,0,.12-.04.14-.05.03-.1,0-.13-.04Z"/>
        <path class="cls-13" d="M141.97,100.97c.18-.01.35.01.49.06,0-.03,0-.06,0-.09-.02-.28-.26-.49-.55-.48-.29.02-.51.26-.5.55,0,.04,0,.08.02.11.14-.08.33-.14.54-.15Z"/>
        <path class="cls-13" d="M144.91,101.23c.18.03.34.1.47.18,0-.03.02-.06.02-.09.04-.28-.15-.55-.44-.6-.29-.06-.56.12-.6.4,0,.04,0,.08,0,.11.16-.04.35-.05.55,0Z"/>
        <path class="cls-13" d="M143.82,104.39c0,.47-.26.85-.58.85s-.58-.38-.58-.85.26-.85.58-.85.58.38.58.85Z"/>
        <path class="cls-20" d="M135.44,31.63c-3.17-.05-7.34,1.73-6.89,5.47.05.44.22.93.62,1.12,1,.47,2.62-1.25,3.34-1.79,1-.75,2.1-1.53,3.4-1.53.91,0,2.54-.45,2.42-1.64-.05-.51-.42-.96-.87-1.22-.45-.26-.97-.35-1.49-.39-.17-.01-.35-.02-.54-.03Z"/>
        <path class="cls-3" d="M259.41,152.41c-.88.6-2.17.03-2.35.03-.95,0-2.62,1.22-2.62,1.22l5.19.54,4.39-6.61c.7-1.09.07-2.13-.92-2.96,0,0-2.96,7.29-3.69,7.79Z"/>
      </g>
    </g>
  </g>
</svg>