<?xml version="1.0" encoding="UTF-8"?>
<svg id="_レイヤー_2" data-name="レイヤー 2" xmlns="http://www.w3.org/2000/svg" viewBox="0 0 750.95 280.5">
  <defs>
    <style>
      .cls-1 {
        fill: #000;
      }

      .cls-1, .cls-2 {
        stroke-width: 0px;
      }

      .cls-2 {
        fill: #fff;
      }
    </style>
  </defs>
  <g id="pc">
    <path class="cls-2" d="M0,68.38c0,80,73.12,144.86,163.33,144.86,12.04,0,23.77-1.17,35.06-3.36,20.57,25.29,51.93,41.47,87.08,41.47,19.07,0,37.01-4.77,52.73-13.16l2.04,42.3,46.4-42.27c17.23,9.75,37.59,15.41,59.42,15.41,33.06,0,62.77-12.93,83.31-33.51,9.22,1.83,18.9,2.82,28.89,2.82,61.97,0,112.2-37.52,112.2-83.79,0-3.19-.26-6.34-.73-9.44,48.57-25.1,81.22-71.79,81.22-125.25,0-1.5-.03-2.99-.08-4.47H19.32C6.99,20.37,0,43.65,0,68.38Z"/>
    <g>
      <path class="cls-1" d="M101.61,82.25c2.39.1,4.75.64,6.92,1.4.19-1.31.06-2.49-.45-3.35-.89-1.5,1.98-2.71,3.03-.73.7,1.28.8,3.19.32,5.29,1.66.8,3.16,1.75,4.4,2.71,2.01,1.56-.16,4.5-1.98,2.84-1.05-.96-2.2-1.82-3.48-2.58-1.18,2.39-3.19,4.78-6.06,6.47-2.23,1.31-3.83-1.18-1.75-2.46,2.39-1.47,4.05-3.44,5.04-5.39-2.36-.99-4.88-1.56-7.43-1.59-1.18,2.46-2.26,4.43-4.08,5.84-1.91,1.5-4.72,1.69-6.09,0-1.63-2.04-.45-5.36,3.22-6.98,1.69-.73,3.48-1.18,5.23-1.37,1.12-2.39,2.58-5.29,3.47-7.3.19-.45.29-.7-.19-.57-1.24.32-2.46.73-3.76.77-2.11.06-2.01-2.9-.1-3.03,1.28-.06,3.22-.54,4.59-.8,2.9-.57,4.18,1.31,2.74,3.64-1.34,2.23-2.62,4.82-3.76,7.21h.16ZM94.11,86.08c-.83.41-2.33,1.75-1.79,2.55.38.54,1.53.35,2.1-.1,1.05-.8,1.91-2.1,2.65-3.41-.83.13-1.79.38-2.97.96Z"/>
      <path class="cls-1" d="M138.22,89.88c0-1.47.22-2.36.16-3.79-.16-3.54-5.01-.54-5.9,1.05-.76,1.37-1.66,2.77-2.01,4.34-.57,2.46-1.28,2.62-1.91,2.71-1.12.16-2.62-.61-1.88-2.46,1.44-3.6,3.25-6.79,5.1-9.66s3.51-5.58,5.07-8.07c.54-.89,1.4-2.01,1.75-2.65,1.05-1.88,4.02-.29,2.97,1.72-.26.45-.48.8-.73,1.12-.25.32-.57.67-.92,1.08-1.53,1.72-2.55,3.06-3.38,4.24-.83,1.18-1.47,2.2-2.17,3.25-.22.32-.13.26.1.06,1.15-1.02,6.66-2.52,7.11,2.87.1,1.24-.16,2.33-.16,3.51,0,2.84,2.74,2.49,4.62.8,1.63-1.47,2.33-3,2.9-4.46.92-2.36,4.27-.73,3.06,1.66-.89,1.75-2.14,3.83-4.02,5.29-3.45,2.71-9.82,3.41-9.76-2.61Z"/>
      <path class="cls-1" d="M164.4,76.67c-1.95-.54-1.34-3.48.93-2.74,1.05.35,2.71.32,4.37-.1.32-1.05.48-2.07.64-3.22.29-1.88,3.09-1.53,3.03.29-.03.48-.22,1.18-.45,1.95.38-.19.73-.35,1.02-.54,1.44-1.02,3.45.96,1.4,2.42-.8.57-2.11,1.08-3.41,1.47-1.5,3.6-3.67,7.43-5.71,10.75-1.18,1.91-4.24.67-2.84-1.4,1.79-2.65,3.67-5.36,5.23-8.71-1.62.32-3,.19-4.21-.16ZM169.88,94.63c-2.96-1.5-3.32-4.94-.03-6.41,1.98-.89,4.15-.96,6.12-.61v-1.12c0-.8-.06-1.59-.1-2.39-.03-.64.03-1.53.16-2.14.38-1.75,3.19-1.34,2.87.57-.1.48-.19.83-.19,1.5,0,.73,0,1.53.03,2.46.03.61.1,1.28.13,1.98,1.69.7,3.09,1.69,3.89,2.55,1.82,2.01-.77,4.27-2.3,2.42-.48-.57-1.08-1.15-1.82-1.66-.93,2.55-4.91,4.78-8.77,2.84ZM170.9,90.45c-.86.45-.93,1.37.03,1.85,1.91.96,4.5.03,4.85-1.69.03-.1,0-.22.03-.32-1.63-.54-3.35-.61-4.91.16ZM178.01,78.68c-1.75.1-1.88-2.55.16-2.74,2.1-.19,4.34.19,5.87,1.12,2.17,1.31.51,3.95-1.05,2.97-1.5-.96-3.12-1.44-4.97-1.34Z"/>
      <path class="cls-1" d="M198.42,74.09c-1.66-2.04,1.47-3.76,2.74-1.95,1.37,1.95,2.81,4.78,3.73,7.43,1.72-1.21,3.54-2.36,5.61-3.51,2.17-1.21,3.83,1.85,1.37,3.09-3.25,1.66-6.54,3.51-9.06,5.64-3.16,2.68-3.25,5.07-.77,6.28,2.23,1.12,6.79.29,8.71-.41,2.68-1.02,3.63,2.65.8,3.44-2.52.7-7.85,1.34-11-.25-4.59-2.33-4.4-7.49.76-11.61.32-.25.61-.51.93-.73-.83-2.52-2.36-5.64-3.83-7.43ZM214.31,75.49c-.35-.54-1.75-1.85-2.36-2.2-1.53-.86-.06-2.61,1.34-1.88.8.41,2.3,1.47,2.9,2.3,1.08,1.47-.99,3.16-1.88,1.79ZM217.56,73.04c-.38-.54-1.82-1.75-2.42-2.07-1.56-.83-.16-2.61,1.28-1.95.83.38,2.33,1.4,2.96,2.2,1.12,1.44-.89,3.16-1.82,1.82Z"/>
      <path class="cls-1" d="M229.87,90.67c-1.15-1.63.93-3.83,2.65-2.07,2.71,2.77,7.88,2.55,12.69,1.18,2.65-.73,3.41,2.71.83,3.51-6.31,1.98-13.97.48-16.17-2.61ZM233.44,77.66c-2.52.48-2.93-2.9-.1-3.32,3.03-.45,7.53-.48,10.17.1,2.68.57,1.98,3.86-.61,3.32-2.96-.64-6.35-.7-9.47-.1Z"/>
      <path class="cls-1" d="M267.27,79.48c.32-.61.61-1.12,1.02-1.66.51-.67.35-.64-.26-.45-2.39.77-1.85.77-4.02,1.59-1.02.38-1.91.7-2.87.96-2.81.77-3.67-2.9-1.12-3.44.67-.16,2.52-.51,3.54-.77,1.56-.38,4.37-1.02,7.62-1.95,3.28-.92,5.87-1.69,8.67-1.88,1.98-.13,2.52,1.44,2.17,2.46-.19.54-.89,1.18-3.12,1.05-1.63-.1-3.63.51-4.72.89-1.79.64-3.41,2.55-4.11,3.73-2.81,4.69-.67,11.39,6.47,11.13,3.35-.13,3.57,3.64.19,3.6-9.63-.03-12.95-8.87-9.47-15.28ZM277.1,81.58c-1.69-.73-.41-2.71,1.15-2.14.89.32,2.62,1.21,3.35,2.01,1.31,1.4-.67,3.44-1.79,2.14-.45-.51-2.04-1.72-2.71-2.01ZM280.32,78.81c-1.72-.67-.48-2.71,1.09-2.2.89.29,2.62,1.15,3.38,1.91,1.34,1.34-.54,3.44-1.69,2.17-.45-.51-2.11-1.63-2.78-1.88Z"/>
      <path class="cls-1" d="M310.23,75.21l-3.09-.06c-.06.83-.1,1.69-.19,2.62h1.72c1.53.03,2.49.7,2.49,2.23v.16c-.22,5.49-.61,11.29-5.1,11.29-1.44,0-2.52-.45-2.52-1.63,0-.67.41-1.34,1.21-1.34.16,0,.35.03.54.1.25.06.51.13.73.13,2.39,0,2.49-5.13,2.52-7.85,0-.51-.32-.73-.83-.77-.32,0-.67-.03-1.05-.03-.51,3.38-1.5,6.95-3.64,9.6-.35.41-.8.61-1.24.61-.38,0-.77-.16-1.05-.38,1.95,2.49,4.78,3.22,9.92,3.22,3.51,0,7.37-.35,9.79-.54h.16c.99,0,1.53.77,1.53,1.53s-.48,1.5-1.59,1.59c-2.01.19-5.2.38-8.36.38-6.16,0-9.82-.41-12.95-3.92-1.88,2.23-3.41,3.76-4.43,3.76-.86,0-1.63-.83-1.63-1.66,0-.41.19-.86.73-1.18,1.59-.96,2.93-2.07,3.95-3.35.03-1.72.13-3.22.13-4.66,0-1.28-.06-1.47-1.28-1.47-.51,0-.89.03-1.37.03-1.28,0-1.5-.83-1.5-1.37,0-.7.45-1.44,1.24-1.44h1.88c2.3,0,3.92.25,3.92,3,0,1.34-.1,2.81-.13,4.27,3.06-3.92,3.51-8.64,3.7-12.92l-2.1.03h-.03c-.83,0-1.24-.64-1.24-1.28,0-.67.45-1.31,1.28-1.31h2.61l-.03-2.9c0-.92.73-1.4,1.47-1.4s1.47.48,1.47,1.4l-.03,2.9h2.39c.83,0,1.24.64,1.24,1.31s-.41,1.28-1.21,1.28h-.03ZM297.95,75.33c-.67-1.34-1.95-2.46-2.77-3.06-.38-.25-.54-.61-.54-.92,0-.7.77-1.37,1.63-1.37,1.02,0,4.59,2.9,4.59,4.37,0,.96-.89,1.75-1.75,1.75-.45,0-.86-.22-1.15-.77ZM320.53,85.22l-1.28-.03v.29c0,4.18-1.69,6.35-4.81,6.35-1.47,0-3.03-.35-3.03-1.56,0-.67.51-1.31,1.24-1.31.13,0,.29,0,.45.06.57.19,1.05.29,1.44.29,2.04,0,2.14-3.35,2.14-3.95v-.19l-4.18.06h-.03c-.8,0-1.18-.61-1.18-1.18,0-.61.38-1.21,1.18-1.21h.03l3.44.03c-.29-.38-.7-.7-1.24-.89-.42-.16-.61-.41-.61-.7,0-.57.64-1.18,1.5-1.18.16,0,.35.03.54.1.45-.48.99-1.28,1.15-1.47l.03-.03c0-.1-.1-.16-.22-.16-.99.03-2.46.03-3.7.1h-.06c-.57,0-.89-.38-.99-.8-.29.19-.61.29-.92.29-.67,0-1.28-.41-1.28-1.05,0-.25.1-.54.35-.86,1.53-2.01,2.71-4.91,3.19-7.05.16-.64.7-.92,1.28-.92.73,0,1.47.45,1.47,1.18,0,.35-.41,1.63-.89,2.81h4.72c.89,0,1.31.64,1.31,1.24,0,.64-.41,1.28-1.31,1.28h-5.87c-.29.57-.64,1.15-.96,1.69,1.02,0,2.27-.03,3.45-.03,1.91,0,3.54,0,3.54,1.56,0,.54-.29,1.28-2.46,3.44.38.41.64.89.86,1.44h1.75c.8,0,1.21.61,1.21,1.18,0,.61-.41,1.21-1.21,1.21h-.03Z"/>
      <path class="cls-1" d="M343.59,89.88c0-1.47.22-2.36.16-3.79-.16-3.54-5.01-.54-5.9,1.05-.76,1.37-1.66,2.77-2.01,4.34-.57,2.46-1.28,2.62-1.91,2.71-1.12.16-2.62-.61-1.88-2.46,1.44-3.6,3.25-6.79,5.1-9.66s3.51-5.58,5.07-8.07c.54-.89,1.4-2.01,1.75-2.65,1.05-1.88,4.02-.29,2.97,1.72-.26.45-.48.8-.73,1.12-.25.32-.57.67-.92,1.08-1.53,1.72-2.55,3.06-3.38,4.24-.83,1.18-1.47,2.2-2.17,3.25-.22.32-.13.26.1.06,1.15-1.02,6.66-2.52,7.11,2.87.1,1.24-.16,2.33-.16,3.51,0,2.84,2.74,2.49,4.62.8,1.63-1.47,2.33-3,2.9-4.46.92-2.36,4.27-.73,3.06,1.66-.89,1.75-2.14,3.83-4.02,5.29-3.45,2.71-9.82,3.41-9.76-2.61Z"/>
      <path class="cls-1" d="M376.66,79.48c.32-.61.61-1.12,1.02-1.66.51-.67.35-.64-.25-.45-2.39.77-1.85.77-4.02,1.59-1.02.38-1.91.7-2.87.96-2.81.77-3.67-2.9-1.12-3.44.67-.16,2.52-.51,3.54-.77,1.56-.38,4.37-1.02,7.62-1.95,3.29-.92,5.87-1.69,8.67-1.88,1.98-.13,2.52,1.44,2.17,2.46-.19.54-.89,1.18-3.12,1.05-1.63-.1-3.64.51-4.72.89-1.79.64-3.41,2.55-4.11,3.73-2.81,4.69-.67,11.39,6.47,11.13,3.35-.13,3.57,3.64.19,3.6-9.63-.03-12.95-8.87-9.47-15.28ZM386.48,81.58c-1.69-.73-.41-2.71,1.15-2.14.89.32,2.62,1.21,3.35,2.01,1.31,1.4-.67,3.44-1.79,2.14-.45-.51-2.04-1.72-2.71-2.01ZM389.7,78.81c-1.72-.67-.48-2.71,1.08-2.2.89.29,2.62,1.15,3.38,1.91,1.34,1.34-.54,3.44-1.69,2.17-.45-.51-2.11-1.63-2.78-1.88Z"/>
      <path class="cls-1" d="M408.55,90.67c-2.3-2.49-3.35-6.19-3.61-10.21-.13-1.82-.19-2.39-.16-3.54.06-2.01,3.16-2.42,3.25-.03.06,1.24-.06,1.31,0,2.77.13,3.35.73,6.51,2.52,8.23.83.8,1.24.89,1.95-.06.38-.54.83-1.37,1.05-1.88.86-1.85,3.51-.51,2.9,1.15-.32.89-.89,1.88-1.24,2.46-2.04,3.32-4.88,3.03-6.66,1.12ZM425.8,85.06c-.51-2.55-1.82-5.01-3.54-6.19-1.53-1.05.19-3.41,2.1-1.98,2.27,1.69,4.46,4.69,4.79,7.4.25,2.33-2.9,2.97-3.35.77Z"/>
      <path class="cls-1" d="M454.5,90.71c2.33-2.07,2.23-5.1.41-6.31-1.66-1.12-5.1-1.34-8.32.54-1.28.73-1.95,1.31-2.68,2.39-1.15,1.69-4.34-.19-2.36-2.14,3.51-3.48,6.09-5.93,9.63-10.3.35-.45.03-.32-.22-.19-.89.48-3,1.12-5.36,1.63-2.52.54-3-2.62-.83-2.87,2.14-.26,5.2-1.02,7.02-1.56,2.55-.73,4.66,1.53,3.06,3.32-1.02,1.15-2.29,2.39-3.57,3.57s-2.55,2.33-3.7,3.44c2.81-1.5,6.6-1.5,8.96-.1,4.59,2.74,3.09,8.36-.26,10.78-3.16,2.26-8.13,2.39-10.55.8-3.38-2.2-1.88-6.15,1.88-6.28,2.55-.1,4.94,1.44,5.04,4.31.61-.13,1.28-.51,1.85-1.02ZM447.71,89.75c-1.4.13-1.47,1.44-.45,1.98.73.38,1.79.51,2.68.48.03-1.47-.83-2.58-2.23-2.46Z"/>
      <path class="cls-1" d="M481.99,89.88c0-1.47.22-2.36.16-3.79-.16-3.54-5.01-.54-5.9,1.05-.76,1.37-1.66,2.77-2.01,4.34-.57,2.46-1.28,2.62-1.91,2.71-1.12.16-2.62-.61-1.88-2.46,1.44-3.6,3.25-6.79,5.1-9.66s3.51-5.58,5.07-8.07c.54-.89,1.4-2.01,1.75-2.65,1.05-1.88,4.02-.29,2.97,1.72-.26.45-.48.8-.73,1.12-.25.32-.57.67-.92,1.08-1.53,1.72-2.55,3.06-3.38,4.24-.83,1.18-1.47,2.2-2.17,3.25-.22.32-.13.26.1.06,1.15-1.02,6.66-2.52,7.11,2.87.1,1.24-.16,2.33-.16,3.51,0,2.84,2.74,2.49,4.62.8,1.63-1.47,2.33-3,2.9-4.46.92-2.36,4.27-.73,3.06,1.66-.89,1.75-2.14,3.83-4.02,5.29-3.45,2.71-9.82,3.41-9.76-2.61Z"/>
      <path class="cls-1" d="M509.7,93.45c-.96,2.14-4.34,1.21-3-1.5,1.37-2.81,3.64-7.65,5.58-13.84-1.69.19-3.32.13-4.66-.45-1.63-.7-1.31-3.6,1.08-2.74,1.34.48,2.9.48,4.4.19.19-1.18.06-2.04-.03-3.44-.13-1.82,2.87-1.91,3.19-.16.13.8.13,1.66.03,2.55.45-.22.83-.45,1.21-.67,1.66-1.08,3.64,1.56,1.24,2.74-.89.45-2.04.92-3.22,1.28-2.01,6.98-4.27,12.5-5.84,16.04ZM517.45,92.01c-1.37-1.53.61-4.05,2.26-2.36,1.63,1.66,3.57,1.5,7.3,1.18,2.33-.19,2.52,2.87.41,3.28-4.62.92-8.58-.54-9.98-2.1ZM521.06,80.88c-1.66.61-2.65-2.01-.54-2.74,1.63-.57,4.53-.96,7.65.16,2.14.77,1.28,3.57-.73,2.9-1.79-.61-4.69-.96-6.38-.32ZM524.66,73.48c-1.63-.67-.35-2.62,1.12-2.07.86.32,2.46,1.15,3.16,1.91,1.24,1.34-.64,3.28-1.69,2.04-.41-.51-1.95-1.59-2.58-1.88ZM527.53,70.68c-1.62-.64-.48-2.58,1.02-2.1.86.29,2.49,1.12,3.22,1.85,1.28,1.28-.54,3.25-1.63,2.04-.45-.48-1.98-1.53-2.62-1.79Z"/>
      <path class="cls-1" d="M561.94,81.3c3.95,3.48,2.26,9.85-3.99,12.44-2.04.83-3.54,1.5-6.28,1.85-2.55.35-3.35-2.84-.61-3.22,2.33-.32,4.27-.86,5.71-1.63,3.76-1.95,4.75-4.94,3.25-6.89-2.71-3.51-9.79-1.24-13.27,2.77-1.12,1.28-.51.7-1.31,1.66-1.56,1.91-4.88.57-2.96-1.95.64-.83.83-.67,2.04-2.07,1.5-1.72,1.79-1.98,3.41-3.83,1.62-1.85,3.92-4.78,5.1-6.41.26-.35,0-.54-.29-.38-1.44.86-3.16,1.44-4.78,1.82-2.58.61-3.32-2.93-.57-3.19,1.34-.13,4.27-.89,5.39-1.28,1.75-.64,1.91-.7,2.8-.54,1.72.29,3,1.98,1.34,3.67-2.14,2.2-4.94,5.33-6.92,7.33,3.29-2.55,8.96-2.77,11.93-.16Z"/>
      <path class="cls-1" d="M580.91,93.83c5.71-4.02,7.46-9.66,6.16-13.36-.89-2.49-3.29-2.62-5.49-1.31-.64.38-2.39,1.28-3.09,1.47-2.52.64-3.32-2.49-.99-3.32.83-.29,1.85-.64,2.74-1.02,3.25-1.44,7.94-1.31,9.63,2.36,2.46,5.33-.26,12.88-6.63,17.57-2.1,1.56-4.21-1.05-2.33-2.39ZM580.24,71.03c-1.82-1.02-.48-3.51,1.75-2.49,1.37.61,3.19,1.12,4.94,1.4,2.62.45,1.56,3.67-.8,3.22-2.26-.41-4.56-1.37-5.9-2.14Z"/>
      <path class="cls-1" d="M606.23,84.23c-1.44,0-2.29-.99-2.29-2.3,0-1.59,1.4-2.23,2.33-2.23,1.34,0,2.29,1.08,2.29,2.2,0,.73-.61,2.33-2.33,2.33ZM616.85,84.23c-.38,0-2.26-.06-2.26-2.3,0-1.59,1.4-2.23,2.3-2.23,1.34,0,2.29,1.08,2.29,2.2,0,1.37-1.15,2.33-2.33,2.33ZM627.47,84.23c-.38,0-2.27-.06-2.27-2.3,0-1.59,1.4-2.23,2.3-2.23,1.12,0,2.33.83,2.33,2.2,0,1.47-1.34,2.33-2.36,2.33Z"/>
      <path class="cls-1" d="M133.59,136.58c.06.51.06,1.02.06,1.59,0,1.53-.19,3.25-.64,5.13-.8,3.29-3.6,5.9-7.59,5.9-3.19,0-4.08-1.02-4.08-2.07,0-.8.57-1.56,1.5-1.56.19,0,.38.03.61.1.73.22,1.4.32,2.04.32,2.11,0,3.7-1.18,4.37-3.51.41-1.47.61-2.9.61-4.24,0-.57-.03-1.12-.1-1.63l-13.43.13h-.03c-.96,0-1.44-.73-1.44-1.47s.48-1.5,1.47-1.5l12.66-.06c-.61-1.44-1.56-2.58-2.74-3.25-.45-.25-.64-.57-.64-.92,0-.7.77-1.37,1.69-1.37.26,0,.57.06.86.19.45.22.89.51,1.34.86.7-.51,3.89-3.06,3.89-3.48,0-.13-.16-.19-.54-.19-.83-.03-1.79-.03-2.77-.03-2.78,0-6.03.06-8.77.16h-.06c-.96,0-1.47-.7-1.47-1.4s.48-1.4,1.5-1.43c1.98-.06,4.43-.1,6.82-.1s4.75.03,6.54.06c1.95.03,2.84,1.08,2.84,2.23,0,.64-.26,1.31-.77,1.85-.96,1.05-3.79,3.44-5.33,4.5.41.67.73,1.43,1.02,2.3l8.77-.1h.03c.89,0,1.31.73,1.31,1.47s-.45,1.5-1.34,1.5l-8.2.03Z"/>
      <path class="cls-1" d="M156.01,127.24c-1.66-2.04,1.47-3.76,2.74-1.95,1.37,1.95,2.81,4.78,3.73,7.43,1.72-1.21,3.54-2.36,5.61-3.51,2.17-1.21,3.83,1.85,1.37,3.09-3.25,1.66-6.54,3.51-9.06,5.64-3.16,2.68-3.25,5.07-.77,6.28,2.23,1.12,6.79.29,8.71-.41,2.68-1.02,3.63,2.65.8,3.44-2.52.7-7.85,1.34-11-.26-4.59-2.33-4.4-7.49.76-11.61.32-.26.61-.51.93-.73-.83-2.52-2.36-5.64-3.83-7.43ZM171.89,128.64c-.35-.54-1.75-1.85-2.36-2.2-1.53-.86-.06-2.62,1.34-1.88.8.42,2.3,1.47,2.9,2.3,1.08,1.47-.99,3.16-1.88,1.79ZM175.14,126.19c-.38-.54-1.82-1.75-2.42-2.07-1.56-.83-.16-2.62,1.28-1.95.83.38,2.33,1.4,2.96,2.2,1.12,1.44-.89,3.16-1.82,1.82Z"/>
      <path class="cls-1" d="M194.06,142.61c.19,4.56,5.17,4.37,6.82.83,1.12-2.39.22-4.5-1.56-6.44-1.66-1.82,1.08-3.51,2.49-1.88,2.49,2.87,3.38,5.9,2.17,9.12-2.3,6.06-12.47,7.11-12.72-1.4-.03-.89-.03-1.85.03-2.84-1.15-.1-2.04-.29-2.46-.38-2.58-.7-1.59-3.73.22-3.12.73.22,1.56.41,2.46.48.13-1.4.29-2.81.45-4.24-1.21-.16-2.23-.38-2.65-.54-2.42-.83-1.02-3.76.67-3.06.7.29,1.5.51,2.29.61.03-.38.1-.8.13-1.18.19-2.01.25-3.22.35-4.72.16-2.23,3.19-1.72,3.19.16,0,1.5-.32,2.71-.54,4.59-.03.38-.1.77-.13,1.15.29-.03.54-.1.8-.16,2.07-.48,2.62,2.36.73,2.9-.64.19-1.28.25-1.95.32-.19,1.43-.35,2.81-.48,4.15.54-.06,1.05-.16,1.53-.29,2.1-.57,2.9,2.23,1.02,2.87-.86.29-1.85.45-2.84.51-.06.92-.06,1.79-.03,2.58Z"/>
      <path class="cls-1" d="M227.06,130.46c2.68-.22,4.72,1.34,4.85,4.91.06,2.23-.26,5.1-1.08,7.11-1.31,3.16-4.43,4.72-7.49,3.83-2.52-.73-1.5-3.67.45-3.19,1.82.45,3.16.16,4.05-1.72.73-1.56,1.02-3.83,1.02-5.52,0-1.95-.67-2.87-2.14-2.74-.48.03-.96.1-1.47.16-1.56,4.94-3.7,9.28-6.19,12.82-1.53,2.17-4.85.32-2.78-2.01,2.2-2.46,4.18-6.09,5.64-10.37l-.38.06c-1.37.25-2.62.45-3.44.45-2.17,0-2.14-2.87-.1-3.06.99-.1,1.98-.06,3.12-.16l1.59-.16c.38-1.4.8-3.28.99-5.07.22-2.07,3.48-1.88,3.22.25-.13,1.08-.54,3-.93,4.5l1.05-.1ZM238.8,137.64c-.77-1.75-2.2-4.18-4.56-5.48-1.56-.86-.16-3.25,1.82-2.11,2.55,1.5,4.82,3.76,5.68,6.06.8,2.1-2.07,3.51-2.93,1.53ZM235.9,127.81c-1.66-.61-.51-2.58.99-2.1.86.25,2.52,1.08,3.25,1.79,1.31,1.24-.41,3.25-1.53,2.07-.45-.48-2.07-1.53-2.71-1.75ZM238.64,124.98c-1.66-.54-.64-2.58.89-2.17.86.22,2.58.99,3.35,1.66,1.34,1.21-.35,3.29-1.5,2.14-.45-.45-2.07-1.4-2.74-1.63Z"/>
      <path class="cls-1" d="M256.75,143.82c-2.3-2.49-3.35-6.19-3.61-10.21-.13-1.82-.19-2.39-.16-3.54.06-2.01,3.16-2.42,3.25-.03.06,1.24-.06,1.31,0,2.77.13,3.35.73,6.51,2.52,8.23.83.8,1.24.89,1.95-.06.38-.54.83-1.37,1.05-1.88.86-1.85,3.51-.51,2.9,1.15-.32.89-.89,1.88-1.24,2.46-2.04,3.32-4.88,3.03-6.66,1.12ZM274,138.21c-.51-2.55-1.82-5.01-3.54-6.19-1.53-1.05.19-3.41,2.1-1.98,2.27,1.69,4.46,4.69,4.79,7.4.25,2.33-2.9,2.97-3.35.76Z"/>
      <path class="cls-1" d="M302.7,143.85c2.33-2.07,2.23-5.1.42-6.31-1.66-1.12-5.1-1.34-8.32.54-1.28.73-1.95,1.31-2.68,2.39-1.15,1.69-4.34-.19-2.36-2.14,3.51-3.48,6.09-5.93,9.63-10.3.35-.45.03-.32-.22-.19-.89.48-3,1.12-5.36,1.63-2.52.54-3-2.61-.83-2.87,2.14-.25,5.2-1.02,7.02-1.56,2.55-.73,4.66,1.53,3.06,3.32-1.02,1.15-2.3,2.39-3.57,3.57s-2.55,2.33-3.7,3.44c2.81-1.5,6.6-1.5,8.96-.1,4.59,2.74,3.09,8.36-.25,10.78-3.16,2.26-8.13,2.39-10.56.8-3.38-2.2-1.88-6.16,1.88-6.28,2.55-.1,4.94,1.43,5.04,4.3.61-.13,1.28-.51,1.85-1.02ZM295.91,142.9c-1.4.13-1.47,1.43-.45,1.98.73.38,1.79.51,2.68.48.03-1.47-.83-2.58-2.23-2.46Z"/>
      <path class="cls-1" d="M321.36,127.24c-1.66-2.04,1.47-3.76,2.74-1.95,1.37,1.95,2.81,4.78,3.73,7.43,1.72-1.21,3.54-2.36,5.61-3.51,2.17-1.21,3.83,1.85,1.37,3.09-3.25,1.66-6.54,3.51-9.06,5.64-3.16,2.68-3.25,5.07-.77,6.28,2.23,1.12,6.79.29,8.71-.41,2.68-1.02,3.63,2.65.8,3.44-2.52.7-7.85,1.34-11-.26-4.59-2.33-4.4-7.49.77-11.61.32-.26.61-.51.92-.73-.83-2.52-2.36-5.64-3.83-7.43Z"/>
      <path class="cls-1" d="M364.76,135.47c-1.21-.99-2.42-2.07-3.54-3.32l-.03-.03c-1.56,6.41-4.79,12.66-10.11,16.55-.48.35-.96.48-1.37.48-.99,0-1.72-.7-1.72-1.53,0-.45.25-.96.89-1.37,3.57-2.3,6.09-5.74,7.69-9.28-.96-.54-1.85-.89-2.96-1.24-.64-.19-.93-.64-.93-1.15,0-.83.77-1.75,1.72-1.75.83,0,2.58.92,3.25,1.31.26-.8,1.08-3.64,1.08-5.36,0-.57-.19-.83-.8-.83h-.1s-1.59.06-2.84.1c-1.34,3.48-3.03,6.67-4.82,9.09-.48.64-1.05.89-1.59.89-.83,0-1.53-.64-1.53-1.4,0-.32.13-.67.42-1.02,2.8-3.41,4.69-7.49,5.9-12.6.22-.92.89-1.34,1.56-1.34.8,0,1.56.57,1.56,1.47,0,.16-.19,1.12-.57,2.23,1.21-.03,2.42-.03,2.93-.03,1.75.06,3.06.83,3.06,2.71,0,.1,0,.19-.29,1.98.16-.1.35-.16.51-.16.25,0,.51.13.73.35.64.67,1.28,1.24,1.88,1.79l-.1-8.61v-.03c0-.89.77-1.34,1.53-1.34s1.6.48,1.6,1.37l-.1,10.84c2.2,1.44,4.46,2.42,7.02,3.51.7.29.99.86.99,1.4,0,.86-.67,1.72-1.69,1.72-.89,0-3.99-1.69-6.31-3.22l.1,10.27c0,.86-.8,1.28-1.56,1.28s-1.56-.42-1.56-1.28l.1-12.44Z"/>
      <path class="cls-1" d="M410.91,131.93c-1.95,0-9.47-5.64-11-7.02-.29-.26-.54-.42-.83-.42-.26,0-.54.16-.83.45-2.42,2.36-7.11,5.71-10.01,7.37-.35.22-.73.29-1.05.29-.99,0-1.75-.73-1.75-1.53,0-.48.29-.96.96-1.28,3.25-1.59,7.78-4.85,9.95-7.05.76-.77,1.62-1.18,2.55-1.18s1.85.38,2.77,1.18c2.84,2.39,6.63,4.5,10.11,6.22.67.32.96.83.96,1.34,0,.83-.73,1.63-1.82,1.63ZM394.42,140.6v4.4c1.24-.29,2.39-.57,3.35-.89.22-.06.42-.1.61-.1.86,0,1.47.57,1.47,1.24,0,.48-.38,1.02-1.28,1.31-5.87,1.91-11.26,2.71-11.32,2.71-1.12,0-1.72-.7-1.72-1.4,0-.64.48-1.28,1.47-1.43,1.53-.22,3.06-.51,4.53-.8,0-4.4.03-9.95.06-12.95.03-1.88,1.08-3.32,3.32-3.41.92-.03,1.79-.1,2.62-.1v-2.11c0-.77.77-1.15,1.5-1.15s1.5.38,1.5,1.15v2.11c3.38,0,5.87.13,6.12,2.58.06.92.1,2.3.1,3.54,0,4.59-.22,5.26-5.96,5.26.41.73.93,1.43,1.53,2.04,1.34-.54,3.76-1.5,5.23-2.3.29-.16.57-.22.83-.22.89,0,1.63.67,1.63,1.4,0,.83-.41,1.21-5.29,2.9,1.82.99,4.11,1.63,7.11,1.85.86.06,1.28.67,1.28,1.34,0,.8-.61,1.63-1.75,1.63-.13,0-10.17-.32-13.62-8.61h-3.29ZM403.92,133.91c0-1.37-.1-2.14-1.28-2.17-.77-.03-1.53-.03-2.36-.03-1.34,0-2.77.03-4.46.06-.89.03-1.31.57-1.34,1.53,0,.19-.03.42-.03.64l9.47-.03ZM394.45,136.17v2.07c1.15.03,2.17.03,3.09.03,1.85,0,3.41-.03,5.17-.13.57-.03,1.24-.16,1.24-1.98h-9.5Z"/>
      <path class="cls-1" d="M431,142.61c.19,4.56,5.17,4.37,6.82.83,1.12-2.39.22-4.5-1.56-6.44-1.66-1.82,1.09-3.51,2.49-1.88,2.49,2.87,3.38,5.9,2.17,9.12-2.29,6.06-12.47,7.11-12.72-1.4-.03-.89-.03-1.85.03-2.84-1.15-.1-2.04-.29-2.46-.38-2.58-.7-1.59-3.73.22-3.12.73.22,1.56.41,2.46.48.13-1.4.29-2.81.45-4.24-1.21-.16-2.23-.38-2.65-.54-2.42-.83-1.02-3.76.67-3.06.7.29,1.5.51,2.3.61.03-.38.1-.8.13-1.18.19-2.01.26-3.22.35-4.72.16-2.23,3.19-1.72,3.19.16,0,1.5-.32,2.71-.54,4.59-.03.38-.1.77-.13,1.15.29-.03.54-.1.8-.16,2.07-.48,2.62,2.36.73,2.9-.64.19-1.28.25-1.95.32-.19,1.43-.35,2.81-.48,4.15.54-.06,1.05-.16,1.53-.29,2.11-.57,2.9,2.23,1.02,2.87-.86.29-1.85.45-2.84.51-.06.92-.06,1.79-.03,2.58Z"/>
      <path class="cls-1" d="M461.48,132.63c.32-.61.61-1.12,1.02-1.66.51-.67.35-.64-.26-.45-2.39.77-1.85.77-4.02,1.59-1.02.38-1.91.7-2.87.96-2.81.76-3.67-2.9-1.12-3.44.67-.16,2.52-.51,3.54-.77,1.56-.38,4.37-1.02,7.62-1.95,3.28-.92,5.87-1.69,8.67-1.88,1.98-.13,2.52,1.44,2.17,2.46-.19.54-.89,1.18-3.12,1.05-1.63-.1-3.63.51-4.72.89-1.79.64-3.41,2.55-4.11,3.73-2.81,4.69-.67,11.38,6.47,11.13,3.35-.13,3.57,3.63.19,3.6-9.63-.03-12.95-8.87-9.47-15.28ZM471.31,134.73c-1.69-.73-.41-2.71,1.15-2.14.89.32,2.62,1.21,3.35,2.01,1.31,1.4-.67,3.44-1.79,2.14-.45-.51-2.04-1.72-2.71-2.01ZM474.53,131.96c-1.72-.67-.48-2.71,1.09-2.2.89.29,2.62,1.15,3.38,1.91,1.34,1.34-.54,3.44-1.69,2.17-.45-.51-2.11-1.63-2.78-1.88Z"/>
      <path class="cls-1" d="M503.26,136.17c1.15,1.47,2.42,4.02,2.07,5.84-.32,1.66-1.85,1.95-3.29,1.12-1.69-.99-6.22-1.63-8.45-.54-1.66.8-.99,2.49.48,3.09,1.4.61,3.19.86,5.17.48,2.84-.54,3.03,3,.16,3.25-2.36.19-4.43-.29-6.31-1.08-3.76-1.59-4.66-6.06-1.08-7.88,2.36-1.21,6.28-.96,8.39-.7,1.72.22,2.23-.25.38-2.74-.22-.32-.48-.61-.7-.96-2.33.64-4.97,1.02-7.34.86-2.2-.16-2.49-3.41.22-3.06,1.66.22,3.67,0,5.48-.45-.48-.83-.99-1.75-1.5-2.74-1.53.32-3.25.51-5.07.51-2.07,0-2.71-3.09-.16-2.9,1.4.09,2.74,0,3.96-.19-.7-1.47-1.4-2.87-2.3-3.86-1.79-2.01,1.59-3.22,2.74-1.66.73,1.02,1.5,2.87,2.3,4.82.8-.25,1.47-.57,2.01-.86,2.11-1.12,3.32,1.69,1.63,2.49-.73.35-1.56.67-2.55.99.41.92.86,1.82,1.37,2.68.99-.35,1.82-.7,2.39-1.02,2.23-1.28,3.6,1.66,1.82,2.55-.67.35-1.53.7-2.52,1.05.22.32.48.61.7.92Z"/>
      <path class="cls-1" d="M519.65,129.82c-1.95-.54-1.34-3.48.93-2.74,1.05.35,2.71.32,4.37-.1.32-1.05.48-2.07.64-3.22.29-1.88,3.09-1.53,3.03.29-.03.48-.22,1.18-.45,1.95.38-.19.73-.35,1.02-.54,1.44-1.02,3.45.96,1.4,2.42-.8.57-2.11,1.08-3.41,1.47-1.5,3.6-3.67,7.43-5.71,10.75-1.18,1.91-4.24.67-2.84-1.4,1.79-2.65,3.67-5.36,5.23-8.71-1.62.32-3,.19-4.21-.16ZM525.14,147.78c-2.96-1.5-3.32-4.94-.03-6.41,1.98-.89,4.15-.96,6.12-.61v-1.12c0-.8-.06-1.59-.1-2.39-.03-.64.03-1.53.16-2.14.38-1.75,3.19-1.34,2.87.57-.1.48-.19.83-.19,1.5,0,.73,0,1.53.03,2.46.03.61.1,1.28.13,1.98,1.69.7,3.09,1.69,3.89,2.55,1.82,2.01-.77,4.27-2.3,2.42-.48-.57-1.08-1.15-1.82-1.66-.93,2.55-4.91,4.78-8.77,2.84ZM526.16,143.6c-.86.45-.93,1.37.03,1.85,1.91.96,4.5.03,4.85-1.69.03-.09,0-.22.03-.32-1.63-.54-3.35-.61-4.91.16ZM533.27,131.83c-1.75.1-1.88-2.55.16-2.74,2.1-.19,4.34.19,5.87,1.12,2.17,1.31.51,3.95-1.05,2.97-1.5-.96-3.12-1.44-4.97-1.34Z"/>
      <path class="cls-1" d="M555.88,143.82c-2.3-2.49-3.35-6.19-3.6-10.21-.13-1.82-.19-2.39-.16-3.54.06-2.01,3.16-2.42,3.25-.03.06,1.24-.06,1.31,0,2.77.13,3.35.73,6.51,2.52,8.23.83.8,1.24.89,1.95-.06.38-.54.83-1.37,1.05-1.88.86-1.85,3.51-.51,2.9,1.15-.32.89-.89,1.88-1.24,2.46-2.04,3.32-4.88,3.03-6.67,1.12ZM573.13,138.21c-.51-2.55-1.82-5.01-3.54-6.19-1.53-1.05.19-3.41,2.11-1.98,2.26,1.69,4.46,4.69,4.78,7.4.26,2.33-2.9,2.97-3.35.76Z"/>
      <path class="cls-1" d="M593.13,140.03c0-4.05,4.18-5.9,5.33-8,.48-.86.7-1.79.7-2.62,0-3.12-2.36-3.86-3.63-3.86-2.55,0-3.6,2.1-3.86,2.97-.16.64-.89.96-1.63.96-.86,0-1.75-.48-1.75-1.53,0-1.18,1.95-5.58,7.21-5.58,3.76,0,7.02,2.62,7.02,6.98,0,1.02-.22,2.14-.64,3.19-1.15,2.87-5.33,4.5-5.33,7.4,0,1.21-.92,1.85-1.79,1.85s-1.63-.57-1.63-1.75ZM594.85,148.38c-1.21,0-2.2-1.02-2.2-2.11,0-1.4,1.34-2.2,2.2-2.2,1.24,0,2.2.77,2.2,2.2,0,1.53-1.34,2.11-2.2,2.11Z"/>
    </g>
  </g>
</svg>