<?xml version="1.0" encoding="UTF-8"?>
<svg xmlns="http://www.w3.org/2000/svg" viewBox="0 0 422.84 158.42">
  <defs>
    <style>
      .cls-1 {
        fill: #0059ac;
      }

      .cls-1, .cls-2, .cls-3, .cls-4, .cls-5, .cls-6, .cls-7, .cls-8, .cls-9, .cls-10, .cls-11, .cls-12, .cls-13, .cls-14, .cls-15, .cls-16, .cls-17, .cls-18, .cls-19, .cls-20, .cls-21, .cls-22, .cls-23, .cls-24, .cls-25, .cls-26, .cls-27, .cls-28, .cls-29, .cls-30, .cls-31, .cls-32, .cls-33, .cls-34, .cls-35, .cls-36, .cls-37, .cls-38, .cls-39, .cls-40, .cls-41, .cls-42, .cls-43, .cls-44, .cls-45, .cls-46, .cls-47, .cls-48, .cls-49 {
        stroke-width: 0px;
      }

      .cls-2 {
        fill: #1d2c6f;
      }

      .cls-3 {
        fill: #76a381;
      }

      .cls-4 {
        fill: #b8afd6;
      }

      .cls-5 {
        mix-blend-mode: multiply;
        opacity: .33;
      }

      .cls-5, .cls-7 {
        fill: #f08317;
      }

      .cls-6 {
        fill: #00bcdc;
      }

      .cls-8 {
        fill: #1a2549;
      }

      .cls-9 {
        fill: #3c2d3c;
      }

      .cls-10 {
        fill: #d0605d;
      }

      .cls-11 {
        fill: #57a488;
      }

      .cls-12 {
        fill: #2f4499;
      }

      .cls-13 {
        fill: #37183d;
      }

      .cls-14 {
        fill: #d2c7b4;
      }

      .cls-15 {
        fill: #f0999a;
      }

      .cls-16 {
        fill: #871c40;
      }

      .cls-17 {
        fill: #eeae1a;
      }

      .cls-18 {
        fill: #1b2b5c;
      }

      .cls-19 {
        fill: #bd0090;
      }

      .cls-20 {
        fill: #e55e5d;
      }

      .cls-21 {
        fill: #50245c;
      }

      .cls-22 {
        fill: #1a264f;
      }

      .cls-23 {
        fill: #274399;
      }

      .cls-24 {
        fill: #6e75b7;
      }

      .cls-25 {
        fill: #ea7117;
      }

      .cls-26 {
        fill: #ea5d58;
      }

      .cls-27 {
        fill: #cf46a6;
      }

      .cls-28 {
        fill: #387e80;
      }

      .cls-29 {
        fill: #1c2a53;
      }

      .cls-30 {
        fill: #63bdc5;
      }

      .cls-31 {
        fill: #1d2c6f;
      }

      .cls-32 {
        fill: #3f8e75;
      }

      .cls-33 {
        fill: #b5b7db;
      }

      .cls-34 {
        fill: #403276;
      }

      .cls-35 {
        fill: #56c9e3;
      }

      .cls-36 {
        fill: #503c1a;
      }

      .cls-37 {
        fill: #ec7171;
      }

      .cls-50 {
        isolation: isolate;
      }

      .cls-38 {
        fill: #1b274f;
      }

      .cls-39 {
        fill: #f2923d;
      }

      .cls-40 {
        fill: #453d94;
      }

      .cls-41 {
        fill: #71417d;
      }

      .cls-42 {
        fill: #efae1a;
      }

      .cls-43 {
        fill: #fff;
      }

      .cls-44 {
        fill: #f9d587;
      }

      .cls-45 {
        fill: #9b3362;
      }

      .cls-46 {
        fill: #851d68;
      }

      .cls-47 {
        fill: #62366c;
      }

      .cls-48 {
        fill: #4f74b9;
      }

      .cls-49 {
        fill: #5d619f;
      }
    </style>
  </defs>
  <g class="cls-50">
    <g id="_レイヤー_2" data-name="レイヤー 2">
      <g id="pc">
        <g>
          <path class="cls-3" d="M355.24,128.25c14.52-2.97,22.86-6.45,22.86-10.16,0-10.99-73.14-19.91-163.35-19.91s-163.35,8.91-163.35,19.91c0,2.68,4.37,5.24,12.27,7.58-22.7,2.4-37.06,5.95-37.06,9.9,0,7.24,48.16,13.11,107.57,13.11,31.12,0,59.15-1.61,78.8-4.19,14.05,5.25,54.53,9.04,102.29,9.04,59.41,0,107.57-5.87,107.57-13.11,0-5.52-27.99-10.24-67.6-12.17Z"/>
          <path class="cls-3" d="M61.18,149.17c0,4.28-13.7,7.76-30.59,7.76s-30.59-3.47-30.59-7.76,13.7-7.76,30.59-7.76,30.59,3.47,30.59,7.76Z"/>
          <ellipse class="cls-3" cx="400.13" cy="122.95" rx="11.01" ry="2.79"/>
          <ellipse class="cls-3" cx="115.02" cy="91.87" rx="11.01" ry="2.79"/>
          <ellipse class="cls-3" cx="322.45" cy="155.62" rx="11.01" ry="2.79"/>
          <path class="cls-14" d="M41.11,81.91s-2.88-4.15-5.83-4.46c-2.94-.32-7.77-.12-7.77-.12,0,0-3.82,4.32-2.74,4.33,1.07.02,12.84,1.29,16.34.25Z"/>
          <path class="cls-14" d="M310.79,91.85s7.95-11.06,15.9-11.8c7.95-.74,20.96,0,20.96,0,0,0,10.12,11.8,7.23,11.8s-34.69,2.95-44.08,0Z"/>
          <path class="cls-32" d="M134.14,117.79s29.48-33.74,5.94-35.99c-23.55-2.25-31.5,13.02-31.5,13.02,0,0-7.16-23.39-20.05-16.9-10.97,5.53-4.46,20.47-4.46,20.47,0,0-18.63-16.18-28.32-7.93-6.96,5.92-6.19,12.84-6.19,12.84,0,0-17.57-10.51-19.41-4.29-1.84,6.22,26.09,19.8,26.09,19.8l77.91-1.01Z"/>
          <path class="cls-32" d="M378.66,113.62s37.55-42.97,7.56-45.84c-29.99-2.87-40.12,16.58-40.12,16.58,0,0-9.11-29.8-25.53-21.52-13.97,7.04-5.68,26.07-5.68,26.07,0,0-23.73-20.6-36.07-10.1-8.86,7.54-7.89,16.35-7.89,16.35,0,0-22.37-13.38-24.72-5.46-2.35,7.92,33.23,25.21,33.23,25.21l99.22-1.29Z"/>
          <path class="cls-11" d="M319.67,114.19s-21.11-24.15-4.25-25.76c16.86-1.61,22.55,9.32,22.55,9.32,0,0,5.12-16.75,14.35-12.1,7.85,3.96,3.19,14.65,3.19,14.65,0,0,13.34-11.58,20.27-5.68,4.98,4.24,4.44,9.19,4.44,9.19,0,0,12.58-7.52,13.89-3.07,1.32,4.45-18.68,14.17-18.68,14.17l-55.78-.73Z"/>
          <g>
            <path class="cls-47" d="M337.97,46.08s.02-.22.74-.92c.72-.7,1.55-3.52.87-4.32-.69-.8-1.31-.31-1.31-.31,0,0,.5-1.13,1.08-1.16,0,0,.82.42.97,1.05.15.63.13.86.13.86,0,0,.22-.68-.2-1.46,0,0,.52.03.93.37,0,0,.55.61.52,1.24,0,0,.54-.32.38-.97,0,0,.77.1.68.32-.06.15-.61,1.16-.61,1.16l.71-1s.91.29.72.75c-.19.47-1.13,1.03-1.13,1.03,0,0,1.25-.63,1.41-.81,0,0,.96.62.57,2.25-.5,2.09-5.2,2.06-5.66,2.26-.47.2-.79-.34-.79-.34Z"/>
            <path class="cls-39" d="M337.8,45.07c.2-.22.74-.31,1.19.02.45.33.56,1.55.28,1.84-.28.3-2.17-1.1-1.47-1.87Z"/>
            <path class="cls-26" d="M126.37,61.64s-.25.95-.75,1.16c-.5.21-.63-.38-.49-.75.13-.38,1.25-.41,1.25-.41Z"/>
            <path class="cls-26" d="M138.11,66.64s-1.75.37-2.15.69c-.4.32.03.84.38.73.35-.11,1.77-1.42,1.77-1.42Z"/>
            <path class="cls-49" d="M142.81,70.61c.19-.28.12-.66-.16-.86-.41-.28-4.04-2.73-6.19-2.37-1.13.19-2.54.58-3.53.88-.77.23-1.61.18-2.35-.14l-6.19-2.74c-.21-.09-.21-.39,0-.47,1.29-.5,1.55-1.26,1.54-1.81-.03-2-3.4-2.64-4.08-2.75-.34-.05-.65.17-.7.51-.05.34.17.65.51.7,1.8.29,4.29,1.41,2.28,2.2-1.24.48-1.24,2.22-.05,2.74l6.19,2.74c1.01.45,2.15.52,3.2.2.95-.29,2.31-.67,3.37-.85,1.41-.24,4.3,1.49,5.29,2.17.28.19.66.12.86-.16Z"/>
            <path class="cls-20" d="M263.85,58.05s1.2-.49,1.17-.15c0,.13-.06.38-.12.5-.2.41-.98,1.23-1.42,1.09-.56-.17.36-1.44.36-1.44Z"/>
            <path class="cls-37" d="M261.9,56.4c5.23-2.25,11.42-5.42,14.54-9.64,4.18-5.66,10.28-13.79,13.32-18.85,2.76-4.6,7.86-5.14,7.9-.16.01,2.22-2.72,6.54-5.2,10.32-5.9,8.98-16.97,15.79-28.17,19.82l-3.05-1.09.67-.4Z"/>
            <path class="cls-47" d="M330.62,49.37s-1.57-1.79,0-2.94c1.58-1.15,2.31-1.26,3.51-1.67,1.21-.41,2.46-.63,3.24.15.78.78.71,1.02,1.67,1.98.96.96.91,1.17.53,3.39-.37,2.22-1.27,3.22-2.37,2.76s-6.59-3.67-6.59-3.67Z"/>
            <path class="cls-37" d="M327.38,72.14l-8.67-.45-6.24,4.92s-1.02.12-1.84-.65c-.82-.77-.96,1.17.7,2.01,1.66.85,1.62,1.28,1.62,1.28l6.54-3.82,11.62-1.76-3.73-1.53Z"/>
            <path class="cls-25" d="M175.25,81.39s-1.77-.05-2.36-1.48c-.59-1.44-1.02-2.97.42-3.41,1.44-.44,2.84,4.38,1.94,4.89Z"/>
            <polygon class="cls-8" points="304.26 54.47 279.75 74.72 289.4 103.57 284.06 106.8 293.6 106.6 292 102.43 287.51 76.38 309.59 66.79 304.26 54.47"/>
            <polygon class="cls-8" points="279.75 74.72 304.26 54.47 309.59 66.79 287.51 76.38 292.77 99.49 288.04 99.49 279.75 74.72"/>
            <path class="cls-38" d="M292.43,102.64l1.17,3.96-9.54.2,3.02-2.25s1.66.17,2.53.17,1.8-2.08,2.81-2.08Z"/>
            <path class="cls-44" d="M293.86,106s.15.68-.15.8c-.3.13-9.51.3-9.65.17-.14-.14-.08-.35.39-.46s9.4-.51,9.4-.51Z"/>
            <g>
              <path class="cls-16" d="M352.67,86.62c-14.7-4.26-23.85-9.08-37.41-3.5-1.71.7-3.41,1.45-5.16,2.13l-.44-1.13c3.72-1.66,6.75-3.37,10.35-4.48,11.21-3.24,22.43,1.19,33.56,3.83l-.9,3.15Z"/>
              <rect class="cls-16" x="311.76" y="78.4" width="29.49" height=".85" transform="translate(653 157.66) rotate(-180)"/>
            </g>
            <path class="cls-16" d="M314.74,66.63l-6.82,18.25c.71.33,1.56.46,2.34.71l6.76-18.1-2.28-.85Z"/>
            <path class="cls-48" d="M308.07,68.27l11.57-.61.2-1.81c.17-1.52-1.04-2.85-2.56-2.8-2.14.06-5.06.41-7.28,1.67-3.96,2.23-1.93,3.55-1.93,3.55Z"/>
            <rect class="cls-1" x="286.16" y="106.6" width="6.47" height="1.22"/>
            <rect class="cls-1" x="293.56" y="104.68" width="1.22" height="11.5" transform="translate(37.95 292.32) rotate(-55.95)"/>
            <polygon class="cls-7" points="332.74 107.6 313.66 88.26 308.52 87.44 308.84 86.26 314.39 87.49 333.66 106.81 332.74 107.6"/>
            <path class="cls-33" d="M335.27,107.6c0,1.17-.95,2.12-2.12,2.12-1.17,0-2.12-.95-2.12-2.12s.95-2.12,2.12-2.12c1.17,0,2.12.95,2.12,2.12Z"/>
            <path class="cls-9" d="M294.2,112.79c-.27-2.73,1.62-5.12,4.22-5.35l32.82-2.89c.89-.08,1.75.52,2.01,1.47.28,1.05-.3,2.13-1.3,2.41l-31.76,8.74c-2.92.78-5.7-1.39-5.99-4.38Z"/>
            <g>
              <polygon class="cls-4" points="308.15 106.36 308.15 106.04 330.57 106.28 310.03 97.31 310.15 97.01 330.65 105.96 314.83 90.15 315.06 89.92 330.91 105.78 322.51 84.99 322.81 84.87 331.21 105.65 331.46 83.24 331.78 83.24 331.53 105.66 340.51 85.11 340.8 85.24 331.85 105.73 347.66 89.92 347.89 90.15 332.04 106 352.82 97.6 352.94 97.89 332.17 106.3 354.58 106.54 354.57 106.87 332.15 106.62 352.7 115.6 352.57 115.89 332.08 106.94 347.89 122.75 347.66 122.98 331.81 107.13 340.22 127.91 339.92 128.03 331.51 107.26 331.27 129.66 330.95 129.66 331.19 107.24 322.22 127.79 321.92 127.66 330.87 107.17 315.06 122.98 314.83 122.75 330.69 106.9 309.9 115.31 309.78 115.01 330.56 106.6 308.15 106.36"/>
              <path class="cls-29" d="M307.36,106.79c.43,13.13,11.2,23.48,24.24,23.48,13.79,0,24.71-11.41,24.27-25.06-.43-13.13-11.2-23.48-24.24-23.48-13.79,0-24.71,11.41-24.27,25.06ZM331.63,84.3c11.77,0,21.29,9.22,21.67,20.99.39,11.96-9.02,22-20.98,22.39-12.02.39-21.99-8.9-22.39-20.98-.4-12.24,9.45-22.4,21.7-22.4Z"/>
              <path class="cls-29" d="M335.47,105.87c.07,2.13-1.6,3.91-3.73,3.98-2.13.07-3.91-1.6-3.98-3.73-.07-2.13,1.6-3.91,3.73-3.98,2.13-.07,3.91,1.6,3.98,3.73Z"/>
            </g>
            <g>
              <polygon class="cls-4" points="228.38 106.36 228.38 106.04 250.8 106.28 230.26 97.31 230.38 97.01 250.88 105.96 235.06 90.15 235.29 89.92 251.14 105.78 242.74 84.99 243.04 84.87 251.44 105.65 251.69 83.24 252.01 83.24 251.76 105.66 260.74 85.11 261.03 85.24 252.08 105.73 267.89 89.92 268.12 90.15 252.27 106 273.05 97.6 273.17 97.89 252.4 106.3 274.81 106.54 274.8 106.87 252.38 106.62 272.93 115.6 272.8 115.89 252.31 106.94 268.12 122.75 267.89 122.98 252.04 107.13 260.45 127.91 260.15 128.03 251.74 107.26 251.5 129.66 251.18 129.66 251.42 107.24 242.45 127.79 242.15 127.66 251.1 107.17 235.29 122.98 235.06 122.75 250.92 106.9 230.13 115.31 230.01 115.01 250.79 106.6 228.38 106.36"/>
              <path class="cls-29" d="M227.59,106.79c.43,13.13,11.2,23.48,24.24,23.48,13.79,0,24.71-11.41,24.27-25.06-.43-13.13-11.2-23.48-24.24-23.48-13.79,0-24.71,11.41-24.27,25.06ZM251.86,84.3c11.77,0,21.29,9.22,21.67,20.99.39,11.96-9.02,22-20.98,22.39-12.02.39-21.99-8.9-22.39-20.98-.4-12.24,9.45-22.4,21.7-22.4Z"/>
            </g>
            <path class="cls-4" d="M291.71,110.18c-.02.3.05,1.06.33,1.1l.24,2.59c-.27.09-.2.85-.13,1.14l1.32,1.87c.25.16.95.49,1.12.26l2.36,1.09c-.06.28.64.6.93.68l2.28-.21c.27-.14.9-.57.79-.84l2.12-1.5c.21.19.84-.25,1.06-.46l.96-2.08c.02-.3-.05-1.06-.34-1.1l-.24-2.59c.27-.09.2-.85.13-1.14l-1.32-1.87c-.25-.16-.95-.49-1.12-.26l-2.36-1.09c.06-.28-.64-.6-.93-.68l-2.28.21c-.27.14-.9.57-.79.84l-2.12,1.5c-.21-.19-.84.25-1.06.46l-.96,2.08ZM301.97,108.25l-3.56,3.12-3.17-3.46c.06-.05.12-.1.18-.14,2.05-1.45,4.8-1.19,6.55.47ZM302.2,115.52l-3.13-3.42,3.54-3.11s.01.01.02.02c1.44,2.03,1.2,4.75-.43,6.5ZM294.87,115.79l3.46-3.03,3.13,3.42s-.05.04-.07.06c-2.04,1.44-4.76,1.2-6.52-.44ZM294.51,108.59l3.15,3.43-3.44,3.02s-.03-.04-.04-.06c-1.41-1.99-1.2-4.64.34-6.4Z"/>
            <polygon class="cls-12" points="250.52 106.7 252.02 106.76 267.77 64.53 266.15 63.81 250.52 106.7"/>
            <path class="cls-16" d="M261.21,75.11l2.57,1.07,1.29-3.12.11-.27c.74.65,7.18,2.99,16.05,9.35,9.87,7.08,12.64,12.27,13.65,13.58.02-.01,13.24-7.1,13.45-7.3,14.47,9.64,20.75,18.29,22.64,20.25.93,1.1,2.57,1.24,3.68.32,1.1-.93,1.25-2.57.32-3.68-3.27-3.89-9.1-9.43-14.67-13.6-5.26-3.91-10.82-7.58-16.61-10.66-18.54-10.1-35.97-14.25-36.02-14.26l1.32-2.98-3.07-1.39-4.71,12.7ZM271.88,70.57c11.42,3.88,22.67,9.17,33.77,16.09l-9.61,4.6c-5.66-8.33-15.5-15.65-24.16-20.7Z"/>
            <path class="cls-5" d="M265.18,72.8s.02.02.04.03c.29.21,1,.55,2.07,1.07h0c.04-1.63.18-4.66.68-7.04-.02,0-.08-.02-.15-.04-.03,0-.06-.02-.09-.02-.03,0-.05-.01-.06-.01l-2.49,6.01Z"/>
            <rect class="cls-1" x="303.2" y="110.44" width="1.22" height="13.93" transform="translate(4.62 246.13) rotate(-44.41)"/>
            <path class="cls-37" d="M304.43,57.69c.11.2-9.51,32.04-9.51,32.04l12.87,25.5-1.35,5.74-2.17.88h4.42s5.03-6.62,5.03-6.62l-3.96-1.42-7.77-26.03,17.88-30.74s0-.24,0-.66c-6.16.18-9,.17-15.42,1.32Z"/>
            <path class="cls-40" d="M294.92,89.73s9.62-31.83,9.51-32.04c6.42-1.16,9.26-1.15,15.42-1.32.01.42,0,.66,0,.66l-17.88,30.74,7.13,20.47-4.59,1.89-9.6-20.41Z"/>
            <polygon class="cls-38" points="310.5 113.28 309.11 116.83 306.85 118.32 306.44 120.96 304.26 121.84 308.76 122.3 314.25 115.36 310.5 113.28"/>
            <path class="cls-44" d="M314.76,115.56s-5.4,6.92-5.64,6.92-.36-.19-.36-.19l5.49-6.94s.34-.31.51.2Z"/>
            <path class="cls-30" d="M299.62,21.78c-6.38-.17-7.73,2.68-8.14,3.09,0,0-4.69,5.93-1.27,10.38,1.65,2.15,9.35,15.44,9.77,22.75,6.71,3.18,15.07.58,19.87-1.64-.11-3.61-1.71-30.77-20.23-34.58Z"/>
            <rect class="cls-1" x="307.18" y="118.18" width="1.22" height="8.61" transform="translate(156.82 417.35) rotate(-84.59)"/>
            <path class="cls-25" d="M296.88,112c0,.89.72,1.61,1.61,1.61s1.61-.72,1.61-1.61-.72-1.61-1.61-1.61-1.61.72-1.61,1.61Z"/>
            <path class="cls-26" d="M159.19,67.36c-1.16.74-25.93,16.71-24.3,22.41,1.68,5.86,16.1,21.48,16.1,23.47,0,1.18-1.51,2.14-2.74,2.72-.36.17-.25.7.15.72,2.28.11,6.06.16,6.06-.64,0-1.15-.5-1.86-1.13-3.54-.63-1.68-12.11-21.29-10.05-23.35.52-.52,22.93-12.63,24.29-14.9.33-.54.76-1.25,1.14-2.09-4.76.09-5.27-2.95-9.51-4.79Z"/>
            <path class="cls-28" d="M159.19,67.36c4.23,1.84,4.75,4.88,9.51,4.79-.38.84-.81,1.55-1.14,2.09-1.36,2.27-23.77,14.38-24.29,14.9-1.76,1.76,8.4,16.37,11.18,21.6l-4.66.29c-3.49-5-13.51-16.44-14.89-21.27-1.63-5.7,23.14-21.67,24.3-22.41Z"/>
            <polygon class="cls-16" points="161.51 107.18 123.34 75.15 122.5 76.83 158.06 116.62 161.51 107.18"/>
            <path class="cls-45" d="M124.26,74.69c2.83.69,31.57,17.93,38.9,25.81l2.25-2.33c-8.39-7.92-38.45-23.78-41.15-24.07v.59Z"/>
            <rect class="cls-1" x="156.11" y="114.49" width="1.26" height="11.87" transform="translate(-30.8 182.85) rotate(-55.95)"/>
            <path class="cls-38" d="M148.39,116.68c-.4-.02-.51-.55-.15-.72.3-.14.62-.31.93-.49,1.33.11,3.6-.74,4.84-1.26.26.64.43,1.16.43,1.83,0,.8-3.77.75-6.06.64Z"/>
            <rect class="cls-7" x="147.9" y="116.47" width="6.68" height="1.26"/>
            <path class="cls-16" d="M213.65,92.74c-16.04-4.39-26.02-9.36-40.8-3.61-1.86.72-3.72,1.49-5.63,2.2l-.48-1.17c4.06-1.71,7.37-3.48,11.29-4.62,12.23-3.34,24.46,1.22,36.61,3.95l-.99,3.25Z"/>
            <path class="cls-9" d="M153.39,119.74c-.28-2.81,1.67-5.28,4.35-5.52l33.86-2.98c.92-.08,1.81.54,2.07,1.51.29,1.09-.31,2.2-1.34,2.48l-32.76,9.01c-3.01.81-5.88-1.43-6.18-4.51Z"/>
            <path class="cls-48" d="M189.49,111.74l-18.3,1.86.03.25,17.54-1.78-15.59,6.84.1.23,16.29-7.15,1.34-.14-.03.24-13.33,12.89.17.18,13.11-12.68-7.34,15.91.23.1,7.04-15.25-1.84,16.56.25.03,1.92-17.3.24-.53.22-.21.26.42,3.36,16.86.24-.05-3.24-16.22,8.94,14.18.21-.13-9.29-14.73-.07-.37.79-.08,14.45,9.21.13-.21-14.19-9.04.92-.09,15.59,3.5.05-.24-14.87-3.34,15.51-1.58-.02-.25-16.25,1.65-1.64-.37.36-.34,15.96-7-.1-.23-15.34,6.73,12.21-11.81-.17-.18-12.69,12.28-.73.32,7.88-17.08-.23-.1-7.86,17.04-.27-1.38,1.94-17.5-.25-.03-1.85,16.72-3.39-17.01-.24.05,3.55,17.78-.12,1.12-.3-.19-10.26-16.27-.21.13,9.98,15.82-15.7-10-.13.21,16.14,10.28.15.24-19.13-4.3-.05.24,19.37,4.35.07.11-.02.16-1.48.65Z"/>
            <path class="cls-34" d="M188.49,88.83c16.54-1.68,28.82,15.21,21.97,30.46-6.82,15.17-27.59,17.36-37.37,3.79-9.73-13.49-1.24-32.57,15.4-34.26ZM192.54,128.66c14-1.42,21.31-17.51,13.03-28.99-8.23-11.41-25.82-9.7-31.62,3.21-5.77,12.83,4.51,27.21,18.59,25.78Z"/>
            <path class="cls-48" d="M188.98,111.2c-.07,1.32.95,2.45,2.28,2.52,1.32.07,2.45-.95,2.52-2.28.07-1.32-.95-2.45-2.28-2.52-1.32-.07-2.45.95-2.52,2.28Z"/>
            <path class="cls-48" d="M107.82,110.94l-18.3,1.86.03.25,17.54-1.78-15.59,6.84.1.23,16.29-7.15,1.34-.14-.03.24-13.33,12.89.17.18,13.11-12.68-7.34,15.91.23.1,7.04-15.25-1.84,16.56.25.03,1.92-17.3.24-.53.22-.21.26.42,3.36,16.86.24-.05-3.24-16.22,8.94,14.18.21-.13-9.29-14.73-.07-.37.79-.08,14.45,9.21.13-.21-14.19-9.04.92-.09,15.59,3.5.05-.24-14.87-3.34,15.51-1.58-.02-.25-16.25,1.65-1.64-.37.36-.34,15.96-7-.1-.23-15.34,6.73,12.21-11.81-.17-.18-12.69,12.28-.73.32,7.88-17.08-.23-.1-7.86,17.04-.27-1.38,1.94-17.5-.25-.03-1.85,16.72-3.39-17.01-.24.05,3.55,17.78-.12,1.12-.3-.19-10.26-16.27-.21.13,9.98,15.82-15.7-10-.13.21,16.14,10.28.15.24-19.13-4.29-.05.24,19.37,4.35.07.11-.02.16-1.48.65Z"/>
            <path class="cls-34" d="M106.83,88.03c16.54-1.68,28.82,15.21,21.97,30.46-6.82,15.17-27.59,17.36-37.37,3.79-9.73-13.49-1.24-32.57,15.4-34.26ZM110.87,127.86c14-1.42,21.31-17.51,13.03-28.99-8.23-11.41-25.82-9.7-31.62,3.21-5.77,12.83,4.51,27.21,18.59,25.78Z"/>
            <path class="cls-48" d="M107.32,110.4c-.07,1.32.95,2.45,2.28,2.52,1.32.07,2.45-.95,2.52-2.28s-.95-2.45-2.28-2.52c-1.32-.07-2.45.95-2.52,2.28Z"/>
            <polygon class="cls-24" points="120.49 81.34 109.4 110.53 110.34 110.54 121.89 81.93 120.49 81.34"/>
            <path class="cls-21" d="M185.12,83.99h-3.45s-.14-.75-.14-.75h13.03c.73,0,1.43.28,1.91.76.15.16.14.39-.04.53-.08.06-.18.09-.28.09-.12,0-.24-.04-.32-.13-.32-.32-.78-.51-1.27-.51h-8.36s-26.34,29.83-26.34,29.83l-.67-.46,25.93-29.37Z"/>
            <path class="cls-21" d="M96.09,82.25c.48-.55,1.18-.87,1.91-.87h23.64c.23,0,.42.19.42.42,0,.23-.19.42-.42.42h-14.2s2.8,29.63,2.8,29.63l-.68.07-3.2-29.7h-8.36c-.49,0-.95.21-1.27.58-.08.1-.2.15-.32.15-.1,0-.2-.03-.28-.1-.18-.15-.2-.42-.04-.6Z"/>
            <rect class="cls-18" x="141.41" y="95.12" width="47.81" height="2.27" transform="translate(21.55 222.45) rotate(-71.49)"/>
            <path class="cls-2" d="M165.74,75.65l11.94-.63.21-1.86c.18-1.57-1.07-2.94-2.64-2.89-2.21.07-5.22.43-7.51,1.72-4.08,2.3-1.99,3.66-1.99,3.66Z"/>
            <path class="cls-48" d="M150.83,117.04c-.02.31.05,1.1.35,1.14l.24,2.67c-.28.09-.21.88-.13,1.18l1.36,1.93c.26.17.98.5,1.16.27l2.44,1.12c-.06.29.66.62.95.71l2.35-.22c.28-.14.92-.59.81-.87l2.19-1.55c.22.2.86-.26,1.09-.47l.99-2.15c.02-.31-.05-1.1-.35-1.14l-.24-2.67c.28-.09.21-.88.13-1.18l-1.36-1.93c-.26-.17-.98-.5-1.16-.27l-2.44-1.12c.06-.29-.66-.62-.95-.71l-2.35.22c-.28.14-.92.59-.81.87l-2.19,1.55c-.22-.2-.86.26-1.09.47l-.99,2.15ZM161.4,115.05l-3.67,3.22-3.27-3.57c.06-.05.12-.1.19-.15,2.12-1.5,4.95-1.23,6.76.49ZM161.65,122.55l-3.23-3.52,3.65-3.21s.01.01.02.02c1.48,2.1,1.24,4.89-.44,6.71ZM154.08,122.83l3.57-3.13,3.23,3.53s-.05.04-.08.06c-2.1,1.49-4.91,1.24-6.73-.46ZM153.71,115.41l3.25,3.54-3.55,3.11s-.03-.04-.04-.06c-1.45-2.06-1.24-4.79.35-6.6Z"/>
            <polygon class="cls-1" points="165.24 126.46 157.12 119.33 157.87 118.69 166.31 126.11 165.24 126.46"/>
            <g>
              <path class="cls-37" d="M161.65,68.27c1.11-2.31,2.59-3.8,4.38-4.41,2.03-.7,3.74-.02,3.97.08.36.04,3.62.54,3.62,5.69s-20.07,24.02-21.25,26.25c3.33,1.24,16.64,26.02,16.78,27.03l.57,1.35s-8.01,2.33-7.96,2.2c.22-.6,3.39-2.85,4.31-3.72.58-.72-20.32-25.34-21.34-27.16-1.18-2.11,14.51-22.32,16.91-27.3Z"/>
              <path class="cls-30" d="M161.65,68.27c1.11-2.31,2.59-3.8,4.38-4.41,2.03-.7,3.74-.02,3.97.08.36.04,3.62.54,3.62,5.69s-20.07,24.02-21.25,26.25c1.81.68,8.26,8.3,12.25,15.28l-5.97,1.67c-5.92-7.32-13.32-16.19-13.92-17.26-1.18-2.11,14.51-22.32,16.91-27.3Z"/>
              <path class="cls-38" d="M163.92,124.5c1.14.39,4.27-1.47,5.09-1.98.09.2.14.34.15.39l.57,1.35s-8.01,2.33-7.96,2.2c.12-.33,1.11-1.14,2.14-1.96Z"/>
            </g>
            <path class="cls-16" d="M191.38,111.89s-.08,0-.11-.01c-.31-.06-.5-.36-.44-.67l5.19-25.15c.06-.31.36-.5.67-.44.31.06.5.36.44.67l-5.19,25.15c-.06.27-.29.45-.55.45Z"/>
            <path class="cls-16" d="M128.72,66.91l-9.01,20.43-1.99-.84,9.28-20.13c.83.23.89.21,1.72.54Z"/>
            <path class="cls-26" d="M123.26,60.16c.88-.45,2.92.18,2.92.18,7.79-2.42,16.74-4.21,19.89-12.41l2.13-2.58,2.05,6.83-.57,1.65c-5.94,5.89-14.6,7.53-22.95,8,0,0-2.65.03-2.13.98,0,0-.35.36-.99.21-.15-.03-.3-.14-.45-.2-.23-.08-.45-.12-.65-.24-.32-.19-.61-.42-.69-.69-.18-.59.96-1.48,1.44-1.73Z"/>
            <path class="cls-10" d="M145.67,46.84c1.68-4.4,4.46-6.99,4.46-6.99,0,0,.24-.2.82-.34.89-.22,6.67-.43,8.24,2.72.94,1.88,2.72,8.25,3.47,13.65,1.05,7.58,10.99,7.24,13.72,8.86l-19.13,5.04c-4.38-5.84-12.73-19.91-11.58-22.93Z"/>
            <path class="cls-37" d="M139.41,65.79s12.63-5.77,14.12-9.08c1.49-3.31-.91-12.31,1.1-15.27.83-1.23,1.88-1.27,2.82-.9,1.51.6,2.41,2.16,2.33,3.78-.19,4-.64,13.03-1.05,14.98-.52,2.52-11.62,6.7-11.65,6.71l-6.32,1.76s-1.2,2.14-1.56,2c-.35-.14-1.07-.3-1.07-.3-.38-.12-1.43-.31-1.43-.31-.4,0-.62-.26-.62-.26,0-1.29,3.32-3.11,3.32-3.11Z"/>
            <rect class="cls-7" x="161.71" y="125.21" width="8.61" height="1.22" transform="translate(-28.98 52.56) rotate(-16.57)"/>
            <path class="cls-23" d="M155.8,118.58c0,1.02.82,1.84,1.84,1.84s1.84-.82,1.84-1.84c0-1.02-.82-1.84-1.84-1.84-1.02,0-1.84.82-1.84,1.84Z"/>
            <path class="cls-21" d="M95.15,66.55l3.38,15.13,21.15.56,6.92-14.79-31.45-.89ZM106.99,70.15l-6.71-.15-.47-2.63,6.97.2.21,2.58ZM107.46,75.99h-6.1s-.95-5.29-.95-5.29l6.64.15.41,5.15ZM113.66,67.76l-.2,2.52-5.77-.13-.21-2.57,6.17.18ZM114.1,71l5.46.12-1.6,4.88h-4.25s.39-4.99.39-4.99ZM120.59,67.96l-.81,2.46-5.63-.12.2-2.52,6.24.18ZM124.26,70.52l-3.75-.08.81-2.46,4.01.11-1.07,2.43ZM121.76,75.99h-3.07s1.59-4.86,1.59-4.86l3.67.08-2.2,4.78ZM117.05,81l1.41-4.3h2.96s-2.06,4.3-2.06,4.3h-2.32ZM113.32,81l.34-4.3h4.07s-1.41,4.3-1.41,4.3h-3ZM108.21,81l.35-.03-.34-4.28h4.74s-.34,4.3-.34,4.3h-4.41ZM108.16,75.99l-.41-5.13,5.66.12-.39,5.01h-4.85ZM102.26,81l-.77-4.3h6.03s.35,4.3.35,4.3h-5.6ZM98.12,76.69h2.66s.77,4.3.77,4.3h-2.47s-.96-4.3-.96-4.3ZM96.76,70.62l2.94.06.95,5.31h-2.69s-1.2-5.37-1.2-5.37ZM96.6,69.92l-.59-2.66,3.09.09.47,2.63-2.97-.07Z"/>
            <g>
              <path class="cls-13" d="M296.8,17.92c.15-.17.89-6.5.89-6.5,0,0,.37-4.7-.76-5.17-1.13-.46-4.02-2.36-6-1.85-1.98.5-3.15,1.49-3.29,1.66-.15.17-.85,2.78-.85,2.78,0,0,.4-.93,1.43,1.81,1.02,2.74,8.59,7.27,8.59,7.27Z"/>
              <path class="cls-37" d="M291.77,19.04c.42.67-1.46,5.89.43,6.77.61.28,8.41,2.08,7.32-2.67-1.09-4.75-2.94-10.17-2.94-10.17l-4.81,6.07Z"/>
              <path class="cls-26" d="M297.65,16.31c-.12,3.48-3.22,8.12-6.31,7.39,0-1.84.71-4.22.43-4.65l4.81-6.07c.02.06.46,1.33,1.07,3.33Z"/>
              <path class="cls-37" d="M295.7,8.6c1.2,1.68,2.12,5.12,1.06,8.21-1.06,3.09-3.1,5.1-5.14,4.26-2.04-.84-4.63-8.96-3.94-11.42.69-2.47,6.19-3.61,8.02-1.04Z"/>
              <path class="cls-47" d="M297.71,16.52s-.3-2.81.52-3.74c.82-.93,1.17-1.46,1.1-2.46-.06-1,3.07-2.56,2.14-3.98-.94-1.42-3.71-1.43-5.71-3.79-2.01-2.36-3.81-3.47-6.62-1.63-2.81,1.85-2.74,3.92-2.74,3.92,0,0-1.41.13-1.81,2.05-.4,1.92.44,2.72,1.18,3.37,0,0-.68-2.2.09-2.25.77-.05.66,2.61.66,2.61,0,0,.86-1.25,1.66-3.03.8-1.78.95,0,1.07,1.94.12,1.94,2.28-.52,3.1-2.18.82-1.66,2.79-.87,3.87.86,1.09,1.73-.76,5.42,1.5,8.3Z"/>
              <path class="cls-37" d="M295.88,11.72s.59-2.23,1.36-1.55c.78.68.95,3.32-.23,3.68-1.18.36-1.13-2.13-1.13-2.13Z"/>
              <path class="cls-26" d="M296.53,11.69s-.33-1.11.35-.9c.67.21.55,2.17,0,2.28-.54.11-.35-1.38-.35-1.38Z"/>
              <path class="cls-18" d="M290.27,12.88c-.08.57-.08,1.14-.03,1.71.13,1.23.44,1.69.47,1.76.13-.06.46-.21.89-.47-.3.07-.59.16-.88.26l.12.05c-.32-1.06-.4-2.19-.56-3.32Z"/>
              <path class="cls-23" d="M291.81,12.75c.02.35.24.63.49.61.25-.02.43-.31.41-.67-.02-.35-.24-.63-.49-.61-.25.02-.43.31-.41.67Z"/>
              <path class="cls-23" d="M288.45,13.18c.02.35.24.63.49.61.25-.02.43-.31.41-.67-.02-.35-.24-.63-.49-.61-.25.02-.43.31-.41.67Z"/>
              <path class="cls-18" d="M293.43,11.39s-.73-.77-1.6-.72c-.87.06-.44.71-.23.7.2-.01,1.82-.16,1.83.02Z"/>
              <path class="cls-18" d="M289.1,10.98s-.9.58-.97,1.1c0,0,1.01-.38,1.14-.69.12-.31-.17-.41-.17-.41Z"/>
            </g>
            <path class="cls-31" d="M152.48,23.79c.15-.06-.06-1.21.58-2.61.65-1.4,2.15-2.24,3.78-1.49,1.62.75.38,1.05,1.7,2.13,1.31,1.08,1.67-.49,2.42.77.75,1.25-.41,1.54.4,2.26.81.71,1.37-.92,1.94-.11.57.82,1.06,2.24-.48,2.33-1.54.09-1.81,1.07-1.86,2.11-.04,1.05-1.93,2.14-2.44.77,0,0-.24-.07-.4.68-.15.76-1.14.69-1.2.67-.06-.03-.25-.08-1.35-1.81-1.09-1.73-3.43-.68-3.01-3.05.43-2.37-.09-2.65-.09-2.65Z"/>
            <path class="cls-17" d="M152.99,23.47c-.37-.12-1.55.09-1.24.95.31.86,1.27,1.07,1.83,1.39.56.32.86.51,1.09.62.23.11-.19-.96-.38-1.48-.19-.52-.84-1.31-1.3-1.47Z"/>
            <path class="cls-31" d="M152.6,23.53s.14-.25-.67-1.41c-.8-1.16-2.58-.64-2.58-.64l.13-.97s1.59-.8,2.49.76c.9,1.56.63,2.26.63,2.26Z"/>
            <path class="cls-37" d="M149.4,37.79s.06,2.95-1.08,4.47c0,0,.33,1.03,3.03.72,2.7-.31,3.26-1.87,3.26-1.87,0,0-.56-4.63-.39-6.45.15-1.56-.16-3.03-.16-3.03l-4.67,6.16Z"/>
            <path class="cls-26" d="M154.07,31.63l-4.67,6.16s0,.26-.02.68c5.23.71,4.69-6.84,4.69-6.84Z"/>
            <path class="cls-37" d="M147.16,26.53c-.15.16-1.47,2.32-1.39,3.42.08,1.1,1.28,2.09,1.11,2.45-.17.36-.54,1.39-1.12,1.95,0,0,.1.3.8.37,0,0,.11.41,0,.65-.11.24-.05.35.03.41.06.05.29.14.29.14l.31.34s-.07.07.02.3c.09.24.47.22.47.22,0,0,.21.06.36.46.15.4.24,1.02,1.64.76,1.05-.19,4.21-2.54,4.56-4.28.3-1.44-.61-4.99-1.2-5.51-.83-.72-4.98-2.66-5.89-1.68Z"/>
            <path class="cls-43" d="M147.86,35.58s-.2.43-.66.67l-.31-.34s.68-.04.97-.33Z"/>
            <path class="cls-23" d="M146.7,24.96s-1.75.55-2.75,1.98c-1,1.43-1.65,3.26-.17,4.58,1.48,1.32,2.38.69,2.38.69,0,0-1.29-.67-.95-1.05.33-.38,1.06.08,1.06.08,0,0-.25-.87.12-1.01.37-.14,1.87.69,1.87.69,0,0-.32-1.78.36-1.47.68.32,1.1.79,2.21,1.3,1.11.51,2.12,1.71,1.62,2.78-.5,1.07-1.13.92-1.13.92,0,0,.54.66,1.2.26.66-.4.69-1.18.69-1.18l-.04,1.15s.8-.35.91-1.49c.1-1.14-1.88-3.3-1.46-3.79.43-.49,1.67,2.94,1.63,4.9,0,0,.27-1.98,1.23-2.33.96-.35,2.19-.52,1.63-2.92-.57-2.39-4.36-3.14-5.36-4.61-1-1.47-4.61-1.76-5.04.54Z"/>
            <path class="cls-37" d="M152.71,30.4s-.67-1.54.41-1.48,1.61,2.46.7,2.4c-.78-.05-1.12-.92-1.12-.92Z"/>
            <path class="cls-26" d="M152.79,30.23s.02-.71.42-.66c.4.05.94,1.2.6,1.42-.34.22-.92-.27-1.02-.76Z"/>
            <path class="cls-47" d="M156.7,34.27s-.04-.04-.04-.06c0-.04.03-.07.07-.07,4.79-.11,6.88-4.5,6.9-4.54.02-.04.06-.05.1-.03h0s.05.06.03.09c-.02.05-2.14,4.51-7.02,4.63-.01,0-.02,0-.03,0Z"/>
            <path class="cls-23" d="M147.24,32.61l-.21-.35s-.07.19.04.36c.02.03.03.05.05.07.03-.03.07-.05.12-.07Z"/>
            <path class="cls-22" d="M147.99,32.79c-.62-.62-1.72-.53-1.86-.95.07.17.68.23.99.32.34.12.69.31.87.63Z"/>
            <circle class="cls-48" cx="109.45" cy="110.4" r="3"/>
            <path class="cls-29" d="M255.7,105.87c.07,2.13-1.6,3.91-3.73,3.98-2.13.07-3.91-1.6-3.98-3.73-.07-2.13,1.6-3.91,3.73-3.98,2.13-.07,3.91,1.6,3.98,3.73Z"/>
            <g>
              <path class="cls-26" d="M182.23,75.18c-.21,0-9.72,1.76-10.38,2.45-.66.69.07,14.3.07,14.3,0,0-1.64,1.12-3.07,1.15-1.43.03-1.44-.31-1.43.03,0,.34,4.95,1.32,4.95,1.32l.93.33,1.22-3.95.42-10.12,10.37-.22-3.09-5.3Z"/>
              <path class="cls-39" d="M182.23,75.18l-8.91,1.32s2.36,3.11,1.94,4.89l12.31-2.74-5.34-3.48Z"/>
              <path class="cls-26" d="M186.7,59.56s-7.27,5.86-8.61,3.94c-1.47-2.11-3.01-3.89-2.63-4.81.38-.91.98-1.28.77-1.72-.21-.44-.9.75-.9.75,0,0-.15-.91.16-2.03.31-1.12.04-1.47-.27-1.15-.31.32-.23,1.74-.51,2.04-.28.3.32-2.33-.06-2.69-.38-.36-.5,1.61-.48,2.46,0,0,.05.29-.16-.13-.21-.42.02-2.79-.49-2.26-.51.53.28,2.6-.1,2.61-.38,0-.26-1.84-.77-1.61-.51.23.59,3.79.62,4.99.03,1.2,1.82,6.16,3.18,7.04,1.35.88,9.95-.95,10.84-1.88.89-.93,1.39-6.14-.58-5.54Z"/>
              <path class="cls-46" d="M186.7,59.56c1.97-.6,1.47,4.61.58,5.54-.34.35-1.77,1.7-3.51,2.12-.31-1.27-1.1-3.77-1.56-5.12,2.11-1.26,4.49-2.54,4.49-2.54Z"/>
              <path class="cls-25" d="M179.76,83.46s-3.73-1.64-2.7-3.96l3.9-.31.96,2.81-1.44,1.44-.71.02Z"/>
              <path class="cls-37" d="M191.82,81.66c-.12.13-10.08,1.11-11,1.13l-5.74,10.91s-.03,2.57-.66,2.58c-.63.01-2.94-1.03-2.94-1.03,0,0,2.04-1.82,2.03-2.15,0-.34,2.95-12.44,3.55-13.07.72-.75,7.87-2.68,7.87-2.68l6.89,4.31Z"/>
              <path class="cls-44" d="M191.82,81.66l-11.34,1.78s1.71-4.55-3.42-3.94l8.18-2.48,6.58,4.64Z"/>
              <path class="cls-19" d="M191.71,58.36s5.65-.4,5.22,5.37c-.21,2.84-2.45,18.19-4.48,18.82,0,0-8.93-6.13-10.22-7.37-.21-.2,3.17-.36,3.09-4.31-.08-3.94-.29-11.7,2.34-11.75,2.63-.05,4.06-.76,4.06-.76Z"/>
              <path class="cls-18" d="M194.48,78.86c-.04-.06-6.98-3.95-9.56-6.96l-.93,2.33c2.56,2.53,9.7,5.08,10.49,5.23v-.59Z"/>
              <path class="cls-37" d="M192.1,55.75l.73,1.1s-.16,2.93-.74,3.45c-.58.52-2.17.65-3.01.21-.84-.45-.24-3.39-.24-3.39l3.26-1.37Z"/>
              <path class="cls-26" d="M192.1,55.75l.73,1.1s-.01.28-.05.67c-.25.76-.74,1.61-1.68,2.09-.74.38-1.6.46-2.38.29-.24-1,.12-2.79.12-2.79l3.26-1.37Z"/>
              <path class="cls-37" d="M193.04,55.54s.06,2.48-1.95,3.44c-1.81.87-4.25.05-4.9-1.59-.65-1.63.25-1.73-.27-3.19-.52-1.46,1.18-3.78,4.19-2.96,3.01.82,2.93,4.3,2.93,4.3Z"/>
              <path class="cls-23" d="M193.55,56.68s.52,1.09,1.23.31c.71-.78.37-2.02-.05-2.45,0,0,1.55-1.27,1.07-2.85-.47-1.58-1.8-1.71-1.8-1.71,0,0-.34-.67-.98-1.32-.64-.64-1.94.04-1.94.04,0,0,.02-1.29-1.11-1.57s-3.63-.44-4.14,1.22c0,0-2.55-.05-3.05,1.61-.5,1.66.05,2.33.05,2.33,0,0-.05-.43-.23.65-.18,1.08,2.23,3.61,3.44.7,0,0,1.66-.25,1.64-1.46,0,0,.56.9,1.58.62,1.02-.28,1.17-1.03,2.25-.05,1.08.98,1.48,2.75,1.15,3.63-.32.88,0,2.52,1.13,2.5,1.13-.02-.25-2.21-.25-2.21Z"/>
              <path class="cls-37" d="M186.56,75.93s3.69-4.27,5.03-5.19c1.34-.93,2.1-4.04,2.1-4.04l3.26-1.4s-.89,2.9-1.35,4.94c-.46,2.04-5.88,5.39-5.88,5.39-.45.07-1.22,1.75-1.33,2.01-.45.98-.78,2.73-.78,2.73-.57.27-.8-.31-.8-.31-.25.26-1-.13-1-.13-.62.16-.82-.18-.82-.18-.74.21-1-.1-1-.1-.54-1.11,1.34-2.21,2.57-3.71Z"/>
              <path class="cls-27" d="M192.94,67.43c-.15-.3-.43-7.53.68-8.28,2.28-1.54,5.21,4.62,3.24,10.15-1.41-1.58-1.97-1.74-3.92-1.87Z"/>
              <path class="cls-37" d="M192.08,54.15s.22-.94.8-.63c.57.31.49,2.08-.12,2.04-.62-.04-.67-1.42-.67-1.42Z"/>
              <path class="cls-26" d="M192.17,54.78s.04-.76.44-.54c.39.22.26,1.24-.07,1.16-.33-.08-.37-.62-.37-.62Z"/>
              <path class="cls-23" d="M188.53,55.99c.25.09.47.22.66.4-.75-.29-.82-.54-1.17.11.04-.3.25-.6.51-.51Z"/>
              <path class="cls-43" d="M187.97,57.51c-.1-.05-.17.11-.07.15.88.24,2.09-.27,1.99-.23.11-.04.05-.2-.06-.16-.07.03-1.07.61-1.86.24Z"/>
              <path class="cls-23" d="M190.53,54.33c.16-.17-.58-.55-1.23-.4-.11.03-.07.19.04.16.65-.15,1.07.23,1.07.24.03.03.08.03.12,0Z"/>
              <path class="cls-23" d="M186.92,54.61c.31-.58.74-.32.75-.51,0-.18-.61-.11-.9.43-.02.04,0,.09.03.11.04.02.09,0,.11-.03Z"/>
              <path class="cls-23" d="M189.84,55.05c-.16,0-.31,0-.43.05,0-.02,0-.05,0-.07.01-.22.23-.39.48-.38.25.02.45.21.44.43,0,.03,0,.06-.02.09-.13-.06-.29-.11-.47-.12Z"/>
              <path class="cls-23" d="M187.28,55.25c-.16.03-.3.08-.41.14,0-.02-.02-.04-.02-.07-.04-.22.13-.43.38-.48.25-.04.48.1.52.32,0,.03,0,.06,0,.09-.14-.03-.31-.04-.48,0Z"/>
              <path class="cls-42" d="M181.57,81.61c2.42-.25,7.26-1.76,8.92-1.94,4.44-.47,5.26-11.63,7.49-15.57.83-1.46,1.43-.9,2.94-.9l-4.33,20.03h-16.3c0-.85.56-1.55,1.28-1.63Z"/>
              <path class="cls-36" d="M180.29,83.24c.02-.67.45-1.34,1.08-1.51.64-.09,1.34-.11,2.01-.17,10.91-1.05,11.08-4.84,13.1-12.96.33-1.31.74-2.59,1.31-3.81.71-1.39.79-1.69,2.11-1.61.34.02.68.04,1.02.02-.9-.04-1.49-.28-2.05-.11-1.24.41-2.46,4.13-2.83,5.38-2.31,7.65-1.57,11.24-12.7,12.8-.67.11-1.33.16-2.02.31-.7.23-1.07.99-1.03,1.65Z"/>
            </g>
            <path class="cls-2" d="M310.44,70.82l11.94-.63.21-1.86c.18-1.57-1.07-2.94-2.64-2.89-2.21.07-5.22.43-7.51,1.72-4.08,2.3-1.99,3.66-1.99,3.66Z"/>
            <g>
              <path class="cls-37" d="M324.47,68.21s3.34-3.86,4.56-4.7c1.21-.84,2.3-4.31,2.3-4.31l2.56-.62s-.81,2.63-1.23,4.47c-.42,1.84-5.33,4.88-5.33,4.88-.4.06-1.1,1.59-1.21,1.82-.41.89-.71,2.47-.71,2.47-.52.24-.72-.28-.72-.28-.22.23-.9-.12-.9-.12-.56.14-.75-.16-.75-.16-.67.19-.91-.09-.91-.09-.49-1.01,1.22-2,2.33-3.36Z"/>
              <path class="cls-15" d="M336.53,76.83c-.12.13-10.08,1.11-11,1.13,0,0-13.14,8.29-13.77,8.31-.63.01-3.61-4.78-3.61-4.78,0,0,1.19-.4,4.02,1.75.27.2,9-7.41,9.6-8.04.72-.75,7.87-2.68,7.87-2.68l6.89,4.31Z"/>
              <path class="cls-6" d="M337.28,54.41s4.67,1.61,4.24,7.38c-.21,2.84-2.34,15.3-4.38,15.92,0,0-9.83,1.61-11.08-.82-2.32-4.48-3-2.97-4.98-6.64,1.21-.65,4.22,1.65,7.6.09,1.56-.72,1.35-3.06,1.33-4.31-.08-3.94,2.01-11.52,4.64-11.57l2.63-.06Z"/>
              <path class="cls-18" d="M339.18,74.03c-.04-.06-6.68-3.62-9.27-6.63l-.85,2.34c2.56,2.53,9.32,4.74,10.12,4.88v-.59Z"/>
              <path class="cls-15" d="M336.8,50.92l.73,1.1s-.16,2.93-.74,3.45c-.58.52-2.17.65-3.01.21-.84-.45-.24-3.39-.24-3.39l3.26-1.37Z"/>
              <path class="cls-26" d="M336.8,50.92l.73,1.1s-.01.28-.05.67c-.25.76-.74,1.61-1.68,2.09-.74.38-1.6.46-2.38.29-.24-1,.12-2.79.12-2.79l3.26-1.37Z"/>
              <path class="cls-15" d="M337.74,50.71s.06,2.48-1.95,3.44c-1.81.87-3.59.05-4.24-1.59-.65-1.63-.41-1.73-.93-3.19-.52-1.46,1.18-3.78,4.19-2.96,3.01.82,2.93,4.3,2.93,4.3Z"/>
              <path class="cls-15" d="M331.63,70.81s3.34-3.86,4.56-4.7c1.21-.84,1.91-3.66,1.91-3.66l2.95-1.26s-.81,2.63-1.22,4.47c-.42,1.84-5.33,4.88-5.33,4.88-.4.06-1.1,1.59-1.21,1.82-.41.89-.71,2.48-.71,2.48-.52.24-.72-.28-.72-.28-.22.23-.9-.12-.9-.12-.56.14-.75-.16-.75-.16-.67.19-.91-.09-.91-.09-.49-1.01,1.22-2,2.33-3.36Z"/>
              <path class="cls-35" d="M337.79,63.79c-.15-.3-1.41-8.05-.09-8.28,2.75-.48,5.98,4.62,4.01,10.15-1.41-1.58-1.97-1.74-3.92-1.87Z"/>
              <path class="cls-37" d="M336.78,49.32s.22-.94.8-.63c.57.31.49,2.08-.12,2.04-.62-.04-.67-1.42-.67-1.42Z"/>
              <path class="cls-26" d="M336.87,49.95s.04-.76.44-.54c.39.22.26,1.24-.07,1.16-.33-.08-.37-.62-.37-.62Z"/>
              <path class="cls-23" d="M333.23,51.16c.25.09.47.22.66.4-.75-.29-.82-.54-1.17.11.04-.3.25-.6.52-.51Z"/>
              <path class="cls-23" d="M335.24,49.49c.15-.17-.58-.55-1.23-.4-.11.03-.07.19.04.16.65-.15,1.07.23,1.07.24.03.03.08.03.12,0Z"/>
              <path class="cls-23" d="M331.63,49.78c.31-.58.74-.32.75-.51,0-.18-.61-.11-.9.43-.02.04,0,.09.03.11.04.02.09,0,.11-.03Z"/>
              <path class="cls-23" d="M334.55,50.21c-.16,0-.31,0-.43.05,0-.02,0-.05,0-.07.01-.22.23-.39.48-.38.25.01.45.21.44.43,0,.03,0,.06-.02.09-.13-.06-.29-.11-.47-.12Z"/>
              <path class="cls-23" d="M331.98,50.41c-.16.03-.3.08-.41.14,0-.02-.02-.04-.02-.07-.04-.22.13-.43.38-.48.25-.04.48.1.52.32,0,.03,0,.06,0,.09-.14-.03-.31-.04-.48,0Z"/>
              <path class="cls-42" d="M326.27,76.78c2.42-.25,7.26-1.76,8.92-1.94,4.44-.47,5.26-11.63,7.49-15.57.83-1.46,1.43-.9,2.94-.9l-4.33,20.03h-16.3c0-.85.56-1.55,1.28-1.63Z"/>
              <path class="cls-36" d="M324.99,78.4c.02-.67.45-1.34,1.08-1.51.64-.09,1.34-.11,2.01-.17,10.91-1.05,11.08-4.84,13.1-12.96.33-1.31.74-2.59,1.31-3.81.71-1.39.79-1.69,2.11-1.61.34.02.68.04,1.02.02-.9-.04-1.49-.28-2.05-.11-1.24.41-2.46,4.13-2.83,5.38-2.31,7.65-1.57,11.24-12.7,12.8-.67.11-1.33.16-2.02.31-.7.23-1.07.99-1.03,1.65Z"/>
            </g>
            <path class="cls-41" d="M336.78,46.89s.18.34.96,1.12c.78.78,1.3,1.82,1.3,1.82,0,0-2.22-.62-3.18-1.08-.96-.46-1.22-1.26-1.22-1.26,0,0-.19,1.06.18,1.43.37.37-1.78-.23-1.78-1.43,0,0,.1.76.1,1.26,0,0-1.31-.27-1.68-.65-.38-.38-.93-.53-.6-1.2.33-.67,1.16-1.55,2.47-1.55s2.8.9,3.45,1.55Z"/>
            <path class="cls-43" d="M335.11,52.08s-1.62.59-2.4.59c0,0,.58.84,1.42.57.84-.27.98-1.16.98-1.16Z"/>
            <path class="cls-43" d="M293.54,17.16c.03-.13-.16-.18-.19-.05-.01.04-.29,1-1.25,1.06-.05,0-.1.05-.09.11.02.29,1.22-.04,1.54-1.12Z"/>
            <path class="cls-49" d="M281.77,66.98c.19-.28.12-.66-.16-.86-.41-.28-4.04-2.73-6.19-2.37-1.13.19-2.54.58-3.53.88-.77.23-1.61.18-2.35-.14l-6.19-2.74c-.21-.09-.21-.39,0-.47,1.29-.5,1.55-1.26,1.54-1.81-.03-2-3.4-2.64-4.08-2.75-.34-.05-.65.17-.7.51-.05.34.17.65.51.7,1.8.29,4.29,1.41,2.28,2.2-1.24.48-1.24,2.22-.05,2.74l6.19,2.74c1.01.45,2.15.52,3.2.2.95-.29,2.31-.67,3.37-.85,1.41-.24,4.3,1.49,5.29,2.17.28.19.66.12.86-.16Z"/>
            <path class="cls-37" d="M277.38,62.77l.95-.26c4.24-2.64,9.36-6.71,11.89-11.67,3.38-6.65,6.95-18.06,9.41-24,2.24-5.4,7.74-4.17,7.77,1.68.01,2.61-.85,8.43-2.44,13.23-3.55,10.69-24.06,23.06-24.06,23.06-.54.54-1.76,2.3-2.28,2.3s-2.23-.33-2.23-.33c-.12,0-.23-.06-.32-.15-.38-.36-.62-.55-1.09-.77-.1-.05-.47-.14-.57-.19-.81-.48,1.32-2.44,2.98-2.9Z"/>
            <path class="cls-37" d="M263.65,59.56s.19-1.07.62-1.67c.76-1.05-3.05-1.09-3.05-1.09h0c-.61.39-.84,1.17-.53,1.83.21.45.49.85.81.85.74,0,.68.81,1.43.49.75-.32.71-.4.71-.4Z"/>
            <polygon class="cls-16" points="269 63.81 267.68 66.79 264.77 65.6 265.92 62.42 269 63.81"/>
          </g>
        </g>
      </g>
    </g>
  </g>
</svg>