<?xml version="1.0" encoding="UTF-8"?>
<svg id="_レイヤー_2" data-name="レイヤー 2" xmlns="http://www.w3.org/2000/svg" viewBox="0 0 215.48 162.05">
  <defs>
    <style>
      .cls-1 {
        fill: #fff;
        stroke-width: 0px;
      }
    </style>
  </defs>
  <g id="pc">
    <g>
      <g>
        <path class="cls-1" d="M70.85,4.65c-2.79,6.8-3.63,14.23-2.55,22.62l17.39-4.37c-3.25-10.2-8.7-15.67-13.46-18.59,1.52-.63,2.48-1.8,2.21-2.85-.31-1.21-2.15-1.79-4.12-1.28-1.96.5-3.3,1.9-2.98,3.11.28,1.08,1.79,1.61,3.51,1.36Z"/>
        <path class="cls-1" d="M130.32,38.29c-2.02,0-3.67,1.64-3.67,3.67s1.64,3.67,3.67,3.67,3.67-1.64,3.67-3.67-1.64-3.67-3.67-3.67Z"/>
        <path class="cls-1" d="M148.34,47.66c2.02,0,3.67-1.64,3.67-3.67s-1.64-3.67-3.67-3.67-3.67,1.64-3.67,3.67,1.64,3.67,3.67,3.67Z"/>
        <path class="cls-1" d="M138.82,52.96c-2.23-.39-4.17-1.72-5.33-3.67l-3.24,1.93c1.72,2.89,4.61,4.88,7.93,5.46.67.12,1.34.17,2,.17,2.42,0,4.77-.77,6.77-2.23l-2.23-3.04c-1.71,1.25-3.8,1.75-5.89,1.38Z"/>
        <path class="cls-1" d="M90.23,41.96c0-2.02-1.64-3.67-3.67-3.67s-3.67,1.64-3.67,3.67,1.64,3.67,3.67,3.67,3.67-1.64,3.67-3.67Z"/>
        <path class="cls-1" d="M68.54,40.33c-2.02,0-3.67,1.64-3.67,3.67s1.64,3.67,3.67,3.67,3.67-1.64,3.67-3.67-1.64-3.67-3.67-3.67Z"/>
        <path class="cls-1" d="M78.71,56.67c3.31-.57,6.21-2.56,7.93-5.46l-3.24-1.93c-1.16,1.95-3.1,3.28-5.33,3.67-2.1.37-4.18-.13-5.89-1.38l-2.23,3.04c2,1.46,4.35,2.23,6.77,2.23.66,0,1.33-.06,2-.17Z"/>
        <path class="cls-1" d="M168.47,17.05c-.91-1.2-5.84,2.6-9.69,5.86-.17-.18-.36-.36-.57-.52-.55-.41-1.16-.65-1.78-.77.95-4.74,2.12-12.23.28-13.05-2.71-1.21-6.87.04-9.07,1.28-1.4.79,2.17,6.86,4.96,11.21-5.58-4.16-12.47-6.65-19.95-6.65-6.72,0-13.2,1.98-18.74,5.73l3.65,5.39c4.46-3.02,9.68-4.61,15.1-4.61,14.89,0,27,12.12,27,27.01s-12.11,27-27,27c-7.88,0-15.13-3.37-20.17-9.07l8.22-11.04c4.53-6.08,3.91-14.56-1.46-19.93h0c-1.76-1.76-3.85-2.93-6.05-3.65-4.27-7.22-10.95-12.58-18.78-15.16-2.86-7.62-10.16-12.56-18.12-12.59,4.59,3.51,9.35,9.27,12.3,18.69l1.52-.38c5.76,1.39,10.88,4.61,14.68,9.13-2.62.64-5.11,1.93-7.15,3.98h0c-5.36,5.36-5.98,13.84-1.46,19.93l7.94,10.68c1.07,1.74,2.28,3.36,3.61,4.85l.7.95.08-.11c6.21,6.47,14.83,10.25,24.13,10.25,18.48,0,33.51-15.03,33.51-33.51,0-7.52-2.52-14.44-6.72-20.04.07-.14.13-.27.19-.41,4.74.2,10.86.11,11.36-1.62.82-2.85-1-6.8-2.53-8.8ZM108.44,50.93c-3.25,0-5.88-2.63-5.88-5.88s2.63-5.88,5.88-5.88,5.88,2.63,5.88,5.88-2.63,5.88-5.88,5.88Z"/>
        <path class="cls-1" d="M83.6,76.43c-15.28,0-27.71-12.43-27.71-27.71,0-8.22,3.62-15.6,9.32-20.68l.19-.05c-1.1-8.18-.47-15.53,1.89-22.31-6.5,3.34-10.61,10.06-10.57,17.36l-10.39,2.61c-1.85.47-2.98,2.35-2.51,4.2.47,1.85,2.35,2.98,4.2,2.51l6.29-1.58c-3.22,5.23-5.1,11.36-5.1,17.94,0,18.97,15.43,34.39,34.39,34.39,7.5,0,14.63-2.37,20.62-6.87l-4.01-5.35c-4.82,3.62-10.57,5.53-16.61,5.53Z"/>
      </g>
      <g>
        <path class="cls-1" d="M14.18,113.55c-.08,1.13-.83,2.79-2.3,2.38-.87-.38-2.38-.87-3.62-.87-1.85,0-3.32.91-3.32,2.57s1.28,2.64,4.75,4.49c3.66,1.96,5.43,3.39,5.43,6.98,0,4.64-4.11,7.28-8.6,7.28-2.68,0-4.64-.79-5.62-1.47-.64-.45-.91-.91-.91-1.4,0-.83.6-2.19.94-2.49,1.4.94,3.7,1.89,5.54,1.89,2.11,0,3.85-.91,3.85-2.9,0-1.66-.83-2.57-4.45-4.41-4.71-2.38-5.47-4.79-5.47-7.32s1.77-6.6,8.03-6.6c1.89,0,4.6.75,5.73,1.89Z"/>
        <path class="cls-1" d="M42.13,123.81c0,6.68-4.22,12.56-12.3,12.56-8.71,0-12.15-6.49-12.15-12.15,0-7.13,4.6-12.56,12.37-12.56,7.35,0,12.07,5.21,12.07,12.14ZM22.93,123.77c0,6.15,3.39,9.47,7.28,9.47,4.19,0,6.79-3.32,6.79-9.13,0-4.87-2.45-9.32-7.35-9.32-3.58,0-6.71,2.87-6.71,8.98Z"/>
        <path class="cls-1" d="M46.32,117.06c0-2.57-.04-3.32-.08-4.3.87-.19,4.6-.72,7.77-.72,11.39,0,13.43,6.79,13.43,11.62,0,8.15-5.96,12.52-13.69,12.52-2.83,0-5.02-.19-7.43-.72v-18.41ZM51.18,132.75c.94.23,1.92.3,2.87.3,3.17,0,8.22-1.51,8.22-9.28,0-5.58-3.24-8.56-8.75-8.56-1.09,0-1.81.08-2.34.15v17.39Z"/>
        <path class="cls-1" d="M76.34,129.58c-.83,2.04-1.85,4.71-2.34,5.88-.15.38-.45.57-1.09.57-.91,0-2.79-.23-3.62-.49v-.15c1.96-4.64,7.77-18.52,9.24-22.03l-.3-.79c1.43-.3,3.7-.45,4.11-.45.34,0,.68.23.91.68,1.74,4.15,4.6,11.5,5.88,14.75,1.58,3.92,2.53,6.26,3.28,7.88v.15c-.87.26-3.47.45-4.34.45-.6,0-.94-.19-1.32-1.21-.72-1.92-1.21-3.21-1.96-5.24h-8.45ZM83.77,126.22c-1.66-4.6-2.72-7.2-3.17-8.52-.87,2.45-2,5.58-3.13,8.52h6.3Z"/>
        <path class="cls-1" d="M101.12,115.62h-6.79c-.64,0-.98-.3-.68-1.17.41-1.25.94-2,1.32-2.41.6.15,1.62.19,5.43.19h13.54c-.15,2.07-1.24,3.17-2.04,3.39h-5.92v15.5c0,2.6.08,3.85.11,4.6-1.09.19-2.6.3-4.15.3-.57,0-.83-.11-.83-.68v-19.73Z"/>
        <path class="cls-1" d="M116.96,117.51c0-1.81,0-3.13-.11-4.75,1.09-.26,2.83-.49,4.45-.53h9.24c-.19,1.77-.72,2.64-1.21,3.13-.57.26-1.89.26-3.58.26h-3.92v6.34h8.34c-.42,2.9-1.21,3.39-2.53,3.39h-5.81v7.05c.87.15,2.07.23,3.47.23,1.55,0,4.45,0,6.3-.15l.08.08c-.38,1.77-1.13,2.75-2.11,3.28-.53.11-2.19.19-5.13.19-3.47,0-5.96-.19-6.86-.38l-.6-.75v-17.39Z"/>
        <path class="cls-1" d="M143.86,117.21c0-2.53-.04-4.07-.11-4.79.72-.11,3.39-.3,4.22-.3.68,0,.75.34.75,1.96v9.73c2.79-3.24,7.09-8.52,9.66-11.88.72,0,1.77.08,2.79.26,1.43.23,1.43.76.64,1.81-1.66,2.07-5.54,6.52-8.07,9.5,1.92,2.79,7.09,9.35,9.58,11.88v.19c-.3.19-2.11.53-4,.53-1.17,0-1.85-.3-2.9-1.62-1.81-2.19-6.98-8.9-7.69-10.07v6.68c0,2.64.08,3.88.11,4.64-.64.19-3.24.3-4.11.3-.6,0-.87-.11-.87-.72v-18.1Z"/>
        <path class="cls-1" d="M166.41,117.21c0-2.53-.04-4.07-.11-4.79.72-.11,3.39-.3,4.19-.3.68,0,.79.34.79,2.08v16.9c0,2.64.08,3.88.11,4.64-.64.19-3.24.3-4.15.3-.57,0-.83-.11-.83-.75v-18.07Z"/>
        <path class="cls-1" d="M176.9,117.06c0-2.57-.04-3.32-.08-4.3.87-.19,4.6-.72,7.77-.72,11.39,0,13.43,6.79,13.43,11.62,0,8.15-5.96,12.52-13.69,12.52-2.83,0-5.02-.19-7.43-.72v-18.41ZM181.76,132.75c.94.23,1.92.3,2.87.3,3.17,0,8.22-1.51,8.22-9.28,0-5.58-3.24-8.56-8.75-8.56-1.09,0-1.81.08-2.34.15v17.39Z"/>
        <path class="cls-1" d="M214.54,113.55c-.08,1.13-.83,2.79-2.3,2.38-.87-.38-2.38-.87-3.62-.87-1.85,0-3.32.91-3.32,2.57s1.28,2.64,4.75,4.49c3.66,1.96,5.43,3.39,5.43,6.98,0,4.64-4.11,7.28-8.6,7.28-2.68,0-4.64-.79-5.62-1.47-.64-.45-.91-.91-.91-1.4,0-.83.6-2.19.94-2.49,1.4.94,3.7,1.89,5.54,1.89,2.11,0,3.85-.91,3.85-2.9,0-1.66-.83-2.57-4.45-4.41-4.71-2.38-5.47-4.79-5.47-7.32s1.77-6.6,8.03-6.6c1.89,0,4.6.75,5.73,1.89Z"/>
      </g>
      <g>
        <path class="cls-1" d="M32.64,154.83c0,3.84-2.43,7.22-7.07,7.22-5.01,0-6.98-3.73-6.98-6.98,0-4.1,2.65-7.22,7.11-7.22,4.23,0,6.94,2.99,6.94,6.98ZM21.6,154.81c0,3.54,1.95,5.44,4.19,5.44,2.41,0,3.9-1.91,3.9-5.25,0-2.8-1.41-5.36-4.23-5.36-2.06,0-3.86,1.65-3.86,5.16Z"/>
        <path class="cls-1" d="M37.21,151.25c0-1.04,0-1.93-.09-2.95.56-.09,2.02-.24,3.62-.24,3.3,0,5.64,1.17,5.64,4.4s-2.65,4.32-4.08,4.34c-.39,0-.87-.02-1.17-.19-.35-.15-.74-.85-.74-1.56.15.04.48.07.74.07,1,0,2.36-.5,2.36-2.62s-1.39-2.6-2.65-2.6c-.24,0-.56,0-.85.04v9.17c0,1.54.04,2.15.07,2.58-.37.11-1.78.17-2.36.17-.35,0-.5-.06-.5-.39v-10.22Z"/>
        <path class="cls-1" d="M50.87,151.21c0-1.04,0-1.8-.07-2.73.63-.15,1.63-.28,2.56-.3h5.31c-.11,1.02-.41,1.52-.69,1.8-.33.15-1.08.15-2.06.15h-2.26v3.64h4.79c-.24,1.67-.69,1.95-1.45,1.95h-3.34v4.06c.5.09,1.19.13,2,.13.89,0,2.56,0,3.62-.09l.04.04c-.22,1.02-.65,1.58-1.21,1.89-.3.07-1.26.11-2.95.11-2,0-3.43-.11-3.95-.22l-.35-.43v-10Z"/>
        <path class="cls-1" d="M63.19,148.41v-.13c.41-.07,2.36-.17,2.73-.17.22,0,.41.15.61.39.72,1.02,2.43,3.69,3.97,6.05.98,1.54,1.71,2.67,2.26,3.75-.15-1.56-.13-2.36-.13-3.47v-6.03c0-.5.17-.59.48-.61.67-.07,1.43-.09,1.87-.09-.04.93-.07,2.19-.07,3.99v9.54c-.2.09-1.5.35-2.13.35-.26,0-.39-.07-.56-.3-1.08-1.54-2.15-3.17-3.95-5.96-1.11-1.76-1.63-2.89-2.52-4.51.13,2.1.11,3.21.11,4.32v5.66c0,.45-.13.52-.5.59-.39.06-1.19.11-1.84.09.04-.87.07-2.13.07-3.95v-8.96l-.39-.54Z"/>
        <path class="cls-1" d="M82.73,160.34c0,1-.65,1.63-1.67,1.63-.74,0-1.58-.48-1.58-1.56,0-.89.59-1.63,1.74-1.63.91,0,1.52.67,1.52,1.56ZM82.73,149.17c0,1.28-.52,6.36-.65,7.25-.07.39-.33.48-.52.56-.54.13-1.02.24-1.15.24-.13-.91-.65-6.68-.67-8.13.09-.24,1.82-.52,2.54-.52.35,0,.46.04.46.61Z"/>
        <path class="cls-1" d="M94.53,151.03c0-1.45-.02-2.34-.07-2.76.41-.07,1.95-.17,2.43-.17.39,0,.43.19.43,1.13v5.6c1.6-1.87,4.08-4.9,5.55-6.83.41,0,1.02.04,1.6.15.82.13.82.43.37,1.04-.95,1.19-3.19,3.75-4.64,5.47,1.11,1.6,4.08,5.38,5.51,6.83v.11c-.17.11-1.21.3-2.3.3-.67,0-1.06-.17-1.67-.93-1.04-1.26-4.01-5.12-4.42-5.79v3.84c0,1.52.04,2.23.07,2.67-.37.11-1.87.17-2.36.17-.35,0-.5-.06-.5-.41v-10.41Z"/>
        <path class="cls-1" d="M109.66,151.03c0-1.45-.02-2.34-.07-2.76.41-.07,1.95-.17,2.41-.17.39,0,.46.19.46,1.19v9.72c0,1.52.04,2.23.07,2.67-.37.11-1.87.17-2.39.17-.33,0-.48-.06-.48-.43v-10.39Z"/>
        <path class="cls-1" d="M117.86,150.95c0-1.47-.02-1.91-.04-2.47.5-.11,2.65-.41,4.47-.41,6.55,0,7.72,3.9,7.72,6.68,0,4.68-3.43,7.2-7.87,7.2-1.63,0-2.88-.11-4.27-.41v-10.58ZM120.66,159.97c.54.13,1.11.17,1.65.17,1.82,0,4.73-.87,4.73-5.34,0-3.21-1.87-4.92-5.03-4.92-.63,0-1.04.04-1.34.09v10Z"/>
        <path class="cls-1" d="M139.87,152.68c0,.65-.28,1.6-1.13,1.41-.39-.17-.91-.33-1.41-.33-.63,0-1.06.3-1.06.8,0,.43.3.67.76.91.41.26,1.41.69,1.82.91,1.19.65,1.54,1.47,1.54,2.41,0,2.15-1.95,3.19-3.95,3.19-.78,0-1.67-.19-2.26-.54-.35-.2-.63-.46-.63-.89,0-.52.24-.98.5-1.28.69.45,1.71.85,2.56.85.74,0,1.21-.3,1.21-.87,0-.35-.2-.61-.78-.93-.56-.3-1.13-.54-1.76-.89-.91-.5-1.52-1.32-1.52-2.47,0-1.95,1.69-3.04,3.6-3.04.95,0,1.78.24,2.49.76Z"/>
        <path class="cls-1" d="M162.75,148.41c.33-.17,1.87-.3,2.39-.3.22,0,.35.13.43.67l1.15,7.96c.33,2.28.56,3.88.76,4.92-.37.11-1.78.2-2.23.2-.28,0-.56-.11-.61-.54-.15-1.11-.26-2.3-.5-4.6l-.61-5.33c-.59,1.86-1.8,5.4-3.19,9.48-.13.43-.3.61-.8.72-.39.07-.93.15-1.41.15-.52-1.67-2.36-7.31-3.32-10.3-.26,2.6-.89,7.51-1.19,10.06-.04.24-.17.37-.41.37-.61,0-1.69,0-2.04-.2.37-2.32,1.26-7.89,2.06-12.84l-.07-.41c.59-.11,1.41-.3,2.45-.3.33.07.5.35.89,1.41l2.86,7.94c1.06-2.69,2.47-6.51,3.38-8.72v-.32Z"/>
        <path class="cls-1" d="M174.9,158.15c-.48,1.17-1.06,2.71-1.34,3.38-.09.22-.26.32-.63.32-.52,0-1.6-.13-2.08-.28v-.09c1.13-2.67,4.47-10.65,5.31-12.67l-.17-.45c.82-.17,2.13-.26,2.36-.26.2,0,.39.13.52.39,1,2.39,2.65,6.62,3.38,8.48.91,2.26,1.45,3.6,1.89,4.53v.09c-.5.15-2,.26-2.49.26-.35,0-.54-.11-.76-.69-.41-1.11-.69-1.84-1.13-3.01h-4.86ZM179.17,156.22c-.95-2.65-1.56-4.14-1.82-4.9-.5,1.41-1.15,3.21-1.8,4.9h3.62Z"/>
        <path class="cls-1" d="M188.23,151.25c0-1.04,0-1.93-.09-2.95.56-.09,2.02-.24,3.62-.24,3.3,0,5.64,1.17,5.64,4.4s-2.65,4.32-4.08,4.34c-.39,0-.87-.02-1.17-.19-.35-.15-.74-.85-.74-1.56.15.04.48.07.74.07,1,0,2.36-.5,2.36-2.62s-1.39-2.6-2.65-2.6c-.24,0-.56,0-.85.04v9.17c0,1.54.04,2.15.07,2.58-.37.11-1.78.17-2.36.17-.35,0-.5-.06-.5-.39v-10.22Z"/>
      </g>
    </g>
  </g>
</svg>