<?xml version="1.0" encoding="UTF-8"?>
<svg id="_レイヤー_2" data-name="レイヤー 2" xmlns="http://www.w3.org/2000/svg" viewBox="0 0 82.16 84.93">
  <defs>
    <style>
      .cls-1 {
        fill: #000;
        stroke-width: 0px;
      }
    </style>
  </defs>
  <g id="pc">
    <g>
      <path class="cls-1" d="M81.55,84.93c-.18,0-.35-.07-.47-.22C56.41,55.51,29.2,27.37.2,1.07-.05.85-.07.46.16.2.39-.05.78-.07,1.03.16c29.03,26.33,56.28,54.51,80.99,83.75.22.26.19.65-.07.87-.12.1-.26.15-.4.15Z"/>
      <path class="cls-1" d="M74.38,84.58c-.17,0-.34-.07-.47-.21-9.34-10.78-19.12-21.54-29.05-31.98-.24-.25-.23-.64.02-.87.25-.23.64-.23.87.02,9.95,10.45,19.74,21.22,29.09,32.02.22.26.2.65-.06.87-.12.1-.26.15-.4.15Z"/>
    </g>
  </g>
</svg>