<?xml version="1.0" encoding="UTF-8"?>
<svg id="_レイヤー_2" data-name="レイヤー 2" xmlns="http://www.w3.org/2000/svg" viewBox="0 0 300.21 163.61">
  <defs>
    <style>
      .cls-1 {
        fill: #890d00;
      }

      .cls-1, .cls-2, .cls-3, .cls-4, .cls-5, .cls-6, .cls-7, .cls-8, .cls-9, .cls-10, .cls-11, .cls-12, .cls-13, .cls-14, .cls-15, .cls-16, .cls-17, .cls-18, .cls-19, .cls-20, .cls-21, .cls-22, .cls-23, .cls-24, .cls-25, .cls-26, .cls-27, .cls-28, .cls-29, .cls-30, .cls-31, .cls-32, .cls-33, .cls-34, .cls-35, .cls-36, .cls-37, .cls-38, .cls-39, .cls-40, .cls-41, .cls-42, .cls-43, .cls-44, .cls-45, .cls-46, .cls-47, .cls-48, .cls-49, .cls-50, .cls-51, .cls-52, .cls-53, .cls-54, .cls-55, .cls-56, .cls-57, .cls-58, .cls-59, .cls-60, .cls-61, .cls-62, .cls-63, .cls-64, .cls-65, .cls-66, .cls-67, .cls-68, .cls-69, .cls-70, .cls-71, .cls-72, .cls-73 {
        stroke-width: 0px;
      }

      .cls-2 {
        fill: #48486a;
      }

      .cls-3 {
        fill: #e26666;
      }

      .cls-4 {
        fill: #4247a2;
      }

      .cls-5 {
        fill: #fd5e5a;
      }

      .cls-6 {
        fill: #ffc863;
      }

      .cls-7 {
        fill: #183744;
      }

      .cls-8 {
        fill: #0a5769;
      }

      .cls-9 {
        fill: #c34b3e;
      }

      .cls-10 {
        fill: #552e5d;
      }

      .cls-11 {
        fill: #0b1742;
      }

      .cls-12 {
        fill: #4f005e;
      }

      .cls-13 {
        fill: #172866;
      }

      .cls-14 {
        fill: #55566e;
      }

      .cls-15 {
        fill: #457686;
      }

      .cls-16 {
        fill: #165568;
      }

      .cls-17 {
        fill: #2e385d;
      }

      .cls-18 {
        fill: #d2c7b4;
      }

      .cls-19 {
        fill: #61306d;
      }

      .cls-20 {
        fill: #9dbdc5;
      }

      .cls-21 {
        fill: #3c4875;
      }

      .cls-22 {
        fill: blue;
      }

      .cls-23 {
        fill: #780035;
      }

      .cls-24 {
        fill: #1b2b5c;
      }

      .cls-25 {
        fill: #fbb03b;
      }

      .cls-26 {
        fill: #ff7b12;
      }

      .cls-27 {
        fill: #18287d;
      }

      .cls-28 {
        fill: #ff8f8f;
      }

      .cls-29 {
        fill: #ff9739;
      }

      .cls-30 {
        fill: #0000bf;
      }

      .cls-31 {
        fill: #36453e;
      }

      .cls-32 {
        fill: #2846a6;
      }

      .cls-33 {
        fill: #000;
      }

      .cls-34 {
        fill: #95baf9;
      }

      .cls-35 {
        fill: #625ca0;
      }

      .cls-36 {
        fill: #5a93a0;
      }

      .cls-37 {
        fill: #b25400;
      }

      .cls-38 {
        fill: #757ad8;
      }

      .cls-39 {
        fill: #0cb8ed;
      }

      .cls-40 {
        fill: #f96969;
      }

      .cls-41 {
        fill: #dde0e5;
      }

      .cls-42 {
        fill: #023135;
      }

      .cls-43 {
        fill: #42004a;
      }

      .cls-44 {
        fill: #102e35;
      }

      .cls-45 {
        fill: #1c3135;
      }

      .cls-46 {
        fill: #f57408;
      }

      .cls-47 {
        fill: #7ca7b3;
      }

      .cls-48 {
        fill: #ff8585;
      }

      .cls-49 {
        fill: #11404e;
      }

      .cls-50 {
        fill: #000086;
      }

      .cls-51 {
        fill: #013c66;
      }

      .cls-52 {
        fill: #503c1a;
      }

      .cls-53 {
        fill: #111f59;
      }

      .cls-54 {
        fill: #ababdc;
      }

      .cls-55 {
        fill: #b51e0f;
      }

      .cls-56 {
        fill: #451a4f;
      }

      .cls-57 {
        fill: #ec7171;
      }

      .cls-58 {
        fill: #b9bcfc;
      }

      .cls-59 {
        fill: #efae1a;
      }

      .cls-60 {
        fill: #fff;
      }

      .cls-61 {
        fill: #fc7575;
      }

      .cls-62 {
        fill: #ff9739;
      }

      .cls-63 {
        fill: #ffda88;
      }

      .cls-64 {
        fill: #6dd5f4;
      }

      .cls-65 {
        fill: #9b4841;
      }

      .cls-66 {
        fill: #fff7cf;
      }

      .cls-67 {
        fill: #263249;
      }

      .cls-68 {
        fill: #1f1a15;
      }

      .cls-69 {
        fill: #000059;
      }

      .cls-70 {
        fill: #0882d5;
      }

      .cls-71 {
        fill: #0e7998;
      }

      .cls-72 {
        fill: #001959;
      }

      .cls-73 {
        fill: #fffaef;
      }
    </style>
  </defs>
  <g id="pc">
    <g>
      <g>
        <polygon class="cls-44" points="292.68 39.28 297.37 29.18 295.45 24.26 290.62 32.77 292.68 39.28"/>
        <ellipse class="cls-18" cx="158.76" cy="156.66" rx="124.66" ry="6.83"/>
        <g>
          <path class="cls-29" d="M44.47,92.37s-3.8-15.19-12.95-19.32c-9.15-4.12-9.38,7.38-3.35,16.03,6.03,8.65,21.77,18.47,21.77,18.47l-5.47-15.18Z"/>
          <path class="cls-49" d="M49.94,108.22c.13,0,.26-.04.37-.11.31-.21.39-.62.18-.93l-18.2-27.24c-.2-.31-.62-.39-.93-.18-.31.21-.39.62-.18.93l18.2,27.24c.13.19.34.3.56.3Z"/>
          <path class="cls-16" d="M82.89,111.36s3.52,5.86-2.01,11.39c-5.53,5.53-23.11,1.51-23.11,1.51,0,0,1.91-8.64,9.38-12.06,7.46-3.42,13.56-6.03,15.74-.84Z"/>
          <path class="cls-15" d="M52.65,119.38s-6.36-3.8-8.73-25.43c-2.38-21.63,7.13-29.95,14.74-27.81,7.61,2.14,8.79,19.25,4.28,34.7-4.52,15.45-10.28,18.54-10.28,18.54Z"/>
          <path class="cls-55" d="M54.68,120.46s-3.29-18.73-.65-18.73,3.29,2.21,3.29,2.21c0,0-1.56-10.72,1.34-13.62,2.9-2.9,4.91-2.23,4.91-2.23,0,0-5.8-11.05,4.47-15.63,4.93-2.2,8.07,1.06,8.07,1.06,0,0,3.96-10.73,12.7-5.53,7.31,4.35,1.12,12.73,1.12,12.73,0,0,4.91,4.02,2.23,11.16-2.68,7.14-8.26,6.03-8.26,6.03,0,0,3.35,4.47,0,7.81-3.35,3.35-10.66,1.79-10.66,1.79,0,0,3.26.98,0,4.24-3.26,3.26-18.55,8.71-18.55,8.71Z"/>
          <path class="cls-9" d="M49.74,127.51s-2.32-17.58-4.19-19.45c-1.94-1.94-2.51.83-2.51.83,0,0-1.57-13.53-5.24-15.38-3.66-1.85-5.66,2.28-5.66,2.28,0,0,1.31-14.61-9.87-15.75-5.37-.54-6.58,5.83-6.58,5.83,0,0-7.12-8.95-13.79-1.28-5.58,6.42,2.92,12.44,2.92,12.44,0,0-6.53,4.19-1.75,10.14,4.78,5.95,12.85,4.31,12.85,4.31,0,0-4.58,4.61-.35,6.75,4.23,2.13,14.53.09,14.53.09,0,0-5.42,2.47-1.3,4.55,4.12,2.08,20.94,4.65,20.94,4.65Z"/>
          <path class="cls-49" d="M56.48,83.39c-.37-.02-.69.17-.72.43l-5.69,52.65c-.03.26.25.48.62.5.02,0,.03,0,.05,0,.35,0,.64-.19.67-.43l5.69-52.65c.03-.26-.25-.48-.62-.5Z"/>
          <path class="cls-49" d="M81.9,91.47l-8.52,2.72c5-6.04,9.12-10.67,9.22-10.79.25-.28.22-.7-.05-.95-.28-.24-.7-.22-.95.05-.51.57-6.51,7.33-12.79,15.13l.78-8.82c.03-.37-.24-.69-.61-.73-.36-.03-.69.24-.73.61l-.96,10.84c-6.38,8.05-12.62,16.77-13.29,20.82-1.36,8.18-2.48,17.13-2.49,17.22-.05.37.21.7.58.75.03,0,.06,0,.08,0,.33,0,.62-.25.66-.59.01-.09,1.13-9.01,2.49-17.16.75-4.48,9.18-15.57,16.47-24.48l10.5-3.35c.35-.11.55-.49.43-.84-.11-.35-.49-.55-.84-.43Z"/>
          <path class="cls-49" d="M71.63,121.28l-3.53-1.2c1.41-.51,2.67-.94,3.52-1.21.35-.11.55-.49.43-.84-.11-.35-.49-.54-.84-.43-.46.15-11.4,3.68-13.91,6.19-2.6,2.6-2.38,10.22-2.37,10.54.01.36.31.65.67.65,0,0,.01,0,.02,0,.37-.01.66-.32.65-.69-.07-2.04.16-7.73,1.98-9.55,1.14-1.14,4.61-2.66,7.87-3.91l5.08,1.73c.07.02.14.04.22.04.28,0,.54-.18.63-.45.12-.35-.07-.73-.42-.85Z"/>
          <path class="cls-49" d="M50.32,127.17c-4.15-6.94-14.76-16.48-23.56-23.73l.2-12.55c0-.37-.29-.67-.66-.68-.35-.02-.67.29-.68.66l-.18,11.49c-6.39-5.21-11.54-9.01-12.04-9.38-.3-.22-.72-.15-.94.14-.22.3-.16.72.14.94.1.07,3.68,2.72,8.62,6.65h-10.45c-.37,0-.67.3-.67.67s.3.67.67.67h12.12c3.42,2.76,7.31,6,11.09,9.38l-8.02,1.46c-.36.07-.61.41-.54.78.06.32.34.55.66.55.04,0,.08,0,.12-.01l9.04-1.64c5.88,5.34,11.3,10.91,13.93,15.3.13.21.35.33.58.33.12,0,.24-.03.34-.09.32-.19.42-.6.23-.92Z"/>
          <rect class="cls-70" x="37.34" y="131.51" width="24.89" height="23.22"/>
          <rect class="cls-8" x="32.54" y="126.93" width="36.39" height="1.9"/>
          <rect class="cls-71" x="34.78" y="128.83" width="31.93" height="4.13"/>
        </g>
        <g>
          <polygon class="cls-68" points="102.94 156.66 100.63 156.66 91.47 117.17 94.8 116.99 102.94 156.66"/>
          <polygon class="cls-68" points="65.57 157.37 67.87 157.37 77.04 117.88 73.71 117.71 65.57 157.37"/>
          <polygon class="cls-68" points="127.2 153.11 129.51 153.11 138.67 113.62 135.34 113.44 127.2 153.11"/>
          <polygon class="cls-68" points="157.79 155.79 155.49 155.79 146.32 116.3 149.66 116.13 157.79 155.79"/>
          <path class="cls-65" d="M156.09,86.59v29.05c0,2.29-2.19,4.15-4.88,4.15h-75.01c-2.7,0-4.88-1.86-4.88-4.15v-29.05c0-2.29,2.19-4.15,4.88-4.15h75.01c2.7,0,4.88,1.86,4.88,4.15Z"/>
          <g>
            <path class="cls-25" d="M106.85,104.74c0,.09,0,.18,0,.26v-1.36s0,1.1,0,1.1Z"/>
            <path class="cls-25" d="M151.2,82.43h0c-2.7,0-4.88,1.86-4.88,4.15v18.15c0,2.29-2.19,4.15-4.89,4.15h-29.7c-2.59,0-4.71-1.72-4.88-3.89l.11,14.78h44.24c2.7,0,4.88-1.86,4.88-4.15v-29.05c0-2.29-2.19-4.15-4.88-4.15Z"/>
          </g>
          <g>
            <path class="cls-61" d="M112.77,71.19c.18.27.56-.57.71-.5,1.98.89,11.38-10.67,12.45-11.91,1.07-1.25,3.13-.98,4.04-.98s2.21-1.47,2.82-1.47-.15,1.87-1.14,2.1-.15,1.34.5,1.56c.65.22,3.07.83,4-.27s2.17-1.52,2.17-1.03-1.98,1.96-1.98,1.96c0,0,2.9-1.38,2.9-.8s-2.52,1.43-2.52,1.43c0,0,1.58-.2,1.91.18.32.38-4.08,1.52-4.88,1.52s-5-1.74-6.37-2.36c-1.37-.62-9.19,17.04-15.29,18.69,0,0-1.17-1.81-2.47-4.32.94-1.37,2.03-2.63,3.15-3.77Z"/>
            <path class="cls-5" d="M121.84,88.88s25.62-5.04,29.37-3.17l-8.26,9.61-4.69,3.92-20.86-6.97,4.45-3.39Z"/>
            <path class="cls-61" d="M114.8,89.58c4.66,3.31,26.49,4.95,31.1,6.68s4.6,6.58,4.6,9.89-10.4,35.76-8.81,38.93c.76,1.52,2.63,2.28,4.37,2.86,1.89.62,3.64,1.02,3.64,1.98,0,.45-11.9-.45-11.9-.45-.31-.64.03-.6.03-4.01,0-3.88.94-35.49,1.96-37.27,1.03-1.78,1.94-2.65,1.94-2.65,0,0-27.26,3.24-30.29,2.11-1.72-.64-4.89-7.29-7.52-13.8l10.88-4.26Z"/>
            <path class="cls-48" d="M151.21,85.71c-1.63-2.3-8.78,3.17-8.78,7.2s10.94,25.77,11.89,29.04c.74,2.56.36,4.45-.26,7.17.43.3.88.58,1.28.91.72.72.9,1.63,1.26,2.71.73,2.54,2.75,3.7,5.09,4.09-.95-3.79-2.79-11.6-3.43-17.29-.86-7.77-2.05-26.79-7.05-33.83Z"/>
            <path class="cls-23" d="M154.24,126.74c.15,0,1.07.18,1.89,2.2.49,1.21,1.06,2.38,1.68,3.53.62,1.15,1.32,2.4,2.5,3.07.61.34,1.31.41,1.97.61.34.11,1.16.34.96.85-.03.08-.1.16-.16.22-.74.74-5.68,0-5.68,0,0,0-1.39-4.57-2.67-4.9-1.28-.33-1.79-1.12-1.79-1.12l1.31-4.45Z"/>
            <path class="cls-39" d="M97.88,56.63c.82-2.32,5.22-4.66,6.76-2.93,0,0,10.73,11.43,9.57,16.47-1.13,4.92-3.95,15.6.28,19.18,4.24-1.16,22.97-6.08,29.63-4.05,0,0-13.44,16.34-11.44,26.48,0,0-19.11-1-21.26-3.15-2.15-2.15-7.49-13.3-7.5-13.33l-1.05-1.88c-1.99-4.94-2.63-9.37-3.14-11.51-1.19-4.97-2.67-22.94-1.85-25.27Z"/>
            <path class="cls-64" d="M110.32,61.71c-1.71-2.76-3.67-5.41-5.68-8.01,3.71,3.45,11.57,11.95,10.41,16.89-.98,4.48-3.22,14.12-.24,17.57,7-1.86,22.41-5.21,29.32-2.87-6.72-1.17-23.35,3.43-29.89,5.21-.11-.32-3.74-1.6-2.92-10.53.55-5.88,2.24-9.36,2.07-11.3-.11-.62-1.77-4.89-3.06-6.97Z"/>
            <g>
              <path class="cls-50" d="M107.96,31.02s-3.74-5-9.57-1.53c-5.83,3.47-1.51,6.08-2.81,7.38-1.29,1.29-3.86-.9-3.86,3.72s2.46,1.31,2.09,2.97c-.37,1.66-2.36-1.73-2.81,2.29-.44,4.02.47,5.38,4.94,5.38s12.02-20.2,12.02-20.2Z"/>
              <path class="cls-69" d="M104.13,42.23c-1.06,5.36-5.19,3.88-5.39,8.43-.08,1.69.44,3.47,1.43,4.91,1.77,2.57,4.79,1.17,4.79,1.17,0,0-2.36-1.12-1.97-1.7,0,0,2.18,2.29,3.73,1.41s2.02-1.87,2.02-1.87c0,0-3.02.22-1.49-1.65,1.07-1.3,2.81-2.65,3.94-4.71.84-1.53-1-4.54-1.54-7.05-1.84-1.55-3.83-2.96-5.87-4.31.16,1.79.7,3.58.34,5.37Z"/>
              <path class="cls-61" d="M107.96,47.9s-1.91,1.87-2.21,4.37c-.16,1.35-.23,3.08-.02,4.13.22,1.11-.24,1.91-1.34,2.12-.68.13-1.45.1-2.18-.36-1.17-.72-2.9-1.97-3.21-3.47-.21-1,5.37-10.85,5.37-10.85l3.59,4.05Z"/>
              <path class="cls-5" d="M107.96,47.9l-3.59-4.05s-.66,1.16-1.51,2.72c.7,1.67,1.74,3.36,3.26,4.23.65-1.73,1.84-2.9,1.84-2.9Z"/>
              <path class="cls-61" d="M108.71,32.18s1.52.7,2.24,2.46c.72,1.75-.01,4.08.35,5.62.36,1.53-.76,9.52-4.72,8.63-3.96-.89-4.99-6.52-5.28-7.77s.41-5.97,2.28-7.48c1.87-1.51,5.12-1.46,5.12-1.46Z"/>
              <path class="cls-5" d="M110.95,34.63c-.72-1.75-2.24-2.46-2.24-2.46,0,0-3.25-.04-5.12,1.46-1.87,1.51-2.58,6.23-2.28,7.48.23.95.88,4.47,2.94,6.47.03-2.21-1.79-5.35-1.38-8.54.2.1,1.05.12,1.47.07,1.78-.23-.89-2.57.54-5.2.94-.83.97-.92,1.61-1.13.37,2,2.6,5.37,4.77,7.24-.25-1.53.38-3.73-.3-5.4Z"/>
              <g>
                <path class="cls-12" d="M108.57,40.1c.2.97.54,2.12.86,3.06-.29.21-.69.36-1.08.36.64.16,1.23-.28,1.27-.29-.24-.79-.51-1.84-1.06-3.13Z"/>
                <path class="cls-12" d="M106.61,38.8s-.82-.45-1.7-.41c-.88.04-1.9,1.21-1.9,1.21,0,0,1.18-.95,1.77-.95.59,0,1.21.29,1.21.29l.62-.14Z"/>
                <path class="cls-12" d="M108.68,38.49s.55-.66,1.26-.88c.71-.22,1.81.62,1.81.62,0,0-1.17-.57-1.64-.4s-.9.62-.9.62l-.53.04Z"/>
                <path class="cls-60" d="M106.77,45.25c1.96.4,2.64.24,3.25,0-.8.88-2.44.7-3.25,0Z"/>
                <path class="cls-12" d="M106.26,40.15c-.03.31-.27.54-.54.52-.27-.02-.47-.29-.45-.6.03-.31.27-.54.54-.52.27.02.47.29.45.6Z"/>
                <path class="cls-43" d="M104.05,40.59c1.68-2.02,2.51-.7,3.12-.65-.49.07-1.1-.42-1.63-.24-.43.14-1.07.6-1.49.89Z"/>
                <path class="cls-12" d="M110.39,39.71c-.02.31-.21.54-.43.52-.21-.02-.37-.29-.35-.6.02-.31.21-.54.43-.52.21.02.37.29.35.6Z"/>
                <path class="cls-43" d="M108.86,40.05c1.32-1.88,2.09-.55,2.61-.46-.41.04-.95-.47-1.39-.32-.36.12-.87.53-1.22.79Z"/>
                <path class="cls-5" d="M106.6,43.07c-.04.53-.65.91-1.35.85-.7-.06-1.23-.54-1.19-1.07.04-.53.65-.91,1.35-.85.7.06,1.23.54,1.19,1.07Z"/>
              </g>
              <path class="cls-30" d="M104.87,33.92c1.21-1.07,2.2-1.46,2.91-1.59.31-.04.55-.05.74-.06.26,0,.43.04.48.03,0-.02-.03-.09-.1-.19-.31-.57-1.44-2.17-4.1-1.92-.09,0-.18.01-.26.02-1.63.19-3.28.27-4.82.88-.9.35-1.78.91-2.41,1.65-.78.91-.81,1.92-.75,3.06.11,2.1.74,4.21.37,6.31-.36,2.01-1.4,3.95-3.13,5.1-1.5,1-2.19,2.44-2.26,4.25-.08,1.87.44,3.85,1.44,5.45,1.77,2.85,4.79,1.3,4.79,1.3,0,0-2.36-1.24-1.97-1.89,0,0,2.18,2.54,3.73,1.57,1.55-.98,2.02-2.08,2.02-2.08,0,0-3.02.24-1.49-1.83,1.07-1.44,2.81-2.94,3.94-5.22.62-1.26-.19-3.24-.9-5.44-.06-.26-.21-.7-.37-1.23-.34-1.24-.56-2.51-.41-3.72.2.1.48.17.91.11,1.02-.13.97-.75.94-1.68.06-.91.24-2.02.71-2.89Z"/>
              <path class="cls-50" d="M107.6,30.99s2-.46,3.82.66c1.82,1.12,2.38,6.1,1.55,7.21s3.42,2.14,1.2,2.5c-3.15.5-8.48-9.7-6.57-10.37Z"/>
              <path class="cls-22" d="M98.78,39.58c.77,1.21,1.51,2.87,1.77,4.23.8,4.37-4.31,3.2-5.56,3.59-.77.22-1.27,1.1-.75,2,.42.75,1,.87,1.34,1.12.53.4.45,1.03.03,1.38-.83.7-2.25-.1-2.33,1.27-.08.96.45,1.96,1.32,2.48-.94-.4-1.61-1.41-1.63-2.49-.02-1.11.72-1.23,1.74-1.39.63-.11.79-.46.69-.64-.13-.37-1.03-.3-1.69-1.43-.5-.8-.39-1.81.31-2.46,1.81-1.71,7.52,1.55,5.81-4.82-.25-.97-.63-1.91-1.06-2.83Z"/>
              <path class="cls-22" d="M108.27,31.64c2.99-.33,5.07,1.95,4.47,4.52-.1.44-.3.88-.7,1.07l-.22-.59c.16-.03.34-.46.39-.62.72-2.25-1.07-4.47-3.93-4.38Z"/>
            </g>
            <path class="cls-48" d="M99.84,67.36c3.22-7.08,1.62-10.53,1.62-10.53-3.74-3.7-13.3,14.29-16.45,23.2,2.01,1.3,4.59,2.06,6.63,3.36-.13-2.9,5.24-9.54,8.2-16.03Z"/>
            <path class="cls-8" d="M134.3,68.43c9.23,0,11.06-7.45,11.08-7.53.04-.16-.06-.32-.22-.35-.16-.04-.32.06-.35.22-.07.29-1.75,7.07-10.51,7.07-.16,0-.3.13-.3.3s.13.3.3.3Z"/>
            <path class="cls-23" d="M137.82,146.12s1.84.87,2.96,2.15c.95,1.09,4.29.02,5.28-.33,1.9.58,3.64.91,3.64,2.01,0,.3-4.01.25-7.38.16l-4.52-.16s0,0,0,0c-.29-.68-.46-1.3.02-3.83Z"/>
          </g>
          <path class="cls-25" d="M106.85,103.65v-17.06c0-2.29-2.19-4.15-4.88-4.15h-25.77c-2.7,0-4.88,1.86-4.88,4.15v29.05c0,2.29,2.19,4.15,4.88,4.15h30.77l-.12-16.14Z"/>
          <path class="cls-1" d="M90.93,119.79h-14.74c-2.7,0-4.88-1.86-4.88-4.15v-29.05c0-2.29,2.19-4.15,4.88-4.15h14.74c2.7,0,4.88,1.86,4.88,4.15v29.05c0,2.29-2.19,4.15-4.88,4.15Z"/>
        </g>
        <g>
          <rect class="cls-68" x="179.42" y="118.35" width="2.57" height="37.44"/>
          <rect class="cls-68" x="248.18" y="118.35" width="2.57" height="37.44"/>
          <path class="cls-37" d="M185.72,86.45h-15.22v24.7h25.7c-3.73-11.42-8.5-24.7-10.49-24.7Z"/>
          <path class="cls-37" d="M256.41,83.61h-18.34c-2.84,0-10.44,18.81-15.03,30.9h33.38v-30.9Z"/>
          <path class="cls-26" d="M194.98,83.61h30.5c9.27,0,16.79,7.52,16.79,16.79v.58c0,9.27-7.52,16.79-16.79,16.79h-30.51c-9.26,0-16.79-7.52-16.79-16.79v-.58c0-9.27,7.52-16.79,16.79-16.79Z"/>
          <rect class="cls-6" x="181.98" y="104.35" width="63.84" height="15.24"/>
          <rect class="cls-25" x="181.98" y="107.63" width="63.84" height="13.71"/>
          <path class="cls-25" d="M252.54,83.08h0c3.7,0,6.71,3.01,6.71,6.71v31.56h-13.41v-31.56c0-3.7,3.01-6.71,6.71-6.71Z"/>
          <path class="cls-25" d="M175.84,83.43h0c4.4,0,7.97,3.57,7.97,7.97v29.94h-15.95v-29.93c0-4.4,3.57-7.97,7.97-7.97Z"/>
          <path class="cls-21" d="M207.14,43.45c-.12,0-.23-.08-.26-.2-2.89-10.04,4.62-20.76,4.69-20.86.09-.12.26-.15.38-.06.12.09.15.26.06.38-.07.1-7.43,10.62-4.61,20.4.04.14-.04.29-.19.34-.02,0-.05.01-.07.01Z"/>
          <g>
            <polygon class="cls-56" points="195.73 91.27 190.82 106.56 203.55 111.17 211.13 109.81 218.53 111.67 231.44 107.72 223.77 95.75 195.73 91.27"/>
            <path class="cls-10" d="M211.13,109.81s.61-12.24-10.16-14.3c-3.39-.65-6.5-.32-6.5-.32l-3.66,11.37,12.73,4.61,7.58-1.36Z"/>
            <path class="cls-10" d="M211.13,109.81s1.38-14.71,13.52-12.55c4.83.86,6.79,10.46,6.79,10.46l-12.91,3.95-7.4-1.86Z"/>
            <path class="cls-3" d="M207.52,58.22s-1.01,12.52-9.31,20.82c-9.13,9.13-17.27,10.34-17.27,10.34,0,0-3.48,2.24-5.22,2.79-1.74.54-3.13.2-2.3-.61.84-.82,1.46-.27,2.23-1.02.77-.75.45-.65-.07-1.16-.52-.51-3.06.54-3.06,1.02s-.56,4.21-1.18,3.6c-.63-.61.17-4.25.49-4.55.31-.31,2.09-1.02,2.09-1.02l-2.44.88s-.42,3.81-.87,3.81-.07-3.7.24-4.35c.31-.65,2.82-1.16,2.82-1.16,0,0,2.89-.31,5.47-1.77,1.87-1.06,10.26-5.87,14.23-11.38,1.49-2.07,2.76-6.12,3.26-7.38,1.81-4.62,4.8-13.71,7.38-15.2.85-.49,1.67-1.03,2.35-1.21,1.39-.37,2.29,0,2.29,0l-1.11,7.53Z"/>
            <path class="cls-4" d="M192.48,71.75l10.29,1.5,4.37-7.29,1.49-15.26s-.87-.17-2.38.01c-1.14.14-2.71.93-4.22,2.47-3.5,3.57-9.55,18.57-9.55,18.57Z"/>
            <path class="cls-19" d="M195.62,99.1c1.92-.1,4.87,1.1,6.75,3.77,1.62,2.3,4.36,45.79,4.36,45.79l-.65.15.05,1.19,1.01,4.32-1.59,3.94-3.16-3.3.85-4.96-12.43-43.45s1.62-7.29,4.81-7.45Z"/>
            <path class="cls-19" d="M227.82,99.91c-2.07-.32-5.57.92-7.65,3.48-1.82,2.24-8.57,45.33-8.57,45.33l1.47.31c-.09.76-.14,1.18-.14,1.18l-1.33,4.25,1.29,4.02,3.41-2.28-.49-5.83s.12-.26.33-.73l.56.09c2.76-6.08,13.74-32.08,14.73-42.01.21-2.15-1.14-7.43-3.62-7.81Z"/>
            <path class="cls-38" d="M220.89,50.7s-9.64-1.29-14.64,0c0,0-1.76,16.72-3.14,21.52-1.39,4.8-10.63,22.81-10.63,22.81l32.17,2.22s.28-14.04,1.48-19.58c1.2-5.54,3.42-23.74,3.42-25.12l-8.66-1.85Z"/>
            <path class="cls-66" d="M226.5,75.76c.52-2.95,1.15-7.34,1.7-11.52-7.72-2.67-17.72-3.04-23.2-3.01-.58,4.34-1.27,8.86-1.89,11-.08.28-.19.6-.32.97,10.88-1.55,19.19.75,23.7,2.57Z"/>
            <g>
              <path class="cls-61" d="M220.7,37.96l1.11,12.25c.06.67-.74,3.37-1.23,3.81-1.14,1.03-3.54,1.73-5.46.39-1.68-1.16.13-16.17.13-16.17,0,0,3.15-.61,5.45-.28Z"/>
              <path class="cls-5" d="M215.25,38.24s-.07.49-.16,1.31c.19,1.14.54,2.89,1.06,4.18.69,1.71,3.23,4.45,5.48,4.48l-.93-10.24c-2.3-.33-5.45.28-5.45.28Z"/>
              <g>
                <path class="cls-72" d="M214.27,23.43c-.97,1.64-1.69,3.87-.08,4.86-1.8-.82-1.33-3.39-.53-5.21l.61.34Z"/>
                <path class="cls-61" d="M221.95,29.09s2.53.15,3.02,3.36c.5,3.21-.41,12.26-2.85,13.26-2.44.99-5.61-1.9-6.35-3.63-.77-1.8-1.08-4.7-1.08-4.7,0,0-.93-11.66,7.26-8.29Z"/>
                <path class="cls-72" d="M212.5,42.01s.64.68,1.24-.3c0,0,1.39-2.25-.04-3.79-1.43-1.55-3.57-3.65-3.42-6.65.15-3,3.66-3.21,3.66-3.21,0,0,.26-4.6,5.28-3.41,0,0,.86-1.05,3.74-1.11,2.88-.06,2.3,1.58,3.94,1.2,1.63-.38,1.78-1.71,1.05-2.18,0,0,2.93,1.14,3.46,3.44.52,2.3-3.83,2.71-3.83,2.71,0,0,3.56.24.98,1.94s-3.89,1.76-5.65.24c-1.77-1.53-2.67-1.86-3.52-1.42-.85.44-.4,2.4-1.7,2.7-1.3.3-1.9,3.89-1.9,3.89,0,0-1.04-.28-.82,2.2.22,2.48.65,3.98-.81,4.33-1.47.34-1.63-.56-1.63-.56Z"/>
                <path class="cls-61" d="M214.86,33.22c-.78-.04-2.6.66-.88,3.05,1.72,2.39,2.89-.31,2.64-1.4-.25-1.09-1.17-1.62-1.76-1.66Z"/>
                <path class="cls-72" d="M222.47,36.3c-.08,1.51.03,2.96-.18,4.37-.34.03-.67.06-1.01.13.59.16,1.07.22,1.29.25,0-.07.46-2.02-.1-4.75Z"/>
                <path class="cls-72" d="M221.85,35.9c-.09.02-.18-.03-.2-.12,0-.02-.22-.62-.99-.88-.67-.23-2.24.29-2.79.51-.09.04-.19,0-.23-.1-.04-.09,0-.19.1-.23.09-.03,2.1-.83,3.02-.52.95.32,1.2,1.07,1.21,1.11.03.09-.02.19-.11.22,0,0-.01,0-.01,0Z"/>
                <path class="cls-60" d="M219.52,41.64s2.57.67,3.98.23c0,0-.18,1.18-1,1.55-.83.37-2.58-.04-2.98-1.78Z"/>
                <path class="cls-5" d="M213.96,34.86s.27,1.75,1.11,1.68.96-1.4.34-2.02-1.56-.16-1.45.34Z"/>
                <path class="cls-72" d="M221.31,36.64c-.02.34-.25.61-.52.6-.27-.02-.47-.31-.45-.65.02-.34.25-.61.52-.6.27.02.47.31.45.65Z"/>
                <path class="cls-72" d="M224.77,36.67c-.02.34-.25.61-.52.6-.27-.02-.47-.31-.45-.65.02-.34.25-.61.52-.6.27.02.47.31.45.65Z"/>
                <path class="cls-72" d="M223.44,35.73c-.06.08-.05.19.03.25.04.03.1.04.15.03.04,0,.07-.03.1-.06.17-.22.69-.8,1.09-.89.1-.02.2-.04.3-.05,0-.12,0-.24,0-.36-.12.01-.25.03-.38.06-.6.14-1.25.98-1.28,1.02Z"/>
              </g>
            </g>
            <path class="cls-28" d="M228,64.67s7.5,3.01,6.39,10.21c-1.56,10.14-1.45,17.66-3.77,20.1-2.32,2.44-18.66-1.05-21.98-2.77,0,0-3.73.77-5.39,1.52-.6.27-1.31.04-1.6-.54-.13-.26-.23-.56-.24-.88,0,0-.72-.79-.44-1.65,0,0-.51-.96-.42-1.49.1-.53,1.49-.96,3.98-1.05.72-.03,3.78,1.17,4.74,1.67.96.5,12.8-.43,15.5-2.02,2.32-1.37,2.88-22.98,3.23-23.09Z"/>
            <path class="cls-5" d="M227.24,74.35c-.07.85-.14,1.72-.22,2.58l6.74,2.56c.18-1.47.38-3.01.63-4.62.17-1.12.14-2.14-.05-3.06l-.4-1.13-5.77-1.85c-.1,1.83-.57,3.65-.94,5.51Z"/>
            <path class="cls-4" d="M235.46,78.78l-9.06-2.49,1.17-8.81s1.94-14.94,1.97-14.93c.2.05.97.29,2.07.95.97.59,2.05,1.96,2.78,4.01,1.69,4.76,1.06,21.27,1.06,21.27Z"/>
          </g>
        </g>
        <g>
          <path class="cls-11" d="M131.07,156.66h3.69c.48-4.99.4-9.97.02-14.63-1.14-14.36-8.1-38.33-9.58-42.43-.7-1.95-2.1.2-1.46,2.26,3.48,11.09,7.23,27.51,7.91,40.92.46,8.22-.52,13.43-.58,13.88Z"/>
          <path class="cls-17" d="M194.89,156.66h-3.69c-.48-4.99-.4-9.97-.02-14.63,1.14-14.36,8.1-38.33,9.58-42.43.7-1.95,2.1.2,1.46,2.26-3.48,11.09-7.23,27.51-7.91,40.92-.46,8.22.52,13.43.58,13.88Z"/>
          <path class="cls-11" d="M193.34,156.66h-3.69c-.48-4.99-.4-9.97-.02-14.63,1.14-14.36,8.1-38.33,9.58-42.43.7-1.95,2.1.2,1.46,2.26-3.48,11.09-7.23,27.51-7.91,40.92-.46,8.22.52,13.43.58,13.88Z"/>
          <path class="cls-17" d="M239.01,156.66h-3.69c-.48-4.99-.4-9.97-.02-14.63,1.14-14.36,8.1-38.33,9.58-42.43.7-1.95,2.1.2,1.46,2.26-3.48,11.09-7.23,27.51-7.91,40.92-.46,8.22.52,13.43.58,13.88Z"/>
          <rect class="cls-11" x="113.23" y="97.67" width="137.52" height="3.8"/>
          <rect class="cls-2" x="193.97" y="97.67" width="56.79" height="3.8"/>
          <rect class="cls-73" x="113.23" y="95.82" width="137.52" height="1.85"/>
        </g>
        <path class="cls-5" d="M229.28,92.81s-1.16,1.34-.75,1.75,2.42.39,2.23-.48c-.19-.87-1.48-1.26-1.48-1.26Z"/>
        <path class="cls-40" d="M92.04,77.48l12.52,3.29s3.68,2.66,5.34,3.19c1.66.53,3.68,2.36,3.28,2.92-.4.56-2.48-1.34-2.82-1.29-.34.06,1.22,2.31,1.48,3.79.25,1.48.76,2.91-.09,2.8-.85-.12-1.46-3.45-1.46-3.45,0,0-1.3-2.52-1.51-2.22-.21.3.87,2.03.87,2.03,0,0,.26,1.87.37,2.53.08.49-.37,1.96-.75,1.42-.23-.32-.12-1.53-.38-2.23-.54-1.42-1.42-2.55-1.42-2.55,0,0,.94,4.26.35,4.36-.59.1-1.2-3.43-1.2-3.43,0,0-1.44-2.94-2.08-3.2-.63-.26-2.36-1.38-3.71-1.85-1.34-.47-6.88,1.07-9.36,1.1-2.47.03-6.49-1.5-6.82-3.44-.1-.59.27-1.25.83-1.87,1.64-1.82,4.18-2.52,6.54-1.9Z"/>
        <g>
          <g>
            <path class="cls-31" d="M285.77,123.64v12.24s-21.55,3.02-19.92-.51c1.62-3.53,9.15-12.33,9.15-12.33l10.77.6Z"/>
            <path class="cls-61" d="M294.97,138.41h-4.96c1.22,7.42,2.34,14.13,2.34,14.13l-2.4,5.78s-.13,1.32.93,2.16c1.06.83,2.94-.34,3.34-.76.4-.42.21-3.41.05-6.02-.07-1.06.32-7.63.69-15.28Z"/>
            <path class="cls-45" d="M292.25,158.46c-.81-.26-1.34-1.02-1.66-1.67l-.63,1.52s-.13,1.32.93,2.16c1.06.83,2.94-.34,3.34-.76.21-.22.26-1.19.23-2.43-.54.7-1.36,1.46-2.21,1.18Z"/>
            <path class="cls-54" d="M295.11,111.8c-.74-1.53-1.22-3.26-1.53-4.66h0l.69-36.01-14.46-.24,5.94,36.25h.1l.54,2.95s.48,6.51.64,9.02c.08,1.34,1.6,10.78,2.99,19.29h4.96c.55-11.18,1.07-24.67.14-26.61Z"/>
            <path class="cls-67" d="M286.71.53s4.71-2.07,6.89,1.97c2.18,4.03-.38,15.72,1.51,17.28,1.89,1.56,4.92,0,4.92,0,0,0,1.04,2.13-1.99,2.97-3.03.84-4.98,1.63-4.71,1.86.27.22-2.7-1.22-2.7-1.22l-2.4,1.22-1.21-1.22-3.89,1.22s.54-.94.21-1.22c-.33-.27-3.7,2.07-5.62-.26-1.92-2.34.94-3.04.94-3.04,0,0-1.45,1.43.66,1.43s9.45-8.45,7.39-12.66c-2.06-4.22,0-8.32,0-8.32Z"/>
            <path class="cls-5" d="M280.5,25.01s-4.11-.16-6.49,4.6c-2.38,4.75-12.68,19.01-12.68,19.01l6.87,6.13s8.5-17.75,11.46-17.75.84-11.99.84-11.99Z"/>
            <path class="cls-14" d="M283.72,112.52c.41-6-1.47-9.4-1.47-9.4l2.99-31.92-10.57-1.67-1.54,35.26s2.12,19.64,3.26,33.62h4.54c1.18-9.93,2.53-22.27,2.78-25.89Z"/>
            <path class="cls-5" d="M280.94,138.41h-4.54c.6,7.39.93,13.2.53,13.7-1.26,1.57-5.96,3.31-5.96,3.31,1.9-.14,8.37-.39,8.37-.39l-.14-3.33c.27-1.26.97-6.75,1.75-13.28Z"/>
            <path class="cls-51" d="M294.27,71.13c-1.29-6.6-4.85-8.03-4.85-10.62,0-3.17,5.31-19.65,5.31-19.65-1.43-1.43,0-15.84,0-15.84h-13.78s-5.14,8.45-6.41,12.57c-1.27,4.12-.41,16.58.38,23.4.19,1.67.02,5.35-.36,9.96,6.53-.3,13.21.48,19.71.19Z"/>
            <path class="cls-36" d="M287.03,61.12l6.09,74.25s-18.84-4.41-27.27,0l8.98-72.08,12.21-2.17Z"/>
            <polygon class="cls-47" points="273.13 80.66 284.31 80.66 283.34 96.15 271.29 95.5 273.13 80.66"/>
            <path class="cls-45" d="M274.53,153.72s-4.28,1.24-4.09,1.8c.18.55,9.14-.3,9.14-.3l-.23-2.47s-3.91,1.61-4.39,1.48c-.48-.13-.42-.5-.42-.5Z"/>
            <path class="cls-5" d="M294.64,26.04s-2.25,6.34-2.25,9.27,1.35,12.44,1.35,15.05,5.55,6.42,5.55,6.42c0,0,1.3-18.93.03-23.45-1.27-4.52-4.67-7.29-4.67-7.29Z"/>
            <path class="cls-5" d="M287.03,42.25l-.26-.4s-2.68-1.11-3.32-.48c-.64.64,1.79,1.23,1.79,1.23l1.79-.36Z"/>
            <path class="cls-2" d="M290.62,2.59c-.83-.83-4.2-1.03-4.2-1.03h-.25c-1.06-.4-6.63,7.89-5.93,12.31.7,4.42,1.21,3.97,4.37,4.52,3.17.55,5.53-1.81,6.33-4.42.8-2.61.51-10.56-.32-11.39Z"/>
            <path class="cls-61" d="M281.54,16.74c-.09.09,0,1.25.09,2.7.12,2.09-.4,5.86-.31,5.86,0,0,.16,3.3,1.78,3.5,1.41.17,3.96-1.5,4.24-2.79.38-1.73,0-10.4,0-10.4l-5.8,1.13Z"/>
            <path class="cls-5" d="M281.64,19.44c2.15,1.94,4.17,1.06,5.8-1.38-.04-1.23-.09-2.39-.09-2.46l-5.8,1.13c-.09.09,0,1.25.09,2.7Z"/>
            <path class="cls-61" d="M282.22,2.07s-2.72.52-3.04,2.85c-.32,2.33-.78,4.27-.32,6.99.45,2.72,2.07,6.35,4.73,6.93,2.65.58,5.44-3.82,5.44-6.22s.97-6.41-.84-8.87c-1.81-2.46-5.96-1.68-5.96-1.68Z"/>
            <path class="cls-5" d="M286.37,2.4c-2.72-1.08-6.79-.38-7.19,2.51-.29,2.11-.69,3.91-.43,6.25.43-.3,1.05-.6,1.91-.88,2.39-.79,4.72-4.76,5.78-7.06,0-.06.05-.36-.08-.82Z"/>
            <path class="cls-2" d="M288.31,11.26s1.04-1.2,1.55-1.72c.52-.52,1.81-5.63.52-7.38-1.29-1.75-3.77-1.85-5.76-2.07-1.98-.23-5.13,1.28-5.3,4.23,0,0,5.1-1.94,6.53-1.26,1.42.68,2.01,1.49,2.3,3.08.29,1.59.16,5.12.16,5.12Z"/>
            <path class="cls-61" d="M288.31,11.26s.69-3.01,1.85-2.28c1.15.73-.08,4.05-1.16,4.05s-.69-1.77-.69-1.77Z"/>
            <path class="cls-5" d="M289.43,9.62s-1.7,2.73-.53,2.43c1.17-.3,1.63-2.94.53-2.43Z"/>
            <path class="cls-13" d="M282.19,13.04c.07-.74.12-1.49.11-2.24-.17.95-.2,1.64-.26,2.33.4.11.87.33,1.47.1-.45.09-.91-.04-1.32-.2Z"/>
            <path class="cls-13" d="M283.67,10.73c.14-.43.5-.84,1-.97.89-.23,1.43,1.05,2.04,1.03-.44.22-1.14-.52-1.62-.71-.26-.11-.49-.03-.75.09-.25.13-.47.33-.67.56Z"/>
            <path class="cls-13" d="M285.27,10.35c0,.27-.19.49-.43.49s-.43-.22-.43-.49.19-.49.43-.49.43.22.43.49Z"/>
            <path class="cls-13" d="M281.69,11.01c-.15-.42-.54-.82-1.04-.93-.9-.19-1.38,1.11-1.99,1.13.45.2,1.11-.57,1.58-.79.26-.12.49-.05.75.06.26.12.49.31.7.53Z"/>
            <path class="cls-13" d="M280.07,10.7c.01.27.22.48.45.47.24-.01.42-.24.41-.51-.01-.27-.22-.48-.45-.47-.24.01-.42.24-.41.51Z"/>
            <path class="cls-13" d="M283.35,8.66c-.1-.06.68-.84,1.61-.93.93-.09,1.93.93,1.93.93,0,0-1.37-.82-1.95-.55-.58.26-1.06.9-1.6.55Z"/>
            <path class="cls-13" d="M282.07,15.71c-.1-.01-.08-.17.02-.15.01,0,1.54.21,2.81-.8.08-.06.17.06.09.12-.86.68-2.09.95-2.93.83Z"/>
            <path class="cls-13" d="M283.21,16.2s-.07-.03-.08-.07c-.01-.19,1.11-.05,1.53-.74.05-.09.18,0,.13.08-.39.63-1.53.73-1.58.73,0,0,0,0,0,0Z"/>
            <path class="cls-35" d="M281.97.63c-2.49.55-3.24,4.39-5.28,6.43-2.04,2.04-1.52,4.99-.55,6.93.97,1.94,2.53.68,2.53.68,0,0-.81.45-1.33-1.17-.52-1.62.39-2.88,3.14-3.79,2.75-.91,5.37-6.64,5.37-6.64.07-1.12-1.38-2.99-3.88-2.44Z"/>
            <path class="cls-42" d="M280.85,9.21c-1.24.51-2.79,1-3.5,2.17-.97,1.51.36,3.83,1.31,3.27-.34.12-.66-.08-.83-.34-.41-.6-.71-1.86-.09-2.68.77-1.04,2.36-1.47,2.89-1.68l.51-.22c2.12-1.25,3.88-4.4,4.71-6.67-1.14,1.9-3.03,5.01-4.99,6.14Z"/>
            <rect class="cls-36" x="274.82" y="60.08" width="15.81" height="3.21"/>
            <polygon class="cls-20" points="279.19 25.01 273.9 38.44 275.33 60.13 284.47 60.51 289.28 39.78 295.45 24.26 291.8 24.26 286.4 35.94 278.37 36.09 280.95 25.01 279.19 25.01"/>
            <polygon class="cls-7" points="256.74 37 263.29 59.53 279.66 59.09 273.64 37 256.74 37"/>
            <path class="cls-33" d="M287.34,37.27l-6.03,12.25c-.06.12-.2.16-.31.11-.11-.05-.16-.19-.11-.3l5.3-12.58c.14-.32.51-.47.83-.34.32.14.47.51.34.83,0,.01-.01.02-.02.03Z"/>
            <path class="cls-61" d="M290.04,45.35h0c-.25-.36-.45-.7-.54-.97-.4-1.19-2.1-2.26-2.73-2.54s-5.11.95-4.79,2.1c.32,1.15.36,1.03.16,1.98-.2.95,0,.51,0,1.5s.79.71,1.39.71,3.64.24,4.99,1.11c.74.48,1.34,1.14,1.73,1.64.68,2.48,2.63,8.51,5.64,9.14,3.8.79,3.41-3.25,3.41-3.25,0,0,1.05-5.02-9.24-11.43Z"/>
            <rect class="cls-41" x="273.9" y="31.98" width="6.28" height="3.96"/>
          </g>
          <g>
            <path class="cls-61" d="M259.86,54.71s0-.02-.02-.04c0,0,0,.02.02.04Z"/>
            <path class="cls-61" d="M259.84,54.67s0-.02,0,0h0Z"/>
            <path class="cls-61" d="M262.71,57.5s3.06-1.9,3.06-2.75-3.35,1.58-3.35,1.58c0,0,2.93-2.48,2.93-3.01s-1.53-.63-3.59,1.43c0,0-.63.42-.05-.63.58-1.06,2.17-2.06,1.11-2.48-1.06-.42-2.96,3.07-2.96,3.07.4.92,1.25,4.36,2.17,4.36,1.06,0,3.49-1.27,3.49-2.29s-2.8.72-2.8.72Z"/>
          </g>
        </g>
      </g>
      <g>
        <polygon class="cls-68" points="84.82 157.37 86.87 157.37 95.04 112.22 92.07 112.06 84.82 157.37"/>
        <polygon class="cls-68" points="127.06 156.6 124.78 156.92 106.24 109.12 109.52 108.49 127.06 156.6"/>
        <path class="cls-59" d="M94,81.5l-19.89,2.5s5.33,25.77,8.99,27.27,21.74,2.58,21.74,2.58l14.4-4.31s-19.14-5.59-21.51-9.68-3.73-18.36-3.73-18.36Z"/>
        <path class="cls-59" d="M117.66,105.18c-3.12-.32-9.36-2.27-11.5-2.5-5.73-.61-6.78-14.99-9.65-20.06-1.06-1.88-1.85-1.16-3.79-1.16l5.58,25.82,21.01,2.01c0-1.09-.72-4.02-1.66-4.11Z"/>
        <g>
          <g>
            <path class="cls-46" d="M111.36,109.68s2.36-.16,3.07-2.12c.71-1.96,1.2-4.03-.75-4.53-1.95-.51-3.55,6.02-2.31,6.65Z"/>
            <path class="cls-5" d="M101.68,101.77c.28,0,13.09,1.8,14.01,2.68.92.88.72,19.12.72,19.12,0,0,2.25,1.41,4.16,1.36,1.91-.04,1.9-.49,1.91-.04,0,.45-6.55,2.05-6.55,2.05l-1.22.5-1.86-5.21-1.14-13.51-13.88.3,3.83-7.26Z"/>
            <path class="cls-62" d="M101.68,101.77l11.99,1.26s-2.98,4.29-2.31,6.65l-16.62-2.96,6.94-4.96Z"/>
            <path class="cls-46" d="M105.44,112.7s4.9-2.4,3.39-5.44l-5.23-.19-1.13,3.81,2.01,1.84.96-.02Z"/>
            <path class="cls-61" d="M89.22,110.99c.17.17,13.54.91,14.77.88l8.29,14.26s.19,3.43,1.03,3.41c.84-.02,3.88-1.54,3.88-1.54,0,0-2.83-2.31-2.84-2.76,0-.45-4.65-16.47-5.49-17.27-1-.96-10.67-3.14-10.67-3.14l-8.96,6.16Z"/>
            <path class="cls-63" d="M89.22,110.99l15.27,1.74s-2.55-5.99,4.34-5.47l-11.08-2.86-8.53,6.58Z"/>
          </g>
          <path class="cls-57" d="M106.55,98.75s-5.02-5.8-6.84-7.06c-1.82-1.26-3.44-6.46-3.44-6.46l-3.85-.93s1.21,3.95,1.84,6.71c.63,2.77,7.99,7.32,7.99,7.32.6.09,1.65,2.38,1.81,2.73.61,1.33,1.06,3.71,1.06,3.71.77.36,1.09-.42,1.09-.42.33.35,1.36-.18,1.36-.18.84.21,1.12-.24,1.12-.24,1.01.29,1.36-.14,1.36-.14.73-1.51-1.82-3-3.5-5.04Z"/>
          <path class="cls-34" d="M88.04,79.83s-7.58-.22-6.67,7.47c.45,3.79,4.31,24.18,7.06,24.91,0,0,11.59-8.7,13.25-10.43.27-.28-3.59-1.05-3.7-6.32-.11-5.28-.95-14.91-4.46-14.84-3.52.08-5.47-.78-5.47-.78Z"/>
          <path class="cls-60" d="M97.94,94.36c-.08-2.13-.27-4.72-.68-7.08-4.54,3.18-12.54,2.32-15.62,1.84.34,2.07.93,5.25,1.66,8.58,8.84,3.56,13.39-1.57,14.64-3.34Z"/>
          <path class="cls-61" d="M87.37,76.36l-.92,1.51s.38,3.91,1.19,4.57c.81.66,2.93.75,4.03.11,1.1-.65.13-4.55.13-4.55l-4.43-1.64Z"/>
          <path class="cls-5" d="M87.37,76.36l-.92,1.51s.04.37.11.9c.38,1,1.08,2.11,2.36,2.7,1.02.47,2.16.52,3.2.25.26-1.35-.32-3.72-.32-3.72l-4.43-1.64Z"/>
          <path class="cls-61" d="M86.1,76.13s.07,3.31,2.81,4.49c2.47,1.06,5.68-.18,6.46-2.4.78-2.22-.43-2.3.18-4.28.61-1.98-1.8-4.99-5.77-3.72-3.97,1.27-3.67,5.91-3.67,5.91Z"/>
          <path class="cls-27" d="M85.49,77.68s-.64,1.49-1.63.49-.61-2.68-.07-3.28c0,0-2.14-1.61-1.6-3.75.54-2.15,2.31-2.39,2.31-2.39,0,0,.42-.92,1.24-1.82s2.59-.06,2.59-.06c0,0-.1-1.72,1.4-2.16,1.5-.45,4.83-.79,5.6,1.39,0,0,3.4-.21,4.17,1.97.77,2.19.07,3.12.07,3.12,0,0,.04-.58.34.86.3,1.44-2.77,4.95-4.56,1.13,0,0-2.23-.25-2.27-1.85,0,0-.7,1.23-2.08.92-1.38-.31-1.62-1.31-3.01.07-1.39,1.38-1.82,3.76-1.34,4.92.48,1.16.14,3.37-1.37,3.4-1.51.03.21-2.96.21-2.96Z"/>
          <path class="cls-24" d="M86.46,109.55c.06-.1,9.78-6.67,13.31-11.75l1.69,3.5c-3.57,4.33-13.7,8.81-14.9,9.17l-.09-.92Z"/>
          <path class="cls-61" d="M95.92,103.02s-5.18-5.5-7.03-6.66c-1.84-1.16-3.04-5.28-3.04-5.28l-4.44-1.68s1.36,3.83,2.09,6.53c.73,2.7,8.17,6.87,8.17,6.87.6.07,1.73,2.28,1.9,2.61.66,1.28,1.2,3.61,1.2,3.61.78.32,1.05-.46,1.05-.46.34.33,1.33-.23,1.33-.23.84.18,1.09-.28,1.09-.28,1,.24,1.33-.2,1.33-.2.66-1.52-1.92-2.88-3.65-4.81Z"/>
          <path class="cls-58" d="M86.91,92.02c.18-.41.15-10.09-1.38-11.03-3.14-1.93-6.7,6.48-3.75,13.75,1.79-2.19,2.53-2.44,5.13-2.72Z"/>
          <path class="cls-61" d="M87.3,74.22s-.35-1.25-1.1-.79c-.75.45-.54,2.81.28,2.72s.82-1.93.82-1.93Z"/>
          <path class="cls-5" d="M87.22,75.06s-.1-1.02-.62-.7c-.51.32-.28,1.67.16,1.55s.46-.85.46-.85Z"/>
          <path class="cls-53" d="M99.5,75.23s-.1-.02-.12-.07c-.02-.06,0-.12.06-.15.61-.25,1.02-.64,1.22-1.16.44-1.12-.2-2.51-.2-2.52-.03-.06,0-.12.05-.15.06-.02.12,0,.15.05.03.06.68,1.49.21,2.7-.23.58-.68,1.02-1.35,1.29-.01,0-.02,0-.03,0Z"/>
          <path class="cls-32" d="M92.16,76.47c-.33.14-.62.32-.85.57.99-.43,1.07-.77,1.57.08-.07-.4-.36-.78-.72-.65Z"/>
          <path class="cls-32" d="M92.99,78.47c.13-.07.24.13.11.2-1.16.37-2.81-.24-2.68-.2-.14-.05-.07-.26.07-.22.1.03,1.46.76,2.5.21Z"/>
          <path class="cls-32" d="M89.38,74.36c-.22-.21.74-.76,1.62-.6.15.03.1.25-.04.22-.88-.16-1.41.37-1.42.38-.04.04-.11.05-.16,0Z"/>
          <path class="cls-32" d="M94.22,74.54c-.45-.76-1.01-.39-1.04-.64-.02-.24.81-.18,1.23.53.03.05.01.12-.04.15-.05.03-.12.01-.15-.04Z"/>
          <path class="cls-32" d="M90.35,75.29c.21-.02.41,0,.58.04,0-.03,0-.06,0-.1-.03-.3-.33-.51-.67-.47s-.59.3-.56.6c0,.04.01.08.03.12.17-.09.38-.16.62-.18Z"/>
          <path class="cls-32" d="M93.78,75.41c.21.03.4.09.55.17.01-.03.02-.06.02-.09.04-.3-.2-.57-.54-.62-.34-.04-.64.16-.68.45,0,.04,0,.08,0,.12.18-.05.41-.07.64-.04Z"/>
        </g>
        <path class="cls-59" d="M103.14,111.61c-3.63-.37-10.89-2.64-13.39-2.91-6.67-.71-7.89-17.45-11.23-23.36-1.24-2.19-2.15-1.35-4.41-1.35l6.5,30.06h24.46c0-1.27-.84-2.33-1.93-2.44Z"/>
        <path class="cls-52" d="M105.07,114.05c-.04-1.01-.67-2.01-1.62-2.26-.96-.13-2.02-.16-3.02-.25-16.37-1.57-16.62-7.26-19.66-19.45-.5-1.96-1.11-3.89-1.96-5.72-1.06-2.09-1.18-2.54-3.17-2.41-.51.03-1.02.06-1.53.04,1.35-.06,2.23-.42,3.07-.16,1.86.61,3.69,6.2,4.25,8.07,3.47,11.49,2.36,16.86,19.05,19.21,1.01.17,2,.25,3.04.46,1.06.35,1.61,1.48,1.55,2.48Z"/>
        <polygon class="cls-68" points="110.97 163.61 108.67 163.61 99.5 114.17 102.83 114 110.97 163.61"/>
        <polygon class="cls-68" points="73.6 163.61 75.91 163.61 85.07 114.17 81.74 114 73.6 163.61"/>
      </g>
    </g>
  </g>
</svg>