<?xml version="1.0" encoding="utf-8"?>
<!-- Generator: Adobe Illustrator 28.0.0, SVG Export Plug-In . SVG Version: 6.00 Build 0)  -->
<svg version="1.1" id="_レイヤー_2" xmlns="http://www.w3.org/2000/svg" xmlns:xlink="http://www.w3.org/1999/xlink" x="0px"
	 y="0px" viewBox="0 0 380 510" style="enable-background:new 0 0 380 510;" xml:space="preserve">
<style type="text/css">
	.st0{fill:#EEE9D5;}
</style>
<path class="st0" d="M0,0v510h380V0H0z M349.8,259.7L349.8,259.7c-1.8,39.1-18.8,103.5-12.5,150.3c6.3,46.8-25.9,102.2-120,94.3
	c-36.7-3.1-99.4-3.8-99.4-3.8c-15.2-0.8-52.8-11.5-66.2-26.8c-13.4-15.3-19.7-43.7-16.1-58.3s9-72.1,7.2-99.7
	C41,288,31.1,227.5,32,178.4C32.9,129.3,18.7,80.7,54.9,51c36.2-29.8,57.7-37.4,102.5-38.2c44.8-0.8,86.8-10.7,110.1-6.9
	c23.3,3.8,66.2,18.4,68,59c1.8,40.6,0.9,75.9,2.7,113.5C340,216,351.6,220.6,349.8,259.7z"/>
</svg>
