<?xml version="1.0" encoding="UTF-8"?>
<svg id="_レイヤー_2" data-name="レイヤー 2" xmlns="http://www.w3.org/2000/svg" viewBox="0 0 1440 800">
  <defs>
    <style>
      .cls-1 {
        fill: #eee9d5;
        stroke-width: 0px;
      }
    </style>
  </defs>
  <g id="_01" data-name="01">
    <path class="cls-1" d="m0,0v800h1440V0H0Zm1411.8,584.24c-10.65,55.36-51.1,157.56-163.94,161.82-112.85,4.26-210.79,2.13-315.11,6.39-104.33,4.26-117.1,31.94-225.69,27.68-108.59-4.26-287.44-44.71-417.31-29.81-129.88,14.9-283.71-61.58-261.89-285.31,8.52-87.3,10.65-236.34,10.65-236.34,2.13-36.2,31.94-125.62,74.52-157.56s121.36-46.84,161.82-38.32,200.14,21.29,276.79,17.03c76.65-4.26,244.85-27.68,381.12-25.55,136.27,2.13,271.17-31.8,353.82,54.36,82.66,86.16,103.95,137.26,106.08,243.72,2.13,106.46,29.81,206.53,19.16,261.89Z"/>
  </g>
</svg>