<?xml version="1.0" encoding="UTF-8"?><svg id="_レイヤー_2" xmlns="http://www.w3.org/2000/svg" viewBox="0 0 68.28 58.61"><defs><style>.cls-1,.cls-2{fill:#fff;}.cls-2{font-family:Futura-Medium, Futura;font-size:11.34px;letter-spacing:.03em;}</style></defs><g id="pc"><path class="cls-1" d="M34.53,0h-1.78s-.01,0-.02,0C22.78,.54,15.01,8.75,15.01,18.73s7.78,18.19,17.73,18.72h1.8c10.06-.42,17.93-8.63,17.93-18.72S44.59,.43,34.53,0Zm12.34,7.5c-1.34,1.01-2.79,1.86-4.32,2.53-1.29-3.18-3.33-6.04-5.92-8.36,3.99,.68,7.59,2.72,10.24,5.83ZM34.46,1.76c3.02,2.32,5.34,5.36,6.75,8.81-2.17,.78-4.44,1.2-6.75,1.24V1.76Zm0,11.51c2.48-.05,4.92-.5,7.25-1.34,.71,2.15,1.07,4.4,1.09,6.68h-8.34s0-5.34,0-5.34Zm0,6.8h8.29c-.13,2.24-.61,4.42-1.4,6.48-2.22-.74-4.53-1.14-6.89-1.18v-5.3ZM30.59,1.73c-2.49,2.23-4.47,4.99-5.76,8.03-1.42-.68-2.77-1.51-4.02-2.49,2.57-2.9,6-4.84,9.77-5.54Zm-10.69,6.66c1.37,1.08,2.85,1.99,4.41,2.73-.84,2.4-1.27,4.93-1.28,7.51h-6.57c.02-3.72,1.21-7.26,3.44-10.24Zm.55,21.39c-2.3-2.77-3.66-6.11-3.94-9.69h6.56c.14,2.51,.68,4.94,1.6,7.24-1.5,.66-2.92,1.49-4.23,2.45Zm.98,1.08c1.19-.86,2.47-1.6,3.83-2.2,1.29,2.69,3.08,5.07,5.33,7.09-3.46-.64-6.68-2.35-9.16-4.88Zm11.59,5c-2.74-2.06-4.95-4.73-6.41-7.75,2.05-.75,4.21-1.18,6.41-1.28v9.02Zm0-10.47c-2.41,.1-4.76,.57-7,1.4-.85-2.13-1.36-4.38-1.5-6.7h8.49s0,5.31,0,5.31Zm0-6.76h-8.54c.01-2.38,.4-4.71,1.17-6.93,2.35,.93,4.83,1.45,7.37,1.56v5.37Zm0-6.82c-2.36-.11-4.66-.6-6.85-1.47,1.45-3.43,3.81-6.44,6.85-8.72V11.8Zm1.45,23.9v-8.89c2.16,.04,4.29,.4,6.32,1.07-1.43,3.03-3.6,5.72-6.32,7.82Zm2.18,.08c2.36-2.09,4.21-4.58,5.51-7.39,1.46,.59,2.84,1.34,4.12,2.24-2.58,2.72-5.96,4.53-9.63,5.16Zm10.59-6.25c-1.4-.99-2.92-1.83-4.52-2.48,.86-2.22,1.36-4.57,1.5-6.99h6.76c-.26,3.47-1.55,6.74-3.73,9.47Zm3.79-10.92h-6.77c-.01-2.46-.41-4.89-1.19-7.21,1.67-.72,3.25-1.65,4.71-2.75,2.1,2.92,3.22,6.36,3.25,9.96Z"/></g><g id="pc-2"><text class="cls-2" transform="translate(0 55.34)"><tspan x="0" y="0">LANGUAGE</tspan></text></g></svg>