<?xml version="1.0" encoding="UTF-8"?><svg id="_レイヤー_2" xmlns="http://www.w3.org/2000/svg" viewBox="0 0 74.97 74.97"><defs><style>.cls-1{fill:#ffe173;}.cls-2{fill:#bd2f8a;}</style></defs><g id="_モバイル"><g><circle class="cls-1" cx="37.49" cy="37.49" r="37.49"/><g><path class="cls-2" d="M54.85,39.02c-.09-.2-.26-.35-.47-.42l-16.5-5.34s-.04,0-.06-.01c-.03,0-.06-.01-.09-.02-.03,0-.06,0-.09,0s-.06,0-.09,0c-.03,0-.06,.01-.09,.02-.02,0-.04,0-.06,.01l-16.5,5.34c-.21,.07-.38,.22-.47,.42-.09,.2-.09,.43,0,.63l6.38,13.92c.13,.28,.41,.45,.7,.45,.11,0,.22-.02,.32-.07,.39-.18,.55-.63,.38-1.02l-6.02-13.13,14.68-4.75v18.2c0,.42,.34,.77,.77,.77s.77-.34,.77-.77v-18.2l14.68,4.75-6.02,13.13c-.18,.39,0,.84,.38,1.02,.1,.05,.21,.07,.32,.07,.29,0,.57-.17,.7-.45l6.38-13.92c.09-.2,.09-.43,0-.63Z"/><path class="cls-2" d="M52.83,59.75c-1.38,0-2.06-1.1-2.55-1.9-.5-.81-.77-1.17-1.25-1.17s-.74,.36-1.25,1.17c-.5,.8-1.17,1.9-2.55,1.9s-2.06-1.1-2.55-1.9c-.5-.81-.77-1.17-1.25-1.17s-.74,.36-1.24,1.17c-.5,.8-1.17,1.9-2.55,1.9s-2.05-1.1-2.55-1.9c-.5-.81-.77-1.17-1.24-1.17s-.74,.36-1.24,1.17c-.5,.8-1.17,1.9-2.55,1.9s-2.05-1.1-2.55-1.9c-.5-.81-.77-1.17-1.24-1.17s-.74,.36-1.24,1.17c-.5,.8-1.17,1.9-2.55,1.9-.42,0-.77-.34-.77-.77s.34-.77,.77-.77c.47,0,.74-.36,1.24-1.17,.5-.8,1.17-1.9,2.55-1.9s2.05,1.1,2.55,1.9c.5,.81,.77,1.17,1.24,1.17s.74-.36,1.24-1.17c.5-.8,1.17-1.9,2.55-1.9s2.05,1.1,2.55,1.9c.5,.81,.77,1.17,1.24,1.17s.74-.36,1.24-1.17c.5-.8,1.17-1.9,2.55-1.9s2.06,1.1,2.55,1.9c.5,.81,.77,1.17,1.25,1.17s.74-.36,1.24-1.17c.5-.8,1.17-1.9,2.55-1.9s2.06,1.1,2.55,1.9c.5,.81,.77,1.17,1.25,1.17,.42,0,.77,.34,.77,.77s-.34,.77-.77,.77Z"/><path class="cls-2" d="M49.89,36.03c-.42,0-.77-.34-.77-.77v-5.69H26.18v5.69c0,.42-.34,.77-.77,.77s-.77-.34-.77-.77v-6.46c0-.42,.34-.77,.77-.77h24.48c.42,0,.77,.34,.77,.77v6.46c0,.42-.34,.77-.77,.77Z"/><path class="cls-2" d="M30.38,28.03v-4.25h14.54v4.25h1.53v-5.01c0-.42-.34-.77-.77-.77H29.61c-.42,0-.77,.34-.77,.77v5.01h1.53Z"/><path class="cls-2" d="M35.94,22.25v-3.92h3.42v3.92h1.53v-4.69c0-.42-.34-.77-.77-.77h-4.95c-.42,0-.77,.34-.77,.77v4.69h1.53Z"/></g></g></g></svg>