<?xml version="1.0" encoding="UTF-8"?><svg id="_レイヤー_2" xmlns="http://www.w3.org/2000/svg" viewBox="0 0 74.97 74.97"><defs><style>.cls-1{fill:#ffe173;}.cls-2{fill:#bd2f8a;}</style></defs><g id="_モバイル"><g><circle class="cls-1" cx="37.49" cy="37.49" r="37.49"/><g><path class="cls-2" d="M37.36,33.13c-.12,0-.25-.03-.36-.1l-5.4-3.12c-.17-.1-.29-.26-.34-.44-.05-.19-.02-.39,.08-.55l1.68-2.85c.2-.35,.65-.46,.99-.26,.35,.2,.46,.65,.26,1l-1.31,2.22,4.14,2.39,1.31-2.23c.2-.35,.65-.46,1-.26,.35,.2,.46,.65,.26,1l-1.68,2.85c-.14,.23-.38,.36-.63,.36Z"/><path class="cls-2" d="M32.7,44.94c-.24,.42-.79,.57-1.21,.32-.42-.25-.57-.79-.32-1.21,.25-.43,.79-.57,1.21-.33,.42,.25,.57,.79,.32,1.21Z"/><path class="cls-2" d="M35.7,46.67c-.25,.42-.79,.57-1.21,.33-.43-.25-.57-.79-.33-1.21,.25-.43,.79-.57,1.21-.33,.42,.25,.57,.79,.33,1.21Z"/><path class="cls-2" d="M28.16,42.32c-.24,.42-.1,.97,.32,1.21,.42,.25,.97,.1,1.21-.33,.25-.43,.1-.97-.33-1.21-.42-.24-.97-.1-1.21,.33Z"/><path class="cls-2" d="M37.92,59.2h0c-2.71,0-4.92-2.21-4.92-4.92s2.21-4.92,4.92-4.92,4.92,2.21,4.92,4.92c0,1.31-.51,2.55-1.44,3.48-.93,.93-2.17,1.44-3.48,1.44Zm0-8.39c-1.91,0-3.47,1.56-3.47,3.47s1.56,3.47,3.47,3.47c.93,0,1.8-.36,2.45-1.02,.66-.66,1.02-1.53,1.02-2.45,0-1.91-1.56-3.47-3.47-3.47Z"/><path class="cls-2" d="M48.74,31.73c-.05-.19-.17-.34-.34-.44l-21.04-12.15c-.35-.2-.79-.08-.99,.27l-11.1,19.23c-.1,.17-.12,.37-.07,.55,.05,.19,.17,.35,.34,.44l16.97,9.8c.34-.38,.72-.72,1.14-1.02l-16.75-9.67,10.38-17.97,19.78,11.42-8.57,14.84c.51,.04,1.02,.14,1.52,.28l8.67-15.02c.1-.17,.12-.37,.07-.55Z"/><path class="cls-2" d="M31.17,51.55l-13.01-7.51c-.35-.2-.79-.08-.99,.27-.2,.35-.08,.79,.27,.99l13.32,7.69c.09-.49,.23-.97,.42-1.44Z"/><path class="cls-2" d="M37.92,59.21c-.86,0-1.71-.23-2.46-.66-1.14-.66-1.95-1.72-2.29-2.99-.34-1.27-.17-2.6,.49-3.74,.88-1.52,2.51-2.46,4.27-2.46,.86,0,1.71,.23,2.46,.66,2.35,1.36,3.16,4.37,1.8,6.72-.88,1.52-2.51,2.46-4.27,2.46Zm0-8.39c-1.24,0-2.39,.66-3.01,1.74-.46,.8-.59,1.74-.35,2.63,.24,.89,.81,1.64,1.62,2.11,.53,.3,1.13,.47,1.73,.47,1.24,0,2.39-.66,3.01-1.74,.96-1.66,.39-3.78-1.27-4.74-.53-.3-1.13-.47-1.73-.47Z"/><path class="cls-2" d="M57.24,32.23c-.53,0-.99-.36-1.13-.87l-.63-2.34c-.17-.62,.2-1.26,.83-1.43l6.08-1.63c.1-.03,.2-.04,.3-.04,.53,0,.99,.36,1.13,.87l.63,2.35c.08,.3,.04,.62-.12,.89-.16,.27-.41,.46-.71,.54l-6.08,1.63c-.1,.03-.2,.04-.3,.04Zm-.28-3.31l.48,1.79,5.53-1.48-.48-1.79-5.53,1.48Z"/><path class="cls-2" d="M55.61,29.48l-2.23,.6c-.19,.05-.34,.17-.44,.34l-10.49,18.17c.4,.32,.76,.67,1.07,1.05l10.53-18.23,1.94-.52-.38-1.4Z"/></g></g></g></svg>