<?xml version="1.0" encoding="UTF-8"?><svg id="_レイヤー_2" xmlns="http://www.w3.org/2000/svg" viewBox="0 0 74.97 74.97"><defs><style>.cls-1{fill:#ffe173;}.cls-2{fill:none;stroke:#bd2f8a;stroke-linecap:round;stroke-linejoin:round;stroke-width:2px;}</style></defs><g id="_モバイル"><g><circle class="cls-1" cx="37.49" cy="37.49" r="37.49"/><g><ellipse class="cls-2" cx="31.72" cy="20.2" rx="3.84" ry="4.8"/><line class="cls-2" x1="25.96" y1="40.37" x2="25.96" y2="59.58"/><line class="cls-2" x1="31.72" y1="59.58" x2="31.72" y2="45.17"/><path class="cls-2" d="M28.84,27.88h-.96c-3.18,0-5.76,2.58-5.76,5.76v1.92c0,2.12,1.72,3.84,3.84,3.84h3.36c1.33,0,2.4-1.08,2.4-2.4h0c0-1.33-1.08-2.4-2.4-2.4h-2.4"/><path class="cls-2" d="M48.05,33.4c-.23,.62-.72,1.14-1.34,1.41l-3.24,1.48c-.77,.32-1.65,.28-2.39-.09l-3.6-1.82v25.2"/><path class="cls-2" d="M34.6,27.88h.63c1.69,0,2.51,.68,3.07,1.09l3.19,2.07c.52,.33,1.16,.4,1.74,.18l1.81-.7c1.41-.55,2.54,.18,3,1.27,0,.02,.01,.03,.02,.05"/><line class="cls-2" x1="45.17" y1="23.08" x2="50.93" y2="23.08"/><line class="cls-2" x1="48.05" y1="23.08" x2="48.05" y2="48.05"/><line class="cls-2" x1="25.96" y1="19.23" x2="37.49" y2="19.23"/><path class="cls-2" d="M52.85,59.58v-9.61c0-1.06-.86-1.92-1.92-1.92h-5.76c-1.06,0-1.92,.86-1.92,1.92v9.61"/><text/></g></g></g></svg>