<?xml version="1.0" encoding="UTF-8"?><svg id="_レイヤー_2" xmlns="http://www.w3.org/2000/svg" viewBox="0 0 74.97 74.97"><defs><style>.cls-1{fill:#ffe173;}.cls-2{fill:#bd2f8a;}</style></defs><g id="_モバイル"><g><circle class="cls-1" cx="37.49" cy="37.49" r="37.49"/><g><path class="cls-2" d="M18.51,57.86h19.96c.37,0,.66-.3,.66-.66s-.3-.66-.66-.66h-3.74v-10.75h7.47v11.24c0,.09,.02,.17,.05,.24,.04,.33,.31,.59,.65,.59h15.15c.37,0,.66-.3,.66-.66s-.3-.66-.66-.66h-2.51v-15.63h2.65c.37,0,.66-.3,.66-.66s-.3-.66-.66-.66h-1.15v-5.35h1.15c.37,0,.66-.3,.66-.66s-.3-.66-.66-.66h-2.74s0-.06,0-.1v-14.26c0-.37-.3-.66-.66-.66H28.87c-.37,0-.66,.3-.66,.66s.3,.66,.66,.66h25.27v13.6s0,.07,0,.1H27.51c-.37,0-.66,.3-.66,.66s.3,.66,.66,.66h3.78v5.35h-3.78c-.37,0-.66,.3-.66,.66s.3,.66,.66,.66h26.71v15.63h-10.7v-11.41c0-.37-.3-.66-.66-.66h-8.8c-.37,0-.66,.3-.66,.66v11.41h-10.94v-16.37s0,0,0,0c0-.04,.01-.09,.01-.14V19.19h2.56c.37,0,.66-.3,.66-.66s-.3-.66-.66-.66h-3.02s-.01,0-.02,0c-.06-.02-.12-.03-.18-.03-.37,0-.66,.3-.66,.66v21.52s0,0,0,0c0,.04-.01,.09-.01,.14v16.37h-2.63c-.37,0-.66,.3-.66,.66s.3,.66,.66,.66Zm20.93-18.28h-6.82v-5.35h6.82v5.35Zm8.14,0h-6.82v-5.35h6.82v5.35Zm1.32,0v-5.35h6.82v5.35h-6.82Z"/><path class="cls-2" d="M50.95,30.35c.37,0,.66-.3,.66-.66v-6.62c0-.37-.3-.66-.66-.66h-9.32c-.37,0-.66,.3-.66,.66v6.62c0,.37,.3,.66,.66,.66h9.32Zm-8.66-6.62h3.34v3.55c0,.37,.3,.66,.66,.66s.66-.3,.66-.66v-3.55h3.34v5.3h-8v-5.3Z"/></g></g></g></svg>