<?xml version="1.0" encoding="utf-8"?>
<!-- Generator: Adobe Illustrator 27.5.0, SVG Export Plug-In . SVG Version: 6.00 Build 0)  -->
<svg version="1.1" id="レイヤー_1" xmlns="http://www.w3.org/2000/svg" xmlns:xlink="http://www.w3.org/1999/xlink" x="0px"
	 y="0px" viewBox="0 0 285 80" style="enable-background:new 0 0 285 80;" xml:space="preserve">
<style type="text/css">
	.st0{fill:#283C73;}
	.st1{opacity:0.7;fill:url(#SVGID_1_);enable-background:new    ;}
	.st2{fill:#FFFFFF;}
	.st3{fill:#30A1D2;}
	.st4{fill:none;}
</style>
<rect class="st0" width="285" height="80"/>
<linearGradient id="SVGID_1_" gradientUnits="userSpaceOnUse" x1="-5.3" y1="42" x2="284.96" y2="42" gradientTransform="matrix(1 0 0 -1 0 82)">
	<stop  offset="0" style="stop-color:#283C73"/>
	<stop  offset="1" style="stop-color:#172642"/>
</linearGradient>
<path class="st1" d="M285,0h-96.6c-4,2.5-7.4,5-10.8,7.4c-8.4,6.2-16.4,12.1-34.1,17s-27,3.7-36.8,2.5c-10-1.2-20.4-2.5-39.4,2.7
	S39.4,41.3,30.8,47.6c-7.9,5.8-15.4,11.3-30.8,16V80h285V0z"/>
<g>
	<path class="st2" d="M163.9,49.2h1.9v-1.7h-6.5v-1.3l6.5-0.3v-1.7l-15.1,0.6v1.7l6.6-0.3v1.2h-6.6v1.7h1.9V51h-2.4v1.7h2.4v1.7
		h-1.9V56h3.6l-4,2.5v2l7.1-4.4v4.2h1.9v-4.2l7,4.4v-2l-4-2.5h3.5v-1.7h-1.9v-1.7h2.4V51h-2.4V49.2z M157.3,54.4h-2.8v-1.7h2.8V54.4
		z M157.3,51h-2.8v-1.7h2.8V51z M162,54.4h-2.8v-1.7h2.8V54.4z M162,51h-2.8v-1.7h2.8V51z"/>
	<polygon class="st2" points="179.9,44.3 182,51.8 183.8,51.8 181.8,44.3 	"/>
	<path class="st2" d="M178.9,44.3H177l-2.1,7.5l-0.3,0v-6.4h-2.2l0.3-1.1h-1.9l-0.3,1.1h-2.3v6.8l-0.7,0v1.8l0.6,0l-0.4,6.2h1.8
		l0.4-6.3l0.8,0V59h1.3v-5.2l0.9-0.1v6.5h1.7v-6.6l0.5,0v-1.8h1.6L178.9,44.3L178.9,44.3z M172.9,51.9l-3,0.2v-5h3V51.9z"/>
	<path class="st2" d="M175.7,60.1h7.2v-8h-7.2C175.7,52.1,175.7,60.1,175.7,60.1z M177.6,53.9h3.6v4.3h-3.6V53.9z"/>
	<polygon class="st2" points="172.2,51.6 171.9,47.5 170.5,47.5 170.9,51.6 	"/>
	<path class="st2" d="M199.4,48.4v-3.8h-9.7l-4.5,2.8v2.2l2.2-1.4l2.6,2.7l-5,2.3v2.1l2.3-1.1V60h13.2v-7.6h-9.5L199.4,48.4z
		 M189.6,47.8H188l2.1-1.3h7.3v0.9l-5.6,2.6L189.6,47.8L189.6,47.8z M198.4,54.3v3.9h-9.3v-3.9H198.4z"/>
	<polygon class="st2" points="204.6,46.5 206.4,46.5 206.4,48.2 208.3,48.2 208.3,46.5 210.1,46.5 210.1,44.9 205.1,44.9 
		205.2,44.3 203.2,44.3 202.1,48 204.1,48 	"/>
	<polygon class="st2" points="206.3,49.5 202.2,48.5 202.2,50.2 206.3,51.2 	"/>
	<path class="st2" d="M218.2,50.2v-1.6h-0.9l-0.2-0.8h-1.1v-1.3h2.2v-1.6h-5.5l0.2-0.6h-2l-1.2,3.7h1.8v0.6h-4.9v1.6h4.9v0.4H207
		v5.1h7.6v0.6h-8.1v1.6h1.7l0.5,1.9h1.9l-0.5-1.9h4.5v0.9h-2.4v1.5h4.3v-2.4h1.7v-1.6h-1.7v-0.6h1.2v-5.1h-4.4v-0.4L218.2,50.2
		L218.2,50.2z M211.5,54.4h-2.6v-0.6h2.6V54.4z M211.5,52.6h-2.6V52h2.6V52.6z M215.9,54.4h-2.7v-0.6h2.7V54.4z M215.9,52v0.5h-2.7
		V52H215.9z M211.7,47.8l0.4-1.3h2v1.6h1.4l0.1,0.5h-2.4v-0.8L211.7,47.8L211.7,47.8z"/>
	<polygon class="st2" points="202,60.3 204.1,60.3 206.5,54.7 204.5,54.7 	"/>
	<polygon class="st2" points="202.2,53.1 206.3,54.1 206.3,52.3 202.2,51.3 	"/>
	<polygon class="st2" points="114.3,55.5 114.2,55.5 111,44.4 109.2,44.4 105.9,55.5 105.9,55.5 103.3,44.4 100.6,44.4 104.8,60 
		106.9,60 110.1,48.8 110.1,48.8 113.3,60 115.4,60 119.6,44.4 116.9,44.4 	"/>
	<polygon class="st2" points="122.2,60 132.8,60 132.8,57.8 124.7,57.8 124.7,53.2 131.6,53.2 131.6,51.1 124.7,51.1 124.7,46.6 
		132.8,46.6 132.8,44.4 122.2,44.4 	"/>
	<path class="st2" d="M144.6,52L144.6,52c0.5-0.2,0.9-0.5,1.2-0.8c0.3-0.2,0.6-0.5,0.8-0.8c0.3-0.6,0.5-1.2,0.5-1.8
		c0-1.3-0.4-2.3-1.2-3c-0.8-0.8-2.1-1.1-3.7-1.2h-6.4V60h7c1.3,0,2.4-0.4,3.3-1.2c0.9-0.8,1.3-1.8,1.4-3.2c0-0.8-0.2-1.6-0.6-2.3
		C146.1,52.7,145.5,52.2,144.6,52L144.6,52z M138.1,46.5h3.6c0.9,0,1.6,0.2,2,0.6c0.4,0.4,0.7,1,0.7,1.6s-0.2,1.2-0.7,1.6
		c-0.4,0.5-1.1,0.7-2,0.7h-3.6V46.5z M144.1,57.1c-0.4,0.5-1.1,0.7-2.1,0.7h-3.9v-4.7h3.9c0.9,0,1.6,0.2,2.1,0.7
		c0.4,0.5,0.6,1,0.6,1.7S144.5,56.6,144.1,57.1z"/>
</g>
<g>
	<path class="st2" d="M101.8,25.6h7.1v2.2h-4.5v2.7h4.2v2.1h-4.2v4.7h-2.7V25.6L101.8,25.6z"/>
	<path class="st2" d="M114.1,25.6v11.7h-2.7V25.6H114.1z"/>
	<path class="st2" d="M117.1,34.6c0.7,0.4,1.8,0.7,2.9,0.7c1.2,0,1.8-0.5,1.8-1.3s-0.6-1.1-2-1.7c-1.9-0.7-3.2-1.8-3.2-3.5
		c0-2,1.7-3.5,4.4-3.5c1.3,0,2.3,0.3,3,0.6l-0.6,2.1c-0.5-0.2-1.3-0.5-2.4-0.5s-1.7,0.5-1.7,1.1c0,0.8,0.7,1.1,2.2,1.6
		c2.1,0.8,3,1.8,3,3.5c0,2-1.5,3.6-4.7,3.6c-1.3,0-2.7-0.3-3.3-0.7L117.1,34.6L117.1,34.6z"/>
	<path class="st2" d="M129.6,25.6v4.5h4.4v-4.5h2.6v11.7h-2.6v-4.9h-4.4v4.9h-2.7V25.6H129.6z"/>
	<path class="st2" d="M142.1,25.6v11.7h-2.6V25.6H142.1z"/>
	<path class="st2" d="M144.9,37.3V25.6h3.1l2.4,4.3c0.7,1.2,1.4,2.7,1.9,4h0.1c-0.2-1.5-0.2-3.1-0.2-4.9v-3.4h2.4v11.7h-2.8
		l-2.5-4.5c-0.7-1.2-1.5-2.8-2-4.1l-0.1,0c0.1,1.5,0.1,3.2,0.1,5.1v3.5L144.9,37.3L144.9,37.3z"/>
	<path class="st2" d="M167.2,36.8c-0.8,0.3-2.4,0.7-3.9,0.7c-2.1,0-3.7-0.5-4.8-1.6c-1.1-1-1.7-2.5-1.6-4.2c0-3.9,2.8-6.1,6.7-6.1
		c1.5,0,2.7,0.3,3.2,0.6l-0.6,2.1c-0.6-0.3-1.4-0.5-2.7-0.5c-2.2,0-3.9,1.2-3.9,3.8s1.5,3.8,3.7,3.8c0.6,0,1.1-0.1,1.3-0.2v-2.4
		h-1.8v-2.1h4.4L167.2,36.8L167.2,36.8z"/>
	<path class="st2" d="M174.2,25.8c0.7-0.1,1.7-0.2,2.9-0.2c1.5,0,2.6,0.4,3.3,1c0.6,0.5,1,1.4,1,2.4s-0.3,1.9-0.9,2.5
		c-0.8,0.8-2.1,1.3-3.6,1.3c-0.4,0-0.9,0-1.2-0.1v4.7h-1.5L174.2,25.8L174.2,25.8z M175.7,31.4c0.3,0.1,0.7,0.1,1.2,0.1
		c1.8,0,2.9-0.9,2.9-2.5s-1.1-2.3-2.8-2.3c-0.7,0-1.2,0-1.4,0.1L175.7,31.4L175.7,31.4z"/>
	<path class="st2" d="M185.9,33.6l-1.2,3.7h-1.6l4-11.7h1.8l4,11.7h-1.6l-1.2-3.7C190,33.6,185.9,33.6,185.9,33.6z M189.7,32.5
		l-1.1-3.4c-0.3-0.8-0.4-1.5-0.6-2.1h0c-0.2,0.7-0.4,1.4-0.6,2.1l-1.1,3.4H189.7L189.7,32.5z"/>
	<path class="st2" d="M195,35.5c0.7,0.4,1.7,0.8,2.7,0.8c1.5,0,2.4-0.8,2.4-2c0-1.1-0.6-1.7-2.2-2.3c-1.9-0.7-3.1-1.7-3.1-3.3
		c0-1.8,1.5-3.2,3.8-3.2c1.2,0,2.1,0.3,2.6,0.6l-0.4,1.2c-0.4-0.2-1.2-0.5-2.2-0.5c-1.6,0-2.2,1-2.2,1.8c0,1.1,0.7,1.6,2.3,2.2
		c2,0.8,3,1.7,3,3.4c0,1.8-1.3,3.4-4.1,3.4c-1.1,0-2.4-0.3-3-0.7L195,35.5L195,35.5z"/>
	<path class="st2" d="M204.1,35.5c0.7,0.4,1.7,0.8,2.7,0.8c1.5,0,2.4-0.8,2.4-2c0-1.1-0.6-1.7-2.2-2.3c-1.9-0.7-3.1-1.7-3.1-3.3
		c0-1.8,1.5-3.2,3.8-3.2c1.2,0,2.1,0.3,2.6,0.6l-0.4,1.2c-0.4-0.2-1.2-0.5-2.2-0.5c-1.6,0-2.2,1-2.2,1.8c0,1.1,0.7,1.6,2.3,2.2
		c2,0.8,3,1.7,3,3.4c0,1.8-1.3,3.4-4.1,3.4c-1.1,0-2.4-0.3-3-0.7L204.1,35.5L204.1,35.5z"/>
	<path class="st2" d="M213.4,25.8c0.7-0.1,1.7-0.2,2.9-0.2c1.5,0,2.6,0.4,3.3,1c0.6,0.5,1,1.4,1,2.4s-0.3,1.9-0.9,2.5
		c-0.8,0.8-2.1,1.3-3.6,1.3c-0.4,0-0.9,0-1.2-0.1v4.7h-1.5L213.4,25.8L213.4,25.8z M214.9,31.4c0.3,0.1,0.7,0.1,1.2,0.1
		c1.8,0,2.9-0.9,2.9-2.5s-1.1-2.3-2.8-2.3c-0.7,0-1.2,0-1.4,0.1L214.9,31.4L214.9,31.4z"/>
	<path class="st2" d="M233.1,31.3c0,4-2.4,6.2-5.4,6.2s-5.2-2.4-5.2-5.9c0-3.7,2.3-6.1,5.4-6.1S233.1,27.9,233.1,31.3L233.1,31.3z
		 M224.1,31.5c0,2.5,1.4,4.7,3.7,4.7s3.7-2.2,3.7-4.9c0-2.3-1.2-4.8-3.7-4.8S224.1,29,224.1,31.5z"/>
	<path class="st2" d="M235.7,25.8c0.8-0.2,1.9-0.2,2.9-0.2c1.6,0,2.6,0.3,3.4,1c0.6,0.5,0.9,1.3,0.9,2.2c0,1.5-1,2.6-2.2,3v0
		c0.9,0.3,1.4,1.1,1.7,2.4c0.4,1.6,0.7,2.8,0.9,3.2h-1.6c-0.2-0.3-0.4-1.3-0.8-2.8c-0.4-1.6-1-2.2-2.3-2.3h-1.4v5.1h-1.5L235.7,25.8
		L235.7,25.8z M237.2,31.1h1.5c1.6,0,2.6-0.9,2.6-2.2c0-1.5-1.1-2.2-2.7-2.2c-0.7,0-1.2,0.1-1.5,0.1V31.1z"/>
	<path class="st2" d="M247.8,26.9h-3.6v-1.3h8.6v1.3h-3.6v10.4h-1.5L247.8,26.9L247.8,26.9z"/>
	<path class="st2" d="M260,28.3c0,1.6-1.3,2.9-2.9,2.9s-2.9-1.3-2.9-2.9s1.3-2.8,2.9-2.8C258.7,25.4,260,26.7,260,28.3z M254.9,28.3
		c0,1.3,0.9,2.3,2.2,2.3c1.3,0,2.2-1,2.2-2.2s-0.9-2.3-2.2-2.3S254.9,27,254.9,28.3L254.9,28.3z M256.6,29.8h-0.7v-2.8
		c0.3,0,0.6-0.1,1.1-0.1c0.5,0,0.8,0.1,1,0.2c0.2,0.1,0.3,0.4,0.3,0.6c0,0.3-0.2,0.5-0.6,0.7v0c0.3,0.1,0.4,0.3,0.5,0.7
		c0.1,0.4,0.1,0.6,0.2,0.7h-0.7c-0.1-0.1-0.1-0.4-0.2-0.7c0-0.3-0.2-0.5-0.6-0.5h-0.3L256.6,29.8L256.6,29.8z M256.6,28.1h0.3
		c0.4,0,0.7-0.1,0.7-0.4c0-0.3-0.2-0.4-0.6-0.4c-0.2,0-0.3,0-0.4,0L256.6,28.1L256.6,28.1z"/>
</g>
<g>
	<path class="st3" d="M77.1,59.8v-3.5c0-0.2-0.2-0.4-0.4-0.4h-1.2v4.3h1.2C76.9,60.2,77.1,60,77.1,59.8z"/>
	<path class="st3" d="M73.4,43.3H55.9v24.3h17.5c0.7,0,1.3-0.6,1.3-1.3V44.6C74.6,43.9,74.1,43.3,73.4,43.3z"/>
	<g>
		<path class="st2" d="M68.7,60.3h-6.8c-0.3,0-0.5,0.2-0.5,0.5s0.2,0.5,0.5,0.5h6.8c0.3,0,0.5-0.2,0.5-0.5S69,60.3,68.7,60.3z"/>
		<path class="st2" d="M67.1,62.2h-3.7c-0.3,0-0.5,0.2-0.5,0.5s0.2,0.5,0.5,0.5h3.7c0.3,0,0.5-0.2,0.5-0.5S67.4,62.2,67.1,62.2z"/>
		<path class="st2" d="M65.3,53.1c1.3,0,2.4-1.1,2.4-2.4s-1.1-2.4-2.4-2.4s-2.4,1.1-2.4,2.4S64,53.1,65.3,53.1z"/>
		<path class="st2" d="M67.6,53.7h-0.2c-0.6,0.4-1.3,0.6-2,0.6s-1.4-0.2-2-0.6h-0.2c-1,0-1.8,1.1-1.8,2.4V57h8.1v-0.9
			C69.4,54.8,68.5,53.7,67.6,53.7L67.6,53.7z"/>
	</g>
	<path class="st3" d="M76.7,45.6h-1.2v4.3h1.2c0.2,0,0.4-0.2,0.4-0.4V46C77.1,45.8,76.9,45.6,76.7,45.6z"/>
	<path class="st3" d="M77.1,54.7v-3.5c0-0.2-0.2-0.4-0.4-0.4h-1.2v4.3h1.2C76.9,55.1,77.1,54.9,77.1,54.7z"/>
	<path class="st3" d="M77.1,65v-3.5c0-0.2-0.2-0.4-0.4-0.4h-1.2v4.3h1.2C76.9,65.4,77.1,65.2,77.1,65z"/>
	<path class="st4" d="M76.7,55.9h-1.2v4.3h1.2c0.2,0,0.4-0.2,0.4-0.4v-3.5C77.1,56.1,76.9,55.9,76.7,55.9z"/>
	<path class="st4" d="M76.7,50.8h-1.2v4.3h1.2c0.2,0,0.4-0.2,0.4-0.4v-3.5C77.1,50.9,76.9,50.8,76.7,50.8z"/>
	<path class="st4" d="M76.7,45.6h-1.2v4.3h1.2c0.2,0,0.4-0.2,0.4-0.4V46C77.1,45.8,76.9,45.6,76.7,45.6z"/>
	<path class="st4" d="M76.7,61.1h-1.2v4.3h1.2c0.2,0,0.4-0.2,0.4-0.4v-3.5C77.1,61.3,76.9,61.1,76.7,61.1z"/>
	<path class="st2" d="M37.3,15.6c0,0,0.1,0,0.1,0c0,0,0,0.1,0.1,0.1c0.1,0.1,0.2,0.3,0.4,0.4c0.5,0.7,1,1.4,1.4,2.1
		c0.8,1.4,1.3,2.9,1.7,4.4c0,0,0,0.1,0,0.1c0,0,0.1,0,0.1,0c0.7-0.3,1.3-0.5,2-0.7c0.4-0.1,0.8-0.2,1.2-0.3c0.3,0,0.5-0.1,0.8-0.1
		c0.2,0,0.4-0.1,0.6-0.1c0.2,0,0.3,0,0.5-0.1c0.2,0,0.4,0,0.6-0.1c0.1,0,0.3,0,0.4,0c0.2,0,0.3,0,0.5,0c0.2,0,0.5,0,0.7,0
		c0.3,0,0.6,0,0.9,0c0.3,0,0.6,0,0.9,0.1c0.2,0,0.4,0,0.6,0.1c0.3,0,0.6,0.1,0.9,0.1c0.3,0,0.7,0.1,1,0.1c0.4,0.1,0.8,0.2,1.2,0.3
		c0.7,0.2,1.5,0.4,2.2,0.7c0,0,0,0,0.1,0c0,0,0-0.1,0-0.1c0.1-0.5,0.3-1.1,0.5-1.6c0.4-1.1,0.8-2.2,1.4-3.2c0.5-0.8,1-1.5,1.6-2.2
		c0,0,0-0.1,0.1-0.1c0,0,0.1,0,0.1,0c0.2,0.1,0.3,0.1,0.5,0c0.5-0.1,0.7-0.6,0.6-1c-0.1-0.5-0.6-0.7-1-0.6c-0.5,0.2-0.8,0.8-0.4,1.3
		c0,0,0,0.1,0.1,0.1c0,0-0.1,0.1-0.1,0.1c-0.1,0.1-0.2,0.2-0.3,0.4c-0.3,0.4-0.7,0.8-1.1,1.1c-0.2,0.2-0.5,0.4-0.8,0.5
		c-0.2,0.1-0.4,0.2-0.6,0.2c-0.2,0-0.3,0-0.5,0c-0.2,0-0.4-0.1-0.5-0.3c-0.1-0.2-0.2-0.4-0.3-0.6c-0.1-0.3-0.2-0.7-0.2-1
		c0-0.6,0-1.1,0.1-1.6c0.1-0.5,0.2-1.1,0.4-1.6c0,0,0-0.1,0-0.1c0.2,0,0.4,0,0.5-0.1c0.2-0.1,0.3-0.2,0.4-0.3
		c0.1-0.1,0.2-0.3,0.2-0.5c0.1-0.5-0.2-0.9-0.7-1.1c-0.5-0.2-1,0-1.2,0.4C55,11.2,55,11.4,55,11.7c0,0.3,0.2,0.6,0.5,0.7
		c0,0,0,0.1,0,0.1c-0.4,0.7-0.8,1.4-1.3,2.1c-0.3,0.4-0.6,0.8-0.9,1.1c-0.2,0.2-0.5,0.4-0.8,0.6c-0.2,0.1-0.4,0.2-0.6,0.2
		c-0.2,0-0.4,0-0.6-0.1c0,0-0.1,0-0.1-0.1c-0.1-0.1-0.2-0.2-0.3-0.4c-0.2-0.3-0.4-0.6-0.6-0.9c-0.3-0.6-0.5-1.1-0.7-1.7
		c-0.2-0.8-0.4-1.7-0.6-2.5c0-0.1,0-0.2,0-0.2c0.1,0,0.1,0,0.2,0c0.6-0.2,0.9-0.7,0.9-1.3c0-0.5-0.5-1-1-1.1c0,0,0,0,0,0h-0.3
		c0,0-0.1,0-0.1,0c-0.7,0.2-1.1,0.9-0.8,1.6c0.1,0.4,0.4,0.6,0.8,0.7c0,0,0.1,0,0.1,0c0,0.1,0,0.2-0.1,0.3c-0.1,0.6-0.3,1.3-0.4,1.9
		c-0.2,0.6-0.4,1.2-0.6,1.8c-0.2,0.4-0.3,0.7-0.5,1c-0.1,0.2-0.3,0.4-0.4,0.5c-0.1,0.1-0.2,0.2-0.3,0.2c-0.1,0-0.2,0.1-0.3,0.1
		c-0.2,0-0.5-0.1-0.7-0.2c-0.3-0.1-0.5-0.3-0.7-0.5c-0.3-0.3-0.6-0.6-0.8-0.9c-0.6-0.8-1.2-1.7-1.7-2.6c0,0,0,0,0-0.1
		c0,0,0.1-0.1,0.1-0.1c0.2-0.2,0.4-0.4,0.4-0.7c0-0.7-0.6-1.2-1.2-1.1c-0.4,0.1-0.7,0.4-0.8,0.8c-0.1,0.4,0,0.8,0.4,1
		c0.2,0.1,0.4,0.2,0.6,0.2c0.1,0,0.1,0,0.2,0c0,0,0,0.1,0,0.1c0.1,0.4,0.2,0.7,0.2,1.1c0.1,0.4,0.2,0.9,0.2,1.4c0,0.4,0,0.8,0,1.2
		c0,0.2-0.1,0.5-0.2,0.7c-0.1,0.2-0.2,0.4-0.3,0.5c-0.1,0.1-0.2,0.2-0.4,0.3c-0.2,0.1-0.4,0-0.6,0c-0.3-0.1-0.5-0.2-0.7-0.3
		c-0.3-0.2-0.5-0.4-0.8-0.6c-0.4-0.4-0.8-0.8-1.1-1.2c-0.1-0.1-0.2-0.2-0.2-0.3c0,0,0-0.1,0.1-0.1c0.1-0.1,0.1-0.3,0.2-0.4
		c0-0.6-0.5-1-1-0.9c-0.3,0.1-0.5,0.3-0.6,0.6c-0.1,0.3,0,0.6,0.3,0.8C36.8,15.6,37,15.7,37.3,15.6L37.3,15.6z"/>
	<path class="st2" d="M52.9,63.5C52.9,63.5,52.9,63.5,52.9,63.5c-0.1-0.1-0.3-0.6-0.3-0.8c0.8-0.2,1.7-0.4,2.4-0.7v-0.5
		c-0.1,0-0.2,0.1-0.3,0.1c-0.7,0.2-1.4,0.4-2.1,0.6c0,0-0.1,0-0.1,0c0,0,0-0.1,0-0.1c0,0,0-0.1,0-0.1c0-0.1-0.2-0.2-0.3-0.1
		C52,62,52,62.1,52,62.2c0,0,0,0.1,0,0.2c0,0-0.1,0-0.1,0c-0.1,0-0.2,0-0.2,0c-0.2,0-0.5,0.1-0.7,0.1c-0.2,0-0.3,0-0.5,0.1
		c-0.2,0-0.4,0-0.6,0.1c-0.2,0-0.3,0-0.5,0c-0.2,0-0.5,0-0.7,0c-0.5,0-0.9,0-1.4,0c-0.3,0-0.5,0-0.8,0c-0.2,0-0.5,0-0.7-0.1
		c-0.2,0-0.5,0-0.7-0.1c0,0,0,0-0.1,0c0,0,0,0,0,0c0,0,0-0.1,0-0.1c0-0.1-0.1-0.2-0.2-0.2c-0.1,0-0.2,0-0.2,0.2c0,0,0,0,0,0.1
		c0,0,0,0.1,0,0.1c-1.3-0.2-2.6-0.5-3.8-1c-1.2-0.4-2.3-1-3.4-1.6c0,0,0-0.1,0-0.1c-0.1-0.4-0.2-0.8-0.6-1c0,0,0,0,0-0.1
		c0.1-0.2,0.4-0.8,0.4-0.9c0,0,0.1,0,0.1,0c0.1,0.1,0.2,0.1,0.3,0.2c0.1,0,0.2,0,0.2-0.1c0,0,0,0,0-0.1c0-0.1,0-0.2-0.1-0.2
		c0,0,0,0-0.1,0c-0.4-0.2-0.8-0.4-1.2-0.6c0,0,0,0-0.1,0c0,0-0.1,0-0.1,0c-0.1,0-0.1,0.1-0.1,0.2c0,0,0,0,0,0c0,0.1,0.1,0.1,0.1,0.1
		c0.1,0.1,0.2,0.1,0.4,0.2c0,0,0,0,0.1,0c0,0.1-0.1,0.2-0.1,0.3c0,0.1-0.1,0.2-0.1,0.3c0,0.1-0.1,0.2-0.2,0.3
		c-0.2-0.1-0.5-0.2-0.8-0.2c-0.3,0-0.5,0.1-0.8,0.2c-0.1-0.1-0.2-0.1-0.2-0.2c-0.6-0.5-1.2-1-1.8-1.6c-0.4-0.4-0.8-0.9-1.2-1.3
		c-0.4-0.4-0.7-0.9-1-1.4c-0.7-1-1.2-2.1-1.7-3.2c0,0,0-0.1,0-0.1c-0.2-0.3-0.5-0.4-0.9-0.3c-0.2,0.1-0.3,0.2-0.4,0.4
		c0,0.1-0.1,0.2-0.1,0.3c0,0.1,0,0.2,0,0.3c0.1,0.2,0.1,0.3,0.2,0.5c1.1,2.4,2.5,4.4,4.5,6.2c0.5,0.5,1.1,1,1.7,1.4
		c0,0,0.1,0,0.1,0.1c-0.1,0.8,0.1,1.4,0.8,1.9c0.7,0.4,1.4,0.3,2-0.1h0c0,0,0.1,0,0.1,0c1.2,0.7,2.4,1.2,3.7,1.7
		c0.9,0.3,1.9,0.6,2.8,0.8c0.3,0.1,0.7,0.1,1.1,0.2c0.2,0,0.4,0.1,0.7,0.1c0.2,0,0.5,0.1,0.7,0.1c0.2,0,0.4,0.1,0.7,0.1
		c0.3,0,0.7,0,1,0.1c0,0,0,0,0.1,0h1.4c0,0,0.1,0,0.1,0c0.3,0,0.7,0,1-0.1c0.3,0,0.6-0.1,0.9-0.1c0.3,0,0.5-0.1,0.8-0.1
		c0.3-0.1,0.7-0.1,1-0.2c0.7-0.1,1.3-0.3,2-0.5c0.2,0,0.3-0.1,0.5-0.1v-0.5C54.4,63.2,53.7,63.4,52.9,63.5L52.9,63.5z M35.7,60.9
		c-0.5,0-0.9-0.4-0.9-0.9s0.4-0.9,0.9-0.9c0.4,0,0.9,0.3,0.9,0.9C36.5,60.6,36.1,60.9,35.7,60.9z M44.5,63.7c0,0-0.1,0-0.1,0
		c-0.4-0.1-0.8-0.2-1.2-0.2c-0.8-0.2-1.6-0.4-2.3-0.7c-0.8-0.3-1.6-0.6-2.4-1c-0.4-0.2-0.8-0.4-1.2-0.6c0,0,0,0-0.1-0.1
		c0-0.1,0.1-0.1,0.1-0.2s0.1-0.1,0.1-0.2c0-0.1,0-0.1,0.1-0.2c0,0,0.1,0,0.1,0c0.4,0.2,0.7,0.4,1.1,0.6c1.2,0.6,2.5,1.1,3.9,1.5
		c0.6,0.2,1.1,0.3,1.7,0.4c0.1,0,0.2,0,0.3,0.1c0,0,0.1,0,0.1,0C44.6,63.1,44.5,63.6,44.5,63.7L44.5,63.7z M52.2,63.7
		c-0.2,0-0.5,0.1-0.7,0.1c-0.2,0-0.4,0.1-0.7,0.1c-0.2,0-0.4,0-0.6,0.1c-0.1,0-0.2,0-0.3,0c-0.2,0-0.3,0-0.5,0c-0.6,0-1.2,0-1.7,0
		c-0.3,0-0.6,0-0.8,0c-0.2,0-0.3,0-0.5,0c-0.2,0-0.4,0-0.6-0.1c-0.2,0-0.3,0-0.5-0.1c-0.1,0-0.2,0-0.3,0c0-0.2,0.1-0.5,0.1-0.7
		c0,0,0,0,0,0c0.2,0,0.4,0,0.7,0.1s0.4,0,0.7,0.1s0.4,0,0.7,0c0.2,0,0.4,0,0.7,0c0.2,0,0.4,0,0.7,0c0.2,0,0.4,0,0.7,0
		c0.2,0,0.4,0,0.7,0c0.2,0,0.4,0,0.7-0.1s0.4,0,0.7-0.1c0.2,0,0.4-0.1,0.7-0.1c0.2,0,0.4-0.1,0.6-0.1c0.1,0.3,0.2,0.5,0.2,0.8
		C52.4,63.6,52.3,63.7,52.2,63.7L52.2,63.7z"/>
	<polygon class="st2" points="37.3,43 37.3,43 37.3,43 	"/>
	<polygon class="st2" points="35.6,46 35.6,46 35.6,46 	"/>
	<path class="st2" d="M69.6,42.3c-0.1-0.5-0.2-0.9-0.3-1.3c-0.2-0.5-0.4-1-0.7-1.5c-0.2-0.2-0.4-0.4-0.6-0.6
		c-0.2-0.2-0.5-0.4-0.8-0.5c-0.2-0.1-0.5-0.2-0.7-0.2c-0.2,0-0.4-0.1-0.7-0.1c-0.2,0-0.4-0.1-0.6-0.2c-0.1,0-0.1-0.1-0.2-0.1
		c-0.1-0.1-0.1-0.1-0.1-0.2c0,0,0.1-0.1,0.1-0.2c0.1-0.1,0.3-0.2,0.4-0.4c0.2-0.2,0.5-0.3,0.7-0.5c0.1-0.1,0.2-0.2,0.4-0.3
		c0.3-0.3,0.6-0.7,0.7-1.1c0.1-0.3,0.1-0.5,0.1-0.8c0-0.2-0.1-0.4-0.3-0.6c-0.2-0.2-0.3-0.3-0.6-0.5c-0.3-0.2-0.6-0.3-0.9-0.4
		c-0.5-0.2-1.1-0.2-1.6-0.3c-0.2,0-0.3,0-0.5,0c-0.4,0-0.7,0-1.1,0c-0.5,0-0.9,0-1.4,0c-0.4,0-0.9,0-1.3,0c-0.2,0-0.5,0-0.7,0
		c-0.2,0-0.3,0-0.5,0c-0.5,0.1-1,0.2-1.5,0.3c-0.3,0.1-0.7,0.1-1,0.2c0,0,0,0-0.1,0c0.1-0.1,0.2-0.2,0.3-0.2
		c0.1-0.1,0.2-0.2,0.3-0.2c0.1-0.1,0.2-0.2,0.3-0.3c0.1-0.1,0.2-0.2,0.3-0.3s0.2-0.2,0.3-0.3s0.2-0.2,0.3-0.3s0.2-0.2,0.3-0.3
		c0-0.1-0.1-0.2-0.2-0.2c-0.1-0.1-0.2-0.3-0.4-0.4c-0.4-0.4-0.7-0.7-1.1-1c-0.1-0.1-0.3-0.2-0.4-0.3c-1.1-0.6-2.2-1.3-3.3-2
		c-1.3-0.7-2.6-1.3-4-1.8c-0.6-0.2-1.3-0.4-1.9-0.5c-0.3-0.1-0.6-0.1-0.9-0.1c-0.2,0-0.4-0.1-0.6-0.1s-0.4,0-0.6-0.1
		c-0.2,0-0.4,0-0.6,0c-0.4,0-0.9,0-1.3,0c-0.1,0-0.3,0-0.4,0c-0.1,0-0.2,0-0.3,0c0,0-0.1,0-0.1,0c-0.4-0.2-0.9-0.4-1.3-0.6
		c-1-0.4-2.1-0.7-3.2-0.9c-0.5-0.1-0.9-0.2-1.4-0.2c-0.2,0-0.5,0-0.7,0c-0.2,0-0.4,0.1-0.5,0.2c-0.2,0.1-0.4,0.4-0.4,0.6
		c0,0.1-0.1,0.3-0.2,0.4c-0.1,0.1-0.2,0.2-0.4,0.2c0,0-0.1,0-0.2,0.1c-0.1,0.1-0.1,0.2-0.1,0.3c0,0,0,0.1,0,0.1
		c0,0.1,0.1,0.1,0.2,0.2c0.1,0.1,0.2,0.1,0.3,0.2c0,0,0.1,0.1,0.1,0.1c0,0,0,0.1,0,0.1c0,0,0,0-0.1,0c-0.1,0-0.2,0.1-0.3,0.1
		c-0.1,0-0.2,0.1-0.2,0.1c0,0-0.1,0.1-0.1,0.1c0,0,0,0.1,0,0.1c0,0,0.1,0.1,0.2,0.1c0.1,0,0.2,0.1,0.2,0.1c0.1,0.1,0.1,0.2,0,0.3
		c0,0-0.1,0.1-0.1,0.1c-0.2,0.2-0.5,0.3-0.7,0.5c-0.2,0.2-0.5,0.5-0.6,0.8c0,0-0.1,0.1-0.1,0.1c-0.1,0.1-0.1,0.2-0.2,0.3
		c0,0,0,0.1,0,0.1c0,0,0,0.1,0.1,0.1c0.1,0,0.2,0,0.2-0.1c0.5-0.4,0.9-0.8,1.4-1.2c0.7-0.5,1.5-1,2.3-1.4c0.5-0.3,1-0.5,1.6-0.7
		c0,0,0.1,0,0.1-0.1c-0.1,0-0.2,0-0.3,0c-0.4,0.1-0.8,0.2-1.3,0.2c-0.3,0.1-0.7,0.1-1,0.1c-0.1,0-0.2,0-0.2,0c0,0,0,0,0,0
		c0,0,0-0.1,0.1-0.1c0.1,0,0.1-0.1,0.2-0.1c0.2-0.1,0.5-0.1,0.7-0.2c0.2,0,0.5-0.1,0.7-0.1s0.5-0.1,0.7-0.1c0.2,0,0.4,0,0.6-0.1
		c0.1,0,0.2,0,0.2,0c0,0,0,0-0.1,0c-0.2,0-0.5-0.1-0.7-0.1c-0.3,0-0.5,0-0.8,0c-0.3,0-0.6,0-0.9,0c-0.1,0-0.2,0-0.2,0
		c0,0-0.1,0-0.1,0c0,0,0,0,0-0.1c0,0,0-0.1,0.1-0.1c0.1-0.1,0.1-0.1,0.2-0.1c0,0,0.1,0,0.1,0c0.3,0,0.6-0.1,0.8-0.1
		c0.4,0,0.8,0,1.2,0.1c0.4,0,0.8,0.1,1.1,0.3c0.3,0.1,0.5,0.2,0.8,0.4c0,0,0,0,0.1,0.1c0,0-0.1,0-0.1,0c-0.3,0.1-0.7,0.2-1,0.3
		c-1.1,0.4-2.1,0.8-3.1,1.4c-0.9,0.5-1.7,1-2.5,1.7c-0.3,0.3-0.6,0.5-0.9,0.8c-0.1,0.1-0.1,0.1-0.2,0.2c-0.5,0.5-1,1.1-1.4,1.6
		c-0.6,0.8-1.1,1.7-1.5,2.6c-0.6,1.4-0.9,2.8-1,4.2c0,0.5,0,0.9,0.1,1.4c0,0.4,0.1,0.8,0.2,1.2c0.2,0.8,0.4,1.5,0.7,2.2
		c0.1,0.2,0.1,0.3,0.2,0.5c0,0,0,0.1,0.1,0.1c0,0,0,0,0,0c0,0,0,0,0,0c0-0.1,0-0.3,0-0.4c0,0,0-0.1,0-0.1c-0.3-1-0.6-2-0.6-3
		c0-0.2,0-0.4,0-0.7c0-0.1,0-0.3,0-0.4c0-0.2,0-0.3,0-0.5c0-0.4,0.1-0.8,0.2-1.2c0.2-0.7,0.4-1.4,0.7-2c0.5-1.1,1-2.1,1.8-3
		c0.8-1,1.7-1.9,2.7-2.6c1.2-0.9,2.5-1.6,3.8-2.1c1-0.4,2.1-0.8,3.1-1c0.6-0.1,1.1-0.2,1.7-0.3c0.1,0,0.3,0,0.4,0c0.2,0,0.5,0,0.7,0
		c0.2,0,0.4,0,0.5,0c0.3,0,0.7,0.1,1,0.1c0.4,0,0.7,0.1,1.1,0.2c0.8,0.2,1.6,0.4,2.4,0.6c1,0.3,1.9,0.7,2.8,1.1
		c0.4,0.2,0.8,0.5,1.3,0.7c0.1,0.1,0.3,0.2,0.4,0.2c0.7,0.4,1.4,0.9,2,1.5c0.2,0.2,0.5,0.5,0.7,0.8c0,0,0.1,0.1,0.1,0.1c0,0,0,0,0,0
		c0,0,0,0-0.1,0.1c-0.4,0.4-0.8,0.7-1.2,1c-0.5,0.4-1.1,0.6-1.7,0.8c-0.3,0.1-0.7,0.2-1,0.2c0,0-0.1,0-0.1,0c-0.2,0-0.5,0-0.7,0
		c-0.3,0-0.6-0.1-0.8-0.3c-0.5-0.2-0.8-0.5-1.1-0.9c-0.1-0.1-0.2-0.3-0.2-0.5c0,0,0-0.1,0-0.1c0,0,0,0-0.1-0.1s-0.1,0-0.1,0
		c0,0,0,0,0,0.1c0,0.1,0,0.2,0,0.2c0,0.3,0,0.6,0.1,0.9c0.1,0.4,0.3,0.7,0.6,0.9c0.1,0.1,0.2,0.1,0.3,0.2c0.1,0.1,0.3,0.1,0.4,0.2
		c0.5,0.2,1,0.3,1.6,0.3c0.5,0,1,0,1.5-0.1c0.2,0,0.4-0.1,0.6-0.1c0.1,0,0.1,0,0.2,0c0,0,0,0,0.1,0c0.1,0,0.2,0.1,0.3,0.1
		c0.3,0.1,0.6,0.1,0.8,0.2c0.1,0,0.2,0,0.3,0c0,0.1,0,0.1,0,0.2c0,0,0,0,0,0c-0.2,0-0.5,0.1-0.8,0.1c-0.2,0-0.3,0-0.5,0
		c-0.3,0-0.6,0-0.9,0c-0.7,0-1.4,0-2.1,0c-0.3,0-0.7,0-1-0.1c-0.4,0-0.8-0.1-1.1-0.2c-0.5-0.1-1-0.2-1.5-0.3
		c-0.2-0.1-0.5-0.1-0.7-0.2c0,0-0.1,0-0.1,0c0,0,0,0-0.1,0c0,0,0,0.1,0,0.1c0,0,0.1,0.1,0.1,0.1c0.1,0.1,0.1,0.2,0.1,0.3
		c0.1,0.2,0,0.3-0.1,0.5c0,0-0.1,0.1-0.2,0.1c-0.1,0-0.2,0.1-0.3,0.1c-0.3,0.1-0.6,0.1-0.9,0.2c-0.2,0-0.3,0-0.5,0
		c-0.3,0-0.5,0-0.8,0c-0.2,0-0.5,0-0.8,0c-0.1,0-0.2,0-0.4,0c-0.1,0-0.2,0-0.2-0.1C43,35.2,43,35.1,42.9,35
		c-0.2-0.2-0.3-0.4-0.4-0.7c0,0,0,0,0,0c0,0,0-0.1,0-0.1c0,0,0.1,0,0.1,0c0.2,0,0.4,0,0.6,0c0.3,0,0.6,0.1,1,0.2
		c0.3,0.1,0.6,0.1,0.8,0.2c0,0,0,0,0.1,0c0,0-0.1-0.1-0.1-0.1c-0.2-0.1-0.4-0.2-0.7-0.2c-0.6-0.2-1.1-0.2-1.7-0.3
		c-0.1,0-0.2,0-0.2-0.1c-0.1,0-0.2-0.1-0.2-0.2c0-0.1,0-0.2,0.1-0.2c0,0,0,0,0.1,0c0.1,0,0.2,0,0.3,0c0.1,0,0.3,0,0.4,0
		c0,0-0.1,0-0.1,0c-0.2-0.1-0.5-0.1-0.7-0.2c0,0,0,0-0.1,0c-0.1-0.1-0.1-0.2,0-0.3c0,0,0.1-0.1,0.2-0.1c0.2,0,0.4-0.1,0.6,0
		c0.2,0,0.5,0.1,0.7,0.2c0.4,0.2,0.9,0.4,1.3,0.7c0.4,0.2,0.8,0.5,1.1,0.7c0,0,0,0,0.1,0c0,0,0,0-0.1-0.1c-0.2-0.2-0.3-0.4-0.5-0.5
		c-0.6-0.6-1.3-1-2.1-1.3c-0.3-0.1-0.7-0.2-1-0.2c-0.2,0-0.3,0-0.5,0c-0.1,0-0.2,0-0.3,0.1c-0.2,0.1-0.4,0.3-0.4,0.5
		c0,0.1,0,0.2,0,0.2c0,0.3,0,0.5-0.1,0.8c0,0.2,0,0.5,0.2,0.7c0.1,0.2,0.3,0.3,0.5,0.5c0.1,0,0.2,0.1,0.2,0.2c0,0,0.1,0.1,0.1,0.1
		c0.1,0.1,0.2,0.2,0.3,0.3c0.1,0.1,0.2,0.1,0.3,0.2c0,0,0,0,0.1,0c-0.1,0-0.2,0.1-0.3,0.1c-0.2,0-0.4,0-0.5,0.1
		c-0.3,0.1-0.7,0.2-1,0.2c-0.7,0.2-1.4,0.5-2.1,0.8c-0.3,0.1-0.6,0.3-0.9,0.4c0,0,0,0-0.1,0c0,0,0.1-0.1,0.1-0.1
		c0.2-0.2,0.5-0.4,0.7-0.6c0.3-0.3,0.6-0.5,0.9-0.8c0,0,0.1,0,0.1-0.1c0,0-0.1,0-0.1,0c-0.2,0-0.3,0.1-0.5,0.2
		c-0.3,0.1-0.5,0.3-0.8,0.5c-0.3,0.2-0.5,0.4-0.8,0.5c0,0,0,0-0.1,0c0,0,0,0,0-0.1c0-0.1,0.1-0.1,0.1-0.2c0.1-0.2,0.3-0.3,0.4-0.5
		c0.2-0.2,0.5-0.4,0.7-0.6c0,0,0,0,0,0c-0.1,0-0.2,0-0.3,0.1c-0.3,0.1-0.5,0.2-0.8,0.4c-0.3,0.2-0.6,0.5-0.9,0.8
		c0,0-0.1,0.1-0.2,0.1c-0.8,0.2-1.5,0.5-2.1,0.9c-0.8,0.5-1.5,1-2.2,1.8c-0.2,0.2-0.4,0.5-0.5,0.7c0,0,0,0.1,0,0.1
		c0,0,0.1,0,0.1-0.1c0.2-0.2,0.4-0.4,0.7-0.6c0.5-0.3,0.9-0.6,1.5-0.8c0.2-0.1,0.3-0.1,0.5-0.2c0,0,0,0-0.1,0.1
		c-0.2,0.2-0.5,0.3-0.8,0.4c-0.8,0.5-1.6,1.1-2.2,1.8c-0.5,0.5-0.9,1-1.2,1.7c-0.2,0.3-0.4,0.7-0.5,1.1c0,0.1,0,0.2-0.1,0.2
		c0,0.1-0.1,0.3-0.1,0.4c0,0,0,0.1,0,0.1c0,0.2,0.1,0.3,0.3,0.3c0.2,0,0.3,0,0.5-0.1c0.1,0,0.2-0.1,0.3-0.2c0.2-0.1,0.3-0.2,0.5-0.2
		c0.1,0,0.2-0.1,0.3-0.1c0,0,0.1,0,0.1,0c0.2,0,0.3-0.1,0.5-0.1c0.2,0,0.4-0.1,0.6-0.2c0.1,0,0.2-0.1,0.2-0.2c0,0,0-0.1,0.1-0.1
		c0-0.1,0.1-0.2,0.1-0.4c0.1-0.4,0.2-0.8,0.3-1.1c0,0,0,0,0,0c0,0,0.1,0.1,0.1,0.2c0.2,0.2,0.4,0.4,0.6,0.5c0,0,0,0,0,0
		c0.3,0.1,0.6,0.3,0.8,0.5c0,0,0,0,0.1,0c0.1,0,0.2,0,0.2-0.1c0.6-0.2,1.3-0.4,1.9-0.5c0,0,0.1,0,0.1,0l0,0l0,0v0c0,0,0,0,0,0
		c0,0,0,0,0,0c0,0,0,0,0,0l0,0l0,0c0,0-0.1,0-0.1,0c-0.6,0.2-1.3,0.5-1.9,0.7c-0.1,0-0.2,0.1-0.3,0.2c-0.1,0.1-0.2,0.2-0.2,0.3
		c0,0,0,0,0,0.1c0,0,0,0,0.1,0c0.2,0,0.4,0.1,0.7,0.1c0.2,0,0.5,0.1,0.7,0.1c0.2,0,0.5,0.1,0.7,0.1c0.1,0,0.2,0,0.3,0.1c0,0,0,0,0,0
		c-0.8,0-1.7,0-2.5,0c0,0,0,0,0,0h0c0,0,0,0,0,0c0,0,0,0,0,0c0,0.1-0.1,0.2-0.2,0.3c0,0,0.1,0,0.1,0.1c0.2,0.2,0.4,0.3,0.7,0.5
		c0.1,0.1,0.3,0.2,0.4,0.3c0,0,0,0,0,0l0,0l0,0c0,0,0,0,0,0l0,0c0,0,0,0,0,0l0,0l0,0c0,0-0.1,0-0.1-0.1c-0.3-0.2-0.7-0.4-1-0.6
		c0,0-0.1,0-0.1-0.1c-0.1,0.1-0.3,0.3-0.4,0.4c0,0,0,0.1,0.1,0.1c0.2,0.3,0.3,0.7,0.5,1c0,0,0,0.1,0,0.1c0,0,0,0,0,0c0,0,0,0-0.1,0
		c0,0,0-0.1-0.1-0.1c-0.2-0.3-0.3-0.6-0.5-1c0,0,0-0.1,0-0.1c-0.1,0.1-0.4,0.3-0.5,0.4c0,0.2,0.1,0.3,0.1,0.5
		c0.1,0.4,0.3,0.8,0.4,1.2c0.1,0.3,0.3,0.7,0.4,1c0,0,0,0,0,0.1c0,0,0,0-0.1,0c-0.2-0.2-0.3-0.3-0.4-0.5c-0.4-0.6-0.6-1.2-0.7-1.9
		c0,0,0-0.1,0-0.1c-0.1,0-0.2,0-0.3-0.1c-0.2-0.1-0.5-0.2-0.7-0.3c-0.3-0.2-0.6-0.4-0.9-0.6c0,0-0.1-0.1-0.1-0.1
		c-0.1,0-0.1,0.1-0.2,0.1c0,0,0,0,0,0.1c0.1,0.1,0.1,0.1,0.2,0.2c0.5,0.6,0.9,1.2,1.2,1.9c0.3,0.6,0.6,1.2,1,1.7
		c0.7,0.9,1.4,1.7,2.4,2.3c0.3,0.2,0.7,0.4,1,0.5c0,0,0.1,0,0.1,0c0,0,0-0.1,0-0.1c0-0.1,0-0.2,0-0.3c-0.1-0.4-0.1-0.8-0.1-1.2
		c0-0.6,0-1.2,0.2-1.8c0.1-0.6,0.3-1.1,0.6-1.6c0.2-0.5,0.6-0.8,1-1.2c0,0,0,0,0.1-0.1c0.4-0.4,0.8-0.8,1.2-1.1
		c0.8-0.7,1.5-1.4,2.1-2.1c0.1-0.2,0.3-0.3,0.4-0.5c0.1-0.1,0.1-0.2,0.2-0.3c0-0.1,0-0.1,0.1-0.2c0-0.1,0-0.2-0.2-0.3
		c-0.1,0-0.1-0.1-0.2-0.1c-0.2,0-0.3,0-0.5,0c-0.2,0-0.3,0.1-0.5,0.1c-0.3,0-0.5,0.1-0.8,0.1c-0.2,0-0.5,0.1-0.7,0.1
		c-0.2,0-0.5,0.1-0.7,0.1c-0.2,0-0.4,0.1-0.6,0.1c-0.2,0-0.4,0-0.5,0.1c-0.2,0-0.4,0.1-0.6,0.1c-0.2,0-0.4,0.1-0.6,0.1
		c-0.2,0-0.3,0-0.5,0.1c-0.1,0-0.3,0-0.4,0c-0.4,0-0.7,0-1.1,0c-0.1,0-0.3-0.1-0.4-0.1c-0.1,0-0.2-0.1-0.2-0.2
		c-0.1-0.1-0.1-0.2-0.1-0.3c0,0,0-0.1,0-0.1c0-0.2,0-0.3,0.1-0.5c0.1-0.3,0.2-0.5,0.3-0.8c0.3-0.6,0.7-1.2,1.2-1.8
		c0,0,0-0.1,0.1-0.1c0,0,0,0,0.1,0c0.1,0,0.2,0,0.4,0c0,0,0,0,0,0.1c0,0.1,0,0.2,0,0.3c0,0.2-0.1,0.3-0.1,0.5c0,0.1,0,0.2,0,0.3
		c0,0,0,0.1,0,0.1c0,0.1,0.1,0.1,0.1,0.1c0.1,0,0.1,0,0.2-0.1c0.1-0.1,0.2-0.2,0.3-0.2c0,0,0.1-0.1,0.1-0.1c0.4-0.3,0.7-0.6,1.1-1
		c0.4-0.3,0.7-0.6,1.1-0.8c0.2-0.1,0.1-0.1,0.3-0.1c0.4,0,0.8,0,1.2,0c0.3,0,0.6,0,0.9-0.1c0.3,0,0.6-0.1,0.9-0.1
		c0.4-0.1,0.9-0.2,1.3-0.3c0.8-0.2,1.6-0.4,2.4-0.6c0.3-0.1,0.7-0.2,1-0.3c0.6-0.2,1.2-0.3,1.8-0.5c0.3-0.1,0.6-0.1,0.9-0.2
		c0.2,0,0.4-0.1,0.6-0.1c0.2,0,0.3,0,0.5-0.1s0.4,0,0.5,0c0.1,0,0.2,0,0.3,0c0.2,0,0.4,0,0.7,0.1c0.2,0,0.4,0,0.5,0
		c0.4,0,0.8,0,1.2,0c0.2,0,0.4,0,0.7-0.1c0.4,0,0.7-0.1,1.1-0.2c0.7-0.2,1.3-0.3,1.9-0.6c0.1,0,0.2-0.1,0.3-0.2c0,0,0.1,0,0.1-0.1
		c0.1-0.1,0-0.2-0.1-0.3c0,0,0,0-0.1,0c-0.1,0-0.2,0-0.4,0c-0.1,0-0.2,0-0.4,0c-0.1,0-0.3,0-0.4,0c-0.3,0-0.5-0.1-0.7-0.2
		c0,0,0,0,0,0c0,0,0,0,0.1,0c0.4-0.1,0.9-0.2,1.3-0.3c0.3-0.1,0.5-0.1,0.8-0.2c0.2,0,0.5-0.1,0.7-0.1c0.2,0,0.3,0,0.5,0
		c0.2,0,0.5,0,0.7,0c0.4,0,0.9,0,1.3,0c0.5,0,0.9,0,1.4,0c0.3,0,0.7,0,1,0c0.3,0,0.6,0.1,0.9,0.1c0.3,0,0.6,0.1,1,0.2
		c0.3,0.1,0.6,0.2,0.8,0.3c0.2,0.1,0.3,0.2,0.4,0.3c0.2,0.2,0.3,0.4,0.2,0.7c0,0.1,0,0.2-0.1,0.3c-0.1,0.2-0.2,0.5-0.4,0.7
		c-0.1,0.2-0.3,0.3-0.5,0.5s-0.4,0.2-0.6,0.4c-0.2,0.2-0.4,0.3-0.6,0.5c-0.1,0.2-0.3,0.3-0.3,0.5c0,0.1,0,0.2,0,0.3
		c0,0.1,0.1,0.2,0.2,0.3c0.1,0.1,0.2,0.2,0.4,0.2c0.2,0.1,0.4,0.2,0.6,0.2c0.2,0,0.4,0.1,0.7,0.1c0.4,0.1,0.8,0.3,1.2,0.5
		c0.4,0.3,0.6,0.6,0.8,1c0.2,0.3,0.3,0.7,0.4,1.1c0.1,0.4,0.2,0.8,0.2,1.2h0.5C69.6,42.5,69.6,42.4,69.6,42.3L69.6,42.3z"/>
	<path class="st2" d="M47.9,30c0.2-0.2,0.3-0.3,0.5-0.5c0,0,0.1,0,0.1-0.1c0.6-0.4,1.2-0.7,2-0.8c0.1,0,0.3-0.1,0.4-0.1
		c0,0,0,0,0.1,0c0.1-0.1,0.1-0.2,0-0.3c0,0-0.1-0.1-0.1-0.1c-0.1-0.1-0.2-0.1-0.3-0.2c-0.2-0.1-0.4-0.2-0.6-0.3
		c-0.4-0.2-0.9-0.3-1.3-0.4c-0.4-0.1-0.8-0.2-1.2-0.3c-0.3-0.1-0.7-0.1-1-0.2c-0.1,0-0.3,0-0.4,0c-0.2,0-0.4,0-0.6-0.1
		c-0.2,0-0.3,0-0.5,0c-0.3,0-0.6,0-0.8,0c-0.6,0-1.2,0-1.8,0.1c-0.3,0-0.6,0.1-0.9,0.1c-0.4,0.1-0.8,0.1-1.2,0.2
		c-1.1,0.2-2.1,0.6-3.2,1.1c-0.7,0.3-1.3,0.7-2,1.2c-0.5,0.4-0.9,0.7-1.4,1.1c-0.9,0.9-1.7,1.8-2.4,2.9c-0.7,1.1-1.2,2.2-1.5,3.5
		c-0.1,0.5-0.2,1.1-0.3,1.6c0,0.4,0,0.7,0,1.1s0,0.7,0,1.1c0,0.2,0,0.4,0.1,0.6c0,0,0,0,0,0.1c0.1,0,0.1,0,0.2,0c0-0.1,0-0.1,0-0.1
		c0-0.8,0-1.5,0.1-2.2c0.1-0.4,0.1-0.9,0.2-1.3c0.2-0.7,0.4-1.4,0.7-2c0.4-0.8,0.9-1.6,1.5-2.3c0.2-0.2,0.4-0.4,0.6-0.6
		c0.4-0.5,0.8-0.9,1.3-1.2c1.2-0.9,2.5-1.6,3.9-2.1c0.6-0.2,1.3-0.4,2-0.5c0.3-0.1,0.6-0.1,0.9-0.1c0.2,0,0.4,0,0.6-0.1
		c0.2,0,0.5,0,0.7-0.1c0.3,0,0.6,0,0.9,0c0.4,0,0.8,0,1.2,0c0.2,0,0.3,0,0.5,0c0.1,0,0.2,0,0.3,0c0.2,0,0.5,0.1,0.7,0.1
		c0.3,0,0.6,0.1,0.8,0.2c0.2,0,0.3,0.1,0.5,0.1c0,0,0.1,0,0.2,0.1c0.1,0.1,0.2,0.2,0.1,0.3c0,0.1-0.1,0.2-0.1,0.3
		c0,0.1-0.1,0.1-0.1,0.2c-0.3,0.5-0.3,1.1-0.2,1.7c0.1,0.4,0.2,0.7,0.4,1c0.1,0.2,0.2,0.3,0.4,0.5c0,0,0,0.1,0.1,0c0,0,0-0.1,0-0.1
		c-0.1-0.2-0.2-0.5-0.2-0.7c-0.1-0.4-0.1-0.8,0-1.3C47.4,30.8,47.6,30.4,47.9,30L47.9,30z"/>
	<path class="st2" d="M41,33.1c0.1-0.1,0.1-0.2,0.1-0.3c0.1-0.2,0-0.5-0.1-0.7c0,0-0.1-0.1-0.1-0.1c-0.1,0-0.3,0-0.4,0
		c-0.2,0-0.3,0.1-0.4,0.2c0,0.1-0.1,0.2-0.2,0.2c-0.1,0.1-0.2,0.2-0.3,0.3c0,0-0.1,0.1-0.1,0.2c0,0,0,0.1,0,0.1
		c-0.1,0.3-0.1,0.7,0,1c0,0.3,0.1,0.5,0.2,0.8c0,0.2,0.1,0.3,0.2,0.5c0,0,0,0.1,0.1,0.1c0.2,0.1,0.3,0.2,0.5,0.2
		c0.2,0,0.5,0,0.6-0.3c0-0.1,0-0.1,0.1-0.2c0-0.1,0-0.1,0-0.2c-0.1-0.2-0.1-0.5-0.2-0.7c-0.1-0.2-0.1-0.4-0.2-0.6c0,0,0-0.1,0.1-0.1
		C40.7,33.4,40.8,33.3,41,33.1L41,33.1z"/>
	<path class="st2" d="M52.9,29.9c0,0-0.1-0.1-0.1-0.1c-0.3-0.4-0.7-0.7-1.2-0.7c0,0,0,0-0.1,0c0.1,0.1,0.3,0.3,0.4,0.4
		c0.2,0.1,0.3,0.3,0.4,0.4c0,0.2,0,0.4,0,0.6c0,0.2,0.1,0.5,0.2,0.7c0.2,0.4,0.5,0.6,1,0.7c0.2,0,0.5,0,0.7,0c0.1,0,0.1,0,0.2,0
		c0,0,0.1,0,0.1,0c0,0,0-0.1,0-0.1c0,0,0,0-0.1,0c-0.1,0-0.1,0-0.2,0c-0.1,0-0.2,0-0.3,0c-0.2,0-0.3-0.1-0.5-0.1
		C53.2,31.2,53,31,53,30.7c0-0.2-0.1-0.4,0-0.5C52.9,30,52.9,30,52.9,29.9L52.9,29.9z"/>
	<path class="st2" d="M54.7,30.5c0-0.4-0.4-0.8-0.8-0.8c-0.4,0-0.8,0.3-0.8,0.8c0,0.5,0.4,0.8,0.8,0.8
		C54.3,31.3,54.7,30.9,54.7,30.5z M53.4,30.6c-0.1-0.3,0.1-0.6,0.5-0.7c0.3-0.1,0.6,0.1,0.7,0.4c0,0,0,0,0,0
		c-0.1-0.1-0.2-0.2-0.3-0.2c-0.1,0-0.2,0-0.3,0.1c-0.2,0.1-0.3,0.3-0.2,0.5c0,0.1,0.1,0.2,0.2,0.3c0.1,0.1,0.2,0.1,0.3,0.1
		c0,0,0,0-0.1,0C53.7,31.1,53.4,30.9,53.4,30.6L53.4,30.6z"/>
	<path class="st2" d="M45.8,32c-0.3,0-0.7,0.3-0.7,0.7c0,0.4,0.3,0.7,0.7,0.7c0.3,0,0.7-0.2,0.7-0.7C46.5,32.3,46.2,32,45.8,32z"/>
	<path class="st2" d="M53.4,22.6c-0.5-0.1-0.9-0.2-1.4-0.3c-0.3,0-0.5-0.1-0.8-0.1c-0.2,0-0.4,0-0.6-0.1c-0.2,0-0.4,0-0.6-0.1
		c-0.2,0-0.3,0-0.5,0c-0.3,0-0.6,0-0.9,0c-0.3,0-0.7,0-1,0c0,0-0.1,0-0.2,0c-0.2,0-0.3,0-0.5,0c-0.2,0-0.4,0-0.6,0.1
		c-0.2,0-0.5,0-0.7,0.1c-0.3,0-0.6,0.1-0.9,0.1c-0.5,0.1-1.1,0.2-1.6,0.4c-0.4,0.1-0.8,0.2-1.2,0.4c0,0-0.1,0-0.1,0
		c-0.1,0.1-0.3,0.3-0.4,0.4c0,0,0.1,0,0.1,0c0.2,0.1,0.5,0.2,0.7,0.3c0.1,0,0.2,0.1,0.3,0.1c0,0,0,0,0,0c0.3,0,0.6,0,0.9,0
		c0.2,0,0.5,0,0.8,0c0.2,0,0.5,0,0.7,0.1c0.3,0,0.7,0.1,1,0.1c0.4,0.1,0.8,0.1,1.2,0.2c0.9,0.2,1.7,0.4,2.5,0.7
		c1,0.3,1.9,0.7,2.8,1.2c0.5,0.3,1.1,0.6,1.6,0.9c0.1,0,0.1,0.1,0.2,0.1c0.2,0,0.3,0.1,0.5,0.1c0,0,0.1,0,0.1,0
		c0.1,0,0.2,0.1,0.3,0.1c0,0,0.1,0,0.1,0c0.1,0,0.1,0,0.2,0c0.1,0,0.1,0,0.2,0c0,0,0,0,0.1,0.1c0.1,0.1,0.2,0.1,0.2,0.2
		c0.2,0.1,0.3,0.2,0.5,0.2c0.1,0,0.2,0,0.3,0.1c0.1,0,0.1,0,0.2,0c0,0,0.1,0,0.1,0.1c0,0,0.1,0,0.1,0.1c0,0,0.1,0.1,0.1,0.1
		c0,0,0.1,0,0.1,0c0.1,0,0.1-0.1,0.2-0.1c0,0,0.1,0,0.1,0c0.1,0,0.2,0,0.3,0.1c0,0,0,0,0,0c0,0,0.1,0,0.1,0c0,0,0.1,0,0.2,0
		c0.1,0,0.1,0,0.2,0c0.2,0,0.4,0,0.5,0.1c0.1,0,0.1,0,0.2,0c0.1,0,0.2,0,0.4,0c0.1,0,0.2,0,0.3,0s0.2,0,0.3,0c0.1,0,0.2,0.1,0.3,0.2
		c0.1,0.1,0.2,0.1,0.3,0c0,0,0.1-0.1,0.1-0.1c0,0,0-0.1,0-0.1c0,0,0-0.1,0-0.1c0.1,0,0.3,0.1,0.3,0.2c0,0.1,0.1,0.1,0.2,0.1
		c0.1,0,0.2,0,0.2,0c0.1,0,0.1,0,0.2,0c0.1,0,0.1,0,0.2-0.1c0.1,0,0.3,0,0.4,0c0,0,0.1,0,0.1,0c0.1,0,0.2,0.1,0.2,0.1
		c0,0,0.1,0.1,0.2,0.1c0.2,0.1,0.3,0.2,0.5,0.2c0.1,0,0.2,0,0.4,0.1c0,0,0.1,0,0.2,0c0,0,0-0.1-0.1-0.1c-0.2-0.2-0.3-0.4-0.5-0.6
		C62,27.2,60.6,26,59,25C57.3,23.9,55.4,23.1,53.4,22.6L53.4,22.6z"/>
	<path class="st2" d="M28.5,45.2c0,0,0,0.1,0,0.2c0,0,0,0.1,0,0.2c0.1,0.4,0.1,0.7,0.2,1.1c0.3,1.2,0.7,2.3,1.1,3.4
		c1.1,2.6,2.8,4.9,4.9,6.8c0.3,0.3,0.7,0.6,1,0.9c0,0,0,0,0.1,0c0,0,0-0.1,0-0.1c0,0,0,0,0,0c0-0.1,0-0.1-0.1-0.2
		c-0.2-0.3-0.4-0.5-0.6-0.7c-0.1-0.1-0.2-0.2-0.2-0.3c0-0.2-0.1-0.3-0.2-0.4c-0.1-0.1-0.1-0.1-0.2-0.2c0,0-0.1-0.1-0.1-0.1
		c-0.1-0.2-0.3-0.5-0.4-0.7c-0.5-0.9-0.8-1.8-1.1-2.8c-0.1-0.4-0.2-0.7-0.2-1.1c0,0,0-0.1,0-0.1c0,0,0,0,0.1,0
		c0.3,0.4,0.6,0.8,1,1.1c0.7,0.6,1.5,1.2,2.3,1.6c0.1,0,0.2,0.1,0.2,0.1s0.2,0,0.3,0c0.2,0,0.4,0,0.6-0.2c0.1-0.1,0.2-0.2,0.3-0.3
		c0.1-0.2,0.1-0.3,0.1-0.5c0,0,0-0.1,0-0.1c0,0,0,0-0.1,0.1c-0.1,0.1-0.2,0.2-0.4,0.3c-0.3,0.1-0.6,0-0.8-0.1
		c-0.4-0.2-0.8-0.4-1.2-0.7c-0.7-0.5-1.3-1.1-1.9-1.7c-0.3-0.4-0.7-0.9-1-1.3c0-0.1-0.1-0.2-0.1-0.3c-0.2-0.6-0.5-1.2-0.9-1.8
		c-0.2-0.4-0.5-0.7-0.8-1c-0.1-0.1-0.1-0.1-0.2-0.2c0,0-0.1,0-0.1,0c0,0,0,0,0,0c-0.2,0-0.4,0-0.6,0c-0.2-0.1-0.4-0.2-0.5-0.3
		c-0.1-0.2-0.3-0.3-0.3-0.5c0-0.3,0-0.6,0-0.8c0-0.1,0-0.1,0-0.2c-0.2-0.4-0.4-0.7-0.5-1.1c-0.4-0.9-0.7-1.9-0.9-2.9
		c-0.1-0.3-0.1-0.7-0.1-1c0-0.3,0-0.5,0-0.8c0,0,0,0,0-0.1c0,0,0,0.1,0,0.1c-0.1,0.2-0.1,0.5-0.2,0.7c0,0.1,0,0.2,0,0.3
		c0,0.1,0,0.1,0,0.2v0.5c0,0,0,0.1,0,0.2c0,0.1,0,0.2,0,0.3c0,0.5,0.1,0.9,0.2,1.4c0.2,0.7,0.4,1.5,0.7,2.2
		C28.3,44.6,28.4,44.9,28.5,45.2L28.5,45.2z"/>
	<path class="st2" d="M68.4,41.5c0-0.3,0-0.6,0-0.9c0,0,0,0,0-0.1c-0.1,0-0.2,0-0.2,0.1c-0.1,0-0.2,0.1-0.3,0.2
		c-0.1,0.1-0.1,0.1-0.2,0.2c-0.1,0-0.1,0.1-0.1,0.2c0,0,0,0,0,0.1c0,0.1,0,0.1,0,0.2c0,0.1-0.1,0.2-0.1,0.4c0,0,0,0.1-0.1,0.2
		c-0.1,0.1-0.2,0.2-0.2,0.4c0,0,0,0.1-0.1,0.2h1.4C68.4,42.2,68.4,41.8,68.4,41.5L68.4,41.5z"/>
	<path class="st2" d="M55,57C55,57,54.9,57,54.9,57c-0.3,0-0.7,0-1.1,0c-0.2,0-0.3,0-0.5,0.1c0,0,0,0,0,0s0,0-0.1,0
		c0-0.1,0-0.2,0.1-0.3c0-0.1,0-0.2,0-0.3c0,0,0,0,0-0.1c0-0.1,0-0.2-0.1-0.3c0,0,0-0.1,0-0.1c0-0.1,0-0.1-0.1-0.2s-0.1-0.1-0.2-0.2
		c-0.1,0-0.1-0.1-0.2-0.2s-0.1-0.1,0-0.2c0,0,0-0.1,0-0.1c0-0.2,0-0.3,0-0.5c0-0.1,0-0.2,0-0.2c0-0.1,0-0.2,0-0.3c0,0,0-0.1,0-0.1
		c0-0.1-0.1-0.1-0.1-0.2c0,0,0-0.1-0.1-0.1c0,0-0.1-0.1-0.1-0.1c0,0-0.1-0.1-0.1-0.1c0-0.1-0.1-0.2-0.1-0.3c0,0,0-0.1,0-0.1
		c0-0.1,0-0.2,0-0.3c0,0,0,0,0-0.1c0-0.1,0-0.2,0.1-0.3c0-0.1,0.1-0.2,0.1-0.2c0-0.1,0-0.3,0.1-0.4c0,0,0-0.1,0-0.1
		c0.1,0,0.1-0.1,0.2-0.2c0,0,0,0,0,0c0,0,0.1-0.1,0.1-0.1c0,0,0-0.1,0-0.1c0,0-0.1-0.1-0.1-0.1c0-0.2-0.1-0.4-0.2-0.6
		c0,0,0-0.1,0-0.2c0-0.1,0-0.2-0.1-0.3c0,0,0-0.1-0.1-0.1c-0.1-0.1-0.1-0.2-0.2-0.2c-0.1-0.2-0.2-0.3-0.2-0.5
		c-0.1-0.2-0.2-0.4-0.4-0.5c-0.1-0.1-0.1-0.1-0.1-0.2c0-0.1-0.1-0.2,0-0.3c0,0,0,0,0-0.1c0-0.2,0-0.3,0-0.5c0-0.1,0-0.1,0-0.2
		c0,0,0-0.1,0-0.1c0.1-0.2,0.1-0.3,0.1-0.5c0,0,0-0.1,0-0.1c0-0.1-0.1-0.1-0.1-0.2c-0.1,0-0.2,0-0.3-0.1c-0.1,0-0.1,0-0.2,0
		c-0.1,0-0.3,0-0.4,0c-0.1,0-0.2,0-0.3-0.1c0,0-0.1-0.1-0.1-0.1c-0.1-0.1-0.1-0.1-0.2-0.2c0,0-0.1-0.1-0.1-0.1c0,0-0.1,0-0.1,0
		c0,0-0.1,0-0.2,0c-0.1,0-0.2,0-0.3,0c-0.1,0-0.2,0.1-0.4,0.1c-0.1,0-0.2,0.1-0.2,0.1c-0.1,0.1-0.2,0.1-0.3,0.2c0,0,0,0-0.1,0
		c-0.1,0-0.3,0-0.4,0c0,0,0,0,0,0c-0.1,0-0.2-0.1-0.3-0.1c-0.1,0-0.2,0-0.3,0c-0.1,0.1-0.2,0.1-0.3,0.2c0,0-0.1,0-0.1,0
		c-0.1,0-0.2,0-0.3,0c-0.1,0-0.2,0-0.2-0.1c0,0,0,0-0.1,0c-0.1,0-0.2-0.1-0.2-0.2c-0.2-0.2-0.3-0.3-0.5-0.4c0,0-0.1-0.1-0.2-0.1
		c0,0-0.1-0.1-0.1-0.1c0,0,0-0.1,0-0.1s0-0.1,0-0.2c-0.1-0.3-0.1-0.3-0.3-0.5c-0.2-0.1-0.3-0.2-0.4-0.3c0,0-0.1-0.1-0.1-0.2
		c0,0,0-0.1-0.1-0.1c0,0-0.1-0.1-0.1-0.1c0,0-0.1-0.1-0.1-0.2c0-0.1,0-0.2,0-0.3s0-0.2,0-0.3c0,0,0-0.1-0.1-0.1c0,0-0.1-0.1-0.1-0.1
		c0,0,0,0,0,0c0.2-0.1,0.3-0.2,0.3-0.4c0,0,0,0,0,0c0-0.1,0.1-0.2,0.1-0.4c0-0.1,0-0.2,0-0.3c0-0.1,0-0.1,0-0.2c0,0,0,0,0-0.1
		c0-0.1,0-0.2,0-0.4c0-0.1-0.1-0.2-0.1-0.3c0-0.1-0.1-0.2-0.1-0.3c0-0.1,0-0.1,0-0.2c0.1-0.1,0.2-0.2,0.3-0.3c0-0.1,0.1-0.2,0.1-0.2
		c0-0.1,0-0.1,0-0.2c0,0,0,0,0-0.1c0.1-0.2,0.3-0.3,0.4-0.5c0.2-0.2,0.3-0.4,0.5-0.5c0.1-0.1,0.2-0.1,0.3-0.1c0,0,0,0,0,0
		c0-0.1,0.1-0.1,0.2-0.2c0.1-0.1,0.3-0.2,0.4-0.3c0.5-0.2,1-0.4,1.6-0.5c0.3-0.1,0.5-0.1,0.8-0.2c0.2,0,0.4-0.1,0.6-0.1
		c0.2,0,0.4,0,0.6-0.1c0.3,0,0.6,0,0.9-0.1c0.4,0,0.8,0,1.2,0c0.2,0,0.5,0,0.8,0c0.1,0,0.1,0,0.2,0c0,0.1,0.1,0.1,0.1,0.2
		c0.2,0.2,0.5,0.3,0.7,0.5c0,0,0,0,0.1,0c0.2,0,0.3,0,0.5,0c0,0,0,0,0.1,0c0-0.1,0-0.1,0.1-0.2c0.1-0.1,0.1-0.3,0.1-0.5
		c0.1-0.1,0.2-0.1,0.3-0.1c0,0,0.1,0,0.1,0c0.1,0,0.2,0,0.2,0c0.1,0,0.1,0,0.1,0.1c0,0,0,0.1,0.1,0.1c0.1,0,0.2,0.1,0.3,0.2
		c0,0,0.1,0,0.1,0c0.1,0,0.2,0,0.3,0c0,0,0.1,0,0.1,0c0.1,0,0.1,0.1,0.2,0.1c0.1,0.1,0.3,0.1,0.4,0c0,0,0.1,0,0.1,0
		c0.2,0,0.3-0.1,0.5-0.1c0,0,0.1,0,0.2,0c0,0,0.1,0,0.2,0c0.1,0,0.1,0,0.2-0.1c0,0,0.1-0.1,0.1-0.1c0-0.1,0.1-0.2,0.1-0.3
		c0,0,0,0,0-0.1c0-0.2,0-0.4,0-0.6c0,0,0-0.1,0-0.1c0-0.1-0.1-0.2-0.2-0.2c0,0-0.1,0-0.1,0s0,0,0,0c0,0,0,0,0.1,0
		c0.1,0,0.2-0.1,0.2-0.1c0.5-0.4,0.7-0.9,0.7-1.5c0,0,0,0,0,0c0,0.1,0,0.2-0.1,0.2c-0.1,0.1-0.2,0.2-0.3,0.3
		c-0.2,0.2-0.4,0.3-0.7,0.4c-0.5,0.2-0.9,0.3-1.4,0.5c-0.3,0.1-0.6,0.1-1,0.2c-0.2,0-0.5,0.1-0.7,0.1c-0.2,0-0.5,0-0.7,0.1
		c-0.5,0-1,0-1.5,0c-0.2,0-0.5,0-0.7,0c-0.1,0-0.3,0-0.4,0c-0.2,0-0.4,0-0.6,0c-0.3,0-0.5,0-0.8,0.1c-0.3,0-0.6,0.1-0.9,0.1
		c-0.3,0.1-0.7,0.1-1,0.2c-0.6,0.1-1.2,0.3-1.8,0.5c-0.4,0.1-0.8,0.2-1.1,0.3c-0.4,0.1-0.8,0.2-1.2,0.2c-0.3,0.1-0.6,0.1-1,0.2
		c-0.3,0-0.6,0.1-0.9,0.2c-0.2,0-0.5,0.1-0.8,0.1c-0.3,0-0.5,0.1-0.8,0.1c-0.2,0-0.4,0.1-0.7,0.1c-0.2,0-0.3,0.1-0.5,0.1
		c-0.1,0-0.1,0-0.2,0.1c-0.3,0.3-0.7,0.5-1,0.8c-0.5,0.3-0.9,0.7-1.3,1c-0.2,0.1-0.3,0.2-0.6,0.3c-0.3,0.1-0.7,0.1-1-0.2
		c0,0,0,0,0,0c-0.1,0.2-0.2,0.4-0.2,0.6c0,0.1,0,0.1,0,0.2c0,0,0,0.1,0,0.1c0.1,0,0.2,0,0.3,0c0.2,0,0.3,0,0.5,0
		c0.2,0,0.4,0,0.6-0.1c0.2,0,0.3,0,0.5-0.1c0.2,0,0.4,0,0.6-0.1c0.2,0,0.4-0.1,0.6-0.1c0.2,0,0.4,0,0.6-0.1c0.2,0,0.5-0.1,0.7-0.1
		s0.5-0.1,0.7-0.1c0.2,0,0.5-0.1,0.7-0.1c0.2,0,0.5-0.1,0.7-0.1c0.2,0,0.4-0.1,0.6-0.1c0.2,0,0.5,0,0.7,0.1c0.2,0.1,0.5,0.2,0.6,0.4
		c0.1,0.1,0.1,0.2,0.2,0.3c0,0.2,0,0.4,0,0.7c-0.1,0.3-0.2,0.6-0.3,0.8c-0.2,0.4-0.5,0.7-0.8,1C42.2,44,42.1,44,42,44.1
		c-0.1,0.1-0.2,0.2-0.3,0.3c-0.8,0.6-1.5,1.3-2.2,2c-0.4,0.4-0.7,0.8-1,1.3c-0.2,0.3-0.4,0.7-0.6,1c-0.1,0.2-0.2,0.5-0.3,0.7
		c0,0.1,0,0.2,0,0.3c0,0.1,0,0.2,0.1,0.2c0,0,0.1,0.1,0.1,0.1c0,0,0,0,0-0.1c0-0.1,0.1-0.2,0.1-0.4c0.1-0.3,0.2-0.5,0.4-0.7
		c0,0,0-0.1,0.1-0.1c0,0.1,0.1,0.2,0.2,0.2c0,0,0.1,0,0.1,0c0.1,0,0.2,0.1,0.4,0.1c0.1,0,0.2,0.1,0.2,0.2c0,0,0,0,0,0.1
		c0,0.2,0,0.4,0,0.5c0,0.2,0,0.4,0,0.5c0,0.1,0,0.1-0.1,0.2c0,0,0,0,0,0.1s0,0-0.1,0c-0.1,0-0.1,0.1-0.2,0.2c0,0,0,0,0,0.1
		c-0.1,0.1-0.2,0.3-0.2,0.4c0,0.2,0,0.3,0,0.5c0,0,0,0.1,0,0.2c0,0.2,0,0.5,0,0.7c0,0,0,0,0,0c0,0.2-0.1,0.3-0.1,0.5
		c0,0.1,0,0.2,0,0.3c0,0,0,0.1,0,0.1c0,0.1-0.1,0.2-0.1,0.2c0,0-0.1,0.1-0.2,0.1c-0.2,0-0.3,0-0.5,0.1c-0.2,0-0.5,0.2-0.6,0.5
		c0,0,0,0,0.1,0.1c0,0,0,0,0.1,0.1c0,0,0,0.1,0,0.1c0,0,0,0.1,0,0.1c0,0.1,0,0.2-0.1,0.2c0,0.1-0.1,0.2-0.1,0.4c0,0.1,0,0.2-0.1,0.3
		c-0.1,0-0.1,0-0.2,0c-0.1,0.1-0.2,0.1-0.3,0.2c0,0,0,0,0,0c0,0,0,0,0.1,0c0,0,0,0.1-0.1,0.1c0,0,0.1,0.1,0.2,0.1c0,0,0,0.1,0,0.1
		c0,0,0,0,0,0.1c0,0.1,0,0.3,0,0.4c0,0,0,0,0.1,0c0.3,0.2,0.7,0.3,1,0.5c0,0,0.1,0,0.1,0.1c0.1,0.1,0.2,0.2,0.2,0.4
		c0,0.1,0,0.1-0.1,0.2c-0.1,0.1-0.2,0.2-0.3,0.1c0,0-0.1,0-0.2,0c-0.1,0-0.1,0-0.2-0.1c0,0,0,0-0.1,0c-0.1,0.2-0.2,0.3-0.2,0.5
		c0,0,0,0,0,0c0,0,0,0,0.1,0.1c1.6,1.1,3.3,1.9,5.1,2.5c0.8,0.2,1.5,0.4,2.3,0.6c0.5,0.1,1,0.2,1.5,0.2c0.3,0,0.6,0.1,0.9,0.1
		s0.6,0,0.9,0c0.6,0,1.2,0,1.8,0c0.4,0,0.8,0,1.1-0.1c0.3,0,0.6-0.1,0.9-0.1c0.5-0.1,1.1-0.2,1.6-0.3c0.6-0.2,1.2-0.3,1.9-0.6L55,57
		C55,57,55,57,55,57L55,57z"/>
	<path class="st2" d="M66.3,42.5c-0.1-0.2-0.2-0.4-0.2-0.6c0-0.1-0.1-0.2-0.1-0.2c0,0,0-0.1,0-0.1c0-0.2-0.1-0.3-0.1-0.5
		c0,0,0,0,0,0c0,0,0,0.1-0.1,0.1s0,0-0.1,0.1c0,0-0.1,0-0.1,0c-0.1,0-0.1-0.1-0.1-0.2c0-0.1,0-0.2,0-0.3c0-0.1,0-0.1-0.1-0.2
		c-0.1-0.2-0.2-0.4-0.4-0.5c0,0,0,0-0.1,0C64.9,40,64.9,40,64.8,40c-0.1,0-0.2,0-0.3,0c-0.1,0-0.1,0-0.1,0c-0.1,0-0.2-0.1-0.2,0
		c0,0-0.1,0-0.1,0c-0.1,0-0.1,0-0.2,0c0,0-0.1,0-0.1,0c0,0-0.1,0-0.1,0c-0.1,0-0.2,0-0.3,0c-0.1,0-0.1,0-0.1,0.1c0,0.1,0,0.1,0,0.2
		c0,0,0.1,0,0.1,0.1c0.2,0.1,0.3,0.2,0.4,0.4c0,0,0.1,0.1,0.1,0.2c0.1,0.2,0,0.4-0.1,0.5c0,0-0.1,0-0.1,0.1c0,0,0,0-0.1,0
		c0,0.2,0,0.4-0.2,0.5c0,0,0,0,0,0c-0.1,0.1-0.1,0.2-0.2,0.2c-0.1,0.1-0.3,0.3-0.4,0.4L66.3,42.5C66.3,42.5,66.3,42.5,66.3,42.5
		L66.3,42.5z"/>
	<path class="st2" d="M60.5,43.3h-0.2C60.3,43.3,60.4,43.4,60.5,43.3C60.4,43.4,60.5,43.4,60.5,43.3z"/>
	<path class="st2" d="M60.4,42.4c0-0.2-0.1-0.3-0.1-0.4c-0.1-0.2-0.2-0.3-0.3-0.5c0-0.1-0.1-0.1-0.1-0.1c-0.1-0.1-0.1-0.1-0.2-0.2
		c0,0,0,0,0-0.1c0-0.1,0-0.2,0-0.2c0-0.1-0.1-0.3-0.1-0.4c-0.1-0.1-0.1-0.2-0.2-0.3c0-0.1-0.1-0.1-0.2-0.2c0,0,0,0,0-0.1
		c0-0.1-0.1-0.3-0.1-0.4c0,0,0-0.1-0.1-0.1c-0.1,0-0.1-0.1-0.2-0.2c0,0,0-0.1-0.1-0.1c-0.1-0.1-0.1-0.2-0.3-0.2h0
		c0,0.1-0.1,0.1-0.1,0.2c0,0,0,0.1,0,0.1c0,0.1,0,0.2,0,0.2c0,0,0,0.1,0,0.1c0,0.1,0.1,0.1,0.1,0.2c0.1,0.1,0.2,0.3,0.2,0.5
		c0,0.1,0,0.2,0,0.2c0,0,0,0,0.1,0.1c0.1,0.1,0.2,0.1,0.2,0.2c0.1,0.2,0.2,0.4,0.2,0.6c0,0,0,0.1,0,0.2c0,0.1,0.1,0.2,0.1,0.2
		c0,0.1,0.1,0.2,0.2,0.2c0.1,0,0.1,0.1,0.1,0.1c0.1,0.2,0.1,0.3,0.2,0.5h0.8C60.4,42.5,60.4,42.4,60.4,42.4L60.4,42.4z"/>
	<path class="st2" d="M61,34c0.1-0.1,0.2-0.1,0.3-0.1c0-0.1,0-0.1,0-0.2c0,0-0.1-0.1-0.1-0.1c0,0-0.1-0.1-0.1-0.1
		c-0.1,0-0.3,0-0.4,0c0,0-0.1,0-0.2,0c0,0-0.1,0-0.1,0.1c0,0,0,0.1,0,0.2c0,0.1,0,0.2-0.1,0.3c0,0,0,0.1,0,0.1
		c0,0.1,0.1,0.2,0.1,0.2s0.1,0.1,0.1,0.2c0,0,0,0,0,0.1c0,0.1,0.1,0.1,0.2,0.2c0.1,0.1,0.2,0.3,0.3,0.4c0.1,0.1,0.1,0.1,0.1,0.2
		c0,0.1,0,0.2,0,0.4c0,0.1,0,0.2,0,0.2c0,0.1,0,0.1,0.1,0.2s0.1,0,0.2,0.1c0,0,0.1,0,0.1,0c0.1,0.1,0.2,0.1,0.3,0.2
		c0.1,0,0.1,0,0.2,0c0.1,0,0.2-0.1,0.3-0.2c0,0-0.1-0.1-0.1-0.1c0-0.2-0.1-0.3-0.2-0.5c-0.1-0.1-0.1-0.2-0.2-0.3c0,0,0-0.1-0.1-0.1
		c0-0.1-0.1-0.2-0.2-0.4c0-0.1-0.1-0.2-0.1-0.2c0,0,0-0.1,0-0.1c-0.1-0.1-0.2-0.2-0.3-0.2c-0.1,0-0.1-0.1-0.2-0.1
		C60.9,34.2,60.9,34.1,61,34C61,34,61,34,61,34L61,34z"/>
	<path class="st2" d="M48.1,44.3c0.2,0,0.3,0,0.5,0c0.1,0,0.1,0,0.2,0c0,0,0.1,0,0.1,0c0.1,0,0.1,0,0.2,0c0,0,0,0,0.1,0
		c0-0.1,0.1-0.2,0.2-0.3c0,0,0-0.1,0.1-0.1c0,0,0.1,0,0.1,0v-0.1c0,0-0.1,0-0.1,0c-0.1,0-0.1-0.1-0.2-0.1c0-0.1-0.1-0.1-0.2-0.2
		c-0.1-0.1-0.1-0.1-0.2-0.2c0-0.1,0-0.2,0-0.3c0,0-0.1,0-0.1,0c0,0-0.1,0-0.1,0c-0.2,0-0.4,0.1-0.6,0.2c-0.2,0.1-0.3,0.2-0.5,0.3
		c0,0-0.1,0.1-0.2,0.1c-0.1,0.2-0.2,0.3-0.2,0.5c0,0.2,0.1,0.3,0.3,0.3c0.1,0,0.2,0,0.3,0c0,0,0.1,0,0.1,0
		C48.1,44.5,48,44.5,48.1,44.3C48.1,44.4,48.1,44.4,48.1,44.3L48.1,44.3z"/>
	<path class="st2" d="M61.8,38.5c0-0.1-0.1-0.1-0.2-0.1c-0.1-0.1-0.2,0-0.3,0c0,0.1,0,0.1,0,0.2c0,0.1,0.1,0.2,0.1,0.2
		c0,0,0.1,0.1,0.1,0.2c0,0.1,0.1,0.1,0.1,0.2c0.1,0.1,0.1,0.1,0.1,0.2c0,0.1,0.1,0.1,0.1,0.1c0,0,0.1,0,0.1,0.1
		c0.1,0,0.1,0.1,0.1,0.2c0,0,0,0.1,0,0.1c0,0.1,0,0.2,0.1,0.2c0,0.1,0.1,0.1,0.2,0.1c0,0,0,0,0,0c0.1,0,0.2,0,0.3-0.2
		c0.1-0.1,0.1-0.1,0.2-0.2c0.1-0.1,0.1-0.3,0.3-0.4c0,0,0,0,0,0c-0.1,0-0.2,0-0.2,0c-0.1,0-0.1,0-0.2,0.1c0,0-0.1,0-0.1,0
		c0,0,0,0,0,0c-0.1-0.1-0.2-0.1-0.3-0.2c-0.1-0.1-0.2-0.2-0.3-0.4C61.9,38.7,61.8,38.6,61.8,38.5L61.8,38.5z"/>
	<path class="st2" d="M36.3,58.1c0,0,0.1,0,0.1,0.1c0.1-0.1,0.1-0.3,0.2-0.4c-0.1,0-0.1-0.1-0.2-0.1c0,0.1,0,0.1-0.1,0.2
		c0,0-0.1,0.1-0.1,0.1C36.2,58,36.2,58,36.3,58.1C36.2,58,36.2,58.1,36.3,58.1z"/>
	<path class="st2" d="M37.3,43C37.3,43,37.3,43,37.3,43C37.3,43,37.3,43,37.3,43C37.3,43,37.3,43,37.3,43C37.3,43,37.3,43,37.3,43
		L37.3,43z"/>
	<polygon class="st2" points="37.3,43 37.3,43 37.3,43 	"/>
	<path class="st2" d="M35.6,46C35.6,46,35.6,46,35.6,46C35.6,46,35.6,46,35.6,46L35.6,46z"/>
	<polygon class="st2" points="35.6,46 35.6,46 35.6,46 	"/>
</g>
</svg>
