<?xml version="1.0" encoding="UTF-8"?>
<svg xmlns="http://www.w3.org/2000/svg" viewBox="0 0 285 80">
  <defs>
    <style>
      .cls-1 {
        fill: none;
      }

      .cls-2 {
        fill: #f7931e;
      }

      .cls-3 {
        fill: #fff;
      }

      .cls-4 {
        fill: #ff8022;
      }

      .cls-5 {
        fill: #30a1d2;
      }

      .cls-6 {
        fill: #f88d33;
        mix-blend-mode: multiply;
        opacity: .7;
      }

      .cls-7 {
        isolation: isolate;
      }
    </style>
  </defs>
  <g class="cls-7">
    <g id="_レイヤー_2" data-name="レイヤー 2">
      <g id="_レイヤー_4" data-name="レイヤー 4">
        <g>
          <rect class="cls-2" x="0" y="0" width="285" height="80"/>
          <path class="cls-6" d="m284.96,0h-96.55c-4.03,2.45-7.43,4.96-10.78,7.43-8.43,6.22-16.4,12.1-34.11,16.95-17.71,4.85-27.01,3.69-36.84,2.46-10.03-1.25-20.41-2.54-39.41,2.66-19,5.2-27.9,11.76-36.5,18.11-7.88,5.82-15.36,11.33-30.77,15.99v16.4h284.96V0Z"/>
          <path class="cls-4" d="m273.29,60.42s-7.1,3.96-8.93-.26c0,0-.09-.09-.2-.03l-2.18-.35c-.17-.17-.37-.23-.63-.09l-1.61-.26c-.95-7.38-3.85-14.13-8.19-19.74l.98-1.32c.29-.09.37-.29.37-.52l1.32-1.81c.11-.03.11-.14.11-.14-1.69-4.28,6.12-6.49,6.12-6.49,6.41-3.36,2.01-8.1,2.01-8.1,0,0-4.74-4.37-8.1,2.01,0,0-2.24,7.81-6.49,6.12,0,0-.11,0-.14.11l-1.78,1.32c-.23,0-.43.09-.52.37l-1.32.98c-5.6-4.34-12.35-7.24-19.74-8.19l-.26-1.61h-.11c.14-.26.06-.49-.09-.63l-.34-2.18c.06-.11-.03-.2-.03-.2-4.22-1.81-.26-8.93-.26-8.93,2.15-6.89-4.28-7.15-4.28-7.15,0,0-6.44.26-4.28,7.15,0,0,3.96,7.1-.26,8.93,0,0-.09.09-.03.2l-.34,2.21c-.17.17-.23.37-.09.63l-.26,1.61c-7.38.95-14.13,3.85-19.74,8.19l-1.32-.98c-.09-.29-.29-.37-.52-.37l-1.78-1.32c-.03-.11-.14-.11-.14-.11-4.28,1.69-6.49-6.12-6.49-6.12-3.36-6.41-8.1-2.01-8.1-2.01,0,0-4.37,4.74,2.01,8.1,0,0,7.81,2.24,6.12,6.49,0,0,0,.11.11.14l1.32,1.81c0,.23.09.4.37.52l.98,1.32c-4.34,5.6-7.24,12.35-8.19,19.74l-1.61.26c-.26-.14-.46-.06-.63.09l-2.18.35c-.11-.06-.2.03-.2.03-1.81,4.22-8.93.26-8.93.26-6.89-2.15-7.15,4.28-7.15,4.28,0,0,.26,6.43,7.15,4.28,0,0,7.1-3.96,8.93.26,0,0,.09.09.2.03l2.21.35c.17.17.37.23.63.09l1.61.26c.45,3.5,1.35,6.85,2.62,10.01h12.07c-2.18-3.69-3.62-7.88-4.06-12.37h1.78c1.06,0,2.01-.55,2.53-1.41.52.83,1.47,1.41,2.53,1.41h3.45c1.06,0,2.01-.55,2.53-1.41.52.83,1.47,1.41,2.53,1.41h.66c.34,1.75,1.03,3.39,1.98,4.83l-.49.49c-.75.75-1.01,1.81-.78,2.79-.98-.23-2.04.03-2.79.78l-2.44,2.44c-.3.3-.51.67-.65,1.05h7.78c.35-.65.45-1.4.28-2.11.98.23,2.04-.03,2.79-.78l.49-.49c1.44.95,3.07,1.64,4.83,1.98v1.39h5.84l.02-.04v-1.64c1.75-.37,3.36-1.06,4.83-1.98l.49.49c.75.75,1.81,1.01,2.79.78-.19.82-.02,1.69.47,2.39h7.54c-.14-.39-.35-.77-.66-1.08l-2.44-2.44c-.75-.75-1.81-1.01-2.79-.78.23-.98-.03-2.04-.78-2.79l-.49-.49c.95-1.44,1.64-3.07,1.98-4.83h.66c1.06,0,2.01-.57,2.53-1.41.52.86,1.47,1.41,2.53,1.41h3.45c1.06,0,2.01-.57,2.53-1.41.52.86,1.47,1.41,2.53,1.41h1.78c-.45,4.5-1.89,8.7-4.08,12.4h12.3c1.28-3.17,2.18-6.53,2.63-10.04l1.61-.26c.26.14.46.06.63-.09l2.21-.35c.11.06.2-.03.2-.03,1.81-4.22,8.93-.26,8.93-.26,6.89,2.15,7.15-4.28,7.15-4.28,0,0-.26-6.43-7.15-4.28Zm-68.26,1.35h-.66c-1.06,0-2.01.55-2.53,1.41-.52-.83-1.47-1.41-2.53-1.41h-3.45c-1.06,0-2.01.55-2.53,1.41-.52-.83-1.47-1.41-2.53-1.41h-1.81v-.03c.6-6.09,3.02-11.64,6.69-16.12l1.26,1.26c.75.75,1.81,1.01,2.79.78-.23.98.03,2.04.78,2.79l2.44,2.44c.75.75,1.81,1.01,2.79.78-.23.98.03,2.04.78,2.79l.49.49c-.92,1.47-1.61,3.07-1.98,4.83Zm6.15-8.96l-.49-.49c-.75-.75-1.81-1.01-2.79-.78.23-.98-.03-2.04-.78-2.79l-2.44-2.44c-.75-.75-1.81-1.01-2.79-.78.23-.98-.03-2.04-.78-2.79l-1.26-1.26h.03c4.48-3.65,10.03-6.06,16.12-6.66v1.78c0,1.06.55,2.01,1.41,2.53-.83.52-1.41,1.47-1.41,2.53v3.45c0,1.06.55,2.01,1.41,2.53-.83.52-1.41,1.47-1.41,2.53v.66c-1.75.35-3.39,1.03-4.83,1.98Zm7.76,18.39c-3.56,0-6.46-2.9-6.46-6.46s2.9-6.46,6.46-6.46,6.46,2.9,6.46,6.46-2.9,6.46-6.46,6.46Zm11.81-22.46c-.75.75-1.01,1.81-.78,2.79-.98-.23-2.04.03-2.79.78l-.49.49c-1.44-.95-3.07-1.64-4.83-1.98v-.66c0-1.06-.57-2.01-1.41-2.53.86-.52,1.41-1.47,1.41-2.53v-3.45c0-1.06-.57-2.01-1.41-2.53.86-.52,1.41-1.47,1.41-2.53v-1.78c6.09.6,11.64,3.02,16.12,6.67h.03s-1.26,1.26-1.26,1.26c-.75.75-1.01,1.81-.78,2.79-.98-.23-2.04.03-2.79.78l-2.44,2.44Zm18.13,13.01h-1.81c-1.06,0-2.01.57-2.53,1.41-.52-.86-1.47-1.41-2.53-1.41h-3.45c-1.06,0-2.01.57-2.53,1.41-.52-.86-1.47-1.41-2.53-1.41h-.66c-.37-1.75-1.06-3.36-1.98-4.83l.49-.49c.75-.75,1.01-1.81.78-2.79.98.23,2.04-.03,2.79-.78l2.44-2.44c.75-.75,1.01-1.81.78-2.79.98.23,2.04-.03,2.79-.78l1.26-1.26c3.68,4.48,6.09,10.03,6.69,16.12v.03Z"/>
          <g>
            <path class="cls-3" d="m147.55,52.55h1.41v-1.27h-4.85v-.97l4.85-.21v-1.23l-11.19.45v1.24l4.89-.19v.91h-4.89v1.27h1.44v1.28h-1.77v1.24h1.77v1.29h-1.44v1.24h2.65l-2.98,1.83v1.46l5.23-3.26v3.12h1.45v-3.12l5.19,3.26v-1.46l-2.94-1.83h2.6v-1.24h-1.41v-1.29h1.77v-1.24h-1.77v-1.28Zm-4.89,3.81h-2.08v-1.29h2.08v1.29Zm0-2.53h-2.08v-1.28h2.08v1.28Zm3.52,2.53h-2.07v-1.29h2.07v1.29Zm0-2.53h-2.07v-1.28h2.07v1.28Z"/>
            <polygon class="cls-3" points="159.47 48.88 160.98 54.45 162.36 54.45 160.85 48.88 159.47 48.88"/>
            <path class="cls-3" d="m158.7,48.88h-1.38l-1.54,5.56h-.21s0-4.74,0-4.74h-1.65l.23-.82h-1.38l-.23.82h-1.74v5.06l-.49.03v1.35l.46-.03-.28,4.61h1.32l.26-4.7.59-.04v3.79h.98v-3.85l.65-.04v4.84h1.28v-4.93l.37-.03v-1.31h1.22l1.55-5.57Zm-4.42,5.66l-2.2.13v-3.69h2.2v3.56Z"/>
            <path class="cls-3" d="m156.35,60.56h5.35v-5.94h-5.35v5.94Zm1.36-4.59h2.65v3.23h-2.65v-3.23Z"/>
            <polygon class="cls-3" points="153.73 54.27 153.48 51.24 152.5 51.24 152.76 54.27 153.73 54.27"/>
            <path class="cls-3" d="m173.88,51.93v-2.85h-7.21l-3.36,2.05v1.6l1.65-1.02,1.92,2.02-3.74,1.73v1.57l1.72-.81v4.33h9.78v-5.63h-7.06l6.28-3Zm-7.23-.5h-1.23l1.59-.98h5.43v.68l-4.15,1.93-1.64-1.64Zm6.54,4.86v2.89h-6.88v-2.89h6.88Z"/>
            <polygon class="cls-3" points="177.73 50.52 179.1 50.52 179.1 51.75 180.5 51.75 180.5 50.52 181.82 50.52 181.82 49.3 178.1 49.3 178.23 48.88 176.74 48.88 175.88 51.63 177.37 51.63 177.73 50.52"/>
            <polygon class="cls-3" points="179.03 52.72 175.99 51.98 175.99 53.28 179.03 54.02 179.03 52.72"/>
            <path class="cls-3" d="m187.83,53.27v-1.18h-.67l-.17-.59h-.81v-.98h1.62v-1.22h-4.09l.13-.42h-1.47l-.88,2.76h1.36v.45h-3.63v1.18h3.63v.33h-3.3v3.77h5.65v.43h-5.98v1.16h1.27l.36,1.43h1.4l-.37-1.43h3.33v.66h-1.77v1.1h3.17v-1.76h1.23v-1.16h-1.23v-.43h.9v-3.77h-3.3v-.33h3.63Zm-4.95,3.1h-1.96v-.42h1.96v.42Zm0-1.36h-1.96v-.4h1.96v.4Zm3.27,1.36h-1.98v-.42h1.98v.42Zm0-1.76v.4h-1.98v-.4h1.98Zm-3.11-3.13l.3-.95h1.46v1.19h1.06l.11.38h-1.77v-.62h-1.15Z"/>
            <polygon class="cls-3" points="175.86 60.71 177.42 60.71 179.2 56.6 177.71 56.6 175.86 60.71"/>
            <polygon class="cls-3" points="175.99 55.39 179.03 56.13 179.03 54.82 175.99 54.08 175.99 55.39"/>
            <polygon class="cls-3" points="110.75 57.18 110.72 57.18 108.33 48.94 106.98 48.94 104.58 57.18 104.55 57.18 102.61 48.94 100.64 48.94 103.72 60.53 105.27 60.53 107.64 52.17 107.67 52.17 110.02 60.53 111.59 60.53 114.67 48.94 112.7 48.94 110.75 57.18"/>
            <polygon class="cls-3" points="116.64 60.53 124.52 60.53 124.52 58.88 118.51 58.88 118.51 55.47 123.64 55.47 123.64 53.91 118.51 53.91 118.51 50.6 124.52 50.6 124.52 48.94 116.64 48.94 116.64 60.53"/>
            <path class="cls-3" d="m133.21,54.57v-.03c.36-.16.65-.34.9-.53.24-.19.43-.38.56-.59.25-.43.38-.89.36-1.37,0-.93-.31-1.68-.92-2.25-.61-.56-1.52-.85-2.73-.86h-4.78v11.58h5.2c.97,0,1.78-.3,2.43-.91.65-.58.99-1.37,1-2.38,0-.6-.16-1.16-.48-1.68-.35-.5-.85-.83-1.53-.99Zm-4.75-4.07h2.7c.68.01,1.19.17,1.51.47.33.32.49.72.49,1.19s-.16.86-.49,1.17c-.32.34-.82.5-1.51.5h-2.7v-3.33Zm4.41,7.84c-.32.35-.83.52-1.53.53h-2.88v-3.49h2.88c.7.01,1.2.18,1.53.52.32.34.48.75.48,1.23s-.16.87-.48,1.21Z"/>
          </g>
          <g>
            <path class="cls-3" d="m101.78,25.62h7.14v2.17h-4.49v2.67h4.19v2.15h-4.19v4.69h-2.65v-11.67Z"/>
            <path class="cls-3" d="m114.12,25.62v11.67h-2.65v-11.67h2.65Z"/>
            <path class="cls-3" d="m117.07,34.58c.71.36,1.8.73,2.93.73,1.21,0,1.85-.5,1.85-1.26s-.55-1.14-1.96-1.65c-1.94-.67-3.2-1.75-3.2-3.45,0-1.99,1.66-3.52,4.42-3.52,1.32,0,2.29.28,2.98.59l-.59,2.13c-.47-.22-1.3-.55-2.44-.55s-1.7.52-1.7,1.12c0,.75.66,1.07,2.17,1.65,2.06.76,3.03,1.84,3.03,3.48,0,1.96-1.51,3.62-4.71,3.62-1.33,0-2.65-.35-3.31-.71l.54-2.18Z"/>
            <path class="cls-3" d="m129.55,25.62v4.49h4.35v-4.49h2.63v11.67h-2.63v-4.88h-4.35v4.88h-2.65v-11.67h2.65Z"/>
            <path class="cls-3" d="m142.05,25.62v11.67h-2.65v-11.67h2.65Z"/>
            <path class="cls-3" d="m144.91,37.3v-11.67h3.08l2.42,4.28c.69,1.23,1.39,2.68,1.91,4h.05c-.17-1.54-.23-3.12-.23-4.87v-3.41h2.42v11.67h-2.77l-2.49-4.5c-.69-1.25-1.46-2.75-2.03-4.12l-.05.02c.07,1.54.1,3.19.1,5.09v3.52h-2.42Z"/>
            <path class="cls-3" d="m167.18,36.76c-.81.28-2.36.66-3.9.66-2.13,0-3.67-.54-4.75-1.58-1.07-1-1.66-2.53-1.64-4.24.02-3.88,2.84-6.1,6.67-6.1,1.51,0,2.67.29,3.24.57l-.55,2.11c-.64-.28-1.44-.5-2.72-.5-2.2,0-3.86,1.25-3.86,3.78s1.51,3.83,3.67,3.83c.61,0,1.09-.07,1.3-.17v-2.44h-1.8v-2.06h4.35v6.15Z"/>
            <path class="cls-3" d="m174.22,25.76c.73-.12,1.68-.23,2.89-.23,1.49,0,2.58.35,3.27.97.64.55,1.02,1.4,1.02,2.44s-.31,1.89-.9,2.49c-.8.85-2.09,1.28-3.57,1.28-.45,0-.87-.02-1.21-.1v4.68h-1.51v-11.53Zm1.51,5.63c.33.09.74.12,1.25.12,1.82,0,2.93-.88,2.93-2.49s-1.09-2.29-2.75-2.29c-.66,0-1.16.05-1.42.12v4.54Z"/>
            <path class="cls-3" d="m185.89,33.63l-1.21,3.67h-1.56l3.97-11.67h1.82l3.98,11.67h-1.61l-1.25-3.67h-4.14Zm3.83-1.18l-1.14-3.36c-.26-.76-.43-1.46-.61-2.13h-.03c-.17.69-.36,1.4-.59,2.11l-1.14,3.38h3.52Z"/>
            <path class="cls-3" d="m194.96,35.46c.68.42,1.66.76,2.7.76,1.54,0,2.44-.81,2.44-1.99,0-1.09-.62-1.71-2.2-2.32-1.91-.68-3.08-1.66-3.08-3.31,0-1.82,1.51-3.17,3.78-3.17,1.2,0,2.06.28,2.58.57l-.42,1.23c-.38-.21-1.16-.55-2.22-.55-1.59,0-2.2.95-2.2,1.75,0,1.09.71,1.63,2.32,2.25,1.97.76,2.98,1.71,2.98,3.43,0,1.8-1.33,3.36-4.09,3.36-1.13,0-2.36-.33-2.98-.74l.38-1.26Z"/>
            <path class="cls-3" d="m204.07,35.46c.68.42,1.66.76,2.7.76,1.54,0,2.44-.81,2.44-1.99,0-1.09-.62-1.71-2.2-2.32-1.91-.68-3.08-1.66-3.08-3.31,0-1.82,1.51-3.17,3.78-3.17,1.2,0,2.06.28,2.58.57l-.42,1.23c-.38-.21-1.16-.55-2.22-.55-1.59,0-2.2.95-2.2,1.75,0,1.09.71,1.63,2.32,2.25,1.97.76,2.98,1.71,2.98,3.43,0,1.8-1.33,3.36-4.09,3.36-1.13,0-2.36-.33-2.98-.74l.38-1.26Z"/>
            <path class="cls-3" d="m213.39,25.76c.73-.12,1.68-.23,2.89-.23,1.49,0,2.58.35,3.27.97.64.55,1.02,1.4,1.02,2.44s-.31,1.89-.9,2.49c-.8.85-2.09,1.28-3.57,1.28-.45,0-.87-.02-1.21-.1v4.68h-1.51v-11.53Zm1.51,5.63c.33.09.74.12,1.25.12,1.82,0,2.93-.88,2.93-2.49s-1.09-2.29-2.75-2.29c-.66,0-1.16.05-1.42.12v4.54Z"/>
            <path class="cls-3" d="m233.15,31.34c0,4.02-2.44,6.15-5.42,6.15s-5.25-2.39-5.25-5.92c0-3.71,2.3-6.13,5.42-6.13s5.25,2.44,5.25,5.91Zm-9.06.19c0,2.49,1.35,4.73,3.72,4.73s3.74-2.2,3.74-4.85c0-2.32-1.21-4.75-3.72-4.75s-3.74,2.3-3.74,4.87Z"/>
            <path class="cls-3" d="m235.67,25.78c.76-.16,1.85-.24,2.89-.24,1.61,0,2.65.29,3.38.95.59.52.92,1.32.92,2.22,0,1.54-.97,2.56-2.2,2.98v.05c.9.31,1.44,1.14,1.71,2.36.38,1.63.66,2.75.9,3.2h-1.56c-.19-.33-.45-1.33-.78-2.79-.35-1.61-.97-2.22-2.34-2.27h-1.42v5.06h-1.51v-11.52Zm1.51,5.32h1.54c1.61,0,2.63-.88,2.63-2.22,0-1.51-1.09-2.17-2.68-2.18-.73,0-1.25.07-1.49.14v4.26Z"/>
            <path class="cls-3" d="m247.78,26.91h-3.55v-1.28h8.64v1.28h-3.57v10.39h-1.52v-10.39Z"/>
            <path class="cls-3" d="m259.97,28.27c0,1.61-1.26,2.88-2.91,2.88s-2.93-1.26-2.93-2.88,1.3-2.84,2.93-2.84,2.91,1.26,2.91,2.84Zm-5.11,0c0,1.26.94,2.27,2.22,2.27s2.17-1,2.17-2.25-.92-2.29-2.18-2.29-2.2,1.02-2.2,2.27Zm1.75,1.49h-.66v-2.84c.26-.05.62-.09,1.09-.09.54,0,.78.09.99.21.16.12.28.35.28.62,0,.31-.24.55-.59.66v.03c.28.1.43.31.52.69.09.43.14.61.21.71h-.71c-.09-.1-.14-.36-.23-.69-.05-.31-.22-.45-.59-.45h-.31v1.14Zm.02-1.61h.31c.36,0,.66-.12.66-.42,0-.26-.19-.43-.61-.43-.17,0-.29.02-.36.04v.81Z"/>
          </g>
          <g>
            <path class="cls-5" d="m77.1,62.83v-3.49c0-.23-.19-.42-.42-.42h-1.21v4.33h1.21c.23,0,.42-.19.42-.42Z"/>
            <path class="cls-5" d="m73.38,46.35h-17.46v24.31h17.46c.69,0,1.26-.56,1.26-1.26v-21.79c0-.69-.56-1.26-1.26-1.26Z"/>
            <g>
              <path class="cls-3" d="m68.7,63.3h-6.78c-.27,0-.49.22-.49.49s.22.49.49.49h6.78c.27,0,.49-.22.49-.49s-.22-.49-.49-.49Z"/>
              <path class="cls-3" d="m67.14,65.2h-3.66c-.27,0-.49.22-.49.49s.22.49.49.49h3.66c.27,0,.49-.22.49-.49s-.22-.49-.49-.49Z"/>
              <path class="cls-3" d="m65.31,56.14c1.32,0,2.39-1.07,2.39-2.39s-1.07-2.39-2.39-2.39-2.39,1.07-2.39,2.39,1.07,2.39,2.39,2.39Z"/>
              <path class="cls-3" d="m67.55,56.72h-.25c-.57.38-1.26.61-2,.61s-1.43-.22-2-.61h-.25c-1.01,0-1.83,1.09-1.83,2.44v.9h8.14v-.9c0-1.34-.82-2.44-1.83-2.44Z"/>
            </g>
            <path class="cls-5" d="m76.69,48.59h-1.21v4.33h1.21c.23,0,.42-.19.42-.42v-3.49c0-.23-.19-.42-.42-.42Z"/>
            <path class="cls-5" d="m77.1,57.66v-3.49c0-.23-.19-.42-.42-.42h-1.21v4.33h1.21c.23,0,.42-.19.42-.42Z"/>
            <path class="cls-5" d="m77.1,67.99v-3.49c0-.23-.19-.42-.42-.42h-1.21v4.33h1.21c.23,0,.42-.19.42-.42Z"/>
            <path class="cls-1" d="m76.69,58.92h-1.21v4.33h1.21c.23,0,.42-.19.42-.42v-3.49c0-.23-.19-.42-.42-.42Z"/>
            <path class="cls-1" d="m76.69,53.76h-1.21v4.33h1.21c.23,0,.42-.19.42-.42v-3.49c0-.23-.19-.42-.42-.42Z"/>
            <path class="cls-1" d="m76.69,48.59h-1.21v4.33h1.21c.23,0,.42-.19.42-.42v-3.49c0-.23-.19-.42-.42-.42Z"/>
            <path class="cls-1" d="m76.69,64.09h-1.21v4.33h1.21c.23,0,.42-.19.42-.42v-3.49c0-.23-.19-.42-.42-.42Z"/>
            <path class="cls-3" d="m37.29,18.61s.07-.02.12-.04c.02.02.04.05.06.07.13.15.25.29.38.44.54.66,1,1.38,1.4,2.13.75,1.4,1.31,2.87,1.7,4.41,0,.03.02.06.03.1.03-.01.06-.02.08-.03.66-.29,1.34-.5,2.04-.67.4-.1.81-.19,1.22-.26.27-.05.53-.09.8-.13.19-.03.38-.06.57-.08.18-.02.35-.04.53-.06.19-.02.38-.04.58-.06.14-.01.29-.03.43-.04.18-.01.35-.02.53-.03.24-.01.48-.03.72-.03.3,0,.6.01.91.03.29.01.57.04.86.06.21.02.43.03.64.06.3.03.6.07.9.11.34.05.68.1,1.02.15.42.07.84.16,1.25.26.73.18,1.45.4,2.15.7.02.01.05.02.08.03.01-.03.02-.06.03-.09.13-.53.29-1.06.47-1.57.38-1.1.84-2.16,1.42-3.17.45-.8.97-1.55,1.59-2.24.02-.03.05-.05.08-.08.04.01.07.02.11.04.16.06.33.06.5.02.45-.12.72-.59.58-1.04-.14-.46-.62-.7-1.05-.56-.55.17-.76.82-.43,1.29.02.03.04.06.06.09-.03.04-.06.07-.08.11-.1.12-.2.24-.3.36-.34.39-.69.76-1.09,1.1-.23.2-.48.38-.75.53-.2.11-.4.2-.63.25-.17.04-.34.05-.5,0-.2-.05-.37-.15-.5-.31-.13-.17-.22-.36-.28-.56-.11-.33-.15-.68-.17-1.02-.02-.55.04-1.09.12-1.63.09-.54.21-1.07.36-1.6,0-.03.02-.07.04-.11.19.01.37,0,.54-.07.17-.07.31-.18.42-.32.11-.15.18-.31.21-.5.06-.46-.2-.92-.68-1.09-.48-.16-.97.04-1.21.45-.12.21-.16.43-.12.66.05.31.22.55.48.72-.01.03-.03.06-.04.09-.39.74-.82,1.45-1.32,2.13-.28.38-.59.75-.93,1.08-.24.23-.5.44-.79.6-.2.11-.4.19-.62.22-.22.04-.43,0-.61-.12-.04-.03-.08-.05-.12-.08-.13-.1-.25-.22-.35-.35-.23-.28-.41-.59-.58-.92-.27-.55-.48-1.12-.65-1.7-.25-.83-.44-1.67-.6-2.53-.01-.08-.03-.16-.04-.24.06-.01.11-.03.16-.04.58-.16.94-.7.89-1.27-.05-.54-.48-.99-.99-1.07-.02,0-.04-.01-.05-.02h-.29s-.09.02-.14.03c-.72.18-1.11.95-.83,1.62.14.35.4.58.76.69.04.01.08.03.13.04-.02.11-.04.22-.06.33-.12.65-.27,1.29-.44,1.93-.17.63-.37,1.24-.63,1.84-.16.36-.33.71-.55,1.03-.12.18-.26.36-.43.51-.11.1-.22.19-.35.25-.1.05-.19.07-.3.07-.23,0-.45-.06-.67-.16-.26-.12-.5-.29-.71-.47-.31-.27-.59-.57-.85-.89-.64-.79-1.17-1.66-1.65-2.56,0-.02-.01-.04-.02-.06.04-.03.07-.05.1-.07.23-.18.37-.43.39-.72.05-.71-.59-1.22-1.22-1.08-.43.09-.7.36-.79.79-.09.42.05.77.4,1.03.17.13.37.19.59.19.06,0,.11-.02.17,0,.01.04.03.09.04.13.09.35.18.69.25,1.05.09.45.17.9.2,1.36.03.4.04.8-.02,1.2-.03.22-.07.45-.15.66-.07.19-.15.36-.28.52-.11.14-.25.23-.42.28-.19.06-.38.05-.57.01-.27-.06-.51-.18-.74-.32-.28-.17-.54-.38-.79-.6-.4-.36-.76-.75-1.1-1.16-.07-.09-.15-.18-.22-.27.03-.03.05-.06.07-.09.09-.12.14-.26.15-.41.05-.6-.5-1.02-1.03-.88-.33.08-.54.3-.62.63-.07.32.02.6.27.82.24.21.52.25.83.15Z"/>
            <path class="cls-3" d="m52.93,66.56s-.04,0-.06,0c-.04-.09-.21-.64-.23-.76.83-.18,1.66-.43,2.44-.71v-.48c-.11.04-.22.08-.34.12-.7.23-1.4.43-2.12.59-.04,0-.09.01-.13.02-.01-.03-.02-.06-.03-.09-.01-.05-.02-.09-.04-.14-.04-.11-.16-.16-.27-.12-.11.03-.17.15-.13.26.01.05.03.11.05.17-.03.01-.06.02-.08.03-.08.01-.15.03-.23.04-.24.04-.49.08-.73.11-.16.02-.31.04-.47.06-.2.02-.39.04-.59.06-.15.01-.3.02-.45.03-.23.01-.47.03-.7.04-.45,0-.9,0-1.36,0-.27,0-.54-.02-.81-.03-.25-.02-.49-.04-.73-.06-.24-.02-.49-.05-.73-.08-.02,0-.04-.01-.06-.02,0-.02,0-.02,0-.03,0-.04.01-.07.02-.11.01-.11-.06-.22-.17-.24-.11-.02-.22.05-.25.16,0,.02,0,.05,0,.07,0,.03-.02.06-.03.09-1.32-.19-2.6-.54-3.85-.99-1.19-.43-2.33-.96-3.42-1.59,0-.04-.02-.08-.02-.12-.06-.41-.25-.75-.56-1.03-.02-.02-.04-.04-.05-.06.07-.18.38-.8.44-.87.03.01.06.02.09.04.12.06.23.12.35.17.11.05.19.02.24-.08.01-.02.03-.05.04-.08.03-.08,0-.15-.07-.2-.02-.02-.05-.03-.07-.04-.39-.19-.78-.39-1.17-.58-.03-.01-.05-.02-.08-.04-.05-.02-.1-.02-.14.01-.08.05-.11.14-.13.22,0,.01,0,.03.01.05.02.06.06.09.12.12.12.06.24.12.36.18.02.01.04.03.06.04-.05.1-.09.19-.14.29-.04.09-.09.18-.13.27-.05.09-.08.19-.15.28-.24-.1-.49-.16-.76-.16-.26,0-.51.07-.75.18-.09-.07-.17-.13-.25-.19-.63-.48-1.23-1-1.8-1.56-.43-.42-.85-.87-1.24-1.33-.37-.44-.73-.89-1.05-1.37-.67-1.01-1.25-2.07-1.72-3.19-.02-.04-.03-.08-.05-.11-.21-.31-.53-.43-.88-.31-.19.06-.32.18-.4.36-.04.09-.06.18-.07.28,0,.11,0,.21.05.31.08.17.15.35.23.52,1.07,2.37,2.55,4.43,4.45,6.2.55.51,1.13.99,1.73,1.43.04.03.08.05.1.08-.14.79.1,1.42.76,1.88.69.41,1.37.35,2.02-.1,0,0,.02,0,.02,0,.03.02.06.03.08.05,1.17.68,2.4,1.25,3.68,1.71.93.33,1.87.61,2.83.81.35.08.71.14,1.07.21.22.04.44.07.66.1.23.03.46.06.7.08.22.02.43.05.65.06.33.02.66.04.99.06.03,0,.05.01.08.02h1.36s.07-.02.11-.02c.33-.02.66-.03.99-.06.29-.02.59-.06.88-.09.27-.03.54-.06.8-.11.34-.05.68-.12,1.02-.18.66-.13,1.31-.29,1.96-.48.15-.04.3-.09.45-.14v-.51c-.71.23-1.42.44-2.15.59Zm-17.25-2.6c-.5,0-.87-.42-.87-.87,0-.45.37-.87.87-.87.42,0,.87.32.87.87,0,.53-.44.87-.87.87Zm8.82,2.78s-.08,0-.13-.01c-.42-.07-.84-.15-1.25-.25-.79-.19-1.57-.42-2.34-.7-.82-.3-1.63-.64-2.41-1.03-.4-.2-.79-.41-1.17-.63-.03-.02-.05-.03-.09-.06.03-.06.07-.12.1-.18.03-.06.06-.13.09-.2.02-.06.04-.13.06-.2.04-.02.07.02.1.03.36.2.73.39,1.1.57,1.25.61,2.55,1.09,3.9,1.45.56.15,1.13.27,1.7.38.11.02.23.04.35.06.03,0,.07.02.1.02,0,.09-.07.63-.11.74Zm7.67-.04c-.24.04-.48.08-.72.12-.22.03-.44.06-.66.08-.2.02-.39.04-.59.06-.1.01-.21.02-.31.03-.18.01-.35.02-.53.03-.58.03-1.15.03-1.73.02-.28,0-.56-.02-.83-.04-.17,0-.33-.02-.49-.03-.2-.02-.41-.04-.61-.06-.16-.02-.33-.04-.49-.06-.08-.01-.17-.02-.27-.04.04-.24.07-.47.11-.69,0-.01.01-.03.02-.05.22.02.43.05.65.07.22.02.43.04.65.06s.43.03.65.04c.22.01.44.02.65.02.22,0,.44,0,.65,0,.22,0,.44-.01.65-.02.22,0,.44-.02.65-.03.22-.01.43-.04.65-.06.22-.02.43-.05.65-.08.22-.03.43-.06.65-.09.21-.03.43-.07.64-.11.08.26.16.51.23.76-.09.04-.18.05-.27.06Z"/>
            <polygon class="cls-3" points="37.31 45.98 37.3 45.99 37.31 45.99 37.31 45.98"/>
            <polygon class="cls-3" points="35.61 49.04 35.61 49.04 35.61 49.04 35.61 49.04"/>
            <path class="cls-3" d="m69.64,45.32c-.06-.46-.16-.91-.3-1.35-.17-.54-.4-1.04-.73-1.5-.17-.23-.36-.44-.57-.62-.25-.21-.53-.38-.83-.51-.23-.1-.46-.17-.7-.21-.22-.04-.44-.08-.66-.13-.19-.04-.37-.1-.55-.18-.07-.03-.13-.07-.19-.12-.1-.08-.11-.14-.05-.25.03-.05.07-.1.11-.15.12-.14.26-.25.41-.36.23-.16.46-.31.69-.46.12-.08.25-.16.36-.27.31-.3.56-.65.7-1.06.1-.27.13-.54.08-.82-.04-.23-.14-.43-.29-.6-.16-.19-.35-.33-.56-.45-.29-.17-.6-.28-.91-.37-.52-.15-1.06-.23-1.6-.29-.17-.02-.34-.03-.52-.04-.36-.03-.72-.04-1.07-.05-.46-.01-.93,0-1.39,0-.43.01-.86.03-1.29.05-.23.01-.46.03-.69.04-.17.01-.34.02-.5.05-.49.09-.97.18-1.46.28-.33.07-.67.14-1,.21-.02,0-.04.02-.07,0,.1-.08.2-.16.3-.25.09-.08.19-.16.28-.25.1-.09.19-.17.29-.26.09-.08.18-.17.27-.26.09-.09.19-.18.28-.27.09-.09.18-.17.27-.26.09-.09.19-.17.27-.28-.03-.1-.09-.18-.15-.25-.11-.15-.24-.29-.38-.43-.36-.36-.74-.69-1.13-1.02-.13-.11-.27-.21-.42-.3-1.12-.65-2.23-1.31-3.35-1.96-1.26-.73-2.58-1.31-3.96-1.75-.64-.2-1.28-.37-1.94-.5-.3-.06-.59-.11-.89-.15-.19-.03-.39-.06-.59-.08-.2-.02-.41-.05-.61-.06-.19-.02-.39-.02-.58-.03-.43-.03-.86-.03-1.29,0-.13,0-.27.02-.4.03-.1,0-.2.02-.3.03-.05,0-.09,0-.14-.03-.43-.23-.87-.41-1.33-.58-1.03-.37-2.08-.66-3.15-.88-.45-.09-.9-.16-1.37-.17-.23,0-.45,0-.68.04-.18.03-.36.08-.52.17-.24.14-.37.35-.37.62,0,.15-.06.27-.16.37-.11.11-.23.19-.37.25-.05.02-.1.05-.15.08-.09.07-.11.16-.07.26.01.03.03.06.04.09.05.07.11.13.18.18.09.06.18.13.26.19.03.03.06.07.08.1.02.04,0,.08-.04.1-.02.01-.05.02-.07.03-.1.04-.2.07-.29.12-.09.04-.17.09-.25.14-.04.03-.07.06-.1.1-.03.05-.03.09.02.13.04.03.1.06.15.08.09.02.16.07.22.14.1.11.1.22,0,.33-.04.04-.08.07-.12.1-.24.16-.47.33-.68.53-.24.23-.46.48-.63.76-.03.05-.07.1-.1.15-.06.09-.13.19-.18.29-.02.04-.03.09-.04.14,0,.05.03.09.07.1.08.01.15.01.22-.06.45-.44.93-.83,1.44-1.19.72-.51,1.49-.96,2.28-1.36.51-.26,1.03-.5,1.56-.71.03-.01.07-.01.09-.06-.09-.01-.17-.03-.26-.01-.42.09-.84.17-1.26.24-.33.06-.65.1-.98.13-.07,0-.15,0-.22,0-.02,0-.04,0-.05-.02,0-.04.03-.07.06-.08.06-.03.13-.06.2-.09.24-.08.48-.13.73-.17.23-.04.46-.07.69-.1.23-.03.46-.06.7-.09.19-.02.38-.04.57-.06.07,0,.15-.02.24-.03-.04-.02-.05-.03-.07-.03-.24-.05-.49-.09-.74-.12-.27-.03-.54-.04-.81-.03-.3,0-.6.02-.91.03-.08,0-.16,0-.24,0-.03,0-.07-.02-.1-.03-.03-.02-.04-.05-.03-.08.02-.04.05-.08.08-.1.06-.06.13-.1.2-.15.04-.03.08-.04.12-.05.28-.05.56-.07.84-.09.39-.02.77,0,1.16.06.38.05.75.15,1.11.27.27.1.54.22.79.37.02.01.04.03.07.06-.04.01-.08.03-.11.04-.34.11-.68.22-1.02.34-1.08.38-2.13.83-3.14,1.38-.89.49-1.74,1.04-2.52,1.71-.3.26-.59.53-.86.84-.06.07-.12.15-.19.22-.49.52-.95,1.07-1.38,1.65-.59.81-1.1,1.66-1.5,2.58-.59,1.36-.93,2.77-.96,4.25,0,.47,0,.94.06,1.4.04.39.1.77.19,1.16.17.76.41,1.49.74,2.19.07.15.15.3.23.45.02.04.05.07.07.1.01.01.04,0,.05-.01,0-.01.01-.03.01-.05,0-.13.01-.27-.04-.39-.02-.04-.03-.08-.04-.11-.34-.98-.59-1.99-.65-3.03-.01-.22-.01-.44,0-.67,0-.13.01-.26.02-.39,0-.15.01-.3.03-.45.04-.42.12-.84.22-1.25.18-.7.41-1.38.69-2.05.46-1.09,1.03-2.1,1.76-3.04.78-1,1.69-1.88,2.7-2.64,1.17-.88,2.45-1.58,3.8-2.15,1.02-.43,2.07-.77,3.14-1.03.56-.14,1.13-.25,1.71-.34.13-.02.26-.04.4-.03.23,0,.47.01.7.02.18,0,.36.01.54.03.34.03.68.06,1.02.11.37.05.74.11,1.11.18.81.16,1.62.37,2.41.63.95.31,1.88.68,2.77,1.14.43.22.84.46,1.26.69.14.08.29.16.43.25.7.42,1.37.9,1.97,1.46.25.24.48.49.69.76.03.04.06.08.08.13,0,.01,0,.02-.01.03-.02.02-.04.04-.06.06-.37.36-.77.69-1.2.98-.54.36-1.12.64-1.74.82-.32.09-.65.16-.99.16-.03,0-.06,0-.08,0-.23.03-.47.02-.7-.02-.29-.04-.57-.13-.84-.26-.45-.22-.84-.52-1.14-.92-.11-.14-.2-.29-.22-.48,0-.05-.03-.1-.05-.15-.01-.03-.04-.05-.07-.06-.03-.01-.06,0-.1.02,0,.02-.02.05-.02.08-.01.08-.03.17-.04.25-.03.3-.02.6.06.89.11.37.31.67.63.89.11.07.22.14.33.2.13.07.26.13.39.19.51.21,1.05.29,1.59.31.52.02,1.04-.02,1.55-.12.21-.04.42-.09.62-.14.06-.01.11-.01.16.02.02.01.05.03.07.04.1.05.2.09.32.12.28.06.56.11.84.15.1.01.21.03.31.05.03.07.03.13.02.2-.01,0-.02.02-.03.02-.25.05-.51.08-.77.1-.16.01-.32.02-.48.03-.31.01-.61.03-.92.04-.7,0-1.4,0-2.09-.01-.34-.01-.68-.04-1.01-.08-.38-.05-.76-.12-1.14-.18-.5-.08-.99-.18-1.48-.29-.24-.06-.49-.11-.72-.21-.03-.01-.06-.02-.09-.03-.02,0-.05,0-.07,0-.02.05,0,.08.03.11.03.04.07.08.1.12.06.08.11.17.14.26.06.18.02.34-.12.46-.05.05-.11.09-.18.12-.09.05-.19.09-.29.12-.29.08-.58.12-.88.15-.15.01-.31.02-.46.03-.27.01-.53.03-.8.04-.25,0-.5,0-.75,0-.12,0-.24-.02-.36-.02-.1,0-.18-.04-.24-.11-.08-.08-.15-.17-.22-.26-.16-.21-.3-.43-.43-.66-.01-.02-.02-.04-.03-.05-.01-.03,0-.06.02-.07.04-.03.09-.03.14-.04.2-.02.4,0,.6.03.32.04.64.11.95.18.28.06.56.13.85.2.02,0,.04.02.07,0-.04-.04-.09-.06-.14-.08-.21-.1-.43-.18-.66-.24-.56-.16-1.13-.25-1.7-.34-.08-.01-.17-.02-.25-.06-.09-.04-.16-.1-.2-.2-.03-.1,0-.15.09-.19.02,0,.04,0,.06-.02.11-.03.22-.03.34-.02.13,0,.26,0,.4.01-.03-.01-.06-.03-.08-.03-.24-.07-.48-.13-.72-.2-.02,0-.05-.02-.06-.03-.08-.08-.06-.21.03-.28.05-.04.11-.06.18-.08.21-.05.42-.06.64-.01.23.05.46.12.68.22.44.18.86.41,1.28.66.38.22.75.46,1.11.71.02.01.04.04.08.03-.03-.03-.04-.05-.06-.07-.16-.18-.33-.36-.5-.52-.63-.57-1.34-1-2.14-1.28-.32-.11-.65-.18-.99-.23-.16-.02-.33-.03-.49-.02-.1,0-.19.03-.28.06-.23.09-.36.29-.36.54,0,.07,0,.15,0,.22,0,.26-.03.52-.06.78-.03.25.03.47.17.68.12.18.28.33.47.45.08.05.16.11.23.18.03.03.06.07.08.11.06.13.15.24.26.33.09.07.19.13.3.19.03.01.05.03.09.05-.1.04-.19.06-.29.06-.19,0-.37.03-.55.06-.33.06-.65.15-.97.25-.73.23-1.44.5-2.14.8-.3.13-.6.27-.91.4-.02,0-.04.01-.09.02.04-.04.06-.06.09-.09.22-.2.45-.39.67-.59.29-.26.58-.51.87-.77.02-.02.06-.04.06-.09-.04,0-.08.01-.12.02-.16.04-.31.12-.45.19-.26.14-.51.3-.75.46-.26.18-.51.37-.77.55-.03.02-.05.05-.09.05-.02-.03,0-.05,0-.07.04-.07.08-.14.13-.2.13-.17.27-.32.43-.46.23-.22.47-.43.72-.63.01-.01.04-.02.02-.05-.1,0-.2.04-.3.07-.28.1-.53.24-.77.41-.34.23-.64.5-.93.79-.05.05-.1.08-.16.1-.75.2-1.47.49-2.14.87-.82.46-1.55,1.04-2.15,1.77-.19.23-.37.48-.52.74-.02.03-.05.06-.05.12.03-.03.06-.05.08-.07.22-.2.45-.39.68-.56.45-.33.94-.6,1.46-.79.17-.06.35-.12.53-.15-.03.02-.05.04-.08.06-.25.15-.51.28-.75.44-.82.5-1.57,1.09-2.24,1.78-.48.5-.9,1.05-1.24,1.67-.19.35-.36.72-.46,1.11-.02.08-.05.16-.08.24-.04.13-.08.26-.09.4,0,.04,0,.08,0,.12,0,.16.12.29.32.29.17,0,.33-.03.48-.11.1-.05.21-.11.31-.16.17-.08.33-.17.5-.25.1-.05.2-.07.3-.07.04,0,.08-.01.12-.03.16-.04.33-.09.49-.13.21-.05.42-.12.62-.21.09-.04.15-.09.19-.17.02-.05.05-.09.07-.14.05-.13.1-.25.14-.39.12-.37.21-.75.29-1.13,0-.02,0-.04.03-.04.04.05.08.11.13.16.17.2.37.36.58.51.02.01.03.02.05.03.3.13.57.3.83.49.02.02.05.03.07.04.08-.02.15-.04.22-.06.64-.18,1.29-.36,1.93-.55.04-.01.07-.02.11-.02,0,0,0,0,0,0,0,0,0,0,0,0,0,0,0-.01,0-.01,0,0,.01,0,.02,0,0,0,0,0-.01.01,0,0-.01,0-.02,0,0,0,0,0,0,0,0,0,0,0,0,0-.03.02-.06.03-.09.05-.64.24-1.27.49-1.91.72-.1.03-.19.09-.27.16-.1.1-.18.21-.24.33-.01.02-.02.04-.03.07.03,0,.04.02.06.02.22.03.44.07.66.1.23.04.46.07.69.11.24.04.48.07.72.11.11.02.22.03.33.06-.02,0-.02,0-.02,0-.85,0-1.7,0-2.55,0-.01,0-.02,0-.04,0,0,0-.02,0-.02,0,0,0,0,0-.01,0,0,0,0,0-.02,0-.05.1-.11.2-.15.31.03.03.06.05.1.08.22.18.44.35.66.53.14.11.27.22.41.33.02.01.04.03.03.05,0,0,0,0,0,0,0,0,0,0,0,0,0,0,.01,0,.02,0h0s-.01,0-.02,0c0,0,0,0,0,0,0,0,0,0,0,0-.04-.02-.08-.04-.12-.06-.35-.19-.69-.38-1.04-.57-.04-.02-.08-.04-.11-.06-.08.06-.34.33-.41.43.02.04.04.09.06.13.15.35.31.7.46,1.05.02.04.04.07.03.12-.01.01-.03.03-.04.05-.01.02-.02.04-.06.04-.02-.04-.04-.07-.06-.11-.17-.32-.34-.64-.5-.96-.01-.03-.02-.06-.05-.07-.12.09-.4.34-.45.41.01.16.06.32.1.47.12.4.26.79.41,1.17.14.34.28.68.42,1.02,0,.02.03.04,0,.08-.02-.02-.04-.04-.06-.05-.16-.16-.31-.34-.43-.53-.38-.58-.61-1.21-.73-1.89,0-.03-.01-.07-.02-.1-.11-.03-.21-.04-.31-.07-.24-.07-.46-.19-.68-.31-.31-.18-.61-.39-.89-.62-.05-.04-.09-.08-.14-.11-.07.04-.12.08-.18.13.02.02.04.04.05.06.06.06.13.12.19.19.52.57.93,1.21,1.24,1.91.27.6.58,1.17.96,1.71.65.91,1.43,1.68,2.38,2.28.34.21.68.39,1.05.54.04.02.08.04.13.04,0-.03,0-.06,0-.09-.02-.1-.04-.21-.05-.31-.06-.39-.1-.78-.11-1.18-.02-.61.02-1.21.15-1.8.12-.56.31-1.09.59-1.59.25-.45.56-.85.96-1.17.02-.02.04-.04.06-.06.41-.38.81-.76,1.23-1.13.75-.67,1.46-1.38,2.12-2.14.13-.15.26-.31.38-.47.07-.1.14-.21.18-.33.03-.07.05-.14.06-.21.02-.13-.04-.25-.16-.31-.07-.04-.14-.06-.22-.07-.18-.03-.35-.01-.53.02-.16.03-.33.06-.49.08-.26.04-.52.09-.77.13-.23.04-.46.08-.69.11-.23.04-.47.07-.7.11-.19.03-.37.06-.56.08-.18.03-.37.05-.55.08-.2.03-.4.06-.6.09-.2.03-.4.06-.6.09-.16.02-.32.04-.48.06-.14.01-.29.02-.43.04-.36.03-.72.02-1.07-.04-.14-.02-.27-.06-.39-.12-.08-.04-.15-.08-.21-.15-.08-.09-.12-.2-.1-.32,0-.03.01-.06,0-.08-.02-.17.01-.33.06-.49.07-.26.18-.51.31-.75.33-.64.74-1.22,1.18-1.78.02-.03.05-.06.08-.09.02-.02.04-.03.06-.04.13-.04.25-.05.38.01,0,.02,0,.04,0,.06-.01.11-.02.23-.04.34-.03.17-.06.34-.07.51,0,.11,0,.22.01.33,0,.04.02.08.04.11.03.06.08.07.14.07.06,0,.11-.04.15-.07.1-.07.18-.16.26-.25.03-.04.07-.08.11-.11.37-.32.74-.64,1.11-.95.36-.3.73-.58,1.12-.84.16-.11.09-.09.29-.08.41,0,.82,0,1.23-.03.29-.02.59-.05.88-.09.31-.04.62-.08.93-.13.44-.07.87-.16,1.3-.26.8-.18,1.59-.38,2.37-.63.34-.1.67-.22,1.01-.32.6-.18,1.2-.33,1.82-.45.29-.06.59-.11.88-.15.2-.03.41-.06.61-.09.18-.02.35-.04.53-.06.18-.02.36-.03.54-.04.11,0,.23-.01.34,0,.22.02.44.05.66.07.18.02.37.03.55.04.39,0,.78.02,1.17-.02.22-.02.43-.03.65-.06.36-.05.72-.11,1.07-.19.66-.15,1.3-.35,1.91-.63.11-.05.22-.11.33-.16.03-.02.06-.04.07-.08.06-.13.02-.23-.11-.29-.02,0-.04-.02-.06-.02-.12-.03-.24-.04-.37-.02-.12.02-.25.03-.37.03-.14,0-.27,0-.41-.02-.26-.04-.51-.12-.74-.25-.02,0-.03-.02-.05-.04.03-.01.05-.02.08-.03.44-.1.89-.2,1.33-.29.26-.06.53-.11.79-.16.25-.05.49-.1.74-.13.16-.02.33-.03.49-.04.24-.02.47-.03.71-.04.44-.02.88-.04,1.32-.05.46-.01.91-.01,1.37,0,.34.01.68.03,1.03.05.29.02.58.06.86.1.32.05.64.11.96.19.29.08.57.18.83.32.16.09.3.19.42.32.17.18.26.4.24.65,0,.11-.03.21-.06.31-.08.24-.21.45-.36.65-.14.18-.3.33-.5.45-.2.12-.39.25-.59.38-.21.15-.42.3-.6.49-.14.15-.26.32-.3.54-.02.1,0,.19.02.27.04.12.12.23.22.31.12.1.25.17.39.23.2.09.41.15.62.19.22.05.45.09.68.13.44.09.83.27,1.18.55.36.28.63.64.84,1.03.19.35.33.72.44,1.11.12.4.19.81.25,1.22h.48c0-.06-.01-.13-.02-.19Z"/>
            <path class="cls-3" d="m47.9,33.06c.15-.16.32-.3.49-.45.03-.03.06-.05.09-.08.58-.44,1.25-.66,1.96-.76.14-.02.27-.07.39-.15.02-.01.04-.03.06-.04.09-.09.1-.19.03-.29-.03-.04-.06-.08-.1-.1-.09-.06-.18-.13-.27-.18-.2-.11-.42-.19-.63-.27-.43-.16-.87-.28-1.31-.41-.41-.12-.83-.22-1.24-.3-.32-.06-.65-.12-.98-.17-.14-.02-.27-.04-.41-.05-.19-.02-.38-.04-.58-.06-.15-.01-.3-.02-.45-.03-.28-.01-.56-.03-.85-.04-.62-.01-1.23,0-1.85.07-.31.03-.63.06-.94.11-.42.06-.83.14-1.25.23-1.09.25-2.14.62-3.15,1.11-.68.33-1.34.71-1.95,1.16-.48.35-.93.74-1.36,1.15-.91.87-1.72,1.84-2.39,2.91-.68,1.08-1.2,2.23-1.53,3.47-.14.54-.24,1.08-.3,1.63-.04.37-.05.74-.05,1.11,0,.37.02.73.05,1.1.02.2.04.41.06.61,0,.03.01.05.02.08.06.02.11.03.18.05,0-.06,0-.1,0-.14-.03-.75,0-1.5.1-2.25.06-.44.14-.88.24-1.32.16-.69.38-1.37.68-2.01.38-.84.88-1.6,1.53-2.26.2-.2.39-.41.58-.62.4-.46.85-.86,1.32-1.24,1.17-.93,2.46-1.63,3.86-2.14.64-.23,1.29-.41,1.95-.55.3-.06.59-.11.89-.15.2-.03.4-.05.6-.08.22-.02.45-.05.67-.06.31-.02.61-.03.92-.03.38,0,.77,0,1.15.02.16.01.33.02.49.03.1,0,.21.02.31.03.23.03.46.06.7.09.29.04.57.09.85.16.15.04.29.09.45.11.05,0,.11.03.16.06.11.06.15.16.13.29-.02.11-.07.21-.13.31-.04.07-.09.14-.13.22-.28.55-.35,1.13-.25,1.73.06.37.19.72.37,1.04.1.19.25.34.39.49.02.02.05.06.09.04.05-.03,0-.07,0-.11-.09-.22-.15-.45-.2-.68-.08-.42-.11-.84-.04-1.26.08-.42.25-.8.55-1.11Z"/>
            <path class="cls-3" d="m40.96,36.13c.06-.09.11-.18.14-.28.08-.25.03-.48-.12-.69-.03-.04-.06-.06-.11-.07-.13-.04-.27-.05-.41-.04-.18.02-.33.08-.43.23-.05.08-.11.15-.18.21-.1.1-.19.21-.29.31-.05.05-.08.1-.1.16-.02.05-.03.09-.05.14-.1.34-.1.68-.03,1.03.05.26.12.51.19.76.04.16.11.31.16.47.01.04.04.08.08.1.15.09.3.17.47.2.25.04.47-.01.61-.29.03-.06.05-.13.08-.2.02-.06.02-.12,0-.19-.07-.24-.14-.49-.22-.73-.06-.2-.12-.4-.18-.6.02-.03.04-.06.06-.08.11-.15.21-.29.32-.44Z"/>
            <path class="cls-3" d="m52.86,32.89s-.07-.1-.1-.15c-.31-.4-.71-.67-1.22-.74-.02,0-.04-.01-.06.02.14.14.29.27.43.4.15.13.29.27.44.4-.02.2-.01.39.01.58.03.23.09.45.19.66.21.4.55.61,1,.67.24.03.48,0,.72-.03.06,0,.12-.03.18-.04.03,0,.06-.03.08-.05.02-.02.01-.06-.02-.07-.02,0-.04-.02-.07-.02-.06,0-.11,0-.17-.01-.1,0-.19,0-.29-.01-.18-.02-.35-.06-.51-.14-.27-.14-.44-.35-.52-.64-.05-.18-.06-.37-.04-.55.01-.11-.01-.19-.07-.27Z"/>
            <path class="cls-3" d="m54.7,33.5c0-.44-.38-.76-.76-.76-.39,0-.77.32-.77.77,0,.46.38.77.76.76.39.01.77-.32.77-.77Zm-1.35.12c-.06-.31.12-.63.46-.7.33-.07.59.13.68.37,0,0,0,.01,0,.03-.09-.13-.2-.21-.35-.24-.11-.02-.21,0-.3.06-.16.09-.29.27-.24.53.02.12.09.21.19.29.1.07.21.1.33.1-.02,0-.04.02-.06.03-.37.06-.64-.19-.7-.47Z"/>
            <path class="cls-3" d="m45.84,35.06c-.33,0-.67.28-.66.68,0,.39.33.67.67.66.3.01.67-.23.67-.67,0-.43-.36-.68-.68-.67Z"/>
            <path class="cls-3" d="m53.37,25.6c-.45-.12-.91-.22-1.37-.3-.27-.05-.54-.09-.81-.13-.2-.03-.41-.05-.61-.08-.21-.02-.42-.05-.63-.06-.18-.01-.35-.02-.53-.03-.31-.01-.62-.03-.93-.03-.34,0-.69,0-1.03.01-.05,0-.1,0-.16,0-.18.01-.35.02-.53.04-.21.02-.43.03-.64.06-.22.02-.45.05-.67.09-.31.05-.63.1-.94.15-.54.1-1.08.23-1.61.38-.4.11-.8.24-1.2.38-.03.01-.07.02-.09.04-.13.14-.26.28-.38.43.04.02.06.03.09.05.24.11.49.21.73.32.11.05.22.09.35.06.01,0,.02,0,.04,0,.3,0,.6,0,.9,0,.25,0,.5.02.75.04.24.02.47.03.71.06.34.04.67.09,1.01.14.42.06.83.14,1.25.23.87.19,1.72.43,2.55.72.96.33,1.88.73,2.78,1.2.55.29,1.09.6,1.61.93.06.04.12.07.19.08.15.04.3.09.45.13.04.01.09.03.12.05.08.05.17.08.26.09.04,0,.08.02.12.02.06.01.12.02.18,0,.07-.03.13-.01.18.03.02.02.04.04.06.06.08.06.15.13.24.19.16.11.32.18.52.18.1,0,.21.01.31.06.06.03.12.03.18.05.05.02.1.04.14.06.04.02.07.05.1.08.04.04.09.06.14.08.04.01.08.02.11,0,.06-.04.13-.08.19-.13.03-.02.06-.04.1-.05.13-.03.24,0,.31.12,0,0,0,.01.01.02.03.03.06.05.1.05.05,0,.1,0,.15,0,.06,0,.11,0,.17,0,.18.03.36.05.53.1.06.02.12.03.19.03.12,0,.24.01.36.04.1.02.2.02.3-.01.1-.03.18-.02.27.02.11.05.22.1.32.17.12.08.21.07.31-.04.04-.04.07-.1.11-.15.02-.03.03-.07.02-.1,0-.03-.01-.06-.02-.11.14.03.26.06.34.18.05.07.11.1.19.1.08,0,.15.01.22.05.06.03.11.02.16,0,.07-.03.14-.05.21-.07.14-.04.28-.02.42-.02.03,0,.06.01.08.02.08.04.15.08.2.15.05.05.09.1.15.15.15.14.34.18.54.16.13-.01.25-.02.36.06.04.03.09.04.16.02-.03-.04-.05-.07-.07-.09-.16-.19-.32-.37-.49-.56-1.24-1.36-2.63-2.53-4.18-3.51-1.76-1.11-3.64-1.92-5.65-2.44Z"/>
            <path class="cls-3" d="m28.54,48.25s.03.09.02.15c-.01.05,0,.1,0,.16.07.37.14.74.23,1.11.28,1.18.66,2.33,1.15,3.43,1.15,2.61,2.77,4.87,4.88,6.79.34.31.68.6,1.04.89.02.02.04.05.09.04.01-.04.03-.08.04-.12,0-.01,0-.03,0-.05-.03-.07-.05-.14-.09-.2-.17-.26-.37-.49-.62-.67-.1-.08-.17-.16-.2-.29-.04-.15-.13-.28-.24-.38-.07-.07-.14-.13-.22-.19-.04-.03-.07-.07-.1-.12-.13-.23-.26-.46-.38-.69-.45-.88-.8-1.8-1.06-2.76-.1-.36-.18-.72-.24-1.08,0-.03-.02-.07,0-.1.03,0,.04.03.06.05.3.39.64.75,1.01,1.08.71.63,1.49,1.16,2.32,1.61.07.04.15.07.24.09.09.02.17.04.26.05.21.02.41-.02.58-.15.12-.09.21-.21.27-.35.07-.15.11-.31.13-.48,0-.03,0-.07,0-.13-.03.04-.04.05-.06.07-.1.14-.24.23-.4.27-.29.07-.57.05-.84-.07-.42-.2-.82-.44-1.21-.71-.71-.5-1.34-1.08-1.91-1.74-.35-.42-.67-.86-.95-1.33-.05-.09-.09-.18-.13-.27-.24-.61-.52-1.2-.87-1.75-.24-.38-.5-.73-.81-1.05-.07-.08-.15-.14-.23-.22-.03-.03-.06-.04-.1-.02-.01,0-.02,0-.03.01-.19.04-.38.05-.57-.01-.19-.06-.35-.17-.48-.31-.14-.16-.26-.33-.3-.55-.05-.29-.05-.57.05-.85.02-.06.02-.1-.01-.16-.18-.36-.35-.74-.5-1.11-.38-.94-.7-1.91-.87-2.91-.06-.32-.09-.65-.1-.97-.01-.26,0-.52.04-.77,0-.02,0-.05,0-.1-.02.05-.03.07-.04.1-.09.24-.13.48-.17.73-.01.11-.02.22-.03.34,0,.06,0,.11-.04.16v.53c.04.05.04.11.04.17.01.11.02.22.03.33.04.47.13.93.24,1.38.18.73.41,1.45.7,2.15.14.34.29.67.43,1Z"/>
            <path class="cls-3" d="m68.41,44.54c0-.29-.03-.59-.04-.88,0-.02,0-.04-.01-.07-.08.02-.15.05-.23.06-.14.03-.25.1-.35.2-.07.07-.14.14-.23.19-.06.03-.09.09-.1.16,0,.02,0,.05,0,.07.02.06,0,.11-.01.16-.04.13-.08.25-.12.38-.02.05-.04.11-.07.16-.07.13-.15.25-.21.38-.02.05-.03.1-.05.15h1.4c0-.32,0-.65,0-.97Z"/>
            <path class="cls-3" d="m55.05,59.99c-.06.04-.12.06-.19.06-.35,0-.71,0-1.07,0-.17,0-.34.01-.5.06-.02,0-.03.01-.05.01-.02,0-.05,0-.08,0,.03-.11.05-.2.09-.3.03-.09.04-.17.02-.26,0-.02,0-.04,0-.06,0-.11-.05-.22-.1-.32-.02-.03-.03-.07-.04-.11-.02-.08-.05-.14-.1-.21-.05-.07-.11-.11-.18-.16-.06-.05-.11-.09-.16-.15-.05-.06-.07-.12-.05-.2.01-.05.01-.1,0-.14-.01-.15-.03-.31-.04-.46,0-.08-.02-.17-.03-.25-.01-.1-.02-.2-.03-.3,0-.04-.01-.08-.03-.11-.03-.07-.07-.14-.09-.21-.02-.05-.04-.1-.08-.13-.03-.03-.06-.06-.09-.08-.04-.03-.06-.07-.08-.12-.04-.09-.07-.19-.11-.28-.02-.04-.02-.08,0-.13.03-.11.04-.23.04-.35,0-.02,0-.05,0-.07,0-.09.02-.18.07-.26.05-.08.07-.16.07-.25,0-.14.04-.28.07-.42,0-.03.02-.06.04-.07.07-.05.12-.11.16-.18.01-.02.04-.03.05-.05.05-.04.1-.09.14-.13.04-.05.04-.07,0-.11-.03-.03-.06-.07-.07-.11-.05-.2-.1-.41-.15-.61-.01-.05-.02-.1-.02-.15,0-.11-.02-.22-.06-.33,0-.03-.03-.07-.06-.09-.09-.07-.14-.16-.19-.25-.08-.15-.16-.3-.24-.45-.1-.19-.22-.36-.37-.51-.06-.06-.11-.14-.14-.22-.04-.09-.06-.18-.02-.28,0-.02,0-.04,0-.06.01-.18.03-.35.04-.53,0-.07.01-.13.04-.19.01-.04.03-.08.04-.11.06-.16.08-.32.07-.49,0-.04-.01-.07-.03-.1-.03-.06-.06-.11-.1-.17-.09-.02-.17-.04-.26-.06-.06-.02-.12-.02-.18-.01-.13.02-.27.01-.4.02-.12,0-.21-.04-.3-.11-.03-.03-.06-.06-.09-.08-.07-.07-.13-.13-.2-.2-.04-.04-.09-.07-.13-.11-.03-.02-.06-.03-.1-.03-.05,0-.1,0-.16,0-.11,0-.23,0-.34.02-.12.03-.24.06-.37.08-.09.01-.17.06-.25.12-.09.07-.18.14-.27.2-.02.01-.04.02-.07.02-.13,0-.27,0-.4,0-.02,0-.03,0-.05,0-.1-.03-.2-.06-.3-.1-.1-.04-.19-.04-.27.03-.1.07-.21.12-.32.17-.05.02-.09.03-.14.02-.12,0-.23,0-.35,0-.09,0-.17,0-.23-.07-.02-.02-.04-.03-.06-.04-.08-.04-.15-.1-.21-.18-.15-.17-.31-.32-.51-.44-.05-.03-.11-.06-.15-.09-.05-.04-.09-.08-.14-.12-.03-.03-.05-.07-.05-.12,0-.05-.02-.1-.03-.15-.06-.26-.07-.31-.33-.49-.15-.1-.28-.21-.42-.32-.05-.04-.1-.1-.13-.16-.03-.04-.05-.08-.08-.12-.03-.04-.06-.07-.09-.11-.04-.05-.07-.11-.07-.18-.01-.11-.03-.22-.05-.32-.02-.1-.03-.21-.05-.31,0-.04-.03-.07-.06-.1-.04-.04-.08-.08-.1-.13.02-.01.03-.03.04-.04.16-.09.26-.24.33-.4,0-.02.02-.04.03-.05.05-.12.09-.24.08-.37,0-.11,0-.22,0-.33,0-.06,0-.12.03-.18.01-.02.02-.05.02-.08,0-.12,0-.24-.04-.36-.04-.09-.08-.19-.12-.28-.05-.11-.1-.21-.14-.32-.04-.09-.03-.12.04-.19.11-.1.21-.2.3-.32.05-.07.08-.15.08-.24,0-.06,0-.13-.01-.19.02-.02.03-.04.05-.07.14-.17.28-.34.41-.51.15-.2.32-.36.52-.5.08-.06.16-.1.26-.09,0,0,.02,0,.03,0,.05-.06.11-.12.16-.19q.17-.2.42-.32c.51-.24,1.05-.4,1.6-.53.27-.06.54-.11.81-.15.21-.03.42-.06.63-.09.2-.02.39-.04.59-.06.31-.02.63-.05.94-.06.38-.01.77-.01,1.15-.01.25,0,.51,0,.76.01.07,0,.14,0,.21.02.05.06.07.12.13.17.22.18.45.34.65.54.02.02.05.03.08.03.15-.02.3-.03.46-.05.02,0,.04-.01.06-.02.03-.06.05-.11.08-.16.07-.14.14-.29.14-.46.11-.07.22-.11.34-.1.04,0,.07.01.11.01.08,0,.16.02.23.05.06.02.11.05.13.11.02.04.04.07.08.08.12.04.22.11.33.18.03.02.06.03.09.03.1,0,.19.01.29.02.04,0,.07.01.1.03.07.03.14.07.22.11.13.06.27.09.41.05.05-.01.09-.02.14-.03.17-.03.34-.06.51-.07.05,0,.1,0,.15.02.05.02.1.03.15.05.07.02.13,0,.17-.06.03-.04.06-.08.08-.13.04-.09.08-.19.12-.29.01-.03.02-.05.02-.08.01-.21.02-.42.03-.63,0-.03,0-.06,0-.1-.02-.13-.1-.22-.23-.25-.03,0-.06,0-.08,0-.02,0-.04.01-.05-.02.02-.01.05-.03.07-.04.07-.04.15-.08.22-.13.5-.36.7-.86.65-1.46,0-.02,0-.04-.04-.04-.02.09-.05.17-.11.25-.09.11-.18.22-.29.31-.2.18-.43.31-.67.43-.45.21-.92.35-1.4.46-.32.07-.64.13-.96.17-.23.03-.46.06-.7.09-.24.02-.49.04-.74.06-.49.04-.97.05-1.46.04-.25,0-.49-.01-.74-.01-.13,0-.26,0-.39,0-.21,0-.43.01-.64.03-.26.02-.53.05-.79.09-.3.04-.59.08-.88.13-.35.06-.7.13-1.04.21-.6.13-1.19.28-1.78.46-.38.11-.76.23-1.14.31-.4.08-.8.17-1.19.25-.32.06-.63.12-.95.18-.29.05-.58.11-.87.16-.25.05-.51.09-.76.13-.26.04-.52.09-.79.13-.22.04-.44.07-.66.11-.17.03-.34.06-.51.08-.07.01-.14.04-.2.09-.34.26-.69.51-1.03.77-.45.34-.91.67-1.35,1.02-.17.13-.35.24-.56.3-.35.11-.68.07-.99-.15-.01,0-.03-.02-.05-.03-.12.17-.21.36-.25.56-.01.07,0,.14,0,.22,0,.04.01.08.04.11.1.02.21.02.31.02.15,0,.31-.02.46-.04.19-.02.38-.04.57-.06.17-.02.34-.04.52-.07.2-.03.4-.05.6-.08.2-.03.39-.06.59-.09.19-.03.38-.05.57-.08.23-.04.47-.07.7-.11.23-.04.46-.07.69-.11.22-.04.45-.07.67-.11.23-.04.45-.08.68-.11.21-.03.41-.07.62-.09.23-.02.46,0,.68.07.25.07.47.21.64.41.08.09.13.2.16.32.04.22.03.43-.02.65-.07.29-.19.56-.34.81-.21.36-.47.69-.75.99-.09.09-.18.19-.28.27-.11.1-.22.19-.33.28-.77.64-1.51,1.31-2.2,2.04-.38.4-.74.81-1.05,1.26-.22.32-.44.65-.62,1-.12.23-.22.46-.27.71-.02.12-.03.23-.02.35.01.08.04.16.1.22.03.03.06.06.11.07,0-.02,0-.04.01-.06.03-.13.06-.25.1-.37.08-.26.2-.5.36-.72.03-.03.05-.07.09-.09.05.08.11.16.16.23.04.01.08.02.12.03.12.03.25.07.37.1.09.02.17.07.22.16,0,.02,0,.04,0,.06.02.18.02.36.05.54.03.19.03.37.01.55,0,.07-.02.14-.07.2-.02.02-.03.05-.05.07-.02.02-.04.05-.06.05-.09.02-.13.08-.17.16-.01.02-.02.04-.04.06-.12.12-.17.28-.21.44-.03.16-.04.31.02.46.02.05.04.1.04.15,0,.22.03.45-.05.67,0,.01,0,.02,0,.04-.03.15-.06.3-.09.45-.02.09-.02.18,0,.26,0,.03,0,.06,0,.08-.01.1-.06.18-.13.25-.04.05-.09.08-.15.09-.16.02-.31.05-.47.07-.21.02-.52.2-.62.53.02.03.05.05.08.08.02.03.05.05.07.08.03.03.04.07,0,.11-.03.04-.03.08-.05.12-.02.08-.04.16-.07.23-.05.12-.08.25-.08.39,0,.1-.02.2-.07.29-.08.01-.08.01-.15.05-.09.06-.18.11-.26.17,0,0,0,.01-.01.02.02.02.05.03.07.05-.02.03-.04.06-.06.09.05.04.1.07.15.1-.02.03-.03.07-.05.1-.01.03-.02.05-.03.08-.01.14-.02.29-.04.43.03.02.05.03.08.04.35.17.69.34,1.04.51.04.02.08.04.12.06.14.09.2.24.16.41-.02.07-.05.14-.09.2-.08.11-.19.16-.33.14-.05,0-.11-.03-.16-.05-.06-.02-.11-.05-.16-.08-.02-.01-.05-.02-.08-.03-.09.17-.17.34-.25.51,0,.01,0,.02.02.03.03.02.05.04.08.06,1.57,1.06,3.26,1.88,5.06,2.46.76.24,1.52.44,2.3.59.49.1.98.18,1.48.23.3.03.59.07.89.09.3.02.6.04.91.05.61.02,1.21,0,1.81-.03.37-.02.75-.05,1.12-.1.31-.04.62-.08.93-.13.53-.09,1.06-.2,1.58-.33.63-.16,1.25-.35,1.86-.56v-3.99s-.02.01-.03.02Z"/>
            <path class="cls-3" d="m66.29,45.5c-.07-.2-.15-.39-.22-.59-.03-.07-.05-.15-.05-.22,0-.03,0-.06,0-.08,0-.18-.06-.34-.13-.5,0,0-.01,0-.02-.02-.02.03-.04.06-.06.09-.02.03-.03.05-.06.08-.02.03-.06.04-.09.02-.07-.04-.12-.09-.13-.18-.01-.09-.03-.18-.04-.28,0-.06-.03-.12-.06-.17-.12-.18-.25-.36-.39-.53-.02-.02-.03-.04-.05-.05-.06-.07-.14-.11-.23-.11-.1,0-.19,0-.29-.01-.05,0-.1,0-.14-.03-.07-.05-.15-.06-.23-.05-.03,0-.06,0-.1,0-.06,0-.11,0-.16-.03-.04-.02-.07-.04-.11-.05-.03-.01-.07-.02-.1-.02-.1,0-.2,0-.3,0-.06,0-.09.02-.11.07-.03.07-.05.14-.04.21.03.02.06.04.09.06.17.09.29.23.39.39.03.05.07.11.09.17.07.21.02.39-.13.54-.03.02-.06.05-.09.07-.02.02-.04.03-.07.05.03.2-.05.36-.16.52,0,.01-.02.03-.03.04-.06.08-.13.16-.19.23-.13.14-.28.27-.44.4h3.66s0,0,0-.01Z"/>
            <path class="cls-3" d="m60.47,46.35h-.18s.07.03.11.04c.04,0,.06-.01.07-.04Z"/>
            <path class="cls-3" d="m60.4,45.39c-.02-.15-.06-.29-.14-.42-.11-.16-.21-.34-.31-.51-.03-.06-.08-.1-.13-.14-.07-.06-.13-.12-.2-.17-.03-.02-.04-.05-.05-.09,0-.08-.01-.17-.02-.25-.01-.14-.06-.27-.12-.39-.06-.11-.13-.21-.2-.32-.05-.07-.11-.14-.19-.18-.03-.01-.04-.04-.04-.07-.02-.14-.07-.28-.12-.42-.01-.04-.03-.08-.06-.1-.08-.05-.13-.13-.18-.21-.03-.04-.05-.08-.08-.12-.06-.11-.14-.16-.27-.15,0,0-.02,0-.02,0-.04.06-.08.13-.12.2-.02.04-.03.08-.03.13,0,.08.01.16.02.24,0,.04.02.08.04.11.05.06.1.12.14.18.1.13.17.27.15.45,0,.08,0,.15,0,.23.03.02.05.05.08.07.08.06.15.14.21.22.14.19.21.39.18.62,0,.05,0,.1.02.15.03.08.06.17.1.24.05.09.12.17.22.22.06.03.08.07.1.12.07.16.14.33.22.48h.79s0-.08,0-.12Z"/>
            <path class="cls-3" d="m61.04,36.99q.13-.1.28-.13c.02-.07,0-.12-.05-.18-.03-.04-.06-.06-.09-.1-.04-.05-.08-.07-.14-.07-.13,0-.26,0-.39,0-.05,0-.1.02-.15.04-.05.02-.08.05-.1.1-.02.05-.04.11-.04.16-.01.1-.04.19-.08.28-.01.03-.03.07-.04.1.04.08.09.15.13.22.04.07.08.14.09.22,0,.03.02.05.03.08.05.07.11.14.17.21.11.13.22.26.34.38.06.07.08.14.06.22-.02.12-.04.24-.05.36,0,.08,0,.15-.01.23,0,.08.04.14.11.17.07.03.14.05.2.07.03.01.06.02.09.04.08.07.18.12.27.18.06.04.12.05.19.03.14-.04.25-.12.34-.25-.05-.03-.07-.08-.08-.13-.03-.17-.1-.32-.2-.46-.06-.09-.12-.18-.18-.27-.02-.04-.05-.08-.06-.13-.04-.13-.1-.25-.16-.37-.04-.07-.07-.15-.1-.22-.01-.03-.02-.06-.04-.09-.08-.09-.16-.18-.26-.25-.06-.04-.11-.08-.16-.12-.06-.05-.06-.19.01-.25.03-.02.07-.05.1-.07Z"/>
            <path class="cls-3" d="m48.14,47.36c.16,0,.31,0,.47,0,.06,0,.12-.01.18-.03.04-.01.09-.02.13-.02.06,0,.12.02.18.04.03,0,.05,0,.08,0,.05-.11.1-.21.15-.31.02-.04.05-.06.09-.07.05,0,.1,0,.14-.03v-.1s-.06-.03-.09-.04c-.07-.03-.13-.07-.17-.13-.05-.06-.11-.12-.16-.18-.06-.06-.11-.13-.16-.18,0-.11.05-.21.02-.32-.05-.02-.07,0-.1.02-.04.01-.08.03-.12.03-.22.01-.42.1-.6.22-.16.11-.31.22-.46.34-.05.04-.11.09-.15.14-.14.16-.21.34-.21.55,0,.17.1.3.27.34.1.02.2.02.3.03.05,0,.09-.01.14-.04,0-.07-.06-.14-.03-.21.03-.04.08-.04.12-.04Z"/>
            <path class="cls-3" d="m61.76,41.52c-.05-.06-.1-.11-.16-.14-.11-.06-.21-.05-.33.04.02.06.03.12.05.18.02.09.06.17.11.25.03.05.06.1.08.15.03.08.07.14.12.2.06.06.11.12.14.2.02.06.07.11.12.14.04.02.07.05.11.07.07.03.11.08.12.15,0,.04.02.09.02.13,0,.09.03.16.07.24.05.09.12.12.22.11.01,0,.02,0,.04,0,.13,0,.23-.05.31-.15.06-.07.11-.14.16-.21.08-.13.14-.28.26-.39,0,0,0,0,0-.03-.07-.02-.15-.05-.22-.03-.06.01-.12.04-.18.06-.05.02-.09.03-.14,0-.02,0-.04-.02-.05-.03-.11-.08-.24-.14-.34-.24-.12-.12-.25-.24-.32-.41-.05-.11-.11-.2-.19-.3Z"/>
            <path class="cls-3" d="m36.26,61.09s.06.05.11.06c.07-.13.13-.26.19-.39-.06-.04-.12-.08-.19-.09,0,.07-.04.12-.08.17-.03.04-.06.08-.09.12-.01.02-.02.04-.03.06.03.03.06.05.09.07Z"/>
            <path class="cls-3" d="m37.34,45.97s-.01,0-.02,0c0,0,0,0,0,.01,0,0,.01,0,.02,0,0,0,0,0,.01-.01Z"/>
            <polygon class="cls-3" points="37.31 45.98 37.31 45.98 37.31 45.99 37.31 45.98"/>
            <path class="cls-3" d="m35.63,49.04s-.01,0-.02,0c0,0,.01,0,.02,0h0Z"/>
            <polygon class="cls-3" points="35.62 49.04 35.61 49.04 35.61 49.04 35.62 49.04"/>
          </g>
        </g>
      </g>
    </g>
  </g>
</svg>