<svg version="1.1" xmlns="http://www.w3.org/2000/svg" xmlns:xlink="http://www.w3.org/1999/xlink">
  <symbol id="offshore" x="0" y="0" viewBox="0 0 40 40" fill="currentColor">
    <path d="M21.7,23C21.7,23,21.7,23,21.7,23c0.2,0,0.2,0,0.3-0.1c0,0,0.1-0.3,0.4-0.7l0.4,0.3c0.1,0.1,0.2,0.1,0.3,0
		l0.8-0.9c0.1-0.1,0-0.2,0-0.3l-0.4-0.3c0.1-0.1,0.3-0.3,0.5-0.4c1.8-1.3,4.2-1.7,6.9-1l1.6,11.5c0,0,0,0.1,0.1,0.1c0,0,0,0,0,0
		c0,0,0.1-0.1,0.1-0.1l-1.6-11.5c0,0,0.1-0.1,0.1-0.1c0-0.1,0-0.2-0.1-0.2c-2-0.5-4.9-0.6-7.3,1.1c-0.2,0.1-0.4,0.3-0.5,0.4
		c-0.1-0.1-0.2-0.1-0.2,0L22,21.7c-0.1,0.1,0,0.2,0,0.2c-0.3,0.4-0.5,0.8-0.5,0.8C21.5,22.8,21.6,22.9,21.7,23L21.7,23z"/>
    <path d="M34.6,33.1c-0.7-0.3-1.4-0.6-2.3-0.6c-0.9,0-1.6,0.3-2.3,0.6c-0.6,0.2-1.1,0.5-1.7,0.5s-1.2-0.2-1.7-0.5
		c-0.6-0.3-1.4-0.6-2.3-0.6s-1.6,0.3-2.3,0.6c-0.6,0.2-1.1,0.5-1.8,0.5s-1.2-0.2-1.7-0.5c-0.6-0.3-1.4-0.6-2.3-0.6
		c-0.9,0-1.6,0.3-2.3,0.6c-0.6,0.2-1.1,0.5-1.7,0.5s-1.2-0.2-1.7-0.5c-0.7-0.3-1.4-0.6-2.3-0.6c-0.9,0-1.6,0.3-2.3,0.6
		c-0.6,0.2-1.1,0.5-1.7,0.5s-1.7-0.4-2.3-0.6v1.5C2.5,34.7,3.3,35,4.2,35s1.6-0.3,2.3-0.5C7,34.2,7.6,34,8.2,34s1.2,0.2,1.7,0.5
		c0.6,0.3,1.4,0.5,2.3,0.5s1.6-0.3,2.3-0.6c0.6-0.2,1.1-0.5,1.7-0.5c0.6,0,1.2,0.2,1.8,0.5c0.6,0.3,1.4,0.5,2.3,0.5s1.6-0.3,2.3-0.5
		c0.6-0.2,1.1-0.5,1.8-0.5s1.2,0.2,1.8,0.5c0.6,0.3,1.4,0.5,2.3,0.5s1.6-0.3,2.3-0.5c0.6-0.2,1.1-0.5,1.7-0.5c0.6,0,1.2,0.2,1.8,0.5
		c0.7,0.3,1.4,0.5,2.3,0.5s1.1-0.2,1.7-0.4v-1.5c-0.6,0.2-1.1,0.5-1.7,0.5S35.2,33.3,34.6,33.1L34.6,33.1z"/>
    <path d="M19.5,21l-8.7-2L10,19.6l3.3,0.8c0.3,0.1,0.5,0.3,0.5,0.6l0,0c-0.1,0.3-0.3,0.5-0.6,0.4l-4.9-0.6l-1,0.9
		l12.7,1L19.5,21L19.5,21z"/>
    <path d="M20.2,17.7c0-0.2-2.6-0.7-2.9-0.5c-0.3,0.2-2.7,2-2.7,2l4.9,1.2C19.6,20.4,20.2,18,20.2,17.7L20.2,17.7z"/>
    <path d="M8.1,26.5c0.9,0,1.6,0.3,2.3,0.6c0.6,0.2,1.1,0.4,1.7,0.4s1.2-0.2,1.7-0.4c0.6-0.3,1.4-0.6,2.3-0.6
		c0.9,0,1.6,0.3,2.3,0.6c0.6,0.2,1.1,0.4,1.7,0.4s1.2-0.2,1.8-0.4c0.6-0.3,1.4-0.6,2.3-0.6s1.6,0.3,2.3,0.6c0.5,0.2,0.9,0.4,1.4,0.4
		c0.6-1.2,1.5-2.7,1.6-3.1c0.1-0.2-0.5-0.3-0.5-0.3s-25-2-26.5-1.9c-0.5,0,1.8,2.8,3.5,4.8C6.7,26.7,7.3,26.5,8.1,26.5L8.1,26.5z"/>
    <path d="M6.4,30.2c0.6-0.2,1.1-0.5,1.8-0.5s1.2,0.2,1.7,0.5c0.6,0.3,1.4,0.5,2.3,0.5s1.6-0.3,2.3-0.6
		c0.6-0.2,1.1-0.4,1.7-0.4c0.6,0,1.2,0.2,1.8,0.4c0.6,0.3,1.4,0.6,2.3,0.6s1.6-0.3,2.3-0.6c0.6-0.2,1.1-0.4,1.8-0.4s1.2,0.2,1.8,0.4
		c0.6,0.3,1.4,0.6,2.3,0.6s1.6-0.3,2.3-0.6c0.2-0.1,0.4-0.2,0.6-0.2L31,28.5c-0.4,0.1-0.7,0.2-1,0.4c-0.6,0.2-1.1,0.4-1.7,0.4
		s-1.2-0.2-1.7-0.4c-0.6-0.3-1.4-0.6-2.3-0.6s-1.6,0.3-2.3,0.6c-0.6,0.2-1.1,0.4-1.8,0.4s-1.2-0.2-1.7-0.4c-0.6-0.3-1.4-0.6-2.3-0.6
		c-0.9,0-1.6,0.3-2.3,0.6c-0.6,0.2-1.1,0.4-1.7,0.4S11,29,10.5,28.8c-0.7-0.3-1.4-0.6-2.3-0.6c-0.9,0-1.6,0.3-2.3,0.6
		c-0.6,0.2-1.1,0.4-1.7,0.4s-1.7-0.4-2.3-0.6v1.5c0.6,0.3,1.4,0.6,2.3,0.6S5.8,30.4,6.4,30.2L6.4,30.2z"/>
    <path d="M34.1,30.2c0.7,0.3,1.4,0.5,2.3,0.5s1.1-0.2,1.7-0.4v-1.5c-0.6,0.2-1.1,0.4-1.7,0.4s-1.2-0.2-1.7-0.4
		c-0.4-0.2-0.9-0.4-1.4-0.5l0.2,1.6C33.6,30,33.8,30.1,34.1,30.2z"/>
  </symbol>
  <symbol id="shore" x="0" y="0" viewBox="0 0 40 40" fill="currentColor">
    <circle cx="12.6" cy="9" r="2.3"/>
    <path d="M5.5,22.6h9.6c0.5,0,0.9,0.4,0.9,0.9v2.6c0,0.5-0.4,0.9-0.9,0.9H5.5c-0.5,0-0.9-0.4-0.9-0.9v-2.6
		C4.6,23,5,22.6,5.5,22.6z"/>
    <path d="M9.4,21.7c0.3,0.2,0.8,0.4,1.4,0.4l5.2-0.3l2.3,5.3c0.1,0.3,0.4,0.5,0.7,0.5c0.1,0,0.1,0,0.2,0
		c0.4-0.1,0.6-0.5,0.5-0.9l-2-6.1c-0.1-0.4-0.4-0.6-0.9-0.7l-3.6-0.5l0.8-1.2l0.2,0.9l1.9,0.3l-0.8-2.7c-0.1-0.3-0.3-0.6-0.6-0.7
		c-0.5-0.2-1,0-1.2,0.2l-1.4,1c-0.1-0.9-0.1-1.8,0.2-2.6l1.9,0.8c0.1,0.1,0.3,0.1,0.5,0.1l2.4,0.2c-0.1,0.3-0.2,0.6-0.3,0.9
		c-0.1,0.2,0,0.4,0.2,0.5c0,0,0.1,0,0.1,0c0.1,0,0.3-0.1,0.3-0.2c0.1-0.3,0.3-0.7,0.4-1h0.2c0,0,0,0,0,0c0.4,0,0.8-0.3,0.8-0.7
		c0-0.3-0.1-0.5-0.4-0.7c0.1-0.2,0.2-0.4,0.4-0.6l0.6,0.5c0.1,0.1,0.3,0.1,0.4,0l1.2-1.3c0.1-0.1,0.1-0.3,0-0.4l-0.6-0.5
		c0.2-0.2,0.5-0.4,0.7-0.6c1.2-0.9,2.6-1.5,4.2-1.8c2-0.4,4.2-0.3,6.6,0.2c0.2,0,0.3-0.1,0.4-0.2c0-0.2-0.1-0.3-0.2-0.4
		c-2.5-0.6-4.8-0.6-6.9-0.2c-1.7,0.3-3.2,1-4.5,2c-0.3,0.2-0.6,0.5-0.9,0.7c-0.1-0.1-0.3-0.1-0.4,0l-1.2,1.3c-0.1,0.1-0.1,0.2,0,0.4
		c-0.2,0.3-0.4,0.6-0.5,0.8l-3-0.4l-2.9-2c-0.2-0.2-0.4-0.3-0.6-0.4c-0.1,0-0.1-0.1-0.2-0.1c-1.1-0.4-2.4,0.1-2.8,1.2v0
		c-1.1,2.5-1,5.4,0.2,8.1C8.8,21.2,9.1,21.5,9.4,21.7L9.4,21.7z"/>
    <path d="M32.1,10.3C32.1,10.3,32.1,10.3,32.1,10.3l2.5,17.5c0,0.1,0.1,0.1,0.1,0.1c0,0,0,0,0,0c0.1,0,0.1-0.1,0.1-0.2
		l-2.5-17.5C32.3,10.3,32.2,10.3,32.1,10.3L32.1,10.3z"/>
    <path d="M5.2,31C5.2,31,5.2,31,5.2,31c0.1,0,0.1,0,0.2,0c0.2,0,0.5,0,1-0.2c0.5-0.2,0.9-0.4,1.4-0.8
		c0.5,0.4,1.4,1,2.5,1s1.9-0.6,2.4-1c0.5,0.5,1.3,1,2.6,1c1.1,0,1.9-0.5,2.4-1c0.5,0.4,1.2,0.9,2.3,1c0,0,0,0,0.1,0c0,0,0,0,0,0
		c0,0,0.1,0,0.1,0c0.2,0,0.5,0,1-0.2c0.5-0.2,0.9-0.4,1.4-0.8c0.5,0.4,1.4,1,2.5,1s1.9-0.6,2.4-1c0.5,0.5,1.3,1,2.6,1
		c1.1,0,1.9-0.5,2.4-1c0.5,0.5,1.3,1,2.5,1c0.3,0,0.6-0.3,0.6-0.6s-0.3-0.6-0.6-0.6c-1.3,0-1.9-0.9-1.9-1c-0.1-0.2-0.3-0.3-0.5-0.3
		c-0.2,0-0.4,0.1-0.5,0.3c0,0.1-0.6,1-1.9,1c-0.5,0-1-0.2-1.5-0.5c-0.3-0.3-0.5-0.5-0.5-0.5c-0.1-0.2-0.3-0.3-0.5-0.3
		c-0.2,0-0.4,0.1-0.5,0.2c0,0-0.9,1.1-2,1.1s-2-1-2.1-1c-0.1-0.1-0.3-0.2-0.4-0.2l0,0c-0.2,0-0.3,0.1-0.4,0.2
		c-0.4,0.4-0.9,0.8-1.3,0.9c-0.3,0.1-0.5,0.1-0.7,0.1c0,0,0,0,0,0c-1.3,0-1.9-0.9-1.9-1c-0.1-0.2-0.3-0.3-0.5-0.3
		c-0.2,0-0.4,0.1-0.5,0.3c0,0.1-0.6,1-1.9,1c-0.6,0-1.1-0.2-1.5-0.5c-0.3-0.3-0.5-0.5-0.6-0.5c-0.1-0.2-0.3-0.3-0.5-0.3
		c-0.2,0-0.4,0.1-0.5,0.2c0,0-0.9,1.1-2,1.1s-2-1-2.1-1c-0.1-0.1-0.3-0.2-0.4-0.2l0,0c-0.2,0-0.3,0.1-0.4,0.2
		c-0.4,0.4-0.9,0.8-1.3,0.9c-0.3,0.1-0.6,0.1-0.7,0.1c0,0-0.1,0-0.1,0c-0.3,0-0.6,0.3-0.6,0.6S4.9,31,5.2,31L5.2,31z"/>
    <path d="M34.8,33.8c-1.3,0-1.9-0.9-1.9-1c-0.1-0.2-0.3-0.3-0.5-0.3c-0.2,0-0.4,0.1-0.5,0.3c0,0.1-0.6,1-1.9,1
		c-0.5,0-1-0.2-1.5-0.5c-0.3-0.3-0.5-0.5-0.5-0.5c-0.1-0.2-0.3-0.3-0.5-0.3c-0.2,0-0.4,0.1-0.5,0.2c0,0-0.9,1.1-2,1.1s-2-1-2.1-1
		c-0.1-0.1-0.3-0.2-0.4-0.2l0,0c-0.2,0-0.3,0.1-0.4,0.2c-0.4,0.4-0.9,0.8-1.3,0.9c-0.3,0.1-0.5,0.1-0.7,0.1c0,0,0,0,0,0
		c-1.3,0-1.9-0.9-1.9-1c-0.1-0.2-0.3-0.3-0.5-0.3c-0.2,0-0.4,0.1-0.5,0.3c0,0.1-0.6,1-1.9,1c-0.6,0-1.1-0.2-1.5-0.5
		c-0.3-0.3-0.5-0.5-0.6-0.5c-0.1-0.2-0.3-0.3-0.5-0.3c-0.2,0-0.4,0.1-0.5,0.2c0,0-0.9,1.1-2,1.1s-2-1-2.1-1
		c-0.1-0.1-0.3-0.2-0.4-0.2l0,0c-0.2,0-0.3,0.1-0.4,0.2c-0.4,0.4-0.9,0.8-1.3,0.9c-0.3,0.1-0.6,0.1-0.7,0.1c0,0-0.1,0-0.1,0
		c-0.3,0-0.6,0.3-0.6,0.6S4.9,35,5.2,35c0,0,0,0,0,0c0,0,0.1,0,0.1,0c0.2,0,0.5,0,1-0.2c0.5-0.2,0.9-0.4,1.4-0.8
		c0.5,0.4,1.4,1,2.5,1s1.9-0.6,2.4-1c0.5,0.5,1.3,1,2.6,1c1.1,0,1.9-0.5,2.4-1c0.5,0.4,1.2,0.9,2.3,1c0,0,0,0,0.1,0c0,0,0,0,0,0
		c0,0,0.1,0,0.1,0c0.2,0,0.5,0,1-0.2c0.5-0.2,0.9-0.4,1.4-0.8c0.5,0.4,1.4,1,2.5,1s1.9-0.6,2.4-1c0.5,0.5,1.3,1,2.6,1
    c1.1,0,1.9-0.5,2.4-1c0.5,0.5,1.3,1,2.5,1c0.3,0,0.6-0.3,0.6-0.6S35.1,33.8,34.8,33.8L34.8,33.8z"/>
  </symbol>
  <symbol id="river" x="0" y="0" viewBox="0 0 40 40" fill="currentColor">
    <path d="M35.5,26.8C35.5,26.8,35.5,26.8,35.5,26.8c0-5-4.6-8.4-4.8-8.6l-0.3-0.2l-0.3,0.2c-0.1,0.1-2.5,1.9-3.9,4.7
		c1.2,0.4,4.5,1.2,6.8,0.5c0,0-2.2,2.2-7.5,1.3c-0.2,0.6-0.3,1.3-0.3,2c0,1.6,0.5,2.8,1.4,3.7c0.9,0.9,2,1.2,2.7,1.4v2.2
		c0,0.5,0.4,1,1,1s1-0.5,1-1v-2.2c0.8-0.1,1.9-0.5,2.7-1.4c0.7-0.7,1.1-1.5,1.3-2.5c-1.4,0.2-3.2,0.1-4.2-1.4
		C31.2,26.6,33.2,27.4,35.5,26.8L35.5,26.8z"/>
    <path d="M21.1,23.2L20.8,23l-0.3,0.2c-0.1,0-0.9,0.7-1.7,1.7c1.8,0.8,3.6,0.1,3.6,0.1c-1.1,1.7-3.6,0.9-4.1,0.7
		c-0.6,1-1.1,2.1-1.1,3.5c0,1.1,0.3,2,1,2.7c0.5,0.5,1.1,0.8,1.6,0.9v1.4c0,0.5,0.4,1,1,1c0.5,0,1-0.5,1-1v-1.4
		c0.5-0.1,1-0.4,1.5-0.8c-2.7,0.2-3.9-1-3.9-1c1.8,0.5,4.2-0.2,4.9-0.4c0.1-0.4,0.2-0.9,0.2-1.4C24.5,25.7,21.2,23.3,21.1,23.2z"/>
    <path d="M15.1,25.3c0.8-8.3,24.6-9.5,14.2-16.3h-1.5c0,0,5.7,2.6-1.2,5.6v-0.5c0.2-0.1,0.5-0.2,0.7-0.5
		c0.2-0.2,0.4-0.5,0.5-0.8c-0.6,0.2-1.7,0.3-3.3-0.2c0,0,2.6,0.1,3.5-0.5c0,0,0-0.1,0-0.1c0-2.2-2-3.6-2.1-3.7L25.5,8l-0.3,0.2
		c-0.1,0.1-2.1,1.5-2.1,3.7c0,0.7,0.2,1.3,0.6,1.7c0.2,0.2,0.5,0.4,0.7,0.5v1.2c-1.3,0.4-2.9,0.8-4.8,1.3V16c0.4-0.1,1-0.3,1.4-0.7
		c-0.8,0-1.9-0.1-3.1-0.7c0,0,2,0.9,3.9-0.3c0.2-0.5,0.4-1,0.4-1.7c0-3.4-3.1-5.7-3.2-5.8l-0.3-0.2l-0.3,0.2c-0.1,0.1-2.3,1.7-3,4.2
		c0.6,0.2,3,0.9,4.7,0.4c0,0-1.5,1.4-4.9,0.8c0,0.1,0,0.2,0,0.3c0,1.1,0.3,2,1,2.6c0.5,0.5,1.1,0.7,1.6,0.9v1
		c-3,0.7-5.4,1.5-7.3,2.6v-0.8c0.7-0.1,1.5-0.4,2.2-1.1c0.4-0.4,0.7-0.9,0.9-1.5c-1.2,0.3-3.4,0.6-4.6-1.1c0,0,2.4,1,4.8-0.2
		c0-0.2,0-0.3,0-0.5c0-4.3-4-7.3-4.2-7.4L9.5,6.7L9.2,6.9C9.1,7,7,8.6,5.8,11c1,0.3,3.8,1,5.9,0.5c0,0-2,1.9-6.5,1.1
		C5.1,13.1,5,13.7,5,14.3c0,1.4,0.4,2.5,1.2,3.3c0.7,0.7,1.6,1,2.2,1.2v2.1c-5.6,4.4-4.2,10.6-2,16.2H21C21,37,14.3,33.6,15.1,25.3
		L15.1,25.3z"/>
  </symbol>
  <symbol id="pond" x="0" y="0" viewBox="0 0 40 40" fill="currentColor">
    <path d="M36.7,22.2c0-3.5-1.7-9.6-3.8-9.6S29,18.8,29,22.2c0,3,1.3,4.1,3,4.3v2.1c0,0.5,0.4,0.8,0.8,0.8
		c0.5,0,0.8-0.4,0.8-0.8v-2.1C35.5,26.3,36.7,25.3,36.7,22.2z"/>
    <path d="M25.8,14.1v1.4c0,0.5,0.4,0.8,0.8,0.8s0.8-0.4,0.8-0.8v-1.4c0.9-0.2,1.6-1,1.6-2.7c0-2.2-1.1-6.1-2.5-6.1
		s-2.5,3.9-2.5,6.1C24.2,13.2,24.9,13.9,25.8,14.1L25.8,14.1z"/>
    <path d="M19,12.6v1.4c0,0.5,0.4,0.8,0.8,0.8s0.8-0.4,0.8-0.8v-1.4c0.9-0.2,1.6-1,1.6-2.7c0-2.2-1.1-6.1-2.5-6.1
		s-2.4,3.9-2.4,6.1C17.4,11.7,18,12.4,19,12.6L19,12.6z"/>
    <path d="M12.7,13.9v1.4c0,0.5,0.4,0.8,0.8,0.8s0.8-0.4,0.8-0.8v-1.4c0.9-0.2,1.6-1,1.6-2.7c0-2.2-1.1-6.1-2.4-6.1
		s-2.4,3.9-2.4,6.1C11.1,12.9,11.7,13.6,12.7,13.9L12.7,13.9z"/>
    <path d="M6.7,17.3v1.4c0,0.5,0.4,0.8,0.8,0.8s0.8-0.4,0.8-0.8v-1.4c0.9-0.2,1.6-1,1.6-2.7c0-2.2-1.1-6.1-2.4-6.1
		s-2.5,3.9-2.5,6.1C5.1,16.3,5.7,17,6.7,17.3L6.7,17.3z"/>
    <path d="M8.9,27.3c0-2.5-1.3-7-2.8-7s-2.8,4.4-2.8,7c0,2.1,0.8,2.9,2,3.1V32c0,0.5,0.4,0.8,0.8,0.8s0.8-0.4,0.8-0.8
		v-1.6C8,30.2,8.9,29.4,8.9,27.3L8.9,27.3z"/>
    <path d="M31.3,30.4c0,0-4.8-3.2-5.2-5.4c-0.3-1.4,0.9-3.7,1.2-4.3c0,0,0-0.1,0.1-0.1l0,0l0,0c0.1-0.2,0.1-0.3,0.1-0.5
		c0-1.6-3.6-2.9-8.1-2.9s-8.1,1.3-8.1,2.9c0,0.4,0.2,0.8,0.6,1.1l0,0l0,0c0,0,0,0,0,0c0.3,0.3,2.9,2.9,2.8,4.7
		c-0.1,2-4.3,4.4-4.3,4.4l0,0c-1,0.6-1.6,1.4-1.6,2.2c0,2.4,5.4,4.4,12,4.4s12-2,12-4.4C32.9,31.8,32.3,31.1,31.3,30.4z M25.4,28.7
		c-0.6,0.7-1.6,1.2-2.8,1.2c-0.8,0-1.6-0.2-2.2-0.6c-0.6,0.4-1.4,0.6-2.2,0.6c-1.1,0-2.2-0.5-2.7-1.2c-0.2-0.3-0.2-0.8,0.1-1
		c0.3-0.2,0.8-0.2,1,0.1c0.2,0.3,0.8,0.6,1.6,0.6s1.4-0.3,1.6-0.6l0.6-0.8l0.6,0.8c0.2,0.3,0.8,0.6,1.6,0.6s1.4-0.3,1.6-0.6
		c0.2-0.3,0.7-0.4,1-0.1C25.6,27.9,25.6,28.4,25.4,28.7L25.4,28.7z M15,19.6c0.3-0.2,0.8-0.2,1,0.1c0.2,0.3,0.8,0.6,1.6,0.6
		c0.8,0,1.4-0.3,1.6-0.6l0.6-0.8l0.6,0.8c0.2,0.3,0.8,0.6,1.6,0.6c0.8,0,1.4-0.3,1.6-0.6c0.2-0.3,0.7-0.4,1-0.1
		c0.3,0.2,0.4,0.7,0.1,1c-0.6,0.7-1.6,1.2-2.8,1.2c-0.8,0-1.6-0.2-2.2-0.6c-0.6,0.4-1.4,0.6-2.2,0.6c-1.1,0-2.2-0.5-2.7-1.2
		C14.7,20.3,14.7,19.9,15,19.6L15,19.6z M27.8,33.1c-0.6,0.7-1.6,1.2-2.8,1.2c-0.8,0-1.6-0.2-2.2-0.6c-1.2,0.8-3.2,0.8-4.3,0
		c-0.6,0.4-1.4,0.6-2.2,0.6c-1.1,0-2.2-0.5-2.7-1.2c-0.2-0.3-0.2-0.8,0.1-1c0.3-0.2,0.8-0.2,1,0.1c0.2,0.3,0.8,0.6,1.6,0.6
		c0.8,0,1.4-0.3,1.6-0.6l0.6-0.8l0.6,0.8c0.2,0.3,0.8,0.6,1.6,0.6s1.4-0.3,1.6-0.6l0.6-0.8l0.6,0.8c0.2,0.3,0.8,0.6,1.6,0.6
		s1.4-0.3,1.6-0.6c0.2-0.3,0.7-0.4,1-0.1C28,32.3,28.1,32.7,27.8,33.1L27.8,33.1z"/>
  </symbol>
  <symbol id="fixed-line" x="0" y="0" viewBox="0 0 40 40" fill="currentColor">
    <path d="M32.8,17.4L32.8,17.4c-0.6-1.3-1.3-2.5-2.2-3.4l0,0l0,0c-1.3-1.4-2.9-2.6-4.8-3.3C22.9,9.5,19.3,9,14.1,9H6
		v4.5c0,0.8,0,1.3,0,1.8c0,0.7,0,1.2,0,1.5c0,5.3,0.7,9.4,2,12.5c0.8,1.8,1.9,3.3,3.2,4.5c1.4,1.2,3.1,2.1,5.1,2.7
		c1.7,0.4,3.3,0.7,4.8,0.7c3.8,0,7.1-1.4,9.4-4.1c1.7-2,2.9-4.6,3.2-7.4C34.2,22.7,33.8,19.8,32.8,17.4L32.8,17.4z M31.7,17.8
		c0.4,1,0.7,2,0.9,3h-2v-5C31,16.5,31.4,17.1,31.7,17.8z M32.4,26.4h-1.9V22h2.1C32.9,23.5,32.8,25,32.4,26.4z M13.7,33.9v-2h-1.2
		v1.2c-1.4-1.1-2.5-2.6-3.3-4.4C9,28.4,8.9,28,8.7,27.6h1.4v-1.2H8.3C8,25.1,7.7,23.7,7.5,22h1.7v-1.2H7.4c-0.1-1.3-0.2-2.6-0.1-4.1
		c0-0.1,0-0.2,0-0.4h3v-1.2h-3c0-0.5,0-1,0-1.7v-3.3h5.3v1.3h1.2v-1.3h0.4c1.5,0,2.8,0.1,4,0.1v1.2h1.2v-1.1
		c1.7,0.2,3.1,0.4,4.4,0.8v1.4h1.2v-1c0.1,0,0.2,0.1,0.3,0.1c1.6,0.6,3,1.5,4.1,2.7v6.4H28V22h1.4v4.4h-4.4V24h-1.2v2.4h-1.9v1.2
		h1.9v4.4h-4.4v-0.9h-1.2v4.3c-0.5-0.1-1-0.2-1.5-0.3C15.6,34.9,14.6,34.5,13.7,33.9L13.7,33.9z M25,33.3h3.5
		c-1,0.9-2.2,1.5-3.5,1.9V33.3z M25,32.1v-4.4h4.4v4.4H25z M19.3,35.7v-2.4h4.4v2.3C22.4,35.8,20.9,35.9,19.3,35.7z M30.6,30.9v-3.3
		h1.5C31.7,28.8,31.2,29.9,30.6,30.9z"/>
    <path d="M17.4,28.3c0.7-1.5,2.1-2.6,2.1-2.6l1.2-0.9l-1.5-0.2c-0.1,0-1.6-0.2-4.1,0.5c-0.9-0.5-1-1.7-0.9-2.6
		c0-0.3,0.1-0.6,1-0.8c0.8-0.1,1.9,0,3.1,0.1v1H19c1.2,0,1.9-0.2,2.4-0.7l0.1-0.1c2,0,3.5-0.3,4.6-0.9c1.1-0.6,1.8-1.6,2.2-3.1
		l0-0.2l-0.1-0.2c-0.9-2.6-3.8-4.2-7.6-4.4l-0.4-0.2c-0.1-0.1-3.6-1.5-6.5-0.8c-0.9,0.2-1.5,0.7-1.6,1.3c-0.1,0.8,0.7,1.6,1.3,2.1
		c-0.1,0.1-0.1,0.1-0.2,0.1c-1.8,1.7-2.8,4-2.8,6.6c0,2.1,0.8,4.2,2.4,5.9c0.7,3.4,3.1,4.1,3.2,4.1l0.8,0.2l-0.1-0.9
		C16.9,31.8,16.7,29.9,17.4,28.3L17.4,28.3z M13.4,13.9c0,0,0.1-0.2,0.7-0.3c1.1-0.3,2.4-0.2,3.5,0.1c-1.1,0.3-2.2,0.7-3.1,1.4
		C13.9,14.6,13.4,14.1,13.4,13.9L13.4,13.9z M15.7,30.8c-0.6-0.5-1.3-1.3-1.6-2.9l0-0.2l-0.1-0.1c-1-1-2.2-2.8-2.2-5.1
		c0-2.2,0.9-4.2,2.4-5.7c1.6-1.4,3.7-2.2,6-2.2c3.5,0,6,1.3,6.9,3.4c-0.6,1.8-1.8,2.9-5.6,2.9c-1,0-2-0.1-3-0.2
		c-1.4-0.1-2.5-0.2-3.4-0.1c-1.5,0.2-1.9,1.1-2,1.8c-0.2,2,0.5,3.3,1.8,3.9l0.2,0.1l0.2-0.1c0.9-0.3,1.7-0.4,2.3-0.5
		c-0.5,0.5-0.9,1.2-1.3,2C15.8,28.9,15.7,30,15.7,30.8L15.7,30.8z"/>
    <path d="M23,17.8c0.5,0,0.8-0.4,0.8-0.8s-0.4-0.8-0.8-0.8s-0.8,0.4-0.8,0.8S22.6,17.8,23,17.8z M23,16.6
		c0.2,0,0.4,0.2,0.4,0.4s-0.2,0.4-0.4,0.4s-0.4-0.2-0.4-0.4S22.8,16.6,23,16.6z"/>
  </symbol>
  <symbol id="handshake" x="0" y="0" viewBox="0 0 40 40" fill="currentColor">
    <path d="M39,22.3l-2.9-10c-0.1-0.4-0.6-0.6-0.9-0.5l-5.2,1.5c-0.2,0.1-0.4,0.2-0.4,0.4c-0.1,0.2-0.1,0.4-0.1,0.6
	l0.2,0.6c-1.2,0.2-4.4,0.7-6.4-0.2c0,0-0.1,0-0.1,0c0,0-0.1,0-0.1,0c-0.1,0-0.3-0.1-0.5-0.1c0-0.4-0.2-0.7-0.3-1l0,0
	c-0.8-1.5-3.4-0.4-4.2,0c-1.5,0.6-5.8,0.9-7.5,1l0.2-0.6c0.1-0.4-0.1-0.8-0.5-0.9l-5.2-1.5c-0.4-0.1-0.8,0.1-0.9,0.5L1,21.9
	c-0.1,0.4,0.1,0.8,0.5,0.9l5.2,1.5c0,0,0.1,0,0.2,0c0.3,0,0.6-0.2,0.7-0.5l0.1-0.5c0.8,0.3,1.9,0.9,3.2,1.8c1.6,1.2,3.8,2.1,3.9,2.1
	c0,0,0,0,0,0c0,0,0,0,0,0l0.7,0.2c0,0,0,0,0.1,0l3.7,1.1c0.2,0.1,0.5,0.1,0.7,0.1c0.8,0,1.7-0.3,2.4-0.7c0.8-0.1,2.2-0.5,2.5-0.6
	c0,0,0.1,0,0.2,0c0.9,0,2-0.3,2.6-0.8c0.1-0.1,0.2-0.3,0.3-0.4l1.3-0.7c0.3-0.1,0.6-0.2,0.8-0.4c0,0,0,0,0,0
	c0.2-0.1,0.4-0.3,0.7-0.4c0.5-0.3,1.1-0.7,1.5-0.9l0.1,0.4c0.1,0.3,0.4,0.5,0.7,0.5c0.1,0,0.1,0,0.2,0l5.2-1.5
	c0.2-0.1,0.4-0.2,0.4-0.4S39,22.4,39,22.3L39,22.3z M6.8,23.3l-4.7-1.4l2.8-9.5l4.7,1.4L6.8,23.3L6.8,23.3z M24.6,26.3l-1.8-0.6
	c0,0-0.2-0.1-0.3-0.1l-2.7-0.8l0,0l0,0l-1.2-0.4c-0.3-0.1-0.6,0.1-0.6,0.4c-0.1,0.3,0.1,0.6,0.4,0.6l1.3,0.4l2.7,0.8
	c0,0.1-0.1,0.3-0.3,0.4c-0.7,0.5-1.8,0.7-2.3,0.5l-4.5-1.3c-0.3-0.1-2.2-0.9-3.7-2c-1.6-1.1-2.8-1.7-3.5-2L9,19.2
	c0.3-0.9,0.5-1.9,0.8-2.6l0.1-0.3c0,0,0-0.1,0-0.1l0.2-0.8c1.4-0.1,6.3-0.3,8.2-1.1c1.9-0.8,2.7-0.7,2.9-0.4l0,0
	c0.1,0.1,0.1,0.3,0.2,0.3c-0.6,0-1.2,0-1.7,0.4C19.3,15,19,15.4,18.8,16l-0.5-0.1c-0.3-0.1-0.6,0.1-0.6,0.4
	c-0.1,0.3,0.1,0.6,0.4,0.6l9.4,2.8c0.2,0.1,0.4,0.2,0.5,0.4s0.1,0.4,0.1,0.7c-0.1,0.4-0.6,0.7-1,0.6l-4.5-1.3l0,0l-2.2-0.7
	c-0.3-0.1-0.6,0.1-0.6,0.4c-0.1,0.3,0.1,0.6,0.4,0.6l9.2,2.7c0.2,0.1,0.4,0.2,0.5,0.4c0.1,0.2,0.1,0.4,0.1,0.7
	c-0.1,0.2-0.4,0.4-0.7,0.5l0,0c-0.2,0-0.5,0-0.7,0l-8.8-2.6c-0.3-0.1-0.6,0.1-0.6,0.4c-0.1,0.3,0.1,0.6,0.4,0.6l1.3,0.4l0,0l0.7,0.2
	l0,0l5.6,1.6c0.1,0,0.2,0.1,0.3,0.2c0,0.1,0,0.2,0,0.2c0,0,0,0,0,0c0,0.1-0.1,0.2-0.1,0.2C26.7,26.2,25.3,26.4,24.6,26.3L24.6,26.3z
	 M30.6,18.2C30.6,18.2,30.6,18.2,30.6,18.2c0.1,0.3,0.1,0.5,0.2,0.7l0.5,1.8c0.1,0.4,0.3,0.9,0.4,1.3l0.1,0.5c0,0.1,0.1,0.2,0.1,0.3
	c-0.4,0.2-0.8,0.4-1.2,0.7c-0.1-0.7-0.6-1.3-1.3-1.5l-0.8-0.2c0.2-0.2,0.4-0.5,0.4-0.8c0.1-0.5,0.1-1-0.2-1.4
	c-0.2-0.4-0.6-0.7-1.1-0.9l-7.9-2.3c0.1-0.3,0.2-0.6,0.5-0.7c0.7-0.5,1.9-0.1,2.4,0c0.1,0,0.1,0,0.2,0c2.3,1,5.8,0.4,7,0.2l0.2,0.8
	c0,0,0,0,0,0l0.3,1L30.6,18.2L30.6,18.2z M33.3,23.7l-2-6.8c0,0,0,0,0-0.1c0-0.1,0-0.1,0-0.2l-0.1-0.3l-0.6-2.1l4.7-1.4l2.8,9.4
	L33.3,23.7L33.3,23.7z"/>
  </symbol>
  <symbol id="bell" x="0" y="0" viewBox="0 0 40 40" fill="currentColor">
    <path class="st0" d="M14.8,16.1c0,0-0.1,0-0.2,0c-0.3-0.1-0.5-0.5-0.4-0.7c1.4-5.2,5.8-5,5.8-5c0.3,0,0.6,0.3,0.6,0.6
		c0,0.3-0.3,0.6-0.6,0.6c-0.2,0-3.4-0.2-4.6,4.1C15.3,16,15,16.2,14.8,16.1L14.8,16.1z"/>
    <path class="st0" d="M33.4,27.7c-0.1-1.5-0.9-2.8-2.1-3.5c-0.2-0.2-0.6-0.5-0.8-0.9c-0.4-0.7-0.6-1.5-0.6-2.5
		c-0.2-7.8-2.6-12-7.4-13.1c0-0.5-0.1-1.4-0.8-2.1C21.3,5.2,20.7,5,20.1,5l0,0l0,0l0,0l0,0c-1.7-0.1-2.3,1.7-2.5,2.8
		c-4.9,0.9-7.3,5.2-7.5,13.1c0,0.9-0.2,1.7-0.6,2.5c-0.2,0.5-0.6,0.7-0.8,0.9c-1.2,0.6-2,2-2.1,3.5c0,0.2,0,0.3,0,0.6
		c0,0.2,0.1,0.4,0.2,0.5c3.6,2.7,10.3,2.7,13.1,2.7s9.6,0,13.1-2.7c0.2-0.1,0.2-0.3,0.2-0.5S33.4,27.9,33.4,27.7z M19.9,6.2
		C19.9,6.2,20,6.2,19.9,6.2C20,6.2,20,6.2,19.9,6.2C20,6.2,20,6.2,19.9,6.2c0.4,0,0.7,0.1,0.9,0.3c0.2,0.3,0.4,0.8,0.4,1.1
		c-0.4,0-0.8-0.1-1.3-0.1c-0.4,0-0.8,0-1.1,0.1C19,7.1,19.3,6.2,19.9,6.2z M20,30.2c-2.5,0-8.8,0-12.2-2.3c0-0.1,0-0.1,0-0.2
		c0.1-1.1,0.6-2,1.4-2.5c0.5-0.2,0.9-0.7,1.3-1.3c0.5-0.9,0.7-1.9,0.8-3C11.6,10.2,15.9,8.8,20,8.8s8.4,1.4,8.7,12.1
		c0,1.1,0.3,2.1,0.8,3c0.4,0.6,0.8,1.1,1.3,1.4c0.8,0.5,1.3,1.3,1.4,2.5c0,0.1,0,0.1,0,0.2C28.8,30.2,22.4,30.2,20,30.2L20,30.2z"/>
    <path class="st0" d="M23,31.8c-0.3-0.2-0.7,0-0.8,0.3c-0.5,1-1.5,1.7-2.6,1.7c-1.2,0-2.2-0.7-2.6-1.7c-0.2-0.3-0.5-0.5-0.8-0.3
		c-0.3,0.2-0.5,0.5-0.3,0.8c0.6,1.5,2.1,2.5,3.7,2.5c1.6,0,3.1-0.9,3.7-2.5C23.4,32.3,23.3,31.9,23,31.8z"/>
  </symbol>
  <symbol id="camera" x="0" y="0" viewBox="0 0 40 40" fill="currentColor">
    <path class="st0" d="M15.6,7.6l-1.8,3.7H7.6c-1.4,0-2.6,1.1-2.6,2.6v16.1c0,1.4,1.1,2.6,2.6,2.6h24.9c1.4,0,2.6-1.1,2.6-2.6V13.8
		c0-1.4-1.1-2.6-2.6-2.6h-6.2l-1.8-3.7L15.6,7.6L15.6,7.6z M20,13.8c4.4,0,8,3.6,8,8s-3.6,8-8,8s-8-3.6-8-8S15.6,13.8,20,13.8
		C20,13.8,20,13.8,20,13.8z M20,16.7c-2.8,0-5.1,2.3-5.1,5.1s2.3,5.1,5.1,5.1s5.1-2.3,5.1-5.1S22.8,16.7,20,16.7z"/>
  </symbol>
</svg>
