<svg xmlns="http://www.w3.org/2000/svg" xmlns:xlink="http://www.w3.org/1999/xlink">
  <symbol id="home" x="0" y="0" viewBox="0 0 45 30">
    <polygon points="9.5,11.5 9.7,28 18.3,28 18.3,20.1 26.9,20.1 26.9,28 35.5,28 35.3,11.5 22.4,2"/>
  </symbol>
  <symbol id="profile" x="0" y="0" viewBox="0 0 45 30">
    <circle cx="22.5" cy="15" r="14"/>
    <circle cx="22.5" cy="11.7" r="5.1"/>
    <path d="M22.5,18c-5.2,0-9.5,2.7-9.5,6.1v1.2c2.5,2.3,5.8,3.8,9.5,3.8s7-1.4,9.5-3.8v-1.2C32,20.7,27.7,18,22.5,18z"/>
  </symbol>
  <symbol id="contact" x="0" y="0" viewBox="0 0 45 30">
    <path class="st0" d="M9.8,10.7c-0.6-2.5,0.1-5.2,1.9-7.1c1.9-1.9,4.6-2.6,7.1-1.9"/>
	<path class="st0" d="M26.1,1.7c2.5-0.6,5.2,0.1,7.1,1.9s2.6,4.6,1.9,7.1"/>
	<path class="st0" d="M12.3,10c-0.4-1.7,0.1-3.4,1.3-4.6s3-1.7,4.6-1.3"/>
	<path class="st1" d="M26.8,4.2c1.7-0.4,3.4,0.1,4.6,1.3c1.2,1.2,1.7,3,1.3,4.6"/>
	<path d="M19.3,24.9v0.5c0,1.7,1.4,3.2,3.2,3.2s3.2-1.4,3.2-3.2v-0.5H19.3z"/>
	<path d="M30.7,21v-5.7c0-3.8-2.6-7.1-6.3-8c-0.1-0.9-1-1.7-1.9-1.7c-1,0-1.8,0.7-1.9,1.7c-3.7,0.9-6.3,4.2-6.3,8V21
		c-1.4,0.4-2.3,1.6-2.3,3.1v0.5h21.1v-0.5C33.1,22.7,32.1,21.4,30.7,21L30.7,21z"/>
  </symbol>
  <symbol id="services" x="0" y="0" viewBox="0 0 45 30">
    <path d="M33.8,19c-0.1-0.6-0.5-1.1-1.1-1.3L31,17.2l0.5-0.6c0.2-0.2,0.3-0.4,0.4-0.6c0.1-0.4,0.1-0.8-0.1-1.2
	c-0.2-0.4-0.5-0.6-0.9-0.8l-9.2-2.7l0.1-0.5c0.1-0.5,0.4-0.9,0.7-1.1c0.3-0.2,0.8-0.3,1.3-0.3c0.7,0,1.5,0.2,1.8,0.3l0.1,0
	c1,0.4,2.2,0.6,3.6,0.6c1.6,0,3.2-0.3,4-0.4l0.5-0.1l0.9,3c0.1,0.3,0.2,0.5,0.2,0.8l1.4,4.7l-0.4,0.2c-0.4,0.2-0.9,0.5-1.3,0.8
	l-0.6,0.4L33.8,19L33.8,19z"/>
    <path d="M22.7,24c-0.2,0-0.5,0-0.6-0.1l-4.9-1.5c-0.3-0.1-2.5-1-4.2-2.3c-1.7-1.3-3.1-1.9-3.8-2.1l-0.4-0.2l2.5-8.4
	l0.4,0c3.3-0.2,7.3-0.5,8.9-1.2c1.2-0.5,2.1-0.7,2.8-0.7s1,0.3,1.1,0.5c0.1,0.2,0.2,0.4,0.2,0.5l0.3,0.7l-0.8,0c-0.1,0-0.1,0-0.2,0
	c-0.6,0-1,0.1-1.4,0.4c-0.4,0.3-0.6,0.6-0.8,1.2l-0.1,0.5l-1-0.3L20.4,11c0,0,0,0.1,0,0.1l10.4,3.1c0.4,0.1,0.7,0.4,0.8,0.7
	s0.2,0.7,0.1,1.1c-0.2,0.6-0.7,1-1.4,1c-0.1,0-0.3,0-0.4-0.1l-7.5-2.2L22,14.6l0.5,0.1c0,0,0,0.1,0,0.1l10.2,3
	c0.4,0.1,0.7,0.4,0.8,0.7c0.2,0.3,0.2,0.7,0.1,1.1c-0.1,0.4-0.5,0.7-1.1,0.9c-0.2,0-0.3,0.1-0.5,0.1l0,0c-0.2,0-0.3,0-0.5-0.1
	l-9.7-2.9l-0.1,0.1l0,0.1l8.5,2.5c0.4,0.1,0.6,0.4,0.6,0.6c0,0.2,0,0.4,0,0.6c-0.1,0.2-0.1,0.4-0.2,0.5c-0.5,0.5-1.7,0.7-2.4,0.7
	c-0.3,0-0.5,0-0.8-0.1l-2.1-0.6l0,0c-0.1,0-0.1-0.1-0.2-0.1l-4.4-1.3l-0.1,0.1c0,0,0,0.1,0,0.1l1.4,0.4l3.4,1l-0.1,0.4
	c0,0.2-0.2,0.5-0.4,0.8C24.4,23.7,23.5,24,22.7,24L22.7,24z"/>
    <rect x="0.8" y="9.5" transform="matrix(0.2817 -0.9595 0.9595 0.2817 -7.3089 15.5778)" width="11.9" height="6.4"/>
    <rect x="35.1" y="7.2" transform="matrix(0.9596 -0.2815 0.2815 0.9596 -2.1456 11.2983)" width="6.4" height="11.9"/>
  </symbol>
</svg>
