<?xml version="1.0" encoding="UTF-8"?>
<svg id="_レイヤー_2" data-name="レイヤー 2" xmlns="http://www.w3.org/2000/svg" viewBox="0 0 287.36 171.6">
  <defs>
    <style>
      .cls-1 {
        fill: #fff;
      }
    </style>
  </defs>
  <g id="_01" data-name="01">
    <g>
      <path class="cls-1" d="m65.06,86.93c.58-.1,1.25-.47,1.6-.95.58-.28,1.19-.79,1.56-1.31.61-.51,1.15-1.4,1.75-1.94.48-.42,1.08-1.25,1.56-1.59.65-.55,1.07-1.42,1.75-1.94,1.09-1.75,2.62-3.47,3.87-5.17.45-.46,1.01-1.06,1.2-1.69l-.17-.35-.43-.17-.47.12c-.64,1.13-1.65,1.87-2.26,2.96l-.08.03c-.58.78-1.43,1.64-2.06,2.37-.11.29-.41.64-.61.87-.24.25-.5.78-.83.91-.43.55-.97,1.24-1.46,1.74-1.02,1.3-2.68,2.05-3.61,3.35-.64.36-1.18,1.01-1.91,1.11-.27.21-.65.29-.97.4-.3-.87-.31-1.98-.22-2.89-.01-.44-.06-1.01.22-1.43.09-1.33.81-2.69,1.12-3.93l.32-.4c-.12-.12.05-.52.13-.65.15-.68.5-1.68.83-2.3-.03-.52.53-1.17.76-1.6.55-.21,1,.03,1.33-.7l-.07-.44-.57-.3-.08.02c-.04-.2-.14-.7-.23-.88-1.33-.76-2.34.59-2.72,1.54-.99.24-2.23.4-3.17.79l-.05-.03c-1.84.31-4.75,1.02-6.61,1.48-.39.33-.98.46-1.46.58-1.44.2-4.32,1.4-6.07,1.93-6.32,2.31-12.86,4.44-18.79,7.54.68-2.01,1.65-4.33,2.6-6.24l-.03.06c1.24-2.34,2.39-4.92,3.57-7.29.4-.84,1.14-1.56,1.53-2.41.78-1.35,1.59-2.95,2.44-4.27l-.03.06c1.78-2.38,3.31-5.13,5.45-7.23,1.85-2.24,2.62-2.94,4.4-4.62,1.29-.93,2.5-1.84,4.14-2.02,2.78-.81,2.65.58,3.64,2.48,2.44,1.85,2.63-1.98,1.18-3.12-.48-.49-.82-1.23-1.38-1.63-2.51-.86-5.9,1.02-7.66,2.55l.04-.02c-2.07,1.63-3.77,3.13-5.64,5.16-.37.59-1.21,1.65-1.75,2.08-1.62,2.2-3.37,5.04-4.96,7.28-.43.98-1.2,1.89-1.84,2.71-.19.58-.81,1.65-1.17,2.14-.13.26-1.48,3.26-1.65,3.38-.94.94-1.18,2.67-1.83,3.77-1.14,2.63-2.54,5.56-3.39,8.29-6.6,3.17-13.13,6.57-19.36,10.43l-.03.06c-1.52.85-3.15,1.85-4.55,2.91-1.13.65-2.91,2.43-1.2,3.45,2.78.56,4.51-2.36,6.46-3.79,3.53-1.98,6.74-4.6,10.06-6.77,2.49-1.39,5.17-2.85,7.81-3.91-.77,1.92-1.58,5.31-2.21,7.3-1.52,4.85-2.26,9.72-2.88,14.92-.53,2.76-.6,5.71-.56,8.52-.51.42-1.26.77-1.84,1.06-1.1.81-2.67,1.8-3.88,2.48-.22.16-1.8,1.16-1.91,1.39-.27.4-.82.81-1.25,1.01-.63.6-1.61,1.25-2.17,1.95-.59.38-1.34,1.15-1.88,1.61-.19.12-.63.43-.68.67-.67.32-1.3.98-1.62,1.66-1.49,1.33-2.28,3.36-2.73,5.26-.11,1.12.3,2.1,1.58,2.44l-.06-.03c.5.12,1.09.37,1.6.44,1.29-.12,2.7-.33,3.96-.6,2.42-.28,1.28-3.22-.73-2.38-1.32.21-2.69.74-4.03.77-1.45-.83.54-3.49,1.73-4.94,1.12-1.13,2.28-2.45,3.45-3.53.72-.57,1.18-.76,1.84-1.46.79-.7,2.03-1.13,2.79-1.9,2.02-1.27,3.99-2.82,5.94-4.21l-.04.02.09-.06c.11.57.75.9,1.29.78.72-.37.88-1.44.97-2.17,2.38-1.54,5.32-2.85,7.72-4.17.74-.56,2.05-.91,2.88-1.28,2.7-1.43,4.94-2.38,7.78-2.97,1.28-.29,2.62-.97,3.85-1.4,2.51-.4,4.46-1.23,7.16-1.12,1.27-.17,2.72.31,3.99.64.55.18,1.24.77,1.77,1.03,2.79,1.64,2.35,5.36,1.63,8.04-.27,2.82-1.25,5.87-2.68,8.31-1.3,2.61-2.72,5.08-4.77,7.3-.38.26-.64.87-.89,1.25-.19.3-.7.72-.94.99-1.69,2.35-3.98,4.08-6.19,5.82-1.3,1.22-2.67,2.52-4.24,3.4-.41.22-1.16.75-1.53,1.02-.39.08-.83.29-1.16.51-1.7,1.08-3.63,1.79-5.63,2-.4-.03-1.02.43-1.4.37-.26.05-.7.12-1.6-.3-.11-.19-.38-.56-.57-.67-.02-.18-.07-.21-.09-.25.07-.41.17-1.03.32-1.42.25-.44.38-1.14-.05-1.42-.71.12-1,.74-1.22,1.23-.38.72-.89,1.58-.65,2.42,1.81,3.89,7.67.68,10.62-.15,2.75-1.36,5.62-2.65,8.02-4.5,1.33-1.28,2.64-2.52,4.13-3.96,3.08-3.13,5.81-6.75,8.18-10.54.21-.13.47-.61.58-.82.98-2.42,2.8-4.77,3.51-7.31.45-1,.62-2.42,1.02-3.44.22-.69.07-1.56.3-2.24-.21-1.67-.38-4.05-1.81-5.1-.18-.16-.43-.45-.6-.62-1.51-1.41-3.14-2.73-5.27-2.63-.24-.1-.87-.38-1.13-.42-1.98.18-4.13-.3-6.03.52-2.49.04-5.53,1.41-8.01,1.71-.98.47-2.07.93-3.13,1.23-2.28.95-4.43,2.2-6.73,3.19-2.29,1.39-4.77,2.58-7.02,3.98.02-.66-.11-1.77-.29-2.41.35-1.98.24-4.23.48-6.21h-.04c.23-2.46.43-5.06.92-7.52.03-1.76,1.1-3.62,1.33-5.4.51-1.68,1.24-3.79,1.73-5.45.36-1.03.63-2.6,1.33-3.5,7.74-3.74,15.75-7.13,23.95-9.69,4.16-1.41,8.31-2.75,12.67-3.58-.21.68-.41,1.54-.68,2.23.04.85-.5,1.9-.69,2.71-.15.7-.49,1.45-.51,2.18-.08.66-.45,1.34-.48,1.61-.57,1.58-.35,3.55.18,5.09.92.74,2.31.74,3.23.08Z"/>
      <path class="cls-1" d="m65.46,65.2c1.34-.45,1.55-2.21,2.41-3.2.53-.81,1.53-2.01,1.44-2.66-.11-1.09-1.04-1.72-2.1-1.05-.31.21-.66.92-.79,1.26-.4.57-.7,1.3-.86,1.98-.22,1.04-.73,2.7-.11,3.66Z"/>
      <path class="cls-1" d="m77.75,80.97c-.47.28-1.21.84-1.61,1.19l-.06.35c.08.22.51.44.71.53,1.99-1.17,4.02-2.4,6.06-3.5h-.04c.98-.55,2.39-.58,3.29-1.28,2.27-.85,4.88-1.79,6.98-3h.1c.18-.11.61-.41.7-.62.58-.2,1-.94,1.17-1.49-.43-2.39-3.34-.91-4.88-1.05-.36.1-1.1.19-1.46.07-.93.03-2.04.32-2.97.01-.83.08-1.76-.09-2.58-.22-.48-.27-1.44-.42-1.04-1.2.35-.46.79-1.04.89-1.62.97-1.5,2.09-3.12,3.6-4.14.72-.83,2.2-2,3.13-2.62.95-.83,1.76-1.14,2.64-1.42.38-.15.78-.16,1.16,0,.34.27.31.77.46,1.13.56,1,2.45,1.16,2.65-.13.58-5.54-6.61-2.04-8.68,0-2.63,1.76-4.77,3.91-6.54,6.51-.17.79-.74,1.7-.94,2.52.01.04-.02.19,0,.23-.25.82-.17,1.44.33,2.06.29.15.92.43,1.24.48l-.06-.03c.13.03.45.15.58.2,1.74-.15,3.45.08,5.08.19,1,.2,2.18.01,3.19.09-.7.38-1.98.71-2.61,1.23-.26.13-1.22.49-1.35.77-.18.1-.42.25-.66.24-1.19.63-2.6,1.17-3.8,1.8-.34.28-.94.49-1.36.59-.16.15-.62.33-.83.4-.65.66-1.66,1.32-2.48,1.74Z"/>
      <path class="cls-1" d="m103.68,69.72c.04.3.21.86.4,1.11l.61.29c.43-.07.97-.34,1.31-.62h-.04c2.53-2.18,3.99-5.43,5.72-8.24.59-.7,1.93-2.35,2.45-3.08.27-.23.89-.82,1.02-1.16.34-.3.52-.81.84-1.14.47-.26.96-1.11,1.46-1.23.33,1.85.08,4.06.04,5.97-.26.92-.29,1.93.1,2.84.11.51.38,1.28,1,1.35.11.03.51.29.67.31.65-.24,1.72-.8,2.21-1.32.45-.5.86-1.32,1.35-1.79.55-.41.93-1.05,1.27-1.62.36-.28.38-.82.64-1.16,1.28-1.49,1.54-3,2.94-4.04.03-.45-.37-.92-.81-.96-.66.33-.94,1.26-1.39,1.8-.6.86-1.32,1.83-1.96,2.66-.6.96-1.94,2.34-2.7,3.16-2.06,2.03-1.28-2.52-1.33-3.51.35-2.9.63-7.07-3.62-4.58-1.65.85-2.48,2.66-3.61,4.1-.88.77-1.73,2.29-2.32,3.31l.03-.06c-.32.43-.61.96-.87,1.43-.37.51-1.12,1.5-1.5,1.99-.61.75-.96,1.77-1.6,2.49l-.12.04c-.51-5.99,1.34-11.79,2.87-17.47-.04-.69.62-1.53.73-2.21.55-2.17,1.35-4.79,1.96-6.98.37-.71.36-1.78.61-2.54.6-1.88,1.28-4.05,1.94-5.9.35-.97.91-2.95-.69-3.18-1.4.5-1.88,3.35-2.38,4.67-.01.58-.17,1.32-.39,1.86-.87,3.37-1.59,6.9-2.33,10.31-.38,2.3-1.48,4.59-1.81,6.88-.32,1.32-.45,1.3-.68,2.34.03.45-.23.97-.28,1.4-.18,1.11-.73,2.35-.77,3.48-.7,2.91-1.08,5.99-.95,8.98Z"/>
      <path class="cls-1" d="m129.08,59.45c-.07.9.24,1.95.49,2.75,1.36,1.14,3.03.28,4.36-.38.56-.68,1.56-1.03,2.03-1.81.61-.51,1.14-1.4,1.75-1.94.47-.41,1.09-1.27,1.56-1.59.65-.55,1.07-1.42,1.75-1.94,1.09-1.76,2.62-3.47,3.87-5.17.45-.46,1.01-1.06,1.2-1.69l-.17-.35-.43-.17-.47.12c-.64,1.13-1.65,1.87-2.26,2.96l-.08.03c-.57.78-1.43,1.64-2.06,2.37-.11.29-.41.64-.61.87-.24.25-.5.78-.83.91-.43.55-.97,1.24-1.46,1.74-1.01,1.29-2.69,2.05-3.61,3.35-.64.36-1.18,1.02-1.92,1.11-.27.21-.65.29-.97.4-.3-.87-.31-1.98-.22-2.89-.01-.44-.06-1.01.22-1.43.09-1.33.81-2.69,1.12-3.93l.32-.4c-.15-.3.26-.84.27-1.17.06-.62.71-1.5.72-2.12.46-.82,1.05-1.77,1.35-2.67-.04-.2-.14-.71-.23-.89-2.97-1.09-2.92,3.36-3.72,5.07,0,1.11-.66,2.3-.86,3.38-.24.66-.31,1.44-.48,2.12.02.32-.34.71-.33,1-.34.67-.28,1.62-.31,2.34Z"/>
      <path class="cls-1" d="m133.2,40.55c1.34-.45,1.55-2.21,2.41-3.2.53-.81,1.53-2.01,1.45-2.66-.11-1.09-1.04-1.72-2.1-1.05-.31.21-.66.92-.79,1.26-.4.57-.7,1.3-.86,1.98-.22,1.04-.73,2.7-.11,3.66Z"/>
      <path class="cls-1" d="m156.58,44.34c.41,3.55-.09,6.88,4.77,4.95.98-.46,1.8-1.2,2.73-1.69.47-.19.83-.69,1.16-1.02.57-.33,1-.94,1.37-1.47,2.5-2.45,4.73-5.06,6.72-7.92l-.08-.48c-.1-.12-.37-.24-.52-.28l-.45.16c-1.01,1.37-2.32,2.88-3.51,4.11-.26.54-.86,1.28-1.36,1.61-.21.41-1.22,1.39-1.55,1.73-1.16.7-5.54,5.44-6.51,3.53-.65-.48-.8-1.53-.83-2.29-.43-1.36-.43-3.06-2.22-3.28-1.38.19-2.33,1.27-3.22,2.24-1.36,1.55-2.18,3.56-3.17,5.33.27-1.41.4-3.07.98-4.44-.1-.24.22-1.04.28-1.26.05-.52.12-1.27.28-1.77.05-1.08.32-2.63.27-3.72.08-1.89-2.51-1.69-2.64-.11.52,1.45.7,3.31.31,4.81-.23,2-.76,4.27-1.22,6.2-.15.75-.46,1.78-.57,2.53-.26.93-1.07,3.01-.55,3.73,1.46,1.9,2.45-1.43,2.95-2.47.26-.75.89-1.65,1.12-2.4.28-.54.79-1.13,1-1.71.64-.76,1.06-1.78,1.6-2.62.35-.93,1.31-1.65,1.85-2.44.45-.43.85-.22,1.01.47Z"/>
      <path class="cls-1" d="m183.92,53.92c.96-3.38,2.18-7.49,3.07-10.95.4-1.12.67-2.51.99-3.66.5-.59,1.25-1.29,1.74-1.89.93.47,1.9.96,2.93,1.44.05-.47-.86-.83-.37-.98.53.35,1.1.43,1.52,1.01-.13-.37.3-.17.53-.3l.13-.36c.02.21-.04.31-.13.36l-.25.68.37.34s-.07,0-.11.01c4.37,1.83,9.63,3.98,14.92,3.93-.51.24.34-.07.44.14.87-.32,2.04-.16,2.92-.35l.05-.39.16.36c1.58-.22,3.03-.55,4.37-.97l-.3-.2c-.07-.62.33-1.01.24-1.56-5.84,2.63-12.85,1.25-18.43-.8-.04.18-.08.3-.25.08,0-.06,0-.12,0-.17-2.76-1-5.37-2.18-7.86-3.3,1.26-1.37,2.76-2.36,3.96-3.76,1.7-1.1,3.36-2.44,5.18-3.37l.23-.5-.22-.48-.54-.22c-1.2.56-2.45,1.38-3.47,2.19-.48.49-1.5.84-1.96,1.31l.05-.4c.23-.15.54-.32.91-.44-.55-.26-1.08-.52-1.59-.79-.19.15-.36.27-.15.68-.66-1.24-.65.57-1.05-.19-.26-.01-.26.14-.21.32.63.31,1.28.62,1.94.92-.82.75-2.06,2.08-3.11,2.75-.39.33-.89,1.06-1.3,1.39-.14-.06-.29-.13-.43-.19.15-1.38.05-2.96.46-4.31.12-.4.22-1.13.28-1.54.15-.36.16-1.03,0-1.39.05-.14.1-.31.18-.42-.47-.45-1.29-.6-1.76-.78.15.19.26.41.3.69-.38.14-.97.5-1.28.75-.86-6.01-6.23.32-7.76,2.78l-.08.03c-.45.49-.98,1.39-1.34,1.93-.4.59-1.01,1.19-1.33,1.83-.46.58-.74,1.43-1.1,2.07-.72,1.03-1.39,2.96-1.78,3.9-.41,3.86,2.7,2.2,4.54.62.81-.75,1.51-1.9,2.13-2.82l.08-.03c.37-.53,1.28-1.39,1.74-1.84.44-.59.97-1.48,1.58-1.92,1.18-1.41,2.28-3.29,3.8-4.35.14.99-.05,2.17-.14,3.15,0,0,0,0,0-.01-.34-.08-.62-.13-.86-.15-.19.5-.44.41-.38,1.4.65.13.53-.25,1.09-.08l-.24.54s.09.05.14.04c-.15.93-.36,2.25-.67,3.15-.4.36-.93.73-1.24,1.19-1.73,2.47-3.87,5.18-5.56,7.68-1.48,1.66-2.32,3.92-3.88,5.54-1.66,3.42-3.98,6.97-5.49,10.54-1.12,2.91-2.86,5.69-3.6,8.73-.76,2.37-1.6,5.36-2.28,7.75-.26,1.84-.4,3.89-.56,5.73-.15.81-.07,1.99-.03,2.82-1.21.36-2.44.8-3.68,1.01-.63-.07-1.32.48-1.77.88-.09.33-.21,1.03-.02,1.35,1.36,1.04,2.99-.58,4.31-.92-.64.84-1.37,1.82-2,2.68l-.12.04c-1.34,2.45-3.29,4.87-4.06,7.6-.78,3.6,3.82,2.91,5.74,1.62l.08-.17c.35-.25,1.14-.83,1.62-1.42.44-.38,1.15-.62,1.32-1.22l.23-.13c1.27-2,3.09-3.72,3.87-5.96,1.29-1.49,2.31-3.37,2.97-5.23.58-1.24,1.11-2.2,1.38-3.59,2.25-.95,4.53-2.52,7.19-2.06.25.87-.39,1.9.2,2.71.19.02.56-.24.71-.35.59-1.24,1.07-3.22-.73-3.68-.29.1-.21-.15-.72-.06l.04-.02c-1.82-.18-3.29.4-4.9.95-.33.31-.84.41-1.23.63,1.4-3.1,2.45-6.63,3.37-9.92,2.31-6.36,4.29-13.24,6.35-19.67Zm32.56-12.34l-.1.74c-.2-.33-.18-.52-.38-.85l.48.12Zm-31.76-13.38c-.17.87-.75,1.94-.24,2.78l-.09.13s-.14.05-.16.06c-.51.67-1.29,1.35-1.75,2.08-1.01,1.66-2.38,3.35-3.49,4.94-1.15,1.23-2.03,2.82-3.46,3.76-.03.06-.07.07-.07.07l.06-.21c.49-3.99,3.5-7.4,5.82-10.52.26-.32.77-.63,1.05-.94.55-.92,1.55-2.08,2.43-2.51l-.1.36Zm-16.96,63.07c-.15.24-1.09,1.46-1.38,1.43-.32-.64-.68-1.6-.65-2.4.56.11,1.2,0,1.73.26.1.12.46.37.42.6l-.12.1Zm-.88,3.96c-.41.87-1.1,1.89-1.68,2.65l-.29.1c-1.26,1.96-3.35,3.77-5.56,4.48-.15,0-.45-.13-.58-.21-.98-3.17,3.61-8.19,5.51-10.56.27,1.4,1.29,3.1,2.75,3.16-.06.08-.13.27-.15.37Zm2.71-6.21l-.56.69c-.41-.47-1.3-.7-1.87-.85.77-.6,1.96-1.21,2.9-1.47.14-.28.51-.42.77-.58-.4.8-.84,1.55-1.24,2.21Zm13.13-36.85c-.46,1.4-.7,3.13-1.34,4.48v.04c-.84,3.32-2.13,6.68-3.19,9.94-1.92,5.18-4.2,13.81-6.35,17.8-.84.56-1.88,1.13-2.77,1.64-1.35-.29-2.85.69-3.57,1.77.27-3.56.49-7.67,1.53-11.08.64-2.15,2-5.44,2.87-7.68.16-1.11.97-2.29,1.23-3.37,1.12-2.55,2.27-5.3,3.86-7.62,2.73-5.85,6.73-11.23,10.73-16.3-.66,1.71-1.08,3.97-1.6,5.69-.34,1.42-1.1,3.29-1.4,4.69Z"/>
      <path class="cls-1" d="m26.57,134.8c-.08-.85.81-2.18.76-2.88.14-.43.5-1.1.65-1.54.09-.58.23-1.69.48-2.26l-.03-.08c.55-1.91.88-4.23,1.53-6.13.3-1.6,1.16-3.23,1.34-4.85-.32-1.13-1.59-1.71-2.3-.97-1.01,2.25-1.2,5.17-1.61,7.55-.66,3.08-1.04,6.34-2.02,9.37l.02-.06c-.04.14-.15.41-.22.54l-.15.1c-.55,1.58-1.03,3.53-1.42,5.16-.39,1.41-1.79,5.26-2.36,6.66.04.59-.89,2.32-.84,2.91-1.14,3.04-2.4,6.67-3.06,9.84-.41,2.03-1.1,4.8-1.55,6.83l.03-.05c-.97,2.07-1.13,5.43-.18,6.65,2.82.24,1.34-3.36,1.5-4.68.4-1.77,1.04-3.78,1.21-5.59,1.22-4.28,3.05-8.91,3.94-13.27.54-2.21,1.4-4.52,2.12-6.67.53-1.69,1.37-4.98,2.15-6.58Z"/>
      <path class="cls-1" d="m90.81,122.6l.28-.52-.25-.7c-.48-.02-1.16.34-1.51.69-.6.36-2.08,1.46-2.54,1.95-2.16,1.5-4.18,3.53-6.63,4.6.14-1.03.53-2.38,1.07-3.31.08-.4.26-.98.56-1.27-.13-.36.1-.8-.08-1.13-1.27-1.01-2.62-.29-3.71.52-.68.75-1.2,1.77-1.93,2.47-.43.8-1.5,1.58-2.1,2.25-.63.77-1.44,1.81-2.24,2.39-.67,1.17-1.61,1.76-2.4,2.59-.8,1.06-2.22,1.86-3.12,2.76-.18-.28-.02-.63.09-.91-.01-.81.34-1.68.55-2.43.05-.23.18-.57.27-.79v-.04c.16-.3.45-.94.54-1.27l-.03-.08c1.2-2.05,2.38-4.51,4.09-6.22.58-.58,1.44-1.19,2.08-1.68,1.35-.54,4.27-1.35,3.1-3.22l-.58-.21s-.18.02-.24,0c-.39.07-1.21.26-1.56.43-.24.18-.58.44-.87.55-1.3,1.16-2.82,2.62-3.96,3.9-.5.77-.97,1.91-1.56,2.61-1.26,2.43-3.11,4.99-3.69,7.7-.84,4.41,1.61,4.48,4.4,1.88-.03-.2.4-.46.45-.54l.3-.06c.17-.19.53-.48.79-.52,0,0,.63-.69.63-.69,1.22-1.41,2.36-2.9,3.72-4.19.57-.71,1.45-1.66,2.09-2.29.78-1.08,1.99-2.22,3.11-2.94-.03.14-.25.67-.31.81h-.04c-.46,1.2-.79,2.71-1.18,3.92-.05.68.07,1,.36,1.63l.52.28c1.07.08,1.93-.56,2.64-1.29.89-.72,1.91-1.71,2.7-2.52.7-.71,1.6-1.51,2.44-2.09.7-.65,1.47-1.67,2.37-2.02.33-.4.9-.85,1.41-.98Z"/>
      <path class="cls-1" d="m123.74,114.37c.09-.41.41-.96.24-1.39,1.03-.71,2.38-1.52,3.52-2.07.86-.39,2.24-.69,2.53-1.71-.45-.61-1.38-.08-1.9.13-1.3.31-2.56,1.33-3.76,1.79-.14.12-.87.63-1.03.74-.43-.4-1.05-.83-1.54-1.16-.62-.28-1.62-.37-2.27-.61-1.02-.56-2.59-.96-3.43-1.77.91-.54,1.61-1.42,2.45-2.05,1.29-.96,2.77-1.94,3.82-3.15l.31-.16c.03-.06.13-.14.19-.25.44-.33.87-1.04.75-1.52l-.12-.47c-1.58-1.01-4.21.61-5.49,1.49l-.03.06c-1.18.74-2.73,1.79-3.46,3.12-.57.77-.83,1.7-.58,2.62-2.33,1.55-4.85,3.35-7.3,4.79-1.3,1.05-2.78,2.23-4.21,3.11-1.24-.02-2.64-.5-3.88-.58-.98-.08-1.74-.46-2.69-.51-.49-.72.52-1.41.91-1.96.94-1.2,2.85-1.83,4.28-2.39,1.07-.3,2.28-.25,3.37-.44.66.02,2.01-.19,2.59-.53.58-.78.36-1.58-.4-2.13-.25,0-.87-.09-1.12-.15-.27.09-.76.19-1.04.19-.52.18-1.14.51-1.69.57-3.16,1-6.46,2.29-8.23,5.18-1.27,2.15-.55,2.88,1.67,3.43,1.43.32,2.95.71,4.42.8-1.06.75-2.41,1.54-3.17,2.64-.42.44-1.28.72-1.52,1.3-.87.48-1.51,1.57-2.33,2.15-2.03,1.57-6.37,6.85-.55,5.49,1.6-.33,3.36-1.2,4.79-2.02,1.13-.58,2.41-1.26,3.46-1.96l.08-.17c2-1.22,3.71-2.48,5.1-4.22,1.25-2.06.97-3.99-1.68-4.36,1.93-1.69,4.01-3.16,6.29-4.66,1.02-.89,2.46-1.59,3.65-2.21.88.98,2.47,1.37,3.63,1.93,1.11.2,2.44.76,3.19,1.62-.61.47-1.67.76-2.23,1.28-.81.26-1.56,1.04-2.32,1.4-1.62.79-3.11,1.99-4.68,2.82-.54.41-1.29.64-1.85,1.04-.71.84-1.98,1.45-2.43,2.51.65,2.67,4.67-.75,6.19-1.09,2.01-.95,4.04-2.26,5.88-3.49.72-.48,1.54-.88,2.14-1.52.21-.2.74-.46.79-.75.21-.03.58-.61.7-.76Zm-18.76,4.04c.15.04.31.08.31.08.16,1.1-.29,1.25-.87,1.8-.55.92-1.73,1.57-2.6,2.15-1.44,1.22-3.42,2.45-5.13,3.26-.34.33-.93.48-1.39.51-.3.18-2.04.99-2,.36.42-.99,1.51-1.78,2.15-2.64,1.01-.93,2.35-2.45,3.54-3.15,1.07-1.17,2.47-2.11,3.84-2.97.69.19,1.49.36,2.17.6Zm10.89-11.9l-.29.24c.04-.67,1.18-1.69,1.79-2.23.96-.86,2.14-1.56,3.38-1.93-.63.88-2,1.59-2.71,2.38-.11.12-.39.25-.54.29-.2.26-.59.47-.81.71l-.83.53Zm4.97,8.68c-1.55.98-3.23,1.94-4.89,2.75,1.71-1.21,3.51-2.46,5.36-3.39-.14.24-.3.44-.47.63Z"/>
      <path class="cls-1" d="m152.71,91.72c.04-.1-.15-.44-.19-.53-.29-.14-.69-.42-.93-.64-.17-.04-.62-.16-.78-.23-1.94.05-3.65,1.57-5.03,2.76-.45.29-1.8,1.65-2.29,1.99-.83.59-1.95,2.15-2.61,2.53-1.2,1.7-3.06,2.95-4.04,4.86-.01-.04.21-.72.23-.78-.1-.54.15-1.5.04-2.06-.44-2.18-2.75-1.47-2.68.56-.16.64-.02,1.17.13,1.76-.06.78-.23,1.68-.08,2.44l-.17.94c.11.37-.02.88-.05,1.27-.32.29-.52.86-.77,1.21-.12.28-.42,1.02-.61,1.24-.18.41-.4,1.21-.74,1.52-.29.73-.77,1.45-1.11,2.17-.36,1.26-.96,2.57-1.4,3.8l-.11.09c-.33,1.05-.91,2.25-1.26,3.29-.17.76-.72,1.89-.91,2.6-.09.34-.09.87-.16,1.22-.18.3-.47.95-.36,1.29-.73,2.68-1.27,5.59-2.05,8.26.04.77-.07,1.96-.37,2.69.15.73.02,1.87-.27,2.56-.12,2.46-1.43,15.43,1.92,15.36.11-.06.34-.22.45-.3.34-.66.43-1.65.25-2.37-.04-.59,0-2.15-.03-2.77-.11-4.95,1.67-9.77,2.88-14.41v-.04c.15-.73.47-1.76.66-2.47l-.02-.04c.88-2.98,1.53-6.07,2.26-9.08v-.04c.3-.83.26-1.83.7-2.63.13-.97.44-2.56.66-3.54.18-.64.45-1.49.67-2.1-.03-.58.35-2.05.54-2.61v-.04c0-.17.18-.67.24-.83,1.78-.03,3.76-.06,5.44-.87.82-.34,2.11-1.41,2.74-1.79,1.01-.37,2.07-1.68,2.9-2.36.54-.34,1.05-1.03,1.5-1.48.42-.38,1.34-1.2,1.72-1.65,1.14-1.53,2.24-3.67,3.11-5.35.56-1.65.79-3.97-.02-5.42Zm-19.57,21.33c-.79,2.14-1.15,4.67-1.56,6.93-.58,2.36-1.41,4.93-1.92,7.34l.03-.06c-.09.27-.5,1.03-.31,1.32l-.3.57.07.2-.22.92s-.02.19,0,.28c-1.17,4.44-2.43,9.35-3.36,13.85-.19-2.5.54-5.48.64-7.94.09-.78.37-1.95.42-2.8.24-1.13.72-2.51.76-3.66.22-.72.2-1.6.61-2.27.03-.4.11-1.13.35-1.47-.08-.58.26-1.19.39-1.72.2-.83.7-1.97.92-2.84.33-.57.65-1.42.7-2.02.04-.16.32-1.17.36-1.29.23-.21.37-.44.31-.81.35-.93.74-2.03,1.16-2.93.47-.63.7-1.58,1.03-2.28l-.08.68Zm18.02-18.07c-.04.19-.27,1.87-.3,2.1-.46.7-.77,1.74-1.15,2.46l.03-.06c-.12.26-.42.8-.61,1.01l-.12.04c-.72.95-1.54,2.22-2.48,2.99-.41.54-1.06,1.32-1.68,1.63-2.32,2.36-5.81,4.24-9.2,4.18,0-.35.12-.82.23-1.15-.05-1.16.74-2.21,1.25-3.19.89-1.3,1.77-2.75,2.79-3.94.71-.57,1.34-1.64,2.02-2.22,1.25-2.03,3.3-3.52,5.05-4.99,0,0,1.18-.85,1.18-.85l.15-.1c.1-.02.57-.2.64-.28.04-.11.23-.21.32-.26.64-.1,1.48.05,1.79.7.02.19,0,.51.14.64-.05.33.05.97-.05,1.27Z"/>
      <path class="cls-1" d="m202.71,72.26c-2.73-3.05-7.18,3.37-9.22,4.89-.41.43-.68,1.2-1.21,1.51-.43.66-.89,1.56-1.53,2.04-1.47,2.27-3.22,4.56-4.53,6.94.09-.35.26-1.06.32-1.42l-.02-.04c.34-.88.59-2.59.86-3.38.18-1.36,1.46-2.73.99-4.17-.1-.53-.83-.87-1.55-.69-.19.07-.59.71-.71.86-.44.62-.43,1.66-.43,2.38-.14.75-.31,1.8-.28,2.56-.26,1.35-.49,2.83-.91,4.14-.34.8-.41,1.79-.62,2.64-.34,1.45-2.33,6.02.41,5.84,1.03-.35,1.16-1.81,1.43-2.7.32-1.08.88-2.39,1.37-3.38,1.09-2.19,2.33-4.46,3.47-6.65.65-.78,1.33-1.98,1.91-2.78.44-.4.91-1.16,1.27-1.62.05-.07,1.53-1.61,1.46-1.74,1.04-1.21,2.43-2.03,3.7-2.97.51,0,.82-.68,1.3-.75.32.43.57.95.84,1.41l.56.26c1.54-.25,1.61-2.02,1.11-3.19Z"/>
      <path class="cls-1" d="m241.62,52.67c-.44-.81-1.29-1.47-2.05-1.94-.04.02-.1-.01-.18.02-.33-.14-.84-.35-1.13-.56l-.29.1c-.18,0-.45-.16-.57-.3-.21-.03-.78-.11-.98-.01.04-.01-.01-.04-.07-.07-.78.07-2.32-.22-3.04-.05l-.32-.12c-.37.03-1.09.36-1.47.16-.19.05-.72.33-.93.25-.89.08-2,.23-2.86.44-.31.08-.59.28-.87.41-.29,0-.81.13-1.04.33-1.35.15-2.85.54-4.05,1.24-1.18.33-2.66,1.03-3.75,1.55.87-2.58,2.25-5.22,3.22-7.72-.15-.54-.57-1.07-1.14-1.21-.23.02-.62.21-.8.34-.22.4-.43,1.07-.62,1.48-.25.51-.62,1.14-.73,1.7v.04c-.05.44-.39.89-.43,1.32-.51,1.52-1.23,3.38-1.53,4.97-1.27.22-2.41,1.03-3.59,1.49-.45.29-1.27.95-1.81,1.03-1.44.66-3.04,1.71-4.55,2.17-.99,1.12-4.07,1.98-2.9,3.89,1.94,1.34,3.61-1.27,5.08-2.22,2.06-1.52,4.49-2.93,6.83-3.93l.02.18c-.41.99-.83,2.16-1.06,3.22l-.12.04c-1.11,4.26-2.65,8.57-3.98,12.77.01.04-.03.06-.01.1-.37,1-.46,2.17-.95,3.13.01.04,0,.14.03.22-.64,1.54-.98,3.21-1.51,4.77.01.04,0,.23.02.32-.15.47-.27,1.32-.27,1.81-.06.21-.24.62-.12.83l-.1.36c.18,1.36-.05,2.48.99,3.35.42.05.95-.02,1.36-.08.39-.08,1.55-1,1.87-1.24.58-.38,1.26-1.22,1.85-1.55.32-.57,1.05-1.14,1.45-1.64l.12-.04c.33-.64,1.04-1.31,1.51-1.85.03-.11.34-.25.45-.3.19-.17.45-.42.69-.53.22-.41.67-.83,1.09-1.09.15-.45.88-1.14,1.24-1.43.26-.38.67-.87.95-1.23.29-.38.86-.73,1.19-1.08.89-.97,1.74-2.25,2.57-3.26-.02-.19-.15-.53-.25-.7l-.32-.12c-.28.09-.61.31-.77.56-.41.27-.77.89-1.08,1.23-.63.94-1.97,1.57-2.38,2.63-1.71,1.46-3.27,3.51-5.04,4.9-.58.61-1.35,1.66-2.08,2.06-.24.38-.79.53-1.01.92-.64.57-1.3,1.26-2.09,1.64-.12-.31-.1-.71-.14-1.02.1-.35.18-.83,0-1.16.14-1.36.47-2.81.62-4.17.71-2.25,1.24-4.8,2.14-7,.28-.65.51-1.88.7-2.53.46-.87.62-1.91.88-2.82.79-2.59,1.88-5.41,2.57-7.99.14-.42.24-.85.53-1.22,0-.53.35-1.31.5-1.81,2.54-1.49,5.33-2.78,8.18-3.53.93-.47,2.13-.64,3.16-.87.76-.45,1.7-.42,2.54-.69.9-.17,1.79-.39,2.7-.24.59-.07,1.26-.31,1.87-.22.62.29,1,.02,1.56.22.17,0,.96.19,1.17.27h.04c1.09.37,1.97,1.3,2.63,2.23.11.21.4.78.67.82l.32-.02c.2-.62.21-1.51-.3-1.98Z"/>
      <path class="cls-1" d="m209.01,28.4c.08.01.21.02.41.04-.14,0-.27-.02-.41-.04Z"/>
      <path class="cls-1" d="m209.63,13.06s.02.01.02.02c.44.01.51-.01.54-.03-.03,0-.08,0-.1,0h0c-.35-.03-.41-.03-.47.01Z"/>
      <path class="cls-1" d="m209.94,28.38c.51.03.63.01-.04,0,.02,0,.03,0,.04,0Z"/>
      <path class="cls-1" d="m210.35,13.03c-.11,0-.13,0-.15.01.05,0,.1,0,.16,0,0,0,0-.01,0-.02Z"/>
      <path class="cls-1" d="m209.67,43.74c-.27-.01-.53-.04-.79-.06-.38.1-.31.04.79.06Z"/>
      <path class="cls-1" d="m209.7,43.71c-.06.05.07.05,0,0h0Z"/>
      <path class="cls-1" d="m193.32,16.23c.5.24,1,.48,1.52.72,0-.05,0-.1-.02-.16.07.16.12.21.25.26.18-.02.34-.45.65-.17.58,1.12,3.12,1.85,4.39,1.8.65-.06-.25-.86-.3-1.37-1-.36-1.97-.75-2.9-1.16h-.01s0,0,0,0c-.54-.24-1.07-.49-1.6-.74-.08.08-.16.15-.24.23-.05-.84-.52.16-.59-.49-.42.02-1.39-.12-.93.79l-.46-.3c-.06.07.04.34.25.6Zm6.14,1.02c-.15.3.59.73.07.75l.09-.04c-.06-.25-.29-.52-.16-.71Z"/>
      <path class="cls-1" d="m208.9,28.37c.61.06,1.35.04.95.01.02,0,.03,0,.05,0-.06-.01-.18-.02-.35-.04.76.07,1.44-.07,2.21-.17-.03-.25-.07-.48-.15-.66.22.26.44.41.6.19l-.07-.14c.3.15.52.29.73.4,1.16-.24,2.34-.56,3.54-.93l-.42-.53.35-.17c-.05-.24-.29-.29-.37-.34-.35.16-.36.86-.16,1.2l-.72-.78c-.21.36-.3.41-.68.15l.05-.37c-.06.03-.15.02-.24-.01-4.45,1.3-8.74.39-13.16-.94-.1.23.09.78-.29.21l.13.48c-.13-.24-.63-.43-.68-.04.23.15.59,1.19.76.51.03.26-.22.27-.41.3,2.57.85,5.36,1.47,8.44,1.7-.08-.01-.11-.02-.11-.03Zm5.01-1.74c.21.33.17.61-.09.74.2-.27-.24-.66.09-.74Z"/>
      <path class="cls-1" d="m200.78,25.15c-2.55-.8-4.97-1.8-7.02-2.82-.05.27-.04.59-.2.76l-.61-.4c.17.58-.15.53-.4.58.4.2.8.4,1.21.6l-.1-.21c.28-.04.68.58,1.06.67.02-.03.03-.08.02-.15.01.08,0,.13,0,.16.6.28,1.2.56,1.82.83l.32-.28.11.25c.9-.11,2.06.18,2.43-.07l.67.54c-.32-.62.38-.3.69-.45Z"/>
      <path class="cls-1" d="m190.69,21.78l.38.73c.23.12.46.23.69.35,0-.02.02-.03.03-.05.43.48.65-.57.78.32.11-.23.03-.88-.3-.9.48-.49.71.87,1.35.39-.77-1.19-2.69-1.57-3.55-2.39l-.12.16-.09-.3c-1.29-.58-3.4-1.14-3.03-1.41-.83-.25-1.83-.18-1.28.06.29-.12.66.01.64.16.01,0,.02.02.02.03.02,0,.04.01.07.02-.02,0-.04,0-.06.01-.02.15-.39.44-.57.14,0,0,0,0,0,0l.33.94.61.4v.1c.61.18,1.33.37,1.84.6l-.08-.23.53.35-.12.06c.48.25.97.49,1.46.74-.16-.65-.52-.27-.86-.68.41-.67,1.27,1.63,1.35.39Zm-3.49-1.71l-.53-.35v-.09s.54.35.54.35v.09Z"/>
      <path class="cls-1" d="m207.13,35.9c.29-1.22-1.11-.86-1.58-.96.07.6.55.71.74.88.28.03.56.06.84.08Z"/>
      <path class="cls-1" d="m185.38,19.21s-.08.04-.11.07l.03.14c.2.06.17-.06.08-.21Z"/>
      <path class="cls-1" d="m200.48,26.46c-.43-.78-.52-.28-.73-.05.23.08.47.17.7.25l.03-.2Z"/>
      <path class="cls-1" d="m199.07,26.17c.12.04.24.09.36.13l.03-.22c-.24-.21-.36-.11-.38.09Z"/>
      <path class="cls-1" d="m205.37,35.7c.29.05.58.08.87.12l-.75-.41c-.04.07-.08.18-.12.29Z"/>
      <path class="cls-1" d="m197.11,25.39l-.12-.26c-.12.01-.23.04-.34.07.15.07.31.13.46.19Z"/>
      <path class="cls-1" d="m220.46,33.3c-.08-.05-.16-.1-.22-.17l.23.15s0,.01,0,.02c.08.05.17.08.25.1.08-.04.15-.08.23-.11-.07-.06-.15-.11-.04-.22.39.26.47-.17.78-.15,2.21-1.39,4.64-2.49,6.85-3.18-.33-.32-.68-1.57-1.25-1.18l.81-.47c-.22.45.41.67.6.5l-.35-.53c.4.48.64-.22.41-.49-.37.15-.74.31-1.09.46-.1.28-.43.68-1.53,1.18l.19.41c-.12-.18-.28-.28-.42-.31-.11.05-.24.09-.36.15-.06.1-.07.25,0,.44l.31.11-.15.5.04-.27c-4.42-.13-10.92,5.18-16.66,4.26.06.79.31.76.87.84-.04.27.09.46-.24.71.08,0,.1,0,.04,0,.4.02,1.14-.02.5-.04.97-.04,1.9-.14,2.8-.27.01-.05.02-.12,0-.23l.06.22c1.3-.19,2.53-.47,3.67-.81.13-.18.27-.31.54-.17,1.08-.35,2.1-.75,3.06-1.19.02-.07.04-.15.06-.25Zm6.54-3.82l.04.32-.43-.48.4.16Z"/>
      <path class="cls-1" d="m262.26,35.17c.62.23.67-.52,1.06-.72-1.01-.4-1.83-.82-2.64-1.13v.09s-.43.03-.43.03l.32-.16c-4.89-1.63-10.06-3.37-16.06-2.51-.19.27-.42.46-.79.25.28.39.47.21.73.69l-.07.56c1.67-.13,3.19-.16,4.61-.1.13-.16.37-.14.38-.21l-.03.23c.19.01.38.02.57.04-.18-.21-.36-.35-.32-.71l.91.6c-.02.08-.05.13-.07.15,3.5.25,6.65,1.5,9.92,2.89,0,0,0,0,0-.01,0,0,0,.01,0,.02.13.05.28.1.41.14.26-.05.61.04.91.05.07-.07.17-.11.3-.05-.09.04-.19.05-.3.05-.06.06-.1.15-.13.24.28.1.55.21.82.32,0-.01.02-.02.02-.04,0,0-.06-.14-.14-.19l.38-.02s.02-.02.03-.03c-.12-.34-.29-.27-.42-.46Zm-17.16-3.24c-.14-.19-.62-.31-.41-.67.23.15.59.49.41.67Zm4.02-1.24c-.03.13-.08.57-.4.13.12-.31.25-.15.4-.13,0-.04.02-.05.03,0,0,0-.02,0-.03,0Z"/>
      <path class="cls-1" d="m286.31,26.81c-3.08-.05-5.83-.66-8.57-1.53-.12.19-.28.32-.58.19.04-.13.09-.24.15-.33-4.08-1.42-8.27-2.94-12.53-5.2l.06.26c-1.67-1.25-3.87-1.69-5.62-2.44l-.13.66c-.45-.4-.51.07-.96-.23.35-.07.22-.45.14-.74-1.79-.6-3.34-1.07-4.83-1.41,0,.02,0,.03,0,.05l.15.1c-.28.22-.32.59-.64.48l-.31-.81c-.24.18-.37.08-.47-.1-.12-.02-.23-.04-.35-.06.03.05.05.11.08.17l-.09-.17c-.44-.08-.89-.15-1.34-.2-.38.48-.73.19-1.11-.11-.55-.05-1.12-.07-1.71-.09-.16.1-.23.3-.06.72-.5-.63-1.21-.2-1.66.11l.06-.47c-.19-.31-.48.1-.47.34.03.03.06.06.08.1l-.08-.05s0-.03,0-.05c-.28-.26-.72.24-1.03-.23.29.01.33-.26.41-.44-2.64.09-5.45.78-8.33,1.7l.26.49c-.15-.1-.38-.25-.33-.02l-.39-.32c-4.9,1.51-6.06,3.27-10.65,4.38.03.08.01.15-.1.2l-.07-.16c-.39.06-.7.3-1.04.48.21.18.41.27.57.03l-.4.54.08.05-.68,1.57c.26-.11.53-.21.79-.32-.07-.1-.15-.2-.23-.33.58.59.2-.87.76-.1l-.35.35c.58-.23,1.15-.47,1.72-.7,0-.12.12-.25.32-.38,0-.08,0-.17,0-.26l.27.09c4.37-1.75,8.56-4.1,14.19-5.15l.02-.12.06.1c.14-.03.29-.06.43-.09-.06-.33.33-.3.6-.11,3.79-.65,6.26-.83,10.82.15.02-.03.04-.05.06-.05.02.02.04.05.05.07,1.02.22,2.09.49,3.21.82.06-.03.12-.04.18-.02,0,.03,0,.05,0,.07,1.89.54,4.05,1.32,5.95,2.04.23-.48.53-.67,1.28.07l-.18.35c6.78,2.5,12.12,7.42,20.26,7.56-.02-.01-.02-.03.02-.05-.16.02,1.76.11,1.62.13.81-.05.34-.54.32-.94.75-.36-.19-.57.3-.68Zm-39.92-10.38l.28-.22.2.34-.48-.12Zm2.03-.36l-.34-.53.49.02c-.02.19-.12.32-.15.5Zm13.73,3.58l-.03-.42.4.07-.38.35Z"/>
      <path class="cls-1" d="m284.04,28.35c.07.05.42.07,0,0h0Z"/>
      <path class="cls-1" d="m279.3,33.53c-.23-.06-.46-.13-.69-.2l-.03.21c.24.3.49,0,.72-.01Z"/>
      <path class="cls-1" d="m269.05,29.09c-6.68-2.62-11.89-5.49-20.55-6.07v.02s-.42.02-.42.02l.21-.06c-4.54-.2-8.45.74-13.27,2.26,0,.15,0,.3,0,.48l-.19-.42c-.11.04-.21.07-.32.1.06.28.05.59.02.8-.86-1.59-.43.41-.92.52.3.04.62.14.84.04l.11.33c.14-.05.28-.11.42-.16-.15-.36-.26-.78.07-.97.24.21.3.53.37.8.36-.13.72-.26,1.08-.38-.07-.08-.13-.16-.15-.26l.59-.11c.07.24-.15.2-.22.29,9.48-3.66,21.58-1.41,29.86,4.11.01-.02.03-.02.08.03.13-.32-.2-.34-.26-.57l1.31.07c-.04.28-.08.65-.27.82l.05.06c.47.18.94.36,1.4.55.03-.26.14-.58-.51-.79-.01.09-.04.28.03.42-.46-.3-.05-.23-.42-.58l.34-.07c-.13-.29-.35-.44-.24-.67.64.79,1.11-.67,1.74,0l-.08-.11s.06-.01.09-.01c-.28-.17-.55-.33-.81-.5Zm-12.17-3.81l-.09-.56c.19.43.54.26.68.46-.17-.01-.3.4-.59.11Zm5.66,2.15c-.14-.52.33-.27.39-.36l.06.66-.45-.3Z"/>
      <path class="cls-1" d="m285.14,20.85c-.4-.03-.56-.06-.57-.08-.05.03-.31.04.57.08Z"/>
      <path class="cls-1" d="m272.68,32.88s.03.01.05.02v-.03s-.04,0-.05,0Z"/>
      <path class="cls-1" d="m281.14,18.7c.1.16.21.28.36.21-.18.17-.36-.03-.53-.25-4.03-.88-8.18-2.83-13.28-4.7-.27-.53-.75-.59-1.18-1.06.03,0,.05,0,.08,0-2.39-1.58-5.36-2.54-8.21-3.48l-.08.04s0-.05-.01-.07c-2.48-.74-5.22-1.35-7.83-1.64.02.04.04.08.06.11l.14.05c-.06.03-.1,0-.14-.05l-.17-.06s0-.04,0-.06c-.37-.04-.74-.07-1.1-.1l-.05.1s-.05-.07-.08-.11c-.66-.05-1.32-.07-1.95-.06.12.1.25.18.39.08.07.75-.69.25-.46,1,.14.19.25-.03.39.16-.02.12-.07.25-.07.38.08,0,.15,0,.23,0l.04-.05s-.01.04-.02.05c.09,0,.18,0,.27,0l-.32-.81.39.16-.02.65c3.29.1,6.92.67,10.12,1.96.29-.32.56-.76,1.05-.74.17.9.5-.95.88.88-.42-.58-.7-.36-.91,0l.15.1c-.07.07-.13.13-.18.18,9.32,2.76,15.63,8.48,25.48,9.16.15-.02,2.32-.2,1.81-.8.68-1.16-4.34-.75-5.25-1.26Z"/>
      <path class="cls-1" d="m243.72,30.89c-.08.01-.16.02-.23.03l.13.33c.04-.1.08-.23.11-.37Z"/>
      <path class="cls-1" d="m219.55,16.64l.17.38c.09-.04.12-.1.13-.18.04.18.13.32.34.39.25-.04-.07-.75.38-.36-.19,1.97.45-.1.98.75-.04-.09-.05-.16-.08-.19.11.03.25.15.36.27,1.65-.67,3.33-1.42,5.12-2.18,3.6-2.4,8.41-4.41,13.92-5.71-.02-.02-.04-.02-.04,0-.06-.15-.14-.19-.11-.37.18.29.43.02.44.31.07-.01.14-.03.21-.04.1-.16.15-.36.13-.57-.07-.05-.17,0-.24-.06l.29-.31.03.42c-.04-.33,1.13.24.74-.61l.32.71c.05-.37.5-.07.76-.1-.38-.25-.01-.51-.07-.75.52.45.96-.37,1.38-.39-.02-.19-.07-.29-.13-.35-4.19.41-8.41,1.6-11.92,2.92.05.26.21.73-.17.48.1-.05.01-.25-.01-.41-2.74.99-4.27,1.85-6.68,3.18,0,.11.06.24.16.43-.64-.12-1.07,0-1.45.35-.06-.07-.11-.14-.16-.21-.37.17-.74.34-1.11.51.03.19.08.41-.3.36.06.33.34.25.53.35-.33-.06-.67-.18-.99-.36-.16.07-.32.15-.48.22,0,.02,0,.04,0,.07-.15-.04-.27.08-.41.12-.12.23.05.67-.51.57,0,.02.02.04.03.06.15.08.31.21.43.24-.16.07-.35-.04-.43-.24-.17-.09-.31-.12-.3.15l-.2-.34c-.25.11-.51.23-.76.34,0,.04,0,.08,0,.11-.01-.03-.02-.07-.04-.1-.08.03-.16.07-.24.1Zm3.21.49c-.16,0-.22-.25-.34-.53l.46.3c.05.23-.02.18-.11.23Zm.19-.78c-.23-.15-.46-.3-.56-.77.18.52.69.46.56.77Zm-.73.52c.25.57-.23.46-.4.54l-.19-.43.6-.11Z"/>
      <path class="cls-1" d="m233.66,25.72c-.66.23-1.32.46-1.97.7.34.43.48,1.06.88,1.55.22-.1.45-.2.69-.31,0-.63-.18-.38.31-.45,0-.22-.04-.36-.09-.47,0,0,0,0-.01,0,0,0,0,0,.01,0-.24-.24-.16-.77.18-1.02Zm-1.79.66l.42-.03.03.42-.44-.39Z"/>
      <path class="cls-1" d="m243.34,32.36c.14-.01.28-.02.41-.04-.17-.03-.3-.01-.41.04Z"/>
      <path class="cls-1" d="m241.8,31.22c-.41.08-.82.17-1.23.26l.2.1-.59.11v-.12c-.61.14-1.2.29-1.78.45.1.47.26.56.53.35l-.13.96c.32-.1.64-.19.97-.28,0-.04,0-.08,0-.13.35-.17,1.22-.5,1.4-1.19.17.61.69-.24.89.79.7-.42-.43-.62-.25-1.3Z"/>
      <path class="cls-1" d="m246.66,7.58c-.1,0-.2,0-.3,0-.06.28-.16.51.31.58v-.59Z"/>
      <path class="cls-1" d="m185.27,4.71c.17.29,1.21.57,1.94.84l-.06-.08c.33.01.64.12.55-.44l.63.82c.08-1.25,1.13.85,2,.52.05.12-1.06.06-.55.44-.14.05-.29.05-.45.04.51.3,1.04.59,1.6.9l-.53-.63.47.21-.17-.61.23.15.04.9c2.21,1.19,4.8,2.38,7.76,3.34v-.09c2.95,1.2,6.5,1.73,10.32,2-.23,0-.41.04.05.1l.02-.13-.02.13c.08.01.17.02.29.03h-.04s0-.08,0-.1c-.04,0-.08,0-.13,0,.05,0,.09,0,.13,0,0,0,0,0,0,0,0,0,0,0,0,0h0c.03-.13.12-.11.25-.02.18-.01.37-.02.55-.04l.66-.88-.08-.05c.44-.52,1.47-.16,1.68-.86-3.12.68-6.24.12-9.34-.62l.3.49c-.23-.27-.73.21-.86-.53.11.04.17.01.2-.05-4.9-1.28-9.5-3.49-12.58-5.29-.09.31-.1.72-.5.32.67.14.27-.24.03-.6-.75-.6-3.18-1.2-2.59-1.55-.66-.39-1.75-.17-.95.28-1.3.44-1.79.76-.83,1.07Zm14.29,6.06l.1-.02s-.04.04-.1.02l-.58.13c0-.47.39-.19.58-.13Zm-8.67-4.32l-.49-.63c.24.06.68.45.49.63Zm-4.67-2.19v.09s-.42-.07-.42-.07l.42-.02Z"/>
      <path class="cls-1" d="m236.52,17.06c-.06.02-.12.04-.18.06.1.07.18.1.18-.06Z"/>
      <path class="cls-1" d="m265,35.17c-.14.59-1.11-.14-.85.66-.36-.44-.6-.49-.9-.7-.09.12-.33.28-.57.5,0,0,0,.02.01.03h-.04c-.08.08-.16.17-.24.26.26.33,1.87.27,1.53.27-.01.1-.07.19-.12.3,1.51.67,3.33,1.3,4.96,2.19.34-.2.83-.28,1.04-.71.21.31.48.29.75.16-1.03-.44-2.05-.89-3.05-1.35-.22-.49-1.26-1.06-2.52-1.62Z"/>
      <path class="cls-1" d="m212.58,11.69c.46.3.83-.05.97-.46.04.33.27.48.12.98.87-.3-.54-1.41,1.35-.81l-.45.3.31.38c.17-.05.35-.1.53-.15.06-.1.08-.22,0-.38l-.08-.05c.34-.07,1.33-.02,1.06-.5.27-.25.36.25.49.48.18-.06.36-.12.55-.18-.17-.23-.36-.44-.53-.36l.43-.12.2.44c.47-.16.95-.33,1.43-.5-.04-.03-.07-.07-.12-.14.21-.02.36-.09.51-.15-.07.05-.12.15-.18.22,1.74-.63,3.54-1.34,5.48-2.04l-.32-.21c.18-.08.39-.44.52-.16l-.09.04.16.24c.19-.07.38-.14.57-.2l-.05-.18.5-.07s0,.06,0,.09c11.15-5.62,22.95-9.66,36.66-3.02-.04-.07-.07-.17-.14-.18.1-.07.25-.17.39.06-.06.09-.1.14-.14.16.69.28,1.34.58,2.01.88.03-.08.06-.16.09-.24-.03-.02-.05-.04-.07-.06l.08.05s0,0,0,0c.83.7,1.3-.39,2.02-.35-2.57-1.58-7.34-3.15-11.15-4.3l.19.43c-.39-.76-.34.07-.57-.08l-.19-.43s.06-.04.09-.06c-8.29-2.59-18.37-.04-25.31,3.38.02.04.05.11.07.19-.09.12-.31.23-.56.04-.08.04-.16.07-.23.11.34.19.69.43.87.59-.44.21.13.89-.4,1.14l-.18-.52c-.21.36-.67.66-1.04.42l.11.37-.78-.32c-.1-.13.24-.59.15-.91-5.27,2.03-10.6,4.79-15.38,5.62.15.16.35.34.09.51ZM254.63,1.61c.06-.08.13-.04.19,0,.05,0,.09.02.12.1-.03-.02-.08-.07-.12-.1-.04,0-.09.03-.15.07l.16.26-.4-.06c.08-.04.16-.13.25-.19l-.05-.08Zm-20.82,1.36c.38-.35,1.29.85,1.63.18.14.8-.43.12-.45.91-.36-1.04-.68.15-1.19-.39.02-.19.06-.46,0-.7Zm-.27.82l-.09.04-.17-.61.25.57Zm-5.46,3.21c-.09.04-.25.03-.2.27-.07-.75-.43.11-.67-.55l.87.28Z"/>
      <path class="cls-1" d="m185.94,20.35l-.66-.75h-.07c.09.15.25.27.16.39.01.12.24.24.57.36Z"/>
      <path class="cls-1" d="m200.96,18.44c.1-.3.18-.45.21-.68-.43-.13-.84-.28-1.26-.42l.64.43-.26.13c.41.07.24.66.67.55Z"/>
      <path class="cls-1" d="m249.94,32.13l.05.1c.11,0,.22.02.32.03-.1-.08-.22-.25-.37-.13Z"/>
      <path class="cls-1" d="m221.07,25.38c.87-.34,1.74-.69,2.61-1.04-.14-.07-.27-.32-.3-.57-.3.4-.72-.18-1.03.32l.07-.55c-.71-.27-.1.74-.98.55l.27.48-.38-.25c-.05.37.17,1.21-.36.86l.1.2Z"/>
      <path class="cls-1" d="m230.1,29.27c.13-.08.25-.16.39-.23-.09-.02-.18-.05-.27-.13,0,.18-.05.29-.12.37Z"/>
      <path class="cls-1" d="m221.58,40.58c.1-.05.21-.1.31-.16-.06-.05-.13-.09-.19-.12-.11.07-.13.16-.12.27Z"/>
      <path class="cls-1" d="m225.68,38.24l.08.11c4.31-1.6,8.91-3.65,12.98-5-.18-.31-.91-.35-1.17-.08-.06-.14-.38-.25-.19-.43.32.11.73.08.79-.38-.07-.17-.17-.26-.28-.31-.64.2-1.21.42-1.86.58l.04.04c-5.61,2.01-9.79,4.12-15.12,6.22,0,.01,0,.02,0,.03.35-.17.58-.02.87.28l-.25.03c-.01.09.06.14.14.19l-.58.02c.2.34.48.12.39.76.05-.03.11-.02.17,0,.02-.01.05-.03.08-.04.04.05.07.11.12.15.45-.23.89-.46,1.32-.7-.12-.28-.31-.66.2-.57.15.15.13.26.13.39.74-.37,1.37-.92,2.13-1.16-.18-.25-.34-.55-.16-.75.76.5.49-.58,1.06-.5-.06.46-.59.71-.89,1.12Zm-3.57,2.05l-.09-.56.22.24-.13.32Zm6.52-3.71c-.39.44-.46,1-1.14.55-.12-.98.93-.19,1.14-.55Z"/>
      <path class="cls-1" d="m216.71,26.94c.72-.23,1.45-.48,2.18-.74-.07-.02-.12-.05-.1-.16l.09-.04c-.42-.58-.57-.68-1.01-.47l.13.38c-.14-.25-.54-.41-1.03-.48l.06.14-.13-.18c-.13.04-.26.09-.39.13,0,0,.02.02.03.03-.33.28-.02.84.17,1.39Z"/>
      <path class="cls-1" d="m218.95,41.75c-.19-.14-.38-.2-.56-.22,0,0,0,0,0,.01h0c-.32-.04-.61.08-.84.15.09.12.07.33.05.55.47-.15.92-.32,1.36-.49Z"/>
      <path class="cls-1" d="m218.88,40.96c.05-.37-.24-.66-.38-.85l.26-.16c-.5.21-1,.42-1.5.61.18.1.34,0,.68-.01l.44.99h0c.04-.27.16-.58.49-.57Z"/>
      <path class="cls-1" d="m229.92,29.37c-.27.07-.66-.05-.93.02-.04.1-.07.18-.11.24.29-.1.66-.15,1.03-.26Z"/>
      <path class="cls-1" d="m220.57,25.57c.1-.04.2-.08.3-.11-.08-.09-.17-.15-.26-.11-.03.06-.04.14-.04.23Z"/>
      <path class="cls-1" d="m284.13,43.68s0-.04.04-.06c-.1,0-.21,0-.33,0,.13.02.22.04.29.06Z"/>
      <path class="cls-1" d="m285.41,42.89c-.04-.32.33-.77.33-.75-1.01-.02-2.03-.11-3.06-.26-.39.49-.53,1.55-1.45.95l.34.53s-.05,0-.08,0c.91.13,1.82.22,2.74.24-.03.01-.05.02-.07.03,1.11,0,1.12-.05.88.02,1.19.05,1.12-.22.36-.75Zm-2.09-.19c-.09.04-.19.18-.41-.07l.46-.3.21.94-.25-.57Z"/>
      <path class="cls-1" d="m287.36,35.22c-1.69-1.11-2.44-.44-4.19-.84,0,0,0,0,0,0-.27-.04-.54-.08-.82-.13,0,.03,0,.06,0,.09-.03-.03-.04-.07-.04-.1-.94-.17-1.92-.4-2.9-.67.07.04.14.12.2.26-.17,0-.19.18-.29.31,0,.7.46.3.53.95-.06.46-.3-.2-.46-.3-.32-.5-1.06-.65-.83-1.47-.46-.14-.93-.29-1.39-.44,0,.01-.01.02-.01.03-.37-.05-.76-.37-1.17-.45l.11.35c-.34-.16-.46-.3-.58-.53-.17-.07-.34-.13-.51-.2-.15.16-.26.16-.48.09.05-.11.13-.15.18-.21-.15-.06-.3-.12-.45-.19-.12.09-.18.24,0,.52-.46-.9-1.31-.07-1.47-.77-.32-.11-.11.23-.07.56-.22-.24-.3-.2-.47-.21l.07-.55c-.58-.59-.05.37-.67.06-.05-.42-.02-.63.04-.77-.59-.3-1.15-.6-1.67-.91.05.18-.01.52.27.77-.67-.55-.82.56-1.3.44.13.29.3.2.46.3v.4c1.01.4,2,.79,2.96,1.16-.01-.12-.06-.27-.14-.39l.43-.12.09.56c.35-.17.65-.58,1.06-.51.44.92-.02.76-.42.85,3.79,1.49,7.8,2.73,10.55,2.82,1.17.03.81.15,2.37-.06-.08-.04.14-.34.99-.71Zm-16.11-3.72c-.21.17-.23-.05-.32-.24-.05-.02-.1-.07-.13-.15.06.04.1.09.13.15.17.08.42-.08.32.24Zm.19.43c.01-.09.11-.23-.03-.42l.34.53-.31-.11Zm12.2,3.27c-.13-.89.52-.86.96-.37-.02.79-.61.2-.96.37Z"/>
      <path class="cls-1" d="m284.13,43.68c.03.05.28.06,0,0h0Z"/>
      <path class="cls-1" d="m241.81,17.39c.1-.02.19-.04.29-.06-.12-.12-.22-.18-.29.06Z"/>
      <path class="cls-1" d="m263.27,20.59c.16.06.32.12.47.18l.05-.35c-.12.12-.44.02-.52.17Z"/>
      <path class="cls-1" d="m268.77,7.68c3.53,2.38,9.98,4.99,15.82,5.33-.99,0-.71.05.84.04,0,.08.27-.09.17.04,1.35-.13,1.17-.4-.19-.92,1.35-.25,1.57-.66-.81-.6-5.3.04-10.07-2.08-14.8-4.34-.1.04-.2.04-.3.01l.06.14c-.47-.21-.94-.41-1.1.18l-.41-.67-.38.35c-.19-.43.58-.02.18-.69-.54-.3-.8.09-1.13.4.61.25,1.28.49,2.04.73Z"/>
      <path class="cls-1" d="m264.5,35.05s-.03-.09-.04-.12c-.14-.06-.29-.12-.43-.18.08.19.2.34.48.31Z"/>
      <path class="cls-1" d="m284,35.99c-.08,0-.16,0-.25,0-.1.02.11.01.25,0Z"/>
      <path class="cls-1" d="m192.84,14.19c-.31-.16-.62-.31-.92-.47-1.15.29-1.1,1.61.15,1.88.12-.46.42-.75.1-1.27.32.11.5,0,.67-.14Z"/>
      <path class="cls-1" d="m217.84,18.19l.09-.65c-.08-.05-.14-.12-.19-.15-.23.09-.47.18-.7.26.32.4.74-.15.8.53Z"/>
      <path class="cls-1" d="m209.55,20.64c-.23,0-.41.06-.59.09-.13,0-.99.01-.28.07.28.01.56.01-.01,0-.11-.06.73-.04.88-.05-.05,0-.1,0-.15-.01,1.27-.04.88.02.46-.09,3.53-.17,6.49-.91,9.36-1.92-.04-.02-.08-.05-.12-.09.17,0,.21-.36.35-.77-.71-.27-.97-.15-1.44.25l.27.48c.29.3.13-1.01.59-.11-.03.76-.59.14-.81.23l-.08.29c-.01-.19.02-.26.08-.29l.06-.22c-.59-.49-.84.14-1.19.22.06.5.69-.11.6.5-.28-.05-.88-.83-1.09-.52.05.23.22.24.36.43l-.49-.03.07.14-.61-.4.12.38c-.28-.19-.32-.83-.52-.98-.09.03-.19.06-.29.09-.17.3-1.12.44-1.28,1.02l-.26-.57c-.07.25-.28.22-.53.07-.37.07-.75.14-1.13.2-.02.03-.03.07-.04.11l-.07-.1c-1.52.26-3.17.2-4.68,0,.01.03.03.06.04.09l-.51-.08c-.07.06-.16.07-.3-.05l.3.05s.03-.03.04-.05c-.47-.06-.93-.13-1.39-.21-.02.3.14.56.2.96.08.05.16,0,.1-.13l.19.43c-.21,0-.43.04-.64.11,1.4.24,2.87.41,4.4.49Zm5.96-1.69c-.02.19,0,.6-.23.45-.19-.43,0-.6.23-.45Zm-5.64.78l-.05.37c-.39-.16-.75.71-1.03.32.81.13.17-1.29,1.08-.69Zm-3.35.39l-.57-.68c.39.16.36.44.57.68Z"/>
      <path class="cls-1" d="m221.11,18c.19-.07.37-.15.56-.22-.29-.08-.45.03-.56.22Z"/>
      <path class="cls-1" d="m186.53,35.76c.09.03.18.05.26.08v-.08c-.1,0-.18,0-.26,0Z"/>
      <path class="cls-1" d="m219.01,40.55c.14.46.06.77.15,1.11.35-.14.7-.29,1.04-.44-.25-.19-.56-.35-.8-.51-.13.32.53.35.27.48.04.33-.42-.58-.66-.64Z"/>
    </g>
  </g>
</svg>