<?xml version="1.0" encoding="UTF-8"?>
<svg id="_レイヤー_2" data-name="レイヤー 2" xmlns="http://www.w3.org/2000/svg" viewBox="0 0 142.58 164.49">
  <defs>
    <style>
      .cls-1 {
        fill: #fff;
      }

      .cls-2 {
        fill: #c7161d;
      }
    </style>
  </defs>
  <g id="_モバイル" data-name="モバイル">
    <g>
      <polygon class="cls-1" points="47.4 162.1 47.68 158.79 46.3 158.79 46 162.1 47.4 162.1"/>
      <path class="cls-1" d="m45.21,154.86h2.21v-1.57l.57.42v-2.07l-2.95-2.16h-1.28l-2.9,2.16v2.07l.44-.33v1.48h2.19v1.68h-2.63v1.67h2.63v4.32l-2.63.18v1.63l6.94-.5v-1.61l-2.58.2v-4.21h2.58v-1.67h-2.58v-1.68Zm-3.72-1.63l2.92-2.18,2.93,2.18h-5.86Z"/>
      <polygon class="cls-1" points="51.56 154.9 49.86 154.9 50.74 160.99 52.47 160.99 51.56 154.9"/>
      <polygon class="cls-1" points="42.4 158.79 41.02 158.79 41.3 162.1 42.68 162.1 42.4 158.79"/>
      <polygon class="cls-1" points="50.96 149.48 49.19 149.48 47.78 155.43 49.5 155.43 50.32 152.1 53.77 152.1 53.77 162.63 51.25 162.63 51.25 164.34 55.48 164.34 55.48 150.36 50.74 150.36 50.96 149.48"/>
      <path class="cls-1" d="m66.91,150.68c-.93,0-1.83.39-2.66,1.17-.56.52-1.05,1.13-1.47,1.83.12-.92.29-1.97.51-3.13l.05-.25h-2.35l-.03.17c-.25,1.57-.43,3.25-.52,5,0,1.84.05,3.26.16,4.25l.02.19h2.22l-.04-.44c-.03-.3-.04-.64-.04-1,0-.86.05-1.18.09-1.31.15-.52.43-1.13.83-1.81.4-.68.88-1.29,1.44-1.8.54-.49,1.1-.75,1.66-.76.67.03,1.16.42,1.5,1.19.36.81.52,1.98.48,3.49.01.98-.18,1.83-.58,2.52-.4.69-1,1.25-1.78,1.64-.88.43-2.04.69-3.44.76h-.2v2.1h.21c1.69-.04,3.16-.35,4.37-.93,1.22-.58,2.16-1.4,2.79-2.45.63-1.04.95-2.27.95-3.65,0-2.24-.34-3.94-1.01-5.05-.69-1.15-1.76-1.73-3.16-1.73Z"/>
      <path class="cls-1" d="m76.31,153.97c0,2.59-.42,5.12-1.25,7.52-.39,1.04-.68,1.78-.86,2.2l-.12.29h2.69l.05-.13c.36-.85.68-1.7.94-2.52.26-.83.48-1.82.66-2.96.19-1.3.28-2.78.28-4.4v-3.49h-2.4v3.49Z"/>
      <path class="cls-1" d="m85.59,146.72c-.66,0-1.24.21-1.7.64h0c-.47.44-.71.98-.71,1.59s.23,1.12.67,1.54h-1.39v3.49c0,2.8.35,5.36,1.05,7.6.26.85.59,1.62.98,2.3l.06.1h2.54l-.13-.29c-.74-1.7-1.31-3.55-1.71-5.49-.26-1.33-.4-2.75-.4-4.22v-2.91c.23.06.47.1.73.1.66,0,1.24-.21,1.71-.64.48-.43.72-.96.72-1.57s-.24-1.15-.72-1.58c-.47-.43-1.05-.65-1.71-.65Zm.57,2.71c-.31.27-.84.27-1.13,0-.14-.13-.21-.29-.21-.48,0-.21.07-.37.21-.5.15-.13.33-.2.56-.2s.42.07.57.2c.15.13.22.29.22.5,0,.19-.07.35-.22.48Z"/>
      <path class="cls-1" d="m101.77,161.51c-.88-.7-1.6-1.33-2.13-1.87-.51-.53-1.12-1.24-1.8-2.12.75-1.07,1.41-2.18,1.94-3.3.56-1.17.94-2.25,1.15-3.22l.05-.25h-10.74v2.18h7.51c-1.11,2.72-2.86,5.1-5.21,7.08-1.03.83-2.01,1.49-2.93,1.98l-.11.06v2.44l.29-.12c.51-.22,1.12-.54,1.8-.95.68-.41,1.38-.91,2.09-1.48.81-.64,1.73-1.51,2.73-2.6.85.98,1.67,1.86,2.44,2.6.82.79,1.72,1.52,2.67,2.17l.33.22v-2.75l-.08-.06Z"/>
    </g>
    <g>
      <path class="cls-1" d="m0,133.24h6.43v1.95H2.39v2.4h3.78v1.94h-3.78v4.23H0v-10.52Z"/>
      <path class="cls-1" d="m11.13,133.24v10.52h-2.39v-10.52h2.39Z"/>
      <path class="cls-1" d="m13.78,141.31c.64.33,1.62.66,2.64.66,1.09,0,1.67-.45,1.67-1.14s-.5-1.03-1.76-1.48c-1.75-.61-2.89-1.58-2.89-3.11,0-1.8,1.5-3.17,3.98-3.17,1.19,0,2.06.25,2.69.53l-.53,1.92c-.42-.2-1.17-.5-2.2-.5s-1.53.47-1.53,1.01c0,.67.59.97,1.95,1.48,1.86.69,2.73,1.66,2.73,3.14,0,1.76-1.36,3.26-4.25,3.26-1.2,0-2.39-.31-2.98-.64l.48-1.97Z"/>
      <path class="cls-1" d="m25.03,133.24v4.04h3.92v-4.04h2.37v10.52h-2.37v-4.4h-3.92v4.4h-2.39v-10.52h2.39Z"/>
      <path class="cls-1" d="m36.3,133.24v10.52h-2.39v-10.52h2.39Z"/>
      <path class="cls-1" d="m38.88,143.76v-10.52h2.78l2.19,3.86c.62,1.11,1.25,2.42,1.72,3.61h.05c-.16-1.39-.2-2.81-.2-4.39v-3.07h2.19v10.52h-2.5l-2.25-4.06c-.62-1.12-1.31-2.48-1.83-3.71l-.05.02c.06,1.39.09,2.87.09,4.59v3.17h-2.19Z"/>
      <path class="cls-1" d="m58.95,143.28c-.73.25-2.12.59-3.51.59-1.92,0-3.31-.48-4.28-1.42-.97-.91-1.5-2.28-1.48-3.82.02-3.5,2.56-5.49,6.01-5.49,1.36,0,2.4.26,2.92.51l-.5,1.9c-.58-.25-1.3-.45-2.45-.45-1.98,0-3.48,1.12-3.48,3.4s1.36,3.45,3.31,3.45c.55,0,.98-.06,1.17-.16v-2.2h-1.62v-1.86h3.92v5.54Z"/>
      <path class="cls-1" d="m65.3,133.36c.66-.11,1.51-.2,2.61-.2,1.34,0,2.33.31,2.95.87.58.5.92,1.26.92,2.2s-.28,1.7-.81,2.25c-.72.77-1.89,1.16-3.22,1.16-.41,0-.78-.02-1.09-.09v4.21h-1.36v-10.4Zm1.36,5.07c.3.08.67.11,1.12.11,1.64,0,2.64-.8,2.64-2.25s-.98-2.06-2.48-2.06c-.59,0-1.05.05-1.28.11v4.09Z"/>
      <path class="cls-1" d="m75.82,140.45l-1.09,3.31h-1.4l3.57-10.52h1.64l3.59,10.52h-1.45l-1.12-3.31h-3.73Zm3.45-1.06l-1.03-3.03c-.23-.69-.39-1.31-.55-1.92h-.03c-.16.62-.33,1.26-.53,1.9l-1.03,3.04h3.17Z"/>
      <path class="cls-1" d="m83.99,142.11c.61.37,1.5.69,2.44.69,1.39,0,2.2-.73,2.2-1.79,0-.98-.56-1.55-1.98-2.09-1.72-.61-2.78-1.5-2.78-2.98,0-1.64,1.36-2.86,3.4-2.86,1.08,0,1.86.25,2.33.51l-.37,1.11c-.34-.19-1.05-.5-2-.5-1.44,0-1.98.86-1.98,1.58,0,.98.64,1.47,2.09,2.03,1.78.69,2.68,1.54,2.68,3.09,0,1.62-1.2,3.03-3.68,3.03-1.01,0-2.12-.3-2.69-.67l.34-1.14Z"/>
      <path class="cls-1" d="m92.2,142.11c.61.37,1.5.69,2.44.69,1.39,0,2.2-.73,2.2-1.79,0-.98-.56-1.55-1.98-2.09-1.72-.61-2.78-1.5-2.78-2.98,0-1.64,1.36-2.86,3.4-2.86,1.08,0,1.86.25,2.33.51l-.37,1.11c-.34-.19-1.05-.5-2-.5-1.44,0-1.98.86-1.98,1.58,0,.98.64,1.47,2.09,2.03,1.78.69,2.68,1.54,2.68,3.09,0,1.62-1.2,3.03-3.68,3.03-1.01,0-2.12-.3-2.69-.67l.34-1.14Z"/>
      <path class="cls-1" d="m100.6,133.36c.66-.11,1.51-.2,2.61-.2,1.34,0,2.33.31,2.95.87.58.5.92,1.26.92,2.2s-.28,1.7-.81,2.25c-.72.77-1.89,1.16-3.22,1.16-.41,0-.78-.02-1.09-.09v4.21h-1.36v-10.4Zm1.36,5.07c.3.08.67.11,1.12.11,1.64,0,2.64-.8,2.64-2.25s-.98-2.06-2.48-2.06c-.59,0-1.05.05-1.28.11v4.09Z"/>
      <path class="cls-1" d="m118.41,138.39c0,3.62-2.2,5.54-4.89,5.54s-4.73-2.15-4.73-5.34,2.08-5.53,4.89-5.53,4.73,2.2,4.73,5.32Zm-8.16.17c0,2.25,1.22,4.26,3.36,4.26s3.37-1.98,3.37-4.37c0-2.09-1.09-4.28-3.36-4.28s-3.37,2.08-3.37,4.39Z"/>
      <path class="cls-1" d="m120.69,133.38c.69-.14,1.67-.22,2.61-.22,1.45,0,2.39.26,3.04.86.53.47.83,1.19.83,2,0,1.39-.87,2.31-1.98,2.68v.05c.81.28,1.3,1.03,1.55,2.12.34,1.47.59,2.48.81,2.89h-1.41c-.17-.3-.41-1.2-.7-2.51-.31-1.45-.87-2-2.11-2.04h-1.28v4.56h-1.36v-10.38Zm1.36,4.79h1.39c1.45,0,2.37-.8,2.37-2,0-1.36-.98-1.95-2.42-1.97-.66,0-1.12.06-1.34.12v3.84Z"/>
      <path class="cls-1" d="m131.59,134.39h-3.2v-1.15h7.79v1.15h-3.22v9.37h-1.37v-9.37Z"/>
      <path class="cls-1" d="m142.58,135.63c0,1.45-1.14,2.59-2.62,2.59s-2.64-1.14-2.64-2.59,1.17-2.56,2.64-2.56,2.62,1.14,2.62,2.56Zm-4.6,0c0,1.14.84,2.04,2,2.04s1.95-.91,1.95-2.03-.83-2.06-1.97-2.06-1.98.92-1.98,2.04Zm1.58,1.34h-.59v-2.56c.23-.05.56-.08.98-.08.48,0,.7.08.89.19.14.11.25.31.25.56,0,.28-.22.5-.53.59v.03c.25.09.39.28.47.62.08.39.12.55.19.64h-.64c-.08-.09-.12-.33-.2-.62-.05-.28-.2-.41-.53-.41h-.28v1.03Zm.02-1.45h.28c.33,0,.59-.11.59-.37,0-.23-.17-.39-.55-.39-.16,0-.27.02-.33.03v.73Z"/>
    </g>
    <g>
      <rect class="cls-2" x="86.78" y="68.94" width="36.61" height="47.54" rx="2.46" ry="2.46"/>
      <g>
        <path class="cls-1" d="m105.13,87.46c-.95,0-1.72.77-1.72,1.72s.77,1.72,1.72,1.72,1.72-.77,1.72-1.72-.77-1.72-1.72-1.72Z"/>
        <path class="cls-1" d="m105.13,86.97s.09.01.13.01l1.77-6.73s0-.03,0-.07c0-1.05-.85-1.9-1.9-1.9s-1.9.85-1.9,1.9v.08l1.77,6.72s.09-.01.13-.01Z"/>
        <path class="cls-1" d="m99.03,82.41l4.88,4.93c.07-.05.16-.09.24-.13l-1.83-6.71s-.02-.02-.04-.06c-.34-.59-.97-.95-1.65-.95-.33,0-.66.09-.95.25-.44.25-.75.66-.88,1.15-.13.49-.06,1,.19,1.44l.04.07Z"/>
        <path class="cls-1" d="m96.4,86.33l.07.04,6.7,1.83c.04-.08.08-.16.13-.24l-4.94-4.89s-.03-.01-.06-.03c-.29-.17-.62-.25-.95-.25-.68,0-1.31.36-1.65.95-.25.44-.32.95-.19,1.44.13.49.45.9.88,1.15Z"/>
        <path class="cls-1" d="m96.22,91.08l6.72-1.77s-.01-.09-.01-.13.01-.09.01-.13l-6.73-1.77s-.03,0-.07,0c-1.05,0-1.9.85-1.9,1.9s.85,1.9,1.9,1.9h.08Z"/>
        <path class="cls-1" d="m103.17,90.16l-6.71,1.83s-.02.02-.06.04c-.91.52-1.22,1.69-.7,2.59.34.59.97.95,1.65.95.33,0,.66-.09.95-.25l.07-.04,4.93-4.88c-.05-.07-.09-.16-.13-.24Z"/>
        <path class="cls-1" d="m103.91,91.02l-4.89,4.94s0,0,0,0c0,0-.01.03-.03.06-.25.44-.32.95-.19,1.44.13.49.45.9.88,1.15.29.17.62.25.95.25.68,0,1.31-.36,1.65-.95l.04-.07,1.83-6.7c-.08-.04-.16-.08-.24-.13Z"/>
        <path class="cls-1" d="m105.13,91.39s-.09-.01-.13-.01l-1.77,6.73s0,0,0,0c0,0,0,.03,0,.07,0,1.05.85,1.9,1.9,1.9s1.9-.85,1.9-1.9v-.08l-1.77-6.72s-.09.01-.13.01Z"/>
        <path class="cls-1" d="m111.23,95.95l-4.88-4.93c-.07.05-.16.09-.24.13l1.83,6.71s0,0,0,0c0,0,.02.03.04.06.34.59.97.95,1.65.95.33,0,.66-.09.95-.25.44-.25.75-.66.89-1.15.13-.49.06-1-.19-1.44l-.04-.07Z"/>
        <path class="cls-1" d="m113.87,92.03l-.07-.04-6.7-1.83c-.04.08-.08.16-.13.24l4.94,4.89s0,0,0,0c0,0,.03.02.06.03.29.17.62.25.95.25.68,0,1.31-.36,1.65-.95.25-.44.32-.95.19-1.44-.13-.49-.45-.9-.88-1.15Z"/>
        <path class="cls-1" d="m114.13,87.28h-.08l-6.72,1.77s.01.09.01.13-.01.09-.01.13l6.73,1.77s.03,0,.07,0c1.05,0,1.9-.85,1.9-1.9s-.85-1.9-1.9-1.9Z"/>
        <path class="cls-1" d="m107.1,88.2l6.71-1.83s.02-.02.06-.04c.44-.25.75-.66.88-1.15s.06-1-.19-1.44c-.34-.59-.97-.95-1.65-.95-.33,0-.66.09-.95.25l-.07.04-4.93,4.88c.05.07.09.16.13.24Z"/>
        <path class="cls-1" d="m106.35,87.34l4.89-4.94s0-.03.03-.06c.25-.44.32-.95.19-1.44-.13-.49-.45-.9-.88-1.15-.29-.17-.62-.25-.95-.25-.68,0-1.31.36-1.65.95l-.04.07-1.83,6.7c.08.04.16.08.24.13Z"/>
      </g>
      <g>
        <path class="cls-1" d="m92.54,105.49c.24-.04.57-.07,1.04-.07s.81.09,1.04.27c.22.17.36.45.36.79s-.11.62-.31.81c-.26.25-.65.36-1.11.36-.1,0-.19,0-.26-.02v1.22h-.76v-3.36Zm.76,1.54c.07.02.15.02.26.02.41,0,.66-.21.66-.56,0-.31-.22-.5-.6-.5-.16,0-.26.02-.32.03v1Z"/>
        <path class="cls-1" d="m96.43,107.97l-.24.87h-.8l1.04-3.4h1.01l1.05,3.4h-.83l-.26-.87h-.97Zm.86-.58l-.21-.72c-.06-.2-.12-.45-.17-.66h-.01c-.05.2-.1.46-.16.66l-.2.72h.75Z"/>
        <path class="cls-1" d="m99.15,108.05c.21.11.52.21.85.21.35,0,.54-.15.54-.37s-.16-.33-.57-.48c-.57-.2-.93-.51-.93-1,0-.58.48-1.02,1.29-1.02.38,0,.67.08.87.17l-.17.62c-.14-.07-.38-.16-.71-.16s-.49.15-.49.33c0,.22.19.31.63.48.6.22.88.53.88,1.01,0,.57-.44,1.05-1.37,1.05-.39,0-.77-.1-.96-.21l.16-.64Z"/>
        <path class="cls-1" d="m102.04,108.05c.21.11.52.21.85.21.35,0,.54-.15.54-.37s-.16-.33-.57-.48c-.57-.2-.93-.51-.93-1,0-.58.48-1.02,1.29-1.02.38,0,.67.08.87.17l-.17.62c-.14-.07-.38-.16-.71-.16s-.49.15-.49.33c0,.22.19.31.63.48.6.22.88.53.88,1.01,0,.57-.44,1.05-1.37,1.05-.39,0-.77-.1-.96-.21l.16-.64Z"/>
        <path class="cls-1" d="m104.91,105.49c.24-.04.57-.07,1.04-.07s.81.09,1.04.27c.22.17.36.45.36.79s-.11.62-.31.81c-.26.25-.65.36-1.11.36-.1,0-.19,0-.26-.02v1.22h-.76v-3.36Zm.76,1.54c.07.02.15.02.26.02.41,0,.66-.21.66-.56,0-.31-.22-.5-.6-.5-.16,0-.26.02-.32.03v1Z"/>
        <path class="cls-1" d="m111.12,107.11c0,1.12-.68,1.79-1.67,1.79s-1.6-.76-1.6-1.73c0-1.02.65-1.78,1.66-1.78s1.61.78,1.61,1.72Zm-2.46.05c0,.67.31,1.14.83,1.14s.82-.49.82-1.16c0-.61-.29-1.14-.82-1.14s-.82.49-.82,1.16Z"/>
        <path class="cls-1" d="m111.8,105.49c.25-.04.62-.07,1.02-.07.5,0,.86.08,1.1.27.2.16.31.4.31.71,0,.43-.31.73-.6.84v.02c.24.1.37.32.45.64.11.38.21.83.28.96h-.79c-.06-.1-.14-.37-.24-.79-.09-.42-.24-.54-.55-.55h-.23v1.34h-.76v-3.36Zm.76,1.46h.3c.38,0,.61-.19.61-.49,0-.31-.21-.47-.57-.47-.19,0-.29.02-.35.03v.94Z"/>
        <path class="cls-1" d="m115.61,106.09h-.91v-.65h2.61v.65h-.93v2.76h-.77v-2.76Z"/>
      </g>
      <path class="cls-1" d="m49.99,14.55c.07-.02.13-.04.23-.08.04.05.07.1.11.15.25.29.5.57.74.87,1.05,1.3,1.95,2.7,2.74,4.17,1.47,2.74,2.57,5.62,3.34,8.63.02.06.04.12.06.19.06-.02.11-.04.16-.06,1.29-.56,2.63-.97,3.99-1.31.79-.2,1.58-.36,2.38-.51.52-.09,1.04-.17,1.56-.25.37-.06.75-.11,1.12-.16.34-.04.69-.09,1.03-.12.38-.04.75-.08,1.13-.11.28-.03.57-.05.85-.08.35-.03.69-.05,1.04-.06.47-.03.95-.07,1.42-.07.59,0,1.18.02,1.77.05.56.03,1.12.08,1.68.12.42.03.83.06,1.25.11.59.07,1.17.14,1.76.22.66.09,1.33.19,1.99.3.82.14,1.64.31,2.45.51,1.43.35,2.84.77,4.2,1.36.05.02.1.03.16.05.02-.06.04-.12.05-.17.25-1.04.57-2.07.92-3.08.74-2.15,1.65-4.23,2.78-6.21.89-1.56,1.9-3.03,3.11-4.37.05-.05.1-.1.15-.15.08.03.14.05.21.07.32.12.65.13.98.04.88-.23,1.4-1.16,1.14-2.04-.27-.9-1.21-1.37-2.06-1.1-1.07.34-1.49,1.61-.84,2.52.04.06.08.11.12.17-.06.08-.11.15-.16.21-.2.24-.39.48-.59.71-.66.77-1.36,1.5-2.13,2.15-.46.39-.94.75-1.47,1.04-.39.22-.79.39-1.23.49-.33.07-.66.09-.99.01-.4-.09-.73-.28-.98-.61-.25-.33-.43-.7-.55-1.09-.21-.65-.3-1.32-.32-2-.04-1.07.07-2.13.24-3.18.17-1.06.42-2.1.7-3.14.02-.07.04-.13.07-.21.37.02.72,0,1.06-.13.33-.14.6-.34.82-.62.22-.29.36-.61.4-.97.11-.89-.39-1.81-1.33-2.13-.93-.32-1.91.09-2.37.89-.24.4-.31.84-.24,1.3.09.61.43,1.07.95,1.42-.03.07-.05.13-.08.18-.76,1.45-1.61,2.84-2.58,4.16-.55.75-1.15,1.47-1.82,2.11-.47.45-.97.86-1.54,1.17-.38.21-.78.37-1.22.44-.43.07-.83.02-1.2-.23-.08-.05-.16-.11-.23-.16-.26-.2-.48-.43-.69-.68-.45-.55-.81-1.16-1.13-1.8-.53-1.07-.93-2.19-1.28-3.33-.5-1.62-.87-3.28-1.18-4.94-.03-.15-.06-.31-.09-.47.11-.03.21-.05.31-.08,1.13-.31,1.83-1.37,1.73-2.48-.09-1.06-.93-1.95-1.94-2.1-.04,0-.07-.03-.11-.04h-.57c-.08.07-.18.04-.27.06-1.41.35-2.17,1.85-1.62,3.17.28.68.78,1.13,1.49,1.36.08.03.16.05.25.08-.04.22-.08.43-.12.64-.24,1.27-.52,2.53-.86,3.78-.33,1.23-.72,2.43-1.23,3.6-.31.7-.65,1.39-1.08,2.02-.24.36-.51.7-.83,1-.21.2-.43.37-.69.49-.19.09-.38.14-.59.14-.46,0-.89-.12-1.3-.31-.51-.23-.97-.56-1.4-.92-.62-.52-1.16-1.11-1.67-1.74-1.26-1.55-2.29-3.25-3.22-5.01-.02-.03-.03-.07-.04-.11.07-.05.13-.1.2-.15.46-.36.72-.84.77-1.41.1-1.38-1.15-2.38-2.38-2.11-.83.19-1.37.7-1.55,1.54-.17.83.11,1.51.78,2.02.34.26.72.38,1.15.38.11,0,.22-.03.33.02.02.09.05.17.07.25.18.68.35,1.36.49,2.05.18.88.32,1.77.39,2.67.06.78.07,1.56-.03,2.34-.06.44-.14.87-.29,1.29-.13.37-.3.71-.54,1.02-.22.28-.5.46-.83.56-.37.11-.75.1-1.12.02-.52-.12-1-.34-1.45-.62-.56-.34-1.06-.74-1.54-1.17-.78-.7-1.49-1.46-2.15-2.27-.15-.18-.29-.36-.43-.54.05-.07.09-.13.13-.18.17-.24.28-.51.3-.81.09-1.16-.98-2-2.01-1.73-.65.17-1.06.58-1.21,1.23-.14.63.04,1.18.53,1.6.47.41,1.02.49,1.62.3Z"/>
      <path class="cls-1" d="m46.7,74.11s0,0,0,0c0,0,0,0,0,.01,0,0,0,0,0,0Z"/>
      <path class="cls-1" d="m80.61,108.4s-.08,0-.11,0c-.08-.17-.42-1.25-.46-1.49,1.74-.38,3.48-.91,5.1-1.49v-.93c-.33.12-.65.24-.98.35-1.36.45-2.74.84-4.15,1.15-.08.02-.17.02-.26.04-.02-.07-.05-.12-.06-.17-.03-.09-.05-.18-.08-.27-.08-.21-.31-.31-.53-.24-.21.06-.32.29-.26.51.03.11.06.21.1.33-.06.02-.11.04-.16.05-.15.03-.29.05-.44.08-.48.07-.95.15-1.43.22-.3.04-.61.09-.91.12-.38.04-.77.08-1.15.11-.29.03-.58.05-.87.06-.46.03-.91.07-1.37.07-.88.01-1.77.01-2.65,0-.53,0-1.06-.03-1.58-.06-.48-.03-.96-.08-1.44-.12-.48-.05-.96-.1-1.43-.16-.04,0-.09-.03-.12-.04,0-.03-.01-.05-.01-.06,0-.07.02-.14.03-.21.03-.22-.12-.43-.34-.47-.21-.04-.43.1-.49.32-.01.05,0,.1-.02.14-.01.06-.04.12-.06.18-2.59-.38-5.09-1.05-7.53-1.94-2.33-.84-4.56-1.88-6.7-3.12-.02-.08-.03-.16-.04-.24-.12-.8-.5-1.47-1.09-2.02-.04-.04-.07-.08-.11-.11.14-.35.75-1.56.86-1.71.05.02.11.04.17.07.23.11.45.23.68.33.21.1.37.04.48-.16.03-.05.05-.1.07-.15.06-.15,0-.3-.13-.39-.05-.03-.1-.05-.15-.08-.76-.38-1.53-.75-2.29-1.13-.05-.02-.1-.05-.15-.07-.09-.04-.19-.03-.27.02-.16.1-.22.26-.25.44,0,.03.01.06.02.09.04.12.12.18.23.23.23.11.47.23.7.35.04.02.08.05.12.08-.1.2-.18.38-.27.56-.09.18-.17.35-.26.53-.09.18-.16.37-.29.54-.48-.2-.97-.32-1.48-.3-.51.01-1,.14-1.46.36-.17-.13-.34-.25-.5-.37-1.24-.94-2.42-1.96-3.53-3.05-.85-.83-1.66-1.69-2.42-2.6-.73-.86-1.43-1.75-2.06-2.69-1.32-1.98-2.44-4.06-3.36-6.24-.03-.07-.06-.15-.1-.21-.4-.6-1.03-.84-1.73-.61-.37.12-.62.36-.78.71-.08.18-.11.36-.13.55-.02.21.01.41.1.6.16.34.29.68.44,1.02,2.09,4.63,5,8.67,8.71,12.14,1.07,1,2.21,1.94,3.39,2.81.07.05.15.09.19.16-.27,1.54.19,2.77,1.49,3.67,1.36.8,2.67.68,3.95-.2.02,0,.03,0,.05.01.06.03.11.06.17.09,2.3,1.33,4.7,2.45,7.19,3.35,1.81.65,3.66,1.19,5.54,1.59.69.15,1.39.28,2.09.41.43.08.86.14,1.29.2.45.06.91.11,1.36.16.42.05.85.09,1.27.12.65.05,1.29.08,1.94.12.05,0,.11.02.16.04h2.65c.07-.01.14-.03.21-.04.65-.04,1.29-.07,1.94-.12.57-.04,1.15-.11,1.72-.17.52-.06,1.05-.12,1.57-.21.67-.11,1.34-.23,2-.36,1.29-.25,2.57-.57,3.83-.95.4-.12.8-.24,1.19-.37v-1c-1.48.5-2.99.93-4.53,1.26Zm-33.76-5.09c-.98,0-1.7-.82-1.7-1.7,0-.89.72-1.71,1.7-1.7.83-.02,1.7.63,1.7,1.69,0,1.04-.85,1.7-1.7,1.7Zm17.26,5.45c-.08,0-.17-.01-.25-.03-.82-.15-1.64-.3-2.45-.5-1.55-.37-3.07-.83-4.57-1.36-1.61-.58-3.18-1.25-4.71-2.01-.78-.39-1.54-.79-2.29-1.23-.05-.03-.11-.07-.17-.11.07-.12.13-.23.19-.35.06-.13.12-.26.17-.39.05-.12.08-.25.13-.38.08-.03.13.03.19.06.71.39,1.43.77,2.16,1.12,2.45,1.19,5,2.13,7.63,2.83,1.1.29,2.2.53,3.32.74.22.04.45.07.68.11.07.01.14.03.2.05.01.18-.15,1.23-.22,1.44Zm15.01-.07c-.47.08-.93.16-1.4.23-.43.06-.86.11-1.29.16-.38.04-.77.08-1.15.12-.2.02-.41.04-.61.05-.35.02-.69.04-1.04.06-1.13.07-2.26.06-3.39.04-.54,0-1.09-.05-1.63-.07-.32-.02-.65-.04-.97-.07-.4-.03-.8-.08-1.2-.12-.32-.03-.64-.08-.96-.12-.16-.02-.33-.05-.52-.07.07-.47.14-.91.21-1.36,0-.03.03-.06.05-.1.42.03.84.1,1.27.15.42.04.85.08,1.27.11.42.03.85.06,1.28.08.43.02.85.04,1.28.04.43,0,.85,0,1.28,0,.43,0,.85-.02,1.28-.04.43-.02.85-.03,1.28-.06.42-.03.85-.07,1.27-.11.42-.04.85-.09,1.27-.15.42-.06.84-.12,1.26-.18.42-.06.83-.15,1.26-.22.16.51.3,1,.46,1.5-.18.08-.36.09-.53.12Z"/>
      <path class="cls-1" d="m113.31,66.83c-.13-.9-.32-1.78-.59-2.65-.33-1.05-.79-2.04-1.44-2.94-.32-.45-.7-.85-1.12-1.21-.49-.42-1.03-.75-1.62-1-.44-.19-.9-.33-1.38-.41-.43-.08-.87-.16-1.3-.26-.37-.08-.73-.19-1.07-.36-.13-.07-.26-.14-.38-.24-.19-.15-.21-.28-.09-.49.06-.1.13-.2.21-.29.23-.27.51-.49.8-.69.45-.31.9-.61,1.36-.91.24-.16.49-.31.7-.52.6-.59,1.09-1.27,1.38-2.07.19-.52.26-1.05.16-1.6-.09-.45-.28-.83-.57-1.18-.3-.37-.68-.65-1.09-.89-.56-.33-1.17-.55-1.79-.73-1.02-.3-2.08-.45-3.13-.57-.34-.04-.68-.06-1.01-.09-.7-.06-1.4-.08-2.1-.1-.91-.02-1.81-.02-2.72.01-.84.03-1.69.05-2.53.11-.45.03-.9.05-1.35.08-.33.02-.66.04-.99.1-.95.18-1.9.36-2.85.54-.66.13-1.31.28-1.96.42-.04,0-.08.05-.13-.01.19-.16.39-.32.58-.49.19-.16.37-.32.55-.48.19-.17.38-.34.56-.51.18-.17.36-.33.54-.5.18-.17.36-.35.55-.53.18-.17.35-.34.53-.51.18-.18.37-.34.52-.54-.07-.19-.18-.35-.29-.5-.22-.3-.47-.57-.74-.83-.7-.71-1.45-1.36-2.22-2-.26-.22-.53-.42-.83-.59-2.19-1.28-4.37-2.56-6.56-3.84-2.46-1.43-5.05-2.56-7.75-3.42-1.25-.4-2.51-.72-3.8-.98-.58-.12-1.16-.21-1.75-.3-.38-.06-.77-.11-1.15-.15-.4-.05-.8-.09-1.2-.12-.38-.03-.76-.04-1.13-.06-.84-.05-1.69-.05-2.53,0-.26.02-.52.03-.78.05-.2.02-.39.03-.59.06-.1.01-.18,0-.27-.06-.84-.45-1.71-.81-2.6-1.13-2.01-.72-4.07-1.29-6.16-1.72-.88-.18-1.77-.31-2.67-.34-.44-.01-.88,0-1.32.07-.36.06-.71.15-1.03.34-.46.27-.72.68-.73,1.22,0,.29-.11.52-.31.72-.21.21-.45.37-.72.49-.1.04-.2.1-.28.16-.17.13-.21.31-.13.51.02.06.05.12.09.17.09.14.21.26.35.35.18.12.35.25.51.38.07.05.12.13.16.2.05.08.01.16-.07.19-.04.02-.09.03-.13.05-.19.08-.38.15-.57.23-.17.08-.34.17-.5.27-.08.05-.14.12-.2.2-.07.09-.06.18.03.25.09.06.19.12.29.15.18.05.31.15.43.27.2.21.2.44-.01.65-.07.07-.16.13-.24.19-.47.31-.91.65-1.32,1.03-.47.45-.9.93-1.23,1.49-.06.1-.13.2-.2.29-.12.18-.25.37-.36.56-.05.08-.07.18-.08.27-.01.09.05.18.14.19.16.03.3.02.43-.11.87-.86,1.82-1.63,2.82-2.34,1.42-1.01,2.92-1.88,4.47-2.67,1-.51,2.02-.97,3.05-1.4.06-.03.14-.03.18-.11-.17-.03-.34-.07-.52-.03-.82.17-1.64.33-2.46.47-.64.11-1.28.2-1.92.26-.14.01-.28,0-.43,0-.04,0-.08,0-.1-.04-.01-.09.05-.13.11-.16.13-.06.25-.13.39-.17.46-.16.94-.25,1.43-.33.45-.08.9-.14,1.36-.2.45-.06.91-.12,1.36-.17.37-.04.74-.07,1.11-.11.14-.01.29-.03.48-.06-.07-.03-.11-.05-.14-.06-.48-.1-.96-.18-1.45-.24-.53-.06-1.05-.08-1.58-.07-.59.02-1.18.05-1.77.07-.16,0-.32,0-.47-.01-.07,0-.14-.03-.2-.06-.06-.03-.09-.1-.05-.16.04-.07.09-.15.16-.21.12-.11.26-.2.39-.3.07-.05.15-.08.24-.09.54-.1,1.1-.14,1.65-.17.76-.03,1.51.01,2.27.12.74.11,1.47.28,2.18.54.54.19,1.05.42,1.54.72.04.03.08.07.13.11-.09.03-.15.05-.22.07-.67.22-1.33.43-2,.66-2.12.74-4.17,1.63-6.14,2.71-1.75.96-3.41,2.04-4.93,3.34-.6.51-1.16,1.05-1.68,1.64-.12.14-.24.29-.37.43-.97,1.02-1.87,2.1-2.7,3.24-1.15,1.58-2.14,3.25-2.93,5.05-1.16,2.65-1.82,5.42-1.88,8.33-.02.92.01,1.83.11,2.74.08.76.21,1.52.37,2.26.33,1.48.8,2.92,1.45,4.3.14.3.3.59.46.88.04.07.09.13.14.19.02.03.09.01.1-.02.01-.03.02-.06.03-.09.01-.26.02-.52-.08-.77-.03-.07-.05-.15-.08-.22-.66-1.93-1.15-3.89-1.28-5.93-.03-.43-.03-.87-.01-1.3.01-.25.02-.5.04-.76.02-.29.03-.58.06-.87.09-.83.24-1.64.44-2.44.34-1.37.8-2.71,1.35-4.01.89-2.13,2.03-4.12,3.44-5.94,1.52-1.97,3.3-3.68,5.29-5.17,2.3-1.72,4.79-3.1,7.44-4.21,2-.84,4.05-1.51,6.15-2.03,1.1-.27,2.22-.49,3.34-.66.26-.04.52-.07.78-.06.46.02.92.03,1.37.04.35.01.71.03,1.06.06.67.06,1.33.13,2,.22.73.1,1.45.21,2.17.35,1.59.31,3.17.72,4.71,1.23,1.86.61,3.68,1.33,5.42,2.23.83.43,1.65.9,2.47,1.35.28.16.56.32.84.49,1.38.83,2.68,1.75,3.85,2.86.49.46.95.95,1.35,1.49.06.08.12.16.16.25-.01.02-.02.04-.03.05-.04.04-.08.08-.12.12-.72.71-1.5,1.35-2.35,1.91-1.06.7-2.19,1.25-3.41,1.6-.63.18-1.27.31-1.93.32-.06,0-.11,0-.17.01-.46.05-.92.03-1.37-.03-.57-.08-1.12-.25-1.64-.51-.88-.43-1.63-1.01-2.23-1.8-.21-.28-.38-.58-.44-.93-.02-.1-.06-.2-.11-.29-.03-.05-.09-.09-.14-.12-.06-.03-.12-.02-.19.03-.01.04-.03.1-.04.15-.03.16-.05.33-.07.49-.06.59-.05,1.17.12,1.74.21.72.61,1.31,1.23,1.74.21.14.42.28.64.4.25.14.5.26.77.37,1,.41,2.05.57,3.12.61,1.02.04,2.04-.03,3.04-.23.41-.08.82-.17,1.22-.27.11-.03.22-.03.32.03.05.03.1.05.15.08.2.11.4.19.62.23.55.12,1.1.22,1.65.3.2.03.4.06.6.09.05.14.07.26.05.38-.03.01-.05.03-.07.03-.5.1-1,.16-1.5.2-.31.03-.63.05-.94.06-.6.03-1.2.07-1.8.07-1.37.02-2.73.02-4.1-.02-.66-.02-1.32-.07-1.98-.17-.75-.11-1.49-.24-2.24-.36-.97-.16-1.94-.35-2.9-.57-.48-.11-.95-.22-1.4-.42-.06-.03-.12-.04-.18-.05-.04,0-.09,0-.13.01-.03.09.01.15.06.21.06.08.13.16.19.24.12.16.22.33.28.52.11.35.04.66-.23.91-.1.1-.22.18-.35.24-.18.09-.37.17-.57.23-.56.16-1.14.24-1.72.29-.3.03-.6.05-.9.06-.52.03-1.04.06-1.56.08-.49.01-.98.01-1.47,0-.24,0-.47-.03-.71-.03-.2,0-.35-.08-.48-.22-.15-.16-.3-.33-.43-.5-.31-.41-.58-.85-.84-1.29-.02-.03-.04-.07-.05-.1-.02-.06,0-.11.05-.14.08-.05.17-.07.27-.08.4-.03.79.01,1.18.07.62.09,1.24.21,1.86.35.55.13,1.1.26,1.66.39.04,0,.08.04.13-.02-.08-.07-.18-.11-.27-.16-.41-.2-.84-.35-1.28-.47-1.09-.31-2.21-.5-3.34-.67-.16-.02-.33-.05-.48-.11-.18-.08-.32-.2-.38-.4-.06-.19,0-.3.18-.37.04-.01.08-.02.11-.03.22-.06.44-.05.66-.05.25,0,.5.02.78.03-.07-.03-.11-.05-.15-.06-.47-.13-.94-.25-1.41-.38-.04-.01-.09-.03-.12-.06-.15-.16-.13-.4.05-.54.1-.08.22-.12.34-.15.41-.09.83-.11,1.24-.03.46.09.9.24,1.33.42.87.36,1.69.81,2.5,1.29.74.44,1.46.9,2.17,1.39.04.03.07.07.16.06-.05-.06-.08-.1-.12-.15-.31-.36-.64-.7-.99-1.02-1.23-1.12-2.62-1.97-4.19-2.51-.63-.22-1.27-.36-1.93-.46-.32-.05-.64-.06-.97-.05-.19,0-.37.05-.55.12-.45.18-.71.56-.71,1.05,0,.14,0,.28,0,.43,0,.51-.05,1.03-.11,1.53-.06.49.07.92.33,1.32.24.36.54.65.92.87.16.1.32.21.45.35.06.06.12.13.15.21.11.26.3.46.51.64.18.14.37.26.58.37.05.03.11.06.18.1-.2.07-.38.12-.57.11-.36,0-.72.05-1.08.12-.64.12-1.28.29-1.9.48-1.42.44-2.81.98-4.18,1.57-.59.26-1.18.52-1.77.79-.04.02-.08.02-.17.04.08-.08.13-.13.17-.17.44-.39.88-.77,1.32-1.16.57-.5,1.14-1,1.71-1.5.05-.04.12-.07.13-.17-.08.01-.16.02-.24.04-.32.08-.6.23-.89.38-.51.27-1,.58-1.47.91-.5.35-1,.72-1.5,1.08-.05.04-.1.1-.18.1-.03-.05-.01-.09.01-.13.08-.13.16-.27.25-.4.25-.33.54-.62.83-.9.45-.43.93-.84,1.41-1.23.02-.02.08-.04.04-.09-.2.01-.4.08-.59.14-.54.19-1.03.47-1.5.8-.66.46-1.26.98-1.82,1.55-.09.09-.19.15-.32.19-1.47.4-2.87.95-4.2,1.7-1.61.91-3.03,2.05-4.22,3.47-.38.46-.72.94-1.02,1.45-.04.07-.09.13-.1.24.07-.06.12-.09.16-.13.43-.39.87-.75,1.34-1.09.89-.64,1.83-1.18,2.86-1.55.34-.12.68-.23,1.05-.28-.05.05-.11.08-.17.12-.49.28-.99.56-1.47.85-1.6.98-3.08,2.13-4.38,3.49-.94.99-1.77,2.06-2.42,3.26-.38.69-.7,1.41-.9,2.18-.04.16-.09.32-.15.47-.09.25-.17.51-.18.78,0,.08,0,.16,0,.24.02.31.23.56.63.57.33.01.64-.06.93-.21.2-.11.4-.22.61-.32.32-.16.65-.33.97-.48.19-.09.38-.14.59-.15.08,0,.15-.03.23-.05.32-.09.64-.18.96-.26.41-.11.81-.24,1.21-.41.17-.07.29-.18.38-.34.05-.09.1-.18.14-.28.1-.25.2-.5.28-.75.23-.73.41-1.47.57-2.22,0-.04,0-.08.07-.09.08.1.16.21.25.31.34.38.73.7,1.14.99.03.02.07.04.1.06.58.25,1.11.59,1.63.95.04.03.09.06.14.08.15-.04.3-.08.44-.12,1.26-.36,2.52-.71,3.77-1.07.07-.02.14-.05.21-.03,0,0,0,0,.01,0,0,0,0,0,.01,0,0-.01,0-.02.02-.03,0,0,.02,0,.04,0,0,0-.01.02-.02.02,0,0-.02,0-.03,0,0,0,0,0,0,0,0,0-.01,0-.02,0-.06.03-.11.07-.17.09-1.24.48-2.48.97-3.74,1.4-.2.07-.37.18-.52.32-.2.19-.35.41-.47.65-.02.04-.03.08-.05.14.05.02.09.03.12.04.43.07.86.13,1.29.2.45.07.9.14,1.36.21.47.07.93.15,1.4.22.21.03.42.05.65.12-.03,0-.04.01-.05.01-1.67,0-3.33,0-5,0-.02,0-.05,0-.07,0-.02,0-.03,0-.05,0,0,0-.02,0-.02,0,0,0-.01,0-.03.02-.1.19-.21.39-.29.61.07.06.13.11.19.16.43.35.86.69,1.29,1.04.27.21.53.42.79.64.03.02.07.05.06.1,0,0,0,0,0,0,0,0,0,0,.01,0,.01,0,.02,0,.03,0,0,0,0,.01,0,.02-.01,0-.02,0-.03-.01,0,0-.01,0-.02,0,0,0,0,0,0-.01-.08-.04-.15-.07-.23-.11-.68-.37-1.36-.74-2.03-1.11-.08-.04-.15-.08-.22-.11-.16.12-.66.65-.81.85.04.08.07.17.11.26.3.69.6,1.37.9,2.06.03.07.08.14.07.23-.02.03-.05.07-.08.1-.03.03-.04.08-.12.08-.04-.07-.08-.14-.12-.22-.33-.63-.66-1.26-.99-1.89-.03-.05-.04-.12-.1-.14-.24.17-.78.66-.89.8.03.31.11.62.2.92.23.78.51,1.54.81,2.3.27.67.55,1.33.82,1.99.02.04.06.09.01.15-.04-.04-.08-.07-.11-.1-.32-.32-.6-.67-.85-1.04-.74-1.13-1.19-2.38-1.43-3.7-.01-.07-.03-.14-.04-.2-.21-.05-.42-.09-.61-.14-.47-.14-.91-.37-1.33-.61-.61-.36-1.19-.77-1.75-1.21-.09-.07-.18-.15-.28-.21-.13.08-.24.15-.36.26.04.04.07.08.11.11.12.12.25.24.37.37,1.02,1.11,1.82,2.36,2.43,3.73.52,1.17,1.13,2.29,1.87,3.34,1.26,1.79,2.8,3.29,4.66,4.45.66.41,1.34.77,2.06,1.05.08.03.16.08.26.07,0-.06,0-.12,0-.18-.03-.2-.07-.4-.1-.61-.12-.76-.2-1.53-.22-2.31-.04-1.19.04-2.37.29-3.53.24-1.09.6-2.14,1.16-3.12.49-.87,1.09-1.66,1.88-2.29.04-.03.08-.07.12-.11.8-.74,1.59-1.49,2.4-2.22,1.46-1.32,2.86-2.7,4.15-4.18.26-.3.52-.6.74-.92.14-.2.27-.41.36-.64.05-.13.09-.27.12-.41.04-.26-.07-.48-.31-.61-.13-.07-.28-.11-.43-.14-.35-.06-.69-.02-1.04.03-.32.05-.64.11-.96.16-.51.08-1.01.17-1.52.25-.45.07-.9.15-1.35.22-.46.07-.92.15-1.38.22-.37.06-.73.11-1.1.16-.36.05-.72.11-1.08.16-.39.06-.78.11-1.17.17-.39.06-.78.11-1.17.17-.31.04-.63.08-.94.12-.28.03-.57.05-.85.07-.7.05-1.4.05-2.1-.07-.26-.05-.52-.12-.77-.23-.15-.07-.29-.16-.4-.29-.16-.18-.24-.39-.2-.63,0-.05.02-.11.02-.16-.03-.33.03-.64.11-.96.14-.51.35-1,.6-1.46.65-1.24,1.45-2.39,2.32-3.48.05-.06.11-.12.16-.17.03-.03.07-.06.12-.08.25-.09.49-.1.74.03,0,.04.01.08,0,.12-.02.22-.04.44-.08.66-.05.33-.12.67-.14,1.01-.02.21-.02.43.03.64.02.08.04.15.08.22.06.11.16.15.28.13.11-.02.21-.07.3-.13.2-.14.36-.31.52-.48.07-.08.14-.15.21-.22.72-.62,1.44-1.25,2.18-1.86.7-.59,1.43-1.14,2.19-1.65.32-.21.19-.17.57-.17.81.01,1.61,0,2.41-.06.57-.04,1.15-.1,1.72-.17.61-.07,1.22-.16,1.83-.26.86-.14,1.71-.31,2.55-.5,1.56-.35,3.11-.75,4.64-1.23.66-.21,1.32-.43,1.98-.63,1.17-.36,2.35-.65,3.55-.89.57-.11,1.15-.21,1.72-.3.4-.07.8-.12,1.19-.17.34-.04.69-.08,1.04-.11.35-.03.71-.06,1.06-.08.22-.01.44-.03.66-.01.43.04.86.1,1.29.15.36.03.72.07,1.09.07.77.02,1.53.03,2.3-.03.42-.04.85-.06,1.27-.11.7-.09,1.4-.21,2.1-.37,1.29-.29,2.54-.69,3.74-1.24.22-.1.42-.21.64-.31.07-.03.11-.08.15-.15.11-.25.04-.45-.22-.56-.04-.02-.07-.03-.11-.04-.24-.05-.48-.08-.73-.04-.24.04-.49.06-.73.07-.27.01-.54,0-.8-.04-.51-.07-1-.23-1.45-.49-.03-.02-.05-.05-.09-.08.06-.02.11-.05.15-.06.87-.19,1.74-.38,2.61-.57.51-.11,1.03-.21,1.55-.31.48-.09.96-.19,1.44-.26.32-.05.64-.06.96-.09.46-.03.93-.06,1.39-.08.86-.04,1.72-.08,2.58-.1.89-.02,1.78-.03,2.67,0,.67.03,1.34.05,2.01.11.57.05,1.13.11,1.69.19.63.09,1.26.21,1.87.38.56.16,1.11.35,1.62.63.31.17.59.37.83.63.33.36.5.78.47,1.27-.01.21-.06.41-.12.6-.16.47-.41.88-.71,1.27-.27.35-.59.65-.97.89-.39.24-.77.49-1.15.75-.42.28-.82.59-1.17.96-.28.3-.52.63-.59,1.05-.03.19,0,.37.05.53.07.24.23.45.43.61.23.19.49.34.77.46.39.17.8.29,1.22.38.44.1.88.17,1.32.26.86.17,1.63.53,2.32,1.07.7.55,1.23,1.24,1.65,2.02.38.69.65,1.41.87,2.17.24.81.39,1.64.49,2.48h.95c-.02-.16-.03-.31-.05-.47Z"/>
      <path class="cls-1" d="m50.02,68.13s0,0-.01,0c0,0,.01,0,.02,0h0Z"/>
      <path class="cls-1" d="m70.77,42.84c.3-.31.63-.6.95-.89.06-.05.12-.1.19-.15,1.14-.85,2.44-1.3,3.84-1.49.28-.04.53-.13.77-.29.04-.03.08-.06.11-.09.18-.17.2-.37.06-.57-.05-.08-.12-.15-.19-.21-.17-.12-.35-.25-.53-.35-.39-.22-.81-.38-1.24-.53-.85-.31-1.71-.54-2.57-.8-.8-.24-1.62-.42-2.44-.58-.63-.12-1.27-.24-1.91-.33-.27-.04-.53-.07-.8-.11-.38-.04-.75-.09-1.13-.12-.29-.03-.58-.05-.87-.06-.55-.03-1.1-.07-1.66-.08-1.21-.03-2.42.01-3.62.13-.61.06-1.22.12-1.83.21-.82.12-1.63.27-2.44.46-2.14.49-4.19,1.21-6.16,2.17-1.34.65-2.62,1.4-3.82,2.26-.94.68-1.82,1.44-2.66,2.24-1.79,1.71-3.37,3.59-4.69,5.69-1.33,2.12-2.35,4.37-2.99,6.8-.27,1.05-.47,2.11-.58,3.19-.08.72-.1,1.45-.09,2.18,0,.72.04,1.44.09,2.15.03.4.08.8.12,1.2,0,.05.02.1.03.16.12.03.22.06.35.09,0-.11,0-.19,0-.27-.06-1.47.01-2.94.2-4.4.11-.87.26-1.73.46-2.58.32-1.35.75-2.67,1.33-3.94.75-1.64,1.72-3.14,2.99-4.43.39-.39.76-.8,1.13-1.21.78-.89,1.66-1.69,2.59-2.43,2.29-1.82,4.82-3.2,7.56-4.18,1.25-.45,2.52-.8,3.82-1.07.58-.12,1.16-.21,1.75-.3.39-.06.78-.11,1.17-.15.44-.05.88-.1,1.32-.12.6-.03,1.2-.05,1.8-.06.75-.01,1.5-.01,2.25.04.32.02.65.04.97.06.2.01.41.03.61.06.45.05.91.11,1.36.17.56.07,1.12.18,1.67.32.29.07.57.17.87.22.11.01.21.07.3.12.21.13.29.32.26.56-.03.22-.14.42-.25.61-.09.14-.18.28-.25.43-.54,1.07-.69,2.21-.5,3.38.12.72.37,1.4.73,2.04.2.36.48.66.77.96.05.05.11.13.18.08.1-.06.02-.14,0-.21-.17-.44-.3-.88-.39-1.34-.17-.82-.22-1.64-.07-2.47.15-.83.49-1.57,1.08-2.17Z"/>
      <path class="cls-1" d="m57.17,48.84c.12-.17.21-.35.27-.55.15-.49.06-.93-.23-1.35-.05-.07-.12-.12-.21-.14-.26-.07-.53-.1-.8-.08-.34.03-.65.16-.85.46-.1.15-.22.28-.35.42-.19.2-.38.4-.57.6-.09.09-.16.2-.2.31-.03.09-.07.18-.09.27-.2.66-.2,1.34-.07,2.01.1.5.23,1,.37,1.49.09.31.21.61.31.92.03.08.07.15.15.2.29.18.59.34.93.4.5.09.92-.03,1.2-.57.06-.13.1-.26.15-.4.05-.12.04-.24,0-.37-.15-.47-.28-.95-.42-1.43-.12-.39-.23-.79-.34-1.18.04-.06.07-.11.11-.16.21-.29.42-.57.63-.86Z"/>
      <path class="cls-1" d="m80.46,42.49c-.07-.09-.13-.2-.21-.29-.61-.78-1.38-1.31-2.38-1.44-.03,0-.07-.03-.11.03.27.27.57.52.85.78.28.26.57.52.87.79-.03.39-.03.76.02,1.13.06.45.17.88.38,1.29.41.79,1.08,1.2,1.96,1.31.47.06.94.02,1.41-.06.12-.02.23-.05.35-.08.07-.01.11-.06.15-.11.04-.05.02-.11-.03-.14-.04-.02-.09-.04-.13-.04-.11-.01-.22-.02-.33-.02-.19,0-.38,0-.57-.02-.35-.03-.68-.12-.99-.28-.52-.27-.86-.68-1.01-1.25-.1-.36-.12-.72-.07-1.08.02-.21-.02-.37-.14-.53Z"/>
      <path class="cls-1" d="m84.06,43.7c0-.87-.74-1.49-1.49-1.49-.77,0-1.51.62-1.5,1.51,0,.89.75,1.5,1.49,1.49.77.02,1.51-.63,1.5-1.5Zm-2.64.24c-.12-.61.24-1.23.9-1.37.65-.14,1.15.25,1.33.72,0,.01,0,.03-.01.06-.17-.25-.4-.41-.69-.46-.21-.03-.41,0-.59.11-.31.17-.57.54-.47,1.04.05.23.18.42.37.56.19.14.41.19.65.2-.04.02-.08.05-.12.05-.72.12-1.25-.37-1.36-.92Z"/>
      <path class="cls-1" d="m66.73,46.75c-.64,0-1.3.54-1.3,1.32,0,.75.65,1.32,1.32,1.3.59.02,1.31-.46,1.31-1.31,0-.84-.71-1.32-1.33-1.31Z"/>
      <path class="cls-1" d="m81.47,28.23c-.89-.23-1.78-.43-2.68-.59-.53-.1-1.06-.18-1.59-.25-.4-.06-.8-.11-1.2-.15-.41-.05-.82-.09-1.22-.12-.35-.03-.69-.05-1.04-.06-.61-.02-1.21-.06-1.82-.06-.67,0-1.34.02-2.01.03-.1,0-.2.01-.31.02-.35.02-.69.04-1.04.07-.42.03-.83.07-1.25.11-.44.05-.88.11-1.31.17-.62.09-1.23.19-1.84.3-1.06.2-2.11.45-3.15.74-.79.22-1.57.47-2.34.74-.06.02-.13.04-.17.08-.25.27-.5.54-.75.84.07.04.13.07.18.09.48.21.96.4,1.43.62.22.1.44.17.68.11.02,0,.05,0,.07,0,.58,0,1.17-.01,1.75,0,.49.01.98.05,1.46.08.46.03.93.06,1.39.11.66.08,1.31.17,1.97.26.82.11,1.63.27,2.44.45,1.7.37,3.36.84,5,1.41,1.87.66,3.68,1.44,5.44,2.35,1.08.56,2.13,1.17,3.16,1.82.11.07.23.13.36.16.3.08.59.17.88.26.08.02.17.05.24.1.16.1.33.15.51.17.08.01.15.03.23.04.12.02.24.04.35-.01.13-.06.25-.03.35.07.04.04.08.08.12.11.15.12.3.26.46.37.3.21.63.35,1.01.35.2,0,.41.03.6.12.11.05.24.07.36.11.1.03.19.07.28.12.07.04.14.1.2.16.08.08.18.13.28.16.08.03.15.03.22-.02.12-.08.25-.16.37-.25.06-.04.12-.07.19-.09.26-.06.47.01.61.24,0,.01.02.03.03.04.05.06.12.1.2.1.09,0,.19,0,.28,0,.11,0,.22-.01.33,0,.35.07.7.1,1.04.2.12.04.24.06.37.06.24,0,.47.03.71.07.2.04.4.03.58-.03.19-.06.35-.03.52.05.21.1.43.19.63.33.24.16.41.14.61-.08.08-.09.14-.19.21-.28.05-.06.05-.13.03-.2-.02-.06-.03-.12-.04-.21.28.05.52.12.67.35.09.14.22.19.38.19.15,0,.3.03.44.09.11.05.21.03.32,0,.13-.05.27-.09.4-.13.27-.07.55-.04.83-.04.05,0,.11.02.16.04.15.07.29.16.4.29.09.1.18.2.28.28.3.27.67.34,1.06.31.25-.02.48-.04.7.12.08.05.18.07.31.03-.06-.07-.1-.13-.14-.18-.32-.36-.63-.73-.95-1.09-2.42-2.66-5.15-4.96-8.19-6.87-3.44-2.17-7.13-3.76-11.07-4.78Z"/>
      <path class="cls-1" d="m32.86,72.56c.04.1.07.18.04.29-.02.1-.02.21,0,.3.13.73.28,1.46.45,2.18.54,2.31,1.29,4.55,2.24,6.72,2.25,5.1,5.43,9.53,9.54,13.29.66.6,1.34,1.18,2.04,1.73.05.04.09.09.17.08.02-.08.05-.16.07-.24,0-.03,0-.07,0-.09-.06-.13-.1-.27-.18-.38-.33-.51-.73-.95-1.21-1.31-.2-.15-.33-.32-.4-.56-.08-.3-.25-.54-.48-.75-.14-.13-.28-.26-.42-.38-.08-.07-.14-.14-.19-.23-.25-.45-.51-.89-.74-1.35-.88-1.73-1.57-3.53-2.08-5.4-.19-.7-.35-1.41-.48-2.12-.01-.07-.03-.13,0-.2.07,0,.08.06.11.09.58.77,1.25,1.47,1.97,2.11,1.39,1.23,2.91,2.27,4.54,3.16.15.08.3.14.46.18.17.04.34.07.51.09.41.04.8-.05,1.14-.3.24-.18.41-.42.53-.69.14-.3.21-.61.25-.93,0-.07,0-.13,0-.25-.06.07-.09.11-.11.14-.2.28-.46.45-.79.53-.56.14-1.11.1-1.64-.14-.83-.39-1.61-.86-2.36-1.39-1.39-.97-2.63-2.11-3.73-3.41-.69-.81-1.32-1.68-1.85-2.6-.1-.17-.19-.35-.26-.53-.47-1.19-1.02-2.34-1.71-3.42-.47-.74-.98-1.43-1.59-2.06-.14-.15-.3-.28-.45-.42-.06-.05-.12-.07-.2-.05-.02,0-.04.02-.07.02-.38.08-.75.09-1.12-.02-.37-.12-.68-.33-.94-.62-.28-.31-.52-.65-.59-1.08-.1-.56-.1-1.12.09-1.66.04-.12.03-.21-.02-.31-.36-.71-.68-1.44-.98-2.18-.75-1.85-1.37-3.73-1.71-5.7-.11-.63-.17-1.27-.2-1.91-.02-.51,0-1.01.07-1.51,0-.05,0-.09,0-.19-.04.09-.07.14-.09.19-.17.46-.26.94-.33,1.43-.03.22-.04.44-.06.66-.01.11,0,.22-.08.31v1.04c.08.1.07.22.08.34.02.21.03.42.05.64.08.91.25,1.81.47,2.7.34,1.44.81,2.83,1.37,4.2.27.66.56,1.3.85,1.95Z"/>
      <path class="cls-1" d="m106.75,67.19c-.15-.38-.29-.77-.43-1.15-.05-.14-.09-.28-.1-.44,0-.06,0-.11,0-.17.01-.35-.12-.66-.26-.97,0-.01-.02-.02-.04-.03-.04.06-.07.12-.11.18-.03.05-.07.11-.11.16-.05.06-.11.07-.17.04-.13-.08-.24-.18-.26-.35-.02-.18-.06-.36-.08-.54-.01-.12-.06-.23-.12-.33-.23-.36-.48-.7-.76-1.03-.03-.04-.06-.07-.1-.1-.12-.13-.27-.22-.45-.22-.19,0-.38-.02-.57-.02-.1,0-.19,0-.27-.06-.14-.09-.29-.12-.45-.11-.06,0-.13,0-.19,0-.11,0-.22-.02-.32-.07-.07-.04-.14-.07-.22-.1-.07-.02-.14-.05-.2-.05-.2,0-.39,0-.59,0-.11,0-.18.05-.22.14-.06.13-.1.26-.07.41.06.04.12.08.18.11.33.18.56.45.76.76.07.11.13.22.17.34.14.41.05.76-.26,1.06-.05.05-.11.09-.17.13-.04.03-.09.06-.14.1.06.39-.1.71-.31,1.02-.02.03-.04.05-.06.08-.13.15-.25.31-.38.45-.27.29-.56.55-.88.79-.03.02-.05.05-.07.07h7.29s-.02-.08-.03-.11Z"/>
      <path class="cls-1" d="m84.76,95.55c-.11.09-.23.12-.37.12-.69,0-1.39,0-2.08,0-.33,0-.66.03-.98.11-.03,0-.06.02-.09.02-.04,0-.09,0-.15,0,.06-.21.1-.4.18-.58.07-.17.08-.33.04-.51,0-.04-.02-.08-.02-.12-.02-.22-.09-.43-.2-.62-.04-.07-.06-.15-.08-.22-.04-.15-.1-.28-.19-.4-.09-.13-.22-.22-.35-.32-.11-.09-.22-.18-.31-.28-.1-.11-.14-.24-.1-.4.02-.09.03-.19.02-.28-.02-.3-.05-.6-.08-.9-.02-.16-.04-.33-.05-.49-.02-.2-.05-.39-.05-.59,0-.08-.02-.15-.06-.22-.07-.13-.13-.27-.18-.41-.04-.1-.08-.19-.16-.26-.06-.05-.11-.11-.17-.17-.07-.07-.12-.14-.15-.23-.07-.18-.14-.37-.22-.55-.03-.08-.04-.16-.02-.25.06-.22.08-.45.07-.68,0-.05,0-.09,0-.14.01-.18.04-.36.14-.52.09-.15.14-.32.13-.5,0-.28.07-.55.13-.82.01-.05.03-.12.07-.14.13-.09.23-.22.31-.35.02-.04.07-.06.11-.09.09-.09.19-.17.27-.26.08-.09.08-.13,0-.22-.06-.06-.11-.13-.13-.22-.1-.4-.2-.8-.3-1.19-.02-.1-.03-.2-.03-.3,0-.22-.05-.44-.11-.65-.02-.06-.06-.13-.12-.17-.17-.13-.27-.31-.36-.49-.15-.29-.31-.59-.46-.88-.19-.36-.43-.7-.72-.99-.13-.13-.21-.27-.28-.43-.08-.18-.13-.35-.05-.55.01-.04.01-.08.02-.12.03-.35.06-.69.08-1.04,0-.13.03-.25.07-.37.03-.07.05-.15.08-.22.12-.31.16-.63.14-.95,0-.07-.02-.14-.05-.2-.05-.11-.12-.22-.19-.33-.17-.04-.34-.08-.51-.12-.12-.03-.24-.04-.35-.02-.26.05-.52.02-.78.04-.23.02-.41-.08-.58-.22-.06-.05-.11-.11-.17-.17-.13-.13-.25-.26-.39-.39-.08-.08-.17-.14-.25-.21-.06-.04-.12-.06-.2-.06-.1,0-.2,0-.31,0-.22,0-.44-.02-.66.04-.24.07-.47.11-.72.15-.18.03-.34.11-.48.23-.17.14-.35.27-.53.4-.04.03-.09.05-.13.05-.26,0-.52,0-.78,0-.03,0-.06,0-.09-.02-.19-.06-.39-.12-.58-.19-.19-.07-.36-.07-.54.06-.19.14-.41.24-.63.32-.09.03-.18.05-.28.05-.23,0-.46,0-.69,0-.17,0-.33-.02-.46-.14-.03-.03-.08-.05-.12-.07-.17-.08-.3-.2-.42-.34-.29-.34-.62-.63-1.01-.85-.1-.06-.21-.12-.3-.18-.09-.07-.18-.15-.27-.23-.06-.06-.1-.14-.11-.23-.01-.1-.03-.2-.06-.3-.13-.5-.14-.6-.65-.96-.29-.2-.56-.41-.82-.63-.1-.08-.19-.19-.26-.3-.05-.08-.1-.16-.16-.23-.06-.07-.12-.14-.18-.22-.08-.1-.13-.21-.15-.34-.02-.21-.06-.42-.09-.63-.03-.2-.07-.4-.11-.61-.01-.08-.05-.14-.11-.2-.08-.07-.16-.15-.2-.26.03-.03.05-.05.08-.07.31-.19.51-.47.66-.79.02-.04.04-.07.05-.11.11-.23.17-.47.16-.73,0-.21,0-.43,0-.64,0-.12.01-.23.06-.35.02-.05.04-.1.04-.16.02-.24.01-.47-.09-.7-.08-.18-.16-.36-.23-.54-.09-.21-.19-.42-.28-.63-.08-.18-.06-.24.08-.37.21-.19.41-.39.58-.62.1-.14.16-.29.15-.46,0-.12-.02-.25-.03-.38.03-.04.06-.09.1-.13.27-.33.55-.66.8-1,.29-.38.63-.7,1.02-.97.16-.11.32-.2.52-.17.01,0,.03,0,.06-.02.1-.11.21-.24.32-.37q.34-.4.81-.62c1-.47,2.06-.79,3.14-1.03.52-.12,1.05-.22,1.58-.3.41-.06.83-.13,1.24-.17.38-.05.77-.08,1.15-.11.61-.05,1.23-.1,1.84-.12.75-.03,1.5-.03,2.25-.03.5,0,.99.02,1.49.02.14,0,.28.01.41.05.09.11.14.24.25.32.43.34.88.67,1.27,1.06.04.04.09.06.15.05.3-.03.6-.06.89-.09.04,0,.07-.02.12-.03.05-.11.1-.22.15-.32.14-.28.28-.57.27-.9.21-.14.43-.22.67-.19.07,0,.14.02.21.02.16,0,.31.04.46.09.12.04.21.1.26.22.03.07.08.13.16.16.23.08.44.21.64.35.05.04.11.05.18.06.19.01.38.03.57.05.07,0,.14.03.2.05.14.07.28.14.42.21.26.12.52.18.8.1.09-.03.18-.04.28-.06.33-.06.67-.12,1.01-.13.1,0,.2,0,.3.05.09.04.19.07.29.09.14.04.25,0,.34-.11.06-.08.12-.17.16-.26.09-.19.16-.38.24-.57.02-.05.03-.11.04-.16.02-.41.04-.82.06-1.23,0-.06,0-.13,0-.19-.04-.26-.19-.43-.45-.48-.05-.01-.11,0-.16-.02-.03,0-.08.02-.1-.04.05-.03.1-.05.14-.08.14-.09.29-.16.42-.26.98-.7,1.37-1.67,1.28-2.86,0-.03,0-.08-.07-.07-.04.17-.1.34-.21.49-.17.22-.36.42-.57.6-.4.34-.84.61-1.31.84-.87.42-1.79.69-2.73.9-.62.14-1.25.26-1.88.34-.45.06-.91.13-1.36.17-.48.05-.96.08-1.44.11-.95.07-1.91.1-2.86.09-.48,0-.96-.02-1.44-.02-.25,0-.51,0-.76.02-.42.02-.84.03-1.25.07-.52.05-1.04.1-1.55.17-.58.08-1.16.15-1.73.26-.68.12-1.36.26-2.04.41-1.17.25-2.33.55-3.48.89-.74.22-1.48.44-2.24.6-.78.16-1.56.33-2.34.49-.62.12-1.24.23-1.86.35-.57.1-1.13.21-1.7.31-.5.09-.99.17-1.49.26-.51.09-1.03.18-1.54.26-.43.07-.86.14-1.28.21-.33.05-.67.11-1,.16-.14.02-.27.08-.38.17-.67.5-1.34,1-2.01,1.5-.88.67-1.78,1.31-2.65,2-.33.26-.69.47-1.1.6-.69.21-1.34.14-1.93-.3-.02-.02-.05-.03-.09-.05-.23.34-.4.7-.48,1.1-.03.14-.02.28-.02.42,0,.08.02.16.09.21.2.05.41.04.61.03.3-.02.6-.04.9-.07.37-.03.74-.07,1.11-.11.34-.04.67-.08,1.01-.13.39-.05.78-.1,1.17-.16.38-.05.76-.11,1.15-.17.37-.05.75-.11,1.12-.16.46-.07.92-.14,1.38-.22.45-.07.9-.14,1.36-.21.44-.07.87-.14,1.31-.21.44-.07.89-.15,1.33-.22.41-.06.81-.15,1.22-.19.45-.04.9,0,1.33.13.5.15.92.41,1.26.81.16.18.26.39.31.63.08.43.06.85-.03,1.27-.13.57-.37,1.09-.66,1.59-.41.71-.91,1.35-1.47,1.94-.17.18-.35.36-.54.53-.21.19-.44.36-.65.55-1.5,1.26-2.95,2.57-4.31,3.99-.74.78-1.45,1.59-2.05,2.48-.43.63-.86,1.27-1.21,1.95-.23.44-.42.9-.52,1.39-.05.23-.07.45-.03.68.03.16.08.31.19.43.06.06.12.13.22.13,0-.04.02-.08.03-.12.06-.24.11-.49.19-.73.16-.51.38-.98.7-1.41.05-.07.09-.14.18-.18.11.16.21.31.31.45.08.02.16.04.23.06.24.06.49.13.73.19.18.05.33.15.44.31,0,.03,0,.07.01.11.03.35.05.71.1,1.06.06.36.06.72.03,1.08-.01.14-.04.28-.14.39-.04.04-.06.09-.1.13-.04.04-.08.09-.12.1-.17.05-.26.16-.34.31-.02.04-.05.08-.08.12-.23.24-.34.54-.4.86-.06.31-.07.61.04.91.04.09.07.2.07.3,0,.44.06.89-.09,1.32,0,.02-.01.05-.01.07-.06.29-.11.59-.17.88-.03.17-.05.34-.01.52.01.05.01.11,0,.16-.02.2-.12.36-.25.5-.08.09-.17.15-.3.17-.3.04-.61.1-.91.13-.42.05-1.01.39-1.22,1.05.05.05.1.11.15.16.05.05.1.1.14.16.05.07.07.15,0,.22-.07.07-.06.16-.09.24-.05.15-.08.31-.13.45-.1.24-.16.49-.17.76,0,.2-.04.39-.14.56-.16.03-.16.03-.29.11-.17.11-.34.22-.52.34-.01,0-.01.03-.02.04.05.03.09.06.14.1-.04.06-.08.11-.12.17.1.07.19.13.29.19-.03.07-.06.13-.09.2-.02.05-.05.1-.05.16-.03.28-.05.56-.07.84.06.03.1.06.15.08.68.34,1.36.67,2.04,1,.08.04.16.07.23.12.28.17.4.48.32.8-.04.14-.1.27-.18.38-.16.22-.38.31-.64.27-.11-.01-.21-.06-.31-.1-.11-.04-.21-.1-.32-.15-.05-.02-.1-.04-.16-.06-.17.34-.33.67-.49.99.02.03.02.04.03.05.05.04.1.08.15.11,3.08,2.07,6.38,3.67,9.91,4.81,1.48.48,2.98.86,4.51,1.16.96.19,1.92.34,2.9.44.58.06,1.16.13,1.74.17.59.04,1.18.07,1.77.09,1.18.04,2.37.01,3.55-.06.73-.05,1.46-.1,2.19-.2.61-.08,1.22-.15,1.83-.25,1.04-.17,2.08-.39,3.1-.65,1.34-.34,2.66-.74,3.95-1.22v-7.93c-.13.09-.25.17-.38.27Z"/>
      <path class="cls-1" d="m110.91,65.31c-.01-.58-.05-1.15-.08-1.73,0-.04-.02-.09-.03-.15-.16.04-.3.09-.44.13-.27.06-.49.2-.68.4-.14.14-.28.28-.45.38-.12.07-.17.18-.19.31,0,.05,0,.1,0,.14.04.11.01.22-.02.32-.08.25-.15.5-.23.75-.03.1-.08.21-.13.3-.13.25-.3.49-.4.75-.05.12-.09.25-.12.38h2.77c.01-.66.02-1.32,0-1.99Z"/>
      <path class="cls-1" d="m95.23,66.97c-.03-.29-.11-.57-.27-.82-.21-.32-.4-.66-.6-.99-.07-.11-.15-.2-.25-.28-.13-.11-.26-.23-.4-.34-.06-.05-.09-.11-.09-.18,0-.17-.03-.33-.04-.49-.03-.27-.11-.52-.24-.76-.12-.21-.25-.42-.39-.62-.1-.14-.21-.28-.37-.35-.06-.03-.08-.08-.08-.13-.04-.28-.14-.55-.24-.82-.03-.08-.05-.15-.12-.2-.16-.11-.25-.26-.34-.42-.05-.08-.1-.16-.15-.24-.11-.21-.28-.31-.52-.29-.02,0-.03,0-.05.01-.07.13-.15.25-.23.38-.04.08-.07.16-.06.25.01.16.02.31.03.47,0,.08.03.15.09.21.1.11.19.23.28.35.19.26.33.53.3.87-.01.15,0,.3,0,.44.06.05.11.09.16.13.16.12.29.27.41.43.27.36.4.76.35,1.22-.01.1,0,.21.03.3.06.16.12.32.2.48.1.18.24.34.42.43.11.05.16.14.2.24.14.35.31.7.49,1.04h1.51c0-.11-.01-.22-.02-.33Z"/>
      <path class="cls-1" d="m96.48,50.53q.26-.2.55-.25c.03-.13-.02-.24-.1-.35-.05-.07-.12-.13-.17-.2-.07-.1-.16-.14-.28-.14-.25,0-.5,0-.76,0-.11,0-.2.03-.3.07-.09.04-.16.1-.19.2-.03.11-.07.21-.08.32-.02.19-.09.37-.16.54-.03.06-.05.13-.08.2.08.15.17.29.25.43.08.14.15.27.18.44,0,.05.04.11.07.15.11.14.21.27.33.4.22.25.43.5.66.75.12.13.15.27.12.44-.04.23-.08.47-.11.7-.02.15-.02.3-.03.45,0,.16.07.27.22.33.13.05.26.1.4.15.06.02.12.04.17.08.16.14.35.24.53.36.12.09.24.1.38.06.28-.07.5-.23.66-.49-.1-.06-.13-.15-.15-.25-.07-.33-.2-.63-.39-.91-.12-.18-.23-.36-.34-.54-.05-.08-.1-.16-.12-.25-.07-.26-.2-.49-.32-.73-.07-.14-.14-.28-.2-.43-.03-.06-.04-.13-.08-.17-.16-.17-.31-.35-.51-.49-.11-.07-.22-.16-.32-.24-.12-.1-.12-.38.02-.48.06-.05.13-.09.19-.14Z"/>
      <path class="cls-1" d="m71.22,70.83c.31,0,.62,0,.92,0,.12,0,.24-.02.35-.06.09-.03.17-.03.25-.04.12,0,.23.05.35.07.05.01.1.01.16.02.1-.21.2-.41.28-.61.04-.08.09-.13.18-.14.09-.01.19,0,.28-.07v-.2c-.07-.03-.13-.06-.18-.09-.13-.05-.25-.13-.34-.25-.1-.12-.21-.23-.32-.35-.11-.12-.22-.25-.32-.36,0-.22.11-.41.04-.63-.09-.03-.14,0-.2.03-.07.03-.15.06-.23.06-.44.02-.83.19-1.18.43-.31.21-.6.44-.89.66-.11.08-.21.17-.3.27-.28.3-.42.67-.4,1.08.01.34.2.58.54.66.19.04.39.05.59.06.1,0,.19-.02.27-.08,0-.14-.11-.26-.07-.41.07-.08.15-.07.24-.07Z"/>
      <path class="cls-1" d="m97.89,59.39c-.09-.11-.19-.21-.32-.28-.22-.13-.42-.1-.64.07.03.11.07.23.09.36.04.18.11.34.21.5.06.09.12.19.15.29.05.15.13.28.24.4.11.11.21.23.26.39.04.12.13.21.24.28.07.05.14.1.22.13.14.06.21.16.24.3.02.08.04.17.03.25-.01.18.05.32.14.47.1.18.24.23.43.21.02,0,.05-.01.07-.01.25,0,.45-.1.62-.3.11-.13.22-.27.31-.41.16-.26.28-.55.51-.76,0,0,0-.02,0-.06-.15-.05-.29-.09-.44-.06-.12.03-.24.07-.35.12-.09.05-.18.05-.27,0-.04-.02-.07-.03-.1-.05-.22-.16-.48-.28-.67-.48-.24-.24-.48-.47-.62-.79-.09-.21-.22-.4-.37-.58Z"/>
      <path class="cls-1" d="m47.98,97.71c.06.04.11.1.21.13.13-.26.25-.51.38-.77-.12-.09-.23-.15-.38-.19,0,.15-.07.24-.15.34-.06.07-.12.15-.17.23-.03.04-.04.08-.07.12.07.05.12.1.18.14Z"/>
      <path class="cls-1" d="m50.09,68.1s-.03,0-.04,0c0,0-.01.02-.02.03.01,0,.02,0,.03,0,0,0,.01-.01.02-.02Z"/>
      <polygon class="cls-1" points="50.04 68.13 50.02 68.13 50.03 68.14 50.04 68.13"/>
      <path class="cls-1" d="m46.75,74.11s-.02,0-.03,0c.01,0,.02,0,.03.01,0,0,0-.01,0-.02Z"/>
      <path class="cls-1" d="m46.72,74.11s0,0-.01,0c0,0,0,0,0,0,0,0,.01,0,.02,0Z"/>
    </g>
  </g>
</svg>