<?xml version="1.0" encoding="UTF-8"?>
<svg id="_レイヤー_2" data-name="レイヤー 2" xmlns="http://www.w3.org/2000/svg" viewBox="0 0 281.09 21.41">
  <defs>
    <style>
      .cls-1 {
        fill: #fff;
      }
    </style>
  </defs>
  <g id="_モバイル" data-name="モバイル">
    <g>
      <path class="cls-1" d="m0,.34h12.67v3.85h-7.97v4.74h7.44v3.81h-7.44v8.34H0V.34Z"/>
      <path class="cls-1" d="m21.94.34v20.73h-4.71V.34h4.71Z"/>
      <path class="cls-1" d="m27.17,16.24c1.26.65,3.2,1.29,5.2,1.29,2.15,0,3.29-.89,3.29-2.25s-.98-2.03-3.48-2.92c-3.45-1.2-5.69-3.11-5.69-6.12,0-3.54,2.95-6.24,7.84-6.24,2.34,0,4.06.49,5.29,1.05l-1.05,3.78c-.83-.4-2.31-.98-4.34-.98s-3.01.92-3.01,2c0,1.32,1.17,1.91,3.84,2.92,3.66,1.35,5.38,3.26,5.38,6.18,0,3.48-2.68,6.43-8.37,6.43-2.37,0-4.71-.62-5.88-1.26l.95-3.88Z"/>
      <path class="cls-1" d="m49.35.34v7.97h7.72V.34h4.68v20.73h-4.68v-8.67h-7.72v8.67h-4.71V.34h4.71Z"/>
      <path class="cls-1" d="m71.56.34v20.73h-4.71V.34h4.71Z"/>
      <path class="cls-1" d="m76.64,21.07V.34h5.48l4.31,7.6c1.23,2.18,2.46,4.77,3.38,7.11h.09c-.31-2.74-.4-5.54-.4-8.64V.34h4.31v20.73h-4.92l-4.43-8c-1.23-2.21-2.58-4.89-3.6-7.32l-.09.03c.12,2.74.18,5.66.18,9.04v6.24h-4.31Z"/>
      <path class="cls-1" d="m116.21,20.12c-1.45.49-4.18,1.17-6.92,1.17-3.78,0-6.52-.95-8.43-2.8-1.91-1.78-2.95-4.49-2.92-7.54.03-6.89,5.04-10.83,11.84-10.83,2.68,0,4.74.52,5.75,1.02l-.98,3.75c-1.14-.49-2.55-.89-4.83-.89-3.91,0-6.86,2.21-6.86,6.71s2.68,6.8,6.52,6.8c1.08,0,1.94-.12,2.31-.31v-4.34h-3.2v-3.66h7.72v10.92Z"/>
      <path class="cls-1" d="m128.73.58c1.29-.22,2.98-.4,5.14-.4,2.64,0,4.58.62,5.81,1.72,1.14.98,1.82,2.49,1.82,4.34s-.55,3.35-1.6,4.43c-1.42,1.51-3.72,2.28-6.34,2.28-.8,0-1.54-.03-2.15-.18v8.31h-2.68V.58Zm2.68,10c.58.15,1.32.22,2.21.22,3.23,0,5.2-1.57,5.2-4.43s-1.94-4.06-4.89-4.06c-1.17,0-2.06.09-2.52.22v8.06Z"/>
      <path class="cls-1" d="m149.47,14.55l-2.15,6.52h-2.77L151.59.34h3.23l7.07,20.73h-2.86l-2.21-6.52h-7.35Zm6.8-2.09l-2.03-5.97c-.46-1.35-.77-2.58-1.08-3.78h-.06c-.31,1.23-.65,2.49-1.05,3.75l-2.03,6h6.24Z"/>
      <path class="cls-1" d="m165.59,17.81c1.2.74,2.95,1.35,4.8,1.35,2.74,0,4.34-1.45,4.34-3.54,0-1.94-1.11-3.05-3.91-4.12-3.38-1.2-5.48-2.95-5.48-5.88,0-3.23,2.68-5.63,6.71-5.63,2.12,0,3.66.49,4.58,1.02l-.74,2.18c-.68-.37-2.06-.98-3.94-.98-2.83,0-3.91,1.69-3.91,3.11,0,1.94,1.26,2.89,4.12,4,3.51,1.35,5.29,3.05,5.29,6.09,0,3.2-2.37,5.97-7.26,5.97-2,0-4.18-.58-5.29-1.32l.68-2.25Z"/>
      <path class="cls-1" d="m181.78,17.81c1.2.74,2.95,1.35,4.8,1.35,2.74,0,4.34-1.45,4.34-3.54,0-1.94-1.11-3.05-3.91-4.12-3.38-1.2-5.48-2.95-5.48-5.88,0-3.23,2.68-5.63,6.71-5.63,2.12,0,3.66.49,4.58,1.02l-.74,2.18c-.68-.37-2.06-.98-3.94-.98-2.83,0-3.91,1.69-3.91,3.11,0,1.94,1.26,2.89,4.12,4,3.51,1.35,5.29,3.05,5.29,6.09,0,3.2-2.37,5.97-7.26,5.97-2,0-4.18-.58-5.29-1.32l.68-2.25Z"/>
      <path class="cls-1" d="m198.33.58c1.29-.22,2.98-.4,5.14-.4,2.64,0,4.58.62,5.81,1.72,1.14.98,1.82,2.49,1.82,4.34s-.55,3.35-1.6,4.43c-1.42,1.51-3.72,2.28-6.34,2.28-.8,0-1.54-.03-2.15-.18v8.31h-2.68V.58Zm2.68,10c.58.15,1.32.22,2.21.22,3.23,0,5.2-1.57,5.2-4.43s-1.94-4.06-4.89-4.06c-1.17,0-2.06.09-2.52.22v8.06Z"/>
      <path class="cls-1" d="m233.43,10.49c0,7.14-4.34,10.92-9.63,10.92s-9.32-4.25-9.32-10.52c0-6.58,4.09-10.89,9.63-10.89s9.32,4.34,9.32,10.49Zm-16.09.34c0,4.43,2.4,8.4,6.61,8.4s6.64-3.91,6.64-8.61c0-4.12-2.15-8.43-6.61-8.43s-6.64,4.09-6.64,8.64Z"/>
      <path class="cls-1" d="m237.93.62c1.35-.28,3.29-.43,5.14-.43,2.86,0,4.71.52,6,1.69,1.05.92,1.63,2.34,1.63,3.94,0,2.74-1.72,4.55-3.91,5.29v.09c1.6.55,2.55,2.03,3.05,4.18.68,2.89,1.17,4.89,1.6,5.69h-2.77c-.34-.58-.8-2.37-1.38-4.95-.62-2.86-1.72-3.94-4.15-4.03h-2.52v8.98h-2.68V.62Zm2.68,9.44h2.74c2.86,0,4.68-1.57,4.68-3.94,0-2.68-1.94-3.85-4.77-3.88-1.29,0-2.21.12-2.64.25v7.57Z"/>
      <path class="cls-1" d="m259.43,2.61h-6.31V.34h15.35v2.28h-6.34v18.46h-2.71V2.61Z"/>
      <path class="cls-1" d="m281.09,5.04c0,2.86-2.25,5.11-5.17,5.11s-5.2-2.25-5.2-5.11,2.31-5.04,5.2-5.04,5.17,2.25,5.17,5.04Zm-9.07,0c0,2.25,1.66,4.03,3.94,4.03s3.84-1.78,3.84-4-1.63-4.06-3.88-4.06-3.91,1.81-3.91,4.03Zm3.11,2.65h-1.17V2.65c.46-.09,1.11-.15,1.94-.15.95,0,1.38.15,1.75.37.28.22.49.62.49,1.11,0,.55-.43.98-1.05,1.17v.06c.49.18.77.55.92,1.23.15.77.25,1.08.37,1.26h-1.26c-.15-.18-.25-.65-.4-1.23-.09-.55-.4-.8-1.05-.8h-.55v2.03Zm.03-2.86h.55c.65,0,1.17-.22,1.17-.74,0-.46-.34-.77-1.08-.77-.31,0-.52.03-.65.06v1.45Z"/>
    </g>
  </g>
</svg>