<?xml version="1.0" encoding="UTF-8"?>
<svg id="_レイヤー_2" data-name="レイヤー 2" xmlns="http://www.w3.org/2000/svg" viewBox="0 0 163.97 203.96">
  <defs>
    <style>
      .cls-1, .cls-2 {
        fill: #fff;
      }

      .cls-3 {
        fill: #1a1a1a;
      }

      .cls-2 {
        stroke: #c7161d;
        stroke-width: .85px;
      }

      .cls-2, .cls-4 {
        stroke-linecap: round;
        stroke-linejoin: round;
      }

      .cls-4 {
        fill: #c30000;
        stroke: #1a1a1a;
        stroke-width: 2.27px;
      }
    </style>
  </defs>
  <g id="_01" data-name="01">
    <g>
      <path class="cls-3" d="m73.49,0c4.55.57,4.7,7.5.01,8.12,3.45,20.84,10.86,28.73,22.54,6.17-3.48-2-.96-7.62,2.88-6.23,3.97,1.32,2.36,7.31-1.63,6.68-4.89,14.81.45,25.78,12.81,9.72-3.02-3.45,3.36-7.14,4.8-2.75.74,2.34-1.88,4.43-4.03,3.33-6.14,6.77-9.8,15.44-12.11,24.19-16.4-6.23-35.41-6.25-51.8,0-2.3-8.78-6.01-17.36-12.08-24.2-3.72,1.86-6.06-4.29-2.01-5.28,2.59-.75,4.65,2.69,2.73,4.71,12.39,16.03,17.66,5.12,12.85-9.68-4.29.56-5.59-5.99-1.23-6.84,3.6-.92,5.78,4.44,2.46,6.34,11.72,22.66,19.11,14.56,22.55-6.2C67.75,7.23,67.99.56,72.5,0,72.83,0,73.16,0,73.49,0Z"/>
      <g>
        <path class="cls-3" d="m28.81,128.16c-1.12-1.22-2.76-2.19-4.04-3.35.13-.38.34-.72.5-1.05,2.97-.18,6.03.04,9.02-.08-2.76-.57-5.57-.81-8.33-1.37,1.55-3.06,6-2.88,8.7-4.54-.06-.02-.08,0-.1.06-2.57.57-5.12,1.45-7.69,2.13-1.91-1.36-4.27-2.13-5.64-4.14-.96,4.25-1.54,7.19-6.62,7.6-7.79,3.89-7.53,1.4-4.34-5.33,3.24-5.94,8.8-10.1,14.6-13.34-3.59.71-6.66,2.91-9.35,5.29,3.36-6.53,10.4-9.97,17.03-12.19,1.9-1.85,4.06-3.83,6.76-4.31-1.3,1.52-3.73,2.75-4.41,4.77,2.39-1.46,4.56-3.7,7.38-4.34-1.73,1.86-3.9,3.39-5.74,5.19,5.41-2.28,10.83-4.83,16.74-5.38-1.54-.5-1.99-2.05-3.23-2.87-2.56-1.29-2.2-4.06-1.97-6.45.81-7.29,14.13,1.03,16.35,4.47-3.38-2-6.71-4.56-10.65-5.47-4.27-.37-3.57,1.58.09,2.12-1.13-.21-4.46-.09-2.34,1.42,3.09.71,6.47.81,9.28,2.43-2.84-.28-5.89-1.8-8.81-1.22.41,1.71,2.07,4.35,4.26,3.98,3.37-.32,14.64,1.1,10.83-4.81,9.57,2.73,19.92,3.62,29.8,2.1.03-.22,0-.43-.08-.66-1.98-.19-3.93-.74-5.76-1.29-6.55,2.07-19.62,1.02-17.34-8.65,4.96,9.9,17.9,6.69,24.41-.63-12.17-13.3-33.27-20.79-51.04-17.02-24.81,4.91-49.4,30.03-39.61,56.47,1.07,6.86-4.76-9.56-4.11-11.29-2.42-23.6,17.72-43.19,39.3-48.75-3.45-2.12-12.19-4.51-14.7-.97,3.2.34,6.58-.45,9.72.63-10.11.78-16.55,3.46-1.38.95-4.56,2.03-9.21,4.25-13.31,7.22-1.27.64-7.8,7.21-5.13,2.47.62-2.48,6-4.61,5.21-6.32-2.51-1.18-.82-1.66.88-2.38,1.68-1.31-4.71-1.61.4-4.35,2.05-9.32,20.21-.41,26.1,1.55,19.66-1.41,40.76,7.84,54.14,21.93-2.08,2.17-4.31,4.22-6.62,6.15,11.6-3.69,56.54-4.87,30.46,14.48-.19,1.97,3.5,1.85,4.92,2.33,13.79,3.69,11.67,21.92,8.27,32.54.28.15,1.23.43,1.86.54.49-1.46.78-2.97,1.14-4.47.53.05.99.26,1.51.38v.33c-9.72,49.69-70.3,76.19-113.41,49.61-4.24,3.45-10.74-.68-9.39-6-9.19-6.76-16.59-15.67-21.26-26.12-2.44-3,.73-7.33,3.62-3.91,4.3,10.46,11.55,19.57,20.7,26.22,1.6-.79,3.45-.83,5.08-.1.55-.92.93-1.87,1.43-2.83-.54-.45-1.45-.5-1.81-1.13-.16-.61.54-1.3,1.12-.84,1.26.98,4.06,1.21,4.44,2.77-.41,1.3-1.64.07-2.42-.16-.19.26-1.24,2.34-1.49,2.95,1.23,1.08,1.96,2.46,2.15,4.09,7.6,4.36,15.92,7.44,24.62,8.74.1-1.59,1.88-1.36,1.52.2,7.75,1.09,15.78.91,23.47-.59-.79-1.73,1.28-2.05,1.45-.27,8.03-1.63,15.74-4.82,22.72-9.09-1.3-1.57.44-2.64,1.28-.79,6.85-4.38,12.84-9.93,17.87-16.31-1.83-1.18-.58-2.97.9-1.19,4.75-6.34,8.51-13.49,10.88-21.05-3.12-.4-2.36-2.66.44-1.38,3.56-10.24,5.39-29.23-9.1-30.96-1.73-.42-4.47-1.17-4.25-3.43,1.25-3.94,6.87-4.33,7.94-8.51.68-10.81-30.79-5.98-37.57-4.08,1.95,1.6,4.55.68,6.76,1.06,1.11,4.15-17.85,5.51-21.35,4.42-9.49-.03-18.29,3.84-27.41,5.89-5.11,1.41-10.63,1.35-15.7,1.99-3.92,1.42-12.03,13.76-9.65,2.74-3.05-.43-5.69,6.45-6.8,8.94-3.84,11.06,30.39-3.91,28.54,3.07-8.5,11.9-23.21,17.09-18.63,34.77-10.99-3.2-13.64-15.03-20.32-22.7.2-.18.4-.32.62-.45,2.09,1.57,4.21,3.31,6.86,3.77.57,3.22,1.79,6.44,4.21,8.73-.96-3.04-2.73-6.02-3.19-9.27.18-.23,1.12-1.08,1.54-1.38.78,1.21,1.35,2.63,2.1,3.89.8-1.17-1.25-3.27-1.52-4.73.25-.35,1.12-1.26,1.4-1.47,1.48.75,2.89,1.64,4.39,2.35,0-.01,0-.02,0-.03-.03,0-.06,0-.09.01Zm80.77,47.44c1.31-.41-10.87,6.58-23.12,9.27.07.41.64,2.28.79,2.57,8.39-1.71,16.45-5.1,23.72-9.62-.46-.76-.91-1.48-1.39-2.22Zm-49.21,12.7c8.42,1.18,17.08,1.12,25.42-.58-.26-.86-.52-1.7-.79-2.59-7.97,1.53-16.15,1.7-24.19.65-.26.79-.26,1.64-.44,2.51Zm51.82-11.27c7.12-4.58,13.43-10.46,18.58-17.18-.26-.32-1.48-1.44-1.76-1.63-5.09,6.51-11.34,12.05-18.19,16.6.46.73.91,1.46,1.38,2.2Zm-52.91,8.53c-8.6-1.37-16.89-4.41-24.52-8.51-.19.69-.48,1.32-.85,1.94,7.69,4.47,16.2,7.66,24.99,9.06.12-.37.39-2.18.38-2.49Zm72.4-26.89c5.09-6.88,8.94-14.62,11.43-22.81-.62-.23-1.28-.45-1.94-.52-2.55,7.86-6.3,15.07-11.26,21.68.58.57,1.16,1.1,1.76,1.65Zm-102.63,14.08c-3.83,0-3.83,5.87.01,5.87,3.78.19,3.73-6.12-.01-5.87Z"/>
        <path class="cls-3" d="m8.68,112.62c-.23-.06-.41-.11-.61-.16-5.68-37.78,41.86-61.71,72.58-44.37.64.97-.87,1.53-1.62,1.64-7.28.54-13.1,7.63-9.67,14.71-.29,1.49-3.1-4.01-2.89-4.96-.81-8.39,6.77-8.58-6-10.05-25.55-3.65-54.4,15.49-51.79,43.21Z"/>
        <path class="cls-3" d="m45.64,86.2c.28,1.91,1.85,3.96,1.06,5.83-2.8,3.39-4.93-1.66-5.11-4.21-2.15-7.29,10.48-10.35,4.05-1.62Z"/>
        <path class="cls-3" d="m85.49,73.26c-1-.92-1.99-1.79-2.97-2.71,3.02.01,5.25,2.77,5.03,5.7.5,2.87,3.79,2.21,5.31,3.03-4.08,1.98-8.21-1.66-7.37-6.03Z"/>
        <path class="cls-3" d="m90.83,78.15c-3.31.15-3.33-5.3.01-5.17,3.32-.1,3.32,5.31-.01,5.17Zm1.86-3.2c-.39-2.35-4.49-1.41-3.83,1.02.16.97,1.35,1.99,2.55,1.5-3.61-.16-.86-5.38,1.27-2.51Z"/>
        <path class="cls-3" d="m63.48,85.37c-2.94.13-2.9-4.61-.04-4.53,2.93-.21,2.92,4.76.04,4.53Z"/>
      </g>
      <g>
        <path class="cls-3" d="m47.93,52.01c24.69-13.01,58.96-2.06,76.21,19.15-1.18-.41-2.54.06-3.58-.79-.45-.39-.83-.97-1.45-1.07-1.21-.15-2.25.56-3.43.15-.74-.06-.95-.97-1.81-.94.25,1.89-1.36,1.56-2.48.76-1.82-.09-3.74-.14-5.57-.61-.45-.1-1.06.16-1.42-.2-.26-.42-.61-.61-1.1-.48-.62.24-1.21,1.06-1.85.34-1.57-1.23-3.93-.55-5.26-2.3-1.66-.15-3.44-.66-5.06-1.37-9.35-5.98-20.11-9.69-31.14-10.89-4.08-.68-8.4.52-12.06-1.74Z"/>
        <g>
          <path class="cls-3" d="m0,106.67c.39-1.44.23-3.07.96-4.47-.88,7.18,2.49,13.96,4.9,20.4-.53,1.58-.35,3.53.87,4.74.88,1.05,2.38,1.47,3.68,1.07,3.67,2.48,5.4,7.28,7.26,11.21,2.84,4.47,12.61,16.66,18.13,11.87-1.44,9.81-13.52-2.67-16.44-6,1.09,5.79,2.89,12.21,6.77,16.75.8.58.71,1.71,1.51,2.26.94.89,2.66,2.08,2.3,3.52C10.95,154.2,4.53,130.21,0,108.47v-1.8Z"/>
          <path class="cls-3" d="m33.65,170.77c.28-.56.56-1.13.85-1.71,1.01.61,2.48.91,2.8-.6.09-2.18-3.34-2.31-4.74-3.46.09-.7,0-1.44.37-2.06-.17-.11-.32-.22-.5-.34.08-.11.14-.19.21-.29-.08-.05-.16-.11-.24-.17.41-.35.88-.72,1.43-.84.4-1.12.38-2.4.92-3.48.25-.36-.36-.66-.53-.93,2.19-4.04,4.76.73,4.97-6.01.71-1.93-.94-4.16.65-5.85.33-.73,1.36-.89,1.36-1.82.08-2.25.22-4.85-2.68-4.87-.18-.26-.35-.52-.54-.79-1.13,1.1-1.55,2.73-1.89,4.23-5.42-9.08,29.18-25.13,16.44-31.75-8.59-.39-17.23,3.13-25.91,2.91-.48-.97.18-2.15.71-3.01,5.01,2.83,9.26-4.43,13.43-6.48,9.96-1.97,20.12-3.51,29.92-6.39,11.52-3.96,27.92,2.39,36.57-7.68.7,2.23-.94,4.67-3.06,5.65,2.18.25,1.23,3.78.39,5.09-.43.54-1.07-.13-1.61-.05-1.21-.04-2.47.73-3.61.16-1.12-.64-2.4-.46-3.48-1.24-.68-.9-2.08-1.16-3.07-.52.02.79-.43,1.42-.73,2.11-1.96.75-3.42-.95-4.64-2.28-8.02.04-18.22-.9-24.61,4.63-2.02.31-3.03,2.57-4.32,3.96.61,1.48-1.45,2.03-1.36,3.16,1.34,2.41,1.65,6.31-.79,8.13.74.8.71,1.89.87,2.93.45,1.29,1.63,2.22,2.72,2.99,1.26.68.9,1.56,1.41,2.58,2.19,1.46,4.37,4.65,7.2,2.51.67-.48,1.4.18,2.09.26,2.09.25,3.47-1.9,5.7-1.51,1.04-.17,1.59.84,2.28,1.44,1.09.85,2.6-.05,3.83.56,1.09,1.69-.45,3.71-.25,5.59-.22.6.17,1.25.56,1.69,1.25,1.11,1.56,2.9,2.68,4.08.56,1.44.72,3.42,1.2,4.77-1.91,1.49-1.94,4.25-2.11,6.48,1.35,2.16,2.14,4.44,1.93,7.08-.18.86.91,1.14,1.31,1.73.79,1.32,1.14,2.79.47,4.24,2.07-.51,4.36.14,6.37-.42,2.98-1.88,6.32-3.93,6.93-7.65,2.79-1.06,2.55-3.01,2.72-5.3,6.47-5.72,5.44-4.19,5.18-12.72,1.29-6.79,9.96-10.96,9.66-18.64-1.76.51-3.43,1.16-5.18,1.72-.33-.61-.59-1.32-.77-2,2.03-1.45,5.55-1.96,6.78-4,1.03-1.38,3.25-2.41,3.08-4.43,2.11-1.1.7-3.55-.94-4.33-.15-1.69,1.92-.76,2.82-.59,1.08.23,2.43.08,3.35.71.62.78,1.42,1.55,1.68,2.53-.05.91.64,2.33,1.25.88,1.46,3.45,1.38,7.43,2.56,11.03,1.12-2.65.66-6.01,2.41-8.55.19-.7.55-1.36.42-2.09.57-1.08,1.84-1.85,3.06-2.1,4.92,55.83-60.22,93.33-105.99,61.07Zm82.4-26c-.43-.05-1.62.61-.97,1.04.5.68-1.29,1.24-1.75,1.66-2.11.98-1.89,3.35-2.58,5.07-1.08.63-1.22,2.76-.03,3.28,3.75-1.91,5.29-7.11,5.32-11.04Z"/>
          <path class="cls-3" d="m106.24,109c.5-1.97-2.31-3.33-.72-5.16.65-.19.96.43,1.24.9.77.76,1,1.75,1.36,2.7,1.9,1.02,1.15,3.65,2.66,4.75,1.68,1.73,2.61,4.99,1.93,7.01-2.47-.99-2.61-4.22-4.47-5.79-.67-1.53-.23-3.44-2-4.41Z"/>
          <path class="cls-3" d="m115.83,86.95c-2.51.71-1.13,1.65.13,2.77.86,1.92,1.93,3.8,2.8,5.67-.67,1.16-1.87.95-2.7.12-.91-.28-1.64-.62-1.31-1.73.79-2.35-1.99-3.57-2.58-5.71.46-.65.22-1.73.9-2.17.98-.27,2.79-.34,2.77,1.06Z"/>
          <path class="cls-3" d="m74.05,117.83c.12.37-.06.71-.07,1.08.63.64,1.13,1.49,2.02,1.8v.34c-.83.06-.95.73-1.27,1.4-1.15-.28-2.32.14-3.51.02-.61-.09-.39.47-.3.83-5.84.46.2-5.95,3.14-5.49Z"/>
          <path class="cls-3" d="m122.22,105.85c-.68,1.61-3.41,4.55-3.65,1.05-1.22-1.24-2.54-2.69-2.9-4.57,2.62-1.26,1.93,4.48,6.55,3.52Z"/>
        </g>
      </g>
      <path class="cls-3" d="m32.05,167.84c-.22.44-.43.88-.66,1.33-.29-.1-.42-.28-.67-.46.17-.44.66-.69.66-1.19.26.07.45.17.66.32Z"/>
      <path class="cls-3" d="m34.57,117.82c.02-.05.04-.07.1-.06-.02.04-.06.04-.11.04,0,0,.01.01.01.01Z"/>
      <path class="cls-3" d="m28.81,128.16s.06,0,.09-.01c0,.01,0,.02,0,.03-.03-.01-.05-.02-.08-.03,0,0,0,.01,0,.01Z"/>
    </g>
    <g>
      <rect class="cls-4" x="96.7" y="117.79" width="66.14" height="85.04" rx="5.67" ry="5.67"/>
      <g>
        <g>
          <path class="cls-2" d="m126.14,138.85v-.2c0-2.05,1.66-3.71,3.71-3.71s3.71,1.66,3.71,3.71c0,.07,0,.15,0,.22h0s-3.7,14.09-3.7,14.09l-3.71-14.11Z"/>
          <path class="cls-2" d="m118.97,142.76l-.1-.17c-.5-.86-.63-1.86-.37-2.81.26-.96.87-1.76,1.73-2.25.56-.33,1.2-.5,1.85-.5,1.32,0,2.56.71,3.22,1.86.04.06.07.13.1.19h0s3.84,14.05,3.84,14.05l-10.27-10.37Z"/>
          <path class="cls-2" d="m114.7,149.74l-.17-.1c-.86-.5-1.47-1.3-1.73-2.25-.26-.96-.12-1.96.37-2.81.66-1.14,1.89-1.86,3.22-1.86.65,0,1.29.17,1.85.5.06.04.13.08.19.12h0s10.34,10.25,10.34,10.25l-14.07-3.84Z"/>
          <path class="cls-2" d="m114.31,157.91c-2.05,0-3.71-1.66-3.71-3.71s1.66-3.71,3.71-3.71c.07,0,.15,0,.22,0h0s14.08,3.7,14.08,3.7l-14.11,3.71h-.2Z"/>
          <path class="cls-2" d="m116.39,165.69c-1.32,0-2.56-.71-3.22-1.86-1.02-1.77-.41-4.04,1.36-5.07.06-.04.13-.07.19-.1h0s14.05-3.84,14.05-3.84l-10.37,10.27-.17.1c-.56.33-1.2.5-1.85.5h0Z"/>
          <path class="cls-2" d="m122.08,171.38c-.65,0-1.29-.17-1.85-.5-.86-.5-1.47-1.3-1.73-2.25-.26-.96-.12-1.96.37-2.81.04-.06.08-.13.12-.19h0s10.25-10.35,10.25-10.35l-3.84,14.07-.1.17c-.66,1.14-1.89,1.86-3.22,1.86h0Z"/>
          <path class="cls-2" d="m129.85,173.46c-2.05,0-3.71-1.66-3.71-3.71,0-.07,0-.15,0-.22h0s3.7-14.09,3.7-14.09l3.71,14.11v.2c0,2.05-1.66,3.71-3.71,3.71Z"/>
          <path class="cls-2" d="m137.63,171.38c-1.32,0-2.56-.71-3.22-1.86-.04-.06-.07-.13-.1-.19h0s-3.83-14.05-3.83-14.05l10.27,10.37.1.17c.5.86.63,1.86.37,2.81-.26.96-.87,1.76-1.73,2.25-.56.33-1.2.5-1.85.5h0Z"/>
          <path class="cls-2" d="m143.32,165.69c-.65,0-1.29-.17-1.85-.5-.06-.04-.13-.08-.19-.12h0s-10.34-10.25-10.34-10.25l14.07,3.84.17.1c.86.5,1.47,1.3,1.73,2.25.26.96.12,1.96-.37,2.81-.66,1.14-1.89,1.86-3.22,1.86h0Z"/>
          <path class="cls-2" d="m145.4,157.91c-.07,0-.15,0-.22,0h0s-14.08-3.7-14.08-3.7l14.11-3.71h.2c2.05,0,3.71,1.66,3.71,3.71s-1.66,3.71-3.71,3.71Z"/>
          <path class="cls-2" d="m141.29,143.32l.17-.1c.56-.33,1.2-.5,1.85-.5,1.32,0,2.56.71,3.22,1.86.5.86.63,1.86.37,2.81-.26.96-.87,1.76-1.73,2.25-.06.04-.13.07-.19.1h0s-14.05,3.84-14.05,3.84l10.36-10.27Z"/>
          <path class="cls-2" d="m134.32,139.05l.1-.17c.66-1.14,1.89-1.86,3.22-1.86.65,0,1.29.17,1.85.5,1.77,1.02,2.38,3.3,1.36,5.07-.04.06-.08.13-.12.19h0s-10.25,10.35-10.25,10.35l3.84-14.07Z"/>
        </g>
        <circle class="cls-2" cx="129.85" cy="154.2" r="3.39"/>
      </g>
      <g>
        <path class="cls-1" d="m108.08,182.41c.41-.07.99-.12,1.8-.12s1.41.16,1.8.47c.38.3.63.79.63,1.36s-.19,1.06-.54,1.4c-.45.43-1.13.62-1.91.62-.17,0-.33,0-.45-.03v2.1h-1.32v-5.8Zm1.32,2.67c.11.03.25.04.45.04.71,0,1.14-.36,1.14-.96,0-.54-.38-.86-1.04-.86-.27,0-.45.03-.55.05v1.74Z"/>
        <path class="cls-1" d="m114.81,186.7l-.42,1.51h-1.38l1.8-5.88h1.75l1.82,5.88h-1.43l-.45-1.51h-1.68Zm1.49-1l-.37-1.25c-.1-.35-.21-.79-.3-1.13h-.02c-.09.35-.17.79-.27,1.13l-.35,1.25h1.3Z"/>
        <path class="cls-1" d="m119.5,186.84c.36.18.91.37,1.47.37.61,0,.93-.25.93-.64s-.28-.58-.99-.83c-.98-.34-1.61-.88-1.61-1.74,0-1,.84-1.77,2.22-1.77.66,0,1.15.14,1.5.3l-.3,1.07c-.24-.11-.65-.28-1.23-.28s-.86.26-.86.57c0,.38.33.54,1.09.83,1.04.38,1.53.92,1.53,1.75,0,.99-.76,1.82-2.37,1.82-.67,0-1.34-.17-1.67-.36l.27-1.1Z"/>
        <path class="cls-1" d="m124.5,186.84c.36.18.91.37,1.47.37.61,0,.93-.25.93-.64s-.28-.58-.99-.83c-.98-.34-1.61-.88-1.61-1.74,0-1,.84-1.77,2.22-1.77.66,0,1.15.14,1.5.3l-.3,1.07c-.24-.11-.65-.28-1.23-.28s-.86.26-.86.57c0,.38.33.54,1.09.83,1.04.38,1.53.92,1.53,1.75,0,.99-.76,1.82-2.37,1.82-.67,0-1.34-.17-1.67-.36l.27-1.1Z"/>
        <path class="cls-1" d="m129.46,182.41c.41-.07.99-.12,1.8-.12s1.4.16,1.8.47c.38.3.63.79.63,1.36s-.19,1.06-.54,1.4c-.45.43-1.13.62-1.91.62-.17,0-.33,0-.45-.03v2.1h-1.32v-5.8Zm1.32,2.67c.11.03.25.04.45.04.71,0,1.14-.36,1.14-.96,0-.54-.38-.86-1.04-.86-.27,0-.45.03-.55.05v1.74Z"/>
        <path class="cls-1" d="m140.21,185.21c0,1.93-1.17,3.1-2.89,3.1s-2.77-1.32-2.77-2.99c0-1.76,1.13-3.08,2.86-3.08s2.79,1.35,2.79,2.98Zm-4.25.08c0,1.15.54,1.96,1.43,1.96s1.41-.85,1.41-2c0-1.06-.51-1.96-1.42-1.96s-1.42.86-1.42,2Z"/>
        <path class="cls-1" d="m141.37,182.41c.43-.07,1.06-.12,1.77-.12.87,0,1.48.13,1.9.46.35.28.54.69.54,1.23,0,.75-.53,1.27-1.04,1.45v.03c.41.17.64.56.79,1.1.18.66.37,1.43.48,1.66h-1.36c-.1-.17-.24-.65-.41-1.37-.16-.73-.41-.93-.95-.94h-.4v2.31h-1.32v-5.8Zm1.32,2.53h.52c.66,0,1.06-.33,1.06-.85,0-.54-.37-.81-.98-.82-.32,0-.51.03-.6.04v1.62Z"/>
        <path class="cls-1" d="m147.97,183.44h-1.58v-1.12h4.52v1.12h-1.61v4.76h-1.34v-4.76Z"/>
      </g>
    </g>
  </g>
</svg>