<?xml version="1.0" encoding="utf-8"?>
<!-- Generator: Adobe Illustrator 27.5.0, SVG Export Plug-In . SVG Version: 6.00 Build 0)  -->
<svg version="1.1" id="_レイヤー_2" xmlns="http://www.w3.org/2000/svg" xmlns:xlink="http://www.w3.org/1999/xlink" x="0px"
	 y="0px" viewBox="0 0 126.8 55" style="enable-background:new 0 0 126.8 55;" xml:space="preserve">
<style type="text/css">
	.st0{fill:#1A1A1A;}
	.st1{fill:#C7161D;}
	.st2{fill:#FFFFFF;}
</style>
<g id="_レイヤー_4">
	<g>
		<polygon class="st0" points="58.1,48.2 58.3,46 57.4,46 57.2,48.2 		"/>
		<path class="st0" d="M56.6,43.3h1.5v-1.1l0.4,0.3v-1.4l-2-1.5h-0.9l-2,1.5v1.4l0.3-0.2v1h1.5v1.1h-1.8v1.1h1.8v2.9l-1.8,0.1v1.1
			l4.7-0.3v-1.1l-1.7,0.1v-2.8h1.7v-1.1h-1.7L56.6,43.3L56.6,43.3z M54.1,42.2l2-1.5l2,1.5H54.1L54.1,42.2z"/>
		<polygon class="st0" points="60.9,43.3 59.8,43.3 60.4,47.4 61.5,47.4 		"/>
		<polygon class="st0" points="54.7,46 53.8,46 54,48.2 54.9,48.2 		"/>
		<polygon class="st0" points="60.5,39.7 59.3,39.7 58.4,43.7 59.5,43.7 60.1,41.4 62.4,41.4 62.4,48.5 60.7,48.5 60.7,49.7 
			63.6,49.7 63.6,40.2 60.4,40.2 		"/>
		<path class="st0" d="M71.3,40.5c-0.6,0-1.2,0.3-1.8,0.8c-0.4,0.3-0.7,0.8-1,1.2c0.1-0.6,0.2-1.3,0.3-2.1l0-0.2h-1.6l0,0.1
			c-0.2,1.1-0.3,2.2-0.3,3.4c0,1.2,0,2.2,0.1,2.9v0.1h1.5l0-0.3c0-0.2,0-0.4,0-0.7c0-0.6,0-0.8,0.1-0.9c0.1-0.3,0.3-0.8,0.6-1.2
			c0.3-0.5,0.6-0.9,1-1.2c0.4-0.3,0.8-0.5,1.1-0.5c0.4,0,0.8,0.3,1,0.8c0.2,0.5,0.3,1.3,0.3,2.4c0,0.7-0.1,1.2-0.4,1.7
			c-0.3,0.5-0.7,0.8-1.2,1.1c-0.6,0.3-1.4,0.5-2.3,0.5h-0.1v1.4h0.1c1.1,0,2.1-0.2,2.9-0.6c0.8-0.4,1.5-1,1.9-1.7s0.6-1.5,0.6-2.5
			c0-1.5-0.2-2.7-0.7-3.4C72.9,40.9,72.2,40.5,71.3,40.5L71.3,40.5z"/>
		<path class="st0" d="M77.6,42.7c0,1.8-0.3,3.5-0.8,5.1c-0.3,0.7-0.5,1.2-0.6,1.5l-0.1,0.2H78l0-0.1c0.2-0.6,0.5-1.2,0.6-1.7
			c0.2-0.6,0.3-1.2,0.4-2c0.1-0.9,0.2-1.9,0.2-3v-2.4h-1.6L77.6,42.7L77.6,42.7z"/>
		<path class="st0" d="M83.9,37.8c-0.4,0-0.8,0.1-1.2,0.4l0,0c-0.3,0.3-0.5,0.7-0.5,1.1s0.2,0.8,0.4,1h-0.9v2.4
			c0,1.9,0.2,3.6,0.7,5.1c0.2,0.6,0.4,1.1,0.7,1.6l0,0.1h1.7l-0.1-0.2c-0.5-1.2-0.9-2.4-1.2-3.7c-0.2-0.9-0.3-1.9-0.3-2.8v-2
			c0.2,0,0.3,0.1,0.5,0.1c0.4,0,0.8-0.1,1.2-0.4c0.3-0.3,0.5-0.7,0.5-1.1s-0.2-0.8-0.5-1.1C84.8,38,84.4,37.8,83.9,37.8L83.9,37.8z
			 M84.3,39.6c-0.2,0.2-0.6,0.2-0.8,0c-0.1-0.1-0.1-0.2-0.1-0.3c0-0.1,0.1-0.2,0.1-0.3c0.1-0.1,0.2-0.1,0.4-0.1s0.3,0,0.4,0.1
			c0.1,0.1,0.2,0.2,0.2,0.3C84.5,39.4,84.4,39.5,84.3,39.6z"/>
		<path class="st0" d="M96.3,47.8c-0.6-0.5-1.1-0.9-1.4-1.3c-0.3-0.4-0.8-0.8-1.2-1.4c0.5-0.7,0.9-1.5,1.3-2.2
			c0.4-0.8,0.6-1.5,0.8-2.2l0-0.2h-7.3V42h5.1c-0.8,1.8-1.9,3.5-3.5,4.8c-0.7,0.6-1.4,1-2,1.3l-0.1,0v1.7l0.2-0.1
			c0.3-0.2,0.8-0.4,1.2-0.6c0.5-0.3,0.9-0.6,1.4-1c0.6-0.4,1.2-1,1.8-1.8c0.6,0.7,1.1,1.3,1.7,1.8c0.6,0.5,1.2,1,1.8,1.5l0.2,0.2
			L96.3,47.8L96.3,47.8L96.3,47.8z"/>
	</g>
	<g>
		<path class="st0" d="M55,9.4h8.2v2.5H58v3.1h4.8v2.5H58v5.4h-3C55,22.8,55,9.4,55,9.4z"/>
		<path class="st0" d="M68.5,9.4v13.4h-3V9.4H68.5z"/>
		<path class="st0" d="M71.2,19.6c0.8,0.4,2.1,0.8,3.3,0.8c1.4,0,2.1-0.6,2.1-1.5s-0.6-1.3-2.2-1.9c-2.2-0.8-3.7-2-3.7-3.9
			c0-2.3,1.9-4,5.1-4c1.5,0,2.6,0.3,3.4,0.7l-0.7,2.4c-0.5-0.3-1.5-0.6-2.8-0.6s-1.9,0.6-1.9,1.3c0,0.9,0.8,1.2,2.5,1.9
			c2.4,0.9,3.5,2.1,3.5,4c0,2.2-1.7,4.1-5.4,4.1c-1.5,0-3-0.4-3.8-0.8C70.6,22.2,71.2,19.7,71.2,19.6z"/>
		<path class="st0" d="M84.8,9.4v5.1h5V9.4h3v13.4h-3v-5.6h-5v5.6h-3V9.4C81.8,9.4,84.8,9.4,84.8,9.4z"/>
		<path class="st0" d="M98.5,9.4v13.4h-3V9.4H98.5z"/>
		<path class="st0" d="M101.1,22.8V9.4h3.5l2.8,4.9c0.8,1.4,1.6,3.1,2.2,4.6h0.1c-0.2-1.8-0.3-3.6-0.3-5.6V9.4h2.8v13.4H109
			l-2.9-5.2c-0.8-1.4-1.7-3.1-2.3-4.7l-0.1,0c0.1,1.8,0.1,3.6,0.1,5.8v4C103.9,22.8,101.1,22.8,101.1,22.8z"/>
		<path class="st0" d="M126,22.1c-0.9,0.3-2.7,0.8-4.5,0.8c-2.4,0-4.2-0.6-5.4-1.8c-1.2-1.1-1.9-2.9-1.9-4.9c0-4.4,3.2-7,7.6-7
			c1.7,0,3.1,0.3,3.7,0.6l-0.6,2.4c-0.7-0.3-1.7-0.6-3.1-0.6c-2.5,0-4.4,1.4-4.4,4.3s1.7,4.4,4.2,4.4c0.7,0,1.2-0.1,1.5-0.2v-2.8
			h-2.1v-2.4h5L126,22.1L126,22.1z"/>
		<path class="st0" d="M54.6,26.1c0.7-0.1,1.6-0.2,2.9-0.2s2.3,0.2,2.9,0.8c0.6,0.5,1,1.3,1,2.2s-0.3,1.7-0.9,2.3
			c-0.7,0.7-1.8,1-3.1,1c-0.3,0-0.5,0-0.7,0v3.4h-2.1L54.6,26.1L54.6,26.1z M56.8,30.4c0.2,0,0.4,0.1,0.7,0.1c1.2,0,1.9-0.6,1.9-1.6
			c0-0.9-0.6-1.4-1.7-1.4c-0.4,0-0.7,0-0.9,0.1L56.8,30.4L56.8,30.4z"/>
		<path class="st0" d="M65.1,33.1l-0.7,2.5h-2.2l2.9-9.5h2.8l3,9.5h-2.3l-0.7-2.5H65.1L65.1,33.1z M67.5,31.4l-0.6-2
			c-0.2-0.6-0.3-1.3-0.5-1.8h0c-0.1,0.6-0.3,1.3-0.4,1.8l-0.6,2H67.5L67.5,31.4z"/>
		<path class="st0" d="M72.2,33.3c0.6,0.3,1.5,0.6,2.4,0.6c1,0,1.5-0.4,1.5-1s-0.4-0.9-1.6-1.4c-1.6-0.5-2.6-1.4-2.6-2.8
			c0-1.6,1.4-2.9,3.6-2.9c1.1,0,1.9,0.2,2.4,0.5L77.5,28c-0.4-0.2-1.1-0.5-2-0.5s-1.4,0.4-1.4,0.9c0,0.6,0.5,0.9,1.8,1.4
			c1.7,0.6,2.5,1.5,2.5,2.9c0,1.6-1.2,3-3.9,3c-1.1,0-2.2-0.3-2.7-0.6L72.2,33.3L72.2,33.3z"/>
		<path class="st0" d="M79.9,33.3c0.6,0.3,1.5,0.6,2.4,0.6c1,0,1.5-0.4,1.5-1s-0.4-0.9-1.6-1.4c-1.6-0.5-2.6-1.4-2.6-2.8
			c0-1.6,1.4-2.9,3.6-2.9c1.1,0,1.9,0.2,2.4,0.5L85.2,28c-0.4-0.2-1.1-0.5-2-0.5s-1.4,0.4-1.4,0.9c0,0.6,0.5,0.9,1.8,1.4
			c1.7,0.6,2.5,1.5,2.5,2.9c0,1.6-1.2,3-3.9,3c-1.1,0-2.2-0.3-2.7-0.6L79.9,33.3L79.9,33.3z"/>
		<path class="st0" d="M87.4,26.1c0.7-0.1,1.6-0.2,2.9-0.2s2.3,0.2,2.9,0.8c0.6,0.5,1,1.3,1,2.2s-0.3,1.7-0.9,2.3
			c-0.7,0.7-1.8,1-3.1,1c-0.3,0-0.5,0-0.7,0v3.4h-2.1V26.1L87.4,26.1z M89.6,30.4c0.2,0,0.4,0.1,0.7,0.1c1.2,0,1.9-0.6,1.9-1.6
			c0-0.9-0.6-1.4-1.7-1.4c-0.4,0-0.7,0-0.9,0.1V30.4L89.6,30.4z"/>
		<path class="st0" d="M104.4,30.6c0,3.1-1.9,5-4.7,5s-4.5-2.1-4.5-4.9c0-2.9,1.8-5,4.7-5S104.4,28,104.4,30.6L104.4,30.6z
			 M97.5,30.8c0,1.9,0.9,3.2,2.3,3.2s2.3-1.4,2.3-3.2c0-1.7-0.8-3.2-2.3-3.2S97.5,28.9,97.5,30.8L97.5,30.8z"/>
		<path class="st0" d="M105.8,26.1c0.7-0.1,1.7-0.2,2.9-0.2c1.4,0,2.4,0.2,3.1,0.8c0.6,0.5,0.9,1.1,0.9,2c0,1.2-0.9,2.1-1.7,2.4v0
			c0.7,0.3,1,0.9,1.3,1.8c0.3,1.1,0.6,2.3,0.8,2.7h-2.2c-0.2-0.3-0.4-1-0.7-2.2c-0.2-1.2-0.7-1.5-1.5-1.5H108v3.8h-2.1L105.8,26.1
			L105.8,26.1z M108,30.2h0.8c1.1,0,1.7-0.5,1.7-1.4c0-0.9-0.6-1.3-1.6-1.3c-0.5,0-0.8,0-1,0.1L108,30.2L108,30.2z"/>
		<path class="st0" d="M116.1,27.8h-2.6V26h7.3v1.8h-2.6v7.7h-2.2L116.1,27.8L116.1,27.8z"/>
		<path class="st0" d="M126.8,28.2c0,1.4-1.1,2.5-2.5,2.5s-2.5-1.1-2.5-2.5s1.1-2.4,2.5-2.4S126.8,26.9,126.8,28.2z M122.6,28.3
			c0,1,0.8,1.8,1.8,1.8s1.8-0.8,1.8-1.8s-0.8-1.8-1.8-1.8S122.6,27.2,122.6,28.3L122.6,28.3z M124,29.4h-0.7v-2.2
			c0.2,0,0.5-0.1,1-0.1c0.5,0,0.7,0.1,0.9,0.2c0.1,0.1,0.2,0.3,0.2,0.5s-0.2,0.4-0.5,0.5v0c0.2,0.1,0.4,0.3,0.5,0.6
			c0.1,0.3,0.1,0.5,0.2,0.5h-0.8c-0.1-0.1-0.1-0.3-0.2-0.5c0-0.2-0.2-0.3-0.4-0.3H124L124,29.4L124,29.4z M124.1,28.1h0.2
			c0.3,0,0.4-0.1,0.4-0.3c0-0.2-0.2-0.3-0.4-0.3c-0.1,0-0.2,0-0.2,0C124.1,27.6,124.1,28.1,124.1,28.1z"/>
	</g>
	<g>
		<path class="st1" d="M28,32.5h15c0.6,0,1.2,0.5,1.2,1.2v20.1c0,0.6-0.5,1.2-1.2,1.2H28c-0.6,0-1.2-0.5-1.2-1.2V33.7
			C26.8,33.1,27.3,32.5,28,32.5z"/>
		<g>
			<path class="st2" d="M35.5,41.3c-0.5,0-0.8,0.4-0.8,0.8s0.4,0.8,0.8,0.8s0.8-0.4,0.8-0.8S35.9,41.3,35.5,41.3z"/>
			<path class="st2" d="M35.5,41.1C35.5,41.1,35.5,41.1,35.5,41.1l0.9-3.2c0,0,0,0,0,0c0-0.5-0.4-0.9-0.9-0.9s-0.9,0.4-0.9,0.9v0
				L35.5,41.1C35.4,41.1,35.4,41.1,35.5,41.1L35.5,41.1z"/>
			<path class="st2" d="M32.6,38.9l2.3,2.3c0,0,0.1,0,0.1-0.1L34.1,38c0,0,0,0,0,0c-0.2-0.3-0.5-0.5-0.8-0.5c-0.2,0-0.3,0-0.5,0.1
				c-0.2,0.1-0.4,0.3-0.4,0.5C32.4,38.4,32.4,38.7,32.6,38.9L32.6,38.9L32.6,38.9z"/>
			<path class="st2" d="M31.3,40.8L31.3,40.8l3.2,0.9c0,0,0-0.1,0.1-0.1l-2.3-2.3c0,0,0,0,0,0c-0.1-0.1-0.3-0.1-0.5-0.1
				c-0.3,0-0.6,0.2-0.8,0.5c-0.1,0.2-0.1,0.5-0.1,0.7S31.1,40.6,31.3,40.8L31.3,40.8z"/>
			<path class="st2" d="M31.2,43l3.2-0.8c0,0,0,0,0-0.1s0,0,0-0.1l-3.2-0.8c0,0,0,0,0,0c-0.5,0-0.9,0.4-0.9,0.9S30.7,43,31.2,43
				L31.2,43L31.2,43z"/>
			<path class="st2" d="M34.5,42.6l-3.2,0.9c0,0,0,0,0,0c-0.4,0.2-0.6,0.8-0.3,1.2c0.2,0.3,0.5,0.5,0.8,0.5c0.2,0,0.3,0,0.5-0.1l0,0
				l2.3-2.3C34.6,42.7,34.5,42.6,34.5,42.6L34.5,42.6z"/>
			<path class="st2" d="M34.9,43l-2.3,2.3l0,0c0,0,0,0,0,0c-0.1,0.2-0.2,0.5-0.1,0.7s0.2,0.4,0.4,0.5c0.1,0.1,0.3,0.1,0.5,0.1
				c0.3,0,0.6-0.2,0.8-0.5l0,0L35,43C35,43,34.9,43,34.9,43L34.9,43z"/>
			<path class="st2" d="M35.5,43.2C35.5,43.2,35.4,43.2,35.5,43.2l-0.9,3.2l0,0c0,0,0,0,0,0c0,0.5,0.4,0.9,0.9,0.9s0.9-0.4,0.9-0.9
				v0L35.5,43.2C35.5,43.2,35.5,43.2,35.5,43.2L35.5,43.2z"/>
			<path class="st2" d="M38.3,45.3L36,43c0,0-0.1,0-0.1,0.1l0.9,3.2l0,0c0,0,0,0,0,0c0.2,0.3,0.5,0.5,0.8,0.5c0.2,0,0.3,0,0.5-0.1
				c0.2-0.1,0.4-0.3,0.4-0.5C38.5,45.8,38.5,45.6,38.3,45.3L38.3,45.3L38.3,45.3z"/>
			<path class="st2" d="M39.6,43.5L39.6,43.5l-3.2-0.9c0,0,0,0.1-0.1,0.1l2.3,2.3l0,0c0,0,0,0,0,0c0.1,0.1,0.3,0.1,0.5,0.1
				c0.3,0,0.6-0.2,0.8-0.5c0.1-0.2,0.2-0.5,0.1-0.7S39.8,43.6,39.6,43.5L39.6,43.5z"/>
			<path class="st2" d="M39.7,41.2L39.7,41.2L36.5,42c0,0,0,0,0,0.1s0,0,0,0.1l3.2,0.8c0,0,0,0,0,0c0.5,0,0.9-0.4,0.9-0.9
				S40.2,41.2,39.7,41.2L39.7,41.2z"/>
			<path class="st2" d="M36.4,41.7l3.2-0.9c0,0,0,0,0,0c0.2-0.1,0.4-0.3,0.4-0.5s0-0.5-0.1-0.7c-0.2-0.3-0.5-0.5-0.8-0.5
				c-0.2,0-0.3,0-0.5,0.1l0,0l-2.3,2.3C36.3,41.5,36.4,41.6,36.4,41.7L36.4,41.7z"/>
			<path class="st2" d="M36,41.2l2.3-2.3c0,0,0,0,0,0c0.1-0.2,0.2-0.5,0.1-0.7s-0.2-0.4-0.4-0.5c-0.1-0.1-0.3-0.1-0.5-0.1
				c-0.3,0-0.6,0.2-0.8,0.5l0,0l-0.9,3.2C35.9,41.2,36,41.2,36,41.2L36,41.2z"/>
		</g>
		<g>
			<path class="st2" d="M29.5,49.8c0.1,0,0.3,0,0.5,0s0.4,0,0.5,0.1c0.1,0.1,0.2,0.2,0.2,0.4s0,0.3-0.1,0.4
				c-0.1,0.1-0.3,0.2-0.5,0.2c0,0-0.1,0-0.1,0v0.6h-0.4L29.5,49.8L29.5,49.8z M29.9,50.5c0,0,0.1,0,0.1,0c0.2,0,0.3-0.1,0.3-0.3
				c0-0.2-0.1-0.2-0.3-0.2c-0.1,0-0.1,0-0.1,0V50.5L29.9,50.5z"/>
			<path class="st2" d="M31.4,51l-0.1,0.4h-0.4l0.5-1.6h0.5l0.5,1.6h-0.4L31.8,51H31.4L31.4,51z M31.8,50.7l-0.1-0.3
				c0-0.1-0.1-0.2-0.1-0.3l0,0c0,0.1,0,0.2-0.1,0.3l-0.1,0.3H31.8z"/>
			<path class="st2" d="M32.6,51c0.1,0,0.2,0.1,0.4,0.1c0.2,0,0.3-0.1,0.3-0.2s-0.1-0.2-0.3-0.2c-0.3-0.1-0.4-0.2-0.4-0.5
				c0-0.3,0.2-0.5,0.6-0.5c0.2,0,0.3,0,0.4,0.1l-0.1,0.3c-0.1,0-0.2-0.1-0.3-0.1S33,50.1,33,50.2c0,0.1,0.1,0.2,0.3,0.2
				c0.3,0.1,0.4,0.2,0.4,0.5c0,0.3-0.2,0.5-0.7,0.5c-0.2,0-0.4,0-0.5-0.1C32.6,51.3,32.6,51,32.6,51z"/>
			<path class="st2" d="M34,51c0.1,0,0.2,0.1,0.4,0.1c0.2,0,0.3-0.1,0.3-0.2s-0.1-0.2-0.3-0.2c-0.3-0.1-0.4-0.2-0.4-0.5
				c0-0.3,0.2-0.5,0.6-0.5c0.2,0,0.3,0,0.4,0.1l-0.1,0.3c-0.1,0-0.2-0.1-0.3-0.1s-0.2,0.1-0.2,0.2c0,0.1,0.1,0.2,0.3,0.2
				c0.3,0.1,0.4,0.2,0.4,0.5c0,0.3-0.2,0.5-0.7,0.5c-0.2,0-0.4,0-0.5-0.1C33.9,51.3,34,51,34,51z"/>
			<path class="st2" d="M35.3,49.8c0.1,0,0.3,0,0.5,0s0.4,0,0.5,0.1c0.1,0.1,0.2,0.2,0.2,0.4s0,0.3-0.2,0.4
				c-0.1,0.1-0.3,0.2-0.5,0.2c0,0-0.1,0-0.1,0v0.6h-0.4V49.8L35.3,49.8z M35.7,50.5c0,0,0.1,0,0.1,0c0.2,0,0.3-0.1,0.3-0.3
				c0-0.2-0.1-0.2-0.3-0.2c-0.1,0-0.1,0-0.2,0V50.5L35.7,50.5z"/>
			<path class="st2" d="M38.3,50.6c0,0.5-0.3,0.8-0.8,0.8s-0.8-0.4-0.8-0.8c0-0.5,0.3-0.8,0.8-0.8S38.3,50.1,38.3,50.6L38.3,50.6z
				 M37.1,50.6c0,0.3,0.2,0.5,0.4,0.5s0.4-0.2,0.4-0.5c0-0.3-0.1-0.5-0.4-0.5S37.1,50.3,37.1,50.6z"/>
			<path class="st2" d="M38.6,49.8c0.1,0,0.3,0,0.5,0c0.2,0,0.4,0,0.5,0.1c0.1,0.1,0.2,0.2,0.2,0.3c0,0.2-0.2,0.3-0.3,0.4l0,0
				c0.1,0,0.2,0.2,0.2,0.3c0,0.2,0.1,0.4,0.1,0.5h-0.4c0,0-0.1-0.2-0.1-0.4c0-0.2-0.1-0.2-0.3-0.3H39v0.6h-0.4L38.6,49.8L38.6,49.8z
				 M39,50.5h0.1c0.2,0,0.3-0.1,0.3-0.2c0-0.2-0.1-0.2-0.3-0.2c-0.1,0-0.1,0-0.2,0C39,50.1,39,50.5,39,50.5z"/>
			<path class="st2" d="M40.4,50.1H40v-0.3h1.2v0.3h-0.4v1.3h-0.4V50.1z"/>
		</g>
		<path class="st0" d="M9.4,6.9c0,0,0.1,0,0.1,0c1.7,1.9,2.7,4.2,3.3,6.6c4.5-1.7,9.7-1.7,14.2,0c0.6-2.4,1.6-4.8,3.3-6.6
			c0.6,0.3,1.3-0.3,1.1-0.9c-0.4-1.2-2.1-0.2-1.3,0.8C26.9,11,25.1,7.9,26.6,4c1.1,0.2,1.5-1.4,0.4-1.8c-1-0.4-1.7,1.2-0.8,1.7
			c-3,6-5.4,3.9-6.2-1.7C21.5,2,21.2-0.2,19.8,0c-1.2,0.2-1.3,2-0.1,2.2c-0.8,5.6-3.2,7.8-6.2,1.7c0.9-0.5,0.3-2-0.7-1.7
			c-1.2,0.2-0.8,2,0.3,1.9c1.4,3.9-0.3,7-3.5,2.7c0.5-0.6,0-1.5-0.8-1.3C7.9,5.6,8.4,7.2,9.4,6.9L9.4,6.9z"/>
		<polygon class="st0" points="7.9,35 7.9,35 7.9,35 		"/>
		<path class="st0" d="M23.9,51.2C23.9,51.2,23.8,51.2,23.9,51.2c-0.1-0.1-0.2-0.6-0.3-0.7c0.8-0.2,1.6-0.4,2.4-0.7v-0.4
			c-0.8,0.3-1.7,0.6-2.5,0.7c0-0.5-0.6-0.4-0.4,0.1c-2.1,0.4-4.3,0.4-6.4,0.1c0.1-0.4-0.4-0.5-0.4,0c-2.4-0.4-4.6-1.2-6.7-2.4
			c-0.1-0.4-0.2-0.8-0.6-1.1C9,46.6,9.3,46,9.4,45.9c1.5,0.6,0-0.6-0.6-0.7c-0.6,0.1,0,0.5,0.3,0.6c-0.1,0.3-0.2,0.5-0.4,0.8
			c-0.5-0.2-0.9-0.2-1.4,0c-2.5-1.8-4.5-4.3-5.7-7.2c-4.1-1.3,3.4,7.8,4.8,8.2C6,49,7.8,50.1,8.9,49.2c5.1,3,11.5,3.7,17.1,1.8v-0.5
			C25.3,50.8,24.6,51,23.9,51.2L23.9,51.2z M7.9,48.8c-1,0-1-1.6,0-1.6C9,47.1,9,48.8,7.9,48.8z M16.1,51.3
			c-2.4-0.4-4.7-1.2-6.8-2.5c0.1-0.2,0.2-0.3,0.2-0.5c2.1,1.1,4.3,2,6.7,2.3C16.2,50.8,16.1,51.3,16.1,51.3L16.1,51.3z M23.2,51.3
			c-2.2,0.4-4.5,0.4-6.7,0.1c0-0.2,0.1-0.5,0.1-0.7c2.2,0.3,4.4,0.2,6.6-0.2c0.1,0.2,0.1,0.5,0.2,0.7C23.3,51.3,23.3,51.3,23.2,51.3
			L23.2,51.3z"/>
		<path class="st0" d="M39.3,31.5c-0.4-3.6-2.1-3.2-4.3-4.5c7-5.2-5.1-5.1-8.3-4c0.6-0.5,1.2-1.1,1.8-1.7c-3.7-3.9-9.5-6.3-14.9-6
			c-2-0.8-4.4-1.9-6.5-1.3c-0.5,0.3-0.3,1.1-1,1.2c-0.4,0.4,0.6,0.6,0.4,0.9c-0.5,0.2-1,0.4-0.3,0.7c0.1,0.7-1.2,1-1.4,1.7
			c-0.9,1.4,4-2.7,5-2.6c-3.8,0.7-2.4-0.1,0.4-0.3c-0.9-0.3-1.8-0.1-2.7-0.2c0.8-1,3-0.3,4,0.3C4.6,17.3-2,25.7,2.1,32.7
			C-2.3,18.7,18.6,11,26.8,21.4c-1.7,2-5.4,2.8-6.7,0.1c-0.5,3.7,4.3,2.1,6.3,2.7c0,0.1,0,0.1,0,0.2c0,0,0,0,0,0
			c-2.7,0.4-5.5,0.2-8.1-0.6c1.4,1.7-4,1.9-4.1,0.3c0.4-0.5,1.7,0.2,2.4,0.2c-0.5-0.4-4.4-0.9-1.9-1c-0.3-0.1-1.3-0.3-0.6-0.6
			c1.3-0.2,2.4,0.9,3.5,1.5c-2.4-3.1-7.1-2.1-3.1,1.3c-1.6,0.2-3.1,0.9-4.6,1.5c0.5-0.5,1.1-0.9,1.6-1.4c-0.8,0.2-1.4,0.8-2,1.2
			c0,0,0,0,0-0.1c0.3-0.5,0.7-0.8,1.2-1.2c0,0,0,0,0,0c-2.2,1.4-5.1,2.1-6.5,4.5c0.7-0.7,1.6-1.3,2.5-1.4c-1.8,0.3-7.4,7.2-2.8,5.1
			c1.3,0,1.6-1,1.8-2.1c0.4,0.6,1,0.8,1.5,1.1c0.7-0.2,1.4-0.4,2.1-0.6l0,0v0c0,0,0,0,0,0c0,0,0,0,0,0l0,0c-0.7,0.5-1.9,0.4-2.3,1.2
			c0.7,0.1,1.5,0.2,2.3,0.4c-0.8,0-1.6,0-2.4,0c0,0,0,0,0,0c0,0,0,0,0,0c-0.1,0.1-0.1,0.2-0.1,0.3c0.4,0.3,0.8,0.6,1.1,0.9l0,0l0,0
			c0,0,0,0,0,0c0,0,0,0,0,0l0,0c-0.4-0.2-0.8-0.4-1.2-0.6c-0.1,0.1-0.3,0.3-0.4,0.4c0.2,0.4,0.4,0.8,0.5,1.2c0,0,0,0.1-0.1,0.1
			c-0.2-0.3-0.4-0.7-0.6-1.1c-0.1,0.1-0.4,0.3-0.4,0.4c0.1,0.9,0.6,1.7,0.9,2.5c-0.7-0.6-1-1.5-1.2-2.4c-0.7-0.1-1.3-0.6-1.9-1
			c-0.1,0-0.1,0.1-0.2,0.1c1.8,2.1,2.5,5.3,5.5,6.2c-1.4-4.6,3.1-6.5,5.2-9.7c-1.8-1.1-5.4,1.2-7.6,0.3C5.5,30.7,7.2,28,8.1,28
			c-0.5,2.3,0.6,0.8,1.6,0c2-1.6,5.1-0.7,7.5-1.9c2.9-1.3,6-0.7,9.1-1.2c0.5-0.2,2.5-0.5,2-1.1c-0.6-0.1-1.3,0.1-1.8-0.3
			c3.2-0.9,14.9-2,8.1,3.4c1.2,2,3.9,0.2,4.3,4.7h0.5C39.3,31.6,39.3,31.6,39.3,31.5L39.3,31.5z"/>
		<path class="st0" d="M9.4,32.2L9.4,32.2L9.4,32.2z"/>
		<path class="st0" d="M19.2,20.2c0.4-1,3.2-1,2.7-1.7C13.5,14,0.7,20.4,2.2,30.7c0,0,0.1,0,0.2,0c-0.8-8.3,8.6-13.6,16-11.5
			c0.7,0.5-0.7,1.6-0.2,2.4c0.1,0.5,0.3,1.2,0.8,1.5C18.7,22.2,18.4,21,19.2,20.2L19.2,20.2z"/>
		<path class="st0" d="M12.8,23.1c0.6-2.4-2.4-0.1-1.3,1.6c0,0.6,0.9,1.1,1.2,0.5c0.2-0.5-0.2-1.1-0.3-1.6
			C12.6,23.4,12.7,23.2,12.8,23.1L12.8,23.1z"/>
		<path class="st0" d="M23.8,20.1c-0.3-0.4-0.8-0.8-1.3-0.8c0.3,0.2,0.5,0.5,0.8,0.7c-0.3,1.2,1.2,2.3,2,1.6
			C24.3,21.7,23.8,21,23.8,20.1L23.8,20.1z"/>
		<path class="st0" d="M25.5,20.6c0-0.9-1.4-0.9-1.4,0C24.1,21.6,25.5,21.5,25.5,20.6z M24.3,20.7c-0.2-0.7,0.9-0.9,1-0.3
			c-0.6-0.8-1.3,0.6-0.3,0.7c0,0,0,0,0,0C24.6,21.2,24.3,21,24.3,20.7L24.3,20.7z"/>
		<path class="st0" d="M17.3,22.1c-0.8,0-0.8,1.3,0,1.2C18.1,23.4,18.1,22,17.3,22.1z"/>
		<path class="st0" d="M24.3,13.3c-3.6-0.8-8.1-1.2-11.2,0.9c4.3,0.6,8.7,1.3,12.5,3.7c0.2,0.2,0.5,0,0.7,0.2c0.4,0.4,1,0.2,1.4,0.6
			c0.2,0.3,0.6-0.3,0.8,0c0.6,0.2,1.3,0.2,1.9,0.2c0.3,0.2,0.8,0.3,0.7-0.2c0.5,0.3,0.9,0.3,1.4,0.2c0.4,0.3,0.8,0.5,1.4,0.5
			C31.5,16.4,28,14.3,24.3,13.3L24.3,13.3z"/>
		<path class="st0" d="M1.3,34.3c0.6,4.5,3.2,8.8,6.8,11.6C7,44,5.4,42.1,5.3,39.7c0.8,1,4,4.3,4.5,1.6c-3.5,1.3-4.9-4.6-7-6.3
			c-0.9,0.2-1.5-0.8-1.2-1.6C1,31.7,0,29.9,0.3,27.9c-0.2,0.4-0.1,0.8-0.3,1.2C0,30.9,0.6,32.6,1.3,34.3z"/>
		<path class="st0" d="M36.2,31.7c-0.2-0.4-0.2-0.9-0.4-1.3c0,0,0,0,0,0c-0.3,0.6-0.4-0.8-0.8-0.9c-0.3-0.1-1.7-0.6-1.7,0
			c0.5,0.2,0.8,0.9,0.3,1.2c0,0.2,0,0.3-0.2,0.5c-0.2,0.2-0.4,0.5-0.6,0.7L36.2,31.7C36.2,31.8,36.2,31.7,36.2,31.7L36.2,31.7z"/>
		<path class="st0" d="M25.8,45.1c-0.5,0.2-1.1,0-1.6,0.1c0,0,0,0-0.1,0c0.4-0.8-0.4-1.2-0.5-1.8c0-0.7-0.2-1.2-0.5-1.8
			c0.1-0.6,0-1.4,0.6-1.8c0-1.1-0.9-1.9-1.2-2.9c-0.1-0.5,0.4-1.1,0.1-1.5c-0.3-0.2-0.7,0.1-1.1-0.1c-0.2-0.2-0.3-0.4-0.6-0.4
			c-0.6-0.1-1,0.5-1.6,0.4c-0.4-0.2-0.6,0-1,0.1c-0.7,0.1-1-0.6-1.5-0.9c-0.1-0.3,0-0.5-0.4-0.7c-0.7-0.3-0.7-1-1-1.6c0,0,0,0,0,0
			c0.6-0.5,0.5-1.5,0.2-2.2c0-0.3,0.5-0.5,0.4-0.9c0.4-0.4,0.6-1,1.2-1.1c1.8-1.5,4.5-1.2,6.7-1.3c0.4,0.6,1.4,1.1,1.5,0
			c0.5-0.3,1.1,0.4,1.8,0.5c0.4,0.1,1,0,1.4,0c0.2-0.4,0.5-1.3-0.1-1.4c0.6-0.3,1-1,0.8-1.5c-2.1,2.6-6.2,1.2-9,1.9
			c-3,0.7-6.1,1.4-9.1,1.9c-1.1,0.6-2.3,2.5-3.6,1.8c0,0,0,0,0,0c-0.1,0.2-0.3,0.6-0.2,0.8c2.5,0.3,5.4-1.6,7.7-0.4
			c0.8,3.4-5.9,4.9-5.1,8.3c0.1-0.4,0.2-0.9,0.5-1.2c0.1,0.1,0.1,0.1,0.1,0.2c0.2,0.1,0.5,0.1,0.7,0.3c0,0.4,0.2,0.9,0,1.2
			c-0.4,0.3-0.7,0.8-0.4,1.3c0,2.5-0.4,1.1-1.4,2.2c0.3,0.3-0.1,0.8-0.1,1.2c-0.2,0-0.2,0.1-0.4,0.2c0,0,0,0,0,0c0,0,0,0,0.1,0
			c0,0,0,0-0.1,0.1c0.1,0,0.1,0.1,0.1,0.1c-0.1,0.2-0.1,0.4-0.1,0.6c0.4,0.3,1.3,0.3,1.3,0.9c-0.1,0.4-0.5,0.3-0.8,0.2
			c2.8,4.2,11.7,4.4,16.6,2.6V45C26,45.1,25.9,45.1,25.8,45.1L25.8,45.1z"/>
		<path class="st0" d="M38.2,30.8c0-0.3,0-0.6,0-0.9c-0.9,0.1-0.9,1.2-1.2,1.8h1.3C38.2,31.5,38.2,31.1,38.2,30.8L38.2,30.8z"/>
		<path class="st0" d="M30.8,31.6c-0.1-0.5-0.5-0.9-0.8-1.2c0-0.4-0.2-0.8-0.5-1.1c-0.1-0.3-0.3-0.9-0.7-1c-0.4,0.5,0.3,0.9,0.2,1.4
			c0.3,0.2,0.4,0.6,0.4,1c0.2,0.4,0.5,0.6,0.6,1h0.7C30.8,31.7,30.8,31.7,30.8,31.6L30.8,31.6z"/>
		<path class="st0" d="M31.4,23.9c0.1-0.1,0.2-0.1,0.3-0.1c-0.2-0.7-1-0.3-1,0.3c0.2,0.6,0.9,0.9,0.7,1.6c-0.1,0.4,0.9,0.9,1.1,0.5
			c-0.2-0.5-0.5-1-0.8-1.6C31.5,24.3,31,24.1,31.4,23.9z"/>
		<path class="st0" d="M19.5,33.5c0.3,0,0.6-0.1,1,0c0.1-0.2,0.1-0.4,0.3-0.4V33c-0.2-0.1-0.4-0.3-0.5-0.5c0-0.1,0-0.2,0-0.3
			c-0.8-0.2-2.4,1.6-0.9,1.5C19.3,33.6,19.3,33.4,19.5,33.5L19.5,33.5z"/>
		<path class="st0" d="M32,28c-0.1-0.1-0.3-0.2-0.4-0.1c0.1,0.5,0.5,0.9,0.8,1.2c0,0.9,0.8,0.2,1-0.2c0,0,0,0,0,0
			C32.7,29,32.3,28.6,32,28L32,28z"/>
		<path class="st0" d="M8.5,46.1c0,0,0.1,0,0.1,0.1c0.1-0.1,0.1-0.2,0.2-0.4c-0.1,0-0.1-0.1-0.2-0.1C8.6,45.9,8.4,46,8.5,46.1
			C8.4,46.1,8.5,46.1,8.5,46.1L8.5,46.1z"/>
		<path class="st0" d="M9.5,32.2C9.5,32.2,9.5,32.2,9.5,32.2C9.4,32.2,9.4,32.2,9.5,32.2C9.4,32.2,9.5,32.2,9.5,32.2L9.5,32.2z"/>
		<polygon class="st0" points="9.4,32.2 9.4,32.2 9.4,32.2 		"/>
		<path class="st0" d="M7.9,35C7.9,35,7.9,35,7.9,35C7.9,35,7.9,35,7.9,35z"/>
		<polygon class="st0" points="7.9,35 7.9,35 7.9,35 		"/>
	</g>
</g>
</svg>
