<?xml version="1.0" encoding="utf-8"?>
<!-- Generator: Adobe Illustrator 27.5.0, SVG Export Plug-In . SVG Version: 6.00 Build 0)  -->
<svg version="1.1" id="_レイヤー_2" xmlns="http://www.w3.org/2000/svg" xmlns:xlink="http://www.w3.org/1999/xlink" x="0px"
	 y="0px" viewBox="0 0 305.7 138.8" style="enable-background:new 0 0 305.7 138.8;" xml:space="preserve">
<style type="text/css">
	.st0{fill:#E9D6BA;}
	.st1{fill:#E10000;}
	.st2{fill:#C7161D;}
	.st3{fill:#FFFFFF;}
	.st4{fill:#1A1A1A;}
</style>
<g id="_01">
	<g>
		<path class="st0" d="M113,64.7c3.3-1.8,6.5-3.5,9.8-5.1c0.6-1.9,1.6-4,2.4-5.8c0.4-0.8,0.6-2,1.3-2.6c0.5-1.1,1.4-2.8,2-3.9
			c0.3-0.5,0.8-1,1.1-1.5c1.9-3,4-6.3,6.6-8.7c0.7-0.6,1.4-1.3,2.2-1.9h0c1.2-1,3.6-2.4,5.4-1.8c0.4,0.3,0.6,0.8,1,1.1
			c1.8,1.9-0.6,4-1.3,1c-0.4-0.9-1.2-0.8-2.1-0.5c-0.9,0.1-1.6,0.5-2.4,1c-2.9,2.2-5.3,5.6-7.4,8.7l0,0c-1,1.6-1.7,3.1-2.8,4.7
			c-0.8,1.7-1.6,3.5-2.5,5.1l0,0c-0.7,1.3-1.3,3-1.8,4.4c4.2-2.1,8.7-3.6,13.1-5.3c1.7-0.7,3.8-1.1,5.3-1.8c1.5-0.3,3.1-0.8,4.6-1
			l0,0c0.9-0.3,3.4-0.8,4.3-1l0.4,0.2l0.1,0.3c-0.6,0.8-1.8,0.5-2.6,0.8c-8.9,2-17.5,5.3-25.8,9.3c-0.5,0.6-0.7,1.7-0.9,2.5
			c-0.3,1.2-0.9,2.6-1.2,3.8c-0.2,1.2-0.9,2.6-0.9,3.8c-0.3,1.7-0.5,3.5-0.6,5.3h0c-0.2,1.4-0.1,3-0.3,4.3c0.3,1,0.2,2.2,0.1,3.2
			c-0.1,0.8-0.7,1.7-1.4,0.9c-0.3-0.5-0.2-1.2-0.2-1.7c-0.1-2.2,0.2-4.4,0.5-6.5c0.5-5.1,1.8-9.9,3.5-14.7c-1.8,0.8-3.7,1.7-5.5,2.7
			c-2.3,1.5-4.6,3.3-7,4.7c-1.4,1-2.6,3-4.5,2.7c-1.5-1,0.7-2.3,1.5-2.9c0.8-0.5,1.7-1.1,2.5-1.5l0,0C110.5,66,111.9,65.3,113,64.7
			L113,64.7z"/>
		<path class="st0" d="M155.4,56c-0.3,0.5-0.9,1-1.3,1.4c-0.5,0.6-1,1.2-1.6,1.7c-0.3,0.6-1,0.8-1.4,1.3c-0.9,0.5-2.1,1.1-3.1,0.3
			c-0.4-1-0.4-2.2-0.2-3.3c0.4-1.1,0.5-1.8,0.8-3.1c0.7-1.2,0.8-6.3,3-5.3c0.1,0.1,0.1,0.5,0.2,0.6c-0.2,0.6-0.6,1.3-0.9,1.9
			c0.1,0.2-0.3,0.8-0.4,1c0,0.4-0.4,0.9-0.3,1.3l-0.2,0.3c-0.2,0.9-0.7,1.8-0.8,2.7c-0.2,0.4-0.2,0.8-0.2,1.2
			c-0.1,0.6,0,1.3,0.2,1.9c1-0.3,2-0.8,2.5-1.7c2.3-1.5,3.7-3.9,5.5-5.9l0.1,0c0.4-0.8,1.1-1.3,1.6-2.1l0.3-0.1l0.3,0.1l0.1,0.2
			c-0.3,0.7-1.1,1.4-1.5,2.1C157.1,53.8,156.3,55,155.4,56L155.4,56z M153,40.9c0.6,0.8-0.2,1.7-0.8,2.5c-0.6,0.7-0.7,1.9-1.7,2.3
			C149.8,44.7,151.3,39.2,153,40.9L153,40.9z"/>
		<path class="st0" d="M172.3,42.4c0.5,1.3-1,2.2-1.9,1c-0.1-0.3-0.1-0.6-0.3-0.8c-0.9-0.2-1.8,0.3-2.7,1c-0.7,0.4-1.7,1.3-2.2,1.8
			c-1.1,0.7-1.8,1.8-2.5,2.9c-0.1,0.4-0.4,0.8-0.6,1.1c-0.4,1,2,1,2.5,1c0.7,0.2,1.4,0,2.1,0c0.3,0.1,0.8,0,1-0.1
			c1.1,0.1,3.1-0.9,3.4,0.7c-0.1,0.4-0.4,0.9-0.8,1c-0.1,0.1-0.4,0.4-0.5,0.4h-0.1c-1.5,0.8-3.3,1.5-4.9,2.1
			c-0.6,0.5-1.6,0.5-2.3,0.9h0c-1.4,0.7-2.8,1.6-4.2,2.4c-0.1-0.1-0.4-0.2-0.5-0.4l0-0.2c0.8-0.8,2.1-1.2,2.9-2
			c1.4-0.6,2.8-1.3,4.2-1.9c0.2,0,0.3-0.1,0.5-0.2c0.3-0.3,1-0.5,1.3-0.8c0.3-0.1,1.1-0.5,1.4-0.6c-0.7-0.1-1.5,0.1-2.2-0.1
			c-1.1-0.1-2.3-0.2-3.6-0.1c-0.1,0-0.3-0.1-0.4-0.1l0,0c-0.2,0-0.7-0.2-0.9-0.3c-0.4-0.5-0.3-1-0.2-1.6c0.1-0.6,0.5-1.2,0.7-1.8
			c0.9-1.2,1.8-2.5,3-3.4c1-0.8,2.1-1.7,3.3-2.4C169.3,41.4,171.8,40.3,172.3,42.4L172.3,42.4z"/>
		<path class="st0" d="M188.2,42.9c0.1,0.5-0.2,1.2,0.4,1.4c0.5,0,1.2-1,1.5-1.3c0.1,0,0.9-1.2,1-1.2c0.5-0.6,0.9-1.3,1.4-1.9
			c0.3-0.4,0.5-1,1-1.3c0.3,0,0.6,0.4,0.6,0.7c-1,0.7-1.2,1.8-2.1,2.8c-0.2,0.2-0.2,0.6-0.5,0.8c-0.2,0.4-0.5,0.8-0.9,1.1
			c-0.3,0.3-0.6,0.9-1,1.3c-0.4,0.4-1,0.7-1.6,0.9l-0.3-0.1c0,0-0.1-0.1-0.1-0.1c-0.2,0-0.4-0.2-0.5-0.3c-0.2-0.6-0.5-1.3-0.4-2
			c0.1-0.2,0.2-0.5,0.1-0.8c0-1.3,0.2-2.8,0-4c-0.6,0.3-1.1,1.1-1.6,1.7c-0.7,0.9-1.7,2.1-2.4,3c-1.2,2-2.2,4.2-4,5.8h0
			c-0.2,0.2-0.6,0.4-0.9,0.4l-0.4-0.2c-0.5-0.9-0.3-2.1-0.2-3.1c0.1-1,0.1-2.2,0.4-3.2c0.2-1.5,0.7-3.1,1-4.6
			c0.4-1.2,1.1-3.9,1.6-5.6c0.4-2,0.9-4.1,1.3-6.1c0.2-1,0.6-1.9,0.7-2.9c0.3-0.9,0.7-2.9,1.7-3.3c1.1,0.2,0.7,1.5,0.5,2.2
			c-1.4,4-2.3,8.3-3.6,12.3c-1.1,4-2.3,8-2,12.2l0.1,0c0.4-0.5,0.7-1.2,1.1-1.7c0.6-0.7,1.2-1.6,1.7-2.4l0,0c0.4-0.7,1-1.7,1.6-2.3
			l0.1,0c1.1-1.5,2.1-3.4,4.2-3.3C189.3,38,188.1,41.7,188.2,42.9L188.2,42.9z"/>
		<path class="st0" d="M202.7,38.8c-0.3,0.5-0.9,1-1.3,1.4c-0.5,0.6-1,1.2-1.6,1.7c-0.3,0.6-1,0.8-1.4,1.3c-0.9,0.5-2.1,1.1-3.1,0.3
			c-0.3-0.8-0.4-1.9-0.3-2.8c0-0.5,0.3-1,0.4-1.5c0.2-1.2,0.6-2.3,0.9-3.5c0-0.3,0.1-0.8,0.2-1c0.1-0.2,0.1-0.5,0.2-0.7
			c0.2-1,0.7-2.9,2.2-2.3c0.1,0.1,0.1,0.5,0.2,0.6c-0.2,0.6-0.6,1.3-0.9,1.9c0.1,0.2-0.3,0.8-0.4,1c0,0.4-0.4,0.9-0.3,1.3
			c-0.5,0.9-0.8,2-1,3c-0.2,0.3-0.2,0.8-0.2,1.2c-0.1,0.6,0,1.3,0.2,1.9c1-0.3,2-0.8,2.5-1.7c2.3-1.5,3.7-3.9,5.5-5.9l0.1,0
			c0.4-0.8,1.1-1.3,1.6-2.1l0.3-0.1l0.3,0.1l0.1,0.2c-0.3,0.7-1.1,1.4-1.5,2.1C204.5,36.5,203.6,37.7,202.7,38.8L202.7,38.8z
			 M200.4,23.7c0.6,0.8-0.2,1.7-0.8,2.5c-0.6,0.7-0.7,1.9-1.7,2.3C197.2,27.4,198.7,22,200.4,23.7L200.4,23.7z"/>
		<path class="st0" d="M208.4,34.3C208.4,34.3,208.4,34.3,208.4,34.3c0.4-1.8,0.8-3.7,0.9-5.4c0.1-0.6-0.3-1.6-0.4-2.1
			c0.8-2,2.4-0.3,1.8,1.3c-0.1,2.2-0.9,4.4-1.2,6.6c0.6-0.9,1-2.1,1.7-3c0.7-1,1.6-2.1,2.8-2.3c1.9,0.3,1,2.9,2.1,3.9
			c0,0.1,0.2,0.2,0.3,0.3c0.6,0.1,1.5-0.4,1.9-0.9c0.6-0.4,1.3-1,1.8-1.5c0.5-0.3,1.2-1.1,1.6-1.6c0.4-0.2,0.8-0.7,1-1.1
			c0.8-0.8,1.7-1.9,2.5-2.9l0.3-0.1c0.1,0,0.3,0.1,0.4,0.2L226,26c-1.4,2-3,3.8-4.7,5.5c-0.6,0.8-1.4,1.6-2.3,2
			c-1,0.8-3.1,2-4.2,0.7c-0.7-0.6,0-4.4-1.2-3.6c-0.3,0.4-0.8,0.9-1.1,1.3c-0.4,0.7-0.8,1.6-1.3,2.2c-0.1,0.3-0.3,0.7-0.6,0.9
			c-0.7,1.2-1.2,2.8-2,4c-1.7,0.6-1-2-0.6-2.9C208.1,35.6,208.2,34.9,208.4,34.3L208.4,34.3z"/>
		<path class="st0" d="M219.4,63c-0.4-1.7,0-3.4,0.1-5.1c0-0.9,0.3-2,0.5-2.9c0.6-2.3,1.3-4.9,2.3-7.1c2-4.6,4.2-9.2,7.1-13.2
			c1.1-1.8,2.7-3.7,3.9-5.5c0.2-0.3,0.4-0.6,0.6-0.8c0.2-0.5,0.7-0.9,1.1-1.2c0.5-1.8,0.8-3.8,0.7-5.6c-1.1,0.7-1.8,2.1-2.7,3
			c-0.4,0.3-0.8,0.9-1.1,1.3c-0.3,0.3-1,0.9-1.2,1.3l-0.1,0c-0.4,0.6-0.9,1.5-1.5,2c-1.3,1.1-3.5,2.2-3.2-0.4c0.3-0.6,0.7-2,1.2-2.7
			c0.2-0.5,0.4-1,0.8-1.5c0.2-0.5,0.7-0.9,0.9-1.3c0.3-0.4,0.6-1,0.9-1.3l0.1,0c1.1-1.7,4.8-6.1,5.4-1.9c0.4-0.3,0.9-0.6,1.3-0.6
			l0.4,0.2c0.4,0.7,0.1,1.6-0.1,2.4c-0.3,1.1-0.2,2.4-0.4,3.5c1.1-1.2,2.6-2.3,3.7-3.5c1.2-0.7,2.3-1.7,3.6-2.3l0.4,0.1l0.1,0.3
			l-0.2,0.4c-1.3,0.6-2.4,1.6-3.6,2.3c-1.4,1.4-2.7,2.5-4.1,4.1c-0.7,0.6-0.8,1.5-0.9,2.3c-0.7,2.3-1.4,5.2-2.1,7.5
			c-1.9,6.4-4.1,12.9-6.1,19.2c-1,2-1.4,4.4-2.4,6.4c-0.6,1.5-1.3,3.3-2.9,4.1C220.4,66.8,219.5,64.6,219.4,63L219.4,63z
			 M233.5,33.2c0.4-1.2,0.7-2.8,1.1-4C230,35,226,41.4,223.6,48.3c-1.1,2.8-2.3,5.5-2.6,8.4c-0.2,2.7-0.9,5.5,0.2,8.1
			c4.3-4,5.4-10.2,7.6-16.2c0.8-2.8,1.9-5.3,2.7-8C232.1,38.2,232.8,35.6,233.5,33.2L233.5,33.2z M233.7,21.8L233.7,21.8
			c-0.3-0.8,0.2-1.6,0.3-2.3c-0.6,0.3-1.3,1.1-1.7,1.8c-0.9,0.7-1.5,1.6-2.2,2.5c-1,1.7-2.5,3.4-2.6,5.5l0,0.1c0,0,0,0,0.1,0
			c1-0.7,1.6-1.8,2.4-2.6c1.2-1.6,2.3-3.4,3.7-4.9C233.6,21.8,233.7,21.8,233.7,21.8L233.7,21.8z"/>
		<path class="st0" d="M106.8,92.1c0.2-0.3,0.5-0.8,0.9-1.1c0.2-0.5,0.7-0.9,1.1-1.2c0.3-0.5,1.3-1.2,1.8-1.6c0.4-0.5,1.1-1,1.5-1.4
			c0.4-0.2,0.8-0.6,1.1-0.9c0.9-0.7,2.2-1.4,3.2-2c0.6-0.6,1.6-0.9,2.2-1.4c2.1-1.2,4.3-2.4,6.4-3.6c1.6-0.7,3.1-1.6,4.7-2.2
			c0.7-0.2,1.5-0.5,2.2-0.9c1.7-0.2,3.9-1.2,5.6-1.2c1.3-0.6,2.8-0.2,4.2-0.4c0.4,0.1,0.9,0.4,1.4,0.3c1.4,0.1,2.4,1.2,3.4,2.1
			c1.1,0.8,1.3,2.4,1.4,3.7c-0.3,2.9-1.5,5.8-3,8.3c-0.1,0.2-0.3,0.6-0.4,0.8c-0.1,0.3-0.5,0.6-0.6,0.9c-0.3,0.6-0.7,1.3-1.2,1.7
			c-2,3.1-4.6,5.7-7.2,8.1c-1.7,1.3-3.7,2.2-5.6,3.1c-2.1,0.6-6.2,2.8-7.4,0.1c-0.1-0.4,0-0.8,0.2-1.1c0.3-0.5,0.4-1.3,1.1-1.4
			c0.5,0.5-0.2,1.3-0.2,2c0,0,0.1,0.1,0.1,0.2c0.1,0.1,0.3,0.3,0.4,0.5c0.6,0.3,0.9,0.2,1.1,0.2c1.7-0.4,3.6-0.7,5.1-1.8
			c1.7-0.7,3.3-2,4.6-3.3c2-1.5,4-3.3,5.4-5.5c1.6-1.5,2.6-3.4,3.5-5.3c0.4-0.7,0.8-1.4,1-2.2c0.5-1.3,0.8-2.7,1-4.1
			c0.7-2.6,0.4-4.5-2.2-5.8c-3.4-1.2-6.9-0.2-10.1,1c-2.3,0.5-4.2,1.2-6.3,2.4c-0.7,0.2-1.6,0.5-2.1,1c-2.3,0.9-4.7,2.4-6.8,3.7h0
			c-2,1.5-4.1,2.9-6.1,4.2c-0.4,0.4-0.9,0.7-1.3,1c-0.8,0.8-1.6,1.7-2.4,2.5c-0.9,1.2-2.2,2.6-1.2,3.5c0.9,0,1.8-0.4,2.6-0.5
			c1.4-0.7,2.5,1.3,0.7,1.6c-0.9,0.2-1.9,0.3-2.7,0.4c-0.4,0-0.8-0.2-1.1-0.3l0,0C104.8,95.8,106.1,93.3,106.8,92.1L106.8,92.1z
			 M119.4,107.3c-0.8,2.3-1.8,5.1-2.1,7.5c-0.1,0.5-0.4,1.5-0.5,1.9c-0.1,0.9,0.9,3.4-1.1,3.3c-0.7-0.8-0.5-3.2,0.1-4.7l0,0
			c0.3-1.4,0.8-3.4,1.1-4.8c0.6-3,2-6,2.7-8.9c0.4-1,1.4-3.7,1.7-4.7c0.3-1.1,0.6-2.5,1-3.6l0.1-0.1c0-0.1,0.1-0.3,0.1-0.4l0,0
			c0.7-2.1,0.9-4.4,1.4-6.6c0.3-1.7,0.4-3.7,1.1-5.3c0.5-0.5,1.4-0.1,1.6,0.7c-0.1,1.1-0.7,2.3-0.9,3.4c-0.5,1.3-0.7,2.9-1.1,4.3
			l0,0.1c-0.2,0.4-0.3,1.2-0.3,1.6c-0.3,0.9-0.9,2.1-1,3.1c-0.7,1.5-1.2,3.8-1.7,5.3C120.5,102,120,104.8,119.4,107.3L119.4,107.3z"
			/>
		<path class="st0" d="M160.1,88.6c0.1-0.2,0.2-0.6,0.2-0.7h0c0-0.1,0.2-0.5,0.2-0.6h0c-1.2,0.8-2.1,2-3,3c-0.5,0.6-1.1,1.2-1.6,1.8
			c-0.4,0.4-0.6,0.9-1.1,1.3c-0.4,0.6-0.9,1-1.5,1.4l-0.2,0c0,0.1-0.3,0.2-0.3,0.4c-1.9,1.8-3.7,1.7-3.1-1.3
			c0.4-1.9,1.7-3.7,2.6-5.4c0.4-0.5,0.7-1.3,1.1-1.8c0.8-0.9,1.9-1.9,2.8-2.7c0.5-0.3,1.2-0.7,1.9-0.7l0.4,0.1
			c0.8,1.3-1.2,1.9-2.2,2.2c-0.4,0.4-1.1,0.8-1.5,1.2c-1.2,1.2-2,2.9-2.9,4.3l0,0.1c-0.4,1-0.8,1.9-0.9,3c0,0.3-0.2,0.6-0.1,0.8
			c0.6-0.6,1.6-1.2,2.2-1.9c0.6-0.6,1.2-1,1.7-1.8c0.6-0.4,1.1-1.1,1.6-1.7c0.4-0.5,1.2-1,1.5-1.6c0.5-0.5,0.9-1.2,1.4-1.7
			c0.8-0.6,1.7-1.1,2.6-0.4c0.1,0.2,0,0.5,0.1,0.8c-0.2,0.2-0.3,0.6-0.4,0.9c-0.4,0.6-0.7,1.6-0.8,2.3c0.9-0.4,1.9-1.1,2.7-1.7
			c0.3-0.3,0.8-0.5,1.1-0.9c0.2-0.2,1.1-0.6,1.2-0.9c0.7-0.4,1.7-1.5,2.6-1.5l0.2,0.5l-0.2,0.4c-0.4,0.1-0.8,0.4-1,0.7
			c-0.6,0.2-1.2,1-1.7,1.4c-0.6,0.4-1.2,1-1.7,1.5c-0.6,0.6-1.3,1.3-1.9,1.8c-0.5,0.5-1.1,1-1.8,0.9l-0.4-0.2
			c-0.2-0.4-0.3-0.7-0.3-1.2C159.8,90.1,160,89.2,160.1,88.6L160.1,88.6z"/>
		<path class="st0" d="M175.4,77.3c-1,0.4-2.3,0.8-3,1.7c-0.3,0.4-1,0.9-0.6,1.4c1.5,0.2,3.1,0.6,4.6,0.8c1-0.6,2-1.4,2.9-2.2
			c1.7-1,3.5-2.3,5.1-3.3c-0.4-1.8,1.5-3.2,2.8-4c0.9-0.7,2.7-1.8,3.9-1.1c0.3,0.6-0.2,1.2-0.6,1.6l-0.2,0.1
			c-0.7,0.8-1.8,1.5-2.7,2.2c-0.6,0.4-1.1,1.1-1.7,1.4c0.6,0.6,1.7,0.8,2.4,1.2c0.4,0.2,1.1,0.2,1.6,0.4c0.3,0.2,0.8,0.5,1.1,0.8
			c0.1-0.1,0.6-0.4,0.7-0.5c0.8-0.3,1.7-1,2.6-1.2c0.4-0.1,1-0.5,1.3-0.1c-0.2,0.7-1.2,0.9-1.8,1.2c-0.8,0.4-1.7,0.9-2.5,1.4
			c0.1,0.5-0.2,1.2-0.7,1.5c0,0,0,0,0,0.1c-0.7,0.7-1.6,1.2-2.4,1.8c-1.2,0.7-2.5,1.6-3.7,2.2c-1.1,0.2-3.8,2.6-4.3,0.8
			c0.3-0.7,1.2-1.2,1.7-1.8c0.4-0.3,0.9-0.4,1.3-0.7c1.1-0.6,2.1-1.4,3.3-2c0.5-0.2,1.1-0.8,1.6-1c0.4-0.4,1.1-0.6,1.6-0.9
			c-0.5-0.6-1.5-1-2.2-1.1c-0.8-0.4-1.9-0.7-2.5-1.3v0c-2.5,1.3-4.9,3.1-7,4.8c1.8,0.2,2.1,1.8,1.1,3.1c-0.9,1.3-2.1,2-3.5,2.9
			l-0.1,0.1c-1.8,1-3.7,2.3-5.8,2.8c-4,0.9-1.1-2.8,0.4-3.9c0.6-0.4,1-1.2,1.6-1.5c0.2-0.4,0.8-0.6,1-0.9c0.5-0.8,1.5-1.3,2.2-1.8
			c-1-0.1-2.1-0.3-3.1-0.6c-1.5-0.4-2.1-0.9-1.2-2.4c1.2-2,3.5-2.9,5.7-3.6c0.4,0,0.8-0.3,1.2-0.4c0.2,0,0.5-0.1,0.7-0.1
			c0.2,0,0.6,0.1,0.8,0.1c0.5,0.4,0.7,1,0.3,1.5c-0.5,0.2-1.1,0.3-1.6,0.4C177.1,77.1,176.2,77.1,175.4,77.3L175.4,77.3z
			 M178.3,83.5c0.1-0.1,0.1-0.2,0.1-0.7c-0.5-0.2-1.2-0.3-1.7-0.5c-1.3,0.8-2.4,1.9-3.6,2.8c-0.4,0.5-5,4.4-2,3.3
			c0.3-0.2,0.8-0.2,1.1-0.4c0.3-0.3,0.9-0.5,1.3-0.7c0.5-0.3,1.7-1,2.1-1.4c0.7-0.6,1.8-1,2.3-1.9C177.9,84.1,178.2,83.6,178.3,83.5
			L178.3,83.5z M188.4,72.1c-1,0.6-2.5,1.5-2.8,2.6c0.3-0.2,0.8-0.5,1.1-0.8c0.1-0.2,0.5-0.3,0.6-0.5c0.5-0.6,1.4-1.1,1.9-1.7
			C188.9,71.8,188.6,72,188.4,72.1L188.4,72.1z M187.5,81.7c0.6-0.6,1.6-0.7,2.1-1.5c-1.3,0.7-2.5,1.5-3.7,2.4
			C186.3,82.3,187,81.9,187.5,81.7z"/>
		<path class="st0" d="M198.6,74.6c0-0.3,0.1-0.6,0-0.9c0-0.2,0.2-0.7,0.1-0.9c0.1-0.5,0-1,0.1-1.5c-0.1-0.4-0.2-0.8-0.1-1.2
			c-0.1-1.4,1.6-1.9,1.9-0.4c0.1,0.4-0.1,1.1,0,1.4c0,0-0.2,0.5-0.1,0.6c0.7-1.3,2-2.2,2.8-3.4c0.9-0.8,2.3-2.4,3.4-3.2
			c1-0.8,2.2-1.9,3.5-1.9c0.4,0.1,0.8,0.4,1.2,0.6c0,0.1,0.2,0.3,0.1,0.4c0.7,1.3,0.4,3.5-0.5,4.8c-0.6,1.1-1.4,2.6-2.3,3.5
			c-0.6,0.4-1,1.1-1.6,1.5c-0.6,0.5-1.3,1.4-2,1.6c-0.4,0.3-1.3,1-1.9,1.2c-1.2,0.6-2.5,0.6-3.8,0.6c-0.2,0.7-0.5,1.7-0.5,2.4
			c-0.3,0.9-0.7,2.1-0.7,3c-0.8,3.2-1.5,6.5-2.4,9.7c-0.9,3.5-2.1,7-2.4,10.8c0.1,0.7,0.1,1.8,0.1,2.5c0.1,0.5,0.1,1.2-0.2,1.7
			c-0.1,0.1-0.2,0.2-0.3,0.2c-0.9,0-1.1-1.1-1.3-1.9c-0.3-0.7-0.2-1.5-0.3-2.2c-0.1-2.1,0.1-4.6,0.2-6.7c0.2-0.5,0.3-1.3,0.2-1.8
			c0.2-0.5,0.3-1.3,0.3-1.9c0.7-2.3,1.2-4.8,1.7-7.1c0.3-1.5,1.1-3,1.6-4.5l0.1-0.1c0.3-0.9,0.7-1.8,1-2.7c0.2-0.5,0.6-1,0.8-1.5
			c0.6-0.8,0.8-2,1.5-2.8L198.6,74.6z M197.6,79.8c0.1-0.4,0.3-0.8,0.3-1.2c-0.4,1.1-1.1,2.2-1.4,3.4c-0.1,0.1-0.1,0.5-0.1,0.6
			c-0.1,0.1-0.3,0.3-0.3,0.4c-0.2,0.7-0.2,1.5-0.7,2.1c-0.1,0.6-0.5,1.5-0.6,2.1c-0.2,0.7-0.4,1.5-0.5,2.2c-0.3,0.5-0.3,1.1-0.4,1.6
			c0,0.8-0.4,1.8-0.5,2.6c0,0.6-0.2,1.4-0.3,2c-0.1,1.7-0.6,3.8-0.4,5.5c0.7-3.1,1.5-6.6,2.3-9.7c0-0.1,0.1-0.7,0.2-0.8l-0.1-0.1
			l0.2-0.4c-0.1-0.2,0.1-0.7,0.2-0.9l0,0c0.4-1.6,0.9-3.3,1.3-4.9C197,82.8,197.2,81.2,197.6,79.8L197.6,79.8z M207.7,72
			c0.4-0.5,0.9-1.2,1.3-1.6l0.1,0c0.1-0.1,0.3-0.5,0.4-0.7l0,0c0.2-0.5,0.5-1.2,0.8-1.7c0-0.2,0.1-1.4,0.2-1.6c0-0.2,0-0.6,0-0.8
			c-0.1-0.8-0.5-0.9-1.3-0.9c-0.9,0.5-1.7,1-2.5,1.8c-0.7,0.7-1.4,1.2-2.1,1.9c-0.5,0.8-1.3,1.7-2,2.4c-0.9,1.1-1.8,2.5-2.5,3.7
			c-0.3,0.6-0.4,1.4-0.5,2.1C202.9,76.6,205.7,74.3,207.7,72L207.7,72z"/>
		<path class="st0" d="M223.5,63.8c0,0.2,0.1,1.4-0.1,1.8c-0.1,0.2-0.3,0.5-0.4,0.7c-0.5,1.4-1.8,2.5-2.6,3.8l-0.2,0.1
			c-0.1,0.4-0.6,0.6-0.9,0.9c-0.3,0.4-0.9,0.8-1.1,1l-0.1,0.1c-1.4,0.9-4.6,1.4-4-1.2c0.5-1.9,1.9-3.6,2.8-5.3l0.1,0
			c0.4-0.6,1-1.3,1.4-1.9c-0.9,0.2-2.1,1.4-3,0.7c-0.1-0.2-0.1-0.7,0-0.9c0.3-0.3,0.8-0.6,1.2-0.6c1.1-0.2,2.2-0.6,3.2-1
			c0.4-0.2,0.7-0.6,1-0.9h0c0.5-0.5,1.3-0.9,2.1-0.7c0.7-0.4,1.4-0.8,2-1.2c0.8-0.4,1.7-0.6,2.4-1c1.1-0.4,2.2-0.8,3.4-0.7h0
			c0.3-0.1,0.3,0.1,0.5,0.1c1.2,0.3,0.9,1.7,0.5,2.6c-0.1,0.1-0.4,0.3-0.5,0.2c-0.4-0.6,0-1.3-0.1-1.9c-2.3-0.3-5.8,1.7-7.5,2.8
			c-0.7,0.2-1.5,0.6-2,1C222.5,62.3,223.4,62.9,223.5,63.8L223.5,63.8z M222,65.3c0.2-0.7,0.3-1.5-0.2-2c-0.5-0.2-1-0.1-1.5-0.2
			c-1.3,2-5.3,5.7-4.6,8.4c1.2,0.5,3.7-2,4.3-3l0.2-0.1C221.1,67.5,221.6,66.3,222,65.3L222,65.3z"/>
		<path class="st0" d="M235,61.3c0.9-1.7,2.1-3.3,3.2-4.9c0.4-0.3,0.8-1,1.1-1.4c0.2-0.1,0.5-0.5,0.6-0.7c0.2-0.3,0.7-0.8,1-1h0
			c1.1-1.2,2.8-3.1,4.6-3.4c1.6-0.1,1.9,2.6,0.4,2.8l-0.4-0.2c-0.2-0.3-0.4-0.7-0.6-1c-0.3,0-0.6,0.5-0.9,0.5
			c-0.9,0.7-1.9,1.2-2.6,2.1c0,0.1-0.9,1.1-1,1.2c-0.3,0.4-0.6,0.9-1,1.2c-0.8,1.2-1.7,2.6-2.3,3.9c-0.9,1.9-2,3.7-2.5,5.7
			c-0.5,1.9-2.1,1.2-1.7-0.6c0.1-1,0.7-2,0.8-3c0.3-1.1,0.7-2.3,0.8-3.5c0.1-1.1,0.3-2.3,0.3-3.4c0.1-0.4,0.4-1,0.8-1.3
			c0.5-0.1,1,0.1,1.1,0.5c0.3,1-0.6,2-0.7,2.9C235.5,58.9,235.2,60.3,235,61.3L235,61.3z"/>
		<path class="st0" d="M255.4,38.6l0.4-0.1c0.3-1.2,0.8-2.6,1.2-3.8c0.3-1,0.7-1.8,1.1-2.8c0.1-0.1,0.4-0.2,0.6-0.2
			c0.4,0.1,0.7,0.5,0.8,0.9c-0.7,1.7-1.7,3.6-2.2,5.4c1.3-0.6,2.9-1.2,4.2-1.8c0.4,0,0.8-0.1,1.2-0.2c0.2-0.1,0.5-0.2,0.7-0.2
			c0.9-0.6,2.2-0.4,3.3-0.8c0.3,0.1,0.8-0.1,1-0.1l0.2,0.1c0.5-0.1,1.7,0,2.2,0.1c0.1-0.1,0.5,0,0.7,0c0.1,0.1,0.3,0.2,0.4,0.2
			l0.2-0.1c0.2,0.1,0.6,0.3,0.8,0.4c0.1,0,0.1,0,0.1,0c0.9,0.6,2.1,1.6,1.7,2.7c-0.1,0-0.3,0-0.4-0.1c-0.4-0.9-1.2-1.7-2.1-2
			c-0.7-0.3-1.3-0.1-1.9-0.3c-0.4-0.1-0.9,0.1-1.3,0.2c-0.6-0.1-1.3,0-1.9,0.2c-1.3,0.3-2.8,0.6-4,1.1c-2,0.5-4,1.4-5.7,2.5
			c-0.1,0.3-0.4,0.9-0.3,1.3c-0.2,0.2-0.3,0.6-0.4,0.8c-0.5,1.8-1.2,3.8-1.8,5.6c-0.2,0.6-0.3,1.4-0.6,2c-0.1,0.4-0.3,1.3-0.5,1.8
			c-0.6,1.5-1,3.3-1.5,4.9c-0.1,1-0.5,2.1-0.4,3.1c0.1,0.4-0.1,1,0.1,1.4h0c0.5-0.3,1-0.7,1.4-1.2c0.2-0.3,0.5-0.4,0.7-0.6
			c0.5-0.3,1.1-1,1.5-1.4c1.2-1,2.3-2.4,3.5-3.4c0.3-0.7,1.2-1.2,1.7-1.8c0.4-0.4,0.7-1,1.3-1.2l0.2,0.1c0.1,0.1,0.2,0.4,0.2,0.5
			c-0.8,1.1-1.6,2.2-2.6,3c-0.3,0.5-0.8,1.1-1.3,1.4c-0.1,0.3-0.5,0.6-0.7,0.8h0c-0.1,0.1-0.2,0.3-0.2,0.4c-0.7,0.5-1.4,1.1-1.8,1.9
			l-0.1,0c-0.7,0.8-1.5,1.6-2.3,2.2c-0.6,0.5-1.4,1.1-2.3,0.9c-0.7-0.6-0.5-1.4-0.7-2.3l0.1-0.2c-0.1-0.2,0-0.4,0.1-0.6
			c0-0.3,0.1-0.9,0.2-1.3c0-0.1,0-0.2,0-0.2c0.4-1.1,0.6-2.3,1.1-3.3c0-0.1,0-0.1,0-0.2c0.3-0.7,0.4-1.5,0.6-2.3
			c0.9-2.9,2-6,2.8-8.9l0.1,0c0.1-0.8,0.6-1.6,0.8-2.4c-1.7,0.7-3.5,1.7-5,2.9c-1,0.6-2.1,2.3-3.4,1.4c-0.8-1.3,1.3-1.9,2-2.7
			c0.8-0.3,1.8-0.8,2.6-1.3c0.6-0.3,1.3-0.6,1.9-1C253.9,39.3,254.6,38.8,255.4,38.6z"/>
	</g>
	<g id="_3">
		<path class="st0" d="M250.9,19.9c0.1,0,0.1,0,0.3,0C251.1,19.9,251,19.9,250.9,19.9z"/>
		<path class="st0" d="M251.4,9.2C251.4,9.2,251.4,9.2,251.4,9.2c0.3,0,0.4,0,0.4,0c0,0-0.1,0-0.1,0C251.4,9.1,251.4,9.2,251.4,9.2z
			"/>
		<path class="st0" d="M251.6,19.9C251.9,19.9,252,19.9,251.6,19.9C251.6,19.9,251.6,19.9,251.6,19.9z"/>
		<path class="st0" d="M251.9,9.1c-0.1,0-0.1,0-0.1,0C251.8,9.1,251.9,9.2,251.9,9.1L251.9,9.1z"/>
		<path class="st0" d="M251.4,30.6c-0.2,0-0.4,0-0.6,0C250.6,30.6,250.6,30.6,251.4,30.6z"/>
		<path class="st0" d="M251.4,30.6C251.4,30.6,251.5,30.6,251.4,30.6L251.4,30.6z"/>
		<path class="st0" d="M242.4,11.3c-0.4-0.2-0.8-0.3-1.1-0.5c-0.1,0.1-0.1,0.1-0.2,0.2c0-0.6-0.4,0.1-0.4-0.3c-0.3,0-1-0.1-0.6,0.6
			l-0.3-0.2c-0.1,0.5,0.8,0.7,1.2,0.9c0,0,0-0.1,0-0.1c0,0.1,0.1,0.1,0.2,0.2c0.1,0,0.2-0.3,0.5-0.1c0.4,0.8,2.2,1.3,3.1,1.3
			c0.5,0-0.2-0.6-0.2-1C243.8,11.9,243.1,11.6,242.4,11.3L242.4,11.3L242.4,11.3z M244.3,12.3c0.1,0.2,0.3,0.3,0,0.3l0.1,0
			c0-0.2-0.2-0.4-0.1-0.5C244.2,12.2,244.2,12.2,244.3,12.3L244.3,12.3z"/>
		<path class="st0" d="M256.5,29.5c0-0.4,0.2-0.7,0.2-1.1c-4.1,1.8-9,0.9-12.9-0.6c0,0.1-0.1,0.2-0.2,0.1c0,0,0-0.1,0-0.1
			c-2.6-1-5.1-2.1-7.4-3.1c0.3-0.4-0.3-0.6-0.4-0.9c-0.2-0.1-0.4-0.1-0.6-0.1c-0.1,0.4-0.3,0.3-0.3,1c0.4,0.1,0.4-0.2,0.8-0.1
			l-0.2,0.4c0.1,0.2,0.3-0.3,0.5,0c0.1,0.1,0.1,0.2,0,0.3c0.2,0.1,0.3,0.2,0.2,0.3c1,0.5,2.1,1.1,3.3,1.6c0-0.3-0.6-0.6-0.3-0.7
			c0.4,0.2,0.8,0.3,1.1,0.7c-0.1-0.3,0.2-0.1,0.4-0.2l0.1-0.2c0,0.1,0,0.2-0.1,0.2l-0.2,0.5l0.3,0.2c0,0-0.1,0-0.1,0
			c3.1,1.3,6.7,2.8,10.4,2.8c-0.4,0.2,0.2-0.1,0.3,0.1c0.6-0.2,1.4-0.1,2-0.2l0-0.3l0.1,0.2c1.1-0.1,2.1-0.4,3.1-0.7L256.5,29.5
			L256.5,29.5z M256.1,29.6c-0.1-0.2-0.1-0.4-0.3-0.6l0.3,0.1L256.1,29.6L256.1,29.6z"/>
		<path class="st0" d="M255.8,18.2c-0.2,0.1-0.2,0.6-0.1,0.8l-0.5-0.5c-0.1,0.2-0.2,0.3-0.5,0.1l0-0.3c-3.2,0.8-6.2,0.3-9.4-0.7
			c-0.1,0.2,0.1,0.5-0.2,0.1c0,0.1,0.1,0.4,0.1,0.4c0-0.2-0.5-0.4-0.5-0.1c0.2,0.1,0.4,0.8,0.5,0.4c0,0.2-0.1,0.2-0.3,0.2
			c1.8,0.6,3.8,1,5.9,1.2c-0.1,0-0.1,0-0.1,0c0.4,0,0.9,0,0.7,0c0,0,0,0,0,0c0,0-0.1,0-0.2,0c0.5,0,1,0,1.5-0.1
			c0-0.3-0.1-0.4-0.2-0.6c0.1,0.1,0.4,0.5,0.5,0.3l-0.1-0.1c0.2,0.1,0.4,0.2,0.5,0.3c0.8-0.2,1.6-0.4,2.5-0.6l-0.3-0.4l0.3-0.1
			C256,18.3,255.8,18.2,255.8,18.2L255.8,18.2z M254.3,19.2c0.1-0.2-0.2-0.5,0.1-0.5C254.5,18.9,254.5,19.1,254.3,19.2z"/>
		<path class="st0" d="M240.1,16.2l-0.4-0.3c0.1,0.4-0.1,0.4-0.3,0.4c0.3,0.1,0.6,0.3,0.9,0.4l-0.1-0.1c0.2,0,0.5,0.4,0.7,0.5
			c0,0,0,0,0-0.1c0,0.1,0,0.1,0,0.1c0.4,0.2,0.8,0.4,1.3,0.6l0.2-0.2l0.1,0.2c0.6-0.1,1.4,0.1,1.7,0l0.5,0.4
			c-0.2-0.4,0.3-0.2,0.5-0.3c-1.8-0.6-3.5-1.3-4.9-2C240.3,15.8,240.3,16.1,240.1,16.2z"/>
		<path class="st0" d="M237.6,14.3l-0.1-0.2c-0.9-0.4-2.4-0.8-2.1-1c-0.6-0.2-1.3-0.1-0.9,0c0.2-0.1,0.5,0,0.4,0.1c0,0,0,0,0,0
			c0,0,0,0,0.1,0c0,0,0,0-0.1,0c0,0.1-0.3,0.3-0.4,0.1l0,0l0.2,0.7l0.4,0.3v0.1c0.4,0.1,0.9,0.3,1.3,0.4l-0.1-0.2l0.4,0.2l-0.1,0
			c0.3,0.2,0.7,0.3,1,0.5c-0.1-0.5-0.4-0.2-0.6-0.5c0.3-0.5,0.9,1.1,0.9,0.3c0,0,0.3,0.5,0.3,0.5c0.2,0.1,0.3,0.2,0.5,0.2
			c0,0,0,0,0,0c0.3,0.3,0.5-0.4,0.6,0.2c0.1-0.2,0-0.6-0.2-0.6c0.3-0.3,0.5,0.6,0.9,0.3c-0.5-0.8-1.9-1.1-2.5-1.7L237.6,14.3
			L237.6,14.3z M235.7,14.1l-0.4-0.2v-0.1L235.7,14.1L235.7,14.1L235.7,14.1z"/>
		<path class="st0" d="M248.5,24.5c0.1,0.4,0.4,0.5,0.5,0.6c0.2,0,0.4,0,0.6,0.1C249.8,24.3,248.8,24.5,248.5,24.5z"/>
		<path class="st0" d="M234.4,13.6c0.1,0,0.1,0,0.1-0.1C234.4,13.5,234.4,13.5,234.4,13.6L234.4,13.6L234.4,13.6z"/>
		<path class="st0" d="M244.4,18.5c0.2,0.1,0.3,0.1,0.5,0.2l0-0.1C244.7,18,244.6,18.3,244.4,18.5L244.4,18.5z"/>
		<path class="st0" d="M244,18.3c0.1,0,0.2,0.1,0.2,0.1l0-0.1C244.1,18.1,244,18.2,244,18.3z"/>
		<path class="st0" d="M237.5,19.6c-0.3-0.3-0.9-0.4-1.2-0.5c0.1,0.1,0.2,0.3,0.2,0.5c-0.2,0-0.1,0.4-0.2,0.6
			c0.2,0.2,0.4,0.3,0.6,0.3c-0.1-0.3,0.3-0.2,0.4-0.2c0.1-0.1,0-0.2-0.1-0.3C237.3,20.1,237.3,19.8,237.5,19.6L237.5,19.6z
			 M237.1,20C237.1,20,237.1,20,237.1,20C237.1,20,237,20,237.1,20z"/>
		<path class="st0" d="M248.4,25c0.2,0,0.4,0.1,0.6,0.1l-0.5-0.3C248.4,24.8,248.4,24.9,248.4,25L248.4,25z"/>
		<path class="st0" d="M240.3,22.2c0.1,0,0.2,0.1,0.3,0.1c0-0.1-0.1-0.2-0.1-0.3C240.5,22.1,240.3,22.2,240.3,22.2z"/>
		<path class="st0" d="M239.7,21.5c-0.5-0.9-0.5,0.4-0.7-0.1c-0.2,0-0.2,0.1-0.1,0.2c0.5,0.2,0.9,0.5,1.4,0.7l0.1-0.4
			c0.2-0.1,0.4-0.2,0.6-0.3c-0.4-0.2-0.8-0.4-1.1-0.5C239.7,21.1,239.6,21.2,239.7,21.5z"/>
		<path class="st0" d="M242.6,17.8l-0.1-0.2c-0.1,0-0.2,0-0.2,0C242.4,17.7,242.5,17.7,242.6,17.8L242.6,17.8z"/>
		<path class="st0" d="M264.6,20.8c-0.2-0.2-0.5-1.1-0.9-0.8l0.6-0.3c-0.2,0.3,0.3,0.5,0.4,0.4l-0.2-0.4c0.3,0.3,0.5-0.2,0.3-0.4
			c-0.3,0.1-0.5,0.2-0.8,0.3c-0.1,0.2-0.3,0.5-1.1,0.8l0.1,0.3c-0.2-0.3-0.7-0.2-0.5,0.2l0.2,0.1l-0.1,0.4l0-0.2
			c-0.2-0.3-0.4-0.3-0.5-0.4c-3.2,1.6-7.2,3.4-10.9,3.3c-0.1,0-0.1,0-0.2,0c0,0.5,0.2,0.5,0.6,0.6c0,0.2,0.1,0.3-0.2,0.5
			c0.1,0,0.1,0,0,0c0.3,0,0.8,0,0.4,0c0.7,0,1.3-0.1,2-0.2c0,0,0-0.1,0-0.2l0,0.1c0.9-0.1,1.8-0.3,2.6-0.6c0.1-0.1,0.2-0.2,0.4-0.1
			c0.8-0.2,1.5-0.5,2.1-0.8c0,0,0-0.1,0-0.2c-0.1,0-0.1-0.1-0.2-0.1l0.2,0.1c0,0,0,0,0,0c0.1,0,0.1,0,0.2,0.1c0,0,0.1,0,0.2-0.1
			c0,0-0.1-0.1,0-0.1c0.3,0.2,0.3-0.1,0.5-0.1C261.3,22.1,263,21.3,264.6,20.8L264.6,20.8z M263.5,20.6l0,0.2l-0.3-0.3L263.5,20.6
			L263.5,20.6z"/>
		<path class="st0" d="M288.2,24.6c0.4,0.2,0.5-0.4,0.7-0.5c-0.7-0.3-1.3-0.6-1.8-0.8v0.1l-0.3,0l0.2-0.1c-3.4-1.1-7-2.4-11.2-1.8
			c-0.1,0.2-0.3,0.3-0.5,0.2c0.2,0.3,0.3,0.1,0.5,0.5l0,0.4c1.2-0.1,2.2-0.1,3.2-0.1c0.1-0.1,0.3-0.1,0.3-0.1l0,0.2
			c0.1,0,0.3,0,0.4,0c-0.1-0.1-0.2-0.2-0.2-0.5l0.6,0.4c0,0.1,0,0.1,0,0.1c2.4,0.2,4.7,1.1,6.9,2c0,0,0,0,0,0
			c0.3,0.1,0.6,0.1,0.9,0.1c0,0,0.1-0.1,0.2,0c-0.1,0-0.1,0-0.2,0c0,0-0.1,0.1-0.1,0.2c0.2,0.1,0.4,0.1,0.6,0.2c0,0,0,0,0,0
			c0,0,0-0.1-0.1-0.1h0.3l0,0C288.4,24.7,288.2,24.8,288.2,24.6L288.2,24.6z M276.2,22.4c-0.1-0.1-0.4-0.2-0.3-0.5
			C276,22,276.3,22.2,276.2,22.4z M279,21.5c0,0.1-0.1,0.4-0.3,0.1C278.8,21.4,278.9,21.5,279,21.5C279,21.5,279,21.5,279,21.5
			C279,21.5,279,21.5,279,21.5z M286.8,24.4c0,0,0,0,0,0.1C286.8,24.5,286.8,24.5,286.8,24.4z"/>
		<path class="st0" d="M305,18.8c-2.1,0-4.1-0.5-6-1.1c-0.1,0.1-0.2,0.2-0.4,0.1c0-0.1,0.1-0.2,0.1-0.2c-2.9-1-5.8-2.1-8.8-3.6
			l0,0.2c-1.2-0.9-2.7-1.2-3.9-1.7l-0.1,0.5c-0.3-0.3-0.4,0.1-0.7-0.2c0.2-0.1,0.1-0.3,0.1-0.5c-1.2-0.4-2.3-0.7-3.4-1c0,0,0,0,0,0
			l0.1,0.1c-0.2,0.1-0.2,0.4-0.5,0.3l-0.2-0.6c-0.2,0.1-0.3,0.1-0.3-0.1c-0.1,0-0.2,0-0.2,0c0,0,0,0.1,0,0.1l-0.1-0.1
			c-0.3-0.1-0.6-0.1-0.9-0.1c-0.3,0.3-0.5,0.1-0.8-0.1c-0.4,0-0.8-0.1-1.2-0.1c-0.1,0.1-0.2,0.2,0,0.5c-0.4-0.4-0.9-0.1-1.2,0.1
			l0-0.3c-0.1-0.2-0.3,0.1-0.3,0.2c0,0,0,0,0.1,0.1l-0.1,0c0,0,0,0,0,0c-0.2-0.2-0.5,0.2-0.7-0.2c0.2,0,0.2-0.2,0.3-0.3
			c-1.8,0.1-3.8,0.5-5.8,1.2l0.2,0.3c-0.1-0.1-0.3-0.2-0.2,0l-0.3-0.2c-3.4,1.1-4.2,2.3-7.4,3.1c0,0.1,0,0.1-0.1,0.1l0-0.1
			c-0.3,0-0.5,0.2-0.7,0.3c0.1,0.1,0.3,0.2,0.4,0l-0.3,0.4l0,0l-0.5,1.1c0.2-0.1,0.4-0.1,0.5-0.2c0-0.1-0.1-0.1-0.2-0.2
			c0.4,0.4,0.1-0.6,0.5-0.1l-0.2,0.2c0.4-0.2,0.8-0.3,1.2-0.5c0-0.1,0.1-0.2,0.2-0.3c0-0.1,0-0.1,0-0.2l0.2,0.1
			c3.1-1.2,6-2.9,9.9-3.6v-0.1l0,0.1c0.1,0,0.2,0,0.3-0.1c0-0.2,0.2-0.2,0.4-0.1c2.6-0.5,4.4-0.6,7.6,0.1c0,0,0,0,0,0c0,0,0,0,0,0.1
			c0.7,0.1,1.5,0.4,2.2,0.6c0,0,0.1,0,0.1,0c0,0,0,0,0,0.1c1.3,0.4,2.8,0.9,4.2,1.4c0.2-0.3,0.4-0.5,0.9,0.1l-0.1,0.2
			c4.7,1.7,8.5,5.2,14.2,5.3c0,0,0,0,0,0c-0.1,0,1.2,0.1,1.1,0.1c0.6,0,0.2-0.4,0.2-0.6C305.3,19,304.6,18.8,305,18.8L305,18.8z
			 M277.1,11.5l0.2-0.1l0.1,0.2L277.1,11.5L277.1,11.5z M278.5,11.3l-0.2-0.4l0.3,0C278.6,11.1,278.5,11.1,278.5,11.3z M288.1,13.8
			l0-0.3l0.3,0.1L288.1,13.8L288.1,13.8z"/>
		<path class="st0" d="M303.4,19.9C303.4,19.9,303.7,19.9,303.4,19.9L303.4,19.9z"/>
		<path class="st0" d="M300.1,23.5c-0.2,0-0.3-0.1-0.5-0.1l0,0.1C299.7,23.7,299.9,23.5,300.1,23.5L300.1,23.5z"/>
		<path class="st0" d="M304.5,19.9c0,0-0.1,0-0.1,0C304.4,19.9,304.5,19.9,304.5,19.9z"/>
		<path class="st0" d="M292.9,20.4c-4.7-1.8-8.3-3.8-14.4-4.2v0l-0.3,0l0.1,0c-3.2-0.1-5.9,0.5-9.3,1.6c0,0.1,0,0.2,0,0.3l-0.1-0.3
			c-0.1,0-0.1,0-0.2,0.1c0,0.2,0,0.4,0,0.6c-0.6-1.1-0.3,0.3-0.6,0.4c0.2,0,0.4,0.1,0.6,0l0.1,0.2c0.1,0,0.2-0.1,0.3-0.1
			c-0.1-0.2-0.2-0.5,0-0.7c0.2,0.1,0.2,0.4,0.3,0.6c0.2-0.1,0.5-0.2,0.8-0.3c0,0-0.1-0.1-0.1-0.2l0.4-0.1c0,0.2-0.1,0.1-0.1,0.2
			c6.6-2.6,15.1-1,20.9,2.9c0,0,0,0,0.1,0c0.1-0.2-0.1-0.2-0.2-0.4l0.9,0c0,0.2-0.1,0.5-0.2,0.6l0,0c0.3,0.1,0.7,0.2,1,0.4
			c0-0.2,0.1-0.4-0.4-0.5c0,0.1,0,0.2,0,0.3c-0.3-0.2,0-0.2-0.3-0.4l0.2,0c-0.1-0.2-0.2-0.3-0.2-0.5c0.5,0.5,0.8-0.5,1.2,0l-0.1-0.1
			c0,0,0,0,0.1,0C293.3,20.6,293.1,20.5,292.9,20.4L292.9,20.4z M284.4,17.7l-0.1-0.4c0.1,0.3,0.4,0.2,0.5,0.3
			C284.7,17.6,284.6,17.9,284.4,17.7L284.4,17.7z M288.4,19.2c-0.1-0.4,0.2-0.2,0.3-0.2v-0.1c0,0,0,0.5,0,0.5L288.4,19.2z"/>
		<path class="st0" d="M303.8,14.6L303.8,14.6L303.8,14.6z"/>
		<path class="st0" d="M304.5,19.9C304.5,19.9,304.5,19.9,304.5,19.9C304.5,19.9,304.5,19.9,304.5,19.9z"/>
		<path class="st0" d="M304.2,14.6c-0.3,0-0.4,0-0.4-0.1C303.7,14.6,303.6,14.6,304.2,14.6z"/>
		<path class="st0" d="M295.5,23C295.5,23,295.5,23,295.5,23L295.5,23C295.5,23,295.5,23,295.5,23L295.5,23z"/>
		<path class="st0" d="M304.5,19.9C304.5,19.9,304.5,19.9,304.5,19.9C304.5,19.9,304.5,19.9,304.5,19.9z"/>
		<path class="st0" d="M301.4,13.1c0.1,0.1,0.1,0.2,0.2,0.1c-0.1,0.1-0.2,0-0.4-0.2c-2.8-0.6-5.7-2-9.3-3.3
			c-0.2-0.4-0.5-0.4-0.8-0.8c0,0,0,0,0.1,0c-1.7-1.1-3.7-1.8-5.7-2.4l-0.1,0c0,0,0,0,0-0.1c-1.7-0.5-3.6-0.9-5.5-1.1
			c0,0.1,0.1,0.1,0.1,0.1c0,0-0.1,0-0.1,0l-0.1,0c0,0,0,0,0,0c-0.3,0-0.5-0.1-0.8-0.1l0,0.1c0,0,0-0.1-0.1-0.1
			c-0.5,0-0.9-0.1-1.4-0.1c0.1,0.1,0.2,0.1,0.3,0.1c0.1,0.4-0.8,0.5-0.1,0.8c0,0.1,0,0.2,0,0.3c0,0,0.1,0,0.2,0l0,0c0,0,0,0,0,0
			c0.1,0,0.1,0,0.2,0l-0.2-0.6l0.3,0.1v0.4c2.3,0.1,4.8,0.5,7.1,1.4c0.2-0.2,0.4-0.5,0.7-0.5c0.1,0.6,0.4-0.6,0.6,0.6
			c-0.3-0.4-0.5-0.2-0.6,0l0.1,0.1c0,0-0.1,0.1-0.1,0.1c6.5,1.9,10.9,5.9,17.8,6.4c0.1,0,1.6-0.1,1.3-0.6
			C305.4,13.1,302.1,13.5,301.4,13.1L301.4,13.1z"/>
		<path class="st0" d="M275,21.6l0.1,0.2c0-0.1,0-0.2,0.1-0.3C275.2,21.6,275.1,21.6,275,21.6L275,21.6z"/>
		<path class="st0" d="M273.2,6.9c0-0.1-0.1-0.1-0.1-0.3c0.1,0.2,0.3,0,0.3,0.2c0,0,0.1,0,0.1,0c0.1-0.1,0.1-0.2,0.1-0.4
			c0,0-0.1,0-0.2,0l0.2-0.2l0,0.3c0-0.2,0.8,0.2,0.5-0.4l0.2,0.5c0-0.3,0.4-0.1,0.5-0.1c-0.3-0.2,0-0.4,0-0.5c0.4,0.3,0.7-0.3,1-0.3
			c0-0.1,0-0.2-0.1-0.2c-2.9,0.3-5.9,1.1-8.3,2c0,0.2,0.1,0.5-0.1,0.3c0.1,0,0-0.2,0-0.3c-1.9,0.7-3,1.3-4.7,2.2
			c0,0.1,0,0.2,0.1,0.3c-0.5-0.1-0.8,0-1,0.2c0-0.1-0.1-0.1-0.1-0.1c-0.3,0.1-0.5,0.2-0.8,0.4c0,0.1,0.1,0.3-0.2,0.2
			c0,0.2,0.2,0.2,0.4,0.2c-0.2-0.1-0.5-0.1-0.7-0.3c-0.1,0.1-0.2,0.1-0.3,0.2c0,0,0,0,0,0.1c-0.1,0-0.2,0.1-0.3,0.1
			c-0.1,0.2,0,0.5-0.4,0.4c0,0,0,0,0,0.1c0.1,0.1,0.2,0.1,0.3,0.2c-0.1,0.1-0.2,0-0.3-0.2c-0.1-0.1-0.2-0.1-0.2,0.1l-0.1-0.2
			c-0.2,0.1-0.4,0.2-0.5,0.2c0,0.2,0,0.4,0.2,0.5c0.2,0,0-0.5,0.3-0.2c-0.1,1.4,0.3-0.1,0.7,0.5c0-0.1,0-0.1,0-0.1c0,0,0,0,0,0
			c0.1,0,0.2,0.1,0.3,0.2c1.2-0.5,2.3-1,3.6-1.5C266,9.2,269.4,7.8,273.2,6.9C273.2,6.9,273.2,6.9,273.2,6.9L273.2,6.9z M259.9,12.2
			l-0.1-0.3l0.4-0.1C260.4,12.2,260,12.1,259.9,12.2z M260.5,12c-0.1,0-0.1-0.2-0.2-0.4l0.3,0.2C260.7,12,260.6,12,260.5,12z
			 M260.7,11.5c-0.2-0.1-0.3-0.2-0.4-0.5C260.4,11.3,260.8,11.2,260.7,11.5z"/>
		<path class="st0" d="M258.5,11.6c-0.1,0-0.1,0.1-0.2,0.1l0.1,0.3C258.6,11.9,258.5,11.7,258.5,11.6L258.5,11.6z"/>
		<path class="st0" d="M268.2,18c-0.5,0.2-0.9,0.3-1.4,0.5c0.2,0.3,0.3,0.7,0.6,1.1c0.2-0.1,0.3-0.1,0.5-0.2c0-0.4-0.1-0.3,0.2-0.3
			c0-0.2,0-0.2-0.1-0.3l0,0l0,0C267.9,18.6,267.9,18.2,268.2,18L268.2,18z M266.9,18.5l0.3,0l0,0.3L266.9,18.5L266.9,18.5z"/>
		<path class="st0" d="M274.9,22.7c0.1,0,0.2,0,0.3,0C275.1,22.6,275,22.6,274.9,22.7z"/>
		<path class="st0" d="M271.9,22.7l-0.1,0.7c0.2-0.1,0.5-0.1,0.7-0.2c0,0,0-0.1,0-0.1c0.2-0.1,0.9-0.4,1-0.8
			c0.1,0.4,0.5-0.2,0.6,0.5c0.5-0.3-0.3-0.4-0.2-0.9c-0.3,0.1-0.6,0.1-0.9,0.2l0.1,0.1l-0.4,0.1v-0.1c-0.4,0.1-0.8,0.2-1.2,0.3
			C271.6,22.7,271.7,22.8,271.9,22.7L271.9,22.7z"/>
		<path class="st0" d="M277.2,5.8V5.3c-0.1,0-0.1,0-0.2,0C277,5.5,276.9,5.7,277.2,5.8z"/>
		<path class="st0" d="M234.3,3.3c0.1,0.2,0.9,0.4,1.4,0.6l0-0.1c0.2,0,0.4,0.1,0.4-0.3l0.4,0.6c0.1-0.9,0.8,0.6,1.4,0.4
			c0,0.1-0.7,0-0.4,0.3c-0.1,0-0.2,0-0.3,0c0.4,0.2,0.7,0.4,1.1,0.6L237.9,5l0.3,0.2l-0.1-0.4l0.2,0.1l0,0.6
			c1.5,0.8,3.4,1.7,5.4,2.3V7.8l0.1,0.1c2.1,0.7,4.5,1.2,7.1,1.3c-0.2,0-0.3,0,0,0.1V9.1v0.1c0.1,0,0.1,0,0.2,0h0c0,0,0-0.1,0-0.1
			c0,0-0.1,0-0.1,0c0,0,0.1,0,0.1,0l0,0l0,0c0-0.1,0.1-0.1,0.2,0c0.1,0,0.3,0,0.4,0l0.5-0.6l-0.1,0c0.3-0.4,1-0.1,1.2-0.6
			c-2.2,0.5-4.4,0.1-6.5-0.4l0.2,0.3c-0.2-0.2-0.5,0.2-0.6-0.4c0.1,0,0.1,0,0.1,0c-3.4-0.9-6.6-2.4-8.8-3.7
			c-0.1,0.2-0.1,0.5-0.4,0.2c1.1-0.3-2.5-1.4-1.8-1.5c-0.5-0.3-1.2-0.1-0.7,0.2C234,2.9,233.7,3.1,234.3,3.3L234.3,3.3z M244.3,7.6
			L244.3,7.6c0.1,0-0.4,0.1-0.4,0.1C243.9,7.3,244.2,7.5,244.3,7.6z M238.3,4.5l-0.3-0.4C238.1,4.1,238.4,4.4,238.3,4.5z M235,3
			L235,3l-0.3,0L235,3L235,3z"/>
		<path class="st0" d="M270.2,12c0,0-0.1,0-0.1,0C270.1,12.1,270.2,12.1,270.2,12z"/>
		<path class="st0" d="M290.1,24.6c-0.1,0.4-0.8-0.1-0.6,0.5c-0.2-0.3-0.4-0.4-0.6-0.5c-0.1,0.1-0.2,0.2-0.4,0.4c0,0,0,0,0,0h0
			c-0.1,0.1-0.1,0.1-0.2,0.2c0.2,0.2,1.3,0.2,1.1,0.2c0,0.1,0,0.1-0.1,0.2c1.1,0.5,2.3,0.9,3.5,1.5c0.2-0.1,0.6-0.2,0.7-0.5
			c0.1,0.2,0.3,0.2,0.5,0.1c-0.7-0.3-1.4-0.6-2.1-0.9C291.7,25.4,291,25,290.1,24.6L290.1,24.6z"/>
		<path class="st0" d="M253.4,8.2c0.3,0.2,0.6,0,0.7-0.3c0,0.2,0.2,0.3,0.1,0.7c0.6-0.2-0.3-1,0.9-0.6l-0.3,0.2l0.2,0.3
			c0.1,0,0.2-0.1,0.4-0.1c0-0.1,0.1-0.2-0.1-0.3c0.2-0.1,0.9,0,0.7-0.3c0.2-0.2,0.2,0.2,0.3,0.3c0.1,0,0.2-0.1,0.4-0.1
			c-0.1-0.2-0.2-0.3-0.4-0.2l0.3-0.1l0.1,0.3c0.3-0.1,0.7-0.2,1-0.3c0,0,0-0.1-0.1-0.1c0.1,0,0.2-0.1,0.4-0.1c0,0-0.1,0.1-0.1,0.2
			c1.2-0.4,2.5-0.9,3.8-1.4l-0.2-0.2c0.1-0.1,0.3-0.3,0.4-0.1l-0.1,0L262,6c0.1-0.1,0.3-0.1,0.4-0.1l0-0.1l0.4-0.1c0,0,0,0,0,0.1
			c7.8-3.9,16-6.8,25.6-2.1c0,0,0-0.1-0.1-0.1c0,0-0.1,0-0.1,0c0,0,0,0,0.1,0c0.1,0,0.2-0.1,0.3,0c0,0.1-0.1,0.1-0.1,0.1
			c0.5,0.2,0.9,0.4,1.4,0.6c0-0.1,0-0.1,0.1-0.2c0,0,0,0,0,0l0,0l0,0c0.6,0.5,0.9-0.3,1.4-0.2c-1.8-1.1-5.1-2.2-7.8-3l0.1,0.3
			c-0.3-0.5-0.2,0-0.4,0l-0.1-0.3c0,0,0,0,0.1,0c-5.8-1.8-12.8,0-17.7,2.4c0,0,0,0.1,0,0.1c-0.1,0.1-0.2,0.2-0.4,0
			c0,0-0.1,0-0.2,0.1c0.2,0.1,0.5,0.3,0.6,0.4c-0.3,0.2,0.1,0.6-0.3,0.8l-0.1-0.4c-0.1,0.2-0.5,0.5-0.7,0.3l0.1,0.3L264,4.5
			c-0.1-0.1,0.2-0.4,0.1-0.6c-0.1,0-0.2,0.1-0.3,0.1c-3.6,1.4-7.2,3.2-10.4,3.8C253.5,7.9,253.6,8.1,253.4,8.2L253.4,8.2z
			 M282.8,1.2c0,0,0.1,0,0.1,0c0,0,0.1,0,0.1,0.1C283,1.2,282.9,1.1,282.8,1.2l0.1,0.2l-0.3,0C282.7,1.3,282.8,1.3,282.8,1.2
			C282.9,1.2,282.8,1.2,282.8,1.2z M268.3,2.1c0.3-0.2,0.9,0.6,1.1,0.1c0.1,0.6-0.3,0.1-0.3,0.6c-0.2-0.7-0.5,0.1-0.8-0.3
			C268.3,2.5,268.3,2.3,268.3,2.1L268.3,2.1z M268.1,2.7L268.1,2.7l-0.2-0.4L268.1,2.7z M264.3,4.9c-0.1,0-0.2,0-0.1,0.2
			c0-0.5-0.3,0.1-0.5-0.4C263.6,4.7,264.3,4.9,264.3,4.9z"/>
		<path class="st0" d="M234.4,14c0,0.1,0.2,0.2,0.4,0.2l-0.5-0.5h-0.1C234.4,13.8,234.5,13.9,234.4,14L234.4,14z"/>
		<path class="st0" d="M245,12.5l-0.2,0.1c0.3,0.1,0.2,0.5,0.5,0.4c0.1-0.2,0.1-0.3,0.1-0.5c-0.3-0.1-0.6-0.2-0.9-0.3L245,12.5z"/>
		<path class="st0" d="M279.5,22.5L279.5,22.5c0.1,0.1,0.2,0.1,0.3,0.1C279.7,22.5,279.7,22.4,279.5,22.5z"/>
		<path class="st0" d="M261,16.6c-0.2,0.3-0.5-0.1-0.7,0.2l0-0.4c-0.5-0.2-0.1,0.5-0.7,0.4l0.2,0.3l-0.3-0.2c0,0.3,0.1,0.9-0.2,0.6
			l0.1,0.1c0.6-0.2,1.2-0.5,1.8-0.7C261.1,17,261,16.8,261,16.6L261,16.6z"/>
		<path class="st0" d="M265.7,20.5c0.1,0,0.2-0.1,0.3-0.2c-0.1,0-0.1,0-0.2-0.1C265.8,20.4,265.7,20.5,265.7,20.5L265.7,20.5z"/>
		<path class="st0" d="M259.7,28.4c0.1,0,0.1-0.1,0.2-0.1c0,0-0.1-0.1-0.1-0.1C259.7,28.3,259.7,28.3,259.7,28.4L259.7,28.4z"/>
		<path class="st0" d="M270.9,23.3c0-0.1-0.3-0.2-0.1-0.3c0.2,0.1,0.5,0.1,0.6-0.3c0-0.1-0.1-0.2-0.2-0.2c-0.4,0.1-0.8,0.3-1.3,0.4
			l0,0c-3.9,1.4-6.9,2.9-10.6,4.4c0,0,0,0,0,0c0.2-0.1,0.4,0,0.6,0.2l-0.2,0c0,0.1,0,0.1,0.1,0.1h-0.4c0.1,0.2,0.3,0.1,0.3,0.5
			c0.1,0,0.1,0,0.2,0c0,0,0,0.1,0.1,0.1l0,0c0.3-0.2,0.6-0.3,0.9-0.5c-0.1-0.2-0.2-0.5,0.1-0.4c0.1,0.1,0.1,0.2,0.1,0.3
			c0.5-0.3,1-0.6,1.5-0.8c-0.1-0.2-0.2-0.4-0.1-0.5c0.5,0.4,0.3-0.4,0.7-0.4c0,0.3-0.4,0.5-0.6,0.8l0,0.1c3-1.1,6.2-2.6,9.1-3.5
			C271.6,23.1,271,23.1,270.9,23.3L270.9,23.3z M260.1,28.2l-0.1-0.4l0.1,0.2L260.1,28.2z M263.9,26c-0.1-0.7,0.6-0.1,0.8-0.4
			C264.4,25.9,264.3,26.3,263.9,26z"/>
		<path class="st0" d="M256.2,17.9C256.2,17.9,256.2,17.9,256.2,17.9c-0.2,0.2,0,0.6,0.1,1c0.5-0.2,1-0.3,1.5-0.5c0,0-0.1,0-0.1-0.1
			l0.1,0c-0.3-0.4-0.4-0.5-0.7-0.3l0.1,0.3c-0.1-0.2-0.4-0.3-0.7-0.3l0,0.1l-0.1-0.1C256.3,17.8,256.2,17.8,256.2,17.9L256.2,17.9z"
			/>
		<path class="st0" d="M257.5,29.1c-0.2,0-0.4,0.1-0.6,0.1c0.1,0.1,0,0.2,0,0.4c0.3-0.1,0.6-0.2,1-0.3
			C257.7,29.1,257.6,29.1,257.5,29.1L257.5,29.1L257.5,29.1z"/>
		<path class="st0" d="M256.7,28.4c0.1,0.1,0.2,0,0.5,0l0.3,0.7l0,0c0-0.2,0.1-0.4,0.3-0.4c0-0.3-0.2-0.5-0.3-0.6l0.2-0.1
			C257.4,28.1,257,28.3,256.7,28.4L256.7,28.4z"/>
		<path class="st0" d="M258.3,18.2C258.3,18.2,258.2,18.2,258.3,18.2C258.2,18.2,258.2,18.2,258.3,18.2z"/>
		<path class="st0" d="M265.5,20.6c-0.2,0-0.5,0-0.6,0c0,0.1,0,0.1-0.1,0.2C265,20.7,265.3,20.7,265.5,20.6L265.5,20.6z"/>
		<path class="st0" d="M259,17.8c0,0,0,0.1,0,0.2c0.1,0,0.1,0,0.2-0.1C259.2,17.8,259.1,17.7,259,17.8z"/>
		<path class="st0" d="M303.5,30.6C303.5,30.6,303.5,30.5,303.5,30.6c0,0-0.1,0-0.2,0C303.3,30.6,303.4,30.6,303.5,30.6z"/>
		<path class="st0" d="M304.4,30c0-0.2,0.2-0.5,0.2-0.5c-0.7,0-1.4-0.1-2.1-0.2c-0.3,0.3-0.4,1.1-1,0.7l0.2,0.4c0,0,0,0,0,0
			c0.6,0.1,1.3,0.1,1.9,0.2c0,0,0,0,0,0c0.8,0,0.8,0,0.6,0C305,30.6,304.9,30.4,304.4,30z M302.9,29.9c-0.1,0-0.1,0.1-0.3,0l0.3-0.2
			l0.1,0.6L302.9,29.9L302.9,29.9z"/>
		<path class="st0" d="M305.1,25.1C305.1,25.1,305,25.1,305.1,25.1C305,25.1,305,25.1,305.1,25.1z"/>
		<path class="st0" d="M304.4,24.2c-0.5,0-1-0.1-1.6-0.1c-0.2,0-0.4-0.1-0.6-0.1c0,0,0,0,0,0.1c0,0,0,0,0-0.1
			c-0.7-0.1-1.3-0.3-2-0.5c0,0,0.1,0.1,0.1,0.2c-0.1,0-0.1,0.1-0.2,0.2c0,0.5,0.3,0.2,0.4,0.7c0,0.3-0.2-0.1-0.3-0.2
			c-0.2-0.4-0.7-0.5-0.6-1c-0.3-0.1-0.6-0.2-1-0.3c0,0,0,0,0,0c-0.3,0-0.5-0.3-0.8-0.3l0.1,0.2c-0.2-0.1-0.3-0.2-0.4-0.4
			c-0.1,0-0.2-0.1-0.4-0.1c-0.1,0.1-0.2,0.1-0.3,0.1c0-0.1,0.1-0.1,0.1-0.1c-0.1,0-0.2-0.1-0.3-0.1c-0.1,0.1-0.1,0.2,0,0.4
			c-0.3-0.6-0.9,0-1-0.5c-0.2-0.1-0.1,0.2,0,0.4c-0.1-0.2-0.2-0.1-0.3-0.1l0-0.4c-0.4-0.4,0,0.3-0.5,0c0-0.3,0-0.4,0-0.5
			c-0.4-0.2-0.8-0.4-1.2-0.6c0,0.1,0,0.4,0.2,0.5c-0.5-0.4-0.6,0.4-0.9,0.3c0.1,0.2,0.2,0.1,0.3,0.2v0.3c0.7,0.3,1.4,0.5,2.1,0.8
			c0-0.1,0-0.2-0.1-0.3l0.3-0.1l0.1,0.4c0.2-0.1,0.5-0.4,0.7-0.4c0.3,0.6,0,0.5-0.3,0.6c2.7,1,5.4,1.9,7.4,2c0.8,0,0.6,0.1,1.7,0
			c0,0,0.1-0.2,0.7-0.5C305,24.3,304.9,24,304.4,24.2L304.4,24.2z M294.4,22c-0.1,0.1-0.2,0-0.2-0.2c0,0-0.1,0-0.1-0.1
			c0,0,0.1,0.1,0.1,0.1C294.3,21.9,294.5,21.8,294.4,22z M294.6,22.3c0-0.1,0.1-0.2,0-0.3l0.2,0.4L294.6,22.3z M303.1,24.6
			c-0.1-0.6,0.4-0.6,0.7-0.3C303.8,24.9,303.4,24.5,303.1,24.6z"/>
		<path class="st0" d="M235.8,20c0.1,0.1,0.3,0.1,0.4,0.2C236.1,19.9,236,19.9,235.8,20z"/>
		<path class="st0" d="M303.5,30.6C303.5,30.6,303.7,30.6,303.5,30.6L303.5,30.6z"/>
		<path class="st0" d="M273.9,12.2c0.1,0,0.1,0,0.2,0C274,12.1,273.9,12,273.9,12.2z"/>
		<path class="st0" d="M288.9,14.4c0.1,0,0.2,0.1,0.3,0.1l0-0.2C289.1,14.4,288.9,14.3,288.9,14.4L288.9,14.4z"/>
		<path class="st0" d="M293.4,5.1c-0.1,0-0.1,0-0.2,0l0,0.1c-0.3-0.1-0.6-0.3-0.8,0.1l-0.3-0.5L292,5.1c-0.1-0.3,0.4,0,0.1-0.5
			c-0.4-0.2-0.6,0.1-0.8,0.3c3.5,1.5,7.5,4.1,12.5,4.2c-0.7,0-0.5,0,0.6,0c0,0.1,0.2-0.1,0.1,0c0.9-0.1,0.8-0.3-0.1-0.6
			c0.9-0.2,1.1-0.5-0.6-0.4C300.1,8.2,296.7,6.7,293.4,5.1L293.4,5.1z"/>
		<path class="st0" d="M289.7,24.5C289.7,24.5,289.7,24.5,289.7,24.5c-0.1-0.1-0.2-0.2-0.3-0.2C289.5,24.5,289.5,24.6,289.7,24.5
			L289.7,24.5z"/>
		<path class="st0" d="M303.4,25.2c0,0-0.1,0-0.2,0C303.1,25.2,303.3,25.2,303.4,25.2z"/>
		<path class="st0" d="M250.7,14.6C250.7,14.6,250.7,14.6,250.7,14.6L250.7,14.6z"/>
		<path class="st0" d="M238.4,10.4c0.1,0.3,0.5,0.3,0.7,0.5c0.1-0.3,0.3-0.5,0.1-0.9c0.2,0.1,0.4,0,0.5-0.1
			c-0.2-0.1-0.4-0.2-0.6-0.3C238.7,9.8,238.3,9.9,238.4,10.4L238.4,10.4z"/>
		<path class="st0" d="M257.1,12.8l0.1-0.4c-0.1,0-0.1-0.1-0.1-0.1c-0.2,0.1-0.3,0.1-0.5,0.2C256.8,12.7,257.1,12.3,257.1,12.8z"/>
		<path class="st0" d="M258.2,12.5c-0.5-0.2-0.7-0.1-1,0.2l0.2,0.3c0.2,0.2,0.1-0.7,0.4-0.1c0,0.5-0.4,0.1-0.6,0.2l-0.1,0.2
			c0-0.1,0-0.2,0.1-0.2l0-0.1c-0.4-0.3-0.6,0.1-0.8,0.1c0,0.1,0.1,0.1,0.1,0.2c0.1,0,0.3-0.1,0.3,0.2c-0.1,0-0.2-0.1-0.3-0.2
			c0,0-0.1,0-0.1-0.1c-0.2-0.1-0.3-0.2-0.4-0.1c0,0.2,0.1,0.2,0.2,0.3l-0.3,0l0,0.1l-0.4-0.3l0.1,0.3c-0.2-0.1-0.2-0.6-0.4-0.7
			c-0.1,0-0.1,0-0.2,0.1c-0.1,0.2-0.8,0.3-0.9,0.7l-0.2-0.4c-0.1,0.2-0.2,0.2-0.4,0.1c-0.3,0.1-0.5,0.1-0.8,0.1c0,0,0,0.1,0,0.1
			l-0.1-0.1c-1.1,0.2-2.2,0.1-3.3,0c0,0,0,0,0,0.1l-0.4-0.1c0,0-0.1,0.1-0.2,0l0.2,0c0,0,0,0,0,0c-0.3,0-0.6-0.1-1-0.1
			c0,0.2,0.1,0.4,0.1,0.7c0.1,0,0.1,0,0.1-0.1l0.1,0.3c-0.1,0-0.3,0-0.4,0.1c1,0.2,2,0.3,3.1,0.3c-0.2,0-1.2,0.1-0.6,0.1
			c0.2,0,0.4,0,0,0c-0.1,0,0.5,0,0.6,0c0,0-0.1,0-0.1,0c0,0,0,0,0.1,0c1,0,0.4,0,0.3-0.1c2.5-0.1,4.5-0.6,6.5-1.4c0,0-0.1,0-0.1-0.1
			C258.1,13,258.1,12.8,258.2,12.5L258.2,12.5z M248.8,13.6c0.3,0.1,0.2,0.3,0.4,0.5L248.8,13.6z M251.5,14.1
			c-0.3-0.1-0.5,0.5-0.7,0.2c0.6,0.1,0.1-0.9,0.8-0.5L251.5,14.1L251.5,14.1z M255.3,13.6c-0.1-0.3,0-0.4,0.2-0.3
			C255.5,13.4,255.5,13.7,255.3,13.6z"/>
		<path class="st0" d="M259.4,12.6c0.1-0.1,0.3-0.1,0.4-0.1C259.6,12.4,259.5,12.5,259.4,12.6z"/>
		<path class="st0" d="M256,17.9C256,17.9,256,18,256,17.9C256,18,256,18,256,17.9z"/>
		<path class="st0" d="M235.2,25c0.1,0,0.1,0,0.2,0.1V25C235.3,25,235.3,25,235.2,25z"/>
		<path class="st0" d="M258.4,28.8c0,0.2-0.3-0.4-0.5-0.5c0.1,0.3,0,0.5,0.1,0.8c0.2-0.1,0.5-0.2,0.7-0.3c-0.2-0.1-0.4-0.2-0.6-0.4
			C258.1,28.7,258.6,28.7,258.4,28.8z"/>
	</g>
	<g>
		<path class="st1" d="M110.2,78.3h11.3v3.4h-7.1v4.2h6.6v3.4h-6.6v7.4h-4.2V78.3L110.2,78.3z"/>
		<path class="st1" d="M128.8,78.3v18.5h-4.2V78.3H128.8z"/>
		<path class="st1" d="M132.5,92.4c1.1,0.6,2.9,1.2,4.6,1.2c1.9,0,2.9-0.8,2.9-2s-0.9-1.8-3.1-2.6c-3.1-1.1-5.1-2.8-5.1-5.4
			c0-3.2,2.6-5.6,7-5.6c2.1,0,3.6,0.4,4.7,0.9l-0.9,3.4c-0.7-0.4-2.1-0.9-3.9-0.9s-2.7,0.8-2.7,1.8c0,1.2,1,1.7,3.4,2.6
			c3.3,1.2,4.8,2.9,4.8,5.5c0,3.1-2.4,5.7-7.4,5.7c-2.1,0-4.2-0.6-5.2-1.1L132.5,92.4L132.5,92.4z"/>
		<path class="st1" d="M151.4,78.3v7.1h6.9v-7.1h4.2v18.5h-4.2V89h-6.9v7.7h-4.2V78.3H151.4z"/>
		<path class="st1" d="M170.3,78.3v18.5h-4.2V78.3H170.3z"/>
		<path class="st1" d="M173.9,96.8V78.3h4.9l3.8,6.8c1.1,1.9,2.2,4.2,3,6.3h0.1c-0.3-2.4-0.4-4.9-0.4-7.7v-5.4h3.8v18.5h-4.4
			l-3.9-7.1c-1.1-2-2.3-4.4-3.2-6.5l-0.1,0c0.1,2.4,0.2,5,0.2,8.1v5.6H173.9L173.9,96.8z"/>
		<path class="st1" d="M208.2,95.9c-1.3,0.4-3.7,1-6.2,1c-3.4,0-5.8-0.8-7.5-2.5c-1.7-1.6-2.6-4-2.6-6.7c0-6.1,4.5-9.7,10.6-9.7
			c2.4,0,4.2,0.5,5.1,0.9l-0.9,3.3c-1-0.4-2.3-0.8-4.3-0.8c-3.5,0-6.1,2-6.1,6s2.4,6.1,5.8,6.1c1,0,1.7-0.1,2.1-0.3v-3.9h-2.9v-3.3
			h6.9L208.2,95.9L208.2,95.9z"/>
		<path class="st1" d="M109.6,101.3c0.9-0.2,2.2-0.3,4-0.3s3.2,0.3,4,1.1c0.8,0.7,1.4,1.8,1.4,3.1s-0.4,2.4-1.2,3.1
			c-1,1-2.5,1.4-4.3,1.4c-0.4,0-0.7,0-1-0.1v4.7h-3L109.6,101.3L109.6,101.3z M112.6,107.3c0.2,0.1,0.6,0.1,1,0.1
			c1.6,0,2.6-0.8,2.6-2.2c0-1.2-0.8-1.9-2.3-1.9c-0.6,0-1,0.1-1.2,0.1L112.6,107.3L112.6,107.3z"/>
		<path class="st1" d="M124.1,111l-0.9,3.4h-3.1l4-13.2h3.9l4.1,13.2h-3.2l-1-3.4C127.9,111,124.1,111,124.1,111z M127.4,108.8
			l-0.8-2.8c-0.2-0.8-0.5-1.8-0.7-2.5h0c-0.2,0.8-0.4,1.8-0.6,2.5l-0.8,2.8H127.4z"/>
		<path class="st1" d="M133.9,111.3c0.8,0.4,2,0.8,3.3,0.8c1.4,0,2.1-0.6,2.1-1.4s-0.6-1.3-2.2-1.9c-2.2-0.8-3.6-2-3.6-3.9
			c0-2.2,1.9-4,5-4c1.5,0,2.6,0.3,3.4,0.7l-0.7,2.4c-0.5-0.2-1.5-0.6-2.8-0.6s-1.9,0.6-1.9,1.3c0,0.8,0.7,1.2,2.4,1.9
			c2.3,0.9,3.4,2.1,3.4,3.9c0,2.2-1.7,4.1-5.3,4.1c-1.5,0-3-0.4-3.7-0.8L133.9,111.3L133.9,111.3z"/>
		<path class="st1" d="M144.5,111.3c0.8,0.4,2,0.8,3.3,0.8c1.4,0,2.1-0.6,2.1-1.4s-0.6-1.3-2.2-1.9c-2.2-0.8-3.6-2-3.6-3.9
			c0-2.2,1.9-4,5-4c1.5,0,2.6,0.3,3.4,0.7l-0.7,2.4c-0.5-0.2-1.5-0.6-2.8-0.6s-1.9,0.6-1.9,1.3c0,0.8,0.7,1.2,2.4,1.9
			c2.3,0.9,3.4,2.1,3.4,3.9c0,2.2-1.7,4.1-5.3,4.1c-1.5,0-3-0.4-3.7-0.8L144.5,111.3L144.5,111.3z"/>
		<path class="st1" d="M155,101.3c0.9-0.2,2.2-0.3,4-0.3s3.1,0.3,4,1.1c0.8,0.7,1.4,1.8,1.4,3.1s-0.4,2.4-1.2,3.1
			c-1,1-2.5,1.4-4.3,1.4c-0.4,0-0.7,0-1-0.1v4.7h-3L155,101.3L155,101.3z M158,107.3c0.2,0.1,0.6,0.1,1,0.1c1.6,0,2.6-0.8,2.6-2.2
			c0-1.2-0.8-1.9-2.3-1.9c-0.6,0-1,0.1-1.2,0.1V107.3L158,107.3z"/>
		<path class="st1" d="M178.4,107.6c0,4.3-2.6,6.9-6.5,6.9s-6.2-3-6.2-6.7c0-3.9,2.5-6.9,6.4-6.9S178.4,104,178.4,107.6L178.4,107.6
			z M168.9,107.8c0,2.6,1.2,4.4,3.2,4.4s3.2-1.9,3.2-4.5c0-2.4-1.1-4.4-3.2-4.4S168.9,105.2,168.9,107.8z"/>
		<path class="st1" d="M180.4,101.3c1-0.2,2.4-0.3,4-0.3c2,0,3.3,0.3,4.3,1c0.8,0.6,1.2,1.6,1.2,2.8c0,1.7-1.2,2.8-2.3,3.2v0.1
			c0.9,0.4,1.4,1.2,1.8,2.5c0.4,1.5,0.8,3.2,1.1,3.7h-3.1c-0.2-0.4-0.5-1.4-0.9-3.1c-0.4-1.6-0.9-2.1-2.1-2.1h-0.9v5.2h-3V101.3
			L180.4,101.3z M183.4,107h1.2c1.5,0,2.4-0.7,2.4-1.9c0-1.2-0.8-1.8-2.2-1.8c-0.7,0-1.1,0.1-1.4,0.1L183.4,107L183.4,107z"/>
		<path class="st1" d="M194.5,103.7H191v-2.5h10.1v2.5h-3.6v10.7h-3V103.7z"/>
		<path class="st1" d="M209.4,104.3c0,1.9-1.5,3.4-3.5,3.4s-3.5-1.5-3.5-3.4s1.6-3.4,3.5-3.4S209.4,102.5,209.4,104.3z M203.5,104.3
			c0,1.4,1,2.5,2.4,2.5s2.4-1.1,2.4-2.5s-1-2.5-2.5-2.5S203.5,102.9,203.5,104.3z M205.5,105.9h-1v-3.1c0.2,0,0.7-0.1,1.4-0.1
			c0.7,0,1,0.1,1.2,0.2c0.2,0.1,0.3,0.4,0.3,0.7s-0.3,0.6-0.7,0.7v0c0.4,0.1,0.6,0.3,0.6,0.8c0.1,0.4,0.2,0.6,0.2,0.7h-1.1
			c-0.1-0.1-0.2-0.4-0.2-0.7c-0.1-0.3-0.2-0.5-0.5-0.5h-0.3L205.5,105.9L205.5,105.9z M205.5,104.1h0.3c0.4,0,0.6-0.1,0.6-0.4
			c0-0.2-0.2-0.4-0.6-0.4c-0.1,0-0.2,0-0.3,0C205.5,103.4,205.5,104.1,205.5,104.1z"/>
	</g>
	<g>
		<path class="st2" d="M55.4,94.3h29.7c1.3,0,2.3,1,2.3,2.3v39.9c0,1.3-1,2.3-2.3,2.3H55.4c-1.3,0-2.3-1-2.3-2.3V96.6
			C53.1,95.3,54.1,94.3,55.4,94.3z"/>
		<g>
			<path class="st3" d="M70.3,111.6c-0.9,0-1.6,0.7-1.6,1.6s0.7,1.6,1.6,1.6s1.6-0.7,1.6-1.6S71.2,111.6,70.3,111.6z"/>
			<path class="st3" d="M70.3,111.1c0,0,0.1,0,0.1,0l1.7-6.3c0,0,0,0,0-0.1c0-1-0.8-1.8-1.8-1.8s-1.8,0.8-1.8,1.8v0.1l1.7,6.3
				C70.2,111.1,70.2,111.1,70.3,111.1L70.3,111.1z"/>
			<path class="st3" d="M64.6,106.9l4.6,4.6c0.1-0.1,0.2-0.1,0.2-0.1l-1.7-6.3c0,0,0,0,0-0.1c-0.3-0.6-0.9-0.9-1.5-0.9
				c-0.3,0-0.6,0.1-0.9,0.2c-0.4,0.2-0.7,0.6-0.8,1.1S64.3,106.4,64.6,106.9L64.6,106.9L64.6,106.9z"/>
			<path class="st3" d="M62.1,110.5L62.1,110.5l6.3,1.8c0-0.1,0.1-0.2,0.1-0.2l-4.6-4.6c0,0,0,0-0.1,0c-0.3-0.2-0.6-0.2-0.9-0.2
				c-0.6,0-1.2,0.3-1.5,0.9c-0.2,0.4-0.3,0.9-0.2,1.3S61.7,110.3,62.1,110.5z"/>
			<path class="st3" d="M61.9,115l6.3-1.7c0,0,0-0.1,0-0.1s0-0.1,0-0.1l-6.3-1.7c0,0,0,0-0.1,0c-1,0-1.8,0.8-1.8,1.8
				S60.9,115,61.9,115L61.9,115L61.9,115z"/>
			<path class="st3" d="M68.4,114.1l-6.3,1.7c0,0,0,0,0,0c-0.8,0.5-1.1,1.6-0.7,2.4c0.3,0.6,0.9,0.9,1.5,0.9c0.3,0,0.6-0.1,0.9-0.2
				l0.1,0l4.6-4.6C68.5,114.3,68.5,114.2,68.4,114.1L68.4,114.1z"/>
			<path class="st3" d="M69.1,114.9l-4.6,4.6l0,0c0,0,0,0,0,0.1c-0.2,0.4-0.3,0.9-0.2,1.3s0.4,0.8,0.8,1.1c0.3,0.2,0.6,0.2,0.9,0.2
				c0.6,0,1.2-0.3,1.5-0.9l0-0.1l1.7-6.3C69.3,115,69.2,115,69.1,114.9z"/>
			<path class="st3" d="M70.3,115.3c0,0-0.1,0-0.1,0l-1.7,6.3l0,0c0,0,0,0,0,0.1c0,1,0.8,1.8,1.8,1.8s1.8-0.8,1.8-1.8v-0.1l-1.7-6.3
				C70.4,115.3,70.3,115.3,70.3,115.3L70.3,115.3z"/>
			<path class="st3" d="M76,119.5l-4.6-4.6c-0.1,0.1-0.2,0.1-0.2,0.1l1.7,6.3l0,0c0,0,0,0,0,0.1c0.3,0.6,0.9,0.9,1.5,0.9
				c0.3,0,0.6-0.1,0.9-0.2c0.4-0.2,0.7-0.6,0.8-1.1S76.2,120,76,119.5L76,119.5L76,119.5z"/>
			<path class="st3" d="M78.4,115.9L78.4,115.9l-6.3-1.8c0,0.1-0.1,0.2-0.1,0.2l4.6,4.6l0,0c0,0,0,0,0.1,0c0.3,0.2,0.6,0.2,0.9,0.2
				c0.6,0,1.2-0.3,1.5-0.9c0.2-0.4,0.3-0.9,0.2-1.3S78.9,116.1,78.4,115.9z"/>
			<path class="st3" d="M78.7,111.4L78.7,111.4l-6.4,1.7c0,0,0,0.1,0,0.1s0,0.1,0,0.1l6.3,1.7c0,0,0,0,0.1,0c1,0,1.8-0.8,1.8-1.8
				S79.7,111.4,78.7,111.4L78.7,111.4z"/>
			<path class="st3" d="M72.1,112.3l6.3-1.7c0,0,0,0,0.1,0c0.4-0.2,0.7-0.6,0.8-1.1s0.1-0.9-0.2-1.3c-0.3-0.6-0.9-0.9-1.5-0.9
				c-0.3,0-0.6,0.1-0.9,0.2l-0.1,0l-4.6,4.6C72,112.1,72.1,112.2,72.1,112.3L72.1,112.3z"/>
			<path class="st3" d="M71.4,111.5l4.6-4.6c0,0,0,0,0-0.1c0.2-0.4,0.3-0.9,0.2-1.3s-0.4-0.8-0.8-1.1c-0.3-0.2-0.6-0.2-0.9-0.2
				c-0.6,0-1.2,0.3-1.5,0.9l0,0.1l-1.7,6.3C71.3,111.4,71.3,111.4,71.4,111.5z"/>
		</g>
		<g>
			<path class="st3" d="M58.5,128.5c0.2,0,0.5-0.1,1-0.1s0.8,0.1,1,0.3c0.2,0.2,0.3,0.4,0.3,0.7s-0.1,0.6-0.3,0.8
				c-0.2,0.2-0.6,0.3-1,0.3c-0.1,0-0.2,0-0.2,0v1.1h-0.7L58.5,128.5L58.5,128.5z M59.2,129.9c0.1,0,0.1,0,0.2,0
				c0.4,0,0.6-0.2,0.6-0.5c0-0.3-0.2-0.5-0.6-0.5c-0.2,0-0.2,0-0.3,0V129.9z"/>
			<path class="st3" d="M62.1,130.8l-0.2,0.8h-0.8l1-3.2h0.9l1,3.2h-0.8l-0.2-0.8H62.1L62.1,130.8z M62.9,130.2l-0.2-0.7
				c-0.1-0.2-0.1-0.4-0.2-0.6l0,0c0,0.2-0.1,0.4-0.2,0.6l-0.2,0.7H62.9z"/>
			<path class="st3" d="M64.7,130.9c0.2,0.1,0.5,0.2,0.8,0.2c0.3,0,0.5-0.1,0.5-0.3s-0.2-0.3-0.5-0.4c-0.5-0.2-0.9-0.5-0.9-0.9
				c0-0.5,0.4-1,1.2-1c0.4,0,0.6,0.1,0.8,0.2l-0.2,0.6c-0.1-0.1-0.3-0.1-0.7-0.1s-0.5,0.1-0.5,0.3c0,0.2,0.2,0.3,0.6,0.4
				c0.6,0.2,0.8,0.5,0.8,0.9c0,0.5-0.4,1-1.3,1c-0.4,0-0.7-0.1-0.9-0.2L64.7,130.9L64.7,130.9z"/>
			<path class="st3" d="M67.4,130.9c0.2,0.1,0.5,0.2,0.8,0.2c0.3,0,0.5-0.1,0.5-0.3s-0.2-0.3-0.5-0.4c-0.5-0.2-0.9-0.5-0.9-0.9
				c0-0.5,0.4-1,1.2-1c0.4,0,0.6,0.1,0.8,0.2l-0.2,0.6c-0.1-0.1-0.3-0.1-0.7-0.1s-0.5,0.1-0.5,0.3c0,0.2,0.2,0.3,0.6,0.4
				c0.6,0.2,0.8,0.5,0.8,0.9c0,0.5-0.4,1-1.3,1c-0.4,0-0.7-0.1-0.9-0.2L67.4,130.9L67.4,130.9z"/>
			<path class="st3" d="M70.1,128.5c0.2,0,0.5-0.1,1-0.1s0.8,0.1,1,0.3c0.2,0.2,0.3,0.4,0.3,0.7s-0.1,0.6-0.3,0.8
				c-0.2,0.2-0.6,0.3-1,0.3c-0.1,0-0.2,0-0.2,0v1.1h-0.7V128.5L70.1,128.5z M70.8,129.9c0.1,0,0.1,0,0.2,0c0.4,0,0.6-0.2,0.6-0.5
				c0-0.3-0.2-0.5-0.6-0.5c-0.2,0-0.2,0-0.3,0V129.9z"/>
			<path class="st3" d="M75.9,130c0,1-0.6,1.7-1.6,1.7s-1.5-0.7-1.5-1.6c0-0.9,0.6-1.7,1.6-1.7S75.9,129.1,75.9,130z M73.6,130
				c0,0.6,0.3,1.1,0.8,1.1s0.8-0.5,0.8-1.1c0-0.6-0.3-1.1-0.8-1.1S73.6,129.4,73.6,130z"/>
			<path class="st3" d="M76.5,128.5c0.2,0,0.6-0.1,1-0.1c0.5,0,0.8,0.1,1,0.2c0.2,0.1,0.3,0.4,0.3,0.7c0,0.4-0.3,0.7-0.6,0.8l0,0
				c0.2,0.1,0.3,0.3,0.4,0.6c0.1,0.4,0.2,0.8,0.3,0.9h-0.7c-0.1-0.1-0.1-0.4-0.2-0.7c-0.1-0.4-0.2-0.5-0.5-0.5h-0.2v1.2h-0.7V128.5
				L76.5,128.5z M77.2,129.8h0.3c0.4,0,0.6-0.2,0.6-0.5c0-0.3-0.2-0.4-0.5-0.4c-0.2,0-0.3,0-0.3,0L77.2,129.8L77.2,129.8z"/>
			<path class="st3" d="M80.1,129h-0.8v-0.6h2.4v0.6h-0.9v2.6h-0.7L80.1,129L80.1,129z"/>
		</g>
		<path class="st4" d="M18.7,43.4c0.1,0,0.1,0,0.2-0.1c3.3,3.7,5.3,8.4,6.5,13.1c8.9-3.4,19.2-3.4,28,0c1.3-4.7,3.2-9.4,6.6-13.1
			c1.2,0.6,2.6-0.5,2.2-1.8c-0.8-2.4-4.2-0.4-2.6,1.5c-6.5,8.7-9.7,2.7-6.9-5.2c2.2,0.3,3-2.9,0.9-3.6c-2.1-0.7-3.4,2.3-1.6,3.4
			c-6.2,12.2-10.5,7.8-12.2-3.3c2.8-0.4,2.2-4.7-0.5-4.4c-2.4,0.3-2.6,3.9-0.1,4.4c-1.7,11.2-6.1,15.5-12.2,3.3
			c1.8-1,0.6-3.9-1.3-3.4c-2.4,0.5-1.7,4,0.7,3.7c2.7,7.9-0.4,13.9-7,5.2c1-1.1-0.1-3-1.5-2.5C15.8,40.9,16.7,44.1,18.7,43.4
			L18.7,43.4z"/>
		<path class="st4" d="M15.6,99.1L15.6,99.1L15.6,99.1L15.6,99.1z"/>
		<path class="st4" d="M47.3,131.2c0,0-0.1,0-0.1,0c-0.1-0.2-0.4-1.2-0.4-1.4c1.6-0.4,3.2-0.9,4.8-1.4v-0.9c-1.6,0.6-3.3,1.1-5,1.4
			c-0.1-0.9-1.2-0.8-0.8,0.1c-4.2,0.8-8.5,0.9-12.7,0.3c0.2-0.8-0.8-0.9-0.8-0.1c-4.7-0.7-9.2-2.4-13.3-4.7
			c-0.1-0.9-0.5-1.6-1.2-2.2c0.1-0.3,0.7-1.5,0.8-1.6c0.4,0.4,1.7,0.7,1.2-0.3c-0.8-0.4-1.5-0.8-2.3-1.1c-0.3-0.2-0.7,0.1-0.6,0.5
			c0.2,0.3,0.7,0.4,1,0.6c-0.3,0.5-0.5,1-0.8,1.5c-0.9-0.4-1.9-0.4-2.8,0.1c-5-3.6-8.9-8.5-11.2-14.2c-8.2-3.2,6.9,15.8,9.5,16.2
			c-0.7,2.9,2.8,5.1,5.1,3.2c10.1,6,22.7,7.3,33.8,3.6V130C50.2,130.5,48.7,130.9,47.3,131.2L47.3,131.2z M15.7,126.4
			c-2.1,0-2.1-3.2,0-3.2C17.8,123.1,17.8,126.5,15.7,126.4L15.7,126.4z M31.9,131.5c-4.8-0.8-9.4-2.5-13.5-4.9
			c0.2-0.3,0.4-0.7,0.5-1.1c4.1,2.2,8.6,3.9,13.3,4.6C32.1,130.3,31.9,131.3,31.9,131.5L31.9,131.5z M45.9,131.4
			c-4.4,0.8-8.9,0.9-13.3,0.2c0.1-0.5,0.1-0.9,0.2-1.4c4.4,0.6,8.8,0.4,13.1-0.4c0.2,0.5,0.3,0.9,0.4,1.4
			C46.2,131.4,46.1,131.4,45.9,131.4L45.9,131.4z"/>
		<path class="st4" d="M77.9,92.3c-0.3-4.6-3.5-7.8-8-8.3c-0.3-0.1-0.7-0.3-0.4-0.7C83.4,73,59.4,73.4,53,75.5
			c1.3-1,2.5-2.2,3.6-3.3c-7.3-7.8-18.8-12.6-29.5-11.9c-3.4-1.2-11.3-5.3-13.6-1.5c0.2,1-1.8,1-1.3,1.9c1.6,1.3,0.7,0.8-0.4,1.8
			c-0.2,0.4,0.6,0.3,0.7,0.6c0.1,1.3-2.4,2-2.8,3.4c-2.5,3.2,8.1-5.4,10-5.3c-8,1.3-4.7-0.1,0.7-0.5c-1.7-0.6-3.5-0.2-5.3-0.3
			c1.5-1.9,5.9-0.6,8,0.5C9,64.2-3.8,80.3,4.1,94.5c-8.4-27.7,31.9-42.8,49-22.4c-3.4,4-10.7,5.6-13.2,0.3c-1,7.4,8.4,4,12.5,5.4
			c0,0.1,0.1,0.2,0,0.4C47.1,79,41.5,78.5,36.3,77c2,3.2-4,2.4-5.9,2.6c-1.3,0.2-1.8-1.1-2.3-2c1.3-0.7,3.4,0.5,4.8,0.5
			c-0.9-0.7-8.8-1.8-3.8-2.1c-1.9-0.3-2.3-1.4,0-1.2c2.1,0.5,3.9,1.9,5.8,3c-1.5-2-7.9-6.3-8.9-2.4c-0.6,2.4,1,3.8,2.8,5.1
			c-3.2,0.3-6.1,1.7-9.1,2.9c1-1,2.2-1.8,3.1-2.8c-1.5,0.4-2.7,1.6-4,2.3c0.4-1.1,1.7-1.8,2.4-2.6C17,83,11,84.4,8.4,89.2
			c1.5-1.3,3.1-2.5,5.1-2.9C9.8,87-1.5,101,8.1,96.4c2.5-0.1,2.9-2.1,3.4-4.1c0.7,1.1,2,1.5,3.1,2.2c1.4-0.4,2.8-0.8,4.2-1.2
			c0,0,0,0,0,0c0,0,0,0-0.1,0c0,0,0,0,0,0c-1.5,0.9-3.8,0.8-4.6,2.4c1.5,0.3,3,0.5,4.5,0.8c0,0,0,0,0,0c-1.4,0.3-4.5-0.7-5.1,0.6
			c0.7,0.6,1.6,1.2,2.2,1.8l0,0c0,0,0,0,0,0c0,0,0,0,0,0c0,0,0,0,0,0c0,0,0,0,0,0c-0.8-0.4-1.5-0.9-2.3-1.2
			c-0.1,0.1-0.6,0.6-0.8,0.8c0.1,0.8,1.3,1.9,0.8,2.6c-0.4-0.7-0.7-1.5-1.1-2.1c-0.2,0.2-0.7,0.6-0.8,0.8c0.2,1.8,1.2,3.4,1.7,5
			c-1.3-1.3-2-3-2.3-4.7c-1.4-0.3-2.6-1.2-3.7-2c-0.1,0.1-0.2,0.1-0.3,0.2c3.6,4.2,5,10.6,11,12.3c-2.7-8.8,5.7-12.9,10.1-18.8
			c0.5-3.8-17.2,4.4-15.5-1.7c0.8-1.6,1.8-4.8,3.7-4.8c-1.3,5.8,3.1-0.7,5.2-1.5c4.3-0.3,8.7-0.8,12.8-2.2c5.8-2.6,12-1.4,18-2.3
			c0.9-0.4,5.1-1,3.9-2.2c-1.2-0.1-2.5,0.3-3.6-0.5c6.2-1.7,29.6-4,16,6.8c2,4,7.6-0.1,8.5,9.3h0.9C77.9,92.5,77.9,92.4,77.9,92.3
			L77.9,92.3z"/>
		<path class="st4" d="M18.7,93.5C18.7,93.5,18.7,93.5,18.7,93.5C18.7,93.5,18.7,93.5,18.7,93.5z"/>
		<path class="st4" d="M38.1,69.8c0.6-2,7.7-2.2,4.9-3.8C26,57.9,1.4,70.3,4.3,90.6c0.1,0,0.2,0.1,0.3,0.1
			C2.8,74.4,23.2,62.5,36.8,68.6c-1.3,2.1-1.5,5.4,0.6,7C37,73.8,36.5,71.4,38.1,69.8L38.1,69.8z"/>
		<path class="st4" d="M25.4,75.4c1.4-4.2-4.1-0.8-2.9,1.8c0.6,4.6,4.3,3.2,2.2-0.9C25,76.1,25.2,75.7,25.4,75.4L25.4,75.4z"/>
		<path class="st4" d="M47.2,69.5c-0.6-0.8-1.5-1.6-2.5-1.6c0.5,0.5,1.1,1,1.6,1.5c-0.6,2.3,2.2,4.6,4,3.1
			C48.2,72.7,47.2,71.4,47.2,69.5L47.2,69.5z"/>
		<path class="st4" d="M50.6,70.6c0-1.8-2.8-1.8-2.8,0C47.8,72.5,50.6,72.5,50.6,70.6z M48.1,70.9c-0.4-1.3,1.9-1.8,2.1-0.6
			c-1.2-1.6-2.7,1.3-0.7,1.4C48.8,71.9,48.2,71.4,48.1,70.9L48.1,70.9z"/>
		<path class="st4" d="M34.3,73.5c-1.6-0.1-1.6,2.5,0,2.4C35.9,76.1,35.9,73.4,34.3,73.5z"/>
		<path class="st4" d="M48.1,56.2c-7-1.5-16-2.2-22.2,1.7c8,1.5,16.7,1.9,23.7,7c0.8,0.4,1.8,0.4,2.5,0.7c0.7,0.9,1.9,0.5,2.7,1.1
			c0.5,0.6,1.1-0.7,1.6,0c1.2,0.4,2.6,0.4,3.8,0.5c0.5,0.4,1.5,0.6,1.4-0.4c0.5,0,0.6,0.5,1,0.5c0.6,0.2,1.2-0.2,1.9-0.1
			c0.4,0,0.5,0.4,0.8,0.6c0.6,0.5,1.3,0.2,1.9,0.4C62.4,62.3,55.6,58,48.1,56.2L48.1,56.2z"/>
		<path class="st4" d="M2.6,97.7c1.3,9,6.4,17.5,13.6,23c-2.2-3.6-5.4-7.5-5.7-12.2c1.7,1.9,7.9,8.5,8.9,3.3
			c-3.6,2.3-7.9-3.7-9.8-6.4c-1-2.1-2-4.7-3.9-6.1c-0.7,0.2-1.5,0-2-0.6c-1-4.3-3.5-8.8-3.1-13.6c-0.4,0.8-0.3,1.6-0.5,2.4v1
			C0.3,91.6,1.3,94.8,2.6,97.7L2.6,97.7z"/>
		<path class="st4" d="M71.8,92.6c-0.5-0.8-0.4-1.8-0.8-2.6c-0.6,1.2-0.8-1.6-1.6-1.8c-0.5-0.3-1.2-0.3-1.8-0.4
			c-0.5-0.1-1.6-0.6-1.5,0.3c0.9,0.4,1.6,1.8,0.5,2.3c0.1,1-0.9,1.6-1.6,2.2h6.8C71.8,92.7,71.8,92.7,71.8,92.6L71.8,92.6z"/>
		<path class="st4" d="M51.2,119.2c-1.1,0.3-2.3,0-3.4,0.2c0.7-1.3-0.5-2.2-1-3.2c0.1-1.4-0.3-2.7-1-3.8c0.1-1.2,0.1-2.7,1.1-3.5
			c-0.2-0.7-0.3-1.8-0.6-2.6c-0.5-1-1.6-2-1.8-3.1c-0.1-1,0.7-2.1,0.1-3c-0.7-0.3-1.5,0.2-2.1-0.3c-0.4-0.3-0.7-0.9-1.2-0.8
			c-0.9-0.1-1.7,0.3-2.3,0.8c-0.6,0.2-1.3-0.4-1.9-0.2c-1.5,1.2-2.7-0.6-3.9-1.4c-0.3-0.6-0.1-1-0.8-1.4c-1.4-0.6-1.4-2-1.9-3.2
			c1.3-1,1.1-3.1,0.4-4.4c0-0.6,1.1-0.9,0.7-1.7c0.7-0.7,1.3-2,2.3-2.1c3.5-3,9-2.5,13.3-2.5c0.7,0.7,1.5,1.6,2.5,1.2
			c0.2-0.4,0.4-0.7,0.4-1.1c0.5-0.3,1.3-0.2,1.7,0.3c0.6,0.4,1.3,0.3,1.9,0.7c0.6,0.3,1.3-0.1,1.9-0.1c0.3,0,0.6,0.3,0.9,0
			c0.5-0.7,1-2.6-0.2-2.8c1.2-0.5,2-1.9,1.7-3c-4.7,5.5-13.6,2-19.8,4.2c-5.3,1.6-10.8,2.4-16.2,3.5c-2.3,1.1-4.6,5-7.3,3.5
			C12,93.2,25.3,89,27.2,89.3c10.3,2.3-10.8,12.4-7.6,17.3c0.2-0.8,0.4-1.7,1-2.3c0.1,0.2,0.2,0.3,0.3,0.4c0.4,0.2,1,0.1,1.3,0.5
			c0.9,3.1-1.5,2.7-0.9,5c-0.1,5.3-0.9,2-2.8,4.5c0.3,0.2,0.4,0.4,0.2,0.7c-0.2,0.5-0.2,1.1-0.4,1.7c-0.3,0-0.5,0.3-0.8,0.4
			c0,0,0,0,0,0c0,0,0.1,0.1,0.1,0.1c0,0.1-0.1,0.1-0.1,0.2c0.1,0.1,0.2,0.1,0.3,0.2c-0.2,0.3-0.1,0.7-0.2,1.1
			c0.8,0.6,2.6,0.7,2.6,1.9c-0.2,0.8-1,0.7-1.5,0.3c-0.2,0.3-0.3,0.6-0.5,0.9c9.5,6.7,22.4,8.2,33.3,4.2V119
			c-0.1,0.1-0.2,0.2-0.3,0.2L51.2,119.2z"/>
		<path class="st4" d="M75.7,90.9c0-0.6,0-1.2-0.1-1.8c-1.9,0.3-1.7,2.3-2.5,3.6h2.6C75.7,92.1,75.7,91.5,75.7,90.9L75.7,90.9z"/>
		<path class="st4" d="M61,92.4c-0.1-1-0.9-1.7-1.5-2.4c0-0.8-0.4-1.6-1-2.1c-0.3-0.6-0.6-1.9-1.4-1.9c-0.9,1,0.6,1.7,0.4,2.8
			c1,0.5,0.7,1.6,1.1,2.4c0.5,0.5,0.8,1,1.1,1.6H61C61,92.6,61,92.5,61,92.4L61,92.4z"/>
		<path class="st4" d="M62.2,77c0.2-0.1,0.3-0.2,0.5-0.2c0-0.8-1-0.7-1.5-0.6c-0.4,0.2-0.2,0.8-0.5,1.2c0.3,1,1.2,1.6,1.5,2.4
			c-0.1,0.6-0.4,1.4,0.4,1.5c0.5,0.4,1.2,0.8,1.6,0c-0.5-1-1.1-2-1.5-3.1C62.4,77.9,61.4,77.5,62.2,77z"/>
		<path class="st4" d="M38.5,96c0.7,0.1,1.3-0.1,1.9,0c0.2-0.4,0.2-0.7,0.7-0.8v-0.2c-0.5-0.2-0.8-0.6-1.1-1c0-0.2,0.1-0.4,0-0.6
			c-1.6-0.3-4.8,3.2-1.7,3C38.3,96.3,38.2,96,38.5,96z"/>
		<path class="st4" d="M63.5,85.3c-0.2-0.3-0.6-0.5-0.9-0.2c0.2,1,0.9,1.8,1.6,2.5c0.1,1.8,1.6,0.4,2-0.5c0,0,0,0,0-0.1
			C64.8,87.3,64.1,86.5,63.5,85.3z"/>
		<path class="st4" d="M16.8,121.2c0.1,0,0.1,0.1,0.2,0.1c0.1-0.2,0.2-0.5,0.4-0.7c-0.1-0.1-0.2-0.1-0.4-0.2c0,0.3-0.3,0.4-0.4,0.6
			C16.7,121.1,16.7,121.1,16.8,121.2z"/>
		<path class="st4" d="M18.8,93.5L18.8,93.5L18.8,93.5C18.7,93.5,18.7,93.5,18.8,93.5C18.8,93.5,18.8,93.5,18.8,93.5L18.8,93.5z"/>
		<polygon class="st4" points="18.7,93.5 18.7,93.5 18.7,93.5 		"/>
		<path class="st4" d="M15.6,99.1C15.6,99.1,15.6,99.1,15.6,99.1C15.6,99.1,15.6,99.1,15.6,99.1C15.6,99.1,15.6,99.1,15.6,99.1
			L15.6,99.1z"/>
		<path class="st4" d="M15.6,99.1C15.6,99.1,15.6,99.1,15.6,99.1L15.6,99.1C15.6,99.1,15.6,99.1,15.6,99.1L15.6,99.1z"/>
	</g>
</g>
</svg>
