<?xml version="1.0" encoding="UTF-8"?>
<svg id="_レイヤー_2" data-name="レイヤー 2" xmlns="http://www.w3.org/2000/svg" xmlns:xlink="http://www.w3.org/1999/xlink" viewBox="0 0 71.57 71.99">
  <defs>
    <style>
      .cls-1 {
        fill: #fff;
      }

      .cls-2, .cls-3 {
        fill: #b1c5c8;
      }

      .cls-4 {
        fill: #d0d6e3;
      }

      .cls-5 {
        fill: url(#_新規グラデーションスウォッチ_2);
      }

      .cls-5, .cls-6, .cls-7, .cls-8, .cls-3 {
        fill-rule: evenodd;
      }

      .cls-6 {
        fill: url(#_新規グラデーションスウォッチ_7);
      }

      .cls-7 {
        fill: #4d4d4d;
      }

      .cls-8 {
        fill: #e09a45;
      }
    </style>
    <linearGradient id="_新規グラデーションスウォッチ_2" data-name="新規グラデーションスウォッチ 2" x1="5.02" y1="37.84" x2="65.67" y2="37.84" gradientUnits="userSpaceOnUse">
      <stop offset="0" stop-color="#283c73"/>
      <stop offset="1" stop-color="#172642"/>
    </linearGradient>
    <linearGradient id="_新規グラデーションスウォッチ_7" data-name="新規グラデーションスウォッチ 7" x1="22.15" y1="37.03" x2="48.04" y2="37.03" gradientUnits="userSpaceOnUse">
      <stop offset="0" stop-color="#aeaeae"/>
      <stop offset=".5" stop-color="#fff"/>
      <stop offset="1" stop-color="#333"/>
    </linearGradient>
  </defs>
  <g id="_01" data-name="01">
    <g>
      <path class="cls-1" d="m71.14,69.29s-.03-.02-.04-.04c-.16-.56-.63-1.15-1.39-1.78-.16-.13-.34-.2-.52-.21-.62-.47-1.32-.94-1.89-1.33-.42-.28-.77-.52-1.08-.76-1.28-.98-1.67-1.27-2.32-2.16-.31-.39-.68-.45-.9-.49-.17-.03-.37-.06-.76-.27v-.11s.05-.03.07-.05c.02-.02.04-.04.06-.07.02-.01.04-.03.05-.04.56-.49,1.11-.84,1.33-.93.09-.03.17-.08.25-.14.23-.19.37-.47.4-.77.03-.35-.11-.71-.39-1.02-.47-.52-1.01-.71-1.49-.51-.12.05-.23.13-.32.23-.3.34-.73.7-1.22,1-.05.01-.09.02-.13.03-.23.08-.51.28-.64.72-.15-.26-.4-.49-.67-.73l-.09-.08c-.06-.06-.13-.11-.2-.15-.92-.51-1.81-1.11-2.1-1.32-.04-.03-.1-.09-.15-.14,3.94-4.17,6.56-9.3,7.59-14.92l2.73-.95-2.8-4.39,2.83-4.44-2.65-.78c-.61-3.82-1.99-7.5-4.01-10.8,2.9-2.7,5.67-5.34,8.23-7.87.11-.03.19-.07.24-.1.01,0,.03-.02.05-.03.06.07.12.14.18.2.36.36.8.57,1.18.56.29,0,.55-.12.73-.32.45-.48.33-1.25-.29-1.88-.17-.17-.34-.3-.52-.39,0-.2-.04-.41-.15-.6-.21-.35-.58-.56-1-.53-.11,0-.21.03-.31.08-.18.04-.35.13-.47.27-.13.15-.28.3-.43.45-.14.15-.29.3-.43.45-.04.05-.08.1-.11.15-2.12,2.03-5.1,4.88-8.14,7.71-.92-1.28-1.94-2.48-3.06-3.6-3.25-3.25-7.23-5.71-11.58-7.16-.02-.2-.07-.41-.14-.6.51-.86,1.04-1.68,1.44-2.29.72-.09,1.28-.69,1.29-1.45.01-.82-.64-1.5-1.5-1.53-.61,0-1.15.38-1.37.91-.85.34-1.73.8-2.37,1.15-.17-.33-.32-.59-.45-.83.03-.11.04-.22.05-.33.01-.76-.6-1.4-1.4-1.43-.61,0-1.14.41-1.32.96l-.85.44-1.31-2.33c.05-.14.08-.29.08-.44.02-.82-.64-1.51-1.5-1.53-.8,0-1.47.65-1.49,1.46,0,.18.03.36.09.53l-1.24,2.31-.87-.45c-.18-.54-.7-.94-1.33-.96-.76,0-1.38.6-1.39,1.37,0,.14.02.28.05.41-.13.23-.27.49-.42.8-.65-.36-1.55-.81-2.41-1.16-.23-.52-.75-.88-1.38-.9-.82,0-1.47.64-1.49,1.47-.01.75.55,1.39,1.31,1.51.4.58.97,1.43,1.51,2.32-.05.15-.09.33-.12.53-4.41,1.44-8.46,3.92-11.75,7.21-1.02,1.02-1.95,2.11-2.81,3.25-2.91-2.71-5.73-5.41-7.77-7.36-.03-.05-.07-.1-.11-.15-.14-.15-.28-.3-.43-.44-.15-.16-.3-.31-.44-.46-.12-.14-.29-.23-.47-.27-.1-.04-.2-.07-.31-.08-.38-.02-.79.18-1,.53-.11.18-.16.39-.15.6-.18.09-.35.23-.52.39-.61.62-.73,1.4-.29,1.88.19.2.45.32.73.32.41,0,.82-.2,1.18-.56.06-.07.12-.13.18-.2.02.01.03.02.05.03.05.03.14.07.24.1,2.44,2.41,5.07,4.92,7.83,7.49-2.12,3.33-3.55,7.04-4.21,10.99l-2.7.79,2.83,4.44-2.8,4.39,2.73.93c1.03,5.82,3.76,11.12,7.89,15.38-.37.26-1.09.73-1.89,1.17-.07.04-.14.09-.2.15l-.09.09c-.27.24-.51.48-.67.73-.13-.45-.41-.64-.64-.73-.03-.01-.07-.02-.12-.03-.5-.3-.93-.66-1.22-1-.09-.1-.2-.18-.32-.23-.48-.2-1.02-.01-1.49.51-.27.31-.41.67-.38,1.02.02.3.16.57.4.77.07.06.16.11.25.14.23.08.77.44,1.33.93.02.02.04.03.05.04.02.02.04.05.06.07.02.02.04.03.06.05v.11c-.38.21-.58.24-.75.27-.22.04-.6.1-.92.51-.64.87-1.02,1.16-2.38,2.2-.23.18-.59.42-1.01.7-.58.39-1.28.87-1.91,1.34-.18,0-.36.07-.51.19-.76.63-1.23,1.22-1.39,1.78-.01.01-.03.02-.04.03-.25.21-.4.52-.43.9-.04.45.11.91.4,1.24.33.37.83.57,1.29.57.29,0,.56-.07.77-.23.76-.04,1.58-.57,2.19-1.07.07-.06.17-.15.24-.29.74-.63,1.51-1.39,2.09-1.95.31-.31.57-.56.75-.72.75-.67,1.07-.92,1.44-1.18.41.8,1.18,1.27,2.24,1.33.34.16,1.23.58,2.5,1.24.15.07.31.1.47.09.7-.07,1.46-.66,1.86-1.11.27-.27.5-.57.68-.91.64-1.18.56-2.4-.22-3.35-.07-.08-.14-.15-.23-.2-.38-.22-.8-.48-1.23-.75-.3-.19-.61-.38-.9-.56l.06-.05c.06-.05.15-.15.19-.22.15-.21,1.09-1.13,1.63-1.59.03-.02.06-.04.09-.07,5.35,4.57,12.07,7.06,19.18,7.06s14.08-2.59,19.47-7.31c.14.1.28.2.42.32.54.46,1.48,1.38,1.61,1.56.05.09.12.17.21.24l.06.05c-.3.18-.61.37-.91.56-.43.27-.85.54-1.23.75-.09.05-.17.12-.23.2-.78.95-.86,2.17-.21,3.35.18.33.41.64.64.87.43.49,1.19,1.08,1.89,1.15.16.02.33-.02.47-.09,1.26-.65,2.15-1.08,2.5-1.24,1.05-.05,1.82-.52,2.23-1.33.38.26.69.51,1.45,1.19.17.15.43.41.75.72.58.57,1.36,1.33,2.1,1.96.05.1.12.19.21.26.63.51,1.45,1.04,2.21,1.08.56.41,1.54.26,2.06-.34.29-.33.44-.78.41-1.24-.03-.37-.18-.69-.42-.9Z"/>
      <path class="cls-7" d="m5.8,65.91c1.37-1.05,1.83-1.39,2.55-2.37.23-.3.46,0,1.55-.62.08.24.22.47.49.66l-.06-.41c-.18-.15-.24-.11-.04.2-.17-.19-.26-.35-.25-.45l.24-.18-.02-.12c-.08.06-.17.12-.26.18,0,0,.08-.07.25-.22l-.15-1.09c-.19.1-.35-.04-.26-.23-.04.03-.08.05-.13.08-.58-.51-1.22-.94-1.6-1.08-.16-.13-.1-.37.08-.57.12-.14.37-.35.52-.29.39.45.94.88,1.51,1.22,0,.05,0,.1,0,.15.18-.17.3-.11.34.2l.19,1.19c.26-.21.58-.46.97-.77.13-.1.22-.17.31-.2,0-.25.56-.68.69-.82.98-.54,1.89-1.16,2.2-1.38.3-.22.95-1.07,1.21-1.02.13.21.31.42.56.64-.24-.27-.4-.49-.48-.68.03-.02.07-.06.13-.1h.01c.13.21.31.41.54.62-.23-.25-.39-.47-.47-.65,1.88-1.49,4.5-3.64,7.6-6.2h0c.42-.39.89-.77,1.27-1.13,0,0,.02.01.04.04,3.22-2.67,6.87-5.74,10.7-8.97,0-.03,0-.06,0-.09.4-.35.84-.69,1.2-1.01,0,0,.02.01.05.04,3.3-2.79,6.7-5.68,10.04-8.54-.02-.04-.02-.08,0-.11.39-.36.83-.71,1.18-1.04,0,0,.04.03.08.07.95-.82,1.9-1.63,2.84-2.44,1.95-1.68,4.01-3.53,6.12-5.46-.02-.04-.02-.08-.01-.12.35-.34.74-.67,1.06-.99,0,0,.03.03.07.07,3.21-2.96,6.5-6.09,9.65-9.11,0-.02,0-.03,0-.05.29-.31.61-.62.87-.91,0,0,.03.02.07.06l.13-.12c.21-.01.3.22.22.35l-.07.07c.05.05.09.09.09.09-.19.17-.04.37.26.42-.06,0-.11.02-.14.07.13-.08.41.04.65.28.26.27.38.58.27.7-.11.12-.42,0-.68-.26-.16-.16-.26-.33-.3-.48l-.02-.06c.02-.13-.13-.35-.27-.35-.14,0-.38.27-.67.58-.02.01-.08,0-.13-.05-3.2,3.17-6.52,6.32-9.6,9.16.04.05.08.08.08.08-.23.18-.07.42.27.5-.07,0-.13.02-.17.07.15-.08.47.07.73.37.28.32.4.69.26.83-.14.13-.48-.02-.76-.35-.17-.19-.28-.4-.31-.57l-.02-.07c.04-.15-.13-.42-.29-.42-.17,0-.45.28-.8.62-.02,0-.06,0-.1-.03-2.24,2.05-4.32,3.92-6.09,5.47-1.02.9-1.96,1.72-2.83,2.48.04.05.08.08.08.08-.26.19-.08.45.3.53-.08,0-.14.02-.19.07.17-.09.52.08.81.4.31.35.44.74.29.88-.15.14-.53-.03-.85-.37-.19-.21-.31-.43-.34-.61l-.03-.08c.04-.16-.14-.44-.32-.45-.18-.01-.5.29-.89.65-.02,0-.05,0-.1-.02-3.54,3.08-6.15,5.32-10.01,8.6.03.04.05.06.06.06-.26.18-.08.44.29.53-.08,0-.14.02-.19.07.17-.09.52.09.8.41.31.35.43.75.27.88-.16.14-.53-.04-.84-.39-.18-.21-.3-.43-.33-.61l-.03-.07c.04-.15-.13-.44-.32-.46-.18-.01-.51.28-.91.64-.01,0-.03,0-.05,0-2.71,2.3-6.05,5.14-10.64,9.03.01.01.02.02.02.02-.27.2-.09.47.31.55-.08,0-.15.03-.2.08.18-.1.55.07.85.4.33.36.46.77.3.92-.16.15-.57-.02-.89-.38-.2-.21-.32-.45-.36-.63l-.03-.08c.05-.17-.14-.46-.34-.47-.2,0-.54.32-.96.71,0,0-.02,0-.04,0-2.21,1.87-4.68,3.98-7.49,6.36,0,.01,0,.02.01.03,0,0-.18.09-.17.17-.02.32-.68.64-1.2,1.09-.52.45-1.64,1.52-1.79,1.78-.31.24-.66.56-.95.54-.03.07-.12.14-.24.24.05.02.1.04.16.07.96.48,2.24,1.36,3.21,1.92.6.73.56,1.6.13,2.41-.15.27-.33.51-.53.71-.4.45-.97.83-1.34.87-1.66-.86-2.69-1.33-2.69-1.33-1.11,0-1.74-.52-1.88-1.54,0-.14,0-.29.04-.46-.05.08-.11.14-.18.2-1.07.72-1.16.72-2.44,1.86-.52.46-1.84,1.84-3.01,2.82-.02.02,0,.09-.02.11-.78.64-1.61,1.06-2.03.83-.02.09.01.09-.14.22-.15.13-.65.1-.92-.21-.27-.31-.23-.79-.07-.93.16-.13.19-.1.3-.1-.13-.47.42-1.13,1.13-1.71.06.04.1.04.12.07.16.31.5.85,1.05,1.3-.49-.43-.81-.87-.96-1.34,1.09-.87,2.58-1.79,3.19-2.25h0Zm2.27-1.6c-.96.85-2.27,1.9-3.91,3.16,2.24-1.43,3.54-2.48,3.91-3.16h0ZM70.38,13.06c-.19-.19-.41-.29-.48-.2-.08.08.02.31.21.5.19.19.41.28.48.2.07-.08-.02-.31-.21-.5h0Zm-10.5,10.26c-.21-.24-.45-.36-.54-.27-.09.09,0,.35.21.59.21.24.45.36.54.27.09-.09,0-.35-.21-.59h0Zm-9.96,9.03c-.23-.25-.5-.38-.6-.29-.1.09,0,.37.23.62.23.25.5.38.6.29.1-.09,0-.37-.23-.62h0Zm-11.29,9.68c-.22-.26-.49-.39-.59-.3-.1.09,0,.37.22.63.22.26.49.39.59.3.1-.09,0-.37-.22-.63h0Zm-11.85,10.07c-.24-.26-.52-.39-.63-.29s0,.4.23.66c.24.26.52.39.63.29.11-.1,0-.39-.23-.66h0Zm-16.39,11.52c-.12.27-.2.5-.28.7-.63,2.12,1.14,3.25,2.74,1.42.15,0,.35-.16.59-.48-.04.3-.39.76-1.07,1.38-.23.24-.15.32.24.23,0,0,.64.35,1.93,1.06-.18.22.23-.04.65-.37.18-.03.5-.2.68-.39.09-.12.18-.26.26-.4.06-.12.12-.24.17-.37.21-.63.14-1.3-.21-1.83-.15-.12-.22-.14-.22-.05-1.65-1.06-2.7-1.64-2.7-1.64.21.32.27.89.18,1.39.07-1.3-.77-2.14-1.78-1.71.39-.24.65-.31.96-.22l.2-.15c-.19-.09-.65-.64-.71-.84,0,0-.41.32-1.25.91l.02.1,1.21-.91c.13.24.33.48.59.71-.15-.1-.31-.25-.55-.54-.04-.06-.08.09.05.28-.41.14-.88.47-1.24.79l.07.43c.63-.58,1.43-.65,1.9-.11.53.61.44,1.77-.21,2.58-.65.82-1.61.98-2.15.37-.45-.52-.45-1.42-.05-2.18l-.03-.18h0Zm2.44-1.75c.06.02.21-.02.44-.12.19-.09.35-.22.46-.35,1.01-1.14,1.67-1.69,2.22-2.1-1.3.88-2.09,1.54-2.36,1.98-.18.09-.33.18-.45.25-.23.14-.33.25-.33.3,0,.01.02.02.02.04h0Zm1.45,5.12l-1.18-.41s.64.35,1.93,1.04c1.01-.83,1.3-1.81.87-2.95-.5-.29-1.25-.68-2.12-1.25.28,1.23-.08,2.23-.91,3.04,0,0,.17.01.29,0,.14.05.62.2,1.13.52h0Zm-.08-2.22s.4.29,1.1.62c.02,0-.06.06.03.12.09.07.1,0,.11.02.05.17.07.37.02.6.09-.32.13-.56.04-.9-1-.51-1.48-.85-1.48-.85.09.53-.17.68-.33,1.1.21-.37.48-.47.51-.71h0Zm-.53.82c-.02.11-.01.21.02.3.07.21,1.09.67,1.33.79.18-.19.28-.29.4-.48-.02.03-.05.06-.07.09l-1.46-.8,1.37.88s-.08.06-.12.09c-.59-.35-1.22-.76-1.47-.88h0Zm-3.63-4.25c.07-.04.16-.09.21-.22-.1-.1-.13-.12-.11-.11-.06.12-.14.16-.22.22,0,0,.07.04.12.1h0Zm-1.59-1.13c.17,0,.99.61,1.28,1.02.1-.07.2-.19.22-.28-.32.14-1.03-.49-1.32-.93.08-.17.14-.33.11-.46,0,.21-.34.66-.57.68,0,0,.09.04.27-.04h0Zm2.94,4.65c-.19-.08-.35-.17-.49-.28-.02.21.02.41.14.55.23.26.64.19.91-.16.28-.35.32-.84.09-1.1-.2-.23-.54-.2-.8.04.14.13.32.23.54.28.07.25-.06.47-.39.66h0Zm4.64-6.64c.21.26.41.39.54.47-.2-.16-.5-.5-.55-.62-.24.22-.48.45-.72.7.41-.37.62-.56.62-.56-.01.13.13.13.1,0h0Zm-6.78,6.58c-1.46.93-2.45,1.95-3.08,2.69-.69.8-1.27,1.72-2.22,2.15-.04.02-.08.04-.12.05l.2.16c.84-.71,1.73-1.75,2.19-2.3,1.13-1.33,2.71-2.25,3.46-2.6-.11-.23-.26-.28-.43-.16h0Zm-6.84,3.56c-.69.52-.87.94-.91,1-.09.16-.09.34.01.53.34-.34-.22-.55.89-1.53h0Zm1.28,1.47c-.53.52-1.52.17-1.67.65.33.48,1.14.09,1.87-.51l-.2-.13h0Zm5.06-6.37c-.29.09-.34.31-.34.31.16-.19.36.02.96.71-.47-.53-.77-.91-.62-1.02h0Zm-6.75,7.33c-.29-.2-.57-.54-.69-.85-.04,0-.03-.03-.11.04-.07.06-.04.38.17.62.21.24.53.31.6.25.07-.06.03-.03.04-.06Z"/>
      <path class="cls-7" d="m65.77,65.91c.61.47,2.1,1.39,3.19,2.25-.15.47-.47.9-.96,1.34.56-.45.9-.99,1.05-1.3.02-.04.06-.04.12-.07.71.58,1.25,1.24,1.13,1.71.11,0,.14-.03.3.1.16.13.2.61-.07.93-.28.31-.77.34-.92.21-.15-.13-.11-.13-.14-.22-.42.22-1.25-.2-2.03-.83-.02-.02,0-.08-.02-.11-1.17-.97-2.49-2.35-3.01-2.82-1.28-1.14-1.37-1.13-2.44-1.86-.07-.06-.12-.13-.18-.2.04.17.05.32.04.46-.14,1.02-.77,1.53-1.88,1.54,0,0-1.02.46-2.69,1.33-.37-.04-.94-.42-1.34-.87-.2-.2-.38-.43-.53-.71-.43-.8-.48-1.67.13-2.41.98-.56,2.25-1.44,3.21-1.92.05-.03.11-.05.16-.07-.12-.1-.2-.17-.24-.24-.29.02-.65-.29-.95-.54-.15-.27-1.27-1.34-1.79-1.78-.52-.45-1.18-.77-1.2-1.09.01-.08-.16-.16-.17-.17,0,0,0-.02.01-.03-2.81-2.39-5.28-4.49-7.49-6.36-.02,0-.03,0-.04,0-.42-.39-.76-.72-.96-.71-.19,0-.38.31-.34.47l-.03.08c-.04.19-.16.42-.36.63-.33.36-.73.53-.89.38-.16-.15-.03-.57.3-.92.31-.33.67-.5.85-.4-.05-.05-.11-.08-.2-.08.39-.08.58-.35.31-.55,0,0,.01,0,.02-.02-4.59-3.89-7.93-6.73-10.64-9.03-.02,0-.04,0-.05,0-.4-.35-.72-.65-.91-.64-.18.01-.36.3-.32.46l-.03.07c-.03.18-.15.4-.33.61-.31.35-.68.53-.84.39-.16-.14-.03-.53.27-.88.28-.33.63-.5.8-.41-.05-.05-.11-.07-.19-.07.37-.09.55-.35.29-.53,0,0,.03-.02.06-.06-3.86-3.28-6.47-5.52-10.01-8.6-.04.02-.08.03-.1.02-.39-.36-.71-.66-.89-.65-.18.01-.37.3-.32.45l-.03.08c-.04.18-.16.4-.34.61-.31.35-.69.51-.85.37-.15-.14-.02-.53.29-.88.29-.32.64-.49.81-.4-.04-.05-.11-.07-.19-.07.37-.08.55-.34.3-.53,0,0,.04-.03.08-.08-.87-.76-1.81-1.58-2.83-2.48-1.77-1.55-3.85-3.41-6.09-5.47-.04.03-.08.04-.1.03-.35-.34-.64-.63-.8-.62-.16,0-.33.28-.29.42l-.02.07c-.03.17-.14.38-.31.57-.28.32-.63.48-.76.35-.14-.13-.02-.5.26-.83.26-.3.58-.46.73-.37-.04-.05-.1-.07-.17-.07.33-.08.5-.32.27-.5,0,0,.04-.03.08-.08-3.08-2.84-6.4-5.99-9.6-9.16-.06.04-.11.06-.13.05-.29-.32-.52-.58-.67-.58-.14,0-.3.22-.27.35l-.02.06c-.04.14-.14.32-.3.48-.26.27-.57.38-.68.26-.11-.12,0-.44.27-.7.24-.25.52-.37.65-.28-.03-.04-.08-.06-.14-.07.29-.05.45-.25.26-.42,0,0,.04-.03.09-.09l-.07-.07c-.08-.13,0-.36.22-.35l.13.12s.06-.06.07-.06c.26.29.58.6.87.91,0,.01,0,.03,0,.05,3.15,3.02,6.44,6.15,9.65,9.11.04-.05.07-.08.07-.07.32.31.71.65,1.06.99,0,.03,0,.07-.01.12,2.11,1.94,4.18,3.78,6.12,5.46.94.81,1.88,1.62,2.84,2.44.04-.05.08-.08.08-.07.35.33.79.68,1.18,1.04.01.03,0,.07,0,.11,3.34,2.86,6.74,5.75,10.04,8.54.03-.03.04-.05.05-.04.36.32.8.67,1.2,1.01,0,.03,0,.05,0,.09,3.83,3.23,7.48,6.3,10.7,8.97.02-.03.04-.04.04-.04.38.36.85.74,1.27,1.12h0c3.1,2.57,5.72,4.71,7.6,6.21-.09.18-.24.4-.47.65.23-.21.42-.41.54-.62h.01c.06.05.1.08.13.1-.08.19-.24.41-.48.68.24-.22.43-.43.56-.64.26-.05.91.8,1.21,1.02.3.22,1.21.84,2.2,1.38.14.14.69.57.69.82.08.03.18.1.31.2.39.3.71.56.97.77l.19-1.19c.04-.31.15-.37.34-.2,0-.05-.01-.1,0-.15.58-.34,1.12-.77,1.51-1.22.15-.06.4.15.52.29.18.21.24.44.08.57-.38.14-1.02.58-1.6,1.08-.04-.03-.09-.05-.13-.08.09.19-.07.33-.26.23l-.15,1.09c.17.14.25.22.25.22-.09-.06-.17-.12-.26-.18l-.02.12.24.18c0,.11-.08.26-.25.45.2-.31.14-.35-.04-.2l-.06.41c.27-.19.41-.43.49-.66,1.09.62,1.31.32,1.55.62.72.99,1.18,1.33,2.55,2.37h0Zm-2.27-1.6c.36.68,1.67,1.73,3.91,3.16-1.64-1.26-2.94-2.31-3.91-3.16h0ZM1.19,13.06c-.19.19-.28.42-.21.5.08.08.29,0,.48-.2.19-.19.29-.42.21-.5-.08-.08-.29,0-.48.2h0Zm10.5,10.26c-.21.24-.3.5-.21.59.09.09.33-.03.54-.27.21-.24.3-.5.21-.59-.09-.09-.33.03-.54.27h0Zm9.96,9.03c-.23.25-.33.53-.23.62.1.09.37-.04.6-.29.23-.25.33-.53.23-.62-.1-.09-.37.04-.6.29h0Zm11.29,9.68c-.22.26-.32.54-.22.63.1.09.37-.04.59-.3.22-.26.32-.54.22-.63-.1-.09-.37.04-.59.3h0Zm11.85,10.07c-.24.26-.34.56-.23.66.11.1.39-.03.63-.29.24-.26.34-.56.23-.66s-.39.03-.63.29h0Zm16.39,11.52l-.03.18c.41.76.4,1.67-.05,2.18-.53.61-1.5.44-2.15-.37-.65-.82-.75-1.97-.21-2.58.47-.54,1.27-.47,1.9.11l.07-.43c-.36-.33-.83-.66-1.24-.79.13-.2.09-.34.05-.28-.24.28-.4.43-.55.54.26-.24.46-.47.59-.71l1.21.91.02-.1c-.83-.59-1.25-.91-1.25-.91-.06.2-.52.75-.71.84l.2.15c.32-.09.57-.03.96.22-1.01-.43-1.85.41-1.78,1.71-.09-.5-.03-1.06.18-1.39,0,0-1.05.58-2.7,1.64,0-.09-.07-.07-.22.05-.35.52-.42,1.2-.21,1.83.05.13.1.25.17.37.08.14.17.28.26.4.18.19.5.36.68.39.42.32.83.58.65.37,1.29-.71,1.93-1.06,1.93-1.06.39.09.47.02.24-.23-.67-.63-1.03-1.09-1.07-1.38.24.32.43.48.59.48,1.61,1.83,3.37.7,2.74-1.42-.08-.2-.16-.43-.28-.7h0Zm-2.44-1.75s.02-.02.02-.04c0-.05-.11-.16-.33-.3-.12-.08-.27-.16-.45-.25-.27-.44-1.06-1.11-2.36-1.98.56.41,1.21.96,2.22,2.1.1.13.26.26.46.35.22.11.38.15.44.12h0Zm-1.45,5.12c.51-.32.99-.47,1.13-.52.12,0,.29,0,.29,0-.83-.81-1.19-1.81-.91-3.04-.87.57-1.62.96-2.12,1.25-.43,1.14-.14,2.12.87,2.95,1.29-.69,1.93-1.04,1.93-1.04l-1.18.41h0Zm.08-2.22c.03.24.3.34.51.71-.16-.43-.42-.58-.33-1.1,0,0-.48.34-1.48.85-.09.34-.05.58.04.9-.05-.22-.04-.42.02-.6,0-.01.02.05.11-.02.09-.07.01-.11.03-.12.7-.33,1.1-.62,1.1-.62h0Zm.53.82c-.25.12-.87.53-1.47.88-.04-.03-.08-.06-.12-.09l1.37-.88-1.46.8s-.05-.06-.07-.09c.11.19.21.29.4.48.24-.12,1.26-.58,1.33-.79.03-.1.04-.19.02-.3h0Zm3.63-4.25c.05-.06.12-.1.12-.1-.08-.06-.15-.11-.22-.22.01-.01-.01,0-.11.11.05.13.14.18.21.22h0Zm1.59-1.13c.18.08.27.04.27.04-.23-.02-.57-.47-.57-.68-.03.13.03.28.11.46-.29.44-1,1.07-1.32.93.03.09.13.21.22.28.29-.42,1.11-1.02,1.28-1.02h0Zm-2.94,4.65c-.33-.19-.46-.41-.39-.66.22-.06.4-.15.54-.28-.27-.24-.61-.27-.8-.04-.23.26-.19.75.09,1.1.28.35.69.42.91.16.12-.14.16-.34.14-.55-.14.11-.3.2-.49.28h0Zm-4.64-6.64c-.03.13.11.13.1,0,0,0,.21.19.62.56-.24-.25-.47-.48-.72-.7-.04.12-.34.46-.55.62.13-.08.33-.21.54-.47h0Zm6.78,6.58c-.17-.12-.32-.07-.43.16.75.35,2.33,1.27,3.46,2.6.47.55,1.35,1.59,2.19,2.3l.2-.16s-.08-.03-.12-.05c-.95-.43-1.53-1.35-2.22-2.15-.64-.74-1.63-1.76-3.08-2.69h0Zm6.84,3.56c1.11.99.55,1.2.89,1.53.1-.19.1-.37.01-.53-.04-.07-.22-.48-.91-1h0Zm-1.28,1.47l-.2.13c.73.6,1.54,1,1.87.51-.14-.48-1.14-.12-1.67-.65h0Zm-5.06-6.37c.15.11-.15.49-.62,1.02.61-.69.8-.9.96-.71,0,0-.05-.21-.34-.31h0Zm6.79,7.39c.07.06.39-.01.6-.25.21-.24.24-.55.17-.62-.07-.06-.07-.04-.11-.04-.12.31-.4.65-.69.85,0,.02-.03,0,.04.06Z"/>
      <circle class="cls-1" cx="35.44" cy="37.7" r="27.71"/>
      <g>
        <path class="cls-4" d="m23.05,20.41c.13.15.24.34.33.57.09.23.13.48.14.75,0,.27-.05.55-.16.82-.11.28-.3.53-.57.76-.26.23-.57.4-.93.52-.36.11-.73.14-1.1.07.08.25.18.46.29.63l-.33.3-1.49-1.68.33-.3c.27.19.56.34.85.46s.61.17.94.15c.33-.02.64-.15.92-.4.25-.22.38-.46.41-.73.03-.27-.05-.5-.23-.71-.1-.12-.21-.2-.34-.24s-.26-.07-.41-.06c-.15,0-.33.04-.55.09s-.47.12-.74.21c-.42.12-.79.2-1.11.22s-.58.02-.8-.03c-.22-.05-.4-.12-.54-.2s-.27-.19-.38-.32c-.2-.22-.33-.49-.4-.81-.07-.32-.05-.65.05-.99s.31-.64.61-.91c.23-.2.49-.35.79-.43.3-.08.6-.1.92-.06-.05-.14-.13-.32-.26-.53l.34-.3,1.21,1.37-.34.3c-.9-.53-1.65-.54-2.25,0-.22.19-.34.4-.37.64s.04.44.2.62c.13.14.28.23.45.26.18.03.36.03.56-.02.2-.04.51-.13.94-.25.51-.15.93-.25,1.25-.31.32-.06.63-.05.94.02s.59.23.83.51Z"/>
        <path class="cls-4" d="m29.34,12.87c-.27.11-.46.22-.55.33s-.13.23-.11.36c.02.13.08.31.17.56l.89,2.25c.16.41.27.73.33.95s.06.46.02.72c-.07.5-.27.91-.62,1.23-.35.32-.71.55-1.09.7-.28.11-.58.19-.91.23-.33.04-.65.03-.97-.04-.32-.07-.6-.21-.84-.43-.13-.12-.25-.25-.35-.39-.1-.14-.18-.27-.24-.4-.06-.13-.13-.3-.22-.52l-1.01-2.54c-.1-.26-.23-.43-.38-.5-.15-.07-.41-.03-.79.12l-.16-.41,3.08-1.22.16.41c-.26.1-.45.21-.55.31s-.16.21-.16.33c0,.11.04.26.11.44l1,2.55c.1.26.21.49.31.67.1.19.21.34.32.47.2.2.45.33.75.38.3.05.6.02.89-.1.32-.12.58-.32.79-.58.21-.26.32-.54.33-.82,0-.23-.02-.45-.07-.66s-.14-.47-.25-.75l-.87-2.2c-.08-.2-.14-.34-.19-.43-.05-.09-.12-.16-.2-.22s-.19-.07-.33-.05-.32.07-.54.15l-.16-.41,2.25-.89.16.41Z"/>
        <path class="cls-4" d="m38.09,13.65c0,.54-.15.95-.48,1.24s-.72.47-1.17.56-.92.13-1.42.14h-.44s.03,1.72.03,1.72c0,.19.03.34.07.45.04.11.14.19.28.24s.35.08.64.07v.45s-3.3.05-3.3.05v-.45c.27,0,.48-.04.61-.1.13-.06.22-.14.26-.25.04-.11.06-.25.05-.44l-.07-4.15c0-.19-.02-.33-.07-.44-.04-.1-.13-.19-.27-.24s-.34-.08-.63-.08v-.46s1.87-.08,1.87-.08c.1,0,.2,0,.32-.01.11,0,.21,0,.27,0,.07,0,.17,0,.3,0,.16,0,.29,0,.37,0,.38.01.75.04,1.11.09s.72.21,1.09.47.56.67.56,1.22Zm-1.49.03c0-.52-.17-.87-.47-1.04-.31-.17-.71-.25-1.21-.24-.09,0-.22,0-.38.02l.04,2.64h.45c.47-.01.86-.1,1.15-.27.29-.17.43-.53.42-1.1Z"/>
        <path class="cls-4" d="m45.26,18.48l-.76,2.02-5.53-1.91.15-.42c.38.13.65.16.79.09.15-.07.27-.24.36-.51l1.35-3.9c.06-.18.09-.32.09-.43,0-.11-.06-.22-.17-.32-.11-.1-.3-.2-.57-.29l.15-.42,5.15,1.78-.47,1.64-.42-.15c.03-.39,0-.68-.06-.88s-.18-.34-.32-.43-.37-.19-.68-.29l-1.16-.4-.76,2.19.63.22c.22.07.38.11.5.11s.22-.05.3-.14c.08-.09.17-.25.26-.47l.44.15-.71,2.07-.42-.15c.07-.23.09-.41.08-.54-.01-.13-.06-.22-.16-.3-.09-.07-.25-.15-.46-.22l-.64-.22-.5,1.46c-.08.24-.14.42-.17.54-.03.12-.03.22,0,.32s.1.18.21.25c.11.08.27.15.5.23l.5.17c.21.07.42.12.63.13.21.01.44-.06.7-.22.26-.16.51-.46.74-.91l.43.15Z"/>
        <path class="cls-4" d="m50.8,25.43l-1.35-1.13c0-.1,0-.23.02-.39.01-.17.04-.35.07-.57.03-.21.06-.39.08-.53l.13-.85c.06-.38.09-.65.09-.81s-.04-.29-.12-.4c-.08-.11-.24-.27-.48-.47l-.19-.16-1.1,1.31c-.12.14-.19.26-.24.37-.04.11-.02.23.05.37.07.14.21.29.42.47l-.29.34-2.52-2.12.29-.34c.31.26.54.38.7.36.16-.02.33-.13.52-.35l2.66-3.18c.18-.22.27-.4.26-.57,0-.16-.17-.37-.48-.63l.29-.35,1.2.94c.09.07.2.15.32.25.12.09.22.18.32.27.08.06.2.17.38.33.24.22.46.43.66.63.2.2.35.38.45.52.15.2.26.43.33.68.08.25.09.51.05.77-.04.27-.17.52-.36.75-.14.17-.31.3-.52.4-.21.1-.44.14-.71.13-.27-.01-.56-.09-.89-.24.09.26.13.52.13.78,0,.26-.05.72-.13,1.37-.04.37-.07.66-.07.87s.02.37.07.48c.05.11.13.23.25.36l-.29.34Zm1.01-5.44c.34-.4.44-.77.3-1.1s-.4-.67-.79-1c-.05-.05-.1-.08-.13-.11-.03-.02-.07-.05-.11-.09l-1.7,2.02.23.2c.37.31.74.52,1.09.61s.72-.09,1.09-.53Z"/>
        <path class="cls-4" d="m21.02,51.35l.66.65-2.37,6.11-.87-.86.57-1.38-1.86-1.83-1.35.6-.86-.84,6.09-2.46Zm-1.64,3.61l1.05-2.4-2.39,1.09,1.33,1.31Z"/>
        <path class="cls-4" d="m24.66,54.52l1.29.59.67,5.26h.02s1.88-4.09,1.88-4.09l.97.45-2.5,5.47-1.24-.57-.66-5.42h-.02s-1.94,4.22-1.94,4.22l-.97-.45,2.5-5.47Z"/>
        <path class="cls-4" d="m36.34,63.26c-.32.13-.66.22-1.03.28s-.79.07-1.27.04c-.49-.03-.92-.14-1.32-.32s-.72-.42-.99-.72c-.27-.3-.47-.65-.61-1.05-.13-.4-.19-.83-.16-1.3.03-.48.14-.91.34-1.29s.44-.69.75-.94c.31-.25.67-.44,1.07-.56.41-.12.84-.17,1.3-.13.48.03.92.13,1.31.3.39.17.7.37.93.61l-.79.75c-.14-.18-.35-.34-.61-.48-.27-.14-.56-.22-.88-.24-.32-.02-.61.02-.87.11-.27.1-.5.24-.69.42-.19.19-.35.41-.47.67-.12.26-.19.54-.21.86-.02.32,0,.62.09.9.08.28.21.52.38.73s.38.38.64.51c.26.13.55.2.88.23.46.03.86-.01,1.21-.13l.1-1.53-1.26-.08.06-.88,2.3.15-.21,3.11Z"/>
        <path class="cls-4" d="m38.79,57.21l1.04-.26,1.21,4.92,2.49-.61.23.93-3.53.87-1.44-5.85Z"/>
        <path class="cls-4" d="m43.8,55.72l3.45-1.99.47.81-2.53,1.46.76,1.33,2.39-1.38.45.78-2.39,1.38.85,1.47,2.66-1.53.48.83-3.59,2.07-3.01-5.21Z"/>
        <path class="cls-4" d="m48.82,52.47l1.42-1.53c.19-.21.4-.39.63-.54.22-.15.46-.26.7-.32.24-.06.48-.06.73,0s.49.2.72.41c.32.3.5.63.53,1,.03.37-.06.74-.28,1.12l3.05.64-.88.95-2.82-.71-.53.57,1.87,1.74-.73.79-4.41-4.1Zm3.23.34c.1-.11.2-.23.29-.36.09-.13.15-.26.19-.39s.04-.27,0-.4c-.03-.14-.11-.27-.25-.39-.12-.11-.24-.18-.37-.19-.13-.02-.25,0-.38.04s-.24.11-.36.2-.22.19-.31.29l-.66.71,1.24,1.15.6-.64Z"/>
      </g>
      <g id="Badge_7" data-name="Badge 7">
        <path class="cls-3" d="m8.67,33.3c.88-5.82,3.62-11.03,7.6-15.01,4.88-4.88,11.63-7.91,19.09-7.91s14.2,3.02,19.09,7.91c4.02,4.02,6.77,9.29,7.63,15.19h1.62c-.86-6.34-3.8-12.01-8.11-16.32-5.17-5.17-12.32-8.38-20.22-8.38s-15.04,3.2-20.22,8.38c-4.27,4.27-7.19,9.88-8.09,16.14h1.62Z"/>
        <path class="cls-3" d="m16.27,56.97c-3.89-3.89-6.6-8.97-7.54-14.65h-1.62c.95,6.12,3.85,11.59,8.03,15.78,5.17,5.18,12.32,8.38,20.22,8.38s15.04-3.2,20.22-8.38c4.14-4.14,7.02-9.55,8-15.6h-1.63c-.97,5.6-3.66,10.62-7.51,14.47-4.88,4.89-11.63,7.91-19.09,7.91s-14.2-3.02-19.09-7.91Z"/>
        <rect class="cls-2" x="12.8" y="30.57" width="1.86" height="1.86" rx=".21" ry=".21" transform="translate(-13.91 11.08) rotate(-30)"/>
        <rect class="cls-2" x="56.08" y="30.57" width="1.86" height="1.86" rx=".21" ry=".21" transform="translate(1.22 65.12) rotate(-60)"/>
        <path class="cls-5" d="m17.19,34.7H5.53l-.51-.81h12.33c.76-3.51,2.53-6.64,4.97-9.09,3.33-3.33,7.94-5.4,13.02-5.4s9.69,2.06,13.02,5.4c2.49,2.48,4.26,5.68,5.01,9.25h12.29l-.51.8h-11.63c.02.11.03.21.05.32h11.38l-1.74,2.73,1.74,2.73h-11.4c-.02.11-.03.21-.05.32h11.66l.51.8h-12.33c-.76,3.51-2.53,6.64-4.97,9.09-3.33,3.33-7.94,5.39-13.02,5.39s-9.69-2.06-13.02-5.39c-2.49-2.48-4.26-5.68-5.01-9.25H5.02l.51-.8h11.63c-.02-.11-.03-.21-.05-.32H5.73l1.74-2.73-1.74-2.73h11.4c.02-.11.03-.21.05-.32Z"/>
        <path class="cls-3" d="m43.47,9.33c-2.69-1.13-5.38-1.69-8.06-1.69-2.68,0-5.35.56-8.02,1.69-.21.09-.3.32-.21.53.09.21.33.3.53.22,2.56-1.08,4.52-1.02,7.1-1.02,2.57,0,5.76-.06,8.35,1.02.21.09.44,0,.53-.22.08-.21-.01-.44-.22-.53h0Zm2.34-4.9c.27,0,.49.24.48.51,0,.27-.23.49-.5.48-.1,0-.19-.04-.27-.09-.47.68-1.43,2.13-2.22,3.53-2.8-1.13-5.6-1.68-7.9-1.66-2.3-.02-5.09.53-7.86,1.66-.82-1.41-1.81-2.85-2.3-3.54-.08.06-.19.09-.3.09-.27,0-.49-.24-.49-.51,0-.27.23-.49.5-.48.27,0,.49.24.48.51,0,.04,0,.09-.02.13,1.64.55,3.75,1.83,3.75,1.83.49-1.13.84-1.7,1.14-2.24-.13-.07-.22-.21-.21-.36,0-.22.19-.39.41-.38.22,0,.39.19.39.41,0,.06-.02.12-.04.17l2.25,1.17,2-3.71c-.16-.09-.26-.26-.26-.45,0-.27.23-.49.5-.48.27,0,.49.24.48.51,0,.18-.1.34-.25.42l2.08,3.72,2.23-1.16c-.03-.06-.05-.13-.05-.2,0-.22.19-.39.41-.39.22,0,.39.19.39.41,0,.15-.09.27-.21.34.31.54.67,1.12,1.19,2.24,0,0,2.08-1.27,3.71-1.83-.02-.05-.02-.1-.02-.16,0-.27.23-.49.5-.48h0Zm-3.21,3.26c.15-.23.31-.45.47-.68.08-.04.16-.08.24-.12-.25.4-.49.8-.73,1.2-.29-.11-.58-.21-.87-.31.14-.09.28-.17.43-.25.15.05.31.11.46.16h0Zm-2.82-1.89l-.08-.14-2.19,1.15c1.05.13,2.1.35,3.12.64h0c-.07-.15-.13-.29-.2-.43-.73-.17-1.38-.24-2.17-.35l1.52-.86h0Zm-4-1.43l-.47-.85-1.74,3.23c.59-.06,1.19-.09,1.77-.08.59,0,1.19.03,1.79.09l-.2-.35c-.28-.02-.55-.03-.83-.04-.52-.02-1.06,0-1.59.03l1.28-2.02h0Zm-4,1.7l-.81-.42c-.08.14-.16.28-.24.43-.24.44-.45.89-.65,1.35h0c1.02-.28,2.07-.51,3.11-.64l-.4-.21c-.48.08-.96.17-1.43.28h0c.14-.27.28-.53.44-.79h0Zm-2.79,1.7c-.29.1-.58.2-.86.31-.24-.4-.49-.8-.75-1.2.55.28,1.1.58,1.61.89Z"/>
      </g>
      <path class="cls-6" d="m33.36,24.43c-.56.28-.92.71-1.09,1.24-.15.5-.13,1.08.07,1.7.26.81.82,1.73,1.65,2.67.3,1.73.52,5.51.25,9.27-.17,2.33-.53,4.63-1.18,6.41-.59,1.62-1.4,2.77-2.51,3.02-3.16-.69-5.7-8.69-3.52-9.17-1.58-.41-1.79-1.19-2.23-2.2.15,3.99,1.36,7.61,2.23,9.35.19.38.39.72.6,1.02-2.84-2.33-4.98-7.78-3.38-8.39-.82-.14-1.19-.52-2.11-2.15.39,4.09,2.76,12.35,7.67,12.7.31.02.6,0,.88-.05,1.59-.31,2.68-1.74,3.41-3.75.45-1.23.76-2.68.98-4.21.22,1.53.53,2.98.98,4.21.73,2.01,1.83,3.45,3.41,3.75.28.05.58.07.88.05,4.91-.36,7.28-8.62,7.67-12.7-.92,1.63-1.29,2.02-2.11,2.15,1.6.61-.54,6.06-3.38,8.39.21-.31.42-.65.6-1.02.87-1.74,2.09-5.36,2.23-9.35-.44,1.01-.65,1.8-2.23,2.2,2.17.48-.36,8.48-3.52,9.17-1.1-.25-1.92-1.4-2.51-3.02-.65-1.77-1.01-4.08-1.18-6.41-.28-3.76-.06-7.54.25-9.27.83-.94,1.39-1.86,1.65-2.67.2-.62.22-1.2.07-1.7-.16-.53-.52-.96-1.09-1.24-.71-.36-2.79-.34-3.47,0h0Zm.5,1c.21-.1,2.34-.06,2.47,0,.27.14.44.33.52.57.08.27.06.62-.07,1.03-.22.7-.73,1.52-1.51,2.37l-.11.12-.03.16-.03.16-.03-.16-.03-.16-.11-.12c-.78-.86-1.29-1.68-1.51-2.37-.13-.41-.15-.76-.07-1.03.07-.24.24-.43.52-.57Z"/>
      <path class="cls-8" d="m40.78,33.71l1.47,1.06-.56,1.72,1.46-1.07,1.46,1.07-.56-1.72,1.47-1.06h-1.81s-.56-1.72-.56-1.72l-.56,1.72h-1.81Zm-15.85,0l1.47,1.06-.56,1.72,1.46-1.07,1.46,1.07-.56-1.72,1.47-1.06h-1.81s-.56-1.72-.56-1.72l-.56,1.73h-1.81Z"/>
      <g>
        <path class="cls-1" d="m10.88,37.82c.03.06.06.11.07.14.26.5.44.82.55.98.11.16.21.24.3.24.15,0,.26-.1.34-.33.05.03.08.06.08.1,0,.1-.07.23-.21.38s-.25.23-.34.23c-.13,0-.31-.15-.52-.44s-.43-.68-.64-1.15c-.09,0-.17.01-.23.01s-.14,0-.23-.01l-.02.16-.03.28c-.03.23-.08.4-.15.5-.07.1-.21.2-.42.3l.57.04-.29.28-1.05-.05.31-.3.26.03c.2-.12.32-.38.36-.76l.03-.24.2-1.84c-.74.14-1.1.42-1.1.83,0,.17.03.31.1.44l-.39.34c-.03-.12-.05-.25-.05-.38,0-.44.19-.79.56-1.07.37-.28.85-.42,1.44-.42.8,0,1.2.25,1.2.76,0,.37-.24.69-.71.96Zm-.65-1.49l-.16,1.41c.13.02.25.03.35.03.1,0,.21-.01.33-.03.29-.21.44-.46.44-.75,0-.44-.32-.66-.96-.66Z"/>
        <path class="cls-1" d="m13.64,38.5c-.18.3-.38.55-.6.74s-.41.29-.57.29c-.22,0-.33-.18-.33-.54,0-.49.16-.92.48-1.28.32-.36.7-.54,1.14-.54.17,0,.31.02.43.06,0,.03-.01.05-.01.05l-.03.13c-.02.09-.03.14-.03.15l-.15,1.07-.02.16c-.02.15-.03.26-.03.31,0,.07.02.1.06.1.13,0,.27-.15.41-.45.04.03.07.05.07.08,0,.06-.07.17-.21.34-.19.23-.36.35-.53.35-.12,0-.18-.08-.18-.24,0-.05,0-.12.02-.2l.02-.19.03-.21.03-.18Zm.14-.96c-.15-.08-.29-.12-.45-.12-.23,0-.42.14-.57.41-.15.28-.23.62-.23,1.03,0,.21.06.31.19.31.14,0,.32-.11.52-.33.28-.3.44-.64.5-1.04l.04-.26Z"/>
        <path class="cls-1" d="m15.22,39.37l-.36.15v-.07s.03-.18.03-.18l.02-.17.13-1.12v-.13c.02-.1.03-.18.03-.24,0-.1-.03-.16-.08-.16-.12,0-.25.14-.39.41-.04-.03-.06-.06-.06-.08,0-.1.09-.23.27-.4s.32-.25.42-.25c.14,0,.21.09.21.27,0,.04,0,.11-.01.18l-.02.2-.02.17-.02.17c.19-.28.4-.52.63-.7.23-.18.42-.28.58-.28s.24.11.24.33c0,.07,0,.17-.03.3l-.13.9c-.03.18-.04.32-.04.43,0,.08.02.13.07.13.11,0,.25-.15.41-.44.04.02.06.05.06.08,0,.1-.09.24-.27.41-.18.17-.33.25-.44.25-.13,0-.19-.09-.19-.27,0-.13.02-.32.05-.55l.09-.59c.03-.19.04-.34.04-.45,0-.13-.04-.19-.13-.19-.21,0-.42.14-.63.42s-.34.58-.37.9l-.06.58Z"/>
        <path class="cls-1" d="m17.83,37.94c.12-.23.27-.42.46-.57.18-.15.35-.23.5-.23.21,0,.31.11.31.32s-.09.39-.26.56c-.17.17-.4.29-.68.37.31.55.54.82.69.82.11,0,.22-.09.34-.28.04.03.06.05.06.08,0,.08-.07.18-.22.31-.15.13-.27.2-.36.2-.16,0-.44-.33-.83-1.03l-.06-.11-.11.99-.36.15v-.07s.03-.18.03-.18l.02-.17.24-2.12c.05-.5.24-.93.55-1.29.32-.35.67-.53,1.06-.53.08,0,.16,0,.23.03l-.36.35c-.09-.03-.18-.04-.26-.04-.48,0-.76.38-.84,1.12l-.15,1.31Zm-.04.38c.26,0,.48-.06.65-.17s.26-.26.26-.43-.06-.26-.18-.26c-.11,0-.24.08-.38.25-.14.17-.25.37-.35.62Z"/>
        <path class="cls-1" d="m57.29,39.4l.31-.33.08.02c.1.02.19.04.28.05.13-.08.22-.18.27-.29.05-.11.09-.33.12-.66l.2-1.82c-.33.02-.6.11-.8.27-.2.16-.3.35-.3.59,0,.14.04.28.11.4l-.39.34c-.03-.12-.05-.25-.05-.38,0-.44.19-.79.56-1.07.37-.28.85-.42,1.43-.42.75,0,1.12.21,1.12.64,0,.37-.26.66-.78.88.51.18.76.47.76.85,0,.31-.16.56-.47.74-.31.18-.74.28-1.26.28-.33,0-.71-.03-1.17-.09Zm1.48-1.58l-.04.32-.02.2c-.03.24-.08.41-.14.51-.07.1-.21.2-.44.32.32.05.64.08.95.08.5,0,.76-.2.76-.6,0-.17-.07-.34-.21-.5-.14-.16-.31-.27-.51-.33h-.06s-.12,0-.12,0h-.11s-.07,0-.07,0Zm.16-1.47l-.14,1.28c.1,0,.18.01.25.01.08,0,.17,0,.28-.02.34-.2.52-.44.52-.71,0-.37-.3-.56-.9-.56Z"/>
      </g>
    </g>
  </g>
</svg>