<?xml version="1.0" encoding="utf-8"?>
<!-- Generator: Adobe Illustrator 28.0.0, SVG Export Plug-In . SVG Version: 6.00 Build 0)  -->
<svg version="1.1" id="_レイヤー_2" xmlns="http://www.w3.org/2000/svg" xmlns:xlink="http://www.w3.org/1999/xlink" x="0px"
	 y="0px" viewBox="0 0 120 120" style="enable-background:new 0 0 120 120;" xml:space="preserve">
<style type="text/css">
	.st0{fill:#D7323A;}
</style>
<path class="st0" d="M106.3,35.5c-4.5,0.7-10.1-2.5-12-6.4c-1.5-2.9-2.6-3.6-5.8-4.9c-2.7-1-3.3-3.2-5-5.3c-1.1-1.3-4.8-5.1-6.4-4.4
	c-0.9,0.4-1.9,3-2.8,3.6c-1,0.6-1.4,0.6-2.7,0.6c-2.8,0-5,0-7.4,1.4c-2.3,1.4-3.6,2.2-6.2,2.7c-1.6,0.3-2.3,1-3.8,1.2
	c-1.3,0.3-2.5,0-3.8,0.4c-3.5,1-3.3,0.3-6.1-1.7c-2-1.4-5-1.8-7.3-2.6c-2-0.6-6-1.9-7.3-3.7c-0.9-1.2-0.7-1.9-2-3s-1.7-1.7-2.6-3
	c-1.4-2.2-3.6-4.1-5.3-5.8c-0.2-0.2-0.8-0.7-1.1-1c-0.4-0.4-0.6-1-0.9-1.4c-0.9-1-1.5-2.2-3-2.2c-1.3,0-1.6,0.7-1.7,1.5
	c1,1.5,3.1,2.3,3.9,3.9c0.7,1.4,0,3.2,0.2,4.7c0.3,2.2,2,3.2,3.2,4.9s1.9,4,3.5,5.3c0-0.2,0-0.4,0-0.7c3.5,5.6-1.3,10.7,0.4,16.8
	c0.4,1.5,1.3,2.1,1.3,3.8c0,0.5,0.2,1.6,0,2.1c-0.3,0.5-2,0.8-2.4,1.5c-0.3,0.6-0.3,2-0.2,3.6c1.3,0.6,3.4,0.2,4.5-0.6
	c1.1-1-0.8-2.1-0.8-3.2c-0.1-1.4,2.7-1.5,4.7-1.2c1.9,0.2,4.4,2.4,7.9,6.7c3.6,4.3,1.8,4.5-0.9,7.6s-7.7,8.4-10,9.3
	s-3.1,1.9-3.3,3.4c-0.2,1.6,1.6,2.3-0.2,3.7c-1.9,1.5-4,0.2-4,0.2s-3.4,3.5-3.1,5.2c0.2,1.7,3.8,3.2,4.4,6c0.8,4-0.4,3.7-2.5,5.1
	s-2.9,4-1.2,4.9c1.1,0.6,2,2.4,0.9,2.8c-1.1,0.5-1.4,2-0.4,2.2c1.1,0.2,2.1,2,0.4,2.8s-2.6,3.7-0.3,4.6c1.9,0.7,2.5,1.2,2.2,3.6
	s-3.2,2-6.1,2.1c-3,0.1-2.4,1.9-0.8,2c2.7,0.1,3.2,0.5,3.9,2.3c0.6,1.9,2.3,3.1,5.1,2.9c2.3-0.2,7.5-0.3,7.3-5.4s4.6-8.7,6.6-9.4
	c2-0.7,5.2-0.5,5.6-3.3c0.4-2.9,3.2-4.1,6.2-3.4s4.8-0.2,6-1.4c1.2-1.2,5.5-0.3,6.5-1.3s1-2.8,1.9-3.2c3.6-1.6,3.1-1.9,3.4-4.8
	c0.3-3,0-2.3,1.1-5.8c1.1-3.4-0.6-5.3-1.2-8.2c-2-10.5,7-21.5,18.5-30.2c2.2-1.7,4.5-3.1,7-3.5c3.6-0.6,4.7,0.9,7.4-0.7
	c2.7-1.7,4-0.2,6.3,1.1C108,41.7,107.4,36.5,106.3,35.5L106.3,35.5z"/>
</svg>
