<?xml version="1.0" encoding="utf-8"?>
<!-- Generator: Adobe Illustrator 28.0.0, SVG Export Plug-In . SVG Version: 6.00 Build 0)  -->
<svg version="1.1" id="_レイヤー_2" xmlns="http://www.w3.org/2000/svg" xmlns:xlink="http://www.w3.org/1999/xlink" x="0px"
	 y="0px" viewBox="0 0 120 120" style="enable-background:new 0 0 120 120;" xml:space="preserve">
<style type="text/css">
	.st0{fill:#D7323A;}
</style>
<path class="st0" d="M18,85.5c1.9-3.6,7.2-6.3,11.9-5.9c1.2-3.6,5.9-4.2,9.2-5.1c3.7-1,7.7-0.8,10.1,1.3c1.8,1.6,1.3,2.4,3.8,3.1
	c1.3,0.4,4.3,0.9,5.7,0.3c1.8-0.8,2.8-3.5,4.5-4.5c2.1-1.2,3.5-1,5.7-1.4c5.1-0.7,6.4-2.1,8.4-6.3c1.7-3.7,4.6-3.6,8.8-4.2
	c6.5-0.9,16.2-1.7,22.8-0.4c3.7,0.7,6.8,4.9,9.5,0.4c1.2-2,1.2-4,1.6-5.6c-1-0.4-2-1-3-2.2c-4-4.6-6.6-4.6-9.5-5.6
	c-2.9-1.1-9.8-2.8-13.8-4.6s1.8-7,0.7-9.8c-1.1-2.8-8-1.1-9.8,1.4s-3.6,7-5.1,0s-5.1-5.6-9.5-3.5s-13.5-0.4-17.1-2.1
	c-3.6-1.8-7.6-2.1-9.1,0.7s-6.6,5.3-10.9,7.4c-4.4,2.1-13.8,10.9-17.5,13c-3.6,2.1-8,1.8-13.5,0.7s2.2,4.2,2.9,8.8
	C5.6,65.9,5.2,81,4.5,83.5c-0.3,1.1-1.4,1.7-2.9,2.7c2,0.2,3.8,0.6,5.8,1.6c1.5,0.7,3.7,1.4,4.9,2.9c0.5-0.3,0.9-0.6,1.3-0.8
	C16.3,88.3,16.6,88.2,18,85.5z"/>
</svg>
