<?xml version="1.0" encoding="utf-8"?>
<!-- Generator: Adobe Illustrator 28.0.0, SVG Export Plug-In . SVG Version: 6.00 Build 0)  -->
<svg version="1.1" id="_レイヤー_2" xmlns="http://www.w3.org/2000/svg" xmlns:xlink="http://www.w3.org/1999/xlink" x="0px"
	 y="0px" viewBox="0 0 120 120" style="enable-background:new 0 0 120 120;" xml:space="preserve">
<style type="text/css">
	.st0{fill:#D7323A;}
</style>
<path class="st0" d="M117,91c-3.2-0.1-5.4-2-6.8-6.8s3.2-4.1,6.5-4.6s2.7-2.3,0.6-3c-2-0.6-7.2,0.4-9.3-0.1
	c-2.2-0.5-4.6-0.1-2.9-3.3c1.7-3.2-2.2-2-5.7-2.8c-3.6-0.9,2.6-6.7,5.4-10.7c2.8-4.1-1.1-5.1-5-3.5c-3.8,1.6-7.5-0.2-10.3-2.1
	c-2.8-1.8-8,0.1-12.8,1.7c-4.7,1.6-7.9-3-9.4-7.9s1.9-5,3.7-4.6c1.8,0.5,3.6,2.3,5.9,1.5c2.3-0.9-2.2-2.3,1.5-2.7s2.7-2.8,2.4-4.2
	c-0.3-1.4,1.8-1.8,4.6-1.1c2.8,0.7,2.3,0.2,3.4-1.7c1.2-2,1.8-4.8,1.8-7s0.8-7.9-0.8-11c-1.5-3.1-2-6.8-8.9-10.3
	C74,3.3,66.3,9,65.1,12c-1.3,3-3.6,3.6-6.3,5.8s-6,0.9-9.7,0c-2.9-0.7-9.9-3.1-14.5-4.3c-0.1,0.4-0.3,0.8-0.3,1.2
	c-0.2,1.6,0.9,2.4,1,3.7c0,1.3-0.9,1.5-1,2.7c0,1.3,1.3,2.8,0.6,4c-0.6,1-2.3,1.1-3.4,1.1c-4.2,0-8.6-0.9-12.7-0.6
	c-1.8,0.2-3.6,0.8-5,2c-1.5,1.3-2.9,2.5-4.4,3.7c-2,1.7-3.4,4.1-3.6,6.6s-1.4,4-3.3,5.7c-1.1,1-1.6,0.7-1.1,2.4
	c0.4,1.5,1.2,1,1.9,2.1c1,1.5,0.4,5.4-0.9,6.5C1.5,55.2,0.1,55,0,56.4c0,1.1,1,1.3,1.3,2.2c0.2,0.8-0.5,1.9,0,2.8
	c0.4,0.7,2,0.8,2.6,1.7C5,64.8,4,69.8,2.1,72.8c1.7,1.1,3.3,2.4,4.9,3.4c1.2,0.8,2.2,1.5,3.3,2.6c0.7,0.7,1.9,2.3,2.8,2.8
	c3.2,1.8,4.7-0.9,5.4-3.2c1.1-3.7-0.1-4.3-2.6-6.9c-1.9-2-3-5.8,0.3-7.1c1.4-0.5,3.7-0.6,5.1-0.8c1.8-0.3,3.5-1.5,5.2-1
	c2.8,0.8,7.4,6.1,8.4,8.4c0.5,1.1,0.2,2.3,0.3,3.5c0.2,1.9,0.7,2.1,1.9,3.5c3.2,4.2,4.8,9.8,4.8,14.9c0,7,3.8,8.8,9,12.1
	c0.9,0.6,2.2,3,3,3.2c1.1,0.3,2.5-1.1,3.9-1.5s2.8-0.8,4.1-1.2c1.5-0.5,2.9-0.7,4.4,0.1c2.7,1.6,1.5,4.6,2.9,6.8
	c1.2,1.9,3.6,1.3,5.7,0.5c2.7-1.1,4.5-1.2,7.4-1.2c2.2,0,5,0.4,6.8-1s1.7-4.6,4.1-5.8c2.4-1.2,5.5-0.3,7.4,1c2.9,2,3.6,3.7,4.2,7.1
	c0.1,0.4,0.2,0.8,0.4,1.2c0-0.1,0.1-0.2,0.1-0.3c1.3-3.7,3.6-2.4,6.5-3.9s4.8-3.5,3.4-5.5c-1.3-2,1.5-6.5,3.5-9.4
	C120.9,92.3,120.2,91.2,117,91z"/>
</svg>
