<?xml version="1.0" encoding="utf-8"?>
<!-- Generator: Adobe Illustrator 28.0.0, SVG Export Plug-In . SVG Version: 6.00 Build 0)  -->
<svg version="1.1" id="_レイヤー_2" xmlns="http://www.w3.org/2000/svg" xmlns:xlink="http://www.w3.org/1999/xlink" x="0px"
	 y="0px" viewBox="0 0 120 120" style="enable-background:new 0 0 120 120;" xml:space="preserve">
<style type="text/css">
	.st0{fill:#D7323A;}
</style>
<path class="st0" d="M19.4,85c1.5,0,2.1,1.2,2.8,2.3c0.3,0.5,0.4,1,0.8,1.4c0.3,0.4,0.9,0.8,1.1,1c1.7,1.7,3.9,3.6,5.2,5.7
	c0.8,1.3,1.3,1.9,2.5,3c1.2,1,1.1,1.7,1.9,2.9c1.2,1.7,5.2,3,7.2,3.6c2.3,0.7,5.2,1.2,7.2,2.6c2.8,1.9,2.6,2.7,6,1.6
	c1.3-0.4,2.4-0.2,3.8-0.4c1.5-0.3,2.2-0.9,3.8-1.2c2.6-0.5,3.8-1.3,6.1-2.7c2.4-1.4,4.5-1.4,7.2-1.4c1.3,0,1.7,0,2.7-0.6
	c0.9-0.6,1.8-3.2,2.7-3.5c1.6-0.6,5.3,3.1,6.3,4.4c1.7,2.1,2.3,4.2,4.9,5.2c3.1,1.2,4.3,1.9,5.7,4.8c1.9,3.8,7.4,6.9,11.8,6.3h0.1
	c-0.1-0.1-0.2-0.2-0.3-0.2c-1.2-0.2-2.2-1-3.9-3.1c-8-10.3-17.3-29.2-20.6-45.4c-1.3-6.1,3.6-10,4.7-12.5c1-2.5-0.2-2.3-0.6-6.7
	c-0.5-4.5,4-16.1,6.1-19c2.1-2.8,2.9-4.6,2.9-5.9c-0.2-3.7,2.6-12.9,6.3-16.1c-0.3-1-0.2-2.2,0.1-3.3c-1-0.2-2.1-0.2-3.1-0.4
	C98.5,7,97.1,6,95.1,5.1C93.6,4.5,92,5,90.4,4.6c-2.1-0.5-1.6-1.1-2.5-2.4c-0.5-0.7-2.4-1.6-3.3-1.3c-0.4,2.4,2.8,3.8,1.9,6.2
	c-0.6,1.8-3.1,2.3-4.5,3.5c-1,0.8-1.6,2.2-2.5,3.1c-2.6,2.7-4.3,0.5-6.6-1.4c-1.1-0.9-2.7-0.8-3.6-1.9c-0.8-0.9-0.3-2.3-1-3.1
	c-0.4-0.4-1.2,0-1.6-0.4c-0.6-0.7-0.6-1-1-1.8c-0.8-1.3-0.9-1.6-2.6-2.5c-1.5-0.8-3-0.9-3.9-1.7c-0.4,1-0.7,2.1-0.7,3.1
	c0,1.1-0.2,2.6,0,3.7c0.2,1.2,0.9,1.8,1.3,2.8c0.9,2.6-0.9,4.6-1.1,6.8c-0.3,2.8,3.7,2.5,2.4,5.3c-1,2.3-4.2,0.7-4.7,3.3
	c-0.5,2.3,0.9,5.6,1.2,7.9c0.2,1.6,0.7,2.9,1.1,4.5c0.3,1.1,0.6,3.4,0.3,4.5c-0.4,1.4-2.1,2.2-2.8,3.4c-0.9,1.5-1.5,3.6-1.7,5.3
	c-0.2,1.9-0.6,3.7-3.2,3.1c-1.2-0.3-1.3-1.2-2.8-1.1c-0.8,0-1.8,0.7-2.5,1c-0.9,0.4-1.8,1.3-2.6,1.6c-0.9,0.4-1.8,0-2.7,0.2
	c-2.3,0.4-3.5,2.3-5.5,2.9c-1,0.3-3.4-0.2-4.1,0.8c-0.4,0.7,0.5,1.5,0.3,2.3c-0.5,2.6-2.7,1-4.8,1.2c-1.8,0.2-2.4,0.5-2.8,2
	s-0.2,2.6-0.8,4.1c-1.3,3.1-2,3.1-5.4,3.3c-2.3,0.1-4,0.6-6.2,1.1c-0.4,0.1-0.7,0.2-1.1,0.2c1.1,2,2.2,4.1,2.9,6.3
	c0.8,2.4,1.2,5.2,3.8,6.4c0-0.2,0.1-0.6,0-1c0.1,0.3,0.3,0.6,0.4,0.8C17.9,85.7,18.2,85,19.4,85z"/>
</svg>
