<?xml version="1.0" encoding="utf-8"?>
<!-- Generator: Adobe Illustrator 28.0.0, SVG Export Plug-In . SVG Version: 6.00 Build 0)  -->
<svg version="1.1" id="_レイヤー_2" xmlns="http://www.w3.org/2000/svg" xmlns:xlink="http://www.w3.org/1999/xlink" x="0px"
	 y="0px" viewBox="0 0 120 120" style="enable-background:new 0 0 120 120;" xml:space="preserve">
<style type="text/css">
	.st0{fill:#D7323A;}
</style>
<path class="st0" d="M88.2,61.8c-2.5-0.6-3.9-2-5.9-3.2c-1.9-1.1-4.5-1.9-5.9-3.8c-0.6-0.7-1-2.2-1.6-2.7c-0.9-0.7-2.5-0.7-3.4-1.4
	c-1.4-1.1-2.6-2.7-4-3.9c-0.9-0.7-1.3-0.8-1.4-2.1c-0.1-1.5,0.4-1.3,1.6-1.9c2.6-1.3,2.1-2.6,0.6-4.8c-1.2-1.8-2.8-2.1-4.9-2.4
	c-2.6-0.4-4.9-0.5-7.3-1.7c-2-1-4.3-1-4.5-3.6c-0.1-2,0.9-3.3,0.2-5.2c-0.9-2.4-2.7-2.5-4.2-4.2s-2.2-4.4-1.4-6.5
	c0.3-0.9,2.8-5.8,2.6-8.4c-3.4-0.8-7.5,1-11.1,2c-2.9,0.8-3.1-1.8-7-1.8s-2-1.6-6.2-2.1c-4.2-0.4-4.9-0.6-7.7,0.9
	C14,6.5,12.6,7.6,8.1,8.5s-0.8,1-0.9,5.7c-0.2,4.6-1.1,1.6-2.5,5.4c-1.4,3.7,0.3,3.7-3.1,4.8c-3.4,1-0.9,4,3.2,6
	c4.2,1.9,5.9-4.6,7.9-7.9s3.7-9.5,5.7-11.8c2-2.2,4,1.3,6,4.2c2,2.8,0,5.4-2.3,9.1s-1.5,2.2,3.4,3.9c4.9,1.6,3.7,0.1,5.9,1.9
	s0.9,3.1,4.3,6c3.4,2.8,6.6,2.1,6.6,6.1s2.8,1.6,4.9,5.7c2.2,4,2.8,3.3,7,2.4c4.2-0.9,3.6-0.4,8.2,1.3c4.6,1.8,6,5.1,5.9,8.8
	c-0.2,3.7-2.3,4-3.1,7.9c-0.8,3.9,5.3,6.1,7.9,9.1s1.7,3.4-1.9,3s-5.3-3.4-8.2-4.6c-2.9-1.2-4.8,2.2-6.6,4c-1.9,1.8-3.4-2.2-5.6-4.9
	c-2.2-2.7,0.5-6.6,1.5-9.8c1.1-3.3,0.2-4.8-1.5-6.6s-4-2.2-6.2-2.2s-2.5-4-3.4-6.1s-2.9-4.3-5.9-4.9c-1.1-0.2,0.5,3.6-0.5,6.9
	c-0.9,3.4-3,1.1-4.2,7.8s-2.3,3.4-0.7,6.7c1.6,3.4,2.6,2.7,3.9,6.7c1.4,4,4.2,7.2,8.1,10.7c3.9,3.6,4.4,0.9,7.4,4.9s4.2,5.8,4.2,9.4
	s-2.6,11.2-6,14.8c-3.5,3.6,0,3.8,3.9,2s2.8-5.8,5.6-7.4s3.7-2.9,5.8-5.1s3.7-6,4.9-8.5c1.2-2.5,1.6-2.5,5.3-2.2
	c3.7,0.2,3.5,0,5.6-1.8s2.3-2.5,4.9-3.1c2.5-0.7,2.3,0.2,7.7,0c5.3-0.2,4.6-0.9,6.7,2.2s1.2,4.7,0.9,8.1c-0.2,3.4-5.3,3.4-7.7,4.9
	c-2.3,1.6-2.5,4.7-0.9,5.6s2.8,4.3,6,5.8c3.2,1.6,5.8-0.9,7.7-3.8c1.9-2.9,2.1-2.9,6.7-2.7c4.6,0.2,4.9-1.8,6.5-5.4s1.9-6,2.5-10.1
	c0.7-4-1.2-7.2-3.5-11c-2-3.3-3-5.6-7.4-4.7s-6.7,1.8-10.4,4.2c-3.7,2.5-6.5-0.9-9-2.5c-2.6-1.6-0.9-4.3,2.8-6
	c3.7-1.8,4.9-2,6.3-4.5c0.5-0.9,0.8-1.4,1.1-1.7c-1.4-0.6-2.8-1.2-4.2-1.8C93,62.5,90.7,62.4,88.2,61.8z"/>
</svg>
