<?xml version="1.0" encoding="utf-8"?>
<!-- Generator: Adobe Illustrator 28.0.0, SVG Export Plug-In . SVG Version: 6.00 Build 0)  -->
<svg version="1.1" id="_レイヤー_2" xmlns="http://www.w3.org/2000/svg" xmlns:xlink="http://www.w3.org/1999/xlink" x="0px"
	 y="0px" viewBox="0 0 120 120" style="enable-background:new 0 0 120 120;" xml:space="preserve">
<style type="text/css">
	.st0{fill:#D7323A;}
</style>
<path class="st0" d="M95,62.1c-1.1-0.7-0.9-1.4-0.4-2.5c0.5-1.2,1.4-1.9,0.5-2.8c-0.9-1-3.6,0.9-5.3,1.4c-1.7,0.5-3.9,0.2-5.5-1
	s-4.7-2.2-5.7-2.9s-1.2-1.9-2.4-2.9c-1.2-1-1.5-0.2-3.4-0.6c-1.9-0.4-2.5-0.7-2-2s0.7-3.1-0.9-3.7c-1.6-0.6-1.3-1.6-0.9-3.1
	c0.4-1.6,0.8-3,1.5-4.9s3.2-4.5,5-6.6c0.9-1.1,1.5-2.2,1.6-4.1c0.1-2,0.1-4.2,0.6-5.6s3.8-3,5.3-3.5c0.7-0.2,1.1-0.3,1.5-0.2
	c-0.2-1-0.6-2-0.7-2.7c-0.2-0.9-0.1-2.1-0.8-2.9c-0.7-1-1.2-0.6-2.2-1.3c-1.1-0.8-0.8-1.5-2.3-2C78,8,77.4,8.3,76.9,8.1
	s-0.8-0.7-1.2-0.9c-0.8-0.4-2.3-0.5-2.9-1.2c-0.5-0.5-0.7-2-1-2.6c-0.9-1.7-1.6-3.7-3.9-3.2s-3.2,2.3-6,1.9C61.5,2,61.2,2,61,2
	c-0.4,0.5-0.7,1-0.7,1.4c0.1,1.5,3,1.4,3.5,2.5c0.3,0.7-0.3,2.4-0.3,3.5s0.1,2.2-0.2,3.3c-0.4,1.6-1.6,2.9-1.9,4.6
	c-0.3,2.2-0.1,3.5-1.6,5.3c-1.5,1.7-1.9,3.4-3.6,5C54.7,29,53.9,30,51.3,30c-2.3,0-3.7-1.5-5.9-1.6c-0.7-0.1-2.1-0.2-2.8,0
	c-1.3,0.4-0.9,0.5-1,1.8c-0.3,1.9-0.9,3.5-2.7,4.6c-0.7,0.4-2,1.1-3.2,1.5c0.1,0.2,0.2,0.5,0.2,0.6c0.6,1.2,1,2.2,0.9,3.6
	c0.2,0,0.5,0,0.7,0c0,2.1,1.9,3.2,1.5,5.5c-0.4,2.2-2.7,4.4-1.7,6.6c0.8,1.9,2.9,2.3,4.8,2.5c1.7,0.2,1.8,0.1,3.2,1.1
	c0.7,0.5,0.4,0.6,1.2,0.9c0.6,0.2,1.6,0,2.2,0.1c0.5,1.8,0,3.7-1.1,5.2c-1.6,2.2-3.8,0.7-5.9,1.8c-1.9,1-3.5,2.4-2.9,4.6
	c0.3,0.9,0.9,2,1.2,2.9c0.1,0.4,0.1,0.8,0.2,1.2c0.2,0.5,1,0.7,1.1,1.1c0.3,0.9-0.2,1.4-0.3,2.3c-0.1,1,0.3,2,0.3,3
	c0.1,1.8-0.8,3.4-0.9,5.3c-0.1,2-0.3,4-0.3,6c-0.1,1.8,0.5,3.6-0.9,4.9c-1.4,1.4-2.5,0.4-4.1,1c-1.7,0.6-1.3,2.1-1.7,3.4
	c-0.6,2.4-2.5,1.6-4.1,2.9c-1.3,1-1.3,2.3-3.2,2.9c-0.1,2.4-3,3.8-2.6,6.3c0.3,1.8,3.2,2.2,4.6,3.8c1.6,1.9,2.2,3.9,5,4.3
	c0.6,0.1,1.1,0,1.6,0c1.6-3.7,4.1-10.1,4.9-11.5c1-1.9,2.7-2.5,4.4-3.1c1.7-0.7,2.7-0.7,3.6-2c0.9-1.3,2.1-2.1,3.6-3.3
	c1.5-1.2,0.9-3,0.2-4s-0.6-2.1-0.4-2.9c0.2-1-0.1-1.4,1.3-1.6c1.4-0.2,1.9-0.9,2.3-2.3c0.4-1.3-0.7-1.6-0.8-2.5s0.6-1.3,1.6-2.3
	s0.4-0.8,2.2-1.1c1.8-0.3,2.5-0.7,3.9-1.6s1.1-0.7,2.6-1.1c1.5-0.3,2.6,0.4,4.1-0.2c1.5-0.7,0.9-1,2.2-1c1.2,0-0.6-1.7,1.7-1.7
	c2.2,0,1.9,0.1,4.7-2.2c2.8-2.3,4.3-0.9,6.2-1.2c1.9-0.4,3.4,0.4,4.9,1.4c1.5,0.9,2.6,2.2,5.2,1.8c2.6-0.4,1.3-2.7,0.4-4.3
	c-0.8-1.6-0.1-1.6,1.3-3c1.3-1.4,0.4-2.3,1.3-4.3C96.9,64,96.1,62.8,95,62.1z"/>
</svg>
