<?xml version="1.0" encoding="utf-8"?>
<!-- Generator: Adobe Illustrator 28.0.0, SVG Export Plug-In . SVG Version: 6.00 Build 0)  -->
<svg version="1.1" id="_レイヤー_2" xmlns="http://www.w3.org/2000/svg" xmlns:xlink="http://www.w3.org/1999/xlink" x="0px"
	 y="0px" viewBox="0 0 120 120" style="enable-background:new 0 0 120 120;" xml:space="preserve">
<style type="text/css">
	.st0{fill:#D7323A;}
</style>
<path class="st0" d="M94.3,80c0-3.3,1.2-3,3.8-4.4c1-0.5,1.8-1.1,2.8-1.4c1.3-0.4,1.9-0.8,3.2-1.4c0.9-0.4,2-0.2,2.8-0.5
	c1.5-0.6,1.2-1.1,2-2.3c1.7-2.8,3.3-0.8,5.6-2c1.3-0.7,2.6-4.4,3.3-5.6c1.2-2,0.7-4.2,1.3-6.3c0.9-3.3,0.2-6.2,0.1-9.6
	c0-1.2,0.3-2.2,0.8-2.9c-5.9-3.1-13.2-3.8-16.6-10.7c-1.5-3-1.9-6.2-3.8-9.3c-0.7-1.1-1.4-3.9-2.5-4.8c-2.3-1.8-1.7,0.3-4.2,0.6
	c-2.7,0.4-3.7-1.6-5.8-2.6c-1.9-0.9-3-0.4-5-0.8c-3.8-0.8-5.4-5.1-9.2-6.5c-1.6-0.6-3.4-0.7-4.3-1.9c-2.4,1-4.1,3.4-6.2,4.9
	c-2.2,1.5-5.3,0.8-7.1-1c-1-1.1-1.1-2-2.6-3c-1.3-0.9-2.4-1.4-4-1.6c-2.1-0.3-7-1.3-8.8,0.2c-1.2,1-0.5,2.4-2.6,2.7
	c-0.9,0.1-3.5-0.8-4-1.5c-1.4-2.3,1.8-4.9-1.5-6.7c-1.9-1.1-6.3-1.8-8.2-0.9c-2.7,1.3-3.1,4.4-5.4,6.2c-1.7,1.3-2.3,1.2-2.9,3.3
	c-0.4,1.4,0,2.6-1.3,3.6c-2.9,2.4-4.8-2.3-7.7-1.4c-2.4,0.8-2.3,6.1-3.6,8c-1,1.5-2.6,1.9-2.5,4c0,0.7,0.6,3.1,1,3.5
	c1.6,1.8,6.5,1.3,3.7,5C2.6,35.2,0,35,0.3,39c0.1,1.2,0.4,3,0.8,4c0.6,1.2,2,2,2.3,3.5c0.2,0.7,0,1.3-0.3,1.9c1.5,0.4,1.9,1.5,2.7,4
	c0.8,2.6,1.4,5.1,2.1,7.7c1.3,4.7,0.1,9.5-0.1,14.6c-0.1,2.4-0.1,4.8-0.2,7.2c-0.2,2.3-2.4,4.4-1.7,6.8c0.4,1.4,2,1.7,2.6,3.1
	C9,93,8.4,95,8.5,96.3c0.5,4.6,3.6,2.8,6.6,1.4c2.8-1.3,5.4-2,6.9,0.9c1.2,2.3,1,4.4,1.5,6.9c1,5.1,3.3,10.7,8.5,13
	c2.3,1,6.2,2.5,8.4,1c2.2-1.4,3.7-5.4,3.5-7.7c-0.2-2.9-2.3-4.9-2.4-7.9c-0.1-3.2,0.3-5.5,1.2-8.4c0.9-3.1,0.7-6.5,1.4-9.6
	c0.5-2.3,3.1-9,7.2-6.5c1.6,1,0.6,3.3,1.2,4.6c0.9,2,2.5,1.5,4.7,1.2c5.1-0.7,4.6,1.3,5.2,5.6c1.3,0.1,3,0.3,4.3,0
	c1.7-0.4,2.6-1.3,4.3-1.9c2.9-1,6,0,9.1-0.2c1.9-0.2,2.8-1.5,4.4-2.1c1.3-0.5,2.7-0.3,4.1-0.5c1.9-0.4,3.7-1.2,5.5-1.9
	c0.1-0.3,0.2-0.6,0.2-1C94.4,82.1,94.3,81,94.3,80z"/>
</svg>
