<?xml version="1.0" encoding="utf-8"?>
<!-- Generator: Adobe Illustrator 28.0.0, SVG Export Plug-In . SVG Version: 6.00 Build 0)  -->
<svg version="1.1" id="_レイヤー_2" xmlns="http://www.w3.org/2000/svg" xmlns:xlink="http://www.w3.org/1999/xlink" x="0px"
	 y="0px" viewBox="0 0 120 120" style="enable-background:new 0 0 120 120;" xml:space="preserve">
<style type="text/css">
	.st0{fill:#D7323A;}
</style>
<g>
	<path class="st0" d="M2.9,83.6c1.7-3.3,3.8-5.2,3.2-7.5c-0.7-2.3,1.6-2.3,2.7-2.6c1.1-0.3,2.1-1.3,3.3-2c1.1-0.7,2.5-1.1,4.9-0.9
		s2.5-0.3,2.8,1.7c0.3,2.1-0.7,3.1,0.7,4.3c1.4,1.2,0.6,1.6,0.6,2.5s1.8,1.5,2.9,0s3.6-2.6,6-4.1s5-1.3,6.7-1s6.8-1,5.9,1.2
		c-0.9,2.2-1.2,2.4-1.8,5.3s-0.6,4.9-0.6,6.2c0,1.3-11.1-1.3-13-1.3s-4.3,0.8-5.7,2.4c-1.4,1.6,1.1,1.1-1.8,3.2s-2.5,1.2-3.4,3.2
		s0.3,3.2-2.6,5.1c-2.9,2-3.1,2.7-4.1,4.4c-1,1.6-0.8,4.1-3.1,2.9S4,105,3.4,102.8s-1.6-1-2-2.3c-0.5-1.3,0.2-2.8,2-3.6
		c1.8-0.8,3.5-1.6,0.6-2.4s-5-2.3-3.5-4.5L2.9,83.6z"/>
	<path class="st0" d="M70.2,115.7c2.3-0.1,4.9,0.1,7.3-0.2c2.5-0.3,3.8-3.6,6.5-3.1c1.4,0.3,1.7,1.4,3.2,1.5c2,0.1,1.9-0.8,2.8-2.2
		c1.7-2.8,3.2-3.5,6.3-2.5c2.3,0.8,4.8,1.9,5.2-1.3c0.3-3-2.3-4.2-3.9-6.3c-2.5-3.2,0.2-3.4,2.3-5.7c2.4-2.6,0.1-4.1-0.9-6.5
		c-0.4-0.9,0.2-2.2-0.2-3.1c-0.6-1.6-2-1.4-3.2-2.4c-1.8-1.5-2-4.2-2.4-6.3c-0.1-0.7-0.8-2.5-0.7-3.1c0.3-1.3,1.7-1.8,2.3-2.9
		c0.7-1.2,0.2-1.9,1.4-3.1c0.9-1,2.1-1.2,3.4-1.6c3.6-1,2.9-1.4,2.7-4.7c-0.2-3.8,3-3.2,5-5.7c0.9-1.1,0.4-2.3,1.1-3.3
		c0.8-1.3,2.4-1.2,3.4-2.1c2.8-2.4,1-7,3.6-8.8c1.2-0.8,3-1.4,4.8-1.8c-3.6-2.3-6.1-4.2-6.1-9.6c0-4.5-1.4-9.5-4.2-13.2
		c-1-1.3-1.5-1.4-1.6-3.1c-0.1-1.1,0.2-2.1-0.3-3.1c-0.9-2.1-5-6.8-7.5-7.5c-1.5-0.4-3,0.6-4.6,0.9c-1.3,0.2-3.3,0.3-4.6,0.7
		c-3,1.1-2,4.5-0.3,6.3c2.2,2.3,3.2,2.9,2.3,6.1c-0.6,2.1-1.9,4.4-4.7,2.9c-0.8-0.4-1.9-1.9-2.5-2.5c-0.9-0.9-1.8-1.6-2.9-2.3
		c-2.1-1.4-4.5-3.5-6.8-4.3c-1.1-0.4-2.3-0.3-3.4-0.9c-1.2-0.8-1.6-1.7-2.9-2.3c-1.9-0.8-5.2-1.6-7.2-1.2c-0.4,1.9,1.5,2.4-0.3,4.1
		c-1.2,1.1-2.5,0.9-4.1,0.9c-4.1,0-5.4,2.2-8.6,4.1c-1.8,1.1-1.9,1.1-2,3.1c-0.1,1.4,0.5,3.2-0.9,4c-1.1,0.6-3.3,0.5-5.5,0.3
		c0.2,1.1,0.4,2.2,0.5,3.2c0.6,4.3-0.3,2.9,1.9,5.9c2.3,2.9,4.4,1.5,5.2,2.7s0,3.7,1.5,3.7s3.7,1,5,2.7c1.2,1.7,1.7,3.5,1,4.3
		s-0.7,1.4,0.5,3.1c1.1,1.6-0.5,2.4-2.1,4.4c-1.7,2-5.3,4.6-10.6,7.6c-5.3,3.1-0.9,5.1,2.6,3.4c3.5-1.7,5.1-2.4,10.1-2.2
		s0.3,5.1-2.3,7.3s-2.2,4.4-1.8,7.1c0.3,2.7,0.8,4.4-0.1,5.7c-0.9,1.3-4.2,4-5.7,6.7c-1.5,2.6-1.9,4-1.8,7.2c0,1.3-2.1,0.7-3.5,2.4
		c-1.4,1.7-0.5,2.5-2.5,3.7s-3.1,2.3-3.1,4.6c0,1.2-0.1,1.9-0.6,2.8c0.2,0.4,0.5,0.8,1,1.4c1.1,1.4,3.6,2.2,5.3,2.6
		c2.9,0.7,2.3-1.2,4.3-2.3c0.8-0.4,2-0.1,2.9-0.2c1.7-0.1,1.9-0.4,3.2-1.1c1.2-0.7,3.5-2.9,4.5-2.6c0.8,0.2,1.5,1.8,2.1,2.3
		c0.7,0.5,1.7,0.7,2.4,1.2c1.3,0.8,4.2,2.9,5.1,4.1v0.1c0.1,0,0.2-0.1,0.4-0.1C67.7,115.5,69,115.8,70.2,115.7z"/>
</g>
</svg>
