<?xml version="1.0" encoding="utf-8"?>
<!-- Generator: Adobe Illustrator 28.0.0, SVG Export Plug-In . SVG Version: 6.00 Build 0)  -->
<svg version="1.1" id="_レイヤー_2" xmlns="http://www.w3.org/2000/svg" xmlns:xlink="http://www.w3.org/1999/xlink" x="0px"
	 y="0px" viewBox="0 0 120 120" style="enable-background:new 0 0 120 120;" xml:space="preserve">
<style type="text/css">
	.st0{fill:#D7323A;}
</style>
<path class="st0" d="M28.1,98.3c-1.4-3,1-2.6,3.2-4.3c2.3-1.8,2.4-3.1,2.2-5.8c-0.1-1.2,0.1-2,0.6-3s2-1.6,1.6-3
	c-3.5-0.1-0.4-2.7,1-3.2c2.2-0.8,3.9-1.6,4.6-3.9c0.3-1.2-0.3-1.9,1.1-2.6c0.4-0.2,1.1-0.2,1.5-0.1c1,0.3,0.6,0.9,1.1,1.1
	c1.5,0.7,3-1,5.1-0.7c2.1,0.2,2.8,2.7,4.7,1.1c0.7-0.6,0.6-2.3,2-2.4c0.4,0,1.6,1.1,2.4,1.3c1.3,0.3,4.8,0.1,5.9-0.5
	c1-0.5,1.5-1.6,2.4-2.1c0.8-0.4,2.1-0.9,2.9-1c1.6-0.3,5.7,0.5,5-2.3c-0.4-1.7-5.6-1.8-4.8-3.9c0.3-0.8,4.9-2.5,5.7-2.9
	c2-1.1,3.1-2.7,4.4-4.6c0.5-0.8,0.7-1.7,1.5-2.5c0.9-0.9,2-1.2,2.7-2.1c1.2-1.4,1-4.1,3.9-4c1.3,0.1,1.4,1.3,2.4,1.8
	c0.8,0.4,1.9,0.4,2.9,0.3c1-0.1,1.8-0.6,2.6-0.7c1.6-0.1,1.9,1.1,3.4,1.4c1.6,0.3,3.2-0.6,4.7-1.1c0.4-0.1,0.9-0.2,1.4-0.3
	c-1.7-3.3,6.1-5.4,3.6-9.1c-0.6-1-2-0.8-0.9-2.5c0.6-0.9,1.5-0.9,2.4-1.4c2.1-1.1,3.4-1.3,5.6-1.9c2.6-0.7,1.6-2.7,1.6-4.9
	s1.1-3.4,1.4-5.3c0.9-4.8-4.9-6.4-7.5-9.1c-1.7-1.8-1.5-3.6,0.5-5c1.5-1,3.3-0.9,5.2-0.9c0.1,0,0.2-0.1,0.2-0.1
	c1.7-1.1,1.7-0.3,1-1.2C118.5,6,116,6.3,114,6.4c-2.1,0.1-3.5,0.3-5.7,0.3s-1.5-1.3-3.2-1.8s-2.3,0.8-3.3,1.8s-1.9,2.5-3.2,2.7
	c-1.3,0.1-1.9,0.3-3.1,1.1c-1.2,0.9-2.2,0.9-5.6,1.1c-3.4,0.1-7.7,2.3-9.2,3s-1.9,0.8-2.1,1.8s-3.3,1.5-5.6,1.5
	c-2.3-0.1-4,0.9-2.6,1.9c1.4,0.9,1.2,0.9,2.6,1.8c1.5,0.9,0,4.4-0.4,6.6s-4.2,3.6-6.2,4.5c-2,0.9-4.6,2.7-6.5,4s-4.6,2.7-6.4,5.4
	c-1.8,2.7-3.3,3.9-4.4,5.6c-1,1.7-2.3,3.8-4,4.5s-2.2,0.5-3.7,1.5c-1.5,0.9-5.5,4.2-7,5.6c-1.5,1.4-6.9,6.3-8.2,7.8
	c-1.3,1.5-6.2,6.7-7.9,7.8c-1.7,1.1-3.5,2-4.2,3.8c-0.8,1.8-1.2,2.5-3.5,3.6S5,84,2.2,84c-0.6,0-0.9,0.4-1.2,0.7
	c0.6,0.6,1,1.5,1.2,2.2c0.1,0.6-0.2,1.2,0,1.8c0.3,0.8,1.3,1,1.5,1.9C4,92,1.6,98,0,98.2c-0.2,1,1.2,4.3,1.9,5.1
	c1.1,1.5,3.5,1.2,5.3,2c1.1,0.5,1.5-0.2,1.5,1.4c0,1.2-1.1,1.5-1.4,2.5c-0.8,2.2-0.1,4.9,2.1,5.3c0.8,0.2,1.7,0,2.5,0.2
	c0.9,0.2,2.1,1,3,0.7c1.3-0.4,1-1.8,2.1-2.3c0.4-0.2,2.5-0.1,3,0c1,0.2,1.5,1.3,2.6,0.3c0.6-0.5,0.7-2.1,1.2-2.8
	c0.7-1.1,1.4-1.4,1.5-2.7c0.1-1.1-1-2-0.7-3.1c0.3-1.3,2.4-2.5,3.8-2.6c0.4,0,0.6,0,0.9,0.1C29.1,100.7,28.4,99,28.1,98.3z"/>
</svg>
