<?xml version="1.0" encoding="utf-8"?>
<!-- Generator: Adobe Illustrator 28.0.0, SVG Export Plug-In . SVG Version: 6.00 Build 0)  -->
<svg version="1.1" id="_レイヤー_2" xmlns="http://www.w3.org/2000/svg" xmlns:xlink="http://www.w3.org/1999/xlink" x="0px"
	 y="0px" viewBox="0 0 120 120" style="enable-background:new 0 0 120 120;" xml:space="preserve">
<style type="text/css">
	.st0{fill:#D7323A;}
</style>
<g>
	<polygon class="st0" points="92,25.4 92,26.6 89.6,26.6 89.6,23.2 95.4,17.7 98.2,17.7 98.2,19.9 93.9,24.9 	"/>
	<polygon class="st0" points="89.6,29.1 92.2,29.1 93.2,30.8 93.2,33.3 91.9,34.7 90.2,34.7 88.5,32.5 88.5,30.2 	"/>
	<polygon class="st0" points="78.2,46.8 82.3,46.8 83.7,48.3 83.7,49.9 82.6,51.1 78.2,51.1 76.4,50.1 76.4,48.2 	"/>
	<polygon class="st0" points="38,58.4 40.5,58.4 41.4,59.6 41.4,61.1 39.7,62.5 38,62.5 36.2,61.1 36.2,59.4 	"/>
	<polygon class="st0" points="48.3,88.2 50.3,88.2 50.3,92.2 49.3,92.8 49.3,94.9 47.7,97.5 46.1,97.5 46.1,91.3 	"/>
	<polygon class="st0" points="0,77.5 4.5,75.1 6,75.1 10.2,79.2 8.4,81 10.2,83.9 8.3,85.2 3.4,81.1 0.8,80.6 	"/>
	<polygon class="st0" points="101.8,53.5 101.8,51.4 105.5,48.9 105.5,46.8 112.9,39.4 112.9,36.4 115,35.5 116.3,37.8 118.1,37.8 
		120,43.8 120,48.1 112.9,57.1 107.4,57.1 107.4,59.3 105.5,59.3 106.9,60.9 106.9,63.4 103.9,63.4 101.8,64.6 99.9,64 99.9,66.4 
		96.3,67.3 96.3,69.4 92.4,71.2 92.4,72.5 89.4,72.5 85.7,71.9 84.1,73.5 87,76.3 87,79 90.8,82.3 90.8,83.7 89,85.2 85,82 83,83.9 
		83,85.8 80.9,87.5 80.9,90.7 80,91.5 80,92.8 81.8,91.7 83.7,92.8 83.7,94.9 73.1,102.3 69.9,102.3 69.9,99.2 68.7,97.5 68.7,94.6 
		68.2,92.8 68.2,90.4 70.4,89.2 70.4,87.1 76.4,83.3 73.7,75.1 73.7,71.5 75.4,71.5 76.4,72.2 78,70.8 80,70.8 83.7,65.9 87.7,65.9 
		93.2,61.1 90.8,59.4 87.2,59.4 85.7,56.8 85.7,54.7 87,53.6 85.6,52 85.6,49.7 87.7,49.7 89.6,50.2 90.8,49.4 94.1,49.4 97.6,52.9 
		97,55.8 	"/>
	<polygon class="st0" points="92.6,80.9 90.4,79 95,74.9 96.5,75.3 96.5,77.9 	"/>
</g>
</svg>
