<?xml version="1.0" encoding="utf-8"?>
<!-- Generator: Adobe Illustrator 28.0.0, SVG Export Plug-In . SVG Version: 6.00 Build 0)  -->
<svg version="1.1" id="_レイヤー_2" xmlns="http://www.w3.org/2000/svg" xmlns:xlink="http://www.w3.org/1999/xlink" x="0px"
	 y="0px" viewBox="0 0 120 120" style="enable-background:new 0 0 120 120;" xml:space="preserve">
<style type="text/css">
	.st0{fill:#D7323A;}
</style>
<path class="st0" d="M111,37.7c-5.4-0.8-8.3-2.7-12.4-6.1c-3.8-3.1-6.7-7.5-11.4-9c-2.7-0.9-11.3,0.7-12.5,4.4
	c0.1,0.1,0.2,0.3,0.4,0.4c0,1.3,1.8,3,1.5,5c-0.2,1.7-1,3-1.4,4.7c-0.9,3.6-0.4,7.4-4.5,3.1c-2.6-2.8-4.2-7.7-7.6-9.7
	c-3.1-1.9-8.5-2.5-12-3c-3.7-0.5-8.4,0.4-11.1-2.4c-1.4-1.4-1.1-3.2-3.7-4c-2.7-0.9-2.6-0.2-4.8-2.2c-1.2-1.1-2.5-1.9-3.9-2.6
	c-0.5,0.8-0.8,1.8-0.8,3.1c0,3.6,0.8,6.7-0.2,10.2c-0.6,2.3-0.1,4.6-1.4,6.7c-0.8,1.3-2.1,5.2-3.5,5.9c-2.4,1.3-4.2-0.8-6,2.2
	c-0.8,1.3-0.5,1.8-2.1,2.5c-0.9,0.4-2,0.1-3,0.5c-1.3,0.7-2,1-3.4,1.5c-1.1,0.3-1.9,0.9-3,1.5c-2.7,1.5-4,1.1-4,4.7
	c0,1,0.2,2.2,0,3.3c-0.1,0.4-0.2,0.7-0.3,1c0.6-0.2,1.3-0.4,2-0.5c6.3-1.1,10.1,4.1,9.8,9.7c-0.2,2.6-1.2,5.1-1.8,7.8
	c-0.6,2.7-2.6,4.5-2.8,7.2c-0.5,5.1,1.9,11,6,14.2c1,0.8,2.1,1.4,3.1,2.2c1.7,1.3,1.5,1.3,3.8,1.5c1.8,0.1,3.3,0.7,4.8,1.4
	c1-0.8,2-1.3,3.1-1.4c3.2-0.1,3.4,0.6,2.1-3.4c-1.2-4-2.4-9.6,1.3-12.7c3.8-3.2,11.2-7.3,15.8-8.9s13.6-2.5,17.1-2.8
	s5.5-1.2,8.6-0.4c3.1,0.8,3.6,2.6,7.5,3.3c0.9,0.2,2.3,0.2,3.2,0.5c1.3,0.4,1.3,0.8,1.6,1.9c0.7,2.2,3.1,1.8,3.8,4
	c0.5,1.5,0.7,3.1,1.4,4.6c0.6,1.3,1.6,1.8,2.4,2.7c1.7,1.9,1,4.9,0.6,7.2c-0.3,1.4-0.8,2.7-1,4.1c-0.2,1.5,0.2,1.7,1.6,2
	c1.9,0.4,4.1,0.5,5.9-0.3c1.1-0.5,1.8-1,1.8-2.3s-0.7-1.3-1.3-2.3c-1.6-2.6,0.8-6.2,3.6-7.8c1.1-0.6,1.5-1.7,2.3-2.7
	c0.8-0.9,1.8-1.6,1.6-2.9c-0.3-1.6-5.1-4.7-7.8-6.2c-0.7-0.4-0.9-1.2-1.4-1.8c-0.6-0.6-1.7-1.1-2.1-1.9c-0.7-1.7,1.6-3.1,1.7-4.9
	s-2.5-8.3-1.9-9.8s2.2-1.2,3.4-2c1.2-0.9,2.8-6,4-7.4c1.5-1.8,3-3.9,5.2-5.1c1.9-1,3.4-2.5,5.1-3.7c1.6-1.2,3.4-1.8,5.1-2.6
	c0.6-0.3,0.8-0.5,0.9-0.8C117,38.8,114,38.2,111,37.7z"/>
</svg>
