<?xml version="1.0" encoding="utf-8"?>
<!-- Generator: Adobe Illustrator 28.0.0, SVG Export Plug-In . SVG Version: 6.00 Build 0)  -->
<svg version="1.1" id="_レイヤー_2" xmlns="http://www.w3.org/2000/svg" xmlns:xlink="http://www.w3.org/1999/xlink" x="0px"
	 y="0px" viewBox="0 0 120 120" style="enable-background:new 0 0 120 120;" xml:space="preserve">
<style type="text/css">
	.st0{fill:#D7323A;}
</style>
<path class="st0" d="M117,39.8c-1-0.1-2,0.1-2.9-0.1c-1.4-0.4-1.3-0.8-2.2-2c-1.5-1.8-3.2-2.5-1.3-4.7c0.8-0.9,1.4-0.4,1.3-2
	c-0.1-1.1-0.7-1.6-1.7-2.1c-1.8-0.9-4.1-0.1-5.8-0.9c-1.9-1-0.8-2.4-1.1-4.4c-0.2-1.1-0.9-1.7-1.2-2.7c-0.2-0.7,0.1-1.9-0.2-2.5
	c-0.6-1-4.1-2.4-5.4-1.9c-2.1,0.9-0.3,3.1-3.6,2.8c-0.8-0.1-2.3-0.1-3-0.6c-0.8-0.5-1-1.6-1.9-2.1c-1.3-0.8-1.6,0.1-3,0
	c-1.4,0-2.1-0.8-3.4-1.1c-2-0.3-3.9,0.3-5.5-1.3c-1-1-0.9-1.8-0.5-2.6c-0.6,0.2-1.3,0.5-2,0.6c-1.6,0.3-3.3,0.3-5.1,0.3
	c-1.7,0-2.8,0-3.8,1.3c-1.3,1.6-1.4,1.7-3.7,1.7c-0.8,0-1.7-0.1-2.6,0c-0.9,0.1-1.2,0.6-2,0.8c-1.8,0.4-2.4-0.8-4.1,0.4
	c-0.8,0.5-1.2,0.9-2.2,0.8c-0.9-0.1-1.2-0.5-2-0.7c-2.1-0.4-2,1.2-2.8,2.4c-1.1,1.8-2.2,0.1-3.9,0.7c-2.4,0.8-2.3,4.9-3.8,6.4
	c-0.9,0.9-1.4,1.1-1.9,2.4c-0.4,1.1-0.5,2.1-1.7,2.5c-1.9,0.7-2.1,0.3-1.5,2.5c0.3,1.2,0.4,1.3-0.8,2c-1,0.6-1.7,0.7-1.3,2
	c0.3,1,1.2,1.3,1.3,2.4c0.1,1-0.7,1.9-1.4,2.5c-0.8,0.9-1.6,1.7-2.3,2.6c-1.8,2.4-7.1,1.3-9.7,1c-1.1-0.2-2.9-0.8-3.9-0.1
	c-1.6,1.1-0.3,2.8,0.4,4c0.9,1.4,0.6,3.3,1.9,4.5s3.2,0.6,3.5,2.5c0.7,3.8-3.6,4-6.2,5c-1.6,0.6-2.6,1-2.6,2.7
	c0,1.8,0.4,2.6-1.3,3.7c-1.2,0.8-2.2,1.9-3,3.1c-1,1.4-1.3,2.3-3.1,1.1c-0.8-0.5-2.6-3.8-3.8-2.2c-0.6,0.7,0.4,3,0.7,3.7
	c0.5,1.2,1.7,1.3,2.3,2.3c0.4,0.8,0,2.9,0.1,3.9c0.4,2.6,2.1,5.1,1.3,7.9c-0.4,1.7-1.9,2.7-3,3.8c-0.1,0.1-0.2,0.2-0.3,0.3
	c1.1,0,2.5,0.1,4.3,0.6c5.8,1.6-2.4,5.1-3.3,6.8c-1.5,3-0.9,4.7,1.3,2.8c0.1-0.1,3.3-0.3,5.3,2.1c2.2,2.6,3.5,0.7,6.9-0.5
	c3.5-1.2,2.4-1.1,4.2-0.5c1.8,0.5,2.9,0.9,4,2.6c1.1,1.8,2,2.5,4,1.2c2-1.2,0.2-3.2-1.5-4.6c-1.6-1.4-2.9-2.6-3.3-4.7
	s0.9-1.4,2.5-1.9s2.2-1.4,1.6-3.2c-0.5-1.8-1.1-3-0.4-5.3s1.1-4.2,3.3-4.7s3.3,0.9,3.5-0.2s0-1.9,1.5-3.9c1.5-1.9,2.5-3.7,4.9-6.1
	c2.4-2.5,3.6-4.6,4.7-6c1.1-1.4,0.2-4.7,0.2-8.1c0-3.3,0.9-3.7,2.4-4.9s4.2-1.8,9.1-3.7s9.5-5.1,13.6-7c4.2-1.9,10-1.8,12-0.9
	c2,0.9,8.4,1.9,10.7,2.5c2.4,0.5,2,2.5,2.4,4c0.4,1.6,3.8,0.7,5.5,3.5c1.6,2.8,5.5,6.3,8.6,9.7c3.1,3.3,3.1,2.5,3.1-0.7
	s2.9-13.2,4.2-15.3c0.7-1.2,2.1-3,3.4-4.6C119.2,40.6,118.3,40,117,39.8z"/>
</svg>
