<?xml version="1.0" encoding="utf-8"?>
<!-- Generator: Adobe Illustrator 28.0.0, SVG Export Plug-In . SVG Version: 6.00 Build 0)  -->
<svg version="1.1" id="_レイヤー_2" xmlns="http://www.w3.org/2000/svg" xmlns:xlink="http://www.w3.org/1999/xlink" x="0px"
	 y="0px" viewBox="0 0 120 120" style="enable-background:new 0 0 120 120;" xml:space="preserve">
<style type="text/css">
	.st0{fill:#D7323A;}
</style>
<path class="st0" d="M119.5,57.9c-0.5-1-1.9-1.5-2.3-2.6c-0.8-2.4,0.5-4.1-1.4-6.3c-1.6-1.9-2.9-3.4-3.8-5.9c-0.8-2.4,1-3.8,0.1-6.2
	c-0.2-0.4-0.9-1-1.1-1.5c-0.2-0.4,0-1-0.2-1.5c-0.4-0.9-1.3-1.7-2.3-2.4c-1.6,0.4-3.2,0.8-4.5,1.2c-3.8,1.1-3.9,3.6-7.9,5.2
	c-3.9,1.6-8.9,3-14.8,2.7s-11,0.8-18.1,1.9c-7.1,1.1-15.5-0.5-20.7-1.7c-5.3-1.3-7.7,0.5-11.2,1.6s-3.5,2.2-4.3,3.7
	c-0.8,1.4-1.3,1.4-4.9,0.6c-3.6-0.8-6.4-1.1-9.7-4.4c-3.1-3.2,0.4-4.2,2-5.1c-2.3,0-4.4-0.2-6.2,1C6,39.8,5.7,42,7.7,44.1
	c3.2,3.2,10,5.2,8.9,10.8c-0.4,2.3-1.7,3.7-1.7,6.3c0,2.7,1.2,5-1.9,5.8c-2.6,0.7-4.2,1-6.7,2.3c-1.1,0.6-2.2,0.5-2.9,1.6
	c-1.3,2,0.4,1.8,1.1,3c3.1,4.7-8.2,7.4-3.5,11.9c1.4,1.3,5,0.6,6.8,0.8c2.1,0.2,3.8,0.6,5.3,1.9c0.4-0.6,0.8-1.3,1-2
	c0.9-2.5,1.2-3,4.2-3.2c1.8-0.1,1.5-0.8,2.7-1.4c0.8-0.4,2.1,0.3,2.9,0c2-0.9,0.4-3.1,0.2-4.5c-0.5-2.7,1.6-2.2,3.9-2.1
	c1,0,2.2,0.1,3.1,0c1.5-0.2,1.2-0.3,2.1-1.4c0.6-0.8,1.3-0.7,1.2-2c-0.1-0.8-1.5-1.5-1-2.4s2-0.5,2.8-0.7c1-0.3,1.9-1,2.3-1.9
	c0.7-1.6-0.2-3.6,0.4-5.1c0.7-1.8,3.3-2.5,5.1-2.4c3.9,0.1,9.7,0.4,12.8,2.9c0.7,0.5,1.6,1.6,2.1,2.2c0.6,0.7,0.6,1.8,1.3,2.4
	c2.3,1.8,3-0.6,3.8-2.1c1.1-2.1,2.9-1.1,4.8-2c2-0.9,1.4-2.9,3.5-4c0.9-0.5,4.1-1.5,4.9-0.4c0.4,0.6-0.5,2.9-0.4,3.8
	c4,0.2,11.5-0.1,12.1,5.2c0.1,0.8-0.2,1.8,0,2.6c0.2,0.9,0.9,1.5,1.2,2.5c0.5,2.1-0.8,3.6,2.5,3.1c1.3-0.2,1.2-0.2,2.1-1.1
	c1.1-1.1,1.7-1.2,3.4-1.6c2-0.4,4.5,0.2,6.4-0.3c2.1-0.6,3-3.3,5.4-3.6c1.2-0.2,1.9,0.4,2.7,1.1c0.7,0.1,1.5,0.2,2.1,0
	c1.4-0.3,2-1.4,2.8-2.3c2-2.1,2.3-3.5,2.4-6.3C120,60.1,120.1,59.1,119.5,57.9z"/>
</svg>
