<?xml version="1.0" encoding="utf-8"?>
<!-- Generator: Adobe Illustrator 28.0.0, SVG Export Plug-In . SVG Version: 6.00 Build 0)  -->
<svg version="1.1" id="_レイヤー_2" xmlns="http://www.w3.org/2000/svg" xmlns:xlink="http://www.w3.org/1999/xlink" x="0px"
	 y="0px" viewBox="0 0 120 120" style="enable-background:new 0 0 120 120;" xml:space="preserve">
<style type="text/css">
	.st0{fill:#D7323A;}
</style>
<path class="st0" d="M97,72c0-0.3-0.3-1.2-0.5-1.3s-0.5-0.4-0.6-0.6c-0.1-0.1-1.3-1.4-1.5-1.6s-0.4-0.4-0.6-0.2
	c-0.2,0.1-0.1,0.3-0.5,0.1c-0.4-0.2-0.8-0.3-1-0.4c-0.1,0-0.2-0.1-0.2-0.1c0-0.1,0-0.1,0.1-0.3c0.1-0.3,0.6-1.3,0.7-1.5
	s-0.1-2.8-0.1-2.8s-0.9-0.7-1.3-1s-1-1-1.2-1.1s-1.1-0.8-1.2-1.1s0.1-0.5,0.4-0.7c0.3-0.3,1.1-0.6,1.2-1.1c0-0.4,0.1-2.9,0.1-2.9
	s-0.2-0.5-0.3-0.8c-0.1-0.2-0.1-0.3-0.1-0.4c-0.1-0.4,0.1-0.5,0.5-1c0.3-0.4,0.9-1.2,1.2-2c0.3-0.8,0.4-1.3,0.4-1.9
	c0.1-0.6,0.4-1.9,0.6-2.6c0.3-0.7,0.5-1.1,0.5-1.3s-0.3-0.1-0.5-0.1c-0.3,0-0.5,0.1-0.5-0.4s0.1-1.8,0.1-1.8s0-0.3,0.6-0.3
	s1.1,0,1.4-0.3s1.2-1.5,1.3-1.8c0.1-0.2-0.1-0.6-0.6-1c-0.4-0.4-2.6-2.5-2.8-2.8c-0.2-0.3-0.4-0.6,0.1-0.8c0.4-0.2,0.4-0.4,0.3-0.8
	c-0.1-0.3,0.4-0.9,0.6-1.5c0.3-0.6,0.3-1,0-1.6c-0.3-0.6,0-1.2-0.3-1.5c-0.2-0.4-0.7-0.4-1-0.5c-0.3,0-0.5,0-1.3-1.1s-1.2-1.3-0.9-2
	c0.2-0.8,0.9-2.9,1.3-2.7c0.4,0.2,0.5,0.1,0.4-0.1s-0.4-0.7-0.5-0.9c-0.1-0.2,0-0.6,0.1-0.9s0-0.4-0.5-0.4c-0.4,0-1.1,0.1-1.5-1
	c-0.5-1.1-0.9-2.8-1.2-2.8c-0.3-0.1-0.6,0.1-0.8,0.4c-0.2,0.3-0.5,1.4-0.7,1.8c-0.2,0.3-0.3,0.2-0.5,0.4c-0.2,0.2-0.4,0.4-0.6,0.5
	c-0.1,0-0.1,0-0.2,0c-0.2,0-0.4-0.2-0.5-0.6c-0.2-0.5-0.2-0.9-0.6-1.2c-0.4-0.3-0.7-0.4-0.9,0c-0.3,0.4-0.5,0.9-0.6,0.9
	s-0.2-0.3-0.2-0.6c0-0.3,0.2-1.8,0.3-2.6c0.1-0.7,0.3-2.2,0.3-2.5c0-0.4-0.4-1.5-0.5-1.9c-0.2-0.4-0.3-1,0.1-1.3s0.3-0.5,0.1-0.8
	c-0.2-0.4-0.2-0.7-0.8-0.6c-0.6,0.1-1.3,0.2-1.8,0.2c-0.4,0-0.7,0.1-1.1-0.7c-0.5-0.8-0.6-1.4-0.7-1.6c0-0.2,0-0.7-0.2-1
	c-0.2-0.4-0.2-0.7-0.1-0.9C78.3,6,78,5.8,77.8,5.5s-0.8-1-1.3-1.1c-0.4-0.1-1.6-0.5-1.7-0.5s-0.9-0.8-1.4-0.8S72.7,3,72.5,2.9
	s-0.7-0.1-0.9-0.1c-0.2,0-0.4,0-0.8-0.3c-0.3-0.3-0.5-0.2-0.5-0.2s-0.5-0.2-0.7-0.7c-0.2-0.3-1.1-1.2-1.1-1.2S68.4-0.1,68,0
	s-1,0.2-1.2,0.1c-0.2,0-0.5,0.1-0.4,0.3c0,0.2,0,0.4-0.2,0.3s-0.5-0.2-0.7-0.3s-0.7,0-0.9,0.3c-0.2,0.3-0.4,0.8-0.7,1.5
	s-0.8,1.6-0.9,2c-0.1,0.4-0.1,0.4,0.1,0.5c0.3,0.1,1.1,0.4,1.2,0.7c0.1,0.3,0.3,1.4,0.6,2.5c0.3,1.2,0.5,2,0.8,2.5s1.2,2.2,1.4,2.7
	c0.2,0.5,0.3,0.6,0.2,0.9c-0.1,0.2-0.6,1.7-0.7,2.1s0,1.4,0,1.8c0,0.3,0.1,0.3-0.6,0c-0.6-0.3-1.3-0.6-1.4-0.6
	c-0.1-0.1-0.2,0.1-0.3,0.2c-0.1,0.1-0.2,0-0.4-0.2c-0.2-0.2-0.5-0.2-0.6-0.2s-0.9,0-1.4-0.1s-0.7-0.6-0.8-0.8
	c-0.1-0.2-0.2-0.4-0.3,0.1s-0.4,1.4-0.5,1.8s-0.2,1.9-0.2,2.4C60,21,59.9,21.9,60,22.3s0.1,0.8-0.3,0.6l0,0
	c-0.4-0.2-1.2-0.9-1.7-1.1s-0.7-0.1-0.8,0.1s-0.8,1.3-1,1.5s-0.8-0.1-1.1-0.4c-0.3-0.2-0.6-0.5-0.8-0.6s-0.4,0-0.8,0.2
	c-0.4,0.1-0.7,0.3-1.1,0.3c-0.4,0-0.8,0-0.9,0.1c-0.1,0.1,0,0.2,0,0.3c0,0.1-0.2,0.5-0.3,0.9c-0.2,0.4-0.3,1-0.5,1s-0.4,0.1-0.6,0.4
	c-0.2,0.4-0.3,0.5-0.3,0.8c0,0.2,0,0.7,0,0.7s0,0.2-0.2,0.5s-0.5,0.4-0.8,0.5c-0.2,0-1.4,0.1-1.4,0.1s-0.6,0.4-0.7,0.5
	c-0.2,0.1-0.4-0.3-0.6-0.6c-0.2-0.2-0.9-1.1-0.9-1.1s-0.2-0.2-0.4-0.1c-0.2,0-0.4,0-0.4,0s-0.7-0.5-0.8-0.6s-0.1-0.5-0.2-0.8
	c-0.1-0.4-0.4-1-0.8-1.2c-0.4-0.2-0.4,0-0.4,0.2s-1.1,3.2-1.1,3.2s-0.2,0.4-0.4,0.5s-0.4,0.7-0.5,1c-0.1,0.4-0.5,1.8-0.5,1.8
	s-0.1,0.8-0.2,1.1c-0.1,0.3-0.2,0.7-0.4,1.4s-0.3,0.9-0.2,1.3c0.2,0.4,0.3,0.7,0.4,1.1c0.1,0.3,0,0.3-0.3,0.4
	c-0.2,0.1-0.5,0.2-0.7,0.4c-0.3,0.2-1.2,0.9-1.3,1.1c-0.1,0.2-0.1,0.6-0.1,0.9c0,0.4,0,1-0.2,1.2c-0.3,0.2-0.6,0.2-1.2,0.5
	c-0.6,0.4-1,0.6-1.6,0.4c-0.6-0.1-0.7-0.3-0.8-0.6c0-0.3-0.3-1.3-0.4-1.4c-0.1-0.1-0.6-0.1-0.9-0.1c-0.3,0-2.9-0.2-2.9-0.2
	s-0.3-0.1-0.4,0.3c-0.1,0.4-0.4,2.4-0.5,2.9s-0.4,0.7-0.5,0.7s-0.5-0.1-0.9-0.2c-0.4-0.1-0.7-0.2-0.6,0.1s0.1,0.4-0.3,0.7
	s-0.8,0.8-1,1.1s-1,1.8-1,2c-0.1,0.2-0.4,0.9-0.4,1c0,0.2,0.1,0.2,0.5,0.4s0.9,0.4,1.1,0.4s0.4,0.3,0.5,0.5s0.8,1.6,1,1.8
	s1.4,0.7,1.7,0.9c0.3,0.2,0.3,0.6,0.3,0.8s0.1,0.5,0.2,0.8s0.8,1.6,1,2.1s0.5,1.1,0.7,1.2c0.2,0.1,1,0.3,1,0.2s0-0.4,0.2-0.5
	c0,0,0.5-0.2,0.8-0.4s0.3-0.1,0.6-0.5s0.4-0.4,0.4-0.4c0.1,0.1,0.1,0.3,0.1,0.6c0,0.2-0.1,0.3-0.2,0.5c-0.1,0.1-0.2,0.2-0.2,0.4
	c-0.2,0.3-0.2,0.5-0.1,0.6c0.1,0.1,0.1,0.2,0,0.2c0,0.1-1.2,1.2-1.2,1.2v0.5c0,0-0.2,0.3-0.2,0.4c-0.1,0.1,0.1,0.2,0.2,0.3
	s-0.1,0.4-0.3,0.7c-0.2,0.2-0.5,0.7-0.5,0.9s-0.1,1.6-0.1,1.6s0,0.4,0,0.5c-0.1,0.1-0.6,0.5-0.6,0.6s0,0.2,0.1,0.3
	c0,0.1,0.3,0.8,0.4,1.4s0.6,2.4,0.6,2.8c0.1,0.4,0.3,1.6,0.4,1.9s0.3,0.9,0.8,1.3s0.7,0.5,0.7,0.6s-0.1,0.4-0.2,0.7
	c-0.1,0.2-0.6,1.3-0.7,1.4c-0.1,0.1,0,1.3,0,1.3s0,0.3-0.1,0.6c-0.1,0.3-0.8,2.7-0.8,2.7S31,79.5,31,79.8s-0.1,0.3,0,0.4
	s0.3,0.5,0.3,0.5s0,0.3-0.1,0.4l-0.8,1.8v1.9c0,0,0.1,0.5-0.2,0.5c-0.3,0.1-0.6,0-1.1,0.3s-0.7,0.5-0.7,0.6s0.2,0.2,0.3,0.4
	c0.1,0.2,0.5,0.6,0.7,1.2c0.1,0.5,0.3,1,0.4,1.3s0.4,0.2,0.6,0.2s0.2,0.1,0.3,0.3c0,0.2,0,0.8,0,0.8s0.1,0.4-0.3,0.3
	s-0.9-0.3-1.1-0.3s-0.3,0-0.2,0.2c0.2,0.2,0.3,0.4,0.5,0.5s0.4,0,0.6,0s0.3,0,0.4,0.3c0.1,0.4,0.2,0.7,0,0.9c-0.1,0.2,0-0.2-0.2-0.1
	S30,93,30,93.2s0.1,0.3,0.5,0.3s1.2-0.1,1.4-0.1s0.3,0.2,0.3,0.5c0,0.4,0.3,0.5,0.5,0.5s0.2,0.1,0.2,0.3c-0.1,0.2-0.2,1.2-0.2,1.2
	c0,0.1,0.1,0.4,0.3,0.6c0.2,0.3,0.4,0.8,0.8,1c0.4,0.3,1.1,0.5,1.2,0.9c0.2,0.4,0.2,1,0.3,1.4c0,0.5,0,0.8,0,0.8
	c0,0.1-0.3,0.6-0.6,0.8c-0.3,0.3-0.4,0.4-0.4,1c0,0.5-0.1,1-0.1,1.3s-0.1,0.4-0.4,0.8c-0.3,0.3-0.4,0.6-0.4,0.9
	c0.1,0.3,0.2,0.8,0.8,1.2c0.6,0.4,1.1,0.7,1.5,0.9c0.5,0.3,0.4,0.2,0.4,0.4c0,0.2-0.2,0.5,0.2,0.7s0.9,0.5,1.3,0.4
	c0.4-0.1,1-1.1,1.2-1.4s0.4-0.4,0.9-0.5s0.8-0.1,1.1-0.4c0.4-0.3,0.7-0.4,0.8-0.4c0.2,0,0.3,0.1,0.3,0.4c0,0.1,0.1,0.6,0.2,1.3
	c0.1,1.2,0.4,2.7,0.4,3c0.1,0.5,0.2,0.7,0.7,0.6c0.4-0.1,0.9-0.2,1.1-0.2c0.2,0,1,1,1,1.1s-0.1,0.3-0.1,0.6c0,0.3,0.7,0,1-0.1
	s0.9-0.3,1.5-0.4c0.6-0.2,0.6-0.3,0.9-0.1c0.2,0.2,0.3,0.3,0.2,0.6c-0.1,0.3-0.1,0.7,0.1,1.2c0.2,0.5,0.5,0.7,0.8,0.6
	s0.5-0.2,0.6-0.1c0.2,0.1,1.1,0.8,1.1,1.1c0.1,0.2,0.2,0.4-0.1,0.6c-0.2,0.2-0.8,0.4-1,0.5s-0.4,0.4-0.4,0.6
	c-0.1,0.2-0.1,0.8-0.3,1.1c-0.2,0.3-0.1,0.5,0.1,0.4c0.2-0.1,0.5-0.2,0.4,0.1c0,0.3,0.1,0.3,0.3,0.3c0.2-0.1,0.4-0.1,0.6-0.1
	c0.2,0,0.4,0,0.9-0.4s0.7-0.5,0.8-0.6s0.2-0.1,0.4,0s0.3,0.1,0.5-0.1s0.3-0.3,0.4-0.2c0.1,0.1,0.3,0.3,0.5,0.2
	c0.2-0.1,1.4-0.8,1.7-1c0.4-0.2,0.9-0.2,1.1-0.4c0.2-0.2,0.2-0.2,0.4-0.6s0.2-0.7,0.1-1.1c-0.1-0.4-0.4-0.9-0.5-1.2
	c-0.2-0.3-0.2-0.5,0.1-0.4s0.6,0,0.8-0.2c0.3-0.2,0.6-0.5,0.9-0.9c0.2-0.4,0.4-0.9,0.4-1c0.1-0.1,0.5-0.5,1-0.8s1-0.5,0.8-0.6
	s-0.3-0.4-0.3-0.7c0-0.4,0-0.6-0.5-0.5s-0.7,0.3-1,0.3s-1-0.2-1.5-0.4c-0.5-0.2-1.2-0.4-1.1-0.8c0.1-0.4,0.3-0.4,0.2-0.7
	c-0.1-0.3-0.2-0.8,0-0.8s0.5,0.5,0.8,0.2c0.3-0.2,1.2-1.2,1.4-1.5c0.3-0.3,0.4-0.5,0.6-0.2c0.1,0.3,0.4,1.1,0.8,1.5
	c0.4,0.4,0.9,0.8,1.1,0.8c0.2,0,0.4-0.4,0.6-0.6c0.1-0.1,0.2-0.1,0.5,0.1c0.3,0.3,0.5,0.5,0.7,0.5s0.6-0.4,1-0.5c0.4,0,1.7,0,1.9,0
	c0.2,0,0.4-0.1,0.5,0.1c0.1,0.3,0.1,0.8,0.4,1s1.8,1,4,1.7s3.3,0.8,3.4,0.8c0.2-0.1,0.7-0.2,1.7-1c1-0.7,1.3-1,1.4-1
	s0.4,0.4,0.7,0.4c0.3,0,0.5-0.3,0.7-0.4s1-0.4,1.6-0.7c0.6-0.4,0.6-0.5,0.7-0.9c0.1-0.3,0.5-0.6,1.1-0.6c0.5,0,2.2-0.7,2.7-0.8
	c0.4-0.2,0.6-0.1,0.9-0.4c0.3-0.4,0.4-0.3,0.7-0.5c0.3-0.2,0.3-0.7,0.3-1.1s0.2-1.1,0.5-1.3c0.3-0.2,0.2-0.9,0.2-1.1
	s-0.1-0.6,0.4-1.4s0.8-1.4,1.3-1.4s0.5,0.1,0.9-0.5s1-1.9,1.3-2.4s0.8-0.9,0.8-1.2c0-0.3,0-0.9-0.1-1.2c-0.1-0.3,0-0.3,0.3-0.6
	c0.3-0.3,0.3-0.2,0.2-0.6c-0.1-0.3-0.2-1.3-0.2-1.9c0-0.3-0.1-0.5-0.1-0.5c0-0.2,0.1-0.3,0.3-0.7c0.2-0.4,0.2-0.5,0-0.6
	s-0.4-0.2-0.4-0.6c0-0.3,0.2-1.4,0.2-1.6c0.1-0.3,0.7-0.9,1.1-1.2c0.4-0.4,1-0.8,1.1-1s0.1-0.3,0-0.5c0-0.2-0.3-1.3-0.4-1.4
	c-0.1-0.2,0-0.4,0.2-0.6s0.5-0.4,0.5-0.8s-0.1-2-0.2-2.5s-0.1-0.7,0.2-1c0.3-0.3,0.6-0.6,0.6-0.8c0.1-0.1-0.5-0.4-0.8-0.6
	s-0.5-0.2-0.4-0.7s0.6-1.5,0.7-1.7s0.5-0.4,0.8-0.6C97.1,72.6,97,72.3,97,72z M78,45c0,0.1,0,0.8-0.1,1.5c0,0.8-0.1,1.6-0.2,1.8
	c-0.2,0.4-0.4,0.8-0.7,1.8c-0.3,1-0.8,1.9-1.1,2.7c-0.1,0.3-0.2,0.5-0.3,0.6c-0.1,0.2-0.1,0.2,0,0.4c0.1,0.4-0.1,0.4-0.8,1.1
	c-0.7,0.7-1.9,1.6-2,1.7c-0.1,0.1-1.4,0.8-2,1.7s-1.2,1.1-2.4,1.8c-1.2,0.7-2.3,1.3-2.6,1.7c-0.3,0.3-1,1.1-2.4,1.5
	s-2.6,0.7-2.9,0.8h-0.1c-0.2,0.1-0.3,0.2-0.3,0.4c0,0.2-0.1,0.7-0.2,0.9c-0.1,0.1-0.7,0.5-1.1,0.7c-0.2,0.1-0.4,0.2-0.4,0.2
	c-0.2,0-0.2-0.2-0.4-0.5s-0.3-0.1-0.5,0.2c-0.2,0.3-0.4,0.4-0.3,0.5c0.1,0.1,0.3,0.1,0.6,0.3c0.2,0.2,0.4,0.2,0.3,0.3
	c-0.3,0.2-0.3,0.6-0.5,0.6c-0.1,0-0.5,0-0.7,0s-0.4-0.3-0.7-0.1c-0.3,0.2-1.4,1.6-1.4,1.6s-0.2,2.1-0.2,2.4c0,0.2,0.1,0.4,0.2,0.4
	c0.1,0,0.4,0,0.4,0.2s-0.2,1.1-0.3,1.3c-0.1,0.2-0.5,0.5-1.2,0.5c-0.8,0-2.4-0.6-2.8-0.6c-0.3,0-1,0.6-1,0.8c0,0.1,0,0.2-0.1,0.3
	c0,0.1-0.1,0.3-0.1,0.3s-0.7,0.1-1,0s-1.4-0.9-1.6-1c-0.2-0.1-1.3,1.9-1.3,1.9s-0.1,0.1-0.2,0.3c-0.2,0.3-0.4,0.7-0.5,0.7
	c-0.2,0-1.1-0.3-1.6-0.5C43,76,43,75.8,42.9,75.9s-0.7,0.7-0.8,1s-0.6,2.7-0.5,2.9c0.1,0.2,0.2,0.5,0.3,0.7c0,0.2,0.2,0.6,0.3,0.8
	c0.2,0.2,0.5,0.6,0.7,0.7c0.2,0.2,0.3,0.2,0.1,0.5c-0.2,0.2-0.4,0.5-0.7,0.6c0,0,0,0-0.1,0c-0.3,0.1-0.4-0.1-0.7-0.2s-0.5,0-0.4,0.1
	c0.1,0.2,0.4,0.6,0.5,0.8c0.1,0.2,0.1,0.3-0.1,0.5c-0.2,0.2-0.4,0-0.6,0.1c-0.2,0.1-2,2.6-2.3,2.9s-0.3,0.5-0.2,0.6s0.2,0.2,0.3,0.3
	c0.1,0.1,0.3,0.2,0.2,0.3c-0.1,0.1-0.2,0.2,0,0.4C39.1,89,39,89.8,39,90s0.1,0.5,0.4,0.7c0.3,0.2,0.2,0.4,0.1,0.8
	c-0.1,0.4-0.2,0.7-0.6,1c-0.3,0.2-0.6,0.6-0.7,0.9c0,0.1,0,0.1,0,0.2c0,0.2,0.2,1.4,0.1,1.5c0,0.1-0.4-0.1-0.8-0.5
	c-0.4-0.4-0.5-0.9-0.6-1.2c-0.1-0.3-0.3-0.6-0.3-0.9c0-0.2,0-0.2-0.3-0.3c-0.3-0.1-1.5-0.4-1.8-0.6s-0.9-0.7-1-0.8
	c-0.1-0.1-0.2-0.2-0.1-0.4c0.1-0.2,0.4-0.8,0.5-1.1c0.1-0.4,0.1-0.6,0.2-1.4c0.1-0.7,0.2-1.1,0.5-1.5c0.2-0.4,0.3-0.6,0.5-1
	c0.1-0.3,0.5-1,0.7-1.3s0.4-0.7,0.4-0.8c0-0.2,0-0.4,0.1-0.6s0.5-0.8,0.5-1s0.2-0.4,0.3-0.5s0.4-0.2,0.7-0.5s0.6-1,0.4-1.1
	c-0.2-0.1-0.3-0.3-0.2-0.4s0.5-0.3,0.8-0.3s0.4,0.1,0.5-0.1s0.9-1.6,1-1.8c0.1-0.2,0.4-0.7,0.4-1s-0.4-0.9-0.6-1.3
	c-0.1-0.4-0.1-0.5,0-0.8s0.7-1.2,0.8-1.6c0.2-0.4,0-0.4-0.5-1s-0.5-0.7-0.7-1s-0.4-1.1-0.4-1.3c0-0.2-0.2-0.6-0.1-0.9
	c0.1-0.3,0.8-1.8,0.9-2.1c0.2-0.3,0.3-0.5,0.5-0.5s0.3,0,0.4-0.1c0.2-0.1,0.2-0.3,0.7-0.9c0.4-0.6,0.3-0.6,0.6-0.9
	c0.4-0.3,1.1-0.8,1.5-1c0.3-0.3,0.2-0.4,0.1-0.9c-0.1-0.4-0.1-0.8,0-0.9c0.2-0.1,0.5-0.5,0.9-0.8c0.3-0.3,0.5-0.9,1.2-1.4
	c0.4-0.3,0.8-0.6,1.2-1c0.3-0.3,0.6-0.5,0.9-0.7c0.6-0.4,1-0.5,1.5-0.8s0.2-1.2,0.2-1.9s0.5-1.1,0.7-1.2c0.2-0.1,0.4-0.2,0.8-0.3
	c0.4-0.1,0.7-0.2,0.9-0.1c0.2,0.1,0.4,0.2,0.9-0.4c0.6-0.5,1.5-1.3,2-1.4c0.4-0.1,0.9,0.2,1,0.1c0.1-0.1,0.2-0.4,0.2-0.7
	s0.1-0.5-0.1-0.8c-0.1-0.3-0.6-1.1-0.7-1.4c-0.1-0.3-0.3-1.8-0.3-2c0-0.1-0.7-1-0.7-1s-1.3-1.5-1.5-1.6s-0.8-0.3-0.9-0.5
	c-0.1-0.2-0.4-1-0.4-1.4s0.3-1.8,0.4-2.1c0.1-0.3,0.5-0.2,0.7-0.3c0.1-0.1,0.2-0.4,0.2-0.6c0-0.2,0-1.1,0-1.4s-0.1-0.6-0.2-1
	c-0.1-0.3-0.2-0.8-0.2-0.9c0-0.1,0.4-0.6,1-1.2c0.5-0.6,1-1.1,1.2-1.5c0.3-0.3,1-0.8,1.2-1s0.4-0.2,0.5-0.2c0.1,0.1,0.4,0.7,0.5,0.9
	s0.5,0.9,0.6,0.9c0.2,0,0.7-0.1,0.8-0.1s0.5,0,0.6-0.3c0-0.1,0.2-0.5,0.3-1.1c0.3-1,0.7-2.3,0.8-2.6c0.1-0.4,0.3-0.5,0.6-0.8
	s0.3-0.2,0.4-0.1c0.1,0.1,0.2,0.3,0.4,0.3s0.4-0.2,0.5-0.1s0.2,0.4,0.4,0.6c0.2,0.3-0.1,0.3-0.4,0.2c-0.3-0.1-0.4,0.4-0.5,1
	s-0.1,1.1,0,1.2s0.3,0,0.2,0.2c0,0.2-0.1,0.3,0.2,0.3s0.7-0.1,1-0.2c0.3,0,0.3,0,0.5,0.3c0.1,0.3,0,0.7-0.1,1.1s0.2,0.4,0.3,0.5
	s0.3,0.2,0.4,0.1c0.2-0.1,0.2-0.4,0.6-1c0.4-0.7,0.5-1.2,0.5-1.4c0-0.2-0.3-0.1-0.5-0.2c-0.2,0-0.4-0.8-0.5-1.1
	C64,29.5,64,29.3,64.3,29s1.1-1.1,1.1-1.3c0-0.2-0.1-0.4-0.2-0.7c0-0.3,0.2-0.7,0.4-0.9c0.2-0.3,0.2-0.3,0-0.6
	c-0.2-0.3-0.2-0.8-0.2-1.2c0.1-0.4,0.3,0,0.3,0s0.3,0.8,0.7,1.3c0.4,0.6,0.4,0.6,0.5,0.5c0.2-0.1,0.3-0.3,0.6-0.5
	c0.3-0.2,0.6,0.5,0.8,0.9c0.2,0.4,0.2,0.6,0.2,0.6s0,1.4,0.1,1.9c0,0.5,0.4,1.9,0.4,1.9s0.3,1.2,0.3,1.4s-0.3,0.2-0.7,0.5
	c-0.4,0.2-0.4,0.3-0.4,0.5s0.1,0.2,0.3,0.7c0.3,0.5,0.9,2.2,1.2,2.9c0.3,0.7,0.6,1,1,1.3s0.4,0.8,0.4,0.8s0,1.2,0.1,1.6
	c0,0.4,0.3,0.3,0.5,0.3s1.9,0.2,2.3,0.3c0.5,0,0.7,0.1,0.9,0.2c0.2,0.1,1,1.1,1,1.1s0.3,0.4,0.5,0.4c0.1,0,0.2,0,0.3,0.1
	c0.1,0.1,0.5,0.5,0.9,0.8C78,44.7,78.1,44.9,78,45z"/>
</svg>
