<?xml version="1.0" encoding="utf-8"?>
<!-- Generator: Adobe Illustrator 19.2.1, SVG Export Plug-In . SVG Version: 6.00 Build 0)  -->
<svg version="1.1" id="レイヤー_1" xmlns="http://www.w3.org/2000/svg" xmlns:xlink="http://www.w3.org/1999/xlink" x="0px"
	 y="0px" viewBox="0 0 12632.8 2000" style="enable-background:new 0 0 12632.8 2000;" xml:space="preserve">
<style type="text/css">
	.st0{fill:#1D2088;}
</style>
<g>
	<path class="st0" d="M1251.4,809l-41.2-322.6c-2.7-20.5-10.2-76-16.9-108.4c-43.9,1.9-92.8,56.5-109.8,77.3
		c-29.2,36.7-64.7,88-107.7,159.9C923.5,707.2,865.8,809,865.8,809H1251.4z M1882.5,1451.7h-548.7l-43.4-338.4h-597l-191.7,338.4
		H31.6l408.1-714.4l0.3-0.6c140.8-246.5,253.6-390.4,299.1-444.5C785.3,238.9,924,98.9,1140.2,48.1c22.1-5,45.8-9.5,70.5-13
		c14.1-1.9,29.7-3.8,46-5.6l13-1.3c58.1-5.8,129.6-10.1,212.8-9.7c27.5,0.6,54.2,1,77,1.6h1c22.7,1.1,46.4,2.4,67.1,3.5
		L1882.5,1451.7z M4873,809l-41.4-322.6c-2.7-20.5-10.1-76-16.8-108.4c-43.9,1.9-92.9,56.5-109.9,77.3
		c-29.1,36.7-64.7,88-107.7,159.9c-52,92-109.7,193.7-109.7,193.7H4873z M5504.1,1451.7h-548.8l-43.5-338.4H4315l-191.7,338.4
		h-470.2l408.1-714.4l0.4-0.6c140.8-246.5,253.5-390.4,299.1-444.5c46.4-53.3,185-193.3,401.2-244.1c22-5,45.7-9.5,70.5-13
		c14-1.9,29.5-3.8,46.1-5.6l12.9-1.3c58.2-5.8,129.6-10.1,212.9-9.7c27.5,0.6,54.1,1,77,1.6h0.9c22.6,1.1,46.3,2.4,67,3.5
		L5504.1,1451.7z M3481.2,21.9l-209.8,769.5L2862.8,24.7c-23.8-2.4-46.5-3.9-63.2-4.6c-32.3-0.9-60.3-0.7-79.2-0.6h-0.1
		c-77.8,2.1-130.8,16.4-158.8,26.4c-29.8,11.6-58.8,27.3-86.1,48l-0.2,0.1l-10,8.1c-96.4,81.3-148.1,227.5-166.3,289.3
		c-2.6,9.1-5.3,18.7-8.1,28.9v0.1c-80.7,295.1-279.3,1031.2-279.3,1031.2h423.8l228.5-838.5l427.4,838.5h424L3905,21.9H3481.2z
		 M9725.4,378.7v0.1h-123.1c-142,0-207.5,8.1-257.1,20.4l-16.5,4.3l-10,2.8c-253.7,76.3-342.7,307.8-439.3,653.1l-107.2,392.3h508.5
		l46.2-196.5l0.3-0.9c26.7-112.6,49.1-196.9,67.7-260.5c1.9-6,3.9-12.4,5.9-19.6c7.3-24.4,13.9-45.6,19.9-63.6
		c38.4-105.3,84.9-152.4,107.6-170.3c43-30.7,95.1-51,176.4-51h116.9l2.9-10.4l83.8-300.3L9725.4,378.7z M8382.3,646h-35.9
		c-74.5,0-175.3,2.1-259.3,79.6c-76.9,69.9-122.5,213.2-122.5,313.5c0,22.6,2.5,47.1,7.4,71.7c26.4,110.5,136.7,110.5,146.4,110.5
		c0,0,41.4,2.9,100.8-17.2c10.2-18.2,28.8-58.9,55.7-157.9L8382.3,646z M8912.7,378.8c-15,49.7-106,355.5-178.5,625.6l-74.3,286.5
		c-14.7,59.4-28.1,112.6-41.1,161h-478.6l10.7-38l13.5-53.9c-16.7,10.2-35.8,20.6-53,27.7c0,0-303.8,136.5-539.9-2.3
		c-74.2-46.4-128.4-121.6-139.1-241.4l-0.2-2.8c-0.9-11.4-1.4-22.9-1.4-34.3c0-151.4,60-323.6,158.4-450.5l13-15.7
		c47.3-54.8,127.1-122,233.3-173.1c39.9-18.6,127.5-53.4,259.3-75.5c46.9-7.2,106.4-14.5,174.4-18.7c41-1.7,78.9-2.8,111.9-3.7
		c17.5,0,31.7-0.4,44.2-1.1c52.3-0.9,85.1-0.9,87.1-0.9C8790.1,369.4,8913,377.7,8912.7,378.8 M10770.3,646h-35.9
		c-74.4,0-175.2,2.1-259.3,79.6c-76.9,69.9-122.4,213.2-122.4,313.5c0,22.6,2.4,47.1,7.2,71.7c26.3,110.5,136.8,110.5,146.4,110.5
		c0,0,41.6,2.9,101-17.2c10.2-18.2,28.8-58.9,55.6-157.9L10770.3,646z M11300.6,378.8c-14.9,49.7-106,355.5-178.3,625.6l-74.5,286.5
		c-74.4,300.9-112.8,450.4-283.1,567.1c-91.3,63.3-259.3,137-537.9,137c-100.7,0-201.6-10.3-302.2-32.7
		c-112.8-26.6-156.3-51.2-223.3-92.3l-11.2-10l141-298.2l16.5,15.7c64.9,55.2,156.2,137,348.1,137c110.4,0,201.6-39,249.7-94.2
		c43.3-45.1,62.5-106.6,79.2-155.7l14.3-51l13.6-53.9c-17,10.2-35.8,20.6-53.2,27.7c0,0-303.7,136.5-539.8-2.3
		c-74.2-46.4-128.5-121.6-139.3-241.4l-0.3-2.8c-0.9-11.4-1.2-22.9-1.2-34.3c0-151.4,60.1-323.6,158.4-450.5l12.9-15.7
		c47.3-54.8,127.2-122,233.4-173.1c40-18.6,127.4-53.4,259.2-75.5c47.1-7.2,106.4-14.5,174.5-18.7c41.1-1.7,78.8-2.8,112-3.7
		c17.2,0,31.7-0.4,44-1.1c52.5-0.9,85.1-0.9,87.1-0.9C11178,369.4,11301,377.7,11300.6,378.8 M12119.9,742.2
		c0-79.8-38.5-130.9-113-130.9c-93.5,0-141.5,85.8-153.5,104.2c-59.9,98.5-103.2,303.1-103.2,387.1c0,34.9,0,141.3,112.9,141.3
		c124.8,0,192.1-143.4,230.4-313.3C12117.4,832.3,12119.9,752.4,12119.9,742.2 M12601.2,803.6c0,74-7.3,145.5-26.5,215.1
		c-26.4,90.1-69.6,176-110.3,229.1c-187.3,247.9-508.9,253.9-619.4,253.9c-357.7,0-576.2-151.4-576.2-456.4
		c0-163.7,69.8-362.5,199.3-495.4c170.6-169.9,396.1-194.4,554.7-194.4c163.1,0,285.6,32.6,340.9,59.3
		C12601.2,521.2,12601.2,754.4,12601.2,803.6 M6620.7,820.2c0,211,136.1,328.3,355.4,328.3c163,0,260.9-52,334.1-93.1l-102.4,355.5
		c-85.1,32.2-194.7,57.7-365.7,57.7c-507.8,0-724.7-266.3-724.7-622.4C6117.5,440.3,6412.9,5,7052.1,5c87.8,0,173.3,7.9,258.6,26
		c106.1,19.9,147.7,39.7,214.7,73.6l8.7,4.6L7428,444l-13.5-11.5c-41.5-33.7-122.3-101.4-309.1-101.4
		C6756.8,331.1,6620.7,645.3,6620.7,820.2"/>
</g>
</svg>
