<?xml version="1.0" encoding="UTF-8"?>
<svg id="_レイヤー_2" data-name="レイヤー 2" xmlns="http://www.w3.org/2000/svg" viewBox="0 0 89.01 32.71">
  <defs>
    <style>
      .cls-1 {
        fill: #030000;
      }

      .cls-2, .cls-3 {
        fill: #fff;
      }

      .cls-4 {
        fill: #f5d248;
      }

      .cls-5 {
        fill: #a5a5a5;
      }

      .cls-6 {
        fill: #c85b35;
      }

      .cls-7 {
        fill: #206bb1;
      }

      .cls-8 {
        fill: #299a72;
      }

      .cls-3 {
        font-family: 'Noto Sans JP', sans-serif;
        font-weight: 700;
        font-size: 5.69px;
        font-weight: 700;
      }
    </style>
  </defs>
  <g id="_01" data-name="01">
    <g>
      <g>
        <path class="cls-5" d="m81.22,0H7.8c-.3,0-.6,0-.9,0-.25,0-.5,0-.75.01-.55,0-1.1.05-1.64.14-.54.09-1.07.26-1.55.51-.49.25-.94.58-1.32.96-.39.39-.72.83-.96,1.33-.25.49-.42,1.01-.51,1.56-.09.54-.14,1.09-.15,1.64,0,.25,0,.5-.01.75v18.9c0,.25,0,.5.01.75,0,.55.06,1.1.15,1.64.09.54.26,1.07.51,1.56.25.49.57.93.96,1.32.39.39.83.72,1.32.96.49.25,1.01.42,1.55.52.54.09,1.09.14,1.64.14.25,0,.5,0,.75,0,.3,0,.6,0,.9,0h73.42c.29,0,.59,0,.89,0,.25,0,.5,0,.75,0,.55,0,1.09-.06,1.64-.14.54-.09,1.07-.27,1.56-.52.49-.25.94-.57,1.32-.96.39-.39.72-.83.97-1.32.25-.49.42-1.02.51-1.56.09-.54.14-1.09.15-1.64,0-.25,0-.5,0-.75,0-.3,0-.59,0-.89V7.8c0-.3,0-.6,0-.89,0-.25,0-.5,0-.75,0-.55-.06-1.1-.15-1.64-.09-.54-.26-1.07-.51-1.56-.5-.98-1.31-1.78-2.29-2.29-.49-.25-1.02-.42-1.56-.51-.54-.09-1.09-.14-1.64-.14-.25,0-.5,0-.75-.01-.29,0-.59,0-.89,0Z"/>
        <path class="cls-1" d="m6.91,31.99c-.25,0-.49,0-.74,0-.51,0-1.02-.05-1.53-.13-.47-.08-.93-.23-1.35-.45-.42-.21-.81-.49-1.14-.83-.34-.33-.62-.72-.83-1.14-.22-.43-.37-.88-.44-1.36-.08-.51-.13-1.02-.14-1.53,0-.17-.01-.75-.01-.75V6.91s0-.57.01-.73c0-.51.05-1.02.14-1.53.08-.47.23-.93.44-1.36.21-.42.49-.81.83-1.14.34-.34.72-.62,1.15-.84.43-.22.88-.37,1.35-.44.51-.08,1.02-.13,1.53-.13h.74s75.2,0,75.2,0h.75c.51.02,1.02.06,1.52.14.48.08.94.23,1.37.45.85.44,1.54,1.13,1.97,1.98.21.42.36.88.44,1.35.08.51.13,1.03.14,1.54,0,.23,0,.48,0,.73,0,.31,0,.6,0,.89v17.11c0,.3,0,.59,0,.88,0,.27,0,.51,0,.76,0,.51-.06,1.01-.14,1.52-.08.48-.23.94-.44,1.37-.22.42-.5.8-.83,1.13-.33.34-.72.62-1.14.84-.43.22-.89.37-1.36.45-.51.08-1.02.13-1.53.13-.24,0-.49,0-.73,0h-.89s-74.31,0-74.31,0Z"/>
      </g>
      <path class="cls-2" d="m46.24,11.4c-1.54,0-2.79,1.17-2.79,2.78s1.25,2.78,2.79,2.78,2.79-1.18,2.79-2.78-1.25-2.78-2.79-2.78Zm0,4.47c-.84,0-1.57-.7-1.57-1.69s.73-1.69,1.57-1.69,1.57.69,1.57,1.69-.73,1.69-1.57,1.69Zm-6.1-4.47c-1.54,0-2.79,1.17-2.79,2.78s1.25,2.78,2.79,2.78,2.79-1.18,2.79-2.78-1.25-2.78-2.79-2.78Zm0,4.47c-.84,0-1.57-.7-1.57-1.69s.73-1.69,1.57-1.69,1.57.69,1.57,1.69-.73,1.69-1.57,1.69Zm-7.25-3.62v1.18h2.83c-.08.66-.31,1.15-.64,1.49-.41.41-1.05.86-2.18.86-1.74,0-3.1-1.4-3.1-3.14s1.36-3.14,3.1-3.14c.94,0,1.62.37,2.13.84l.83-.83c-.71-.67-1.64-1.19-2.96-1.19-2.38,0-4.39,1.94-4.39,4.32s2,4.32,4.39,4.32c1.29,0,2.26-.42,3.02-1.21.78-.78,1.02-1.88,1.02-2.76,0-.27-.02-.53-.06-.74h-3.97Zm29.65.92c-.23-.62-.94-1.77-2.38-1.77s-2.63,1.13-2.63,2.78c0,1.56,1.18,2.78,2.76,2.78,1.28,0,2.01-.78,2.32-1.23l-.95-.63c-.32.46-.75.77-1.37.77s-1.06-.28-1.35-.84l3.72-1.54-.13-.32Zm-3.8.93c-.03-1.08.83-1.62,1.45-1.62.49,0,.9.24,1.03.59l-2.49,1.03Zm-3.03,2.7h1.22v-8.18h-1.22v8.18Zm-2-4.78h-.04c-.27-.33-.8-.62-1.47-.62-1.39,0-2.67,1.22-2.67,2.79s1.28,2.77,2.67,2.77c.66,0,1.19-.3,1.47-.63h.04v.4c0,1.06-.57,1.63-1.49,1.63-.75,0-1.21-.54-1.4-.99l-1.06.44c.31.74,1.12,1.64,2.47,1.64,1.43,0,2.65-.84,2.65-2.9v-5h-1.16v.45Zm-1.4,3.85c-.84,0-1.55-.71-1.55-1.68s.71-1.7,1.55-1.7,1.49.72,1.49,1.7-.65,1.68-1.49,1.68Zm15.96-7.25h-2.93v8.18h1.22v-3.1h1.71c1.35,0,2.68-.98,2.68-2.54s-1.33-2.54-2.68-2.54Zm.03,3.94h-1.74v-2.8h1.74c.91,0,1.43.76,1.43,1.4s-.52,1.4-1.43,1.4Zm7.55-1.17c-.88,0-1.8.39-2.18,1.25l1.08.45c.23-.45.66-.6,1.12-.6.63,0,1.27.38,1.28,1.05v.08c-.22-.13-.69-.32-1.27-.32-1.17,0-2.36.64-2.36,1.84,0,1.09.96,1.8,2.03,1.8.82,0,1.27-.37,1.56-.8h.04v.63h1.18v-3.14c0-1.45-1.08-2.26-2.48-2.26Zm-.15,4.48c-.4,0-.96-.2-.96-.69,0-.63.69-.87,1.29-.87.54,0,.79.12,1.12.27-.09.76-.75,1.29-1.45,1.29Zm6.93-4.3l-1.4,3.55h-.04l-1.45-3.55h-1.32l2.18,4.96-1.24,2.76h1.27l3.36-7.72h-1.36Zm-11,5.23h1.22v-8.18h-1.22v8.18Z"/>
      <g>
        <path class="cls-6" d="m15.21,17.07l-6.97,7.4s0,0,0,0c.21.8.95,1.39,1.82,1.39.35,0,.67-.09.95-.26h.02s7.84-4.54,7.84-4.54l-3.67-4Z"/>
        <path class="cls-4" d="m22.25,15.81h0s-3.39-1.97-3.39-1.97l-3.81,3.39,3.83,3.83,3.37-1.94c.59-.32.99-.94.99-1.66s-.4-1.33-.98-1.65Z"/>
        <path class="cls-7" d="m8.24,10.43c-.04.15-.06.32-.06.48v13.07c0,.17.02.33.06.48l7.21-7.21-7.21-6.83Z"/>
        <path class="cls-8" d="m15.26,17.45l3.61-3.61-7.83-4.54c-.28-.17-.62-.27-.97-.27-.87,0-1.6.59-1.82,1.4,0,0,0,0,0,0l7.02,7.02Z"/>
      </g>
      <text class="cls-3" x="29" y="26" textLength="42">で手に入れよう</text>
    </g>
  </g>
</svg>