<?xml version="1.0" encoding="UTF-8"?>
<svg id="_レイヤー_2" data-name="レイヤー 2" xmlns="http://www.w3.org/2000/svg" viewBox="0 0 23.44 23.1">
  <defs>
    <style>
      .cls-1 {
        fill: #000;
      }
    </style>
  </defs>
  <g id="_01" data-name="01">
    <g>
      <path class="cls-1" d="m8.87,13.67H.57c-.31,0-.56.26-.57.57v8.3c0,.31.26.56.57.57h8.3c.31,0,.56-.26.57-.57v-8.3c0-.73-1.13-.73-1.13,0v8.3l.57-.57H.57l.57.57v-8.3l-.57.57h8.3c.73,0,.73-1.13,0-1.13Z"/>
      <path class="cls-1" d="m5.88,17.22h-2.32v2.32h2.32c0-.95,0-1.9,0-2.32Z"/>
      <path class="cls-1" d="m5.88,16.65h-2.32c-.31,0-.56.26-.57.57v2.32c0,.31.26.56.57.57h2.32c.31,0,.56-.26.57-.57v-2.32c0-.31-.25-.57-.57-.57-.31,0-.57.25-.57.57v2.32l.57-.57h-2.32l.57.57v-2.32l-.57.57h2.32c.31,0,.57-.25.57-.57s-.25-.57-.57-.57h0Z"/>
      <path class="cls-1" d="m8.87,0H.57C.26,0,0,.26,0,.57v8.3c0,.31.26.56.57.57h8.3c.31,0,.56-.26.57-.57V.57c0-.73-1.13-.73-1.13,0v8.3l.57-.57H.57l.57.57V.57l-.57.57h8.3c.73,0,.73-1.13,0-1.13Z"/>
      <path class="cls-1" d="m11.14.57v8.3c0,.73,1.13.73,1.13,0V.57c0-.73-1.13-.73-1.13,0Z"/>
      <path class="cls-1" d="m8.87,10.95H.57c-.73,0-.73,1.13,0,1.13h8.3c.73,0,.73-1.13,0-1.13Z"/>
      <path class="cls-1" d="m22.58,10.95h-4.55c-.73,0-.73,1.13,0,1.13h4.55c.73,0,.73-1.13,0-1.13Z"/>
      <path class="cls-1" d="m11.58,12.08h4.03l-.57-.57v4.03c0,.31.26.56.57.57h4.03l-.57-.57v4.04c0,.73,1.13.73,1.13,0v-4.04c0-.31-.26-.56-.57-.57h-4.03l.57.57v-4.03c0-.31-.26-.56-.57-.57h-4.03c-.73,0-.73,1.13,0,1.13h0Z"/>
      <path class="cls-1" d="m11.16,14.23v8.3c0,.31.26.56.57.57h2.74c.73,0,.73-1.13,0-1.13h-2.74l.57.57v-8.3c0-.73-1.13-.73-1.13,0Z"/>
      <path class="cls-1" d="m17.07,23.1h5.51c.31,0,.56-.26.57-.57v-5.81c0-.73-1.13-.73-1.13,0v5.81l.57-.57h-5.51c-.73,0-.73,1.13,0,1.13h0Z"/>
      <path class="cls-1" d="m5.88,3.55h-2.32v2.32h2.32v-2.32Z"/>
      <path class="cls-1" d="m5.88,2.99h-2.32c-.31,0-.56.26-.57.57v2.32c0,.31.26.56.57.57h2.32c.31,0,.56-.26.57-.57v-2.32c0-.31-.25-.57-.57-.57-.31,0-.57.25-.57.57v2.32l.57-.57h-2.32l.57.57v-2.32l-.57.57h2.32c.31,0,.57-.25.57-.57s-.25-.57-.57-.57Z"/>
      <path class="cls-1" d="m22.87,0h-8.3c-.31,0-.56.26-.57.57v8.3c0,.31.26.56.57.57h8.3c.31,0,.56-.26.57-.57V.57c0-.73-1.13-.73-1.13,0v8.3l.57-.57h-8.3l.57.57V.57l-.57.57h8.3c.73,0,.73-1.13,0-1.13Z"/>
      <path class="cls-1" d="m19.88,3.55h-2.32v2.32h2.32v-2.32Z"/>
      <path class="cls-1" d="m19.88,2.99h-2.32c-.31,0-.56.26-.57.57v2.32c0,.31.26.56.57.57h2.32c.31,0,.56-.26.57-.57v-2.32c0-.31-.25-.57-.57-.57s-.57.25-.57.57h0v2.32l.57-.57h-2.32l.57.57v-2.32l-.57.57h2.32c.31,0,.57-.25.57-.57s-.25-.57-.57-.57Z"/>
      <path class="cls-1" d="m16.93,18.37h-2.2v.99h2.2v-.99Z"/>
      <path class="cls-1" d="m16.93,17.8h-2.2c-.31,0-.56.26-.57.57v.99c0,.31.26.56.57.57h2.2c.31,0,.56-.26.57-.57v-.99c0-.31-.25-.57-.57-.57-.31,0-.57.25-.57.57h0v.99l.57-.57h-2.2l.57.57v-.99l-.57.57h2.2c.31,0,.57-.25.57-.57s-.25-.57-.57-.57h0Z"/>
      <path class="cls-1" d="m19.07,11.55v1.32c0,.15.06.29.17.4.22.22.58.22.8,0,.11-.11.17-.25.17-.4v-1.32c0-.15-.06-.29-.17-.4-.22-.22-.58-.22-.8,0-.11.11-.17.25-.17.4Z"/>
      <path class="cls-1" d="m21.99,11.55v2.69c0,.31.25.57.57.57s.57-.25.57-.57v-2.69c0-.31-.25-.57-.57-.57s-.57.25-.57.57h0Z"/>
    </g>
  </g>
</svg>