<?xml version="1.0" encoding="UTF-8"?>
<svg id="_レイヤー_2" data-name="レイヤー 2" xmlns="http://www.w3.org/2000/svg" viewBox="0 0 2900.41 1296.48">
  <defs>
    <style>
      .cls-1 {
        fill: rgba(225,225,225,0.1);
        fill-rule: evenodd;
      }
    </style>
  </defs>
  <g id="_レイヤー_1-2" data-name="レイヤー 1">
    <g>
      <path class="cls-1" d="m1199.59,964.66c8.8,17.55-12.83,28.77-26.94,21.53-9.59-4.92-20.38-21.44-3.85-40.24,27.32-31.1,75.65-8.06,84.73,31.1,7.4,31.9-10.66,58.06-29.5,68.62-5.56,3.11-9.14,4.32-4.54,16.74,20.99,56.71,11.55,145.2-95.44,204.7-97.28,54.1-208.52,19.53-234.63,5.83-19.41-10.19-14.91-26.34,9.14-18.01,42.56,14.74,71.93,16.39,88.25,13.6,21.95-3.75,18.1-23.05-6.41-23.89-49.76-1.71-150.36-19.03-240.63-132.16-63.06-79.03-145.68-111.78-186.44-112.33-22.4-.31-20.76-25.31,4.78-24.61,25.54.7,112.85,8.51,195.31,111.39,45.19,56.39,122.45,109.91,182.95,118.94,19.71,2.94,17.49-16.73,1.43-19.82-23.99-4.62-99.46-35-134.97-81.61-9.84-12.92,3.53-27.35,17.2-11.79,27.66,31.46,90.06,65.12,159.15,71.19,45.6,4.01,94.71-22.73,84.29-74.76-7.49-37.38-48.08-36.14-62.81-24.93-17.29,13.15-14.51,30.31-12.87,35.55,2.98,9.56,15.83,12.28,13.39.29-3.88-19,15.53-25.81,29.4-15.72,13.2,9.6,8.81,33.22-7.65,41.99-29.07,15.46-61.1-7.33-62.31-38.86-1.02-26.56,22.3-64.24,73.2-57.98,20.74,2.55,38.25-4.72,46.3-18.37,11.08-18.77,22.14-74.44-36.09-97.34-37.22-14.63-64.77,21.28-64.06,37.7.5,11.54,10.63,11.64,13.97,3.38,3.34-8.26,34.93-22.92,47.81,6.46,11.04,25.19-26.62,55.41-63.76,32.11-28.63-17.96-38.53-63.9-2.11-101,35.07-35.72,114.4-38.41,151.74,32.36,20.59,39.03,12.92,65.36,15.7,76.6,1.05,4.23,1.58,8.42,7.08,11.4,18.8,10.2,49.34,10.77,64.36-9.69,10.12-13.79,12.76-32.81-1.45-44.42-9.42-7.69-16.75.02-13.72,6.06h0Zm-150.91,276.99c-20.1,2.11-16.1,24.29,5.1,21.32,84.39-11.8,133-86.7,139.3-114.11,3.83-16.65-11.57-20.75-17.03-6.85-7.64,19.45-51.43,91.68-127.37,99.64h0Zm198.69-25.58c-16.61-5.26-26.71,16.54-.11,26.08,35.54,12.75,124.92,22.14,209.15-5.13,14.02-4.54,17.74-31.03-7.27-22.35-32.41,11.26-126.78,25.14-201.78,1.39h0Zm-405.52,16.59c20.61,11.74,11.48,25.64-12.28,16.26-48.33-19.07-87.3-56.65-139.23-115.8-60.94-69.41-144.48-83.21-185.07-71.74-27.09,7.66-38.24-15.16-6.48-26.93,43.51-16.14,150.65,3.99,210.8,82.77,46.22,60.52,96.14,94.87,132.26,115.45h0Zm801.21-86.01c10.8-6.16,25.98,12.19,7.48,25.37-18.5,13.18-116.23,48.87-136.68,50.42-20.45,1.56-30.5-20.29-6.75-24.72,23.75-4.42,105.38-33.62,135.95-51.08h0Zm-312.23,44.72c16.65-2.94,15.13-19.56-2.51-18.8-17.64.75-47.97-2.22-60.89-6.04-16.61-4.91-24.16,12.63-3.24,20.8,15.51,6.05,44.77,7.92,66.64,4.05h0Zm204.85-37.97c16.45-9.06,9.94-26.64-3.92-21.7-18.32,6.53-56.39,28.94-144.95,36.67-21.56,1.88-20.03,23.56,2.83,24.29,34.01,1.09,101.53-14.74,146.03-39.26h0Zm-94.91-31.87c23.18-7.25,15.48-27.6-5.74-22.68-67.21,15.56-117.2,19.7-146.46,15.72-20.24-2.75-30.97,23.66-3.28,27.62,20.99,3,90.55-.35,155.48-20.66h0Zm686.35-287.57c-5.95,7.81,6.51,14.25,16.54,5.53,26.57-23.09,13.98-58.15-19.73-66.75-48.41-12.34-99.54,47.12-152.72,150.12-58.48,113.27-156.83,184.31-237.78,213.45-25.5,9.18-44.6-9.25-10.84-27.25,29.22-15.58,99.15-52.12,130.16-88.88,19.82-23.5.19-40.18-19.01-18.27-19.21,21.9-140.94,101.46-234.41,128.81-26.73,7.82-38.67-13.21-10.8-23.2,54.01-19.35,165.32-85.09,187.3-107.35,21.97-22.25,2.31-41.9-28.49-14.27-30.8,27.63-172.82,107.88-242.94,118.04-21.2,3.07-32.76-15.05-5.34-21.87,43.12-10.71,119.46-50.19,145.08-69.35,25.63-19.15,9.2-41.77-18.31-20.35-31.27,24.34-193.99,99.16-333.63,91.07-23.84-1.39-24.96-24.52,6.67-24.7,77.51-.44,368.77-62.09,463.55-291.03,10.18-24.61-20.35-37.48-28.12-11.5-10.71,35.86-87.54,152.48-208.77,207.44-22.47,10.19-44.18-5.12-15.21-19.58,77.63-38.73,129.07-96.74,140.41-123.85,11.34-27.12-10.33-31.03-22.2-14.72-43.64,60.06-185.68,160.58-302.98,162.72-28.22.52-26.35-27.32-2.25-28.22,41.15-1.53,104.22-21.96,150.3-57.43,21.26-16.38-.4-35.5-15.16-23.02-14.76,12.48-67.19,32.88-86.06,37.84-33.81,8.91-32.64-18.52-11.88-26.46,52.6-20.1,146.46-88.97,187.33-158.12,17.72-29.98-12.18-32.29-22.91-12.25-16.19,30.23-146.26,154.84-248.12,166.91-28.66,3.4-35.8-18.14-5.83-24.45,63.24-13.29,182.95-94.36,233.73-185.49,43.6-78.26,53.63-159.52,134.27-156.78,40.86,1.39,55.31,54.62,30.34,72.27-30.73,21.71-48.67-16.63-22.69-27.48,13.19-5.51,8.19-21.47-9.21-18.01-17.34,3.45-38.11,18.43-33.69,50.77,6.21,45.38,73.78,56.83,104.86-3.98,31.09-60.81-1.13-124.41,47.63-180.38,11.48-13.18-.78-23.42-16.25-8.23-15.52,15.23-24.47,46.57-28.84,56.04-4.37,9.47-17.91,10.78-12.96-12.04,6.92-31.88,7.08-57.22-30.34-103.83-34.64-43.14-22.77-91.33,17.1-103.1,43.63-12.88,64.59,22.75,54.67,47.72-9.29,23.42-44.15,24.15-42.86.49,1.03-18.91-14.64-13.45-16.33-1.41-3.72,26.39,19.04,58.26,54.46,33.9,42.8-29.43,36.17-102.23,109.86-112.17,50.04-6.74,86.41,38.58,70.45,73.49-16.89,36.92-47.33,32.9-62.06,18.5-14.83-14.49-7.54-38.48,12.8-37.42,16.65.87,15.28-16.46,2.38-19.6-36.96-8.98-68.06,36.54-40.01,74.76,32.93,44.86,93-8.35,157.49,42.42,42.64,33.57,27.38,85.78,23.05,96.51-4.33,10.73,4.88,18.47,14.44,23.86,23.97,13.52,34.24,71.2-5.17,102.7-45.63,36.47-84.31,9.84-91.59-11.02-8.73-25.01,8.39-47.32,31.65-38.7,20.02,7.42,18.33,27.65,8.69,33.1-9.65,5.45,4.33,19.68,25.65,3.09,25.94-20.18,7.21-56.28-20.15-62.22-28.69-6.24-52.58,3.06-72.37-2.24-45.34-12.13-38.8-49.65-28.37-63.68,8.54-11.49,27.85-15.47,40.66-9.36,16.37,7.8,12.06,29.84-3.43,32.19-17.55,2.66-4.07,22.29,21.11,10.6,39.41-18.28,24.32-66.94-14.97-74.2-60.29-11.15-91.74,48.12-98.42,86.96-13.66,79.44,15.64,138.66,126.14,144.65,64.08,3.47,107.49-45,164.36,5.68,27.98,24.94,17.31,69.54-6.66,87.56-18.18,13.67-47.51,3.63-54.53-14.57-14.71-38.14,35.88-42.19,30.56-17.35-1.83,8.56,6.93,14,12.6,3.03,6.68-12.93,3.11-43.52-28.18-47.13-39.28-4.54-69.23,50.86-21.8,89.49,31.56,25.7,112.36-11.03,151.15,59.84,23.41,42.78-15.53,84.67-54.06,90.64-31.88,4.94-55.02-19.72-54.18-39.49,2.28-53.38,66.9-27.97,45.16.55h0Zm-1209.54,280.88c25.19.86,24.59-26.43,2.16-28.14-31.25-2.39-65.55-22.13-98.45-81.22-29.69-53.33-73.68-92.02-101.92-101.82-22.88-7.94-27.7,14.89-6.33,27.07,44.95,25.62,72.3,68.22,89.64,97.85,23.81,40.69,62.99,84.49,114.91,86.26h0Zm267.11-17.68c.66,8.66,4.58,12.22,8.24,11.5,3.67-.72,7.1-5.72,6.79-14.17-.48-13.11-16.51-16.75-15.04,2.67h0Zm-423.66-38.24c4.54,5.53,11.97,7.7,16.63,5.98,4.66-1.71,6.55-7.32.02-17.36-13.06-20.08-33.44-9.04-16.65,11.38h0Zm157.68-11.35c25.58,5.39,29.08-14.15,5.22-19.55-23.85-5.39-28.75-20.26-36.66-31.89-7.9-11.63-19.67-1.41-12.66,14.94,7.08,16.52,25.8,32.63,44.1,36.49h0Zm527.51-75.26c21.12-8.94,31.48,5.52,8.11,19.27-51.04,30.03-122.16,40.38-146.34,36.12-24.17-4.25-18.35-28.41.39-27.24,33.85,2.11,64.39,2.9,137.84-28.15h0Zm-727.55,42.62c11.2,11.54,26.99,2.29,13.72-15.33-34.27-45.46-85.56-75.37-130.89-75.58-35.52-.17-32.5,25.49-10.28,26.31,37.2,1.37,87.89,23.87,127.45,64.6h0Zm62.01-171.71c-18.28-3.64-14.31-22.26,9.76-19.86,22.45,2.25,55.34,22.09,81.24,53.09,29.95,35.85,30.02,71.97,53.88,91.29,13.21,10.69,4.96,35.08-17.35,18.86-21.98-15.98-30.32-65.76-53-94.15-19.22-24.05-46.55-43.66-74.54-49.22h0Zm63.5,132.19c7.81,15.13,26.12,6.48,18.52-18.34-7.87-25.75-48.57-74.9-95.34-89.99-23.5-7.58-26.82,12.57-11.03,21.29,17.2,9.49,61.27,35.59,87.85,87.05h0Zm1056.48-8.22c-7.25,6.48-14.17,4.93-17.47.22-3.3-4.72-2.98-12.6,4.26-18.79,17.16-14.65,30.09,3.46,13.2,18.57h0Zm-212.39-18.85c-13.8,7.7-7.7,25.77,14.87,16.2,22.56-9.57,57.64-42.18,66.2-63.87,8.57-21.7-17.81-27.47-25.23-10.97-7.42,16.5-24.67,41.28-55.84,58.65h0Zm-393.85-32.54c9.95-1.9,15.8-8.47,14.8-14.15-1-5.67-8.86-10.46-26.35-8.79-34.97,3.34-25.22,29.96,11.55,22.94h0Zm-82.61-51.27c17.4-1.15,24.73,18.67,4.59,20.66-19.08,1.88-49.21,10.17-61.52,21.18-12.32,11-20.44-8.95-5.93-19.74,21.26-15.8,45.17-20.94,62.86-22.1h0Zm1688.6-581.47v384.07c-132.35,155.53-322.6,189.69-408.88,179.85-153.18-17.46-212.72-88.34-266.26-105.86-23.56-7.71-20.54-35.4,7.7-27.91,37.08,9.83,102.08,72.7,190.07,89.28,24.51,4.62,34.16-15.21,7.12-22.9-123.91-35.24-162.91-101.82-256.74-121.02-36.52-7.47-30.79-33.51,4.65-28.45,86.57,12.36,145.87,79.73,226.84,105.78,60.14,19.34,106.27,37.26,179.72,11.08,16.5-5.88,10.26-30.91-7.99-23.62-22.26,8.89-64.97,12.9-102.89,1.54-23.82-7.14-15.3-28.2,2.5-23.34,45.72,12.49,118.8-3.07,148.03-29.3,26.27-23.58,1.89-34.85-15.04-21.5-16.93,13.35-111.1,58.8-208.48-1.61-59.75-37.06-139.54-99.14-209.75-111.58-28.66-5.08-26.68-34.34,2.86-31.37,45.93,4.62,120.93,51.63,211.23,111.57,52.2,34.65,114.34,41.96,172.63,16.3,25.12-11.06,9.28-30.54-8.66-23.75-36.4,13.78-93.52,16.06-154.8-20.81-44.15-26.56-87.8-58.95-136.47-83.72-25.67-13.07-16.58-33.03,4.46-25.45,42.46,15.3,80.01,49.88,127.46,72.17,17.67,8.3,28.75-8.31,14.19-18.55-54.75-38.51-128.07-94.42-212.04-109.81-26.21-4.8-23.98-28.54.95-27.47,51.44,2.19,144.04,47.79,219.23,107.09,32,25.23,72.2,45.83,118.45,18.49,10.99-6.5,27.78,7.01,11.12,19.86-20.46,15.79-54.56,19.87-80.8,14.87-25.18-4.8-26.1,14.4-1.62,20.67,45.98,11.78,105.65-9.3,134.54-49.08,28.88-39.79,7.54-96.97-22.88-101.15-32.93-4.52-41.4,19.71-33.53,32.64,2.97,4.88,7.98,4.17,9.95-.85,4.97-12.67,30.13-10.65,26.74,13.04-2.95,20.67-34.59,26.55-53.51,1.94-20.19-26.26-2.26-55.87,4.04-65.19,6.3-9.32,6.92-29.55-15.47-40.59-16.63-8.21-33.12,5.36-33.79,17.31-.26,4.78,4.98,7.74,9.22,5.78,12.02-5.57,24.83,11.39,11.22,23.37-15.35,13.51-49.16-8.15-35.85-43.81,9.21-24.68,37.44-36.73,61.96-27.61,15.24,5.66,26.35,20.91,29.88,26.48,4.2,6.62,6.52,9.71,10.81,9.5,7.91-.39,57.5-6.67,89.91,36.97,21.12,28.45,23.17,54.39,22.46,73.42-.26,6.93,1.88,11.89,4.29,15.44,18.38,27,92.79,41.58,126.63-11.62,32.55-51.17-7.7-87.63-27.79-90.5-19.73-2.81-44.88,17.31-24.7,38.92,3.56,3.81,8,2,6.66-2.98-3.71-13.87,20.72-18.77,23.44-.23,4.21,28.57-40.98,42.77-64.21,15.7-24.31-28.34-.89-73.87,29.3-85.23,17.92-6.74,18.29-65.69-21.06-75.26-42.51-10.34-60.91,27.55-40.67,50.37,6.46,7.27,16.02,7.63,11.73-5.08-6.48-19.17,25.45-31.04,31.87-2.89,6.19,27.13-43.77,58.59-71.84,14.22-23.56-37.24,3.72-79.12,36.62-89.12,16.79-5.11,18.33-63.78-20.21-69.24-41.46-5.88-51.27,35.28-31.38,51.58,6.78,5.56,13.69,1.21,8.36-5.37-12.34-15.21,17.74-32.54,25.7-6.72,6.62,21.47-26.88,52.17-61.85,26.6-26.42-19.33-22.72-59.57-8.46-73.18,10.81-10.32-7.15-42.36-38.1-43.81-27.69-1.28-46.72,22.7-47.68,35.83-1.21,16.49,7.78,26.69,17.58,29.19,5.85,1.49,8.98-4.27,5-8.8-8.67-9.88-.65-25.11,16.04-21.04,14.72,3.6,22.24,40.59-12.92,47.85-38.73,8-89.46-61.85-20.95-109.75,68.51-47.9,115.25,1.79,125.82,15.2,7.29,9.24,18.01,9.99,29.88,8.88,11.88-1.11,60.17-8.37,96.49,59.5,5.94,11.1,8.7,9.36,20.32,11.18,21.75,3.4,65.6,19.36,81.57,73.6h0Zm-1284.22,387.32c8.42-22.68,35.37-14.73,25.64,16.15-21.14,67.09-75.46,126.18-113.27,151.7-15.83,10.68-34.91-6.82-11.1-23.68,20.03-14.18,69.82-66.23,98.72-144.16h0Zm882.91,119.71c-17.86-1.67-26.01,16.56,3.97,23.26,22.88,5.11,99.12,1.64,148.02-26.96,18.75-10.97,10.26-30.19-6.72-22.06-39.16,18.75-81.8,31.69-145.27,25.76h0Zm-831.38-38.25c-6.18,11.93,9.63,26.86,21.8,9.03,20.53-30.09,34.99-76.46,36.13-111.25.74-22.75-22.99-29.89-25.62-6.14-4.21,38-14.29,73.58-32.32,108.36h0Zm979.93-59.74c-13.11,9.27-18.45,20.01-16.27,25.95,2.17,5.93,11.86,7.06,28.82-2.91,40.32-23.69,22.53-47.86-12.55-23.04h0Zm-476.24,26.06c10.38,1.12,17.33-4.15,18.31-10.26.98-6.11-4.01-13.06-17.52-15.27-24.43-4.02-31.12,22.27-.79,25.54h0Zm236.04-10.96c14.34,4.4,27.78-14.76,1.73-22.59-39.44-11.85-168.19-147.83-296.03-126.01-26.87,4.59-21.98,32.87,3.62,31.05,140.2-9.96,203.93,90.92,290.68,117.54h0Zm-827.21-48.08c-4.51,8.61-11.53,9.58-16.28,6.32-4.74-3.26-7.2-10.76-2.58-19.09,10.94-19.73,29.39-7.29,18.86,12.78h0ZM0,667.12v-384.07c3.08,10.46,5.12,22.32,5.77,35.81.48,9.99,3.67,15.51,10.78,20.47,52.04,36.34,100.75,189.93-16.55,327.78h0Zm1760.69-121.73c-.26-9.72,5.39-14,11.13-13.47,5.73.53,11.54,5.87,11.57,15.4.1,22.56-22.08,20.72-22.7-1.93h0Zm355.17-14.48c12.51-2.22,18.55-9.43,17.32-15.53-1.23-6.1-9.74-11.11-26.32-8.94-29.99,3.92-27.57,30.96,9,24.48h0Zm289.1-77.3c-12.62-6.37-7.88-22.68,11.85-17.74,36.6,9.16,60.59,56.38,99.08,46.33,14.87-3.88,22.17,16.85,5.47,22.78-43.89,15.58-72.76-29.36-116.4-51.36h0Zm321,34.39c-16.15-6.88-15.75,8.68-1.23,14.05,24.11,8.92,44.72,7.77,57.99-5.02,11.45-11.02,1.12-19.06-8.4-11.09-11.65,9.74-34.42,7.99-48.36,2.06h0Zm-942.24-10.04c-.31,11.86-16.84,20.4-19.18-5.82-5.38-60.64,46.04-101.78,66.98-108.84,14.16-4.77,14.12,8.54,2.09,16.84-12.02,8.3-48.33,36.57-49.9,97.82h0Zm-100.17-12.23c4.13-4.84,8.85-5.83,11.54-3.61,2.69,2.21,3.33,7.63-.66,15.59-10.35,20.62-28.68,8.87-10.87-11.98h0Zm536.56,20.85c23.29,8.79,30.32-16.52,9.6-26.1-27.37-12.65-94.98-26.72-146.42-5.79-23.12,9.42-14.71,28.15,4.89,23.21,28.14-7.07,77.51-11.85,131.93,8.67h0Zm-562.56-20.02c-11.83,15.98-35.55,9.79-20.58-7.3,17.49-19.94,21.22-56.09,19.17-81.23-1.62-19.78,9.78-20.24,15.6-2.61,7.97,24.15,3.23,67.58-14.19,91.13h0Zm1064.38-5.65c-6.01-1.13-9.2.9-9.3,3.56-.1,2.66,2.87,5.96,9.19,7.36,8.57,1.91,13.12-8.48.11-10.92h0Zm-1111.91,1.35c-7.55,9.37-24.08,7.04-13.75-9.72,12.3-19.98,29.35-73.16-8.44-120.13-10.67-13.26-22.69-3.38-12.37,10.7,12.04,16.45,19.26,43.33,15.99,57.11-3.26,13.77-18.25,14.84-16.72-.22,2.22-21.78-9.67-44.97-28.96-58.12-14.05-9.57-14.67-16.15,1.33-30.5,19.02-17.05,16.48-47.43-6.36-58.95-20.18-10.18-33.02-1.79-37.78,3.44-8.85,9.76.51,17.57,7.43,12.54,6.92-5.04,23.13-.31,26.17,13.78,3.04,14.08-12.67,29.82-34.34,27.14-24.24-3-39.67-32.04-19.37-61.51,18.17-26.35,74.94-25.84,109.92,12.41,47.65,52.11,60.31,148.52,17.26,202.02h0Zm878.24-8.16c16.18,3.65,22.37-14.56,7.95-17.03-16.49-2.83-31.47-23.2-46.42-28.29-15.26-5.2-17.39,11.36-4.24,16.07,8.12,2.91,26.86,25.68,42.72,29.25h0Zm-337.41-37.34c13.19.88,17.37-22.6-6.62-25.95-31.48-4.39-68.98,1.54-89.86,13.84-24.37,14.35-8.35,33.15,4.67,25.82,27.58-15.54,63.29-15.62,91.82-13.71h0Zm229.5-156.27c-1.95-5.21,2.37-14.2,16.1-8.22,27.84,12.12,31.79,53.15,1.82,66.12-33.51,14.5-72.35,6.77-124.68-50.28-65.45-71.35-136.21-93.66-190.02-80.46-19.61,4.82-16.41,19.66-.85,18.64,13.1-.86,43.79-4.74,67.07,5.58,14.24,6.32,7.44,18.7-3.93,16.08-87.27-20.07-155.35,28.08-172.07,49.4-13.61,17.36-.59,28.79,12.56,16.8,108.42-98.86,238.24-15.79,285.14,12.38,13.33,8,8.46,21.81-6.85,15.01-20.62-9.18-128.89-80.11-200.17-40.36-17.29,9.64-12.16,27.12,6.56,19.7,36.16-14.34,85.76-6.29,108.55,7.4,20.1,12.07,12.89,24.76-2.4,18.15-53.39-23.09-108.8-2.78-126,14.18-14.97,14.76-1.74,29.01,12.89,18.87,68.35-47.36,199.02,23.66,249.35,39.09,61.38,18.81,136.68-6.45,152.81-71.17,18.52-74.3-56.4-133.05-106.65-108.46-40.18,19.66-32.52,61.57-11.4,70.02,18.72,7.48,41.37-3.76,32.15-28.47h0Zm271.96,109.03c-3.94,4.48-8.58,5.04-11.09,2.92-2.51-2.11-2.9-6.88,1.65-13.08,9.11-12.4,19.85-1.68,9.43,10.15h0Zm-25.98-78.13c-.11-12.8,17.44-13.56,17.9,5.41.46,18.97-10.98,50.85-17.63,61.13-8.15,12.6-17.88,4.66-12.66-5.92,5.22-10.58,12.61-35.12,12.39-60.62h0Zm-307.6,39.16c-12.54-8.38-20.5,2.51-9.49,11.65,31.86,26.46,79.83,27.06,98.28,5.12,9.27-11.02,1.71-19.1-8.41-10.88-14.84,12.04-49.24,14.92-80.37-5.89h0Zm278.95,7.21c-2.26,5.51-6.46,7.56-9.52,6.39-3.06-1.17-4.98-5.55-2.71-12.9,4.56-14.7,18.21-8.08,12.23,6.51h0Zm-565.26-14.65c6.68-6.09,8.3-14.5,5.15-19.08-3.15-4.58-11.08-5.32-23.52,3.9-24.87,18.46-6.31,37.69,18.37,15.18h0Zm536.25-4.46c-2.5,10.15-13.76,9.95-12.29-3.3,2.24-20.28-2.71-45.35-10.27-60.95-7.55-15.6,8.03-20.97,17.3.25,7.16,16.38,9.52,46.73,5.27,64h0Zm36.86-19.21c-1.91,11.3-11.77,7.87-11.29-4.04.61-14.82-4.85-32.71-9.23-41.86-4.39-9.15,8.41-18.95,15.77-1.91,7.36,17.04,6.02,40.25,4.75,47.81h0Zm-571.48-84.46c12.1-3.47,13.55-18.16-7.3-16.37-19.76,1.69-62.99,22.81-80.4,51.71-8.28,13.75,4.3,21.58,12.38,11.17,9.65-12.43,35.4-35.07,75.32-46.51h0Zm246.35,33.03c11.17,14.54,25.28-.18,12.98-19.03-36.81-56.42-113.04-85.54-150.67-83.51-19.36,1.04-21.39,17.32-5.27,17.72,49.24,1.24,105.5,36.09,142.95,84.81h0Zm171.99-92.98c-20.45-28.91,43.44-42.66,32.07,7-8.25,36.03-61.3,39.51-82.67-2.09-11.06-21.53-9.23-43.01-25.51-57.09-20.83-18.01-74.22-12.8-78.88,26.56-1.5,12.67,10.45,15.73,15.28,5.07,8.46-18.66,31.43-15.65,36.9,7.84,3.98,17.06-9.07,33.58-34.56,32.87-17.13-.48-43.33-22.11-43.07-58.64.3-42.17,46.89-73.45,99.42-60.66,14.41,3.51,18.52-4.22,21.36-8.35,18.3-26.64,50.62-50.45,102.92-47.22,68.51,4.23,97.65,43.8,107.33,58.76,11.57,17.87-5.04,23.9-11.76,16.2-34.59-39.65-71.7-41.93-82.19-41.05-14.61,1.22-12.38,13.26-3.51,15.52,13.01,3.31,33.48,14.82,42.9,26.17,12.27,14.8-.85,23.55-8.09,15.48-8.97-10.02-30.07-21.39-43.12-21.68-13.05-.28-17.25,9.69-6.17,13.74,8.96,3.28,21.21,13.37,25.89,21.3,4.18,7.09-.7,18.43-10.85,9.77-19.04-16.22-50.7-23.25-70.21-.91-15.71,17.98-4.53,40.06,7.55,46.32,7.16,3.71,13.42,1.39,8.97-4.9h0Zm13.56-105.28c15.8-.34,16.07-19.26-3.63-19.15-24.54.13-41.51,16.11-47.02,26.99-5.52,10.87.27,19.63,9.49,10.88,9.81-9.3,20.96-18.29,41.17-18.72h0Z"/>
      <path class="cls-1" d="m2649.8,964.66c8.8,17.55-12.83,28.77-26.94,21.53-9.59-4.92-20.38-21.44-3.85-40.24,27.32-31.1,75.65-8.06,84.74,31.1,7.4,31.9-10.66,58.06-29.5,68.62-5.56,3.11-9.14,4.32-4.54,16.74,20.99,56.71,11.55,145.2-95.44,204.7-97.28,54.1-208.52,19.53-234.63,5.83-19.41-10.19-14.91-26.34,9.14-18.01,42.56,14.74,71.93,16.39,88.25,13.6,21.95-3.75,18.1-23.05-6.41-23.89-49.76-1.71-150.36-19.03-240.62-132.16-63.06-79.03-145.68-111.78-186.44-112.33-22.4-.31-20.76-25.31,4.78-24.61,25.54.7,112.85,8.51,195.31,111.39,45.19,56.39,122.45,109.91,182.95,118.94,19.71,2.94,17.49-16.73,1.43-19.82-24-4.62-99.46-35-134.97-81.61-9.84-12.92,3.53-27.35,17.2-11.79,27.66,31.46,90.06,65.12,159.15,71.19,45.6,4.01,94.7-22.73,84.29-74.76-7.49-37.38-48.08-36.14-62.81-24.93-17.29,13.15-14.51,30.31-12.87,35.55,2.98,9.56,15.84,12.28,13.39.29-3.88-19,15.53-25.81,29.4-15.72,13.2,9.6,8.81,33.22-7.65,41.99-29.07,15.46-61.1-7.33-62.31-38.86-1.02-26.56,22.3-64.24,73.2-57.98,20.74,2.55,38.25-4.72,46.3-18.37,11.08-18.77,22.14-74.44-36.09-97.34-37.21-14.63-64.77,21.28-64.06,37.7.5,11.54,10.63,11.64,13.97,3.38,3.34-8.26,34.94-22.92,47.81,6.46,11.04,25.19-26.62,55.41-63.76,32.11-28.63-17.96-38.53-63.9-2.11-101,35.07-35.72,114.4-38.41,151.74,32.36,20.59,39.03,12.92,65.36,15.71,76.6,1.05,4.23,1.58,8.42,7.08,11.4,18.8,10.2,49.34,10.77,64.36-9.69,10.12-13.79,12.76-32.81-1.45-44.42-9.42-7.69-16.75.02-13.72,6.06h0Zm-150.91,276.99c-20.1,2.11-16.1,24.29,5.1,21.32,84.39-11.8,133-86.7,139.3-114.11,3.83-16.65-11.57-20.75-17.03-6.85-7.64,19.45-51.43,91.68-127.37,99.64h0Zm401.52-27.32v24.63c-82.37,24.86-168.27,15.63-202.94,3.19-26.6-9.54-16.51-31.35.11-26.08,75,23.74,169.37,9.86,201.78-1.39l1.05-.35h0Zm-608.35,18.33c20.61,11.74,11.48,25.64-12.28,16.26-48.33-19.07-87.3-56.65-139.23-115.8-60.94-69.41-144.48-83.21-185.07-71.74-27.09,7.66-38.24-15.16-6.48-26.93,43.51-16.14,150.65,3.99,210.8,82.77,46.22,60.52,96.14,94.87,132.26,115.45h0ZM0,1238.97v-24.63c23.84-7.58,20.04,18.22,6.22,22.7-2.07.67-4.14,1.31-6.22,1.94h0Zm192.85-92.31c10.8-6.16,25.98,12.19,7.48,25.37-18.5,13.18-116.24,48.87-136.68,50.42-20.45,1.56-30.5-20.29-6.75-24.72,23.74-4.42,105.38-33.62,135.95-51.08h0Zm2588.18,44.72c16.65-2.94,15.13-19.56-2.51-18.8-17.64.75-47.97-2.22-60.89-6.04-16.61-4.91-24.15,12.63-3.24,20.8,15.51,6.05,44.77,7.92,66.64,4.05h0Zm119.37-32.33v25.68c-23.51,5.53-45.37,8.42-60.55,7.93-22.86-.73-24.4-22.41-2.83-24.29,24.89-2.17,45.79-5.5,63.39-9.32h0ZM0,1184.73v-25.68c45.01-9.76,68.39-22.66,81.56-27.35,13.86-4.94,20.36,12.64,3.91,21.7-24.63,13.57-56.32,24.48-85.48,31.33h0Zm2900.41-84.4v16.38c-2.26,1.87-5.37,3.54-9.44,4.81-64.93,20.31-134.49,23.66-155.48,20.66-27.69-3.96-16.96-30.38,3.28-27.62,29.26,3.99,79.25-.15,146.46-15.72,6.49-1.51,11.71-.64,15.18,1.48h0ZM0,1064.75v-36.47c113.42-37.75,252.2-115.62,312.21-260.58,10.18-24.61-20.35-37.48-28.12-11.5-10.71,35.86-87.54,152.48-208.77,207.44-22.47,10.19-44.18-5.12-15.21-19.58,77.63-38.73,129.07-96.74,140.41-123.85,11.34-27.12-10.33-31.03-22.2-14.72-28.65,39.43-99.7,96.28-178.32,131.31v-38.31c8.13-4.91,15.98-10.22,23.39-15.93,21.26-16.38-.4-35.5-15.16-23.02-2.07,1.75-4.88,3.66-8.23,5.65v-48.32c38.1-29.53,75.57-66.75,97.62-104.06,17.72-29.98-12.18-32.29-22.91-12.25-7.09,13.22-35.95,44.5-74.71,76.51v-48.3c21.6-22.22,40.62-46.35,54.49-71.24,43.6-78.26,53.62-159.52,134.27-156.78,40.86,1.39,55.31,54.62,30.34,72.27-30.73,21.71-48.67-16.63-22.68-27.48,13.19-5.51,8.18-21.47-9.22-18.01-17.34,3.45-38.11,18.43-33.69,50.77,6.21,45.38,73.78,56.83,104.86-3.98,31.09-60.81-1.14-124.41,47.63-180.38,11.49-13.18-.78-23.42-16.25-8.23-15.52,15.23-24.47,46.57-28.84,56.04-4.37,9.47-17.91,10.78-12.96-12.04,6.92-31.88,7.08-57.22-30.34-103.83-34.63-43.14-22.77-91.33,17.11-103.1,43.63-12.88,64.59,22.75,54.67,47.72-9.3,23.42-44.15,24.15-42.87.49,1.04-18.91-14.63-13.45-16.33-1.41-3.72,26.39,19.04,58.26,54.46,33.9,42.8-29.43,36.17-102.23,109.85-112.17,50.04-6.74,86.41,38.58,70.45,73.49-16.89,36.92-47.33,32.9-62.06,18.5-14.83-14.49-7.54-38.48,12.8-37.42,16.65.87,15.28-16.46,2.38-19.6-36.96-8.98-68.06,36.54-40.01,74.76,32.93,44.86,93-8.35,157.49,42.42,42.64,33.57,27.38,85.78,23.05,96.51-4.33,10.73,4.88,18.47,14.44,23.86,23.97,13.52,34.24,71.2-5.17,102.7-45.63,36.47-84.3,9.84-91.59-11.02-8.73-25.01,8.4-47.32,31.65-38.7,20.02,7.42,18.33,27.65,8.69,33.1-9.65,5.45,4.33,19.68,25.65,3.09,25.94-20.18,7.21-56.28-20.15-62.22-28.69-6.24-52.58,3.06-72.37-2.24-45.34-12.13-38.8-49.65-28.37-63.68,8.55-11.49,27.85-15.47,40.66-9.36,16.37,7.8,12.06,29.84-3.43,32.19-17.54,2.66-4.07,22.29,21.11,10.6,39.41-18.28,24.33-66.94-14.97-74.2-60.29-11.15-91.74,48.12-98.42,86.96-13.66,79.44,15.64,138.66,126.14,144.65,64.08,3.47,107.49-45,164.36,5.68,27.97,24.94,17.31,69.54-6.66,87.56-18.18,13.67-47.51,3.63-54.53-14.57-14.71-38.14,35.88-42.19,30.56-17.35-1.83,8.56,6.93,14,12.6,3.03,6.68-12.93,3.11-43.52-28.18-47.13-39.28-4.54-69.24,50.86-21.8,89.49,31.56,25.7,112.36-11.03,151.15,59.84,23.41,42.78-15.52,84.67-54.06,90.64-31.88,4.94-55.02-19.72-54.18-39.49,2.28-53.38,66.9-27.97,45.16.55-5.95,7.81,6.51,14.25,16.54,5.53,26.57-23.09,13.98-58.15-19.73-66.75-48.4-12.34-99.54,47.12-152.72,150.12-58.48,113.27-156.83,184.31-237.78,213.45-25.5,9.18-44.6-9.25-10.84-27.25,29.22-15.58,99.15-52.12,130.16-88.88,19.82-23.5.19-40.18-19.01-18.27-19.21,21.9-140.94,101.46-234.41,128.81-26.73,7.82-38.68-13.21-10.8-23.2,54.01-19.35,165.32-85.09,187.3-107.35,21.97-22.25,2.31-41.9-28.49-14.27-30.8,27.63-172.82,107.88-242.94,118.04-21.21,3.07-32.76-15.05-5.34-21.87,43.12-10.71,119.46-50.19,145.08-69.35,25.63-19.15,9.2-41.77-18.31-20.35-19.6,15.25-90.81,50.32-175.62,72.4h0Zm.14,35.66l-.14-.08v16.38c6.63-5.49,5.89-12.67.14-16.3H.14Zm2367.64,14.42c25.19.86,24.59-26.43,2.16-28.14-31.25-2.39-65.55-22.13-98.45-81.22-29.69-53.33-73.68-92.02-101.92-101.82-22.88-7.94-27.69,14.89-6.33,27.07,44.95,25.62,72.3,68.22,89.64,97.85,23.81,40.69,62.99,84.49,114.91,86.26h0Zm267.11-17.68c.66,8.66,4.58,12.22,8.25,11.5,3.67-.72,7.1-5.72,6.79-14.17-.48-13.11-16.51-16.75-15.04,2.67h0Zm265.52-68.88v36.47c-50.53,13.15-105.88,21.69-158.01,18.67-23.84-1.39-24.96-24.52,6.67-24.7,28.43-.16,85.63-8.58,151.34-30.45h0Zm-689.18,30.63c4.54,5.53,11.97,7.7,16.63,5.98,4.66-1.71,6.55-7.32.02-17.36-13.06-20.08-33.44-9.04-16.65,11.38h0Zm157.67-11.35c25.58,5.39,29.08-14.15,5.22-19.55-23.85-5.39-28.75-20.26-36.66-31.89-7.9-11.63-19.67-1.41-12.66,14.94,7.07,16.52,25.8,32.63,44.1,36.49h0Zm531.51-76.72v23.07c-50.68,28.21-118.7,37.92-142.23,33.77-24.17-4.25-18.35-28.41.39-27.24,33.85,2.11,64.39,2.9,137.84-28.15,1.38-.58,2.71-1.07,4-1.46h0Zm-731.55,44.07c11.2,11.54,26.99,2.29,13.72-15.33-34.27-45.46-85.56-75.37-130.89-75.58-35.52-.17-32.5,25.49-10.28,26.31,37.2,1.37,87.89,23.87,127.45,64.6h0ZM0,993.92v-23.07c18.34-5.59,25.96,7.87,4.11,20.72-1.36.8-2.73,1.58-4.11,2.35h0Zm2230.87-150.71c-18.28-3.64-14.3-22.26,9.76-19.86,22.45,2.25,55.34,22.09,81.24,53.09,29.95,35.85,30.02,71.97,53.88,91.29,13.21,10.69,4.96,35.08-17.35,18.86-21.98-15.98-30.32-65.76-53-94.15-19.22-24.05-46.55-43.66-74.54-49.22h0Zm63.5,132.19c7.81,15.13,26.12,6.48,18.52-18.34-7.87-25.75-48.57-74.9-95.34-89.99-23.5-7.58-26.82,12.57-11.03,21.29,17.2,9.49,61.28,35.59,87.85,87.05h0Zm-1843.92-8.22c-7.24,6.48-14.17,4.93-17.47.22-3.3-4.72-2.98-12.6,4.26-18.79,17.16-14.65,30.09,3.46,13.21,18.57h0Zm2449.96-68.69v38.31c-41.15,18.33-84.37,30.68-124.67,31.42-28.22.52-26.35-27.32-2.25-28.22,34.53-1.29,84.5-15.88,126.92-41.5h0Zm-2662.35,49.84c-13.8,7.7-7.7,25.77,14.87,16.2,22.57-9.57,57.64-42.18,66.2-63.87,8.57-21.7-17.81-27.47-25.23-10.97-7.42,16.5-24.67,41.28-55.84,58.65h0Zm2506.56-32.54c9.95-1.9,15.8-8.47,14.8-14.15-1-5.67-8.86-10.46-26.35-8.79-34.97,3.34-25.23,29.96,11.55,22.94h0Zm-82.61-51.27c17.4-1.15,24.73,18.67,4.59,20.66-19.08,1.88-49.21,10.17-61.52,21.18-12.31,11-20.44-8.95-5.93-19.74,21.26-15.8,45.17-20.94,62.87-22.1h0Zm238.39-47.65v48.32c-20.57,12.25-61.61,27.92-77.83,32.19-33.81,8.91-32.64-18.52-11.88-26.46,24.22-9.26,57.19-28.86,89.71-54.06h0Zm0-88.1v48.3c-49.86,41.19-116.1,83.6-173.41,90.39-28.67,3.4-35.81-18.14-5.83-24.45,45.96-9.66,121.76-55.14,179.24-114.25h0ZM1113.94,197.62c-8.67-9.88-.65-25.11,16.04-21.04,14.72,3.6,22.24,40.59-12.92,47.85-38.73,8-89.46-61.85-20.95-109.75,68.52-47.9,115.25,1.79,125.82,15.2,7.29,9.24,18.01,9.99,29.88,8.88,11.88-1.11,60.17-8.37,96.49,59.5,5.94,11.1,8.69,9.36,20.32,11.18,25.94,4.06,83.34,25.96,87.34,109.42.48,9.99,3.67,15.51,10.78,20.47,52.04,36.34,100.75,189.93-16.55,327.78-132.34,155.53-322.6,189.69-408.88,179.85-153.17-17.46-212.72-88.34-266.26-105.86-23.56-7.71-20.54-35.4,7.7-27.91,37.08,9.83,102.08,72.7,190.07,89.28,24.51,4.62,34.16-15.21,7.12-22.9-123.91-35.24-162.91-101.82-256.73-121.02-36.51-7.47-30.79-33.51,4.65-28.45,86.57,12.36,145.87,79.73,226.84,105.78,60.14,19.34,106.27,37.26,179.72,11.08,16.5-5.88,10.26-30.91-7.99-23.62-22.26,8.89-64.97,12.9-102.89,1.54-23.82-7.14-15.3-28.2,2.5-23.34,45.72,12.49,118.8-3.07,148.03-29.3,26.27-23.58,1.89-34.85-15.04-21.5-16.93,13.35-111.09,58.8-208.48-1.61-59.75-37.06-139.54-99.14-209.75-111.58-28.66-5.08-26.68-34.34,2.86-31.37,45.93,4.62,120.93,51.63,211.23,111.57,52.2,34.65,114.34,41.96,172.63,16.3,25.12-11.06,9.28-30.54-8.66-23.75-36.4,13.78-93.52,16.06-154.8-20.81-44.15-26.56-87.8-58.95-136.47-83.72-25.67-13.07-16.58-33.03,4.46-25.45,42.46,15.3,80.01,49.88,127.46,72.17,17.67,8.3,28.75-8.31,14.2-18.55-54.75-38.51-128.07-94.42-212.04-109.81-26.21-4.8-23.98-28.54.96-27.47,51.43,2.19,144.04,47.79,219.23,107.09,32,25.23,72.2,45.83,118.45,18.49,10.99-6.5,27.78,7.01,11.12,19.86-20.46,15.79-54.56,19.87-80.8,14.87-25.17-4.8-26.1,14.4-1.62,20.67,45.98,11.78,105.66-9.3,134.54-49.08,28.88-39.79,7.54-96.97-22.88-101.15-32.93-4.52-41.4,19.71-33.53,32.64,2.97,4.88,7.98,4.17,9.95-.85,4.97-12.67,30.13-10.65,26.74,13.04-2.95,20.67-34.59,26.55-53.51,1.94-20.19-26.26-2.25-55.87,4.04-65.19,6.29-9.32,6.91-29.55-15.47-40.59-16.63-8.21-33.12,5.36-33.79,17.31-.27,4.78,4.98,7.74,9.22,5.78,12.02-5.57,24.83,11.39,11.22,23.37-15.35,13.51-49.16-8.15-35.85-43.81,9.21-24.68,37.44-36.73,61.96-27.61,15.23,5.66,26.35,20.91,29.88,26.48,4.2,6.62,6.52,9.71,10.81,9.5,7.91-.39,57.5-6.67,89.91,36.97,21.12,28.45,23.17,54.39,22.46,73.42-.26,6.93,1.88,11.89,4.29,15.44,18.38,27,92.79,41.58,126.64-11.62,32.55-51.17-7.7-87.63-27.79-90.5-19.73-2.81-44.88,17.31-24.7,38.92,3.55,3.81,7.99,2,6.66-2.98-3.7-13.87,20.72-18.77,23.44-.23,4.21,28.57-40.98,42.77-64.22,15.7-24.31-28.34-.89-73.87,29.3-85.23,17.92-6.74,18.29-65.69-21.06-75.26-42.51-10.34-60.91,27.55-40.67,50.37,6.45,7.27,16.02,7.63,11.73-5.08-6.48-19.17,25.45-31.04,31.87-2.89,6.19,27.13-43.77,58.59-71.84,14.22-23.56-37.24,3.71-79.12,36.62-89.12,16.79-5.11,18.33-63.78-20.2-69.24-41.46-5.88-51.27,35.28-31.39,51.58,6.78,5.56,13.69,1.21,8.36-5.37-12.34-15.21,17.74-32.54,25.7-6.72,6.62,21.47-26.88,52.17-61.85,26.6-26.42-19.33-22.72-59.57-8.46-73.18,10.81-10.32-7.15-42.36-38.1-43.81-27.69-1.28-46.72,22.7-47.68,35.83-1.21,16.49,7.78,26.69,17.58,29.19,5.85,1.49,8.98-4.27,5-8.8h0ZM165.99,670.37c8.42-22.68,35.37-14.73,25.64,16.15-21.14,67.09-75.46,126.18-113.27,151.7-15.83,10.68-34.91-6.82-11.1-23.68,20.03-14.18,69.82-66.23,98.72-144.16h0Zm882.91,119.71c-17.86-1.67-26.01,16.56,3.97,23.26,22.88,5.11,99.12,1.64,148.02-26.96,18.75-10.97,10.26-30.19-6.72-22.06-39.16,18.75-81.8,31.69-145.27,25.76h0Zm-831.38-38.25c-6.18,11.93,9.63,26.86,21.8,9.03,20.53-30.09,34.99-76.46,36.13-111.25.74-22.75-22.99-29.89-25.62-6.14-4.21,38-14.29,73.58-32.32,108.36h0Zm979.92-59.74c-13.11,9.27-18.45,20.01-16.27,25.95,2.17,5.93,11.87,7.06,28.82-2.91,40.32-23.69,22.53-47.86-12.55-23.04h0Zm-476.24,26.06c10.38,1.12,17.33-4.15,18.31-10.26.98-6.11-4.01-13.06-17.52-15.27-24.43-4.02-31.12,22.27-.79,25.54h0Zm236.04-10.96c14.34,4.4,27.78-14.76,1.73-22.59-39.44-11.85-168.19-147.83-296.03-126.01-26.88,4.59-21.98,32.87,3.62,31.05,140.2-9.96,203.93,90.92,290.68,117.54h0Zm-827.21-48.08c-4.51,8.61-11.53,9.58-16.28,6.32-4.74-3.26-7.2-10.76-2.58-19.09,10.94-19.73,29.39-7.29,18.86,12.78h0Zm180.44-113.72c-.27-9.72,5.39-14,11.12-13.47,5.73.53,11.54,5.87,11.58,15.4.1,22.56-22.08,20.72-22.7-1.93h0Zm355.17-14.48c12.51-2.22,18.55-9.43,17.32-15.53-1.23-6.1-9.73-11.11-26.32-8.94-29.99,3.92-27.57,30.96,9,24.48h0Zm289.1-77.3c-12.62-6.37-7.88-22.68,11.84-17.74,36.6,9.16,60.59,56.38,99.09,46.33,14.87-3.88,22.17,16.85,5.47,22.78-43.89,15.58-72.76-29.36-116.4-51.36h0Zm321,34.39c-16.15-6.88-15.75,8.68-1.23,14.05,24.11,8.92,44.72,7.77,57.99-5.02,11.45-11.02,1.12-19.06-8.4-11.09-11.64,9.74-34.42,7.99-48.36,2.06h0Zm-942.24-10.04c-.3,11.86-16.84,20.4-19.17-5.82-5.38-60.64,46.04-101.78,66.98-108.84,14.16-4.77,14.12,8.54,2.09,16.84-12.03,8.3-48.33,36.57-49.9,97.82h0Zm-100.17-12.23c4.13-4.84,8.85-5.83,11.54-3.61,2.69,2.21,3.34,7.63-.66,15.59-10.35,20.62-28.67,8.87-10.87-11.98h0Zm536.56,20.85c23.29,8.79,30.32-16.52,9.6-26.1-27.37-12.65-94.98-26.72-146.42-5.79-23.13,9.42-14.71,28.15,4.88,23.21,28.13-7.07,77.52-11.85,131.93,8.67h0Zm-562.56-20.02c-11.83,15.98-35.55,9.79-20.57-7.3,17.48-19.94,21.22-56.09,19.16-81.23-1.62-19.78,9.78-20.24,15.61-2.61,7.97,24.15,3.23,67.58-14.19,91.13h0Zm1064.37-5.65c-6.01-1.13-9.2.9-9.3,3.56-.1,2.66,2.87,5.96,9.19,7.36,8.57,1.91,13.12-8.48.11-10.92h0Zm-1111.91,1.35c-7.55,9.37-24.08,7.04-13.75-9.72,12.3-19.98,29.35-73.16-8.44-120.13-10.67-13.26-22.69-3.38-12.37,10.7,12.05,16.45,19.26,43.33,16,57.11-3.27,13.77-18.25,14.84-16.72-.22,2.22-21.78-9.67-44.97-28.96-58.12-14.05-9.57-14.67-16.15,1.33-30.5,19.02-17.05,16.48-47.43-6.36-58.95-20.18-10.18-33.02-1.79-37.78,3.44-8.85,9.76.51,17.57,7.43,12.54,6.92-5.04,23.13-.31,26.17,13.78,3.04,14.08-12.67,29.82-34.34,27.14-24.24-3-39.67-32.04-19.37-61.51,18.17-26.35,74.94-25.84,109.92,12.41,47.65,52.11,60.31,148.52,17.26,202.02h0Zm878.24-8.16c16.18,3.65,22.37-14.56,7.94-17.03-16.49-2.83-31.47-23.2-46.42-28.29-15.26-5.2-17.39,11.36-4.24,16.07,8.12,2.91,26.86,25.68,42.71,29.25h0Zm-337.41-37.34c13.19.88,17.37-22.6-6.62-25.95-31.48-4.39-68.98,1.54-89.87,13.84-24.37,14.35-8.35,33.15,4.67,25.82,27.58-15.54,63.29-15.62,91.82-13.71h0Zm229.5-156.27c-1.95-5.21,2.37-14.2,16.1-8.22,27.84,12.12,31.79,53.15,1.82,66.12-33.51,14.5-72.36,6.77-124.68-50.28-65.45-71.35-136.21-93.66-190.02-80.46-19.61,4.82-16.4,19.66-.85,18.64,13.1-.86,43.79-4.74,67.07,5.58,14.24,6.32,7.44,18.7-3.93,16.08-87.26-20.07-155.35,28.08-172.07,49.4-13.61,17.36-.59,28.79,12.56,16.8,108.42-98.86,238.24-15.79,285.14,12.38,13.33,8,8.46,21.81-6.85,15.01-20.63-9.18-128.89-80.11-200.17-40.36-17.29,9.64-12.16,27.12,6.56,19.7,36.15-14.34,85.76-6.29,108.55,7.4,20.1,12.07,12.89,24.76-2.4,18.15-53.38-23.09-108.8-2.78-126,14.18-14.97,14.76-1.74,29.01,12.89,18.87,68.35-47.36,199.02,23.66,249.35,39.09,61.38,18.81,136.67-6.45,152.81-71.17,18.52-74.3-56.4-133.05-106.65-108.46-40.17,19.66-32.52,61.57-11.4,70.02,18.72,7.48,41.37-3.76,32.15-28.47h0Zm271.95,109.03c-3.94,4.48-8.58,5.04-11.08,2.92-2.51-2.11-2.9-6.88,1.65-13.08,9.11-12.4,19.85-1.68,9.43,10.15h0Zm-25.98-78.13c-.11-12.8,17.44-13.56,17.9,5.41.46,18.97-10.99,50.85-17.63,61.13-8.15,12.6-17.88,4.66-12.66-5.92,5.22-10.58,12.61-35.12,12.39-60.62h0Zm-307.6,39.16c-12.54-8.38-20.5,2.51-9.49,11.65,31.86,26.46,79.83,27.06,98.28,5.12,9.26-11.02,1.71-19.1-8.41-10.88-14.84,12.04-49.24,14.92-80.37-5.89h0Zm278.94,7.21c-2.26,5.51-6.46,7.56-9.52,6.39-3.06-1.17-4.98-5.55-2.71-12.9,4.56-14.7,18.21-8.08,12.23,6.51h0Zm-565.26-14.65c6.67-6.09,8.3-14.5,5.15-19.08-3.15-4.58-11.08-5.32-23.52,3.9-24.87,18.46-6.3,37.69,18.37,15.18h0Zm536.25-4.46c-2.5,10.15-13.76,9.95-12.29-3.3,2.24-20.28-2.71-45.35-10.27-60.95-7.55-15.6,8.03-20.97,17.3.25,7.16,16.38,9.51,46.73,5.27,64h0Zm36.86-19.21c-1.91,11.3-11.77,7.87-11.28-4.04.61-14.82-4.85-32.71-9.23-41.86-4.39-9.15,8.41-18.95,15.77-1.91,7.36,17.04,6.02,40.25,4.75,47.81h0Zm-571.48-84.46c12.1-3.47,13.55-18.16-7.3-16.37-19.76,1.69-62.99,22.81-80.4,51.71-8.28,13.75,4.29,21.58,12.37,11.17,9.65-12.43,35.4-35.07,75.33-46.51h0Zm246.35,33.03c11.17,14.54,25.28-.18,12.98-19.03-36.82-56.42-113.04-85.54-150.67-83.51-19.36,1.04-21.39,17.32-5.27,17.72,49.24,1.24,105.5,36.09,142.95,84.81h0Zm171.98-92.98c-20.45-28.91,43.44-42.66,32.07,7-8.25,36.03-61.3,39.51-82.67-2.09-11.05-21.53-9.22-43.01-25.51-57.09-20.83-18.01-74.22-12.8-78.88,26.56-1.5,12.67,10.45,15.73,15.28,5.07,8.46-18.66,31.42-15.65,36.9,7.84,3.97,17.06-9.07,33.58-34.56,32.87-17.13-.48-43.33-22.11-43.07-58.64.3-42.17,46.89-73.45,99.42-60.66,14.41,3.51,18.52-4.22,21.36-8.35,18.3-26.64,50.62-50.45,102.92-47.22,68.51,4.23,97.65,43.8,107.33,58.76,11.57,17.87-5.04,23.9-11.76,16.2-34.59-39.65-71.7-41.93-82.19-41.05-14.61,1.22-12.38,13.26-3.51,15.52,13.01,3.31,33.48,14.82,42.9,26.17,12.27,14.8-.85,23.55-8.08,15.48-8.97-10.02-30.07-21.39-43.13-21.68-13.05-.28-17.25,9.69-6.17,13.74,8.96,3.28,21.21,13.37,25.89,21.3,4.18,7.09-.7,18.43-10.85,9.77-19.04-16.22-50.69-23.25-70.21-.91-15.71,17.98-4.53,40.06,7.55,46.32,7.16,3.71,13.42,1.39,8.97-4.9h0Zm13.55-105.28c15.8-.34,16.08-19.26-3.63-19.15-24.54.13-41.51,16.11-47.02,26.99-5.52,10.87.27,19.63,9.49,10.88,9.81-9.3,20.96-18.29,41.17-18.72h0Z"/>
    </g>
  </g>
</svg>