<?xml version="1.0" encoding="UTF-8"?>
<svg id="_レイヤー_2" data-name="レイヤー 2" xmlns="http://www.w3.org/2000/svg" viewBox="0 0 987.95 987.95">
  <defs>
    <style>
      .cls-1 {
        fill: #8e7344;
      }
    </style>
  </defs>
  <g id="Layer_1" data-name="Layer 1">
    <g>
      <path class="cls-1" d="m961.12,467.16h-59.46c-9.84,0-18.44,5.3-23.11,13.2h-173.77c-4.61-7.63-13-12.74-22.57-12.74h-31.49c-9.57,0-17.95,5.1-22.57,12.74h-47.97c-2.18-13.94-7.67-26.78-15.63-37.72l33.92-33.92c8.67,2.13,18.2-.18,24.97-6.95l22.26-22.27c6.77-6.77,9.09-16.31,6.95-24.97l37.59-37.6c1.59,1.76,3.15,3.54,4.69,5.35,35.3,41.27,58.1,93.55,62.55,150.98h85.16c-4.73-80.86-36.97-154.33-87.49-211.19-1.58-1.77-3.17-3.53-4.77-5.27l25.14-25.14c8.89,2.29,18.71-.04,25.68-7.01l42.05-42.04c10.47-10.48,10.47-27.46,0-37.94-5.24-5.23-12.1-7.85-18.97-7.85s-13.73,2.62-18.97,7.85l-42.04,42.05c-6.96,6.96-9.29,16.79-7.01,25.68l-122.87,122.88c-8.66-2.14-18.2.18-24.97,6.95l-22.27,22.26c-6.77,6.77-9.08,16.31-6.95,24.97l-33.92,33.93c-10.93-7.96-23.77-13.45-37.72-15.63v-47.97c7.63-4.61,12.74-13,12.74-22.57v-31.49c0-9.57-5.1-17.95-12.74-22.57v-53.17c2.38.12,4.74.27,7.1.45,57.42,4.45,109.7,27.25,150.98,62.54l60.21-60.21c-56.86-50.52-130.33-82.76-211.19-87.49-2.36-.13-4.73-.25-7.1-.34v-35.55c7.9-4.67,13.2-13.27,13.2-23.11V26.83c0-14.82-12-26.83-26.82-26.83s-26.82,12.01-26.82,26.83v59.46c0,9.84,5.3,18.44,13.2,23.11v173.77c-7.63,4.61-12.74,13-12.74,22.57v31.49c0,9.57,5.1,17.95,12.74,22.57v47.97c-13.94,2.18-26.78,7.67-37.72,15.63l-33.92-33.93c2.13-8.67-.18-18.2-6.95-24.97l-22.27-22.26c-6.77-6.77-16.31-9.09-24.97-6.95l-37.6-37.6c1.76-1.59,3.54-3.15,5.35-4.69,41.27-35.29,93.55-58.09,150.98-62.54v-85.16c-80.86,4.73-154.33,36.97-211.19,87.49-1.77,1.58-3.53,3.17-5.27,4.77l-25.14-25.14c2.29-8.89-.04-18.71-7.01-25.68l-42.04-42.05c-10.48-10.47-27.46-10.47-37.94,0-5.23,5.24-7.85,12.1-7.85,18.97s2.62,13.73,7.85,18.97l42.05,42.04c6.96,6.96,16.79,9.29,25.68,7.01l122.88,122.87c-2.14,8.66.18,18.2,6.95,24.97l22.26,22.27c6.77,6.77,16.31,9.08,24.97,6.95l33.92,33.92c-7.96,10.93-13.45,23.77-15.63,37.72h-47.97c-4.61-7.63-13-12.74-22.57-12.74h-31.49c-9.57,0-17.95,5.1-22.57,12.74h-53.17c.12-2.38.27-4.74.45-7.1,4.45-57.43,27.25-109.7,62.55-150.98l-60.22-60.21c-50.52,56.86-82.76,130.33-87.49,211.19-.13,2.36-.25,4.73-.34,7.1h-35.55c-4.67-7.9-13.27-13.2-23.11-13.2H26.83c-14.82,0-26.83,12-26.83,26.82s12.01,26.82,26.83,26.82h59.46c9.84,0,18.44-5.3,23.11-13.2h173.77c4.61,7.63,13,12.74,22.57,12.74h31.49c9.57,0,17.95-5.1,22.57-12.74h47.97c2.18,13.94,7.67,26.78,15.63,37.72l-33.92,33.92c-8.67-2.13-18.2.18-24.97,6.95l-22.26,22.27c-6.77,6.77-9.09,16.31-6.95,24.97l-37.6,37.6c-1.59-1.76-3.15-3.55-4.69-5.35-35.29-41.27-58.09-93.55-62.54-150.98h-85.16c4.73,80.86,36.97,154.33,87.49,211.19,1.58,1.77,3.17,3.53,4.77,5.27l-25.14,25.14c-8.89-2.29-18.71.04-25.68,7.01l-42.05,42.04c-10.47,10.48-10.47,27.46,0,37.94,5.24,5.23,12.1,7.85,18.97,7.85s13.73-2.62,18.97-7.85l42.04-42.05c6.96-6.96,9.29-16.79,7.01-25.68l122.87-122.88c8.66,2.14,18.2-.18,24.97-6.95l22.27-22.26c6.77-6.77,9.08-16.31,6.95-24.97l33.92-33.93c10.93,7.96,23.77,13.45,37.72,15.63v47.97c-7.63,4.61-12.74,13-12.74,22.57v31.49c0,9.57,5.1,17.95,12.74,22.57v53.18c-2.38-.12-4.74-.27-7.1-.45-57.43-4.44-109.7-27.24-150.98-62.55l-60.21,60.21c56.86,50.52,130.33,82.76,211.19,87.49,2.36.13,4.73.25,7.1.34v35.55c-7.9,4.67-13.2,13.27-13.2,23.11v59.46c0,14.82,12,26.83,26.82,26.83s26.82-12.01,26.82-26.83v-59.46c0-9.84-5.3-18.44-13.2-23.11v-173.77c7.63-4.61,12.74-13,12.74-22.57v-31.49c0-9.57-5.1-17.95-12.74-22.57v-47.97c13.94-2.18,26.78-7.67,37.72-15.63l33.92,33.93c-2.13,8.67.18,18.2,6.95,24.97l22.27,22.26c6.77,6.77,16.31,9.09,24.97,6.95l37.6,37.59c-1.76,1.6-3.54,3.16-5.35,4.7-41.27,35.3-93.55,58.1-150.98,62.55v85.16c80.86-4.73,154.33-36.97,211.19-87.49,1.77-1.58,3.53-3.17,5.27-4.77l25.14,25.14c-2.29,8.89.04,18.71,7.01,25.68l42.04,42.05c10.48,10.47,27.46,10.47,37.94,0,5.23-5.24,7.85-12.1,7.85-18.97s-2.62-13.73-7.85-18.97l-42.05-42.04c-6.96-6.96-16.79-9.29-25.68-7.01l-122.88-122.87c2.14-8.66-.18-18.2-6.95-24.97l-22.26-22.27c-6.77-6.77-16.31-9.08-24.97-6.95l-33.92-33.92c7.96-10.93,13.45-23.77,15.63-37.72h47.97c4.61,7.63,13,12.74,22.57,12.74h31.49c9.57,0,17.95-5.1,22.57-12.74h53.17c-.12,2.38-.27,4.74-.45,7.1-4.45,57.43-27.25,109.7-62.54,150.98l60.21,60.21c50.52-56.86,82.76-130.33,87.49-211.19.13-2.36.25-4.73.34-7.1h35.55c4.67,7.9,13.27,13.2,23.11,13.2h59.46c14.81,0,26.83-12,26.83-26.82s-12.01-26.82-26.83-26.82Zm-200.06-167.63c2.46,2.81,4.9,5.65,7.3,8.54,2.29,2.96,4.6,5.91,6.83,8.94,1.09,1.53,2.14,3.07,3.22,4.61,1.05,1.55,2.16,3.07,3.17,4.66,8.2,12.59,15.23,25.97,21,39.87,5.77,13.9,10.27,28.33,13.38,43.03.38,1.84.71,3.69,1.06,5.53.33,1.85.72,3.68.99,5.54.53,3.72,1.06,7.43,1.48,11.14.33,3.74.65,7.47.88,11.2.13,3.75.18,7.5.16,11.23-1.04-3.61-2.01-7.21-2.9-10.8-1.01-3.58-1.99-7.14-2.93-10.71-.5-1.77-1.04-3.54-1.55-5.31l-1.52-5.31c-1.06-3.52-2.19-7.02-3.24-10.53-4.42-13.98-9.41-27.72-15-41.22-5.59-13.49-11.78-26.73-18.54-39.75-1.71-3.24-3.47-6.46-5.16-9.73-1.78-3.22-3.58-6.42-5.35-9.68-1.84-3.2-3.7-6.4-5.5-9.65-1.9-3.18-3.78-6.4-5.59-9.69,2.65,2.63,5.27,5.31,7.82,8.06Zm-.15,40.52c7.2,11.31,13.4,23.27,18.55,35.68,5.15,12.4,9.23,25.25,12.15,38.33,2.89,13.09,4.67,26.42,4.79,39.78-3.35-12.93-6.74-25.66-10.73-38.19-3.95-12.53-8.41-24.84-13.42-36.93-5-12.09-10.56-23.96-16.63-35.61-6.05-11.67-12.65-23.08-19.43-34.59,9.36,9.54,17.51,20.23,24.72,31.53Zm6.38-142.2c.73-1.45,1.68-2.74,2.94-3.86l-.09.08c4.69-5.09,9.43-10.13,14.25-15.08,4.82-4.95,9.71-9.84,14.64-14.68,2.47-2.42,4.96-4.83,7.46-7.21,1.25-1.2,2.51-2.39,3.78-3.57.16-.15.32-.3.45-.44.17-.17.33-.33.51-.5.34-.33.7-.63,1.06-.92.72-.59,1.5-1.11,2.29-1.58,3.22-1.87,7.06-2.61,10.65-2.04,3.59.55,6.88,2.37,9.23,4.93-1.38-1.05-2.91-1.87-4.49-2.47-1.6-.56-3.24-.94-4.89-.99-3.3-.1-6.56.8-9.19,2.66-.66.45-1.3.94-1.89,1.48-.29.27-.58.55-.84.84-.14.14-.26.29-.38.44-.16.18-.3.34-.45.5-1.19,1.26-2.37,2.53-3.57,3.78-2.39,2.51-4.79,4.99-7.22,7.47-4.85,4.94-9.75,9.84-14.72,14.67-4.95,4.84-10,9.59-15.1,14.29l-.08.07h-.01c-1.05.79-2.02,1.85-2.74,3.02-.75,1.16-1.24,2.48-1.46,3.86-.2,1.38-.12,2.84.26,4.23.39,1.4,1.04,2.75,1.95,3.95-1.1-1.02-2.02-2.28-2.63-3.7-.62-1.42-.95-3-.89-4.59.07-1.58.45-3.19,1.18-4.64Zm-87.94,103.73c4.12-4.36,8.33-8.61,12.5-12.92l12.64-12.77,12.78-12.64c4.3-4.17,8.56-8.38,12.91-12.49,8.65-8.29,17.4-16.49,26.39-24.44-7.95,8.99-16.15,17.73-24.43,26.39-4.12,4.35-8.33,8.62-12.49,12.92l-12.64,12.77-12.78,12.64c-4.3,4.17-8.56,8.38-12.91,12.49-8.65,8.29-17.4,16.49-26.39,24.43,7.95-8.99,16.15-17.73,24.43-26.39Zm-93.62,77.17c.43-1.41,1.19-2.7,2.4-3.73l-.13.11c2.38-2.6,4.75-5.2,7.17-7.74,2.42-2.55,4.86-5.08,7.34-7.57,2.47-2.5,4.95-4.98,7.48-7.43,2.51-2.46,5.05-4.88,7.63-7.28,1.48-1.58,3.32-2.56,5.29-3.06,2.02-.48,4.07-.35,5.96.09.95.23,1.87.55,2.75.95.87.39,1.72.84,2.51,1.36,1.58,1.04,3,2.27,4.2,3.69-1.49-1.09-3.06-2.03-4.71-2.75-1.63-.74-3.35-1.23-5.06-1.42-.86-.11-1.71-.11-2.55-.05-.83.09-1.64.26-2.41.51-1.52.51-2.91,1.47-3.8,2.65h0s-.09.1-.09.1c-2.39,2.58-4.82,5.12-7.27,7.63-2.45,2.53-4.93,5.01-7.43,7.48-2.49,2.48-5.02,4.92-7.57,7.34-2.55,2.42-5.15,4.79-7.74,7.17l-.1.09-.03.02c-.82.54-1.57,1.46-1.99,2.46-.44,1.02-.59,2.18-.51,3.37.19,2.39,1.27,4.77,2.79,6.84-.98-.84-1.86-1.82-2.58-2.92-.36-.56-.68-1.14-.97-1.76-.27-.62-.48-1.26-.63-1.94-.3-1.33-.36-2.82.07-4.22Zm-40.39-211.15c3.73.23,7.46.55,11.19.88,3.72.43,7.43.96,11.15,1.49,1.86.27,3.69.65,5.54.99,1.85.35,3.69.68,5.54,1.06,14.69,3.1,29.13,7.61,43.03,13.37,13.91,5.76,27.29,12.79,39.88,20.99,1.58,1,3.11,2.11,4.66,3.17,1.54,1.06,3.09,2.12,4.61,3.22,3.02,2.22,5.98,4.54,8.94,6.83,2.88,2.39,5.73,4.83,8.54,7.3,2.75,2.55,5.43,5.17,8.06,7.82-3.29-1.81-6.51-3.68-9.69-5.58-3.26-1.8-6.45-3.66-9.65-5.5-3.25-1.76-6.46-3.56-9.68-5.35-3.27-1.7-6.49-3.45-9.73-5.16-13.02-6.77-26.26-12.96-39.75-18.56-13.49-5.6-27.22-10.58-41.21-15.01l-10.53-3.24c-3.54-.98-7.07-2.04-10.62-3.06-3.56-.94-7.13-1.92-10.71-2.93-3.6-.89-7.2-1.85-10.8-2.9,3.73-.02,7.48.04,11.23.17Zm28.54,28.76c13.09,2.91,25.93,6.99,38.34,12.13,12.41,5.13,24.38,11.34,35.69,18.53,11.29,7.22,21.98,15.38,31.52,24.74-11.51-6.77-22.92-13.37-34.59-19.42-11.65-6.07-23.51-11.63-35.6-16.64-12.09-5.02-24.41-9.48-36.93-13.44-12.52-3.98-25.26-7.38-38.19-10.71,13.36.13,26.69,1.92,39.77,4.81Zm-158.24,5.92c-12.53,3.95-24.84,8.41-36.93,13.42-12.09,5-23.96,10.56-35.61,16.63-11.67,6.05-23.08,12.65-34.59,19.43,9.54-9.36,20.23-17.51,31.53-24.73,11.31-7.2,23.27-13.4,35.68-18.55,12.4-5.15,25.25-9.23,38.33-12.15,13.09-2.89,26.42-4.67,39.78-4.79-12.93,3.35-25.66,6.74-38.19,10.73Zm-116.12,24.61c2.81-2.46,5.65-4.9,8.54-7.3,2.96-2.29,5.91-4.6,8.94-6.83,1.53-1.09,3.07-2.14,4.61-3.22,1.55-1.05,3.07-2.16,4.66-3.17,12.59-8.2,25.97-15.23,39.87-21,13.9-5.77,28.33-10.27,43.03-13.38,1.84-.38,3.69-.71,5.53-1.06,1.85-.33,3.68-.72,5.54-.99,3.72-.53,7.43-1.06,11.15-1.48,3.74-.33,7.47-.65,11.2-.88,3.75-.13,7.5-.18,11.23-.16-3.61,1.04-7.21,2.01-10.8,2.9-3.58,1.01-7.14,1.99-10.71,2.93-1.77.5-3.54,1.04-5.31,1.55l-5.31,1.52c-3.52,1.06-7.02,2.19-10.53,3.24-13.98,4.42-27.72,9.41-41.22,15-13.49,5.59-26.73,11.78-39.75,18.54-3.24,1.71-6.46,3.47-9.73,5.16-3.22,1.78-6.42,3.58-9.68,5.35-3.2,1.84-6.4,3.7-9.65,5.5-3.18,1.9-6.4,3.78-9.69,5.59,2.63-2.65,5.31-5.27,8.06-7.82Zm-92.45-5.95c-1.42.62-3,.95-4.59.89-1.58-.07-3.19-.45-4.64-1.18-1.45-.73-2.74-1.68-3.86-2.94l.08.09c-5.09-4.69-10.13-9.43-15.08-14.25-4.95-4.82-9.84-9.71-14.68-14.64-2.42-2.47-4.83-4.96-7.21-7.46-1.2-1.25-2.39-2.51-3.57-3.78-.15-.16-.3-.32-.44-.45-.17-.17-.33-.33-.5-.51-.33-.34-.63-.7-.92-1.06-.59-.72-1.11-1.5-1.58-2.29-1.87-3.22-2.61-7.06-2.04-10.65.55-3.59,2.37-6.88,4.93-9.23-1.05,1.38-1.87,2.91-2.47,4.49-.56,1.6-.94,3.24-.99,4.89-.1,3.3.8,6.56,2.66,9.19.45.66.94,1.3,1.48,1.89.27.29.55.57.84.84.14.13.29.26.44.38.18.16.34.3.5.45,1.26,1.19,2.53,2.37,3.78,3.57,2.51,2.39,4.99,4.79,7.47,7.22,4.94,4.85,9.84,9.75,14.67,14.72,4.84,4.95,9.59,10,14.29,15.1l.07.08h0c.78,1.06,1.85,2.04,3.01,2.75,1.16.75,2.48,1.24,3.86,1.46,1.38.2,2.84.12,4.23-.26,1.4-.39,2.75-1.04,3.95-1.95-1.02,1.1-2.28,2.02-3.7,2.63Zm94.5,87.66c-4.36-4.12-8.61-8.33-12.92-12.5l-12.77-12.64-12.64-12.78c-4.17-4.3-8.38-8.56-12.49-12.91-8.29-8.65-16.49-17.4-24.44-26.39,8.99,7.95,17.73,16.15,26.39,24.43,4.35,4.12,8.62,8.33,12.92,12.49l12.77,12.64,12.64,12.78c4.17,4.3,8.38,8.56,12.49,12.91,8.29,8.65,16.49,17.4,24.43,26.39-8.99-7.95-17.73-16.15-26.39-24.43Zm85.09,92.09c-.56.36-1.14.68-1.76.97-.62.27-1.26.48-1.94.63-1.33.3-2.82.36-4.22-.07-1.41-.43-2.7-1.19-3.73-2.4l.11.13c-2.6-2.38-5.2-4.75-7.74-7.17-2.55-2.42-5.08-4.86-7.57-7.34-2.5-2.47-4.98-4.95-7.43-7.48-2.46-2.51-4.88-5.05-7.28-7.63-1.58-1.48-2.56-3.32-3.06-5.29-.48-2.02-.35-4.07.09-5.96.23-.95.55-1.87.95-2.75.39-.87.84-1.72,1.36-2.51,1.04-1.58,2.27-3,3.69-4.2-1.09,1.49-2.03,3.06-2.75,4.71-.74,1.63-1.23,3.35-1.42,5.06-.11.86-.11,1.71-.05,2.55.09.83.26,1.64.51,2.41.51,1.52,1.47,2.91,2.65,3.8h.01s.09.09.09.09c2.58,2.39,5.12,4.82,7.63,7.27,2.53,2.45,5.01,4.93,7.48,7.43,2.48,2.49,4.92,5.02,7.34,7.57,2.42,2.55,4.79,5.15,7.17,7.74l.09.1.02.03c.54.82,1.46,1.57,2.46,1.99,1.02.44,2.18.59,3.37.51,2.39-.19,4.77-1.27,6.84-2.79-.84.98-1.82,1.86-2.92,2.58Zm-154.33-57.58c-6.07,11.65-11.63,23.51-16.64,35.6-5.02,12.09-9.48,24.41-13.44,36.93-3.98,12.52-7.38,25.26-10.71,38.19.13-13.36,1.92-26.69,4.81-39.77,2.91-13.09,6.99-25.93,12.13-38.34,5.13-12.41,11.34-24.38,18.53-35.69,7.22-11.29,15.38-21.98,24.74-31.52-6.77,11.51-13.37,22.92-19.42,34.59Zm-64.75,99.5c.23-3.73.55-7.46.88-11.19.43-3.72.96-7.43,1.49-11.15.27-1.86.65-3.69.99-5.54.35-1.85.68-3.69,1.06-5.54,3.1-14.69,7.61-29.13,13.37-43.03,5.76-13.91,12.79-27.29,20.99-39.88,1-1.58,2.11-3.11,3.17-4.66,1.06-1.54,2.12-3.09,3.22-4.61,2.22-3.02,4.54-5.98,6.83-8.94,2.39-2.88,4.83-5.73,7.3-8.54,2.55-2.75,5.17-5.43,7.82-8.06-1.81,3.29-3.68,6.51-5.58,9.69-1.8,3.26-3.66,6.45-5.5,9.65-1.76,3.25-3.56,6.46-5.35,9.68-1.7,3.27-3.45,6.49-5.16,9.73-6.77,13.02-12.96,26.26-18.56,39.75-5.6,13.49-10.58,27.22-15.01,41.21l-3.24,10.53c-.98,3.54-2.04,7.07-3.06,10.62-.94,3.56-1.92,7.13-2.93,10.71-.89,3.6-1.85,7.2-2.9,10.8-.02-3.73.04-7.48.17-11.23Zm-69.55,61.17c-.58,1.44-1.45,2.79-2.62,3.88-1.17,1.08-2.58,1.95-4.11,2.45-1.5.49-3.05.73-4.69.66-6.92.29-13.83.5-20.74.58-6.91.09-13.83.09-20.74.03-3.46-.04-6.91-.09-10.37-.18-1.73-.03-3.46-.09-5.19-.15-.22,0-.44-.01-.63,0-.23,0-.48,0-.71,0-.48-.01-.94-.05-1.41-.1-.92-.1-1.84-.28-2.74-.51-3.58-.95-6.84-3.14-8.96-6.08-2.16-2.93-3.19-6.54-3.05-10.01.23,1.72.74,3.37,1.43,4.92.73,1.53,1.63,2.95,2.75,4.16,2.26,2.4,5.2,4.07,8.38,4.61.79.15,1.58.25,2.39.28.4.01.8.02,1.19,0,.19,0,.39-.01.58-.03.24-.03.45-.03.67-.04,1.73-.06,3.46-.12,5.19-.15,3.46-.08,6.92-.14,10.39-.18,6.93-.06,13.86-.06,20.79.03,6.93.09,13.86.29,20.79.58h.12c1.29.19,2.73.13,4.06-.19,1.35-.29,2.63-.87,3.76-1.7,1.13-.84,2.09-1.92,2.81-3.17.71-1.26,1.21-2.68,1.41-4.17.06,1.5-.18,3.04-.75,4.47Zm128.79-4.83c-5.98.16-11.98.19-17.97.29l-17.97.09-17.97-.1c-5.99-.09-11.98-.13-17.97-.29-11.98-.26-23.96-.65-35.93-1.38,11.98-.73,23.96-1.11,35.93-1.38,5.99-.16,11.98-.2,17.97-.3l17.97-.09,17.97.09c5.99.1,11.98.13,17.97.29,11.98.26,23.96.65,35.94,1.38-11.98.74-23.96,1.13-35.94,1.39Zm125.29,4.95c-.14.65-.32,1.28-.56,1.92-.25.62-.55,1.24-.92,1.82-.74,1.16-1.73,2.25-3.04,2.93-1.25.67-2.64,1.04-4.16.96-3.51.16-7.03.32-10.54.4-3.51.09-7.03.15-10.54.17-3.51.01-7.03,0-10.54-.04-3.51-.04-7.03-.13-10.54-.26h.13c-2.2.09-4.25-.52-6.03-1.58-1.77-1.09-3.13-2.63-4.16-4.28-.51-.83-.94-1.71-1.27-2.61-.34-.89-.62-1.81-.8-2.73-.38-1.85-.52-3.73-.36-5.58.28,1.82.73,3.61,1.39,5.27.63,1.68,1.5,3.24,2.58,4.59.53.68,1.13,1.29,1.77,1.83.65.53,1.34.97,2.06,1.34,1.43.71,3.1,1.02,4.56.82h.13c3.51-.13,7.03-.21,10.54-.26,3.51-.06,7.03-.06,10.54-.04,3.51.02,7.03.08,10.54.17,3.51.09,7.03.25,10.54.4h.14s.04.01.04.01c.96.2,2.14.08,3.14-.33,1.03-.4,1.96-1.13,2.74-2.02,1.55-1.82,2.48-4.27,2.86-6.81.11,1.29.04,2.61-.24,3.9Zm-125.25,184.54c-2.46-2.81-4.91-5.66-7.3-8.54-2.29-2.96-4.61-5.91-6.83-8.94-1.09-1.53-2.15-3.07-3.22-4.61-1.06-1.55-2.17-3.08-3.17-4.66-8.2-12.59-15.23-25.97-20.99-39.88-5.76-13.91-10.26-28.34-13.37-43.03-.38-1.85-.71-3.69-1.06-5.54-.34-1.85-.72-3.68-.99-5.54-.53-3.72-1.06-7.43-1.49-11.15-.33-3.73-.65-7.47-.88-11.19-.13-3.75-.19-7.5-.17-11.23,1.04,3.61,2.01,7.21,2.9,10.8,1.01,3.58,1.99,7.15,2.93,10.71,1.02,3.55,2.08,7.08,3.06,10.62l3.24,10.53c4.43,13.98,9.41,27.72,15.01,41.21,5.6,13.49,11.79,26.73,18.56,39.75,1.71,3.24,3.46,6.47,5.16,9.73,1.78,3.22,3.58,6.42,5.35,9.68,1.84,3.2,3.7,6.4,5.5,9.65,1.9,3.18,3.77,6.4,5.58,9.69-2.65-2.63-5.27-5.31-7.82-8.06Zm.14-40.52c-7.19-11.31-13.4-23.28-18.53-35.69-5.14-12.41-9.22-25.25-12.13-38.34-2.89-13.08-4.68-26.41-4.81-39.77,3.34,12.93,6.73,25.67,10.71,38.19,3.95,12.53,8.42,24.85,13.44,36.93,5.01,12.09,10.57,23.95,16.64,35.6,6.05,11.67,12.65,23.08,19.42,34.59-9.36-9.54-17.52-20.22-24.74-31.52Zm-6.37,142.19c-.73,1.45-1.68,2.74-2.94,3.86l.09-.08c-4.69,5.09-9.43,10.13-14.25,15.08-4.82,4.95-9.71,9.84-14.64,14.68-2.47,2.42-4.95,4.83-7.46,7.21-1.25,1.2-2.51,2.39-3.78,3.57-.16.15-.32.3-.45.44-.17.17-.33.33-.51.5-.34.33-.7.63-1.06.92-.72.59-1.5,1.11-2.29,1.58-3.22,1.87-7.06,2.61-10.65,2.04-3.59-.55-6.88-2.37-9.23-4.93,1.38,1.05,2.91,1.87,4.49,2.47,1.6.56,3.24.94,4.89.99,3.3.1,6.56-.8,9.19-2.66.66-.45,1.3-.94,1.89-1.48.29-.27.58-.55.84-.84.13-.14.26-.29.38-.44.16-.18.31-.34.45-.5,1.19-1.26,2.37-2.53,3.57-3.78,2.39-2.51,4.79-4.99,7.22-7.47,4.85-4.94,9.75-9.84,14.72-14.67,4.96-4.84,10-9.59,15.1-14.29l.08-.07h.01c1.05-.79,2.02-1.85,2.74-3.02.75-1.16,1.24-2.48,1.46-3.86.2-1.38.12-2.84-.26-4.23-.39-1.4-1.04-2.75-1.95-3.95,1.1,1.02,2.02,2.28,2.63,3.7.62,1.42.95,3,.89,4.59-.07,1.58-.45,3.19-1.18,4.64Zm87.94-103.73c-4.12,4.36-8.33,8.61-12.5,12.92l-12.64,12.77-12.78,12.64c-4.3,4.17-8.56,8.38-12.91,12.49-8.65,8.29-17.4,16.49-26.39,24.44,7.95-8.99,16.15-17.73,24.43-26.39,4.12-4.35,8.33-8.62,12.49-12.92l12.64-12.77,12.78-12.64c4.3-4.17,8.56-8.38,12.91-12.49,8.65-8.29,17.4-16.49,26.39-24.43-7.95,8.99-16.15,17.73-24.43,26.39Zm93.62-77.17c-.43,1.41-1.19,2.7-2.4,3.73l.13-.11c-2.38,2.6-4.75,5.2-7.17,7.74-2.42,2.55-4.86,5.08-7.34,7.57-2.47,2.5-4.95,4.98-7.48,7.43-2.51,2.46-5.05,4.88-7.63,7.28-1.48,1.58-3.32,2.56-5.29,3.06-2.02.48-4.07.35-5.96-.09-.95-.23-1.87-.55-2.75-.95-.87-.39-1.72-.84-2.51-1.36-1.58-1.04-3-2.27-4.2-3.69,1.49,1.1,3.06,2.03,4.71,2.75,1.63.74,3.35,1.23,5.06,1.42.86.11,1.71.11,2.55.05.83-.09,1.64-.26,2.41-.51,1.52-.51,2.91-1.47,3.8-2.65h0s.09-.1.09-.1c2.39-2.58,4.82-5.12,7.27-7.63,2.45-2.53,4.93-5.01,7.43-7.48,2.49-2.48,5.02-4.92,7.57-7.34,2.55-2.42,5.15-4.79,7.74-7.17l.1-.09.03-.02c.82-.54,1.57-1.46,1.99-2.46.44-1.02.59-2.18.51-3.37-.19-2.39-1.27-4.77-2.79-6.84.98.84,1.86,1.82,2.58,2.92.36.56.68,1.14.97,1.76.27.62.48,1.26.63,1.94.3,1.33.36,2.82-.07,4.22Zm40.39,211.16c-3.73-.23-7.46-.55-11.2-.88-3.72-.43-7.43-.95-11.15-1.48-1.86-.27-3.69-.66-5.54-.99-1.84-.35-3.69-.68-5.53-1.06-14.7-3.11-29.13-7.61-43.03-13.38-13.91-5.77-27.29-12.8-39.87-21-1.59-1.01-3.11-2.12-4.66-3.17-1.54-1.07-3.09-2.13-4.61-3.22-3.02-2.23-5.98-4.54-8.94-6.83-2.89-2.4-5.73-4.83-8.54-7.3-2.75-2.55-5.44-5.16-8.06-7.82,3.29,1.81,6.51,3.68,9.69,5.59,3.25,1.8,6.45,3.66,9.65,5.5,3.25,1.77,6.46,3.57,9.68,5.35,3.27,1.69,6.49,3.45,9.73,5.16,13.02,6.76,26.26,12.96,39.75,18.54,13.49,5.59,27.23,10.58,41.22,15,3.51,1.05,7.01,2.17,10.53,3.24l5.31,1.52c1.77.51,3.54,1.05,5.31,1.55,3.57.94,7.13,1.92,10.71,2.93,3.6.89,7.2,1.86,10.8,2.9-3.73.02-7.48-.04-11.23-.16Zm-28.55-28.76c-13.08-2.92-25.93-6.99-38.33-12.15-12.41-5.15-24.37-11.35-35.68-18.55-11.29-7.21-21.98-15.37-31.53-24.73,11.51,6.78,22.91,13.38,34.59,19.43,11.65,6.07,23.52,11.63,35.61,16.63,12.1,5.01,24.41,9.48,36.93,13.42,12.53,3.98,25.26,7.38,38.19,10.73-13.36-.12-26.69-1.9-39.78-4.79Zm158.25-5.92c12.53-3.95,24.85-8.42,36.93-13.44,12.09-5.01,23.95-10.57,35.6-16.64,11.67-6.05,23.08-12.65,34.59-19.42-9.54,9.36-20.22,17.52-31.52,24.74-11.31,7.19-23.28,13.4-35.69,18.53-12.41,5.14-25.25,9.22-38.34,12.13-13.08,2.89-26.41,4.68-39.77,4.81,12.93-3.34,25.67-6.73,38.19-10.71Zm116.13-24.62c-2.81,2.46-5.66,4.91-8.54,7.3-2.96,2.29-5.91,4.61-8.94,6.83-1.53,1.09-3.07,2.15-4.61,3.22-1.55,1.06-3.08,2.17-4.66,3.17-12.59,8.2-25.97,15.23-39.88,20.99-13.91,5.76-28.34,10.26-43.03,13.37-1.85.38-3.69.71-5.54,1.06-1.85.34-3.68.72-5.54.99-3.72.53-7.43,1.06-11.15,1.49-3.73.33-7.47.65-11.19.88-3.75.13-7.5.19-11.23.17,3.61-1.04,7.21-2.01,10.8-2.9,3.58-1.01,7.15-1.99,10.71-2.93,3.55-1.02,7.08-2.08,10.62-3.06l10.53-3.24c13.98-4.43,27.72-9.41,41.21-15.01,13.49-5.6,26.73-11.79,39.75-18.56,3.24-1.71,6.47-3.46,9.73-5.16,3.22-1.78,6.42-3.58,9.68-5.35,3.2-1.84,6.4-3.7,9.65-5.5,3.18-1.9,6.4-3.77,9.69-5.58-2.63,2.66-5.31,5.27-8.06,7.82Zm92.44,5.94c1.42-.62,3-.95,4.59-.89,1.58.07,3.19.45,4.64,1.18,1.45.73,2.74,1.68,3.86,2.94l-.08-.09c5.09,4.69,10.13,9.43,15.08,14.25,4.95,4.82,9.84,9.71,14.68,14.64,2.42,2.47,4.83,4.95,7.21,7.46,1.2,1.25,2.39,2.51,3.57,3.78.15.16.3.32.44.45.17.17.33.33.5.51.33.34.63.7.92,1.06.59.72,1.11,1.5,1.58,2.29,1.87,3.22,2.61,7.06,2.04,10.65-.55,3.59-2.37,6.88-4.93,9.23,1.05-1.38,1.87-2.91,2.47-4.49.56-1.6.94-3.24.99-4.89.1-3.3-.8-6.56-2.66-9.19-.45-.66-.94-1.3-1.48-1.89-.27-.29-.55-.57-.84-.84-.14-.13-.29-.26-.44-.38-.18-.16-.34-.3-.5-.45-1.26-1.19-2.53-2.37-3.78-3.57-2.51-2.39-4.99-4.79-7.47-7.22-4.94-4.85-9.84-9.75-14.67-14.72-4.84-4.95-9.59-10-14.29-15.1l-.07-.08h0c-.78-1.06-1.85-2.04-3.01-2.75-1.16-.75-2.48-1.24-3.86-1.46-1.38-.2-2.84-.12-4.23.26-1.4.39-2.75,1.04-3.95,1.95,1.02-1.1,2.28-2.02,3.7-2.63Zm-94.5-87.66c4.36,4.12,8.61,8.33,12.92,12.5l12.77,12.64,12.64,12.78c4.17,4.3,8.38,8.56,12.49,12.91,8.29,8.65,16.49,17.4,24.44,26.39-8.99-7.95-17.73-16.15-26.39-24.43-4.35-4.12-8.62-8.33-12.92-12.49l-12.77-12.64-12.64-12.78c-4.17-4.3-8.38-8.56-12.49-12.91-8.29-8.65-16.49-17.4-24.43-26.39,8.99,7.95,17.73,16.15,26.39,24.43Zm-85.09-92.09c.56-.36,1.14-.68,1.76-.97.62-.27,1.26-.48,1.94-.63,1.33-.3,2.82-.36,4.22.07,1.41.43,2.7,1.19,3.73,2.4l-.11-.13c2.6,2.38,5.2,4.75,7.74,7.17,2.55,2.42,5.08,4.86,7.57,7.34,2.5,2.47,4.98,4.95,7.43,7.48,2.46,2.51,4.88,5.05,7.28,7.63,1.58,1.48,2.56,3.32,3.06,5.29.48,2.02.35,4.07-.09,5.96-.23.95-.55,1.87-.95,2.75-.39.87-.84,1.72-1.36,2.51-1.04,1.58-2.27,3-3.69,4.2,1.1-1.49,2.03-3.06,2.75-4.71.74-1.63,1.23-3.35,1.42-5.06.11-.86.11-1.71.05-2.55-.09-.83-.26-1.64-.51-2.41-.51-1.52-1.47-2.91-2.65-3.81h-.01s-.09-.09-.09-.09c-2.58-2.39-5.12-4.82-7.63-7.27-2.53-2.45-5.01-4.93-7.48-7.43-2.48-2.49-4.92-5.02-7.34-7.57-2.42-2.55-4.79-5.15-7.17-7.74l-.09-.1-.02-.03c-.54-.82-1.46-1.57-2.46-1.99-1.02-.44-2.18-.59-3.37-.51-2.39.19-4.77,1.27-6.84,2.79.84-.98,1.82-1.86,2.92-2.58Zm-120.98-491.83c-1.08-1.17-1.95-2.58-2.45-4.11-.49-1.5-.73-3.05-.66-4.69-.29-6.92-.5-13.83-.58-20.74-.09-6.91-.09-13.83-.03-20.74.04-3.46.09-6.91.18-10.37.03-1.73.09-3.46.15-5.19,0-.22.01-.44,0-.63,0-.23,0-.48,0-.71.01-.48.05-.94.1-1.41.1-.92.28-1.84.51-2.74.95-3.58,3.14-6.84,6.08-8.96,2.93-2.16,6.54-3.19,10.01-3.05-1.72.23-3.37.74-4.92,1.43-1.53.73-2.95,1.63-4.16,2.75-2.4,2.26-4.07,5.2-4.61,8.38-.15.79-.25,1.58-.28,2.39-.01.4-.02.8,0,1.19,0,.19.01.39.03.58.03.24.03.45.04.67.06,1.73.12,3.46.15,5.19.09,3.46.14,6.92.18,10.39.06,6.93.06,13.86-.03,20.79-.09,6.93-.29,13.86-.58,20.79v.11h0c-.18,1.31-.12,2.75.2,4.07.29,1.35.87,2.63,1.7,3.76.84,1.13,1.92,2.09,3.17,2.81,1.26.71,2.68,1.21,4.17,1.41-1.5.06-3.04-.18-4.47-.75-1.44-.58-2.79-1.45-3.88-2.62Zm11.87,95.48l-.09,17.97c-.1,5.99-.13,11.98-.29,17.97-.26,11.98-.65,23.96-1.38,35.94-.74-11.98-1.13-23.96-1.39-35.94-.16-5.98-.19-11.98-.29-17.97l-.09-17.97.1-17.97c.09-5.99.13-11.98.29-17.97.26-11.98.65-23.96,1.38-35.93.73,11.98,1.11,23.96,1.38,35.93.16,5.99.2,11.98.3,17.97l.09,17.97Zm-11.85,159.74c-1.16-.74-2.25-1.73-2.93-3.04-.67-1.25-1.04-2.64-.96-4.16-.16-3.51-.32-7.03-.4-10.54-.09-3.51-.15-7.03-.17-10.54-.01-3.51,0-7.03.04-10.54.04-3.51.13-7.03.26-10.54v.13c-.09-2.2.52-4.25,1.58-6.03,1.09-1.77,2.63-3.13,4.28-4.16.83-.51,1.71-.94,2.61-1.27.89-.34,1.81-.62,2.73-.8,1.85-.38,3.73-.52,5.58-.36-1.82.28-3.61.73-5.27,1.39-1.68.63-3.24,1.5-4.59,2.58-.68.53-1.29,1.13-1.83,1.77-.53.65-.97,1.34-1.34,2.06-.71,1.43-1.02,3.1-.82,4.56v.13c.13,3.51.21,7.03.26,10.54.06,3.51.06,7.03.04,10.54-.02,3.51-.08,7.03-.17,10.54-.09,3.51-.25,7.03-.4,10.54v.14s-.01.04-.01.04c-.2.96-.08,2.14.33,3.14.4,1.03,1.13,1.96,2.02,2.74,1.82,1.55,4.27,2.48,6.81,2.86-1.29.11-2.61.04-3.9-.24-.65-.14-1.29-.32-1.92-.56-.62-.25-1.24-.55-1.82-.92Zm27.34,541.87c1.08,1.17,1.95,2.58,2.45,4.11.49,1.5.73,3.05.66,4.69.29,6.92.5,13.83.58,20.74.09,6.91.09,13.83.03,20.74-.04,3.46-.09,6.91-.18,10.37-.03,1.73-.09,3.46-.15,5.19,0,.22-.01.44,0,.63,0,.23,0,.48,0,.71-.01.48-.05.94-.1,1.41-.1.92-.28,1.84-.51,2.74-.95,3.58-3.14,6.84-6.08,8.96-2.93,2.16-6.54,3.19-10.01,3.05,1.72-.23,3.37-.74,4.92-1.43,1.53-.73,2.95-1.63,4.16-2.75,2.4-2.26,4.07-5.2,4.61-8.38.15-.79.25-1.58.28-2.39.01-.4.02-.8,0-1.19,0-.19-.01-.39-.03-.58-.03-.24-.03-.45-.04-.67-.06-1.73-.12-3.46-.15-5.19-.09-3.46-.14-6.92-.18-10.39-.06-6.93-.06-13.86.03-20.79.09-6.93.29-13.86.58-20.79v-.11h0c.18-1.31.12-2.75-.2-4.07-.29-1.35-.87-2.63-1.7-3.76-.84-1.13-1.92-2.09-3.17-2.81-1.26-.71-2.68-1.21-4.17-1.41,1.5-.06,3.04.18,4.47.75,1.44.58,2.79,1.45,3.88,2.62Zm-11.87-95.48l.09-17.97c.1-5.99.13-11.98.29-17.97.26-11.98.65-23.96,1.38-35.94.74,11.98,1.13,23.96,1.39,35.94.16,5.98.19,11.98.29,17.97l.09,17.97-.1,17.97c-.09,5.99-.13,11.98-.29,17.97-.26,11.98-.65,23.96-1.38,35.93-.73-11.98-1.11-23.96-1.38-35.93-.16-5.99-.2-11.98-.3-17.97l-.09-17.97Zm11.85-159.74c1.16.74,2.25,1.73,2.93,3.04.67,1.25,1.04,2.64.96,4.16.16,3.51.32,7.03.4,10.54.09,3.51.15,7.03.17,10.54.01,3.51,0,7.03-.04,10.54-.04,3.51-.13,7.03-.26,10.54v-.13c.09,2.2-.52,4.25-1.58,6.03-1.09,1.77-2.63,3.13-4.28,4.16-.83.51-1.71.94-2.61,1.27-.89.34-1.81.62-2.73.8-1.85.38-3.73.52-5.58.36,1.82-.28,3.61-.73,5.27-1.39,1.68-.63,3.24-1.5,4.59-2.58.68-.53,1.29-1.13,1.83-1.77.53-.65.97-1.34,1.34-2.06.71-1.43,1.02-3.1.82-4.56v-.14c-.13-3.51-.21-7.03-.26-10.54-.06-3.51-.06-7.03-.04-10.54.02-3.51.08-7.03.17-10.54.09-3.51.25-7.03.4-10.54v-.14s.01-.04.01-.04c.2-.96.08-2.14-.33-3.14-.4-1.03-1.13-1.96-2.02-2.74-1.82-1.55-4.27-2.48-6.81-2.86,1.29-.11,2.61-.04,3.9.24.65.14,1.29.32,1.92.56.62.25,1.24.55,1.82.92Zm21.03-81.3c-10.25,6.43-22.47,9.9-34.69,9.88-12.22,0-24.44-3.46-34.68-9.89-10.25-6.4-18.58-15.7-23.26-26.42,7.43,8.98,16.32,16.2,26.25,21.08,9.91,4.91,20.79,7.42,31.7,7.42,10.91-.01,21.78-2.52,31.69-7.43,9.93-4.88,18.82-12.1,26.26-21.07-4.67,10.73-13,20.03-23.26,26.43Zm-74.83-62.02c0-22.16,17.97-40.14,40.14-40.14s40.14,17.97,40.14,40.14-17.97,40.14-40.14,40.14-40.14-17.97-40.14-40.14Zm71.83-56.67c-9.91-4.91-20.78-7.41-31.69-7.43-10.91,0-21.79,2.51-31.7,7.42-9.93,4.88-18.82,12.1-26.25,21.08,4.68-10.72,13.01-20.02,23.26-26.42,10.24-6.43,22.47-9.9,34.68-9.89,12.22-.01,24.44,3.45,34.69,9.88,10.25,6.4,18.58,15.7,23.26,26.43-7.44-8.97-16.33-16.19-26.26-21.08Zm173.49,55.63c-.28-1.82-.73-3.61-1.39-5.27-.63-1.68-1.5-3.24-2.58-4.59-.53-.68-1.13-1.29-1.77-1.83-.65-.53-1.34-.97-2.06-1.34-1.43-.71-3.1-1.02-4.56-.82h-.13c-3.51.13-7.03.21-10.54.26-3.51.06-7.03.06-10.54.04-3.51-.02-7.03-.08-10.54-.17-3.51-.09-7.03-.25-10.54-.4h-.14s-.04-.01-.04-.01c-.96-.2-2.14-.08-3.14.33-1.03.4-1.96,1.13-2.74,2.02-1.55,1.82-2.48,4.27-2.86,6.81-.11-1.29-.04-2.61.24-3.9.14-.65.32-1.28.56-1.92.25-.62.55-1.24.92-1.82.74-1.16,1.73-2.25,3.04-2.93,1.25-.67,2.64-1.04,4.16-.96,3.51-.16,7.03-.32,10.54-.4,3.51-.09,7.03-.15,10.54-.17,3.51-.01,7.03,0,10.54.04,3.51.04,7.03.13,10.54.26h-.13c2.2-.09,4.25.52,6.03,1.58,1.77,1.09,3.13,2.63,4.16,4.28.51.83.94,1.71,1.27,2.61.34.89.62,1.81.8,2.73.38,1.85.52,3.73.36,5.58Zm56.46,151.91c6.07-11.65,11.63-23.52,16.63-35.61,5.01-12.1,9.48-24.41,13.42-36.93,3.98-12.53,7.38-25.26,10.73-38.19-.12,13.36-1.9,26.69-4.79,39.78-2.92,13.08-6.99,25.93-12.15,38.33-5.15,12.41-11.35,24.37-18.55,35.68-7.21,11.29-15.37,21.99-24.72,31.53,6.78-11.51,13.38-22.91,19.43-34.58Zm64.75-99.5c-.23,3.73-.55,7.46-.88,11.2-.43,3.72-.95,7.43-1.48,11.15-.27,1.86-.66,3.69-.99,5.54-.35,1.84-.68,3.69-1.06,5.53-3.11,14.7-7.61,29.13-13.38,43.03-5.77,13.91-12.8,27.29-21,39.87-1.01,1.59-2.12,3.11-3.17,4.66-1.07,1.54-2.13,3.09-3.22,4.61-2.23,3.02-4.54,5.98-6.83,8.94-2.4,2.89-4.83,5.73-7.3,8.54-2.55,2.75-5.16,5.44-7.82,8.06,1.81-3.29,3.68-6.51,5.59-9.69,1.8-3.25,3.66-6.45,5.5-9.65,1.77-3.25,3.57-6.46,5.35-9.68,1.69-3.27,3.45-6.49,5.16-9.73,6.76-13.02,12.96-26.26,18.54-39.75,5.59-13.49,10.58-27.23,15-41.22,1.05-3.51,2.17-7.01,3.24-10.53l1.52-5.31c.51-1.77,1.05-3.54,1.55-5.31.94-3.57,1.92-7.13,2.93-10.71.89-3.6,1.86-7.2,2.9-10.8.02,3.73-.04,7.48-.16,11.23Zm12.62-53.57c-5.99.16-11.98.2-17.97.3l-17.97.09-17.97-.09c-5.99-.1-11.98-.13-17.97-.29-11.98-.26-23.96-.65-35.94-1.38,11.98-.74,23.96-1.13,35.94-1.39,5.98-.16,11.98-.19,17.97-.29l17.97-.09,17.97.1c5.99.09,11.98.13,17.97.29,11.98.26,23.96.65,35.93,1.38-11.98.73-23.96,1.11-35.93,1.38Zm142.87,1.84c-.23-1.72-.74-3.37-1.43-4.92-.73-1.53-1.63-2.95-2.75-4.16-2.26-2.4-5.2-4.07-8.38-4.61-.79-.15-1.58-.25-2.39-.28-.4-.01-.8-.02-1.19,0-.19,0-.39.01-.58.03-.24.03-.45.03-.67.04-1.73.06-3.46.12-5.19.15-3.46.09-6.92.14-10.39.18-6.93.06-13.86.06-20.79-.03-6.93-.09-13.86-.29-20.79-.58h-.12c-1.29-.19-2.73-.13-4.06.19-1.35.29-2.63.87-3.76,1.7-1.13.84-2.09,1.92-2.81,3.17-.71,1.26-1.21,2.68-1.41,4.17-.06-1.5.18-3.04.75-4.47.57-1.44,1.45-2.79,2.62-3.88,1.17-1.08,2.58-1.95,4.11-2.45,1.51-.49,3.05-.73,4.69-.66,6.92-.29,13.83-.5,20.74-.58,6.91-.09,13.83-.09,20.74-.03,3.46.04,6.91.09,10.37.18,1.73.03,3.46.09,5.19.15.22,0,.44.01.63,0,.23,0,.48,0,.71,0,.48.01.94.05,1.41.1.92.1,1.84.28,2.74.51,3.58.95,6.84,3.14,8.96,6.08,2.16,2.93,3.19,6.54,3.05,10.01Z"/>
      <path class="cls-1" d="m339.44,887l2.4-1.06c1.6-.71,3.19-1.43,4.77-2.14,1.58-.72,3.15-1.44,4.7-2.17l1.17-.55,1.17-.57,2.33-1.14-.87-1.9c-.21-.47-.44-.93-.67-1.39-.24-.46-.47-.92-.72-1.37-.5-.9-1.03-1.76-1.6-2.59-1.14-1.66-2.41-3.19-3.81-4.55-.35-.34-.71-.67-1.08-1.01-.36-.33-.73-.66-1.11-.97-.75-.63-1.54-1.22-2.35-1.77-.82-.55-1.66-1.06-2.53-1.52-.43-.24-.87-.45-1.32-.67-.45-.21-.91-.41-1.37-.61-4.29-1.9-8.91-2.6-13.52-2.45-3.26.13-6.59.83-9.81,1.96-3.22,1.16-6.49,2.28-9.79,3.4-3.28,1.07-6.59,2.1-9.95,3.12l-2.52.76c-.85.25-1.69.51-2.53.74-1.68.47-3.37.94-5.07,1.4-1.7.46-3.41.92-5.12,1.37l-2.59.67c-.86.22-1.72.42-2.58.63l.6,2.1c1.23,4.11,3.3,7.92,6.06,11.26,1.4,1.63,2.97,3.13,4.69,4.5,1.73,1.35,3.58,2.6,5.61,3.58,2.36,1.18,4.81,2.08,7.3,2.69.31.07.62.15.93.22.31.06.63.12.94.17.63.1,1.26.2,1.89.26,1.27.14,2.53.21,3.79.21,1.78,0,3.54-.15,5.28-.44,1.75-.32,3.48-.79,5.16-1.4,1.67-.61,3.34-1.23,5-1.85,1.66-.63,3.29-1.23,4.95-1.9,3.29-1.31,6.55-2.65,9.77-4l2.4-1.02Z"/>
      <path class="cls-1" d="m280.91,864.92c1.7-.44,3.4-.91,5.09-1.37,3.39-.94,6.72-1.88,10.04-2.88,3.34-1.03,6.63-2.08,9.89-3.15l-.6-2.01c-1.17-4.01-3.04-7.56-5.42-10.73-1.19-1.56-2.54-3-4.01-4.28-1.46-1.31-3.05-2.51-4.77-3.52-1.01-.6-2.05-1.13-3.11-1.59-.53-.22-1.06-.46-1.59-.67-.53-.21-1.08-.4-1.62-.58-2.18-.71-4.46-1.16-6.78-1.35-3.25-.31-6.6-.13-9.97.61l-2.54.55c-.85.18-1.68.34-2.52.51-1.68.33-3.38.66-5.08.98-3.4.63-6.86,1.28-10.29,1.79-3.44.54-6.92,1.06-10.43,1.55-3.48.45-6.99.86-10.53,1.25l.32,2.14c.33,2.13.87,4.22,1.62,6.23.37,1.02.81,1.98,1.29,2.94.48.95,1.02,1.89,1.59,2.79,1.16,1.81,2.5,3.54,4.02,5.12,1.54,1.56,3.24,2.99,5.09,4.27,1.09.75,2.2,1.44,3.34,2.05,1.16.59,2.34,1.12,3.54,1.58,2.4.91,4.85,1.56,7.34,1.89,3.54.44,7.12.3,10.6-.44,1.73-.36,3.47-.77,5.2-1.18,1.74-.41,3.46-.82,5.17-1.24,1.72-.42,3.42-.84,5.12-1.27Z"/>
      <path class="cls-1" d="m387.48,907.42l1.14-.67,2.27-1.35c3.01-1.8,5.98-3.61,8.91-5.43,2.94-1.87,5.84-3.78,8.69-5.68l-1.11-1.78c-1.1-1.77-2.33-3.39-3.69-4.86-.68-.73-1.38-1.45-2.11-2.13-.73-.67-1.49-1.31-2.27-1.91-1.57-1.19-3.24-2.21-5.01-3.06-1.75-.89-3.6-1.6-5.53-2.13-1.13-.3-2.27-.54-3.42-.7-1.14-.17-2.28-.31-3.43-.36-2.29-.1-4.6.06-6.89.5-3.21.56-6.39,1.63-9.45,3.24-12.17,6.31-24.94,12.2-38.16,17.35l.88,1.98c.88,1.97,1.96,3.84,3.21,5.59,1.27,1.72,2.71,3.31,4.31,4.76.8.72,1.64,1.41,2.51,2.06.44.33.88.64,1.33.95.23.15.45.3.69.45.23.14.47.28.7.42,1.9,1.09,3.92,2.02,6.05,2.77,1.24.44,2.5.82,3.77,1.09,1.27.27,2.55.46,3.83.59,2.55.24,5.09.22,7.58-.11,3.54-.52,6.95-1.6,10.1-3.24.79-.41,1.57-.81,2.36-1.24l2.35-1.28c1.56-.86,3.11-1.71,4.65-2.57,1.54-.86,3.08-1.73,4.59-2.59l1.14-.66Z"/>
      <path class="cls-1" d="m456.91,896.08c-.76-.65-1.56-1.25-2.37-1.81-.82-.56-1.66-1.07-2.51-1.57-1.71-.99-3.51-1.79-5.37-2.42-.93-.3-1.88-.57-2.85-.78-.48-.1-.97-.21-1.45-.3-.49-.1-.98-.18-1.47-.25-2.33-.33-4.65-.36-6.94-.13-.29.03-.58.07-.86.1-.28.03-.57.06-.85.1-.57.08-1.13.17-1.7.29-1.13.23-2.24.52-3.35.88-1.56.51-3.09,1.14-4.59,1.91-1.49.74-2.94,1.59-4.35,2.59-1.4.98-2.81,1.97-4.24,2.95l-2.14,1.47c-.72.49-1.44.99-2.16,1.45-2.88,1.9-5.8,3.78-8.76,5.66-2.97,1.9-5.95,3.67-8.98,5.48-1.52.9-3.05,1.8-4.58,2.69-.77.44-1.54.9-2.31,1.33l-2.32,1.29,1.14,1.86c2.27,3.66,5.29,6.76,8.84,9.25.22.16.44.31.67.45.22.14.45.29.68.43.47.28.93.55,1.41.81.95.51,1.94.98,2.95,1.41,1.01.43,2.05.81,3.11,1.14,1.06.33,2.14.64,3.25.83,5.19.99,10.4.88,15.26-.53,1.71-.48,3.38-1.1,4.97-1.85.8-.37,1.58-.77,2.35-1.23.76-.45,1.52-.94,2.24-1.47,2.91-2.08,5.77-4.17,8.59-6.27l1.06-.79,1.06-.81,2.09-1.62c1.4-1.08,2.78-2.16,4.15-3.25,1.37-1.08,2.73-2.17,4.08-3.25,1.35-1.1,2.7-2.23,4.03-3.35,2.66-2.24,5.28-4.48,7.86-6.73l-1.34-1.63c-1.33-1.62-2.77-3.08-4.31-4.36Z"/>
      <path class="cls-1" d="m450.58,919.92c-.69.56-1.38,1.09-2.07,1.63-2.77,2.17-5.57,4.33-8.42,6.48l1.38,1.68c1.37,1.66,2.9,3.17,4.57,4.52.84.67,1.71,1.3,2.61,1.89.9.57,1.84,1.09,2.81,1.57.76.38,1.54.73,2.34,1.06v-21.47c-.39.33-.78.65-1.18.97l-2.05,1.67Z"/>
      <path class="cls-1" d="m160.6,759.33c-1.75-.21-3.51-.4-5.25-.66-3.47-.48-6.99-.99-10.51-1.55l-.25,2.15c-.24,2.14-.26,4.29-.07,6.44.1,1.06.24,2.14.45,3.19.22,1.04.5,2.08.82,3.11.65,2.05,1.5,4.06,2.54,5.99.51.98,1.11,1.9,1.75,2.81.04.05.06.09.11.14l20.52-20.52c-1.62-.16-3.25-.33-4.88-.51-1.74-.19-3.48-.38-5.22-.6Z"/>
      <path class="cls-1" d="m116.79,703.11c1.7.51,3.39,1.01,5.07,1.5l2.52.72,1.26.36,1.28.34c3.4.91,6.78,1.78,10.13,2.61l2.51.62,2.54.58c1.7.39,3.38.75,5.06,1.12l.5-2.04c.25-1.01.45-2.02.61-3.02.16-1,.25-2,.33-3.01.14-2.01.09-4-.15-5.96-.52-3.88-1.65-7.69-3.61-11.18-.29-.51-.59-1.02-.9-1.51-.3-.49-.62-.98-.95-1.45-.66-.95-1.37-1.86-2.14-2.71-.76-.86-1.58-1.67-2.45-2.44-.43-.39-.88-.75-1.32-1.12-.45-.36-.9-.72-1.37-1.06-2.64-1.92-5.64-3.45-8.93-4.53-3.23-1.09-6.49-2.23-9.75-3.4l-2.46-.89-1.22-.45-1.21-.46c-1.62-.62-3.24-1.25-4.86-1.89-1.62-.64-3.25-1.29-4.89-1.95l-2.46-.99-2.42-1.03c-3.23-1.39-6.47-2.81-9.74-4.27l-.81,2.01c-.8,2-1.39,4.07-1.76,6.18-.19,1.06-.33,2.13-.41,3.2-.08,1.07-.08,2.14-.04,3.21.09,2.15.37,4.31.87,6.45.13.53.26,1.07.41,1.6.15.53.33,1.05.52,1.58.37,1.05.8,2.08,1.28,3.1.56,1.2,1.17,2.35,1.85,3.46.34.56.69,1.1,1.05,1.63.36.53.76,1.04,1.16,1.54,1.61,2,3.42,3.8,5.39,5.36.7.55,1.41,1.08,2.15,1.56.75.48,1.52.93,2.3,1.35,1.57.83,3.21,1.54,4.9,2.1,1.69.56,3.38,1.11,5.05,1.65,1.7.53,3.4,1.04,5.1,1.55Z"/>
      <path class="cls-1" d="m68.31,591.75c.74.49,1.47.98,2.23,1.45,1.51.96,3.01,1.91,4.5,2.85,1.5.94,3,1.87,4.49,2.79,1.5.91,2.97,1.83,4.5,2.71,3.03,1.78,6.05,3.51,9.07,5.21l2.26,1.26,2.3,1.24c1.53.82,3.05,1.62,4.58,2.42l1.02-1.83c.51-.9.97-1.82,1.39-2.75.21-.47.4-.93.59-1.4.09-.24.18-.47.26-.7.09-.24.18-.48.26-.71.68-1.9,1.16-3.84,1.44-5.78.14-.97.24-1.95.28-2.92.02-.49.03-.98.03-1.47.01-.49,0-.98-.01-1.48-.06-1.97-.33-3.93-.8-5.87-.58-2.27-1.32-4.46-2.34-6.53-.51-1.04-1.08-2.04-1.7-3-.63-.97-1.33-1.9-2.04-2.81-2.02-2.55-4.5-4.83-7.38-6.74-1.45-.95-2.84-1.93-4.26-2.9-1.41-.98-2.83-1.97-4.24-2.97-1.41-1.01-2.83-2.02-4.26-3.04-.71-.51-1.4-1.03-2.1-1.55l-2.08-1.56c-2.78-2.1-5.58-4.24-8.37-6.43-2.74-2.19-5.47-4.43-8.21-6.7l-1.32,1.72c-1.31,1.72-2.43,3.56-3.36,5.5-.48.97-.87,1.96-1.22,2.97-.35,1.01-.64,2.04-.9,3.09-.5,2.1-.8,4.26-.9,6.45-.06,2.19.11,4.41.48,6.64.21,1.3.5,2.58.85,3.83.09.31.18.62.28.93.1.3.21.61.32.91.22.6.46,1.2.71,1.79,1.01,2.36,2.27,4.57,3.75,6.6.26.36.52.71.81,1.05.29.34.58.68.87,1.01.59.67,1.21,1.31,1.86,1.91,1.28,1.22,2.67,2.34,4.15,3.33l2.21,1.48Z"/>
      <path class="cls-1" d="m94.7,652.08l2.43,1.06c1.62.7,3.23,1.4,4.84,2.08,1.61.68,3.22,1.36,4.82,2.02.8.33,1.62.66,2.43.98l2.44.95c3.24,1.26,6.46,2.48,9.68,3.66l.78-1.95c.78-1.94,1.37-3.9,1.77-5.87.2-.98.35-1.97.44-2.95.05-.49.09-.98.11-1.48.03-.49.06-.99.07-1.48.04-1.97-.11-3.93-.47-5.86-.18-.97-.41-1.92-.68-2.87-.25-.96-.56-1.9-.91-2.84-.83-2.19-1.92-4.24-3.23-6.14-1.26-1.91-2.75-3.68-4.44-5.27-.6-.56-1.22-1.1-1.87-1.62-.32-.26-.65-.51-.99-.76-.33-.25-.66-.49-1-.74-1.36-.95-2.81-1.82-4.36-2.57-1.54-.76-3.09-1.52-4.63-2.3-.77-.39-1.56-.78-2.32-1.17l-2.29-1.2c-3.05-1.61-6.12-3.27-9.19-4.96l-1.15-.64-1.13-.65-2.27-1.31c-1.51-.88-3.03-1.77-4.55-2.67-1.52-.9-3.04-1.81-4.57-2.73-1.5-.93-3-1.87-4.5-2.82l-1.09,1.89c-.54.94-1.04,1.9-1.47,2.89-.42.98-.79,1.98-1.11,3-.64,2.04-1.08,4.15-1.31,6.3-.06.54-.1,1.08-.13,1.62-.02.27-.03.54-.04.81,0,.28,0,.55,0,.82.01,1.08.07,2.17.19,3.26.22,2.18.66,4.37,1.31,6.53.79,2.52,1.88,4.89,3.17,7.11.65,1.1,1.36,2.16,2.11,3.17.79,1,1.62,1.96,2.51,2.86,1.25,1.27,2.59,2.43,4.01,3.48,1.43,1.04,2.93,1.97,4.56,2.74,3.23,1.55,6.44,3.06,9.64,4.53.8.36,1.59.73,2.4,1.09Z"/>
      <path class="cls-1" d="m147.99,751.5l1.3.21,1.31.2,2.62.39c1.75.25,3.48.49,5.22.72,1.74.24,3.46.46,5.18.67,1.74.2,3.48.39,5.2.57,1.73.18,3.45.36,5.17.52l2.56.24,1.28.11,1.29.1c.07-.7.14-1.38.22-2.08.25-2.08.3-4.13.16-6.14-.07-1-.18-1.99-.35-2.97-.08-.49-.17-.97-.28-1.45-.05-.24-.1-.48-.17-.72-.06-.24-.12-.48-.17-.72-.48-1.91-1.14-3.77-2-5.54-.43-.89-.9-1.75-1.41-2.59-.52-.85-1.05-1.69-1.64-2.5-1.38-1.9-2.97-3.59-4.74-5.07-1.73-1.51-3.63-2.82-5.68-3.91-.72-.38-1.47-.74-2.23-1.06-.76-.33-1.55-.63-2.32-.91-1.56-.56-3.2-1.01-4.88-1.32-1.69-.32-3.38-.65-5.08-.99-.85-.17-1.7-.34-2.55-.52l-2.52-.55c-3.37-.74-6.76-1.52-10.18-2.35-.86-.2-1.7-.42-2.54-.63l-2.54-.66c-1.69-.44-3.39-.89-5.09-1.36-1.7-.46-3.43-.93-5.13-1.41-1.68-.5-3.38-1-5.08-1.52l-.55,2.11c-.27,1.05-.48,2.1-.64,3.17-.16,1.06-.24,2.12-.28,3.19-.07,2.14.07,4.28.42,6.42.18,1.06.39,2.13.69,3.17.3,1.04.64,2.08,1.05,3.09.8,2.04,1.8,4.04,3,5.94,1.43,2.22,3.11,4.22,4.94,6.01.92.89,1.87,1.73,2.88,2.5,1.02.76,2.08,1.45,3.17,2.09,1.54.9,3.14,1.66,4.79,2.29.83.32,1.67.6,2.51.84.86.24,1.74.43,2.62.6,3.52.64,7.01,1.25,10.48,1.82Z"/>
      <path class="cls-1" d="m558.72,914.07l.78-1.06c2.08-2.84,4.11-5.68,6.1-8.5l1.48-2.12c.49-.71.98-1.44,1.46-2.16.97-1.43,1.92-2.88,2.87-4.31l-1.72-1.21c-.84-.6-1.72-1.15-2.6-1.65-.44-.26-.88-.5-1.33-.72-.45-.23-.9-.46-1.36-.67-1.82-.86-3.7-1.53-5.61-2.02-.95-.23-1.91-.43-2.88-.57-.49-.08-.97-.12-1.46-.18-.49-.06-.98-.11-1.47-.14-1.97-.13-3.94-.06-5.93.22-2.31.35-4.58.87-6.73,1.68-1.08.4-2.13.86-3.16,1.39-.51.26-1.02.55-1.52.84-.25.15-.5.31-.74.45-.25.14-.5.3-.74.45-.01,0-.03.02-.04.03v44.94c1.49-.61,2.92-1.32,4.29-2.12.77-.43,1.51-.94,2.23-1.46.72-.53,1.42-1.08,2.09-1.66,1.34-1.15,2.59-2.42,3.73-3.8,1.13-1.38,2.25-2.73,3.36-4.12,1.11-1.4,2.2-2.8,3.29-4.19,1.09-1.4,2.16-2.79,3.22-4.19l1.59-2.09.78-1.05Z"/>
      <path class="cls-1" d="m238.69,832.5c3.44-.43,6.93-1,10.35-1.55,3.43-.55,6.8-1.1,10.21-1.77l-.33-2.07c-.17-1.01-.37-2.03-.61-3.03-.24-.99-.53-1.97-.86-2.92-.65-1.9-1.48-3.71-2.47-5.4-.13-.21-.26-.42-.38-.63-.13-.21-.26-.42-.38-.63-.26-.41-.53-.83-.82-1.23-.55-.81-1.16-1.58-1.8-2.33-.65-.75-1.33-1.46-2.04-2.14-.36-.34-.73-.67-1.11-.99-.38-.33-.75-.66-1.15-.97-1.79-1.45-3.73-2.65-5.78-3.62l-31.24,31.24c.67.11,1.34.21,2.02.27.87.09,1.77.13,2.65.13s1.78-.04,2.68-.11c3.56-.3,7.08-.62,10.58-.99,3.53-.4,7.02-.83,10.48-1.28Z"/>
      <path class="cls-1" d="m903.17,667.31c-.02-.22-.03-.44-.05-.67-.04-.44-.09-.89-.14-1.32-.11-.89-.26-1.76-.45-2.63-.37-1.74-.88-3.44-1.54-5.09-5.35-13.24-11.19-25.92-17.7-38.09l-1.88.93c-1.87.91-3.61,1.98-5.2,3.18-1.63,1.19-3.13,2.51-4.47,3.95-.67.72-1.3,1.47-1.89,2.25-.29.39-.58.79-.85,1.2-.14.2-.27.41-.41.61-.14.21-.27.41-.4.62-1.06,1.66-1.96,3.43-2.67,5.3-.42,1.1-.75,2.21-1.05,3.33-.3,1.12-.54,2.24-.71,3.38-.17,1.14-.26,2.28-.29,3.44-.02.58-.01,1.15,0,1.73.02.58.06,1.16.09,1.74.22,3.25.98,6.53,2.28,9.74.66,1.6,1.26,3.19,1.87,4.8.61,1.6,1.22,3.23,1.82,4.85.6,1.62,1.2,3.26,1.79,4.9.58,1.64,1.13,3.28,1.68,4.94,1.11,3.3,2.21,6.65,3.27,10.03,1.02,3.36,2.01,6.75,2.99,10.18l2.06-.68c2.04-.68,4.01-1.56,5.87-2.63.47-.27.93-.55,1.38-.84.45-.29.89-.6,1.32-.92.86-.64,1.68-1.32,2.48-2.04,1.59-1.45,3.06-3.06,4.38-4.82,1.29-1.77,2.41-3.7,3.36-5.74.56-1.2,1.05-2.41,1.47-3.64.21-.61.39-1.24.55-1.86.16-.62.3-1.25.43-1.88.49-2.52.71-5.05.64-7.56,0-.22-.02-.44-.02-.67Z"/>
      <path class="cls-1" d="m872.85,700.1c-.98-3.41-1.99-6.79-3.01-10.13l-.78-2.5c-.26-.83-.51-1.66-.79-2.49-.55-1.66-1.1-3.32-1.67-4.96-.56-1.64-1.12-3.28-1.69-4.9l-.86-2.43c-.29-.81-.6-1.62-.9-2.43l-1.97.67c-3.97,1.3-7.54,3.25-10.54,5.77-1.54,1.24-2.94,2.62-4.2,4.13-.63.76-1.21,1.55-1.76,2.37-.28.41-.53.83-.8,1.25-.26.42-.52.85-.76,1.29-1.14,2.05-2.02,4.19-2.63,6.42-.07.28-.15.56-.22.84-.07.28-.14.56-.21.83-.13.56-.25,1.12-.35,1.68-.2,1.13-.32,2.28-.39,3.44-.09,1.63-.05,3.29.12,4.96.14,1.66.42,3.32.83,4.99.42,1.66.83,3.34,1.23,5.02.4,1.68.81,3.38,1.17,5.06.73,3.37,1.44,6.77,2.13,10.22.17.86.35,1.73.5,2.58l.47,2.58c.3,1.73.6,3.46.9,5.2.29,1.74.58,3.48.86,5.24.28,1.75.51,3.5.76,5.26l2.14-.39c1.06-.2,2.13-.44,3.15-.75,1.02-.31,2.02-.67,3.01-1.09,1.97-.83,3.86-1.86,5.65-3.06.45-.3.89-.62,1.33-.94.43-.33.85-.67,1.25-1.03.82-.7,1.62-1.45,2.38-2.24,1.52-1.58,2.92-3.31,4.14-5.21,2.79-4.48,4.57-9.38,5.01-14.42.33-3.54.14-7.08-.78-10.56-.89-3.47-1.8-6.89-2.73-10.28Z"/>
      <path class="cls-1" d="m922.66,611.86c-.31-1.75-.75-3.47-1.34-5.14-.29-.83-.62-1.66-.98-2.46-.38-.81-.79-1.6-1.24-2.38-1.78-3.11-3.57-6.16-5.37-9.18l-.68-1.13-.7-1.13-1.4-2.25c-.94-1.49-1.88-2.98-2.82-4.45-.94-1.47-1.89-2.93-2.83-4.39-.97-1.45-1.95-2.9-2.93-4.34-1.97-2.88-3.92-5.7-5.91-8.49-.57.4-1.17.78-1.75,1.17-1.74,1.16-3.34,2.44-4.78,3.84-.72.7-1.4,1.43-2.04,2.19-.64.75-1.22,1.54-1.81,2.34-1.15,1.6-2.14,3.31-2.94,5.09-.4.9-.75,1.82-1.06,2.75-.14.47-.3.94-.45,1.41-.14.48-.28.96-.39,1.44-.56,2.28-.83,4.58-.82,6.89.01.58,0,1.15.03,1.72.02.57.06,1.14.12,1.71.11,1.14.29,2.28.54,3.42.34,1.6.83,3.19,1.44,4.75.58,1.56,1.29,3.09,2.13,4.59.85,1.5,1.68,3,2.52,4.51.83,1.51,1.68,3.04,2.47,4.57,1.6,3.05,3.19,6.15,4.76,9.29l1.18,2.36,1.13,2.36c.75,1.58,1.49,3.17,2.24,4.77.74,1.6,1.48,3.21,2.22,4.83l.55,1.22.53,1.21,1.05,2.44,1.97-.94c.49-.24.97-.48,1.44-.74.48-.26.93-.53,1.38-.82.91-.58,1.78-1.19,2.62-1.85,1.68-1.32,3.24-2.81,4.65-4.45.35-.41.7-.83,1.03-1.26.32-.43.63-.87.94-1.32.6-.9,1.17-1.83,1.69-2.79,1.05-1.93,1.94-3.97,2.62-6.12.75-2.53,1.22-5.1,1.4-7.65.05-.64.07-1.28.09-1.91,0-.32,0-.63,0-.95-.01-.32-.03-.64-.05-.95-.08-1.27-.22-2.53-.44-3.77Z"/>
      <path class="cls-1" d="m617.21,895.97l1.22-2.29,1.19-2.33c1.58-3.11,3.12-6.2,4.62-9.28l-1.87-.98c-7.39-3.85-15.47-4.75-23.19-2.67-1.13.31-2.24.68-3.31,1.12-1.07.43-2.1.95-3.13,1.47-2.03,1.06-3.93,2.37-5.69,3.9-.62.54-1.22,1.11-1.8,1.7-.57.59-1.14,1.18-1.68,1.82-1.09,1.26-2.09,2.62-3,4.08-.91,1.46-1.82,2.92-2.75,4.39l-.7,1.1-.71,1.08-1.43,2.15c-1.91,2.88-3.86,5.76-5.87,8.66-2,2.85-4.05,5.68-6.15,8.53-1.05,1.42-2.1,2.85-3.17,4.27-1.08,1.4-2.16,2.79-3.25,4.19l1.77,1.27c.88.63,1.79,1.21,2.73,1.75.93.51,1.89.98,2.88,1.4,1.97.84,4.02,1.48,6.14,1.93,1.05.22,2.13.4,3.21.51,1.08.1,2.17.14,3.27.14,2.19-.01,4.41-.23,6.62-.66.32-.06.65-.13.97-.2.32-.07.64-.16.95-.25.63-.17,1.25-.36,1.87-.57,1.23-.41,2.43-.89,3.59-1.42,1.16-.54,2.29-1.13,3.37-1.79.55-.32,1.07-.68,1.59-1.05.52-.37,1.02-.75,1.51-1.14,2.78-2.24,5.18-4.87,7.06-7.9,3.73-6.13,7.31-12.14,10.66-18.34.85-1.54,1.67-3.07,2.5-4.6Z"/>
      <path class="cls-1" d="m934.43,553.65c-.26-.84-.56-1.68-.89-2.49-.33-.82-.72-1.63-1.14-2.41-.82-1.58-1.77-3.09-2.86-4.51-2.58-3.42-5.25-6.79-7.96-10.1h-31.53c0,.06-.01.12-.02.18-.03.29-.04.59-.06.87-.04.29-.05.58-.06.87-.03.58-.05,1.16-.04,1.74.01,1.16.09,2.31.23,3.45.15,1.14.36,2.28.65,3.4.06.28.14.55.21.83.08.28.16.56.23.84.16.55.34,1.1.53,1.64,1.09,3.08,2.71,6.04,4.81,8.79,2.05,2.73,4.08,5.5,6.12,8.33l1.53,2.12.76,1.06.74,1.06c.98,1.42,1.97,2.86,2.94,4.31.98,1.44,1.96,2.9,2.93,4.37l1.46,2.21c.49.74.94,1.48,1.42,2.21,1.87,2.97,3.75,5.98,5.6,9.03l1.81-1.2c1.79-1.2,3.44-2.58,4.95-4.11.75-.76,1.48-1.56,2.14-2.41.66-.84,1.27-1.72,1.85-2.63,1.15-1.82,2.14-3.78,2.93-5.81.21-.51.39-1.03.57-1.55.17-.53.32-1.06.46-1.59.28-1.08.52-2.17.7-3.28.22-1.31.36-2.61.43-3.9.07-1.29.09-2.58-.03-3.86-.19-2.56-.67-5.06-1.42-7.47Z"/>
      <path class="cls-1" d="m719.9,833.39c-8.15-1.75-16.18-.47-23.08,3.59-1.01.6-1.98,1.25-2.89,1.96-.46.35-.91.72-1.35,1.1-.43.38-.87.75-1.29,1.14-1.67,1.57-3.16,3.34-4.44,5.28-.45.68-.87,1.4-1.28,2.11-.41.71-.79,1.44-1.15,2.2-.71,1.51-1.32,3.09-1.8,4.74-.49,1.65-.98,3.31-1.48,4.96-.52,1.64-1.05,3.28-1.58,4.92-.54,1.64-1.09,3.29-1.64,4.95l-.84,2.48-.43,1.24-.44,1.22c-1.18,3.27-2.4,6.57-3.66,9.87l-.95,2.48-.98,2.45c-.66,1.64-1.33,3.28-2.02,4.92l2.04.75c1.02.37,2.05.69,3.09.95,1.04.26,2.1.48,3.16.62,2.11.28,4.26.35,6.42.21,4.32-.24,8.59-1.5,12.62-3.49.59-.29,1.17-.6,1.74-.93.56-.33,1.11-.68,1.65-1.05,1.08-.72,2.1-1.51,3.08-2.33.98-.83,1.9-1.7,2.77-2.62.44-.47.86-.93,1.26-1.42.4-.49.78-.99,1.15-1.51,2.08-2.89,3.69-6.08,4.7-9.49.98-3.44,1.93-6.87,2.85-10.28l.67-2.55.33-1.27.32-1.29c.42-1.72.83-3.43,1.24-5.14.4-1.7.79-3.4,1.18-5.09l.57-2.54.53-2.56c.7-3.42,1.36-6.8,1.99-10.17l-2.06-.45Z"/>
      <path class="cls-1" d="m669.61,875.95c.6-1.64,1.19-3.28,1.77-4.91.58-1.63,1.15-3.25,1.71-4.89.55-1.65,1.09-3.29,1.61-4.93l-1.97-.7c-.98-.35-1.96-.64-2.94-.9-.99-.26-1.98-.48-2.97-.65-1.99-.35-3.97-.49-5.93-.44-.98.02-1.96.11-2.93.21-.98.1-1.95.25-2.91.45-1.93.4-3.81,1.01-5.64,1.81-.53.24-1.08.47-1.6.72-.52.25-1.04.52-1.54.8-1.01.56-1.98,1.18-2.91,1.86-.93.68-1.82,1.41-2.67,2.2-.86.76-1.67,1.58-2.44,2.44-1.09,1.22-2.09,2.54-2.99,3.95-.9,1.41-1.7,2.93-2.42,4.47-1.41,3.11-2.86,6.24-4.36,9.38-.37.79-.75,1.58-1.13,2.36l-1.16,2.32c-.78,1.55-1.57,3.1-2.37,4.66-.8,1.55-1.61,3.12-2.43,4.67l-.62,1.17-.63,1.15-1.27,2.31c-1.7,3.08-3.44,6.17-5.23,9.27l1.91,1c1.91.99,3.91,1.78,5.97,2.36,1.03.29,2.08.53,3.14.72.53.09,1.06.18,1.6.25.53.06,1.06.1,1.6.13,2.15.13,4.33.05,6.5-.24,1.09-.14,2.18-.33,3.26-.59,1.08-.27,2.15-.59,3.21-.97,2.49-.87,4.85-2,7.02-3.36,2.14-1.4,4.12-3.03,5.87-4.84.62-.64,1.2-1.3,1.77-1.98.28-.34.55-.68.82-1.04.26-.36.52-.72.76-1.09.99-1.48,1.85-3.04,2.58-4.67.72-1.63,1.44-3.25,2.14-4.87.35-.82.7-1.61,1.04-2.44l1.02-2.46c1.35-3.28,2.65-6.54,3.92-9.79.32-.8.62-1.64.93-2.46l.91-2.46Z"/>
      <path class="cls-1" d="m834.31,718.26c-2.04.38-4,.95-5.86,1.68-1.89.71-3.68,1.59-5.35,2.63-.84.52-1.64,1.08-2.42,1.68-.39.3-.77.61-1.14.92-.38.32-.75.63-1.11.97-1.46,1.32-2.79,2.79-3.97,4.41-.35.48-.67.96-.99,1.45-.15.25-.31.5-.45.74-.16.24-.31.49-.45.75-.59.99-1.11,2.02-1.58,3.07-.45,1.06-.85,2.14-1.19,3.24-.17.55-.32,1.11-.45,1.68-.14.57-.27,1.12-.38,1.69-.55,2.73-.72,5.58-.5,8.5l29.31,29.31c.14-.21.28-.42.43-.62.36-.54.72-1.08,1.04-1.64.32-.56.62-1.13.91-1.7,1.14-2.3,2.01-4.69,2.6-7.13.11-.43.21-.87.29-1.3.08-.43.15-.88.21-1.31.12-.88.21-1.77.26-2.65.11-1.77.06-3.55-.14-5.32-1.65-14.17-3.93-27.96-6.97-41.41l-2.07.4Z"/>
      <path class="cls-1" d="m745.63,803.62c-1.75.89-3.41,1.97-4.97,3.23-.91.75-1.8,1.5-2.63,2.31-.82.82-1.6,1.66-2.31,2.57-.72.89-1.38,1.84-1.99,2.82-.3.5-.6.99-.89,1.48-.28.5-.55,1.01-.82,1.53-.72,1.46-1.34,3-1.83,4.59-.26.8-.48,1.62-.66,2.44-.09.42-.18.84-.26,1.26-.08.41-.16.83-.23,1.25-.54,3.38-1.11,6.78-1.73,10.2l-.46,2.57-.5,2.55c-.34,1.7-.7,3.41-1.05,5.12-.35,1.71-.72,3.43-1.1,5.15l-.28,1.28-.3,1.28-.61,2.57c-.82,3.41-1.68,6.86-2.58,10.32l2.12.45c2.11.45,4.24.68,6.38.7,1.08,0,2.15-.04,3.22-.13.53-.05,1.07-.11,1.6-.19.53-.09,1.06-.18,1.58-.29,2.1-.45,4.18-1.1,6.2-1.95,1.01-.43,2.02-.89,2.98-1.43.97-.55,1.92-1.14,2.84-1.79,1.09-.75,2.12-1.55,3.1-2.4.49-.43.97-.87,1.43-1.31s.92-.9,1.33-1.38c1.7-1.92,3.17-4.01,4.37-6.22.43-.77.82-1.57,1.18-2.37.36-.81.67-1.65.95-2.49.56-1.68.99-3.41,1.26-5.18.27-1.76.53-3.51.78-5.26.13-.87.24-1.75.35-2.64l.33-2.64c.43-3.51.84-6.99,1.2-10.46.02-.22.04-.44.06-.66l-17.26-17.26c-.27.12-.54.26-.81.39Z"/>
      <path class="cls-1" d="m769.1,826.67l-.13,1.33-.16,1.31c-.21,1.75-.42,3.51-.65,5.27l2.17.18c2.48.23,4.94.12,7.36-.28l-8.52-8.52-.07.7Z"/>
      <path class="cls-1" d="m395.12,90.07c-.9,1.49-1.78,2.97-2.66,4.46-.43.74-.87,1.48-1.3,2.23l-1.28,2.26,1.79,1.08c3.55,2.18,7.35,3.66,11.21,4.32.24.04.48.08.72.12.25.05.49.08.73.12.49.07.98.13,1.47.17.98.09,1.96.13,2.94.13.98,0,1.96-.07,2.94-.18.98-.1,1.96-.28,2.94-.46,4.61-.87,8.82-2.9,12.54-5.63,1.31-.98,2.55-2.08,3.71-3.28.59-.6,1.14-1.24,1.69-1.88.55-.64,1.08-1.31,1.58-2,2.01-2.77,4.06-5.55,6.16-8.33l.79-1.04.79-1.02,1.6-2.04c1.08-1.36,2.16-2.73,3.25-4.09,1.1-1.37,2.2-2.73,3.32-4.1,1.12-1.36,2.25-2.69,3.39-4.03,2.28-2.68,4.61-5.36,6.97-8.04l-1.68-1.36c-1.67-1.35-3.47-2.52-5.38-3.51-.95-.49-1.93-.94-2.93-1.33-.99-.4-2.02-.75-3.06-1.02-2.08-.56-4.22-.91-6.41-1.06-1.09-.08-2.2-.1-3.31-.08-.55,0-1.11.05-1.67.1-.55.05-1.11.11-1.67.19-2.62.37-5.15,1.01-7.54,1.9-.3.11-.6.22-.89.35-.29.13-.59.26-.87.39-.58.27-1.15.55-1.71.85-1.12.6-2.2,1.26-3.24,1.97-1.46,1.01-2.83,2.13-4.11,3.35-1.27,1.25-2.42,2.62-3.46,4.07-1.03,1.45-2.06,2.9-3.08,4.35l-1.51,2.17c-.5.72-1,1.44-1.5,2.19-1.97,2.96-3.9,5.9-5.79,8.83-1.9,2.91-3.72,5.93-5.51,8.9Z"/>
      <path class="cls-1" d="m63.26,537.59c.66.58,1.33,1.14,2.02,1.71,2.74,2.26,5.47,4.47,8.21,6.64,2.7,2.18,5.52,4.29,8.29,6.37,1.39,1.04,2.79,2.07,4.17,3.09l2.07,1.52,2.12,1.5,1.25-1.67c2.54-3.32,4.38-6.95,5.43-10.73.13-.47.26-.94.38-1.43.12-.48.22-.96.32-1.44.19-.96.33-1.93.42-2.91.09-.98.13-1.97.12-2.95,0-.99-.09-1.98-.16-2.98,0-.06-.01-.12-.02-.18h-38.65c.67.57,1.33,1.16,2,1.73l2.02,1.72Z"/>
      <path class="cls-1" d="m681.83,110.56l-2.5.83-1.24.41-1.25.44c-3.32,1.17-6.6,2.36-9.84,3.57l-2.42.91-2.43.95c-1.61.64-3.21,1.29-4.81,1.93l.74,1.97c.36.97.76,1.92,1.21,2.83s.93,1.79,1.43,2.67c1.02,1.75,2.18,3.36,3.48,4.84,2.63,2.91,5.71,5.42,9.3,7.19.52.26,1.06.51,1.59.73.53.24,1.06.47,1.6.67,1.08.41,2.18.76,3.3,1.04,1.12.28,2.25.48,3.39.63.57.07,1.16.12,1.72.17.58.05,1.15.09,1.73.1,3.27.1,6.61-.33,9.93-1.31,3.28-.92,6.61-1.82,9.97-2.7l2.53-.65,1.27-.32,1.27-.3c1.68-.4,3.38-.79,5.08-1.18,1.7-.39,3.42-.78,5.14-1.16l2.58-.56,2.58-.52c3.44-.68,6.93-1.35,10.45-1.98l-.47-2.11c-.47-2.1-1.16-4.14-2.04-6.1-.44-.98-.94-1.94-1.47-2.87-.54-.93-1.14-1.81-1.78-2.68-2.57-3.44-5.83-6.5-9.73-8.76-1.13-.67-2.29-1.28-3.48-1.81-.59-.27-1.18-.52-1.79-.75-.6-.24-1.21-.43-1.83-.62-2.46-.74-4.96-1.2-7.47-1.38-.89-.06-1.77-.09-2.65-.07-.89.03-1.78.09-2.66.19-1.77.2-3.51.53-5.23,1.03-1.71.49-3.41.99-5.1,1.49-1.7.53-3.4,1.06-5.08,1.6-1.68.54-3.36,1.08-5.03,1.63Z"/>
      <path class="cls-1" d="m750.72,178.24c.06.65.14,1.31.24,1.95l4.62-4.62c-1.69.19-3.38.38-5.05.58l.19,2.09Z"/>
      <path class="cls-1" d="m560.84,83.6c-1.4,1.02-2.79,2.04-4.17,3.06-1.39,1.05-2.76,2.1-4.12,3.16l1.23,1.69c.61.84,1.25,1.64,1.91,2.4.67.78,1.36,1.52,2.09,2.23,1.44,1.4,3,2.65,4.65,3.71.82.53,1.67,1.01,2.54,1.47.86.47,1.75.9,2.66,1.28,1.82.75,3.71,1.33,5.68,1.7.29.06.57.11.86.16.29.05.58.1.86.14.58.09,1.15.16,1.73.21,1.16.11,2.31.14,3.46.12,1.15-.03,2.3-.14,3.44-.3.57-.09,1.14-.18,1.7-.28.56-.1,1.13-.22,1.69-.36,3.17-.78,6.28-2.1,9.22-3.9,5.85-3.51,11.89-7.06,18.02-10.32,1.54-.83,3.09-1.66,4.65-2.48l2.35-1.22,2.35-1.18c3.15-1.57,6.33-3.13,9.55-4.67l-1.02-1.91c-1.01-1.9-2.21-3.68-3.58-5.34-.68-.82-1.41-1.62-2.18-2.37-.77-.75-1.59-1.44-2.43-2.11-3.39-2.63-7.35-4.73-11.71-5.86-1.28-.35-2.56-.62-3.84-.82-1.28-.2-2.56-.35-3.85-.36-2.56-.06-5.11.16-7.57.67-.87.17-1.73.39-2.58.63-.85.24-1.69.55-2.51.88-1.65.66-3.25,1.46-4.77,2.39-1.52.93-3.02,1.87-4.53,2.8l-1.12.71-1.12.72-2.23,1.45c-2.97,1.94-5.89,3.9-8.76,5.85-2.89,2-5.73,4.04-8.54,6.07Z"/>
      <path class="cls-1" d="m629,88.92c-1.59.78-3.16,1.57-4.72,2.36-1.56.79-3.12,1.58-4.65,2.38l-1.16.6-1.16.62-2.3,1.25c-3.06,1.66-6.07,3.34-9.05,5.03l.98,1.86c.97,1.85,2.09,3.57,3.34,5.14.63.78,1.28,1.53,1.97,2.24.34.35.7.7,1.05,1.03.36.35.72.68,1.09,1.01,1.48,1.31,3.08,2.46,4.78,3.43.85.49,1.73.93,2.63,1.33.89.42,1.81.8,2.75,1.13,2.21.78,4.48,1.27,6.77,1.5,2.28.28,4.58.28,6.89.01.81-.1,1.63-.22,2.44-.39.41-.07.82-.17,1.22-.26.4-.09.81-.19,1.21-.29,1.61-.42,3.21-.98,4.78-1.67,1.57-.69,3.16-1.37,4.75-2.06.79-.33,1.6-.68,2.39-1.01l2.39-.97c3.2-1.29,6.45-2.56,9.73-3.82.82-.32,1.63-.61,2.46-.91l2.47-.89c1.64-.59,3.31-1.18,4.97-1.76,1.67-.58,3.35-1.16,5.03-1.73,1.67-.54,3.36-1.08,5.05-1.62l-.74-2.05c-.37-1.02-.79-2.01-1.26-2.98-.48-.97-1.01-1.89-1.58-2.79-1.14-1.81-2.48-3.5-3.97-5.06-.75-.78-1.53-1.54-2.36-2.23s-1.71-1.35-2.61-1.96c-1.82-1.24-3.77-2.31-5.83-3.21-.6-.27-1.22-.49-1.84-.71-.62-.22-1.24-.41-1.86-.59-1.25-.36-2.51-.65-3.77-.87-1.26-.21-2.52-.36-3.79-.44-1.27-.05-2.54-.02-3.8.07-1.78.13-3.53.4-5.25.82-1.72.41-3.4.96-5.04,1.71-3.27,1.46-6.5,2.94-9.68,4.43-.79.37-1.59.74-2.38,1.13l-2.38,1.17Z"/>
      <path class="cls-1" d="m846.06,258.84c-.86-.17-1.7-.36-2.56-.52l-2.58-.48c-1.72-.32-3.43-.63-5.14-.93s-3.41-.59-5.11-.87c-1.7-.28-3.43-.52-5.13-.78l-.36,2.06c-.19,1.02-.3,2.03-.41,3.06-.1,1.02-.14,2.04-.14,3.04,0,2.01.18,3.99.56,5.92.1.48.21.96.32,1.43.11.48.24.96.37,1.43.26.95.58,1.88.94,2.79.72,1.83,1.64,3.58,2.73,5.26,2.47,3.99,5.88,7.18,9.78,9.67,2.77,1.73,5.91,3.03,9.2,3.92,3.31.87,6.64,1.78,10,2.73,3.31.97,6.62,1.98,9.97,3.04l2.51.79c.84.27,1.68.53,2.51.82,1.65.56,3.31,1.13,4.97,1.71,1.67.58,3.34,1.17,5.01,1.77l2.51.9c.84.3,1.66.62,2.48.94l.7-2.07c1.31-4.09,1.75-8.41,1.36-12.72-.24-2.13-.68-4.27-1.34-6.36-.32-1.05-.7-2.09-1.13-3.12-.22-.51-.43-1.02-.68-1.52-.25-.5-.51-.99-.79-1.48-1.29-2.31-2.8-4.43-4.5-6.34-.21-.24-.43-.47-.64-.7-.22-.24-.45-.45-.68-.68-.46-.44-.93-.87-1.41-1.29-.97-.83-1.97-1.6-3.01-2.31-1.47-1-3-1.87-4.61-2.62-1.63-.72-3.31-1.31-5.04-1.75-1.73-.44-3.46-.87-5.17-1.29-1.72-.43-3.42-.85-5.16-1.22-3.46-.78-6.9-1.52-10.32-2.22Z"/>
      <path class="cls-1" d="m846.01,220.92c-.53-.35-1.06-.69-1.6-1.01-.54-.32-1.11-.61-1.68-.89-3.2-1.57-6.62-2.61-10.14-3.05-1.14-.13-2.29-.26-3.44-.38l-26.43,26.43c.09.08.18.15.27.22,1.83,1.38,3.83,2.56,5.96,3.49.38.17.75.33,1.14.48.38.16.76.31,1.15.45.77.28,1.55.55,2.36.77,1.6.45,3.27.78,4.98.99,13.62,1.66,27.47,4.02,41.29,7.24l.4-2.13c.39-2.12.56-4.27.52-6.43-.08-2.13-.37-4.25-.87-6.35-.25-1.04-.55-2.09-.91-3.12-.17-.52-.36-1.03-.56-1.53-.2-.51-.43-1.01-.67-1.5-.94-1.97-2.08-3.88-3.41-5.7-.38-.54-.79-1.06-1.21-1.56-.21-.26-.41-.5-.63-.75-.21-.24-.43-.48-.66-.71-.89-.94-1.84-1.82-2.82-2.65-.98-.82-2-1.58-3.05-2.29Z"/>
      <path class="cls-1" d="m927.28,427.42c-2.85-2.17-5.7-4.29-8.55-6.37l-2.14-1.55-1.06-.77-1.08-.77c-1.45-1.02-2.9-2.02-4.34-3-1.45-.99-2.89-1.97-4.33-2.95l-2.16-1.44c-.72-.48-1.46-.95-2.19-1.43-2.93-1.88-5.86-3.73-8.77-5.52l-1.16,1.75c-1.15,1.74-2.12,3.54-2.88,5.39-.39.92-.72,1.86-1.02,2.8-.31.95-.57,1.9-.79,2.86-.43,1.93-.67,3.88-.7,5.84-.01.48,0,.98,0,1.47.01.5.02.99.06,1.48.06.99.18,1.98.33,2.97.19,1.16.45,2.29.78,3.41.33,1.11.72,2.19,1.15,3.26.84,2.13,1.96,4.16,3.31,6.06.48.67.98,1.32,1.51,1.96.53.64,1.06,1.26,1.63,1.87,1.14,1.21,2.4,2.34,3.76,3.39,2.43,1.85,4.82,3.74,7.18,5.67h33.73c.03-1.38-.01-2.76-.14-4.15-.03-.33-.06-.65-.1-.98-.05-.33-.09-.65-.15-.97-.11-.65-.24-1.29-.38-1.92-.28-1.26-.64-2.51-1.05-3.72-.41-1.21-.9-2.39-1.44-3.53-.14-.29-.28-.58-.42-.85-.15-.28-.31-.56-.46-.83-.31-.55-.64-1.09-.99-1.62-1.95-3-4.33-5.64-7.15-7.82Z"/>
      <path class="cls-1" d="m905.21,365.07c-3.13-1.67-6.25-3.29-9.36-4.88l-2.33-1.18-2.36-1.15c-1.58-.76-3.15-1.51-4.72-2.25-1.57-.74-3.13-1.47-4.69-2.19l-1.17-.53-1.19-.53-2.37-1.04-.89,1.89c-.22.47-.43.94-.63,1.41-.2.47-.4.95-.57,1.43-.37.96-.68,1.93-.95,2.9-.53,1.94-.87,3.9-1.02,5.85-.03.49-.06.98-.07,1.47-.02.49-.03.98-.03,1.48,0,.98.06,1.96.16,2.94.21,1.96.64,3.88,1.24,5.79.67,2.25,1.59,4.38,2.76,6.36.29.49.6.98.92,1.47.16.24.33.47.49.71.16.24.33.47.49.71.67.93,1.4,1.82,2.19,2.67,1.1,1.21,2.32,2.33,3.64,3.37.66.52,1.35,1.01,2.04,1.49.7.48,1.41.94,2.15,1.37,2.96,1.72,5.92,3.48,8.9,5.28l1.12.68,1.09.69,2.2,1.39c1.47.93,2.93,1.87,4.4,2.82,1.47.95,2.94,1.91,4.42,2.89,1.45.98,2.89,1.97,4.34,2.97,2.89,2,5.8,4.05,8.69,6.14.41-.6.8-1.2,1.2-1.81,1.18-1.8,2.16-3.71,2.95-5.7.39-.99.74-2.01,1.03-3.05.29-1.04.55-2.09.71-3.15.34-2.12.48-4.3.41-6.49-.03-1.09-.12-2.2-.25-3.3-.06-.55-.17-1.1-.27-1.65-.11-.55-.23-1.09-.36-1.64-.63-2.57-1.52-5.02-2.65-7.31-.28-.58-.6-1.13-.93-1.68-.32-.55-.66-1.09-1.02-1.62-.71-1.05-1.47-2.06-2.28-3.02-1.15-1.35-2.39-2.61-3.75-3.75-1.38-1.13-2.85-2.14-4.4-3.03-1.55-.89-3.1-1.76-4.64-2.62-1.55-.86-3.07-1.73-4.65-2.55Z"/>
      <path class="cls-1" d="m536.43,94.12c.74-.35,1.47-.75,2.19-1.17,1.45-.84,2.84-1.8,4.17-2.9,1.33-1.08,2.68-2.19,4.03-3.24,1.35-1.06,2.71-2.12,4.09-3.17,1.37-1.05,2.75-2.1,4.15-3.15l2.1-1.58,1.05-.78,1.06-.77c2.83-2.03,5.69-4.05,8.6-6.07l2.19-1.51c.73-.5,1.46-.98,2.2-1.47,1.47-.97,2.95-1.95,4.44-2.91l-1.26-1.77c-.63-.89-1.3-1.73-2.02-2.53-.36-.41-.72-.81-1.09-1.19-.38-.38-.76-.75-1.16-1.1-1.59-1.43-3.32-2.7-5.17-3.8-.93-.55-1.89-1.06-2.88-1.52-.49-.23-.99-.47-1.49-.66-.51-.2-1.02-.38-1.54-.55-2.08-.7-4.25-1.21-6.47-1.53-2.61-.39-5.23-.38-7.78-.11-1.27.13-2.53.33-3.77.6-.62.13-1.23.28-1.83.45-.31.09-.6.17-.91.27-.3.1-.6.2-.9.31-1.48.54-2.92,1.17-4.29,1.92v40.95s.03,0,.04-.01c.76-.32,1.51-.64,2.25-.99Z"/>
      <path class="cls-1" d="m884.28,311.43c-1.65-.63-3.3-1.24-4.94-1.84-1.65-.6-3.33-1.17-4.99-1.74-3.32-1.13-6.61-2.24-9.91-3.29-3.34-1.04-6.65-2.03-9.94-2.98l-.64,2c-.64,1.98-1.09,3.97-1.34,5.96-.06.5-.11.99-.15,1.49-.04.49-.08.99-.1,1.49-.05.99-.05,1.98,0,2.97.1,1.97.4,3.91.89,5.81.47,1.91,1.1,3.78,1.96,5.6.49,1.06,1.05,2.09,1.67,3.07.31.49.62.98.94,1.45s.66.94,1.01,1.4c1.4,1.82,3.02,3.47,4.83,4.94.32.26.64.51.97.76s.65.49.98.74c.67.48,1.36.93,2.08,1.36,1.43.86,2.95,1.62,4.55,2.27,12.68,5.21,25.42,11.16,37.89,17.93l.94-1.96c.94-1.94,1.67-3.97,2.2-6.06.5-2.08.78-4.2.85-6.36.03-1.08.02-2.16-.05-3.25-.03-.54-.08-1.09-.14-1.63-.03-.27-.06-.54-.1-.81-.04-.27-.09-.54-.14-.81-.39-2.16-.98-4.3-1.78-6.41-.48-1.23-.99-2.44-1.6-3.58-.62-1.14-1.29-2.25-2.02-3.3-.72-1.06-1.51-2.06-2.34-3.02-.41-.48-.85-.94-1.28-1.39-.44-.45-.89-.89-1.37-1.31-2.67-2.36-5.7-4.27-8.99-5.62-1.63-.68-3.31-1.33-4.97-1.97-1.66-.64-3.31-1.27-4.96-1.89Z"/>
      <path class="cls-1" d="m733.9,138.56l-2.61.5c-1.73.33-3.46.68-5.18,1.02-1.71.35-3.41.7-5.11,1.06l-1.28.27-1.28.3-2.55.59c-3.39.79-6.74,1.6-10.05,2.44l.45,2.06c.45,2.04,1.07,4,1.86,5.84.39.92.83,1.82,1.3,2.68.23.43.49.86.75,1.28.25.43.51.85.78,1.26,1.08,1.65,2.31,3.18,3.7,4.57.7.7,1.43,1.35,2.18,1.99.76.65,1.55,1.26,2.36,1.82.97.67,1.97,1.28,2.99,1.81.51.27,1.03.53,1.55.77.53.23,1.06.45,1.59.67,2.13.87,4.35,1.48,6.65,1.83.81.12,1.63.21,2.46.28.82.06,1.64.11,2.48.11,1.67.02,3.36-.1,5.06-.35,1.7-.25,3.41-.49,5.12-.72.87-.13,1.72-.23,2.58-.33l2.56-.31c3.28-.38,6.6-.75,9.94-1.07l17.01-17.01c-.33-.54-.67-1.08-1.02-1.6-.61-.89-1.28-1.75-1.99-2.58-1.43-1.67-3.02-3.22-4.78-4.63-1.02-.83-2.11-1.56-3.22-2.24-1.11-.67-2.24-1.28-3.4-1.82-1.16-.54-2.35-1.02-3.54-1.42-.6-.21-1.21-.38-1.82-.53-.62-.16-1.23-.29-1.85-.41-1.75-.34-3.51-.54-5.27-.6-.89-.03-1.77-.01-2.65.04-.44.02-.88.06-1.32.1-.44.04-.89.11-1.33.18-3.54.55-7.03,1.11-10.51,1.71l-2.59.45Z"/>
      <path class="cls-1" d="m102.22,314.55l.88,2.48.44,1.24.47,1.24c.62,1.66,1.25,3.3,1.88,4.93.63,1.63,1.27,3.26,1.9,4.87l.97,2.42,1.01,2.42c1.35,3.21,2.72,6.38,4.11,9.52l1.95-.79c1.93-.79,3.75-1.73,5.43-2.81.85-.55,1.65-1.12,2.43-1.74.78-.61,1.55-1.25,2.27-1.92,1.45-1.34,2.74-2.82,3.88-4.42.28-.4.56-.8.82-1.22.26-.41.53-.83.79-1.25.51-.85.98-1.73,1.4-2.63.5-1.06.93-2.14,1.28-3.24.18-.55.35-1.11.49-1.67.14-.56.29-1.11.41-1.67.5-2.24.72-4.54.69-6.87-.01-.82-.07-1.65-.14-2.47-.06-.82-.16-1.64-.29-2.47-.26-1.64-.66-3.29-1.19-4.93s-1.06-3.28-1.58-4.94c-.49-1.64-.98-3.29-1.47-4.95-.49-1.66-.97-3.33-1.44-5.01l-.71-2.52-.35-1.27-.33-1.26c-.87-3.36-1.73-6.77-2.55-10.21l-.62-2.59-.57-2.58c-.38-1.73-.75-3.46-1.12-5.2l-2.11.53c-1.05.26-2.08.59-3.09.96-1.01.37-2.01.79-2.96,1.27-1.9.96-3.71,2.12-5.41,3.45-3.44,2.64-6.24,6.08-8.45,10.01-.32.58-.63,1.16-.91,1.74-.28.6-.53,1.2-.78,1.8-.48,1.21-.89,2.43-1.22,3.67-.34,1.24-.61,2.48-.8,3.73-.1.63-.19,1.25-.24,1.88-.05.63-.09,1.26-.1,1.89-.08,3.57.39,7.1,1.48,10.49,1.13,3.4,2.28,6.76,3.46,10.09Z"/>
      <path class="cls-1" d="m451.54,78.51c-.55.67-1.09,1.36-1.64,2.04-2.17,2.73-4.29,5.45-6.37,8.17l1.63,1.33c1.62,1.32,3.32,2.46,5.08,3.41.88.48,1.77.91,2.68,1.29.3.13.6.26.89.38v-19.37c-.21.25-.41.49-.62.74l-1.65,1.99Z"/>
      <path class="cls-1" d="m58.41,405.93c.87,3.46,2.28,6.75,4.23,9.72.96,1.48,1.98,2.96,2.98,4.43,1.01,1.47,2.01,2.93,3.02,4.38,1.01,1.44,2.02,2.88,3.04,4.31.5.71,1.03,1.43,1.55,2.13l1.57,2.12c2.09,2.82,4.2,5.59,6.3,8.32,2.16,2.74,4.34,5.43,6.52,8.08l1.66-1.28c1.64-1.27,3.14-2.66,4.47-4.16.65-.75,1.3-1.52,1.9-2.31.6-.79,1.16-1.61,1.67-2.46,1.03-1.68,1.87-3.45,2.54-5.29.7-1.84,1.24-3.75,1.56-5.72.19-1.16.31-2.32.36-3.47.01-.29.02-.58.02-.87.01-.29.02-.58.02-.86,0-.58,0-1.15-.04-1.73-.12-2.29-.52-4.57-1.18-6.81-.11-.39-.24-.78-.37-1.17-.13-.39-.26-.78-.4-1.17-.28-.77-.59-1.54-.94-2.29-.7-1.51-1.52-3-2.47-4.44l-1.43-2.16c-.47-.72-.95-1.45-1.4-2.17-.91-1.45-1.83-2.91-2.74-4.38-.91-1.47-1.82-2.96-2.72-4.45-.9-1.49-1.82-3-2.67-4.5-1.74-3.01-3.47-6.07-5.19-9.17l-1.28-2.33-1.24-2.33c-.82-1.56-1.64-3.13-2.46-4.72l-1.89,1.08c-.94.53-1.85,1.12-2.72,1.74-.44.32-.87.64-1.29.97-.21.17-.42.34-.63.51-.2.17-.4.35-.6.53-1.58,1.43-3.02,3.03-4.3,4.77-.64.87-1.24,1.77-1.8,2.7-.28.47-.55.94-.81,1.43-.25.48-.48.98-.71,1.47-.9,2-1.63,4.11-2.16,6.3-.65,2.56-.9,5.16-.9,7.73,0,1.28.07,2.55.22,3.81.14,1.25.34,2.5.66,3.72Z"/>
      <path class="cls-1" d="m128.66,258.76c.17.87.33,1.73.51,2.6l.55,2.6c.74,3.47,1.51,6.9,2.29,10.29.2.84.41,1.7.62,2.55l.64,2.54c.43,1.7.87,3.38,1.31,5.05.44,1.67.88,3.34,1.35,5,.48,1.67.96,3.34,1.45,4.99l2.02-.53c1-.26,1.98-.58,2.93-.92.96-.35,1.91-.72,2.82-1.14,1.83-.84,3.55-1.84,5.15-2.99.8-.58,1.55-1.2,2.3-1.83.75-.64,1.47-1.31,2.14-2.02,1.36-1.42,2.58-2.98,3.63-4.68,1.28-1.97,2.32-4.04,3.08-6.22.39-1.09.7-2.2.95-3.32.28-1.11.49-2.24.64-3.39.2-1.62.28-3.28.22-4.95-.02-.84-.09-1.68-.18-2.53-.09-.84-.2-1.68-.35-2.52-.59-3.37-1.16-6.77-1.71-10.21l-.2-1.29-.18-1.28-.36-2.58c-.24-1.72-.47-3.44-.68-5.18-.22-1.74-.44-3.48-.65-5.23-.18-1.74-.36-3.48-.53-5.23-.17-1.75-.34-3.51-.49-5.28l-.24-2.66-.11-1.33-.09-1.32c-.72.07-1.45.15-2.16.24-2.13.26-4.23.75-6.25,1.44-1.02.35-2.01.74-3,1.18-.49.22-.97.45-1.45.7-.24.12-.48.25-.71.38-.24.13-.47.26-.7.4-1.84,1.11-3.59,2.41-5.22,3.88-.82.74-1.6,1.51-2.35,2.33-.75.82-1.44,1.7-2.1,2.6-1.56,2.13-2.86,4.39-3.88,6.73-.98,2.37-1.68,4.83-2.1,7.31-.14.87-.26,1.75-.33,2.63-.07.88-.11,1.76-.1,2.65.02,1.78.19,3.56.52,5.31.32,1.75.65,3.5.98,5.23Z"/>
      <path class="cls-1" d="m83.15,453.26c-.56-.66-1.12-1.33-1.65-1.99-2.18-2.68-4.34-5.39-6.52-8.15-2.19-2.76-4.26-5.55-6.36-8.38-1.04-1.42-2.09-2.85-3.13-4.29l-1.57-2.17-1.51-2.17-1.74,1.31c-3.41,2.63-6.19,5.94-8.31,9.73-.28.47-.52.95-.74,1.43-.23.49-.45.99-.66,1.48-.42,1-.78,2.03-1.11,3.07-.32,1.06-.6,2.12-.82,3.21-.21,1.09-.42,2.19-.5,3.32-.12,1.39-.16,2.78-.13,4.15h35.21l-.46-.55Z"/>
      <path class="cls-1" d="m74.46,351.27c.08.44.17.87.26,1.3.11.43.22.86.35,1.29.49,1.71,1.13,3.38,1.91,4.99.77,1.6,1.55,3.2,2.33,4.78.39.79.78,1.58,1.18,2.37l1.22,2.36c1.64,3.15,3.29,6.25,4.95,9.31l.63,1.15.64,1.14,1.3,2.29c.87,1.52,1.74,3.02,2.6,4.52.87,1.5,1.75,2.98,2.63,4.46.9,1.48,1.81,2.96,2.73,4.42l1.81-1.05c.9-.52,1.75-1.08,2.59-1.67.85-.58,1.65-1.2,2.42-1.85,1.54-1.29,2.93-2.71,4.16-4.25.31-.38.6-.77.89-1.17.14-.2.28-.4.42-.6.14-.2.28-.41.43-.61.55-.81,1.06-1.65,1.53-2.52.93-1.73,1.69-3.55,2.26-5.47.71-2.24,1.16-4.51,1.32-6.8.08-1.15.09-2.3.04-3.46-.03-1.15-.13-2.29-.29-3.44-.24-1.62-.6-3.23-1.09-4.84-.49-1.6-1.13-3.19-1.86-4.73-1.46-3.09-2.91-6.22-4.34-9.39-.36-.79-.72-1.59-1.06-2.38l-1.02-2.39c-.68-1.59-1.36-3.2-2.03-4.81-.67-1.62-1.34-3.24-2-4.88-.34-.82-.65-1.63-.97-2.45l-.94-2.46c-1.25-3.28-2.5-6.61-3.7-9.98-.67.26-1.33.54-2.01.82-1.98.82-3.88,1.83-5.66,3.04-.89.6-1.75,1.24-2.58,1.93-.41.35-.82.7-1.22,1.06-.39.37-.77.75-1.14,1.14-1.48,1.55-2.83,3.27-4.01,5.12-.6.92-1.16,1.87-1.66,2.86-.49.99-.93,2.02-1.33,3.08-.94,2.47-1.6,4.99-1.96,7.53-.32,2.55-.35,5.1-.09,7.6.09.89.21,1.76.37,2.63Z"/>
      <path class="cls-1" d="m340.06,117.24c1.9.83,3.84,1.48,5.79,1.92,1.95.47,3.93.77,5.9.86.98.05,1.96.05,2.94-.01.49-.02.98-.06,1.47-.11.24-.03.48-.06.72-.09.25-.02.49-.06.74-.09,1.95-.26,3.88-.72,5.76-1.39,1.11-.39,2.17-.85,3.22-1.35,1.05-.48,2.06-1.04,3.04-1.64,1.95-1.21,3.75-2.67,5.4-4.31,2.33-2.27,4.35-4.96,5.96-8.02.4-.76.8-1.54,1.21-2.29l1.24-2.25c.83-1.5,1.68-3.01,2.54-4.52.85-1.51,1.72-3.02,2.59-4.53l.66-1.13.67-1.12,1.35-2.23c1.81-2.98,3.66-5.97,5.55-8.97,1.9-2.95,3.86-5.89,5.85-8.85l-1.85-1.14c-1.84-1.13-3.78-2.06-5.81-2.79-1.01-.37-2.04-.66-3.08-.91-1.04-.25-2.1-.44-3.17-.58-2.13-.29-4.32-.37-6.52-.25-2.18.17-4.38.55-6.55,1.14-1.28.35-2.52.75-3.73,1.22-1.21.48-2.36,1.06-3.49,1.68-2.24,1.24-4.32,2.72-6.19,4.39-2.62,2.41-4.82,5.25-6.5,8.38-6.65,12.64-12.56,25.29-17.65,38.12l1.93.84Z"/>
      <path class="cls-1" d="m290.46,135.56l-.66,2.49c-.22.83-.43,1.68-.63,2.51l2.01.56c4.02,1.17,8.06,1.57,11.96,1.19,1.97-.16,3.91-.5,5.8-1.04,1.89-.53,3.71-1.31,5.51-2.17,2.1-1.04,4.04-2.32,5.8-3.81.22-.19.44-.38.65-.57.21-.19.43-.38.64-.58.42-.39.83-.78,1.24-1.2.8-.82,1.55-1.7,2.26-2.62,1-1.3,1.9-2.69,2.7-4.17.82-1.45,1.53-2.98,2.13-4.59.6-1.61,1.2-3.22,1.82-4.84.62-1.61,1.24-3.25,1.89-4.84,1.3-3.19,2.64-6.41,4.02-9.63l1.04-2.42,1.08-2.39c.72-1.59,1.45-3.19,2.19-4.79.74-1.6,1.49-3.21,2.26-4.81l.58-1.21.58-1.18,1.18-2.38-1.99-.89c-.49-.22-.99-.43-1.5-.63-.5-.2-1.01-.36-1.51-.52-1.02-.32-2.06-.59-3.11-.81-2.09-.44-4.24-.66-6.4-.67-.54,0-1.08,0-1.62.03-.54.03-1.08.07-1.62.14-1.08.11-2.16.29-3.23.51-1.08.22-2.14.5-3.21.82-.53.16-1.06.34-1.59.52-.52.19-1.05.39-1.56.62-4.84,2.13-9.07,5.16-12.28,9.08-2.28,2.74-4.11,5.77-5.32,9.16-1.22,3.36-2.4,6.7-3.55,10.02-1.12,3.36-2.19,6.73-3.23,10.06l-.77,2.5c-.25.83-.51,1.66-.75,2.5-.49,1.68-.96,3.36-1.43,5.04-.47,1.67-.93,3.34-1.37,5Z"/>
      <path class="cls-1" d="m252.03,171.7c.99-.05,2.01-.11,2.99-.24.99-.12,1.97-.29,2.93-.51,1.93-.43,3.78-1.06,5.58-1.85,1.81-.77,3.55-1.72,5.19-2.86.97-.67,1.88-1.39,2.75-2.16.88-.75,1.71-1.55,2.5-2.39,1.56-1.68,2.91-3.57,4.07-5.59,1.65-2.81,2.88-5.93,3.62-9.32.36-1.7.76-3.35,1.17-5.02.4-1.67.82-3.35,1.24-5.03.43-1.68.86-3.37,1.3-5.07.44-1.68.92-3.34,1.39-5.03.95-3.35,1.93-6.74,2.97-10.12,1.06-3.34,2.15-6.7,3.28-10.09l-2.08-.6c-4.14-1.18-8.5-1.55-12.75-.93-2.13.29-4.26.79-6.34,1.5-2.06.72-4.07,1.69-6.01,2.83-1.13.67-2.23,1.4-3.26,2.17-.52.39-1.02.81-1.51,1.23-.48.43-.95.86-1.41,1.31-1.83,1.79-3.44,3.77-4.8,5.88-1.89,3.02-3.25,6.34-4.04,9.81l-.58,2.59c-.2.86-.37,1.74-.55,2.62-.35,1.74-.7,3.48-1.04,5.22-.67,3.47-1.33,6.89-1.88,10.38-.57,3.46-1.1,6.91-1.6,10.32-.47,3.45-.9,6.89-1.29,10.3l2.08.3c2.06.3,4.1.41,6.1.32Z"/>
      <path class="cls-1" d="m165.21,233.22c.2,1.73.38,3.44.62,5.18.46,3.46.94,6.88,1.45,10.26l2.09-.24c2.08-.25,4.07-.68,5.98-1.28.96-.3,1.87-.65,2.8-1.03.92-.38,1.82-.8,2.7-1.25,1.55-.82,3.01-1.76,4.38-2.83l-21.25-21.25c.06.66.11,1.31.16,1.97.16,1.76.33,3.51.51,5.26.18,1.75.37,3.48.55,5.2Z"/>
      <path class="cls-1" d="m237.23,178.24c.31-3.41.65-6.86,1.03-10.31.4-3.42.85-6.87,1.33-10.34.46-3.5,1.04-6.92,1.61-10.41.59-3.46,1.19-7,1.89-10.46l-2.15-.33c-1.07-.17-2.14-.26-3.21-.31-1.06-.04-2.14-.03-3.21.04-2.13.13-4.26.48-6.35,1.04-.26.07-.53.14-.78.21-.26.09-.51.17-.77.26-.51.17-1.02.35-1.52.56-1.01.39-2,.84-2.98,1.33-.98.5-1.94,1.04-2.87,1.63-.47.31-.94.61-1.39.93-.46.31-.9.67-1.34,1.02-2.06,1.65-3.9,3.5-5.49,5.5-.4.5-.79,1-1.15,1.53-.35.53-.7,1.07-1.03,1.61-.04.06-.07.12-.11.18l28.26,28.26c.11-.64.18-1.29.24-1.95Z"/>
    </g>
  </g>
</svg>