<?xml version="1.0" encoding="utf-8"?>
<!-- Generator: Adobe Illustrator 27.3.1, SVG Export Plug-In . SVG Version: 6.00 Build 0)  -->
<svg version="1.1" id="_レイヤー_2" xmlns="http://www.w3.org/2000/svg" xmlns:xlink="http://www.w3.org/1999/xlink" x="0px"
	 y="0px" viewBox="0 0 48.8 56.5" style="enable-background:new 0 0 48.8 56.5;" xml:space="preserve">
<style type="text/css">
	.st0{fill:#8E7344;}
</style>
<path class="st0" d="M12.9,17.1c1.1,0.7,2.6,0.1,3.5-0.9c-1.3-0.6-1.5-2.4-0.9-3.6c-0.7,1-2.1,1.5-3.3,0.9
	C11.7,14.8,11.8,16.4,12.9,17.1z"/>
<path class="st0" d="M16.5,15.8c1.1,0.7,2.6,0.1,3.5-0.9c-1-0.8-1.1-2.3-0.5-3.4c-0.8,1.1-2.5,1.6-3.6,0.7
	C15.4,13.4,15.4,15,16.5,15.8z"/>
<path class="st0" d="M12.7,34.6c-0.6,0.3-1.4,0.3-2.1,0c-1.5,3,2,5.3,4.1,2.7c-1.3-0.6-1.5-2.4-0.9-3.6
	C13.5,34.1,13.2,34.4,12.7,34.6z"/>
<path class="st0" d="M13.2,21c1.1,0.7,2.6,0.1,3.5-0.9c-1-0.8-1.1-2.3-0.5-3.4c-0.8,1-2.5,1.6-3.6,0.7C12,18.6,12,20.2,13.2,21z"/>
<path class="st0" d="M10.4,30.2c1.1,0.7,2.6,0.1,3.5-0.9c-1.3-0.7-1.5-2.4-0.8-3.6c-0.7,1-2.1,1.5-3.3,0.9
	C9.2,27.8,9.3,29.5,10.4,30.2z"/>
<path class="st0" d="M23.1,10.2c-0.7,0.9-2.1,1.5-3.3,0.9c-1.5,3,2,5.3,4.1,2.7C22.6,13.2,22.5,11.4,23.1,10.2z"/>
<path class="st0" d="M9.6,22.3c1.1,0.7,2.6,0.1,3.5-0.9c-1.3-0.6-1.5-2.4-0.9-3.6c-0.7,0.9-2.1,1.5-3.2,0.9c0.1,0,0.1,0.1,0.2,0.1v0
	c-0.1,0-0.2,0-0.3-0.1C8.4,20,8.5,21.6,9.6,22.3z"/>
<path class="st0" d="M10.6,34c1.1,0.7,2.6,0.1,3.5-0.9c-1-0.8-1.1-2.3-0.5-3.4c-0.8,1-2.5,1.6-3.6,0.7C9.5,31.7,9.5,33.3,10.6,34z"
	/>
<path class="st0" d="M11.7,26.3c0.6-0.2,1.1-0.6,1.6-1c-1-0.8-1.1-2.3-0.5-3.4c-0.8,1-2.5,1.6-3.6,0.7C8.2,24.4,9.4,27.1,11.7,26.3z
	"/>
<path class="st0" d="M19.9,10.6c1.1,0.7,2.6,0.1,3.5-0.9c-1-0.8-1.1-2.3-0.5-3.4c-0.8,1-2.5,1.6-3.6,0.7
	C18.7,8.2,18.7,9.9,19.9,10.6z"/>
<path class="st0" d="M27.9,17c-0.2,0.2-0.4,0.4-0.6,0.5l0.5-0.2C27.8,17.2,27.8,17.1,27.9,17z"/>
<path class="st0" d="M23.7,14.3c-0.8,1-2.5,1.6-3.6,0.7c-1.5,3,2,5.3,4.1,2.7C23.2,16.8,23.1,15.4,23.7,14.3z"/>
<path class="st0" d="M26.2,18.1c-0.6,0.1-1.4,0.1-1.9-0.4c-0.2,0.5-0.3,1-0.3,1.5C24.7,18.8,25.5,18.5,26.2,18.1z"/>
<path class="st0" d="M33,6.5c0.4,2.9,4.9,2.3,4.5-0.6C37.3,2.9,32.5,3.5,33,6.5L33,6.5z M35,4.5c2.2-0.3,2.6,3.1,0.4,3.3
	C33.2,8.1,32.8,4.7,35,4.5z"/>
<path class="st0" d="M16.7,24.9c-0.2,0.5-3.1,1.5-2.8,0.7c-0.2-0.1-0.4-0.1-0.5-0.3c-1.5,3,2,5.3,4.1,2.7c-0.9-0.8-1.1-2.1-0.6-3.2
	L16.7,24.9z"/>
<path class="st0" d="M16,22c0-0.5,0.1-1,0.4-1.5c-0.7,1-2.1,1.5-3.3,0.9c-0.6,1.3-0.4,3.3,1.1,3.7c0.7-0.7,1.5-1.2,2.2-1.8
	C16.2,23,16,22.5,16,22z"/>
<path class="st0" d="M19.2,20.4c-0.7,0.3-1.8,0.3-2.4-0.2c-0.4,1-0.5,2.2,0.1,3c1-0.7,2.1-1.3,3.1-1.9c-0.1-0.6,0-1.3,0.3-1.8
	C20,19.8,19.6,20.2,19.2,20.4z"/>
<path class="st0" d="M20.4,18.9c-1.2-0.8-1.3-2.4-0.7-3.5c-0.7,1-2.1,1.5-3.3,0.9c-1.5,3,2,5.3,4.1,2.7C20.5,19,20.5,18.9,20.4,18.9
	z"/>
<path class="st0" d="M20.4,21.1c1.1-0.6,2.1-1.2,3.2-1.7c0-0.4,0.1-0.9,0.3-1.2c-0.7,1-2.1,1.5-3.3,0.9
	C20.4,19.7,20.2,20.4,20.4,21.1z"/>
<path class="st0" d="M16.3,11.9c1.1,0.7,2.6,0.1,3.5-0.9c-1.3-0.7-1.5-2.4-0.8-3.6c-0.7,1-2.1,1.5-3.3,0.9
	C15.1,9.6,15.1,11.2,16.3,11.9z"/>
<path class="st0" d="M25.8,19c-3.5,1.8-7.2,3.6-10.5,5.9c2.5-0.9,7.3-3.7,9.9-1.4c1.8-1.3,4-1.8,6-2.7c-0.5,0-1.1-0.2-1.5-0.5
	c-1.8,0.9-3.7,1.6-5.8,1.9c1.8-0.9,3.7-1.6,5.6-2c-0.3-0.2-0.4-0.5-0.5-0.8c-3.5,1.3-8.8,3.2-12.2,4.7c3.7-2.3,7.9-3.8,12.2-4.7
	c-0.2-0.7,0.4-1.2,0.8-1.7C28.5,18.2,27.2,18.6,25.8,19z"/>
<path class="st0" d="M24.6,23.7c0.1,0.6,0.4,1.2,0.8,1.5C25.5,24.5,25.1,24,24.6,23.7z"/>
<path class="st0" d="M25.3,23.6c0.4,0.3,0.6,0.7,0.6,1.2l4.3-3.1C28.6,22.4,27,23.1,25.3,23.6z"/>
<path class="st0" d="M24.2,23.5c-1.1-0.3-2.4-0.4-3.4-0.2c-1.1,2.9,2.5,4.6,4.3,2.2C24.5,25,24.1,24.3,24.2,23.5z"/>
<path class="st0" d="M7,35.4c1.1,0.7,2.6,0.1,3.5-0.9C9.2,33.9,9,32.1,9.7,31c-0.7,1-2.1,1.5-3.3,0.9C5.9,33,5.9,34.6,7,35.4z"/>
<path class="st0" d="M47.6,4.9c-0.3,0-0.7,0-1,0.1c-0.9,1.3-2,2.3-3.4,3C44.8,7.6,48.3,7.2,47.6,4.9z"/>
<path class="st0" d="M47.5,4c0.6-3.8-3.1-2.6-5.7-2.6C35.2,0,27.7-0.4,21.2,2c-1.1-0.8-5-3.7-2.9-0.3c-2.3-0.3-6.1-2.3-3.6,1.7
	c-0.7,0.2-4.7-0.9-4.1,0.7c0.3,0.3,1,1.1,1.1,1.8C9.3,6.2,5.8,6.7,10,8.2C9.3,10,3.4,8.9,7.8,11.8c-6.4,3.4,1.1,1.6-3.6,5
	c-0.3,0.2-0.2,0.7,0.1,0.8c1,0.5-0.7,1.3-1.4,2.7c0.8,1-3.4,5.2,0.1,3.5c0.4,1.2-5.6,8.8-1.5,7.6c0.2,1-1.1,5,1,3.9
	c0.6,1.9,0,8.6,3,4.7c3.1,6.3,6.4,13.4,13.8,15.7l0,0c8.4,1.7,17.1,0.6,25.6,0.2c0.6,0,0.5-0.9-0.1-0.9l0,0
	c-4.1-0.6-7.9-3.3-10.2-6.4c0.2-0.2,0.3-1.4,0-1.6c0.1-0.6,0.2-1.6,0-2.3c0.2-0.4,0.6-1.4,0.3-1.8c0-0.9,1.6-3,0.5-3.8
	c-4.7,2.1-9,5.4-13.4,8.3c-1-0.4-1.5-1.3-1.7-2.3c6.8-2.5,13.1-6.5,17.9-12c-0.4,3.6-1.1,4.5,1.4,2.3c0.8,1.2,0.6,2.1,1.7,0.1
	c2,2.4,0.6-7.4,0.4-7.4c2.7-6.8,7.7-14.1,6.8-21.6C49.1,5.9,48.6,3.6,47.5,4z M23.8,50.9c3.5-0.5,6.9-0.8,10.4-1.4v0
	C30.9,50.7,27.3,51.1,23.8,50.9z M40.6,54.1L40.6,54.1c-4.9,1.3-10.2,1.9-15.1,0.4C30.5,55.3,35.6,54.8,40.6,54.1z M38.3,52.7
	C38.3,52.7,38.3,52.7,38.3,52.7c-3.7,1.3-7.8,1.5-11.6,0.8C30.6,53.5,34.5,53.3,38.3,52.7z M36.4,51.1c-3.6,1.3-7.4,1.5-11.1,1
	C28.9,52,32.7,51.7,36.4,51.1z M22.9,48.2c3.4-2.6,7.4-4.4,11.6-5.3C30.5,44.4,26.7,46.2,22.9,48.2L22.9,48.2z M34.2,45.9
	c-3.8,0.3-7.3,1.6-10.8,3.1C26.5,46.8,30.4,45.4,34.2,45.9z M23,52.1c0.2-1.1-0.4-2-0.6-3.1h0c0.2,0.4,0.5,0.8,0.7,1.2
	c3.3-2,7.3-2.8,11.2-2.4c-3.8,0.3-7.5,1.1-11.1,2.4c0.5,1.4,0.9,4-0.8,4.7C23.3,54.1,23.1,53.3,23,52.1z M40.2,17.7
	c-1.5-1.5-4.6-1.7-5.1-4.2C36.3,15.5,39.2,15.5,40.2,17.7z M34.9,3.4c3.7-0.6,4.5,5.3,0.7,5.8C31.9,9.7,31.2,3.7,34.9,3.4z M20,2.5
	c0.3,0.2,0.7,0.4,0.8,0.8c-0.7-0.3-1.3-0.4-1.8-1C19.3,2.3,19.7,2.4,20,2.5z M16,4c0.7,0.2,1.5,0.8,1.6,1.5c-0.9-0.6-1.6-1-2.4-1.6
	C15.5,3.9,15.8,4,16,4z M14.1,6.6c0.7,0.3,1.3,0.7,1.7,1.3c-1.3-0.5-2.6-1.1-3.9-1.7C12.7,6.1,13.4,6.3,14.1,6.6z M12.5,8.5
	c0.6,0.4,1.2,0.8,1.6,1.4c-1.3-0.5-2.5-1.2-3.7-2C11.2,7.8,11.8,8.1,12.5,8.5z M10.1,10c1.1,0.4,2.1,1.1,2.9,2l0,0
	c-1.4-0.6-2.7-1.4-4-2.2C9.4,9.7,9.7,9.8,10.1,10z M8.4,15.3c0.7,0.2,1.3,0.5,1.9,0.9v0c-1.4-0.2-2.7-0.6-4-1.1
	C7,15,7.7,15.1,8.4,15.3z M5.8,20.6c0.7,0.2,1.3,0.5,1.9,0.9v0c-1.4-0.2-2.7-0.6-4-1.1C4.4,20.3,5.1,20.4,5.8,20.6z M5.2,22.8
	c0.7-0.1,1.4-0.1,2.1,0.1c-1.4,0.4-2.7,0.5-4.1,0.5C3.8,23.1,4.5,22.9,5.2,22.8z M4.2,25.8c0.6-0.1,1.1-0.1,1.7,0c0,0,0,0,0,0v0
	c0,0,0,0,0,0c-1.1,0.4-2.2,0.7-3.3,0.7C3.1,26.1,3.7,25.9,4.2,25.8z M0.9,29.8c1.3-1.2,3-1.9,4.7-2.3v0C4.2,28.5,2.6,29.2,0.9,29.8z
	 M3.3,30.2c0.6-0.6,1.3-1.1,2.1-1.3C4.2,30,3,31,2,32.3C2.2,31.5,2.7,30.8,3.3,30.2z M2.2,34.7c0.6-1.6,1.8-2.9,3.1-3.9v0
	C4.4,32.3,3.3,33.5,2.2,34.7z M3.1,37.5c0.2-1.8,1.1-3.5,2.2-4.9h0C4.7,34.3,3.9,35.9,3.1,37.5z M4.8,38.2c-0.3,0.8-0.6,1.7-0.9,2.5
	c0-1.8,0.7-3.6,1.6-5.1C5.4,36.4,5.1,37.3,4.8,38.2z M16.2,54.1C16.2,54.1,16.2,54.1,16.2,54.1C16.3,54.3,16.2,54.2,16.2,54.1z
	 M18.3,52.6c-0.2,0.1-0.5,0.1-0.7,0.1c0.8-0.5,0.8-1,0.4-1.8C18.8,51.1,19.2,52.3,18.3,52.6z M19,49.5c-0.1,0-0.2,0-0.3,0
	c0.8-0.5,0.8-1,0.4-1.8C20.1,47.9,20.2,49.5,19,49.5z M20.6,54.1c-0.2,0.1-0.5,0.1-0.7,0.1c0.8-0.5,0.8-1,0.4-1.8
	C21.1,52.5,21.5,53.8,20.6,54.1z M21.2,48.1c1.2,0.3,0.9,2.1-0.4,1.8C21.6,49.5,21.6,49,21.2,48.1z M20.3,50.1
	c0.7,0.7-0.1,1.7-1,1.4c0.8-0.5,0.8-1,0.4-1.8C19.9,49.7,20.1,49.9,20.3,50.1z M39.4,35.5c-0.1-1.5-0.4-3.1-0.5-4.6
	c0.1-0.1,0.2-0.3,0.3-0.4C39.6,32.1,39.8,33.8,39.4,35.5z M38.7,17.6c-2.5,0.4-5.8,1.2-7.7-1.2c-0.7,1.2-2.8,3.6-0.1,3.8
	c0,0,0,0,0,0c0.4,0.2,1.6-0.2,1.2,0.5c0,0-6.3,4.6-6.3,4.6c0.3,0.1,0.6,0.2,1,0.1c-0.1,0.2-0.2,0.3-0.3,0.5c-0.5,0-1-0.1-1.4-0.4
	c-0.4,0.9-0.5,2,0,2.9c-0.1,0.2-0.2,0.3-0.3,0.5c-0.6-0.9-0.6-2-0.1-2.9c-0.7,1-2.1,1.5-3.3,0.9c-1,1.8,0.2,4.5,2.5,3.7
	c-0.1,0.2-0.2,0.3-0.2,0.5c-0.7,0.2-1.5,0.1-2-0.4c-0.5,1.2-0.5,2.7,0.6,3.5c-0.1,0.2-0.1,0.3-0.2,0.5c-1.2-0.7-1.4-2.4-0.7-3.5
	c-0.7,1-2.1,1.5-3.3,0.9c-1.5,2.8,1.7,5.3,3.9,2.9c-0.5,1.3-2.5,1.9-3.7,1c-0.7,1.5-0.2,3.9,1.8,3.8c-0.1,0.2-0.1,0.3-0.2,0.5
	c-0.3,0-0.7-0.1-1-0.2c-0.4,0.9-0.5,2,0,2.9c-0.1,0.2-0.1,0.4-0.2,0.6c-0.7-0.9-0.7-2.1-0.2-3c-0.8,1-2.5,1.6-3.6,0.7
	c-1.3,2.4,1.2,5.1,3.5,3.2c-0.1,0.2-0.1,0.3-0.1,0.4c-0.8,0.6-1.8,0.8-2.8,0.4C15,46.6,15.3,48.8,17,49c-0.1,0.2-0.1,0.3-0.1,0.5
	c-0.4-0.1-0.7-0.2-1-0.4c-0.6,1.3-0.4,3.3,1.1,3.7c0.1,0.2,0.1,0.4,0.2,0.5c-0.2,0-0.5-0.1-0.7-0.2c-0.1,0.1-0.1,0.3-0.1,0.4
	c-0.1,0-0.2-0.1-0.3-0.1c0.1-0.1,0.2-0.2,0.3-0.3c-1.3-0.6-1.5-2.4-0.9-3.6c-0.7,1-2.1,1.5-3.3,0.9c0,0,0,0.1,0,0.1
	c0,0-0.1-0.1-0.1-0.1c0,0,0,0,0,0c-1.2-0.8-1.5-2.3-0.9-3.6c-0.3,0.4-0.7,0.7-1.2,0.9c-0.1-0.1-0.1-0.2-0.2-0.3
	c0.6-0.2,1.2-0.6,1.7-1.1c-1-0.8-1.1-2.3-0.5-3.4c-0.7,0.9-1.9,1.4-3,1c-0.1-0.2-0.2-0.5-0.3-0.7c1.1,0.8,2.7,0.2,3.5-0.8
	c-1.3-0.6-1.5-2.4-0.9-3.6c-0.7,1-2.1,1.5-3.3,0.9C7.1,40.1,7,40.6,6.9,41c-0.1-0.1-0.1-0.3-0.2-0.4c0-0.1,0.1-0.2,0.1-0.3
	c-0.1,0.1-0.1,0.1-0.2,0.2c0-0.1,0-0.1-0.1-0.2C6.8,40,7,39.9,7.2,39.7c-1.2-0.6-1.4-2.5-0.9-3.6c-0.1,0.2-0.3,0.3-0.5,0.5
	c0-0.1,0-0.2-0.1-0.3c0.3-0.2,0.6-0.4,0.8-0.7c-1-0.8-1.1-2.3-0.5-3.4c-0.2,0.2-0.4,0.4-0.6,0.6c0-0.1,0-0.2,0-0.3
	c0.3-0.2,0.6-0.4,0.9-0.7c-0.4-0.2-0.7-0.5-0.9-0.9c0-0.4,0-0.9,0.1-1.3c0.1,2.5,3.1,2.5,4.4,0.9c-1-0.8-1.1-2.3-0.5-3.4
	c-0.8,1-2.5,1.6-3.6,0.7c-0.1,0.2-0.1,0.4-0.2,0.6c0-0.2,0.1-0.4,0.1-0.6c0,0,0,0,0,0c0,0,0,0,0,0c0-0.2,0.1-0.4,0.1-0.6
	c1,1.2,2.9,0.6,3.9-0.5C8.4,26,8.2,24.2,8.8,23c-0.6,0.7-1.4,1.2-2.4,1.1c0-0.1,0.1-0.3,0.1-0.4c1,0.1,1.8-0.5,2.5-1.2
	c-1-0.8-1.1-2.3-0.5-3.4c-0.2,0.2-0.4,0.4-0.6,0.5c0.1-0.4,0.4-0.7,0.7-0.9c-1.3-0.2-2.4-0.6-3.6-1c1.2-0.2,2.4,0.2,3.5,0.7
	c0.1-0.1,0.1-0.3,0.2-0.4c1.1,1,2.8,0.3,3.7-0.7c-1-0.8-1.1-2.3-0.5-3.4c-0.4,0.5-0.9,0.9-1.5,1c0.1-0.2,0.2-0.3,0.3-0.5
	c0.4-0.1,0.8-0.4,1.1-0.7c-1.3-0.5-2.4-1.2-3.6-2c1.4,0.1,2.7,0.9,3.7,2c0.1-0.1,0.2-0.2,0.3-0.3c-0.2-0.1-0.4-0.3-0.5-0.4
	c0.1-0.1,0.2-0.3,0.3-0.4c1.1,1.2,2.9,0.6,3.9-0.5c-1-0.8-1.1-2.3-0.5-3.4c-0.3,0.4-0.7,0.6-1.1,0.9c0.4-0.6,0.9-0.9,1.3-1.3
	c0,0-0.1,0-0.1-0.1c0.1-0.1,0.2-0.3,0.4-0.4c1.1,0.6,2.5,0,3.4-0.9c-0.6-0.5-0.9-1.2-0.9-1.8c0.1-0.1,0.2-0.3,0.4-0.4
	c-0.1,2.6,3.1,2.9,4.4,1.1c-1.2-0.6-1.5-2.1-1-3.2c0.1,0,0.2-0.1,0.2-0.1c-0.4,1.3,0.2,3,1.6,3.1c0,0.2,0.1,0.3,0.1,0.5
	c-0.3,0-0.6-0.1-0.9-0.2c-0.8,1.6-0.1,4.1,2,3.8c0,0.1,0.1,0.3,0.1,0.4c-0.6,0.1-1.4,0-1.9-0.4c-1.2,2.2,0.8,4.9,3.1,3.5
	c0,0.1,0.1,0.2,0.1,0.3c-0.7,0.6-1.8,0.8-2.7,0.3c-1.5,3,2,5.3,4.1,2.7c-0.9-0.4-1.3-1.5-1.2-2.4c0.4,0.9,0.9,1.7,1.4,2.5
	c-0.1,0-0.1,0-0.2-0.1c-0.1,0.2-0.2,0.4-0.2,0.7c0.8-0.4,1.9-0.9,2.6-1.2c-1.1-1.6-2.2-3.6-1.8-5.6c-0.1,0.9,0.4,1.8,0.7,2.7v0
	c2.5,6.5,6.2,3.2,10.7,4.9C39.8,17.6,39.2,17.5,38.7,17.6z M41.2,35.4c-0.2-2.2-0.6-4.2-0.7-6.4C41.2,31,41.6,33.3,41.2,35.4z
	 M48.3,6c-1.2,2.4-5.4,3.4-7.3,2c1.3-2.1,2.3-4.9,4.9-5.9v0c1.1-0.5,1.8,1.4,1.1,2.2C48.2,4.1,48.5,5.1,48.3,6z"/>
<path class="st0" d="M45.4,5.3c0.9-0.6,1.9-1.7,0.9-2.6c-2.6,0.5-3.1,3.5-4.7,5.2C43.3,8,44.1,5.9,45.4,5.3z"/>
<path class="st0" d="M29,17.4l-0.8,0.4c0.6-0.1,1.1-0.2,1.7-0.2c0.3-0.3,0.5-0.7,0.8-1C30.3,16.8,29.3,17.2,29,17.4z"/>
<path class="st0" d="M20.2,24.8c0-0.5,0.1-0.9,0.3-1.3c-0.9,1-2.2,0.9-3.4,1.3c-1,2.9,2.5,4.5,4.3,2.1
	C20.6,26.5,20.2,25.6,20.2,24.8z"/>
<path class="st0" d="M9.9,36.5c0-0.5,0.1-1,0.4-1.5c-0.8,1.1-2.5,1.6-3.6,0.7c-1.5,3,2.1,5.3,4.1,2.7C10.2,37.9,9.9,37.2,9.9,36.5z"
	/>
<path class="st0" d="M14.5,37.7c-0.8,1-2.5,1.6-3.6,0.7c-1.5,3,2,5.3,4.1,2.7C14,40.3,13.9,38.8,14.5,37.7z"/>
<path class="st0" d="M14.7,41.6c-0.7,1-2.1,1.5-3.3,0.9c-1.5,3,2,5.3,4.1,2.7C14.3,44.5,14.1,42.7,14.7,41.6z"/>
<path class="st0" d="M21.2,27.4c-0.8,1-2.5,1.6-3.6,0.7c-1.5,3,2,5.3,4.1,2.7C20.7,29.9,20.6,28.4,21.2,27.4z"/>
<path class="st0" d="M15.3,45.6c-0.8,1-2.5,1.6-3.6,0.7c-1.5,3,2,5.3,4.1,2.7C14.8,48.2,14.7,46.7,15.3,45.6z"/>
<path class="st0" d="M16.9,30c0-0.5,0.1-1,0.4-1.5c-0.7,1-2.1,1.5-3.3,0.9c-1.5,3,2,5.3,4.1,2.7C17.3,31.7,16.9,30.8,16.9,30z"/>
<path class="st0" d="M18.1,36.4c-0.7,0.9-2.1,1.5-3.3,0.9c-1.5,3,2,5.3,4.1,2.7C17.6,39.3,17.4,37.6,18.1,36.4z"/>
<path class="st0" d="M17.8,32.6c-0.8,1-2.5,1.6-3.6,0.7c-1.5,3,2,5.3,4.1,2.7C17.3,35.1,17.2,33.6,17.8,32.6z"/>
</svg>
