<?xml version="1.0" encoding="utf-8"?>
<!-- Generator: Adobe Illustrator 27.3.1, SVG Export Plug-In . SVG Version: 6.00 Build 0)  -->
<svg version="1.1" id="レイヤー_1" xmlns="http://www.w3.org/2000/svg" xmlns:xlink="http://www.w3.org/1999/xlink" x="0px"
	 y="0px" viewBox="0 0 600 800" style="enable-background:new 0 0 600 800;" xml:space="preserve">
<rect width="590" height="790" x="5" y="5" rx="125" fill="none" stroke="rgba(0,0,0,0.05)" stroke-width="10" />
<rect width="570" height="770" x="15" y="15" rx="115" fill="none" stroke="rgba(0,0,0,0.1)" stroke-width="10" />
<rect width="550" height="750" x="25" y="25" rx="105" fill="none" stroke="rgba(0,0,0,0.3)" stroke-width="10" />
<rect width="540" height="740" x="30" y="30" rx="100" fill="rgba(0,0,0,0.7)" />
<g>
	<path d="M86.2,724.3c-3.4,0-3.4,5.2,0,5.2C89.5,729.7,89.5,724.1,86.2,724.3z"/>
	<path d="M159.3,709.2c2.5-1.1,3.7-3.7,4.2-6.2c0.2-1.1,1-2.1,0.7-3.4c-0.3-0.1-0.3-0.2-0.3-0.3c-0.3,0.1-1.5,0.5-0.9,0.9
		c0.2,0.1,0.2,0.2,0.1,0.4c-1,0.9-2.4,1.3-3.1,2.6c-0.6,0.7-0.3,2.2-0.7,3C158.3,706.9,158.3,708.6,159.3,709.2z"/>
	<path d="M156.5,153.3c-1.4,4.2-3.5,8.2-6.1,11.8c0.3,0.1,0.5,0.5,0.9,0.8c2.8-3.7,4.8-7.9,6.2-12.4
		C157.1,153.5,156.8,153.2,156.5,153.3z"/>
	<path d="M113,735.7c-7.6-1.4-14.9-3.8-21.7-7.6c-0.2,0.6-0.6,1.3-0.7,1.7c6.9,3.7,14.4,6.9,22.3,8c0-0.2,0.3-1.8,0.3-2
		C113.2,735.8,113,735.8,113,735.7z"/>
	<path d="M129.5,121.9c-2-0.1-0.5-2.9,0.7-1.4C129,118.1,126.6,122.1,129.5,121.9z"/>
	<path d="M142.9,637c-2.5-4.2-5.6,3.1-1,2.1C138.7,639.1,141.3,634.2,142.9,637z"/>
	<path d="M149.9,165.9c0,0-0.1,0.1-0.1,0.2c-2.7,3.3-5.9,6.4-9.4,8.7c-0.1,0-0.1,0.1-0.2,0.2c0.1,0,0.3,0.4,0.5,0.9
		c0,0,0.1-0.1,0.2-0.1c3.8-2.5,7.1-5.6,9.9-9.1C150.7,166.5,150,166,149.9,165.9z"/>
	<path d="M176.1,710.1c0.7,0.6,1.2,1.1,1.7,1.6c4.6-6.2,8-13.1,10.3-20.4c-0.6-0.2-1.2-0.4-1.9-0.5
		C184,697.8,180.6,704.3,176.1,710.1z"/>
	<path d="M175.3,711.4c-0.1,0.1-0.1,0.2-0.2,0.2c-4.4,5.7-10,10.5-15.8,14.6c0.3,0.6,0.7,1.2,1.1,2c0,0,0.2-0.1,0.2-0.2
		c6.2-4.1,11.9-9.2,16.3-15.1C176.7,712.7,175.5,711.7,175.3,711.4z"/>
	<path d="M137.4,735.2c0.1,0.4,0.6,2,0.7,2.4c7.5-1.5,14.7-4.6,21.3-8.6c-0.4-0.8-0.9-1.5-1.3-2.1
		C157.4,727.5,147.5,733,137.4,735.2z"/>
	<path d="M114.3,735.9C114.3,736,114.2,736,114.3,735.9c0,1-0.1,1.6-0.1,2.4c7.5,1.4,15.3,1.1,22.7-0.6c-0.2-0.7-0.5-1.5-0.7-2.4
		C129,736.7,121.5,737.1,114.3,735.9z"/>
	<path d="M126.8,180c0,0.2,0.3,1.3,0.4,1.4c4.5-0.9,8.8-2.6,12.6-5c0.1,0,0.1-0.1,0.2-0.2c-0.2-0.3-0.5-0.8-0.7-1.2
		C138.9,175.4,132.9,178.7,126.8,180z"/>
	<path d="M126.1,179.6c0,0,0.1,0,0.2,0c-0.1-0.1-0.1-0.3-0.1-0.4c-4.1,0.9-8.4,1.1-12.7,0.5c0,0.1,0,0.1,0,0.2c0,0,0,0,0,0.1
		C117.7,180.4,122,180.5,126.1,179.6z"/>
	<path d="M127.1,179.4c4.4-0.8,8.5-2.6,12.3-4.9c0,0,0-0.1-0.1-0.2c-0.1-0.1-0.2-0.3-0.1-0.5c-3.8,2.4-7.9,4.2-12.2,5.2
		c0,0.1,0.1,0.1,0.1,0.2C127,179.2,127,179.3,127.1,179.4z"/>
	<path d="M99.5,175.2c4.1,2.3,8.7,4.1,13.3,4.7v-0.3c0,0,0,0,0,0c-4.8-0.8-9.4-2.6-13.7-5.6C99.3,174.3,99.5,174.7,99.5,175.2z"/>
	<path d="M141.2,163.3c1-1,0.9-2.7,1.6-3.8c0-0.3,0-0.7,0-1c0-0.1,0-0.1,0-0.2c-0.3,0-0.4,0.2-0.5,0.2c-0.3,0.2,0.2,0.4,0,0.5
		c-0.1,0.1-0.3,0.3-0.4,0.3c-1.1,0.5-1.8,1.4-1.8,2.6c0,0.2-0.1,0.4-0.3,0.6c-0.4,0-0.4,1.4-0.2,1.5
		C140.1,164.6,140.7,163.7,141.2,163.3z"/>
	<path d="M95.7,173.5c-2.1,0-2,3.2,0,3.1C97.8,176.8,97.7,173.3,95.7,173.5z"/>
	<path d="M149.8,165.1c-0.1-0.1-0.5-0.4-0.6-0.6c-2.6,3.5-5.9,6.6-9.6,9.1c0.1,0,0.1,0.1,0.2,0.2c0,0.1,0.1,0.2,0.2,0.2l0.1,0.1
		C143.7,171.6,147.1,168.5,149.8,165.1z"/>
	<path d="M455.7,173.5c-2.1,0-2,3.2,0,3.1C457.8,176.8,457.7,173.3,455.7,173.5z"/>
	<path d="M113.5,180.8L113.5,180.8c-0.7,0.3-0.8,0.7-0.8,1.1c4.5,0.6,9.4,0.9,13.9-0.1c-0.1-0.4-0.3-0.9-0.4-1.4
		C122,181.3,117.7,181.3,113.5,180.8z"/>
	<path d="M99.8,171.7c-0.2-0.1-0.5-0.3-0.7-0.3c0,0-0.1,0.1-0.2,0.3C99.2,171.8,99.5,171.8,99.8,171.7z"/>
	<path d="M98.4,172.9c0,0,0,0.1-0.1,0.1c0.1,0.1,0.1,0.1,0.2,0.2L98.4,172.9z"/>
	<path d="M98.4,176.5c0,0.1-0.1,0.2-0.2,0.3c4.3,2.3,8.8,4.3,13.6,4.8c0.1-0.1,0.2-1,0.2-1.1c-4.6-0.6-9.3-2.4-13.3-4.6
		C98.6,176.1,98.6,176.3,98.4,176.5z"/>
	<path d="M470,50H130c-44.2,0-80,35.8-80,80v540c0,44.2,35.8,80,80,80h340c44.2,0,80-35.8,80-80V130C550,85.8,514.2,50,470,50z
		 M507.2,118.2c-1,0-1.9-0.1-2.5-1c-0.5-0.1-1,0.1-1.5,0.1c-0.2-0.2-0.7,0.1-0.7-0.3c-0.1-0.2-0.3-0.3-0.6-0.3c0,0.2,0,0.3,0,0.4
		c-0.3,0.7-0.8,0.4-1.4,0.1c-1.2,0-2.6-0.2-3.8-0.4c-0.6-0.8-1,0.8-1.8-0.3c-0.1,0-0.2-0.1-0.2-0.1c-0.7-0.2-1.8-0.2-2.3-0.9
		c-0.3-0.2-0.6-0.1-0.8-0.1c-0.5-0.1-1-0.6-1.6-0.5c-6.4-4.1-13.9-6.4-21.5-6.3c-0.8,0.1-1.6-0.5-2.3-0.7l-0.3,0.2
		c0.2-0.3,0.4-0.5,0.7-0.7C480.7,101.8,497.8,106.4,507.2,118.2z M457.9,90.9c1.2-0.4,2.6,1.3,1.6,2.4c-0.3,0.2,0.2,0.5,0.3,0.7
		c1.7,2.6,6.9,6.2,7.5,0.9c0.2-2.2-0.2-4.7-0.8-6.8c-1.2,0.2-2.5-1-2.1-2.2c0.8-3.2,5.6-0.4,2.9,1.9c-0.1,0-0.1,0.1-0.2,0.1
		c6.2,12.3,10.3,8.1,12.2-3.3c-0.1,0-0.2,0-0.2-0.1c-2.3-0.7-1.8-3.9,0.3-4.3c0-0.2,0.2-0.2,0.4-0.2c2.6,0.5,2.5,4-0.1,4.4
		c0,0.2,0,0.3,0.1,0.4c0.8,3.5,1.3,7.4,3.9,10.1c3.8,1.7,6.5-4.5,8.2-7.1c-1.9-1-0.7-4.2,1.5-3.5c2.1,0.7,1.4,3.9-0.7,3.6
		c-2.8,7.5,0.3,14,6.8,5.6c0-0.1,0.1-0.1,0.2-0.2c0,0-0.1-0.1-0.1-0.2c-1.4-1.8,1.9-3.7,2.6-1.4c0.4,1.3-1.1,2.4-2.2,1.8
		c-3.3,3.7-5.5,8.3-6.5,13.1c-9-3.4-19.2-3.3-28.1,0.2c-1.1-4.7-3.2-9.5-6.5-13.1c-0.1,0-0.2,0-0.2,0.1
		C456.8,94.5,455.8,91.3,457.9,90.9z M171.2,633.6c-0.2,0-0.4,0-0.5,0c-0.9-0.6-1.9,0.2-2.7-0.7c-0.3-0.3-0.9-1-1.4-1.1
		c-0.9-0.2-1.6,0.5-2.4,0.4c-1.1,0-1.3-0.8-2.2-0.9c0,0.1,0,0.2,0.1,0.2c0,0.1,0,0.2,0,0.2c-0.7,1.3-1.3,0.5-2.4,0.1
		c-0.2-0.1-0.5-0.2-0.7-0.1c-0.6,0.3-1.3-0.2-2-0.1c-1.1-0.3-2.4-0.3-3.5-0.5c0,0,0,0,0-0.1c-0.6-1.2-1.6,0.4-2.2,0.1
		c-1.4-1.3-3.6-0.8-4.9-2.2c-0.2-0.1-0.5-0.6-0.7-0.4c-0.4,0.1-0.6,0-0.9-0.1c-8-3.1-15.4-8.1-24.2-9.6c-4.6-0.9-9.2-1.5-13.8-1.4
		c-1.2,0.2-2.3-0.6-3.4-1.1c-0.1,0.1-0.3,0.1-0.4,0.2l0.1-0.3c0.1,0,0.2,0.1,0.3,0.1C125.6,605,155.6,615,171.2,633.6z M162.5,589.6
		c0.7,2.1-1.7,3.9-3.6,2.9c-5.6,6.1-8.7,13.7-10.8,21.5c-0.1,0-0.2,0-0.2-0.1c-14.7-5.6-31.5-5.6-46.2,0c0-0.1-0.1-0.2-0.1-0.2
		c-2-7.7-5.4-15.4-10.7-21.4c-3.2,1.6-5.5-3.8-1.9-4.7c2.3-0.7,4.3,2.6,2.4,4.2c11,14.4,15.8,4.9,11.5-8.5c-3.7,0.5-5-5.4-1.1-6.1
		c1.9-0.4,3.9,1.1,3.6,3.2c-0.1,1-0.7,1.8-1.4,2.5c0,0.1,0,0.1,0.1,0.2c10.8,20.3,16.7,12.8,20.1-5.6c-4-0.8-3.9-6.6,0.1-7.2
		c1-0.3,1.2-0.3,1.6-0.3c0,0,0.1,0,0.1,0.1c4,0.6,3.8,6.7-0.2,7.2c1.4,6,2.2,13.4,7.2,17.6c6.5,1.5,10-7.6,13-12.1
		c-3.1-1.7-0.9-6.9,2.5-5.6c3.6,1.3,1.9,6.4-1.5,6c-4.6,12.9,0.5,23.5,11.2,8.7c-0.1-0.1-0.1-0.2-0.2-0.2
		C155.8,588.5,161.2,585.8,162.5,589.6z M147.2,118.2c-1,0-1.9-0.1-2.5-1c-0.5-0.1-1,0.1-1.5,0.1c-0.2-0.2-0.7,0.1-0.7-0.3
		c-0.1-0.2-0.3-0.3-0.6-0.3c0,0.2,0,0.3,0,0.4c-0.3,0.7-0.8,0.4-1.4,0.1c-1.2,0-2.6-0.2-3.8-0.4c-0.6-0.8-1,0.8-1.8-0.3
		c-0.1,0-0.2-0.1-0.2-0.1c-0.7-0.2-1.8-0.2-2.3-0.9c-0.3-0.2-0.6-0.1-0.8-0.1c-0.5-0.1-1-0.6-1.6-0.5c-6.4-4.1-13.9-6.4-21.5-6.3
		c-0.8,0.1-1.6-0.5-2.3-0.7l-0.3,0.2c0.2-0.3,0.4-0.5,0.7-0.7C120.7,101.8,137.8,106.4,147.2,118.2z M97.9,90.9
		c1.2-0.4,2.6,1.3,1.6,2.4c-0.3,0.2,0.2,0.5,0.3,0.7c1.7,2.6,6.9,6.2,7.5,0.9c0.2-2.2-0.2-4.7-0.8-6.8c-1.2,0.2-2.5-1-2.1-2.2
		c0.8-3.2,5.6-0.4,2.9,1.9c-0.1,0-0.1,0.1-0.2,0.1c6.2,12.3,10.3,8.1,12.2-3.3c-0.1,0-0.2,0-0.2-0.1c-2.3-0.7-1.8-3.9,0.3-4.3
		c0-0.2,0.2-0.2,0.4-0.2c2.6,0.5,2.5,4-0.1,4.4c0,0.2,0,0.3,0.1,0.4c0.8,3.5,1.3,7.4,3.9,10.1c3.8,1.7,6.5-4.5,8.2-7.1
		c-1.9-1-0.7-4.2,1.5-3.5c2.1,0.7,1.4,3.9-0.7,3.6c-2.8,7.5,0.3,14,6.8,5.6c0-0.1,0.1-0.1,0.2-0.2c0,0-0.1-0.1-0.1-0.2
		c-1.4-1.8,1.9-3.7,2.6-1.4c0.4,1.3-1.1,2.4-2.2,1.8c-3.3,3.7-5.5,8.3-6.5,13.1c-9-3.4-19.2-3.3-28.1,0.2c-1.1-4.7-3.2-9.5-6.5-13.1
		c-0.1,0-0.2,0-0.2,0.1C96.8,94.5,95.8,91.3,97.9,90.9z M103.7,111.4c-2.1-1.3-5.2-1.8-7.5-1c-0.1,0.1-0.2,0.2-0.3,0.3
		c-0.2,0-0.1,0.2-0.1,0.4c1.7,0,3.5-0.2,5.2,0.2c-1.8,0.2-4.5,0.1-5.8,1.3c1.7,0.1,3.4-0.6,5.1-0.6c-3.5,1.5-7.1,3.3-9.9,6.1
		c-0.2,0.3-0.8,0-0.4-0.3c0.7-1.4,2-2.5,3.1-3.4c0.5-0.5-0.3-0.9-0.7-0.9c-0.1-0.1-0.1-0.2,0-0.2c0.2-0.5,1.3-0.4,1.4-0.8
		c-0.3-0.5-1.6-0.8-1-1.6c0.5-0.4,1.2-0.6,1.3-1.3c2.1-4.1,10.6,0.5,13.9,1.4c10.7-0.5,21.9,4.3,29.4,11.9c-1.1,1.2-2.4,2.4-3.7,3.4
		c5.1-2.1,29.6-2.6,17.5,6.8c-0.6,0.4-1.5,1.2-0.5,1.6c9,0.6,9.2,11.5,6.7,18.1c0.2,0.1,0.6,0.2,1,0.3c0.3-0.7,0.4-1.7,0.6-2.5
		c0.4,0.1,0.5,0.2,0.8,0.2c0,0.2,0.1,0.3-0.1,0.5c-5.2,26.5-38.1,41.2-61.1,26.7c-2.8,2.1-5.5-0.7-5.2-3.5
		c-2.5-0.5-17.6-19.2-9.3-16.1c2.3,5.5,6.2,10.7,11.1,14.2c0.9-0.4,1.9-0.4,2.7,0c0.3-0.5,0.6-1,0.7-1.6c0,0-0.1,0-0.1-0.1
		c-0.5-0.2-1.2-0.5-0.6-1c0.1,0,0.2-0.1,0.2,0c0,0,0.1,0,0.1,0.1c0.8,0.4,1.5,0.7,2.1,1.2c0-0.2-0.1-0.4-0.3-0.6
		c-0.9-0.6-2.9-0.8-2-2.2c-0.1-0.1-0.2-0.1-0.3-0.2c0-0.1,0.1-0.1,0.1-0.2l-0.1-0.1c0.3-0.1,0.5-0.4,0.8-0.4
		c0.2-0.6,0.2-1.4,0.5-1.9c0.1-0.1,0-0.1,0-0.2c-0.1-0.1-0.2-0.1-0.2-0.3c0.4-1.3,1.5-0.7,2.3-1.3c0.4-0.6,0-1.3,0.4-2
		c0.3-1.2-0.4-2.5,0.4-3.5c0.1-0.1,0.3-0.3,0.4-0.4c0,0,0-0.1,0.1-0.1c0.3-0.7,0-1.6,0-2.4c-0.3-0.4-0.8-0.5-1.4-0.5
		c-0.1-0.1-0.2-0.3-0.3-0.4c-0.7,0.6-0.9,1.5-1,2.4c-1.5-4.7,7.5-9.3,9.7-13.1c3.2-6.1-5.3-3.5-8.3-3c-2,0.4-4,0.6-6,0.8
		c-1.1,0.2-0.5-1.1-0.2-1.7H95c2.8,1.5,5.2-2.7,7.6-3.7c7-1,13.9-3.1,20.9-4.1c4.8-0.5,11.5,0.7,14.9-3.4c0.4,0.9-0.3,2.1-1,2.8
		c-0.1,0.2-0.4,0.1-0.5,0.3c0,0.1,0.1,0,0.1,0c1-0.2,0.8,2.3,0.2,2.6c-0.2,0.2-0.4,0.2-0.6,0c-0.9,0-1.8,0.4-2.6-0.2
		c-0.6,0-1.4,0-1.8-0.5c-0.2-0.4-1.1-0.4-1.5-0.1c0,0.4-0.2,0.8-0.3,1.2c-0.4,0-0.7,0-1,0.1c-0.3-0.4-1.1-0.7-1.4-1.3
		c-4.4,0.1-9.6-0.3-13.2,2.5c-1.1,0.2-1.6,1.5-2.3,2.2c0.3,0.8-0.7,1.1-0.7,1.6c0.5,1.2,0.7,2.3,0.2,3.6c0,0.4-0.3,0.6-0.6,0.8
		c0,0,0,0-0.1,0.1c0.5,0.4,0.4,1.2,0.6,1.9c0.4,0.4,0.9,1,1.4,1.4c0.8,0.3,0.5,1,0.7,1.5c0.7,0.6,1.3,1.1,2,1.7
		c0.6,0.2,1.3,0.1,1.9-0.2c0.4-0.2,0.7,0.2,1.2,0.2s1,0,1.4-0.3c0.6-0.5,1.5-0.3,2.2-0.3c0.1,0.1,0.2,0.1,0.2,0.2
		c0.6,1,1.7,0.6,2.6,0.8c0.1,0.1,0.1,0.2,0.2,0.3c0,0.5,0.1,1-0.2,1.4c-0.1,0.6-0.3,1.3-0.2,1.9c0.5,0.8,0.9,1.4,1.3,2.2
		c0.8,0.8,0.4,1.9,0.9,2.9c0.2,0.1-0.2,0.4-0.2,0.4s-0.1,0-0.1,0.1c-0.1,0.1-0.3,0.3-0.4,0.4c-0.1,1.3-1,2.8,0.3,3.8
		c0.5,0.8,0,2.1,0.4,2.9c0.3,0.3,0.6,0.6,0.8,0.9c0.4,0.6,0.5,1.3,0.1,1.9c0.1,0,0.1,0,0.1,0c1.1-0.3,2.2,0.1,3.4-0.2
		c1.7-1,3.3-2,3.8-4c0,0,0.1,0,0.1-0.1c2.7-1.5-0.4-2.3,3.5-4.5c0.1-0.3,0.3-0.6,0.6-0.7c0.3-0.6,0.2-1.3,0.2-2
		c-1.6-4.9,5.2-7.3,5-12.3c-1,0.2-1.9,0.7-2.9,0.8c0-0.3-0.2-0.7-0.3-1c0,0,0,0,0-0.1c1.2-0.7,2.5-1.2,3.6-1.9c0.2-0.8,1-1,1.4-1.7
		c0,0,0,0,0-0.1c0.2-0.3,0.3-0.5,0.3-0.9c0.1-0.1,0.1-0.2,0.3-0.2c0.3-0.3,0.4-0.6,0.2-0.9c-0.2-0.4-0.6-0.8-0.9-1
		c-0.1,0-0.1-0.1-0.2-0.1c0-0.1,0-0.3,0.1-0.4c0.1-0.2,0.5-0.1,0.7-0.1s0.3-0.1,0.4,0.1c0.3,0.2,0.7,0,0.9,0.2
		c0.1,0,0.2,0.1,0.2,0.1c0.9-0.2,1.6,0.8,1.9,1.6c0,0.3,0.1,0.7,0.3,0.8c0,0,0.1,0,0.2,0c0.1-0.1,0.2-0.1,0.2-0.3
		c0.3,0.8,0.3,1.8,0.7,2.6c0,1.1,0.2,2.3,0.7,3.3c0.4-0.6,0.4-1.9,0.5-2.7c0.2-1,0.8-1.8,0.8-2.8c0.2-0.7,1.1-1.1,1.7-1.2
		c0.9,8.9-1.7,16.9-6.4,23.4c0.1,0,0.2,0,0.4,0.1c0.2,0.1,0.2,0.2,0.4,0.4c0-0.1,0.1-0.1,0.1-0.2c2.5-3.4,4.5-7.1,5.8-11.1
		c-0.4-0.1-1.1-0.2-1.2-0.7c0-0.3,0.5-0.5,0.6-0.2c0.2,0,0.4,0.1,0.6,0.2c0,0,0-0.1,0.1-0.1c2.2-6.2,2.6-16.5-6.2-17
		c-0.6-0.2-1.4-0.8-1.2-1.5c0.7-2.1,3.6-2.4,4.2-4.6c0.2-6-16.5-3.1-20.3-2.2c1,0.9,2.4,0.4,3.7,0.4c1.4,1.2-4.9,2.3-5.9,2.4
		c-5.5,0-10.9-0.1-16.2,2.1c-4,1.2-8,2.1-12.2,2c-1.7,0.7-3.2,2.3-4.6,3.6c-1.8,2-1.4-0.7-1.2-1.9c-0.2-0.1-0.7-0.2-0.8,0.1
		c-11.1,14,10.4,2.9,12.7,6c-4.1,6.8-12.8,9.5-10.2,19.3c-0.1,0-0.2,0-0.2-0.1c-5.8-1.9-7.1-8.1-10.8-12.2c0.2-0.2,0.5-0.3,0.5,0
		c1,0.8,2.2,1.6,3.5,1.8c0.2,1.8,1,3.6,2.3,4.7c0-0.1,0-0.1,0-0.1c-0.6-1.6-1.4-3.3-1.7-4.9c0.1-0.1,0.6-0.5,0.8-0.7
		c0.5,0.7,0.8,1.4,1.2,2.1c0.2,0,0-0.2,0.2-0.2c0-0.1,0-0.2-0.1-0.2c-0.3-0.7-0.6-1.5-0.9-2.1c0.1-0.2,0.6-0.7,0.7-0.8
		c0.8,0.4,1.5,0.9,2.3,1.3l-0.4-0.4v-0.1c-0.7-0.6-1.4-1.2-2.2-1.7c0.1-0.2,0.2-0.4,0.3-0.5c4.7,0,5.8,0.1,0.4-0.7
		c0.6-1.7,3.2-1.6,4.6-2.4c-1.4,0.1-3,1.1-4.3,1c-0.5-0.3-1-0.8-1.7-0.9c-0.5-0.4-1-0.7-1.3-1.3c-0.7,1.4-0.3,3.8-2.4,3.9
		c-1.6,0.1-2.6,0.9-4,1.3c-0.8,0-0.7-1-0.4-1.5c1.1-4.5,5.1-7.5,8.9-9.7c-1.9,0.5-3.6,1.5-5,2.9c0-0.1,0-0.2,0.1-0.2
		c1.9-3.4,5.6-5.2,9.1-6.4c1-1,2.2-2.1,3.6-2.3v0.1c-0.8,0.6-2,1.5-2.3,2.4c0.1,0,0.1-0.1,0.2-0.1c1.2-0.8,2.4-2.1,3.8-2.2
		c0,0.1-0.1,0.1-0.1,0.2c-1,0.9-2,1.7-3,2.6c2.9-1.1,5.9-2.7,9.1-2.8c-0.5-0.3-0.9-0.5-1.3-1c0-0.1-0.1-0.1-0.1-0.2
		c-1.5-0.8-1.8-2.3-1.5-3.9c0.7-3.9,7.4,0.5,8.8,2.3c-0.1,0-0.1,0-0.1,0c-1.2-0.7-6.8-4.7-7-2.3c0.5,0.1,1.1,0.1,1.6,0.4
		c-0.5,0-2.5-0.1-1.4,0.6c1.5,0.4,3.3,0.4,4.7,1.2c0.1,0,0.2,0.1,0.2,0.1c-1.5-0.1-3.3-0.9-4.7-0.6c0,0-0.1,0.1,0,0.1
		c0.4,0.9,0.9,2.4,2.2,2.1c1.6-0.2,7.2,0.5,6.1-2.3c-0.1-0.2-0.3-0.2-0.2-0.4c5.2,1.4,10.9,2,16.3,1c0-0.1,0-0.2,0-0.3
		c-0.8-0.2-1.9-0.2-2.6-0.6c0,0-0.1,0-0.1-0.1c-0.1,0-0.2-0.1-0.3,0c-3.5,1-10.7,0.7-9.4-4.5v-0.1c0.1-0.1,0.2,0,0.3,0.1
		c2.1,5.6,9.8,3.2,12.9-0.3c-17.2-20.3-57.4-5.3-48.6,22.6c0,0,0,0,0,0.1h-0.1C76.8,130.8,89.6,114.7,103.7,111.4z M97,170.7
		c0.1,0,0.2,0,0.3,0.1c-0.1,0.2-0.2,0.5-0.3,0.7c-0.2-0.1-0.3-0.2-0.4-0.2c0,0,0-0.1,0.1-0.1C96.8,171.1,97.1,170.9,97,170.7z
		 M140.2,144.4c-0.9-0.5-1.1-1.9-1.8-2.6c-0.4-0.2-0.5-0.5-0.6-0.8c0-0.7-0.1-1.5-0.7-1.9c0.5-0.1,0.4-0.1,0.4-0.1
		c0.2-0.9-0.8-1.5-0.6-2.4c0.1-0.1,0.1-0.2,0.2-0.3c0.5,0,0.6,0.7,0.9,0.9c0.2,0.2,0.3,0.7,0.3,0.9c0.3,0.2,0.5,0.7,0.7,0.9
		c0.2,0.3,0.2,0.8,0.2,1.2c0,0.3,0.6,0.5,0.6,0.8c0.2,0.5,0.8,1.1,0.7,1.7C140.4,143.1,140.8,144.8,140.2,144.4z M118.5,146.5
		c-0.1,0-0.2,0.1-0.2,0.1c-1.2,0.2-1.3-1.6-0.4-2c0.6-0.4,1.3-1.1,2.1-1c-0.1,0.2-0.1,0.1,0,0.1c0.1,0.2,0,0.4,0,0.6
		c0.4,0.4,0.7,0.8,1.2,0.9v0.2c0,0-0.2,0-0.2,0.1c-0.3,0-0.4,0.4-0.5,0.6c-0.6-0.1-1.3-0.1-1.9-0.1
		C118.2,146,118.5,146.2,118.5,146.5z M142.8,128.3c0.4,1,1.2,2.1,1.5,3.1c-0.5,0.7-1.1,0.4-1.7,0c-1.3-0.4,0.5-1.5-1.5-2.9
		c0,0,0-0.1-0.1-0.1c0-0.4-0.4-0.5-0.4-0.8c0.2-0.3,0.3-0.7,0.4-1c0.2-0.4,0.9-0.3,1.3-0.3c0.3,0,0.2,0.2,0.4,0.3c0,0.2,0,0.3,0,0.4
		c-0.2-0.1-0.6,0.4-0.7,0.3C141.7,127.8,142.6,128,142.8,128.3z M146.1,137.2c-0.4,0.4-0.7,1.3-1.4,1.5c-0.8,0.2-0.4-0.8-0.8-1.2
		c-0.1,0-0.1-0.1-0.2-0.1c-0.1-0.1-0.2-0.2-0.2-0.2c-0.1-0.3-0.5-0.6-0.5-0.9c-0.2-0.2-0.2-0.5-0.3-0.7c0.3-0.4,0.7,0,0.9,0.1
		C144.2,136.8,144.8,137.6,146.1,137.2z M117.7,125.9c-1.9-1.4-2.2-4.5-1-6.5c0.2-0.3,0.4-0.8,0-1.1c-14.5-4.5-33.3,6-32,22.5v0.1
		c-0.1,0-0.2-0.1-0.3-0.1c-2.5-17.6,16.7-30.4,32.9-26.2c1.7,0.6,6.4,0.9,6.6,2.8c-1.3,0.8-3.2,0.7-4.4,1.8c-0.1,0-0.1,0.1-0.2,0.1
		C116.9,120.8,117,123.6,117.7,125.9z M114.3,126.2c-1.6,0-1.6-2.6,0-2.5C115.9,123.6,115.9,126.3,114.3,126.2z M103.3,129.9
		c-0.6-1.3-1.2-3.1-0.5-4.5c0.6-0.8,1.5-2.3,2.7-1.5c0.7,1,0,1.9-0.6,2.6c-0.2,0-0.2,0-0.2,0.1C105.3,128.2,106.2,131.3,103.3,129.9
		z M130.1,122.9c0.1,0.1-0.2,0.1-0.1,0.2c-0.1,0-0.2,0-0.3,0.1c-2.3,0.7-3.9-1.4-3.5-3.5c-0.6-0.5-1.1-1-1.7-1.5c0-0.1,0.1,0,0.1,0
		C128.8,118.8,125.5,123.3,130.1,122.9z M129.1,119.6c1.7-0.1,1.9,2.7,0,2.7C127.3,122.4,127.4,119.5,129.1,119.6z M80.6,135.2
		c-0.4,3.7,1,7.5,2.6,10.8c-0.5,1.9,0.3,4,2.6,3.5c2.7,2.3,3,6,5.5,8.5c1.9,1.9,5.3,6,8,4c0,0,0-0.1,0.1-0.1
		c-0.8,5.2-7.2-1.4-8.7-3.3c0,0,0-0.1-0.1-0.1c0.4,3,1.6,5.9,3.1,8.5c0,0.1,0.1,0.2,0.2,0.2c0.8,0.7,1.7,2.2,2.5,3.1
		c-10.2-5.8-14-21.1-16.4-32.6C80.3,136.9,80.2,135.9,80.6,135.2z M60.2,665.3c0.3-1.2,0.3-2.8,0.9-4c-0.9,6.4,2.3,12.6,4.2,18.3
		c-1,3.3,1.1,5.8,4.4,5.4c4.4,3.7,5.1,10,9,14.1c3.2,2.9,8.9,10.3,13.3,6.5c-1.3,8.9-12-1.9-14.6-5.1c0.8,5.1,2.8,9.9,5.4,14.3
		c1.1,0.6,1.1,1.8,2,2.6c0.9,0.9,2.4,1.8,2,3.1c-11.6-9.2-20.1-22.9-22.2-37.6c-2.2-4.9-4.1-10.2-4.6-15.6L60.2,665.3z M122.2,645.5
		c0.2,0.2-0.1,0.7-0.2,0.2c-5.8-6.1,1.3-11.6-1.6-12.6C96.2,626,65.3,643.4,68,670.6c-0.2,0-0.4-0.1-0.5-0.1
		c-4.3-27.1,24.2-49.1,49.8-44.2c2,0.1,17.1,2.8,14.6,5.4c-2.4,1-5.3,1-7.3,3.1C121,637.2,120.7,641.7,122.2,645.5z M116.9,646.3
		c-2.6,0-2.5-4.1,0-4C119.5,642.2,119.4,646.5,116.9,646.3z M101,647c1.2,3,2.2,8.5-2.7,5.4c-0.8-2.4-2-5.3-0.6-7.7
		c1-1.1,2.5-3.4,4.1-2c1.1,1.4,0.1,3-0.8,4.2C101,646.9,101,646.9,101,647z M106.9,668.4c-7.6-0.4-15.3,2.8-23,2.9
		c-0.4-1,0.1-1.8,0.6-2.7c0.1,0,0.1,0,0.1,0.1c4.8,2.4,8.5-4.5,12.6-6.1c9.9-1.3,19.6-3.9,29.3-6.1c9.4-2.3,22.9,2.1,29.6-6.2
		c0.6,2-0.9,4.3-2.7,5.1c0,0.1,0.1,0,0.1,0.1c1.8-0.1,0.7,5.4-1,4.5c-0.7-0.3-1.7,0-2.4,0.2c-0.9,0.2-1.5-0.3-2.1-0.6
		c-0.3,0-0.9,0-1.1-0.2c-0.3-0.4-1.1-0.3-1.2-0.7c-0.5-0.8-1.8-0.5-2.5-0.2c0,0.7-0.3,1.3-0.6,1.9c-0.6,0-1,0.1-1.6,0.1
		c-0.9-0.7-1.9-1.4-2.6-2.2c-7.1,0-16.5-0.9-22,4.2c-1.7,0.2-2.6,2.1-3.7,3.2c-0.3,0.5,0,1.1-0.4,1.6c-0.3,0.6-1.3,0.9-1,1.6
		c0.3,1,1.2,2.2,0.7,3.2c-0.4,0.9,0.2,2-0.5,2.7c-0.2,0.6-0.6,1-1.1,1.4c0,0.1,0.2,0.2,0.2,0.4c0.1,0.1,0.1,0.2,0.2,0.2
		c0.2,0.9,0,2.1,0.7,2.9c1.2,1.9,2.9,1.7,3.1,4.2c0.3,0.2,0.4,0.6,0.9,0.6c1,0.4,1.4,1.6,2.4,2c0.6,0.4,1.6,0.3,2.2,0.1
		c0.7-0.1,1.1-0.9,1.9-0.6c0.8,0.4,1.4,0.2,2.2,0.2c1.3-0.9,3.1-1.9,4.7-1.4c0.4,0.4,0.8,0.9,1.2,1.2c0.9,0.9,2.3-0.1,3.4,0.5
		c0.2,0.3,0.2,0.6,0.4,0.7c-0.4,3.3-1.6,4.5,1,7.3c0.5,0.7,0.6,1.6,1.4,2.1c0.4,0.3,0.4,0.8,0.4,1.2c0,0.9,0.2,2,0.7,2.7
		c0.3,0.3-0.3,0.6-0.5,0.9c-0.1,0.2-0.2,0.4-0.5,0.5c-0.3,0.3-0.3,1.1-0.4,1.5c-0.5,1.5-1.1,3.6,0.2,4.7c1.1,1.5,0.7,3.7,1.1,5.4
		c0.6,0.5,1.3,1.2,1.4,2c0.6,0.9,0.1,2-0.1,2.9c1.9-0.5,4,0.3,5.7-0.4c2.7-1.8,5.7-3.6,6.2-7.1c5-2.6-0.5-4.1,5.9-7.6
		c1.3-1.4,1.6-3,1.5-4.9c-0.5-1.4-0.4-3.2,0-4.7c2.3-5.1,8.4-8.9,8.5-15.2c-1.5,0.5-3,1-4.5,1.5c-0.4-0.4-0.4-1.2-0.7-1.6
		c0,0,0,0,0-0.1c1.5-1.3,5.4-1.9,6-3.6c0.8-1.2,3-2.2,2.9-3.9c0.1-0.1,0.1-0.1,0.2-0.1c0.1-0.1,0.2-0.1,0.2-0.2
		c1.3-1.3-0.3-2.8-1.2-3.5c-0.2-1,1.1-1.1,1.6-0.7c0.1,0,0.2,0.1,0.4,0.1c0.3,0.3,1.1,0,1.4,0.2c0.6,0.4,1.4-0.2,2,0.5
		c0.6,0.7,1.1,1.4,1.5,2.2c0.1,0.5,0,1.1,0.5,1.4c0.1,0,0.2,0,0.2-0.1c0.1-0.1,0.1-0.1,0.1-0.2c0.1-0.1,0.1-0.2,0.1-0.2h0.1
		c1,3.2,1.3,6.4,2.1,9.6c0.5-1.3,0.8-3.2,0.9-4.7c0.1-1.6,1.7-2.9,1.6-4.6c0.1-1.2,1.6-1.8,2.6-2.2c3.8,49.7-53.3,83.3-94.5,54.9
		c-0.1,0-0.1-0.1-0.2-0.1c0,0,0,0,0-0.1l0.6-0.4c0.2-0.5,0.5-1,0.7-1.5c0.8,0.6,2.3,0.8,2.5-0.5c0.2-2-3.1-2.1-4.2-3.1
		c0.1-0.5,0-1.1,0.2-1.5c0-0.1,0.1-0.2,0.1-0.2c-0.1-0.1-0.2-0.2-0.5-0.2c0.1-0.1,0.1-0.1,0.2-0.2c-0.1,0-0.1-0.1-0.2-0.1V715
		c0.4-0.3,0.8-0.6,1.2-0.6c0.4-0.8,0.3-1.9,0.7-2.6c-0.1-0.3,0.4-0.5,0.1-0.7c-0.2-0.1-0.3-0.4-0.5-0.5c0.7-2.4,3.6-0.9,4.1-2.9
		c-0.1-1.5,0.6-3,0.4-4.5c-0.6-1.4-0.1-3.4,1.2-4.1c0.8-1.3,0.1-2.9,0.2-4.4c-0.6-0.7-1.4-0.6-2.1-0.9c-0.1-0.2-0.2-0.5-0.5-0.7
		c-0.9,1-1.6,2.5-1.6,3.9C87.1,689.1,118.8,674,106.9,668.4z M164.1,651c0.7,1.4,1.4,2.7,2.1,4.1c-0.8,1.3-1.9,0.5-2.7-0.1
		c-1.4-0.2-1-1.5-0.9-2.5c-0.1-1-1.3-1.5-1.7-2.4c-0.2-0.5-0.4-1-0.7-1.5c0.3-0.5,0.4-1,0.5-1.6c0.2-0.5,1.9-0.6,2.2-0.1
		c0.1,0.1,0.2,0.2,0.2,0.2c0.5,0.2,0.5,0.4,0.5,0.6c-0.2-0.1-1.2,0.4-1.1,0.6C161.7,649.2,164.2,649.9,164.1,651z M168.6,664.2
		c0.2,0.2,0.5,0.2,0.7,0.3c-0.6,1.5-3.1,4-3.2,0.9c0-0.5-0.5-0.4-0.7-0.7c-0.9-1-1.6-2.2-1.9-3.5C165.6,660,166.4,665.6,168.6,664.2
		z M161.4,675.7c0.2,0.2,0.2,0.8-0.1,0.6c-1.6-0.6-2.1-2.5-3-4c-0.4-0.5-1.1-1-1.1-1.7c0.3-1.3-0.6-3.3-2.1-3.2c0.3-1.8-2-3-0.5-4.6
		c1-0.1,1.1,1.4,1.9,1.7c0.2,0.8,0.3,1.6,1.1,2c0.8,0.8,0.9,2.2,1.2,3.1C160.7,671.1,161.3,673.4,161.4,675.7z M123.5,680.1
		c-1.7,0.8-2.8-1.5-1.5-2.6c1.2-1,2.5-1.9,4.1-2.1c-0.1,0,0-0.2,0.3-0.2c0.1,0.4,0,0.6-0.1,1c0.5,0.6,1,1.3,1.7,1.6v0.2
		c-0.7,0.1-0.7,0.7-1.1,1.4C126.2,679.4,122.6,678.9,123.5,680.1z M89.4,731.1c-0.1,0-0.1-0.1-0.2-0.1c0,0,0,0-0.1,0
		c-3.8,3-9.6-0.7-8.5-5.5c-8.2-6.2-14.7-14-18.9-23.4c-2.1-2.7,0.9-6.6,3.5-3.5c3.7,9.5,10.4,17.4,18.6,23.5c1.5-0.7,3-0.9,4.5-0.1
		c0.5-0.8,0.9-1.7,1.2-2.6c-0.1,0-0.1-0.1-0.2-0.1c-0.5-0.4-1.1-0.4-1.5-0.9c-0.1-0.4,0.4-1.1,0.7-0.7c1.3,0.7,2.7,1.3,4,2
		c0.3,0.2,0.3,0.6,0.1,0.9c-0.5,0.8-1.5-0.2-2.1-0.4c-0.1,0.2-1.1,2.1-1.4,2.6c0,0,0.1,0.1,0.1,0.2c4.3,7.7,15.4,9.4,23.8,11.3
		c0-0.1,0.1-0.2,0.1-0.2c0-1.3,1.7-0.7,1.2,0.4c0,0,0,0,0,0.1c0,0,0.1,0,0.2,0.1c6.9,0.9,14.1,1,20.8-0.7c-0.5-1.6,1-1.7,1.2-0.2
		c7-1.3,13.9-4.2,19.9-7.8c0.1,0,0.1-0.1,0.2-0.1c-1.1-1.3,0.2-2.4,1-0.9c0,0.1,0.1,0.1,0.1,0.2c6.1-3.9,11.5-8.9,15.9-14.6
		c-0.1-0.1-0.1-0.1-0.1-0.2c-1.5-1,0-2.3,0.9-0.9c0.1-0.1,0.1-0.2,0.2-0.2c4.1-5.6,7.5-11.9,9.5-18.6c-0.6-0.4-1.9-0.1-1.9-1.1
		c0.3-1.1,1.4-0.1,2.1-0.1c3.2-9.1,4.8-26.2-8.1-27.6c-1.6-0.4-3.8-1.2-3.7-3.2c1.1-3.5,6.2-3.9,7.1-7.6c1.5-9.7-27.8-5.6-33.4-3.7
		c0.1,0,0.1,0.1,0.1,0.1c1.8,1.3,4.1,0.5,6,0.9c2,1.7-5.4,3.1-6.7,3.6c-4.1,1-8.3,1.2-12.5,0.5c-8.4-0.1-16.3,3.5-24.4,5.2
		c-4.6,1.2-9.5,1.1-13.9,1.7c-3.7,1.4-10.8,12.4-8.5,2.4c-0.4-0.2-0.7-0.2-1.1,0c-0.1,0-0.1,0.1-0.2,0.1c-0.1,0.1-0.2,0.1-0.2,0.2
		c-6.7,8.5-7.2,13.4,5.2,10.7c2.3,0.3,18.1-4.7,15.8-0.2c-7.9,11.2-20.5,14.8-16.7,31.4c-9.7-2.8-12.4-13.4-18.2-20.3
		c0.2-0.1,0.4-0.2,0.6-0.4c1.7,1.5,3.8,3,6.1,3.5c0,0.1,0,0.2,0.1,0.2c0.6,2.7,1.6,5.8,3.9,7.5c-0.3-2.9-4.7-7.5-1.4-9.7
		c0.6,1.1,1.2,2.5,1.9,3.5c0.1,0,0.1-0.1,0.2-0.1l0.1-0.1c-0.4-1.3-1.2-2.6-1.6-4c0.2-0.2,1-1.1,1.2-1.4c1.3,0.8,2.7,1.4,3.9,2.2
		l0.1-0.4c-0.6-1.4-4.6-2.4-3.1-4.1c2.7,0,5.4,0,8.1,0c-2.5-0.6-5-0.9-7.5-1.4c1.4-2.7,5.2-2.6,7.6-4c-2.2,0.5-4.5,1.2-6.6,1.9
		c-0.1,0-0.1-0.1-0.2-0.1c-0.8-0.7-1.8-1.1-2.6-1.6c-0.8-0.7-1.6-1.1-2.1-2c-0.9,2.3-0.7,6.1-4.1,6.2c-2.1-0.2-6.8,4.1-7.7,1.5
		c0.9-8,8-13.7,14.6-17.4c0.1,0,0.2-0.1,0.2-0.2c-3.3,0.8-6.1,2.5-8.5,4.9c0-0.2,0.1-0.2,0.1-0.4c3.3-5.5,9.1-8.6,15.1-10.5
		c1.7-1.7,3.6-3.4,6-3.9c0,0.1,0,0.1-0.1,0.1c-1.3,1.2-3.4,2.4-3.9,4.1c2.1-1.4,4.2-3.1,6.6-3.9c0,0.1-0.1,0.2-0.2,0.2
		c-1.6,1.4-3.3,2.9-4.9,4.4c0.1,0,0.2,0,0.2-0.1c4.6-2.3,9.6-4,14.7-4.9c-1-0.4-1.6-1.2-2.1-2.1c-2.6-1.3-2.7-3.7-2.4-6.2
		c0.6-6.4,12.5,0.8,14.4,3.9c0,0.1,0.1,0.1,0.2,0.2c-0.1,0-0.2,0-0.2-0.1c-3.5-2-7.5-5.8-11.7-4.5c-0.9,1.5,1.9,1.1,2.6,1.7
		c-1-0.1-4.2-0.1-2.1,1.4c2.7,0.8,5.8,0.7,8.2,2.2c-2.5-0.3-5.4-1.6-8-1.1c-0.1,0-0.2,0.3,0,0.4c0.9,1.4,1.7,3.6,3.7,3.1
		c2.6-0.2,12.7,0.8,9.7-4c-0.1-0.1-0.1-0.2-0.1-0.2c0.2,0,0.5-0.1,0.5,0.1c8.5,2.6,17.5,2.9,26.3,1.9c0-0.2,0-0.4-0.1-0.6
		c-1.6-0.2-3.2-0.4-4.6-1.1c-5.1,0.8-13.6,2.1-15.9-4.2c-0.2-0.7-0.7-3.7,0.2-3.7c0.1,0,0.2,0.1,0.2,0.2c3.2,9.5,16.3,5.1,21.2-0.7
		c-9.5-11.4-26-16.6-40.5-16.6C82.1,626.1,57.1,650,67,676.4c0,0-0.1,0.1-0.1,0c-0.1-0.1-0.1-0.2-0.2-0.2
		c-12.8-23.4,8.1-49.7,31.4-54.8c-3.3-2.2-9.8-3.8-13.2-1.4c-0.1,0.3,0.3,0.3,0.4,0.4c2.8,0,5.8-0.4,8.5,0.5c-3.2,0.8-7,0.3-9.8,1.9
		c2.6,0.4,5.5-1,8.2-1c-0.1,0.1-0.2,0.1-0.2,0.2c-6.2,2.1-11.6,6.4-16.6,10c-1.1-0.8,3.9-5.9,5-6.2c1.2-1.1-1.6-1.3-1.1-2
		c0.5-0.5,1.2-0.7,1.9-1c0.1,0.1,0.6-0.4,0.4-0.4c-0.1-0.1-0.1-0.2-0.2-0.2c-0.4-0.4-1-0.7-1.2-1.1c-0.4-0.5,0-1.2,0.6-1.2
		c2-0.6,1.1-2.9,2.7-3.7c7.1-2,15,1.7,21.5,4.4c17.4-1.4,36.3,7.1,48.2,19.4c-1.7,2.1-3.9,3.6-5.9,5.4c10.5-3.2,50.4-4.5,27.2,13.1
		c-0.5,1.2,1.7,1.3,2.4,1.7c14.2,1.5,12.6,19.4,9.5,29.5c0.2,0.1,1.1,0.4,1.6,0.5c0.4-1.2,0.8-2.7,1-4.1c0.5,0.1,0.8,0.1,1.2,0.4
		C181.9,730.7,127.7,754.9,89.4,731.1z M88,720.3c0.1-0.1,0.2-0.2,0.2-0.4c0.1-0.1,0.2-0.2,0.2-0.5c0.1,0.3,0.4,0.3,0.5,0.5
		c-0.2,0.4-0.4,0.7-0.6,1.1c-0.1,0-0.2-0.1-0.2-0.2C87.8,720.6,87.8,720.5,88,720.3z M138.3,638.1c0.5,2.2,2.8,2.4,4.6,2.6
		c0.3,0-0.1,0.4-0.2,0.4c-3.8,1.5-7.6-1.8-6.1-5.6c-0.9-0.9-1.8-1.6-2.7-2.5c0-0.1,0.1-0.1,0.1,0c1.6,0.3,3.2,1.2,3.9,2.7
		C138.4,636.4,137.9,637.4,138.3,638.1z M141.3,635.2c3-0.1,3.1,4.7,0,4.7C138.3,640.1,138.2,635.1,141.3,635.2z M440.6,135.2
		c-0.4,3.7,1,7.5,2.6,10.8c-0.5,1.9,0.3,4,2.6,3.5c2.7,2.3,3,6,5.5,8.5c1.9,1.9,5.3,6,8,4c0,0,0-0.1,0.1-0.1
		c-0.8,5.2-7.2-1.4-8.7-3.3c0,0,0-0.1-0.1-0.1c0.4,3,1.6,5.9,3.1,8.5c0,0.1,0.1,0.2,0.2,0.2c0.8,0.7,1.7,2.2,2.5,3.1
		c-10.2-5.8-14-21.1-16.4-32.6C440.3,136.9,440.2,135.9,440.6,135.2z M457,170.7c0.1,0,0.2,0,0.3,0.1c-0.1,0.2-0.2,0.5-0.3,0.7
		c-0.2-0.1-0.3-0.2-0.4-0.2c0,0,0-0.1,0.1-0.1C456.8,171.1,457.1,170.9,457,170.7z M519.7,151.3c-5.2,26.5-38.1,41.2-61.1,26.7
		c-2.8,2.1-5.5-0.7-5.2-3.5c-2.5-0.5-17.6-19.2-9.3-16.1c2.3,5.5,6.2,10.7,11.1,14.2c0.9-0.4,1.9-0.4,2.7,0c0.3-0.5,0.6-1,0.7-1.6
		c0,0-0.1,0-0.1-0.1c-0.5-0.2-1.2-0.5-0.6-1c0.1,0,0.2-0.1,0.2,0c0,0,0.1,0,0.1,0.1c0.8,0.4,1.5,0.7,2.1,1.2c0-0.2-0.1-0.4-0.3-0.6
		c-0.9-0.6-2.9-0.8-2-2.2c-0.1-0.1-0.2-0.1-0.3-0.2c0-0.1,0.1-0.1,0.1-0.2l-0.1-0.1c0.3-0.1,0.5-0.4,0.8-0.4
		c0.2-0.6,0.2-1.4,0.5-1.9c0.1-0.1,0-0.1,0-0.2c-0.1-0.1-0.2-0.1-0.2-0.3c0.4-1.3,1.5-0.7,2.3-1.3c0.4-0.6,0-1.3,0.4-2
		c0.3-1.2-0.4-2.5,0.4-3.5c0.1-0.1,0.3-0.3,0.4-0.4c0,0,0-0.1,0.1-0.1c0.3-0.7,0-1.6,0-2.4c-0.3-0.4-0.8-0.5-1.4-0.5
		c-0.1-0.1-0.2-0.3-0.3-0.4c-0.7,0.6-0.9,1.5-1,2.4c-1.5-4.7,7.5-9.3,9.7-13.1c3.2-6.1-5.3-3.5-8.3-3c-2,0.4-4,0.6-6,0.8
		c-1.1,0.2-0.5-1.1-0.2-1.7h0.1c2.8,1.5,5.2-2.7,7.6-3.7c7-1,13.9-3.1,20.9-4.1c4.8-0.5,11.5,0.7,14.9-3.4c0.4,0.9-0.3,2.1-1,2.8
		c-0.1,0.2-0.4,0.1-0.5,0.3c0,0.1,0.1,0,0.1,0c1-0.2,0.8,2.3,0.2,2.6c-0.2,0.2-0.4,0.2-0.6,0c-0.9,0-1.8,0.4-2.6-0.2
		c-0.6,0-1.4,0-1.8-0.5c-0.2-0.4-1.1-0.4-1.5-0.1c0,0.4-0.2,0.8-0.3,1.2c-0.4,0-0.7,0-1,0.1c-0.3-0.4-1.1-0.7-1.4-1.3
		c-4.4,0.1-9.6-0.3-13.2,2.5c-1.1,0.2-1.6,1.5-2.3,2.2c0.3,0.8-0.7,1.1-0.7,1.6c0.5,1.2,0.7,2.3,0.2,3.6c0,0.4-0.3,0.6-0.6,0.8
		c0,0,0,0-0.1,0.1c0.5,0.4,0.4,1.2,0.6,1.9c0.4,0.4,0.9,1,1.4,1.4c0.8,0.3,0.5,1,0.7,1.5c0.7,0.6,1.3,1.1,2,1.7
		c0.6,0.2,1.3,0.1,1.9-0.2c0.4-0.2,0.7,0.2,1.2,0.2s1,0,1.4-0.3c0.6-0.5,1.5-0.3,2.2-0.3c0.1,0.1,0.2,0.1,0.2,0.2
		c0.6,1,1.7,0.6,2.6,0.8c0.1,0.1,0.1,0.2,0.2,0.3c0,0.5,0.1,1-0.2,1.4c-0.1,0.6-0.3,1.3-0.2,1.9c0.5,0.8,0.9,1.4,1.3,2.2
		c0.8,0.8,0.4,1.9,0.9,2.9c0.2,0.1-0.2,0.4-0.2,0.4s-0.1,0-0.1,0.1c-0.1,0.1-0.3,0.3-0.4,0.4c-0.1,1.3-1,2.8,0.3,3.8
		c0.5,0.8,0,2.1,0.4,2.9c0.3,0.3,0.6,0.6,0.8,0.9c0.4,0.6,0.5,1.3,0.1,1.9c0.1,0,0.1,0,0.1,0c1.1-0.3,2.2,0.1,3.4-0.2
		c1.7-1,3.3-2,3.8-4c0,0,0.1,0,0.1-0.1c2.7-1.5-0.4-2.3,3.5-4.5c0.1-0.3,0.3-0.6,0.6-0.7c0.3-0.6,0.2-1.3,0.2-2
		c-1.6-4.9,5.2-7.3,5-12.3c-1,0.2-1.9,0.7-2.9,0.8c0-0.3-0.2-0.7-0.3-1c0,0,0,0,0-0.1c1.2-0.7,2.5-1.2,3.6-1.9c0.2-0.8,1-1,1.4-1.7
		c0,0,0,0,0-0.1c0.2-0.3,0.3-0.5,0.3-0.9c0.1-0.1,0.1-0.2,0.3-0.2c0.3-0.3,0.4-0.6,0.2-0.9c-0.2-0.4-0.6-0.8-0.9-1
		c-0.1,0-0.1-0.1-0.2-0.1c0-0.1,0-0.3,0.1-0.4c0.1-0.2,0.5-0.1,0.7-0.1s0.3-0.1,0.4,0.1c0.3,0.2,0.7,0,0.9,0.2
		c0.1,0,0.2,0.1,0.2,0.1c0.9-0.2,1.6,0.8,1.9,1.6c0,0.3,0.1,0.7,0.3,0.8c0,0,0.1,0,0.2,0c0.1-0.1,0.2-0.1,0.2-0.3
		c0.3,0.8,0.3,1.8,0.7,2.6c0,1.1,0.2,2.3,0.7,3.3c0.4-0.6,0.4-1.9,0.5-2.7c0.2-1,0.8-1.8,0.8-2.8c0.2-0.7,1.1-1.1,1.7-1.2
		c0.9,8.9-1.7,16.9-6.4,23.4c0.1,0,0.2,0,0.4,0.1c0.2,0.1,0.2,0.2,0.4,0.4c0-0.1,0.1-0.1,0.1-0.2c2.5-3.4,4.5-7.1,5.8-11.1
		c-0.4-0.1-1.1-0.2-1.2-0.7c0-0.3,0.5-0.5,0.6-0.2c0.2,0,0.4,0.1,0.6,0.2c0,0,0-0.1,0.1-0.1c2.2-6.2,2.6-16.5-6.2-17
		c-0.6-0.2-1.4-0.8-1.2-1.5c0.7-2.1,3.6-2.4,4.2-4.6c0.2-6-16.5-3.1-20.3-2.2c1,0.9,2.4,0.4,3.7,0.4c1.4,1.2-4.9,2.3-5.9,2.4
		c-5.5,0-10.9-0.1-16.2,2.1c-4,1.2-8,2.1-12.2,2c-1.7,0.7-3.2,2.3-4.6,3.6c-1.8,2-1.4-0.7-1.2-1.9c-0.2-0.1-0.7-0.2-0.8,0.1
		c-11.1,14,10.4,2.9,12.7,6c-4.1,6.8-12.8,9.5-10.2,19.3c-0.1,0-0.2,0-0.2-0.1c-5.8-1.9-7.1-8.1-10.8-12.2c0.2-0.2,0.5-0.3,0.5,0
		c1,0.8,2.2,1.6,3.5,1.8c0.2,1.8,1,3.6,2.3,4.7c0-0.1,0-0.1,0-0.1c-0.6-1.6-1.4-3.3-1.7-4.9c0.1-0.1,0.6-0.5,0.8-0.7
		c0.5,0.7,0.8,1.4,1.2,2.1c0.2,0,0-0.2,0.2-0.2c0-0.1,0-0.2-0.1-0.2c-0.3-0.7-0.6-1.5-0.9-2.1c0.1-0.2,0.6-0.7,0.7-0.8
		c0.8,0.4,1.5,0.9,2.3,1.3l-0.4-0.4v-0.1c-0.7-0.6-1.4-1.2-2.2-1.7c0.1-0.2,0.2-0.4,0.3-0.5c4.7,0,5.8,0.1,0.4-0.7
		c0.6-1.7,3.2-1.6,4.6-2.4c-1.4,0.1-3,1.1-4.3,1c-0.5-0.3-1-0.8-1.7-0.9c-0.5-0.4-1-0.7-1.3-1.3c-0.7,1.4-0.3,3.8-2.4,3.9
		c-1.6,0.1-2.6,0.9-4,1.3c-0.8,0-0.7-1-0.4-1.5c1.1-4.5,5.1-7.5,8.9-9.7c-1.9,0.5-3.6,1.5-5,2.9c0-0.1,0-0.2,0.1-0.2
		c1.9-3.4,5.6-5.2,9.1-6.4c1-1,2.2-2.1,3.6-2.3v0.1c-0.8,0.6-2,1.5-2.3,2.4c0.1,0,0.1-0.1,0.2-0.1c1.2-0.8,2.4-2.1,3.8-2.2
		c0,0.1-0.1,0.1-0.1,0.2c-1,0.9-2,1.7-3,2.6c2.9-1.1,5.9-2.7,9.1-2.8c-0.5-0.3-0.9-0.5-1.3-1c0-0.1-0.1-0.1-0.1-0.2
		c-1.5-0.8-1.8-2.3-1.5-3.9c0.7-3.9,7.4,0.5,8.8,2.3c-0.1,0-0.1,0-0.1,0c-1.2-0.7-6.8-4.7-7-2.3c0.5,0.1,1.1,0.1,1.6,0.4
		c-0.5,0-2.5-0.1-1.4,0.6c1.5,0.4,3.3,0.4,4.7,1.2c0.1,0,0.2,0.1,0.2,0.1c-1.5-0.1-3.3-0.9-4.7-0.6c0,0-0.1,0.1,0,0.1
		c0.4,0.9,0.9,2.4,2.2,2.1c1.6-0.2,7.2,0.5,6.1-2.3c-0.1-0.2-0.3-0.2-0.2-0.4c5.2,1.4,10.9,2,16.3,1c0-0.1,0-0.2,0-0.3
		c-0.8-0.2-1.9-0.2-2.6-0.6c0,0-0.1,0-0.1-0.1c-0.1,0-0.2-0.1-0.3,0c-3.5,1-10.7,0.7-9.4-4.5v-0.1c0.1-0.1,0.2,0,0.3,0.1
		c2.1,5.6,9.8,3.2,12.9-0.3c-17.2-20.3-57.4-5.3-48.6,22.6c0,0,0,0,0,0.1h-0.1c-7.8-14.2,5-30.3,19.1-33.6c-2.1-1.3-5.2-1.8-7.5-1
		c-0.1,0.1-0.2,0.2-0.3,0.3c-0.2,0-0.1,0.2-0.1,0.4c1.7,0,3.5-0.2,5.2,0.2c-1.8,0.2-4.5,0.1-5.8,1.3c1.7,0.1,3.4-0.6,5.1-0.6
		c-3.5,1.5-7.1,3.3-9.9,6.1c-0.2,0.3-0.8,0-0.4-0.3c0.7-1.4,2-2.5,3.1-3.4c0.5-0.5-0.3-0.9-0.7-0.9c-0.1-0.1-0.1-0.2,0-0.2
		c0.2-0.5,1.3-0.4,1.4-0.8c-0.3-0.5-1.6-0.8-1-1.6c0.5-0.4,1.2-0.6,1.3-1.3c2.1-4.1,10.6,0.5,13.9,1.4c10.7-0.5,21.9,4.3,29.4,11.9
		c-1.1,1.2-2.4,2.4-3.7,3.4c5.1-2.1,29.6-2.6,17.5,6.8c-0.6,0.4-1.5,1.2-0.5,1.6c9,0.6,9.2,11.5,6.7,18.1c0.2,0.1,0.6,0.2,1,0.3
		c0.3-0.7,0.4-1.7,0.6-2.5c0.4,0.1,0.5,0.2,0.8,0.2C519.8,151,519.9,151.1,519.7,151.3z M500.2,144.4c-0.9-0.5-1.1-1.9-1.8-2.6
		c-0.4-0.2-0.5-0.5-0.6-0.8c0-0.7-0.1-1.5-0.7-1.9c0.5-0.1,0.4-0.1,0.4-0.1c0.2-0.9-0.8-1.5-0.6-2.4c0.1-0.1,0.1-0.2,0.2-0.3
		c0.5,0,0.6,0.7,0.9,0.9c0.2,0.2,0.3,0.7,0.3,0.9c0.3,0.2,0.5,0.7,0.7,0.9c0.2,0.3,0.2,0.8,0.2,1.2c0,0.3,0.6,0.5,0.6,0.8
		c0.2,0.5,0.8,1.1,0.7,1.7C500.4,143.1,500.8,144.8,500.2,144.4z M478.5,146.5c-0.1,0-0.2,0.1-0.2,0.1c-1.2,0.2-1.3-1.6-0.4-2
		c0.6-0.4,1.3-1.1,2.1-1c-0.1,0.2-0.1,0.1,0,0.1c0.1,0.2,0,0.4,0,0.6c0.4,0.4,0.7,0.8,1.2,0.9v0.2c0,0-0.2,0-0.2,0.1
		c-0.3,0-0.4,0.4-0.5,0.6c-0.6-0.1-1.3-0.1-1.9-0.1C478.2,146,478.5,146.2,478.5,146.5z M502.8,128.3c0.4,1,1.2,2.1,1.5,3.1
		c-0.5,0.7-1.1,0.4-1.7,0c-1.3-0.4,0.5-1.5-1.5-2.9c0,0,0-0.1-0.1-0.1c0-0.4-0.4-0.5-0.4-0.8c0.2-0.3,0.3-0.7,0.4-1
		c0.2-0.4,0.9-0.3,1.3-0.3c0.3,0,0.2,0.2,0.4,0.3c0,0.2,0,0.3,0,0.4c-0.2-0.1-0.6,0.4-0.7,0.3C501.7,127.8,502.6,128,502.8,128.3z
		 M506.1,137.2c-0.4,0.4-0.7,1.3-1.4,1.5c-0.8,0.2-0.4-0.8-0.8-1.2c-0.1,0-0.1-0.1-0.2-0.1c-0.1-0.1-0.2-0.2-0.2-0.2
		c-0.1-0.3-0.5-0.6-0.5-0.9c-0.2-0.2-0.2-0.5-0.3-0.7c0.3-0.4,0.7,0,0.9,0.1C504.2,136.8,504.8,137.6,506.1,137.2z M477.7,125.9
		c-1.9-1.4-2.2-4.5-1-6.5c0.2-0.3,0.4-0.8,0-1.1c-14.5-4.5-33.3,6-32,22.5v0.1c-0.1,0-0.2-0.1-0.3-0.1
		c-2.5-17.6,16.7-30.4,32.9-26.2c1.7,0.6,6.4,0.9,6.6,2.8c-1.3,0.8-3.2,0.7-4.4,1.8c-0.1,0-0.1,0.1-0.2,0.1
		C476.9,120.8,477,123.6,477.7,125.9z M474.3,126.2c-1.6,0-1.6-2.6,0-2.5C475.9,123.6,475.9,126.3,474.3,126.2z M463.3,129.9
		c-0.6-1.3-1.2-3.1-0.5-4.5c0.6-0.8,1.5-2.3,2.7-1.5c0.7,1,0,1.9-0.6,2.6c-0.2,0-0.2,0-0.2,0.1C465.3,128.2,466.2,131.3,463.3,129.9
		z M490.1,122.9c0.1,0.1-0.2,0.1-0.1,0.2c-0.1,0-0.2,0-0.3,0.1c-2.3,0.7-3.9-1.4-3.5-3.5c-0.6-0.5-1.1-1-1.7-1.5c0-0.1,0.1,0,0.1,0
		C488.8,118.8,485.5,123.3,490.1,122.9z M489.1,119.6c1.7-0.1,1.9,2.7,0,2.7C487.3,122.4,487.4,119.5,489.1,119.6z"/>
	<path d="M486.8,180c0,0.2,0.3,1.3,0.4,1.4c4.5-0.9,8.8-2.6,12.6-5c0.1,0,0.1-0.1,0.2-0.2c-0.2-0.3-0.5-0.8-0.7-1.2
		C498.9,175.4,492.9,178.7,486.8,180z"/>
	<path d="M459.8,171.7c-0.2-0.1-0.5-0.3-0.7-0.3c0,0-0.1,0.1-0.2,0.3C459.2,171.8,459.5,171.8,459.8,171.7z"/>
	<path d="M458.4,176.5c0,0.1-0.1,0.2-0.2,0.3c4.3,2.3,8.8,4.3,13.6,4.8c0.1-0.1,0.2-1,0.2-1.1c-4.6-0.6-9.3-2.4-13.3-4.6
		C458.6,176.1,458.6,176.3,458.4,176.5z"/>
	<path d="M458.4,172.9c0,0,0,0.1-0.1,0.1c0.1,0.1,0.1,0.1,0.2,0.2L458.4,172.9z"/>
	<path d="M473.5,180.8L473.5,180.8c-0.7,0.3-0.8,0.7-0.8,1.1c4.5,0.6,9.4,0.9,13.9-0.1c-0.1-0.4-0.3-0.9-0.4-1.4
		C482,181.3,477.7,181.3,473.5,180.8z"/>
	<path d="M516.5,153.3c-1.4,4.2-3.5,8.2-6.1,11.8c0.3,0.1,0.5,0.5,0.9,0.8c2.8-3.7,4.8-7.9,6.2-12.4
		C517.1,153.5,516.8,153.2,516.5,153.3z"/>
	<path d="M509.9,165.9c0,0-0.1,0.1-0.1,0.2c-2.7,3.3-5.9,6.4-9.4,8.7c-0.1,0-0.1,0.1-0.2,0.2c0.1,0,0.3,0.4,0.5,0.9
		c0,0,0.1-0.1,0.2-0.1c3.8-2.5,7.1-5.6,9.9-9.1C510.7,166.5,510,166,509.9,165.9z"/>
	<path d="M501.2,163.3c1-1,0.9-2.7,1.6-3.8c0-0.3,0-0.7,0-1c0-0.1,0-0.1,0-0.2c-0.3,0-0.4,0.2-0.5,0.2c-0.3,0.2,0.2,0.4,0,0.5
		c-0.1,0.1-0.3,0.3-0.4,0.3c-1.1,0.5-1.8,1.4-1.8,2.6c0,0.2-0.1,0.4-0.3,0.6c-0.4,0-0.4,1.4-0.2,1.5
		C500.1,164.6,500.7,163.7,501.2,163.3z"/>
	<path d="M509.8,165.1c-0.1-0.1-0.5-0.4-0.6-0.6c-2.6,3.6-5.9,6.6-9.6,9.1c0.1,0,0.1,0.1,0.2,0.2c0,0.1,0.1,0.2,0.2,0.2l0.1,0.1
		C503.7,171.6,507.1,168.5,509.8,165.1z"/>
	<path d="M489.5,121.9c-2-0.1-0.5-2.9,0.7-1.4C489,118.1,486.6,122.1,489.5,121.9z"/>
	<path d="M459.5,175.2c4.1,2.3,8.7,4.1,13.3,4.7v-0.3c0,0,0,0,0,0c-4.8-0.8-9.4-2.6-13.7-5.6C459.3,174.3,459.5,174.7,459.5,175.2z"
		/>
	<path d="M487.1,179.4c4.4-0.8,8.5-2.6,12.3-4.9c0,0,0-0.1-0.1-0.2c-0.1-0.1-0.2-0.3-0.1-0.5c-3.8,2.4-7.9,4.2-12.2,5.2
		c0,0.1,0.1,0.1,0.1,0.2C487,179.2,487,179.3,487.1,179.4z"/>
	<path d="M486.1,179.6c0,0,0.1,0,0.2,0c-0.1-0.1-0.1-0.3-0.1-0.4c-4.1,0.9-8.4,1.1-12.7,0.5c0,0.1,0,0.1,0,0.2c0,0,0,0,0,0.1
		C477.7,180.4,482,180.5,486.1,179.6z"/>
</g>
</svg>
