<?xml version="1.0" encoding="UTF-8"?>
<svg id="_レイヤー_2" data-name="レイヤー 2" xmlns="http://www.w3.org/2000/svg" xmlns:xlink="http://www.w3.org/1999/xlink" viewBox="0 0 100 100">
  <defs>
    <style>
      .cls-1, .cls-2 {
        fill: none;
      }

      .cls-3 {
        fill: #060630;
      }

      .cls-4 {
        fill: #fff;
      }

      .cls-5 {
        fill: #ee9793;
      }

      .cls-6 {
        fill: #d6615a;
      }

      .cls-7 {
        fill: #dd8d8a;
      }

      .cls-8 {
        fill: #9c4643;
      }

      .cls-2 {
        clip-path: url(#clippath);
      }
    </style>
    <clipPath id="clippath">
      <circle class="cls-1" cx="50" cy="50" r="50"/>
    </clipPath>
  </defs>
  <g id="m">
    <g>
      <circle class="cls-4" cx="50" cy="50" r="50"/>
      <g class="cls-2">
        <g id="P297LW">
          <path class="cls-6" d="m123.66,151.51c-1.06-11.35-26.96-55.68-32.99-61.01-6.03-5.32-27.4-9.94-27.4-9.94h0c0,2.57-4.05,7.32-10.28,7.72-7.4.48-16.48-3.2-16.48-7.46,0,0-25.99,3.53-30.24,11.57-3.94,7.45-25.52,51.42-13.59,76.49,0,0,1.1,1.02,3.26,2.64,1.49-2.21,7.14-9.1,19.36-9.27-.37,10.81-.77,22.83-1.92,36.13-.2,2.25-.31,7.48-.37,9.06-.07,1.74,8.4,6.43,25.19,8.92,6.02.9,13.12,1.51,21.28,1.6,20.93.24,35.37-8.19,35.37-8.19.79.01-.12-3.25-1.2-17.42,5.16-4.35,25.46-24.57,29.39-36.59.52-1.57.75-3,.64-4.24Zm-111.13,6.98c-.21-.77,1.16-4.04,3.24-8.67-.16,3.5-.3,7.15-.43,10.95-1.63-1.02-2.68-1.83-2.81-2.28Zm89.26-5.96c-.12.33-.27.68-.43,1.05-1.86,4.33-5.89,11.39-8.96,17.16-.35-8.34-.64-18.4-.81-30.51.05.04.1.08.15.12,5.64,4.45,10.48,8.2,10.64,9.75.05.5-.17,1.34-.59,2.43Z"/>
          <path class="cls-5" d="m66.64,36.84c-2.24-4.98-6.46-10.36-22.31-6.48-15.85,3.89-10.66,13.76-7.76,29.39.31,1.68.89,3.11,1.66,4.35.16,1.32.21,2.54.2,3.7-.07,4.05-1.02,8.14-1.93,13.03-.27,6.32,7.32,9.97,17.4,8.77,10.08-1.2,9.37-9.38,9.37-9.38v-2.62s.05-7.08.05-7.08c.75-.11,1.18-.2,1.18-.2,6.43-1.72,4.38-28.5,2.14-33.48Z"/>
          <path class="cls-3" d="m37.08,64.25s-4.84-10.32-8.87-14.9c-4.03-4.58-1.83-27.5,15.58-26.77,17.42.73,23.65,13.2,23.83,15.58.18,2.38-13.93.55-17.78,3.67-3.85,3.12-.18,8.25-4.58,10.08-4.4,1.83-7.88,1.83-7.15,5.87.73,4.03-1.03,6.47-1.03,6.47Z"/>
          <path class="cls-6" d="m42.45,11.94c-4.98,1.25-8.72,3.25-11.51,5.66-.28.24-.55.48-.8.73h0c-10.33,9.85-6.21,25.53-6.21,25.53,0,0,1.38,3.96,2.32,5.5.95,1.54,14.66-.24,15.37-3.19.71-2.96,3.43-6.03,3.43-6.03,0,0,14.46-.99,15.43-1.06,3.27-.24,12.59-3.48,12.59-3.48-.11-.91-5.35-30-30.6-23.65Z"/>
          <path class="cls-8" d="m81.62,32.52c-1.73-.42-4.69-.9-9.56-1.07,0,0-4.09,3.39-12.23,5.97-3.82-4.82-14.71-16.42-28.89-19.82-.04-.01-.08-.02-.12-.03-.3.38-.47.51-.68.76h0c-.06.08-.13.17-.21.28,11.54,2.01,22.52,14.98,26.28,19.83-3.23.79-6.95,1.42-11.16,1.7,0,0,25.27.47,36.81-5.61.88-.46.73-1.77-.23-2.01Z"/>
          <path class="cls-7" d="m38.24,64.09c.16,1.32.21,2.54.2,3.7,3.03,4.78,8.84,11.36,17.81,11.36,2.62,0,4.97-.59,7.04-1.55l.04-7.08c-4.36.67-19.66,2.32-25.08-6.43Z"/>
        </g>
      </g>
    </g>
  </g>
</svg>