<?xml version="1.0" encoding="UTF-8"?>
<svg id="_レイヤー_2" data-name="レイヤー 2" xmlns="http://www.w3.org/2000/svg" xmlns:xlink="http://www.w3.org/1999/xlink" viewBox="0 0 100 100">
  <defs>
    <style>
      .cls-1, .cls-2 {
        fill: none;
      }

      .cls-3 {
        fill: #060630;
      }

      .cls-4 {
        fill: #fff;
      }

      .cls-5 {
        fill: #ee9793;
      }

      .cls-6 {
        fill: #7388ca;
      }

      .cls-7 {
        fill: #d6615a;
      }

      .cls-8 {
        fill: #dd8d8a;
      }

      .cls-9 {
        fill: #4061bb;
      }

      .cls-10 {
        fill: #9c4643;
      }

      .cls-2 {
        clip-path: url(#clippath);
      }
    </style>
    <clipPath id="clippath">
      <circle class="cls-1" cx="50" cy="50" r="50"/>
    </clipPath>
  </defs>
  <g id="m">
    <g class="cls-2">
      <circle class="cls-4" cx="50" cy="50" r="50"/>
      <g>
        <path class="cls-3" d="m66.74,49.91s16.74-26.4-15.4-28.14c0,0-12.06,1.42-14.79-1.31,0,0-9.35,14.21-.62,29.45,8.73,15.24,30.81,0,30.81,0Z"/>
        <path class="cls-5" d="m66.31,53.65c.18-6.02.79-10.75.12-14.22-.8-4.15-3.43-6.52-10.8-7.16-13.53-1.17-19.17,2.21-19.41,6.75-.06,1.22-.12,2.38-.16,3.48-.49,12.69.37,18.03,2.4,20.45,0,2.72.03,8.35.11,14.44-.01,0-.02,0-.02,0,0,0-.68,7.88,9.02,9.03,9.7,1.15,17.05-3.07,16.79-9.15.09-4.24.07-9.03-.21-13.64,2.17-1.95,2.04-5.38,2.17-9.98Z"/>
        <path class="cls-8" d="m63.37,64.2c-1.93,1.16-12.52,3.52-12.52,3.52-2.07-.22-9.21-2.13-11.65-4.04-.26-.2-.49-.44-.72-.71.77,1.5,6.3,11.92,12.59,11.92s12.22-9.85,13.02-11.22c-.22.19-.45.37-.72.53Z"/>
        <path class="cls-4" d="m86.54,196.72c.09,2.29-1.72,4.19-4,4.22l-42.89.65-31.5.48c-1.48.03,3.19-11.78,3.28-88.72.02-17.17,26.61-35.65,27.1-35.65h0c0,2.48,3.9,7.04,9.9,7.44,7.12.47,15.86-3.08,15.86-7.18,0-.05.83.85,2.16,2.79,3.56,5.18,10.72,17.82,15.29,39.81,3.61,17.37,2.22,40.59,4.82,70.55.19,2.16-.09,4.09-.03,5.6Z"/>
        <path class="cls-6" d="m89.54,85.98c-4.88-3.69-16.34-6.31-21.98-7.42l-.5-.07c-12.58,21.33-22.29,28.82-22.29,28.82-6.92-6.72-6.23-29.59-6.23-29.59h0s-.02,0-.02,0c-.6.09-18.18,2.84-25.82,9.22-7.17,5.97-8.4,41.47-10.58,56.16-.19,1.26-.38,2.37-.58,3.29-.51,2.29-.97,5.99-1.36,10.5,2.94-.09,7.22.14,10.55,1.78-1.27,36.67-3.67,43.43-2.56,43.41,0,0,7.89,7.18,28.74,7.05,13.11-.08,23.78-1.54,31.7-3.18,10.66-2.21,16.36-4.76,16.36-4.76,2.29-.03,1.67-2.18,1.58-4.46-.05-1.52.22-3.44.03-5.6-.69-7.92-1.09-15.36-1.39-22.35,11,.83,17.32.21,17.32.21,10.1-21.75-6.37-78.01-12.97-83Zm-2.88,62.63c-.68.18-1.41.36-2.19.52-.19-4.94-.42-9.6-.77-13.97-.02-.2-.04-.39-.05-.59,2.65,8.07,4.13,13.74,3,14.04Z"/>
        <path class="cls-9" d="m44.77,107.31s19.4-8.55,19.69-9.22c.29-.67-.96-5.86-2.31-7.4,0,0,9.32.86,9.89-.29.58-1.15,1.01-10.64,1.01-10.64,0,0-3.88-4.02-8.68-4.4,0,0-4.22,10.48-5.78,13.6-4.13,8.26-13.83,18.35-13.83,18.35Z"/>
        <path class="cls-9" d="m40.16,90.4s1.25,9.99,4.61,16.91c0,0-10.13-7.06-11-9.37-.86-2.31,2.45-6.77,2.45-6.77,0,0-6.05-.14-6.2-2.16-.14-2.02,1.87-9.94,1.87-9.94,0,0,5.21-3.8,6.65-3.66l1.61,14.99Z"/>
        <path class="cls-7" d="m73.01,35.2l-43.09.46s-.63-12.99,6.84-21.28c.34-.38.7-.75,1.08-1.12,1.61-1.53,3.55-2.85,5.89-3.83,8.61-3.59,15.76-.28,20.22,3.12.44.33.85.67,1.24,1,2.43,2.06,3.78,3.9,3.78,3.9,0,0,4.18,5.71,4.04,17.74Z"/>
        <path class="cls-10" d="m60.91,35.33c-.12-1.75-.88-16.65,4.36-21.7-.38-.33-.27-.26-.71-.6-5.58,5.81-6.03,20.48-6,22.33l-13.78.15c-.41-10.55-6.23-21.06-6.93-22.24-.38.36-.45.43-.79.82,1.01,1.78,4.81,11.95,5.18,21.45l-12.3.13s11.48,2.97,20.12,2.86c8.64-.11,22.97-3.32,22.97-3.32l-12.1.13Z"/>
      </g>
    </g>
  </g>
</svg>