<?xml version="1.0" encoding="UTF-8"?>
<svg id="_レイヤー_2" data-name="レイヤー 2" xmlns="http://www.w3.org/2000/svg" viewBox="0 0 66.34 78.2">
  <defs>
    <style>
      .cls-1 {
        fill: #2965af;
      }
    </style>
  </defs>
  <g id="pc">
    <path class="cls-1" d="m1.06,72.4h14.71c.58,0,1.06-.47,1.06-1.06v-1.12c3.03.74,10.48,2.54,14.65,3,.61.08,1.28.11,2.02.13.68,2.52,2.77,4.39,5.35,4.78.34.05.67.08,1.01.08,3.24-.01,5.99-2.38,6.48-5.58l.05-.35c1.41-.18,2.81-.46,4.18-.85,2.41-.85,5.01-3.31,5.07-5.76-.01-1.41-.79-2.71-2.03-3.38.63-.62,1.07-1.41,1.28-2.27.34-1.51-.11-3.14-1.34-4.86,1.87-1.93,1.83-5.02-.11-6.9-.09-.09-.18-.17-.27-.25,1.33-.86,2.13-2.34,2.12-3.92-.02-.89-.41-1.74-1.08-2.32-.84-.75-1.81-1.32-2.87-1.69l1.69-11.24c6.98-1.21,12.25-6,13.16-12.12.74-4.87-1.36-9.86-5.65-13.36-.46-.36-1.12-.28-1.48.19-.11.14-.18.3-.21.47l-1.17,7.69-8.74,1.79-7.78-4.31,1.22-7.94c.06-.38-.08-.76-.38-1.01-.29-.24-.68-.3-1.03-.17-5.4,1.99-9.09,6.2-9.87,11.25-.93,6.12,2.64,12.26,8.94,15.52l-.69,4.51c-.63-.39-1.36-.59-2.1-.57h-.09c-4.58.41-6.95,3.48-9.56,7.46-1.97,2.98-8.04,5.44-10.78,6.42v-2.13c0-.58-.47-1.06-1.06-1.06H1.06c-.58,0-1.06.47-1.06,1.06v28.8c0,.58.47,1.06,1.06,1.06Zm37.39-39.06c.71.85.25,3.09,0,4.28s-.34,1.64.08,2.14c.23.25.55.4.9.4,1.14-.05,10.83.74,13.29,3.12.43.41.43.7.43.8-.06,1.28-.97,2.36-2.22,2.65-.57.14-.91.72-.77,1.28.06.24.21.46.41.6,1.35.98,2.09,1.94,2.17,2.88s-.38,1.83-1.38,2.89c-.37.38-.39.98-.05,1.39,1.2,1.44,1.69,2.7,1.45,3.74-.27.86-.88,1.58-1.69,1.98-.53.25-.76.87-.51,1.4.12.25.32.44.58.54,1.06.41,2.31,1.11,2.3,2.16,0,1.41-1.97,3.2-3.63,3.8s-13.05,2.31-18.14,1.69c-4.23-.49-12.34-2.45-14.9-3.08v-21.13c2.43-.85,10.01-3.66,12.54-7.51,2.79-4.23,4.6-6.2,7.93-6.51.88.07,1.12.34,1.21.47ZM2.11,43.59h12.59v26.69H2.11v-26.69Z"/>
  </g>
</svg>