<?xml version="1.0" encoding="UTF-8"?>
<svg id="_レイヤー_2" data-name="レイヤー 2" xmlns="http://www.w3.org/2000/svg" xmlns:xlink="http://www.w3.org/1999/xlink" viewBox="0 0 100 100">
  <defs>
    <style>
      .cls-1, .cls-2 {
        fill: none;
      }

      .cls-3 {
        fill: #060630;
      }

      .cls-4 {
        fill: #fff;
      }

      .cls-5 {
        fill: #ee9793;
      }

      .cls-6 {
        fill: #7388ca;
      }

      .cls-7 {
        fill: #d6615a;
      }

      .cls-8 {
        fill: #0a0750;
      }

      .cls-9 {
        fill: #9c4643;
      }

      .cls-2 {
        clip-path: url(#clippath);
      }
    </style>
    <clipPath id="clippath">
      <circle class="cls-1" cx="50" cy="50" r="50"/>
    </clipPath>
  </defs>
  <g id="m">
    <g>
      <circle class="cls-4" cx="50" cy="50" r="50"/>
      <g class="cls-2">
        <g>
          <path class="cls-6" d="m134.12,169.04c-1.58-1.89-16.8-10.41-25.99-15.13-1.05-.54-2.02-1.03-2.88-1.46-.07-.03-.14-.07-.21-.1-1.44-.71-2.57-1.23-3.22-1.47-4.43-1.66-8.59-63.22-13.31-67.1-4.71-3.88-26.99-8.43-26.99-8.43v.33c0,2.41-3.8,6.85-9.65,7.24-6.94.45-15.5-3.5-15.5-7.5-.04,0-3.9.52-5.2.67-5.56.63-16.66,3.64-21.41,7.23-4.52,3.42,1.87,24.95,5.82,40.2,1.68,6.45,2.91,11.77,2.71,14.13-.1,1.15-1.14,16.8-2.06,30.96-.77,11.68-1.46,22.34-1.48,23.01-.05,1.33,6.55,5.97,17.62,9.48,2.68.85,5.62,1.63,8.79,2.28,5.69,1.17,12.12,1.92,19.11,1.9,2.29,0,4.45-.12,6.5-.33,10.8-1.06,16.76-9.81,19.42-39.12.35.86.67,1.53.93,1.98.85,1.42,2.52,2.6,4.74,3.58,1.86.82,4.1,1.49,6.55,2.04,11.77,2.65,28.53,2.44,32.24,1.58,5.41-1.25,5.54-3.46,3.46-5.96Z"/>
          <path class="cls-5" d="m36.38,75.23c-.13-6.12-.03-13.43.79-19.6l24.43,3.99s.03,7.46-.08,15.73c.01,0,.66,7.67-8.79,8.8-9.45,1.12-16.61-2.99-16.36-8.92Z"/>
          <path class="cls-3" d="m34.05,48.58s-16.31-25.71,15.01-27.42c0,0,11.75,1.38,14.41-1.28,0,0,9.11,13.85.6,28.69-8.51,14.85-30.02,0-30.02,0Z"/>
          <path class="cls-5" d="m60.88,62c-2.37,1.87-9.34,3.72-11.35,3.94,0,0-10.32-2.3-12.2-3.43-2.91-1.76-2.72-5.33-2.87-10.28-.18-5.87-.77-10.47-.11-13.86.78-4.05,3.34-6.35,10.53-6.97,13.18-1.14,18.68,2.16,18.91,6.58.06,1.19.12,2.32.15,3.39.53,13.79-.56,18.67-3.06,20.64Z"/>
          <path class="cls-3" d="m64.05,45.88c-.13,7.99-2.28,12.71-3.84,13.31-1.8.69-3.91,1.26-6.12,1.63-.74.09-1.45.06-1.45-.36.02-1.26,1.71-2.81.46-3.93-1.31-1.17-8.35-1.56-8.92.99-.28,1.24,1.99,3.44.44,3.49-.47-.08-.94-.17-1.38-.29-2.56-.67-4.58-1.88-5.42-2.39-2.91-1.76-2.71-4.46-3.36-9.38-.42-3.18-.42-1.46,0,3.26.44,4.94-.42,8.11,2.87,10.28,1.83,1.21,12.35,5.94,12.35,5.94-.15-2.5,8.82-4.58,11.19-6.44,2.2-1.73,3.31-5.74,3.18-16.12Z"/>
          <g>
            <path class="cls-7" d="m63.26,13.97c-.33-.37-.68-.73-1.06-1.09-1.57-1.49-3.46-2.78-5.73-3.73-8.39-3.5-15.35-.27-19.7,3.04-.43.32-.83.65-1.21.97-2.36,2.01-3.68,3.8-3.68,3.8,0,0-4.08,5.56-3.94,17.28l41.98.45s.62-12.66-6.66-20.73Z"/>
            <g>
              <path class="cls-9" d="m39.72,34.38l2.31.03c.05-.67-.07-15.91-5.75-21.82-.43.32-.34.27-.71.59,5.4,5.21,4.17,21.05,4.16,21.2Z"/>
              <path class="cls-9" d="m57.96,34.58c.48-9.33,4.05-19.13,5.02-20.87-.33-.38-.4-.45-.77-.82-.67,1.15-6.14,11.3-6.72,21.66l-27.54-.29s13.96,3.13,22.38,3.23c8.42.1,19.6-2.79,19.6-2.79l-11.96-.13Z"/>
            </g>
          </g>
          <path class="cls-8" d="m29.52,76.31s14.19,16.52,15.02,30.94l-7.23.38s-1.82-16.06-12.5-30.34c0,0,1.67-.4,2.23-.51.74-.15,2.48-.47,2.48-.47Z"/>
          <path class="cls-8" d="m64.88,76.08c10.16,15.38,11.25,31.48,11.25,31.48l7.29-.13c-.6-11.33-7.72-23.8-11.65-29.71,0,0-5.05-1.28-6.89-1.65Z"/>
        </g>
      </g>
    </g>
  </g>
</svg>