<?xml version="1.0" encoding="UTF-8"?>
<svg xmlns="http://www.w3.org/2000/svg" viewBox="0 0 222.63 205.36">
  <defs>
    <style>
      .cls-1 {
        fill: none;
        isolation: isolate;
      }

      .cls-2 {
        fill: #2965af;
        mix-blend-mode: multiply;
      }

      .cls-3 {
        fill: #fff;
        font-family: 'Noto Sans JP', sans-serif;
        font-size: 36px;
        font-weight: 700;
        letter-spacing: .18em;
      }
    </style>
  </defs>
  <g class="cls-1">
    <g id="_レイヤー_2" data-name="レイヤー 2">
      <g id="pc">
        <path class="cls-2" d="m143.46,43.62s.11.05.13.09c2.49,4.23,2.24,3.58,5.68.73,1.4-1.16,2.66-2.5,4.13-3.54,1.18-.84,2.62-1.29,3.87-2.05,2.59-1.57,5.95-2.32,6.71-6.1,2.96.87,6.06,2.28,7.97-1.63.94.97.92,1.43-.21,2.51-.88.84-2,1.54-1.21,3.08.09.17-.34.71-.63.95-1.83,1.44-2.04,3.24-.45,4.99.64.71,1.42,1.29,2.13,1.93,1.65,1.48,2.76,3.14,2.6,5.55-.16,2.24.54,2.68,2.7,1.95.95-.32,1.98-.66,2.72-1.29,1.67-1.39,3.52-1.94,5.64-1.7,1.82.2,2.99-.62,3.49-2.34.28-.97.82-1.29,1.81-1.4,2.09-.22,4.15-.68,6.24-.93.88-.1,1.79.09,2.71-.02,2.59,2.28,5.63,3.63,9.21,3.67,1.13.01,1.96.21,2.11,1.57.12,1.05.82,1.36,1.91,1.45,2.9.25,5.5-.36,7.86-2.07.49-.35,1.12-.5,1.69-.74.13.1.26.2.39.31-.32.65-.6,1.34-.98,1.95-.73,1.15-1.53,2.27-2.31,3.4-.24.34-.46.71-.75,1-1.06,1.07-1.11,1.74.27,2.44,1.78.9,2.73,2.03,2.49,4.12-.07.64.47,1.35.82,2.24-2.43.03-2.95,1.8-3.55,3.67-.46,1.42-1.1,1.45-3.22.15.13,1,.06,1.73.32,2.31,1.07,2.41.47,4.72-.34,7-.08.23-.94.42-1.27.27-1.03-.47-1.53-.01-1.83.84-.28.8-.53,1.63-.61,2.47-.18,1.85-1.12,3.1-2.64,4.14-4.85,3.35-8.56,7.66-10.77,13.19-.51,1.28-.84,2.47-.01,3.8.31.5.39,1.46.12,1.95-.79,1.42-.87,2.71.27,4.11-3.39,1.12-3.86,4.62-6,6.67-2.13-.67-2.42-.63-3.39,1.52-1.52,3.39-3.2,6.73-3.35,10.58-.07,1.76-1.34,2.88-2.72,3.75-1.35.85-2.77,1.62-4.23,2.27-1.36.6-2,1.54-2.26,2.99-.49,2.7-.71,2.77-3.35,2.28-1.04-.2-2.11-.3-3.17-.38-.41-.03-.96-.03-1.23.21-2.75,2.41-6.41,3.15-9.38,5.13-.23.16-.56.53-.51.7.45,1.52-.61,2.28-1.54,3.06-1.02.85-1.19,1.69-.57,2.92.92,1.84.81,3.62-1.01,4.99-1.12.85-1.28,2-1.41,3.36-.44,4.86,1.1,9.36,2.03,14,.48,2.41.15,4.98.16,7.48,0,1.78-1.07,2.44-2.68,2.74-3.72.69-7.44,1.4-11.12,2.25-12.22,2.84-24.17,6.57-35.76,11.41-1.48.62-3.21.6-4.71,1.18-4.15,1.6-8.22,3.41-12.37,5.02-1.16.45-2.48.48-3.74.67-.87.13-1.75.25-2.63.32-.47.04-1.08.12-1.39-.12-1.21-.96-2.41-.51-3.64-.17-2.83.78-5.65,1.55-8.48,2.3-.4.11-1.02.3-1.22.11-1.07-.97-1.92-.48-2.77.46-.11-.12-.22-.24-.33-.36.21-.43.33-.92.63-1.26,1.27-1.48,1.84-3.24,2.54-5.05,1.77-4.56,3.95-8.96,6.19-13.32.6-1.17,2.14-1.38,3.45-.79,1.57.7,1.3,1.99.7,3.33.48.19.88.49,1.24.46,1.47-.12,2.04.47,1.87,1.94-.03.26.4.77.7.84,1.26.3,2.51.43,3.59-.63.49-.48,1.07-.92,1.69-1.18.95-.41,1.27-1.23.82-1.9-.27-.4-1.31-.3-2.01-.4-.14-.02-.29.07-.45.11-.07-1.32.6-1.98,1.78-1.38,3.7,1.89,6.29,0,8.86-2.27.67-.59,1.31-1.5,2.46-.54.18.15,1.33-.38,1.54-.83.52-1.12,1.28-1.5,2.41-1.35,1.74.24,3.02-.33,3.72-2.02.11-.26.4-.52.67-.64,1.93-.82,3.88-1.61,5.48-2.27.22-1.06.4-1.8.53-2.55.05-.3.07-.63-.02-.91-.56-1.63.05-2.74,2.24-4.47,1.31-1.03,2.32-.17,3.36.36.3.15.5.78.51,1.2.05,1.98.05,3.95,0,5.93-.01.41-.23,1.01-.53,1.17-1.51.76-1.58,2.23-1.96,3.77,1.32-1.35,2.75-1.32,4.32-.84.11.03.69-.98.79-1.55.06-.38-.35-.83-.64-1.45.71-.07,1.36.04,1.8-.22.56-.33.95-.95,1.42-1.45-.63-.2-1.26-.51-1.9-.55-.4-.02-.82.37-1.51.71,0-1.85-.02-3.48.03-5.11,0-.23.38-.64.56-.63,1.37.08,2.83-.62,4.11.56.29.27,1.15.22,1.56-.02.76-.43,1.39-1.1,2.08-1.66-.03-.19-.07-.37-.1-.56-.49,0-1.05-.16-1.45.03-2.23,1.08-4.26-.13-4.26-2.6,0-1.66,0-3.31,0-4.97,0-1.27-.13-2.48,1.01-3.52.68-.62.69-1.65-.34-2.37-.33.36-.65.7-1.14,1.23-1.08-1.01-2.14-1.99-3.31-3.07,1.18-.68,3.16.18,2.56-1.94-.36-1.27-1.22-1.71-2.43-.88-.49-1.49-2.77-2.53-4.34-2.04-.66.21-1.29.51-1.92.79q-2.48,1.06-4.46-1.05c-1.24.86-2.21.21-3.15-.71-.42-.41-.88-.85-1.4-1.04-.42-.16-1.12-.13-1.42.13-.25.22-.29.98-.11,1.36.5,1.1.72,2.02-.74,2.65-.25-.2-.51-.47-.81-.66-.6-.37-1.66-1.1-1.77-.98-.69.73-1.46,1.61-1.65,2.55-.34,1.68-.2,3.45-.42,5.16-.24,1.89-1.15,3.6-3.79,2.58.2-.35.34-.71.57-.99.27-.32.82-.53.9-.87.18-.81.45-1.82.11-2.43-.22-.39-1.72-.58-2.19-.23-1.49,1.11-2.6.98-3.88-.29-.74-.74-1.62-.58-1.96.55-.36,1.15-1.07.78-1.73.46-.32-.15-.52-.53-.81-.77-1.53-1.27-2.14-1.28-3.53.11-.86.86-1.63,1.82-2.51,2.81-.73-.63-1.27-.99-1.67-1.46-1.11-1.28-2.31-1.36-3.68-.47-.44.29-1,.42-1.42.73-2.29,1.74-4.36.77-6.32-.57-.55-.38-.82-1.17-1.21-1.78-.63-1-1.09-2.16-1.91-2.96-.71-.7-1.14-1.25-.99-2.29.3-2.09-.51-2.94-2.63-3.01-.16,0-.35.03-.48-.03-1.47-.76-2.99-1.46-4.38-2.34-1.39-.88-1.29-2.29-1.07-3.52.81-.26,1.46-.47,2.11-.68-.48-.52-.96-1.03-1.68-1.81.93-1.37,1.95-2.87,3.02-4.44-.89-1.47-.25-4,1.04-4.84-.22-1.91-.41-3.6-.66-5.81-.82.6-1.58.94-1.98,1.53-.2.3.13,1.13.43,1.57.68.96.24,1.7-.24,2.5-.9,1.52-1.9,3.06.22,4.36-1.25,1.65-1.37,1.66-2.33.34-.99-1.37-2.66-1.42-3.7.04.6.26,1.16.5,1.71.73.15,1.82.04,1.93-1.77,1.65-1.51-.23-1.7-.02-1.31,1.5.29,1.13.43,2.28,1.86,2.73.31.1.34,1.07.52,1.75-2.95-.72-1.82,2.56-2.91,2.75-.32,1.29-.4,2.23-.78,3.02-.5,1.02-.99,1.92.04,2.88.14.14.31.51.27.54-1.56,1.33-.03,3.17-.87,4.75-1.45,2.7-.94,3.55,1.38,5.49,1.25,1.05,2,2.69,3.15,3.89.92.95,2.17,1.58,3.17,2.46.69.61,1.53,1.34,1.71,2.15.14.62-.65,1.44-1.09,2.3.27.03.76-.06,1.01.14.4.33,1,1.13.91,1.24-1,1.2-.07,1.82.73,2.57-.32.38-.61.74-.93,1.13-.24-.12-.42-.23-.61-.28-.59-.15-1.36-.59-1.75-.37-1.29.72-2.33.25-3.46-.28-1.88-.89-3.76-1.78-5.69-2.57-.89-.37-1.78-1.35-2.88-.29-.11.11-.64-.26-.99-.36-.37-.11-.76-.18-.79-.19-.6-.94-1.05-1.85-1.7-2.59-2.01-2.33-4.54-4.17-6.08-6.95-.76-1.37-1-2.47-.49-4.02,1.49-4.55,3.22-9.1,3.96-13.79.65-4.12.17-8.45-3.98-11.16-.29-.19-.49-.54-.69-.84-1.72-2.59-3.46-5.17-5.13-7.79-.5-.78-.34-1.46.66-1.9.46-.2.99-.77,1.08-1.24.51-2.78.92-5.58,1.31-8.38.24-1.75.12-1.92-1.54-3.22.89-.79,1.76-1.53,2.6-2.32.42-.4.37-.96.47-1.48.27-1.36,1.25-2.6,2.01-3.84.16-.26.61-.33,1.33-.69-1.03-.54-1.76-.93-2.49-1.31,1.01-1.3,2.68-1.43,3.75-.24.54.6,1.08,1.08,1.59.21.18-.29-.23-1.08-.56-1.49-.27-.34-.81-.48-1.25-.67-.39-.16-.8-.27-1.42-.47.95-1.74,1.89-3.44,2.81-5.14.55-1.02,1.26-2,.42-3.26-.19-.28.15-.89.19-1.35.04-.45,0-.91,0-1.36,0-.75,0-1.49-.01-2.24.69.1,1.38.16,2.05.33.34.09.64.37,1.36.82.4-1.56.89-2.93,1.07-4.33.1-.81-.41-1.43-1.46-1.52-3.28-.28-3.35-.22-4.04,3.07-.48,2.29-1.02,4.58-1.76,6.79-.35,1.04-1.24,1.91-1.96,2.97-1.31-2.69-1.2-3.19.96-4.9-.45-.3-.87-.58-1.27-.85.24-1.14.54-2.27.69-3.42.1-.81-.01-1.73-1.14-1.72-1.1.01-2.47-.43-2.9,1.22-.05.2-.02.45-.11.63q-1.19,2.25,1.23,3.55c-1.16,2.08.23,3.85.83,5.7.37,1.14.27,1.72-.93,2.16-1.39.51-2.69,1.22-4.37,2.01,0-2.2-.13-4.1.08-5.96.06-.55,1.1-.99,1.69-1.47-.8-.75-3.34-1.12-4.24-.6-.91.53-.84,2.02.15,2.87q1.17,1,.57,2.55c-.88-.33-1.77-.67-2.66-1-.09.14-.18.29-.27.43.99,1.37,3.48,2.28,1.42,4.62-2.1-.92-3.83-2.22-4.75-4.53-.72-1.82-1.74-3.52-2.53-5.31-.24-.55-.32-1.24-.27-1.85.35-3.91-1.78-6.57-4.51-8.88-.44-.37-1.26-.28-1.96-.23-1.02-.36-1.57-.92-1.39-2.29.1-.8-.8-1.98-1.57-2.57-1.47-1.12-3.15-1.99-4.79-2.87-1.17-.63-1.59-1.33-.71-2.52.51-.69.67-1.37-.13-2.12-.28-.26-.14-1.03-.09-1.56.06-.62.43-1.28.31-1.84-.6-2.69-.08-5.22,1.02-7.63,1.37-2.99.27-5.88-.15-8.79-.19-1.33-.2-2.32,1.1-3.16.76-.49,1.32-1.39,1.79-2.2,2.8-4.84,5.56-9.71,8.29-14.59.83-1.48,1.55-3.02,2.27-4.56.34-.72.53-1.51.82-2.25,1.3-3.23,3.31-4.32,6.69-3.61,2.3.48,4.62.89,6.87,1.52,1.75.49,3.34.25,4.7-.79,3.42-2.62,7.28-3.76,11.53-4.16,3.75-.35,6.79-2.39,9.51-4.9.95-.88,1.43-1.87,1.17-3.27-.32-1.71.22-2.26,1.93-2.33.99-.04,1.99,0,3.18,0-.75,1.53-1.4,2.85-2,4.08,1.91,1.87,3.73,3.69,5.61,5.44.49.46,1.19.69,1.79,1.04,1.72,1.02,3.48,1.98,5.12,3.11.36.25.33,1.14.37,1.74.07,1.11-.09,2.24.12,3.32.23,1.17.97,1.89,2.38,1.92.62.01,1.49.62,1.77,1.19.24.49.03,1.52-.37,1.94-1.02,1.06-.54,1.73.39,2.28,1.29.78,2.2,1.66,2.36,3.33.06.64,1.07,1.5,1.78,1.65.58.12,1.6-.5,1.99-1.08.67-.99,1.29-1.2,2.4-.85,2.19.71,4.3,1.36,5.83,3.35.54.7,1.95,1.02,2.97,1.02,2.1,0,2.6.29,2.79,2.4.29,3.24,2.33,4.64,5.44,3.68,1.4-.43,2.69-.99,4.29-.9.99.06,2.14-.87,3.04-1.58,1.16-.92,2.16-2.06,3.21-3.13,3.07-3.11,7.71-3.86,11.58-1.82,1.27.67,2.49,1.45,3.7,2.23.93.6,2.03,1.17.92,2.6-.19.24.08,1.2.38,1.36.64.34,1.48.59,2.17.48.97-.16,1.86-.82,2.83-1.03,1.77-.38,2.42.18,2.53,1.92.2,3.01,3.68,5,6.81,3.9Z"/>
        <text class="cls-3" text-anchor="middle" x="120" y="105" textLength="120">愛知県</text>
      </g>
    </g>
  </g>
</svg>