<?xml version="1.0" encoding="UTF-8"?>
<svg id="_レイヤー_2" data-name="レイヤー 2" xmlns="http://www.w3.org/2000/svg" viewBox="0 0 199.13 26.69">
  <defs>
    <style>
      .cls-1 {
        fill: #fff;
      }

      .cls-2 {
        fill: #009be0;
      }

      .cls-3 {
        fill: #54a3d9;
      }

      .cls-4 {
        fill: #2f6cb0;
      }

      .cls-5 {
        fill: #3963a9;
      }
    </style>
  </defs>
  <g id="pc">
    <g>
      <g>
        <path class="cls-2" d="m14.47,20.3c-1.89-.85-3.71-1.97-5.05-3.55-1.34-1.59-2.16-3.7-1.87-5.76.29-2.06,1.84-3.98,3.87-4.37l1-.35c-2.4-.49-4.94-.63-7.26.16C2.84,7.21.78,9.06.23,11.45c-.52,2.26-.13,5.21,1.1,7.17,2.75,4.4,8.01,6.51,13.05,7.7,5.16,1.22,10.36-1.15,14.24-4.95-4.83.83-9.68.94-14.15-1.07Z"/>
        <path class="cls-5" d="m27.13,16.36c-.94-1-1.9-2-2.86-2.98-6.35,6.08-13.35,10.36-23.33,4.53,4.61,10.09,21.72,12.35,29.81,2.19-1.23-1.21-2.42-2.48-3.62-3.74Z"/>
        <path class="cls-4" d="m33.97,6.38c1.89.85,3.71,1.97,5.05,3.55,1.34,1.59,2.16,3.7,1.87,5.76-.29,2.06-1.84,3.98-3.87,4.37l-1,.35c2.4.49,4.94.63,7.26-.16,2.32-.79,4.38-2.63,4.94-5.02.52-2.26.13-5.21-1.1-7.17-2.75-4.4-8.01-6.51-13.05-7.7-5.16-1.22-10.36,1.15-14.24,4.95,4.83-.83,9.68-.94,14.15,1.07Z"/>
        <path class="cls-3" d="m21.31,10.33c.94,1,1.9,2,2.86,2.98,6.35-6.08,13.35-10.36,23.33-4.53C42.89-1.31,25.78-3.57,17.69,6.59c1.23,1.21,2.42,2.48,3.62,3.74Z"/>
      </g>
      <g>
        <path class="cls-1" d="m79.04,9.13l2.31-1.17c2.64,6.08,3.08,7.03,6.19,13.25,3.11-6.3,3.55-7.29,6.11-13.14l2.23,1.03-8.49,16.81-8.35-16.77Z"/>
        <path class="cls-1" d="m116.16,22.09c-1.5,1.57-2.34,2.27-3.44,2.78-1.32.62-2.71.95-4.1.95-4.76,0-8.53-3.88-8.53-8.75,0-2.31.99-4.8,2.6-6.55,1.57-1.68,3.59-2.6,5.86-2.6,4.54,0,8.13,3.62,8.13,8.2,0,.29,0,.48-.04.77h-14.06v.44c0,1.54.92,3.51,2.27,4.8,1.1,1.03,2.38,1.54,3.95,1.54,2.12,0,4.28-1.06,5.97-2.89l1.39,1.32Zm-1.87-7.1c-.51-3.04-2.82-5.05-5.71-5.05s-5.31,2.12-5.71,5.05h11.42Z"/>
        <path class="cls-1" d="m124.44,25.24c0-.26.04-.88.18-1.83l.04-1.76v-7.62c0-1.57-.11-3.08-.4-4.87l2.38-.51c.04.44.07.66.11.92,0,.04.04.48.07,1.21,1.1-1.65,2.2-2.31,3.81-2.31.73,0,1.54.22,2.2.62l-.59,2.12c-.59-.33-1.24-.48-1.9-.48-.81,0-1.61.33-2.09.92-1.03,1.17-1.28,2.38-1.28,5.82,0,1.79.11,7.36.15,7.87h-2.67v-.11Z"/>
        <path class="cls-1" d="m138.27,9.1l2.34-1.1c2.49,6.11,2.82,6.99,5.42,13.11l6.15-13.18,5.64,13.18c2.93-6.04,3.33-6.92,5.93-12.85l1.98.99.04.29-8.13,16.48-5.6-12.7-6.15,12.7-7.62-16.92Z"/>
        <path class="cls-1" d="m175.88,2.65c0,1.17-.92,2.16-1.98,2.16s-1.94-.95-1.94-2.09.92-2.05,2.01-2.05,1.9.84,1.9,1.98Zm-3.15,12.3v-.15l-.11-6.15v-.11h2.75c0,1.32,0,1.9-.07,3.51-.04,1.76-.04,2.27-.04,2.89l-.11,10.4h-2.42v-10.4Z"/>
        <path class="cls-1" d="m184.88,25.21c.04-.7.07-1.54.11-2.53v-9.19c0-1.21-.07-1.94-.33-2.93,2.97-1.76,5.31-2.56,7.54-2.56,2.75,0,5.2,1.28,6.19,3.15.44.84.62,2.01.62,3.66l-.04,4.91v2.71c.07,1.94.07,2.6.15,2.93h-2.86v-.15c.07-.62.15-1.28.18-1.9.07-.73.11-1.5.11-2.34v-5.93c0-3.19-1.5-4.87-4.32-4.87-1.54,0-3.37.51-4.8,1.35v9.74c0,1.06.07,2.45.22,4.1h-2.78v-.15Z"/>
        <g>
          <path class="cls-1" d="m74.42,23.19h-.84l-1.14.07h-.11l-10.11-.07-.02-4.95h-.02v-6.24l.07-8.84h7.07c1.54,0,3.33.15,4.03.29l.73-2.42h-14.5c0,.48.04.95.11,2.49.04.7.07,1.24.07,1.68,0,.29,0,.62-.04.88v14.79c0,.95,0,1.68-.04,2.27-.15,1.98-.15,2.01-.15,2.2h14.57l.7-2.23c-.18.04-.37.07-.4.07Z"/>
          <path class="cls-1" d="m68.57,14.2c1.1,0,2.27.04,2.71.07l1.65.18h.29l.77-2.45h-9.61v2.22l4.19-.02Z"/>
        </g>
      </g>
    </g>
  </g>
</svg>