<?xml version="1.0" encoding="utf-8"?>
<!-- Generator: Adobe Illustrator 27.7.0, SVG Export Plug-In . SVG Version: 6.00 Build 0)  -->
<svg version="1.1" id="Layer_1" xmlns="http://www.w3.org/2000/svg" xmlns:xlink="http://www.w3.org/1999/xlink" x="0px" y="0px"
	 viewBox="0 0 2100 2100" style="enable-background:new 0 0 2100 2100;" xml:space="preserve">
<style type="text/css">
	.st0{fill:#FFFFFF;}
	.st1{fill:#7D7D7D;}
	.st2{fill:#9E9E9E;}
	.st3{fill-rule:evenodd;clip-rule:evenodd;fill:url(#SVGID_1_);}
	.st4{fill-rule:evenodd;clip-rule:evenodd;fill:url(#SVGID_00000056401160647837719530000002689928981160825225_);}
	.st5{fill-rule:evenodd;clip-rule:evenodd;fill:#AA008E;}
	.st6{fill-rule:evenodd;clip-rule:evenodd;fill:url(#SVGID_00000066509458664004126620000005938111307570278303_);}
</style>
<rect class="st0" width="2100" height="2100"/>
<g>
	<path class="st1" d="M394.6,1511.2h110.9v28.7h-69.3v21.2h64.2v27.4h-64.2v26.3h71.5v30.2H394.6V1511.2z M612.5,1622.8h-47.1
		l-6.6,22.1h-42.3l50.5-133.7h45.4l50.2,133.7h-43.4L612.5,1622.8z M603.7,1593.9l-14.6-48.1l-14.8,48.1H603.7z M739.8,1596.5v-27.8
		h64v56.9c-12.2,8.4-23,13.9-32.5,17c-9.3,3.1-20.6,4.4-33.4,4.4c-15.9,0-29-2.6-38.9-7.9c-10-5.5-17.9-13.5-23.5-24.3
		c-5.5-10.6-8.2-22.9-8.2-36.8c0-14.6,3.1-27.1,9.1-37.9c6-10.8,14.8-19,26.6-24.7c9.1-4.2,21.2-6.4,36.7-6.4
		c14.6,0,25.9,1.3,33.2,4c7.3,2.6,13.5,6.8,18.1,12.6c4.9,5.5,8.6,12.6,11.1,21.4l-40.1,7.1c-1.5-5.1-4.4-9-8.2-11.7
		c-4-2.6-9.1-4-15-4c-9.1,0-16.4,3.1-21.7,9.5c-5.5,6.2-8.2,16.1-8.2,29.8c0,14.3,2.7,24.7,8.2,30.9c5.3,6.2,13.1,9.5,22.8,9.5
		c4.6,0,9.1-0.7,13.3-2c4.2-1.5,8.9-3.7,14.4-6.8v-12.6H739.8z M828.3,1511.2h41.4V1612h64.8v32.9H828.3V1511.2z M953.3,1511.2
		h110.9v28.7h-69.3v21.2h64.2v27.4h-64.2v26.3h71.3v30.2H953.3V1511.2z"/>
	<path class="st2" d="M1191.8,1644.9v-132.6h27.2v110.1h67.3v22.5H1191.8z M1300,1578.9c0-13.7,2-25.1,6.2-34.4
		c2.9-6.8,7.1-13,12.4-18.3c5.3-5.5,11.1-9.5,17.3-12.1c8.4-3.5,18.1-5.3,29-5.3c19.9,0,35.6,6.2,47.6,18.3
		c11.7,12.4,17.7,29.3,17.7,51.2c0,21.6-6,38.6-17.7,50.7c-11.7,12.4-27.4,18.3-47.1,18.3c-19.9,0-35.8-6-47.6-18.1
		C1305.8,1617.1,1300,1600.3,1300,1578.9L1300,1578.9z M1327.9,1578c0,15.2,3.5,26.7,10.6,34.4c6.9,7.9,15.9,11.7,26.8,11.7
		c10.6,0,19.7-3.8,26.6-11.5c6.9-7.9,10.4-19.4,10.4-35.1c0-15.2-3.3-26.7-10.2-34.4c-6.6-7.5-15.7-11.2-26.8-11.2
		c-11.3,0-20.4,3.8-27.2,11.5C1331.2,1551.1,1327.9,1562.6,1327.9,1578L1327.9,1578z M1513.8,1595.9v-22.7h58.2v53.4
		c-5.8,5.5-13.9,10.4-24.6,14.6c-10.8,4.2-21.7,6.2-32.7,6.2c-13.9,0-26.3-2.9-36.7-8.8c-10.4-5.7-18.1-14.3-23.5-25.2
		c-5.3-11-7.7-22.9-7.7-35.7c0-13.9,2.9-26.2,8.6-37.3c6-10.8,14.4-19,25.7-24.9c8.6-4.4,19.5-6.6,32.1-6.6
		c16.8,0,29.7,3.5,39.2,10.6c9.3,6.8,15.3,16.5,17.9,28.9l-27,5.1c-1.8-6.6-5.3-11.9-10.6-15.7c-5.1-3.8-11.5-5.7-19.5-5.7
		c-11.7,0-21.2,3.8-28.1,11.2c-7.1,7.5-10.4,18.5-10.4,33.3c0,15.9,3.5,27.8,10.6,35.7c7.1,7.9,16.2,11.9,27.7,11.9
		c5.8,0,11.3-1.1,17-3.3s10.6-4.9,14.6-7.9v-17H1513.8z M1591.5,1578.9c0-13.7,2-25.1,6.2-34.4c2.9-6.8,7.1-13,12.4-18.3
		c5.3-5.5,11.1-9.5,17.3-12.1c8.4-3.5,18.1-5.3,29-5.3c19.9,0,35.6,6.2,47.6,18.3c11.7,12.4,17.7,29.3,17.7,51.2
		c0,21.6-5.8,38.6-17.7,50.7c-11.7,12.4-27.4,18.3-47.1,18.3c-19.9,0-35.8-6-47.6-18.1S1591.5,1600.3,1591.5,1578.9L1591.5,1578.9z
		 M1619.4,1578c0,15.2,3.5,26.7,10.6,34.4c6.9,7.9,15.9,11.7,26.8,11.7c10.8,0,19.7-3.8,26.6-11.5c6.9-7.9,10.4-19.4,10.4-35.1
		c0-15.2-3.3-26.7-10.2-34.4c-6.6-7.5-15.7-11.2-26.8-11.2c-11.3,0-20.4,3.8-27.2,11.5C1622.9,1551.1,1619.4,1562.6,1619.4,1578
		L1619.4,1578z"/>
	<path class="st1" d="M705.3,1732.2v-20.7l-18.8-28h7.7l9.7,14.8c1.8,2.6,3.3,5.3,4.9,8.2c1.6-2.6,3.3-5.5,5.5-8.6l9.3-14.3h7.7
		l-19.7,28v20.7H705.3z M735.1,1708.4c0-8.2,2-14.3,6.4-19c4.4-4.6,10-6.8,16.8-6.8c4.6,0,8.6,1.1,12.4,3.3c3.5,2,6.2,5.1,8.2,8.8
		c2,4,2.9,8.2,2.9,13.2c0,4.9-1.1,9.3-3.1,13.2c-2,3.7-4.9,6.8-8.4,8.8c-3.8,2-7.7,2.9-12,2.9c-4.6,0-8.6-1.1-12.4-3.3
		c-3.5-2.2-6.2-5.1-8.2-9C736,1716.8,735.1,1712.6,735.1,1708.4L735.1,1708.4z M741.8,1708.6c0,5.7,1.6,10.4,4.7,13.7
		c3.1,3.5,7.1,5.1,11.9,5.1c4.9,0,8.9-1.5,12-5.1c3.3-3.3,4.9-8.2,4.9-14.6c0-3.7-0.7-7.3-2-10.4c-1.5-2.9-3.3-5.1-6-6.8
		c-2.7-1.5-5.5-2.4-8.6-2.4c-4.6,0-8.6,1.5-11.9,4.9C743.3,1696,741.8,1701.1,741.8,1708.6L741.8,1708.6z M822.1,1683.5h6.4v28
		c0,5.1-0.4,8.8-1.5,11.7c-1.1,2.9-3.1,5.3-6,7.1c-2.9,1.8-6.6,2.6-11.5,2.6c-4.4,0-8.2-0.7-11.1-2.2c-3.1-1.8-5.1-4-6.2-6.8
		c-1.3-3.1-2-7.1-2-12.4v-28h6.4v28c0,4.2,0.4,7.5,1.3,9.5c0.7,2,2,3.5,4,4.6c2,1.1,4.2,1.5,7.1,1.5c4.6,0,8-1.1,10.2-3.3
		c2-2,2.9-6.2,2.9-12.4V1683.5z M839.6,1732.2v-48.8h21.7c4.2,0,7.5,0.4,10,1.3c2.2,0.9,4,2.4,5.3,4.6c1.3,2.2,2,4.6,2,7.3
		c0,3.5-1.1,6.4-3.3,8.8c-2.2,2.2-5.7,3.7-10.4,4.4c1.8,0.9,3.1,1.5,4,2.4c1.8,1.8,3.5,4,5.3,6.4l8.4,13.5h-8l-6.6-10.2
		c-1.8-3.1-3.3-5.3-4.6-6.8c-1.1-1.5-2.2-2.6-3.1-3.3c-1.1-0.4-2-0.9-3.1-1.1c-0.7-0.2-1.8-0.2-3.5-0.2H846v21.6H839.6z M846,1704.8
		h13.9c2.9,0,5.3-0.2,6.9-0.9c1.8-0.7,2.9-1.5,3.8-2.9c0.9-1.3,1.3-2.9,1.3-4.4c0-2.2-0.9-4.2-2.4-5.7c-1.8-1.5-4.4-2.2-8-2.2H846
		V1704.8z M924.5,1716.5l6-0.7c0.4,2.4,1.1,4.4,2,6.2c1.1,1.5,2.9,2.6,5.1,3.7c2.2,0.9,4.6,1.3,7.5,1.3c2.4,0,4.6-0.2,6.4-1.1
		c2-0.7,3.3-1.5,4.2-2.9c0.9-1.3,1.3-2.7,1.3-4.2s-0.4-2.9-1.3-4c-0.9-1.1-2.2-2.2-4.4-2.9c-1.1-0.7-4.2-1.3-8.6-2.4
		s-7.5-2.2-9.3-3.1c-2.4-1.1-4.2-2.6-5.3-4.4c-1.1-2-1.8-4-1.8-6.2c0-2.4,0.7-4.9,2.2-6.8c1.3-2.2,3.3-3.7,6-4.9
		c2.9-1.1,5.8-1.8,9.1-1.8c3.5,0,6.9,0.7,9.5,1.8c2.9,1.1,4.9,2.9,6.4,5.1c1.5,2.2,2.2,4.9,2.4,7.7l-6.2,0.4
		c-0.4-3.1-1.6-5.3-3.3-6.8c-2-1.8-4.9-2.4-8.6-2.4c-4,0-6.6,0.7-8.6,2.2c-1.8,1.3-2.6,3.1-2.6,5.1c0,1.8,0.7,3.3,2,4.4
		c1.3,1.1,4.4,2.2,9.7,3.3c5.3,1.3,8.9,2.4,10.8,3.3c2.9,1.1,4.9,2.9,6.2,4.9c1.3,2,2,4.2,2,6.8c0,2.6-0.7,5.1-2.2,7.3
		c-1.3,2.4-3.5,4.2-6.4,5.5c-2.7,1.1-5.8,1.8-9.3,1.8c-4.4,0-8.2-0.7-11.1-1.8c-3.1-1.3-5.3-3.3-7.1-6
		C925.4,1722.7,924.5,1719.6,924.5,1716.5L924.5,1716.5z M971.9,1732.2v-48.8h6.4v43h24.1v5.7H971.9z M1008.2,1708.4
		c0-8.2,2.2-14.3,6.4-19c4.4-4.6,10.2-6.8,17-6.8c4.4,0,8.6,1.1,12.2,3.3c3.5,2,6.4,5.1,8.2,8.8c2,4,2.9,8.2,2.9,13.2
		c0,4.9-0.9,9.3-2.9,13.2c-2,3.7-4.9,6.8-8.6,8.8c-3.5,2-7.5,2.9-11.7,2.9c-4.7,0-8.9-1.1-12.4-3.3c-3.8-2.2-6.4-5.1-8.2-9
		C1009.1,1716.8,1008.2,1712.6,1008.2,1708.4L1008.2,1708.4z M1014.8,1708.6c0,5.7,1.5,10.4,4.9,13.7c3.1,3.5,7.1,5.1,11.7,5.1
		c4.9,0,8.9-1.5,12.2-5.1c3.1-3.3,4.6-8.2,4.6-14.6c0-3.7-0.7-7.3-2-10.4c-1.3-2.9-3.3-5.1-6-6.8c-2.4-1.5-5.5-2.4-8.6-2.4
		c-4.7,0-8.6,1.5-11.7,4.9C1016.6,1696,1014.8,1701.1,1014.8,1708.6L1014.8,1708.6z M1086.1,1713v-5.7h20.8v18.1
		c-3.3,2.4-6.4,4.4-10,5.7c-3.3,1.1-6.9,1.8-10.4,1.8c-4.6,0-9.1-0.9-13.1-3.1c-4-2-6.9-4.9-8.9-8.8c-2-3.7-3.1-8.2-3.1-13
		c0-4.6,1.1-9,3.1-13.2c2-4.2,4.9-7.1,8.6-9c3.8-2,8-3.1,12.8-3.1c3.5,0,6.6,0.7,9.5,1.8c2.9,1.1,5.1,2.6,6.9,4.6
		c1.5,2.2,2.9,4.9,3.5,8.2l-5.8,1.5c-0.7-2.4-1.6-4.4-2.7-6c-1.1-1.3-2.7-2.4-4.6-3.3c-2.2-0.9-4.4-1.3-6.9-1.3
		c-2.9,0-5.5,0.4-7.5,1.3c-2.2,0.9-4,2.2-5.3,3.5c-1.3,1.5-2.4,3.1-3.1,4.9c-1.3,3.1-1.8,6.4-1.8,9.9c0,4.2,0.7,7.9,2.2,10.8
		c1.5,2.9,3.5,5.1,6.4,6.6c2.9,1.3,6,2,9.3,2c2.7,0,5.5-0.4,8.2-1.5s4.6-2.2,6-3.5v-9H1086.1z M1111.1,1732.2l18.6-48.8h7.1
		l19.9,48.8h-7.3l-5.5-14.8h-20.6l-5.3,14.8H1111.1z M1125,1712.1h16.6l-5.1-13.5c-1.5-4.2-2.7-7.5-3.3-10.2
		c-0.7,3.1-1.8,6.2-2.9,9.3L1125,1712.1z M1161.7,1732.2v-48.8h6.6l25.7,38.2v-38.2h6.2v48.8h-6.6l-25.7-38.4v38.4H1161.7z
		 M1249.4,1732.2v-48.8h6.4v20.1h25.4v-20.1h6.4v48.8h-6.4v-22.9h-25.4v22.9H1249.4z M1298.5,1732.2v-48.8h35.4v5.7h-28.8v15h26.8
		v5.5h-26.8v16.8h29.9v5.7H1298.5z M1344.1,1732.2v-48.8h21.7c4.4,0,7.7,0.4,10,1.3c2.2,0.9,4,2.4,5.3,4.6c1.3,2.2,2.2,4.6,2.2,7.3
		c0,3.5-1.3,6.4-3.5,8.8c-2.2,2.2-5.5,3.7-10.4,4.4c1.8,0.9,3.1,1.5,4,2.4c2,1.8,3.8,4,5.3,6.4l8.4,13.5h-8l-6.4-10.2
		c-2-3.1-3.5-5.3-4.6-6.8c-1.3-1.5-2.4-2.6-3.3-3.3c-1.1-0.4-2-0.9-3.1-1.1c-0.7-0.2-1.8-0.2-3.5-0.2h-7.5v21.6H1344.1z
		 M1350.5,1704.8h13.9c2.9,0,5.3-0.2,6.9-0.9c1.8-0.7,3.1-1.5,3.8-2.9c0.9-1.3,1.3-2.9,1.3-4.4c0-2.2-0.7-4.2-2.4-5.7
		c-1.8-1.5-4.4-2.2-8-2.2h-15.5V1704.8z M1393.4,1732.2v-48.8h35.2v5.7h-28.8v15h27v5.5h-27v16.8h30.1v5.7H1393.4z"/>
</g>
<g>
	<linearGradient id="SVGID_1_" gradientUnits="userSpaceOnUse" x1="998.2771" y1="1112.4199" x2="1287.6036" y2="842.2832">
		<stop  offset="0" style="stop-color:#FF002D"/>
		<stop  offset="0.4926" style="stop-color:#A90017"/>
		<stop  offset="1" style="stop-color:#510014"/>
	</linearGradient>
	<path class="st3" d="M986.5,901.9c48,62.3,136.5,118.2,282.7,137.7c40.7-12.6,78.3-34,113.1-64.2c-37.6-95.2-124.3-156.4-249.3-156
		C1091.6,862.1,1042.9,889.6,986.5,901.9L986.5,901.9z"/>
	
		<linearGradient id="SVGID_00000165921637572232050630000000783059141972552347_" gradientUnits="userSpaceOnUse" x1="645.8281" y1="748.3567" x2="1383.5293" y2="748.3567">
		<stop  offset="0" style="stop-color:#ED1C24"/>
		<stop  offset="1" style="stop-color:#FCEE21"/>
	</linearGradient>
	<path style="fill-rule:evenodd;clip-rule:evenodd;fill:url(#SVGID_00000165921637572232050630000000783059141972552347_);" d="
		M1133.1,819.3c96.7,40.9,186,98.3,249.3,156c0.8-9.2,1.2-18.4,1.2-27.9c0-110.5-47.6-213-126.2-284.5
		c-95.9-39-200.2-53.9-303.4-42.8c23-23.3,36.8-60.8,36.8-98.7c-34.9,64.2-182.6,99-239.3,131.5c-16.5,9.6-22.2,22.2-23,39.4
		c-64.4,31.7-96.6,104.8-76.7,173.6c46.4-85.3,152.3-107.5,242-104.4C972,764.2,1054.8,786.4,1133.1,819.3L1133.1,819.3z"/>
	<path class="st5" d="M665.1,1143.2c69.4-5.4,137.3,26.8,183.3,79.1c15.3,17.2,41.4,9.9,60.2-1.9c15.3-9.6,14.2-25.2,0.4-35.9
		C842.7,1134.7,743.8,1113,665.1,1143.2L665.1,1143.2z"/>
	
		<linearGradient id="SVGID_00000116201025202351634440000005203097092720697730_" gradientUnits="userSpaceOnUse" x1="1203.1091" y1="1380.5502" x2="672.0175" y2="663.2191">
		<stop  offset="0" style="stop-color:#E900DD"/>
		<stop  offset="0.4975" style="stop-color:#D40076"/>
		<stop  offset="1" style="stop-color:#A90004"/>
	</linearGradient>
	<path style="fill-rule:evenodd;clip-rule:evenodd;fill:url(#SVGID_00000116201025202351634440000005203097092720697730_);" d="
		M650.9,1117.2c117.8-47.8,277.7,8.8,337.9,112c34.1,10.3,73.3,11.1,108.9,7.6c-23.8-73-98.6-154.1-180.6-175.9
		c98.2,17.2,175.3,105.5,218.2,208c38.4,11.9,97.8,14.9,137.3,9.6C1211.3,1142,1054,997.5,918.3,969.2
		c140.4,23.7,249.3,127.7,340.6,231.4c76.3,86.4,129.3,124.3,245.5,146.1c-41-116.3-127-224.5-235.1-307.1
		c-84.8-64.6-182.6-113.6-282.7-137.7c-129.3-31.7-262.4-22.6-374.7,45.5C611.8,1008.6,626,1065.9,650.9,1117.2L650.9,1117.2z"/>
</g>
</svg>
