<?xml version="1.0" encoding="UTF-8"?>
<svg id="_レイヤー_2" data-name="レイヤー 2" xmlns="http://www.w3.org/2000/svg" viewBox="0 0 1200 720">
  <defs>
    <style>
      .cls-1, .cls-2 {
        fill: #f88800;
      }

      .cls-3, .cls-4 {
        fill: #1a86d0;
      }

      .cls-2, .cls-4, .cls-5 {
        fill-rule: evenodd;
      }

      .cls-5 {
        fill: #fff;
      }
    </style>
  </defs>
  <g id="_レイヤー_1-2" data-name="レイヤー 1">
    <g>
      <polygon class="cls-5" points="0 0 1200 0 1200 720 0 720 0 0 0 0"/>
      <path class="cls-1" d="m224.8,478.42c0-8.05-6.39-14.44-14.16-14.44h-28.69v65.26h35.91c12.87,0,19.72-9.81,19.72-20.64s-7.22-19.16-17.59-20.55c3.05-1.85,4.81-5.92,4.81-9.63h0Zm-29.99-2.96h10.92c4.63,0,7.22,2.5,7.22,5.65,0,2.68-1.76,5.65-6.2,5.65h-11.94v-11.29h0Zm.09,42.3v-21.2h15.83c8.98,0,12.87,5.37,12.87,10.64,0,6.11-3.8,10.55-12.96,10.55h-15.74Zm107.61,11.48h15.83l-15.18-19.44c8.61-3.7,13.24-11.11,13.24-22.31,0-12.22-6.48-23.51-25.55-23.51h-28.79v65.26h13.24v-16.75h12.13c.83,0,1.76,0,2.5-.09l12.59,16.85h0Zm-27.21-53.78h13.42c10.27,0,13.79,6.29,13.79,13.05,0,7.68-5,13.05-15.55,13.05h-11.66v-26.1h0Zm114.46,53.78h13.98l-31.19-65.26h-6.57l-31.1,65.26h13.98l5.83-13.24h29.16l5.92,13.24h0Zm-20.55-45.82l9.9,21.57h-19.72l9.81-21.57h0Zm102.33-19.44v41.1l-38.88-41.1h-6.48v65.26h13.24v-41.1l38.97,41.1h6.48v-65.26h-13.33Zm100.11,32.67c0-18.05-14.72-32.67-32.86-32.67h-25.82v65.26h27.95c17.12,0,30.73-15.27,30.73-32.58h0Zm-45.82,20.46v-41.01h12.96c10.92,0,19.81,9.26,19.81,20.55s-8.42,20.46-18.79,20.46h-13.98Zm96.04-26.57c-9.81-2.22-14.44-4.17-14.44-8.79,0-4.07,3.7-7.03,10.37-7.03,6.11,0,14.16,1.94,19.9,4.35l5.37-10.55c-6.39-2.78-15.09-5.28-24.99-5.28-14.9,0-24.07,8.15-24.07,19.62,0,12.87,10.83,16.66,24.25,19.72,9.53,2.22,13.88,4.16,13.88,8.61,0,4.81-4.26,7.4-11.39,7.4-8.15,0-14.16-.83-22.77-5l-4.81,10.27c10.37,5.18,16.01,6.2,27.12,6.2,15.18,0,25.27-7.4,25.27-19.99,0-11.94-9.63-16.38-23.7-19.53h0Zm123.9-26.57v41.1l-38.88-41.1h-6.48v65.26h13.24v-41.1l38.97,41.1h6.48v-65.26h-13.33Zm90.67,65.26h13.98l-31.19-65.26h-6.57l-31.1,65.26h13.98l5.83-13.24h29.16l5.92,13.24h0Zm-20.55-45.82l9.9,21.57h-19.72l9.81-21.57h0Zm117.51-19.44l-27.03,37.39-27.03-37.39h-6.48v65.26h13.24v-36.1l20.27,28.32,20.18-28.32v36.1h13.33v-65.26h-6.48Zm47.44,53.78v-14.62h29.53v-11.11h-29.53v-16.57h35.27v-11.48h-48.13v65.26h50.08v-11.48h-37.21Z"/>
      <path class="cls-3" d="m428.84,548.13c.14,0,.25.04.34.1.09.07.13.18.13.33v.43c0,.14-.04.25-.12.33-.08.08-.2.13-.35.13h-5.08v16.13c0,.29-.15.43-.45.43h-.44c-.29,0-.44-.14-.44-.43v-16.13h-5.25c-.3,0-.45-.15-.45-.46v-.43c0-.29.15-.44.45-.44h11.65Zm21.9,17.56c-.16-.39-.32-.77-.48-1.17-.16-.39-.32-.79-.48-1.18h-10.7l-.95,2.3c-.11.25-.27.37-.47.37-.27,0-.49-.04-.65-.12-.16-.08-.24-.16-.24-.27,0-.07.02-.14.05-.2l7.03-16.81c.03-.07.07-.16.12-.25.05-.1.1-.18.15-.27.05-.08.1-.16.16-.21.06-.06.11-.08.16-.08.16,0,.28.09.36.27l7.24,17.39s.03.06.04.11c0,.05.01.09.01.12,0,.09-.09.16-.28.23-.18.07-.39.1-.63.1-.21,0-.36-.11-.45-.32h0Zm-11.12-3.67h9.6l-4.38-10.57c-.06-.16-.13-.32-.2-.49-.07-.16-.14-.32-.21-.49-.02,0-.02,0-.02.02l-4.79,11.53h0Zm37.64-3.66c.28,0,.43.14.45.42v5.13c-.02.18-.09.3-.23.36l-.04.04c-.78.62-1.65,1.1-2.62,1.44-.97.34-1.99.51-3.07.51-1.27,0-2.45-.24-3.57-.72-1.11-.48-2.08-1.13-2.9-1.96-.82-.83-1.48-1.8-1.95-2.91-.48-1.12-.71-2.3-.71-3.57,0-.83.11-1.64.32-2.42.22-.79.53-1.52.92-2.19.4-.68.87-1.3,1.43-1.85.56-.56,1.17-1.04,1.85-1.44.68-.4,1.4-.71,2.18-.93.78-.22,1.59-.33,2.44-.33.64,0,1.26.06,1.86.19.6.13,1.17.31,1.74.55.18.08.39.18.65.31.26.12.5.26.73.41.23.15.43.3.59.45.16.15.24.29.24.42,0,.06-.01.14-.04.24-.03.1-.07.19-.12.28-.05.09-.12.16-.19.23-.07.06-.16.1-.25.1-.11,0-.22-.04-.32-.13-.68-.54-1.43-.95-2.24-1.24-.81-.29-1.67-.43-2.58-.43-.74,0-1.44.1-2.12.29-.68.19-1.31.47-1.9.81-.59.35-1.12.76-1.59,1.24-.48.49-.89,1.01-1.23,1.59-.34.58-.61,1.2-.79,1.85-.18.66-.28,1.34-.28,2.03s.09,1.42.28,2.08c.19.66.45,1.28.79,1.86.34.58.74,1.11,1.22,1.58.48.48,1,.89,1.58,1.23.57.34,1.19.61,1.85.79.66.18,1.34.28,2.05.28.84,0,1.65-.14,2.43-.42.78-.28,1.53-.65,2.24-1.11v-3.71h-4.34c-.14,0-.25-.04-.33-.12-.08-.08-.12-.19-.12-.32v-.43c0-.3.15-.45.45-.45h5.22Zm22.47,6.33c.14,0,.24.04.32.11.08.07.12.19.12.34v.44c0,.14-.04.24-.12.32-.08.08-.19.12-.32.12h-9.83c-.14,0-.25-.04-.33-.11-.08-.07-.12-.18-.12-.32v-17.02c0-.14.04-.24.12-.32.08-.08.2-.11.34-.11h.44c.14,0,.25.04.33.11.08.07.12.18.12.32v16.13h8.93Zm11.66-16.13c0-.14.04-.24.12-.32.08-.08.18-.11.33-.11h.43c.14,0,.24.04.33.11.08.08.12.18.12.32v17.02c0,.29-.15.43-.45.43h-.43c-.3,0-.45-.14-.45-.43v-17.02h0Zm15.08,2.12v14.89c0,.29-.15.43-.45.43h-.42c-.3,0-.45-.14-.45-.43v-17.45c0-.09.02-.18.06-.27.04-.09.12-.14.26-.14.11,0,.21.05.3.14,2.15,2.62,4.29,5.23,6.42,7.83,2.13,2.6,4.27,5.21,6.42,7.83v-14.95c0-.29.15-.43.45-.43h.44c.29,0,.44.14.44.43v17.53c0,.08-.03.17-.07.25-.04.09-.13.13-.27.13s-.24-.06-.32-.17l-12.79-15.64h0Zm38.01-2.56c.3,0,.46.15.46.45v.43c0,.14-.04.25-.11.33-.08.08-.19.12-.34.12h-10.72v8.98h8.66c.14,0,.25.04.33.11.08.07.12.19.12.35v.44c0,.14-.04.25-.12.33-.08.08-.19.12-.34.12h-8.66v4.91h10.91c.31,0,.46.15.46.45v.44c0,.29-.15.44-.45.44h-11.89c-.14,0-.24-.04-.3-.12-.06-.08-.09-.18-.09-.31v-17.03c0-.18.05-.3.14-.36.09-.05.2-.08.31-.08h11.62Zm33.56,10.23c.28,0,.43.14.45.42v5.13c-.02.18-.09.3-.23.36l-.04.04c-.78.62-1.65,1.1-2.62,1.44-.97.34-1.99.51-3.07.51-1.27,0-2.45-.24-3.57-.72-1.11-.48-2.08-1.13-2.9-1.96-.82-.83-1.48-1.8-1.95-2.91-.48-1.12-.71-2.3-.71-3.57,0-.83.11-1.64.32-2.42.22-.79.53-1.52.92-2.19.4-.68.87-1.3,1.43-1.85.56-.56,1.17-1.04,1.85-1.44.68-.4,1.4-.71,2.18-.93.78-.22,1.59-.33,2.44-.33.64,0,1.26.06,1.86.19.6.13,1.18.31,1.74.55.18.08.39.18.65.31.26.12.5.26.73.41.23.15.43.3.59.45.16.15.24.29.24.42,0,.06-.01.14-.04.24-.03.1-.07.19-.12.28-.05.09-.12.16-.19.23-.07.06-.16.1-.25.1-.11,0-.22-.04-.32-.13-.68-.54-1.43-.95-2.24-1.24-.81-.29-1.67-.43-2.58-.43-.74,0-1.44.1-2.12.29-.68.19-1.31.47-1.9.81-.59.35-1.11.76-1.59,1.24-.48.49-.89,1.01-1.23,1.59-.34.58-.61,1.2-.79,1.85-.18.66-.28,1.34-.28,2.03s.09,1.42.28,2.08c.19.66.45,1.28.79,1.86.34.58.74,1.11,1.22,1.58.48.48,1,.89,1.58,1.23.57.34,1.19.61,1.85.79.66.18,1.34.28,2.05.28.84,0,1.65-.14,2.43-.42.78-.28,1.53-.65,2.24-1.11v-3.71h-4.34c-.14,0-.25-.04-.33-.12-.08-.08-.12-.19-.12-.32v-.43c0-.3.15-.45.45-.45h5.22Zm11.25-1.26c0-.84.11-1.66.33-2.44.22-.79.53-1.52.92-2.19.4-.68.87-1.3,1.43-1.86.56-.56,1.18-1.03,1.85-1.43.68-.4,1.41-.71,2.19-.93.78-.22,1.59-.33,2.44-.33s1.65.11,2.43.33c.79.22,1.52.53,2.19.93.68.4,1.3.87,1.85,1.43.56.56,1.03,1.18,1.43,1.86.4.68.71,1.41.93,2.19.22.78.33,1.6.33,2.44s-.11,1.66-.33,2.43c-.22.78-.53,1.51-.93,2.19-.4.68-.87,1.3-1.43,1.86-.56.56-1.18,1.03-1.85,1.43s-1.41.71-2.19.92c-.78.22-1.59.33-2.43.33s-1.66-.11-2.44-.33c-.78-.22-1.52-.53-2.19-.92-.68-.4-1.3-.87-1.85-1.43-.56-.56-1.03-1.18-1.43-1.86-.4-.68-.71-1.41-.92-2.19-.22-.78-.33-1.59-.33-2.43h0Zm1.35,0c0,1.07.2,2.09.61,3.04.41.95.97,1.78,1.68,2.49.71.71,1.54,1.26,2.49,1.67.95.41,1.96.61,3.04.61.71,0,1.4-.09,2.07-.28.67-.18,1.29-.45,1.87-.79.58-.34,1.1-.75,1.58-1.23.48-.48.89-1,1.23-1.58.34-.58.61-1.2.79-1.86.19-.66.28-1.35.28-2.07,0-1.08-.2-2.09-.62-3.04-.41-.95-.97-1.78-1.68-2.49-.71-.71-1.54-1.27-2.49-1.68-.95-.41-1.96-.62-3.03-.62-.72,0-1.42.09-2.08.28-.66.19-1.28.45-1.86.79-.58.34-1.11.75-1.59,1.23-.48.48-.88,1.01-1.22,1.58-.34.58-.6,1.2-.79,1.87-.19.67-.28,1.36-.28,2.08h0Zm40.77-8.97c.3,0,.46.15.46.45v.43c0,.14-.04.25-.11.33-.08.08-.19.12-.34.12h-10.72v8.98h8.66c.14,0,.25.04.33.11.08.07.12.19.12.35v.44c0,.14-.04.25-.12.33-.08.08-.19.12-.34.12h-8.66v4.91h10.91c.31,0,.46.15.46.45v.44c0,.29-.15.44-.44.44h-11.89c-.14,0-.24-.04-.3-.12-.06-.08-.09-.18-.09-.31v-17.03c0-.18.05-.3.14-.36.09-.05.2-.08.31-.08h11.62Zm11.61,14.49c.06-.08.15-.17.25-.26.1-.09.22-.14.34-.14.04,0,.12.02.22.06.11.04.18.09.23.16.3.41.61.77.93,1.1.32.32.67.59,1.06.81.38.22.8.38,1.25.49.45.11.96.17,1.53.17.62,0,1.2-.07,1.74-.22.55-.14,1.02-.37,1.43-.67.41-.3.73-.69.97-1.16.24-.47.36-1.03.36-1.67,0-.5-.1-.93-.3-1.29-.2-.37-.47-.69-.82-.98-.34-.28-.75-.53-1.21-.75-.46-.22-.95-.43-1.46-.64-.8-.32-1.55-.63-2.24-.93-.69-.3-1.3-.64-1.81-1.03-.51-.39-.91-.85-1.21-1.38-.29-.53-.44-1.18-.44-1.96,0-.71.12-1.36.37-1.93.25-.57.59-1.05,1.03-1.44.44-.39.95-.69,1.56-.9.6-.21,1.25-.31,1.95-.31.47,0,.92.05,1.37.15.45.1.87.25,1.28.44.41.2.78.43,1.13.71.35.28.66.61.94.97.04.06.07.1.08.14.02.04.02.09.02.15,0,.02-.02.06-.07.11-.05.05-.1.1-.17.16-.06.06-.13.12-.21.18-.08.06-.14.11-.19.15-.09.06-.17.08-.24.06-.07-.02-.14-.06-.19-.11-.49-.54-1.03-.96-1.62-1.28-.59-.31-1.3-.47-2.13-.47-.54,0-1.03.08-1.47.24-.44.16-.82.39-1.14.67-.32.28-.56.62-.73,1.01-.17.39-.26.83-.26,1.3,0,.56.12,1.03.38,1.42.25.39.61.73,1.07,1.02.45.3,1,.57,1.63.83.63.26,1.32.54,2.06.84.66.27,1.26.56,1.8.86.54.3,1,.64,1.38,1.02.38.38.67.81.88,1.29.21.48.31,1.04.31,1.67,0,.83-.15,1.56-.46,2.19-.31.63-.73,1.16-1.25,1.59-.53.43-1.14.75-1.85.97-.71.22-1.47.32-2.27.32-1.21,0-2.31-.25-3.3-.75-.99-.5-1.85-1.31-2.58-2.43-.04-.06-.07-.11-.09-.16-.02-.05-.03-.1-.03-.17,0-.1.06-.19.17-.25h0Zm44.02-14.06c0-.14.04-.24.11-.32.07-.08.18-.12.32-.12h.42c.14,0,.25.04.34.11.09.08.13.18.13.32v17.02c0,.29-.16.43-.47.43h-.42c-.29,0-.43-.14-.43-.43v-5.8h-11.89v5.8c0,.29-.15.43-.46.43h-.43c-.29,0-.44-.14-.44-.43v-17.02c0-.14.04-.24.11-.32.07-.08.18-.11.33-.11h.44c.14,0,.25.04.33.12.08.08.12.18.12.32v9.87h11.89v-9.87h0Zm25.88-.43c.3,0,.46.15.46.45v.43c0,.14-.04.25-.11.33-.08.08-.19.12-.34.12h-10.72v8.98h8.66c.14,0,.25.04.33.11.08.07.12.19.12.35v.44c0,.14-.04.25-.12.33-.08.08-.19.12-.34.12h-8.66v4.91h10.91c.31,0,.46.15.46.45v.44c0,.29-.15.44-.45.44h-11.89c-.14,0-.24-.04-.3-.12-.06-.08-.09-.18-.09-.31v-17.03c0-.18.05-.3.14-.36.09-.05.2-.08.31-.08h11.62Zm25.31,6.75c0,.56-.07,1.12-.2,1.66-.14.55-.34,1.07-.6,1.56-.26.49-.59.94-.97,1.36-.38.42-.83.79-1.32,1.09l2.31,4.89s.02.05.02.1c0,.05.01.09.01.12,0,.09-.03.17-.09.24-.06.07-.15.11-.26.11h-.71c-.15,0-.27-.08-.35-.25l-2.17-4.6c-.75.3-1.6.45-2.55.45h-4.91v3.95c0,.3-.16.46-.47.46h-.45c-.3,0-.46-.15-.46-.46v-16.93c0-.14.04-.25.13-.34.08-.09.18-.14.29-.15h5.86c1.06,0,2.01.19,2.86.57.85.38,1.58.88,2.17,1.51.6.63,1.05,1.35,1.37,2.16.32.81.47,1.65.47,2.51h0Zm-6.88,5.35c.87,0,1.65-.15,2.33-.45.68-.3,1.26-.7,1.73-1.2.47-.5.83-1.07,1.07-1.71.25-.64.37-1.3.37-1.99s-.12-1.34-.37-1.99c-.25-.65-.61-1.22-1.07-1.72-.47-.51-1.05-.91-1.73-1.22-.68-.31-1.46-.46-2.33-.46h-4.91v10.73h4.91Zm31.27-12.11c.3,0,.46.15.46.45v.43c0,.14-.04.25-.11.33-.08.08-.19.12-.34.12h-10.72v8.98h8.66c.14,0,.25.04.33.11.08.07.12.19.12.35v.44c0,.14-.04.25-.12.33-.08.08-.19.12-.34.12h-8.66v4.91h10.91c.3,0,.46.15.46.45v.44c0,.29-.15.44-.45.44h-11.89c-.14,0-.24-.04-.3-.12-.06-.08-.09-.18-.09-.31v-17.03c0-.18.05-.3.14-.36.09-.05.2-.08.31-.08h11.62Z"/>
      <path class="cls-4" d="m215.13,232.04l115-32.66c8.28-2.35,15.64,7.04,15.64,15.64v163.77h545.36v18.4h-34.5l-7.36,18.4h-23.19c0-19.31-15.65-34.96-34.96-34.96s-34.96,15.65-34.96,34.96h-16.14c0-19.31-15.65-34.96-34.96-34.96s-34.96,15.65-34.96,34.96h-325.94c-2.55,5.15-7.86,8.72-13.97,8.74.72-2.79,1.1-5.72,1.1-8.74,0-19.31-15.65-34.96-34.96-34.96s-34.96,15.65-34.96,34.96c0,3.02.38,5.95,1.1,8.74h-47.34c-8.6,0-15.64-7.04-15.64-15.64v-87.03l4.6-2.21,4.83-71.76h-9.43c0-8.6,7.37-13.29,15.64-15.64h0Zm59.12,77.97h23.72v3.9h-23.72v-3.9h0Zm491.13,128.98l-38.09,1.65-1.94.08c-.59.48-1.2.93-1.82,1.37l17.54.76,34.03,1.48c-10.07-5.62-16.89-16.39-16.89-28.74,0-18.17,14.73-32.9,32.89-32.9s32.9,14.73,32.9,32.9c0,8.4-3.15,16.07-8.34,21.88l35.02,1.52-38.09,1.65h-.19c-.9.77-1.84,1.49-2.82,2.16l16.79.73,38.09,1.65-38.09,1.65-30.68,1.33c-1.5.21-3.04.32-4.6.32-.59,0-1.17-.02-1.75-.05l-1.07.05v-.12c-4.52-.38-8.78-1.68-12.6-3.71l-34.63,1.5-30.92,1.34c-1.66.26-3.36.4-5.09.4-17.84,0-32.31-14.47-32.31-32.31s14.47-32.31,32.31-32.31,32.31,14.47,32.31,32.31c0,8.41-3.21,16.07-8.48,21.82l36.5,1.58h0Zm-407.39,0l-38.09,1.65-2.38.1c-.83.7-1.69,1.36-2.59,1.97l18.74.81,38.09,1.65-38.09,1.65-33.87,1.47c-1.14.12-2.3.18-3.47.18-.19,0-.38,0-.57,0h-.17s0,0,0,0c-17.83-.39-32.16-14.96-32.16-32.89s14.73-32.9,32.89-32.9,32.9,14.73,32.9,32.9c0,8.36-3.12,15.99-8.26,21.8l37.02,1.6h0Zm-154.8-68.48h6.44v28.52h-6.44v-28.52h0Zm5.04-53.05l18.77-9.03,39.64-2.56,9.25-7.04,22.51-1.46v-49.68h-85.33l-4.83,69.77h0Z"/>
      <polygon class="cls-4" points="574.99 211.48 988.71 211.74 955.08 254.42 553.22 254.42 574.99 211.48 574.99 211.48"/>
      <polygon class="cls-4" points="545.16 270.33 887.01 270.59 853.38 313.28 523.39 313.28 545.16 270.33 545.16 270.33"/>
      <polygon class="cls-2" points="515.67 328.94 930 329.2 896.36 371.88 493.69 371.88 515.67 328.94 515.67 328.94"/>
      <polygon class="cls-2" points="478.07 371.88 566.96 196.52 966.88 196.52 1000.51 153.84 526.12 153.51 502.1 196.74 353.62 196.62 353.62 301.96 353.62 371.88 362.82 371.88 478.07 371.88 478.07 371.88"/>
    </g>
  </g>
</svg>