<?xml version="1.0" encoding="utf-8"?>
<!-- Generator: Adobe Illustrator 27.7.0, SVG Export Plug-In . SVG Version: 6.00 Build 0)  -->
<svg version="1.1" id="Layer_1" xmlns="http://www.w3.org/2000/svg" xmlns:xlink="http://www.w3.org/1999/xlink" x="0px" y="0px"
	 viewBox="0 0 2090 2090" style="enable-background:new 0 0 2090 2090;" xml:space="preserve">
<style type="text/css">
	.st0{fill-rule:evenodd;clip-rule:evenodd;fill:#F7F7F7;}
	
		.st1{clip-path:url(#SVGID_00000039854424451097824680000002338631248131098756_);fill:url(#SVGID_00000167370375188870764130000008555112803916147357_);}
	
		.st2{clip-path:url(#SVGID_00000013162974592811047570000011668514572918081719_);fill:url(#SVGID_00000180329937659971640620000006588772717214526094_);}
	
		.st3{clip-path:url(#SVGID_00000036950520976234793980000014607696324473426608_);fill:url(#SVGID_00000175300358919573892100000008931199833747201683_);}
	
		.st4{clip-path:url(#SVGID_00000043456488421884699840000002766131898790018747_);fill:url(#SVGID_00000029744305217308978900000006278038856654596799_);}
	
		.st5{clip-path:url(#SVGID_00000049901326501560735150000005935444028499731843_);fill:url(#SVGID_00000025414841562963282750000003797229904562039459_);}
	
		.st6{clip-path:url(#SVGID_00000111173062406222081780000014602821907212384401_);fill:url(#SVGID_00000102504794382280711520000002914471572738809216_);}
	.st7{fill:#4D4D4D;}
</style>
<rect y="2" class="st0" width="2088" height="2088"/>
<g>
	<g>
		<g>
			<defs>
				<path id="SVGID_1_" d="M1401.6,965.2c-46.4,0-84,37.6-84,84c0,46.4,37.6,84,84,84c46.4,0,84-37.6,84-84
					C1485.6,1002.8,1448,965.2,1401.6,965.2 M1122.6,562l111.1,10.8c36.1,3.5,53.3,11.8,68,37l97.5,153.2
					c7.5,12.8,14.7,16.5,27.6,20.9l119.5,41.1c44.7,15.3,63.5,40.2,69.9,76.8c19.8,113.5-7.7,191.2-29.9,185.3
					c-27.1-5.7-54.2-11.1-81.1-16.2c1.5-7,2.2-14.3,2.2-21.8c0-58.4-47.4-105.8-105.8-105.8c-54.5,0-99.4,41.2-105.1,94.2
					c-328.2-54.6-682.1-26.8-831.4,202.1c81.9-183.7,263-313.5,475.2-321.5h182.4C1145.6,792.1,1144.3,673.8,1122.6,562z"/>
			</defs>
			<clipPath id="SVGID_00000125578293781040460640000005326046548838733958_">
				<use xlink:href="#SVGID_1_"  style="overflow:visible;"/>
			</clipPath>
			
				<linearGradient id="SVGID_00000058559740322389056990000015417982618145695401_" gradientUnits="userSpaceOnUse" x1="1.0081" y1="2090.499" x2="2.0081" y2="2090.499" gradientTransform="matrix(1157.9392 0 0 677.7133 -702.3168 -1415858.125)">
				<stop  offset="0" style="stop-color:#FC75FA"/>
				<stop  offset="1" style="stop-color:#9811C6"/>
			</linearGradient>
			
				<rect x="465" y="562" style="clip-path:url(#SVGID_00000125578293781040460640000005326046548838733958_);fill:url(#SVGID_00000058559740322389056990000015417982618145695401_);" width="1170.9" height="677.7"/>
		</g>
		<g>
			<defs>
				<path id="SVGID_00000048491736926218807570000010281006627698519729_" d="M1309.5,997c-6.9,12.2-11.5,25.9-13.1,40.5
					c-328.2-54.6-682.1-26.8-831.4,202.1C611.5,1009,802,919.3,1309.5,997L1309.5,997z"/>
			</defs>
			<clipPath id="SVGID_00000010302284327131465270000006240551573678940826_">
				<use xlink:href="#SVGID_00000048491736926218807570000010281006627698519729_"  style="overflow:visible;"/>
			</clipPath>
			
				<linearGradient id="SVGID_00000077323917573389762090000011835727203612131261_" gradientUnits="userSpaceOnUse" x1="0.9989" y1="2090.7627" x2="1.9994" y2="2090.7627" gradientTransform="matrix(1670.2566 0 0 677.7133 -1586.8864 -1415858.125)">
				<stop  offset="0" style="stop-color:#FC75FA"/>
				<stop  offset="1" style="stop-color:#9811C6"/>
			</linearGradient>
			
				<rect x="465" y="919.3" style="clip-path:url(#SVGID_00000010302284327131465270000006240551573678940826_);fill:url(#SVGID_00000077323917573389762090000011835727203612131261_);" width="844.5" height="320.4"/>
		</g>
		<g>
			<defs>
				<path id="SVGID_00000070813361106975250940000017696018744204282523_" d="M958.9,870.8c-198.6,0-372.2,106.6-466.8,265.7
					C553.9,913.9,754.1,749,994.3,739.9c35.6,0,72.5-1.4,107.6,0c-0.8,38.4-4.5,94.3-14.3,130.9h-93.3
					C982.5,870.8,970.6,870.8,958.9,870.8"/>
			</defs>
			<clipPath id="SVGID_00000029736569918961332720000015086586417505975717_">
				<use xlink:href="#SVGID_00000070813361106975250940000017696018744204282523_"  style="overflow:visible;"/>
			</clipPath>
			
				<linearGradient id="SVGID_00000120550046109369908410000017013732251823389333_" gradientUnits="userSpaceOnUse" x1="0.9985" y1="2090.4976" x2="1.9985" y2="2090.4976" gradientTransform="matrix(609.8196 0 0 397.2875 -116.8685 -829591.0625)">
				<stop  offset="0" style="stop-color:#FFA555"/>
				<stop  offset="1" style="stop-color:#FE197C"/>
			</linearGradient>
			
				<rect x="492" y="738.5" style="clip-path:url(#SVGID_00000029736569918961332720000015086586417505975717_);fill:url(#SVGID_00000120550046109369908410000017013732251823389333_);" width="609.8" height="398.1"/>
		</g>
		<g>
			<defs>
				<path id="SVGID_00000118377864115194143950000015412485753309673906_" d="M492,1136.5c61.9-222.6,262.1-387.6,502.2-396.6
					c35.7,0,72.5-1.4,107.6,0c-0.4,19.1-1.5,42.6-3.7,65.8l0,0C822.5,805.8,631.1,848.2,492,1136.5"/>
			</defs>
			<clipPath id="SVGID_00000148639054655832708500000015703023066632729233_">
				<use xlink:href="#SVGID_00000118377864115194143950000015412485753309673906_"  style="overflow:visible;"/>
			</clipPath>
			
				<linearGradient id="SVGID_00000077306653208870399990000015467952200405660569_" gradientUnits="userSpaceOnUse" x1="1.2788" y1="2090.4966" x2="1.719" y2="2090.4966" gradientTransform="matrix(847.0018 0 0 397.3221 -354.0701 -829662.9375)">
				<stop  offset="0" style="stop-color:#FFA555"/>
				<stop  offset="1" style="stop-color:#FE197C"/>
			</linearGradient>
			
				<rect x="492" y="738.5" style="clip-path:url(#SVGID_00000148639054655832708500000015703023066632729233_);fill:url(#SVGID_00000077306653208870399990000015467952200405660569_);" width="609.8" height="398.1"/>
		</g>
		<g>
			<defs>
				<path id="SVGID_00000022536880516847104130000011087021392547453870_" d="M1014.5,692.8c-198.6,0-372.2,106.6-466.8,265.7
					C609.5,736,809.7,571,1049.9,561.9h37.7c0,0,11.5,54.4,14,130.9C1072.5,692.8,1043.5,692.8,1014.5,692.8"/>
			</defs>
			<clipPath id="SVGID_00000014628196681803668940000003680485430124355977_">
				<use xlink:href="#SVGID_00000022536880516847104130000011087021392547453870_"  style="overflow:visible;"/>
			</clipPath>
			
				<linearGradient id="SVGID_00000135692317214070886980000012866913899180013721_" gradientUnits="userSpaceOnUse" x1="0.9984" y1="2090.498" x2="1.9984" y2="2090.498" gradientTransform="matrix(553.9283 0 0 396.6378 -5.4282 -828410.3125)">
				<stop  offset="0" style="stop-color:#FFA555"/>
				<stop  offset="1" style="stop-color:#FE197C"/>
			</linearGradient>
			
				<rect x="547.6" y="561.9" style="clip-path:url(#SVGID_00000014628196681803668940000003680485430124355977_);fill:url(#SVGID_00000135692317214070886980000012866913899180013721_);" width="553.9" height="396.6"/>
		</g>
		<g>
			<defs>
				<path id="SVGID_00000069384446811226161570000001193439772239747508_" d="M547.6,958.6C609.5,736,809.7,571,1049.9,561.9h37.7
					c0,0,5.5,25.9,9.7,67.2C918.3,629.1,666.8,677.4,547.6,958.6"/>
			</defs>
			<clipPath id="SVGID_00000080196938520838186740000014419448479490075049_">
				<use xlink:href="#SVGID_00000069384446811226161570000001193439772239747508_"  style="overflow:visible;"/>
			</clipPath>
			
				<linearGradient id="SVGID_00000138543768211654471030000004638798185231961008_" gradientUnits="userSpaceOnUse" x1="1.2694" y1="2090.4988" x2="1.7294" y2="2090.4988" gradientTransform="matrix(766.656 0 0 396.64 -218.484 -828415.1875)">
				<stop  offset="0" style="stop-color:#FFA555"/>
				<stop  offset="1" style="stop-color:#FE197C"/>
			</linearGradient>
			
				<rect x="547.6" y="561.9" style="clip-path:url(#SVGID_00000080196938520838186740000014419448479490075049_);fill:url(#SVGID_00000138543768211654471030000004638798185231961008_);" width="549.6" height="396.6"/>
		</g>
	</g>
	<path class="st7" d="M1453.9,1380.3l27.8-2.8c1.7,9.3,5,16.2,10.1,20.5s11.9,6.6,20.6,6.6c9.1,0,16-1.9,20.6-5.8s7-8.4,7-13.6
		c0-3.4-1-6.2-2.9-8.6c-1.9-2.3-5.3-4.4-10.2-6.1c-3.3-1.2-10.9-3.2-22.7-6.2c-15.2-3.8-25.9-8.5-32-14.1
		c-8.6-7.8-12.9-17.3-12.9-28.6c0-7.2,2-14,6.1-20.3c4.1-6.3,9.9-11.1,17.6-14.4c7.6-3.3,16.8-4.9,27.7-4.9
		c17.6,0,30.9,3.9,39.8,11.8c8.9,7.9,13.6,18.4,14,31.5l-28.5,1c-1.2-7.3-3.8-12.6-7.8-15.8s-9.9-4.8-17.9-4.8
		c-8.2,0-14.6,1.7-19.3,5.1c-3,2.2-4.5,5.1-4.5,8.8c0,3.4,1.4,6.2,4.2,8.6c3.6,3.1,12.3,6.2,26.1,9.5c13.8,3.3,24,6.7,30.6,10.2
		c6.6,3.5,11.8,8.3,15.6,14.4s5.6,13.6,5.6,22.6c0,8.1-2.2,15.7-6.7,22.8c-4.5,7.1-10.8,12.4-19,15.8c-8.2,3.5-18.4,5.2-30.7,5.2
		c-17.8,0-31.5-4.1-41.1-12.4C1461.4,1408.1,1455.8,1396.1,1453.9,1380.3 M1298.7,1380.3l27.8-2.8c1.7,9.3,5,16.2,10.1,20.5
		s11.9,6.6,20.6,6.6c9.1,0,16-1.9,20.6-5.8s7-8.4,7-13.6c0-3.4-1-6.2-2.9-8.6c-1.9-2.3-5.3-4.4-10.2-6.1c-3.3-1.2-10.9-3.2-22.7-6.2
		c-15.2-3.8-25.9-8.5-32-14.1c-8.6-7.8-12.9-17.3-12.9-28.6c0-7.2,2-14,6.1-20.3c4.1-6.3,9.9-11.1,17.6-14.4
		c7.6-3.3,16.8-4.9,27.7-4.9c17.6,0,30.9,3.9,39.8,11.8c8.9,7.9,13.6,18.4,14,31.5l-28.5,1c-1.2-7.3-3.8-12.6-7.8-15.8
		s-9.9-4.8-17.9-4.8c-8.2,0-14.6,1.7-19.3,5.1c-3,2.2-4.5,5.1-4.5,8.8c0,3.4,1.4,6.2,4.2,8.6c3.6,3.1,12.3,6.2,26.1,9.5
		c13.8,3.3,24,6.7,30.6,10.2c6.6,3.5,11.8,8.3,15.6,14.4c3.7,6.1,5.6,13.6,5.6,22.6c0,8.1-2.2,15.7-6.7,22.8
		c-4.5,7.1-10.8,12.4-19,15.8c-8.2,3.5-18.4,5.2-30.7,5.2c-17.8,0-31.5-4.1-41.1-12.4C1306.3,1408.1,1300.6,1396.1,1298.7,1380.3z
		 M1151,1426.2v-141.6h104.4v23.9h-75.8v31.5h70.5v23.9h-70.5v38.4h78.6v23.9H1151z M1013.6,1344.5h21.1c13.7,0,22.2-0.6,25.6-1.7
		c3.4-1.2,6.1-3.2,8-6c1.9-2.8,2.9-6.4,2.9-10.6c0-4.8-1.3-8.6-3.8-11.6c-2.5-2.9-6.1-4.8-10.7-5.5c-2.3-0.3-9.3-0.5-20.8-0.5h-22.2
		V1344.5z M985,1426.2v-141.6h60c15.1,0,26,1.3,32.8,3.8c6.9,2.5,12.3,7.1,16.4,13.5c4.1,6.5,6.2,13.9,6.2,22.3
		c0,10.6-3.1,19.4-9.3,26.3c-6.2,6.9-15.5,11.3-27.8,13.1c6.1,3.6,11.2,7.5,15.2,11.9c4,4.3,9.4,12,16.1,23l17.2,27.6h-34
		l-20.4-30.9c-7.3-11-12.3-17.9-15.1-20.8c-2.7-2.8-5.5-4.8-8.6-5.9c-3.1-1.1-7.8-1.6-14.4-1.6h-5.8v59.1H985z M858.4,1308.5v40.4
		h15.5c11.2,0,18.6-0.8,22.4-2.2c3.8-1.5,6.7-3.8,8.9-7c2.1-3.2,3.2-6.8,3.2-11c0-5.2-1.5-9.4-4.5-12.8c-3-3.4-6.8-5.5-11.4-6.3
		c-3.4-0.6-10.2-1-20.4-1H858.4z M829.9,1426.2v-141.6h45.6c17.3,0,28.5,0.7,33.8,2.1c8.1,2.1,14.8,6.8,20.3,13.9
		c5.4,7.1,8.2,16.3,8.2,27.6c0,8.7-1.6,16-4.7,21.9c-3.1,5.9-7.1,10.6-11.9,14c-4.8,3.4-9.7,5.6-14.7,6.7c-6.8,1.4-16.6,2-29.5,2
		h-18.5v53.4H829.9z M660.4,1426.2l48.7-73.9l-44.1-67.8h33.2l27.8,42.2l27.8-42.2H787l-44.2,67.8l48.6,73.8h-34.2l-31.2-48
		l-31.3,48H660.4z M519.5,1426.2v-141.6h104.4v23.9h-75.8v31.5h70.5v23.9h-70.5v38.4h78.6v23.9H519.5z"/>
	<path class="st7" d="M1400.2,1463.6h37.1c0.4,1.8,0.5,3.7,0.5,5.5c0,2-0.2,3.9-0.5,5.7h-23.8v14.2h18.9c0.4,1.9,0.5,3.8,0.5,5.6
		c0,1.9-0.2,3.8-0.5,5.7h-18.9v17.3h24.5c0.4,1.8,0.5,3.7,0.5,5.5c0,2-0.2,3.9-0.5,5.7h-37.7V1463.6z M1323.3,1463.6
		c2.7-0.3,5.2-0.6,7.5-0.8s4.9-0.3,7.8-0.3c3.3,0,6.6,0.3,9.9,0.9c3.2,0.6,6.2,1.7,8.8,3.2c2.6,1.5,4.7,3.6,6.3,6.3
		c1.6,2.6,2.4,6,2.4,10c0,2.4-0.3,4.6-0.9,6.4c-0.6,1.8-1.4,3.5-2.3,4.9s-2,2.6-3,3.6c-1.1,1-2.1,1.8-3.1,2.4l-1.5,1l15.9,27.6
		c-1.2,0.1-2.5,0.2-3.8,0.4s-2.7,0.2-4.1,0.2c-2.3,0-4.6-0.2-6.8-0.5l-17.1-30.4l2.2-1.1c0.8-0.4,1.9-1,3.1-1.6
		c1.2-0.7,2.4-1.5,3.5-2.5s2.1-2.2,2.9-3.6c0.8-1.4,1.2-3.1,1.2-5c0-3.8-1.1-6.6-3.3-8.4c-2.2-1.8-5-2.7-8.5-2.7
		c-1.3,0-2.5,0.1-3.6,0.3v55.2c-1.1,0.1-2.2,0.2-3.3,0.3s-2.2,0.1-3.2,0.1s-2.1,0-3.3-0.1c-1.2-0.1-2.3-0.2-3.5-0.4V1463.6z
		 M1252.4,1463.6h37.1c0.4,1.8,0.5,3.7,0.5,5.5c0,2-0.2,3.9-0.5,5.7h-23.8v14.2h18.9c0.4,1.9,0.5,3.8,0.5,5.6c0,1.9-0.2,3.8-0.5,5.7
		h-18.9v17.3h24.4c0.4,1.8,0.5,3.7,0.5,5.5c0,2-0.2,3.9-0.5,5.7h-37.7V1463.6z M1169,1463.6c2.2-0.4,4.5-0.5,6.6-0.5
		c2.2,0,4.4,0.2,6.7,0.5v25.6h21.9v-25.6c2.2-0.4,4.5-0.5,6.6-0.5s4.4,0.2,6.7,0.5v65.4c-2.3,0.4-4.5,0.5-6.6,0.5
		c-2.2,0-4.5-0.2-6.7-0.5v-28.3h-21.9v28.3c-2.3,0.4-4.5,0.5-6.6,0.5c-2.2,0-4.5-0.2-6.7-0.5V1463.6z M1078.7,1463.6h37.1
		c0.4,1.8,0.5,3.7,0.5,5.5c0,2-0.2,3.9-0.5,5.7H1092v14.2h18.9c0.4,1.9,0.5,3.8,0.5,5.6c0,1.9-0.2,3.8-0.5,5.7H1092v17.3h24.4
		c0.4,1.8,0.5,3.7,0.5,5.5c0,2-0.2,3.9-0.5,5.7h-37.7V1463.6z M996,1463.6c1.9-0.4,3.7-0.5,5.4-0.5c1.8,0,3.7,0.2,5.6,0.5l25.3,41.6
		v-41.6c2.2-0.4,4.3-0.5,6.3-0.5c1.9,0,3.7,0.2,5.5,0.5v65.4c-1.9,0.4-3.7,0.5-5.3,0.5c-1.7,0-3.5-0.2-5.5-0.5l-25.4-41.5v41.5
		c-1.9,0.4-3.9,0.5-5.9,0.5s-3.9-0.2-5.8-0.5V1463.6z M947.9,1463.6c2.2-0.4,4.5-0.5,6.6-0.5c2.2,0,4.4,0.2,6.7,0.5v65.4
		c-2.3,0.4-4.5,0.5-6.6,0.5c-2.2,0-4.5-0.2-6.7-0.5V1463.6z M881.1,1463.6c2.2-0.4,4.4-0.5,6.5-0.5c2.1,0,4.3,0.2,6.6,0.5v53.9h22.6
		c0.2,1,0.3,2,0.4,3c0.1,0.9,0.1,1.8,0.1,2.7c0,1,0,1.9-0.1,2.9c-0.1,0.9-0.2,1.9-0.4,3h-35.7V1463.6z M834.2,1495.1
		c2.2-0.4,4.4-0.5,6.5-0.5c2.1,0,4.3,0.2,6.6,0.5v32.1c-3.2,1.2-6.4,1.9-9.9,2.3c-3.4,0.4-6.4,0.6-9,0.6c-5.3,0-10-0.8-14-2.5
		c-4-1.7-7.3-4-10-7c-2.7-3-4.7-6.6-6-10.7c-1.3-4.1-2-8.6-2-13.5s0.7-9.3,2.1-13.5c1.4-4.2,3.4-7.7,6-10.8c2.6-3,5.9-5.4,9.7-7.1
		c3.8-1.7,8.2-2.5,13.1-2.5c2.9,0,5.6,0.2,8.1,0.5c2.5,0.4,5.1,1.1,7.9,2.3c-0.1,1.8-0.5,3.6-1.1,5.3c-0.6,1.7-1.3,3.5-2,5.2
		c-2.1-0.7-4-1.2-5.6-1.5c-1.6-0.3-3.6-0.5-5.8-0.5c-5.8,0-10.3,1.9-13.4,5.7c-3.1,3.8-4.7,9.4-4.7,16.9s1.5,13,4.6,16.7
		c3.1,3.7,7.6,5.5,13.6,5.5c1,0,2-0.1,2.8-0.2c0.8-0.1,1.6-0.2,2.2-0.4V1495.1z M750.5,1504.9l-7.5-27.5l-7.9,27.5H750.5z
		 M736,1463.6c1.3-0.2,2.5-0.3,3.6-0.4c1.2-0.1,2.4-0.1,3.8-0.1c1.2,0,2.4,0,3.5,0.1c1.2,0.1,2.4,0.2,3.8,0.4l20.5,65.4
		c-2.5,0.4-4.9,0.5-7.3,0.5c-2.3,0-4.5-0.2-6.7-0.5l-3.6-13.1H732l-3.7,13.1c-2.2,0.4-4.3,0.5-6.3,0.5c-2.2,0-4.5-0.2-6.6-0.5
		L736,1463.6z M666.3,1474.9H650c-0.4-1.8-0.5-3.7-0.5-5.7c0-1.9,0.2-3.7,0.5-5.5h45.9c0.4,1.8,0.5,3.7,0.5,5.5c0,2-0.2,3.9-0.5,5.7
		h-16.3v54.1c-1.1,0.1-2.2,0.2-3.3,0.3c-1.1,0.1-2.2,0.1-3.2,0.1c-1,0-2.1,0-3.3-0.1c-1.2-0.1-2.4-0.2-3.6-0.4V1474.9z"/>
</g>
</svg>
