<?xml version="1.0" encoding="utf-8"?>
<!-- Generator: Adobe Illustrator 27.7.0, SVG Export Plug-In . SVG Version: 6.00 Build 0)  -->
<svg version="1.1" id="Layer_1" xmlns="http://www.w3.org/2000/svg" xmlns:xlink="http://www.w3.org/1999/xlink" x="0px" y="0px"
	 viewBox="0 0 2000 2000" style="enable-background:new 0 0 2000 2000;" xml:space="preserve">
<style type="text/css">
	.st0{fill:#FFFFFF;}
	.st1{fill:#231F20;}
</style>
<rect class="st0" width="2000" height="2000"/>
<g>
	<g>
		<path class="st1" d="M1640.9,1018.8c0.6-3.2,0.5-6.4-0.2-9.4l-39.1-167.4c-6.8-29-31.7-48-63.1-48h-169.3c-8.2,0-16,6.7-17.5,14.9
			l-40.6,230.2h-26.3l54.3-307.9c1.7-9.6-4.7-17.4-14.3-17.4H621.5c-9.6,0-18.8,7.8-20.5,17.4l-4.7,26.9H466.4
			c-11.5,0-20.9,9.4-20.9,20.9v0c0,11.5,9.4,20.9,20.9,20.9h122.5h48.9h44.7c11.5,0,20.9,9.4,20.9,20.9l0,0
			c0,11.5-9.4,20.9-20.9,20.9h-55.9h-45H379.6c-11.5,0-20.9,9.4-20.9,20.9l0,0c0,11.5,9.4,20.9,20.9,20.9h194.5h26.6
			c11.3,0,21,8.8,21.4,20.1c0.4,11.9-9.1,21.7-20.9,21.7h-34.5H498c-11.3,0-21,8.8-21.4,20.1c-0.4,11.9,9.1,21.7,20.9,21.7h61.9
			h88.3c11.5,0,20.9,9.4,20.9,20.9v0c0,11.5-9.4,20.9-20.9,20.9h-37.2H552H434c-11.3,0-21,8.8-21.4,20.1
			c-0.4,11.9,9.1,21.7,20.9,21.7h111.1h36.6c11.3,0,21,8.8,21.4,20.1c0.4,11.9-9.1,21.7-20.9,21.7h-44.5l-4.2,24h140.3
			c27.3-26.6,63.9-43.4,101.5-43.4c37.6,0,68.3,16.9,86.2,43.4h472.8c27.3-26.6,63.9-43.4,101.5-43.4c37.6,0,68.3,16.9,86.2,43.4
			h101.9L1640.9,1018.8z M1580.6,989.7h-203.3c-3.4,0-5.6-3.2-4.9-7.2l23.5-133.4c0.7-4,4-7.2,7.4-7.2h149.5c2.5,0,4.4,1.7,4.9,4.4
			l30.3,133.4C1588.9,984.4,1585,989.7,1580.6,989.7z"/>
		<path class="st1" d="M768.9,1107.1c-49.3,0-96.6,40.1-105.3,89.5c-8.7,49.3,24.4,89.5,73.7,89.5c49.3,0,96.6-40.1,105.3-89.5
			C851.3,1147.3,818.3,1107.1,768.9,1107.1z M797.1,1196.6c-4.3,24.2-27.5,44-51.7,44c-24.3,0-40.5-19.7-36.2-44
			c4.3-24.2,27.5-44,51.7-44C785.2,1152.6,801.4,1172.4,797.1,1196.6z"/>
		<path class="st1" d="M1429.5,1107.1c-49.3,0-96.6,40.1-105.3,89.5c-8.7,49.3,24.4,89.5,73.7,89.5c49.3,0,96.6-40.1,105.3-89.5
			C1511.9,1147.3,1478.8,1107.1,1429.5,1107.1z M1457.7,1196.6c-4.3,24.2-27.5,44-51.7,44c-24.2,0-40.5-19.7-36.2-44
			c4.3-24.2,27.5-44,51.7-44C1445.7,1152.6,1462,1172.4,1457.7,1196.6z"/>
		<path class="st1" d="M1529.9,1131.6c8.4,18.9,11.3,41.1,7.1,65c-0.1,0.8-0.3,1.7-0.5,2.5h56.9c19.6,0,38.2-15.9,41.7-35.4
			l4.7-26.5c0.5-2.9-1.7-5.6-4.7-5.6H1529.9z"/>
		<path class="st1" d="M876.4,1196.6c-0.1,0.8-0.3,1.7-0.5,2.5h414.2c0.1-0.8,0.3-1.7,0.4-2.5c4.2-23.9,14.9-46.1,30-65H869.3
			C877.7,1150.5,880.6,1172.8,876.4,1196.6z"/>
		<path class="st1" d="M524.8,1163.7c-3.5,19.6,9.6,35.4,29.2,35.4h75.6c0.1-0.8,0.3-1.7,0.4-2.5c4.2-23.9,14.9-46.1,30-65H530.4
			L524.8,1163.7z"/>
	</g>
	<g>
		<polygon class="st0" points="785.5,864.6 833.6,864.6 837.7,841 789.6,841 794.7,811.6 847.6,811.6 851.7,787.9 768.7,787.9 
			746.7,915.5 776.6,915.5 		"/>
		<path class="st0" d="M985.2,915.5V914l-17.2-51.1c8.4-3.5,15-8.3,19.6-14.3c4.7-6,7.3-13.7,8-22.9c0.8-11.7-2.7-20.9-10.5-27.6
			c-7.8-6.7-18.9-10.1-33.3-10.1l-45-0.1l-22.1,127.6h30l7.9-45.1h16.7l14,45.1H985.2z M926.6,846.7l6.1-35.1l20.3,0.1
			c7.1,0.4,11.3,3.8,12.4,10.3c0.6,3.8,0.2,7.7-1.3,11.8c-1.5,4.1-4,7.3-7.6,9.6c-3.5,2.3-7.7,3.5-12.5,3.5L926.6,846.7z"/>
		<polygon class="st0" points="1125.8,891.8 1070.3,891.8 1075.6,861.3 1122.5,861.3 1126.5,838.5 1079.5,838.5 1084.2,811.6 
			1139.8,811.6 1143.9,787.9 1058.3,787.9 1036.2,915.5 1121.6,915.5 		"/>
		<polygon class="st0" points="1282.1,811.6 1286.3,787.9 1200.6,787.9 1178.6,915.5 1264,915.5 1268.1,891.8 1212.6,891.8 
			1218,861.3 1264.9,861.3 1268.8,838.5 1221.8,838.5 1226.6,811.6 		"/>
		<path class="st0" d="M782.7,946.4c-5.1-3.5-11.1-5.3-18-5.3l-23.3-0.1l-15.6,89.5h24.3c11.7,0,21.5-3.8,29.6-11.4
			c8-7.6,13-17.6,14.9-30l1.1-7.4c0.9-7.5,0.3-14.4-2-20.6C791.5,954.8,787.8,949.9,782.7,946.4z M788.7,976.3
			c-0.1,2.5-0.6,7-1.7,13.6c-1,6.6-3.3,12.5-6.6,17.7c-3.4,5.2-7.7,9.3-12.8,12.1c-5.2,2.9-10.9,4.3-17.2,4.3l-16-0.1l13.3-76.7
			l17.3,0.1c6.4,0.2,11.7,2.2,15.7,6c4.1,3.9,6.6,9.1,7.5,15.6C788.6,971.4,788.8,973.8,788.7,976.3z"/>
		<polygon class="st0" points="873.5,947.4 874.7,941 820.7,941 805.2,1030.5 859.4,1030.5 860.5,1024.1 813.8,1024.1 820.2,987.6 
			860.8,987.6 861.9,981.2 821.2,981.2 827.1,947.4 		"/>
		<polygon class="st0" points="897.1,941 889.6,941 874,1030.5 924.5,1030.5 925.6,1024.1 882.7,1024.1 		"/>
		<polygon class="st0" points="939.3,1030.5 946.8,1030.5 962.4,941 954.9,941 		"/>
		<polygon class="st0" points="1038.7,941 999.1,1019.4 998.2,1021.3 998.1,1019.4 982.9,941 975.3,941 993.6,1030.5 1000.8,1030.5 
			1047.1,941 		"/>
		<polygon class="st0" points="1112.6,947.4 1113.8,941 1059.8,941 1044.3,1030.5 1098.5,1030.5 1099.6,1024.1 1052.9,1024.1 
			1059.3,987.6 1099.9,987.6 1101,981.2 1060.3,981.2 1066.2,947.4 		"/>
		<path class="st0" d="M1155,941l-26.5-0.1l-15.6,89.5h7.6l6.5-37.3h25.3l14.4,37.3h8l0.1-0.9l-15.2-37.8c6.4-2,11.6-5.1,15.5-9.5
			c3.9-4.3,6.1-9.5,6.7-15.5c0.8-7.9-1.3-14.2-6.1-18.8C1170.8,943.4,1163.9,941,1155,941z M1174.2,966.8
			c-0.7,5.9-3.3,10.8-7.8,14.5c-4.5,3.7-9.9,5.6-16.2,5.6l-22.1-0.1l6.8-39.3l21.1,0.1c6.3,0.2,11.1,2,14.3,5.5
			C1173.7,956.5,1174.9,961.1,1174.2,966.8z"/>
		<polygon class="st0" points="1219.4,989.7 1201.7,941 1193.3,941 1214.8,996.4 1208.8,1030.5 1216.3,1030.5 1222.1,997.2 
			1263.5,941 1254.4,941 		"/>
	</g>
</g>
</svg>
