<?xml version="1.0" encoding="utf-8"?>
<!-- Generator: Adobe Illustrator 27.7.0, SVG Export Plug-In . SVG Version: 6.00 Build 0)  -->
<svg version="1.1" id="Layer_1" xmlns="http://www.w3.org/2000/svg" xmlns:xlink="http://www.w3.org/1999/xlink" x="0px" y="0px"
	 viewBox="0 0 3000 2000" style="enable-background:new 0 0 3000 2000;" xml:space="preserve">
<style type="text/css">
	.st0{fill:#FFFFFF;}
	.st1{fill:#F68129;}
	.st2{fill:#352628;}
	.st3{fill:#222D36;}
</style>
<g>
	<rect y="0" class="st0" width="3000" height="2000"/>
	<g>
		<g>
			<polygon class="st1" points="1097.3,630.6 1466.9,441.9 1939.3,677.7 1939.3,945.4 1468.9,1172.4 1097.3,982.7 			"/>
			<path class="st2" d="M1900,627.3l-22.1-10.8l-17.9-8.7l-0.2-0.1l-13.6-6.6l-13.6-6.6l-0.2-0.1l-28.8-14l-0.3-0.1l-34.9-16.9
				l-0.4-0.2l-29-14.1l-0.3-0.1l-34.2-16.6l-0.1-0.1l-44.1-21.4l-0.3-0.1l-13.3-6.5l-24-11.7l-0.5-0.2l-43.9-21.3l-0.3-0.2l-38-18.5
				l-0.1,0l-52.4-25.5l-0.1,0l-12.4-6l-7.7-3.8l0,0l-0.1,0l-0.1,0l-0.3,0l-18.5,8.9v0.3l-150.5,74.2l-0.1,0.1l-0.4,0.2v-0.3
				l-45,22.4v0.2l-179,87.8v391.6l179,89.2v0.1l0,0.1l45,22.6v-0.2l0.4,0.2l0.1,0.1l150.5,75.3v0.2l0.5,0.1l20.3,10l0.1,0l0.1,0
				l18.1-8.6l0.1,0l52.4-24.9l0.1,0l38-18.1l0.3-0.2l43.9-20.9l0.5-0.2l37.3-17.8l0.3-0.1l44.1-21l0.1-0.1l34.2-16.3l0.3-0.1
				l29-13.8l0.4-0.2l34.9-16.6l0.3-0.1l28.8-13.7l0.3-0.1l27.2-12.9l0.3-0.1l17.9-8.5l22-10.6l61.3-29.3V657.2L1900,627.3z
				 M1118.3,974.3V639.1l134-65.5v467.2L1118.3,974.3z M1297.8,1063.7L1297.8,1063.7l-0.5-0.3v-512l0.4-0.2l0.1-0.1l150.5-74.2
				v662.2L1297.8,1063.7z M1487.6,1141.3l-0.2,0.2V477.1l0.2,0.2l-0.1,0l51.8,25.2v614L1487.6,1141.3L1487.6,1141.3z M1578.2,1098.2
				L1578.2,1098.2l0.1-577l-0.1,0.1l0.3,0.2l43.8,21.3v534.4l-43.8,20.9L1578.2,1098.2z M1659.9,1059.2l-0.6,0.2V560.9l0.6,0.2
				l0.5,0.1l43.9,21.2v455.9l-43.9,20.8L1659.9,1059.2z M1738.9,1021.7l-0.2,0.1l-0.4,0.2V599.2l0.5,0.2l0.1,0.1l28.4,13.8v394.7
				L1738.9,1021.7z M1803.7,991l-0.1,0.1l-0.3,0.2V630.5l0.3,0.2l0.2,0.1l28.5,13.8v332.7L1803.7,991z M1859.9,964.1l-0.2,0.1
				l-0.4,0.2V658l0.5,0.2l0.2,0.1l17.3,8.5v289L1859.9,964.1z M1916.3,937.4L1900,945l-0.7,0.1V677.7l0.7,0.1l16.3,7.8V937.4z"/>
			<rect x="1145.5" y="790.2" class="st3" width="84.8" height="42.4"/>
			<rect x="1321.1" y="790.2" class="st3" width="84.8" height="42.4"/>
		</g>
		<g>
			<path class="st3" d="M899.6,1458.8h-69.1v-145.3h67.5c29.7,0,48,14.7,48,37.6v0.4c0,16.4-8.7,25.5-19.1,31.3
				c16.8,6.4,27.2,16.2,27.2,35.7v0.4C954,1445.5,932.4,1458.8,899.6,1458.8z M914.1,1356.4c0-9.5-7.5-14.9-21-14.9h-31.6v30.7h29.5
				c14.1,0,23-4.6,23-15.4V1356.4z M922.2,1414.6c0-9.8-7.3-15.8-23.7-15.8h-37v32h38c14.1,0,22.6-5,22.6-15.8V1414.6z"/>
			<path class="st3" d="M1082.5,1461.1c-39,0-62.9-21.8-62.9-64.6v-83h32v82.2c0,23.7,11.8,35.9,31.3,35.9
				c19.5,0,31.3-11.8,31.3-34.9v-83.3h32v82C1146.2,1439.5,1121.5,1461.1,1082.5,1461.1z"/>
			<path class="st3" d="M1272,1460.9c-22,0-44.2-7.7-61.7-23.3l18.9-22.6c13.1,10.8,26.8,17.6,43.4,17.6c13.1,0,21-5.2,21-13.7v-0.4
				c0-8.1-5-12.2-29.3-18.5c-29.3-7.5-48.2-15.6-48.2-44.4v-0.4c0-26.4,21.2-43.8,50.9-43.8c21.2,0,39.2,6.6,54,18.5l-16.6,24.1
				c-12.9-8.9-25.5-14.3-37.8-14.3c-12.2,0-18.7,5.6-18.7,12.7v0.4c0,9.6,6.2,12.7,31.3,19.1c29.5,7.7,46.1,18.3,46.1,43.6v0.4
				C1325.4,1444.7,1303.4,1460.9,1272,1460.9z"/>
			<path class="st3" d="M1396.2,1458.8v-145.3h32v145.3H1396.2z"/>
			<path class="st3" d="M1608,1458.8l-70.4-92.4v92.4H1506v-145.3h29.5l68.1,89.5v-89.5h31.6v145.3H1608z"/>
			<path class="st3" d="M1711.6,1458.8v-145.3h109.6v28.4h-77.9v29.5h68.5v28.4h-68.5v30.5h78.9v28.4H1711.6z"/>
			<path class="st3" d="M1943.9,1460.9c-22,0-44.2-7.7-61.7-23.3l18.9-22.6c13.1,10.8,26.8,17.6,43.4,17.6c13.1,0,21-5.2,21-13.7
				v-0.4c0-8.1-5-12.2-29.3-18.5c-29.3-7.5-48.2-15.6-48.2-44.4v-0.4c0-26.4,21.2-43.8,50.9-43.8c21.2,0,39.2,6.6,54,18.5
				l-16.6,24.1c-12.9-8.9-25.5-14.3-37.8-14.3c-12.2,0-18.7,5.6-18.7,12.7v0.4c0,9.6,6.2,12.7,31.3,19.1
				c29.5,7.7,46.1,18.3,46.1,43.6v0.4C1997.2,1444.7,1975.2,1460.9,1943.9,1460.9z"/>
			<path class="st3" d="M2116.2,1460.9c-22,0-44.2-7.7-61.7-23.3l18.9-22.6c13.1,10.8,26.8,17.6,43.4,17.6c13.1,0,21-5.2,21-13.7
				v-0.4c0-8.1-5-12.2-29.3-18.5c-29.3-7.5-48.2-15.6-48.2-44.4v-0.4c0-26.4,21.2-43.8,50.9-43.8c21.2,0,39.2,6.6,54,18.5
				l-16.6,24.1c-12.9-8.9-25.5-14.3-37.8-14.3s-18.7,5.6-18.7,12.7v0.4c0,9.6,6.2,12.7,31.3,19.1c29.5,7.7,46.1,18.3,46.1,43.6v0.4
				C2169.6,1444.7,2147.5,1460.9,2116.2,1460.9z"/>
		</g>
		<g>
			<path class="st1" d="M896.6,1544.8v37.3h-10.3v-37.3h-14.2v-9.5h38.8v9.5H896.6z"/>
			<path class="st1" d="M981,1582.1l-4.3-10.5h-19.8l-4.3,10.5h-10.5l20.1-47.1h9.5l20.1,47.1H981z M966.8,1547.4l-6.2,15.2H973
				L966.8,1547.4z"/>
			<path class="st1" d="M1051.9,1582.9c-14.6,0-24.6-10.2-24.6-24.1v-0.1c0-13.3,10.4-24.2,24.5-24.2c8.4,0,13.5,2.3,18.4,6.4
				l-6.5,7.8c-3.6-3-6.8-4.7-12.2-4.7c-7.5,0-13.4,6.6-13.4,14.6v0.1c0,8.6,5.9,14.8,14.2,14.8c3.7,0,7.1-0.9,9.7-2.8v-6.7h-10.4
				v-8.9h20.3v20.3C1067.1,1579.6,1060.5,1582.9,1051.9,1582.9z"/>
			<path class="st1" d="M1115.2,1582.1v-46.8h10.3v37.4h23.3v9.4H1115.2z"/>
			<path class="st1" d="M1190.5,1582.1v-46.8h10.3v46.8H1190.5z"/>
			<path class="st1" d="M1278.7,1582.1l-22.7-29.7v29.7h-10.2v-46.8h9.5l21.9,28.8v-28.8h10.2v46.8H1278.7z"/>
			<path class="st1" d="M1332.2,1582.1v-46.8h35.3v9.2h-25.1v9.5h22.1v9.2h-22.1v9.8h25.4v9.2H1332.2z"/>
			<path class="st1" d="M1486.4,1582.9c-14.6,0-24.6-10.2-24.6-24.1v-0.1c0-13.3,10.4-24.2,24.5-24.2c8.4,0,13.5,2.3,18.4,6.4
				l-6.5,7.8c-3.6-3-6.8-4.7-12.2-4.7c-7.5,0-13.4,6.6-13.4,14.6v0.1c0,8.6,5.9,14.8,14.2,14.8c3.7,0,7.1-0.9,9.7-2.8v-6.7H1486
				v-8.9h20.3v20.3C1501.6,1579.6,1494.9,1582.9,1486.4,1582.9z"/>
			<path class="st1" d="M1572.4,1582.9c-14.4,0-24.8-10.8-24.8-24.1v-0.1c0-13.3,10.5-24.2,24.9-24.2s24.8,10.8,24.8,24.1v0.1
				C1597.4,1572,1586.9,1582.9,1572.4,1582.9z M1586.6,1558.7c0-8-5.9-14.7-14.2-14.7c-8.3,0-14,6.6-14,14.6v0.1
				c0,8,5.9,14.7,14.2,14.7s14-6.6,14-14.6V1558.7z"/>
			<path class="st1" d="M1639.9,1582.1v-46.8h35.3v9.2h-25.1v9.5h22.1v9.2h-22.1v9.8h25.4v9.2H1639.9z"/>
			<path class="st1" d="M1734.8,1582.8c-7.1,0-14.2-2.5-19.9-7.5l6.1-7.3c4.2,3.5,8.6,5.7,14,5.7c4.2,0,6.8-1.7,6.8-4.4v-0.1
				c0-2.6-1.6-3.9-9.4-5.9c-9.4-2.4-15.5-5-15.5-14.3v-0.1c0-8.5,6.8-14.1,16.4-14.1c6.8,0,12.6,2.1,17.4,5.9l-5.3,7.8
				c-4.1-2.9-8.2-4.6-12.2-4.6c-3.9,0-6,1.8-6,4.1v0.1c0,3.1,2,4.1,10.1,6.1c9.5,2.5,14.8,5.9,14.8,14v0.1
				C1752,1577.6,1744.9,1582.8,1734.8,1582.8z"/>
			<path class="st1" d="M1877.1,1582.1v-18.8h-19v18.8h-10.3v-46.8h10.3v18.5h19v-18.5h10.3v46.8H1877.1z"/>
			<path class="st1" d="M1932.1,1582.1v-46.8h35.3v9.2h-25.1v9.5h22.1v9.2h-22.1v9.8h25.4v9.2H1932.1z"/>
			<path class="st1" d="M2038.7,1582.1l-10-15h-8.1v15h-10.3v-46.8h21.4c11,0,17.6,5.8,17.6,15.4v0.1c0,7.6-4.1,12.3-10,14.5
				l11.4,16.7H2038.7z M2038.9,1551.3c0-4.4-3.1-6.7-8.1-6.7h-10.2v13.4h10.4c5,0,7.9-2.7,7.9-6.6V1551.3z"/>
			<path class="st1" d="M2092,1582.1v-46.8h35.3v9.2h-25.1v9.5h22.1v9.2h-22.1v9.8h25.4v9.2H2092z"/>
		</g>
	</g>
</g>
</svg>
