<?xml version="1.0" encoding="UTF-8"?>
<svg id="woopeer" data-name="woopeer" xmlns="http://www.w3.org/2000/svg" viewBox="0 0 440 100">
  <path d="m420.5,16c-15.71,0-28.5,12.79-28.5,28.5v41.5h2v-41.5c0-14.61,11.89-26.5,26.5-26.5.08,0,.17,0,.25,0v-2c-.08,0-.17,0-.25,0Z"/>
  <path d="m361.5,16c-15.71,0-28.5,12.79-28.5,28.5s12.79,28.5,28.5,28.5v-2c-14.11,0-25.67-11.08-26.45-25h54.91c.03-.5.04-1,.04-1.5,0-15.71-12.79-28.5-28.5-28.5Zm-26.49,28c.27-14.38,12.04-26,26.49-26s26.22,11.62,26.49,26h-52.97Z"/>
  <path d="m302.5,16c-15.71,0-28.5,12.79-28.5,28.5s12.79,28.5,28.5,28.5v-2c-14.11,0-25.67-11.08-26.45-25h54.91c.03-.5.04-1,.04-1.5,0-15.71-12.79-28.5-28.5-28.5Zm-26.49,28c.27-14.38,12.04-26,26.49-26s26.22,11.62,26.49,26h-52.97Z"/>
  <path d="m243.5,15c-15.55,0-28.22,12.52-28.49,28h-.01v43h2v-32.03c4.18,10.55,14.48,18.03,26.5,18.03,15.71,0,28.5-12.79,28.5-28.5s-12.79-28.5-28.5-28.5Zm0,55c-14.61,0-26.5-11.89-26.5-26.5s11.89-26.5,26.5-26.5,26.5,11.89,26.5,26.5-11.89,26.5-26.5,26.5Z"/>
  <path d="m184.5,16c-15.71,0-28.5,12.79-28.5,28.5s12.79,28.5,28.5,28.5,28.5-12.79,28.5-28.5-12.79-28.5-28.5-28.5Zm0,55c-14.61,0-26.5-11.89-26.5-26.5s11.89-26.5,26.5-26.5,26.5,11.89,26.5,26.5-11.89,26.5-26.5,26.5Z"/>
  <path d="m125.5,16c-15.71,0-28.5,12.79-28.5,28.5s12.79,28.5,28.5,28.5,28.5-12.79,28.5-28.5-12.79-28.5-28.5-28.5Zm0,55c-14.61,0-26.5-11.89-26.5-26.5s11.89-26.5,26.5-26.5,26.5,11.89,26.5,26.5-11.89,26.5-26.5,26.5Z"/>
  <polygon points="97 16 77 68 57 16 37 68 17 16 15 16 36.98 73 57 21 77 73 99 16 97 16"/>
</svg>