<?xml version="1.0" encoding="UTF-8"?>
<svg id="woopeer" data-name="woopeer_logo" xmlns="http://www.w3.org/2000/svg" xmlns:xlink="http://www.w3.org/1999/xlink" viewBox="0 0 440 100">
  <defs>
    <style>
      .cls-1 {
        fill: url(#_woopeer_21-7);
      }

      .cls-2 {
        fill: url(#_woopeer_21-6);
      }

      .cls-3 {
        fill: url(#_woopeer_21-5);
      }

      .cls-4 {
        fill: url(#_woopeer_21-4);
      }

      .cls-5 {
        fill: url(#_woopeer_21-3);
      }

      .cls-6 {
        fill: url(#_woopeer_21-2);
      }

      .cls-7 {
        filter: url(#drop-shadow-2);
      }

      .cls-8 {
        fill: url(#_woopeer_21);
      }
    </style>
    <filter id="drop-shadow-2" filterUnits="userSpaceOnUse">
      <feOffset dx="4" dy="4"/>
      <feGaussianBlur result="blur" stdDeviation="2"/>
      <feFlood flood-color="#c8c8c8" flood-opacity="1"/>
      <feComposite in2="blur" operator="in"/>
      <feComposite in="SourceGraphic"/>
    </filter>
    <linearGradient id="_woopeer_21" data-name="woopeer 21" x1="392" y1="51" x2="420.75" y2="51" gradientUnits="userSpaceOnUse">
      <stop offset="0" stop-color="#646464"/>
      <stop offset=".5" stop-color="#c8c8c8"/>
      <stop offset="1" stop-color="#646464"/>
    </linearGradient>
    <linearGradient id="_woopeer_21-2" data-name="woopeer 21" x1="333" y1="44.5" x2="390" y2="44.5" xlink:href="#_woopeer_21"/>
    <linearGradient id="_woopeer_21-3" data-name="woopeer 21" x1="274" y1="44.5" x2="331" y2="44.5" xlink:href="#_woopeer_21"/>
    <linearGradient id="_woopeer_21-4" data-name="woopeer 21" x1="215" y1="50.5" x2="272" y2="50.5" xlink:href="#_woopeer_21"/>
    <linearGradient id="_woopeer_21-5" data-name="woopeer 21" x1="156" y1="44.5" x2="213" y2="44.5" xlink:href="#_woopeer_21"/>
    <linearGradient id="_woopeer_21-6" data-name="woopeer 21" x1="97" y1="44.5" x2="154" y2="44.5" xlink:href="#_woopeer_21"/>
    <linearGradient id="_woopeer_21-7" data-name="woopeer 21" x1="15" y1="44.5" x2="99" y2="44.5" xlink:href="#_woopeer_21"/>
  </defs>
  <g class="cls-7">
    <path class="cls-8" d="m420.5,16c-15.71,0-28.5,12.79-28.5,28.5v41.5h2v-41.5c0-14.61,11.89-26.5,26.5-26.5.08,0,.17,0,.25,0v-2c-.08,0-.17,0-.25,0Z"/>
    <path class="cls-6" d="m361.5,16c-15.71,0-28.5,12.79-28.5,28.5s12.79,28.5,28.5,28.5v-2c-14.11,0-25.67-11.08-26.45-25h54.91c.03-.5.04-1,.04-1.5,0-15.71-12.79-28.5-28.5-28.5Zm-26.49,28c.27-14.38,12.04-26,26.49-26s26.22,11.62,26.49,26h-52.97Z"/>
    <path class="cls-5" d="m302.5,16c-15.71,0-28.5,12.79-28.5,28.5s12.79,28.5,28.5,28.5v-2c-14.11,0-25.67-11.08-26.45-25h54.91c.03-.5.04-1,.04-1.5,0-15.71-12.79-28.5-28.5-28.5Zm-26.49,28c.27-14.38,12.04-26,26.49-26s26.22,11.62,26.49,26h-52.97Z"/>
    <path class="cls-4" d="m243.5,15c-15.55,0-28.22,12.52-28.49,28h-.01v43h2v-32.03c4.18,10.55,14.48,18.03,26.5,18.03,15.71,0,28.5-12.79,28.5-28.5s-12.79-28.5-28.5-28.5Zm0,55c-14.61,0-26.5-11.89-26.5-26.5s11.89-26.5,26.5-26.5,26.5,11.89,26.5,26.5-11.89,26.5-26.5,26.5Z"/>
    <path class="cls-3" d="m184.5,16c-15.71,0-28.5,12.79-28.5,28.5s12.79,28.5,28.5,28.5,28.5-12.79,28.5-28.5-12.79-28.5-28.5-28.5Zm0,55c-14.61,0-26.5-11.89-26.5-26.5s11.89-26.5,26.5-26.5,26.5,11.89,26.5,26.5-11.89,26.5-26.5,26.5Z"/>
    <path class="cls-2" d="m125.5,16c-15.71,0-28.5,12.79-28.5,28.5s12.79,28.5,28.5,28.5,28.5-12.79,28.5-28.5-12.79-28.5-28.5-28.5Zm0,55c-14.61,0-26.5-11.89-26.5-26.5s11.89-26.5,26.5-26.5,26.5,11.89,26.5,26.5-11.89,26.5-26.5,26.5Z"/>
    <polygon class="cls-1" points="97 16 77 68 57 16 37 68 17 16 15 16 36.98 73 57 21 77 73 99 16 97 16"/>
  </g>
</svg>