<?xml version="1.0" encoding="UTF-8"?>
<svg id="_レイヤー_2" data-name="レイヤー 2" xmlns="http://www.w3.org/2000/svg" viewBox="0 0 177.3 72.45">
  <defs>
    <style>
      .cls-1 {
        fill: #bbc1c7;
      }
    </style>
  </defs>
  <g id="_01" data-name="01">
    <path class="cls-1" d="m145.84,4.73l-.44-.17c-7.98-3.09-15.52-6.01-28.68-3.77-5.52.94-10.81,2.75-16.18,5.52-4.53,2.34-8.14,4.86-11.04,6.89-.4.28-.78.55-1.15.8-3.03,2.1-8.38,7.18-13.63,12.95-6.44,7.08-12.09,14.47-15.94,20.82-.04,0-.08,0-.13,0-.12-.01-.21.08-.24.11-.02.02-.03.02-.04.02,0,0,0,0,0,0,0,0,0,0,0,0,0,0,0,0,0,0,0,0,0,0,0,0,0,0,0,0,0,0,0,0-.01.01-.02.02-.04.06-.37.47-.43.54,0,0,0,0,0,0,0,0,0,0-.01,0,0,0,0,0,0,0,0,0,0,0,0,0-.01,0-.02,0-.04,0h0s-.03.01-.05.03c-.04.04-.27.22-.41.32-.14.1-.24.14-.26.13-.03,0-.11,0-.22.03-.12.03-.16.1-.17.13,0,.03-.02.05-.06.06-.04.01-.08.05-.12.1-.04.06-.09.06-.12.06s-.18.04-.34.14c-.16.1-.36.17-.57.22-.21.05-.52.08-.69.14-.17.06-.61.35-.81.54-.2.18-.5.43-.76.77-.26.34-.5.53-.69.69-.19.15-.44.33-.65.5-.22.17-.55.24-.7.26-.15.02-.35-.01-.54.06-.07.03-.18.04-.31.05-1.06-.24-4.43-.18-4.89-.08-1.11.23-.92.23-1.66-.25-.74-.48-1.13-.44-1.66-.32-.53.12-.55-.16-.85-.48-.3-.32-1.89-.78-2.93-.81-1.04-.02-1.13-.21-1.27-.48-.14-.28-.28-.97-1.29-1.38-1.01-.42-1.54-.65-1.91-1.82-.37-1.18-1.54-1.87-2.37-2.08-.83-.21-1.23-.63-1.58-1.06-.35-.43-1.01-.75-1.89-1.52-.88-.77-2.63-3.13-3.21-3.81-.58-.68-2.04-1.81-2.78-2.09-.74-.28-1.6-.91-1.81-1.41,1.74.29,2.75-.09,3.46-.23s.41-1.38.22-1.75c-.2-.37-.09-.89.18-1.06.28-.17.42-.72.08-1.27.64-.18.35-.85.21-1.47-.14-.63.24-.67.98-.75.61-.07.33-.82,0-1.15-.34-.34-.68-.94-1.2-1.43-.66-.61-.79-1-.88-1.64,3.02-.51,3.82-1.98,3.92-2.35s.44-.83-2.7-.9c-3.13-.07-3.5-.65-4.1-1.15-.6-.51-3.27-2.37-5.48-2.67-2.21-.3-6.52.25-8.36,4.63-1.84,4.38-.64,6.75-.35,7.44.3.69.51.6.67.51.32.62.62,1.41,1.5,2.23-1.5,0-3.06.28-4.26.55-1.2.28-2.68,1.55-2.83,2.9-.15,1.35-.86,4.3-1.2,5.99s.65,2.86,1.17,3.53c.52.68,1.47,1.38,2.52,1.75-.28,1.44-.46,3.5-.92,5.41-.46,1.9-.4,7.59-.15,9.74.24,2.14,2.68,8.03,3.7,10.44h38.03l5.91-8.99c.2-.01.42-.02.64-.02.94-.02,1.83.06,2.32.11.08,0,.19.02.31.04.14.02.28.04.41.06.01,0,.03,0,.04,0,.04,0,.07.01.11.02.07.02.14.03.22.04.26.04.5.07.75.1.23.03.43.06.58.07.21.02.4.04.57.06.02,0,.04.02.05.02.22.02.43.04.65.08.14.03.26.05.41.07.19.02.36-.01.55-.02.15-.02.29-.05.43-.07.32-.07.64-.13.96-.22.14-.05.27-.07.41-.11.17-.05.33-.1.51-.17.07-.03.14-.07.21-.09.03,0,.08-.01.12,0,.09,0,.21-.03.32-.07.04,0,.09-.02.13-.03.07-.02.16,0,.24-.01.12-.03.24-.07.36-.11.11-.03.25-.05.44-.07.1,0,.2-.01.29-.04.17-.03.26-.09.35-.17.15-.1.27-.23.38-.38.01-.02.02-.04.03-.07,0,0,0-.02.01-.02,0,0,0,0,0-.01,0,0,0,0,0,0,.01-.03.02-.06.03-.1.01-.07,0-.14,0-.21-.03-.16-.11-.29-.26-.39.16,0,.31-.02.44-.06,0,0,.01,0,.02,0,.01,0,.03,0,.04-.02,0,0,.02,0,.03-.01.07-.03.13-.06.19-.09.18-.1.37-.21.46-.41.08-.19.08-.39.05-.58-.02-.1-.06-.2-.14-.26,0,0,0,0-.01-.01-.09-.07-.21-.11-.31-.16,0,0,0,0,.02,0,.17-.04.35-.11.5-.21,0,0,.01,0,.02-.01,0,0,.02-.01.03-.02h0s0,0,0,0c.03-.02.06-.05.09-.08,0,0,0-.01.01-.02,0,0,0,0,.01-.01.05-.06.09-.14.12-.23,0,0,0,0,0-.01,0,0,0-.02,0-.03.03-.15.03-.32.01-.46-.01-.08-.03-.16-.07-.23,0,0,0,0,0,0,0,0-.01-.02-.02-.03,0,0,0-.01-.01-.02,0,0,0,0-.01-.01,0-.01-.01-.02-.02-.03h0c-.07-.08-.15-.13-.23-.2-.01-.01-.02-.02-.03-.03,0,0,0,0,0,0,0,0,0,0,.01-.01,0,0,.02-.02.02-.02,0,0,0,0,0,0,0,0,0,0,0,0,0,0,.02-.02.02-.03,0,0,0,0,0,0,0,0,0,0,0,0,0,0,.01-.01.02-.02,0,0,0,0,0-.01,0,0,0,0,0,0,0,0,0,0,0,0,0,0,0-.01.01-.02,0,0,0,0,0-.01,0,0,.01-.02.02-.03,0,0,0,0,0-.01,0-.01.01-.02.01-.03,0,0,0,0,0,0,0,0,0,0,0,0,0,0,0,0,0,0,0-.01,0-.02.01-.03,0,0,0,0,0-.01,0,0,0-.01,0-.02,0,0,0-.01,0-.02,0,0,0,0,0-.01,0,0,0,0,0,0,0,0,0-.01,0-.02,0,0,0,0,0,0,0,0,0-.01,0-.02,0-.01,0-.02,0-.03,0,0,0,0,0,0,0,0,0,0,0-.01,0-.01,0-.02,0-.03,0,0,0-.01,0-.02h0s0,0,0,0c0,0,0-.02,0-.02,0,0,0-.01,0-.02,0,0,0-.02,0-.03,0,0,0-.01,0-.02,0,0,0-.02,0-.03,0,0,0-.02,0-.02v-.02s0-.03,0-.05c0-.05-.02-.11-.04-.17,0-.02-.02-.05-.02-.07-.08-.2-.2-.4-.33-.57-.03-.04-.05-.07-.08-.11-.01-.02-.03-.03-.04-.05,0,0,0,0,0,0h0s-.08-.08-.12-.12c-.08-.07-.16-.13-.26-.18-.03-.01-.04-.02-.04-.02l.64-1.19c.16.1.39.04.5-.04.12-.08.31-.21.38-.38.03-.08.19-.52.28-.74-.09-.08-.09-.11-.06-.25l.14.06.83-1.39-.08-.07.05-.14c.42.2.86.36,1.28.56.05.02.1.04.15.06.1.04.21.07.32.1.02,0,.03,0,.05-.01.01,0,.02-.01.03-.02,0,0,0,0,0,0,0-.01.01-.02.01-.04,0,0,0,0,0,0,0-.03,0-.07-.05-.12,0,0,0,0,0,0t0,0s-.06-.05-.11-.08c-.04-.03-.08-.05-.12-.07,0,0-.01,0-.02,0l5.34-15.78c.14.09.33.08.46-.05l.04-.04c.14-.14.14-.37,0-.51h-.01s13.07-14.69,13.07-14.69c.12.1.3.1.42-.01l.04-.04c.11-.11.12-.28.03-.4l14.43-10.88.04-.02.09.15c.08.12.24.16.36.08l.04-.02c.12-.08.16-.24.08-.36l-.04-.06,14.36-5.72.02.09c.03.14.17.23.31.2h.04c.14-.04.23-.18.2-.32v-.04s14.23-1.17,14.23-1.17v.05c-.01.13.09.24.22.25h.04c.12,0,.22-.07.24-.18l13.61,3.15v.03c-.03.11.05.22.16.24h.03c.05.02.1,0,.14-.02l31.58,65.84h.1L145.69,6.54s.03-.05.03-.08l.24-1.22s0-.05,0-.08c.02-.02.03-.04.04-.07.06-.14-.02-.3-.16-.36ZM41.39,72.23c-.03-.09-.04-.17-.04-.18-.03-.15-.68-1.47-1.08-1.93-.4-.46-1.44-1.72-2-2.46-.55-.74-.74-1.29-.74-1.29,0,0-.43-.74.42-.71.85.03,2.19-.15,2.83-.4.6-.23,5.18-.95,5.87-1.06l-5.28,8.03Zm19.08-15.71s-.05,0-.07,0c-.06,0-.11.01-.17.02-.02,0-.05,0-.07,0-.06,0-.12.01-.18.02-.11.01-.21.03-.32.05-.15.03-.29.06-.43.1-.17.04-.32.08-.39.1-.03,0-.05.01-.08.02-.13.03-.34.07-.55.11-.05,0-.11.02-.16.03-.08.02-.17.04-.25.07-.01,0-.02,0-.03.01-.04.02-.08.03-.12.05-.32.18-.63.36-.92.58-.1.07-.19.14-.24.19-.06.05-.12.11-.18.17-.03.03-.07.06-.1.1-.16.15-.32.29-.43.34-.01,0-.03.01-.05.02-.06.03-.11.06-.16.08-.05.02-.1.05-.15.07,0,0-.02,0-.03,0l-.03.02c-.05.02-.1.04-.15.05-.21.05-.43.03-.64.07-.02,0-.05.01-.07.02-.03,0-.06.02-.09.04-.2.1-.31.19-.61.14-.11-.02-.3-.05-.48-.08l1.68-2.55c.09-.02.21-.04.3-.03.12.01.3.03.45-.02.15-.05.34-.07.42-.07.08,0,.16.02.26-.03.09-.05.24-.08.33-.09.09,0,.34-.02.39-.05,0,0,0,0,0,0,0,0,0,0,0,0,.06-.04.14-.17.24-.25.05-.04.11-.08.17-.12.01,0,.02-.01.03-.02,0,0,0,0,.01,0,.01,0,.02-.01.03-.02,0,0,.01,0,.02,0,.01,0,.02-.01.04-.02,0,0,0,0,.01,0,.02,0,.03-.02.05-.02.12-.06.3-.24.38-.39.08-.15.1-.35.1-.41,0-.06-.03-.11-.08-.16.19-.09.3-.22.38-.32.08-.1.2-.38.22-.54.02-.16-.02-.31-.11-.38.24-.03.5-.09.6-.13.1-.04.27-.2.32-.25.05-.05.1-.27.11-.4,0,0,0-.02,0-.03h0v-.03s0,0,0-.01c0,0,0-.01,0-.02,0,0,0,0,0-.01,0,0,0-.01,0-.02,0,0,0,0,0-.01,0,0,0-.02,0-.02,0,0,0,0,0,0,0,0,0-.02,0-.03,0,0,0,0,0,0,0-.09-.02-.18-.03-.2h0s0-.01,0-.01c0,0,.26.3.36.51.1.21.36,1.13.41,1.38s.19,1.03.23,1.36c.04.32.05.61.03.69-.01.08.07.33.07.33-.08,0-.15.01-.23.02Zm7.11-3.88c-.29-.15-.56-.29-.85-.43-.28-.14-.5-.25-.5-.25,0,0,.29-.59.37-.71,0,0,.01,0,.01,0,.01,0,.03,0,.04,0,.08.03.12.03.15.02,0,0,0,0,0,0,.02,0,.03-.02.03-.04,0-.01,0-.02,0-.03,0,0,0,0,0,0-.04-.02-.08-.04-.12-.05-.05-.03-.1-.05-.12-.06,0,0-.02,0-.02-.01,0,0,0,0,0,0,0,0,0,0,0,0-.02-.02-.04-.05-.07-.14,0,0,0-.01,0-.02-.02-.06-.03-.13-.07-.18,0,0,0,0,0,0,0,0-.02-.01-.03-.02-.02-.02-.05-.03-.07-.05,0,0,0,0,0,0,0-.01,0-.03-.01-.05,0-.01,0-.03,0-.04,0-.02,0-.04,0-.06,0-.06,0-.13-.02-.19-.02-.09-.05-.17-.14-.23-.27-.18-.54-.34-.82-.47-.06-.02-.13-.04-.2-.04-.03,0-.06,0-.09.02,0,0-.01,0-.02,0-.02,0-.04.02-.07.03-.01,0-.03.01-.04.02,0,0-.02,0-.02,0,0,0-.02.01-.03.02-.03.02-.06.03-.08.03,0,0-.02,0-.02,0-.02,0-.03,0-.05-.01-.02,0-.03,0-.05,0-.04-.01-.08-.01-.15,0-.08,0-.17.03-.25.03,0,0,0,0-.01,0,0,0,0,0-.01,0-.02,0-.04,0-.06-.02-.04-.02-.1-.06-.15-.08,0,0,0,0-.01,0,0,0-.02,0-.03,0h0s-.02,0-.02,0c0,0,0,0,0,0-.03,0-.05.02-.04.05,0,.02,0,.03.02.05.04.04.11.08.12.09q-.43.77-.43.77s-.21.04-.39.24c-.06.06-.12.13-.17.2-.11.14-.15.3-.35.72l-.28.53.15.11s-.17.22-.36.43c-.1.11-.19.22-.29.33-.06.07-.09.11-.12.14,0,0-.02.02-.02.03-.02.03-.04.06-.05.09,0,.01-.02.03-.03.04,0,0,0,.01,0,.02,0,0,0,0-.01,0-.03.04-.04.07-.05.11-.01.03-.01.06,0,.1,0,.04,0,.08.01.12,0,.04.01.06.04.09.03.04.08.07.11.1-.07.07-.44-.17-.63-.33-.19-.16-.5-.85-.74-1.28-.24-.43-.39-.57-.69-.74-.28-.16-.38-.25-.39-.26,0,0,0,0,0,0,0,0,.05,0,.32-.02.27-.03.51-.15.6-.29.09-.14.22-.57.22-.75,0-.19-.16-.58-.25-.71-.03-.05-.12-.11-.21-.18,2.15-3.4,4.99-7.91,5.01-7.94.1-.15.25-.38.45-.68.39-.59.98-1.45,1.74-2.53.56-.79,1.77-2.44,2.53-3.45l1.58.02c-.1.14-.09.34.04.47l1.52,1.53-5.32,15.81Zm5.81-16.43l-1.46-1.46c-.09-.1-.23-.13-.35-.09l-1.69-.02c.23-.31,2.6-3.3,4.08-5.03.73-.87,1.52-1.75,2.34-2.66.82-.91,1.68-1.84,2.59-2.77,1.48-1.54,3.07-3.09,4.76-4.64l1.53.32c-.11.12-.1.3.01.42l1.26,1.26-13.07,14.67Zm28.01-26.02h0s-14.44,10.89-14.44,10.89l-1.28-1.28c-.07-.07-.17-.1-.26-.09l-1.6-.34c.32-.29.65-.59.98-.88,2.13-1.88,4.4-3.74,6.81-5.5.6-.44,1.22-.87,1.83-1.3.31-.21.62-.42.93-.63l.47-.31c.16-.1.32-.2.47-.31.32-.2.64-.41.95-.61.32-.2.64-.39.97-.59l.48-.29.49-.28c.33-.19.65-.38.98-.57.08-.04.16-.09.23-.13l1.38.74c-.11.08-.14.23-.06.35l.69,1.11h-.04Zm.57-.23l-.74-1.19c-.04-.06-.1-.1-.17-.12l-1.44-.78c2.51-1.38,5.1-2.62,7.74-3.63,1.39-.55,2.79-1.01,4.19-1.44.35-.1.7-.2,1.05-.3.18-.05.35-.1.52-.15.18-.04.35-.09.53-.13.35-.09.7-.18,1.04-.26.21-.05.42-.09.63-.14l.87.76c-.11.05-.18.17-.15.3l.3,1.35-14.38,5.73Zm29.29-8.23l-.08,1.26h0s-14.26,1.17-14.26,1.17l-.32-1.41c-.01-.06-.04-.11-.08-.14h0s-.97-.84-.97-.84c.06-.01.13-.03.19-.04.69-.16,1.39-.27,2.07-.4l.26-.05.26-.04c.17-.02.34-.05.51-.07.34-.05.68-.1,1.02-.15.34-.04.68-.08,1.01-.11.34-.04.67-.08,1-.1.33-.02.66-.05.99-.07.16-.01.33-.03.49-.03.16,0,.33-.01.49-.02,2.47-.11,4.82-.01,6.99.21l.57.63c-.08.03-.14.11-.15.2Zm14.04,4.53l-13.62-3.15.08-1.34c0-.09-.04-.17-.11-.21l-.56-.62c5.28.73,9.62,2.41,14.1,4.14l.31.12-.2,1.06Z"/>
  </g>
</svg>