<?xml version="1.0" encoding="UTF-8"?>
<svg id="_レイヤー_2" data-name="レイヤー 2" xmlns="http://www.w3.org/2000/svg" viewBox="0 0 159.13 41.13">
  <defs>
    <style>
      .cls-1 {
        fill: #fff;
      }

      .cls-2 {
        fill: #29abe2;
        opacity: .8;
        stroke: #29abe2;
        stroke-miterlimit: 10;
        stroke-width: 1.13px;
      }
    </style>
  </defs>
  <g id="_01" data-name="01">
    <rect class="cls-2" x=".57" y=".57" width="158" height="40" rx="20" ry="20"/>
    <g>
      <path class="cls-1" d="m22.89,18.06v.66h.03c.06-.09.14-.19.23-.28s.21-.18.35-.26c.14-.08.3-.14.47-.19.18-.05.37-.07.59-.07.34,0,.65.06.93.19.28.13.53.31.73.53.2.22.36.49.48.79.11.3.17.63.17.98s-.05.68-.16.99-.26.58-.47.8c-.2.23-.45.41-.73.55s-.61.2-.98.2c-.34,0-.65-.07-.93-.21s-.5-.33-.65-.57h-.02v3.02h-1.19v-7.14h1.14Zm2.78,2.36c0-.18-.03-.37-.08-.55-.06-.18-.14-.35-.25-.49s-.25-.26-.43-.35-.37-.13-.61-.13c-.22,0-.41.05-.58.14s-.32.21-.44.36-.21.31-.28.5c-.06.19-.09.37-.09.56s.03.37.09.55c.06.18.16.35.28.49.12.15.27.26.44.35.17.09.37.13.58.13.23,0,.43-.05.61-.14s.31-.21.43-.36.2-.31.25-.5c.06-.18.08-.37.08-.56Z"/>
      <path class="cls-1" d="m31.02,15.33h1.19v7.5h-1.19v-7.5Z"/>
      <path class="cls-1" d="m39.6,22.22h-.03c-.12.21-.31.39-.58.52-.26.13-.57.2-.9.2-.19,0-.39-.02-.6-.07s-.4-.13-.58-.25c-.18-.12-.32-.27-.44-.46-.12-.19-.17-.42-.17-.7,0-.36.1-.64.3-.85.2-.21.46-.37.78-.49.32-.11.67-.19,1.06-.22.39-.04.77-.05,1.14-.05v-.12c0-.3-.11-.52-.32-.66-.21-.14-.47-.21-.77-.21-.25,0-.49.05-.72.16s-.42.23-.58.39l-.62-.72c.27-.25.58-.44.94-.57.35-.12.71-.19,1.08-.19.42,0,.77.06,1.05.18.27.12.49.27.65.47.16.19.27.41.33.64.06.24.09.48.09.71v2.9h-1.11v-.61Zm-.02-1.57h-.27c-.19,0-.39,0-.6.02-.21.02-.41.05-.59.11-.18.06-.33.14-.45.24s-.18.24-.18.42c0,.11.03.21.07.28.05.08.11.14.19.18.08.05.17.08.27.1.1.02.2.03.3.03.41,0,.72-.11.93-.33.21-.22.32-.52.32-.89v-.17Z"/>
      <path class="cls-1" d="m44.36,18.06h1.32l1.33,3.46h.02l1.18-3.46h1.24l-2.25,5.78c-.09.22-.18.41-.28.58-.1.17-.22.31-.36.43-.14.12-.3.2-.49.26-.19.06-.42.09-.68.09-.1,0-.2,0-.3-.01s-.21-.03-.31-.05l.1-1.03c.08.03.16.04.23.05.08.01.15.02.21.02.13,0,.23-.02.32-.04.09-.03.16-.08.22-.14.06-.06.11-.14.16-.23.05-.09.1-.2.15-.33l.24-.61-2.04-4.76Z"/>
      <path class="cls-1" d="m64.28,17.92c.31,0,.58.05.8.16.22.11.4.25.54.43.14.18.25.38.31.62.07.23.1.47.1.71v2.98h-1.19v-2.64c0-.14,0-.29-.03-.44-.02-.15-.06-.29-.13-.41-.07-.12-.16-.22-.27-.3-.12-.08-.27-.12-.46-.12s-.34.04-.48.12c-.13.08-.24.18-.33.31s-.15.27-.19.42c-.04.16-.06.31-.06.46v2.6h-1.19v-2.88c0-.3-.07-.54-.21-.74s-.37-.29-.67-.29c-.18,0-.33.04-.47.11-.13.08-.24.17-.32.29-.08.12-.15.26-.19.41-.04.16-.06.31-.06.47v2.62h-1.19v-4.76h1.13v.76h.02c.05-.12.12-.23.21-.34.09-.11.2-.2.32-.29.12-.09.26-.15.42-.2.16-.05.33-.07.53-.07.37,0,.68.08.92.25.24.17.43.38.57.66.16-.29.37-.51.63-.67s.58-.23.93-.23Z"/>
      <path class="cls-1" d="m70.12,20.42c0-.38.07-.72.2-1.03s.32-.57.55-.79c.23-.22.51-.39.82-.51s.66-.18,1.01-.18.69.06,1.01.18.59.29.82.51c.23.22.42.48.55.79s.2.65.2,1.03-.07.72-.2,1.03-.32.58-.55.8-.51.4-.82.52c-.32.13-.66.19-1.01.19s-.7-.06-1.01-.19c-.32-.12-.59-.3-.82-.52s-.42-.49-.55-.8-.2-.66-.2-1.03Zm1.21,0c0,.19.03.37.08.56.06.19.14.35.25.5s.25.26.43.36.38.14.62.14.44-.05.61-.14c.17-.09.31-.21.43-.36s.2-.31.25-.5c.06-.18.08-.37.08-.56s-.03-.37-.08-.55c-.06-.18-.14-.35-.25-.49s-.25-.26-.43-.35c-.17-.09-.38-.13-.61-.13s-.44.04-.62.13-.31.21-.43.35-.2.31-.25.49c-.06.18-.08.37-.08.55Z"/>
      <path class="cls-1" d="m78.72,18.06h1.3l1.25,3.47h.02l1.26-3.47h1.26l-1.9,4.76h-1.27l-1.92-4.76Z"/>
      <path class="cls-1" d="m87.35,16.45c0-.19.07-.36.21-.5s.32-.21.54-.21.4.07.55.2c.15.14.22.31.22.51s-.08.38-.22.51-.33.2-.55.2-.4-.07-.54-.21-.21-.31-.21-.5Zm.17,1.62h1.19v4.76h-1.19v-4.76Z"/>
      <path class="cls-1" d="m97.67,20.5v.16c0,.05,0,.11,0,.16h-3.62c.01.17.06.33.13.47.08.14.18.26.3.37s.27.18.43.24.32.09.5.09c.3,0,.55-.05.75-.16s.37-.26.51-.45l.79.63c-.47.63-1.15.95-2.04.95-.37,0-.71-.06-1.02-.17-.31-.12-.58-.28-.81-.49-.23-.21-.41-.47-.54-.78s-.19-.66-.19-1.05.06-.73.19-1.05c.13-.31.31-.58.53-.8.22-.22.49-.39.8-.52.31-.12.64-.18,1-.18.33,0,.64.05.92.16s.52.27.73.49.37.48.48.8c.12.32.17.7.17,1.13Zm-1.19-.54c0-.15-.02-.3-.06-.44s-.11-.26-.2-.37c-.09-.11-.21-.19-.35-.25-.14-.06-.31-.09-.5-.09-.36,0-.66.11-.91.32s-.39.49-.41.83h2.44Z"/>
    </g>
    <g>
      <path class="cls-1" d="m134.63,29.24V13.13c0-.77-.63-1.4-1.4-1.4h-23.71c-.77,0-1.4.63-1.4,1.4v16.11c0,.77.63,1.4,1.4,1.4h23.71c.77,0,1.4-.63,1.4-1.4Zm-1.11-16.52s0,0,.01-.01c.13.1.22.25.22.42v.83h-1.47l1.24-1.24Zm-3.03-.11h1.9l-1.27,1.27s-.05.05-.06.08h-1.88l1.24-1.24s.06-.07.08-.11Zm-3.11,0h1.9l-1.27,1.27s-.05.05-.06.08h-1.88l1.24-1.24s.06-.07.08-.11Zm-3.11,0h1.9l-1.27,1.27s-.05.05-.06.08h-1.88l1.24-1.24s.06-.07.08-.11Zm-3.11,0h1.9l-1.27,1.27s-.05.05-.06.08h-1.88l1.24-1.24s.06-.07.08-.11Zm-3.11,0h1.9l-1.27,1.27s-.05.05-.06.08h-1.88l1.24-1.24s.06-.07.08-.11Zm-3.11,0h1.9l-1.27,1.27s-.05.05-.06.08h-1.88l1.24-1.24s.06-.07.08-.11Zm-3.11,0h1.9l-1.27,1.27s-.05.05-.06.08h-1.88l1.24-1.24s.06-.07.08-.11Zm-2.86.52c0-.29.23-.52.52-.52h1.12l-1.27,1.27s-.05.05-.06.08h-.31v-.83Zm0,1.71h24.76v12.7h-24.76v-12.7Zm.37,14.74s-.06.08-.08.12c-.17-.09-.29-.26-.29-.47v-.81h1.53l-1.15,1.15Zm3,.18h-1.93l1.33-1.33h1.86l-1.15,1.15c-.05.05-.09.11-.11.18Zm3.11,0h-1.93l1.33-1.33h1.86l-1.15,1.15c-.05.05-.09.11-.11.18Zm3.11,0h-1.93l1.33-1.33h1.86l-1.15,1.15c-.05.05-.09.11-.11.18Zm3.11,0h-1.93l1.33-1.33h1.86l-1.15,1.15c-.05.05-.09.11-.11.18Zm3.11,0h-1.93l1.33-1.33h1.86l-1.15,1.15c-.05.05-.09.11-.11.18Zm3.11,0h-1.93l1.33-1.33h1.86l-1.15,1.15c-.05.05-.09.11-.11.18Zm3.11,0h-1.93l1.33-1.33h1.86l-1.15,1.15c-.05.05-.09.11-.11.18Zm2.51-1.33h.23v.81c0,.29-.23.52-.52.52h-1.04l1.33-1.33Z"/>
      <path class="cls-1" d="m123.68,21.25l-3.36-2.19c-.14-.09-.31-.09-.45-.02-.14.08-.23.23-.23.39v4.34c0,.16.09.31.23.39.07.04.14.05.21.05.08,0,.17-.02.24-.07l3.36-2.15c.13-.08.2-.22.2-.37s-.08-.29-.2-.37Zm-3.16,1.72v-2.72l2.11,1.37-2.11,1.35Z"/>
    </g>
  </g>
</svg>