<?xml version="1.0" encoding="utf-8"?>
<!-- Generator: Adobe Illustrator 27.3.1, SVG Export Plug-In . SVG Version: 6.00 Build 0)  -->
<svg version="1.1" id="_レイヤー_2" xmlns="http://www.w3.org/2000/svg" xmlns:xlink="http://www.w3.org/1999/xlink" x="0px"
	 y="0px" viewBox="0 0 330 80" style="enable-background:new 0 0 330 80;" xml:space="preserve">
<style type="text/css">
	.st0{fill:#29ABE2;}
	.st1{fill:#FFFFFF;}
	.st2{font-family:'KozGoPr6N-Regular-83pv-RKSJ-H',sans-serif;}
	.st3{font-size:16px;}
	.st4{font-size:10px;}
	.st5{filter: url(#outer-glow-1);}
</style>
    <filter id="outer-glow-1" filterUnits="userSpaceOnUse">
      <feOffset dx="0" dy="0"/>
      <feGaussianBlur result="blur" stdDeviation="5"/>
      <feFlood flood-color="#000" flood-opacity=".5"/>
      <feComposite in2="blur" operator="in"/>
      <feComposite in="SourceGraphic"/>
    </filter>
<g id="_01">
	<path class="st0 st5" d="M22.5,10h285c5.5,0,10,4.5,10,10v40c0,5.5-4.5,10-10,10h-285c-5.5,0-10-4.5-10-10V20C12.5,14.5,17,10,22.5,10z
		"/>
	<path class="st1" d="M22.5,10h90l-40,60h-50c-5.5,0-10-4.5-10-10V20C12.5,14.5,17,10,22.5,10z"/>
	<path class="st0" d="M71.3,44.6l-3.7-3.7c-0.2-0.2-0.6-0.2-0.9,0L51.5,56.4L51.2,57l-1.3,4.5c-0.1,0.2,0,0.5,0.2,0.6
		c0.1,0.1,0.3,0.2,0.5,0.2c0.1,0,0.1,0,0.2,0l5.6-1.8c0.2,0,0.3-0.2,0.4-0.3l14.7-14.7C71.6,45.3,71.6,44.9,71.3,44.6L71.3,44.6z
		 M52.8,60.3l-0.9-0.9l0,0l0.7-2l2.3,2.3L52.8,60.3L52.8,60.3z M56,59l-2.8-2.8l14-14L70,45C70,45.1,56,59,56,59z"/>
	<path class="st0" d="M59.8,32.9H44.9c-0.4,0-0.7,0.3-0.7,0.7s0.3,0.7,0.7,0.7h14.9c0.4,0,0.7-0.3,0.7-0.7S60.2,32.9,59.8,32.9z"/>
	<path class="st0" d="M59.8,37.4H44.9c-0.4,0-0.7,0.3-0.7,0.7s0.3,0.7,0.7,0.7h14.9c0.4,0,0.7-0.3,0.7-0.7S60.2,37.4,59.8,37.4z"/>
	<path class="st0" d="M60.5,42.8c0-0.4-0.3-0.7-0.7-0.7H44.9c-0.4,0-0.7,0.3-0.7,0.7s0.3,0.7,0.7,0.7h14.9
		C60.2,43.5,60.5,43.2,60.5,42.8z"/>
	<path class="st0" d="M44.9,46.4c-0.4,0-0.7,0.3-0.7,0.7s0.3,0.7,0.7,0.7h9.2c0.4,0,0.7-0.3,0.7-0.7s-0.3-0.7-0.7-0.7H44.9z"/>
	<path class="st0" d="M52.2,54.9H39.5V31.4h8c0.4,0,0.7-0.3,0.7-0.7v-8h16.3v19.9c0.5-0.5,0.9-1,1.5-1.4V21.9c0-0.4-0.3-0.7-0.7-0.7
		H47.5c0,0-0.1,0-0.2,0l0,0c-0.1,0-0.1,0-0.2,0.1l0,0c-0.1,0-0.1,0.1-0.2,0.1l-4.2,4.4l-4.6,4.4l0,0l0,0l0,0L38,30.3l0,0
		c0,0,0,0.1-0.1,0.2l0,0v0.1v25c0,0.4,0.3,0.7,0.7,0.7h12C51.3,55.7,51.5,55.5,52.2,54.9L52.2,54.9z M43.7,27l0.2-0.2l0,0l2.6-2.7
		l0.3-0.3V30h-6.2L43.7,27L43.7,27z"/>
	<text x="115" y="41" dominant-baseline="middle" class="st1 st2 st3">乗船名簿を書く</text>
	<text x="235" y="41" dominant-baseline="middle" class="st1 st2 st4">チェックイン</text>
</g>
</svg>
