<?xml version="1.0" encoding="utf-8"?>
<!-- Generator: Adobe Illustrator 27.3.1, SVG Export Plug-In . SVG Version: 6.00 Build 0)  -->
<svg version="1.1" id="_レイヤー_2" xmlns="http://www.w3.org/2000/svg" xmlns:xlink="http://www.w3.org/1999/xlink" x="0px"
	 y="0px" viewBox="0 0 305 60" style="enable-background:new 0 0 305 60;" xml:space="preserve">
<style type="text/css">
	.st0{fill:#29ABE2;}
	.st1{fill:#FFFFFF;}
	.st2{font-family:'KozGoPr6N-Regular-83pv-RKSJ-H',sans-serif;}
	.st3{font-size:19.84px;}
	.st4{letter-spacing:-1;}
	.st5{letter-spacing:1px;}
	.st6{font-size:12.76px;}
</style>
<g id="_01">
	<path class="st0" d="M10,0h285c5.5,0,10,4.5,10,10v40c0,5.5-4.5,10-10,10H10C4.5,60,0,55.5,0,50V10C0,4.5,4.5,0,10,0z"/>
	<path class="st1" d="M10,0h90L60,60H10C4.5,60,0,55.5,0,50V10C0,4.5,4.5,0,10,0z"/>
	<path class="st0" d="M58.8,34.6l-3.7-3.7c-0.2-0.2-0.6-0.2-0.9,0L39,46.4L38.7,47l-1.3,4.5c-0.1,0.2,0,0.5,0.2,0.6
		c0.1,0.1,0.3,0.2,0.5,0.2c0.1,0,0.1,0,0.2,0l5.6-1.8c0.2,0,0.3-0.2,0.4-0.3l14.7-14.7C59.1,35.3,59.1,34.9,58.8,34.6L58.8,34.6z
		 M40.3,50.3l-0.9-0.9c0,0,0,0,0,0l0.7-2l2.3,2.3L40.3,50.3L40.3,50.3z M43.5,49l-2.8-2.8l14-14l2.8,2.8C57.5,35.1,43.5,49,43.5,49z
		"/>
	<path class="st0" d="M47.3,22.9H32.4c-0.4,0-0.7,0.3-0.7,0.7s0.3,0.7,0.7,0.7h14.9c0.4,0,0.7-0.3,0.7-0.7S47.7,22.9,47.3,22.9z"/>
	<path class="st0" d="M47.3,27.4H32.4c-0.4,0-0.7,0.3-0.7,0.7s0.3,0.7,0.7,0.7h14.9c0.4,0,0.7-0.3,0.7-0.7S47.7,27.4,47.3,27.4z"/>
	<path class="st0" d="M48,32.8c0-0.4-0.3-0.7-0.7-0.7H32.4c-0.4,0-0.7,0.3-0.7,0.7s0.3,0.7,0.7,0.7h14.9C47.7,33.5,48,33.2,48,32.8z
		"/>
	<path class="st0" d="M32.4,36.4c-0.4,0-0.7,0.3-0.7,0.7s0.3,0.7,0.7,0.7h9.2c0.4,0,0.7-0.3,0.7-0.7s-0.3-0.7-0.7-0.7H32.4z"/>
	<path class="st0" d="M39.7,44.9H27V21.4h8c0.4,0,0.7-0.3,0.7-0.7v-8h16.3v19.9c0.5-0.5,0.9-1,1.5-1.4V11.9c0-0.4-0.3-0.7-0.7-0.7
		H35c0,0-0.1,0-0.2,0c0,0,0,0,0,0c-0.1,0-0.1,0-0.2,0.1c0,0,0,0,0,0c-0.1,0-0.1,0.1-0.2,0.1l-4.2,4.4l-4.6,4.4h0v0l0,0
		c0,0-0.1,0.1-0.1,0.1c0,0,0,0,0,0c0,0,0,0.1-0.1,0.2c0,0,0,0,0,0c0,0,0,0.1,0,0.1v25c0,0.4,0.3,0.7,0.7,0.7h12
		C38.8,45.7,39,45.5,39.7,44.9L39.7,44.9z M31.2,17l0.2-0.2l0,0l2.6-2.7l0.3-0.3v6.2h-6.2L31.2,17L31.2,17z"/>
	<text x="257" y="28" text-anchor="end" class="st1 st2 st3 st4+">チェックイン</text>
	<text x="264" y="47" text-anchor="end" class="st1 st2 st6 st5">（乗船名簿に書き込む）</text>
</g>
</svg>
