<?xml version="1.0" encoding="utf-8"?>
<svg version="1.1" id="レイヤー_1" xmlns="http://www.w3.org/2000/svg" xmlns:xlink="http://www.w3.org/1999/xlink" x="0px"
	 y="0px" viewBox="0 0 45 45" style="enable-background:new 0 0 45 45;" xml:space="preserve">
<style type="text/css">
	.st0{fill:#F7931E;}
	.st1{fill:#E65D09;}
	.st4{fill:#FFFFFF;}
	.st6{font-size:8px;}
	.st8{fill:#283C73;}
</style>
<rect class="st0" width="45" height="45"/>
<path class="st1" d="M41.3,15.5c-1.7-0.3-3.4-0.6-6.5,0.6c-3.1,1.1-4.6,2.6-6,3.9c-1.4,1.4-2.7,2.6-5.6,3.7c-2.9,1-4.5,0.8-6.1,0.5
	s-3.4-0.5-6.5,0.6s-4.6,2.6-6,3.9C3.4,30,2.2,31.1,0,32.1V45h45V15.6C43.5,15.9,42.4,15.7,41.3,15.5z"/>
<text x="22.5" y="37" text-anchor="middle" fill="#fff" font-family="sans-serif" font-size="8" textLength="42" font-weight="bold">船長HOME</text>
<g>
	<circle class="st4" cx="22.5" cy="8.4" r="4.3"/>
	<path class="st4" d="M22.5,13.7c-4.4,0-8.1,2.3-8.1,5.2v1.3c2.1,1.9,5,3.2,8.1,3.2s6-1.2,8.1-3.2v-1.3C30.6,16,27.1,13.7,22.5,13.7
		z"/>
	<path class="st0" d="M32.3,27.5l0.4-0.1c0.2,0,0.3-0.1,0.4-0.2c0.1-0.1,0.1-0.2,0.2-0.2c0.1-0.1,0.6,0,1,0.3c0,0,0.1,0,0.1,0.1
		c0.8,0.3,1.4,0.1,1.7-0.2c0.6-0.5,0.7-1.3,0.7-1.5c0-0.1-0.1-0.9-0.7-1.4c-0.3-0.2-0.8-0.5-1.7-0.2c0,0-0.1,0-0.1,0.1
		c-0.4,0.2-0.9,0.4-1,0.3c0-0.1-0.1-0.2-0.1-0.2c-0.1-0.1-0.3-0.2-0.4-0.2l-0.5-0.1c-0.1,0-0.1,0-0.2-0.1c-0.3-1.4-0.7-2.6-1.6-3.7
		c0,0,0.1-0.1,0.1-0.2l0.2-0.3c0.1-0.1,0.2-0.3,0.2-0.5c0-0.1,0-0.2-0.1-0.3c0-0.1,0.5-0.4,0.9-0.6c0,0,0.1,0,0.1-0.1
		c0.8-0.4,1-0.9,1.1-1.3c0.1-0.8-0.4-1.4-0.6-1.6c-0.1-0.1-0.7-0.6-1.5-0.5c-0.4,0.1-0.9,0.3-1.3,1.1c0,0,0,0.1-0.1,0.1
		c-0.1,0.5-0.5,0.9-0.6,0.9c-0.2-0.1-0.5,0-0.6,0.1l-0.3,0.2c-0.1,0-0.1,0-0.2,0.1c-1.1-0.7-2.4-1.3-3.8-1.6c0-0.1,0-0.1,0-0.2
		l-0.1-0.4c0-0.2-0.1-0.3-0.2-0.4s-0.2-0.1-0.2-0.2c-0.1-0.1,0-0.6,0.3-1c0,0,0-0.1,0.1-0.1c0.3-0.8,0.1-1.4-0.2-1.7
		c-0.5-0.6-1.3-0.7-1.5-0.7c-0.1,0-0.9,0.1-1.4,0.7c-0.2,0.3-0.5,0.8-0.2,1.7c0,0,0,0.1,0.1,0.1c0.2,0.4,0.4,0.9,0.3,1
		c-0.1,0-0.2,0.1-0.2,0.2c-0.1,0.1-0.2,0.3-0.2,0.4L20.8,16c0,0.1,0,0.1-0.1,0.2c-1.4,0.3-2.6,0.7-3.7,1.6c0,0-0.1-0.1-0.2-0.1
		l-0.3-0.2c-0.2-0.2-0.5-0.2-0.6-0.1c-0.1,0-0.4-0.5-0.6-0.9c0,0,0-0.1-0.1-0.1c-0.4-0.8-0.9-1-1.3-1.1c-0.8-0.1-1.4,0.4-1.6,0.6
		c-0.1,0.1-0.6,0.6-0.5,1.5c0.1,0.4,0.3,0.9,1.1,1.3c0,0,0.1,0,0.1,0.1c0.5,0.1,0.9,0.5,0.9,0.6c0,0.1-0.1,0.2-0.1,0.3
		c0,0.2,0.1,0.3,0.2,0.5l0.2,0.3c0,0.1,0,0.1,0.1,0.2c-0.7,1.1-1.3,2.4-1.6,3.7c-0.1,0-0.1,0-0.2,0l-0.4,0.1c-0.2,0-0.3,0.1-0.4,0.2
		s-0.1,0.2-0.2,0.2c-0.1,0.1-0.6-0.1-1-0.3c0,0-0.1,0-0.1-0.1c-0.8-0.3-1.4-0.1-1.7,0.2c-0.6,0.5-0.7,1.3-0.7,1.5
		c0,0.1,0.1,0.9,0.7,1.4c0.3,0.2,0.8,0.5,1.7,0.2c0,0,0.1,0,0.1-0.1c0.4-0.2,0.9-0.4,1-0.3c0,0.1,0.1,0.2,0.1,0.2
		c0.1,0.1,0.3,0.2,0.4,0.2l0.4,0.1c0.1,0,0.1,0,0.2,0.1c0,0.1,0.1,0.2,0.1,0.3h18.9c0-0.1,0.1-0.2,0.1-0.3
		C32.2,27.6,32.2,27.5,32.3,27.5z"/>
	<path class="st8" d="M31.9,27c0.1,0,0.1,0,0.2,0l0.5-0.1l0,0c0.4-0.9,1.9-0.1,1.9-0.1c1.5,0.5,1.6-0.9,1.6-0.9S36,24.5,34.5,25
		c0,0-1.6,0.8-1.9-0.1l0,0l-0.5-0.1c0,0-0.1-0.1-0.2,0l-0.4-0.1c-0.2-1.7-0.8-3.1-1.8-4.3l0.2-0.3C30,20.1,30,20,30,20l0.3-0.4l0,0
		c-0.4-0.9,1.4-1.5,1.4-1.5c1.4-0.7,0.5-1.7,0.5-1.7s-1-0.9-1.7,0.5c0,0-0.5,1.7-1.5,1.4l0,0l-0.4,0.3c-0.1,0-0.1,0-0.1,0.1
		l-0.3,0.2c-1.2-0.9-2.8-1.6-4.3-1.8l-0.1-0.4l0,0c0-0.1,0-0.1,0-0.2L23.7,16l0,0c-0.9-0.4-0.1-1.9-0.1-1.9c0.5-1.5-0.9-1.6-0.9-1.6
		s-1.4,0.1-0.9,1.6c0,0,0.8,1.6-0.1,1.9l0,0l-0.1,0.5c0,0-0.1,0.1,0,0.2L21.4,17c-1.7,0.2-3.1,0.8-4.3,1.8l-0.3-0.2
		c0-0.1-0.1-0.1-0.1-0.1l-0.4-0.3l0,0c-0.9,0.4-1.5-1.4-1.5-1.4c-0.7-1.4-1.7-0.5-1.7-0.5s-0.9,1,0.5,1.7c0,0,1.7,0.5,1.4,1.5l0,0
		l0.3,0.4c0,0.1,0,0.1,0.1,0.1l0.2,0.3c-0.9,1.2-1.6,2.8-1.8,4.3l-0.4,0.1c-0.1,0-0.1,0-0.2,0l-0.5,0.1l0,0
		c-0.4,0.9-1.9,0.1-1.9,0.1c-1.5-0.5-1.6,0.9-1.6,0.9s0.1,1.4,1.6,0.9c0,0,1.6-0.8,1.9,0.1l0,0l0.5,0.1c0,0,0.1,0.1,0.2,0l0.4,0.1
		c0,0.3,0.1,0.6,0.2,0.9h2.5c-0.2-0.5-0.3-0.9-0.3-1.4h0.4c0.3,0,0.5-0.1,0.6-0.3c0.1,0.2,0.4,0.3,0.6,0.3h0.7
		c0.3,0,0.5-0.1,0.6-0.3c0.1,0.2,0.4,0.3,0.6,0.3h0.2c0.1,0.4,0.2,0.7,0.5,1.1L20,27.8c-0.1,0.1-0.1,0.2-0.1,0.3h5.7
		c0-0.1-0.1-0.2-0.1-0.3l-0.1-0.1c0.2-0.3,0.4-0.6,0.5-1.1l0,0c0.3,0,0.5-0.1,0.6-0.3c0.1,0.2,0.4,0.3,0.6,0.3h0.7
		c0.3,0,0.5-0.1,0.6-0.3c0.1,0.2,0.4,0.3,0.6,0.3h0.4c-0.1,0.5-0.2,0.9-0.3,1.4h2.5c0.1-0.3,0.1-0.6,0.2-0.9L31.9,27z M19.5,25.2
		L19.5,25.2c-0.4,0-0.6,0.1-0.6,0.3c-0.1-0.2-0.4-0.3-0.6-0.3h-0.7c-0.3,0-0.5,0.1-0.6,0.3c-0.2-0.2-0.4-0.3-0.6-0.3H16l0,0
		c0.1-1.4,0.6-2.6,1.5-3.6l0.3,0.3c0.2,0.2,0.4,0.2,0.6,0.2c-0.1,0.2,0,0.5,0.2,0.6l0.6,0.6c0.2,0.2,0.4,0.2,0.6,0.2
		c-0.1,0.2,0,0.5,0.2,0.6l0.1,0.1C19.8,24.5,19.6,24.9,19.5,25.2z M20.8,23.1c-0.2-0.2-0.4-0.2-0.6-0.2c0.1-0.2,0-0.5-0.2-0.6
		l-0.6-0.6c-0.2-0.2-0.4-0.2-0.6-0.2c0.1-0.2,0-0.5-0.2-0.6l-0.3-0.3l0,0c1-0.8,2.2-1.3,3.6-1.5v0.6c0,0.3,0.1,0.5,0.3,0.6
		c-0.2,0.1-0.3,0.4-0.3,0.6v0.7c0,0.3,0.1,0.5,0.3,0.6c-0.2,0.1-0.3,0.4-0.3,0.6v0.2c-0.4,0.1-0.7,0.2-1.1,0.5L20.8,23.1z
		 M22.6,27.3c-0.8,0-1.4-0.6-1.4-1.4c0-0.8,0.6-1.4,1.4-1.4c0.8,0,1.4,0.6,1.4,1.4S23.4,27.3,22.6,27.3z M25.2,22.4
		C25,22.6,25,22.8,25,23c-0.2-0.1-0.5,0-0.6,0.2l-0.1,0.1c-0.3-0.2-0.6-0.4-1.1-0.5v-0.2c0-0.3-0.1-0.5-0.3-0.6
		c0.2-0.1,0.3-0.4,0.3-0.6v-0.7c0-0.3-0.1-0.5-0.3-0.6c0.2-0.1,0.3-0.4,0.3-0.6v-0.4c1.4,0.1,2.6,0.6,3.6,1.5l0,0l-0.3,0.3
		c-0.2,0.2-0.2,0.4-0.2,0.6c-0.2-0.1-0.5,0-0.6,0.2L25.2,22.4z M29.2,25.2h-0.4c-0.3,0-0.5,0.1-0.6,0.3c-0.1-0.2-0.4-0.3-0.6-0.3H27
		c-0.3,0-0.5,0.1-0.6,0.3c-0.2-0.2-0.4-0.3-0.6-0.3h-0.2c-0.1-0.4-0.3-0.7-0.5-1.1l0.1-0.1c0.2-0.2,0.2-0.4,0.2-0.6
		c0.2,0.1,0.5,0,0.6-0.2l0.6-0.6c0.2-0.2,0.2-0.4,0.2-0.6c0.2,0.1,0.5,0,0.6-0.2l0.3-0.3C28.5,22.7,29.1,23.9,29.2,25.2L29.2,25.2z"
		/>
</g>
</svg>
