<?xml version="1.0" encoding="UTF-8"?>
<svg id="_レイヤー_2" data-name="レイヤー 2" xmlns="http://www.w3.org/2000/svg" viewBox="0 0 86.49 86.45">
  <defs>
    <style>
      .cls-1 {
        fill: #090c17;
        fill-rule: evenodd;
      }
    </style>
  </defs>
  <g id="_01" data-name="01">
    <path class="cls-1" d="m46.72,13.46c.1-.18.04-.34-.06-.45l-.24-1.54c.04-.08-.02-.14-.02-.14-2.97-1.28-.18-6.29-.18-6.29,1.52-4.86-3.02-5.04-3.02-5.04,0,0-4.53.18-3.02,5.04,0,0,2.79,5-.18,6.29,0,0-.06.06-.02.14l-.24,1.56c-.12.12-.16.26-.06.45l-.18,1.13c-5.2.67-9.96,2.71-13.9,5.77l-.93-.69c-.06-.2-.2-.26-.36-.26l-1.25-.93c-.02-.08-.1-.08-.1-.08-3.02,1.19-4.57-4.31-4.57-4.31-2.37-4.51-5.71-1.42-5.71-1.42,0,0-3.08,3.34,1.42,5.71,0,0,5.5,1.58,4.31,4.57,0,0,0,.08.08.1l.93,1.28c0,.16.06.28.26.36l.69.93c-3.06,3.95-5.1,8.7-5.77,13.9l-1.13.18c-.18-.1-.32-.04-.45.06l-1.54.24c-.08-.04-.14.02-.14.02-1.28,2.97-6.29.18-6.29.18-4.86-1.52-5.04,3.02-5.04,3.02,0,0,.18,4.53,5.04,3.02,0,0,5-2.79,6.29.18,0,0,.06.06.14.02l1.56.24c.12.12.26.16.45.06l1.13.18c.67,5.2,2.71,9.96,5.77,13.9l-.69.93c-.2.06-.26.2-.26.36l-.93,1.25c-.08.02-.08.1-.08.1,1.19,3.02-4.31,4.57-4.31,4.57-4.51,2.37-1.42,5.71-1.42,5.71,0,0,3.34,3.08,5.71-1.42,0,0,1.58-5.5,4.57-4.31,0,0,.08,0,.1-.08l1.28-.93c.16,0,.28-.06.36-.26l.93-.69c3.95,3.06,8.7,5.1,13.9,5.77l.18,1.13c-.1.18-.04.32.06.45l.24,1.54c-.04.08.02.14.02.14,2.97,1.28.18,6.29.18,6.29-1.52,4.86,3.02,5.04,3.02,5.04,0,0,4.53-.18,3.02-5.04,0,0-2.79-5,.18-6.29,0,0,.06-.06.02-.14l.24-1.56c.12-.12.16-.26.06-.45l.18-1.13c5.2-.67,9.96-2.71,13.9-5.77l.93.69c.06.2.2.26.36.26l1.28.93c.02.08.1.08.1.08,3.02-1.19,4.57,4.31,4.57,4.31,2.37,4.51,5.71,1.42,5.71,1.42,0,0,3.08-3.34-1.42-5.71,0,0-5.5-1.58-4.31-4.57,0,0,0-.08-.08-.1l-.93-1.25c0-.16-.06-.3-.26-.36l-.69-.93c3.06-3.95,5.1-8.7,5.77-13.9l1.13-.18c.18.1.32.04.45-.06l1.56-.24c.08.04.14-.02.14-.02,1.28-2.97,6.29-.18,6.29-.18,4.86,1.52,5.04-3.02,5.04-3.02,0,0-.18-4.53-5.04-3.02,0,0-5,2.79-6.29-.18,0,0-.06-.06-.14-.02l-1.54-.24c-.12-.12-.26-.16-.45-.06l-1.13-.18c-.67-5.2-2.71-9.96-5.77-13.9l.69-.93c.2-.06.26-.2.26-.36l.93-1.28c.08-.02.08-.1.08-.1-1.19-3.02,4.31-4.57,4.31-4.57,4.51-2.37,1.42-5.71,1.42-5.71,0,0-3.34-3.08-5.71,1.42,0,0-1.58,5.5-4.57,4.31,0,0-.08,0-.1.08l-1.25.93c-.16,0-.3.06-.36.26l-.93.69c-3.95-3.06-8.7-5.1-13.9-5.77l-.18-1.13h-.08Zm-5.63,49.58v1.28c-4.29-.43-8.2-2.12-11.35-4.71l.89-.89c.53-.53.71-1.28.55-1.96.69.16,1.44-.02,1.96-.55l1.72-1.72c.53-.53.71-1.28.55-1.96.69.16,1.44-.02,1.96-.55l.34-.34c1.01.67,2.17,1.15,3.4,1.4v1.15l.02.04v.04l.14.28.78.78-.74.74-.02.04-.02.02-.02.04-.02.02-.1.2v.04l-.02.04v3.8l.02.04v.04l.1.2.02.02.02.04.02.02.02.04.74.74-.78.78-.14.28v.04l-.02.04v.69l-.02-.2Zm4.15,1.25v-1.94l-.02-.04v-.04l-.14-.28-.78-.78.74-.74.02-.04.02-.02.02-.04.02-.02.1-.2v-.04l.02-.04v-3.8l-.02-.04v-.04l-.1-.2-.02-.02-.02-.04-.02-.02-.02-.04-.74-.74.78-.78.14-.28v-.04l.02-.04v-1.15c1.23-.26,2.37-.75,3.4-1.4l.34.34c.53.53,1.28.71,1.96.55-.16.69.02,1.44.55,1.96l1.72,1.72c.53.53,1.28.71,1.96.55-.16.69.02,1.44.55,1.96l.89.89c-3.16,2.59-7.06,4.29-11.35,4.69l-.02.2Zm14.29-7.65l-.89-.89c-.53-.53-1.28-.71-1.96-.55.16-.69-.02-1.44-.55-1.96l-1.72-1.72c-.53-.53-1.28-.71-1.96-.55.16-.69-.02-1.44-.55-1.96l-.34-.34c.67-1.01,1.15-2.17,1.4-3.4h.47c.75,0,1.42-.4,1.78-.99.36.61,1.03.99,1.78.99h2.43c.75,0,1.42-.4,1.78-.99.36.61,1.03.99,1.78.99h1.25c-.43,4.29-2.12,8.2-4.69,11.35v.02Zm4.71-15.5h-1.28c-.75,0-1.42.4-1.78.99-.36-.61-1.03-.99-1.78-.99h-2.43c-.75,0-1.42.4-1.78.99-.36-.61-1.03-.99-1.78-.99h-.47c-.26-1.23-.75-2.37-1.4-3.4l.34-.34c.53-.53.71-1.28.55-1.96.69.16,1.44-.02,1.96-.55l1.72-1.72c.53-.53.71-1.28.55-1.96.69.16,1.44-.02,1.96-.55l.89-.89c2.59,3.16,4.29,7.06,4.71,11.35v.02Zm-7.65-14.29l-.89.89c-.53.53-.71,1.28-.55,1.96-.69-.16-1.44.02-1.96.55l-1.72,1.72c-.53.53-.71,1.28-.55,1.96-.69-.16-1.44.02-1.96.55l-.34.34c-1.01-.67-2.17-1.15-3.4-1.4v-.47c0-.75-.4-1.42-.99-1.78.61-.36.99-1.03.99-1.78v-2.43c0-.75-.4-1.42-.99-1.78.61-.36.99-1.03.99-1.78v-1.25c4.29.43,8.2,2.12,11.35,4.69h.02Zm-29.81,29.81l.89-.89c.53-.53,1.28-.71,1.96-.55-.16-.69.02-1.44.55-1.96l1.72-1.72c.53-.53,1.28-.71,1.96-.55-.16-.69.02-1.44.55-1.96l.34-.34c-.67-1.01-1.15-2.17-1.4-3.4h-.47c-.75,0-1.42-.4-1.78-.99-.36.61-1.03.99-1.78.99h-2.43c-.75,0-1.42-.4-1.78-.99-.36.61-1.03.99-1.78.99h-1.25c.43,4.29,2.12,8.2,4.69,11.35v.02Zm-4.71-15.5h1.28c.75,0,1.42.4,1.78.99.36-.61,1.03-.99,1.78-.99h2.43c.75,0,1.42.4,1.78.99.36-.61,1.03-.99,1.78-.99h.47c.26-1.23.75-2.37,1.4-3.4l-.34-.34c-.53-.53-.71-1.28-.55-1.96-.69.16-1.44-.02-1.96-.55l-1.72-1.72c-.53-.53-.71-1.28-.55-1.96-.69.16-1.44-.02-1.96-.55l-.89-.89c-2.59,3.16-4.29,7.06-4.71,11.35v.02Zm7.65-14.29l.89.89c.53.53.71,1.28.55,1.96.69-.16,1.44.02,1.96.55l1.72,1.72c.53.53.71,1.28.55,1.96.69-.16,1.44.02,1.96.55l.34.34c1.01-.67,2.17-1.15,3.4-1.4v-.47c0-.75.4-1.42.99-1.78-.61-.36-.99-1.03-.99-1.78v-2.43c0-.75.4-1.42.99-1.78-.61-.36-.99-1.03-.99-1.78v-1.25c-4.29.43-8.2,2.12-11.35,4.69h-.02Zm13.44,20.92c-2.51,0-4.55-2.04-4.55-4.55s2.04-4.55,4.55-4.55,4.55,2.04,4.55,4.55-2.04,4.55-4.55,4.55Z"/>
  </g>
</svg>