<?xml version="1.0" encoding="UTF-8"?>
<svg id="_レイヤー_2" data-name="レイヤー 2" xmlns="http://www.w3.org/2000/svg" viewBox="0 0 39.29 30.51">
  <defs>
    <style>
      .cls-1 {
        fill: #fff;
      }
    </style>
  </defs>
  <g id="_レイヤー_4のコピー" data-name="レイヤー 4のコピー">
    <g>
      <path class="cls-1" d="m33.24,22.2c-1,.87-1.99,1.27-2.94,1.19-1.32-.11-2.17-1.12-2.18-1.12-.03-.03-.06-.06-.09-.09-1.33-1.16-2.7-1.69-4.08-1.57-1.74.15-2.87,1.31-3.12,1.6-1,.86-1.99,1.26-2.93,1.19-1.32-.11-2.17-1.12-2.18-1.12-.03-.03-.06-.06-.09-.09-1.33-1.16-2.71-1.69-4.08-1.57-1.73.15-2.85,1.29-3.12,1.59-1,.87-1.99,1.27-2.94,1.19-1.32-.11-2.17-1.12-2.18-1.12-.03-.03-.06-.06-.09-.09-.72-.63-1.47-1.08-2.21-1.33-.39-.13-.81.07-.94.46-.13.39.07.81.46.94.55.19,1.12.53,1.68,1.02.25.28,1.38,1.45,3.13,1.6.13.01.25.02.38.02,1.24,0,2.47-.53,3.67-1.56,0,0,.02-.01.02-.02,0,0,0,0,0,0,0,0,.01-.02.02-.02.02-.02.05-.04.07-.07,0-.01.85-1.01,2.16-1.12.94-.08,1.94.31,2.94,1.18.25.28,1.38,1.45,3.13,1.6.13.01.25.02.38.02,1.25,0,2.49-.53,3.7-1.59.02-.02.03-.03.05-.05.01-.01.03-.02.04-.04,0,0,.86-1.02,2.18-1.13.94-.07,1.93.32,2.93,1.18.25.28,1.38,1.45,3.13,1.6.13.01.25.02.38.02,1.25,0,2.49-.53,3.7-1.59.02-.02.04-.04.06-.06,0,0,.02-.02.03-.03.06-.08,1.61-1.89,3.91-.76.37.18.81.03.99-.33.18-.37.03-.81-.33-.99-2.63-1.3-4.81.1-5.65,1.08Z"/>
      <path class="cls-1" d="m38.92,28.6c-.56-.32-.88-.71-.88-.71-.03-.03-.06-.06-.09-.09-1.33-1.16-2.71-1.69-4.08-1.57-1.74.15-2.87,1.31-3.13,1.6-1,.86-1.99,1.26-2.93,1.19-1.32-.11-2.17-1.12-2.18-1.12-.03-.03-.06-.06-.09-.09-1.33-1.16-2.7-1.69-4.08-1.57-1.74.15-2.87,1.31-3.12,1.6-1,.86-1.99,1.27-2.93,1.19-1.32-.11-2.17-1.12-2.18-1.12-.03-.03-.06-.06-.09-.09-1.33-1.16-2.7-1.69-4.08-1.57-1.75.15-2.88,1.32-3.13,1.6-2.09,1.8-3.71,1.24-4.7.44-.32-.26-.78-.2-1.04.11-.26.32-.2.78.11,1.04.53.43,1.57,1.08,2.94,1.08,1.06,0,2.32-.39,3.7-1.59.03-.02.05-.05.07-.07,0,0,.01,0,.02-.02,0,0,.86-1.02,2.18-1.13.94-.07,1.93.32,2.93,1.18.25.28,1.38,1.45,3.13,1.6.13.01.25.02.38.02,1.25,0,2.49-.53,3.7-1.59.02-.02.03-.03.05-.05.01-.01.03-.02.04-.04,0,0,.86-1.02,2.18-1.13.94-.07,1.93.32,2.93,1.18.25.28,1.38,1.45,3.13,1.6.13.01.25.02.38.02,1.24,0,2.48-.53,3.68-1.57h0s.01,0,.02-.01c.02-.02.04-.04.05-.06.01-.01.02-.02.03-.03,0,0,.85-1.01,2.16-1.12.95-.08,1.94.32,2.94,1.18.14.16.57.61,1.24,1,.12.07.24.1.37.1.26,0,.5-.13.64-.37.2-.35.08-.8-.27-1.01Z"/>
      <path class="cls-1" d="m7.69,21.91c.32.25.79.19,1.03-.14.25-.32.19-.79-.14-1.04-4.03-3.09-6.25-7.08-6.64-8.42-.51-1.75-.62-3.27-.27-3.87.05-.09.1-.14.17-.18l32.26,6.37c-.13.97-.49,2.87-1.44,4.29-1.23,1.84-2.05,2.49-2.52,2.71-.37.17-.53.61-.36.98.12.27.39.43.67.43.1,0,.21-.02.31-.07.94-.44,1.96-1.49,3.12-3.23,1.56-2.33,1.74-5.54,1.75-5.67.02-.37-.23-.69-.59-.76l-1.19-.24c.13-.54.23-.93.31-1.26.12-.46.21-.82.32-1.35,0,0,0-.02,0-.03l.3-1.76c.19-1.13-.5-2.21-1.61-2.51-.22-.06-.48-.13-.79-.21l.47-1.8c.32-1.22-.38-2.46-1.59-2.82l-.32-.1c-1.22-.36-2.52.33-2.89,1.55l-.61,2c-.11-.02-.22-.05-.34-.08l.42-1.89c.26-1.18-.45-2.34-1.62-2.64l-.51-.13c-1.18-.31-2.4.41-2.71,1.59l-.55,2.08c-3.98-.43-6.26.9-7.38,1.9-5.37-.16-7.37,1.24-8.08,2.08l-4.75-.94c-.1-.02-.21-.02-.31,0-.53.12-.95.44-1.23.92-.78,1.33-.26,3.72.13,5.03.45,1.55,2.8,5.83,7.16,9.18ZM29.49,3.24c.14-.45.61-.7,1.06-.57l.32.1c.44.13.7.58.58,1.03l-.48,1.82c-.58-.14-1.26-.3-2.05-.48l.58-1.9Zm-5.35-1.2c.1-.4.51-.64.91-.54l.51.13c.39.1.63.49.55.89l-.42,1.89c-.54-.12-1.12-.25-1.73-.38-.11-.02-.22-.04-.32-.06l.51-1.94Zm5.76,7.99c.07.02.14.03.21.03.32,0,.61-.21.71-.53.12-.39-.11-.8-.5-.92-5.55-1.64-9.81-2.47-13.1-2.8,1.34-.61,3.39-.99,6.42-.33,5.36,1.16,7.94,1.8,9.17,2.13.37.1.6.46.53.83l-.3,1.76s0,0,0,0c-.1.47-.18.81-.3,1.24-.09.35-.2.76-.33,1.34l-23.78-4.69c1.85-1,7.17-2.24,21.27,1.92Z"/>
      <path class="cls-1" d="m27.55,16.78c.36,0,.67-.26.73-.63.06-.4-.22-.78-.62-.84-8.13-1.24-23.73-4.6-23.88-4.63-.4-.08-.79.17-.88.57-.09.4.17.79.57.88.16.03,15.8,3.41,23.97,4.65.04,0,.07,0,.11,0Z"/>
    </g>
  </g>
</svg>