<?xml version="1.0" encoding="utf-8"?>
<!-- Generator: Adobe Illustrator 27.3.1, SVG Export Plug-In . SVG Version: 6.00 Build 0)  -->
<svg version="1.1" id="_レイヤー_2" xmlns="http://www.w3.org/2000/svg" xmlns:xlink="http://www.w3.org/1999/xlink" x="0px"
	 y="0px" viewBox="0 0 31 39.5" style="enable-background:new 0 0 31 39.5;" xml:space="preserve">
<style type="text/css">
	.st0{fill:#C5A976;}
	.st1{fill:#1E3246;}
</style>
<path class="st0" d="M6.4,37.3l0-3.4c0-0.4-0.3-0.7-0.7-0.7H2.3l6-6c1.8,1.1,3.9,1.8,6.2,1.9L6.4,37.3L6.4,37.3z"/>
<path class="st0" d="M24.6,36.9l-7.7-7.7c2.2-0.2,4.3-0.9,6.1-2l5.7,5.7h-3.4c-0.4,0-0.7,0.3-0.7,0.7L24.6,36.9L24.6,36.9z"/>
<circle class="st0" cx="15.4" cy="14.4" r="13.9"/>
<g>
	<path class="st1" d="M24.2,12c-0.1-0.2-0.3-0.4-0.5-0.4l-5.1-0.8l-2.3-4.7c-0.1-0.2-0.3-0.4-0.6-0.4S15.1,5.9,15,6.1l-2.3,4.7
		l-5.1,0.8c-0.2,0-0.5,0.2-0.5,0.4s0,0.5,0.2,0.7l3.7,3.6l-0.9,5.1c0,0.2,0.1,0.5,0.3,0.6c0.1,0.1,0.2,0.1,0.4,0.1
		c0.1,0,0.2,0,0.3-0.1l4.6-2.4l4.6,2.4c0.2,0.1,0.5,0.1,0.7,0c0.2-0.1,0.3-0.4,0.3-0.6l-0.9-5.1l3.7-3.6
		C24.2,12.5,24.3,12.2,24.2,12L24.2,12z"/>
	<path class="st1" d="M25.3,39.2c0.1,0,0.2,0,0.2,0c0.2-0.1,0.4-0.3,0.4-0.6l0-4.3h4.3c0.3,0,0.5-0.2,0.6-0.4s0-0.5-0.1-0.7
		l-6.6-6.6c3.7-2.7,6.1-7,6.1-11.9C30.2,6.6,23.7,0,15.6,0c-2.5,0-5,0.7-7.2,1.9C8,2.1,7.9,2.5,8.1,2.8C8.3,3.1,8.7,3.2,9,3.1
		c2-1.1,4.3-1.7,6.6-1.7c7.3,0,13.3,6,13.3,13.3s-6,13.3-13.3,13.3S2.3,22,2.3,14.6c0-2.9,0.9-5.7,2.7-8C5.2,6.4,5.1,6,4.8,5.7
		S4.1,5.6,3.9,5.9C2,8.4,1,11.4,1,14.6c0,4.9,2.4,9.3,6.2,11.9l-6.9,6.9C0,33.7-0.1,33.9,0,34.2c0.1,0.2,0.3,0.4,0.6,0.4H5l0.1,4.3
		c0,0.3,0.2,0.5,0.4,0.6c0.1,0,0.2,0,0.2,0c0.2,0,0.3-0.1,0.5-0.2l9.5-9.5c0,0,0,0,0,0l9.1,9.1C24.9,39.1,25.1,39.2,25.3,39.2
		L25.3,39.2z M6.4,37.3l0-3.4c0-0.4-0.3-0.7-0.7-0.7H2.3l6-6c1.8,1.1,3.9,1.8,6.2,1.9L6.4,37.3L6.4,37.3z M24.6,36.9l-7.7-7.7
		c2.2-0.2,4.3-0.9,6.1-2l5.7,5.7h-3.4c-0.4,0-0.7,0.3-0.7,0.7L24.6,36.9L24.6,36.9z"/>
</g>
</svg>
