<?xml version="1.0" encoding="utf-8"?>
<!-- Generator: Adobe Illustrator 27.3.1, SVG Export Plug-In . SVG Version: 6.00 Build 0)  -->
<svg version="1.1" id="_レイヤー_2" xmlns="http://www.w3.org/2000/svg" xmlns:xlink="http://www.w3.org/1999/xlink" x="0px"
	 y="0px" viewBox="0 0 80 80" style="enable-background:new 0 0 80 80;" xml:space="preserve">
<style type="text/css">
	.st0{fill:#FFFFFF;}
	.st1{fill:#A0D2F0;}
	.st2{fill:#1E3246;}
</style>
<ellipse class="st0" cx="40" cy="40" rx="40" ry="40"/>
<rect x="40.6" y="43.7" class="st1" width="11.9" height="1.1"/>
<rect x="39.9" y="38.2" class="st1" width="11.9" height="1.1"/>
<rect x="53.2" y="40.9" class="st1" width="12.7" height="2.2"/>
<polygon class="st1" points="35.1,55 14.3,55 14.3,52.3 35.1,53.9 "/>
<g>
	<path class="st2" d="M60.4,53.7c0.8-0.1,1.5-0.3,2.3-0.4c2.8-0.4,5.5-0.3,8.2,0.4c0.2,0.1,0.6,0.1,0.5,0.4c0,0.2-0.3,0.3-0.5,0.3
		c-1.2,0.3-2.4,0.6-3.7,0.9c-0.4,0.1-0.8,0.1-1.2,0.1c-0.3,0-0.6-0.1-0.5-0.4c0-0.1,0.3-0.3,0.5-0.3c1.1,0,2.1-0.3,3.1-0.7
		c-2.9-0.5-5.8-0.5-8.6,0.4c-2.7,0.8-5.5,1.6-8.1,2.7c-4.8,2.1-9.5,2-14.2-0.3c-0.3-0.1-0.6-0.2-0.9-0.4c-1-0.7-2.1-0.8-3.3-0.8
		c-4.3-0.2-8.6-0.3-13,0c-3.4,0.2-6.3,1.6-8.3,4.4c-0.1,0.1-0.4,0.3-0.6,0.2c-0.3-0.1-0.2-0.4,0-0.6c0.8-1.3,1.9-2.2,3.2-3
		c0.2-0.1,0.4-0.2,0.6-0.3c0,0,0-0.1-0.1-0.2c-0.4,0.1-0.8,0.2-1.1,0.4c-0.6,0.5-1.1,1-1.7,1.5c-0.1,0.1-0.4,0.2-0.6,0.2
		c-0.1-0.2-0.1-0.4-0.1-0.6c0-0.2,0-0.4,0-0.8c-0.4,0.2-0.8,0.3-1.1,0.4c-0.2,0-0.4-0.1-0.6-0.1c0.1-0.2,0.2-0.4,0.3-0.5
		c0.2-0.2,0.5-0.4,0.9-0.7c-0.5-0.3-0.9-0.5-1.4-0.7c-0.7-0.3-1.4-0.5-2.1-0.9c-0.6-0.3-0.6-0.6-0.1-1c0.5-0.4,1-0.6,1.6-0.3
		c0.2,0.1,0.2,0.3,0.4,0.5c-0.2,0.1-0.4,0.2-0.6,0.2c-0.2,0-0.5,0-0.8,0c0,0,0,0.1,0,0.2c1.1,0.5,2.2,1,3.3,1.4
		c0.2-0.2,0-0.5-0.2-0.8c-0.1-0.2-0.3-0.3-0.5-0.4c-0.2-0.1-0.4-0.3-0.2-0.5c0.1-0.1,0.4-0.1,0.6,0c1,0.5,1.2,1.3,0.8,2.5
		c1-0.3,1.9-0.4,2.8-1c1-0.8,2.1-1.3,3.2-1.9c0.1-0.1,0.2-0.1,0.4-0.2c-1.6-0.4-3.2-0.8-4.8-1.3c0,0.7-0.1,1.3-0.1,2
		c0,0.2,0,0.4-0.1,0.5c-0.1,0.1-0.3,0.2-0.4,0.3c-0.1-0.1-0.3-0.3-0.3-0.4c0-0.8,0.1-1.6,0.1-2.3c0-0.1-0.1-0.3-0.2-0.4
		c-0.2-0.1-0.5-0.2-0.4-0.5c0.1-0.2,0.3-0.2,0.5-0.3c0.1,0,0.1,0,0.2,0.1c-0.2-1.2-0.3-2.4-0.6-3.6c-0.8-3.4-2.3-6.3-4.8-8.7
		c-0.1-0.1-0.2-0.4-0.1-0.5c0.2-0.3,0.4-0.1,0.6,0.1c1.4,1.4,2.6,3,3.4,4.8c1.2,2.5,1.8,5.2,2,8c0,0.3,0.1,0.4,0.4,0.5
		c1.8,0.5,3.6,0.9,5.4,1.4c0.2,0,0.5,0,0.7-0.1c1.1-0.3,2.2-0.6,3.4-0.8c1.2-0.2,2,0.5,2,1.8c0.7,0,1.4,0.1,2.1,0.1
		c2.8,0.2,5.6,0,8.4-0.2c0.2,0,0.5-0.1,0.5,0.2c0,0.3-0.2,0.4-0.5,0.5c-2.5,0.1-5.1,0.2-7.6,0.2c-1.1,0-2.3-0.1-3.4-0.2
		c-0.1,0-0.2,0-0.2,0c-0.8,0.3-1.6,0.6-2.3,0.8c0.8,0,1.6,0,2.5,0c2.8,0.1,5.6,0.1,8.4,0.2c0.1,0,0.3,0,0.4,0c0.3-0.5,0.7-0.2,1-0.1
		c0.8,0.2,1.6,0.3,2.4,0.4c1.9,0.2,3.7,0.5,5.6,0.7c3.5,0.3,7.1,0.2,10.6-0.5c0.9-0.2,1.7-0.7,2.5-1.1c2.2-1,4.4-2.1,6.8-2.6
		c1.3-0.2,2.5-0.3,3.8-0.4c0.3,0,0.6,0,0.6,0.4c0,0.4-0.3,0.3-0.6,0.3c-2.3-0.1-4.6,0.5-6.7,1.4C60.6,53.5,60.5,53.6,60.4,53.7
		C60.4,53.6,60.4,53.7,60.4,53.7L60.4,53.7z M38.3,56.1c4.4,2.3,8.8,2.6,13.4,0.6C47.2,57.2,42.7,56.7,38.3,56.1z M16.4,55.2
		c0,0,0,0.1,0.1,0.2c2.6-0.1,5-1,7.4-1.6c-0.9-0.2-1.7-0.3-2.6-0.5c-0.3,0-0.6-0.2-0.9-0.1C19.1,53.9,17.8,54.6,16.4,55.2z
		 M22.2,52.6c0,0.1,0,0.1,0,0.2c1,0.1,2,0.3,2.9,0.4c0.1,0,0.4,0,0.4-0.1c0-0.1,0-0.4-0.1-0.5c-0.3-0.2-0.6-0.4-1-0.4
		C23.7,52.3,23,52.5,22.2,52.6L22.2,52.6z"/>
	<path class="st2" d="M71.1,46.8H59.2c0,0.3,0,0.5,0,0.8c0,0.7,0,1.3,0,2c0,0.5-0.2,0.6-0.6,0.6c-1.8-0.1-3.6-0.2-5.4-0.3
		c-2.3-0.2-4.6-0.4-6.9-0.7c-2.5-0.2-4.8-0.9-7-2c-1.7-0.9-3.6-1.5-5.5-2.2c-5.6-2-11.3-4-17-6c-2.9-1-5.8-1.8-8.8-2.3
		c-0.2,0-0.3-0.2-0.4-0.4c0.2-0.1,0.3-0.2,0.5-0.3c0.1,0,0.2,0,0.4,0c-0.1-0.8,0.2-1.7-0.2-2.5c-0.1-0.3,0-0.5,0.4-0.5
		c1.8,0.1,3.5,0.4,5.2,1c0.1,0,0.3,0.3,0.3,0.4c0,0.7,0,1.3,0,2c0,0.1-0.2,0.3-0.3,0.4c-0.1-0.1-0.3-0.2-0.3-0.4c0-0.5,0-1,0-1.5
		c0-0.1-0.1-0.4-0.2-0.4c-0.9-0.2-1.7-0.4-2.6-0.7v2.5c1.3,0.4,2.6,0.6,3.9,1.1c5.2,1.8,10.3,3.6,15.5,5.4c2.5,0.9,5,1.7,7.4,2.6
		c0.8,0.3,1.5,0.6,2.2,1c2,1.2,4.3,1.8,6.6,2c3,0.3,6,0.6,9,0.8c1,0.1,2,0.1,3,0.1c0.4,0,0.5-0.2,0.5-0.5c0-0.8,0-1.5,0-2.3
		c0-0.5,0.2-0.6,0.6-0.6c4,0,8.1,0,12.1,0c0.6,0,0.7,0.1,0.6,0.6c-0.4,1.9-0.9,3.7-1.4,5.6c0,0.1,0,0.3-0.1,0.3
		c-0.1,0.1-0.3,0.2-0.5,0.2c-0.1-0.2-0.2-0.3-0.2-0.5c0.2-0.9,0.6-1.8,0.8-2.7C70.7,48.8,70.9,47.8,71.1,46.8L71.1,46.8z M9.7,36.3
		v-2.4c-0.2,0-0.4,0-0.6,0v2.4C9.3,36.3,9.5,36.3,9.7,36.3L9.7,36.3z"/>
	<path class="st2" d="M54.2,32.5c-0.3,0-0.5,0-0.7,0c-0.1,0-0.2-0.2-0.4-0.3c0.1-0.1,0.2-0.3,0.3-0.3c0.2-0.1,0.5,0,0.8,0v-4.3
		c-0.3-0.2-1,0.2-0.9-0.5c0-0.6,0.6-0.2,1-0.4c0-0.1,0-0.3,0-0.5c0-1,0-2,0-3c0-0.2,0-0.5,0.3-0.5c0.1,0,0.3,0.3,0.3,0.5
		c0,1,0,1.9,0,2.9c0,0.2,0,0.4,0,0.6c0.7-0.1,0.8,0.2,0.8,0.8c0.1,4.1,0.3,8.2,0.4,12.3c0,0.1,0,0.2,0,0.4h9.7c0-0.5,0-1,0-1.4
		c0-0.1-0.2-0.3-0.4-0.3c-2.9-1.4-5.7-2.8-8.6-4.2c-0.1,0-0.2-0.1-0.2-0.1c-0.2-0.1-0.5-0.3-0.3-0.5c0.1-0.1,0.5-0.2,0.6-0.1
		c1.3,0.6,2.6,1.3,4,1.9c1.6,0.8,3.2,1.6,5,2.4v-1.2c0-0.4,0-0.7,0-1.1c0-0.3-0.2-0.7,0.3-0.7c0.5,0,0.3,0.5,0.4,0.8
		c0,0.8,0,1.5,0,2.3c0,0.2,0.1,0.4,0.2,0.5c0.2,0.2,0.6,0.2,0.4,0.5c-0.1,0.2-0.4,0.2-0.7,0.4V41c0,1.2,0,2.4,0,3.5
		c0,0.3,0.2,0.7-0.3,0.7c-0.5,0-0.3-0.4-0.3-0.7c0-1.2,0-2.4,0-3.6h-0.7c-4,0-8,0-12,0c-0.1,0-0.3,0-0.4,0c-0.2-0.1-0.3-0.2-0.5-0.3
		c0.2-0.1,0.3-0.3,0.4-0.3c0.5,0,0.9,0,1.5,0L54.2,32.5L54.2,32.5z M55.2,40.2c0,0,0.1-0.1,0.2-0.1c-0.1-2.5-0.2-5-0.3-7.5
		c-0.2,0-0.2,0.1-0.2,0.1c0,2.4,0,4.8,0,7.2C54.9,40,55.1,40.1,55.2,40.2L55.2,40.2z M55.1,29.4C55.1,29.4,55,29.4,55.1,29.4
		L55,31.7h0.1V29.4L55.1,29.4z"/>
	<path class="st2" d="M28.9,40.8v-8.6c-0.2,0-0.5,0-0.6,0c-0.1,0-0.2-0.2-0.4-0.3c0.1-0.1,0.2-0.3,0.4-0.4c0.2-0.1,0.4,0,0.6,0
		c0-0.2,0-0.4,0-0.6c0-1.8,0-3.7,0-5.5c0-0.3,0-0.7,0.5-0.6c0-0.3,0-0.5,0-0.6c-0.3-0.2-0.9,0.1-0.9-0.4c0-0.5,0.5-0.3,0.8-0.4
		c0-0.5,0-1,0-1.5c0-0.5,0-1,0-1.5c0-0.2,0-0.5,0.4-0.5c0.4,0,0.4,0.3,0.4,0.5c0,0.7,0,1.4,0,2.1c0.1,2.2,0.3,4.5,0.5,6.7
		c0.2,3.4,0.4,6.8,0.7,10.1c0,0.7,0.1,1.3,0.1,2c0,0.3,0.1,0.5,0.5,0.7c1.2,0.4,2.3,0.8,3.4,1.2c0.1,0,0.2,0,0.3,0.1
		c0.1,0.2,0.2,0.3,0.2,0.5c-0.2,0-0.3,0.2-0.5,0.1c-0.7-0.2-1.3-0.5-2-0.7c-0.6-0.2-1.2-0.4-1.9-0.7c0,0.2,0,0.3,0,0.4
		c-0.1,0.2-0.2,0.3-0.3,0.4c-0.1-0.1-0.4-0.3-0.4-0.4c0.1-0.7-0.4-0.8-0.9-1c-4.6-1.4-9.2-2.8-13.7-4.2c-0.1,0-0.1,0-0.1,0
		c-0.3-0.1-0.6-0.1-0.5-0.5c0.1-0.4,0.4-0.2,0.7-0.2c2,0.6,4.1,1.1,6.1,1.8c2.1,0.6,4.1,1.3,6.2,2C28.5,40.7,28.6,40.7,28.9,40.8
		L28.9,40.8z M29.9,32.1c-0.1,0-0.1,0-0.2,0c0,0.2-0.1,0.4-0.1,0.5c0,2.6,0,5.1,0,7.7c0,0.8,0.1,0.8,0.9,0.9
		C30.3,38.2,30.1,35.2,29.9,32.1L29.9,32.1z M29.6,31.4c0.1,0,0.1,0,0.2,0c0-0.6-0.1-1.2-0.1-1.9c0,0,0,0-0.1,0L29.6,31.4L29.6,31.4
		z"/>
	<path class="st2" d="M51.3,38.2h-1.1c-3.1,0-6.1,0-9.2,0c-0.1,0-0.2,0-0.3,0c-0.2-0.1-0.3-0.2-0.4-0.3c0.1-0.1,0.3-0.3,0.4-0.4
		c0.3-0.1,0.6,0,0.9,0v-3.7c-0.6,0-1.1-0.1-1.7-0.1c-2.6-0.2-5.2-0.6-7.8-1.2c-0.3-0.1-0.6-0.1-0.5-0.5c0.1-0.4,0.4-0.3,0.7-0.2
		c2.9,0.7,5.8,1.1,8.8,1.3c0.1,0,0.3,0,0.5,0c0-0.6,0-1.2,0-1.8c0-0.4,0-0.8,0-1.1c0-0.1,0.2-0.3,0.3-0.4c0.1,0.1,0.3,0.3,0.4,0.4
		c0,0.9,0,1.7,0,2.6c0,0.4,0.1,0.5,0.5,0.5c2.3-0.1,4.7-0.2,7.1-0.3c0-0.5,0-0.8,0-1.1c0-0.2,0.2-0.3,0.3-0.4
		c0.1,0.1,0.3,0.3,0.3,0.5c0.1,0.2,0,0.5,0,0.8c0.3,0,0.5-0.1,0.7,0c0.1,0,0.3,0.2,0.4,0.3c0,0.1-0.2,0.3-0.3,0.3
		c-0.2,0.1-0.7,0.1-0.7,0.2c-0.1,0.2-0.1,0.6-0.1,0.9c0,1,0,2,0,3.1c0.2,0,0.5,0,0.7,0c0.6,0,0.7,0,0.7,0.7c0,2.5,0,5.1,0,7.6
		c0,0.1,0,0.2,0,0.2c-0.1,0.1-0.2,0.3-0.3,0.4c-0.1-0.1-0.3-0.2-0.4-0.4c-0.1-0.1,0-0.3,0-0.4c0-2.2,0-4.5,0-6.8
		C51.3,38.7,51.3,38.5,51.3,38.2L51.3,38.2z M49.9,33.5c-2.5,0.1-5,0.3-7.6,0.4v3.5h0.8c0-0.5,0-0.9,0-1.4c0-0.3-0.2-0.7,0.3-0.7
		c0.5,0,0.3,0.5,0.4,0.8c0,0.5,0,0.9,0,1.4h6.1L49.9,33.5L49.9,33.5z"/>
	<path class="st2" d="M40.5,43.7c0,0.2,0,0.4,0,0.7h0.6c3,0,5.9,0,8.9,0c0.2,0,0.3,0,0.5,0c0.1,0,0.2,0.2,0.2,0.3s-0.1,0.3-0.2,0.3
		c-0.1,0.1-0.3,0-0.4,0c-2.3,0-4.7,0-7,0c-0.2,0-0.4,0-0.7,0c0,0.7,0,1.3,0,1.9c0,0.2,0,0.5-0.3,0.5c-0.3,0-0.3-0.2-0.3-0.5
		c0-0.6,0-1.2,0-1.8h-1.1c-0.2,0.3,0.1,0.8-0.5,0.8c-0.5,0-0.2-0.5-0.4-0.9c-0.1,0-0.3,0-0.5,0c-0.3,0-0.8,0.2-0.8-0.3
		c0-0.6,0.5-0.3,0.8-0.4c0.2,0,0.3,0,0.5,0c0-0.2,0-0.4,0-0.6c-0.5,0-1,0-1.5,0c-0.3,0-0.5,0-0.5-0.3c0-0.1,0.3-0.3,0.5-0.3
		c0.2-0.1,0.4,0,0.7,0c0-0.9,0-1.7,0-2.6c0-0.3,0-0.5,0.3-0.5c0.4,0,0.3,0.3,0.3,0.5c0,0.8,0,1.7,0,2.6c0.2,0,0.4,0,0.5,0
		c3.3,0,6.7,0,10,0c0.1,0,0.3,0,0.4,0c0.1,0.1,0.3,0.2,0.3,0.4c0,0.1-0.2,0.2-0.3,0.3c-0.1,0-0.3,0-0.4,0c-3,0-6.1,0-9.2,0
		L40.5,43.7L40.5,43.7z"/>
	<path class="st2" d="M72.5,55.6c0.6,0.2,1.3,0.4,1.8,0.6c0.2,0.1,0.2,0.3,0.3,0.4c-0.2,0.1-0.4,0.2-0.6,0.2
		c-1.7-0.7-3.4-0.9-5.2-0.6c-0.1,0-0.4-0.1-0.4-0.2c0-0.1,0.1-0.4,0.2-0.4c0.7-0.2,1.5-0.5,2.2-0.6c0.7-0.1,1.5-0.1,2.2-0.2
		c0.7-0.1,1.3-0.4,1.8-1c-0.6,0.2-1,0.3-1.5,0.4c-0.3,0.1-0.7,0.2-1,0.2c-0.1,0-0.3-0.2-0.4-0.3c0.1-0.1,0.2-0.3,0.3-0.4
		c1-0.3,2-0.6,3.1-0.9c0.4-0.1,0.6,0.1,0.5,0.5c-0.4,1.3-1.4,1.9-2.6,2.2C73.1,55.5,72.8,55.6,72.5,55.6L72.5,55.6z"/>
	<path class="st2" d="M14.9,36.4c-0.1-0.1-0.3-0.2-0.3-0.3c0-0.1,0.1-0.3,0.2-0.4c0.3-0.1,0.6-0.2,0.9-0.3c4.2-1.4,8-3.4,11.5-6
		c0.2-0.1,0.4-0.5,0.7-0.1c0.2,0.3,0,0.5-0.3,0.7c-3.7,2.8-7.8,4.9-12.3,6.3C15.2,36.3,15.1,36.4,14.9,36.4L14.9,36.4z"/>
	<path class="st2" d="M44.6,39.7c-1.9,0-3.8,0-5.7,0c-0.2,0-0.3,0-0.4,0s-0.2-0.2-0.2-0.4c0-0.1,0.2-0.2,0.3-0.3c0.1,0,0.3,0,0.4,0
		c3.8,0,7.7,0,11.5,0c0.2,0,0.3,0,0.4,0c0.1,0,0.2,0.2,0.2,0.3c0,0.1-0.1,0.3-0.2,0.3c-0.1,0.1-0.3,0-0.5,0
		C48.4,39.7,46.5,39.7,44.6,39.7z"/>
	<path class="st2" d="M37.6,49.2c0.7,0,1.3,0,2,0c0.2,0,0.3,0.2,0.5,0.3c-0.2,0.1-0.3,0.3-0.5,0.3c-1.3,0-2.6,0.1-3.8,0
		c-1.2,0-1.9-0.8-1.8-1.8c0-0.7,0.9-1.5,1.6-1.4c0.1,0,0.3,0.1,0.3,0.2c0,0.1,0,0.3-0.1,0.4c0,0.1-0.2,0.1-0.3,0.1
		c-0.6,0.2-0.8,0.5-0.8,0.9c0,0.5,0.5,0.8,1.1,0.9C36.3,49.2,37,49.2,37.6,49.2C37.6,49.2,37.6,49.2,37.6,49.2L37.6,49.2z"/>
	<path class="st2" d="M43.7,40.7c0.2,0,0.4,0,0.5,0c0.1,0,0.3,0.2,0.3,0.3c0,0.1-0.1,0.3-0.2,0.3c-0.4,0-0.8,0-1.1,0
		c-0.1,0-0.3-0.2-0.3-0.4c0-0.1,0.2-0.2,0.3-0.3C43.4,40.6,43.5,40.7,43.7,40.7L43.7,40.7z"/>
	<path class="st2" d="M54.2,42.8c-0.2,0-0.4,0-0.5,0c-0.1,0-0.3-0.2-0.3-0.3c0-0.1,0.2-0.3,0.3-0.3c0.3,0,0.7,0,1,0
		c0.1,0,0.3,0.2,0.3,0.3c0,0.1-0.2,0.3-0.3,0.4C54.6,42.8,54.4,42.8,54.2,42.8L54.2,42.8z"/>
	<path class="st2" d="M59.2,42.1c0.2,0,0.3,0,0.5,0c0.1,0,0.3,0.2,0.3,0.3c0,0.1-0.2,0.3-0.3,0.3c-0.3,0-0.7,0-1,0
		c-0.1,0-0.3-0.2-0.3-0.3c0-0.1,0.2-0.3,0.3-0.3C58.8,42,59,42.1,59.2,42.1L59.2,42.1z"/>
	<path class="st2" d="M61.7,42.1c0.2,0,0.3,0,0.5,0c0.1,0.1,0.3,0.2,0.3,0.3c0,0.1-0.2,0.3-0.3,0.3c-0.3,0-0.7,0-1,0
		c-0.1,0-0.2-0.2-0.4-0.3c0.1-0.1,0.2-0.3,0.4-0.3C61.3,42,61.5,42.1,61.7,42.1L61.7,42.1z"/>
	<path class="st2" d="M46.2,40.7c0.2,0,0.3,0,0.5,0c0.1,0,0.3,0.2,0.3,0.3c0,0.1-0.2,0.4-0.3,0.4c-0.4,0-0.7,0-1.1,0
		c-0.1,0-0.3-0.2-0.3-0.4c0-0.1,0.2-0.2,0.3-0.3C45.9,40.6,46,40.7,46.2,40.7L46.2,40.7z"/>
	<path class="st2" d="M41.2,41.4c-0.2,0-0.3,0-0.5,0c-0.1-0.1-0.3-0.2-0.3-0.3c0-0.1,0.2-0.3,0.3-0.3c0.3,0,0.7,0,1,0
		c0.1,0,0.2,0.2,0.4,0.3c-0.1,0.1-0.2,0.3-0.4,0.4C41.6,41.4,41.4,41.4,41.2,41.4L41.2,41.4L41.2,41.4z"/>
	<path class="st2" d="M48.7,40.7c0.1,0,0.3,0,0.4,0c0.2,0.1,0.3,0.2,0.5,0.3c-0.2,0.1-0.3,0.3-0.5,0.3c-0.3,0.1-0.6,0.1-0.8,0
		c-0.2,0-0.3-0.2-0.4-0.4c0.1-0.1,0.3-0.2,0.4-0.3C48.4,40.6,48.5,40.7,48.7,40.7L48.7,40.7z"/>
	<path class="st2" d="M56.7,42.1c0.2,0,0.3,0,0.5,0c0.1,0.1,0.2,0.2,0.4,0.3c-0.1,0.1-0.2,0.3-0.4,0.3c-0.3,0-0.7,0-1,0
		c-0.1,0-0.2-0.2-0.4-0.4c0.1-0.1,0.2-0.3,0.4-0.3C56.4,42,56.6,42.1,56.7,42.1L56.7,42.1z"/>
	<path class="st2" d="M64.1,42.8c-0.2,0-0.4,0-0.5,0c-0.1,0-0.3-0.2-0.3-0.4c0-0.1,0.2-0.3,0.3-0.3c0.3,0,0.7,0,1,0
		c0.1,0,0.3,0.2,0.3,0.3c0,0.1-0.2,0.3-0.3,0.3C64.4,42.8,64.2,42.8,64.1,42.8C64.1,42.8,64.1,42.8,64.1,42.8z"/>
	<path class="st2" d="M15.1,40.1c0.4,0.1,0.7,0.2,1.1,0.4c0.1,0,0.2,0.3,0.1,0.4c0,0.1-0.2,0.2-0.4,0.2c-0.3-0.1-0.7-0.2-1-0.3
		c-0.1,0-0.2-0.3-0.2-0.4C14.8,40.2,15,40.2,15.1,40.1z"/>
	<path class="st2" d="M42.7,50.1c-0.1,0.2,0.2,0.7-0.3,0.7c-0.5,0-0.3-0.5-0.4-0.8c0-0.1,0-0.1,0-0.2c0-0.3,0-0.6,0.4-0.6
		s0.3,0.3,0.3,0.5C42.7,49.9,42.7,50,42.7,50.1z"/>
	<path class="st2" d="M41.5,49.9c-0.2,0.3-0.4,0.5-0.5,0.6c-0.4,0-0.3-0.3-0.3-0.6c0-0.3,0-0.6,0.3-0.6
		C41.1,49.3,41.3,49.6,41.5,49.9L41.5,49.9z"/>
</g>
</svg>
