<?xml version="1.0" encoding="utf-8"?>
<!-- Generator: Adobe Illustrator 27.3.1, SVG Export Plug-In . SVG Version: 6.00 Build 0)  -->
<svg version="1.1" id="_レイヤー_2" xmlns="http://www.w3.org/2000/svg" xmlns:xlink="http://www.w3.org/1999/xlink" x="0px"
	 y="0px" viewBox="0 0 24 30" style="enable-background:new 0 0 24 30;" xml:space="preserve">
<style type="text/css">
	.st0{fill:#1E3246;}
	.st1{font-family:'AvenirNext-UltraLight';}
	.st2{font-size:7.09px;font-weight:bold}
</style>
<g>
	<path class="st0" d="M0,29.4C0,29.7,0.3,30,0.6,30h18.5c0.1,0,0.3,0,0.4-0.1c0,0,0.1,0,0.1,0c3.8-0.9,4.4-5.1,4.5-5.3
		c0,0,0,0,0-0.1V0.6C24,0.3,23.8,0,23.4,0H0.6C0.3,0,0,0.3,0,0.6V29.4z M19.1,24c-0.3,0-0.6,0.3-0.6,0.6v4.2H1.1V1.1h21.7V24
		L19.1,24L19.1,24z M19.6,28.6v-3.5h3C22.4,26.2,21.5,28,19.6,28.6z"/>
	<text transform="matrix(1 0 0 1 5.21 16.16)" class="st0 st1 st2">PDF</text>
</g>
</svg>
