<?xml version="1.0" encoding="utf-8"?>
<!-- Generator: Adobe Illustrator 27.3.1, SVG Export Plug-In . SVG Version: 6.00 Build 0)  -->
<svg version="1.1" id="_レイヤー_2" xmlns="http://www.w3.org/2000/svg" xmlns:xlink="http://www.w3.org/1999/xlink" x="0px"
	 y="0px" viewBox="0 0 80 80" style="enable-background:new 0 0 80 80;" xml:space="preserve">
<style type="text/css">
	.st0{fill:#FFFFFF;}
	.st1{fill:#A0D2F0;}
	.st2{fill:none;stroke:#1E3246;stroke-width:0.99;stroke-linecap:round;stroke-linejoin:round;}
	.st3{fill:none;stroke:#1E3246;stroke-width:0.99;stroke-miterlimit:10;}
</style>
<ellipse class="st0" cx="40" cy="40" rx="40" ry="40"/>
<rect x="24.9" y="28" class="st1" width="19.2" height="19.2"/>
<g>
	<polyline class="st2" points="29.9,29.3 26,29.3 26,33.2 	"/>
	<polyline class="st2" points="39.5,29.3 43.3,29.3 43.3,33.2 	"/>
	<polyline class="st2" points="29.9,46.8 26,46.8 26,42.9 	"/>
	<polyline class="st2" points="39.5,46.8 43.3,46.8 43.3,42.9 	"/>
	<path class="st2" d="M64.2,66.6c0,0-4.3-3.4-4.3-11.5c0,0,0.9-11.8-0.6-13.9s-4-6.5-4.6-8.8s-4-2.5-5.5-6.2s-4.4-1-4.1,1.9
		c0.2,2.8,1.8,5.4,3.3,7.8c1.5,2.3,1.1,2.7,0.4,4.8c-0.7,2.1-2.5,4.1-3,9.6c-0.4,3.6,0.8,6.7,1.5,8.1"/>
	<path class="st2" d="M45.9,25.2v-9.5c0-1.1-0.9-2-2-2H25.3c-1.1,0-2,0.9-2,2v19.3"/>
	<line class="st2" x1="45.9" y1="49.6" x2="45.9" y2="31.4"/>
	<path class="st2" d="M23.3,54.7v3.5c0,1.1,0.9,2,2,2h18.6c1.1,0,2-0.9,2-2v-4.5"/>
	<path class="st2" d="M46.4,72.7c-2-2.6-2.2-4-5-5.3c-2.8-1.3-6.5-2.9-8.9-7.2"/>
	<path class="st2" d="M23.3,26.5c0,0-3.5-3-5.3-0.8c-1.7,1.9,1,4.9,5.3,7.9"/>
	<path class="st2" d="M21.4,47.3c0.9,0.5,3.3,1.8,4.2,3.5c0.9,1.7-0.2,5.3-4.4,3c-4.2-2.3-3.5-3.9-3-5.2S20.3,46.6,21.4,47.3
		L21.4,47.3z"/>
	<path class="st2" d="M21.8,40.8c1.8,1.1,3.3,2.8,2.8,4.8c-0.5,2-1.9,2.4-3.2,1.7c-1.3-0.7-3.6-2.6-3.6-4.4
		C17.8,41.1,19.1,39.1,21.8,40.8z"/>
	<path class="st2" d="M21.8,34c1.9,1.3,2.4,2.1,2.3,4s-0.9,3.2-2.9,2.4c-1.8-0.7-2.5-1.5-2.8-2.4c-0.3-0.8-0.5-2.8,0.8-3.8
		C20.5,33.4,21.5,33.8,21.8,34L21.8,34z"/>
	<line class="st2" x1="38.2" y1="16.9" x2="33.1" y2="16.9"/>
	<line class="st2" x1="31" y1="16.9" x2="31" y2="16.9"/>
	<line class="st2" x1="38.2" y1="57.1" x2="31" y2="57.1"/>
	<rect x="28.5" y="31.9" class="st3" width="3.1" height="3.1"/>
	<rect x="30" y="33.4" class="st3" width="0.1" height="0.1"/>
	<rect x="28.5" y="41" class="st3" width="3.1" height="3.1"/>
	<rect x="30" y="42.5" class="st3" width="0.1" height="0.1"/>
	<rect x="37.6" y="31.9" class="st3" width="3.1" height="3.1"/>
	<rect x="39.1" y="33.4" class="st3" width="0.1" height="0.1"/>
	<line class="st3" x1="36.2" y1="32.8" x2="36.2" y2="31.9"/>
	<line class="st3" x1="35.5" y1="33.5" x2="33.3" y2="33.5"/>
	<line class="st3" x1="36.2" y1="34.2" x2="36.2" y2="36.6"/>
	<line class="st3" x1="29.4" y1="36.9" x2="28.5" y2="36.9"/>
	<polyline class="st3" points="30.1,39.9 30.1,38.2 31.9,38.2 	"/>
	<line class="st3" x1="33" y1="37.3" x2="31.9" y2="37.3"/>
	<line class="st3" x1="35.8" y1="36.6" x2="33" y2="36.6"/>
	<line class="st3" x1="40.7" y1="36.6" x2="39.4" y2="36.6"/>
	<polyline class="st3" points="39.3,38 37.3,38 37.3,40.5 	"/>
	<line class="st3" x1="36.9" y1="38.6" x2="35.7" y2="38.6"/>
	<line class="st3" x1="35.7" y1="39.6" x2="34.3" y2="39.6"/>
	<line class="st3" x1="40.7" y1="39.2" x2="39.3" y2="39.2"/>
	<line class="st3" x1="33" y1="41.4" x2="34.3" y2="41.4"/>
	<line class="st3" x1="36.2" y1="40.6" x2="36.2" y2="44.1"/>
	<line class="st3" x1="34.3" y1="42.3" x2="36.2" y2="42.3"/>
	<line class="st3" x1="33.6" y1="43.1" x2="33.6" y2="44.1"/>
	<polyline class="st3" points="37.3,41.7 39.1,41.7 39.1,44.1 40.6,44.1 	"/>
	<line class="st3" x1="33" y1="38.6" x2="34.3" y2="38.6"/>
	<line class="st3" x1="31.9" y1="38.6" x2="31.9" y2="39.9"/>
</g>
</svg>
