<?xml version="1.0" encoding="UTF-8"?>
<svg id="_レイヤー_2" data-name="レイヤー 2" xmlns="http://www.w3.org/2000/svg" viewBox="0 0 18.42 22.87">
  <defs>
    <style>
      .cls-1 {
        fill: #fff;
      }
    </style>
  </defs>
  <g id="_レイヤー_4のコピー" data-name="レイヤー 4のコピー">
    <g>
      <path class="cls-1" d="m13.28,9.61H5.18c-.27,0-.49.22-.49.49s.22.49.49.49h.93v8.47c0,.27.22.49.49.49s.49-.22.49-.49v-8.47h1.79v8.47c0,.27.22.49.49.49s.49-.22.49-.49v-8.47h1.5v8.47c0,.27.22.49.49.49s.49-.22.49-.49v-8.47h.97c.27,0,.49-.22.49-.49s-.22-.49-.49-.49Z"/>
      <path class="cls-1" d="m16.15,2.2h-4.01v-1.01c0-.65-.53-1.19-1.19-1.19h-3.45c-.65,0-1.19.53-1.19,1.19v1.01H2.27c-1.25,0-2.27,1.02-2.27,2.27v.52c0,.98.63,1.82,1.51,2.14v12.53c0,1.77,1.44,3.21,3.21,3.21h8.99c1.77,0,3.21-1.44,3.21-3.21V7.13c.88-.32,1.51-1.15,1.51-2.14v-.52c0-1.25-1.02-2.27-2.27-2.27ZM7.3,1.19c0-.12.1-.21.21-.21h3.45c.12,0,.21.1.21.21v1.01h-3.87v-1.01Zm8.65,18.47c0,1.23-1,2.24-2.24,2.24H4.72c-1.23,0-2.24-1-2.24-2.24V7.26h13.46v12.39Zm1.51-14.67c0,.72-.58,1.3-1.3,1.3H2.27c-.72,0-1.3-.58-1.3-1.3v-.52c0-.72.58-1.3,1.3-1.3h13.88c.72,0,1.3.58,1.3,1.3v.52Z"/>
    </g>
  </g>
</svg>