<?xml version="1.0" encoding="UTF-8"?>
<svg id="_レイヤー_2" data-name="レイヤー 2" xmlns="http://www.w3.org/2000/svg" viewBox="0 0 34.16 31.42">
  <defs>
    <style>
      .cls-1 {
        fill: #223144;
      }
    </style>
  </defs>
  <g id="_01" data-name="01">
    <g>
      <path class="cls-1" d="m31.25,2.69c-.08-.05-.18-.08-.28-.08V.66c0-.36-.29-.66-.66-.66h-3c-.36,0-.66.3-.66.66v1.95c-.35.02-.62.3-.62.66v23.06c0,.33.25.61.57.65.57,1.08,1.33,2.5,1.55,2.93v.86c0,.36.29.66.66.66s.66-.3.66-.66v-.86c.22-.42.98-1.85,1.55-2.92.32-.04.57-.32.57-.65V4.15c.78.32,1.25.96,1.25,1.83v7.14c0,.36.3.66.66.66s.66-.3.66-.66v-7.14c0-1.71-1.16-2.97-2.9-3.29Zm-3.9,1.23h2.93v13.18h-2.93V3.92Zm2.31-2.61v1.29h-1.68v-1.29h1.68Zm.39,24.7c-.56,1.05-.96,1.79-1.23,2.31-.28-.52-.67-1.26-1.23-2.31-.06-.1-.14-.19-.23-.25v-7.34h2.93v7.35c-.09.06-.17.14-.23.25Z"/>
      <g>
        <path class="cls-1" d="m15.48,12.05H6.63c-.36,0-.66-.3-.66-.66s.29-.66.66-.66h8.85c.36,0,.66.29.66.66s-.29.66-.66.66Z"/>
        <path class="cls-1" d="m9.84,9.04h-3.2c-.36,0-.66-.3-.66-.66s.29-.66.66-.66h3.2c.36,0,.66.3.66.66s-.29.66-.66.66Z"/>
        <path class="cls-1" d="m9.84,23.54h-3.2c-.36,0-.66-.3-.66-.66s.29-.66.66-.66h3.2c.36,0,.66.3.66.66s-.29.66-.66.66Z"/>
        <path class="cls-1" d="m14.2,14.94h-7.57c-.36,0-.66-.29-.66-.66s.29-.66.66-.66h7.57c.36,0,.66.3.66.66s-.29.66-.66.66Z"/>
        <path class="cls-1" d="m15.48,17.8H6.63c-.36,0-.66-.3-.66-.66s.29-.66.66-.66h8.85c.36,0,.66.3.66.66s-.29.66-.66.66Z"/>
        <path class="cls-1" d="m24.3,8.53c0-.21-.1-.4-.26-.52L16.29.26s-.09-.07-.14-.1c-.01,0-.03-.01-.04-.02-.05-.02-.1-.04-.16-.06,0,0,0,0,0,0-.04,0-.08-.01-.12-.01H.66C.29.06,0,.36,0,.72v29.97c0,.36.29.66.66.66h22.98c.36,0,.66-.3.66-.66V8.62s0-.06,0-.09Zm-2.26-.66h-5.56V2.31l.03.03,5.53,5.53ZM1.32,30.04V1.38h13.85v7.15c0,.36.29.66.66.66h7.15v20.85H1.32Z"/>
      </g>
    </g>
  </g>
</svg>