<?xml version="1.0" encoding="utf-8"?>
<!-- Generator: Adobe Illustrator 27.3.1, SVG Export Plug-In . SVG Version: 6.00 Build 0)  -->
<svg version="1.1" id="_レイヤー_2" xmlns="http://www.w3.org/2000/svg" xmlns:xlink="http://www.w3.org/1999/xlink" x="0px"
	 y="0px" viewBox="0 0 80 80" style="enable-background:new 0 0 80 80;" xml:space="preserve">
<style type="text/css">
	.st0{fill:#FFFFFF;}
	.st1{fill:#1E3246;}
	.st2{fill:#A0D2F0;}
</style>
<ellipse class="st0" cx="40" cy="40" rx="40" ry="40"/>
<g>
	<path class="st1" d="M52,44.5c-0.7,2-2,3.6-3.5,4.9c-0.1,0.1-0.2,0.3-0.3,0.5c-0.2,2.4-0.3,4.9-0.5,7.3c0,0.2,0,0.4,0,0.5
		c-0.1,0.1-0.3,0.3-0.5,0.3c-0.1,0-0.2-0.2-0.3-0.4c0-0.2,0-0.4,0-0.6c0.1-2.1,0.3-4.2,0.4-6.2c0-0.1,0-0.3,0-0.5
		c-0.5,0.3-0.9,0.7-1.3,1c-1.7,1.1-3.4,2-5.4,2.2c-1.1,0.1-2.2-0.1-3.3-0.5c-3.2-1.1-6.1-2.7-8.3-5.3c-0.7-0.9-1.3-1.9-1.9-2.8
		c-0.6,0.6-1.1,1.4-1.9,2c-0.9,0.7-1.8,1.2-2.8,1.8c-0.2,0.1-0.5,0.3-0.7-0.1c-0.2-0.4,0.1-0.5,0.4-0.7c2-0.9,3.4-2.3,4.5-4
		c-0.1-0.4-0.3-0.7-0.2-1c0.3-2,0.6-4,0.8-6c0.2-1.4,0.2-2.9,0.3-4.3c0.1-2.5,0.3-5.1,1.3-7.5c0.9-2.1,2.3-3.9,4.6-4.8
		c0.3-0.1,0.7-0.5,0.9,0c0.3,0.6-0.3,0.6-0.6,0.7c-2.1,0.8-3.3,2.4-4.1,4.4c-0.7,1.7-1,3.5-1.1,5.4c-0.2,3.8-0.5,7.6-1.1,11.4
		c0,0.1,0,0.2,0.1,0.3c0.1-0.3,0.2-0.5,0.4-0.8c1-2.4,1.5-4.9,1.8-7.4c0.4-2.8,0.7-5.6,1.6-8.4c0.5-1.5,1.2-2.8,2.4-3.7
		c1.3-1,2.8-1.5,4.4-1c0.2,0,0.4,0.1,0.5,0.2c0.1,0.1,0.2,0.4,0.1,0.5c0,0.1-0.3,0.2-0.4,0.2c-1.1-0.4-2.2-0.3-3.2,0.3
		c-1.2,0.7-2,1.7-2.6,2.9c-0.9,1.9-1.2,3.9-1.5,5.9c-0.5,3.1-0.7,6.2-1.7,9.1c-0.3,1-0.9,2-1.2,3c-0.1,0.2-0.1,0.5,0,0.8
		c1.4,3.4,4,5.5,7.3,7.1c1,0.5,2.2,0.9,3.3,1.2c1.5,0.5,3.1,0.4,4.6-0.3c2.7-1.3,5.2-2.9,7-5.3c0.6-0.8,1-1.9,1.5-2.9
		c0.1-0.2,0-0.5,0-0.7C50,40.6,49.5,37.8,49,35c-0.5-2.8-0.9-5.6-1.5-8.3c-0.3-1.4-1-2.7-2.1-3.7c-1.2-1.1-2.6-1.5-4.2-1.1
		c-0.2,0-0.4-0.1-0.5-0.2c0.1-0.2,0.2-0.5,0.3-0.5c1-0.4,2.1-0.3,3.1,0.1c1.8,0.7,2.9,2.1,3.6,3.8c0.8,1.9,1.2,4,1.5,6
		c0.5,2.9,0.7,5.9,1.6,8.7c0.8,2.4,1.8,4.7,3.8,6.4c0.7,0.6,1.6,1.1,2.4,1.6c0.1,0,0.2,0,0.3,0.1c0.1,0.2,0.2,0.4,0.3,0.6
		c-0.2,0-0.5,0.2-0.6,0.1c-1.6-0.6-2.9-1.6-4-2.9C52.7,45.3,52.4,44.9,52,44.5L52,44.5z"/>
	<path class="st1" d="M20.6,34.4c0-2.9-0.1-5.8,0-8.6c0.4-8.8,7-15.8,15.7-16.9c0.4-0.1,0.8-0.1,1.2-0.1c0.3,0,0.6,0.1,0.5,0.4
		c0,0.2-0.3,0.4-0.5,0.4c-1.2,0.2-2.4,0.3-3.5,0.6c-7,2-11,6.7-12.4,13.7c-0.6,2.8-0.4,5.6-0.3,8.4c0,2.8,0.1,5.5,0.2,8.3
		c0,0.5,0.1,1.1,0,1.7c0,0.2-0.2,0.4-0.4,0.6c-0.1-0.2-0.4-0.3-0.4-0.5c-0.1-1.2-0.1-2.3-0.1-3.5c0-1.5,0-2.9,0-4.4
		C20.7,34.4,20.6,34.4,20.6,34.4L20.6,34.4z"/>
	<path class="st1" d="M57.9,34.8c0-3.4,0.1-6.2,0-9.1c-0.5-8.3-6.3-14.7-14.5-16.1c-0.5-0.1-1.1-0.1-1.7-0.2c-0.2,0-0.5-0.3-0.5-0.4
		c0-0.4,0.3-0.4,0.6-0.4c4.9,0.3,9,2.2,12.3,5.9c2.8,3.2,4.4,6.9,4.5,11.2c0.1,3.7,0,7.4,0,11c0,1.7-0.1,3.4-0.1,5
		c0,0.3,0.2,0.9-0.4,0.9c-0.6,0-0.4-0.5-0.4-0.8C57.8,39.4,57.8,36.8,57.9,34.8L57.9,34.8z"/>
	<path class="st1" d="M38.9,66.6c-4.6-0.1-9-1-13.2-2.7c-0.1-0.1-0.3-0.1-0.4-0.2c-0.1-0.1-0.2-0.3-0.2-0.4c0.1-0.1,0.2-0.3,0.4-0.3
		c0.1,0,0.3,0.1,0.4,0.1c4.4,1.8,9,2.7,13.8,2.6c4.2-0.1,8.3-0.9,12.2-2.5c0.1-0.1,0.3-0.2,0.4-0.2c0.2,0,0.4,0.2,0.6,0.2
		c-0.1,0.2-0.2,0.4-0.3,0.5c-2.8,1.2-5.8,2.1-8.9,2.5C42.1,66.4,40.5,66.5,38.9,66.6L38.9,66.6z"/>
	<path class="st1" d="M19.4,50.6c0-1.9,0.7-3.4,1.9-4.7c0.9-1,1.9-1.9,2.8-2.8c0.1-0.1,0.5-0.2,0.7,0c0.3,0.2,0.1,0.5-0.1,0.7
		c-1,1-2.2,2-3.1,3.2c-1,1.2-1.4,2.6-1.3,4.2c0.1,1.1,0.6,2,1.5,2.7c0.2,0.2,0.5,0.4,0.2,0.7c-0.1,0.1-0.5,0.1-0.7,0
		C19.9,53.4,19.4,52.1,19.4,50.6L19.4,50.6z"/>
	<path class="st1" d="M59.9,50.4c0,1.7-0.5,3-1.8,4c-0.2,0.1-0.6,0.2-0.7,0.1c-0.3-0.3,0-0.5,0.2-0.7c1.4-1.1,1.9-2.9,1.2-4.8
		c-0.5-1.7-1.7-3-3-4.2c-0.4-0.4-0.8-0.7-1.2-1.1c-0.1-0.1-0.1-0.4-0.1-0.6c0.2,0,0.5-0.1,0.6,0c1.9,1.6,3.8,3.2,4.5,5.8
		c0.1,0.2,0.1,0.5,0.2,0.8C59.8,49.9,59.8,50.2,59.9,50.4z"/>
	<path class="st1" d="M56.5,58.4c0,1.1-0.5,1.8-1.2,2c-0.2,0-0.4-0.1-0.6-0.2c0.1-0.2,0.2-0.4,0.4-0.5c0.5-0.3,0.8-0.7,0.6-1.4
		c-0.2-0.6-0.5-1.2-0.8-1.8c-0.7-1.8,0.1-3.8,1.8-4.6c0.1-0.1,0.3-0.2,0.4-0.1c0.2,0,0.3,0.2,0.5,0.2c-0.1,0.2-0.2,0.3-0.2,0.5
		c0,0.1-0.2,0.1-0.3,0.1c-1.4,0.6-2,2.1-1.5,3.6c0.1,0.4,0.3,0.7,0.5,1.1C56.2,57.7,56.4,58.2,56.5,58.4L56.5,58.4z"/>
	<path class="st1" d="M31.1,51.8c0-0.2,0-0.4,0-0.6c0-0.2,0.2-0.3,0.3-0.4c0.1,0.1,0.4,0.2,0.4,0.4c0.1,0.6,0.1,1.1,0.1,1.7
		c0.2,2.4,0.3,4.8,0.5,7.1c0,0.1,0,0.2,0,0.3c-0.1,0.2-0.2,0.3-0.4,0.5c-0.1-0.1-0.4-0.3-0.4-0.4c-0.1-0.9-0.2-1.9-0.2-2.8
		C31.4,55.6,31.3,53.7,31.1,51.8C31.1,51.8,31.1,51.8,31.1,51.8L31.1,51.8z"/>
	<path class="st1" d="M22.5,62.3c0-0.2-0.1-0.3-0.1-0.5c0-0.2,0.1-0.4,0.2-0.5c0.2-0.1,0.5-0.2,0.7-0.2c2.6-0.8,4.9-2,7.1-3.6
		c0.2-0.1,0.6-0.2,0.7-0.1c0.3,0.3,0.1,0.5-0.2,0.7c0,0,0,0,0,0c-1.7,1.2-3.5,2.3-5.4,3c-0.7,0.3-1.5,0.5-2.2,0.8
		c-0.1,0-0.2,0.1-0.4,0.1C22.6,62.1,22.6,62.2,22.5,62.3L22.5,62.3z"/>
	<path class="st1" d="M56.6,62.1c-0.8-0.3-1.4-0.5-2.1-0.7c-2.1-0.8-4-1.8-5.8-3.2c-0.1-0.1-0.3-0.2-0.3-0.3c-0.1-0.2-0.1-0.4,0-0.6
		c0.1-0.1,0.3-0.1,0.5,0c0.1,0,0.2,0.1,0.3,0.2c2.2,1.6,4.7,2.9,7.3,3.7c0.1,0,0.2,0,0.3,0.1c0.1,0.2,0.2,0.3,0.2,0.5
		C56.9,61.9,56.7,62,56.6,62.1L56.6,62.1z"/>
	<path class="st1" d="M21.7,51.9c0.1-0.1,0.3-0.3,0.4-0.3c0.2,0.1,0.4,0.3,0.4,0.5c0.4,1.6,1.1,2.9,2.5,3.9c0.7,0.5,1.5,0.8,2.3,1.2
		c0.2,0.1,0.3,0.3,0.4,0.5c-0.2,0.1-0.4,0.3-0.6,0.2c-2.5-0.5-5-3.2-5.4-5.7C21.7,52.2,21.7,52.1,21.7,51.9z"/>
	<path class="st1" d="M39.2,47.3c-1.3,0-2.4-0.7-3.2-1.7c-0.1-0.1,0-0.4,0-0.6c0.2,0,0.4,0.1,0.6,0.1c0,0,0,0,0.1,0.1
		c1.9,1.8,3.8,1.7,5.5-0.3c0.1-0.1,0.2-0.3,0.3-0.3c0.2,0,0.4-0.1,0.5,0c0.1,0.1,0.1,0.4,0,0.5C42,46.4,40.9,47.3,39.2,47.3
		L39.2,47.3z"/>
	<path class="st1" d="M36,36.2c-0.1,0.1-0.2,0.2-0.4,0.3c-0.2-0.2-0.3-0.3-0.4-0.5c-0.1-0.3-0.1-0.7-0.3-1c-0.1-0.2-0.3-0.4-0.5-0.4
		c-0.2,0-0.4,0.2-0.5,0.4c-0.1,0.3-0.1,0.7-0.3,1c-0.1,0.2-0.3,0.3-0.4,0.5c-0.1-0.2-0.3-0.4-0.3-0.5c0.1-0.5,0.2-0.9,0.4-1.4
		c0.1-0.3,0.1-0.4-0.1-0.7c-0.1-0.2-0.2-0.5-0.2-0.7c0.2-0.3,0.5-0.1,0.7,0.1c0.3,0.2,0.6,0.4,1,0.5C35.4,34.1,36,35,36,36.2
		L36,36.2z"/>
	<path class="st1" d="M44.3,34c-0.1-0.2-0.2-0.3-0.3-0.4s0-0.3,0.1-0.4c0.1-0.1,0.4-0.1,0.5-0.1c0.8,0.7,2,1.3,2,2.6
		c0,0.3,0.1,0.7-0.3,0.7c-0.4,0-0.4-0.3-0.5-0.6s-0.1-0.6-0.2-0.8c-0.1-0.2-0.3-0.4-0.5-0.4c-0.2,0-0.4,0.2-0.5,0.4
		c-0.1,0.3-0.1,0.6-0.2,0.9c-0.1,0.2-0.3,0.3-0.4,0.5c-0.1-0.2-0.4-0.3-0.3-0.5C43.6,35.3,43.8,34.6,44.3,34L44.3,34z"/>
	<path class="st1" d="M44,7.8c-0.1,0.5-0.3,0.6-0.7,0.6C41.8,8,40.4,8.7,39.6,10c0,0.1-0.1,0.2-0.1,0.2c-0.2,0.1-0.4,0.2-0.6,0.2
		c0-0.2-0.2-0.4-0.1-0.6c0.6-1.3,1.6-2.2,3-2.4c0.5-0.1,1.1,0,1.7,0C43.7,7.5,43.8,7.7,44,7.8L44,7.8z"/>
	<path class="st1" d="M44.4,27.8c1,0,1.7,0.4,2.3,1.1c0.1,0.1,0.1,0.4,0.1,0.6c-0.2,0-0.6,0-0.7-0.1c-0.6-0.6-1.3-0.9-2.1-0.8
		c-0.2,0-0.3-0.2-0.5-0.3c0.1-0.2,0.2-0.4,0.4-0.5C44.1,27.8,44.3,27.8,44.4,27.8L44.4,27.8z"/>
	<path class="st1" d="M34.7,27.8c0.1,0,0.3,0,0.5,0.1c0.1,0.1,0.3,0.3,0.3,0.4c-0.1,0.2-0.3,0.4-0.4,0.4c-0.9-0.2-1.7,0.1-2.3,0.8
		c-0.1,0.1-0.4,0-0.6,0c0-0.2,0-0.4,0.1-0.5C32.8,28.2,33.6,27.8,34.7,27.8L34.7,27.8z"/>
	<path class="st1" d="M39.6,39.4c-0.3,0.4-0.6,0.7-0.9,1c-0.1-0.1-0.3-0.3-0.4-0.4c0-0.4,0.4-1.1,0.7-1
		C39.2,39.1,39.4,39.2,39.6,39.4L39.6,39.4z"/>
</g>
<g>
	<path class="st2" d="M55.8,61.3v-5.2c0,0,0,0,0,0v0c0,0,0-1.3-0.8-2.1c-0.5-0.5-1.2-0.7-2-0.7c-2.9,0-3,2.8-3,2.9v5.1h-3.2v8.3
		h12.2v-8.3H55.8z M51.1,56.1C51.1,56.1,51.1,56.1,51.1,56.1c0-0.7,0.5-2,2-2c1,0,1.4,0.5,1.7,1c0.2,0.5,0.2,0.9,0.2,1v5.2h-3.9
		V56.1z"/>
	<path class="st1" d="M46.2,60.9v8.9c0,0.2,0.1,0.3,0.3,0.3h12.9c0.2,0,0.3-0.1,0.3-0.3v-8.9c0-0.2-0.1-0.3-0.3-0.3h-2.9V56
		c0-0.1,0-1.6-0.9-2.6c-0.6-0.6-1.4-0.9-2.5-0.9c-3.5,0-3.6,3.5-3.6,3.6v4.5h-2.9C46.4,60.6,46.2,60.8,46.2,60.9L46.2,60.9z
		 M50.1,56.1c0-0.1,0.1-2.9,3-2.9c0.9,0,1.6,0.2,2,0.7c0.8,0.8,0.8,2.1,0.8,2.1c0,0,0,0,0,0v4.6h-0.9v-4.5c0,0,0-0.5-0.2-1
		c-0.2-0.5-0.7-1-1.7-1c-1.5,0-2,1.3-2,2c0,0,0,0,0,0v4.5h-1L50.1,56.1L50.1,56.1z M54.3,56.1v4.5h-2.6v-4.5c0,0,0-0.4,0.2-0.7
		c0.2-0.4,0.6-0.6,1.1-0.6C54.3,54.8,54.3,55.9,54.3,56.1L54.3,56.1z M46.9,61.3h12.2v8.3H46.9C46.9,69.5,46.9,61.3,46.9,61.3z"/>
	<path class="st1" d="M53,62.5c-0.9,0-1.6,0.7-1.6,1.6c0,0.8,0.5,1.4,1.2,1.5v1.6c0,0.2,0.1,0.3,0.3,0.3s0.3-0.1,0.3-0.3v-1.6
		c0.7-0.2,1.2-0.8,1.2-1.5C54.6,63.3,53.8,62.5,53,62.5L53,62.5z M53,65.1c-0.5,0-0.9-0.4-0.9-0.9s0.4-0.9,0.9-0.9s0.9,0.4,0.9,0.9
		S53.5,65.1,53,65.1z"/>
</g>
</svg>
