<?xml version="1.0" encoding="UTF-8"?>
<svg id="_レイヤー_2" data-name="レイヤー 2" xmlns="http://www.w3.org/2000/svg" viewBox="0 0 20 16.25">
  <defs>
    <style>
      .cls-1 {
        fill: #fff;
      }
    </style>
  </defs>
  <g id="_01" data-name="01">
    <path class="cls-1" d="m6.29,16.25c7.55,0,11.67-6.25,11.67-11.67,0-.18,0-.35-.01-.53.8-.58,1.5-1.3,2.05-2.12-.74.33-1.53.55-2.36.65.85-.51,1.5-1.31,1.8-2.27-.79.47-1.67.81-2.61,1-.75-.8-1.82-1.3-3-1.3-2.27,0-4.1,1.84-4.1,4.1,0,.32.04.64.11.94-3.41-.17-6.43-1.8-8.46-4.29-.35.61-.56,1.31-.56,2.06,0,1.42.72,2.68,1.83,3.42-.67-.02-1.31-.21-1.86-.51,0,.02,0,.03,0,.05,0,1.99,1.41,3.65,3.29,4.02-.34.09-.71.14-1.08.14-.26,0-.52-.03-.77-.07.52,1.63,2.04,2.82,3.83,2.85-1.4,1.1-3.17,1.76-5.1,1.76-.33,0-.66-.02-.98-.06,1.82,1.16,3.97,1.84,6.29,1.84"/>
  </g>
</svg>