<?xml version="1.0" encoding="UTF-8"?>
<svg id="_レイヤー_2" data-name="レイヤー 2" xmlns="http://www.w3.org/2000/svg" viewBox="0 0 33.09 37.38">
  <defs>
    <style>
      .cls-1 {
        fill: #fff;
      }
    </style>
  </defs>
  <g id="_レイヤー_4のコピー" data-name="レイヤー 4のコピー">
    <g>
      <path class="cls-1" d="m23.14,19.26c-.02-.07-.04-.14-.07-.2l-5.76-9.5c-.15-.32-.48-.53-.84-.53s-.68.21-.84.53l-5.76,9.5c-.03.06-.05.13-.07.2-.3,1.38-.42,2.26-.43,2.3,0,.04,0,.08,0,.12,0,3.91,3.18,7.1,7.1,7.1s7.1-3.18,7.1-7.1c0-.04,0-.08,0-.12,0-.04-.12-.93-.43-2.3Zm-6.66,7.66c-2.87,0-5.21-2.32-5.24-5.18.03-.21.14-.94.37-1.98l4.87-8.64,4.87,8.64c.23,1.04.34,1.77.37,1.98-.03,2.86-2.37,5.18-5.24,5.18Z"/>
      <path class="cls-1" d="m18.26,2.59l2.02-1.43c.29-.2.35-.6.15-.89-.2-.29-.6-.35-.89-.15l-3.36,2.38s-.02.02-.03.02c0,0-.02.01-.03.02,0,0-.01.01-.02.02-.02.02-.03.03-.05.05-.01.02-.03.03-.04.05-.01.02-.02.04-.03.05,0,.02-.02.04-.03.05,0,.02-.01.04-.02.06,0,.02-.01.04-.02.06,0,.02,0,.04,0,.06,0,.02,0,.04,0,.06,0,.02,0,.03,0,.05,0,.03,0,.05,0,.08,0,.28.18.52.43.6l2.58,2.86c.13.14.3.21.47.21.15,0,.31-.05.43-.16.26-.24.28-.64.05-.9l-1.69-1.88c7.66.81,13.64,7.31,13.64,15.18s-6.31,14.77-14.36,15.24c-.35.02-.62.32-.6.67.02.34.3.6.64.6.01,0,.03,0,.04,0,8.73-.51,15.56-7.77,15.56-16.52S26.58,3.45,18.26,2.59Z"/>
      <path class="cls-1" d="m14.85,34.69s0-.04,0-.06c0-.02,0-.04-.01-.06,0-.02-.01-.04-.02-.06,0-.02-.02-.04-.03-.06,0,0,0-.02-.01-.03,0-.01-.01-.02-.02-.03,0-.01-.01-.02-.02-.03l-2.48-3.44c-.21-.29-.6-.35-.89-.14-.29.21-.35.61-.14.89l1.58,2.19c-6.65-1.69-11.51-7.82-11.51-14.8S6.31,5.67,13.24,4.14c.34-.08.56-.42.49-.76-.08-.34-.42-.56-.76-.49C5.45,4.55,0,11.35,0,19.05s5.2,14.11,12.34,16l-2.03,1.13c-.31.17-.42.56-.25.87.12.21.33.33.56.33.11,0,.21-.03.31-.08l3.59-2.01s.03-.02.04-.03c0,0,.01,0,.02-.01,0,0,.01-.01.02-.02.02-.01.03-.03.05-.04.01-.01.03-.03.04-.04.01-.02.03-.03.04-.05.01-.02.02-.03.03-.05,0-.02.02-.04.03-.05,0-.02.02-.04.02-.06,0-.02.01-.04.02-.06,0-.02,0-.04.01-.06,0-.02,0-.04,0-.06,0-.02,0-.04,0-.06Z"/>
    </g>
  </g>
</svg>