<?xml version="1.0" encoding="utf-8"?>
<!-- Generator: Adobe Illustrator 27.4.1, SVG Export Plug-In . SVG Version: 6.00 Build 0)  -->
<svg version="1.1" id="レイヤー_1" xmlns="http://www.w3.org/2000/svg" xmlns:xlink="http://www.w3.org/1999/xlink" x="0px"
	 y="0px" viewBox="0 0 18 18" style="enable-background:new 0 0 18 18;" xml:space="preserve">
<style type="text/css">
	.st0{fill:#1e3246;}
</style>
<path class="st0" d="M14,1c0.3,0,0.5,0,0.8,0.1l-2.1,2.1L13,5l1.8,0.4l2.1-2.1C16.9,3.4,17,3.7,17,4c0,0.3,0,0.5-0.1,0.8
	C16.5,6.1,15.3,7,14,7c-0.3,0-0.5,0-0.8-0.1l-2.7,2.6l1,1l0.9-0.3c0.1,0,0.2-0.1,0.3-0.1c0.3,0,0.5,0.1,0.7,0.3l3.4,3.4
	c0.4,0.4,0.4,1,0,1.4l-1.6,1.6C15,16.9,14.7,17,14.5,17s-0.5-0.1-0.7-0.3l-3.4-3.4c-0.3-0.3-0.4-0.7-0.2-1l0.3-0.9l-1-1l-2.7,2.6
	C6.9,13.4,7,13.7,7,13.9c0,1.7-1.3,3-3,3c0,0,0,0,0,0c-1.7,0-3-1.3-3-3c0-0.3,0-0.6,0.1-0.8C1.5,11.8,2.7,11,4,11
	c0.3,0,0.6,0,0.8,0.1l2.6-2.7L4.8,5.8C4.6,5.6,4.3,5.5,4,5.5c0,0,0,0,0,0H4c0,0,0,0,0,0C3.6,5.5,3.3,5.3,3.2,5L1,2l1-1L5,3.2
	C5.3,3.3,5.5,3.6,5.5,4V4c0,0.3,0.1,0.5,0.3,0.7l2.7,2.7l2.6-2.7c-0.1-0.5-0.1-1.1,0-1.6C11.4,1.8,12.6,1,14,1 M15,15.5
	c0.1,0,0.3,0,0.4-0.1c0.2-0.2,0.2-0.5,0-0.7l-3-3c0,0,0,0,0,0c-0.1-0.1-0.2-0.1-0.4-0.1c-0.1,0-0.3,0-0.4,0.1c0,0,0,0,0,0
	c-0.2,0.2-0.2,0.5,0,0.7l3,3C14.7,15.4,14.8,15.5,15,15.5 M4,16l0.5-0.2l0.5,0l0.3-0.4L5.7,15l0-0.5L6,14l-0.2-0.5l0-0.5l-0.4-0.3
	L5,12.2l-0.5,0L4,12l-0.5,0.2l-0.5,0l-0.3,0.4L2.2,13l0,0.5L2,14l0.2,0.5l0,0.5l0.4,0.3L3,15.7l0.5,0L4,16 M14,0.4
	c-1.6,0-3.1,1.1-3.5,2.7c-0.1,0.5-0.2,1-0.1,1.5l-2,2L6.2,4.3C6.1,4.3,6.1,4.2,6.1,4V4c0-0.5-0.3-1-0.7-1.3L2.3,0.5
	C2.2,0.4,2.1,0.4,2,0.4c-0.2,0-0.3,0.1-0.4,0.2l-1,1C0.3,1.7,0.3,2.1,0.5,2.3l2.2,3.1C3,5.8,3.5,6.1,4,6.1H4c0.1,0,0.2,0,0.3,0.1
	l2.3,2.3l-2,2c-0.2,0-0.4-0.1-0.7-0.1c-1.6,0-3,1.1-3.5,2.6c-0.1,0.3-0.1,0.7-0.1,1c0,2,1.6,3.6,3.6,3.6c2,0,3.6-1.6,3.6-3.6
	c0-0.2,0-0.4-0.1-0.7l2-2l0.3,0.3l-0.2,0.6c-0.2,0.6,0,1.2,0.4,1.6l3.4,3.4c0.3,0.3,0.7,0.5,1.1,0.5s0.8-0.2,1.1-0.5l1.6-1.6
	c0.6-0.6,0.6-1.6,0-2.3L13.8,10c-0.3-0.3-0.7-0.5-1.1-0.5c-0.2,0-0.3,0-0.5,0.1l-0.6,0.2l-0.3-0.3l2-2c0.2,0,0.4,0,0.6,0
	c1.6,0,3.1-1.1,3.5-2.7c0.1-0.3,0.1-0.6,0.1-0.9c0-0.3,0-0.6-0.1-0.9c-0.1-0.2-0.2-0.4-0.4-0.4c-0.1,0-0.1,0-0.2,0
	c-0.2,0-0.3,0.1-0.4,0.2l-1.9,1.9l-1.1-0.2l-0.2-1.1l1.9-1.9c0.2-0.2,0.2-0.4,0.2-0.6c-0.1-0.2-0.2-0.4-0.4-0.4
	C14.6,0.4,14.3,0.4,14,0.4L14,0.4z M3.3,12.8l0.2,0c0.1,0,0.2,0,0.2-0.1L4,12.6l0.2,0.1c0.1,0,0.2,0.1,0.2,0.1l0.2,0L4.7,13
	c0,0.1,0.1,0.1,0.2,0.2l0.2,0.1l0,0.2c0,0.1,0,0.2,0.1,0.2L5.3,14l-0.1,0.2c0,0.1-0.1,0.2-0.1,0.2l0,0.2l-0.2,0.1
	c-0.1,0-0.1,0.1-0.2,0.2l-0.1,0.2l-0.2,0c-0.1,0-0.2,0-0.2,0.1L4,15.3l-0.2-0.1c-0.1,0-0.2-0.1-0.2-0.1l-0.2,0l-0.1-0.2
	c0-0.1-0.1-0.1-0.2-0.2l-0.2-0.1l0-0.2c0-0.1,0-0.2-0.1-0.2L2.6,14l0.1-0.2c0-0.1,0.1-0.2,0.1-0.2l0-0.2L3,13.2
	c0.1,0,0.1-0.1,0.2-0.2L3.3,12.8L3.3,12.8z"/>
</svg>
