<?xml version="1.0" encoding="utf-8"?>
<!-- Generator: Adobe Illustrator 27.3.1, SVG Export Plug-In . SVG Version: 6.00 Build 0)  -->
<svg version="1.1" id="_レイヤー_2" xmlns="http://www.w3.org/2000/svg" xmlns:xlink="http://www.w3.org/1999/xlink" x="0px"
	 y="0px" viewBox="0 0 20.3 20.5" style="enable-background:new 0 0 20.3 20.5;" xml:space="preserve">
<style type="text/css">
	.st0{fill:#FFFFFF;}
</style>
<g>
	<path class="st0" d="M3.3,3.7c-0.1,0-0.1,0-0.2,0c-0.1,0-1.6,0.6-2.3,1.5C0.4,5.6-0.2,7,0.1,9c0.4,3,2.4,5.6,4,7.3l0,0c0,0,0,0,0,0
		s0,0,0.1,0.1l0,0c3,3,5.6,3.8,7.3,4c0.3,0,0.6,0.1,0.9,0.1c1.6,0,2.6-0.5,2.9-0.8c0.2-0.2,0.4-0.4,0.6-0.6c0,0,0.1,0,0.1,0
		c0,0,0.1-0.1,0.1-0.2c0.4-0.7,0.7-1.4,0.7-1.4c0-0.1,0-0.1,0-0.2c0-0.1,0-0.3-0.1-0.4l-3.5-3.5c0,0,0,0,0,0L13,13.1
		c-0.1-0.1-0.2-0.1-0.3-0.1c-1.7,0.4-2.3,1.8-2.5,2.3c-0.1,0-2.1,0.1-3.7-1.5C4.9,12.3,5,10.4,5,10.2C5.6,10.1,7,9.4,7.4,7.8
		c0-0.1,0-0.2-0.1-0.3L7.2,7.3c0,0,0,0,0,0L3.6,3.7C3.5,3.6,3.4,3.6,3.3,3.7L3.3,3.7z M6.7,7.8C6.6,8.2,6.3,8.6,6.1,8.8L4.3,7
		C4.2,6.9,4,6.9,3.9,7c-0.1,0.1-0.1,0.3,0,0.5l1.7,1.8C5.1,9.6,4.8,9.7,4.7,9.7c-0.2,0-0.3,0.2-0.2,0.4c0,0-0.1,0.1-0.1,0.1
		c0,0.1-0.2,2.2,1.6,4.2c0,0,0,0,0,0c0,0,0,0,0.1,0.1c0,0,0,0,0,0c0,0,0,0,0,0c1.5,1.5,3.3,1.6,3.9,1.6c0.1,0,0.2,0,0.3,0
		c0.1,0,0.1,0,0.1-0.1c0.2,0,0.3-0.1,0.4-0.2c0,0,0.1-0.5,0.5-1.1l1.1,1c0.1,0.1,0.1,0.1,0.2,0.1s0.2,0,0.2-0.1
		c0.1-0.1,0.1-0.4,0-0.5l-1.1-1c0.2-0.2,0.5-0.4,0.9-0.5l0,0l3.4,3.4c0,0.1-0.2,0.6-0.5,1l-1.6-1.6c-0.1-0.1-0.4-0.1-0.5,0
		s-0.1,0.4,0,0.5l1.7,1.7c-0.1,0.1-0.2,0.3-0.4,0.4c-0.8,0.6-4.9,2-10.3-3.3c-5.4-5.4-4-9.5-3.3-10.3c0.1-0.2,0.3-0.3,0.4-0.4l1,1
		C2.8,6.2,2.9,6.3,3,6.3s0.2,0,0.2-0.1c0.1-0.1,0.1-0.3,0-0.5L2.3,4.8c0.4-0.2,0.8-0.4,1-0.4L6.7,7.8L6.7,7.8L6.7,7.8z"/>
	<path class="st0" d="M14.7,10.2c0,0.2,0.1,0.3,0.3,0.3s0.3-0.1,0.3-0.3c0-2.9-2.4-5.3-5.3-5.3C9.9,4.9,9.8,5,9.8,5.2
		s0.1,0.3,0.3,0.3C12.7,5.6,14.7,7.6,14.7,10.2z"/>
	<path class="st0" d="M17.5,10.5c0.2,0,0.3-0.1,0.3-0.3c0-4.3-3.5-7.7-7.7-7.7c-0.2,0-0.3,0.2-0.3,0.3s0.1,0.3,0.3,0.3
		c3.9,0,7.1,3.2,7.1,7.1C17.2,10.4,17.3,10.5,17.5,10.5L17.5,10.5z"/>
	<path class="st0" d="M19.9,10.5c0.2,0,0.3-0.1,0.3-0.3C20.3,4.6,15.7,0,10.1,0C9.9,0,9.8,0.2,9.8,0.3s0.1,0.3,0.3,0.3
		c5.2,0,9.5,4.2,9.5,9.5C19.6,10.3,19.7,10.5,19.9,10.5L19.9,10.5z"/>
</g>
</svg>
