<?xml version="1.0" encoding="utf-8"?>
<!-- Generator: Adobe Illustrator 27.3.1, SVG Export Plug-In . SVG Version: 6.00 Build 0)  -->
<svg version="1.1" id="_レイヤー_2" xmlns="http://www.w3.org/2000/svg" xmlns:xlink="http://www.w3.org/1999/xlink" x="0px"
	 y="0px" viewBox="0 0 100 100" style="enable-background:new 0 0 100 100;" xml:space="preserve">
<style type="text/css">
	.st0{fill:#FFFFFF;}
	.st1{fill:#A0D2F0;}
	.st2{fill:#1E3246;}
	.st3{fill:#1E3246;stroke:#1E3246;stroke-width:0.28;stroke-miterlimit:10;}
</style>
<ellipse transform="matrix(0.7071 -0.7071 0.7071 0.7071 -20.7105 50.0005)" class="st0" cx="50" cy="50" rx="50" ry="50"/>
<g>
	<path class="st1" d="M65.3,77.6h-31l-0.1-12.3c0-0.2,0-0.8,0-0.8c0.1-1.6,1-9,8.6-9c0.1,0,0.3,0,0.4-0.1l0.3,0
		c1.7,1.4,3.9,2.2,6.2,2.2s4.4-0.8,6.1-2.1l0.1-0.1l0.1,0c0.1,0,0.1,0,0.2,0c0.4,0,4.1,0.1,6.6,2.5c1.5,1.5,2.3,3.7,2.3,6.4
		L65.3,77.6L65.3,77.6z"/>
	<path class="st2" d="M84.8,65.4c-0.1-2.9-1.8-8.5-7.9-8.6h-0.1c-0.3-0.1-0.5,0-0.7,0.1c-1.3,1.2-3.1,1.8-4.9,1.8
		c-1.7,0-3.4-0.6-4.7-1.6L66.4,57c-0.3-0.4-0.7-0.3-2,0.1l-0.2,0.1l-0.1-0.1c-2.9-2.8-7.2-2.9-7.6-2.9c-0.1,0-1.1,0.1-1.3,0.3
		c-1.4,1.2-3.3,1.9-5.3,1.9s-4-0.7-5.4-2c-0.2-0.2-1.4-0.2-1.5-0.2c-3,0-5.5,1-7.3,3l-0.1,0.2l-0.2-0.1c-0.6-0.2-0.8-0.3-0.9-0.4
		c-0.2-0.1-0.3-0.1-0.5-0.1c-0.2,0-0.4,0.1-0.6,0.3l0,0c-1.3,1-2.9,1.6-4.6,1.6c-1.9,0-3.6-0.6-4.9-1.8c-0.2-0.2-0.5-0.2-0.7-0.2
		h-0.1c-6.1,0.1-7.9,5.7-7.9,8.6C15,65.6,15,77.9,15,78c0,0.4,0.4,0.8,0.8,0.8H84c0.4,0,0.8-0.3,0.8-0.8
		C84.7,77.9,84.8,65.4,84.8,65.4L84.8,65.4z M32.8,65c0,0.2,0,5.9,0.1,9.6l0,2.7H16.6l-0.1-12.1c0.1-1.3,0.9-6.6,6.4-6.8H23l0.1,0.1
		c1.5,1.2,3.5,1.9,5.6,1.9c1.9,0,3.8-0.6,5.3-1.7l1.1-0.8L34.4,59C33.4,60.7,32.8,63,32.8,65L32.8,65z M65.4,77.1h-4.3V66.1
		c0-0.4-0.3-0.8-0.8-0.8s-0.8,0.3-0.8,0.8v11.1H40.2V66.1c0-0.4-0.3-0.8-0.8-0.8s-0.8,0.3-0.8,0.8v11.1h-4.3l-0.1-12.4
		c0.1-1.6,1-9,8.6-9c0.1,0,0.7-0.1,0.7-0.1c1.7,1.4,3.9,2.2,6.2,2.2s4.4-0.8,6.1-2.1c0,0,0.4,0,0.4,0c0.4,0,4.1,0.1,6.6,2.5
		c1.5,1.5,2.3,3.7,2.3,6.4L65.4,77.1L65.4,77.1z M83.2,77.3H66.9V64.7c0-2.1-0.4-4-1.3-5.5L65,58.1l1,0.7c1.5,1,3.2,1.5,5.1,1.5
		c2,0,4-0.7,5.6-1.9l0.1-0.1h0.1c2.5,0.1,4.4,1.2,5.5,3.4c0.7,1.4,0.9,2.8,0.9,3.4h0.1C83.3,65.2,83.2,77.3,83.2,77.3z"/>
	<path class="st2" d="M49.9,16.6L49.9,16.6c0.5,0,0.8-0.4,0.8-0.8c0-0.3,0-3.3,0-4.8c0-0.2-0.1-0.4-0.2-0.6
		c-0.2-0.1-0.3-0.2-0.5-0.2c-0.4,0-0.8,0.3-0.8,0.8c0,4.2,0,4.9,0,4.9C49.2,16.3,49.5,16.6,49.9,16.6L49.9,16.6z"/>
	<path class="st2" d="M23,24c3.7,2.2,4.2,2.5,4.3,2.5c0.4,0.2,0.9,0,1-0.4c0.2-0.4,0-0.8-0.3-1c-0.3-0.1-2.7-1.6-4.2-2.4
		c-0.1-0.1-0.3-0.1-0.4-0.1c-0.3,0-0.5,0.1-0.7,0.4c-0.1,0.2-0.1,0.4-0.1,0.6S22.9,23.9,23,24z"/>
	<path class="st2" d="M36.7,19.1c0.2,0.4,0.7,0.5,1,0.3c0.4-0.2,0.5-0.7,0.3-1c-0.1-0.2-1.3-2.8-2-4.4c-0.2-0.4-0.6-0.6-1-0.4
		c-0.2,0.1-0.3,0.2-0.4,0.4c-0.1,0.2-0.1,0.4,0,0.6C36.4,18.5,36.7,19,36.7,19.1L36.7,19.1z"/>
	<path class="st2" d="M72.6,26.5c0.1,0,0.6-0.3,4.3-2.5c0.2-0.1,0.3-0.3,0.3-0.5s0-0.4-0.1-0.6c-0.1-0.2-0.4-0.4-0.7-0.4
		c-0.1,0-0.3,0-0.4,0.1c-1.4,0.8-3.9,2.3-4.2,2.4c-0.4,0.2-0.5,0.6-0.3,1C71.7,26.5,72.2,26.7,72.6,26.5L72.6,26.5z"/>
	<path class="st2" d="M62.1,19.4c0.4,0.2,0.8,0.1,1-0.3c0-0.1,0.3-0.6,2-4.5c0.1-0.2,0.1-0.4,0-0.6c-0.1-0.2-0.2-0.4-0.4-0.4
		c-0.4-0.2-0.8,0-1,0.4c-0.7,1.6-1.9,4.1-2,4.4C61.6,18.7,61.7,19.2,62.1,19.4L62.1,19.4z"/>
	<path class="st2" d="M50,51.7c4.8,0,8.7-3.6,9.1-8.2h1.1c0.3,0,0.6-0.3,0.6-0.6s-0.3-0.6-0.6-0.6h-1.5c-6.3,0-10.8-5-10.8-5
		c-0.2-0.2-0.5-0.3-0.8-0.1l-4.9,3.5c0.8-3.6,4-6.4,7.9-6.4c2.5,0,4.9,1.2,6.5,3.2c0.2,0.4,2.1,3.6,5.6,3.6c0.3,0,0.6-0.3,0.6-0.6
		s-0.3-0.6-0.6-0.6c-2.9,0-4.5-3-4.5-3s0,0,0-0.1c-1.7-2.4-4.5-3.8-7.5-3.8c-5.1,0-9.2,4.2-9.2,9.2S44.9,51.7,50,51.7L50,51.7z
		 M42,42.4C42,42.4,42,42.4,42,42.4l5.4-3.8c1.2,1.2,5.2,4.7,10.5,5c-0.3,3.9-3.7,7-7.9,7C45.6,50.5,42,46.9,42,42.4
		C42,42.4,42,42.4,42,42.4L42,42.4z"/>
	<path class="st3" d="M28.7,54.2c4.5,0,8.3-3.7,8.3-8.3s-3.7-8.3-8.3-8.3h-4.3c-0.3,0-0.5,0.2-0.5,0.5s0.2,0.5,0.5,0.5h4.3
		c3.9,0,7.1,3.2,7.2,7.1l-4.2-3.7c-0.1-0.1-0.4-0.2-0.6-0.1l-9.6,4c0,0,0-0.1,0-0.1c0-2.4,0.9-4.2,2.6-5.4c0.2-0.1,0.3-0.4,0.2-0.6
		c-0.1-0.2-0.3-0.4-0.5-0.4h-1.7c-0.3,0-0.5,0.2-0.5,0.5s0.2,0.5,0.5,0.5h0.3c-1.3,1.3-2,3.1-2,5.3C20.5,50.5,24.2,54.3,28.7,54.2
		L28.7,54.2z M31.2,43.2l4.6,4c0,0,0,0,0,0c-0.6,3.4-3.5,6-7.1,6s-6.5-2.6-7.1-6C21.7,47.2,31.2,43.2,31.2,43.2z"/>
	<path class="st3" d="M70.9,37.8c-4,0-7.3,2.8-8.1,6.6c-0.5,1.5-2.3,7.5-1.2,9c0.2,0.3,0.6,0.5,1,0.5c2.2,0,4.1-0.4,4.2-0.5
		c0.1,0,0.2-0.1,0.2-0.1c1.2,0.6,2.5,1,3.9,1s2.8-0.4,3.9-1c0.1,0.1,0.2,0.1,0.3,0.2c0.1,0,2,0.5,4.2,0.5c0.4,0,0.7-0.2,0.9-0.5
		c1.2-1.6-0.8-7.9-1.2-9.2c0-0.1-0.1-0.2-0.2-0.2C78,40.5,74.7,37.8,70.9,37.8L70.9,37.8z M62.6,52.9C62.6,52.9,62.5,52.9,62.6,52.9
		c-0.4-0.4-0.3-2.1,0.3-4.8c0.5,1.8,1.5,3.4,2.9,4.5C65.1,52.7,63.9,52.9,62.6,52.9L62.6,52.9z M70.9,53.3c-3.7,0-6.7-2.7-7.1-6.3
		c0.1,0,0.1,0,0.2-0.1c0.1-0.1,1-0.5,2.4-0.9c0.3-0.1,0.4-0.4,0.4-0.7S66.3,44.9,66,45c-0.8,0.2-1.7,0.5-2.3,0.8
		c0-0.4,0.1-0.8,0.1-1.2c0,0,0,0,0,0c0,0,0-0.1,0-0.1c0.7-3.2,3.6-5.6,7-5.6c3.9,0,7.1,3.1,7.2,7c-2.9-1.2-6-1.7-9.1-1.4
		c0-0.2,0-0.4,0-0.6c0.1-0.3-0.2-0.6-0.4-0.6S68,43.4,68,43.7c-0.1,0.6,0,1.4,0,1.4c0,0.1,0.1,0.3,0.2,0.4s0.3,0.1,0.4,0.1
		c3.2-0.4,6.4,0,9.4,1.4c0,0,0,0,0,0C77.6,50.5,74.6,53.3,70.9,53.3L70.9,53.3z M79.4,52.8C79.4,52.8,79.3,52.9,79.4,52.8
		c-1.4,0-2.7-0.1-3.4-0.3c1.5-1.2,2.6-2.8,3-4.7C79.6,50.7,79.7,52.4,79.4,52.8L79.4,52.8z"/>
</g>
</svg>
