<?xml version="1.0" encoding="utf-8"?>
<!-- Generator: Adobe Illustrator 27.3.1, SVG Export Plug-In . SVG Version: 6.00 Build 0)  -->
<svg version="1.1" id="_レイヤー_2" xmlns="http://www.w3.org/2000/svg" xmlns:xlink="http://www.w3.org/1999/xlink" x="0px"
	 y="0px" viewBox="0 0 37.7 29.4" style="enable-background:new 0 0 37.7 29.4;" xml:space="preserve">
<style type="text/css">
	.st0{fill:#FFFFFF;}
</style>
<path class="st0" d="M0.7,29.4h36.4c0.4,0,0.7-0.3,0.7-0.7V4.8c0-0.4-0.3-0.7-0.7-0.7H15.5l-2.7-3.9C12.6,0.1,12.4,0,12.2,0H0.7
	C0.3,0,0,0.3,0,0.7v28.1C0,29.1,0.3,29.4,0.7,29.4L0.7,29.4z M1.3,1.3h10.6l2,2.9H1.3V1.3z M1.3,6V5.5h35.1v22.6H1.3V6z"/>
<path class="st0" d="M31.9,11.5H22c-0.4,0-0.7,0.3-0.7,0.7s0.3,0.7,0.7,0.7h10c0.4,0,0.7-0.3,0.7-0.7S32.3,11.5,31.9,11.5z"/>
<path class="st0" d="M31.9,14.7h-6.6c-0.4,0-0.7,0.3-0.7,0.7s0.3,0.7,0.7,0.7h6.6c0.4,0,0.7-0.3,0.7-0.7S32.3,14.7,31.9,14.7z"/>
</svg>
