<?xml version="1.0" encoding="utf-8"?>
<!-- Generator: Adobe Illustrator 27.3.1, SVG Export Plug-In . SVG Version: 6.00 Build 0)  -->
<svg version="1.1" id="_レイヤー_2" xmlns="http://www.w3.org/2000/svg" xmlns:xlink="http://www.w3.org/1999/xlink" x="0px"
	 y="0px" viewBox="0 0 70 70" style="enable-background:new 0 0 70 70;" xml:space="preserve">
<style type="text/css">
	.st0{fill:#FFFFFF;}
	.st1{fill:#A0D2F0;}
	.st2{fill:none;stroke:#1E3246;stroke-width:0.99;stroke-miterlimit:10;}
	.st3{fill:none;stroke:#1E3246;stroke-width:0.99;stroke-linecap:round;stroke-linejoin:round;}
</style>
<circle class="st0" cx="35" cy="35" r="25"/>
<rect x="22" y="22" class="st1" width="26" height="26"/>
<g>
	<g>
		<rect x="27.9" y="28" class="st2" width="3.5" height="3.5"/>
		<rect x="29.6" y="29.7" class="st2" width="0.1" height="0.1"/>
	</g>
	<g>
		<rect x="27.9" y="38.4" class="st2" width="3.5" height="3.5"/>
		<rect x="29.6" y="40.2" class="st2" width="0.1" height="0.1"/>
	</g>
	<g>
		<rect x="38.4" y="28" class="st2" width="3.5" height="3.5"/>
		<rect x="40.2" y="29.7" class="st2" width="0.1" height="0.1"/>
	</g>
	<line class="st2" x1="36.8" y1="29" x2="36.8" y2="28"/>
	<line class="st2" x1="35.9" y1="29.7" x2="33.4" y2="29.7"/>
	<line class="st2" x1="36.8" y1="30.6" x2="36.8" y2="33.3"/>
	<line class="st2" x1="28.9" y1="33.7" x2="27.9" y2="33.7"/>
	<polyline class="st2" points="29.6,37.1 29.6,35.1 31.8,35.1 	"/>
	<line class="st2" x1="33" y1="34.1" x2="31.8" y2="34.1"/>
	<line class="st2" x1="36.2" y1="33.3" x2="33" y2="33.3"/>
	<line class="st2" x1="41.9" y1="33.3" x2="40.5" y2="33.3"/>
	<polyline class="st2" points="40.4,35 38.1,35 38.1,37.8 	"/>
	<line class="st2" x1="37.5" y1="35.7" x2="36.2" y2="35.7"/>
	<line class="st2" x1="36.2" y1="36.8" x2="34.6" y2="36.8"/>
	<line class="st2" x1="41.9" y1="36.3" x2="40.4" y2="36.3"/>
	<line class="st2" x1="33" y1="38.8" x2="34.6" y2="38.8"/>
	<line class="st2" x1="36.8" y1="37.9" x2="36.8" y2="41.9"/>
	<line class="st2" x1="34.5" y1="39.9" x2="36.8" y2="39.9"/>
	<line class="st2" x1="33.8" y1="40.8" x2="33.8" y2="41.9"/>
	<polyline class="st2" points="38.1,39.2 40.2,39.2 40.2,41.9 41.9,41.9 	"/>
	<line class="st2" x1="33" y1="35.7" x2="34.6" y2="35.7"/>
	<line class="st2" x1="31.8" y1="35.7" x2="31.8" y2="37.1"/>
	<polyline class="st3" points="29.4,25 25,25 25,29.4 	"/>
	<polyline class="st3" points="40.6,25 45,25 45,29.4 	"/>
	<polyline class="st3" points="29.4,45 25,45 25,40.5 	"/>
	<polyline class="st3" points="40.6,45 45,45 45,40.5 	"/>
</g>
</svg>
