<?xml version="1.0" encoding="UTF-8"?>
<svg id="_レイヤー_2" data-name="レイヤー 2" xmlns="http://www.w3.org/2000/svg" viewBox="0 0 30.78 25.89">
  <defs>
    <style>
      .cls-1 {
        fill: #f7931e;
      }

      .cls-2 {
        fill: #fff;
      }

      .cls-3 {
        fill: #283c73;
      }
    </style>
  </defs>
  <g id="pc">
    <g>
      <circle class="cls-2" cx="15.33" cy="4.65" r="4.65"/>
      <path class="cls-2" d="m15.33,10.44c-4.82,0-8.76,2.51-8.76,5.59v1.35c2.3,2.14,5.37,3.46,8.76,3.46s6.46-1.32,8.76-3.46v-1.35c0-3.07-3.94-5.59-8.76-5.59Z"/>
      <path class="cls-1" d="m25.88,25.53l.41-.06c.17-.02.33-.09.44-.21.06-.06.12-.16.16-.24.13-.07.69.05,1.14.3.04.02.09.04.13.06.92.29,1.52.07,1.85-.17.72-.5.77-1.4.78-1.56,0-.1-.06-1-.78-1.5-.34-.24-.93-.46-1.85-.17-.05.01-.09.03-.13.06-.45.25-1.01.37-1.14.27-.03-.08-.08-.15-.14-.21-.11-.12-.28-.19-.44-.21l-.39-.06c-.05-.02-.11-.04-.17-.05-.27-1.45-.84-2.83-1.68-4.04.03-.05.06-.1.08-.16l.23-.31c.11-.13.17-.3.17-.46,0-.09-.03-.2-.06-.28.04-.14.52-.45,1.01-.59.05-.01.09-.03.13-.05.86-.45,1.12-1.03,1.19-1.43.15-.87-.45-1.54-.56-1.65-.08-.07-.75-.66-1.61-.51-.41.07-.98.33-1.43,1.18-.02.04-.04.09-.05.13-.14.49-.45.97-.61,1-.24-.1-.53-.04-.73.12l-.31.23c-.05.02-.1.05-.15.08-1.22-.84-2.61-1.42-4.08-1.68-.01-.05-.03-.11-.05-.16l-.06-.39c-.02-.16-.09-.32-.2-.43-.06-.07-.16-.13-.25-.16-.07-.13.05-.69.3-1.14.02-.04.04-.09.06-.13.29-.92.07-1.52-.17-1.85-.5-.72-1.4-.77-1.56-.78-.1,0-1,.06-1.5.78-.24.34-.46.93-.17,1.85.01.05.03.09.06.13.25.45.37,1.01.27,1.14-.08.04-.16.09-.22.15-.11.11-.18.27-.2.43l-.06.39c-.02.05-.04.11-.05.17-1.45.27-2.83.84-4.04,1.68-.05-.03-.1-.06-.16-.08l-.3-.23c-.2-.16-.51-.21-.75-.12-.14-.04-.45-.52-.59-1.01-.01-.05-.03-.09-.05-.13-.45-.86-1.03-1.12-1.43-1.19-.87-.15-1.54.45-1.65.56-.07.07-.66.75-.51,1.61.07.4.33.98,1.18,1.43.04.02.09.04.13.05.49.14.97.45,1,.61-.03.08-.05.17-.05.26,0,.17.07.34.18.47l.23.31c.02.05.05.11.08.15-.84,1.22-1.41,2.6-1.68,4.05-.05.01-.1.03-.15.05l-.4.06c-.17.02-.32.09-.44.21-.06.06-.12.16-.16.24-.13.07-.69-.05-1.14-.3-.04-.02-.09-.04-.13-.06-.92-.29-1.52-.07-1.85.17-.72.51-.77,1.4-.78,1.56,0,.1.06,1,.78,1.5.34.24.93.46,1.85.17.05-.01.09-.03.13-.06.45-.25,1.01-.37,1.14-.28.03.08.08.15.14.21.12.12.28.19.45.21l.39.06c.05.02.11.04.17.05.02.1.05.21.07.31h20.52c.02-.11.06-.21.08-.32.05-.01.1-.03.15-.05Z"/>
      <path class="cls-3" d="m25.49,24.87c.06.03.11.01.15-.02l.53-.08s.05,0,.05,0c.43-1.01,2.14-.06,2.14-.06,1.65.52,1.71-1.02,1.71-1.02,0,0-.06-1.54-1.71-1.02,0,0-1.7.95-2.14-.06,0,0-.02-.02-.05,0l-.52-.08s-.09-.05-.15-.02l-.38-.06c-.23-1.77-.92-3.38-1.96-4.72l.23-.32c.07-.02.09-.07.09-.12l.32-.43s.03-.03.03-.03c-.41-1.02,1.46-1.55,1.46-1.55,1.53-.8.48-1.94.48-1.94,0,0-1.13-1.04-1.94.48,0,0-.54,1.87-1.55,1.46,0,0-.03,0-.03.03l-.43.32c-.05,0-.1.02-.12.09l-.32.23c-1.34-1.04-2.95-1.73-4.72-1.96l-.06-.38h-.03c.03-.06.01-.12-.02-.15l-.08-.52s0-.05,0-.05c-1.01-.43-.06-2.14-.06-2.14.52-1.65-1.02-1.71-1.02-1.71,0,0-1.54.06-1.02,1.71,0,0,.95,1.7-.06,2.14,0,0-.02.02,0,.05l-.08.53s-.05.09-.02.15l-.06.38c-1.77.23-3.38.92-4.72,1.96l-.32-.23c-.02-.07-.07-.09-.12-.09l-.43-.32s-.03-.03-.03-.03c-1.02.41-1.55-1.46-1.55-1.46-.8-1.53-1.94-.48-1.94-.48,0,0-1.04,1.13.48,1.94,0,0,1.87.54,1.46,1.55,0,0,0,.03.03.03l.32.43c0,.05.02.1.09.12l.23.32c-1.04,1.34-1.73,2.95-1.96,4.72l-.38.06c-.06-.03-.11-.01-.15.02l-.52.08s-.05,0-.05,0c-.43,1.01-2.14.06-2.14.06-1.65-.52-1.71,1.02-1.71,1.02,0,0,.06,1.54,1.71,1.02,0,0,1.7-.95,2.14.06,0,0,.02.02.05,0l.53.08s.09.05.15.02l.38.06c.04.33.12.64.19.96h2.69c-.16-.49-.29-.99-.34-1.52h.43c.25,0,.48-.13.6-.34.12.2.35.34.6.34h.82c.25,0,.48-.13.6-.34.12.2.35.34.6.34h.16c.08.42.25.81.47,1.15l-.12.12c-.07.07-.11.16-.15.25h6.23c-.03-.09-.08-.18-.15-.26l-.12-.12c.23-.34.39-.74.47-1.15h.16c.25,0,.48-.14.6-.34.12.21.35.34.6.34h.82c.25,0,.48-.14.6-.34.12.21.35.34.6.34h.43c-.05.53-.18,1.04-.34,1.53h2.75c.07-.32.15-.64.19-.97l.38-.06Zm-13.46-1.9h-.16c-.25,0-.48.13-.6.34-.12-.2-.35-.34-.6-.34h-.82c-.25,0-.48.13-.6.34-.12-.2-.35-.34-.6-.34h-.43c.14-1.46.72-2.79,1.6-3.86l.3.3c.18.18.43.24.67.19-.05.23,0,.49.19.67l.58.58c.18.18.43.24.67.19-.05.23,0,.49.19.67l.12.12c-.22.35-.38.73-.47,1.15Zm1.35-2.26c-.18-.18-.43-.24-.67-.19.05-.23,0-.49-.19-.67l-.58-.58c-.18-.18-.43-.24-.67-.19.05-.23,0-.49-.19-.67l-.3-.3h0c1.07-.87,2.4-1.45,3.85-1.59v.43c0,.25.13.48.34.6-.2.12-.34.35-.34.6v.82c0,.25.13.48.34.6-.2.12-.34.35-.34.6v.16c-.42.08-.81.25-1.15.47l-.12-.12Zm1.97,4.51c-.85,0-1.55-.69-1.55-1.55s.69-1.55,1.55-1.55,1.55.69,1.55,1.55-.69,1.55-1.55,1.55Zm2.82-5.37c-.18.18-.24.43-.19.67-.23-.05-.49,0-.67.19l-.12.12c-.34-.23-.73-.39-1.15-.47v-.16c0-.25-.14-.48-.34-.6.21-.12.34-.35.34-.6v-.82c0-.25-.14-.48-.34-.6.21-.12.34-.35.34-.6v-.43c1.46.14,2.78.72,3.85,1.59h0s-.3.3-.3.3c-.18.18-.24.43-.19.67-.23-.05-.49,0-.67.19l-.58.58Zm4.33,3.11h-.43c-.25,0-.48.14-.6.34-.12-.21-.35-.34-.6-.34h-.82c-.25,0-.48.14-.6.34-.12-.21-.35-.34-.6-.34h-.16c-.09-.42-.25-.8-.47-1.15l.12-.12c.18-.18.24-.43.19-.67.23.05.49,0,.67-.19l.58-.58c.18-.18.24-.43.19-.67.23.05.49,0,.67-.19l.3-.3c.88,1.07,1.46,2.4,1.6,3.85h0Z"/>
    </g>
  </g>
</svg>