<?xml version="1.0" encoding="UTF-8"?>
<svg id="_レイヤー_2" data-name="レイヤー 2" xmlns="http://www.w3.org/2000/svg" viewBox="0 0 17.72 17.7">
  <defs>
    <style>
      .cls-1 {
        fill: #1e3246;
      }
    </style>
  </defs>
  <g id="_01" data-name="01">
    <path class="cls-1" d="m3.46,2.65c.13-.12.15-.32.03-.46-.12-.13-.32-.15-.46-.03C1.11,3.85,0,6.27,0,8.83c0,4.83,3.9,8.77,8.72,8.83.05.02.1.04.15.04s.11-.02.16-.04c4.71-.11,8.52-3.92,8.62-8.63.04-.05.07-.12.07-.19s-.03-.14-.07-.19c-.08-3.63-2.36-6.73-5.56-8.01-.02,0-.03-.01-.05-.02-1-.39-2.08-.61-3.22-.61-1,0-1.97.16-2.9.49-.06.02-.11.06-.15.11-.05,0-.09.02-.13.05-.13.09-.95.77-1.44,3.47-1.19.21-1.99.48-2.52.74.46-.82,1.05-1.57,1.78-2.2Zm9.42,13.28c.24-.53.5-1.31.7-2.44,1.11-.2,1.88-.46,2.4-.7-.73,1.31-1.8,2.4-3.1,3.14Zm3.62-4.25s-.63.69-2.8,1.12c.14-.98.23-2.19.24-3.66h3.07c-.03.89-.21,1.74-.51,2.54Zm-.02-5.76c.31.81.49,1.67.53,2.58h-3.07c-.01-1.49-.1-2.7-.24-3.69,2.02.4,2.67.99,2.79,1.11Zm-.51-1.1c-.52-.24-1.28-.5-2.38-.7-.2-1.11-.45-1.88-.7-2.41,1.29.74,2.35,1.81,3.08,3.1ZM9.2.66c.91.04,1.78.23,2.58.55.13.13.71.8,1.11,2.82-.99-.14-2.2-.23-3.69-.25V.66Zm0,3.77c1.58.01,2.83.12,3.81.28.15.99.26,2.23.27,3.8h-4.08v-4.08Zm0,4.73h4.08c-.01,1.56-.12,2.8-.27,3.78-.99.15-2.24.26-3.81.28v-4.06Zm0,4.7c1.49-.01,2.71-.11,3.7-.25-.41,2.12-1.02,2.76-1.12,2.85-.8.31-1.67.5-2.57.54v-3.15ZM1.2,11.69s-.04-.04-.06-.06c-.28-.78-.45-1.61-.48-2.47h3.2c.01,1.48.1,2.69.24,3.68-2.29-.44-2.87-1.12-2.89-1.14Zm7.35,5.32c-.86-.03-1.69-.19-2.47-.47-.02-.02-.04-.05-.07-.06-.01,0-.69-.57-1.14-2.85.98.13,2.19.23,3.67.24v3.15Zm0-3.8c-1.56-.01-2.8-.12-3.79-.26-.15-.98-.26-2.23-.27-3.79h4.06v4.06ZM6.02,1.18s.05-.04.06-.07c.02,0,.03,0,.05-.01.78-.27,1.59-.42,2.42-.45v3.12c-1.48.01-2.68.1-3.67.24.44-2.24,1.11-2.81,1.13-2.83Zm-1.25,3.51c.98-.15,2.22-.25,3.78-.26v4.08h-4.06c.01-1.58.12-2.83.27-3.82Zm.18,11.34c-1.38-.75-2.53-1.89-3.29-3.26.54.26,1.34.54,2.54.75.21,1.19.49,1.99.75,2.52Zm-.85-11.23c-.14.99-.23,2.21-.24,3.7H.66c.03-.86.21-1.71.5-2.51.02-.02.03-.03.05-.05,0-.01.58-.7,2.89-1.14Z"/>
  </g>
</svg>