<?xml version="1.0" encoding="UTF-8"?>
<svg id="_レイヤー_2" data-name="レイヤー 2" xmlns="http://www.w3.org/2000/svg" viewBox="0 0 8.34 12.29">
  <defs>
    <style>
      .cls-1 {
        fill: #e67800;
      }
    </style>
  </defs>
  <g id="_レイヤー_4のコピー" data-name="レイヤー 4のコピー">
    <g>
      <path class="cls-1" d="m.56,12.29h7.22c.31,0,.56-.25.56-.56V.56c0-.31-.25-.56-.56-.56H.56c-.31,0-.56.25-.56.56v11.18c0,.31.25.56.56.56ZM.42.56c0-.08.06-.14.14-.14h7.22c.08,0,.14.06.14.14v9.22H.42V.56ZM.42,10.19h7.5v1.54c0,.08-.06.14-.14.14H.56c-.08,0-.14-.06-.14-.14v-1.54Z"/>
      <path class="cls-1" d="m4.23,11.53c.3,0,.55-.24.55-.55s-.24-.55-.55-.55-.55.24-.55.55.24.55.55.55Z"/>
      <path class="cls-1" d="m4.71.86h-.92c-.12,0-.21.09-.21.21s.09.21.21.21h.92c.12,0,.21-.09.21-.21s-.09-.21-.21-.21Z"/>
    </g>
  </g>
</svg>