<?xml version="1.0" encoding="utf-8"?>
<!-- Generator: Adobe Illustrator 27.3.1, SVG Export Plug-In . SVG Version: 6.00 Build 0)  -->
<svg version="1.1" id="_レイヤー_2" xmlns="http://www.w3.org/2000/svg" xmlns:xlink="http://www.w3.org/1999/xlink" x="0px"
	 y="0px" viewBox="0 0 31 39.5" style="enable-background:new 0 0 31 39.5;" xml:space="preserve">
<style type="text/css">
	.st0{fill:url(#SVGID_1_);}
	.st1{fill:url(#SVGID_00000151538234150867569790000016368984788193799303_);}
	.st2{fill:url(#SVGID_00000103248659119928775480000015677221507636088715_);}
	.st3{fill:#1E3246;}
</style>
<g>
	
		<linearGradient id="SVGID_1_" gradientUnits="userSpaceOnUse" x1="8.345" y1="37.57" x2="8.345" y2="7.45" gradientTransform="matrix(1 0 0 -1 0 42)">
		<stop  offset="0" style="stop-color:#AEAEAE"/>
		<stop  offset="0.5" style="stop-color:#FFFFFF"/>
		<stop  offset="1" style="stop-color:#333333"/>
	</linearGradient>
	<path class="st0" d="M2.3,33.3h3.4c0.4,0,0.7,0.3,0.7,0.7l0,3.4l8.1-8.1c-2.2-0.2-4.3-0.9-6.2-1.9C8.3,27.3,2.3,33.3,2.3,33.3z"/>
	
		<linearGradient id="SVGID_00000140729462599574918990000002004327147084651443_" gradientUnits="userSpaceOnUse" x1="22.83" y1="37.57" x2="22.83" y2="7.45" gradientTransform="matrix(1 0 0 -1 0 42)">
		<stop  offset="0" style="stop-color:#AEAEAE"/>
		<stop  offset="0.5" style="stop-color:#FFFFFF"/>
		<stop  offset="1" style="stop-color:#333333"/>
	</linearGradient>
	<path style="fill:url(#SVGID_00000140729462599574918990000002004327147084651443_);" d="M16.9,29.2l7.7,7.7l0-3.4
		c0-0.4,0.3-0.7,0.7-0.7h3.4L23,27.2C21.2,28.3,19.1,29,16.9,29.2L16.9,29.2z"/>
	
		<linearGradient id="SVGID_00000119077800471128197250000003081335309133499528_" gradientUnits="userSpaceOnUse" x1="15.51" y1="37.57" x2="15.51" y2="7.45" gradientTransform="matrix(1 0 0 -1 0 42)">
		<stop  offset="0" style="stop-color:#AEAEAE"/>
		<stop  offset="0.5" style="stop-color:#FFFFFF"/>
		<stop  offset="1" style="stop-color:#333333"/>
	</linearGradient>
	<circle style="fill:url(#SVGID_00000119077800471128197250000003081335309133499528_);" cx="15.5" cy="14.2" r="13.9"/>
</g>
<g>
	<path class="st3" d="M10.9,16.3L10,21.4c0,0.2,0.1,0.5,0.3,0.6c0.1,0.1,0.2,0.1,0.4,0.1c0.1,0,0.2,0,0.3-0.1l4.6-2.4l4.6,2.4
		c0.2,0.1,0.5,0.1,0.7,0c0.2-0.1,0.3-0.4,0.3-0.6l-0.9-5.1l3.7-3.6c0.2-0.2,0.2-0.4,0.2-0.7c-0.1-0.2-0.3-0.4-0.5-0.4l-5.1-0.8
		l-2.3-4.7c-0.1-0.2-0.3-0.4-0.6-0.4S15.1,5.9,15,6.1l-2.3,4.7l-5.1,0.8c-0.2,0-0.5,0.2-0.5,0.4s0,0.5,0.2,0.7L10.9,16.3L10.9,16.3z
		"/>
	<path class="st3" d="M30.8,33.1l-6.6-6.6c3.7-2.7,6.1-7,6.1-11.9C30.2,6.6,23.7,0,15.6,0c-2.5,0-5,0.7-7.2,1.9
		C8,2.1,7.9,2.5,8.1,2.8C8.3,3.1,8.7,3.2,9,3.1c2-1.1,4.3-1.7,6.6-1.7c7.3,0,13.3,6,13.3,13.3s-6,13.3-13.3,13.3S2.3,22,2.3,14.6
		c0-2.9,0.9-5.7,2.7-8C5.2,6.4,5.1,6,4.8,5.8C4.5,5.5,4.1,5.6,3.9,5.9C2,8.4,1,11.4,1,14.6c0,4.9,2.4,9.3,6.2,11.9l-6.9,6.9
		C0,33.7-0.1,33.9,0,34.2c0.1,0.2,0.3,0.4,0.6,0.4H5l0.1,4.3c0,0.3,0.2,0.5,0.4,0.6c0.1,0,0.2,0,0.2,0c0.2,0,0.3-0.1,0.5-0.2
		l9.5-9.5c0,0,0,0,0,0l9.1,9.1c0.1,0.1,0.3,0.2,0.5,0.2c0.1,0,0.2,0,0.2,0c0.2-0.1,0.4-0.3,0.4-0.6l0-4.3h4.3c0.3,0,0.5-0.2,0.6-0.4
		S31,33.3,30.8,33.1L30.8,33.1z M6.4,37.3l0-3.4c0-0.4-0.3-0.7-0.7-0.7H2.3l6-6c1.8,1.1,3.9,1.8,6.2,1.9L6.4,37.3z M25.3,32.9
		c-0.4,0-0.7,0.3-0.7,0.7l0,3.4l-7.7-7.7c2.2-0.2,4.3-0.9,6.1-2l5.7,5.7L25.3,32.9L25.3,32.9z"/>
</g>
</svg>
