<?xml version="1.0" encoding="UTF-8"?>
<svg id="_レイヤー_2" data-name="レイヤー 2" xmlns="http://www.w3.org/2000/svg" viewBox="0 0 26.84 35.71">
  <defs>
    <style>
      .cls-1 {
        fill: #fff;
        stroke: #fff;
        stroke-miterlimit: 10;
        stroke-width: .57px;
      }
    </style>
  </defs>
  <g id="_レイヤー_4のコピー" data-name="レイヤー 4のコピー">
    <path class="cls-1" d="m26.39,1.46c-.15-.35-.41-.65-.73-.86-.32-.21-.69-.32-1.08-.32-.36,0-.73.11-1.05.31l-10.11,6.43L3.31.59c-.31-.2-.68-.31-1.05-.31-.51,0-1,.2-1.37.55-.19.18-.33.39-.44.63-.11.25-.17.52-.16.79v23c0,1.2.61,2.31,1.62,2.95l11.26,7.16.1.04.16.02h.08s.13-.04.13-.04l.1-.05,7.18-4.56c.26-.17.34-.52.17-.78-.1-.16-.28-.26-.48-.26-.11,0-.21.03-.3.09l-6.31,4.01V8L24.14,1.54c.14-.08.27-.13.45-.13.21,0,.43.09.59.24.08.08.14.17.18.26.05.11.07.22.07.34v23c0,.82-.41,1.56-1.1,2l-.45.29c-.26.17-.34.52-.17.78.1.16.28.26.48.26.11,0,.21-.03.3-.09l.45-.29c1.01-.65,1.62-1.75,1.62-2.95V2.25c0-.27-.06-.55-.17-.79Zm-13.53,32.38l-10.35-6.58c-.69-.44-1.1-1.19-1.1-2V2.26c0-.12.02-.23.07-.34.06-.15.17-.28.31-.37.14-.09.3-.14.46-.14h.02c.16,0,.29.05.43.13l10.15,6.46v25.84Z"/>
  </g>
</svg>