<?xml version="1.0" encoding="utf-8"?>
<!-- Generator: Adobe Illustrator 27.3.1, SVG Export Plug-In . SVG Version: 6.00 Build 0)  -->
<svg version="1.1" id="_レイヤー_2" xmlns="http://www.w3.org/2000/svg" xmlns:xlink="http://www.w3.org/1999/xlink" x="0px"
	 y="0px" viewBox="0 0 29.9 36.4" style="enable-background:new 0 0 29.9 36.4;" xml:space="preserve">
<style type="text/css">
	.st0{fill:#FFFFFF;}
</style>
<g>
	<path class="st0" d="M29.9,30.4C29.9,30.4,29.9,30.3,29.9,30.4V4c0-0.3-0.3-0.6-0.6-0.6h-2.8V0.6c0-0.3-0.3-0.6-0.6-0.6H0.6
		C0.3,0,0,0.3,0,0.6v31.8c0,0.3,0.3,0.6,0.6,0.6h2.8v2.7c0,0.3,0.3,0.6,0.6,0.6h20.4c0.1,0,0.3-0.1,0.4-0.2c0,0,0.1,0,0.1,0
		C29.2,35.3,29.9,30.6,29.9,30.4L29.9,30.4z M3.4,4v27.9H1.3V1.3h24v2H4C3.7,3.3,3.4,3.6,3.4,4z M24.4,29.8c-0.4,0-0.6,0.3-0.6,0.6
		v4.7H4.7V4.6h24v25.2L24.4,29.8L24.4,29.8z M25.1,34.9v-3.8h3.4C28.1,32.3,27.2,34.2,25.1,34.9z"/>
	<path class="st0" d="M23.1,15.6H10.3c-0.4,0-0.6,0.3-0.6,0.6s0.3,0.6,0.6,0.6h12.8c0.4,0,0.6-0.3,0.6-0.6S23.5,15.6,23.1,15.6z"/>
	<path class="st0" d="M23.1,22.4H10.3c-0.4,0-0.6,0.3-0.6,0.6s0.3,0.6,0.6,0.6h12.8c0.4,0,0.6-0.3,0.6-0.6S23.5,22.4,23.1,22.4z"/>
	<path class="st0" d="M10.3,13.4h8.9c0.4,0,0.6-0.3,0.6-0.6s-0.3-0.6-0.6-0.6h-8.9c-0.4,0-0.6,0.3-0.6,0.6S10,13.4,10.3,13.4z"/>
	<path class="st0" d="M10.4,20.2h12.7c0.4,0,0.6-0.3,0.6-0.6S23.4,19,23.1,19H10.4c-0.4,0-0.6,0.3-0.6,0.6S10,20.2,10.4,20.2z"/>
</g>
</svg>
