<?xml version="1.0" encoding="UTF-8"?>
<svg id="_レイヤー_2" data-name="レイヤー 2" xmlns="http://www.w3.org/2000/svg" viewBox="0 0 12.1 15.05">
  <defs>
    <style>
      .cls-1 {
        fill: #e67800;
      }
    </style>
  </defs>
  <g id="_レイヤー_4のコピー" data-name="レイヤー 4のコピー">
    <g>
      <path class="cls-1" d="m12.07,7.78c-.03-.07-.09-.12-.16-.15l-5.78-1.87s-.01,0-.02,0c-.01,0-.02,0-.03,0-.01,0-.02,0-.03,0s-.02,0-.03,0c-.01,0-.02,0-.03,0,0,0-.01,0-.02,0L.19,7.64c-.07.02-.13.08-.16.15-.03.07-.03.15,0,.22l2.23,4.87c.05.1.14.16.24.16.04,0,.08,0,.11-.02.13-.06.19-.22.13-.36L.64,8.06l5.14-1.66v6.37c0,.15.12.27.27.27s.27-.12.27-.27v-6.37l5.14,1.66-2.11,4.6c-.06.13,0,.29.13.36.04.02.07.02.11.02.1,0,.2-.06.24-.16l2.23-4.87c.03-.07.03-.15,0-.22Z"/>
      <path class="cls-1" d="m11.37,15.05c-.48,0-.72-.38-.89-.66-.18-.29-.27-.41-.44-.41s-.26.13-.44.41c-.17.28-.41.66-.89.66s-.72-.38-.89-.66c-.18-.29-.27-.41-.44-.41s-.26.13-.44.41c-.17.28-.41.66-.89.66s-.72-.38-.89-.66c-.18-.29-.27-.41-.44-.41s-.26.13-.44.41c-.17.28-.41.66-.89.66s-.72-.38-.89-.66c-.18-.29-.27-.41-.44-.41s-.26.13-.44.41c-.17.28-.41.66-.89.66-.15,0-.27-.12-.27-.27s.12-.27.27-.27c.17,0,.26-.13.44-.41.17-.28.41-.66.89-.66s.72.38.89.66c.18.29.27.41.44.41s.26-.13.44-.41c.17-.28.41-.66.89-.66s.72.38.89.66c.18.29.27.41.44.41s.26-.13.44-.41c.17-.28.41-.66.89-.66s.72.38.89.66c.18.29.27.41.44.41s.26-.13.44-.41c.17-.28.41-.66.89-.66s.72.38.89.66c.18.29.27.41.44.41.15,0,.27.12.27.27s-.12.27-.27.27Z"/>
      <path class="cls-1" d="m10.34,6.74c-.15,0-.27-.12-.27-.27v-1.99H2.03v1.99c0,.15-.12.27-.27.27s-.27-.12-.27-.27v-2.26c0-.15.12-.27.27-.27h8.57c.15,0,.27.12.27.27v2.26c0,.15-.12.27-.27.27Z"/>
      <path class="cls-1" d="m3.5,3.94v-1.49h5.09v1.49h.54v-1.76c0-.15-.12-.27-.27-.27H3.23c-.15,0-.27.12-.27.27v1.76h.54Z"/>
      <path class="cls-1" d="m5.45,1.91V.54h1.2v1.37h.54V.27c0-.15-.12-.27-.27-.27h-1.74c-.15,0-.27.12-.27.27v1.64h.54Z"/>
    </g>
  </g>
</svg>