<?xml version="1.0" encoding="UTF-8"?>
<svg id="_レイヤー_2" data-name="レイヤー 2" xmlns="http://www.w3.org/2000/svg" viewBox="0 0 29.57 37.27">
  <defs>
    <style>
      .cls-1 {
        fill: #fff;
      }
    </style>
  </defs>
  <g id="_レイヤー_4のコピー" data-name="レイヤー 4のコピー">
    <g>
      <path class="cls-1" d="m.03,36.62h.11s0,.04,0,.06c0,.32.26.59.59.59h28.19s.01,0,.02,0c.02,0,.03,0,.05,0,.33,0,.59-.26.59-.59v-6.04s0,0,0-.01c0-3.82-1.03-6.77-3.06-8.76-2.65-2.6-6-2.57-6.14-2.57-.32,0-.58.27-.58.6,0,.02.01,2-1.31,3.34-.84.85-2.06,1.29-3.63,1.29-2.06,0-3.51-.65-4.32-1.94-.17-.27-.54-.36-.81-.18-.27.17-.36.54-.18.81.72,1.14,2.22,2.49,5.32,2.49,1.9,0,3.4-.55,4.47-1.65,1.16-1.19,1.5-2.7,1.6-3.54.97.11,3.07.53,4.78,2.21,1.78,1.75,2.68,4.4,2.69,7.87,0,.02,0,.03,0,.05v5.46H1.2l-.03-4.85s0-.11,0-.17c0-.02,0-.04,0-.06,0-.11.24-10.55,7.99-10.55.32,0,.59-.26.59-.59s-.26-.59-.59-.59C.37,19.29,0,30.62,0,30.99c0,0,0,.01,0,.02,0,0,0,0,0,0,0,.17.03,5.61.03,5.61Z"/>
      <path class="cls-1" d="m4.5,17h2.4c.32,0,.59-.26.59-.59s-.26-.59-.59-.59h-1.65l.94-3.7c1.26,3.47,4.59,5.96,8.5,5.96s7.11-2.4,8.42-5.77l.89,3.51h-1.65c-.32,0-.59.26-.59.59s.26.59.59.59h2.4c.18,0,.35-.08.46-.23.11-.14.15-.33.11-.5l-1.63-6.46c.02-.25.04-.51.04-.77C23.72,4.05,19.67,0,14.68,0S5.64,4.05,5.64,9.04c0,.13,0,.26,0,.39l-1.73,6.84c-.04.18,0,.36.11.5.11.14.28.23.46.23Zm10.19-.09c-4.04,0-7.37-3.06-7.81-6.98l10.55-4.42,4.98,4.38s.06.05.1.07c-.45,3.91-3.78,6.95-7.81,6.95Zm0-15.73c4.13,0,7.52,3.2,7.84,7.25l-4.61-4.05c-.17-.15-.41-.19-.61-.1l-10.47,4.39c.19-4.16,3.64-7.49,7.85-7.49Z"/>
      <path class="cls-1" d="m15.29,28.63c.32,0,.59-.26.59-.59s-.26-.59-.59-.59h-.59c-.32,0-.59.26-.59.59s.26.59.59.59h.59Z"/>
    </g>
  </g>
</svg>