<?xml version="1.0" encoding="UTF-8"?>
<svg id="_レイヤー_2" data-name="レイヤー 2" xmlns="http://www.w3.org/2000/svg" viewBox="0 0 11.42 14.52">
  <defs>
    <style>
      .cls-1 {
        fill: #e67800;
      }
    </style>
  </defs>
  <g id="_レイヤー_4のコピー" data-name="レイヤー 4のコピー">
    <g>
      <path class="cls-1" d="m2.13,3.51c0,1.93,1.57,3.51,3.51,3.51s3.51-1.57,3.51-3.51S7.57,0,5.63,0s-3.51,1.57-3.51,3.51Zm3.51,3.05c-1.56,0-2.85-1.18-3.03-2.69l4.12-1.73,1.94,1.7c-.17,1.53-1.46,2.72-3.03,2.72Zm3.04-3.32l-1.75-1.54c-.07-.06-.16-.07-.24-.04l-4.1,1.72c.07-1.62,1.41-2.92,3.05-2.92s2.9,1.22,3.04,2.78Z"/>
      <path class="cls-1" d="m.26,14.52h0s.07,0,.1-.02h10.8s.07-.01.11-.03c.09-.03.15-.11.15-.21v-3.33c0-1.03-.31-1.86-.92-2.46-1.01-1-2.47-.99-2.53-.99,0,0,0,0-.01,0-.07-.02-.15-.01-.22.03l-2.09,1.63-1.03-.8c-.1-.08-.24-.06-.32.04-.08.1-.06.24.04.32l1.17.91s.09.05.14.05.1-.02.14-.05l1.89-1.47v2.11H3.54v-2.32s0,0,0,0c.13,0,.23-.1.23-.23s-.1-.23-.23-.23C.11,7.48,0,11,0,11.03c0,0,0,0,0,0,0,.08.04,3.23.04,3.26,0,.12.1.23.23.23Zm8.94-6.35c.33.13.69.32.99.62.52.51.78,1.23.78,2.14v3.12h-.6l-1.17-2.44v-3.43Zm-6.81,3.41v-3.46c.22-.08.45-.13.7-.16v2.52c0,.13.1.23.23.23h4.6c.13,0,.23-.1.23-.23v-2.54c.14,0,.35.03.6.09,0,0,0,0,0,0v3.62s0,.07.02.1l1.09,2.29H1.39l.98-2.37s.02-.06.02-.09Zm-1.93-.54s.02-.8.42-1.58c.26-.5.61-.88,1.05-1.14v3.21l-1,2.41s-.02.06-.02.09h-.42l-.03-2.87s0-.09,0-.13h0Z"/>
    </g>
  </g>
</svg>