<?xml version="1.0" encoding="UTF-8"?>
<svg id="_レイヤー_2" data-name="レイヤー 2" xmlns="http://www.w3.org/2000/svg" viewBox="0 0 19.5 19.33">
  <defs>
    <style>
      .cls-1 {
        fill: #fff;
      }
    </style>
  </defs>
  <g id="pc">
    <g>
      <path class="cls-1" d="m2.38,8.41c0,.19.15.34.34.34h6.82l-2.2,2.23c-.13.13-.13.35,0,.48.07.07.15.1.24.1s.17-.03.24-.1l2.76-2.79c.06-.06.1-.15.1-.24s-.04-.18-.1-.24l-2.74-2.7c-.13-.13-.35-.13-.48,0-.13.13-.13.35,0,.48l2.14,2.11H2.71c-.19,0-.34.15-.34.34Z"/>
      <path class="cls-1" d="m1.43,8.41c0-.19-.15-.34-.34-.34H.34c-.19,0-.34.15-.34.34s.15.34.34.34h.76c.19,0,.34-.15.34-.34Z"/>
      <path class="cls-1" d="m13.28.02c-2.84.02-5.7.07-5.73.07-.18,0-.33.15-.33.34v1.78c0,.19.15.34.34.34s.34-.15.34-.34V.76c3.35-.05,8.16-.11,10.2-.07-.66.32-1.8.84-2.86,1.32-.12.05-.2.18-.2.31v14.33h-7.17v-1.48c0-.19-.15-.34-.34-.34s-.34.15-.34.34v1.82c0,.19.15.34.34.34h7.51v1.66c0,.12.06.23.16.29.05.03.11.05.17.05.05,0,.11-.01.16-.04l3.78-2s0,0,.01,0c.01,0,.02-.01.03-.02,0,0,.02-.01.02-.02,0,0,.02-.02.02-.02,0,0,.01-.02.02-.03,0,0,.01-.02.02-.03,0,0,.01-.02.02-.03,0-.01,0-.02.01-.03,0-.01,0-.02,0-.03,0-.01,0-.02,0-.03,0-.01,0-.02,0-.04,0,0,0-.01,0-.02V.43c0-.09-.04-.18-.1-.25-.15-.14-.22-.21-6.11-.16Zm5.53,16.77l-3.11,1.64V2.54c1.87-.84,2.72-1.24,3.11-1.45v15.7Z"/>
    </g>
  </g>
</svg>