<?xml version="1.0" encoding="utf-8"?>
<!-- Generator: Adobe Illustrator 27.3.1, SVG Export Plug-In . SVG Version: 6.00 Build 0)  -->
<svg version="1.1" id="_レイヤー_2" xmlns="http://www.w3.org/2000/svg" xmlns:xlink="http://www.w3.org/1999/xlink" x="0px"
	 y="0px" viewBox="0 0 30 130" style="enable-background:new 0 0 30 130;" xml:space="preserve">
<style type="text/css">
	.st0{fill:none;}
	.st1{fill:#FFFFFF;}
	.st2{font-family:'AvenirNext-UltraLight';}
	.st3{font-size:8.5px;font-weight:550}
	.st4{fill:none;stroke:#FFFFFF;stroke-width:0.43;stroke-miterlimit:10;}
</style>
<g id="_モバイル">
	<g>
		<rect class="st0" width="30" height="130"/>
		<text transform="matrix(6.123234e-17 1 -1 6.123234e-17 12.7988 15.44)" class="st1 st2 st3">SCROLL</text>
		<path class="st1" d="M18,93.4c0-0.2-0.1-0.3-0.3-0.3L12.7,94c-0.2,0-0.3,0.2-0.3,0.3v31.2c0,0.2,1.7,0.7,2.6,1.4
			c0.9,0.7,2.6,3.1,2.6,3.1c0.2,0,0.3-0.2,0.3-0.3V119H21c0.6,0,1-0.5,1-1v-2.1h2.6c0.3,0,0.6-0.3,0.6-0.6v-14.1
			c0-0.3-0.3-0.6-0.6-0.6l-0.4-0.1l-2.1-0.3v-2.8c0-0.6-0.5-1-1-1h0L18,95.9V93.4L18,93.4L18,93.4z M23.5,110.3
			c-0.3,0-0.5,0-0.5-0.1v-1.5c0,0,0.2-0.1,0.5-0.1H24c0.3,0,0.5,0,0.5,0.1v1.5c0,0-0.2,0.1-0.5,0.1H23.5z M20.2,115
			c0.5,0,0.8,0,0.8,0.1v2.7c0,0.1-0.4,0.1-0.8,0.1h-1c-0.5,0-0.8,0-0.8-0.1v-2.7c0-0.1,0.4-0.1,0.8-0.1H20.2z M23,114.7v-1.5
			c0,0,0.2-0.1,0.5-0.1H24c0.3,0,0.5,0,0.5,0.1v1.5c0,0-0.2,0.1-0.5,0.1h-0.6C23.2,114.8,23,114.8,23,114.7z M20.2,111.3
			c0.5,0,0.8,0,0.8,0.1v2.7c0,0.1-0.4,0.1-0.8,0.1h-1c-0.5,0-0.8,0-0.8-0.1v-2.7c0-0.1,0.4-0.1,0.8-0.1H20.2z M24,110.8
			c0.3,0,0.5,0,0.5,0.1v1.5c0,0-0.2,0.1-0.5,0.1h-0.6c-0.3,0-0.5,0-0.5-0.1v-1.5c0,0,0.2-0.1,0.5-0.1H24z M20.2,107.6
			c0.5,0,0.8,0,0.8,0.1v2.7c0,0.1-0.4,0.1-0.8,0.1h-1c-0.5,0-0.8,0-0.8-0.1v-2.7c0-0.1,0.4-0.1,0.8-0.1H20.2z M20.2,103.9
			c0.5,0,0.8,0,0.8,0.1v2.7c0,0.1-0.4,0.1-0.8,0.1h-1c-0.5,0-0.8,0-0.8-0.1V104c0-0.1,0.4-0.1,0.8-0.1H20.2z M20.2,100.1
			c0.5,0,0.8,0,0.8,0.1v2.7c0,0.1-0.4,0.1-0.8,0.1h-1c-0.5,0-0.8,0-0.8-0.1v-2.7c0-0.1,0.4-0.1,0.8-0.1H20.2z"/>
		<line class="st4" x1="12.3" y1="57.1" x2="12.4" y2="119.3"/>
	</g>
</g>
</svg>
