<?xml version="1.0" encoding="utf-8"?>
<!-- Generator: Adobe Illustrator 27.3.1, SVG Export Plug-In . SVG Version: 6.00 Build 0)  -->
<svg version="1.1" id="_レイヤー_2" xmlns="http://www.w3.org/2000/svg" xmlns:xlink="http://www.w3.org/1999/xlink" x="0px"
	 y="0px" viewBox="0 0 70 70" style="enable-background:new 0 0 70 70;" xml:space="preserve">
<style type="text/css">
	.st0{fill:#FFFFFF;}
	.st1{fill:#A0D2F0;}
	.st2{fill:#1E3246;}
</style>
<g>
	<circle class="st0" cx="35" cy="35" r="25"/>
	
		<rect x="45.1" y="23.8" transform="matrix(0.9204 -0.3909 0.3909 0.9204 -8.3565 21.0755)" class="st1" width="4.9" height="14.6"/>
	
		<rect x="13.9" y="28.6" transform="matrix(0.3909 -0.9204 0.9204 0.3909 -15.6547 38.466)" class="st1" width="14.6" height="4.9"/>
	<path class="st2" d="M51.3,36.6l-2.1,0.9l-5.5-12l2.2-1c0.3-0.1,0.4-0.4,0.3-0.7c-0.1-0.3-0.4-0.4-0.7-0.3l-2.6,1.2
		c-0.1,0.1-0.2,0.2-0.3,0.3c0,0.1,0,0.3,0,0.4l0.7,1.5l-1.6,0.6h-9.3c-0.1,0-0.3,0.1-0.4,0.2l-0.4,0.4c0,0-0.1,0-0.1,0L26.2,27
		l0.5-1.1c0.1-0.1,0.1-0.3,0-0.4c0-0.1-0.1-0.2-0.3-0.3l-2.6-1.2c-0.3-0.1-0.6,0-0.7,0.3c-0.1,0.3,0,0.6,0.3,0.7l2.1,1l-5.5,12
		L18,37c-0.3-0.1-0.6,0-0.7,0.3c-0.1,0.3,0,0.6,0.3,0.7l2.5,1.2c0.1,0,0.1,0,0.2,0c0.2,0,0.4-0.1,0.5-0.3l0.4-1c0,0,0,0,0,0
		c1.2,0.6,2.9,1.6,3.7,2.1c-0.2,0.3-0.2,0.7-0.2,1c0.1,0.7,0.6,1.1,0.8,1.2c0.4,0.3,0.8,0.4,1.2,0.4c0.1,0,0.1,0,0.2,0c0,0,0,0,0,0
		c0.1,0.7,0.6,1.1,0.8,1.2c0.4,0.3,0.8,0.4,1.2,0.4c0.1,0,0.1,0,0.2,0c0,0,0,0,0,0c0.1,0.7,0.6,1.1,0.8,1.2c0.4,0.3,0.8,0.4,1.2,0.4
		c0.1,0,0.1,0,0.2,0c0,0,0,0,0,0c0.1,0.7,0.6,1.1,0.8,1.2c0.4,0.3,0.8,0.4,1.2,0.4c0.6,0,1-0.3,1.3-0.6l0.4-0.5l0.4,0.5
		c0.2,0.3,0.7,0.6,1.3,0.6c0.4,0,0.8-0.1,1.2-0.4c0.1,0,0.6-0.5,0.8-1.2c0.1,0,0.2,0,0.3,0c0.3,0,0.7-0.1,1.2-0.4
		c0.1-0.1,0.6-0.5,0.8-1.2l0,0c0.1,0,0.2,0,0.3,0c0.4,0,0.8-0.1,1.2-0.4c0.1-0.1,0.6-0.5,0.8-1.2c0.1,0,0.2,0,0.3,0
		c0.4,0,0.8-0.1,1.2-0.4c0.1,0,0.6-0.5,0.8-1.2c0.1-0.5-0.1-1-0.4-1.5l-0.4-0.6c0.5-0.3,2-1.1,3.4-1.8l0.5,1.2
		c0.1,0.1,0.2,0.2,0.3,0.3c0.1,0,0.1,0,0.2,0c0.1,0,0.2,0,0.2,0l2.5-1.2c0.3-0.1,0.4-0.4,0.3-0.7C51.8,36.6,51.5,36.5,51.3,36.6
		L51.3,36.6z M27.2,41.4c-0.1,0.1-0.4,0.4-1,0c0,0,0,0,0,0c0,0-0.3-0.2-0.3-0.5c0-0.2,0-0.4,0.2-0.7l1.6-2.1c0.1-0.2,0.5-0.5,1-0.1
		c0.2,0.2,0.5,0.4,0.5,0.6c0,0.1-0.1,0.3-0.2,0.5L27.2,41.4L27.2,41.4z M29.4,43.1c-0.1,0.1-0.4,0.4-1,0c0,0,0,0,0,0
		c0,0-0.3-0.2-0.3-0.5c0-0.2,0-0.4,0.2-0.7l1.6-2.1c0.1-0.2,0.5-0.5,1-0.1c0.2,0.2,0.5,0.4,0.5,0.6c0,0.1-0.1,0.3-0.2,0.5L29.4,43.1
		L29.4,43.1z M31.6,44.7c-0.1,0.1-0.4,0.5-1,0c0,0,0,0,0,0c0,0-0.3-0.2-0.3-0.5c0-0.2,0-0.4,0.2-0.7l1.6-2.1c0.1-0.1,0.5-0.5,1-0.1
		c0.2,0.2,0.5,0.4,0.5,0.6c0,0.1-0.1,0.3-0.2,0.5L31.6,44.7L31.6,44.7z M33.8,46.3c-0.1,0.1-0.4,0.4-1,0c0,0,0,0,0,0
		c0,0-0.3-0.2-0.3-0.5c0-0.2,0-0.4,0.2-0.7l1.6-2.1c0.1-0.1,0.5-0.5,1-0.1c0.2,0.2,0.5,0.4,0.5,0.6c0,0.1-0.1,0.3-0.2,0.5L33.8,46.3
		L33.8,46.3z M44.3,41c0,0.3-0.3,0.5-0.3,0.5c-0.6,0.4-0.9,0.1-1,0c-0.1-0.1-0.1-0.1-0.2-0.2c0,0,0-0.1-0.1-0.1l-1-1.3
		c-0.2-0.2-0.5-0.3-0.8-0.1s-0.3,0.5-0.1,0.8l1,1.3c0.2,0.2,0.3,0.5,0.2,0.7c0,0.3-0.3,0.5-0.3,0.5l0,0c0,0,0,0,0,0
		c-0.6,0.4-0.9,0.2-1,0c-0.1-0.1-0.1-0.1-0.2-0.2c0,0,0,0,0-0.1l-0.8-1.1c-0.2-0.2-0.5-0.3-0.7-0.1c-0.2,0.2-0.3,0.5-0.1,0.7
		l0.8,1.1c0.2,0.2,0.3,0.5,0.2,0.7c-0.1,0.3-0.3,0.5-0.3,0.5l0,0c0,0,0,0,0,0c-0.6,0.4-0.9,0.2-1,0c0,0-0.1-0.1-0.1-0.1
		c0-0.1-0.1-0.1-0.1-0.2c-0.2-0.2-0.5-0.3-0.8-0.1c-0.2,0.2-0.3,0.5-0.1,0.8c0.2,0.2,0.3,0.5,0.2,0.7c-0.1,0.3-0.3,0.5-0.3,0.5
		c-0.6,0.4-0.9,0.2-1,0c0,0,0,0,0,0l-0.6-0.7l0.7-1c0.3-0.4,0.4-0.8,0.4-1.1c0-0.5-0.3-1-0.9-1.4c-0.5-0.3-0.9-0.4-1.3-0.4
		c-0.1-0.4-0.4-0.9-0.9-1.2c-0.4-0.3-0.9-0.4-1.3-0.4c-0.1-0.5-0.4-0.9-0.9-1.2c-0.5-0.3-0.9-0.4-1.3-0.4c-0.1-0.5-0.4-0.9-0.9-1.2
		c-1-0.8-2-0.3-2.5,0.3c0,0,0,0,0,0l-1.3,1.7c-1.1-0.7-3.4-2-3.8-2.2c0,0-0.1,0-0.1,0l4.1-9c0,0,0,0,0,0l4.8,1.1l-3.1,3.1
		c-0.2,0.2-0.2,0.5-0.1,0.7c0,0,0.8,1.1,2.1,1.3c0.1,0,0.3,0,0.5,0c0.8,0,1.5-0.3,2.3-0.9c1.1-0.8,1.8-1.4,2.2-1.7l6.9,4.5l0,0
		l0.5,0.9l2,3.2c0,0,0,0,0,0C44.2,40.5,44.3,40.8,44.3,41L44.3,41z M44,38.2l-1-1.7l-0.6-1c-0.1-0.1-0.2-0.2-0.3-0.2L35.4,31
		c0-0.1,0-0.3,0-0.4c-0.1-0.3-0.5-0.4-0.7-0.2c0,0-0.1,0-0.2,0.1c-0.2,0-0.3,0.1-0.4,0.2c0,0,0,0,0,0.1c-0.4,0.3-1.1,0.8-2.3,1.7
		c-0.7,0.5-1.3,0.7-1.9,0.6c-0.5-0.1-0.9-0.3-1.1-0.6l3.9-3.9h9.2c0.1,0,0.1,0,0.2,0l1.8-0.7l3.8,8.3C45.4,37.4,44.4,37.9,44,38.2
		L44,38.2z"/>
</g>
</svg>
