<?xml version="1.0" encoding="UTF-8"?>
<svg id="_レイヤー_2" data-name="レイヤー 2" xmlns="http://www.w3.org/2000/svg" viewBox="0 0 22.13 22.13">
  <defs>
    <style>
      .cls-1 {
        fill: #c5a976;
      }
    </style>
  </defs>
  <g id="_01" data-name="01">
    <g>
      <g>
        <path class="cls-1" d="m8.93,2.24v-.11c0-1.18.96-2.13,2.13-2.13s2.13.96,2.13,2.13c0,.04,0,.08,0,.13h0s-2.13,8.09-2.13,8.09l-2.13-8.11Z"/>
        <path class="cls-1" d="m4.81,4.49l-.06-.1c-.28-.49-.36-1.07-.21-1.62.15-.55.5-1.01.99-1.29.32-.19.69-.29,1.06-.29.76,0,1.47.41,1.85,1.07.02.04.04.07.06.11h0s2.2,8.07,2.2,8.07l-5.9-5.96Z"/>
        <path class="cls-1" d="m2.36,8.5l-.1-.06c-.49-.28-.85-.74-.99-1.29-.15-.55-.07-1.12.21-1.62.38-.66,1.09-1.07,1.85-1.07.37,0,.74.1,1.06.29.04.02.07.04.11.07h0s5.94,5.89,5.94,5.89l-8.09-2.21Z"/>
        <path class="cls-1" d="m2.13,13.2c-1.18,0-2.13-.96-2.13-2.13s.96-2.13,2.13-2.13c.04,0,.08,0,.13,0h0s8.09,2.13,8.09,2.13l-8.11,2.13h-.11Z"/>
        <path class="cls-1" d="m3.33,17.66c-.76,0-1.47-.41-1.85-1.07-.59-1.02-.24-2.32.78-2.91.04-.02.07-.04.11-.06h0s8.07-2.2,8.07-2.2l-5.96,5.9-.1.06c-.32.19-.69.29-1.06.29h0Z"/>
        <path class="cls-1" d="m6.6,20.93c-.37,0-.74-.1-1.06-.29-.49-.28-.85-.74-.99-1.29-.15-.55-.07-1.12.21-1.62.02-.04.04-.07.07-.11h0s5.89-5.95,5.89-5.95l-2.21,8.09-.06.1c-.38.66-1.09,1.07-1.85,1.07h0Z"/>
        <path class="cls-1" d="m11.06,22.13c-1.18,0-2.13-.96-2.13-2.13,0-.04,0-.08,0-.13h0s2.13-8.09,2.13-8.09l2.13,8.11v.11c0,1.18-.96,2.13-2.13,2.13Z"/>
        <path class="cls-1" d="m15.53,20.93c-.76,0-1.47-.41-1.85-1.07-.02-.04-.04-.07-.06-.11h0s-2.2-8.07-2.2-8.07l5.9,5.96.06.1c.28.49.36,1.07.21,1.62-.15.55-.5,1.01-.99,1.29-.32.19-.69.29-1.06.29h0Z"/>
        <path class="cls-1" d="m18.8,17.66c-.37,0-.74-.1-1.06-.29-.04-.02-.07-.04-.11-.07h0s-5.94-5.89-5.94-5.89l8.09,2.21.1.06c.49.28.85.74.99,1.29.15.55.07,1.12-.21,1.62-.38.66-1.09,1.07-1.85,1.07h0Z"/>
        <path class="cls-1" d="m20,13.2s-.08,0-.13,0h0s-8.09-2.13-8.09-2.13l8.11-2.13h.11c1.18,0,2.13.96,2.13,2.13s-.96,2.13-2.13,2.13Z"/>
        <path class="cls-1" d="m17.64,4.81l.1-.06c.32-.19.69-.29,1.06-.29.76,0,1.47.41,1.85,1.07.28.49.36,1.07.21,1.62-.15.55-.5,1.01-.99,1.29-.04.02-.07.04-.11.06h0s-8.07,2.2-8.07,2.2l5.96-5.9Z"/>
        <path class="cls-1" d="m13.63,2.36l.06-.1c.38-.66,1.09-1.07,1.85-1.07.37,0,.74.1,1.06.29,1.02.59,1.37,1.89.78,2.91-.02.04-.04.07-.07.11h0s-5.89,5.95-5.89,5.95l2.21-8.09Z"/>
      </g>
      <circle class="cls-1" cx="11.06" cy="11.06" r="1.95"/>
    </g>
  </g>
</svg>