<?xml version="1.0" encoding="utf-8"?>
<!-- Generator: Adobe Illustrator 27.5.0, SVG Export Plug-In . SVG Version: 6.00 Build 0)  -->
<svg version="1.1" id="_レイヤー_2" xmlns="http://www.w3.org/2000/svg" xmlns:xlink="http://www.w3.org/1999/xlink" x="0px"
	 y="0px" viewBox="0 0 128.2 55.8" style="enable-background:new 0 0 128.2 55.8;" xml:space="preserve">
<style type="text/css">
	.st0{fill:#FFFFFF;}
	.st1{fill:#30A1D2;}
	.st2{fill:none;}
</style>
<g id="_01">
	<g>
		<path class="st0" d="M94,41.9h1.2v-1.1h-4.1V40l4.1-0.2v-1l-9.5,0.4v1l4.2-0.2v0.8h-4.2v1.1h1.2v1.1h-1.5v1h1.5v1.1h-1.2v1h2.2
			l-2.5,1.5v1.2l4.4-2.8v2.7h1.2v-2.7l4.4,2.8v-1.2L93,46.1h2.2v-1H94V44h1.5v-1H94L94,41.9L94,41.9z M89.8,45.1h-1.8V44h1.8V45.1z
			 M89.8,42.9h-1.8v-1.1h1.8V42.9z M92.8,45.1h-1.8V44h1.8V45.1z M92.8,42.9h-1.8v-1.1h1.8V42.9z"/>
		<polygon class="st0" points="104.1,38.8 105.4,43.5 106.5,43.5 105.3,38.8 		"/>
		<path class="st0" d="M103.4,38.8h-1.2l-1.3,4.7h-0.2v-4h-1.4l0.2-0.7h-1.2l-0.2,0.7h-1.5v4.3l-0.4,0v1.1l0.4,0l-0.2,3.9h1.1l0.2-4
			l0.5,0V48h0.8v-3.3l0.6,0v4.1h1.1v-4.2l0.3,0v-1.1h1L103.4,38.8L103.4,38.8z M99.7,43.5l-1.9,0.1v-3.1h1.9V43.5z"/>
		<path class="st0" d="M101.4,48.7h4.5v-5h-4.5V48.7z M102.6,44.8h2.2v2.7h-2.2V44.8z"/>
		<polygon class="st0" points="99.2,43.3 99,40.8 98.2,40.8 98.4,43.3 		"/>
		<path class="st0" d="M116.3,41.3v-2.4h-6.1l-2.8,1.7V42l1.4-0.9l1.6,1.7l-3.2,1.5v1.3l1.5-0.7v3.7h8.3v-4.8h-6
			C111,43.9,116.3,41.3,116.3,41.3z M110.2,40.9h-1.1l1.3-0.8h4.6v0.6l-3.5,1.6L110.2,40.9z M115.7,45.1v2.5h-5.8v-2.5H115.7z"/>
		<polygon class="st0" points="119.6,40.1 120.8,40.1 120.8,41.2 121.9,41.2 121.9,40.1 123.1,40.1 123.1,39.1 119.9,39.1 120,38.8 
			118.8,38.8 118,41.1 119.3,41.1 		"/>
		<polygon class="st0" points="120.7,42 118.1,41.4 118.1,42.5 120.7,43.1 		"/>
		<path class="st0" d="M128.2,42.5v-1h-0.6l-0.1-0.5h-0.7v-0.8h1.4v-1h-3.5l0.1-0.4h-1.2l-0.8,2.3h1.2v0.4h-3.1v1h3.1v0.3h-2.8V46
			h4.8v0.4h-5.1v1h1.1l0.3,1.2h1.2l-0.3-1.2h2.8v0.6h-1.5v0.9h2.7v-1.5h1.1v-1h-1.1V46h0.8v-3.2h-2.8v-0.3H128.2L128.2,42.5z
			 M124,45.1h-1.7v-0.3h1.7V45.1z M124,44h-1.7v-0.3h1.7V44z M126.7,45.1h-1.7v-0.3h1.7V45.1z M126.7,43.6v0.3h-1.7v-0.3H126.7z
			 M124.1,40.9l0.2-0.8h1.2v1h0.9l0.1,0.3h-1.5v-0.5C125.1,40.9,124.1,40.9,124.1,40.9z"/>
		<polygon class="st0" points="118,48.8 119.3,48.8 120.8,45.3 119.6,45.3 		"/>
		<polygon class="st0" points="118.1,44.3 120.7,44.9 120.7,43.8 118.1,43.2 		"/>
		<polygon class="st0" points="62.8,45.8 62.7,45.8 60.7,38.8 59.6,38.8 57.5,45.8 57.5,45.8 55.8,38.8 54.2,38.8 56.8,48.6 
			58.1,48.6 60.1,41.5 60.2,41.5 62.1,48.6 63.5,48.6 66.1,38.8 64.4,38.8 		"/>
		<polygon class="st0" points="67.8,48.6 74.4,48.6 74.4,47.2 69.3,47.2 69.3,44.3 73.7,44.3 73.7,43 69.3,43 69.3,40.2 74.4,40.2 
			74.4,38.8 67.8,38.8 		"/>
		<path class="st0" d="M81.8,43.6L81.8,43.6c0.3-0.2,0.6-0.3,0.8-0.5c0.2-0.2,0.4-0.3,0.5-0.5c0.2-0.4,0.3-0.8,0.3-1.2
			c0-0.8-0.3-1.4-0.8-1.9s-1.3-0.7-2.3-0.7h-4.1v9.8h4.4c0.8,0,1.5-0.3,2.1-0.8c0.6-0.5,0.8-1.2,0.8-2c0-0.5-0.1-1-0.4-1.4
			C82.8,44,82.4,43.7,81.8,43.6L81.8,43.6z M77.8,40.1h2.3c0.6,0,1,0.1,1.3,0.4c0.3,0.3,0.4,0.6,0.4,1s-0.1,0.7-0.4,1
			c-0.3,0.3-0.7,0.4-1.3,0.4h-2.3C77.8,43,77.8,40.1,77.8,40.1z M81.5,46.8c-0.3,0.3-0.7,0.4-1.3,0.5h-2.4v-3h2.4
			c0.6,0,1,0.2,1.3,0.4c0.3,0.3,0.4,0.6,0.4,1S81.8,46.5,81.5,46.8z"/>
		<path class="st0" d="M55.1,8.2h8.2v2.5h-5.2v3.1H63v2.5h-4.8v5.4h-3L55.1,8.2L55.1,8.2z"/>
		<path class="st0" d="M68.7,8.2v13.4h-3V8.2H68.7z"/>
		<path class="st0" d="M71.4,18.5c0.8,0.4,2.1,0.8,3.4,0.8c1.4,0,2.1-0.6,2.1-1.5s-0.6-1.3-2.2-1.9c-2.2-0.8-3.7-2-3.7-4
			c0-2.3,1.9-4,5.1-4c1.5,0,2.6,0.3,3.4,0.7l-0.7,2.4c-0.5-0.3-1.5-0.6-2.8-0.6S74,11.1,74,11.8c0,0.9,0.8,1.2,2.5,1.9
			c2.4,0.9,3.5,2.1,3.5,4c0,2.2-1.7,4.2-5.4,4.2c-1.5,0-3-0.4-3.8-0.8L71.4,18.5L71.4,18.5z"/>
		<path class="st0" d="M85.1,8.2v5.1h5V8.2h3v13.4h-3V16h-5v5.6h-3V8.2H85.1z"/>
		<path class="st0" d="M98.8,8.2v13.4h-3V8.2H98.8z"/>
		<path class="st0" d="M101.4,21.6V8.2h3.5l2.8,4.9c0.8,1.4,1.6,3.1,2.2,4.6h0.1c-0.2-1.8-0.3-3.6-0.3-5.6V8.2h2.8v13.4h-3.2
			l-2.9-5.2c-0.8-1.4-1.7-3.2-2.3-4.7l-0.1,0c0.1,1.8,0.1,3.7,0.1,5.9v4L101.4,21.6L101.4,21.6z"/>
		<path class="st0" d="M126.4,21c-0.9,0.3-2.7,0.8-4.5,0.8c-2.4,0-4.2-0.6-5.4-1.8c-1.2-1.1-1.9-2.9-1.9-4.9c0-4.5,3.3-7,7.7-7
			c1.7,0,3.1,0.3,3.7,0.7l-0.6,2.4c-0.7-0.3-1.7-0.6-3.1-0.6c-2.5,0-4.4,1.4-4.4,4.3s1.7,4.4,4.2,4.4c0.7,0,1.2-0.1,1.5-0.2v-2.8
			h-2.1V14h5L126.4,21L126.4,21z"/>
		<path class="st0" d="M54.8,25c0.7-0.1,1.6-0.2,2.9-0.2s2.3,0.3,2.9,0.8c0.6,0.5,1,1.3,1,2.2s-0.3,1.7-0.9,2.3
			c-0.7,0.7-1.8,1-3.1,1c-0.3,0-0.5,0-0.7,0v3.4h-2.2L54.8,25L54.8,25z M56.9,29.3c0.2,0,0.4,0.1,0.7,0.1c1.2,0,1.9-0.6,1.9-1.6
			c0-0.9-0.6-1.4-1.7-1.4c-0.4,0-0.7,0-0.9,0.1V29.3L56.9,29.3z"/>
		<path class="st0" d="M65.2,32l-0.7,2.5h-2.2l2.9-9.6h2.8l3,9.6h-2.3L68,32L65.2,32L65.2,32z M67.7,30.4l-0.6-2
			c-0.2-0.6-0.3-1.3-0.5-1.9h0c-0.1,0.6-0.3,1.3-0.4,1.9l-0.6,2H67.7z"/>
		<path class="st0" d="M72.4,32.2c0.6,0.3,1.5,0.6,2.4,0.6c1,0,1.5-0.4,1.5-1s-0.5-0.9-1.6-1.4c-1.6-0.5-2.6-1.4-2.6-2.8
			c0-1.6,1.4-2.9,3.6-2.9c1.1,0,1.9,0.2,2.4,0.5l-0.5,1.8c-0.4-0.2-1.1-0.5-2-0.5s-1.4,0.4-1.4,0.9c0,0.6,0.5,0.9,1.8,1.4
			c1.7,0.6,2.5,1.5,2.5,2.9c0,1.6-1.2,3-3.9,3c-1.1,0-2.2-0.3-2.7-0.6L72.4,32.2L72.4,32.2z"/>
		<path class="st0" d="M80.1,32.2c0.6,0.3,1.5,0.6,2.4,0.6c1,0,1.5-0.4,1.5-1s-0.5-0.9-1.6-1.4c-1.6-0.5-2.6-1.4-2.6-2.8
			c0-1.6,1.4-2.9,3.6-2.9c1.1,0,1.9,0.2,2.4,0.5l-0.5,1.8c-0.4-0.2-1.1-0.5-2-0.5S82,26.9,82,27.4c0,0.6,0.5,0.9,1.8,1.4
			c1.7,0.6,2.5,1.5,2.5,2.9c0,1.6-1.2,3-3.9,3c-1.1,0-2.2-0.3-2.7-0.6L80.1,32.2L80.1,32.2z"/>
		<path class="st0" d="M87.7,25c0.7-0.1,1.6-0.2,2.9-0.2s2.3,0.3,2.9,0.8c0.6,0.5,1,1.3,1,2.2s-0.3,1.7-0.9,2.3
			c-0.7,0.7-1.8,1-3.1,1c-0.3,0-0.5,0-0.7,0v3.4h-2.2V25L87.7,25z M89.8,29.3c0.2,0,0.4,0.1,0.7,0.1c1.2,0,1.9-0.6,1.9-1.6
			c0-0.9-0.6-1.4-1.7-1.4c-0.4,0-0.7,0-0.9,0.1V29.3L89.8,29.3z"/>
		<path class="st0" d="M104.7,29.5c0,3.1-1.9,5-4.7,5s-4.5-2.2-4.5-4.9c0-2.9,1.8-5,4.7-5S104.7,26.9,104.7,29.5L104.7,29.5z
			 M97.8,29.7c0,1.9,0.9,3.2,2.3,3.2s2.3-1.4,2.3-3.3c0-1.7-0.8-3.2-2.3-3.2S97.8,27.8,97.8,29.7L97.8,29.7z"/>
		<path class="st0" d="M106.2,25c0.7-0.1,1.7-0.2,2.9-0.2c1.4,0,2.4,0.2,3.1,0.8c0.6,0.5,0.9,1.1,0.9,2c0,1.2-0.9,2.1-1.7,2.4v0
			c0.7,0.3,1,0.9,1.3,1.8c0.3,1.1,0.6,2.3,0.8,2.7h-2.2c-0.2-0.3-0.4-1-0.7-2.2c-0.3-1.2-0.7-1.5-1.6-1.5h-0.7v3.8h-2.2L106.2,25
			L106.2,25z M108.3,29.1h0.8c1.1,0,1.7-0.5,1.7-1.4c0-0.9-0.6-1.3-1.6-1.3c-0.5,0-0.8,0-1,0.1V29.1z"/>
		<path class="st0" d="M116.4,26.7h-2.6v-1.8h7.4v1.8h-2.6v7.8h-2.2C116.4,34.4,116.4,26.7,116.4,26.7z"/>
		<path class="st0" d="M127.2,27.1c0,1.4-1.1,2.5-2.5,2.5s-2.5-1.1-2.5-2.5s1.1-2.5,2.5-2.5S127.2,25.8,127.2,27.1z M122.9,27.2
			c0,1,0.8,1.8,1.8,1.8s1.8-0.8,1.8-1.9s-0.8-1.8-1.8-1.8S122.9,26.1,122.9,27.2L122.9,27.2z M124.4,28.3h-0.7V26
			c0.2,0,0.5-0.1,1-0.1c0.5,0,0.7,0.1,0.9,0.2c0.1,0.1,0.2,0.3,0.2,0.5s-0.2,0.4-0.5,0.5v0c0.3,0.1,0.4,0.3,0.5,0.6
			c0.1,0.3,0.1,0.5,0.2,0.5h-0.8c-0.1-0.1-0.1-0.3-0.2-0.5c0-0.2-0.2-0.3-0.4-0.3h-0.2C124.4,27.5,124.4,28.3,124.4,28.3z M124.4,27
			h0.2c0.3,0,0.4-0.1,0.4-0.3c0-0.2-0.2-0.3-0.4-0.3c-0.1,0-0.2,0-0.2,0C124.4,26.5,124.4,27,124.4,27z"/>
	</g>
	<g>
		<g>
			<g>
				<path class="st1" d="M44.4,48.5v-4.6h1.4c0.4,0,0.7,0.3,0.7,0.7v3.2c0,0.4-0.3,0.7-0.7,0.7L44.4,48.5L44.4,48.5z"/>
				<path class="st0" d="M45.9,44.2c0.2,0,0.4,0.2,0.4,0.4v3.2c0,0.2-0.2,0.4-0.4,0.4h-1.1v-4L45.9,44.2 M45.9,43.6h-1.7v5.2h1.7
					c0.5,0,1-0.4,1-1v-3.2C46.9,44,46.4,43.5,45.9,43.6L45.9,43.6L45.9,43.6z"/>
			</g>
			<g>
				<path class="st1" d="M26.2,55.4V32.1h16.5c0.9,0,1.6,0.7,1.6,1.6v20.2c0,0.9-0.7,1.6-1.6,1.6C42.8,55.4,26.2,55.4,26.2,55.4z"/>
				<path class="st0" d="M42.8,32.5c0.6,0,1.2,0.5,1.2,1.2v20.1c0,0.6-0.5,1.2-1.2,1.2H26.6V32.5H42.8 M42.8,31.7h-17v24.1h17
					c1.1,0,2-0.9,2-2V33.7C44.8,32.6,43.9,31.7,42.8,31.7C42.8,31.7,42.8,31.7,42.8,31.7z"/>
			</g>
			<g>
				<path class="st1" d="M44.3,39v-4.8h1.5c0.4,0,0.8,0.3,0.8,0.8v3.2c0,0.4-0.3,0.8-0.8,0.8L44.3,39L44.3,39z"/>
				<path class="st0" d="M45.9,34.6c0.2,0,0.4,0.2,0.4,0.4v3.2c0,0.2-0.2,0.4-0.4,0.4h-1.1v-4L45.9,34.6 M45.9,33.8h-1.9v5.6h1.9
					c0.7,0,1.2-0.5,1.2-1.2V35C47,34.3,46.5,33.8,45.9,33.8L45.9,33.8L45.9,33.8z"/>
			</g>
			<g>
				<path class="st1" d="M44.3,43.8V39h1.5c0.4,0,0.8,0.3,0.8,0.8V43c0,0.4-0.3,0.8-0.8,0.8L44.3,43.8L44.3,43.8z"/>
				<path class="st0" d="M45.9,39.4c0.2,0,0.4,0.2,0.4,0.4V43c0,0.2-0.2,0.4-0.4,0.4h-1.1v-4L45.9,39.4 M45.9,38.6h-1.9v5.6h1.9
					c0.7,0,1.2-0.5,1.2-1.2v-3.2C47,39.1,46.5,38.6,45.9,38.6L45.9,38.6L45.9,38.6z"/>
			</g>
			<g>
				<path class="st1" d="M44.3,53.3v-4.8h1.5c0.4,0,0.8,0.3,0.8,0.8v3.2c0,0.4-0.3,0.8-0.8,0.8L44.3,53.3L44.3,53.3z"/>
				<path class="st0" d="M45.9,48.9c0.2,0,0.4,0.2,0.4,0.4v3.2c0,0.2-0.2,0.4-0.4,0.4h-1.1v-4L45.9,48.9 M45.9,48.1h-1.9v5.6h1.9
					c0.7,0,1.2-0.5,1.2-1.2v-3.2C47,48.7,46.5,48.1,45.9,48.1L45.9,48.1L45.9,48.1z"/>
			</g>
			<g>
				<path class="st0" d="M38.5,48.2h-6.3c-0.2,0-0.5,0.2-0.5,0.5s0.2,0.5,0.5,0.5h6.3c0.2,0,0.5-0.2,0.5-0.5S38.7,48.2,38.5,48.2z"
					/>
				<path class="st0" d="M37,50h-3.4c-0.2,0-0.5,0.2-0.5,0.5s0.2,0.5,0.5,0.5H37c0.2,0,0.5-0.2,0.5-0.5S37.3,50,37,50z"/>
				<path class="st0" d="M35.3,41.6c1.2,0,2.2-1,2.2-2.2s-1-2.2-2.2-2.2s-2.2,1-2.2,2.2S34.1,41.6,35.3,41.6z"/>
				<path class="st0" d="M37.4,42.1h-0.2c-0.5,0.4-1.2,0.6-1.8,0.6s-1.3-0.2-1.8-0.6h-0.2c-0.9,0-1.7,1-1.7,2.2v0.8h7.5v-0.8
					C39.1,43.1,38.3,42.1,37.4,42.1L37.4,42.1z"/>
			</g>
		</g>
		<path class="st2" d="M45.9,44.2h-1.1v4h1.1c0.2,0,0.4-0.2,0.4-0.4v-3.2C46.2,44.3,46.1,44.1,45.9,44.2L45.9,44.2z"/>
		<path class="st2" d="M45.9,39.4h-1.1v4h1.1c0.2,0,0.4-0.2,0.4-0.4v-3.2C46.2,39.6,46.1,39.4,45.9,39.4L45.9,39.4z"/>
		<path class="st2" d="M45.9,34.6h-1.1v4h1.1c0.2,0,0.4-0.2,0.4-0.4V35C46.2,34.8,46.1,34.6,45.9,34.6L45.9,34.6z"/>
		<path class="st2" d="M45.9,48.9h-1.1v4h1.1c0.2,0,0.4-0.2,0.4-0.4v-3.2C46.2,49.1,46.1,48.9,45.9,48.9L45.9,48.9z"/>
		<path class="st0" d="M9.4,6.9c0,0,0.1,0,0.1,0c0,0,0,0.1,0.1,0.1C9.7,7,9.8,7.2,9.9,7.3c0.5,0.6,0.9,1.3,1.3,2
			c0.7,1.3,1.2,2.7,1.6,4.1c0,0,0,0.1,0,0.1c0,0,0.1,0,0.1,0c0.6-0.3,1.2-0.5,1.9-0.6c0.4-0.1,0.8-0.2,1.1-0.2
			c0.2,0,0.5-0.1,0.7-0.1c0.2,0,0.4-0.1,0.5-0.1c0.2,0,0.3,0,0.5-0.1c0.2,0,0.4,0,0.5-0.1c0.1,0,0.3,0,0.4,0c0.2,0,0.3,0,0.5,0
			c0.2,0,0.5,0,0.7,0c0.3,0,0.6,0,0.8,0c0.3,0,0.5,0,0.8,0.1c0.2,0,0.4,0,0.6,0.1c0.3,0,0.6,0.1,0.8,0.1c0.3,0,0.6,0.1,0.9,0.1
			c0.4,0.1,0.8,0.1,1.2,0.2c0.7,0.2,1.3,0.4,2,0.6c0,0,0,0,0.1,0c0,0,0-0.1,0-0.1c0.1-0.5,0.3-1,0.4-1.5c0.4-1,0.8-2,1.3-2.9
			c0.4-0.7,0.9-1.4,1.5-2.1c0,0,0-0.1,0.1-0.1c0,0,0.1,0,0.1,0c0.1,0.1,0.3,0.1,0.5,0c0.4-0.1,0.7-0.6,0.5-1c-0.1-0.4-0.6-0.7-1-0.5
			c-0.5,0.2-0.7,0.8-0.4,1.2c0,0,0,0.1,0.1,0.1c0,0,0,0.1-0.1,0.1c-0.1,0.1-0.2,0.2-0.3,0.3c-0.3,0.4-0.6,0.7-1,1
			c-0.2,0.2-0.4,0.4-0.7,0.5c-0.2,0.1-0.4,0.2-0.6,0.2c-0.1,0-0.3,0-0.5,0c-0.2,0-0.4-0.1-0.5-0.3c-0.1-0.2-0.2-0.3-0.3-0.5
			c-0.1-0.3-0.1-0.6-0.1-0.9c0-0.5,0-1,0.1-1.5c0.1-0.5,0.2-1,0.3-1.5c0,0,0-0.1,0-0.1c0.2,0,0.3,0,0.5-0.1c0.1-0.1,0.3-0.2,0.4-0.3
			c0.1-0.1,0.2-0.3,0.2-0.5c0-0.4-0.2-0.8-0.6-1c-0.4-0.2-0.9,0-1.1,0.4c-0.1,0.2-0.1,0.4-0.1,0.6c0,0.3,0.2,0.5,0.5,0.7
			c0,0,0,0.1,0,0.1c-0.4,0.7-0.8,1.3-1.2,2c-0.3,0.3-0.5,0.7-0.9,1c-0.2,0.2-0.5,0.4-0.7,0.6c-0.2,0.1-0.4,0.2-0.6,0.2
			c-0.2,0-0.4,0-0.6-0.1c0,0-0.1-0.1-0.1-0.1c-0.1-0.1-0.2-0.2-0.3-0.3c-0.2-0.3-0.4-0.6-0.5-0.8c-0.2-0.5-0.4-1-0.6-1.6
			c-0.2-0.8-0.4-1.5-0.6-2.3c0-0.1,0-0.1,0-0.2c0,0,0.1,0,0.1,0C20.7,2,21.1,1.5,21,1c0-0.5-0.4-0.9-0.9-1c0,0,0,0,0,0h-0.3
			c0,0-0.1,0-0.1,0c-0.7,0.2-1,0.9-0.8,1.5c0.1,0.3,0.4,0.5,0.7,0.6c0,0,0.1,0,0.1,0c0,0.1,0,0.2-0.1,0.3c-0.1,0.6-0.2,1.2-0.4,1.8
			c-0.2,0.6-0.3,1.2-0.6,1.7c-0.1,0.3-0.3,0.7-0.5,1c-0.1,0.2-0.2,0.3-0.4,0.5c-0.1,0.1-0.2,0.2-0.3,0.2c-0.1,0-0.2,0.1-0.3,0.1
			c-0.2,0-0.4-0.1-0.6-0.1c-0.2-0.1-0.5-0.3-0.7-0.4c-0.3-0.2-0.6-0.5-0.8-0.8C14.5,5.6,14,4.8,13.6,4c0,0,0,0,0,0
			c0,0,0.1,0,0.1-0.1C13.9,3.7,14,3.4,14,3.2c0.1-0.7-0.5-1.1-1.1-1c-0.4,0.1-0.6,0.3-0.7,0.7c-0.1,0.4,0.1,0.7,0.4,1
			C12.7,4,12.8,4,13,4c0.1,0,0.1,0,0.2,0c0,0,0,0.1,0,0.1c0.1,0.3,0.2,0.6,0.2,1c0.1,0.4,0.1,0.8,0.2,1.3c0,0.4,0,0.7,0,1.1
			c0,0.2-0.1,0.4-0.1,0.6c-0.1,0.2-0.1,0.3-0.3,0.5c-0.1,0.1-0.2,0.2-0.4,0.3c-0.2,0.1-0.4,0.1-0.5,0c-0.2-0.1-0.5-0.2-0.7-0.3
			c-0.3-0.2-0.5-0.4-0.7-0.6c-0.4-0.3-0.7-0.7-1-1.1C9.8,6.8,9.7,6.8,9.7,6.7c0,0,0-0.1,0.1-0.1c0.1-0.1,0.1-0.2,0.1-0.4
			c0-0.6-0.5-0.9-0.9-0.8C8.6,5.5,8.4,5.7,8.4,6c-0.1,0.3,0,0.6,0.2,0.8C8.8,6.9,9.1,7,9.4,6.9L9.4,6.9z"/>
		<path class="st0" d="M23.9,51.2C23.9,51.2,23.8,51.2,23.9,51.2c-0.1-0.1-0.2-0.6-0.3-0.7c0.8-0.2,1.5-0.4,2.3-0.7v-0.4
			c-0.1,0-0.2,0.1-0.3,0.1c-0.6,0.2-1.3,0.4-2,0.5c0,0-0.1,0-0.1,0c0,0,0,0,0-0.1c0,0,0-0.1,0-0.1c0-0.1-0.1-0.2-0.2-0.1
			c-0.1,0-0.1,0.1-0.1,0.2c0,0,0,0.1,0,0.2c0,0,0,0-0.1,0c-0.1,0-0.1,0-0.2,0c-0.2,0-0.5,0.1-0.7,0.1c-0.1,0-0.3,0-0.4,0.1
			c-0.2,0-0.4,0-0.5,0c-0.1,0-0.3,0-0.4,0c-0.2,0-0.4,0-0.6,0c-0.4,0-0.8,0-1.2,0c-0.2,0-0.5,0-0.8,0c-0.2,0-0.5,0-0.7-0.1
			s-0.5,0-0.7-0.1c0,0,0,0-0.1,0c0,0,0,0,0,0c0,0,0-0.1,0-0.1c0-0.1-0.1-0.2-0.2-0.2s-0.2,0-0.2,0.2c0,0,0,0,0,0.1s0,0,0,0.1
			c-1.2-0.2-2.4-0.5-3.6-0.9c-1.1-0.4-2.1-0.9-3.2-1.5c0,0,0-0.1,0-0.1c-0.1-0.4-0.2-0.7-0.5-1c0,0,0,0-0.1,0C9,46.6,9.3,46,9.4,46
			c0,0,0.1,0,0.1,0c0.1,0,0.2,0.1,0.3,0.2c0.1,0,0.2,0,0.2-0.1c0,0,0,0,0-0.1c0-0.1,0-0.1-0.1-0.2c0,0-0.1,0-0.1,0
			c-0.4-0.2-0.7-0.4-1.1-0.5c0,0-0.1,0-0.1,0c0,0-0.1,0-0.1,0c-0.1,0-0.1,0.1-0.1,0.2c0,0,0,0,0,0c0,0,0.1,0.1,0.1,0.1
			c0.1,0,0.2,0.1,0.3,0.2c0,0,0,0,0.1,0C8.9,45.9,8.9,46,8.9,46c0,0.1-0.1,0.2-0.1,0.2c0,0.1-0.1,0.2-0.1,0.3
			c-0.2-0.1-0.5-0.2-0.7-0.1c-0.2,0-0.5,0.1-0.7,0.2c-0.1-0.1-0.2-0.1-0.2-0.2C6.4,46,5.8,45.5,5.3,45c-0.4-0.4-0.8-0.8-1.1-1.2
			c-0.3-0.4-0.7-0.8-1-1.3c-0.6-0.9-1.1-1.9-1.6-3c0,0,0-0.1,0-0.1c-0.2-0.3-0.5-0.4-0.8-0.3c-0.2,0.1-0.3,0.2-0.4,0.3
			c0,0.1-0.1,0.2-0.1,0.3c0,0.1,0,0.2,0.1,0.3c0.1,0.2,0.1,0.3,0.2,0.5c1,2.2,2.4,4.1,4.1,5.7c0.5,0.5,1,0.9,1.6,1.3
			c0,0,0.1,0,0.1,0.1c-0.1,0.7,0.1,1.3,0.7,1.7c0.6,0.4,1.3,0.3,1.9-0.1c0,0,0,0,0,0c0,0,0.1,0,0.1,0c1.1,0.6,2.2,1.2,3.4,1.6
			c0.9,0.3,1.7,0.6,2.6,0.8c0.3,0.1,0.7,0.1,1,0.2c0.2,0,0.4,0.1,0.6,0.1c0.2,0,0.4,0,0.6,0.1c0.2,0,0.4,0,0.6,0.1
			c0.3,0,0.6,0,0.9,0.1c0,0,0,0,0.1,0h1.2c0,0,0.1,0,0.1,0c0.3,0,0.6,0,0.9-0.1c0.3,0,0.5,0,0.8-0.1c0.2,0,0.5-0.1,0.7-0.1
			c0.3,0,0.6-0.1,1-0.2c0.6-0.1,1.2-0.3,1.8-0.5c0.1,0,0.3-0.1,0.4-0.1v-0.5C25.2,50.9,24.5,51,23.9,51.2L23.9,51.2z M7.9,48.8
			c-0.5,0-0.8-0.4-0.8-0.8c0-0.4,0.3-0.8,0.8-0.8c0.4,0,0.8,0.3,0.8,0.8C8.7,48.5,8.3,48.8,7.9,48.8L7.9,48.8z M16.1,51.4
			c0,0-0.1,0-0.1,0c-0.4-0.1-0.8-0.1-1.2-0.2c-0.7-0.2-1.4-0.4-2.2-0.6c-0.8-0.3-1.5-0.6-2.2-1c-0.4-0.2-0.7-0.4-1.1-0.6
			c0,0-0.1,0-0.1,0c0-0.1,0.1-0.1,0.1-0.2c0-0.1,0.1-0.1,0.1-0.2c0-0.1,0-0.1,0.1-0.2c0,0,0.1,0,0.1,0c0.3,0.2,0.7,0.4,1,0.5
			c1.2,0.6,2.4,1,3.6,1.3c0.5,0.1,1,0.2,1.6,0.3c0.1,0,0.2,0,0.3,0c0,0,0.1,0,0.1,0C16.2,50.8,16.1,51.3,16.1,51.4L16.1,51.4z
			 M23.2,51.3c-0.2,0-0.4,0.1-0.7,0.1c-0.2,0-0.4,0-0.6,0.1c-0.2,0-0.4,0-0.5,0.1c-0.1,0-0.2,0-0.3,0c-0.2,0-0.3,0-0.5,0
			c-0.5,0-1.1,0-1.6,0c-0.3,0-0.5,0-0.8,0c-0.1,0-0.3,0-0.5,0c-0.2,0-0.4,0-0.6-0.1c-0.1,0-0.3,0-0.5,0c-0.1,0-0.1,0-0.2,0
			c0-0.2,0.1-0.4,0.1-0.6c0,0,0,0,0,0c0.2,0,0.4,0,0.6,0.1s0.4,0,0.6,0s0.4,0,0.6,0c0.2,0,0.4,0,0.6,0s0.4,0,0.6,0s0.4,0,0.6,0
			c0.2,0,0.4,0,0.6,0s0.4,0,0.6,0s0.4,0,0.6-0.1s0.4-0.1,0.6-0.1s0.4-0.1,0.6-0.1c0.1,0.2,0.1,0.5,0.2,0.7
			C23.4,51.3,23.3,51.3,23.2,51.3L23.2,51.3z"/>
		<polygon class="st0" points="9.4,32.2 9.4,32.2 9.4,32.2 		"/>
		<polygon class="st0" points="7.9,35 7.9,35 7.9,35 		"/>
		<path class="st0" d="M39.3,31.6c-0.1-0.4-0.2-0.8-0.3-1.2c-0.2-0.5-0.4-1-0.7-1.4c-0.2-0.2-0.3-0.4-0.5-0.6
			c-0.2-0.2-0.5-0.4-0.8-0.5c-0.2-0.1-0.4-0.1-0.7-0.2c-0.2,0-0.4-0.1-0.6-0.1c-0.2,0-0.3-0.1-0.5-0.2c-0.1,0-0.1-0.1-0.2-0.1
			c-0.1-0.1-0.1-0.1,0-0.2c0,0,0.1-0.1,0.1-0.1c0.1-0.1,0.2-0.2,0.4-0.3c0.2-0.1,0.4-0.3,0.6-0.4c0.1-0.1,0.2-0.1,0.3-0.2
			c0.3-0.3,0.5-0.6,0.7-1c0.1-0.2,0.1-0.5,0.1-0.8c0-0.2-0.1-0.4-0.3-0.6s-0.3-0.3-0.5-0.4c-0.3-0.1-0.5-0.3-0.8-0.4
			c-0.5-0.1-1-0.2-1.5-0.3c-0.2,0-0.3,0-0.5,0c-0.3,0-0.7,0-1,0c-0.4,0-0.9,0-1.3,0c-0.4,0-0.8,0-1.2,0c-0.2,0-0.4,0-0.6,0
			c-0.2,0-0.3,0-0.5,0c-0.5,0.1-0.9,0.2-1.4,0.3c-0.3,0.1-0.6,0.1-0.9,0.2c0,0,0,0-0.1,0c0.1-0.1,0.2-0.1,0.3-0.2s0.2-0.1,0.3-0.2
			s0.2-0.2,0.3-0.2s0.2-0.2,0.2-0.2c0.1-0.1,0.2-0.2,0.3-0.2c0.1-0.1,0.2-0.2,0.2-0.2s0.2-0.2,0.2-0.2c0-0.1-0.1-0.2-0.1-0.2
			c-0.1-0.1-0.2-0.3-0.4-0.4c-0.3-0.3-0.7-0.6-1-0.9c-0.1-0.1-0.2-0.2-0.4-0.3c-1-0.6-2.1-1.2-3.1-1.8c-1.2-0.7-2.4-1.2-3.7-1.6
			c-0.6-0.2-1.2-0.3-1.8-0.5c-0.3-0.1-0.5-0.1-0.8-0.1c-0.2,0-0.4-0.1-0.5-0.1c-0.2,0-0.4,0-0.6-0.1c-0.2,0-0.4,0-0.5,0
			c-0.4,0-0.8,0-1.2,0c-0.1,0-0.2,0-0.4,0c-0.1,0-0.2,0-0.3,0c-0.1,0-0.1,0-0.1,0c-0.4-0.2-0.8-0.4-1.2-0.5
			c-0.9-0.3-1.9-0.6-2.9-0.8c-0.4-0.1-0.8-0.1-1.3-0.2c-0.2,0-0.4,0-0.6,0c-0.2,0-0.3,0.1-0.5,0.2c-0.2,0.1-0.3,0.3-0.3,0.6
			c0,0.1-0.1,0.2-0.2,0.3c-0.1,0.1-0.2,0.2-0.3,0.2c-0.1,0-0.1,0.1-0.1,0.1c-0.1,0.1-0.1,0.1-0.1,0.2c0,0,0,0.1,0,0.1
			c0,0.1,0.1,0.1,0.2,0.2c0.1,0.1,0.2,0.1,0.2,0.2c0,0,0.1,0.1,0.1,0.1c0,0,0,0.1,0,0.1c0,0,0,0-0.1,0c-0.1,0-0.2,0.1-0.3,0.1
			c-0.1,0-0.2,0.1-0.2,0.1c0,0-0.1,0.1-0.1,0.1c0,0,0,0.1,0,0.1c0,0,0.1,0.1,0.1,0.1c0.1,0,0.2,0.1,0.2,0.1c0.1,0.1,0.1,0.2,0,0.3
			c0,0-0.1,0.1-0.1,0.1c-0.2,0.1-0.4,0.3-0.6,0.5c-0.2,0.2-0.4,0.4-0.6,0.7c0,0-0.1,0.1-0.1,0.1c-0.1,0.1-0.1,0.2-0.2,0.3
			c0,0,0,0.1,0,0.1c0,0,0,0.1,0.1,0.1c0.1,0,0.1,0,0.2,0c0.4-0.4,0.9-0.8,1.3-1.1C7,17.4,7.7,17,8.4,16.6c0.5-0.2,0.9-0.5,1.4-0.7
			c0,0,0.1,0,0.1-0.1c-0.1,0-0.2,0-0.2,0c-0.4,0.1-0.8,0.2-1.2,0.2c-0.3,0-0.6,0.1-0.9,0.1c-0.1,0-0.1,0-0.2,0c0,0,0,0-0.1,0
			c0,0,0-0.1,0.1-0.1c0.1,0,0.1-0.1,0.2-0.1C7.8,16,8.1,16,8.3,15.9c0.2,0,0.4-0.1,0.6-0.1c0.2,0,0.4-0.1,0.6-0.1
			c0.2,0,0.4,0,0.5-0.1c0.1,0,0.1,0,0.2,0c0,0-0.1,0-0.1,0c-0.2-0.1-0.4-0.1-0.7-0.1c-0.2,0-0.5,0-0.8,0c-0.3,0-0.6,0-0.8,0
			c-0.1,0-0.2,0-0.2,0c0,0-0.1,0-0.1,0c0,0,0-0.1,0-0.1s0-0.1,0.1-0.1c0.1-0.1,0.1-0.1,0.2-0.1c0,0,0.1,0,0.1,0
			c0.3-0.1,0.5-0.1,0.8-0.1c0.4,0,0.7,0,1.1,0.1c0.4,0.1,0.7,0.1,1,0.2c0.2,0.1,0.5,0.2,0.7,0.3c0,0,0,0,0.1,0.1c0,0-0.1,0-0.1,0
			c-0.3,0.1-0.6,0.2-0.9,0.3c-1,0.4-2,0.8-2.9,1.3c-0.8,0.5-1.6,1-2.3,1.6c-0.3,0.2-0.6,0.5-0.8,0.8c-0.1,0.1-0.1,0.1-0.2,0.2
			c-0.5,0.5-0.9,1-1.3,1.5c-0.5,0.8-1,1.5-1.4,2.4c-0.6,1.2-0.9,2.6-0.9,3.9c0,0.4,0,0.9,0.1,1.3c0,0.4,0.1,0.7,0.2,1.1
			c0.1,0.7,0.4,1.4,0.7,2c0.1,0.1,0.1,0.3,0.2,0.4c0,0,0,0.1,0.1,0.1c0,0,0,0,0,0c0,0,0,0,0,0c0-0.1,0-0.2,0-0.4c0,0,0-0.1,0-0.1
			c-0.3-0.9-0.5-1.8-0.6-2.8c0-0.2,0-0.4,0-0.6c0-0.1,0-0.2,0-0.4c0-0.1,0-0.3,0-0.4c0-0.4,0.1-0.8,0.2-1.1c0.2-0.6,0.4-1.3,0.6-1.9
			c0.4-1,1-2,1.6-2.8c0.7-0.9,1.6-1.7,2.5-2.4c1.1-0.8,2.3-1.5,3.5-2c0.9-0.4,1.9-0.7,2.9-1c0.5-0.1,1.1-0.2,1.6-0.3
			c0.1,0,0.2,0,0.4,0c0.2,0,0.4,0,0.6,0c0.2,0,0.3,0,0.5,0c0.3,0,0.6,0.1,0.9,0.1c0.3,0,0.7,0.1,1,0.2c0.8,0.1,1.5,0.3,2.2,0.6
			c0.9,0.3,1.7,0.6,2.6,1c0.4,0.2,0.8,0.4,1.2,0.6c0.1,0.1,0.3,0.1,0.4,0.2c0.6,0.4,1.3,0.8,1.8,1.4c0.2,0.2,0.5,0.5,0.6,0.7
			c0,0,0.1,0.1,0.1,0.1c0,0,0,0,0,0c0,0,0,0,0,0.1c-0.3,0.3-0.7,0.6-1.1,0.9c-0.5,0.3-1,0.6-1.6,0.8c-0.3,0.1-0.6,0.1-0.9,0.1
			c0,0,0,0-0.1,0c-0.2,0-0.4,0-0.6,0c-0.3,0-0.5-0.1-0.8-0.2c-0.4-0.2-0.8-0.5-1-0.9c-0.1-0.1-0.2-0.3-0.2-0.4c0,0,0-0.1,0-0.1
			c0,0,0,0-0.1-0.1c0,0-0.1,0-0.1,0c0,0,0,0,0,0.1c0,0.1,0,0.1,0,0.2c0,0.3,0,0.5,0.1,0.8c0.1,0.3,0.3,0.6,0.6,0.8
			c0.1,0.1,0.2,0.1,0.3,0.2c0.1,0.1,0.2,0.1,0.4,0.2c0.5,0.2,1,0.3,1.5,0.3c0.5,0,1,0,1.4-0.1c0.2,0,0.4-0.1,0.6-0.1
			c0,0,0.1,0,0.1,0c0,0,0,0,0.1,0c0.1,0,0.2,0.1,0.3,0.1c0.3,0.1,0.5,0.1,0.8,0.1c0.1,0,0.2,0,0.3,0c0,0.1,0,0.1,0,0.2c0,0,0,0,0,0
			c-0.2,0-0.5,0.1-0.7,0.1c-0.1,0-0.3,0-0.5,0c-0.3,0-0.6,0-0.9,0c-0.6,0-1.3,0-1.9,0c-0.3,0-0.6,0-0.9-0.1c-0.4,0-0.7-0.1-1.1-0.2
			c-0.5-0.1-0.9-0.2-1.4-0.3c-0.2,0-0.5-0.1-0.7-0.2c0,0-0.1,0-0.1,0c0,0,0,0-0.1,0c0,0,0,0.1,0,0.1c0,0,0.1,0.1,0.1,0.1
			c0.1,0.1,0.1,0.1,0.1,0.2c0,0.2,0,0.3-0.1,0.4c0,0-0.1,0.1-0.2,0.1c-0.1,0-0.2,0.1-0.3,0.1c-0.3,0.1-0.5,0.1-0.8,0.1
			c-0.1,0-0.3,0-0.4,0c-0.2,0-0.5,0-0.7,0c-0.2,0-0.5,0-0.7,0c-0.1,0-0.2,0-0.3,0c-0.1,0-0.2,0-0.2-0.1c-0.1-0.1-0.1-0.2-0.2-0.2
			c-0.1-0.2-0.3-0.4-0.4-0.6c0,0,0,0,0,0c0,0,0,0,0-0.1c0,0,0.1,0,0.1,0c0.2,0,0.4,0,0.6,0c0.3,0,0.6,0.1,0.9,0.2
			c0.3,0.1,0.5,0.1,0.8,0.2c0,0,0,0,0.1,0c0,0-0.1,0-0.1-0.1c-0.2-0.1-0.4-0.2-0.6-0.2c-0.5-0.1-1.1-0.2-1.6-0.3c-0.1,0-0.2,0-0.2,0
			c-0.1,0-0.1-0.1-0.2-0.2c0-0.1,0-0.1,0.1-0.2c0,0,0,0,0.1,0c0.1,0,0.2,0,0.3,0c0.1,0,0.2,0,0.4,0c0,0-0.1,0-0.1,0
			c-0.2-0.1-0.4-0.1-0.7-0.2c0,0,0,0-0.1,0c-0.1-0.1-0.1-0.2,0-0.3c0.1,0,0.1-0.1,0.2-0.1c0.2,0,0.4,0,0.6,0c0.2,0,0.4,0.1,0.6,0.2
			c0.4,0.2,0.8,0.4,1.2,0.6c0.4,0.2,0.7,0.4,1,0.7c0,0,0,0,0.1,0c0,0,0,0-0.1-0.1c-0.1-0.2-0.3-0.3-0.5-0.5c-0.6-0.5-1.2-0.9-2-1.2
			c-0.3-0.1-0.6-0.2-0.9-0.2c-0.1,0-0.3,0-0.5,0c-0.1,0-0.2,0-0.3,0.1c-0.2,0.1-0.3,0.3-0.3,0.5c0,0.1,0,0.1,0,0.2
			c0,0.2,0,0.5-0.1,0.7c0,0.2,0,0.4,0.2,0.6c0.1,0.2,0.3,0.3,0.4,0.4c0.1,0,0.1,0.1,0.2,0.2c0,0,0.1,0.1,0.1,0.1
			c0.1,0.1,0.1,0.2,0.2,0.3c0.1,0.1,0.2,0.1,0.3,0.2c0,0,0.1,0,0.1,0c-0.1,0-0.2,0-0.3,0c-0.2,0-0.3,0-0.5,0.1
			c-0.3,0.1-0.6,0.1-0.9,0.2c-0.7,0.2-1.3,0.5-2,0.7c-0.3,0.1-0.6,0.2-0.8,0.4c0,0,0,0-0.1,0c0,0,0.1-0.1,0.1-0.1
			c0.2-0.2,0.4-0.4,0.6-0.5c0.3-0.2,0.5-0.5,0.8-0.7c0,0,0.1,0,0.1-0.1c0,0-0.1,0-0.1,0c-0.1,0-0.3,0.1-0.4,0.2
			c-0.2,0.1-0.5,0.3-0.7,0.4c-0.2,0.2-0.5,0.3-0.7,0.5c0,0-0.1,0-0.1,0c0,0,0,0,0-0.1c0-0.1,0.1-0.1,0.1-0.2
			c0.1-0.2,0.2-0.3,0.4-0.4c0.2-0.2,0.4-0.4,0.7-0.6c0,0,0,0,0,0c-0.1,0-0.2,0-0.3,0.1c-0.3,0.1-0.5,0.2-0.7,0.4
			c-0.3,0.2-0.6,0.5-0.9,0.7c0,0-0.1,0.1-0.1,0.1c-0.7,0.2-1.4,0.5-2,0.8c-0.8,0.4-1.4,1-2,1.6c-0.2,0.2-0.3,0.4-0.5,0.7
			c0,0,0,0.1-0.1,0.1c0,0,0.1,0,0.1-0.1c0.2-0.2,0.4-0.4,0.6-0.5c0.4-0.3,0.9-0.6,1.3-0.7c0.2-0.1,0.3-0.1,0.5-0.1c0,0-0.1,0-0.1,0
			c-0.2,0.1-0.5,0.3-0.7,0.4c-0.8,0.5-1.4,1-2.1,1.6c-0.5,0.5-0.8,1-1.1,1.5c-0.2,0.3-0.3,0.7-0.4,1c0,0.1,0,0.2-0.1,0.2
			c0,0.1-0.1,0.2-0.1,0.4c0,0,0,0.1,0,0.1c0,0.2,0.1,0.3,0.3,0.3c0.2,0,0.3,0,0.4-0.1c0.1,0,0.2-0.1,0.3-0.2
			c0.2-0.1,0.3-0.2,0.5-0.2c0.1,0,0.2-0.1,0.3-0.1c0,0,0.1,0,0.1,0c0.2,0,0.3-0.1,0.4-0.1c0.2,0,0.4-0.1,0.6-0.2
			c0.1,0,0.1-0.1,0.2-0.2c0,0,0.1-0.1,0.1-0.1c0.1-0.1,0.1-0.2,0.1-0.4c0.1-0.3,0.2-0.7,0.3-1c0,0,0,0,0,0c0,0,0.1,0.1,0.1,0.1
			c0.2,0.2,0.3,0.3,0.5,0.5c0,0,0,0,0.1,0c0.3,0.1,0.5,0.3,0.8,0.5c0,0,0,0,0.1,0c0.1,0,0.1,0,0.2-0.1c0.6-0.2,1.2-0.3,1.8-0.5
			c0,0,0.1,0,0.1,0l0,0l0,0v0c0,0,0,0,0,0l0,0c0,0,0,0,0,0l0,0l0,0c0,0-0.1,0-0.1,0c-0.6,0.2-1.2,0.5-1.8,0.7
			c-0.1,0-0.2,0.1-0.2,0.2c-0.1,0.1-0.2,0.2-0.2,0.3c0,0,0,0,0,0.1c0,0,0,0,0.1,0c0.2,0,0.4,0.1,0.6,0.1s0.4,0.1,0.6,0.1
			c0.2,0,0.4,0.1,0.7,0.1c0.1,0,0.2,0,0.3,0.1c0,0,0,0,0,0c-0.8,0-1.6,0-2.4,0c0,0,0,0,0,0c0,0,0,0,0,0c0,0,0,0,0,0c0,0,0,0,0,0
			c-0.1,0.1-0.1,0.2-0.1,0.3c0,0,0.1,0,0.1,0.1c0.2,0.2,0.4,0.3,0.6,0.5c0.1,0.1,0.2,0.2,0.4,0.3c0,0,0,0,0,0l0,0l0,0c0,0,0,0,0,0
			l0,0c0,0,0,0,0,0l0,0l0,0c0,0-0.1,0-0.1,0c-0.3-0.2-0.6-0.3-1-0.5c0,0-0.1,0-0.1,0c-0.1,0.1-0.3,0.3-0.4,0.4c0,0,0,0.1,0.1,0.1
			c0.1,0.3,0.3,0.7,0.4,1c0,0,0,0.1,0,0.1c0,0,0,0,0,0c0,0,0,0-0.1,0c0,0,0-0.1-0.1-0.1c-0.2-0.3-0.3-0.6-0.5-0.9c0,0,0,0-0.1-0.1
			c-0.1,0.1-0.4,0.3-0.4,0.4c0,0.2,0.1,0.3,0.1,0.4c0.1,0.4,0.2,0.7,0.4,1.1c0.1,0.3,0.3,0.6,0.4,0.9c0,0,0,0,0,0.1c0,0,0,0-0.1,0
			c-0.2-0.2-0.3-0.3-0.4-0.5c-0.3-0.5-0.6-1.1-0.7-1.8c0,0,0-0.1,0-0.1c-0.1,0-0.2,0-0.3-0.1c-0.2-0.1-0.4-0.2-0.6-0.3
			c-0.3-0.2-0.6-0.4-0.8-0.6c0,0-0.1-0.1-0.1-0.1c-0.1,0-0.1,0.1-0.2,0.1c0,0,0,0,0,0c0.1,0.1,0.1,0.1,0.2,0.2
			c0.5,0.5,0.9,1.1,1.1,1.8c0.2,0.5,0.5,1.1,0.9,1.6c0.6,0.8,1.3,1.5,2.2,2.1c0.3,0.2,0.6,0.4,1,0.5c0,0,0.1,0,0.1,0
			c0,0,0-0.1,0-0.1c0-0.1,0-0.2-0.1-0.3c-0.1-0.4-0.1-0.7-0.1-1.1c0-0.6,0-1.1,0.1-1.7c0.1-0.5,0.3-1,0.6-1.5
			c0.2-0.4,0.5-0.8,0.9-1.1c0,0,0,0,0.1,0c0.4-0.3,0.8-0.7,1.1-1c0.7-0.6,1.4-1.3,2-2c0.1-0.1,0.2-0.3,0.4-0.4
			c0.1-0.1,0.1-0.2,0.2-0.3c0-0.1,0-0.1,0.1-0.2c0-0.1,0-0.2-0.1-0.3c-0.1,0-0.1,0-0.2-0.1c-0.2,0-0.3,0-0.5,0c-0.1,0-0.3,0-0.4,0.1
			c-0.2,0-0.5,0.1-0.7,0.1c-0.2,0-0.4,0.1-0.6,0.1c-0.2,0-0.4,0.1-0.6,0.1c-0.2,0-0.4,0-0.5,0.1c-0.2,0-0.3,0-0.5,0.1
			c-0.2,0-0.4,0-0.6,0.1s-0.4,0-0.6,0.1c-0.1,0-0.3,0-0.4,0c-0.1,0-0.3,0-0.4,0c-0.3,0-0.7,0-1,0c-0.1,0-0.2,0-0.4-0.1
			c-0.1,0-0.1-0.1-0.2-0.1c-0.1-0.1-0.1-0.2-0.1-0.3c0,0,0,0,0-0.1c0-0.1,0-0.3,0.1-0.5c0.1-0.2,0.2-0.5,0.3-0.7
			c0.3-0.6,0.7-1.1,1.1-1.6c0,0,0.1-0.1,0.1-0.1c0,0,0,0,0.1,0c0.1,0,0.2,0,0.4,0c0,0,0,0,0,0.1c0,0.1,0,0.2,0,0.3
			C8,28.5,8,28.7,8,28.8c0,0.1,0,0.2,0,0.3c0,0,0,0.1,0,0.1c0,0,0.1,0.1,0.1,0.1c0.1,0,0.1,0,0.1-0.1c0.1-0.1,0.2-0.1,0.2-0.2
			c0,0,0.1-0.1,0.1-0.1c0.3-0.3,0.7-0.6,1-0.9c0.3-0.3,0.7-0.5,1-0.8c0.1-0.1,0.1-0.1,0.3-0.1c0.4,0,0.8,0,1.1,0
			c0.3,0,0.5,0,0.8-0.1c0.3,0,0.6-0.1,0.9-0.1c0.4-0.1,0.8-0.1,1.2-0.2c0.7-0.2,1.5-0.4,2.2-0.6c0.3-0.1,0.6-0.2,0.9-0.3
			c0.5-0.2,1.1-0.3,1.7-0.4c0.3,0,0.5-0.1,0.8-0.1c0.2,0,0.4-0.1,0.6-0.1c0.2,0,0.3,0,0.5,0c0.2,0,0.3,0,0.5,0c0.1,0,0.2,0,0.3,0
			c0.2,0,0.4,0,0.6,0.1c0.2,0,0.3,0,0.5,0c0.4,0,0.7,0,1.1,0c0.2,0,0.4,0,0.6,0c0.3,0,0.7-0.1,1-0.2c0.6-0.1,1.2-0.3,1.8-0.6
			c0.1,0,0.2-0.1,0.3-0.1c0,0,0,0,0.1-0.1c0-0.1,0-0.2-0.1-0.3c0,0,0,0,0,0c-0.1,0-0.2,0-0.3,0s-0.2,0-0.3,0c-0.1,0-0.2,0-0.4,0
			c-0.2,0-0.5-0.1-0.7-0.2c0,0,0,0,0,0c0,0,0,0,0.1,0c0.4-0.1,0.8-0.2,1.2-0.3c0.2,0,0.5-0.1,0.7-0.1c0.2,0,0.5-0.1,0.7-0.1
			c0.1,0,0.3,0,0.5,0c0.2,0,0.4,0,0.7,0c0.4,0,0.8,0,1.2,0c0.4,0,0.8,0,1.3,0c0.3,0,0.6,0,1,0c0.3,0,0.5,0,0.8,0.1
			c0.3,0,0.6,0.1,0.9,0.2c0.3,0.1,0.5,0.2,0.8,0.3c0.1,0.1,0.3,0.2,0.4,0.3c0.2,0.2,0.2,0.4,0.2,0.6c0,0.1,0,0.2-0.1,0.3
			c-0.1,0.2-0.2,0.4-0.3,0.6c-0.1,0.2-0.3,0.3-0.5,0.4s-0.4,0.2-0.5,0.4c-0.2,0.1-0.4,0.3-0.5,0.5c-0.1,0.1-0.2,0.3-0.3,0.5
			c0,0.1,0,0.2,0,0.2c0,0.1,0.1,0.2,0.2,0.3c0.1,0.1,0.2,0.2,0.4,0.2c0.2,0.1,0.4,0.1,0.6,0.2c0.2,0,0.4,0.1,0.6,0.1
			c0.4,0.1,0.8,0.2,1.1,0.5c0.3,0.3,0.6,0.6,0.8,1c0.2,0.3,0.3,0.7,0.4,1c0.1,0.4,0.2,0.8,0.2,1.1h0.5
			C39.3,31.6,39.3,31.6,39.3,31.6L39.3,31.6z"/>
		<path class="st0" d="M19.2,20.2c0.1-0.1,0.3-0.3,0.5-0.4c0,0,0.1,0,0.1-0.1c0.5-0.4,1.1-0.6,1.8-0.7c0.1,0,0.2-0.1,0.4-0.1
			c0,0,0,0,0,0c0.1-0.1,0.1-0.2,0-0.3c0,0-0.1-0.1-0.1-0.1c-0.1-0.1-0.2-0.1-0.2-0.2c-0.2-0.1-0.4-0.2-0.6-0.2
			c-0.4-0.1-0.8-0.3-1.2-0.4c-0.4-0.1-0.8-0.2-1.1-0.3c-0.3-0.1-0.6-0.1-0.9-0.1c-0.1,0-0.2,0-0.4,0c-0.2,0-0.4,0-0.5-0.1
			c-0.1,0-0.3,0-0.4,0c-0.3,0-0.5,0-0.8,0c-0.6,0-1.1,0-1.7,0.1c-0.3,0-0.6,0.1-0.9,0.1c-0.4,0-0.8,0.1-1.1,0.2c-1,0.2-2,0.6-2.9,1
			c-0.6,0.3-1.2,0.7-1.8,1.1c-0.4,0.3-0.9,0.7-1.3,1.1c-0.8,0.8-1.6,1.7-2.2,2.7c-0.6,1-1.1,2.1-1.4,3.2c-0.1,0.5-0.2,1-0.3,1.5
			c0,0.3,0,0.7,0,1c0,0.3,0,0.7,0,1c0,0.2,0,0.4,0.1,0.6c0,0,0,0,0,0.1c0,0,0.1,0,0.2,0c0,0,0-0.1,0-0.1c0-0.7,0-1.4,0.1-2.1
			c0-0.4,0.1-0.8,0.2-1.2c0.2-0.6,0.3-1.3,0.6-1.9c0.4-0.8,0.8-1.5,1.4-2.1c0.2-0.2,0.4-0.4,0.5-0.6c0.4-0.4,0.8-0.8,1.2-1.1
			c1.1-0.9,2.3-1.5,3.6-2c0.6-0.2,1.2-0.4,1.8-0.5c0.3-0.1,0.6-0.1,0.8-0.1c0.2,0,0.4,0,0.6-0.1c0.2,0,0.4,0,0.6-0.1
			c0.3,0,0.6,0,0.9,0c0.4,0,0.7,0,1.1,0c0.1,0,0.3,0,0.5,0c0.1,0,0.2,0,0.3,0c0.2,0,0.4,0,0.6,0.1c0.3,0,0.5,0.1,0.8,0.1
			c0.1,0,0.3,0.1,0.4,0.1c0,0,0.1,0,0.1,0.1c0.1,0.1,0.1,0.1,0.1,0.3c0,0.1-0.1,0.2-0.1,0.3c0,0.1-0.1,0.1-0.1,0.2
			c-0.3,0.5-0.3,1-0.2,1.6c0.1,0.3,0.2,0.7,0.3,1c0.1,0.2,0.2,0.3,0.4,0.5c0,0,0,0.1,0.1,0c0,0,0-0.1,0-0.1
			c-0.1-0.2-0.1-0.4-0.2-0.6c-0.1-0.4-0.1-0.8,0-1.2S19,20.5,19.2,20.2L19.2,20.2z"/>
		<path class="st0" d="M12.8,23.1c0.1-0.1,0.1-0.2,0.1-0.3c0.1-0.2,0-0.4-0.1-0.6c0,0-0.1-0.1-0.1-0.1c-0.1,0-0.2,0-0.4,0
			c-0.2,0-0.3,0.1-0.4,0.2c-0.1,0.1-0.1,0.1-0.2,0.2c-0.1,0.1-0.2,0.2-0.3,0.3c0,0-0.1,0.1-0.1,0.1c0,0,0,0.1,0,0.1
			c-0.1,0.3-0.1,0.6,0,1c0.1,0.2,0.1,0.5,0.2,0.7c0,0.1,0.1,0.3,0.1,0.4c0,0,0,0.1,0.1,0.1c0.1,0.1,0.3,0.2,0.4,0.2
			c0.2,0,0.4,0,0.6-0.3c0-0.1,0.1-0.1,0.1-0.2c0-0.1,0-0.1,0-0.2c-0.1-0.2-0.1-0.5-0.2-0.7c-0.1-0.2-0.1-0.4-0.2-0.6
			c0,0,0,0,0.1-0.1C12.6,23.3,12.7,23.2,12.8,23.1z"/>
		<path class="st0" d="M23.8,20.1c0,0-0.1-0.1-0.1-0.1c-0.3-0.4-0.6-0.6-1.1-0.7c0,0,0,0,0,0c0.1,0.1,0.3,0.2,0.4,0.4
			s0.3,0.2,0.4,0.4c0,0.2,0,0.4,0,0.5c0,0.2,0.1,0.4,0.2,0.6c0.2,0.4,0.5,0.6,0.9,0.6c0.2,0,0.5,0,0.7,0c0,0,0.1,0,0.2,0
			c0,0,0,0,0.1,0c0,0,0,0,0-0.1c0,0,0,0-0.1,0c0,0-0.1,0-0.2,0c-0.1,0-0.2,0-0.3,0c-0.2,0-0.3-0.1-0.5-0.1c-0.2-0.1-0.4-0.3-0.5-0.6
			c0-0.2-0.1-0.3,0-0.5C23.9,20.2,23.9,20.2,23.8,20.1L23.8,20.1z"/>
		<path class="st0" d="M25.5,20.6c0-0.4-0.4-0.7-0.7-0.7c-0.4,0-0.7,0.3-0.7,0.7c0,0.4,0.4,0.7,0.7,0.7C25.2,21.3,25.5,21,25.5,20.6
			z M24.3,20.8c-0.1-0.3,0.1-0.6,0.4-0.6s0.5,0.1,0.6,0.3c0,0,0,0,0,0c-0.1-0.1-0.2-0.2-0.3-0.2c-0.1,0-0.2,0-0.3,0
			c-0.1,0.1-0.3,0.2-0.2,0.5c0,0.1,0.1,0.2,0.2,0.3c0.1,0.1,0.2,0.1,0.3,0.1c0,0,0,0,0,0C24.6,21.2,24.3,21,24.3,20.8L24.3,20.8z"/>
		<path class="st0" d="M17.3,22.1c-0.3,0-0.6,0.2-0.6,0.6c0,0.4,0.3,0.6,0.6,0.6c0.3,0,0.6-0.2,0.6-0.6C18,22.3,17.6,22.1,17.3,22.1
			z"/>
		<path class="st0" d="M24.3,13.3c-0.4-0.1-0.8-0.2-1.3-0.3c-0.2-0.1-0.5-0.1-0.8-0.1c-0.2,0-0.4-0.1-0.6-0.1c-0.2,0-0.4,0-0.6-0.1
			c-0.2,0-0.3,0-0.5,0c-0.3,0-0.6,0-0.9,0c-0.3,0-0.6,0-1,0c0,0-0.1,0-0.1,0c-0.2,0-0.3,0-0.5,0c-0.2,0-0.4,0-0.6,0.1
			c-0.2,0-0.4,0.1-0.6,0.1c-0.3,0-0.6,0.1-0.9,0.1c-0.5,0.1-1,0.2-1.5,0.4c-0.4,0.1-0.7,0.2-1.1,0.4c0,0-0.1,0-0.1,0
			c-0.1,0.1-0.2,0.3-0.4,0.4c0,0,0.1,0,0.1,0c0.2,0.1,0.4,0.2,0.7,0.3c0.1,0.1,0.2,0.1,0.3,0.1c0,0,0,0,0,0c0.3,0,0.6,0,0.8,0
			c0.2,0,0.5,0,0.7,0c0.2,0,0.4,0,0.7,0.1c0.3,0,0.6,0.1,0.9,0.1c0.4,0.1,0.8,0.1,1.1,0.2c0.8,0.2,1.6,0.4,2.4,0.7
			c0.9,0.3,1.7,0.7,2.6,1.1c0.5,0.3,1,0.5,1.5,0.9c0,0,0.1,0.1,0.2,0.1c0.1,0,0.3,0.1,0.4,0.1c0,0,0.1,0,0.1,0
			c0.1,0,0.1,0.1,0.2,0.1c0,0,0.1,0,0.1,0c0.1,0,0.1,0,0.2,0c0.1,0,0.1,0,0.2,0c0,0,0,0,0.1,0c0.1,0.1,0.1,0.1,0.2,0.2
			c0.1,0.1,0.3,0.2,0.5,0.2c0.1,0,0.2,0,0.3,0c0,0,0.1,0,0.2,0c0,0,0.1,0,0.1,0.1c0,0,0.1,0,0.1,0.1c0,0,0.1,0.1,0.1,0.1
			c0,0,0.1,0,0.1,0c0.1,0,0.1-0.1,0.2-0.1c0,0,0,0,0.1,0c0.1,0,0.2,0,0.3,0.1c0,0,0,0,0,0c0,0,0.1,0,0.1,0s0.1,0,0.1,0
			c0,0,0.1,0,0.2,0c0.2,0,0.3,0,0.5,0.1c0.1,0,0.1,0,0.2,0c0.1,0,0.2,0,0.3,0c0.1,0,0.2,0,0.3,0s0.2,0,0.2,0c0.1,0,0.2,0.1,0.3,0.1
			c0.1,0.1,0.2,0.1,0.3,0c0,0,0.1-0.1,0.1-0.1c0,0,0-0.1,0-0.1c0,0,0-0.1,0-0.1c0.1,0,0.2,0.1,0.3,0.2c0,0.1,0.1,0.1,0.2,0.1
			c0.1,0,0.1,0,0.2,0c0,0,0.1,0,0.1,0c0.1,0,0.1,0,0.2-0.1c0.1,0,0.3,0,0.4,0c0,0,0,0,0.1,0c0.1,0,0.1,0.1,0.2,0.1
			c0,0,0.1,0.1,0.1,0.1c0.1,0.1,0.3,0.2,0.5,0.1c0.1,0,0.2,0,0.3,0c0,0,0.1,0,0.2,0c0,0,0-0.1-0.1-0.1c-0.2-0.2-0.3-0.4-0.5-0.5
			c-1.1-1.3-2.4-2.3-3.9-3.2C27.9,14.5,26.2,13.8,24.3,13.3L24.3,13.3z"/>
		<path class="st0" d="M1.3,34.3c0,0,0,0.1,0,0.1c0,0,0,0.1,0,0.1c0.1,0.3,0.1,0.7,0.2,1c0.3,1.1,0.6,2.2,1.1,3.2
			c1.1,2.4,2.6,4.5,4.5,6.3c0.3,0.3,0.6,0.6,1,0.8c0,0,0,0,0.1,0c0,0,0-0.1,0-0.1c0,0,0,0,0,0c0-0.1-0.1-0.1-0.1-0.2
			c-0.2-0.2-0.3-0.5-0.6-0.6c-0.1-0.1-0.2-0.2-0.2-0.3c0-0.1-0.1-0.3-0.2-0.3C7,44.3,7,44.2,6.9,44.1c0,0-0.1-0.1-0.1-0.1
			c-0.1-0.2-0.2-0.4-0.3-0.6c-0.4-0.8-0.7-1.7-1-2.5c-0.1-0.3-0.2-0.7-0.2-1c0,0,0-0.1,0-0.1c0,0,0,0,0.1,0c0.3,0.4,0.6,0.7,0.9,1
			c0.7,0.6,1.4,1.1,2.1,1.5c0.1,0,0.1,0.1,0.2,0.1c0.1,0,0.2,0,0.2,0c0.2,0,0.4,0,0.5-0.1c0.1-0.1,0.2-0.2,0.2-0.3
			c0.1-0.1,0.1-0.3,0.1-0.4c0,0,0-0.1,0-0.1c0,0,0,0-0.1,0.1c-0.1,0.1-0.2,0.2-0.4,0.2c-0.3,0.1-0.5,0-0.8-0.1
			c-0.4-0.2-0.8-0.4-1.1-0.7c-0.7-0.5-1.2-1-1.8-1.6c-0.3-0.4-0.6-0.8-0.9-1.2c-0.1-0.1-0.1-0.2-0.1-0.2c-0.2-0.6-0.5-1.1-0.8-1.6
			c-0.2-0.3-0.5-0.7-0.8-1c-0.1-0.1-0.1-0.1-0.2-0.2c0,0-0.1,0-0.1,0c0,0,0,0,0,0c-0.2,0-0.3,0-0.5,0c-0.2-0.1-0.3-0.2-0.4-0.3
			c-0.1-0.2-0.2-0.3-0.3-0.5c0-0.3,0-0.5,0-0.8c0,0,0-0.1,0-0.2c-0.2-0.3-0.3-0.7-0.5-1c-0.4-0.9-0.6-1.8-0.8-2.7
			c-0.1-0.3-0.1-0.6-0.1-0.9c0-0.2,0-0.5,0-0.7c0,0,0,0,0-0.1c0,0,0,0.1,0,0.1c-0.1,0.2-0.1,0.4-0.2,0.7c0,0.1,0,0.2,0,0.3
			c0,0,0,0.1,0,0.1v0.5c0,0,0,0.1,0,0.2c0,0.1,0,0.2,0,0.3c0,0.4,0.1,0.9,0.2,1.3c0.2,0.7,0.4,1.3,0.6,2C1.1,33.7,1.2,34,1.3,34.3z"
			/>
		<path class="st0" d="M38.2,30.9c0-0.3,0-0.5,0-0.8c0,0,0,0,0-0.1C38.1,30,38,30,38,30c-0.1,0-0.2,0.1-0.3,0.2
			c-0.1,0.1-0.1,0.1-0.2,0.2c-0.1,0-0.1,0.1-0.1,0.1c0,0,0,0,0,0.1c0,0,0,0.1,0,0.1c0,0.1-0.1,0.2-0.1,0.4c0,0,0,0.1-0.1,0.1
			c-0.1,0.1-0.1,0.2-0.2,0.4c0,0,0,0.1,0,0.1h1.3C38.2,31.5,38.2,31.1,38.2,30.9L38.2,30.9z"/>
		<path class="st0" d="M25.9,45.1c0,0-0.1,0.1-0.2,0.1c-0.3,0-0.7,0-1,0c-0.2,0-0.3,0-0.5,0c0,0,0,0,0,0c0,0,0,0-0.1,0
			c0-0.1,0-0.2,0.1-0.3c0-0.1,0-0.2,0-0.2c0,0,0,0,0-0.1c0-0.1,0-0.2-0.1-0.3c0,0,0-0.1,0-0.1c0-0.1,0-0.1-0.1-0.2
			c0-0.1-0.1-0.1-0.2-0.2c0,0-0.1-0.1-0.1-0.1c0,0-0.1-0.1,0-0.2c0,0,0-0.1,0-0.1c0-0.1,0-0.3,0-0.4c0-0.1,0-0.2,0-0.2
			c0-0.1,0-0.2,0-0.3c0,0,0-0.1,0-0.1c0-0.1-0.1-0.1-0.1-0.2c0,0,0-0.1-0.1-0.1c0,0,0,0-0.1-0.1c0,0-0.1-0.1-0.1-0.1
			c0-0.1-0.1-0.2-0.1-0.3c0,0,0-0.1,0-0.1c0-0.1,0-0.2,0-0.3c0,0,0,0,0-0.1c0-0.1,0-0.2,0.1-0.2c0-0.1,0.1-0.2,0.1-0.2
			c0-0.1,0-0.3,0.1-0.4c0,0,0,0,0-0.1c0.1,0,0.1-0.1,0.1-0.2c0,0,0,0,0,0c0,0,0.1-0.1,0.1-0.1c0,0,0-0.1,0-0.1c0,0,0-0.1-0.1-0.1
			c0-0.2-0.1-0.4-0.1-0.6c0,0,0-0.1,0-0.1c0-0.1,0-0.2,0-0.3c0,0,0-0.1,0-0.1c-0.1-0.1-0.1-0.1-0.2-0.2C23.1,38.3,23,38.1,23,38
			c-0.1-0.2-0.2-0.3-0.3-0.5c-0.1-0.1-0.1-0.1-0.1-0.2c0-0.1-0.1-0.2,0-0.3c0,0,0,0,0-0.1c0-0.2,0-0.3,0-0.5c0-0.1,0-0.1,0-0.2
			c0,0,0-0.1,0-0.1c0.1-0.1,0.1-0.3,0.1-0.5c0,0,0-0.1,0-0.1c0,0-0.1-0.1-0.1-0.2c-0.1,0-0.2,0-0.2-0.1c-0.1,0-0.1,0-0.2,0
			c-0.1,0-0.2,0-0.4,0c-0.1,0-0.2,0-0.3-0.1c0,0,0,0-0.1-0.1c-0.1-0.1-0.1-0.1-0.2-0.2c0,0-0.1-0.1-0.1-0.1c0,0-0.1,0-0.1,0
			c0,0-0.1,0-0.1,0c-0.1,0-0.2,0-0.3,0c-0.1,0-0.2,0-0.3,0.1c-0.1,0-0.2,0-0.2,0.1c-0.1,0.1-0.2,0.1-0.2,0.2c0,0,0,0-0.1,0
			c-0.1,0-0.2,0-0.4,0c0,0,0,0,0,0c-0.1,0-0.2-0.1-0.3-0.1c-0.1,0-0.2,0-0.2,0c-0.1,0.1-0.2,0.1-0.3,0.2c0,0-0.1,0-0.1,0
			c-0.1,0-0.2,0-0.3,0c-0.1,0-0.1,0-0.2-0.1c0,0,0,0-0.1,0c-0.1,0-0.1-0.1-0.2-0.2c-0.1-0.2-0.3-0.3-0.5-0.4c0,0-0.1,0-0.1-0.1
			c0,0-0.1-0.1-0.1-0.1c0,0,0-0.1,0-0.1c0,0,0-0.1,0-0.1c-0.1-0.2-0.1-0.3-0.3-0.5c-0.1-0.1-0.3-0.2-0.4-0.3c-0.1,0-0.1-0.1-0.1-0.1
			c0,0-0.1-0.1-0.1-0.1c0,0-0.1-0.1-0.1-0.1c0,0-0.1-0.1-0.1-0.2c0-0.1,0-0.2,0-0.3c0-0.1,0-0.2-0.1-0.3c0,0,0-0.1-0.1-0.1
			c0,0-0.1-0.1-0.1-0.1c0,0,0,0,0,0c0.1-0.1,0.2-0.2,0.3-0.4c0,0,0,0,0,0c0.1-0.1,0.1-0.2,0.1-0.4c0-0.1,0-0.2,0-0.3
			c0-0.1,0-0.1,0-0.2c0,0,0,0,0-0.1c0-0.1,0-0.2,0-0.3c0-0.1-0.1-0.2-0.1-0.3c0-0.1-0.1-0.2-0.1-0.3c0-0.1,0-0.1,0-0.2
			c0.1-0.1,0.2-0.2,0.3-0.3c0-0.1,0.1-0.1,0.1-0.2c0-0.1,0-0.1,0-0.2c0,0,0,0,0-0.1c0.1-0.2,0.3-0.3,0.4-0.5
			c0.1-0.2,0.3-0.3,0.5-0.5c0.1,0,0.1-0.1,0.2-0.1c0,0,0,0,0,0c0,0,0.1-0.1,0.1-0.2c0.1-0.1,0.2-0.2,0.4-0.3c0.5-0.2,1-0.4,1.5-0.5
			c0.2-0.1,0.5-0.1,0.8-0.1c0.2,0,0.4-0.1,0.6-0.1c0.2,0,0.4,0,0.5,0c0.3,0,0.6,0,0.9-0.1c0.4,0,0.7,0,1.1,0c0.2,0,0.5,0,0.7,0
			c0.1,0,0.1,0,0.2,0c0,0,0.1,0.1,0.1,0.1c0.2,0.2,0.4,0.3,0.6,0.5c0,0,0,0,0.1,0c0.1,0,0.3,0,0.4,0c0,0,0,0,0.1,0
			c0,0,0-0.1,0.1-0.1c0.1-0.1,0.1-0.3,0.1-0.4c0.1-0.1,0.2-0.1,0.3-0.1c0,0,0.1,0,0.1,0c0.1,0,0.1,0,0.2,0c0.1,0,0.1,0,0.1,0.1
			c0,0,0,0.1,0.1,0.1c0.1,0,0.2,0.1,0.3,0.2c0,0,0,0,0.1,0c0.1,0,0.2,0,0.3,0c0,0,0.1,0,0.1,0c0.1,0,0.1,0.1,0.2,0.1
			c0.1,0.1,0.2,0.1,0.4,0c0,0,0.1,0,0.1,0c0.2,0,0.3,0,0.5-0.1c0,0,0.1,0,0.1,0c0,0,0.1,0,0.1,0c0.1,0,0.1,0,0.2,0
			c0,0,0.1-0.1,0.1-0.1c0-0.1,0.1-0.2,0.1-0.3c0,0,0,0,0-0.1c0-0.2,0-0.4,0-0.6c0,0,0-0.1,0-0.1c0-0.1-0.1-0.2-0.2-0.2
			c0,0,0,0-0.1,0c0,0,0,0,0,0c0,0,0,0,0.1,0c0.1,0,0.1-0.1,0.2-0.1c0.5-0.3,0.6-0.8,0.6-1.4c0,0,0,0,0,0c0,0.1,0,0.2-0.1,0.2
			c-0.1,0.1-0.2,0.2-0.3,0.3c-0.2,0.2-0.4,0.3-0.6,0.4c-0.4,0.2-0.9,0.3-1.3,0.4c-0.3,0.1-0.6,0.1-0.9,0.2c-0.2,0-0.4,0.1-0.6,0.1
			c-0.2,0-0.5,0-0.7,0c-0.5,0-0.9,0-1.4,0c-0.2,0-0.5,0-0.7,0c-0.1,0-0.2,0-0.4,0c-0.2,0-0.4,0-0.6,0c-0.2,0-0.5,0-0.7,0.1
			c-0.3,0-0.5,0.1-0.8,0.1c-0.3,0.1-0.6,0.1-1,0.2c-0.5,0.1-1.1,0.3-1.6,0.4c-0.4,0.1-0.7,0.2-1.1,0.3c-0.4,0.1-0.7,0.2-1.1,0.2
			c-0.3,0.1-0.6,0.1-0.9,0.2c-0.3,0-0.5,0.1-0.8,0.1c-0.2,0-0.5,0.1-0.7,0.1c-0.2,0-0.5,0.1-0.7,0.1c-0.2,0-0.4,0.1-0.6,0.1
			c-0.2,0-0.3,0-0.5,0.1c-0.1,0-0.1,0-0.2,0.1c-0.3,0.2-0.6,0.5-0.9,0.7C9.8,29.3,9.4,29.6,9,30c-0.2,0.1-0.3,0.2-0.5,0.3
			c-0.3,0.1-0.6,0.1-0.9-0.1c0,0,0,0,0,0c-0.1,0.2-0.2,0.3-0.2,0.5c0,0.1,0,0.1,0,0.2c0,0,0,0.1,0,0.1c0.1,0,0.2,0,0.3,0
			c0.1,0,0.3,0,0.4,0c0.2,0,0.4,0,0.5,0c0.2,0,0.3,0,0.5-0.1c0.2,0,0.4,0,0.6-0.1c0.2,0,0.4,0,0.5-0.1s0.4,0,0.5-0.1
			c0.2,0,0.4-0.1,0.6-0.1c0.2,0,0.4-0.1,0.6-0.1s0.4-0.1,0.6-0.1s0.4-0.1,0.6-0.1c0.2,0,0.4-0.1,0.6-0.1c0.2,0,0.4,0,0.6,0.1
			c0.2,0.1,0.4,0.2,0.6,0.4c0.1,0.1,0.1,0.2,0.1,0.3c0,0.2,0,0.4,0,0.6c-0.1,0.3-0.2,0.5-0.3,0.8c-0.2,0.3-0.4,0.6-0.7,0.9
			c-0.1,0.1-0.2,0.2-0.3,0.2c-0.1,0.1-0.2,0.2-0.3,0.3c-0.7,0.6-1.4,1.2-2,1.9c-0.4,0.4-0.7,0.8-1,1.2c-0.2,0.3-0.4,0.6-0.6,0.9
			c-0.1,0.2-0.2,0.4-0.2,0.7c0,0.1,0,0.2,0,0.3c0,0.1,0,0.1,0.1,0.2c0,0,0.1,0.1,0.1,0.1c0,0,0,0,0-0.1c0-0.1,0.1-0.2,0.1-0.3
			c0.1-0.2,0.2-0.5,0.3-0.7c0,0,0-0.1,0.1-0.1c0.1,0.1,0.1,0.1,0.1,0.2c0,0,0.1,0,0.1,0c0.1,0,0.2,0.1,0.4,0.1
			c0.1,0,0.2,0.1,0.2,0.1c0,0,0,0,0,0c0,0.2,0,0.3,0.1,0.5c0,0.2,0,0.3,0,0.5c0,0.1,0,0.1-0.1,0.2c0,0,0,0-0.1,0.1s0,0-0.1,0
			c-0.1,0-0.1,0.1-0.2,0.1c0,0,0,0,0,0.1c-0.1,0.1-0.2,0.3-0.2,0.4s0,0.3,0,0.4c0,0,0,0.1,0,0.1c0,0.2,0,0.4,0,0.6c0,0,0,0,0,0
			c0,0.1-0.1,0.3-0.1,0.4c0,0.1,0,0.2,0,0.2c0,0,0,0,0,0.1c0,0.1-0.1,0.2-0.1,0.2c0,0-0.1,0.1-0.1,0.1c-0.1,0-0.3,0-0.4,0.1
			c-0.2,0-0.5,0.2-0.6,0.5c0,0,0.1,0,0.1,0.1c0,0,0.1,0,0.1,0.1c0,0,0,0.1,0,0.1s0,0.1,0,0.1c0,0.1,0,0.2-0.1,0.2
			c-0.1,0.1-0.1,0.2-0.1,0.4c0,0.1,0,0.2-0.1,0.3c-0.1,0-0.1,0-0.1,0c-0.1,0-0.2,0.1-0.2,0.2c0,0,0,0,0,0c0,0,0,0,0.1,0
			c0,0,0,0-0.1,0.1c0.1,0,0.1,0.1,0.1,0.1c0,0,0,0.1,0,0.1c0,0,0,0,0,0.1c0,0.1,0,0.3,0,0.4c0,0,0.1,0,0.1,0c0.3,0.2,0.6,0.3,1,0.5
			c0,0,0.1,0,0.1,0.1c0.1,0.1,0.2,0.2,0.1,0.4c0,0.1-0.1,0.1-0.1,0.2c-0.1,0.1-0.2,0.2-0.3,0.1c-0.1,0-0.1,0-0.1,0
			c-0.1,0-0.1,0-0.1-0.1c0,0-0.1,0-0.1,0c-0.1,0.2-0.2,0.3-0.2,0.5c0,0,0,0,0,0c0,0,0.1,0,0.1,0c1.4,1,3,1.7,4.7,2.3
			c0.7,0.2,1.4,0.4,2.1,0.5c0.5,0.1,0.9,0.2,1.4,0.2c0.3,0,0.5,0.1,0.8,0.1c0.3,0,0.6,0,0.8,0c0.6,0,1.1,0,1.7,0c0.4,0,0.7,0,1-0.1
			c0.3,0,0.6-0.1,0.9-0.1c0.5-0.1,1-0.2,1.5-0.3c0.6-0.2,1.1-0.3,1.7-0.5L25.9,45.1C25.9,45.1,25.9,45.1,25.9,45.1L25.9,45.1z"/>
		<path class="st0" d="M36.2,31.7c-0.1-0.2-0.1-0.4-0.2-0.5c0-0.1,0-0.1,0-0.2c0,0,0,0,0-0.1c0-0.2,0-0.3-0.1-0.5c0,0,0,0,0,0
			c0,0,0,0.1,0,0.1s0,0,0,0.1c0,0,0,0-0.1,0c-0.1,0-0.1-0.1-0.1-0.2s0-0.2,0-0.2c0-0.1,0-0.1-0.1-0.2c-0.1-0.2-0.2-0.3-0.4-0.5
			c0,0,0,0,0,0c-0.1-0.1-0.1-0.1-0.2-0.1c-0.1,0-0.2,0-0.3,0c0,0-0.1,0-0.1,0c-0.1,0-0.1-0.1-0.2,0c0,0-0.1,0-0.1,0c0,0-0.1,0-0.2,0
			c0,0-0.1,0-0.1,0s-0.1,0-0.1,0c-0.1,0-0.2,0-0.3,0c0,0-0.1,0-0.1,0.1c0,0.1,0,0.1,0,0.2c0,0,0.1,0,0.1,0c0.2,0.1,0.3,0.2,0.4,0.4
			c0,0,0.1,0.1,0.1,0.2c0.1,0.2,0,0.4-0.1,0.5c0,0,0,0-0.1,0.1c0,0,0,0-0.1,0c0,0.2,0,0.3-0.2,0.5c0,0,0,0,0,0
			c-0.1,0.1-0.1,0.1-0.2,0.2c-0.1,0.1-0.3,0.2-0.4,0.4L36.2,31.7C36.2,31.8,36.2,31.8,36.2,31.7L36.2,31.7z"/>
		<path class="st0" d="M30.8,31.6c0-0.1,0-0.3-0.1-0.4c-0.1-0.1-0.2-0.3-0.3-0.5c0,0-0.1-0.1-0.1-0.1c-0.1,0-0.1-0.1-0.2-0.2
			c0,0,0,0,0-0.1c0-0.1,0-0.2,0-0.2c0-0.1,0-0.2-0.1-0.4c-0.1-0.1-0.1-0.2-0.2-0.3c0-0.1-0.1-0.1-0.2-0.2c0,0,0,0,0-0.1
			c0-0.1-0.1-0.3-0.1-0.4c0,0,0-0.1-0.1-0.1c-0.1,0-0.1-0.1-0.2-0.2c0,0,0-0.1-0.1-0.1c0-0.1-0.1-0.1-0.2-0.1c0,0,0,0,0,0
			c0,0.1-0.1,0.1-0.1,0.2c0,0,0,0.1,0,0.1c0,0.1,0,0.1,0,0.2c0,0,0,0.1,0,0.1c0,0,0.1,0.1,0.1,0.2c0.1,0.1,0.2,0.2,0.1,0.4
			c0,0.1,0,0.1,0,0.2c0,0,0,0,0.1,0.1c0.1,0.1,0.1,0.1,0.2,0.2c0.1,0.2,0.2,0.4,0.2,0.6c0,0,0,0.1,0,0.1c0,0.1,0.1,0.1,0.1,0.2
			c0,0.1,0.1,0.2,0.2,0.2c0,0,0.1,0.1,0.1,0.1c0.1,0.1,0.1,0.3,0.2,0.5h0.7C30.8,31.7,30.8,31.7,30.8,31.6L30.8,31.6z"/>
		<path class="st0" d="M31.4,23.9c0.1-0.1,0.2-0.1,0.3-0.1c0-0.1,0-0.1,0-0.2c0,0-0.1-0.1-0.1-0.1c0,0-0.1-0.1-0.1-0.1
			c-0.1,0-0.2,0-0.4,0c0,0-0.1,0-0.1,0c0,0-0.1,0-0.1,0.1c0,0,0,0.1,0,0.1c0,0.1,0,0.2-0.1,0.3c0,0,0,0.1,0,0.1
			c0,0.1,0.1,0.1,0.1,0.2c0,0.1,0.1,0.1,0.1,0.2c0,0,0,0,0,0.1c0,0.1,0.1,0.1,0.1,0.2c0.1,0.1,0.2,0.2,0.3,0.4
			c0.1,0.1,0.1,0.1,0.1,0.2c0,0.1,0,0.2,0,0.3c0,0.1,0,0.1,0,0.2c0,0.1,0,0.1,0.1,0.2c0.1,0,0.1,0,0.2,0.1c0,0,0.1,0,0.1,0
			c0.1,0.1,0.2,0.1,0.2,0.2c0.1,0,0.1,0,0.2,0c0.1,0,0.2-0.1,0.3-0.2c0,0-0.1-0.1-0.1-0.1c0-0.2-0.1-0.3-0.2-0.4
			c-0.1-0.1-0.1-0.2-0.2-0.2c0,0,0-0.1-0.1-0.1c0-0.1-0.1-0.2-0.1-0.4c0-0.1-0.1-0.1-0.1-0.2c0,0,0-0.1,0-0.1
			c-0.1-0.1-0.1-0.2-0.2-0.2c0,0-0.1-0.1-0.1-0.1C31.2,24.1,31.2,24,31.4,23.9C31.3,23.9,31.4,23.9,31.4,23.9z"/>
		<path class="st0" d="M19.5,33.5c0.1,0,0.3,0,0.4,0c0.1,0,0.1,0,0.2,0c0,0,0.1,0,0.1,0c0.1,0,0.1,0,0.2,0c0,0,0,0,0.1,0
			c0-0.1,0.1-0.2,0.1-0.3c0,0,0-0.1,0.1-0.1c0,0,0.1,0,0.1,0V33c0,0-0.1,0-0.1,0c-0.1,0-0.1-0.1-0.2-0.1c0-0.1-0.1-0.1-0.1-0.2
			c0-0.1-0.1-0.1-0.1-0.2c0-0.1,0-0.2,0-0.3c0,0-0.1,0-0.1,0s-0.1,0-0.1,0c-0.2,0-0.4,0.1-0.6,0.2c-0.1,0.1-0.3,0.2-0.4,0.3
			c0,0-0.1,0.1-0.1,0.1c-0.1,0.1-0.2,0.3-0.2,0.5c0,0.2,0.1,0.3,0.2,0.3c0.1,0,0.2,0,0.3,0c0,0,0.1,0,0.1,0c0-0.1,0-0.1,0-0.2
			C19.4,33.4,19.4,33.5,19.5,33.5L19.5,33.5z"/>
		<path class="st0" d="M32.1,28c0,0-0.1-0.1-0.1-0.1c-0.1-0.1-0.2,0-0.3,0c0,0,0,0.1,0,0.2c0,0.1,0,0.2,0.1,0.2c0,0,0.1,0.1,0.1,0.1
			c0,0.1,0.1,0.1,0.1,0.2c0,0,0.1,0.1,0.1,0.2c0,0.1,0.1,0.1,0.1,0.1c0,0,0.1,0,0.1,0.1c0.1,0,0.1,0.1,0.1,0.1c0,0,0,0.1,0,0.1
			c0,0.1,0,0.1,0.1,0.2c0,0.1,0.1,0.1,0.2,0.1c0,0,0,0,0,0c0.1,0,0.2,0,0.3-0.1c0-0.1,0.1-0.1,0.2-0.2c0.1-0.1,0.1-0.3,0.2-0.4
			c0,0,0,0,0,0c-0.1,0-0.1,0-0.2,0c-0.1,0-0.1,0-0.2,0.1c0,0-0.1,0-0.1,0c0,0,0,0,0,0c-0.1-0.1-0.2-0.1-0.3-0.2
			c-0.1-0.1-0.2-0.2-0.3-0.4C32.2,28.2,32.1,28.1,32.1,28L32.1,28z"/>
		<path class="st0" d="M8.5,46.2c0,0,0.1,0,0.1,0.1c0.1-0.1,0.1-0.2,0.2-0.4c-0.1,0-0.1-0.1-0.2-0.1c0,0.1,0,0.1-0.1,0.2
			c0,0-0.1,0.1-0.1,0.1C8.4,46.1,8.4,46.1,8.5,46.2C8.4,46.1,8.5,46.2,8.5,46.2L8.5,46.2z"/>
		<path class="st0" d="M9.5,32.2C9.5,32.2,9.5,32.2,9.5,32.2C9.4,32.2,9.4,32.2,9.5,32.2C9.4,32.2,9.5,32.2,9.5,32.2L9.5,32.2
			L9.5,32.2z"/>
		<polygon class="st0" points="9.4,32.2 9.4,32.2 9.4,32.2 		"/>
		<path class="st0" d="M7.9,35C7.9,35,7.9,35,7.9,35C7.9,35,7.9,35,7.9,35L7.9,35z"/>
		<polygon class="st0" points="7.9,35 7.9,35 7.9,35 		"/>
	</g>
</g>
</svg>
