<?xml version="1.0" encoding="UTF-8"?>
<svg id="_レイヤー_2" data-name="レイヤー 2" xmlns="http://www.w3.org/2000/svg" viewBox="0 0 34.47 45">
  <defs>
    <style>
      .cls-1 {
        fill: #fff;
      }
    </style>
  </defs>
  <g id="_モバイル" data-name="モバイル">
    <g>
      <path class="cls-1" d="m17.33,0s.03.01.04.02c.41.06.75.42.79.85.04.45-.25.89-.71,1.01-.04.01-.08.02-.13.03.01.07.02.13.03.19.13.68.28,1.35.48,2.02.14.47.31.92.52,1.36.13.26.27.51.46.74.08.1.18.2.28.28.03.02.06.05.09.07.15.1.31.12.49.09.18-.03.34-.09.5-.18.23-.13.44-.3.63-.48.28-.26.52-.56.74-.86.4-.54.74-1.11,1.05-1.7.01-.02.02-.05.03-.07-.21-.14-.35-.33-.39-.58-.03-.19,0-.37.1-.53.19-.33.59-.49.97-.36.39.13.59.51.54.87-.02.15-.07.28-.16.4-.09.11-.2.2-.33.25-.14.06-.28.06-.43.05-.01.03-.02.06-.03.08-.12.42-.22.85-.29,1.28-.07.43-.12.86-.1,1.3.01.28.04.55.13.82.05.16.12.31.23.45.1.13.24.21.4.25.13.03.27.02.4,0,.18-.04.34-.11.5-.2.21-.12.41-.27.6-.42.32-.27.6-.56.87-.88.08-.1.16-.19.24-.29.02-.03.04-.06.07-.09-.02-.02-.03-.05-.05-.07-.27-.37-.09-.89.34-1.03.34-.11.73.08.84.45.11.36-.11.74-.47.83-.13.04-.27.03-.4-.02-.03,0-.05-.02-.09-.03-.02.02-.04.04-.06.06-.49.55-.9,1.15-1.27,1.78-.46.81-.83,1.66-1.13,2.53-.14.41-.27.83-.37,1.26,0,.02-.01.04-.02.07-.02,0-.05-.01-.06-.02-.55-.24-1.13-.41-1.71-.55-.33-.08-.66-.15-1-.21-.27-.05-.54-.09-.81-.12-.24-.03-.48-.06-.72-.09-.17-.02-.34-.03-.51-.05-.23-.02-.46-.04-.68-.05-.24-.01-.48-.02-.72-.02-.19,0-.39.02-.58.03-.14,0-.28.02-.42.03-.12,0-.23.02-.35.03-.15.01-.31.03-.46.05-.14.02-.28.03-.42.05-.15.02-.31.04-.46.06-.21.03-.43.07-.64.1-.33.06-.65.13-.97.21-.56.14-1.1.31-1.63.53-.02,0-.04.02-.07.03,0-.03-.02-.05-.02-.08-.31-1.23-.76-2.4-1.36-3.52-.32-.6-.69-1.17-1.12-1.7-.1-.12-.2-.24-.3-.35-.02-.02-.03-.04-.05-.06-.04.01-.07.02-.09.03-.24.08-.47.04-.66-.12-.2-.17-.27-.4-.22-.65.06-.26.23-.43.49-.5.42-.11.86.23.82.71,0,.12-.05.23-.12.33-.02.02-.03.05-.05.07.06.07.12.15.18.22.27.33.56.64.88.92.2.18.4.34.63.48.18.11.38.21.59.25.15.03.31.04.46,0,.14-.04.25-.11.34-.23.1-.13.17-.27.22-.42.06-.17.09-.35.12-.53.04-.32.04-.64.01-.95-.03-.37-.09-.73-.16-1.09-.06-.28-.13-.56-.2-.83,0-.03-.02-.07-.03-.1-.05-.02-.09,0-.13,0-.17,0-.33-.05-.47-.15-.27-.21-.39-.49-.32-.82.07-.34.29-.55.63-.63.5-.11,1.01.3.97.86-.02.24-.13.43-.31.58-.03.02-.05.04-.08.06,0,.02,0,.03.02.05.38.72.8,1.41,1.31,2.04.21.26.43.5.68.71.17.15.36.28.57.38.17.08.34.13.53.12.09,0,.17-.02.24-.06.11-.05.2-.12.28-.2.13-.12.24-.26.34-.41.18-.26.32-.54.44-.82.21-.48.36-.97.5-1.47.14-.51.25-1.02.35-1.54.02-.09.03-.17.05-.26-.04-.01-.07-.02-.1-.03-.29-.09-.49-.28-.61-.55-.22-.54.09-1.15.66-1.29.04,0,.08,0,.11-.03C17.18,0,17.25,0,17.33,0Z"/>
      <g>
        <path class="cls-1" d="m6.8,30.23s-.01-.03-.02-.05c-.11-.09-.22-.17-.32-.26-.18-.14-.35-.28-.53-.42-.02-.02-.05-.04-.08-.06.03-.09.08-.17.12-.25,0,0,0,0,.01,0,0,0,0,0,0,0,0,0,.01,0,.02,0,0,0,.02,0,.03,0,.68,0,1.36,0,2.04,0,0,0,0,0,.02,0-.09-.03-.18-.04-.27-.05-.19-.03-.38-.06-.57-.09-.18-.03-.37-.06-.55-.09-.17-.03-.35-.05-.52-.08-.02,0-.03,0-.05-.02,0-.02.01-.04.02-.06.05-.1.11-.19.19-.26.06-.06.13-.1.21-.13.51-.18,1.02-.38,1.53-.57.03-.01.05-.03.08-.04,0,0,.01,0,.02,0,0,0,0,0,0,0,0,0-.01,0-.01,0,0,0,0,0,0,.01-.03,0-.06,0-.09.01-.51.15-1.03.29-1.54.44-.06.02-.12.03-.18.05-.02-.01-.04-.02-.06-.03-.21-.15-.43-.29-.67-.39-.01,0-.03-.01-.04-.02-.17-.12-.33-.25-.47-.4-.04-.04-.07-.08-.1-.13-.03,0-.02.02-.03.04-.07.31-.14.61-.23.91-.03.1-.07.21-.11.31-.02.04-.04.08-.06.11-.03.07-.08.11-.15.14-.16.07-.32.12-.49.17-.13.03-.26.07-.39.11-.03,0-.06.02-.09.02-.09,0-.17.02-.24.06-.13.06-.27.13-.4.2-.08.04-.16.09-.25.13-.12.06-.25.09-.38.09-.16,0-.25-.11-.26-.23,0-.03,0-.06,0-.1,0-.11.04-.21.07-.32.02-.06.04-.13.06-.19.08-.31.21-.61.37-.89.27-.49.6-.93.99-1.33.53-.55,1.13-1.02,1.79-1.42.2-.12.4-.23.6-.35.02-.01.05-.03.07-.05-.15.02-.29.07-.43.12-.42.15-.81.37-1.17.63-.19.14-.37.29-.55.45-.02.02-.04.03-.06.05,0-.05.02-.07.04-.1.12-.21.26-.41.42-.59.48-.58,1.06-1.05,1.72-1.42.54-.3,1.11-.53,1.71-.69.05-.01.09-.04.13-.08.23-.23.47-.45.74-.63.19-.13.39-.25.61-.33.08-.03.16-.05.24-.06.01.02,0,.03-.02.04-.2.16-.39.33-.58.5-.12.12-.24.23-.34.37-.04.05-.07.11-.1.16,0,.02-.02.03,0,.05.03,0,.05-.03.07-.04.2-.15.41-.3.61-.44.19-.13.39-.26.6-.37.12-.06.23-.12.36-.16.03,0,.06-.01.1-.02,0,.04-.03.05-.05.07-.23.2-.46.41-.7.61-.18.16-.36.31-.54.47-.02.02-.04.04-.07.07.04,0,.05-.01.07-.02.24-.11.48-.22.72-.32.56-.24,1.12-.46,1.71-.64.25-.08.51-.15.78-.2.15-.03.29-.05.44-.05.08,0,.15-.02.23-.05-.03-.02-.05-.03-.07-.04-.08-.04-.16-.09-.24-.15-.09-.07-.16-.15-.21-.26-.01-.03-.04-.06-.06-.09-.05-.06-.12-.1-.18-.14-.15-.09-.28-.21-.37-.36-.11-.16-.16-.34-.14-.54.02-.21.04-.42.04-.63,0-.06,0-.12,0-.17,0-.2.11-.35.29-.43.07-.03.15-.05.22-.05.13,0,.26,0,.39.02.27.04.53.1.79.19.64.22,1.21.56,1.71,1.02.14.13.28.27.4.42.01.02.03.03.05.06-.03,0-.05-.01-.06-.02-.29-.2-.58-.39-.89-.57-.33-.19-.67-.38-1.02-.53-.18-.07-.35-.14-.54-.17-.17-.03-.34-.03-.51.01-.05.01-.1.03-.14.06-.07.06-.08.15-.02.22.01.01.03.02.05.02.19.05.38.1.58.16.02,0,.04.01.06.03-.11,0-.22-.01-.32-.01-.09,0-.18,0-.27.02-.02,0-.03,0-.05.01-.08.03-.1.07-.07.15.02.08.08.13.16.16.06.03.13.04.2.05.46.07.91.14,1.36.27.18.05.36.11.52.19.04.02.08.03.11.06-.02.02-.04.01-.05,0-.23-.05-.45-.11-.68-.16-.25-.06-.5-.11-.76-.14-.16-.02-.32-.04-.48-.03-.04,0-.08,0-.11.03-.02.01-.03.04-.02.06,0,.01.01.03.02.04.11.18.21.36.34.53.05.07.11.14.18.21.05.06.11.09.2.09.1,0,.19.01.29.01.2,0,.4,0,.6,0,.21,0,.42-.02.64-.03.12,0,.24-.01.37-.03.24-.02.47-.05.7-.12.08-.02.16-.06.23-.09.05-.03.1-.06.14-.1.11-.1.14-.23.09-.37-.02-.08-.07-.15-.11-.21-.03-.03-.05-.06-.08-.1-.02-.02-.04-.05-.02-.08.02,0,.03,0,.05,0,.03,0,.05.01.07.02.18.08.38.13.57.17.39.09.79.17,1.18.23.3.05.61.1.91.15.27.04.54.06.81.07.56.02,1.11.02,1.67,0,.24,0,.49-.02.73-.03.13,0,.26-.01.39-.03.21-.02.41-.04.61-.08,0,0,.02,0,.03-.01,0-.05,0-.1-.02-.16-.08-.01-.16-.03-.24-.04-.23-.03-.45-.07-.67-.12-.09-.02-.17-.05-.25-.1-.02-.01-.04-.02-.06-.03-.04-.02-.08-.03-.13-.01-.17.04-.33.08-.5.11-.41.08-.82.11-1.24.09-.44-.02-.86-.08-1.27-.25-.11-.04-.21-.1-.31-.15-.09-.05-.18-.1-.26-.16-.25-.18-.41-.42-.5-.71-.07-.23-.08-.47-.05-.71,0-.07.02-.13.03-.2,0-.02.01-.04.02-.06.03-.02.05-.03.08-.01.02.01.05.03.06.05.02.04.04.08.04.12.02.14.09.27.18.38.24.32.55.56.91.73.21.1.44.17.67.21.19.03.37.04.56.01.02,0,.04,0,.07,0,.27,0,.53-.06.79-.13.5-.14.96-.37,1.39-.65.35-.23.66-.49.96-.78.02-.02.03-.03.05-.05,0,0,0-.01.01-.02-.01-.04-.04-.07-.06-.1-.16-.22-.35-.42-.55-.61-.48-.45-1.01-.83-1.57-1.17-.11-.07-.23-.13-.34-.2-.34-.18-.67-.38-1.01-.55-.71-.36-1.45-.66-2.21-.91-.63-.21-1.27-.37-1.92-.5-.29-.06-.59-.1-.89-.14-.27-.04-.54-.06-.82-.09-.14-.01-.29-.02-.43-.02-.19,0-.37-.01-.56-.02-.11,0-.21,0-.32.02-.46.07-.91.16-1.36.27-.86.21-1.69.48-2.51.83-1.08.45-2.1,1.01-3.03,1.72-.81.61-1.53,1.31-2.16,2.11-.58.74-1.04,1.56-1.4,2.42-.22.53-.41,1.08-.55,1.63-.08.33-.14.66-.18,1-.01.12-.02.24-.02.36,0,.1-.01.21-.01.31,0,.18,0,.35,0,.53.05.83.25,1.63.52,2.42.01.03.02.06.03.09.04.1.04.21.03.31,0,.01,0,.02-.01.04,0,.01-.03.02-.04,0-.02-.02-.04-.05-.06-.08-.06-.12-.13-.24-.19-.36-.27-.56-.46-1.15-.59-1.75-.07-.31-.12-.61-.15-.92-.04-.37-.05-.74-.05-1.12.02-1.18.29-2.31.77-3.4.32-.73.72-1.41,1.19-2.06.34-.46.71-.9,1.1-1.32.05-.06.1-.12.15-.17.21-.24.44-.46.68-.67.62-.53,1.3-.97,2.01-1.36.8-.44,1.64-.8,2.5-1.1.27-.09.54-.18.81-.27.03,0,.05-.02.09-.03-.02-.02-.04-.03-.05-.05-.2-.12-.41-.22-.63-.29-.29-.1-.58-.17-.89-.22-.31-.04-.61-.06-.92-.05-.22,0-.45.03-.67.07-.04,0-.07.02-.1.04-.05.04-.11.08-.16.12-.03.02-.05.05-.06.08-.01.02,0,.05.02.07.03.01.05.02.08.02.06,0,.13,0,.19,0,.24,0,.48-.02.72-.03.22,0,.43,0,.65.03.2.02.39.06.59.1.01,0,.03.01.06.02-.08,0-.14.02-.19.02-.15.02-.3.03-.45.05-.19.02-.37.04-.56.07-.18.03-.37.05-.55.08-.2.03-.39.07-.58.14-.05.02-.11.04-.16.07-.02.01-.05.03-.05.07,0,.02.03.02.04.02.06,0,.12,0,.17,0,.26-.02.52-.06.78-.11.34-.06.67-.12,1-.19.07-.01.14,0,.21.01-.02.03-.05.04-.07.05-.42.17-.84.36-1.25.57-.63.32-1.24.68-1.82,1.09-.41.29-.8.6-1.15.95-.05.05-.11.06-.18.04-.04,0-.06-.04-.06-.08,0-.04.01-.08.03-.11.04-.08.1-.15.15-.23.03-.04.06-.08.08-.12.14-.23.31-.43.5-.61.17-.16.35-.3.54-.42.03-.02.07-.05.1-.08.09-.08.09-.18,0-.26-.05-.05-.1-.09-.18-.11-.04-.01-.08-.03-.12-.06-.04-.03-.04-.07-.01-.1.02-.03.05-.06.08-.08.07-.04.13-.08.2-.11.08-.04.15-.06.23-.09.02,0,.04-.01.05-.02.03-.02.05-.05.03-.08-.02-.03-.04-.06-.07-.08-.07-.05-.14-.11-.21-.15-.06-.04-.1-.09-.14-.14-.01-.02-.03-.04-.04-.07-.03-.08-.01-.15.05-.21.03-.03.08-.05.12-.07.11-.05.21-.12.29-.2.08-.08.13-.17.13-.29,0-.22.11-.39.3-.5.13-.08.27-.12.42-.14.18-.03.36-.03.54-.03.37.01.73.06,1.09.14.85.18,1.69.41,2.51.7.36.13.72.28,1.06.46.04.02.07.03.11.02.08,0,.16-.02.24-.02.11,0,.21-.01.32-.02.34-.02.69-.02,1.03,0,.15,0,.31.01.46.03.16.01.33.03.49.05.16.02.31.04.47.06.24.04.48.08.71.12.52.1,1.04.24,1.55.4,1.1.35,2.16.81,3.16,1.39.89.52,1.78,1.04,2.67,1.56.12.07.23.15.34.24.31.26.62.52.9.81.11.11.21.22.3.34.05.06.09.12.12.2-.06.08-.14.15-.21.22-.07.07-.14.14-.21.21-.07.07-.15.14-.22.21-.07.07-.15.14-.22.2-.08.07-.15.14-.23.21-.07.07-.15.13-.23.2-.08.07-.16.13-.24.2.02.02.04,0,.05,0,.27-.06.53-.12.8-.17.39-.08.78-.15,1.16-.22.13-.03.27-.03.4-.04.18-.01.37-.02.55-.03.34-.02.69-.03,1.03-.04.37-.01.74-.01,1.11,0,.29,0,.57.02.86.04.14.01.28.02.41.04.43.05.86.11,1.28.23.25.07.5.17.73.3.17.1.32.21.45.36.12.14.2.3.23.48.04.23.01.44-.06.65-.12.33-.32.6-.56.84-.08.08-.19.15-.29.21-.18.12-.37.24-.55.37-.12.08-.23.17-.33.28-.03.04-.06.08-.08.12-.05.09-.04.14.04.2.05.04.1.07.16.1.14.07.29.11.44.15.18.04.35.07.53.11.19.04.38.09.56.17.24.1.46.24.66.41.17.15.32.31.46.49.26.37.45.77.59,1.2.11.35.19.71.24,1.08.03.25.06.5.07.75,0,.18.02.37,0,.55,0,.03,0,.06-.01.09-.01.05-.03.1-.03.15-.04.31-.09.62-.14.93-.1.53-.22,1.05-.36,1.57-.02.08-.05.15-.07.23,0,.02,0,.03,0,.05.07.04.29.1.44.13.05-.11.07-.23.1-.35.03-.11.06-.23.09-.35.03-.12.05-.24.08-.36.07,0,.12.03.18.04.06.01.12.03.18.05v.08s-.02.09-.03.14c-.1.46-.23.91-.37,1.36-.41,1.31-.96,2.55-1.65,3.74-.91,1.55-2.02,2.93-3.34,4.15-.93.86-1.95,1.62-3.04,2.27-1.28.76-2.63,1.35-4.06,1.77-.51.15-1.03.28-1.56.39-.27.05-.54.1-.82.15-.21.03-.43.06-.64.08-.23.03-.47.05-.7.07-.26.02-.53.03-.79.05-.03,0-.06,0-.08.01h-1.08s-.04-.01-.06-.01c-.26-.02-.53-.03-.79-.05-.17-.01-.35-.03-.52-.05-.19-.02-.37-.04-.56-.07-.18-.02-.35-.05-.52-.08-.28-.05-.57-.11-.85-.17-.77-.16-1.52-.38-2.26-.65-1.02-.37-2-.82-2.93-1.37-.02-.01-.04-.03-.07-.04,0,0-.01,0-.02,0-.52.36-1.05.41-1.61.08-.53-.37-.72-.87-.61-1.5-.02-.03-.05-.05-.08-.07-.48-.35-.95-.74-1.38-1.14-1.51-1.41-2.7-3.06-3.55-4.95-.06-.14-.12-.28-.18-.42-.04-.08-.05-.16-.04-.24,0-.08.02-.15.05-.22.06-.14.17-.24.32-.29.29-.09.54,0,.71.25.02.03.03.06.04.09.38.89.83,1.74,1.37,2.55.26.38.54.74.84,1.1.31.37.64.72.99,1.06.45.44.93.86,1.44,1.24.07.05.13.1.2.15.19-.09.39-.14.6-.15.21,0,.41.04.6.12.05-.07.08-.15.12-.22.04-.07.07-.14.11-.22.04-.07.07-.15.11-.23-.02-.01-.03-.02-.05-.03-.09-.05-.19-.09-.29-.14-.04-.02-.08-.05-.09-.09,0-.01-.01-.03,0-.04.01-.07.04-.14.1-.18.03-.02.07-.03.11,0,.02,0,.04.02.06.03.31.15.62.31.93.46.02,0,.04.02.06.03.06.04.08.1.05.16,0,.02-.02.04-.03.06-.04.08-.11.1-.19.07-.09-.04-.18-.09-.28-.14-.02-.01-.05-.02-.07-.03-.04.06-.29.55-.35.7.01.01.03.03.04.05.24.22.4.5.45.82,0,.03.01.06.02.1.87.5,1.79.93,2.73,1.27,1,.36,2.02.63,3.07.79,0-.02.02-.05.02-.07,0-.02,0-.04,0-.06.02-.09.11-.15.2-.13.09.02.15.1.14.19,0,.03,0,.06-.01.09,0,0,0,.01,0,.03.01,0,.03.01.05.02.19.02.39.05.59.06.2.02.39.04.59.05.22.01.43.02.65.03.36,0,.72,0,1.08,0,.19,0,.37-.02.56-.03.12,0,.24-.02.36-.03.16-.01.31-.03.47-.05.12-.01.25-.03.37-.05.19-.03.39-.06.58-.09.06,0,.12-.02.18-.03.02,0,.04-.01.07-.02-.01-.05-.03-.09-.04-.13-.02-.09.02-.18.11-.21.09-.03.18.01.21.1.01.04.02.07.03.11,0,.02.02.04.03.07.04,0,.07,0,.1-.01.57-.12,1.13-.28,1.69-.47.82-.27,1.61-.61,2.38-1,.38-.19.75-.4,1.11-.62.02-.01.04-.03.07-.04-.01-.02-.02-.05-.03-.07-.02-.03-.04-.06-.06-.1-.05-.09-.02-.19.06-.24.08-.05.18-.03.23.05.02.03.04.07.07.11.01.02.03.03.04.05.84-.53,1.61-1.14,2.33-1.81.68-.63,1.31-1.31,1.88-2.04-.02-.02-.03-.03-.04-.05-.05-.04-.1-.09-.14-.13-.07-.07-.07-.17,0-.24.06-.07.16-.07.24-.01.03.02.06.05.08.08.02.02.05.04.08.07.02-.03.04-.05.06-.08.59-.8,1.11-1.65,1.55-2.53.37-.74.69-1.51.95-2.3,0-.01,0-.03,0-.05-.08-.02-.16-.05-.24-.07-.04-.01-.08-.02-.12-.03-.09-.03-.14-.11-.12-.2.02-.09.1-.15.2-.13.04,0,.07.02.11.03.09.02.18.05.27.08.01-.02.02-.04.03-.06.15-.49.27-.98.37-1.48.07-.34.12-.68.17-1.03.02-.16.05-.32.06-.48,0-.13,0-.26,0-.4,0-.12-.01-.23-.02-.35-.04-.43-.11-.85-.23-1.26-.09-.31-.2-.6-.35-.88-.17-.32-.39-.6-.67-.82-.28-.22-.6-.37-.94-.44-.18-.04-.36-.07-.54-.11-.17-.04-.34-.09-.5-.15-.11-.05-.22-.11-.31-.19-.08-.07-.14-.15-.17-.25-.02-.07-.03-.14-.02-.22.03-.17.13-.31.24-.43.14-.15.31-.27.48-.39.15-.11.31-.21.47-.31.16-.1.29-.22.4-.36.12-.16.23-.33.29-.52.03-.08.04-.16.05-.25.01-.2-.06-.37-.19-.52-.1-.11-.21-.19-.34-.26-.21-.12-.43-.19-.66-.26-.25-.07-.51-.12-.76-.16-.23-.03-.46-.06-.69-.08-.27-.02-.55-.03-.82-.04-.36-.01-.73-.01-1.09,0-.35,0-.7.03-1.05.04-.19,0-.38.02-.57.03-.13,0-.26.02-.39.04-.2.03-.39.07-.59.11-.21.04-.42.08-.63.12-.35.08-.71.15-1.06.23-.02,0-.04.01-.06.02.02.01.03.03.04.03.18.1.38.17.59.2.11.02.22.02.33.02.1,0,.2-.01.3-.03.1-.02.2,0,.3.01.02,0,.03,0,.05.02.1.04.13.12.09.23-.01.03-.03.05-.06.06-.09.04-.17.09-.26.13-.49.22-1,.39-1.53.51-.28.06-.57.11-.85.15-.17.02-.35.03-.52.05-.31.03-.62.02-.94.01-.15,0-.3-.02-.44-.03-.18-.02-.35-.04-.53-.06-.09,0-.18,0-.27,0-.14,0-.29.02-.43.03-.14.01-.28.03-.42.04-.16.02-.33.04-.49.07-.23.04-.47.08-.7.12-.49.1-.97.22-1.45.36-.27.08-.54.17-.81.26-.62.19-1.25.36-1.89.5-.35.08-.69.15-1.04.2-.25.04-.5.07-.74.1-.23.03-.47.05-.7.07-.33.02-.66.03-.98.02-.16,0-.1-.02-.23.07-.31.21-.61.43-.9.67-.3.25-.59.51-.89.76-.03.03-.06.06-.09.09-.06.07-.13.14-.21.2-.04.03-.08.05-.12.05-.05,0-.09,0-.11-.05-.01-.03-.03-.06-.03-.09-.02-.09-.02-.17-.01-.26.01-.14.04-.27.06-.41.01-.09.02-.18.03-.27,0-.02,0-.03,0-.05-.1-.05-.2-.05-.3-.01-.02,0-.03.02-.05.03-.02.02-.05.04-.07.07-.35.45-.68.91-.95,1.42-.1.19-.19.39-.24.6-.03.13-.06.26-.05.39,0,.02,0,.04,0,.07-.01.1.02.18.08.26.05.05.1.09.16.12.1.05.2.08.31.1.28.05.57.05.86.03.12,0,.23-.02.35-.03.13-.01.26-.03.38-.05.16-.02.32-.04.48-.07.16-.02.32-.05.48-.07.15-.02.29-.04.44-.07.15-.02.3-.04.45-.07.19-.03.37-.06.56-.09.18-.03.37-.06.55-.09.21-.03.41-.07.62-.1.13-.02.26-.04.39-.07.14-.02.28-.04.42-.01.06,0,.12.02.17.06.09.05.14.14.12.25,0,.06-.03.11-.05.17-.04.09-.09.18-.15.26-.09.13-.2.25-.3.38-.53.61-1.1,1.17-1.69,1.71-.33.3-.65.6-.98.9-.02.02-.03.03-.05.05-.32.26-.57.58-.77.94-.23.4-.38.82-.47,1.27-.1.47-.13.96-.12,1.44,0,.32.04.63.09.94.01.08.03.16.04.25,0,.02,0,.05,0,.07-.04,0-.07-.02-.1-.03-.3-.11-.57-.26-.84-.43-.76-.47-1.39-1.09-1.9-1.82-.3-.43-.55-.88-.76-1.36-.25-.56-.57-1.07-.99-1.52-.05-.05-.1-.1-.15-.15-.01-.01-.03-.03-.04-.05.05-.04.09-.07.15-.11.04.02.08.06.11.09.23.18.46.35.71.49.17.1.35.19.54.25.08.02.16.04.25.06,0,.02.01.05.02.08.1.54.28,1.05.58,1.51.1.15.22.3.35.43.01.01.03.03.05.04.02-.03,0-.05,0-.06-.11-.27-.23-.54-.34-.81-.12-.31-.24-.62-.33-.94-.04-.12-.07-.25-.08-.38.04-.06.26-.25.36-.33.02.01.03.04.04.06.13.26.27.51.4.77.02.03.03.06.05.09.03,0,.04-.02.05-.03.01-.01.02-.03.03-.04,0-.04-.01-.07-.03-.1-.12-.28-.24-.56-.37-.84-.02-.04-.03-.07-.04-.1.06-.08.26-.3.33-.35.03.01.06.03.09.05.28.15.55.3.83.45.03.02.06.03.09.05,0,0,.01,0,.02,0,0,0,0,0,0,0,0,0-.01,0-.02,0Zm19.05,11.19c.31-.1-2.56,1.55-5.45,2.19.02.1.15.54.19.61.01,0,.03,0,.05,0,.85-.19,1.69-.44,2.5-.75,1.03-.39,2.01-.88,2.95-1.45.03-.02.06-.04.1-.07-.11-.18-.22-.35-.33-.52Zm-11.61,3c.08.01.15.02.21.03.13.02.26.03.39.05.16.02.33.03.49.05.13.01.26.02.39.03.22.01.44.03.67.03.46,0,.92,0,1.38-.02.14,0,.28-.02.42-.02.08,0,.17-.01.25-.02.16-.02.31-.03.47-.05.18-.02.35-.04.53-.07.19-.03.38-.06.57-.09.07-.01.15-.02.22-.05-.06-.2-.12-.4-.19-.61-.17.03-.34.06-.51.09-.17.03-.34.05-.52.07-.17.02-.34.04-.52.06-.17.02-.35.03-.52.05-.17.01-.35.02-.52.03-.17,0-.35.01-.52.02-.17,0-.35,0-.52,0-.17,0-.35,0-.52-.02-.17,0-.35-.02-.52-.03-.17-.01-.35-.03-.52-.05-.17-.02-.34-.05-.52-.06,0,.02-.02.03-.02.04-.03.18-.06.36-.08.55Zm12.22-2.66s.06-.03.08-.05c.72-.47,1.39-.99,2.03-1.56.41-.37.81-.76,1.19-1.16.37-.39.72-.8,1.05-1.23.02-.02.03-.04.04-.06-.06-.08-.35-.34-.42-.38-.02.02-.04.05-.06.07-.3.38-.62.75-.96,1.11-.61.65-1.28,1.26-1.98,1.81-.39.3-.79.59-1.2.86-.03.02-.06.03-.08.07.11.17.21.34.32.52Zm-12.48,2.01s-.05-.01-.08-.02c-.09-.02-.18-.03-.28-.05-.45-.09-.91-.18-1.35-.3-1.07-.28-2.11-.67-3.11-1.15-.3-.14-.59-.3-.88-.46-.02-.01-.04-.04-.08-.03-.02.05-.03.11-.05.16-.02.05-.05.11-.07.16-.02.05-.05.09-.08.14.03.02.05.03.07.04.31.18.62.34.94.5.62.31,1.27.59,1.92.82.61.22,1.23.41,1.86.56.33.08.67.14,1,.2.03,0,.07,0,.1.01.03-.09.09-.51.09-.59Zm17.07-6.34c.2-.26.37-.52.55-.79.6-.91,1.11-1.87,1.53-2.88.24-.56.44-1.13.62-1.72-.02,0-.04-.02-.06-.02-.12-.03-.23-.07-.35-.1-.01,0-.03,0-.05,0-.6,1.85-1.49,3.56-2.65,5.11.14.13.27.26.42.39Zm-24.2,3.32c-.4,0-.69.33-.69.69,0,.36.3.69.7.69.34,0,.69-.27.69-.69,0-.43-.36-.7-.69-.69Z"/>
        <path class="cls-1" d="m2.05,26.56c-.05-.01-.1-.03-.14-.04,0-.02-.01-.04-.01-.06-.02-.16-.04-.33-.05-.49-.02-.29-.03-.58-.04-.88,0-.3,0-.59.04-.89.05-.44.13-.87.24-1.3.26-.99.67-1.91,1.22-2.77.54-.85,1.18-1.62,1.91-2.32.34-.33.7-.64,1.08-.91.49-.35,1.01-.66,1.56-.92.8-.39,1.64-.68,2.51-.88.33-.08.66-.14.99-.19.25-.04.5-.06.75-.08.49-.05.98-.06,1.48-.05.23,0,.45.02.68.03.12,0,.24.01.36.02.15.01.31.03.46.05.11.01.22.03.33.04.26.03.52.08.78.13.33.07.67.14.99.24.35.1.7.2,1.05.33.17.06.34.13.5.22.08.04.15.09.22.14.03.02.06.05.08.08.06.08.05.16-.02.23-.01.01-.03.03-.05.04-.1.06-.2.1-.31.12-.57.08-1.1.26-1.57.61-.03.02-.05.04-.08.06-.13.12-.26.24-.39.36-.24.25-.38.55-.44.89-.06.34-.04.67.03,1.01.04.19.09.37.16.55.01.03.04.06,0,.09-.03.02-.05-.01-.07-.03-.12-.12-.23-.24-.31-.39-.14-.26-.25-.54-.3-.83-.08-.48-.02-.94.2-1.38.03-.06.07-.12.1-.17.05-.08.09-.16.1-.25.01-.1-.02-.18-.11-.23-.04-.02-.08-.04-.12-.05-.12-.02-.24-.06-.36-.09-.22-.06-.45-.1-.68-.13-.18-.02-.37-.05-.55-.07-.08,0-.17-.02-.25-.02-.13,0-.26-.02-.39-.03-.31-.02-.61-.02-.92-.02-.24,0-.49.01-.73.03-.18.01-.36.03-.54.05-.16.02-.32.04-.48.06-.24.04-.48.07-.71.12-.53.11-1.05.25-1.56.44-1.12.4-2.15.97-3.08,1.71-.38.3-.74.63-1.06.99-.15.17-.3.33-.46.49-.52.53-.91,1.14-1.22,1.81-.24.52-.41,1.05-.54,1.61-.08.35-.14.7-.19,1.05-.08.6-.1,1.19-.08,1.79,0,.03,0,.06,0,.11Z"/>
        <path class="cls-1" d="m10.76,20.33c.05.16.09.32.14.48.06.19.11.39.17.58.02.05.02.1,0,.15-.02.05-.04.11-.06.16-.11.22-.28.27-.49.23-.14-.02-.26-.09-.38-.16-.03-.02-.05-.05-.06-.08-.04-.12-.09-.25-.13-.37-.06-.2-.11-.4-.15-.61-.06-.27-.05-.55.03-.82.01-.04.03-.07.04-.11.02-.05.05-.09.08-.13.08-.08.16-.16.23-.25.05-.05.1-.11.14-.17.08-.12.2-.17.34-.19.11-.01.22,0,.32.03.04.01.06.03.08.06.12.17.15.35.09.55-.02.08-.06.16-.11.22-.09.12-.17.23-.26.35-.02.02-.03.04-.04.07Z"/>
        <path class="cls-1" d="m20.16,17.28c-.12-.11-.24-.22-.35-.32-.12-.11-.23-.21-.35-.32.01-.03.03-.02.04-.01.41.05.72.27.97.59.03.04.06.08.08.12.05.06.07.13.06.21-.02.15,0,.29.03.44.06.23.2.4.41.51.13.07.26.1.4.12.08,0,.15,0,.23,0,.04,0,.09,0,.13,0,.02,0,.04,0,.05.02.02.01.03.04.01.06-.02.02-.03.04-.06.04-.05,0-.09.02-.14.03-.19.03-.38.05-.58.02-.36-.05-.63-.21-.8-.54-.09-.16-.13-.34-.15-.52-.02-.15-.02-.3,0-.46Z"/>
        <path class="cls-1" d="m21.42,18.43c-.3,0-.61-.24-.61-.61,0-.36.3-.61.61-.61.31,0,.61.25.61.61,0,.36-.3.62-.61.61Zm.44-.75s0-.02,0-.02c-.07-.19-.28-.35-.54-.3-.27.06-.42.31-.37.56.04.22.26.42.56.37.02,0,.03-.01.05-.02-.1,0-.19-.02-.27-.08-.08-.06-.13-.13-.15-.23-.04-.21.07-.36.19-.43.08-.04.16-.06.24-.05.12.02.21.09.28.19Z"/>
        <path class="cls-1" d="m14.97,20.14c-.27,0-.54-.22-.54-.53,0-.32.27-.54.53-.54.25,0,.54.19.54.54,0,.35-.29.54-.53.53Z"/>
      </g>
      <g>
        <path class="cls-1" d="m11.3,12.27c.1-.12.2-.23.3-.34.02-.02.04-.02.07-.03.32-.11.63-.21.96-.3.42-.12.85-.22,1.28-.3.25-.05.5-.09.75-.12.18-.03.36-.05.54-.07.17-.02.34-.03.51-.05.14-.01.28-.02.42-.03.04,0,.08,0,.13,0,.27,0,.55-.01.82-.01.25,0,.5.01.74.02.14,0,.28.01.42.02.17.01.33.03.5.05.16.02.33.04.49.06.22.03.43.06.65.1.37.07.73.15,1.09.24,1.61.42,3.11,1.07,4.51,1.95,1.24.78,2.35,1.72,3.34,2.8.13.15.26.3.39.44.02.02.04.04.06.07-.05.01-.09,0-.13-.01-.09-.06-.19-.06-.29-.05-.16.02-.31-.01-.43-.12-.04-.04-.08-.08-.12-.12-.05-.05-.1-.09-.16-.12-.02,0-.04-.02-.06-.02-.11,0-.23-.01-.34.02-.06.01-.11.03-.16.05-.04.02-.08.02-.13,0-.06-.03-.12-.04-.18-.04-.06,0-.12-.02-.16-.08-.06-.09-.16-.12-.27-.14,0,.04.01.06.02.08,0,.03,0,.06-.01.08-.03.04-.05.08-.09.12-.08.09-.15.1-.25.03-.08-.05-.17-.09-.26-.13-.07-.03-.13-.05-.21-.02-.08.03-.16.03-.24.01-.09-.02-.19-.03-.29-.03-.05,0-.1,0-.15-.02-.14-.04-.28-.06-.43-.08-.04,0-.09,0-.13,0-.04,0-.08,0-.12,0-.03,0-.06-.02-.08-.04,0,0,0-.01-.01-.02-.06-.09-.14-.12-.25-.1-.03,0-.05.02-.08.04-.05.04-.1.07-.15.1-.03.02-.06.02-.09,0-.04-.01-.08-.03-.12-.07-.02-.02-.05-.05-.08-.07-.04-.02-.07-.04-.11-.05-.05-.02-.1-.02-.15-.04-.08-.04-.16-.05-.24-.05-.16,0-.29-.06-.41-.14-.07-.04-.13-.1-.19-.15-.02-.01-.03-.03-.05-.05-.04-.04-.09-.05-.14-.03-.05.02-.09.01-.14,0-.03,0-.06-.01-.09-.02-.07-.01-.14-.03-.21-.07-.03-.02-.06-.03-.1-.04-.12-.04-.24-.07-.36-.11-.05-.02-.1-.04-.15-.07-.42-.27-.85-.51-1.29-.74-.72-.37-1.46-.69-2.22-.96-.67-.23-1.35-.43-2.04-.58-.33-.07-.66-.14-1-.18-.27-.04-.53-.08-.8-.11-.19-.02-.38-.03-.57-.05-.2-.01-.4-.03-.6-.03-.24,0-.48,0-.71,0,0,0-.02,0-.03,0-.1.03-.19,0-.28-.04-.19-.09-.39-.17-.58-.25-.02,0-.04-.02-.07-.04Z"/>
        <g>
          <path class="cls-1" d="m0,25.16s.03-.08.03-.13c0-.09.01-.18.03-.27.03-.2.06-.39.13-.58,0-.02.02-.04.04-.08,0,.04,0,.06,0,.08-.03.2-.04.41-.03.62.01.26.04.52.08.78.14.8.39,1.57.7,2.32.12.3.25.6.4.89.02.04.03.08,0,.13-.08.22-.08.45-.04.68.03.18.13.31.24.44.1.12.23.2.38.25.15.05.3.04.46,0,0,0,.02,0,.03,0,.03,0,.06,0,.08.02.06.06.12.11.18.17.25.26.46.54.65.84.28.44.51.91.7,1.4.03.08.06.15.1.22.22.38.47.73.76,1.06.45.53.95.99,1.52,1.39.31.21.63.41.96.57.21.1.44.12.67.06.13-.03.24-.11.32-.22.01-.01.02-.03.05-.06,0,.05,0,.07,0,.1-.02.13-.05.26-.1.38-.05.11-.12.21-.22.28-.14.1-.3.14-.47.12-.07,0-.14-.02-.21-.04-.07-.01-.13-.04-.19-.07-.66-.36-1.28-.79-1.85-1.29-.29-.26-.57-.54-.8-.86-.01-.01-.02-.03-.04-.04-.01.03,0,.05,0,.08.05.29.12.58.2.87.21.76.49,1.5.85,2.2.1.19.2.37.3.55.02.04.05.07.08.1.06.05.12.1.17.16.09.08.16.18.19.31.03.1.08.17.16.23.2.15.36.33.5.54.03.05.05.1.07.16,0,.01,0,.03,0,.04,0,.03-.02.07-.03.1-.04,0-.05-.02-.07-.03-.29-.23-.56-.46-.83-.71-1.68-1.53-2.98-3.34-3.89-5.42-.39-.89-.69-1.8-.91-2.74-.07-.29-.13-.59-.18-.89,0-.04,0-.08,0-.12,0-.04,0-.08-.02-.12-.12-.26-.24-.53-.35-.8-.23-.56-.42-1.13-.56-1.71-.09-.36-.16-.73-.19-1.1,0-.09-.01-.17-.02-.26,0-.05,0-.1-.03-.14v-.43Z"/>
          <path class="cls-1" d="m7.94,40.27c.07-.13.13-.27.2-.4.03,0,.05.02.07.03.04.02.09.04.13.06.04.02.08.03.13.04.11.01.2-.02.26-.11.03-.05.06-.1.07-.16.03-.13-.01-.25-.13-.32-.03-.02-.06-.03-.09-.05-.28-.14-.55-.27-.83-.41-.02,0-.04-.02-.06-.03,0-.11.02-.23.03-.34,0-.02.01-.04.02-.06.01-.03.02-.05.04-.08-.04-.03-.08-.05-.12-.08.02-.03.03-.04.05-.07-.02-.01-.04-.03-.06-.04,0,0,0-.02,0-.02.07-.05.14-.09.21-.14.05-.03.05-.03.12-.04.04-.07.06-.15.06-.23,0-.11.03-.21.07-.31.02-.06.04-.12.06-.18.01-.03.01-.07.04-.1.03-.03.02-.06,0-.09-.02-.02-.04-.04-.06-.06-.02-.02-.04-.05-.06-.07.09-.27.33-.41.5-.43.12-.01.25-.04.37-.05.05,0,.09-.03.12-.07.05-.06.09-.12.1-.2,0-.02,0-.04,0-.07-.01-.07,0-.14,0-.21.02-.12.05-.24.07-.36,0,0,0-.02,0-.03.06-.18.04-.36.04-.54,0-.04-.02-.08-.03-.12-.05-.12-.04-.24-.02-.37.03-.13.07-.25.16-.35.01-.01.02-.03.03-.05.03-.06.07-.11.14-.12.02,0,.04-.03.05-.04.02-.02.02-.04.04-.05.04-.05.05-.1.06-.16.01-.15.01-.29-.01-.44-.02-.14-.03-.29-.04-.43,0-.02,0-.03,0-.05-.05-.07-.1-.11-.18-.12-.1-.03-.2-.05-.3-.08-.03,0-.06-.02-.1-.02-.04-.06-.08-.12-.13-.19-.04.02-.05.05-.07.07-.13.18-.22.37-.29.58-.03.1-.05.2-.08.3,0,.02,0,.03-.01.05-.04,0-.07-.03-.09-.05-.04-.05-.07-.11-.08-.17-.02-.09,0-.19.01-.28.04-.2.12-.39.21-.57.14-.28.32-.54.49-.8.25-.36.54-.69.84-1.01.55-.58,1.14-1.11,1.76-1.63.09-.07.18-.15.27-.22.08-.07.15-.14.22-.22.23-.24.43-.5.6-.79.12-.2.22-.42.27-.65.04-.17.05-.34.01-.52-.02-.1-.06-.18-.12-.26-.14-.16-.31-.27-.51-.33-.18-.05-.36-.07-.54-.05-.17.02-.33.05-.5.08-.18.03-.36.06-.54.09-.18.03-.36.06-.53.09-.18.03-.37.06-.55.09-.19.03-.37.06-.56.09-.15.02-.31.04-.46.07-.16.02-.31.05-.47.07-.16.02-.32.04-.48.06-.14.02-.27.04-.41.05-.15.02-.3.03-.45.05-.12.01-.24.02-.37.03-.08,0-.17,0-.25-.01-.03-.02-.03-.05-.03-.09,0-.06,0-.12,0-.17.03-.16.1-.31.2-.45.02,0,.03.01.04.02.24.18.5.21.79.12.17-.05.31-.14.45-.24.35-.28.72-.54,1.08-.81.27-.21.55-.41.82-.61.05-.04.1-.06.16-.07.14-.02.27-.04.41-.07.17-.03.35-.06.52-.09.21-.04.42-.07.63-.11.2-.03.41-.07.61-.1.23-.04.46-.08.69-.13.25-.05.51-.09.76-.14.32-.06.64-.13.95-.2.31-.06.61-.15.91-.25.47-.14.94-.26,1.42-.36.28-.06.55-.12.83-.17.23-.04.47-.07.71-.1.21-.03.42-.05.63-.07.17-.01.34-.02.51-.03.1,0,.21,0,.31,0,.2,0,.39,0,.59,0,.39,0,.78,0,1.17-.04.2-.01.39-.03.59-.05.19-.02.37-.05.56-.07.26-.03.51-.08.77-.14.38-.09.76-.2,1.11-.37.19-.09.37-.2.54-.34.09-.07.16-.16.23-.25.05-.06.07-.13.09-.2.03,0,.03.02.03.03.04.48-.12.88-.52,1.17-.05.04-.11.07-.17.11-.02.01-.04.02-.06.03,0,.03.03.01.04.02.02,0,.05,0,.07,0,.11.02.17.09.18.2,0,.03,0,.05,0,.08,0,.17-.01.33-.02.5,0,.02,0,.04-.02.06-.03.08-.06.16-.1.23-.02.04-.04.07-.07.11-.03.04-.08.06-.14.05-.04-.01-.08-.02-.12-.04-.04-.02-.08-.02-.12-.02-.14,0-.27.03-.41.05-.04,0-.08.01-.11.02-.12.03-.22.01-.33-.04-.06-.03-.11-.06-.17-.09-.03-.01-.05-.02-.08-.02-.08,0-.15-.01-.23-.02-.03,0-.05,0-.07-.02-.08-.05-.17-.11-.26-.14-.03-.01-.05-.04-.07-.07-.02-.05-.06-.07-.11-.09-.06-.02-.12-.04-.19-.04-.03,0-.06,0-.09,0-.1-.01-.19.02-.27.08,0,.14-.05.25-.11.37-.02.04-.04.09-.06.13-.02,0-.03.01-.05.01-.12.01-.24.02-.36.04-.02,0-.04,0-.06-.02-.16-.16-.34-.29-.52-.43-.04-.04-.07-.09-.1-.13-.05-.01-.11-.02-.17-.02-.2,0-.41-.01-.61-.01-.31,0-.61,0-.92.01-.25,0-.5.03-.75.05-.16.01-.31.03-.47.04-.17.02-.34.05-.51.07-.22.03-.43.07-.64.12-.44.1-.87.23-1.28.42q-.19.09-.33.25c-.04.05-.09.1-.13.15-.01,0-.02,0-.02,0-.08-.01-.15.03-.21.07-.16.11-.3.24-.42.4-.1.14-.22.27-.33.41-.01.02-.03.04-.04.05,0,.05,0,.1.01.15,0,.07-.02.13-.06.19-.07.09-.15.18-.24.25-.06.05-.07.07-.03.15.04.09.08.17.11.26.03.07.06.15.1.22.04.09.04.19.04.28,0,.02,0,.04-.02.06-.02.05-.03.09-.03.14,0,.09,0,.17,0,.26,0,.11-.02.2-.07.3,0,.01-.01.03-.02.04-.06.13-.14.25-.27.32-.01,0-.02.02-.03.03.01.04.05.08.08.11.03.02.04.05.05.08.02.08.03.16.04.25.01.09.03.17.04.26,0,.05.03.1.06.14.02.03.05.06.07.09.03.03.05.06.07.09.03.05.06.09.11.12.11.09.22.18.34.26.21.14.22.19.27.39.01.04.02.08.02.12,0,.04.02.07.04.09.03.03.07.07.11.1.04.03.08.05.12.08.16.09.29.21.41.35.05.06.1.11.17.14.02,0,.04.02.05.03.05.05.12.06.19.06.09,0,.19,0,.28,0,.04,0,.08,0,.11-.02.09-.03.18-.07.26-.13.07-.05.14-.05.22-.02.08.03.16.05.24.08.01,0,.03,0,.04,0,.11,0,.21,0,.32,0,.02,0,.04,0,.05-.02.07-.05.15-.1.22-.16.06-.05.12-.08.2-.1.1-.02.2-.03.29-.06.09-.02.18-.02.27-.02.04,0,.08,0,.13,0,.03,0,.06,0,.08.02.04.03.07.06.1.09.05.05.1.1.16.16.02.02.04.05.07.07.07.06.14.1.24.09.11,0,.21,0,.32-.02.05,0,.1,0,.14,0,.07.02.14.03.21.05.03.05.05.09.08.14.01.03.02.05.02.08,0,.13,0,.26-.06.39-.01.03-.02.06-.03.09-.02.05-.03.1-.03.15,0,.14-.02.28-.03.42,0,.02,0,.03,0,.05-.03.08-.01.15.02.22.03.07.06.13.11.18.12.12.22.26.29.4.06.12.13.24.19.36.04.07.08.15.15.2.02.02.04.04.05.07.03.09.04.17.04.27,0,.04,0,.08.01.12.04.16.08.32.12.49,0,.04.03.06.05.09.03.04.04.05,0,.09-.03.04-.07.07-.11.11-.01.01-.03.02-.04.04-.04.05-.07.1-.13.14-.02.01-.03.04-.03.06-.02.11-.06.22-.05.33,0,.07-.02.14-.05.2-.04.07-.05.14-.06.21,0,.02,0,.04,0,.06,0,.09,0,.19-.03.28-.01.04,0,.07,0,.1.03.07.06.15.09.22.01.04.03.07.06.1.02.02.04.05.07.07.03.03.05.06.07.1.02.06.05.11.07.17.01.03.02.06.02.09,0,.08.01.16.02.24,0,.07.02.13.02.2.01.12.02.24.03.37,0,.04,0,.08,0,.11-.02.06,0,.12.04.16.04.04.08.08.13.12.05.04.1.08.14.13.04.05.06.1.08.16,0,.03.02.06.03.09.05.08.08.16.08.25,0,.02,0,.03,0,.05.02.07,0,.14-.02.21-.03.07-.05.15-.07.24.03,0,.04,0,.06,0,.01,0,.02,0,.04,0,.13-.03.26-.05.4-.04.28,0,.57,0,.85,0,.06,0,.11-.01.15-.05.09-.07.18-.13.27-.19.13-.09.27-.17.41-.23.05-.02.09-.06.13-.1.08-.08.16-.17.25-.25.05-.05.1-.09.15-.13.06-.05.1-.11.13-.19.04-.14.1-.27.21-.38.04-.04.06-.09.06-.15,0-.06.02-.13.03-.19.02,0,.04-.02.06-.03.17-.08.31-.19.42-.33.15-.2.19-.42.14-.66,0-.02,0-.03-.01-.05-.04-.07,0-.13.04-.18.18-.23.39-.43.64-.58.07-.04.13-.08.2-.11.03-.02.05-.03.07-.07.02-.03.04-.07.06-.1.06-.1.12-.18.21-.25.04-.03.05-.06.05-.11,0-.11.02-.22.04-.34.01-.08.02-.17.02-.25,0-.08,0-.15,0-.23,0-.07-.02-.14-.06-.19-.03-.04-.04-.09-.03-.14.03-.21.02-.42.02-.64,0-.11.01-.21.05-.31.02-.05.03-.11.04-.16,0-.03,0-.07.02-.1.02-.07.04-.13.09-.18.36-.38.69-.78,1-1.2.27-.36.51-.73.72-1.13.13-.26.24-.52.31-.8.04-.14.06-.29.06-.44,0-.02,0-.04,0-.07-.11.02-.21.06-.31.1-.1.03-.21.07-.31.1-.1.03-.2.07-.3.1-.1.03-.2.07-.3.1,0-.01-.02-.02-.02-.03-.05-.14-.11-.28-.16-.41,0,0,0-.01,0-.03.03-.02.06-.03.1-.05.42-.21.83-.42,1.25-.63.03-.01.05-.03.08-.04.05-.02.1-.04.13-.08.04-.04.03-.1.04-.15,0-.04.03-.07.06-.09.13-.1.25-.21.36-.32.05-.06.1-.12.16-.18,0,0,.02-.02.02-.03.08-.13.15-.25.13-.41.02-.02.04-.03.06-.04.02-.02.05-.03.07-.05.13-.12.17-.26.11-.43-.02-.05-.04-.09-.07-.14-.08-.13-.18-.24-.31-.31-.03-.01-.05-.03-.07-.05-.01-.06,0-.12.03-.17.02-.04.05-.06.09-.06.08,0,.16,0,.24,0,.03,0,.06,0,.08.02.03.01.06.02.09.04.04.02.08.03.13.03.03,0,.05,0,.08,0,.07,0,.13,0,.18.04.03.02.07.03.11.03.08,0,.15,0,.23,0,.08,0,.14.04.19.09.01.01.03.03.04.04.11.13.21.27.31.42.03.04.04.08.05.13,0,.07.02.15.03.22,0,.07.05.11.11.14.02.01.05,0,.07-.02.02-.02.03-.04.04-.06.02-.02.03-.05.04-.07,0,0,.02,0,.02.01.06.13.11.25.11.4,0,.02,0,.05,0,.07,0,.06.02.12.04.18.06.16.12.31.18.47.01.04.02.07.02.11-.01.13,0,.26.03.39.03.14.04.29.07.43.02.11.05.23.08.34.02.07.05.14.07.2.03,0,.02-.01.03-.02,0-.01.01-.02.01-.04.03-.14.07-.28.1-.42.05-.23.07-.46.1-.69,0-.02,0-.04.01-.06,0,0,0-.01,0-.02.03-.11.05-.23.1-.34.04-.11.11-.2.16-.31.02-.04.04-.08.05-.12.03-.1.06-.2.09-.3.01-.04.02-.09,0-.13,0-.02,0-.04,0-.06,0-.05.03-.1.08-.13.07-.04.13-.1.18-.15.08-.08.17-.14.28-.16.06-.01.12-.03.18-.05,0,.02.01.04.01.06.01.23.03.47.03.7,0,.3,0,.6,0,.9,0,.2-.02.39-.03.59-.01.19-.03.38-.05.57-.02.17-.04.35-.06.52-.05.31-.09.62-.15.92-.14.73-.34,1.45-.58,2.16-.6,1.72-1.47,3.3-2.61,4.73-1.52,1.9-3.38,3.39-5.57,4.46-.98.48-2.01.85-3.07,1.11-.42.1-.84.19-1.26.26-.25.04-.5.07-.75.1-.3.04-.6.06-.89.08-.48.03-.97.04-1.45.03-.24,0-.48-.02-.72-.04-.24-.02-.47-.05-.71-.07-.4-.04-.79-.1-1.18-.18-.62-.12-1.23-.28-1.84-.47-1.44-.46-2.79-1.12-4.04-1.96-.02-.01-.04-.03-.06-.04,0,0,0-.01-.01-.02Zm19.43-6.13s-.03,0-.04,0c-.08.02-.14.07-.2.11-.05.04-.05.09.01.13.05.03.05.05.02.09-.02.02-.04.04-.06.06-.05.04-.1.08-.16.11-.07.05-.14.09-.21.13-.17.1-.3.24-.4.41-.1.18-.14.37-.13.58,0,.09-.02.15-.08.21-.02.02-.04.03-.06.05-.03.02-.05.05-.08.07-.04.05-.07.1-.06.17,0,.11.01.22.02.33,0,.02.01.05.03.06.05.03.09.07.14.09.05-.02.09-.04.13-.06.1-.05.19-.11.26-.21.03-.05.08-.1.13-.14.02-.02.04-.03.06-.05.06-.05.22-.31.25-.39.05-.14.11-.28.16-.42.04-.12.08-.24.1-.36.01-.08.04-.15.08-.22.03-.06.06-.13.09-.2.02-.05.02-.11.02-.16,0-.1,0-.21-.01-.31,0-.03,0-.06,0-.09Z"/>
          <path class="cls-1" d="m25.06,25.71c0-.06,0-.12,0-.18.01-.14-.04-.25-.12-.36-.04-.05-.08-.1-.11-.14-.02-.03-.03-.05-.04-.09,0-.06,0-.13-.01-.19,0-.04,0-.07.02-.1.03-.05.06-.1.09-.16,0,0,.01,0,.02,0,.1,0,.17.04.21.12.02.03.04.07.06.1.04.06.08.13.14.17.03.02.04.05.05.08.04.11.08.22.1.33,0,.02.01.04.03.05.07.03.11.09.15.14.06.08.11.17.16.25.05.1.09.2.1.31,0,.07.01.13.02.2,0,.03.01.05.04.07.05.05.11.09.16.14.04.03.07.07.1.12.08.13.16.27.25.4.07.1.1.21.11.33.02.15.02.31.02.46,0,.06,0,.11.02.16.02.04.02.09.02.13,0,.03-.03.05-.06.04-.04,0-.07-.02-.11-.04-.08-.04-.14-.11-.2-.18-.08-.09-.15-.19-.21-.3-.11-.18-.2-.37-.28-.57-.02-.04-.04-.08-.08-.1-.08-.04-.13-.1-.17-.18-.03-.06-.06-.13-.08-.19-.02-.04-.02-.08-.01-.12.02-.19-.03-.35-.14-.5-.05-.06-.1-.12-.17-.17-.02-.02-.04-.03-.06-.05Z"/>
          <path class="cls-1" d="m27.32,20.51q-.12.02-.22.1s-.05.04-.08.06c-.06.04-.06.16,0,.2.04.03.09.07.13.1.08.05.14.13.21.2.02.02.02.05.03.07.03.06.06.12.08.17.05.1.1.19.13.3,0,.04.03.07.05.1.05.07.09.15.14.22.08.11.13.24.16.37,0,.04.02.08.06.1-.07.1-.15.17-.27.2-.06.01-.1.01-.15-.02-.07-.05-.15-.09-.22-.15-.02-.02-.05-.02-.07-.03-.05-.02-.11-.04-.16-.06-.06-.02-.09-.07-.09-.14,0-.06,0-.12.01-.18.01-.1.03-.19.04-.29.01-.07,0-.13-.05-.18-.09-.1-.18-.2-.27-.3-.05-.05-.09-.11-.13-.16-.01-.02-.02-.04-.03-.06,0-.07-.04-.12-.07-.18-.03-.06-.07-.12-.1-.18.01-.03.02-.05.03-.08.03-.07.06-.14.07-.22,0-.04.02-.09.03-.13.01-.04.04-.07.08-.08.04-.01.08-.03.12-.03.1,0,.21,0,.31,0,.05,0,.09.02.11.06.02.03.05.05.07.08.03.04.05.09.04.14Z"/>
          <path class="cls-1" d="m17.46,27.79c.03.09-.01.17-.02.26.04.05.09.1.13.15.04.05.09.09.13.14.04.05.08.08.14.1.02,0,.05.02.08.04v.08s-.07.02-.11.03c-.04,0-.06.02-.07.06-.04.08-.08.16-.12.25-.02,0-.04,0-.07,0-.05,0-.09-.03-.14-.03-.04,0-.07,0-.1.01-.05.01-.09.02-.14.02-.13,0-.25,0-.38,0-.04,0-.07,0-.1.03-.02.06.03.11.03.17-.03.02-.07.04-.11.03-.08,0-.16,0-.24-.03-.14-.03-.21-.13-.22-.27,0-.17.05-.32.16-.44.04-.04.08-.08.12-.11.12-.09.24-.18.36-.27.14-.1.3-.17.48-.17.03,0,.06-.01.09-.02.02,0,.04-.03.08-.01Z"/>
          <path class="cls-1" d="m28.83,24.96s0,.02,0,.02c-.09.09-.14.21-.21.31-.04.06-.08.11-.13.17-.07.08-.15.12-.25.12,0,0-.02,0-.03,0-.08,0-.14-.01-.18-.09-.03-.06-.06-.12-.06-.19,0-.03,0-.07-.01-.1-.01-.06-.04-.1-.1-.12-.03-.01-.06-.04-.09-.05-.05-.03-.08-.07-.1-.11-.02-.06-.06-.11-.11-.16-.04-.05-.08-.1-.1-.16-.01-.04-.04-.08-.06-.12-.04-.06-.07-.13-.09-.2-.01-.05-.03-.1-.04-.15.09-.07.17-.08.26-.03.05.03.09.07.13.11.06.07.11.15.15.24.06.13.16.23.25.32.08.08.18.13.27.19.01,0,.03.02.04.02.04.02.07.02.11,0,.05-.02.1-.04.14-.05.06-.01.12,0,.18.02Z"/>
        </g>
      </g>
      <path class="cls-1" d="m7.56,39.58c-.05.1-.1.21-.15.31-.04,0-.06-.03-.08-.05-.02-.02-.05-.04-.07-.06,0-.02.02-.03.03-.05.02-.03.05-.06.07-.09.03-.04.06-.08.06-.14.06.02.11.04.16.08Z"/>
      <path class="cls-1" d="m8.15,27.79s0-.01,0-.01c0,0,0,0,.01,0,0,0,0,0,0,0,0,0-.01,0-.02,0,0,0,0,0,0,0Z"/>
      <path class="cls-1" d="m6.8,30.23s.01,0,.02,0c0,0,0,0,0,0,0,0-.01,0-.02,0,0,0,0,0,0,0Z"/>
    </g>
  </g>
</svg>