<?xml version="1.0" encoding="utf-8"?>
<svg version="1.1" xmlns="http://www.w3.org/2000/svg" xmlns:xlink="http://www.w3.org/1999/xlink" x="0px" y="0px" viewBox="0 0 45 45" style="enable-background:new 0 0 45 45;" xml:space="preserve">
<rect fill="#283C73" width="45" height="45"/>
<path fill="#3B5696" d="M41.3,15.5c-1.7-0.3-3.4-0.6-6.5,0.6c-3.1,1.1-4.6,2.6-6,3.9c-1.4,1.4-2.7,2.6-5.6,3.7c-2.9,1-4.5,0.8-6.1,0.5c-1.6-0.3-3.4-0.5-6.5,0.6s-4.6,2.6-6,3.9C3.4,30,2.2,31.1,0,32.1V45h45V15.6C43.5,15.9,42.4,15.7,41.3,15.5z"/>
<g fill="#fff">
<circle cx="22.5" cy="11.6" r="4.7"/>
<path d="M22.5,17.4c-4.8,0-8.8,2.5-8.8,5.6v1.4c2.3,2.1,5.4,3.5,8.8,3.5s6.5-1.3,8.8-3.5V23C31.3,20,27.3,17.4,22.5,17.4L22.5,17.4z"/>
</g>
<text x="22.5" y="37" text-anchor="middle" fill="#fff" font-family="sans-serif" font-size="8" textLength="42" font-weight="bold">マイページ</text>
</svg>
