<?xml version="1.0" encoding="utf-8"?>
<!-- Generator: Adobe Illustrator 27.3.1, SVG Export Plug-In . SVG Version: 6.00 Build 0)  -->
<svg version="1.1" id="レイヤー_1" xmlns="http://www.w3.org/2000/svg" xmlns:xlink="http://www.w3.org/1999/xlink" x="0px"
	 y="0px" viewBox="0 0 156.8 192.6" style="enable-background:new 0 0 156.8 192.6;" xml:space="preserve">
<style type="text/css">
	.st0{fill:#D2D6DA;}
</style>
<polygon class="st0" points="69.2,25.9 69.2,25.9 69.2,25.9 "/>
<path class="st0" d="M152.5,63c-5.1,0.4-9.7,1-14.1,1.7c0.4,0.2,1,0.4,0.7,1.2c-0.5,0-1,0.2-1.6,0.2c0-0.1,0-0.1,0-0.2
	c1.2-0.5,0.8-0.4,0.7-1.2c-0.3,0-0.6,0.1-0.9,0.1c0.1,0.2,0.1,0.5,0.3,0.6c-0.2,0.1-0.4,0.2-0.6,0.3c0-0.3,0-0.6-0.1-0.8
	c-14.7,2.1-26.4,4.1-40,0.1c0.4,0.4-0.1,0.8-0.5,0.8c-0.2-0.3-0.2-0.7-0.3-1c-0.5-0.2-1.1-0.3-1.6-0.5c0.1,0.3,0.2,0.5,0.1,0.9
	c-0.3-0.6-0.5-0.4-1.1-0.6c0-0.2,0.1-0.4,0.1-0.7c-2.4-0.9-4.8-1.9-7.4-3.2c0,0,0,0,0,0.1c-0.3,0.1-0.3,0.1-0.3-0.1
	c0.1,0,0.2,0,0.2,0c-0.2-0.1-0.3-0.2-0.4-0.2c-0.1,0-0.2,0-0.4,0c0-0.1,0.1-0.1,0.1-0.2c-0.4-0.2-0.7-0.4-1.1-0.6c0,0,0,0,0,0
	c-0.7-0.5-1.4-0.8-2.2-1.2c-0.1,0.1-0.2,0.3-0.5,0.3l0,0l0,0l0,0c0,0.5,0,0.3-0.2,0.5c-0.2-0.3-0.2-0.2,0.2-0.5c0,0,0,0,0,0l0,0
	c0,0-0.1-0.1-0.2-0.4c0.1,0,0.1-0.1,0.2-0.1c-0.3-0.2-0.7-0.4-1-0.6c0.1,0.2-0.3,0.3-0.2,0.6c-0.6-0.4-0.1,0.1-0.6,0.3
	c-0.1-0.3-0.2-0.1,0-0.7c0.2-0.1,0.5-0.1,0.7-0.2c-3-2-6.5-3.2-10-3.6c0,0.3-0.1,0.6-0.1,0.8c-0.2,0-0.4,0-0.6-0.2
	c0.1-0.2,0.2-0.5,0.3-0.7c-6.4-0.7-12.2,0.9-18.1,2.9c-0.1,0.1-0.3,0.2-0.4,0.4c0-0.1,0-0.2,0-0.2c-0.3,0.1-0.6,0.2-0.8,0.3
	c0,0,0,0.1,0,0.1c0,0,0,0-0.1-0.1c-0.2,0.1-0.4,0.1-0.5,0.2c0.2,0.2,0.2,0.3,0,0.5c-0.2-0.1-0.2-0.2-0.1-0.4
	c-0.2,0.1-0.4,0.1-0.6,0.2c0.1,0.8-0.2,0.9-0.5,0.5c0.1-0.1,0.1-0.2,0.2-0.3c-3.8,1.3-7.6,3-11.4,4.8c0,0.1,0,0.2-0.1,0.3
	c-0.1,0-0.1-0.1-0.2-0.2c-0.3,0.2-0.6,0.3-0.9,0.5c0,0,0,0,0,0c0.1,0.4-0.2,0.4-0.5,0.3c-2.8,1.4-5.6,3-8.3,4.7c3-2.2,6-4.2,9-6
	c-0.1-0.2,0.3-0.6,0.6-0.4c3.7-2.2,7.4-4.1,11.1-5.7c0.1-0.1,0.2-0.2,0.2-0.4c0.1,0,0.2,0.1,0.3,0.1c2.7-1.2,5.3-1.9,7.8-2.9
	c-0.1-0.2-0.2-0.5-0.3-0.8c0.6,0,1-0.4,1.5-0.2c0,0,0,0,0,0c0-0.6-0.1-1.2-0.2-1.8c-0.2,0-0.2,0-0.1-0.2c0,0,0.1,0,0.1,0
	c0-0.4-0.1-0.8-0.1-1.1c-0.2,0-0.4,0-0.6-0.1c0.2,0,0.3-0.3,0.5-0.4c0-0.1,0-0.2-0.1-0.3c-0.4-0.1-0.7-0.4-0.7-0.8
	c-0.4,0.1-0.3-0.2-0.3-0.7c0.5,0,0.4,0.3,0.5,0.6c0.2,0,0.3,0,0.4,0c-0.7-4.2-2-8.8-4.1-13.1c2,3.6,3.3,7.4,4.3,11
	c0.1,0.1,0.2,0.2,0.2,0.2c0,0,0,0,0,0l0,0c0.2,0.1,0.1,0.3,0,0.5c0,0,0,0-0.1-0.1c0,0.1,0.1,0.2,0.1,0.4c0.1,0,0.2-0.1,0.3-0.1
	c0.1,0.3,0.2,0.6,0.4,1c-0.2-0.1-0.4-0.1-0.6-0.2c0.1,0.3,0.1,0.6,0.2,0.9c0.2-0.1,0.3-0.1,0.5-0.2c0.4,0.2-0.2,0.5-0.4,0.5
	c0.2,1.2,0.4,2.3,0.5,3.4c0.1,0.1,0.2,0.1,0.2,0.2c0,0.1-0.1,0.2-0.2,0.2c0,0.2,0,0.4,0.1,0.6c0.1,0,0.1,0,0.2,0c0,0.1,0,0.1,0,0.2
	c0.9-0.2,1.8-0.4,2.7-0.5c0-0.8-0.1-1.6-0.2-2.4c-0.1,0-0.2,0-0.2-0.1c-0.2-0.5-0.6-0.2-0.9-0.2c0-0.3,0.1-0.5,0.1-0.8
	c0.5-0.2,0.4,0.3,0.6,0.6c0.1-0.1,0.3-0.2,0.4-0.3c0-0.1,0-0.2,0-0.4c-0.1,0-0.2,0-0.3,0c0.1-0.2,0.2-0.2,0.3-0.2
	c0-0.2,0-0.5-0.1-0.7c-2.2-0.8-0.7-0.3-1.4-1.2c0.5-0.7,0.8-0.3,1.1-0.3c-0.2-0.8-0.3-1.7-0.5-2.6c-0.1,0-0.2,0.1-0.4,0.1
	c0.3,0.9,0.3,0.6-0.2,1.5c0.5,0,0.6,0.2,0.7,0.6c-0.2,0.1-0.3,0.1-0.5,0.2c-0.6-0.4-1.2-0.8-1.7-1.2c0-0.2,0-0.3,0.1-0.5
	c0.5-0.2,0.2,0.6,0.7,0.5c-0.4-0.2-0.1-0.4,0-0.6c-0.1-0.2-0.1-0.4-0.2-0.7c0.2,0.1,0.3,0.1,0.5,0.2c0-0.3,0.1-0.5,0.1-0.9
	c0.3,0.3,0.5,0.5,0.8,0.7c0,0,0,0,0,0c-0.1-0.5-0.2-1.1-0.4-1.6c-0.1,0-0.2-0.1-0.3-0.1c0.1,0.3,0.4,0.6,0.2,0.9
	c-0.6-0.1-0.6,0.2-1,0.5c-0.3-0.7,0.9-1.5,0.2-2.5c0.2,0,0.3,0.1,0.5,0.1c0,0,0.1,0,0.1-0.1c0-0.1-0.1-0.2-0.1-0.3c0,0,0,0-0.1,0
	c-0.6-2.9-1.9-5.9-3.2-8.7c1.6,2.9,2.8,5.8,3.7,8.7c0.8-0.6,0.1-1.4,1.1,0.8c0,0.1,0.2,0.1,0.3,0.2c0.1-0.2,0.1-0.4,0.2-0.8
	c0.1,0.5,0.2,0.8,0.2,1.2c-0.2,0-0.3,0-0.4,0c0.1,0.2,0.2,0.4,0.2,0.7c0.1-0.1,0.3-0.5,0.6-0.1c-0.5,1.1-0.5,1.1-1.3,1.1
	c0.1-0.1,0.1-0.2,0.2-0.4c-0.1,0-0.2,0-0.3,0c0.3,1,0.5,2.1,0.8,3.1c0.1,0,0.3,0.2,0.7,0.6c0-0.4,0-0.8,0.4-0.8
	c0.1,0.4-0.1,0.7-0.2,1c0.9,0.6,0.5,0.1,0.7,1.4c0.1,0.4-0.2,0.6,0,1c-0.3,0.3-0.6,0.6-0.9,1c0.1,0.8,0.2,1.5,0.3,2.2v0
	c0.8-0.1,1.5-0.2,2.3-0.2c-0.1-0.9-0.2-1.9-0.3-2.9c-0.3,0-0.2,0.1-0.3-0.1c0.1,0,0.2,0,0.2,0c-0.4-3.6-1.2-7.6-2.4-11.6
	c-0.1,0-0.3,0-0.4,0.1c0.1,0.3,0,0.4-0.2,0.3c-0.1-0.3,0.3-0.3,0.2-0.3c0,0-0.2-0.2-0.8-0.6c0.3-0.2,0.5-0.3,0.6-0.4
	c0.1,0,0.2,0,0.3,0c-0.8-2.5-1.8-5.1-3-7.5c1.6,2,1.5,5.7,4.2,6.1c-0.3,0.4-0.4,0.9-0.9,1.1l0.1,0.3c0.8,0,0.7,0.1,0.2,0.5
	c0,0,0,0,0,0.1c0.3,0,0.5,0.1,0.8,0.1c-0.1,0.2-0.1,0.2-0.6,0.3c0.2,0.7,0.5,1.3,0.7,2c0.1,0,0.2,0.1,0.3,0.2
	c-0.1,0-0.2,0.1-0.2,0.1c1.4,4.4,2.2,8.7,2.6,12.5l0-0.1c0.8,0,1.7,0,2.5,0C68,43.4,66,33.8,61.8,25c0.4,0.7,0.7,1.5,1.1,2.2
	c0.3-0.1,0.3-0.1,0.3,0.1c-0.1,0-0.2,0-0.2,0c0.6,1.3,1.2,2.5,1.7,3.8c0.4-0.3,0.5,0.3,0.2,0.4c2.9,7,4.4,14.1,5.1,20.2l-0.1-0.5
	c0.8,0.1,1.6,0.2,2.3,0.3C72,48.9,71.6,46,71.1,43c0,0,0,0-0.1,0c-0.8-5.4-2.5-11-4.7-16.6c0,0.2-0.1,0.5-0.2,0.7
	c-0.2-0.2-0.2-0.7,0-1c-0.6-1.4-1.2-2.8-1.8-4.1c0.7,1.3,1.3,2.5,1.9,3.8c0.1-0.1,0.2-0.2,0.5-0.2c-0.2,0.1-0.3,0.3-0.4,0.5
	c2.7,5.7,4.5,11.6,5.8,17.1c0.1,0,0.1,0,0.2,0c-0.1,0-0.1,0.1-0.2,0.1c0.7,3.3,1.2,6.5,1.6,9.4c0-0.3-0.1-0.6-0.1-0.9
	c0.5,0.2,1.1,0.3,1.6,0.5c-0.5-8-2.2-17.7-5.5-27.1c0,0-0.1,0-0.1,0c0-0.1,0.1-0.1,0.1-0.1c-0.2-0.5-0.4-1-0.6-1.5
	c-0.4,0.3-0.4,0.3-0.4,0.2c0.2-0.2,0.3-0.3,0.4-0.4c-0.7-1.9-1.4-3.7-2.3-5.6c1.3,2.5,2.4,5,3.5,7.6c0.1,0.1,0.1,0.2,0.1,0.3
	c0.1,0.3,0.2,0.5,0.3,0.8c0.1,0,0.1,0,0.2,0c-0.1,0.1-0.1,0.2-0.1,0.3c2.4,6.1,4,12.2,5,18c0.1,0.7,0.2,1.4,0.4,2.1
	c0.1,0.1,0.1,0.1,0,0.2c0.1,0.5,0.2,1,0.2,1.5c0,0,0.1,0,0.1,0c-0.1-0.8-0.2-1.6-0.3-2.4c0,0,0,0,0,0c0,0,0,0,0,0
	c-0.1-0.6-0.2-1.2-0.2-1.8c0,0-0.1,0-0.1-0.1c0,0,0.1-0.1,0.1-0.1c-1.9-14-4.9-24.8-10.1-33.6c-0.2,0.1-0.2,0.1-0.4-0.2
	c0.1-0.1,0.2-0.1,0.3-0.1c-0.2-0.3-0.4-0.6-0.6-0.9c-0.5,0.4-0.8,0.3-1-0.4c0.4-0.1,0.7,0.1,1,0.4c-2-2.6-6.8-11-9.8-9.2
	c0.1,0,0.2,0.1,0.5,0.5c-0.2,0.1-0.3,0.1-0.6-0.2C55.1,0.7,55,0.9,55,1c0.7,0.8,1.3,1.5,1.9,2.3c-0.2,0.8-0.4,1.6-0.6,2.4
	c0.1,0,0.2,0,0.2,0C56.4,5.9,56.4,6,56.2,6C56.1,6.3,56,6.6,56,6.9c-1-0.6-1.9-0.6-2.3,0.6c0.5,0.6,1.1,1.2,1.6,1.7
	c-0.3,0.9-0.6,1.8-0.9,2.6c-0.9-0.5-1.6-0.4-1.9,0.6c0.4,0.4,0.8,0.9,1.2,1.3c-0.4,1-0.8,1.9-1.2,2.9c-0.7-0.4-1.3-0.3-1.5,0.5
	c0.3,0.3,0.6,0.6,0.9,1c-0.2,0.5-0.5,1.1-0.8,1.6c0.2,0,0.3,0,0.5,0.1c-0.1,0.4-0.4,0.3-0.7,0.2c-0.1,0.2-0.2,0.4-0.2,0.5
	c-0.7-0.4-1.3-0.4-1.5,0.4c0.3,0.3,0.6,0.6,0.9,1c-0.5,1-1,2-1.6,3c-0.7-0.5-1.3-0.6-1.6,0.2c0.3,0.3,0.6,0.7,0.9,1
	c-4.5,8-10,15.4-15.7,22.9c0.1,0,0.2,0.2,0.2,0.3c-0.1,0-0.2-0.1-0.4-0.1c-0.2,0.2-0.4,0.5-0.6,0.7c0.1,0.1,0.1,0.1,0.5,0.4
	c-0.4,0.2-0.7,0.2-0.9,0.1c-0.2,0.2-0.4,0.5-0.5,0.7c0,0,0,0,0.1,0c-8.3,10.5-16.7,21.5-23.9,35c0,0,0.1,0.1,0.1,0.1
	c-0.2,0.2-0.2,0.2-0.2,0.1c-0.7,1.3-1.3,2.6-2,3.9c0,0,0,0,0,0l0,0c0,0,0,0,0,0c0,0,0.1,0,0.1,0.1c-0.2,0.2-0.2,0.2-0.3,0.2
	c-2.5,4.6-3.9,9.6-4.3,14.7c0.2,0.1,0.3,0.5,0,0.6c0,0.2,0,0.5,0,0.8c0.1-0.1,0.3-0.2,0.5-0.3c0.4,0.2,0.3,0.7-0.3,0.7h0l0,0
	c0,0.5,0,0.3-0.2,0.5c0,0,0,0,0,0c0,1.8,0,3.7,0.2,5.5c0.1,0.1,0.2,0.2,0,0.3c1,8.8,4.3,17.3,8.9,23.8c0,0.3,0,0.7,0,1
	c0-0.1,0-0.1,0-0.2c0.2-0.1,0.4-0.3,0.6-0.4c-0.1-0.6-0.1-0.6,0.8-0.9c0.1,0.2,0.1,0.6-0.1,1.6c-0.4,0.3-0.8,0.5-1.2,0.8
	c0,0,0-0.1-0.1-0.1c0,0.3,0,0.6,0,0.9c0.4-0.1,0.3-0.1,0.4,0.1c-0.3,0.1-0.3,0.1-0.4,0.1c0.1,1.2,0.1,2.5,0.2,3.7
	c0.2,0,0.1,0.4,0,0.4l0,0c0,0,0.2,0,0.7,0c-0.1,0.5-0.2,0.9-0.6,1.3c0.3,4.1,0.9,8.4,2,12.8c0.1,0,0.1,0,0.2,0.1
	c-0.1,0.1-0.1,0.2-0.2,0.2c0.1,0.3,0.1,0.5,0.2,0.8c0.1,0,0.2,0.1,0.3,0.2c-0.1,0.1-0.1,0.2-0.2,0.3c2.7,10.4,8.1,21.7,19.2,32.6
	c-10.2-11.7-11.1-23.4-10.7-33.5c-0.6,0.3-1.1-0.4-0.8-0.7c1-0.7,0.7-0.6,0.9-1.2c0.1-1.6,0.2-3.2,0.3-4.8c-0.1-0.1-0.1-0.2,0-0.3
	c0.2-4.2,0.3-8-0.6-11.2c0,0,0,0,0,0c0-0.1-0.1-0.1,0-0.1c-0.4-1.5-1-2.9-1.9-4.1c0.7-0.8,1.3-1.7,2-2.6l0,0c0-0.4-0.1-0.4,0.1-0.4
	c0,0.1,0,0.1,0,0.2c0.2-0.3,0.5-0.6,0.7-1H21c0.1-0.2,0.1-0.3,0.2-0.6c0.1,0.1,0.1,0.2,0.2,0.2c1.3-2,2.7-4.1,4.2-6.2c0,0,0,0,0,0
	c0,0,0,0,0,0c0.1-0.1,0.1-0.2,0.2-0.3c-0.2,0-0.1,0-0.1-0.2c0.1,0,0.2,0,0.2,0c4.5-6.2,10.4-12.1,21.4-13.9c0,0,0,0,0,0
	c0.6-0.1,1.2-0.2,1.8-0.3c-12-0.8-20.8,0.4-27.1,3.2c0.2,0.1,0.2,0.1,0,0.2c-0.1-0.1-0.2-0.1-0.2-0.2c-0.9,0.4-1.7,0.8-2.5,1.3
	c0,0.1,0,0.1-0.3,0.5c0-0.1-0.1-0.2-0.1-0.2c-3.9,2.4-6.5,5.7-8,9.5c0.2,0,0.2,0.1,0.1,0.2c-0.1,0-0.1,0-0.2-0.1
	c-0.1,0.2-0.1,0.3-0.2,0.5c-1.6-4.8-1.2-9.8,0-13.9c-0.1,2.2,0.3,4.8,1.3,7.8c-0.1-2.6,1.1-4.7,2.9-6.5c-0.3-0.5-0.2-1.1-0.3-1.6
	c0.6-0.3,1.2-0.1,0.5,0.6c0.1,0.2,0.3,0.3,0.4,0.5c4.5-3.9,12-6.3,14.8-10.2c0,0-0.1,0-0.1,0c0.7-0.5,1-1.5,1.2-2.4
	c-0.4,0-0.8,0-1.1,0c-1.5,3.4-4.9,6-10.3,7.7c4.4-1.8,7.9-4.4,8.8-7.8c-0.4,0-0.8,0-1.2,0c-0.2,0.5-0.5,1.1-0.9,1.6
	c0.4,0,0.4-0.1,0.4,0.1c-0.4,0-0.4,0.1-0.4,0c-1.1,1.5-2.9,2.7-5.3,3.8c1.2-0.6,2.1-1.3,2.9-2.1c-0.2-0.1-0.3-0.1-0.5-0.1
	c0.3-0.2,0.4-0.1,0.6,0.1c1.1-1,1.8-2.1,2.3-3.3c-1.2,0.1-2.3,0.2-3.5,0.4c2.4-0.7,5.6-1.4,7.9-1.3c0,0,0,0,0,0c1.3,0,2.7,0,4.1,0.2
	c0,0,0.1-0.1,0.1-0.1c0,0,0,0.1,0,0.1c1.1,0.1,2.3,0.2,3.4,0.4c-0.1-0.1,0-0.1,0-0.2c0.2,0.1,0.3,0.2,0.3,0.2
	c10.6,1.4,22.6,4.7,35.7,1.1c-0.5,6.4,8.6,3,18.7,7.5c0-0.1,0-0.2-0.1-0.2c0.3,0.1,0.4,0.1,0.3,0.3c3.8,1.7,7.8,4.6,11.4,9.5
	c-5.2-11.4-14.1-16.5-25.5-18.7c9.9-2.9,21.5,0.8,30,2.5c0,0-0.1,0-0.1-0.1c0-0.2,0.2-0.4,0.4-0.4c0.4-0.1,0.4-0.6,0.7-0.8
	c-0.3-0.1-0.6-0.3-0.9-0.4v0.6c-0.3-0.2-0.1-0.4,0-0.6c-2.1-0.8-4.5-1.6-7.2-2.2c0.1,0.2,0.2,0.3,0.1,0.6c-0.2-0.6-0.3-0.6-0.3-0.7
	c-2.6-0.6-5.5-1.2-8.7-1.6c0,0.1-0.1,0.1-0.2,0.2c-0.1-0.1-0.1-0.2-0.1-0.2c-0.6-0.1-1.2-0.2-1.8-0.2c-0.1,0.1-0.2,0.2-0.3,0.4
	c0-0.2-0.1-0.3-0.1-0.4c-2.6-0.3-5.4-0.6-8.3-0.8c-6.5,4.2-15,5.8-24.4,4.9l0,0c0,0.4-0.4,0.3-0.6,0.4c-0.3-0.2-0.5-0.3-0.7-0.4
	c0.1,0,0.1-0.1,0.2-0.1c-0.5-0.1-0.9-0.1-1.4-0.2c0,0.2-0.2,0.5-0.5,0.8c-0.2-0.1-0.6-0.1-0.7-0.4c-0.1,0-0.2,0-0.2,0
	c0.1,0.6,0.5,1.1,0.7,1.8c-0.3,0.1-0.6,0-0.9-0.3c-0.6,0.3-1.1,0.5-1.8-0.1c0-0.2,0.1-0.3,0.2-0.6c0.5,0.4,0.8-0.1,1.3,0.2
	c0.3-0.3-0.1-0.4-0.2-0.7c0.1-0.3,0.2-0.7,0.4-1.1c0,0.1,0.1,0.2,0.1,0.3c0,0,0,0,0,0c0.2-0.1,0.3,0,0.3,0.1
	c0.1-0.4,0.3-0.6,0.4-0.7c0.5,0.1,0.8,0.3,0.7,0.7c0.3,0,0.6,0.1,0.9-0.2c0,0.1,0.1,0.1,0.1,0.2c0.2,0,0.5,0,0.7,0
	c0.2-0.4,0.3-0.7,0.8-1c0.2,0.4,0.8,0.2,1,0.7c0.3-0.1-0.4-0.8,0.3-0.8c0.1,0.2-0.1,0.5,0.2,0.6c0,0-0.1,0.3,0,0.3
	c-0.1,0.1-0.2,0.1-0.2,0.2c0.1,0,0.2,0,0.3,0c0-0.1,0-0.1,0-0.1c0.1,0,0.2,0,0.3,0c0,0,0,0.1,0,0.1c2-0.1,3.9-0.3,5.8-0.6
	c0.1-0.2,0.3-0.3,0.7-0.4c-0.1,0.1-0.1,0.2-0.2,0.3c3.9-0.7,7.8-1.8,11.5-3.5c-5.7,1.6-12,1.8-18.6,1.6c0,0.1,0,0.1,0,0.2
	c-0.1-0.1-0.2-0.1-0.3-0.2C47.5,97.1,35.6,95,25.4,96c-0.4,1.1-1,1.1-1.7,0.2c-0.2,0-0.5,0.1-0.8,0.1c0.1,0.2,0.1,0.1,0,0.4
	c-0.2-0.3-0.2-0.2,0-0.4c-5.3,0.8-10,2.7-13.9,6.2c1.6-2.9,3.5-5.6,5.8-8c0-0.3,0-0.5,0.4-0.6c0,0.1,0,0.1,0,0.1
	c8.8-9.4,22.4-15.2,40-16.5C42,78,30.1,81.9,21,87.7c0.1,0.1,0.2,0.1,0.2,0.2c-0.3,0.4-0.5,0.4-0.7,0.1c-6.8,4.4-11.9,9.7-14.7,15.2
	c0.2,0.1,0,0.3-0.1,0.2c-1.1,2.2-1.8,4.4-2.2,6.6c0.8-15.7,15-25.2,32.9-30.8c-0.5-1.8-0.8-2.3-0.1-5.4c1.8,2.6,1.8,3.2,1.6,5
	c0.8-0.2,1.5-0.4,2.3-0.7c-0.1-0.8,0-1.7,0.4-3.5c0.1,0.2,0.2,0.3,0.3,0.5c0,0,0,0,0,0c0.2,0.1,0.2,0.2,0.4,0.3
	c-0.1,0-0.1,0.1-0.2,0.1c0.6,0.9,0.9,1.6,1.1,2.2c0.9-0.2,1.7-0.4,2.6-0.7c-0.8-2.9-1.2-3-0.4-6.7c2.2,3.2,1.6,3.4,1.4,6.4
	c1-0.2,1.9-0.4,2.9-0.7c-0.2-1-0.2-1.9,0.3-4.1c1.3,1.9,1.6,2.7,1.7,3.6c0.8-0.2,1.7-0.3,2.5-0.5c-0.9-3.6-1.5-3.4-0.6-7.3
	c2.4,3.5,1.5,3.4,1.4,7.2c1.5-0.3,3-0.5,4.5-0.8c1-1.8,1.4-2.1,3.2-3.2c-0.2,0.2-0.5,0.5-0.7,0.9c0.2-0.2,0.4-0.2,0.8-0.1
	c-0.2,0.5-0.4,0.5-1,0.4c0-0.1,0.1-0.1,0.1-0.2c-0.1,0.2-0.3,0.4-0.4,0.6c0,0.2,0,0.3-0.2,0.4c-0.1,0.1-0.2,0.3-0.3,0.4
	c0.2,0.2,0.2,0.1-0.2,0.4c0,0,0,0,0,0c-4.4,7.7,1,14.3,22.9,22.2c-11.9-5.6-17.1-10.3-18.3-14.4C64.1,81.3,64,81,64,80.7
	c0,0,0,0,0.1,0c-0.3-1.7,0.1-3.1,0.8-4.5c-0.1,0.2-0.3,0-0.1-0.1c0.1,0,0.1,0.1,0.1,0.1c1.9-3.5,6.3-6,9.3-7.9
	c-12.7,8.3-6.5,17.1,3.9,22.7c-7.2-5.2-12.7-11.1-3-18.7c1.7-0.2,3.4-0.3,5.1-0.4c-0.1-0.4,0.5-0.3,0.4,0c0.3,0,0.6,0,0.9-0.1
	c-0.7-1.9,0.6-4.4,2.6-5.1c0.9-0.4,2-0.5,3-0.3c-0.1-0.1-0.2-0.1-0.4-0.2v-0.7c-0.3,0-0.7,0.1-0.9,0.1c-0.2-0.6-0.2-0.8,0.4-1.1
	c-0.1-0.4-0.1-0.5-0.1-0.5c0.9,0.2,1.4,0.9,2.2,1.4c0,0.2-0.1,0.3-0.1,0.6c0.3-0.1,0.6-0.1,0.9-0.2c0.1,0.3,0.1,0.6-0.2,0.9
	c-0.1-0.1-0.2-0.3-0.3-0.6c0,0.3,0,0.4-0.1,0.5c-0.5-0.1-0.4-0.5-0.6-0.8c-0.1,0.4-0.1,0.7-0.2,0.8c2.1,0.6,3.1,2.9,2.4,4.9
	c4-0.1,7.5-0.2,10.4-0.1c-0.3,0.2-0.6,0.4-0.9,0.6c0,0,0.1,0,0.1,0c-0.4,1.1-0.2,0.8-0.8,1.1c0.1-0.4,0.2-0.7,0.3-0.8
	c-5.3,3.8-11.5,9.3-18.7,16.6c1.3-1.2,2.6-2.3,3.9-3.4c0,0,0,0,0-0.1l0.1-0.1c0,0,0,0,0.1,0.1c2.9-2.3,5.9-4.4,8.9-6.3
	c0-0.1,0-0.1,0-0.2c0,0.1,0.1,0.1,0.1,0.1c3.1-1.8,6.3-3.5,9.6-4.8c0-0.2,0-0.4,0.1-0.6c0.4-0.2,0.9-0.1,1.3-0.4c0,0.2,0,0.3,0,0.4
	c5.2-2.1,10.8-3.2,16.3-4.3c0,0.1,0,0.1,0,0.1c0.3,0,0.6-0.1,0.9-0.1c0-0.2-0.1-0.4-0.1-0.6c0.4,0.2,0.3,0.1,0.6,0.5c0,0,0,0,0,0
	l4.3-0.6c-1.8,0.4-3.6,0.9-5.2,1.4c0.1,0.1,0.1,0.1,0.2,0.2c0,0,0,0,0,0c0.5-0.1,1-0.3,1.5-0.4c0,0,0,0,0,0c0,0,0.1,0,0.1,0
	c5.4-1.4,10.8-2.3,15.8-2.9c7.9-1,18.3-1.4,18.4-2.1C156.3,63.2,154.9,62.5,152.5,63L152.5,63z M58.9,50.1c0.1,0.2,0.2,0.4,0.2,0.5
	C58.9,50.6,58.8,50.4,58.9,50.1z M58.7,48.9c0.2-0.1,0.2-0.2,0.2-0.2C58.9,49,59,49,58.7,48.9z M59.3,51.8c-0.3-0.1-0.2,0-0.2-0.1
	C59.4,51.7,59.3,51.6,59.3,51.8z M59.3,51.2c-0.3-0.1-0.2,0-0.2-0.2C59.4,51.1,59.4,51.1,59.3,51.2z M59,48.7
	c-0.2-0.2-0.2-0.4,0-0.6c0.3,0.2,0.4,0.5,0.5,0.8C59.4,48.8,58.9,48.7,59,48.7L59,48.7z M59.1,47.6c0.1-0.2,0.3-0.3,0.5-0.2
	C59.4,47.5,59.3,47.6,59.1,47.6z M61.5,49.7c-0.2,0-0.4,0.1-0.5,0.1C61.1,49.5,61.2,49.5,61.5,49.7z M60.8,49.7
	c-0.2,0.3-0.4,0.5-0.8,0.5C60.2,50,60.3,49.6,60.8,49.7z M60.7,47.3c-0.2,0.3-0.5,0.4-0.5-0.1C60.3,47.3,60.5,47.3,60.7,47.3z
	 M60,49c-0.4,0.1-0.4,0.1-0.6-0.1C59.5,48.8,59.6,48.9,60,49z M59.6,46.4c-0.4,0-0.3,0-0.3-0.1C59.7,46.3,59.7,46.2,59.6,46.4z
	 M59.4,45.2c-0.8,0.5-0.8,0-0.9-0.1C58.8,45.1,59.1,45.2,59.4,45.2z M58.5,45.1c-0.2,0-0.3,0-0.3-0.2C58.6,44.7,58.4,45.1,58.5,45.1
	z M57.3,41.4c0,0.3-0.2,0.5-0.5,0.6C57,41.8,57.1,41.6,57.3,41.4z M62.2,45.3c-0.3,0.1-0.3-0.1-0.4-0.3
	C62.3,44.8,62.4,45.3,62.2,45.3z M63.9,46.2c0.2,0.2,0.2,0.1-0.2,0.5C63.3,46.5,63.6,46.1,63.9,46.2z M63.8,49.8h-0.5
	c0-0.2,0-0.4-0.1-0.6C63.7,49.1,63.5,49.7,63.8,49.8L63.8,49.8z M61.3,36.7c-0.2,0-0.4,0.1-0.4-0.3C61.4,36.7,61.4,36.6,61.3,36.7z
	 M61.7,35.5c-0.1-0.1-0.2-0.2-0.3-0.3C61.6,35.1,61.7,35.2,61.7,35.5z M60.8,35.7c0.3,0,0.3,0,0.2,0.2L60.8,35.7
	C60.8,35.8,60.8,35.7,60.8,35.7L60.8,35.7z M61.3,37.3c0.2,0.6-0.2,0.6-0.6,0.7C60.7,37.6,61.1,37.6,61.3,37.3z M60.8,38
	c0.4,0.5,1.1,0,1,0.8c0.3,0.1,0.5,0.1,0.8,0.2c0,0.2-0.1,0.3-0.1,0.4C61.9,39.4,59.6,38.7,60.8,38z M62.1,33.9
	c-0.1-0.2-0.2-0.3-0.3-0.5C62.1,33.5,62.3,33.5,62.1,33.9z M64.1,35.4c-0.3-0.1-0.3,0-0.2-0.2C64.2,35.3,64.1,35.3,64.1,35.4z
	 M66.2,46.3c0.4,0.7,0.4,0.9-0.2,0.9C66.1,47,65.6,46.5,66.2,46.3z M66,40.3c-0.1,0.3,0,0.3-0.2,0.2C65.8,40.2,65.8,40.3,66,40.3z
	 M64.1,33.7c-0.1,0.1-0.3,0-0.4,0c-0.1-0.1,0-0.1-0.5,0.2c-0.1-0.2-0.1-0.4-0.2-0.6c-0.4-0.1-0.3,0.1-0.3-0.8c0.1,0,0.1,0,0.1,0
	C63.1,33.4,64.4,33.3,64.1,33.7L64.1,33.7z M62.9,32c-0.2,0.1-0.4,0.2-0.6,0C62.5,31.7,62.7,31.9,62.9,32z M62.4,32.7
	c-0.2,0.2-0.3,0.2-0.6,0H62.4z M66.6,30.1c0.2,0.2,0.2,0.1,0,0.4C66.5,30.3,66.5,30.4,66.6,30.1z M65.8,30.4c0.1,0,0.2,0.1,0.3,0.1
	C65.9,31,65.5,30.6,65.8,30.4z M65.3,29.4c0.1,0,0.2,0.1,0.2,0.2C65.4,29.8,65.1,29.5,65.3,29.4z M65.3,31.7
	c0.1,0.1,0.1,0.2,0.2,0.2C65.3,32.1,65.1,31.7,65.3,31.7z M73.7,41.7c-0.2-0.1-0.5-0.1-0.6-0.5C73.4,41.4,73.7,41.3,73.7,41.7z
	 M73.6,42C73.6,42,73.6,42.1,73.6,42c-0.4,0.1-0.3,0.1-0.4,0C73.5,41.9,73.4,41.9,73.6,42z M72.8,43.1c0.2-0.2,0.2-0.5,0-0.7
	c0.4-0.2,0.6,0.1,0.9,0.3c-0.1,0.6-0.5,0.9-0.9,1.1c-0.1,0-0.1-0.1-0.1-0.1C72.7,43.5,72.7,43.3,72.8,43.1z M72.5,44.1
	c0.2,0,0.1,0.1,0,0.2c-0.1,0-0.1-0.1-0.2-0.1C72.5,44.2,72.5,44.1,72.5,44.1L72.5,44.1z M69.2,25.9L69.2,25.9
	c0.5,0.2,0.5,0.2,0.4,0.7C69.3,26.5,69.2,26.3,69.2,25.9c-0.1,0-0.2,0-0.5-0.1C69.1,25.7,69.2,25.8,69.2,25.9z M67.4,17.2
	c0.1,0.2,0.1,0.2-0.3,0.3C67,17.3,66.9,17.4,67.4,17.2z M61.9,23.2c-0.1-0.3-0.2-0.2,0.6-0.3C62.4,23.2,62.1,23.2,61.9,23.2z
	 M62,21.5c0.4-0.6,0.4-0.5,0.4-0.5C63.1,21.2,62.6,21.7,62,21.5z M62.7,25.8c-0.1-0.2,0.2-0.2,0.3,0C62.8,25.8,62.7,25.8,62.7,25.8z
	 M64.2,19.3c-0.6,0.2-0.2,0.3-0.5,0.6c-0.2,0.2-0.4,0.4-0.7,0.7c-0.1-0.3-0.2-0.5-0.3-0.9c0.2,0,0.4,0,0.6,0c-0.3-0.4-0.3-0.2,0.2-1
	c-0.1-0.1-0.2-0.1-0.4-0.2c0.4-0.4,0.8-0.8,1.4-1.4c0.2,0.7-0.2,0.9,0.7,1.2C64.6,18.7,65.1,18.9,64.2,19.3z M63.4,17.4
	c0.1-0.1,0.2-0.2,0.4-0.4C63.8,17.4,63.7,17.5,63.4,17.4z M64.6,16.2c-0.2,0.7-0.5,0.9-0.8,0.7c0-0.1,0,0,0.2-0.1
	C64,16.3,64.1,16.1,64.6,16.2z M64.5,14.3c-0.1-0.2-0.2-0.4-0.3-0.6c0.3-0.2,0.4,0,0.6,0.1C64.7,13.9,64.6,14.1,64.5,14.3z
	 M64.8,16.4c0.2,0,0.1-0.1,0.3,0.6C64.8,16.9,64.7,16.7,64.8,16.4z M66.1,20.8c-0.2,0.1-0.3,0-0.3-0.2C66,20.3,66.2,20.7,66.1,20.8z
	 M66.2,21.9c0.2-0.3,0.5,0,0.4,0.4C66.4,22,66.1,22.2,66.2,21.9z M66.4,24.1c0.1-0.3,0.1-0.5,0.2-0.8C67,23.6,67,23.6,66.4,24.1z
	 M66.9,21c0-0.1,0.1-0.2,0.2-0.1c0,0-0.1,0.1-0.1,0.1C66.9,21.1,66.9,21,66.9,21z M68,27.7c-0.1-0.1-0.2-0.3-0.4-0.4
	c0.2-0.1,0.4-0.3,0.7-0.4C68.5,27.4,68.5,27.3,68,27.7L68,27.7z M68.5,24.9c-0.3,0-0.2-0.4-0.2-0.3c0.1,0,0.2,0.1,0.4,0.1
	C68.6,24.8,68.5,24.9,68.5,24.9z M68.1,24.2c0.1,0.3,0.1,0.4,0.1,0.4c-0.2,0.2-0.5,0.4-0.8,0.6c0.1,0.1,0.2,0.1,0.3,0.2
	c-0.2,0.1-0.3,0.3-0.5,0.4c-0.2-0.6-0.3-0.4,0.2-1.1C67.1,24.3,67,24.4,68.1,24.2L68.1,24.2z M67.2,19.7C67.4,20,67,20,66.9,20
	C66.9,19.9,67,19.7,67.2,19.7z M66.9,20.1c-0.2,0.4-0.2,0.5-0.7,0.4C66.3,20.1,66.8,20.1,66.9,20.1z M66.1,19.4
	c0.3-0.4,0.3-0.4,0.6,0c-0.5,0.5-0.1,0.7-1.6-0.4C65.2,18.8,65.3,18.9,66.1,19.4z M65.3,10.9c0.1,0.2,0.2,0.3,0,0.4
	C65.1,11.2,65.1,11.1,65.3,10.9z M65.2,11.5c0.1,0.2,0.1,0.1,0,0.3C65.1,11.6,65.1,11.7,65.2,11.5z M65.8,16c-0.5,0-0.4-0.6-1-0.6
	C65.3,15.1,65.7,15.4,65.8,16z M64.2,13c0.2,0,0.5-0.2,0.7,0.5C64.1,13.1,64.2,13.2,64.2,13z M63.5,9.2c0.2,0.1,0.2,0.2,0,0.4
	C63.4,9.4,63.3,9.3,63.5,9.2z M63.7,14.1c-0.1,0.2-0.2,0.3-0.2,0.3C63.1,14.2,63.1,14.3,63.7,14.1z M64.2,14.2c0,0.2,0,0.4-0.2,0.6
	c0.4,0.3,0.3,0.1,0.1,1.2c-0.4-0.4-0.3-1.1-1-1.1C63.7,14.3,63.4,14.5,64.2,14.2L64.2,14.2z M62.9,10.9c-0.2,0.2-0.3,0.3-0.4,0.5
	c0-0.2,0-0.4,0-0.6C62.6,10.9,62.7,10.9,62.9,10.9L62.9,10.9z M63,13.6c-0.2,0.2-0.3,0.4-0.5,0.6c-0.1-0.2-0.2-0.3-0.3-0.5
	C62.6,14,62.7,13.3,63,13.6z M62.2,20.7c0.1-0.1,0.4,0.2,0.1,0.4C62.2,21,62.1,21,62.2,20.7z M61.6,5.6c-0.2,0.2-0.4,0.1-0.4-0.3
	C61.4,5.5,61.5,5.5,61.6,5.6z M61.4,6.3c0.3,0.3,0.2,0.2,0.1,0.4C61.2,6.4,61.2,6.5,61.4,6.3z M61.4,6.9c0.7,0,0.7,0,0.8,0.8h-0.9
	C61.2,7.4,61.3,7.2,61.4,6.9z M60.9,13.7c0.4-0.1,0.4-0.4,0.5-0.7C62,13.2,61.7,14.2,60.9,13.7z M61.5,22.4c0-0.1-0.1-0.2-0.1-0.3
	C61.6,22,61.6,22.4,61.5,22.4z M61,11c0.1,0.1,0.2,0.2,0.3,0.3C61.1,11.6,60.9,11.4,61,11z M60.9,8.4c0,0.4,0,0.3-0.1,0.3
	C60.8,8.3,60.7,8.4,60.9,8.4z M61.1,14.2c0,0.3-0.2,0.4-0.5,0.4C60.8,14.5,60.9,14.4,61.1,14.2z M61.1,23c0.1,0.1,0.2,0.2,0.4,0.3
	c-0.2,0.2-0.3,0.4,0,0.6c0.2-0.2,0.5-0.4,0.7-0.6c0.5,1.7-1,1.4-1.8,0.4C60.7,23.4,60.9,23.2,61.1,23z M59.9,12.8
	c0-0.1,0-0.3-0.1-0.4C60,12.4,60.1,12.6,59.9,12.8z M59.8,5.5c-0.3,0.4,0.3,0.8-0.1,1.2c-0.4-0.3-0.5-0.7-0.7-1.2
	C59.3,5.4,59.5,5.5,59.8,5.5z M59,6.6c0.5-0.1,0.5,0.4,1,0.5c-0.1,0.3-0.2,0.5-0.4,0.9c-0.2-0.4,0.1-0.8-0.4-0.9
	C58.9,7,58.8,6.9,59,6.6L59,6.6z M58.3,5.6c0,0.2-0.1,0.3-0.1,0.5C58,5.8,58,5.7,58.3,5.6z M58.6,6.4c-0.2,0.3-0.3,0.4-0.7,0.3
	C58.2,6.2,58.1,6.2,58.6,6.4z M57.1,5c-0.1,0.1-0.2,0.2-0.3,0.5c-0.1-0.3-0.1-0.4-0.1-0.6C56.8,4.9,56.9,4.9,57.1,5z M54.9,7.7
	c0.2-0.2,0.1-0.2,0.4,0C55,7.9,55.1,7.9,54.9,7.7z M32.1,58.3c-0.3-0.3,0-0.3,0.3-0.5C32.4,58.2,32.4,58.3,32.1,58.3L32.1,58.3z
	 M32.3,57.1c0.2,0.5,0.3,0.4-0.2,0.6C32,57.6,32,57.7,32.3,57.1z M32.6,59.5c0-0.2,0-0.4,0-0.7c0.1,0.2,0.2,0.3,0.4,0.5
	C32.8,59.4,32.7,59.4,32.6,59.5z M33.2,55.3c0.1-0.1,0.2-0.1,0.4-0.2c0,0.2,0.1,0.3,0.1,0.5c-0.3,0.1-0.6,0.2-1,0.3
	c0-0.7-0.9-1-0.6-1.8c1.3-0.2,0.9-0.2,1.5,0c0,0.6-0.7,0.3-0.9,0.7C32.9,55,33.1,55.1,33.2,55.3L33.2,55.3z M33.2,56.8
	c-0.1-0.1-0.1-0.1,0-0.2C33.4,56.7,33.4,56.7,33.2,56.8z M33.7,56.9c0.1,0,0.2,0,0.4,0C34.1,57.1,33.6,57.2,33.7,56.9L33.7,56.9z
	 M35,59.2c0.2,0.1,0.1,0,0.2,0.6c-0.2,0-0.4,0-0.7,0.1c0-0.1,0.1-0.2,0.1-0.3C34.9,59.8,35,59.5,35,59.2z M34.8,57.7
	c0.5,0.2,0.4,0.8,0.3,1.1C34.9,58.8,34.9,59,34.8,57.7L34.8,57.7z M35.2,61.5c-0.6-0.2-0.1-0.7,0.3-0.2
	C35.4,61.4,35.3,61.5,35.2,61.5L35.2,61.5z M44.5,53.9c-0.2-0.2-0.2-0.2,0-0.3C44.7,53.8,44.7,53.7,44.5,53.9z M46.5,56.2
	c-0.2-0.3-0.2-0.4,0.1-0.5C46.6,55.8,46.6,55.9,46.5,56.2z M48.7,32.5c0.3-0.2,0.7-0.4,1-0.7C49.8,32.6,49.5,32.8,48.7,32.5z
	 M49.7,35c0.1-0.3,0.1-0.3,0.2-0.2C49.8,35.1,49.8,35.1,49.7,35z M50.4,48.5c0.2-0.2,0.3-0.3,0.4,0C50.7,48.5,50.6,48.5,50.4,48.5z
	 M50.3,36.7c0.2,0.1,0.5,0.1,0.5,0.5C50.5,37.2,50.5,36.9,50.3,36.7z M50.6,31.3c0.1-0.5,0-0.4,0.2-0.4
	C50.7,31.4,50.7,31.3,50.6,31.3z M51.1,46.4c0-0.3,0.1-0.2,0.4-0.1C51.3,46.4,51.2,46.4,51.1,46.4z M51.9,47
	c-0.2,0.3-0.1,0.2-0.4,0.1C51.7,46.8,51.6,46.9,51.9,47z M52,51.1c-0.2-0.3-0.2-0.2-0.1-0.3C52.1,51,52.1,51,52,51.1z M51.4,47.7
	c0,0,0.1-0.1,0.2-0.1c0.5,0.4,0.2,1,0.5,1.4C51.4,49.1,51.4,48.9,51.4,47.7L51.4,47.7z M52.1,45.3c-0.2-0.1-0.1-0.1,0-0.2
	C52.3,45.2,52.3,45.1,52.1,45.3z M52,28.6c0.2-0.1,0.3-0.2,0.4-0.2C52.4,28.7,52.3,28.8,52,28.6z M52.5,31.4c-0.4,0-0.2-0.4-0.3-0.6
	C53,30.6,52.8,31.4,52.5,31.4z M56.6,51c0.2-0.2,0-0.2,0.5,0C56.8,51.3,57,51.3,56.6,51z M56.4,50c-0.1-0.1-0.2-0.3-0.3-0.6
	C57.4,49.7,57.5,49.6,56.4,50z M55.9,51.4c0.1,0.1,0.2-0.1-0.2,1.1c-0.3-0.6-0.2-0.5-0.7-0.5C55.1,51.4,55.7,51.8,55.9,51.4z
	 M53.5,51.7c-0.1,0.1-0.2,0.1-0.4,0.2C53.2,51.8,53.3,51.7,53.5,51.7z M54.2,26c-0.5,0.2-0.4,0.1-0.5,0.9c-2-0.2-1.8,0-1.6-0.9
	c0.3,0.2,0.6,0.4,0.8,0.5c0.6-0.2-0.1-0.8,0.3-0.9C53.6,25.7,53.8,25.8,54.2,26L54.2,26z M53.3,24.8c-0.2,0-0.3,0.1-0.6,0.1
	c0.2-0.3,0.3-0.4,0.4-0.6C53.2,24.5,53.2,24.6,53.3,24.8L53.3,24.8z M51.7,22.8c0.1,0.5,0.5,0.7,1,0.9
	C52.3,24.4,50.8,22.8,51.7,22.8z M51.5,28.1c-0.4,0.5-0.3,0.5-0.5,0.4c0-0.2,0-0.4,0.1-0.7C51.3,27.9,51.4,28,51.5,28.1L51.5,28.1z
	 M51,24.3c0.1,0.1,0.2,0.2,0.3,0.4C51,24.7,50.9,24.6,51,24.3z M50.1,22.5c-0.1,0.1-0.2,0.2-0.3,0.3C49.8,22.6,49.9,22.5,50.1,22.5z
	 M48.9,30.4c0.7,0.4,0.1-0.1,2.4-1.8c-0.1,0.6-0.3,1.2-0.7,1.6c-0.9,0.1-0.8,0.1-0.8,0.3c0.1,0,0.2,0,0.3,0.1c0,0.2-0.4,0.2-0.2,0.5
	c0.1,0.1,0,0.4-0.1,0.6c-0.7-0.3-0.6,0.4-1.1,0.6C48.3,31.5,48.8,31,48.9,30.4L48.9,30.4z M48.7,36.8c-0.1,1-1.3,0.6-1.4-0.2
	C47.3,35.6,48.7,35.6,48.7,36.8L48.7,36.8z M47.4,51.9c-0.2,0.1-0.3,0.2-0.5,0.3c0.2-0.3,0.1-0.7,0.3-1.1
	C47.2,51.4,47.3,51.6,47.4,51.9L47.4,51.9z M47.1,46.8c-0.3-0.1-0.2-0.3-0.1-0.3C47.2,46.5,47.3,46.6,47.1,46.8z M47,46.4l-0.5-0.1
	C47,46,46.9,46.5,47,46.4z M46.8,49.7c-0.2,0.2-0.1,0.2-0.3,0.1C46.6,49.7,46.5,49.7,46.8,49.7z M47.1,53.8
	c-0.2,0.1-0.3,0.2-0.5,0.3c-0.3-0.2-0.1-0.4-0.2-0.7C47.1,53.6,47,53.6,47.1,53.8z M46.4,53.5c-0.5,0.3-0.4,0.3-0.5,0.1
	C46,53.4,46.1,53.3,46.4,53.5z M45.8,53.5c0.2,0.3,0.2,0.5-0.1,0.7C45.5,54,45.6,53.8,45.8,53.5z M45.1,54.1c0.1,0,0.1,0.1,0.2,0.1
	C45.1,54.5,44.8,54.3,45.1,54.1L45.1,54.1z M44.6,51.6L44.6,51.6c0.1,0.1,0.1,0.2,0.1,0.4c-0.1,0-0.1,0-0.2-0.1
	C44.6,51.8,44.6,51.7,44.6,51.6L44.6,51.6z M44.7,52.8c-0.1,0.1-0.2,0.2-0.3,0.3c-0.2-0.2-0.4-0.4-0.5-0.6
	C44,52.5,44.3,52.6,44.7,52.8L44.7,52.8z M42.1,40.5c-0.3,0.1-0.2,0.1-0.3,0C42,40.3,41.9,40.4,42.1,40.5z M40.5,39.4
	c0,0.2,0.1,0.2-0.3,0.2C40.2,39.5,40.1,39.5,40.5,39.4z M39.7,53.5c0.1,0.3-0.2,0.4-0.2,0.3C39.5,53.7,39.4,53.5,39.7,53.5z
	 M39.5,53.8c-0.1,0.5,0,0.4-0.2,0.3C39.5,53.8,39.4,53.8,39.5,53.8z M38.9,51c0.5,0.1,0.4,0,0.3,0.2C38.8,51.1,38.9,51.1,38.9,51z
	 M37.6,59.2c-0.4-0.1-0.5-0.1-0.5-0.1c0.5-0.9,0.3-0.8,0.8-0.8C37.8,58.6,37.7,58.9,37.6,59.2z M37.4,54.1c0.1,0.1,0.2,0.2,0.1,0.3
	C37.2,54.2,37.3,54.2,37.4,54.1z M37.8,50.2h-0.7C37.4,49.7,37.5,49.7,37.8,50.2z M37.4,52.7c-0.1,0.4-0.2,0.4-0.4,0.3
	C36.9,52.8,36.8,52.9,37.4,52.7z M37.1,53.4c-0.6,0.2-0.5,0.3-0.5,0.1C37.1,53.3,37,53.3,37.1,53.4z M36.8,54.5
	c-0.2,0.2-0.1,0.2-0.3,0C36.6,54.4,36.5,54.3,36.8,54.5z M37.1,59.1c0.2,0.2,0.2,0.5-0.1,0.7c-0.2,0-0.2-0.4-0.5-0.3
	C36,58.9,37.2,59.1,37.1,59.1L37.1,59.1z M35.5,50.8c0.1-0.1,0.2-0.2,0.3-0.3c0.3,0.3-0.1,0.5-0.1,0.7l0,0l0,0
	c0.5-0.2,0.3-0.2,0.6,0c-0.3,0.3-0.2,0.3-0.6,0c0,0,0,0,0,0C34.8,51.1,35.1,51.2,35.5,50.8z M34.9,57.4c0.1-0.1,0.1-0.2,0.2-0.4
	C35.2,57.2,35.2,57.3,34.9,57.4z M35,55.5c0,0.3-0.2,0.3-0.4,0.4C34.4,55.7,34.8,55.1,35,55.5z M34.6,52.1c0,0,0.1,0.1,0.2,0.2
	c-0.1,0-0.2,0.1-0.2,0.1C34.5,52.3,34.4,52.1,34.6,52.1z M34,47.9c0.1,0.1,0.1,0.1-0.1,0.2C33.9,48,33.9,48,34,47.9z M34.2,54.2
	c-0.2-0.1-0.4-0.2-0.2-0.5C34,53.5,34.6,53.7,34.2,54.2z M33.8,51.7c0.2,0.1-0.1,0.3-0.2,0.3C33.6,51.9,33.6,51.9,33.8,51.7z
	 M33.6,52.3c-0.2-0.2-0.2-0.2,0-0.3C33.6,52,33.6,52.1,33.6,52.3z M33,50.2c0.2,0,0.4,0,0.6,0C33.3,50.5,33.2,50.4,33,50.2z
	 M32.7,49.1c0.2,0,0.3,0,0.5,0C32.9,49.6,32.6,49.6,32.7,49.1z M33.3,51.9c-0.2,0.3-0.2,0.2-0.8,0C33,51.4,33.3,51.8,33.3,51.9z
	 M32.4,51.9C32.3,53.5,31,51.6,32.4,51.9L32.4,51.9z M32,52.8c0,0.2,0.1,0.2-0.5,0.1C31.8,52.6,31.9,52.7,32,52.8z M31.7,55.4
	c-0.2,0.2-0.1,0.2-0.3,0C31.6,55.2,31.5,55.3,31.7,55.4z M31.5,53.6c0.1,0.4,0.1,0.7,0,0.9C31.4,54.2,31.1,53.9,31.5,53.6z
	 M32.5,56.2c-1.4,0.4-0.5,2.1-2,1.6C31.4,57.5,30.9,56.1,32.5,56.2z M21.4,177.2c0.2,0.2,0.2,0.1,0,0.3
	C21.3,177.2,21.3,177.3,21.4,177.2z M35.5,113.8c0.2,0.2,0.1,0.4,0,0.7C35.3,114.2,35.2,114,35.5,113.8z M35.5,115.5
	c-0.2-0.1-0.3-0.1-0.5-0.1C35.3,114.6,35.2,114.6,35.5,115.5z M34.5,113.7c0,0.5,0.1,0.9-0.4,1.1C33.7,114.2,33.8,113.8,34.5,113.7z
	 M31,119c0.8-0.3,0.5,1-0.1,0.1C30.9,119,30.9,119,31,119z M10.7,144.4c-0.4-0.1-0.4-0.1-0.5-0.6C10.6,143.9,10.8,144.1,10.7,144.4z
	 M11.2,151.7C10.7,151.4,11.5,151.2,11.2,151.7L11.2,151.7z M11.5,149.2c-0.1-0.4-0.1-0.3,0.1-0.3l0,0.3
	C11.6,149.2,11.5,149.2,11.5,149.2z M11.2,144.5c0.3-0.2,0.6-0.1,0.7,0.2C11.6,144.7,11.4,144.6,11.2,144.5z M11.9,145.4
	c-0.1,0.4,0,0.3-0.2,0.4C11.6,145.6,11.7,145.5,11.9,145.4z M11.9,158.3c-0.1-0.2-0.1-0.4-0.1-0.6C12,157.7,12.1,157.9,11.9,158.3z
	 M12.6,155c-0.1-0.1-0.1-0.1-0.1-0.1c0.1-0.1,0.1-0.1,0.1-0.1C12.8,154.8,12.6,154.9,12.6,155z M12.6,144.8
	c-0.1-0.2,0.1-0.3,0.3-0.2c0,0.2,0.1,0.3,0.1,0.6C12.8,145.1,12.6,145,12.6,144.8L12.6,144.8z M13.3,142.2c0.2-0.2,0.3-0.3,0.4-0.4
	l0,0h0c-0.4,0-0.5-0.3-0.6-0.6c0.8,0.2,0.5,0.6,0.6,0.6c0.2,0.4,0.2,0.5,0.2,0.5C13.8,142.3,13.6,142.3,13.3,142.2L13.3,142.2z
	 M13.2,143.7c0-0.2,0-0.3,0-0.5C13.6,143.5,13.6,143.4,13.2,143.7z M14.6,142.3c-0.4,0.4-0.6,0-0.6,0.1
	C14.1,142.3,14.3,142.3,14.6,142.3z M14.7,144.4c-0.1,0.3-0.4,0.1-0.2-0.2C14.6,144.4,14.7,144.4,14.7,144.4L14.7,144.4z
	 M14.3,141.3c0,0.2-0.1,0.2-0.4,0.2C14.1,141.3,14.1,141.3,14.3,141.3c-0.7-0.2-0.4-0.5-0.9-0.6c0.1-0.2,0.3-0.4,0.5-0.7
	c0.3,0.4,0.6,0.9,0.9,1.3C14.6,141.6,14.4,141.3,14.3,141.3L14.3,141.3z M14.3,131.8c-0.6,0.1-0.3,0.7-0.7,1
	c-0.1-0.7-0.4-0.9,0.4-1.4C14.4,131,14.5,131.7,14.3,131.8L14.3,131.8z M13.7,133c0.1,0.2,0.1,0.1-0.2,0.3
	C13.5,133.1,13.4,133.2,13.7,133z M13.5,134.9c0,0,0.1,0.1,0.1,0.1c-0.1,0.1-0.1,0.1-0.2,0.1C13.4,135,13.3,135,13.5,134.9z
	 M13.4,137.1c-0.2,0.3-0.2,0.3-0.3,0.2C13.3,136.9,13.2,136.9,13.4,137.1z M13.5,144.8c0.1,0.1,0.3,0.1,0.4,0.2
	C13.6,145.1,13.5,145.1,13.5,144.8z M13.1,144.5c0.1-0.2,0.3-0.5,0.5-0.8c0.1,0.2,0.1,0.4,0.2,0.6C13.6,144.6,13.3,144.7,13.1,144.5
	L13.1,144.5z M13.5,143.4C13.5,143.4,13.5,143.4,13.5,143.4c0.1-0.4,0.3-0.5,0.6-0.5l0,0l0,0l0,0l0,0c0,0,0.1,0,0.4,0.1
	C14.2,143.5,14.5,143.5,13.5,143.4L13.5,143.4z M14.7,145.6c-0.2,0-0.1,0.1-0.4-0.3C14.7,145.2,14.8,145.3,14.7,145.6z M14.8,145.1
	c-0.4-0.1-0.4,0-0.2-0.4C14.9,145.1,14.9,145,14.8,145.1z M15.2,154.6l-0.1-0.1c0.2-0.2,0.2-0.2,0.4,0
	C15.4,154.5,15.3,154.5,15.2,154.6z M16,152.9c-0.2-0.2-0.2-0.1,0-0.5C16.3,152.7,16.3,152.6,16,152.9z M15.2,148
	c1.4-1.9,0-0.2,1.1,0C15.8,148.5,15.7,147.9,15.2,148z M15.7,138c0.1,0.4,0.1,0.2,0.1,0.6C15.4,138.1,15.4,138.2,15.7,138z
	 M16.8,148c0.1-0.2,0.2-0.3,0.3-0.5c0.1,0.2,0.3,0.3,0.5,0.5H16.8z M17.6,129.9c0,0.3,0,0.5-0.1,0.7c-0.2-0.1-0.1,0.1-0.5-0.5
	C17.2,130,17.4,130,17.6,129.9z M17,128.6c0-0.2,0.1-0.3,0.1-0.5c0.5-0.1,0.4,0.4,0.5,0.6C17.5,128.6,17.3,128.6,17,128.6L17,128.6z
	 M17.4,143c0-0.7,0-0.6,0.2-0.7c0.1,0.1,0.2,0.3,0.3,0.5C17.7,142.8,17.6,142.9,17.4,143L17.4,143z M17.9,153.2
	c0.1,0,0.2-0.1,0.4-0.1c0.1,0.7,0.1,0.7-0.3,1.1C18,153.5,18,153.7,17.9,153.2L17.9,153.2z M19,152.4c-0.1,0.4-0.4,0.5-0.7,0.2
	C18.5,152.5,18.7,152.5,19,152.4z M18.7,147.6c0.4-0.1,0.5,0.1,0.3,0.6C18.9,148,18.8,147.8,18.7,147.6z M19.4,176.3
	c0,0.1,0.1,0.2,0.1,0.2C19.3,176.4,19.4,176.5,19.4,176.3z M19.6,154.6c0.3,0.1,0.7-0.2,0.9,0.3C20.1,154.9,19.8,155,19.6,154.6z
	 M19.8,151.4c0.1,0.2,0.2,0.4,0.4,0.7C19.9,152,19.8,151.8,19.8,151.4z M20.8,148c-0.3-0.8-0.3-0.6-0.2-0.7
	C20.9,147.4,21.1,147.6,20.8,148z M20.1,144.5c0-0.2,0.1-0.3,0.1-0.5c0.2,0.1,0.4,0.1,0.5,0.2C20.6,144.5,20.4,144.5,20.1,144.5
	L20.1,144.5z M20.3,142.1c-0.3,0.2-0.5,0.2-0.6-0.1C19.9,142,20.1,142,20.3,142.1z M19.5,143.3c0,0.3,0,0.2-0.1,0.3
	C19.4,143.2,19.4,143.3,19.5,143.3z M20.3,145.9c-0.5,0.3-0.1,0.6-0.3,1c-0.6-0.4-0.5-0.2-0.6-0.9C19.6,145.9,19.9,145.9,20.3,145.9
	z M19.5,156.7c-0.4-0.2-0.2-0.2-0.4-0.3c-0.2,0.1-0.3,0.4-0.5,0.1c0.2-0.6,0.2-0.8,0.2-0.8l0,0c-0.2,0.3-0.5,0.2-0.7,0.1
	c-0.2-0.4,0-0.6,0.2-0.8c-0.2-0.6-0.2-0.5,0-0.6c0.8,0.7,0.7,0.4,0.6,1.3c0,0,0,0,0,0l0,0c0.2,0,0.3,0,0.5,0
	C19.7,156.6,19.7,156.3,19.5,156.7z M19.1,143.8c0.6,0.2,0.4,1.4-0.6,0.5c0.1,0,0.2-0.1,0.4-0.1c-0.1-0.3-0.6-0.1-0.5-0.6
	C18.6,143.6,18.8,143.7,19.1,143.8L19.1,143.8z M18.2,133.2L18.2,133.2c-0.2,0.3-0.2,0.3-0.5,0.1c1,0.1,0.3-0.7,0.9-0.1
	C18.4,133.3,18.5,133.2,18.2,133.2L18.2,133.2z M18,131.8c0.2-0.2,0.4-0.2,0.6,0.1C18.4,131.9,18.2,131.9,18,131.8z M18.7,131.3
	c0-0.1,0.1-0.2,0.1-0.5c0.2,0.2,0.2,0.3,0.3,0.5C18.9,131.4,18.8,131.4,18.7,131.3L18.7,131.3z M18.8,129.7c0.1,0.2,0.1,0.3,0.2,0.5
	C18.6,130.1,18.6,130,18.8,129.7z M20.4,132.4c-0.3,0.3,0.5,0.7-0.9,0.1c0-0.9,0.7-0.1,0.9-0.8c-1.3-0.4-1-0.2-1.2-0.8
	c0.3-0.2,0.3,0.1,0.4,0.2c0.1,0,0.3-0.1,0.4-0.1C20.6,131.3,20.9,131.8,20.4,132.4L20.4,132.4z M20.5,128.8
	c-0.3-0.1-0.4-0.2-0.4-0.8c-0.3,0.2-0.2,0.2-0.4,0.1c0-0.2,0.6,0,1-0.1C21.5,128,21.1,128.9,20.5,128.8z M20.3,124
	c0.2,0.8,0.1,1-0.5,0.8C20,124.5,19.9,124.1,20.3,124z M20,122.9c0.6,0.1,0.5,0,0.5,0.2C19.9,123,19.9,123.1,20,122.9z M20.6,123.7
	c0.2,0.1,0.1,0,0.2,0.3c0,0,0,0-0.1,0.1C20.5,123.8,20.6,123.8,20.6,123.7z M22.2,127.8c0,0-0.1-0.1-0.2-0.1
	c0.1-0.1,0.1-0.2,0.2-0.4C22.5,127.6,22.4,127.7,22.2,127.8z M24.4,126.5c0-0.5,0.3-0.6,0.8-0.7c0,0.2,0.1,0.4,0.1,0.7H24.4
	L24.4,126.5z M26.6,122.3c-0.3-0.1-0.3-0.1-0.2-0.2C26.5,122.1,26.6,122.2,26.6,122.3C26.7,122.2,26.6,122.3,26.6,122.3L26.6,122.3z
	 M28.4,118.6c0.2,0.3-0.1,0.5-0.4,0.3C28.2,118.8,28.3,118.7,28.4,118.6z M27.8,117.6c0,0.3,0.1,0.5,0.1,0.8
	c-0.2-0.2-0.4-0.2-0.6-0.4C27.5,117.9,27.6,117.8,27.8,117.6z M27.2,116.6c0,0.4-0.3,0.6-0.8,0.7c0.2-0.4,0.3-0.7,0.5-1.1
	C27,116.4,27.2,116.5,27.2,116.6L27.2,116.6z M26.1,113.6c0.1,0.1,0.1,0.1,0,0.2c0-0.1-0.1-0.1-0.1-0.1
	C26,113.7,26.1,113.6,26.1,113.6L26.1,113.6z M26.4,116.4c-0.3,0.1-0.3,0.5-0.8,0.4C25.9,116.4,26.1,116.3,26.4,116.4z M25.9,119.3
	c-0.3,0.3-0.5,0.3-0.6-0.1C25.5,119.3,25.6,119.3,25.9,119.3z M24.9,120.4L24.9,120.4L24.9,120.4L24.9,120.4c0,0,0.1,0,0.5-0.2
	C25.2,120.6,25.2,120.6,24.9,120.4L24.9,120.4L24.9,120.4c0,0-0.1,0.1-0.4,0.3c-0.1-0.1-0.1-0.2-0.2-0.4
	C24.6,120.2,24.8,120.2,24.9,120.4L24.9,120.4z M23.9,125.8c-0.4,0.2-0.5,0.1-0.5-0.2C23.5,125.6,23.7,125.6,23.9,125.8z
	 M23.2,127.3c-0.4,0.2-0.5-0.1-0.6-0.3C22.9,126.9,23.1,127,23.2,127.3z M21.3,122.3c0.4-0.2,0.9-0.1,1.3-0.4c0.1,1-0.4,0.8-0.8,0.8
	c-0.1,0.6,0,0.4-0.6,0.6C21.3,123,21.3,122.7,21.3,122.3z M22.1,124.2c-0.4,0.4-0.8,0.2-1.1,0.1C21.3,124.1,21.7,123.9,22.1,124.2z
	 M20.4,120c0.1,0.3,0.1,0.2,0,0.3C20.3,120,20.3,120,20.4,120z M20,120.7c0-0.4,0.9,0.6,1,1.8c-2.3,0.6,0.2-0.2-1.3-1
	C20.1,121.4,20,121.5,20,120.7L20,120.7z M19.4,121.2c0.3,0.2,0.4,0.3,0.4,0.3c-0.2,0-0.4,0-0.8,0.1
	C19.2,121.4,19.3,121.3,19.4,121.2L19.4,121.2z M19.2,125.1c-0.2-0.1-0.6-0.1-0.5-0.5C18.9,124.7,19.4,124.5,19.2,125.1z M18.4,118
	c0.2,0,0.3,0.1,0.4,0.4c-0.2-0.1-0.3-0.2-0.5-0.3C18.3,118,18.4,118,18.4,118z M18.2,125.8c-0.3-0.1-0.4-0.3-0.3-0.7
	C18.1,125.3,18.3,125.5,18.2,125.8z M17.6,120.4c0.3,0,0.3,0,0.3,0.2C17.6,120.6,17.6,120.6,17.6,120.4z M17.8,120.6
	c-0.4,1.1-0.2,0.8-0.8,1.1C17.5,120.4,17.3,120.7,17.8,120.6z M17.1,119c0-0.1-0.1-0.2-0.1-0.3C17.2,118.6,17.2,118.7,17.1,119z
	 M17.1,122.4c0.3,0.4,0.2,0.9,0,1.4c-0.2-0.2-0.4-0.3-0.6-0.5C16.7,123,16.9,122.7,17.1,122.4z M16,146.3c0.2,0,0.3-0.1,0.5-0.1
	C16.3,146.3,16.2,146.4,16,146.3z M16,143.9c0.1,0.2,0.1,0.3,0.1,0.5C15.9,144.3,15.8,144.1,16,143.9z M13.3,126.2
	c0,0.2,0.1,0.2-0.4,0.2C12.9,126.1,12.8,126.2,13.3,126.2z M13.2,129.4c0.4,0.4,0.8,0.5,1.3,0.2c0-0.2,0.1-0.4,0.1-0.6
	c0.2,0.1,0.4,0.1,0.6,0.1l0,0l0,0c0,0,0,0,0.2-0.1c0.1,0.3,0.2,0.6,0.4,0.9c-0.4-0.1-0.6,0-0.9-0.2c-0.3,0.6-0.8,0.5-0.9,0.5
	c-0.4,0.4-0.8,0.1-1.2-0.1C13,129.8,13.1,129.6,13.2,129.4L13.2,129.4z M12.8,139.2L12.8,139.2c0.3,0.1,0.3,0.3,0.2,0.5
	C12.6,139.6,12.8,139.1,12.8,139.2L12.8,139.2c-0.3,0.3-0.6-0.1-0.8-0.1l0,0l0,0l0,0c0,0.6,0.1,0.6-0.3,0.2c0.2-0.2,0.3-0.2,0.3-0.2
	l0,0c0.1-0.7-1.1-0.4-0.8-1C11.3,137.6,12.2,138.1,12.8,139.2L12.8,139.2L12.8,139.2z M11.5,140.2c-0.1,0.1-0.2,0.2-0.4,0.3
	C11.1,140.1,11.2,140.1,11.5,140.2z M11.7,132.9c0.1-0.3,0-0.3,0.3-0.2C11.7,133,11.8,132.9,11.7,132.9z M12.6,125.5
	c0,0.2,0.1,0.4,0.1,0.8C12.4,126,12.3,125.8,12.6,125.5z M12,133.8c0.2-0.1,0.1-0.1,0.2,0.2C12.1,134.1,12.2,134.1,12,133.8z
	 M11.7,127.3c0.1,0.2,0.2,0.1-0.1,0.4c0.2,0.3,0.7,0.2,0.6,0.7c-0.1-0.3-0.7-0.2-0.6-0.7C11.5,127.5,11.5,127.6,11.7,127.3
	L11.7,127.3z M11.4,131.4c0.1,0.2,0.2,0.3,0.3,0.5C11.5,132.3,11.1,131.7,11.4,131.4L11.4,131.4z M11.6,133.1
	c-0.2,0.2-0.3,0.3-0.5,0.5C11.1,133.2,11.2,133,11.6,133.1z M11.2,136.6c0-0.4,0-0.3,0.2-0.4C11.6,136.4,11.4,136.5,11.2,136.6z
	 M11,137c0.2-0.1,0.4-0.1,0.5,0.2c-0.2,0.1-0.4,0.1-0.5,0.2C10.8,137.3,10.9,137.1,11,137z M11.4,141.3c0.2,0,0.3,0,0.5,0
	c0.1,0.3,0.1,0.6,0.1,0.9c0.6-0.2,0.8,0,1.1,0.6c-0.4,0.4-1.5,1.5-2.1,0.7c0.2,0,0.4-0.3,0.7,0c0.7-0.2,0.1-0.6-0.8-0.5
	c0-0.3,0.2-0.4,0.4-0.4v-0.3c-0.4,0-0.6,0.2-0.9,0.5c-0.3,0-0.5,0.1-0.8,0.1c0.2-0.7,1-1.1,0.1-1.6
	C11.5,140.6,11.6,142.4,11.4,141.3L11.4,141.3z M10.4,133c0.1,0.1,0.1,0.2-0.1,0.3C10.4,133.2,10.4,133.1,10.4,133z M10.5,135.6
	c0.1,0.2,0.2,0.3,0.4,0.6c-0.2,0.1-0.3,0.1-0.4,0.1C10.3,136.1,10.3,135.9,10.5,135.6z M27.9,101.5c-0.3,0.2-0.2-0.1-0.3-0.2
	C27.7,101.3,27.8,101.4,27.9,101.5z M24.5,105.6c0.5,0.3,0.5,0.2,0.4,0.4C24.3,105.7,24.4,105.8,24.5,105.6z M24.2,104.9
	c0.2,0.4,0.2,0.3,0,0.4C24.1,105.1,24.1,105.2,24.2,104.9z M23.2,106.4c0.4,0,0.3,0,0.3,0.1C23.1,106.6,23.2,106.6,23.2,106.4z
	 M94,106.1c0.2,0,0,0.1,0,0.3c-0.1-0.1-0.1-0.1-0.2-0.1C93.9,106.2,93.9,106.2,94,106.1z M100.4,99.6c-0.1-0.2-0.2-0.4-0.3-0.6
	C100.5,99,100.6,99.1,100.4,99.6z M98.5,98.9c0.2,0.2,0.3,0.3,0.5,0.5h-0.8C98.3,99.3,98.4,99.1,98.5,98.9z M97.8,99.5
	c-0.5,0.4-0.7-0.2-1.1,0C98,97.6,96.6,99.3,97.8,99.5z M85.4,98.2c-0.3,0.1-0.2,0.1-0.3,0C85.4,98.1,85.4,98.1,85.4,98.2z
	 M79.2,105.7c0.1,0.1,0.1,0.1,0,0.2C79.1,105.9,79.1,105.7,79.2,105.7z M59.9,102.1c-0.3,0.2-0.2,0.2-0.4,0
	C59.8,101.8,59.7,101.9,59.9,102.1z M57.4,97.9c0.2,0.1,0.2,0.2,0.4,0.3c-0.2,0.1-0.3,0.1-0.6,0.2C57.3,98.2,57.4,98.1,57.4,97.9z
	 M57.4,98.8c0.9,0.4,0.1,1.2-0.8,0.9C56.9,99.4,57.1,99.1,57.4,98.8z M56.5,99.2c-0.2,0.1-0.1,0.1-0.3-0.1
	C56.4,99,56.3,99,56.5,99.2z M55.9,99.1c0,0.2,0.1,0.4,0.1,0.6C55.7,99.5,55.4,99.3,55.9,99.1z M54.6,99.6c0.1-0.1,0-0.2,0.3,0
	C54.8,99.7,54.9,99.7,54.6,99.6z M55.1,98.3c0.1,0.3-0.5,0.2-0.6,0.1C54.8,98.3,54.8,98.2,55.1,98.3z M54.5,98.5
	c0,0-0.2,0.2-0.7,0.7C53.7,98.6,53.9,98.4,54.5,98.5z M53.7,97.9c0.2,0.3,0.2,0.1,0,0.4C53.5,98.2,53.5,98.3,53.7,97.9z M53.2,100.6
	c-0.4-0.3-0.3-0.2-0.2-0.4C53.3,100.6,53.3,100.5,53.2,100.6z M53,99.6c0,0.2,0.1,0.2-0.3,0.2C52.8,99.6,52.7,99.6,53,99.6z
	 M52.6,100.1c0.2,0,0.3,0.1,0.3,0.3C52.4,100.6,52.4,100.2,52.6,100.1z M53,101.6c-0.2-0.1-0.4-0.1-0.6-0.2
	C52.5,100.8,53.4,100.9,53,101.6z M47.4,99.1c0-0.2,0.1-0.2,0.4-0.1C47.6,99,47.5,99,47.4,99.1z M52.2,100.8
	c-0.1-0.1-0.1-0.2-0.2-0.3C52.2,100.5,52.3,100.6,52.2,100.8z M47.5,98.4c0.2,0,0.2-0.6,0.6-0.2C48,98.7,47,99,46.8,98.4
	C47.1,98.1,47.3,98.4,47.5,98.4L47.5,98.4z M46.6,97.6c-0.1-0.1-0.3-0.1-0.5-0.2C46.4,97.3,46.5,97.4,46.6,97.6z M39.3,99.5
	c-0.3,0.2-0.1,0.7-0.6,0.7C38.6,99.7,38.6,99.7,39.3,99.5z M37,97.5v-0.2c0.1,0,0.3,0,0.5,0C37.3,97.7,37.1,97.7,37,97.5L37,97.5z
	 M37.2,97c-0.2,0.2-0.4,0.1-0.5-0.1C36.9,96.9,37.1,96.9,37.2,97z M34.7,100.2c-0.7,0-0.8-0.9,0.1-0.7
	C34.8,99.8,34.8,100,34.7,100.2z M34.2,97.5L34.2,97.5L34.2,97.5L34.2,97.5c-0.2-0.3,0.1-0.6,0.3-0.2C34.3,97.4,34.2,97.5,34.2,97.5
	C34.2,97.5,34.2,97.5,34.2,97.5C34.2,97.5,34.2,97.5,34.2,97.5c-0.3,0.3-0.3,0.3-0.8,0.2C33.6,97.2,33.9,97.6,34.2,97.5z M33.4,96.4
	c-0.1,0.1-0.2,0.3-0.4,0.4C32.9,96.6,33,96.4,33.4,96.4z M32.2,97.4c-0.2,0-0.5,0.3-0.7-0.2C31.8,97.3,32,97.3,32.2,97.4z
	 M30.7,97.2c0.2,0.1,0.4,0.2,0.5,0.3c-0.2,0.3-0.4,0.4-0.7,0.3C30.5,97.6,30.6,97.5,30.7,97.2z M29.3,97c0.2-0.1,0.3-0.1,0.5-0.2
	c0,0.2,0,0.2,0.1,0.3C29.5,97.2,28.9,97.4,29.3,97c-0.1,0.1,0,0.1-0.4-0.3C29.2,96.7,29.3,96.8,29.3,97z M28.3,98.3
	c0.2,0.2,0.4,0.3,0.7,0.5c-2.1,0.3-1.7,0.3-2-0.1C28,98.2,27.8,99,28.3,98.3z M27.4,97.1c-0.4,0.2-0.3,0.2-0.4,0
	C27.4,97,27.4,97,27.4,97.1z M26.4,96.4c-0.2,0.1-0.1,0.1-0.2,0C26.3,96.3,26.3,96.3,26.4,96.4z M23.2,99.5c0.3,0.1,0.3,0,0.3,0.1
	C23.1,99.6,23.2,99.7,23.2,99.5z M23.7,100c-0.2,0.5-0.4,0.2-0.6,0C23.2,100,23.4,100,23.7,100z M23.1,103.2c-0.4-0.1-0.3,0-0.3-0.1
	C23.2,103.1,23.2,103,23.1,103.2z M22.8,101.6c0.5,0.1,0.4,0,0.4,0.2C22.7,101.7,22.8,101.7,22.8,101.6z M21.3,98
	c-0.2,0.1-0.3,0-0.4-0.2C21.2,97.7,21.3,97.7,21.3,98z M20.1,98.6c0,0.2,0,0.3,0,0.4c-0.2,0-0.1,0.1-0.4-0.3
	C19.8,98.7,19.9,98.7,20.1,98.6L20.1,98.6z M19.9,107.7c-0.2-0.1-0.2-0.2-0.3-0.2C19.8,107.3,19.9,107.3,19.9,107.7z M19,106.3
	c0.4,0.2,0.3,0.1,0.2,0.3C18.9,106.3,18.9,106.4,19,106.3z M18.6,102.1c0.4,0.2,0.3,0.2,0.2,0.3C18.5,102.1,18.5,102.2,18.6,102.1z
	 M15.1,100.7c0.1,0.2,0.2,0.2,0.2,0.2C15.1,101.2,15,100.9,15.1,100.7L15.1,100.7z M11.2,106.3c-0.1,0-0.2-0.1-0.2-0.2
	c0.3-0.3,0-0.2,0.8-0.2C11.6,106.3,11.5,106.4,11.2,106.3L11.2,106.3z M12.7,112.6c0.1-0.1,0.2-0.2,0.4-0.4c0,0.5,0.4,0.8,0.2,1.4
	c-0.4-0.6-0.5-0.4-1.1-0.6c0-0.3,0.1-0.5,0.1-0.8C12.4,112.4,12.5,112.5,12.7,112.6L12.7,112.6z M11.5,109.7c0-0.2,0.1-0.3,0.1-0.6
	c0.3,0.2,0.4,0.2,0.6,0.3C12,110,12,110,11.5,109.7L11.5,109.7z M11.8,103.4c0.1,0.2,0.2,0.1-0.1,0.4
	C11.5,103.6,11.5,103.7,11.8,103.4z M11.5,102c-0.1,0.1-0.2,0.2-0.3,0.3c-0.1-0.1-0.3-0.2-0.4-0.3C11,101.8,11.2,101.7,11.5,102z
	 M10.2,106.7c0,0,0.1,0,0.2,0C10.3,106.9,10,106.9,10.2,106.7L10.2,106.7z M23.9,86.1c0.1,0.2,0.1,0.4-0.2,0.4
	C23.8,86.4,23.9,86.3,23.9,86.1z M16.1,92.4c0.1,0.2,0.1,0.3,0.1,0.5C16.1,92.8,16.1,92.7,16.1,92.4z M13.3,93.8
	c0.2,0.1,0.2,0.2,0,0.3C13.1,94.1,13.1,94,13.3,93.8z M2.2,110.4c0.4,0,0.3-0.1,0.3,0.1C2.1,110.5,2.2,110.5,2.2,110.4z M2,114.3
	c-0.1,0.3,0,0.1-0.5,0.7C1.3,114.5,1.4,114.3,2,114.3z M0.9,111.3c0-0.2-0.1-0.1,0.6-0.2C1.3,111.4,1.1,111.2,0.9,111.3z M1.8,105.5
	c0,0.5,0,0.4-0.2,0.4C1.7,105.4,1.6,105.5,1.8,105.5z M1.8,110.4c0,0.3-0.1,0.3-0.4,0.4C1.4,110.5,1.4,110.3,1.8,110.4z M1.4,105.7
	c-0.2-0.1-0.3-0.3-0.1-0.5C1.3,105.4,1.3,105.5,1.4,105.7z M1.1,103.1c-0.2-0.2-0.2-0.1-0.1-0.3C1.2,103,1.2,102.9,1.1,103.1z
	 M0.7,102.2c0.1-0.1,0.2-0.1,0.4,0.2c-0.2,0-0.3-0.1-0.4-0.1C0.7,102.3,0.7,102.2,0.7,102.2z M0.9,103.3c-0.1,0.2-0.1,0.3-0.2,0.6
	C0.5,103.5,0.6,103.3,0.9,103.3z M0.5,108.5c0.4,0.1,0.3,0.1,0.2,0.2C0.6,108.7,0.5,108.7,0.5,108.5C0.4,108.6,0.4,108.5,0.5,108.5z
	 M0.4,112.7c-0.3-0.4-0.1-0.7,0-1C0.6,112.5,0.6,112.2,0.4,112.7z M0.9,112.6c-0.3-0.3-0.3-0.3-0.3-0.2c0.3-0.3,0.3,0,0.4,0.1
	C0.9,112.5,0.9,112.5,0.9,112.6L0.9,112.6z M1.1,115.9c0.2-0.1,0.1-0.1,0.3-0.1C1.2,116.1,1.2,116,1.1,115.9z M1.2,115.3
	c0.4-0.2,0.7-0.5,1.1-0.2C2,115.3,1.7,115.4,1.2,115.3z M1.9,114.5c0.2-0.5,0.2-0.4,0.8,0C2.5,114.8,2.3,114.8,1.9,114.5z
	 M2.6,115.8c-0.1-0.5-0.1-0.4,0-0.5C2.7,115.8,2.8,115.7,2.6,115.8z M2.8,108.2c-0.2-0.1-0.2-0.4-0.2-0.9
	C2.8,107.4,3.2,107.5,2.8,108.2z M3.3,111.3c-0.2,0-0.1,0.1-0.1-0.5C3.5,111.1,3.3,111.2,3.3,111.3z M5.5,128.2
	c-0.1-0.2-0.1-0.1,0-0.3C5.6,128.1,5.6,128.1,5.5,128.2z M5.5,124c-0.2,0-0.2,0-0.1-0.3C5.6,123.7,5.6,123.6,5.5,124z M6.3,118.5
	c-0.1,0-0.2-0.1-0.2-0.1C6.1,118.2,6.5,118.4,6.3,118.5z M8.3,123.8C8,124,8.1,124,7.9,123.8C7.9,123.7,7.8,123.7,8.3,123.8z
	 M6.6,113.6c-0.4-0.1-0.3-0.2-0.3-0.4C6.5,113.1,6.4,113,6.6,113.6z M6.2,112c-0.2,0-0.1,0.1-0.3-0.7C6.4,111.1,6.3,111.3,6.2,112z
	 M6.6,114c0,0.2-0.1,0.3-0.1,0.6c0.3-0.1,0.6-0.1,0.9-0.2c0.1,0.3,0.1,0.6-0.2,0.9c-0.1-0.1-0.2-0.3-0.3-0.6c0,0.3,0,0.4-0.1,0.5
	c-0.5-0.1-0.4-0.5-0.6-0.8c-0.1,0.8-0.1,1.1-0.9,0.4v-0.7c-0.3,0-0.7,0.1-0.9,0.1c-0.2-0.6-0.2-0.8,0.4-1.1
	c-0.1-0.4-0.1-0.5-0.1-0.5C5.3,112.8,5.9,113.5,6.6,114L6.6,114z M3.9,112.4c0.1-0.2,0.2-0.3,0.3-0.6c0.1,0.3,0.5,0.4,0.2,0.8
	C4.4,112.5,4.2,112.9,3.9,112.4z M4.6,109.2c0.3,0,0.2,0,0.3,0.1C4.5,109.3,4.6,109.4,4.6,109.2z M5.8,112.6c0,0.1,0.1,0.1-0.2,0.1
	C5.8,112.5,5.7,112.6,5.8,112.6z M5.4,111c0.2,0.1,0.2-0.1-0.1,0.7C5.1,111.3,5.3,111.2,5.4,111z M4.3,108c0.2,0.1,0.4,0.2,0.6,0.3
	c-0.3,0.6-0.4,0.7-1,0.7C4,108.7,4.2,108.3,4.3,108z M4.1,113c-0.2,0.2-0.1,0.2-0.5,0C3.7,112.7,3.6,112.7,4.1,113z M3.8,121
	c0.1,0.1,0.1,0-0.1,0.5C3.5,121.2,3.4,121.3,3.8,121z M3.7,94c-0.4,0-0.4,0-0.3-0.1C3.8,93.9,3.7,93.9,3.7,94z M59,78.7
	c-0.1-0.2-0.2-0.1,0-0.3C59.1,78.5,59.2,78.4,59,78.7z M70,74.3C70,74.3,69.9,74.2,70,74.3c0-0.1,0-0.2,0.1-0.2
	c0,0.1,0.1,0.1,0.1,0.2C70.1,74.2,70,74.3,70,74.3z M70.9,73.4c0.2,0.2,0.2,0-0.3,0.7C70.7,73.7,70.6,73.4,70.9,73.4z M71.5,75.3
	c-0.1,0.2-0.2,0.4-0.3,0.7c-0.2-0.4-0.1-0.3-0.6-0.5C70.9,74.8,71.5,74.4,71.5,75.3z M72.6,72.9c-0.1-0.1-0.1-0.2-0.2-0.2
	C72.6,72.5,72.8,72.7,72.6,72.9z M72.8,70.1c0.1-0.3,0.3-0.3,0.6-0.2C73.2,70.1,73.1,70.2,72.8,70.1z M79.5,57.9
	c-0.2,0.2-0.3,0.5-0.1,0.7c-0.2,0-0.4,0-0.6-0.2C78.9,58.2,79.1,57.9,79.5,57.9z M78.7,59.2c0.3,0.2,0.1,0.4,0.1,0.6l0,0l0,0l0,0
	c0.3,0,0.3,0.2,0.1,0.5c-0.1-0.3-0.1-0.4-0.1-0.5c0,0,0,0,0,0c0,0-0.1,0-0.4-0.2C78.5,59.5,78.6,59.4,78.7,59.2z M76.8,57.3
	c0.4-0.1,0.4,0.2,0.6,0.4c-0.2,0-0.3,0.1-0.3,0c0,0,0,0,0,0c0,0.3-0.1,0.3-0.4,0.2c0.3-0.2,0.3-0.2,0.4-0.2
	C77,57.7,76.9,57.6,76.8,57.3z M57.3,56.7c-0.1,0.1-0.2,0.1-0.3-0.1C57.1,56.6,57.2,56.7,57.3,56.7z M52,57.8
	c-0.5,0.5-0.4,0.4-0.5,0.3C52,57.6,51.9,57.6,52,57.8z M43.2,60.3c0,0,0.1,0.1,0.2,0.1C43.1,60.6,42.9,60.4,43.2,60.3L43.2,60.3z
	 M30,55.6c0.1,0.1,0.2,0.2,0.4,0.5c-1,0.3-0.7,0.3-1-0.1C29.6,55.9,29.8,55.8,30,55.6L30,55.6z M27.6,57.1c0.2,0.1,0.2,0.2-0.1,0.5
	C27.6,57.4,27.6,57.3,27.6,57.1z M27.4,61.3c-0.4,0.1-0.3,0.1-0.4,0C27.3,61.1,27.3,61.1,27.4,61.3z M23.6,66.5c0,0.3,0,0.4-0.1,0.6
	C23.2,66.8,23.2,66.7,23.6,66.5z M22.4,62.5c0.6,0,0.5,0,0.5,0.1C22.4,62.7,22.4,62.8,22.4,62.5z M21.6,68.9c-0.5,0.2-0.4,0.2-0.5,0
	C21.6,68.7,21.5,68.6,21.6,68.9z M21.1,71.6c0.2,0.2,0.2,0.1,0,0.3C21,71.8,20.9,71.9,21.1,71.6z M20.2,67.2c0.1,0,0.3,0.1,0.5,0.2
	c0,0.2,0.1,0.1-1.1,0.4c-0.1-0.1-0.1-0.2-0.2-0.3C19.6,67,20,67.2,20.2,67.2z M20,74.4c-0.2-0.2-0.5-0.2-0.4-0.5
	C20,73.6,20.3,74,20,74.4z M19.2,74.5c0.1,0.4,0,0.5-0.4,0.5C19,74.9,19.1,74.8,19.2,74.5z M17.7,75.3c-0.1,0.1-0.1,0.3-0.5,0.3
	C17.7,75.1,17.6,75.1,17.7,75.3z M17.3,74.8c-0.4,0.6-0.3,0.5-0.5,0.4C16.9,75,16.9,74.8,17.3,74.8z M8.6,87.4
	c0.2,0.1,0.1,0.1,0,0.3c-0.1-0.1-0.1-0.1-0.1-0.1C8.5,87.5,8.5,87.4,8.6,87.4L8.6,87.4z M7.9,87.8c-0.3,0.6-0.6,0.6-0.9,0.2
	C7.4,87.9,7.6,87.8,7.9,87.8z M6.6,88.9c0.2,0.2,0.3,0.4,0.4,0.6c-0.2,0.1-0.3,0.2-0.4,0.3C6.3,89.5,6.3,89.2,6.6,88.9L6.6,88.9z
	 M4.9,93c0,0,0.1,0,0.2,0c0,0,0,0.1,0.1,0.1C5,93.3,4.6,93.2,4.9,93z M5,95.6c0.3-0.2,0.2-0.2,0.4,0C5.1,95.8,5.2,95.8,5,95.6z
	 M6.1,91.7c-0.1-0.1-0.1-0.2,0.1-0.3c0,0,0.1,0.1,0.1,0.2C6.2,91.6,6.2,91.6,6.1,91.7z M7.2,89.9c0.2,0,0.4-0.1,0.5,0.2
	C7.4,90.3,7.3,90.2,7.2,89.9z M8.3,89.7c0.2-0.1,0.4-0.2,0.6-0.4c0,0.3,0,0.5,0.1,0.8C8.6,90.2,8.5,90,8.3,89.7L8.3,89.7z M10.2,88
	c0.1-0.2,0.1-0.3,0.2-0.5c0.1,0.2,0.2,0.3,0.3,0.4C10.3,88.2,10.4,88.2,10.2,88z M10.8,92c-0.4,0-0.3,0-0.3-0.1
	C10.9,91.9,10.8,91.9,10.8,92z M12.4,87.3c0-0.1,0-0.2,0-0.2c0.5-0.2,0.3-0.1,0.5,0.3C12.7,87.4,12.5,87.3,12.4,87.3z M12.7,84.9
	c-0.1-0.2-0.1-0.4,0.2-0.4C12.8,84.6,12.8,84.8,12.7,84.9z M14.5,86.6c-0.1-0.2-0.1-0.3-0.1-0.5c0.2,0,0.4,0.1,0.7,0.1
	C14.8,86.4,14.7,86.5,14.5,86.6z M15,83.3c0.1-0.2,0-0.2,0.4,0C15.1,83.5,15.2,83.5,15,83.3z M17,82.7c-0.2-0.1-0.1-0.2,0-0.3
	C17.1,82.5,17.2,82.5,17,82.7z M23.4,78.9c0.2-0.3,0.2-0.2,0.3-0.1C23.5,79.1,23.6,79.1,23.4,78.9z M32.4,74.6
	c0.9,0.4,1.4,1.3,1.3,2.5C32.7,76.5,32.2,75.6,32.4,74.6z M34.5,71.5C33.6,70.6,35.4,70.5,34.5,71.5L34.5,71.5z M34.8,69.1
	c-0.1-0.2-0.2-0.2,0.4-0.3C35.2,69,35.3,68.9,34.8,69.1z M36.3,73.3c-0.7-1-0.8-2-0.3-2.9C36.7,71.1,36.8,72.1,36.3,73.3z
	 M36.1,69.4c0.2-0.2,0.1-0.2,0.4,0C36.1,69.6,36.2,69.6,36.1,69.4z M37.7,66.5c0.2-0.2,0.3-0.3,0.5-0.5C38.1,66.3,38,66.4,37.7,66.5
	z M40.3,74.1c-0.7-1-0.8-2-0.3-2.9C40.7,72,40.8,72.9,40.3,74.1z M40.6,69c0.2-0.2,0.2-0.1,0.3,0C40.6,69.2,40.7,69.2,40.6,69z
	 M41.7,70c-0.2-0.2-0.2-0.1,0-0.3C41.9,69.9,41.9,69.8,41.7,70z M42.7,70.8c-0.1-0.1,0-0.2,0.1-0.2c0,0,0,0.1,0.1,0.2
	C42.8,70.8,42.8,70.8,42.7,70.8z M44.3,69.8c-0.7-1-0.8-2-0.3-2.9C44.7,67.6,44.8,68.6,44.3,69.8z M46.6,76.4
	c-0.3,0-0.3-0.3-0.4-0.6c0.3,0,0.7-0.1,0.9,0.3C46.9,76.3,46.7,76.4,46.6,76.4L46.6,76.4z M46.2,63.6c0.2-0.2,0.1-0.2,0.4,0
	C46.3,63.8,46.4,63.8,46.2,63.6z M47.6,67C47.6,67,47.7,67,47.6,67c-0.2,0.2-0.4-0.3-0.5-0.4l0.1-0.1C47.9,66.8,47.7,66.7,47.6,67
	c0.3,0,0.6-0.1,0.7,0.3C48,67.3,47.7,67.5,47.6,67z M48.1,63.2c-0.1,0.2-0.3,0.4-0.4,0.6C47.6,63.4,47.8,63.2,48.1,63.2z M48.2,62.1
	c0.2,0.2,0.1,0.3-0.1,0.5C47.5,62.4,48,62,48.2,62.1z M47.8,69.3c0.2,0,0.4,0,0.5-0.1C48.2,69.5,48.1,69.6,47.8,69.3z M48.9,71.7
	c-0.7-1-0.8-2-0.3-2.9C49.3,69.5,49.4,70.5,48.9,71.7z M51,64c-0.2,0-0.4,0-0.4,0c-0.1-0.4-0.7-0.3-0.7-0.7c0-0.4,0.6-0.6,0.4,0.2
	C51.1,63.7,50.8,63.6,51,64z M49.8,62.1L49.8,62.1c0-0.3,0.1-0.5,0.5-0.5C50.2,61.8,50.1,62.1,49.8,62.1z M49.8,62.1
	c0.2,0.6-0.3,0.7-0.7,0.8c0.5,0.1,0.8,1.4-0.1,1.4c0-0.3,0.1-0.8-0.3-1C48,62.9,49.8,62,49.8,62.1z M48.9,65.4
	c-0.3-0.2-0.3-0.1-0.1-0.3C48.8,65.3,48.9,65.4,48.9,65.4z M48.8,67.2c0.3,0,0.2,0,0.2,0.2C48.8,67.2,48.8,67.3,48.8,67.2z M51,64.7
	c0.1,0.1,0.3,0.1,0.4,0.2c-0.2,0.4-0.8,0.1-1.1,0.7c-0.1,0.1-0.3,0.1-0.4,0.2c0,0.3,0.1,0.5,0.1,0.8c-0.3,0.2-0.4,0.1-0.5-0.2
	c-0.3,0.1-0.3,0.5-0.7,0.3c0.2-0.2,0.3-0.3,0.5-0.5c-0.3-0.2-0.5-0.4-0.3-0.8c0.1-0.2,1.8-1,1.5-1l0,0c-0.8,0-1,0.5-1,0.5
	c-0.9-0.3,1-1.3,1-0.5c0,0,0,0,0,0h0C51.8,64.3,51.7,64.2,51,64.7L51,64.7z M51.9,63.9c0.4,0.2,0.3,0.1,0.3,0.3
	C51.8,64,51.8,64,51.9,63.9z M52.5,67.3c-0.7-1-0.8-2-0.3-2.9C52.9,65.2,53,66.1,52.5,67.3z M53.2,61.9c0.2-0.1,0.1-0.1,0.3,0
	C53.4,62,53.5,62,53.2,61.9z M53.6,67.6c0.4-0.2,0.3-0.2,0.4-0.1C53.6,67.7,53.7,67.7,53.6,67.6z M56.4,70.5
	c-0.5-1.2-0.3-2.2,0.5-2.9C57.3,68.5,57.2,69.5,56.4,70.5z M57,60.2c-0.1-0.1-0.2,0,0-0.3C57.1,60.1,57.1,60,57,60.2z M57.3,65
	c-0.2-0.2,0.2-0.2,0.2-0.1C57.5,65,57.4,65,57.3,65z M57.3,61.6c0.2-0.4,0.1-0.3,0.2-0.3C57.5,61.5,57.5,61.6,57.3,61.6z M57.8,65.4
	c0.2-0.1,0.4-0.2,0.6-0.4C58.5,65.3,58.3,65.4,57.8,65.4z M57.8,60.6c0.3-0.1,0.2-0.1,0.2,0.1C57.8,60.7,57.8,60.7,57.8,60.6z
	 M59,62.9c-0.1,0,0-0.1,0-0.1c0.1,0,0.2,0,0.4,0C59.2,63,59.1,62.9,59,62.9z M59.3,61.5c0.3-0.1,0.5-0.1,0.7,0.1
	C59.9,61.8,60.1,61.8,59.3,61.5z M60.5,69.6c0-0.1,0-0.1,0-0.2c0.2,0,0.4-0.2,0.4,0.1C60.7,69.5,60.6,69.5,60.5,69.6z M61.2,67.1
	c0.3-0.1,0.2-0.1,0.3,0.1C61.2,67.3,61.2,67.3,61.2,67.1z M62,70.7c0.3-0.1,0.5,0,0.5,0.4C62,71.1,62,70.8,62,70.7
	C62,70.7,62,70.7,62,70.7L62,70.7c-0.6-0.1-0.4,0-0.6-0.6h0.9c-0.2-0.3-0.4-0.6-0.6-0.9c0.2-0.1,0.4-0.2,0.5-0.3
	C63.1,70.1,62.1,70.7,62,70.7C62,70.7,62,70.7,62,70.7L62,70.7z M62.4,59.9c-0.1,0.2-0.1,0.3-0.2,0.6C62.1,60.3,62.2,60.1,62.4,59.9
	z M62.8,69.1c-0.3-0.2-0.3-0.1-0.2-0.3C63,69,62.9,68.9,62.8,69.1z M63.3,81.1c-0.3-0.2-0.2-0.2-0.1-0.3
	C63.4,80.9,63.5,81,63.3,81.1z M65.8,68.6c-0.4-0.5-0.4-0.6,0-0.8V68.6z M66.4,64.1c0-0.2,0-0.5,0.5-0.4
	C66.4,64.2,66.5,64.2,66.4,64.1z M67,60.7c0.3,0.3,0.3,0.1,0,0.6C66.7,60.9,66.7,61.1,67,60.7z M67.2,66.3c-0.1,0.1-0.2,0.1-0.3,0.2
	C66.6,66,66.6,66.1,67.2,66.3z M67.3,69.7c-0.3-0.1-0.1-0.3,0-0.4c0.1,0.1,0.1,0.1,0.3,0.3C67.6,69.7,67.5,69.7,67.3,69.7L67.3,69.7
	z M69.4,59.1c0-0.1,0-0.2,0-0.3c-6.6-0.2-13.5,0.7-20.5,2.8c0,0.2-0.1,0.5-0.2,0.7c-0.1-0.2-0.1-0.5,0.1-0.7
	c-8.5,2.5-17.1,6.8-25.2,12.8c0,0,0,0,0,0c-6.2,4.4-12,10-17.4,16.5c3-3.8,6.2-7.3,9.7-10.6c-0.1,0-0.1,0-0.3-0.1
	c0.2-0.1,0.3-0.1,0.5-0.2c0,0.1,0,0.1-0.1,0.2c5.5-5.1,11.4-9.5,17.4-13c0,0,0,0-0.1-0.1c0.2-0.2,0.1-0.2,0.3-0.1
	c5.5-3.2,11-5.8,16.3-7.6c0-0.1,0-0.2-0.1-0.3c0.2-0.1,0.3,0,0.4,0.2c9.3-3.1,17.6-4,23.2-2.2c0.3,0.1,0.6,0.2,1,0.2c0,0,0,0,0,0
	c0.5,0.2,1.3,0.5,1.6,0.8c0,0,0,0,0,0c0.3,0.2,0.5,0.3,0.8,0.5c0,0,0-0.1,0-0.1c0.2,0.1,0.3,0.2,0.3,0.3c0.2,0.2,0.4,0.3,0.6,0.5
	c0.1-0.3,0.4-0.3,0.7-0.3c-0.2,0.5-0.2,0.5-0.7,0.3c0.1,0.1,0.3,0.2,0.4,0.3c-0.7-0.1-1.5-0.3-2.2-0.4c0,0.2-0.1,0.3-0.1,0.4
	c-0.7,0.2-0.6,0.1-0.6,0.1c0-0.2-0.1-0.4,0.2-0.4c0,0,0.1-0.1,0.1-0.2c-0.3,0-0.7-0.1-1.1-0.1c0.1,0.5,0.6,0.6,0.8,0.8
	c-0.1,0.2-0.2,0.3-0.3,0.5c-0.2-0.1-0.2-0.6-0.7-0.2c0.2-0.4-0.2-0.8,0.1-1.1c-1.4-0.2-2.8-0.3-4.2-0.3C70,59,69.8,59.1,69.4,59.1
	L69.4,59.1z M78.2,61.3c-0.1,0.3-0.4,0.4-0.7,0.2c0-0.2-0.1-0.5-0.1-0.9C78.2,61,78.3,61,78.2,61.3z M75.4,60.9c0.2,0,0.2,0,0.1,0.2
	c0.2,0.2,0.3,0.3,0.3,0.3c-0.1,0.1-0.3,0.2-0.4,0.4c-0.1-0.1-0.2-0.2-0.4-0.3c0.4-0.3,0.5-0.4,0.5-0.4
	C75.4,61.1,75.4,61.1,75.4,60.9L75.4,60.9z M75,62.3c-0.6-0.1-0.5,0-0.1-0.3C75,62.2,75,62.3,75,62.3z M75,62.9L75,62.9
	c-0.2,0-0.3,0-0.2-0.4C75,62.8,75,62.9,75,62.9c0.6,0,0.5,0,0.8,0.3c-0.5,0.2-0.8,0.7-1.3,0.1c0.2-0.1,0.3-0.1,0.5-0.2
	C75,63,75,62.9,75,62.9L75,62.9L75,62.9z M75.5,62.5c-0.5,0.1-0.4,0.2-0.5-0.2C75.1,62.3,75.5,62.1,75.5,62.5
	C75.5,62.5,75.5,62.5,75.5,62.5c0.1-0.1,0.1,0,0.5,0c0.2-0.2,0.1-0.6,0.5-0.7c0.2,0.2,0.4,0.5,0.6,0.7c-0.3,0.2-0.8,0.2-1,0.7
	C75.8,62.7,75.9,62.9,75.5,62.5L75.5,62.5z M75.7,61.4c0.1-0.2,0.1-0.4,0-0.6c0.3,0,0.5-0.4,1-0.3c-0.4,0.3-0.6,0.5-0.4,0.8
	c0.1-0.2,0.2-0.3,0.3-0.5c0.2,0.3,0.4,0.5,0.6,0.8C75.7,61.7,75.8,61.3,75.7,61.4L75.7,61.4z M76.5,60c0.2,0,0.3-0.2,0.5-0.3
	c-0.1,0.5-0.3,0.6-0.7,0.7C76.1,60.1,76.2,60,76.5,60z M74.1,62.7c-0.5,0.3-0.5,0.3-0.9,0.3c0.1-0.1,0.2-0.2,0.3-0.3
	c-0.2,0-0.3,0-0.4-0.1c0.3-0.5-0.2-0.2-0.4-0.3c-0.2-0.2,0.4-0.6,0.7-0.2c0.1-0.2,0.2-0.3,0.4-0.5c0.1,0.1,0.2,0.2,0.2,0.4
	C74.7,61.8,74.5,62.5,74.1,62.7L74.1,62.7z M73.9,64.1c-0.1-0.4-0.1-0.7,0.3-0.9C74.2,63.6,74.3,63.9,73.9,64.1z M72.3,61.8
	c-0.3,0-0.2-0.2-0.2-0.5c0.3,0.2,0.4,0.3,0.4,0.3l0,0l0,0c0.1,0,0.2,0,0.4,0c-0.2,0.3-0.3,0.1-0.4,0l0,0l0,0l0,0
	C72.4,61.7,72.4,61.8,72.3,61.8z M72.4,61.9c0,0.2,0,0.4-0.1,0.7C72,62.3,72,62.3,72.4,61.9z M72.8,60.7c0.5-0.1,0.7-0.7,1.3-0.5
	c-0.5,0.5-0.4,1-1,1.5c0-0.3,0.1-0.5,0.3-0.8C73,60.8,73.1,60.8,72.8,60.7z M73.1,60.2c-0.6-0.3-0.7-0.3,0.3-0.5
	C73.4,60,73.1,60,73.1,60.2z M72.5,59.3c0.2-0.1,0.5-0.1,0.7,0.1C73,59.3,72.8,59.3,72.5,59.3z M72.2,66.1c-0.2-0.2-0.2-0.2-0.1-0.3
	C72.3,66.1,72.2,66,72.2,66.1z M72.5,64.2c0.1,0.2,0,0.4-0.2,0.6C72.2,64.5,72.3,64.3,72.5,64.2z M72.5,66.9c-0.2-0.1-0.1-0.3,0-0.5
	C72.7,66.9,72.7,66.8,72.5,66.9z M72.8,64.9c0,0.2-0.1,0.3-0.2,0.6C72.5,65.1,72.7,65,72.8,64.9z M72.8,65.7
	c0.1-0.1,0.2-0.2,0.2-0.4C73.4,65.5,73.2,65.8,72.8,65.7z M73.1,67.6c0.1-0.2,0.3-0.4,0.5-0.2C73.6,67.6,73.7,67.5,73.1,67.6z
	 M73.8,66.9c0-0.2,0.1-0.4,0.4-0.3C74,66.7,73.9,66.8,73.8,66.9z M73.9,65.3C73.9,65.3,73.9,65.3,73.9,65.3c-0.1,0.4,0,0.3-0.4,0.2
	C73.6,65.4,73.5,65.4,73.9,65.3L73.9,65.3c0.1-0.2,0.3-0.2,0.5,0C74,65.3,74,65.3,73.9,65.3L73.9,65.3z M74.2,65
	c-0.1-0.7,0.1-1.5,0.7-1.1C74.5,64.2,74.7,64.8,74.2,65L74.2,65z M74.8,65.3c0.2-0.6,0.2-0.5,0.4-0.4C75.3,65.1,75.2,65.3,74.8,65.3
	z M76,69.2c0.2-0.2,0.1-0.1,0.3,0C76.1,69.3,76.2,69.3,76,69.2z M76,65.2c0.1,0.1,0.3,0.2,0.4,0.3c-0.1,0.7-0.4,1-1,0.8
	c0.2-0.6-0.2-1.2,0.2-1.8c0.1-0.2,0-0.5-0.1-0.8c0.2,0,0.4-0.1,0.7-0.2c0.2,0.2,0.3,0.4,0.5,0.6C75.9,64.8,76,64.6,76,65.2L76,65.2z
	 M77.1,63.5L77.1,63.5c0,0-0.1,0-0.5,0.1C76.8,63.2,76.8,63.2,77.1,63.5L77.1,63.5c0.3,0.6,0.3,0.4,0,0.6
	C76.9,63.9,76.9,64.1,77.1,63.5L77.1,63.5z M77.1,64.5c0.2-0.2,0.1-0.2,0.3,0C77.2,64.6,77.3,64.6,77.1,64.5z M77.3,62.7
	c-0.2-0.7-0.2-0.6-0.1-0.7c0.4,0.4,0.9,0.4,1.6,0.5c-0.3,0.3-0.9,0.4-0.8,0.9c0.3-0.1,0.5,0,0.6,0.3c0.3,0.1,0.5,0.1,0.8,0.2
	c0,1.1-2.1-0.1-1.9-0.7c0.1,0,0.2-0.1,0.3-0.1C77.9,62.8,78,62.9,77.3,62.7L77.3,62.7z M77.7,64.5c0.1,0.3,0.1,0.4,0.1,0.4l0,0
	c0,0,0.1-0.1,0.3-0.4c0.4,0.4,0,0.5-0.1,0.7c-0.1-0.1-0.2-0.2-0.2-0.3l0,0c0,0,0,0,0,0C77.5,64.9,77.5,64.7,77.7,64.5L77.7,64.5z
	 M77.7,68.8c-0.1-0.5-0.1-0.4,0.3-0.5C77.9,68.9,77.9,68.8,77.7,68.8z M78,66.4c0.3-0.6,0.2-0.5,0.4-0.4
	C78.4,66.1,78.5,66.4,78,66.4z M78.4,67.1c0-1,1-0.3,0.1,0.1C78.5,67.2,78.4,67.1,78.4,67.1L78.4,67.1z M79,67.2
	c0.2,0.3,0,0.4-0.1,0.6C78.8,67.6,78.8,67.4,79,67.2z M78.7,70.8c0-0.3,0.2-0.3,0.4-0.3C79.1,70.7,79.2,70.6,78.7,70.8z M78.9,65.7
	c0.2,0.1,0.4-0.2,0.6,0.3C78.8,65.8,78.9,65.8,78.9,65.7z M79.5,62c-0.2-0.1-0.3-0.1-0.5-0.1c0.2-0.4,0.3-0.7,0.5-1
	C79.9,61.2,79.4,61.5,79.5,62L79.5,62z M81.2,59c-0.3,0.1-0.2,0.1-0.3,0C81,58.8,80.9,58.8,81.2,59z M80.8,59.3
	C80.8,59.3,80.7,59.4,80.8,59.3c-0.1,0.1-0.1,0-0.2,0C80.6,59.2,80.7,59.1,80.8,59.3z M80.7,58.3c-0.1,0.2-0.3,0.3-0.5,0
	C80.7,58.1,80.6,58.1,80.7,58.3z M80,71.1c-0.4-0.4,0.2-0.7,0.5-0.3C80.3,70.9,80.2,71,80,71.1z M80.6,61.2c0.2-0.3,0.3-0.6,0.5-0.9
	C81.4,60.9,81.3,60.9,80.6,61.2z M80.8,59.9c0.1-0.2,0.1-0.4,0.2-0.6c0.1,0,0.2,0,0.4,0.1C80.8,60.2,80.9,60.1,80.8,59.9z
	 M83.2,61.8c0,0.3-0.1,0.3-0.4,0.5C82.8,61.9,82.9,61.7,83.2,61.8z M83.4,65.7c-0.1,0.3,0,0.1-0.5,0.7
	C82.7,65.9,82.8,65.7,83.4,65.7z M82.9,62.5c-0.3,0.3-0.4,0.1-0.6,0.2C82.3,62.5,82.2,62.5,82.9,62.5z M81.9,60
	c0.4,0.1,0.3,0,0.2,0.2C82,60.1,81.9,60.1,81.9,60C81.8,60,81.9,60,81.9,60z M81.4,65.1c0.1-0.2,0.1-0.3,0.1-0.5
	C81.8,64.8,81.9,65,81.4,65.1z M81.8,64.1c-0.3-0.4-0.1-0.7,0-1C82,63.9,82.1,63.7,81.8,64.1z M82.3,64C82,63.8,82,63.7,82,63.8
	c0.3-0.3,0.3,0,0.4,0.1C82.4,63.9,82.3,64,82.3,64L82.3,64z M82.5,67.3c0.2-0.1,0.1-0.1,0.3-0.1C82.6,67.6,82.6,67.4,82.5,67.3z
	 M82.6,66.7c0.4-0.2,0.7-0.5,1.1-0.2C83.5,66.7,83.2,66.8,82.6,66.7z M83.3,65.9c0.2-0.5,0.2-0.4,0.8,0
	C83.9,66.3,83.7,66.3,83.3,65.9z M84.7,62.8c-0.2,0-0.2,0.1-0.1-0.5C84.9,62.5,84.7,62.6,84.7,62.8z M85,64.4c0.1-0.2,0-0.2,0.5,0
	C85.3,64.5,85.5,64.6,85,64.4z M85.9,64L85.9,64c0,0-0.2,0.3-0.5-0.2c0.1-0.2,0.2-0.3,0.3-0.6C85.8,63.5,86.1,63.7,85.9,64z
	 M86.7,63.2c-0.2-0.4,0-0.5,0.1-0.7C87,62.5,87,62.4,86.7,63.2z M87,64.1c0.2-0.2,0.1-0.2,0.2-0.1C87.3,64.2,87.3,64.1,87,64.1z
	 M87.6,63.4c-0.2,0-0.1,0.1-0.3-0.7C87.8,62.5,87.7,62.7,87.6,63.4z M87.7,64.6c0.2-0.1,0.1-0.2,0.3,0.4
	C87.7,65,87.7,64.8,87.7,64.6z M93.8,70.9c-0.2-0.3-0.1-0.3,0.1-0.4C93.9,70.6,93.8,70.7,93.8,70.9z M95.7,66.9
	c-0.2-0.2,0-0.3,0.1-0.5C96.3,66.9,95.8,67,95.7,66.9z M92.5,77.8c-0.1,0-0.2,0-0.2-0.1c0,0,0-0.1,0-0.1
	C92.6,77.7,92.5,77.7,92.5,77.8L92.5,77.8z M94,76.9c0,0.2,0.1,0.4,0.1,0.8C93.9,77.4,93.7,77.2,94,76.9z M94.3,77.8
	c0-0.3-0.1-0.2,0.4-0.2C94.6,77.9,94.7,77.8,94.3,77.8z M98.5,75.2c-0.2-0.2-0.4-0.3-0.6-0.5c0.2-0.3,0.3-0.6,0.5-0.9
	C98.8,74.2,98.7,74.7,98.5,75.2z M101.8,71.4c0.2,0.3,0.2,0.2,0.1,0.3C101.7,71.4,101.7,71.5,101.8,71.4z M100.8,67.8
	c-0.1,0.3,0,0.1-0.4,0.6c-0.1-0.3-0.2-0.4-0.3-0.7C100.4,67.7,100.6,67.7,100.8,67.8L100.8,67.8z M99.4,67.3c0.2,0.3,0,0.4-0.2,0.1
	C99.3,67.4,99.3,67.3,99.4,67.3L99.4,67.3z M96.4,67.5c0.1-0.8,0.6-0.4,1.1-0.4C97.2,67.8,97.4,68,96.4,67.5z M97.4,67
	c-0.1-0.1-0.1-0.2-0.2-0.3c0.6-0.2,0.4-0.2,0.7,0.2C97.5,67,97.4,67,97.4,67z M98.6,70.4c-0.1-0.1-0.1-0.2-0.1-0.3
	C98.6,70,98.7,70.1,98.6,70.4z M98.4,69.6c-0.1-0.3,0-0.4,0.2-0.6C98.7,69.1,98.8,69,98.4,69.6z M99.2,68.4c0.2-0.4,0.4-0.6,0.8-0.6
	C99.8,68,99.7,68.4,99.2,68.4z M99.7,69.5c0.2-0.3,0.4-0.1,0.4,0.3C100,69.7,99.8,69.6,99.7,69.5z M100.4,73
	c0.2-0.2,0.3-0.3,0.4-0.4c0.3,0.2,0.3,0.3,0.4,0.3C101,72.9,100.7,73,100.4,73z M101.9,74.5c-0.6-0.1-0.5,0-0.5-0.2
	C102,74.4,101.9,74.4,101.9,74.5z M101.6,73.8c0.2-0.4-0.2-0.7-0.4-0.8c0.4-0.1,0.2,0.1,0.3-0.8c0-0.4,0.9,0.6,1,1.8
	C100.9,74.3,101.5,74.2,101.6,73.8L101.6,73.8z M103.5,66.8c-0.3-0.2-0.3-0.2-0.2-0.3C103.6,66.7,103.6,66.6,103.5,66.8z
	 M107.9,67.8c-0.3,0.1-0.3,0.5-0.8,0.4C107.3,67.8,107.6,67.7,107.9,67.8z M106.4,71.8L106.4,71.8L106.4,71.8c0,0-0.1,0.1-0.3,0.3
	c-0.1-0.1-0.1-0.2-0.2-0.4C106,71.7,106.2,71.6,106.4,71.8L106.4,71.8L106.4,71.8L106.4,71.8c0,0,0.1,0,0.5-0.2
	C106.7,72.1,106.7,72.1,106.4,71.8L106.4,71.8z M106.7,70.7c0.2,0,0.4,0,0.6,0.1C107,71.1,106.9,71,106.7,70.7z M107.8,68.8
	c0.2-0.4,0.3-0.7,0.5-1.1C108.9,68.1,108.5,68.6,107.8,68.8L107.8,68.8z M108.7,69.5c0.2-0.2,0.3-0.3,0.5-0.4
	c0.1,0.3,0.1,0.5,0.1,0.8C109.1,69.7,109,69.6,108.7,69.5z M109.5,70.3c0.1-0.1,0.2-0.2,0.3-0.3C110,70.3,109.8,70.5,109.5,70.3z
	 M119.9,68.9c0-0.2,0.2-0.3,0.4-0.3C120.1,68.8,120,68.8,119.9,68.9z M121.1,68.4c0.1-0.1,0-0.1,0.3,0
	C121.2,68.5,121.3,68.6,121.1,68.4z M123.7,67.7c-0.3,0-0.3,0-0.3-0.2C123.8,67.7,123.8,67.6,123.7,67.7z M123.4,67
	c0.2-0.2,0.1-0.2,0.5,0C123.6,67.3,123.7,67.3,123.4,67z M150.3,64.5c-0.2-0.1-0.4-0.1-0.6-0.2c0.6-0.8,0.5-0.6,0.4-1.1
	c0.3,0,0.6,0.1,0.9,0.1C150.7,63.8,150.5,64.2,150.3,64.5z"/>
<path class="st0" d="M29.3,85.7c21.6-4,16.3,12.1,43,8.8C61.9,93.3,49.6,78.8,29.3,85.7z M61.9,93.3c0.3,0.3,0.8,0.3,0.9,0.8
	C62.3,94.4,61.3,93.7,61.9,93.3L61.9,93.3z M58.1,89c0.2,0.1,0.3,0.2,0.5,0.4C58.3,89.4,58.1,89.3,58.1,89z M57,90.3
	c0.1,0.1,0.1,0.1,0.2,0.1c0,0,0,0,0.1,0c0,0.4,0,0.4-0.2,0.4c0-0.1,0-0.2,0-0.2C56.9,90.4,57,90.5,57,90.3L57,90.3z M41.4,84.8
	c0.3,0.2,0.3,0.1,0.2,0.2C41.3,84.9,41.4,84.9,41.4,84.8z"/>
<path class="st0" d="M112.3,99.1c-0.5-0.3-1-0.6-1.4-0.9c0,0-0.1,0.1-0.1,0.1c0.6,0.4,1.2,0.8,1.8,1.2c0.1,0,0.2,0,0.2,0
	C112.6,99.4,112.5,99.3,112.3,99.1L112.3,99.1z"/>
<path class="st0" d="M112,100.7c0.3-0.2,0.6,0,0.9,0c-0.3-0.2-0.7-0.5-1.1-0.7c0,0.1,0,0.1,0.1,0.3c-0.3,0-0.3-0.2-0.3-0.4
	c-4.7-3.1-10.1-5.8-16.2-8.3c0.6,0.9,2.9,1.5,2.6,1.5c-0.6-0.2-1.2-0.3-1.8-0.5c0,0.1,0.1,0.1,0.1,0.2c-0.2,0.3-0.4,0-0.5,0
	c0,0.1,0,0.1-0.1,0.2c1.1,0.4,2.2,0.8,3.2,1.3c0-0.4,0-0.4,0.2-0.4c0.1,0.1,0.2,0.3,0.3,0.5c-0.1,0-0.2,0.1-0.2,0.1
	C103.8,96.2,108.1,98.4,112,100.7L112,100.7z M103.8,95.5c0.1,0.2-0.3,0.3-0.2,0.1C103.7,95.6,103.7,95.5,103.8,95.5z M101,94.7
	c0,0.3,0,0.2-0.1,0.3C100.9,94.6,100.8,94.7,101,94.7z"/>
<path class="st0" d="M92.5,89.6c0.1-0.5,0.7-0.3,1.2,0.3c0.9,0.2,1.8,0.5,2.7,0.8c-2.7-1.3-3.2-3.3-1.4-6c0,0,0,0,0,0
	c-0.1-0.2-0.1-0.1,0.2-0.3c0,0,0,0,0,0c2-3,6.7-6.7,14-11.3c-0.4,0.2-0.8,0.3-1.2,0.4c0,0,0,0,0.1,0c0,0.2-0.2,0.1-0.2,0
	c-1.5,0.6-3.1,1.2-4.6,1.9c0.1,0,0.1,0,0.2,0.1c-0.3,0.3-0.6,0.3-0.8,0.2c-1.1,0.5-2.1,0.9-3.1,1.4c0,0,0,0,0,0
	c-5.8,2.9-18.7,8.6-8.5,12c0,0,0.1-0.1,0.1-0.1c-0.1-0.6-0.1-0.6,0.8-0.9c0.1,0.2,0.1,0.5,0,1.2C92.1,89.5,92.3,89.5,92.5,89.6
	L92.5,89.6z M98.6,79.5c0.4-0.1,0.3,0.4,0.6,0.6c-0.2,0-0.4-0.1-0.6-0.1C98.5,79.8,98.5,79.7,98.6,79.5z M95.7,83.2
	c-0.6,0.1-0.3,0.7-0.7,1c-0.1-0.7-0.4-0.8,0.4-1.4C95.8,82.4,95.9,83.1,95.7,83.2z M94.6,80.8c0.4,0.4,0.8,0.5,1.3,0.2
	c0-0.2,0.1-0.4,0.1-0.6c0.2,0.1,0.4,0.1,0.6,0.1l0,0l0,0c0,0,0,0,0.2-0.1c0.1,0.3,0.2,0.6,0.4,0.9c-0.3-0.1-0.6,0-0.8-0.2
	c-0.3,0.6-0.8,0.5-0.9,0.5c-0.4,0.4-0.8,0.1-1.2-0.1C94.4,81.3,94.5,81,94.6,80.8L94.6,80.8z M93.7,85.4c-0.2,0.1-0.1,0.1-0.2-0.2
	C93.6,85.2,93.6,85.1,93.7,85.4z M93.1,84.3c0.1-0.3,0-0.3,0.3-0.2C93.1,84.4,93.2,84.4,93.1,84.3z M92.8,82.8
	c0.1,0.2,0.2,0.3,0.3,0.5C92.9,83.7,92.5,83.1,92.8,82.8z M93,84.5c-0.2,0.2-0.3,0.3-0.5,0.5C92.5,84.6,92.6,84.4,93,84.5z M92.6,88
	c0-0.4,0-0.3,0.2-0.4C93,87.8,92.9,87.9,92.6,88z M92.4,88.4c0.2-0.1,0.4-0.1,0.5,0.2c-0.2,0.1-0.4,0.1-0.5,0.2
	C92.3,88.7,92.3,88.5,92.4,88.4z M91.8,84.4c0.1,0.1,0.1,0.2-0.1,0.3C91.8,84.6,91.8,84.5,91.8,84.4z M91.8,87.8
	c-0.1-0.2-0.1-0.5,0-0.7c0.1,0.2,0.2,0.3,0.4,0.6C92.1,87.7,92,87.7,91.8,87.8z"/>
<path class="st0" d="M121.8,105.9c0,0.1,0.1,0.2,0.1,0.4c-0.4-0.3-0.3-1-1-0.9c0.1-0.1,0.1-0.1,0.2-0.1c-1.5-1.2-3.7-2.7-6.1-4.3
	c0,0.1,0.1,0.2,0.1,0.3c2.3,1.8,7.8,5.3,4,5.1C121.3,107.2,125,109,121.8,105.9L121.8,105.9z"/>
<path class="st0" d="M114.8,101c0-0.1,0.1-0.1,0.1-0.2c-0.7-0.5-1.4-0.9-2.2-1.4c0,0,0,0,0,0.1l0,0l0,0c0,0.1,0,0.1,0,0.1
	c0.2,0.1,0.3,0.2,0.5,0.3c0.1,0,0.2,0,0.3,0c0,0.1-0.1,0.1-0.1,0.1C113.9,100.3,114.4,100.7,114.8,101L114.8,101z"/>
<path class="st0" d="M115.1,102.4c-0.4-0.1-0.6-0.2-0.6-0.6c-0.4-0.3-0.7-0.6-1.1-0.8c0,0.1-0.2,0.2-0.3,0.3
	c1.9,1.2,3.7,2.4,5.4,3.7c0,0,0,0,0,0C117.4,104.1,116.3,103.2,115.1,102.4C115.1,102.4,115.1,102.4,115.1,102.4z"/>
<path class="st0" d="M117.6,71.3c-5.1,1.8-8.6,3.2-12.7,5.7c0.1,0,0.2,0.1,0.3,0.2c-0.3,0.2-0.4,0.1-0.5-0.1
	c-1.9,1.2-4.1,2.6-5.9,4.2c0,0,0,0,0.1,0c0,0.3-0.1,0.5-0.1,0.7c-0.2-0.1-0.2,0-0.4-0.3c-8.9,8.5,1.5,9.5,9.9,15.2
	c0,0-0.1-0.1-0.1-0.2c-2.5-1.6-4.9-3-6.8-4.1c0,0,0,0,0,0l0,0c-2.6-1.6-3-1.6-4.5-2.6c0,0,0,0,0,0.1c-3.1-2.5,1.2-6.3,3.1-8.6
	c-0.1-0.1,0-0.2,0.1-0.3c0,0.1,0.1,0.1,0.1,0.2c0.4-0.4,0.8-0.8,1.3-1.2c-0.1-0.1-0.1-0.3-0.2-0.7c0.3-0.1,0.6-0.1,0.9,0
	c4.2-3.5,9.6-6.1,15.3-7.9C117.7,71.5,117.7,71.4,117.6,71.3L117.6,71.3z"/>
<path class="st0" d="M113.9,103.6c-0.2-0.2-0.1-0.3-0.1-0.4c-0.1,0-0.1-0.1-0.2-0.1c0.1,0.1,0,0.3-0.1,0.5c-0.3-0.1-0.5-0.1-0.8-0.2
	c-0.2,0.1-0.3,0.2-0.4,0.4c0.3,0.1,0.6,0.2,0.9,0.3c0-0.1,0.1-0.2,0.1-0.3c0.2,0.2,0.3,0.4,0.2,0.5c1.1,0.4,2.2,0.8,3.2,1.2
	c-0.8-0.7-1.7-1.3-2.6-1.9C114.1,103.5,114,103.5,113.9,103.6z"/>
<path class="st0" d="M112.5,102.5c-0.6-0.3-1.2-0.6-1.8-0.9c0.1,0.4,0.3,0.8,0,1.2c0.1,0.1,0.2,0.2,0.3,0.3c0.4-0.2,0.8-0.6,1.4-0.4
	C112.5,102.6,112.5,102.5,112.5,102.5L112.5,102.5z"/>
<path class="st0" d="M86.6,70.4c-1.7-1.3-4.2,1.6-2.3,2.9C86.1,74.5,88.6,71.7,86.6,70.4z M85.2,71.7c-0.5,0.6-1.6,0-1-0.7
	C84.6,70.4,85.8,71,85.2,71.7z"/>
<path class="st0" d="M88.2,72.3c4-8.3-11.2-4.8-4.6,1c-2.3-1.4-1.1-3.8,0.8-4.5c2.4-1.2,5.2,2.2,2.9,4.3
	C87.6,72.9,88,72.6,88.2,72.3L88.2,72.3z"/>
<path class="st0" d="M77.4,85.1c-0.4,0.8,0.9,3.9,2.1,5.1c-0.1-1.1,1-2.8,3.3-5c0,0,0-0.1,0-0.1c0-0.1,0.1-0.1,0.1-0.2
	c0,0,0,0.1,0.1,0.1c0.7-0.7,1.6-1.4,2.5-2.2c-2.3,1.7-4.5,3.7-6.6,5.8c-0.6-3.5,5.2-5.7,9.3-8.6c-2.3,1.1-6.4,4-9.1,5.9
	c1.6-3.8,8.4-6.3,11.5-8.1c-1,0.4-2.2,1-3.6,1.7c0,0,0,0-0.1,0.1c0,0,0,0,0-0.1C82.6,81.6,77.7,84.4,77.4,85.1z"/>
<path class="st0" d="M115.1,104.6c-0.1,0.3-0.1,0.2,0,0.3C115.2,104.6,115.2,104.7,115.1,104.6z"/>
</svg>
