<?xml version="1.0" encoding="UTF-8"?>
<svg xmlns="http://www.w3.org/2000/svg" viewBox="0 0 117.46 147.38">
  <defs>
    <style>
      .cls-1 {
        fill: #d2d6da;
        mix-blend-mode: multiply;
      }

      .cls-2 {
        isolation: isolate;
      }
    </style>
  </defs>
  <g class="cls-2">
    <g id="_レイヤー_2" data-name="レイヤー 2">
      <g id="_モバイル" data-name="モバイル">
        <path class="cls-1" d="m106.75,129.65c.05.06.09.11.16.2.99-.78,1.58-1.65,2.4-2.62-.06-.03-.05-.05-.05-.14.12-.05.18-.07.23-.08.2-.26.41-.5.61-.77q1.88.68,4.26,5.8c1.7-4.67,2.54-9.25,2.89-13.33-.02.02-.08.05-.19.13-.08-.2-.13-.14.17-.27.01.03.02.05.03.07,0-.08.01-.16.02-.24-.02,0-.05,0-.08,0,.03-.02.05-.02.08-.04.3-3.78.19-7.12-.04-9.7-.23.1-.26.07-.08-.29.02,0,.03,0,.05,0-.31-3.3-.8-5.31-.8-5.31,0,0-6.44,5.59-12.39,10.2.08.03.1.11.05.26-.06-.05-.12-.1-.18-.16-3.24,2.5-6.31,4.71-8.11,5.54,6.31.17,7.5,2.73,7.5,2.73-4.04,3.56-8.62,6.17-13.16,7.77-.02.04-.03.07-.05.11-.06-.01-.1-.03-.14-.05-.15.05-.3.1-.46.15.03.1.02.08-.06.11-.01-.04-.02-.05-.03-.08-1.06.35-2.11.65-3.16.89.26.23.07.49-.22.36,0,.64,0,.57-.45.06-.04.12-.07.22-.12.4-.34-.15-.29-.3-.4-.58-5.35,1-10.3.44-13.84-1.82-.01.05-.02.09-.03.15-.05-.1-.09-.18-.12-.24-4.24-2.62-5.68-7.89-4.94-12.46-.47-.56-.28.13-.8.24-.17-.56.64-.79.91-1.14.64-3.95,1.09-6.38,2.38-10.9-.16.03-.31-.06-.57-.31.27-.12.5-.22.75-.33.57-1.97,1.24-4.19,1.99-6.59-.08.04-.16.08-.26.13-.02-.29-.03-.52-.05-.75.35-.1.32.15.39.34.14-.46.29-.92.44-1.39-.16-.02-.32-.05-.51-.08.08-.21.14-.38.21-.55.28.06.37.09.42.25.26-.82.53-1.66.81-2.52-.1-.03.01-.16.06-.18.03-.09.06-.19.09-.28.45-1.48,1-3.02,1.5-4.58-.03,0-.05-.02-.14-.09.15-.14.14-.16.21-.1.1-.29.19-.57.29-.86,0,0,0,0-.01-.01.01,0,.01,0,.02-.01.46-1.39.93-2.8,1.41-4.22-.19.02-.28-.05-.28-.23.18-.04.25.04.3.19.13-.39.26-.78.39-1.17-.43-.16-.76-.36-.36-.71.13.15.32.22.49.34,2.65-7.84,5.43-15.84,7.73-22.35-.14-.15-.13-.12-.06-.19.04.04.07.07.09.1.33-.93.64-1.82.95-2.68-.05,0-.1-.02-.15-.03.25-.38-.18-.14-.33-.28-.18-.19.3-.52.56-.2.35-.42.41-1,.62-1.48-.01,0-.02,0-.03.01.18-.4-.25-.68.18-.98,0,.14.03.24.08.32.76-2.15,1.42-4,1.94-5.44-.08-.02-.15-.04-.24-.04.05-.3.1-.59.16-.94-.2.01-.33.02-.45.03.05-.66.57-.27.74.38.06-.16.12-.33.17-.48,0-.02,0-.03-.02-.05.01,0,.02,0,.04,0,.26-.74.47-1.32.62-1.72-.1-.02-.07-.04-.05-.14.03,0,.06.02.09.03.12-.34.19-.52.19-.52l23.71,9.69.19-.53c-.23.09-.45.17-.69.27-.06-.34.26-.48.46-.71.12.03.23.07.35.1l3.66-10.06-1.61-.54s0,.02.01.03c-.09.1-.01.1-.47-.06.03-.04.05-.07.07-.1l-4.6-1.54c.03.12.07.24.1.36-.23-.03-.32-.12-.45-.47l-.65-.22c-.23.12-.22.11-.2-.07l-16.49-5.52,3.41-9.37c8.9-.33,18.74-13.38,6.5-22.39-.02.04-.03.07-.06.12-.03-.09-.05-.16-.07-.21-5.76-4.26-15.53-4.51-20.08,2.46.02.02.04.05.07.09-.1.04-.14.06-.16.06-.64,1.06-1.14,2.39-1.34,3.61.46-.07.15-.07,1.23-.24q.02.67-.28.74c.03-.19.06-.35.08-.49-.37.2-.75.41-1.13.62-.85,6.41,3.99,11.54,3.99,11.54l-1.91,5.25c.07,0,.14,0,.26-.01-.13.26-.08.28-.33.2l-1.43,3.94-2.24-.88c-.08-.03-9.53-3.75-9.67-3.8-.25.1-.2.09-.27.63-1.63-.16-1.49,0-1.29-.71.28.17.5.31.68.42.38-.13.13-.42.15-.62l-11.2-4.41-3.98,10.94,19.9,6.38c.3-.42.34-.89.13-1.45.17.04.27.07.37.09,1.06-.32.49-1.82,1.3.36.03.07.16.1.28.17.06-.19.11-.36.2-.64.07.39.13.66.18.96-.13.01-.23.02-.33.03.06.19.12.35.18.53.12-.11.24-.37.45-.09-.2.43-.31.66-.45.77l2.19.7c.15-.2-1.38,2.95-.94,4.06-.25.26-.5.53-.77.82-.02,0-.03-.01-.05-.02-.75,2.04-1.7,4.64-2.8,7.61,0,0,0,.01.01.02,0,0-.01,0-.02,0-2.74,7.41-6.37,17.11-9.92,26.27.03-.01.04-.03.08-.04-.05.32-.07.39-.23.43-.18.46-.36.92-.53,1.37.25.08.34.16.6.43-.04.11.04.05-.27.22-.13-.31-.08-.19-.18-.43-.11-.01-.18-.02-.23-.02-.22.56-.43,1.11-.65,1.66.11-.15.2-.21.39-.05-.42.32-.47.38-.51.35-5.89,14.52-7.78,20.19-13.58,29.02,0,.01.02.02.03.03-.07.06-.09.08-.11.08-11.06,12.55-27.06-2.26-32.21-19.8-.02,0-.03,0-.05,0,.13-.44-.53-.99-.28-1.23-.12-.46-.23-.91-.33-1.37,0,0,4.36-.5,7.43,2.66.02,0,.03-.02.05-.03-.34-1.4-.69-3.22-1.03-5.23,0,0,0,0-.01,0-.01-.3-.1-.61-.14-.92-.05,0-.1,0-.15.01-.1-.14.04-.2.1-.28-.08-.48-.16-.96-.23-1.45-.18.18-.41.01-.61.06.18-.22.4-.07.6-.09-.36-2.28-.7-4.66-1.01-6.9-.07.23-.05.2-.16.18.07-.33.06-.34.14-.31-.72-5.28-1.23-9.69-1.23-9.69.13-.02-2.63,1.44-5.34,4.01v-.08c-1.25,1.06-2.63,2.34-4.04,3.82.08.06.09.17.11.41.21.05.42.09.65.14-.03.13-.05.22-.07.3-.33-.03-.86-.12-1.21-.3-.08.09-.16.18-.25.27.12.19.19.9.63,1.04.06-.19.11-.36.19-.64.07.39.13.66.18.96-.13.01-.23.02-.33.03.06.19.12.35.18.53.12-.11.24-.37.45-.09-.4.86-.45.9-1.07.89.05-.11.09-.2.14-.32-.11-.02-.21-.04-.34-.06.11-.35.22-.68.08-1.02-.66.2-.41.17-.99.02.1.28.32.46.12.72-.48-.06-.48.19-.77.39-.31-.27.24-.7.28-1.03-2.88,3.42-5.67,7.71-7.54,12.83.2-.12.45-.15.59-.32.01.01.02.02.03.04,2.35-1.08,4.65-2.04,6.37-1.41-.18,29.65,35.69,39.01,38.08,58.68,3.22-3.17,7.58-4.71,12.58-5.53-.1-.16.14-.21.21-.03,1.6-.26,3.26-.45,4.98-.59-.22-.1-.36-.17-.57-.27.13-.14.23-.24.36-.38.08.22.14.39.23.65.46-.04.93-.07,1.39-.1-.02-.05,0-.05.06-.07.01.03.02.04.03.06,4.16-.28,8.56-.36,13.01-.62.03-.06.06-.12.13-.18,0,0,.01,0,.02.01-.02-.03,0-.11.14-.62.09.25.21.49-.09.65h0,0s.04.07.06.11c.16,0,.32-.02.48-.03.03-.41.02-.37.13-.41.08.11.16.21.27.35-.03.02-.06.03-.08.04.07,0,.14,0,.22-.01.03-.07.06-.14.1-.21.1.08.13.09.13.19,2.56-.18,5.12-.44,7.64-.85-.03-.05-.07-.09-.14-.14.21-.07.36-.07.39.09,4.13-.8,8.61-1.66,12.13-3.89.03.06.03.1.05.15.17-.08.33-.18.49-.27.02-.03.03-.05.06-.09,0,.03,0,.04,0,.06,2.64-1.39,5.14-3.17,7.41-5.46-.18,0-.21-.18-.14-.35Zm.44-118.7c.06.3.08.25-.03.25-.05-.28-.07-.23.03-.25Zm.13,1.76c-.17.11-.26.05-.34-.15.2-.09.29-.03.34.15Zm-1.35-5.15c-.2.16-.12.17-.3.04.14-.18.07-.15.3-.04Zm-.76,1.57c.17.22.18.16,0,.28-.15-.22-.14-.15,0-.28Zm-23.8,1.32q.34-.07.41.26c-.16-.1-.26-.17-.41-.26Zm.43-1.97c-.16-.14-.06-.24.06-.38.34.27.02.45-.06.38Zm-18.97,72.12c-.27-.08-.23-.06-.17-.19.07.06.25.08.17.19Zm-41.1,10.12c.31-.06.37.14.49.33-.16.02-.21.05-.26.02,0,0,0,.01.02.02,0,.22-.1.23-.31.14.24-.15.27-.18.29-.16-.05-.04-.09-.13-.22-.34Zm-5.2-2.14q-.26.05-.44-.15c.13-.31.25-.6.42-1,.19.46,0,.81.02,1.15Zm2.77-10.49c-.15-.1-.42-.05-.49-.4.23.16.49.09.49.4Zm-.09.24s0,.04-.01.07c-.33.01-.27.04-.3-.06.22-.11.14-.09.31,0Zm-.65.87c.13-.2.13-.38,0-.56.34-.16.52.07.73.21-.08.47-.38.73-.76.9-.04-.02-.08-.05-.11-.07.04-.16.05-.35.14-.48Zm-1.05-8.22s.26,4.37.9,9.05c.42,3.07,1.04,6.42,1.86,8.61-.24-.11-.61-.31-1.03-.53.06.18.04.16-.04.18-.02-.07-.04-.15-.06-.22,0,0,.01,0,.02,0-1.11-.56-2.6-1.2-3.66-.83.67-6.39,2.02-16.26,2.02-16.26Zm-2.04-.52c-.29.19-.2.19-.32.02.2-.12.12-.1.32-.02Zm91.46,57.26c.14.05.27.1.41.15-.68.73-.82.91-.41-.15Zm.36-2.09c-.22-.18-.2-.13-.14-.22.24.13.22.08.14.22Zm-.22-3.69c.13-.23.25-.34.52-.33-.07.31-.27.28-.52.33Zm.38,4.32c.2-.1.23.07.32.34-.19-.06-.3-.09-.41-.12.03-.08.04-.19.1-.22Zm.17-2.45c.02-.22.03-.34.05-.5q.18.28-.05.5Zm.01,4.37c.1-.03.19-.05.33-.09.04.18.07.33.11.49-.34.08-.22-.33-.44-.4Zm.91-3.43c.02-.09.09-.07.19-.05-.09.11-.09.17-.19.05Zm.77.9c-.13,0-.09.12-.19-.76.08-.02.16-.05.24-.08.31.34-.06.56-.05.84Zm-.36-2.74q.35.02.29.56c-.1-.2-.18-.35-.29-.56Zm.4,1.08c.08-.22.04-.19.17-.14-.11.21-.07.18-.17.14Zm.47-4.48c.15-.06.3-.11.46-.17q-.06.29-.46.17Zm2.03-5.79c-.12,0-.08.05-.23-.31.25.03.25.16.23.31Zm.43-1.5c.28.03.23,0,.23.12-.29.05-.24.09-.23-.12Zm.41,6.75c-.26.03-.17.03-.32-.04,0-.03.02-.05.02-.08.35.04.3.01.3.11Zm.14-5.07s.06-.06.09-.09c.04.09.08.17.12.27-.19.02-.26-.02-.22-.17Zm.19-2.17c.15-.2.08-.19.32-.01-.18.15-.1.17-.32.01Zm.42,1.19q0,.3-.28.66c-.09-.29.05-.45.28-.66Zm-.22,16.31c-.14-.23-.03-.37.15-.5q.21.36-.15.5Zm.15-1.73c-.07-.15.21-.21.18-.09-.06.03-.12.06-.18.09Zm.33-7.32c-.31-.16-.28-.1-.19-.25.29.18.26.13.19.25Zm.23,1.86c-.19.23-.13.22-.29.07.19-.24.12-.24.29-.07Zm-.33.78c-.1-.15-.04-.26.12-.33.37.2-.03.47-.12.33Zm.42.61c-.12-.11-.14-.04.05-.32.17.14.17.07-.05.32Zm.19-4.55c.73.29-.2.64-.1.03.07-.02.08-.03.1-.03Zm-.06-2.22c.17-.21.12-.19.2-.14-.13.24-.08.22-.2.14Zm.07,8.05c.17-1.21.13-1.26.38-.14-.09.03-.21.08-.38.14Zm.39-7.4c-.23-.21-.12-.34.05-.52.15.22.15.37-.05.52Zm-.06-8.45c.07-.25.02-.18.21-.24.02.03.05.06.07.09-.25.22-.2.2-.28.15Zm.6,9.4c.19-.08.11-.1.32.09-.26.06-.18.1-.32-.09Zm.78-2.8c.1.16.17.26.23.37q-.34.07-.23-.37Zm1.07.84c-.34.34-.27.31-.38.25.02-.12.04-.24.07-.39.25.06.17.02.3.15Zm-.11-2.77c-.39-.06-.33,0-.29-.22.38.11.33.06.29.22Zm-.35-3.7c.05.28.06.23-.05.25-.06-.27-.07-.22.05-.25Zm.17,3.93c-.06.12-.12.25-.18.38q-.19-.17.18-.38Zm-.36-4.74h-.58q.19-.18.58,0Zm-.33,2.35c-.16.15-.25.11-.36-.05.15-.12.24-.08.36.05Zm-.77,8c.09-.15.03-.14.26,0-.05.09,0,.09-.26,0Zm.12-8.11c.16.17.17.12,0,.24-.13-.19-.11-.13,0-.24Zm.09,2.66c-.18.13-.33.18-.54-.06.24-.09.39-.17.54.06Zm-.31-1.44c-.16.2-.1.17-.23.09.16-.2.11-.18.23-.09Zm-2.02-5.93c-.14.13-.09.13-.22-.03.12-.09.07-.11.22.03Zm-.24,1.4c-.11.15-.21.28-.37.5-.07-.26-.11-.42-.15-.6.17-.09.34-.08.52.1Zm-1.64,1.39c-.29.1-.19.14-.4-.05.17-.15.07-.14.4.05Zm-.79-.31c-.04.13-.17,0-.26-.02.09-.12.05-.14.26.02Zm-3.19,3.33c.59,0,.5-.03.55.13-.38-.15-.36.25-.64.45.04-.27.07-.41.09-.58Zm-.23.82c-.2.29-.41.32-.87.11.3-.46.31-.5.87-.11Zm-3.15,1.8c-.02.37-.38.43-.47.13.08-.25.27-.15.47-.13Zm-4.89,2.2q.23-.25.49-.08-.28.25-.49.08Zm2.94.22c.23-.13.46-.28.7-.43-.02-.03-.03-.06-.06-.1.05.02.08.04.12.06,5.08-3.2,12.16-10.53,12.16-10.53,0,0-4.69,9.87-7.55,13.95.11-.04.17-.05.21-.02-.04-.03-.02-.04.19-.42q0,.31-.16.44s0,0,0,0c.06.06.09.24.22.62-.37.03-.52-.13-.6-.4-.23.32-.44.6-.64.82-.17-.28-.44-.61-.74-.95,0,.19-.29.14-.38.32-.19-.58-.19-.48-.07-.57.08.03.17.02.26.02-1.18-1.25-2.93-2.62-3.63-2.82Zm4.14,5.67c-.18-.04-.3-.07-.5-.11.25-.2.36-.13.5.11Zm-.67-.77c.17-.09.25-.14.39-.22-.04.26-.14.29-.39.22Zm.58,1.59v-.34c.17.12.19.22,0,.34Zm.02,2.42c.04-.08.07-.16.12-.28.09.26.54-.01.55.45-.23.08-.82.32-.67-.18Zm.54-1.36c-.19.14-.31.08-.42-.17.15-.11.27-.2.4-.3.18.17.23.31.02.47Zm-2.29,1.02c-.28.26-.21.25-.33.09.31-.21.24-.21.33-.09Zm-.26-.81c.11-.11.05-.11.21-.01-.15.1-.09.1-.21.01Zm-.93-1.96c-.39.02-.32.04-.34-.07.38-.08.31-.1.34.07Zm-.59.44c-.18.05-.27-.02-.29-.2.37-.19.41.16.29.2Zm-12.01,7.08c-.32-.22-.23-.51-.27-.8.39.19.34.47.27.8Zm-3.79.42c.12.28.2.18-.26.41.18-.47.13-.4.26-.41Zm-.62.57c.2.08.4.15.61.23-.29.44-.62.47-1.13.14.13-.22.45-.11.52-.37Zm-7.98.71c-.2.14-.15.14-.23.02.2-.15.15-.13.23-.02Zm-6.9-2.79c.05.21.09.36.15.57-.1.05-.26.11-.43.19-.03-.25-.05-.44-.08-.69.12-.02.25-.05.36-.07Zm-5.21-3.7c-.1.01-.18.02-.28.03q.1-.24.28-.03Zm-.8-.6c-.23-.02-.25-.18-.23-.4.52.05.37.41.23.4Zm-.2-24.74s.06-.06.11-.11c.18.16.01.3-.11.11Zm.2,2.67c.19-.3.33-.16.46,0h-.46Zm.11-6.35c-.02-.38.31-.5.43-.07-.16.03-.27.04-.43.07Zm.65,9.69c.22.37.24.19.03.74-.22.02-.42.03-.65.05,0-.63.43-.9.32-1.65.08-.05.2-.13.4-.26-.03.2-.04.32-.06.46.64-.05.52.77-.05.65Zm.09-4.48c.17-.18.09-.14.35-.06-.28.22-.19.19-.35.06Zm.51,1.49c-.22.09-.26-.2-.47-.76.72.19.63.69.47.76Zm.28-11.02c-.32.15-.25.17-.32.03.33-.16.26-.16.32-.03Zm-.24-.52c.26.09.22.05.19.16-.26-.09-.22-.06-.19-.16Zm.26.94c.25.16.09.34.13.52q-.26-.17-.13-.52Zm.04,14.11c.29-.35.17-.2.43-.55.06.45-.04.57-.43.55Zm.48-10.6c-.29,0-.25.03-.24-.09.3.02.25,0,.24.09Zm.03,9.71c.09-.09.16-.16.26-.27.13.22.03.56-.26.27Zm.15-.72c.06-.19.11-.34.16-.49q.09.29-.16.49Zm.69-19.7c0-.15-.05-.12.23-.13,0,.16.05.13-.23.13Zm.33.64c-.31-.27-.28-.19-.16-.33.26.32.24.25.16.33Zm-.24-.09c-.35.09-.37-.26-.25-.27.18-.02.24.09.25.27Zm.15.89c-.17-.05-.34-.1-.52-.16.06-.49.78-.39.52.16Zm.07.23c.1-.06.3.03.47.06.22-.23-.1-.35-.13-.54.1-.26.19-.52.33-.89.03.08.05.15.07.23h0c.16-.05.22,0,.25.08.06-.32.28-.48.35-.56.72.15.8.57.2,1.26-.19-.1-.45-.11-.53-.35-.08,0-.14,0-.18-.01.1.51.41.93.58,1.42q-.37.09-.75-.25c-.45.23-.91.41-1.42-.04.04-.13.09-.29.16-.48.23.11.39.22.61.08Zm1.45-6.12c.08.07.08,0,0,.25-.13-.16-.14-.09,0-.25Zm-.07-.24c.32-.1.26-.11.3.02-.32.08-.27.1-.3-.02Zm.19,3.49c.12.28-.42.17-.45.11,0,0,0,0-.01,0-.03.02-.13.14-.57.6-.04-.52.08-.63.57-.6.01-.01,0,0,.01,0,.21-.14.21-.21.45-.11Zm-.07.98c-.15.13-.08.14-.27.02.09-.11.02-.12.27-.02Zm-1.03-.95c-.16-.13-.16-.04-.04-.36.17.21.18.11.04.36Zm1.75,6.15v.71c-.36-.06-.61-.9,0-.71Zm-.7,1.31c-.54.19-.84-.13-1.32-.31.47-.05.63-.4,1.08-.49.06.34-.22.61.24.81Zm-1.46,1.53c-.41.03-.34.07-.36-.1.42-.06.34-.09.36.1Zm-.51-4.69c-.15-.11-.15-.06-.01-.2.12.12.1.08.01.2Zm-.28-2.29c-.06-.08-.11-.16-.18-.25q.19.01.18.25Zm-.05,4.82c.21-.1.26-.2.32-.03-.11.14-.19.07-.32.03Zm.62,4.71c-.24-.13-.17-.37.16-.37-.06.15-.1.25-.16.37Zm.2-1.45c-.36-.1-.22-.06-.56-.16.29-.23.3-.66.77-.79,0,.53-.03.47.08.36.15.21.3.41.46.62-.43.17.1.25.04.39-.33.23-.7.04-.79-.42Zm1.36,1.35c-.06-.08-.22-.09-.33-.13.02-.13-.04-.1.33-.15-.03-.14-.06-.28-.09-.45.12,0,.23-.01.37-.02-.36.46.31.57.54.89-.27.11-.56.18-.82-.14Zm.66-10.51c-.11-.18.05-.19.21-.28.03.19.05.3.09.52-.15-.12-.25-.17-.29-.24Zm.51.93c-.15-.09-.07-.16.08-.24.1.15.07.22-.08.24Zm-.11-1.26c.19-.04.12-.05.24.08-.16.07-.1.11-.24-.08Zm.76-6.71c.02-.09.02-.15.03-.19-.19-.08-.17-.05-.12-.17.08.04.12.07.14.08.01-.03.03-.02.09-.01,0,.36.04.31-.14.29Zm.26,5.75c.12.11.19.17.31.28-.15.07-.26.11-.46.2.06-.2.1-.31.15-.48Zm-.04.74c.73.3.08,1.01-.62.76.21-.26.41-.51.62-.76Zm-.3,6.64c-.16-.17-.15-.08.05-.34.08.29.09.2-.05.34Zm.68-.36c.16-.09.11-.08.2-.01-.14.11-.09.09-.2.01Zm.91-4.57c-.26.08-.49.11-.71-.02-.02.36-.36.24-.51.36-.21-.12-.39-.22-.6-.34.5-.3.45-.83,1.01-1.13.19.32.67.14.78.59.27-.12-.41-.63.23-.68.11.14-.05.4.2.48.02,0-.05.23-.03.21-.18.13-.48.17-.36.52Zm-.01-18.02c-.11-.17-.13-.1.03-.24.09.11.11.04-.03.24Zm.38,14.26c-.22.39-.14.35-.36.21.26-.35.18-.32.36-.21Zm-.32,1.3c-.15-.1-.26-.18-.38-.26.4-.15.41-.14.38.26Zm-.75-7.21c.13.09.23.16.4.29q-.42.11-.4-.29Zm1.22,9.49c-.11-.27-.14-.33-.14-.34,0,0,0,0,0,0,0,0,0,0,0,0,.08,0,.15.02.26.03-.03.09-.06.16-.11.31Zm-.02-3.34c.07-.1.14-.2.23-.33.28.22.1.47-.23.33Zm0-.76c-.45-.75-.11-1.23.43-.55-.23.08-.49.13-.43.55Zm.15-18.03c.17.22.18.14-.1.35-.12-.17-.16-.08.1-.35Zm.13-.25q.08-.32.3-.42c.04.22-.01.36-.3.42Zm.35-2.99c.34-.14.39.1.04.16-.01-.05-.03-.1-.04-.16Zm.05,20.68q.29-.04.44.27-.28.07-.44-.27Zm.16-18.36c.15-.34.32-.4.79-.3-.19.37-.34.43-.79.3Zm1.11,12.71c-.03-.27-.04-.45.22-.55.1.25.07.42-.22.55Zm.37-13.6c-.43-.05-.39-.27-.39-.32,0,0-.01,0-.02,0,0,0,0,0,.01-.01,0,0,0,0,0,0-.44-.09-.34.01-.45-.51h.75c-.19-.27-.32-.47-.49-.71.17-.09.3-.17.44-.24.66.95-.19,1.43-.25,1.45,0,0,0,0,0,.01.24-.04.44-.02.39.32Zm.27-1.67c-.28-.15-.25-.09-.17-.24.27.14.22.09.17.24Zm.27,16.62c.1-.13.25-.07.38.02-.43.07-.35.08-.38-.02Zm.08-7.12c.08.11.2.19.05.26-.21-.15-.14-.15-.05-.26Zm.96.73c-.35-.1-.39-.41-.4-.77.36.12.86-.19,1.08.39-.23.14-.36.46-.68.37Zm-.39-1.95c.09,0,.17.02.26.02-.04.19-.36.09-.26-.02Zm.48-2.43s.04-.06.07-.1c.05.04.08.06.12.09-.06.07-.14.15-.19.02Zm.48.84c-.13-.2-.12-.12.03-.32.11.26.12.18-.03.32Zm.55-7.05c-.34-.38-.34-.45,0-.62v.62Zm.42-3.69c.03-.17.03-.37.39-.29-.37.43-.29.39-.39.29Zm.5-2.73c.23.21.25.08,0,.48-.23-.29-.26-.17,0-.48Zm.16,4.55c-.11.07-.18.11-.24.15-.22-.4-.26-.34.24-.15Zm.14,2.77c-.21-.07-.11-.23,0-.35.05.04.11.09.28.23-.12.05-.21.11-.29.11Zm1.64-8.65c.17-.85-.9-1.07,0-1.32.6,1.06.88,1.32,0,1.32Zm.8-3.58q-.26.05-.44-.15c.13-.31.25-.6.42-1,.19.46,0,.81.02,1.15Zm.65,2.36c-.28-.2-.25-.14-.14-.27.24.25.22.19.14.27Zm-.13-11.68c.11-.29.18-.44.42-.28,0,0,0,0,0,0h0s0,0,0,0c-.11.08-.23.15-.42.28Zm.55-.47c.32.18.43.48-.04.5-.1-.39-.11-.25.04-.5Zm.17.6c.15.04.25.06.43.1-.23.18-.33.17-.43-.1Zm.8-.75c.34-.16.52.07.73.21-.08.47-.38.73-.76.9-.04-.02-.08-.05-.11-.07,0-.37.4-.71.15-1.05Zm.24-.95c.23.16.49.09.49.4-.15-.1-.42-.05-.49-.4Zm.4.64s0,.04-.01.07c-.33.01-.27.04-.3-.06.22-.11.14-.09.31,0Zm-.02,9.97c-.02-.07-.04-.15-.06-.22.18-.03.16.28.06.22Zm-.24,4.42c.09.19-.17.21-.22.36-.5-.23-.59-.21.22-.36Zm-.65-.4q.27-.1.57.07c-.22-.03-.37-.04-.57-.07Zm.52-1.63c.28-.12.2-.12.3.01-.25.15-.17.14-.3-.01Zm-.38-10.64s-.03.09-.06.16c-.07-.04-.1-.06-.14-.08.04-.09.13-.17.2-.08Zm-.03,11.2c-.09.02-.17.04-.26.06-.01-.22-.02-.41-.03-.63.27.1.23.34.29.57Zm-.22,3.23c-.01.18-.03.32-.04.53-.31-.21-.3-.25.04-.53Zm-.06,2.38q-.09-.42.15-.52c.09.19,0,.32-.15.52Zm.14-2.68s0,0,0,0h0s0,0,0,0c-.16.4-.39.11-.33-.24.26.19.32.23.33.24,0,0,0,0,0,0t0,0s0,0,0,0c.09.01.18-.01.35-.02-.18.23-.25.07-.34.03Zm.94-.5c-.05.21-.28.38-.45.58q-.03-.32.23-.68c-.32-.02-.19,0-.5-.1.41-.11.56-.59,1.08-.4-.21.18-.3.37-.36.61Zm-.01-2.02c.06-.22.08-.32.12-.45.11.03.2.06.38.11-.17.12-.29.2-.5.34Zm.12-.67c-.03-.32.25-.21.51-.17-.17.26-.41.33-.51.17Zm.66-13.43c.09-.39.04-.33.2-.29-.12.37-.07.32-.2.29Zm.14-9.81c.23-.66.57-.63.97-.2-.26.32-.58.14-.97.2Zm1.63,13.76c.05.37-.14.57-.46.38.18-.15.3-.25.46-.38Zm-.37-.98c.41.07.35.02.31.19-.39-.13-.33-.09-.31-.19Zm-.11,2.06c-.18-.22-.15-.17-.09-.24.21.19.2.14.09.24Zm-.24-2.25c.21-.22.15-.21.27-.09-.21.22-.15.19-.27.09Zm-.04.33c-.15.25-.41.02-.11-.29.06.15.11.22.11.29Zm-.45,3.72c.2-.24.44-.03.65-.09-.19.27-.44.05-.65.09Zm.59-.32c.11-.14.18-.24.22-.29.32.09.59.16.89.24-.14.31-.35,0-.51.04-.18.04-.37,0-.6,0Zm.71-18.21c0-.13-.05-.08.36-.27.24.35-.13.4-.36.27Zm.14,3.7c-.15-.14-.17-.04.03-.38.18.19.2.09-.03.38Zm-.04-8.4c.23-.18.14-.16.36.05-.22.11-.13.14-.36-.05Zm.18,3.6c-.09.03-.19.06-.32.1.03-.26.13-.29.32-.1Zm.46,15.66q-.34.34-.79,0c.14-.43.15-.36.79,0Zm-.42-7.18c.43-.35.53.17.36.23-.18.07-.28-.04-.36-.23Zm-.31,11.87c-.09-.47.09-.77.52-.87-.2.33-.34.57-.52.87Zm.22-4.01h.56c-.11.32-.18.33-.56,0Zm.65-12.03c-.3.1-.28.04-.52-.08.16-.12.53-.22.52.08Zm-.32-4.29c.32-.03.26-.06.29.07-.33.09-.27.11-.29-.07Zm.19.42c-.12.18-.23.09-.12-.1.06.05.09.07.12.1Zm.2,15.71c.1-.29.16-.48.24-.71.2.03.38.06.6.09-.05.2-.08.35-.13.53-.21.03-.42.05-.71.08Zm.82-8.88c.24-.16.36-.11.48,0h-.48Zm-.1,2.92c-.05-.13-.1-.35.1-.41.14-.03.24.3-.1.41Zm-.13-12.44c.38,0,.32-.04.33.12-.17.05-.26.13-.33-.12Zm.45,19.45c-.33-.17-.19-.36.09-.12-.03.04-.06.08-.09.12Zm.16,1.83c-.13-.07-.03-.16.06-.21.03.03.05.07.1.13-.06.04-.11.07-.16.08Zm-.17-19.15s.1-.09.16-.13c.06.09.12.18.21.32-.3.04-.39-.03-.37-.19Zm.65,15.04q-.1-.42.43-.42c-.16.16-.27.26-.43.42Zm-.1-12.82s.07-.07.14-.14c.23.23-.05.43-.14.14Zm1.62,11.42c-.03-.29-.06-.24.06-.25.03.29.05.24-.06.25Zm2.5,2.86c-.35,0-.3.04-.28-.11.34.04.29,0,.28.11Zm.99-.8s.08,0,.13-.01c.01.02.03.04.04.06-.11.17-.43.15-.16-.05Zm.08,2.09c.26-.15.16-.13.36.04-.33.13-.23.12-.36-.04Zm4.97,5.48c-.12-.09-.22-.16-.36-.27.23-.19.41-.25.62,0-.08.09-.17.18-.26.28Zm4.09-4.56c-.09-.27-.1-.22.04-.25.06.27.07.22-.04.25Zm2.09,4.61c-.26-.23-.24-.17-.15-.28.29.21.27.14.15.28Zm1.02-2.72c-.21-.03-.12.05-.32-.26.13-.04.22-.06.36-.1-.02.15-.03.25-.04.36Zm2.5,3.33c-.32-.05-.27-.02-.26-.11.33.03.28,0,.26.11Zm-.28-1.32c.4.08.35.03.31.2-.39-.12-.34-.07-.31-.2Zm.33,3.92c.3,0,.24-.03.26.1-.31.04-.25.07-.26-.1Zm-.1-5.15c.14,0,.28-.02.47-.03-.18.41-.33.15-.47.03Zm.93,4.28c-.13-.18-.11-.1,0-.31.13.3.13.22,0,.31Zm.52.49c-.42-.22-.37-.15-.3-.3.42.21.38.14.3.3Zm.72-2.21c.02.1-.19.18-.38.08.21-.25.27-.61.75-.67-.13.29-.43.29-.36.59Zm.98-.41c-.41.04-.34.07-.36-.08.43-.04.37-.07.36.08Zm.54-1.15c.07.05.14.1.23.17-.27.18-.18-.08-.23-.17Zm1.76-3.65c.02.12.04.21.05.27-.74.26-.64-.09-.05-.27Zm-.41.18c-.07.07,0,.1-.35-.25.29.01.33.12.35.25Zm-1-.99c-.32.07-.26.09-.3-.03.32-.13.26-.14.3.03Zm-1.22-.66c-.14.18-.28.35-.49.61-.12-.23-.23-.42-.33-.61q.61-.15.82,0Zm-.14,1.16c-.13.1-.09.09-.17.02.11-.11.06-.1.17-.02Zm-3.01-1.8c-.31,0-.26.03-.27-.08.31-.04.26-.06.27.08Zm-.45-.99c-.11.19-.06.19-.22.06.18-.13.12-.11.22-.06Zm-.31.7c-.16-.12-.25-.18-.39-.29.26-.06.35,0,.39.29Zm-1.05-.05c-.33.03-.27.05-.3-.07.34-.07.28-.09.3.07Zm-.83-1.24s.06.05.12.1c-.14.2-.3.04-.12-.1Zm.05.76c.09.19.18.33-.01.45-.1.06-.42-.16.01-.45Zm-2.72-.57c.05.17.08.26.11.39q-.17-.11-.11-.39Zm-5.81-2.51c.01.23.02.42.04.62-.34.12-.43-.09-.55-.29.17-.11.32-.2.51-.33Zm-.86-1.27c-.25.44-.44.48-.7.13.26-.05.47-.09.7-.13Zm-1.08.88c.12.18.22.32.32.47-.1.08-.2.15-.29.23.28.2.74.06.96.34l4.49,1.59c.02-.05.04-.12.08-.21.11.18.1.16.17.3l3.8,1.34c.1-.05.21-.09.32-.14-.03.1-.05.16-.08.22l2.77.98s.03-.05.06-.1c.07.1.1.11.08.14l.95.34s-.06-.06-.08-.08c.21-.28.4-.02.61.02.11-.08.22-.16.39-.29-.21-.08-.29-.11-.38-.15.07-.21.4-.24.54-.01.17.26.37-.07.47.19.14.38.08.63-.04.85l1.65.58c.12-.05.1-.03.14.05l.38.13-.45,1.11c.49-.18.4.25.81-.25.19.12.36.24.6.4-1.34.16-1.41.2-1.5.09l-.5,1.25-12.63-5.42s-.03.03-.08.07c-.07-.1-.1-.12-.1-.15l-3.79-1.63s-5.04-2.17-5.11-2.19l.4-1.16,4.99,1.76c-.21-.28-.2-.32.06-.66Zm-4.93-3.98c.06-.08.12-.02.19.05-.11.05-.14.12-.19-.05Zm6.57-11.28c.14-.17.07-.13.31-.07-.21.19-.13.18-.31.07Zm-4.14-.76c3.92-.06,6.36-1.78,7.89-4.07-.11-.2-.07-.27.1-.54.07.04.12.09.16.14.64-1.06,1.11-2.22,1.44-3.38.03,4.4-2.31,9.13-9.58,7.84Zm9.35-13.49c.04-.14-.02-.13.25-.06-.02.11.03.09-.25.06Zm-.39-3.69c.08-.1.35.06.47.12-.44.35-.55-.02-.47-.12Zm-.15,10.41s.09.06.13.1c-.04.04-.07.08-.15.16-.07-.13-.13-.23.02-.26Zm-.57-9.35c.22.25-.17.22-.3.34.02.13.04.27.06.43-.36.06-.33-.32-.53-.39,1.12-1.65.44-.75.76-.38Zm-.68-1.99c-.18.28-.13.25-.26.18.13-.31.07-.28.26-.18Zm-.31,4.12c.18.08-.06.26-.19.22.02-.09-.02-.25.19-.22Zm-.37.26c.06-.05.19-.03.17-.05-.03.1-.07.19-.1.29,0,0,0,0,0,0h0s0,0,0,0c.14-.01.42-.09.25.23-.19-.18-.23-.22-.25-.23,0,0,0,0-.01,0h0s0,0,0,0c-.01,0-.02,0-.04-.01,3.89,6.05-2.79,14.32-9.6,11.56-6.56-2.13-6.95-11.96-.73-14.68-.09-.1-.12-.21-.03-.37.19.05.25.14.24.27,3.38-1.67,8.15-.22,10.03,3.07.02-.03.04-.06.06-.08Zm-12.93-2.83c.06-.27.28-.26.44-.33-.04.24-.16.37-.44.33Zm1.11-1.45c-.15.07-.15.06-.36-.22.2.04.3.06.42.08-.03.06-.03.12-.06.14Zm.04,2.04c-.16.13-.07.17-.4-.21.32-.09.36.06.4.21Zm7.05-3.32c.3.1.26.06.24.19-.33-.03-.28.01-.24-.19Zm2.53-.45c-.05.17-.08.27-.12.41h.69c.16.24,0,.32-.13.38-.23-.08-.43-.15-.63-.22q-.1-.37.19-.58Zm.48,2.76c-.13.14-.24.26-.38.42-.05-.32-.44-.42-.4-.8.66,0,.49-.1.78.38Zm-.75.41c.13.07.12,0,.07.25-.16-.12-.16-.05-.07-.25Zm-.19-.96c-.23.41-.52,1.16-.79.64.46-.67.42-.75.79-.64Zm-15.14,1.96c-.07.13,0,.13-.25.07.12-.16.05-.16.25-.07Zm-.61,1.41s.13-.18.19-.12c2.27-5.5,10.51-8.11,15.34-4.99-6.49-1.73-12.81,1.53-15.84,6.65.08-.49.23-.96.4-1.41-.03-.03-.05-.06-.08-.13Zm2.78,2.47c-.05.14,0,.14-.27.04.05-.15,0-.13.27-.04Zm-.43-.47c.21.52-.18.83-.48.22.19-.09.32-.15.48-.22Zm-.36-.21c.15-.16.09-.14.26-.04-.21.16-.14.13-.26.04Zm-2.52,2.76c.28,0,.23-.03.25.08-.28.04-.23.06-.25-.08Zm.47,2.47c.15-.11.3-.18.57.05-.65.09-.55.11-.57-.05Zm1.04-4.23c.09-.07,0-.09.48.16-.33.18-.21.23-.48-.16Zm.63-.05q.37-.07.39.2c-.13.08-.04.12-.39-.2Zm-5.88,20.43c.04.08.21.19.08.25-.22-.18-.19-.15-.08-.25Zm-.29-.39c.08.19-.01.3-.24.36-.27-.51.19-.48.24-.36Zm-17.8-7.66c-.05.36,0,.3-.17.28.04-.36.01-.29.17-.28Zm-6.81,9.51c.04-.1-.01-.09.26-.02-.06.13,0,.13-.26.02Zm.21-.62c.11-.04-.02-.08.56.19.04.16.08.31.12.46-.43,0-.68-.19-.68-.65Zm2.13-1.97c.38-.18.3-.18.38-.04-.37.21-.29.21-.38.04Zm2.31-.71q.21.05.23.26c-.08-.09-.14-.16-.23-.26Zm.22-.42c-.37-.21-.33-.17-.29-.25.43.13.37.07.29.25Zm6.11,6.89c-1.57-.24.15-2.41.43-.5,0,.23-.22.49-.43.5Zm.48-3.99c.27-.18.52-.35.81-.54.03.64-.17.76-.81.54Zm.79,2.05c.11-.25.07-.23.2-.14-.15.23-.1.2-.2.14Zm.49,1.32c.2.06.44.07.43.37-.31.08-.31-.22-.43-.37Zm.19-4.38c.05-.38,0-.32.17-.3-.08.38-.03.32-.17.3Zm7.22,6.74q.02-.28.24-.16c-.08.05-.15.1-.24.16Zm2.44-.18c-.48.05-2.35-.57-1.4-1.1.34.42.89-.04.82.66.21.05.42.09.65.14-.03.13-.05.22-.07.3Zm-.7-2.95c1.3,0,1.27-.04.67.41.24.03.47.06.7.09q-.11.22-1.2.37s0,0,0,0c0,0,0,0,0,0q.1.31-.19.28c-.08-.24.24-.24.19-.28h0s-.16-.12-.68-.52c.21-.14.39-.27.5-.34Zm-.21-.45c.22-.04.31,0,.27.28-.11-.11-.18-.18-.27-.28Zm-.05,1.29c-.15,0-.33.09-.36-.28.48.21.42.15.36.28Zm-.2-.73c-.07-.02-.14-.03-.21-.05.05-.16.31-.03.21.05Zm.22,1.18c.19.48-.19.47-.45.55-.02-.33.29-.32.45-.55Zm1.5,1.12c.17-.13.25-.04.38.07-.17.11-.28.1-.38-.07Zm.74-2.68c-.28-.05-.25-.01-.2-.16.26.1.2.06.2.16Zm-.78-.82c-.25.34-.29.79-.8.88-.13-1-.33-.81-.66-1.34l-6.98-2.19c-.07.42-.52.18-.39-.12-.16.02-2.12-.85-2.06-.41.06.02.12.04.21.08.04.17-.34.15-.2.41.06.1-.03.29-.06.47-.57-.2-.49.28-.92.5-.21-.61.21-1.01.28-1.52.31.18.3.11.54-.2l-8.37-2.63,1.18-2.9,23.64,9.1,4.02-10.96,1.53.97-.03.09c.08.15.06.12-.05.25-.01-.01-.02-.02-.03-.03l-.41,1.12c.22.05.27.23.18.5.26.13.22.09.2.21-.13,0-.26-.01-.42-.02-.02-.12-.03-.25-.08-.35l-3.73,10.18-6.6-2.07Zm2.3,4.83c-.06.25-.02.21-.17.17.05-.24.01-.19.17-.17Zm-1.02,6.57c-.29.04-.24.06-.25-.07.29-.03.24-.06.25.07Zm-.69-1.79c.14.18.17.1-.16.36-.27-.15-.08-.45.16-.36Zm-.06,2.87h-.42c-.02-.16-.04-.32-.07-.51.39-.05.25.42.48.51Zm-3.07,9.58c-.08.17.04.17-.59-.11.25-.11.44-.06.59.11Zm-.84.93c.08,0,.17.01.31.02-.09.24-.43.11-.31-.02Zm-.43,1.85q0,.32-.52.32c.16-.1.33-.2.52-.32Zm-.73-.04c-.13.04-.23.1-.24-.04.1-.14.17-.02.24.04Zm-7.11,20.66c.05.14.09.1-.18.2-.06-.14-.09-.09.18-.2Zm-.55,1.72c-.2.09-.1.09-.4.05,0-.04,0-.08,0-.12.45-.02.38-.05.41.07Zm-.43.64c.24.18.24.13.02.26,0,0,0,0,0,0h0c.04.29.1.27-.26.07.02-.09-.03-.07.26-.07,0,0,0,0,0,0,0,0,0,0,0,0-.08-.23-.08-.19-.02-.26Zm-.13-.84c-.32.02-.27.04-.28-.04.32-.06.26-.08.28.04Zm-.43,2.22c-.04.13-.07.22-.11.32-.67-.37-.58-.32.11-.32Zm-3.58,9.55c.23.23-.12.36-.18.17.05-.05.1-.09.18-.17Zm-.73.13c-.15.2-.11.18-.18.14.1-.23.06-.2.18-.14Zm-2.17,8.2c-.13.08-.22.14-.34.21q.03-.26.34-.21Zm-.53,1.45c-.31.03-.38.03-.4.04,0,0,0,0,0,0,0,0,0,0,0,0,.07-.26.08-.26.4-.04Zm-.43.06s.02-.02.02-.03c.03.03.01.03-.02.03-.14.19-.34.22-.62.15.23-.24.52-.17.62-.15Zm-1.14.23c.5.06.52.14.2.75-.33-.19-.2-.48-.2-.75Zm-.04,1.31c.08.08.05-.02.12.37-.36.27-.56-.43-.12-.37Zm-3.8,4.53c.09.08.17.14.26.22-.13.3-.31.29-.56.15.11-.13.19-.24.29-.37Zm-4.3,8.15c-.04.21-.05.3-.08.44-.47-.21-.35-.12-.41-.38.14-.02.28-.04.49-.06Zm-8.54,1.06c.11.3.08.17.04.49-.26-.42-.26-.31-.04-.49Zm-3.75-.78c.17-.11.3-.05.43.18-.18.06-.3.11-.43.15-.15-.13-.13-.25,0-.33Zm-6.84-2.46c.24.17.21.14.11.23-.05-.08-.23-.15-.11-.23Zm-1.58-1.47c-.2.12-.12.15-.3,0,.15-.14.08-.14.3,0Zm-.83-1.06c.1.12.12.07,0,.2-.14-.13-.14-.09,0-.2Zm-6.23-10.05c-.12.2-.22.29-.45.19.1-.24.25-.22.45-.19Zm-4.35-29.1c.34.12.29.08.29.15-.21,0-.12.02-.32-.08,0-.03.02-.05.03-.08Zm-.73-.11c.26.1-.02.25-.15.46-.08-.31,0-.42.15-.46Zm.02.7c-.27.07-.2.09-.28-.09.2-.08.13-.09.28.09Zm-2.77,2.29q-.11.21-.44.03c.22-.01.32-.02.44-.03Zm.01,1.05c-.17.1-.28.1-.38-.07.17-.13.25-.04.38.07Zm-1.16,5.29c-.21.06-.28-.07-.34-.26.41-.19.48.22.34.26Zm-.82.14c.39-.28.28-.24.94.31.03-.32-.02-.61.35-.68.1.33-.06.57-.18.82.85.32.37,1.12.59,1.92-.25.26-.5.53-.77.82-.59-.36-.64.02-.92-.18-.18-.37-.46-.16-.74-.2.02-.22.05-.44.07-.67.36-.14.32.24.45.47.48-.36.7-.57.62-1.11-2.4-.94-.98-.31-1.53-1.15.46-.71.73-.07,1.13-.35Zm-.86,1.41c.13.03.24.05.41.08-.17.27-.44.29-.41-.08Zm.66.64c.14-.24.26-.15.37-.14.01.15.08.11-.37.14Zm-2.04-3.59c.4-.14.17.51.56.41-.3-.19-.1-.33.03-.48-.05-.17-.09-.35-.16-.59.18.06.28.09.38.12.03-.21.06-.42.1-.71.25.21.43.37.62.53.06-.06.12-.13.18-.2.22.34.17.4-.42.53.22.73.24.46-.14,1.21.37.01.52.2.56.5-.14.05-.27.1-.37.13-.48-.34-.93-.66-1.39-.98.02-.12.04-.28.06-.44Zm.23,4.3c.13-.11.17-.14.18-.16,0,0,0,0,0-.01,0,0,0,0,0,.01-.02.26.02.23-.18.16Zm.3,1.39q-.23,0-.17-.41c.08.2.12.3.17.41Zm-.99-2.02c.01.13.03.28.05.45-.31-.03-.58-.06-.84-.09.29-.05.36-.54.79-.36Zm-.15-1.09c-.33-.03-.28,0-.27-.12.33.04.28,0,.27.12Zm-.13,2.44c.16-.09.27-.06.35.23-.46-.12-.4-.06-.35-.23Zm.4.63c-.05.11,0,.1-.15.06.03-.09,0-.08.15-.06Zm-.2-2.46c.19-.07.37-.15.57-.23.32.3-.37.58-.57.23Zm.56-1.98s.02,0,.03,0c.22.03.44.07.72.11-.62.42-.66-.03-.72-.11-.01,0-.02,0-.03,0Zm.94,1.9c-.18.07-.3.11-.43.16q.11-.23.43-.16Zm-.25-.92c.31-.03.26-.06.25.11-.3-.03-.25,0-.25-.11Zm-.69-.99c-.14.02-.25.01-.25-.18.33-.12.21.23.25.18Zm-.06,1.31c-.26-.09-.42-.14-.62-.2.04-.1.07-.15.1-.23-.1-.03-.19-.07-.4-.14.25-.08.4-.12.6-.19.1.24.19.46.31.77Zm-.61-.94c-.07-.06-.13-.11-.23-.19.19-.17.23-.2.21-.18.2.1.1.22.02.37Zm-.01-.38s0,0-.01,0c-.17.04-.33.07-.33-.31.26.25.32.3.33.31,0,0,0,0,.01,0Zm-1.07.99c.37-.04.31.27.38.48.87.12.61-.03.66.52,0,.57-.81-.08-.76-.42-.35.09-.28-.19-.28-.58Zm.02,2.94c-.06-.11-.13-.24-.27-.48,1.06.24,1.21.19.27.48Zm.59.88c-.2.16-.1.18-.37-.02.13-.15.03-.17.37.02Zm-4.57,3.59c-.16-.2-.14-.12.02-.31.11.23.11.15-.02.31Zm1.34-2.86q.1-.21.33-.19c-.1.06-.19.11-.33.19Zm1.71,2.04c-.07-.14-.12-.23-.18-.34.28-.02.38-.42.75-.27-.18.2-.35.38-.57.61Zm.37-1.58c-.29-.5-.16-.43-.54-.38.11-.49.57-.25.73-.53.11.07.12-.07-.18.9Zm.5,1.36c.28-.11.2-.1.3,0-.19.16-.13.17-.3,0Zm.53.16c-.11-.1-.13-.02.15-.39.12.24.03.34-.15.39Zm.65-.9c.14.16.23.28.36.43-.38-.01-.4-.04-.36-.43Zm.24-.93c-.07.08-.04.26-.06.4-.59-.06-.37-.13-.94.37.05.13.12.28.2.48-.44.05-.53-.3-.84-.46.22-.11.34-.17.46-.23-.08-.2-.15-.4-.24-.62.49-.02.77-.34,1.23-.2.21-.2.41-.39.62-.6.09.08.16.13.24.2-.13.25-.39.34-.67.65Zm.66.45c-.27-.02-.32-.52.12-.46-.03.18.17.37-.12.46Zm.36-.73c-.24-.05-.19-.03-.19-.11.25.03.21,0,.19.11Zm.02-.45c-.22-.06-.18-.04-.16-.14.23.07.2.04.16.14Zm-.29-2.02c-.14-.15-.12-.31,0-.5.21.17.32.37.38.6.01-.01-.4-.11-.38-.1Zm.4.1s-.01,0,0,0c0,0,0,0,0,0,.02,0,.12.03.47.1-.29.11-.29.11-.47-.1Zm.43,1.13c.17-.16.21-.49.62-.39-.17.25-.34.41-.62.39Zm1.19-.4c-.19.03-.31.05-.42.07.09-.29.21-.28.42-.07Zm-.27,14.08c.23-.08.18-.08.23.04-.22.07-.18.09-.23-.04Zm1.09,3.26c-.43-.05-.39-.27-.39-.32,0,0-.01,0-.02,0,0,0,0,0,.01,0,0,0,0,0,0,0-.44-.09-.34.01-.45-.51h.75c-.19-.27-.32-.47-.49-.71.17-.09.3-.17.44-.24.66.95-.19,1.43-.25,1.45,0,0,0,0,0,.01.24-.04.44-.02.39.32Zm.27-1.67c-.28-.15-.25-.09-.17-.24.27.14.22.09.17.24Zm.39-15.63c-.02-.16-.04-.32-.07-.51.39-.05.25.42.48.51h-.42Zm.32-2.51c-.27-.15-.08-.45.16-.36.14.18.17.1-.16.36Zm.44-8.66c.1-.32.16-.2.3-.13.02.04.05.08.07.12-.12.07-.31.17-.38.02Zm.16,10.02c.29-.03.24-.06.25.07-.29.04-.24.06-.25-.07Zm.19,22.7c-.09-.03-.1-.11,0-.18.05.04.08.06.12.09-.04.03-.07.08-.11.1Zm.4.76c-.13-.2-.12-.12.03-.32.11.26.12.18-.03.32Zm.55-7.05c-.34-.38-.34-.45,0-.62v.62Zm-.04-22.75c.05-.24.01-.19.17-.17-.06.25-.02.21-.17.17Zm.16,5.41c.14-.22-.31-.56.17-.72.34.54.31.69-.17.72Zm.31,13.65c.03-.17.03-.37.4-.29-.37.43-.29.39-.4.29Zm.5-2.73c.23.21.25.08,0,.48-.23-.29-.26-.17,0-.48Zm.16,4.55c-.11.07-.18.11-.24.15-.21-.4-.26-.34.24-.15Zm.14,2.77c-.21-.07-.11-.23,0-.35.05.05.11.09.28.23-.12.05-.21.11-.29.11Zm2.14,3.63c-.1-.05-.01-.1.05-.17.03.06.05.09.07.13-.04.01-.08.04-.12.04Zm1.21.85c-.05.17-.13.33-.22.56-.19-.32-.06-.23-.46-.38.26-.58.71-.9.68-.18Zm-.66-1.02c0-.3-.02-.51.22-.54.13.13.15.03-.22.54Zm.77,1.35c.15-.02.11-.09.18.35-.25-.11-.25-.22-.18-.35Zm.32,1.24c.18-.11.1-.11.33.03-.22.13-.14.16-.33-.03Zm5.39,12.26c.18-.13.1-.13.31.04-.23.1-.16.13-.31-.04Zm1.07-.68c-.13,0-.04-.35.15-.1-.06.05-.1.09-.15.1Zm-.2-1.12c.03-.33.13-.4.62-.36-.2.11-.39.23-.62.36Zm1.1-.51c-.04-.18-.07-.27-.11-.42.15.05.24.08.37.12-.09.11-.15.18-.26.3Zm.64-1.43c.14.1.23.16.39.27-.33.12-.37,0-.39-.27Zm.91,4.98c-.22-.17-.12-.19,0-.28.07.12.08.05,0,.28Zm.03-3.2c-.15.01-.31,0-.44,0,.06-.25.11-.46.19-.77.13.15.77.72.25.77Zm1.76,6.71c.21-.09.17-.1.21,0-.21.1-.16.09-.21,0Zm1.09-3.47c-.15-.11-.16-.01.17-.46.12.3-.09.35-.17.46Zm.64,6.11s-.05-.08-.07-.12c.15-.14.3.05.07.12Zm.07-4.62c.12-.19.02-.17.39-.09-.03.16.05.13-.39.09Zm.63-.14c.19-.09.15-.11.21.03-.2.1-.15.1-.21-.03Zm1.26.17c.1-.29.6-.23.54.23-.19-.08-.36-.15-.54-.23Zm-.05-.54c.12-.11.04-.11.3,0-.21.15-.14.17-.3,0Zm1.06,1.65c-.11-.55-.14-.36.17-.8-.09-.1-.01-.1-.43.07-.22-.64.29-.95.31-.62.02.29-.36.19.47.22-.12.41-.11.82-.53,1.13Zm.97-1.1c-.35-.09-.36-.1-.37-.53q.39.14.37.53Zm.37,5.91c-.15-.12-.19-.2-.06-.31.21,0,.13.14.06.31Zm-.04-5.84q.38-.22.58.2c-.2-.07-.36-.13-.58-.2Zm.28,3.81c-.09-.29-.07-.24.05-.25.01.08.02.16.04.25-.03,0-.08.01-.08,0Zm.16-2.71c-.11-.22-.02-.29.2-.35-.06.33-.01.23-.2.35Zm.72,7.39c-.06-.05-.09-.08-.12-.11.14-.19.25-.09.12.11Zm0-8.22c-.04-.13.09-.22.25-.18.03.13.07.27.13.51-.18-.14-.34-.22-.38-.33Zm.7,0c.12.06.21.1.3.14q-.23.11-.3-.14Zm-.27-.29c.12-.18.25-.37.41-.62.06.18.11.33.16.46q-.32.36-.57.16Zm.05-.68c0-.15.01-.23.02-.37.3.23.28.17-.02.37Zm.25-.17s-.02-.04-.03-.05c.12-.3.24-.38.5-.35,0,0,0,0,0,0,0,0,0,0,0,0,0,0,0,0,0,0,0,0,0,0,0,0,0,0,0,0,0,0,.02,0,.08.01.3.04-.03.09-.06.19-.09.28-.16.14.03.13-.69.08Zm.83.66c.14.09.21.18.06.25-.16-.02-.15-.12-.06-.25Zm.2,1.04c-.19-.02-.11.06-.3-.26.29-.03.32.08.3.26Zm.06-.35c-.34-.07-.3,0-.17-.32.25.28.22.21.17.32Zm.34,7.64c-.16-.15.14-.3.22-.11-.09.05-.15.09-.22.11Zm.63-1.37c-.15-.2-.18-.08.03-.43.19.31.23.21-.03.43Zm-.62-3.89c1.1-1.54-.02-.18.92.03-.44.32-.56-.14-.92-.03Zm.57-3.4c.05.17.08.27.11.38q-.29-.02-.11-.38Zm0,1.96c.16-.03.25-.04.37-.06q-.11.18-.37.06Zm.68,1.42c.1-.16.15-.26.24-.42.12.14.21.24.37.42h-.61Zm.93,4.19c.1-.02.2-.05.31-.08.12.54.11.58-.22.88-.01-.57,0-.36-.09-.8Zm.43-7.24c.09-.03.18-.06.28-.09-.1-.22-.51-.09-.43-.46,1.02-.14,1.36,1.38.15.55Zm.45,3.18c-.09-.17-.18-.33-.27-.5.32-.04.39.04.27.5Zm0,3.41c-.04.32-.34.44-.59.16.21-.06.38-.1.59-.16Zm.15,3.21c-.15.06-.27.29-.42.1.14-.49.17-.61.17-.63,0,0,0,0,0,0-.18.23-.39.13-.59.08-.19-.29,0-.49.13-.66-.14-.49-.15-.39,0-.48.62.57.53.33.47,1.06,0,0,0,0,0,0h0s0,0,0,0c0,0,0,0,0,0,.13,0,.26-.01.43-.02.26.76.22.53.1.82-.28-.19-.2-.13-.29-.26Zm.87-8.47c-.39.26-.1.52-.21.79-.53-.32-.41-.15-.45-.75.16-.01.34-.02.66-.05Zm-.57-2.14c.02.24.03.2-.06.21-.02-.24-.05-.2.06-.21Zm1.04,8.69c.26,0,.22-.02.23.07-.26.03-.22.05-.23-.07Zm.36,1.43c.18.19-.09.47-.38.19.17-.08.28-.14.38-.19Zm-.25-2.4q-.28-.33.11-.48c-.04.17-.07.3-.11.48Zm-.1-3.91c-.27-.61-.27-.51-.13-.59.17.14.3.3.13.59Zm-.6-2.8c.03-.15.05-.26.08-.42.16.06.29.1.43.15-.1.26-.29.24-.51.27Zm.34,8.39c-.33,0-.6.12-.76-.21.23.04.53-.19.76.21Zm-.59-2.81c.09.16.18.32.29.54q-.32-.08-.29-.54Zm1.08,6.37c-.17-.32-.04-.28-.57-.06-.52.22-.83-.36-.61-.56.58-.54.77-.43.67-.77-.09-.28.22-.14.36-.18.01-.1.02-.17.04-.31.2.08.38.15.6.24-.17.27-.31.48-.46.73.25.27.13.56-.02.91Zm.63-10.72c.04.27.04.44-.24.53,0-.21-.04-.39.24-.53Zm.15,5.84c-.15-.13-.22-.19-.31-.27.06-.1.13-.19.19-.3.23.15.13.32.12.57Zm.05-7.36c.09-.02.21-.12.22.02-.21.13-.17.11-.22-.02Zm.51,6.74c-.13-.1-.16-.2-.03-.26.17.03.14.13.03.26Zm1.08,9.28c-.31,0-.58.91-.73.34.18-.52.36-.18-.07-.71.07-.14-.09-.13,1.02.06-.12.16-.15.26-.22.31Zm-.34-9.64c.11.02.09-.04.09.37-.21-.28-.19-.18-.09-.37Zm.73-.72c-.14-.06-.1.04-.13-.39.08,0,.17.01.29.02-.07.15-.11.26-.16.37Zm.62,3.09c.05-.35,0-.3.17-.26-.06.34-.02.29-.17.26Zm1.1-1.13c-.13-.1-.12-.03-.02-.3.09.23.09.15.02.3Zm.26-6.71c0-.21-.2-.42.03-.66.31.6.67.88,1.36.94.1-.21.15-.32.21-.46.09.02.18.04.3.06-.12.34-.36.49-.66.6.36.09.69.09.96-.22-.02.46-.52.42-.73.71.23.19.39-.05.56-.08q.05.23-.34.51c-.3-.07-.49-.25-.51-.53-.27-.04-.52-.08-.8-.12.04-.14.07-.25.1-.36-.11-.17-.46-.08-.48-.38Zm3.45,2.2s0,0,0,0c0,0,0,0,0,0,0,0,0,0,0,0,.02.22.03.35.01.39.07-.04.22-.02.65,0-.21.28-.49.15-.75.26.03-.13.04-.21.07-.25-.05-.01-.15-.16-.34-.4.28,0,.34,0,.35,0,0,0,0,0,0,0-.09-.07-.18-.15-.35-.29.23.01.34.02.52.03-.14.21-.16.25-.16.26,0,0,0,0,0,0Zm-.88,1.85s0,0,0,0c-1.01-.87.72-.79,1.34-.89.27.5-.44.67-.71,1.05-.51-.13-.62-.16-.64-.16,0,0,0,0,0,0Zm-.03.38c-.19-.23.06-.36.03-.39.04.13.23.26-.03.39Zm-.03-2c.19.2.13.07.22.45-.29-.04-.29-.18-.22-.45Zm-.26-2.69c0,.36.02.31-.06.32-.2-.48-.23-.34.1-.55.36-.33.48.3.86.43-.41.33-.6-.09-.9-.19Zm-.37-1.65c.04-.29.1-.43.46-.36-.19.15-.29.22-.46.36Zm-.7,4.82c.65.21.62-.07.58.28-1.19.06-.86.16-1.53-.37.56-.33.16-.17.95.08Zm-.38.57v.48c-.25-.19-.05-.33,0-.48Zm-.49,3.1c.21-.1.39-.2.62-.31.23.25.27.31.28.31h0s0,0,0,0c-.28.12-.56.24-.9,0Zm.4-.54c.08-.22.03-.14.21-.25-.05.25,0,.18-.14.29-.02-.01-.05-.02-.07-.04Zm.51.54s0,0,0,0c0,0,0,0,0,0,0,0,0,0,0,0,.45-.24.37-.24.42-.12-.12.1-.2.31-.42.12Zm1.24,1.22c-.14-.11-.26-.2-.38-.29.25-.31.79.02.38.29Zm.61-.79c.11-.32.21-.44.48-.14-.13.04-.27.08-.48.14Zm.72-.83c.09-.21.15-.38.23-.59.3.35.25.47-.23.59Zm.36-.67c-.22-.06-.43-.12-.64-.17-.4.13-.31.59-.56.86-.19-.33-.6-.17-.81-.38-.11-.54-.59-.05-.94-.57-.12-.18-.36-.28-.58-.43,0-.2.17-.31.35-.37.35-.12.35-.51.64-.72.43.27.41.83.23,1.18.1.09.18.17.28.26.35-.2.68-.49,1.14-.33.08-.2.14-.36.2-.51.21-.03.39-.05.63-.08-.59.86.47.58.09,1.26Zm-.59-4.11c.06-.14-.07-.12.8.01-.03.17-.05.32-.07.47-.38-.01-.51-.31-.73-.48Zm-.08-1.62s.08-.07.12-.1c1.09.22,0,1.62-.12.1Zm.97,5.78c-.22-.25-.02-.35.1-.53.1.1.16.17.24.26-.13.1-.23.18-.35.27Zm-.24-6.15c-.16-.06-.36-.01-.61-.01.36-1.02.46-.26,1.2-.48-.21.39-.28.62-.6.49Zm.64,4.42c.21.36.71.24.55.76-.47-.08-.52-.15-.55-.76Zm.13-6.86v-.53c.35.03.57.47,0,.53Zm.3,6.28c.06.18.11.34.18.57-.39-.19-.39-.2-.18-.57Zm.08,3.38c-.09-.06-.09,0,0-.23.09.04.09,0,0,.23Zm.03-.85c-.31-.19-.05-.46.17-.24-.05.07-.1.14-.17.24Zm-.29-6.17q-.11-.4.31-.62c.06.12.13.24.2.38-.17.08-.34.16-.51.24Zm.29-3.95c.12-.13.07-.11.22-.02-.14.11-.09.12-.22.02Zm.35,3.89c.31-.08.25-.1.26.06-.3,0-.25.02-.26-.06Zm.45,9.01c-.01-.2.55-.4.13.11-.04-.04-.12-.07-.13-.11Zm.3-.23h0c.95.16.19.95,0,0Zm.42.58c-.23.41-.24.41-.64.29.23-.1.39-.18.64-.29Zm-.46,1.67c.07-.37.38-.35.57-.08-.22.13-.37.24-.57.08Zm1.33.25c.17.53-.55.71-.83.26.31-.1.55-.18.83-.26Zm-.38-.64c.22.15.16.09.2.26-.02.01-.05.02-.07.03-.22-.27-.2-.21-.13-.29Zm.54,2.17c.38.08.14,1.24-.34.85.11-.28.22-.56.34-.85Zm-.8,5.36c-.34-.08-.11-.38-.28-.61.55-.33.82-.84,1.11-1.33.4.16.51.46.19.66-.65.43-.63,1.37-1.02,1.27Zm1.23.13c.11.07.23.15.34.22-.07.27-.14.53-.22.86-.49-.28-.9-.57-1.05-1.12.19-.23.43-.34.71-.38-.05-.37.48-.12.43-.47.23.18.43.34.63.5-.2.26-.72-.13-.85.38Zm.38-1.34c.18-.13.1-.11.31-.03-.23.13-.16.14-.31.03Zm.18-9.32c.18.65-.45.53-.54.7-.15.31-.49.01-.68.22-.88-.79-.42-.19.37-.55-.09-.13-.17-.25-.27-.39.15-.05.29-.1.49-.17-.1-.1-.14-.13-.2-.2.18-.11.3-.27.2-.53.5.26.53.33.3.76.38-.08.22-.06.62-.02-.15.09-.21.13-.3.18Zm-1.74-13c.15-.12.18.09.24.19-.05.02-.11.05-.16.07-.03-.09-.06-.18-.08-.27Zm2.42-.06c-.31-.09-.61-.18-.94-.28.13-.4.96-.05,1.19.02-.08.08-.17.18-.25.26Zm1.32,13.59c-.39-.24-.16-.75-.83-.75.6-.55.53-.39.4-.72.41-.08.42.27.59.43q-.32.39-.15,1.04Zm-.92-3.49c.17-.05.1-.14.29.5-.31-.17-.39-.31-.29-.5Zm.37-10.58c.26.18.21.34.07.54-.26-.19-.08-.34-.07-.54Zm.61-5.24c-.18.09-.37.14-.6.22-.03-.23-.05-.39-.06-.54.4-.62,1.05.13.66.32Zm.27-5.77c-.33.15-.28.54-.58.64,0,0,0,0,0,0,.06.07.12.14.2.23-.31.17-.76.05-.81.52-.14,0-.25-.01-.36-.02-4.15,9.37-8.48,13.91-17.12,13.92,0,.01.01.02.02.03-.16.07-.27.12-.42.19,0-.1,0-.16,0-.22-1.52-.03-2.97-.23-4.42-.61,0,.05.02.11.02.16.47-.13.65-.03.88.49-.37.34-1.24,1.2-1.68.55.19,0,.34-.22.55-.01.53-.15.11-.47-.62-.43,0-.28.14-.33.31-.35v-.24q-.44-.02-.69.41c-.21.02-.41.04-.66.06.11-.43.69-.8.28-1.12-4.26-1.51-7.95-4.45-10.97-8.06,0,.21-.02.35-.28.37.04-.21.09-.42.08-.62-5.29-6.46-8.47-14.97-8.98-21.28,1.88,7.59,6.39,17.36,13.23,23.26.01-.01.02-.02.03-.04.05.06.08.09.1.12,0,0-.01,0-.02.01,1.88,1.61,3.95,2.92,6.18,3.81.02-.08.03-.15,0-.23.17-.12.33-.23.49-.33-.11-.47-.11-.47.61-.7.1.16.08.53-.08,1.26-.12.08-.24.16-.36.24.45.16.91.31,1.38.44.09-.07.13-.1.14-.11h0s0,0,0,0c.03-.59-.88-.29-.68-.8.16-.41.95-.02,1.36.9,0,0,0,0,0,0h0c.16.06.2.14.18.26,5.61,1.24,10.98-.2,14.62-5.51-.29-.09-.35-.23-.25-.49.23.08.33.2.29.44,1.97-2.65,3.76-6.14,5.57-10.35-.11-.07-.21-.13-.35-.21.13-.1.22-.17.36-.28v.48c.12-.28.24-.55.36-.83-.08-.08-.14-.2-.14-.37.1-.04.22-.09.35-.14,1.99-4.77,4.04-10.37,6.39-16.66-.1-.05-.2-.1-.32-.16.19-.13.22-.13.33.11.55-1.48,1.12-2.99,1.71-4.54-.1.06-.19.11-.3.18.03-.24.05-.26.33-.26,5.69-14.93,11.73-30.38,13.99-36.14-.02,0-.03,0-.05,0,.14-.22-.31-.56.17-.72.05.07.07.12.1.18.47-1.19.73-1.86.73-1.86l1.65.63s-2.88,7.92-6.53,17.88c.18-.07.15-.06.19.06-.19.06-.19.08-.21,0-1.07,2.93-2.21,6.03-3.36,9.17.16-.07.26.02.35.3-.25-.09-.36-.11-.4-.14-5.79,15.69-9.34,25.58-12.19,32.52.21.13.25.35.35.97q-.38-.05-.37-.56c-.06.02-.12.04-.18.06-.02.06-.05.12-.07.17.12.27.11.24.04.32-.06-.03-.1-.06-.14-.08-.18.44-.36.88-.54,1.31.08.03.18.07.31.13q.31-.28.6-.24c.1-.17.2-.33.33-.56.05.69-.18,1.83-.96,1.57.18-.2.33-.37.5-.55-.31-.22-.49-.05-.65.11-.1-.04-.18-.08-.28-.13-.32.75-.63,1.47-.94,2.16.28,0,.74.02.66-.04,0,0,0,0,0,0-.01-.01-.07-.06-.29-.23.03-.11.08-.25.15-.49.18-.16.67-.18.64-.72.29.07.28.29.32.43-.09.14-.15.27-.24.37Zm5.15-9.18c-.18-.2-.19-.12-.05-.3.17.15.14.08.05.3Zm.07-2.21c.11-.2.19-.13.39.09-.13.06-.29.23-.39-.09Zm-.37,3.95c-.4-.22-.03-.53.09-.42.17.16.03.27-.09.42Zm.2,10.2c.09-.08.15-.02.34.3-.32.06-.63.12-.93.17-.23-.38.43-.32.59-.48Zm.87,6.79c-.09.11-.18.22-.32.39-.11-.2-.21-.38-.36-.66.29.12.48.19.68.27Zm-.43-11.53c.65-.34,1.03.37.55.54-.12-.03-.29-.25-.55-.54Zm-1.13,33.18v.36c-.22-.15-.06-.25,0-.36Zm-1.46-30.44c-.11-.07-.21-.15-.34-.25.15-.18.28-.33.47-.55.09.31.46.95-.12.8Zm.13,17.81c-.08-.26-.09-.21.05-.23.03.26.05.21-.05.23Zm-.33-17.45c-.15-.26-.13-.2-.05-.26.18.24.17.18.05.26Zm-.15-9.44c.18-.13.11-.11.32,0-.2.14-.12.17-.32,0Zm.46,1.37c.11.1.11.05.02.2-.11-.12-.12-.07-.02-.2Zm-.9,9.38c-.24-.53-.16-.91.23-1.29.05.07.16.21.16.22-.32.27-.1.55,0,.87-.12.06-.24.12-.39.2Zm.24,12.19c-.24.21-.16.18-.31.06.19-.24.11-.24.31-.06Zm-.42-.03s0,.07,0,.1c-.33.03-.28.04-.31-.04.2-.13.13-.11.32-.06Zm-1.54-11.82q.06-.31.39-.09c-.18.04-.28.07-.39.09Zm.44,14.51c.27-.02.22-.04.23.06-.26.06-.22.08-.23-.06Zm.08-9.66s.09.02.13.03c-.02-.06-.04-.13-.06-.2.42-.35.83.42.26.9-.06-.2-.11-.38-.16-.55-.25-.09-.21-.08-.18-.18Zm1.21,11.38c-.09.43-.19-.2-.61.59-.11-.23-.17-.36-.27-.56.65-.14.65-.19.88-.03Zm-.65,5.77c.3.04.51.06.76.09q.06.19-.48.35c-.07-.12-.15-.25-.27-.43Zm.51,8.22c.4.14.32.62.34.72.01,0,.02,0,.03.02-.02.02-.03,0-.03-.02-.4-.21-.41-.22-.34-.72Zm.22,1.06s.16-.33.14-.31c.35-.02.26.27.23.74-.82-.11-.62.01-.37-.43Zm.46,1.15c-.07-.11-.13-.22-.21-.34.31-.08.32-.06.21.34Zm.12-19.93c.11.15.11.1,0,.22-.12-.14-.1-.08,0-.22Zm.51,19.26q-.37.01-.49-.34c.09-.05.19-.1.34-.18.25.33.31.37.26.42.05-.04.07.02.25.33-.24.02-.3-.09-.36-.23Zm.63.11c-.08-.51.12-.42.44-.42,0,.05.01.09.02.14-.12.12-.2.31-.46.28Zm.66-23.36c-.24-.1-.22-.06-.14-.18.21.13.19.09.14.18Zm1.05.55c1.06-.15.2.98-.13,1.26-.09-.54-.18-1.06-.27-1.58.35-.14.26.21.4.32Zm-.19,12.11c.21-.19.14-.17.26-.07-.22.2-.16.19-.26.07Zm.06,6.53c.16.07.25.11.38.17q-.2.02-.38-.17Zm.86,5.02c-.27.03-.23.06-.24-.09.28.02.23-.01.24.09Zm.03-5.29c.08-.12,0-.13.24-.05-.12.16-.05.16-.24.05Zm.35-2.33c.03-.28,0-.23.13-.24.24.34.27.28-.13.24Zm.82,6.79c.13-.12.08-.11.22,0-.14.09-.09.11-.22,0Zm.23-.65c0,.31-.62.37-.67.04.16-.19.3-.36.48-.57.38,0,.14.35.2.53Zm-.62-3.7s.1.06.14.09c-.05.08-.11.16-.19.28-.18-.23-.08-.31.04-.37Zm.41-.96c.07.09.1.14.14.19-.2-.05-.15-.01-.14-.19Zm-.16-.32c-.07-.35.27-.51.57-.27-.44.3-.29.22-.57.27Zm.39-4.37c.13.06.25.1.45.19-.43.22-.46.2-.45-.19Zm1.18,1.62c.27-.2.16-.17.43-.02-.34.2-.23.19-.43.02Zm2.4,2.67c.19-.24.14-.22.22-.17-.16.29-.11.26-.22.17Zm2.06.58c.15,0,.23.08.22.25-.35.06-.15-.32-.22-.25Zm0-.01s0,0,0,0c0,0,0,0,0,0-.14-.32-.14-.32.26-.57-.2.45-.25.55-.26.57Zm1.86.69s0,0,0,0c0,0,0,0,0,0,0,0,0,0-.01,0-.07.16-.13.31-.19.46-.69.14-1.11-.1-1.17-.71.22.16.4.3.64.48.51-.16.67-.21.72-.22,0,0,0,0,0-.01,0,0,0,0,0,0,0,0,0,0,0,0-.04-.04-.08-.09-.18-.2.47,0,.37-.03.42.13-.2.06-.24.07-.24.08,0,0,0,0,0,0Zm-.6-.96c.25-.06.42-.27.72-.06-.17.15-.29.26-.46.41-.09-.11-.16-.21-.26-.35Zm2.31,1.22c.08-.13,0-.12.24-.05-.12.16-.05.16-.24.05Zm.26.46c.06.07.12.13.21.24-.24.02-.28-.06-.21-.24Zm.38.17c.26-.13.17-.16.38.03-.26.22-.16.2-.38-.03Zm.44,1.7c.13-.28.09-.24.18-.21-.08.29-.04.25-.18.21Zm1.31.7c-.03-.11-.05-.19-.07-.27.42-.07.34-.1.38.07-.09.06-.18.11-.31.2Zm.84.69c-.63-.27-.5-.18-.56-.34.35.05.19.08.6-.07-.01.15-.02.27-.04.41Zm-.69-2.05c.23-.36.5-.08.83-.06-.45.37-.54.37-.83.06Zm1.11-1.47c.12-.12.07-.1.21-.03-.1.14-.04.14-.21.03Zm.54-.28c.4-.14.43-.11.36.3-.13-.11-.24-.2-.36-.3Zm-.02-.6c.1-.22.32-.02.29.16-.15,0-.28.01-.29-.16Zm.4,1.76c.28-.6.42-.62.82-.11-.27.22-.42.24-.82.11Zm1.22-.06s0,0,0,0c0,.02,0,.11-.04.53-.1,0-.21.02-.32.02-.08-.39-.07-.39.35-.56,0,0,0,0,0,0h0s0,0,0,0c0-.44-.02-.38.08-.42.23.27.24.18-.08.42h0Zm.12-1.14c.17.1.35.21.54.32-.43.13-.45.12-.54-.32Zm1.22,2.36c.28-.63.83-.3.78-.12-.04.17-.41.12-.78.12Zm.53.58c.23-.17.36-.22.52.03-.18,0-.3-.02-.52-.03Zm1.99-1c-.15.12-.38.13-.42,0-.19-.52-.45-.07-.78-.22.15-.35.41-.33.66-.29.13-.69.29-.75.86-.34-.13.44-.16.33.11.53-.15.11-.3.2-.43.31Zm-.01-2.04c.09-.04.22-.09.32-.13v-.79c.22.18.36.3.52.44-.57.55.03.86-.37,1.26-.17-.28-.31-.51-.48-.78Zm1.15.51c.02.15.09.29.04.39-.21.49.54.51.1.87-.24-.17-.48-.33-.74-.51.31-.14.1-.69.6-.74Zm-.36,2.26c.26-.24.47-.42.71-.64.07.12.14.24.22.37-.27.23-.5.49-.93.27Zm1.04-2.53c-.18-.33-.24-.63.11-.95,0,.37.02.67-.11.95Zm-.21-1.55q.24-.23.48-.1c-.14.16-.29.14-.48.1Zm.68.79c.27-.14.21-.15.27-.03-.27.15-.21.15-.27.03Zm-.2-.47c.09-.37.48-.5.54-.13-.1.23-.29.16-.54.13Zm.84,1.09c.52-.33.56.12.6.06q-.33.06-.6-.06Zm.6.07c.11,0,.25-.22.32.1-.25-.09-.28-.11-.32-.1Zm1,.79c.28-.04.23-.06.25.07-.28.04-.23.06-.25-.07Zm1.24-2.33c-.44.18-.92-.09-1.38.12v.78c-.17,0-.3-.01-.48-.02-.02.09-.05.19-.09.34-1.35-.12.4-.65.24-1.3-.24-.05-.32.2-.5.3-.06-.06-.13-.12-.24-.22,1.24-.5,1.2-.3,1.45-.99.6.06,1.12.25.99.99Zm1.25,3.82v-.44q.33.16,0,.44Zm.52-.59c.34-.11.28-.12.33-.02-.32.18-.25.19-.33.02Zm.46-.6c.16-.11.26-.19.4-.29q-.03.25-.4.29Zm3.82-1.84c-.19-.19-.16-.15-.1-.22.19.18.18.14.1.22Zm.13-.53c-.14-.05-.25-.09-.38-.14-.05-.37.64-.27.38.14Zm-5.01-2.68c-.15.1-.32.18-.34.41.58-.11.37-.17.94.33-.39.1-.53-.32-.84-.13-.35.28-.73.15-1.12.14,0-.06-.03-.1-.04-.15-1.38.53-2.83,1.1-4.22,1.41-3.1.83-6.22,1.19-9.14.94-.19.11-.26.06-.32-.03-.2-.02-.4-.05-.6-.08.21.18.26.21.09.52-.15-.22-.24-.37-.37-.55-4.99-.73-9.3-3.37-11.79-8.67.37.46.74.89,1.13,1.3.2-.05.26-.07.28-.08,0,0,0,0,0-.01,0,0,0,0,0,0-.09-.16-.26-.31-.03-.5.01-.29-.2-.51.35-.45-.05.21-.1.41-.15.63.46,0,.32-.08.58.41-.28.05-.53.1-.75-.1,0,0,0,0,0,0h0s0,0,0,0c-.05.1-.11.17-.21.15,3.08,3.24,6.83,4.96,10.84,5.56-.02-.04.04-.13.06-.18.04.1.11.14.02.19,4.29.63,8.87,0,13.21-1.41-.04-.07-.06-.16-.05-.28.2.02.4.05.58.1,5.14-1.74,9.91-4.51,13.46-7.47-3.08,3.19-7.17,5.99-11.58,7.97Zm11.09-7.19c-.16-.19-.15-.13-.01-.26.12.22.11.15.01.26Zm-1.38,8.62c-.17-.07,0-.26.11-.08-.05.04-.08.09-.11.08Zm1.84-2.23c-.52.23-1.1-.59-.27-.47.11.34.39.18.65.22-.37.39-.29.36-.38.25Zm.43-.62c-.16.04-.32.07-.55.12.1-.38,0-.63-.26-.85.42-.23,1.03.24.81.73Zm.07-3.41c-.15-.32-.09-.18-.24-.53.37,0,.44.14.24.53Zm.41-1.91c-.16.03-.11.1-.21-.4.3.1.25.25.21.4Zm-.19-3.29c.63-.56.51-.51.7-.38-.06.32-.47.51-.7.38Zm.99,5.1c.1.44-.35.33-.57.59.12-.52.14-.53.57-.59Zm-.52,1.45c-.05-.18-.09-.3-.13-.45q.27.06.13.45Zm-.04.53c.07-.15.12-.27.2-.43.06.02.17.06.28.09q-.16.32-.48.34Zm.31-.86c.04-.21.06-.34.09-.49q.28.29-.09.49Zm-.04-2.66c-.06-.68-.17-.88.36-.92-.17,1.12-.08.96-.36.92Zm.17-1.47s-.04-.05-.05-.08c.23-.17.17-.15.25-.09-.1.17-.05.12-.2.17Zm1.11,5.25c-.14.08-.01.14-.62-.29.11-.45.83.19.62.29,0,0,0,0,0,0,0,0,0,0,0,0,.22.02.25-.03.2.09-.14-.06-.16-.08-.21-.08-.01.02-.01.02,0,0Z"/>
      </g>
    </g>
  </g>
</svg>