<?xml version="1.0" encoding="utf-8"?>
<!-- Generator: Adobe Illustrator 27.3.1, SVG Export Plug-In . SVG Version: 6.00 Build 0)  -->
<svg version="1.1" id="レイヤー_1" xmlns="http://www.w3.org/2000/svg" xmlns:xlink="http://www.w3.org/1999/xlink" x="0px"
	 y="0px" viewBox="0 0 193.5 165.4" style="enable-background:new 0 0 193.5 165.4;" xml:space="preserve">
<style type="text/css">
	.st0{opacity:0.1;}
	.st1{fill:#FFFFFF;}
	.st2{fill:#FFFFFF;}
</style>
<g class="st0">
	<g>
		<g id="_4">
			<path class="st1" d="M142.2,68.1l-0.5-0.7c-0.7-0.7-1.6-1-2.2-1.9c-0.3,0-0.6,0.1-0.8,0.1l0.9,1.2l-1.3-0.9l0.1-0.2
				c-2.1,0.4-4.2,0.9-6.2,1.5c-0.1,0.2-0.2,0.3-0.4,0.2c0,0,0-0.1,0-0.1c-0.4,0.1-0.8,0.3-1.2,0.4c0.1,0.8-0.5,0.5-1,0.4
				c-4.5,1.7-8.7,4-12.6,6.8c0.1,0.2,0.2,0.3,0.3,0.4C124.5,70.6,133.1,68,142.2,68.1L142.2,68.1z"/>
			<path class="st1" d="M116.8,75.6c-0.1-0.2-0.1-0.3-0.2-0.4c-0.7,0.5-1.4,1.1-2,1.6l0,0.1l-0.1,0c-2,1.7-3.9,3.5-5.6,5.4
				C111.2,79.7,113.9,77.4,116.8,75.6L116.8,75.6z"/>
			<path class="st1" d="M96.1,113.2l-0.3-0.2c0.2-0.5,0.4-0.6,0.6-0.7c0.3-6.8,1.9-13.1,4.6-18.7c-1.9,3.6-3.3,7.5-4.3,11.6
				c0.1,0.1,0.1,0.2,0.2,0.2l-0.2-0.1c-0.7,2.7-1.1,5.5-1.4,8.4C95.8,114.1,96,113.7,96.1,113.2z"/>
			<path class="st1" d="M187.9,93.1l0.3,0.4c0.1,0.1,0.1,0.2,0.2,0.3l-0.2-0.3c-0.5-0.6-0.9-0.2-1.4-0.3c0.4,0.7,0.7,1.5,1.1,2.2
				c0.2,0.1,0.3,0,0.4-0.2l-0.4-0.6c-0.2-0.1-0.4-0.3-0.6-0.8l0.6,0.8c0.2,0.1,0.4,0.2,0.6,0.4c0.4,0.6,0.2,1.5-0.1,1.4
				c0.4,1,0.8,2,1.1,3c0-0.2,0.1-0.4-0.2-1l1.1,0.8c0,0,0,0,0,0l-0.6-1c0.4,0.3,0.7,0.9,0.9,1.2c-0.1-0.1-0.2-0.2-0.3-0.2v0l0,0
				c-0.3-0.1-0.4,0.2-0.2,0.8c-0.3-0.2-0.4-0.3-0.5-0.4c0.1,0.2,0.2,0.5,0.2,0.8c0,0,0,0.1,0,0.1c0.9,2.8,1.5,5.7,1.9,8.6l0.9,0.8
				l-0.4,0c1.1,0.9,0.9,1.8,0.5,2l-0.6-1.2c-0.1,0-0.2,0.1-0.2,0.2c0,0.2,0.1,0.5,0.1,0.7c0.1,0.1,0.2,0.2,0.4,0.3
				c-0.1,0.1-0.2,0-0.3-0.1c0,0.2,0,0.4,0,0.5l1.3,0.5l0.1,0.3c-0.1-3.8-0.6-7.4-1.5-10.9c-0.3,0,0.2,0.9,0,0.7l-0.9-1.6
				c0.2,0.1,0.6,0.3,0.9,0.5c-0.8-3.2-2-6.3-3.4-9.2C188.3,93.1,188.2,93.2,187.9,93.1L187.9,93.1z"/>
			<path class="st1" d="M183.6,87.8c0.3,0.2,0.6,0.4,0.7,0.2c-0.4-0.9,0.1-1.1,0.2-1.4c-0.6-0.8-1.1-1.6-1.7-2.3
				c-0.3,0.3-0.7,0.6-1.2,0.7C182.3,85.8,183,86.8,183.6,87.8L183.6,87.8z"/>
			<path class="st1" d="M187.2,101.1c0.2,0.7,0.6,0.8,0.9,1.1c-0.1-0.4-0.3-0.8-0.4-1.2C187.5,100.9,187.3,100.9,187.2,101.1z"/>
			<path class="st1" d="M107.1,137.9c-0.2-0.8-1.2,0.5-1.1-0.8c0.7,0.1,1.2,0.6,1.9,0.2c-0.5-0.9-1-1.9-1.4-2.9
				c-0.5,0.5-1.1,1.3-1.2,2.3l0.2,0.7c0,0,0,0,0,0c0.3,0.6,0.7,1.2,1,1.8l-0.1-0.6L107.1,137.9L107.1,137.9z"/>
			<path class="st1" d="M141.7,67.3c0.2,0.2,0.4,0.4,0.5,0.7c0.1,0,0.1,0,0.2,0c-0.1,0-0.1,0-0.2,0c0,0,0,0.1,0.1,0.1l-0.1-0.1
				c-5.8,0.6-11.1,2.2-15.9,4.5c0.5,0.5,0.8,1.6,1.4,1.6c0,0,0-0.1-0.1-0.1c-0.1-0.4,0.2-0.1,0.4,0c-0.1,0.1-0.2,0.1-0.3,0.1
				c0.6,1.5,0.8,0.7,1.3,1.2c0.2-0.1,0.3-0.1,0.5-0.2c0-0.4,0-0.7,0.4-0.1c4.4-1.5,9-2.2,13.8-1.9c1,0,1.9,0,2.9,0
				c0.1-0.4,0.2-1.1,0.7-0.2c0,0.1,0,0.1-0.1,0.2c3.8,0.2,7.5,1,11,2.2c0.1-0.2,0.3-0.2,0.6,0c-0.5-1.7-0.8-1.6-1.7-1.9
				c-0.1-0.5-0.4-0.9,0-1.4c-0.3,0.2-1-0.8-1.7-1.8c-0.4-0.1-0.8-0.2-1.2-0.4c-0.6,0.7-2-0.2-2.2,1.2c1.2,1.8-0.1,0.1,0.4,1.6
				l-0.5-1.2c-1,0-2.9-1.1-4-2.6c0.1-0.1,0-0.2,0-0.4c-0.7-0.1-1.5-0.2-2.2-0.3c0.9-0.1,1.9-0.1,2.8-0.1l-0.4-1.2l-0.7-0.1
				c-0.7-0.7,0.2-0.3-0.5-1.2l1.8,1.4l-1.1-1.8c-0.7-0.1-1.4-0.1-2.2-0.2c-0.5,0-0.9,0-1.4,0.1c-0.1,0.3-0.2,0.5,0.1,1l1.5,1.1
				c-0.1-0.4-0.4-0.5-0.6-1l0.9,0.3c0,0,0,0,0-0.1c0,0,0.1,0.1,0.1,0.1l1.1,0.4c-0.1,0.1,0,0.2,0.2,0.5c0,0.6-0.8-0.3-1.3-0.8
				l-0.1,0c0.3,1.5-0.5,0.8-1.2,1.1c-0.5-0.4-1-2-1.6-2.4c-0.3,0-0.5,0.1-0.8,0.1c-0.1,0.6-0.5,1.2-0.6,1.7L141.7,67.3L141.7,67.3z
				 M128.6,72.1c0,0-0.1,0-0.1,0c0.1,0.4-0.7-0.2-0.3,0.6c0.3,0.4,0.6,1,0.8,0.8l-0.1-0.4l0.2,0.3c0,0,0,0.1-0.1,0.1l0.1,0.4
				c-0.8-0.7-0.9-0.6-1.7-1.5l0.2-0.2c0.2,0.1,0.5-0.1,0.8-0.2c0,0,0-0.1,0-0.1C128.5,72,128.6,72,128.6,72.1c0.3,0,0.6,0.2,1,1.2
				C129,73.4,129.2,72.5,128.6,72.1L128.6,72.1z M129.8,73.1l0.4-0.3l-0.7-0.7c0.1,0.1,1.1,0.7,1.2,1.6L129.8,73.1z M145.4,70
				l-0.5-0.9c0.3-0.6,1.7,1.1,1-0.8l0.9,1.4c-0.2,0-1.3,0.2-0.4,1.2c0.7,0.7,1.1-0.1,1.5,1.2c-1.2-1.4-1.3,0-1.8-0.2
				c-0.5-0.7,0.5,0.4,0.2-0.5c-1.2-1.8-1.6,0-1.1,1.1c-0.3-0.6-0.3-2-1-1.8C144.9,70.6,144.3,69.5,145.4,70L145.4,70z"/>
			<path class="st1" d="M104.8,130.5c-1.5-4.6-2.4-9.6-2.4-14.9c0-1.6,0-3.1,0.1-4.6c-0.3-0.2-0.6-0.3-0.8-0.4
				c0.1,0.5,0.4,1.7,0.6,1.8c-0.2,0-0.9-1.2-1.3-1.7c0.2-0.5,0.6-0.6,0.1-1.7l-0.1,0.1c-0.1-0.7,1,0.8,1.6,1.1c0,0,0-0.1,0-0.1
				c0-0.1,0-0.2-0.1-0.2c-0.1-0.2-0.2-0.3-0.3-0.4c0.1,0.1,0.2,0.3,0.3,0.4c0,0,0.1,0.1,0.1,0.1c0.1-0.5,0.1-0.9,0.2-1.4
				c-0.3-0.5-0.7-1-0.4-0.6c0.1-0.1,0.3,0.1,0.4,0.2c0.1-0.3,0.1-0.7,0.2-1c-0.2-0.2-0.3-0.3-0.5-0.4l0.5-0.1l-1.5-2
				c0.2-0.1,1.1,1.1,0.7-0.1l-0.3-0.2c0.3-0.4,0.2-1.1,0.7-0.8l0.8,1.6c0.7-2.9,1.7-5.8,2.9-8.5l-0.3-0.6c0.1,0.2,0.3,0.3,0.4,0.3
				c0-0.1,0.1-0.2,0.1-0.2c0,0,0,0,0,0c-0.2-0.3-0.3-0.4-0.6-0.6l0.8,0.2c3.6-7.2,9.1-13.3,15.8-17.3c-0.9-0.6-1.8-0.7-2.4-0.7
				c-0.3-0.4-0.9,0.2-1.1,0.9c-0.3-0.2-0.6-0.8-0.8-1.1c-0.1,0.1-0.2,0.1-0.3,0.2c0.2,0.5,0.5,0.9,0.9,1c0.1,1.1-0.7-0.3-1.2-0.8
				c-7.4,5.9-12.8,14-15.6,23.3c0.1,0.1,0.2,0.2,0.2,0.3c-0.1-0.1-0.2-0.2-0.2-0.2c-0.1,0.2-0.1,0.5-0.2,0.7c0,0,0,0,0,0
				c-0.8,2.7-1.3,5.5-1.6,8.3l1.2,1.4l-1.2-1.1c-0.2,1.6-0.3,3.3-0.3,4.9c-0.1,5,0.6,9.8,2.1,14.3C103,129,103.7,130.4,104.8,130.5
				L104.8,130.5z M106.8,91.7l-0.6,0.2l0-0.2L106.8,91.7z M104.5,96.7c0.1,0.1,0.4,0.3,0.6,0.8l-0.6-0.2L104.5,96.7L104.5,96.7z"/>
			<path class="st1" d="M161.2,73.8c1.4,1.9,1.6,0.6,2.6,1.2c-0.4-1.3-1.3-1.5-1.6-1.9l1.5,1.1c0-0.1,0-0.3,0-0.5
				c-0.9-0.5-1.9-0.9-2.9-1.4C161.2,73,160.8,73.1,161.2,73.8L161.2,73.8z"/>
			<path class="st1" d="M160.1,69.6c0,0.1,0.1,0.2,0.1,0.2c1.4,0.4,2.8,0.9,4.2,1.5c-0.1-0.1-0.1-0.2-0.2-0.4
				c-0.2-1.7,0.8,0.3,1.6,0.8c0.2-0.2,0.4-0.5,0.6-0.7c0,0.9-0.3,0.9-0.6,0.7c-0.1,0.1-0.1,0.1-0.2,0.1c1.5,0.7,3,1.5,4.4,2.4
				l0.6-0.2v0.5c0.5,0.3,1,0.7,1.5,1c0.4-0.1,0.6-0.6,0.8-1c-3.3-2.3-6.8-4.3-10.6-5.8l0.2,0.5C161.5,69.6,161.5,70.6,160.1,69.6
				L160.1,69.6z"/>
			<path class="st1" d="M157.5,68.4c-0.2-0.3-0.3-0.6-0.4-0.9c-0.7-1-1.2,0.4-2.1-1c0.1,0.2,0.2,0.5,0.4,0.8
				c0.1,0.1,0.1,0.1,0.2,0.2c-0.1-0.1-0.1-0.1-0.2-0.2c-0.5-0.5-0.4,0.2-0.6,0.3c0.4,0.5,0.8,0.9,1.2,1.1c0.8,0.2,1.6,0.3,2.4,0.5
				c-0.1-0.3-0.2-0.6-0.4-0.9c0.9,1.4,1.3,0.8,2.1,1.2l-1.5-2c0.1,0.1,0.2,0,0.2,0c-0.6-0.2-1.3-0.4-1.9-0.6
				c0.1,0.2,0.1,0.4,0.2,0.6C157.2,67.7,157.4,68,157.5,68.4L157.5,68.4z"/>
			<path class="st1" d="M172.9,75.3c0.7,0.7,1.1,2.3,1.4,1.7l-0.8-1.3c0.8,0.3,0.8,1.9,1.4,1.5c-0.3-0.5-0.2-0.7-0.3-1
				c-0.6-0.4-1.1-0.9-1.7-1.3C172.9,74.9,172.9,75.1,172.9,75.3z"/>
			<path class="st1" d="M148.9,65.3c-0.4-0.1-0.9-0.1-1.3-0.2l0.8,0.4C148.7,65.8,148.8,65.6,148.9,65.3z"/>
			<path class="st1" d="M191.8,109.6c0,0.1,0,0.2,0,0.3c0-0.1,0.1-0.1,0.1-0.2L191.8,109.6L191.8,109.6z"/>
			<path class="st1" d="M180.7,139.2c0.3,0,0.8,0.3,1,0.5l-0.1,0.4c1.1-1.6,2.1-3.3,3.1-5.1c-0.4-0.1-0.8-0.3-1.2-0.6
				C182.7,136.1,181.8,137.7,180.7,139.2L180.7,139.2z"/>
			<path class="st1" d="M173.4,84.6c0,0,0.1,0.1,0.1,0.1v-0.2C173.5,84.5,173.4,84.6,173.4,84.6z"/>
			<path class="st1" d="M180.4,139.7C180.4,139.7,180.4,139.7,180.4,139.7c-6,8.5-15.3,14.8-26.3,16.5c0.1,0.1,0.2,0,0.4,0.2
				c0,0.2,0.5,0.7,0.4,0.9l-0.9-1.1c-3.2,0.5-6.6,0.6-10,0.3c-3.4,0.2-6.6,0.1-9.6-0.4c0,0.1-0.1,0.1-0.1,0.1
				c-0.2,0.1-0.2,0-0.2-0.2c-1.8-0.3-3.5-0.7-5.2-1.2c0,0,0,0.1,0.1,0.1l-0.1-0.1c-5.9-1.8-11.1-5.1-15.2-9.3
				c0.4,1.6-1.9-0.6-2.4-0.3c0.1-1,0.6-0.2,0.3-1.8l1.2,1.4c-0.1-0.2-0.1-0.3-0.1-0.4c-1.9-2.1-3.5-4.4-4.9-7
				c-0.2,0.1-0.4,0-0.6,0.1l0.4,2.2c-0.6,0.7-0.4-0.8-0.7-1.3c-0.5-0.4-0.4,0.4-0.4,1c0.3,0.5,0.7,1.1,1,1.6
				c0.3-0.2,0.8,0.3,1.3,0.6c-0.4-0.1-0.6,0-0.8,0.1c0.8,1.2,1.7,2.3,2.7,3.4l-0.1-0.2c0.3,0.5,1.1,1,1.6,1.9
				c1.8,1.9,3.8,3.6,5.9,5.2c0.1-0.3-0.1-1-0.1-1.4c1,1.8,1.1-0.1,1.8,1.8c0.2,0.4,0.3,0.8,0.3,1c2,1.4,4.1,2.6,6.3,3.6l-0.4-0.5
				c0.2-0.5,0.8-0.5,1.2-0.6c0.2,0.3,0.3,0.5,0.4,0.6c0-0.1,0-0.2,0-0.3c0.1,0.2,0.1,0.4,0.2,0.5c0.1,0.1,0.2,0.1,0.3,0.2
				c0.4-0.1,0.8-1.4,0.6-0.4c0,0,0,0.1,0,0.1c0.2-0.1,0.4-0.2,0.8,0.5c0.3,1.1-1-0.2-0.7,0.9c0.8,0.3,1.6,0.6,2.5,0.9
				c-0.4-0.7,0.8,0.4,0.1-0.8c0.4,0,0.5,0.7,0.6,1H132c3.8,1.3,7.7,2.1,11.7,2.3c0.7,0,1.5-0.1,2.2-0.1c-0.7-1.1,0.5-0.5,0.1-1.7
				c0.4,0.2,0.7,1,0.8,1.6c1.8-0.2,3.6-0.4,5.3-0.8c-0.9-1-1.7-0.1-2.6-2.4l-0.2,1.1l-0.5-1.2c0.3-1.2,1.7,0.7,2.7,0.6
				c0.5,0.3-0.2-0.8,0-0.8c0.9,1,0,1,0.4,1.6c0.3,0.3,0.6,0.7,1,0.9c10.8-2.6,20.2-9.1,26.9-17.7v0h0c0.6-0.7,1.1-1.4,1.6-2.1
				C181,140.2,180.7,140.1,180.4,139.7L180.4,139.7z M120.6,153.6c0.2-1.1,0.9-0.2,1.4-0.1C121.8,153.6,121.5,154.8,120.6,153.6z
				 M130.6,157.4l-0.2-1.5l0.4,0.5L130.6,157.4L130.6,157.4z M140,156.9c0.2,0,0.2-0.3,0.5,0.1c0.2,0.3,0.9,0.4,1.1,1.2
				C141.1,157.6,140.2,157.4,140,156.9L140,156.9z"/>
			<path class="st1" d="M159.7,71.8C159.7,71.8,159.7,71.8,159.7,71.8C159.7,71.8,159.7,71.8,159.7,71.8
				C159.7,71.8,159.7,71.8,159.7,71.8z"/>
			<path class="st1" d="M186.4,92.2c-0.1-0.1-0.2-0.2-0.3-0.4c0.1,0.1,0.1,0.2,0.1,0.3C186.3,92.1,186.3,92.1,186.4,92.2z"/>
			<path class="st1" d="M129,160.9c-0.3-0.6-0.4-0.9-0.5-1.2c0.4,0.6,0.7,0.7,0.7,0.1c-3.4-1.1-6.6-2.7-9.7-4.6
				c-0.2,0.3-0.5,0.6-1.1-0.6l0.1,0c-4.6-3-8.6-6.8-11.9-11.1c-0.5-0.1-1.1,0.1-1.5,0.3c0,0.1-0.1,0.2-0.1,0.4
				c3,3.9,6.7,7.5,10.8,10.5c0.2-0.3,0.2-0.9,0.7-0.8c0.5,1.1,0,1-0.5,1c1.4,1,2.8,2,4.3,2.9c-0.2-0.6-0.5-1.2,0-0.9
				c0.2,0.4,0.4,0.8,0.5,1.2c0.2,0.1,0.5,0.3,0.7,0.4v-0.1c0,0,0,0.1,0,0.1c1.8,1,3.7,2,5.7,2.8C127.1,160.3,128.5,161.1,129,160.9
				L129,160.9z M117.1,153.7l0.8,1.6C117.4,155.1,117,154.3,117.1,153.7z"/>
			<path class="st1" d="M155.4,161.6c0.1,0.2,0.2,0.5,0.4,0.9c-0.3,0.2-0.7-0.4-1.1-0.8c-0.2,0-0.4,0.1-0.5,0.1
				c0.2,0.2,0.3,0.3,0.5,0.4c-0.3,0.6-1,0.4-1.6,0.4c-0.1-0.2-0.2-0.5-0.2-0.7c-2.5,0.3-5.1,0.4-7.7,0.2c-5.6,0.2-11-0.7-16-2.4
				c0.1,0.9,0.8,0.8,1.4,1.1l-0.6-0.8c0.2,0,0.6,0.7,0.9,0.7c0-0.1,0-0.2,0.1-0.1c0,0.1-0.1,0.1-0.1,0.1c0.1,0.4,0.7,1.3,1.1,1.8
				c-0.6-0.2-0.8-1.5-1.3-0.9c0.6,0.7,0.5,0.9,0.5,1.1c4.3,1.5,8.9,2.4,13.5,2.7c1.2-0.1,2.5-0.2,3.7-0.4c0.1-0.3,0.5-0.3,0.9-0.1
				c2.8-0.4,5.5-1.1,8.1-1.8c-0.1-0.1-0.1-0.1-0.2,0l0.2-0.3c0.1,0.1,0.1,0.2,0.2,0.2c0.1,0,0.2-0.1,0.3-0.1
				c-0.2-0.2-0.4-0.4-0.6-0.7c0.5,0.5,0.8,0.6,0.9,0.6c0.3-0.1,0.7-0.2,1-0.3c-0.3-0.4-0.6-0.6-0.4-0.4c0.8-0.5,1.9-1,3-0.5
				c0.2-0.1,0.4-0.2,0.6-0.2l-0.1-0.5c0.1,0.2,0.3,0.3,0.4,0.4c0.5-0.2,0.9-0.4,1.4-0.6l-0.2-0.4l0.4,0.3c0.3-0.1,0.6-0.3,0.9-0.4
				l-0.5-0.4l0.6-0.4l0.1,0.7c4-1.9,7.7-4.2,11-6.9l-1.1-0.7C169.6,157,162.8,160.3,155.4,161.6L155.4,161.6z"/>
			<path class="st1" d="M189.5,120.3c-0.6-0.1-1.2-0.8-1.9-1.4c-0.2,4.2-1.1,8.3-2.6,12.2l0.2,0l-0.2,0.1l0.2,0.7l-0.4-0.3
				c-0.2,0.4-0.3,0.8-0.5,1.2c0.2,0.1,0.3,0.3,0.5,0.5c-0.1,0.4,0.5,0.9,0,0.8l0.2,0.4c0.2-0.4,0.4-0.8,0.6-1.3
				c-0.1-0.1-0.2-0.2-0.3-0.2c-0.1,0.1-0.1,0.2-0.2,0.1c0-0.2,0.1-0.2,0.2-0.1c0.1-0.1,0.1-0.3,0.4,0c1.8-3.9,3.1-8,3.8-12.2
				c-0.1,0-0.3-0.1-0.5-0.2L189.5,120.3L189.5,120.3z"/>
			<path class="st1" d="M187.8,136.8c-1,2-2.1,3.9-3.3,5.7c0.3,0.2,0.6,0.3,0.7-0.1c0.7,1.4-0.1,0.4,0,1c0,0.1,0.1,0.1,0.1,0.2
				c1.3-1.9,2.5-3.8,3.5-5.9c0,0,0-0.1,0-0.1L187.8,136.8L187.8,136.8z"/>
			<path class="st1" d="M192.7,114.3c0.4,1.5-0.3,2,0.6,3.3c-0.7-0.3-0.8,0.1-1.1,0.4c0,6.5-1.5,12.8-4.2,18.4
				c0.4,0.2,0.7,0.5,0.9,0.9c3-6.2,4.6-13.1,4.5-20.7c0-0.5,0-0.9,0-1.4C193.2,115.1,193,114.8,192.7,114.3L192.7,114.3z"/>
			<path class="st1" d="M122.8,75.8c0.9,1.2-0.1,0.4-0.3,0.4c0.4,0.5,0.7,1.2,0.9,1.8c1.5-0.8,3-1.6,4.5-2.2
				c-0.2-0.2-0.3-0.5-0.6-0.7l-0.5,0.7c-0.5-0.3,0.1-0.7-0.2-1.3c-0.1,0.7-0.8-0.1-1.1,0.7c-0.3,0.4-1.1-0.5-1.4-1.4
				c-0.4,0.2-0.9,0.5-1.3,0.8c0.4,0,1.2,0.7,0.8-0.3l0.9,0.8h-1l0.4,1.1c-0.4,0.4-0.9-1.2-1.4-1.5c0,0,0-0.1,0-0.1
				c-0.5,0.3-0.9,0.6-1.4,0.9C121.9,75.9,122.5,76.4,122.8,75.8L122.8,75.8z"/>
			<path class="st1" d="M175.8,152c0.3,0.4,0.5,0.4,0.8,0.5l0.1,0.3c3-2.5,5.7-5.3,8-8.4c-0.2-0.3-0.5-0.8-0.7-1.1
				C181.7,146.5,178.9,149.5,175.8,152L175.8,152z"/>
			<path class="st1" d="M184.9,131.1c0,0,0,0.1,0,0.1L184.9,131.1L184.9,131.1L184.9,131.1z"/>
			<path class="st1" d="M128.3,161.7c0.2,0.1,0.5,0.2,0.7,0.3c-0.3-0.3-0.6-0.6-0.9-0.9C127.9,161.1,128.1,161.4,128.3,161.7z"/>
			<path class="st1" d="M125.7,72.9c-0.1,0.1-0.2,0.1-0.4,0.2C125.5,73.1,125.6,73,125.7,72.9L125.7,72.9L125.7,72.9z"/>
			<path class="st1" d="M187.2,107l1.6,1.8c0-0.9,0.3-0.9,0.7-0.5c-0.3-1.8-0.7-3.6-1.2-5.3c-0.1-0.3-0.2-0.8-0.5-0.7l-0.1,0.9
				l0.3,0.2l-1.3-0.9c1,0.2,0.1-1.7,0.4-2.2l0.5,0.4c-0.4-1-0.8-2-1.2-3l-0.5-0.4c0-0.1,0.1-0.1,0.2-0.1c-0.6-1.4-1.4-2.8-2.1-4.2
				c-0.3,0.1-0.5,0.2,0,1c-0.3,1.4-1.4-1.9-1.7-0.7c0.2,0.3,0.5,0.9,0.7,0.9c0.2,0.7-0.2-0.1-0.4-0.2c-0.3-0.2-0.8-1.4-0.5-1.7
				c1.5,2.3,0.5-0.7,1.1-0.7c-0.2-0.4-0.5-0.8-0.8-1.2c-0.5-0.6-1-0.9-0.9,0.1l0.3,0.4c0.1,0.1,0.3,0.2,0.4,0.6l-0.4-0.6
				c-0.3-0.1-0.5,0.1-0.7-0.1l0.4,0.9c0,0.2-0.4,0.2-0.8,0.1c-0.1,0-0.1,0-0.1,0c-0.1,0-0.2-0.1-0.3-0.1c0.1,0,0.2,0.1,0.3,0.1
				c0.1,0,0.1,0,0.1,0c0.2,0,0.3-0.1,0.1-0.7c-0.3-0.4-0.9-1.2-1.1-1.2c0.2-0.3,0.7-0.1,0.6-1l0.3,1.2l0.5-0.5
				c-0.3-0.5-0.7-1.1-0.9-1.3c0,0-0.1,0-0.1-0.1c0,0,0.1,0,0.1,0.1c0.4,0.2,0.7,0.1,0.9,0c-0.6-0.8-1.2-1.6-1.8-2.3
				c-0.2,0-0.3,0.2,0.2,1.3c-0.6-0.4-1.6-0.2-2.3-0.9l1.5,1.8l-1.4-0.9c0,0,0,0-0.1,0.1l-0.5-0.4l0.6,0.4c0.3-0.3-0.6-0.9-0.6-1.6
				c-0.5-0.2-0.5,0.7-0.2,1.9c1,1.1,1.9,2.3,2.7,3.6c0.2-0.1,0.3-0.3,0.2-0.7c0.8,1,0.8,1.8,1,2.6c0.1,0.2,0.2,0.3,0.3,0.5
				c0.7,0.2,0.1-0.9,1,0.2H181l0.5,0.7c-0.1,0.1-0.1,0.1-0.2,0.2c0.2,0.3,0.3,0.6,0.5,0.8c0,0,0.1,0,0.1-0.1l-0.1,0.1
				c2.1,3.8,3.7,8,4.7,12.5C186.8,108,187.4,108.1,187.2,107L187.2,107z M182.5,94.2L182.5,94.2C182.4,94.1,182.4,94.1,182.5,94.2
				l1.2,1.4C183.3,96,182.6,94.6,182.5,94.2z M183.6,96.6c0.4,0.2,0.1-0.9,0.7-0.1C184.4,97.1,183.9,96.7,183.6,96.6z M184.8,97.5
				c-0.1,0-0.1,0.1,0,0.4C184.7,97.6,184.7,97.5,184.8,97.5c0.2,0,0.8,0.8,1,0.5c-0.1-0.2-0.1-0.4-0.2-0.7l-0.2-0.4
				c0.1,0.2,0.2,0.3,0.2,0.4l1,1.7C186.3,99.1,185.1,97.6,184.8,97.5L184.8,97.5z"/>
			<path class="st1" d="M101.7,137.6c-0.2,0.5-0.7,0-0.8,0.2c0.3,0.5,0.6,1.1,0.9,1.6c0,0,0-0.1,0-0.1l0.2,0.4
				c0.1,0.2,0.2,0.4,0.3,0.5h0.2c0.1-0.4,0.2-0.7,0.1-0.9c0.2-0.5,0.4-0.8,0.5-1.1c-0.2-0.3-0.4-0.6-0.6-1c-0.1,0.2-0.2,0.3-0.7,0
				c0.4-0.4-1-1.9-1.6-1.6c0.4,1.1-0.2,0.4-0.4,0.4c0.2,0.4,0.4,0.8,0.6,1.2C100.9,137.2,101.3,137.2,101.7,137.6L101.7,137.6z"/>
			<path class="st1" d="M100.9,134.4c-0.3-0.6-0.5,0.1-0.7,0c0.1-0.4,0.6-0.2-0.2-1.1c0.3,0.1,0.6,0.3,0.8,0.4
				c-1.9-4.3-3.3-8.8-3.9-13.6l0,0l-0.3-0.2c0.1,0,0.2,0.1,0.3,0.2l0,0c-0.2-1.5-0.3-3-0.4-4.5c0-0.3,0-0.6,0-1
				c-0.5-1.2-0.2,0.7-0.9-0.2l-0.2-0.5c0,0.5-0.1,1.1-0.1,1.6c-0.1,4.1,0.4,8.1,1.5,11.9l0.4,0.4c-0.1,0.2-0.1,0.4-0.2,0.4
				c0.6,2.1,1.4,4.3,2.4,6.3C100,134.9,100.8,135.1,100.9,134.4L100.9,134.4z"/>
			<path class="st1" d="M103.4,140.7c0.9,1.5,2,1.9,2.8,2.2c-0.8-1-1.5-2.1-2.2-3.2C103.8,140,103.6,140.3,103.4,140.7z"/>
			<path class="st1" d="M188.4,114.7c0.5,1.7,0.7-0.2,1.1,1.1c0.1,0,0.4,0,0.6,0.1c0-0.9,0-1.8-0.1-2.8c-0.2-0.2-0.4-0.3-0.6-0.4
				c0.1-0.2,0.3-0.3,0.5-0.2c0-0.4-0.1-0.9-0.1-1.3c-0.2,0.3-0.4,0.8-1.1-0.2c0,0.6-1,0.3-0.5,1.5c-0.7-1.2-0.6,0-1.1-0.1
				c0.2,1.2,0.3,2.3,0.4,3.5C187.9,115.6,188.2,115.1,188.4,114.7L188.4,114.7z"/>
			<path class="st1" d="M106,133.7C106,133.7,106,133.6,106,133.7l-0.5-0.9c0.1,0.2,0.2,0.3,0.3,0.4c-0.3-0.6-0.5-1.3-0.8-1.9
				c-0.9,0.1-1.8,0.1-2.7-0.3c0.4,1,0.8,2,1.2,3C104.3,133.6,105,133.3,106,133.7L106,133.7z"/>
			<path class="st1" d="M101.1,93.6c2.1-4.2,4.8-8,7.8-11.4C105.8,85.5,103.1,89.3,101.1,93.6z"/>
		</g>
		<g id="_5">
			<path class="st1" d="M67.8,95.9c0.1,0.2,0.2,0.3,0.4,0.5c2.2-0.3,4.5-0.7,6.7-1.2c0.1-0.1,0.1-0.2,0.2-0.4l-0.4-0.6
				c0.4,0.2,0.5,0.4,0.4,0.6l0.2,0.3c0.2,0,0.3-0.1,0.4-0.1c0.5-0.6,0.9-1,2.2-1.3c-0.1,0.4,0.1,0.6,0.3,0.7
				c18.3-4.5,36.5-13.1,54-2.7c2.2-0.5,0.1-0.8,2.6-0.9c-23.1-12.4-44.8,1.5-66.8,4.4c0.1,0.1,0.2,0.2,0.2,0.4L67.8,95.9L67.8,95.9z
				"/>
			<path class="st1" d="M40.7,90.8c-0.8,0.3,1.1,0.7,2,1.1c0.5,0.3,1,0.6,1.5,0.8c0-0.1,0-0.1,0-0.1C43.1,92.1,41.9,91.5,40.7,90.8
				L40.7,90.8z"/>
			<path class="st1" d="M55.6,96.3c0,0,0,0.1,0,0.2c3.9,0.6,7.8,0.6,11.7,0.1c-0.2-0.1-0.3-0.2-0.5-0.3c0.3-0.1,0.5-0.6,0.7-0.8
				c-1.6,0.2-3.3,0.4-4.9,0.4c0,0.3-0.3,0.2-0.6,0c-1.4,0-2.8,0-4.2-0.1l0.3,0.8l-0.8-0.8c-0.3,0-0.6-0.1-0.9-0.1
				c0.1,0.2,0.2,0.4,0.3,0.6C56.5,96.4,56,96.3,55.6,96.3L55.6,96.3z"/>
			<path class="st1" d="M55.6,96.3c0-0.2-0.1-0.5-0.2-0.7c-1.6-0.2-3.3-0.5-4.9-0.9c-0.1,0-0.1,0.1-0.2,0.1l0.6,0.6
				c1.5,0.4,3,0.8,4.5,1C55.4,96.3,55.5,96.3,55.6,96.3z"/>
			<path class="st1" d="M40.1,103.4c0.5,0.3,1,0.5,1.5,0.8C42.9,103.7,42.2,103.5,40.1,103.4z"/>
			<path class="st1" d="M100.6,100.6c10.7-2,21.6-2.1,32.9,3.9c-1.1-0.7,1-0.7-1.3-1.2c-8.9-5.4-18.1-5.7-27.5-4.1l0,0.3l-0.7,0.2
				l0.2-0.4c-1.3,0.2-2.7,0.5-4,0.8C100.4,100.2,100.6,100.4,100.6,100.6L100.6,100.6z"/>
			<path class="st1" d="M82.8,105.1c1.1-0.3,2.2-0.6,3.3-0.9c0-0.1-0.1-0.2-0.1-0.3c-1.1,0.3-2.3,0.6-3.4,0.9
				C82.7,104.9,82.7,105,82.8,105.1z"/>
			<path class="st1" d="M99.9,100.8c-0.1-0.1-0.1-0.3-0.1-0.6c-4.2,1-8.5,2.2-12.8,3.4c-0.1,0.2-0.2,0.3-0.2,0.4
				C91.1,102.8,95.5,101.6,99.9,100.8z"/>
			<path class="st1" d="M65,108.7c0.3-0.1,0.9-0.3,1.4-0.4c0-0.1-0.1-0.2-0.1-0.2c-0.9,0.1-1.8,0.2-2.7,0.2c0.3,0.2,0.5,0.5,0.7,0.7
				c0.3,0,0.7-0.1,1-0.1C65.3,108.9,65.2,108.8,65,108.7z"/>
			<path class="st1" d="M41.6,104.2c-0.3,0.1-0.7,0.2-1.2,0.3c3.5,2,7,3.2,10.6,4c0.4-0.2,0.8-0.5,1.1-0.8
				C48.6,107,45.1,105.9,41.6,104.2z"/>
			<path class="st1" d="M79.6,105.6c0,0.1,0,0.2,0.2,0.4c0.5-0.1,1-0.3,1.5-0.4c-0.1-0.1-0.1-0.2-0.2-0.3
				C80.6,105.3,80.1,105.5,79.6,105.6z"/>
			<path class="st1" d="M52.4,107.7c-0.2,0.3-0.3,0.5-0.5,0.7c0.1,0.1,0.2,0.2,0.3,0.3c0.7,0.1,1.5,0.2,2.2,0.3
				c0.3-0.2,0.5-0.6,0.7-0.9C54.2,108,53.3,107.9,52.4,107.7L52.4,107.7z"/>
			<path class="st1" d="M67.7,107.9c-0.2,0-0.4,0.1-0.7,0.1c0,0.1,0.1,0.3,0.1,0.4c0.1,0.1,0.2,0.1,0.3,0.2c0.2,0,0.3-0.1,0.5-0.1
				C67.9,108.4,67.8,108.1,67.7,107.9L67.7,107.9z"/>
			<path class="st1" d="M62.9,108.3c-0.2,0-0.4,0-0.6,0c-0.1,0.3-0.3,0.5-0.4,0.8c0,0,0.1,0,0.1,0.1c0.4,0,0.8-0.1,1.2-0.1
				c0.1-0.1,0.2-0.1,0.3-0.2L62.9,108.3L62.9,108.3z"/>
			<path class="st1" d="M69.2,107.9c-0.4,0.1-0.7,0.3-0.8,0.6c0.3,0,0.5-0.1,0.8-0.1c0.1-0.1,0.2-0.2,0.3-0.3
				C69.4,108,69.3,108,69.2,107.9z"/>
			<path class="st1" d="M94.9,114.6l0.2,0.1c4.1-1.1,8.2-2,12.2-2.5c0,0,0,0,0-0.1c0,0,0,0,0,0.1c7.4-0.9,14.6-0.4,21.8,3.3
				c0-0.2,0.2-0.4,0.7-0.7c0,0.2-0.2,1,0.3,1.1c0.3-0.3,0.2-0.7,0.2-1.2c-8.2-3.9-16.4-4.3-24.7-3.1c-0.3,0.3-0.6,0.4-1.1,0.2
				c-0.1,0-0.1,0-0.2,0c0,0,0,0.1,0,0.1v-0.1c-3.1,0.5-6.2,1.2-9.3,2c0,0,0,0,0.1,0C95,114.1,95,114.4,94.9,114.6L94.9,114.6z"/>
			<path class="st1" d="M83.8,117.8c0,0,0-0.1,0-0.1c0-0.3,0.1-0.6,0.1-0.8c-4,1.1-8.1,2.2-12.1,2.9l0.3,0.9
				C76,119.9,79.9,118.9,83.8,117.8z"/>
			<path class="st1" d="M63.8,120.8c-0.5,0-1,0.1-1.5,0.1c0.2,0.2,0.2,0.3-0.3,0.6c-1-0.5-1.8-0.2-2.5,0.3c1.8,0.1,3.6,0,5.4-0.1
				c-0.4,0-0.8-0.1-1.3-0.4C63.6,121.1,63.7,120.9,63.8,120.8z"/>
			<path class="st1" d="M86.1,117.2c0-0.3,0-0.6,0.4-0.7c-0.1,0.2-0.1,0.4-0.1,0.6c2.7-0.8,5.4-1.6,8.1-2.3l-0.5-0.2
				c0.2-0.3,0.3-0.5,0.5-0.7c-3.2,0.8-6.4,1.8-9.7,2.7c0.1,0.3,0.3,0.6,0.4,0.8C85.5,117.4,85.8,117.3,86.1,117.2L86.1,117.2z"/>
			<path class="st1" d="M67,121.4c1-0.1,1.9-0.2,2.9-0.4c-0.3-0.1-0.5-0.4-0.4-0.9c-0.9,0.2-1.9,0.3-2.8,0.4c0,0-0.1,0.1-0.1,0.1
				C66.5,120.7,67,121.4,67,121.4z"/>
			<path class="st1" d="M71.1,119.9c-0.2,0-0.3,0.1-0.5,0.1C70.8,120,71,120,71.1,119.9z"/>
			<path class="st1" d="M65.1,121.6c0.4,0,0.8-0.1,1.1-0.1c0.1-0.2,0.2-0.5,0.2-0.8C66,121.1,65.6,121.5,65.1,121.6L65.1,121.6z"/>
			<path class="st1" d="M130.4,115.2l-0.4,0.7c0.5,0.3,1.1,0.6,1.6,0.9c0.9-0.2-0.3-0.7,1.2-0.9c-0.4-0.2-0.8-0.5-1.2-0.7
				c0,0.1-0.1,0.2-0.2,0.3C131,116,130.9,115.5,130.4,115.2L130.4,115.2z"/>
			<path class="st1" d="M63.6,134.1c0-0.2-0.1-0.5-0.2-0.7c-1,0-1.9,0.1-2.8,0l-0.7,0.8C61.2,134.2,62.4,134.2,63.6,134.1
				L63.6,134.1z"/>
			<path class="st1" d="M103.6,125.1c9.5-1.6,19.2-1.4,29.5,3.6c-0.2-0.1-0.3-0.3,0.2-0.5c-9.4-5.6-18.9-5.7-28.6-4
				C104.4,124.5,104,124.8,103.6,125.1z"/>
			<path class="st1" d="M64.7,134c12.8-1.1,25.3-6.6,38.2-8.8c0-0.2,0-0.4-0.1-0.6c-10.7,2.2-21.6,6.4-32.6,8.2
				c-0.3,0.2-0.6,0.2-0.8,0.1c-1.4,0.2-2.7,0.4-4.1,0.5c0,0,0,0.1,0,0.1C65,133.5,64.8,133.7,64.7,134L64.7,134z"/>
			<path class="st1" d="M55.2,134c0.1,0,0.2,0,0.3,0c0.7-0.2,1.5-0.3,2.2-0.7c-1.1-0.1-2.2-0.2-3.4-0.4
				C54.5,133.4,54.8,133.7,55.2,134z"/>
			<path class="st1" d="M133.6,128.9c0.1,0.1,0.3,0.1,0.4,0.2C134.1,129.1,133.8,129,133.6,128.9z"/>
			<path class="st1" d="M133.1,128.7c0.1,0.1,0.3,0.2,0.5,0.2C133.4,128.8,133.3,128.8,133.1,128.7z"/>
			<path class="st1" d="M131.6,140.7c0.3,0.2,1.5,0.8,3.3,1.1c-1.9-1-3.8-1.8-5.7-2.5C130,139.8,130.8,140.2,131.6,140.7
				L131.6,140.7z"/>
			<path class="st1" d="M46.2,143.8c0.2-0.2,0.4-0.4,0.6-0.4c-0.4-0.1-0.7-0.3-1.1-0.4C45.7,143.4,45.8,143.8,46.2,143.8L46.2,143.8
				z"/>
			<path class="st1" d="M111.9,135.9c-7.4,0.3-14.9,2.3-22.6,4.5c-0.3,0.4-0.9,0.7-0.9,1c7.5-2.1,15-4.1,22.7-4.5
				C111.5,136.7,111.9,136.3,111.9,135.9L111.9,135.9z"/>
			<path class="st1" d="M111.9,135.9l0.1,1c5.6-0.2,11.3,0.4,17.2,2.5C123.6,136.6,117.9,135.7,111.9,135.9z"/>
			<path class="st1" d="M41.5,141.1c-1.2,0.2,0.7,0.3-0.7,0.9c0.3,0.2,0.6,0.3,0.9,0.4C41.7,141.8,41.6,141.4,41.5,141.1z"/>
			<path class="st1" d="M55,145.6c0.3,0.4,1.8,0,1.9,1c10.6,0.8,21-2.2,31.5-5.2l-0.4-0.7C77,143.9,65.8,147.1,55,145.6L55,145.6z"
				/>
			<path class="st1" d="M49.4,144.6c0.5,0,1.1-0.1,0.7,0.8c0,0.1,0.1,0.1,0.1,0.2c0.2,0,0.3,0.1,0.5,0.1c0.2-0.1,0.4-0.5,0.6-0.8
				c-0.8-0.2-1.7-0.5-2.5-0.7C48.7,144.5,49,144.6,49.4,144.6L49.4,144.6z"/>
			<path class="st1" d="M43.8,142.7c-0.3-0.6-0.6-0.2-0.9,0.3c0.4,0.2,0.7,0.3,1.1,0.5C43.9,143.1,43.9,142.9,43.8,142.7L43.8,142.7
				z"/>
		</g>
	</g>
	<g>
		<path class="st1" d="M166.9,93.8c0,0,0,0.1,0,0.1l6.1-6.1l-0.8-0.8l-6.2,6.2c0.1,0.2,0.4,0.3,0.4,0.5l0,0
			C166.6,93.6,166.7,93.8,166.9,93.8L166.9,93.8z"/>
		<path class="st1" d="M162.8,133.9c-0.1-0.2-0.1-0.2,0.2-0.3l-0.8-0.8c-0.1,0.1-0.1,0.1-0.2,0.1c0.1-0.1,0.1-0.1,0.1-0.1l-0.4-0.4
			c-0.1,0.1-0.2,0.2-0.4,0.1c0.1-0.1,0.2-0.2,0.4-0.1l-16.6-16.6l12.3-12.3c0,0,0,0,0,0c0,0,0-0.1,0-0.1c0,0,0.1,0,0.1,0l9.2-9.2
			c-0.2-0.5-0.2-0.4-0.1-0.5l0,0c0,0-0.1,0-0.7-0.2c0.1-0.1,0.1-0.2,0.1-0.2l-3.1,3.1c0,0,0,0,0.1,0c-0.1,0-0.1,0.1-0.2,0.1
			L144.3,115l-3.4-3.4c-0.3,0.2-0.2,0.2-0.4,0.1c0.1-0.1,0.2-0.2,0.3-0.2l-0.6-0.6c-0.1,0-0.2,0-0.3,0.1c-0.1-0.2-0.1-0.3-0.1-0.3
			c0.1,0,0.1,0.1,0.2,0.1l-0.3-0.3c0,0.1,0,0.2,0,0.2c-0.2-0.1-0.1-0.1-0.4,0.3c-0.1,0.2-0.2-0.3-0.1-0.9l-0.5-0.5
			c-0.1,0-0.2-0.1-0.3-0.1c0-0.1,0.1-0.1,0.1-0.2l-8.9-8.9c-0.1,0.4-0.3,0.6-0.6,0.6c0-0.1,0-0.2,0-0.2c0.3,0,0.3-0.3,0.3-0.5
			c0.1,0,0.1,0,0.2,0l-1.3-1.3c-0.1,0-0.2-0.1-0.3-0.1c-0.1,0-0.1-0.1-0.1-0.3l-4.2-4.2c0,0-0.1,0-0.1,0c-0.2-0.1-0.3-0.2-0.4-0.4
			c0,0,0,0,0,0l-1-1c0,0.1,0,0.2,0,0.2c-0.2,0-0.3,0-0.5,0c0-0.2,0.1-0.3,0.3-0.2c0.3,0,0-0.1,0.1-0.2l-0.1-0.1c0,0,0,0-0.1,0.1
			c0-0.1,0-0.1,0-0.1l-0.2-0.2c0,0,0,0.1,0,0.2c-0.1-0.1-0.1-0.2-0.2-0.3c0.1,0,0.1,0,0.1,0l-0.7-0.7c-0.1,0-0.1,0-0.2,0
			c-0.1,0.1-0.2,0-0.2-0.2c0.1,0,0.1,0,0.2,0l-4.2-4.2c0,0-0.1,0-0.1,0c0,0.2,0,0.3,0,0.5c-0.2-0.1-0.2-0.3-0.2-0.6
			c0.1,0,0.1,0,0.2,0l-0.2-0.2l-0.6,0.6c0,0,0,0.1,0,0.1c0,0-0.1,0-0.1,0l10.8,10.8c0,0,0,0,0.1-0.1c0.1,0.1,0.3,0.2,0.4,0.2
			c-0.1,0.1-0.1,0.1-0.2,0.2l2.1,2.1c0-0.1,0-0.1,0.1-0.1c0,0.1,0,0.1,0,0.2l1.6,1.6c0.1,0,0.1-0.2,0.3-0.1l0,0c0-0.1,0-0.1,0-0.2
			c0.3,0,0.5,0.3,0.7,0c0.1,0.1,0.2,0.2,0.3,0.2c0,0.1,0,0.3,0,0.3c-0.2,0-0.3,0.4-0.6,0.2c0.1-0.1,0.1-0.2,0.2-0.3
			c0,0-0.6-0.4-0.5-0.3l0,0c0,0,0,0.1,0.1,0.3c0,0-0.1,0.1-0.1,0.1l1,1c0-0.1,0.1-0.2,0.1-0.3c0.1,0.1,0.1,0.2,0.2,0.3
			c-0.1,0.1-0.1,0.1-0.2,0.1l0.2,0.2c0,0,0.1-0.1,0.1-0.1c0,0.1,0,0.2,0,0.2l11.5,11.5L122.3,137c0.1,0,0.2,0.1,0.5,0.1
			c0,0.1,0,0.2,0,0.2c-0.2,0.1-0.3-0.1-0.5-0.1c-0.1,0-0.1-0.1-0.1-0.1l-6.4,6.4c0,0.1-0.1,0.2-0.1,0.2l0.7,0.7l10-10
			c0,0-0.1,0-0.2-0.1c0.2-0.1,0.3-0.1,0.3-0.1l2-2c0,0-0.1,0-0.1,0c0.1-0.1,0.1-0.1,0.2-0.1l2.5-2.5c-0.1-0.1-0.1-0.1-0.2-0.2
			c0.1,0,0.2,0,0.4,0l6.5-6.5c0,0-0.1-0.1-0.1-0.2c0.1,0,0.2,0,0.3-0.1c0,0,0,0,0,0l6.3-6.3l4.7,4.7c0,0,0.1,0,0.2,0.1
			c0,0-0.1,0-0.1,0.1l0.8,0.8c0.2-0.1,0.4-0.1,0.6,0.1c-0.1,0.1-0.1,0.1-0.2,0.2c0,0,0,0.1-0.1,0.1l0.6,0.7c0.2-0.1,0.1-0.1,0.2,0.1
			c-0.1,0.1,0,0.1-0.2,0l0.4,0.4c0,0,0.1-0.1,0.1-0.1c0,0.1-0.1,0.2-0.1,0.2l2.5,2.5c0.3-0.1,0.2-0.1,0.3,0
			c-0.1,0.1-0.1,0.1-0.1,0.1l7.1,7.1c0,0,0.1-0.1,0.1-0.1c0.1,0.1,0.1,0.2,0,0.2l6.9,6.9c0,0,0,0,0.1,0c0,0.1,0,0.1,0,0.1l4.1,4.1
			l0.8-0.8l-10-10C163,133.8,162.9,133.9,162.8,133.9L162.8,133.9z M146.4,113.2c-0.1,0.1,0,0.1-0.2-0.1
			C146.4,113.1,146.4,113.1,146.4,113.2z M116.3,88.2c-0.3,0-0.2-0.3-0.1-0.2C116.4,88,116.4,88.1,116.3,88.2z M119.6,91.4
			c-0.1,0.1-0.1,0-0.4-0.7C119.7,91,119.7,91.4,119.6,91.4z M119.8,91.2c0.1-0.1,0.2-0.1,0.2,0.1C119.9,91.2,119.8,91.2,119.8,91.2z
			 M122.7,93.4c0.1,0.1,0.1,0-0.2,0.3C122.4,93.5,122.6,93.5,122.7,93.4z M122.7,94.6c-0.1,0-0.1,0.1,0-0.4
			C122.9,94.4,122.8,94.5,122.7,94.6z M122.9,94.1c0.2-0.1,0.3-0.1,0.3,0.2C123.1,94.2,123,94.1,122.9,94.1z M131.7,103.3
			c-0.1-0.2,0-0.4,0.3-0.4C131.9,103.4,131.9,103.3,131.7,103.3z M135.2,107.3c0-0.2-0.1-0.2,0.1-0.2
			C135.4,107.2,135.4,107.1,135.2,107.3z M136.7,108.2l-0.1-0.1l0.1,0C136.8,108.1,136.8,108.1,136.7,108.2L136.7,108.2z M139,111.2
			c0-0.2,0-0.2,0.1-0.2C139.1,111.2,139.1,111.2,139,111.2z M142.6,114.1c0.1-0.1,0.1-0.1,0.2-0.2
			C142.9,114.2,142.7,114.2,142.6,114.1z M126,134.1c0.1,0,0.2-0.1,0.3,0C126,134.2,126.1,134.2,126,134.1z M128.7,130.8
			c0-0.1-0.1-0.1,0.1-0.1c0,0,0,0.1,0,0.1C128.8,130.8,128.7,130.8,128.7,130.8z M133.5,127.3c0-0.2,0-0.1,0-0.4
			C133.6,127,133.6,127.2,133.5,127.3z M134.2,126.3c0-0.1,0-0.1,0-0.1c0,0,0.1,0,0.1,0c0,0,0.1,0.1,0,0.1
			C134.3,126.3,134.2,126.3,134.2,126.3L134.2,126.3z M138,122.1c0-0.2-0.1-0.1,0.2-0.2C138.1,122.1,138.2,122,138,122.1z
			 M138.8,120.8c0.2-0.1,0.3-0.1,0.4,0c0,0,0,0.1,0.1,0.2C139,121,139.1,121.1,138.8,120.8L138.8,120.8z M147,119.3
			c0.2-0.1,0.2,0,0.2,0.1C147.1,119.3,147.2,119.4,147,119.3z M148.8,121c0,0-0.1-0.1-0.1-0.1c0.1-0.2,0.1-0.2,0.4-0.2
			c0,0,0,0.1,0,0.1C149.1,120.9,149.1,121,148.8,121L148.8,121z M148.9,120.5c0-0.2,0.1-0.2,0.2-0.3
			C149.1,120.4,149.1,120.5,148.9,120.5z M151.4,122.3c-0.1,0.1-0.2,0.2-0.3,0L151.4,122.3z M151.2,123.3
			C151.2,123.3,151.2,123.3,151.2,123.3c0-0.2,0.1-0.2,0.2-0.1C151.4,123.2,151.3,123.3,151.2,123.3z M151.9,123.4
			c0-0.2-0.1-0.2,0-0.2C152,123.4,152,123.4,151.9,123.4z M151.9,123c0.1-0.3,0.1-0.3,0.2-0.2C152.1,122.9,152,123,151.9,123z
			 M159.8,131.3c0.1,0,0.1-0.1,0.2,0.1C159.8,131.4,159.9,131.4,159.8,131.3z M161.7,133.3c0.2,0.1,0.2,0,0.2,0.1
			C161.8,133.4,161.8,133.4,161.7,133.3z M164.5,135.3C164.5,135.3,164.5,135.4,164.5,135.3C164.5,135.4,164.4,135.4,164.5,135.3
			c-0.1,0.1-0.1,0-0.1,0C164.4,135.3,164.5,135.3,164.5,135.3L164.5,135.3z"/>
	</g>
	<path class="st1" d="M126.9,116.4c0.1-0.1,0.1-0.2,0.2-0.2c0-0.2,0-0.3,0-0.4c0-4.2-3.4-7.7-7.7-7.7s-7.7,3.4-7.7,7.7
		s3.4,7.7,7.7,7.7c4,0,7.3-3.1,7.6-7C127,116.4,126.9,116.4,126.9,116.4z M125.9,113C125.8,113,125.9,113,125.9,113
		C125.9,112.9,125.9,112.9,125.9,113z M124.6,110.7c-0.2,0.1-0.1,0.1-0.2,0C124.6,110.7,124.6,110.7,124.6,110.7z M125.4,120.4
		c0.2-0.7,0.2-0.4-0.1-1c0,0,0-0.1,0.1-0.1c0.3,0.1,0.1,0,0.5,0.5C125.6,119.9,125.7,120.2,125.4,120.4z M126,118.5
		c0.1,0.1,0.3,0,0.3,0.3C126.1,118.7,126.1,118.6,126,118.5z M126.2,115.7C126.2,115.7,126.2,115.7,126.2,115.7
		c0,1.4-0.4,2.8-1.2,3.9c0,0,0,0,0,0c0,0-0.1,0-0.1,0.1c-0.7,1-1.6,1.7-2.7,2.2c0,0,0,0.1,0,0.1c-0.1,0-0.1,0-0.2-0.1
		c-0.8,0.3-1.7,0.6-2.7,0.6c-3.7,0-6.8-3-6.8-6.8c0-2.5,1.4-4.7,3.4-5.8c0-0.1,0.1-0.2,0-0.3c0.1,0.1,0.2,0.1,0.2,0.2
		c0.9-0.5,2-0.8,3.1-0.8c3.5,0,6.3,2.6,6.7,6c0.1,0.1,0.2,0.1,0.3,0.3c-0.1,0.1-0.2,0.1-0.3,0.2
		C126.4,115.7,126.5,115.7,126.2,115.7L126.2,115.7z M126.6,116.6C126.6,116.6,126.5,116.6,126.6,116.6c0-0.1,0.1-0.2,0.1-0.2
		C126.8,116.5,126.8,116.5,126.6,116.6L126.6,116.6z"/>
	<path class="st1" d="M120.2,113.8c0.2-0.1,0.3,0,0.5,0c0.1,0,0.1,0.1,0.1,0.1c0.5-0.7,1-1.3,1.6-2c0.1-0.1,0.2-0.3,0.4-0.4
		c0.1-0.1,0.2-0.2,0.4-0.2c-0.1-0.1-0.1-0.3,0-0.4c-0.7-0.5-1.5-0.9-2.3-1.1c-0.3-0.1-0.3-0.1-0.6-0.1l0,0c-0.1,0.1-0.2,0.2-0.3,0.3
		c0,0,0,0.1,0,0.1c0.1,0.2,0.1,0.4,0.1,0.6c0,0.2,0,0.4,0,0.6c0,0.6-0.1,1.1-0.2,1.6c0,0.1,0,0.3-0.1,0.4c0,0,0,0.1,0,0.1
		c0,0,0.1,0,0.1,0C120,113.5,120.1,113.6,120.2,113.8L120.2,113.8z"/>
	<path class="st1" d="M115.7,111.3C115.7,111.3,115.7,111.3,115.7,111.3c0.2,0.1,0.3,0.2,0.4,0.3c0.1,0.1,0.2,0.2,0.4,0.4
		c0.6,0.6,1.1,1.3,1.6,2c0.1,0,0.1-0.1,0.1-0.1c0.2-0.1,0.3-0.1,0.5,0c0.1-0.2,0.2-0.3,0.4-0.3c0.1,0,0.1,0,0.1,0c0-0.1,0-0.1,0-0.2
		c0,0,0,0.1,0,0.1c-0.2,0.1-0.2-0.2-0.3-0.2c-0.1-0.1-0.3,0.2-0.4-0.1c0.2-0.1,0.4-0.2,0.6,0c0.1,0.1,0.2,0.1,0.2,0.2
		c-0.1-0.8-0.2-1.5-0.3-2.3c0-0.2,0-0.3,0-0.5c0-0.2,0-0.3,0.1-0.5c-0.1-0.1-0.3-0.1-0.3-0.3c-0.7,0.1-1.3,0.3-1.9,0.6
		c0.1,0.2,0.1,0.2-0.1,0.2c0-0.1,0-0.1,0-0.2c-0.2,0.1-0.3,0.2-0.5,0.3c-0.2,0.1-0.2,0.2-0.4,0.3
		C115.7,111.1,115.7,111.2,115.7,111.3C115.7,111.3,115.7,111.3,115.7,111.3L115.7,111.3z M119,112.8c-0.1,0.1-0.1,0.1-0.2-0.1
		C118.9,112.8,118.9,112.8,119,112.8z M117.2,110.4c0,0.1,0,0.1,0,0.2C117.1,110.6,117.1,110.5,117.2,110.4z"/>
	<path class="st1" d="M124.5,112.5c-0.1-0.2-0.2-0.2-0.3-0.4l-0.1,0c-0.2,0-0.1,0-0.3,0c0,0,0,0.1,0,0.1c-0.1,0.2-0.2,0.4-0.4,0.5
		c-0.1,0.1-0.3,0.3-0.4,0.4c-0.4,0.4-0.8,0.7-1.3,1c-0.1,0.1-0.2,0.2-0.3,0.2c0,0-0.1,0.1-0.1,0.1c0,0,0.1,0.1,0.1,0.1
		c0.1,0.2,0.1,0.3,0,0.5c0.2,0.1,0.3,0.2,0.3,0.4c0,0.1,0,0.1,0,0.1c0.5-0.1,1.1-0.2,1.6-0.2c0,0-0.1,0-0.1,0c0.2,0,0.3-0.3,0.5-0.2
		c-0.1,0.1-0.1,0.1-0.1,0.2c0.2,0,0.4,0,0.6-0.1c0.2,0,0.3,0,0.5,0c0.1,0,0.3,0,0.4,0.1c0-0.1,0.1-0.1,0.2-0.1c0,0,0.1-0.1,0.1-0.1
		l0,0c0,0,0,0,0,0c0,0,0,0,0.1,0C125.3,114.1,125,113.2,124.5,112.5L124.5,112.5z M123.9,114.9c-0.1-0.2-0.1-0.2,0-0.2
		C123.9,115,124,114.9,123.9,114.9z M124.2,114.4C124.2,114.4,124.3,114.5,124.2,114.4c0,0.2,0.1,0.2,0.3,0.2
		C124,114.9,124.1,114.9,124.2,114.4z M124.8,114.8c0.2-0.1,0.2-0.1,0.3,0.1C125,114.8,124.9,114.8,124.8,114.8z"/>
	<path class="st1" d="M123,120.1c-0.2-0.1-0.4-0.2-0.5-0.4c-0.1-0.1-0.3-0.3-0.4-0.4c-0.4-0.4-0.7-0.8-1-1.3
		c-0.1-0.1-0.2-0.2-0.2-0.3c0,0-0.1-0.1-0.1-0.1c0,0-0.1,0.1-0.1,0.1c-0.1,0-0.2,0.1-0.2,0.1c-0.1,0-0.2,0-0.3,0
		c-0.1,0.2-0.2,0.3-0.4,0.3c0,0-0.1,0-0.1,0c0,0,0,0.1,0,0.1c0,0.1,0.1,0.3,0.1,0.4c0.1,0.5,0.1,1.1,0.2,1.6c0,0.2,0,0.4,0,0.6
		c0,0.2,0,0.4-0.1,0.6c0,0,0,0.1,0,0.1l0.1,0.1l0.1,0.1l0.1,0.1l0,0c0.9-0.1,1.7-0.4,2.5-0.9c0.2-0.1,0.2-0.2,0.4-0.3
		C123,120.4,123.1,120.3,123,120.1C123.1,120.1,123,120.1,123,120.1L123,120.1z"/>
	<path class="st1" d="M125.4,116.6C125.4,116.6,125.4,116.5,125.4,116.6L125.4,116.6c-0.1-0.2-0.2-0.3-0.2-0.4c0,0-0.1,0-0.1,0
		c-0.2,0.1-0.4,0.1-0.6,0.1c-0.2,0-0.4,0-0.6,0c-0.6,0-1.1-0.1-1.6-0.2c-0.1,0-0.3,0-0.4-0.1c0,0-0.1,0-0.1,0c0,0,0,0.1,0,0.1
		c-0.1,0.2-0.2,0.3-0.3,0.4c0.1,0.2,0,0.3,0,0.5c0,0.1-0.1,0.1-0.1,0.1c0.7,0.5,1.3,1,2,1.6c0.1,0.1,0.3,0.2,0.4,0.4
		c0.1,0.1,0.2,0.2,0.2,0.4c0.1-0.1,0.3-0.1,0.4,0c0.4-0.5,0.7-1,0.9-1.6c0,0,0,0-0.1-0.1l0,0l0,0l0,0c0,0.1,0,0.2-0.1,0.2
		c-0.1,0-0.2,0-0.2-0.2c0.2,0,0.2,0,0.2,0l0,0l0,0c0,0,0.1,0,0.1,0c0.1-0.2,0.2-0.5,0.2-0.7C125.4,116.9,125.4,116.8,125.4,116.6
		C125.5,116.6,125.4,116.6,125.4,116.6C125.4,116.6,125.5,116.6,125.4,116.6L125.4,116.6z M123.6,117.4c-0.1-0.1-0.2-0.2-0.2-0.2
		C123.5,117.1,123.6,117.2,123.6,117.4z M123.6,117c-0.1,0-0.1-0.1-0.2-0.1C123.5,116.8,123.6,116.8,123.6,117
		C123.7,116.9,123.6,117,123.6,117L123.6,117z"/>
	<path class="st1" d="M120.8,115.7c0-0.8-0.6-1.4-1.4-1.4c-0.5,0-0.9,0.2-1.2,0.6c0.2,0.3,0.2,0.3-0.1,0.2c-0.1,0.2-0.2,0.4-0.2,0.6
		c0,0,0.1,0,0.1,0c0,0.2,0,0.1-0.1,0.3c0.2,0.2,0.2,0.1,0.2,0.4c-0.1-0.1-0.1-0.1-0.2-0.2c0.2,0.6,0.7,1,1.4,1
		C120.2,117.2,120.8,116.5,120.8,115.7z M119,115.2c0.5,0,0.4-0.1,0.5,0C119.2,115.3,119,115.4,119,115.2z"/>
	<path class="st1" d="M113.6,115.3c0.1-0.1,0.3-0.1,0.5-0.1c0.2,0,0.3,0,0.5,0c0.8,0,1.7,0.1,2.5,0.3c0-0.1,0-0.1,0-0.1
		c0,0,0,0,0-0.1c0.1-0.2,0.2-0.3,0.3-0.4c-0.1-0.2,0-0.3,0-0.5c0,0,0.1-0.1,0.1-0.1c0,0-0.1,0-0.1-0.1c-0.1-0.1-0.2-0.2-0.3-0.2
		c-0.4-0.3-0.9-0.7-1.3-1c-0.2-0.1-0.3-0.3-0.4-0.4c-0.2-0.2-0.3-0.3-0.4-0.5c0,0,0-0.1,0-0.1c-0.2,0-0.1,0-0.3,0l-0.1,0
		c-0.5,0.7-0.9,1.5-1.1,2.3c-0.1,0.3-0.1,0.3-0.1,0.6C113.5,115,113.6,115.1,113.6,115.3L113.6,115.3z M116.7,114.6
		c0.1,0.1,0.2,0.2,0.3,0.3C116.8,115,116.7,114.9,116.7,114.6z"/>
	<path class="st1" d="M117.5,117c0-0.1-0.1-0.1-0.1-0.2l0,0c0-0.1-0.1-0.1,0-0.1c0-0.1,0-0.1,0-0.2c-0.2-0.1-0.3-0.2-0.3-0.4
		c0,0,0-0.1,0-0.1c0,0-0.1,0-0.1,0c-0.1,0-0.3,0.1-0.4,0.1c-0.5,0.1-0.9,0.1-1.4,0.2c0,0.1,0,0.1-0.1,0.1c0-0.1,0-0.1,0-0.1
		c0,0-0.1,0-0.1,0c-0.2,0-0.4,0-0.6,0c-0.2,0-0.4,0-0.6-0.1c0,0-0.1,0-0.1,0c-0.1,0.2-0.1,0.2-0.3,0.3l0,0c0.1,0.9,0.4,1.8,0.9,2.5
		c0.1,0.2,0.2,0.2,0.3,0.4c0.1,0,0,0,0.2,0l0.2,0l0.1,0c0-0.2,0.2-0.3,0.2-0.4c0.1-0.1,0.2-0.2,0.4-0.4c0.6-0.6,1.3-1.1,2-1.6
		C117.6,117.1,117.6,117.1,117.5,117L117.5,117z M115.6,116.6c0-0.1,0-0.1,0.2-0.1C115.8,116.7,115.8,116.7,115.6,116.6z
		 M116.9,116.1c0.2,0.1,0.2,0.1,0.2,0.1C116.8,116.2,116.8,116.2,116.9,116.1z M116.8,116.9c0.1-0.2,0.3-0.2,0.4-0.1
		C117.2,117,117.1,117,116.8,116.9z"/>
	<path class="st1" d="M119.1,118c-0.1,0-0.1,0-0.1,0c-0.2-0.1-0.3-0.2-0.4-0.3c-0.1,0-0.2,0-0.3,0c-0.1,0-0.2,0-0.2-0.1
		c0,0-0.1-0.1-0.1-0.1c0,0-0.1,0.1-0.1,0.1c-0.1,0.1-0.2,0.2-0.2,0.3c-0.3,0.4-0.7,0.9-1,1.3c-0.1,0.2-0.3,0.3-0.4,0.4
		c-0.2,0.2-0.3,0.3-0.5,0.4c0,0-0.1,0-0.1,0c0.1,0.2,0.1,0.2,0,0.4c0.5,0.4,1.1,0.7,1.8,0.9c0.2,0.1,0.3,0.1,0.6,0.2l0.3,0.1
		l0.3,0.1c0.1-0.1,0.2-0.2,0.3-0.3c-0.1-0.1-0.1-0.3-0.1-0.5c0-0.2,0-0.3,0-0.5C118.9,119.7,119,118.8,119.1,118L119.1,118z
		 M117.8,118.4c-0.1-0.2,0-0.2,0.2-0.2C118,118.3,118,118.3,117.8,118.4z"/>
	<path class="st2" d="M125.6,115.1c-0.1,0-0.2-0.1-0.3-0.1c0,0-0.1,0.1-0.1,0.1c0,0,0,0,0,0c0.1,0.2-0.1,0.3-0.2,0.3
		c0-0.1,0-0.1,0-0.2c-0.1-0.1-0.3-0.1-0.4-0.1c-0.2,0-0.3,0-0.5,0c-0.2,0-0.4,0-0.6,0.1c-0.1,0.1-0.1,0.1-0.3,0
		c-0.5,0.1-1.1,0.1-1.6,0.2c0-0.1,0-0.1,0-0.1c-0.1-0.2-0.2-0.3-0.3-0.4c0.1-0.2,0.1-0.3,0-0.5c0,0-0.1-0.1-0.1-0.1
		c0,0,0.1,0,0.1-0.1c0.1-0.1,0.2-0.2,0.3-0.2c0.4-0.3,0.9-0.7,1.3-1c0.2-0.1,0.3-0.3,0.4-0.4c0.2-0.2,0.3-0.3,0.4-0.5
		c0,0,0-0.1,0-0.1c0.2,0,0.1,0,0.3,0l0.1,0c0.1,0.2,0.2,0.2,0.3,0.4c0.5,0.8,0.8,1.6,0.9,2.5c0,0,0,0-0.1,0c0.1-0.1,0.2-0.1,0.2-0.2
		c0-0.2-0.1-0.4-0.1-0.6c0.1,0,0.2,0,0.3,0.1c0.1,0.4,0.2,0.5,0.3,0.6c-0.4-3.4-3.2-6-6.7-6c-1.1,0-2.2,0.3-3.1,0.8
		c0,0.1,0,0.1-0.1,0.3c-0.1,0-0.1-0.1-0.1-0.2c-2,1.2-3.4,3.3-3.4,5.8c0,3.7,3,6.8,6.8,6.8c0.9,0,1.8-0.2,2.7-0.6
		c-0.1,0-0.1,0-0.2-0.1c0.2-0.1,0.3-0.1,0.3,0c1.1-0.5,2-1.3,2.7-2.2c-0.1,0.1-0.1,0.1-0.2,0.1c0-0.2,0-0.2,0.2-0.2
		c0.8-1.1,1.2-2.4,1.2-3.8c0,0,0,0,0,0c-0.1,0-0.3,0-0.5-0.1C125.6,115.4,125.6,115.3,125.6,115.1L125.6,115.1z M125.1,115.6
		c0.6,0,0.4,0.3,0.5,0.3C125.3,115.9,125,116,125.1,115.6z M119.7,113.3c0-0.1,0.1-0.3,0.1-0.4c0.1-0.5,0.1-1.1,0.2-1.6
		c0-0.2,0-0.4,0-0.6c0-0.2,0-0.4-0.1-0.6c0,0,0-0.1,0-0.1c0.1-0.1,0.2-0.1,0.3-0.3l0,0c0.3,0,0.3,0.1,0.6,0.1
		c0.8,0.2,1.7,0.6,2.3,1.1c-0.1,0.1,0,0.3,0,0.4c-0.2,0-0.3,0.2-0.4,0.2c-0.1,0.1-0.2,0.2-0.4,0.4c-0.6,0.6-1.1,1.3-1.6,2
		c0,0-0.1-0.1-0.1-0.1c-0.2-0.1-0.3-0.1-0.5,0c-0.1-0.2-0.2-0.3-0.4-0.3c0,0-0.1,0-0.1,0C119.7,113.4,119.7,113.4,119.7,113.3
		L119.7,113.3z M115.7,111.2C115.7,111.2,115.7,111.2,115.7,111.2c0,0,0.1-0.1,0-0.2c0.2-0.1,0.2-0.2,0.4-0.3
		c0.2-0.1,0.3-0.2,0.5-0.3c0-0.1,0-0.1,0.1-0.1c0,0,0,0.1,0,0.1c0.6-0.3,1.3-0.5,1.9-0.6c0.1,0.1,0.2,0.2,0.3,0.3
		c-0.1,0.1-0.1,0.3-0.1,0.5c0,0.2,0,0.3,0,0.5c0,0.8,0.1,1.5,0.3,2.3c0,0,0,0,0,0c0,0.1,0,0.1,0,0.2c-0.1,0-0.1,0-0.1,0
		c-0.2,0.1-0.3,0.2-0.4,0.3c-0.2-0.1-0.3-0.1-0.5,0c-0.1,0-0.1,0.1-0.1,0.1c-0.5-0.7-1-1.3-1.6-2c-0.1-0.1-0.2-0.3-0.4-0.4
		c-0.1-0.1-0.2-0.2-0.4-0.2c0,0,0,0,0,0c0,0-0.1,0-0.1,0.1C115.5,111.2,115.4,111.2,115.7,111.2L115.7,111.2z M119.1,114
		c-0.1,0-0.2-0.1-0.2-0.3C119,113.9,119,113.9,119.1,114z M117.8,116.1c0.1,0.2,0.1,0.1,0,0.2C117.8,116.2,117.8,116.2,117.8,116.1
		L117.8,116.1L117.8,116.1z M113.9,112.6c0,0.2,0.1,0.1-0.1,0.2C113.8,112.7,113.7,112.8,113.9,112.6z M113.5,112.8
		c0.2,0.1,0.2,0.1,0.2,0.1C113.5,112.9,113.5,112.9,113.5,112.8z M113.5,114.4c0.2-0.8,0.6-1.7,1.1-2.3l0.1,0c0.2,0,0.1,0,0.3,0
		c0,0,0,0.1,0,0.1c0.1,0.2,0.2,0.4,0.4,0.5c0.1,0.1,0.3,0.3,0.4,0.4c0.4,0.4,0.8,0.7,1.3,1c0.1,0.1,0.2,0.2,0.3,0.2
		c0,0,0.1,0.1,0.1,0.1c0,0-0.1,0.1-0.1,0.1c-0.1,0.2-0.1,0.3,0,0.5c-0.2,0.1-0.3,0.2-0.3,0.4c0,0,0,0.1,0,0.1c0,0,0.1,0,0.1,0l0,0
		l0,0l0,0l0,0c0.1-0.2,0-0.2,0.2,0.1c-0.1,0.1,0,0.1-0.2-0.1l0,0l0,0c0,0.2,0,0.2-0.1,0.2c0-0.1,0-0.1,0-0.1
		c-0.8-0.2-1.6-0.2-2.5-0.3c-0.2,0-0.3,0-0.5,0c-0.2,0-0.3,0-0.5,0.1c-0.1-0.1-0.1-0.3-0.3-0.3C113.4,114.7,113.4,114.6,113.5,114.4
		L113.5,114.4z M116.9,115.9C116.9,115.9,116.8,116,116.9,115.9c-0.3-0.1-0.3-0.1-0.3-0.1C116.8,115.8,116.7,115.8,116.9,115.9z
		 M116.3,115.9c-0.1,0.1-0.2,0.1-0.4,0C116.1,115.9,116.2,115.9,116.3,115.9z M115.2,119.1c-0.1,0.1-0.2,0.2-0.2,0.4l-0.1,0l-0.2,0
		c-0.2,0-0.1,0-0.2,0c-0.1-0.2-0.2-0.2-0.3-0.4c-0.5-0.8-0.8-1.6-0.9-2.5l0,0c0.1-0.1,0.2-0.1,0.3-0.3c0,0,0.1,0,0.1,0
		c0.2,0.1,0.4,0.1,0.6,0.1c0.2,0,0.4,0,0.6,0c0,0,0.1,0,0.1,0c0,0,0,0,0.1,0c0,0,0,0,0,0c0.5,0,1-0.1,1.4-0.2c0.1,0,0.3,0,0.4-0.1
		c0,0,0.1,0,0.1,0c0,0,0,0.1,0,0.1c0.1,0.2,0.2,0.3,0.3,0.4c0,0.1,0,0.1,0,0.2c0,0,0.1,0,0.2-0.1c0,0.2,0.1,0.1-0.2,0.2
		c0,0.1,0,0.1,0.1,0.2c0,0.1,0.1,0.1,0.1,0.1c-0.7,0.5-1.3,1-2,1.6C115.4,118.8,115.3,118.9,115.2,119.1L115.2,119.1z M117.4,121.8
		c-0.1-0.2-0.1-0.2,0-0.2C117.5,121.8,117.5,121.7,117.4,121.8z M118.9,121.5c-0.1,0.1-0.3,0.1-0.3,0.3l-0.3-0.1l-0.3-0.1
		c-0.3-0.1-0.3-0.1-0.6-0.2c-0.6-0.2-1.2-0.5-1.8-0.9c0-0.2,0-0.2,0-0.4c0,0,0.1,0,0.1,0c0.2-0.1,0.4-0.2,0.5-0.4
		c0.1-0.1,0.3-0.3,0.4-0.4c0.4-0.4,0.7-0.8,1-1.3c0.1-0.1,0.2-0.2,0.2-0.3c0,0,0.1-0.1,0.1-0.1c0,0,0.1,0.1,0.1,0.1
		c0.1,0,0.2,0.1,0.2,0.1c0.1,0,0.2,0,0.3,0c0.1,0.2,0.2,0.3,0.4,0.3c0.1,0,0.1,0,0.1,0c-0.2,0.8-0.2,1.7-0.3,2.5c0,0.2,0,0.3,0,0.5
		C118.8,121.2,118.9,121.3,118.9,121.5L118.9,121.5z M118,116.2c-0.1-0.2-0.2-0.2-0.2-0.5c0.1,0,0,0,0.1,0c0-0.2,0.1-0.4,0.2-0.6
		c0,0-0.1-0.1-0.1-0.1c0.1-0.1,0.1-0.1,0.2-0.2c0,0,0,0.1,0.1,0.1c0.3-0.4,0.7-0.6,1.2-0.6c0.8,0,1.4,0.6,1.4,1.4s-0.6,1.4-1.4,1.4
		C118.8,117.2,118.2,116.7,118,116.2L118,116.2z M123.1,120.5c-0.2,0.1-0.2,0.2-0.4,0.3c-0.8,0.5-1.6,0.8-2.5,0.9l0,0l-0.1-0.1
		l-0.1-0.1l-0.1-0.1c0,0,0-0.1,0-0.1c0.1-0.2,0.1-0.4,0.1-0.6c0-0.2,0-0.4,0-0.6c0-0.6-0.1-1.1-0.2-1.6c0-0.1,0-0.3-0.1-0.4
		c0,0,0-0.1,0-0.1c0,0,0.1,0,0.1,0c0.2-0.1,0.3-0.2,0.4-0.3c0.1,0,0.1,0,0.3,0c0.1,0,0.2,0,0.2-0.1c0,0,0.1-0.1,0.1-0.1
		c0,0,0.1,0.1,0.1,0.1c0.1,0.1,0.2,0.2,0.2,0.3c0.3,0.4,0.7,0.9,1,1.3c0.1,0.2,0.3,0.3,0.4,0.4c0.2,0.2,0.3,0.3,0.5,0.4
		c0,0,0.1,0,0.1,0C123.1,120.3,123.1,120.4,123.1,120.5L123.1,120.5z M122.1,118.4c0.1-0.1,0.2-0.1,0.3,0.1
		C122.1,118.5,122.2,118.5,122.1,118.4z M124.3,119.9c0.1-0.1,0.2-0.1,0.3-0.2C124.5,119.9,124.5,120,124.3,119.9z M125.1,118.6
		c0.1,0,0.2-0.1,0.3-0.1C125.4,118.7,125.3,118.7,125.1,118.6z M125.8,116.7c-0.1,0.1-0.2,0.1-0.4-0.1c0,0.2,0,0.2-0.1,0.5
		c-0.1,0.2-0.1,0.5-0.2,0.7c0.1-0.1,0.2,0,0.3,0.2c-0.2,0.2-0.3,0-0.4-0.1c-0.2,0.6-0.5,1.1-0.9,1.6c-0.1-0.1-0.3,0-0.4,0
		c0-0.2-0.2-0.3-0.2-0.4c-0.1-0.1-0.2-0.2-0.4-0.4c-0.6-0.6-1.3-1.1-2-1.6c0-0.1,0.1-0.1,0.1-0.1c0.1-0.2,0.1-0.3,0-0.5
		c0.2-0.1,0.3-0.2,0.3-0.4c0,0,0-0.1,0-0.1c0,0,0.1,0,0.1,0c0.1,0,0.3,0.1,0.4,0.1c0.5,0.1,1.1,0.1,1.6,0.2c0.2,0,0.4,0,0.6,0
		c0.2,0,0.4,0,0.6-0.1c0,0,0.1,0,0.1,0c0.1,0.1,0.1,0.2,0.3,0.3l0,0c0,0,0,0.1,0,0.1c0.1-0.1,0.2-0.2,0.2-0.3
		C125.7,116.4,125.8,116.5,125.8,116.7L125.8,116.7z M125.5,116.2c0.2-0.3,0.1-0.2,0.5-0.3C125.8,116.1,125.7,116.2,125.5,116.2z"/>
	<path class="st2" d="M127.7,123.2c-0.2-0.2-0.4-0.4-0.7-0.6c-0.4-0.3-0.8-0.6-1.3-0.9c0.2-0.2,0.2-0.5,0.1-0.7c0,0,0-0.1-0.1-0.1
		c1-1.2,1.6-2.8,1.8-4.3c0,0,0.1,0,0.1,0c0.3-0.1,0.5-0.3,0.5-0.6c0.1,0,0.2,0.1,0.4,0.1c0,0,0,0,0-0.1c0.2,0,0.2,0,0.4,0.1
		c0.1,0,0.2,0,0.4,0.1c0.5,0.1,0.9,0.1,1.4,0.1c0.5,0,0.6-0.3,0.6-0.6s-0.1-0.6-0.6-0.6c-0.3,0-0.6,0-0.9,0.1c-0.2,0-0.3,0-0.5,0.1
		c0,0-0.1,0.1-0.1,0.1c0,0,0-0.1,0-0.1c-0.3,0.1-0.6,0.1-0.9,0.2c0-0.3-0.2-0.5-0.5-0.6c0,0-0.1,0-0.1,0c-0.2-1.6-0.8-3.1-1.8-4.3
		c0,0,0-0.1,0.1-0.1c0.1-0.2,0.1-0.5-0.1-0.7c0.3-0.2,0.6-0.4,0.9-0.6c0.4-0.3,0.7-0.6,1.1-0.9c0.4-0.4,0.2-0.6,0-0.8
		s-0.4-0.4-0.8,0c-0.2,0.2-0.4,0.4-0.6,0.7c-0.3,0.4-0.6,0.8-0.9,1.3c-0.2-0.2-0.5-0.2-0.7-0.1c0,0-0.1,0-0.1,0.1
		c-1.2-1-2.8-1.6-4.3-1.8c0,0,0-0.1,0-0.1c0-0.1-0.1-0.1-0.1-0.2c0,0,0,0,0,0c-0.1-0.2-0.3-0.2-0.5-0.2c0.1-0.3,0.2-0.7,0.2-1.1
		c0-0.1,0-0.2,0-0.3c-0.2,0.1-0.3,0.2-0.5,0.1c0.2-0.3,0.2-0.3,0.1-0.2c0-0.2,0-0.4,0-0.6c0.3,0.1,0-0.2,0.1-0.2
		c0.3,0,0.4,0.2,0.3,0.6c0,0,0,0,0.1,0.1c0-0.2,0-0.5,0.1-0.7c0-0.3-0.1-0.5-0.2-0.5c0,0,0,0,0,0c-0.1,0.1,0,0.1-0.3,0
		c0,0.1-0.1,0.2-0.1,0.3c-0.1,0-0.2-0.1-0.2-0.1c0.1-0.1,0.2-0.1,0.2-0.2c-0.3,0-0.5,0.1-0.5,0.6c0,0.3,0,0.6,0.1,0.9
		c0.1,0.5,0.1,1.1,0.3,1.6c-0.3,0-0.5,0.2-0.6,0.5c0,0,0,0.1,0,0.1c-1.6,0.2-3.1,0.8-4.3,1.8c0,0-0.1,0-0.1-0.1
		c-0.2-0.1-0.5-0.1-0.7,0.1c-0.3-0.5-0.6-0.9-0.9-1.3c-0.2-0.2-0.4-0.5-0.6-0.7c-0.4-0.4-0.6-0.2-0.8,0s-0.4,0.4,0,0.8
		c0.3,0.3,0.7,0.6,1.1,0.9c0.3,0.2,0.6,0.4,0.9,0.6c-0.2,0.2-0.2,0.5-0.1,0.7c0,0,0,0.1,0.1,0.1c-1,1.2-1.6,2.8-1.8,4.3
		c0,0-0.1,0-0.1,0c-0.3,0.1-0.4,0.3-0.5,0.6c-0.5-0.1-1-0.2-1.6-0.3c-0.3,0-0.6-0.1-0.9-0.1c-0.5,0-0.6,0.3-0.6,0.6s0.1,0.6,0.6,0.6
		c0.5,0,0.9-0.1,1.4-0.1c0.3-0.1,0.7-0.1,1.1-0.2c0,0.3,0.2,0.5,0.5,0.6c0,0,0.1,0,0.1,0c0.2,1.6,0.8,3.1,1.8,4.3c0,0,0,0.1-0.1,0.1
		c-0.1,0.2-0.1,0.5,0.1,0.7c-0.5,0.3-0.9,0.6-1.3,0.9c-0.2,0.2-0.5,0.4-0.7,0.6c-0.4,0.4-0.2,0.6,0,0.8s0.4,0.4,0.8,0
		c0.3-0.3,0.6-0.7,0.9-1.1c0.2-0.3,0.4-0.6,0.6-0.9c0.2,0.2,0.5,0.2,0.7,0.1c0,0,0.1,0,0.1-0.1c1.2,1,2.8,1.6,4.3,1.8
		c0,0,0,0.1,0,0.1c0.1,0.3,0.3,0.4,0.6,0.5c-0.1,0.5-0.2,1-0.3,1.6c0,0.3-0.1,0.6-0.1,0.9c0,0.5,0.3,0.6,0.6,0.6s0.6-0.1,0.6-0.6
		c0-0.5-0.1-0.9-0.1-1.4c-0.1-0.3-0.1-0.7-0.2-1.1c0.3,0,0.5-0.2,0.6-0.5c0,0,0-0.1,0-0.1c1.6-0.2,3.1-0.8,4.3-1.8
		c0,0,0.1,0,0.1,0.1c0.2,0.1,0.5,0.1,0.7-0.1c0.2,0.3,0.4,0.6,0.6,0.9c0.3,0.3,0.5,0.7,0.8,1l0,0c0,0,0.1,0.1,0.1,0.1
		c0.4,0.3,0.6,0.2,0.8,0C128,123.8,128.1,123.6,127.7,123.2L127.7,123.2z M129.5,115.4C129.5,115.4,129.5,115.5,129.5,115.4
		c0,0.1-0.1,0.1-0.1,0.1c0-0.1,0-0.1,0-0.2C129.4,115.4,129.4,115.4,129.5,115.4z M126.7,119.1c-0.1-0.1-0.1-0.2-0.2-0.3
		c0.2-0.1,0.3-0.1,0.4,0.1C126.9,118.9,126.8,119,126.7,119.1z M120,107.4c0.1,0.2,0.1,0.1,0.1,0.2C120,107.4,120,107.5,120,107.4z
		 M119.5,105.8c0.3,0.1,0.2,0.1,0.2,0.2C119.4,105.9,119.4,106,119.5,105.8z M118.9,107.4c0.1,0,0.1,0,0.2,0.1
		C119,107.5,118.9,107.5,118.9,107.4C118.9,107.5,118.9,107.4,118.9,107.4z M111.5,114.1c-0.1-0.2-0.1-0.1,0-0.2
		C111.6,114,111.6,114,111.5,114.1z M119.4,123.4c-4.2,0-7.7-3.4-7.7-7.7s3.4-7.7,7.7-7.7s7.7,3.4,7.7,7.7c0,0.2,0,0.3,0,0.4
		c0-0.1,0.1-0.1,0.1-0.2c0.4,0,0.1,0.4-0.1,0.4C126.7,120.3,123.4,123.4,119.4,123.4z"/>
	<path class="st2" d="M138.4,97.3c-0.6-0.9-1.8-3.3-1.8-3.3s-1.5,1.8-1.5,4.2c0.3-0.3,0.6-0.6,0.9-0.6c0.3,0.8,0.8,1.5,1.3,2
		c0.1-0.1,0.1-0.1,0.1-0.1c-0.1,0.1-0.1,0.1-0.1,0.1c2.2,2.1,6,2.2,7.1,4.3c1.2-2.6,6.9-2.1,8.1-6.4c0.2,0,0.5,0.2,0.9,0.6
		c0-2.4-1.2-4.2-1.2-4.2s-1.5,2.7-2.1,3.3c0.9-0.3,1.2,0,1.2,0c-0.3,0.5-0.7,1-1.1,1.4c0.1,0.1,0.1,0.2,0.2,0.2
		c-0.9,0.3-0.6,0.3-0.5,0c-0.2,0.2-0.4,0.4-0.7,0.5c0.1,0,0.1,0,0.2,0.1c-0.1,0-0.2-0.1-0.2-0.1c-0.6,0.4-1.2,0.6-1.7,0.6
		c0,0,0,0.1-0.1,0.1c0-0.1-0.1-0.1-0.1-0.1c-0.2,0-0.4-0.1-0.5-0.1c0,0,0,0-0.1,0c0,0,0,0,0,0c-0.1-0.1-0.2-0.1-0.3-0.2
		c-0.4-0.3-0.6-0.7-0.7-1.1c0,0,0,0,0,0c-0.1,0-0.1,0-0.1,0c0,0,0-0.1,0-0.1c0.1,0,0.1,0,0.1,0c-0.1-0.3-0.1-0.6-0.2-0.9
		c-0.1-0.9-0.2-3.3-0.3-5.6c-0.1,0,0,0,0-0.1c0,0,0,0,0,0c0-0.3,0-0.5,0-0.8c-0.2-0.1-0.3-0.3,0-0.3c0-2.1,0-3.8,0-3.8l3.9,0.2v-1.8
		l-3.9,0.1V84c0,0,0.4-0.2,0.7-0.6c-0.3,0.1-0.6,0.2-0.9,0.3c-0.2-0.3-0.1-0.5,0.1-0.5c0.5,0,0.9-0.5,1.1-0.4
		c0.1-0.2,0.1-0.4,0.1-0.7c0-1.2-1.2-1.8-2.1-1.8s-2.1,0.6-2.1,1.8s1.2,1.8,1.2,1.8v1.5l-3.9-0.1v1.8l3.9-0.2c0,0,0,0.5,0,1.3
		c0,0,0.1,0.1,0.1,0.1c0,0-0.1,0-0.1,0c0,0.8,0,2,0,3.1c0.1,0.1,0.2,0.2,0.3,0.3c0.3,0.1,0.4-0.2,0.7-0.3c0.1,0.2,0,0.3,0.2,0.4
		c0.1,0,0.1,0.1,0.1,0.2c-0.1,0.4,0.3,0.3,0.4,0.7c0,0.2,0.1,0.3,0.2,0.5c-0.1,0.1-0.2,0.1-0.4,0.1c-0.1,0-0.2,0-0.4,0.1
		c-0.1,0.1-0.2,0.1-0.3,0.1c-0.2-0.2,0-0.3,0-0.5c0-0.2,0.2-0.3,0.3-0.3c0-0.1,0-0.2-0.1-0.3c-0.3,0-0.6,0-0.8-0.2
		c-0.1,0.1-0.2,0.1-0.3,0.2c0,0.1,0,0.2,0,0.2c0,0,0,0,0,0c0.3,0.3,0.3,0.3,0.3,0.3l0,0l0,0c0,0.2,0.2,0.6-0.4,0.4l0,0
		c0,0.6,0,1.2-0.1,1.7c0.1,0.1,0.1,0.2,0,0.4c0.1,0.1,0.3,0.2,0.4,0.4c-0.1,0.1-0.1,0.1-0.2,0.2c0,0.2,0.2,0.2,0.1,0.4
		c-0.1,0.1,0,0.3-0.3,0.4c0-0.2,0-0.4-0.1-0.6c0-0.1-0.1-0.1-0.1-0.1c0,0.6-0.1,1.2-0.1,1.5c-0.1,0.9-0.2,1.6-0.9,2.1
		c-0.4,0.3-0.9,0.3-1.5,0.3c-0.1,0.1-0.2,0.2-0.4,0.1c0-0.1,0-0.1,0-0.2c-1.2-0.3-2.5-1.3-3.3-2.6C137.2,97.3,137.8,97,138.4,97.3
		L138.4,97.3z M135.4,96.4c0.1,0,0.2,0,0.2-0.1c0.1,0.2,0.3,0.3,0.5,0.5C135.9,97.1,135.5,96.5,135.4,96.4L135.4,96.4z M152.6,95.7
		C152.6,95.7,152.6,95.8,152.6,95.7c-0.2,0.1-0.1,0.1-0.2,0C152.5,95.7,152.6,95.7,152.6,95.7L152.6,95.7z M151.7,96.3
		c0,0.2,0.1,0.1-0.2,0.2C151.5,96.3,151.4,96.3,151.7,96.3z M150,100.3c0.1,0.1,0.1,0,0.1,0.3C149.9,100.5,149.9,100.4,150,100.3z
		 M149.8,100.5c0.2,0.2,0.2,0.1,0,0.3C149.7,100.5,149.7,100.5,149.8,100.5z M148.9,100.5c0.1,0.1,0.1,0.2-0.1,0.3
		C148.9,100.6,148.9,100.6,148.9,100.5z M147.8,100.7c-0.2,0.3-0.2,0.3-0.3,0.3c0-0.1,0-0.2,0-0.3
		C147.6,100.7,147.7,100.7,147.8,100.7z M146.4,100.5c-0.1-0.1-0.2-0.2-0.3-0.3C146.3,100.2,146.4,100.3,146.4,100.5z M145.8,100.7
		c0,0.1,0.1,0.1-0.4,0C145.7,100.5,145.7,100.7,145.8,100.7z M145.2,80.8c0,0-0.1,0-0.1,0c0,0,0-0.1,0-0.2
		C145.1,80.7,145.2,80.6,145.2,80.8z M143.3,86.8c0-0.2,0.1-0.2,0.3-0.2c0.2,0,0.3,0.2,0.3,0.4C143.7,87,143.6,86.9,143.3,86.8
		L143.3,86.8z M143.8,85.7c0.1-0.1,0.2-0.3,0.3-0.4c0.1-0.1,0.2-0.1,0.3,0.1c-0.2,0.1-0.4,0.2-0.5,0.4
		C143.8,85.8,143.8,85.7,143.8,85.7z M143.6,91.5c0-0.3,0-0.4,0.4-0.3C143.8,91.3,143.7,91.4,143.6,91.5z M143.8,87.6
		c0,0,0-0.1-0.1-0.2c0.2,0,0.3,0,0.4,0.2C144,87.6,143.9,87.6,143.8,87.6z M144.4,90.9c0.1,0,0.2,0.1,0.4,0.1
		C144.5,91.2,144.4,91.2,144.4,90.9z M144.4,83.4c-0.7,0-1.2-0.5-1.2-1.2s0.5-1.2,1.2-1.2s1.2,0.5,1.2,1.2c0,0.1,0,0.1,0,0.2
		c0,0,0.1,0,0.1-0.1c0-0.1-0.1-0.2-0.1-0.3c0.1-0.1,0.3-0.3,0.5-0.4c0.2,0.4,0.3,0.7,0.2,1.1c-0.2,0.1-0.4,0-0.6-0.1
		c-0.1,0.1-0.1,0.1-0.2,0.1C145.3,83.1,144.9,83.4,144.4,83.4L144.4,83.4z M145,99.7c-0.1-0.1-0.2-0.1,0-0.3
		C145,99.5,145,99.6,145,99.7z M144.9,93.8c0.1,0.2-0.1,0.2-0.2,0.3C144.8,94,144.8,93.9,144.9,93.8z M144.8,94.7
		c-0.5,0-0.2,0-0.5-0.4c-0.3-0.4-0.4-0.2-0.2-0.4C144.8,94.3,144.6,94.1,144.8,94.7L144.8,94.7z M143.9,93c0-0.1,0-0.2,0.2-0.2
		C144.1,93,143.8,93,143.9,93z M141.7,100.8c0.2,0.3,0.2,0.2,0.1,0.4c-0.1,0-0.2-0.1-0.3-0.2C141.6,100.9,141.6,100.9,141.7,100.8
		L141.7,100.8z M137.2,97.2C137.2,97.2,137.1,97.2,137.2,97.2c-0.1-0.1-0.1-0.1-0.1-0.2c0,0,0.1,0,0.1,0
		C137.2,97.1,137.2,97.2,137.2,97.2L137.2,97.2z"/>
	<path class="st2" d="M152.5,144.1L152.5,144.1c-1.2-1.3-1.8-2.8-2.2-4.3c-0.1,0.1-0.2,0.3-0.3,0.6c-0.1-0.1-0.1-0.1-0.2-0.2
		c-0.1,0-0.3,0-0.4,0c-0.6,0.1-0.4,0.6-0.2-0.8c0-0.1-0.1-0.1-0.1-0.2c-0.1,0.1-0.2,0.2-0.4,0.3c0.1-0.3,0.2-0.5,0.3-0.7
		c0.1,0,0.1,0.1,0.2,0.1c0-0.1,0.1-0.3,0.1-0.4c-0.1,0-0.3,0.1-0.3-0.1c0.6-0.4,0.6-0.4,1-0.1c-0.1,0.1-0.1,0.1-0.2,0.1
		c0.1,0.1,0.1,0.1,0.2,0.2c-0.2,0.2-0.4,0.3-0.4,0.6c0.5,0.1,0.3,0.1,0.6,0.4c0-0.1,0-0.3,0.1-0.4c-0.1-0.4-0.2-0.9-0.3-1.4
		c-0.2-1.1-0.3-2.1-0.5-3.2c-0.1-0.8-0.3-1.8-0.8-2.5c-0.4-0.6-1.2-1.1-1.9-1.4v-0.1v-2.2c0-0.6-0.6-1.1-1.4-1.1H144
		c0,0.1,0,0.1-0.1,0.2c0-0.1,0-0.2-0.1-0.2h-0.6c-0.1,0-0.1,0-0.2,0c0,0.1,0,0.2,0.1,0.3h0.7c-0.2,0-0.4,0.1-0.6,0.2
		c0,0,0,0.1,0,0.1c0,0-0.1,0-0.1-0.1c-0.3,0.2-0.5,0.5-0.5,0.9v0.5c0,0,0.1,0,0.1,0c0,0,0,0.1,0,0.1c0,0-0.1,0-0.1,0v1.7
		c-0.2,0.1-0.4,0.2-0.6,0.3c0.1,0,0.2,0.1,0.3,0.1c-0.2,0.1-0.3,0.2-0.4,0.3c-0.1-0.1-0.1-0.1-0.2-0.1c-0.1,0.1-0.2,0.3-0.3,0.5
		c-0.3,0.5-0.5,1.1-0.6,1.8c-0.1,0.7-0.2,1.4-0.3,2.1c-0.3,2.9-0.7,5.7-2.4,7.9h-0.1c-0.3,0-0.6,0.3-0.6,0.7v1.3l-0.7,0.1v-1.4
		c0-0.4,0.3-0.7,0.6-0.7h0.1c1.7-2.2,2.1-5.1,2.4-7.9c0.1-0.7,0.2-1.4,0.3-2.1c0.1-0.6,0.3-1.2,0.6-1.8c0.4-0.6,1-1.1,1.6-1.4v-0.1
		v-2.2c0-0.4,0.3-0.7,0.6-0.8c0-0.1-0.1-0.1-0.1-0.2c0-0.1,0-0.1,0-0.2c-0.6,0.1-1.1,0.6-1.1,1.1v2.3c-0.7,0.3-1.4,0.7-1.9,1.4
		c-0.4,0.5-0.6,1.1-0.7,1.8c-0.2,0.7-0.2,1.4-0.4,2.1c-0.4,2.9-0.8,5.7-2.8,8H136c-0.4,0-0.7,0.3-0.7,0.7v2.1h0
		c0,0.2,0.1,0.3,0.3,0.4c0.1,0.1,0.3,0.1,0.6,0.2c0.4,0.1,1.1,0.2,1.9,0.3c0.6,0.1,1.2,0.1,1.8,0.1c0,0,0,0,0,0
		c0.8,0.1,1.7,0.1,2.5,0.1c-0.1,0.1-0.1,0.2-0.1,0.3c0.1,0,0.2,0.1,0.3,0.2c-0.4,0.1-0.3,0.1-0.4,0.1c0,0,0,0,0,0c0,0,0,0,0,0.1
		c0,0,0,0,0.1,0c0,0.1,0.1,0.1-0.1,0.2c0,0,0,0,0,0c0,0.1,0,0.1,0,0.2c0,1.1,0.9,2,2,2s2-0.9,2-2c0-0.2,0-0.3-0.1-0.5
		c0-0.2-0.1-0.3-0.2-0.5c1.5,0,2.9-0.1,4.4-0.2c0.6-0.1,1.1-0.1,1.4-0.2c0.1-0.1,0.1-0.1,0.1-0.2c0,0,0.1,0.1,0.1,0.1
		c0.1,0,0.1,0,0.2,0c0.2-0.1,0.4-0.1,0.6-0.2c0.2-0.1,0.3-0.2,0.3-0.4h0v-2.1c0-0.1,0-0.2-0.1-0.2c0,0,0,0,0-0.1
		C153,144.3,152.8,144.1,152.5,144.1L152.5,144.1z M142.1,130.6c0,0.1,0.1,0.1,0.1,0.2l-0.1,0C142.1,130.8,142.1,130.7,142.1,130.6
		C142.1,130.6,142.1,130.6,142.1,130.6L142.1,130.6z M140.8,131.8c-0.1,0.2-0.2,0.2-0.4,0.1C140.6,131.8,140.7,131.8,140.8,131.8z
		 M139.7,136.6c-0.4,0-0.2-0.3-0.1-0.3C139.7,136.3,139.7,136.5,139.7,136.6z M139.6,135L139.6,135c-0.1,0.1-0.1,0.2-0.2,0.2
		C139.2,135.2,139.3,134.9,139.6,135L139.6,135z M138.8,140.7c-0.2,0.1-0.4,0.2-0.5,0.1c-0.1-0.1-0.1-0.3-0.2-0.4
		C138.4,140.4,138.5,140.6,138.8,140.7z M149.7,140.4c-0.1,0.1-0.1,0.1-0.2,0C149.6,140.4,149.7,140.4,149.7,140.4z M149,134.5
		c-0.2,0.1,0,0.5-0.4,0.4C148.6,134.4,148.7,134.3,149,134.5z M148.2,139.5c0.2,0.1,0.2,0.2,0.4,0.4c0.2,0.2,0.3,0.4,0.4,0.6
		c0,0.1-0.1,0.2-0.1,0.3c0,0-0.2-0.1-0.2,0c0-0.1,0-0.2-0.1-0.2c-0.3-0.2-0.3-0.2-0.2-0.5c-0.1-0.1-0.2-0.2-0.3-0.3
		C148.1,139.6,148.1,139.6,148.2,139.5L148.2,139.5z M148.6,140.7c-0.1,0.2-0.3,0.1-0.5,0.2c0.1-0.2,0.1-0.3,0.3-0.2
		C148.4,140.7,148.6,140.8,148.6,140.7L148.6,140.7z M148,141.5c-0.2-0.3-0.2-0.3-0.1-0.3C148,141.2,148.2,141.3,148,141.5z
		 M147.6,139.6c-0.1,0-0.2-0.1-0.2-0.2C147.6,139.4,147.6,139.5,147.6,139.6z M147.7,141L147.7,141c0-0.1,0.1-0.2,0.2-0.1
		C147.9,141.1,147.7,140.9,147.7,141L147.7,141c0,0,0.1,0.1,0.2,0.6c-0.2,0-0.4,0-0.4,0c-0.8-0.5-0.8-0.5-0.2-0.5
		c-0.1-0.1-0.3-0.2-0.4-0.3C146.9,140.7,147.2,140.8,147.7,141L147.7,141z M147.9,141.8L147.9,141.8c-0.2-0.1-0.2-0.1-0.1-0.1
		C147.8,141.7,147.8,141.8,147.9,141.8z M147.4,141.9c-0.1-0.1-0.2-0.1-0.1-0.3C147.3,141.8,147.4,141.8,147.4,141.9z M146.9,137.9
		c-0.1,0.1-0.1,0.1-0.2,0C146.9,137.8,146.9,137.8,146.9,137.9z M147.1,141.5c-0.2,0.5-0.3,0.6-0.1,0.8c0.1,0.1,0,0.4-0.1,0.5
		c0-0.5-0.3-0.8-0.6-1.1C146.5,141.7,146.7,141.4,147.1,141.5L147.1,141.5z M146.6,142.3c0,0.1,0,0.2,0,0.3
		C146.4,142.5,146.4,142.5,146.6,142.3z M145.9,142.8C145.9,142.8,145.8,142.8,145.9,142.8c0.1-0.6-0.6-0.9-0.3-1.1
		c0.1,0,0.1,0.1,0.2,0.1c0,0.1,0,0.1,0.3,0.1c0,0.1-0.1,0.2-0.1,0.3C146.2,142.5,146.2,142.4,145.9,142.8z M145.9,143.2
		c-0.2,0.1-0.2-0.1-0.3-0.2C145.7,143,145.9,143,145.9,143.2z M146.4,143c-0.1-0.1-0.2-0.1-0.3-0.2
		C146.3,142.8,146.3,142.8,146.4,143z M146.2,141.1c-0.1-0.2-0.1-0.1-0.1-0.2C146.3,141.1,146.3,141.1,146.2,141.1z M144.3,127.9
		c-0.1,0.1-0.2,0.1-0.3,0.1C144,127.9,144,127.9,144.3,127.9z M143.7,128.1c-0.1,0-0.2,0-0.3,0.1C143.5,128,143.6,128,143.7,128.1z
		 M144.1,128.3C144.1,128.3,144.1,128.3,144.1,128.3c0.1,0,0.1,0,0.1,0c0,0,0.1,0,0.1,0c0.2,0,0.5,0.1,0.6,0.2
		c-0.1-0.1-0.2-0.2-0.3-0.3c0.1-0.1,0.2-0.2,0.3-0.2l0,0c0.3-0.6-0.1,0.1,0.6,0.6c0.9,0.2,0.8,1.6,0,1.7c0.5-0.5,0.5-1.3,0.1-1.7
		c-0.1,0.1-0.1,0.2-0.2,0.2c0.1,0.2,0.2,0.4,0.2,0.6c0,0.4-0.3,0.8-0.7,0.9c0.1,0,0.2,0.2,0.3,0.2c-0.2,0.1-0.3-0.1-0.4-0.2
		c-0.1,0-0.1,0-0.2,0.1c0,0,0.1,0.1,0.1,0.1c-0.1,0-0.2,0.1-0.2,0.1c-0.1-0.1-0.1-0.1-0.2-0.2c-0.6,0-1.1-0.5-1.1-1
		C143.1,128.8,143.5,128.4,144.1,128.3L144.1,128.3z M144,134.7c-0.3,0-0.3-0.2-0.4-0.4c0.2-0.2,0.5-0.3,0.8-0.2c0,0,0,0.1,0,0.1
		c-0.1,0.1-0.2,0.2-0.3,0.2C144.1,134.4,144,134.5,144,134.7L144,134.7z M144.2,145.4c-0.2-0.1-0.2-0.1-0.1-0.1
		C144.2,145.3,144.2,145.3,144.2,145.4z M143.3,142.5c0,0.2,0.1,0.1-0.1,0.2C143.1,142.6,143.1,142.6,143.3,142.5z M143,132.7
		c0.2-0.1,0.2-0.1,0.2,0.1C143,132.8,143.1,132.8,143,132.7z M143.2,131.7c0.1-0.2,0.2-0.2,0.3-0.2c0,0,0.1,0.1,0.1,0.2
		C143.5,131.7,143.4,131.7,143.2,131.7L143.2,131.7z M143.4,132.5c0,0,0.1,0,0.1,0c0,0,0.1,0.1,0.1,0.1c0,0-0.1,0-0.2,0.1
		C143.3,132.6,143.3,132.6,143.4,132.5z M143.4,134.8c0.1,0.1,0.2,0.2,0.1,0.4C143.4,135,143.3,134.9,143.4,134.8z M143.5,134.6
		C143.5,134.6,143.5,134.6,143.5,134.6c0.2,0.1,0.2,0,0.2,0.1C143.5,134.8,143.6,134.8,143.5,134.6L143.5,134.6z M143.6,146.1
		c0.1,0,0.1,0.1,0.1,0.1c0,0,0,0.1,0,0.1c0,0-0.1,0-0.1,0C143.6,146.2,143.6,146.1,143.6,146.1L143.6,146.1z M143.6,143.5
		c0-0.1-0.1-0.1-0.1-0.1l0.1,0C143.7,143.5,143.7,143.5,143.6,143.5z M143.7,142.9c0,0-0.1-0.1-0.1-0.1c0.1,0,0.1-0.1,0.2,0
		c0,0,0.1,0.1,0.1,0.1C143.8,142.9,143.7,142.9,143.7,142.9L143.7,142.9z M144,131.2c0,0.2,0,0.2,0,0.2
		C143.9,131.2,143.9,131.3,144,131.2z M144.4,142.2c0.1,0.2,0.1,0.2-0.1,0.2C144.3,142.3,144.3,142.3,144.4,142.2
		C144.3,142.2,144.4,142.2,144.4,142.2L144.4,142.2z M144.6,142.6c0,0.4-0.3,0.2-0.3,0.1C144.4,142.6,144.5,142.6,144.6,142.6z
		 M144.8,134.6c-0.1-0.1-0.1-0.1-0.2-0.2C144.8,134.3,144.9,134.4,144.8,134.6z M144.7,133.9c0,0,0.1,0,0.1-0.1c0,0.1,0,0.1,0.1,0.1
		C144.8,133.9,144.8,134,144.7,133.9C144.7,134,144.7,133.9,144.7,133.9L144.7,133.9z M144.7,134.6c0,0,0.1,0,0.2,0.1
		c-0.1,0.3,0,0.2-0.2,0.3C144.6,134.9,144.5,134.7,144.7,134.6L144.7,134.6z M144.8,134.9c0.1,0,0.2,0,0.4,0
		C145,135.1,144.9,135.1,144.8,134.9L144.8,134.9L144.8,134.9L144.8,134.9z M143.3,128.6c-0.1,0.3-0.2,0.3-0.4,0
		C143.1,128.6,143.2,128.6,143.3,128.6z M143,132.2c0.2,0.2,0.2,0.2,0.1,0.2C142.8,132.2,142.9,132.3,143,132.2z M142.9,131.8
		c-0.1-0.1-0.2-0.2-0.3-0.2C142.7,131.4,142.8,131.5,142.9,131.8z M142.8,132.3c-0.2,0.2-0.2,0.2-0.5-0.3
		C142.5,132,142.7,132.1,142.8,132.3z M142.8,134.8c-0.2,0.2-0.1,0.2-0.2,0.1C142.8,134.7,142.7,134.7,142.8,134.8z M142.5,144.3
		c0,0.1-0.1,0.3-0.3,0.4c-0.1,0.1-0.3,0.3-0.5,0.1C142.1,144.8,142.2,144.5,142.5,144.3L142.5,144.3z M141.7,143.5
		c0,0.1,0,0.2,0.1,0.3c-0.2,0-0.3,0-0.5,0C141.4,143.5,141.4,143.5,141.7,143.5L141.7,143.5z M141.1,144.7c0.1,0,0.2,0,0.4,0
		c-0.1,0.4,0,0.3-0.5,0.5c0.1,0.3,0.1,0.3-0.5,0.1c0.1-0.2,0.1-0.2,0.1-0.2l0,0l0,0c0.2,0,0.4,0,0.6-0.1
		C141.2,144.8,141.2,144.8,141.1,144.7L141.1,144.7z M141.3,145.8c-0.1,0.1-0.2,0.2-0.3,0.3C140.9,145.9,140.9,145.8,141.3,145.8z
		 M140.6,144.9c-0.1-0.1-0.1-0.1-0.1-0.2c0,0,0.1-0.1,0.1,0C140.8,144.8,140.6,145,140.6,144.9L140.6,144.9z M140.6,143.5
		c0.1,0.2,0.1,0.3,0,0.5c0,0.1,0.1,0.1,0.2,0.2c-0.2,0-0.2-0.1-0.2-0.2l0,0C140.4,143.8,140.4,143.7,140.6,143.5L140.6,143.5z
		 M140.4,143.2c-0.1,0.1,0,0.1-0.4-0.1C140.2,142.9,140.1,142.9,140.4,143.2z M140.1,143.5c0.1,0.1,0.1,0.2-0.1,0.4
		C139.8,143.7,140.1,143.6,140.1,143.5z M140.2,144.1c-0.2,0.1-0.3,0.1-0.3-0.1C140.1,144,140.1,144.1,140.2,144.1z M140.2,145.1
		c-0.5,0.1-0.4,0.1-0.4,0C140.3,145,140.2,145,140.2,145.1z M139.8,147.6c-0.1,0.1-0.1,0.1-0.2,0.1
		C139.6,147.5,139.8,147.6,139.8,147.6C139.8,147.6,139.8,147.6,139.8,147.6C139.8,147.6,139.8,147.6,139.8,147.6z M139.8,147.6
		c0.2-0.2,0.3-0.2,0.5,0C140.1,147.8,139.8,147.6,139.8,147.6z M140.5,147.5c0.1,0,0.1,0.1,0.1,0.2
		C140.4,147.8,140.4,147.5,140.5,147.5z M142.2,147.4c-1,0-2-0.1-3-0.1c-0.4,0-0.8-0.1-1.2-0.1c-0.4-0.1-0.9-0.1-1.3-0.2
		c-0.1,0-0.3-0.1-0.4-0.1c0.4-0.1,0.8-0.2,1.2-0.2c0.4-0.1,0.7-0.1,1.1-0.1c1.7-0.1,3.3-0.2,5-0.2v0.7c0.2-0.1,0.5,0.1,0.6,0.4
		c0.1,0.3,0,0.1,0.1,0.5c-0.2,0.1-0.4,0.1-0.6,0.1c0-0.1-0.1-0.2-0.1-0.3c0.1-0.1,0.3-0.1,0.2-0.3c-0.2,0-0.3,0-0.5,0.1
		c0-0.1,0.1-0.2,0.1-0.3c-0.1,0.1-0.2,0.1-0.3,0.2C142.7,147.4,142.5,147.4,142.2,147.4L142.2,147.4z M142.9,147.7
		c0.2-0.1,0.3,0,0.4,0C143.2,147.8,143.3,147.8,142.9,147.7z M143.2,148.2c0,0.1,0,0.1,0,0.2c0,0-0.1,0-0.1,0
		C143.1,148.2,143.1,148.2,143.2,148.2z M145.9,149.5L145.9,149.5c-0.5,0.9-1.6,1.3-2.4,0.8c-0.8-0.4-1-1.5-0.5-2.3c0,0,0.1,0,0.1,0
		c-0.1,0.3-0.1,0.6,0,0.9c0.1,0.6,0.6,1,1.1,1.1c0.5,0.1,1,0,1.4-0.3c0.1-0.1,0.2-0.2,0.4-0.4l0,0L145.9,149.5L145.9,149.5z
		 M151.3,147.5c0.2-0.2,0.1-0.2,0.2-0.1C151.3,147.6,151.3,147.5,151.3,147.5z M151.2,147.1c-0.4,0.1-0.7,0.1-1.1,0.1
		c-1.5,0.1-3,0.2-4.5,0.2c-0.1-0.1-0.3-0.2-0.5-0.3v-0.8c1,0,1.9,0,2.9,0.1c0.7,0,1.4,0.1,2.1,0.1c0.4,0,0.8,0.1,1.1,0.1
		c0.4,0.1,0.8,0.1,1.2,0.2C152,147,151.6,147.1,151.2,147.1L151.2,147.1z M152.1,147.3c0.2-0.4,0.4-0.4,0.7,0
		C152.5,147.3,152.3,147.3,152.1,147.3z M152.9,145.8c0.2-0.1,0.1-0.1,0.2,0C152.9,145.9,153,145.9,152.9,145.8z"/>
	<g>
		<path class="st1" d="M169.5,115.3c-0.3,0-0.5,0.2-0.5,0.5s0.2,0.5,0.5,0.5s0.5-0.2,0.5-0.5S169.8,115.3,169.5,115.3z"/>
		<polygon class="st1" points="171,109.8 170.4,109.8 170.6,110.3 		"/>
		<polygon class="st1" points="172.1,110.2 171.6,110 171.6,110.7 		"/>
		<path class="st1" d="M173.1,110.9l-0.5-0.3l-0.1,0.6c0,0,0,0,0,0L173.1,110.9L173.1,110.9z"/>
		<polygon class="st1" points="174.4,112.1 174.1,112.7 174.7,112.6 		"/>
		<polygon class="st1" points="175,113.2 174.6,113.6 175.2,113.7 		"/>
		<polygon class="st1" points="175.4,114.3 174.9,114.7 175.5,114.8 		"/>
		<polygon class="st1" points="174.9,116.8 175.4,117.2 175.5,116.6 		"/>
		<polygon class="st1" points="175,118.3 175.2,117.8 174.6,117.8 		"/>
		<polygon class="st1" points="174.4,119.3 174.7,118.8 174.1,118.8 		"/>
		<polygon class="st1" points="171.6,120.8 171.6,121.4 172.1,121.2 		"/>
		<polygon class="st1" points="170.4,121.7 171,121.6 170.6,121.1 		"/>
		<polygon class="st1" points="168.1,121.6 168.6,121.7 168.5,121.1 		"/>
		<polygon class="st1" points="167,121.2 167.5,121.4 167.4,120.8 		"/>
		<polygon class="st1" points="166.4,120.9 166.5,120.3 165.9,120.6 		"/>
		<polygon class="st1" points="164.4,118.8 164.7,119.3 165,118.8 		"/>
		<polygon class="st1" points="163.9,117.8 164.1,118.3 164.5,117.8 		"/>
		<polygon class="st1" points="163.6,116.6 163.7,117.2 164.2,116.8 		"/>
		<path class="st1" d="M163.9,114.5C163.9,114.5,163.8,114.5,163.9,114.5c-0.1,0-0.2-0.1-0.2-0.2
			C163.8,114.4,163.8,114.4,163.9,114.5l-0.2-0.2l-0.1,0.5l0.6-0.2L163.9,114.5C163.9,114.5,163.9,114.5,163.9,114.5L163.9,114.5z"
			/>
		<path class="st1" d="M163.9,113.6C163.9,113.6,163.9,113.6,163.9,113.6C163.9,113.6,163.9,113.6,163.9,113.6l0.6,0l-0.4-0.5
			C164.1,113.2,163.9,113.6,163.9,113.6z"/>
		<polygon class="st1" points="164.4,112.6 165,112.7 164.7,112.1 		"/>
		<polygon class="st1" points="165.9,110.9 166.5,111.2 166.4,110.6 		"/>
		<polygon class="st1" points="167.4,110.7 167.5,110 167,110.2 		"/>
		<path class="st1" d="M168.6,109.8c-0.1,0.1-0.1,0.1-0.2,0l-0.3,0.1l0.4,0.5L168.6,109.8L168.6,109.8
			C168.5,109.8,168.5,109.8,168.6,109.8L168.6,109.8z"/>
		<path class="st1" d="M176.2,121.9c-0.1,0-0.2,0-0.1-0.1c0,0,0.1,0,0.1,0C176.2,121.8,176.3,121.8,176.2,121.9
			c0.3-0.3,0.5-0.5,0.7-0.8c0-0.1,0-0.2,0-0.2c-1.5,2.2-4.1,3.7-6.9,3.8l0,0.2C172.4,124.7,174.6,123.6,176.2,121.9L176.2,121.9z"/>
		<path class="st1" d="M181.3,115.6l-2.7-0.3c-0.2-4.7-4-8.5-8.7-8.7l0,0.2c4.6,0.2,8.3,3.9,8.5,8.5l-1.4-0.1
			c-0.1-1.8-0.9-3.4-2-4.6l0.6-0.8l-0.1-0.1l-0.1-0.1l-0.8,0.6c-1.2-1.2-2.8-1.9-4.6-2l-0.1-1.4c-0.1,0-0.1,0-0.2,0l0.1,1.4
			c-0.1,0-0.2,0-0.2,0v-1.4c0,0,0.1,0,0.1,0c0.1,0,0.1,0,0.2,0l0-0.2c-0.1,0-0.1,0-0.2,0c0,0-0.1,0-0.1,0v-0.8l0.1,0.8
			c0.1,0,0.1,0,0.2,0l-0.3-2.7h-0.1h-0.1l-0.3,2.7l0,0c-4.8,0.2-8.6,4-8.7,8.7l-2.7,0.3l0,0v0.1l0,0v0.1l2.7,0.3
			c0,0.7,0.1,1.3,0.3,1.9c0,0,0,0,0,0c0.1,0.1,0.1,0.2,0.1,0.4c0.3,1.1,0.9,2.1,1.5,2.9c0,0,0,0,0.1-0.1c0,0.1,0,0.1-0.1,0.1
			c1.6,2,4,3.3,6.8,3.4l0-0.2c-3.7-0.2-6.8-2.5-8-5.9c0,0-0.1,0-0.1,0c0-0.1,0-0.1,0-0.2c0,0,0,0,0.1,0c-0.3-0.8-0.4-1.7-0.5-2.5
			l1.4,0.1c0.1,1.8,0.9,3.4,2,4.6l-0.6,0.8l0.1,0.1l0.1,0.1l0.8-0.6c1.2,1.2,2.8,1.9,4.6,2l0.1,1.4c0.1,0,0.1,0,0.2,0l-0.1-1.4
			c0.1,0,0.2,0,0.2,0v1.4c0,0-0.1,0-0.1,0l0,0.2c0,0,0.1,0,0.1,0v0.8l-0.1-0.8c-0.1,0-0.1,0-0.2,0l0.3,2.7h0.1h0.1l0.3-2.7
			c-0.1,0-0.2,0-0.3,0v-0.2c0.1,0,0.2,0,0.3,0l0.1-1.4c1.8-0.1,3.4-0.9,4.6-2l0.8,0.6l0.1-0.1l0.1-0.1l-0.6-0.8c0,0-0.1,0.1-0.1,0.1
			L174,120c0.1-0.1,0.2-0.2,0.2-0.3l-2.1-2.9c0,0,0-0.1,0.1-0.2l3.6-0.4c-0.1,1.3-0.7,2.5-1.5,3.4l0.8,1.1c1.1-1.2,1.9-2.8,2-4.6
			l1.4-0.1c-0.1,1.6-0.6,3.1-1.4,4.4c0,0.1,0,0.2,0,0.3c0.9-1.3,1.4-3,1.5-4.7l2.7-0.3L181.3,115.6L181.3,115.6L181.3,115.6z
			 M160.4,115.6h-0.8H160.4C160.4,115.5,160.4,115.6,160.4,115.6z M174.7,110.7L174.7,110.7l-0.7,0.7c0,0,0.1,0.1,0.1,0.1l-2.1,2.9
			c-0.1-0.2-0.2-0.4-0.4-0.6l2.4-2.4l0,0L174.7,110.7z M171.9,114.9L171.9,114.9l-0.8-0.8L171.9,114.9z M172.1,112.8
			c0.1-0.1,0-0.1,0.2,0C172.2,112.9,172.3,112.9,172.1,112.8z M172.6,112.5c0,0.1,0,0.2-0.1,0.2c0,0,0,0,0,0l0,0
			c-0.1-0.1-0.1-0.1,0-0.2C172.6,112.5,172.6,112.5,172.6,112.5L172.6,112.5z M172.7,111.8c0.1,0.1,0.2,0.2,0.2,0.3
			C172.7,112.4,172.3,112.1,172.7,111.8z M169.7,109.5c0.1,0,0.2,0,0.3,0l0.1,0.9c0.1,0,0.1,0,0.2,0l-0.1-0.9
			c1.3,0.1,2.4,0.7,3.4,1.4c0,0,0,0,0.1,0c0,0,0,0,0,0.1l0,0c0,0,0,0,0,0.1c0,0,0,0-0.1,0l-0.4,0.3c0.1,0.1,0.2,0.2,0.2,0.4
			c-0.1,0.1-0.2,0.1-0.3,0.2c-0.1-0.2-0.1-0.3-0.3-0.3c0,0,0,0,0,0l-1.7,1.2c0.1,0,0.2-0.1,0.5-0.1c-0.2,0.3-0.3,0.3-0.6,0.2
			l-0.3,0.2c0,0-0.1,0-0.1-0.1l-0.2-2.1c-0.1,0-0.1,0.1-0.2,0.1l0,0.3c0.1,0,0.1,0.1,0.2,0.1c-0.1,0-0.1,0-0.1,0.1l0.1,1.4
			c-0.2-0.1-0.5-0.1-0.7-0.1V112c-0.1,0.1-0.1,0.1-0.2,0.2l0,0c0,0-0.1,0-0.1,0.1c0-0.1-0.1-0.2-0.1-0.3c0.1,0,0.1,0,0.1,0
			c0.1,0,0.1,0,0.2,0v-0.3c-0.1-0.1-0.1-0.2,0-0.2v-0.2c0,0,0,0,0,0c0-0.2-0.1-0.2-0.2-0.3l0,0c-0.1-0.1-0.1-0.2-0.1-0.3
			c-0.1,0-0.1,0-0.1,0.2c0,0.1-0.1,0.1-0.3,0.1c0-0.1,0.2-0.2,0.1-0.4c0,0,0.1-0.1,0.1-0.1c0.1,0,0.2,0,0.3,0l0,0
			c0.1,0,0.1-0.1,0.1-0.2c0,0,0,0,0.1,0L169.7,109.5c-0.1,0-0.2,0-0.2,0c0,0,0-0.1,0-0.1c0.1,0,0.1,0,0.1,0
			C169.7,109.4,169.7,109.4,169.7,109.5L169.7,109.5z M170.4,112.1c-0.1-0.1-0.1,0-0.1-0.1C170.4,111.9,170.4,111.9,170.4,112.1z
			 M168.7,112C168.7,112,168.7,112,168.7,112l-0.2,1.1c-0.1,0-0.1,0.1-0.1,0.1l-2.9-2.2l0,0c0.9-0.8,2.1-1.4,3.4-1.5l0,0.3
			c0.1,0,0.1,0,0.1,0.1c-0.1,0-0.1,0-0.1,0l-0.2,2C168.7,111.9,168.7,112,168.7,112L168.7,112z M167.1,116c0.1-0.1,0.1-0.1,0.1-0.2
			s0,0,0.1,0c0,0,0,0,0,0C167.1,116,167.1,116,167.1,116L167.1,116z M167.7,117.4l-0.5-0.5l0,0L167.7,117.4z M167.2,116.6
			L167.2,116.6L167.2,116.6L167.2,116.6z M165.2,111.3L165.2,111.3l-0.7-0.7l0,0L165.2,111.3c0,0,0.1-0.1,0.1-0.1l1.1,0.8
			c0,0,0,0,0-0.1c0.1,0,0.1,0.1,0.1,0.2l0.9,0.7c0,0,0.1-0.1,0.1-0.1c0,0.1,0,0.1,0,0.1l0.6,0.5c-0.2,0.1-0.4,0.2-0.6,0.4
			L165.2,111.3L165.2,111.3z M167,114.6c0,0,0,0.1-0.1,0.2l-3.6,0.4c0.1-1.3,0.7-2.5,1.5-3.4l0.7,0.9c0-0.1,0-0.1,0-0.2
			c0.1,0,0.1,0,0.2,0c0.2,0.2,0.4,0.5,0.2,0.6L167,114.6L167,114.6z M169.2,110.2c0,0.2-0.1,0.2-0.1,0.3c0,0-0.1-0.1-0.1-0.1
			C169.1,110.3,169.1,110.2,169.2,110.2L169.2,110.2z M169.5,106.8c0,0-0.1,0-0.1,0C169.4,106.8,169.4,106.8,169.5,106.8
			C169.5,106.8,169.5,106.8,169.5,106.8L169.5,106.8C169.5,106.8,169.5,106.8,169.5,106.8z M162,115.6h-1.4c0,0,0-0.1,0-0.1l1.4-0.1
			C162,115.5,162,115.6,162,115.6L162,115.6z M160.6,115.3c0.2-4.6,3.9-8.3,8.6-8.5v-0.1v0.1l0,0l-0.1,1.4c-1.8,0.1-3.4,0.9-4.6,2
			l-0.8-0.6l-0.1,0.1l-0.1,0.1l0.6,0.8c-1.1,1.2-1.9,2.8-2,4.6L160.6,115.3L160.6,115.3z M163.3,115.3l3.5-0.3
			c-0.1,0.2-0.1,0.5-0.1,0.7h-3.4C163.3,115.5,163.3,115.4,163.3,115.3z M166.2,116.4c0-0.1-0.1-0.2-0.1-0.3
			C166.3,116.2,166.3,116.3,166.2,116.4z M164,115.7c0,0-0.1,0.1-0.1,0.1c-0.1,0.1-0.1,0.2-0.3,0.1c0-0.1,0-0.1,0-0.1
			C163.7,115.7,163.8,115.7,164,115.7L164,115.7z M163.3,116.4l3.6,0.4c0,0.1,0.1,0.1,0.1,0.1l0,0l-2.1,2.9
			C164,118.9,163.5,117.7,163.3,116.4L163.3,116.4z M164.4,120.8L164.4,120.8l0.7-0.7c0,0-0.1-0.1-0.1-0.1l0,0l2.1-2.9
			c0.1,0.2,0.2,0.4,0.4,0.6l-2.4,2.4l0,0L164.4,120.8L164.4,120.8z M165.5,120.4l2.9-2.1c0,0,0.1,0,0.1,0.1l0.4,3.6
			C167.6,121.8,166.4,121.3,165.5,120.4z M169.5,122c-0.1,0-0.2,0-0.4,0l-0.4-3.5c0.2,0.1,0.5,0.1,0.7,0.1
			C169.5,118.6,169.5,122,169.5,122z M169.5,117.7c-1.1,0-2-0.9-2-2s0.9-2,2-2s2,0.9,2,2S170.6,117.7,169.5,117.7z M170.2,121.9
			l0.4-3.6c0.1,0,0.1-0.1,0.1-0.1l2.9,2.1C172.7,121.3,171.5,121.8,170.2,121.9L170.2,121.9z M173.1,119.4l0.8,0.8l0.7,0.7l0,0l0,0
			l-0.7-0.7c0,0-0.1,0.1-0.1,0.1l-2.9-2.1c0.2-0.1,0.4-0.2,0.6-0.4l0,0L173.1,119.4L173.1,119.4z M172.1,114.6l2.1-2.9
			c0.8,0.9,1.4,2.1,1.5,3.4l-3.6-0.4C172.2,114.7,172.1,114.6,172.1,114.6L172.1,114.6z M175.7,116.2l-2.8,0.3c0,0,0,0.1,0,0.1
			c0-0.1-0.1-0.1-0.1-0.1l-0.6,0.1c0.1-0.2,0.1-0.5,0.1-0.7h3.4C175.8,116,175.8,116.1,175.7,116.2z M178.5,115.9l-1.4,0.1
			c0-0.1,0-0.2,0-0.2L178.5,115.9C178.5,115.8,178.5,115.9,178.5,115.9z M178.6,115.9C178.6,115.9,178.6,115.9,178.6,115.9l0.8-0.1
			L178.6,115.9z"/>
	</g>
</g>
<g class="st0">
	<g id="_12">
		<path class="st1" d="M75.8,15.7l0.1,0.5c-0.1-0.2-0.1-0.5-0.2-0.7l-26-6.1c0.4,0.5,0.9,0.9,1.4,0.8c0.1,0.4,0.1,0.7,0.2,1.1
			l25.9,6.1C76.7,16.4,76.3,15.8,75.8,15.7L75.8,15.7z"/>
		<path class="st1" d="M104.8,46.6l-0.7,2.9c2.4,2.6,0.8-2.5,1.1-3.3C105,46.4,104.9,46.6,104.8,46.6L104.8,46.6z"/>
		<path class="st1" d="M36.1,7.5c-0.6-1.2-1-1-2-2c-1.8-0.4-3.6-0.3-5.2,0.1c0,0.2,0,0.3,0,0.5l1.9,0.6c1-0.1,2-0.1,3,0.2
			C33.8,7,36.1,7.5,36.1,7.5z"/>
		<path class="st1" d="M98.5,79.5C98.5,79.5,98.5,79.4,98.5,79.5c-0.4,0.1-1,0.5-1.7,1L96.7,81l1.4,0.3L98.5,79.5L98.5,79.5z"/>
		<path class="st1" d="M98.9,71.4c0.6-0.3,1.1-0.6,1.7-0.9l0.1-0.6l-1.4-0.3C99.3,69.7,98.9,71.5,98.9,71.4z"/>
		<path class="st1" d="M48.5,9.4c0-0.2,0-0.3,0-0.5l-0.2-0.1L48.5,9.4z"/>
		<path class="st1" d="M27.5,6.2c-0.2,0.1-0.5,0.2-0.7,0.3c0.2,0.4,0.4,0.9,0.6,1.3c0.3-0.2,0.6-0.3,0.9-0.4
			C27.9,7,27.7,6.6,27.5,6.2z"/>
		<path class="st1" d="M97.7,82.9c-0.1-0.1-0.3-0.2-0.4-0.4c0.1,0.2,0.3,0.4,0.4,0.6L97.7,82.9z"/>
		<polygon class="st1" points="96.9,86.2 96.9,86.1 95.5,85.8 95.5,85.9 		"/>
		<polygon class="st1" points="95.7,85 95.5,85.8 97,86.1 97.2,85.2 		"/>
		<path class="st1" d="M90.1,13.3c-0.7,0.6-1.5,1.2-2.2,1.9l14.2,3.3c2.8,0.7,5.2,2.1,6.9,4.1l1.9-0.7l-1.4,1.3
			c2.5,3.1,3.5,7.3,2.6,11.4l-3.4,14.4c0.5,0.7,1.1,1.4,1.8,2.2c0.1,0,0.1,0,0.1,0.1l3.8-16.2c0-0.1,0-0.2,0.1-0.3
			c-0.6-1.2-1-2.2,0.1-2.1c0.1,0.2,0.1,0.3,0.2,0.5c0.9-7.9-4.2-15.3-12.1-17.2L90.1,13.3L90.1,13.3z"/>
		<path class="st1" d="M96.1,89.9l-1.4-0.3L91.9,101c-1,4.1-4.5,6.8-8.5,7c0.1,0.5,0.3,1,0.4,1.4c4.5-0.3,8.5-3.5,9.6-8.1l2.2-9.2
			l-0.2,0c0.1-0.1,0.1-0.1,0.2-0.2L96.1,89.9L96.1,89.9z"/>
		<path class="st1" d="M77.1,112c-1.4-0.2-1.2,0.6-0.6,1.7l1.8,0.4C78,113.8,77.7,113.2,77.1,112z"/>
		<path class="st1" d="M69.1,111.9l6.3,1.5c-0.2-0.9,0-1.6-0.2-2.5l-5.5-1.3C69.7,110.5,69.5,111,69.1,111.9z"/>
		<path class="st1" d="M81.7,112.3c-0.2,0.9,1.2,2.9-1.2,1.2c0.3,0.4,0.4,0.8,0.6,1.1c0.7,0.1,1.4,0.1,2,0.1l-1.3-2.5
			C81.8,112.3,81.7,112.3,81.7,112.3L81.7,112.3z"/>
		<path class="st1" d="M105.4,25.3c2.1,2.2,3.1,5.3,2.4,8.5l-2.2,9.2c0.4,0.8,0.6,1.6,0.9,2.3l2.6-11.2c0.8-3.2,0-6.4-1.8-8.8
			l-0.1,0.1c0-0.1,0-0.2,0-0.2c-0.1-0.1-0.2-0.2-0.3-0.3C106.7,24.8,106.1,25,105.4,25.3z"/>
		<path class="st1" d="M95.5,86L95,88.2c0.6-0.4,1.2-0.8,1.8-1.2l0.2-0.7L95.5,86L95.5,86z"/>
		<path class="st1" d="M21.4,13.4l-2.4,10c0.2,0.1,0.4,0.3,0.7,0.4L19,24l-0.3,1.1c0.2,0.4,0.5,0.8,0.7,1.1l0.4,0.4l3-12.9
			c0.6-2.4,2-4.3,3.9-5.5c-0.3-0.4-0.6-0.8-0.8-1.2C23.7,8.5,22.1,10.7,21.4,13.4L21.4,13.4z"/>
		<path class="st1" d="M10.9,58.2c0.4,0.7,0.7,1.4,1,2l7.9-33.5c-0.1-0.1-0.2-0.3-0.4-0.5l-0.8-0.9C18.6,25.3,10.9,58.2,10.9,58.2z"
			/>
		<path class="st1" d="M73.1,107.4L73.1,107.4C73.1,107.4,73.1,107.4,73.1,107.4C73,107.3,73,107.4,73.1,107.4z"/>
		<path class="st1" d="M13.4,93.3l53.1,12.5c-0.2-0.5-0.3-1.1-0.5-1.6L13.8,91.9C8.9,90.8,5.8,85.9,7,81l4.6-19.5
			c-0.5-0.5-1.1-0.8-1.4-0.2c0.1-0.2,0.1-0.4,0.1-0.7l-4.7,20C4.2,86.3,7.8,92,13.4,93.3z"/>
		<path class="st1" d="M99.8,86.7l0,0.1l2.1,0.4c0.1,0,0.1-0.1,0.2-0.1L99.8,86.7L99.8,86.7z"/>
		<path class="st1" d="M71.7,105.6l-4.5-1.1c0,0.1,0,0.2,0.1,0.4c0.4,0.9,1.2,1.3,1.6,1.5l3.6,0.8C72.2,106.8,72,106.2,71.7,105.6
			L71.7,105.6z"/>
		<path class="st1" d="M16.3,22.7l-0.9-1l0.1,0.7l-0.2-0.9l0.1,0.1l-0.3-3.6c0-0.1-0.1-0.3-0.1-0.4L6.8,52.5c0.7,0.4,1.4,1.1,2,2
			C8.8,54.5,16.3,22.7,16.3,22.7z"/>
		<path class="st1" d="M102.1,87.3l-0.3-0.1c-0.8,0.6-1.7,1.2-2.6,1.9l-0.3,1.3l2.4,0.4L102.1,87.3L102.1,87.3z"/>
		<path class="st1" d="M16.9,20l1.7-7.2c0.8-3.5,2.9-6.3,5.7-8.1c0-0.1-0.1-0.1-0.1-0.1c0.1,0,0.2,0,0.3,0c0.3-0.2,0.7-0.4,1-0.6
			c-0.2-0.5,0.2-0.5,0.7-0.3c0.4-0.2,0.8-0.3,1.1-0.5c-0.1-0.3-0.2-0.7-0.6-1.3c0-0.1-0.1-0.2-0.1-0.2c0,0.1,0.1,0.2,0.1,0.2
			c0.2,0.3,0.5,0.7,0.8,1.2c2.3-0.7,4.7-0.9,7.2-0.3l0.6,0.1c-0.2-1-0.7-1.9-1.2-2.7C33.2,0,32.3,0,31.3,0c0.3,0.9,0.3,1.5-0.1,1.8
			c-0.9-0.6-1.4-1.1-1.8-1.6c-1.5,0.2-3,0.6-4.3,1.3L24.9,2V1.6c-4.2,2-7.5,5.8-8.6,10.7l-0.9,3.9c0.2,0.2,0.5,0.4,0.7,0.7
			C16.6,17.9,16.7,18.9,16.9,20L16.9,20z"/>
		<path class="st1" d="M102.2,87.1l-0.1,0c0,0,0,0,0,0H102.2L102.2,87.1L102.2,87.1z"/>
		<path class="st1" d="M102.2,86.9c0,0-0.1,0.1-0.2,0.1l0.1,0L102.2,86.9L102.2,86.9z"/>
		<path class="st1" d="M99.7,97.6l-0.6-0.1c0.2-0.2,0.5-0.3,0.7-0.6l0.9-3.8l-2.4-0.4l-2.2,9.3c-1.4,6.1-6.9,10.3-12.9,10.3
			c0.6,0.9,1,1.7,1.3,2.4c6.6-0.6,12.4-5.3,14-12.2L99.7,97.6L99.7,97.6z"/>
		<path class="st1" d="M78.8,114.2l0.7,0.2c0.6,0.1,1.1,0.2,1.7,0.3C79.4,112.4,79.2,113.9,78.8,114.2L78.8,114.2z"/>
		<path class="st1" d="M58.3,108.1l1,1.5l9,2.1c-0.5-1.2,0.3-0.7,0.2-2.4L12.8,96.2c-7.2-1.7-11.7-9-10-16.2l5.6-23.7
			c-0.6-0.8-1.3-1.7-1.9-2.4l-6,25.6c-2,8.5,3.3,17.1,11.8,19.1l46.2,10.9L58.3,108.1L58.3,108.1z"/>
		<polygon class="st1" points="86.6,12.5 86.1,12.4 86.1,12.6 		"/>
		<path class="st1" d="M74.8,12.2c-0.1-0.2-0.2-0.5-0.2-0.7c-0.3,0.2-0.5,0.4-1-0.3c0.1-0.9,1.1-0.8,1.5-1.4L47.8,3.4
			c0.2,1,0.5,1.9,0.7,2.7L74.8,12.2L74.8,12.2z"/>
		<path class="st1" d="M105.3,63.3l-1,4.1c0.2-0.3,0.5-0.5,0.7-0.8c-0.3,1,1,0.7-0.8,3c1.2-0.9,2.1-1.4,2.6-2.1l0.4-1.6
			C106.7,65,106,64.1,105.3,63.3z"/>
		<path class="st1" d="M103.9,50.2l-4.5,18.9l1.4,0.3l2.2-9.5c0-0.2-0.1-0.3,0-0.4c0,0.1,0.1,0.1,0.1,0.2L105,52
			C104.5,51.4,104.1,50.8,103.9,50.2L103.9,50.2z"/>
		<path class="st1" d="M107.5,53.9l-0.1,0.2c0.5,0.7,1.1,1.5,1.3,2.2c-0.2-0.6-0.8-1.2-1.4-1.9l-2,8.5c0.7,0.7,1.4,1.1,2.1,1.7
			l2.1-9C108.9,54.7,108.2,54,107.5,53.9z"/>
		<path class="st1" d="M102.4,86.1c-0.3-0.8-0.5-1.5-0.8-2.1c-0.4,0.2-0.9,0.5-1.3,0.8l-0.2,1l2.4,0.4
			C102.4,86.2,102.4,86.1,102.4,86.1z"/>
		<path class="st1" d="M88.8,18.5c0.4,0.6,0.8,1.2,1.1,1.8l11.1,2.6c1.3,0.3,2.6,0.9,3.6,1.7l0.1-0.3l1.2-0.5
			c-1.3-1.1-2.8-2-4.6-2.4L88.8,18.5L88.8,18.5z"/>
		<path class="st1" d="M89.3,13.1l-2.5-0.6c-0.4,0.4-0.1,1.2,0.3,2C87.9,14.6,88.7,13.9,89.3,13.1L89.3,13.1z"/>
		<path class="st1" d="M102.1,82l1.2,0.2l1.1-4.8c-1,0.5-1.9,0.7-2.8,1.4l-0.7,3l0.8,0.2l-0.1-0.6C101.8,81.5,101.9,81.7,102.1,82z"
			/>
		<path class="st1" d="M102.1,82l-0.3-0.1l0.3,1.6c-0.8-0.8-0.9-0.4-1.5-0.3v0.1c0.4,0.1,0.7,0.5,0.9,0.9c0.4-0.2,0.9-0.5,1.3-0.7
			C102.7,82.9,102.4,82.4,102.1,82L102.1,82z"/>
		<path class="st1" d="M103.1,83.3c0,0-0.1,0.1-0.1,0.1c0,0.1,0.1,0.1,0.1,0.2L103.1,83.3z"/>
	</g>
	<path class="st1" d="M48.2,83c0,0,0.1,0.1,0.2,0.1c-0.2,0.2-0.1,0.2-0.3,0C48.1,83,48.1,83,48.2,83c-2.1,0.2-5,0.4-6.5,0.3
		c1.3,0.8,1.5,2.4,1.5,2.4c-0.7,0-1.3-0.1-2-0.2c0.5,0.3,0.2,0.9,0.2,1.1c0,0,0,0,0,0c0,0,0,0,0,0c-0.5-0.4-0.5-0.4-0.2-1.1
		c-5-0.7-9.2-3.7-9-7c0.1-2.1,1.5-3,3-4.4c0.3-0.2,0.5-0.4,0.8-0.7c-0.9-1.3-0.5-0.4,0.7-0.6c-0.1-0.2-0.2-0.4-0.2-0.6
		c0.2,0,0.4,0,0.7-0.1C37,72.1,37,72,36.9,71.9c0.3-0.1,0.5-0.3,0.4-0.7c0.6,0.5,0.6,0.6,0.2,1.1c0,0,0,0,0,0
		c1.2-0.8,2.5-1.6,3.7-2.4c2-1.3,3.9-2.6,5.9-3.8c0-0.2,0-0.2,0.2-0.2c0,0,0,0.1,0,0.1c1.9-1.2,3.8-2.4,5.7-3.6c1-0.6,2-1.3,3-1.9
		c0-0.3,0.6-0.8,1.1-2.5c-0.2-0.3-0.3-0.3-0.3-0.3l0,0c-0.2,0-0.5,0.1-0.4-0.3c0-0.2-0.1-0.3-0.3-0.4c-0.2,0-0.4,0-0.4,0.3
		c0,0.1-0.1,0.1-0.2,0.2c-0.5-0.7-0.2-0.5-0.7-0.1c-0.1,0.1-0.3,0.1-0.5,0.2c-0.1-0.9,1-0.6,1.4-1.2c0-0.1,0.4,0,0.6,0
		c0.2,0,0.3,0.1,0.4,0.2c0.5,0.2,0.6,0.2,0.3,0.7c-0.1,0.3-0.1,0.4-0.2,0.4l0,0c0.9-0.1,1.6-0.4,1.9,0.3c0.3,0.6,0.2,1-0.5,1.3
		c-0.2-0.1-0.5-0.2-0.8-0.4c-0.1,1,0,0.9-0.2,1c0,0,0,0-0.1,0c0.1,0.2,0.2,0.4,0.4,0.6c0.2-0.2,0.2-0.4,0.3-0.3c1.2,0.8,1,0.8,1,0.9
		c-0.2,0.2-0.6,0.1-0.8,0.2c1.8,3,3.7,6,5.5,9.1c0.1-0.2,0.2-0.4,0.3-0.6l0.6,0.1c-0.2,0.6-0.4,0.9-0.6,1c0.7,1.1,1.3,2.2,2,3.3
		c0.1-0.1,0.2-0.2,0.3-0.3c0.1,0.4,0.1,0.6,0.2,0.9c-0.1,0-0.2,0-0.2,0c0.1,0.1,0.2,0.2,0.2,0.4c0,0,0.1-0.1,0.1-0.1
		c0.2,0.2,0.4,0.4,0.2,0.7c0.3,0.5,0.5,0.9,0.8,1.4c0,0,0-0.1,0-0.1c0.4,0.3,0.5,0.4,0.3,0.5c0.9,1.6,1.8,3.2,2.7,4.9
		c0.8,1.9,1.6,3.4,0.8,5.3c-0.2,0.4-0.4,0.7-0.7,1c0.2,0.2,0.4,0.3,0.6,0.6c-0.6,0-0.6,0-0.6-0.5c-0.3,0.4-0.7,0.7-1.2,0.9
		c0,0.1,0.1,0.2,0.1,0.2C69.2,90,69,90,68.7,89.9c-2.7,1.2-6.9,1-10.5-0.8c0,0,0.8-1.3,2.4-1.5c-2.3-1-7.6-4.3-7.6-4.3
		s-0.8,5.4,2.2,10.1c0.2-1,0.5-1.9,1-2.3c2.2,1.8,4.6,2.4,7,2.6c0-0.1,0.1-0.1,0.2-0.2c0,0,0,0,0,0c0-0.1,0-0.2,0.4-0.8
		c0,0.4,0.1,0.7-0.3,0.9l0,0c0,0,0,0.1,0,0.1c0.2,0,0.5,0,0.7,0c0.1-0.4,0.1-0.3,0.2-0.4c0.1,0.1,0.1,0.2,0.2,0.4
		c6-0.1,11.9-2.9,15.9-0.5c-0.1-0.8,0-1.5,0.2-2.3c-0.2-0.1-0.3-0.2-0.3-0.2c0,0,0,0,0,0c0,0,0,0,0,0c0.1,0,0.3-0.1,0.3,0
		c0-0.1,0.1-0.2,0.1-0.4c-0.1,0-0.3-0.1-0.4-0.1c-0.3-0.2-0.2-0.6,0.2-0.7c0.3,0,0.5-0.2,0.7-0.3c0.1-0.2,0.2-0.4,0.3-0.6
		c-0.3-0.1-0.5,0.2-0.8,0.2c-0.1-0.1-0.1-0.2-0.2-0.4c0.5-0.1,0.9-0.1,1.2-0.2c0.5-0.9,1.1-1.8,1.7-2.7c-0.3-0.2-0.5-0.5-0.4-0.9
		c0.3,0.1,0.5,0.2,0.8,0.3c2.1-2.9,4.4-6,5.1-9.6c-0.4-0.2-0.7-0.5-1-0.7c0,0,0-0.2,0-0.3c0.3,0.3,0.6,0.5,1,0.8
		c0.2-1.5,0.2-3-0.3-4.7c0.4-0.2,1.2-0.2,2.5,0.1c-1.7-2.7-3.8-4.5-5.4-5.6c0.1,0.1,0.2,0.3,0.3,0.4c-0.4-0.1-0.7-0.1-1-0.5
		c-0.1-0.2-0.2-0.4-0.3-0.5c-0.7-0.4-1.2-0.6-1.2-0.6s0,0.4,0.1,1.1c0.1,0,0.2,0,0.4,0.1c-0.1,0.2-0.1,0.1-0.3,0.3l0.8,0.2
		c0,0.2,0.1,0.4,0.2,0.7c0.2,0,0.4,0.1,0.5,0c0.7-0.2,0.5-0.1,1.1,0.4c0.8-0.7,0.6-0.6,1-0.4c-0.8,1.4-1.5,0-2.2,0.6
		c-0.2,0.2-0.6,0.2-0.9-0.1c-0.1-0.3-0.1-0.5-0.2-0.8c-0.2,0.1-0.3,0.2-0.4,0.3l0,0c0,1.1,0.1,2.3,0,3.5c0,0,0.1,0,0.1,0
		c0.1,0,0,0.2-0.1,0.2c0,1.2-0.1,2.3-0.2,2.8c0.5-0.6,0.9-0.9,1.3-1.2c-0.1-0.2-0.2-0.3-0.3-0.5c0.3,0.1,0.5,0.2,0.7,0.3
		c0.5-0.2,0.8-0.2,0.8-0.2c0.1,2.2-0.2,4.2-0.9,6c0.3,0.3,0.4,0.6,0.2,0.9c-0.1,0.1,0.1,0.3,0.2,0.4c0,0.5,0.1,1.1-0.3,1.5
		c-0.4-0.1-0.3-0.6-0.5-0.8c0.5,0.1,0.4,0.1,0.6-0.1c-0.2-0.3-0.3-0.7-0.5-0.9c0,0,0,0-0.1,0c-0.5,1-1.2,1.8-1.9,2.5
		c0.1,0,0.1,0,0.1,0c0,0.1,0,0.2-0.1,0.4c0,0-0.2,0-0.2,0c0-0.1,0-0.2,0-0.3c-0.9,0.8-2,1.2-3.1,1.1c-0.5,0-0.9-0.1-1.3-0.3
		c0,0,0,0.1,0,0.1c-0.2,0.1-0.4,0.1-0.7,0.2c-0.2-0.6-0.2-0.5-0.1-0.6c0.1,0.1,0.1,0.1,0.2,0.1c-0.5-0.3-1-0.7-1.4-1.2
		c0,0.1,0,0.2,0.1,0.3c-0.2-0.1-0.5-0.2-0.8-0.3c0.1-0.2,0.1-0.4,0.2-0.6c-0.2-0.2-0.4-0.5-0.6-0.7c0,0,0-0.1-0.1-0.1
		c-0.1,0-0.2-0.1-0.3-0.3c0-0.1,0-0.1-0.1-0.1c-0.1-0.1-0.1-0.2-0.2-0.3c-0.1,0-0.2-0.1-0.4-0.1c0.1,0.2,0.2,0.3,0.3,0.5
		c-0.3,0.1-0.7,0.2-1,0.4c0-1-0.1-1.3-0.1-1.3c-0.1,0.1-0.1,0.2-0.2,0.2c-0.2-0.1-0.2-0.2-0.2-0.5c0.2,0.2,0.3,0.2,0.3,0.3l0,0l0,0
		l0,0l0,0c0.1-0.5,0.1-0.8,0.1-1c0,0,0,0,0,0c0,0.1-0.1,0.2-0.3,0.5c0-0.3-0.1-0.4-0.1-0.6c0.1,0,0.2,0,0.3,0
		c-0.1-0.2-0.3-0.4-0.4-0.6c-0.3,0.1-0.8,0.3-1.8,0.2c-0.1,0-0.2,0-0.3,0.1c0,0.2,0.1,0.3,0.1,0.4c0.2,0,0.3,0,0.5,0
		c0,0.7,0,0.4-0.2,1c-0.2-0.1-0.4-0.2-0.6-0.3c0-0.6-0.5-1.3,0.3-1.6c-0.2-0.9-0.3-1-0.2-1.1c0,0-0.1,0-0.7,0c0-0.2,0-0.3,0-0.5
		c0.3-0.1,0.5,0,0.8,0.5l0,0c0.4-0.6,0.9-1.1,0.2-1.2c-0.1,0-0.2,0-0.2,0c-0.4-0.7-1.5,0.3-1.6-0.9c0.5-0.1,1,0.6,1.4-0.1
		c0,0,0.1,0,0.1,0c-0.2-0.2-0.3-0.5-0.5-0.8C70,72,70,72.1,70,71.8c-0.3-0.4-0.5-0.8-0.8-1.2c-0.5-0.3-0.8-0.6-0.8-1.1
		c-0.1,0.1-0.3,0.1-0.4,0.2c-0.1-0.2-0.1-0.4-0.1-0.7c-0.4,0.2-0.7,0.2-1-0.2c0.2-0.5,0.7-0.3,1.3,0c-0.3-0.5-0.6-0.9-0.9-1.4
		c-0.5,0.4-0.4,0.4-0.5,0.1c0-0.2,0.1-0.4,0.4-0.4c-1.2-1.9-2.4-3.8-3.6-5.7c-0.7-1.2-1.5-2.3-2.2-3.5c0,0.1-0.1,0.2-0.1,0.3
		c-0.2-0.3-0.2-0.5-0.1-0.6c-0.1-0.1-0.1-0.2-0.2-0.3l-0.1-0.1l0,0c-0.4,0-0.5-0.3-0.8-0.5c0.1-0.3,0.2-0.5,0.4-0.8
		c0.5,0.3,0.2,0.8,0.4,1.2l0.3-0.2l0,0c0-0.1-0.1-0.2-0.1-0.3c0.2-0.3,0.5-0.5,0.2-1c-0.1-0.1,0.2-0.4,0.3-0.8
		c0.3,0.6,0.2,1.2,0.1,1.7c1.4-0.9,2.8-1.8,4.2-2.7c0.1-0.1,0.1-0.2,0.2-0.1c1-0.6,2-1.2,3-1.9c0-0.1-0.1-0.2-0.1-0.3
		c0.3-0.1,0.6-0.3,0.9-0.4c0,0,0,0.1,0,0.1c3.6-2.2,7.1-4.5,10.7-6.7l3.3,5.7c0,0,0.1,0,0.1,0c0,0,0,0-0.1,0.1l1.1,2l3.5-2.2
		l-4.9-7.5l3-1.8c0,0,2.7,1.6,5,0.2c2.4-1.5,2.1-4.6,1-6.4c-1.1-1.8-3.8-3.4-6.1-1.9s-2.1,4.6-2.1,4.6l-3,1.8l-3.8-6.5
		c0,0-0.1,0.1-0.2,0.1c0,0-0.1-0.1-0.1-0.1c0.1-0.1,0.1-0.1,0.2-0.2l-0.7-1.1L73.3,34l5,7.4c-3.2,2-6.3,3.9-9.5,5.9
		c0.2,0.1,0.2,0.2,0.2,0.5c-0.3,0-0.6-0.1-0.9-0.1l0,0c-3.1,1.9-6.2,3.9-9.4,5.8l-0.3,0.2l-0.2-0.3c-2.2-3.5-4.4-7-6.6-10.6
		c-0.2,0.3-0.1,0.6-0.1,1c-0.2,0-0.4,0.1-0.6,0.2c-0.1-0.7,0-1.1,0.5-1.5c-1.1-1.8-2.2-3.5-3.3-5.2c-0.1,0.1-0.2,0.1-0.4,0.1
		c0.1-0.2,0.1-0.3,0.2-0.4c-0.4-0.7-0.9-1.4-1.3-2.1l0,0.1c-0.1-0.1-0.2-0.2-0.4-0.4c0.1,0,0.1-0.1,0.2-0.1
		c-0.1-0.1-0.1-0.2-0.2-0.3c-0.2,0-0.4,0-0.6-0.1c0.2-0.1,0.3-0.1,0.5-0.1l7.8-4.4L51.6,26l-7.5,4.9l-1.8-3c0,0,1.6-2.7,0.2-5
		c-0.7-1-1.6-1.6-2.6-1.7c0,0.1,0,0.1,0,0.2c-0.1,0.5-0.7,0.6-1-0.1c0-0.1,0-0.1,0-0.2c-1,0-2,0.4-2.7,0.8c-1.8,1.1-3.4,3.7-2,6.1
		c0.2-0.2,0.3-0.1,0.6,0.1c-0.2,0-0.3,0.1-0.4,0.2c0.1,0.2,0.3,0.4,0.4,0.5c0.2-0.2,0.3-0.5,0.5-0.8c0.1,0.2,0.2,0.4,0.2,0.5
		c-0.1,0.3-0.2,0.4-0.5,0.5c1.6,1.3,3.8,1.1,3.8,1.1l1.8,3l-7.7,4.5l2.2,3.5l7.4-5c0.9,1.5,1.9,3,2.8,4.6c-0.1-0.7-0.2-0.5,0.3-0.8
		c0.3,0.4,0.2,0.7-0.2,0.9c3.1,5,6.2,10,9.2,14.9l0.2,0.3l-0.1,0.1c-0.7,0.4-1.4,0.8-2.1,1.3c0.2,0.1,0,0.4,0.2,0.5
		c0.2,0.2,0.7,0,0.7,0.4c0,0.2-0.2,0.4-0.3,0.5c-0.2,0.3-0.6,0.4-0.7,0.7c0,0-0.2,0-0.2,0c0-0.7,0.1-1.4,0.1-2c-1.7,1-3.3,2-4.9,3
		c0,0,0,0.1,0.1,0.1c-0.3,0.2-0.3,0.2-0.4,0.1c-4.9,3-9.8,6-14.9,8.7c-0.1,0-0.2,0.1-0.3,0.1c0,0.1-0.2,0.1-0.4,0.2
		c-1.6,0.7-3,1.2-4.6,0.5c-1.6-0.7-2.6-2.4-2.9-4.6c-0.1,0.1-0.1,0.2-0.2,0.2c-0.2-0.1-0.2,0,0-0.6c0.1,0,0.1,0,0.2,0.1
		c-0.2-2.3,0.4-5.1,1.8-7.6c0,0,1,0.2,1.5,2.4c0.4-1.8,3.4-7.2,3.9-8.1c0,0,0,0-0.1,0c0-0.1,0-0.1,0-0.2c-0.8,0-5.3,0.1-9.6,2.8
		c1.3,0.3,2,0.6,2.3,1c-6.8,7.5,1.1,18.1-2.5,23.8c3.8-0.3,7.2,3,11.2,5.7c0.6-0.3,1-0.8,1.5-1.3c0.5,0.3,0.5,0.8,0.1,1
		c-0.4,0.2-0.7,0.4-0.9,0.7c0.2,0.2,0.5,0.3,0.7,0.4c0.2-0.1,0.6,0.1,0.6-0.3c0.3,0.3,0.5,0.6,0.7,0.9c-0.1,0.1-0.1,0.1-0.2,0.1
		c2,1.1,4.1,1.8,6.5,1.9c0-0.2-0.1-0.3-0.2-0.5c0.4,0,0.5,0,0.2,0.5c0.8,0,1.7-0.1,2.6-0.3c0.4,0.6,0.2,1.6-0.1,2.5
		c4.7-3,6.5-8.1,6.5-8.1S49.4,82.9,48.2,83L48.2,83z M55.7,59.3c0,0.4,0,0.3-0.1,0.3c0-0.1,0-0.2,0-0.3
		C55.6,59.3,55.7,59.3,55.7,59.3L55.7,59.3z M57.8,59.7c0.1-0.1,0.1-0.2,0.2-0.5C58.1,59.5,58.1,59.7,57.8,59.7z M64.7,91.7
		c0-0.2,0-0.3,0-0.4c0.6,0,0.5,0,0.5,0.2C65.1,91.6,64.9,91.7,64.7,91.7L64.7,91.7z M65.7,92.9c-0.8-0.6-0.6-0.4-0.7-0.6
		c0.5,0.2,0.2,0.2,0.8,0.1C65.8,92.6,65.7,92.7,65.7,92.9z M70,90L70,90C70,90.1,70,90.1,70,90c0,0-0.1,0.2-0.2,0.7
		c-0.1,0-0.3,0-0.4-0.1C69.4,90.2,69.4,90.1,70,90C70,90.1,70,90.1,70,90L70,90C70,90.1,70,90.1,70,90c0.1-0.6,0.1-0.5,0.2-0.5
		C70.5,90,70.5,89.8,70,90L70,90z M84.5,69.7c0.2-0.3,0.2-0.5,0.3-0.7C86,69.6,86,69.5,84.5,69.7z M86.3,79.1
		c0.3-0.3,0.7,0.2,0.9,0.4C86.4,80.3,86,79.3,86.3,79.1z M84.1,84.7C83.8,84.3,84,84,84,83.5C84.5,83.9,84.3,84.3,84.1,84.7z
		 M83.8,82c0.4,0.5,0.4,0.5,0.1,0.9C83.2,82.6,84.1,82.3,83.8,82z M83,82.7c0,0.3,0.1,0.3-0.1,0.3C82.9,82.7,82.9,82.7,83,82.7z
		 M82.2,86.1c-0.2,0.4-0.3,0.5-0.7,0.2C81.8,86.2,81.9,86.2,82.2,86.1z M82.4,82.9c-0.4-0.1-0.3-0.4-0.3-0.7
		C82.5,82.3,82.5,82.6,82.4,82.9z M80.4,91c-0.3,0-0.6-0.1-0.8-0.3C80.4,90.4,80.4,91,80.4,91z M76.3,86.8c0.2-0.2,0.3-0.2,0.5-0.3
		c0.1,0.1,0.1,0.1,0.1,0.1C76.8,86.9,76.6,86.9,76.3,86.8z M76.8,87.6c-0.4,0-0.3,0.1-0.3-0.1C76.9,87.4,76.8,87.4,76.8,87.6z
		 M76.1,89.5l0.2-1.1c0.2,0.3,0.4,0.5,0.6,0.8c-0.4,0.4-0.7,0.6-0.6,1.1c0.1,0.3-0.1,0.4-0.3,0.5c-0.1-0.4-0.3-0.8-0.4-1.2
		C75.8,89.6,76,89.6,76.1,89.5L76.1,89.5z M76.9,92.4c-0.3-0.3-0.5-0.6-0.8-0.9c0.5-0.1,0.3-0.9,1.1-0.8c0,0.2,0,0.4-0.1,0.5
		C76.6,91.8,77.6,92.1,76.9,92.4z M77.6,86.8c0.5,0.5,1.2-0.1,1.6,0.6C78.3,88,77.7,87.7,77.6,86.8z M78.1,90.5
		c-0.2-0.5-0.1-0.9,0.4-1.3C78.4,89.8,78.3,90.2,78.1,90.5z M78.3,88.3c0.3-0.2,0.5-0.2,0.7,0C78.7,88.5,78.5,88.5,78.3,88.3z
		 M78.9,89.6c0.4-0.1,0.3-0.1,0.4,0C78.9,89.8,79,89.8,78.9,89.6z M79.5,88.6c0.1,0.1,0.1,0.2,0.1,0.3c-0.2,0.3-0.4,0.1-0.8,0
		C79.1,88.6,79.2,88.4,79.5,88.6L79.5,88.6z M79.6,86.1c-0.2,0.2-0.3,0.4-0.5,0.7c-0.6-0.1-1.1-0.2-1.6-0.7
		C79.3,85.6,78.9,85.6,79.6,86.1z M78.8,84.1c0.1,0.4,0.2,0.3-0.5,0.5C78.7,84,78.7,84.1,78.8,84.1z M78.6,85.2
		c-0.5,0.5-1,0.4-1.6-0.2c0.2-0.3,0.7,0,0.8-0.3C78.1,84.9,78.3,85,78.6,85.2z M76.2,81.5c0-0.1,0.3-0.1,0.3,0
		c0.5,0.4-0.1,0.7,0.7,1.1c0.2,0.1,0.3,0.3,0.4,0.4c0.2,0,0.3-0.1,0.6-0.2c0.1,0.2,0.3,0.4,0.2,0.6c-0.1,0.3-0.3,0.2-0.5,0.1
		c-0.2,0.9-0.2,0.8-0.6-0.1c-0.1,0.2-0.2,0.3-0.3,0.5c-0.1-0.2-0.4-0.3-0.3-0.4c0.1-0.3-0.2-0.6,0.1-0.8
		C76.1,82,75.9,81.8,76.2,81.5z M76.3,82.6c-0.1,0.2,0.1,0.2-0.6,0C76.2,82.4,76,82.4,76.3,82.6z M74.4,91.5
		c0.4-0.9,0.6-0.9,1.3-0.2c-0.3,0.6-0.3,0.4,0,0.8c-0.2,0.1-0.5,0.2-0.7,0.3c-0.2,0.1-0.6,0.1-0.6-0.1c-0.1-0.5-0.3-0.5-0.7-0.4
		c-0.1,0-0.2-0.1-0.3-0.1C73.8,91.3,74.1,91.4,74.4,91.5L74.4,91.5z M75.7,81c-0.2,0.2-0.4,0.3-0.6-0.1L75.7,81z M75.4,80.6
		c-0.4,0.1-0.7,0-0.9-0.5C74.8,80.3,75.1,80.4,75.4,80.6z M72.5,92.2c-0.1,0.2-0.6,0-1.1-0.1C72,91.4,72.7,92,72.5,92.2z M74.2,80.7
		c-0.4,0.2-0.7,0.2-1-0.1C73.7,80.3,73.9,80.3,74.2,80.7z M71.1,78.6c0,0.1,0,0.2,0,0.4c-0.1,0-0.1,0-0.2,0c0-0.1,0-0.2,0.1-0.3
		L71.1,78.6z M71.3,80.7c-0.4,0.3-0.5,0.3-1-0.4c-0.2-0.3-0.2-0.5,0.4-0.8C70.9,79.9,71.1,80.3,71.3,80.7z M70.9,78.3
		c-0.3,0-0.6,0.2-0.8-0.2C70.4,78,70.7,77.9,70.9,78.3z M69.4,77.8c0.2,0.2,0.4,0.4,0.6,0.6c-0.5,0.2-0.9,0.3-1.4-0.1
		C68.8,78.2,69.1,78,69.4,77.8L69.4,77.8z M66.8,74.5c-0.2-0.2-0.2-0.1,0.1-0.4C67.1,74.3,67.1,74.2,66.8,74.5z M68.8,72.3
		c0.2,0.4-0.3,0.3-0.4,0.6c0.2,0.1,0.3,0.1,0.5,0.2c-0.7,0.8-1,0.9-1.8,0.5c0.1-0.6,0.2-0.7,0.8-0.7c0.1-0.2,0.2-0.4-0.1-0.6
		c-0.1-0.1-0.1-0.4-0.2-0.3C68,72.2,68.3,72.6,68.8,72.3L68.8,72.3z M67.4,70c0.1,0.2,0.2,0.3,0.2,0.3c0,0.1-0.2,0.2-0.2,0.2
		c0,0-0.2-0.2-0.2-0.2C67.2,70.2,67.3,70.1,67.4,70L67.4,70z M67.6,72C67.6,72,67.6,72,67.6,72C67.6,72,67.6,72,67.6,72
		c-0.1,0-0.6,0.2-0.9-0.4C67.1,71.6,67.5,71.5,67.6,72z M66.8,69.5c0.1,0.1,0.1,0.4,0.2,0.6c-0.3,0.1-0.5,0.2-0.8,0.2
		c-0.1-0.2-0.2-0.4-0.3-0.6C66.2,69.6,66.4,69.2,66.8,69.5z M65.3,69.7c0.2,0.3,0.1,0.3,0,0.3c0-0.1-0.1-0.2-0.1-0.3
		C65.2,69.8,65.3,69.7,65.3,69.7z M64.8,70.9c0,0,0.1,0.1,0,0.2c0,0-0.1,0.1-0.2,0.1c0-0.1-0.1-0.1-0.1-0.2
		C64.7,70.9,64.7,70.9,64.8,70.9L64.8,70.9z M59.2,61c0-0.4,0.2-0.5,0.6-0.6C59.6,60.6,59.4,60.8,59.2,61z M62.9,64.9
		c-0.3,0.1-0.2,0.1-0.4-0.1C62.8,64.7,62.7,64.7,62.9,64.9z M60.6,62.3c0,0,0.1,0.1,0.1,0.1c-0.1,0.1-0.2,0.2-0.3,0.4
		C60.2,62.5,60.4,62.4,60.6,62.3z M60.7,58.5c0.1,0.3,0.2,0.6,0.3,0.9c-0.1,0-0.2,0.1-0.2,0.1c-0.2-0.4-0.7-0.4-1-0.5
		c0,0-0.1-0.1-0.1-0.1C59.8,58.2,60.4,58.7,60.7,58.5L60.7,58.5z M85.9,50.4c-0.5-0.3-0.5-0.2-0.3-0.4
		C86.1,50.3,86.1,50.2,85.9,50.4z M86.1,48.3c0,0.4,0,0.2-0.1,0.4C85.8,48.5,85.7,48.5,86.1,48.3z M86.6,39.7
		c-0.6-0.1-0.5-0.1-0.5-0.2C86.7,39.6,86.6,39.6,86.6,39.7z M90,40.2c0.5-0.3,0.8-0.6,1,0.4C90.7,40.5,90.5,40.4,90,40.2z
		 M87.5,34.9c1.3-0.8,3-0.4,3.8,0.9c0.8,1.3,0.4,3-0.9,3.8s-3,0.4-3.8-0.9C85.8,37.4,86.2,35.7,87.5,34.9z M82.2,42.8
		c0.5,0,0.4,0,0.4,0.2C82.1,42.9,82.2,42.9,82.2,42.8z M83.1,38.5c0.1,0,0.3,0.1,0.3,0.2c0.1,0.4,0.4,0.8,0.1,1.3
		c-0.6,0.2-0.7,0.1-0.6-0.5C82.8,39.2,82.7,38.6,83.1,38.5z M81.6,39.9c0.1,0.1,0.1,0.1,0.1,0.1c0,0.2,0.1,0.4-0.2,0.5
		c-0.1,0-0.2-0.1-0.2-0.1C81.4,40.2,81.5,40.1,81.6,39.9L81.6,39.9z M82,40.7c0,0,0,0.1,0,0.1c-1,0-0.8,0.1-0.8-0.1
		C81.4,40.5,81.7,40.7,82,40.7L82,40.7z M68.4,51.3c0.3,0.4,0,0.5-0.1,0.7C68.2,51.9,68.2,52,68.4,51.3z M67.6,49.8
		c0.3,0,0.2-0.2,0.3,0.7C67.4,50.3,67.4,50,67.6,49.8z M67.6,50.8c-0.3,0.3-0.4,0.4-0.7,0C67.1,50.8,67.3,50.8,67.6,50.8z
		 M65.7,50.6c0.4-0.1,0.7,0.1,1,0.5c-0.2,0.1-0.3,0.3-0.6,0.5c-0.1-0.6,0-0.5-0.7-0.6C65.6,50.8,65.7,50.6,65.7,50.6z M64.9,53.5
		c-0.3,0-0.4-0.1-0.3-0.4C64.7,53.3,64.8,53.4,64.9,53.5z M63.8,54c0.5,0.2,0.4,0.1,0.4,0.3C63.7,54.1,63.7,54.2,63.8,54z
		 M62.3,54.8c-0.5,0-0.8,0-1.2,0c0.2-0.4,0.3-0.6,0.5-0.9C61.8,54.2,62,54.5,62.3,54.8z M60.4,53.1c0.4,0.1,0.9,0.2,1.2,0.6
		c-0.3,0.2-0.4,0.2-0.7,0c-0.3-0.2-0.5-0.1-0.6,0.2c0,0.3-0.1,0.3-0.4,0.2C60,53.8,59.8,54.1,60.4,53.1L60.4,53.1z M59.4,53.7
		c0.1,0.3,0,0.5-0.2,0.7C59.2,54.2,59.3,53.9,59.4,53.7z M48.2,32.2c-0.2,0.1-0.3,0.1-0.5,0.2C47.8,32.1,48,32.1,48.2,32.2z
		 M36.4,22.1c0.3,0,0.3,0.2,0.1,0.5c-0.1-0.2-0.2-0.3-0.3-0.4C36.3,22.1,36.4,22.1,36.4,22.1L36.4,22.1z M39.8,27.8
		c-1.3,0.8-3,0.4-3.8-0.9s-0.4-3,0.9-3.9c1.3-0.8,3-0.4,3.8,0.9S41.1,27,39.8,27.8z M44.1,36.2c-0.3-0.2-0.1-0.7,0.3-0.6
		c0.1,0.1,0.1,0,0,0.5C44.3,36.2,44.1,36.3,44.1,36.2z M44.8,33.9c0.7,0.2,0.7,0.4,0,1.1C44.5,34.6,44.7,34.3,44.8,33.9z M44.5,38.9
		c-0.2-0.3-0.2-0.5,0-0.8C44.7,38.4,44.7,38.6,44.5,38.9z M44.6,39.1c0.2-0.3,0.1-0.3,0.6-0.3c0,0.2,0,0.4,0,0.7
		C44.9,39.3,44.8,39.2,44.6,39.1z M48.1,38c-0.2,0.4-0.3,0.2-1.2-0.3C47.3,37.2,47.5,37.2,48.1,38z M47.3,36.6
		c-0.5,0.4-0.6,0.4-1-0.1C46.7,36.4,47,36.3,47.3,36.6z M46,38.1c0.3-0.2,0.4-0.2,0.6,0c0.2,0,0.4,0,0.6,0c0,0.3,0,0.5,0,0.8
		c-0.7-0.4-0.8-0.5-0.8-0.6C46.4,38.4,46.3,38.3,46,38.1z M48.8,40c-0.2,0.1-0.4,0.2-0.5,0.3c-0.1,0.1-0.1,0.5-0.4,0.4c0,0,0,0,0,0
		c0.1,0.1,0.1,0.2,0.2,0.4c-0.5,0.1-1-0.2-1.3,0.5c-0.3-0.1-0.5-0.2-0.7-0.2c0-0.2-0.2-0.6-0.1-0.6c0.4-0.2,0.3-0.9,1-0.9
		c-0.1,0.2-0.1,0.4-0.2,0.6c0,0,1.3,0.4,1.2,0.2l0,0l0,0c0,0-0.1-0.1-0.3-0.4c0.1-0.1,0.2-0.3,0.4-0.6c0.3-0.2,1,0,1.1-0.8
		c0.4,0.2,0.3,0.5,0.3,0.7C49.1,39.7,49,39.9,48.8,40L48.8,40z M48.5,43.9c0.1-0.3,0.3-0.3,0.6,0C48.8,43.9,48.7,43.9,48.5,43.9z
		 M47.8,61.6c0.1,0.2,0.1,0.2-0.1,0.3C47.6,61.7,47.6,61.8,47.8,61.6z M45.7,66.5c0,0-0.1,0.2-0.1,0.2c-0.5-0.1-0.1-0.3-0.9,0.4
		c-0.1-0.3-0.1-0.6-0.2-0.8C45.5,66.3,45.5,66.2,45.7,66.5L45.7,66.5z M44.8,63.9c-0.4,0-0.3,0-0.3-0.2
		C44.9,63.8,44.8,63.8,44.8,63.9z M40.3,69c0.2,0,0.2-0.2,0.2,0.8C40.2,69.4,40.1,69.2,40.3,69z M33.7,74.6c0.3-0.1,0.6-0.1,1-0.2
		C34.2,74.9,34.2,74.9,33.7,74.6z M34.2,73.5c0.8,0.2,0.5,0.7,0.3,0.8C34.3,74.3,34.3,74,34.2,73.5L34.2,73.5L34.2,73.5z M34.2,73.5
		c0.2-0.1-0.1,0.2-0.3,0.4c0-0.1-0.1-0.1-0.1-0.2C33.8,73.4,34,73.5,34.2,73.5z M21.7,60.2c0.1-0.3,0.1-0.5,0.5-0.7
		C22.2,60,22.1,60.2,21.7,60.2z M23,57.6c0.1,0,0.2,0,0.3,0c0,0,0,0.1,0,0.1C22.9,57.8,23,57.8,23,57.6L23,57.6z M23.8,55.1
		c0.2,0,0.5,0.1,0.3,0.5C24,55.3,23.9,55.2,23.8,55.1z M21.5,66.9c-0.1-0.1-0.1-0.2-0.1-0.2c0-0.1,0.1-0.1,0.2-0.1
		c0.1,0,0.1,0.1,0.1,0.2C21.7,66.8,21.6,66.8,21.5,66.9L21.5,66.9z M22.7,67.2c-0.2-0.4-0.2-0.3,0-0.5
		C22.8,66.7,22.8,66.6,22.7,67.2z M23.7,70.3c0.2-0.5,0.1-0.4,0.3-0.3C23.9,70.4,23.9,70.4,23.7,70.3z M28.9,71.5
		c-0.1-0.2-0.3-0.3-0.4-0.5C28.9,70.6,29.6,71.2,28.9,71.5z M30,70.6c0.2-0.4,0.4-0.5,0.7-0.1C30.5,70.6,30.3,70.6,30,70.6z
		 M33.2,70.8c-0.1-0.1-0.1,0,0.1-0.3C33.4,70.6,33.4,70.5,33.2,70.8z M33.5,69.7c-0.1-0.1-0.2-0.2-0.2-0.3c0-0.1,0.2-0.2,0.2-0.2
		s0.2,0.1,0.2,0.2C33.7,69.5,33.7,69.5,33.5,69.7z M34.7,85.3c0.3-0.1,0.2-0.1,0.4,0.1C34.8,85.4,34.9,85.5,34.7,85.3z M41.5,87.7
		c-1.1-0.4-0.8-0.2-0.4-0.7c0,0,0.3-0.4,0.3-0.4C41.9,86.7,41.7,87.1,41.5,87.7L41.5,87.7z M44.9,83.8l-0.1,0.5
		C44.6,84.1,44.8,84,44.9,83.8z M42.4,88c-0.3-0.1-0.5-0.3-0.6-0.6c0.1,0,0.3-0.1,0.5-0.1c0.2,0.5,0.3,0.6,0.3,0.6
		c0.1,0,0.1,0.1,0.2,0.5C42.5,88.4,42.5,88.2,42.4,88z M43.3,88.3c0.1-0.7,0.3-0.5,0.7-0.4c0,0.1,0,0.1,0,0.2
		C43.8,88.2,43.6,88.5,43.3,88.3z M46.7,83.2c0.2,0.1,0.3,0.2,0.5,0.3C47,83.5,46.9,83.4,46.7,83.2z M49.1,83.5c0,0,0.1,0.1,0.2,0.2
		c-0.1,0.1-0.2,0.2-0.3,0.3C48.7,83.6,48.9,83.5,49.1,83.5L49.1,83.5z"/>
</g>
</svg>
