<?xml version="1.0" encoding="utf-8"?>
<!-- Generator: Adobe Illustrator 27.3.1, SVG Export Plug-In . SVG Version: 6.00 Build 0)  -->
<svg version="1.1" id="レイヤー_1" xmlns="http://www.w3.org/2000/svg" xmlns:xlink="http://www.w3.org/1999/xlink" x="0px"
	 y="0px" viewBox="0 0 166.9 128.3" style="enable-background:new 0 0 166.9 128.3;" xml:space="preserve">
<style type="text/css">
	.st0{fill:#FFFFFF;}
	.st1{opacity:0.2;}
</style>
<g class="st1">
	<path class="st0" d="M26.8,7C26.9,7,26.9,7,26.8,7C26.9,7,26.9,7,26.8,7C26.9,7,26.8,7,26.8,7z"/>
	<path class="st0" d="M64,9.9c1.4,0.8,2.7,1.7,4,2.7c0,0,0,0,0,0c-1.1-1-2.3-1.9-3.5-2.8C64.4,9.9,64.2,9.9,64,9.9z"/>
	<polygon class="st0" points="68,12.7 68,12.7 68,12.7 	"/>
	<path class="st0" d="M68,12.7c0.1,0.1,0.2,0.2,0.3,0.2C68.2,12.8,68.2,12.8,68,12.7C68,12.7,68,12.7,68,12.7z"/>
	<path class="st0" d="M27,6.9C27,6.9,27,6.9,27,6.9c1.1,1,2.4-0.5,3.6-0.6c-0.2-0.3-0.4-0.4,0-0.5C30.8,5.9,30.9,6,31,6.1
		c0.6-0.2,1.2-0.4,1.9-0.6c-0.2,0-0.3,0-0.5,0c7.1-1.8,14.8-1.8,21.8,0.2c0.2-0.1,0.3-0.1,0.5-0.2C54.8,5.7,55,5.8,55.1,6
		c0.1,0,0.3,0,0.5,0c-0.2,0.1-0.3,0.1-0.5,0c0,0-0.1,0-0.2,0c3.1,0.9,6.1,2.2,8.9,3.9l0.5-0.1C54,2.8,39.7,1.3,27,6.9z M54.3,5.1
		L54,5.6l-0.5-0.3L54.3,5.1z M52.1,4.8l0.4-0.1L52,5L52.1,4.8z"/>
	<path class="st0" d="M24.3,8.7c-0.5,0.4-1,0.7-1.5,1.1c1-0.6,2-1.1,3-1.6h0c-0.1-0.1-0.2-0.2-0.5-0.2c-0.3,0.2-0.6,0.4-0.8,0.6
		c0.1,0,0.3,0,0.4,0.1C24.7,8.8,24.5,8.8,24.3,8.7z"/>
	<path class="st0" d="M26,7.5c-0.2,0.1-0.5,0.3-0.7,0.5C26,8,26.1,7.8,26,7.5z"/>
	<path class="st0" d="M75,65.7c-2,2.4-4.2,4.6-6.8,6.4l0.2,0.3c0.1-0.1,0.1-0.2,0.4,0c2.4-1.9,4.5-4.1,6.2-6.6
		C75.1,65.8,75.1,65.7,75,65.7L75,65.7z"/>
	<path class="st0" d="M58.7,77.5c-0.4,0.2-0.7,0.3-1.1,0.5c0.4-0.1,0.8-0.2,1.1-0.3C58.7,77.6,58.7,77.5,58.7,77.5z"/>
	<path class="st0" d="M75.2,65.4L75.2,65.4c0,0.1,0,0.2,0,0.2c0.2-0.3,0.4-0.6,0.6-0.9c0,0,0,0-0.1,0C75.6,65,75.4,65.2,75.2,65.4z"
		/>
	<path class="st0" d="M61.1,76.2c0.4,0.1,0.9-0.2,0.8-0.4l0,0C61.6,75.9,61.3,76,61.1,76.2z"/>
	<path class="st0" d="M75.9,64.6C75.9,64.6,75.9,64.6,75.9,64.6c0.1-0.1,0.2-0.2,0.3-0.4C76.1,64.3,76,64.5,75.9,64.6z"/>
	<path class="st0" d="M68,72.3C68,72.2,68,72.2,68,72.3C68.1,72.2,68.1,72.2,68,72.3L68,72.3z"/>
	<path class="st0" d="M64.9,74.5c-1.2,0.1-1,0.6-0.9,1.1c1.6-0.8,3.1-1.8,4.4-2.8l-0.3-0.6c0,0,0,0,0,0c0.5,0.7-0.4,0.6-0.7,0.5
		c-0.4,0.3-0.9,0.6-1.3,0.8c0.1,0,0.3,0,0.5,0c-0.1,0-0.3,0-0.6,0c-0.4,0.3-0.9,0.5-1.3,0.8C64.8,74.4,64.8,74.5,64.9,74.5
		c0.1,0,0.1,0,0.2,0L64.9,74.5C64.9,74.5,64.9,74.5,64.9,74.5z"/>
	<path class="st0" d="M2.3,52.8c-1.5-7.9-0.5-15.9,2.4-23.2l-0.6-0.2c0.1-0.2,0.4-0.2,0.7-0.1c1.3-3.3,3.1-6.5,5.1-9.4l-0.2-0.3
		l0.4,0c4-5.6,9.2-10.3,15.2-13.9C25.2,5.5,25,5.3,24.8,5l0.6,0.2c0,0.1,0.1,0.3,0.2,0.4c1.9-1.1,4-2.1,6-2.7
		c0.1-0.2-0.1-0.2-0.8-0.2c0.2-0.2-0.8-0.7,0.4-0.4c-1.1,0.2,0.7,0.3,0.9,0.5c2.3-0.7,4.7-1.2,7.2-1.4L39,0.9h0.7l0,0.3
		c3.5-0.3,7,0,10.6,0.6c0.1-0.3-0.2-0.7,0.9-0.7c-1-0.1-0.8-0.3-0.7-0.6C46.9,0,43.3-0.2,39.7,0.1l0,0c-0.2,0-0.3,0-0.5,0
		c0.3,0.2,0.6,0.5,0.2,0.6c-2-1-4.2,0.1-6.4,0.4c-0.1,0.4-0.5,0.8,0.8,1c-1.1,0.4-1.8-0.1-2.7-0.4c-0.4,0.1-0.8,0.3-1.3,0.4
		c0.3,0,0.5,0.1,0.3,0.2c-0.1,0-0.7-0.1-0.7,0C30,2.6,29,2.8,28.6,2.9c-0.4-0.1-0.4-0.1-0.3-0.2c-4.6,1.8-9,4.6-12.7,7.7l1.1,1.2
		c-0.4,0.2-1.2-0.9-1.2-1.1c-1.1,1-2.2,2-3.2,3c0.2,0,0.4,0,0.8,0l-0.7,0C12,13.6,12.3,14,11.8,14C9.2,16.9,7,20,5.2,23.3l0.1,0.2
		H5.1c-2.4,4.5-4,9.3-4.7,14.3c0.1,0,0.1,0,0.1,0l-0.1,0c0,0.4-0.1,0.8-0.1,1.1C0.5,39,0.7,39.1,1,39.3l-0.6,0.2
		c0,0-0.1-0.1-0.2-0.1c-0.3,3.3-0.3,6.7,0.1,10.1c0.3,0.3,0.7,0.7,0.1,0.7c0,0.3,0.1,0.6,0.1,0.9c0.1,0.3,0.9,0.7,1.2,0.8
		c-1.5,0.2-0.4,0.8-0.5,1.2C2.3,53.2,2.1,53,2.3,52.8z M18.1,9.5c0.5,0.1,0.9,0.9-0.4,0.9C18.1,10.1,17.9,10,18.1,9.5z M14.6,12.5
		L14.4,12C14.5,12.3,15,12.4,14.6,12.5z M10.7,18.3l-0.4,0.3l0,0l-0.1-0.2L10.7,18.3z"/>
	<path class="st0" d="M85.8,32c-0.1,0-0.2-0.1-0.3-0.1c0,0.1,0,0.2,0.1,0.3C85.8,32.1,85.9,32.1,85.8,32z"/>
	<path class="st0" d="M86.5,38.7L86.5,38.7c0,0.1,0,0.2,0,0.3c0.1,0.1,0.1,0.1,0,0.2c0,0.4,0,0.7,0,1.1c0.1,0,0.3,0,0.4,0
		c0-0.5,0-1-0.1-1.5L86.5,38.7L86.5,38.7z"/>
	<path class="st0" d="M87,41.4c-0.1,0-0.3-0.1-0.4-0.1c0,5-0.9,9.9-2.5,14.5l0.8-0.3c0,0,0.1,0,0.1,0c0.3-0.9,0.5-1.8,0.7-2.7h-0.1
		l0.1,0C86.6,49.1,87,45.3,87,41.4z"/>
	<path class="st0" d="M86.2,35.7c0.1,0,0.3,0.1,0.5,0.1c0-0.1,0-0.2,0-0.3l-0.5-0.1C86.2,35.5,86.2,35.6,86.2,35.7z"/>
	<path class="st0" d="M2.3,55C2.3,55,2.3,55,2.3,55L2.3,55C2.3,55.1,2.3,55,2.3,55c-0.3,0-0.6,0-0.9,0c0.1,0.3,0.2,0.7,0.3,1H3
		c-0.2-0.7-0.4-1.5-0.5-2.2C2.2,54.1,2.4,54.6,2.3,55z"/>
	<path class="st0" d="M50.7,2c0.5,0.1,1,0.2,1.4,0.3c0,0-0.1-0.1-0.1-0.1h0c-0.1,0-0.1-0.1,0.1-0.2c-0.1,0-0.1,0.1-0.1,0.2
		c0.2,0.1,0.8,0.1,0.6,0.2c0.8,0.2,1.6,0.4,2.4,0.7c0-0.1-0.7-0.7-1.2-0.6c0.2-0.1,0.9,0,0.7-0.2l-0.7-0.1l0.9-0.3
		c0.2-0.4-1.6-0.5-1.7-0.9c-0.6-0.1-1.1-0.2-1.7-0.3C51.8,1.3,51,1.5,50.7,2z"/>
	<path class="st0" d="M62.3,81.8c-1.1-0.1-0.9-1-0.5-0.9l0,0l0.4,0.1c-0.1-0.1-0.2-0.3-0.3-0.4c-6.8,3.1-13.9,4.3-20.8,3.9l0.1,0
		l0,0.3l-0.5-0.3C27.5,83.5,15,76.8,7.6,66.1c-0.2-0.1-0.4-0.2-0.1-0.2c-0.6-0.8-1.1-1.7-1.6-2.5c-0.3,0-0.7,0-1.4-0.2
		c0,0,0,0.1,0,0.1c0.1,0.2,0.2,0.4,0.3,0.6c0,0,0.1,0,0.1,0c0,0,0,0-0.1,0.1c9.8,16.5,32.5,25.4,51.5,20.2c0,0-0.5-0.6-0.5-0.6
		c0.2-0.2,0.7-0.4,1.1-0.1l0.3-0.3c1,0.7-1.3,0.5-1,1c0.8-0.1,1.7-0.5,2.5-0.7l-0.1,0c-0.9-0.5,0.2-0.7,0.8-1
		c0.1,0.2-1.1,0.4,0.1,0.7c1.1-0.4,2.2-0.8,3.2-1.3C62.7,81.8,62.5,81.7,62.3,81.8z"/>
	<path class="st0" d="M86.2,35.7c0,0.3,0.1,0.5,0.1,0.8l0.4,0c0-0.2,0-0.4-0.1-0.7C86.5,35.8,86.4,35.8,86.2,35.7L86.2,35.7z"/>
	<path class="st0" d="M84.1,55.9c-0.7,2-1.5,3.8-2.5,5.7c0.2,0.3,0.4,0.5,0.7,0.9c0-0.1,0.1-0.2,0.2-0.3c0-0.2-0.4-0.8-0.1-0.5
		c0,0.2,0.1,0.3,0.1,0.5c1-2,1.8-4.1,2.4-6.2C84.7,56,84.3,56,84.1,55.9z"/>
	<path class="st0" d="M70.8,11.2c0,0-0.1,0-0.1,0c0,0,0,0,0,0c1,0,0.2-0.5,0.6-0.7c0.3,0.1,1.5,0.5,1.8,0.2
		c-4.5-3.7-9.6-6.5-15.1-8.3c-0.8,0.2-1.1,0.4-0.8,1l0,0c-1.1-0.3-0.4-0.5-2.1-0.7l0,0.4c5.5,1.7,10.8,4.5,15.6,8.2L70.8,11.2z
		 M61.9,5c-0.6-0.1-0.8-0.3-0.7-0.4c-0.1-0.1-0.1-0.1,0.2-0.2c-0.1,0.1-0.2,0.1-0.2,0.2C61.6,4.8,63.1,4.9,61.9,5z"/>
	<path class="st0" d="M71,74.9c-1.5,1.5-3.8,2.7-5.7,4c-0.1,0.4-0.4,0.9-0.5,1.2c0.5-0.1,0.7,0.1,1.1,0.1c0.6-0.3,1.1-0.7,1.7-1
		c-0.1-0.1-0.2-0.2-0.4-0.3c0.1-0.2,0.3,0,0.7,0.1c0.1-0.1,0.2-0.1,0.3-0.2c-0.2-0.3-0.3-0.5-0.7-0.9l1,0.2l-0.2-0.2
		c0.2,0.2,0.4,0.3,0.6,0.3c1.1-0.8,2.2-1.6,3.2-2.5l-1.1-0.9C71.1,74.8,71.1,74.9,71,74.9z"/>
	<polygon class="st0" points="71.2,74.8 71.2,74.8 71.2,74.8 	"/>
	<path class="st0" d="M62.6,80.8c0.5,0.1,0.9,0.4,1.1,0.6c0.7-0.4,1.5-0.8,2.2-1.2C63.8,79.9,64.7,80.7,62.6,80.8z"/>
	<path class="st0" d="M73,75.1c0.1-0.1,0.2-0.2,0.3-0.3C73.1,74.9,73,74.9,73,75.1z"/>
	<path class="st0" d="M85.8,33.4C85.8,33.4,85.8,33.4,85.8,33.4C85.8,33.4,85.8,33.4,85.8,33.4L85.8,33.4z"/>
	<path class="st0" d="M85.8,33.5c0,0,0.5,0.3,0.5,0.2c0-0.2-0.1-0.3-0.1-0.5c-0.1,0.1-0.2,0.2-0.5,0.2
		C85.8,33.4,85.8,33.4,85.8,33.5z"/>
	<path class="st0" d="M80.1,64.2L80.1,64.2c-0.2,0.3-0.4,0.6-0.6,0.9c0.4,0.4,0.8,0.8,0.7,1.1c-0.2-0.3-0.4-0.7-0.7-1.1
		c-0.1,0.1-0.1,0.2-0.2,0.3c0.1,0,0.1,0.1,0.2,0.1c0.5,1-0.1,0.3-0.4,0.2c0,0-0.1,0.1-0.1,0.1c0,0.1,0,0.1,0,0.2c0,0-0.1,0-0.1-0.1
		c-0.1,0.2-0.2,0.4-0.4,0.5l0,0c0,0.1-0.1,0.2-0.2,0.2c-0.8,1.1-1.5,2.1-2.4,3.1c0.7,1.3,0.5-0.6,1.3,0.5c0,0,0.1-0.1,0.1-0.1
		c-0.2-0.2-0.6-0.6-0.1-0.6c0.1,0.1,0.2,0.2,0.4,0.3c0.2-0.2,0.3-0.4,0.5-0.6l-0.3-0.1c0-0.2,0.2-0.2,0.5-0.1
		c0.9-1.2,1.8-2.5,2.5-3.9h-0.2l0.2-0.1c0.1-0.2,0.3-0.5,0.4-0.7C81,64.6,80.5,64.4,80.1,64.2z"/>
	<path class="st0" d="M85.4,31.5l0.6-0.1c0,0,0,0,0-0.1l-0.5-0.1c0.1,0,0.3,0,0.4,0c0-0.1,0-0.2-0.1-0.3c-0.4-0.1-0.4-0.3-0.1-0.3
		c-0.6-2.5-1.2-5.1-2.4-7.5L83,23.2c-0.9-0.4-0.1-0.4,0.4-0.2c-0.2-0.3-0.3-0.7-0.5-1l-0.7,0.1L82,22.1l0.8-0.1
		c-1.5-2.6-3.3-4.9-5.3-7.1c-0.1,0-0.1,0-0.2,0.1l-0.8-0.3l-0.7,0.3c1.2,0,0.5,0.3,1.5,0.5c-0.3,0-0.7,0-0.7,0.2
		c0.8,0.2,0.7,0,1.1,0.1c-0.4,0.2-1.4,0.2-1.9-0.2c-0.1,0-0.1,0-0.2,0C80.2,19.8,84.1,25.2,85.4,31.5z"/>
	<path class="st0" d="M86.5,38.3L86.5,38.3c0.1,0,0.3,0,0.4,0c0-0.1,0-0.2,0-0.3c-0.1,0-0.2,0-0.4,0C86.5,38.1,86.5,38.2,86.5,38.3z
		"/>
	<path class="st0" d="M12.7,41.6L12.7,41.6c0,0,0.1,0,0.2-0.1c0-0.7,0-1.4,0-2.1C12.8,40.1,12.7,40.8,12.7,41.6z"/>
	<path class="st0" d="M12.3,43.1c-0.2,0.1-0.4,0.2-0.5,0.3C12.1,43.3,12.2,43.2,12.3,43.1z"/>
	<path class="st0" d="M73,16.7c0.5,0.7,0.9,1.3,1.5,2c-0.4-0.7-0.8-1.3-1.3-2L73,16.7z"/>
	<path class="st0" d="M76.4,63.8c0.1-0.1,0.1-0.2,0.2-0.2l0,0C76.5,63.7,76.4,63.8,76.4,63.8C76.4,63.8,76.4,63.8,76.4,63.8z"/>
	<path class="st0" d="M76.6,63.4C76.6,63.4,76.7,63.4,76.6,63.4c0.7-0.9,1.3-1.9,1.8-2.8c-0.1,0-0.2,0-0.3-0.1
		C77.7,61.5,77.2,62.5,76.6,63.4z"/>
	<path class="st0" d="M5,48.4l0.2,0.1l-0.2,0c0.2,1.2,0.4,2.4,0.6,3.6c0.1,0,0.1-0.1,0.2-0.1l0-0.4h0c0.1,0.2,0,0.3,0,0.4v0.1
		c0.5,0,0.8-0.2,1-0.4c-0.4-1.9-0.6-3.8-0.7-5.8c0.1-0.1,0.3-0.1,0.5-0.2c-0.6-0.2-0.5-0.7-0.9-1c0.1,0,0.2,0,0.3,0
		C6,37.9,7.6,31.2,10.6,25c-0.2,0-0.4,0-0.6,0l-0.4-0.7c-3.4,6.5-5,13.9-4.7,21.1c-0.4,0.3-0.7,0.5-0.4,0.4C4.6,46.7,5,47.4,5,48.4z
		"/>
	<path class="st0" d="M9.2,60.9c1.4,2.4,3.5,4.3,4.9,6.7v0c0.3-0.1,0.7-0.3,0.9-0.4c-0.1-0.1-0.3-0.3-0.4-0.5c0,0-0.1,0-0.1,0.1
		c-0.7-0.1-0.9-0.8-1.4-1.1c0.1-0.1,0.4-0.2,0.7-0.2c-1-1.8-1.9-3.7-2.7-6.1c-0.1,0.3-0.5,0.6-1,0.9c0.6,1,1.2,2.1,1.7,3.1
		c-0.7-0.9-1.3-1.9-1.9-3C9.7,60.5,9.4,60.7,9.2,60.9z"/>
	<path class="st0" d="M76.3,63.9L76.3,63.9c-0.1,0.1-0.1,0.2-0.2,0.2C76.2,64.1,76.3,64,76.3,63.9z"/>
	<path class="st0" d="M78.7,60.2c0,0-0.3-0.1-0.3-0.1c-0.1,0.1-0.1,0.3-0.2,0.4l0.3,0.1C78.5,60.4,78.6,60.3,78.7,60.2z"/>
	<path class="st0" d="M80.8,28.5c0-0.1-0.1-0.2-0.1-0.2c-0.3,0.1-0.5,0.1-0.7,0.2C80.5,28.4,80.7,28.4,80.8,28.5z"/>
	<path class="st0" d="M81.3,30.1C81.3,30.1,81.3,30.1,81.3,30.1L81.3,30.1C81.3,30.1,81.3,30.1,81.3,30.1z"/>
	<path class="st0" d="M82.1,34.2c0.1,0,0.1,0,0.2,0.1c-0.1-0.4-0.2-0.8-0.3-1.2c0,0-0.1,0-0.2,0c0,0.4,0.1,0.8,0.1,1.2
		C81.9,34.2,82,34.2,82.1,34.2z"/>
	<path class="st0" d="M81.8,32.4c0,0.2,0,0.3,0.1,0.5l0,0c0,0,0.1,0,0.1,0C81.9,32.7,81.8,32.6,81.8,32.4
		C81.8,32.4,81.8,32.4,81.8,32.4z"/>
	<path class="st0" d="M75.4,22.5c0.5,0.2,0.9,0.3,1.4,0.3c-0.3,0-1.1-0.1-1.3,0.1c0,0.1,0.1,0.2,0.1,0.2l0.2,0c0,0-0.1,0-0.1,0
		c0.3,0.7,0.6,1.5,1,2.2c0.2-0.1,0.3-0.2-0.1-0.3c0.4,0.1,0.8,0.1,0.9,0.3l0.7-0.1c0.1,0.4-0.9,0.7-0.5,1.1c0.8,0,0.9,1.2,2,1
		l-0.5,0.1c1.2,0.3,0.4,0.5,1.4,0.8c-0.3-1.4-1.3-2.9-2.2-4.2c-0.2,0-0.4,0-0.5,0.1c-1.1,0.1,1.1,1.1-1,0.8c-0.2-0.5,0.2-1.2,1-1.5
		c-1.3-1.7-2.5-3.2-3.6-4.7c0.4,0.7,0.7,1.4,1,2.1c-0.8-1.3-1.7-2.5-2.6-3.6l0,0l-0.6-0.1C73.4,18.8,74.5,20.6,75.4,22.5z"/>
	<path class="st0" d="M82.5,39.2c0-0.3-0.1-0.6-0.1-0.9c0.2-0.1,0.3-0.2,0.4-0.2c0-0.6-0.1-1.1-0.1-1.7c-0.6,0-0.3,0,0-0.1
		c0-0.3-0.1-0.6-0.1-0.9c-0.2-0.1-0.4-0.2-0.5-0.3c0,0.4,0,0.9,0,1.3c-0.2-1.2-0.5-2.3-0.9-3.5c-0.3,0-0.7-0.1-1,0
		c1.6,0.5,0.5,1,1.2,1.5l-1.1,0.3l0,0c0.2,0.7,0.3,1.4,0.5,2.1c0.4,0.1,1.1,0.4,1.6,0.2c-0.5,0.1-1.2-0.1-1.6-0.1
		c0.1,0.7,0.3,1.4,0.4,2.1c-0.6,0.3-1.2,0.7-2,1.1c0.3,0,0.5-0.1,0.5-0.1c0.5,0.2,0.8,1-0.3,1c-0.2-0.3,0.5-0.6-0.4-0.8
		c-0.1,0-0.2,0.1-0.3,0.1c0.1,0,0.2,0.1,0.2,0.2l-0.3-0.1c-1,0.5-2.1,1.1-3.3,1.7c0.8,0.2,0.2,0.5,0.5,0.7c-0.6,0-0.7,0.3-1.3,0.2
		c0-0.1-0.2-0.2-0.4-0.3l0,0c-11.4,5.8-31.2,15.6-43.9,22c0.2-0.1,0.4-0.1,0.7-0.2l-0.3,0.2l1.5,0c-0.6,0-0.6,0.4-1.5,0.1
		c0.3,0.3,0.3,0.6,0.4,0.8c3.8-2,9.8-5,16-8.2c0-0.2,0.1-0.4,0.1-0.6c2.8-0.2,5.1-2.4,7.7-3.4c0,0,0,0,0,0c0.1,0,1.4-0.8,1.5-0.7
		c9.7-4.9,18.1-9,17.9-8.8c-0.2,2.6-0.8,5.1-1.5,7.5c0,0,0.1,0,0.1,0c-0.2,0.2-0.3,0.5-0.4,0.7c0,0,0.1,0.1,0.1,0.1
		c0.4,0,0.9,0.1,1.3,0.1c0-0.1,0.1-0.2,0.1-0.3c-0.3-0.2-0.4-0.5-0.1-0.5c-0.2,0.1-0.1,0.2,0.1,0.2c0.1-0.2,0.2-0.5,0.2-0.8
		c0,0,0,0-0.1-0.1c0,0,0,0,0.1,0c0.8-2.6,1.4-5.3,1.5-8.2c0.1-0.1,0.2-0.1,0.4-0.2c-0.1,0-0.2,0-0.2-0.1c0.1,0,0.2,0,0.3,0.1
		c2.3-1.1,4.1-2,5.2-2.5c0.5,4.9,0.2,9.7-1,14.1c0,0,0.1,0,0.1-0.1c0.1,0.6-0.1,0.7-0.3,0.7c-0.1,0.3-0.2,0.7-0.3,1l0,0.1l0,0
		c-0.3,1-0.6,1.9-1,2.8c0.5,0.1,0.5-0.2,0.6-0.3c2.7-5.8,3.9-12.3,3.2-18.9c0,0,0,0,0.1,0C82.7,39.5,83.6,39.1,82.5,39.2z"/>
	<path class="st0" d="M78.9,59.8c-0.1,0.1-0.3,0.2-0.2,0.4C78.7,60,78.8,59.9,78.9,59.8z"/>
	<path class="st0" d="M69.6,58.9c0.4,0.1,0.8,1.1-0.8,0.7l0.5-0.9c0,0-0.1,0-0.1,0c-1.8,3-4.1,5.6-6.8,7.8c0.2,0.4,0.5,0.8,0.1,1
		c-1.4-0.5,0.8,0.9-1.7,0.1c-3,2-6.2,3.6-9.7,4.4l0.7,0.1l0,0.2l-0.6-0.2c-0.2,0-0.4,0.1-0.5,0.1c0.5,0.3,1.1,0.4,1.2,0.7
		c8-1.6,14.3-7.3,18.7-14.1C70.2,58.8,69.9,58.8,69.6,58.9z M68.4,60.2l0.2-0.3l0.7,0.2L68.4,60.2z"/>
	<path class="st0" d="M9.5,24.2c0.5,0.2,1.3,0,1.5-0.2c-0.1,0-0.2,0-0.3,0c0,0,0.3,0.1,0.3,0c2.8-5.4,6.8-10.3,11.7-14.2
		C17,13.3,12.6,18.4,9.5,24.2z"/>
	<path class="st0" d="M40.8,12.2c3.4-0.1,6.9,0,10.2,0.9l0-0.1c2,0.7,4.1,1.3,6,2.5c0.1,0,0.3,0,0.4,0l-0.4,0
		c0.2,0.1,0.3,0.2,0.5,0.2c0.7-0.1,0.2-0.7,1-0.8c-0.4-0.1-0.3-0.3-0.2-0.5c-5.2-2.6-11.4-3.6-17.4-3c0.8,0.2,1.5,0.2,1.7,0
		C42.2,12.1,41.2,11.7,40.8,12.2z M49,12.3l-0.2,0.2c0.4,0.1,1.1,0.1,1.1,0.3l-1.2-0.2l0.1-0.1C48.5,12.4,48.5,12.4,49,12.3z"/>
	<path class="st0" d="M49.5,73.3c0.1-0.3,0.2-0.8,0.5-1v0c-5.5,1-11.5,0.4-17.2-1.5c0,0,0,0-0.1,0c-0.1-0.1-0.3-0.1-0.4-0.2
		c-0.1,0-0.6,0.3-0.8,0.2C37.6,73.4,43.8,74.1,49.5,73.3z"/>
	<path class="st0" d="M14.3,32.2c0.1,0,0.3,0,0.4,0c3.7-10.1,14.4-19.1,26-19.9c-0.4-0.1-0.9-0.2-1.2-0.3c0.9,0,1.1-0.2,1.2-0.5
		C28.7,12.4,18.5,20.7,14.3,32.2z"/>
	<path class="st0" d="M71.5,57.4c0.5-0.8,0.9-1.7,1.3-2.6c-0.4,0.2-0.8,0.3-1.5,0.3c0,0,0.2-0.5,0.2-0.5c0,0,0,0-0.1,0
		c-0.3,0.8-0.7,1.5-1,2.2c0.3,0,0.7,0.1,0.8,0L70.9,57C71,57.2,71.2,57.3,71.5,57.4z"/>
	<path class="st0" d="M51.3,73c0.1,0,0.2,0,0.3-0.1C51.4,72.9,51.3,72.9,51.3,73z"/>
	<path class="st0" d="M61.5,67.3c-0.2,0.1-0.3,0.2-0.5,0.3C61.5,67.6,61.6,67.4,61.5,67.3z"/>
	<path class="st0" d="M71.8,53.7c0,0,0,0.1-0.1,0.1C71.7,53.8,71.8,53.7,71.8,53.7z"/>
	<path class="st0" d="M73.5,53c0-0.1,0.1-0.2,0.1-0.3c-0.1,0-0.2,0-0.3,0C73.3,52.8,73.3,52.9,73.5,53z"/>
	<path class="st0" d="M12.9,39.3c0.3-2.1,0.8-4.2,1.5-6.3c-0.1,0-0.2-0.1-0.3-0.1C13.5,35,13,37.2,12.9,39.3z"/>
	<path class="st0" d="M14.2,32.7C14.2,32.7,14.2,32.7,14.2,32.7C14.2,32.7,14.2,32.7,14.2,32.7C14.2,32.7,14.2,32.7,14.2,32.7z"/>
	<path class="st0" d="M8.7,43.6c-0.2,0.1-0.5,0.2-0.7,0.3c0.1,0.1,0.2,0.1,0.2,0.2c0.3,0,0.8,0,0.7-0.2C8.9,43.8,8.8,43.7,8.7,43.6z
		"/>
	<path class="st0" d="M31.6,70.4c-0.2-0.1-0.3-0.1-0.5-0.2c0,0.1-0.2,0.1,0,0.2C31.2,70.4,31.4,70.4,31.6,70.4z"/>
	<path class="st0" d="M18.8,71.6c11.2,9.2,26,12.1,38.8,6.3c-9,2.8-18.3,1.9-26.7-0.2l0,0c-0.1-0.1,0.1-0.2,0.2-0.2
		c-4.3-1.5-8.4-3.6-11.9-6.5c0.5-0.1,3-1.3,6.7-3.2c1.6,1,3.2,1.9,4.8,2.6c-0.1-0.2-0.2-0.4-0.1-0.5c-2.1-1.3-6.7-1.3-1.5-3.4
		l-0.3-0.2c1.5-0.2,0.4-1.2,1.1-1.7c-5.7,2.9-9.9,5-11.3,5.8c-0.4-0.4-0.9-0.7-1.3-1.1c-0.6,0.1-1.7-0.3-2.4-0.3
		c0.6,1,1.4,2.1,2.3,3C18,71.9,18.5,71.7,18.8,71.6z"/>
	<path class="st0" d="M73.3,53.5C73.3,53.5,73.3,53.5,73.3,53.5C73.3,53.5,73.3,53.5,73.3,53.5C73.3,53.5,73.3,53.5,73.3,53.5z"/>
	<path class="st0" d="M68,14.5c1.9,0.2,1.2-0.6,2-0.8c-0.4-0.1-0.7-0.2-1-0.1c0,0-0.1,0-0.1,0c0,0,0,0.1,0.1,0.1
		c-0.3,0.2-0.8,0.4-1.4,0.8C67.6,14.3,67.8,14.4,68,14.5z"/>
	<path class="st0" d="M61.8,18.3C61.8,18.3,61.8,18.3,61.8,18.3C61.8,18.3,61.8,18.3,61.8,18.3L61.8,18.3z"/>
	<path class="st0" d="M75.1,42.1c-0.1,0.1-0.2,0.1-0.3,0.2C75,42.3,75.3,42.3,75.1,42.1z"/>
	<path class="st0" d="M72.4,16.8c0.1,0.1,0.1,0.2,0.3,0.3C72.6,17.1,72.5,17,72.4,16.8z"/>
	<path class="st0" d="M60.6,18.9c-0.7,0.2-1.7,0.4-2.5,0.3c0,0,0,0,0,0l0,0c-1.5,0.7-3.1,1.6-4.7,2.4c0,0.1,0.1,0.1,0.1,0.2
		c0.4,0.1,0.8,0,1.3,0.1c0.7-0.3,1.3-0.7,2-1c-0.1-0.4,1.5-0.4,0-0.8l1.4,0.2C59,19.7,59.8,19.3,60.6,18.9z"/>
	<path class="st0" d="M17.1,69.4C17.1,69.4,17.2,69.4,17.1,69.4c0-0.1-0.2-0.2-0.3-0.3C16.8,69.2,16.8,69.3,17.1,69.4z"/>
	<path class="st0" d="M51.3,22.6l1.3,0.1L51.3,23l-0.2-0.3c-2.4,1.2-5,2.5-7.8,3.9l1.6,0.2l0-0.2c0.1,0,0.1,0.1,0.2,0.2
		c0.7-0.3,1.4-0.7,2.1-1l-0.4,0c2.8-0.9,5.4-2.7,7.9-3.8C53.6,21.7,52.4,22,51.3,22.6z"/>
	<path class="st0" d="M70.8,57.1l-0.5-0.1c-0.1,0.1-0.1,0.2-0.2,0.4C70.6,57.2,70.9,57.2,70.8,57.1z"/>
	<path class="st0" d="M68.8,13.4L68.8,13.4c-0.1-0.2-0.3-0.3-0.5-0.5C68.5,13.1,68.7,13.3,68.8,13.4z"/>
	<path class="st0" d="M65.5,16.4c-0.3-0.2-0.7-0.2-0.7-0.6c-0.7,0.3-1.7,0.7-2.5,1.2c-0.2-0.1-0.3-0.2-0.5-0.3v0
		c-0.2,0.4-1,0.8-0.2,1.4c0.2,0,0.4,0,0.5,0.1C63.4,17.5,64.5,16.9,65.5,16.4z"/>
	<path class="st0" d="M10.7,58.3c0,0.1,0,0.2-0.1,0.3l0.3,0.1C10.8,58.5,10.7,58.4,10.7,58.3z"/>
	<path class="st0" d="M22.8,37.9C22.8,37.9,22.8,37.9,22.8,37.9c6.6-3.2,14.3-7.1,21.5-10.8c-0.2-0.2-0.5-0.4-1.1-0.6
		c-1.7,0.9-3.5,1.7-5.2,2.6v0l0.8,0c-0.7,0.1,0,0.5,0.1,0.5c-0.5-0.1-0.9-0.3-1.1-0.4c-1.3,0.6-2.6,1.3-3.9,1.9v0l1.2,0.3l-0.7,0.2
		c0.2-0.2-0.5-0.2-1-0.3c-0.6,0.3-1.8,0.7-1.4,1.5c-0.5,0.4-0.9,0.2-1.5,0c-3.7,1.8-7.3,3.6-10.2,5c0,0,0,0.1,0,0.1l-0.2,0
		c-1.6,0.8-3.1,1.5-4.3,2.1c0.1,0,0.3,0.1,0.6,0.1c-0.6,0.6-0.3,0.5-0.7,1.2c-0.3-1-2.6-0.1-2.9,0.2c0,0,0,0.1,0,0.1
		c-1.6,0.8-3,1.4-4.1,1.9c0.3,0,0.6,0.2,0.8,0.4c-0.6,0.1-1,0.5-2,0.4L7.7,44c-0.7,0.3-1.2,0.5-1.5,0.6c0.8,0,1.9,0,2.5-0.1L8.2,45
		c1.1-0.5,2.6-1.2,4.2-2c0,0,0,0.1-0.1,0.1c3-1.5,6-2.9,9.6-4.7C22,38.1,22.1,37.9,22.8,37.9z"/>
</g>
<g class="st1">
	<path class="st0" d="M60.7,128.3C60.8,128.3,60.8,128.3,60.7,128.3C60.8,128.2,60.7,128.3,60.7,128.3z"/>
	<path class="st0" d="M91,62.2c0.4,0.5,0.5,1,0.7,1.6c1.5-0.8,3.1-1.7,4.6-2.5c-0.1-0.2-0.2-0.3-0.4-0.4l-0.6,0.6
		c-0.5-0.2,0.2-0.6,0-1c-0.2,0.6-0.8,0-1.2,0.7c-0.2,0.2-0.5,0-0.8-0.3c-0.1,0-0.2,0.1-0.3,0.1l0.1,0.1c-0.3,0-0.6,0.2-0.9,0.4
		l0.2,0.6c-0.2,0.2-0.4,0-0.6-0.4c-0.2,0.1-0.3,0.2-0.5,0.3C92,62.7,91.2,62.2,91,62.2z"/>
	<polygon class="st0" points="136.5,37.2 136.5,37.2 136.5,37.2 	"/>
	<path class="st0" d="M136.3,37.8c0.2-0.1,0.2-0.3,0.1-0.6c-0.2,0.1-0.5,0.3-0.7,0.4L136.3,37.8z"/>
	<path class="st0" d="M83.1,68.6L83.1,68.6c2.6-1.4,5.2-2.9,7.9-4.3c-0.8-0.6-1.8-0.5-2.4-0.5c0,0-0.1-0.1-0.1-0.1
		c-0.4,0.2-0.9,0.4-1,0.9c-0.1,0-0.1-0.1-0.2-0.2c-0.1,0.1-0.2,0.1-0.3,0.2c0.1,0.1,0.2,0.1,0.3,0.1c-0.1,0.6-0.3,0.3-0.6,0
		c-1.5,0.8-3,1.7-4.5,2.5l0.5,0.1L83.1,68.6z"/>
	<path class="st0" d="M65.4,78.3c-0.1-0.3-0.3-0.5-0.5-0.7c0.2,0,0.5,0.5,0.8,0.5c4.3-2.3,9-4.9,14-7.7c-0.5-0.2-1-0.9-1.5-1.1
		c-0.1,0.1-0.2,0.1-0.3,0.2l0.8,1L78.1,71c0.5-0.4-0.1-0.8-0.4-1.4c-3.4,1.9-6.7,3.7-9.8,5.5l0.5,0.8c-0.3-0.2-0.7-0.4-0.9-0.3
		l-0.1,0.2c0-0.1,0-0.2,0.1-0.2l0.1-0.2c-0.8,0.5-1.7,0.9-2.5,1.4c0.1,0.1,0.2,0.2,0.4,0.4c-0.2,0-0.3-0.2-0.4-0.3
		c-0.2,0.1-0.4,0.2-0.6,0.3c0.5,0.8,0,0.9-0.4,1l0,0c0.2,0.1,0.3,0.3,0.4,0.7C64.8,78.6,65.1,78.5,65.4,78.3z"/>
	<path class="st0" d="M146.6,32.2C146.6,32.2,146.5,32.2,146.6,32.2C146.5,32.2,146.6,32.2,146.6,32.2z"/>
	<path class="st0" d="M113,50.4l-0.1,0.8l0.7-0.1c-0.1,0.3-0.3,0.5-0.2,0.8c8.7-4.8,15.1-8.5,22.6-12.4c0-0.2-0.1-0.5-0.4-0.9
		l-0.6,0.3c0.2-0.1,0.2-0.5,0.2-1.1c-1.1,0.6-2.3,1.3-3.6,2L132,40l-0.8,0.2V40c-0.2,0.1-0.4,0.2-0.5,0.3c0.4,0.1,0.7,0.2,1,0.3
		c0,0.2-0.1,0.4-0.2,0.6c0.1,0.1,0.2,0.2,0.3,0.4c-0.3,0-0.3-0.2-0.3-0.4c-0.7-0.6-1.7,0.2-1.8-0.4c-4.4,2.4-9.5,5.2-15,8.3
		c0.2,0.4,0.4,0.8,0.9,0.8c-0.2,1-1.6,0.5-2,0.1c0.5,0.5,0.8-0.2,1.2-0.2c-0.1-0.2-0.2-0.3-0.4-0.5c-0.6,0.3-1.2,0.7-1.9,1
		C112.7,50.4,112.9,50.6,113,50.4z M116.5,49.2c0.1,0.1,0.2,0.3,0.1,0.4l-0.7-0.5C116,49.1,116.5,49.2,116.5,49.2z"/>
	<path class="st0" d="M138,65l0.3,0.1l0.2,0.4c-0.1-0.5-0.2-1-0.2-1.5c-0.2-0.1-0.3-0.3-0.5-0.4C137.8,64,137.9,64.5,138,65z"/>
	<path class="st0" d="M135.7,38L135.7,38l-0.2-0.3c-0.1,0-0.2,0.1-0.3,0.2C135.5,38,135.6,38.1,135.7,38z"/>
	<path class="st0" d="M96.4,60.1L96.4,60.1c-0.1-0.3,0.2-0.3,0.3-0.2C96.7,60.1,96.5,60.1,96.4,60.1c0.6,2.2,12.4-6.4,14.6-6.9
		c-0.5-0.4-1.2-0.6-1.6-1.2c-0.2,0.1-0.5,0.3-0.7,0.4l0.5,0.6l-0.8-0.4c-3.4,1.9-6.9,3.8-10.4,5.8c0.2,0.1,0.4,0.3,0.5,0.8
		c-0.6,0.2-0.4-0.4-0.6-0.8c-0.2,0.1-0.5,0.2-0.7,0.4c0.2,0.3,0.5,0.9,0.7,0.6l0-0.3l0.1,0.2c0,0,0,0.1-0.1,0.1l0.1,0.4
		c-0.6-0.4-0.8-0.4-1.1-0.8c-0.3,0.2-0.7,0.4-1,0.5C95.9,59.9,96.1,60.2,96.4,60.1z M99.5,59.5l-0.8-0.4l0.5-0.3l-0.6-0.5
		C98.7,58.4,99.5,58.8,99.5,59.5z"/>
	<path class="st0" d="M142,35l-0.2,0.6h0c0.2,0.2,0.5,0.5,0.7,0.6c0.2-0.1,0.4-0.2,0.6-0.3c0-0.2-0.1-0.3-0.2-0.5l-0.4,0.2l-0.1-0.5
		c0.2-0.4,0.8,0.1,1.2,0.6c0,0,0,0,0.1,0c1.7,3.7,8.1,10.4,10.2,15.8c0.1,0,0.1-0.1,0.2-0.2l-0.8-1.4c0.6,0.8,1.6,2.4,2.4,3.1
		l-0.9-0.3l0.4,0.7c-0.2-0.3-0.4-0.4-0.5-0.5c1.2,2.3,1,4.7,1.7,8.1c0.6,0,0.2-1,0.4-1.2c-0.2-1.5-0.5-2.9-0.6-4
		c0.7,1.4,1.4,2.8,2,4.2l0.1,0c0,0-0.1-0.1-0.1-0.1l0.1,0.1h0c0.3,0.3,0.3,0.4,0.2,0.6c0.9,1.1,1.4,5,3,3.8c-0.4-0.2-0.8-1.1-1-0.6
		c0.1,0.1,0.2,0.3,0.1,0.4l-0.7-1.2c0.4-0.6,0.6-0.8,1.3-0.2c0.1-0.6-0.9-1.8-1-1.1v-0.9l-0.9-0.6c0-1,0.2-1.2,0.3-1.5
		c-0.3-0.5-0.5-1-0.8-1.4c-0.1,0.1-0.3,0.2-0.7,0l0.2-0.8c-0.3-0.4-0.6,0.8-0.9-0.1c-0.6-0.7,0.5-1-0.5-1.5c0.2-0.1,0.7,0.5,0.7,0.9
		c0-0.3,0.1-0.3,0.2-0.3c-0.7-1.2-1.4-2.5-2-3.7c0.4-0.2,0.7-0.3,0.8-0.4c-4.6-3.9-7.9-13.4-9.3-18.3c-0.1,0-0.2,0.1-0.1,0.4
		l0.1,0.1c0.1,0.5-0.1,0.1-0.2,0.1c0.2-0.3-0.3-1-0.2-1.3c-0.1,0.1-0.3,0.2-0.4,0.3l0.3,0.9l-1.3-0.6l0.5-0.2
		c-0.1-0.2-0.1-0.3-0.1-0.3c0.1-0.1-1.1,0.5-3.2,1.7c0.1,0.1,0.1,0.2,0.2,0.3l-0.3-0.2c-0.2,0.1-0.4,0.2-0.7,0.4
		C141.5,34.8,141.7,34.9,142,35z M144.8,34.3c-0.1-0.4-0.6-0.4-0.6-0.8c0.3,0.4,0.8,0.5,0.9,0.9v-0.9c0.5,0,0.2,1.2,0.8,1.7
		c-0.5,0-0.7-1.1-1-0.6c0.1,0.2,0.2,0.4,0.3,0.4c-0.1,1.7-1.3-0.7-2.1-0.7C143.3,33.7,144.5,35,144.8,34.3z"/>
	<path class="st0" d="M165.6,69.6c-0.1,0-0.1,0-0.1,0.1l0,0C165.4,69.6,165.5,69.5,165.6,69.6c-0.3-0.4-0.5-0.7-0.7-1.1
		c-0.4,0-0.8-0.2-0.6-0.4c0.2,0.3,0.4,0.3,0.5,0.2c-0.2-0.3-0.3-0.5-0.5-0.9c-0.4-0.1-0.8-0.1-1.1,0.1c0.6,1,1.5,1.3,2.2,2.2h0
		c0,0.1,0.1,0.3,0.2,0.6l-0.7-0.8c-0.2,0.6-1.1,0.9-1.6,0.5l0.3,0.7c-0.5,0.3-0.2,0.4-0.9,0.4c0.3,0.6,0.7,1,1.2,1.4
		c1.7-0.8,2.7-1.3,2.9-1.3C166.7,71.2,166.2,70.6,165.6,69.6z"/>
	<path class="st0" d="M61.2,79.1c0,0,0-0.1,0-0.1c0,0,0,0,0,0c0,0-0.1,0-0.1,0C61.2,79,61.2,79,61.2,79.1L61.2,79.1z"/>
	<path class="st0" d="M157.5,70.2c0.2,1.1,0.3,2,0.4,2.7c0.2,0,0.3-0.1,0.4-0.2c-0.1-0.5-0.1-1.1-0.2-1.8l-0.2,0
		c-0.1-0.3,0-0.4,0.1-0.4c0-0.3-0.1-0.5-0.1-0.8c-0.3-0.3-0.6-0.7-0.7-1.3c0.3,0,0.2-1.4,0.2-1.9c-0.2-0.1-0.4-0.2-0.6-0.2
		C157.2,67.6,157.4,69,157.5,70.2L157.5,70.2z"/>
	<path class="st0" d="M122.3,93.2c-0.4-0.2-1.1,0.5-0.5,1c-0.5,0.1-1.9,0-1.4,0.8c-0.3,0.3-0.5-0.2-0.7-0.5
		c-0.2,0.1-0.4,0.2-0.6,0.3c0.2,0.2,0.4,0.3,0.5,0.3l-0.5,0.2l-0.2-0.4c-1.3,0.7-2.6,1.4-3.9,2.1c-0.3-1.5-0.7-4.1-1.1-7
		c-0.1,0-0.3,0.1-0.4,0.1c0.5,3,0.9,5.6,1.1,7.1c-2.8,1.5-5.5,3.1-8.3,4.6c-0.4-2.8-1.5-10.4-2.2-15.8c-0.2,0-0.3-0.1-0.5-0.3
		c0.1-0.1,0.3-0.2,0.4-0.2c0-0.3-0.1-0.5-0.1-0.8c0,0.1,0,0.2-0.1,0.3l-0.3-1.1c0.1-0.1,0.2-0.1,0.3-0.2c-0.2-1.1-0.3-2.1-0.4-2.7
		c0.2-0.1,0.4-0.2,0.6-0.3v-0.4l0.1,0.3c0.5-0.3,1-0.6,1.5-0.8c0-0.1-0.1-0.2-0.2-0.3c1.1,0.1,1.8-0.7,2.7-1.1
		c-0.3-0.2-0.6-0.7-0.9-0.9c-0.5,0.2-0.9,0.5-1.4,0.8l0.5,0.9c-0.1-0.2-0.5-0.5-0.7-0.8c-6.8,3.7-13.7,7.5-20.1,11
		c0,0.1,0.1,0.3,0.4,0.5c-0.5,0.1-1.1-0.1-1.2,0.5c0.2,0.2,0.3,0.5,0.5,0.7c0.1,0,0.2-0.1,0.3-0.1c0,0.1,0,0.3,0.1,0.5
		c0.1,0,0.2,0,0.2-0.1c0.1-0.2,0-0.4-0.1-0.6c2.7-1.5,5.4-3,8.2-4.5c0.6,3.6,2.6,16.8,3.3,20.6c-0.1,0-0.2,0.1-0.3,0.1
		c0,0.2,0,0.4,0.1,0.5c-0.2,0.2-0.5,0.1-0.8-0.1c-2.5,1.4-5,2.8-7.3,4.1c-0.4-2.8-1.9-13-2.8-18.3c0,0.1-0.1,0.1-0.3,0.1
		c0-0.4-0.1-0.8-0.2-1.1c0.7,4.7,2.5,17.5,2.8,19.6c-2.9,1.6-5.7,3.2-8.2,4.6c-0.4-2.5-1.5-10.5-2.3-15.9c-0.1,0.3-0.3,0.2-0.5,0
		c0.8,5.9,2,14.5,2.3,16.2c-3,1.7-5.8,3.3-8.1,4.6c0-0.4-0.1-0.9-0.2-1.5c-0.3-0.1-0.6-0.2-0.8-0.3c0.2,1.2,0.3,2,0.4,2.2
		c-4.5,2.6-7.2,4.2-7.4,4.5c-1.5-1.2-1-3.4-1.6-5.9l-0.1,0.2c-0.2-0.5-0.3-0.8-0.5-0.9c0.3,1.8,0.5,3.5,0.8,4.8
		c-0.9-1.3-2.1-3.3-3.4-5.7c0.1,0.6-0.6,0.2,0.2,1.2c-0.8,0.3,0-0.9-0.8-1.1c-0.2,0,0,0.4,0.1,0.7c-0.3-0.2-0.5,0-0.8-0.1
		c0.1,0.2,0.2,0.5,0.5,0.6c-0.2-0.1-0.6-0.3-0.7,0l0.1,0.2h0c2.1,4.4,3.6,7.6,3.4,8.1c0.3-0.2,1-0.6,2-1.1c0,0,0,0,0,0
		c1.9-1.2,5-2.8,8.9-5c0.1,0,0.1,0.1,0.1,0.2c0,0,0-0.1,0-0.3c2.6-1.4,5.5-3.2,8.7-4.7c0,0,0,0,0,0c6.5-3.5,14.7-8,22-12
		c0-0.1-0.1-0.2-0.1-0.3c0.1-0.2,0.4-0.4,0.8,0c0.1-0.1,0.2-0.1,0.3-0.2c-0.4-0.2-0.7-0.5-1-0.7c-1.6,0.9-3.2,1.8-4.8,2.7l0.2,0.5
		l-0.5-0.9l0.1-0.1l0.1,0.4c-0.5-3.9-2.7-18.6-3-20.7c1.1-0.6,2.2-1.2,3.3-1.8c0,0,0,0,0,0c0.3-0.5-0.1-1.5,0.9-0.5
		c1-0.5,1.9-1,2.9-1.6l-0.2-0.2l0.4,0.1c0.4-0.2,0.8-0.4,1.2-0.7c0.1,2,2.4,17.1,2.9,20.8c-0.3,0.2-0.5,0.3-0.8,0.5
		c-0.1,0.4-0.2,0.9,0.1,1.2c0.1-0.1,0.2-0.1,0.3-0.2c-0.1-0.3,0.3-0.6,0.5-0.3c0.2-0.1,0.3-0.2,0.5-0.3c2.9-1.6,5.9-3.2,8.8-4.8
		c0,0,0,0,0,0l0,0c0,0,0,0,0,0c2.4-1.3,4.9-2.6,7.2-3.9c-0.1,0-0.2,0-0.3-0.1l0.6-0.5L122.3,93.2z"/>
	<path class="st0" d="M148.4,69.4c0-0.3-0.3-0.5-0.5-0.7c0,0.3,0.1,0.5,0.1,0.8C148.1,69.3,148.2,69.3,148.4,69.4z"/>
	<path class="st0" d="M148,69.5C148,69.5,148,69.5,148,69.5C148,69.5,148,69.5,148,69.5L148,69.5z"/>
	<path class="st0" d="M148.3,68.7c-0.1,0-0.1-0.1-0.2-0.1c0.1,0.1,0.2,0.2,0.3,0.4C148.3,68.9,148.3,68.8,148.3,68.7z"/>
	<path class="st0" d="M148,68.6L148,68.6C148.1,68.6,148.1,68.6,148,68.6C148.1,68.6,148.1,68.6,148,68.6z"/>
	<path class="st0" d="M140.6,80.5c0.1,0,0.1,0.1,0.2,0.2c0-0.3-0.1-0.6-0.1-0.9C140.4,79.9,140.8,80.2,140.6,80.5z"/>
	<polygon class="st0" points="140.6,80.6 140.6,80.5 140.6,80.5 	"/>
	<polygon class="st0" points="140.2,79.4 140.2,79.4 140.2,79.4 	"/>
	<path class="st0" d="M140.2,79.4C140.2,79.4,140.2,79.4,140.2,79.4l0-0.1C140.2,79.3,140.2,79.4,140.2,79.4z"/>
	<path class="st0" d="M116.9,72.4c0.1,0,0.1,0,0.2,0l0-0.1C117,72.4,117,72.4,116.9,72.4z"/>
	<path class="st0" d="M58.3,118.2c-0.1-0.3-0.1-0.7-0.5-0.9c0.1,0,0.2,0.1,0.3,0.2c-0.3-0.5-0.6-1.1-0.9-1.6
		c-0.7-0.2-1.8-0.7-2.2-0.6c0.4,0.8,0.8,1.7,1.2,2.5c-0.2-1,0.8,0,1.2,0.2c-0.3,0-0.9-0.8-1.2-0.2c0.1,0.3,0.2,0.5,0.4,0.8
		C57.3,118.9,58,118.7,58.3,118.2L58.3,118.2z"/>
	<path class="st0" d="M56.2,117.8C56.2,117.8,56.2,117.8,56.2,117.8C56.2,117.8,56.2,117.8,56.2,117.8
		C56.2,117.8,56.2,117.8,56.2,117.8z"/>
	<path class="st0" d="M49.9,85.1c-0.1,0-0.2,0.1-0.2,0.1c0.1,0,0.2,0,0.3,0L49.9,85.1z"/>
	<path class="st0" d="M50.2,85.6l1.8-0.1c-0.1,0.1-0.2,0.2-0.2,0.3c1-0.5,2.1-1.1,3.2-1.8c-0.2-0.1-0.4-0.2-0.5-0.2
		c-0.6-1.3,0.8,0,0.9-0.6c0.1,0.2,0.1,0.3,0.2,0.5c0.5-0.2,0.9-0.5,1.4-0.8c-0.5-0.5-0.8,0.1-1,0l0.9-0.7c0,0.2,0.1,0.4,0.2,0.6
		c0.7-0.4,1.4-0.8,2.1-1.2c-0.2,0-0.3-0.1-0.5-0.2c0-0.3,0.1-0.6-0.1-0.8l0.1,0.1c0-0.1,0-0.3,0-0.5c-3.1,1.7-6,3.3-8.5,4.6
		C50.1,85.2,50.2,85.3,50.2,85.6L50.2,85.6z"/>
	<path class="st0" d="M44.7,94.6c-0.4,0-1,0-1.4,0.2c0.7-0.3,1.8-1,1.8-1.6c0,0-0.1,0-0.1,0l-0.1,0c0,0,0.1-0.1,0.1-0.1
		c-0.1-0.3-1.3-0.3-1-1.1c0.2-0.1,0.7-0.3,1.1-0.4c0-0.1,0-0.1,0-0.2c-0.2-0.1-0.4-0.1-0.4-0.2l0.3,0c-0.2-1-0.3-1.7,0-1.9
		c-0.1,0.1,1.6-0.8,4.7-2.4c-0.6-0.1-1.2-0.2-1.4,0.3l-0.5-0.9c-4.8,3.2-8.5,3-6.9,5.2c0.4-0.1,0.5,0.1,0.2,0.3
		c0.4,0.7,1,1.6,1.6,2.6c0.2,0,0.3-0.1,0.5-0.2c-0.1,0.1-0.3,0.2-0.5,0.2c0.1,0.2,0.2,0.3,0.3,0.5c0.6,0,0.4,0.4,0.4,0.6l0,0
		C43.9,96.2,44.7,94.9,44.7,94.6z M42.8,92.5c-0.1,0-0.2-0.1-0.2-0.1L42.3,92l1.1-0.2c-0.3,0.1-0.7,0.4-0.7,0.6L42.8,92.5z"/>
	<path class="st0" d="M49.5,101.8c-0.1-0.2-0.3-0.5-0.4-0.7H49l0.1-0.2c-1-2-2-3.6-2.7-5.5c0,0-0.1,0-0.1-0.1c0,0,0.1,0,0.1,0.1
		c-0.1-0.2-0.2-0.5-0.3-0.7c-0.2,0.1-0.4,0.2-0.7,0.4c0.1,0.1,0.3,0.2,0.4,0.5c-0.8,0.1-0.7,0.3-0.7,0.8c-0.4,0.1-0.8,0.2-1.1,0.2
		c0.8,1.1,1.6,2.2,2.4,3.4c0.1,0,0.2-0.1,0.3-0.1c-0.4,0.4,0.9-0.1,0.3,0.4h-0.3c0.1,0.2,0.3,0.4,0.4,0.6c0,0,0-0.1,0-0.1l0.7,1l0,0
		c0,0,0,0,0,0.1l0.5-0.6c0.3,0.6-0.6,0.2-0.3,0.8c0.1,0.1,0.2,0.2,0.3,0.3C48.9,102.6,49.2,102.2,49.5,101.8z"/>
	<path class="st0" d="M44.5,95.8c0.3,0.1,0.5-0.1,0.7-0.2l-0.7,0.1C44.5,95.6,44.5,95.7,44.5,95.8z"/>
	<path class="st0" d="M45.2,95.5C45.2,95.5,45.2,95.5,45.2,95.5L45.2,95.5L45.2,95.5z"/>
	<path class="st0" d="M147.3,64.2c0.1,0.7,0.2,1.5,0.3,2.2c0.1-0.1,0.2-0.1,0.4-0.1c-0.1-0.8-0.2-1.5-0.3-2.2
		C147.5,64.1,147.4,64.1,147.3,64.2z"/>
	<path class="st0" d="M59,80.3c0,0,0-0.1,0-0.1c0,0,0,0-0.1,0L59,80.3z"/>
	<polygon class="st0" points="58.9,80.2 58.9,80.2 59,80.2 	"/>
	<path class="st0" d="M62,119.4c0-0.2-0.1-0.4-0.1-0.6l-0.4-0.3C61.5,118.7,61.7,119.1,62,119.4z"/>
	<path class="st0" d="M55.3,113.6c-0.1,0-0.1-0.1-0.2-0.2L55.3,113.6c0.1,0.2,0.4,0.1,0.8,0.1c-1.1-2-2.2-4.1-3.4-6.2v0
		c-0.7-1.3-1.4-2.6-2.1-3.9c-0.4,0.2-0.7,0.4-1.2,0.1c0.5,1.2,2.2,3.7,1.6,4.8c0.1-0.1,0.3-0.2,0.5-0.3c0.8,1.1,1.2,3.7,2.3,4l0.1,1
		c0.4-0.2,0.7,0.5,0.9,0.9C54.9,113.6,55.5,114.1,55.3,113.6z"/>
	<path class="st0" d="M123.7,93.9c0.1,0,0.2-0.1,0.4-0.2c0-0.2,0-0.3,0-0.6C123.8,93.3,123.5,93.3,123.7,93.9z"/>
	<path class="st0" d="M112.5,79.9c-0.1-0.7-0.1-1.4-0.5-2l0.2-0.1c0.1-0.6-0.5-1.3-0.8-1.3c0,0,0,0.2,0,0.3c0,0,0,0,0,0
		c0.1,0.4,0.2,1.1,0.3,1.8c0.1,0.1,0.2,0.2,0.2,0c0,0.6-0.1,0.6-0.2,0.4c0,0.2,0.1,0.4,0.1,0.6C112.1,79.7,112.3,79.9,112.5,79.9
		L112.5,79.9z"/>
	<path class="st0" d="M112.1,80.3L112.1,80.3c0,0.2,0,0.4,0,0.5V80.3z"/>
	<polygon class="st0" points="112,80.3 112,80.3 112,80.3 	"/>
	<path class="st0" d="M84.2,90.3c-0.6,0.3-1.2,0.7-1.8,1c0.7-0.1,1.2-0.5,2-0.8C84.3,90.4,84.2,90.4,84.2,90.3z"/>
	<path class="st0" d="M120.6,74.1c0,0.3,0.1,0.7,0.1,1c0,0,0,0,0.1,0l-0.1,0c0,0.3,0.1,0.7,0.2,1.1c0.1-0.1,0.2-0.1,0.3-0.2
		c-0.2-1.3-0.3-2.4-0.4-3.2c0,0-0.1,0.1-0.1,0.1C121,73.2,120.8,73.7,120.6,74.1z"/>
	<path class="st0" d="M121.8,83c0.1-0.1,0.2-0.2,0.3-0.2c-0.3-2.1-0.6-4.3-0.9-6.1C120.6,78.2,121.8,80.8,121.8,83z"/>
	<path class="st0" d="M77.2,98.8C77.2,98.8,77.2,98.8,77.2,98.8c0,0.2,0,0.4,0.1,0.6C77.4,99.3,77.4,99.2,77.2,98.8z"/>
	<path class="st0" d="M118.6,72.8c0-0.1-0.1-0.2-0.1-0.3h0c-0.6-1-0.3,0.2-0.8-0.3c0.1-0.1,0.1-0.2,0.1-0.3
		c-0.2,0.1-0.5,0.3-0.8,0.4l0.7,0.9C118,73.1,118.3,73,118.6,72.8z"/>
	<path class="st0" d="M78.1,93.6c0,0.4,0.4,0.9,0.7,1.2h0c0-0.5,0.2-0.5,0.4-0.2c1.1-0.6,2.2-1.2,3.4-1.9c-0.5,0-1-0.2-1.5-0.7
		C80.1,92.5,79.1,93.1,78.1,93.6z"/>
	<path class="st0" d="M61.8,117.9l-0.2,0.1l0.2,0.4h0C61.8,118.2,61.8,118.1,61.8,117.9z"/>
	<path class="st0" d="M61.1,116.7c0.8,0.3,0-0.9,0.3-1.2l0,0.1c-0.1-0.4-0.1-0.8-0.2-1.3c-0.2,0-0.4-0.1-0.5,0
		C60.9,115.1,61,115.9,61.1,116.7L61.1,116.7z"/>
	<path class="st0" d="M112.9,82.5c0-0.2-0.1-0.5-0.1-0.7l-0.6-0.3c0.1,0.8,0.2,1.5,0.4,2.4C112.7,83.4,112.7,82.9,112.9,82.5z"/>
	<path class="st0" d="M140.1,79.2l0.5,0.5c-0.3-1.9-0.6-4.3-1-6.7c0-0.1-0.1-0.1-0.2-0.2v0c0.1,0,0.1,0,0.1,0
		c-0.2-1.6-0.5-3.2-0.7-4.7c0,0.1,0,0.2,0,0.4c-0.2-0.9-0.2-2-0.4-2.9l-0.5-0.6C138.5,68.8,139.5,74.9,140.1,79.2z"/>
	<path class="st0" d="M61,112.7c-0.2-0.1-0.4-0.1-0.5,0c0.1,0.4,0.1,0.8,0.2,1.2c0.2,0,0.3,0,0.5,0C61.2,113.5,61.1,113.1,61,112.7z
		"/>
	<path class="st0" d="M76.8,96c0,0.2,0.1,0.5,0.1,0.8c0.2-0.2,0.3-0.4,0.4-0.8C77.1,96.1,77,96.1,76.8,96z"/>
	<path class="st0" d="M113.1,84.5c-0.1,0-0.2,0.2-0.4,0.4l0,0c0.1,0.6,0.2,1.2,0.3,1.9c0.2,0,0.2,0,0.2-0.3l0.2,0.4
		C113.3,86,113.2,85.2,113.1,84.5z"/>
	<path class="st0" d="M76.8,96c-0.3-0.2-0.5-0.8-0.8-1.2c-11,6-19.7,10.8-23.3,12.8c0.8,0.8,1.4,1.2,1.7,1.1
		c-0.1-0.1,1.9-1.2,5.3-3.1c0.1,1,0.4,3.5,0.8,6.5c0.2,0,0.3-0.1,0.5-0.1c0-0.2,0-0.3-0.1-0.5c-0.1,0.1-0.2,0.2-0.3,0.2
		c0.1-0.4,0.6-0.2,0-0.9c0.1,0,0.2,0,0.3,0.1c-0.4-2.5-0.6-4.5-0.8-5.5c2.2-1.2,5-2.8,8.1-4.5c0.3,2.9,1.7,12.5,2.4,17.7
		c0-0.1,0-0.3,0-0.5l0.8,0.9c-0.7-5.4-2.3-15.5-2.9-18.3c2.2-1.2,4.6-2.5,7.1-4l-0.3-0.1l0.6-0.2v0.2C76.2,96.3,76.5,96.1,76.8,96z"
		/>
	<path class="st0" d="M122.2,85.2c0.2,1.1,0.3,2.1,0.5,3.1c0.2,0,0.3,0.1,0.4,0.1c-0.2-1-0.3-2.1-0.5-3.2
		C122.4,85.2,122.3,85.2,122.2,85.2z"/>
	<path class="st0" d="M140.7,36.9c-0.2-0.1-0.3-0.1-0.4,0c0,0.1,0.1,0.2,0.1,0.3c0.2-0.1,0.3-0.2,0.5-0.2
		C140.8,37,140.7,37,140.7,36.9L140.7,36.9z"/>
	<path class="st0" d="M142.2,82.9c-0.5,0-0.3,0.5,0,1c0.6-0.3,1.2-0.7,1.9-1C143.4,82.8,142.6,82.4,142.2,82.9z"/>
	<path class="st0" d="M141,83.3c-0.1,0.6-0.2,0.8-0.2,1.4c0.4-0.2,0.7-0.4,1.1-0.6C141.5,83.9,141.6,83.1,141,83.3z"/>
	<path class="st0" d="M111,53.2c0.7-0.4,1.4-0.8,2.1-1.1c-0.2-0.4-0.4-0.7-0.7-0.7v-1c-0.2,0.1-0.3,0.2-0.5,0.3l0.1,0.1
		c0,0.9-0.7,1.5-1.1,2.2L111,53.2z"/>
	<path class="st0" d="M158,73.1c0.2,0.5,0.4,1.1,0.7,1.1c-0.4,0.2-0.7-0.3-0.9-0.7c-1.2,0.7-2.6,1.4-4.1,2.2c0,0,0,0,0,0
		c-0.1,0-0.2,0.1-0.4,0.2c0.1,0.1,0.1,0.3,0,0.5c-0.4-0.5-0.6,0.1-0.9,0.1c-0.1,0-0.1,0.1-0.2,0.1c0.1,0.4,0.3,0.7,0.5,0.7
		c-0.3,0.4-0.7-0.1-1.1-0.4c-0.2,0.1-0.4,0.2-0.7,0.4c0.3,0.3,0.6,0.3,0.9,1c-0.6,0.3-0.2-0.9-0.7-0.6l-0.2,0.7l0.2,0.2l-1.2-0.6
		c0.3,0,0.5-0.1,0.5-0.3c-0.2,0.1-0.5,0.3-0.7,0.4c-0.2-0.9-0.4-2.2-0.6-3.7c-0.2-0.2-0.4-0.3-0.3,0.1c-0.1-0.4,0.1-0.3,0.3-0.2
		c-0.2-1.1-0.4-2.4-0.6-3.7c-0.1,0.1-0.2,0.3,0,0.7c-0.1,0.2-0.2,0.3-0.3,0.3c0.1,0.6,0.2,1.3,0.3,1.9c0.3,2,0.5,3.8,0.7,4.9
		c-1.4,0.8-2.9,1.6-4.5,2.5c0.3,0.2,0.5,0.3,0.7,0.3c-0.4,0.1-0.6,0.2,0,0.9l-0.9-0.5c0.8,1-0.4,0.6,0,1.3c2.5-1.3,4.8-2.6,7-3.7
		c-0.3,0-0.7-0.1-0.9-0.1c0.2-0.4,2.4-0.6,3.3-1.2l0,0c0.2-0.1,0.4-0.2,0.6-0.3l-0.3-0.5c0.2,0.1,0.5,0.2,0.7,0.3
		c0.9-0.5,1.8-0.9,2.6-1.3l-0.3-0.5l0.5,0.4c0.9-0.5,1.8-0.9,2.6-1.4C159.5,73.6,159,74.4,158,73.1z"/>
	<path class="st0" d="M157.9,73.1C157.9,73.1,157.9,73.1,157.9,73.1C158,73.1,158,73.1,157.9,73.1L157.9,73.1z"/>
	<path class="st0" d="M162.1,71.2c-0.1,0-0.2,0.1-0.4,0.2l0.1,0.3c-0.2,0-0.5,0-0.8,0c-0.5,0.3-1.1,0.6-1.9,1
		c-0.2,0.9,0.5,1.2,1.2,1.6c0.2-0.1,0.4-0.2,0.6-0.3c-0.3-0.4-0.6-0.8-1-1.1c0.5-0.5,0.9,0.1,1.6,0.7c-0.2,0-0.4,0.2-0.5,0.4
		c1-0.5,1.9-1,2.6-1.3C163.4,72,162.5,71.8,162.1,71.2z"/>
	<path class="st0" d="M133.4,63.6c0.2,0.7,0.4,0.5,0.6,0.8c0.4-0.2,0.8-0.4,1.1-0.6c-0.2-0.1-0.3-0.2-0.4-0.2v0l-0.1-0.8
		c-0.1,0.1-0.3,0.2-0.4,0.2c0,0.2-0.3,0.3,0,0.8C133.9,63.7,133.7,63.4,133.4,63.6z"/>
	<polygon class="st0" points="124.6,69.5 124.6,69.5 124.6,69.5 	"/>
	<path class="st0" d="M124.3,69.2c-0.2-0.2-0.4-0.4-0.6-0.5c-0.1,0.1-0.2,0.1-0.3,0.2l0.1,0.2c-0.1-0.1-0.2-0.1-0.3-0.2
		c-0.7,0.4-1.3,0.7-2,1.1c0.1,0.2,0.2,0.5-0.1,0.5c-0.1-0.1-0.1-0.2-0.2-0.4c-0.2,0.1-0.4,0.2-0.7,0.4c0,0,0.1,0.1,0.2,0.1v0.6
		c0.1-0.1,0.4,0.1,0.7,0.2c1.2-0.6,2.3-1.3,3.4-1.9C124.5,69.4,124.4,69.3,124.3,69.2z"/>
	<path class="st0" d="M129,67.1c0.4,2.8,1.9,13.2,2.7,18.4c0.1,0,0.3,0,0.4,0c0-0.2-0.1-0.5-0.1-0.7c0,0-0.1,0-0.1,0c0,0,0,0,0.1,0
		c-0.2-1.5-0.5-3.3-0.7-5.2l-0.2-0.2l0.2,0.1c-0.7-5.1-1.5-10.8-1.9-12.5c1.6-0.9,3.1-1.7,4.6-2.6c-0.3-0.1-0.6-0.4-0.8-0.8
		c-2.9,1.6-5.9,3.2-9.1,4.9c0.1,0.4,0.2,0.7,0.5,1C126.1,68.7,127.6,67.9,129,67.1z"/>
	<path class="st0" d="M140.7,36.9c0.1,0,0.1,0,0.2,0.1c0.2-0.1,0.4-0.2,0.6-0.3l0,0l-0.2-0.3c0.1,0.1,0.2,0.1,0.4,0.2
		c0.1-0.1,0.3-0.1,0.4-0.2c-0.7-0.8-1.5-2.1-2-1c0.2,0.3,0.3,0.7,0.6,0.7l-0.8-0.1C140,36.3,140.4,36.7,140.7,36.9z"/>
	<path class="st0" d="M146.2,57.1C146.2,57.1,146.2,57.1,146.2,57.1C146.2,57.1,146.1,57.1,146.2,57.1L146.2,57.1z"/>
	<path class="st0" d="M154,53.3C154,53.3,154,53.3,154,53.3C154.1,53.3,154.1,53.3,154,53.3z"/>
	<path class="st0" d="M153.3,52.7c-1.6,0.8-3.8,2-6.5,3.5c0.3,0.8-0.9,0.2-0.6,0.9c0.2,0.1,0.5,0.1,0.7,0.1c0.6-0.3,1.1-0.6,1.6-0.9
		c-0.1-0.1-0.1-0.3-0.1-0.4c0.1,0.2,0.3,0.2,0.4,0.3c3.3-2.1,5.2-2.3,5.4-3.4C153.8,52.9,153.5,53.1,153.3,52.7z"/>
	<path class="st0" d="M81,69.7c-0.3-0.2-0.7-0.4-1-0.5l0.1,1C80.4,70.1,80.7,69.9,81,69.7z"/>
	<path class="st0" d="M139.8,84.3c-1.7,0.6-2.4,1.8-3.9,2.6c-0.8,0.8-1.6-0.8-2.4,0.5c0,0.4,0.6,0.8,0.4,0.7c0,1-1.2-0.6-1.1,0.5
		l-0.7-0.8c0.1,0.6-0.4,0.4-0.8,0.4c-0.1,0-0.2,0.1-0.2,0.1c0.4,0.4,0.5,0.5,0.7,1l-0.7-0.5l0.2-0.3c-0.1-0.1-0.2-0.2-0.2-0.3
		c-0.4,0.2-0.9,0.5-1.3,0.7l0.5,1l-0.8-0.1c-0.3-0.5,0.6-0.1,0.2-0.8c-0.3,0.2-0.6,0.3-0.9,0.5c-0.2,0.5-0.6,0.9-0.3,1.8
		c4.2-2.3,8.3-4.4,12.1-6.5C140.2,84.5,139.9,84.9,139.8,84.3z"/>
	<path class="st0" d="M139.8,84.2C139.8,84.2,139.8,84.2,139.8,84.2C139.8,84.3,139.8,84.3,139.8,84.2L139.8,84.2z"/>
	<polygon class="st0" points="140.7,84.8 140.7,84.7 140.7,84.8 	"/>
	<path class="st0" d="M140.7,84.7L140.7,84.7C140.7,84.7,140.7,84.7,140.7,84.7L140.7,84.7z"/>
	<path class="st0" d="M81.2,69L81.2,69l-0.7-0.2c0.3,0.4,0.5,0.6,0.8,0.8c0.5-0.3,1.1-0.6,1.6-0.9c-0.6-0.1-1.4-0.7-1.6-0.1
		l-0.8-0.5c0,0,0,0,0,0C82.2,69.4,80.4,68.3,81.2,69z"/>
</g>
</svg>
