<?xml version="1.0" encoding="UTF-8"?>
<svg id="_レイヤー_2" data-name="レイヤー 2" xmlns="http://www.w3.org/2000/svg" xmlns:xlink="http://www.w3.org/1999/xlink" viewBox="0 0 143 142">
  <defs>
    <style>
      .cls-1 {
        letter-spacing: .02em;
      }

      .cls-2 {
        fill: #1e3246;
        font-family: SourceHanSansJP-Medium-83pv-RKSJ-H, 'Source Han Sans JP',sans-serif;
        font-size: 12.76px;
        font-weight: 500;
      }

      .cls-3 {
        fill: #fff;
        filter: url(#outer-glow-1);
      }

      .cls-4 {
        letter-spacing: .08em;
      }

      .cls-5 {
        letter-spacing: -.07em;
      }

      .cls-6 {
        letter-spacing: .06em;
      }

      .cls-7 {
        letter-spacing: .06em;
      }

      .cls-8 {
        letter-spacing: -.03em;
      }
    </style>
    <filter id="outer-glow-1" filterUnits="userSpaceOnUse">
      <feOffset dx="0" dy="0"/>
      <feGaussianBlur result="blur" stdDeviation="5"/>
      <feFlood flood-color="#000" flood-opacity=".5"/>
      <feComposite in2="blur" operator="in"/>
      <feComposite in="SourceGraphic"/>
    </filter>
  </defs>
  <g id="_01" data-name="01">
    <path class="cls-3" d="m121.19,67.03s-6.46,3.61-8.14-.24c0,0-.08-.08-.18-.03l-1.99-.31c-.16-.16-.34-.21-.58-.08l-1.47-.24c-.86-6.72-3.51-12.87-7.46-17.98l.89-1.2c.26-.08.34-.26.34-.47l1.2-1.65c.1-.03.1-.13.1-.13-1.54-3.9,5.57-5.91,5.57-5.91,5.84-3.06,1.83-7.38,1.83-7.38,0,0-4.32-3.98-7.38,1.83,0,0-2.04,7.12-5.91,5.57,0,0-.1,0-.13.1l-1.62,1.2c-.21,0-.39.08-.47.34l-1.2.89c-5.1-3.95-11.25-6.59-17.98-7.46l-.24-1.47h-.1c.13-.24.05-.44-.08-.58l-.31-1.99c.05-.1-.03-.18-.03-.18-3.85-1.65-.24-8.14-.24-8.14,1.96-6.28-3.9-6.52-3.9-6.52,0,0-5.86.24-3.9,6.52,0,0,3.61,6.46-.24,8.14,0,0-.08.08-.03.18l-.31,2.01c-.16.16-.21.34-.08.58l-.24,1.47c-6.72.86-12.87,3.51-17.98,7.46l-1.2-.89c-.08-.26-.26-.34-.47-.34l-1.62-1.2c-.03-.1-.13-.1-.13-.1-3.9,1.54-5.91-5.57-5.91-5.57-3.06-5.84-7.38-1.83-7.38-1.83,0,0-3.98,4.32,1.83,7.38,0,0,7.12,2.04,5.57,5.91,0,0,0,.1.1.13l1.2,1.65c0,.21.08.37.34.47l.89,1.2c-3.95,5.1-6.59,11.25-7.46,17.98l-1.47.24c-.24-.13-.42-.05-.58.08l-1.99.31c-.1-.05-.18.03-.18.03-1.65,3.85-8.14.24-8.14.24-6.28-1.96-6.52,3.9-6.52,3.9,0,0,.24,5.86,6.52,3.9,0,0,6.46-3.61,8.14.24,0,0,.08.08.18.03l2.01.31c.16.16.34.21.58.08l1.47.24c.86,6.72,3.51,12.87,7.46,17.98l-.89,1.2c-.26.08-.34.26-.34.47l-1.2,1.62c-.1.03-.1.13-.1.13,1.54,3.9-5.57,5.91-5.57,5.91-5.84,3.06-1.83,7.38-1.83,7.38,0,0,4.32,3.98,7.38-1.83,0,0,2.04-7.12,5.91-5.57,0,0,.1,0,.13-.1l1.65-1.2c.21,0,.37-.08.47-.34l1.2-.89c5.1,3.95,11.25,6.59,17.98,7.46l.24,1.47c-.13.24-.05.42.08.58l.31,1.99c-.05.1.03.18.03.18,3.85,1.65.24,8.14.24,8.14-1.96,6.28,3.9,6.52,3.9,6.52,0,0,5.86-.24,3.9-6.52,0,0-3.61-6.46.24-8.14,0,0,.08-.08.03-.18l.31-2.01c.16-.16.21-.34.08-.58l.24-1.47c6.72-.86,12.87-3.51,17.98-7.46l1.2.89c.08.26.26.34.47.34l1.65,1.2c.03.1.13.1.13.1,3.9-1.54,5.91,5.57,5.91,5.57,3.06,5.84,7.38,1.83,7.38,1.83,0,0,3.98-4.32-1.83-7.38,0,0-7.12-2.04-5.57-5.91,0,0,0-.1-.1-.13l-1.2-1.62c0-.21-.08-.39-.34-.47l-.89-1.2c3.95-5.1,6.59-11.25,7.46-17.98l1.47-.24c.24.13.42.05.58-.08l2.01-.31c.1.05.18-.03.18-.03,1.65-3.85,8.14-.24,8.14-.24,6.28,1.96,6.52-3.9,6.52-3.9,0,0-.24-5.86-6.52-3.9Z"/>
    <text class="cls-2" transform="translate(45.6 61.92)"><tspan class="cls-4" x="0" y="0">遊漁船の</tspan><tspan class="cls-4"><tspan x="6.66" y="15.59">船長は</tspan></tspan><tspan class="cls-8" x="8.23" y="31.18">こ</tspan><tspan class="cls-5" x="20.66" y="31.18">ち</tspan><tspan class="cls-1" x="32.46" y="31.18">ら</tspan></text>
  </g>
</svg>